  0
SECTION
  2
HEADER
  9
$ACADVER
  1
AC1009
  9
$FILLMODE
 70
0
  9
$EXTMIN
 10
0.0000
 20
-15.0991
 30
0.0000
  9
$EXTMAX
 10
491.1300
 20
151.4400
 30
0.0000
  0
ENDSEC
  0
SECTION
  2
TABLES
  0
TABLE
  2
LTYPE
 70
1
  0
LTYPE
  2
CONTINUOUS
 70
64
  3
Solid line
 72
65
 73
0
 40
0
  0
ENDTAB
  0
TABLE
  2
LAYER
 70
255
  0
LAYER
  2
17
 70
64
 62
110
  6
CONTINUOUS
  0
LAYER
  2
20
 70
64
 62
31
  6
CONTINUOUS
  0
ENDTAB
  0
ENDSEC
  0
SECTION
  2
BLOCKS
  0
BLOCK
  8
0
  2
RECT
 70
64
 10
0.0000
 20
0.0000
 30
0.0000
  3
RECT
  0
SOLID
  8
0
 10
-0.5000
 20
-0.5000
 30
0.0000
 11
0.5000
 21
-0.5000
 31
0.0000
 12
-0.5000
 22
0.5000
 32
0.0000
 13
0.5000
 23
0.5000
 33
0.0000
  0
ENDBLK
  8
0
  0
BLOCK
  8
0
  2
PIE
 70
64
 10
0.0000
 20
0.0000
 30
0.0000
  3
PIE
  0
CIRCLE
  8
0
 10
0.0000
 20
0.0000
 30
0.0000
 40
0.5000
  0
ENDBLK
  8
0
  0
BLOCK
  8
0
  2
OCTAGONP
 70
64
 10
0.0000
 20
0.0000
 30
0.0000
  3
OCTAGONP
  0
POLYLINE
  8
0
 66
1
 10
0.0000
 20
0.0000
 30
0.0000
 40
0.0000
 41
0.0000
 70
1
  0
VERTEX
  8
0
 10
-0.5000
 20
-0.2071
 30
0.0000
  0
VERTEX
  8
0
 10
-0.5000
 20
0.2071
 30
0.0000
  0
VERTEX
  8
0
 10
-0.2071
 20
0.5000
 30
0.0000
  0
VERTEX
  8
0
 10
0.2071
 20
0.5000
 30
0.0000
  0
VERTEX
  8
0
 10
0.5000
 20
0.2071
 30
0.0000
  0
VERTEX
  8
0
 10
0.5000
 20
-0.2071
 30
0.0000
  0
VERTEX
  8
0
 10
0.2071
 20
-0.5000
 30
0.0000
  0
VERTEX
  8
0
 10
-0.2071
 20
-0.5000
 30
0.0000
  0
SEQEND
  8
0
  0
ENDBLK
  8
0
  0
BLOCK
  8
0
  2
SQUAREP
 70
64
 10
0.0000
 20
0.0000
 30
0.0000
  3
SQUAREP
  0
SOLID
  8
0
 10
-0.5000
 20
-0.5000
 30
0.0000
 11
0.5000
 21
-0.5000
 31
0.0000
 12
-0.5000
 22
0.5000
 32
0.0000
 13
0.5000
 23
0.5000
 33
0.0000
  0
ENDBLK
  8
0
  0
BLOCK
  8
0
  2
ROUNDP
 70
64
 10
0.0000
 20
0.0000
 30
0.0000
  3
ROUNDP
  0
CIRCLE
  8
0
 10
0.0000
 20
0.0000
 30
0.0000
 40
0.5000
  0
ENDBLK
  8
0
  0
BLOCK
  8
0
  2
ANNULUSP
 70
64
 10
0.0000
 20
0.0000
 30
0.0000
  3
ANNULUSP
  0
CIRCLE
  8
0
 10
0.0000
 20
0.0000
 30
0.0000
 40
0.5000
  0
ENDBLK
  8
0
  0
BLOCK
  8
0
  2
THERMALP
 70
64
 10
0.0000
 20
0.0000
 30
0.0000
  3
THERMALP
  0
POLYLINE
  8
0
 66
1
 10
0.0000
 20
0.0000
 30
0.0000
 40
0.0000
 41
0.0000
 70
1
  0
VERTEX
  8
0
 10
-0.2379
 20
0.4000
 30
0.0000
  0
VERTEX
  8
0
 10
0.2379
 20
0.4000
 30
0.0000
 42
1.0000
  0
VERTEX
  8
0
 10
0.2379
 20
0.5000
 30
0.0000
  0
VERTEX
  8
0
 10
-0.2379
 20
0.5000
 30
0.0000
 42
1.0000
  0
SEQEND
  8
0
  0
POLYLINE
  8
0
 66
1
 10
0.0000
 20
0.0000
 30
0.0000
 40
0.0000
 41
0.0000
 70
1
  0
VERTEX
  8
0
 10
0.4000
 20
0.2379
 30
0.0000
  0
VERTEX
  8
0
 10
0.4000
 20
-0.2379
 30
0.0000
 42
1.0000
  0
VERTEX
  8
0
 10
0.5000
 20
-0.2379
 30
0.0000
  0
VERTEX
  8
0
 10
0.5000
 20
0.2379
 30
0.0000
 42
1.0000
  0
SEQEND
  8
0
  0
POLYLINE
  8
0
 66
1
 10
0.0000
 20
0.0000
 30
0.0000
 40
0.0000
 41
0.0000
 70
1
  0
VERTEX
  8
0
 10
0.2379
 20
-0.4000
 30
0.0000
  0
VERTEX
  8
0
 10
-0.2379
 20
-0.4000
 30
0.0000
 42
1.0000
  0
VERTEX
  8
0
 10
-0.2379
 20
-0.5000
 30
0.0000
  0
VERTEX
  8
0
 10
0.2379
 20
-0.5000
 30
0.0000
 42
1.0000
  0
SEQEND
  8
0
  0
POLYLINE
  8
0
 66
1
 10
0.0000
 20
0.0000
 30
0.0000
 40
0.0000
 41
0.0000
 70
1
  0
VERTEX
  8
0
 10
-0.4000
 20
-0.2379
 30
0.0000
  0
VERTEX
  8
0
 10
-0.4000
 20
0.2379
 30
0.0000
 42
1.0000
  0
VERTEX
  8
0
 10
-0.5000
 20
0.2379
 30
0.0000
  0
VERTEX
  8
0
 10
-0.5000
 20
-0.2379
 30
0.0000
 42
1.0000
  0
SEQEND
  8
0
  0
ENDBLK
  8
0
  0
BLOCK
  8
0
  2
OCTAGONV
 70
64
 10
0.0000
 20
0.0000
 30
0.0000
  3
OCTAGONV
  0
POLYLINE
  8
0
 66
1
 10
0.0000
 20
0.0000
 30
0.0000
 40
0.0000
 41
0.0000
 70
1
  0
VERTEX
  8
0
 10
-0.5000
 20
-0.2071
 30
0.0000
  0
VERTEX
  8
0
 10
-0.5000
 20
0.2071
 30
0.0000
  0
VERTEX
  8
0
 10
-0.2071
 20
0.5000
 30
0.0000
  0
VERTEX
  8
0
 10
0.2071
 20
0.5000
 30
0.0000
  0
VERTEX
  8
0
 10
0.5000
 20
0.2071
 30
0.0000
  0
VERTEX
  8
0
 10
0.5000
 20
-0.2071
 30
0.0000
  0
VERTEX
  8
0
 10
0.2071
 20
-0.5000
 30
0.0000
  0
VERTEX
  8
0
 10
-0.2071
 20
-0.5000
 30
0.0000
  0
SEQEND
  8
0
  0
ENDBLK
  8
0
  0
BLOCK
  8
0
  2
SQUAREV
 70
64
 10
0.0000
 20
0.0000
 30
0.0000
  3
SQUAREV
  0
SOLID
  8
0
 10
-0.5000
 20
-0.5000
 30
0.0000
 11
0.5000
 21
-0.5000
 31
0.0000
 12
-0.5000
 22
0.5000
 32
0.0000
 13
0.5000
 23
0.5000
 33
0.0000
  0
ENDBLK
  8
0
  0
BLOCK
  8
0
  2
ROUNDV
 70
64
 10
0.0000
 20
0.0000
 30
0.0000
  3
ROUNDV
  0
CIRCLE
  8
0
 10
0.0000
 20
0.0000
 30
0.0000
 40
0.5000
  0
ENDBLK
  8
0
  0
BLOCK
  8
0
  2
ANNULUSV
 70
64
 10
0.0000
 20
0.0000
 30
0.0000
  3
ANNULUSV
  0
CIRCLE
  8
0
 10
0.0000
 20
0.0000
 30
0.0000
 40
0.5000
  0
ENDBLK
  8
0
  0
BLOCK
  8
0
  2
THERMALV
 70
64
 10
0.0000
 20
0.0000
 30
0.0000
  3
THERMALV
  0
POLYLINE
  8
0
 66
1
 10
0.0000
 20
0.0000
 30
0.0000
 40
0.0000
 41
0.0000
 70
1
  0
VERTEX
  8
0
 10
-0.2379
 20
0.4000
 30
0.0000
  0
VERTEX
  8
0
 10
0.2379
 20
0.4000
 30
0.0000
 42
1.0000
  0
VERTEX
  8
0
 10
0.2379
 20
0.5000
 30
0.0000
  0
VERTEX
  8
0
 10
-0.2379
 20
0.5000
 30
0.0000
 42
1.0000
  0
SEQEND
  8
0
  0
POLYLINE
  8
0
 66
1
 10
0.0000
 20
0.0000
 30
0.0000
 40
0.0000
 41
0.0000
 70
1
  0
VERTEX
  8
0
 10
0.4000
 20
0.2379
 30
0.0000
  0
VERTEX
  8
0
 10
0.4000
 20
-0.2379
 30
0.0000
 42
1.0000
  0
VERTEX
  8
0
 10
0.5000
 20
-0.2379
 30
0.0000
  0
VERTEX
  8
0
 10
0.5000
 20
0.2379
 30
0.0000
 42
1.0000
  0
SEQEND
  8
0
  0
POLYLINE
  8
0
 66
1
 10
0.0000
 20
0.0000
 30
0.0000
 40
0.0000
 41
0.0000
 70
1
  0
VERTEX
  8
0
 10
0.2379
 20
-0.4000
 30
0.0000
  0
VERTEX
  8
0
 10
-0.2379
 20
-0.4000
 30
0.0000
 42
1.0000
  0
VERTEX
  8
0
 10
-0.2379
 20
-0.5000
 30
0.0000
  0
VERTEX
  8
0
 10
0.2379
 20
-0.5000
 30
0.0000
 42
1.0000
  0
SEQEND
  8
0
  0
POLYLINE
  8
0
 66
1
 10
0.0000
 20
0.0000
 30
0.0000
 40
0.0000
 41
0.0000
 70
1
  0
VERTEX
  8
0
 10
-0.4000
 20
-0.2379
 30
0.0000
  0
VERTEX
  8
0
 10
-0.4000
 20
0.2379
 30
0.0000
 42
1.0000
  0
VERTEX
  8
0
 10
-0.5000
 20
0.2379
 30
0.0000
  0
VERTEX
  8
0
 10
-0.5000
 20
-0.2379
 30
0.0000
 42
1.0000
  0
SEQEND
  8
0
  0
ENDBLK
  8
0
  0
BLOCK
  8
0
  2
LONGP100
 70
64
 10
0.0000
 20
0.0000
 30
0.0000
  3
LONGP100
  0
POLYLINE
  8
0
 66
1
 10
0.0000
 20
0.0000
 30
0.0000
 40
0.0000
 41
0.0000
 70
1
  0
VERTEX
  8
0
 10
-0.5000
 20
-0.5000
 30
0.0000
  0
VERTEX
  8
0
 10
0.5000
 20
-0.5000
 30
0.0000
 42
1.0000
  0
VERTEX
  8
0
 10
0.5000
 20
0.5000
 30
0.0000
  0
VERTEX
  8
0
 10
-0.5000
 20
0.5000
 30
0.0000
 42
1.0000
  0
SEQEND
  8
0
  0
ENDBLK
  8
0
  0
ENDSEC
  0
SECTION
  2
ENTITIES
  0
LINE
  8
20
 10
485.0000
 20
0.0000
 30
0.0000
 11
485.0000
 21
130.0000
 31
0.0000
  0
LINE
  8
20
 10
485.0000
 20
130.0000
 30
0.0000
 11
0.0000
 21
130.0000
 31
0.0000
  0
LINE
  8
20
 10
0.0000
 20
130.0000
 30
0.0000
 11
0.0000
 21
0.0000
 31
0.0000
  0
LINE
  8
20
 10
0.0000
 20
0.0000
 30
0.0000
 11
485.0000
 21
0.0000
 31
0.0000
  0
CIRCLE
  8
20
 10
5.0000
 20
125.0000
 30
0.0000
 40
1.5000
  0
CIRCLE
  8
20
 10
5.0000
 20
5.0000
 30
0.0000
 40
1.5000
  0
CIRCLE
  8
20
 10
480.0000
 20
125.0000
 30
0.0000
 40
1.5000
  0
CIRCLE
  8
20
 10
480.0000
 20
5.0000
 30
0.0000
 40
1.5000
  0
CIRCLE
  8
20
 10
265.0000
 20
125.0000
 30
0.0000
 40
1.5000
  0
CIRCLE
  8
20
 10
285.0000
 20
5.0000
 30
0.0000
 40
1.5000
  0
CIRCLE
  8
20
 10
265.0000
 20
5.0000
 30
0.0000
 40
1.5000
  0
CIRCLE
  8
20
 10
215.0000
 20
5.0000
 30
0.0000
 40
1.5000
  0
CIRCLE
  8
20
 10
165.0000
 20
5.0000
 30
0.0000
 40
1.5000
  0
CIRCLE
  8
20
 10
115.0000
 20
5.0000
 30
0.0000
 40
1.5000
  0
CIRCLE
  8
20
 10
65.0000
 20
5.0000
 30
0.0000
 40
1.5000
  0
CIRCLE
  8
20
 10
65.0000
 20
125.0000
 30
0.0000
 40
1.5000
  0
CIRCLE
  8
20
 10
115.0000
 20
125.0000
 30
0.0000
 40
1.5000
  0
CIRCLE
  8
20
 10
165.0000
 20
125.0000
 30
0.0000
 40
1.5000
  0
CIRCLE
  8
20
 10
215.0000
 20
125.0000
 30
0.0000
 40
1.5000
  0
CIRCLE
  8
20
 10
65.0000
 20
65.0000
 30
0.0000
 40
1.5000
  0
CIRCLE
  8
20
 10
115.0000
 20
65.0000
 30
0.0000
 40
1.5000
  0
CIRCLE
  8
20
 10
165.0000
 20
65.0000
 30
0.0000
 40
1.5000
  0
CIRCLE
  8
20
 10
215.0000
 20
65.0000
 30
0.0000
 40
1.5000
  0
CIRCLE
  8
20
 10
5.0000
 20
65.0000
 30
0.0000
 40
1.5000
  0
CIRCLE
  8
20
 10
290.0000
 20
60.0000
 30
0.0000
 40
1.5000
  0
CIRCLE
  8
20
 10
10.0000
 20
18.0000
 30
0.0000
 40
3.2500
  0
CIRCLE
  8
20
 10
35.0000
 20
18.0000
 30
0.0000
 40
3.2500
  0
CIRCLE
  8
20
 10
325.0000
 20
110.0000
 30
0.0000
 40
1.5000
  0
CIRCLE
  8
20
 10
385.0000
 20
5.0000
 30
0.0000
 40
1.5000
  0
CIRCLE
  8
20
 10
370.0000
 20
110.0000
 30
0.0000
 40
1.5000
  0
CIRCLE
  8
20
 10
415.0000
 20
5.0000
 30
0.0000
 40
1.5000
  0
CIRCLE
  8
20
 10
385.0000
 20
110.0000
 30
0.0000
 40
1.5000
  0
CIRCLE
  8
20
 10
50.0000
 20
65.0000
 30
0.0000
 40
1.5000
  0
CIRCLE
  8
20
 10
90.0000
 20
65.0000
 30
0.0000
 40
1.5000
  0
CIRCLE
  8
20
 10
130.0000
 20
65.0000
 30
0.0000
 40
1.5000
  0
CIRCLE
  8
20
 10
170.0000
 20
65.0000
 30
0.0000
 40
1.5000
  0
CIRCLE
  8
20
 10
210.0000
 20
65.0000
 30
0.0000
 40
1.5000
  0
CIRCLE
  8
20
 10
250.0000
 20
65.0000
 30
0.0000
 40
1.5000
  0
CIRCLE
  8
20
 10
435.0000
 20
95.0000
 30
0.0000
 40
1.5000
  0
CIRCLE
  8
20
 10
415.0000
 20
50.0000
 30
0.0000
 40
1.5000
  0
CIRCLE
  8
20
 10
385.0000
 20
50.0000
 30
0.0000
 40
1.5000
  0
CIRCLE
  8
20
 10
460.0000
 20
50.0000
 30
0.0000
 40
1.5000
  0
CIRCLE
  8
20
 10
10.0000
 20
118.0000
 30
0.0000
 40
3.2500
  0
CIRCLE
  8
20
 10
35.0000
 20
119.6000
 30
0.0000
 40
3.2500
  0
CIRCLE
  8
20
 10
238.2000
 20
119.6000
 30
0.0000
 40
3.2500
  0
CIRCLE
  8
20
 10
466.8000
 20
18.0000
 30
0.0000
 40
3.2500
  0
CIRCLE
  8
20
 10
235.0000
 20
18.0000
 30
0.0000
 40
3.2500
  0
CIRCLE
  8
20
 10
435.0000
 20
18.0000
 30
0.0000
 40
3.2500
  0
CIRCLE
  8
20
 10
365.0000
 20
50.0000
 30
0.0000
 40
1.5000
  0
CIRCLE
  8
20
 10
340.0000
 20
85.0000
 30
0.0000
 40
1.5000
  0
CIRCLE
  8
20
 10
340.0000
 20
5.0000
 30
0.0000
 40
1.5000
  0
INSERT
  8
17
  2
OCTAGONP
 10
341.8000
 20
97.5950
 30
0.0000
 41
0.9750
 42
0.9750
 43
1.0000
 50
180.0000
  0
INSERT
  8
17
  2
OCTAGONP
 10
341.8000
 20
97.5950
 30
0.0000
 41
0.9750
 42
0.9750
 43
1.0000
 50
180.0000
  0
INSERT
  8
17
  2
OCTAGONP
 10
341.8000
 20
98.8650
 30
0.0000
 41
0.9750
 42
0.9750
 43
1.0000
 50
180.0000
  0
INSERT
  8
17
  2
OCTAGONP
 10
341.8000
 20
98.8650
 30
0.0000
 41
0.9750
 42
0.9750
 43
1.0000
 50
180.0000
  0
INSERT
  8
17
  2
OCTAGONP
 10
341.8000
 20
100.1350
 30
0.0000
 41
0.9750
 42
0.9750
 43
1.0000
 50
180.0000
  0
INSERT
  8
17
  2
OCTAGONP
 10
341.8000
 20
100.1350
 30
0.0000
 41
0.9750
 42
0.9750
 43
1.0000
 50
180.0000
  0
INSERT
  8
17
  2
OCTAGONP
 10
341.8000
 20
101.4050
 30
0.0000
 41
0.9750
 42
0.9750
 43
1.0000
 50
180.0000
  0
INSERT
  8
17
  2
OCTAGONP
 10
341.8000
 20
101.4050
 30
0.0000
 41
0.9750
 42
0.9750
 43
1.0000
 50
180.0000
  0
INSERT
  8
17
  2
OCTAGONP
 10
341.8000
 20
72.5950
 30
0.0000
 41
0.9750
 42
0.9750
 43
1.0000
 50
180.0000
  0
INSERT
  8
17
  2
OCTAGONP
 10
341.8000
 20
72.5950
 30
0.0000
 41
0.9750
 42
0.9750
 43
1.0000
 50
180.0000
  0
INSERT
  8
17
  2
OCTAGONP
 10
341.8000
 20
73.8650
 30
0.0000
 41
0.9750
 42
0.9750
 43
1.0000
 50
180.0000
  0
INSERT
  8
17
  2
OCTAGONP
 10
341.8000
 20
73.8650
 30
0.0000
 41
0.9750
 42
0.9750
 43
1.0000
 50
180.0000
  0
INSERT
  8
17
  2
OCTAGONP
 10
341.8000
 20
75.1350
 30
0.0000
 41
0.9750
 42
0.9750
 43
1.0000
 50
180.0000
  0
INSERT
  8
17
  2
OCTAGONP
 10
341.8000
 20
75.1350
 30
0.0000
 41
0.9750
 42
0.9750
 43
1.0000
 50
180.0000
  0
INSERT
  8
17
  2
OCTAGONP
 10
341.8000
 20
76.4050
 30
0.0000
 41
0.9750
 42
0.9750
 43
1.0000
 50
180.0000
  0
INSERT
  8
17
  2
OCTAGONP
 10
341.8000
 20
76.4050
 30
0.0000
 41
0.9750
 42
0.9750
 43
1.0000
 50
180.0000
  0
INSERT
  8
17
  2
OCTAGONP
 10
343.6050
 20
24.7000
 30
0.0000
 41
0.9750
 42
0.9750
 43
1.0000
 50
270.0000
  0
INSERT
  8
17
  2
OCTAGONP
 10
343.6050
 20
24.7000
 30
0.0000
 41
0.9750
 42
0.9750
 43
1.0000
 50
270.0000
  0
INSERT
  8
17
  2
OCTAGONP
 10
342.3350
 20
24.7000
 30
0.0000
 41
0.9750
 42
0.9750
 43
1.0000
 50
270.0000
  0
INSERT
  8
17
  2
OCTAGONP
 10
342.3350
 20
24.7000
 30
0.0000
 41
0.9750
 42
0.9750
 43
1.0000
 50
270.0000
  0
INSERT
  8
17
  2
OCTAGONP
 10
341.0650
 20
24.7000
 30
0.0000
 41
0.9750
 42
0.9750
 43
1.0000
 50
270.0000
  0
INSERT
  8
17
  2
OCTAGONP
 10
341.0650
 20
24.7000
 30
0.0000
 41
0.9750
 42
0.9750
 43
1.0000
 50
270.0000
  0
INSERT
  8
17
  2
OCTAGONP
 10
339.7950
 20
24.7000
 30
0.0000
 41
0.9750
 42
0.9750
 43
1.0000
 50
270.0000
  0
INSERT
  8
17
  2
OCTAGONP
 10
339.7950
 20
24.7000
 30
0.0000
 41
0.9750
 42
0.9750
 43
1.0000
 50
270.0000
  0
INSERT
  8
17
  2
OCTAGONP
 10
343.0470
 20
48.1530
 30
0.0000
 41
0.9750
 42
0.9750
 43
1.0000
 50
225.0000
  0
INSERT
  8
17
  2
OCTAGONP
 10
343.0470
 20
48.1530
 30
0.0000
 41
0.9750
 42
0.9750
 43
1.0000
 50
225.0000
  0
INSERT
  8
17
  2
OCTAGONP
 10
342.1490
 20
49.0510
 30
0.0000
 41
0.9750
 42
0.9750
 43
1.0000
 50
225.0000
  0
INSERT
  8
17
  2
OCTAGONP
 10
342.1490
 20
49.0510
 30
0.0000
 41
0.9750
 42
0.9750
 43
1.0000
 50
225.0000
  0
INSERT
  8
17
  2
OCTAGONP
 10
341.2510
 20
49.9490
 30
0.0000
 41
0.9750
 42
0.9750
 43
1.0000
 50
225.0000
  0
INSERT
  8
17
  2
OCTAGONP
 10
341.2510
 20
49.9490
 30
0.0000
 41
0.9750
 42
0.9750
 43
1.0000
 50
225.0000
  0
INSERT
  8
17
  2
OCTAGONP
 10
340.3530
 20
50.8470
 30
0.0000
 41
0.9750
 42
0.9750
 43
1.0000
 50
225.0000
  0
INSERT
  8
17
  2
OCTAGONP
 10
340.3530
 20
50.8470
 30
0.0000
 41
0.9750
 42
0.9750
 43
1.0000
 50
225.0000
  0
INSERT
  8
17
  2
ROUNDP
 10
295.0000
 20
20.0000
 30
0.0000
 41
2.3622
 42
2.3622
 43
1.0000
 50
0.0000
  0
INSERT
  8
17
  2
ROUNDP
 10
295.0000
 20
20.0000
 30
0.0000
 41
2.3622
 42
2.3622
 43
1.0000
 50
0.0000
  0
INSERT
  8
17
  2
ROUNDP
 10
292.4600
 20
22.5400
 30
0.0000
 41
2.5527
 42
2.5527
 43
1.0000
 50
0.0000
  0
INSERT
  8
17
  2
ROUNDP
 10
292.4600
 20
22.5400
 30
0.0000
 41
2.5527
 42
2.5527
 43
1.0000
 50
0.0000
  0
INSERT
  8
17
  2
ROUNDP
 10
297.5400
 20
22.5400
 30
0.0000
 41
2.5527
 42
2.5527
 43
1.0000
 50
0.0000
  0
INSERT
  8
17
  2
ROUNDP
 10
297.5400
 20
22.5400
 30
0.0000
 41
2.5527
 42
2.5527
 43
1.0000
 50
0.0000
  0
INSERT
  8
17
  2
ROUNDP
 10
292.4600
 20
17.4600
 30
0.0000
 41
2.5527
 42
2.5527
 43
1.0000
 50
0.0000
  0
INSERT
  8
17
  2
ROUNDP
 10
292.4600
 20
17.4600
 30
0.0000
 41
2.5527
 42
2.5527
 43
1.0000
 50
0.0000
  0
INSERT
  8
17
  2
ROUNDP
 10
297.5400
 20
17.4600
 30
0.0000
 41
2.5527
 42
2.5527
 43
1.0000
 50
0.0000
  0
INSERT
  8
17
  2
ROUNDP
 10
297.5400
 20
17.4600
 30
0.0000
 41
2.5527
 42
2.5527
 43
1.0000
 50
0.0000
  0
INSERT
  8
17
  2
ROUNDP
 10
295.0000
 20
45.0000
 30
0.0000
 41
2.3622
 42
2.3622
 43
1.0000
 50
0.0000
  0
INSERT
  8
17
  2
ROUNDP
 10
295.0000
 20
45.0000
 30
0.0000
 41
2.3622
 42
2.3622
 43
1.0000
 50
0.0000
  0
INSERT
  8
17
  2
ROUNDP
 10
292.4600
 20
47.5400
 30
0.0000
 41
2.5527
 42
2.5527
 43
1.0000
 50
0.0000
  0
INSERT
  8
17
  2
ROUNDP
 10
292.4600
 20
47.5400
 30
0.0000
 41
2.5527
 42
2.5527
 43
1.0000
 50
0.0000
  0
INSERT
  8
17
  2
ROUNDP
 10
297.5400
 20
47.5400
 30
0.0000
 41
2.5527
 42
2.5527
 43
1.0000
 50
0.0000
  0
INSERT
  8
17
  2
ROUNDP
 10
297.5400
 20
47.5400
 30
0.0000
 41
2.5527
 42
2.5527
 43
1.0000
 50
0.0000
  0
INSERT
  8
17
  2
ROUNDP
 10
292.4600
 20
42.4600
 30
0.0000
 41
2.5527
 42
2.5527
 43
1.0000
 50
0.0000
  0
INSERT
  8
17
  2
ROUNDP
 10
292.4600
 20
42.4600
 30
0.0000
 41
2.5527
 42
2.5527
 43
1.0000
 50
0.0000
  0
INSERT
  8
17
  2
ROUNDP
 10
297.5400
 20
42.4600
 30
0.0000
 41
2.5527
 42
2.5527
 43
1.0000
 50
0.0000
  0
INSERT
  8
17
  2
ROUNDP
 10
297.5400
 20
42.4600
 30
0.0000
 41
2.5527
 42
2.5527
 43
1.0000
 50
0.0000
  0
INSERT
  8
17
  2
ROUNDP
 10
295.0000
 20
70.0000
 30
0.0000
 41
2.3622
 42
2.3622
 43
1.0000
 50
0.0000
  0
INSERT
  8
17
  2
ROUNDP
 10
295.0000
 20
70.0000
 30
0.0000
 41
2.3622
 42
2.3622
 43
1.0000
 50
0.0000
  0
INSERT
  8
17
  2
ROUNDP
 10
292.4600
 20
72.5400
 30
0.0000
 41
2.5527
 42
2.5527
 43
1.0000
 50
0.0000
  0
INSERT
  8
17
  2
ROUNDP
 10
292.4600
 20
72.5400
 30
0.0000
 41
2.5527
 42
2.5527
 43
1.0000
 50
0.0000
  0
INSERT
  8
17
  2
ROUNDP
 10
297.5400
 20
72.5400
 30
0.0000
 41
2.5527
 42
2.5527
 43
1.0000
 50
0.0000
  0
INSERT
  8
17
  2
ROUNDP
 10
297.5400
 20
72.5400
 30
0.0000
 41
2.5527
 42
2.5527
 43
1.0000
 50
0.0000
  0
INSERT
  8
17
  2
ROUNDP
 10
292.4600
 20
67.4600
 30
0.0000
 41
2.5527
 42
2.5527
 43
1.0000
 50
0.0000
  0
INSERT
  8
17
  2
ROUNDP
 10
292.4600
 20
67.4600
 30
0.0000
 41
2.5527
 42
2.5527
 43
1.0000
 50
0.0000
  0
INSERT
  8
17
  2
ROUNDP
 10
297.5400
 20
67.4600
 30
0.0000
 41
2.5527
 42
2.5527
 43
1.0000
 50
0.0000
  0
INSERT
  8
17
  2
ROUNDP
 10
297.5400
 20
67.4600
 30
0.0000
 41
2.5527
 42
2.5527
 43
1.0000
 50
0.0000
  0
INSERT
  8
17
  2
ROUNDP
 10
295.0000
 20
95.0000
 30
0.0000
 41
2.3622
 42
2.3622
 43
1.0000
 50
0.0000
  0
INSERT
  8
17
  2
ROUNDP
 10
295.0000
 20
95.0000
 30
0.0000
 41
2.3622
 42
2.3622
 43
1.0000
 50
0.0000
  0
INSERT
  8
17
  2
ROUNDP
 10
292.4600
 20
97.5400
 30
0.0000
 41
2.5527
 42
2.5527
 43
1.0000
 50
0.0000
  0
INSERT
  8
17
  2
ROUNDP
 10
292.4600
 20
97.5400
 30
0.0000
 41
2.5527
 42
2.5527
 43
1.0000
 50
0.0000
  0
INSERT
  8
17
  2
ROUNDP
 10
297.5400
 20
97.5400
 30
0.0000
 41
2.5527
 42
2.5527
 43
1.0000
 50
0.0000
  0
INSERT
  8
17
  2
ROUNDP
 10
297.5400
 20
97.5400
 30
0.0000
 41
2.5527
 42
2.5527
 43
1.0000
 50
0.0000
  0
INSERT
  8
17
  2
ROUNDP
 10
292.4600
 20
92.4600
 30
0.0000
 41
2.5527
 42
2.5527
 43
1.0000
 50
0.0000
  0
INSERT
  8
17
  2
ROUNDP
 10
292.4600
 20
92.4600
 30
0.0000
 41
2.5527
 42
2.5527
 43
1.0000
 50
0.0000
  0
INSERT
  8
17
  2
ROUNDP
 10
297.5400
 20
92.4600
 30
0.0000
 41
2.5527
 42
2.5527
 43
1.0000
 50
0.0000
  0
INSERT
  8
17
  2
ROUNDP
 10
297.5400
 20
92.4600
 30
0.0000
 41
2.5527
 42
2.5527
 43
1.0000
 50
0.0000
  0
INSERT
  8
17
  2
ROUNDP
 10
478.7300
 20
31.2700
 30
0.0000
 41
1.2000
 42
1.2000
 43
1.0000
 50
0.0000
  0
INSERT
  8
17
  2
ROUNDP
 10
478.7300
 20
31.2700
 30
0.0000
 41
1.2000
 42
1.2000
 43
1.0000
 50
0.0000
  0
INSERT
  8
17
  2
ROUNDP
 10
478.7300
 20
28.7300
 30
0.0000
 41
1.2000
 42
1.2000
 43
1.0000
 50
0.0000
  0
INSERT
  8
17
  2
ROUNDP
 10
478.7300
 20
28.7300
 30
0.0000
 41
1.2000
 42
1.2000
 43
1.0000
 50
0.0000
  0
INSERT
  8
17
  2
ROUNDP
 10
481.2700
 20
28.7300
 30
0.0000
 41
1.2000
 42
1.2000
 43
1.0000
 50
0.0000
  0
INSERT
  8
17
  2
ROUNDP
 10
481.2700
 20
28.7300
 30
0.0000
 41
1.2000
 42
1.2000
 43
1.0000
 50
0.0000
  0
INSERT
  8
17
  2
ROUNDP
 10
481.2700
 20
31.2700
 30
0.0000
 41
1.2000
 42
1.2000
 43
1.0000
 50
0.0000
  0
INSERT
  8
17
  2
ROUNDP
 10
481.2700
 20
31.2700
 30
0.0000
 41
1.2000
 42
1.2000
 43
1.0000
 50
0.0000
  0
INSERT
  8
17
  2
ROUNDP
 10
480.0000
 20
30.0000
 30
0.0000
 41
1.2000
 42
1.2000
 43
1.0000
 50
0.0000
  0
INSERT
  8
17
  2
ROUNDP
 10
480.0000
 20
30.0000
 30
0.0000
 41
1.2000
 42
1.2000
 43
1.0000
 50
0.0000
  0
INSERT
  8
17
  2
ROUNDP
 10
478.7300
 20
36.2700
 30
0.0000
 41
1.2000
 42
1.2000
 43
1.0000
 50
0.0000
  0
INSERT
  8
17
  2
ROUNDP
 10
478.7300
 20
36.2700
 30
0.0000
 41
1.2000
 42
1.2000
 43
1.0000
 50
0.0000
  0
INSERT
  8
17
  2
ROUNDP
 10
478.7300
 20
33.7300
 30
0.0000
 41
1.2000
 42
1.2000
 43
1.0000
 50
0.0000
  0
INSERT
  8
17
  2
ROUNDP
 10
478.7300
 20
33.7300
 30
0.0000
 41
1.2000
 42
1.2000
 43
1.0000
 50
0.0000
  0
INSERT
  8
17
  2
ROUNDP
 10
481.2700
 20
33.7300
 30
0.0000
 41
1.2000
 42
1.2000
 43
1.0000
 50
0.0000
  0
INSERT
  8
17
  2
ROUNDP
 10
481.2700
 20
33.7300
 30
0.0000
 41
1.2000
 42
1.2000
 43
1.0000
 50
0.0000
  0
INSERT
  8
17
  2
ROUNDP
 10
481.2700
 20
36.2700
 30
0.0000
 41
1.2000
 42
1.2000
 43
1.0000
 50
0.0000
  0
INSERT
  8
17
  2
ROUNDP
 10
481.2700
 20
36.2700
 30
0.0000
 41
1.2000
 42
1.2000
 43
1.0000
 50
0.0000
  0
INSERT
  8
17
  2
ROUNDP
 10
480.0000
 20
35.0000
 30
0.0000
 41
1.2000
 42
1.2000
 43
1.0000
 50
0.0000
  0
INSERT
  8
17
  2
ROUNDP
 10
480.0000
 20
35.0000
 30
0.0000
 41
1.2000
 42
1.2000
 43
1.0000
 50
0.0000
  0
INSERT
  8
17
  2
ROUNDP
 10
478.7300
 20
41.2700
 30
0.0000
 41
1.2000
 42
1.2000
 43
1.0000
 50
0.0000
  0
INSERT
  8
17
  2
ROUNDP
 10
478.7300
 20
41.2700
 30
0.0000
 41
1.2000
 42
1.2000
 43
1.0000
 50
0.0000
  0
INSERT
  8
17
  2
ROUNDP
 10
478.7300
 20
38.7300
 30
0.0000
 41
1.2000
 42
1.2000
 43
1.0000
 50
0.0000
  0
INSERT
  8
17
  2
ROUNDP
 10
478.7300
 20
38.7300
 30
0.0000
 41
1.2000
 42
1.2000
 43
1.0000
 50
0.0000
  0
INSERT
  8
17
  2
ROUNDP
 10
481.2700
 20
38.7300
 30
0.0000
 41
1.2000
 42
1.2000
 43
1.0000
 50
0.0000
  0
INSERT
  8
17
  2
ROUNDP
 10
481.2700
 20
38.7300
 30
0.0000
 41
1.2000
 42
1.2000
 43
1.0000
 50
0.0000
  0
INSERT
  8
17
  2
ROUNDP
 10
481.2700
 20
41.2700
 30
0.0000
 41
1.2000
 42
1.2000
 43
1.0000
 50
0.0000
  0
INSERT
  8
17
  2
ROUNDP
 10
481.2700
 20
41.2700
 30
0.0000
 41
1.2000
 42
1.2000
 43
1.0000
 50
0.0000
  0
INSERT
  8
17
  2
ROUNDP
 10
480.0000
 20
40.0000
 30
0.0000
 41
1.2000
 42
1.2000
 43
1.0000
 50
0.0000
  0
INSERT
  8
17
  2
ROUNDP
 10
480.0000
 20
40.0000
 30
0.0000
 41
1.2000
 42
1.2000
 43
1.0000
 50
0.0000
  0
INSERT
  8
17
  2
ROUNDP
 10
478.7300
 20
46.2700
 30
0.0000
 41
1.2000
 42
1.2000
 43
1.0000
 50
0.0000
  0
INSERT
  8
17
  2
ROUNDP
 10
478.7300
 20
46.2700
 30
0.0000
 41
1.2000
 42
1.2000
 43
1.0000
 50
0.0000
  0
INSERT
  8
17
  2
ROUNDP
 10
478.7300
 20
43.7300
 30
0.0000
 41
1.2000
 42
1.2000
 43
1.0000
 50
0.0000
  0
INSERT
  8
17
  2
ROUNDP
 10
478.7300
 20
43.7300
 30
0.0000
 41
1.2000
 42
1.2000
 43
1.0000
 50
0.0000
  0
INSERT
  8
17
  2
ROUNDP
 10
481.2700
 20
43.7300
 30
0.0000
 41
1.2000
 42
1.2000
 43
1.0000
 50
0.0000
  0
INSERT
  8
17
  2
ROUNDP
 10
481.2700
 20
43.7300
 30
0.0000
 41
1.2000
 42
1.2000
 43
1.0000
 50
0.0000
  0
INSERT
  8
17
  2
ROUNDP
 10
481.2700
 20
46.2700
 30
0.0000
 41
1.2000
 42
1.2000
 43
1.0000
 50
0.0000
  0
INSERT
  8
17
  2
ROUNDP
 10
481.2700
 20
46.2700
 30
0.0000
 41
1.2000
 42
1.2000
 43
1.0000
 50
0.0000
  0
INSERT
  8
17
  2
ROUNDP
 10
480.0000
 20
45.0000
 30
0.0000
 41
1.2000
 42
1.2000
 43
1.0000
 50
0.0000
  0
INSERT
  8
17
  2
ROUNDP
 10
480.0000
 20
45.0000
 30
0.0000
 41
1.2000
 42
1.2000
 43
1.0000
 50
0.0000
  0
INSERT
  8
17
  2
ROUNDP
 10
30.0000
 20
90.0000
 30
0.0000
 41
1.3500
 42
1.3500
 43
1.0000
 50
0.0000
  0
INSERT
  8
17
  2
ROUNDP
 10
30.0000
 20
90.0000
 30
0.0000
 41
1.3500
 42
1.3500
 43
1.0000
 50
0.0000
  0
INSERT
  8
17
  2
ROUNDP
 10
33.4300
 20
93.4300
 30
0.0000
 41
2.4000
 42
2.4000
 43
1.0000
 50
0.0000
  0
INSERT
  8
17
  2
ROUNDP
 10
33.4300
 20
93.4300
 30
0.0000
 41
2.4000
 42
2.4000
 43
1.0000
 50
0.0000
  0
INSERT
  8
17
  2
ROUNDP
 10
26.5700
 20
93.4300
 30
0.0000
 41
2.4000
 42
2.4000
 43
1.0000
 50
0.0000
  0
INSERT
  8
17
  2
ROUNDP
 10
26.5700
 20
93.4300
 30
0.0000
 41
2.4000
 42
2.4000
 43
1.0000
 50
0.0000
  0
INSERT
  8
17
  2
ROUNDP
 10
26.5700
 20
86.5700
 30
0.0000
 41
2.4000
 42
2.4000
 43
1.0000
 50
0.0000
  0
INSERT
  8
17
  2
ROUNDP
 10
26.5700
 20
86.5700
 30
0.0000
 41
2.4000
 42
2.4000
 43
1.0000
 50
0.0000
  0
INSERT
  8
17
  2
ROUNDP
 10
33.4300
 20
86.5700
 30
0.0000
 41
2.4000
 42
2.4000
 43
1.0000
 50
0.0000
  0
INSERT
  8
17
  2
ROUNDP
 10
33.4300
 20
86.5700
 30
0.0000
 41
2.4000
 42
2.4000
 43
1.0000
 50
0.0000
  0
INSERT
  8
17
  2
ROUNDP
 10
50.0000
 20
40.0000
 30
0.0000
 41
1.3500
 42
1.3500
 43
1.0000
 50
0.0000
  0
INSERT
  8
17
  2
ROUNDP
 10
50.0000
 20
40.0000
 30
0.0000
 41
1.3500
 42
1.3500
 43
1.0000
 50
0.0000
  0
INSERT
  8
17
  2
ROUNDP
 10
53.4300
 20
43.4300
 30
0.0000
 41
2.4000
 42
2.4000
 43
1.0000
 50
0.0000
  0
INSERT
  8
17
  2
ROUNDP
 10
53.4300
 20
43.4300
 30
0.0000
 41
2.4000
 42
2.4000
 43
1.0000
 50
0.0000
  0
INSERT
  8
17
  2
ROUNDP
 10
46.5700
 20
43.4300
 30
0.0000
 41
2.4000
 42
2.4000
 43
1.0000
 50
0.0000
  0
INSERT
  8
17
  2
ROUNDP
 10
46.5700
 20
43.4300
 30
0.0000
 41
2.4000
 42
2.4000
 43
1.0000
 50
0.0000
  0
INSERT
  8
17
  2
ROUNDP
 10
46.5700
 20
36.5700
 30
0.0000
 41
2.4000
 42
2.4000
 43
1.0000
 50
0.0000
  0
INSERT
  8
17
  2
ROUNDP
 10
46.5700
 20
36.5700
 30
0.0000
 41
2.4000
 42
2.4000
 43
1.0000
 50
0.0000
  0
INSERT
  8
17
  2
ROUNDP
 10
53.4300
 20
36.5700
 30
0.0000
 41
2.4000
 42
2.4000
 43
1.0000
 50
0.0000
  0
INSERT
  8
17
  2
ROUNDP
 10
53.4300
 20
36.5700
 30
0.0000
 41
2.4000
 42
2.4000
 43
1.0000
 50
0.0000
  0
INSERT
  8
17
  2
ROUNDP
 10
70.0000
 20
90.0000
 30
0.0000
 41
1.3500
 42
1.3500
 43
1.0000
 50
0.0000
  0
INSERT
  8
17
  2
ROUNDP
 10
70.0000
 20
90.0000
 30
0.0000
 41
1.3500
 42
1.3500
 43
1.0000
 50
0.0000
  0
INSERT
  8
17
  2
ROUNDP
 10
73.4300
 20
93.4300
 30
0.0000
 41
2.4000
 42
2.4000
 43
1.0000
 50
0.0000
  0
INSERT
  8
17
  2
ROUNDP
 10
73.4300
 20
93.4300
 30
0.0000
 41
2.4000
 42
2.4000
 43
1.0000
 50
0.0000
  0
INSERT
  8
17
  2
ROUNDP
 10
66.5700
 20
93.4300
 30
0.0000
 41
2.4000
 42
2.4000
 43
1.0000
 50
0.0000
  0
INSERT
  8
17
  2
ROUNDP
 10
66.5700
 20
93.4300
 30
0.0000
 41
2.4000
 42
2.4000
 43
1.0000
 50
0.0000
  0
INSERT
  8
17
  2
ROUNDP
 10
66.5700
 20
86.5700
 30
0.0000
 41
2.4000
 42
2.4000
 43
1.0000
 50
0.0000
  0
INSERT
  8
17
  2
ROUNDP
 10
66.5700
 20
86.5700
 30
0.0000
 41
2.4000
 42
2.4000
 43
1.0000
 50
0.0000
  0
INSERT
  8
17
  2
ROUNDP
 10
73.4300
 20
86.5700
 30
0.0000
 41
2.4000
 42
2.4000
 43
1.0000
 50
0.0000
  0
INSERT
  8
17
  2
ROUNDP
 10
73.4300
 20
86.5700
 30
0.0000
 41
2.4000
 42
2.4000
 43
1.0000
 50
0.0000
  0
INSERT
  8
17
  2
ROUNDP
 10
90.0000
 20
40.0000
 30
0.0000
 41
1.3500
 42
1.3500
 43
1.0000
 50
0.0000
  0
INSERT
  8
17
  2
ROUNDP
 10
90.0000
 20
40.0000
 30
0.0000
 41
1.3500
 42
1.3500
 43
1.0000
 50
0.0000
  0
INSERT
  8
17
  2
ROUNDP
 10
93.4300
 20
43.4300
 30
0.0000
 41
2.4000
 42
2.4000
 43
1.0000
 50
0.0000
  0
INSERT
  8
17
  2
ROUNDP
 10
93.4300
 20
43.4300
 30
0.0000
 41
2.4000
 42
2.4000
 43
1.0000
 50
0.0000
  0
INSERT
  8
17
  2
ROUNDP
 10
86.5700
 20
43.4300
 30
0.0000
 41
2.4000
 42
2.4000
 43
1.0000
 50
0.0000
  0
INSERT
  8
17
  2
ROUNDP
 10
86.5700
 20
43.4300
 30
0.0000
 41
2.4000
 42
2.4000
 43
1.0000
 50
0.0000
  0
INSERT
  8
17
  2
ROUNDP
 10
86.5700
 20
36.5700
 30
0.0000
 41
2.4000
 42
2.4000
 43
1.0000
 50
0.0000
  0
INSERT
  8
17
  2
ROUNDP
 10
86.5700
 20
36.5700
 30
0.0000
 41
2.4000
 42
2.4000
 43
1.0000
 50
0.0000
  0
INSERT
  8
17
  2
ROUNDP
 10
93.4300
 20
36.5700
 30
0.0000
 41
2.4000
 42
2.4000
 43
1.0000
 50
0.0000
  0
INSERT
  8
17
  2
ROUNDP
 10
93.4300
 20
36.5700
 30
0.0000
 41
2.4000
 42
2.4000
 43
1.0000
 50
0.0000
  0
INSERT
  8
17
  2
ROUNDP
 10
110.0000
 20
90.0000
 30
0.0000
 41
1.3500
 42
1.3500
 43
1.0000
 50
0.0000
  0
INSERT
  8
17
  2
ROUNDP
 10
110.0000
 20
90.0000
 30
0.0000
 41
1.3500
 42
1.3500
 43
1.0000
 50
0.0000
  0
INSERT
  8
17
  2
ROUNDP
 10
113.4300
 20
93.4300
 30
0.0000
 41
2.4000
 42
2.4000
 43
1.0000
 50
0.0000
  0
INSERT
  8
17
  2
ROUNDP
 10
113.4300
 20
93.4300
 30
0.0000
 41
2.4000
 42
2.4000
 43
1.0000
 50
0.0000
  0
INSERT
  8
17
  2
ROUNDP
 10
106.5700
 20
93.4300
 30
0.0000
 41
2.4000
 42
2.4000
 43
1.0000
 50
0.0000
  0
INSERT
  8
17
  2
ROUNDP
 10
106.5700
 20
93.4300
 30
0.0000
 41
2.4000
 42
2.4000
 43
1.0000
 50
0.0000
  0
INSERT
  8
17
  2
ROUNDP
 10
106.5700
 20
86.5700
 30
0.0000
 41
2.4000
 42
2.4000
 43
1.0000
 50
0.0000
  0
INSERT
  8
17
  2
ROUNDP
 10
106.5700
 20
86.5700
 30
0.0000
 41
2.4000
 42
2.4000
 43
1.0000
 50
0.0000
  0
INSERT
  8
17
  2
ROUNDP
 10
113.4300
 20
86.5700
 30
0.0000
 41
2.4000
 42
2.4000
 43
1.0000
 50
0.0000
  0
INSERT
  8
17
  2
ROUNDP
 10
113.4300
 20
86.5700
 30
0.0000
 41
2.4000
 42
2.4000
 43
1.0000
 50
0.0000
  0
INSERT
  8
17
  2
ROUNDP
 10
130.0000
 20
40.0000
 30
0.0000
 41
1.3500
 42
1.3500
 43
1.0000
 50
0.0000
  0
INSERT
  8
17
  2
ROUNDP
 10
130.0000
 20
40.0000
 30
0.0000
 41
1.3500
 42
1.3500
 43
1.0000
 50
0.0000
  0
INSERT
  8
17
  2
ROUNDP
 10
133.4300
 20
43.4300
 30
0.0000
 41
2.4000
 42
2.4000
 43
1.0000
 50
0.0000
  0
INSERT
  8
17
  2
ROUNDP
 10
133.4300
 20
43.4300
 30
0.0000
 41
2.4000
 42
2.4000
 43
1.0000
 50
0.0000
  0
INSERT
  8
17
  2
ROUNDP
 10
126.5700
 20
43.4300
 30
0.0000
 41
2.4000
 42
2.4000
 43
1.0000
 50
0.0000
  0
INSERT
  8
17
  2
ROUNDP
 10
126.5700
 20
43.4300
 30
0.0000
 41
2.4000
 42
2.4000
 43
1.0000
 50
0.0000
  0
INSERT
  8
17
  2
ROUNDP
 10
126.5700
 20
36.5700
 30
0.0000
 41
2.4000
 42
2.4000
 43
1.0000
 50
0.0000
  0
INSERT
  8
17
  2
ROUNDP
 10
126.5700
 20
36.5700
 30
0.0000
 41
2.4000
 42
2.4000
 43
1.0000
 50
0.0000
  0
INSERT
  8
17
  2
ROUNDP
 10
133.4300
 20
36.5700
 30
0.0000
 41
2.4000
 42
2.4000
 43
1.0000
 50
0.0000
  0
INSERT
  8
17
  2
ROUNDP
 10
133.4300
 20
36.5700
 30
0.0000
 41
2.4000
 42
2.4000
 43
1.0000
 50
0.0000
  0
INSERT
  8
17
  2
SQUAREP
 10
320.0000
 20
120.0000
 30
0.0000
 41
1.6500
 42
1.6500
 43
1.0000
 50
0.0000
  0
INSERT
  8
17
  2
SQUAREP
 10
320.0000
 20
120.0000
 30
0.0000
 41
1.6500
 42
1.6500
 43
1.0000
 50
0.0000
  0
INSERT
  8
17
  2
OCTAGONP
 10
322.5400
 20
120.0000
 30
0.0000
 41
1.6500
 42
1.6500
 43
1.0000
 50
0.0000
  0
INSERT
  8
17
  2
OCTAGONP
 10
322.5400
 20
120.0000
 30
0.0000
 41
1.6500
 42
1.6500
 43
1.0000
 50
0.0000
  0
INSERT
  8
17
  2
OCTAGONP
 10
325.0800
 20
120.0000
 30
0.0000
 41
1.6500
 42
1.6500
 43
1.0000
 50
0.0000
  0
INSERT
  8
17
  2
OCTAGONP
 10
325.0800
 20
120.0000
 30
0.0000
 41
1.6500
 42
1.6500
 43
1.0000
 50
0.0000
  0
INSERT
  8
17
  2
OCTAGONP
 10
327.6200
 20
120.0000
 30
0.0000
 41
1.6500
 42
1.6500
 43
1.0000
 50
0.0000
  0
INSERT
  8
17
  2
OCTAGONP
 10
327.6200
 20
120.0000
 30
0.0000
 41
1.6500
 42
1.6500
 43
1.0000
 50
0.0000
  0
INSERT
  8
17
  2
OCTAGONP
 10
330.1600
 20
120.0000
 30
0.0000
 41
1.6500
 42
1.6500
 43
1.0000
 50
0.0000
  0
INSERT
  8
17
  2
OCTAGONP
 10
330.1600
 20
120.0000
 30
0.0000
 41
1.6500
 42
1.6500
 43
1.0000
 50
0.0000
  0
INSERT
  8
17
  2
OCTAGONP
 10
332.7000
 20
120.0000
 30
0.0000
 41
1.6500
 42
1.6500
 43
1.0000
 50
0.0000
  0
INSERT
  8
17
  2
OCTAGONP
 10
332.7000
 20
120.0000
 30
0.0000
 41
1.6500
 42
1.6500
 43
1.0000
 50
0.0000
  0
INSERT
  8
17
  2
OCTAGONP
 10
335.2400
 20
120.0000
 30
0.0000
 41
1.6500
 42
1.6500
 43
1.0000
 50
0.0000
  0
INSERT
  8
17
  2
OCTAGONP
 10
335.2400
 20
120.0000
 30
0.0000
 41
1.6500
 42
1.6500
 43
1.0000
 50
0.0000
  0
INSERT
  8
17
  2
OCTAGONP
 10
337.7800
 20
120.0000
 30
0.0000
 41
1.6500
 42
1.6500
 43
1.0000
 50
0.0000
  0
INSERT
  8
17
  2
OCTAGONP
 10
337.7800
 20
120.0000
 30
0.0000
 41
1.6500
 42
1.6500
 43
1.0000
 50
0.0000
  0
INSERT
  8
17
  2
OCTAGONP
 10
320.0000
 20
125.0800
 30
0.0000
 41
1.6500
 42
1.6500
 43
1.0000
 50
0.0000
  0
INSERT
  8
17
  2
OCTAGONP
 10
320.0000
 20
125.0800
 30
0.0000
 41
1.6500
 42
1.6500
 43
1.0000
 50
0.0000
  0
INSERT
  8
17
  2
OCTAGONP
 10
322.5400
 20
125.0800
 30
0.0000
 41
1.6500
 42
1.6500
 43
1.0000
 50
0.0000
  0
INSERT
  8
17
  2
OCTAGONP
 10
322.5400
 20
125.0800
 30
0.0000
 41
1.6500
 42
1.6500
 43
1.0000
 50
0.0000
  0
INSERT
  8
17
  2
OCTAGONP
 10
325.0800
 20
125.0800
 30
0.0000
 41
1.6500
 42
1.6500
 43
1.0000
 50
0.0000
  0
INSERT
  8
17
  2
OCTAGONP
 10
325.0800
 20
125.0800
 30
0.0000
 41
1.6500
 42
1.6500
 43
1.0000
 50
0.0000
  0
INSERT
  8
17
  2
OCTAGONP
 10
327.6200
 20
125.0800
 30
0.0000
 41
1.6500
 42
1.6500
 43
1.0000
 50
0.0000
  0
INSERT
  8
17
  2
OCTAGONP
 10
327.6200
 20
125.0800
 30
0.0000
 41
1.6500
 42
1.6500
 43
1.0000
 50
0.0000
  0
INSERT
  8
17
  2
OCTAGONP
 10
330.1600
 20
125.0800
 30
0.0000
 41
1.6500
 42
1.6500
 43
1.0000
 50
0.0000
  0
INSERT
  8
17
  2
OCTAGONP
 10
330.1600
 20
125.0800
 30
0.0000
 41
1.6500
 42
1.6500
 43
1.0000
 50
0.0000
  0
INSERT
  8
17
  2
OCTAGONP
 10
332.7000
 20
125.0800
 30
0.0000
 41
1.6500
 42
1.6500
 43
1.0000
 50
0.0000
  0
INSERT
  8
17
  2
OCTAGONP
 10
332.7000
 20
125.0800
 30
0.0000
 41
1.6500
 42
1.6500
 43
1.0000
 50
0.0000
  0
INSERT
  8
17
  2
OCTAGONP
 10
335.2400
 20
125.0800
 30
0.0000
 41
1.6500
 42
1.6500
 43
1.0000
 50
0.0000
  0
INSERT
  8
17
  2
OCTAGONP
 10
335.2400
 20
125.0800
 30
0.0000
 41
1.6500
 42
1.6500
 43
1.0000
 50
0.0000
  0
INSERT
  8
17
  2
OCTAGONP
 10
337.7800
 20
125.0800
 30
0.0000
 41
1.6500
 42
1.6500
 43
1.0000
 50
0.0000
  0
INSERT
  8
17
  2
OCTAGONP
 10
337.7800
 20
125.0800
 30
0.0000
 41
1.6500
 42
1.6500
 43
1.0000
 50
0.0000
  0
INSERT
  8
17
  2
ROUNDP
 10
478.7300
 20
21.2700
 30
0.0000
 41
1.2000
 42
1.2000
 43
1.0000
 50
0.0000
  0
INSERT
  8
17
  2
ROUNDP
 10
478.7300
 20
21.2700
 30
0.0000
 41
1.2000
 42
1.2000
 43
1.0000
 50
0.0000
  0
INSERT
  8
17
  2
ROUNDP
 10
478.7300
 20
18.7300
 30
0.0000
 41
1.2000
 42
1.2000
 43
1.0000
 50
0.0000
  0
INSERT
  8
17
  2
ROUNDP
 10
478.7300
 20
18.7300
 30
0.0000
 41
1.2000
 42
1.2000
 43
1.0000
 50
0.0000
  0
INSERT
  8
17
  2
ROUNDP
 10
481.2700
 20
18.7300
 30
0.0000
 41
1.2000
 42
1.2000
 43
1.0000
 50
0.0000
  0
INSERT
  8
17
  2
ROUNDP
 10
481.2700
 20
18.7300
 30
0.0000
 41
1.2000
 42
1.2000
 43
1.0000
 50
0.0000
  0
INSERT
  8
17
  2
ROUNDP
 10
481.2700
 20
21.2700
 30
0.0000
 41
1.2000
 42
1.2000
 43
1.0000
 50
0.0000
  0
INSERT
  8
17
  2
ROUNDP
 10
481.2700
 20
21.2700
 30
0.0000
 41
1.2000
 42
1.2000
 43
1.0000
 50
0.0000
  0
INSERT
  8
17
  2
ROUNDP
 10
480.0000
 20
20.0000
 30
0.0000
 41
1.2000
 42
1.2000
 43
1.0000
 50
0.0000
  0
INSERT
  8
17
  2
ROUNDP
 10
480.0000
 20
20.0000
 30
0.0000
 41
1.2000
 42
1.2000
 43
1.0000
 50
0.0000
  0
INSERT
  8
17
  2
ROUNDP
 10
400.0000
 20
20.0000
 30
0.0000
 41
2.3622
 42
2.3622
 43
1.0000
 50
0.0000
  0
INSERT
  8
17
  2
ROUNDP
 10
400.0000
 20
20.0000
 30
0.0000
 41
2.3622
 42
2.3622
 43
1.0000
 50
0.0000
  0
INSERT
  8
17
  2
ROUNDP
 10
397.4600
 20
22.5400
 30
0.0000
 41
2.5527
 42
2.5527
 43
1.0000
 50
0.0000
  0
INSERT
  8
17
  2
ROUNDP
 10
397.4600
 20
22.5400
 30
0.0000
 41
2.5527
 42
2.5527
 43
1.0000
 50
0.0000
  0
INSERT
  8
17
  2
ROUNDP
 10
402.5400
 20
22.5400
 30
0.0000
 41
2.5527
 42
2.5527
 43
1.0000
 50
0.0000
  0
INSERT
  8
17
  2
ROUNDP
 10
402.5400
 20
22.5400
 30
0.0000
 41
2.5527
 42
2.5527
 43
1.0000
 50
0.0000
  0
INSERT
  8
17
  2
ROUNDP
 10
397.4600
 20
17.4600
 30
0.0000
 41
2.5527
 42
2.5527
 43
1.0000
 50
0.0000
  0
INSERT
  8
17
  2
ROUNDP
 10
397.4600
 20
17.4600
 30
0.0000
 41
2.5527
 42
2.5527
 43
1.0000
 50
0.0000
  0
INSERT
  8
17
  2
ROUNDP
 10
402.5400
 20
17.4600
 30
0.0000
 41
2.5527
 42
2.5527
 43
1.0000
 50
0.0000
  0
INSERT
  8
17
  2
ROUNDP
 10
402.5400
 20
17.4600
 30
0.0000
 41
2.5527
 42
2.5527
 43
1.0000
 50
0.0000
  0
INSERT
  8
17
  2
SQUAREP
 10
345.0000
 20
120.0000
 30
0.0000
 41
1.6500
 42
1.6500
 43
1.0000
 50
0.0000
  0
INSERT
  8
17
  2
SQUAREP
 10
345.0000
 20
120.0000
 30
0.0000
 41
1.6500
 42
1.6500
 43
1.0000
 50
0.0000
  0
INSERT
  8
17
  2
OCTAGONP
 10
347.5400
 20
120.0000
 30
0.0000
 41
1.6500
 42
1.6500
 43
1.0000
 50
0.0000
  0
INSERT
  8
17
  2
OCTAGONP
 10
347.5400
 20
120.0000
 30
0.0000
 41
1.6500
 42
1.6500
 43
1.0000
 50
0.0000
  0
INSERT
  8
17
  2
OCTAGONP
 10
350.0800
 20
120.0000
 30
0.0000
 41
1.6500
 42
1.6500
 43
1.0000
 50
0.0000
  0
INSERT
  8
17
  2
OCTAGONP
 10
350.0800
 20
120.0000
 30
0.0000
 41
1.6500
 42
1.6500
 43
1.0000
 50
0.0000
  0
INSERT
  8
17
  2
OCTAGONP
 10
352.6200
 20
120.0000
 30
0.0000
 41
1.6500
 42
1.6500
 43
1.0000
 50
0.0000
  0
INSERT
  8
17
  2
OCTAGONP
 10
352.6200
 20
120.0000
 30
0.0000
 41
1.6500
 42
1.6500
 43
1.0000
 50
0.0000
  0
INSERT
  8
17
  2
OCTAGONP
 10
355.1600
 20
120.0000
 30
0.0000
 41
1.6500
 42
1.6500
 43
1.0000
 50
0.0000
  0
INSERT
  8
17
  2
OCTAGONP
 10
355.1600
 20
120.0000
 30
0.0000
 41
1.6500
 42
1.6500
 43
1.0000
 50
0.0000
  0
INSERT
  8
17
  2
OCTAGONP
 10
357.7000
 20
120.0000
 30
0.0000
 41
1.6500
 42
1.6500
 43
1.0000
 50
0.0000
  0
INSERT
  8
17
  2
OCTAGONP
 10
357.7000
 20
120.0000
 30
0.0000
 41
1.6500
 42
1.6500
 43
1.0000
 50
0.0000
  0
INSERT
  8
17
  2
OCTAGONP
 10
360.2400
 20
120.0000
 30
0.0000
 41
1.6500
 42
1.6500
 43
1.0000
 50
0.0000
  0
INSERT
  8
17
  2
OCTAGONP
 10
360.2400
 20
120.0000
 30
0.0000
 41
1.6500
 42
1.6500
 43
1.0000
 50
0.0000
  0
INSERT
  8
17
  2
OCTAGONP
 10
362.7800
 20
120.0000
 30
0.0000
 41
1.6500
 42
1.6500
 43
1.0000
 50
0.0000
  0
INSERT
  8
17
  2
OCTAGONP
 10
362.7800
 20
120.0000
 30
0.0000
 41
1.6500
 42
1.6500
 43
1.0000
 50
0.0000
  0
INSERT
  8
17
  2
OCTAGONP
 10
345.0000
 20
125.0800
 30
0.0000
 41
1.6500
 42
1.6500
 43
1.0000
 50
0.0000
  0
INSERT
  8
17
  2
OCTAGONP
 10
345.0000
 20
125.0800
 30
0.0000
 41
1.6500
 42
1.6500
 43
1.0000
 50
0.0000
  0
INSERT
  8
17
  2
OCTAGONP
 10
347.5400
 20
125.0800
 30
0.0000
 41
1.6500
 42
1.6500
 43
1.0000
 50
0.0000
  0
INSERT
  8
17
  2
OCTAGONP
 10
347.5400
 20
125.0800
 30
0.0000
 41
1.6500
 42
1.6500
 43
1.0000
 50
0.0000
  0
INSERT
  8
17
  2
OCTAGONP
 10
350.0800
 20
125.0800
 30
0.0000
 41
1.6500
 42
1.6500
 43
1.0000
 50
0.0000
  0
INSERT
  8
17
  2
OCTAGONP
 10
350.0800
 20
125.0800
 30
0.0000
 41
1.6500
 42
1.6500
 43
1.0000
 50
0.0000
  0
INSERT
  8
17
  2
OCTAGONP
 10
352.6200
 20
125.0800
 30
0.0000
 41
1.6500
 42
1.6500
 43
1.0000
 50
0.0000
  0
INSERT
  8
17
  2
OCTAGONP
 10
352.6200
 20
125.0800
 30
0.0000
 41
1.6500
 42
1.6500
 43
1.0000
 50
0.0000
  0
INSERT
  8
17
  2
OCTAGONP
 10
355.1600
 20
125.0800
 30
0.0000
 41
1.6500
 42
1.6500
 43
1.0000
 50
0.0000
  0
INSERT
  8
17
  2
OCTAGONP
 10
355.1600
 20
125.0800
 30
0.0000
 41
1.6500
 42
1.6500
 43
1.0000
 50
0.0000
  0
INSERT
  8
17
  2
OCTAGONP
 10
357.7000
 20
125.0800
 30
0.0000
 41
1.6500
 42
1.6500
 43
1.0000
 50
0.0000
  0
INSERT
  8
17
  2
OCTAGONP
 10
357.7000
 20
125.0800
 30
0.0000
 41
1.6500
 42
1.6500
 43
1.0000
 50
0.0000
  0
INSERT
  8
17
  2
OCTAGONP
 10
360.2400
 20
125.0800
 30
0.0000
 41
1.6500
 42
1.6500
 43
1.0000
 50
0.0000
  0
INSERT
  8
17
  2
OCTAGONP
 10
360.2400
 20
125.0800
 30
0.0000
 41
1.6500
 42
1.6500
 43
1.0000
 50
0.0000
  0
INSERT
  8
17
  2
OCTAGONP
 10
362.7800
 20
125.0800
 30
0.0000
 41
1.6500
 42
1.6500
 43
1.0000
 50
0.0000
  0
INSERT
  8
17
  2
OCTAGONP
 10
362.7800
 20
125.0800
 30
0.0000
 41
1.6500
 42
1.6500
 43
1.0000
 50
0.0000
  0
INSERT
  8
17
  2
ROUNDP
 10
478.7300
 20
16.2700
 30
0.0000
 41
1.2000
 42
1.2000
 43
1.0000
 50
0.0000
  0
INSERT
  8
17
  2
ROUNDP
 10
478.7300
 20
16.2700
 30
0.0000
 41
1.2000
 42
1.2000
 43
1.0000
 50
0.0000
  0
INSERT
  8
17
  2
ROUNDP
 10
478.7300
 20
13.7300
 30
0.0000
 41
1.2000
 42
1.2000
 43
1.0000
 50
0.0000
  0
INSERT
  8
17
  2
ROUNDP
 10
478.7300
 20
13.7300
 30
0.0000
 41
1.2000
 42
1.2000
 43
1.0000
 50
0.0000
  0
INSERT
  8
17
  2
ROUNDP
 10
481.2700
 20
13.7300
 30
0.0000
 41
1.2000
 42
1.2000
 43
1.0000
 50
0.0000
  0
INSERT
  8
17
  2
ROUNDP
 10
481.2700
 20
13.7300
 30
0.0000
 41
1.2000
 42
1.2000
 43
1.0000
 50
0.0000
  0
INSERT
  8
17
  2
ROUNDP
 10
481.2700
 20
16.2700
 30
0.0000
 41
1.2000
 42
1.2000
 43
1.0000
 50
0.0000
  0
INSERT
  8
17
  2
ROUNDP
 10
481.2700
 20
16.2700
 30
0.0000
 41
1.2000
 42
1.2000
 43
1.0000
 50
0.0000
  0
INSERT
  8
17
  2
ROUNDP
 10
480.0000
 20
15.0000
 30
0.0000
 41
1.2000
 42
1.2000
 43
1.0000
 50
0.0000
  0
INSERT
  8
17
  2
ROUNDP
 10
480.0000
 20
15.0000
 30
0.0000
 41
1.2000
 42
1.2000
 43
1.0000
 50
0.0000
  0
INSERT
  8
17
  2
ROUNDP
 10
380.0000
 20
20.0000
 30
0.0000
 41
2.3622
 42
2.3622
 43
1.0000
 50
0.0000
  0
INSERT
  8
17
  2
ROUNDP
 10
380.0000
 20
20.0000
 30
0.0000
 41
2.3622
 42
2.3622
 43
1.0000
 50
0.0000
  0
INSERT
  8
17
  2
ROUNDP
 10
377.4600
 20
22.5400
 30
0.0000
 41
2.5527
 42
2.5527
 43
1.0000
 50
0.0000
  0
INSERT
  8
17
  2
ROUNDP
 10
377.4600
 20
22.5400
 30
0.0000
 41
2.5527
 42
2.5527
 43
1.0000
 50
0.0000
  0
INSERT
  8
17
  2
ROUNDP
 10
382.5400
 20
22.5400
 30
0.0000
 41
2.5527
 42
2.5527
 43
1.0000
 50
0.0000
  0
INSERT
  8
17
  2
ROUNDP
 10
382.5400
 20
22.5400
 30
0.0000
 41
2.5527
 42
2.5527
 43
1.0000
 50
0.0000
  0
INSERT
  8
17
  2
ROUNDP
 10
377.4600
 20
17.4600
 30
0.0000
 41
2.5527
 42
2.5527
 43
1.0000
 50
0.0000
  0
INSERT
  8
17
  2
ROUNDP
 10
377.4600
 20
17.4600
 30
0.0000
 41
2.5527
 42
2.5527
 43
1.0000
 50
0.0000
  0
INSERT
  8
17
  2
ROUNDP
 10
382.5400
 20
17.4600
 30
0.0000
 41
2.5527
 42
2.5527
 43
1.0000
 50
0.0000
  0
INSERT
  8
17
  2
ROUNDP
 10
382.5400
 20
17.4600
 30
0.0000
 41
2.5527
 42
2.5527
 43
1.0000
 50
0.0000
  0
INSERT
  8
17
  2
ROUNDP
 10
150.0000
 20
90.0000
 30
0.0000
 41
1.3500
 42
1.3500
 43
1.0000
 50
0.0000
  0
INSERT
  8
17
  2
ROUNDP
 10
150.0000
 20
90.0000
 30
0.0000
 41
1.3500
 42
1.3500
 43
1.0000
 50
0.0000
  0
INSERT
  8
17
  2
ROUNDP
 10
153.4300
 20
93.4300
 30
0.0000
 41
2.4000
 42
2.4000
 43
1.0000
 50
0.0000
  0
INSERT
  8
17
  2
ROUNDP
 10
153.4300
 20
93.4300
 30
0.0000
 41
2.4000
 42
2.4000
 43
1.0000
 50
0.0000
  0
INSERT
  8
17
  2
ROUNDP
 10
146.5700
 20
93.4300
 30
0.0000
 41
2.4000
 42
2.4000
 43
1.0000
 50
0.0000
  0
INSERT
  8
17
  2
ROUNDP
 10
146.5700
 20
93.4300
 30
0.0000
 41
2.4000
 42
2.4000
 43
1.0000
 50
0.0000
  0
INSERT
  8
17
  2
ROUNDP
 10
146.5700
 20
86.5700
 30
0.0000
 41
2.4000
 42
2.4000
 43
1.0000
 50
0.0000
  0
INSERT
  8
17
  2
ROUNDP
 10
146.5700
 20
86.5700
 30
0.0000
 41
2.4000
 42
2.4000
 43
1.0000
 50
0.0000
  0
INSERT
  8
17
  2
ROUNDP
 10
153.4300
 20
86.5700
 30
0.0000
 41
2.4000
 42
2.4000
 43
1.0000
 50
0.0000
  0
INSERT
  8
17
  2
ROUNDP
 10
153.4300
 20
86.5700
 30
0.0000
 41
2.4000
 42
2.4000
 43
1.0000
 50
0.0000
  0
INSERT
  8
17
  2
ROUNDP
 10
170.0000
 20
40.0000
 30
0.0000
 41
1.3500
 42
1.3500
 43
1.0000
 50
0.0000
  0
INSERT
  8
17
  2
ROUNDP
 10
170.0000
 20
40.0000
 30
0.0000
 41
1.3500
 42
1.3500
 43
1.0000
 50
0.0000
  0
INSERT
  8
17
  2
ROUNDP
 10
173.4300
 20
43.4300
 30
0.0000
 41
2.4000
 42
2.4000
 43
1.0000
 50
0.0000
  0
INSERT
  8
17
  2
ROUNDP
 10
173.4300
 20
43.4300
 30
0.0000
 41
2.4000
 42
2.4000
 43
1.0000
 50
0.0000
  0
INSERT
  8
17
  2
ROUNDP
 10
166.5700
 20
43.4300
 30
0.0000
 41
2.4000
 42
2.4000
 43
1.0000
 50
0.0000
  0
INSERT
  8
17
  2
ROUNDP
 10
166.5700
 20
43.4300
 30
0.0000
 41
2.4000
 42
2.4000
 43
1.0000
 50
0.0000
  0
INSERT
  8
17
  2
ROUNDP
 10
166.5700
 20
36.5700
 30
0.0000
 41
2.4000
 42
2.4000
 43
1.0000
 50
0.0000
  0
INSERT
  8
17
  2
ROUNDP
 10
166.5700
 20
36.5700
 30
0.0000
 41
2.4000
 42
2.4000
 43
1.0000
 50
0.0000
  0
INSERT
  8
17
  2
ROUNDP
 10
173.4300
 20
36.5700
 30
0.0000
 41
2.4000
 42
2.4000
 43
1.0000
 50
0.0000
  0
INSERT
  8
17
  2
ROUNDP
 10
173.4300
 20
36.5700
 30
0.0000
 41
2.4000
 42
2.4000
 43
1.0000
 50
0.0000
  0
INSERT
  8
17
  2
ROUNDP
 10
190.0000
 20
90.0000
 30
0.0000
 41
1.3500
 42
1.3500
 43
1.0000
 50
0.0000
  0
INSERT
  8
17
  2
ROUNDP
 10
190.0000
 20
90.0000
 30
0.0000
 41
1.3500
 42
1.3500
 43
1.0000
 50
0.0000
  0
INSERT
  8
17
  2
ROUNDP
 10
193.4300
 20
93.4300
 30
0.0000
 41
2.4000
 42
2.4000
 43
1.0000
 50
0.0000
  0
INSERT
  8
17
  2
ROUNDP
 10
193.4300
 20
93.4300
 30
0.0000
 41
2.4000
 42
2.4000
 43
1.0000
 50
0.0000
  0
INSERT
  8
17
  2
ROUNDP
 10
186.5700
 20
93.4300
 30
0.0000
 41
2.4000
 42
2.4000
 43
1.0000
 50
0.0000
  0
INSERT
  8
17
  2
ROUNDP
 10
186.5700
 20
93.4300
 30
0.0000
 41
2.4000
 42
2.4000
 43
1.0000
 50
0.0000
  0
INSERT
  8
17
  2
ROUNDP
 10
186.5700
 20
86.5700
 30
0.0000
 41
2.4000
 42
2.4000
 43
1.0000
 50
0.0000
  0
INSERT
  8
17
  2
ROUNDP
 10
186.5700
 20
86.5700
 30
0.0000
 41
2.4000
 42
2.4000
 43
1.0000
 50
0.0000
  0
INSERT
  8
17
  2
ROUNDP
 10
193.4300
 20
86.5700
 30
0.0000
 41
2.4000
 42
2.4000
 43
1.0000
 50
0.0000
  0
INSERT
  8
17
  2
ROUNDP
 10
193.4300
 20
86.5700
 30
0.0000
 41
2.4000
 42
2.4000
 43
1.0000
 50
0.0000
  0
INSERT
  8
17
  2
ROUNDP
 10
210.0000
 20
40.0000
 30
0.0000
 41
1.3500
 42
1.3500
 43
1.0000
 50
0.0000
  0
INSERT
  8
17
  2
ROUNDP
 10
210.0000
 20
40.0000
 30
0.0000
 41
1.3500
 42
1.3500
 43
1.0000
 50
0.0000
  0
INSERT
  8
17
  2
ROUNDP
 10
213.4300
 20
43.4300
 30
0.0000
 41
2.4000
 42
2.4000
 43
1.0000
 50
0.0000
  0
INSERT
  8
17
  2
ROUNDP
 10
213.4300
 20
43.4300
 30
0.0000
 41
2.4000
 42
2.4000
 43
1.0000
 50
0.0000
  0
INSERT
  8
17
  2
ROUNDP
 10
206.5700
 20
43.4300
 30
0.0000
 41
2.4000
 42
2.4000
 43
1.0000
 50
0.0000
  0
INSERT
  8
17
  2
ROUNDP
 10
206.5700
 20
43.4300
 30
0.0000
 41
2.4000
 42
2.4000
 43
1.0000
 50
0.0000
  0
INSERT
  8
17
  2
ROUNDP
 10
206.5700
 20
36.5700
 30
0.0000
 41
2.4000
 42
2.4000
 43
1.0000
 50
0.0000
  0
INSERT
  8
17
  2
ROUNDP
 10
206.5700
 20
36.5700
 30
0.0000
 41
2.4000
 42
2.4000
 43
1.0000
 50
0.0000
  0
INSERT
  8
17
  2
ROUNDP
 10
213.4300
 20
36.5700
 30
0.0000
 41
2.4000
 42
2.4000
 43
1.0000
 50
0.0000
  0
INSERT
  8
17
  2
ROUNDP
 10
213.4300
 20
36.5700
 30
0.0000
 41
2.4000
 42
2.4000
 43
1.0000
 50
0.0000
  0
INSERT
  8
17
  2
ROUNDP
 10
230.0000
 20
90.0000
 30
0.0000
 41
1.3500
 42
1.3500
 43
1.0000
 50
0.0000
  0
INSERT
  8
17
  2
ROUNDP
 10
230.0000
 20
90.0000
 30
0.0000
 41
1.3500
 42
1.3500
 43
1.0000
 50
0.0000
  0
INSERT
  8
17
  2
ROUNDP
 10
233.4300
 20
93.4300
 30
0.0000
 41
2.4000
 42
2.4000
 43
1.0000
 50
0.0000
  0
INSERT
  8
17
  2
ROUNDP
 10
233.4300
 20
93.4300
 30
0.0000
 41
2.4000
 42
2.4000
 43
1.0000
 50
0.0000
  0
INSERT
  8
17
  2
ROUNDP
 10
226.5700
 20
93.4300
 30
0.0000
 41
2.4000
 42
2.4000
 43
1.0000
 50
0.0000
  0
INSERT
  8
17
  2
ROUNDP
 10
226.5700
 20
93.4300
 30
0.0000
 41
2.4000
 42
2.4000
 43
1.0000
 50
0.0000
  0
INSERT
  8
17
  2
ROUNDP
 10
226.5700
 20
86.5700
 30
0.0000
 41
2.4000
 42
2.4000
 43
1.0000
 50
0.0000
  0
INSERT
  8
17
  2
ROUNDP
 10
226.5700
 20
86.5700
 30
0.0000
 41
2.4000
 42
2.4000
 43
1.0000
 50
0.0000
  0
INSERT
  8
17
  2
ROUNDP
 10
233.4300
 20
86.5700
 30
0.0000
 41
2.4000
 42
2.4000
 43
1.0000
 50
0.0000
  0
INSERT
  8
17
  2
ROUNDP
 10
233.4300
 20
86.5700
 30
0.0000
 41
2.4000
 42
2.4000
 43
1.0000
 50
0.0000
  0
INSERT
  8
17
  2
ROUNDP
 10
250.0000
 20
40.0000
 30
0.0000
 41
1.3500
 42
1.3500
 43
1.0000
 50
0.0000
  0
INSERT
  8
17
  2
ROUNDP
 10
250.0000
 20
40.0000
 30
0.0000
 41
1.3500
 42
1.3500
 43
1.0000
 50
0.0000
  0
INSERT
  8
17
  2
ROUNDP
 10
253.4300
 20
43.4300
 30
0.0000
 41
2.4000
 42
2.4000
 43
1.0000
 50
0.0000
  0
INSERT
  8
17
  2
ROUNDP
 10
253.4300
 20
43.4300
 30
0.0000
 41
2.4000
 42
2.4000
 43
1.0000
 50
0.0000
  0
INSERT
  8
17
  2
ROUNDP
 10
246.5700
 20
43.4300
 30
0.0000
 41
2.4000
 42
2.4000
 43
1.0000
 50
0.0000
  0
INSERT
  8
17
  2
ROUNDP
 10
246.5700
 20
43.4300
 30
0.0000
 41
2.4000
 42
2.4000
 43
1.0000
 50
0.0000
  0
INSERT
  8
17
  2
ROUNDP
 10
246.5700
 20
36.5700
 30
0.0000
 41
2.4000
 42
2.4000
 43
1.0000
 50
0.0000
  0
INSERT
  8
17
  2
ROUNDP
 10
246.5700
 20
36.5700
 30
0.0000
 41
2.4000
 42
2.4000
 43
1.0000
 50
0.0000
  0
INSERT
  8
17
  2
ROUNDP
 10
253.4300
 20
36.5700
 30
0.0000
 41
2.4000
 42
2.4000
 43
1.0000
 50
0.0000
  0
INSERT
  8
17
  2
ROUNDP
 10
253.4300
 20
36.5700
 30
0.0000
 41
2.4000
 42
2.4000
 43
1.0000
 50
0.0000
  0
INSERT
  8
17
  2
ROUNDP
 10
478.7300
 20
11.2700
 30
0.0000
 41
1.2000
 42
1.2000
 43
1.0000
 50
0.0000
  0
INSERT
  8
17
  2
ROUNDP
 10
478.7300
 20
11.2700
 30
0.0000
 41
1.2000
 42
1.2000
 43
1.0000
 50
0.0000
  0
INSERT
  8
17
  2
ROUNDP
 10
478.7300
 20
8.7300
 30
0.0000
 41
1.2000
 42
1.2000
 43
1.0000
 50
0.0000
  0
INSERT
  8
17
  2
ROUNDP
 10
478.7300
 20
8.7300
 30
0.0000
 41
1.2000
 42
1.2000
 43
1.0000
 50
0.0000
  0
INSERT
  8
17
  2
ROUNDP
 10
481.2700
 20
8.7300
 30
0.0000
 41
1.2000
 42
1.2000
 43
1.0000
 50
0.0000
  0
INSERT
  8
17
  2
ROUNDP
 10
481.2700
 20
8.7300
 30
0.0000
 41
1.2000
 42
1.2000
 43
1.0000
 50
0.0000
  0
INSERT
  8
17
  2
ROUNDP
 10
481.2700
 20
11.2700
 30
0.0000
 41
1.2000
 42
1.2000
 43
1.0000
 50
0.0000
  0
INSERT
  8
17
  2
ROUNDP
 10
481.2700
 20
11.2700
 30
0.0000
 41
1.2000
 42
1.2000
 43
1.0000
 50
0.0000
  0
INSERT
  8
17
  2
ROUNDP
 10
480.0000
 20
10.0000
 30
0.0000
 41
1.2000
 42
1.2000
 43
1.0000
 50
0.0000
  0
INSERT
  8
17
  2
ROUNDP
 10
480.0000
 20
10.0000
 30
0.0000
 41
1.2000
 42
1.2000
 43
1.0000
 50
0.0000
  0
INSERT
  8
17
  2
ROUNDP
 10
360.0000
 20
20.0000
 30
0.0000
 41
2.3622
 42
2.3622
 43
1.0000
 50
0.0000
  0
INSERT
  8
17
  2
ROUNDP
 10
360.0000
 20
20.0000
 30
0.0000
 41
2.3622
 42
2.3622
 43
1.0000
 50
0.0000
  0
INSERT
  8
17
  2
ROUNDP
 10
357.4600
 20
22.5400
 30
0.0000
 41
2.5527
 42
2.5527
 43
1.0000
 50
0.0000
  0
INSERT
  8
17
  2
ROUNDP
 10
357.4600
 20
22.5400
 30
0.0000
 41
2.5527
 42
2.5527
 43
1.0000
 50
0.0000
  0
INSERT
  8
17
  2
ROUNDP
 10
362.5400
 20
22.5400
 30
0.0000
 41
2.5527
 42
2.5527
 43
1.0000
 50
0.0000
  0
INSERT
  8
17
  2
ROUNDP
 10
362.5400
 20
22.5400
 30
0.0000
 41
2.5527
 42
2.5527
 43
1.0000
 50
0.0000
  0
INSERT
  8
17
  2
ROUNDP
 10
357.4600
 20
17.4600
 30
0.0000
 41
2.5527
 42
2.5527
 43
1.0000
 50
0.0000
  0
INSERT
  8
17
  2
ROUNDP
 10
357.4600
 20
17.4600
 30
0.0000
 41
2.5527
 42
2.5527
 43
1.0000
 50
0.0000
  0
INSERT
  8
17
  2
ROUNDP
 10
362.5400
 20
17.4600
 30
0.0000
 41
2.5527
 42
2.5527
 43
1.0000
 50
0.0000
  0
INSERT
  8
17
  2
ROUNDP
 10
362.5400
 20
17.4600
 30
0.0000
 41
2.5527
 42
2.5527
 43
1.0000
 50
0.0000
  0
INSERT
  8
17
  2
OCTAGONP
 10
285.0300
 20
118.8300
 30
0.0000
 41
1.6764
 42
1.6764
 43
1.0000
 50
0.0000
  0
INSERT
  8
17
  2
OCTAGONP
 10
285.0300
 20
118.8300
 30
0.0000
 41
1.6764
 42
1.6764
 43
1.0000
 50
0.0000
  0
INSERT
  8
17
  2
OCTAGONP
 10
285.0300
 20
121.3700
 30
0.0000
 41
1.6764
 42
1.6764
 43
1.0000
 50
0.0000
  0
INSERT
  8
17
  2
OCTAGONP
 10
285.0300
 20
121.3700
 30
0.0000
 41
1.6764
 42
1.6764
 43
1.0000
 50
0.0000
  0
INSERT
  8
17
  2
OCTAGONP
 10
287.5700
 20
118.8300
 30
0.0000
 41
1.6764
 42
1.6764
 43
1.0000
 50
0.0000
  0
INSERT
  8
17
  2
OCTAGONP
 10
287.5700
 20
118.8300
 30
0.0000
 41
1.6764
 42
1.6764
 43
1.0000
 50
0.0000
  0
INSERT
  8
17
  2
OCTAGONP
 10
287.5700
 20
121.3700
 30
0.0000
 41
1.6764
 42
1.6764
 43
1.0000
 50
0.0000
  0
INSERT
  8
17
  2
OCTAGONP
 10
287.5700
 20
121.3700
 30
0.0000
 41
1.6764
 42
1.6764
 43
1.0000
 50
0.0000
  0
INSERT
  8
17
  2
OCTAGONP
 10
290.1100
 20
118.8300
 30
0.0000
 41
1.6764
 42
1.6764
 43
1.0000
 50
0.0000
  0
INSERT
  8
17
  2
OCTAGONP
 10
290.1100
 20
118.8300
 30
0.0000
 41
1.6764
 42
1.6764
 43
1.0000
 50
0.0000
  0
INSERT
  8
17
  2
OCTAGONP
 10
290.1100
 20
121.3700
 30
0.0000
 41
1.6764
 42
1.6764
 43
1.0000
 50
0.0000
  0
INSERT
  8
17
  2
OCTAGONP
 10
290.1100
 20
121.3700
 30
0.0000
 41
1.6764
 42
1.6764
 43
1.0000
 50
0.0000
  0
INSERT
  8
17
  2
OCTAGONP
 10
292.6500
 20
118.8300
 30
0.0000
 41
1.6764
 42
1.6764
 43
1.0000
 50
0.0000
  0
INSERT
  8
17
  2
OCTAGONP
 10
292.6500
 20
118.8300
 30
0.0000
 41
1.6764
 42
1.6764
 43
1.0000
 50
0.0000
  0
INSERT
  8
17
  2
OCTAGONP
 10
292.6500
 20
121.3700
 30
0.0000
 41
1.6764
 42
1.6764
 43
1.0000
 50
0.0000
  0
INSERT
  8
17
  2
OCTAGONP
 10
292.6500
 20
121.3700
 30
0.0000
 41
1.6764
 42
1.6764
 43
1.0000
 50
0.0000
  0
INSERT
  8
17
  2
OCTAGONP
 10
295.1900
 20
118.8300
 30
0.0000
 41
1.6764
 42
1.6764
 43
1.0000
 50
0.0000
  0
INSERT
  8
17
  2
OCTAGONP
 10
295.1900
 20
118.8300
 30
0.0000
 41
1.6764
 42
1.6764
 43
1.0000
 50
0.0000
  0
INSERT
  8
17
  2
OCTAGONP
 10
295.1900
 20
121.3700
 30
0.0000
 41
1.6764
 42
1.6764
 43
1.0000
 50
0.0000
  0
INSERT
  8
17
  2
OCTAGONP
 10
295.1900
 20
121.3700
 30
0.0000
 41
1.6764
 42
1.6764
 43
1.0000
 50
0.0000
  0
INSERT
  8
17
  2
OCTAGONP
 10
297.7300
 20
118.8300
 30
0.0000
 41
1.6764
 42
1.6764
 43
1.0000
 50
0.0000
  0
INSERT
  8
17
  2
OCTAGONP
 10
297.7300
 20
118.8300
 30
0.0000
 41
1.6764
 42
1.6764
 43
1.0000
 50
0.0000
  0
INSERT
  8
17
  2
OCTAGONP
 10
297.7300
 20
121.3700
 30
0.0000
 41
1.6764
 42
1.6764
 43
1.0000
 50
0.0000
  0
INSERT
  8
17
  2
OCTAGONP
 10
297.7300
 20
121.3700
 30
0.0000
 41
1.6764
 42
1.6764
 43
1.0000
 50
0.0000
  0
INSERT
  8
17
  2
OCTAGONP
 10
300.2700
 20
118.8300
 30
0.0000
 41
1.6764
 42
1.6764
 43
1.0000
 50
0.0000
  0
INSERT
  8
17
  2
OCTAGONP
 10
300.2700
 20
118.8300
 30
0.0000
 41
1.6764
 42
1.6764
 43
1.0000
 50
0.0000
  0
INSERT
  8
17
  2
OCTAGONP
 10
300.2700
 20
121.3700
 30
0.0000
 41
1.6764
 42
1.6764
 43
1.0000
 50
0.0000
  0
INSERT
  8
17
  2
OCTAGONP
 10
300.2700
 20
121.3700
 30
0.0000
 41
1.6764
 42
1.6764
 43
1.0000
 50
0.0000
  0
INSERT
  8
17
  2
OCTAGONP
 10
302.8100
 20
118.8300
 30
0.0000
 41
1.6764
 42
1.6764
 43
1.0000
 50
0.0000
  0
INSERT
  8
17
  2
OCTAGONP
 10
302.8100
 20
118.8300
 30
0.0000
 41
1.6764
 42
1.6764
 43
1.0000
 50
0.0000
  0
INSERT
  8
17
  2
OCTAGONP
 10
302.8100
 20
121.3700
 30
0.0000
 41
1.6764
 42
1.6764
 43
1.0000
 50
0.0000
  0
INSERT
  8
17
  2
OCTAGONP
 10
302.8100
 20
121.3700
 30
0.0000
 41
1.6764
 42
1.6764
 43
1.0000
 50
0.0000
  0
INSERT
  8
17
  2
OCTAGONP
 10
305.3500
 20
118.8300
 30
0.0000
 41
1.6764
 42
1.6764
 43
1.0000
 50
0.0000
  0
INSERT
  8
17
  2
OCTAGONP
 10
305.3500
 20
118.8300
 30
0.0000
 41
1.6764
 42
1.6764
 43
1.0000
 50
0.0000
  0
INSERT
  8
17
  2
OCTAGONP
 10
305.3500
 20
121.3700
 30
0.0000
 41
1.6764
 42
1.6764
 43
1.0000
 50
0.0000
  0
INSERT
  8
17
  2
OCTAGONP
 10
305.3500
 20
121.3700
 30
0.0000
 41
1.6764
 42
1.6764
 43
1.0000
 50
0.0000
  0
INSERT
  8
17
  2
OCTAGONP
 10
307.8900
 20
118.8300
 30
0.0000
 41
1.6764
 42
1.6764
 43
1.0000
 50
0.0000
  0
INSERT
  8
17
  2
OCTAGONP
 10
307.8900
 20
118.8300
 30
0.0000
 41
1.6764
 42
1.6764
 43
1.0000
 50
0.0000
  0
INSERT
  8
17
  2
OCTAGONP
 10
307.8900
 20
121.3700
 30
0.0000
 41
1.6764
 42
1.6764
 43
1.0000
 50
0.0000
  0
INSERT
  8
17
  2
OCTAGONP
 10
307.8900
 20
121.3700
 30
0.0000
 41
1.6764
 42
1.6764
 43
1.0000
 50
0.0000
  0
INSERT
  8
17
  2
OCTAGONP
 10
310.4300
 20
118.8300
 30
0.0000
 41
1.6764
 42
1.6764
 43
1.0000
 50
0.0000
  0
INSERT
  8
17
  2
OCTAGONP
 10
310.4300
 20
118.8300
 30
0.0000
 41
1.6764
 42
1.6764
 43
1.0000
 50
0.0000
  0
INSERT
  8
17
  2
OCTAGONP
 10
310.4300
 20
121.3700
 30
0.0000
 41
1.6764
 42
1.6764
 43
1.0000
 50
0.0000
  0
INSERT
  8
17
  2
OCTAGONP
 10
310.4300
 20
121.3700
 30
0.0000
 41
1.6764
 42
1.6764
 43
1.0000
 50
0.0000
  0
INSERT
  8
17
  2
OCTAGONP
 10
312.9700
 20
118.8300
 30
0.0000
 41
1.6764
 42
1.6764
 43
1.0000
 50
0.0000
  0
INSERT
  8
17
  2
OCTAGONP
 10
312.9700
 20
118.8300
 30
0.0000
 41
1.6764
 42
1.6764
 43
1.0000
 50
0.0000
  0
INSERT
  8
17
  2
OCTAGONP
 10
312.9700
 20
121.3700
 30
0.0000
 41
1.6764
 42
1.6764
 43
1.0000
 50
0.0000
  0
INSERT
  8
17
  2
OCTAGONP
 10
312.9700
 20
121.3700
 30
0.0000
 41
1.6764
 42
1.6764
 43
1.0000
 50
0.0000
  0
CIRCLE
  8
20
 10
479.9000
 20
91.0000
 30
0.0000
 40
0.8000
  0
CIRCLE
  8
20
 10
472.9000
 20
91.0000
 30
0.0000
 40
0.8000
  0
CIRCLE
  8
20
 10
480.0000
 20
72.0000
 30
0.0000
 40
0.9000
  0
CIRCLE
  8
20
 10
480.0000
 20
58.0000
 30
0.0000
 40
0.9000
  0
CIRCLE
  8
20
 10
477.5000
 20
74.6000
 30
0.0000
 40
1.1500
  0
CIRCLE
  8
20
 10
477.5000
 20
55.4000
 30
0.0000
 40
1.1500
  0
INSERT
  8
17
  2
SQUAREP
 10
424.0000
 20
121.0000
 30
0.0000
 41
1.6500
 42
1.6500
 43
1.0000
 50
0.0000
  0
INSERT
  8
17
  2
SQUAREP
 10
424.0000
 20
121.0000
 30
0.0000
 41
1.6500
 42
1.6500
 43
1.0000
 50
0.0000
  0
INSERT
  8
17
  2
OCTAGONP
 10
426.5400
 20
121.0000
 30
0.0000
 41
1.6500
 42
1.6500
 43
1.0000
 50
0.0000
  0
INSERT
  8
17
  2
OCTAGONP
 10
426.5400
 20
121.0000
 30
0.0000
 41
1.6500
 42
1.6500
 43
1.0000
 50
0.0000
  0
INSERT
  8
17
  2
OCTAGONP
 10
429.0800
 20
121.0000
 30
0.0000
 41
1.6500
 42
1.6500
 43
1.0000
 50
0.0000
  0
INSERT
  8
17
  2
OCTAGONP
 10
429.0800
 20
121.0000
 30
0.0000
 41
1.6500
 42
1.6500
 43
1.0000
 50
0.0000
  0
INSERT
  8
17
  2
OCTAGONP
 10
431.6200
 20
121.0000
 30
0.0000
 41
1.6500
 42
1.6500
 43
1.0000
 50
0.0000
  0
INSERT
  8
17
  2
OCTAGONP
 10
431.6200
 20
121.0000
 30
0.0000
 41
1.6500
 42
1.6500
 43
1.0000
 50
0.0000
  0
INSERT
  8
17
  2
OCTAGONP
 10
434.1600
 20
121.0000
 30
0.0000
 41
1.6500
 42
1.6500
 43
1.0000
 50
0.0000
  0
INSERT
  8
17
  2
OCTAGONP
 10
434.1600
 20
121.0000
 30
0.0000
 41
1.6500
 42
1.6500
 43
1.0000
 50
0.0000
  0
INSERT
  8
17
  2
OCTAGONP
 10
436.7000
 20
121.0000
 30
0.0000
 41
1.6500
 42
1.6500
 43
1.0000
 50
0.0000
  0
INSERT
  8
17
  2
OCTAGONP
 10
436.7000
 20
121.0000
 30
0.0000
 41
1.6500
 42
1.6500
 43
1.0000
 50
0.0000
  0
INSERT
  8
17
  2
OCTAGONP
 10
439.2400
 20
121.0000
 30
0.0000
 41
1.6500
 42
1.6500
 43
1.0000
 50
0.0000
  0
INSERT
  8
17
  2
OCTAGONP
 10
439.2400
 20
121.0000
 30
0.0000
 41
1.6500
 42
1.6500
 43
1.0000
 50
0.0000
  0
INSERT
  8
17
  2
OCTAGONP
 10
441.7800
 20
121.0000
 30
0.0000
 41
1.6500
 42
1.6500
 43
1.0000
 50
0.0000
  0
INSERT
  8
17
  2
OCTAGONP
 10
441.7800
 20
121.0000
 30
0.0000
 41
1.6500
 42
1.6500
 43
1.0000
 50
0.0000
  0
INSERT
  8
17
  2
OCTAGONP
 10
444.3200
 20
121.0000
 30
0.0000
 41
1.6500
 42
1.6500
 43
1.0000
 50
0.0000
  0
INSERT
  8
17
  2
OCTAGONP
 10
444.3200
 20
121.0000
 30
0.0000
 41
1.6500
 42
1.6500
 43
1.0000
 50
0.0000
  0
INSERT
  8
17
  2
OCTAGONP
 10
424.0000
 20
126.0800
 30
0.0000
 41
1.6500
 42
1.6500
 43
1.0000
 50
0.0000
  0
INSERT
  8
17
  2
OCTAGONP
 10
424.0000
 20
126.0800
 30
0.0000
 41
1.6500
 42
1.6500
 43
1.0000
 50
0.0000
  0
INSERT
  8
17
  2
OCTAGONP
 10
426.5400
 20
126.0800
 30
0.0000
 41
1.6500
 42
1.6500
 43
1.0000
 50
0.0000
  0
INSERT
  8
17
  2
OCTAGONP
 10
426.5400
 20
126.0800
 30
0.0000
 41
1.6500
 42
1.6500
 43
1.0000
 50
0.0000
  0
INSERT
  8
17
  2
OCTAGONP
 10
429.0800
 20
126.0800
 30
0.0000
 41
1.6500
 42
1.6500
 43
1.0000
 50
0.0000
  0
INSERT
  8
17
  2
OCTAGONP
 10
429.0800
 20
126.0800
 30
0.0000
 41
1.6500
 42
1.6500
 43
1.0000
 50
0.0000
  0
INSERT
  8
17
  2
OCTAGONP
 10
431.6200
 20
126.0800
 30
0.0000
 41
1.6500
 42
1.6500
 43
1.0000
 50
0.0000
  0
INSERT
  8
17
  2
OCTAGONP
 10
431.6200
 20
126.0800
 30
0.0000
 41
1.6500
 42
1.6500
 43
1.0000
 50
0.0000
  0
INSERT
  8
17
  2
OCTAGONP
 10
434.1600
 20
126.0800
 30
0.0000
 41
1.6500
 42
1.6500
 43
1.0000
 50
0.0000
  0
INSERT
  8
17
  2
OCTAGONP
 10
434.1600
 20
126.0800
 30
0.0000
 41
1.6500
 42
1.6500
 43
1.0000
 50
0.0000
  0
INSERT
  8
17
  2
OCTAGONP
 10
436.7000
 20
126.0800
 30
0.0000
 41
1.6500
 42
1.6500
 43
1.0000
 50
0.0000
  0
INSERT
  8
17
  2
OCTAGONP
 10
436.7000
 20
126.0800
 30
0.0000
 41
1.6500
 42
1.6500
 43
1.0000
 50
0.0000
  0
INSERT
  8
17
  2
OCTAGONP
 10
439.2400
 20
126.0800
 30
0.0000
 41
1.6500
 42
1.6500
 43
1.0000
 50
0.0000
  0
INSERT
  8
17
  2
OCTAGONP
 10
439.2400
 20
126.0800
 30
0.0000
 41
1.6500
 42
1.6500
 43
1.0000
 50
0.0000
  0
INSERT
  8
17
  2
OCTAGONP
 10
441.7800
 20
126.0800
 30
0.0000
 41
1.6500
 42
1.6500
 43
1.0000
 50
0.0000
  0
INSERT
  8
17
  2
OCTAGONP
 10
441.7800
 20
126.0800
 30
0.0000
 41
1.6500
 42
1.6500
 43
1.0000
 50
0.0000
  0
INSERT
  8
17
  2
OCTAGONP
 10
444.3200
 20
126.0800
 30
0.0000
 41
1.6500
 42
1.6500
 43
1.0000
 50
0.0000
  0
INSERT
  8
17
  2
OCTAGONP
 10
444.3200
 20
126.0800
 30
0.0000
 41
1.6500
 42
1.6500
 43
1.0000
 50
0.0000
  0
INSERT
  8
17
  2
OCTAGONP
 10
451.1100
 20
118.8300
 30
0.0000
 41
1.6764
 42
1.6764
 43
1.0000
 50
0.0000
  0
INSERT
  8
17
  2
OCTAGONP
 10
451.1100
 20
118.8300
 30
0.0000
 41
1.6764
 42
1.6764
 43
1.0000
 50
0.0000
  0
INSERT
  8
17
  2
OCTAGONP
 10
451.1100
 20
121.3700
 30
0.0000
 41
1.6764
 42
1.6764
 43
1.0000
 50
0.0000
  0
INSERT
  8
17
  2
OCTAGONP
 10
451.1100
 20
121.3700
 30
0.0000
 41
1.6764
 42
1.6764
 43
1.0000
 50
0.0000
  0
INSERT
  8
17
  2
OCTAGONP
 10
453.6500
 20
118.8300
 30
0.0000
 41
1.6764
 42
1.6764
 43
1.0000
 50
0.0000
  0
INSERT
  8
17
  2
OCTAGONP
 10
453.6500
 20
118.8300
 30
0.0000
 41
1.6764
 42
1.6764
 43
1.0000
 50
0.0000
  0
INSERT
  8
17
  2
OCTAGONP
 10
453.6500
 20
121.3700
 30
0.0000
 41
1.6764
 42
1.6764
 43
1.0000
 50
0.0000
  0
INSERT
  8
17
  2
OCTAGONP
 10
453.6500
 20
121.3700
 30
0.0000
 41
1.6764
 42
1.6764
 43
1.0000
 50
0.0000
  0
INSERT
  8
17
  2
OCTAGONP
 10
456.1900
 20
118.8300
 30
0.0000
 41
1.6764
 42
1.6764
 43
1.0000
 50
0.0000
  0
INSERT
  8
17
  2
OCTAGONP
 10
456.1900
 20
118.8300
 30
0.0000
 41
1.6764
 42
1.6764
 43
1.0000
 50
0.0000
  0
INSERT
  8
17
  2
OCTAGONP
 10
456.1900
 20
121.3700
 30
0.0000
 41
1.6764
 42
1.6764
 43
1.0000
 50
0.0000
  0
INSERT
  8
17
  2
OCTAGONP
 10
456.1900
 20
121.3700
 30
0.0000
 41
1.6764
 42
1.6764
 43
1.0000
 50
0.0000
  0
INSERT
  8
17
  2
OCTAGONP
 10
458.7300
 20
118.8300
 30
0.0000
 41
1.6764
 42
1.6764
 43
1.0000
 50
0.0000
  0
INSERT
  8
17
  2
OCTAGONP
 10
458.7300
 20
118.8300
 30
0.0000
 41
1.6764
 42
1.6764
 43
1.0000
 50
0.0000
  0
INSERT
  8
17
  2
OCTAGONP
 10
458.7300
 20
121.3700
 30
0.0000
 41
1.6764
 42
1.6764
 43
1.0000
 50
0.0000
  0
INSERT
  8
17
  2
OCTAGONP
 10
458.7300
 20
121.3700
 30
0.0000
 41
1.6764
 42
1.6764
 43
1.0000
 50
0.0000
  0
INSERT
  8
17
  2
OCTAGONP
 10
461.2700
 20
118.8300
 30
0.0000
 41
1.6764
 42
1.6764
 43
1.0000
 50
0.0000
  0
INSERT
  8
17
  2
OCTAGONP
 10
461.2700
 20
118.8300
 30
0.0000
 41
1.6764
 42
1.6764
 43
1.0000
 50
0.0000
  0
INSERT
  8
17
  2
OCTAGONP
 10
461.2700
 20
121.3700
 30
0.0000
 41
1.6764
 42
1.6764
 43
1.0000
 50
0.0000
  0
INSERT
  8
17
  2
OCTAGONP
 10
461.2700
 20
121.3700
 30
0.0000
 41
1.6764
 42
1.6764
 43
1.0000
 50
0.0000
  0
INSERT
  8
17
  2
OCTAGONP
 10
463.8100
 20
118.8300
 30
0.0000
 41
1.6764
 42
1.6764
 43
1.0000
 50
0.0000
  0
INSERT
  8
17
  2
OCTAGONP
 10
463.8100
 20
118.8300
 30
0.0000
 41
1.6764
 42
1.6764
 43
1.0000
 50
0.0000
  0
INSERT
  8
17
  2
OCTAGONP
 10
463.8100
 20
121.3700
 30
0.0000
 41
1.6764
 42
1.6764
 43
1.0000
 50
0.0000
  0
INSERT
  8
17
  2
OCTAGONP
 10
463.8100
 20
121.3700
 30
0.0000
 41
1.6764
 42
1.6764
 43
1.0000
 50
0.0000
  0
INSERT
  8
17
  2
OCTAGONP
 10
466.3500
 20
118.8300
 30
0.0000
 41
1.6764
 42
1.6764
 43
1.0000
 50
0.0000
  0
INSERT
  8
17
  2
OCTAGONP
 10
466.3500
 20
118.8300
 30
0.0000
 41
1.6764
 42
1.6764
 43
1.0000
 50
0.0000
  0
INSERT
  8
17
  2
OCTAGONP
 10
466.3500
 20
121.3700
 30
0.0000
 41
1.6764
 42
1.6764
 43
1.0000
 50
0.0000
  0
INSERT
  8
17
  2
OCTAGONP
 10
466.3500
 20
121.3700
 30
0.0000
 41
1.6764
 42
1.6764
 43
1.0000
 50
0.0000
  0
INSERT
  8
17
  2
OCTAGONP
 10
468.8900
 20
118.8300
 30
0.0000
 41
1.6764
 42
1.6764
 43
1.0000
 50
0.0000
  0
INSERT
  8
17
  2
OCTAGONP
 10
468.8900
 20
118.8300
 30
0.0000
 41
1.6764
 42
1.6764
 43
1.0000
 50
0.0000
  0
INSERT
  8
17
  2
OCTAGONP
 10
468.8900
 20
121.3700
 30
0.0000
 41
1.6764
 42
1.6764
 43
1.0000
 50
0.0000
  0
INSERT
  8
17
  2
OCTAGONP
 10
468.8900
 20
121.3700
 30
0.0000
 41
1.6764
 42
1.6764
 43
1.0000
 50
0.0000
  0
INSERT
  8
17
  2
SQUAREP
 10
395.0000
 20
121.0000
 30
0.0000
 41
1.6500
 42
1.6500
 43
1.0000
 50
0.0000
  0
INSERT
  8
17
  2
SQUAREP
 10
395.0000
 20
121.0000
 30
0.0000
 41
1.6500
 42
1.6500
 43
1.0000
 50
0.0000
  0
INSERT
  8
17
  2
OCTAGONP
 10
397.5400
 20
121.0000
 30
0.0000
 41
1.6500
 42
1.6500
 43
1.0000
 50
0.0000
  0
INSERT
  8
17
  2
OCTAGONP
 10
397.5400
 20
121.0000
 30
0.0000
 41
1.6500
 42
1.6500
 43
1.0000
 50
0.0000
  0
INSERT
  8
17
  2
OCTAGONP
 10
400.0800
 20
121.0000
 30
0.0000
 41
1.6500
 42
1.6500
 43
1.0000
 50
0.0000
  0
INSERT
  8
17
  2
OCTAGONP
 10
400.0800
 20
121.0000
 30
0.0000
 41
1.6500
 42
1.6500
 43
1.0000
 50
0.0000
  0
INSERT
  8
17
  2
OCTAGONP
 10
402.6200
 20
121.0000
 30
0.0000
 41
1.6500
 42
1.6500
 43
1.0000
 50
0.0000
  0
INSERT
  8
17
  2
OCTAGONP
 10
402.6200
 20
121.0000
 30
0.0000
 41
1.6500
 42
1.6500
 43
1.0000
 50
0.0000
  0
INSERT
  8
17
  2
OCTAGONP
 10
405.1600
 20
121.0000
 30
0.0000
 41
1.6500
 42
1.6500
 43
1.0000
 50
0.0000
  0
INSERT
  8
17
  2
OCTAGONP
 10
405.1600
 20
121.0000
 30
0.0000
 41
1.6500
 42
1.6500
 43
1.0000
 50
0.0000
  0
INSERT
  8
17
  2
OCTAGONP
 10
407.7000
 20
121.0000
 30
0.0000
 41
1.6500
 42
1.6500
 43
1.0000
 50
0.0000
  0
INSERT
  8
17
  2
OCTAGONP
 10
407.7000
 20
121.0000
 30
0.0000
 41
1.6500
 42
1.6500
 43
1.0000
 50
0.0000
  0
INSERT
  8
17
  2
OCTAGONP
 10
410.2400
 20
121.0000
 30
0.0000
 41
1.6500
 42
1.6500
 43
1.0000
 50
0.0000
  0
INSERT
  8
17
  2
OCTAGONP
 10
410.2400
 20
121.0000
 30
0.0000
 41
1.6500
 42
1.6500
 43
1.0000
 50
0.0000
  0
INSERT
  8
17
  2
OCTAGONP
 10
412.7800
 20
121.0000
 30
0.0000
 41
1.6500
 42
1.6500
 43
1.0000
 50
0.0000
  0
INSERT
  8
17
  2
OCTAGONP
 10
412.7800
 20
121.0000
 30
0.0000
 41
1.6500
 42
1.6500
 43
1.0000
 50
0.0000
  0
INSERT
  8
17
  2
OCTAGONP
 10
415.3200
 20
121.0000
 30
0.0000
 41
1.6500
 42
1.6500
 43
1.0000
 50
0.0000
  0
INSERT
  8
17
  2
OCTAGONP
 10
415.3200
 20
121.0000
 30
0.0000
 41
1.6500
 42
1.6500
 43
1.0000
 50
0.0000
  0
INSERT
  8
17
  2
OCTAGONP
 10
395.0000
 20
126.0800
 30
0.0000
 41
1.6500
 42
1.6500
 43
1.0000
 50
0.0000
  0
INSERT
  8
17
  2
OCTAGONP
 10
395.0000
 20
126.0800
 30
0.0000
 41
1.6500
 42
1.6500
 43
1.0000
 50
0.0000
  0
INSERT
  8
17
  2
OCTAGONP
 10
397.5400
 20
126.0800
 30
0.0000
 41
1.6500
 42
1.6500
 43
1.0000
 50
0.0000
  0
INSERT
  8
17
  2
OCTAGONP
 10
397.5400
 20
126.0800
 30
0.0000
 41
1.6500
 42
1.6500
 43
1.0000
 50
0.0000
  0
INSERT
  8
17
  2
OCTAGONP
 10
400.0800
 20
126.0800
 30
0.0000
 41
1.6500
 42
1.6500
 43
1.0000
 50
0.0000
  0
INSERT
  8
17
  2
OCTAGONP
 10
400.0800
 20
126.0800
 30
0.0000
 41
1.6500
 42
1.6500
 43
1.0000
 50
0.0000
  0
INSERT
  8
17
  2
OCTAGONP
 10
402.6200
 20
126.0800
 30
0.0000
 41
1.6500
 42
1.6500
 43
1.0000
 50
0.0000
  0
INSERT
  8
17
  2
OCTAGONP
 10
402.6200
 20
126.0800
 30
0.0000
 41
1.6500
 42
1.6500
 43
1.0000
 50
0.0000
  0
INSERT
  8
17
  2
OCTAGONP
 10
405.1600
 20
126.0800
 30
0.0000
 41
1.6500
 42
1.6500
 43
1.0000
 50
0.0000
  0
INSERT
  8
17
  2
OCTAGONP
 10
405.1600
 20
126.0800
 30
0.0000
 41
1.6500
 42
1.6500
 43
1.0000
 50
0.0000
  0
INSERT
  8
17
  2
OCTAGONP
 10
407.7000
 20
126.0800
 30
0.0000
 41
1.6500
 42
1.6500
 43
1.0000
 50
0.0000
  0
INSERT
  8
17
  2
OCTAGONP
 10
407.7000
 20
126.0800
 30
0.0000
 41
1.6500
 42
1.6500
 43
1.0000
 50
0.0000
  0
INSERT
  8
17
  2
OCTAGONP
 10
410.2400
 20
126.0800
 30
0.0000
 41
1.6500
 42
1.6500
 43
1.0000
 50
0.0000
  0
INSERT
  8
17
  2
OCTAGONP
 10
410.2400
 20
126.0800
 30
0.0000
 41
1.6500
 42
1.6500
 43
1.0000
 50
0.0000
  0
INSERT
  8
17
  2
OCTAGONP
 10
412.7800
 20
126.0800
 30
0.0000
 41
1.6500
 42
1.6500
 43
1.0000
 50
0.0000
  0
INSERT
  8
17
  2
OCTAGONP
 10
412.7800
 20
126.0800
 30
0.0000
 41
1.6500
 42
1.6500
 43
1.0000
 50
0.0000
  0
INSERT
  8
17
  2
OCTAGONP
 10
415.3200
 20
126.0800
 30
0.0000
 41
1.6500
 42
1.6500
 43
1.0000
 50
0.0000
  0
INSERT
  8
17
  2
OCTAGONP
 10
415.3200
 20
126.0800
 30
0.0000
 41
1.6500
 42
1.6500
 43
1.0000
 50
0.0000
  0
INSERT
  8
17
  2
OCTAGONP
 10
370.1100
 20
118.8300
 30
0.0000
 41
1.6764
 42
1.6764
 43
1.0000
 50
0.0000
  0
INSERT
  8
17
  2
OCTAGONP
 10
370.1100
 20
118.8300
 30
0.0000
 41
1.6764
 42
1.6764
 43
1.0000
 50
0.0000
  0
INSERT
  8
17
  2
OCTAGONP
 10
370.1100
 20
121.3700
 30
0.0000
 41
1.6764
 42
1.6764
 43
1.0000
 50
0.0000
  0
INSERT
  8
17
  2
OCTAGONP
 10
370.1100
 20
121.3700
 30
0.0000
 41
1.6764
 42
1.6764
 43
1.0000
 50
0.0000
  0
INSERT
  8
17
  2
OCTAGONP
 10
372.6500
 20
118.8300
 30
0.0000
 41
1.6764
 42
1.6764
 43
1.0000
 50
0.0000
  0
INSERT
  8
17
  2
OCTAGONP
 10
372.6500
 20
118.8300
 30
0.0000
 41
1.6764
 42
1.6764
 43
1.0000
 50
0.0000
  0
INSERT
  8
17
  2
OCTAGONP
 10
372.6500
 20
121.3700
 30
0.0000
 41
1.6764
 42
1.6764
 43
1.0000
 50
0.0000
  0
INSERT
  8
17
  2
OCTAGONP
 10
372.6500
 20
121.3700
 30
0.0000
 41
1.6764
 42
1.6764
 43
1.0000
 50
0.0000
  0
INSERT
  8
17
  2
OCTAGONP
 10
375.1900
 20
118.8300
 30
0.0000
 41
1.6764
 42
1.6764
 43
1.0000
 50
0.0000
  0
INSERT
  8
17
  2
OCTAGONP
 10
375.1900
 20
118.8300
 30
0.0000
 41
1.6764
 42
1.6764
 43
1.0000
 50
0.0000
  0
INSERT
  8
17
  2
OCTAGONP
 10
375.1900
 20
121.3700
 30
0.0000
 41
1.6764
 42
1.6764
 43
1.0000
 50
0.0000
  0
INSERT
  8
17
  2
OCTAGONP
 10
375.1900
 20
121.3700
 30
0.0000
 41
1.6764
 42
1.6764
 43
1.0000
 50
0.0000
  0
INSERT
  8
17
  2
OCTAGONP
 10
377.7300
 20
118.8300
 30
0.0000
 41
1.6764
 42
1.6764
 43
1.0000
 50
0.0000
  0
INSERT
  8
17
  2
OCTAGONP
 10
377.7300
 20
118.8300
 30
0.0000
 41
1.6764
 42
1.6764
 43
1.0000
 50
0.0000
  0
INSERT
  8
17
  2
OCTAGONP
 10
377.7300
 20
121.3700
 30
0.0000
 41
1.6764
 42
1.6764
 43
1.0000
 50
0.0000
  0
INSERT
  8
17
  2
OCTAGONP
 10
377.7300
 20
121.3700
 30
0.0000
 41
1.6764
 42
1.6764
 43
1.0000
 50
0.0000
  0
INSERT
  8
17
  2
OCTAGONP
 10
380.2700
 20
118.8300
 30
0.0000
 41
1.6764
 42
1.6764
 43
1.0000
 50
0.0000
  0
INSERT
  8
17
  2
OCTAGONP
 10
380.2700
 20
118.8300
 30
0.0000
 41
1.6764
 42
1.6764
 43
1.0000
 50
0.0000
  0
INSERT
  8
17
  2
OCTAGONP
 10
380.2700
 20
121.3700
 30
0.0000
 41
1.6764
 42
1.6764
 43
1.0000
 50
0.0000
  0
INSERT
  8
17
  2
OCTAGONP
 10
380.2700
 20
121.3700
 30
0.0000
 41
1.6764
 42
1.6764
 43
1.0000
 50
0.0000
  0
INSERT
  8
17
  2
OCTAGONP
 10
382.8100
 20
118.8300
 30
0.0000
 41
1.6764
 42
1.6764
 43
1.0000
 50
0.0000
  0
INSERT
  8
17
  2
OCTAGONP
 10
382.8100
 20
118.8300
 30
0.0000
 41
1.6764
 42
1.6764
 43
1.0000
 50
0.0000
  0
INSERT
  8
17
  2
OCTAGONP
 10
382.8100
 20
121.3700
 30
0.0000
 41
1.6764
 42
1.6764
 43
1.0000
 50
0.0000
  0
INSERT
  8
17
  2
OCTAGONP
 10
382.8100
 20
121.3700
 30
0.0000
 41
1.6764
 42
1.6764
 43
1.0000
 50
0.0000
  0
INSERT
  8
17
  2
OCTAGONP
 10
385.3500
 20
118.8300
 30
0.0000
 41
1.6764
 42
1.6764
 43
1.0000
 50
0.0000
  0
INSERT
  8
17
  2
OCTAGONP
 10
385.3500
 20
118.8300
 30
0.0000
 41
1.6764
 42
1.6764
 43
1.0000
 50
0.0000
  0
INSERT
  8
17
  2
OCTAGONP
 10
385.3500
 20
121.3700
 30
0.0000
 41
1.6764
 42
1.6764
 43
1.0000
 50
0.0000
  0
INSERT
  8
17
  2
OCTAGONP
 10
385.3500
 20
121.3700
 30
0.0000
 41
1.6764
 42
1.6764
 43
1.0000
 50
0.0000
  0
INSERT
  8
17
  2
OCTAGONP
 10
387.8900
 20
118.8300
 30
0.0000
 41
1.6764
 42
1.6764
 43
1.0000
 50
0.0000
  0
INSERT
  8
17
  2
OCTAGONP
 10
387.8900
 20
118.8300
 30
0.0000
 41
1.6764
 42
1.6764
 43
1.0000
 50
0.0000
  0
INSERT
  8
17
  2
OCTAGONP
 10
387.8900
 20
121.3700
 30
0.0000
 41
1.6764
 42
1.6764
 43
1.0000
 50
0.0000
  0
INSERT
  8
17
  2
OCTAGONP
 10
387.8900
 20
121.3700
 30
0.0000
 41
1.6764
 42
1.6764
 43
1.0000
 50
0.0000
  0
INSERT
  8
17
  2
LONGP100
 10
324.7000
 20
24.5000
 30
0.0000
 41
2.7750
 42
2.7750
 43
1.0000
 50
270.0000
  0
INSERT
  8
17
  2
LONGP100
 10
324.7000
 20
24.5000
 30
0.0000
 41
2.7750
 42
2.7750
 43
1.0000
 50
270.0000
  0
INSERT
  8
17
  2
LONGP100
 10
329.4000
 20
24.5000
 30
0.0000
 41
2.7750
 42
2.7750
 43
1.0000
 50
270.0000
  0
INSERT
  8
17
  2
LONGP100
 10
329.4000
 20
24.5000
 30
0.0000
 41
2.7750
 42
2.7750
 43
1.0000
 50
270.0000
  0
INSERT
  8
17
  2
LONGP100
 10
320.0000
 20
24.5000
 30
0.0000
 41
2.7750
 42
2.7750
 43
1.0000
 50
270.0000
  0
INSERT
  8
17
  2
LONGP100
 10
320.0000
 20
24.5000
 30
0.0000
 41
2.7750
 42
2.7750
 43
1.0000
 50
270.0000
  0
INSERT
  8
17
  2
ROUNDP
 10
332.5750
 20
26.0900
 30
0.0000
 41
2.7750
 42
2.7750
 43
1.0000
 50
270.0000
  0
INSERT
  8
17
  2
ROUNDP
 10
332.5750
 20
26.0900
 30
0.0000
 41
2.7750
 42
2.7750
 43
1.0000
 50
270.0000
  0
INSERT
  8
17
  2
ROUNDP
 10
332.5750
 20
22.9100
 30
0.0000
 41
2.7750
 42
2.7750
 43
1.0000
 50
270.0000
  0
INSERT
  8
17
  2
ROUNDP
 10
332.5750
 20
22.9100
 30
0.0000
 41
2.7750
 42
2.7750
 43
1.0000
 50
270.0000
  0
INSERT
  8
17
  2
ROUNDP
 10
316.8250
 20
26.0900
 30
0.0000
 41
2.7750
 42
2.7750
 43
1.0000
 50
270.0000
  0
INSERT
  8
17
  2
ROUNDP
 10
316.8250
 20
26.0900
 30
0.0000
 41
2.7750
 42
2.7750
 43
1.0000
 50
270.0000
  0
INSERT
  8
17
  2
ROUNDP
 10
316.8250
 20
22.9100
 30
0.0000
 41
2.7750
 42
2.7750
 43
1.0000
 50
270.0000
  0
INSERT
  8
17
  2
ROUNDP
 10
316.8250
 20
22.9100
 30
0.0000
 41
2.7750
 42
2.7750
 43
1.0000
 50
270.0000
  0
INSERT
  8
17
  2
LONGP100
 10
324.7000
 20
49.5000
 30
0.0000
 41
2.7750
 42
2.7750
 43
1.0000
 50
270.0000
  0
INSERT
  8
17
  2
LONGP100
 10
324.7000
 20
49.5000
 30
0.0000
 41
2.7750
 42
2.7750
 43
1.0000
 50
270.0000
  0
INSERT
  8
17
  2
LONGP100
 10
329.4000
 20
49.5000
 30
0.0000
 41
2.7750
 42
2.7750
 43
1.0000
 50
270.0000
  0
INSERT
  8
17
  2
LONGP100
 10
329.4000
 20
49.5000
 30
0.0000
 41
2.7750
 42
2.7750
 43
1.0000
 50
270.0000
  0
INSERT
  8
17
  2
LONGP100
 10
320.0000
 20
49.5000
 30
0.0000
 41
2.7750
 42
2.7750
 43
1.0000
 50
270.0000
  0
INSERT
  8
17
  2
LONGP100
 10
320.0000
 20
49.5000
 30
0.0000
 41
2.7750
 42
2.7750
 43
1.0000
 50
270.0000
  0
INSERT
  8
17
  2
ROUNDP
 10
332.5750
 20
51.0900
 30
0.0000
 41
2.7750
 42
2.7750
 43
1.0000
 50
270.0000
  0
INSERT
  8
17
  2
ROUNDP
 10
332.5750
 20
51.0900
 30
0.0000
 41
2.7750
 42
2.7750
 43
1.0000
 50
270.0000
  0
INSERT
  8
17
  2
ROUNDP
 10
332.5750
 20
47.9100
 30
0.0000
 41
2.7750
 42
2.7750
 43
1.0000
 50
270.0000
  0
INSERT
  8
17
  2
ROUNDP
 10
332.5750
 20
47.9100
 30
0.0000
 41
2.7750
 42
2.7750
 43
1.0000
 50
270.0000
  0
INSERT
  8
17
  2
ROUNDP
 10
316.8250
 20
51.0900
 30
0.0000
 41
2.7750
 42
2.7750
 43
1.0000
 50
270.0000
  0
INSERT
  8
17
  2
ROUNDP
 10
316.8250
 20
51.0900
 30
0.0000
 41
2.7750
 42
2.7750
 43
1.0000
 50
270.0000
  0
INSERT
  8
17
  2
ROUNDP
 10
316.8250
 20
47.9100
 30
0.0000
 41
2.7750
 42
2.7750
 43
1.0000
 50
270.0000
  0
INSERT
  8
17
  2
ROUNDP
 10
316.8250
 20
47.9100
 30
0.0000
 41
2.7750
 42
2.7750
 43
1.0000
 50
270.0000
  0
INSERT
  8
17
  2
LONGP100
 10
324.7000
 20
74.5000
 30
0.0000
 41
2.7750
 42
2.7750
 43
1.0000
 50
270.0000
  0
INSERT
  8
17
  2
LONGP100
 10
324.7000
 20
74.5000
 30
0.0000
 41
2.7750
 42
2.7750
 43
1.0000
 50
270.0000
  0
INSERT
  8
17
  2
LONGP100
 10
329.4000
 20
74.5000
 30
0.0000
 41
2.7750
 42
2.7750
 43
1.0000
 50
270.0000
  0
INSERT
  8
17
  2
LONGP100
 10
329.4000
 20
74.5000
 30
0.0000
 41
2.7750
 42
2.7750
 43
1.0000
 50
270.0000
  0
INSERT
  8
17
  2
LONGP100
 10
320.0000
 20
74.5000
 30
0.0000
 41
2.7750
 42
2.7750
 43
1.0000
 50
270.0000
  0
INSERT
  8
17
  2
LONGP100
 10
320.0000
 20
74.5000
 30
0.0000
 41
2.7750
 42
2.7750
 43
1.0000
 50
270.0000
  0
INSERT
  8
17
  2
ROUNDP
 10
332.5750
 20
76.0900
 30
0.0000
 41
2.7750
 42
2.7750
 43
1.0000
 50
270.0000
  0
INSERT
  8
17
  2
ROUNDP
 10
332.5750
 20
76.0900
 30
0.0000
 41
2.7750
 42
2.7750
 43
1.0000
 50
270.0000
  0
INSERT
  8
17
  2
ROUNDP
 10
332.5750
 20
72.9100
 30
0.0000
 41
2.7750
 42
2.7750
 43
1.0000
 50
270.0000
  0
INSERT
  8
17
  2
ROUNDP
 10
332.5750
 20
72.9100
 30
0.0000
 41
2.7750
 42
2.7750
 43
1.0000
 50
270.0000
  0
INSERT
  8
17
  2
ROUNDP
 10
316.8250
 20
76.0900
 30
0.0000
 41
2.7750
 42
2.7750
 43
1.0000
 50
270.0000
  0
INSERT
  8
17
  2
ROUNDP
 10
316.8250
 20
76.0900
 30
0.0000
 41
2.7750
 42
2.7750
 43
1.0000
 50
270.0000
  0
INSERT
  8
17
  2
ROUNDP
 10
316.8250
 20
72.9100
 30
0.0000
 41
2.7750
 42
2.7750
 43
1.0000
 50
270.0000
  0
INSERT
  8
17
  2
ROUNDP
 10
316.8250
 20
72.9100
 30
0.0000
 41
2.7750
 42
2.7750
 43
1.0000
 50
270.0000
  0
INSERT
  8
17
  2
LONGP100
 10
324.7000
 20
99.5000
 30
0.0000
 41
2.7750
 42
2.7750
 43
1.0000
 50
270.0000
  0
INSERT
  8
17
  2
LONGP100
 10
324.7000
 20
99.5000
 30
0.0000
 41
2.7750
 42
2.7750
 43
1.0000
 50
270.0000
  0
INSERT
  8
17
  2
LONGP100
 10
329.4000
 20
99.5000
 30
0.0000
 41
2.7750
 42
2.7750
 43
1.0000
 50
270.0000
  0
INSERT
  8
17
  2
LONGP100
 10
329.4000
 20
99.5000
 30
0.0000
 41
2.7750
 42
2.7750
 43
1.0000
 50
270.0000
  0
INSERT
  8
17
  2
LONGP100
 10
320.0000
 20
99.5000
 30
0.0000
 41
2.7750
 42
2.7750
 43
1.0000
 50
270.0000
  0
INSERT
  8
17
  2
LONGP100
 10
320.0000
 20
99.5000
 30
0.0000
 41
2.7750
 42
2.7750
 43
1.0000
 50
270.0000
  0
INSERT
  8
17
  2
ROUNDP
 10
332.5750
 20
101.0900
 30
0.0000
 41
2.7750
 42
2.7750
 43
1.0000
 50
270.0000
  0
INSERT
  8
17
  2
ROUNDP
 10
332.5750
 20
101.0900
 30
0.0000
 41
2.7750
 42
2.7750
 43
1.0000
 50
270.0000
  0
INSERT
  8
17
  2
ROUNDP
 10
332.5750
 20
97.9100
 30
0.0000
 41
2.7750
 42
2.7750
 43
1.0000
 50
270.0000
  0
INSERT
  8
17
  2
ROUNDP
 10
332.5750
 20
97.9100
 30
0.0000
 41
2.7750
 42
2.7750
 43
1.0000
 50
270.0000
  0
INSERT
  8
17
  2
ROUNDP
 10
316.8250
 20
101.0900
 30
0.0000
 41
2.7750
 42
2.7750
 43
1.0000
 50
270.0000
  0
INSERT
  8
17
  2
ROUNDP
 10
316.8250
 20
101.0900
 30
0.0000
 41
2.7750
 42
2.7750
 43
1.0000
 50
270.0000
  0
INSERT
  8
17
  2
ROUNDP
 10
316.8250
 20
97.9100
 30
0.0000
 41
2.7750
 42
2.7750
 43
1.0000
 50
270.0000
  0
INSERT
  8
17
  2
ROUNDP
 10
316.8250
 20
97.9100
 30
0.0000
 41
2.7750
 42
2.7750
 43
1.0000
 50
270.0000
  0
CIRCLE
  8
20
 10
357.0000
 20
61.0000
 30
0.0000
 40
2.0002
  0
INSERT
  8
17
  2
ROUNDP
 10
357.0000
 20
55.9200
 30
0.0000
 41
2.5716
 42
2.5716
 43
1.0000
 50
90.0000
  0
INSERT
  8
17
  2
ROUNDP
 10
357.0000
 20
55.9200
 30
0.0000
 41
2.5716
 42
2.5716
 43
1.0000
 50
90.0000
  0
INSERT
  8
17
  2
ROUNDP
 10
357.0000
 20
66.0800
 30
0.0000
 41
2.5716
 42
2.5716
 43
1.0000
 50
90.0000
  0
INSERT
  8
17
  2
ROUNDP
 10
357.0000
 20
66.0800
 30
0.0000
 41
2.5716
 42
2.5716
 43
1.0000
 50
90.0000
  0
INSERT
  8
17
  2
ROUNDP
 10
354.4600
 20
57.1900
 30
0.0000
 41
2.5400
 42
2.5400
 43
1.0000
 50
90.0000
  0
INSERT
  8
17
  2
ROUNDP
 10
354.4600
 20
57.1900
 30
0.0000
 41
2.5400
 42
2.5400
 43
1.0000
 50
90.0000
  0
INSERT
  8
17
  2
ROUNDP
 10
351.9200
 20
63.5400
 30
0.0000
 41
2.5400
 42
2.5400
 43
1.0000
 50
90.0000
  0
INSERT
  8
17
  2
ROUNDP
 10
351.9200
 20
63.5400
 30
0.0000
 41
2.5400
 42
2.5400
 43
1.0000
 50
90.0000
  0
CIRCLE
  8
20
 10
357.0000
 20
81.0000
 30
0.0000
 40
2.0002
  0
INSERT
  8
17
  2
ROUNDP
 10
357.0000
 20
75.9200
 30
0.0000
 41
2.5716
 42
2.5716
 43
1.0000
 50
90.0000
  0
INSERT
  8
17
  2
ROUNDP
 10
357.0000
 20
75.9200
 30
0.0000
 41
2.5716
 42
2.5716
 43
1.0000
 50
90.0000
  0
INSERT
  8
17
  2
ROUNDP
 10
357.0000
 20
86.0800
 30
0.0000
 41
2.5716
 42
2.5716
 43
1.0000
 50
90.0000
  0
INSERT
  8
17
  2
ROUNDP
 10
357.0000
 20
86.0800
 30
0.0000
 41
2.5716
 42
2.5716
 43
1.0000
 50
90.0000
  0
INSERT
  8
17
  2
ROUNDP
 10
354.4600
 20
77.1900
 30
0.0000
 41
2.5400
 42
2.5400
 43
1.0000
 50
90.0000
  0
INSERT
  8
17
  2
ROUNDP
 10
354.4600
 20
77.1900
 30
0.0000
 41
2.5400
 42
2.5400
 43
1.0000
 50
90.0000
  0
INSERT
  8
17
  2
ROUNDP
 10
351.9200
 20
83.5400
 30
0.0000
 41
2.5400
 42
2.5400
 43
1.0000
 50
90.0000
  0
INSERT
  8
17
  2
ROUNDP
 10
351.9200
 20
83.5400
 30
0.0000
 41
2.5400
 42
2.5400
 43
1.0000
 50
90.0000
  0
CIRCLE
  8
20
 10
377.0000
 20
61.0000
 30
0.0000
 40
2.0002
  0
INSERT
  8
17
  2
ROUNDP
 10
377.0000
 20
55.9200
 30
0.0000
 41
2.5716
 42
2.5716
 43
1.0000
 50
90.0000
  0
INSERT
  8
17
  2
ROUNDP
 10
377.0000
 20
55.9200
 30
0.0000
 41
2.5716
 42
2.5716
 43
1.0000
 50
90.0000
  0
INSERT
  8
17
  2
ROUNDP
 10
377.0000
 20
66.0800
 30
0.0000
 41
2.5716
 42
2.5716
 43
1.0000
 50
90.0000
  0
INSERT
  8
17
  2
ROUNDP
 10
377.0000
 20
66.0800
 30
0.0000
 41
2.5716
 42
2.5716
 43
1.0000
 50
90.0000
  0
INSERT
  8
17
  2
ROUNDP
 10
374.4600
 20
57.1900
 30
0.0000
 41
2.5400
 42
2.5400
 43
1.0000
 50
90.0000
  0
INSERT
  8
17
  2
ROUNDP
 10
374.4600
 20
57.1900
 30
0.0000
 41
2.5400
 42
2.5400
 43
1.0000
 50
90.0000
  0
INSERT
  8
17
  2
ROUNDP
 10
371.9200
 20
63.5400
 30
0.0000
 41
2.5400
 42
2.5400
 43
1.0000
 50
90.0000
  0
INSERT
  8
17
  2
ROUNDP
 10
371.9200
 20
63.5400
 30
0.0000
 41
2.5400
 42
2.5400
 43
1.0000
 50
90.0000
  0
CIRCLE
  8
20
 10
377.0000
 20
81.0000
 30
0.0000
 40
2.0002
  0
INSERT
  8
17
  2
ROUNDP
 10
377.0000
 20
75.9200
 30
0.0000
 41
2.5716
 42
2.5716
 43
1.0000
 50
90.0000
  0
INSERT
  8
17
  2
ROUNDP
 10
377.0000
 20
75.9200
 30
0.0000
 41
2.5716
 42
2.5716
 43
1.0000
 50
90.0000
  0
INSERT
  8
17
  2
ROUNDP
 10
377.0000
 20
86.0800
 30
0.0000
 41
2.5716
 42
2.5716
 43
1.0000
 50
90.0000
  0
INSERT
  8
17
  2
ROUNDP
 10
377.0000
 20
86.0800
 30
0.0000
 41
2.5716
 42
2.5716
 43
1.0000
 50
90.0000
  0
INSERT
  8
17
  2
ROUNDP
 10
374.4600
 20
77.1900
 30
0.0000
 41
2.5400
 42
2.5400
 43
1.0000
 50
90.0000
  0
INSERT
  8
17
  2
ROUNDP
 10
374.4600
 20
77.1900
 30
0.0000
 41
2.5400
 42
2.5400
 43
1.0000
 50
90.0000
  0
INSERT
  8
17
  2
ROUNDP
 10
371.9200
 20
83.5400
 30
0.0000
 41
2.5400
 42
2.5400
 43
1.0000
 50
90.0000
  0
INSERT
  8
17
  2
ROUNDP
 10
371.9200
 20
83.5400
 30
0.0000
 41
2.5400
 42
2.5400
 43
1.0000
 50
90.0000
  0
CIRCLE
  8
20
 10
397.0000
 20
61.0000
 30
0.0000
 40
2.0002
  0
INSERT
  8
17
  2
ROUNDP
 10
397.0000
 20
55.9200
 30
0.0000
 41
2.5716
 42
2.5716
 43
1.0000
 50
90.0000
  0
INSERT
  8
17
  2
ROUNDP
 10
397.0000
 20
55.9200
 30
0.0000
 41
2.5716
 42
2.5716
 43
1.0000
 50
90.0000
  0
INSERT
  8
17
  2
ROUNDP
 10
397.0000
 20
66.0800
 30
0.0000
 41
2.5716
 42
2.5716
 43
1.0000
 50
90.0000
  0
INSERT
  8
17
  2
ROUNDP
 10
397.0000
 20
66.0800
 30
0.0000
 41
2.5716
 42
2.5716
 43
1.0000
 50
90.0000
  0
INSERT
  8
17
  2
ROUNDP
 10
394.4600
 20
57.1900
 30
0.0000
 41
2.5400
 42
2.5400
 43
1.0000
 50
90.0000
  0
INSERT
  8
17
  2
ROUNDP
 10
394.4600
 20
57.1900
 30
0.0000
 41
2.5400
 42
2.5400
 43
1.0000
 50
90.0000
  0
INSERT
  8
17
  2
ROUNDP
 10
391.9200
 20
63.5400
 30
0.0000
 41
2.5400
 42
2.5400
 43
1.0000
 50
90.0000
  0
INSERT
  8
17
  2
ROUNDP
 10
391.9200
 20
63.5400
 30
0.0000
 41
2.5400
 42
2.5400
 43
1.0000
 50
90.0000
  0
CIRCLE
  8
20
 10
397.0000
 20
81.0000
 30
0.0000
 40
2.0002
  0
INSERT
  8
17
  2
ROUNDP
 10
397.0000
 20
75.9200
 30
0.0000
 41
2.5716
 42
2.5716
 43
1.0000
 50
90.0000
  0
INSERT
  8
17
  2
ROUNDP
 10
397.0000
 20
75.9200
 30
0.0000
 41
2.5716
 42
2.5716
 43
1.0000
 50
90.0000
  0
INSERT
  8
17
  2
ROUNDP
 10
397.0000
 20
86.0800
 30
0.0000
 41
2.5716
 42
2.5716
 43
1.0000
 50
90.0000
  0
INSERT
  8
17
  2
ROUNDP
 10
397.0000
 20
86.0800
 30
0.0000
 41
2.5716
 42
2.5716
 43
1.0000
 50
90.0000
  0
INSERT
  8
17
  2
ROUNDP
 10
394.4600
 20
77.1900
 30
0.0000
 41
2.5400
 42
2.5400
 43
1.0000
 50
90.0000
  0
INSERT
  8
17
  2
ROUNDP
 10
394.4600
 20
77.1900
 30
0.0000
 41
2.5400
 42
2.5400
 43
1.0000
 50
90.0000
  0
INSERT
  8
17
  2
ROUNDP
 10
391.9200
 20
83.5400
 30
0.0000
 41
2.5400
 42
2.5400
 43
1.0000
 50
90.0000
  0
INSERT
  8
17
  2
ROUNDP
 10
391.9200
 20
83.5400
 30
0.0000
 41
2.5400
 42
2.5400
 43
1.0000
 50
90.0000
  0
CIRCLE
  8
20
 10
417.0000
 20
61.0000
 30
0.0000
 40
2.0002
  0
INSERT
  8
17
  2
ROUNDP
 10
417.0000
 20
55.9200
 30
0.0000
 41
2.5716
 42
2.5716
 43
1.0000
 50
90.0000
  0
INSERT
  8
17
  2
ROUNDP
 10
417.0000
 20
55.9200
 30
0.0000
 41
2.5716
 42
2.5716
 43
1.0000
 50
90.0000
  0
INSERT
  8
17
  2
ROUNDP
 10
417.0000
 20
66.0800
 30
0.0000
 41
2.5716
 42
2.5716
 43
1.0000
 50
90.0000
  0
INSERT
  8
17
  2
ROUNDP
 10
417.0000
 20
66.0800
 30
0.0000
 41
2.5716
 42
2.5716
 43
1.0000
 50
90.0000
  0
INSERT
  8
17
  2
ROUNDP
 10
414.4600
 20
57.1900
 30
0.0000
 41
2.5400
 42
2.5400
 43
1.0000
 50
90.0000
  0
INSERT
  8
17
  2
ROUNDP
 10
414.4600
 20
57.1900
 30
0.0000
 41
2.5400
 42
2.5400
 43
1.0000
 50
90.0000
  0
INSERT
  8
17
  2
ROUNDP
 10
411.9200
 20
63.5400
 30
0.0000
 41
2.5400
 42
2.5400
 43
1.0000
 50
90.0000
  0
INSERT
  8
17
  2
ROUNDP
 10
411.9200
 20
63.5400
 30
0.0000
 41
2.5400
 42
2.5400
 43
1.0000
 50
90.0000
  0
CIRCLE
  8
20
 10
417.0000
 20
81.0000
 30
0.0000
 40
2.0002
  0
INSERT
  8
17
  2
ROUNDP
 10
417.0000
 20
75.9200
 30
0.0000
 41
2.5716
 42
2.5716
 43
1.0000
 50
90.0000
  0
INSERT
  8
17
  2
ROUNDP
 10
417.0000
 20
75.9200
 30
0.0000
 41
2.5716
 42
2.5716
 43
1.0000
 50
90.0000
  0
INSERT
  8
17
  2
ROUNDP
 10
417.0000
 20
86.0800
 30
0.0000
 41
2.5716
 42
2.5716
 43
1.0000
 50
90.0000
  0
INSERT
  8
17
  2
ROUNDP
 10
417.0000
 20
86.0800
 30
0.0000
 41
2.5716
 42
2.5716
 43
1.0000
 50
90.0000
  0
INSERT
  8
17
  2
ROUNDP
 10
414.4600
 20
77.1900
 30
0.0000
 41
2.5400
 42
2.5400
 43
1.0000
 50
90.0000
  0
INSERT
  8
17
  2
ROUNDP
 10
414.4600
 20
77.1900
 30
0.0000
 41
2.5400
 42
2.5400
 43
1.0000
 50
90.0000
  0
INSERT
  8
17
  2
ROUNDP
 10
411.9200
 20
83.5400
 30
0.0000
 41
2.5400
 42
2.5400
 43
1.0000
 50
90.0000
  0
INSERT
  8
17
  2
ROUNDP
 10
411.9200
 20
83.5400
 30
0.0000
 41
2.5400
 42
2.5400
 43
1.0000
 50
90.0000
  0
INSERT
  8
17
  2
OCTAGONP
 10
436.6000
 20
102.5000
 30
0.0000
 41
3.0000
 42
3.0000
 43
1.0000
 50
90.0000
  0
INSERT
  8
17
  2
OCTAGONP
 10
436.6000
 20
102.5000
 30
0.0000
 41
3.0000
 42
3.0000
 43
1.0000
 50
90.0000
  0
INSERT
  8
17
  2
OCTAGONP
 10
295.0000
 20
4.9000
 30
0.0000
 41
3.0000
 42
3.0000
 43
1.0000
 50
0.0000
  0
INSERT
  8
17
  2
OCTAGONP
 10
295.0000
 20
4.9000
 30
0.0000
 41
3.0000
 42
3.0000
 43
1.0000
 50
0.0000
  0
INSERT
  8
17
  2
OCTAGONP
 10
25.0000
 20
50.0000
 30
0.0000
 41
3.0000
 42
3.0000
 43
1.0000
 50
0.0000
  0
INSERT
  8
17
  2
OCTAGONP
 10
25.0000
 20
50.0000
 30
0.0000
 41
3.0000
 42
3.0000
 43
1.0000
 50
0.0000
  0
INSERT
  8
17
  2
OCTAGONP
 10
235.0000
 20
55.0000
 30
0.0000
 41
3.0000
 42
3.0000
 43
1.0000
 50
0.0000
  0
INSERT
  8
17
  2
OCTAGONP
 10
235.0000
 20
55.0000
 30
0.0000
 41
3.0000
 42
3.0000
 43
1.0000
 50
0.0000
  0
INSERT
  8
17
  2
OCTAGONP
 10
446.0000
 20
76.5000
 30
0.0000
 41
3.0000
 42
3.0000
 43
1.0000
 50
0.0000
  0
INSERT
  8
17
  2
OCTAGONP
 10
446.0000
 20
76.5000
 30
0.0000
 41
3.0000
 42
3.0000
 43
1.0000
 50
0.0000
  0
INSERT
  8
17
  2
OCTAGONP
 10
453.0000
 20
50.0000
 30
0.0000
 41
3.0000
 42
3.0000
 43
1.0000
 50
0.0000
  0
INSERT
  8
17
  2
OCTAGONP
 10
453.0000
 20
50.0000
 30
0.0000
 41
3.0000
 42
3.0000
 43
1.0000
 50
0.0000
  0
INSERT
  8
17
  2
ROUNDP
 10
479.9700
 20
113.9200
 30
0.0000
 41
1.4478
 42
1.4478
 43
1.0000
 50
270.0000
  0
INSERT
  8
17
  2
ROUNDP
 10
479.9700
 20
113.9200
 30
0.0000
 41
1.4478
 42
1.4478
 43
1.0000
 50
270.0000
  0
INSERT
  8
17
  2
ROUNDP
 10
477.4300
 20
113.9200
 30
0.0000
 41
1.4478
 42
1.4478
 43
1.0000
 50
270.0000
  0
INSERT
  8
17
  2
ROUNDP
 10
477.4300
 20
113.9200
 30
0.0000
 41
1.4478
 42
1.4478
 43
1.0000
 50
270.0000
  0
INSERT
  8
17
  2
ROUNDP
 10
474.8900
 20
113.9200
 30
0.0000
 41
1.4478
 42
1.4478
 43
1.0000
 50
270.0000
  0
INSERT
  8
17
  2
ROUNDP
 10
474.8900
 20
113.9200
 30
0.0000
 41
1.4478
 42
1.4478
 43
1.0000
 50
270.0000
  0
INSERT
  8
17
  2
ROUNDP
 10
477.4300
 20
98.6800
 30
0.0000
 41
1.4478
 42
1.4478
 43
1.0000
 50
270.0000
  0
INSERT
  8
17
  2
ROUNDP
 10
477.4300
 20
98.6800
 30
0.0000
 41
1.4478
 42
1.4478
 43
1.0000
 50
270.0000
  0
INSERT
  8
17
  2
ROUNDP
 10
472.3500
 20
113.9200
 30
0.0000
 41
1.4478
 42
1.4478
 43
1.0000
 50
270.0000
  0
INSERT
  8
17
  2
ROUNDP
 10
472.3500
 20
113.9200
 30
0.0000
 41
1.4478
 42
1.4478
 43
1.0000
 50
270.0000
  0
INSERT
  8
17
  2
ROUNDP
 10
469.8100
 20
113.9200
 30
0.0000
 41
1.4478
 42
1.4478
 43
1.0000
 50
270.0000
  0
INSERT
  8
17
  2
ROUNDP
 10
469.8100
 20
113.9200
 30
0.0000
 41
1.4478
 42
1.4478
 43
1.0000
 50
270.0000
  0
INSERT
  8
17
  2
ROUNDP
 10
467.2700
 20
113.9200
 30
0.0000
 41
1.4478
 42
1.4478
 43
1.0000
 50
270.0000
  0
INSERT
  8
17
  2
ROUNDP
 10
467.2700
 20
113.9200
 30
0.0000
 41
1.4478
 42
1.4478
 43
1.0000
 50
270.0000
  0
INSERT
  8
17
  2
ROUNDP
 10
464.7300
 20
113.9200
 30
0.0000
 41
1.4478
 42
1.4478
 43
1.0000
 50
270.0000
  0
INSERT
  8
17
  2
ROUNDP
 10
464.7300
 20
113.9200
 30
0.0000
 41
1.4478
 42
1.4478
 43
1.0000
 50
270.0000
  0
INSERT
  8
17
  2
ROUNDP
 10
462.1900
 20
113.9200
 30
0.0000
 41
1.4478
 42
1.4478
 43
1.0000
 50
270.0000
  0
INSERT
  8
17
  2
ROUNDP
 10
462.1900
 20
113.9200
 30
0.0000
 41
1.4478
 42
1.4478
 43
1.0000
 50
270.0000
  0
INSERT
  8
17
  2
ROUNDP
 10
459.6500
 20
113.9200
 30
0.0000
 41
1.4478
 42
1.4478
 43
1.0000
 50
270.0000
  0
INSERT
  8
17
  2
ROUNDP
 10
459.6500
 20
113.9200
 30
0.0000
 41
1.4478
 42
1.4478
 43
1.0000
 50
270.0000
  0
INSERT
  8
17
  2
ROUNDP
 10
457.1100
 20
113.9200
 30
0.0000
 41
1.4478
 42
1.4478
 43
1.0000
 50
270.0000
  0
INSERT
  8
17
  2
ROUNDP
 10
457.1100
 20
113.9200
 30
0.0000
 41
1.4478
 42
1.4478
 43
1.0000
 50
270.0000
  0
INSERT
  8
17
  2
ROUNDP
 10
454.5700
 20
113.9200
 30
0.0000
 41
1.4478
 42
1.4478
 43
1.0000
 50
270.0000
  0
INSERT
  8
17
  2
ROUNDP
 10
454.5700
 20
113.9200
 30
0.0000
 41
1.4478
 42
1.4478
 43
1.0000
 50
270.0000
  0
INSERT
  8
17
  2
ROUNDP
 10
452.0300
 20
113.9200
 30
0.0000
 41
1.4478
 42
1.4478
 43
1.0000
 50
270.0000
  0
INSERT
  8
17
  2
ROUNDP
 10
452.0300
 20
113.9200
 30
0.0000
 41
1.4478
 42
1.4478
 43
1.0000
 50
270.0000
  0
INSERT
  8
17
  2
ROUNDP
 10
449.4900
 20
113.9200
 30
0.0000
 41
1.4478
 42
1.4478
 43
1.0000
 50
270.0000
  0
INSERT
  8
17
  2
ROUNDP
 10
449.4900
 20
113.9200
 30
0.0000
 41
1.4478
 42
1.4478
 43
1.0000
 50
270.0000
  0
INSERT
  8
17
  2
ROUNDP
 10
449.4900
 20
98.6800
 30
0.0000
 41
1.4478
 42
1.4478
 43
1.0000
 50
270.0000
  0
INSERT
  8
17
  2
ROUNDP
 10
449.4900
 20
98.6800
 30
0.0000
 41
1.4478
 42
1.4478
 43
1.0000
 50
270.0000
  0
INSERT
  8
17
  2
ROUNDP
 10
452.0300
 20
98.6800
 30
0.0000
 41
1.4478
 42
1.4478
 43
1.0000
 50
270.0000
  0
INSERT
  8
17
  2
ROUNDP
 10
452.0300
 20
98.6800
 30
0.0000
 41
1.4478
 42
1.4478
 43
1.0000
 50
270.0000
  0
INSERT
  8
17
  2
ROUNDP
 10
454.5700
 20
98.6800
 30
0.0000
 41
1.4478
 42
1.4478
 43
1.0000
 50
270.0000
  0
INSERT
  8
17
  2
ROUNDP
 10
454.5700
 20
98.6800
 30
0.0000
 41
1.4478
 42
1.4478
 43
1.0000
 50
270.0000
  0
INSERT
  8
17
  2
ROUNDP
 10
457.1100
 20
98.6800
 30
0.0000
 41
1.4478
 42
1.4478
 43
1.0000
 50
270.0000
  0
INSERT
  8
17
  2
ROUNDP
 10
457.1100
 20
98.6800
 30
0.0000
 41
1.4478
 42
1.4478
 43
1.0000
 50
270.0000
  0
INSERT
  8
17
  2
ROUNDP
 10
459.6500
 20
98.6800
 30
0.0000
 41
1.4478
 42
1.4478
 43
1.0000
 50
270.0000
  0
INSERT
  8
17
  2
ROUNDP
 10
459.6500
 20
98.6800
 30
0.0000
 41
1.4478
 42
1.4478
 43
1.0000
 50
270.0000
  0
INSERT
  8
17
  2
ROUNDP
 10
462.1900
 20
98.6800
 30
0.0000
 41
1.4478
 42
1.4478
 43
1.0000
 50
270.0000
  0
INSERT
  8
17
  2
ROUNDP
 10
462.1900
 20
98.6800
 30
0.0000
 41
1.4478
 42
1.4478
 43
1.0000
 50
270.0000
  0
INSERT
  8
17
  2
ROUNDP
 10
464.7300
 20
98.6800
 30
0.0000
 41
1.4478
 42
1.4478
 43
1.0000
 50
270.0000
  0
INSERT
  8
17
  2
ROUNDP
 10
464.7300
 20
98.6800
 30
0.0000
 41
1.4478
 42
1.4478
 43
1.0000
 50
270.0000
  0
INSERT
  8
17
  2
ROUNDP
 10
467.2700
 20
98.6800
 30
0.0000
 41
1.4478
 42
1.4478
 43
1.0000
 50
270.0000
  0
INSERT
  8
17
  2
ROUNDP
 10
467.2700
 20
98.6800
 30
0.0000
 41
1.4478
 42
1.4478
 43
1.0000
 50
270.0000
  0
INSERT
  8
17
  2
ROUNDP
 10
469.8100
 20
98.6800
 30
0.0000
 41
1.4478
 42
1.4478
 43
1.0000
 50
270.0000
  0
INSERT
  8
17
  2
ROUNDP
 10
469.8100
 20
98.6800
 30
0.0000
 41
1.4478
 42
1.4478
 43
1.0000
 50
270.0000
  0
INSERT
  8
17
  2
ROUNDP
 10
472.3500
 20
98.6800
 30
0.0000
 41
1.4478
 42
1.4478
 43
1.0000
 50
270.0000
  0
INSERT
  8
17
  2
ROUNDP
 10
472.3500
 20
98.6800
 30
0.0000
 41
1.4478
 42
1.4478
 43
1.0000
 50
270.0000
  0
INSERT
  8
17
  2
ROUNDP
 10
474.8900
 20
98.6800
 30
0.0000
 41
1.4478
 42
1.4478
 43
1.0000
 50
270.0000
  0
INSERT
  8
17
  2
ROUNDP
 10
474.8900
 20
98.6800
 30
0.0000
 41
1.4478
 42
1.4478
 43
1.0000
 50
270.0000
  0
INSERT
  8
17
  2
ROUNDP
 10
482.5100
 20
113.9200
 30
0.0000
 41
1.4478
 42
1.4478
 43
1.0000
 50
270.0000
  0
INSERT
  8
17
  2
ROUNDP
 10
482.5100
 20
113.9200
 30
0.0000
 41
1.4478
 42
1.4478
 43
1.0000
 50
270.0000
  0
INSERT
  8
17
  2
ROUNDP
 10
479.9700
 20
98.6800
 30
0.0000
 41
1.4478
 42
1.4478
 43
1.0000
 50
270.0000
  0
INSERT
  8
17
  2
ROUNDP
 10
479.9700
 20
98.6800
 30
0.0000
 41
1.4478
 42
1.4478
 43
1.0000
 50
270.0000
  0
INSERT
  8
17
  2
ROUNDP
 10
482.5100
 20
98.6800
 30
0.0000
 41
1.4478
 42
1.4478
 43
1.0000
 50
270.0000
  0
INSERT
  8
17
  2
ROUNDP
 10
482.5100
 20
98.6800
 30
0.0000
 41
1.4478
 42
1.4478
 43
1.0000
 50
270.0000
  0
ENDSEC
  0
EOF
