  0
SECTION
  2
HEADER
  9
$ACADVER
  1
AC1009
  9
$FILLMODE
 70
0
  9
$EXTMIN
 10
0.0000
 20
-15.0991
 30
0.0000
  9
$EXTMAX
 10
491.1300
 20
151.4400
 30
0.0000
  0
ENDSEC
  0
SECTION
  2
TABLES
  0
TABLE
  2
LTYPE
 70
1
  0
LTYPE
  2
CONTINUOUS
 70
64
  3
Solid line
 72
65
 73
0
 40
0
  0
ENDTAB
  0
TABLE
  2
LAYER
 70
255
  0
LAYER
  2
17
 70
64
 62
110
  6
CONTINUOUS
  0
LAYER
  2
20
 70
64
 62
31
  6
CONTINUOUS
  0
LAYER
  2
44
 70
64
 62
253
  6
CONTINUOUS
  0
LAYER
  2
45
 70
64
 62
253
  6
CONTINUOUS
  0
LAYER
  2
46
 70
64
 62
140
  6
CONTINUOUS
  0
ENDTAB
  0
ENDSEC
  0
SECTION
  2
BLOCKS
  0
BLOCK
  8
0
  2
RECT
 70
64
 10
0.0000
 20
0.0000
 30
0.0000
  3
RECT
  0
SOLID
  8
0
 10
-0.5000
 20
-0.5000
 30
0.0000
 11
0.5000
 21
-0.5000
 31
0.0000
 12
-0.5000
 22
0.5000
 32
0.0000
 13
0.5000
 23
0.5000
 33
0.0000
  0
ENDBLK
  8
0
  0
BLOCK
  8
0
  2
PIE
 70
64
 10
0.0000
 20
0.0000
 30
0.0000
  3
PIE
  0
CIRCLE
  8
0
 10
0.0000
 20
0.0000
 30
0.0000
 40
0.5000
  0
ENDBLK
  8
0
  0
BLOCK
  8
0
  2
OCTAGONP
 70
64
 10
0.0000
 20
0.0000
 30
0.0000
  3
OCTAGONP
  0
POLYLINE
  8
0
 66
1
 10
0.0000
 20
0.0000
 30
0.0000
 40
0.0000
 41
0.0000
 70
1
  0
VERTEX
  8
0
 10
-0.5000
 20
-0.2071
 30
0.0000
  0
VERTEX
  8
0
 10
-0.5000
 20
0.2071
 30
0.0000
  0
VERTEX
  8
0
 10
-0.2071
 20
0.5000
 30
0.0000
  0
VERTEX
  8
0
 10
0.2071
 20
0.5000
 30
0.0000
  0
VERTEX
  8
0
 10
0.5000
 20
0.2071
 30
0.0000
  0
VERTEX
  8
0
 10
0.5000
 20
-0.2071
 30
0.0000
  0
VERTEX
  8
0
 10
0.2071
 20
-0.5000
 30
0.0000
  0
VERTEX
  8
0
 10
-0.2071
 20
-0.5000
 30
0.0000
  0
SEQEND
  8
0
  0
ENDBLK
  8
0
  0
BLOCK
  8
0
  2
SQUAREP
 70
64
 10
0.0000
 20
0.0000
 30
0.0000
  3
SQUAREP
  0
SOLID
  8
0
 10
-0.5000
 20
-0.5000
 30
0.0000
 11
0.5000
 21
-0.5000
 31
0.0000
 12
-0.5000
 22
0.5000
 32
0.0000
 13
0.5000
 23
0.5000
 33
0.0000
  0
ENDBLK
  8
0
  0
BLOCK
  8
0
  2
ROUNDP
 70
64
 10
0.0000
 20
0.0000
 30
0.0000
  3
ROUNDP
  0
CIRCLE
  8
0
 10
0.0000
 20
0.0000
 30
0.0000
 40
0.5000
  0
ENDBLK
  8
0
  0
BLOCK
  8
0
  2
ANNULUSP
 70
64
 10
0.0000
 20
0.0000
 30
0.0000
  3
ANNULUSP
  0
CIRCLE
  8
0
 10
0.0000
 20
0.0000
 30
0.0000
 40
0.5000
  0
ENDBLK
  8
0
  0
BLOCK
  8
0
  2
THERMALP
 70
64
 10
0.0000
 20
0.0000
 30
0.0000
  3
THERMALP
  0
POLYLINE
  8
0
 66
1
 10
0.0000
 20
0.0000
 30
0.0000
 40
0.0000
 41
0.0000
 70
1
  0
VERTEX
  8
0
 10
-0.2379
 20
0.4000
 30
0.0000
  0
VERTEX
  8
0
 10
0.2379
 20
0.4000
 30
0.0000
 42
1.0000
  0
VERTEX
  8
0
 10
0.2379
 20
0.5000
 30
0.0000
  0
VERTEX
  8
0
 10
-0.2379
 20
0.5000
 30
0.0000
 42
1.0000
  0
SEQEND
  8
0
  0
POLYLINE
  8
0
 66
1
 10
0.0000
 20
0.0000
 30
0.0000
 40
0.0000
 41
0.0000
 70
1
  0
VERTEX
  8
0
 10
0.4000
 20
0.2379
 30
0.0000
  0
VERTEX
  8
0
 10
0.4000
 20
-0.2379
 30
0.0000
 42
1.0000
  0
VERTEX
  8
0
 10
0.5000
 20
-0.2379
 30
0.0000
  0
VERTEX
  8
0
 10
0.5000
 20
0.2379
 30
0.0000
 42
1.0000
  0
SEQEND
  8
0
  0
POLYLINE
  8
0
 66
1
 10
0.0000
 20
0.0000
 30
0.0000
 40
0.0000
 41
0.0000
 70
1
  0
VERTEX
  8
0
 10
0.2379
 20
-0.4000
 30
0.0000
  0
VERTEX
  8
0
 10
-0.2379
 20
-0.4000
 30
0.0000
 42
1.0000
  0
VERTEX
  8
0
 10
-0.2379
 20
-0.5000
 30
0.0000
  0
VERTEX
  8
0
 10
0.2379
 20
-0.5000
 30
0.0000
 42
1.0000
  0
SEQEND
  8
0
  0
POLYLINE
  8
0
 66
1
 10
0.0000
 20
0.0000
 30
0.0000
 40
0.0000
 41
0.0000
 70
1
  0
VERTEX
  8
0
 10
-0.4000
 20
-0.2379
 30
0.0000
  0
VERTEX
  8
0
 10
-0.4000
 20
0.2379
 30
0.0000
 42
1.0000
  0
VERTEX
  8
0
 10
-0.5000
 20
0.2379
 30
0.0000
  0
VERTEX
  8
0
 10
-0.5000
 20
-0.2379
 30
0.0000
 42
1.0000
  0
SEQEND
  8
0
  0
ENDBLK
  8
0
  0
BLOCK
  8
0
  2
OCTAGONV
 70
64
 10
0.0000
 20
0.0000
 30
0.0000
  3
OCTAGONV
  0
POLYLINE
  8
0
 66
1
 10
0.0000
 20
0.0000
 30
0.0000
 40
0.0000
 41
0.0000
 70
1
  0
VERTEX
  8
0
 10
-0.5000
 20
-0.2071
 30
0.0000
  0
VERTEX
  8
0
 10
-0.5000
 20
0.2071
 30
0.0000
  0
VERTEX
  8
0
 10
-0.2071
 20
0.5000
 30
0.0000
  0
VERTEX
  8
0
 10
0.2071
 20
0.5000
 30
0.0000
  0
VERTEX
  8
0
 10
0.5000
 20
0.2071
 30
0.0000
  0
VERTEX
  8
0
 10
0.5000
 20
-0.2071
 30
0.0000
  0
VERTEX
  8
0
 10
0.2071
 20
-0.5000
 30
0.0000
  0
VERTEX
  8
0
 10
-0.2071
 20
-0.5000
 30
0.0000
  0
SEQEND
  8
0
  0
ENDBLK
  8
0
  0
BLOCK
  8
0
  2
SQUAREV
 70
64
 10
0.0000
 20
0.0000
 30
0.0000
  3
SQUAREV
  0
SOLID
  8
0
 10
-0.5000
 20
-0.5000
 30
0.0000
 11
0.5000
 21
-0.5000
 31
0.0000
 12
-0.5000
 22
0.5000
 32
0.0000
 13
0.5000
 23
0.5000
 33
0.0000
  0
ENDBLK
  8
0
  0
BLOCK
  8
0
  2
ROUNDV
 70
64
 10
0.0000
 20
0.0000
 30
0.0000
  3
ROUNDV
  0
CIRCLE
  8
0
 10
0.0000
 20
0.0000
 30
0.0000
 40
0.5000
  0
ENDBLK
  8
0
  0
BLOCK
  8
0
  2
ANNULUSV
 70
64
 10
0.0000
 20
0.0000
 30
0.0000
  3
ANNULUSV
  0
CIRCLE
  8
0
 10
0.0000
 20
0.0000
 30
0.0000
 40
0.5000
  0
ENDBLK
  8
0
  0
BLOCK
  8
0
  2
THERMALV
 70
64
 10
0.0000
 20
0.0000
 30
0.0000
  3
THERMALV
  0
POLYLINE
  8
0
 66
1
 10
0.0000
 20
0.0000
 30
0.0000
 40
0.0000
 41
0.0000
 70
1
  0
VERTEX
  8
0
 10
-0.2379
 20
0.4000
 30
0.0000
  0
VERTEX
  8
0
 10
0.2379
 20
0.4000
 30
0.0000
 42
1.0000
  0
VERTEX
  8
0
 10
0.2379
 20
0.5000
 30
0.0000
  0
VERTEX
  8
0
 10
-0.2379
 20
0.5000
 30
0.0000
 42
1.0000
  0
SEQEND
  8
0
  0
POLYLINE
  8
0
 66
1
 10
0.0000
 20
0.0000
 30
0.0000
 40
0.0000
 41
0.0000
 70
1
  0
VERTEX
  8
0
 10
0.4000
 20
0.2379
 30
0.0000
  0
VERTEX
  8
0
 10
0.4000
 20
-0.2379
 30
0.0000
 42
1.0000
  0
VERTEX
  8
0
 10
0.5000
 20
-0.2379
 30
0.0000
  0
VERTEX
  8
0
 10
0.5000
 20
0.2379
 30
0.0000
 42
1.0000
  0
SEQEND
  8
0
  0
POLYLINE
  8
0
 66
1
 10
0.0000
 20
0.0000
 30
0.0000
 40
0.0000
 41
0.0000
 70
1
  0
VERTEX
  8
0
 10
0.2379
 20
-0.4000
 30
0.0000
  0
VERTEX
  8
0
 10
-0.2379
 20
-0.4000
 30
0.0000
 42
1.0000
  0
VERTEX
  8
0
 10
-0.2379
 20
-0.5000
 30
0.0000
  0
VERTEX
  8
0
 10
0.2379
 20
-0.5000
 30
0.0000
 42
1.0000
  0
SEQEND
  8
0
  0
POLYLINE
  8
0
 66
1
 10
0.0000
 20
0.0000
 30
0.0000
 40
0.0000
 41
0.0000
 70
1
  0
VERTEX
  8
0
 10
-0.4000
 20
-0.2379
 30
0.0000
  0
VERTEX
  8
0
 10
-0.4000
 20
0.2379
 30
0.0000
 42
1.0000
  0
VERTEX
  8
0
 10
-0.5000
 20
0.2379
 30
0.0000
  0
VERTEX
  8
0
 10
-0.5000
 20
-0.2379
 30
0.0000
 42
1.0000
  0
SEQEND
  8
0
  0
ENDBLK
  8
0
  0
BLOCK
  8
0
  2
LONGP100
 70
64
 10
0.0000
 20
0.0000
 30
0.0000
  3
LONGP100
  0
POLYLINE
  8
0
 66
1
 10
0.0000
 20
0.0000
 30
0.0000
 40
0.0000
 41
0.0000
 70
1
  0
VERTEX
  8
0
 10
-0.5000
 20
-0.5000
 30
0.0000
  0
VERTEX
  8
0
 10
0.5000
 20
-0.5000
 30
0.0000
 42
1.0000
  0
VERTEX
  8
0
 10
0.5000
 20
0.5000
 30
0.0000
  0
VERTEX
  8
0
 10
-0.5000
 20
0.5000
 30
0.0000
 42
1.0000
  0
SEQEND
  8
0
  0
ENDBLK
  8
0
  0
ENDSEC
  0
SECTION
  2
ENTITIES
  0
LINE
  8
20
 10
485.0000
 20
0.0000
 30
0.0000
 11
485.0000
 21
130.0000
 31
0.0000
  0
LINE
  8
20
 10
485.0000
 20
130.0000
 30
0.0000
 11
0.0000
 21
130.0000
 31
0.0000
  0
LINE
  8
20
 10
0.0000
 20
130.0000
 30
0.0000
 11
0.0000
 21
0.0000
 31
0.0000
  0
LINE
  8
20
 10
0.0000
 20
0.0000
 30
0.0000
 11
485.0000
 21
0.0000
 31
0.0000
  0
CIRCLE
  8
20
 10
5.0000
 20
125.0000
 30
0.0000
 40
1.5000
  0
CIRCLE
  8
20
 10
5.0000
 20
5.0000
 30
0.0000
 40
1.5000
  0
CIRCLE
  8
20
 10
480.0000
 20
125.0000
 30
0.0000
 40
1.5000
  0
CIRCLE
  8
20
 10
480.0000
 20
5.0000
 30
0.0000
 40
1.5000
  0
CIRCLE
  8
20
 10
265.0000
 20
125.0000
 30
0.0000
 40
1.5000
  0
CIRCLE
  8
20
 10
285.0000
 20
5.0000
 30
0.0000
 40
1.5000
  0
CIRCLE
  8
20
 10
265.0000
 20
5.0000
 30
0.0000
 40
1.5000
  0
CIRCLE
  8
20
 10
215.0000
 20
5.0000
 30
0.0000
 40
1.5000
  0
CIRCLE
  8
20
 10
165.0000
 20
5.0000
 30
0.0000
 40
1.5000
  0
CIRCLE
  8
20
 10
115.0000
 20
5.0000
 30
0.0000
 40
1.5000
  0
CIRCLE
  8
20
 10
65.0000
 20
5.0000
 30
0.0000
 40
1.5000
  0
CIRCLE
  8
20
 10
65.0000
 20
125.0000
 30
0.0000
 40
1.5000
  0
CIRCLE
  8
20
 10
115.0000
 20
125.0000
 30
0.0000
 40
1.5000
  0
CIRCLE
  8
20
 10
165.0000
 20
125.0000
 30
0.0000
 40
1.5000
  0
CIRCLE
  8
20
 10
215.0000
 20
125.0000
 30
0.0000
 40
1.5000
  0
CIRCLE
  8
20
 10
65.0000
 20
65.0000
 30
0.0000
 40
1.5000
  0
CIRCLE
  8
20
 10
115.0000
 20
65.0000
 30
0.0000
 40
1.5000
  0
CIRCLE
  8
20
 10
165.0000
 20
65.0000
 30
0.0000
 40
1.5000
  0
CIRCLE
  8
20
 10
215.0000
 20
65.0000
 30
0.0000
 40
1.5000
  0
CIRCLE
  8
20
 10
5.0000
 20
65.0000
 30
0.0000
 40
1.5000
  0
CIRCLE
  8
20
 10
290.0000
 20
60.0000
 30
0.0000
 40
1.5000
  0
CIRCLE
  8
20
 10
10.0000
 20
18.0000
 30
0.0000
 40
3.2500
  0
CIRCLE
  8
20
 10
35.0000
 20
18.0000
 30
0.0000
 40
3.2500
  0
CIRCLE
  8
20
 10
325.0000
 20
110.0000
 30
0.0000
 40
1.5000
  0
CIRCLE
  8
20
 10
385.0000
 20
5.0000
 30
0.0000
 40
1.5000
  0
CIRCLE
  8
20
 10
370.0000
 20
110.0000
 30
0.0000
 40
1.5000
  0
CIRCLE
  8
20
 10
415.0000
 20
5.0000
 30
0.0000
 40
1.5000
  0
CIRCLE
  8
20
 10
385.0000
 20
110.0000
 30
0.0000
 40
1.5000
  0
CIRCLE
  8
20
 10
50.0000
 20
65.0000
 30
0.0000
 40
1.5000
  0
CIRCLE
  8
20
 10
90.0000
 20
65.0000
 30
0.0000
 40
1.5000
  0
CIRCLE
  8
20
 10
130.0000
 20
65.0000
 30
0.0000
 40
1.5000
  0
CIRCLE
  8
20
 10
170.0000
 20
65.0000
 30
0.0000
 40
1.5000
  0
CIRCLE
  8
20
 10
210.0000
 20
65.0000
 30
0.0000
 40
1.5000
  0
CIRCLE
  8
20
 10
250.0000
 20
65.0000
 30
0.0000
 40
1.5000
  0
CIRCLE
  8
20
 10
435.0000
 20
95.0000
 30
0.0000
 40
1.5000
  0
CIRCLE
  8
20
 10
415.0000
 20
50.0000
 30
0.0000
 40
1.5000
  0
CIRCLE
  8
20
 10
385.0000
 20
50.0000
 30
0.0000
 40
1.5000
  0
CIRCLE
  8
20
 10
460.0000
 20
50.0000
 30
0.0000
 40
1.5000
  0
CIRCLE
  8
20
 10
10.0000
 20
118.0000
 30
0.0000
 40
3.2500
  0
CIRCLE
  8
20
 10
35.0000
 20
119.6000
 30
0.0000
 40
3.2500
  0
CIRCLE
  8
20
 10
238.2000
 20
119.6000
 30
0.0000
 40
3.2500
  0
CIRCLE
  8
20
 10
466.8000
 20
18.0000
 30
0.0000
 40
3.2500
  0
CIRCLE
  8
20
 10
235.0000
 20
18.0000
 30
0.0000
 40
3.2500
  0
CIRCLE
  8
20
 10
435.0000
 20
18.0000
 30
0.0000
 40
3.2500
  0
CIRCLE
  8
20
 10
365.0000
 20
50.0000
 30
0.0000
 40
1.5000
  0
CIRCLE
  8
20
 10
340.0000
 20
85.0000
 30
0.0000
 40
1.5000
  0
CIRCLE
  8
20
 10
340.0000
 20
5.0000
 30
0.0000
 40
1.5000
  0
INSERT
  8
17
  2
OCTAGONP
 10
340.7300
 20
74.5000
 30
0.0000
 41
1.2192
 42
1.2192
 43
1.0000
 50
0.0000
  0
INSERT
  8
17
  2
OCTAGONP
 10
340.7300
 20
74.5000
 30
0.0000
 41
1.2192
 42
1.2192
 43
1.0000
 50
0.0000
  0
CIRCLE
  8
44
 10
340.7300
 20
74.5000
 30
0.0000
 40
0.4064
  0
INSERT
  8
17
  2
OCTAGONP
 10
343.2700
 20
74.5000
 30
0.0000
 41
1.2192
 42
1.2192
 43
1.0000
 50
0.0000
  0
INSERT
  8
17
  2
OCTAGONP
 10
343.2700
 20
74.5000
 30
0.0000
 41
1.2192
 42
1.2192
 43
1.0000
 50
0.0000
  0
CIRCLE
  8
44
 10
343.2700
 20
74.5000
 30
0.0000
 40
0.4064
  0
INSERT
  8
17
  2
OCTAGONP
 10
340.7300
 20
24.5000
 30
0.0000
 41
1.2192
 42
1.2192
 43
1.0000
 50
0.0000
  0
INSERT
  8
17
  2
OCTAGONP
 10
340.7300
 20
24.5000
 30
0.0000
 41
1.2192
 42
1.2192
 43
1.0000
 50
0.0000
  0
CIRCLE
  8
44
 10
340.7300
 20
24.5000
 30
0.0000
 40
0.4064
  0
INSERT
  8
17
  2
OCTAGONP
 10
343.2700
 20
24.5000
 30
0.0000
 41
1.2192
 42
1.2192
 43
1.0000
 50
0.0000
  0
INSERT
  8
17
  2
OCTAGONP
 10
343.2700
 20
24.5000
 30
0.0000
 41
1.2192
 42
1.2192
 43
1.0000
 50
0.0000
  0
CIRCLE
  8
44
 10
343.2700
 20
24.5000
 30
0.0000
 40
0.4064
  0
INSERT
  8
17
  2
OCTAGONP
 10
340.7300
 20
49.5000
 30
0.0000
 41
1.2192
 42
1.2192
 43
1.0000
 50
0.0000
  0
INSERT
  8
17
  2
OCTAGONP
 10
340.7300
 20
49.5000
 30
0.0000
 41
1.2192
 42
1.2192
 43
1.0000
 50
0.0000
  0
CIRCLE
  8
44
 10
340.7300
 20
49.5000
 30
0.0000
 40
0.4064
  0
INSERT
  8
17
  2
OCTAGONP
 10
343.2700
 20
49.5000
 30
0.0000
 41
1.2192
 42
1.2192
 43
1.0000
 50
0.0000
  0
INSERT
  8
17
  2
OCTAGONP
 10
343.2700
 20
49.5000
 30
0.0000
 41
1.2192
 42
1.2192
 43
1.0000
 50
0.0000
  0
CIRCLE
  8
44
 10
343.2700
 20
49.5000
 30
0.0000
 40
0.4064
  0
INSERT
  8
17
  2
OCTAGONP
 10
340.7300
 20
99.5000
 30
0.0000
 41
1.2192
 42
1.2192
 43
1.0000
 50
0.0000
  0
INSERT
  8
17
  2
OCTAGONP
 10
340.7300
 20
99.5000
 30
0.0000
 41
1.2192
 42
1.2192
 43
1.0000
 50
0.0000
  0
CIRCLE
  8
44
 10
340.7300
 20
99.5000
 30
0.0000
 40
0.4064
  0
INSERT
  8
17
  2
OCTAGONP
 10
343.2700
 20
99.5000
 30
0.0000
 41
1.2192
 42
1.2192
 43
1.0000
 50
0.0000
  0
INSERT
  8
17
  2
OCTAGONP
 10
343.2700
 20
99.5000
 30
0.0000
 41
1.2192
 42
1.2192
 43
1.0000
 50
0.0000
  0
CIRCLE
  8
44
 10
343.2700
 20
99.5000
 30
0.0000
 40
0.4064
  0
INSERT
  8
17
  2
ROUNDP
 10
295.0000
 20
20.0000
 30
0.0000
 41
2.3622
 42
2.3622
 43
1.0000
 50
0.0000
  0
INSERT
  8
17
  2
ROUNDP
 10
295.0000
 20
20.0000
 30
0.0000
 41
2.3622
 42
2.3622
 43
1.0000
 50
0.0000
  0
CIRCLE
  8
44
 10
295.0000
 20
20.0000
 30
0.0000
 40
0.7874
  0
INSERT
  8
17
  2
ROUNDP
 10
292.4600
 20
22.5400
 30
0.0000
 41
2.5527
 42
2.5527
 43
1.0000
 50
0.0000
  0
INSERT
  8
17
  2
ROUNDP
 10
292.4600
 20
22.5400
 30
0.0000
 41
2.5527
 42
2.5527
 43
1.0000
 50
0.0000
  0
CIRCLE
  8
44
 10
292.4600
 20
22.5400
 30
0.0000
 40
0.8509
  0
INSERT
  8
17
  2
ROUNDP
 10
297.5400
 20
22.5400
 30
0.0000
 41
2.5527
 42
2.5527
 43
1.0000
 50
0.0000
  0
INSERT
  8
17
  2
ROUNDP
 10
297.5400
 20
22.5400
 30
0.0000
 41
2.5527
 42
2.5527
 43
1.0000
 50
0.0000
  0
CIRCLE
  8
44
 10
297.5400
 20
22.5400
 30
0.0000
 40
0.8509
  0
INSERT
  8
17
  2
ROUNDP
 10
292.4600
 20
17.4600
 30
0.0000
 41
2.5527
 42
2.5527
 43
1.0000
 50
0.0000
  0
INSERT
  8
17
  2
ROUNDP
 10
292.4600
 20
17.4600
 30
0.0000
 41
2.5527
 42
2.5527
 43
1.0000
 50
0.0000
  0
CIRCLE
  8
44
 10
292.4600
 20
17.4600
 30
0.0000
 40
0.8509
  0
INSERT
  8
17
  2
ROUNDP
 10
297.5400
 20
17.4600
 30
0.0000
 41
2.5527
 42
2.5527
 43
1.0000
 50
0.0000
  0
INSERT
  8
17
  2
ROUNDP
 10
297.5400
 20
17.4600
 30
0.0000
 41
2.5527
 42
2.5527
 43
1.0000
 50
0.0000
  0
CIRCLE
  8
44
 10
297.5400
 20
17.4600
 30
0.0000
 40
0.8509
  0
INSERT
  8
17
  2
ROUNDP
 10
295.0000
 20
45.0000
 30
0.0000
 41
2.3622
 42
2.3622
 43
1.0000
 50
0.0000
  0
INSERT
  8
17
  2
ROUNDP
 10
295.0000
 20
45.0000
 30
0.0000
 41
2.3622
 42
2.3622
 43
1.0000
 50
0.0000
  0
CIRCLE
  8
44
 10
295.0000
 20
45.0000
 30
0.0000
 40
0.7874
  0
INSERT
  8
17
  2
ROUNDP
 10
292.4600
 20
47.5400
 30
0.0000
 41
2.5527
 42
2.5527
 43
1.0000
 50
0.0000
  0
INSERT
  8
17
  2
ROUNDP
 10
292.4600
 20
47.5400
 30
0.0000
 41
2.5527
 42
2.5527
 43
1.0000
 50
0.0000
  0
CIRCLE
  8
44
 10
292.4600
 20
47.5400
 30
0.0000
 40
0.8509
  0
INSERT
  8
17
  2
ROUNDP
 10
297.5400
 20
47.5400
 30
0.0000
 41
2.5527
 42
2.5527
 43
1.0000
 50
0.0000
  0
INSERT
  8
17
  2
ROUNDP
 10
297.5400
 20
47.5400
 30
0.0000
 41
2.5527
 42
2.5527
 43
1.0000
 50
0.0000
  0
CIRCLE
  8
44
 10
297.5400
 20
47.5400
 30
0.0000
 40
0.8509
  0
INSERT
  8
17
  2
ROUNDP
 10
292.4600
 20
42.4600
 30
0.0000
 41
2.5527
 42
2.5527
 43
1.0000
 50
0.0000
  0
INSERT
  8
17
  2
ROUNDP
 10
292.4600
 20
42.4600
 30
0.0000
 41
2.5527
 42
2.5527
 43
1.0000
 50
0.0000
  0
CIRCLE
  8
44
 10
292.4600
 20
42.4600
 30
0.0000
 40
0.8509
  0
INSERT
  8
17
  2
ROUNDP
 10
297.5400
 20
42.4600
 30
0.0000
 41
2.5527
 42
2.5527
 43
1.0000
 50
0.0000
  0
INSERT
  8
17
  2
ROUNDP
 10
297.5400
 20
42.4600
 30
0.0000
 41
2.5527
 42
2.5527
 43
1.0000
 50
0.0000
  0
CIRCLE
  8
44
 10
297.5400
 20
42.4600
 30
0.0000
 40
0.8509
  0
INSERT
  8
17
  2
ROUNDP
 10
295.0000
 20
70.0000
 30
0.0000
 41
2.3622
 42
2.3622
 43
1.0000
 50
0.0000
  0
INSERT
  8
17
  2
ROUNDP
 10
295.0000
 20
70.0000
 30
0.0000
 41
2.3622
 42
2.3622
 43
1.0000
 50
0.0000
  0
CIRCLE
  8
44
 10
295.0000
 20
70.0000
 30
0.0000
 40
0.7874
  0
INSERT
  8
17
  2
ROUNDP
 10
292.4600
 20
72.5400
 30
0.0000
 41
2.5527
 42
2.5527
 43
1.0000
 50
0.0000
  0
INSERT
  8
17
  2
ROUNDP
 10
292.4600
 20
72.5400
 30
0.0000
 41
2.5527
 42
2.5527
 43
1.0000
 50
0.0000
  0
CIRCLE
  8
44
 10
292.4600
 20
72.5400
 30
0.0000
 40
0.8509
  0
INSERT
  8
17
  2
ROUNDP
 10
297.5400
 20
72.5400
 30
0.0000
 41
2.5527
 42
2.5527
 43
1.0000
 50
0.0000
  0
INSERT
  8
17
  2
ROUNDP
 10
297.5400
 20
72.5400
 30
0.0000
 41
2.5527
 42
2.5527
 43
1.0000
 50
0.0000
  0
CIRCLE
  8
44
 10
297.5400
 20
72.5400
 30
0.0000
 40
0.8509
  0
INSERT
  8
17
  2
ROUNDP
 10
292.4600
 20
67.4600
 30
0.0000
 41
2.5527
 42
2.5527
 43
1.0000
 50
0.0000
  0
INSERT
  8
17
  2
ROUNDP
 10
292.4600
 20
67.4600
 30
0.0000
 41
2.5527
 42
2.5527
 43
1.0000
 50
0.0000
  0
CIRCLE
  8
44
 10
292.4600
 20
67.4600
 30
0.0000
 40
0.8509
  0
INSERT
  8
17
  2
ROUNDP
 10
297.5400
 20
67.4600
 30
0.0000
 41
2.5527
 42
2.5527
 43
1.0000
 50
0.0000
  0
INSERT
  8
17
  2
ROUNDP
 10
297.5400
 20
67.4600
 30
0.0000
 41
2.5527
 42
2.5527
 43
1.0000
 50
0.0000
  0
CIRCLE
  8
44
 10
297.5400
 20
67.4600
 30
0.0000
 40
0.8509
  0
INSERT
  8
17
  2
ROUNDP
 10
295.0000
 20
95.0000
 30
0.0000
 41
2.3622
 42
2.3622
 43
1.0000
 50
0.0000
  0
INSERT
  8
17
  2
ROUNDP
 10
295.0000
 20
95.0000
 30
0.0000
 41
2.3622
 42
2.3622
 43
1.0000
 50
0.0000
  0
CIRCLE
  8
44
 10
295.0000
 20
95.0000
 30
0.0000
 40
0.7874
  0
INSERT
  8
17
  2
ROUNDP
 10
292.4600
 20
97.5400
 30
0.0000
 41
2.5527
 42
2.5527
 43
1.0000
 50
0.0000
  0
INSERT
  8
17
  2
ROUNDP
 10
292.4600
 20
97.5400
 30
0.0000
 41
2.5527
 42
2.5527
 43
1.0000
 50
0.0000
  0
CIRCLE
  8
44
 10
292.4600
 20
97.5400
 30
0.0000
 40
0.8509
  0
INSERT
  8
17
  2
ROUNDP
 10
297.5400
 20
97.5400
 30
0.0000
 41
2.5527
 42
2.5527
 43
1.0000
 50
0.0000
  0
INSERT
  8
17
  2
ROUNDP
 10
297.5400
 20
97.5400
 30
0.0000
 41
2.5527
 42
2.5527
 43
1.0000
 50
0.0000
  0
CIRCLE
  8
44
 10
297.5400
 20
97.5400
 30
0.0000
 40
0.8509
  0
INSERT
  8
17
  2
ROUNDP
 10
292.4600
 20
92.4600
 30
0.0000
 41
2.5527
 42
2.5527
 43
1.0000
 50
0.0000
  0
INSERT
  8
17
  2
ROUNDP
 10
292.4600
 20
92.4600
 30
0.0000
 41
2.5527
 42
2.5527
 43
1.0000
 50
0.0000
  0
CIRCLE
  8
44
 10
292.4600
 20
92.4600
 30
0.0000
 40
0.8509
  0
INSERT
  8
17
  2
ROUNDP
 10
297.5400
 20
92.4600
 30
0.0000
 41
2.5527
 42
2.5527
 43
1.0000
 50
0.0000
  0
INSERT
  8
17
  2
ROUNDP
 10
297.5400
 20
92.4600
 30
0.0000
 41
2.5527
 42
2.5527
 43
1.0000
 50
0.0000
  0
CIRCLE
  8
44
 10
297.5400
 20
92.4600
 30
0.0000
 40
0.8509
  0
INSERT
  8
17
  2
ROUNDP
 10
478.7300
 20
31.2700
 30
0.0000
 41
1.2000
 42
1.2000
 43
1.0000
 50
0.0000
  0
INSERT
  8
17
  2
ROUNDP
 10
478.7300
 20
31.2700
 30
0.0000
 41
1.2000
 42
1.2000
 43
1.0000
 50
0.0000
  0
CIRCLE
  8
44
 10
478.7300
 20
31.2700
 30
0.0000
 40
0.4000
  0
INSERT
  8
17
  2
ROUNDP
 10
478.7300
 20
28.7300
 30
0.0000
 41
1.2000
 42
1.2000
 43
1.0000
 50
0.0000
  0
INSERT
  8
17
  2
ROUNDP
 10
478.7300
 20
28.7300
 30
0.0000
 41
1.2000
 42
1.2000
 43
1.0000
 50
0.0000
  0
CIRCLE
  8
44
 10
478.7300
 20
28.7300
 30
0.0000
 40
0.4000
  0
INSERT
  8
17
  2
ROUNDP
 10
481.2700
 20
28.7300
 30
0.0000
 41
1.2000
 42
1.2000
 43
1.0000
 50
0.0000
  0
INSERT
  8
17
  2
ROUNDP
 10
481.2700
 20
28.7300
 30
0.0000
 41
1.2000
 42
1.2000
 43
1.0000
 50
0.0000
  0
CIRCLE
  8
44
 10
481.2700
 20
28.7300
 30
0.0000
 40
0.4000
  0
INSERT
  8
17
  2
ROUNDP
 10
481.2700
 20
31.2700
 30
0.0000
 41
1.2000
 42
1.2000
 43
1.0000
 50
0.0000
  0
INSERT
  8
17
  2
ROUNDP
 10
481.2700
 20
31.2700
 30
0.0000
 41
1.2000
 42
1.2000
 43
1.0000
 50
0.0000
  0
CIRCLE
  8
44
 10
481.2700
 20
31.2700
 30
0.0000
 40
0.4000
  0
INSERT
  8
17
  2
ROUNDP
 10
480.0000
 20
30.0000
 30
0.0000
 41
1.2000
 42
1.2000
 43
1.0000
 50
0.0000
  0
INSERT
  8
17
  2
ROUNDP
 10
480.0000
 20
30.0000
 30
0.0000
 41
1.2000
 42
1.2000
 43
1.0000
 50
0.0000
  0
CIRCLE
  8
44
 10
480.0000
 20
30.0000
 30
0.0000
 40
0.4000
  0
INSERT
  8
17
  2
ROUNDP
 10
478.7300
 20
36.2700
 30
0.0000
 41
1.2000
 42
1.2000
 43
1.0000
 50
0.0000
  0
INSERT
  8
17
  2
ROUNDP
 10
478.7300
 20
36.2700
 30
0.0000
 41
1.2000
 42
1.2000
 43
1.0000
 50
0.0000
  0
CIRCLE
  8
44
 10
478.7300
 20
36.2700
 30
0.0000
 40
0.4000
  0
INSERT
  8
17
  2
ROUNDP
 10
478.7300
 20
33.7300
 30
0.0000
 41
1.2000
 42
1.2000
 43
1.0000
 50
0.0000
  0
INSERT
  8
17
  2
ROUNDP
 10
478.7300
 20
33.7300
 30
0.0000
 41
1.2000
 42
1.2000
 43
1.0000
 50
0.0000
  0
CIRCLE
  8
44
 10
478.7300
 20
33.7300
 30
0.0000
 40
0.4000
  0
INSERT
  8
17
  2
ROUNDP
 10
481.2700
 20
33.7300
 30
0.0000
 41
1.2000
 42
1.2000
 43
1.0000
 50
0.0000
  0
INSERT
  8
17
  2
ROUNDP
 10
481.2700
 20
33.7300
 30
0.0000
 41
1.2000
 42
1.2000
 43
1.0000
 50
0.0000
  0
CIRCLE
  8
44
 10
481.2700
 20
33.7300
 30
0.0000
 40
0.4000
  0
INSERT
  8
17
  2
ROUNDP
 10
481.2700
 20
36.2700
 30
0.0000
 41
1.2000
 42
1.2000
 43
1.0000
 50
0.0000
  0
INSERT
  8
17
  2
ROUNDP
 10
481.2700
 20
36.2700
 30
0.0000
 41
1.2000
 42
1.2000
 43
1.0000
 50
0.0000
  0
CIRCLE
  8
44
 10
481.2700
 20
36.2700
 30
0.0000
 40
0.4000
  0
INSERT
  8
17
  2
ROUNDP
 10
480.0000
 20
35.0000
 30
0.0000
 41
1.2000
 42
1.2000
 43
1.0000
 50
0.0000
  0
INSERT
  8
17
  2
ROUNDP
 10
480.0000
 20
35.0000
 30
0.0000
 41
1.2000
 42
1.2000
 43
1.0000
 50
0.0000
  0
CIRCLE
  8
44
 10
480.0000
 20
35.0000
 30
0.0000
 40
0.4000
  0
INSERT
  8
17
  2
ROUNDP
 10
478.7300
 20
41.2700
 30
0.0000
 41
1.2000
 42
1.2000
 43
1.0000
 50
0.0000
  0
INSERT
  8
17
  2
ROUNDP
 10
478.7300
 20
41.2700
 30
0.0000
 41
1.2000
 42
1.2000
 43
1.0000
 50
0.0000
  0
CIRCLE
  8
44
 10
478.7300
 20
41.2700
 30
0.0000
 40
0.4000
  0
INSERT
  8
17
  2
ROUNDP
 10
478.7300
 20
38.7300
 30
0.0000
 41
1.2000
 42
1.2000
 43
1.0000
 50
0.0000
  0
INSERT
  8
17
  2
ROUNDP
 10
478.7300
 20
38.7300
 30
0.0000
 41
1.2000
 42
1.2000
 43
1.0000
 50
0.0000
  0
CIRCLE
  8
44
 10
478.7300
 20
38.7300
 30
0.0000
 40
0.4000
  0
INSERT
  8
17
  2
ROUNDP
 10
481.2700
 20
38.7300
 30
0.0000
 41
1.2000
 42
1.2000
 43
1.0000
 50
0.0000
  0
INSERT
  8
17
  2
ROUNDP
 10
481.2700
 20
38.7300
 30
0.0000
 41
1.2000
 42
1.2000
 43
1.0000
 50
0.0000
  0
CIRCLE
  8
44
 10
481.2700
 20
38.7300
 30
0.0000
 40
0.4000
  0
INSERT
  8
17
  2
ROUNDP
 10
481.2700
 20
41.2700
 30
0.0000
 41
1.2000
 42
1.2000
 43
1.0000
 50
0.0000
  0
INSERT
  8
17
  2
ROUNDP
 10
481.2700
 20
41.2700
 30
0.0000
 41
1.2000
 42
1.2000
 43
1.0000
 50
0.0000
  0
CIRCLE
  8
44
 10
481.2700
 20
41.2700
 30
0.0000
 40
0.4000
  0
INSERT
  8
17
  2
ROUNDP
 10
480.0000
 20
40.0000
 30
0.0000
 41
1.2000
 42
1.2000
 43
1.0000
 50
0.0000
  0
INSERT
  8
17
  2
ROUNDP
 10
480.0000
 20
40.0000
 30
0.0000
 41
1.2000
 42
1.2000
 43
1.0000
 50
0.0000
  0
CIRCLE
  8
44
 10
480.0000
 20
40.0000
 30
0.0000
 40
0.4000
  0
INSERT
  8
17
  2
ROUNDP
 10
478.7300
 20
46.2700
 30
0.0000
 41
1.2000
 42
1.2000
 43
1.0000
 50
0.0000
  0
INSERT
  8
17
  2
ROUNDP
 10
478.7300
 20
46.2700
 30
0.0000
 41
1.2000
 42
1.2000
 43
1.0000
 50
0.0000
  0
CIRCLE
  8
44
 10
478.7300
 20
46.2700
 30
0.0000
 40
0.4000
  0
INSERT
  8
17
  2
ROUNDP
 10
478.7300
 20
43.7300
 30
0.0000
 41
1.2000
 42
1.2000
 43
1.0000
 50
0.0000
  0
INSERT
  8
17
  2
ROUNDP
 10
478.7300
 20
43.7300
 30
0.0000
 41
1.2000
 42
1.2000
 43
1.0000
 50
0.0000
  0
CIRCLE
  8
44
 10
478.7300
 20
43.7300
 30
0.0000
 40
0.4000
  0
INSERT
  8
17
  2
ROUNDP
 10
481.2700
 20
43.7300
 30
0.0000
 41
1.2000
 42
1.2000
 43
1.0000
 50
0.0000
  0
INSERT
  8
17
  2
ROUNDP
 10
481.2700
 20
43.7300
 30
0.0000
 41
1.2000
 42
1.2000
 43
1.0000
 50
0.0000
  0
CIRCLE
  8
44
 10
481.2700
 20
43.7300
 30
0.0000
 40
0.4000
  0
INSERT
  8
17
  2
ROUNDP
 10
481.2700
 20
46.2700
 30
0.0000
 41
1.2000
 42
1.2000
 43
1.0000
 50
0.0000
  0
INSERT
  8
17
  2
ROUNDP
 10
481.2700
 20
46.2700
 30
0.0000
 41
1.2000
 42
1.2000
 43
1.0000
 50
0.0000
  0
CIRCLE
  8
44
 10
481.2700
 20
46.2700
 30
0.0000
 40
0.4000
  0
INSERT
  8
17
  2
ROUNDP
 10
480.0000
 20
45.0000
 30
0.0000
 41
1.2000
 42
1.2000
 43
1.0000
 50
0.0000
  0
INSERT
  8
17
  2
ROUNDP
 10
480.0000
 20
45.0000
 30
0.0000
 41
1.2000
 42
1.2000
 43
1.0000
 50
0.0000
  0
CIRCLE
  8
44
 10
480.0000
 20
45.0000
 30
0.0000
 40
0.4000
  0
INSERT
  8
17
  2
ROUNDP
 10
30.0000
 20
90.0000
 30
0.0000
 41
1.3500
 42
1.3500
 43
1.0000
 50
0.0000
  0
INSERT
  8
17
  2
ROUNDP
 10
30.0000
 20
90.0000
 30
0.0000
 41
1.3500
 42
1.3500
 43
1.0000
 50
0.0000
  0
CIRCLE
  8
44
 10
30.0000
 20
90.0000
 30
0.0000
 40
0.4500
  0
INSERT
  8
17
  2
ROUNDP
 10
33.4300
 20
93.4300
 30
0.0000
 41
2.4000
 42
2.4000
 43
1.0000
 50
0.0000
  0
INSERT
  8
17
  2
ROUNDP
 10
33.4300
 20
93.4300
 30
0.0000
 41
2.4000
 42
2.4000
 43
1.0000
 50
0.0000
  0
CIRCLE
  8
44
 10
33.4300
 20
93.4300
 30
0.0000
 40
0.8000
  0
INSERT
  8
17
  2
ROUNDP
 10
26.5700
 20
93.4300
 30
0.0000
 41
2.4000
 42
2.4000
 43
1.0000
 50
0.0000
  0
INSERT
  8
17
  2
ROUNDP
 10
26.5700
 20
93.4300
 30
0.0000
 41
2.4000
 42
2.4000
 43
1.0000
 50
0.0000
  0
CIRCLE
  8
44
 10
26.5700
 20
93.4300
 30
0.0000
 40
0.8000
  0
INSERT
  8
17
  2
ROUNDP
 10
26.5700
 20
86.5700
 30
0.0000
 41
2.4000
 42
2.4000
 43
1.0000
 50
0.0000
  0
INSERT
  8
17
  2
ROUNDP
 10
26.5700
 20
86.5700
 30
0.0000
 41
2.4000
 42
2.4000
 43
1.0000
 50
0.0000
  0
CIRCLE
  8
44
 10
26.5700
 20
86.5700
 30
0.0000
 40
0.8000
  0
INSERT
  8
17
  2
ROUNDP
 10
33.4300
 20
86.5700
 30
0.0000
 41
2.4000
 42
2.4000
 43
1.0000
 50
0.0000
  0
INSERT
  8
17
  2
ROUNDP
 10
33.4300
 20
86.5700
 30
0.0000
 41
2.4000
 42
2.4000
 43
1.0000
 50
0.0000
  0
CIRCLE
  8
44
 10
33.4300
 20
86.5700
 30
0.0000
 40
0.8000
  0
INSERT
  8
17
  2
ROUNDP
 10
50.0000
 20
40.0000
 30
0.0000
 41
1.3500
 42
1.3500
 43
1.0000
 50
0.0000
  0
INSERT
  8
17
  2
ROUNDP
 10
50.0000
 20
40.0000
 30
0.0000
 41
1.3500
 42
1.3500
 43
1.0000
 50
0.0000
  0
CIRCLE
  8
44
 10
50.0000
 20
40.0000
 30
0.0000
 40
0.4500
  0
INSERT
  8
17
  2
ROUNDP
 10
53.4300
 20
43.4300
 30
0.0000
 41
2.4000
 42
2.4000
 43
1.0000
 50
0.0000
  0
INSERT
  8
17
  2
ROUNDP
 10
53.4300
 20
43.4300
 30
0.0000
 41
2.4000
 42
2.4000
 43
1.0000
 50
0.0000
  0
CIRCLE
  8
44
 10
53.4300
 20
43.4300
 30
0.0000
 40
0.8000
  0
INSERT
  8
17
  2
ROUNDP
 10
46.5700
 20
43.4300
 30
0.0000
 41
2.4000
 42
2.4000
 43
1.0000
 50
0.0000
  0
INSERT
  8
17
  2
ROUNDP
 10
46.5700
 20
43.4300
 30
0.0000
 41
2.4000
 42
2.4000
 43
1.0000
 50
0.0000
  0
CIRCLE
  8
44
 10
46.5700
 20
43.4300
 30
0.0000
 40
0.8000
  0
INSERT
  8
17
  2
ROUNDP
 10
46.5700
 20
36.5700
 30
0.0000
 41
2.4000
 42
2.4000
 43
1.0000
 50
0.0000
  0
INSERT
  8
17
  2
ROUNDP
 10
46.5700
 20
36.5700
 30
0.0000
 41
2.4000
 42
2.4000
 43
1.0000
 50
0.0000
  0
CIRCLE
  8
44
 10
46.5700
 20
36.5700
 30
0.0000
 40
0.8000
  0
INSERT
  8
17
  2
ROUNDP
 10
53.4300
 20
36.5700
 30
0.0000
 41
2.4000
 42
2.4000
 43
1.0000
 50
0.0000
  0
INSERT
  8
17
  2
ROUNDP
 10
53.4300
 20
36.5700
 30
0.0000
 41
2.4000
 42
2.4000
 43
1.0000
 50
0.0000
  0
CIRCLE
  8
44
 10
53.4300
 20
36.5700
 30
0.0000
 40
0.8000
  0
INSERT
  8
17
  2
ROUNDP
 10
70.0000
 20
90.0000
 30
0.0000
 41
1.3500
 42
1.3500
 43
1.0000
 50
0.0000
  0
INSERT
  8
17
  2
ROUNDP
 10
70.0000
 20
90.0000
 30
0.0000
 41
1.3500
 42
1.3500
 43
1.0000
 50
0.0000
  0
CIRCLE
  8
44
 10
70.0000
 20
90.0000
 30
0.0000
 40
0.4500
  0
INSERT
  8
17
  2
ROUNDP
 10
73.4300
 20
93.4300
 30
0.0000
 41
2.4000
 42
2.4000
 43
1.0000
 50
0.0000
  0
INSERT
  8
17
  2
ROUNDP
 10
73.4300
 20
93.4300
 30
0.0000
 41
2.4000
 42
2.4000
 43
1.0000
 50
0.0000
  0
CIRCLE
  8
44
 10
73.4300
 20
93.4300
 30
0.0000
 40
0.8000
  0
INSERT
  8
17
  2
ROUNDP
 10
66.5700
 20
93.4300
 30
0.0000
 41
2.4000
 42
2.4000
 43
1.0000
 50
0.0000
  0
INSERT
  8
17
  2
ROUNDP
 10
66.5700
 20
93.4300
 30
0.0000
 41
2.4000
 42
2.4000
 43
1.0000
 50
0.0000
  0
CIRCLE
  8
44
 10
66.5700
 20
93.4300
 30
0.0000
 40
0.8000
  0
INSERT
  8
17
  2
ROUNDP
 10
66.5700
 20
86.5700
 30
0.0000
 41
2.4000
 42
2.4000
 43
1.0000
 50
0.0000
  0
INSERT
  8
17
  2
ROUNDP
 10
66.5700
 20
86.5700
 30
0.0000
 41
2.4000
 42
2.4000
 43
1.0000
 50
0.0000
  0
CIRCLE
  8
44
 10
66.5700
 20
86.5700
 30
0.0000
 40
0.8000
  0
INSERT
  8
17
  2
ROUNDP
 10
73.4300
 20
86.5700
 30
0.0000
 41
2.4000
 42
2.4000
 43
1.0000
 50
0.0000
  0
INSERT
  8
17
  2
ROUNDP
 10
73.4300
 20
86.5700
 30
0.0000
 41
2.4000
 42
2.4000
 43
1.0000
 50
0.0000
  0
CIRCLE
  8
44
 10
73.4300
 20
86.5700
 30
0.0000
 40
0.8000
  0
INSERT
  8
17
  2
ROUNDP
 10
90.0000
 20
40.0000
 30
0.0000
 41
1.3500
 42
1.3500
 43
1.0000
 50
0.0000
  0
INSERT
  8
17
  2
ROUNDP
 10
90.0000
 20
40.0000
 30
0.0000
 41
1.3500
 42
1.3500
 43
1.0000
 50
0.0000
  0
CIRCLE
  8
44
 10
90.0000
 20
40.0000
 30
0.0000
 40
0.4500
  0
INSERT
  8
17
  2
ROUNDP
 10
93.4300
 20
43.4300
 30
0.0000
 41
2.4000
 42
2.4000
 43
1.0000
 50
0.0000
  0
INSERT
  8
17
  2
ROUNDP
 10
93.4300
 20
43.4300
 30
0.0000
 41
2.4000
 42
2.4000
 43
1.0000
 50
0.0000
  0
CIRCLE
  8
44
 10
93.4300
 20
43.4300
 30
0.0000
 40
0.8000
  0
INSERT
  8
17
  2
ROUNDP
 10
86.5700
 20
43.4300
 30
0.0000
 41
2.4000
 42
2.4000
 43
1.0000
 50
0.0000
  0
INSERT
  8
17
  2
ROUNDP
 10
86.5700
 20
43.4300
 30
0.0000
 41
2.4000
 42
2.4000
 43
1.0000
 50
0.0000
  0
CIRCLE
  8
44
 10
86.5700
 20
43.4300
 30
0.0000
 40
0.8000
  0
INSERT
  8
17
  2
ROUNDP
 10
86.5700
 20
36.5700
 30
0.0000
 41
2.4000
 42
2.4000
 43
1.0000
 50
0.0000
  0
INSERT
  8
17
  2
ROUNDP
 10
86.5700
 20
36.5700
 30
0.0000
 41
2.4000
 42
2.4000
 43
1.0000
 50
0.0000
  0
CIRCLE
  8
44
 10
86.5700
 20
36.5700
 30
0.0000
 40
0.8000
  0
INSERT
  8
17
  2
ROUNDP
 10
93.4300
 20
36.5700
 30
0.0000
 41
2.4000
 42
2.4000
 43
1.0000
 50
0.0000
  0
INSERT
  8
17
  2
ROUNDP
 10
93.4300
 20
36.5700
 30
0.0000
 41
2.4000
 42
2.4000
 43
1.0000
 50
0.0000
  0
CIRCLE
  8
44
 10
93.4300
 20
36.5700
 30
0.0000
 40
0.8000
  0
INSERT
  8
17
  2
ROUNDP
 10
110.0000
 20
90.0000
 30
0.0000
 41
1.3500
 42
1.3500
 43
1.0000
 50
0.0000
  0
INSERT
  8
17
  2
ROUNDP
 10
110.0000
 20
90.0000
 30
0.0000
 41
1.3500
 42
1.3500
 43
1.0000
 50
0.0000
  0
CIRCLE
  8
44
 10
110.0000
 20
90.0000
 30
0.0000
 40
0.4500
  0
INSERT
  8
17
  2
ROUNDP
 10
113.4300
 20
93.4300
 30
0.0000
 41
2.4000
 42
2.4000
 43
1.0000
 50
0.0000
  0
INSERT
  8
17
  2
ROUNDP
 10
113.4300
 20
93.4300
 30
0.0000
 41
2.4000
 42
2.4000
 43
1.0000
 50
0.0000
  0
CIRCLE
  8
44
 10
113.4300
 20
93.4300
 30
0.0000
 40
0.8000
  0
INSERT
  8
17
  2
ROUNDP
 10
106.5700
 20
93.4300
 30
0.0000
 41
2.4000
 42
2.4000
 43
1.0000
 50
0.0000
  0
INSERT
  8
17
  2
ROUNDP
 10
106.5700
 20
93.4300
 30
0.0000
 41
2.4000
 42
2.4000
 43
1.0000
 50
0.0000
  0
CIRCLE
  8
44
 10
106.5700
 20
93.4300
 30
0.0000
 40
0.8000
  0
INSERT
  8
17
  2
ROUNDP
 10
106.5700
 20
86.5700
 30
0.0000
 41
2.4000
 42
2.4000
 43
1.0000
 50
0.0000
  0
INSERT
  8
17
  2
ROUNDP
 10
106.5700
 20
86.5700
 30
0.0000
 41
2.4000
 42
2.4000
 43
1.0000
 50
0.0000
  0
CIRCLE
  8
44
 10
106.5700
 20
86.5700
 30
0.0000
 40
0.8000
  0
INSERT
  8
17
  2
ROUNDP
 10
113.4300
 20
86.5700
 30
0.0000
 41
2.4000
 42
2.4000
 43
1.0000
 50
0.0000
  0
INSERT
  8
17
  2
ROUNDP
 10
113.4300
 20
86.5700
 30
0.0000
 41
2.4000
 42
2.4000
 43
1.0000
 50
0.0000
  0
CIRCLE
  8
44
 10
113.4300
 20
86.5700
 30
0.0000
 40
0.8000
  0
INSERT
  8
17
  2
ROUNDP
 10
130.0000
 20
40.0000
 30
0.0000
 41
1.3500
 42
1.3500
 43
1.0000
 50
0.0000
  0
INSERT
  8
17
  2
ROUNDP
 10
130.0000
 20
40.0000
 30
0.0000
 41
1.3500
 42
1.3500
 43
1.0000
 50
0.0000
  0
CIRCLE
  8
44
 10
130.0000
 20
40.0000
 30
0.0000
 40
0.4500
  0
INSERT
  8
17
  2
ROUNDP
 10
133.4300
 20
43.4300
 30
0.0000
 41
2.4000
 42
2.4000
 43
1.0000
 50
0.0000
  0
INSERT
  8
17
  2
ROUNDP
 10
133.4300
 20
43.4300
 30
0.0000
 41
2.4000
 42
2.4000
 43
1.0000
 50
0.0000
  0
CIRCLE
  8
44
 10
133.4300
 20
43.4300
 30
0.0000
 40
0.8000
  0
INSERT
  8
17
  2
ROUNDP
 10
126.5700
 20
43.4300
 30
0.0000
 41
2.4000
 42
2.4000
 43
1.0000
 50
0.0000
  0
INSERT
  8
17
  2
ROUNDP
 10
126.5700
 20
43.4300
 30
0.0000
 41
2.4000
 42
2.4000
 43
1.0000
 50
0.0000
  0
CIRCLE
  8
44
 10
126.5700
 20
43.4300
 30
0.0000
 40
0.8000
  0
INSERT
  8
17
  2
ROUNDP
 10
126.5700
 20
36.5700
 30
0.0000
 41
2.4000
 42
2.4000
 43
1.0000
 50
0.0000
  0
INSERT
  8
17
  2
ROUNDP
 10
126.5700
 20
36.5700
 30
0.0000
 41
2.4000
 42
2.4000
 43
1.0000
 50
0.0000
  0
CIRCLE
  8
44
 10
126.5700
 20
36.5700
 30
0.0000
 40
0.8000
  0
INSERT
  8
17
  2
ROUNDP
 10
133.4300
 20
36.5700
 30
0.0000
 41
2.4000
 42
2.4000
 43
1.0000
 50
0.0000
  0
INSERT
  8
17
  2
ROUNDP
 10
133.4300
 20
36.5700
 30
0.0000
 41
2.4000
 42
2.4000
 43
1.0000
 50
0.0000
  0
CIRCLE
  8
44
 10
133.4300
 20
36.5700
 30
0.0000
 40
0.8000
  0
INSERT
  8
17
  2
SQUAREP
 10
320.0000
 20
120.0000
 30
0.0000
 41
1.6500
 42
1.6500
 43
1.0000
 50
0.0000
  0
INSERT
  8
17
  2
SQUAREP
 10
320.0000
 20
120.0000
 30
0.0000
 41
1.6500
 42
1.6500
 43
1.0000
 50
0.0000
  0
CIRCLE
  8
44
 10
320.0000
 20
120.0000
 30
0.0000
 40
0.5500
  0
INSERT
  8
17
  2
OCTAGONP
 10
322.5400
 20
120.0000
 30
0.0000
 41
1.6500
 42
1.6500
 43
1.0000
 50
0.0000
  0
INSERT
  8
17
  2
OCTAGONP
 10
322.5400
 20
120.0000
 30
0.0000
 41
1.6500
 42
1.6500
 43
1.0000
 50
0.0000
  0
CIRCLE
  8
44
 10
322.5400
 20
120.0000
 30
0.0000
 40
0.5500
  0
INSERT
  8
17
  2
OCTAGONP
 10
325.0800
 20
120.0000
 30
0.0000
 41
1.6500
 42
1.6500
 43
1.0000
 50
0.0000
  0
INSERT
  8
17
  2
OCTAGONP
 10
325.0800
 20
120.0000
 30
0.0000
 41
1.6500
 42
1.6500
 43
1.0000
 50
0.0000
  0
CIRCLE
  8
44
 10
325.0800
 20
120.0000
 30
0.0000
 40
0.5500
  0
INSERT
  8
17
  2
OCTAGONP
 10
327.6200
 20
120.0000
 30
0.0000
 41
1.6500
 42
1.6500
 43
1.0000
 50
0.0000
  0
INSERT
  8
17
  2
OCTAGONP
 10
327.6200
 20
120.0000
 30
0.0000
 41
1.6500
 42
1.6500
 43
1.0000
 50
0.0000
  0
CIRCLE
  8
44
 10
327.6200
 20
120.0000
 30
0.0000
 40
0.5500
  0
INSERT
  8
17
  2
OCTAGONP
 10
330.1600
 20
120.0000
 30
0.0000
 41
1.6500
 42
1.6500
 43
1.0000
 50
0.0000
  0
INSERT
  8
17
  2
OCTAGONP
 10
330.1600
 20
120.0000
 30
0.0000
 41
1.6500
 42
1.6500
 43
1.0000
 50
0.0000
  0
CIRCLE
  8
44
 10
330.1600
 20
120.0000
 30
0.0000
 40
0.5500
  0
INSERT
  8
17
  2
OCTAGONP
 10
332.7000
 20
120.0000
 30
0.0000
 41
1.6500
 42
1.6500
 43
1.0000
 50
0.0000
  0
INSERT
  8
17
  2
OCTAGONP
 10
332.7000
 20
120.0000
 30
0.0000
 41
1.6500
 42
1.6500
 43
1.0000
 50
0.0000
  0
CIRCLE
  8
44
 10
332.7000
 20
120.0000
 30
0.0000
 40
0.5500
  0
INSERT
  8
17
  2
OCTAGONP
 10
335.2400
 20
120.0000
 30
0.0000
 41
1.6500
 42
1.6500
 43
1.0000
 50
0.0000
  0
INSERT
  8
17
  2
OCTAGONP
 10
335.2400
 20
120.0000
 30
0.0000
 41
1.6500
 42
1.6500
 43
1.0000
 50
0.0000
  0
CIRCLE
  8
44
 10
335.2400
 20
120.0000
 30
0.0000
 40
0.5500
  0
INSERT
  8
17
  2
OCTAGONP
 10
337.7800
 20
120.0000
 30
0.0000
 41
1.6500
 42
1.6500
 43
1.0000
 50
0.0000
  0
INSERT
  8
17
  2
OCTAGONP
 10
337.7800
 20
120.0000
 30
0.0000
 41
1.6500
 42
1.6500
 43
1.0000
 50
0.0000
  0
CIRCLE
  8
44
 10
337.7800
 20
120.0000
 30
0.0000
 40
0.5500
  0
INSERT
  8
17
  2
OCTAGONP
 10
320.0000
 20
125.0800
 30
0.0000
 41
1.6500
 42
1.6500
 43
1.0000
 50
0.0000
  0
INSERT
  8
17
  2
OCTAGONP
 10
320.0000
 20
125.0800
 30
0.0000
 41
1.6500
 42
1.6500
 43
1.0000
 50
0.0000
  0
CIRCLE
  8
44
 10
320.0000
 20
125.0800
 30
0.0000
 40
0.5500
  0
INSERT
  8
17
  2
OCTAGONP
 10
322.5400
 20
125.0800
 30
0.0000
 41
1.6500
 42
1.6500
 43
1.0000
 50
0.0000
  0
INSERT
  8
17
  2
OCTAGONP
 10
322.5400
 20
125.0800
 30
0.0000
 41
1.6500
 42
1.6500
 43
1.0000
 50
0.0000
  0
CIRCLE
  8
44
 10
322.5400
 20
125.0800
 30
0.0000
 40
0.5500
  0
INSERT
  8
17
  2
OCTAGONP
 10
325.0800
 20
125.0800
 30
0.0000
 41
1.6500
 42
1.6500
 43
1.0000
 50
0.0000
  0
INSERT
  8
17
  2
OCTAGONP
 10
325.0800
 20
125.0800
 30
0.0000
 41
1.6500
 42
1.6500
 43
1.0000
 50
0.0000
  0
CIRCLE
  8
44
 10
325.0800
 20
125.0800
 30
0.0000
 40
0.5500
  0
INSERT
  8
17
  2
OCTAGONP
 10
327.6200
 20
125.0800
 30
0.0000
 41
1.6500
 42
1.6500
 43
1.0000
 50
0.0000
  0
INSERT
  8
17
  2
OCTAGONP
 10
327.6200
 20
125.0800
 30
0.0000
 41
1.6500
 42
1.6500
 43
1.0000
 50
0.0000
  0
CIRCLE
  8
44
 10
327.6200
 20
125.0800
 30
0.0000
 40
0.5500
  0
INSERT
  8
17
  2
OCTAGONP
 10
330.1600
 20
125.0800
 30
0.0000
 41
1.6500
 42
1.6500
 43
1.0000
 50
0.0000
  0
INSERT
  8
17
  2
OCTAGONP
 10
330.1600
 20
125.0800
 30
0.0000
 41
1.6500
 42
1.6500
 43
1.0000
 50
0.0000
  0
CIRCLE
  8
44
 10
330.1600
 20
125.0800
 30
0.0000
 40
0.5500
  0
INSERT
  8
17
  2
OCTAGONP
 10
332.7000
 20
125.0800
 30
0.0000
 41
1.6500
 42
1.6500
 43
1.0000
 50
0.0000
  0
INSERT
  8
17
  2
OCTAGONP
 10
332.7000
 20
125.0800
 30
0.0000
 41
1.6500
 42
1.6500
 43
1.0000
 50
0.0000
  0
CIRCLE
  8
44
 10
332.7000
 20
125.0800
 30
0.0000
 40
0.5500
  0
INSERT
  8
17
  2
OCTAGONP
 10
335.2400
 20
125.0800
 30
0.0000
 41
1.6500
 42
1.6500
 43
1.0000
 50
0.0000
  0
INSERT
  8
17
  2
OCTAGONP
 10
335.2400
 20
125.0800
 30
0.0000
 41
1.6500
 42
1.6500
 43
1.0000
 50
0.0000
  0
CIRCLE
  8
44
 10
335.2400
 20
125.0800
 30
0.0000
 40
0.5500
  0
INSERT
  8
17
  2
OCTAGONP
 10
337.7800
 20
125.0800
 30
0.0000
 41
1.6500
 42
1.6500
 43
1.0000
 50
0.0000
  0
INSERT
  8
17
  2
OCTAGONP
 10
337.7800
 20
125.0800
 30
0.0000
 41
1.6500
 42
1.6500
 43
1.0000
 50
0.0000
  0
CIRCLE
  8
44
 10
337.7800
 20
125.0800
 30
0.0000
 40
0.5500
  0
INSERT
  8
17
  2
ROUNDP
 10
478.7300
 20
21.2700
 30
0.0000
 41
1.2000
 42
1.2000
 43
1.0000
 50
0.0000
  0
INSERT
  8
17
  2
ROUNDP
 10
478.7300
 20
21.2700
 30
0.0000
 41
1.2000
 42
1.2000
 43
1.0000
 50
0.0000
  0
CIRCLE
  8
44
 10
478.7300
 20
21.2700
 30
0.0000
 40
0.4000
  0
INSERT
  8
17
  2
ROUNDP
 10
478.7300
 20
18.7300
 30
0.0000
 41
1.2000
 42
1.2000
 43
1.0000
 50
0.0000
  0
INSERT
  8
17
  2
ROUNDP
 10
478.7300
 20
18.7300
 30
0.0000
 41
1.2000
 42
1.2000
 43
1.0000
 50
0.0000
  0
CIRCLE
  8
44
 10
478.7300
 20
18.7300
 30
0.0000
 40
0.4000
  0
INSERT
  8
17
  2
ROUNDP
 10
481.2700
 20
18.7300
 30
0.0000
 41
1.2000
 42
1.2000
 43
1.0000
 50
0.0000
  0
INSERT
  8
17
  2
ROUNDP
 10
481.2700
 20
18.7300
 30
0.0000
 41
1.2000
 42
1.2000
 43
1.0000
 50
0.0000
  0
CIRCLE
  8
44
 10
481.2700
 20
18.7300
 30
0.0000
 40
0.4000
  0
INSERT
  8
17
  2
ROUNDP
 10
481.2700
 20
21.2700
 30
0.0000
 41
1.2000
 42
1.2000
 43
1.0000
 50
0.0000
  0
INSERT
  8
17
  2
ROUNDP
 10
481.2700
 20
21.2700
 30
0.0000
 41
1.2000
 42
1.2000
 43
1.0000
 50
0.0000
  0
CIRCLE
  8
44
 10
481.2700
 20
21.2700
 30
0.0000
 40
0.4000
  0
INSERT
  8
17
  2
ROUNDP
 10
480.0000
 20
20.0000
 30
0.0000
 41
1.2000
 42
1.2000
 43
1.0000
 50
0.0000
  0
INSERT
  8
17
  2
ROUNDP
 10
480.0000
 20
20.0000
 30
0.0000
 41
1.2000
 42
1.2000
 43
1.0000
 50
0.0000
  0
CIRCLE
  8
44
 10
480.0000
 20
20.0000
 30
0.0000
 40
0.4000
  0
INSERT
  8
17
  2
ROUNDP
 10
400.0000
 20
20.0000
 30
0.0000
 41
2.3622
 42
2.3622
 43
1.0000
 50
0.0000
  0
INSERT
  8
17
  2
ROUNDP
 10
400.0000
 20
20.0000
 30
0.0000
 41
2.3622
 42
2.3622
 43
1.0000
 50
0.0000
  0
CIRCLE
  8
44
 10
400.0000
 20
20.0000
 30
0.0000
 40
0.7874
  0
INSERT
  8
17
  2
ROUNDP
 10
397.4600
 20
22.5400
 30
0.0000
 41
2.5527
 42
2.5527
 43
1.0000
 50
0.0000
  0
INSERT
  8
17
  2
ROUNDP
 10
397.4600
 20
22.5400
 30
0.0000
 41
2.5527
 42
2.5527
 43
1.0000
 50
0.0000
  0
CIRCLE
  8
44
 10
397.4600
 20
22.5400
 30
0.0000
 40
0.8509
  0
INSERT
  8
17
  2
ROUNDP
 10
402.5400
 20
22.5400
 30
0.0000
 41
2.5527
 42
2.5527
 43
1.0000
 50
0.0000
  0
INSERT
  8
17
  2
ROUNDP
 10
402.5400
 20
22.5400
 30
0.0000
 41
2.5527
 42
2.5527
 43
1.0000
 50
0.0000
  0
CIRCLE
  8
44
 10
402.5400
 20
22.5400
 30
0.0000
 40
0.8509
  0
INSERT
  8
17
  2
ROUNDP
 10
397.4600
 20
17.4600
 30
0.0000
 41
2.5527
 42
2.5527
 43
1.0000
 50
0.0000
  0
INSERT
  8
17
  2
ROUNDP
 10
397.4600
 20
17.4600
 30
0.0000
 41
2.5527
 42
2.5527
 43
1.0000
 50
0.0000
  0
CIRCLE
  8
44
 10
397.4600
 20
17.4600
 30
0.0000
 40
0.8509
  0
INSERT
  8
17
  2
ROUNDP
 10
402.5400
 20
17.4600
 30
0.0000
 41
2.5527
 42
2.5527
 43
1.0000
 50
0.0000
  0
INSERT
  8
17
  2
ROUNDP
 10
402.5400
 20
17.4600
 30
0.0000
 41
2.5527
 42
2.5527
 43
1.0000
 50
0.0000
  0
CIRCLE
  8
44
 10
402.5400
 20
17.4600
 30
0.0000
 40
0.8509
  0
INSERT
  8
17
  2
SQUAREP
 10
345.0000
 20
120.0000
 30
0.0000
 41
1.6500
 42
1.6500
 43
1.0000
 50
0.0000
  0
INSERT
  8
17
  2
SQUAREP
 10
345.0000
 20
120.0000
 30
0.0000
 41
1.6500
 42
1.6500
 43
1.0000
 50
0.0000
  0
CIRCLE
  8
44
 10
345.0000
 20
120.0000
 30
0.0000
 40
0.5500
  0
INSERT
  8
17
  2
OCTAGONP
 10
347.5400
 20
120.0000
 30
0.0000
 41
1.6500
 42
1.6500
 43
1.0000
 50
0.0000
  0
INSERT
  8
17
  2
OCTAGONP
 10
347.5400
 20
120.0000
 30
0.0000
 41
1.6500
 42
1.6500
 43
1.0000
 50
0.0000
  0
CIRCLE
  8
44
 10
347.5400
 20
120.0000
 30
0.0000
 40
0.5500
  0
INSERT
  8
17
  2
OCTAGONP
 10
350.0800
 20
120.0000
 30
0.0000
 41
1.6500
 42
1.6500
 43
1.0000
 50
0.0000
  0
INSERT
  8
17
  2
OCTAGONP
 10
350.0800
 20
120.0000
 30
0.0000
 41
1.6500
 42
1.6500
 43
1.0000
 50
0.0000
  0
CIRCLE
  8
44
 10
350.0800
 20
120.0000
 30
0.0000
 40
0.5500
  0
INSERT
  8
17
  2
OCTAGONP
 10
352.6200
 20
120.0000
 30
0.0000
 41
1.6500
 42
1.6500
 43
1.0000
 50
0.0000
  0
INSERT
  8
17
  2
OCTAGONP
 10
352.6200
 20
120.0000
 30
0.0000
 41
1.6500
 42
1.6500
 43
1.0000
 50
0.0000
  0
CIRCLE
  8
44
 10
352.6200
 20
120.0000
 30
0.0000
 40
0.5500
  0
INSERT
  8
17
  2
OCTAGONP
 10
355.1600
 20
120.0000
 30
0.0000
 41
1.6500
 42
1.6500
 43
1.0000
 50
0.0000
  0
INSERT
  8
17
  2
OCTAGONP
 10
355.1600
 20
120.0000
 30
0.0000
 41
1.6500
 42
1.6500
 43
1.0000
 50
0.0000
  0
CIRCLE
  8
44
 10
355.1600
 20
120.0000
 30
0.0000
 40
0.5500
  0
INSERT
  8
17
  2
OCTAGONP
 10
357.7000
 20
120.0000
 30
0.0000
 41
1.6500
 42
1.6500
 43
1.0000
 50
0.0000
  0
INSERT
  8
17
  2
OCTAGONP
 10
357.7000
 20
120.0000
 30
0.0000
 41
1.6500
 42
1.6500
 43
1.0000
 50
0.0000
  0
CIRCLE
  8
44
 10
357.7000
 20
120.0000
 30
0.0000
 40
0.5500
  0
INSERT
  8
17
  2
OCTAGONP
 10
360.2400
 20
120.0000
 30
0.0000
 41
1.6500
 42
1.6500
 43
1.0000
 50
0.0000
  0
INSERT
  8
17
  2
OCTAGONP
 10
360.2400
 20
120.0000
 30
0.0000
 41
1.6500
 42
1.6500
 43
1.0000
 50
0.0000
  0
CIRCLE
  8
44
 10
360.2400
 20
120.0000
 30
0.0000
 40
0.5500
  0
INSERT
  8
17
  2
OCTAGONP
 10
362.7800
 20
120.0000
 30
0.0000
 41
1.6500
 42
1.6500
 43
1.0000
 50
0.0000
  0
INSERT
  8
17
  2
OCTAGONP
 10
362.7800
 20
120.0000
 30
0.0000
 41
1.6500
 42
1.6500
 43
1.0000
 50
0.0000
  0
CIRCLE
  8
44
 10
362.7800
 20
120.0000
 30
0.0000
 40
0.5500
  0
INSERT
  8
17
  2
OCTAGONP
 10
345.0000
 20
125.0800
 30
0.0000
 41
1.6500
 42
1.6500
 43
1.0000
 50
0.0000
  0
INSERT
  8
17
  2
OCTAGONP
 10
345.0000
 20
125.0800
 30
0.0000
 41
1.6500
 42
1.6500
 43
1.0000
 50
0.0000
  0
CIRCLE
  8
44
 10
345.0000
 20
125.0800
 30
0.0000
 40
0.5500
  0
INSERT
  8
17
  2
OCTAGONP
 10
347.5400
 20
125.0800
 30
0.0000
 41
1.6500
 42
1.6500
 43
1.0000
 50
0.0000
  0
INSERT
  8
17
  2
OCTAGONP
 10
347.5400
 20
125.0800
 30
0.0000
 41
1.6500
 42
1.6500
 43
1.0000
 50
0.0000
  0
CIRCLE
  8
44
 10
347.5400
 20
125.0800
 30
0.0000
 40
0.5500
  0
INSERT
  8
17
  2
OCTAGONP
 10
350.0800
 20
125.0800
 30
0.0000
 41
1.6500
 42
1.6500
 43
1.0000
 50
0.0000
  0
INSERT
  8
17
  2
OCTAGONP
 10
350.0800
 20
125.0800
 30
0.0000
 41
1.6500
 42
1.6500
 43
1.0000
 50
0.0000
  0
CIRCLE
  8
44
 10
350.0800
 20
125.0800
 30
0.0000
 40
0.5500
  0
INSERT
  8
17
  2
OCTAGONP
 10
352.6200
 20
125.0800
 30
0.0000
 41
1.6500
 42
1.6500
 43
1.0000
 50
0.0000
  0
INSERT
  8
17
  2
OCTAGONP
 10
352.6200
 20
125.0800
 30
0.0000
 41
1.6500
 42
1.6500
 43
1.0000
 50
0.0000
  0
CIRCLE
  8
44
 10
352.6200
 20
125.0800
 30
0.0000
 40
0.5500
  0
INSERT
  8
17
  2
OCTAGONP
 10
355.1600
 20
125.0800
 30
0.0000
 41
1.6500
 42
1.6500
 43
1.0000
 50
0.0000
  0
INSERT
  8
17
  2
OCTAGONP
 10
355.1600
 20
125.0800
 30
0.0000
 41
1.6500
 42
1.6500
 43
1.0000
 50
0.0000
  0
CIRCLE
  8
44
 10
355.1600
 20
125.0800
 30
0.0000
 40
0.5500
  0
INSERT
  8
17
  2
OCTAGONP
 10
357.7000
 20
125.0800
 30
0.0000
 41
1.6500
 42
1.6500
 43
1.0000
 50
0.0000
  0
INSERT
  8
17
  2
OCTAGONP
 10
357.7000
 20
125.0800
 30
0.0000
 41
1.6500
 42
1.6500
 43
1.0000
 50
0.0000
  0
CIRCLE
  8
44
 10
357.7000
 20
125.0800
 30
0.0000
 40
0.5500
  0
INSERT
  8
17
  2
OCTAGONP
 10
360.2400
 20
125.0800
 30
0.0000
 41
1.6500
 42
1.6500
 43
1.0000
 50
0.0000
  0
INSERT
  8
17
  2
OCTAGONP
 10
360.2400
 20
125.0800
 30
0.0000
 41
1.6500
 42
1.6500
 43
1.0000
 50
0.0000
  0
CIRCLE
  8
44
 10
360.2400
 20
125.0800
 30
0.0000
 40
0.5500
  0
INSERT
  8
17
  2
OCTAGONP
 10
362.7800
 20
125.0800
 30
0.0000
 41
1.6500
 42
1.6500
 43
1.0000
 50
0.0000
  0
INSERT
  8
17
  2
OCTAGONP
 10
362.7800
 20
125.0800
 30
0.0000
 41
1.6500
 42
1.6500
 43
1.0000
 50
0.0000
  0
CIRCLE
  8
44
 10
362.7800
 20
125.0800
 30
0.0000
 40
0.5500
  0
INSERT
  8
17
  2
ROUNDP
 10
478.7300
 20
16.2700
 30
0.0000
 41
1.2000
 42
1.2000
 43
1.0000
 50
0.0000
  0
INSERT
  8
17
  2
ROUNDP
 10
478.7300
 20
16.2700
 30
0.0000
 41
1.2000
 42
1.2000
 43
1.0000
 50
0.0000
  0
CIRCLE
  8
44
 10
478.7300
 20
16.2700
 30
0.0000
 40
0.4000
  0
INSERT
  8
17
  2
ROUNDP
 10
478.7300
 20
13.7300
 30
0.0000
 41
1.2000
 42
1.2000
 43
1.0000
 50
0.0000
  0
INSERT
  8
17
  2
ROUNDP
 10
478.7300
 20
13.7300
 30
0.0000
 41
1.2000
 42
1.2000
 43
1.0000
 50
0.0000
  0
CIRCLE
  8
44
 10
478.7300
 20
13.7300
 30
0.0000
 40
0.4000
  0
INSERT
  8
17
  2
ROUNDP
 10
481.2700
 20
13.7300
 30
0.0000
 41
1.2000
 42
1.2000
 43
1.0000
 50
0.0000
  0
INSERT
  8
17
  2
ROUNDP
 10
481.2700
 20
13.7300
 30
0.0000
 41
1.2000
 42
1.2000
 43
1.0000
 50
0.0000
  0
CIRCLE
  8
44
 10
481.2700
 20
13.7300
 30
0.0000
 40
0.4000
  0
INSERT
  8
17
  2
ROUNDP
 10
481.2700
 20
16.2700
 30
0.0000
 41
1.2000
 42
1.2000
 43
1.0000
 50
0.0000
  0
INSERT
  8
17
  2
ROUNDP
 10
481.2700
 20
16.2700
 30
0.0000
 41
1.2000
 42
1.2000
 43
1.0000
 50
0.0000
  0
CIRCLE
  8
44
 10
481.2700
 20
16.2700
 30
0.0000
 40
0.4000
  0
INSERT
  8
17
  2
ROUNDP
 10
480.0000
 20
15.0000
 30
0.0000
 41
1.2000
 42
1.2000
 43
1.0000
 50
0.0000
  0
INSERT
  8
17
  2
ROUNDP
 10
480.0000
 20
15.0000
 30
0.0000
 41
1.2000
 42
1.2000
 43
1.0000
 50
0.0000
  0
CIRCLE
  8
44
 10
480.0000
 20
15.0000
 30
0.0000
 40
0.4000
  0
INSERT
  8
17
  2
ROUNDP
 10
380.0000
 20
20.0000
 30
0.0000
 41
2.3622
 42
2.3622
 43
1.0000
 50
0.0000
  0
INSERT
  8
17
  2
ROUNDP
 10
380.0000
 20
20.0000
 30
0.0000
 41
2.3622
 42
2.3622
 43
1.0000
 50
0.0000
  0
CIRCLE
  8
44
 10
380.0000
 20
20.0000
 30
0.0000
 40
0.7874
  0
INSERT
  8
17
  2
ROUNDP
 10
377.4600
 20
22.5400
 30
0.0000
 41
2.5527
 42
2.5527
 43
1.0000
 50
0.0000
  0
INSERT
  8
17
  2
ROUNDP
 10
377.4600
 20
22.5400
 30
0.0000
 41
2.5527
 42
2.5527
 43
1.0000
 50
0.0000
  0
CIRCLE
  8
44
 10
377.4600
 20
22.5400
 30
0.0000
 40
0.8509
  0
INSERT
  8
17
  2
ROUNDP
 10
382.5400
 20
22.5400
 30
0.0000
 41
2.5527
 42
2.5527
 43
1.0000
 50
0.0000
  0
INSERT
  8
17
  2
ROUNDP
 10
382.5400
 20
22.5400
 30
0.0000
 41
2.5527
 42
2.5527
 43
1.0000
 50
0.0000
  0
CIRCLE
  8
44
 10
382.5400
 20
22.5400
 30
0.0000
 40
0.8509
  0
INSERT
  8
17
  2
ROUNDP
 10
377.4600
 20
17.4600
 30
0.0000
 41
2.5527
 42
2.5527
 43
1.0000
 50
0.0000
  0
INSERT
  8
17
  2
ROUNDP
 10
377.4600
 20
17.4600
 30
0.0000
 41
2.5527
 42
2.5527
 43
1.0000
 50
0.0000
  0
CIRCLE
  8
44
 10
377.4600
 20
17.4600
 30
0.0000
 40
0.8509
  0
INSERT
  8
17
  2
ROUNDP
 10
382.5400
 20
17.4600
 30
0.0000
 41
2.5527
 42
2.5527
 43
1.0000
 50
0.0000
  0
INSERT
  8
17
  2
ROUNDP
 10
382.5400
 20
17.4600
 30
0.0000
 41
2.5527
 42
2.5527
 43
1.0000
 50
0.0000
  0
CIRCLE
  8
44
 10
382.5400
 20
17.4600
 30
0.0000
 40
0.8509
  0
INSERT
  8
17
  2
ROUNDP
 10
150.0000
 20
90.0000
 30
0.0000
 41
1.3500
 42
1.3500
 43
1.0000
 50
0.0000
  0
INSERT
  8
17
  2
ROUNDP
 10
150.0000
 20
90.0000
 30
0.0000
 41
1.3500
 42
1.3500
 43
1.0000
 50
0.0000
  0
CIRCLE
  8
44
 10
150.0000
 20
90.0000
 30
0.0000
 40
0.4500
  0
INSERT
  8
17
  2
ROUNDP
 10
153.4300
 20
93.4300
 30
0.0000
 41
2.4000
 42
2.4000
 43
1.0000
 50
0.0000
  0
INSERT
  8
17
  2
ROUNDP
 10
153.4300
 20
93.4300
 30
0.0000
 41
2.4000
 42
2.4000
 43
1.0000
 50
0.0000
  0
CIRCLE
  8
44
 10
153.4300
 20
93.4300
 30
0.0000
 40
0.8000
  0
INSERT
  8
17
  2
ROUNDP
 10
146.5700
 20
93.4300
 30
0.0000
 41
2.4000
 42
2.4000
 43
1.0000
 50
0.0000
  0
INSERT
  8
17
  2
ROUNDP
 10
146.5700
 20
93.4300
 30
0.0000
 41
2.4000
 42
2.4000
 43
1.0000
 50
0.0000
  0
CIRCLE
  8
44
 10
146.5700
 20
93.4300
 30
0.0000
 40
0.8000
  0
INSERT
  8
17
  2
ROUNDP
 10
146.5700
 20
86.5700
 30
0.0000
 41
2.4000
 42
2.4000
 43
1.0000
 50
0.0000
  0
INSERT
  8
17
  2
ROUNDP
 10
146.5700
 20
86.5700
 30
0.0000
 41
2.4000
 42
2.4000
 43
1.0000
 50
0.0000
  0
CIRCLE
  8
44
 10
146.5700
 20
86.5700
 30
0.0000
 40
0.8000
  0
INSERT
  8
17
  2
ROUNDP
 10
153.4300
 20
86.5700
 30
0.0000
 41
2.4000
 42
2.4000
 43
1.0000
 50
0.0000
  0
INSERT
  8
17
  2
ROUNDP
 10
153.4300
 20
86.5700
 30
0.0000
 41
2.4000
 42
2.4000
 43
1.0000
 50
0.0000
  0
CIRCLE
  8
44
 10
153.4300
 20
86.5700
 30
0.0000
 40
0.8000
  0
INSERT
  8
17
  2
ROUNDP
 10
170.0000
 20
40.0000
 30
0.0000
 41
1.3500
 42
1.3500
 43
1.0000
 50
0.0000
  0
INSERT
  8
17
  2
ROUNDP
 10
170.0000
 20
40.0000
 30
0.0000
 41
1.3500
 42
1.3500
 43
1.0000
 50
0.0000
  0
CIRCLE
  8
44
 10
170.0000
 20
40.0000
 30
0.0000
 40
0.4500
  0
INSERT
  8
17
  2
ROUNDP
 10
173.4300
 20
43.4300
 30
0.0000
 41
2.4000
 42
2.4000
 43
1.0000
 50
0.0000
  0
INSERT
  8
17
  2
ROUNDP
 10
173.4300
 20
43.4300
 30
0.0000
 41
2.4000
 42
2.4000
 43
1.0000
 50
0.0000
  0
CIRCLE
  8
44
 10
173.4300
 20
43.4300
 30
0.0000
 40
0.8000
  0
INSERT
  8
17
  2
ROUNDP
 10
166.5700
 20
43.4300
 30
0.0000
 41
2.4000
 42
2.4000
 43
1.0000
 50
0.0000
  0
INSERT
  8
17
  2
ROUNDP
 10
166.5700
 20
43.4300
 30
0.0000
 41
2.4000
 42
2.4000
 43
1.0000
 50
0.0000
  0
CIRCLE
  8
44
 10
166.5700
 20
43.4300
 30
0.0000
 40
0.8000
  0
INSERT
  8
17
  2
ROUNDP
 10
166.5700
 20
36.5700
 30
0.0000
 41
2.4000
 42
2.4000
 43
1.0000
 50
0.0000
  0
INSERT
  8
17
  2
ROUNDP
 10
166.5700
 20
36.5700
 30
0.0000
 41
2.4000
 42
2.4000
 43
1.0000
 50
0.0000
  0
CIRCLE
  8
44
 10
166.5700
 20
36.5700
 30
0.0000
 40
0.8000
  0
INSERT
  8
17
  2
ROUNDP
 10
173.4300
 20
36.5700
 30
0.0000
 41
2.4000
 42
2.4000
 43
1.0000
 50
0.0000
  0
INSERT
  8
17
  2
ROUNDP
 10
173.4300
 20
36.5700
 30
0.0000
 41
2.4000
 42
2.4000
 43
1.0000
 50
0.0000
  0
CIRCLE
  8
44
 10
173.4300
 20
36.5700
 30
0.0000
 40
0.8000
  0
INSERT
  8
17
  2
ROUNDP
 10
190.0000
 20
90.0000
 30
0.0000
 41
1.3500
 42
1.3500
 43
1.0000
 50
0.0000
  0
INSERT
  8
17
  2
ROUNDP
 10
190.0000
 20
90.0000
 30
0.0000
 41
1.3500
 42
1.3500
 43
1.0000
 50
0.0000
  0
CIRCLE
  8
44
 10
190.0000
 20
90.0000
 30
0.0000
 40
0.4500
  0
INSERT
  8
17
  2
ROUNDP
 10
193.4300
 20
93.4300
 30
0.0000
 41
2.4000
 42
2.4000
 43
1.0000
 50
0.0000
  0
INSERT
  8
17
  2
ROUNDP
 10
193.4300
 20
93.4300
 30
0.0000
 41
2.4000
 42
2.4000
 43
1.0000
 50
0.0000
  0
CIRCLE
  8
44
 10
193.4300
 20
93.4300
 30
0.0000
 40
0.8000
  0
INSERT
  8
17
  2
ROUNDP
 10
186.5700
 20
93.4300
 30
0.0000
 41
2.4000
 42
2.4000
 43
1.0000
 50
0.0000
  0
INSERT
  8
17
  2
ROUNDP
 10
186.5700
 20
93.4300
 30
0.0000
 41
2.4000
 42
2.4000
 43
1.0000
 50
0.0000
  0
CIRCLE
  8
44
 10
186.5700
 20
93.4300
 30
0.0000
 40
0.8000
  0
INSERT
  8
17
  2
ROUNDP
 10
186.5700
 20
86.5700
 30
0.0000
 41
2.4000
 42
2.4000
 43
1.0000
 50
0.0000
  0
INSERT
  8
17
  2
ROUNDP
 10
186.5700
 20
86.5700
 30
0.0000
 41
2.4000
 42
2.4000
 43
1.0000
 50
0.0000
  0
CIRCLE
  8
44
 10
186.5700
 20
86.5700
 30
0.0000
 40
0.8000
  0
INSERT
  8
17
  2
ROUNDP
 10
193.4300
 20
86.5700
 30
0.0000
 41
2.4000
 42
2.4000
 43
1.0000
 50
0.0000
  0
INSERT
  8
17
  2
ROUNDP
 10
193.4300
 20
86.5700
 30
0.0000
 41
2.4000
 42
2.4000
 43
1.0000
 50
0.0000
  0
CIRCLE
  8
44
 10
193.4300
 20
86.5700
 30
0.0000
 40
0.8000
  0
INSERT
  8
17
  2
ROUNDP
 10
210.0000
 20
40.0000
 30
0.0000
 41
1.3500
 42
1.3500
 43
1.0000
 50
0.0000
  0
INSERT
  8
17
  2
ROUNDP
 10
210.0000
 20
40.0000
 30
0.0000
 41
1.3500
 42
1.3500
 43
1.0000
 50
0.0000
  0
CIRCLE
  8
44
 10
210.0000
 20
40.0000
 30
0.0000
 40
0.4500
  0
INSERT
  8
17
  2
ROUNDP
 10
213.4300
 20
43.4300
 30
0.0000
 41
2.4000
 42
2.4000
 43
1.0000
 50
0.0000
  0
INSERT
  8
17
  2
ROUNDP
 10
213.4300
 20
43.4300
 30
0.0000
 41
2.4000
 42
2.4000
 43
1.0000
 50
0.0000
  0
CIRCLE
  8
44
 10
213.4300
 20
43.4300
 30
0.0000
 40
0.8000
  0
INSERT
  8
17
  2
ROUNDP
 10
206.5700
 20
43.4300
 30
0.0000
 41
2.4000
 42
2.4000
 43
1.0000
 50
0.0000
  0
INSERT
  8
17
  2
ROUNDP
 10
206.5700
 20
43.4300
 30
0.0000
 41
2.4000
 42
2.4000
 43
1.0000
 50
0.0000
  0
CIRCLE
  8
44
 10
206.5700
 20
43.4300
 30
0.0000
 40
0.8000
  0
INSERT
  8
17
  2
ROUNDP
 10
206.5700
 20
36.5700
 30
0.0000
 41
2.4000
 42
2.4000
 43
1.0000
 50
0.0000
  0
INSERT
  8
17
  2
ROUNDP
 10
206.5700
 20
36.5700
 30
0.0000
 41
2.4000
 42
2.4000
 43
1.0000
 50
0.0000
  0
CIRCLE
  8
44
 10
206.5700
 20
36.5700
 30
0.0000
 40
0.8000
  0
INSERT
  8
17
  2
ROUNDP
 10
213.4300
 20
36.5700
 30
0.0000
 41
2.4000
 42
2.4000
 43
1.0000
 50
0.0000
  0
INSERT
  8
17
  2
ROUNDP
 10
213.4300
 20
36.5700
 30
0.0000
 41
2.4000
 42
2.4000
 43
1.0000
 50
0.0000
  0
CIRCLE
  8
44
 10
213.4300
 20
36.5700
 30
0.0000
 40
0.8000
  0
INSERT
  8
17
  2
ROUNDP
 10
230.0000
 20
90.0000
 30
0.0000
 41
1.3500
 42
1.3500
 43
1.0000
 50
0.0000
  0
INSERT
  8
17
  2
ROUNDP
 10
230.0000
 20
90.0000
 30
0.0000
 41
1.3500
 42
1.3500
 43
1.0000
 50
0.0000
  0
CIRCLE
  8
44
 10
230.0000
 20
90.0000
 30
0.0000
 40
0.4500
  0
INSERT
  8
17
  2
ROUNDP
 10
233.4300
 20
93.4300
 30
0.0000
 41
2.4000
 42
2.4000
 43
1.0000
 50
0.0000
  0
INSERT
  8
17
  2
ROUNDP
 10
233.4300
 20
93.4300
 30
0.0000
 41
2.4000
 42
2.4000
 43
1.0000
 50
0.0000
  0
CIRCLE
  8
44
 10
233.4300
 20
93.4300
 30
0.0000
 40
0.8000
  0
INSERT
  8
17
  2
ROUNDP
 10
226.5700
 20
93.4300
 30
0.0000
 41
2.4000
 42
2.4000
 43
1.0000
 50
0.0000
  0
INSERT
  8
17
  2
ROUNDP
 10
226.5700
 20
93.4300
 30
0.0000
 41
2.4000
 42
2.4000
 43
1.0000
 50
0.0000
  0
CIRCLE
  8
44
 10
226.5700
 20
93.4300
 30
0.0000
 40
0.8000
  0
INSERT
  8
17
  2
ROUNDP
 10
226.5700
 20
86.5700
 30
0.0000
 41
2.4000
 42
2.4000
 43
1.0000
 50
0.0000
  0
INSERT
  8
17
  2
ROUNDP
 10
226.5700
 20
86.5700
 30
0.0000
 41
2.4000
 42
2.4000
 43
1.0000
 50
0.0000
  0
CIRCLE
  8
44
 10
226.5700
 20
86.5700
 30
0.0000
 40
0.8000
  0
INSERT
  8
17
  2
ROUNDP
 10
233.4300
 20
86.5700
 30
0.0000
 41
2.4000
 42
2.4000
 43
1.0000
 50
0.0000
  0
INSERT
  8
17
  2
ROUNDP
 10
233.4300
 20
86.5700
 30
0.0000
 41
2.4000
 42
2.4000
 43
1.0000
 50
0.0000
  0
CIRCLE
  8
44
 10
233.4300
 20
86.5700
 30
0.0000
 40
0.8000
  0
INSERT
  8
17
  2
ROUNDP
 10
250.0000
 20
40.0000
 30
0.0000
 41
1.3500
 42
1.3500
 43
1.0000
 50
0.0000
  0
INSERT
  8
17
  2
ROUNDP
 10
250.0000
 20
40.0000
 30
0.0000
 41
1.3500
 42
1.3500
 43
1.0000
 50
0.0000
  0
CIRCLE
  8
44
 10
250.0000
 20
40.0000
 30
0.0000
 40
0.4500
  0
INSERT
  8
17
  2
ROUNDP
 10
253.4300
 20
43.4300
 30
0.0000
 41
2.4000
 42
2.4000
 43
1.0000
 50
0.0000
  0
INSERT
  8
17
  2
ROUNDP
 10
253.4300
 20
43.4300
 30
0.0000
 41
2.4000
 42
2.4000
 43
1.0000
 50
0.0000
  0
CIRCLE
  8
44
 10
253.4300
 20
43.4300
 30
0.0000
 40
0.8000
  0
INSERT
  8
17
  2
ROUNDP
 10
246.5700
 20
43.4300
 30
0.0000
 41
2.4000
 42
2.4000
 43
1.0000
 50
0.0000
  0
INSERT
  8
17
  2
ROUNDP
 10
246.5700
 20
43.4300
 30
0.0000
 41
2.4000
 42
2.4000
 43
1.0000
 50
0.0000
  0
CIRCLE
  8
44
 10
246.5700
 20
43.4300
 30
0.0000
 40
0.8000
  0
INSERT
  8
17
  2
ROUNDP
 10
246.5700
 20
36.5700
 30
0.0000
 41
2.4000
 42
2.4000
 43
1.0000
 50
0.0000
  0
INSERT
  8
17
  2
ROUNDP
 10
246.5700
 20
36.5700
 30
0.0000
 41
2.4000
 42
2.4000
 43
1.0000
 50
0.0000
  0
CIRCLE
  8
44
 10
246.5700
 20
36.5700
 30
0.0000
 40
0.8000
  0
INSERT
  8
17
  2
ROUNDP
 10
253.4300
 20
36.5700
 30
0.0000
 41
2.4000
 42
2.4000
 43
1.0000
 50
0.0000
  0
INSERT
  8
17
  2
ROUNDP
 10
253.4300
 20
36.5700
 30
0.0000
 41
2.4000
 42
2.4000
 43
1.0000
 50
0.0000
  0
CIRCLE
  8
44
 10
253.4300
 20
36.5700
 30
0.0000
 40
0.8000
  0
INSERT
  8
17
  2
ROUNDP
 10
478.7300
 20
11.2700
 30
0.0000
 41
1.2000
 42
1.2000
 43
1.0000
 50
0.0000
  0
INSERT
  8
17
  2
ROUNDP
 10
478.7300
 20
11.2700
 30
0.0000
 41
1.2000
 42
1.2000
 43
1.0000
 50
0.0000
  0
CIRCLE
  8
44
 10
478.7300
 20
11.2700
 30
0.0000
 40
0.4000
  0
INSERT
  8
17
  2
ROUNDP
 10
478.7300
 20
8.7300
 30
0.0000
 41
1.2000
 42
1.2000
 43
1.0000
 50
0.0000
  0
INSERT
  8
17
  2
ROUNDP
 10
478.7300
 20
8.7300
 30
0.0000
 41
1.2000
 42
1.2000
 43
1.0000
 50
0.0000
  0
CIRCLE
  8
44
 10
478.7300
 20
8.7300
 30
0.0000
 40
0.4000
  0
INSERT
  8
17
  2
ROUNDP
 10
481.2700
 20
8.7300
 30
0.0000
 41
1.2000
 42
1.2000
 43
1.0000
 50
0.0000
  0
INSERT
  8
17
  2
ROUNDP
 10
481.2700
 20
8.7300
 30
0.0000
 41
1.2000
 42
1.2000
 43
1.0000
 50
0.0000
  0
CIRCLE
  8
44
 10
481.2700
 20
8.7300
 30
0.0000
 40
0.4000
  0
INSERT
  8
17
  2
ROUNDP
 10
481.2700
 20
11.2700
 30
0.0000
 41
1.2000
 42
1.2000
 43
1.0000
 50
0.0000
  0
INSERT
  8
17
  2
ROUNDP
 10
481.2700
 20
11.2700
 30
0.0000
 41
1.2000
 42
1.2000
 43
1.0000
 50
0.0000
  0
CIRCLE
  8
44
 10
481.2700
 20
11.2700
 30
0.0000
 40
0.4000
  0
INSERT
  8
17
  2
ROUNDP
 10
480.0000
 20
10.0000
 30
0.0000
 41
1.2000
 42
1.2000
 43
1.0000
 50
0.0000
  0
INSERT
  8
17
  2
ROUNDP
 10
480.0000
 20
10.0000
 30
0.0000
 41
1.2000
 42
1.2000
 43
1.0000
 50
0.0000
  0
CIRCLE
  8
44
 10
480.0000
 20
10.0000
 30
0.0000
 40
0.4000
  0
INSERT
  8
17
  2
ROUNDP
 10
360.0000
 20
20.0000
 30
0.0000
 41
2.3622
 42
2.3622
 43
1.0000
 50
0.0000
  0
INSERT
  8
17
  2
ROUNDP
 10
360.0000
 20
20.0000
 30
0.0000
 41
2.3622
 42
2.3622
 43
1.0000
 50
0.0000
  0
CIRCLE
  8
44
 10
360.0000
 20
20.0000
 30
0.0000
 40
0.7874
  0
INSERT
  8
17
  2
ROUNDP
 10
357.4600
 20
22.5400
 30
0.0000
 41
2.5527
 42
2.5527
 43
1.0000
 50
0.0000
  0
INSERT
  8
17
  2
ROUNDP
 10
357.4600
 20
22.5400
 30
0.0000
 41
2.5527
 42
2.5527
 43
1.0000
 50
0.0000
  0
CIRCLE
  8
44
 10
357.4600
 20
22.5400
 30
0.0000
 40
0.8509
  0
INSERT
  8
17
  2
ROUNDP
 10
362.5400
 20
22.5400
 30
0.0000
 41
2.5527
 42
2.5527
 43
1.0000
 50
0.0000
  0
INSERT
  8
17
  2
ROUNDP
 10
362.5400
 20
22.5400
 30
0.0000
 41
2.5527
 42
2.5527
 43
1.0000
 50
0.0000
  0
CIRCLE
  8
44
 10
362.5400
 20
22.5400
 30
0.0000
 40
0.8509
  0
INSERT
  8
17
  2
ROUNDP
 10
357.4600
 20
17.4600
 30
0.0000
 41
2.5527
 42
2.5527
 43
1.0000
 50
0.0000
  0
INSERT
  8
17
  2
ROUNDP
 10
357.4600
 20
17.4600
 30
0.0000
 41
2.5527
 42
2.5527
 43
1.0000
 50
0.0000
  0
CIRCLE
  8
44
 10
357.4600
 20
17.4600
 30
0.0000
 40
0.8509
  0
INSERT
  8
17
  2
ROUNDP
 10
362.5400
 20
17.4600
 30
0.0000
 41
2.5527
 42
2.5527
 43
1.0000
 50
0.0000
  0
INSERT
  8
17
  2
ROUNDP
 10
362.5400
 20
17.4600
 30
0.0000
 41
2.5527
 42
2.5527
 43
1.0000
 50
0.0000
  0
CIRCLE
  8
44
 10
362.5400
 20
17.4600
 30
0.0000
 40
0.8509
  0
INSERT
  8
17
  2
OCTAGONP
 10
285.0300
 20
118.8300
 30
0.0000
 41
1.6764
 42
1.6764
 43
1.0000
 50
0.0000
  0
INSERT
  8
17
  2
OCTAGONP
 10
285.0300
 20
118.8300
 30
0.0000
 41
1.6764
 42
1.6764
 43
1.0000
 50
0.0000
  0
CIRCLE
  8
44
 10
285.0300
 20
118.8300
 30
0.0000
 40
0.5080
  0
INSERT
  8
17
  2
OCTAGONP
 10
285.0300
 20
121.3700
 30
0.0000
 41
1.6764
 42
1.6764
 43
1.0000
 50
0.0000
  0
INSERT
  8
17
  2
OCTAGONP
 10
285.0300
 20
121.3700
 30
0.0000
 41
1.6764
 42
1.6764
 43
1.0000
 50
0.0000
  0
CIRCLE
  8
44
 10
285.0300
 20
121.3700
 30
0.0000
 40
0.5080
  0
INSERT
  8
17
  2
OCTAGONP
 10
287.5700
 20
118.8300
 30
0.0000
 41
1.6764
 42
1.6764
 43
1.0000
 50
0.0000
  0
INSERT
  8
17
  2
OCTAGONP
 10
287.5700
 20
118.8300
 30
0.0000
 41
1.6764
 42
1.6764
 43
1.0000
 50
0.0000
  0
CIRCLE
  8
44
 10
287.5700
 20
118.8300
 30
0.0000
 40
0.5080
  0
INSERT
  8
17
  2
OCTAGONP
 10
287.5700
 20
121.3700
 30
0.0000
 41
1.6764
 42
1.6764
 43
1.0000
 50
0.0000
  0
INSERT
  8
17
  2
OCTAGONP
 10
287.5700
 20
121.3700
 30
0.0000
 41
1.6764
 42
1.6764
 43
1.0000
 50
0.0000
  0
CIRCLE
  8
44
 10
287.5700
 20
121.3700
 30
0.0000
 40
0.5080
  0
INSERT
  8
17
  2
OCTAGONP
 10
290.1100
 20
118.8300
 30
0.0000
 41
1.6764
 42
1.6764
 43
1.0000
 50
0.0000
  0
INSERT
  8
17
  2
OCTAGONP
 10
290.1100
 20
118.8300
 30
0.0000
 41
1.6764
 42
1.6764
 43
1.0000
 50
0.0000
  0
CIRCLE
  8
44
 10
290.1100
 20
118.8300
 30
0.0000
 40
0.5080
  0
INSERT
  8
17
  2
OCTAGONP
 10
290.1100
 20
121.3700
 30
0.0000
 41
1.6764
 42
1.6764
 43
1.0000
 50
0.0000
  0
INSERT
  8
17
  2
OCTAGONP
 10
290.1100
 20
121.3700
 30
0.0000
 41
1.6764
 42
1.6764
 43
1.0000
 50
0.0000
  0
CIRCLE
  8
44
 10
290.1100
 20
121.3700
 30
0.0000
 40
0.5080
  0
INSERT
  8
17
  2
OCTAGONP
 10
292.6500
 20
118.8300
 30
0.0000
 41
1.6764
 42
1.6764
 43
1.0000
 50
0.0000
  0
INSERT
  8
17
  2
OCTAGONP
 10
292.6500
 20
118.8300
 30
0.0000
 41
1.6764
 42
1.6764
 43
1.0000
 50
0.0000
  0
CIRCLE
  8
44
 10
292.6500
 20
118.8300
 30
0.0000
 40
0.5080
  0
INSERT
  8
17
  2
OCTAGONP
 10
292.6500
 20
121.3700
 30
0.0000
 41
1.6764
 42
1.6764
 43
1.0000
 50
0.0000
  0
INSERT
  8
17
  2
OCTAGONP
 10
292.6500
 20
121.3700
 30
0.0000
 41
1.6764
 42
1.6764
 43
1.0000
 50
0.0000
  0
CIRCLE
  8
44
 10
292.6500
 20
121.3700
 30
0.0000
 40
0.5080
  0
INSERT
  8
17
  2
OCTAGONP
 10
295.1900
 20
118.8300
 30
0.0000
 41
1.6764
 42
1.6764
 43
1.0000
 50
0.0000
  0
INSERT
  8
17
  2
OCTAGONP
 10
295.1900
 20
118.8300
 30
0.0000
 41
1.6764
 42
1.6764
 43
1.0000
 50
0.0000
  0
CIRCLE
  8
44
 10
295.1900
 20
118.8300
 30
0.0000
 40
0.5080
  0
INSERT
  8
17
  2
OCTAGONP
 10
295.1900
 20
121.3700
 30
0.0000
 41
1.6764
 42
1.6764
 43
1.0000
 50
0.0000
  0
INSERT
  8
17
  2
OCTAGONP
 10
295.1900
 20
121.3700
 30
0.0000
 41
1.6764
 42
1.6764
 43
1.0000
 50
0.0000
  0
CIRCLE
  8
44
 10
295.1900
 20
121.3700
 30
0.0000
 40
0.5080
  0
INSERT
  8
17
  2
OCTAGONP
 10
297.7300
 20
118.8300
 30
0.0000
 41
1.6764
 42
1.6764
 43
1.0000
 50
0.0000
  0
INSERT
  8
17
  2
OCTAGONP
 10
297.7300
 20
118.8300
 30
0.0000
 41
1.6764
 42
1.6764
 43
1.0000
 50
0.0000
  0
CIRCLE
  8
44
 10
297.7300
 20
118.8300
 30
0.0000
 40
0.5080
  0
INSERT
  8
17
  2
OCTAGONP
 10
297.7300
 20
121.3700
 30
0.0000
 41
1.6764
 42
1.6764
 43
1.0000
 50
0.0000
  0
INSERT
  8
17
  2
OCTAGONP
 10
297.7300
 20
121.3700
 30
0.0000
 41
1.6764
 42
1.6764
 43
1.0000
 50
0.0000
  0
CIRCLE
  8
44
 10
297.7300
 20
121.3700
 30
0.0000
 40
0.5080
  0
INSERT
  8
17
  2
OCTAGONP
 10
300.2700
 20
118.8300
 30
0.0000
 41
1.6764
 42
1.6764
 43
1.0000
 50
0.0000
  0
INSERT
  8
17
  2
OCTAGONP
 10
300.2700
 20
118.8300
 30
0.0000
 41
1.6764
 42
1.6764
 43
1.0000
 50
0.0000
  0
CIRCLE
  8
44
 10
300.2700
 20
118.8300
 30
0.0000
 40
0.5080
  0
INSERT
  8
17
  2
OCTAGONP
 10
300.2700
 20
121.3700
 30
0.0000
 41
1.6764
 42
1.6764
 43
1.0000
 50
0.0000
  0
INSERT
  8
17
  2
OCTAGONP
 10
300.2700
 20
121.3700
 30
0.0000
 41
1.6764
 42
1.6764
 43
1.0000
 50
0.0000
  0
CIRCLE
  8
44
 10
300.2700
 20
121.3700
 30
0.0000
 40
0.5080
  0
INSERT
  8
17
  2
OCTAGONP
 10
302.8100
 20
118.8300
 30
0.0000
 41
1.6764
 42
1.6764
 43
1.0000
 50
0.0000
  0
INSERT
  8
17
  2
OCTAGONP
 10
302.8100
 20
118.8300
 30
0.0000
 41
1.6764
 42
1.6764
 43
1.0000
 50
0.0000
  0
CIRCLE
  8
44
 10
302.8100
 20
118.8300
 30
0.0000
 40
0.5080
  0
INSERT
  8
17
  2
OCTAGONP
 10
302.8100
 20
121.3700
 30
0.0000
 41
1.6764
 42
1.6764
 43
1.0000
 50
0.0000
  0
INSERT
  8
17
  2
OCTAGONP
 10
302.8100
 20
121.3700
 30
0.0000
 41
1.6764
 42
1.6764
 43
1.0000
 50
0.0000
  0
CIRCLE
  8
44
 10
302.8100
 20
121.3700
 30
0.0000
 40
0.5080
  0
INSERT
  8
17
  2
OCTAGONP
 10
305.3500
 20
118.8300
 30
0.0000
 41
1.6764
 42
1.6764
 43
1.0000
 50
0.0000
  0
INSERT
  8
17
  2
OCTAGONP
 10
305.3500
 20
118.8300
 30
0.0000
 41
1.6764
 42
1.6764
 43
1.0000
 50
0.0000
  0
CIRCLE
  8
44
 10
305.3500
 20
118.8300
 30
0.0000
 40
0.5080
  0
INSERT
  8
17
  2
OCTAGONP
 10
305.3500
 20
121.3700
 30
0.0000
 41
1.6764
 42
1.6764
 43
1.0000
 50
0.0000
  0
INSERT
  8
17
  2
OCTAGONP
 10
305.3500
 20
121.3700
 30
0.0000
 41
1.6764
 42
1.6764
 43
1.0000
 50
0.0000
  0
CIRCLE
  8
44
 10
305.3500
 20
121.3700
 30
0.0000
 40
0.5080
  0
INSERT
  8
17
  2
OCTAGONP
 10
307.8900
 20
118.8300
 30
0.0000
 41
1.6764
 42
1.6764
 43
1.0000
 50
0.0000
  0
INSERT
  8
17
  2
OCTAGONP
 10
307.8900
 20
118.8300
 30
0.0000
 41
1.6764
 42
1.6764
 43
1.0000
 50
0.0000
  0
CIRCLE
  8
44
 10
307.8900
 20
118.8300
 30
0.0000
 40
0.5080
  0
INSERT
  8
17
  2
OCTAGONP
 10
307.8900
 20
121.3700
 30
0.0000
 41
1.6764
 42
1.6764
 43
1.0000
 50
0.0000
  0
INSERT
  8
17
  2
OCTAGONP
 10
307.8900
 20
121.3700
 30
0.0000
 41
1.6764
 42
1.6764
 43
1.0000
 50
0.0000
  0
CIRCLE
  8
44
 10
307.8900
 20
121.3700
 30
0.0000
 40
0.5080
  0
INSERT
  8
17
  2
OCTAGONP
 10
310.4300
 20
118.8300
 30
0.0000
 41
1.6764
 42
1.6764
 43
1.0000
 50
0.0000
  0
INSERT
  8
17
  2
OCTAGONP
 10
310.4300
 20
118.8300
 30
0.0000
 41
1.6764
 42
1.6764
 43
1.0000
 50
0.0000
  0
CIRCLE
  8
44
 10
310.4300
 20
118.8300
 30
0.0000
 40
0.5080
  0
INSERT
  8
17
  2
OCTAGONP
 10
310.4300
 20
121.3700
 30
0.0000
 41
1.6764
 42
1.6764
 43
1.0000
 50
0.0000
  0
INSERT
  8
17
  2
OCTAGONP
 10
310.4300
 20
121.3700
 30
0.0000
 41
1.6764
 42
1.6764
 43
1.0000
 50
0.0000
  0
CIRCLE
  8
44
 10
310.4300
 20
121.3700
 30
0.0000
 40
0.5080
  0
INSERT
  8
17
  2
OCTAGONP
 10
312.9700
 20
118.8300
 30
0.0000
 41
1.6764
 42
1.6764
 43
1.0000
 50
0.0000
  0
INSERT
  8
17
  2
OCTAGONP
 10
312.9700
 20
118.8300
 30
0.0000
 41
1.6764
 42
1.6764
 43
1.0000
 50
0.0000
  0
CIRCLE
  8
44
 10
312.9700
 20
118.8300
 30
0.0000
 40
0.5080
  0
INSERT
  8
17
  2
OCTAGONP
 10
312.9700
 20
121.3700
 30
0.0000
 41
1.6764
 42
1.6764
 43
1.0000
 50
0.0000
  0
INSERT
  8
17
  2
OCTAGONP
 10
312.9700
 20
121.3700
 30
0.0000
 41
1.6764
 42
1.6764
 43
1.0000
 50
0.0000
  0
CIRCLE
  8
44
 10
312.9700
 20
121.3700
 30
0.0000
 40
0.5080
  0
CIRCLE
  8
20
 10
479.9000
 20
91.0000
 30
0.0000
 40
0.8000
  0
CIRCLE
  8
20
 10
472.9000
 20
91.0000
 30
0.0000
 40
0.8000
  0
CIRCLE
  8
20
 10
480.0000
 20
72.0000
 30
0.0000
 40
0.9000
  0
CIRCLE
  8
20
 10
480.0000
 20
58.0000
 30
0.0000
 40
0.9000
  0
CIRCLE
  8
20
 10
477.5000
 20
74.6000
 30
0.0000
 40
1.1500
  0
CIRCLE
  8
20
 10
477.5000
 20
55.4000
 30
0.0000
 40
1.1500
  0
INSERT
  8
17
  2
SQUAREP
 10
424.0000
 20
121.0000
 30
0.0000
 41
1.6500
 42
1.6500
 43
1.0000
 50
0.0000
  0
INSERT
  8
17
  2
SQUAREP
 10
424.0000
 20
121.0000
 30
0.0000
 41
1.6500
 42
1.6500
 43
1.0000
 50
0.0000
  0
CIRCLE
  8
44
 10
424.0000
 20
121.0000
 30
0.0000
 40
0.5500
  0
INSERT
  8
17
  2
OCTAGONP
 10
426.5400
 20
121.0000
 30
0.0000
 41
1.6500
 42
1.6500
 43
1.0000
 50
0.0000
  0
INSERT
  8
17
  2
OCTAGONP
 10
426.5400
 20
121.0000
 30
0.0000
 41
1.6500
 42
1.6500
 43
1.0000
 50
0.0000
  0
CIRCLE
  8
44
 10
426.5400
 20
121.0000
 30
0.0000
 40
0.5500
  0
INSERT
  8
17
  2
OCTAGONP
 10
429.0800
 20
121.0000
 30
0.0000
 41
1.6500
 42
1.6500
 43
1.0000
 50
0.0000
  0
INSERT
  8
17
  2
OCTAGONP
 10
429.0800
 20
121.0000
 30
0.0000
 41
1.6500
 42
1.6500
 43
1.0000
 50
0.0000
  0
CIRCLE
  8
44
 10
429.0800
 20
121.0000
 30
0.0000
 40
0.5500
  0
INSERT
  8
17
  2
OCTAGONP
 10
431.6200
 20
121.0000
 30
0.0000
 41
1.6500
 42
1.6500
 43
1.0000
 50
0.0000
  0
INSERT
  8
17
  2
OCTAGONP
 10
431.6200
 20
121.0000
 30
0.0000
 41
1.6500
 42
1.6500
 43
1.0000
 50
0.0000
  0
CIRCLE
  8
44
 10
431.6200
 20
121.0000
 30
0.0000
 40
0.5500
  0
INSERT
  8
17
  2
OCTAGONP
 10
434.1600
 20
121.0000
 30
0.0000
 41
1.6500
 42
1.6500
 43
1.0000
 50
0.0000
  0
INSERT
  8
17
  2
OCTAGONP
 10
434.1600
 20
121.0000
 30
0.0000
 41
1.6500
 42
1.6500
 43
1.0000
 50
0.0000
  0
CIRCLE
  8
44
 10
434.1600
 20
121.0000
 30
0.0000
 40
0.5500
  0
INSERT
  8
17
  2
OCTAGONP
 10
436.7000
 20
121.0000
 30
0.0000
 41
1.6500
 42
1.6500
 43
1.0000
 50
0.0000
  0
INSERT
  8
17
  2
OCTAGONP
 10
436.7000
 20
121.0000
 30
0.0000
 41
1.6500
 42
1.6500
 43
1.0000
 50
0.0000
  0
CIRCLE
  8
44
 10
436.7000
 20
121.0000
 30
0.0000
 40
0.5500
  0
INSERT
  8
17
  2
OCTAGONP
 10
439.2400
 20
121.0000
 30
0.0000
 41
1.6500
 42
1.6500
 43
1.0000
 50
0.0000
  0
INSERT
  8
17
  2
OCTAGONP
 10
439.2400
 20
121.0000
 30
0.0000
 41
1.6500
 42
1.6500
 43
1.0000
 50
0.0000
  0
CIRCLE
  8
44
 10
439.2400
 20
121.0000
 30
0.0000
 40
0.5500
  0
INSERT
  8
17
  2
OCTAGONP
 10
441.7800
 20
121.0000
 30
0.0000
 41
1.6500
 42
1.6500
 43
1.0000
 50
0.0000
  0
INSERT
  8
17
  2
OCTAGONP
 10
441.7800
 20
121.0000
 30
0.0000
 41
1.6500
 42
1.6500
 43
1.0000
 50
0.0000
  0
CIRCLE
  8
44
 10
441.7800
 20
121.0000
 30
0.0000
 40
0.5500
  0
INSERT
  8
17
  2
OCTAGONP
 10
444.3200
 20
121.0000
 30
0.0000
 41
1.6500
 42
1.6500
 43
1.0000
 50
0.0000
  0
INSERT
  8
17
  2
OCTAGONP
 10
444.3200
 20
121.0000
 30
0.0000
 41
1.6500
 42
1.6500
 43
1.0000
 50
0.0000
  0
CIRCLE
  8
44
 10
444.3200
 20
121.0000
 30
0.0000
 40
0.5500
  0
INSERT
  8
17
  2
OCTAGONP
 10
424.0000
 20
126.0800
 30
0.0000
 41
1.6500
 42
1.6500
 43
1.0000
 50
0.0000
  0
INSERT
  8
17
  2
OCTAGONP
 10
424.0000
 20
126.0800
 30
0.0000
 41
1.6500
 42
1.6500
 43
1.0000
 50
0.0000
  0
CIRCLE
  8
44
 10
424.0000
 20
126.0800
 30
0.0000
 40
0.5500
  0
INSERT
  8
17
  2
OCTAGONP
 10
426.5400
 20
126.0800
 30
0.0000
 41
1.6500
 42
1.6500
 43
1.0000
 50
0.0000
  0
INSERT
  8
17
  2
OCTAGONP
 10
426.5400
 20
126.0800
 30
0.0000
 41
1.6500
 42
1.6500
 43
1.0000
 50
0.0000
  0
CIRCLE
  8
44
 10
426.5400
 20
126.0800
 30
0.0000
 40
0.5500
  0
INSERT
  8
17
  2
OCTAGONP
 10
429.0800
 20
126.0800
 30
0.0000
 41
1.6500
 42
1.6500
 43
1.0000
 50
0.0000
  0
INSERT
  8
17
  2
OCTAGONP
 10
429.0800
 20
126.0800
 30
0.0000
 41
1.6500
 42
1.6500
 43
1.0000
 50
0.0000
  0
CIRCLE
  8
44
 10
429.0800
 20
126.0800
 30
0.0000
 40
0.5500
  0
INSERT
  8
17
  2
OCTAGONP
 10
431.6200
 20
126.0800
 30
0.0000
 41
1.6500
 42
1.6500
 43
1.0000
 50
0.0000
  0
INSERT
  8
17
  2
OCTAGONP
 10
431.6200
 20
126.0800
 30
0.0000
 41
1.6500
 42
1.6500
 43
1.0000
 50
0.0000
  0
CIRCLE
  8
44
 10
431.6200
 20
126.0800
 30
0.0000
 40
0.5500
  0
INSERT
  8
17
  2
OCTAGONP
 10
434.1600
 20
126.0800
 30
0.0000
 41
1.6500
 42
1.6500
 43
1.0000
 50
0.0000
  0
INSERT
  8
17
  2
OCTAGONP
 10
434.1600
 20
126.0800
 30
0.0000
 41
1.6500
 42
1.6500
 43
1.0000
 50
0.0000
  0
CIRCLE
  8
44
 10
434.1600
 20
126.0800
 30
0.0000
 40
0.5500
  0
INSERT
  8
17
  2
OCTAGONP
 10
436.7000
 20
126.0800
 30
0.0000
 41
1.6500
 42
1.6500
 43
1.0000
 50
0.0000
  0
INSERT
  8
17
  2
OCTAGONP
 10
436.7000
 20
126.0800
 30
0.0000
 41
1.6500
 42
1.6500
 43
1.0000
 50
0.0000
  0
CIRCLE
  8
44
 10
436.7000
 20
126.0800
 30
0.0000
 40
0.5500
  0
INSERT
  8
17
  2
OCTAGONP
 10
439.2400
 20
126.0800
 30
0.0000
 41
1.6500
 42
1.6500
 43
1.0000
 50
0.0000
  0
INSERT
  8
17
  2
OCTAGONP
 10
439.2400
 20
126.0800
 30
0.0000
 41
1.6500
 42
1.6500
 43
1.0000
 50
0.0000
  0
CIRCLE
  8
44
 10
439.2400
 20
126.0800
 30
0.0000
 40
0.5500
  0
INSERT
  8
17
  2
OCTAGONP
 10
441.7800
 20
126.0800
 30
0.0000
 41
1.6500
 42
1.6500
 43
1.0000
 50
0.0000
  0
INSERT
  8
17
  2
OCTAGONP
 10
441.7800
 20
126.0800
 30
0.0000
 41
1.6500
 42
1.6500
 43
1.0000
 50
0.0000
  0
CIRCLE
  8
44
 10
441.7800
 20
126.0800
 30
0.0000
 40
0.5500
  0
INSERT
  8
17
  2
OCTAGONP
 10
444.3200
 20
126.0800
 30
0.0000
 41
1.6500
 42
1.6500
 43
1.0000
 50
0.0000
  0
INSERT
  8
17
  2
OCTAGONP
 10
444.3200
 20
126.0800
 30
0.0000
 41
1.6500
 42
1.6500
 43
1.0000
 50
0.0000
  0
CIRCLE
  8
44
 10
444.3200
 20
126.0800
 30
0.0000
 40
0.5500
  0
INSERT
  8
17
  2
OCTAGONP
 10
451.1100
 20
118.8300
 30
0.0000
 41
1.6764
 42
1.6764
 43
1.0000
 50
0.0000
  0
INSERT
  8
17
  2
OCTAGONP
 10
451.1100
 20
118.8300
 30
0.0000
 41
1.6764
 42
1.6764
 43
1.0000
 50
0.0000
  0
CIRCLE
  8
44
 10
451.1100
 20
118.8300
 30
0.0000
 40
0.5080
  0
INSERT
  8
17
  2
OCTAGONP
 10
451.1100
 20
121.3700
 30
0.0000
 41
1.6764
 42
1.6764
 43
1.0000
 50
0.0000
  0
INSERT
  8
17
  2
OCTAGONP
 10
451.1100
 20
121.3700
 30
0.0000
 41
1.6764
 42
1.6764
 43
1.0000
 50
0.0000
  0
CIRCLE
  8
44
 10
451.1100
 20
121.3700
 30
0.0000
 40
0.5080
  0
INSERT
  8
17
  2
OCTAGONP
 10
453.6500
 20
118.8300
 30
0.0000
 41
1.6764
 42
1.6764
 43
1.0000
 50
0.0000
  0
INSERT
  8
17
  2
OCTAGONP
 10
453.6500
 20
118.8300
 30
0.0000
 41
1.6764
 42
1.6764
 43
1.0000
 50
0.0000
  0
CIRCLE
  8
44
 10
453.6500
 20
118.8300
 30
0.0000
 40
0.5080
  0
INSERT
  8
17
  2
OCTAGONP
 10
453.6500
 20
121.3700
 30
0.0000
 41
1.6764
 42
1.6764
 43
1.0000
 50
0.0000
  0
INSERT
  8
17
  2
OCTAGONP
 10
453.6500
 20
121.3700
 30
0.0000
 41
1.6764
 42
1.6764
 43
1.0000
 50
0.0000
  0
CIRCLE
  8
44
 10
453.6500
 20
121.3700
 30
0.0000
 40
0.5080
  0
INSERT
  8
17
  2
OCTAGONP
 10
456.1900
 20
118.8300
 30
0.0000
 41
1.6764
 42
1.6764
 43
1.0000
 50
0.0000
  0
INSERT
  8
17
  2
OCTAGONP
 10
456.1900
 20
118.8300
 30
0.0000
 41
1.6764
 42
1.6764
 43
1.0000
 50
0.0000
  0
CIRCLE
  8
44
 10
456.1900
 20
118.8300
 30
0.0000
 40
0.5080
  0
INSERT
  8
17
  2
OCTAGONP
 10
456.1900
 20
121.3700
 30
0.0000
 41
1.6764
 42
1.6764
 43
1.0000
 50
0.0000
  0
INSERT
  8
17
  2
OCTAGONP
 10
456.1900
 20
121.3700
 30
0.0000
 41
1.6764
 42
1.6764
 43
1.0000
 50
0.0000
  0
CIRCLE
  8
44
 10
456.1900
 20
121.3700
 30
0.0000
 40
0.5080
  0
INSERT
  8
17
  2
OCTAGONP
 10
458.7300
 20
118.8300
 30
0.0000
 41
1.6764
 42
1.6764
 43
1.0000
 50
0.0000
  0
INSERT
  8
17
  2
OCTAGONP
 10
458.7300
 20
118.8300
 30
0.0000
 41
1.6764
 42
1.6764
 43
1.0000
 50
0.0000
  0
CIRCLE
  8
44
 10
458.7300
 20
118.8300
 30
0.0000
 40
0.5080
  0
INSERT
  8
17
  2
OCTAGONP
 10
458.7300
 20
121.3700
 30
0.0000
 41
1.6764
 42
1.6764
 43
1.0000
 50
0.0000
  0
INSERT
  8
17
  2
OCTAGONP
 10
458.7300
 20
121.3700
 30
0.0000
 41
1.6764
 42
1.6764
 43
1.0000
 50
0.0000
  0
CIRCLE
  8
44
 10
458.7300
 20
121.3700
 30
0.0000
 40
0.5080
  0
INSERT
  8
17
  2
OCTAGONP
 10
461.2700
 20
118.8300
 30
0.0000
 41
1.6764
 42
1.6764
 43
1.0000
 50
0.0000
  0
INSERT
  8
17
  2
OCTAGONP
 10
461.2700
 20
118.8300
 30
0.0000
 41
1.6764
 42
1.6764
 43
1.0000
 50
0.0000
  0
CIRCLE
  8
44
 10
461.2700
 20
118.8300
 30
0.0000
 40
0.5080
  0
INSERT
  8
17
  2
OCTAGONP
 10
461.2700
 20
121.3700
 30
0.0000
 41
1.6764
 42
1.6764
 43
1.0000
 50
0.0000
  0
INSERT
  8
17
  2
OCTAGONP
 10
461.2700
 20
121.3700
 30
0.0000
 41
1.6764
 42
1.6764
 43
1.0000
 50
0.0000
  0
CIRCLE
  8
44
 10
461.2700
 20
121.3700
 30
0.0000
 40
0.5080
  0
INSERT
  8
17
  2
OCTAGONP
 10
463.8100
 20
118.8300
 30
0.0000
 41
1.6764
 42
1.6764
 43
1.0000
 50
0.0000
  0
INSERT
  8
17
  2
OCTAGONP
 10
463.8100
 20
118.8300
 30
0.0000
 41
1.6764
 42
1.6764
 43
1.0000
 50
0.0000
  0
CIRCLE
  8
44
 10
463.8100
 20
118.8300
 30
0.0000
 40
0.5080
  0
INSERT
  8
17
  2
OCTAGONP
 10
463.8100
 20
121.3700
 30
0.0000
 41
1.6764
 42
1.6764
 43
1.0000
 50
0.0000
  0
INSERT
  8
17
  2
OCTAGONP
 10
463.8100
 20
121.3700
 30
0.0000
 41
1.6764
 42
1.6764
 43
1.0000
 50
0.0000
  0
CIRCLE
  8
44
 10
463.8100
 20
121.3700
 30
0.0000
 40
0.5080
  0
INSERT
  8
17
  2
OCTAGONP
 10
466.3500
 20
118.8300
 30
0.0000
 41
1.6764
 42
1.6764
 43
1.0000
 50
0.0000
  0
INSERT
  8
17
  2
OCTAGONP
 10
466.3500
 20
118.8300
 30
0.0000
 41
1.6764
 42
1.6764
 43
1.0000
 50
0.0000
  0
CIRCLE
  8
44
 10
466.3500
 20
118.8300
 30
0.0000
 40
0.5080
  0
INSERT
  8
17
  2
OCTAGONP
 10
466.3500
 20
121.3700
 30
0.0000
 41
1.6764
 42
1.6764
 43
1.0000
 50
0.0000
  0
INSERT
  8
17
  2
OCTAGONP
 10
466.3500
 20
121.3700
 30
0.0000
 41
1.6764
 42
1.6764
 43
1.0000
 50
0.0000
  0
CIRCLE
  8
44
 10
466.3500
 20
121.3700
 30
0.0000
 40
0.5080
  0
INSERT
  8
17
  2
OCTAGONP
 10
468.8900
 20
118.8300
 30
0.0000
 41
1.6764
 42
1.6764
 43
1.0000
 50
0.0000
  0
INSERT
  8
17
  2
OCTAGONP
 10
468.8900
 20
118.8300
 30
0.0000
 41
1.6764
 42
1.6764
 43
1.0000
 50
0.0000
  0
CIRCLE
  8
44
 10
468.8900
 20
118.8300
 30
0.0000
 40
0.5080
  0
INSERT
  8
17
  2
OCTAGONP
 10
468.8900
 20
121.3700
 30
0.0000
 41
1.6764
 42
1.6764
 43
1.0000
 50
0.0000
  0
INSERT
  8
17
  2
OCTAGONP
 10
468.8900
 20
121.3700
 30
0.0000
 41
1.6764
 42
1.6764
 43
1.0000
 50
0.0000
  0
CIRCLE
  8
44
 10
468.8900
 20
121.3700
 30
0.0000
 40
0.5080
  0
INSERT
  8
17
  2
SQUAREP
 10
395.0000
 20
121.0000
 30
0.0000
 41
1.6500
 42
1.6500
 43
1.0000
 50
0.0000
  0
INSERT
  8
17
  2
SQUAREP
 10
395.0000
 20
121.0000
 30
0.0000
 41
1.6500
 42
1.6500
 43
1.0000
 50
0.0000
  0
CIRCLE
  8
44
 10
395.0000
 20
121.0000
 30
0.0000
 40
0.5500
  0
INSERT
  8
17
  2
OCTAGONP
 10
397.5400
 20
121.0000
 30
0.0000
 41
1.6500
 42
1.6500
 43
1.0000
 50
0.0000
  0
INSERT
  8
17
  2
OCTAGONP
 10
397.5400
 20
121.0000
 30
0.0000
 41
1.6500
 42
1.6500
 43
1.0000
 50
0.0000
  0
CIRCLE
  8
44
 10
397.5400
 20
121.0000
 30
0.0000
 40
0.5500
  0
INSERT
  8
17
  2
OCTAGONP
 10
400.0800
 20
121.0000
 30
0.0000
 41
1.6500
 42
1.6500
 43
1.0000
 50
0.0000
  0
INSERT
  8
17
  2
OCTAGONP
 10
400.0800
 20
121.0000
 30
0.0000
 41
1.6500
 42
1.6500
 43
1.0000
 50
0.0000
  0
CIRCLE
  8
44
 10
400.0800
 20
121.0000
 30
0.0000
 40
0.5500
  0
INSERT
  8
17
  2
OCTAGONP
 10
402.6200
 20
121.0000
 30
0.0000
 41
1.6500
 42
1.6500
 43
1.0000
 50
0.0000
  0
INSERT
  8
17
  2
OCTAGONP
 10
402.6200
 20
121.0000
 30
0.0000
 41
1.6500
 42
1.6500
 43
1.0000
 50
0.0000
  0
CIRCLE
  8
44
 10
402.6200
 20
121.0000
 30
0.0000
 40
0.5500
  0
INSERT
  8
17
  2
OCTAGONP
 10
405.1600
 20
121.0000
 30
0.0000
 41
1.6500
 42
1.6500
 43
1.0000
 50
0.0000
  0
INSERT
  8
17
  2
OCTAGONP
 10
405.1600
 20
121.0000
 30
0.0000
 41
1.6500
 42
1.6500
 43
1.0000
 50
0.0000
  0
CIRCLE
  8
44
 10
405.1600
 20
121.0000
 30
0.0000
 40
0.5500
  0
INSERT
  8
17
  2
OCTAGONP
 10
407.7000
 20
121.0000
 30
0.0000
 41
1.6500
 42
1.6500
 43
1.0000
 50
0.0000
  0
INSERT
  8
17
  2
OCTAGONP
 10
407.7000
 20
121.0000
 30
0.0000
 41
1.6500
 42
1.6500
 43
1.0000
 50
0.0000
  0
CIRCLE
  8
44
 10
407.7000
 20
121.0000
 30
0.0000
 40
0.5500
  0
INSERT
  8
17
  2
OCTAGONP
 10
410.2400
 20
121.0000
 30
0.0000
 41
1.6500
 42
1.6500
 43
1.0000
 50
0.0000
  0
INSERT
  8
17
  2
OCTAGONP
 10
410.2400
 20
121.0000
 30
0.0000
 41
1.6500
 42
1.6500
 43
1.0000
 50
0.0000
  0
CIRCLE
  8
44
 10
410.2400
 20
121.0000
 30
0.0000
 40
0.5500
  0
INSERT
  8
17
  2
OCTAGONP
 10
412.7800
 20
121.0000
 30
0.0000
 41
1.6500
 42
1.6500
 43
1.0000
 50
0.0000
  0
INSERT
  8
17
  2
OCTAGONP
 10
412.7800
 20
121.0000
 30
0.0000
 41
1.6500
 42
1.6500
 43
1.0000
 50
0.0000
  0
CIRCLE
  8
44
 10
412.7800
 20
121.0000
 30
0.0000
 40
0.5500
  0
INSERT
  8
17
  2
OCTAGONP
 10
415.3200
 20
121.0000
 30
0.0000
 41
1.6500
 42
1.6500
 43
1.0000
 50
0.0000
  0
INSERT
  8
17
  2
OCTAGONP
 10
415.3200
 20
121.0000
 30
0.0000
 41
1.6500
 42
1.6500
 43
1.0000
 50
0.0000
  0
CIRCLE
  8
44
 10
415.3200
 20
121.0000
 30
0.0000
 40
0.5500
  0
INSERT
  8
17
  2
OCTAGONP
 10
395.0000
 20
126.0800
 30
0.0000
 41
1.6500
 42
1.6500
 43
1.0000
 50
0.0000
  0
INSERT
  8
17
  2
OCTAGONP
 10
395.0000
 20
126.0800
 30
0.0000
 41
1.6500
 42
1.6500
 43
1.0000
 50
0.0000
  0
CIRCLE
  8
44
 10
395.0000
 20
126.0800
 30
0.0000
 40
0.5500
  0
INSERT
  8
17
  2
OCTAGONP
 10
397.5400
 20
126.0800
 30
0.0000
 41
1.6500
 42
1.6500
 43
1.0000
 50
0.0000
  0
INSERT
  8
17
  2
OCTAGONP
 10
397.5400
 20
126.0800
 30
0.0000
 41
1.6500
 42
1.6500
 43
1.0000
 50
0.0000
  0
CIRCLE
  8
44
 10
397.5400
 20
126.0800
 30
0.0000
 40
0.5500
  0
INSERT
  8
17
  2
OCTAGONP
 10
400.0800
 20
126.0800
 30
0.0000
 41
1.6500
 42
1.6500
 43
1.0000
 50
0.0000
  0
INSERT
  8
17
  2
OCTAGONP
 10
400.0800
 20
126.0800
 30
0.0000
 41
1.6500
 42
1.6500
 43
1.0000
 50
0.0000
  0
CIRCLE
  8
44
 10
400.0800
 20
126.0800
 30
0.0000
 40
0.5500
  0
INSERT
  8
17
  2
OCTAGONP
 10
402.6200
 20
126.0800
 30
0.0000
 41
1.6500
 42
1.6500
 43
1.0000
 50
0.0000
  0
INSERT
  8
17
  2
OCTAGONP
 10
402.6200
 20
126.0800
 30
0.0000
 41
1.6500
 42
1.6500
 43
1.0000
 50
0.0000
  0
CIRCLE
  8
44
 10
402.6200
 20
126.0800
 30
0.0000
 40
0.5500
  0
INSERT
  8
17
  2
OCTAGONP
 10
405.1600
 20
126.0800
 30
0.0000
 41
1.6500
 42
1.6500
 43
1.0000
 50
0.0000
  0
INSERT
  8
17
  2
OCTAGONP
 10
405.1600
 20
126.0800
 30
0.0000
 41
1.6500
 42
1.6500
 43
1.0000
 50
0.0000
  0
CIRCLE
  8
44
 10
405.1600
 20
126.0800
 30
0.0000
 40
0.5500
  0
INSERT
  8
17
  2
OCTAGONP
 10
407.7000
 20
126.0800
 30
0.0000
 41
1.6500
 42
1.6500
 43
1.0000
 50
0.0000
  0
INSERT
  8
17
  2
OCTAGONP
 10
407.7000
 20
126.0800
 30
0.0000
 41
1.6500
 42
1.6500
 43
1.0000
 50
0.0000
  0
CIRCLE
  8
44
 10
407.7000
 20
126.0800
 30
0.0000
 40
0.5500
  0
INSERT
  8
17
  2
OCTAGONP
 10
410.2400
 20
126.0800
 30
0.0000
 41
1.6500
 42
1.6500
 43
1.0000
 50
0.0000
  0
INSERT
  8
17
  2
OCTAGONP
 10
410.2400
 20
126.0800
 30
0.0000
 41
1.6500
 42
1.6500
 43
1.0000
 50
0.0000
  0
CIRCLE
  8
44
 10
410.2400
 20
126.0800
 30
0.0000
 40
0.5500
  0
INSERT
  8
17
  2
OCTAGONP
 10
412.7800
 20
126.0800
 30
0.0000
 41
1.6500
 42
1.6500
 43
1.0000
 50
0.0000
  0
INSERT
  8
17
  2
OCTAGONP
 10
412.7800
 20
126.0800
 30
0.0000
 41
1.6500
 42
1.6500
 43
1.0000
 50
0.0000
  0
CIRCLE
  8
44
 10
412.7800
 20
126.0800
 30
0.0000
 40
0.5500
  0
INSERT
  8
17
  2
OCTAGONP
 10
415.3200
 20
126.0800
 30
0.0000
 41
1.6500
 42
1.6500
 43
1.0000
 50
0.0000
  0
INSERT
  8
17
  2
OCTAGONP
 10
415.3200
 20
126.0800
 30
0.0000
 41
1.6500
 42
1.6500
 43
1.0000
 50
0.0000
  0
CIRCLE
  8
44
 10
415.3200
 20
126.0800
 30
0.0000
 40
0.5500
  0
INSERT
  8
17
  2
OCTAGONP
 10
370.1100
 20
118.8300
 30
0.0000
 41
1.6764
 42
1.6764
 43
1.0000
 50
0.0000
  0
INSERT
  8
17
  2
OCTAGONP
 10
370.1100
 20
118.8300
 30
0.0000
 41
1.6764
 42
1.6764
 43
1.0000
 50
0.0000
  0
CIRCLE
  8
44
 10
370.1100
 20
118.8300
 30
0.0000
 40
0.5080
  0
INSERT
  8
17
  2
OCTAGONP
 10
370.1100
 20
121.3700
 30
0.0000
 41
1.6764
 42
1.6764
 43
1.0000
 50
0.0000
  0
INSERT
  8
17
  2
OCTAGONP
 10
370.1100
 20
121.3700
 30
0.0000
 41
1.6764
 42
1.6764
 43
1.0000
 50
0.0000
  0
CIRCLE
  8
44
 10
370.1100
 20
121.3700
 30
0.0000
 40
0.5080
  0
INSERT
  8
17
  2
OCTAGONP
 10
372.6500
 20
118.8300
 30
0.0000
 41
1.6764
 42
1.6764
 43
1.0000
 50
0.0000
  0
INSERT
  8
17
  2
OCTAGONP
 10
372.6500
 20
118.8300
 30
0.0000
 41
1.6764
 42
1.6764
 43
1.0000
 50
0.0000
  0
CIRCLE
  8
44
 10
372.6500
 20
118.8300
 30
0.0000
 40
0.5080
  0
INSERT
  8
17
  2
OCTAGONP
 10
372.6500
 20
121.3700
 30
0.0000
 41
1.6764
 42
1.6764
 43
1.0000
 50
0.0000
  0
INSERT
  8
17
  2
OCTAGONP
 10
372.6500
 20
121.3700
 30
0.0000
 41
1.6764
 42
1.6764
 43
1.0000
 50
0.0000
  0
CIRCLE
  8
44
 10
372.6500
 20
121.3700
 30
0.0000
 40
0.5080
  0
INSERT
  8
17
  2
OCTAGONP
 10
375.1900
 20
118.8300
 30
0.0000
 41
1.6764
 42
1.6764
 43
1.0000
 50
0.0000
  0
INSERT
  8
17
  2
OCTAGONP
 10
375.1900
 20
118.8300
 30
0.0000
 41
1.6764
 42
1.6764
 43
1.0000
 50
0.0000
  0
CIRCLE
  8
44
 10
375.1900
 20
118.8300
 30
0.0000
 40
0.5080
  0
INSERT
  8
17
  2
OCTAGONP
 10
375.1900
 20
121.3700
 30
0.0000
 41
1.6764
 42
1.6764
 43
1.0000
 50
0.0000
  0
INSERT
  8
17
  2
OCTAGONP
 10
375.1900
 20
121.3700
 30
0.0000
 41
1.6764
 42
1.6764
 43
1.0000
 50
0.0000
  0
CIRCLE
  8
44
 10
375.1900
 20
121.3700
 30
0.0000
 40
0.5080
  0
INSERT
  8
17
  2
OCTAGONP
 10
377.7300
 20
118.8300
 30
0.0000
 41
1.6764
 42
1.6764
 43
1.0000
 50
0.0000
  0
INSERT
  8
17
  2
OCTAGONP
 10
377.7300
 20
118.8300
 30
0.0000
 41
1.6764
 42
1.6764
 43
1.0000
 50
0.0000
  0
CIRCLE
  8
44
 10
377.7300
 20
118.8300
 30
0.0000
 40
0.5080
  0
INSERT
  8
17
  2
OCTAGONP
 10
377.7300
 20
121.3700
 30
0.0000
 41
1.6764
 42
1.6764
 43
1.0000
 50
0.0000
  0
INSERT
  8
17
  2
OCTAGONP
 10
377.7300
 20
121.3700
 30
0.0000
 41
1.6764
 42
1.6764
 43
1.0000
 50
0.0000
  0
CIRCLE
  8
44
 10
377.7300
 20
121.3700
 30
0.0000
 40
0.5080
  0
INSERT
  8
17
  2
OCTAGONP
 10
380.2700
 20
118.8300
 30
0.0000
 41
1.6764
 42
1.6764
 43
1.0000
 50
0.0000
  0
INSERT
  8
17
  2
OCTAGONP
 10
380.2700
 20
118.8300
 30
0.0000
 41
1.6764
 42
1.6764
 43
1.0000
 50
0.0000
  0
CIRCLE
  8
44
 10
380.2700
 20
118.8300
 30
0.0000
 40
0.5080
  0
INSERT
  8
17
  2
OCTAGONP
 10
380.2700
 20
121.3700
 30
0.0000
 41
1.6764
 42
1.6764
 43
1.0000
 50
0.0000
  0
INSERT
  8
17
  2
OCTAGONP
 10
380.2700
 20
121.3700
 30
0.0000
 41
1.6764
 42
1.6764
 43
1.0000
 50
0.0000
  0
CIRCLE
  8
44
 10
380.2700
 20
121.3700
 30
0.0000
 40
0.5080
  0
INSERT
  8
17
  2
OCTAGONP
 10
382.8100
 20
118.8300
 30
0.0000
 41
1.6764
 42
1.6764
 43
1.0000
 50
0.0000
  0
INSERT
  8
17
  2
OCTAGONP
 10
382.8100
 20
118.8300
 30
0.0000
 41
1.6764
 42
1.6764
 43
1.0000
 50
0.0000
  0
CIRCLE
  8
44
 10
382.8100
 20
118.8300
 30
0.0000
 40
0.5080
  0
INSERT
  8
17
  2
OCTAGONP
 10
382.8100
 20
121.3700
 30
0.0000
 41
1.6764
 42
1.6764
 43
1.0000
 50
0.0000
  0
INSERT
  8
17
  2
OCTAGONP
 10
382.8100
 20
121.3700
 30
0.0000
 41
1.6764
 42
1.6764
 43
1.0000
 50
0.0000
  0
CIRCLE
  8
44
 10
382.8100
 20
121.3700
 30
0.0000
 40
0.5080
  0
INSERT
  8
17
  2
OCTAGONP
 10
385.3500
 20
118.8300
 30
0.0000
 41
1.6764
 42
1.6764
 43
1.0000
 50
0.0000
  0
INSERT
  8
17
  2
OCTAGONP
 10
385.3500
 20
118.8300
 30
0.0000
 41
1.6764
 42
1.6764
 43
1.0000
 50
0.0000
  0
CIRCLE
  8
44
 10
385.3500
 20
118.8300
 30
0.0000
 40
0.5080
  0
INSERT
  8
17
  2
OCTAGONP
 10
385.3500
 20
121.3700
 30
0.0000
 41
1.6764
 42
1.6764
 43
1.0000
 50
0.0000
  0
INSERT
  8
17
  2
OCTAGONP
 10
385.3500
 20
121.3700
 30
0.0000
 41
1.6764
 42
1.6764
 43
1.0000
 50
0.0000
  0
CIRCLE
  8
44
 10
385.3500
 20
121.3700
 30
0.0000
 40
0.5080
  0
INSERT
  8
17
  2
OCTAGONP
 10
387.8900
 20
118.8300
 30
0.0000
 41
1.6764
 42
1.6764
 43
1.0000
 50
0.0000
  0
INSERT
  8
17
  2
OCTAGONP
 10
387.8900
 20
118.8300
 30
0.0000
 41
1.6764
 42
1.6764
 43
1.0000
 50
0.0000
  0
CIRCLE
  8
44
 10
387.8900
 20
118.8300
 30
0.0000
 40
0.5080
  0
INSERT
  8
17
  2
OCTAGONP
 10
387.8900
 20
121.3700
 30
0.0000
 41
1.6764
 42
1.6764
 43
1.0000
 50
0.0000
  0
INSERT
  8
17
  2
OCTAGONP
 10
387.8900
 20
121.3700
 30
0.0000
 41
1.6764
 42
1.6764
 43
1.0000
 50
0.0000
  0
CIRCLE
  8
44
 10
387.8900
 20
121.3700
 30
0.0000
 40
0.5080
  0
INSERT
  8
17
  2
LONGP100
 10
324.7000
 20
24.5000
 30
0.0000
 41
2.7750
 42
2.7750
 43
1.0000
 50
270.0000
  0
INSERT
  8
17
  2
LONGP100
 10
324.7000
 20
24.5000
 30
0.0000
 41
2.7750
 42
2.7750
 43
1.0000
 50
270.0000
  0
CIRCLE
  8
44
 10
324.7000
 20
24.5000
 30
0.0000
 40
0.9250
  0
INSERT
  8
17
  2
LONGP100
 10
329.4000
 20
24.5000
 30
0.0000
 41
2.7750
 42
2.7750
 43
1.0000
 50
270.0000
  0
INSERT
  8
17
  2
LONGP100
 10
329.4000
 20
24.5000
 30
0.0000
 41
2.7750
 42
2.7750
 43
1.0000
 50
270.0000
  0
CIRCLE
  8
44
 10
329.4000
 20
24.5000
 30
0.0000
 40
0.9250
  0
INSERT
  8
17
  2
LONGP100
 10
320.0000
 20
24.5000
 30
0.0000
 41
2.7750
 42
2.7750
 43
1.0000
 50
270.0000
  0
INSERT
  8
17
  2
LONGP100
 10
320.0000
 20
24.5000
 30
0.0000
 41
2.7750
 42
2.7750
 43
1.0000
 50
270.0000
  0
CIRCLE
  8
44
 10
320.0000
 20
24.5000
 30
0.0000
 40
0.9250
  0
INSERT
  8
17
  2
ROUNDP
 10
332.5750
 20
26.0900
 30
0.0000
 41
2.7750
 42
2.7750
 43
1.0000
 50
270.0000
  0
INSERT
  8
17
  2
ROUNDP
 10
332.5750
 20
26.0900
 30
0.0000
 41
2.7750
 42
2.7750
 43
1.0000
 50
270.0000
  0
CIRCLE
  8
44
 10
332.5750
 20
26.0900
 30
0.0000
 40
0.9250
  0
INSERT
  8
17
  2
ROUNDP
 10
332.5750
 20
22.9100
 30
0.0000
 41
2.7750
 42
2.7750
 43
1.0000
 50
270.0000
  0
INSERT
  8
17
  2
ROUNDP
 10
332.5750
 20
22.9100
 30
0.0000
 41
2.7750
 42
2.7750
 43
1.0000
 50
270.0000
  0
CIRCLE
  8
44
 10
332.5750
 20
22.9100
 30
0.0000
 40
0.9250
  0
INSERT
  8
17
  2
ROUNDP
 10
316.8250
 20
26.0900
 30
0.0000
 41
2.7750
 42
2.7750
 43
1.0000
 50
270.0000
  0
INSERT
  8
17
  2
ROUNDP
 10
316.8250
 20
26.0900
 30
0.0000
 41
2.7750
 42
2.7750
 43
1.0000
 50
270.0000
  0
CIRCLE
  8
44
 10
316.8250
 20
26.0900
 30
0.0000
 40
0.9250
  0
INSERT
  8
17
  2
ROUNDP
 10
316.8250
 20
22.9100
 30
0.0000
 41
2.7750
 42
2.7750
 43
1.0000
 50
270.0000
  0
INSERT
  8
17
  2
ROUNDP
 10
316.8250
 20
22.9100
 30
0.0000
 41
2.7750
 42
2.7750
 43
1.0000
 50
270.0000
  0
CIRCLE
  8
44
 10
316.8250
 20
22.9100
 30
0.0000
 40
0.9250
  0
INSERT
  8
17
  2
LONGP100
 10
324.7000
 20
49.5000
 30
0.0000
 41
2.7750
 42
2.7750
 43
1.0000
 50
270.0000
  0
INSERT
  8
17
  2
LONGP100
 10
324.7000
 20
49.5000
 30
0.0000
 41
2.7750
 42
2.7750
 43
1.0000
 50
270.0000
  0
CIRCLE
  8
44
 10
324.7000
 20
49.5000
 30
0.0000
 40
0.9250
  0
INSERT
  8
17
  2
LONGP100
 10
329.4000
 20
49.5000
 30
0.0000
 41
2.7750
 42
2.7750
 43
1.0000
 50
270.0000
  0
INSERT
  8
17
  2
LONGP100
 10
329.4000
 20
49.5000
 30
0.0000
 41
2.7750
 42
2.7750
 43
1.0000
 50
270.0000
  0
CIRCLE
  8
44
 10
329.4000
 20
49.5000
 30
0.0000
 40
0.9250
  0
INSERT
  8
17
  2
LONGP100
 10
320.0000
 20
49.5000
 30
0.0000
 41
2.7750
 42
2.7750
 43
1.0000
 50
270.0000
  0
INSERT
  8
17
  2
LONGP100
 10
320.0000
 20
49.5000
 30
0.0000
 41
2.7750
 42
2.7750
 43
1.0000
 50
270.0000
  0
CIRCLE
  8
44
 10
320.0000
 20
49.5000
 30
0.0000
 40
0.9250
  0
INSERT
  8
17
  2
ROUNDP
 10
332.5750
 20
51.0900
 30
0.0000
 41
2.7750
 42
2.7750
 43
1.0000
 50
270.0000
  0
INSERT
  8
17
  2
ROUNDP
 10
332.5750
 20
51.0900
 30
0.0000
 41
2.7750
 42
2.7750
 43
1.0000
 50
270.0000
  0
CIRCLE
  8
44
 10
332.5750
 20
51.0900
 30
0.0000
 40
0.9250
  0
INSERT
  8
17
  2
ROUNDP
 10
332.5750
 20
47.9100
 30
0.0000
 41
2.7750
 42
2.7750
 43
1.0000
 50
270.0000
  0
INSERT
  8
17
  2
ROUNDP
 10
332.5750
 20
47.9100
 30
0.0000
 41
2.7750
 42
2.7750
 43
1.0000
 50
270.0000
  0
CIRCLE
  8
44
 10
332.5750
 20
47.9100
 30
0.0000
 40
0.9250
  0
INSERT
  8
17
  2
ROUNDP
 10
316.8250
 20
51.0900
 30
0.0000
 41
2.7750
 42
2.7750
 43
1.0000
 50
270.0000
  0
INSERT
  8
17
  2
ROUNDP
 10
316.8250
 20
51.0900
 30
0.0000
 41
2.7750
 42
2.7750
 43
1.0000
 50
270.0000
  0
CIRCLE
  8
44
 10
316.8250
 20
51.0900
 30
0.0000
 40
0.9250
  0
INSERT
  8
17
  2
ROUNDP
 10
316.8250
 20
47.9100
 30
0.0000
 41
2.7750
 42
2.7750
 43
1.0000
 50
270.0000
  0
INSERT
  8
17
  2
ROUNDP
 10
316.8250
 20
47.9100
 30
0.0000
 41
2.7750
 42
2.7750
 43
1.0000
 50
270.0000
  0
CIRCLE
  8
44
 10
316.8250
 20
47.9100
 30
0.0000
 40
0.9250
  0
INSERT
  8
17
  2
LONGP100
 10
324.7000
 20
74.5000
 30
0.0000
 41
2.7750
 42
2.7750
 43
1.0000
 50
270.0000
  0
INSERT
  8
17
  2
LONGP100
 10
324.7000
 20
74.5000
 30
0.0000
 41
2.7750
 42
2.7750
 43
1.0000
 50
270.0000
  0
CIRCLE
  8
44
 10
324.7000
 20
74.5000
 30
0.0000
 40
0.9250
  0
INSERT
  8
17
  2
LONGP100
 10
329.4000
 20
74.5000
 30
0.0000
 41
2.7750
 42
2.7750
 43
1.0000
 50
270.0000
  0
INSERT
  8
17
  2
LONGP100
 10
329.4000
 20
74.5000
 30
0.0000
 41
2.7750
 42
2.7750
 43
1.0000
 50
270.0000
  0
CIRCLE
  8
44
 10
329.4000
 20
74.5000
 30
0.0000
 40
0.9250
  0
INSERT
  8
17
  2
LONGP100
 10
320.0000
 20
74.5000
 30
0.0000
 41
2.7750
 42
2.7750
 43
1.0000
 50
270.0000
  0
INSERT
  8
17
  2
LONGP100
 10
320.0000
 20
74.5000
 30
0.0000
 41
2.7750
 42
2.7750
 43
1.0000
 50
270.0000
  0
CIRCLE
  8
44
 10
320.0000
 20
74.5000
 30
0.0000
 40
0.9250
  0
INSERT
  8
17
  2
ROUNDP
 10
332.5750
 20
76.0900
 30
0.0000
 41
2.7750
 42
2.7750
 43
1.0000
 50
270.0000
  0
INSERT
  8
17
  2
ROUNDP
 10
332.5750
 20
76.0900
 30
0.0000
 41
2.7750
 42
2.7750
 43
1.0000
 50
270.0000
  0
CIRCLE
  8
44
 10
332.5750
 20
76.0900
 30
0.0000
 40
0.9250
  0
INSERT
  8
17
  2
ROUNDP
 10
332.5750
 20
72.9100
 30
0.0000
 41
2.7750
 42
2.7750
 43
1.0000
 50
270.0000
  0
INSERT
  8
17
  2
ROUNDP
 10
332.5750
 20
72.9100
 30
0.0000
 41
2.7750
 42
2.7750
 43
1.0000
 50
270.0000
  0
CIRCLE
  8
44
 10
332.5750
 20
72.9100
 30
0.0000
 40
0.9250
  0
INSERT
  8
17
  2
ROUNDP
 10
316.8250
 20
76.0900
 30
0.0000
 41
2.7750
 42
2.7750
 43
1.0000
 50
270.0000
  0
INSERT
  8
17
  2
ROUNDP
 10
316.8250
 20
76.0900
 30
0.0000
 41
2.7750
 42
2.7750
 43
1.0000
 50
270.0000
  0
CIRCLE
  8
44
 10
316.8250
 20
76.0900
 30
0.0000
 40
0.9250
  0
INSERT
  8
17
  2
ROUNDP
 10
316.8250
 20
72.9100
 30
0.0000
 41
2.7750
 42
2.7750
 43
1.0000
 50
270.0000
  0
INSERT
  8
17
  2
ROUNDP
 10
316.8250
 20
72.9100
 30
0.0000
 41
2.7750
 42
2.7750
 43
1.0000
 50
270.0000
  0
CIRCLE
  8
44
 10
316.8250
 20
72.9100
 30
0.0000
 40
0.9250
  0
INSERT
  8
17
  2
LONGP100
 10
324.7000
 20
99.5000
 30
0.0000
 41
2.7750
 42
2.7750
 43
1.0000
 50
270.0000
  0
INSERT
  8
17
  2
LONGP100
 10
324.7000
 20
99.5000
 30
0.0000
 41
2.7750
 42
2.7750
 43
1.0000
 50
270.0000
  0
CIRCLE
  8
44
 10
324.7000
 20
99.5000
 30
0.0000
 40
0.9250
  0
INSERT
  8
17
  2
LONGP100
 10
329.4000
 20
99.5000
 30
0.0000
 41
2.7750
 42
2.7750
 43
1.0000
 50
270.0000
  0
INSERT
  8
17
  2
LONGP100
 10
329.4000
 20
99.5000
 30
0.0000
 41
2.7750
 42
2.7750
 43
1.0000
 50
270.0000
  0
CIRCLE
  8
44
 10
329.4000
 20
99.5000
 30
0.0000
 40
0.9250
  0
INSERT
  8
17
  2
LONGP100
 10
320.0000
 20
99.5000
 30
0.0000
 41
2.7750
 42
2.7750
 43
1.0000
 50
270.0000
  0
INSERT
  8
17
  2
LONGP100
 10
320.0000
 20
99.5000
 30
0.0000
 41
2.7750
 42
2.7750
 43
1.0000
 50
270.0000
  0
CIRCLE
  8
44
 10
320.0000
 20
99.5000
 30
0.0000
 40
0.9250
  0
INSERT
  8
17
  2
ROUNDP
 10
332.5750
 20
101.0900
 30
0.0000
 41
2.7750
 42
2.7750
 43
1.0000
 50
270.0000
  0
INSERT
  8
17
  2
ROUNDP
 10
332.5750
 20
101.0900
 30
0.0000
 41
2.7750
 42
2.7750
 43
1.0000
 50
270.0000
  0
CIRCLE
  8
44
 10
332.5750
 20
101.0900
 30
0.0000
 40
0.9250
  0
INSERT
  8
17
  2
ROUNDP
 10
332.5750
 20
97.9100
 30
0.0000
 41
2.7750
 42
2.7750
 43
1.0000
 50
270.0000
  0
INSERT
  8
17
  2
ROUNDP
 10
332.5750
 20
97.9100
 30
0.0000
 41
2.7750
 42
2.7750
 43
1.0000
 50
270.0000
  0
CIRCLE
  8
44
 10
332.5750
 20
97.9100
 30
0.0000
 40
0.9250
  0
INSERT
  8
17
  2
ROUNDP
 10
316.8250
 20
101.0900
 30
0.0000
 41
2.7750
 42
2.7750
 43
1.0000
 50
270.0000
  0
INSERT
  8
17
  2
ROUNDP
 10
316.8250
 20
101.0900
 30
0.0000
 41
2.7750
 42
2.7750
 43
1.0000
 50
270.0000
  0
CIRCLE
  8
44
 10
316.8250
 20
101.0900
 30
0.0000
 40
0.9250
  0
INSERT
  8
17
  2
ROUNDP
 10
316.8250
 20
97.9100
 30
0.0000
 41
2.7750
 42
2.7750
 43
1.0000
 50
270.0000
  0
INSERT
  8
17
  2
ROUNDP
 10
316.8250
 20
97.9100
 30
0.0000
 41
2.7750
 42
2.7750
 43
1.0000
 50
270.0000
  0
CIRCLE
  8
44
 10
316.8250
 20
97.9100
 30
0.0000
 40
0.9250
  0
CIRCLE
  8
20
 10
357.0000
 20
61.0000
 30
0.0000
 40
2.0002
  0
INSERT
  8
17
  2
ROUNDP
 10
357.0000
 20
55.9200
 30
0.0000
 41
2.5716
 42
2.5716
 43
1.0000
 50
90.0000
  0
INSERT
  8
17
  2
ROUNDP
 10
357.0000
 20
55.9200
 30
0.0000
 41
2.5716
 42
2.5716
 43
1.0000
 50
90.0000
  0
CIRCLE
  8
44
 10
357.0000
 20
55.9200
 30
0.0000
 40
0.8572
  0
INSERT
  8
17
  2
ROUNDP
 10
357.0000
 20
66.0800
 30
0.0000
 41
2.5716
 42
2.5716
 43
1.0000
 50
90.0000
  0
INSERT
  8
17
  2
ROUNDP
 10
357.0000
 20
66.0800
 30
0.0000
 41
2.5716
 42
2.5716
 43
1.0000
 50
90.0000
  0
CIRCLE
  8
44
 10
357.0000
 20
66.0800
 30
0.0000
 40
0.8572
  0
INSERT
  8
17
  2
ROUNDP
 10
354.4600
 20
57.1900
 30
0.0000
 41
2.5400
 42
2.5400
 43
1.0000
 50
90.0000
  0
INSERT
  8
17
  2
ROUNDP
 10
354.4600
 20
57.1900
 30
0.0000
 41
2.5400
 42
2.5400
 43
1.0000
 50
90.0000
  0
CIRCLE
  8
44
 10
354.4600
 20
57.1900
 30
0.0000
 40
0.7500
  0
INSERT
  8
17
  2
ROUNDP
 10
351.9200
 20
63.5400
 30
0.0000
 41
2.5400
 42
2.5400
 43
1.0000
 50
90.0000
  0
INSERT
  8
17
  2
ROUNDP
 10
351.9200
 20
63.5400
 30
0.0000
 41
2.5400
 42
2.5400
 43
1.0000
 50
90.0000
  0
CIRCLE
  8
44
 10
351.9200
 20
63.5400
 30
0.0000
 40
0.7500
  0
CIRCLE
  8
20
 10
357.0000
 20
81.0000
 30
0.0000
 40
2.0002
  0
INSERT
  8
17
  2
ROUNDP
 10
357.0000
 20
75.9200
 30
0.0000
 41
2.5716
 42
2.5716
 43
1.0000
 50
90.0000
  0
INSERT
  8
17
  2
ROUNDP
 10
357.0000
 20
75.9200
 30
0.0000
 41
2.5716
 42
2.5716
 43
1.0000
 50
90.0000
  0
CIRCLE
  8
44
 10
357.0000
 20
75.9200
 30
0.0000
 40
0.8572
  0
INSERT
  8
17
  2
ROUNDP
 10
357.0000
 20
86.0800
 30
0.0000
 41
2.5716
 42
2.5716
 43
1.0000
 50
90.0000
  0
INSERT
  8
17
  2
ROUNDP
 10
357.0000
 20
86.0800
 30
0.0000
 41
2.5716
 42
2.5716
 43
1.0000
 50
90.0000
  0
CIRCLE
  8
44
 10
357.0000
 20
86.0800
 30
0.0000
 40
0.8572
  0
INSERT
  8
17
  2
ROUNDP
 10
354.4600
 20
77.1900
 30
0.0000
 41
2.5400
 42
2.5400
 43
1.0000
 50
90.0000
  0
INSERT
  8
17
  2
ROUNDP
 10
354.4600
 20
77.1900
 30
0.0000
 41
2.5400
 42
2.5400
 43
1.0000
 50
90.0000
  0
CIRCLE
  8
44
 10
354.4600
 20
77.1900
 30
0.0000
 40
0.7500
  0
INSERT
  8
17
  2
ROUNDP
 10
351.9200
 20
83.5400
 30
0.0000
 41
2.5400
 42
2.5400
 43
1.0000
 50
90.0000
  0
INSERT
  8
17
  2
ROUNDP
 10
351.9200
 20
83.5400
 30
0.0000
 41
2.5400
 42
2.5400
 43
1.0000
 50
90.0000
  0
CIRCLE
  8
44
 10
351.9200
 20
83.5400
 30
0.0000
 40
0.7500
  0
CIRCLE
  8
20
 10
377.0000
 20
61.0000
 30
0.0000
 40
2.0002
  0
INSERT
  8
17
  2
ROUNDP
 10
377.0000
 20
55.9200
 30
0.0000
 41
2.5716
 42
2.5716
 43
1.0000
 50
90.0000
  0
INSERT
  8
17
  2
ROUNDP
 10
377.0000
 20
55.9200
 30
0.0000
 41
2.5716
 42
2.5716
 43
1.0000
 50
90.0000
  0
CIRCLE
  8
44
 10
377.0000
 20
55.9200
 30
0.0000
 40
0.8572
  0
INSERT
  8
17
  2
ROUNDP
 10
377.0000
 20
66.0800
 30
0.0000
 41
2.5716
 42
2.5716
 43
1.0000
 50
90.0000
  0
INSERT
  8
17
  2
ROUNDP
 10
377.0000
 20
66.0800
 30
0.0000
 41
2.5716
 42
2.5716
 43
1.0000
 50
90.0000
  0
CIRCLE
  8
44
 10
377.0000
 20
66.0800
 30
0.0000
 40
0.8572
  0
INSERT
  8
17
  2
ROUNDP
 10
374.4600
 20
57.1900
 30
0.0000
 41
2.5400
 42
2.5400
 43
1.0000
 50
90.0000
  0
INSERT
  8
17
  2
ROUNDP
 10
374.4600
 20
57.1900
 30
0.0000
 41
2.5400
 42
2.5400
 43
1.0000
 50
90.0000
  0
CIRCLE
  8
44
 10
374.4600
 20
57.1900
 30
0.0000
 40
0.7500
  0
INSERT
  8
17
  2
ROUNDP
 10
371.9200
 20
63.5400
 30
0.0000
 41
2.5400
 42
2.5400
 43
1.0000
 50
90.0000
  0
INSERT
  8
17
  2
ROUNDP
 10
371.9200
 20
63.5400
 30
0.0000
 41
2.5400
 42
2.5400
 43
1.0000
 50
90.0000
  0
CIRCLE
  8
44
 10
371.9200
 20
63.5400
 30
0.0000
 40
0.7500
  0
CIRCLE
  8
20
 10
377.0000
 20
81.0000
 30
0.0000
 40
2.0002
  0
INSERT
  8
17
  2
ROUNDP
 10
377.0000
 20
75.9200
 30
0.0000
 41
2.5716
 42
2.5716
 43
1.0000
 50
90.0000
  0
INSERT
  8
17
  2
ROUNDP
 10
377.0000
 20
75.9200
 30
0.0000
 41
2.5716
 42
2.5716
 43
1.0000
 50
90.0000
  0
CIRCLE
  8
44
 10
377.0000
 20
75.9200
 30
0.0000
 40
0.8572
  0
INSERT
  8
17
  2
ROUNDP
 10
377.0000
 20
86.0800
 30
0.0000
 41
2.5716
 42
2.5716
 43
1.0000
 50
90.0000
  0
INSERT
  8
17
  2
ROUNDP
 10
377.0000
 20
86.0800
 30
0.0000
 41
2.5716
 42
2.5716
 43
1.0000
 50
90.0000
  0
CIRCLE
  8
44
 10
377.0000
 20
86.0800
 30
0.0000
 40
0.8572
  0
INSERT
  8
17
  2
ROUNDP
 10
374.4600
 20
77.1900
 30
0.0000
 41
2.5400
 42
2.5400
 43
1.0000
 50
90.0000
  0
INSERT
  8
17
  2
ROUNDP
 10
374.4600
 20
77.1900
 30
0.0000
 41
2.5400
 42
2.5400
 43
1.0000
 50
90.0000
  0
CIRCLE
  8
44
 10
374.4600
 20
77.1900
 30
0.0000
 40
0.7500
  0
INSERT
  8
17
  2
ROUNDP
 10
371.9200
 20
83.5400
 30
0.0000
 41
2.5400
 42
2.5400
 43
1.0000
 50
90.0000
  0
INSERT
  8
17
  2
ROUNDP
 10
371.9200
 20
83.5400
 30
0.0000
 41
2.5400
 42
2.5400
 43
1.0000
 50
90.0000
  0
CIRCLE
  8
44
 10
371.9200
 20
83.5400
 30
0.0000
 40
0.7500
  0
CIRCLE
  8
20
 10
397.0000
 20
61.0000
 30
0.0000
 40
2.0002
  0
INSERT
  8
17
  2
ROUNDP
 10
397.0000
 20
55.9200
 30
0.0000
 41
2.5716
 42
2.5716
 43
1.0000
 50
90.0000
  0
INSERT
  8
17
  2
ROUNDP
 10
397.0000
 20
55.9200
 30
0.0000
 41
2.5716
 42
2.5716
 43
1.0000
 50
90.0000
  0
CIRCLE
  8
44
 10
397.0000
 20
55.9200
 30
0.0000
 40
0.8572
  0
INSERT
  8
17
  2
ROUNDP
 10
397.0000
 20
66.0800
 30
0.0000
 41
2.5716
 42
2.5716
 43
1.0000
 50
90.0000
  0
INSERT
  8
17
  2
ROUNDP
 10
397.0000
 20
66.0800
 30
0.0000
 41
2.5716
 42
2.5716
 43
1.0000
 50
90.0000
  0
CIRCLE
  8
44
 10
397.0000
 20
66.0800
 30
0.0000
 40
0.8572
  0
INSERT
  8
17
  2
ROUNDP
 10
394.4600
 20
57.1900
 30
0.0000
 41
2.5400
 42
2.5400
 43
1.0000
 50
90.0000
  0
INSERT
  8
17
  2
ROUNDP
 10
394.4600
 20
57.1900
 30
0.0000
 41
2.5400
 42
2.5400
 43
1.0000
 50
90.0000
  0
CIRCLE
  8
44
 10
394.4600
 20
57.1900
 30
0.0000
 40
0.7500
  0
INSERT
  8
17
  2
ROUNDP
 10
391.9200
 20
63.5400
 30
0.0000
 41
2.5400
 42
2.5400
 43
1.0000
 50
90.0000
  0
INSERT
  8
17
  2
ROUNDP
 10
391.9200
 20
63.5400
 30
0.0000
 41
2.5400
 42
2.5400
 43
1.0000
 50
90.0000
  0
CIRCLE
  8
44
 10
391.9200
 20
63.5400
 30
0.0000
 40
0.7500
  0
CIRCLE
  8
20
 10
397.0000
 20
81.0000
 30
0.0000
 40
2.0002
  0
INSERT
  8
17
  2
ROUNDP
 10
397.0000
 20
75.9200
 30
0.0000
 41
2.5716
 42
2.5716
 43
1.0000
 50
90.0000
  0
INSERT
  8
17
  2
ROUNDP
 10
397.0000
 20
75.9200
 30
0.0000
 41
2.5716
 42
2.5716
 43
1.0000
 50
90.0000
  0
CIRCLE
  8
44
 10
397.0000
 20
75.9200
 30
0.0000
 40
0.8572
  0
INSERT
  8
17
  2
ROUNDP
 10
397.0000
 20
86.0800
 30
0.0000
 41
2.5716
 42
2.5716
 43
1.0000
 50
90.0000
  0
INSERT
  8
17
  2
ROUNDP
 10
397.0000
 20
86.0800
 30
0.0000
 41
2.5716
 42
2.5716
 43
1.0000
 50
90.0000
  0
CIRCLE
  8
44
 10
397.0000
 20
86.0800
 30
0.0000
 40
0.8572
  0
INSERT
  8
17
  2
ROUNDP
 10
394.4600
 20
77.1900
 30
0.0000
 41
2.5400
 42
2.5400
 43
1.0000
 50
90.0000
  0
INSERT
  8
17
  2
ROUNDP
 10
394.4600
 20
77.1900
 30
0.0000
 41
2.5400
 42
2.5400
 43
1.0000
 50
90.0000
  0
CIRCLE
  8
44
 10
394.4600
 20
77.1900
 30
0.0000
 40
0.7500
  0
INSERT
  8
17
  2
ROUNDP
 10
391.9200
 20
83.5400
 30
0.0000
 41
2.5400
 42
2.5400
 43
1.0000
 50
90.0000
  0
INSERT
  8
17
  2
ROUNDP
 10
391.9200
 20
83.5400
 30
0.0000
 41
2.5400
 42
2.5400
 43
1.0000
 50
90.0000
  0
CIRCLE
  8
44
 10
391.9200
 20
83.5400
 30
0.0000
 40
0.7500
  0
CIRCLE
  8
20
 10
417.0000
 20
61.0000
 30
0.0000
 40
2.0002
  0
INSERT
  8
17
  2
ROUNDP
 10
417.0000
 20
55.9200
 30
0.0000
 41
2.5716
 42
2.5716
 43
1.0000
 50
90.0000
  0
INSERT
  8
17
  2
ROUNDP
 10
417.0000
 20
55.9200
 30
0.0000
 41
2.5716
 42
2.5716
 43
1.0000
 50
90.0000
  0
CIRCLE
  8
44
 10
417.0000
 20
55.9200
 30
0.0000
 40
0.8572
  0
INSERT
  8
17
  2
ROUNDP
 10
417.0000
 20
66.0800
 30
0.0000
 41
2.5716
 42
2.5716
 43
1.0000
 50
90.0000
  0
INSERT
  8
17
  2
ROUNDP
 10
417.0000
 20
66.0800
 30
0.0000
 41
2.5716
 42
2.5716
 43
1.0000
 50
90.0000
  0
CIRCLE
  8
44
 10
417.0000
 20
66.0800
 30
0.0000
 40
0.8572
  0
INSERT
  8
17
  2
ROUNDP
 10
414.4600
 20
57.1900
 30
0.0000
 41
2.5400
 42
2.5400
 43
1.0000
 50
90.0000
  0
INSERT
  8
17
  2
ROUNDP
 10
414.4600
 20
57.1900
 30
0.0000
 41
2.5400
 42
2.5400
 43
1.0000
 50
90.0000
  0
CIRCLE
  8
44
 10
414.4600
 20
57.1900
 30
0.0000
 40
0.7500
  0
INSERT
  8
17
  2
ROUNDP
 10
411.9200
 20
63.5400
 30
0.0000
 41
2.5400
 42
2.5400
 43
1.0000
 50
90.0000
  0
INSERT
  8
17
  2
ROUNDP
 10
411.9200
 20
63.5400
 30
0.0000
 41
2.5400
 42
2.5400
 43
1.0000
 50
90.0000
  0
CIRCLE
  8
44
 10
411.9200
 20
63.5400
 30
0.0000
 40
0.7500
  0
CIRCLE
  8
20
 10
417.0000
 20
81.0000
 30
0.0000
 40
2.0002
  0
INSERT
  8
17
  2
ROUNDP
 10
417.0000
 20
75.9200
 30
0.0000
 41
2.5716
 42
2.5716
 43
1.0000
 50
90.0000
  0
INSERT
  8
17
  2
ROUNDP
 10
417.0000
 20
75.9200
 30
0.0000
 41
2.5716
 42
2.5716
 43
1.0000
 50
90.0000
  0
CIRCLE
  8
44
 10
417.0000
 20
75.9200
 30
0.0000
 40
0.8572
  0
INSERT
  8
17
  2
ROUNDP
 10
417.0000
 20
86.0800
 30
0.0000
 41
2.5716
 42
2.5716
 43
1.0000
 50
90.0000
  0
INSERT
  8
17
  2
ROUNDP
 10
417.0000
 20
86.0800
 30
0.0000
 41
2.5716
 42
2.5716
 43
1.0000
 50
90.0000
  0
CIRCLE
  8
44
 10
417.0000
 20
86.0800
 30
0.0000
 40
0.8572
  0
INSERT
  8
17
  2
ROUNDP
 10
414.4600
 20
77.1900
 30
0.0000
 41
2.5400
 42
2.5400
 43
1.0000
 50
90.0000
  0
INSERT
  8
17
  2
ROUNDP
 10
414.4600
 20
77.1900
 30
0.0000
 41
2.5400
 42
2.5400
 43
1.0000
 50
90.0000
  0
CIRCLE
  8
44
 10
414.4600
 20
77.1900
 30
0.0000
 40
0.7500
  0
INSERT
  8
17
  2
ROUNDP
 10
411.9200
 20
83.5400
 30
0.0000
 41
2.5400
 42
2.5400
 43
1.0000
 50
90.0000
  0
INSERT
  8
17
  2
ROUNDP
 10
411.9200
 20
83.5400
 30
0.0000
 41
2.5400
 42
2.5400
 43
1.0000
 50
90.0000
  0
CIRCLE
  8
44
 10
411.9200
 20
83.5400
 30
0.0000
 40
0.7500
  0
INSERT
  8
17
  2
OCTAGONP
 10
436.6000
 20
102.5000
 30
0.0000
 41
3.0000
 42
3.0000
 43
1.0000
 50
90.0000
  0
INSERT
  8
17
  2
OCTAGONP
 10
436.6000
 20
102.5000
 30
0.0000
 41
3.0000
 42
3.0000
 43
1.0000
 50
90.0000
  0
CIRCLE
  8
44
 10
436.6000
 20
102.5000
 30
0.0000
 40
1.0000
  0
INSERT
  8
17
  2
OCTAGONP
 10
295.0000
 20
4.9000
 30
0.0000
 41
3.0000
 42
3.0000
 43
1.0000
 50
0.0000
  0
INSERT
  8
17
  2
OCTAGONP
 10
295.0000
 20
4.9000
 30
0.0000
 41
3.0000
 42
3.0000
 43
1.0000
 50
0.0000
  0
CIRCLE
  8
44
 10
295.0000
 20
4.9000
 30
0.0000
 40
1.0000
  0
INSERT
  8
17
  2
OCTAGONP
 10
25.0000
 20
50.0000
 30
0.0000
 41
3.0000
 42
3.0000
 43
1.0000
 50
0.0000
  0
INSERT
  8
17
  2
OCTAGONP
 10
25.0000
 20
50.0000
 30
0.0000
 41
3.0000
 42
3.0000
 43
1.0000
 50
0.0000
  0
CIRCLE
  8
44
 10
25.0000
 20
50.0000
 30
0.0000
 40
1.0000
  0
INSERT
  8
17
  2
OCTAGONP
 10
235.0000
 20
55.0000
 30
0.0000
 41
3.0000
 42
3.0000
 43
1.0000
 50
0.0000
  0
INSERT
  8
17
  2
OCTAGONP
 10
235.0000
 20
55.0000
 30
0.0000
 41
3.0000
 42
3.0000
 43
1.0000
 50
0.0000
  0
CIRCLE
  8
44
 10
235.0000
 20
55.0000
 30
0.0000
 40
1.0000
  0
INSERT
  8
17
  2
ROUNDP
 10
479.9700
 20
113.9200
 30
0.0000
 41
1.4478
 42
1.4478
 43
1.0000
 50
270.0000
  0
INSERT
  8
17
  2
ROUNDP
 10
479.9700
 20
113.9200
 30
0.0000
 41
1.4478
 42
1.4478
 43
1.0000
 50
270.0000
  0
CIRCLE
  8
44
 10
479.9700
 20
113.9200
 30
0.0000
 40
0.4826
  0
INSERT
  8
17
  2
ROUNDP
 10
477.4300
 20
113.9200
 30
0.0000
 41
1.4478
 42
1.4478
 43
1.0000
 50
270.0000
  0
INSERT
  8
17
  2
ROUNDP
 10
477.4300
 20
113.9200
 30
0.0000
 41
1.4478
 42
1.4478
 43
1.0000
 50
270.0000
  0
CIRCLE
  8
44
 10
477.4300
 20
113.9200
 30
0.0000
 40
0.4826
  0
INSERT
  8
17
  2
ROUNDP
 10
474.8900
 20
113.9200
 30
0.0000
 41
1.4478
 42
1.4478
 43
1.0000
 50
270.0000
  0
INSERT
  8
17
  2
ROUNDP
 10
474.8900
 20
113.9200
 30
0.0000
 41
1.4478
 42
1.4478
 43
1.0000
 50
270.0000
  0
CIRCLE
  8
44
 10
474.8900
 20
113.9200
 30
0.0000
 40
0.4826
  0
INSERT
  8
17
  2
ROUNDP
 10
477.4300
 20
98.6800
 30
0.0000
 41
1.4478
 42
1.4478
 43
1.0000
 50
270.0000
  0
INSERT
  8
17
  2
ROUNDP
 10
477.4300
 20
98.6800
 30
0.0000
 41
1.4478
 42
1.4478
 43
1.0000
 50
270.0000
  0
CIRCLE
  8
44
 10
477.4300
 20
98.6800
 30
0.0000
 40
0.4826
  0
INSERT
  8
17
  2
ROUNDP
 10
472.3500
 20
113.9200
 30
0.0000
 41
1.4478
 42
1.4478
 43
1.0000
 50
270.0000
  0
INSERT
  8
17
  2
ROUNDP
 10
472.3500
 20
113.9200
 30
0.0000
 41
1.4478
 42
1.4478
 43
1.0000
 50
270.0000
  0
CIRCLE
  8
44
 10
472.3500
 20
113.9200
 30
0.0000
 40
0.4826
  0
INSERT
  8
17
  2
ROUNDP
 10
469.8100
 20
113.9200
 30
0.0000
 41
1.4478
 42
1.4478
 43
1.0000
 50
270.0000
  0
INSERT
  8
17
  2
ROUNDP
 10
469.8100
 20
113.9200
 30
0.0000
 41
1.4478
 42
1.4478
 43
1.0000
 50
270.0000
  0
CIRCLE
  8
44
 10
469.8100
 20
113.9200
 30
0.0000
 40
0.4826
  0
INSERT
  8
17
  2
ROUNDP
 10
467.2700
 20
113.9200
 30
0.0000
 41
1.4478
 42
1.4478
 43
1.0000
 50
270.0000
  0
INSERT
  8
17
  2
ROUNDP
 10
467.2700
 20
113.9200
 30
0.0000
 41
1.4478
 42
1.4478
 43
1.0000
 50
270.0000
  0
CIRCLE
  8
44
 10
467.2700
 20
113.9200
 30
0.0000
 40
0.4826
  0
INSERT
  8
17
  2
ROUNDP
 10
464.7300
 20
113.9200
 30
0.0000
 41
1.4478
 42
1.4478
 43
1.0000
 50
270.0000
  0
INSERT
  8
17
  2
ROUNDP
 10
464.7300
 20
113.9200
 30
0.0000
 41
1.4478
 42
1.4478
 43
1.0000
 50
270.0000
  0
CIRCLE
  8
44
 10
464.7300
 20
113.9200
 30
0.0000
 40
0.4826
  0
INSERT
  8
17
  2
ROUNDP
 10
462.1900
 20
113.9200
 30
0.0000
 41
1.4478
 42
1.4478
 43
1.0000
 50
270.0000
  0
INSERT
  8
17
  2
ROUNDP
 10
462.1900
 20
113.9200
 30
0.0000
 41
1.4478
 42
1.4478
 43
1.0000
 50
270.0000
  0
CIRCLE
  8
44
 10
462.1900
 20
113.9200
 30
0.0000
 40
0.4826
  0
INSERT
  8
17
  2
ROUNDP
 10
459.6500
 20
113.9200
 30
0.0000
 41
1.4478
 42
1.4478
 43
1.0000
 50
270.0000
  0
INSERT
  8
17
  2
ROUNDP
 10
459.6500
 20
113.9200
 30
0.0000
 41
1.4478
 42
1.4478
 43
1.0000
 50
270.0000
  0
CIRCLE
  8
44
 10
459.6500
 20
113.9200
 30
0.0000
 40
0.4826
  0
INSERT
  8
17
  2
ROUNDP
 10
457.1100
 20
113.9200
 30
0.0000
 41
1.4478
 42
1.4478
 43
1.0000
 50
270.0000
  0
INSERT
  8
17
  2
ROUNDP
 10
457.1100
 20
113.9200
 30
0.0000
 41
1.4478
 42
1.4478
 43
1.0000
 50
270.0000
  0
CIRCLE
  8
44
 10
457.1100
 20
113.9200
 30
0.0000
 40
0.4826
  0
INSERT
  8
17
  2
ROUNDP
 10
454.5700
 20
113.9200
 30
0.0000
 41
1.4478
 42
1.4478
 43
1.0000
 50
270.0000
  0
INSERT
  8
17
  2
ROUNDP
 10
454.5700
 20
113.9200
 30
0.0000
 41
1.4478
 42
1.4478
 43
1.0000
 50
270.0000
  0
CIRCLE
  8
44
 10
454.5700
 20
113.9200
 30
0.0000
 40
0.4826
  0
INSERT
  8
17
  2
ROUNDP
 10
452.0300
 20
113.9200
 30
0.0000
 41
1.4478
 42
1.4478
 43
1.0000
 50
270.0000
  0
INSERT
  8
17
  2
ROUNDP
 10
452.0300
 20
113.9200
 30
0.0000
 41
1.4478
 42
1.4478
 43
1.0000
 50
270.0000
  0
CIRCLE
  8
44
 10
452.0300
 20
113.9200
 30
0.0000
 40
0.4826
  0
INSERT
  8
17
  2
ROUNDP
 10
449.4900
 20
113.9200
 30
0.0000
 41
1.4478
 42
1.4478
 43
1.0000
 50
270.0000
  0
INSERT
  8
17
  2
ROUNDP
 10
449.4900
 20
113.9200
 30
0.0000
 41
1.4478
 42
1.4478
 43
1.0000
 50
270.0000
  0
CIRCLE
  8
44
 10
449.4900
 20
113.9200
 30
0.0000
 40
0.4826
  0
INSERT
  8
17
  2
ROUNDP
 10
449.4900
 20
98.6800
 30
0.0000
 41
1.4478
 42
1.4478
 43
1.0000
 50
270.0000
  0
INSERT
  8
17
  2
ROUNDP
 10
449.4900
 20
98.6800
 30
0.0000
 41
1.4478
 42
1.4478
 43
1.0000
 50
270.0000
  0
CIRCLE
  8
44
 10
449.4900
 20
98.6800
 30
0.0000
 40
0.4826
  0
INSERT
  8
17
  2
ROUNDP
 10
452.0300
 20
98.6800
 30
0.0000
 41
1.4478
 42
1.4478
 43
1.0000
 50
270.0000
  0
INSERT
  8
17
  2
ROUNDP
 10
452.0300
 20
98.6800
 30
0.0000
 41
1.4478
 42
1.4478
 43
1.0000
 50
270.0000
  0
CIRCLE
  8
44
 10
452.0300
 20
98.6800
 30
0.0000
 40
0.4826
  0
INSERT
  8
17
  2
ROUNDP
 10
454.5700
 20
98.6800
 30
0.0000
 41
1.4478
 42
1.4478
 43
1.0000
 50
270.0000
  0
INSERT
  8
17
  2
ROUNDP
 10
454.5700
 20
98.6800
 30
0.0000
 41
1.4478
 42
1.4478
 43
1.0000
 50
270.0000
  0
CIRCLE
  8
44
 10
454.5700
 20
98.6800
 30
0.0000
 40
0.4826
  0
INSERT
  8
17
  2
ROUNDP
 10
457.1100
 20
98.6800
 30
0.0000
 41
1.4478
 42
1.4478
 43
1.0000
 50
270.0000
  0
INSERT
  8
17
  2
ROUNDP
 10
457.1100
 20
98.6800
 30
0.0000
 41
1.4478
 42
1.4478
 43
1.0000
 50
270.0000
  0
CIRCLE
  8
44
 10
457.1100
 20
98.6800
 30
0.0000
 40
0.4826
  0
INSERT
  8
17
  2
ROUNDP
 10
459.6500
 20
98.6800
 30
0.0000
 41
1.4478
 42
1.4478
 43
1.0000
 50
270.0000
  0
INSERT
  8
17
  2
ROUNDP
 10
459.6500
 20
98.6800
 30
0.0000
 41
1.4478
 42
1.4478
 43
1.0000
 50
270.0000
  0
CIRCLE
  8
44
 10
459.6500
 20
98.6800
 30
0.0000
 40
0.4826
  0
INSERT
  8
17
  2
ROUNDP
 10
462.1900
 20
98.6800
 30
0.0000
 41
1.4478
 42
1.4478
 43
1.0000
 50
270.0000
  0
INSERT
  8
17
  2
ROUNDP
 10
462.1900
 20
98.6800
 30
0.0000
 41
1.4478
 42
1.4478
 43
1.0000
 50
270.0000
  0
CIRCLE
  8
44
 10
462.1900
 20
98.6800
 30
0.0000
 40
0.4826
  0
INSERT
  8
17
  2
ROUNDP
 10
464.7300
 20
98.6800
 30
0.0000
 41
1.4478
 42
1.4478
 43
1.0000
 50
270.0000
  0
INSERT
  8
17
  2
ROUNDP
 10
464.7300
 20
98.6800
 30
0.0000
 41
1.4478
 42
1.4478
 43
1.0000
 50
270.0000
  0
CIRCLE
  8
44
 10
464.7300
 20
98.6800
 30
0.0000
 40
0.4826
  0
INSERT
  8
17
  2
ROUNDP
 10
467.2700
 20
98.6800
 30
0.0000
 41
1.4478
 42
1.4478
 43
1.0000
 50
270.0000
  0
INSERT
  8
17
  2
ROUNDP
 10
467.2700
 20
98.6800
 30
0.0000
 41
1.4478
 42
1.4478
 43
1.0000
 50
270.0000
  0
CIRCLE
  8
44
 10
467.2700
 20
98.6800
 30
0.0000
 40
0.4826
  0
INSERT
  8
17
  2
ROUNDP
 10
469.8100
 20
98.6800
 30
0.0000
 41
1.4478
 42
1.4478
 43
1.0000
 50
270.0000
  0
INSERT
  8
17
  2
ROUNDP
 10
469.8100
 20
98.6800
 30
0.0000
 41
1.4478
 42
1.4478
 43
1.0000
 50
270.0000
  0
CIRCLE
  8
44
 10
469.8100
 20
98.6800
 30
0.0000
 40
0.4826
  0
INSERT
  8
17
  2
ROUNDP
 10
472.3500
 20
98.6800
 30
0.0000
 41
1.4478
 42
1.4478
 43
1.0000
 50
270.0000
  0
INSERT
  8
17
  2
ROUNDP
 10
472.3500
 20
98.6800
 30
0.0000
 41
1.4478
 42
1.4478
 43
1.0000
 50
270.0000
  0
CIRCLE
  8
44
 10
472.3500
 20
98.6800
 30
0.0000
 40
0.4826
  0
INSERT
  8
17
  2
ROUNDP
 10
474.8900
 20
98.6800
 30
0.0000
 41
1.4478
 42
1.4478
 43
1.0000
 50
270.0000
  0
INSERT
  8
17
  2
ROUNDP
 10
474.8900
 20
98.6800
 30
0.0000
 41
1.4478
 42
1.4478
 43
1.0000
 50
270.0000
  0
CIRCLE
  8
44
 10
474.8900
 20
98.6800
 30
0.0000
 40
0.4826
  0
INSERT
  8
17
  2
ROUNDP
 10
482.5100
 20
113.9200
 30
0.0000
 41
1.4478
 42
1.4478
 43
1.0000
 50
270.0000
  0
INSERT
  8
17
  2
ROUNDP
 10
482.5100
 20
113.9200
 30
0.0000
 41
1.4478
 42
1.4478
 43
1.0000
 50
270.0000
  0
CIRCLE
  8
44
 10
482.5100
 20
113.9200
 30
0.0000
 40
0.4826
  0
INSERT
  8
17
  2
ROUNDP
 10
479.9700
 20
98.6800
 30
0.0000
 41
1.4478
 42
1.4478
 43
1.0000
 50
270.0000
  0
INSERT
  8
17
  2
ROUNDP
 10
479.9700
 20
98.6800
 30
0.0000
 41
1.4478
 42
1.4478
 43
1.0000
 50
270.0000
  0
CIRCLE
  8
44
 10
479.9700
 20
98.6800
 30
0.0000
 40
0.4826
  0
INSERT
  8
17
  2
ROUNDP
 10
482.5100
 20
98.6800
 30
0.0000
 41
1.4478
 42
1.4478
 43
1.0000
 50
270.0000
  0
INSERT
  8
17
  2
ROUNDP
 10
482.5100
 20
98.6800
 30
0.0000
 41
1.4478
 42
1.4478
 43
1.0000
 50
270.0000
  0
CIRCLE
  8
44
 10
482.5100
 20
98.6800
 30
0.0000
 40
0.4826
  0
CIRCLE
  8
44
 10
467.6000
 20
107.3000
 30
0.0000
 40
0.1500
  0
CIRCLE
  8
44
 10
466.3000
 20
107.3000
 30
0.0000
 40
0.1500
  0
CIRCLE
  8
44
 10
457.6000
 20
104.7000
 30
0.0000
 40
0.1000
  0
CIRCLE
  8
44
 10
443.7000
 20
87.0000
 30
0.0000
 40
0.2500
  0
CIRCLE
  8
44
 10
444.6000
 20
87.0000
 30
0.0000
 40
0.2500
  0
CIRCLE
  8
44
 10
443.7000
 20
86.2000
 30
0.0000
 40
0.2500
  0
CIRCLE
  8
44
 10
444.6000
 20
86.2000
 30
0.0000
 40
0.2500
  0
CIRCLE
  8
44
 10
343.6000
 20
93.0000
 30
0.0000
 40
0.2500
  0
CIRCLE
  8
44
 10
344.2000
 20
69.9000
 30
0.0000
 40
0.2500
  0
CIRCLE
  8
44
 10
338.4000
 20
53.0000
 30
0.0000
 40
0.2500
  0
CIRCLE
  8
44
 10
340.6000
 20
21.2000
 30
0.0000
 40
0.2500
  0
CIRCLE
  8
44
 10
435.1000
 20
61.4000
 30
0.0000
 40
0.1000
  0
CIRCLE
  8
44
 10
440.9000
 20
61.4000
 30
0.0000
 40
0.2500
  0
CIRCLE
  8
44
 10
445.9000
 20
61.4000
 30
0.0000
 40
0.1000
  0
CIRCLE
  8
44
 10
449.8000
 20
58.7214
 30
0.0000
 40
0.1000
  0
CIRCLE
  8
44
 10
453.0000
 20
96.0000
 30
0.0000
 40
0.5000
  0
CIRCLE
  8
44
 10
461.0000
 20
93.0000
 30
0.0000
 40
0.1500
  0
CIRCLE
  8
44
 10
466.8000
 20
92.7000
 30
0.0000
 40
0.1500
  0
CIRCLE
  8
44
 10
326.5000
 20
70.0000
 30
0.0000
 40
0.1500
  0
CIRCLE
  8
44
 10
326.5000
 20
45.0000
 30
0.0000
 40
0.1500
  0
CIRCLE
  8
44
 10
326.5000
 20
20.0000
 30
0.0000
 40
0.1500
  0
CIRCLE
  8
44
 10
326.5000
 20
95.0000
 30
0.0000
 40
0.1500
  0
CIRCLE
  8
44
 10
447.7000
 20
86.9000
 30
0.0000
 40
0.2500
  0
CIRCLE
  8
44
 10
448.6000
 20
86.9000
 30
0.0000
 40
0.2500
  0
CIRCLE
  8
44
 10
448.6000
 20
86.1000
 30
0.0000
 40
0.2500
  0
CIRCLE
  8
44
 10
447.7000
 20
86.1000
 30
0.0000
 40
0.2500
  0
CIRCLE
  8
44
 10
481.2830
 20
104.5000
 30
0.0000
 40
0.1500
  0
CIRCLE
  8
44
 10
471.7000
 20
56.3000
 30
0.0000
 40
0.1750
  0
CIRCLE
  8
44
 10
473.6000
 20
56.3000
 30
0.0000
 40
0.1750
  0
CIRCLE
  8
44
 10
471.8000
 20
73.6000
 30
0.0000
 40
0.1750
  0
CIRCLE
  8
44
 10
444.5000
 20
83.4000
 30
0.0000
 40
0.1000
  0
CIRCLE
  8
44
 10
444.3000
 20
84.2000
 30
0.0000
 40
0.1000
  0
CIRCLE
  8
44
 10
442.9000
 20
84.3000
 30
0.0000
 40
0.1000
  0
CIRCLE
  8
44
 10
447.7000
 20
83.4000
 30
0.0000
 40
0.1000
  0
CIRCLE
  8
44
 10
448.1000
 20
84.1000
 30
0.0000
 40
0.1000
  0
CIRCLE
  8
44
 10
441.0000
 20
85.2000
 30
0.0000
 40
0.1000
  0
CIRCLE
  8
44
 10
441.0000
 20
84.3000
 30
0.0000
 40
0.1000
  0
CIRCLE
  8
44
 10
447.0000
 20
83.3000
 30
0.0000
 40
0.1000
  0
CIRCLE
  8
44
 10
472.7000
 20
56.3000
 30
0.0000
 40
0.1750
  0
CIRCLE
  8
44
 10
472.8000
 20
73.6000
 30
0.0000
 40
0.1750
  0
CIRCLE
  8
44
 10
473.6000
 20
73.6000
 30
0.0000
 40
0.1750
  0
CIRCLE
  8
44
 10
457.1000
 20
79.2000
 30
0.0000
 40
0.1000
  0
CIRCLE
  8
44
 10
40.0000
 20
110.0000
 30
0.0000
 40
0.1000
  0
CIRCLE
  8
44
 10
30.0000
 20
110.0000
 30
0.0000
 40
0.1000
  0
CIRCLE
  8
44
 10
50.0000
 20
110.0000
 30
0.0000
 40
0.1000
  0
CIRCLE
  8
44
 10
70.0000
 20
110.0000
 30
0.0000
 40
0.1000
  0
CIRCLE
  8
44
 10
60.0000
 20
110.0000
 30
0.0000
 40
0.1000
  0
CIRCLE
  8
44
 10
80.0000
 20
110.0000
 30
0.0000
 40
0.1000
  0
CIRCLE
  8
44
 10
100.0000
 20
110.0000
 30
0.0000
 40
0.1000
  0
CIRCLE
  8
44
 10
90.0000
 20
110.0000
 30
0.0000
 40
0.1000
  0
CIRCLE
  8
44
 10
110.0000
 20
110.0000
 30
0.0000
 40
0.1000
  0
CIRCLE
  8
44
 10
130.0000
 20
110.0000
 30
0.0000
 40
0.1000
  0
CIRCLE
  8
44
 10
120.0000
 20
110.0000
 30
0.0000
 40
0.1000
  0
CIRCLE
  8
44
 10
140.0000
 20
110.0000
 30
0.0000
 40
0.1000
  0
CIRCLE
  8
44
 10
160.0000
 20
110.0000
 30
0.0000
 40
0.1000
  0
CIRCLE
  8
44
 10
150.0000
 20
110.0000
 30
0.0000
 40
0.1000
  0
CIRCLE
  8
44
 10
170.0000
 20
110.0000
 30
0.0000
 40
0.1000
  0
CIRCLE
  8
44
 10
190.0000
 20
110.0000
 30
0.0000
 40
0.1000
  0
CIRCLE
  8
44
 10
180.0000
 20
110.0000
 30
0.0000
 40
0.1000
  0
CIRCLE
  8
44
 10
20.0000
 20
30.0000
 30
0.0000
 40
0.1000
  0
CIRCLE
  8
44
 10
20.0000
 20
20.0000
 30
0.0000
 40
0.1000
  0
CIRCLE
  8
44
 10
20.0000
 20
40.0000
 30
0.0000
 40
0.1000
  0
CIRCLE
  8
44
 10
20.0000
 20
60.0000
 30
0.0000
 40
0.1000
  0
CIRCLE
  8
44
 10
20.0000
 20
50.0000
 30
0.0000
 40
0.1000
  0
CIRCLE
  8
44
 10
20.0000
 20
70.0000
 30
0.0000
 40
0.1000
  0
CIRCLE
  8
44
 10
20.0000
 20
90.0000
 30
0.0000
 40
0.1000
  0
CIRCLE
  8
44
 10
20.0000
 20
80.0000
 30
0.0000
 40
0.1000
  0
CIRCLE
  8
44
 10
20.0000
 20
100.0000
 30
0.0000
 40
0.1000
  0
CIRCLE
  8
44
 10
60.0000
 20
20.0000
 30
0.0000
 40
0.1000
  0
CIRCLE
  8
44
 10
70.0000
 20
20.0000
 30
0.0000
 40
0.1000
  0
CIRCLE
  8
44
 10
80.0000
 20
20.0000
 30
0.0000
 40
0.1000
  0
CIRCLE
  8
44
 10
100.0000
 20
20.0000
 30
0.0000
 40
0.1000
  0
CIRCLE
  8
44
 10
110.0000
 20
20.0000
 30
0.0000
 40
0.1000
  0
CIRCLE
  8
44
 10
120.0000
 20
20.0000
 30
0.0000
 40
0.1000
  0
CIRCLE
  8
44
 10
140.0000
 20
20.0000
 30
0.0000
 40
0.1000
  0
CIRCLE
  8
44
 10
150.0000
 20
20.0000
 30
0.0000
 40
0.1000
  0
CIRCLE
  8
44
 10
160.0000
 20
20.0000
 30
0.0000
 40
0.1000
  0
CIRCLE
  8
44
 10
30.0000
 20
20.0000
 30
0.0000
 40
0.1000
  0
CIRCLE
  8
44
 10
40.0000
 20
20.0000
 30
0.0000
 40
0.1000
  0
CIRCLE
  8
44
 10
170.0000
 20
20.0000
 30
0.0000
 40
0.1000
  0
CIRCLE
  8
44
 10
180.0000
 20
20.0000
 30
0.0000
 40
0.1000
  0
CIRCLE
  8
44
 10
190.0000
 20
20.0000
 30
0.0000
 40
0.1000
  0
CIRCLE
  8
44
 10
200.0000
 20
20.0000
 30
0.0000
 40
0.1000
  0
CIRCLE
  8
44
 10
210.0000
 20
20.0000
 30
0.0000
 40
0.1000
  0
CIRCLE
  8
44
 10
220.0000
 20
20.0000
 30
0.0000
 40
0.1000
  0
CIRCLE
  8
44
 10
230.0000
 20
20.0000
 30
0.0000
 40
0.1000
  0
CIRCLE
  8
44
 10
250.0000
 20
20.0000
 30
0.0000
 40
0.1000
  0
CIRCLE
  8
44
 10
260.0000
 20
20.0000
 30
0.0000
 40
0.1000
  0
CIRCLE
  8
44
 10
200.0000
 20
110.0000
 30
0.0000
 40
0.1000
  0
CIRCLE
  8
44
 10
220.0000
 20
110.0000
 30
0.0000
 40
0.1000
  0
CIRCLE
  8
44
 10
230.0000
 20
110.0000
 30
0.0000
 40
0.1000
  0
CIRCLE
  8
44
 10
240.0000
 20
110.0000
 30
0.0000
 40
0.1000
  0
CIRCLE
  8
44
 10
250.0000
 20
110.0000
 30
0.0000
 40
0.1000
  0
CIRCLE
  8
44
 10
270.0000
 20
110.0000
 30
0.0000
 40
0.1000
  0
CIRCLE
  8
44
 10
270.0000
 20
115.0000
 30
0.0000
 40
0.1000
  0
CIRCLE
  8
44
 10
259.6000
 20
110.0000
 30
0.0000
 40
0.1000
  0
CIRCLE
  8
44
 10
60.0000
 20
37.0000
 30
0.0000
 40
0.1000
  0
CIRCLE
  8
44
 10
100.0000
 20
37.0000
 30
0.0000
 40
0.1000
  0
CIRCLE
  8
44
 10
140.0000
 20
37.0000
 30
0.0000
 40
0.1000
  0
CIRCLE
  8
44
 10
180.0000
 20
37.0000
 30
0.0000
 40
0.1000
  0
CIRCLE
  8
44
 10
220.0000
 20
37.0000
 30
0.0000
 40
0.1000
  0
CIRCLE
  8
44
 10
260.0000
 20
37.0000
 30
0.0000
 40
0.1000
  0
CIRCLE
  8
44
 10
240.0000
 20
97.0000
 30
0.0000
 40
0.1000
  0
CIRCLE
  8
44
 10
200.0000
 20
97.0000
 30
0.0000
 40
0.1000
  0
CIRCLE
  8
44
 10
160.0000
 20
97.0000
 30
0.0000
 40
0.1000
  0
CIRCLE
  8
44
 10
120.0000
 20
97.0000
 30
0.0000
 40
0.1000
  0
CIRCLE
  8
44
 10
80.0000
 20
97.0000
 30
0.0000
 40
0.1000
  0
CIRCLE
  8
44
 10
40.0000
 20
97.0000
 30
0.0000
 40
0.1000
  0
CIRCLE
  8
44
 10
30.0000
 20
15.0000
 30
0.0000
 40
0.1000
  0
CIRCLE
  8
44
 10
40.0000
 20
15.0000
 30
0.0000
 40
0.1000
  0
CIRCLE
  8
44
 10
60.0000
 20
15.0000
 30
0.0000
 40
0.1000
  0
CIRCLE
  8
44
 10
70.0000
 20
15.0000
 30
0.0000
 40
0.1000
  0
CIRCLE
  8
44
 10
80.0000
 20
15.0000
 30
0.0000
 40
0.1000
  0
CIRCLE
  8
44
 10
100.0000
 20
15.0000
 30
0.0000
 40
0.1000
  0
CIRCLE
  8
44
 10
120.0000
 20
15.0000
 30
0.0000
 40
0.1000
  0
CIRCLE
  8
44
 10
20.0000
 20
15.0000
 30
0.0000
 40
0.1000
  0
CIRCLE
  8
44
 10
15.0000
 20
110.0000
 30
0.0000
 40
0.1000
  0
CIRCLE
  8
44
 10
15.0000
 20
30.0000
 30
0.0000
 40
0.1000
  0
CIRCLE
  8
44
 10
15.0000
 20
20.0000
 30
0.0000
 40
0.1000
  0
CIRCLE
  8
44
 10
15.0000
 20
40.0000
 30
0.0000
 40
0.1000
  0
CIRCLE
  8
44
 10
15.0000
 20
60.0000
 30
0.0000
 40
0.1000
  0
CIRCLE
  8
44
 10
15.0000
 20
50.0000
 30
0.0000
 40
0.1000
  0
CIRCLE
  8
44
 10
15.0000
 20
70.0000
 30
0.0000
 40
0.1000
  0
CIRCLE
  8
44
 10
15.0000
 20
90.0000
 30
0.0000
 40
0.1000
  0
CIRCLE
  8
44
 10
15.0000
 20
80.0000
 30
0.0000
 40
0.1000
  0
CIRCLE
  8
44
 10
15.0000
 20
100.0000
 30
0.0000
 40
0.1000
  0
CIRCLE
  8
44
 10
15.0000
 20
15.0000
 30
0.0000
 40
0.1000
  0
CIRCLE
  8
44
 10
15.0000
 20
115.0000
 30
0.0000
 40
0.1000
  0
CIRCLE
  8
44
 10
20.0000
 20
115.0000
 30
0.0000
 40
0.1000
  0
CIRCLE
  8
44
 10
40.0000
 20
115.0000
 30
0.0000
 40
0.1000
  0
CIRCLE
  8
44
 10
30.0000
 20
115.0000
 30
0.0000
 40
0.1000
  0
CIRCLE
  8
44
 10
50.0000
 20
115.0000
 30
0.0000
 40
0.1000
  0
CIRCLE
  8
44
 10
70.0000
 20
115.0000
 30
0.0000
 40
0.1000
  0
CIRCLE
  8
44
 10
60.0000
 20
115.0000
 30
0.0000
 40
0.1000
  0
CIRCLE
  8
44
 10
80.0000
 20
115.0000
 30
0.0000
 40
0.1000
  0
CIRCLE
  8
44
 10
100.0000
 20
115.0000
 30
0.0000
 40
0.1000
  0
CIRCLE
  8
44
 10
90.0000
 20
115.0000
 30
0.0000
 40
0.1000
  0
CIRCLE
  8
44
 10
110.0000
 20
115.0000
 30
0.0000
 40
0.1000
  0
CIRCLE
  8
44
 10
130.0000
 20
115.0000
 30
0.0000
 40
0.1000
  0
CIRCLE
  8
44
 10
120.0000
 20
115.0000
 30
0.0000
 40
0.1000
  0
CIRCLE
  8
44
 10
140.0000
 20
115.0000
 30
0.0000
 40
0.1000
  0
CIRCLE
  8
44
 10
160.0000
 20
115.0000
 30
0.0000
 40
0.1000
  0
CIRCLE
  8
44
 10
150.0000
 20
115.0000
 30
0.0000
 40
0.1000
  0
CIRCLE
  8
44
 10
170.0000
 20
115.0000
 30
0.0000
 40
0.1000
  0
CIRCLE
  8
44
 10
190.0000
 20
115.0000
 30
0.0000
 40
0.1000
  0
CIRCLE
  8
44
 10
180.0000
 20
115.0000
 30
0.0000
 40
0.1000
  0
CIRCLE
  8
44
 10
220.0000
 20
115.0000
 30
0.0000
 40
0.1000
  0
CIRCLE
  8
44
 10
230.0000
 20
115.0000
 30
0.0000
 40
0.1000
  0
CIRCLE
  8
44
 10
240.0000
 20
115.0000
 30
0.0000
 40
0.1000
  0
CIRCLE
  8
44
 10
250.0000
 20
115.0000
 30
0.0000
 40
0.1000
  0
CIRCLE
  8
44
 10
260.0000
 20
115.0000
 30
0.0000
 40
0.1000
  0
CIRCLE
  8
44
 10
403.0000
 20
103.0000
 30
0.0000
 40
0.1000
  0
CIRCLE
  8
44
 10
393.0000
 20
103.0000
 30
0.0000
 40
0.1000
  0
CIRCLE
  8
44
 10
383.0000
 20
103.0000
 30
0.0000
 40
0.1000
  0
CIRCLE
  8
44
 10
373.0000
 20
103.0000
 30
0.0000
 40
0.1000
  0
CIRCLE
  8
44
 10
363.0000
 20
103.0000
 30
0.0000
 40
0.1000
  0
CIRCLE
  8
44
 10
408.3000
 20
94.7000
 30
0.0000
 40
0.1000
  0
CIRCLE
  8
44
 10
401.3000
 20
94.7000
 30
0.0000
 40
0.1000
  0
CIRCLE
  8
44
 10
391.3000
 20
94.7000
 30
0.0000
 40
0.1000
  0
CIRCLE
  8
44
 10
381.3000
 20
94.7000
 30
0.0000
 40
0.1000
  0
CIRCLE
  8
44
 10
371.3000
 20
94.7000
 30
0.0000
 40
0.1000
  0
CIRCLE
  8
44
 10
361.3000
 20
94.7000
 30
0.0000
 40
0.1000
  0
CIRCLE
  8
44
 10
354.3000
 20
94.7000
 30
0.0000
 40
0.1000
  0
CIRCLE
  8
44
 10
349.3000
 20
99.7000
 30
0.0000
 40
0.1000
  0
CIRCLE
  8
44
 10
345.3000
 20
103.7000
 30
0.0000
 40
0.1000
  0
CIRCLE
  8
44
 10
359.0000
 20
106.0000
 30
0.0000
 40
0.1000
  0
CIRCLE
  8
44
 10
353.8000
 20
114.9000
 30
0.0000
 40
0.1000
  0
CIRCLE
  8
44
 10
344.1000
 20
104.9000
 30
0.0000
 40
0.1000
  0
CIRCLE
  8
44
 10
343.9000
 20
115.0000
 30
0.0000
 40
0.1000
  0
CIRCLE
  8
44
 10
347.9000
 20
101.0000
 30
0.0000
 40
0.1000
  0
CIRCLE
  8
44
 10
361.4000
 20
108.3000
 30
0.0000
 40
0.1000
  0
CIRCLE
  8
44
 10
352.2000
 20
96.3000
 30
0.0000
 40
0.1000
  0
CIRCLE
  8
44
 10
361.5000
 20
115.5000
 30
0.0000
 40
0.1000
  0
CIRCLE
  8
44
 10
322.0000
 20
116.0000
 30
0.0000
 40
0.1000
  0
CIRCLE
  8
44
 10
340.5000
 20
106.4000
 30
0.0000
 40
0.1000
  0
CIRCLE
  8
44
 10
329.6000
 20
105.7000
 30
0.0000
 40
0.1000
  0
CIRCLE
  8
44
 10
311.2000
 20
111.7000
 30
0.0000
 40
0.1000
  0
CIRCLE
  8
44
 10
306.5000
 20
106.3000
 30
0.0000
 40
0.1000
  0
CIRCLE
  8
44
 10
299.0000
 20
105.0000
 30
0.0000
 40
0.1000
  0
CIRCLE
  8
44
 10
284.0000
 20
95.0000
 30
0.0000
 40
0.1000
  0
CIRCLE
  8
44
 10
284.0000
 20
83.0000
 30
0.0000
 40
0.1000
  0
CIRCLE
  8
44
 10
284.0000
 20
71.0000
 30
0.0000
 40
0.1000
  0
CIRCLE
  8
44
 10
284.0000
 20
61.0000
 30
0.0000
 40
0.1000
  0
CIRCLE
  8
44
 10
284.0000
 20
52.0000
 30
0.0000
 40
0.1000
  0
CIRCLE
  8
44
 10
284.0000
 20
44.0000
 30
0.0000
 40
0.1000
  0
CIRCLE
  8
44
 10
284.0000
 20
34.0000
 30
0.0000
 40
0.1000
  0
CIRCLE
  8
44
 10
284.0000
 20
23.0000
 30
0.0000
 40
0.1000
  0
CIRCLE
  8
44
 10
284.0000
 20
14.0000
 30
0.0000
 40
0.1000
  0
CIRCLE
  8
44
 10
283.0000
 20
121.0000
 30
0.0000
 40
0.1000
  0
CIRCLE
  8
44
 10
341.0000
 20
118.0000
 30
0.0000
 40
0.1000
  0
CIRCLE
  8
44
 10
319.0000
 20
129.0000
 30
0.0000
 40
0.1000
  0
CIRCLE
  8
44
 10
337.0000
 20
129.0000
 30
0.0000
 40
0.1000
  0
CIRCLE
  8
44
 10
352.0000
 20
129.0000
 30
0.0000
 40
0.1000
  0
CIRCLE
  8
44
 10
295.0000
 20
127.0000
 30
0.0000
 40
0.1000
  0
CIRCLE
  8
44
 10
20.0000
 20
110.0000
 30
0.0000
 40
0.1000
  0
CIRCLE
  8
44
 10
321.0000
 20
111.5000
 30
0.0000
 40
0.1000
  0
CIRCLE
  8
44
 10
315.0000
 20
115.5000
 30
0.0000
 40
0.1000
  0
CIRCLE
  8
44
 10
317.0000
 20
105.5000
 30
0.0000
 40
0.1000
  0
CIRCLE
  8
44
 10
330.5000
 20
110.5000
 30
0.0000
 40
0.1000
  0
CIRCLE
  8
44
 10
341.0000
 20
121.5000
 30
0.0000
 40
0.1000
  0
CIRCLE
  8
44
 10
345.8000
 20
114.4000
 30
0.0000
 40
0.1000
  0
CIRCLE
  8
44
 10
362.5000
 20
127.0000
 30
0.0000
 40
0.1000
  0
CIRCLE
  8
44
 10
110.0000
 20
15.0000
 30
0.0000
 40
0.1000
  0
CIRCLE
  8
44
 10
470.6000
 20
57.7000
 30
0.0000
 40
0.2500
  0
CIRCLE
  8
44
 10
468.8000
 20
64.0980
 30
0.0000
 40
0.2500
  0
CIRCLE
  8
44
 10
353.9000
 20
108.7000
 30
0.0000
 40
0.1000
  0
CIRCLE
  8
44
 10
351.5000
 20
109.2000
 30
0.0000
 40
0.1000
  0
CIRCLE
  8
44
 10
351.3000
 20
115.1000
 30
0.0000
 40
0.1000
  0
CIRCLE
  8
44
 10
324.1000
 20
105.5000
 30
0.0000
 40
0.1000
  0
CIRCLE
  8
44
 10
325.9000
 20
113.7000
 30
0.0000
 40
0.1000
  0
CIRCLE
  8
44
 10
334.6000
 20
106.4000
 30
0.0000
 40
0.1000
  0
CIRCLE
  8
44
 10
312.7000
 20
107.1000
 30
0.0000
 40
0.1000
  0
CIRCLE
  8
44
 10
316.2000
 20
110.3000
 30
0.0000
 40
0.1000
  0
CIRCLE
  8
44
 10
412.8000
 20
94.8000
 30
0.0000
 40
0.1000
  0
CIRCLE
  8
44
 10
416.1000
 20
92.9000
 30
0.0000
 40
0.1000
  0
CIRCLE
  8
44
 10
419.2000
 20
89.6000
 30
0.0000
 40
0.1000
  0
CIRCLE
  8
44
 10
421.5000
 20
87.3000
 30
0.0000
 40
0.1000
  0
CIRCLE
  8
44
 10
423.3000
 20
85.4000
 30
0.0000
 40
0.1000
  0
CIRCLE
  8
44
 10
423.4000
 20
81.5000
 30
0.0000
 40
0.1000
  0
CIRCLE
  8
44
 10
423.4000
 20
77.8000
 30
0.0000
 40
0.1000
  0
CIRCLE
  8
44
 10
423.4000
 20
73.8000
 30
0.0000
 40
0.1000
  0
CIRCLE
  8
44
 10
425.3000
 20
71.3000
 30
0.0000
 40
0.1000
  0
CIRCLE
  8
44
 10
428.1000
 20
68.3000
 30
0.0000
 40
0.1000
  0
CIRCLE
  8
44
 10
431.1000
 20
65.3000
 30
0.0000
 40
0.1000
  0
CIRCLE
  8
44
 10
433.0000
 20
64.2000
 30
0.0000
 40
0.1000
  0
CIRCLE
  8
44
 10
436.6000
 20
64.3000
 30
0.0000
 40
0.1000
  0
CIRCLE
  8
44
 10
441.3000
 20
64.3000
 30
0.0000
 40
0.1000
  0
CIRCLE
  8
44
 10
446.9000
 20
64.4000
 30
0.0000
 40
0.1000
  0
CIRCLE
  8
44
 10
452.5000
 20
64.4000
 30
0.0000
 40
0.1000
  0
CIRCLE
  8
44
 10
458.4000
 20
64.4000
 30
0.0000
 40
0.1000
  0
CIRCLE
  8
44
 10
464.4000
 20
64.5000
 30
0.0000
 40
0.1000
  0
CIRCLE
  8
44
 10
468.5000
 20
72.7000
 30
0.0000
 40
0.1000
  0
CIRCLE
  8
44
 10
463.5000
 20
72.7000
 30
0.0000
 40
0.1000
  0
CIRCLE
  8
44
 10
456.3000
 20
72.8000
 30
0.0000
 40
0.1000
  0
CIRCLE
  8
44
 10
449.0000
 20
72.7000
 30
0.0000
 40
0.1000
  0
CIRCLE
  8
44
 10
443.1000
 20
72.7000
 30
0.0000
 40
0.1000
  0
CIRCLE
  8
44
 10
437.3000
 20
72.7000
 30
0.0000
 40
0.1000
  0
CIRCLE
  8
44
 10
433.4000
 20
76.5000
 30
0.0000
 40
0.1000
  0
CIRCLE
  8
44
 10
433.3000
 20
81.9000
 30
0.0000
 40
0.1000
  0
CIRCLE
  8
44
 10
433.2000
 20
85.2000
 30
0.0000
 40
0.1000
  0
CIRCLE
  8
44
 10
432.7000
 20
89.3000
 30
0.0000
 40
0.1000
  0
CIRCLE
  8
44
 10
429.0000
 20
92.4000
 30
0.0000
 40
0.1000
  0
CIRCLE
  8
44
 10
425.5000
 20
95.7000
 30
0.0000
 40
0.1000
  0
CIRCLE
  8
44
 10
422.0000
 20
99.4000
 30
0.0000
 40
0.1000
  0
CIRCLE
  8
44
 10
417.7000
 20
103.3000
 30
0.0000
 40
0.1000
  0
CIRCLE
  8
44
 10
411.5000
 20
103.2000
 30
0.0000
 40
0.1000
  0
CIRCLE
  8
44
 10
470.7000
 20
64.7000
 30
0.0000
 40
0.1000
  0
CIRCLE
  8
44
 10
470.2000
 20
65.3000
 30
0.0000
 40
0.1000
  0
CIRCLE
  8
44
 10
470.7000
 20
65.9000
 30
0.0000
 40
0.1000
  0
CIRCLE
  8
44
 10
470.2000
 20
66.6000
 30
0.0000
 40
0.1000
  0
CIRCLE
  8
44
 10
470.7000
 20
67.2000
 30
0.0000
 40
0.1000
  0
CIRCLE
  8
44
 10
470.2000
 20
67.8000
 30
0.0000
 40
0.1000
  0
CIRCLE
  8
44
 10
470.7000
 20
68.5000
 30
0.0000
 40
0.1000
  0
CIRCLE
  8
44
 10
470.2000
 20
69.1000
 30
0.0000
 40
0.1000
  0
CIRCLE
  8
44
 10
470.7000
 20
69.8000
 30
0.0000
 40
0.1000
  0
CIRCLE
  8
44
 10
470.2000
 20
70.4000
 30
0.0000
 40
0.1000
  0
CIRCLE
  8
44
 10
470.7000
 20
71.1000
 30
0.0000
 40
0.1000
  0
CIRCLE
  8
44
 10
470.2000
 20
71.7000
 30
0.0000
 40
0.1000
  0
CIRCLE
  8
44
 10
440.8000
 20
51.3000
 30
0.0000
 40
0.1000
  0
CIRCLE
  8
44
 10
440.8000
 20
52.6000
 30
0.0000
 40
0.1000
  0
CIRCLE
  8
44
 10
435.3000
 20
53.1786
 30
0.0000
 40
0.1000
  0
CIRCLE
  8
44
 10
440.8000
 20
53.3000
 30
0.0000
 40
0.1000
  0
CIRCLE
  8
44
 10
440.8000
 20
52.0000
 30
0.0000
 40
0.1000
  0
CIRCLE
  8
44
 10
440.8000
 20
53.9000
 30
0.0000
 40
0.1000
  0
CIRCLE
  8
44
 10
435.3000
 20
54.1964
 30
0.0000
 40
0.1000
  0
CIRCLE
  8
44
 10
440.8000
 20
54.6000
 30
0.0000
 40
0.1000
  0
CIRCLE
  8
44
 10
462.0000
 20
60.0000
 30
0.0000
 40
0.1000
  0
CIRCLE
  8
44
 10
341.5000
 20
58.0000
 30
0.0000
 40
0.1000
  0
CIRCLE
  8
44
 10
339.0000
 20
56.5000
 30
0.0000
 40
0.1000
  0
CIRCLE
  8
44
 10
336.6000
 20
59.6000
 30
0.0000
 40
0.1000
  0
CIRCLE
  8
44
 10
340.5000
 20
47.0000
 30
0.0000
 40
0.1000
  0
CIRCLE
  8
44
 10
342.0000
 20
45.5000
 30
0.0000
 40
0.1000
  0
CIRCLE
  8
44
 10
340.0000
 20
43.7000
 30
0.0000
 40
0.1000
  0
CIRCLE
  8
44
 10
338.5000
 20
49.0000
 30
0.0000
 40
0.1000
  0
CIRCLE
  8
44
 10
338.5000
 20
45.0000
 30
0.0000
 40
0.1000
  0
CIRCLE
  8
44
 10
337.0000
 20
46.5000
 30
0.0000
 40
0.1000
  0
CIRCLE
  8
44
 10
335.5000
 20
36.0000
 30
0.0000
 40
0.1000
  0
CIRCLE
  8
44
 10
337.0000
 20
50.5000
 30
0.0000
 40
0.1000
  0
CIRCLE
  8
44
 10
335.0000
 20
50.5000
 30
0.0000
 40
0.1000
  0
CIRCLE
  8
44
 10
343.7000
 20
29.0000
 30
0.0000
 40
0.1000
  0
CIRCLE
  8
44
 10
341.6000
 20
29.0000
 30
0.0000
 40
0.1000
  0
CIRCLE
  8
44
 10
339.8000
 20
28.6000
 30
0.0000
 40
0.1000
  0
CIRCLE
  8
44
 10
337.0000
 20
20.0000
 30
0.0000
 40
0.1000
  0
CIRCLE
  8
44
 10
335.0000
 20
22.0000
 30
0.0000
 40
0.1000
  0
CIRCLE
  8
44
 10
330.0000
 20
43.5000
 30
0.0000
 40
0.1000
  0
CIRCLE
  8
44
 10
339.0000
 20
61.0000
 30
0.0000
 40
0.1000
  0
CIRCLE
  8
44
 10
339.0000
 20
65.0000
 30
0.0000
 40
0.1000
  0
CIRCLE
  8
44
 10
339.0000
 20
68.0000
 30
0.0000
 40
0.1000
  0
CIRCLE
  8
44
 10
339.0000
 20
71.0000
 30
0.0000
 40
0.1000
  0
CIRCLE
  8
44
 10
339.0000
 20
74.0000
 30
0.0000
 40
0.1000
  0
CIRCLE
  8
44
 10
339.0000
 20
77.0000
 30
0.0000
 40
0.1000
  0
CIRCLE
  8
44
 10
336.0000
 20
68.0000
 30
0.0000
 40
0.1000
  0
CIRCLE
  8
44
 10
336.0000
 20
62.0000
 30
0.0000
 40
0.1000
  0
CIRCLE
  8
44
 10
301.0000
 20
96.0000
 30
0.0000
 40
0.1000
  0
CIRCLE
  8
44
 10
301.0000
 20
94.0000
 30
0.0000
 40
0.1000
  0
CIRCLE
  8
44
 10
315.5000
 20
94.5000
 30
0.0000
 40
0.1000
  0
CIRCLE
  8
44
 10
317.5000
 20
92.5000
 30
0.0000
 40
0.1000
  0
CIRCLE
  8
44
 10
313.0000
 20
92.5000
 30
0.0000
 40
0.1000
  0
CIRCLE
  8
44
 10
315.0000
 20
90.5000
 30
0.0000
 40
0.1000
  0
CIRCLE
  8
44
 10
301.0000
 20
46.0000
 30
0.0000
 40
0.1000
  0
CIRCLE
  8
44
 10
301.0000
 20
44.0000
 30
0.0000
 40
0.1000
  0
CIRCLE
  8
44
 10
313.0000
 20
43.0000
 30
0.0000
 40
0.1000
  0
CIRCLE
  8
44
 10
315.0000
 20
40.5000
 30
0.0000
 40
0.1000
  0
CIRCLE
  8
44
 10
315.0000
 20
44.5000
 30
0.0000
 40
0.1000
  0
CIRCLE
  8
44
 10
317.0000
 20
42.5000
 30
0.0000
 40
0.1000
  0
CIRCLE
  8
44
 10
301.0000
 20
19.0000
 30
0.0000
 40
0.1000
  0
CIRCLE
  8
44
 10
301.0000
 20
71.0000
 30
0.0000
 40
0.1000
  0
CIRCLE
  8
44
 10
301.0000
 20
69.0000
 30
0.0000
 40
0.1000
  0
CIRCLE
  8
44
 10
313.0000
 20
67.5000
 30
0.0000
 40
0.1000
  0
CIRCLE
  8
44
 10
315.0000
 20
65.5000
 30
0.0000
 40
0.1000
  0
CIRCLE
  8
44
 10
315.0000
 20
69.5000
 30
0.0000
 40
0.1000
  0
CIRCLE
  8
44
 10
317.0000
 20
67.5000
 30
0.0000
 40
0.1000
  0
CIRCLE
  8
44
 10
467.6000
 20
104.4000
 30
0.0000
 40
0.1500
  0
CIRCLE
  8
44
 10
336.0000
 20
63.5000
 30
0.0000
 40
0.1000
  0
CIRCLE
  8
44
 10
339.0000
 20
62.5000
 30
0.0000
 40
0.1000
  0
CIRCLE
  8
44
 10
340.0000
 20
59.5000
 30
0.0000
 40
0.1000
  0
CIRCLE
  8
44
 10
336.0000
 20
65.0000
 30
0.0000
 40
0.1000
  0
CIRCLE
  8
44
 10
336.0000
 20
71.0000
 30
0.0000
 40
0.1000
  0
CIRCLE
  8
44
 10
336.0000
 20
74.0000
 30
0.0000
 40
0.1000
  0
CIRCLE
  8
44
 10
335.0000
 20
55.0000
 30
0.0000
 40
0.1000
  0
CIRCLE
  8
44
 10
334.1000
 20
59.0000
 30
0.0000
 40
0.1000
  0
CIRCLE
  8
44
 10
333.1000
 20
60.1000
 30
0.0000
 40
0.1000
  0
CIRCLE
  8
44
 10
333.8000
 20
56.4000
 30
0.0000
 40
0.1000
  0
CIRCLE
  8
44
 10
332.3000
 20
57.6000
 30
0.0000
 40
0.1000
  0
CIRCLE
  8
44
 10
331.1000
 20
58.7000
 30
0.0000
 40
0.1000
  0
CIRCLE
  8
44
 10
389.0000
 20
108.0000
 30
0.0000
 40
0.1000
  0
CIRCLE
  8
44
 10
321.5000
 20
89.5000
 30
0.0000
 40
0.1000
  0
CIRCLE
  8
44
 10
315.8000
 20
35.4000
 30
0.0000
 40
0.1000
  0
CIRCLE
  8
44
 10
457.5000
 20
102.1000
 30
0.0000
 40
0.1500
  0
CIRCLE
  8
44
 10
466.2000
 20
104.4000
 30
0.0000
 40
0.1500
  0
CIRCLE
  8
44
 10
465.9000
 20
102.1000
 30
0.0000
 40
0.1500
  0
CIRCLE
  8
44
 10
304.0000
 20
96.0000
 30
0.0000
 40
0.1000
  0
CIRCLE
  8
44
 10
307.0000
 20
96.0000
 30
0.0000
 40
0.1000
  0
CIRCLE
  8
44
 10
310.0000
 20
96.0000
 30
0.0000
 40
0.1000
  0
CIRCLE
  8
44
 10
313.0000
 20
96.0000
 30
0.0000
 40
0.1000
  0
CIRCLE
  8
44
 10
308.0000
 20
94.0000
 30
0.0000
 40
0.1000
  0
CIRCLE
  8
44
 10
311.0000
 20
94.0000
 30
0.0000
 40
0.1000
  0
CIRCLE
  8
44
 10
304.0000
 20
71.0000
 30
0.0000
 40
0.1000
  0
CIRCLE
  8
44
 10
307.0000
 20
71.0000
 30
0.0000
 40
0.1000
  0
CIRCLE
  8
44
 10
311.0000
 20
71.0000
 30
0.0000
 40
0.1000
  0
CIRCLE
  8
44
 10
304.0000
 20
69.0000
 30
0.0000
 40
0.1000
  0
CIRCLE
  8
44
 10
307.0000
 20
69.0000
 30
0.0000
 40
0.1000
  0
CIRCLE
  8
44
 10
311.0000
 20
69.0000
 30
0.0000
 40
0.1000
  0
CIRCLE
  8
44
 10
301.0000
 20
21.0000
 30
0.0000
 40
0.1000
  0
CIRCLE
  8
44
 10
304.0000
 20
21.0000
 30
0.0000
 40
0.1000
  0
CIRCLE
  8
44
 10
308.0000
 20
21.0000
 30
0.0000
 40
0.1000
  0
CIRCLE
  8
44
 10
312.0000
 20
21.0000
 30
0.0000
 40
0.1000
  0
CIRCLE
  8
44
 10
310.0000
 20
19.0000
 30
0.0000
 40
0.1000
  0
CIRCLE
  8
44
 10
306.0000
 20
19.0000
 30
0.0000
 40
0.1000
  0
CIRCLE
  8
44
 10
304.0000
 20
46.0000
 30
0.0000
 40
0.1000
  0
CIRCLE
  8
44
 10
307.0000
 20
46.0000
 30
0.0000
 40
0.1000
  0
CIRCLE
  8
44
 10
311.0000
 20
46.0000
 30
0.0000
 40
0.1000
  0
CIRCLE
  8
44
 10
307.0000
 20
44.0000
 30
0.0000
 40
0.1000
  0
CIRCLE
  8
44
 10
304.0000
 20
44.0000
 30
0.0000
 40
0.1000
  0
CIRCLE
  8
44
 10
447.3000
 20
79.5000
 30
0.0000
 40
0.1000
  0
CIRCLE
  8
44
 10
446.5000
 20
79.5000
 30
0.0000
 40
0.1000
  0
CIRCLE
  8
44
 10
445.8000
 20
79.5000
 30
0.0000
 40
0.1000
  0
CIRCLE
  8
44
 10
448.7000
 20
79.5000
 30
0.0000
 40
0.1000
  0
CIRCLE
  8
44
 10
446.2000
 20
86.7000
 30
0.0000
 40
0.1000
  0
CIRCLE
  8
44
 10
446.1000
 20
87.8000
 30
0.0000
 40
0.1000
  0
CIRCLE
  8
44
 10
446.2000
 20
89.8000
 30
0.0000
 40
0.1000
  0
CIRCLE
  8
44
 10
446.2000
 20
91.0000
 30
0.0000
 40
0.1000
  0
CIRCLE
  8
44
 10
445.5000
 20
92.6000
 30
0.0000
 40
0.1000
  0
CIRCLE
  8
44
 10
442.0000
 20
92.2000
 30
0.0000
 40
0.1000
  0
CIRCLE
  8
44
 10
442.9000
 20
92.6000
 30
0.0000
 40
0.1000
  0
CIRCLE
  8
44
 10
446.5000
 20
92.6000
 30
0.0000
 40
0.1000
  0
CIRCLE
  8
44
 10
449.2000
 20
92.6000
 30
0.0000
 40
0.1000
  0
CIRCLE
  8
44
 10
445.2000
 20
89.8000
 30
0.0000
 40
0.1000
  0
CIRCLE
  8
44
 10
447.2000
 20
89.8000
 30
0.0000
 40
0.1000
  0
CIRCLE
  8
44
 10
448.9000
 20
89.7000
 30
0.0000
 40
0.1000
  0
CIRCLE
  8
44
 10
438.7000
 20
85.3000
 30
0.0000
 40
0.1000
  0
CIRCLE
  8
44
 10
438.7000
 20
84.4000
 30
0.0000
 40
0.1000
  0
CIRCLE
  8
44
 10
439.8000
 20
83.3000
 30
0.0000
 40
0.1000
  0
CIRCLE
  8
44
 10
439.9000
 20
81.3000
 30
0.0000
 40
0.1000
  0
CIRCLE
  8
44
 10
439.9000
 20
80.0000
 30
0.0000
 40
0.1000
  0
CIRCLE
  8
44
 10
451.2000
 20
84.7000
 30
0.0000
 40
0.1000
  0
CIRCLE
  8
44
 10
451.3000
 20
82.2000
 30
0.0000
 40
0.1000
  0
CIRCLE
  8
44
 10
440.6000
 20
86.8000
 30
0.0000
 40
0.1000
  0
CIRCLE
  8
44
 10
456.6000
 20
85.0000
 30
0.0000
 40
0.1000
  0
CIRCLE
  8
44
 10
437.7000
 20
100.1000
 30
0.0000
 40
0.1000
  0
CIRCLE
  8
44
 10
381.2000
 20
112.0000
 30
0.0000
 40
0.1000
  0
CIRCLE
  8
44
 10
320.6000
 20
45.5000
 30
0.0000
 40
0.1000
  0
CIRCLE
  8
44
 10
320.3000
 20
70.6000
 30
0.0000
 40
0.1000
  0
CIRCLE
  8
44
 10
320.9000
 20
96.2000
 30
0.0000
 40
0.1000
  0
CIRCLE
  8
44
 10
441.6000
 20
89.8000
 30
0.0000
 40
0.1000
  0
CIRCLE
  8
44
 10
317.5000
 20
18.5000
 30
0.0000
 40
0.1000
  0
CIRCLE
  8
44
 10
332.0000
 20
18.5000
 30
0.0000
 40
0.1000
  0
CIRCLE
  8
44
 10
317.0000
 20
38.5000
 30
0.0000
 40
0.1000
  0
CIRCLE
  8
44
 10
319.0000
 20
37.5000
 30
0.0000
 40
0.1000
  0
CIRCLE
  8
44
 10
322.0000
 20
37.5000
 30
0.0000
 40
0.1000
  0
CIRCLE
  8
44
 10
325.0000
 20
38.0000
 30
0.0000
 40
0.1000
  0
CIRCLE
  8
44
 10
322.0000
 20
39.5000
 30
0.0000
 40
0.1000
  0
CIRCLE
  8
44
 10
318.5000
 20
41.0000
 30
0.0000
 40
0.1000
  0
CIRCLE
  8
44
 10
329.5000
 20
34.0000
 30
0.0000
 40
0.1000
  0
CIRCLE
  8
44
 10
316.5000
 20
64.0000
 30
0.0000
 40
0.1000
  0
CIRCLE
  8
44
 10
318.0000
 20
62.5000
 30
0.0000
 40
0.1000
  0
CIRCLE
  8
44
 10
320.5000
 20
62.5000
 30
0.0000
 40
0.1000
  0
CIRCLE
  8
44
 10
323.0000
 20
62.5000
 30
0.0000
 40
0.1000
  0
CIRCLE
  8
44
 10
323.5000
 20
64.5000
 30
0.0000
 40
0.1000
  0
CIRCLE
  8
44
 10
321.0000
 20
64.5000
 30
0.0000
 40
0.1000
  0
CIRCLE
  8
44
 10
318.5000
 20
66.0000
 30
0.0000
 40
0.1000
  0
CIRCLE
  8
44
 10
327.5000
 20
62.5000
 30
0.0000
 40
0.1000
  0
CIRCLE
  8
44
 10
304.5000
 20
94.0000
 30
0.0000
 40
0.1000
  0
CIRCLE
  8
44
 10
317.0000
 20
89.0000
 30
0.0000
 40
0.1000
  0
CIRCLE
  8
44
 10
318.5000
 20
87.5000
 30
0.0000
 40
0.1000
  0
CIRCLE
  8
44
 10
321.5000
 20
87.5000
 30
0.0000
 40
0.1000
  0
CIRCLE
  8
44
 10
324.5000
 20
87.5000
 30
0.0000
 40
0.1000
  0
CIRCLE
  8
44
 10
319.0000
 20
90.5000
 30
0.0000
 40
0.1000
  0
CIRCLE
  8
44
 10
336.0000
 20
76.0000
 30
0.0000
 40
0.1000
  0
CIRCLE
  8
44
 10
334.0000
 20
78.0000
 30
0.0000
 40
0.1000
  0
CIRCLE
  8
44
 10
332.5000
 20
79.5000
 30
0.0000
 40
0.1000
  0
CIRCLE
  8
44
 10
330.5000
 20
81.5000
 30
0.0000
 40
0.1000
  0
CIRCLE
  8
44
 10
328.5000
 20
83.5000
 30
0.0000
 40
0.1000
  0
CIRCLE
  8
44
 10
330.0000
 20
86.0000
 30
0.0000
 40
0.1000
  0
CIRCLE
  8
44
 10
331.5000
 20
84.5000
 30
0.0000
 40
0.1000
  0
CIRCLE
  8
44
 10
333.0000
 20
83.0000
 30
0.0000
 40
0.1000
  0
CIRCLE
  8
44
 10
334.0000
 20
82.0000
 30
0.0000
 40
0.1000
  0
CIRCLE
  8
44
 10
336.0000
 20
80.0000
 30
0.0000
 40
0.1000
  0
CIRCLE
  8
44
 10
338.0000
 20
78.0000
 30
0.0000
 40
0.1000
  0
CIRCLE
  8
44
 10
327.5000
 20
85.0000
 30
0.0000
 40
0.1000
  0
CIRCLE
  8
44
 10
329.0000
 20
90.5000
 30
0.0000
 40
0.1000
  0
CIRCLE
  8
44
 10
329.0000
 20
66.0000
 30
0.0000
 40
0.1000
  0
CIRCLE
  8
44
 10
329.0000
 20
41.0000
 30
0.0000
 40
0.1000
  0
CIRCLE
  8
44
 10
312.0000
 20
18.0000
 30
0.0000
 40
0.1000
  0
CIRCLE
  8
44
 10
313.5000
 20
16.0000
 30
0.0000
 40
0.1000
  0
CIRCLE
  8
44
 10
315.0000
 20
14.5000
 30
0.0000
 40
0.1000
  0
CIRCLE
  8
44
 10
317.0000
 20
13.5000
 30
0.0000
 40
0.1000
  0
CIRCLE
  8
44
 10
320.0000
 20
13.5000
 30
0.0000
 40
0.1000
  0
CIRCLE
  8
44
 10
322.5000
 20
13.5000
 30
0.0000
 40
0.1000
  0
CIRCLE
  8
44
 10
318.0000
 20
15.5000
 30
0.0000
 40
0.1000
  0
CIRCLE
  8
44
 10
316.5000
 20
16.5000
 30
0.0000
 40
0.1000
  0
CIRCLE
  8
44
 10
315.0000
 20
18.5000
 30
0.0000
 40
0.1000
  0
CIRCLE
  8
44
 10
313.5000
 20
20.0000
 30
0.0000
 40
0.1000
  0
CIRCLE
  8
44
 10
325.0000
 20
13.5000
 30
0.0000
 40
0.1000
  0
CIRCLE
  8
44
 10
327.5000
 20
14.0000
 30
0.0000
 40
0.1000
  0
CIRCLE
  8
44
 10
335.5000
 20
18.5000
 30
0.0000
 40
0.1000
  0
CIRCLE
  8
44
 10
334.0000
 20
17.0000
 30
0.0000
 40
0.1000
  0
CIRCLE
  8
44
 10
332.5000
 20
15.5000
 30
0.0000
 40
0.1000
  0
CIRCLE
  8
44
 10
333.5000
 20
20.5000
 30
0.0000
 40
0.1000
  0
CIRCLE
  8
44
 10
311.0000
 20
44.0000
 30
0.0000
 40
0.1000
  0
CIRCLE
  8
44
 10
304.0000
 20
19.0000
 30
0.0000
 40
0.1000
  0
CIRCLE
  8
44
 10
308.0000
 20
19.0000
 30
0.0000
 40
0.1000
  0
CIRCLE
  8
44
 10
306.0000
 20
21.0000
 30
0.0000
 40
0.1000
  0
CIRCLE
  8
44
 10
310.0000
 20
21.0000
 30
0.0000
 40
0.1000
  0
CIRCLE
  8
44
 10
344.5000
 20
31.0000
 30
0.0000
 40
0.1000
  0
CIRCLE
  8
44
 10
309.0000
 20
44.0000
 30
0.0000
 40
0.1000
  0
CIRCLE
  8
44
 10
309.0000
 20
46.0000
 30
0.0000
 40
0.1000
  0
CIRCLE
  8
44
 10
313.5000
 20
46.0000
 30
0.0000
 40
0.1000
  0
CIRCLE
  8
44
 10
313.5000
 20
71.0000
 30
0.0000
 40
0.1000
  0
CIRCLE
  8
44
 10
337.5000
 20
58.0000
 30
0.0000
 40
0.1000
  0
CIRCLE
  8
44
 10
291.0000
 20
1.0000
 30
0.0000
 40
0.1000
  0
CIRCLE
  8
44
 10
301.0000
 20
1.0000
 30
0.0000
 40
0.1000
  0
CIRCLE
  8
44
 10
311.0000
 20
1.0000
 30
0.0000
 40
0.1000
  0
CIRCLE
  8
44
 10
321.0000
 20
1.0000
 30
0.0000
 40
0.1000
  0
CIRCLE
  8
44
 10
331.0000
 20
1.0000
 30
0.0000
 40
0.1000
  0
CIRCLE
  8
44
 10
341.0000
 20
1.0000
 30
0.0000
 40
0.1000
  0
CIRCLE
  8
44
 10
351.0000
 20
1.0000
 30
0.0000
 40
0.1000
  0
CIRCLE
  8
44
 10
361.0000
 20
1.0000
 30
0.0000
 40
0.1000
  0
CIRCLE
  8
44
 10
371.0000
 20
1.0000
 30
0.0000
 40
0.1000
  0
CIRCLE
  8
44
 10
381.0000
 20
1.0000
 30
0.0000
 40
0.1000
  0
CIRCLE
  8
44
 10
391.0000
 20
1.0000
 30
0.0000
 40
0.1000
  0
CIRCLE
  8
44
 10
401.0000
 20
1.0000
 30
0.0000
 40
0.1000
  0
CIRCLE
  8
44
 10
411.0000
 20
1.0000
 30
0.0000
 40
0.1000
  0
CIRCLE
  8
44
 10
421.0000
 20
1.0000
 30
0.0000
 40
0.1000
  0
CIRCLE
  8
44
 10
431.0000
 20
1.0000
 30
0.0000
 40
0.1000
  0
CIRCLE
  8
44
 10
441.0000
 20
1.0000
 30
0.0000
 40
0.1000
  0
CIRCLE
  8
44
 10
451.0000
 20
1.0000
 30
0.0000
 40
0.1000
  0
CIRCLE
  8
44
 10
461.0000
 20
1.0000
 30
0.0000
 40
0.1000
  0
CIRCLE
  8
44
 10
471.0000
 20
1.0000
 30
0.0000
 40
0.1000
  0
CIRCLE
  8
44
 10
481.0000
 20
1.0000
 30
0.0000
 40
0.1000
  0
CIRCLE
  8
44
 10
296.0000
 20
1.0000
 30
0.0000
 40
0.1000
  0
CIRCLE
  8
44
 10
306.0000
 20
1.0000
 30
0.0000
 40
0.1000
  0
CIRCLE
  8
44
 10
316.0000
 20
1.0000
 30
0.0000
 40
0.1000
  0
CIRCLE
  8
44
 10
326.0000
 20
1.0000
 30
0.0000
 40
0.1000
  0
CIRCLE
  8
44
 10
336.0000
 20
1.0000
 30
0.0000
 40
0.1000
  0
CIRCLE
  8
44
 10
346.0000
 20
1.0000
 30
0.0000
 40
0.1000
  0
CIRCLE
  8
44
 10
356.0000
 20
1.0000
 30
0.0000
 40
0.1000
  0
CIRCLE
  8
44
 10
366.0000
 20
1.0000
 30
0.0000
 40
0.1000
  0
CIRCLE
  8
44
 10
376.0000
 20
1.0000
 30
0.0000
 40
0.1000
  0
CIRCLE
  8
44
 10
386.0000
 20
1.0000
 30
0.0000
 40
0.1000
  0
CIRCLE
  8
44
 10
396.0000
 20
1.0000
 30
0.0000
 40
0.1000
  0
CIRCLE
  8
44
 10
406.0000
 20
1.0000
 30
0.0000
 40
0.1000
  0
CIRCLE
  8
44
 10
416.0000
 20
1.0000
 30
0.0000
 40
0.1000
  0
CIRCLE
  8
44
 10
426.0000
 20
1.0000
 30
0.0000
 40
0.1000
  0
CIRCLE
  8
44
 10
436.0000
 20
1.0000
 30
0.0000
 40
0.1000
  0
CIRCLE
  8
44
 10
446.0000
 20
1.0000
 30
0.0000
 40
0.1000
  0
CIRCLE
  8
44
 10
456.0000
 20
1.0000
 30
0.0000
 40
0.1000
  0
CIRCLE
  8
44
 10
466.0000
 20
1.0000
 30
0.0000
 40
0.1000
  0
CIRCLE
  8
44
 10
476.0000
 20
1.0000
 30
0.0000
 40
0.1000
  0
CIRCLE
  8
44
 10
291.0000
 20
86.0000
 30
0.0000
 40
0.1000
  0
CIRCLE
  8
44
 10
291.0000
 20
76.0000
 30
0.0000
 40
0.1000
  0
CIRCLE
  8
44
 10
291.0000
 20
66.0000
 30
0.0000
 40
0.1000
  0
CIRCLE
  8
44
 10
291.0000
 20
56.0000
 30
0.0000
 40
0.1000
  0
CIRCLE
  8
44
 10
291.0000
 20
36.0000
 30
0.0000
 40
0.1000
  0
CIRCLE
  8
44
 10
291.0000
 20
26.0000
 30
0.0000
 40
0.1000
  0
CIRCLE
  8
44
 10
291.0000
 20
16.0000
 30
0.0000
 40
0.1000
  0
CIRCLE
  8
44
 10
291.0000
 20
6.0000
 30
0.0000
 40
0.1000
  0
CIRCLE
  8
44
 10
291.0000
 20
101.0000
 30
0.0000
 40
0.1000
  0
CIRCLE
  8
44
 10
291.0000
 20
91.0000
 30
0.0000
 40
0.1000
  0
CIRCLE
  8
44
 10
291.0000
 20
81.0000
 30
0.0000
 40
0.1000
  0
CIRCLE
  8
44
 10
291.0000
 20
51.0000
 30
0.0000
 40
0.1000
  0
CIRCLE
  8
44
 10
291.0000
 20
41.0000
 30
0.0000
 40
0.1000
  0
CIRCLE
  8
44
 10
291.0000
 20
31.0000
 30
0.0000
 40
0.1000
  0
CIRCLE
  8
44
 10
291.0000
 20
11.0000
 30
0.0000
 40
0.1000
  0
CIRCLE
  8
44
 10
296.0000
 20
101.0000
 30
0.0000
 40
0.1000
  0
CIRCLE
  8
44
 10
301.0000
 20
101.0000
 30
0.0000
 40
0.1000
  0
CIRCLE
  8
44
 10
306.0000
 20
101.0000
 30
0.0000
 40
0.1000
  0
CIRCLE
  8
44
 10
311.0000
 20
101.0000
 30
0.0000
 40
0.1000
  0
CIRCLE
  8
44
 10
336.0000
 20
101.0000
 30
0.0000
 40
0.1000
  0
CIRCLE
  8
44
 10
345.0000
 20
5.0000
 30
0.0000
 40
0.1000
  0
CIRCLE
  8
44
 10
335.0000
 20
5.0000
 30
0.0000
 40
0.1000
  0
CIRCLE
  8
44
 10
305.0000
 20
15.0000
 30
0.0000
 40
0.1000
  0
CIRCLE
  8
44
 10
305.0000
 20
30.0000
 30
0.0000
 40
0.1000
  0
CIRCLE
  8
44
 10
305.0000
 20
40.0000
 30
0.0000
 40
0.1000
  0
CIRCLE
  8
44
 10
305.0000
 20
55.0000
 30
0.0000
 40
0.1000
  0
CIRCLE
  8
44
 10
305.0000
 20
65.0000
 30
0.0000
 40
0.1000
  0
CIRCLE
  8
44
 10
300.0000
 20
60.0000
 30
0.0000
 40
0.1000
  0
CIRCLE
  8
44
 10
300.0000
 20
80.0000
 30
0.0000
 40
0.1000
  0
CIRCLE
  8
44
 10
305.0000
 20
85.0000
 30
0.0000
 40
0.1000
  0
CIRCLE
  8
44
 10
300.0000
 20
35.0000
 30
0.0000
 40
0.1000
  0
CIRCLE
  8
44
 10
300.0000
 20
10.0000
 30
0.0000
 40
0.1000
  0
CIRCLE
  8
44
 10
340.0000
 20
10.0000
 30
0.0000
 40
0.1000
  0
CIRCLE
  8
44
 10
340.0000
 20
15.0000
 30
0.0000
 40
0.1000
  0
CIRCLE
  8
44
 10
335.0000
 20
52.5000
 30
0.0000
 40
0.1000
  0
CIRCLE
  8
44
 10
337.0000
 20
52.5000
 30
0.0000
 40
0.1000
  0
CIRCLE
  8
44
 10
330.4000
 20
36.1000
 30
0.0000
 40
0.1000
  0
CIRCLE
  8
44
 10
327.3000
 20
35.0000
 30
0.0000
 40
0.1000
  0
CIRCLE
  8
44
 10
328.7000
 20
36.6000
 30
0.0000
 40
0.1000
  0
CIRCLE
  8
44
 10
323.9000
 20
37.4000
 30
0.0000
 40
0.1000
  0
CIRCLE
  8
44
 10
325.4000
 20
62.6000
 30
0.0000
 40
0.1000
  0
CIRCLE
  8
44
 10
325.7000
 20
86.6000
 30
0.0000
 40
0.1000
  0
CIRCLE
  8
44
 10
305.0000
 20
75.0000
 30
0.0000
 40
0.1000
  0
CIRCLE
  8
44
 10
305.0000
 20
5.0000
 30
0.0000
 40
0.1000
  0
CIRCLE
  8
44
 10
451.0000
 20
115.2000
 30
0.0000
 40
0.1000
  0
CIRCLE
  8
44
 10
452.1000
 20
79.6000
 30
0.0000
 40
0.1000
  0
CIRCLE
  8
44
 10
448.0000
 20
79.5000
 30
0.0000
 40
0.1000
  0
CIRCLE
  8
44
 10
461.0000
 20
90.6000
 30
0.0000
 40
0.1500
  0
CIRCLE
  8
44
 10
340.5000
 20
55.0000
 30
0.0000
 40
0.1000
  0
CIRCLE
  8
44
 10
342.0000
 20
53.5000
 30
0.0000
 40
0.1000
  0
CIRCLE
  8
44
 10
343.5000
 20
52.0000
 30
0.0000
 40
0.1000
  0
CIRCLE
  8
44
 10
345.5000
 20
50.0000
 30
0.0000
 40
0.1000
  0
CIRCLE
  8
44
 10
347.0000
 20
48.5000
 30
0.0000
 40
0.1000
  0
CIRCLE
  8
44
 10
348.5000
 20
47.0000
 30
0.0000
 40
0.1000
  0
CIRCLE
  8
44
 10
350.0000
 20
45.5000
 30
0.0000
 40
0.1000
  0
CIRCLE
  8
44
 10
351.5000
 20
44.0000
 30
0.0000
 40
0.1000
  0
CIRCLE
  8
44
 10
354.0000
 20
44.0000
 30
0.0000
 40
0.1000
  0
CIRCLE
  8
44
 10
357.0000
 20
44.0000
 30
0.0000
 40
0.1000
  0
CIRCLE
  8
44
 10
360.0000
 20
44.0000
 30
0.0000
 40
0.1000
  0
CIRCLE
  8
44
 10
363.0000
 20
44.0000
 30
0.0000
 40
0.1000
  0
CIRCLE
  8
44
 10
366.0000
 20
44.0000
 30
0.0000
 40
0.1000
  0
CIRCLE
  8
44
 10
369.0000
 20
44.0000
 30
0.0000
 40
0.1000
  0
CIRCLE
  8
44
 10
372.0000
 20
44.0000
 30
0.0000
 40
0.1000
  0
CIRCLE
  8
44
 10
375.0000
 20
44.0000
 30
0.0000
 40
0.1000
  0
CIRCLE
  8
44
 10
378.0000
 20
44.0000
 30
0.0000
 40
0.1000
  0
CIRCLE
  8
44
 10
381.0000
 20
44.0000
 30
0.0000
 40
0.1000
  0
CIRCLE
  8
44
 10
384.0000
 20
44.0000
 30
0.0000
 40
0.1000
  0
CIRCLE
  8
44
 10
387.0000
 20
44.0000
 30
0.0000
 40
0.1000
  0
CIRCLE
  8
44
 10
390.0000
 20
44.0000
 30
0.0000
 40
0.1000
  0
CIRCLE
  8
44
 10
393.0000
 20
44.0000
 30
0.0000
 40
0.1000
  0
CIRCLE
  8
44
 10
396.0000
 20
44.0000
 30
0.0000
 40
0.1000
  0
CIRCLE
  8
44
 10
399.0000
 20
44.0000
 30
0.0000
 40
0.1000
  0
CIRCLE
  8
44
 10
402.0000
 20
44.0000
 30
0.0000
 40
0.1000
  0
CIRCLE
  8
44
 10
405.0000
 20
44.0000
 30
0.0000
 40
0.1000
  0
CIRCLE
  8
44
 10
408.0000
 20
44.0000
 30
0.0000
 40
0.1000
  0
CIRCLE
  8
44
 10
411.0000
 20
44.0000
 30
0.0000
 40
0.1000
  0
CIRCLE
  8
44
 10
414.0000
 20
44.0000
 30
0.0000
 40
0.1000
  0
CIRCLE
  8
44
 10
417.0000
 20
44.0000
 30
0.0000
 40
0.1000
  0
CIRCLE
  8
44
 10
420.0000
 20
44.0000
 30
0.0000
 40
0.1000
  0
CIRCLE
  8
44
 10
423.0000
 20
44.0000
 30
0.0000
 40
0.1000
  0
CIRCLE
  8
44
 10
426.0000
 20
44.0000
 30
0.0000
 40
0.1000
  0
CIRCLE
  8
44
 10
429.0000
 20
44.0000
 30
0.0000
 40
0.1000
  0
CIRCLE
  8
44
 10
432.0000
 20
44.0000
 30
0.0000
 40
0.1000
  0
CIRCLE
  8
44
 10
435.0000
 20
44.0000
 30
0.0000
 40
0.1000
  0
CIRCLE
  8
44
 10
438.0000
 20
44.0000
 30
0.0000
 40
0.1000
  0
CIRCLE
  8
44
 10
441.0000
 20
44.0000
 30
0.0000
 40
0.1000
  0
CIRCLE
  8
44
 10
444.0000
 20
44.0000
 30
0.0000
 40
0.1000
  0
CIRCLE
  8
44
 10
447.0000
 20
44.0000
 30
0.0000
 40
0.1000
  0
CIRCLE
  8
44
 10
450.0000
 20
44.0000
 30
0.0000
 40
0.1000
  0
CIRCLE
  8
44
 10
453.0000
 20
44.0000
 30
0.0000
 40
0.1000
  0
CIRCLE
  8
44
 10
456.0000
 20
44.0000
 30
0.0000
 40
0.1000
  0
CIRCLE
  8
44
 10
459.0000
 20
44.0000
 30
0.0000
 40
0.1000
  0
CIRCLE
  8
44
 10
462.0000
 20
44.0000
 30
0.0000
 40
0.1000
  0
CIRCLE
  8
44
 10
465.0000
 20
44.0000
 30
0.0000
 40
0.1000
  0
CIRCLE
  8
44
 10
468.0000
 20
44.0000
 30
0.0000
 40
0.1000
  0
CIRCLE
  8
44
 10
471.0000
 20
44.0000
 30
0.0000
 40
0.1000
  0
CIRCLE
  8
44
 10
474.0000
 20
44.0000
 30
0.0000
 40
0.1000
  0
CIRCLE
  8
44
 10
477.0000
 20
44.0000
 30
0.0000
 40
0.1000
  0
CIRCLE
  8
44
 10
355.0000
 20
46.0000
 30
0.0000
 40
0.1000
  0
CIRCLE
  8
44
 10
358.0000
 20
46.0000
 30
0.0000
 40
0.1000
  0
CIRCLE
  8
44
 10
361.0000
 20
46.0000
 30
0.0000
 40
0.1000
  0
CIRCLE
  8
44
 10
364.0000
 20
46.0000
 30
0.0000
 40
0.1000
  0
CIRCLE
  8
44
 10
367.0000
 20
46.0000
 30
0.0000
 40
0.1000
  0
CIRCLE
  8
44
 10
370.0000
 20
46.0000
 30
0.0000
 40
0.1000
  0
CIRCLE
  8
44
 10
373.0000
 20
46.0000
 30
0.0000
 40
0.1000
  0
CIRCLE
  8
44
 10
376.0000
 20
46.0000
 30
0.0000
 40
0.1000
  0
CIRCLE
  8
44
 10
379.0000
 20
46.0000
 30
0.0000
 40
0.1000
  0
CIRCLE
  8
44
 10
382.0000
 20
46.0000
 30
0.0000
 40
0.1000
  0
CIRCLE
  8
44
 10
385.0000
 20
46.0000
 30
0.0000
 40
0.1000
  0
CIRCLE
  8
44
 10
388.0000
 20
46.0000
 30
0.0000
 40
0.1000
  0
CIRCLE
  8
44
 10
391.0000
 20
46.0000
 30
0.0000
 40
0.1000
  0
CIRCLE
  8
44
 10
394.0000
 20
46.0000
 30
0.0000
 40
0.1000
  0
CIRCLE
  8
44
 10
397.0000
 20
46.0000
 30
0.0000
 40
0.1000
  0
CIRCLE
  8
44
 10
400.0000
 20
46.0000
 30
0.0000
 40
0.1000
  0
CIRCLE
  8
44
 10
403.0000
 20
46.0000
 30
0.0000
 40
0.1000
  0
CIRCLE
  8
44
 10
406.0000
 20
46.0000
 30
0.0000
 40
0.1000
  0
CIRCLE
  8
44
 10
409.0000
 20
46.0000
 30
0.0000
 40
0.1000
  0
CIRCLE
  8
44
 10
412.0000
 20
46.0000
 30
0.0000
 40
0.1000
  0
CIRCLE
  8
44
 10
415.0000
 20
46.0000
 30
0.0000
 40
0.1000
  0
CIRCLE
  8
44
 10
418.0000
 20
46.0000
 30
0.0000
 40
0.1000
  0
CIRCLE
  8
44
 10
421.0000
 20
46.0000
 30
0.0000
 40
0.1000
  0
CIRCLE
  8
44
 10
424.0000
 20
46.0000
 30
0.0000
 40
0.1000
  0
CIRCLE
  8
44
 10
427.0000
 20
46.0000
 30
0.0000
 40
0.1000
  0
CIRCLE
  8
44
 10
430.0000
 20
46.0000
 30
0.0000
 40
0.1000
  0
CIRCLE
  8
44
 10
433.0000
 20
46.0000
 30
0.0000
 40
0.1000
  0
CIRCLE
  8
44
 10
436.0000
 20
46.0000
 30
0.0000
 40
0.1000
  0
CIRCLE
  8
44
 10
439.0000
 20
46.0000
 30
0.0000
 40
0.1000
  0
CIRCLE
  8
44
 10
442.0000
 20
46.0000
 30
0.0000
 40
0.1000
  0
CIRCLE
  8
44
 10
445.0000
 20
46.0000
 30
0.0000
 40
0.1000
  0
CIRCLE
  8
44
 10
448.0000
 20
46.0000
 30
0.0000
 40
0.1000
  0
CIRCLE
  8
44
 10
451.0000
 20
46.0000
 30
0.0000
 40
0.1000
  0
CIRCLE
  8
44
 10
454.0000
 20
46.0000
 30
0.0000
 40
0.1000
  0
CIRCLE
  8
44
 10
457.0000
 20
46.0000
 30
0.0000
 40
0.1000
  0
CIRCLE
  8
44
 10
460.0000
 20
46.0000
 30
0.0000
 40
0.1000
  0
CIRCLE
  8
44
 10
463.0000
 20
46.0000
 30
0.0000
 40
0.1000
  0
CIRCLE
  8
44
 10
466.0000
 20
46.0000
 30
0.0000
 40
0.1000
  0
CIRCLE
  8
44
 10
469.0000
 20
46.0000
 30
0.0000
 40
0.1000
  0
CIRCLE
  8
44
 10
472.0000
 20
46.0000
 30
0.0000
 40
0.1000
  0
CIRCLE
  8
44
 10
475.0000
 20
46.0000
 30
0.0000
 40
0.1000
  0
CIRCLE
  8
44
 10
343.0000
 20
56.5000
 30
0.0000
 40
0.1000
  0
CIRCLE
  8
44
 10
344.5000
 20
55.0000
 30
0.0000
 40
0.1000
  0
CIRCLE
  8
44
 10
346.5000
 20
53.0000
 30
0.0000
 40
0.1000
  0
CIRCLE
  8
44
 10
348.0000
 20
51.5000
 30
0.0000
 40
0.1000
  0
CIRCLE
  8
44
 10
349.5000
 20
50.0000
 30
0.0000
 40
0.1000
  0
CIRCLE
  8
44
 10
351.0000
 20
48.5000
 30
0.0000
 40
0.1000
  0
CIRCLE
  8
44
 10
352.5000
 20
47.0000
 30
0.0000
 40
0.1000
  0
CIRCLE
  8
44
 10
349.0000
 20
29.0000
 30
0.0000
 40
0.1000
  0
CIRCLE
  8
44
 10
352.0000
 20
29.0000
 30
0.0000
 40
0.1000
  0
CIRCLE
  8
44
 10
355.0000
 20
29.0000
 30
0.0000
 40
0.1000
  0
CIRCLE
  8
44
 10
358.0000
 20
29.0000
 30
0.0000
 40
0.1000
  0
CIRCLE
  8
44
 10
361.0000
 20
29.0000
 30
0.0000
 40
0.1000
  0
CIRCLE
  8
44
 10
364.0000
 20
29.0000
 30
0.0000
 40
0.1000
  0
CIRCLE
  8
44
 10
367.0000
 20
29.0000
 30
0.0000
 40
0.1000
  0
CIRCLE
  8
44
 10
370.0000
 20
29.0000
 30
0.0000
 40
0.1000
  0
CIRCLE
  8
44
 10
373.0000
 20
29.0000
 30
0.0000
 40
0.1000
  0
CIRCLE
  8
44
 10
376.0000
 20
29.0000
 30
0.0000
 40
0.1000
  0
CIRCLE
  8
44
 10
379.0000
 20
29.0000
 30
0.0000
 40
0.1000
  0
CIRCLE
  8
44
 10
382.0000
 20
29.0000
 30
0.0000
 40
0.1000
  0
CIRCLE
  8
44
 10
385.0000
 20
29.0000
 30
0.0000
 40
0.1000
  0
CIRCLE
  8
44
 10
388.0000
 20
29.0000
 30
0.0000
 40
0.1000
  0
CIRCLE
  8
44
 10
391.0000
 20
29.0000
 30
0.0000
 40
0.1000
  0
CIRCLE
  8
44
 10
394.0000
 20
29.0000
 30
0.0000
 40
0.1000
  0
CIRCLE
  8
44
 10
397.0000
 20
29.0000
 30
0.0000
 40
0.1000
  0
CIRCLE
  8
44
 10
400.0000
 20
29.0000
 30
0.0000
 40
0.1000
  0
CIRCLE
  8
44
 10
403.0000
 20
29.0000
 30
0.0000
 40
0.1000
  0
CIRCLE
  8
44
 10
406.0000
 20
29.0000
 30
0.0000
 40
0.1000
  0
CIRCLE
  8
44
 10
409.0000
 20
29.0000
 30
0.0000
 40
0.1000
  0
CIRCLE
  8
44
 10
412.0000
 20
29.0000
 30
0.0000
 40
0.1000
  0
CIRCLE
  8
44
 10
415.0000
 20
29.0000
 30
0.0000
 40
0.1000
  0
CIRCLE
  8
44
 10
418.0000
 20
29.0000
 30
0.0000
 40
0.1000
  0
CIRCLE
  8
44
 10
421.0000
 20
29.0000
 30
0.0000
 40
0.1000
  0
CIRCLE
  8
44
 10
424.0000
 20
29.0000
 30
0.0000
 40
0.1000
  0
CIRCLE
  8
44
 10
427.0000
 20
29.0000
 30
0.0000
 40
0.1000
  0
CIRCLE
  8
44
 10
430.0000
 20
29.0000
 30
0.0000
 40
0.1000
  0
CIRCLE
  8
44
 10
433.0000
 20
29.0000
 30
0.0000
 40
0.1000
  0
CIRCLE
  8
44
 10
436.0000
 20
29.0000
 30
0.0000
 40
0.1000
  0
CIRCLE
  8
44
 10
439.0000
 20
29.0000
 30
0.0000
 40
0.1000
  0
CIRCLE
  8
44
 10
442.0000
 20
29.0000
 30
0.0000
 40
0.1000
  0
CIRCLE
  8
44
 10
445.0000
 20
29.0000
 30
0.0000
 40
0.1000
  0
CIRCLE
  8
44
 10
448.0000
 20
29.0000
 30
0.0000
 40
0.1000
  0
CIRCLE
  8
44
 10
451.0000
 20
29.0000
 30
0.0000
 40
0.1000
  0
CIRCLE
  8
44
 10
454.0000
 20
29.0000
 30
0.0000
 40
0.1000
  0
CIRCLE
  8
44
 10
457.0000
 20
29.0000
 30
0.0000
 40
0.1000
  0
CIRCLE
  8
44
 10
460.0000
 20
29.0000
 30
0.0000
 40
0.1000
  0
CIRCLE
  8
44
 10
463.0000
 20
29.0000
 30
0.0000
 40
0.1000
  0
CIRCLE
  8
44
 10
466.0000
 20
29.0000
 30
0.0000
 40
0.1000
  0
CIRCLE
  8
44
 10
469.0000
 20
29.0000
 30
0.0000
 40
0.1000
  0
CIRCLE
  8
44
 10
472.0000
 20
29.0000
 30
0.0000
 40
0.1000
  0
CIRCLE
  8
44
 10
350.0000
 20
31.0000
 30
0.0000
 40
0.1000
  0
CIRCLE
  8
44
 10
353.0000
 20
31.0000
 30
0.0000
 40
0.1000
  0
CIRCLE
  8
44
 10
356.0000
 20
31.0000
 30
0.0000
 40
0.1000
  0
CIRCLE
  8
44
 10
359.0000
 20
31.0000
 30
0.0000
 40
0.1000
  0
CIRCLE
  8
44
 10
362.0000
 20
31.0000
 30
0.0000
 40
0.1000
  0
CIRCLE
  8
44
 10
365.0000
 20
31.0000
 30
0.0000
 40
0.1000
  0
CIRCLE
  8
44
 10
368.0000
 20
31.0000
 30
0.0000
 40
0.1000
  0
CIRCLE
  8
44
 10
371.0000
 20
31.0000
 30
0.0000
 40
0.1000
  0
CIRCLE
  8
44
 10
374.0000
 20
31.0000
 30
0.0000
 40
0.1000
  0
CIRCLE
  8
44
 10
377.0000
 20
31.0000
 30
0.0000
 40
0.1000
  0
CIRCLE
  8
44
 10
380.0000
 20
31.0000
 30
0.0000
 40
0.1000
  0
CIRCLE
  8
44
 10
383.0000
 20
31.0000
 30
0.0000
 40
0.1000
  0
CIRCLE
  8
44
 10
386.0000
 20
31.0000
 30
0.0000
 40
0.1000
  0
CIRCLE
  8
44
 10
389.0000
 20
31.0000
 30
0.0000
 40
0.1000
  0
CIRCLE
  8
44
 10
392.0000
 20
31.0000
 30
0.0000
 40
0.1000
  0
CIRCLE
  8
44
 10
395.0000
 20
31.0000
 30
0.0000
 40
0.1000
  0
CIRCLE
  8
44
 10
398.0000
 20
31.0000
 30
0.0000
 40
0.1000
  0
CIRCLE
  8
44
 10
401.0000
 20
31.0000
 30
0.0000
 40
0.1000
  0
CIRCLE
  8
44
 10
404.0000
 20
31.0000
 30
0.0000
 40
0.1000
  0
CIRCLE
  8
44
 10
407.0000
 20
31.0000
 30
0.0000
 40
0.1000
  0
CIRCLE
  8
44
 10
410.0000
 20
31.0000
 30
0.0000
 40
0.1000
  0
CIRCLE
  8
44
 10
413.0000
 20
31.0000
 30
0.0000
 40
0.1000
  0
CIRCLE
  8
44
 10
416.0000
 20
31.0000
 30
0.0000
 40
0.1000
  0
CIRCLE
  8
44
 10
419.0000
 20
31.0000
 30
0.0000
 40
0.1000
  0
CIRCLE
  8
44
 10
422.0000
 20
31.0000
 30
0.0000
 40
0.1000
  0
CIRCLE
  8
44
 10
425.0000
 20
31.0000
 30
0.0000
 40
0.1000
  0
CIRCLE
  8
44
 10
428.0000
 20
31.0000
 30
0.0000
 40
0.1000
  0
CIRCLE
  8
44
 10
431.0000
 20
31.0000
 30
0.0000
 40
0.1000
  0
CIRCLE
  8
44
 10
434.0000
 20
31.0000
 30
0.0000
 40
0.1000
  0
CIRCLE
  8
44
 10
437.0000
 20
31.0000
 30
0.0000
 40
0.1000
  0
CIRCLE
  8
44
 10
440.0000
 20
31.0000
 30
0.0000
 40
0.1000
  0
CIRCLE
  8
44
 10
443.0000
 20
31.0000
 30
0.0000
 40
0.1000
  0
CIRCLE
  8
44
 10
446.0000
 20
31.0000
 30
0.0000
 40
0.1000
  0
CIRCLE
  8
44
 10
449.0000
 20
31.0000
 30
0.0000
 40
0.1000
  0
CIRCLE
  8
44
 10
452.0000
 20
31.0000
 30
0.0000
 40
0.1000
  0
CIRCLE
  8
44
 10
455.0000
 20
31.0000
 30
0.0000
 40
0.1000
  0
CIRCLE
  8
44
 10
458.0000
 20
31.0000
 30
0.0000
 40
0.1000
  0
CIRCLE
  8
44
 10
461.0000
 20
31.0000
 30
0.0000
 40
0.1000
  0
CIRCLE
  8
44
 10
464.0000
 20
31.0000
 30
0.0000
 40
0.1000
  0
CIRCLE
  8
44
 10
467.0000
 20
31.0000
 30
0.0000
 40
0.1000
  0
CIRCLE
  8
44
 10
470.0000
 20
31.0000
 30
0.0000
 40
0.1000
  0
CIRCLE
  8
44
 10
349.0000
 20
34.0000
 30
0.0000
 40
0.1000
  0
CIRCLE
  8
44
 10
352.0000
 20
34.0000
 30
0.0000
 40
0.1000
  0
CIRCLE
  8
44
 10
355.0000
 20
34.0000
 30
0.0000
 40
0.1000
  0
CIRCLE
  8
44
 10
358.0000
 20
34.0000
 30
0.0000
 40
0.1000
  0
CIRCLE
  8
44
 10
361.0000
 20
34.0000
 30
0.0000
 40
0.1000
  0
CIRCLE
  8
44
 10
364.0000
 20
34.0000
 30
0.0000
 40
0.1000
  0
CIRCLE
  8
44
 10
367.0000
 20
34.0000
 30
0.0000
 40
0.1000
  0
CIRCLE
  8
44
 10
370.0000
 20
34.0000
 30
0.0000
 40
0.1000
  0
CIRCLE
  8
44
 10
373.0000
 20
34.0000
 30
0.0000
 40
0.1000
  0
CIRCLE
  8
44
 10
376.0000
 20
34.0000
 30
0.0000
 40
0.1000
  0
CIRCLE
  8
44
 10
379.0000
 20
34.0000
 30
0.0000
 40
0.1000
  0
CIRCLE
  8
44
 10
382.0000
 20
34.0000
 30
0.0000
 40
0.1000
  0
CIRCLE
  8
44
 10
385.0000
 20
34.0000
 30
0.0000
 40
0.1000
  0
CIRCLE
  8
44
 10
388.0000
 20
34.0000
 30
0.0000
 40
0.1000
  0
CIRCLE
  8
44
 10
391.0000
 20
34.0000
 30
0.0000
 40
0.1000
  0
CIRCLE
  8
44
 10
394.0000
 20
34.0000
 30
0.0000
 40
0.1000
  0
CIRCLE
  8
44
 10
397.0000
 20
34.0000
 30
0.0000
 40
0.1000
  0
CIRCLE
  8
44
 10
400.0000
 20
34.0000
 30
0.0000
 40
0.1000
  0
CIRCLE
  8
44
 10
403.0000
 20
34.0000
 30
0.0000
 40
0.1000
  0
CIRCLE
  8
44
 10
406.0000
 20
34.0000
 30
0.0000
 40
0.1000
  0
CIRCLE
  8
44
 10
409.0000
 20
34.0000
 30
0.0000
 40
0.1000
  0
CIRCLE
  8
44
 10
412.0000
 20
34.0000
 30
0.0000
 40
0.1000
  0
CIRCLE
  8
44
 10
415.0000
 20
34.0000
 30
0.0000
 40
0.1000
  0
CIRCLE
  8
44
 10
418.0000
 20
34.0000
 30
0.0000
 40
0.1000
  0
CIRCLE
  8
44
 10
421.0000
 20
34.0000
 30
0.0000
 40
0.1000
  0
CIRCLE
  8
44
 10
424.0000
 20
34.0000
 30
0.0000
 40
0.1000
  0
CIRCLE
  8
44
 10
427.0000
 20
34.0000
 30
0.0000
 40
0.1000
  0
CIRCLE
  8
44
 10
430.0000
 20
34.0000
 30
0.0000
 40
0.1000
  0
CIRCLE
  8
44
 10
433.0000
 20
34.0000
 30
0.0000
 40
0.1000
  0
CIRCLE
  8
44
 10
436.0000
 20
34.0000
 30
0.0000
 40
0.1000
  0
CIRCLE
  8
44
 10
439.0000
 20
34.0000
 30
0.0000
 40
0.1000
  0
CIRCLE
  8
44
 10
442.0000
 20
34.0000
 30
0.0000
 40
0.1000
  0
CIRCLE
  8
44
 10
445.0000
 20
34.0000
 30
0.0000
 40
0.1000
  0
CIRCLE
  8
44
 10
448.0000
 20
34.0000
 30
0.0000
 40
0.1000
  0
CIRCLE
  8
44
 10
451.0000
 20
34.0000
 30
0.0000
 40
0.1000
  0
CIRCLE
  8
44
 10
454.0000
 20
34.0000
 30
0.0000
 40
0.1000
  0
CIRCLE
  8
44
 10
457.0000
 20
34.0000
 30
0.0000
 40
0.1000
  0
CIRCLE
  8
44
 10
460.0000
 20
34.0000
 30
0.0000
 40
0.1000
  0
CIRCLE
  8
44
 10
463.0000
 20
34.0000
 30
0.0000
 40
0.1000
  0
CIRCLE
  8
44
 10
466.0000
 20
34.0000
 30
0.0000
 40
0.1000
  0
CIRCLE
  8
44
 10
469.0000
 20
34.0000
 30
0.0000
 40
0.1000
  0
CIRCLE
  8
44
 10
472.0000
 20
34.0000
 30
0.0000
 40
0.1000
  0
CIRCLE
  8
44
 10
350.0000
 20
36.0000
 30
0.0000
 40
0.1000
  0
CIRCLE
  8
44
 10
353.0000
 20
36.0000
 30
0.0000
 40
0.1000
  0
CIRCLE
  8
44
 10
356.0000
 20
36.0000
 30
0.0000
 40
0.1000
  0
CIRCLE
  8
44
 10
359.0000
 20
36.0000
 30
0.0000
 40
0.1000
  0
CIRCLE
  8
44
 10
362.0000
 20
36.0000
 30
0.0000
 40
0.1000
  0
CIRCLE
  8
44
 10
365.0000
 20
36.0000
 30
0.0000
 40
0.1000
  0
CIRCLE
  8
44
 10
368.0000
 20
36.0000
 30
0.0000
 40
0.1000
  0
CIRCLE
  8
44
 10
371.0000
 20
36.0000
 30
0.0000
 40
0.1000
  0
CIRCLE
  8
44
 10
374.0000
 20
36.0000
 30
0.0000
 40
0.1000
  0
CIRCLE
  8
44
 10
377.0000
 20
36.0000
 30
0.0000
 40
0.1000
  0
CIRCLE
  8
44
 10
380.0000
 20
36.0000
 30
0.0000
 40
0.1000
  0
CIRCLE
  8
44
 10
383.0000
 20
36.0000
 30
0.0000
 40
0.1000
  0
CIRCLE
  8
44
 10
386.0000
 20
36.0000
 30
0.0000
 40
0.1000
  0
CIRCLE
  8
44
 10
389.0000
 20
36.0000
 30
0.0000
 40
0.1000
  0
CIRCLE
  8
44
 10
392.0000
 20
36.0000
 30
0.0000
 40
0.1000
  0
CIRCLE
  8
44
 10
395.0000
 20
36.0000
 30
0.0000
 40
0.1000
  0
CIRCLE
  8
44
 10
398.0000
 20
36.0000
 30
0.0000
 40
0.1000
  0
CIRCLE
  8
44
 10
401.0000
 20
36.0000
 30
0.0000
 40
0.1000
  0
CIRCLE
  8
44
 10
404.0000
 20
36.0000
 30
0.0000
 40
0.1000
  0
CIRCLE
  8
44
 10
407.0000
 20
36.0000
 30
0.0000
 40
0.1000
  0
CIRCLE
  8
44
 10
410.0000
 20
36.0000
 30
0.0000
 40
0.1000
  0
CIRCLE
  8
44
 10
413.0000
 20
36.0000
 30
0.0000
 40
0.1000
  0
CIRCLE
  8
44
 10
416.0000
 20
36.0000
 30
0.0000
 40
0.1000
  0
CIRCLE
  8
44
 10
419.0000
 20
36.0000
 30
0.0000
 40
0.1000
  0
CIRCLE
  8
44
 10
422.0000
 20
36.0000
 30
0.0000
 40
0.1000
  0
CIRCLE
  8
44
 10
425.0000
 20
36.0000
 30
0.0000
 40
0.1000
  0
CIRCLE
  8
44
 10
428.0000
 20
36.0000
 30
0.0000
 40
0.1000
  0
CIRCLE
  8
44
 10
431.0000
 20
36.0000
 30
0.0000
 40
0.1000
  0
CIRCLE
  8
44
 10
434.0000
 20
36.0000
 30
0.0000
 40
0.1000
  0
CIRCLE
  8
44
 10
437.0000
 20
36.0000
 30
0.0000
 40
0.1000
  0
CIRCLE
  8
44
 10
440.0000
 20
36.0000
 30
0.0000
 40
0.1000
  0
CIRCLE
  8
44
 10
443.0000
 20
36.0000
 30
0.0000
 40
0.1000
  0
CIRCLE
  8
44
 10
446.0000
 20
36.0000
 30
0.0000
 40
0.1000
  0
CIRCLE
  8
44
 10
449.0000
 20
36.0000
 30
0.0000
 40
0.1000
  0
CIRCLE
  8
44
 10
452.0000
 20
36.0000
 30
0.0000
 40
0.1000
  0
CIRCLE
  8
44
 10
455.0000
 20
36.0000
 30
0.0000
 40
0.1000
  0
CIRCLE
  8
44
 10
458.0000
 20
36.0000
 30
0.0000
 40
0.1000
  0
CIRCLE
  8
44
 10
461.0000
 20
36.0000
 30
0.0000
 40
0.1000
  0
CIRCLE
  8
44
 10
464.0000
 20
36.0000
 30
0.0000
 40
0.1000
  0
CIRCLE
  8
44
 10
467.0000
 20
36.0000
 30
0.0000
 40
0.1000
  0
CIRCLE
  8
44
 10
470.0000
 20
36.0000
 30
0.0000
 40
0.1000
  0
CIRCLE
  8
44
 10
349.0000
 20
39.0000
 30
0.0000
 40
0.1000
  0
CIRCLE
  8
44
 10
352.0000
 20
39.0000
 30
0.0000
 40
0.1000
  0
CIRCLE
  8
44
 10
355.0000
 20
39.0000
 30
0.0000
 40
0.1000
  0
CIRCLE
  8
44
 10
358.0000
 20
39.0000
 30
0.0000
 40
0.1000
  0
CIRCLE
  8
44
 10
361.0000
 20
39.0000
 30
0.0000
 40
0.1000
  0
CIRCLE
  8
44
 10
364.0000
 20
39.0000
 30
0.0000
 40
0.1000
  0
CIRCLE
  8
44
 10
367.0000
 20
39.0000
 30
0.0000
 40
0.1000
  0
CIRCLE
  8
44
 10
370.0000
 20
39.0000
 30
0.0000
 40
0.1000
  0
CIRCLE
  8
44
 10
373.0000
 20
39.0000
 30
0.0000
 40
0.1000
  0
CIRCLE
  8
44
 10
376.0000
 20
39.0000
 30
0.0000
 40
0.1000
  0
CIRCLE
  8
44
 10
379.0000
 20
39.0000
 30
0.0000
 40
0.1000
  0
CIRCLE
  8
44
 10
382.0000
 20
39.0000
 30
0.0000
 40
0.1000
  0
CIRCLE
  8
44
 10
385.0000
 20
39.0000
 30
0.0000
 40
0.1000
  0
CIRCLE
  8
44
 10
388.0000
 20
39.0000
 30
0.0000
 40
0.1000
  0
CIRCLE
  8
44
 10
391.0000
 20
39.0000
 30
0.0000
 40
0.1000
  0
CIRCLE
  8
44
 10
394.0000
 20
39.0000
 30
0.0000
 40
0.1000
  0
CIRCLE
  8
44
 10
397.0000
 20
39.0000
 30
0.0000
 40
0.1000
  0
CIRCLE
  8
44
 10
400.0000
 20
39.0000
 30
0.0000
 40
0.1000
  0
CIRCLE
  8
44
 10
403.0000
 20
39.0000
 30
0.0000
 40
0.1000
  0
CIRCLE
  8
44
 10
406.0000
 20
39.0000
 30
0.0000
 40
0.1000
  0
CIRCLE
  8
44
 10
409.0000
 20
39.0000
 30
0.0000
 40
0.1000
  0
CIRCLE
  8
44
 10
412.0000
 20
39.0000
 30
0.0000
 40
0.1000
  0
CIRCLE
  8
44
 10
415.0000
 20
39.0000
 30
0.0000
 40
0.1000
  0
CIRCLE
  8
44
 10
418.0000
 20
39.0000
 30
0.0000
 40
0.1000
  0
CIRCLE
  8
44
 10
421.0000
 20
39.0000
 30
0.0000
 40
0.1000
  0
CIRCLE
  8
44
 10
424.0000
 20
39.0000
 30
0.0000
 40
0.1000
  0
CIRCLE
  8
44
 10
427.0000
 20
39.0000
 30
0.0000
 40
0.1000
  0
CIRCLE
  8
44
 10
430.0000
 20
39.0000
 30
0.0000
 40
0.1000
  0
CIRCLE
  8
44
 10
433.0000
 20
39.0000
 30
0.0000
 40
0.1000
  0
CIRCLE
  8
44
 10
436.0000
 20
39.0000
 30
0.0000
 40
0.1000
  0
CIRCLE
  8
44
 10
439.0000
 20
39.0000
 30
0.0000
 40
0.1000
  0
CIRCLE
  8
44
 10
442.0000
 20
39.0000
 30
0.0000
 40
0.1000
  0
CIRCLE
  8
44
 10
445.0000
 20
39.0000
 30
0.0000
 40
0.1000
  0
CIRCLE
  8
44
 10
448.0000
 20
39.0000
 30
0.0000
 40
0.1000
  0
CIRCLE
  8
44
 10
451.0000
 20
39.0000
 30
0.0000
 40
0.1000
  0
CIRCLE
  8
44
 10
454.0000
 20
39.0000
 30
0.0000
 40
0.1000
  0
CIRCLE
  8
44
 10
457.0000
 20
39.0000
 30
0.0000
 40
0.1000
  0
CIRCLE
  8
44
 10
460.0000
 20
39.0000
 30
0.0000
 40
0.1000
  0
CIRCLE
  8
44
 10
463.0000
 20
39.0000
 30
0.0000
 40
0.1000
  0
CIRCLE
  8
44
 10
466.0000
 20
39.0000
 30
0.0000
 40
0.1000
  0
CIRCLE
  8
44
 10
469.0000
 20
39.0000
 30
0.0000
 40
0.1000
  0
CIRCLE
  8
44
 10
472.0000
 20
39.0000
 30
0.0000
 40
0.1000
  0
CIRCLE
  8
44
 10
350.0000
 20
41.0000
 30
0.0000
 40
0.1000
  0
CIRCLE
  8
44
 10
353.0000
 20
41.0000
 30
0.0000
 40
0.1000
  0
CIRCLE
  8
44
 10
356.0000
 20
41.0000
 30
0.0000
 40
0.1000
  0
CIRCLE
  8
44
 10
359.0000
 20
41.0000
 30
0.0000
 40
0.1000
  0
CIRCLE
  8
44
 10
362.0000
 20
41.0000
 30
0.0000
 40
0.1000
  0
CIRCLE
  8
44
 10
365.0000
 20
41.0000
 30
0.0000
 40
0.1000
  0
CIRCLE
  8
44
 10
368.0000
 20
41.0000
 30
0.0000
 40
0.1000
  0
CIRCLE
  8
44
 10
371.0000
 20
41.0000
 30
0.0000
 40
0.1000
  0
CIRCLE
  8
44
 10
374.0000
 20
41.0000
 30
0.0000
 40
0.1000
  0
CIRCLE
  8
44
 10
377.0000
 20
41.0000
 30
0.0000
 40
0.1000
  0
CIRCLE
  8
44
 10
380.0000
 20
41.0000
 30
0.0000
 40
0.1000
  0
CIRCLE
  8
44
 10
383.0000
 20
41.0000
 30
0.0000
 40
0.1000
  0
CIRCLE
  8
44
 10
386.0000
 20
41.0000
 30
0.0000
 40
0.1000
  0
CIRCLE
  8
44
 10
389.0000
 20
41.0000
 30
0.0000
 40
0.1000
  0
CIRCLE
  8
44
 10
392.0000
 20
41.0000
 30
0.0000
 40
0.1000
  0
CIRCLE
  8
44
 10
395.0000
 20
41.0000
 30
0.0000
 40
0.1000
  0
CIRCLE
  8
44
 10
398.0000
 20
41.0000
 30
0.0000
 40
0.1000
  0
CIRCLE
  8
44
 10
401.0000
 20
41.0000
 30
0.0000
 40
0.1000
  0
CIRCLE
  8
44
 10
404.0000
 20
41.0000
 30
0.0000
 40
0.1000
  0
CIRCLE
  8
44
 10
407.0000
 20
41.0000
 30
0.0000
 40
0.1000
  0
CIRCLE
  8
44
 10
410.0000
 20
41.0000
 30
0.0000
 40
0.1000
  0
CIRCLE
  8
44
 10
413.0000
 20
41.0000
 30
0.0000
 40
0.1000
  0
CIRCLE
  8
44
 10
416.0000
 20
41.0000
 30
0.0000
 40
0.1000
  0
CIRCLE
  8
44
 10
419.0000
 20
41.0000
 30
0.0000
 40
0.1000
  0
CIRCLE
  8
44
 10
422.0000
 20
41.0000
 30
0.0000
 40
0.1000
  0
CIRCLE
  8
44
 10
425.0000
 20
41.0000
 30
0.0000
 40
0.1000
  0
CIRCLE
  8
44
 10
428.0000
 20
41.0000
 30
0.0000
 40
0.1000
  0
CIRCLE
  8
44
 10
431.0000
 20
41.0000
 30
0.0000
 40
0.1000
  0
CIRCLE
  8
44
 10
434.0000
 20
41.0000
 30
0.0000
 40
0.1000
  0
CIRCLE
  8
44
 10
437.0000
 20
41.0000
 30
0.0000
 40
0.1000
  0
CIRCLE
  8
44
 10
440.0000
 20
41.0000
 30
0.0000
 40
0.1000
  0
CIRCLE
  8
44
 10
443.0000
 20
41.0000
 30
0.0000
 40
0.1000
  0
CIRCLE
  8
44
 10
446.0000
 20
41.0000
 30
0.0000
 40
0.1000
  0
CIRCLE
  8
44
 10
449.0000
 20
41.0000
 30
0.0000
 40
0.1000
  0
CIRCLE
  8
44
 10
452.0000
 20
41.0000
 30
0.0000
 40
0.1000
  0
CIRCLE
  8
44
 10
455.0000
 20
41.0000
 30
0.0000
 40
0.1000
  0
CIRCLE
  8
44
 10
458.0000
 20
41.0000
 30
0.0000
 40
0.1000
  0
CIRCLE
  8
44
 10
461.0000
 20
41.0000
 30
0.0000
 40
0.1000
  0
CIRCLE
  8
44
 10
464.0000
 20
41.0000
 30
0.0000
 40
0.1000
  0
CIRCLE
  8
44
 10
467.0000
 20
41.0000
 30
0.0000
 40
0.1000
  0
CIRCLE
  8
44
 10
470.0000
 20
41.0000
 30
0.0000
 40
0.1000
  0
CIRCLE
  8
44
 10
346.0000
 20
34.0000
 30
0.0000
 40
0.1000
  0
CIRCLE
  8
44
 10
343.0000
 20
34.0000
 30
0.0000
 40
0.1000
  0
CIRCLE
  8
44
 10
340.0000
 20
34.0000
 30
0.0000
 40
0.1000
  0
CIRCLE
  8
44
 10
337.0000
 20
34.0000
 30
0.0000
 40
0.1000
  0
CIRCLE
  8
44
 10
347.0000
 20
36.0000
 30
0.0000
 40
0.1000
  0
CIRCLE
  8
44
 10
344.0000
 20
36.0000
 30
0.0000
 40
0.1000
  0
CIRCLE
  8
44
 10
341.0000
 20
36.0000
 30
0.0000
 40
0.1000
  0
CIRCLE
  8
44
 10
338.0000
 20
36.0000
 30
0.0000
 40
0.1000
  0
CIRCLE
  8
44
 10
347.0000
 20
31.0000
 30
0.0000
 40
0.1000
  0
CIRCLE
  8
44
 10
346.0000
 20
29.0000
 30
0.0000
 40
0.1000
  0
CIRCLE
  8
44
 10
334.0000
 20
34.0000
 30
0.0000
 40
0.1000
  0
CIRCLE
  8
44
 10
331.0000
 20
34.0000
 30
0.0000
 40
0.1000
  0
CIRCLE
  8
44
 10
332.5000
 20
36.0000
 30
0.0000
 40
0.1000
  0
CIRCLE
  8
44
 10
323.5000
 20
39.3000
 30
0.0000
 40
0.1000
  0
CIRCLE
  8
44
 10
341.3000
 20
42.4000
 30
0.0000
 40
0.1000
  0
CIRCLE
  8
44
 10
342.6000
 20
41.3000
 30
0.0000
 40
0.1000
  0
CIRCLE
  8
44
 10
343.9000
 20
39.7000
 30
0.0000
 40
0.1000
  0
CIRCLE
  8
44
 10
345.6000
 20
38.6000
 30
0.0000
 40
0.1000
  0
CIRCLE
  8
44
 10
347.2000
 20
38.7000
 30
0.0000
 40
0.1000
  0
CIRCLE
  8
44
 10
343.4000
 20
44.0000
 30
0.0000
 40
0.1000
  0
CIRCLE
  8
44
 10
344.6000
 20
42.7000
 30
0.0000
 40
0.1000
  0
CIRCLE
  8
44
 10
346.2000
 20
41.4000
 30
0.0000
 40
0.1000
  0
CIRCLE
  8
44
 10
348.1000
 20
41.0000
 30
0.0000
 40
0.1000
  0
CIRCLE
  8
44
 10
335.4000
 20
48.3000
 30
0.0000
 40
0.1000
  0
CIRCLE
  8
44
 10
337.0000
 20
55.2000
 30
0.0000
 40
0.1000
  0
CIRCLE
  8
44
 10
335.3000
 20
57.7000
 30
0.0000
 40
0.1000
  0
CIRCLE
  8
44
 10
331.6000
 20
61.7000
 30
0.0000
 40
0.1000
  0
CIRCLE
  8
44
 10
329.9000
 20
59.9000
 30
0.0000
 40
0.1000
  0
CIRCLE
  8
44
 10
328.7000
 20
61.1000
 30
0.0000
 40
0.1000
  0
CIRCLE
  8
44
 10
375.4000
 20
8.9000
 30
0.0000
 40
0.1000
  0
CIRCLE
  8
44
 10
378.4000
 20
8.9000
 30
0.0000
 40
0.1000
  0
CIRCLE
  8
44
 10
381.4000
 20
8.9000
 30
0.0000
 40
0.1000
  0
CIRCLE
  8
44
 10
384.4000
 20
8.9000
 30
0.0000
 40
0.1000
  0
CIRCLE
  8
44
 10
387.4000
 20
8.9000
 30
0.0000
 40
0.1000
  0
CIRCLE
  8
44
 10
390.4000
 20
8.9000
 30
0.0000
 40
0.1000
  0
CIRCLE
  8
44
 10
393.4000
 20
8.9000
 30
0.0000
 40
0.1000
  0
CIRCLE
  8
44
 10
396.4000
 20
8.9000
 30
0.0000
 40
0.1000
  0
CIRCLE
  8
44
 10
399.4000
 20
8.9000
 30
0.0000
 40
0.1000
  0
CIRCLE
  8
44
 10
402.4000
 20
8.9000
 30
0.0000
 40
0.1000
  0
CIRCLE
  8
44
 10
405.4000
 20
8.9000
 30
0.0000
 40
0.1000
  0
CIRCLE
  8
44
 10
408.4000
 20
8.9000
 30
0.0000
 40
0.1000
  0
CIRCLE
  8
44
 10
411.4000
 20
8.9000
 30
0.0000
 40
0.1000
  0
CIRCLE
  8
44
 10
414.4000
 20
8.9000
 30
0.0000
 40
0.1000
  0
CIRCLE
  8
44
 10
417.4000
 20
8.9000
 30
0.0000
 40
0.1000
  0
CIRCLE
  8
44
 10
419.0000
 20
7.2000
 30
0.0000
 40
0.1000
  0
CIRCLE
  8
44
 10
423.2000
 20
5.0000
 30
0.0000
 40
0.1000
  0
CIRCLE
  8
44
 10
426.2000
 20
5.0000
 30
0.0000
 40
0.1000
  0
CIRCLE
  8
44
 10
429.2000
 20
5.0000
 30
0.0000
 40
0.1000
  0
CIRCLE
  8
44
 10
432.2000
 20
5.0000
 30
0.0000
 40
0.1000
  0
CIRCLE
  8
44
 10
435.2000
 20
5.0000
 30
0.0000
 40
0.1000
  0
CIRCLE
  8
44
 10
438.2000
 20
5.0000
 30
0.0000
 40
0.1000
  0
CIRCLE
  8
44
 10
441.2000
 20
5.0000
 30
0.0000
 40
0.1000
  0
CIRCLE
  8
44
 10
444.2000
 20
5.0000
 30
0.0000
 40
0.1000
  0
CIRCLE
  8
44
 10
447.2000
 20
5.0000
 30
0.0000
 40
0.1000
  0
CIRCLE
  8
44
 10
450.2000
 20
5.0000
 30
0.0000
 40
0.1000
  0
CIRCLE
  8
44
 10
453.2000
 20
5.0000
 30
0.0000
 40
0.1000
  0
CIRCLE
  8
44
 10
456.2000
 20
5.0000
 30
0.0000
 40
0.1000
  0
CIRCLE
  8
44
 10
459.2000
 20
5.0000
 30
0.0000
 40
0.1000
  0
CIRCLE
  8
44
 10
462.2000
 20
5.0000
 30
0.0000
 40
0.1000
  0
CIRCLE
  8
44
 10
465.2000
 20
5.0000
 30
0.0000
 40
0.1000
  0
CIRCLE
  8
44
 10
468.2000
 20
5.0000
 30
0.0000
 40
0.1000
  0
CIRCLE
  8
44
 10
471.2000
 20
5.0000
 30
0.0000
 40
0.1000
  0
CIRCLE
  8
44
 10
474.4000
 20
8.9000
 30
0.0000
 40
0.1000
  0
CIRCLE
  8
44
 10
373.4000
 20
10.9000
 30
0.0000
 40
0.1000
  0
CIRCLE
  8
44
 10
376.4000
 20
10.9000
 30
0.0000
 40
0.1000
  0
CIRCLE
  8
44
 10
379.4000
 20
10.9000
 30
0.0000
 40
0.1000
  0
CIRCLE
  8
44
 10
382.4000
 20
10.9000
 30
0.0000
 40
0.1000
  0
CIRCLE
  8
44
 10
385.4000
 20
10.9000
 30
0.0000
 40
0.1000
  0
CIRCLE
  8
44
 10
388.4000
 20
10.9000
 30
0.0000
 40
0.1000
  0
CIRCLE
  8
44
 10
391.4000
 20
10.9000
 30
0.0000
 40
0.1000
  0
CIRCLE
  8
44
 10
394.4000
 20
10.9000
 30
0.0000
 40
0.1000
  0
CIRCLE
  8
44
 10
397.4000
 20
10.9000
 30
0.0000
 40
0.1000
  0
CIRCLE
  8
44
 10
400.4000
 20
10.9000
 30
0.0000
 40
0.1000
  0
CIRCLE
  8
44
 10
403.4000
 20
10.9000
 30
0.0000
 40
0.1000
  0
CIRCLE
  8
44
 10
406.4000
 20
10.9000
 30
0.0000
 40
0.1000
  0
CIRCLE
  8
44
 10
409.4000
 20
10.9000
 30
0.0000
 40
0.1000
  0
CIRCLE
  8
44
 10
412.4000
 20
10.9000
 30
0.0000
 40
0.1000
  0
CIRCLE
  8
44
 10
415.4000
 20
10.9000
 30
0.0000
 40
0.1000
  0
CIRCLE
  8
44
 10
418.4000
 20
10.9000
 30
0.0000
 40
0.1000
  0
CIRCLE
  8
44
 10
420.2000
 20
9.6000
 30
0.0000
 40
0.1000
  0
CIRCLE
  8
44
 10
424.2000
 20
7.0000
 30
0.0000
 40
0.1000
  0
CIRCLE
  8
44
 10
427.2000
 20
7.0000
 30
0.0000
 40
0.1000
  0
CIRCLE
  8
44
 10
430.2000
 20
7.0000
 30
0.0000
 40
0.1000
  0
CIRCLE
  8
44
 10
433.2000
 20
7.0000
 30
0.0000
 40
0.1000
  0
CIRCLE
  8
44
 10
436.2000
 20
7.0000
 30
0.0000
 40
0.1000
  0
CIRCLE
  8
44
 10
439.2000
 20
7.0000
 30
0.0000
 40
0.1000
  0
CIRCLE
  8
44
 10
442.2000
 20
7.0000
 30
0.0000
 40
0.1000
  0
CIRCLE
  8
44
 10
445.2000
 20
7.0000
 30
0.0000
 40
0.1000
  0
CIRCLE
  8
44
 10
448.2000
 20
7.0000
 30
0.0000
 40
0.1000
  0
CIRCLE
  8
44
 10
451.2000
 20
7.0000
 30
0.0000
 40
0.1000
  0
CIRCLE
  8
44
 10
454.2000
 20
7.0000
 30
0.0000
 40
0.1000
  0
CIRCLE
  8
44
 10
457.2000
 20
7.0000
 30
0.0000
 40
0.1000
  0
CIRCLE
  8
44
 10
460.2000
 20
7.0000
 30
0.0000
 40
0.1000
  0
CIRCLE
  8
44
 10
463.2000
 20
7.0000
 30
0.0000
 40
0.1000
  0
CIRCLE
  8
44
 10
466.2000
 20
7.0000
 30
0.0000
 40
0.1000
  0
CIRCLE
  8
44
 10
469.2000
 20
7.0000
 30
0.0000
 40
0.1000
  0
CIRCLE
  8
44
 10
472.2000
 20
7.0000
 30
0.0000
 40
0.1000
  0
CIRCLE
  8
44
 10
374.9000
 20
12.7000
 30
0.0000
 40
0.1000
  0
CIRCLE
  8
44
 10
373.0000
 20
14.5000
 30
0.0000
 40
0.1000
  0
CIRCLE
  8
44
 10
371.2000
 20
16.3000
 30
0.0000
 40
0.1000
  0
CIRCLE
  8
44
 10
369.7000
 20
17.9000
 30
0.0000
 40
0.1000
  0
CIRCLE
  8
44
 10
368.0000
 20
19.6000
 30
0.0000
 40
0.1000
  0
CIRCLE
  8
44
 10
366.1000
 20
21.2000
 30
0.0000
 40
0.1000
  0
CIRCLE
  8
44
 10
365.5000
 20
18.4000
 30
0.0000
 40
0.1000
  0
CIRCLE
  8
44
 10
367.4000
 20
16.8000
 30
0.0000
 40
0.1000
  0
CIRCLE
  8
44
 10
368.9000
 20
15.4000
 30
0.0000
 40
0.1000
  0
CIRCLE
  8
44
 10
370.2000
 20
14.0000
 30
0.0000
 40
0.1000
  0
CIRCLE
  8
44
 10
371.7000
 20
12.3000
 30
0.0000
 40
0.1000
  0
CIRCLE
  8
44
 10
416.9000
 20
23.5000
 30
0.0000
 40
0.1000
  0
CIRCLE
  8
44
 10
419.9000
 20
23.5000
 30
0.0000
 40
0.1000
  0
CIRCLE
  8
44
 10
422.9000
 20
23.5000
 30
0.0000
 40
0.1000
  0
CIRCLE
  8
44
 10
425.9000
 20
23.5000
 30
0.0000
 40
0.1000
  0
CIRCLE
  8
44
 10
428.9000
 20
23.5000
 30
0.0000
 40
0.1000
  0
CIRCLE
  8
44
 10
431.9000
 20
23.5000
 30
0.0000
 40
0.1000
  0
CIRCLE
  8
44
 10
434.9000
 20
23.5000
 30
0.0000
 40
0.1000
  0
CIRCLE
  8
44
 10
437.9000
 20
23.5000
 30
0.0000
 40
0.1000
  0
CIRCLE
  8
44
 10
440.9000
 20
23.5000
 30
0.0000
 40
0.1000
  0
CIRCLE
  8
44
 10
443.9000
 20
23.5000
 30
0.0000
 40
0.1000
  0
CIRCLE
  8
44
 10
446.9000
 20
23.5000
 30
0.0000
 40
0.1000
  0
CIRCLE
  8
44
 10
449.9000
 20
23.5000
 30
0.0000
 40
0.1000
  0
CIRCLE
  8
44
 10
452.9000
 20
23.5000
 30
0.0000
 40
0.1000
  0
CIRCLE
  8
44
 10
455.9000
 20
23.5000
 30
0.0000
 40
0.1000
  0
CIRCLE
  8
44
 10
458.9000
 20
23.5000
 30
0.0000
 40
0.1000
  0
CIRCLE
  8
44
 10
461.9000
 20
23.5000
 30
0.0000
 40
0.1000
  0
CIRCLE
  8
44
 10
464.9000
 20
23.5000
 30
0.0000
 40
0.1000
  0
CIRCLE
  8
44
 10
467.9000
 20
23.5000
 30
0.0000
 40
0.1000
  0
CIRCLE
  8
44
 10
470.9000
 20
23.5000
 30
0.0000
 40
0.1000
  0
CIRCLE
  8
44
 10
417.9000
 20
25.5000
 30
0.0000
 40
0.1000
  0
CIRCLE
  8
44
 10
420.9000
 20
25.5000
 30
0.0000
 40
0.1000
  0
CIRCLE
  8
44
 10
423.9000
 20
25.5000
 30
0.0000
 40
0.1000
  0
CIRCLE
  8
44
 10
426.9000
 20
25.5000
 30
0.0000
 40
0.1000
  0
CIRCLE
  8
44
 10
429.9000
 20
25.5000
 30
0.0000
 40
0.1000
  0
CIRCLE
  8
44
 10
432.9000
 20
25.5000
 30
0.0000
 40
0.1000
  0
CIRCLE
  8
44
 10
435.9000
 20
25.5000
 30
0.0000
 40
0.1000
  0
CIRCLE
  8
44
 10
438.9000
 20
25.5000
 30
0.0000
 40
0.1000
  0
CIRCLE
  8
44
 10
441.9000
 20
25.5000
 30
0.0000
 40
0.1000
  0
CIRCLE
  8
44
 10
444.9000
 20
25.5000
 30
0.0000
 40
0.1000
  0
CIRCLE
  8
44
 10
447.9000
 20
25.5000
 30
0.0000
 40
0.1000
  0
CIRCLE
  8
44
 10
450.9000
 20
25.5000
 30
0.0000
 40
0.1000
  0
CIRCLE
  8
44
 10
453.9000
 20
25.5000
 30
0.0000
 40
0.1000
  0
CIRCLE
  8
44
 10
456.9000
 20
25.5000
 30
0.0000
 40
0.1000
  0
CIRCLE
  8
44
 10
459.9000
 20
25.5000
 30
0.0000
 40
0.1000
  0
CIRCLE
  8
44
 10
462.9000
 20
25.5000
 30
0.0000
 40
0.1000
  0
CIRCLE
  8
44
 10
465.9000
 20
25.5000
 30
0.0000
 40
0.1000
  0
CIRCLE
  8
44
 10
468.9000
 20
25.5000
 30
0.0000
 40
0.1000
  0
CIRCLE
  8
44
 10
471.9000
 20
25.5000
 30
0.0000
 40
0.1000
  0
CIRCLE
  8
44
 10
392.6000
 20
12.9000
 30
0.0000
 40
0.1000
  0
CIRCLE
  8
44
 10
395.6000
 20
12.9000
 30
0.0000
 40
0.1000
  0
CIRCLE
  8
44
 10
398.6000
 20
12.9000
 30
0.0000
 40
0.1000
  0
CIRCLE
  8
44
 10
401.6000
 20
12.9000
 30
0.0000
 40
0.1000
  0
CIRCLE
  8
44
 10
404.6000
 20
12.9000
 30
0.0000
 40
0.1000
  0
CIRCLE
  8
44
 10
407.6000
 20
12.9000
 30
0.0000
 40
0.1000
  0
CIRCLE
  8
44
 10
410.6000
 20
12.9000
 30
0.0000
 40
0.1000
  0
CIRCLE
  8
44
 10
413.6000
 20
12.9000
 30
0.0000
 40
0.1000
  0
CIRCLE
  8
44
 10
416.6000
 20
12.9000
 30
0.0000
 40
0.1000
  0
CIRCLE
  8
44
 10
419.6000
 20
12.9000
 30
0.0000
 40
0.1000
  0
CIRCLE
  8
44
 10
422.6000
 20
12.9000
 30
0.0000
 40
0.1000
  0
CIRCLE
  8
44
 10
425.6000
 20
12.9000
 30
0.0000
 40
0.1000
  0
CIRCLE
  8
44
 10
430.1000
 20
9.0000
 30
0.0000
 40
0.1000
  0
CIRCLE
  8
44
 10
433.1000
 20
9.0000
 30
0.0000
 40
0.1000
  0
CIRCLE
  8
44
 10
436.1000
 20
9.0000
 30
0.0000
 40
0.1000
  0
CIRCLE
  8
44
 10
439.1000
 20
9.0000
 30
0.0000
 40
0.1000
  0
CIRCLE
  8
44
 10
442.1000
 20
9.0000
 30
0.0000
 40
0.1000
  0
CIRCLE
  8
44
 10
445.1000
 20
9.0000
 30
0.0000
 40
0.1000
  0
CIRCLE
  8
44
 10
448.1000
 20
9.0000
 30
0.0000
 40
0.1000
  0
CIRCLE
  8
44
 10
451.1000
 20
9.0000
 30
0.0000
 40
0.1000
  0
CIRCLE
  8
44
 10
454.1000
 20
9.0000
 30
0.0000
 40
0.1000
  0
CIRCLE
  8
44
 10
457.1000
 20
9.0000
 30
0.0000
 40
0.1000
  0
CIRCLE
  8
44
 10
460.1000
 20
9.0000
 30
0.0000
 40
0.1000
  0
CIRCLE
  8
44
 10
463.1000
 20
9.0000
 30
0.0000
 40
0.1000
  0
CIRCLE
  8
44
 10
466.1000
 20
9.0000
 30
0.0000
 40
0.1000
  0
CIRCLE
  8
44
 10
469.1000
 20
9.0000
 30
0.0000
 40
0.1000
  0
CIRCLE
  8
44
 10
472.1000
 20
9.0000
 30
0.0000
 40
0.1000
  0
CIRCLE
  8
44
 10
393.6000
 20
14.9000
 30
0.0000
 40
0.1000
  0
CIRCLE
  8
44
 10
396.6000
 20
14.9000
 30
0.0000
 40
0.1000
  0
CIRCLE
  8
44
 10
399.6000
 20
14.9000
 30
0.0000
 40
0.1000
  0
CIRCLE
  8
44
 10
402.6000
 20
14.9000
 30
0.0000
 40
0.1000
  0
CIRCLE
  8
44
 10
405.6000
 20
14.9000
 30
0.0000
 40
0.1000
  0
CIRCLE
  8
44
 10
408.6000
 20
14.9000
 30
0.0000
 40
0.1000
  0
CIRCLE
  8
44
 10
411.6000
 20
14.9000
 30
0.0000
 40
0.1000
  0
CIRCLE
  8
44
 10
414.6000
 20
14.9000
 30
0.0000
 40
0.1000
  0
CIRCLE
  8
44
 10
417.6000
 20
14.9000
 30
0.0000
 40
0.1000
  0
CIRCLE
  8
44
 10
420.6000
 20
14.9000
 30
0.0000
 40
0.1000
  0
CIRCLE
  8
44
 10
423.6000
 20
14.9000
 30
0.0000
 40
0.1000
  0
CIRCLE
  8
44
 10
428.1000
 20
11.0000
 30
0.0000
 40
0.1000
  0
CIRCLE
  8
44
 10
431.1000
 20
11.0000
 30
0.0000
 40
0.1000
  0
CIRCLE
  8
44
 10
434.1000
 20
11.0000
 30
0.0000
 40
0.1000
  0
CIRCLE
  8
44
 10
440.1000
 20
11.0000
 30
0.0000
 40
0.1000
  0
CIRCLE
  8
44
 10
443.1000
 20
11.0000
 30
0.0000
 40
0.1000
  0
CIRCLE
  8
44
 10
446.1000
 20
11.0000
 30
0.0000
 40
0.1000
  0
CIRCLE
  8
44
 10
449.1000
 20
11.0000
 30
0.0000
 40
0.1000
  0
CIRCLE
  8
44
 10
452.1000
 20
11.0000
 30
0.0000
 40
0.1000
  0
CIRCLE
  8
44
 10
455.1000
 20
11.0000
 30
0.0000
 40
0.1000
  0
CIRCLE
  8
44
 10
458.1000
 20
11.0000
 30
0.0000
 40
0.1000
  0
CIRCLE
  8
44
 10
461.1000
 20
11.0000
 30
0.0000
 40
0.1000
  0
CIRCLE
  8
44
 10
464.1000
 20
11.0000
 30
0.0000
 40
0.1000
  0
CIRCLE
  8
44
 10
470.1000
 20
11.0000
 30
0.0000
 40
0.1000
  0
CIRCLE
  8
44
 10
476.1000
 20
11.0000
 30
0.0000
 40
0.1000
  0
CIRCLE
  8
44
 10
390.2000
 20
13.6000
 30
0.0000
 40
0.1000
  0
CIRCLE
  8
44
 10
388.6000
 20
15.2000
 30
0.0000
 40
0.1000
  0
CIRCLE
  8
44
 10
387.4000
 20
16.6000
 30
0.0000
 40
0.1000
  0
CIRCLE
  8
44
 10
385.7000
 20
18.2000
 30
0.0000
 40
0.1000
  0
CIRCLE
  8
44
 10
391.5000
 20
16.3000
 30
0.0000
 40
0.1000
  0
CIRCLE
  8
44
 10
390.3000
 20
17.7000
 30
0.0000
 40
0.1000
  0
CIRCLE
  8
44
 10
388.8000
 20
19.0000
 30
0.0000
 40
0.1000
  0
CIRCLE
  8
44
 10
387.6000
 20
20.5000
 30
0.0000
 40
0.1000
  0
CIRCLE
  8
44
 10
385.6000
 20
21.5000
 30
0.0000
 40
0.1000
  0
CIRCLE
  8
44
 10
406.6000
 20
21.5000
 30
0.0000
 40
0.1000
  0
CIRCLE
  8
44
 10
409.6000
 20
21.8000
 30
0.0000
 40
0.1000
  0
CIRCLE
  8
44
 10
411.7000
 20
23.1000
 30
0.0000
 40
0.1000
  0
CIRCLE
  8
44
 10
413.5000
 20
25.0000
 30
0.0000
 40
0.1000
  0
CIRCLE
  8
44
 10
415.1000
 20
22.5000
 30
0.0000
 40
0.1000
  0
CIRCLE
  8
44
 10
413.3000
 20
20.8000
 30
0.0000
 40
0.1000
  0
CIRCLE
  8
44
 10
411.1000
 20
18.7000
 30
0.0000
 40
0.1000
  0
CIRCLE
  8
44
 10
407.6000
 20
18.5000
 30
0.0000
 40
0.1000
  0
CIRCLE
  8
44
 10
405.3000
 20
18.5000
 30
0.0000
 40
0.1000
  0
CIRCLE
  8
44
 10
475.2000
 20
25.3000
 30
0.0000
 40
0.1000
  0
CIRCLE
  8
44
 10
477.0000
 20
23.0000
 30
0.0000
 40
0.1000
  0
CIRCLE
  8
44
 10
475.4000
 20
20.4000
 30
0.0000
 40
0.1000
  0
CIRCLE
  8
44
 10
473.4000
 20
22.7000
 30
0.0000
 40
0.1000
  0
CIRCLE
  8
44
 10
474.9000
 20
29.1000
 30
0.0000
 40
0.1000
  0
CIRCLE
  8
44
 10
472.9000
 20
31.1000
 30
0.0000
 40
0.1000
  0
CIRCLE
  8
44
 10
475.9000
 20
31.1000
 30
0.0000
 40
0.1000
  0
CIRCLE
  8
44
 10
474.9000
 20
34.1000
 30
0.0000
 40
0.1000
  0
CIRCLE
  8
44
 10
472.9000
 20
36.1000
 30
0.0000
 40
0.1000
  0
CIRCLE
  8
44
 10
475.9000
 20
36.1000
 30
0.0000
 40
0.1000
  0
CIRCLE
  8
44
 10
474.9000
 20
39.1000
 30
0.0000
 40
0.1000
  0
CIRCLE
  8
44
 10
472.9000
 20
41.1000
 30
0.0000
 40
0.1000
  0
CIRCLE
  8
44
 10
475.9000
 20
41.1000
 30
0.0000
 40
0.1000
  0
CIRCLE
  8
44
 10
342.1000
 20
31.0000
 30
0.0000
 40
0.1000
  0
CIRCLE
  8
44
 10
339.7000
 20
31.0000
 30
0.0000
 40
0.1000
  0
CIRCLE
  8
44
 10
338.3000
 20
27.2000
 30
0.0000
 40
0.1000
  0
CIRCLE
  8
44
 10
337.7000
 20
29.9000
 30
0.0000
 40
0.1000
  0
CIRCLE
  8
44
 10
335.5000
 20
27.0000
 30
0.0000
 40
0.1000
  0
CIRCLE
  8
44
 10
335.4000
 20
24.3000
 30
0.0000
 40
0.1000
  0
CIRCLE
  8
44
 10
338.2000
 20
23.1000
 30
0.0000
 40
0.1000
  0
CIRCLE
  8
44
 10
338.1000
 20
21.4000
 30
0.0000
 40
0.1000
  0
CIRCLE
  8
44
 10
338.2000
 20
25.2000
 30
0.0000
 40
0.1000
  0
CIRCLE
  8
44
 10
336.6000
 20
28.9000
 30
0.0000
 40
0.1000
  0
CIRCLE
  8
44
 10
437.8000
 20
59.9000
 30
0.0000
 40
0.2500
  0
CIRCLE
  8
44
 10
441.3000
 20
91.0000
 30
0.0000
 40
0.1000
  0
CIRCLE
  8
44
 10
442.2000
 20
90.9000
 30
0.0000
 40
0.1000
  0
CIRCLE
  8
44
 10
442.4000
 20
89.8000
 30
0.0000
 40
0.1000
  0
CIRCLE
  8
44
 10
442.3000
 20
86.3000
 30
0.0000
 40
0.1000
  0
CIRCLE
  8
44
 10
446.1000
 20
86.1000
 30
0.0000
 40
0.1000
  0
CIRCLE
  8
44
 10
441.1000
 20
86.2000
 30
0.0000
 40
0.1000
  0
CIRCLE
  8
44
 10
450.4000
 20
90.1000
 30
0.0000
 40
0.1000
  0
CIRCLE
  8
44
 10
450.5000
 20
92.1000
 30
0.0000
 40
0.1000
  0
CIRCLE
  8
44
 10
450.4000
 20
86.2000
 30
0.0000
 40
0.1000
  0
CIRCLE
  8
44
 10
420.6000
 20
5.6000
 30
0.0000
 40
0.1000
  0
CIRCLE
  8
44
 10
421.8000
 20
8.0000
 30
0.0000
 40
0.1000
  0
CIRCLE
  8
44
 10
473.6000
 20
5.0000
 30
0.0000
 40
0.1000
  0
CIRCLE
  8
44
 10
475.2000
 20
6.3000
 30
0.0000
 40
0.1000
  0
CIRCLE
  8
44
 10
476.6000
 20
7.7000
 30
0.0000
 40
0.1000
  0
CIRCLE
  8
44
 10
437.1000
 20
11.0000
 30
0.0000
 40
0.1000
  0
CIRCLE
  8
44
 10
427.1000
 20
9.0000
 30
0.0000
 40
0.1000
  0
CIRCLE
  8
44
 10
467.1000
 20
11.0000
 30
0.0000
 40
0.1000
  0
CIRCLE
  8
44
 10
425.1000
 20
9.6000
 30
0.0000
 40
0.1000
  0
CIRCLE
  8
44
 10
423.8000
 20
11.4000
 30
0.0000
 40
0.1000
  0
CIRCLE
  8
44
 10
471.9000
 20
11.9000
 30
0.0000
 40
0.1000
  0
CIRCLE
  8
44
 10
473.6000
 20
13.4000
 30
0.0000
 40
0.1000
  0
CIRCLE
  8
44
 10
475.3000
 20
15.3000
 30
0.0000
 40
0.1000
  0
CIRCLE
  8
44
 10
476.8000
 20
13.3000
 30
0.0000
 40
0.1000
  0
CIRCLE
  8
44
 10
475.7000
 20
11.7000
 30
0.0000
 40
0.1000
  0
CIRCLE
  8
44
 10
474.0000
 20
10.3000
 30
0.0000
 40
0.1000
  0
CIRCLE
  8
44
 10
415.5000
 20
25.5000
 30
0.0000
 40
0.1000
  0
CIRCLE
  8
44
 10
460.4000
 20
95.2000
 30
0.0000
 40
0.1500
  0
CIRCLE
  8
44
 10
466.8000
 20
90.3000
 30
0.0000
 40
0.1500
  0
CIRCLE
  8
44
 10
466.8000
 20
95.1000
 30
0.0000
 40
0.1500
  0
CIRCLE
  8
44
 10
457.1000
 20
94.9000
 30
0.0000
 40
0.1500
  0
CIRCLE
  8
44
 10
462.9000
 20
94.9000
 30
0.0000
 40
0.1500
  0
CIRCLE
  8
44
 10
481.3000
 20
105.5000
 30
0.0000
 40
0.1500
  0
CIRCLE
  8
44
 10
385.8000
 20
83.0000
 30
0.0000
 40
0.1000
  0
CIRCLE
  8
44
 10
365.8000
 20
83.0000
 30
0.0000
 40
0.1000
  0
CIRCLE
  8
44
 10
346.5000
 20
83.7000
 30
0.0000
 40
0.1000
  0
CIRCLE
  8
44
 10
345.8000
 20
63.0000
 30
0.0000
 40
0.1000
  0
CIRCLE
  8
44
 10
365.7000
 20
63.0000
 30
0.0000
 40
0.1000
  0
CIRCLE
  8
44
 10
385.8000
 20
63.0000
 30
0.0000
 40
0.1000
  0
CIRCLE
  8
44
 10
405.7000
 20
63.0000
 30
0.0000
 40
0.1000
  0
CIRCLE
  8
44
 10
406.5000
 20
83.8000
 30
0.0000
 40
0.1000
  0
CIRCLE
  8
44
 10
360.5000
 20
9.5000
 30
0.0000
 40
0.1000
  0
CIRCLE
  8
44
 10
351.3000
 20
7.7000
 30
0.0000
 40
0.1000
  0
CIRCLE
  8
44
 10
349.3000
 20
15.3000
 30
0.0000
 40
0.1000
  0
CIRCLE
  8
44
 10
351.2000
 20
23.9000
 30
0.0000
 40
0.1000
  0
CIRCLE
  8
44
 10
371.4000
 20
25.4000
 30
0.0000
 40
0.1000
  0
CIRCLE
  8
44
 10
390.7000
 20
25.4000
 30
0.0000
 40
0.1000
  0
CIRCLE
  8
44
 10
407.3000
 20
25.4000
 30
0.0000
 40
0.1000
  0
CIRCLE
  8
44
 10
423.9000
 20
19.2000
 30
0.0000
 40
0.1000
  0
CIRCLE
  8
44
 10
451.9000
 20
17.7000
 30
0.0000
 40
0.1000
  0
CIRCLE
  8
44
 10
467.2000
 20
49.8000
 30
0.0000
 40
0.1000
  0
CIRCLE
  8
44
 10
448.6000
 20
51.5000
 30
0.0000
 40
0.1000
  0
CIRCLE
  8
44
 10
424.9000
 20
49.2000
 30
0.0000
 40
0.1000
  0
CIRCLE
  8
44
 10
386.0000
 20
74.3000
 30
0.0000
 40
0.1000
  0
CIRCLE
  8
44
 10
365.5000
 20
66.2000
 30
0.0000
 40
0.1000
  0
CIRCLE
  8
44
 10
398.3000
 20
110.1000
 30
0.0000
 40
0.1000
  0
CIRCLE
  8
44
 10
374.2000
 20
107.9000
 30
0.0000
 40
0.1000
  0
CIRCLE
  8
44
 10
472.3000
 20
127.2000
 30
0.0000
 40
0.1000
  0
CIRCLE
  8
44
 10
479.2000
 20
119.3000
 30
0.0000
 40
0.1000
  0
CIRCLE
  8
44
 10
475.8000
 20
104.3000
 30
0.0000
 40
0.1000
  0
CIRCLE
  8
44
 10
451.2000
 20
57.0000
 30
0.0000
 40
0.1000
  0
CIRCLE
  8
44
 10
447.1000
 20
57.8000
 30
0.0000
 40
0.1000
  0
CIRCLE
  8
44
 10
440.8000
 20
55.2000
 30
0.0000
 40
0.1000
  0
CIRCLE
  8
44
 10
434.3000
 20
54.4214
 30
0.0000
 40
0.1000
  0
CIRCLE
  8
44
 10
435.3000
 20
52.0000
 30
0.0000
 40
0.1000
  0
CIRCLE
  8
44
 10
435.4000
 20
52.6000
 30
0.0000
 40
0.1000
  0
CIRCLE
  8
44
 10
475.1442
 20
60.9534
 30
0.0000
 40
0.1000
  0
CIRCLE
  8
44
 10
458.2466
 20
89.1000
 30
0.0000
 40
0.1000
  0
CIRCLE
  8
44
 10
475.1442
 20
61.5466
 30
0.0000
 40
0.1000
  0
CIRCLE
  8
44
 10
457.6534
 20
89.1000
 30
0.0000
 40
0.1000
  0
CIRCLE
  8
44
 10
475.0442
 20
60.2466
 30
0.0000
 40
0.1000
  0
CIRCLE
  8
44
 10
459.0000
 20
89.2000
 30
0.0000
 40
0.1000
  0
CIRCLE
  8
44
 10
475.0442
 20
59.6534
 30
0.0000
 40
0.1000
  0
CIRCLE
  8
44
 10
459.6000
 20
89.2000
 30
0.0000
 40
0.1000
  0
CIRCLE
  8
44
 10
475.1066
 20
58.3534
 30
0.0000
 40
0.1000
  0
CIRCLE
  8
44
 10
465.6000
 20
88.8000
 30
0.0000
 40
0.1000
  0
CIRCLE
  8
44
 10
475.1066
 20
58.9466
 30
0.0000
 40
0.1000
  0
CIRCLE
  8
44
 10
465.5000
 20
89.4000
 30
0.0000
 40
0.1000
  0
CIRCLE
  8
44
 10
475.1534
 20
64.3442
 30
0.0000
 40
0.1000
  0
CIRCLE
  8
44
 10
455.6000
 20
106.7466
 30
0.0000
 40
0.1000
  0
CIRCLE
  8
44
 10
475.7466
 20
64.3000
 30
0.0000
 40
0.1000
  0
CIRCLE
  8
44
 10
455.6000
 20
106.1534
 30
0.0000
 40
0.1000
  0
CIRCLE
  8
44
 10
476.0513
 20
63.5000
 30
0.0000
 40
0.1000
  0
CIRCLE
  8
44
 10
456.5256
 20
102.1256
 30
0.0000
 40
0.1000
  0
CIRCLE
  8
44
 10
476.8046
 20
63.5000
 30
0.0000
 40
0.1000
  0
CIRCLE
  8
44
 10
456.9744
 20
101.6744
 30
0.0000
 40
0.1000
  0
CIRCLE
  8
44
 10
459.8903
 20
105.1750
 30
0.0000
 40
0.1000
  0
CIRCLE
  8
44
 10
459.9250
 20
104.0750
 30
0.0000
 40
0.1000
  0
CIRCLE
  8
44
 10
459.1000
 20
96.2000
 30
0.0000
 40
0.1000
  0
CIRCLE
  8
44
 10
459.8000
 20
95.8000
 30
0.0000
 40
0.1000
  0
CIRCLE
  8
44
 10
464.8000
 20
95.9000
 30
0.0000
 40
0.1000
  0
CIRCLE
  8
44
 10
327.0000
 20
17.3000
 30
0.0000
 40
0.1000
  0
CIRCLE
  8
44
 10
320.8000
 20
7.1000
 30
0.0000
 40
0.1000
  0
CIRCLE
  8
44
 10
471.5000
 20
102.0000
 30
0.0000
 40
0.1000
  0
CIRCLE
  8
44
 10
477.4000
 20
87.3000
 30
0.0000
 40
0.1000
  0
CIRCLE
  8
44
 10
479.5000
 20
94.6000
 30
0.0000
 40
0.1000
  0
CIRCLE
  8
44
 10
473.8000
 20
106.8000
 30
0.0000
 40
0.1000
  0
CIRCLE
  8
44
 10
473.8000
 20
105.3000
 30
0.0000
 40
0.1000
  0
CIRCLE
  8
44
 10
473.6000
 20
94.7000
 30
0.0000
 40
0.1000
  0
CIRCLE
  8
44
 10
327.5000
 20
39.5000
 30
0.0000
 40
0.2500
  0
CIRCLE
  8
44
 10
329.0000
 20
16.0000
 30
0.0000
 40
0.2500
  0
CIRCLE
  8
44
 10
324.4000
 20
14.5000
 30
0.0000
 40
0.2500
  0
CIRCLE
  8
44
 10
325.1000
 20
67.3000
 30
0.0000
 40
0.1000
  0
CIRCLE
  8
44
 10
321.5000
 20
57.3000
 30
0.0000
 40
0.1000
  0
CIRCLE
  8
44
 10
325.0000
 20
39.5000
 30
0.0000
 40
0.2500
  0
CIRCLE
  8
44
 10
327.5000
 20
64.5000
 30
0.0000
 40
0.2500
  0
CIRCLE
  8
44
 10
325.5000
 20
92.3000
 30
0.0000
 40
0.1000
  0
CIRCLE
  8
44
 10
320.9000
 20
82.4000
 30
0.0000
 40
0.1000
  0
CIRCLE
  8
44
 10
325.5000
 20
42.2286
 30
0.0000
 40
0.1000
  0
CIRCLE
  8
44
 10
320.8000
 20
32.1000
 30
0.0000
 40
0.1000
  0
CIRCLE
  8
44
 10
325.0000
 20
64.5000
 30
0.0000
 40
0.2500
  0
CIRCLE
  8
44
 10
327.6020
 20
89.0000
 30
0.0000
 40
0.2500
  0
CIRCLE
  8
44
 10
325.0000
 20
89.0000
 30
0.0000
 40
0.2500
  0
CIRCLE
  8
44
 10
329.0000
 20
20.0000
 30
0.0000
 40
0.1000
  0
CIRCLE
  8
44
 10
434.9000
 20
55.2000
 30
0.0000
 40
0.1000
  0
CIRCLE
  8
44
 10
329.0000
 20
45.0000
 30
0.0000
 40
0.1000
  0
CIRCLE
  8
44
 10
435.2000
 20
56.0000
 30
0.0000
 40
0.1000
  0
CIRCLE
  8
44
 10
329.0000
 20
70.0000
 30
0.0000
 40
0.1000
  0
CIRCLE
  8
44
 10
434.9000
 20
56.9000
 30
0.0000
 40
0.1000
  0
CIRCLE
  8
44
 10
330.0000
 20
93.5000
 30
0.0000
 40
0.1000
  0
CIRCLE
  8
44
 10
440.8000
 20
55.9000
 30
0.0000
 40
0.1000
  0
ENDSEC
  0
EOF
