  0
SECTION
  2
HEADER
  9
$ACADVER
  1
AC1009
  9
$FILLMODE
 70
1
  9
$EXTMIN
 10
0.0000
 20
-15.0762
 30
0.0000
  9
$EXTMAX
 10
493.1000
 20
151.4400
 30
0.0000
  0
ENDSEC
  0
SECTION
  2
TABLES
  0
TABLE
  2
LTYPE
 70
1
  0
LTYPE
  2
CONTINUOUS
 70
64
  3
Solid line
 72
65
 73
0
 40
0
  0
ENDTAB
  0
TABLE
  2
LAYER
 70
255
  0
LAYER
  2
17
 70
64
 62
110
  6
CONTINUOUS
  0
LAYER
  2
20
 70
64
 62
31
  6
CONTINUOUS
  0
ENDTAB
  0
ENDSEC
  0
SECTION
  2
BLOCKS
  0
BLOCK
  8
0
  2
RECT
 70
64
 10
0.0000
 20
0.0000
 30
0.0000
  3
RECT
  0
SOLID
  8
0
 10
-0.5000
 20
-0.5000
 30
0.0000
 11
0.5000
 21
-0.5000
 31
0.0000
 12
-0.5000
 22
0.5000
 32
0.0000
 13
0.5000
 23
0.5000
 33
0.0000
  0
ENDBLK
  8
0
  0
BLOCK
  8
0
  2
PIE
 70
64
 10
0.0000
 20
0.0000
 30
0.0000
  3
PIE
  0
POLYLINE
  8
0
 66
1
 10
0.0000
 20
0.0000
 30
0.0000
 40
0.5000
 41
0.5000
 70
0
  0
VERTEX
  8
0
 10
0.0000
 20
-0.2500
 30
0.0000
 42
1.0000
  0
VERTEX
  8
0
 10
0.0000
 20
0.2500
 30
0.0000
 42
1.0000
  0
VERTEX
  8
0
 10
0.0000
 20
-0.2500
 30
0.0000
  0
SEQEND
  8
0
  0
ENDBLK
  8
0
  0
BLOCK
  8
0
  2
OCTAGONP
 70
64
 10
0.0000
 20
0.0000
 30
0.0000
  3
OCTAGONP
  0
POLYLINE
  8
0
 66
1
 10
0.0000
 20
0.0000
 30
0.0000
 40
0.5000
 41
0.5000
 70
0
  0
VERTEX
  8
0
 10
-0.2500
 20
-0.1036
 30
0.0000
  0
VERTEX
  8
0
 10
-0.2500
 20
0.1036
 30
0.0000
  0
VERTEX
  8
0
 10
-0.1036
 20
0.2500
 30
0.0000
  0
VERTEX
  8
0
 10
0.1036
 20
0.2500
 30
0.0000
  0
VERTEX
  8
0
 10
0.2500
 20
0.1036
 30
0.0000
  0
VERTEX
  8
0
 10
0.2500
 20
-0.1036
 30
0.0000
  0
VERTEX
  8
0
 10
0.1036
 20
-0.2500
 30
0.0000
  0
VERTEX
  8
0
 10
-0.1036
 20
-0.2500
 30
0.0000
  0
VERTEX
  8
0
 10
-0.2500
 20
-0.1036
 30
0.0000
  0
VERTEX
  8
0
 10
-0.2500
 20
0.1036
 30
0.0000
  0
SEQEND
  8
0
  0
ENDBLK
  8
0
  0
BLOCK
  8
0
  2
SQUAREP
 70
64
 10
0.0000
 20
0.0000
 30
0.0000
  3
SQUAREP
  0
SOLID
  8
0
 10
-0.5000
 20
-0.5000
 30
0.0000
 11
0.5000
 21
-0.5000
 31
0.0000
 12
-0.5000
 22
0.5000
 32
0.0000
 13
0.5000
 23
0.5000
 33
0.0000
  0
ENDBLK
  8
0
  0
BLOCK
  8
0
  2
ROUNDP
 70
64
 10
0.0000
 20
0.0000
 30
0.0000
  3
ROUNDP
  0
POLYLINE
  8
0
 66
1
 10
0.0000
 20
0.0000
 30
0.0000
 40
0.5000
 41
0.5000
 70
0
  0
VERTEX
  8
0
 10
0.0000
 20
-0.2500
 30
0.0000
 42
1.0000
  0
VERTEX
  8
0
 10
0.0000
 20
0.2500
 30
0.0000
 42
1.0000
  0
VERTEX
  8
0
 10
0.0000
 20
-0.2500
 30
0.0000
  0
SEQEND
  8
0
  0
ENDBLK
  8
0
  0
BLOCK
  8
0
  2
ANNULUSP
 70
64
 10
0.0000
 20
0.0000
 30
0.0000
  3
ANNULUSP
  0
POLYLINE
  8
0
 66
1
 10
0.0000
 20
0.0000
 30
0.0000
 40
0.5000
 41
0.5000
 70
0
  0
VERTEX
  8
0
 10
0.0000
 20
-0.2500
 30
0.0000
 42
1.0000
  0
VERTEX
  8
0
 10
0.0000
 20
0.2500
 30
0.0000
 42
1.0000
  0
VERTEX
  8
0
 10
0.0000
 20
-0.2500
 30
0.0000
  0
SEQEND
  8
0
  0
ENDBLK
  8
0
  0
BLOCK
  8
0
  2
THERMALP
 70
64
 10
0.0000
 20
0.0000
 30
0.0000
  3
THERMALP
  0
POLYLINE
  8
0
 66
1
 10
0.0000
 20
0.0000
 30
0.0000
 40
0.1000
 41
0.1000
 70
0
  0
VERTEX
  8
0
 10
-0.2379
 20
0.4500
 30
0.0000
  0
VERTEX
  8
0
 10
0.2379
 20
0.4500
 30
0.0000
  0
SEQEND
  8
0
  0
POLYLINE
  8
0
 66
1
 10
0.0000
 20
0.0000
 30
0.0000
 40
0.0500
 41
0.0500
 70
0
  0
VERTEX
  8
0
 10
0.2379
 20
0.4250
 30
0.0000
 42
1.0000
  0
VERTEX
  8
0
 10
0.2379
 20
0.4750
 30
0.0000
  0
SEQEND
  8
0
  0
POLYLINE
  8
0
 66
1
 10
0.0000
 20
0.0000
 30
0.0000
 40
0.0500
 41
0.0500
 70
0
  0
VERTEX
  8
0
 10
-0.2379
 20
0.4750
 30
0.0000
 42
1.0000
  0
VERTEX
  8
0
 10
-0.2379
 20
0.4250
 30
0.0000
  0
SEQEND
  8
0
  0
POLYLINE
  8
0
 66
1
 10
0.0000
 20
0.0000
 30
0.0000
 40
0.1000
 41
0.1000
 70
0
  0
VERTEX
  8
0
 10
0.4500
 20
0.2379
 30
0.0000
  0
VERTEX
  8
0
 10
0.4500
 20
-0.2379
 30
0.0000
  0
SEQEND
  8
0
  0
POLYLINE
  8
0
 66
1
 10
0.0000
 20
0.0000
 30
0.0000
 40
0.0500
 41
0.0500
 70
0
  0
VERTEX
  8
0
 10
0.4250
 20
-0.2379
 30
0.0000
 42
1.0000
  0
VERTEX
  8
0
 10
0.4750
 20
-0.2379
 30
0.0000
  0
SEQEND
  8
0
  0
POLYLINE
  8
0
 66
1
 10
0.0000
 20
0.0000
 30
0.0000
 40
0.0500
 41
0.0500
 70
0
  0
VERTEX
  8
0
 10
0.4750
 20
0.2379
 30
0.0000
 42
1.0000
  0
VERTEX
  8
0
 10
0.4250
 20
0.2379
 30
0.0000
  0
SEQEND
  8
0
  0
POLYLINE
  8
0
 66
1
 10
0.0000
 20
0.0000
 30
0.0000
 40
0.1000
 41
0.1000
 70
0
  0
VERTEX
  8
0
 10
0.2379
 20
-0.4500
 30
0.0000
  0
VERTEX
  8
0
 10
-0.2379
 20
-0.4500
 30
0.0000
  0
SEQEND
  8
0
  0
POLYLINE
  8
0
 66
1
 10
0.0000
 20
0.0000
 30
0.0000
 40
0.0500
 41
0.0500
 70
0
  0
VERTEX
  8
0
 10
-0.2379
 20
-0.4250
 30
0.0000
 42
1.0000
  0
VERTEX
  8
0
 10
-0.2379
 20
-0.4750
 30
0.0000
  0
SEQEND
  8
0
  0
POLYLINE
  8
0
 66
1
 10
0.0000
 20
0.0000
 30
0.0000
 40
0.0500
 41
0.0500
 70
0
  0
VERTEX
  8
0
 10
0.2379
 20
-0.4750
 30
0.0000
 42
1.0000
  0
VERTEX
  8
0
 10
0.2379
 20
-0.4250
 30
0.0000
  0
SEQEND
  8
0
  0
POLYLINE
  8
0
 66
1
 10
0.0000
 20
0.0000
 30
0.0000
 40
0.1000
 41
0.1000
 70
0
  0
VERTEX
  8
0
 10
-0.4500
 20
-0.2379
 30
0.0000
  0
VERTEX
  8
0
 10
-0.4500
 20
0.2379
 30
0.0000
  0
SEQEND
  8
0
  0
POLYLINE
  8
0
 66
1
 10
0.0000
 20
0.0000
 30
0.0000
 40
0.0500
 41
0.0500
 70
0
  0
VERTEX
  8
0
 10
-0.4250
 20
0.2379
 30
0.0000
 42
1.0000
  0
VERTEX
  8
0
 10
-0.4750
 20
0.2379
 30
0.0000
  0
SEQEND
  8
0
  0
POLYLINE
  8
0
 66
1
 10
0.0000
 20
0.0000
 30
0.0000
 40
0.0500
 41
0.0500
 70
0
  0
VERTEX
  8
0
 10
-0.4750
 20
-0.2379
 30
0.0000
 42
1.0000
  0
VERTEX
  8
0
 10
-0.4250
 20
-0.2379
 30
0.0000
  0
SEQEND
  8
0
  0
ENDBLK
  8
0
  0
BLOCK
  8
0
  2
OCTAGONV
 70
64
 10
0.0000
 20
0.0000
 30
0.0000
  3
OCTAGONV
  0
POLYLINE
  8
0
 66
1
 10
0.0000
 20
0.0000
 30
0.0000
 40
0.5000
 41
0.5000
 70
0
  0
VERTEX
  8
0
 10
-0.2500
 20
-0.1036
 30
0.0000
  0
VERTEX
  8
0
 10
-0.2500
 20
0.1036
 30
0.0000
  0
VERTEX
  8
0
 10
-0.1036
 20
0.2500
 30
0.0000
  0
VERTEX
  8
0
 10
0.1036
 20
0.2500
 30
0.0000
  0
VERTEX
  8
0
 10
0.2500
 20
0.1036
 30
0.0000
  0
VERTEX
  8
0
 10
0.2500
 20
-0.1036
 30
0.0000
  0
VERTEX
  8
0
 10
0.1036
 20
-0.2500
 30
0.0000
  0
VERTEX
  8
0
 10
-0.1036
 20
-0.2500
 30
0.0000
  0
VERTEX
  8
0
 10
-0.2500
 20
-0.1036
 30
0.0000
  0
VERTEX
  8
0
 10
-0.2500
 20
0.1036
 30
0.0000
  0
SEQEND
  8
0
  0
ENDBLK
  8
0
  0
BLOCK
  8
0
  2
SQUAREV
 70
64
 10
0.0000
 20
0.0000
 30
0.0000
  3
SQUAREV
  0
SOLID
  8
0
 10
-0.5000
 20
-0.5000
 30
0.0000
 11
0.5000
 21
-0.5000
 31
0.0000
 12
-0.5000
 22
0.5000
 32
0.0000
 13
0.5000
 23
0.5000
 33
0.0000
  0
ENDBLK
  8
0
  0
BLOCK
  8
0
  2
ROUNDV
 70
64
 10
0.0000
 20
0.0000
 30
0.0000
  3
ROUNDV
  0
POLYLINE
  8
0
 66
1
 10
0.0000
 20
0.0000
 30
0.0000
 40
0.5000
 41
0.5000
 70
0
  0
VERTEX
  8
0
 10
0.0000
 20
-0.2500
 30
0.0000
 42
1.0000
  0
VERTEX
  8
0
 10
0.0000
 20
0.2500
 30
0.0000
 42
1.0000
  0
VERTEX
  8
0
 10
0.0000
 20
-0.2500
 30
0.0000
  0
SEQEND
  8
0
  0
ENDBLK
  8
0
  0
BLOCK
  8
0
  2
ANNULUSV
 70
64
 10
0.0000
 20
0.0000
 30
0.0000
  3
ANNULUSV
  0
POLYLINE
  8
0
 66
1
 10
0.0000
 20
0.0000
 30
0.0000
 40
0.5000
 41
0.5000
 70
0
  0
VERTEX
  8
0
 10
0.0000
 20
-0.2500
 30
0.0000
 42
1.0000
  0
VERTEX
  8
0
 10
0.0000
 20
0.2500
 30
0.0000
 42
1.0000
  0
VERTEX
  8
0
 10
0.0000
 20
-0.2500
 30
0.0000
  0
SEQEND
  8
0
  0
ENDBLK
  8
0
  0
BLOCK
  8
0
  2
THERMALV
 70
64
 10
0.0000
 20
0.0000
 30
0.0000
  3
THERMALV
  0
POLYLINE
  8
0
 66
1
 10
0.0000
 20
0.0000
 30
0.0000
 40
0.1000
 41
0.1000
 70
0
  0
VERTEX
  8
0
 10
-0.2379
 20
0.4500
 30
0.0000
  0
VERTEX
  8
0
 10
0.2379
 20
0.4500
 30
0.0000
  0
SEQEND
  8
0
  0
POLYLINE
  8
0
 66
1
 10
0.0000
 20
0.0000
 30
0.0000
 40
0.0500
 41
0.0500
 70
0
  0
VERTEX
  8
0
 10
0.2379
 20
0.4250
 30
0.0000
 42
1.0000
  0
VERTEX
  8
0
 10
0.2379
 20
0.4750
 30
0.0000
  0
SEQEND
  8
0
  0
POLYLINE
  8
0
 66
1
 10
0.0000
 20
0.0000
 30
0.0000
 40
0.0500
 41
0.0500
 70
0
  0
VERTEX
  8
0
 10
-0.2379
 20
0.4750
 30
0.0000
 42
1.0000
  0
VERTEX
  8
0
 10
-0.2379
 20
0.4250
 30
0.0000
  0
SEQEND
  8
0
  0
POLYLINE
  8
0
 66
1
 10
0.0000
 20
0.0000
 30
0.0000
 40
0.1000
 41
0.1000
 70
0
  0
VERTEX
  8
0
 10
0.4500
 20
0.2379
 30
0.0000
  0
VERTEX
  8
0
 10
0.4500
 20
-0.2379
 30
0.0000
  0
SEQEND
  8
0
  0
POLYLINE
  8
0
 66
1
 10
0.0000
 20
0.0000
 30
0.0000
 40
0.0500
 41
0.0500
 70
0
  0
VERTEX
  8
0
 10
0.4250
 20
-0.2379
 30
0.0000
 42
1.0000
  0
VERTEX
  8
0
 10
0.4750
 20
-0.2379
 30
0.0000
  0
SEQEND
  8
0
  0
POLYLINE
  8
0
 66
1
 10
0.0000
 20
0.0000
 30
0.0000
 40
0.0500
 41
0.0500
 70
0
  0
VERTEX
  8
0
 10
0.4750
 20
0.2379
 30
0.0000
 42
1.0000
  0
VERTEX
  8
0
 10
0.4250
 20
0.2379
 30
0.0000
  0
SEQEND
  8
0
  0
POLYLINE
  8
0
 66
1
 10
0.0000
 20
0.0000
 30
0.0000
 40
0.1000
 41
0.1000
 70
0
  0
VERTEX
  8
0
 10
0.2379
 20
-0.4500
 30
0.0000
  0
VERTEX
  8
0
 10
-0.2379
 20
-0.4500
 30
0.0000
  0
SEQEND
  8
0
  0
POLYLINE
  8
0
 66
1
 10
0.0000
 20
0.0000
 30
0.0000
 40
0.0500
 41
0.0500
 70
0
  0
VERTEX
  8
0
 10
-0.2379
 20
-0.4250
 30
0.0000
 42
1.0000
  0
VERTEX
  8
0
 10
-0.2379
 20
-0.4750
 30
0.0000
  0
SEQEND
  8
0
  0
POLYLINE
  8
0
 66
1
 10
0.0000
 20
0.0000
 30
0.0000
 40
0.0500
 41
0.0500
 70
0
  0
VERTEX
  8
0
 10
0.2379
 20
-0.4750
 30
0.0000
 42
1.0000
  0
VERTEX
  8
0
 10
0.2379
 20
-0.4250
 30
0.0000
  0
SEQEND
  8
0
  0
POLYLINE
  8
0
 66
1
 10
0.0000
 20
0.0000
 30
0.0000
 40
0.1000
 41
0.1000
 70
0
  0
VERTEX
  8
0
 10
-0.4500
 20
-0.2379
 30
0.0000
  0
VERTEX
  8
0
 10
-0.4500
 20
0.2379
 30
0.0000
  0
SEQEND
  8
0
  0
POLYLINE
  8
0
 66
1
 10
0.0000
 20
0.0000
 30
0.0000
 40
0.0500
 41
0.0500
 70
0
  0
VERTEX
  8
0
 10
-0.4250
 20
0.2379
 30
0.0000
 42
1.0000
  0
VERTEX
  8
0
 10
-0.4750
 20
0.2379
 30
0.0000
  0
SEQEND
  8
0
  0
POLYLINE
  8
0
 66
1
 10
0.0000
 20
0.0000
 30
0.0000
 40
0.0500
 41
0.0500
 70
0
  0
VERTEX
  8
0
 10
-0.4750
 20
-0.2379
 30
0.0000
 42
1.0000
  0
VERTEX
  8
0
 10
-0.4250
 20
-0.2379
 30
0.0000
  0
SEQEND
  8
0
  0
ENDBLK
  8
0
  0
BLOCK
  8
0
  2
LONGP100
 70
64
 10
0.0000
 20
0.0000
 30
0.0000
  3
LONGP100
  0
POLYLINE
  8
0
 66
1
 10
0.0000
 20
0.0000
 30
0.0000
 40
1.0000
 41
1.0000
 70
0
  0
VERTEX
  8
0
 10
-0.5000
 20
0.0000
 30
0.0000
  0
VERTEX
  8
0
 10
0.5000
 20
0.0000
 30
0.0000
  0
SEQEND
  8
0
  0
POLYLINE
  8
0
 66
1
 10
0.0000
 20
0.0000
 30
0.0000
 40
0.5000
 41
0.5000
 70
0
  0
VERTEX
  8
0
 10
0.5000
 20
-0.2500
 30
0.0000
 42
1.0000
  0
VERTEX
  8
0
 10
0.5000
 20
0.2500
 30
0.0000
  0
SEQEND
  8
0
  0
POLYLINE
  8
0
 66
1
 10
0.0000
 20
0.0000
 30
0.0000
 40
0.5000
 41
0.5000
 70
0
  0
VERTEX
  8
0
 10
-0.5000
 20
0.2500
 30
0.0000
 42
1.0000
  0
VERTEX
  8
0
 10
-0.5000
 20
-0.2500
 30
0.0000
  0
SEQEND
  8
0
  0
ENDBLK
  8
0
  0
ENDSEC
  0
SECTION
  2
ENTITIES
  0
LINE
  8
20
 10
485.0000
 20
0.0000
 30
0.0000
 11
485.0000
 21
130.0000
 31
0.0000
  0
LINE
  8
20
 10
485.0000
 20
130.0000
 30
0.0000
 11
0.0000
 21
130.0000
 31
0.0000
  0
LINE
  8
20
 10
0.0000
 20
130.0000
 30
0.0000
 11
0.0000
 21
0.0000
 31
0.0000
  0
LINE
  8
20
 10
0.0000
 20
0.0000
 30
0.0000
 11
485.0000
 21
0.0000
 31
0.0000
  0
POLYLINE
  8
20
 66
1
 10
0.0000
 20
0.0000
 30
0.0000
 40
0.0100
 41
0.0100
 70
0
  0
VERTEX
  8
20
 10
208.3000
 20
119.8000
 30
0.0000
  0
VERTEX
  8
20
 10
211.9000
 20
121.6000
 30
0.0000
  0
SEQEND
  8
0
  0
POLYLINE
  8
20
 66
1
 10
0.0000
 20
0.0000
 30
0.0000
 40
0.0050
 41
0.0050
 70
0
  0
VERTEX
  8
20
 10
211.9011
 20
121.5978
 30
0.0000
 42
1.0000
  0
VERTEX
  8
20
 10
211.8989
 20
121.6022
 30
0.0000
  0
SEQEND
  8
0
  0
POLYLINE
  8
20
 66
1
 10
0.0000
 20
0.0000
 30
0.0000
 40
0.0050
 41
0.0050
 70
0
  0
VERTEX
  8
20
 10
208.2989
 20
119.8022
 30
0.0000
 42
1.0000
  0
VERTEX
  8
20
 10
208.3011
 20
119.7978
 30
0.0000
  0
SEQEND
  8
0
  0
POLYLINE
  8
20
 66
1
 10
0.0000
 20
0.0000
 30
0.0000
 40
0.0100
 41
0.0100
 70
0
  0
VERTEX
  8
20
 10
211.3000
 20
114.0000
 30
0.0000
  0
VERTEX
  8
20
 10
214.7000
 20
115.7000
 30
0.0000
  0
SEQEND
  8
0
  0
POLYLINE
  8
20
 66
1
 10
0.0000
 20
0.0000
 30
0.0000
 40
0.0050
 41
0.0050
 70
0
  0
VERTEX
  8
20
 10
214.7011
 20
115.6978
 30
0.0000
 42
1.0000
  0
VERTEX
  8
20
 10
214.6989
 20
115.7022
 30
0.0000
  0
SEQEND
  8
0
  0
POLYLINE
  8
20
 66
1
 10
0.0000
 20
0.0000
 30
0.0000
 40
0.0050
 41
0.0050
 70
0
  0
VERTEX
  8
20
 10
211.2989
 20
114.0022
 30
0.0000
 42
1.0000
  0
VERTEX
  8
20
 10
211.3011
 20
113.9978
 30
0.0000
  0
SEQEND
  8
0
  0
POLYLINE
  8
20
 66
1
 10
0.0000
 20
0.0000
 30
0.0000
 40
0.0100
 41
0.0100
 70
0
  0
VERTEX
  8
20
 10
214.7000
 20
115.7000
 30
0.0000
 42
0.9594
  0
VERTEX
  8
20
 10
211.9000
 20
121.6000
 30
0.0000
  0
SEQEND
  8
0
  0
POLYLINE
  8
20
 66
1
 10
0.0000
 20
0.0000
 30
0.0000
 40
0.0050
 41
0.0050
 70
0
  0
VERTEX
  8
20
 10
214.6988
 20
115.7022
 30
0.0000
 42
1.0000
  0
VERTEX
  8
20
 10
214.7012
 20
115.6978
 30
0.0000
  0
SEQEND
  8
0
  0
POLYLINE
  8
20
 66
1
 10
0.0000
 20
0.0000
 30
0.0000
 40
0.0050
 41
0.0050
 70
0
  0
VERTEX
  8
20
 10
211.8990
 20
121.6023
 30
0.0000
 42
1.0000
  0
VERTEX
  8
20
 10
211.9010
 20
121.5977
 30
0.0000
  0
SEQEND
  8
0
  0
POLYLINE
  8
20
 66
1
 10
0.0000
 20
0.0000
 30
0.0000
 40
0.0100
 41
0.0100
 70
0
  0
VERTEX
  8
20
 10
208.3000
 20
119.8000
 30
0.0000
 42
0.9315
  0
VERTEX
  8
20
 10
211.3000
 20
114.0000
 30
0.0000
  0
SEQEND
  8
0
  0
POLYLINE
  8
20
 66
1
 10
0.0000
 20
0.0000
 30
0.0000
 40
0.0050
 41
0.0050
 70
0
  0
VERTEX
  8
20
 10
208.3013
 20
119.7979
 30
0.0000
 42
1.0000
  0
VERTEX
  8
20
 10
208.2987
 20
119.8021
 30
0.0000
  0
SEQEND
  8
0
  0
POLYLINE
  8
20
 66
1
 10
0.0000
 20
0.0000
 30
0.0000
 40
0.0050
 41
0.0050
 70
0
  0
VERTEX
  8
20
 10
211.3010
 20
113.9977
 30
0.0000
 42
1.0000
  0
VERTEX
  8
20
 10
211.2990
 20
114.0023
 30
0.0000
  0
SEQEND
  8
0
  0
POLYLINE
  8
20
 66
1
 10
0.0000
 20
0.0000
 30
0.0000
 40
0.0100
 41
0.0100
 70
0
  0
VERTEX
  8
20
 10
6.7500
 20
117.0000
 30
0.0000
  0
VERTEX
  8
20
 10
6.7500
 20
118.6000
 30
0.0000
  0
SEQEND
  8
0
  0
POLYLINE
  8
20
 66
1
 10
0.0000
 20
0.0000
 30
0.0000
 40
0.0050
 41
0.0050
 70
0
  0
VERTEX
  8
20
 10
6.7525
 20
118.6000
 30
0.0000
 42
1.0000
  0
VERTEX
  8
20
 10
6.7475
 20
118.6000
 30
0.0000
  0
SEQEND
  8
0
  0
POLYLINE
  8
20
 66
1
 10
0.0000
 20
0.0000
 30
0.0000
 40
0.0050
 41
0.0050
 70
0
  0
VERTEX
  8
20
 10
6.7475
 20
117.0000
 30
0.0000
 42
1.0000
  0
VERTEX
  8
20
 10
6.7525
 20
117.0000
 30
0.0000
  0
SEQEND
  8
0
  0
POLYLINE
  8
20
 66
1
 10
0.0000
 20
0.0000
 30
0.0000
 40
0.0100
 41
0.0100
 70
0
  0
VERTEX
  8
20
 10
13.2500
 20
117.0000
 30
0.0000
  0
VERTEX
  8
20
 10
13.2500
 20
118.6000
 30
0.0000
  0
SEQEND
  8
0
  0
POLYLINE
  8
20
 66
1
 10
0.0000
 20
0.0000
 30
0.0000
 40
0.0050
 41
0.0050
 70
0
  0
VERTEX
  8
20
 10
13.2525
 20
118.6000
 30
0.0000
 42
1.0000
  0
VERTEX
  8
20
 10
13.2475
 20
118.6000
 30
0.0000
  0
SEQEND
  8
0
  0
POLYLINE
  8
20
 66
1
 10
0.0000
 20
0.0000
 30
0.0000
 40
0.0050
 41
0.0050
 70
0
  0
VERTEX
  8
20
 10
13.2475
 20
117.0000
 30
0.0000
 42
1.0000
  0
VERTEX
  8
20
 10
13.2525
 20
117.0000
 30
0.0000
  0
SEQEND
  8
0
  0
POLYLINE
  8
20
 66
1
 10
0.0000
 20
0.0000
 30
0.0000
 40
0.0100
 41
0.0100
 70
0
  0
VERTEX
  8
20
 10
6.7500
 20
117.0000
 30
0.0000
 42
1.0011
  0
VERTEX
  8
20
 10
13.2500
 20
117.0000
 30
0.0000
  0
SEQEND
  8
0
  0
POLYLINE
  8
20
 66
1
 10
0.0000
 20
0.0000
 30
0.0000
 40
0.0050
 41
0.0050
 70
0
  0
VERTEX
  8
20
 10
6.7525
 20
117.0000
 30
0.0000
 42
1.0000
  0
VERTEX
  8
20
 10
6.7475
 20
117.0000
 30
0.0000
  0
SEQEND
  8
0
  0
POLYLINE
  8
20
 66
1
 10
0.0000
 20
0.0000
 30
0.0000
 40
0.0050
 41
0.0050
 70
0
  0
VERTEX
  8
20
 10
13.2525
 20
117.0000
 30
0.0000
 42
1.0000
  0
VERTEX
  8
20
 10
13.2475
 20
117.0000
 30
0.0000
  0
SEQEND
  8
0
  0
POLYLINE
  8
20
 66
1
 10
0.0000
 20
0.0000
 30
0.0000
 40
0.0100
 41
0.0100
 70
0
  0
VERTEX
  8
20
 10
13.2500
 20
118.6000
 30
0.0000
 42
1.0011
  0
VERTEX
  8
20
 10
6.7500
 20
118.6000
 30
0.0000
  0
SEQEND
  8
0
  0
POLYLINE
  8
20
 66
1
 10
0.0000
 20
0.0000
 30
0.0000
 40
0.0050
 41
0.0050
 70
0
  0
VERTEX
  8
20
 10
13.2475
 20
118.6000
 30
0.0000
 42
1.0000
  0
VERTEX
  8
20
 10
13.2525
 20
118.6000
 30
0.0000
  0
SEQEND
  8
0
  0
POLYLINE
  8
20
 66
1
 10
0.0000
 20
0.0000
 30
0.0000
 40
0.0050
 41
0.0050
 70
0
  0
VERTEX
  8
20
 10
6.7475
 20
118.6000
 30
0.0000
 42
1.0000
  0
VERTEX
  8
20
 10
6.7525
 20
118.6000
 30
0.0000
  0
SEQEND
  8
0
  0
POLYLINE
  8
20
 66
1
 10
0.0000
 20
0.0000
 30
0.0000
 40
0.0100
 41
0.0100
 70
0
  0
VERTEX
  8
20
 10
210.0000
 20
20.2500
 30
0.0000
  0
VERTEX
  8
20
 10
213.2000
 20
20.2500
 30
0.0000
  0
SEQEND
  8
0
  0
POLYLINE
  8
20
 66
1
 10
0.0000
 20
0.0000
 30
0.0000
 40
0.0050
 41
0.0050
 70
0
  0
VERTEX
  8
20
 10
213.2000
 20
20.2475
 30
0.0000
 42
1.0000
  0
VERTEX
  8
20
 10
213.2000
 20
20.2525
 30
0.0000
  0
SEQEND
  8
0
  0
POLYLINE
  8
20
 66
1
 10
0.0000
 20
0.0000
 30
0.0000
 40
0.0050
 41
0.0050
 70
0
  0
VERTEX
  8
20
 10
210.0000
 20
20.2525
 30
0.0000
 42
1.0000
  0
VERTEX
  8
20
 10
210.0000
 20
20.2475
 30
0.0000
  0
SEQEND
  8
0
  0
POLYLINE
  8
20
 66
1
 10
0.0000
 20
0.0000
 30
0.0000
 40
0.0100
 41
0.0100
 70
0
  0
VERTEX
  8
20
 10
213.2000
 20
13.7500
 30
0.0000
 42
1.0001
  0
VERTEX
  8
20
 10
213.2000
 20
20.2500
 30
0.0000
  0
SEQEND
  8
0
  0
POLYLINE
  8
20
 66
1
 10
0.0000
 20
0.0000
 30
0.0000
 40
0.0050
 41
0.0050
 70
0
  0
VERTEX
  8
20
 10
213.2000
 20
13.7525
 30
0.0000
 42
1.0000
  0
VERTEX
  8
20
 10
213.2000
 20
13.7475
 30
0.0000
  0
SEQEND
  8
0
  0
POLYLINE
  8
20
 66
1
 10
0.0000
 20
0.0000
 30
0.0000
 40
0.0050
 41
0.0050
 70
0
  0
VERTEX
  8
20
 10
213.2000
 20
20.2525
 30
0.0000
 42
1.0000
  0
VERTEX
  8
20
 10
213.2000
 20
20.2475
 30
0.0000
  0
SEQEND
  8
0
  0
POLYLINE
  8
20
 66
1
 10
0.0000
 20
0.0000
 30
0.0000
 40
0.0100
 41
0.0100
 70
0
  0
VERTEX
  8
20
 10
213.2000
 20
13.7500
 30
0.0000
  0
VERTEX
  8
20
 10
210.0000
 20
13.7500
 30
0.0000
  0
SEQEND
  8
0
  0
POLYLINE
  8
20
 66
1
 10
0.0000
 20
0.0000
 30
0.0000
 40
0.0050
 41
0.0050
 70
0
  0
VERTEX
  8
20
 10
210.0000
 20
13.7525
 30
0.0000
 42
1.0000
  0
VERTEX
  8
20
 10
210.0000
 20
13.7475
 30
0.0000
  0
SEQEND
  8
0
  0
POLYLINE
  8
20
 66
1
 10
0.0000
 20
0.0000
 30
0.0000
 40
0.0050
 41
0.0050
 70
0
  0
VERTEX
  8
20
 10
213.2000
 20
13.7475
 30
0.0000
 42
1.0000
  0
VERTEX
  8
20
 10
213.2000
 20
13.7525
 30
0.0000
  0
SEQEND
  8
0
  0
POLYLINE
  8
20
 66
1
 10
0.0000
 20
0.0000
 30
0.0000
 40
0.0100
 41
0.0100
 70
0
  0
VERTEX
  8
20
 10
210.0000
 20
20.2500
 30
0.0000
 42
1.0000
  0
VERTEX
  8
20
 10
210.0000
 20
13.7500
 30
0.0000
  0
SEQEND
  8
0
  0
POLYLINE
  8
20
 66
1
 10
0.0000
 20
0.0000
 30
0.0000
 40
0.0050
 41
0.0050
 70
0
  0
VERTEX
  8
20
 10
210.0000
 20
20.2475
 30
0.0000
 42
1.0000
  0
VERTEX
  8
20
 10
210.0000
 20
20.2525
 30
0.0000
  0
SEQEND
  8
0
  0
POLYLINE
  8
20
 66
1
 10
0.0000
 20
0.0000
 30
0.0000
 40
0.0050
 41
0.0050
 70
0
  0
VERTEX
  8
20
 10
210.0000
 20
13.7475
 30
0.0000
 42
1.0000
  0
VERTEX
  8
20
 10
210.0000
 20
13.7525
 30
0.0000
  0
SEQEND
  8
0
  0
POLYLINE
  8
20
 66
1
 10
0.0000
 20
0.0000
 30
0.0000
 40
0.0100
 41
0.0100
 70
0
  0
VERTEX
  8
20
 10
460.0000
 20
20.2500
 30
0.0000
  0
VERTEX
  8
20
 10
467.2000
 20
20.2500
 30
0.0000
  0
SEQEND
  8
0
  0
POLYLINE
  8
20
 66
1
 10
0.0000
 20
0.0000
 30
0.0000
 40
0.0050
 41
0.0050
 70
0
  0
VERTEX
  8
20
 10
467.2000
 20
20.2475
 30
0.0000
 42
1.0000
  0
VERTEX
  8
20
 10
467.2000
 20
20.2525
 30
0.0000
  0
SEQEND
  8
0
  0
POLYLINE
  8
20
 66
1
 10
0.0000
 20
0.0000
 30
0.0000
 40
0.0050
 41
0.0050
 70
0
  0
VERTEX
  8
20
 10
460.0000
 20
20.2525
 30
0.0000
 42
1.0000
  0
VERTEX
  8
20
 10
460.0000
 20
20.2475
 30
0.0000
  0
SEQEND
  8
0
  0
POLYLINE
  8
20
 66
1
 10
0.0000
 20
0.0000
 30
0.0000
 40
0.0100
 41
0.0100
 70
0
  0
VERTEX
  8
20
 10
467.2000
 20
13.7500
 30
0.0000
 42
1.0001
  0
VERTEX
  8
20
 10
467.2000
 20
20.2500
 30
0.0000
  0
SEQEND
  8
0
  0
POLYLINE
  8
20
 66
1
 10
0.0000
 20
0.0000
 30
0.0000
 40
0.0050
 41
0.0050
 70
0
  0
VERTEX
  8
20
 10
467.2000
 20
13.7525
 30
0.0000
 42
1.0000
  0
VERTEX
  8
20
 10
467.2000
 20
13.7475
 30
0.0000
  0
SEQEND
  8
0
  0
POLYLINE
  8
20
 66
1
 10
0.0000
 20
0.0000
 30
0.0000
 40
0.0050
 41
0.0050
 70
0
  0
VERTEX
  8
20
 10
467.2000
 20
20.2525
 30
0.0000
 42
1.0000
  0
VERTEX
  8
20
 10
467.2000
 20
20.2475
 30
0.0000
  0
SEQEND
  8
0
  0
POLYLINE
  8
20
 66
1
 10
0.0000
 20
0.0000
 30
0.0000
 40
0.0100
 41
0.0100
 70
0
  0
VERTEX
  8
20
 10
467.2000
 20
13.7500
 30
0.0000
  0
VERTEX
  8
20
 10
460.0000
 20
13.7500
 30
0.0000
  0
SEQEND
  8
0
  0
POLYLINE
  8
20
 66
1
 10
0.0000
 20
0.0000
 30
0.0000
 40
0.0050
 41
0.0050
 70
0
  0
VERTEX
  8
20
 10
460.0000
 20
13.7525
 30
0.0000
 42
1.0000
  0
VERTEX
  8
20
 10
460.0000
 20
13.7475
 30
0.0000
  0
SEQEND
  8
0
  0
POLYLINE
  8
20
 66
1
 10
0.0000
 20
0.0000
 30
0.0000
 40
0.0050
 41
0.0050
 70
0
  0
VERTEX
  8
20
 10
467.2000
 20
13.7475
 30
0.0000
 42
1.0000
  0
VERTEX
  8
20
 10
467.2000
 20
13.7525
 30
0.0000
  0
SEQEND
  8
0
  0
POLYLINE
  8
20
 66
1
 10
0.0000
 20
0.0000
 30
0.0000
 40
0.0100
 41
0.0100
 70
0
  0
VERTEX
  8
20
 10
460.0000
 20
20.2500
 30
0.0000
 42
1.0001
  0
VERTEX
  8
20
 10
460.0000
 20
13.7500
 30
0.0000
  0
SEQEND
  8
0
  0
POLYLINE
  8
20
 66
1
 10
0.0000
 20
0.0000
 30
0.0000
 40
0.0050
 41
0.0050
 70
0
  0
VERTEX
  8
20
 10
460.0000
 20
20.2475
 30
0.0000
 42
1.0000
  0
VERTEX
  8
20
 10
460.0000
 20
20.2525
 30
0.0000
  0
SEQEND
  8
0
  0
POLYLINE
  8
20
 66
1
 10
0.0000
 20
0.0000
 30
0.0000
 40
0.0050
 41
0.0050
 70
0
  0
VERTEX
  8
20
 10
460.0000
 20
13.7475
 30
0.0000
 42
1.0000
  0
VERTEX
  8
20
 10
460.0000
 20
13.7525
 30
0.0000
  0
SEQEND
  8
0
  0
POLYLINE
  8
20
 66
1
 10
0.0000
 20
0.0000
 30
0.0000
 40
0.0100
 41
0.0100
 70
0
  0
VERTEX
  8
20
 10
10.0000
 20
13.7496
 30
0.0000
 42
1.0000
  0
VERTEX
  8
20
 10
10.0000
 20
20.2504
 30
0.0000
 42
1.0000
  0
VERTEX
  8
20
 10
10.0000
 20
13.7496
 30
0.0000
  0
SEQEND
  8
0
  0
CIRCLE
  8
20
 10
5.0000
 20
125.0000
 30
0.0000
 40
1.7000
  0
CIRCLE
  8
20
 10
5.0000
 20
5.0000
 30
0.0000
 40
1.7000
  0
CIRCLE
  8
20
 10
480.0000
 20
125.0000
 30
0.0000
 40
1.7000
  0
CIRCLE
  8
20
 10
480.0000
 20
5.0000
 30
0.0000
 40
1.7000
  0
CIRCLE
  8
20
 10
255.0000
 20
125.0000
 30
0.0000
 40
1.7000
  0
CIRCLE
  8
20
 10
280.0000
 20
5.0000
 30
0.0000
 40
1.7000
  0
CIRCLE
  8
20
 10
265.0000
 20
5.0000
 30
0.0000
 40
1.7000
  0
CIRCLE
  8
20
 10
215.0000
 20
5.0000
 30
0.0000
 40
1.7000
  0
CIRCLE
  8
20
 10
165.0000
 20
5.0000
 30
0.0000
 40
1.7000
  0
CIRCLE
  8
20
 10
115.0000
 20
5.0000
 30
0.0000
 40
1.7000
  0
CIRCLE
  8
20
 10
65.0000
 20
5.0000
 30
0.0000
 40
1.7000
  0
CIRCLE
  8
20
 10
65.0000
 20
125.0000
 30
0.0000
 40
1.7000
  0
CIRCLE
  8
20
 10
115.0000
 20
125.0000
 30
0.0000
 40
1.7000
  0
CIRCLE
  8
20
 10
165.0000
 20
125.0000
 30
0.0000
 40
1.7000
  0
CIRCLE
  8
20
 10
215.0000
 20
125.0000
 30
0.0000
 40
1.7000
  0
CIRCLE
  8
20
 10
65.0000
 20
65.0000
 30
0.0000
 40
1.7000
  0
CIRCLE
  8
20
 10
115.0000
 20
65.0000
 30
0.0000
 40
1.7000
  0
CIRCLE
  8
20
 10
165.0000
 20
65.0000
 30
0.0000
 40
1.7000
  0
CIRCLE
  8
20
 10
215.0000
 20
65.0000
 30
0.0000
 40
1.7000
  0
CIRCLE
  8
20
 10
5.0000
 20
65.0000
 30
0.0000
 40
1.7000
  0
CIRCLE
  8
20
 10
300.0000
 20
60.0000
 30
0.0000
 40
1.7000
  0
CIRCLE
  8
20
 10
320.0000
 20
110.0000
 30
0.0000
 40
1.7000
  0
CIRCLE
  8
20
 10
385.0000
 20
5.0000
 30
0.0000
 40
1.7000
  0
CIRCLE
  8
20
 10
370.0000
 20
110.0000
 30
0.0000
 40
1.7000
  0
CIRCLE
  8
20
 10
415.0000
 20
5.0000
 30
0.0000
 40
1.7000
  0
CIRCLE
  8
20
 10
385.0000
 20
110.0000
 30
0.0000
 40
1.7000
  0
CIRCLE
  8
20
 10
265.0000
 20
65.0000
 30
0.0000
 40
1.7000
  0
CIRCLE
  8
20
 10
435.0000
 20
95.0000
 30
0.0000
 40
1.7000
  0
CIRCLE
  8
20
 10
415.0000
 20
50.0000
 30
0.0000
 40
1.7000
  0
CIRCLE
  8
20
 10
385.0000
 20
50.0000
 30
0.0000
 40
1.7000
  0
CIRCLE
  8
20
 10
460.0000
 20
50.0000
 30
0.0000
 40
1.7000
  0
CIRCLE
  8
20
 10
365.0000
 20
50.0000
 30
0.0000
 40
1.7000
  0
CIRCLE
  8
20
 10
340.0000
 20
85.0000
 30
0.0000
 40
1.7000
  0
CIRCLE
  8
20
 10
340.0000
 20
5.0000
 30
0.0000
 40
1.7000
  0
CIRCLE
  8
20
 10
480.0000
 20
25.0000
 30
0.0000
 40
1.7000
  0
CIRCLE
  8
20
 10
270.0000
 20
125.0000
 30
0.0000
 40
1.7000
  0
CIRCLE
  8
20
 10
255.0000
 20
105.0000
 30
0.0000
 40
1.7000
  0
CIRCLE
  8
20
 10
300.0000
 20
85.0000
 30
0.0000
 40
1.7000
  0
CIRCLE
  8
20
 10
300.0000
 20
30.0000
 30
0.0000
 40
1.7000
  0
CIRCLE
  8
20
 10
280.0000
 20
20.0000
 30
0.0000
 40
1.7000
  0
CIRCLE
  8
20
 10
30.0000
 20
65.0000
 30
0.0000
 40
1.7000
  0
INSERT
  8
17
  2
ROUNDP
 10
295.0000
 20
20.0000
 30
0.0000
 41
2.3622
 42
2.3622
 43
1.0000
 50
0.0000
  0
INSERT
  8
17
  2
ROUNDP
 10
295.0000
 20
20.0000
 30
0.0000
 41
2.3622
 42
2.3622
 43
1.0000
 50
0.0000
  0
INSERT
  8
17
  2
ROUNDP
 10
292.4600
 20
22.5400
 30
0.0000
 41
2.5527
 42
2.5527
 43
1.0000
 50
0.0000
  0
INSERT
  8
17
  2
ROUNDP
 10
292.4600
 20
22.5400
 30
0.0000
 41
2.5527
 42
2.5527
 43
1.0000
 50
0.0000
  0
INSERT
  8
17
  2
ROUNDP
 10
297.5400
 20
22.5400
 30
0.0000
 41
2.5527
 42
2.5527
 43
1.0000
 50
0.0000
  0
INSERT
  8
17
  2
ROUNDP
 10
297.5400
 20
22.5400
 30
0.0000
 41
2.5527
 42
2.5527
 43
1.0000
 50
0.0000
  0
INSERT
  8
17
  2
ROUNDP
 10
292.4600
 20
17.4600
 30
0.0000
 41
2.5527
 42
2.5527
 43
1.0000
 50
0.0000
  0
INSERT
  8
17
  2
ROUNDP
 10
292.4600
 20
17.4600
 30
0.0000
 41
2.5527
 42
2.5527
 43
1.0000
 50
0.0000
  0
INSERT
  8
17
  2
ROUNDP
 10
297.5400
 20
17.4600
 30
0.0000
 41
2.5527
 42
2.5527
 43
1.0000
 50
0.0000
  0
INSERT
  8
17
  2
ROUNDP
 10
297.5400
 20
17.4600
 30
0.0000
 41
2.5527
 42
2.5527
 43
1.0000
 50
0.0000
  0
INSERT
  8
17
  2
ROUNDP
 10
295.0000
 20
45.0000
 30
0.0000
 41
2.3622
 42
2.3622
 43
1.0000
 50
0.0000
  0
INSERT
  8
17
  2
ROUNDP
 10
295.0000
 20
45.0000
 30
0.0000
 41
2.3622
 42
2.3622
 43
1.0000
 50
0.0000
  0
INSERT
  8
17
  2
ROUNDP
 10
292.4600
 20
47.5400
 30
0.0000
 41
2.5527
 42
2.5527
 43
1.0000
 50
0.0000
  0
INSERT
  8
17
  2
ROUNDP
 10
292.4600
 20
47.5400
 30
0.0000
 41
2.5527
 42
2.5527
 43
1.0000
 50
0.0000
  0
INSERT
  8
17
  2
ROUNDP
 10
297.5400
 20
47.5400
 30
0.0000
 41
2.5527
 42
2.5527
 43
1.0000
 50
0.0000
  0
INSERT
  8
17
  2
ROUNDP
 10
297.5400
 20
47.5400
 30
0.0000
 41
2.5527
 42
2.5527
 43
1.0000
 50
0.0000
  0
INSERT
  8
17
  2
ROUNDP
 10
292.4600
 20
42.4600
 30
0.0000
 41
2.5527
 42
2.5527
 43
1.0000
 50
0.0000
  0
INSERT
  8
17
  2
ROUNDP
 10
292.4600
 20
42.4600
 30
0.0000
 41
2.5527
 42
2.5527
 43
1.0000
 50
0.0000
  0
INSERT
  8
17
  2
ROUNDP
 10
297.5400
 20
42.4600
 30
0.0000
 41
2.5527
 42
2.5527
 43
1.0000
 50
0.0000
  0
INSERT
  8
17
  2
ROUNDP
 10
297.5400
 20
42.4600
 30
0.0000
 41
2.5527
 42
2.5527
 43
1.0000
 50
0.0000
  0
INSERT
  8
17
  2
ROUNDP
 10
295.0000
 20
70.0000
 30
0.0000
 41
2.3622
 42
2.3622
 43
1.0000
 50
0.0000
  0
INSERT
  8
17
  2
ROUNDP
 10
295.0000
 20
70.0000
 30
0.0000
 41
2.3622
 42
2.3622
 43
1.0000
 50
0.0000
  0
INSERT
  8
17
  2
ROUNDP
 10
292.4600
 20
72.5400
 30
0.0000
 41
2.5527
 42
2.5527
 43
1.0000
 50
0.0000
  0
INSERT
  8
17
  2
ROUNDP
 10
292.4600
 20
72.5400
 30
0.0000
 41
2.5527
 42
2.5527
 43
1.0000
 50
0.0000
  0
INSERT
  8
17
  2
ROUNDP
 10
297.5400
 20
72.5400
 30
0.0000
 41
2.5527
 42
2.5527
 43
1.0000
 50
0.0000
  0
INSERT
  8
17
  2
ROUNDP
 10
297.5400
 20
72.5400
 30
0.0000
 41
2.5527
 42
2.5527
 43
1.0000
 50
0.0000
  0
INSERT
  8
17
  2
ROUNDP
 10
292.4600
 20
67.4600
 30
0.0000
 41
2.5527
 42
2.5527
 43
1.0000
 50
0.0000
  0
INSERT
  8
17
  2
ROUNDP
 10
292.4600
 20
67.4600
 30
0.0000
 41
2.5527
 42
2.5527
 43
1.0000
 50
0.0000
  0
INSERT
  8
17
  2
ROUNDP
 10
297.5400
 20
67.4600
 30
0.0000
 41
2.5527
 42
2.5527
 43
1.0000
 50
0.0000
  0
INSERT
  8
17
  2
ROUNDP
 10
297.5400
 20
67.4600
 30
0.0000
 41
2.5527
 42
2.5527
 43
1.0000
 50
0.0000
  0
INSERT
  8
17
  2
ROUNDP
 10
295.0000
 20
95.0000
 30
0.0000
 41
2.3622
 42
2.3622
 43
1.0000
 50
0.0000
  0
INSERT
  8
17
  2
ROUNDP
 10
295.0000
 20
95.0000
 30
0.0000
 41
2.3622
 42
2.3622
 43
1.0000
 50
0.0000
  0
INSERT
  8
17
  2
ROUNDP
 10
292.4600
 20
97.5400
 30
0.0000
 41
2.5527
 42
2.5527
 43
1.0000
 50
0.0000
  0
INSERT
  8
17
  2
ROUNDP
 10
292.4600
 20
97.5400
 30
0.0000
 41
2.5527
 42
2.5527
 43
1.0000
 50
0.0000
  0
INSERT
  8
17
  2
ROUNDP
 10
297.5400
 20
97.5400
 30
0.0000
 41
2.5527
 42
2.5527
 43
1.0000
 50
0.0000
  0
INSERT
  8
17
  2
ROUNDP
 10
297.5400
 20
97.5400
 30
0.0000
 41
2.5527
 42
2.5527
 43
1.0000
 50
0.0000
  0
INSERT
  8
17
  2
ROUNDP
 10
292.4600
 20
92.4600
 30
0.0000
 41
2.5527
 42
2.5527
 43
1.0000
 50
0.0000
  0
INSERT
  8
17
  2
ROUNDP
 10
292.4600
 20
92.4600
 30
0.0000
 41
2.5527
 42
2.5527
 43
1.0000
 50
0.0000
  0
INSERT
  8
17
  2
ROUNDP
 10
297.5400
 20
92.4600
 30
0.0000
 41
2.5527
 42
2.5527
 43
1.0000
 50
0.0000
  0
INSERT
  8
17
  2
ROUNDP
 10
297.5400
 20
92.4600
 30
0.0000
 41
2.5527
 42
2.5527
 43
1.0000
 50
0.0000
  0
INSERT
  8
17
  2
ROUNDP
 10
478.7300
 20
31.2700
 30
0.0000
 41
1.2000
 42
1.2000
 43
1.0000
 50
0.0000
  0
INSERT
  8
17
  2
ROUNDP
 10
478.7300
 20
31.2700
 30
0.0000
 41
1.2000
 42
1.2000
 43
1.0000
 50
0.0000
  0
INSERT
  8
17
  2
ROUNDP
 10
478.7300
 20
28.7300
 30
0.0000
 41
1.2000
 42
1.2000
 43
1.0000
 50
0.0000
  0
INSERT
  8
17
  2
ROUNDP
 10
478.7300
 20
28.7300
 30
0.0000
 41
1.2000
 42
1.2000
 43
1.0000
 50
0.0000
  0
INSERT
  8
17
  2
ROUNDP
 10
481.2700
 20
28.7300
 30
0.0000
 41
1.2000
 42
1.2000
 43
1.0000
 50
0.0000
  0
INSERT
  8
17
  2
ROUNDP
 10
481.2700
 20
28.7300
 30
0.0000
 41
1.2000
 42
1.2000
 43
1.0000
 50
0.0000
  0
INSERT
  8
17
  2
ROUNDP
 10
481.2700
 20
31.2700
 30
0.0000
 41
1.2000
 42
1.2000
 43
1.0000
 50
0.0000
  0
INSERT
  8
17
  2
ROUNDP
 10
481.2700
 20
31.2700
 30
0.0000
 41
1.2000
 42
1.2000
 43
1.0000
 50
0.0000
  0
INSERT
  8
17
  2
ROUNDP
 10
480.0000
 20
30.0000
 30
0.0000
 41
1.2000
 42
1.2000
 43
1.0000
 50
0.0000
  0
INSERT
  8
17
  2
ROUNDP
 10
480.0000
 20
30.0000
 30
0.0000
 41
1.2000
 42
1.2000
 43
1.0000
 50
0.0000
  0
INSERT
  8
17
  2
ROUNDP
 10
478.7300
 20
36.2700
 30
0.0000
 41
1.2000
 42
1.2000
 43
1.0000
 50
0.0000
  0
INSERT
  8
17
  2
ROUNDP
 10
478.7300
 20
36.2700
 30
0.0000
 41
1.2000
 42
1.2000
 43
1.0000
 50
0.0000
  0
INSERT
  8
17
  2
ROUNDP
 10
478.7300
 20
33.7300
 30
0.0000
 41
1.2000
 42
1.2000
 43
1.0000
 50
0.0000
  0
INSERT
  8
17
  2
ROUNDP
 10
478.7300
 20
33.7300
 30
0.0000
 41
1.2000
 42
1.2000
 43
1.0000
 50
0.0000
  0
INSERT
  8
17
  2
ROUNDP
 10
481.2700
 20
33.7300
 30
0.0000
 41
1.2000
 42
1.2000
 43
1.0000
 50
0.0000
  0
INSERT
  8
17
  2
ROUNDP
 10
481.2700
 20
33.7300
 30
0.0000
 41
1.2000
 42
1.2000
 43
1.0000
 50
0.0000
  0
INSERT
  8
17
  2
ROUNDP
 10
481.2700
 20
36.2700
 30
0.0000
 41
1.2000
 42
1.2000
 43
1.0000
 50
0.0000
  0
INSERT
  8
17
  2
ROUNDP
 10
481.2700
 20
36.2700
 30
0.0000
 41
1.2000
 42
1.2000
 43
1.0000
 50
0.0000
  0
INSERT
  8
17
  2
ROUNDP
 10
480.0000
 20
35.0000
 30
0.0000
 41
1.2000
 42
1.2000
 43
1.0000
 50
0.0000
  0
INSERT
  8
17
  2
ROUNDP
 10
480.0000
 20
35.0000
 30
0.0000
 41
1.2000
 42
1.2000
 43
1.0000
 50
0.0000
  0
INSERT
  8
17
  2
ROUNDP
 10
478.7300
 20
41.2700
 30
0.0000
 41
1.2000
 42
1.2000
 43
1.0000
 50
0.0000
  0
INSERT
  8
17
  2
ROUNDP
 10
478.7300
 20
41.2700
 30
0.0000
 41
1.2000
 42
1.2000
 43
1.0000
 50
0.0000
  0
INSERT
  8
17
  2
ROUNDP
 10
478.7300
 20
38.7300
 30
0.0000
 41
1.2000
 42
1.2000
 43
1.0000
 50
0.0000
  0
INSERT
  8
17
  2
ROUNDP
 10
478.7300
 20
38.7300
 30
0.0000
 41
1.2000
 42
1.2000
 43
1.0000
 50
0.0000
  0
INSERT
  8
17
  2
ROUNDP
 10
481.2700
 20
38.7300
 30
0.0000
 41
1.2000
 42
1.2000
 43
1.0000
 50
0.0000
  0
INSERT
  8
17
  2
ROUNDP
 10
481.2700
 20
38.7300
 30
0.0000
 41
1.2000
 42
1.2000
 43
1.0000
 50
0.0000
  0
INSERT
  8
17
  2
ROUNDP
 10
481.2700
 20
41.2700
 30
0.0000
 41
1.2000
 42
1.2000
 43
1.0000
 50
0.0000
  0
INSERT
  8
17
  2
ROUNDP
 10
481.2700
 20
41.2700
 30
0.0000
 41
1.2000
 42
1.2000
 43
1.0000
 50
0.0000
  0
INSERT
  8
17
  2
ROUNDP
 10
480.0000
 20
40.0000
 30
0.0000
 41
1.2000
 42
1.2000
 43
1.0000
 50
0.0000
  0
INSERT
  8
17
  2
ROUNDP
 10
480.0000
 20
40.0000
 30
0.0000
 41
1.2000
 42
1.2000
 43
1.0000
 50
0.0000
  0
INSERT
  8
17
  2
ROUNDP
 10
478.7300
 20
46.2700
 30
0.0000
 41
1.2000
 42
1.2000
 43
1.0000
 50
0.0000
  0
INSERT
  8
17
  2
ROUNDP
 10
478.7300
 20
46.2700
 30
0.0000
 41
1.2000
 42
1.2000
 43
1.0000
 50
0.0000
  0
INSERT
  8
17
  2
ROUNDP
 10
478.7300
 20
43.7300
 30
0.0000
 41
1.2000
 42
1.2000
 43
1.0000
 50
0.0000
  0
INSERT
  8
17
  2
ROUNDP
 10
478.7300
 20
43.7300
 30
0.0000
 41
1.2000
 42
1.2000
 43
1.0000
 50
0.0000
  0
INSERT
  8
17
  2
ROUNDP
 10
481.2700
 20
43.7300
 30
0.0000
 41
1.2000
 42
1.2000
 43
1.0000
 50
0.0000
  0
INSERT
  8
17
  2
ROUNDP
 10
481.2700
 20
43.7300
 30
0.0000
 41
1.2000
 42
1.2000
 43
1.0000
 50
0.0000
  0
INSERT
  8
17
  2
ROUNDP
 10
481.2700
 20
46.2700
 30
0.0000
 41
1.2000
 42
1.2000
 43
1.0000
 50
0.0000
  0
INSERT
  8
17
  2
ROUNDP
 10
481.2700
 20
46.2700
 30
0.0000
 41
1.2000
 42
1.2000
 43
1.0000
 50
0.0000
  0
INSERT
  8
17
  2
ROUNDP
 10
480.0000
 20
45.0000
 30
0.0000
 41
1.2000
 42
1.2000
 43
1.0000
 50
0.0000
  0
INSERT
  8
17
  2
ROUNDP
 10
480.0000
 20
45.0000
 30
0.0000
 41
1.2000
 42
1.2000
 43
1.0000
 50
0.0000
  0
INSERT
  8
17
  2
ROUNDP
 10
40.0000
 20
90.0000
 30
0.0000
 41
1.3500
 42
1.3500
 43
1.0000
 50
0.0000
  0
INSERT
  8
17
  2
ROUNDP
 10
40.0000
 20
90.0000
 30
0.0000
 41
1.3500
 42
1.3500
 43
1.0000
 50
0.0000
  0
INSERT
  8
17
  2
ROUNDP
 10
43.4300
 20
93.4300
 30
0.0000
 41
2.4000
 42
2.4000
 43
1.0000
 50
0.0000
  0
INSERT
  8
17
  2
ROUNDP
 10
43.4300
 20
93.4300
 30
0.0000
 41
2.4000
 42
2.4000
 43
1.0000
 50
0.0000
  0
INSERT
  8
17
  2
ROUNDP
 10
36.5700
 20
93.4300
 30
0.0000
 41
2.4000
 42
2.4000
 43
1.0000
 50
0.0000
  0
INSERT
  8
17
  2
ROUNDP
 10
36.5700
 20
93.4300
 30
0.0000
 41
2.4000
 42
2.4000
 43
1.0000
 50
0.0000
  0
INSERT
  8
17
  2
ROUNDP
 10
36.5700
 20
86.5700
 30
0.0000
 41
2.4000
 42
2.4000
 43
1.0000
 50
0.0000
  0
INSERT
  8
17
  2
ROUNDP
 10
36.5700
 20
86.5700
 30
0.0000
 41
2.4000
 42
2.4000
 43
1.0000
 50
0.0000
  0
INSERT
  8
17
  2
ROUNDP
 10
43.4300
 20
86.5700
 30
0.0000
 41
2.4000
 42
2.4000
 43
1.0000
 50
0.0000
  0
INSERT
  8
17
  2
ROUNDP
 10
43.4300
 20
86.5700
 30
0.0000
 41
2.4000
 42
2.4000
 43
1.0000
 50
0.0000
  0
INSERT
  8
17
  2
ROUNDP
 10
80.0000
 20
90.0000
 30
0.0000
 41
1.3500
 42
1.3500
 43
1.0000
 50
0.0000
  0
INSERT
  8
17
  2
ROUNDP
 10
80.0000
 20
90.0000
 30
0.0000
 41
1.3500
 42
1.3500
 43
1.0000
 50
0.0000
  0
INSERT
  8
17
  2
ROUNDP
 10
83.4300
 20
93.4300
 30
0.0000
 41
2.4000
 42
2.4000
 43
1.0000
 50
0.0000
  0
INSERT
  8
17
  2
ROUNDP
 10
83.4300
 20
93.4300
 30
0.0000
 41
2.4000
 42
2.4000
 43
1.0000
 50
0.0000
  0
INSERT
  8
17
  2
ROUNDP
 10
76.5700
 20
93.4300
 30
0.0000
 41
2.4000
 42
2.4000
 43
1.0000
 50
0.0000
  0
INSERT
  8
17
  2
ROUNDP
 10
76.5700
 20
93.4300
 30
0.0000
 41
2.4000
 42
2.4000
 43
1.0000
 50
0.0000
  0
INSERT
  8
17
  2
ROUNDP
 10
76.5700
 20
86.5700
 30
0.0000
 41
2.4000
 42
2.4000
 43
1.0000
 50
0.0000
  0
INSERT
  8
17
  2
ROUNDP
 10
76.5700
 20
86.5700
 30
0.0000
 41
2.4000
 42
2.4000
 43
1.0000
 50
0.0000
  0
INSERT
  8
17
  2
ROUNDP
 10
83.4300
 20
86.5700
 30
0.0000
 41
2.4000
 42
2.4000
 43
1.0000
 50
0.0000
  0
INSERT
  8
17
  2
ROUNDP
 10
83.4300
 20
86.5700
 30
0.0000
 41
2.4000
 42
2.4000
 43
1.0000
 50
0.0000
  0
INSERT
  8
17
  2
ROUNDP
 10
120.0000
 20
90.0000
 30
0.0000
 41
1.3500
 42
1.3500
 43
1.0000
 50
0.0000
  0
INSERT
  8
17
  2
ROUNDP
 10
120.0000
 20
90.0000
 30
0.0000
 41
1.3500
 42
1.3500
 43
1.0000
 50
0.0000
  0
INSERT
  8
17
  2
ROUNDP
 10
123.4300
 20
93.4300
 30
0.0000
 41
2.4000
 42
2.4000
 43
1.0000
 50
0.0000
  0
INSERT
  8
17
  2
ROUNDP
 10
123.4300
 20
93.4300
 30
0.0000
 41
2.4000
 42
2.4000
 43
1.0000
 50
0.0000
  0
INSERT
  8
17
  2
ROUNDP
 10
116.5700
 20
93.4300
 30
0.0000
 41
2.4000
 42
2.4000
 43
1.0000
 50
0.0000
  0
INSERT
  8
17
  2
ROUNDP
 10
116.5700
 20
93.4300
 30
0.0000
 41
2.4000
 42
2.4000
 43
1.0000
 50
0.0000
  0
INSERT
  8
17
  2
ROUNDP
 10
116.5700
 20
86.5700
 30
0.0000
 41
2.4000
 42
2.4000
 43
1.0000
 50
0.0000
  0
INSERT
  8
17
  2
ROUNDP
 10
116.5700
 20
86.5700
 30
0.0000
 41
2.4000
 42
2.4000
 43
1.0000
 50
0.0000
  0
INSERT
  8
17
  2
ROUNDP
 10
123.4300
 20
86.5700
 30
0.0000
 41
2.4000
 42
2.4000
 43
1.0000
 50
0.0000
  0
INSERT
  8
17
  2
ROUNDP
 10
123.4300
 20
86.5700
 30
0.0000
 41
2.4000
 42
2.4000
 43
1.0000
 50
0.0000
  0
INSERT
  8
17
  2
ROUNDP
 10
160.0000
 20
90.0000
 30
0.0000
 41
1.3500
 42
1.3500
 43
1.0000
 50
0.0000
  0
INSERT
  8
17
  2
ROUNDP
 10
160.0000
 20
90.0000
 30
0.0000
 41
1.3500
 42
1.3500
 43
1.0000
 50
0.0000
  0
INSERT
  8
17
  2
ROUNDP
 10
163.4300
 20
93.4300
 30
0.0000
 41
2.4000
 42
2.4000
 43
1.0000
 50
0.0000
  0
INSERT
  8
17
  2
ROUNDP
 10
163.4300
 20
93.4300
 30
0.0000
 41
2.4000
 42
2.4000
 43
1.0000
 50
0.0000
  0
INSERT
  8
17
  2
ROUNDP
 10
156.5700
 20
93.4300
 30
0.0000
 41
2.4000
 42
2.4000
 43
1.0000
 50
0.0000
  0
INSERT
  8
17
  2
ROUNDP
 10
156.5700
 20
93.4300
 30
0.0000
 41
2.4000
 42
2.4000
 43
1.0000
 50
0.0000
  0
INSERT
  8
17
  2
ROUNDP
 10
156.5700
 20
86.5700
 30
0.0000
 41
2.4000
 42
2.4000
 43
1.0000
 50
0.0000
  0
INSERT
  8
17
  2
ROUNDP
 10
156.5700
 20
86.5700
 30
0.0000
 41
2.4000
 42
2.4000
 43
1.0000
 50
0.0000
  0
INSERT
  8
17
  2
ROUNDP
 10
163.4300
 20
86.5700
 30
0.0000
 41
2.4000
 42
2.4000
 43
1.0000
 50
0.0000
  0
INSERT
  8
17
  2
ROUNDP
 10
163.4300
 20
86.5700
 30
0.0000
 41
2.4000
 42
2.4000
 43
1.0000
 50
0.0000
  0
INSERT
  8
17
  2
ROUNDP
 10
200.0000
 20
90.0000
 30
0.0000
 41
1.3500
 42
1.3500
 43
1.0000
 50
0.0000
  0
INSERT
  8
17
  2
ROUNDP
 10
200.0000
 20
90.0000
 30
0.0000
 41
1.3500
 42
1.3500
 43
1.0000
 50
0.0000
  0
INSERT
  8
17
  2
ROUNDP
 10
203.4300
 20
93.4300
 30
0.0000
 41
2.4000
 42
2.4000
 43
1.0000
 50
0.0000
  0
INSERT
  8
17
  2
ROUNDP
 10
203.4300
 20
93.4300
 30
0.0000
 41
2.4000
 42
2.4000
 43
1.0000
 50
0.0000
  0
INSERT
  8
17
  2
ROUNDP
 10
196.5700
 20
93.4300
 30
0.0000
 41
2.4000
 42
2.4000
 43
1.0000
 50
0.0000
  0
INSERT
  8
17
  2
ROUNDP
 10
196.5700
 20
93.4300
 30
0.0000
 41
2.4000
 42
2.4000
 43
1.0000
 50
0.0000
  0
INSERT
  8
17
  2
ROUNDP
 10
196.5700
 20
86.5700
 30
0.0000
 41
2.4000
 42
2.4000
 43
1.0000
 50
0.0000
  0
INSERT
  8
17
  2
ROUNDP
 10
196.5700
 20
86.5700
 30
0.0000
 41
2.4000
 42
2.4000
 43
1.0000
 50
0.0000
  0
INSERT
  8
17
  2
ROUNDP
 10
203.4300
 20
86.5700
 30
0.0000
 41
2.4000
 42
2.4000
 43
1.0000
 50
0.0000
  0
INSERT
  8
17
  2
ROUNDP
 10
203.4300
 20
86.5700
 30
0.0000
 41
2.4000
 42
2.4000
 43
1.0000
 50
0.0000
  0
INSERT
  8
17
  2
ROUNDP
 10
240.0000
 20
90.0000
 30
0.0000
 41
1.3500
 42
1.3500
 43
1.0000
 50
0.0000
  0
INSERT
  8
17
  2
ROUNDP
 10
240.0000
 20
90.0000
 30
0.0000
 41
1.3500
 42
1.3500
 43
1.0000
 50
0.0000
  0
INSERT
  8
17
  2
ROUNDP
 10
243.4300
 20
93.4300
 30
0.0000
 41
2.4000
 42
2.4000
 43
1.0000
 50
0.0000
  0
INSERT
  8
17
  2
ROUNDP
 10
243.4300
 20
93.4300
 30
0.0000
 41
2.4000
 42
2.4000
 43
1.0000
 50
0.0000
  0
INSERT
  8
17
  2
ROUNDP
 10
236.5700
 20
93.4300
 30
0.0000
 41
2.4000
 42
2.4000
 43
1.0000
 50
0.0000
  0
INSERT
  8
17
  2
ROUNDP
 10
236.5700
 20
93.4300
 30
0.0000
 41
2.4000
 42
2.4000
 43
1.0000
 50
0.0000
  0
INSERT
  8
17
  2
ROUNDP
 10
236.5700
 20
86.5700
 30
0.0000
 41
2.4000
 42
2.4000
 43
1.0000
 50
0.0000
  0
INSERT
  8
17
  2
ROUNDP
 10
236.5700
 20
86.5700
 30
0.0000
 41
2.4000
 42
2.4000
 43
1.0000
 50
0.0000
  0
INSERT
  8
17
  2
ROUNDP
 10
243.4300
 20
86.5700
 30
0.0000
 41
2.4000
 42
2.4000
 43
1.0000
 50
0.0000
  0
INSERT
  8
17
  2
ROUNDP
 10
243.4300
 20
86.5700
 30
0.0000
 41
2.4000
 42
2.4000
 43
1.0000
 50
0.0000
  0
INSERT
  8
17
  2
SQUAREP
 10
319.3000
 20
120.0000
 30
0.0000
 41
1.6500
 42
1.6500
 43
1.0000
 50
0.0000
  0
INSERT
  8
17
  2
SQUAREP
 10
319.3000
 20
120.0000
 30
0.0000
 41
1.6500
 42
1.6500
 43
1.0000
 50
0.0000
  0
INSERT
  8
17
  2
OCTAGONP
 10
321.8400
 20
120.0000
 30
0.0000
 41
1.6500
 42
1.6500
 43
1.0000
 50
0.0000
  0
INSERT
  8
17
  2
OCTAGONP
 10
321.8400
 20
120.0000
 30
0.0000
 41
1.6500
 42
1.6500
 43
1.0000
 50
0.0000
  0
INSERT
  8
17
  2
OCTAGONP
 10
324.3800
 20
120.0000
 30
0.0000
 41
1.6500
 42
1.6500
 43
1.0000
 50
0.0000
  0
INSERT
  8
17
  2
OCTAGONP
 10
324.3800
 20
120.0000
 30
0.0000
 41
1.6500
 42
1.6500
 43
1.0000
 50
0.0000
  0
INSERT
  8
17
  2
OCTAGONP
 10
326.9200
 20
120.0000
 30
0.0000
 41
1.6500
 42
1.6500
 43
1.0000
 50
0.0000
  0
INSERT
  8
17
  2
OCTAGONP
 10
326.9200
 20
120.0000
 30
0.0000
 41
1.6500
 42
1.6500
 43
1.0000
 50
0.0000
  0
INSERT
  8
17
  2
OCTAGONP
 10
329.4600
 20
120.0000
 30
0.0000
 41
1.6500
 42
1.6500
 43
1.0000
 50
0.0000
  0
INSERT
  8
17
  2
OCTAGONP
 10
329.4600
 20
120.0000
 30
0.0000
 41
1.6500
 42
1.6500
 43
1.0000
 50
0.0000
  0
INSERT
  8
17
  2
OCTAGONP
 10
332.0000
 20
120.0000
 30
0.0000
 41
1.6500
 42
1.6500
 43
1.0000
 50
0.0000
  0
INSERT
  8
17
  2
OCTAGONP
 10
332.0000
 20
120.0000
 30
0.0000
 41
1.6500
 42
1.6500
 43
1.0000
 50
0.0000
  0
INSERT
  8
17
  2
OCTAGONP
 10
334.5400
 20
120.0000
 30
0.0000
 41
1.6500
 42
1.6500
 43
1.0000
 50
0.0000
  0
INSERT
  8
17
  2
OCTAGONP
 10
334.5400
 20
120.0000
 30
0.0000
 41
1.6500
 42
1.6500
 43
1.0000
 50
0.0000
  0
INSERT
  8
17
  2
OCTAGONP
 10
337.0800
 20
120.0000
 30
0.0000
 41
1.6500
 42
1.6500
 43
1.0000
 50
0.0000
  0
INSERT
  8
17
  2
OCTAGONP
 10
337.0800
 20
120.0000
 30
0.0000
 41
1.6500
 42
1.6500
 43
1.0000
 50
0.0000
  0
INSERT
  8
17
  2
OCTAGONP
 10
319.3000
 20
125.0800
 30
0.0000
 41
1.6500
 42
1.6500
 43
1.0000
 50
0.0000
  0
INSERT
  8
17
  2
OCTAGONP
 10
319.3000
 20
125.0800
 30
0.0000
 41
1.6500
 42
1.6500
 43
1.0000
 50
0.0000
  0
INSERT
  8
17
  2
OCTAGONP
 10
321.8400
 20
125.0800
 30
0.0000
 41
1.6500
 42
1.6500
 43
1.0000
 50
0.0000
  0
INSERT
  8
17
  2
OCTAGONP
 10
321.8400
 20
125.0800
 30
0.0000
 41
1.6500
 42
1.6500
 43
1.0000
 50
0.0000
  0
INSERT
  8
17
  2
OCTAGONP
 10
324.3800
 20
125.0800
 30
0.0000
 41
1.6500
 42
1.6500
 43
1.0000
 50
0.0000
  0
INSERT
  8
17
  2
OCTAGONP
 10
324.3800
 20
125.0800
 30
0.0000
 41
1.6500
 42
1.6500
 43
1.0000
 50
0.0000
  0
INSERT
  8
17
  2
OCTAGONP
 10
326.9200
 20
125.0800
 30
0.0000
 41
1.6500
 42
1.6500
 43
1.0000
 50
0.0000
  0
INSERT
  8
17
  2
OCTAGONP
 10
326.9200
 20
125.0800
 30
0.0000
 41
1.6500
 42
1.6500
 43
1.0000
 50
0.0000
  0
INSERT
  8
17
  2
OCTAGONP
 10
329.4600
 20
125.0800
 30
0.0000
 41
1.6500
 42
1.6500
 43
1.0000
 50
0.0000
  0
INSERT
  8
17
  2
OCTAGONP
 10
329.4600
 20
125.0800
 30
0.0000
 41
1.6500
 42
1.6500
 43
1.0000
 50
0.0000
  0
INSERT
  8
17
  2
OCTAGONP
 10
332.0000
 20
125.0800
 30
0.0000
 41
1.6500
 42
1.6500
 43
1.0000
 50
0.0000
  0
INSERT
  8
17
  2
OCTAGONP
 10
332.0000
 20
125.0800
 30
0.0000
 41
1.6500
 42
1.6500
 43
1.0000
 50
0.0000
  0
INSERT
  8
17
  2
OCTAGONP
 10
334.5400
 20
125.0800
 30
0.0000
 41
1.6500
 42
1.6500
 43
1.0000
 50
0.0000
  0
INSERT
  8
17
  2
OCTAGONP
 10
334.5400
 20
125.0800
 30
0.0000
 41
1.6500
 42
1.6500
 43
1.0000
 50
0.0000
  0
INSERT
  8
17
  2
OCTAGONP
 10
337.0800
 20
125.0800
 30
0.0000
 41
1.6500
 42
1.6500
 43
1.0000
 50
0.0000
  0
INSERT
  8
17
  2
OCTAGONP
 10
337.0800
 20
125.0800
 30
0.0000
 41
1.6500
 42
1.6500
 43
1.0000
 50
0.0000
  0
INSERT
  8
17
  2
SQUAREP
 10
344.3000
 20
120.0000
 30
0.0000
 41
1.6500
 42
1.6500
 43
1.0000
 50
0.0000
  0
INSERT
  8
17
  2
SQUAREP
 10
344.3000
 20
120.0000
 30
0.0000
 41
1.6500
 42
1.6500
 43
1.0000
 50
0.0000
  0
INSERT
  8
17
  2
OCTAGONP
 10
346.8400
 20
120.0000
 30
0.0000
 41
1.6500
 42
1.6500
 43
1.0000
 50
0.0000
  0
INSERT
  8
17
  2
OCTAGONP
 10
346.8400
 20
120.0000
 30
0.0000
 41
1.6500
 42
1.6500
 43
1.0000
 50
0.0000
  0
INSERT
  8
17
  2
OCTAGONP
 10
349.3800
 20
120.0000
 30
0.0000
 41
1.6500
 42
1.6500
 43
1.0000
 50
0.0000
  0
INSERT
  8
17
  2
OCTAGONP
 10
349.3800
 20
120.0000
 30
0.0000
 41
1.6500
 42
1.6500
 43
1.0000
 50
0.0000
  0
INSERT
  8
17
  2
OCTAGONP
 10
351.9200
 20
120.0000
 30
0.0000
 41
1.6500
 42
1.6500
 43
1.0000
 50
0.0000
  0
INSERT
  8
17
  2
OCTAGONP
 10
351.9200
 20
120.0000
 30
0.0000
 41
1.6500
 42
1.6500
 43
1.0000
 50
0.0000
  0
INSERT
  8
17
  2
OCTAGONP
 10
354.4600
 20
120.0000
 30
0.0000
 41
1.6500
 42
1.6500
 43
1.0000
 50
0.0000
  0
INSERT
  8
17
  2
OCTAGONP
 10
354.4600
 20
120.0000
 30
0.0000
 41
1.6500
 42
1.6500
 43
1.0000
 50
0.0000
  0
INSERT
  8
17
  2
OCTAGONP
 10
357.0000
 20
120.0000
 30
0.0000
 41
1.6500
 42
1.6500
 43
1.0000
 50
0.0000
  0
INSERT
  8
17
  2
OCTAGONP
 10
357.0000
 20
120.0000
 30
0.0000
 41
1.6500
 42
1.6500
 43
1.0000
 50
0.0000
  0
INSERT
  8
17
  2
OCTAGONP
 10
359.5400
 20
120.0000
 30
0.0000
 41
1.6500
 42
1.6500
 43
1.0000
 50
0.0000
  0
INSERT
  8
17
  2
OCTAGONP
 10
359.5400
 20
120.0000
 30
0.0000
 41
1.6500
 42
1.6500
 43
1.0000
 50
0.0000
  0
INSERT
  8
17
  2
OCTAGONP
 10
362.0800
 20
120.0000
 30
0.0000
 41
1.6500
 42
1.6500
 43
1.0000
 50
0.0000
  0
INSERT
  8
17
  2
OCTAGONP
 10
362.0800
 20
120.0000
 30
0.0000
 41
1.6500
 42
1.6500
 43
1.0000
 50
0.0000
  0
INSERT
  8
17
  2
OCTAGONP
 10
344.3000
 20
125.0800
 30
0.0000
 41
1.6500
 42
1.6500
 43
1.0000
 50
0.0000
  0
INSERT
  8
17
  2
OCTAGONP
 10
344.3000
 20
125.0800
 30
0.0000
 41
1.6500
 42
1.6500
 43
1.0000
 50
0.0000
  0
INSERT
  8
17
  2
OCTAGONP
 10
346.8400
 20
125.0800
 30
0.0000
 41
1.6500
 42
1.6500
 43
1.0000
 50
0.0000
  0
INSERT
  8
17
  2
OCTAGONP
 10
346.8400
 20
125.0800
 30
0.0000
 41
1.6500
 42
1.6500
 43
1.0000
 50
0.0000
  0
INSERT
  8
17
  2
OCTAGONP
 10
349.3800
 20
125.0800
 30
0.0000
 41
1.6500
 42
1.6500
 43
1.0000
 50
0.0000
  0
INSERT
  8
17
  2
OCTAGONP
 10
349.3800
 20
125.0800
 30
0.0000
 41
1.6500
 42
1.6500
 43
1.0000
 50
0.0000
  0
INSERT
  8
17
  2
OCTAGONP
 10
351.9200
 20
125.0800
 30
0.0000
 41
1.6500
 42
1.6500
 43
1.0000
 50
0.0000
  0
INSERT
  8
17
  2
OCTAGONP
 10
351.9200
 20
125.0800
 30
0.0000
 41
1.6500
 42
1.6500
 43
1.0000
 50
0.0000
  0
INSERT
  8
17
  2
OCTAGONP
 10
354.4600
 20
125.0800
 30
0.0000
 41
1.6500
 42
1.6500
 43
1.0000
 50
0.0000
  0
INSERT
  8
17
  2
OCTAGONP
 10
354.4600
 20
125.0800
 30
0.0000
 41
1.6500
 42
1.6500
 43
1.0000
 50
0.0000
  0
INSERT
  8
17
  2
OCTAGONP
 10
357.0000
 20
125.0800
 30
0.0000
 41
1.6500
 42
1.6500
 43
1.0000
 50
0.0000
  0
INSERT
  8
17
  2
OCTAGONP
 10
357.0000
 20
125.0800
 30
0.0000
 41
1.6500
 42
1.6500
 43
1.0000
 50
0.0000
  0
INSERT
  8
17
  2
OCTAGONP
 10
359.5400
 20
125.0800
 30
0.0000
 41
1.6500
 42
1.6500
 43
1.0000
 50
0.0000
  0
INSERT
  8
17
  2
OCTAGONP
 10
359.5400
 20
125.0800
 30
0.0000
 41
1.6500
 42
1.6500
 43
1.0000
 50
0.0000
  0
INSERT
  8
17
  2
OCTAGONP
 10
362.0800
 20
125.0800
 30
0.0000
 41
1.6500
 42
1.6500
 43
1.0000
 50
0.0000
  0
INSERT
  8
17
  2
OCTAGONP
 10
362.0800
 20
125.0800
 30
0.0000
 41
1.6500
 42
1.6500
 43
1.0000
 50
0.0000
  0
INSERT
  8
17
  2
ROUNDP
 10
478.7300
 20
21.2700
 30
0.0000
 41
1.2000
 42
1.2000
 43
1.0000
 50
0.0000
  0
INSERT
  8
17
  2
ROUNDP
 10
478.7300
 20
21.2700
 30
0.0000
 41
1.2000
 42
1.2000
 43
1.0000
 50
0.0000
  0
INSERT
  8
17
  2
ROUNDP
 10
478.7300
 20
18.7300
 30
0.0000
 41
1.2000
 42
1.2000
 43
1.0000
 50
0.0000
  0
INSERT
  8
17
  2
ROUNDP
 10
478.7300
 20
18.7300
 30
0.0000
 41
1.2000
 42
1.2000
 43
1.0000
 50
0.0000
  0
INSERT
  8
17
  2
ROUNDP
 10
481.2700
 20
18.7300
 30
0.0000
 41
1.2000
 42
1.2000
 43
1.0000
 50
0.0000
  0
INSERT
  8
17
  2
ROUNDP
 10
481.2700
 20
18.7300
 30
0.0000
 41
1.2000
 42
1.2000
 43
1.0000
 50
0.0000
  0
INSERT
  8
17
  2
ROUNDP
 10
481.2700
 20
21.2700
 30
0.0000
 41
1.2000
 42
1.2000
 43
1.0000
 50
0.0000
  0
INSERT
  8
17
  2
ROUNDP
 10
481.2700
 20
21.2700
 30
0.0000
 41
1.2000
 42
1.2000
 43
1.0000
 50
0.0000
  0
INSERT
  8
17
  2
ROUNDP
 10
480.0000
 20
20.0000
 30
0.0000
 41
1.2000
 42
1.2000
 43
1.0000
 50
0.0000
  0
INSERT
  8
17
  2
ROUNDP
 10
480.0000
 20
20.0000
 30
0.0000
 41
1.2000
 42
1.2000
 43
1.0000
 50
0.0000
  0
INSERT
  8
17
  2
ROUNDP
 10
400.0000
 20
20.0000
 30
0.0000
 41
2.3622
 42
2.3622
 43
1.0000
 50
0.0000
  0
INSERT
  8
17
  2
ROUNDP
 10
400.0000
 20
20.0000
 30
0.0000
 41
2.3622
 42
2.3622
 43
1.0000
 50
0.0000
  0
INSERT
  8
17
  2
ROUNDP
 10
397.4600
 20
22.5400
 30
0.0000
 41
2.5527
 42
2.5527
 43
1.0000
 50
0.0000
  0
INSERT
  8
17
  2
ROUNDP
 10
397.4600
 20
22.5400
 30
0.0000
 41
2.5527
 42
2.5527
 43
1.0000
 50
0.0000
  0
INSERT
  8
17
  2
ROUNDP
 10
402.5400
 20
22.5400
 30
0.0000
 41
2.5527
 42
2.5527
 43
1.0000
 50
0.0000
  0
INSERT
  8
17
  2
ROUNDP
 10
402.5400
 20
22.5400
 30
0.0000
 41
2.5527
 42
2.5527
 43
1.0000
 50
0.0000
  0
INSERT
  8
17
  2
ROUNDP
 10
397.4600
 20
17.4600
 30
0.0000
 41
2.5527
 42
2.5527
 43
1.0000
 50
0.0000
  0
INSERT
  8
17
  2
ROUNDP
 10
397.4600
 20
17.4600
 30
0.0000
 41
2.5527
 42
2.5527
 43
1.0000
 50
0.0000
  0
INSERT
  8
17
  2
ROUNDP
 10
402.5400
 20
17.4600
 30
0.0000
 41
2.5527
 42
2.5527
 43
1.0000
 50
0.0000
  0
INSERT
  8
17
  2
ROUNDP
 10
402.5400
 20
17.4600
 30
0.0000
 41
2.5527
 42
2.5527
 43
1.0000
 50
0.0000
  0
INSERT
  8
17
  2
ROUNDP
 10
478.7300
 20
16.2700
 30
0.0000
 41
1.2000
 42
1.2000
 43
1.0000
 50
0.0000
  0
INSERT
  8
17
  2
ROUNDP
 10
478.7300
 20
16.2700
 30
0.0000
 41
1.2000
 42
1.2000
 43
1.0000
 50
0.0000
  0
INSERT
  8
17
  2
ROUNDP
 10
478.7300
 20
13.7300
 30
0.0000
 41
1.2000
 42
1.2000
 43
1.0000
 50
0.0000
  0
INSERT
  8
17
  2
ROUNDP
 10
478.7300
 20
13.7300
 30
0.0000
 41
1.2000
 42
1.2000
 43
1.0000
 50
0.0000
  0
INSERT
  8
17
  2
ROUNDP
 10
481.2700
 20
13.7300
 30
0.0000
 41
1.2000
 42
1.2000
 43
1.0000
 50
0.0000
  0
INSERT
  8
17
  2
ROUNDP
 10
481.2700
 20
13.7300
 30
0.0000
 41
1.2000
 42
1.2000
 43
1.0000
 50
0.0000
  0
INSERT
  8
17
  2
ROUNDP
 10
481.2700
 20
16.2700
 30
0.0000
 41
1.2000
 42
1.2000
 43
1.0000
 50
0.0000
  0
INSERT
  8
17
  2
ROUNDP
 10
481.2700
 20
16.2700
 30
0.0000
 41
1.2000
 42
1.2000
 43
1.0000
 50
0.0000
  0
INSERT
  8
17
  2
ROUNDP
 10
480.0000
 20
15.0000
 30
0.0000
 41
1.2000
 42
1.2000
 43
1.0000
 50
0.0000
  0
INSERT
  8
17
  2
ROUNDP
 10
480.0000
 20
15.0000
 30
0.0000
 41
1.2000
 42
1.2000
 43
1.0000
 50
0.0000
  0
INSERT
  8
17
  2
ROUNDP
 10
380.0000
 20
20.0000
 30
0.0000
 41
2.3622
 42
2.3622
 43
1.0000
 50
0.0000
  0
INSERT
  8
17
  2
ROUNDP
 10
380.0000
 20
20.0000
 30
0.0000
 41
2.3622
 42
2.3622
 43
1.0000
 50
0.0000
  0
INSERT
  8
17
  2
ROUNDP
 10
377.4600
 20
22.5400
 30
0.0000
 41
2.5527
 42
2.5527
 43
1.0000
 50
0.0000
  0
INSERT
  8
17
  2
ROUNDP
 10
377.4600
 20
22.5400
 30
0.0000
 41
2.5527
 42
2.5527
 43
1.0000
 50
0.0000
  0
INSERT
  8
17
  2
ROUNDP
 10
382.5400
 20
22.5400
 30
0.0000
 41
2.5527
 42
2.5527
 43
1.0000
 50
0.0000
  0
INSERT
  8
17
  2
ROUNDP
 10
382.5400
 20
22.5400
 30
0.0000
 41
2.5527
 42
2.5527
 43
1.0000
 50
0.0000
  0
INSERT
  8
17
  2
ROUNDP
 10
377.4600
 20
17.4600
 30
0.0000
 41
2.5527
 42
2.5527
 43
1.0000
 50
0.0000
  0
INSERT
  8
17
  2
ROUNDP
 10
377.4600
 20
17.4600
 30
0.0000
 41
2.5527
 42
2.5527
 43
1.0000
 50
0.0000
  0
INSERT
  8
17
  2
ROUNDP
 10
382.5400
 20
17.4600
 30
0.0000
 41
2.5527
 42
2.5527
 43
1.0000
 50
0.0000
  0
INSERT
  8
17
  2
ROUNDP
 10
382.5400
 20
17.4600
 30
0.0000
 41
2.5527
 42
2.5527
 43
1.0000
 50
0.0000
  0
INSERT
  8
17
  2
ROUNDP
 10
40.0000
 20
40.0000
 30
0.0000
 41
1.3500
 42
1.3500
 43
1.0000
 50
0.0000
  0
INSERT
  8
17
  2
ROUNDP
 10
40.0000
 20
40.0000
 30
0.0000
 41
1.3500
 42
1.3500
 43
1.0000
 50
0.0000
  0
INSERT
  8
17
  2
ROUNDP
 10
43.4300
 20
43.4300
 30
0.0000
 41
2.4000
 42
2.4000
 43
1.0000
 50
0.0000
  0
INSERT
  8
17
  2
ROUNDP
 10
43.4300
 20
43.4300
 30
0.0000
 41
2.4000
 42
2.4000
 43
1.0000
 50
0.0000
  0
INSERT
  8
17
  2
ROUNDP
 10
36.5700
 20
43.4300
 30
0.0000
 41
2.4000
 42
2.4000
 43
1.0000
 50
0.0000
  0
INSERT
  8
17
  2
ROUNDP
 10
36.5700
 20
43.4300
 30
0.0000
 41
2.4000
 42
2.4000
 43
1.0000
 50
0.0000
  0
INSERT
  8
17
  2
ROUNDP
 10
36.5700
 20
36.5700
 30
0.0000
 41
2.4000
 42
2.4000
 43
1.0000
 50
0.0000
  0
INSERT
  8
17
  2
ROUNDP
 10
36.5700
 20
36.5700
 30
0.0000
 41
2.4000
 42
2.4000
 43
1.0000
 50
0.0000
  0
INSERT
  8
17
  2
ROUNDP
 10
43.4300
 20
36.5700
 30
0.0000
 41
2.4000
 42
2.4000
 43
1.0000
 50
0.0000
  0
INSERT
  8
17
  2
ROUNDP
 10
43.4300
 20
36.5700
 30
0.0000
 41
2.4000
 42
2.4000
 43
1.0000
 50
0.0000
  0
INSERT
  8
17
  2
ROUNDP
 10
80.0000
 20
40.0000
 30
0.0000
 41
1.3500
 42
1.3500
 43
1.0000
 50
0.0000
  0
INSERT
  8
17
  2
ROUNDP
 10
80.0000
 20
40.0000
 30
0.0000
 41
1.3500
 42
1.3500
 43
1.0000
 50
0.0000
  0
INSERT
  8
17
  2
ROUNDP
 10
83.4300
 20
43.4300
 30
0.0000
 41
2.4000
 42
2.4000
 43
1.0000
 50
0.0000
  0
INSERT
  8
17
  2
ROUNDP
 10
83.4300
 20
43.4300
 30
0.0000
 41
2.4000
 42
2.4000
 43
1.0000
 50
0.0000
  0
INSERT
  8
17
  2
ROUNDP
 10
76.5700
 20
43.4300
 30
0.0000
 41
2.4000
 42
2.4000
 43
1.0000
 50
0.0000
  0
INSERT
  8
17
  2
ROUNDP
 10
76.5700
 20
43.4300
 30
0.0000
 41
2.4000
 42
2.4000
 43
1.0000
 50
0.0000
  0
INSERT
  8
17
  2
ROUNDP
 10
76.5700
 20
36.5700
 30
0.0000
 41
2.4000
 42
2.4000
 43
1.0000
 50
0.0000
  0
INSERT
  8
17
  2
ROUNDP
 10
76.5700
 20
36.5700
 30
0.0000
 41
2.4000
 42
2.4000
 43
1.0000
 50
0.0000
  0
INSERT
  8
17
  2
ROUNDP
 10
83.4300
 20
36.5700
 30
0.0000
 41
2.4000
 42
2.4000
 43
1.0000
 50
0.0000
  0
INSERT
  8
17
  2
ROUNDP
 10
83.4300
 20
36.5700
 30
0.0000
 41
2.4000
 42
2.4000
 43
1.0000
 50
0.0000
  0
INSERT
  8
17
  2
ROUNDP
 10
120.0000
 20
40.0000
 30
0.0000
 41
1.3500
 42
1.3500
 43
1.0000
 50
0.0000
  0
INSERT
  8
17
  2
ROUNDP
 10
120.0000
 20
40.0000
 30
0.0000
 41
1.3500
 42
1.3500
 43
1.0000
 50
0.0000
  0
INSERT
  8
17
  2
ROUNDP
 10
123.4300
 20
43.4300
 30
0.0000
 41
2.4000
 42
2.4000
 43
1.0000
 50
0.0000
  0
INSERT
  8
17
  2
ROUNDP
 10
123.4300
 20
43.4300
 30
0.0000
 41
2.4000
 42
2.4000
 43
1.0000
 50
0.0000
  0
INSERT
  8
17
  2
ROUNDP
 10
116.5700
 20
43.4300
 30
0.0000
 41
2.4000
 42
2.4000
 43
1.0000
 50
0.0000
  0
INSERT
  8
17
  2
ROUNDP
 10
116.5700
 20
43.4300
 30
0.0000
 41
2.4000
 42
2.4000
 43
1.0000
 50
0.0000
  0
INSERT
  8
17
  2
ROUNDP
 10
116.5700
 20
36.5700
 30
0.0000
 41
2.4000
 42
2.4000
 43
1.0000
 50
0.0000
  0
INSERT
  8
17
  2
ROUNDP
 10
116.5700
 20
36.5700
 30
0.0000
 41
2.4000
 42
2.4000
 43
1.0000
 50
0.0000
  0
INSERT
  8
17
  2
ROUNDP
 10
123.4300
 20
36.5700
 30
0.0000
 41
2.4000
 42
2.4000
 43
1.0000
 50
0.0000
  0
INSERT
  8
17
  2
ROUNDP
 10
123.4300
 20
36.5700
 30
0.0000
 41
2.4000
 42
2.4000
 43
1.0000
 50
0.0000
  0
INSERT
  8
17
  2
ROUNDP
 10
160.0000
 20
40.0000
 30
0.0000
 41
1.3500
 42
1.3500
 43
1.0000
 50
0.0000
  0
INSERT
  8
17
  2
ROUNDP
 10
160.0000
 20
40.0000
 30
0.0000
 41
1.3500
 42
1.3500
 43
1.0000
 50
0.0000
  0
INSERT
  8
17
  2
ROUNDP
 10
163.4300
 20
43.4300
 30
0.0000
 41
2.4000
 42
2.4000
 43
1.0000
 50
0.0000
  0
INSERT
  8
17
  2
ROUNDP
 10
163.4300
 20
43.4300
 30
0.0000
 41
2.4000
 42
2.4000
 43
1.0000
 50
0.0000
  0
INSERT
  8
17
  2
ROUNDP
 10
156.5700
 20
43.4300
 30
0.0000
 41
2.4000
 42
2.4000
 43
1.0000
 50
0.0000
  0
INSERT
  8
17
  2
ROUNDP
 10
156.5700
 20
43.4300
 30
0.0000
 41
2.4000
 42
2.4000
 43
1.0000
 50
0.0000
  0
INSERT
  8
17
  2
ROUNDP
 10
156.5700
 20
36.5700
 30
0.0000
 41
2.4000
 42
2.4000
 43
1.0000
 50
0.0000
  0
INSERT
  8
17
  2
ROUNDP
 10
156.5700
 20
36.5700
 30
0.0000
 41
2.4000
 42
2.4000
 43
1.0000
 50
0.0000
  0
INSERT
  8
17
  2
ROUNDP
 10
163.4300
 20
36.5700
 30
0.0000
 41
2.4000
 42
2.4000
 43
1.0000
 50
0.0000
  0
INSERT
  8
17
  2
ROUNDP
 10
163.4300
 20
36.5700
 30
0.0000
 41
2.4000
 42
2.4000
 43
1.0000
 50
0.0000
  0
INSERT
  8
17
  2
ROUNDP
 10
200.0000
 20
40.0000
 30
0.0000
 41
1.3500
 42
1.3500
 43
1.0000
 50
0.0000
  0
INSERT
  8
17
  2
ROUNDP
 10
200.0000
 20
40.0000
 30
0.0000
 41
1.3500
 42
1.3500
 43
1.0000
 50
0.0000
  0
INSERT
  8
17
  2
ROUNDP
 10
203.4300
 20
43.4300
 30
0.0000
 41
2.4000
 42
2.4000
 43
1.0000
 50
0.0000
  0
INSERT
  8
17
  2
ROUNDP
 10
203.4300
 20
43.4300
 30
0.0000
 41
2.4000
 42
2.4000
 43
1.0000
 50
0.0000
  0
INSERT
  8
17
  2
ROUNDP
 10
196.5700
 20
43.4300
 30
0.0000
 41
2.4000
 42
2.4000
 43
1.0000
 50
0.0000
  0
INSERT
  8
17
  2
ROUNDP
 10
196.5700
 20
43.4300
 30
0.0000
 41
2.4000
 42
2.4000
 43
1.0000
 50
0.0000
  0
INSERT
  8
17
  2
ROUNDP
 10
196.5700
 20
36.5700
 30
0.0000
 41
2.4000
 42
2.4000
 43
1.0000
 50
0.0000
  0
INSERT
  8
17
  2
ROUNDP
 10
196.5700
 20
36.5700
 30
0.0000
 41
2.4000
 42
2.4000
 43
1.0000
 50
0.0000
  0
INSERT
  8
17
  2
ROUNDP
 10
203.4300
 20
36.5700
 30
0.0000
 41
2.4000
 42
2.4000
 43
1.0000
 50
0.0000
  0
INSERT
  8
17
  2
ROUNDP
 10
203.4300
 20
36.5700
 30
0.0000
 41
2.4000
 42
2.4000
 43
1.0000
 50
0.0000
  0
INSERT
  8
17
  2
ROUNDP
 10
240.0000
 20
40.0000
 30
0.0000
 41
1.3500
 42
1.3500
 43
1.0000
 50
0.0000
  0
INSERT
  8
17
  2
ROUNDP
 10
240.0000
 20
40.0000
 30
0.0000
 41
1.3500
 42
1.3500
 43
1.0000
 50
0.0000
  0
INSERT
  8
17
  2
ROUNDP
 10
243.4300
 20
43.4300
 30
0.0000
 41
2.4000
 42
2.4000
 43
1.0000
 50
0.0000
  0
INSERT
  8
17
  2
ROUNDP
 10
243.4300
 20
43.4300
 30
0.0000
 41
2.4000
 42
2.4000
 43
1.0000
 50
0.0000
  0
INSERT
  8
17
  2
ROUNDP
 10
236.5700
 20
43.4300
 30
0.0000
 41
2.4000
 42
2.4000
 43
1.0000
 50
0.0000
  0
INSERT
  8
17
  2
ROUNDP
 10
236.5700
 20
43.4300
 30
0.0000
 41
2.4000
 42
2.4000
 43
1.0000
 50
0.0000
  0
INSERT
  8
17
  2
ROUNDP
 10
236.5700
 20
36.5700
 30
0.0000
 41
2.4000
 42
2.4000
 43
1.0000
 50
0.0000
  0
INSERT
  8
17
  2
ROUNDP
 10
236.5700
 20
36.5700
 30
0.0000
 41
2.4000
 42
2.4000
 43
1.0000
 50
0.0000
  0
INSERT
  8
17
  2
ROUNDP
 10
243.4300
 20
36.5700
 30
0.0000
 41
2.4000
 42
2.4000
 43
1.0000
 50
0.0000
  0
INSERT
  8
17
  2
ROUNDP
 10
243.4300
 20
36.5700
 30
0.0000
 41
2.4000
 42
2.4000
 43
1.0000
 50
0.0000
  0
INSERT
  8
17
  2
OCTAGONP
 10
285.0300
 20
118.8300
 30
0.0000
 41
1.6764
 42
1.6764
 43
1.0000
 50
0.0000
  0
INSERT
  8
17
  2
OCTAGONP
 10
285.0300
 20
118.8300
 30
0.0000
 41
1.6764
 42
1.6764
 43
1.0000
 50
0.0000
  0
INSERT
  8
17
  2
OCTAGONP
 10
285.0300
 20
121.3700
 30
0.0000
 41
1.6764
 42
1.6764
 43
1.0000
 50
0.0000
  0
INSERT
  8
17
  2
OCTAGONP
 10
285.0300
 20
121.3700
 30
0.0000
 41
1.6764
 42
1.6764
 43
1.0000
 50
0.0000
  0
INSERT
  8
17
  2
OCTAGONP
 10
287.5700
 20
118.8300
 30
0.0000
 41
1.6764
 42
1.6764
 43
1.0000
 50
0.0000
  0
INSERT
  8
17
  2
OCTAGONP
 10
287.5700
 20
118.8300
 30
0.0000
 41
1.6764
 42
1.6764
 43
1.0000
 50
0.0000
  0
INSERT
  8
17
  2
OCTAGONP
 10
287.5700
 20
121.3700
 30
0.0000
 41
1.6764
 42
1.6764
 43
1.0000
 50
0.0000
  0
INSERT
  8
17
  2
OCTAGONP
 10
287.5700
 20
121.3700
 30
0.0000
 41
1.6764
 42
1.6764
 43
1.0000
 50
0.0000
  0
INSERT
  8
17
  2
OCTAGONP
 10
290.1100
 20
118.8300
 30
0.0000
 41
1.6764
 42
1.6764
 43
1.0000
 50
0.0000
  0
INSERT
  8
17
  2
OCTAGONP
 10
290.1100
 20
118.8300
 30
0.0000
 41
1.6764
 42
1.6764
 43
1.0000
 50
0.0000
  0
INSERT
  8
17
  2
OCTAGONP
 10
290.1100
 20
121.3700
 30
0.0000
 41
1.6764
 42
1.6764
 43
1.0000
 50
0.0000
  0
INSERT
  8
17
  2
OCTAGONP
 10
290.1100
 20
121.3700
 30
0.0000
 41
1.6764
 42
1.6764
 43
1.0000
 50
0.0000
  0
INSERT
  8
17
  2
OCTAGONP
 10
292.6500
 20
118.8300
 30
0.0000
 41
1.6764
 42
1.6764
 43
1.0000
 50
0.0000
  0
INSERT
  8
17
  2
OCTAGONP
 10
292.6500
 20
118.8300
 30
0.0000
 41
1.6764
 42
1.6764
 43
1.0000
 50
0.0000
  0
INSERT
  8
17
  2
OCTAGONP
 10
292.6500
 20
121.3700
 30
0.0000
 41
1.6764
 42
1.6764
 43
1.0000
 50
0.0000
  0
INSERT
  8
17
  2
OCTAGONP
 10
292.6500
 20
121.3700
 30
0.0000
 41
1.6764
 42
1.6764
 43
1.0000
 50
0.0000
  0
INSERT
  8
17
  2
OCTAGONP
 10
295.1900
 20
118.8300
 30
0.0000
 41
1.6764
 42
1.6764
 43
1.0000
 50
0.0000
  0
INSERT
  8
17
  2
OCTAGONP
 10
295.1900
 20
118.8300
 30
0.0000
 41
1.6764
 42
1.6764
 43
1.0000
 50
0.0000
  0
INSERT
  8
17
  2
OCTAGONP
 10
295.1900
 20
121.3700
 30
0.0000
 41
1.6764
 42
1.6764
 43
1.0000
 50
0.0000
  0
INSERT
  8
17
  2
OCTAGONP
 10
295.1900
 20
121.3700
 30
0.0000
 41
1.6764
 42
1.6764
 43
1.0000
 50
0.0000
  0
INSERT
  8
17
  2
OCTAGONP
 10
297.7300
 20
118.8300
 30
0.0000
 41
1.6764
 42
1.6764
 43
1.0000
 50
0.0000
  0
INSERT
  8
17
  2
OCTAGONP
 10
297.7300
 20
118.8300
 30
0.0000
 41
1.6764
 42
1.6764
 43
1.0000
 50
0.0000
  0
INSERT
  8
17
  2
OCTAGONP
 10
297.7300
 20
121.3700
 30
0.0000
 41
1.6764
 42
1.6764
 43
1.0000
 50
0.0000
  0
INSERT
  8
17
  2
OCTAGONP
 10
297.7300
 20
121.3700
 30
0.0000
 41
1.6764
 42
1.6764
 43
1.0000
 50
0.0000
  0
INSERT
  8
17
  2
OCTAGONP
 10
300.2700
 20
118.8300
 30
0.0000
 41
1.6764
 42
1.6764
 43
1.0000
 50
0.0000
  0
INSERT
  8
17
  2
OCTAGONP
 10
300.2700
 20
118.8300
 30
0.0000
 41
1.6764
 42
1.6764
 43
1.0000
 50
0.0000
  0
INSERT
  8
17
  2
OCTAGONP
 10
300.2700
 20
121.3700
 30
0.0000
 41
1.6764
 42
1.6764
 43
1.0000
 50
0.0000
  0
INSERT
  8
17
  2
OCTAGONP
 10
300.2700
 20
121.3700
 30
0.0000
 41
1.6764
 42
1.6764
 43
1.0000
 50
0.0000
  0
INSERT
  8
17
  2
OCTAGONP
 10
302.8100
 20
118.8300
 30
0.0000
 41
1.6764
 42
1.6764
 43
1.0000
 50
0.0000
  0
INSERT
  8
17
  2
OCTAGONP
 10
302.8100
 20
118.8300
 30
0.0000
 41
1.6764
 42
1.6764
 43
1.0000
 50
0.0000
  0
INSERT
  8
17
  2
OCTAGONP
 10
302.8100
 20
121.3700
 30
0.0000
 41
1.6764
 42
1.6764
 43
1.0000
 50
0.0000
  0
INSERT
  8
17
  2
OCTAGONP
 10
302.8100
 20
121.3700
 30
0.0000
 41
1.6764
 42
1.6764
 43
1.0000
 50
0.0000
  0
INSERT
  8
17
  2
OCTAGONP
 10
305.3500
 20
118.8300
 30
0.0000
 41
1.6764
 42
1.6764
 43
1.0000
 50
0.0000
  0
INSERT
  8
17
  2
OCTAGONP
 10
305.3500
 20
118.8300
 30
0.0000
 41
1.6764
 42
1.6764
 43
1.0000
 50
0.0000
  0
INSERT
  8
17
  2
OCTAGONP
 10
305.3500
 20
121.3700
 30
0.0000
 41
1.6764
 42
1.6764
 43
1.0000
 50
0.0000
  0
INSERT
  8
17
  2
OCTAGONP
 10
305.3500
 20
121.3700
 30
0.0000
 41
1.6764
 42
1.6764
 43
1.0000
 50
0.0000
  0
INSERT
  8
17
  2
OCTAGONP
 10
307.8900
 20
118.8300
 30
0.0000
 41
1.6764
 42
1.6764
 43
1.0000
 50
0.0000
  0
INSERT
  8
17
  2
OCTAGONP
 10
307.8900
 20
118.8300
 30
0.0000
 41
1.6764
 42
1.6764
 43
1.0000
 50
0.0000
  0
INSERT
  8
17
  2
OCTAGONP
 10
307.8900
 20
121.3700
 30
0.0000
 41
1.6764
 42
1.6764
 43
1.0000
 50
0.0000
  0
INSERT
  8
17
  2
OCTAGONP
 10
307.8900
 20
121.3700
 30
0.0000
 41
1.6764
 42
1.6764
 43
1.0000
 50
0.0000
  0
INSERT
  8
17
  2
OCTAGONP
 10
310.4300
 20
118.8300
 30
0.0000
 41
1.6764
 42
1.6764
 43
1.0000
 50
0.0000
  0
INSERT
  8
17
  2
OCTAGONP
 10
310.4300
 20
118.8300
 30
0.0000
 41
1.6764
 42
1.6764
 43
1.0000
 50
0.0000
  0
INSERT
  8
17
  2
OCTAGONP
 10
310.4300
 20
121.3700
 30
0.0000
 41
1.6764
 42
1.6764
 43
1.0000
 50
0.0000
  0
INSERT
  8
17
  2
OCTAGONP
 10
310.4300
 20
121.3700
 30
0.0000
 41
1.6764
 42
1.6764
 43
1.0000
 50
0.0000
  0
INSERT
  8
17
  2
OCTAGONP
 10
312.9700
 20
118.8300
 30
0.0000
 41
1.6764
 42
1.6764
 43
1.0000
 50
0.0000
  0
INSERT
  8
17
  2
OCTAGONP
 10
312.9700
 20
118.8300
 30
0.0000
 41
1.6764
 42
1.6764
 43
1.0000
 50
0.0000
  0
INSERT
  8
17
  2
OCTAGONP
 10
312.9700
 20
121.3700
 30
0.0000
 41
1.6764
 42
1.6764
 43
1.0000
 50
0.0000
  0
INSERT
  8
17
  2
OCTAGONP
 10
312.9700
 20
121.3700
 30
0.0000
 41
1.6764
 42
1.6764
 43
1.0000
 50
0.0000
  0
INSERT
  8
17
  2
ROUNDP
 10
478.7300
 20
11.2700
 30
0.0000
 41
1.2000
 42
1.2000
 43
1.0000
 50
0.0000
  0
INSERT
  8
17
  2
ROUNDP
 10
478.7300
 20
11.2700
 30
0.0000
 41
1.2000
 42
1.2000
 43
1.0000
 50
0.0000
  0
INSERT
  8
17
  2
ROUNDP
 10
478.7300
 20
8.7300
 30
0.0000
 41
1.2000
 42
1.2000
 43
1.0000
 50
0.0000
  0
INSERT
  8
17
  2
ROUNDP
 10
478.7300
 20
8.7300
 30
0.0000
 41
1.2000
 42
1.2000
 43
1.0000
 50
0.0000
  0
INSERT
  8
17
  2
ROUNDP
 10
481.2700
 20
8.7300
 30
0.0000
 41
1.2000
 42
1.2000
 43
1.0000
 50
0.0000
  0
INSERT
  8
17
  2
ROUNDP
 10
481.2700
 20
8.7300
 30
0.0000
 41
1.2000
 42
1.2000
 43
1.0000
 50
0.0000
  0
INSERT
  8
17
  2
ROUNDP
 10
481.2700
 20
11.2700
 30
0.0000
 41
1.2000
 42
1.2000
 43
1.0000
 50
0.0000
  0
INSERT
  8
17
  2
ROUNDP
 10
481.2700
 20
11.2700
 30
0.0000
 41
1.2000
 42
1.2000
 43
1.0000
 50
0.0000
  0
INSERT
  8
17
  2
ROUNDP
 10
480.0000
 20
10.0000
 30
0.0000
 41
1.2000
 42
1.2000
 43
1.0000
 50
0.0000
  0
INSERT
  8
17
  2
ROUNDP
 10
480.0000
 20
10.0000
 30
0.0000
 41
1.2000
 42
1.2000
 43
1.0000
 50
0.0000
  0
INSERT
  8
17
  2
ROUNDP
 10
360.0000
 20
20.0000
 30
0.0000
 41
2.3622
 42
2.3622
 43
1.0000
 50
0.0000
  0
INSERT
  8
17
  2
ROUNDP
 10
360.0000
 20
20.0000
 30
0.0000
 41
2.3622
 42
2.3622
 43
1.0000
 50
0.0000
  0
INSERT
  8
17
  2
ROUNDP
 10
357.4600
 20
22.5400
 30
0.0000
 41
2.5527
 42
2.5527
 43
1.0000
 50
0.0000
  0
INSERT
  8
17
  2
ROUNDP
 10
357.4600
 20
22.5400
 30
0.0000
 41
2.5527
 42
2.5527
 43
1.0000
 50
0.0000
  0
INSERT
  8
17
  2
ROUNDP
 10
362.5400
 20
22.5400
 30
0.0000
 41
2.5527
 42
2.5527
 43
1.0000
 50
0.0000
  0
INSERT
  8
17
  2
ROUNDP
 10
362.5400
 20
22.5400
 30
0.0000
 41
2.5527
 42
2.5527
 43
1.0000
 50
0.0000
  0
INSERT
  8
17
  2
ROUNDP
 10
357.4600
 20
17.4600
 30
0.0000
 41
2.5527
 42
2.5527
 43
1.0000
 50
0.0000
  0
INSERT
  8
17
  2
ROUNDP
 10
357.4600
 20
17.4600
 30
0.0000
 41
2.5527
 42
2.5527
 43
1.0000
 50
0.0000
  0
INSERT
  8
17
  2
ROUNDP
 10
362.5400
 20
17.4600
 30
0.0000
 41
2.5527
 42
2.5527
 43
1.0000
 50
0.0000
  0
INSERT
  8
17
  2
ROUNDP
 10
362.5400
 20
17.4600
 30
0.0000
 41
2.5527
 42
2.5527
 43
1.0000
 50
0.0000
  0
CIRCLE
  8
20
 10
479.9000
 20
91.0000
 30
0.0000
 40
0.8000
  0
CIRCLE
  8
20
 10
472.9000
 20
91.0000
 30
0.0000
 40
0.8000
  0
INSERT
  8
17
  2
LONGP100
 10
400.9000
 20
109.2000
 30
0.0000
 41
1.3716
 42
1.3716
 43
1.0000
 50
180.0000
  0
INSERT
  8
17
  2
LONGP100
 10
400.9000
 20
109.2000
 30
0.0000
 41
1.3716
 42
1.3716
 43
1.0000
 50
180.0000
  0
INSERT
  8
17
  2
LONGP100
 10
400.9000
 20
111.7400
 30
0.0000
 41
1.3716
 42
1.3716
 43
1.0000
 50
180.0000
  0
INSERT
  8
17
  2
LONGP100
 10
400.9000
 20
111.7400
 30
0.0000
 41
1.3716
 42
1.3716
 43
1.0000
 50
180.0000
  0
INSERT
  8
17
  2
OCTAGONP
 10
451.2100
 20
118.8300
 30
0.0000
 41
1.6764
 42
1.6764
 43
1.0000
 50
0.0000
  0
INSERT
  8
17
  2
OCTAGONP
 10
451.2100
 20
118.8300
 30
0.0000
 41
1.6764
 42
1.6764
 43
1.0000
 50
0.0000
  0
INSERT
  8
17
  2
OCTAGONP
 10
451.2100
 20
121.3700
 30
0.0000
 41
1.6764
 42
1.6764
 43
1.0000
 50
0.0000
  0
INSERT
  8
17
  2
OCTAGONP
 10
451.2100
 20
121.3700
 30
0.0000
 41
1.6764
 42
1.6764
 43
1.0000
 50
0.0000
  0
INSERT
  8
17
  2
OCTAGONP
 10
453.7500
 20
118.8300
 30
0.0000
 41
1.6764
 42
1.6764
 43
1.0000
 50
0.0000
  0
INSERT
  8
17
  2
OCTAGONP
 10
453.7500
 20
118.8300
 30
0.0000
 41
1.6764
 42
1.6764
 43
1.0000
 50
0.0000
  0
INSERT
  8
17
  2
OCTAGONP
 10
453.7500
 20
121.3700
 30
0.0000
 41
1.6764
 42
1.6764
 43
1.0000
 50
0.0000
  0
INSERT
  8
17
  2
OCTAGONP
 10
453.7500
 20
121.3700
 30
0.0000
 41
1.6764
 42
1.6764
 43
1.0000
 50
0.0000
  0
INSERT
  8
17
  2
OCTAGONP
 10
456.2900
 20
118.8300
 30
0.0000
 41
1.6764
 42
1.6764
 43
1.0000
 50
0.0000
  0
INSERT
  8
17
  2
OCTAGONP
 10
456.2900
 20
118.8300
 30
0.0000
 41
1.6764
 42
1.6764
 43
1.0000
 50
0.0000
  0
INSERT
  8
17
  2
OCTAGONP
 10
456.2900
 20
121.3700
 30
0.0000
 41
1.6764
 42
1.6764
 43
1.0000
 50
0.0000
  0
INSERT
  8
17
  2
OCTAGONP
 10
456.2900
 20
121.3700
 30
0.0000
 41
1.6764
 42
1.6764
 43
1.0000
 50
0.0000
  0
INSERT
  8
17
  2
OCTAGONP
 10
458.8300
 20
118.8300
 30
0.0000
 41
1.6764
 42
1.6764
 43
1.0000
 50
0.0000
  0
INSERT
  8
17
  2
OCTAGONP
 10
458.8300
 20
118.8300
 30
0.0000
 41
1.6764
 42
1.6764
 43
1.0000
 50
0.0000
  0
INSERT
  8
17
  2
OCTAGONP
 10
458.8300
 20
121.3700
 30
0.0000
 41
1.6764
 42
1.6764
 43
1.0000
 50
0.0000
  0
INSERT
  8
17
  2
OCTAGONP
 10
458.8300
 20
121.3700
 30
0.0000
 41
1.6764
 42
1.6764
 43
1.0000
 50
0.0000
  0
INSERT
  8
17
  2
OCTAGONP
 10
461.3700
 20
118.8300
 30
0.0000
 41
1.6764
 42
1.6764
 43
1.0000
 50
0.0000
  0
INSERT
  8
17
  2
OCTAGONP
 10
461.3700
 20
118.8300
 30
0.0000
 41
1.6764
 42
1.6764
 43
1.0000
 50
0.0000
  0
INSERT
  8
17
  2
OCTAGONP
 10
461.3700
 20
121.3700
 30
0.0000
 41
1.6764
 42
1.6764
 43
1.0000
 50
0.0000
  0
INSERT
  8
17
  2
OCTAGONP
 10
461.3700
 20
121.3700
 30
0.0000
 41
1.6764
 42
1.6764
 43
1.0000
 50
0.0000
  0
INSERT
  8
17
  2
OCTAGONP
 10
463.9100
 20
118.8300
 30
0.0000
 41
1.6764
 42
1.6764
 43
1.0000
 50
0.0000
  0
INSERT
  8
17
  2
OCTAGONP
 10
463.9100
 20
118.8300
 30
0.0000
 41
1.6764
 42
1.6764
 43
1.0000
 50
0.0000
  0
INSERT
  8
17
  2
OCTAGONP
 10
463.9100
 20
121.3700
 30
0.0000
 41
1.6764
 42
1.6764
 43
1.0000
 50
0.0000
  0
INSERT
  8
17
  2
OCTAGONP
 10
463.9100
 20
121.3700
 30
0.0000
 41
1.6764
 42
1.6764
 43
1.0000
 50
0.0000
  0
INSERT
  8
17
  2
OCTAGONP
 10
466.4500
 20
118.8300
 30
0.0000
 41
1.6764
 42
1.6764
 43
1.0000
 50
0.0000
  0
INSERT
  8
17
  2
OCTAGONP
 10
466.4500
 20
118.8300
 30
0.0000
 41
1.6764
 42
1.6764
 43
1.0000
 50
0.0000
  0
INSERT
  8
17
  2
OCTAGONP
 10
466.4500
 20
121.3700
 30
0.0000
 41
1.6764
 42
1.6764
 43
1.0000
 50
0.0000
  0
INSERT
  8
17
  2
OCTAGONP
 10
466.4500
 20
121.3700
 30
0.0000
 41
1.6764
 42
1.6764
 43
1.0000
 50
0.0000
  0
INSERT
  8
17
  2
OCTAGONP
 10
468.9900
 20
118.8300
 30
0.0000
 41
1.6764
 42
1.6764
 43
1.0000
 50
0.0000
  0
INSERT
  8
17
  2
OCTAGONP
 10
468.9900
 20
118.8300
 30
0.0000
 41
1.6764
 42
1.6764
 43
1.0000
 50
0.0000
  0
INSERT
  8
17
  2
OCTAGONP
 10
468.9900
 20
121.3700
 30
0.0000
 41
1.6764
 42
1.6764
 43
1.0000
 50
0.0000
  0
INSERT
  8
17
  2
OCTAGONP
 10
468.9900
 20
121.3700
 30
0.0000
 41
1.6764
 42
1.6764
 43
1.0000
 50
0.0000
  0
CIRCLE
  8
20
 10
480.0000
 20
72.0000
 30
0.0000
 40
0.9000
  0
CIRCLE
  8
20
 10
480.0000
 20
58.0000
 30
0.0000
 40
0.9000
  0
CIRCLE
  8
20
 10
477.5000
 20
74.6000
 30
0.0000
 40
1.1500
  0
CIRCLE
  8
20
 10
477.5000
 20
55.4000
 30
0.0000
 40
1.1500
  0
INSERT
  8
17
  2
SQUAREP
 10
423.8000
 20
120.0000
 30
0.0000
 41
1.6500
 42
1.6500
 43
1.0000
 50
0.0000
  0
INSERT
  8
17
  2
SQUAREP
 10
423.8000
 20
120.0000
 30
0.0000
 41
1.6500
 42
1.6500
 43
1.0000
 50
0.0000
  0
INSERT
  8
17
  2
OCTAGONP
 10
426.3400
 20
120.0000
 30
0.0000
 41
1.6500
 42
1.6500
 43
1.0000
 50
0.0000
  0
INSERT
  8
17
  2
OCTAGONP
 10
426.3400
 20
120.0000
 30
0.0000
 41
1.6500
 42
1.6500
 43
1.0000
 50
0.0000
  0
INSERT
  8
17
  2
OCTAGONP
 10
428.8800
 20
120.0000
 30
0.0000
 41
1.6500
 42
1.6500
 43
1.0000
 50
0.0000
  0
INSERT
  8
17
  2
OCTAGONP
 10
428.8800
 20
120.0000
 30
0.0000
 41
1.6500
 42
1.6500
 43
1.0000
 50
0.0000
  0
INSERT
  8
17
  2
OCTAGONP
 10
431.4200
 20
120.0000
 30
0.0000
 41
1.6500
 42
1.6500
 43
1.0000
 50
0.0000
  0
INSERT
  8
17
  2
OCTAGONP
 10
431.4200
 20
120.0000
 30
0.0000
 41
1.6500
 42
1.6500
 43
1.0000
 50
0.0000
  0
INSERT
  8
17
  2
OCTAGONP
 10
433.9600
 20
120.0000
 30
0.0000
 41
1.6500
 42
1.6500
 43
1.0000
 50
0.0000
  0
INSERT
  8
17
  2
OCTAGONP
 10
433.9600
 20
120.0000
 30
0.0000
 41
1.6500
 42
1.6500
 43
1.0000
 50
0.0000
  0
INSERT
  8
17
  2
OCTAGONP
 10
436.5000
 20
120.0000
 30
0.0000
 41
1.6500
 42
1.6500
 43
1.0000
 50
0.0000
  0
INSERT
  8
17
  2
OCTAGONP
 10
436.5000
 20
120.0000
 30
0.0000
 41
1.6500
 42
1.6500
 43
1.0000
 50
0.0000
  0
INSERT
  8
17
  2
OCTAGONP
 10
439.0400
 20
120.0000
 30
0.0000
 41
1.6500
 42
1.6500
 43
1.0000
 50
0.0000
  0
INSERT
  8
17
  2
OCTAGONP
 10
439.0400
 20
120.0000
 30
0.0000
 41
1.6500
 42
1.6500
 43
1.0000
 50
0.0000
  0
INSERT
  8
17
  2
OCTAGONP
 10
441.5800
 20
120.0000
 30
0.0000
 41
1.6500
 42
1.6500
 43
1.0000
 50
0.0000
  0
INSERT
  8
17
  2
OCTAGONP
 10
441.5800
 20
120.0000
 30
0.0000
 41
1.6500
 42
1.6500
 43
1.0000
 50
0.0000
  0
INSERT
  8
17
  2
OCTAGONP
 10
444.1200
 20
120.0000
 30
0.0000
 41
1.6500
 42
1.6500
 43
1.0000
 50
0.0000
  0
INSERT
  8
17
  2
OCTAGONP
 10
444.1200
 20
120.0000
 30
0.0000
 41
1.6500
 42
1.6500
 43
1.0000
 50
0.0000
  0
INSERT
  8
17
  2
OCTAGONP
 10
423.8000
 20
125.0800
 30
0.0000
 41
1.6500
 42
1.6500
 43
1.0000
 50
0.0000
  0
INSERT
  8
17
  2
OCTAGONP
 10
423.8000
 20
125.0800
 30
0.0000
 41
1.6500
 42
1.6500
 43
1.0000
 50
0.0000
  0
INSERT
  8
17
  2
OCTAGONP
 10
426.3400
 20
125.0800
 30
0.0000
 41
1.6500
 42
1.6500
 43
1.0000
 50
0.0000
  0
INSERT
  8
17
  2
OCTAGONP
 10
426.3400
 20
125.0800
 30
0.0000
 41
1.6500
 42
1.6500
 43
1.0000
 50
0.0000
  0
INSERT
  8
17
  2
OCTAGONP
 10
428.8800
 20
125.0800
 30
0.0000
 41
1.6500
 42
1.6500
 43
1.0000
 50
0.0000
  0
INSERT
  8
17
  2
OCTAGONP
 10
428.8800
 20
125.0800
 30
0.0000
 41
1.6500
 42
1.6500
 43
1.0000
 50
0.0000
  0
INSERT
  8
17
  2
OCTAGONP
 10
431.4200
 20
125.0800
 30
0.0000
 41
1.6500
 42
1.6500
 43
1.0000
 50
0.0000
  0
INSERT
  8
17
  2
OCTAGONP
 10
431.4200
 20
125.0800
 30
0.0000
 41
1.6500
 42
1.6500
 43
1.0000
 50
0.0000
  0
INSERT
  8
17
  2
OCTAGONP
 10
433.9600
 20
125.0800
 30
0.0000
 41
1.6500
 42
1.6500
 43
1.0000
 50
0.0000
  0
INSERT
  8
17
  2
OCTAGONP
 10
433.9600
 20
125.0800
 30
0.0000
 41
1.6500
 42
1.6500
 43
1.0000
 50
0.0000
  0
INSERT
  8
17
  2
OCTAGONP
 10
436.5000
 20
125.0800
 30
0.0000
 41
1.6500
 42
1.6500
 43
1.0000
 50
0.0000
  0
INSERT
  8
17
  2
OCTAGONP
 10
436.5000
 20
125.0800
 30
0.0000
 41
1.6500
 42
1.6500
 43
1.0000
 50
0.0000
  0
INSERT
  8
17
  2
OCTAGONP
 10
439.0400
 20
125.0800
 30
0.0000
 41
1.6500
 42
1.6500
 43
1.0000
 50
0.0000
  0
INSERT
  8
17
  2
OCTAGONP
 10
439.0400
 20
125.0800
 30
0.0000
 41
1.6500
 42
1.6500
 43
1.0000
 50
0.0000
  0
INSERT
  8
17
  2
OCTAGONP
 10
441.5800
 20
125.0800
 30
0.0000
 41
1.6500
 42
1.6500
 43
1.0000
 50
0.0000
  0
INSERT
  8
17
  2
OCTAGONP
 10
441.5800
 20
125.0800
 30
0.0000
 41
1.6500
 42
1.6500
 43
1.0000
 50
0.0000
  0
INSERT
  8
17
  2
OCTAGONP
 10
444.1200
 20
125.0800
 30
0.0000
 41
1.6500
 42
1.6500
 43
1.0000
 50
0.0000
  0
INSERT
  8
17
  2
OCTAGONP
 10
444.1200
 20
125.0800
 30
0.0000
 41
1.6500
 42
1.6500
 43
1.0000
 50
0.0000
  0
INSERT
  8
17
  2
OCTAGONP
 10
372.0100
 20
118.8300
 30
0.0000
 41
1.6764
 42
1.6764
 43
1.0000
 50
0.0000
  0
INSERT
  8
17
  2
OCTAGONP
 10
372.0100
 20
118.8300
 30
0.0000
 41
1.6764
 42
1.6764
 43
1.0000
 50
0.0000
  0
INSERT
  8
17
  2
OCTAGONP
 10
372.0100
 20
121.3700
 30
0.0000
 41
1.6764
 42
1.6764
 43
1.0000
 50
0.0000
  0
INSERT
  8
17
  2
OCTAGONP
 10
372.0100
 20
121.3700
 30
0.0000
 41
1.6764
 42
1.6764
 43
1.0000
 50
0.0000
  0
INSERT
  8
17
  2
OCTAGONP
 10
374.5500
 20
118.8300
 30
0.0000
 41
1.6764
 42
1.6764
 43
1.0000
 50
0.0000
  0
INSERT
  8
17
  2
OCTAGONP
 10
374.5500
 20
118.8300
 30
0.0000
 41
1.6764
 42
1.6764
 43
1.0000
 50
0.0000
  0
INSERT
  8
17
  2
OCTAGONP
 10
374.5500
 20
121.3700
 30
0.0000
 41
1.6764
 42
1.6764
 43
1.0000
 50
0.0000
  0
INSERT
  8
17
  2
OCTAGONP
 10
374.5500
 20
121.3700
 30
0.0000
 41
1.6764
 42
1.6764
 43
1.0000
 50
0.0000
  0
INSERT
  8
17
  2
OCTAGONP
 10
377.0900
 20
118.8300
 30
0.0000
 41
1.6764
 42
1.6764
 43
1.0000
 50
0.0000
  0
INSERT
  8
17
  2
OCTAGONP
 10
377.0900
 20
118.8300
 30
0.0000
 41
1.6764
 42
1.6764
 43
1.0000
 50
0.0000
  0
INSERT
  8
17
  2
OCTAGONP
 10
377.0900
 20
121.3700
 30
0.0000
 41
1.6764
 42
1.6764
 43
1.0000
 50
0.0000
  0
INSERT
  8
17
  2
OCTAGONP
 10
377.0900
 20
121.3700
 30
0.0000
 41
1.6764
 42
1.6764
 43
1.0000
 50
0.0000
  0
INSERT
  8
17
  2
OCTAGONP
 10
379.6300
 20
118.8300
 30
0.0000
 41
1.6764
 42
1.6764
 43
1.0000
 50
0.0000
  0
INSERT
  8
17
  2
OCTAGONP
 10
379.6300
 20
118.8300
 30
0.0000
 41
1.6764
 42
1.6764
 43
1.0000
 50
0.0000
  0
INSERT
  8
17
  2
OCTAGONP
 10
379.6300
 20
121.3700
 30
0.0000
 41
1.6764
 42
1.6764
 43
1.0000
 50
0.0000
  0
INSERT
  8
17
  2
OCTAGONP
 10
379.6300
 20
121.3700
 30
0.0000
 41
1.6764
 42
1.6764
 43
1.0000
 50
0.0000
  0
INSERT
  8
17
  2
OCTAGONP
 10
382.1700
 20
118.8300
 30
0.0000
 41
1.6764
 42
1.6764
 43
1.0000
 50
0.0000
  0
INSERT
  8
17
  2
OCTAGONP
 10
382.1700
 20
118.8300
 30
0.0000
 41
1.6764
 42
1.6764
 43
1.0000
 50
0.0000
  0
INSERT
  8
17
  2
OCTAGONP
 10
382.1700
 20
121.3700
 30
0.0000
 41
1.6764
 42
1.6764
 43
1.0000
 50
0.0000
  0
INSERT
  8
17
  2
OCTAGONP
 10
382.1700
 20
121.3700
 30
0.0000
 41
1.6764
 42
1.6764
 43
1.0000
 50
0.0000
  0
INSERT
  8
17
  2
OCTAGONP
 10
384.7100
 20
118.8300
 30
0.0000
 41
1.6764
 42
1.6764
 43
1.0000
 50
0.0000
  0
INSERT
  8
17
  2
OCTAGONP
 10
384.7100
 20
118.8300
 30
0.0000
 41
1.6764
 42
1.6764
 43
1.0000
 50
0.0000
  0
INSERT
  8
17
  2
OCTAGONP
 10
384.7100
 20
121.3700
 30
0.0000
 41
1.6764
 42
1.6764
 43
1.0000
 50
0.0000
  0
INSERT
  8
17
  2
OCTAGONP
 10
384.7100
 20
121.3700
 30
0.0000
 41
1.6764
 42
1.6764
 43
1.0000
 50
0.0000
  0
INSERT
  8
17
  2
OCTAGONP
 10
387.2500
 20
118.8300
 30
0.0000
 41
1.6764
 42
1.6764
 43
1.0000
 50
0.0000
  0
INSERT
  8
17
  2
OCTAGONP
 10
387.2500
 20
118.8300
 30
0.0000
 41
1.6764
 42
1.6764
 43
1.0000
 50
0.0000
  0
INSERT
  8
17
  2
OCTAGONP
 10
387.2500
 20
121.3700
 30
0.0000
 41
1.6764
 42
1.6764
 43
1.0000
 50
0.0000
  0
INSERT
  8
17
  2
OCTAGONP
 10
387.2500
 20
121.3700
 30
0.0000
 41
1.6764
 42
1.6764
 43
1.0000
 50
0.0000
  0
INSERT
  8
17
  2
OCTAGONP
 10
389.7900
 20
118.8300
 30
0.0000
 41
1.6764
 42
1.6764
 43
1.0000
 50
0.0000
  0
INSERT
  8
17
  2
OCTAGONP
 10
389.7900
 20
118.8300
 30
0.0000
 41
1.6764
 42
1.6764
 43
1.0000
 50
0.0000
  0
INSERT
  8
17
  2
OCTAGONP
 10
389.7900
 20
121.3700
 30
0.0000
 41
1.6764
 42
1.6764
 43
1.0000
 50
0.0000
  0
INSERT
  8
17
  2
OCTAGONP
 10
389.7900
 20
121.3700
 30
0.0000
 41
1.6764
 42
1.6764
 43
1.0000
 50
0.0000
  0
INSERT
  8
17
  2
SQUAREP
 10
393.8000
 20
120.0000
 30
0.0000
 41
1.6500
 42
1.6500
 43
1.0000
 50
0.0000
  0
INSERT
  8
17
  2
SQUAREP
 10
393.8000
 20
120.0000
 30
0.0000
 41
1.6500
 42
1.6500
 43
1.0000
 50
0.0000
  0
INSERT
  8
17
  2
OCTAGONP
 10
396.3400
 20
120.0000
 30
0.0000
 41
1.6500
 42
1.6500
 43
1.0000
 50
0.0000
  0
INSERT
  8
17
  2
OCTAGONP
 10
396.3400
 20
120.0000
 30
0.0000
 41
1.6500
 42
1.6500
 43
1.0000
 50
0.0000
  0
INSERT
  8
17
  2
OCTAGONP
 10
398.8800
 20
120.0000
 30
0.0000
 41
1.6500
 42
1.6500
 43
1.0000
 50
0.0000
  0
INSERT
  8
17
  2
OCTAGONP
 10
398.8800
 20
120.0000
 30
0.0000
 41
1.6500
 42
1.6500
 43
1.0000
 50
0.0000
  0
INSERT
  8
17
  2
OCTAGONP
 10
401.4200
 20
120.0000
 30
0.0000
 41
1.6500
 42
1.6500
 43
1.0000
 50
0.0000
  0
INSERT
  8
17
  2
OCTAGONP
 10
401.4200
 20
120.0000
 30
0.0000
 41
1.6500
 42
1.6500
 43
1.0000
 50
0.0000
  0
INSERT
  8
17
  2
OCTAGONP
 10
403.9600
 20
120.0000
 30
0.0000
 41
1.6500
 42
1.6500
 43
1.0000
 50
0.0000
  0
INSERT
  8
17
  2
OCTAGONP
 10
403.9600
 20
120.0000
 30
0.0000
 41
1.6500
 42
1.6500
 43
1.0000
 50
0.0000
  0
INSERT
  8
17
  2
OCTAGONP
 10
406.5000
 20
120.0000
 30
0.0000
 41
1.6500
 42
1.6500
 43
1.0000
 50
0.0000
  0
INSERT
  8
17
  2
OCTAGONP
 10
406.5000
 20
120.0000
 30
0.0000
 41
1.6500
 42
1.6500
 43
1.0000
 50
0.0000
  0
INSERT
  8
17
  2
OCTAGONP
 10
409.0400
 20
120.0000
 30
0.0000
 41
1.6500
 42
1.6500
 43
1.0000
 50
0.0000
  0
INSERT
  8
17
  2
OCTAGONP
 10
409.0400
 20
120.0000
 30
0.0000
 41
1.6500
 42
1.6500
 43
1.0000
 50
0.0000
  0
INSERT
  8
17
  2
OCTAGONP
 10
411.5800
 20
120.0000
 30
0.0000
 41
1.6500
 42
1.6500
 43
1.0000
 50
0.0000
  0
INSERT
  8
17
  2
OCTAGONP
 10
411.5800
 20
120.0000
 30
0.0000
 41
1.6500
 42
1.6500
 43
1.0000
 50
0.0000
  0
INSERT
  8
17
  2
OCTAGONP
 10
414.1200
 20
120.0000
 30
0.0000
 41
1.6500
 42
1.6500
 43
1.0000
 50
0.0000
  0
INSERT
  8
17
  2
OCTAGONP
 10
414.1200
 20
120.0000
 30
0.0000
 41
1.6500
 42
1.6500
 43
1.0000
 50
0.0000
  0
INSERT
  8
17
  2
OCTAGONP
 10
393.8000
 20
125.0800
 30
0.0000
 41
1.6500
 42
1.6500
 43
1.0000
 50
0.0000
  0
INSERT
  8
17
  2
OCTAGONP
 10
393.8000
 20
125.0800
 30
0.0000
 41
1.6500
 42
1.6500
 43
1.0000
 50
0.0000
  0
INSERT
  8
17
  2
OCTAGONP
 10
396.3400
 20
125.0800
 30
0.0000
 41
1.6500
 42
1.6500
 43
1.0000
 50
0.0000
  0
INSERT
  8
17
  2
OCTAGONP
 10
396.3400
 20
125.0800
 30
0.0000
 41
1.6500
 42
1.6500
 43
1.0000
 50
0.0000
  0
INSERT
  8
17
  2
OCTAGONP
 10
398.8800
 20
125.0800
 30
0.0000
 41
1.6500
 42
1.6500
 43
1.0000
 50
0.0000
  0
INSERT
  8
17
  2
OCTAGONP
 10
398.8800
 20
125.0800
 30
0.0000
 41
1.6500
 42
1.6500
 43
1.0000
 50
0.0000
  0
INSERT
  8
17
  2
OCTAGONP
 10
401.4200
 20
125.0800
 30
0.0000
 41
1.6500
 42
1.6500
 43
1.0000
 50
0.0000
  0
INSERT
  8
17
  2
OCTAGONP
 10
401.4200
 20
125.0800
 30
0.0000
 41
1.6500
 42
1.6500
 43
1.0000
 50
0.0000
  0
INSERT
  8
17
  2
OCTAGONP
 10
403.9600
 20
125.0800
 30
0.0000
 41
1.6500
 42
1.6500
 43
1.0000
 50
0.0000
  0
INSERT
  8
17
  2
OCTAGONP
 10
403.9600
 20
125.0800
 30
0.0000
 41
1.6500
 42
1.6500
 43
1.0000
 50
0.0000
  0
INSERT
  8
17
  2
OCTAGONP
 10
406.5000
 20
125.0800
 30
0.0000
 41
1.6500
 42
1.6500
 43
1.0000
 50
0.0000
  0
INSERT
  8
17
  2
OCTAGONP
 10
406.5000
 20
125.0800
 30
0.0000
 41
1.6500
 42
1.6500
 43
1.0000
 50
0.0000
  0
INSERT
  8
17
  2
OCTAGONP
 10
409.0400
 20
125.0800
 30
0.0000
 41
1.6500
 42
1.6500
 43
1.0000
 50
0.0000
  0
INSERT
  8
17
  2
OCTAGONP
 10
409.0400
 20
125.0800
 30
0.0000
 41
1.6500
 42
1.6500
 43
1.0000
 50
0.0000
  0
INSERT
  8
17
  2
OCTAGONP
 10
411.5800
 20
125.0800
 30
0.0000
 41
1.6500
 42
1.6500
 43
1.0000
 50
0.0000
  0
INSERT
  8
17
  2
OCTAGONP
 10
411.5800
 20
125.0800
 30
0.0000
 41
1.6500
 42
1.6500
 43
1.0000
 50
0.0000
  0
INSERT
  8
17
  2
OCTAGONP
 10
414.1200
 20
125.0800
 30
0.0000
 41
1.6500
 42
1.6500
 43
1.0000
 50
0.0000
  0
INSERT
  8
17
  2
OCTAGONP
 10
414.1200
 20
125.0800
 30
0.0000
 41
1.6500
 42
1.6500
 43
1.0000
 50
0.0000
  0
INSERT
  8
17
  2
LONGP100
 10
324.7000
 20
24.5000
 30
0.0000
 41
2.7750
 42
2.7750
 43
1.0000
 50
270.0000
  0
INSERT
  8
17
  2
LONGP100
 10
324.7000
 20
24.5000
 30
0.0000
 41
2.7750
 42
2.7750
 43
1.0000
 50
270.0000
  0
INSERT
  8
17
  2
LONGP100
 10
329.4000
 20
24.5000
 30
0.0000
 41
2.7750
 42
2.7750
 43
1.0000
 50
270.0000
  0
INSERT
  8
17
  2
LONGP100
 10
329.4000
 20
24.5000
 30
0.0000
 41
2.7750
 42
2.7750
 43
1.0000
 50
270.0000
  0
INSERT
  8
17
  2
LONGP100
 10
320.0000
 20
24.5000
 30
0.0000
 41
2.7750
 42
2.7750
 43
1.0000
 50
270.0000
  0
INSERT
  8
17
  2
LONGP100
 10
320.0000
 20
24.5000
 30
0.0000
 41
2.7750
 42
2.7750
 43
1.0000
 50
270.0000
  0
INSERT
  8
17
  2
ROUNDP
 10
332.5750
 20
26.0900
 30
0.0000
 41
2.7750
 42
2.7750
 43
1.0000
 50
270.0000
  0
INSERT
  8
17
  2
ROUNDP
 10
332.5750
 20
26.0900
 30
0.0000
 41
2.7750
 42
2.7750
 43
1.0000
 50
270.0000
  0
INSERT
  8
17
  2
ROUNDP
 10
332.5750
 20
22.9100
 30
0.0000
 41
2.7750
 42
2.7750
 43
1.0000
 50
270.0000
  0
INSERT
  8
17
  2
ROUNDP
 10
332.5750
 20
22.9100
 30
0.0000
 41
2.7750
 42
2.7750
 43
1.0000
 50
270.0000
  0
INSERT
  8
17
  2
ROUNDP
 10
316.8250
 20
26.0900
 30
0.0000
 41
2.7750
 42
2.7750
 43
1.0000
 50
270.0000
  0
INSERT
  8
17
  2
ROUNDP
 10
316.8250
 20
26.0900
 30
0.0000
 41
2.7750
 42
2.7750
 43
1.0000
 50
270.0000
  0
INSERT
  8
17
  2
ROUNDP
 10
316.8250
 20
22.9100
 30
0.0000
 41
2.7750
 42
2.7750
 43
1.0000
 50
270.0000
  0
INSERT
  8
17
  2
ROUNDP
 10
316.8250
 20
22.9100
 30
0.0000
 41
2.7750
 42
2.7750
 43
1.0000
 50
270.0000
  0
INSERT
  8
17
  2
LONGP100
 10
324.7000
 20
49.5000
 30
0.0000
 41
2.7750
 42
2.7750
 43
1.0000
 50
270.0000
  0
INSERT
  8
17
  2
LONGP100
 10
324.7000
 20
49.5000
 30
0.0000
 41
2.7750
 42
2.7750
 43
1.0000
 50
270.0000
  0
INSERT
  8
17
  2
LONGP100
 10
329.4000
 20
49.5000
 30
0.0000
 41
2.7750
 42
2.7750
 43
1.0000
 50
270.0000
  0
INSERT
  8
17
  2
LONGP100
 10
329.4000
 20
49.5000
 30
0.0000
 41
2.7750
 42
2.7750
 43
1.0000
 50
270.0000
  0
INSERT
  8
17
  2
LONGP100
 10
320.0000
 20
49.5000
 30
0.0000
 41
2.7750
 42
2.7750
 43
1.0000
 50
270.0000
  0
INSERT
  8
17
  2
LONGP100
 10
320.0000
 20
49.5000
 30
0.0000
 41
2.7750
 42
2.7750
 43
1.0000
 50
270.0000
  0
INSERT
  8
17
  2
ROUNDP
 10
332.5750
 20
51.0900
 30
0.0000
 41
2.7750
 42
2.7750
 43
1.0000
 50
270.0000
  0
INSERT
  8
17
  2
ROUNDP
 10
332.5750
 20
51.0900
 30
0.0000
 41
2.7750
 42
2.7750
 43
1.0000
 50
270.0000
  0
INSERT
  8
17
  2
ROUNDP
 10
332.5750
 20
47.9100
 30
0.0000
 41
2.7750
 42
2.7750
 43
1.0000
 50
270.0000
  0
INSERT
  8
17
  2
ROUNDP
 10
332.5750
 20
47.9100
 30
0.0000
 41
2.7750
 42
2.7750
 43
1.0000
 50
270.0000
  0
INSERT
  8
17
  2
ROUNDP
 10
316.8250
 20
51.0900
 30
0.0000
 41
2.7750
 42
2.7750
 43
1.0000
 50
270.0000
  0
INSERT
  8
17
  2
ROUNDP
 10
316.8250
 20
51.0900
 30
0.0000
 41
2.7750
 42
2.7750
 43
1.0000
 50
270.0000
  0
INSERT
  8
17
  2
ROUNDP
 10
316.8250
 20
47.9100
 30
0.0000
 41
2.7750
 42
2.7750
 43
1.0000
 50
270.0000
  0
INSERT
  8
17
  2
ROUNDP
 10
316.8250
 20
47.9100
 30
0.0000
 41
2.7750
 42
2.7750
 43
1.0000
 50
270.0000
  0
INSERT
  8
17
  2
LONGP100
 10
324.7000
 20
74.5000
 30
0.0000
 41
2.7750
 42
2.7750
 43
1.0000
 50
270.0000
  0
INSERT
  8
17
  2
LONGP100
 10
324.7000
 20
74.5000
 30
0.0000
 41
2.7750
 42
2.7750
 43
1.0000
 50
270.0000
  0
INSERT
  8
17
  2
LONGP100
 10
329.4000
 20
74.5000
 30
0.0000
 41
2.7750
 42
2.7750
 43
1.0000
 50
270.0000
  0
INSERT
  8
17
  2
LONGP100
 10
329.4000
 20
74.5000
 30
0.0000
 41
2.7750
 42
2.7750
 43
1.0000
 50
270.0000
  0
INSERT
  8
17
  2
LONGP100
 10
320.0000
 20
74.5000
 30
0.0000
 41
2.7750
 42
2.7750
 43
1.0000
 50
270.0000
  0
INSERT
  8
17
  2
LONGP100
 10
320.0000
 20
74.5000
 30
0.0000
 41
2.7750
 42
2.7750
 43
1.0000
 50
270.0000
  0
INSERT
  8
17
  2
ROUNDP
 10
332.5750
 20
76.0900
 30
0.0000
 41
2.7750
 42
2.7750
 43
1.0000
 50
270.0000
  0
INSERT
  8
17
  2
ROUNDP
 10
332.5750
 20
76.0900
 30
0.0000
 41
2.7750
 42
2.7750
 43
1.0000
 50
270.0000
  0
INSERT
  8
17
  2
ROUNDP
 10
332.5750
 20
72.9100
 30
0.0000
 41
2.7750
 42
2.7750
 43
1.0000
 50
270.0000
  0
INSERT
  8
17
  2
ROUNDP
 10
332.5750
 20
72.9100
 30
0.0000
 41
2.7750
 42
2.7750
 43
1.0000
 50
270.0000
  0
INSERT
  8
17
  2
ROUNDP
 10
316.8250
 20
76.0900
 30
0.0000
 41
2.7750
 42
2.7750
 43
1.0000
 50
270.0000
  0
INSERT
  8
17
  2
ROUNDP
 10
316.8250
 20
76.0900
 30
0.0000
 41
2.7750
 42
2.7750
 43
1.0000
 50
270.0000
  0
INSERT
  8
17
  2
ROUNDP
 10
316.8250
 20
72.9100
 30
0.0000
 41
2.7750
 42
2.7750
 43
1.0000
 50
270.0000
  0
INSERT
  8
17
  2
ROUNDP
 10
316.8250
 20
72.9100
 30
0.0000
 41
2.7750
 42
2.7750
 43
1.0000
 50
270.0000
  0
INSERT
  8
17
  2
LONGP100
 10
324.7000
 20
99.5000
 30
0.0000
 41
2.7750
 42
2.7750
 43
1.0000
 50
270.0000
  0
INSERT
  8
17
  2
LONGP100
 10
324.7000
 20
99.5000
 30
0.0000
 41
2.7750
 42
2.7750
 43
1.0000
 50
270.0000
  0
INSERT
  8
17
  2
LONGP100
 10
329.4000
 20
99.5000
 30
0.0000
 41
2.7750
 42
2.7750
 43
1.0000
 50
270.0000
  0
INSERT
  8
17
  2
LONGP100
 10
329.4000
 20
99.5000
 30
0.0000
 41
2.7750
 42
2.7750
 43
1.0000
 50
270.0000
  0
INSERT
  8
17
  2
LONGP100
 10
320.0000
 20
99.5000
 30
0.0000
 41
2.7750
 42
2.7750
 43
1.0000
 50
270.0000
  0
INSERT
  8
17
  2
LONGP100
 10
320.0000
 20
99.5000
 30
0.0000
 41
2.7750
 42
2.7750
 43
1.0000
 50
270.0000
  0
INSERT
  8
17
  2
ROUNDP
 10
332.5750
 20
101.0900
 30
0.0000
 41
2.7750
 42
2.7750
 43
1.0000
 50
270.0000
  0
INSERT
  8
17
  2
ROUNDP
 10
332.5750
 20
101.0900
 30
0.0000
 41
2.7750
 42
2.7750
 43
1.0000
 50
270.0000
  0
INSERT
  8
17
  2
ROUNDP
 10
332.5750
 20
97.9100
 30
0.0000
 41
2.7750
 42
2.7750
 43
1.0000
 50
270.0000
  0
INSERT
  8
17
  2
ROUNDP
 10
332.5750
 20
97.9100
 30
0.0000
 41
2.7750
 42
2.7750
 43
1.0000
 50
270.0000
  0
INSERT
  8
17
  2
ROUNDP
 10
316.8250
 20
101.0900
 30
0.0000
 41
2.7750
 42
2.7750
 43
1.0000
 50
270.0000
  0
INSERT
  8
17
  2
ROUNDP
 10
316.8250
 20
101.0900
 30
0.0000
 41
2.7750
 42
2.7750
 43
1.0000
 50
270.0000
  0
INSERT
  8
17
  2
ROUNDP
 10
316.8250
 20
97.9100
 30
0.0000
 41
2.7750
 42
2.7750
 43
1.0000
 50
270.0000
  0
INSERT
  8
17
  2
ROUNDP
 10
316.8250
 20
97.9100
 30
0.0000
 41
2.7750
 42
2.7750
 43
1.0000
 50
270.0000
  0
CIRCLE
  8
20
 10
377.0000
 20
81.0000
 30
0.0000
 40
2.0002
  0
INSERT
  8
17
  2
ROUNDP
 10
377.0000
 20
75.9200
 30
0.0000
 41
2.5716
 42
2.5716
 43
1.0000
 50
90.0000
  0
INSERT
  8
17
  2
ROUNDP
 10
377.0000
 20
75.9200
 30
0.0000
 41
2.5716
 42
2.5716
 43
1.0000
 50
90.0000
  0
INSERT
  8
17
  2
ROUNDP
 10
377.0000
 20
86.0800
 30
0.0000
 41
2.5716
 42
2.5716
 43
1.0000
 50
90.0000
  0
INSERT
  8
17
  2
ROUNDP
 10
377.0000
 20
86.0800
 30
0.0000
 41
2.5716
 42
2.5716
 43
1.0000
 50
90.0000
  0
INSERT
  8
17
  2
ROUNDP
 10
374.4600
 20
77.1900
 30
0.0000
 41
2.5400
 42
2.5400
 43
1.0000
 50
90.0000
  0
INSERT
  8
17
  2
ROUNDP
 10
374.4600
 20
77.1900
 30
0.0000
 41
2.5400
 42
2.5400
 43
1.0000
 50
90.0000
  0
INSERT
  8
17
  2
ROUNDP
 10
371.9200
 20
83.5400
 30
0.0000
 41
2.5400
 42
2.5400
 43
1.0000
 50
90.0000
  0
INSERT
  8
17
  2
ROUNDP
 10
371.9200
 20
83.5400
 30
0.0000
 41
2.5400
 42
2.5400
 43
1.0000
 50
90.0000
  0
CIRCLE
  8
20
 10
377.0000
 20
61.0000
 30
0.0000
 40
2.0002
  0
INSERT
  8
17
  2
ROUNDP
 10
377.0000
 20
55.9200
 30
0.0000
 41
2.5716
 42
2.5716
 43
1.0000
 50
90.0000
  0
INSERT
  8
17
  2
ROUNDP
 10
377.0000
 20
55.9200
 30
0.0000
 41
2.5716
 42
2.5716
 43
1.0000
 50
90.0000
  0
INSERT
  8
17
  2
ROUNDP
 10
377.0000
 20
66.0800
 30
0.0000
 41
2.5716
 42
2.5716
 43
1.0000
 50
90.0000
  0
INSERT
  8
17
  2
ROUNDP
 10
377.0000
 20
66.0800
 30
0.0000
 41
2.5716
 42
2.5716
 43
1.0000
 50
90.0000
  0
INSERT
  8
17
  2
ROUNDP
 10
374.4600
 20
57.1900
 30
0.0000
 41
2.5400
 42
2.5400
 43
1.0000
 50
90.0000
  0
INSERT
  8
17
  2
ROUNDP
 10
374.4600
 20
57.1900
 30
0.0000
 41
2.5400
 42
2.5400
 43
1.0000
 50
90.0000
  0
INSERT
  8
17
  2
ROUNDP
 10
371.9200
 20
63.5400
 30
0.0000
 41
2.5400
 42
2.5400
 43
1.0000
 50
90.0000
  0
INSERT
  8
17
  2
ROUNDP
 10
371.9200
 20
63.5400
 30
0.0000
 41
2.5400
 42
2.5400
 43
1.0000
 50
90.0000
  0
CIRCLE
  8
20
 10
397.0000
 20
81.0000
 30
0.0000
 40
2.0002
  0
INSERT
  8
17
  2
ROUNDP
 10
397.0000
 20
75.9200
 30
0.0000
 41
2.5716
 42
2.5716
 43
1.0000
 50
90.0000
  0
INSERT
  8
17
  2
ROUNDP
 10
397.0000
 20
75.9200
 30
0.0000
 41
2.5716
 42
2.5716
 43
1.0000
 50
90.0000
  0
INSERT
  8
17
  2
ROUNDP
 10
397.0000
 20
86.0800
 30
0.0000
 41
2.5716
 42
2.5716
 43
1.0000
 50
90.0000
  0
INSERT
  8
17
  2
ROUNDP
 10
397.0000
 20
86.0800
 30
0.0000
 41
2.5716
 42
2.5716
 43
1.0000
 50
90.0000
  0
INSERT
  8
17
  2
ROUNDP
 10
394.4600
 20
77.1900
 30
0.0000
 41
2.5400
 42
2.5400
 43
1.0000
 50
90.0000
  0
INSERT
  8
17
  2
ROUNDP
 10
394.4600
 20
77.1900
 30
0.0000
 41
2.5400
 42
2.5400
 43
1.0000
 50
90.0000
  0
INSERT
  8
17
  2
ROUNDP
 10
391.9200
 20
83.5400
 30
0.0000
 41
2.5400
 42
2.5400
 43
1.0000
 50
90.0000
  0
INSERT
  8
17
  2
ROUNDP
 10
391.9200
 20
83.5400
 30
0.0000
 41
2.5400
 42
2.5400
 43
1.0000
 50
90.0000
  0
CIRCLE
  8
20
 10
397.0000
 20
61.0000
 30
0.0000
 40
2.0002
  0
INSERT
  8
17
  2
ROUNDP
 10
397.0000
 20
55.9200
 30
0.0000
 41
2.5716
 42
2.5716
 43
1.0000
 50
90.0000
  0
INSERT
  8
17
  2
ROUNDP
 10
397.0000
 20
55.9200
 30
0.0000
 41
2.5716
 42
2.5716
 43
1.0000
 50
90.0000
  0
INSERT
  8
17
  2
ROUNDP
 10
397.0000
 20
66.0800
 30
0.0000
 41
2.5716
 42
2.5716
 43
1.0000
 50
90.0000
  0
INSERT
  8
17
  2
ROUNDP
 10
397.0000
 20
66.0800
 30
0.0000
 41
2.5716
 42
2.5716
 43
1.0000
 50
90.0000
  0
INSERT
  8
17
  2
ROUNDP
 10
394.4600
 20
57.1900
 30
0.0000
 41
2.5400
 42
2.5400
 43
1.0000
 50
90.0000
  0
INSERT
  8
17
  2
ROUNDP
 10
394.4600
 20
57.1900
 30
0.0000
 41
2.5400
 42
2.5400
 43
1.0000
 50
90.0000
  0
INSERT
  8
17
  2
ROUNDP
 10
391.9200
 20
63.5400
 30
0.0000
 41
2.5400
 42
2.5400
 43
1.0000
 50
90.0000
  0
INSERT
  8
17
  2
ROUNDP
 10
391.9200
 20
63.5400
 30
0.0000
 41
2.5400
 42
2.5400
 43
1.0000
 50
90.0000
  0
CIRCLE
  8
20
 10
417.0000
 20
81.0000
 30
0.0000
 40
2.0002
  0
INSERT
  8
17
  2
ROUNDP
 10
417.0000
 20
75.9200
 30
0.0000
 41
2.5716
 42
2.5716
 43
1.0000
 50
90.0000
  0
INSERT
  8
17
  2
ROUNDP
 10
417.0000
 20
75.9200
 30
0.0000
 41
2.5716
 42
2.5716
 43
1.0000
 50
90.0000
  0
INSERT
  8
17
  2
ROUNDP
 10
417.0000
 20
86.0800
 30
0.0000
 41
2.5716
 42
2.5716
 43
1.0000
 50
90.0000
  0
INSERT
  8
17
  2
ROUNDP
 10
417.0000
 20
86.0800
 30
0.0000
 41
2.5716
 42
2.5716
 43
1.0000
 50
90.0000
  0
INSERT
  8
17
  2
ROUNDP
 10
414.4600
 20
77.1900
 30
0.0000
 41
2.5400
 42
2.5400
 43
1.0000
 50
90.0000
  0
INSERT
  8
17
  2
ROUNDP
 10
414.4600
 20
77.1900
 30
0.0000
 41
2.5400
 42
2.5400
 43
1.0000
 50
90.0000
  0
INSERT
  8
17
  2
ROUNDP
 10
411.9200
 20
83.5400
 30
0.0000
 41
2.5400
 42
2.5400
 43
1.0000
 50
90.0000
  0
INSERT
  8
17
  2
ROUNDP
 10
411.9200
 20
83.5400
 30
0.0000
 41
2.5400
 42
2.5400
 43
1.0000
 50
90.0000
  0
CIRCLE
  8
20
 10
417.0000
 20
61.0000
 30
0.0000
 40
2.0002
  0
INSERT
  8
17
  2
ROUNDP
 10
417.0000
 20
55.9200
 30
0.0000
 41
2.5716
 42
2.5716
 43
1.0000
 50
90.0000
  0
INSERT
  8
17
  2
ROUNDP
 10
417.0000
 20
55.9200
 30
0.0000
 41
2.5716
 42
2.5716
 43
1.0000
 50
90.0000
  0
INSERT
  8
17
  2
ROUNDP
 10
417.0000
 20
66.0800
 30
0.0000
 41
2.5716
 42
2.5716
 43
1.0000
 50
90.0000
  0
INSERT
  8
17
  2
ROUNDP
 10
417.0000
 20
66.0800
 30
0.0000
 41
2.5716
 42
2.5716
 43
1.0000
 50
90.0000
  0
INSERT
  8
17
  2
ROUNDP
 10
414.4600
 20
57.1900
 30
0.0000
 41
2.5400
 42
2.5400
 43
1.0000
 50
90.0000
  0
INSERT
  8
17
  2
ROUNDP
 10
414.4600
 20
57.1900
 30
0.0000
 41
2.5400
 42
2.5400
 43
1.0000
 50
90.0000
  0
INSERT
  8
17
  2
ROUNDP
 10
411.9200
 20
63.5400
 30
0.0000
 41
2.5400
 42
2.5400
 43
1.0000
 50
90.0000
  0
INSERT
  8
17
  2
ROUNDP
 10
411.9200
 20
63.5400
 30
0.0000
 41
2.5400
 42
2.5400
 43
1.0000
 50
90.0000
  0
INSERT
  8
17
  2
OCTAGONP
 10
446.0000
 20
76.5000
 30
0.0000
 41
3.0000
 42
3.0000
 43
1.0000
 50
0.0000
  0
INSERT
  8
17
  2
OCTAGONP
 10
446.0000
 20
76.5000
 30
0.0000
 41
3.0000
 42
3.0000
 43
1.0000
 50
0.0000
  0
INSERT
  8
17
  2
OCTAGONP
 10
453.0000
 20
50.0000
 30
0.0000
 41
3.0000
 42
3.0000
 43
1.0000
 50
0.0000
  0
INSERT
  8
17
  2
OCTAGONP
 10
453.0000
 20
50.0000
 30
0.0000
 41
3.0000
 42
3.0000
 43
1.0000
 50
0.0000
  0
INSERT
  8
17
  2
OCTAGONP
 10
295.0000
 20
4.9000
 30
0.0000
 41
3.0000
 42
3.0000
 43
1.0000
 50
0.0000
  0
INSERT
  8
17
  2
OCTAGONP
 10
295.0000
 20
4.9000
 30
0.0000
 41
3.0000
 42
3.0000
 43
1.0000
 50
0.0000
  0
INSERT
  8
17
  2
OCTAGONP
 10
228.5000
 20
65.0000
 30
0.0000
 41
3.0000
 42
3.0000
 43
1.0000
 50
0.0000
  0
INSERT
  8
17
  2
OCTAGONP
 10
228.5000
 20
65.0000
 30
0.0000
 41
3.0000
 42
3.0000
 43
1.0000
 50
0.0000
  0
INSERT
  8
17
  2
ROUNDP
 10
479.9700
 20
113.9200
 30
0.0000
 41
1.4478
 42
1.4478
 43
1.0000
 50
270.0000
  0
INSERT
  8
17
  2
ROUNDP
 10
479.9700
 20
113.9200
 30
0.0000
 41
1.4478
 42
1.4478
 43
1.0000
 50
270.0000
  0
INSERT
  8
17
  2
ROUNDP
 10
477.4300
 20
113.9200
 30
0.0000
 41
1.4478
 42
1.4478
 43
1.0000
 50
270.0000
  0
INSERT
  8
17
  2
ROUNDP
 10
477.4300
 20
113.9200
 30
0.0000
 41
1.4478
 42
1.4478
 43
1.0000
 50
270.0000
  0
INSERT
  8
17
  2
ROUNDP
 10
474.8900
 20
113.9200
 30
0.0000
 41
1.4478
 42
1.4478
 43
1.0000
 50
270.0000
  0
INSERT
  8
17
  2
ROUNDP
 10
474.8900
 20
113.9200
 30
0.0000
 41
1.4478
 42
1.4478
 43
1.0000
 50
270.0000
  0
INSERT
  8
17
  2
ROUNDP
 10
477.4300
 20
98.6800
 30
0.0000
 41
1.4478
 42
1.4478
 43
1.0000
 50
270.0000
  0
INSERT
  8
17
  2
ROUNDP
 10
477.4300
 20
98.6800
 30
0.0000
 41
1.4478
 42
1.4478
 43
1.0000
 50
270.0000
  0
INSERT
  8
17
  2
ROUNDP
 10
472.3500
 20
113.9200
 30
0.0000
 41
1.4478
 42
1.4478
 43
1.0000
 50
270.0000
  0
INSERT
  8
17
  2
ROUNDP
 10
472.3500
 20
113.9200
 30
0.0000
 41
1.4478
 42
1.4478
 43
1.0000
 50
270.0000
  0
INSERT
  8
17
  2
ROUNDP
 10
469.8100
 20
113.9200
 30
0.0000
 41
1.4478
 42
1.4478
 43
1.0000
 50
270.0000
  0
INSERT
  8
17
  2
ROUNDP
 10
469.8100
 20
113.9200
 30
0.0000
 41
1.4478
 42
1.4478
 43
1.0000
 50
270.0000
  0
INSERT
  8
17
  2
ROUNDP
 10
467.2700
 20
113.9200
 30
0.0000
 41
1.4478
 42
1.4478
 43
1.0000
 50
270.0000
  0
INSERT
  8
17
  2
ROUNDP
 10
467.2700
 20
113.9200
 30
0.0000
 41
1.4478
 42
1.4478
 43
1.0000
 50
270.0000
  0
INSERT
  8
17
  2
ROUNDP
 10
464.7300
 20
113.9200
 30
0.0000
 41
1.4478
 42
1.4478
 43
1.0000
 50
270.0000
  0
INSERT
  8
17
  2
ROUNDP
 10
464.7300
 20
113.9200
 30
0.0000
 41
1.4478
 42
1.4478
 43
1.0000
 50
270.0000
  0
INSERT
  8
17
  2
ROUNDP
 10
462.1900
 20
113.9200
 30
0.0000
 41
1.4478
 42
1.4478
 43
1.0000
 50
270.0000
  0
INSERT
  8
17
  2
ROUNDP
 10
462.1900
 20
113.9200
 30
0.0000
 41
1.4478
 42
1.4478
 43
1.0000
 50
270.0000
  0
INSERT
  8
17
  2
ROUNDP
 10
459.6500
 20
113.9200
 30
0.0000
 41
1.4478
 42
1.4478
 43
1.0000
 50
270.0000
  0
INSERT
  8
17
  2
ROUNDP
 10
459.6500
 20
113.9200
 30
0.0000
 41
1.4478
 42
1.4478
 43
1.0000
 50
270.0000
  0
INSERT
  8
17
  2
ROUNDP
 10
457.1100
 20
113.9200
 30
0.0000
 41
1.4478
 42
1.4478
 43
1.0000
 50
270.0000
  0
INSERT
  8
17
  2
ROUNDP
 10
457.1100
 20
113.9200
 30
0.0000
 41
1.4478
 42
1.4478
 43
1.0000
 50
270.0000
  0
INSERT
  8
17
  2
ROUNDP
 10
454.5700
 20
113.9200
 30
0.0000
 41
1.4478
 42
1.4478
 43
1.0000
 50
270.0000
  0
INSERT
  8
17
  2
ROUNDP
 10
454.5700
 20
113.9200
 30
0.0000
 41
1.4478
 42
1.4478
 43
1.0000
 50
270.0000
  0
INSERT
  8
17
  2
ROUNDP
 10
452.0300
 20
113.9200
 30
0.0000
 41
1.4478
 42
1.4478
 43
1.0000
 50
270.0000
  0
INSERT
  8
17
  2
ROUNDP
 10
452.0300
 20
113.9200
 30
0.0000
 41
1.4478
 42
1.4478
 43
1.0000
 50
270.0000
  0
INSERT
  8
17
  2
ROUNDP
 10
449.4900
 20
113.9200
 30
0.0000
 41
1.4478
 42
1.4478
 43
1.0000
 50
270.0000
  0
INSERT
  8
17
  2
ROUNDP
 10
449.4900
 20
113.9200
 30
0.0000
 41
1.4478
 42
1.4478
 43
1.0000
 50
270.0000
  0
INSERT
  8
17
  2
ROUNDP
 10
449.4900
 20
98.6800
 30
0.0000
 41
1.4478
 42
1.4478
 43
1.0000
 50
270.0000
  0
INSERT
  8
17
  2
ROUNDP
 10
449.4900
 20
98.6800
 30
0.0000
 41
1.4478
 42
1.4478
 43
1.0000
 50
270.0000
  0
INSERT
  8
17
  2
ROUNDP
 10
452.0300
 20
98.6800
 30
0.0000
 41
1.4478
 42
1.4478
 43
1.0000
 50
270.0000
  0
INSERT
  8
17
  2
ROUNDP
 10
452.0300
 20
98.6800
 30
0.0000
 41
1.4478
 42
1.4478
 43
1.0000
 50
270.0000
  0
INSERT
  8
17
  2
ROUNDP
 10
454.5700
 20
98.6800
 30
0.0000
 41
1.4478
 42
1.4478
 43
1.0000
 50
270.0000
  0
INSERT
  8
17
  2
ROUNDP
 10
454.5700
 20
98.6800
 30
0.0000
 41
1.4478
 42
1.4478
 43
1.0000
 50
270.0000
  0
INSERT
  8
17
  2
ROUNDP
 10
457.1100
 20
98.6800
 30
0.0000
 41
1.4478
 42
1.4478
 43
1.0000
 50
270.0000
  0
INSERT
  8
17
  2
ROUNDP
 10
457.1100
 20
98.6800
 30
0.0000
 41
1.4478
 42
1.4478
 43
1.0000
 50
270.0000
  0
INSERT
  8
17
  2
ROUNDP
 10
459.6500
 20
98.6800
 30
0.0000
 41
1.4478
 42
1.4478
 43
1.0000
 50
270.0000
  0
INSERT
  8
17
  2
ROUNDP
 10
459.6500
 20
98.6800
 30
0.0000
 41
1.4478
 42
1.4478
 43
1.0000
 50
270.0000
  0
INSERT
  8
17
  2
ROUNDP
 10
462.1900
 20
98.6800
 30
0.0000
 41
1.4478
 42
1.4478
 43
1.0000
 50
270.0000
  0
INSERT
  8
17
  2
ROUNDP
 10
462.1900
 20
98.6800
 30
0.0000
 41
1.4478
 42
1.4478
 43
1.0000
 50
270.0000
  0
INSERT
  8
17
  2
ROUNDP
 10
464.7300
 20
98.6800
 30
0.0000
 41
1.4478
 42
1.4478
 43
1.0000
 50
270.0000
  0
INSERT
  8
17
  2
ROUNDP
 10
464.7300
 20
98.6800
 30
0.0000
 41
1.4478
 42
1.4478
 43
1.0000
 50
270.0000
  0
INSERT
  8
17
  2
ROUNDP
 10
467.2700
 20
98.6800
 30
0.0000
 41
1.4478
 42
1.4478
 43
1.0000
 50
270.0000
  0
INSERT
  8
17
  2
ROUNDP
 10
467.2700
 20
98.6800
 30
0.0000
 41
1.4478
 42
1.4478
 43
1.0000
 50
270.0000
  0
INSERT
  8
17
  2
ROUNDP
 10
469.8100
 20
98.6800
 30
0.0000
 41
1.4478
 42
1.4478
 43
1.0000
 50
270.0000
  0
INSERT
  8
17
  2
ROUNDP
 10
469.8100
 20
98.6800
 30
0.0000
 41
1.4478
 42
1.4478
 43
1.0000
 50
270.0000
  0
INSERT
  8
17
  2
ROUNDP
 10
472.3500
 20
98.6800
 30
0.0000
 41
1.4478
 42
1.4478
 43
1.0000
 50
270.0000
  0
INSERT
  8
17
  2
ROUNDP
 10
472.3500
 20
98.6800
 30
0.0000
 41
1.4478
 42
1.4478
 43
1.0000
 50
270.0000
  0
INSERT
  8
17
  2
ROUNDP
 10
474.8900
 20
98.6800
 30
0.0000
 41
1.4478
 42
1.4478
 43
1.0000
 50
270.0000
  0
INSERT
  8
17
  2
ROUNDP
 10
474.8900
 20
98.6800
 30
0.0000
 41
1.4478
 42
1.4478
 43
1.0000
 50
270.0000
  0
INSERT
  8
17
  2
ROUNDP
 10
482.5100
 20
113.9200
 30
0.0000
 41
1.4478
 42
1.4478
 43
1.0000
 50
270.0000
  0
INSERT
  8
17
  2
ROUNDP
 10
482.5100
 20
113.9200
 30
0.0000
 41
1.4478
 42
1.4478
 43
1.0000
 50
270.0000
  0
INSERT
  8
17
  2
ROUNDP
 10
479.9700
 20
98.6800
 30
0.0000
 41
1.4478
 42
1.4478
 43
1.0000
 50
270.0000
  0
INSERT
  8
17
  2
ROUNDP
 10
479.9700
 20
98.6800
 30
0.0000
 41
1.4478
 42
1.4478
 43
1.0000
 50
270.0000
  0
INSERT
  8
17
  2
ROUNDP
 10
482.5100
 20
98.6800
 30
0.0000
 41
1.4478
 42
1.4478
 43
1.0000
 50
270.0000
  0
INSERT
  8
17
  2
ROUNDP
 10
482.5100
 20
98.6800
 30
0.0000
 41
1.4478
 42
1.4478
 43
1.0000
 50
270.0000
  0
ENDSEC
  0
EOF
