G75*
%MOIN*%
%OFA0B0*%
%FSLAX24Y24*%
%IPPOS*%
%LPD*%
%AMOC8*
5,1,8,0,0,1.08239X$1,22.5*
%
%ADD10C,0.0060*%
%ADD11C,0.0000*%
%ADD12C,0.0070*%
%ADD13C,0.0100*%
%ADD14C,0.0050*%
%ADD15C,0.0030*%
D10*
X006032Y005891D02*
X006122Y005981D01*
X006132Y005981D01*
X006142Y005981D02*
X006742Y005981D01*
X006742Y006081D01*
X009132Y005891D02*
X009222Y005981D01*
X009232Y005981D01*
X009242Y005981D02*
X009842Y005981D01*
X009842Y006081D01*
X012232Y005891D02*
X012322Y005981D01*
X012332Y005981D01*
X012342Y005981D02*
X012942Y005981D01*
X012942Y006081D01*
X011167Y012524D02*
X010667Y012524D01*
X010417Y012774D01*
X010417Y013274D01*
X010667Y013524D01*
X010417Y013774D01*
X010417Y014274D01*
X010667Y014524D01*
X010417Y014774D01*
X010417Y015274D01*
X010667Y015524D01*
X010417Y015774D01*
X010417Y016274D01*
X010667Y016524D01*
X011167Y016524D01*
X011417Y016274D01*
X011417Y015774D01*
X011167Y015524D01*
X011417Y015274D01*
X011417Y014774D01*
X011167Y014524D01*
X011417Y014274D01*
X011417Y013774D01*
X011167Y013524D01*
X011417Y013274D01*
X011417Y012774D01*
X011167Y012524D01*
X011537Y012809D02*
X011537Y012939D01*
X011581Y012983D01*
X011667Y012983D01*
X011711Y012939D01*
X011711Y012809D01*
X011797Y012809D02*
X011537Y012809D01*
X011711Y012896D02*
X011797Y012983D01*
X011797Y013190D02*
X011667Y013190D01*
X011581Y013277D01*
X011537Y013277D01*
X011667Y013190D02*
X011581Y013104D01*
X011537Y013104D01*
X011167Y013524D02*
X010667Y013524D01*
X011537Y013906D02*
X011581Y013906D01*
X011667Y013993D01*
X011797Y013993D01*
X011667Y013993D02*
X011581Y014080D01*
X011537Y014080D01*
X011167Y014524D02*
X010667Y014524D01*
X011537Y014759D02*
X011537Y014889D01*
X011581Y014933D01*
X011667Y014933D01*
X011711Y014889D01*
X011711Y014759D01*
X011797Y014759D02*
X011537Y014759D01*
X011711Y014846D02*
X011797Y014933D01*
X011797Y015054D02*
X011537Y015227D01*
X011537Y015054D02*
X011797Y015227D01*
X011167Y015524D02*
X010667Y015524D01*
X011537Y015956D02*
X011797Y016130D01*
X011797Y015956D02*
X011537Y016130D01*
X009233Y016035D02*
X009059Y016035D01*
X009059Y015775D01*
X008938Y015775D02*
X008938Y015905D01*
X008895Y015948D01*
X008765Y015948D01*
X008765Y015775D01*
X008643Y015818D02*
X008643Y015991D01*
X008470Y015818D01*
X008513Y015775D01*
X008600Y015775D01*
X008643Y015818D01*
X008470Y015818D02*
X008470Y015991D01*
X008513Y016035D01*
X008600Y016035D01*
X008643Y015991D01*
X008349Y015991D02*
X008175Y015818D01*
X008175Y015775D01*
X008011Y015775D02*
X008011Y016035D01*
X007881Y015905D01*
X008054Y015905D01*
X008175Y016035D02*
X008349Y016035D01*
X008349Y015991D01*
X009059Y015905D02*
X009146Y015905D01*
X009006Y015215D02*
X008832Y015215D01*
X008832Y014955D01*
X008711Y014955D02*
X008711Y015085D01*
X008668Y015128D01*
X008538Y015128D01*
X008538Y014955D01*
X008417Y014998D02*
X008373Y014955D01*
X008286Y014955D01*
X008243Y014998D01*
X008417Y015172D01*
X008417Y014998D01*
X008417Y015172D02*
X008373Y015215D01*
X008286Y015215D01*
X008243Y015172D01*
X008243Y014998D01*
X008122Y014955D02*
X007948Y014955D01*
X008035Y014955D02*
X008035Y015215D01*
X007948Y015128D01*
X007417Y015274D02*
X007417Y014774D01*
X007167Y014524D01*
X007417Y014274D01*
X007417Y013774D01*
X007167Y013524D01*
X007417Y013274D01*
X007417Y012774D01*
X007167Y012524D01*
X006667Y012524D01*
X006417Y012774D01*
X006417Y013274D01*
X006667Y013524D01*
X006417Y013774D01*
X006417Y014274D01*
X006667Y014524D01*
X006417Y014774D01*
X006417Y015274D01*
X006667Y015524D01*
X006417Y015774D01*
X006417Y016274D01*
X006667Y016524D01*
X007167Y016524D01*
X007417Y016274D01*
X007417Y015774D01*
X007167Y015524D01*
X007417Y015274D01*
X007167Y015524D02*
X006667Y015524D01*
X006297Y015431D02*
X006254Y015475D01*
X006081Y015475D01*
X006037Y015431D01*
X006037Y015301D01*
X006297Y015301D01*
X006297Y015431D01*
X006297Y015180D02*
X006037Y015180D01*
X006037Y015006D02*
X006297Y015180D01*
X006297Y015006D02*
X006037Y015006D01*
X006081Y014885D02*
X006037Y014842D01*
X006037Y014755D01*
X006081Y014712D01*
X006254Y014712D01*
X006297Y014755D01*
X006297Y014842D01*
X006254Y014885D01*
X006167Y014885D01*
X006167Y014798D01*
X006667Y014524D02*
X007167Y014524D01*
X006297Y014080D02*
X006297Y013906D01*
X006254Y013906D01*
X006081Y014080D01*
X006037Y014080D01*
X006037Y013906D01*
X006037Y013227D02*
X006081Y013227D01*
X006254Y013054D01*
X006297Y013054D01*
X006297Y013227D01*
X006037Y013227D02*
X006037Y013054D01*
X006081Y012933D02*
X006167Y012933D01*
X006211Y012889D01*
X006211Y012759D01*
X006297Y012759D02*
X006037Y012759D01*
X006037Y012889D01*
X006081Y012933D01*
X006211Y012846D02*
X006297Y012933D01*
X006667Y013524D02*
X007167Y013524D01*
X008127Y013587D02*
X008214Y013674D01*
X008214Y013414D01*
X008127Y013414D02*
X008301Y013414D01*
X008422Y013457D02*
X008422Y013631D01*
X008465Y013674D01*
X008552Y013674D01*
X008596Y013631D01*
X008422Y013457D01*
X008465Y013414D01*
X008552Y013414D01*
X008596Y013457D01*
X008596Y013631D01*
X008717Y013674D02*
X008717Y013414D01*
X008717Y013500D02*
X008847Y013587D01*
X008717Y013500D02*
X008847Y013414D01*
X009095Y013743D02*
X009095Y013916D01*
X008965Y013873D02*
X009095Y013743D01*
X008965Y013873D02*
X009226Y013873D01*
X009226Y014038D02*
X009182Y014038D01*
X009009Y014211D01*
X008965Y014211D01*
X008965Y014038D01*
X009009Y014332D02*
X008965Y014376D01*
X008965Y014462D01*
X009009Y014506D01*
X009182Y014332D01*
X009226Y014376D01*
X009226Y014462D01*
X009182Y014506D01*
X009009Y014506D01*
X009052Y014627D02*
X009052Y014757D01*
X009095Y014800D01*
X009226Y014800D01*
X009226Y014922D02*
X008965Y014922D01*
X008965Y015095D01*
X008919Y015085D02*
X008832Y015085D01*
X009095Y015008D02*
X009095Y014922D01*
X009052Y014627D02*
X009226Y014627D01*
X009182Y014332D02*
X009009Y014332D01*
X007255Y016644D02*
X007342Y016730D01*
X007342Y016904D01*
X007168Y016904D02*
X007168Y016730D01*
X007255Y016644D01*
X007047Y016687D02*
X007004Y016644D01*
X006917Y016644D01*
X006874Y016687D01*
X006770Y016687D02*
X006770Y016644D01*
X006726Y016644D01*
X006726Y016687D01*
X006770Y016687D01*
X006605Y016687D02*
X006562Y016644D01*
X006475Y016644D01*
X006432Y016687D01*
X006519Y016774D02*
X006562Y016774D01*
X006605Y016730D01*
X006605Y016687D01*
X006562Y016774D02*
X006605Y016817D01*
X006605Y016861D01*
X006562Y016904D01*
X006475Y016904D01*
X006432Y016861D01*
X006874Y016861D02*
X006917Y016904D01*
X007004Y016904D01*
X007047Y016861D01*
X007047Y016817D01*
X007004Y016774D01*
X007047Y016730D01*
X007047Y016687D01*
X007004Y016774D02*
X006960Y016774D01*
D11*
X005992Y005905D02*
X005992Y005511D01*
X009092Y005511D02*
X009092Y005905D01*
X012192Y005905D02*
X012192Y005511D01*
D12*
X014720Y011868D02*
X014941Y011868D01*
X014996Y011923D01*
X014996Y012033D01*
X014941Y012088D01*
X014941Y012236D02*
X014996Y012292D01*
X014996Y012402D01*
X014941Y012457D01*
X014941Y012236D02*
X014720Y012236D01*
X014665Y012292D01*
X014665Y012402D01*
X014720Y012457D01*
X014720Y012088D02*
X014665Y012033D01*
X014665Y011923D01*
X014720Y011868D01*
X015265Y012561D02*
X015265Y012671D01*
X015265Y012616D02*
X015541Y012616D01*
X015596Y012561D01*
X015596Y012506D01*
X015541Y012451D01*
X015596Y012820D02*
X015265Y012820D01*
X015265Y012985D01*
X015320Y013040D01*
X015430Y013040D01*
X015485Y012985D01*
X015485Y012820D01*
X015596Y013188D02*
X015265Y013188D01*
X015596Y013408D01*
X015265Y013408D01*
X014996Y013451D02*
X014830Y013451D01*
X014720Y013562D01*
X014665Y013562D01*
X014830Y013451D02*
X014720Y013341D01*
X014665Y013341D01*
X014720Y013193D02*
X014775Y013193D01*
X014830Y013138D01*
X014830Y012973D01*
X014665Y012973D02*
X014665Y013138D01*
X014720Y013193D01*
X014830Y013138D02*
X014885Y013193D01*
X014941Y013193D01*
X014996Y013138D01*
X014996Y012973D01*
X014665Y012973D01*
X014396Y013249D02*
X014065Y013249D01*
X014065Y013414D01*
X014120Y013470D01*
X014230Y013470D01*
X014285Y013414D01*
X014285Y013249D01*
X014285Y013359D02*
X014396Y013470D01*
X014341Y013618D02*
X014230Y013618D01*
X014175Y013673D01*
X014175Y013783D01*
X014230Y013838D01*
X014285Y013838D01*
X014285Y013618D01*
X014341Y013618D02*
X014396Y013673D01*
X014396Y013783D01*
X014175Y013986D02*
X014396Y014096D01*
X014175Y014206D01*
X014341Y014354D02*
X014341Y014409D01*
X014396Y014409D01*
X014396Y014354D01*
X014341Y014354D01*
X014665Y014243D02*
X014665Y014133D01*
X014720Y014078D01*
X014775Y014078D01*
X014830Y014133D01*
X014830Y014243D01*
X014885Y014298D01*
X014941Y014298D01*
X014996Y014243D01*
X014996Y014133D01*
X014941Y014078D01*
X014830Y013930D02*
X014830Y013710D01*
X015265Y014170D02*
X015375Y014280D01*
X015265Y014390D01*
X015596Y014390D01*
X015596Y014538D02*
X015485Y014649D01*
X015596Y014759D01*
X015265Y014759D01*
X015265Y014907D02*
X015596Y014907D01*
X015596Y015127D01*
X015541Y015275D02*
X015320Y015275D01*
X015265Y015330D01*
X015265Y015440D01*
X015320Y015495D01*
X015430Y015495D01*
X015485Y015440D01*
X015375Y015440D01*
X015375Y015330D01*
X015485Y015330D01*
X015485Y015440D01*
X015541Y015495D02*
X015596Y015440D01*
X015596Y015330D01*
X015541Y015275D01*
X015596Y015643D02*
X015265Y015643D01*
X015375Y015753D01*
X015265Y015864D01*
X015596Y015864D01*
X015596Y016012D02*
X015596Y016122D01*
X015596Y016067D02*
X015265Y016067D01*
X015265Y016012D02*
X015265Y016122D01*
X015265Y016257D02*
X015265Y016477D01*
X015265Y016367D02*
X015596Y016367D01*
X014996Y016453D02*
X014665Y016453D01*
X014830Y016288D01*
X014830Y016508D01*
X014941Y016656D02*
X014941Y016711D01*
X014996Y016711D01*
X014996Y016656D01*
X014941Y016656D01*
X014941Y016840D02*
X014720Y017061D01*
X014941Y017061D01*
X014996Y017006D01*
X014996Y016895D01*
X014941Y016840D01*
X014720Y016840D01*
X014665Y016895D01*
X014665Y017006D01*
X014720Y017061D01*
X014830Y016140D02*
X014830Y015920D01*
X014720Y015771D02*
X014665Y015716D01*
X014665Y015606D01*
X014720Y015551D01*
X014941Y015551D01*
X014996Y015606D01*
X014996Y015716D01*
X014941Y015771D01*
X014996Y015403D02*
X014665Y015403D01*
X014665Y015183D02*
X014996Y015403D01*
X014996Y015183D02*
X014665Y015183D01*
X014830Y015035D02*
X014830Y014815D01*
X014830Y014667D02*
X014830Y014446D01*
X014775Y014446D02*
X014665Y014556D01*
X014775Y014667D01*
X014996Y014667D01*
X014996Y014446D02*
X014775Y014446D01*
X014720Y014298D02*
X014665Y014243D01*
X015265Y014170D02*
X015596Y014170D01*
X015865Y014225D02*
X015920Y014170D01*
X016141Y014170D01*
X015920Y014390D01*
X016141Y014390D01*
X016196Y014335D01*
X016196Y014225D01*
X016141Y014170D01*
X016196Y014022D02*
X016196Y013802D01*
X015975Y014022D01*
X015920Y014022D01*
X015865Y013967D01*
X015865Y013857D01*
X015920Y013802D01*
X015706Y013556D02*
X015596Y013666D01*
X015596Y013611D01*
X015541Y013611D01*
X015541Y013666D01*
X015596Y013666D01*
X015865Y014225D02*
X015865Y014335D01*
X015920Y014390D01*
X015975Y014538D02*
X015865Y014649D01*
X016196Y014649D01*
X016196Y014759D02*
X016196Y014538D01*
X016141Y014907D02*
X016196Y014962D01*
X016196Y015072D01*
X016141Y015127D01*
X016085Y015127D01*
X016030Y015072D01*
X016030Y014907D01*
X016141Y014907D01*
X016030Y014907D02*
X015920Y015017D01*
X015865Y015127D01*
X015596Y014538D02*
X015265Y014538D01*
X014396Y014907D02*
X014396Y015127D01*
X014396Y015017D02*
X014065Y015017D01*
X014175Y014907D01*
X014341Y015275D02*
X014341Y015330D01*
X014396Y015330D01*
X014396Y015275D01*
X014341Y015275D01*
X014341Y015459D02*
X014120Y015679D01*
X014341Y015679D01*
X014396Y015624D01*
X014396Y015514D01*
X014341Y015459D01*
X014120Y015459D01*
X014065Y015514D01*
X014065Y015624D01*
X014120Y015679D01*
X003006Y013092D02*
X003006Y013037D01*
X003006Y013092D02*
X002951Y013147D01*
X002675Y013147D01*
X002675Y013295D02*
X002896Y013295D01*
X002785Y013295D02*
X002675Y013405D01*
X002675Y013460D01*
X002730Y013602D02*
X002841Y013602D01*
X002896Y013657D01*
X002896Y013767D01*
X002841Y013822D01*
X002730Y013822D01*
X002675Y013767D01*
X002675Y013657D01*
X002730Y013602D01*
X002896Y013147D02*
X002896Y012982D01*
X002841Y012927D01*
X002675Y012927D01*
X002620Y012778D02*
X002565Y012723D01*
X002565Y012613D01*
X002620Y012558D01*
X002841Y012558D01*
X002896Y012613D01*
X002896Y012723D01*
X002841Y012778D01*
X002730Y012778D01*
X002730Y012668D01*
X002730Y014338D02*
X002730Y014504D01*
X002785Y014559D01*
X002841Y014559D01*
X002896Y014504D01*
X002896Y014338D01*
X002565Y014338D01*
X002565Y014504D01*
X002620Y014559D01*
X002675Y014559D01*
X002730Y014504D01*
X002730Y014707D02*
X002841Y014707D01*
X002896Y014762D01*
X002896Y014872D01*
X002841Y014927D01*
X002730Y014927D01*
X002675Y014872D01*
X002675Y014762D01*
X002730Y014707D01*
X002841Y015075D02*
X002785Y015130D01*
X002785Y015295D01*
X002730Y015295D02*
X002896Y015295D01*
X002896Y015130D01*
X002841Y015075D01*
X002675Y015130D02*
X002675Y015240D01*
X002730Y015295D01*
X002675Y015443D02*
X002896Y015443D01*
X002785Y015443D02*
X002675Y015553D01*
X002675Y015609D01*
X002730Y015750D02*
X002675Y015805D01*
X002675Y015970D01*
X002565Y015970D02*
X002896Y015970D01*
X002896Y015805D01*
X002841Y015750D01*
X002730Y015750D01*
D13*
X002231Y017303D02*
X003331Y017303D01*
X003331Y011303D01*
X002231Y011303D01*
X002231Y017303D01*
X013806Y017503D02*
X013806Y011503D01*
X016431Y011503D01*
X016431Y017503D01*
X013806Y017503D01*
D14*
X008737Y015584D02*
X008737Y015264D01*
X008097Y015264D01*
X008097Y015584D01*
X008737Y015584D01*
X008737Y014884D02*
X008097Y014884D01*
X008097Y014564D01*
X008737Y014564D01*
X008737Y014884D01*
X008737Y014474D02*
X008737Y014154D01*
X008097Y014154D01*
X008097Y014474D01*
X008737Y014474D01*
X008737Y014064D02*
X008737Y013744D01*
X008097Y013744D01*
X008097Y014064D01*
X008737Y014064D01*
X008943Y006736D02*
X009263Y006736D01*
X009263Y006096D01*
X008943Y006096D01*
X008943Y006736D01*
X008708Y006730D02*
X008388Y006730D01*
X008388Y006090D01*
X008708Y006090D01*
X008708Y006730D01*
X009309Y006736D02*
X009309Y006096D01*
X009629Y006096D01*
X009629Y006736D01*
X009309Y006736D01*
X009674Y006736D02*
X009994Y006736D01*
X009994Y006096D01*
X009674Y006096D01*
X009674Y006736D01*
X011488Y006730D02*
X011488Y006090D01*
X011808Y006090D01*
X011808Y006730D01*
X011488Y006730D01*
X012043Y006736D02*
X012043Y006096D01*
X012363Y006096D01*
X012363Y006736D01*
X012043Y006736D01*
X012409Y006736D02*
X012729Y006736D01*
X012729Y006096D01*
X012409Y006096D01*
X012409Y006736D01*
X012774Y006736D02*
X013094Y006736D01*
X013094Y006096D01*
X012774Y006096D01*
X012774Y006736D01*
X006894Y006736D02*
X006894Y006096D01*
X006574Y006096D01*
X006574Y006736D01*
X006894Y006736D01*
X006529Y006736D02*
X006209Y006736D01*
X006209Y006096D01*
X006529Y006096D01*
X006529Y006736D01*
X006163Y006736D02*
X005843Y006736D01*
X005843Y006096D01*
X006163Y006096D01*
X006163Y006736D01*
X005608Y006730D02*
X005608Y006090D01*
X005288Y006090D01*
X005288Y006730D01*
X005608Y006730D01*
D15*
X005082Y006223D02*
X005147Y006158D01*
X005147Y006244D01*
X005212Y006223D02*
X005082Y006223D01*
X005082Y006305D02*
X005082Y006392D01*
X005103Y006392D01*
X005190Y006305D01*
X005212Y006305D01*
X005190Y006452D02*
X005103Y006539D01*
X005190Y006539D01*
X005212Y006517D01*
X005212Y006474D01*
X005190Y006452D01*
X005103Y006452D01*
X005082Y006474D01*
X005082Y006517D01*
X005103Y006539D01*
X005125Y006600D02*
X005125Y006665D01*
X005147Y006686D01*
X005212Y006686D01*
X005212Y006747D02*
X005082Y006747D01*
X005082Y006834D01*
X005147Y006790D02*
X005147Y006747D01*
X005125Y006600D02*
X005212Y006600D01*
X005656Y006624D02*
X005656Y006710D01*
X005722Y006667D02*
X005722Y006624D01*
X005722Y006563D02*
X005787Y006563D01*
X005787Y006624D02*
X005656Y006624D01*
X005722Y006563D02*
X005700Y006541D01*
X005700Y006476D01*
X005787Y006476D01*
X005765Y006416D02*
X005787Y006394D01*
X005787Y006351D01*
X005765Y006329D01*
X005678Y006416D01*
X005765Y006416D01*
X005678Y006416D02*
X005656Y006394D01*
X005656Y006351D01*
X005678Y006329D01*
X005765Y006329D01*
X005787Y006268D02*
X005787Y006182D01*
X005787Y006225D02*
X005656Y006225D01*
X005700Y006182D01*
X005882Y005970D02*
X005926Y005905D01*
X005969Y005970D01*
X005969Y005905D02*
X005839Y005905D01*
X005861Y005845D02*
X005947Y005758D01*
X005969Y005780D01*
X005969Y005823D01*
X005947Y005845D01*
X005861Y005845D01*
X005839Y005823D01*
X005839Y005780D01*
X005861Y005758D01*
X005947Y005758D01*
X005969Y005697D02*
X005969Y005611D01*
X005969Y005654D02*
X005839Y005654D01*
X005882Y005611D01*
X006178Y006842D02*
X006178Y006973D01*
X006113Y006907D01*
X006199Y006907D01*
X006260Y006864D02*
X006260Y006842D01*
X006260Y006864D02*
X006347Y006951D01*
X006347Y006973D01*
X006260Y006973D01*
X006407Y006951D02*
X006429Y006973D01*
X006472Y006973D01*
X006494Y006951D01*
X006407Y006864D01*
X006429Y006842D01*
X006472Y006842D01*
X006494Y006864D01*
X006494Y006951D01*
X006555Y006929D02*
X006620Y006929D01*
X006641Y006907D01*
X006641Y006842D01*
X006702Y006842D02*
X006702Y006973D01*
X006789Y006973D01*
X006745Y006907D02*
X006702Y006907D01*
X006555Y006929D02*
X006555Y006842D01*
X006407Y006864D02*
X006407Y006951D01*
X008182Y006834D02*
X008182Y006747D01*
X008312Y006747D01*
X008312Y006686D02*
X008247Y006686D01*
X008225Y006665D01*
X008225Y006600D01*
X008312Y006600D01*
X008290Y006539D02*
X008312Y006517D01*
X008312Y006474D01*
X008290Y006452D01*
X008203Y006539D01*
X008290Y006539D01*
X008203Y006539D02*
X008182Y006517D01*
X008182Y006474D01*
X008203Y006452D01*
X008290Y006452D01*
X008203Y006392D02*
X008290Y006305D01*
X008312Y006305D01*
X008312Y006223D02*
X008182Y006223D01*
X008247Y006158D01*
X008247Y006244D01*
X008182Y006305D02*
X008182Y006392D01*
X008203Y006392D01*
X008247Y006747D02*
X008247Y006790D01*
X008756Y006710D02*
X008756Y006624D01*
X008887Y006624D01*
X008887Y006563D02*
X008822Y006563D01*
X008800Y006541D01*
X008800Y006476D01*
X008887Y006476D01*
X008865Y006416D02*
X008887Y006394D01*
X008887Y006351D01*
X008865Y006329D01*
X008778Y006416D01*
X008865Y006416D01*
X008778Y006416D02*
X008756Y006394D01*
X008756Y006351D01*
X008778Y006329D01*
X008865Y006329D01*
X008887Y006268D02*
X008887Y006182D01*
X008887Y006225D02*
X008756Y006225D01*
X008800Y006182D01*
X008982Y005970D02*
X009026Y005905D01*
X009069Y005970D01*
X009069Y005905D02*
X008939Y005905D01*
X008961Y005845D02*
X009047Y005758D01*
X009069Y005780D01*
X009069Y005823D01*
X009047Y005845D01*
X008961Y005845D01*
X008939Y005823D01*
X008939Y005780D01*
X008961Y005758D01*
X009047Y005758D01*
X009069Y005697D02*
X009069Y005611D01*
X009069Y005654D02*
X008939Y005654D01*
X008982Y005611D01*
X008822Y006624D02*
X008822Y006667D01*
X009213Y006907D02*
X009299Y006907D01*
X009278Y006842D02*
X009278Y006973D01*
X009213Y006907D01*
X009360Y006864D02*
X009360Y006842D01*
X009360Y006864D02*
X009447Y006951D01*
X009447Y006973D01*
X009360Y006973D01*
X009507Y006951D02*
X009529Y006973D01*
X009572Y006973D01*
X009594Y006951D01*
X009507Y006864D01*
X009529Y006842D01*
X009572Y006842D01*
X009594Y006864D01*
X009594Y006951D01*
X009655Y006929D02*
X009720Y006929D01*
X009741Y006907D01*
X009741Y006842D01*
X009802Y006842D02*
X009802Y006973D01*
X009889Y006973D01*
X009845Y006907D02*
X009802Y006907D01*
X009655Y006929D02*
X009655Y006842D01*
X009507Y006864D02*
X009507Y006951D01*
X011282Y006834D02*
X011282Y006747D01*
X011412Y006747D01*
X011412Y006686D02*
X011347Y006686D01*
X011325Y006665D01*
X011325Y006600D01*
X011412Y006600D01*
X011390Y006539D02*
X011412Y006517D01*
X011412Y006474D01*
X011390Y006452D01*
X011303Y006539D01*
X011390Y006539D01*
X011303Y006539D02*
X011282Y006517D01*
X011282Y006474D01*
X011303Y006452D01*
X011390Y006452D01*
X011303Y006392D02*
X011390Y006305D01*
X011412Y006305D01*
X011412Y006223D02*
X011282Y006223D01*
X011347Y006158D01*
X011347Y006244D01*
X011282Y006305D02*
X011282Y006392D01*
X011303Y006392D01*
X011347Y006747D02*
X011347Y006790D01*
X011856Y006710D02*
X011856Y006624D01*
X011987Y006624D01*
X011987Y006563D02*
X011922Y006563D01*
X011900Y006541D01*
X011900Y006476D01*
X011987Y006476D01*
X011965Y006416D02*
X011987Y006394D01*
X011987Y006351D01*
X011965Y006329D01*
X011878Y006416D01*
X011965Y006416D01*
X011878Y006416D02*
X011856Y006394D01*
X011856Y006351D01*
X011878Y006329D01*
X011965Y006329D01*
X011987Y006268D02*
X011987Y006182D01*
X011987Y006225D02*
X011856Y006225D01*
X011900Y006182D01*
X012082Y005970D02*
X012126Y005905D01*
X012169Y005970D01*
X012169Y005905D02*
X012039Y005905D01*
X012061Y005845D02*
X012147Y005758D01*
X012169Y005780D01*
X012169Y005823D01*
X012147Y005845D01*
X012061Y005845D01*
X012039Y005823D01*
X012039Y005780D01*
X012061Y005758D01*
X012147Y005758D01*
X012169Y005697D02*
X012169Y005611D01*
X012169Y005654D02*
X012039Y005654D01*
X012082Y005611D01*
X011922Y006624D02*
X011922Y006667D01*
X012313Y006907D02*
X012399Y006907D01*
X012378Y006842D02*
X012378Y006973D01*
X012313Y006907D01*
X012460Y006864D02*
X012460Y006842D01*
X012460Y006864D02*
X012547Y006951D01*
X012547Y006973D01*
X012460Y006973D01*
X012607Y006951D02*
X012629Y006973D01*
X012672Y006973D01*
X012694Y006951D01*
X012607Y006864D01*
X012629Y006842D01*
X012672Y006842D01*
X012694Y006864D01*
X012694Y006951D01*
X012755Y006929D02*
X012820Y006929D01*
X012841Y006907D01*
X012841Y006842D01*
X012902Y006842D02*
X012902Y006973D01*
X012989Y006973D01*
X012945Y006907D02*
X012902Y006907D01*
X012755Y006929D02*
X012755Y006842D01*
X012607Y006864D02*
X012607Y006951D01*
M02*
