G75*
%MOIN*%
%OFA0B0*%
%FSLAX24Y24*%
%IPPOS*%
%LPD*%
%AMOC8*
5,1,8,0,0,1.08239X$1,22.5*
%
%ADD10C,0.0316*%
%ADD11R,0.0316X0.0356*%
%ADD12R,0.0356X0.0316*%
%ADD13OC8,0.0680*%
%ADD14R,0.0395X0.0395*%
D10*
X004037Y005944D03*
X004037Y006324D03*
X004037Y006704D03*
X004797Y006704D03*
X004797Y006324D03*
X004797Y005944D03*
X007137Y005944D03*
X007137Y006324D03*
X007137Y006704D03*
X007897Y006704D03*
X007897Y006324D03*
X007897Y005944D03*
X010237Y005944D03*
X010237Y006324D03*
X010237Y006704D03*
X010997Y006704D03*
X010997Y006324D03*
X010997Y005944D03*
X013337Y005944D03*
X013337Y006324D03*
X013337Y006704D03*
X014097Y006704D03*
X014097Y006324D03*
X014097Y005944D03*
X009097Y011144D03*
X008717Y011144D03*
X008337Y011144D03*
X008337Y011904D03*
X008717Y011904D03*
X009097Y011904D03*
X012037Y014144D03*
X012037Y014524D03*
X012037Y014904D03*
X012797Y014904D03*
X012797Y014524D03*
X012797Y014144D03*
X009197Y017144D03*
X008817Y017144D03*
X008437Y017144D03*
X008437Y017904D03*
X008817Y017904D03*
X009197Y017904D03*
X005797Y014804D03*
X005797Y014424D03*
X005797Y014044D03*
X005037Y014044D03*
X005037Y014424D03*
X005037Y014804D03*
D11*
X008417Y015431D03*
X008417Y013817D03*
X008285Y006928D03*
X008842Y006928D03*
X009342Y006928D03*
X009899Y006928D03*
X009899Y006062D03*
X009342Y006062D03*
X008842Y006062D03*
X008285Y006062D03*
X006799Y006062D03*
X006242Y006062D03*
X005742Y006062D03*
X005185Y006062D03*
X005185Y006928D03*
X005742Y006928D03*
X006242Y006928D03*
X006799Y006928D03*
X011385Y006928D03*
X011942Y006928D03*
X012442Y006928D03*
X012999Y006928D03*
X012999Y006062D03*
X012442Y006062D03*
X011942Y006062D03*
X011385Y006062D03*
D12*
X011385Y006495D03*
X009899Y006495D03*
X008285Y006495D03*
X006799Y006495D03*
X005185Y006495D03*
X007984Y013817D03*
X007984Y014374D03*
X007984Y014874D03*
X007984Y015431D03*
X008850Y015431D03*
X008850Y014874D03*
X008850Y014374D03*
X008850Y013817D03*
X012999Y006495D03*
D13*
X010917Y013024D03*
X010917Y014024D03*
X010917Y015024D03*
X010917Y016024D03*
X006917Y016024D03*
X006917Y015024D03*
X006917Y014024D03*
X006917Y013024D03*
D14*
X008017Y012724D03*
X008417Y012724D03*
X009317Y012724D03*
X009717Y012724D03*
X010017Y014124D03*
X010017Y014524D03*
X010017Y015324D03*
X010017Y015724D03*
M02*
