G75*
%MOIN*%
%OFA0B0*%
%FSLAX25Y25*%
%IPPOS*%
%LPD*%
%AMOC8*
5,1,8,0,0,1.08239X$1,22.5*
%
%ADD10C,0.02953*%
%ADD11C,0.03937*%
%ADD12C,0.01981*%
%ADD13C,0.02375*%
%ADD14C,0.01969*%
%ADD15C,0.01587*%
%ADD16C,0.00500*%
%ADD17C,0.00787*%
%ADD18C,0.02178*%
D10*
X0106762Y0119360D03*
X0122116Y0119360D03*
X0137268Y0119360D03*
X0145738Y0114242D03*
X0153612Y0114242D03*
X0152785Y0123691D03*
X0178606Y0144945D03*
X0186492Y0159998D03*
X0199281Y0166998D03*
X0215030Y0166106D03*
X0217318Y0159985D03*
X0215030Y0137470D03*
X0230384Y0134715D03*
X0246526Y0130384D03*
X0254006Y0115030D03*
X0267109Y0118573D03*
X0279596Y0127622D03*
X0283140Y0116604D03*
X0298100Y0117392D03*
X0313455Y0116998D03*
X0168967Y0167785D03*
X0152825Y0169360D03*
X0153803Y0160305D03*
X0137864Y0164636D03*
X0122904Y0165030D03*
X0107156Y0159524D03*
X0106177Y0165817D03*
X0095298Y0214242D03*
X0106177Y0223297D03*
X0117392Y0214636D03*
X0121722Y0223297D03*
X0137077Y0223297D03*
X0141402Y0216927D03*
X0152431Y0222904D03*
X0157943Y0219754D03*
X0154006Y0213848D03*
X0158337Y0212667D03*
X0107156Y0269360D03*
X0099281Y0272510D03*
X0099281Y0288258D03*
X0099281Y0303612D03*
X0097707Y0318573D03*
X0112793Y0319158D03*
X0097707Y0333927D03*
X0123297Y0343770D03*
X0127628Y0272904D03*
X0131959Y0270148D03*
D11*
X0138970Y0114955D02*
X0100463Y0114955D01*
X0095298Y0120119D01*
X0095298Y0129027D01*
X0095101Y0174983D01*
X0095298Y0214242D01*
X0095298Y0232746D01*
X0095298Y0265312D01*
X0095270Y0265341D01*
X0095270Y0308337D01*
X0106091Y0319158D01*
X0112793Y0319158D01*
X0261022Y0127622D02*
X0279596Y0127622D01*
X0261022Y0127622D02*
X0251973Y0118573D01*
X0228809Y0118573D01*
X0225128Y0114892D01*
X0225128Y0114251D01*
X0153612Y0114242D02*
X0148494Y0119360D01*
X0143376Y0119360D01*
X0138970Y0114955D01*
D12*
X0095298Y0129027D03*
X0097095Y0233447D03*
D13*
X0095101Y0174983D03*
X0225128Y0114251D03*
D14*
X0178606Y0144945D02*
X0178606Y0152506D01*
X0186492Y0159998D01*
X0097095Y0233447D02*
X0096394Y0232746D01*
X0095298Y0232746D01*
D15*
X0106762Y0230384D03*
X0108140Y0231762D03*
X0108337Y0233927D03*
X0110699Y0233533D03*
X0105974Y0239045D03*
X0108140Y0239636D03*
X0106171Y0241407D03*
X0105778Y0246919D03*
X0107943Y0246919D03*
X0108140Y0249085D03*
X0105581Y0249281D03*
X0098558Y0248605D03*
X0105581Y0257156D03*
X0107943Y0257156D03*
X0106919Y0262667D03*
X0109006Y0263927D03*
X0111841Y0264045D03*
X0115030Y0264124D03*
X0116093Y0267234D03*
X0116211Y0270581D03*
X0117785Y0273100D03*
X0122116Y0273297D03*
X0123494Y0275069D03*
X0123258Y0270423D03*
X0122077Y0268258D03*
X0123179Y0266368D03*
X0122116Y0263848D03*
X0123297Y0262274D03*
X0120541Y0257156D03*
X0123297Y0252825D03*
X0123691Y0250659D03*
X0121526Y0248691D03*
X0123297Y0247707D03*
X0121526Y0246132D03*
X0121132Y0243573D03*
X0123494Y0244163D03*
X0123100Y0241998D03*
X0137274Y0243179D03*
X0137274Y0253022D03*
X0152431Y0253415D03*
X0152431Y0263455D03*
X0157943Y0264242D03*
X0160305Y0266998D03*
X0164203Y0271762D03*
X0168140Y0271762D03*
X0169321Y0274518D03*
X0172470Y0271368D03*
X0177195Y0271368D03*
X0181132Y0271368D03*
X0184715Y0271329D03*
X0184675Y0275305D03*
X0189793Y0271368D03*
X0192156Y0271762D03*
X0195305Y0271762D03*
X0198061Y0271368D03*
X0201211Y0271762D03*
X0200423Y0274518D03*
X0205935Y0271762D03*
X0208297Y0272156D03*
X0213809Y0271368D03*
X0217352Y0271368D03*
X0215384Y0274911D03*
X0221683Y0271762D03*
X0224439Y0271762D03*
X0228376Y0271368D03*
X0231526Y0271368D03*
X0230344Y0274518D03*
X0233100Y0274518D03*
X0240581Y0274518D03*
X0243730Y0271368D03*
X0246486Y0271368D03*
X0249242Y0271368D03*
X0252431Y0271329D03*
X0254754Y0271368D03*
X0252825Y0263061D03*
X0249675Y0263061D03*
X0246526Y0263061D03*
X0247313Y0251250D03*
X0249281Y0251250D03*
X0249281Y0249281D03*
X0249281Y0247313D03*
X0247313Y0247313D03*
X0247313Y0249281D03*
X0247313Y0245344D03*
X0247313Y0243376D03*
X0249281Y0243376D03*
X0249281Y0245344D03*
X0251250Y0245344D03*
X0251250Y0243376D03*
X0253219Y0243376D03*
X0253219Y0245344D03*
X0253219Y0247313D03*
X0253219Y0249281D03*
X0253219Y0251250D03*
X0251250Y0251250D03*
X0251250Y0249281D03*
X0251250Y0247313D03*
X0251250Y0241407D03*
X0251250Y0239439D03*
X0251250Y0237470D03*
X0251250Y0235502D03*
X0251250Y0233533D03*
X0251250Y0231565D03*
X0251250Y0229596D03*
X0251250Y0227628D03*
X0251250Y0225659D03*
X0251250Y0223691D03*
X0251250Y0221722D03*
X0251250Y0219754D03*
X0251250Y0217785D03*
X0251250Y0215817D03*
X0251250Y0213848D03*
X0251250Y0211880D03*
X0251250Y0209911D03*
X0251250Y0207943D03*
X0251250Y0205974D03*
X0251250Y0204006D03*
X0251250Y0202037D03*
X0251250Y0200069D03*
X0251250Y0198100D03*
X0251250Y0196132D03*
X0251250Y0194163D03*
X0251250Y0192195D03*
X0251250Y0190226D03*
X0251250Y0188258D03*
X0251250Y0186289D03*
X0251250Y0184321D03*
X0252037Y0182352D03*
X0252037Y0179990D03*
X0244557Y0178415D03*
X0244557Y0182352D03*
X0244557Y0186289D03*
X0244557Y0190226D03*
X0244557Y0194163D03*
X0244557Y0198100D03*
X0244557Y0202037D03*
X0244557Y0205974D03*
X0241407Y0205187D03*
X0238258Y0205187D03*
X0235108Y0205187D03*
X0225266Y0205187D03*
X0222116Y0205187D03*
X0218967Y0205187D03*
X0210305Y0205187D03*
X0207156Y0205187D03*
X0204006Y0205187D03*
X0194951Y0205187D03*
X0191801Y0205187D03*
X0188652Y0205187D03*
X0179990Y0205187D03*
X0176841Y0205187D03*
X0173691Y0205187D03*
X0169360Y0203219D03*
X0166998Y0203219D03*
X0166998Y0200856D03*
X0166998Y0198494D03*
X0169360Y0198494D03*
X0169360Y0200856D03*
X0168179Y0190030D03*
X0153415Y0188652D03*
X0154006Y0198494D03*
X0154006Y0200856D03*
X0151644Y0200856D03*
X0151644Y0198494D03*
X0151644Y0203219D03*
X0154006Y0203219D03*
X0152431Y0209518D03*
X0141368Y0207589D03*
X0141250Y0210620D03*
X0136644Y0206407D03*
X0134675Y0206407D03*
X0132313Y0206407D03*
X0129557Y0206407D03*
X0123455Y0204085D03*
X0123573Y0201959D03*
X0121053Y0201919D03*
X0121093Y0204006D03*
X0119754Y0210108D03*
X0118770Y0211683D03*
X0117785Y0210108D03*
X0116801Y0211683D03*
X0115817Y0210108D03*
X0113848Y0210108D03*
X0111880Y0210108D03*
X0114242Y0216801D03*
X0102431Y0216801D03*
X0102431Y0213258D03*
X0106762Y0203809D03*
X0105699Y0202116D03*
X0108100Y0202156D03*
X0107904Y0192392D03*
X0105699Y0192313D03*
X0105502Y0189715D03*
X0107116Y0184360D03*
X0105494Y0182746D03*
X0105463Y0180226D03*
X0107549Y0181171D03*
X0107549Y0178809D03*
X0105581Y0177628D03*
X0107549Y0176447D03*
X0105581Y0175266D03*
X0107549Y0173691D03*
X0105581Y0172510D03*
X0120935Y0172510D03*
X0123297Y0172510D03*
X0122904Y0184951D03*
X0120896Y0184911D03*
X0120738Y0189478D03*
X0120738Y0192274D03*
X0123337Y0192470D03*
X0123612Y0189518D03*
X0137077Y0175659D03*
X0152825Y0174675D03*
X0168376Y0174281D03*
X0183730Y0175266D03*
X0199478Y0176250D03*
X0214636Y0174085D03*
X0230344Y0174360D03*
X0240030Y0161289D03*
X0239715Y0158967D03*
X0243730Y0159675D03*
X0244793Y0152825D03*
X0244400Y0149557D03*
X0247313Y0144951D03*
X0249281Y0144951D03*
X0249281Y0142982D03*
X0247313Y0142982D03*
X0244557Y0141526D03*
X0251486Y0143179D03*
X0251014Y0151526D03*
X0253100Y0154242D03*
X0251250Y0158730D03*
X0251250Y0160699D03*
X0251250Y0162667D03*
X0251250Y0164636D03*
X0251250Y0166604D03*
X0252037Y0168573D03*
X0259911Y0156762D03*
X0262274Y0156565D03*
X0266998Y0156565D03*
X0269360Y0156565D03*
X0273691Y0156565D03*
X0276053Y0156565D03*
X0280384Y0156565D03*
X0282746Y0156565D03*
X0287077Y0156565D03*
X0289439Y0156565D03*
X0293770Y0156565D03*
X0296132Y0156565D03*
X0296565Y0150502D03*
X0296683Y0148297D03*
X0299006Y0148022D03*
X0298848Y0150463D03*
X0300856Y0156565D03*
X0303219Y0156565D03*
X0307943Y0156565D03*
X0310305Y0156565D03*
X0314242Y0156565D03*
X0316604Y0156565D03*
X0321329Y0156565D03*
X0323691Y0156565D03*
X0314478Y0150423D03*
X0314281Y0148258D03*
X0311998Y0148022D03*
X0311998Y0150187D03*
X0311762Y0142746D03*
X0311801Y0140541D03*
X0314478Y0140659D03*
X0314439Y0142982D03*
X0299163Y0142943D03*
X0299124Y0140344D03*
X0296526Y0140344D03*
X0296565Y0137943D03*
X0296683Y0135738D03*
X0299163Y0134872D03*
X0299163Y0132431D03*
X0296486Y0133100D03*
X0296604Y0130817D03*
X0296683Y0128730D03*
X0296565Y0126604D03*
X0299281Y0126683D03*
X0299242Y0120030D03*
X0296565Y0120069D03*
X0297864Y0113730D03*
X0283770Y0119478D03*
X0281329Y0119478D03*
X0282313Y0113337D03*
X0283376Y0127037D03*
X0281289Y0136053D03*
X0281289Y0138140D03*
X0281211Y0140344D03*
X0283455Y0140423D03*
X0283533Y0138455D03*
X0283573Y0136407D03*
X0283533Y0142589D03*
X0281132Y0142589D03*
X0290226Y0141801D03*
X0296329Y0142825D03*
X0311526Y0126014D03*
X0311801Y0120108D03*
X0314478Y0119833D03*
X0267864Y0133179D03*
X0267904Y0135541D03*
X0268061Y0137746D03*
X0268258Y0139951D03*
X0266250Y0140384D03*
X0265423Y0142785D03*
X0267707Y0142628D03*
X0250108Y0114281D03*
X0247864Y0115069D03*
X0245541Y0114675D03*
X0243770Y0114400D03*
X0241644Y0114518D03*
X0239715Y0114596D03*
X0237707Y0114596D03*
X0235699Y0114518D03*
X0233770Y0114439D03*
X0231644Y0123415D03*
X0220628Y0128022D03*
X0216368Y0128415D03*
X0216368Y0126447D03*
X0216368Y0124478D03*
X0216486Y0122510D03*
X0215384Y0115069D03*
X0213297Y0114321D03*
X0211132Y0114478D03*
X0208337Y0114636D03*
X0208337Y0112864D03*
X0205974Y0112864D03*
X0205974Y0114636D03*
X0203612Y0114636D03*
X0203612Y0112864D03*
X0201250Y0112864D03*
X0201250Y0114636D03*
X0198888Y0114636D03*
X0198888Y0112864D03*
X0196526Y0112864D03*
X0196526Y0114636D03*
X0194163Y0114636D03*
X0194163Y0112864D03*
X0191801Y0112864D03*
X0191801Y0114636D03*
X0189439Y0114636D03*
X0189439Y0112864D03*
X0187077Y0112864D03*
X0187077Y0114636D03*
X0184715Y0114636D03*
X0184715Y0112864D03*
X0182352Y0112864D03*
X0182352Y0114636D03*
X0179990Y0114636D03*
X0179990Y0112864D03*
X0177628Y0112864D03*
X0177628Y0114636D03*
X0175266Y0114636D03*
X0175266Y0112864D03*
X0170344Y0116211D03*
X0168770Y0115226D03*
X0167195Y0116211D03*
X0168770Y0117392D03*
X0170344Y0118573D03*
X0168770Y0119557D03*
X0170344Y0120541D03*
X0168770Y0121722D03*
X0167195Y0120541D03*
X0167195Y0118573D03*
X0167195Y0122904D03*
X0168770Y0124085D03*
X0170344Y0125266D03*
X0170344Y0122904D03*
X0167502Y0126336D03*
X0165575Y0130254D03*
X0173580Y0127739D03*
X0170541Y0137581D03*
X0170541Y0139833D03*
X0170541Y0141604D03*
X0170541Y0143376D03*
X0170541Y0145148D03*
X0170541Y0146919D03*
X0182746Y0150856D03*
X0185502Y0150856D03*
X0185384Y0148022D03*
X0183140Y0148022D03*
X0185896Y0155974D03*
X0189439Y0157943D03*
X0191801Y0157943D03*
X0194163Y0157943D03*
X0196526Y0157943D03*
X0198888Y0157943D03*
X0198494Y0155974D03*
X0200856Y0155974D03*
X0201250Y0157943D03*
X0203612Y0157943D03*
X0205974Y0157943D03*
X0209911Y0157943D03*
X0212274Y0157943D03*
X0214636Y0157943D03*
X0214242Y0155974D03*
X0216604Y0155974D03*
X0216801Y0151014D03*
X0216171Y0147943D03*
X0213927Y0148061D03*
X0213652Y0151014D03*
X0200659Y0150620D03*
X0198297Y0150620D03*
X0198573Y0148061D03*
X0200935Y0148061D03*
X0188258Y0127739D03*
X0198691Y0125266D03*
X0201014Y0125266D03*
X0201053Y0123061D03*
X0201250Y0120541D03*
X0201250Y0118179D03*
X0198494Y0118179D03*
X0198494Y0120541D03*
X0198533Y0122707D03*
X0230069Y0142510D03*
X0231644Y0145069D03*
X0229636Y0147156D03*
X0229203Y0151250D03*
X0229203Y0153219D03*
X0229203Y0155187D03*
X0231565Y0155187D03*
X0231565Y0153219D03*
X0231565Y0151250D03*
X0214636Y0191801D03*
X0230148Y0196604D03*
X0244557Y0209911D03*
X0244557Y0213848D03*
X0244557Y0217785D03*
X0244557Y0221722D03*
X0244557Y0225659D03*
X0244557Y0229596D03*
X0244557Y0233533D03*
X0244557Y0237470D03*
X0244557Y0241407D03*
X0247313Y0241407D03*
X0249281Y0241407D03*
X0253219Y0241407D03*
X0230187Y0250463D03*
X0229990Y0261289D03*
X0225659Y0263848D03*
X0222510Y0263848D03*
X0219360Y0263848D03*
X0211093Y0264242D03*
X0207943Y0264242D03*
X0204793Y0264242D03*
X0195344Y0264242D03*
X0192195Y0264242D03*
X0189045Y0264242D03*
X0179990Y0264242D03*
X0176841Y0264242D03*
X0173691Y0264242D03*
X0168770Y0249281D03*
X0168770Y0237667D03*
X0170148Y0230384D03*
X0170148Y0227628D03*
X0170148Y0225266D03*
X0170148Y0222904D03*
X0170148Y0220541D03*
X0167392Y0220541D03*
X0168179Y0218573D03*
X0164636Y0218573D03*
X0167392Y0222904D03*
X0167392Y0225266D03*
X0167392Y0227628D03*
X0167392Y0230384D03*
X0152628Y0237864D03*
X0184321Y0231565D03*
X0199675Y0236486D03*
X0199872Y0250856D03*
X0184321Y0247904D03*
X0214636Y0250856D03*
X0214636Y0231959D03*
X0229990Y0231565D03*
X0199675Y0195935D03*
X0184321Y0193770D03*
X0160699Y0145344D03*
X0160699Y0143376D03*
X0158337Y0143376D03*
X0158337Y0145344D03*
X0153022Y0144990D03*
X0153061Y0146919D03*
X0153100Y0142904D03*
X0153061Y0141014D03*
X0151762Y0131887D03*
X0152628Y0129990D03*
X0150856Y0129990D03*
X0149085Y0129990D03*
X0147313Y0129990D03*
X0147313Y0128022D03*
X0149085Y0128022D03*
X0150856Y0128022D03*
X0152707Y0127943D03*
X0154596Y0128022D03*
X0154321Y0126093D03*
X0154596Y0129990D03*
X0123297Y0137077D03*
X0120935Y0137077D03*
X0120148Y0142982D03*
X0122116Y0142982D03*
X0124085Y0142982D03*
X0124085Y0144951D03*
X0122116Y0144951D03*
X0120148Y0144951D03*
X0123297Y0150069D03*
X0123297Y0152037D03*
X0123297Y0154006D03*
X0123179Y0156565D03*
X0120935Y0156368D03*
X0119754Y0158730D03*
X0122116Y0158730D03*
X0124478Y0158730D03*
X0126841Y0158730D03*
X0129203Y0158730D03*
X0131959Y0158730D03*
X0117392Y0158730D03*
X0115030Y0158730D03*
X0112667Y0158730D03*
X0105974Y0154400D03*
X0105974Y0152431D03*
X0105974Y0150463D03*
X0105187Y0144951D03*
X0107156Y0144951D03*
X0109124Y0144951D03*
X0109124Y0142982D03*
X0107156Y0142982D03*
X0105187Y0142982D03*
X0105494Y0136683D03*
X0105581Y0134321D03*
X0105581Y0132352D03*
X0105581Y0130384D03*
X0105581Y0128415D03*
X0107943Y0128415D03*
X0107943Y0130384D03*
X0107943Y0132352D03*
X0107943Y0134321D03*
X0107943Y0136683D03*
X0116604Y0128022D03*
X0104675Y0264085D03*
X0104006Y0266998D03*
X0104006Y0270541D03*
X0107156Y0272904D03*
X0112864Y0273100D03*
X0099675Y0268179D03*
X0099675Y0264085D03*
X0123691Y0286093D03*
X0123494Y0287667D03*
X0123691Y0289833D03*
X0130384Y0289045D03*
X0131959Y0287864D03*
X0130384Y0286289D03*
X0136683Y0289045D03*
X0137077Y0292982D03*
X0137470Y0298494D03*
X0136683Y0304006D03*
X0133927Y0304006D03*
X0131959Y0302825D03*
X0130778Y0304400D03*
X0130384Y0301644D03*
X0123888Y0304006D03*
X0121722Y0303809D03*
X0119557Y0304203D03*
X0116407Y0304006D03*
X0113652Y0304203D03*
X0111683Y0304203D03*
X0109911Y0304006D03*
X0121833Y0310896D03*
X0121526Y0317392D03*
X0123494Y0317195D03*
X0123297Y0319360D03*
X0120541Y0319360D03*
X0117982Y0319557D03*
X0118573Y0317392D03*
X0130778Y0317785D03*
X0131959Y0319754D03*
X0133140Y0317785D03*
X0135108Y0319360D03*
X0135896Y0317392D03*
X0137077Y0310699D03*
X0137077Y0326841D03*
X0136683Y0333140D03*
X0134321Y0333927D03*
X0131959Y0332746D03*
X0131959Y0335108D03*
X0137470Y0340226D03*
X0120148Y0332352D03*
X0117982Y0332352D03*
X0115423Y0332352D03*
X0112667Y0332352D03*
X0093179Y0332352D03*
X0093179Y0341407D03*
X0093179Y0321526D03*
X0093376Y0312864D03*
X0130778Y0273691D03*
X0132746Y0273691D03*
X0134715Y0273691D03*
X0139400Y0271368D03*
X0142943Y0271368D03*
X0145305Y0271368D03*
X0148848Y0271368D03*
X0154360Y0274911D03*
X0158691Y0274911D03*
X0136683Y0282746D03*
D16*
X0138402Y0282823D02*
X0103179Y0282823D01*
X0103179Y0283321D02*
X0138402Y0283321D01*
X0138402Y0283820D02*
X0103179Y0283820D01*
X0103179Y0284318D02*
X0138402Y0284318D01*
X0138402Y0284817D02*
X0124595Y0284817D01*
X0124330Y0284551D02*
X0125233Y0285454D01*
X0125233Y0286731D01*
X0124985Y0286978D01*
X0125036Y0287029D01*
X0125036Y0288306D01*
X0124690Y0288652D01*
X0125233Y0289194D01*
X0125233Y0290471D01*
X0124330Y0291374D01*
X0123052Y0291374D01*
X0122149Y0290471D01*
X0122149Y0289194D01*
X0122495Y0288848D01*
X0121952Y0288306D01*
X0121952Y0287029D01*
X0122200Y0286781D01*
X0122149Y0286731D01*
X0122149Y0285454D01*
X0123052Y0284551D01*
X0124330Y0284551D01*
X0125094Y0285315D02*
X0138402Y0285315D01*
X0138402Y0285814D02*
X0125233Y0285814D01*
X0125233Y0286312D02*
X0138402Y0286312D01*
X0138402Y0286811D02*
X0125153Y0286811D01*
X0125036Y0287309D02*
X0138402Y0287309D01*
X0138402Y0287808D02*
X0125036Y0287808D01*
X0125035Y0288306D02*
X0138402Y0288306D01*
X0138402Y0288805D02*
X0124843Y0288805D01*
X0125233Y0289303D02*
X0138402Y0289303D01*
X0138402Y0289802D02*
X0125233Y0289802D01*
X0125233Y0290300D02*
X0138402Y0290300D01*
X0138402Y0290799D02*
X0124905Y0290799D01*
X0124407Y0291297D02*
X0138402Y0291297D01*
X0138402Y0291796D02*
X0103179Y0291796D01*
X0103179Y0292294D02*
X0138402Y0292294D01*
X0138402Y0292793D02*
X0103179Y0292793D01*
X0103179Y0293291D02*
X0138402Y0293291D01*
X0138402Y0293790D02*
X0103179Y0293790D01*
X0103179Y0294288D02*
X0138402Y0294288D01*
X0138402Y0294787D02*
X0103179Y0294787D01*
X0103179Y0295285D02*
X0138402Y0295285D01*
X0138402Y0295784D02*
X0103179Y0295784D01*
X0103179Y0296282D02*
X0138402Y0296282D01*
X0138402Y0296781D02*
X0103179Y0296781D01*
X0103179Y0297280D02*
X0138402Y0297280D01*
X0138402Y0297778D02*
X0103179Y0297778D01*
X0103179Y0298277D02*
X0138402Y0298277D01*
X0138402Y0298775D02*
X0103179Y0298775D01*
X0103179Y0299274D02*
X0138402Y0299274D01*
X0138402Y0299772D02*
X0103179Y0299772D01*
X0103179Y0300271D02*
X0138402Y0300271D01*
X0138402Y0300769D02*
X0103179Y0300769D01*
X0103179Y0301268D02*
X0138402Y0301268D01*
X0138402Y0301766D02*
X0103179Y0301766D01*
X0103179Y0302265D02*
X0138402Y0302265D01*
X0138402Y0302763D02*
X0124825Y0302763D01*
X0124526Y0302464D02*
X0125429Y0303367D01*
X0125429Y0304644D01*
X0124526Y0305548D01*
X0123249Y0305548D01*
X0122707Y0305005D01*
X0122361Y0305351D01*
X0121084Y0305351D01*
X0120837Y0305103D01*
X0120196Y0305744D01*
X0118918Y0305744D01*
X0118015Y0304841D01*
X0118015Y0303564D01*
X0118918Y0302661D01*
X0120196Y0302661D01*
X0120443Y0302908D01*
X0121084Y0302267D01*
X0122361Y0302267D01*
X0122904Y0302810D01*
X0123249Y0302464D01*
X0124526Y0302464D01*
X0125324Y0303262D02*
X0138402Y0303262D01*
X0138402Y0303760D02*
X0125429Y0303760D01*
X0125429Y0304259D02*
X0138402Y0304259D01*
X0138402Y0304757D02*
X0125317Y0304757D01*
X0124818Y0305256D02*
X0138402Y0305256D01*
X0138402Y0305754D02*
X0103179Y0305754D01*
X0103179Y0305256D02*
X0108981Y0305256D01*
X0109273Y0305548D02*
X0108370Y0304644D01*
X0108370Y0303367D01*
X0109273Y0302464D01*
X0110550Y0302464D01*
X0110896Y0302810D01*
X0111044Y0302661D01*
X0112322Y0302661D01*
X0112667Y0303007D01*
X0113013Y0302661D01*
X0114290Y0302661D01*
X0114931Y0303302D01*
X0115769Y0302464D01*
X0117046Y0302464D01*
X0117949Y0303367D01*
X0117949Y0304644D01*
X0117046Y0305548D01*
X0115769Y0305548D01*
X0115128Y0304907D01*
X0114290Y0305744D01*
X0113013Y0305744D01*
X0112667Y0305399D01*
X0112322Y0305744D01*
X0111044Y0305744D01*
X0110699Y0305399D01*
X0110550Y0305548D01*
X0109273Y0305548D01*
X0108482Y0304757D02*
X0103179Y0304757D01*
X0103179Y0304259D02*
X0108370Y0304259D01*
X0108370Y0303760D02*
X0103179Y0303760D01*
X0103179Y0303262D02*
X0108475Y0303262D01*
X0108974Y0302763D02*
X0103179Y0302763D01*
X0100896Y0305144D02*
X0100203Y0305837D01*
X0098360Y0305837D01*
X0097986Y0305463D01*
X0097986Y0307211D01*
X0107216Y0316441D01*
X0113333Y0316441D01*
X0114332Y0316855D01*
X0115096Y0317619D01*
X0115509Y0318617D01*
X0115509Y0319698D01*
X0115096Y0320696D01*
X0114332Y0321460D01*
X0113333Y0321874D01*
X0105550Y0321874D01*
X0104552Y0321460D01*
X0093731Y0310640D01*
X0092967Y0309875D01*
X0092553Y0308877D01*
X0092553Y0264800D01*
X0092581Y0264732D01*
X0092581Y0214249D01*
X0092445Y0187008D01*
X0092445Y0311615D01*
X0092737Y0311322D01*
X0094015Y0311322D01*
X0094918Y0312226D01*
X0094918Y0313503D01*
X0094015Y0314406D01*
X0092737Y0314406D01*
X0092445Y0314113D01*
X0092445Y0320080D01*
X0092541Y0319984D01*
X0093818Y0319984D01*
X0094721Y0320887D01*
X0094721Y0322164D01*
X0093818Y0323067D01*
X0092541Y0323067D01*
X0092445Y0322972D01*
X0092445Y0330906D01*
X0092541Y0330811D01*
X0093818Y0330811D01*
X0094721Y0331714D01*
X0094721Y0332991D01*
X0093818Y0333894D01*
X0092541Y0333894D01*
X0092445Y0333798D01*
X0092445Y0339961D01*
X0092541Y0339866D01*
X0093818Y0339866D01*
X0094721Y0340769D01*
X0094721Y0342046D01*
X0093818Y0342949D01*
X0092541Y0342949D01*
X0092445Y0342853D01*
X0092445Y0343770D01*
X0092557Y0344622D01*
X0093409Y0346098D01*
X0094886Y0346951D01*
X0095738Y0347063D01*
X0135108Y0347063D01*
X0135961Y0346951D01*
X0137437Y0346098D01*
X0138289Y0344622D01*
X0138402Y0343770D01*
X0138402Y0279550D01*
X0139629Y0277424D01*
X0141755Y0276197D01*
X0153465Y0276197D01*
X0152819Y0275550D01*
X0152819Y0274273D01*
X0153643Y0273448D01*
X0152199Y0272850D01*
X0150910Y0271561D01*
X0150213Y0269878D01*
X0150213Y0268055D01*
X0150910Y0266372D01*
X0105548Y0266372D01*
X0105548Y0266359D02*
X0105548Y0267637D01*
X0104644Y0268540D01*
X0103367Y0268540D01*
X0103179Y0268351D01*
X0103179Y0269188D01*
X0103367Y0269000D01*
X0104644Y0269000D01*
X0104931Y0269286D01*
X0104931Y0268439D01*
X0106234Y0267136D01*
X0108077Y0267136D01*
X0109380Y0268439D01*
X0109380Y0270282D01*
X0108077Y0271585D01*
X0108017Y0271585D01*
X0108697Y0272265D01*
X0108697Y0273542D01*
X0107794Y0274445D01*
X0106517Y0274445D01*
X0105614Y0273542D01*
X0105614Y0272265D01*
X0106294Y0271585D01*
X0106234Y0271585D01*
X0105548Y0270898D01*
X0105548Y0271180D01*
X0104644Y0272083D01*
X0103367Y0272083D01*
X0103179Y0271895D01*
X0103179Y0306289D01*
X0106644Y0309754D01*
X0120794Y0309754D01*
X0121194Y0309354D01*
X0122472Y0309354D01*
X0123375Y0310257D01*
X0123375Y0311534D01*
X0122472Y0312437D01*
X0121194Y0312437D01*
X0120794Y0312037D01*
X0105698Y0312037D01*
X0105030Y0311369D01*
X0101564Y0307903D01*
X0100896Y0307235D01*
X0100896Y0305144D01*
X0100896Y0305256D02*
X0100784Y0305256D01*
X0100896Y0305754D02*
X0100285Y0305754D01*
X0100896Y0306253D02*
X0097986Y0306253D01*
X0097986Y0306751D02*
X0100896Y0306751D01*
X0100911Y0307250D02*
X0098025Y0307250D01*
X0098523Y0307748D02*
X0101409Y0307748D01*
X0101908Y0308247D02*
X0099022Y0308247D01*
X0099520Y0308745D02*
X0102406Y0308745D01*
X0102905Y0309244D02*
X0100019Y0309244D01*
X0100517Y0309742D02*
X0103403Y0309742D01*
X0103902Y0310241D02*
X0101016Y0310241D01*
X0101514Y0310739D02*
X0104400Y0310739D01*
X0104899Y0311238D02*
X0102013Y0311238D01*
X0102511Y0311736D02*
X0105397Y0311736D01*
X0104007Y0313232D02*
X0138402Y0313232D01*
X0138402Y0313730D02*
X0104505Y0313730D01*
X0105004Y0314229D02*
X0138402Y0314229D01*
X0138402Y0314727D02*
X0105502Y0314727D01*
X0106001Y0315226D02*
X0138402Y0315226D01*
X0138402Y0315724D02*
X0124204Y0315724D01*
X0124133Y0315653D02*
X0125036Y0316556D01*
X0125036Y0317833D01*
X0124493Y0318376D01*
X0124839Y0318722D01*
X0124839Y0319999D01*
X0123936Y0320902D01*
X0122659Y0320902D01*
X0121919Y0320163D01*
X0121180Y0320902D01*
X0119903Y0320902D01*
X0119360Y0320359D01*
X0118621Y0321099D01*
X0117344Y0321099D01*
X0116441Y0320196D01*
X0116441Y0318918D01*
X0117180Y0318179D01*
X0117031Y0318030D01*
X0117031Y0316753D01*
X0117934Y0315850D01*
X0119211Y0315850D01*
X0120049Y0316688D01*
X0120887Y0315850D01*
X0122164Y0315850D01*
X0122411Y0316097D01*
X0122855Y0315653D01*
X0124133Y0315653D01*
X0124702Y0316223D02*
X0138402Y0316223D01*
X0138402Y0316721D02*
X0125036Y0316721D01*
X0125036Y0317220D02*
X0138402Y0317220D01*
X0138402Y0317718D02*
X0125036Y0317718D01*
X0124652Y0318217D02*
X0138402Y0318217D01*
X0138402Y0318716D02*
X0124833Y0318716D01*
X0124839Y0319214D02*
X0138402Y0319214D01*
X0138402Y0319713D02*
X0124839Y0319713D01*
X0124627Y0320211D02*
X0138402Y0320211D01*
X0138402Y0320710D02*
X0124128Y0320710D01*
X0122466Y0320710D02*
X0121372Y0320710D01*
X0121871Y0320211D02*
X0121968Y0320211D01*
X0119710Y0320710D02*
X0119010Y0320710D01*
X0116954Y0320710D02*
X0115083Y0320710D01*
X0115297Y0320211D02*
X0116456Y0320211D01*
X0116441Y0319713D02*
X0115503Y0319713D01*
X0115509Y0319214D02*
X0116441Y0319214D01*
X0116644Y0318716D02*
X0115509Y0318716D01*
X0115344Y0318217D02*
X0117142Y0318217D01*
X0117031Y0317718D02*
X0115137Y0317718D01*
X0114697Y0317220D02*
X0117031Y0317220D01*
X0117063Y0316721D02*
X0114010Y0316721D01*
X0117561Y0316223D02*
X0106998Y0316223D01*
X0106499Y0315724D02*
X0122784Y0315724D01*
X0120514Y0316223D02*
X0119584Y0316223D01*
X0120992Y0312235D02*
X0103010Y0312235D01*
X0103508Y0312733D02*
X0138402Y0312733D01*
X0138402Y0312235D02*
X0122674Y0312235D01*
X0123173Y0311736D02*
X0138402Y0311736D01*
X0138402Y0311238D02*
X0123375Y0311238D01*
X0123375Y0310739D02*
X0138402Y0310739D01*
X0138402Y0310241D02*
X0123358Y0310241D01*
X0122860Y0309742D02*
X0138402Y0309742D01*
X0138402Y0309244D02*
X0106134Y0309244D01*
X0106632Y0309742D02*
X0120806Y0309742D01*
X0120684Y0305256D02*
X0120989Y0305256D01*
X0122456Y0305256D02*
X0122957Y0305256D01*
X0122950Y0302763D02*
X0122857Y0302763D01*
X0120588Y0302763D02*
X0120298Y0302763D01*
X0118816Y0302763D02*
X0117345Y0302763D01*
X0117844Y0303262D02*
X0118318Y0303262D01*
X0118015Y0303760D02*
X0117949Y0303760D01*
X0117949Y0304259D02*
X0118015Y0304259D01*
X0118015Y0304757D02*
X0117836Y0304757D01*
X0117338Y0305256D02*
X0118430Y0305256D01*
X0115477Y0305256D02*
X0114779Y0305256D01*
X0114891Y0303262D02*
X0114971Y0303262D01*
X0115470Y0302763D02*
X0114392Y0302763D01*
X0112911Y0302763D02*
X0112424Y0302763D01*
X0110942Y0302763D02*
X0110849Y0302763D01*
X0105137Y0308247D02*
X0138402Y0308247D01*
X0138402Y0308745D02*
X0105635Y0308745D01*
X0104638Y0307748D02*
X0138402Y0307748D01*
X0138402Y0307250D02*
X0104140Y0307250D01*
X0103641Y0306751D02*
X0138402Y0306751D01*
X0138402Y0306253D02*
X0103179Y0306253D01*
X0098278Y0305754D02*
X0097986Y0305754D01*
X0092553Y0305754D02*
X0092445Y0305754D01*
X0092445Y0305256D02*
X0092553Y0305256D01*
X0092553Y0304757D02*
X0092445Y0304757D01*
X0092445Y0304259D02*
X0092553Y0304259D01*
X0092553Y0303760D02*
X0092445Y0303760D01*
X0092445Y0303262D02*
X0092553Y0303262D01*
X0092553Y0302763D02*
X0092445Y0302763D01*
X0092445Y0302265D02*
X0092553Y0302265D01*
X0092553Y0301766D02*
X0092445Y0301766D01*
X0092445Y0301268D02*
X0092553Y0301268D01*
X0092553Y0300769D02*
X0092445Y0300769D01*
X0092445Y0300271D02*
X0092553Y0300271D01*
X0092553Y0299772D02*
X0092445Y0299772D01*
X0092445Y0299274D02*
X0092553Y0299274D01*
X0092553Y0298775D02*
X0092445Y0298775D01*
X0092445Y0298277D02*
X0092553Y0298277D01*
X0092553Y0297778D02*
X0092445Y0297778D01*
X0092445Y0297280D02*
X0092553Y0297280D01*
X0092553Y0296781D02*
X0092445Y0296781D01*
X0092445Y0296282D02*
X0092553Y0296282D01*
X0092553Y0295784D02*
X0092445Y0295784D01*
X0092445Y0295285D02*
X0092553Y0295285D01*
X0092553Y0294787D02*
X0092445Y0294787D01*
X0092445Y0294288D02*
X0092553Y0294288D01*
X0092553Y0293790D02*
X0092445Y0293790D01*
X0092445Y0293291D02*
X0092553Y0293291D01*
X0092553Y0292793D02*
X0092445Y0292793D01*
X0092445Y0292294D02*
X0092553Y0292294D01*
X0092553Y0291796D02*
X0092445Y0291796D01*
X0092445Y0291297D02*
X0092553Y0291297D01*
X0092553Y0290799D02*
X0092445Y0290799D01*
X0092445Y0290300D02*
X0092553Y0290300D01*
X0092553Y0289802D02*
X0092445Y0289802D01*
X0092445Y0289303D02*
X0092553Y0289303D01*
X0092553Y0288805D02*
X0092445Y0288805D01*
X0092445Y0288306D02*
X0092553Y0288306D01*
X0092553Y0287808D02*
X0092445Y0287808D01*
X0092445Y0287309D02*
X0092553Y0287309D01*
X0092553Y0286811D02*
X0092445Y0286811D01*
X0092445Y0286312D02*
X0092553Y0286312D01*
X0092553Y0285814D02*
X0092445Y0285814D01*
X0092445Y0285315D02*
X0092553Y0285315D01*
X0092553Y0284817D02*
X0092445Y0284817D01*
X0092445Y0284318D02*
X0092553Y0284318D01*
X0092553Y0283820D02*
X0092445Y0283820D01*
X0092445Y0283321D02*
X0092553Y0283321D01*
X0092553Y0282823D02*
X0092445Y0282823D01*
X0092445Y0282324D02*
X0092553Y0282324D01*
X0092553Y0281826D02*
X0092445Y0281826D01*
X0092445Y0281327D02*
X0092553Y0281327D01*
X0092553Y0280829D02*
X0092445Y0280829D01*
X0092445Y0280330D02*
X0092553Y0280330D01*
X0092553Y0279832D02*
X0092445Y0279832D01*
X0092445Y0279333D02*
X0092553Y0279333D01*
X0092553Y0278835D02*
X0092445Y0278835D01*
X0092445Y0278336D02*
X0092553Y0278336D01*
X0092553Y0277838D02*
X0092445Y0277838D01*
X0092445Y0277339D02*
X0092553Y0277339D01*
X0092553Y0276841D02*
X0092445Y0276841D01*
X0092445Y0276342D02*
X0092553Y0276342D01*
X0092553Y0275844D02*
X0092445Y0275844D01*
X0092445Y0275345D02*
X0092553Y0275345D01*
X0092553Y0274847D02*
X0092445Y0274847D01*
X0092445Y0274348D02*
X0092553Y0274348D01*
X0092553Y0273849D02*
X0092445Y0273849D01*
X0092445Y0273351D02*
X0092553Y0273351D01*
X0092553Y0272852D02*
X0092445Y0272852D01*
X0092445Y0272354D02*
X0092553Y0272354D01*
X0092553Y0271855D02*
X0092445Y0271855D01*
X0092445Y0271357D02*
X0092553Y0271357D01*
X0092553Y0270858D02*
X0092445Y0270858D01*
X0092445Y0270360D02*
X0092553Y0270360D01*
X0092553Y0269861D02*
X0092445Y0269861D01*
X0092445Y0269363D02*
X0092553Y0269363D01*
X0092553Y0268864D02*
X0092445Y0268864D01*
X0092445Y0268366D02*
X0092553Y0268366D01*
X0092553Y0267867D02*
X0092445Y0267867D01*
X0092445Y0267369D02*
X0092553Y0267369D01*
X0092553Y0266870D02*
X0092445Y0266870D01*
X0092445Y0266372D02*
X0092553Y0266372D01*
X0092553Y0265873D02*
X0092445Y0265873D01*
X0092445Y0265375D02*
X0092553Y0265375D01*
X0092553Y0264876D02*
X0092445Y0264876D01*
X0092445Y0264378D02*
X0092581Y0264378D01*
X0092581Y0263879D02*
X0092445Y0263879D01*
X0092445Y0263381D02*
X0092581Y0263381D01*
X0092581Y0262882D02*
X0092445Y0262882D01*
X0092445Y0262384D02*
X0092581Y0262384D01*
X0092581Y0261885D02*
X0092445Y0261885D01*
X0092445Y0261387D02*
X0092581Y0261387D01*
X0092581Y0260888D02*
X0092445Y0260888D01*
X0092445Y0260390D02*
X0092581Y0260390D01*
X0092581Y0259891D02*
X0092445Y0259891D01*
X0092445Y0259393D02*
X0092581Y0259393D01*
X0092581Y0258894D02*
X0092445Y0258894D01*
X0092445Y0258396D02*
X0092581Y0258396D01*
X0092581Y0257897D02*
X0092445Y0257897D01*
X0092445Y0257399D02*
X0092581Y0257399D01*
X0092581Y0256900D02*
X0092445Y0256900D01*
X0092445Y0256402D02*
X0092581Y0256402D01*
X0092581Y0255903D02*
X0092445Y0255903D01*
X0092445Y0255405D02*
X0092581Y0255405D01*
X0092581Y0254906D02*
X0092445Y0254906D01*
X0092445Y0254408D02*
X0092581Y0254408D01*
X0092581Y0253909D02*
X0092445Y0253909D01*
X0092445Y0253411D02*
X0092581Y0253411D01*
X0092581Y0252912D02*
X0092445Y0252912D01*
X0092445Y0252413D02*
X0092581Y0252413D01*
X0092581Y0251915D02*
X0092445Y0251915D01*
X0092445Y0251416D02*
X0092581Y0251416D01*
X0092581Y0250918D02*
X0092445Y0250918D01*
X0092445Y0250419D02*
X0092581Y0250419D01*
X0092581Y0249921D02*
X0092445Y0249921D01*
X0092445Y0249422D02*
X0092581Y0249422D01*
X0092581Y0248924D02*
X0092445Y0248924D01*
X0092445Y0248425D02*
X0092581Y0248425D01*
X0092581Y0247927D02*
X0092445Y0247927D01*
X0092445Y0247428D02*
X0092581Y0247428D01*
X0092581Y0246930D02*
X0092445Y0246930D01*
X0092445Y0246431D02*
X0092581Y0246431D01*
X0092581Y0245933D02*
X0092445Y0245933D01*
X0092445Y0245434D02*
X0092581Y0245434D01*
X0092581Y0244936D02*
X0092445Y0244936D01*
X0092445Y0244437D02*
X0092581Y0244437D01*
X0092581Y0243939D02*
X0092445Y0243939D01*
X0092445Y0243440D02*
X0092581Y0243440D01*
X0092581Y0242942D02*
X0092445Y0242942D01*
X0092445Y0242443D02*
X0092581Y0242443D01*
X0092581Y0241945D02*
X0092445Y0241945D01*
X0092445Y0241446D02*
X0092581Y0241446D01*
X0092581Y0240948D02*
X0092445Y0240948D01*
X0092445Y0240449D02*
X0092581Y0240449D01*
X0092581Y0239951D02*
X0092445Y0239951D01*
X0092445Y0239452D02*
X0092581Y0239452D01*
X0092581Y0238954D02*
X0092445Y0238954D01*
X0092445Y0238455D02*
X0092581Y0238455D01*
X0092581Y0237957D02*
X0092445Y0237957D01*
X0092445Y0237458D02*
X0092581Y0237458D01*
X0092581Y0236960D02*
X0092445Y0236960D01*
X0092445Y0236461D02*
X0092581Y0236461D01*
X0092581Y0235963D02*
X0092445Y0235963D01*
X0092445Y0235464D02*
X0092581Y0235464D01*
X0092581Y0234966D02*
X0092445Y0234966D01*
X0092445Y0234467D02*
X0092581Y0234467D01*
X0092581Y0233969D02*
X0092445Y0233969D01*
X0092445Y0233470D02*
X0092581Y0233470D01*
X0092581Y0232972D02*
X0092445Y0232972D01*
X0092445Y0232473D02*
X0092581Y0232473D01*
X0092581Y0231975D02*
X0092445Y0231975D01*
X0092445Y0231476D02*
X0092581Y0231476D01*
X0092581Y0230978D02*
X0092445Y0230978D01*
X0092445Y0230479D02*
X0092581Y0230479D01*
X0092581Y0229980D02*
X0092445Y0229980D01*
X0092445Y0229482D02*
X0092581Y0229482D01*
X0092581Y0228983D02*
X0092445Y0228983D01*
X0092445Y0228485D02*
X0092581Y0228485D01*
X0092581Y0227986D02*
X0092445Y0227986D01*
X0092445Y0227488D02*
X0092581Y0227488D01*
X0092581Y0226989D02*
X0092445Y0226989D01*
X0092445Y0226491D02*
X0092581Y0226491D01*
X0092581Y0225992D02*
X0092445Y0225992D01*
X0092445Y0225494D02*
X0092581Y0225494D01*
X0092581Y0224995D02*
X0092445Y0224995D01*
X0092445Y0224497D02*
X0092581Y0224497D01*
X0092581Y0223998D02*
X0092445Y0223998D01*
X0092445Y0223500D02*
X0092581Y0223500D01*
X0092581Y0223001D02*
X0092445Y0223001D01*
X0092445Y0222503D02*
X0092581Y0222503D01*
X0092581Y0222004D02*
X0092445Y0222004D01*
X0092445Y0221506D02*
X0092581Y0221506D01*
X0092581Y0221007D02*
X0092445Y0221007D01*
X0092445Y0220509D02*
X0092581Y0220509D01*
X0092581Y0220010D02*
X0092445Y0220010D01*
X0092445Y0219512D02*
X0092581Y0219512D01*
X0092581Y0219013D02*
X0092445Y0219013D01*
X0092445Y0218515D02*
X0092581Y0218515D01*
X0092581Y0218016D02*
X0092445Y0218016D01*
X0092445Y0217518D02*
X0092581Y0217518D01*
X0092581Y0217019D02*
X0092445Y0217019D01*
X0092445Y0216521D02*
X0092581Y0216521D01*
X0092581Y0216022D02*
X0092445Y0216022D01*
X0092445Y0215524D02*
X0092581Y0215524D01*
X0092581Y0215025D02*
X0092445Y0215025D01*
X0092445Y0214527D02*
X0092581Y0214527D01*
X0092580Y0214028D02*
X0092445Y0214028D01*
X0092445Y0213530D02*
X0092578Y0213530D01*
X0092575Y0213031D02*
X0092445Y0213031D01*
X0092445Y0212533D02*
X0092573Y0212533D01*
X0092570Y0212034D02*
X0092445Y0212034D01*
X0092445Y0211536D02*
X0092568Y0211536D01*
X0092565Y0211037D02*
X0092445Y0211037D01*
X0092445Y0210539D02*
X0092563Y0210539D01*
X0092560Y0210040D02*
X0092445Y0210040D01*
X0092445Y0209542D02*
X0092558Y0209542D01*
X0092555Y0209043D02*
X0092445Y0209043D01*
X0092445Y0208545D02*
X0092553Y0208545D01*
X0092550Y0208046D02*
X0092445Y0208046D01*
X0092445Y0207547D02*
X0092548Y0207547D01*
X0092545Y0207049D02*
X0092445Y0207049D01*
X0092445Y0206550D02*
X0092543Y0206550D01*
X0092540Y0206052D02*
X0092445Y0206052D01*
X0092445Y0205553D02*
X0092538Y0205553D01*
X0092535Y0205055D02*
X0092445Y0205055D01*
X0092445Y0204556D02*
X0092533Y0204556D01*
X0092530Y0204058D02*
X0092445Y0204058D01*
X0092445Y0203559D02*
X0092528Y0203559D01*
X0092525Y0203061D02*
X0092445Y0203061D01*
X0092445Y0202562D02*
X0092523Y0202562D01*
X0092520Y0202064D02*
X0092445Y0202064D01*
X0092445Y0201565D02*
X0092518Y0201565D01*
X0092515Y0201067D02*
X0092445Y0201067D01*
X0092445Y0200568D02*
X0092513Y0200568D01*
X0092510Y0200070D02*
X0092445Y0200070D01*
X0092445Y0199571D02*
X0092508Y0199571D01*
X0092505Y0199073D02*
X0092445Y0199073D01*
X0092445Y0198574D02*
X0092503Y0198574D01*
X0092500Y0198076D02*
X0092445Y0198076D01*
X0092445Y0197577D02*
X0092498Y0197577D01*
X0092495Y0197079D02*
X0092445Y0197079D01*
X0092445Y0196580D02*
X0092493Y0196580D01*
X0092490Y0196082D02*
X0092445Y0196082D01*
X0092445Y0195583D02*
X0092488Y0195583D01*
X0092485Y0195085D02*
X0092445Y0195085D01*
X0092445Y0194586D02*
X0092483Y0194586D01*
X0092480Y0194088D02*
X0092445Y0194088D01*
X0092445Y0193589D02*
X0092478Y0193589D01*
X0092475Y0193091D02*
X0092445Y0193091D01*
X0092445Y0192592D02*
X0092473Y0192592D01*
X0092445Y0192094D02*
X0092470Y0192094D01*
X0092445Y0191595D02*
X0092468Y0191595D01*
X0092445Y0191097D02*
X0092465Y0191097D01*
X0092445Y0190598D02*
X0092463Y0190598D01*
X0092445Y0190100D02*
X0092460Y0190100D01*
X0092445Y0189601D02*
X0092458Y0189601D01*
X0092445Y0189103D02*
X0092455Y0189103D01*
X0092445Y0188604D02*
X0092453Y0188604D01*
X0092445Y0188106D02*
X0092450Y0188106D01*
X0092445Y0187607D02*
X0092448Y0187607D01*
X0092445Y0187109D02*
X0092445Y0187109D01*
X0099833Y0187109D02*
X0111919Y0187109D01*
X0111919Y0187607D02*
X0099833Y0187607D01*
X0099833Y0188106D02*
X0111919Y0188106D01*
X0111919Y0188604D02*
X0106572Y0188604D01*
X0106141Y0188173D02*
X0107044Y0189076D01*
X0107044Y0190353D01*
X0106141Y0191256D01*
X0104863Y0191256D01*
X0103960Y0190353D01*
X0103960Y0189076D01*
X0104863Y0188173D01*
X0106141Y0188173D01*
X0107044Y0189103D02*
X0111919Y0189103D01*
X0111919Y0189601D02*
X0107044Y0189601D01*
X0107044Y0190100D02*
X0111919Y0190100D01*
X0111919Y0190598D02*
X0106799Y0190598D01*
X0106300Y0191097D02*
X0111919Y0191097D01*
X0111919Y0191131D02*
X0111919Y0174558D01*
X0108651Y0171289D01*
X0106540Y0171289D01*
X0107122Y0171871D01*
X0107122Y0172149D01*
X0108188Y0172149D01*
X0109091Y0173052D01*
X0109091Y0174330D01*
X0108352Y0175069D01*
X0109091Y0175808D01*
X0109091Y0177085D01*
X0108548Y0177628D01*
X0109091Y0178170D01*
X0109091Y0179448D01*
X0108548Y0179990D01*
X0109091Y0180533D01*
X0109091Y0181810D01*
X0108188Y0182713D01*
X0107036Y0182713D01*
X0107036Y0182819D01*
X0107755Y0182819D01*
X0108658Y0183722D01*
X0108658Y0184999D01*
X0107755Y0185902D01*
X0106478Y0185902D01*
X0105574Y0184999D01*
X0105574Y0184288D01*
X0104856Y0184288D01*
X0104456Y0183888D01*
X0099833Y0183888D01*
X0099833Y0201053D01*
X0099935Y0200950D01*
X0107076Y0193809D01*
X0109242Y0193809D01*
X0111919Y0191131D01*
X0111456Y0191595D02*
X0099833Y0191595D01*
X0099833Y0191097D02*
X0104704Y0191097D01*
X0104205Y0190598D02*
X0099833Y0190598D01*
X0099833Y0190100D02*
X0103960Y0190100D01*
X0103960Y0189601D02*
X0099833Y0189601D01*
X0099833Y0189103D02*
X0103960Y0189103D01*
X0104432Y0188604D02*
X0099833Y0188604D01*
X0099833Y0186610D02*
X0111919Y0186610D01*
X0111919Y0186111D02*
X0099833Y0186111D01*
X0099833Y0185613D02*
X0106189Y0185613D01*
X0105690Y0185114D02*
X0099833Y0185114D01*
X0099833Y0184616D02*
X0105574Y0184616D01*
X0104686Y0184117D02*
X0099833Y0184117D01*
X0099833Y0192094D02*
X0110957Y0192094D01*
X0110459Y0192592D02*
X0099833Y0192592D01*
X0099833Y0193091D02*
X0109960Y0193091D01*
X0109462Y0193589D02*
X0099833Y0193589D01*
X0099833Y0194088D02*
X0106798Y0194088D01*
X0106299Y0194586D02*
X0099833Y0194586D01*
X0099833Y0195085D02*
X0105801Y0195085D01*
X0105302Y0195583D02*
X0099833Y0195583D01*
X0099833Y0196082D02*
X0104804Y0196082D01*
X0104305Y0196580D02*
X0099833Y0196580D01*
X0099833Y0197079D02*
X0103807Y0197079D01*
X0103308Y0197577D02*
X0099833Y0197577D01*
X0099833Y0198076D02*
X0102810Y0198076D01*
X0102311Y0198574D02*
X0099833Y0198574D01*
X0099833Y0199073D02*
X0101813Y0199073D01*
X0101314Y0199571D02*
X0099833Y0199571D01*
X0099833Y0200070D02*
X0100816Y0200070D01*
X0100317Y0200568D02*
X0099833Y0200568D01*
X0103573Y0202904D02*
X0103573Y0212219D01*
X0103973Y0212619D01*
X0103973Y0213896D01*
X0103070Y0214800D01*
X0102044Y0214800D01*
X0102504Y0215259D01*
X0103070Y0215259D01*
X0103973Y0216163D01*
X0103973Y0217440D01*
X0103588Y0217825D01*
X0113086Y0217825D01*
X0112700Y0217440D01*
X0112700Y0216163D01*
X0113604Y0215259D01*
X0114881Y0215259D01*
X0115167Y0215546D01*
X0115167Y0213714D01*
X0115910Y0212972D01*
X0115259Y0212322D01*
X0115259Y0211650D01*
X0115178Y0211650D01*
X0114833Y0211304D01*
X0114487Y0211650D01*
X0113210Y0211650D01*
X0112864Y0211304D01*
X0112519Y0211650D01*
X0111241Y0211650D01*
X0110338Y0210747D01*
X0110338Y0209470D01*
X0111241Y0208567D01*
X0112519Y0208567D01*
X0112864Y0208912D01*
X0113210Y0208567D01*
X0114487Y0208567D01*
X0114833Y0208912D01*
X0115178Y0208567D01*
X0116456Y0208567D01*
X0116801Y0208912D01*
X0117147Y0208567D01*
X0118424Y0208567D01*
X0118770Y0208912D01*
X0119115Y0208567D01*
X0120393Y0208567D01*
X0121296Y0209470D01*
X0121296Y0210747D01*
X0120393Y0211650D01*
X0120311Y0211650D01*
X0120311Y0212322D01*
X0119408Y0213225D01*
X0119126Y0213225D01*
X0119616Y0213714D01*
X0119616Y0214734D01*
X0123140Y0211210D01*
X0123140Y0208613D01*
X0121360Y0206833D01*
X0119588Y0206833D01*
X0118920Y0206164D01*
X0117431Y0204676D01*
X0117431Y0169246D01*
X0110126Y0161941D01*
X0109457Y0161272D01*
X0109457Y0160091D01*
X0109380Y0160014D01*
X0109380Y0160445D01*
X0108077Y0161748D01*
X0106234Y0161748D01*
X0104931Y0160445D01*
X0104931Y0158602D01*
X0105630Y0157903D01*
X0104320Y0157903D01*
X0103652Y0157235D01*
X0103179Y0156762D01*
X0103179Y0164553D01*
X0103953Y0165327D01*
X0103953Y0164896D01*
X0105256Y0163593D01*
X0107098Y0163593D01*
X0108401Y0164896D01*
X0108401Y0166738D01*
X0107709Y0167431D01*
X0113928Y0167431D01*
X0114596Y0168100D01*
X0117352Y0170856D01*
X0117352Y0191487D01*
X0111644Y0197195D01*
X0110975Y0197864D01*
X0108613Y0197864D01*
X0103573Y0202904D01*
X0103573Y0203061D02*
X0117431Y0203061D01*
X0117431Y0203559D02*
X0103573Y0203559D01*
X0103573Y0204058D02*
X0117431Y0204058D01*
X0117431Y0204556D02*
X0103573Y0204556D01*
X0103573Y0205055D02*
X0117810Y0205055D01*
X0118309Y0205553D02*
X0103573Y0205553D01*
X0103573Y0206052D02*
X0118807Y0206052D01*
X0119306Y0206550D02*
X0103573Y0206550D01*
X0103573Y0207049D02*
X0121576Y0207049D01*
X0122075Y0207547D02*
X0103573Y0207547D01*
X0103573Y0208046D02*
X0122573Y0208046D01*
X0123072Y0208545D02*
X0103573Y0208545D01*
X0103573Y0209043D02*
X0110765Y0209043D01*
X0110338Y0209542D02*
X0103573Y0209542D01*
X0103573Y0210040D02*
X0110338Y0210040D01*
X0110338Y0210539D02*
X0103573Y0210539D01*
X0103573Y0211037D02*
X0110628Y0211037D01*
X0111127Y0211536D02*
X0103573Y0211536D01*
X0103573Y0212034D02*
X0115259Y0212034D01*
X0115064Y0211536D02*
X0114601Y0211536D01*
X0115470Y0212533D02*
X0103886Y0212533D01*
X0103973Y0213031D02*
X0115851Y0213031D01*
X0115352Y0213530D02*
X0103973Y0213530D01*
X0103841Y0214028D02*
X0115167Y0214028D01*
X0115167Y0214527D02*
X0103343Y0214527D01*
X0103334Y0215524D02*
X0113339Y0215524D01*
X0112841Y0216022D02*
X0103832Y0216022D01*
X0103973Y0216521D02*
X0112700Y0216521D01*
X0112700Y0217019D02*
X0103973Y0217019D01*
X0103895Y0217518D02*
X0112778Y0217518D01*
X0115145Y0215524D02*
X0115167Y0215524D01*
X0115167Y0215025D02*
X0102270Y0215025D01*
X0099833Y0220108D02*
X0099833Y0227746D01*
X0102510Y0230423D01*
X0102510Y0230423D01*
X0103179Y0231092D01*
X0103179Y0265645D01*
X0103367Y0265456D01*
X0104644Y0265456D01*
X0105548Y0266359D01*
X0105548Y0266870D02*
X0150703Y0266870D01*
X0150910Y0266372D02*
X0152199Y0265083D01*
X0153882Y0264386D01*
X0155704Y0264386D01*
X0157388Y0265083D01*
X0158677Y0266372D01*
X0233587Y0266372D01*
X0234876Y0265083D01*
X0236559Y0264386D01*
X0238382Y0264386D01*
X0240065Y0265083D01*
X0241354Y0266372D01*
X0256512Y0266372D01*
X0256512Y0266870D02*
X0241560Y0266870D01*
X0241354Y0266372D02*
X0242051Y0268055D01*
X0242051Y0269878D01*
X0241354Y0271561D01*
X0240065Y0272850D01*
X0238382Y0273547D01*
X0236559Y0273547D01*
X0234876Y0272850D01*
X0233587Y0271561D01*
X0232890Y0269878D01*
X0232890Y0268055D01*
X0233587Y0266372D01*
X0233381Y0266870D02*
X0158883Y0266870D01*
X0158677Y0266372D02*
X0159374Y0268055D01*
X0159374Y0269878D01*
X0158677Y0271561D01*
X0157388Y0272850D01*
X0155704Y0273547D01*
X0155176Y0273547D01*
X0155902Y0274273D01*
X0155902Y0275550D01*
X0155255Y0276197D01*
X0157796Y0276197D01*
X0157149Y0275550D01*
X0157149Y0274273D01*
X0158052Y0273370D01*
X0159330Y0273370D01*
X0160233Y0274273D01*
X0160233Y0275550D01*
X0159586Y0276197D01*
X0183387Y0276197D01*
X0183134Y0275944D01*
X0183134Y0274667D01*
X0184037Y0273763D01*
X0185314Y0273763D01*
X0186217Y0274667D01*
X0186217Y0275944D01*
X0185964Y0276197D01*
X0214489Y0276197D01*
X0213842Y0275550D01*
X0213842Y0274273D01*
X0214745Y0273370D01*
X0216022Y0273370D01*
X0216926Y0274273D01*
X0216926Y0275550D01*
X0216279Y0276197D01*
X0253219Y0276197D01*
X0254071Y0276085D01*
X0255547Y0275232D01*
X0256400Y0273756D01*
X0256512Y0272904D01*
X0256512Y0161440D01*
X0257739Y0159314D01*
X0257739Y0159314D01*
X0257739Y0159314D01*
X0259865Y0158087D01*
X0324085Y0158087D01*
X0324937Y0157974D01*
X0326413Y0157122D01*
X0327266Y0155646D01*
X0327378Y0154793D01*
X0327378Y0115423D01*
X0327266Y0114571D01*
X0326413Y0113095D01*
X0324937Y0112242D01*
X0324085Y0112130D01*
X0283287Y0112130D01*
X0283855Y0112698D01*
X0283855Y0113975D01*
X0283450Y0114380D01*
X0284061Y0114380D01*
X0285364Y0115683D01*
X0285364Y0117526D01*
X0284681Y0118209D01*
X0285311Y0118840D01*
X0285311Y0120117D01*
X0284408Y0121020D01*
X0283131Y0121020D01*
X0282549Y0120438D01*
X0281967Y0121020D01*
X0280690Y0121020D01*
X0279787Y0120117D01*
X0279787Y0118840D01*
X0280690Y0117937D01*
X0281326Y0117937D01*
X0280915Y0117526D01*
X0280915Y0115683D01*
X0281720Y0114878D01*
X0281674Y0114878D01*
X0280771Y0113975D01*
X0280771Y0112698D01*
X0281339Y0112130D01*
X0226849Y0112130D01*
X0227431Y0112713D01*
X0227845Y0113711D01*
X0227845Y0113767D01*
X0229934Y0115856D01*
X0233007Y0115856D01*
X0232228Y0115078D01*
X0232228Y0113800D01*
X0233131Y0112897D01*
X0234408Y0112897D01*
X0234774Y0113263D01*
X0235060Y0112976D01*
X0236337Y0112976D01*
X0236742Y0113381D01*
X0237068Y0113055D01*
X0238345Y0113055D01*
X0238711Y0113420D01*
X0239076Y0113055D01*
X0240353Y0113055D01*
X0240640Y0113341D01*
X0241005Y0112976D01*
X0242282Y0112976D01*
X0242648Y0113341D01*
X0243131Y0112858D01*
X0244408Y0112858D01*
X0244793Y0113243D01*
X0244903Y0113134D01*
X0246180Y0113134D01*
X0246900Y0113853D01*
X0247226Y0113527D01*
X0248503Y0113527D01*
X0248593Y0113617D01*
X0249470Y0112740D01*
X0250747Y0112740D01*
X0251650Y0113643D01*
X0251650Y0114920D01*
X0250747Y0115823D01*
X0249470Y0115823D01*
X0249380Y0115733D01*
X0249257Y0115856D01*
X0251782Y0115856D01*
X0251782Y0114108D01*
X0253085Y0112805D01*
X0254927Y0112805D01*
X0256230Y0114108D01*
X0256230Y0115951D01*
X0254927Y0117254D01*
X0254496Y0117254D01*
X0262148Y0124906D01*
X0280137Y0124906D01*
X0281135Y0125319D01*
X0281899Y0126083D01*
X0281973Y0126260D01*
X0282737Y0125496D01*
X0284015Y0125496D01*
X0284918Y0126399D01*
X0284918Y0127676D01*
X0284015Y0128579D01*
X0282737Y0128579D01*
X0282313Y0128155D01*
X0282313Y0128162D01*
X0281899Y0129161D01*
X0281424Y0129636D01*
X0287550Y0129636D01*
X0291368Y0133454D01*
X0291368Y0140763D01*
X0291768Y0141163D01*
X0291768Y0142440D01*
X0290865Y0143343D01*
X0289588Y0143343D01*
X0288685Y0142440D01*
X0288685Y0141163D01*
X0289085Y0140763D01*
X0289085Y0134400D01*
X0286604Y0131919D01*
X0268785Y0131919D01*
X0269406Y0132541D01*
X0269406Y0133818D01*
X0268883Y0134341D01*
X0269445Y0134903D01*
X0269445Y0136180D01*
X0269060Y0136565D01*
X0269603Y0137107D01*
X0269603Y0138385D01*
X0269237Y0138750D01*
X0269800Y0139312D01*
X0269800Y0140589D01*
X0268896Y0141492D01*
X0268751Y0141492D01*
X0269248Y0141989D01*
X0269248Y0143267D01*
X0268345Y0144170D01*
X0267068Y0144170D01*
X0266644Y0143745D01*
X0266062Y0144327D01*
X0264785Y0144327D01*
X0263882Y0143424D01*
X0263882Y0142147D01*
X0264785Y0141244D01*
X0264930Y0141244D01*
X0264708Y0141022D01*
X0264708Y0139745D01*
X0265611Y0138842D01*
X0266889Y0138842D01*
X0267037Y0138991D01*
X0267082Y0138947D01*
X0266519Y0138385D01*
X0266519Y0137107D01*
X0266904Y0136722D01*
X0266362Y0136180D01*
X0266362Y0134903D01*
X0266885Y0134380D01*
X0266322Y0133818D01*
X0266322Y0132541D01*
X0266944Y0131919D01*
X0259334Y0131919D01*
X0258665Y0131250D01*
X0249990Y0122575D01*
X0232983Y0122575D01*
X0233185Y0122777D01*
X0233185Y0124054D01*
X0232282Y0124957D01*
X0231005Y0124957D01*
X0230102Y0124054D01*
X0230102Y0122777D01*
X0230304Y0122575D01*
X0227689Y0122575D01*
X0222169Y0128095D01*
X0222169Y0128660D01*
X0221266Y0129563D01*
X0219989Y0129563D01*
X0219086Y0128660D01*
X0219086Y0127383D01*
X0219989Y0126480D01*
X0220555Y0126480D01*
X0226075Y0120960D01*
X0226715Y0120320D01*
X0222825Y0116431D01*
X0222412Y0115433D01*
X0222412Y0113711D01*
X0222825Y0112713D01*
X0223408Y0112130D01*
X0172406Y0112130D01*
X0172864Y0112588D01*
X0174722Y0114446D01*
X0174722Y0114861D01*
X0174722Y0114861D01*
X0174722Y0126700D01*
X0175122Y0127100D01*
X0175122Y0128377D01*
X0174219Y0129280D01*
X0172942Y0129280D01*
X0172039Y0128377D01*
X0172039Y0127100D01*
X0172439Y0126700D01*
X0172439Y0115807D01*
X0172439Y0115807D01*
X0172439Y0115392D01*
X0171250Y0114203D01*
X0169926Y0114203D01*
X0170311Y0114588D01*
X0170311Y0114669D01*
X0170983Y0114669D01*
X0171886Y0115572D01*
X0171886Y0116849D01*
X0171344Y0117392D01*
X0171886Y0117934D01*
X0171886Y0119211D01*
X0171541Y0119557D01*
X0171886Y0119903D01*
X0171886Y0121180D01*
X0171344Y0121722D01*
X0171886Y0122265D01*
X0171886Y0123542D01*
X0171344Y0124085D01*
X0171886Y0124627D01*
X0171886Y0125904D01*
X0170983Y0126807D01*
X0169706Y0126807D01*
X0169044Y0126146D01*
X0169044Y0126975D01*
X0168141Y0127878D01*
X0166864Y0127878D01*
X0166464Y0127478D01*
X0166007Y0127478D01*
X0158022Y0135463D01*
X0142509Y0135463D01*
X0141841Y0134794D01*
X0132273Y0125226D01*
X0131991Y0125226D01*
X0143093Y0136329D01*
X0169613Y0136329D01*
X0169903Y0136039D01*
X0170645Y0136039D01*
X0166307Y0131701D01*
X0166213Y0131795D01*
X0164936Y0131795D01*
X0164033Y0130892D01*
X0164033Y0129615D01*
X0164936Y0128712D01*
X0166213Y0128712D01*
X0166613Y0129112D01*
X0166947Y0129112D01*
X0167616Y0129781D01*
X0174045Y0136210D01*
X0174045Y0149164D01*
X0172786Y0150423D01*
X0150777Y0150423D01*
X0129911Y0129557D01*
X0119439Y0129557D01*
X0114990Y0134006D01*
X0114990Y0138731D01*
X0112234Y0141487D01*
X0111565Y0142155D01*
X0104872Y0142155D01*
X0104643Y0142385D01*
X0104643Y0154997D01*
X0105266Y0155620D01*
X0108216Y0155620D01*
X0111126Y0158530D01*
X0111126Y0158092D01*
X0112029Y0157189D01*
X0113306Y0157189D01*
X0113848Y0157731D01*
X0114391Y0157189D01*
X0115668Y0157189D01*
X0116211Y0157731D01*
X0116753Y0157189D01*
X0118030Y0157189D01*
X0118573Y0157731D01*
X0119115Y0157189D01*
X0119575Y0157189D01*
X0119393Y0157007D01*
X0119393Y0155730D01*
X0120296Y0154826D01*
X0121574Y0154826D01*
X0122155Y0155408D01*
X0122541Y0155023D01*
X0123818Y0155023D01*
X0124721Y0155926D01*
X0124721Y0157189D01*
X0125117Y0157189D01*
X0125659Y0157731D01*
X0126202Y0157189D01*
X0127479Y0157189D01*
X0128022Y0157731D01*
X0128564Y0157189D01*
X0129841Y0157189D01*
X0130581Y0157928D01*
X0131320Y0157189D01*
X0132597Y0157189D01*
X0133500Y0158092D01*
X0133500Y0159369D01*
X0132597Y0160272D01*
X0131320Y0160272D01*
X0130581Y0159533D01*
X0129841Y0160272D01*
X0128564Y0160272D01*
X0128022Y0159729D01*
X0127479Y0160272D01*
X0126202Y0160272D01*
X0125659Y0159729D01*
X0125117Y0160272D01*
X0123840Y0160272D01*
X0123297Y0159729D01*
X0122755Y0160272D01*
X0121478Y0160272D01*
X0120935Y0159729D01*
X0120393Y0160272D01*
X0119115Y0160272D01*
X0118573Y0159729D01*
X0118030Y0160272D01*
X0116753Y0160272D01*
X0116211Y0159729D01*
X0115668Y0160272D01*
X0114391Y0160272D01*
X0113848Y0159729D01*
X0113306Y0160272D01*
X0112029Y0160272D01*
X0111740Y0159984D01*
X0111740Y0160326D01*
X0119715Y0168300D01*
X0119715Y0171550D01*
X0120296Y0170968D01*
X0121574Y0170968D01*
X0122116Y0171511D01*
X0122659Y0170968D01*
X0123936Y0170968D01*
X0124839Y0171871D01*
X0124839Y0173148D01*
X0123936Y0174052D01*
X0122659Y0174052D01*
X0122116Y0173509D01*
X0121574Y0174052D01*
X0120296Y0174052D01*
X0119715Y0173470D01*
X0119715Y0183912D01*
X0120257Y0183370D01*
X0121534Y0183370D01*
X0121919Y0183755D01*
X0122265Y0183409D01*
X0123542Y0183409D01*
X0124445Y0184312D01*
X0124445Y0185589D01*
X0123542Y0186492D01*
X0122265Y0186492D01*
X0121880Y0186107D01*
X0121534Y0186453D01*
X0120257Y0186453D01*
X0119715Y0185911D01*
X0119715Y0188322D01*
X0120100Y0187937D01*
X0121377Y0187937D01*
X0122195Y0188755D01*
X0122974Y0187976D01*
X0124251Y0187976D01*
X0125154Y0188879D01*
X0125154Y0190156D01*
X0124251Y0191059D01*
X0122974Y0191059D01*
X0122155Y0190241D01*
X0121377Y0191020D01*
X0120100Y0191020D01*
X0119715Y0190635D01*
X0119715Y0203730D01*
X0120534Y0204550D01*
X0122306Y0204550D01*
X0122975Y0205218D01*
X0125423Y0207667D01*
X0125423Y0212156D01*
X0120102Y0217477D01*
X0119754Y0217825D01*
X0130305Y0217825D01*
X0135423Y0212707D01*
X0147627Y0212707D01*
X0150889Y0209445D01*
X0150889Y0208879D01*
X0151793Y0207976D01*
X0153070Y0207976D01*
X0153973Y0208879D01*
X0153973Y0210156D01*
X0153070Y0211059D01*
X0152504Y0211059D01*
X0149242Y0214321D01*
X0148573Y0214990D01*
X0142611Y0214990D01*
X0143626Y0216005D01*
X0143626Y0217848D01*
X0142323Y0219151D01*
X0140480Y0219151D01*
X0139177Y0217848D01*
X0139177Y0216005D01*
X0140193Y0214990D01*
X0136369Y0214990D01*
X0131919Y0219439D01*
X0131250Y0220108D01*
X0099833Y0220108D01*
X0099833Y0220509D02*
X0155719Y0220509D01*
X0155719Y0220675D02*
X0155719Y0218833D01*
X0157022Y0217530D01*
X0158864Y0217530D01*
X0160167Y0218833D01*
X0160167Y0220675D01*
X0158864Y0221978D01*
X0157022Y0221978D01*
X0155719Y0220675D01*
X0156051Y0221007D02*
X0153681Y0221007D01*
X0153352Y0220679D02*
X0154655Y0221982D01*
X0154655Y0223825D01*
X0153352Y0225128D01*
X0151510Y0225128D01*
X0150207Y0223825D01*
X0150207Y0221982D01*
X0151510Y0220679D01*
X0153352Y0220679D01*
X0154179Y0221506D02*
X0156549Y0221506D01*
X0155719Y0220010D02*
X0131348Y0220010D01*
X0131847Y0219512D02*
X0155719Y0219512D01*
X0155719Y0219013D02*
X0142461Y0219013D01*
X0142959Y0218515D02*
X0156036Y0218515D01*
X0156535Y0218016D02*
X0143458Y0218016D01*
X0143626Y0217518D02*
X0163511Y0217518D01*
X0163094Y0217934D02*
X0163997Y0217031D01*
X0165274Y0217031D01*
X0166178Y0217934D01*
X0166178Y0219211D01*
X0165274Y0220115D01*
X0163997Y0220115D01*
X0163094Y0219211D01*
X0163094Y0217934D01*
X0163094Y0218016D02*
X0159351Y0218016D01*
X0159849Y0218515D02*
X0163094Y0218515D01*
X0163094Y0219013D02*
X0160167Y0219013D01*
X0160167Y0219512D02*
X0163394Y0219512D01*
X0163893Y0220010D02*
X0160167Y0220010D01*
X0160167Y0220509D02*
X0165850Y0220509D01*
X0165850Y0221007D02*
X0159835Y0221007D01*
X0159337Y0221506D02*
X0166176Y0221506D01*
X0166393Y0221722D02*
X0165850Y0221180D01*
X0165850Y0219903D01*
X0166637Y0219115D01*
X0166637Y0217934D01*
X0167541Y0217031D01*
X0168818Y0217031D01*
X0169721Y0217934D01*
X0169721Y0219000D01*
X0170786Y0219000D01*
X0171689Y0219903D01*
X0171689Y0221180D01*
X0171147Y0221722D01*
X0171689Y0222265D01*
X0171689Y0223542D01*
X0171147Y0224085D01*
X0171689Y0224627D01*
X0171689Y0225904D01*
X0171147Y0226447D01*
X0171689Y0226989D01*
X0171689Y0228267D01*
X0170950Y0229006D01*
X0171689Y0229745D01*
X0171689Y0231022D01*
X0170786Y0231926D01*
X0169509Y0231926D01*
X0168770Y0231186D01*
X0168030Y0231926D01*
X0166753Y0231926D01*
X0165850Y0231022D01*
X0165850Y0229745D01*
X0166589Y0229006D01*
X0165850Y0228267D01*
X0165850Y0226989D01*
X0166393Y0226447D01*
X0165850Y0225904D01*
X0165850Y0224627D01*
X0166393Y0224085D01*
X0165850Y0223542D01*
X0165850Y0222265D01*
X0166393Y0221722D01*
X0166111Y0222004D02*
X0154655Y0222004D01*
X0154655Y0222503D02*
X0165850Y0222503D01*
X0165850Y0223001D02*
X0154655Y0223001D01*
X0154655Y0223500D02*
X0165850Y0223500D01*
X0166306Y0223998D02*
X0154482Y0223998D01*
X0153984Y0224497D02*
X0165980Y0224497D01*
X0165850Y0224995D02*
X0153485Y0224995D01*
X0151377Y0224995D02*
X0138524Y0224995D01*
X0139023Y0224497D02*
X0150879Y0224497D01*
X0150380Y0223998D02*
X0139301Y0223998D01*
X0139301Y0224219D02*
X0137998Y0225522D01*
X0136155Y0225522D01*
X0134852Y0224219D01*
X0134852Y0222376D01*
X0136155Y0221073D01*
X0137998Y0221073D01*
X0139301Y0222376D01*
X0139301Y0224219D01*
X0139301Y0223500D02*
X0150207Y0223500D01*
X0150207Y0223001D02*
X0139301Y0223001D01*
X0139301Y0222503D02*
X0150207Y0222503D01*
X0150207Y0222004D02*
X0138930Y0222004D01*
X0138431Y0221506D02*
X0150683Y0221506D01*
X0151182Y0221007D02*
X0099833Y0221007D01*
X0099833Y0221506D02*
X0104823Y0221506D01*
X0105256Y0221073D02*
X0107098Y0221073D01*
X0108401Y0222376D01*
X0108401Y0224219D01*
X0107098Y0225522D01*
X0105256Y0225522D01*
X0103953Y0224219D01*
X0103953Y0222376D01*
X0105256Y0221073D01*
X0104324Y0222004D02*
X0099833Y0222004D01*
X0099833Y0222503D02*
X0103953Y0222503D01*
X0103953Y0223001D02*
X0099833Y0223001D01*
X0099833Y0223500D02*
X0103953Y0223500D01*
X0103953Y0223998D02*
X0099833Y0223998D01*
X0099833Y0224497D02*
X0104231Y0224497D01*
X0104730Y0224995D02*
X0099833Y0224995D01*
X0099833Y0225494D02*
X0105228Y0225494D01*
X0107126Y0225494D02*
X0120773Y0225494D01*
X0120801Y0225522D02*
X0119498Y0224219D01*
X0119498Y0222376D01*
X0120801Y0221073D01*
X0122644Y0221073D01*
X0123947Y0222376D01*
X0123947Y0224219D01*
X0122644Y0225522D01*
X0120801Y0225522D01*
X0120275Y0224995D02*
X0107625Y0224995D01*
X0108123Y0224497D02*
X0119776Y0224497D01*
X0119498Y0223998D02*
X0108401Y0223998D01*
X0108401Y0223500D02*
X0119498Y0223500D01*
X0119498Y0223001D02*
X0108401Y0223001D01*
X0108401Y0222503D02*
X0119498Y0222503D01*
X0119870Y0222004D02*
X0108030Y0222004D01*
X0107531Y0221506D02*
X0120368Y0221506D01*
X0123077Y0221506D02*
X0135722Y0221506D01*
X0135224Y0222004D02*
X0123575Y0222004D01*
X0123947Y0222503D02*
X0134852Y0222503D01*
X0134852Y0223001D02*
X0123947Y0223001D01*
X0123947Y0223500D02*
X0134852Y0223500D01*
X0134852Y0223998D02*
X0123947Y0223998D01*
X0123669Y0224497D02*
X0135131Y0224497D01*
X0135629Y0224995D02*
X0123170Y0224995D01*
X0122672Y0225494D02*
X0136128Y0225494D01*
X0138026Y0225494D02*
X0165850Y0225494D01*
X0165938Y0225992D02*
X0099833Y0225992D01*
X0099833Y0226491D02*
X0166348Y0226491D01*
X0165850Y0226989D02*
X0099833Y0226989D01*
X0099833Y0227488D02*
X0165850Y0227488D01*
X0165850Y0227986D02*
X0100073Y0227986D01*
X0100572Y0228485D02*
X0166068Y0228485D01*
X0166567Y0228983D02*
X0107542Y0228983D01*
X0107400Y0228842D02*
X0108303Y0229745D01*
X0108303Y0230220D01*
X0108778Y0230220D01*
X0109681Y0231123D01*
X0109681Y0232371D01*
X0110060Y0231992D01*
X0111337Y0231992D01*
X0112241Y0232895D01*
X0112241Y0234172D01*
X0111337Y0235075D01*
X0110060Y0235075D01*
X0109715Y0234729D01*
X0108975Y0235469D01*
X0107698Y0235469D01*
X0106795Y0234566D01*
X0106795Y0233289D01*
X0107141Y0232943D01*
X0106598Y0232400D01*
X0106598Y0231926D01*
X0106123Y0231926D01*
X0105220Y0231022D01*
X0105220Y0229745D01*
X0106123Y0228842D01*
X0107400Y0228842D01*
X0108040Y0229482D02*
X0166113Y0229482D01*
X0165850Y0229980D02*
X0108303Y0229980D01*
X0109037Y0230479D02*
X0165850Y0230479D01*
X0165850Y0230978D02*
X0109536Y0230978D01*
X0109681Y0231476D02*
X0166304Y0231476D01*
X0168480Y0231476D02*
X0169060Y0231476D01*
X0171236Y0231476D02*
X0182779Y0231476D01*
X0182779Y0230978D02*
X0171689Y0230978D01*
X0171689Y0230479D02*
X0183227Y0230479D01*
X0182779Y0230926D02*
X0183682Y0230023D01*
X0184959Y0230023D01*
X0185863Y0230926D01*
X0185863Y0232204D01*
X0184959Y0233107D01*
X0183682Y0233107D01*
X0182779Y0232204D01*
X0182779Y0230926D01*
X0182779Y0231975D02*
X0109681Y0231975D01*
X0111819Y0232473D02*
X0183049Y0232473D01*
X0183547Y0232972D02*
X0112241Y0232972D01*
X0112241Y0233470D02*
X0213967Y0233470D01*
X0213997Y0233500D02*
X0213094Y0232597D01*
X0213094Y0231320D01*
X0213997Y0230417D01*
X0215274Y0230417D01*
X0216178Y0231320D01*
X0216178Y0232597D01*
X0215274Y0233500D01*
X0213997Y0233500D01*
X0213468Y0232972D02*
X0185095Y0232972D01*
X0185593Y0232473D02*
X0213094Y0232473D01*
X0213094Y0231975D02*
X0185863Y0231975D01*
X0185863Y0231476D02*
X0213094Y0231476D01*
X0213437Y0230978D02*
X0185863Y0230978D01*
X0185415Y0230479D02*
X0213935Y0230479D01*
X0215336Y0230479D02*
X0228896Y0230479D01*
X0228448Y0230926D02*
X0229352Y0230023D01*
X0230629Y0230023D01*
X0231532Y0230926D01*
X0231532Y0232204D01*
X0230629Y0233107D01*
X0229352Y0233107D01*
X0228448Y0232204D01*
X0228448Y0230926D01*
X0228448Y0230978D02*
X0215835Y0230978D01*
X0216178Y0231476D02*
X0228448Y0231476D01*
X0228448Y0231975D02*
X0216178Y0231975D01*
X0216178Y0232473D02*
X0228718Y0232473D01*
X0229216Y0232972D02*
X0215803Y0232972D01*
X0215305Y0233470D02*
X0249708Y0233470D01*
X0249708Y0232972D02*
X0230764Y0232972D01*
X0231262Y0232473D02*
X0249978Y0232473D01*
X0250054Y0232549D02*
X0249708Y0232204D01*
X0249708Y0230926D01*
X0250054Y0230581D01*
X0249708Y0230235D01*
X0249708Y0228958D01*
X0250054Y0228612D01*
X0249708Y0228267D01*
X0249708Y0226989D01*
X0250054Y0226644D01*
X0249708Y0226298D01*
X0249708Y0225021D01*
X0250054Y0224675D01*
X0249708Y0224330D01*
X0249708Y0223052D01*
X0250054Y0222707D01*
X0249708Y0222361D01*
X0249708Y0221084D01*
X0250054Y0220738D01*
X0249708Y0220393D01*
X0249708Y0219115D01*
X0250054Y0218770D01*
X0249708Y0218424D01*
X0249708Y0217147D01*
X0250054Y0216801D01*
X0249708Y0216456D01*
X0249708Y0215178D01*
X0250054Y0214833D01*
X0249708Y0214487D01*
X0249708Y0213210D01*
X0250054Y0212864D01*
X0249708Y0212519D01*
X0249708Y0211241D01*
X0250054Y0210896D01*
X0249708Y0210550D01*
X0249708Y0209273D01*
X0250054Y0208927D01*
X0249708Y0208581D01*
X0249708Y0207304D01*
X0250054Y0206959D01*
X0249708Y0206613D01*
X0249708Y0205336D01*
X0250054Y0204990D01*
X0249708Y0204644D01*
X0249708Y0203367D01*
X0250054Y0203022D01*
X0249708Y0202676D01*
X0249708Y0201399D01*
X0250054Y0201053D01*
X0249708Y0200707D01*
X0249708Y0199430D01*
X0250054Y0199085D01*
X0249708Y0198739D01*
X0249708Y0197462D01*
X0250054Y0197116D01*
X0249708Y0196770D01*
X0249708Y0195493D01*
X0250054Y0195148D01*
X0249708Y0194802D01*
X0249708Y0193525D01*
X0250054Y0193179D01*
X0249708Y0192833D01*
X0249708Y0191556D01*
X0250054Y0191211D01*
X0249708Y0190865D01*
X0249708Y0189588D01*
X0250054Y0189242D01*
X0249708Y0188896D01*
X0249708Y0187619D01*
X0250054Y0187274D01*
X0249708Y0186928D01*
X0249708Y0185651D01*
X0250054Y0185305D01*
X0249708Y0184959D01*
X0249708Y0183682D01*
X0250496Y0182895D01*
X0250496Y0181714D01*
X0251038Y0181171D01*
X0250496Y0180629D01*
X0250496Y0179352D01*
X0251209Y0178638D01*
X0250193Y0179059D01*
X0248370Y0179059D01*
X0246687Y0178362D01*
X0245398Y0177073D01*
X0244701Y0175390D01*
X0244701Y0173567D01*
X0245398Y0171884D01*
X0246687Y0170595D01*
X0248370Y0169898D01*
X0250193Y0169898D01*
X0251876Y0170595D01*
X0253165Y0171884D01*
X0253862Y0173567D01*
X0253862Y0175390D01*
X0253165Y0177073D01*
X0251876Y0178362D01*
X0251667Y0178448D01*
X0252676Y0178448D01*
X0253579Y0179352D01*
X0253579Y0180629D01*
X0253037Y0181171D01*
X0253579Y0181714D01*
X0253579Y0182991D01*
X0252792Y0183778D01*
X0252792Y0184959D01*
X0252446Y0185305D01*
X0252792Y0185651D01*
X0252792Y0186928D01*
X0252446Y0187274D01*
X0252792Y0187619D01*
X0252792Y0188896D01*
X0252446Y0189242D01*
X0252792Y0189588D01*
X0252792Y0190865D01*
X0252446Y0191211D01*
X0252792Y0191556D01*
X0252792Y0192833D01*
X0252446Y0193179D01*
X0252792Y0193525D01*
X0252792Y0194802D01*
X0252446Y0195148D01*
X0252792Y0195493D01*
X0252792Y0196770D01*
X0252446Y0197116D01*
X0252792Y0197462D01*
X0252792Y0198739D01*
X0252446Y0199085D01*
X0252792Y0199430D01*
X0252792Y0200707D01*
X0252446Y0201053D01*
X0252792Y0201399D01*
X0252792Y0202676D01*
X0252446Y0203022D01*
X0252792Y0203367D01*
X0252792Y0204644D01*
X0252446Y0204990D01*
X0252792Y0205336D01*
X0252792Y0206613D01*
X0252446Y0206959D01*
X0252792Y0207304D01*
X0252792Y0208581D01*
X0252446Y0208927D01*
X0252792Y0209273D01*
X0252792Y0210550D01*
X0252446Y0210896D01*
X0252792Y0211241D01*
X0252792Y0212519D01*
X0252446Y0212864D01*
X0252792Y0213210D01*
X0252792Y0214487D01*
X0252446Y0214833D01*
X0252792Y0215178D01*
X0252792Y0216456D01*
X0252446Y0216801D01*
X0252792Y0217147D01*
X0252792Y0218424D01*
X0252446Y0218770D01*
X0252792Y0219115D01*
X0252792Y0220393D01*
X0252446Y0220738D01*
X0252792Y0221084D01*
X0252792Y0222361D01*
X0252446Y0222707D01*
X0252792Y0223052D01*
X0252792Y0224330D01*
X0252446Y0224675D01*
X0252792Y0225021D01*
X0252792Y0226298D01*
X0252446Y0226644D01*
X0252792Y0226989D01*
X0252792Y0228267D01*
X0252446Y0228612D01*
X0252792Y0228958D01*
X0252792Y0230235D01*
X0252446Y0230581D01*
X0252792Y0230926D01*
X0252792Y0232204D01*
X0252446Y0232549D01*
X0252792Y0232895D01*
X0252792Y0234172D01*
X0252446Y0234518D01*
X0252792Y0234863D01*
X0252792Y0236141D01*
X0252446Y0236486D01*
X0252792Y0236832D01*
X0252792Y0238109D01*
X0252446Y0238455D01*
X0252792Y0238800D01*
X0252792Y0239866D01*
X0253857Y0239866D01*
X0254760Y0240769D01*
X0254760Y0242046D01*
X0254415Y0242392D01*
X0254760Y0242737D01*
X0254760Y0244015D01*
X0254415Y0244360D01*
X0254760Y0244706D01*
X0254760Y0245983D01*
X0254415Y0246329D01*
X0254760Y0246674D01*
X0254760Y0247952D01*
X0254415Y0248297D01*
X0254760Y0248643D01*
X0254760Y0249920D01*
X0254415Y0250266D01*
X0254760Y0250611D01*
X0254760Y0251889D01*
X0253857Y0252792D01*
X0252580Y0252792D01*
X0252234Y0252446D01*
X0251889Y0252792D01*
X0250716Y0252792D01*
X0251876Y0253272D01*
X0253165Y0254561D01*
X0253862Y0256244D01*
X0253862Y0258067D01*
X0253165Y0259750D01*
X0251876Y0261039D01*
X0250193Y0261736D01*
X0248370Y0261736D01*
X0246687Y0261039D01*
X0245398Y0259750D01*
X0244701Y0258067D01*
X0244701Y0256244D01*
X0245398Y0254561D01*
X0246687Y0253272D01*
X0247847Y0252792D01*
X0246674Y0252792D01*
X0245771Y0251889D01*
X0245771Y0250611D01*
X0246117Y0250266D01*
X0245771Y0249920D01*
X0245771Y0248643D01*
X0246117Y0248297D01*
X0245771Y0247952D01*
X0245771Y0246674D01*
X0246117Y0246329D01*
X0245771Y0245983D01*
X0245771Y0244706D01*
X0246117Y0244360D01*
X0245771Y0244015D01*
X0245771Y0242737D01*
X0246117Y0242392D01*
X0245771Y0242046D01*
X0245771Y0240769D01*
X0246674Y0239866D01*
X0247952Y0239866D01*
X0248297Y0240211D01*
X0248643Y0239866D01*
X0249708Y0239866D01*
X0249708Y0238800D01*
X0250054Y0238455D01*
X0249708Y0238109D01*
X0249708Y0236832D01*
X0250054Y0236486D01*
X0249708Y0236141D01*
X0249708Y0234863D01*
X0250054Y0234518D01*
X0249708Y0234172D01*
X0249708Y0232895D01*
X0250054Y0232549D01*
X0249708Y0231975D02*
X0231532Y0231975D01*
X0231532Y0231476D02*
X0249708Y0231476D01*
X0249708Y0230978D02*
X0231532Y0230978D01*
X0231084Y0230479D02*
X0249952Y0230479D01*
X0249708Y0229980D02*
X0171689Y0229980D01*
X0171426Y0229482D02*
X0249708Y0229482D01*
X0249708Y0228983D02*
X0170972Y0228983D01*
X0171471Y0228485D02*
X0249927Y0228485D01*
X0249708Y0227986D02*
X0171689Y0227986D01*
X0171689Y0227488D02*
X0249708Y0227488D01*
X0249708Y0226989D02*
X0171689Y0226989D01*
X0171191Y0226491D02*
X0249901Y0226491D01*
X0249708Y0225992D02*
X0171601Y0225992D01*
X0171689Y0225494D02*
X0249708Y0225494D01*
X0249734Y0224995D02*
X0171689Y0224995D01*
X0171559Y0224497D02*
X0249876Y0224497D01*
X0249708Y0223998D02*
X0171233Y0223998D01*
X0171689Y0223500D02*
X0249708Y0223500D01*
X0249759Y0223001D02*
X0171689Y0223001D01*
X0171689Y0222503D02*
X0249850Y0222503D01*
X0249708Y0222004D02*
X0171429Y0222004D01*
X0171363Y0221506D02*
X0249708Y0221506D01*
X0249785Y0221007D02*
X0171689Y0221007D01*
X0171689Y0220509D02*
X0249825Y0220509D01*
X0249708Y0220010D02*
X0171689Y0220010D01*
X0171298Y0219512D02*
X0249708Y0219512D01*
X0249810Y0219013D02*
X0170800Y0219013D01*
X0169721Y0218515D02*
X0249799Y0218515D01*
X0249708Y0218016D02*
X0169721Y0218016D01*
X0169304Y0217518D02*
X0249708Y0217518D01*
X0249836Y0217019D02*
X0143626Y0217019D01*
X0143626Y0216521D02*
X0249773Y0216521D01*
X0249708Y0216022D02*
X0154978Y0216022D01*
X0154927Y0216073D02*
X0153085Y0216073D01*
X0151782Y0214770D01*
X0151782Y0212927D01*
X0153085Y0211624D01*
X0154927Y0211624D01*
X0156112Y0212809D01*
X0156112Y0211746D01*
X0157415Y0210443D01*
X0159258Y0210443D01*
X0160561Y0211746D01*
X0160561Y0213589D01*
X0159258Y0214892D01*
X0157415Y0214892D01*
X0156230Y0213707D01*
X0156230Y0214770D01*
X0154927Y0216073D01*
X0155476Y0215524D02*
X0249708Y0215524D01*
X0249861Y0215025D02*
X0155975Y0215025D01*
X0156230Y0214527D02*
X0157050Y0214527D01*
X0156552Y0214028D02*
X0156230Y0214028D01*
X0156112Y0212533D02*
X0155836Y0212533D01*
X0156112Y0212034D02*
X0155337Y0212034D01*
X0156323Y0211536D02*
X0152028Y0211536D01*
X0151529Y0212034D02*
X0152675Y0212034D01*
X0152176Y0212533D02*
X0151031Y0212533D01*
X0150532Y0213031D02*
X0151782Y0213031D01*
X0151782Y0213530D02*
X0150034Y0213530D01*
X0149535Y0214028D02*
X0151782Y0214028D01*
X0151782Y0214527D02*
X0149037Y0214527D01*
X0147802Y0212533D02*
X0125047Y0212533D01*
X0125423Y0212034D02*
X0140484Y0212034D01*
X0140611Y0212162D02*
X0139708Y0211259D01*
X0139708Y0209981D01*
X0140611Y0209078D01*
X0140678Y0209078D01*
X0139826Y0208227D01*
X0139826Y0206950D01*
X0140730Y0206047D01*
X0142007Y0206047D01*
X0142910Y0206950D01*
X0142910Y0208227D01*
X0142007Y0209130D01*
X0141940Y0209130D01*
X0142792Y0209981D01*
X0142792Y0211259D01*
X0141889Y0212162D01*
X0140611Y0212162D01*
X0139985Y0211536D02*
X0125423Y0211536D01*
X0125423Y0211037D02*
X0139708Y0211037D01*
X0139708Y0210539D02*
X0125423Y0210539D01*
X0125423Y0210040D02*
X0139708Y0210040D01*
X0140148Y0209542D02*
X0125423Y0209542D01*
X0125423Y0209043D02*
X0140642Y0209043D01*
X0140144Y0208545D02*
X0125423Y0208545D01*
X0125423Y0208046D02*
X0139826Y0208046D01*
X0139826Y0207547D02*
X0137684Y0207547D01*
X0137282Y0207949D02*
X0136005Y0207949D01*
X0135659Y0207603D01*
X0135314Y0207949D01*
X0134037Y0207949D01*
X0133494Y0207407D01*
X0132952Y0207949D01*
X0131674Y0207949D01*
X0130935Y0207210D01*
X0130196Y0207949D01*
X0128918Y0207949D01*
X0128015Y0207046D01*
X0128015Y0205769D01*
X0128918Y0204866D01*
X0130196Y0204866D01*
X0130935Y0205605D01*
X0131674Y0204866D01*
X0132952Y0204866D01*
X0133494Y0205408D01*
X0134037Y0204866D01*
X0135314Y0204866D01*
X0135659Y0205211D01*
X0136005Y0204866D01*
X0137282Y0204866D01*
X0138185Y0205769D01*
X0138185Y0207046D01*
X0137282Y0207949D01*
X0138182Y0207049D02*
X0139826Y0207049D01*
X0140226Y0206550D02*
X0138185Y0206550D01*
X0138185Y0206052D02*
X0140724Y0206052D01*
X0142012Y0206052D02*
X0249708Y0206052D01*
X0249708Y0206550D02*
X0142510Y0206550D01*
X0142910Y0207049D02*
X0249964Y0207049D01*
X0249708Y0207547D02*
X0142910Y0207547D01*
X0142910Y0208046D02*
X0151723Y0208046D01*
X0151224Y0208545D02*
X0142592Y0208545D01*
X0142094Y0209043D02*
X0150889Y0209043D01*
X0150793Y0209542D02*
X0142352Y0209542D01*
X0142792Y0210040D02*
X0150294Y0210040D01*
X0149796Y0210539D02*
X0142792Y0210539D01*
X0142792Y0211037D02*
X0149297Y0211037D01*
X0148799Y0211536D02*
X0142515Y0211536D01*
X0142016Y0212034D02*
X0148300Y0212034D01*
X0152037Y0215025D02*
X0142646Y0215025D01*
X0143144Y0215524D02*
X0152535Y0215524D01*
X0153034Y0216022D02*
X0143626Y0216022D01*
X0140157Y0215025D02*
X0136334Y0215025D01*
X0135835Y0215524D02*
X0139659Y0215524D01*
X0139177Y0216022D02*
X0135337Y0216022D01*
X0134838Y0216521D02*
X0139177Y0216521D01*
X0139177Y0217019D02*
X0134339Y0217019D01*
X0133841Y0217518D02*
X0139177Y0217518D01*
X0139345Y0218016D02*
X0133342Y0218016D01*
X0132844Y0218515D02*
X0139844Y0218515D01*
X0140342Y0219013D02*
X0132345Y0219013D01*
X0130612Y0217518D02*
X0120061Y0217518D01*
X0120560Y0217019D02*
X0131110Y0217019D01*
X0131609Y0216521D02*
X0121058Y0216521D01*
X0121557Y0216022D02*
X0132107Y0216022D01*
X0132606Y0215524D02*
X0122055Y0215524D01*
X0122554Y0215025D02*
X0133104Y0215025D01*
X0133603Y0214527D02*
X0123053Y0214527D01*
X0123551Y0214028D02*
X0134101Y0214028D01*
X0134600Y0213530D02*
X0124050Y0213530D01*
X0124548Y0213031D02*
X0135098Y0213031D01*
X0133635Y0207547D02*
X0133353Y0207547D01*
X0131273Y0207547D02*
X0130597Y0207547D01*
X0130883Y0205553D02*
X0130987Y0205553D01*
X0131485Y0205055D02*
X0130385Y0205055D01*
X0128729Y0205055D02*
X0122811Y0205055D01*
X0122313Y0204556D02*
X0249708Y0204556D01*
X0249708Y0204058D02*
X0120043Y0204058D01*
X0119715Y0203559D02*
X0249708Y0203559D01*
X0250015Y0203061D02*
X0119715Y0203061D01*
X0119715Y0202562D02*
X0249708Y0202562D01*
X0249708Y0202064D02*
X0119715Y0202064D01*
X0119715Y0201565D02*
X0249708Y0201565D01*
X0250040Y0201067D02*
X0119715Y0201067D01*
X0119715Y0200568D02*
X0249708Y0200568D01*
X0249708Y0200070D02*
X0119715Y0200070D01*
X0119715Y0199571D02*
X0249708Y0199571D01*
X0250042Y0199073D02*
X0119715Y0199073D01*
X0119715Y0198574D02*
X0249708Y0198574D01*
X0249708Y0198076D02*
X0230856Y0198076D01*
X0230786Y0198146D02*
X0231689Y0197243D01*
X0231689Y0195966D01*
X0230786Y0195063D01*
X0229509Y0195063D01*
X0228606Y0195966D01*
X0228606Y0197243D01*
X0229509Y0198146D01*
X0230786Y0198146D01*
X0231355Y0197577D02*
X0249708Y0197577D01*
X0250017Y0197079D02*
X0231689Y0197079D01*
X0231689Y0196580D02*
X0249708Y0196580D01*
X0249708Y0196082D02*
X0231689Y0196082D01*
X0231307Y0195583D02*
X0249708Y0195583D01*
X0249991Y0195085D02*
X0230808Y0195085D01*
X0229487Y0195085D02*
X0201005Y0195085D01*
X0201217Y0195296D02*
X0200314Y0194393D01*
X0199037Y0194393D01*
X0198134Y0195296D01*
X0198134Y0196574D01*
X0199037Y0197477D01*
X0200314Y0197477D01*
X0201217Y0196574D01*
X0201217Y0195296D01*
X0201217Y0195583D02*
X0228988Y0195583D01*
X0228606Y0196082D02*
X0201217Y0196082D01*
X0201210Y0196580D02*
X0228606Y0196580D01*
X0228606Y0197079D02*
X0200712Y0197079D01*
X0198639Y0197079D02*
X0119715Y0197079D01*
X0119715Y0197577D02*
X0228940Y0197577D01*
X0229439Y0198076D02*
X0119715Y0198076D01*
X0119715Y0196580D02*
X0198140Y0196580D01*
X0198134Y0196082D02*
X0119715Y0196082D01*
X0119715Y0195583D02*
X0198134Y0195583D01*
X0198345Y0195085D02*
X0185186Y0195085D01*
X0184959Y0195311D02*
X0183682Y0195311D01*
X0182779Y0194408D01*
X0182779Y0193131D01*
X0183682Y0192228D01*
X0184959Y0192228D01*
X0185863Y0193131D01*
X0185863Y0194408D01*
X0184959Y0195311D01*
X0185685Y0194586D02*
X0198844Y0194586D01*
X0200507Y0194586D02*
X0249708Y0194586D01*
X0249708Y0194088D02*
X0185863Y0194088D01*
X0185863Y0193589D02*
X0249708Y0193589D01*
X0249965Y0193091D02*
X0215527Y0193091D01*
X0215274Y0193343D02*
X0213997Y0193343D01*
X0213094Y0192440D01*
X0213094Y0191163D01*
X0213997Y0190259D01*
X0215274Y0190259D01*
X0216178Y0191163D01*
X0216178Y0192440D01*
X0215274Y0193343D01*
X0216025Y0192592D02*
X0249708Y0192592D01*
X0249708Y0192094D02*
X0216178Y0192094D01*
X0216178Y0191595D02*
X0249708Y0191595D01*
X0249940Y0191097D02*
X0216112Y0191097D01*
X0215613Y0190598D02*
X0249708Y0190598D01*
X0249708Y0190100D02*
X0169721Y0190100D01*
X0169721Y0190598D02*
X0213659Y0190598D01*
X0213160Y0191097D02*
X0169292Y0191097D01*
X0169721Y0190668D02*
X0168818Y0191571D01*
X0167541Y0191571D01*
X0166637Y0190668D01*
X0166637Y0189391D01*
X0167541Y0188488D01*
X0168818Y0188488D01*
X0169721Y0189391D01*
X0169721Y0190668D01*
X0169721Y0189601D02*
X0249708Y0189601D01*
X0249914Y0189103D02*
X0169432Y0189103D01*
X0168934Y0188604D02*
X0249708Y0188604D01*
X0249708Y0188106D02*
X0154957Y0188106D01*
X0154957Y0188013D02*
X0154054Y0187110D01*
X0152777Y0187110D01*
X0151874Y0188013D01*
X0151874Y0189290D01*
X0152777Y0190193D01*
X0154054Y0190193D01*
X0154957Y0189290D01*
X0154957Y0188013D01*
X0154551Y0187607D02*
X0249721Y0187607D01*
X0249889Y0187109D02*
X0119715Y0187109D01*
X0119715Y0187607D02*
X0152280Y0187607D01*
X0151874Y0188106D02*
X0124380Y0188106D01*
X0124879Y0188604D02*
X0151874Y0188604D01*
X0151874Y0189103D02*
X0125154Y0189103D01*
X0125154Y0189601D02*
X0152185Y0189601D01*
X0152683Y0190100D02*
X0125154Y0190100D01*
X0124712Y0190598D02*
X0166637Y0190598D01*
X0166637Y0190100D02*
X0154148Y0190100D01*
X0154646Y0189601D02*
X0166637Y0189601D01*
X0166926Y0189103D02*
X0154957Y0189103D01*
X0154957Y0188604D02*
X0167424Y0188604D01*
X0167066Y0191097D02*
X0119715Y0191097D01*
X0119715Y0191595D02*
X0213094Y0191595D01*
X0213094Y0192094D02*
X0119715Y0192094D01*
X0119715Y0192592D02*
X0183318Y0192592D01*
X0182820Y0193091D02*
X0119715Y0193091D01*
X0119715Y0193589D02*
X0182779Y0193589D01*
X0182779Y0194088D02*
X0119715Y0194088D01*
X0119715Y0194586D02*
X0182957Y0194586D01*
X0183456Y0195085D02*
X0119715Y0195085D01*
X0117431Y0195085D02*
X0113754Y0195085D01*
X0113256Y0195583D02*
X0117431Y0195583D01*
X0117431Y0196082D02*
X0112757Y0196082D01*
X0112259Y0196580D02*
X0117431Y0196580D01*
X0117431Y0197079D02*
X0111760Y0197079D01*
X0111262Y0197577D02*
X0117431Y0197577D01*
X0117431Y0198076D02*
X0108401Y0198076D01*
X0107903Y0198574D02*
X0117431Y0198574D01*
X0117431Y0199073D02*
X0107404Y0199073D01*
X0106905Y0199571D02*
X0117431Y0199571D01*
X0117431Y0200070D02*
X0106407Y0200070D01*
X0105908Y0200568D02*
X0117431Y0200568D01*
X0117431Y0201067D02*
X0105410Y0201067D01*
X0104911Y0201565D02*
X0117431Y0201565D01*
X0117431Y0202064D02*
X0104413Y0202064D01*
X0103914Y0202562D02*
X0117431Y0202562D01*
X0120869Y0209043D02*
X0123140Y0209043D01*
X0123140Y0209542D02*
X0121296Y0209542D01*
X0121296Y0210040D02*
X0123140Y0210040D01*
X0123140Y0210539D02*
X0121296Y0210539D01*
X0121005Y0211037D02*
X0123140Y0211037D01*
X0122814Y0211536D02*
X0120507Y0211536D01*
X0120311Y0212034D02*
X0122316Y0212034D01*
X0121817Y0212533D02*
X0120100Y0212533D01*
X0119602Y0213031D02*
X0121319Y0213031D01*
X0120820Y0213530D02*
X0119431Y0213530D01*
X0119616Y0214028D02*
X0120322Y0214028D01*
X0119823Y0214527D02*
X0119616Y0214527D01*
X0113095Y0211536D02*
X0112633Y0211536D01*
X0123310Y0205553D02*
X0128231Y0205553D01*
X0128015Y0206052D02*
X0123808Y0206052D01*
X0124307Y0206550D02*
X0128015Y0206550D01*
X0128018Y0207049D02*
X0124805Y0207049D01*
X0125304Y0207547D02*
X0128517Y0207547D01*
X0133141Y0205055D02*
X0133847Y0205055D01*
X0135503Y0205055D02*
X0135816Y0205055D01*
X0137471Y0205055D02*
X0249989Y0205055D01*
X0249708Y0205553D02*
X0137970Y0205553D01*
X0153140Y0208046D02*
X0249708Y0208046D01*
X0249708Y0208545D02*
X0153638Y0208545D01*
X0153973Y0209043D02*
X0249938Y0209043D01*
X0249708Y0209542D02*
X0153973Y0209542D01*
X0153973Y0210040D02*
X0249708Y0210040D01*
X0249708Y0210539D02*
X0159354Y0210539D01*
X0159852Y0211037D02*
X0249913Y0211037D01*
X0249708Y0211536D02*
X0160351Y0211536D01*
X0160561Y0212034D02*
X0249708Y0212034D01*
X0249722Y0212533D02*
X0160561Y0212533D01*
X0160561Y0213031D02*
X0249887Y0213031D01*
X0249708Y0213530D02*
X0160561Y0213530D01*
X0160122Y0214028D02*
X0249708Y0214028D01*
X0249748Y0214527D02*
X0159623Y0214527D01*
X0156821Y0211037D02*
X0153092Y0211037D01*
X0153591Y0210539D02*
X0157320Y0210539D01*
X0165761Y0217518D02*
X0167054Y0217518D01*
X0166637Y0218016D02*
X0166178Y0218016D01*
X0166178Y0218515D02*
X0166637Y0218515D01*
X0166637Y0219013D02*
X0166178Y0219013D01*
X0166241Y0219512D02*
X0165877Y0219512D01*
X0165850Y0220010D02*
X0165379Y0220010D01*
X0168131Y0236126D02*
X0169408Y0236126D01*
X0170311Y0237029D01*
X0170311Y0238306D01*
X0169408Y0239209D01*
X0168131Y0239209D01*
X0167228Y0238306D01*
X0167228Y0237029D01*
X0168131Y0236126D01*
X0167796Y0236461D02*
X0153405Y0236461D01*
X0153267Y0236322D02*
X0154170Y0237226D01*
X0154170Y0238503D01*
X0153267Y0239406D01*
X0151989Y0239406D01*
X0151086Y0238503D01*
X0151086Y0237226D01*
X0151989Y0236322D01*
X0153267Y0236322D01*
X0153904Y0236960D02*
X0167297Y0236960D01*
X0167228Y0237458D02*
X0154170Y0237458D01*
X0154170Y0237957D02*
X0167228Y0237957D01*
X0167377Y0238455D02*
X0154170Y0238455D01*
X0153719Y0238954D02*
X0167876Y0238954D01*
X0169664Y0238954D02*
X0249708Y0238954D01*
X0249708Y0239452D02*
X0109681Y0239452D01*
X0109681Y0238997D02*
X0109681Y0240274D01*
X0108778Y0241178D01*
X0107713Y0241178D01*
X0107713Y0242046D01*
X0106810Y0242949D01*
X0105533Y0242949D01*
X0104630Y0242046D01*
X0104630Y0240769D01*
X0105074Y0240325D01*
X0104433Y0239684D01*
X0104433Y0238407D01*
X0105336Y0237504D01*
X0106613Y0237504D01*
X0107352Y0238243D01*
X0107501Y0238094D01*
X0108778Y0238094D01*
X0109681Y0238997D01*
X0109638Y0238954D02*
X0151537Y0238954D01*
X0151086Y0238455D02*
X0109139Y0238455D01*
X0109681Y0239951D02*
X0246589Y0239951D01*
X0246091Y0240449D02*
X0109507Y0240449D01*
X0109008Y0240948D02*
X0121970Y0240948D01*
X0121559Y0241359D02*
X0122462Y0240456D01*
X0123739Y0240456D01*
X0124642Y0241359D01*
X0124642Y0242637D01*
X0124395Y0242884D01*
X0125036Y0243525D01*
X0125036Y0244802D01*
X0124133Y0245705D01*
X0123067Y0245705D01*
X0123067Y0246165D01*
X0123936Y0246165D01*
X0124839Y0247068D01*
X0124839Y0248345D01*
X0124066Y0249118D01*
X0124330Y0249118D01*
X0125233Y0250021D01*
X0125233Y0251298D01*
X0124592Y0251939D01*
X0124839Y0252186D01*
X0124839Y0253463D01*
X0123936Y0254366D01*
X0122659Y0254366D01*
X0121756Y0253463D01*
X0121756Y0252186D01*
X0122396Y0251545D01*
X0122149Y0251298D01*
X0122149Y0250233D01*
X0120887Y0250233D01*
X0119984Y0249330D01*
X0119984Y0248052D01*
X0120625Y0247411D01*
X0119984Y0246770D01*
X0119984Y0245493D01*
X0120428Y0245049D01*
X0119590Y0244211D01*
X0119590Y0242934D01*
X0120493Y0242031D01*
X0121559Y0242031D01*
X0121559Y0241359D01*
X0121559Y0241446D02*
X0107713Y0241446D01*
X0107713Y0241945D02*
X0121559Y0241945D01*
X0120081Y0242443D02*
X0107316Y0242443D01*
X0106817Y0242942D02*
X0119590Y0242942D01*
X0119590Y0243440D02*
X0103179Y0243440D01*
X0103179Y0242942D02*
X0105525Y0242942D01*
X0105027Y0242443D02*
X0103179Y0242443D01*
X0103179Y0241945D02*
X0104630Y0241945D01*
X0104630Y0241446D02*
X0103179Y0241446D01*
X0103179Y0240948D02*
X0104630Y0240948D01*
X0104949Y0240449D02*
X0103179Y0240449D01*
X0103179Y0239951D02*
X0104700Y0239951D01*
X0104433Y0239452D02*
X0103179Y0239452D01*
X0103179Y0238954D02*
X0104433Y0238954D01*
X0104433Y0238455D02*
X0103179Y0238455D01*
X0103179Y0237957D02*
X0104883Y0237957D01*
X0103179Y0237458D02*
X0151086Y0237458D01*
X0151086Y0237957D02*
X0107066Y0237957D01*
X0107693Y0235464D02*
X0103179Y0235464D01*
X0103179Y0234966D02*
X0107195Y0234966D01*
X0106795Y0234467D02*
X0103179Y0234467D01*
X0103179Y0233969D02*
X0106795Y0233969D01*
X0106795Y0233470D02*
X0103179Y0233470D01*
X0103179Y0232972D02*
X0107112Y0232972D01*
X0106671Y0232473D02*
X0103179Y0232473D01*
X0103179Y0231975D02*
X0106598Y0231975D01*
X0105674Y0231476D02*
X0103179Y0231476D01*
X0103065Y0230978D02*
X0105220Y0230978D01*
X0105220Y0230479D02*
X0102566Y0230479D01*
X0102068Y0229980D02*
X0105220Y0229980D01*
X0105483Y0229482D02*
X0101569Y0229482D01*
X0101070Y0228983D02*
X0105982Y0228983D01*
X0109478Y0234966D02*
X0109951Y0234966D01*
X0108980Y0235464D02*
X0198517Y0235464D01*
X0198134Y0235848D02*
X0199037Y0234945D01*
X0200314Y0234945D01*
X0201217Y0235848D01*
X0201217Y0237125D01*
X0200314Y0238028D01*
X0199037Y0238028D01*
X0198134Y0237125D01*
X0198134Y0235848D01*
X0198134Y0235963D02*
X0103179Y0235963D01*
X0103179Y0236461D02*
X0151851Y0236461D01*
X0151352Y0236960D02*
X0103179Y0236960D01*
X0103179Y0243939D02*
X0119590Y0243939D01*
X0119816Y0244437D02*
X0103179Y0244437D01*
X0103179Y0244936D02*
X0120315Y0244936D01*
X0120043Y0245434D02*
X0108638Y0245434D01*
X0108581Y0245378D02*
X0109485Y0246281D01*
X0109485Y0247558D01*
X0109139Y0247904D01*
X0109681Y0248446D01*
X0109681Y0249723D01*
X0108778Y0250626D01*
X0107501Y0250626D01*
X0106959Y0250084D01*
X0106219Y0250823D01*
X0104942Y0250823D01*
X0104039Y0249920D01*
X0104039Y0248643D01*
X0104680Y0248002D01*
X0104236Y0247558D01*
X0104236Y0246281D01*
X0105139Y0245378D01*
X0106416Y0245378D01*
X0106860Y0245822D01*
X0107304Y0245378D01*
X0108581Y0245378D01*
X0109137Y0245933D02*
X0119984Y0245933D01*
X0119984Y0246431D02*
X0109485Y0246431D01*
X0109485Y0246930D02*
X0120143Y0246930D01*
X0120608Y0247428D02*
X0109485Y0247428D01*
X0109162Y0247927D02*
X0120109Y0247927D01*
X0119984Y0248425D02*
X0109661Y0248425D01*
X0109681Y0248924D02*
X0119984Y0248924D01*
X0120077Y0249422D02*
X0109681Y0249422D01*
X0109484Y0249921D02*
X0120575Y0249921D01*
X0122149Y0250419D02*
X0108985Y0250419D01*
X0107294Y0250419D02*
X0106623Y0250419D01*
X0104538Y0250419D02*
X0103179Y0250419D01*
X0103179Y0249921D02*
X0104040Y0249921D01*
X0104039Y0249422D02*
X0103179Y0249422D01*
X0103179Y0248924D02*
X0104039Y0248924D01*
X0104257Y0248425D02*
X0103179Y0248425D01*
X0103179Y0247927D02*
X0104605Y0247927D01*
X0104236Y0247428D02*
X0103179Y0247428D01*
X0103179Y0246930D02*
X0104236Y0246930D01*
X0104236Y0246431D02*
X0103179Y0246431D01*
X0103179Y0245933D02*
X0104584Y0245933D01*
X0105082Y0245434D02*
X0103179Y0245434D01*
X0106473Y0245434D02*
X0107248Y0245434D01*
X0103179Y0250918D02*
X0122149Y0250918D01*
X0122268Y0251416D02*
X0103179Y0251416D01*
X0103179Y0251915D02*
X0122027Y0251915D01*
X0121756Y0252413D02*
X0103179Y0252413D01*
X0103179Y0252912D02*
X0121756Y0252912D01*
X0121756Y0253411D02*
X0103179Y0253411D01*
X0103179Y0253909D02*
X0122201Y0253909D01*
X0124393Y0253909D02*
X0135981Y0253909D01*
X0135732Y0253660D02*
X0135732Y0252383D01*
X0136635Y0251480D01*
X0137912Y0251480D01*
X0138815Y0252383D01*
X0138815Y0253660D01*
X0137912Y0254563D01*
X0136635Y0254563D01*
X0135732Y0253660D01*
X0135732Y0253411D02*
X0124839Y0253411D01*
X0124839Y0252912D02*
X0135732Y0252912D01*
X0135732Y0252413D02*
X0124839Y0252413D01*
X0124616Y0251915D02*
X0136200Y0251915D01*
X0138347Y0251915D02*
X0151751Y0251915D01*
X0151793Y0251874D02*
X0153070Y0251874D01*
X0153973Y0252777D01*
X0153973Y0254054D01*
X0153070Y0254957D01*
X0151793Y0254957D01*
X0150889Y0254054D01*
X0150889Y0252777D01*
X0151793Y0251874D01*
X0151253Y0252413D02*
X0138815Y0252413D01*
X0138815Y0252912D02*
X0150889Y0252912D01*
X0150889Y0253411D02*
X0138815Y0253411D01*
X0138567Y0253909D02*
X0150889Y0253909D01*
X0151243Y0254408D02*
X0138068Y0254408D01*
X0136479Y0254408D02*
X0103179Y0254408D01*
X0103179Y0254906D02*
X0151742Y0254906D01*
X0153121Y0254906D02*
X0245255Y0254906D01*
X0245049Y0255405D02*
X0103179Y0255405D01*
X0103179Y0255903D02*
X0244842Y0255903D01*
X0244701Y0256402D02*
X0103179Y0256402D01*
X0103179Y0256900D02*
X0244701Y0256900D01*
X0244701Y0257399D02*
X0103179Y0257399D01*
X0103179Y0257897D02*
X0244701Y0257897D01*
X0244837Y0258396D02*
X0103179Y0258396D01*
X0103179Y0258894D02*
X0245044Y0258894D01*
X0245250Y0259393D02*
X0103179Y0259393D01*
X0103179Y0259891D02*
X0229208Y0259891D01*
X0229352Y0259748D02*
X0230629Y0259748D01*
X0231532Y0260651D01*
X0231532Y0261928D01*
X0230629Y0262831D01*
X0229352Y0262831D01*
X0228448Y0261928D01*
X0228448Y0260651D01*
X0229352Y0259748D01*
X0228710Y0260390D02*
X0103179Y0260390D01*
X0103179Y0260888D02*
X0228448Y0260888D01*
X0228448Y0261387D02*
X0103179Y0261387D01*
X0103179Y0261885D02*
X0228448Y0261885D01*
X0228904Y0262384D02*
X0103179Y0262384D01*
X0103179Y0262882D02*
X0256512Y0262882D01*
X0256512Y0262384D02*
X0231076Y0262384D01*
X0231532Y0261885D02*
X0256512Y0261885D01*
X0256512Y0261387D02*
X0251036Y0261387D01*
X0252027Y0260888D02*
X0256512Y0260888D01*
X0256512Y0260390D02*
X0252525Y0260390D01*
X0253024Y0259891D02*
X0256512Y0259891D01*
X0256512Y0259393D02*
X0253313Y0259393D01*
X0253519Y0258894D02*
X0256512Y0258894D01*
X0256512Y0258396D02*
X0253726Y0258396D01*
X0253862Y0257897D02*
X0256512Y0257897D01*
X0256512Y0257399D02*
X0253862Y0257399D01*
X0253862Y0256900D02*
X0256512Y0256900D01*
X0256512Y0256402D02*
X0253862Y0256402D01*
X0253721Y0255903D02*
X0256512Y0255903D01*
X0256512Y0255405D02*
X0253514Y0255405D01*
X0253308Y0254906D02*
X0256512Y0254906D01*
X0256512Y0254408D02*
X0253012Y0254408D01*
X0252513Y0253909D02*
X0256512Y0253909D01*
X0256512Y0253411D02*
X0252015Y0253411D01*
X0251007Y0252912D02*
X0256512Y0252912D01*
X0256512Y0252413D02*
X0254235Y0252413D01*
X0254734Y0251915D02*
X0256512Y0251915D01*
X0256512Y0251416D02*
X0254760Y0251416D01*
X0254760Y0250918D02*
X0256512Y0250918D01*
X0256512Y0250419D02*
X0254568Y0250419D01*
X0254759Y0249921D02*
X0256512Y0249921D01*
X0256512Y0249422D02*
X0254760Y0249422D01*
X0254760Y0248924D02*
X0256512Y0248924D01*
X0256512Y0248425D02*
X0254543Y0248425D01*
X0254760Y0247927D02*
X0256512Y0247927D01*
X0256512Y0247428D02*
X0254760Y0247428D01*
X0254760Y0246930D02*
X0256512Y0246930D01*
X0256512Y0246431D02*
X0254517Y0246431D01*
X0254760Y0245933D02*
X0256512Y0245933D01*
X0256512Y0245434D02*
X0254760Y0245434D01*
X0254760Y0244936D02*
X0256512Y0244936D01*
X0256512Y0244437D02*
X0254492Y0244437D01*
X0254760Y0243939D02*
X0256512Y0243939D01*
X0256512Y0243440D02*
X0254760Y0243440D01*
X0254760Y0242942D02*
X0256512Y0242942D01*
X0256512Y0242443D02*
X0254466Y0242443D01*
X0254760Y0241945D02*
X0256512Y0241945D01*
X0256512Y0241446D02*
X0254760Y0241446D01*
X0254760Y0240948D02*
X0256512Y0240948D01*
X0256512Y0240449D02*
X0254441Y0240449D01*
X0253942Y0239951D02*
X0256512Y0239951D01*
X0256512Y0239452D02*
X0252792Y0239452D01*
X0252792Y0238954D02*
X0256512Y0238954D01*
X0256512Y0238455D02*
X0252446Y0238455D01*
X0252792Y0237957D02*
X0256512Y0237957D01*
X0256512Y0237458D02*
X0252792Y0237458D01*
X0252792Y0236960D02*
X0256512Y0236960D01*
X0256512Y0236461D02*
X0252471Y0236461D01*
X0252792Y0235963D02*
X0256512Y0235963D01*
X0256512Y0235464D02*
X0252792Y0235464D01*
X0252792Y0234966D02*
X0256512Y0234966D01*
X0256512Y0234467D02*
X0252497Y0234467D01*
X0252792Y0233969D02*
X0256512Y0233969D01*
X0256512Y0233470D02*
X0252792Y0233470D01*
X0252792Y0232972D02*
X0256512Y0232972D01*
X0256512Y0232473D02*
X0252522Y0232473D01*
X0252792Y0231975D02*
X0256512Y0231975D01*
X0256512Y0231476D02*
X0252792Y0231476D01*
X0252792Y0230978D02*
X0256512Y0230978D01*
X0256512Y0230479D02*
X0252548Y0230479D01*
X0252792Y0229980D02*
X0256512Y0229980D01*
X0256512Y0229482D02*
X0252792Y0229482D01*
X0252792Y0228983D02*
X0256512Y0228983D01*
X0256512Y0228485D02*
X0252573Y0228485D01*
X0252792Y0227986D02*
X0256512Y0227986D01*
X0256512Y0227488D02*
X0252792Y0227488D01*
X0252792Y0226989D02*
X0256512Y0226989D01*
X0256512Y0226491D02*
X0252599Y0226491D01*
X0252792Y0225992D02*
X0256512Y0225992D01*
X0256512Y0225494D02*
X0252792Y0225494D01*
X0252766Y0224995D02*
X0256512Y0224995D01*
X0256512Y0224497D02*
X0252624Y0224497D01*
X0252792Y0223998D02*
X0256512Y0223998D01*
X0256512Y0223500D02*
X0252792Y0223500D01*
X0252741Y0223001D02*
X0256512Y0223001D01*
X0256512Y0222503D02*
X0252650Y0222503D01*
X0252792Y0222004D02*
X0256512Y0222004D01*
X0256512Y0221506D02*
X0252792Y0221506D01*
X0252715Y0221007D02*
X0256512Y0221007D01*
X0256512Y0220509D02*
X0252675Y0220509D01*
X0252792Y0220010D02*
X0256512Y0220010D01*
X0256512Y0219512D02*
X0252792Y0219512D01*
X0252690Y0219013D02*
X0256512Y0219013D01*
X0256512Y0218515D02*
X0252701Y0218515D01*
X0252792Y0218016D02*
X0256512Y0218016D01*
X0256512Y0217518D02*
X0252792Y0217518D01*
X0252664Y0217019D02*
X0256512Y0217019D01*
X0256512Y0216521D02*
X0252727Y0216521D01*
X0252792Y0216022D02*
X0256512Y0216022D01*
X0256512Y0215524D02*
X0252792Y0215524D01*
X0252638Y0215025D02*
X0256512Y0215025D01*
X0256512Y0214527D02*
X0252752Y0214527D01*
X0252792Y0214028D02*
X0256512Y0214028D01*
X0256512Y0213530D02*
X0252792Y0213530D01*
X0252613Y0213031D02*
X0256512Y0213031D01*
X0256512Y0212533D02*
X0252778Y0212533D01*
X0252792Y0212034D02*
X0256512Y0212034D01*
X0256512Y0211536D02*
X0252792Y0211536D01*
X0252587Y0211037D02*
X0256512Y0211037D01*
X0256512Y0210539D02*
X0252792Y0210539D01*
X0252792Y0210040D02*
X0256512Y0210040D01*
X0256512Y0209542D02*
X0252792Y0209542D01*
X0252562Y0209043D02*
X0256512Y0209043D01*
X0256512Y0208545D02*
X0252792Y0208545D01*
X0252792Y0208046D02*
X0256512Y0208046D01*
X0256512Y0207547D02*
X0252792Y0207547D01*
X0252536Y0207049D02*
X0256512Y0207049D01*
X0256512Y0206550D02*
X0252792Y0206550D01*
X0252792Y0206052D02*
X0256512Y0206052D01*
X0256512Y0205553D02*
X0252792Y0205553D01*
X0252511Y0205055D02*
X0256512Y0205055D01*
X0256512Y0204556D02*
X0252792Y0204556D01*
X0252792Y0204058D02*
X0256512Y0204058D01*
X0256512Y0203559D02*
X0252792Y0203559D01*
X0252485Y0203061D02*
X0256512Y0203061D01*
X0256512Y0202562D02*
X0252792Y0202562D01*
X0252792Y0202064D02*
X0256512Y0202064D01*
X0256512Y0201565D02*
X0252792Y0201565D01*
X0252460Y0201067D02*
X0256512Y0201067D01*
X0256512Y0200568D02*
X0252792Y0200568D01*
X0252792Y0200070D02*
X0256512Y0200070D01*
X0256512Y0199571D02*
X0252792Y0199571D01*
X0252458Y0199073D02*
X0256512Y0199073D01*
X0256512Y0198574D02*
X0252792Y0198574D01*
X0252792Y0198076D02*
X0256512Y0198076D01*
X0256512Y0197577D02*
X0252792Y0197577D01*
X0252483Y0197079D02*
X0256512Y0197079D01*
X0256512Y0196580D02*
X0252792Y0196580D01*
X0252792Y0196082D02*
X0256512Y0196082D01*
X0256512Y0195583D02*
X0252792Y0195583D01*
X0252509Y0195085D02*
X0256512Y0195085D01*
X0256512Y0194586D02*
X0252792Y0194586D01*
X0252792Y0194088D02*
X0256512Y0194088D01*
X0256512Y0193589D02*
X0252792Y0193589D01*
X0252534Y0193091D02*
X0256512Y0193091D01*
X0256512Y0192592D02*
X0252792Y0192592D01*
X0252792Y0192094D02*
X0256512Y0192094D01*
X0256512Y0191595D02*
X0252792Y0191595D01*
X0252560Y0191097D02*
X0256512Y0191097D01*
X0256512Y0190598D02*
X0252792Y0190598D01*
X0252792Y0190100D02*
X0256512Y0190100D01*
X0256512Y0189601D02*
X0252792Y0189601D01*
X0252586Y0189103D02*
X0256512Y0189103D01*
X0256512Y0188604D02*
X0252792Y0188604D01*
X0252792Y0188106D02*
X0256512Y0188106D01*
X0256512Y0187607D02*
X0252779Y0187607D01*
X0252611Y0187109D02*
X0256512Y0187109D01*
X0256512Y0186610D02*
X0252792Y0186610D01*
X0252792Y0186111D02*
X0256512Y0186111D01*
X0256512Y0185613D02*
X0252754Y0185613D01*
X0252637Y0185114D02*
X0256512Y0185114D01*
X0256512Y0184616D02*
X0252792Y0184616D01*
X0252792Y0184117D02*
X0256512Y0184117D01*
X0256512Y0183619D02*
X0252951Y0183619D01*
X0253450Y0183120D02*
X0256512Y0183120D01*
X0256512Y0182622D02*
X0253579Y0182622D01*
X0253579Y0182123D02*
X0256512Y0182123D01*
X0256512Y0181625D02*
X0253490Y0181625D01*
X0253081Y0181126D02*
X0256512Y0181126D01*
X0256512Y0180628D02*
X0253579Y0180628D01*
X0253579Y0180129D02*
X0256512Y0180129D01*
X0256512Y0179631D02*
X0253579Y0179631D01*
X0253360Y0179132D02*
X0256512Y0179132D01*
X0256512Y0178634D02*
X0252861Y0178634D01*
X0252103Y0178135D02*
X0256512Y0178135D01*
X0256512Y0177637D02*
X0252601Y0177637D01*
X0253100Y0177138D02*
X0256512Y0177138D01*
X0256512Y0176640D02*
X0253344Y0176640D01*
X0253551Y0176141D02*
X0256512Y0176141D01*
X0256512Y0175643D02*
X0253757Y0175643D01*
X0253862Y0175144D02*
X0256512Y0175144D01*
X0256512Y0174646D02*
X0253862Y0174646D01*
X0253862Y0174147D02*
X0256512Y0174147D01*
X0256512Y0173649D02*
X0253862Y0173649D01*
X0253689Y0173150D02*
X0256512Y0173150D01*
X0256512Y0172652D02*
X0253483Y0172652D01*
X0253276Y0172153D02*
X0256512Y0172153D01*
X0256512Y0171655D02*
X0252936Y0171655D01*
X0252437Y0171156D02*
X0256512Y0171156D01*
X0256512Y0170658D02*
X0251939Y0170658D01*
X0251399Y0170115D02*
X0250496Y0169211D01*
X0250496Y0168030D01*
X0249708Y0167243D01*
X0249708Y0165966D01*
X0250054Y0165620D01*
X0249708Y0165274D01*
X0249708Y0163997D01*
X0250054Y0163652D01*
X0249708Y0163306D01*
X0249708Y0162029D01*
X0250054Y0161683D01*
X0249708Y0161337D01*
X0249708Y0160060D01*
X0250054Y0159715D01*
X0249708Y0159369D01*
X0249708Y0158092D01*
X0250611Y0157189D01*
X0251889Y0157189D01*
X0252792Y0158092D01*
X0252792Y0159369D01*
X0252446Y0159715D01*
X0252792Y0160060D01*
X0252792Y0161337D01*
X0252446Y0161683D01*
X0252792Y0162029D01*
X0252792Y0163306D01*
X0252446Y0163652D01*
X0252792Y0163997D01*
X0252792Y0165274D01*
X0252446Y0165620D01*
X0252792Y0165966D01*
X0252792Y0167147D01*
X0253579Y0167934D01*
X0253579Y0169211D01*
X0252676Y0170115D01*
X0251399Y0170115D01*
X0250824Y0170159D02*
X0256512Y0170159D01*
X0256512Y0169661D02*
X0253130Y0169661D01*
X0253579Y0169162D02*
X0256512Y0169162D01*
X0256512Y0168664D02*
X0253579Y0168664D01*
X0253579Y0168165D02*
X0256512Y0168165D01*
X0256512Y0167667D02*
X0253311Y0167667D01*
X0252813Y0167168D02*
X0256512Y0167168D01*
X0256512Y0166670D02*
X0252792Y0166670D01*
X0252792Y0166171D02*
X0256512Y0166171D01*
X0256512Y0165673D02*
X0252498Y0165673D01*
X0252792Y0165174D02*
X0256512Y0165174D01*
X0256512Y0164676D02*
X0252792Y0164676D01*
X0252792Y0164177D02*
X0256512Y0164177D01*
X0256512Y0163678D02*
X0252473Y0163678D01*
X0252792Y0163180D02*
X0256512Y0163180D01*
X0256512Y0162681D02*
X0252792Y0162681D01*
X0252792Y0162183D02*
X0256512Y0162183D01*
X0256512Y0161684D02*
X0252447Y0161684D01*
X0252792Y0161186D02*
X0256658Y0161186D01*
X0256946Y0160687D02*
X0252792Y0160687D01*
X0252792Y0160189D02*
X0257234Y0160189D01*
X0257522Y0159690D02*
X0252470Y0159690D01*
X0252792Y0159192D02*
X0257951Y0159192D01*
X0258814Y0158693D02*
X0252792Y0158693D01*
X0252792Y0158195D02*
X0259678Y0158195D01*
X0254642Y0154881D02*
X0253739Y0155784D01*
X0252462Y0155784D01*
X0251559Y0154881D01*
X0251559Y0153604D01*
X0252462Y0152700D01*
X0253739Y0152700D01*
X0254642Y0153604D01*
X0254642Y0154881D01*
X0254642Y0154705D02*
X0327378Y0154705D01*
X0327378Y0154207D02*
X0254642Y0154207D01*
X0254642Y0153708D02*
X0327378Y0153708D01*
X0327378Y0153210D02*
X0254248Y0153210D01*
X0253750Y0152711D02*
X0327378Y0152711D01*
X0327378Y0152213D02*
X0252507Y0152213D01*
X0252555Y0152164D02*
X0251652Y0153067D01*
X0250375Y0153067D01*
X0249472Y0152164D01*
X0249472Y0150887D01*
X0250375Y0149984D01*
X0251652Y0149984D01*
X0252555Y0150887D01*
X0252555Y0152164D01*
X0252555Y0151714D02*
X0295597Y0151714D01*
X0295926Y0152044D02*
X0295023Y0151141D01*
X0295023Y0149863D01*
X0295546Y0149341D01*
X0295141Y0148936D01*
X0295141Y0147659D01*
X0296044Y0146756D01*
X0297322Y0146756D01*
X0297707Y0147141D01*
X0298367Y0146480D01*
X0299644Y0146480D01*
X0300548Y0147383D01*
X0300548Y0148660D01*
X0299887Y0149321D01*
X0300390Y0149824D01*
X0300390Y0151101D01*
X0299487Y0152004D01*
X0298210Y0152004D01*
X0297726Y0151521D01*
X0297204Y0152044D01*
X0295926Y0152044D01*
X0295098Y0151216D02*
X0252555Y0151216D01*
X0252386Y0150717D02*
X0295023Y0150717D01*
X0295023Y0150219D02*
X0251887Y0150219D01*
X0250140Y0150219D02*
X0245918Y0150219D01*
X0245941Y0150196D02*
X0245038Y0151099D01*
X0243761Y0151099D01*
X0242858Y0150196D01*
X0242858Y0148918D01*
X0243761Y0148015D01*
X0245038Y0148015D01*
X0245941Y0148918D01*
X0245941Y0150196D01*
X0245941Y0149720D02*
X0295166Y0149720D01*
X0295427Y0149222D02*
X0245941Y0149222D01*
X0245746Y0148723D02*
X0295141Y0148723D01*
X0295141Y0148225D02*
X0245247Y0148225D01*
X0243552Y0148225D02*
X0230747Y0148225D01*
X0231178Y0147794D02*
X0230274Y0148697D01*
X0228997Y0148697D01*
X0228094Y0147794D01*
X0228094Y0146517D01*
X0228997Y0145614D01*
X0230102Y0145614D01*
X0230102Y0144430D01*
X0230481Y0144052D01*
X0229430Y0144052D01*
X0228527Y0143148D01*
X0228527Y0141871D01*
X0229430Y0140968D01*
X0230707Y0140968D01*
X0231611Y0141871D01*
X0231611Y0143148D01*
X0231232Y0143527D01*
X0232282Y0143527D01*
X0233185Y0144430D01*
X0233185Y0145707D01*
X0232282Y0146611D01*
X0231178Y0146611D01*
X0231178Y0147794D01*
X0231178Y0147726D02*
X0295141Y0147726D01*
X0295572Y0147228D02*
X0231178Y0147228D01*
X0231178Y0146729D02*
X0298118Y0146729D01*
X0299894Y0146729D02*
X0311110Y0146729D01*
X0311359Y0146480D02*
X0312637Y0146480D01*
X0313258Y0147101D01*
X0313643Y0146716D01*
X0314920Y0146716D01*
X0315823Y0147619D01*
X0315823Y0148896D01*
X0315478Y0149242D01*
X0316020Y0149785D01*
X0316020Y0151062D01*
X0315117Y0151965D01*
X0313840Y0151965D01*
X0313120Y0151245D01*
X0312637Y0151729D01*
X0311359Y0151729D01*
X0310456Y0150826D01*
X0310456Y0149548D01*
X0310900Y0149104D01*
X0310456Y0148660D01*
X0310456Y0147383D01*
X0311359Y0146480D01*
X0310612Y0147228D02*
X0300392Y0147228D01*
X0300548Y0147726D02*
X0310456Y0147726D01*
X0310456Y0148225D02*
X0300548Y0148225D01*
X0300485Y0148723D02*
X0310519Y0148723D01*
X0310783Y0149222D02*
X0299986Y0149222D01*
X0300286Y0149720D02*
X0310456Y0149720D01*
X0310456Y0150219D02*
X0300390Y0150219D01*
X0300390Y0150717D02*
X0310456Y0150717D01*
X0310846Y0151216D02*
X0300276Y0151216D01*
X0299777Y0151714D02*
X0311345Y0151714D01*
X0312651Y0151714D02*
X0313589Y0151714D01*
X0315368Y0151714D02*
X0327378Y0151714D01*
X0327378Y0151216D02*
X0315866Y0151216D01*
X0316020Y0150717D02*
X0327378Y0150717D01*
X0327378Y0150219D02*
X0316020Y0150219D01*
X0315956Y0149720D02*
X0327378Y0149720D01*
X0327378Y0149222D02*
X0315498Y0149222D01*
X0315823Y0148723D02*
X0327378Y0148723D01*
X0327378Y0148225D02*
X0315823Y0148225D01*
X0315823Y0147726D02*
X0327378Y0147726D01*
X0327378Y0147228D02*
X0315432Y0147228D01*
X0314933Y0146729D02*
X0327378Y0146729D01*
X0327378Y0146231D02*
X0250182Y0146231D01*
X0249920Y0146492D02*
X0248643Y0146492D01*
X0248297Y0146147D01*
X0247952Y0146492D01*
X0246674Y0146492D01*
X0245771Y0145589D01*
X0245771Y0144312D01*
X0246117Y0143967D01*
X0245771Y0143621D01*
X0245771Y0142492D01*
X0245196Y0143067D01*
X0243918Y0143067D01*
X0243015Y0142164D01*
X0243015Y0140887D01*
X0243918Y0139984D01*
X0245196Y0139984D01*
X0246099Y0140887D01*
X0246099Y0142016D01*
X0246674Y0141441D01*
X0247952Y0141441D01*
X0248297Y0141786D01*
X0248643Y0141441D01*
X0249920Y0141441D01*
X0250482Y0142003D01*
X0250848Y0141637D01*
X0252125Y0141637D01*
X0253028Y0142541D01*
X0253028Y0143818D01*
X0252125Y0144721D01*
X0250848Y0144721D01*
X0250823Y0144696D01*
X0250823Y0145589D01*
X0249920Y0146492D01*
X0250680Y0145732D02*
X0327378Y0145732D01*
X0327378Y0145234D02*
X0250823Y0145234D01*
X0250823Y0144735D02*
X0327378Y0144735D01*
X0327378Y0144237D02*
X0315365Y0144237D01*
X0315078Y0144524D02*
X0313800Y0144524D01*
X0312982Y0143706D01*
X0312400Y0144288D01*
X0311123Y0144288D01*
X0310220Y0143385D01*
X0310220Y0142107D01*
X0310704Y0141624D01*
X0310259Y0141180D01*
X0310259Y0139903D01*
X0311163Y0139000D01*
X0312440Y0139000D01*
X0313199Y0139759D01*
X0313840Y0139118D01*
X0315117Y0139118D01*
X0316020Y0140021D01*
X0316020Y0141298D01*
X0315478Y0141841D01*
X0315981Y0142344D01*
X0315981Y0143621D01*
X0315078Y0144524D01*
X0315863Y0143738D02*
X0327378Y0143738D01*
X0327378Y0143240D02*
X0315981Y0143240D01*
X0315981Y0142741D02*
X0327378Y0142741D01*
X0327378Y0142242D02*
X0315879Y0142242D01*
X0315574Y0141744D02*
X0327378Y0141744D01*
X0327378Y0141245D02*
X0316020Y0141245D01*
X0316020Y0140747D02*
X0327378Y0140747D01*
X0327378Y0140248D02*
X0316020Y0140248D01*
X0315749Y0139750D02*
X0327378Y0139750D01*
X0327378Y0139251D02*
X0315251Y0139251D01*
X0313706Y0139251D02*
X0312692Y0139251D01*
X0313190Y0139750D02*
X0313208Y0139750D01*
X0310911Y0139251D02*
X0300211Y0139251D01*
X0299763Y0138803D02*
X0300666Y0139706D01*
X0300666Y0140983D01*
X0300025Y0141624D01*
X0300705Y0142304D01*
X0300705Y0143581D01*
X0299802Y0144485D01*
X0298525Y0144485D01*
X0297687Y0143647D01*
X0296967Y0144366D01*
X0295690Y0144366D01*
X0294787Y0143463D01*
X0294787Y0142186D01*
X0295487Y0141486D01*
X0294984Y0140983D01*
X0294984Y0139706D01*
X0295566Y0139124D01*
X0295023Y0138581D01*
X0295023Y0137304D01*
X0295546Y0136781D01*
X0295141Y0136377D01*
X0295141Y0135100D01*
X0295723Y0134518D01*
X0294945Y0133739D01*
X0294945Y0132462D01*
X0295507Y0131900D01*
X0295063Y0131456D01*
X0295063Y0130178D01*
X0295507Y0129734D01*
X0295141Y0129369D01*
X0295141Y0128092D01*
X0295507Y0127726D01*
X0295023Y0127243D01*
X0295023Y0125966D01*
X0295926Y0125063D01*
X0297204Y0125063D01*
X0297963Y0125822D01*
X0298643Y0125141D01*
X0299920Y0125141D01*
X0300823Y0126044D01*
X0300823Y0127322D01*
X0299920Y0128225D01*
X0298643Y0128225D01*
X0297884Y0127466D01*
X0297741Y0127608D01*
X0298225Y0128092D01*
X0298225Y0129369D01*
X0297781Y0129813D01*
X0298146Y0130178D01*
X0298146Y0131268D01*
X0298525Y0130889D01*
X0299802Y0130889D01*
X0300705Y0131793D01*
X0300705Y0133070D01*
X0300123Y0133652D01*
X0300705Y0134233D01*
X0300705Y0135511D01*
X0299802Y0136414D01*
X0298525Y0136414D01*
X0298225Y0136114D01*
X0298225Y0136377D01*
X0297702Y0136900D01*
X0298107Y0137304D01*
X0298107Y0138581D01*
X0297525Y0139163D01*
X0297825Y0139463D01*
X0298485Y0138803D01*
X0299763Y0138803D01*
X0300666Y0139750D02*
X0310412Y0139750D01*
X0310259Y0140248D02*
X0300666Y0140248D01*
X0300666Y0140747D02*
X0310259Y0140747D01*
X0310325Y0141245D02*
X0300403Y0141245D01*
X0300145Y0141744D02*
X0310584Y0141744D01*
X0310220Y0142242D02*
X0300643Y0142242D01*
X0300705Y0142741D02*
X0310220Y0142741D01*
X0310220Y0143240D02*
X0300705Y0143240D01*
X0300549Y0143738D02*
X0310573Y0143738D01*
X0311072Y0144237D02*
X0300050Y0144237D01*
X0298277Y0144237D02*
X0297097Y0144237D01*
X0297596Y0143738D02*
X0297778Y0143738D01*
X0295560Y0144237D02*
X0266152Y0144237D01*
X0264694Y0144237D02*
X0252609Y0144237D01*
X0253028Y0143738D02*
X0264196Y0143738D01*
X0263882Y0143240D02*
X0253028Y0143240D01*
X0253028Y0142741D02*
X0263882Y0142741D01*
X0263882Y0142242D02*
X0252730Y0142242D01*
X0252231Y0141744D02*
X0264284Y0141744D01*
X0264783Y0141245D02*
X0246099Y0141245D01*
X0246099Y0141744D02*
X0246371Y0141744D01*
X0245959Y0140747D02*
X0264708Y0140747D01*
X0264708Y0140248D02*
X0245460Y0140248D01*
X0243654Y0140248D02*
X0174045Y0140248D01*
X0174045Y0139750D02*
X0182428Y0139750D01*
X0182773Y0140095D02*
X0181696Y0139019D01*
X0181696Y0137497D01*
X0182773Y0136421D01*
X0183782Y0136421D01*
X0183782Y0135798D01*
X0184858Y0134722D01*
X0186379Y0134722D01*
X0187455Y0135798D01*
X0187455Y0137319D01*
X0186379Y0138395D01*
X0185370Y0138395D01*
X0185370Y0139019D01*
X0184294Y0140095D01*
X0182773Y0140095D01*
X0181929Y0139251D02*
X0174045Y0139251D01*
X0174045Y0138753D02*
X0181696Y0138753D01*
X0181696Y0138254D02*
X0174045Y0138254D01*
X0174045Y0137756D02*
X0181696Y0137756D01*
X0181936Y0137257D02*
X0174045Y0137257D01*
X0174045Y0136759D02*
X0182435Y0136759D01*
X0183782Y0136260D02*
X0174045Y0136260D01*
X0173597Y0135762D02*
X0183817Y0135762D01*
X0184316Y0135263D02*
X0173098Y0135263D01*
X0172600Y0134765D02*
X0184814Y0134765D01*
X0186423Y0134765D02*
X0228159Y0134765D01*
X0228159Y0135263D02*
X0215968Y0135263D01*
X0215951Y0135246D02*
X0217254Y0136549D01*
X0217254Y0138392D01*
X0215951Y0139695D01*
X0214108Y0139695D01*
X0212805Y0138392D01*
X0212805Y0136549D01*
X0214108Y0135246D01*
X0215951Y0135246D01*
X0216467Y0135762D02*
X0228285Y0135762D01*
X0228159Y0135636D02*
X0228159Y0133793D01*
X0229462Y0132490D01*
X0231305Y0132490D01*
X0232608Y0133793D01*
X0232608Y0135636D01*
X0231305Y0136939D01*
X0229462Y0136939D01*
X0228159Y0135636D01*
X0228784Y0136260D02*
X0216965Y0136260D01*
X0217254Y0136759D02*
X0229282Y0136759D01*
X0231485Y0136759D02*
X0266868Y0136759D01*
X0266519Y0137257D02*
X0217254Y0137257D01*
X0217254Y0137756D02*
X0266519Y0137756D01*
X0266519Y0138254D02*
X0217254Y0138254D01*
X0216893Y0138753D02*
X0266888Y0138753D01*
X0265202Y0139251D02*
X0216394Y0139251D01*
X0213665Y0139251D02*
X0185138Y0139251D01*
X0185370Y0138753D02*
X0213166Y0138753D01*
X0212805Y0138254D02*
X0186520Y0138254D01*
X0187019Y0137756D02*
X0212805Y0137756D01*
X0212805Y0137257D02*
X0187455Y0137257D01*
X0187455Y0136759D02*
X0212805Y0136759D01*
X0213094Y0136260D02*
X0187455Y0136260D01*
X0187420Y0135762D02*
X0213592Y0135762D01*
X0214091Y0135263D02*
X0186921Y0135263D01*
X0184639Y0139750D02*
X0264708Y0139750D01*
X0266442Y0136260D02*
X0231984Y0136260D01*
X0232482Y0135762D02*
X0266362Y0135762D01*
X0266362Y0135263D02*
X0232608Y0135263D01*
X0232608Y0134765D02*
X0266500Y0134765D01*
X0266771Y0134266D02*
X0232608Y0134266D01*
X0232583Y0133768D02*
X0266322Y0133768D01*
X0266322Y0133269D02*
X0232084Y0133269D01*
X0231586Y0132771D02*
X0266322Y0132771D01*
X0266591Y0132272D02*
X0247783Y0132272D01*
X0247447Y0132608D02*
X0245604Y0132608D01*
X0244301Y0131305D01*
X0244301Y0129462D01*
X0245604Y0128159D01*
X0247447Y0128159D01*
X0248750Y0129462D01*
X0248750Y0131305D01*
X0247447Y0132608D01*
X0248281Y0131774D02*
X0259189Y0131774D01*
X0258690Y0131275D02*
X0248750Y0131275D01*
X0248750Y0130777D02*
X0258192Y0130777D01*
X0257693Y0130278D02*
X0248750Y0130278D01*
X0248750Y0129780D02*
X0257195Y0129780D01*
X0256696Y0129281D02*
X0248569Y0129281D01*
X0248070Y0128783D02*
X0256198Y0128783D01*
X0255699Y0128284D02*
X0247572Y0128284D01*
X0245480Y0128284D02*
X0222169Y0128284D01*
X0222047Y0128783D02*
X0244981Y0128783D01*
X0244483Y0129281D02*
X0221548Y0129281D01*
X0222478Y0127786D02*
X0255201Y0127786D01*
X0254702Y0127287D02*
X0222977Y0127287D01*
X0223475Y0126789D02*
X0254204Y0126789D01*
X0253705Y0126290D02*
X0223974Y0126290D01*
X0224472Y0125792D02*
X0253207Y0125792D01*
X0252708Y0125293D02*
X0224971Y0125293D01*
X0225469Y0124795D02*
X0230843Y0124795D01*
X0230344Y0124296D02*
X0225968Y0124296D01*
X0226466Y0123798D02*
X0230102Y0123798D01*
X0230102Y0123299D02*
X0226965Y0123299D01*
X0227463Y0122801D02*
X0230102Y0122801D01*
X0232445Y0124795D02*
X0252210Y0124795D01*
X0251711Y0124296D02*
X0232943Y0124296D01*
X0233185Y0123798D02*
X0251213Y0123798D01*
X0250714Y0123299D02*
X0233185Y0123299D01*
X0233185Y0122801D02*
X0250216Y0122801D01*
X0255057Y0117815D02*
X0264884Y0117815D01*
X0264884Y0117651D02*
X0266187Y0116348D01*
X0268030Y0116348D01*
X0269333Y0117651D01*
X0269333Y0119494D01*
X0268030Y0120797D01*
X0266187Y0120797D01*
X0264884Y0119494D01*
X0264884Y0117651D01*
X0265219Y0117317D02*
X0254559Y0117317D01*
X0255363Y0116818D02*
X0265717Y0116818D01*
X0264884Y0118314D02*
X0255556Y0118314D01*
X0256054Y0118812D02*
X0264884Y0118812D01*
X0264884Y0119311D02*
X0256553Y0119311D01*
X0257051Y0119809D02*
X0265200Y0119809D01*
X0265698Y0120308D02*
X0257550Y0120308D01*
X0258048Y0120807D02*
X0280477Y0120807D01*
X0279978Y0120308D02*
X0268519Y0120308D01*
X0269018Y0119809D02*
X0279787Y0119809D01*
X0279787Y0119311D02*
X0269333Y0119311D01*
X0269333Y0118812D02*
X0279814Y0118812D01*
X0280313Y0118314D02*
X0269333Y0118314D01*
X0269333Y0117815D02*
X0281205Y0117815D01*
X0280915Y0117317D02*
X0268998Y0117317D01*
X0268500Y0116818D02*
X0280915Y0116818D01*
X0280915Y0116320D02*
X0255861Y0116320D01*
X0256230Y0115821D02*
X0280915Y0115821D01*
X0281275Y0115323D02*
X0256230Y0115323D01*
X0256230Y0114824D02*
X0281620Y0114824D01*
X0281122Y0114326D02*
X0256230Y0114326D01*
X0255949Y0113827D02*
X0280771Y0113827D01*
X0280771Y0113329D02*
X0255451Y0113329D01*
X0254952Y0112830D02*
X0280771Y0112830D01*
X0281138Y0112332D02*
X0227051Y0112332D01*
X0227480Y0112830D02*
X0249379Y0112830D01*
X0248881Y0113329D02*
X0246375Y0113329D01*
X0246874Y0113827D02*
X0246925Y0113827D01*
X0249292Y0115821D02*
X0249468Y0115821D01*
X0250749Y0115821D02*
X0251782Y0115821D01*
X0251782Y0115323D02*
X0251247Y0115323D01*
X0251650Y0114824D02*
X0251782Y0114824D01*
X0251782Y0114326D02*
X0251650Y0114326D01*
X0251650Y0113827D02*
X0252062Y0113827D01*
X0252561Y0113329D02*
X0251336Y0113329D01*
X0250837Y0112830D02*
X0253059Y0112830D01*
X0258547Y0121305D02*
X0295621Y0121305D01*
X0295926Y0121611D02*
X0295023Y0120707D01*
X0295023Y0119430D01*
X0295926Y0118527D01*
X0296090Y0118527D01*
X0295876Y0118313D01*
X0295876Y0116470D01*
X0297150Y0115196D01*
X0296322Y0114369D01*
X0296322Y0113092D01*
X0297226Y0112189D01*
X0298503Y0112189D01*
X0299406Y0113092D01*
X0299406Y0114369D01*
X0298607Y0115167D01*
X0299022Y0115167D01*
X0300325Y0116470D01*
X0300325Y0118313D01*
X0300015Y0118622D01*
X0300784Y0119391D01*
X0300784Y0120668D01*
X0299881Y0121571D01*
X0298604Y0121571D01*
X0297923Y0120891D01*
X0297204Y0121611D01*
X0295926Y0121611D01*
X0295122Y0120807D02*
X0284622Y0120807D01*
X0285120Y0120308D02*
X0295023Y0120308D01*
X0295023Y0119809D02*
X0285311Y0119809D01*
X0285311Y0119311D02*
X0295143Y0119311D01*
X0295641Y0118812D02*
X0285284Y0118812D01*
X0284786Y0118314D02*
X0295877Y0118314D01*
X0295876Y0117815D02*
X0285074Y0117815D01*
X0285364Y0117317D02*
X0295876Y0117317D01*
X0295876Y0116818D02*
X0285364Y0116818D01*
X0285364Y0116320D02*
X0296026Y0116320D01*
X0296525Y0115821D02*
X0285364Y0115821D01*
X0285004Y0115323D02*
X0297023Y0115323D01*
X0296778Y0114824D02*
X0284506Y0114824D01*
X0283504Y0114326D02*
X0296322Y0114326D01*
X0296322Y0113827D02*
X0283855Y0113827D01*
X0283855Y0113329D02*
X0296322Y0113329D01*
X0296584Y0112830D02*
X0283855Y0112830D01*
X0283488Y0112332D02*
X0297082Y0112332D01*
X0298646Y0112332D02*
X0325092Y0112332D01*
X0325956Y0112830D02*
X0299144Y0112830D01*
X0299406Y0113329D02*
X0326549Y0113329D01*
X0326836Y0113827D02*
X0299406Y0113827D01*
X0299406Y0114326D02*
X0327124Y0114326D01*
X0327299Y0114824D02*
X0314427Y0114824D01*
X0314376Y0114774D02*
X0315679Y0116077D01*
X0315679Y0117919D01*
X0315212Y0118386D01*
X0316020Y0119194D01*
X0316020Y0120471D01*
X0315117Y0121374D01*
X0313840Y0121374D01*
X0313278Y0120812D01*
X0312440Y0121650D01*
X0311163Y0121650D01*
X0310259Y0120747D01*
X0310259Y0119470D01*
X0311163Y0118567D01*
X0311878Y0118567D01*
X0311230Y0117919D01*
X0311230Y0116077D01*
X0312533Y0114774D01*
X0314376Y0114774D01*
X0314925Y0115323D02*
X0327365Y0115323D01*
X0327378Y0115821D02*
X0315424Y0115821D01*
X0315679Y0116320D02*
X0327378Y0116320D01*
X0327378Y0116818D02*
X0315679Y0116818D01*
X0315679Y0117317D02*
X0327378Y0117317D01*
X0327378Y0117815D02*
X0315679Y0117815D01*
X0315285Y0118314D02*
X0327378Y0118314D01*
X0327378Y0118812D02*
X0315638Y0118812D01*
X0316020Y0119311D02*
X0327378Y0119311D01*
X0327378Y0119809D02*
X0316020Y0119809D01*
X0316020Y0120308D02*
X0327378Y0120308D01*
X0327378Y0120807D02*
X0315685Y0120807D01*
X0315186Y0121305D02*
X0327378Y0121305D01*
X0327378Y0121804D02*
X0259046Y0121804D01*
X0259544Y0122302D02*
X0327378Y0122302D01*
X0327378Y0122801D02*
X0260043Y0122801D01*
X0260541Y0123299D02*
X0327378Y0123299D01*
X0327378Y0123798D02*
X0261040Y0123798D01*
X0261538Y0124296D02*
X0327378Y0124296D01*
X0327378Y0124795D02*
X0312487Y0124795D01*
X0312164Y0124472D02*
X0313067Y0125375D01*
X0313067Y0126652D01*
X0312164Y0127555D01*
X0310887Y0127555D01*
X0309984Y0126652D01*
X0309984Y0125375D01*
X0310887Y0124472D01*
X0312164Y0124472D01*
X0312985Y0125293D02*
X0327378Y0125293D01*
X0327378Y0125792D02*
X0313067Y0125792D01*
X0313067Y0126290D02*
X0327378Y0126290D01*
X0327378Y0126789D02*
X0312931Y0126789D01*
X0312432Y0127287D02*
X0327378Y0127287D01*
X0327378Y0127786D02*
X0300359Y0127786D01*
X0300823Y0127287D02*
X0310619Y0127287D01*
X0310120Y0126789D02*
X0300823Y0126789D01*
X0300823Y0126290D02*
X0309984Y0126290D01*
X0309984Y0125792D02*
X0300570Y0125792D01*
X0300072Y0125293D02*
X0310066Y0125293D01*
X0310564Y0124795D02*
X0262037Y0124795D01*
X0269138Y0132272D02*
X0286957Y0132272D01*
X0287455Y0132771D02*
X0269406Y0132771D01*
X0269406Y0133269D02*
X0287954Y0133269D01*
X0288452Y0133768D02*
X0269406Y0133768D01*
X0268957Y0134266D02*
X0288951Y0134266D01*
X0289085Y0134765D02*
X0282181Y0134765D01*
X0281928Y0134511D02*
X0282608Y0135192D01*
X0282934Y0134866D01*
X0284211Y0134866D01*
X0285115Y0135769D01*
X0285115Y0137046D01*
X0284710Y0137451D01*
X0285075Y0137816D01*
X0285075Y0139093D01*
X0284690Y0139478D01*
X0284996Y0139785D01*
X0284996Y0141062D01*
X0284592Y0141467D01*
X0285075Y0141950D01*
X0285075Y0143227D01*
X0284172Y0144130D01*
X0282895Y0144130D01*
X0282333Y0143568D01*
X0281770Y0144130D01*
X0280493Y0144130D01*
X0279590Y0143227D01*
X0279590Y0141950D01*
X0280113Y0141427D01*
X0279669Y0140983D01*
X0279669Y0139706D01*
X0280172Y0139203D01*
X0279748Y0138778D01*
X0279748Y0137501D01*
X0280152Y0137096D01*
X0279748Y0136692D01*
X0279748Y0135415D01*
X0280651Y0134511D01*
X0281928Y0134511D01*
X0280397Y0134765D02*
X0269307Y0134765D01*
X0269445Y0135263D02*
X0279899Y0135263D01*
X0279748Y0135762D02*
X0269445Y0135762D01*
X0269365Y0136260D02*
X0279748Y0136260D01*
X0279815Y0136759D02*
X0269254Y0136759D01*
X0269603Y0137257D02*
X0279991Y0137257D01*
X0279748Y0137756D02*
X0269603Y0137756D01*
X0269603Y0138254D02*
X0279748Y0138254D01*
X0279748Y0138753D02*
X0269240Y0138753D01*
X0269739Y0139251D02*
X0280123Y0139251D01*
X0279669Y0139750D02*
X0269800Y0139750D01*
X0269800Y0140248D02*
X0279669Y0140248D01*
X0279669Y0140747D02*
X0269642Y0140747D01*
X0269143Y0141245D02*
X0279931Y0141245D01*
X0279796Y0141744D02*
X0269003Y0141744D01*
X0269248Y0142242D02*
X0279590Y0142242D01*
X0279590Y0142741D02*
X0269248Y0142741D01*
X0269248Y0143240D02*
X0279603Y0143240D01*
X0280101Y0143738D02*
X0268777Y0143738D01*
X0282163Y0143738D02*
X0282503Y0143738D01*
X0284564Y0143738D02*
X0295062Y0143738D01*
X0294787Y0143240D02*
X0290968Y0143240D01*
X0291467Y0142741D02*
X0294787Y0142741D01*
X0294787Y0142242D02*
X0291768Y0142242D01*
X0291768Y0141744D02*
X0295229Y0141744D01*
X0295246Y0141245D02*
X0291768Y0141245D01*
X0291368Y0140747D02*
X0294984Y0140747D01*
X0294984Y0140248D02*
X0291368Y0140248D01*
X0291368Y0139750D02*
X0294984Y0139750D01*
X0295438Y0139251D02*
X0291368Y0139251D01*
X0291368Y0138753D02*
X0295195Y0138753D01*
X0295023Y0138254D02*
X0291368Y0138254D01*
X0291368Y0137756D02*
X0295023Y0137756D01*
X0295070Y0137257D02*
X0291368Y0137257D01*
X0291368Y0136759D02*
X0295523Y0136759D01*
X0295141Y0136260D02*
X0291368Y0136260D01*
X0291368Y0135762D02*
X0295141Y0135762D01*
X0295141Y0135263D02*
X0291368Y0135263D01*
X0291368Y0134765D02*
X0295476Y0134765D01*
X0295472Y0134266D02*
X0291368Y0134266D01*
X0291368Y0133768D02*
X0294973Y0133768D01*
X0294945Y0133269D02*
X0291183Y0133269D01*
X0290685Y0132771D02*
X0294945Y0132771D01*
X0295134Y0132272D02*
X0290186Y0132272D01*
X0289688Y0131774D02*
X0295381Y0131774D01*
X0295063Y0131275D02*
X0289189Y0131275D01*
X0288691Y0130777D02*
X0295063Y0130777D01*
X0295063Y0130278D02*
X0288192Y0130278D01*
X0287694Y0129780D02*
X0295461Y0129780D01*
X0295141Y0129281D02*
X0281779Y0129281D01*
X0282056Y0128783D02*
X0295141Y0128783D01*
X0295141Y0128284D02*
X0284309Y0128284D01*
X0284808Y0127786D02*
X0295447Y0127786D01*
X0295068Y0127287D02*
X0284918Y0127287D01*
X0284918Y0126789D02*
X0295023Y0126789D01*
X0295023Y0126290D02*
X0284809Y0126290D01*
X0284310Y0125792D02*
X0295197Y0125792D01*
X0295696Y0125293D02*
X0281072Y0125293D01*
X0281608Y0125792D02*
X0282441Y0125792D01*
X0282442Y0128284D02*
X0282263Y0128284D01*
X0284609Y0135263D02*
X0289085Y0135263D01*
X0289085Y0135762D02*
X0285107Y0135762D01*
X0285115Y0136260D02*
X0289085Y0136260D01*
X0289085Y0136759D02*
X0285115Y0136759D01*
X0284903Y0137257D02*
X0289085Y0137257D01*
X0289085Y0137756D02*
X0285015Y0137756D01*
X0285075Y0138254D02*
X0289085Y0138254D01*
X0289085Y0138753D02*
X0285075Y0138753D01*
X0284917Y0139251D02*
X0289085Y0139251D01*
X0289085Y0139750D02*
X0284962Y0139750D01*
X0284996Y0140248D02*
X0289085Y0140248D01*
X0289085Y0140747D02*
X0284996Y0140747D01*
X0284813Y0141245D02*
X0288685Y0141245D01*
X0288685Y0141744D02*
X0284869Y0141744D01*
X0285075Y0142242D02*
X0288685Y0142242D01*
X0288986Y0142741D02*
X0285075Y0142741D01*
X0285063Y0143240D02*
X0289484Y0143240D01*
X0297613Y0139251D02*
X0298037Y0139251D01*
X0297935Y0138753D02*
X0327378Y0138753D01*
X0327378Y0138254D02*
X0298107Y0138254D01*
X0298107Y0137756D02*
X0327378Y0137756D01*
X0327378Y0137257D02*
X0298060Y0137257D01*
X0297843Y0136759D02*
X0327378Y0136759D01*
X0327378Y0136260D02*
X0299955Y0136260D01*
X0300454Y0135762D02*
X0327378Y0135762D01*
X0327378Y0135263D02*
X0300705Y0135263D01*
X0300705Y0134765D02*
X0327378Y0134765D01*
X0327378Y0134266D02*
X0300705Y0134266D01*
X0300239Y0133768D02*
X0327378Y0133768D01*
X0327378Y0133269D02*
X0300505Y0133269D01*
X0300705Y0132771D02*
X0327378Y0132771D01*
X0327378Y0132272D02*
X0300705Y0132272D01*
X0300686Y0131774D02*
X0327378Y0131774D01*
X0327378Y0131275D02*
X0300188Y0131275D01*
X0298146Y0130777D02*
X0327378Y0130777D01*
X0327378Y0130278D02*
X0298146Y0130278D01*
X0297814Y0129780D02*
X0327378Y0129780D01*
X0327378Y0129281D02*
X0298225Y0129281D01*
X0298225Y0128783D02*
X0327378Y0128783D01*
X0327378Y0128284D02*
X0298225Y0128284D01*
X0298204Y0127786D02*
X0297919Y0127786D01*
X0297933Y0125792D02*
X0297993Y0125792D01*
X0298491Y0125293D02*
X0297434Y0125293D01*
X0297509Y0121305D02*
X0298337Y0121305D01*
X0300147Y0121305D02*
X0310818Y0121305D01*
X0310319Y0120807D02*
X0300645Y0120807D01*
X0300784Y0120308D02*
X0310259Y0120308D01*
X0310259Y0119809D02*
X0300784Y0119809D01*
X0300704Y0119311D02*
X0310418Y0119311D01*
X0310917Y0118812D02*
X0300205Y0118812D01*
X0300324Y0118314D02*
X0311625Y0118314D01*
X0311230Y0117815D02*
X0300325Y0117815D01*
X0300325Y0117317D02*
X0311230Y0117317D01*
X0311230Y0116818D02*
X0300325Y0116818D01*
X0300174Y0116320D02*
X0311230Y0116320D01*
X0311486Y0115821D02*
X0299676Y0115821D01*
X0299177Y0115323D02*
X0311984Y0115323D01*
X0312483Y0114824D02*
X0298950Y0114824D01*
X0312785Y0121305D02*
X0313770Y0121305D01*
X0298371Y0136260D02*
X0298225Y0136260D01*
X0297920Y0151714D02*
X0297533Y0151714D01*
X0312886Y0146729D02*
X0313630Y0146729D01*
X0313513Y0144237D02*
X0312452Y0144237D01*
X0312950Y0143738D02*
X0313014Y0143738D01*
X0326657Y0156699D02*
X0185535Y0156699D01*
X0185010Y0156201D02*
X0326945Y0156201D01*
X0327233Y0155702D02*
X0253820Y0155702D01*
X0254319Y0155204D02*
X0327324Y0155204D01*
X0326282Y0157198D02*
X0251898Y0157198D01*
X0252396Y0157696D02*
X0325419Y0157696D01*
X0282918Y0120807D02*
X0282181Y0120807D01*
X0250741Y0141744D02*
X0250223Y0141744D01*
X0248340Y0141744D02*
X0248255Y0141744D01*
X0245771Y0142741D02*
X0245522Y0142741D01*
X0245771Y0143240D02*
X0231519Y0143240D01*
X0231611Y0142741D02*
X0243592Y0142741D01*
X0243094Y0142242D02*
X0231611Y0142242D01*
X0231483Y0141744D02*
X0243015Y0141744D01*
X0243015Y0141245D02*
X0230985Y0141245D01*
X0229153Y0141245D02*
X0174045Y0141245D01*
X0174045Y0140747D02*
X0243155Y0140747D01*
X0245888Y0143738D02*
X0232493Y0143738D01*
X0232992Y0144237D02*
X0245847Y0144237D01*
X0245771Y0144735D02*
X0233185Y0144735D01*
X0233185Y0145234D02*
X0245771Y0145234D01*
X0245914Y0145732D02*
X0233161Y0145732D01*
X0232662Y0146231D02*
X0246413Y0146231D01*
X0248213Y0146231D02*
X0248381Y0146231D01*
X0249642Y0150717D02*
X0245420Y0150717D01*
X0245432Y0151283D02*
X0246335Y0152186D01*
X0246335Y0153463D01*
X0245432Y0154366D01*
X0244155Y0154366D01*
X0243252Y0153463D01*
X0243252Y0152186D01*
X0244155Y0151283D01*
X0245432Y0151283D01*
X0245863Y0151714D02*
X0249472Y0151714D01*
X0249472Y0151216D02*
X0180339Y0151216D01*
X0180339Y0151714D02*
X0243724Y0151714D01*
X0243252Y0152213D02*
X0180813Y0152213D01*
X0180339Y0151762D02*
X0186666Y0157774D01*
X0187413Y0157774D01*
X0188716Y0159077D01*
X0188716Y0160919D01*
X0187413Y0162222D01*
X0185571Y0162222D01*
X0184268Y0160919D01*
X0184268Y0160274D01*
X0177915Y0154238D01*
X0177889Y0154238D01*
X0177397Y0153746D01*
X0176893Y0153268D01*
X0176892Y0153242D01*
X0176874Y0153224D01*
X0176874Y0152528D01*
X0176856Y0151833D01*
X0176874Y0151814D01*
X0176874Y0146358D01*
X0176382Y0145866D01*
X0176382Y0144024D01*
X0177685Y0142721D01*
X0179528Y0142721D01*
X0180831Y0144024D01*
X0180831Y0145866D01*
X0180339Y0146358D01*
X0180339Y0151762D01*
X0180339Y0150717D02*
X0243379Y0150717D01*
X0242881Y0150219D02*
X0180339Y0150219D01*
X0180339Y0149720D02*
X0242858Y0149720D01*
X0242858Y0149222D02*
X0217073Y0149222D01*
X0216810Y0149485D02*
X0215533Y0149485D01*
X0215108Y0149060D01*
X0214566Y0149603D01*
X0213289Y0149603D01*
X0212385Y0148700D01*
X0212385Y0147422D01*
X0213289Y0146519D01*
X0214566Y0146519D01*
X0214990Y0146944D01*
X0215533Y0146401D01*
X0216810Y0146401D01*
X0217713Y0147304D01*
X0217713Y0148581D01*
X0216810Y0149485D01*
X0217571Y0148723D02*
X0243053Y0148723D01*
X0243252Y0152711D02*
X0181337Y0152711D01*
X0181862Y0153210D02*
X0243252Y0153210D01*
X0243496Y0153708D02*
X0182387Y0153708D01*
X0182911Y0154207D02*
X0243995Y0154207D01*
X0245592Y0154207D02*
X0251559Y0154207D01*
X0251559Y0154705D02*
X0183436Y0154705D01*
X0183961Y0155204D02*
X0251882Y0155204D01*
X0252380Y0155702D02*
X0184486Y0155702D01*
X0186060Y0157198D02*
X0250602Y0157198D01*
X0250104Y0157696D02*
X0240625Y0157696D01*
X0240353Y0157425D02*
X0241256Y0158328D01*
X0241256Y0159605D01*
X0240891Y0159970D01*
X0241571Y0160651D01*
X0241571Y0161928D01*
X0240668Y0162831D01*
X0239391Y0162831D01*
X0238488Y0161928D01*
X0238488Y0160651D01*
X0238853Y0160285D01*
X0238173Y0159605D01*
X0238173Y0158328D01*
X0239076Y0157425D01*
X0240353Y0157425D01*
X0241123Y0158195D02*
X0243030Y0158195D01*
X0243092Y0158134D02*
X0244369Y0158134D01*
X0245272Y0159037D01*
X0245272Y0160314D01*
X0244369Y0161217D01*
X0243092Y0161217D01*
X0242189Y0160314D01*
X0242189Y0159037D01*
X0243092Y0158134D01*
X0242532Y0158693D02*
X0241256Y0158693D01*
X0241256Y0159192D02*
X0242189Y0159192D01*
X0242189Y0159690D02*
X0241171Y0159690D01*
X0241109Y0160189D02*
X0242189Y0160189D01*
X0242562Y0160687D02*
X0241571Y0160687D01*
X0241571Y0161186D02*
X0243061Y0161186D01*
X0244400Y0161186D02*
X0249708Y0161186D01*
X0249708Y0160687D02*
X0244898Y0160687D01*
X0245272Y0160189D02*
X0249708Y0160189D01*
X0250030Y0159690D02*
X0245272Y0159690D01*
X0245272Y0159192D02*
X0249708Y0159192D01*
X0249708Y0158693D02*
X0244929Y0158693D01*
X0244430Y0158195D02*
X0249708Y0158195D01*
X0250053Y0161684D02*
X0241571Y0161684D01*
X0241316Y0162183D02*
X0249708Y0162183D01*
X0249708Y0162681D02*
X0240818Y0162681D01*
X0239241Y0162681D02*
X0139056Y0162681D01*
X0138786Y0162411D02*
X0140089Y0163714D01*
X0140089Y0165557D01*
X0138786Y0166860D01*
X0136943Y0166860D01*
X0135640Y0165557D01*
X0135640Y0163714D01*
X0136943Y0162411D01*
X0138786Y0162411D01*
X0139554Y0163180D02*
X0249708Y0163180D01*
X0250027Y0163678D02*
X0140053Y0163678D01*
X0140089Y0164177D02*
X0213813Y0164177D01*
X0214108Y0163882D02*
X0215951Y0163882D01*
X0217254Y0165185D01*
X0217254Y0167028D01*
X0215951Y0168331D01*
X0214108Y0168331D01*
X0212805Y0167028D01*
X0212805Y0165185D01*
X0214108Y0163882D01*
X0213315Y0164676D02*
X0140089Y0164676D01*
X0140089Y0165174D02*
X0197960Y0165174D01*
X0198360Y0164774D02*
X0200203Y0164774D01*
X0201506Y0166077D01*
X0201506Y0167919D01*
X0200203Y0169222D01*
X0198360Y0169222D01*
X0197057Y0167919D01*
X0197057Y0166077D01*
X0198360Y0164774D01*
X0197461Y0165673D02*
X0169999Y0165673D01*
X0169888Y0165561D02*
X0171191Y0166864D01*
X0171191Y0168707D01*
X0169888Y0170010D01*
X0168045Y0170010D01*
X0166742Y0168707D01*
X0166742Y0166864D01*
X0168045Y0165561D01*
X0169888Y0165561D01*
X0170498Y0166171D02*
X0197057Y0166171D01*
X0197057Y0166670D02*
X0170996Y0166670D01*
X0171191Y0167168D02*
X0197057Y0167168D01*
X0197057Y0167667D02*
X0171191Y0167667D01*
X0171191Y0168165D02*
X0197303Y0168165D01*
X0197801Y0168664D02*
X0171191Y0168664D01*
X0170736Y0169162D02*
X0198300Y0169162D01*
X0200263Y0169162D02*
X0250496Y0169162D01*
X0250496Y0168664D02*
X0200762Y0168664D01*
X0201260Y0168165D02*
X0213943Y0168165D01*
X0213444Y0167667D02*
X0201506Y0167667D01*
X0201506Y0167168D02*
X0212946Y0167168D01*
X0212805Y0166670D02*
X0201506Y0166670D01*
X0201506Y0166171D02*
X0212805Y0166171D01*
X0212805Y0165673D02*
X0201102Y0165673D01*
X0200603Y0165174D02*
X0212816Y0165174D01*
X0216246Y0164177D02*
X0249708Y0164177D01*
X0249708Y0164676D02*
X0216744Y0164676D01*
X0217243Y0165174D02*
X0249708Y0165174D01*
X0250002Y0165673D02*
X0217254Y0165673D01*
X0217254Y0166171D02*
X0249708Y0166171D01*
X0249708Y0166670D02*
X0217254Y0166670D01*
X0217114Y0167168D02*
X0249708Y0167168D01*
X0250132Y0167667D02*
X0216615Y0167667D01*
X0216116Y0168165D02*
X0250496Y0168165D01*
X0250945Y0169661D02*
X0170237Y0169661D01*
X0167696Y0169661D02*
X0155049Y0169661D01*
X0155049Y0170159D02*
X0247739Y0170159D01*
X0246624Y0170658D02*
X0154673Y0170658D01*
X0155049Y0170282D02*
X0153746Y0171585D01*
X0151903Y0171585D01*
X0150600Y0170282D01*
X0150600Y0168439D01*
X0151903Y0167136D01*
X0153746Y0167136D01*
X0155049Y0168439D01*
X0155049Y0170282D01*
X0155049Y0169162D02*
X0167197Y0169162D01*
X0166742Y0168664D02*
X0155049Y0168664D01*
X0154775Y0168165D02*
X0166742Y0168165D01*
X0166742Y0167667D02*
X0154277Y0167667D01*
X0153778Y0167168D02*
X0166742Y0167168D01*
X0166937Y0166670D02*
X0138976Y0166670D01*
X0139475Y0166171D02*
X0167435Y0166171D01*
X0167934Y0165673D02*
X0139973Y0165673D01*
X0136752Y0166670D02*
X0124409Y0166670D01*
X0123911Y0167168D02*
X0151871Y0167168D01*
X0151373Y0167667D02*
X0119081Y0167667D01*
X0119579Y0168165D02*
X0150874Y0168165D01*
X0150600Y0168664D02*
X0119715Y0168664D01*
X0119715Y0169162D02*
X0150600Y0169162D01*
X0150600Y0169661D02*
X0119715Y0169661D01*
X0119715Y0170159D02*
X0150600Y0170159D01*
X0150976Y0170658D02*
X0119715Y0170658D01*
X0119715Y0171156D02*
X0120108Y0171156D01*
X0121762Y0171156D02*
X0122471Y0171156D01*
X0124124Y0171156D02*
X0151475Y0171156D01*
X0152186Y0173134D02*
X0153463Y0173134D01*
X0154366Y0174037D01*
X0154366Y0175314D01*
X0153463Y0176217D01*
X0152186Y0176217D01*
X0151283Y0175314D01*
X0151283Y0174037D01*
X0152186Y0173134D01*
X0152170Y0173150D02*
X0124837Y0173150D01*
X0124839Y0172652D02*
X0213888Y0172652D01*
X0213997Y0172543D02*
X0215274Y0172543D01*
X0216178Y0173446D01*
X0216178Y0174723D01*
X0215274Y0175626D01*
X0213997Y0175626D01*
X0213094Y0174723D01*
X0213094Y0173446D01*
X0213997Y0172543D01*
X0213390Y0173150D02*
X0169425Y0173150D01*
X0169015Y0172740D02*
X0169918Y0173643D01*
X0169918Y0174920D01*
X0169015Y0175823D01*
X0167737Y0175823D01*
X0166834Y0174920D01*
X0166834Y0173643D01*
X0167737Y0172740D01*
X0169015Y0172740D01*
X0169918Y0173649D02*
X0213094Y0173649D01*
X0213094Y0174147D02*
X0184792Y0174147D01*
X0184369Y0173724D02*
X0185272Y0174627D01*
X0185272Y0175904D01*
X0184369Y0176807D01*
X0183092Y0176807D01*
X0182189Y0175904D01*
X0182189Y0174627D01*
X0183092Y0173724D01*
X0184369Y0173724D01*
X0185272Y0174646D02*
X0213094Y0174646D01*
X0213515Y0175144D02*
X0200553Y0175144D01*
X0200117Y0174708D02*
X0201020Y0175611D01*
X0201020Y0176889D01*
X0200117Y0177792D01*
X0198840Y0177792D01*
X0197937Y0176889D01*
X0197937Y0175611D01*
X0198840Y0174708D01*
X0200117Y0174708D01*
X0201020Y0175643D02*
X0229447Y0175643D01*
X0229706Y0175902D02*
X0228803Y0174999D01*
X0228803Y0173722D01*
X0229706Y0172819D01*
X0230983Y0172819D01*
X0231886Y0173722D01*
X0231886Y0174999D01*
X0230983Y0175902D01*
X0229706Y0175902D01*
X0228948Y0175144D02*
X0215756Y0175144D01*
X0216178Y0174646D02*
X0228803Y0174646D01*
X0228803Y0174147D02*
X0216178Y0174147D01*
X0216178Y0173649D02*
X0228876Y0173649D01*
X0229374Y0173150D02*
X0215882Y0173150D01*
X0215383Y0172652D02*
X0245080Y0172652D01*
X0244873Y0173150D02*
X0231315Y0173150D01*
X0231813Y0173649D02*
X0244701Y0173649D01*
X0244701Y0174147D02*
X0231886Y0174147D01*
X0231886Y0174646D02*
X0244701Y0174646D01*
X0244701Y0175144D02*
X0231741Y0175144D01*
X0231242Y0175643D02*
X0244806Y0175643D01*
X0245012Y0176141D02*
X0201020Y0176141D01*
X0201020Y0176640D02*
X0245219Y0176640D01*
X0245463Y0177138D02*
X0200770Y0177138D01*
X0200272Y0177637D02*
X0245962Y0177637D01*
X0246460Y0178135D02*
X0119715Y0178135D01*
X0119715Y0177637D02*
X0198685Y0177637D01*
X0198186Y0177138D02*
X0137778Y0177138D01*
X0137715Y0177201D02*
X0136438Y0177201D01*
X0135535Y0176298D01*
X0135535Y0175021D01*
X0136438Y0174118D01*
X0137715Y0174118D01*
X0138618Y0175021D01*
X0138618Y0176298D01*
X0137715Y0177201D01*
X0138277Y0176640D02*
X0182924Y0176640D01*
X0182426Y0176141D02*
X0153539Y0176141D01*
X0154038Y0175643D02*
X0167557Y0175643D01*
X0167058Y0175144D02*
X0154366Y0175144D01*
X0154366Y0174646D02*
X0166834Y0174646D01*
X0166834Y0174147D02*
X0154366Y0174147D01*
X0153979Y0173649D02*
X0166834Y0173649D01*
X0167327Y0173150D02*
X0153480Y0173150D01*
X0151671Y0173649D02*
X0124339Y0173649D01*
X0124839Y0172153D02*
X0245286Y0172153D01*
X0245627Y0171655D02*
X0124622Y0171655D01*
X0122256Y0173649D02*
X0121976Y0173649D01*
X0119894Y0173649D02*
X0119715Y0173649D01*
X0119715Y0174147D02*
X0136409Y0174147D01*
X0135910Y0174646D02*
X0119715Y0174646D01*
X0119715Y0175144D02*
X0135535Y0175144D01*
X0135535Y0175643D02*
X0119715Y0175643D01*
X0119715Y0176141D02*
X0135535Y0176141D01*
X0135877Y0176640D02*
X0119715Y0176640D01*
X0119715Y0177138D02*
X0136375Y0177138D01*
X0138618Y0176141D02*
X0152111Y0176141D01*
X0151612Y0175643D02*
X0138618Y0175643D01*
X0138618Y0175144D02*
X0151283Y0175144D01*
X0151283Y0174646D02*
X0138243Y0174646D01*
X0137745Y0174147D02*
X0151283Y0174147D01*
X0154175Y0171156D02*
X0246126Y0171156D01*
X0247344Y0178634D02*
X0119715Y0178634D01*
X0119715Y0179132D02*
X0250715Y0179132D01*
X0250496Y0179631D02*
X0119715Y0179631D01*
X0119715Y0180129D02*
X0250496Y0180129D01*
X0250496Y0180628D02*
X0119715Y0180628D01*
X0119715Y0181126D02*
X0250993Y0181126D01*
X0250585Y0181625D02*
X0119715Y0181625D01*
X0119715Y0182123D02*
X0250496Y0182123D01*
X0250496Y0182622D02*
X0119715Y0182622D01*
X0119715Y0183120D02*
X0250270Y0183120D01*
X0249772Y0183619D02*
X0123752Y0183619D01*
X0124250Y0184117D02*
X0249708Y0184117D01*
X0249708Y0184616D02*
X0124445Y0184616D01*
X0124445Y0185114D02*
X0249863Y0185114D01*
X0249746Y0185613D02*
X0124422Y0185613D01*
X0123923Y0186111D02*
X0249708Y0186111D01*
X0249708Y0186610D02*
X0119715Y0186610D01*
X0119715Y0186111D02*
X0119915Y0186111D01*
X0121876Y0186111D02*
X0121884Y0186111D01*
X0121546Y0188106D02*
X0122844Y0188106D01*
X0122346Y0188604D02*
X0122044Y0188604D01*
X0121799Y0190598D02*
X0122512Y0190598D01*
X0119931Y0188106D02*
X0119715Y0188106D01*
X0117431Y0188106D02*
X0117352Y0188106D01*
X0117352Y0188604D02*
X0117431Y0188604D01*
X0117431Y0189103D02*
X0117352Y0189103D01*
X0117352Y0189601D02*
X0117431Y0189601D01*
X0117431Y0190100D02*
X0117352Y0190100D01*
X0117352Y0190598D02*
X0117431Y0190598D01*
X0117431Y0191097D02*
X0117352Y0191097D01*
X0117431Y0191595D02*
X0117244Y0191595D01*
X0117431Y0192094D02*
X0116745Y0192094D01*
X0116247Y0192592D02*
X0117431Y0192592D01*
X0117431Y0193091D02*
X0115748Y0193091D01*
X0115250Y0193589D02*
X0117431Y0193589D01*
X0117431Y0194088D02*
X0114751Y0194088D01*
X0114253Y0194586D02*
X0117431Y0194586D01*
X0117352Y0187607D02*
X0117431Y0187607D01*
X0117431Y0187109D02*
X0117352Y0187109D01*
X0117352Y0186610D02*
X0117431Y0186610D01*
X0117431Y0186111D02*
X0117352Y0186111D01*
X0117352Y0185613D02*
X0117431Y0185613D01*
X0117431Y0185114D02*
X0117352Y0185114D01*
X0117352Y0184616D02*
X0117431Y0184616D01*
X0117431Y0184117D02*
X0117352Y0184117D01*
X0117352Y0183619D02*
X0117431Y0183619D01*
X0117431Y0183120D02*
X0117352Y0183120D01*
X0117352Y0182622D02*
X0117431Y0182622D01*
X0117431Y0182123D02*
X0117352Y0182123D01*
X0117352Y0181625D02*
X0117431Y0181625D01*
X0117431Y0181126D02*
X0117352Y0181126D01*
X0117352Y0180628D02*
X0117431Y0180628D01*
X0117431Y0180129D02*
X0117352Y0180129D01*
X0117352Y0179631D02*
X0117431Y0179631D01*
X0117431Y0179132D02*
X0117352Y0179132D01*
X0117352Y0178634D02*
X0117431Y0178634D01*
X0117431Y0178135D02*
X0117352Y0178135D01*
X0117352Y0177637D02*
X0117431Y0177637D01*
X0117431Y0177138D02*
X0117352Y0177138D01*
X0117352Y0176640D02*
X0117431Y0176640D01*
X0117431Y0176141D02*
X0117352Y0176141D01*
X0117352Y0175643D02*
X0117431Y0175643D01*
X0117431Y0175144D02*
X0117352Y0175144D01*
X0117352Y0174646D02*
X0117431Y0174646D01*
X0117431Y0174147D02*
X0117352Y0174147D01*
X0117352Y0173649D02*
X0117431Y0173649D01*
X0117431Y0173150D02*
X0117352Y0173150D01*
X0117352Y0172652D02*
X0117431Y0172652D01*
X0117431Y0172153D02*
X0117352Y0172153D01*
X0117352Y0171655D02*
X0117431Y0171655D01*
X0117431Y0171156D02*
X0117352Y0171156D01*
X0117431Y0170658D02*
X0117154Y0170658D01*
X0117431Y0170159D02*
X0116656Y0170159D01*
X0116157Y0169661D02*
X0117431Y0169661D01*
X0117347Y0169162D02*
X0115659Y0169162D01*
X0115160Y0168664D02*
X0116849Y0168664D01*
X0116350Y0168165D02*
X0114662Y0168165D01*
X0114163Y0167667D02*
X0115852Y0167667D01*
X0115353Y0167168D02*
X0107972Y0167168D01*
X0108401Y0166670D02*
X0114855Y0166670D01*
X0114356Y0166171D02*
X0108401Y0166171D01*
X0108401Y0165673D02*
X0113858Y0165673D01*
X0113359Y0165174D02*
X0108401Y0165174D01*
X0108181Y0164676D02*
X0112861Y0164676D01*
X0112362Y0164177D02*
X0107683Y0164177D01*
X0107184Y0163678D02*
X0111864Y0163678D01*
X0111365Y0163180D02*
X0103179Y0163180D01*
X0103179Y0163678D02*
X0105170Y0163678D01*
X0104671Y0164177D02*
X0103179Y0164177D01*
X0103301Y0164676D02*
X0104173Y0164676D01*
X0103953Y0165174D02*
X0103800Y0165174D01*
X0103179Y0162681D02*
X0110867Y0162681D01*
X0110368Y0162183D02*
X0103179Y0162183D01*
X0103179Y0161684D02*
X0106171Y0161684D01*
X0105672Y0161186D02*
X0103179Y0161186D01*
X0103179Y0160687D02*
X0105174Y0160687D01*
X0104931Y0160189D02*
X0103179Y0160189D01*
X0103179Y0159690D02*
X0104931Y0159690D01*
X0104931Y0159192D02*
X0103179Y0159192D01*
X0103179Y0158693D02*
X0104931Y0158693D01*
X0105338Y0158195D02*
X0103179Y0158195D01*
X0103179Y0157696D02*
X0104113Y0157696D01*
X0103615Y0157198D02*
X0103179Y0157198D01*
X0104850Y0155204D02*
X0119919Y0155204D01*
X0119421Y0155702D02*
X0108298Y0155702D01*
X0108796Y0156201D02*
X0119393Y0156201D01*
X0119393Y0156699D02*
X0109295Y0156699D01*
X0109793Y0157198D02*
X0112020Y0157198D01*
X0111521Y0157696D02*
X0110292Y0157696D01*
X0110790Y0158195D02*
X0111126Y0158195D01*
X0111740Y0160189D02*
X0111946Y0160189D01*
X0112102Y0160687D02*
X0151579Y0160687D01*
X0151579Y0160189D02*
X0132680Y0160189D01*
X0133179Y0159690D02*
X0151579Y0159690D01*
X0151579Y0159384D02*
X0152882Y0158081D01*
X0154725Y0158081D01*
X0156028Y0159384D01*
X0156028Y0161226D01*
X0154725Y0162529D01*
X0152882Y0162529D01*
X0151579Y0161226D01*
X0151579Y0159384D01*
X0151771Y0159192D02*
X0133500Y0159192D01*
X0133500Y0158693D02*
X0152269Y0158693D01*
X0152768Y0158195D02*
X0133500Y0158195D01*
X0133105Y0157696D02*
X0181554Y0157696D01*
X0181030Y0157198D02*
X0132606Y0157198D01*
X0131311Y0157198D02*
X0129851Y0157198D01*
X0130349Y0157696D02*
X0130812Y0157696D01*
X0130738Y0159690D02*
X0130423Y0159690D01*
X0129924Y0160189D02*
X0131237Y0160189D01*
X0128481Y0160189D02*
X0127562Y0160189D01*
X0126119Y0160189D02*
X0125200Y0160189D01*
X0123757Y0160189D02*
X0122838Y0160189D01*
X0121394Y0160189D02*
X0120476Y0160189D01*
X0119032Y0160189D02*
X0118113Y0160189D01*
X0116670Y0160189D02*
X0115751Y0160189D01*
X0114308Y0160189D02*
X0113389Y0160189D01*
X0112600Y0161186D02*
X0151579Y0161186D01*
X0152037Y0161684D02*
X0113099Y0161684D01*
X0113597Y0162183D02*
X0152535Y0162183D01*
X0155071Y0162183D02*
X0185531Y0162183D01*
X0185033Y0161684D02*
X0155570Y0161684D01*
X0156028Y0161186D02*
X0184534Y0161186D01*
X0184268Y0160687D02*
X0156028Y0160687D01*
X0156028Y0160189D02*
X0184178Y0160189D01*
X0183653Y0159690D02*
X0156028Y0159690D01*
X0155836Y0159192D02*
X0183129Y0159192D01*
X0182604Y0158693D02*
X0155337Y0158693D01*
X0154839Y0158195D02*
X0182079Y0158195D01*
X0180505Y0156699D02*
X0124721Y0156699D01*
X0124721Y0156201D02*
X0179980Y0156201D01*
X0179456Y0155702D02*
X0124497Y0155702D01*
X0123998Y0155204D02*
X0178931Y0155204D01*
X0178406Y0154705D02*
X0104643Y0154705D01*
X0104643Y0154207D02*
X0177857Y0154207D01*
X0177357Y0153708D02*
X0104643Y0153708D01*
X0104643Y0153210D02*
X0176874Y0153210D01*
X0176874Y0152711D02*
X0104643Y0152711D01*
X0104643Y0152213D02*
X0176866Y0152213D01*
X0176874Y0151714D02*
X0104643Y0151714D01*
X0104643Y0151216D02*
X0176874Y0151216D01*
X0176874Y0150717D02*
X0104643Y0150717D01*
X0104643Y0150219D02*
X0150573Y0150219D01*
X0150074Y0149720D02*
X0104643Y0149720D01*
X0104643Y0149222D02*
X0149576Y0149222D01*
X0149077Y0148723D02*
X0104643Y0148723D01*
X0104643Y0148225D02*
X0148579Y0148225D01*
X0148080Y0147726D02*
X0104643Y0147726D01*
X0104643Y0147228D02*
X0147582Y0147228D01*
X0147083Y0146729D02*
X0104643Y0146729D01*
X0104643Y0146231D02*
X0146584Y0146231D01*
X0146086Y0145732D02*
X0104643Y0145732D01*
X0104643Y0145234D02*
X0145587Y0145234D01*
X0145089Y0144735D02*
X0104643Y0144735D01*
X0104643Y0144237D02*
X0144590Y0144237D01*
X0144092Y0143738D02*
X0104643Y0143738D01*
X0104643Y0143240D02*
X0143593Y0143240D01*
X0143095Y0142741D02*
X0104643Y0142741D01*
X0104785Y0142242D02*
X0142596Y0142242D01*
X0142098Y0141744D02*
X0111977Y0141744D01*
X0112475Y0141245D02*
X0141599Y0141245D01*
X0141101Y0140747D02*
X0112974Y0140747D01*
X0113472Y0140248D02*
X0140602Y0140248D01*
X0140104Y0139750D02*
X0113971Y0139750D01*
X0114469Y0139251D02*
X0139605Y0139251D01*
X0139107Y0138753D02*
X0114968Y0138753D01*
X0114990Y0138254D02*
X0119932Y0138254D01*
X0120296Y0138618D02*
X0119393Y0137715D01*
X0119393Y0136438D01*
X0120296Y0135535D01*
X0121574Y0135535D01*
X0122116Y0136078D01*
X0122659Y0135535D01*
X0123936Y0135535D01*
X0124839Y0136438D01*
X0124839Y0137715D01*
X0123936Y0138618D01*
X0122659Y0138618D01*
X0122116Y0138076D01*
X0121574Y0138618D01*
X0120296Y0138618D01*
X0119434Y0137756D02*
X0114990Y0137756D01*
X0114990Y0137257D02*
X0119393Y0137257D01*
X0119393Y0136759D02*
X0114990Y0136759D01*
X0114990Y0136260D02*
X0119571Y0136260D01*
X0120070Y0135762D02*
X0114990Y0135762D01*
X0114990Y0135263D02*
X0135617Y0135263D01*
X0135119Y0134765D02*
X0114990Y0134765D01*
X0114990Y0134266D02*
X0134620Y0134266D01*
X0134122Y0133768D02*
X0115229Y0133768D01*
X0115727Y0133269D02*
X0133623Y0133269D01*
X0133125Y0132771D02*
X0116226Y0132771D01*
X0116724Y0132272D02*
X0132626Y0132272D01*
X0132128Y0131774D02*
X0117223Y0131774D01*
X0117721Y0131275D02*
X0131629Y0131275D01*
X0131131Y0130777D02*
X0118220Y0130777D01*
X0118718Y0130278D02*
X0130632Y0130278D01*
X0130134Y0129780D02*
X0119217Y0129780D01*
X0121800Y0135762D02*
X0122432Y0135762D01*
X0124163Y0135762D02*
X0136116Y0135762D01*
X0136614Y0136260D02*
X0124661Y0136260D01*
X0124839Y0136759D02*
X0137113Y0136759D01*
X0137611Y0137257D02*
X0124839Y0137257D01*
X0124798Y0137756D02*
X0138110Y0137756D01*
X0138608Y0138254D02*
X0124300Y0138254D01*
X0122295Y0138254D02*
X0121938Y0138254D01*
X0133553Y0126789D02*
X0133835Y0126789D01*
X0134052Y0127287D02*
X0134334Y0127287D01*
X0134550Y0127786D02*
X0134833Y0127786D01*
X0135049Y0128284D02*
X0135331Y0128284D01*
X0135547Y0128783D02*
X0135830Y0128783D01*
X0136046Y0129281D02*
X0136328Y0129281D01*
X0136544Y0129780D02*
X0136827Y0129780D01*
X0137043Y0130278D02*
X0137325Y0130278D01*
X0137541Y0130777D02*
X0137824Y0130777D01*
X0138040Y0131275D02*
X0138322Y0131275D01*
X0138538Y0131774D02*
X0138821Y0131774D01*
X0139037Y0132272D02*
X0139319Y0132272D01*
X0139535Y0132771D02*
X0139818Y0132771D01*
X0140034Y0133269D02*
X0140316Y0133269D01*
X0140532Y0133768D02*
X0140815Y0133768D01*
X0141031Y0134266D02*
X0141313Y0134266D01*
X0141529Y0134765D02*
X0141812Y0134765D01*
X0141841Y0134794D02*
X0141841Y0134794D01*
X0142028Y0135263D02*
X0142310Y0135263D01*
X0142526Y0135762D02*
X0170368Y0135762D01*
X0169869Y0135263D02*
X0158221Y0135263D01*
X0158720Y0134765D02*
X0169371Y0134765D01*
X0168872Y0134266D02*
X0159218Y0134266D01*
X0159717Y0133768D02*
X0168374Y0133768D01*
X0167875Y0133269D02*
X0160215Y0133269D01*
X0160714Y0132771D02*
X0167377Y0132771D01*
X0166878Y0132272D02*
X0161212Y0132272D01*
X0161711Y0131774D02*
X0164915Y0131774D01*
X0164416Y0131275D02*
X0162209Y0131275D01*
X0162708Y0130777D02*
X0164033Y0130777D01*
X0164033Y0130278D02*
X0163206Y0130278D01*
X0163705Y0129780D02*
X0164033Y0129780D01*
X0164203Y0129281D02*
X0164367Y0129281D01*
X0164702Y0128783D02*
X0164865Y0128783D01*
X0165200Y0128284D02*
X0172039Y0128284D01*
X0172039Y0127786D02*
X0168233Y0127786D01*
X0168732Y0127287D02*
X0172039Y0127287D01*
X0172350Y0126789D02*
X0171002Y0126789D01*
X0171500Y0126290D02*
X0172439Y0126290D01*
X0172439Y0125792D02*
X0171886Y0125792D01*
X0171886Y0125293D02*
X0172439Y0125293D01*
X0172439Y0124795D02*
X0171886Y0124795D01*
X0171555Y0124296D02*
X0172439Y0124296D01*
X0172439Y0123798D02*
X0171631Y0123798D01*
X0171886Y0123299D02*
X0172439Y0123299D01*
X0172439Y0122801D02*
X0171886Y0122801D01*
X0171886Y0122302D02*
X0172439Y0122302D01*
X0172439Y0121804D02*
X0171425Y0121804D01*
X0171761Y0121305D02*
X0172439Y0121305D01*
X0172439Y0120807D02*
X0171886Y0120807D01*
X0171886Y0120308D02*
X0172439Y0120308D01*
X0172439Y0119809D02*
X0171793Y0119809D01*
X0171787Y0119311D02*
X0172439Y0119311D01*
X0172439Y0118812D02*
X0171886Y0118812D01*
X0171886Y0118314D02*
X0172439Y0118314D01*
X0172439Y0117815D02*
X0171767Y0117815D01*
X0171418Y0117317D02*
X0172439Y0117317D01*
X0172439Y0116818D02*
X0171886Y0116818D01*
X0171886Y0116320D02*
X0172439Y0116320D01*
X0172439Y0115821D02*
X0171886Y0115821D01*
X0171637Y0115323D02*
X0172370Y0115323D01*
X0171871Y0114824D02*
X0171139Y0114824D01*
X0171373Y0114326D02*
X0170049Y0114326D01*
X0172608Y0112332D02*
X0223206Y0112332D01*
X0222777Y0112830D02*
X0213987Y0112830D01*
X0213936Y0112779D02*
X0214715Y0113558D01*
X0214745Y0113527D01*
X0216022Y0113527D01*
X0216926Y0114430D01*
X0216926Y0115707D01*
X0216022Y0116611D01*
X0214745Y0116611D01*
X0213967Y0115832D01*
X0213936Y0115863D01*
X0212659Y0115863D01*
X0212293Y0115497D01*
X0211770Y0116020D01*
X0210493Y0116020D01*
X0209590Y0115117D01*
X0209590Y0113840D01*
X0210493Y0112937D01*
X0211770Y0112937D01*
X0212136Y0113302D01*
X0212659Y0112779D01*
X0213936Y0112779D01*
X0214485Y0113329D02*
X0222570Y0113329D01*
X0222412Y0113827D02*
X0216323Y0113827D01*
X0216821Y0114326D02*
X0222412Y0114326D01*
X0222412Y0114824D02*
X0216926Y0114824D01*
X0216926Y0115323D02*
X0222412Y0115323D01*
X0222573Y0115821D02*
X0216812Y0115821D01*
X0216313Y0116320D02*
X0222779Y0116320D01*
X0223213Y0116818D02*
X0174722Y0116818D01*
X0174722Y0116320D02*
X0214455Y0116320D01*
X0212618Y0115821D02*
X0211969Y0115821D01*
X0210295Y0115821D02*
X0174722Y0115821D01*
X0174722Y0115323D02*
X0209796Y0115323D01*
X0209590Y0114824D02*
X0174722Y0114824D01*
X0174602Y0114326D02*
X0209590Y0114326D01*
X0209603Y0113827D02*
X0174103Y0113827D01*
X0173605Y0113329D02*
X0210101Y0113329D01*
X0212607Y0112830D02*
X0173106Y0112830D01*
X0174722Y0117317D02*
X0223711Y0117317D01*
X0224210Y0117815D02*
X0174722Y0117815D01*
X0174722Y0118314D02*
X0224708Y0118314D01*
X0225207Y0118812D02*
X0174722Y0118812D01*
X0174722Y0119311D02*
X0225705Y0119311D01*
X0226204Y0119809D02*
X0174722Y0119809D01*
X0174722Y0120308D02*
X0226703Y0120308D01*
X0226228Y0120807D02*
X0174722Y0120807D01*
X0174722Y0121305D02*
X0215511Y0121305D01*
X0215848Y0120968D02*
X0217125Y0120968D01*
X0218028Y0121871D01*
X0218028Y0123148D01*
X0217623Y0123553D01*
X0217910Y0123840D01*
X0217910Y0125117D01*
X0217564Y0125463D01*
X0217910Y0125808D01*
X0217910Y0127085D01*
X0217564Y0127431D01*
X0217910Y0127777D01*
X0217910Y0129054D01*
X0217007Y0129957D01*
X0215730Y0129957D01*
X0214826Y0129054D01*
X0214826Y0127777D01*
X0215172Y0127431D01*
X0214826Y0127085D01*
X0214826Y0125808D01*
X0215172Y0125463D01*
X0214826Y0125117D01*
X0214826Y0123840D01*
X0215231Y0123435D01*
X0214945Y0123148D01*
X0214945Y0121871D01*
X0215848Y0120968D01*
X0215012Y0121804D02*
X0174722Y0121804D01*
X0174722Y0122302D02*
X0214945Y0122302D01*
X0214945Y0122801D02*
X0174722Y0122801D01*
X0174722Y0123299D02*
X0215095Y0123299D01*
X0214869Y0123798D02*
X0174722Y0123798D01*
X0174722Y0124296D02*
X0214826Y0124296D01*
X0214826Y0124795D02*
X0174722Y0124795D01*
X0174722Y0125293D02*
X0215003Y0125293D01*
X0214843Y0125792D02*
X0174722Y0125792D01*
X0174722Y0126290D02*
X0187526Y0126290D01*
X0187619Y0126197D02*
X0188896Y0126197D01*
X0189800Y0127100D01*
X0189800Y0128377D01*
X0188896Y0129280D01*
X0187619Y0129280D01*
X0186716Y0128377D01*
X0186716Y0127100D01*
X0187619Y0126197D01*
X0187027Y0126789D02*
X0174811Y0126789D01*
X0175122Y0127287D02*
X0186716Y0127287D01*
X0186716Y0127786D02*
X0175122Y0127786D01*
X0175122Y0128284D02*
X0186716Y0128284D01*
X0187122Y0128783D02*
X0174716Y0128783D01*
X0172444Y0128783D02*
X0166284Y0128783D01*
X0167116Y0129281D02*
X0215054Y0129281D01*
X0214826Y0128783D02*
X0189394Y0128783D01*
X0189800Y0128284D02*
X0214826Y0128284D01*
X0214826Y0127786D02*
X0189800Y0127786D01*
X0189800Y0127287D02*
X0215028Y0127287D01*
X0214826Y0126789D02*
X0189488Y0126789D01*
X0188990Y0126290D02*
X0214826Y0126290D01*
X0217708Y0127287D02*
X0219182Y0127287D01*
X0219086Y0127786D02*
X0217910Y0127786D01*
X0217910Y0128284D02*
X0219086Y0128284D01*
X0219208Y0128783D02*
X0217910Y0128783D01*
X0217683Y0129281D02*
X0219707Y0129281D01*
X0219680Y0126789D02*
X0217910Y0126789D01*
X0217910Y0126290D02*
X0220745Y0126290D01*
X0221243Y0125792D02*
X0217893Y0125792D01*
X0217734Y0125293D02*
X0221742Y0125293D01*
X0222240Y0124795D02*
X0217910Y0124795D01*
X0217910Y0124296D02*
X0222739Y0124296D01*
X0223237Y0123798D02*
X0217868Y0123798D01*
X0217877Y0123299D02*
X0223736Y0123299D01*
X0224234Y0122801D02*
X0218028Y0122801D01*
X0218028Y0122302D02*
X0224733Y0122302D01*
X0225231Y0121804D02*
X0217960Y0121804D01*
X0217462Y0121305D02*
X0225730Y0121305D01*
X0229899Y0115821D02*
X0232972Y0115821D01*
X0232473Y0115323D02*
X0229401Y0115323D01*
X0228902Y0114824D02*
X0232228Y0114824D01*
X0232228Y0114326D02*
X0228404Y0114326D01*
X0227905Y0113827D02*
X0232228Y0113827D01*
X0232700Y0113329D02*
X0227687Y0113329D01*
X0236690Y0113329D02*
X0236794Y0113329D01*
X0238619Y0113329D02*
X0238802Y0113329D01*
X0240627Y0113329D02*
X0240652Y0113329D01*
X0242635Y0113329D02*
X0242660Y0113329D01*
X0244301Y0129780D02*
X0217184Y0129780D01*
X0215552Y0129780D02*
X0167615Y0129780D01*
X0167616Y0129781D02*
X0167616Y0129781D01*
X0168113Y0130278D02*
X0244301Y0130278D01*
X0244301Y0130777D02*
X0168612Y0130777D01*
X0169110Y0131275D02*
X0244301Y0131275D01*
X0244770Y0131774D02*
X0169609Y0131774D01*
X0170107Y0132272D02*
X0245268Y0132272D01*
X0229182Y0132771D02*
X0170606Y0132771D01*
X0171104Y0133269D02*
X0228683Y0133269D01*
X0228185Y0133768D02*
X0171603Y0133768D01*
X0172101Y0134266D02*
X0228159Y0134266D01*
X0228654Y0141744D02*
X0174045Y0141744D01*
X0174045Y0142242D02*
X0228527Y0142242D01*
X0228527Y0142741D02*
X0179548Y0142741D01*
X0180047Y0143240D02*
X0228618Y0143240D01*
X0229117Y0143738D02*
X0180545Y0143738D01*
X0180831Y0144237D02*
X0230296Y0144237D01*
X0230102Y0144735D02*
X0180831Y0144735D01*
X0180831Y0145234D02*
X0230102Y0145234D01*
X0228879Y0145732D02*
X0180831Y0145732D01*
X0180466Y0146231D02*
X0228380Y0146231D01*
X0228094Y0146729D02*
X0217138Y0146729D01*
X0217636Y0147228D02*
X0228094Y0147228D01*
X0228094Y0147726D02*
X0217713Y0147726D01*
X0217713Y0148225D02*
X0228525Y0148225D01*
X0238306Y0158195D02*
X0218674Y0158195D01*
X0218240Y0157760D02*
X0219543Y0159063D01*
X0219543Y0160906D01*
X0218240Y0162209D01*
X0216397Y0162209D01*
X0215094Y0160906D01*
X0215094Y0159063D01*
X0216397Y0157760D01*
X0218240Y0157760D01*
X0219173Y0158693D02*
X0238173Y0158693D01*
X0238173Y0159192D02*
X0219543Y0159192D01*
X0219543Y0159690D02*
X0238258Y0159690D01*
X0238757Y0160189D02*
X0219543Y0160189D01*
X0219543Y0160687D02*
X0238488Y0160687D01*
X0238488Y0161186D02*
X0219263Y0161186D01*
X0218764Y0161684D02*
X0238488Y0161684D01*
X0238743Y0162183D02*
X0218266Y0162183D01*
X0216371Y0162183D02*
X0187453Y0162183D01*
X0187951Y0161684D02*
X0215872Y0161684D01*
X0215374Y0161186D02*
X0188450Y0161186D01*
X0188716Y0160687D02*
X0215094Y0160687D01*
X0215094Y0160189D02*
X0188716Y0160189D01*
X0188716Y0159690D02*
X0215094Y0159690D01*
X0215094Y0159192D02*
X0188716Y0159192D01*
X0188333Y0158693D02*
X0215464Y0158693D01*
X0215963Y0158195D02*
X0187835Y0158195D01*
X0186584Y0157696D02*
X0238804Y0157696D01*
X0246090Y0153708D02*
X0251559Y0153708D01*
X0251952Y0153210D02*
X0246335Y0153210D01*
X0246335Y0152711D02*
X0250019Y0152711D01*
X0249521Y0152213D02*
X0246335Y0152213D01*
X0252008Y0152711D02*
X0252451Y0152711D01*
X0215270Y0149222D02*
X0214947Y0149222D01*
X0212908Y0149222D02*
X0201955Y0149222D01*
X0201574Y0149603D02*
X0200296Y0149603D01*
X0199754Y0149060D01*
X0199211Y0149603D01*
X0197934Y0149603D01*
X0197031Y0148700D01*
X0197031Y0147422D01*
X0197934Y0146519D01*
X0199211Y0146519D01*
X0199754Y0147062D01*
X0200296Y0146519D01*
X0201574Y0146519D01*
X0202477Y0147422D01*
X0202477Y0148700D01*
X0201574Y0149603D01*
X0202453Y0148723D02*
X0212409Y0148723D01*
X0212385Y0148225D02*
X0202477Y0148225D01*
X0202477Y0147726D02*
X0212385Y0147726D01*
X0212580Y0147228D02*
X0202282Y0147228D01*
X0201783Y0146729D02*
X0213079Y0146729D01*
X0214776Y0146729D02*
X0215205Y0146729D01*
X0200087Y0146729D02*
X0199421Y0146729D01*
X0197724Y0146729D02*
X0186272Y0146729D01*
X0186022Y0146480D02*
X0186926Y0147383D01*
X0186926Y0148660D01*
X0186022Y0149563D01*
X0184745Y0149563D01*
X0184262Y0149080D01*
X0183778Y0149563D01*
X0182501Y0149563D01*
X0181598Y0148660D01*
X0181598Y0147383D01*
X0182501Y0146480D01*
X0183778Y0146480D01*
X0184262Y0146963D01*
X0184745Y0146480D01*
X0186022Y0146480D01*
X0186770Y0147228D02*
X0197226Y0147228D01*
X0197031Y0147726D02*
X0186926Y0147726D01*
X0186926Y0148225D02*
X0197031Y0148225D01*
X0197055Y0148723D02*
X0186863Y0148723D01*
X0186364Y0149222D02*
X0197553Y0149222D01*
X0199592Y0149222D02*
X0199915Y0149222D01*
X0184404Y0149222D02*
X0184120Y0149222D01*
X0182159Y0149222D02*
X0180339Y0149222D01*
X0180339Y0148723D02*
X0181661Y0148723D01*
X0181598Y0148225D02*
X0180339Y0148225D01*
X0180339Y0147726D02*
X0181598Y0147726D01*
X0181754Y0147228D02*
X0180339Y0147228D01*
X0180339Y0146729D02*
X0182252Y0146729D01*
X0184027Y0146729D02*
X0184496Y0146729D01*
X0176874Y0146729D02*
X0174045Y0146729D01*
X0174045Y0146231D02*
X0176746Y0146231D01*
X0176382Y0145732D02*
X0174045Y0145732D01*
X0174045Y0145234D02*
X0176382Y0145234D01*
X0176382Y0144735D02*
X0174045Y0144735D01*
X0174045Y0144237D02*
X0176382Y0144237D01*
X0176667Y0143738D02*
X0174045Y0143738D01*
X0174045Y0143240D02*
X0177166Y0143240D01*
X0177665Y0142741D02*
X0174045Y0142741D01*
X0174045Y0147228D02*
X0176874Y0147228D01*
X0176874Y0147726D02*
X0174045Y0147726D01*
X0174045Y0148225D02*
X0176874Y0148225D01*
X0176874Y0148723D02*
X0174045Y0148723D01*
X0173987Y0149222D02*
X0176874Y0149222D01*
X0176874Y0149720D02*
X0173489Y0149720D01*
X0172990Y0150219D02*
X0176874Y0150219D01*
X0169682Y0136260D02*
X0143025Y0136260D01*
X0133337Y0126290D02*
X0133055Y0126290D01*
X0132838Y0125792D02*
X0132556Y0125792D01*
X0132340Y0125293D02*
X0132058Y0125293D01*
X0122360Y0155204D02*
X0121951Y0155204D01*
X0119106Y0157198D02*
X0118040Y0157198D01*
X0118538Y0157696D02*
X0118608Y0157696D01*
X0116744Y0157198D02*
X0115677Y0157198D01*
X0116176Y0157696D02*
X0116245Y0157696D01*
X0114382Y0157198D02*
X0113315Y0157198D01*
X0113814Y0157696D02*
X0113883Y0157696D01*
X0114096Y0162681D02*
X0136673Y0162681D01*
X0136174Y0163180D02*
X0124200Y0163180D01*
X0123825Y0162805D02*
X0125128Y0164108D01*
X0125128Y0165951D01*
X0123825Y0167254D01*
X0121982Y0167254D01*
X0120679Y0165951D01*
X0120679Y0164108D01*
X0121982Y0162805D01*
X0123825Y0162805D01*
X0124698Y0163678D02*
X0135676Y0163678D01*
X0135640Y0164177D02*
X0125128Y0164177D01*
X0125128Y0164676D02*
X0135640Y0164676D01*
X0135640Y0165174D02*
X0125128Y0165174D01*
X0125128Y0165673D02*
X0135755Y0165673D01*
X0136254Y0166171D02*
X0124908Y0166171D01*
X0121896Y0167168D02*
X0118582Y0167168D01*
X0118084Y0166670D02*
X0121398Y0166670D01*
X0120899Y0166171D02*
X0117585Y0166171D01*
X0117087Y0165673D02*
X0120679Y0165673D01*
X0120679Y0165174D02*
X0116588Y0165174D01*
X0116090Y0164676D02*
X0120679Y0164676D01*
X0120679Y0164177D02*
X0115591Y0164177D01*
X0115093Y0163678D02*
X0121109Y0163678D01*
X0121607Y0163180D02*
X0114594Y0163180D01*
X0109870Y0161684D02*
X0108140Y0161684D01*
X0108639Y0161186D02*
X0109457Y0161186D01*
X0109457Y0160687D02*
X0109137Y0160687D01*
X0109380Y0160189D02*
X0109457Y0160189D01*
X0109016Y0171655D02*
X0106906Y0171655D01*
X0108192Y0172153D02*
X0109515Y0172153D01*
X0110013Y0172652D02*
X0108690Y0172652D01*
X0109091Y0173150D02*
X0110512Y0173150D01*
X0111010Y0173649D02*
X0109091Y0173649D01*
X0109091Y0174147D02*
X0111509Y0174147D01*
X0111919Y0174646D02*
X0108775Y0174646D01*
X0108427Y0175144D02*
X0111919Y0175144D01*
X0111919Y0175643D02*
X0108925Y0175643D01*
X0109091Y0176141D02*
X0111919Y0176141D01*
X0111919Y0176640D02*
X0109091Y0176640D01*
X0109038Y0177138D02*
X0111919Y0177138D01*
X0111919Y0177637D02*
X0108557Y0177637D01*
X0109056Y0178135D02*
X0111919Y0178135D01*
X0111919Y0178634D02*
X0109091Y0178634D01*
X0109091Y0179132D02*
X0111919Y0179132D01*
X0111919Y0179631D02*
X0108908Y0179631D01*
X0108688Y0180129D02*
X0111919Y0180129D01*
X0111919Y0180628D02*
X0109091Y0180628D01*
X0109091Y0181126D02*
X0111919Y0181126D01*
X0111919Y0181625D02*
X0109091Y0181625D01*
X0108777Y0182123D02*
X0111919Y0182123D01*
X0111919Y0182622D02*
X0108279Y0182622D01*
X0108057Y0183120D02*
X0111919Y0183120D01*
X0111919Y0183619D02*
X0108555Y0183619D01*
X0108658Y0184117D02*
X0111919Y0184117D01*
X0111919Y0184616D02*
X0108658Y0184616D01*
X0108542Y0185114D02*
X0111919Y0185114D01*
X0111919Y0185613D02*
X0108044Y0185613D01*
X0119715Y0183619D02*
X0120008Y0183619D01*
X0121783Y0183619D02*
X0122055Y0183619D01*
X0125625Y0157696D02*
X0125694Y0157696D01*
X0126193Y0157198D02*
X0125126Y0157198D01*
X0127488Y0157198D02*
X0128555Y0157198D01*
X0128056Y0157696D02*
X0127987Y0157696D01*
X0169195Y0175643D02*
X0182189Y0175643D01*
X0182189Y0175144D02*
X0169694Y0175144D01*
X0169918Y0174646D02*
X0182189Y0174646D01*
X0182669Y0174147D02*
X0169918Y0174147D01*
X0184537Y0176640D02*
X0197937Y0176640D01*
X0197937Y0176141D02*
X0185035Y0176141D01*
X0185272Y0175643D02*
X0197937Y0175643D01*
X0198404Y0175144D02*
X0185272Y0175144D01*
X0185324Y0192592D02*
X0213247Y0192592D01*
X0213745Y0193091D02*
X0185822Y0193091D01*
X0199016Y0234966D02*
X0111447Y0234966D01*
X0111945Y0234467D02*
X0250003Y0234467D01*
X0249708Y0233969D02*
X0112241Y0233969D01*
X0124230Y0240948D02*
X0245771Y0240948D01*
X0245771Y0241446D02*
X0124642Y0241446D01*
X0124642Y0241945D02*
X0136328Y0241945D01*
X0136635Y0241637D02*
X0137912Y0241637D01*
X0138815Y0242541D01*
X0138815Y0243818D01*
X0137912Y0244721D01*
X0136635Y0244721D01*
X0135732Y0243818D01*
X0135732Y0242541D01*
X0136635Y0241637D01*
X0135829Y0242443D02*
X0124642Y0242443D01*
X0124453Y0242942D02*
X0135732Y0242942D01*
X0135732Y0243440D02*
X0124951Y0243440D01*
X0125036Y0243939D02*
X0135853Y0243939D01*
X0136352Y0244437D02*
X0125036Y0244437D01*
X0124902Y0244936D02*
X0245771Y0244936D01*
X0245771Y0245434D02*
X0124403Y0245434D01*
X0124202Y0246431D02*
X0183613Y0246431D01*
X0183682Y0246362D02*
X0184959Y0246362D01*
X0185863Y0247265D01*
X0185863Y0248542D01*
X0184959Y0249445D01*
X0183682Y0249445D01*
X0182779Y0248542D01*
X0182779Y0247265D01*
X0183682Y0246362D01*
X0183114Y0246930D02*
X0124701Y0246930D01*
X0124839Y0247428D02*
X0182779Y0247428D01*
X0182779Y0247927D02*
X0169595Y0247927D01*
X0169408Y0247740D02*
X0170311Y0248643D01*
X0170311Y0249920D01*
X0169408Y0250823D01*
X0168131Y0250823D01*
X0167228Y0249920D01*
X0167228Y0248643D01*
X0168131Y0247740D01*
X0169408Y0247740D01*
X0170094Y0248425D02*
X0182779Y0248425D01*
X0183161Y0248924D02*
X0170311Y0248924D01*
X0170311Y0249422D02*
X0183659Y0249422D01*
X0184982Y0249422D02*
X0199126Y0249422D01*
X0199233Y0249315D02*
X0200511Y0249315D01*
X0201414Y0250218D01*
X0201414Y0251495D01*
X0200511Y0252398D01*
X0199233Y0252398D01*
X0198330Y0251495D01*
X0198330Y0250218D01*
X0199233Y0249315D01*
X0198627Y0249921D02*
X0170311Y0249921D01*
X0169812Y0250419D02*
X0198330Y0250419D01*
X0198330Y0250918D02*
X0125233Y0250918D01*
X0125233Y0250419D02*
X0167727Y0250419D01*
X0167229Y0249921D02*
X0125133Y0249921D01*
X0124634Y0249422D02*
X0167228Y0249422D01*
X0167228Y0248924D02*
X0124260Y0248924D01*
X0124759Y0248425D02*
X0167445Y0248425D01*
X0167944Y0247927D02*
X0124839Y0247927D01*
X0123067Y0245933D02*
X0245771Y0245933D01*
X0246014Y0246431D02*
X0185029Y0246431D01*
X0185527Y0246930D02*
X0245771Y0246930D01*
X0245771Y0247428D02*
X0185863Y0247428D01*
X0185863Y0247927D02*
X0245771Y0247927D01*
X0245989Y0248425D02*
X0185863Y0248425D01*
X0185481Y0248924D02*
X0229545Y0248924D01*
X0229548Y0248921D02*
X0230826Y0248921D01*
X0231729Y0249824D01*
X0231729Y0251101D01*
X0230826Y0252004D01*
X0229548Y0252004D01*
X0228645Y0251101D01*
X0228645Y0249824D01*
X0229548Y0248921D01*
X0229047Y0249422D02*
X0215382Y0249422D01*
X0215274Y0249315D02*
X0216178Y0250218D01*
X0216178Y0251495D01*
X0215274Y0252398D01*
X0213997Y0252398D01*
X0213094Y0251495D01*
X0213094Y0250218D01*
X0213997Y0249315D01*
X0215274Y0249315D01*
X0215881Y0249921D02*
X0228645Y0249921D01*
X0228645Y0250419D02*
X0216178Y0250419D01*
X0216178Y0250918D02*
X0228645Y0250918D01*
X0228961Y0251416D02*
X0216178Y0251416D01*
X0215757Y0251915D02*
X0229459Y0251915D01*
X0230915Y0251915D02*
X0245798Y0251915D01*
X0245771Y0251416D02*
X0231413Y0251416D01*
X0231729Y0250918D02*
X0245771Y0250918D01*
X0245963Y0250419D02*
X0231729Y0250419D01*
X0231729Y0249921D02*
X0245772Y0249921D01*
X0245771Y0249422D02*
X0231327Y0249422D01*
X0230829Y0248924D02*
X0245771Y0248924D01*
X0246296Y0252413D02*
X0153610Y0252413D01*
X0153973Y0252912D02*
X0247556Y0252912D01*
X0246548Y0253411D02*
X0153973Y0253411D01*
X0153973Y0253909D02*
X0246050Y0253909D01*
X0245551Y0254408D02*
X0153619Y0254408D01*
X0153111Y0251915D02*
X0198750Y0251915D01*
X0198330Y0251416D02*
X0125114Y0251416D01*
X0138196Y0244437D02*
X0246040Y0244437D01*
X0245771Y0243939D02*
X0138694Y0243939D01*
X0138815Y0243440D02*
X0245771Y0243440D01*
X0245771Y0242942D02*
X0138815Y0242942D01*
X0138718Y0242443D02*
X0246065Y0242443D01*
X0245771Y0241945D02*
X0138220Y0241945D01*
X0152698Y0264876D02*
X0103179Y0264876D01*
X0103179Y0264378D02*
X0256512Y0264378D01*
X0256512Y0264876D02*
X0239566Y0264876D01*
X0240357Y0265375D02*
X0256512Y0265375D01*
X0256512Y0265873D02*
X0240855Y0265873D01*
X0241767Y0267369D02*
X0256512Y0267369D01*
X0256512Y0267867D02*
X0241973Y0267867D01*
X0242051Y0268366D02*
X0256512Y0268366D01*
X0256512Y0268864D02*
X0242051Y0268864D01*
X0242051Y0269363D02*
X0256512Y0269363D01*
X0256512Y0269861D02*
X0255427Y0269861D01*
X0255393Y0269826D02*
X0256296Y0270730D01*
X0256296Y0272007D01*
X0255393Y0272910D01*
X0254115Y0272910D01*
X0253573Y0272367D01*
X0253070Y0272870D01*
X0251793Y0272870D01*
X0250889Y0271967D01*
X0250889Y0270690D01*
X0251793Y0269787D01*
X0253070Y0269787D01*
X0253612Y0270330D01*
X0254115Y0269826D01*
X0255393Y0269826D01*
X0255926Y0270360D02*
X0256512Y0270360D01*
X0256512Y0270858D02*
X0256296Y0270858D01*
X0256296Y0271357D02*
X0256512Y0271357D01*
X0256512Y0271855D02*
X0256296Y0271855D01*
X0256512Y0272354D02*
X0255948Y0272354D01*
X0255450Y0272852D02*
X0256512Y0272852D01*
X0256453Y0273351D02*
X0241594Y0273351D01*
X0241219Y0272976D02*
X0242122Y0273879D01*
X0242122Y0275156D01*
X0241219Y0276059D01*
X0239942Y0276059D01*
X0239039Y0275156D01*
X0239039Y0273879D01*
X0239942Y0272976D01*
X0241219Y0272976D01*
X0240561Y0272354D02*
X0242536Y0272354D01*
X0242189Y0272007D02*
X0242189Y0270730D01*
X0243092Y0269826D01*
X0244369Y0269826D01*
X0245108Y0270566D01*
X0245848Y0269826D01*
X0247125Y0269826D01*
X0247864Y0270566D01*
X0248604Y0269826D01*
X0249881Y0269826D01*
X0250784Y0270730D01*
X0250784Y0272007D01*
X0249881Y0272910D01*
X0248604Y0272910D01*
X0247864Y0272170D01*
X0247125Y0272910D01*
X0245848Y0272910D01*
X0245108Y0272170D01*
X0244369Y0272910D01*
X0243092Y0272910D01*
X0242189Y0272007D01*
X0242189Y0271855D02*
X0241060Y0271855D01*
X0241438Y0271357D02*
X0242189Y0271357D01*
X0242189Y0270858D02*
X0241645Y0270858D01*
X0241851Y0270360D02*
X0242558Y0270360D01*
X0243057Y0269861D02*
X0242051Y0269861D01*
X0244404Y0269861D02*
X0245813Y0269861D01*
X0245314Y0270360D02*
X0244902Y0270360D01*
X0244925Y0272354D02*
X0245292Y0272354D01*
X0245790Y0272852D02*
X0244426Y0272852D01*
X0243034Y0272852D02*
X0240059Y0272852D01*
X0239567Y0273351D02*
X0238855Y0273351D01*
X0239069Y0273849D02*
X0234612Y0273849D01*
X0234642Y0273879D02*
X0234642Y0275156D01*
X0233739Y0276059D01*
X0232462Y0276059D01*
X0231722Y0275320D01*
X0230983Y0276059D01*
X0229706Y0276059D01*
X0228803Y0275156D01*
X0228803Y0273879D01*
X0229706Y0272976D01*
X0230983Y0272976D01*
X0231722Y0273715D01*
X0232462Y0272976D01*
X0233739Y0272976D01*
X0234642Y0273879D01*
X0234642Y0274348D02*
X0239039Y0274348D01*
X0239039Y0274847D02*
X0234642Y0274847D01*
X0234453Y0275345D02*
X0239228Y0275345D01*
X0239726Y0275844D02*
X0233955Y0275844D01*
X0232246Y0275844D02*
X0231199Y0275844D01*
X0231697Y0275345D02*
X0231747Y0275345D01*
X0232087Y0273351D02*
X0231358Y0273351D01*
X0230887Y0272910D02*
X0229984Y0272007D01*
X0229984Y0270730D01*
X0230887Y0269826D01*
X0232164Y0269826D01*
X0233067Y0270730D01*
X0233067Y0272007D01*
X0232164Y0272910D01*
X0230887Y0272910D01*
X0230830Y0272852D02*
X0229072Y0272852D01*
X0229015Y0272910D02*
X0227737Y0272910D01*
X0226834Y0272007D01*
X0226834Y0270730D01*
X0227737Y0269826D01*
X0229015Y0269826D01*
X0229918Y0270730D01*
X0229918Y0272007D01*
X0229015Y0272910D01*
X0229331Y0273351D02*
X0209282Y0273351D01*
X0208936Y0273697D02*
X0209839Y0272794D01*
X0209839Y0271517D01*
X0208936Y0270614D01*
X0207659Y0270614D01*
X0207313Y0270959D01*
X0206574Y0270220D01*
X0205296Y0270220D01*
X0204393Y0271123D01*
X0204393Y0272400D01*
X0205296Y0273303D01*
X0206574Y0273303D01*
X0206919Y0272958D01*
X0207659Y0273697D01*
X0208936Y0273697D01*
X0209781Y0272852D02*
X0213113Y0272852D01*
X0213170Y0272910D02*
X0212267Y0272007D01*
X0212267Y0270730D01*
X0213170Y0269826D01*
X0214448Y0269826D01*
X0215351Y0270730D01*
X0215351Y0272007D01*
X0214448Y0272910D01*
X0213170Y0272910D01*
X0212615Y0272354D02*
X0209839Y0272354D01*
X0209839Y0271855D02*
X0212267Y0271855D01*
X0212267Y0271357D02*
X0209679Y0271357D01*
X0209180Y0270858D02*
X0212267Y0270858D01*
X0212637Y0270360D02*
X0206713Y0270360D01*
X0207212Y0270858D02*
X0207414Y0270858D01*
X0205157Y0270360D02*
X0201989Y0270360D01*
X0201849Y0270220D02*
X0202752Y0271123D01*
X0202752Y0272400D01*
X0201849Y0273303D01*
X0201389Y0273303D01*
X0201965Y0273879D01*
X0201965Y0275156D01*
X0201062Y0276059D01*
X0199785Y0276059D01*
X0198882Y0275156D01*
X0198882Y0273879D01*
X0199785Y0272976D01*
X0200245Y0272976D01*
X0199669Y0272400D01*
X0199669Y0271123D01*
X0200572Y0270220D01*
X0201849Y0270220D01*
X0202488Y0270858D02*
X0204658Y0270858D01*
X0204393Y0271357D02*
X0202752Y0271357D01*
X0202752Y0271855D02*
X0204393Y0271855D01*
X0204393Y0272354D02*
X0202752Y0272354D01*
X0202300Y0272852D02*
X0204845Y0272852D01*
X0207312Y0273351D02*
X0201437Y0273351D01*
X0201935Y0273849D02*
X0214266Y0273849D01*
X0213842Y0274348D02*
X0201965Y0274348D01*
X0201965Y0274847D02*
X0213842Y0274847D01*
X0213842Y0275345D02*
X0201776Y0275345D01*
X0201278Y0275844D02*
X0214136Y0275844D01*
X0216632Y0275844D02*
X0229490Y0275844D01*
X0228992Y0275345D02*
X0216926Y0275345D01*
X0216926Y0274847D02*
X0228803Y0274847D01*
X0228803Y0274348D02*
X0216926Y0274348D01*
X0216502Y0273849D02*
X0228832Y0273849D01*
X0227680Y0272852D02*
X0225529Y0272852D01*
X0225078Y0273303D02*
X0223800Y0273303D01*
X0223061Y0272564D01*
X0222322Y0273303D01*
X0221044Y0273303D01*
X0220141Y0272400D01*
X0220141Y0271123D01*
X0221044Y0270220D01*
X0222322Y0270220D01*
X0223061Y0270959D01*
X0223800Y0270220D01*
X0225078Y0270220D01*
X0225981Y0271123D01*
X0225981Y0272400D01*
X0225078Y0273303D01*
X0225981Y0272354D02*
X0227182Y0272354D01*
X0226834Y0271855D02*
X0225981Y0271855D01*
X0225981Y0271357D02*
X0226834Y0271357D01*
X0226834Y0270858D02*
X0225716Y0270858D01*
X0225217Y0270360D02*
X0227204Y0270360D01*
X0227702Y0269861D02*
X0218026Y0269861D01*
X0217991Y0269826D02*
X0218894Y0270730D01*
X0218894Y0272007D01*
X0217991Y0272910D01*
X0216714Y0272910D01*
X0215811Y0272007D01*
X0215811Y0270730D01*
X0216714Y0269826D01*
X0217991Y0269826D01*
X0218524Y0270360D02*
X0220905Y0270360D01*
X0220406Y0270858D02*
X0218894Y0270858D01*
X0218894Y0271357D02*
X0220141Y0271357D01*
X0220141Y0271855D02*
X0218894Y0271855D01*
X0218547Y0272354D02*
X0220141Y0272354D01*
X0220593Y0272852D02*
X0218048Y0272852D01*
X0216656Y0272852D02*
X0214505Y0272852D01*
X0215003Y0272354D02*
X0216158Y0272354D01*
X0215811Y0271855D02*
X0215351Y0271855D01*
X0215351Y0271357D02*
X0215811Y0271357D01*
X0215811Y0270858D02*
X0215351Y0270858D01*
X0214981Y0270360D02*
X0216180Y0270360D01*
X0216679Y0269861D02*
X0214483Y0269861D01*
X0213135Y0269861D02*
X0198735Y0269861D01*
X0198700Y0269826D02*
X0199603Y0270730D01*
X0199603Y0272007D01*
X0198700Y0272910D01*
X0197422Y0272910D01*
X0196847Y0272334D01*
X0196847Y0272400D01*
X0195944Y0273303D01*
X0194667Y0273303D01*
X0193763Y0272400D01*
X0193763Y0271123D01*
X0194667Y0270220D01*
X0195944Y0270220D01*
X0196519Y0270796D01*
X0196519Y0270730D01*
X0197422Y0269826D01*
X0198700Y0269826D01*
X0199233Y0270360D02*
X0200432Y0270360D01*
X0199934Y0270858D02*
X0199603Y0270858D01*
X0199603Y0271357D02*
X0199669Y0271357D01*
X0199669Y0271855D02*
X0199603Y0271855D01*
X0199669Y0272354D02*
X0199255Y0272354D01*
X0198757Y0272852D02*
X0200121Y0272852D01*
X0199410Y0273351D02*
X0170334Y0273351D01*
X0169959Y0272976D02*
X0170863Y0273879D01*
X0170863Y0275156D01*
X0169959Y0276059D01*
X0168682Y0276059D01*
X0167779Y0275156D01*
X0167779Y0273879D01*
X0168355Y0273303D01*
X0167501Y0273303D01*
X0166598Y0272400D01*
X0166598Y0271123D01*
X0167501Y0270220D01*
X0168778Y0270220D01*
X0169681Y0271123D01*
X0169681Y0272400D01*
X0169106Y0272976D01*
X0169959Y0272976D01*
X0169681Y0272354D02*
X0171276Y0272354D01*
X0170929Y0272007D02*
X0170929Y0270730D01*
X0171832Y0269826D01*
X0173109Y0269826D01*
X0174012Y0270730D01*
X0174012Y0272007D01*
X0173109Y0272910D01*
X0171832Y0272910D01*
X0170929Y0272007D01*
X0170929Y0271855D02*
X0169681Y0271855D01*
X0169681Y0271357D02*
X0170929Y0271357D01*
X0170929Y0270858D02*
X0169417Y0270858D01*
X0168918Y0270360D02*
X0171298Y0270360D01*
X0171797Y0269861D02*
X0159374Y0269861D01*
X0159374Y0269363D02*
X0232890Y0269363D01*
X0232890Y0269861D02*
X0232199Y0269861D01*
X0232698Y0270360D02*
X0233090Y0270360D01*
X0233067Y0270858D02*
X0233296Y0270858D01*
X0233502Y0271357D02*
X0233067Y0271357D01*
X0233067Y0271855D02*
X0233881Y0271855D01*
X0234380Y0272354D02*
X0232720Y0272354D01*
X0232222Y0272852D02*
X0234882Y0272852D01*
X0234114Y0273351D02*
X0236085Y0273351D01*
X0232890Y0268864D02*
X0159374Y0268864D01*
X0159374Y0268366D02*
X0232890Y0268366D01*
X0232968Y0267867D02*
X0159296Y0267867D01*
X0159090Y0267369D02*
X0233174Y0267369D01*
X0234086Y0265873D02*
X0158178Y0265873D01*
X0157680Y0265375D02*
X0234584Y0265375D01*
X0235375Y0264876D02*
X0156889Y0264876D01*
X0151907Y0265375D02*
X0103179Y0265375D01*
X0103179Y0263879D02*
X0256512Y0263879D01*
X0256512Y0263381D02*
X0103179Y0263381D01*
X0100896Y0263381D02*
X0098014Y0263381D01*
X0098014Y0263879D02*
X0100896Y0263879D01*
X0100896Y0264378D02*
X0098014Y0264378D01*
X0098014Y0264876D02*
X0100896Y0264876D01*
X0100896Y0265375D02*
X0098014Y0265375D01*
X0098014Y0265853D02*
X0097986Y0265921D01*
X0097986Y0270659D01*
X0098360Y0270285D01*
X0100203Y0270285D01*
X0100896Y0270978D01*
X0100896Y0269139D01*
X0100314Y0269721D01*
X0099037Y0269721D01*
X0098134Y0268818D01*
X0098134Y0267541D01*
X0099037Y0266637D01*
X0100314Y0266637D01*
X0100896Y0267219D01*
X0100896Y0249636D01*
X0099707Y0249636D01*
X0099197Y0250146D01*
X0098014Y0250146D01*
X0098014Y0265853D01*
X0098006Y0265873D02*
X0100896Y0265873D01*
X0100896Y0266372D02*
X0097986Y0266372D01*
X0097986Y0266870D02*
X0098804Y0266870D01*
X0098305Y0267369D02*
X0097986Y0267369D01*
X0097986Y0267867D02*
X0098134Y0267867D01*
X0098134Y0268366D02*
X0097986Y0268366D01*
X0097986Y0268864D02*
X0098180Y0268864D01*
X0097986Y0269363D02*
X0098679Y0269363D01*
X0097986Y0269861D02*
X0100896Y0269861D01*
X0100896Y0269363D02*
X0100672Y0269363D01*
X0100896Y0270360D02*
X0100277Y0270360D01*
X0100776Y0270858D02*
X0100896Y0270858D01*
X0098286Y0270360D02*
X0097986Y0270360D01*
X0100547Y0266870D02*
X0100896Y0266870D01*
X0103179Y0268366D02*
X0103193Y0268366D01*
X0103179Y0268864D02*
X0104931Y0268864D01*
X0105004Y0268366D02*
X0104818Y0268366D01*
X0105317Y0267867D02*
X0105503Y0267867D01*
X0105548Y0267369D02*
X0106001Y0267369D01*
X0105061Y0265873D02*
X0151408Y0265873D01*
X0150497Y0267369D02*
X0108310Y0267369D01*
X0108808Y0267867D02*
X0150290Y0267867D01*
X0150213Y0268366D02*
X0133323Y0268366D01*
X0132880Y0267923D02*
X0134183Y0269226D01*
X0134183Y0271069D01*
X0132880Y0272372D01*
X0131037Y0272372D01*
X0129734Y0271069D01*
X0129734Y0269226D01*
X0131037Y0267923D01*
X0132880Y0267923D01*
X0133821Y0268864D02*
X0150213Y0268864D01*
X0150213Y0269363D02*
X0134183Y0269363D01*
X0134183Y0269861D02*
X0138726Y0269861D01*
X0138761Y0269826D02*
X0140038Y0269826D01*
X0140941Y0270730D01*
X0140941Y0272007D01*
X0140038Y0272910D01*
X0138761Y0272910D01*
X0137858Y0272007D01*
X0137858Y0270730D01*
X0138761Y0269826D01*
X0138228Y0270360D02*
X0134183Y0270360D01*
X0134183Y0270858D02*
X0137858Y0270858D01*
X0137858Y0271357D02*
X0133895Y0271357D01*
X0133397Y0271855D02*
X0137858Y0271855D01*
X0138205Y0272354D02*
X0132898Y0272354D01*
X0131019Y0272354D02*
X0129852Y0272354D01*
X0129852Y0271982D02*
X0128549Y0270679D01*
X0126707Y0270679D01*
X0125404Y0271982D01*
X0125404Y0273825D01*
X0126707Y0275128D01*
X0128549Y0275128D01*
X0129852Y0273825D01*
X0129852Y0271982D01*
X0129726Y0271855D02*
X0130521Y0271855D01*
X0130022Y0271357D02*
X0129227Y0271357D01*
X0128729Y0270858D02*
X0129734Y0270858D01*
X0129734Y0270360D02*
X0109302Y0270360D01*
X0109380Y0269861D02*
X0129734Y0269861D01*
X0129734Y0269363D02*
X0109380Y0269363D01*
X0109380Y0268864D02*
X0130096Y0268864D01*
X0130595Y0268366D02*
X0109307Y0268366D01*
X0108803Y0270858D02*
X0126527Y0270858D01*
X0126029Y0271357D02*
X0108305Y0271357D01*
X0108288Y0271855D02*
X0111929Y0271855D01*
X0112226Y0271559D02*
X0113503Y0271559D01*
X0114406Y0272462D01*
X0114406Y0273739D01*
X0113503Y0274642D01*
X0112226Y0274642D01*
X0111322Y0273739D01*
X0111322Y0272462D01*
X0112226Y0271559D01*
X0111430Y0272354D02*
X0108697Y0272354D01*
X0108697Y0272852D02*
X0111322Y0272852D01*
X0111322Y0273351D02*
X0108697Y0273351D01*
X0108390Y0273849D02*
X0111433Y0273849D01*
X0111931Y0274348D02*
X0107891Y0274348D01*
X0106420Y0274348D02*
X0103179Y0274348D01*
X0103179Y0273849D02*
X0105921Y0273849D01*
X0105614Y0273351D02*
X0103179Y0273351D01*
X0103179Y0272852D02*
X0105614Y0272852D01*
X0105614Y0272354D02*
X0103179Y0272354D01*
X0104872Y0271855D02*
X0106023Y0271855D01*
X0106006Y0271357D02*
X0105371Y0271357D01*
X0103179Y0274847D02*
X0121952Y0274847D01*
X0121952Y0274839D02*
X0121478Y0274839D01*
X0120574Y0273936D01*
X0120574Y0272659D01*
X0121478Y0271756D01*
X0122755Y0271756D01*
X0123658Y0272659D01*
X0123658Y0273527D01*
X0124133Y0273527D01*
X0125036Y0274430D01*
X0125036Y0275707D01*
X0124133Y0276611D01*
X0122855Y0276611D01*
X0121952Y0275707D01*
X0121952Y0274839D01*
X0121952Y0275345D02*
X0103179Y0275345D01*
X0103179Y0275844D02*
X0122088Y0275844D01*
X0122587Y0276342D02*
X0103179Y0276342D01*
X0103179Y0276841D02*
X0140640Y0276841D01*
X0139777Y0277339D02*
X0103179Y0277339D01*
X0103179Y0277838D02*
X0139390Y0277838D01*
X0139629Y0277424D02*
X0139629Y0277424D01*
X0139629Y0277424D01*
X0139103Y0278336D02*
X0103179Y0278336D01*
X0103179Y0278835D02*
X0138815Y0278835D01*
X0138527Y0279333D02*
X0103179Y0279333D01*
X0103179Y0279832D02*
X0138402Y0279832D01*
X0138402Y0280330D02*
X0103179Y0280330D01*
X0103179Y0280829D02*
X0138402Y0280829D01*
X0138402Y0281327D02*
X0103179Y0281327D01*
X0103179Y0281826D02*
X0138402Y0281826D01*
X0138402Y0282324D02*
X0103179Y0282324D01*
X0103179Y0284817D02*
X0122786Y0284817D01*
X0122288Y0285315D02*
X0103179Y0285315D01*
X0103179Y0285814D02*
X0122149Y0285814D01*
X0122149Y0286312D02*
X0103179Y0286312D01*
X0103179Y0286811D02*
X0122170Y0286811D01*
X0121952Y0287309D02*
X0103179Y0287309D01*
X0103179Y0287808D02*
X0121952Y0287808D01*
X0121953Y0288306D02*
X0103179Y0288306D01*
X0103179Y0288805D02*
X0122451Y0288805D01*
X0122149Y0289303D02*
X0103179Y0289303D01*
X0103179Y0289802D02*
X0122149Y0289802D01*
X0122149Y0290300D02*
X0103179Y0290300D01*
X0103179Y0290799D02*
X0122477Y0290799D01*
X0122975Y0291297D02*
X0103179Y0291297D01*
X0117147Y0274642D02*
X0116244Y0273739D01*
X0116244Y0272462D01*
X0117147Y0271559D01*
X0118424Y0271559D01*
X0119327Y0272462D01*
X0119327Y0273739D01*
X0118424Y0274642D01*
X0117147Y0274642D01*
X0116853Y0274348D02*
X0113797Y0274348D01*
X0114295Y0273849D02*
X0116354Y0273849D01*
X0116244Y0273351D02*
X0114406Y0273351D01*
X0114406Y0272852D02*
X0116244Y0272852D01*
X0116352Y0272354D02*
X0114298Y0272354D01*
X0113799Y0271855D02*
X0116850Y0271855D01*
X0118721Y0271855D02*
X0121378Y0271855D01*
X0120879Y0272354D02*
X0119219Y0272354D01*
X0119327Y0272852D02*
X0120574Y0272852D01*
X0120574Y0273351D02*
X0119327Y0273351D01*
X0119217Y0273849D02*
X0120574Y0273849D01*
X0120987Y0274348D02*
X0118718Y0274348D01*
X0122855Y0271855D02*
X0125530Y0271855D01*
X0125404Y0272354D02*
X0123353Y0272354D01*
X0123658Y0272852D02*
X0125404Y0272852D01*
X0125404Y0273351D02*
X0123658Y0273351D01*
X0124455Y0273849D02*
X0125428Y0273849D01*
X0124953Y0274348D02*
X0125927Y0274348D01*
X0126425Y0274847D02*
X0125036Y0274847D01*
X0125036Y0275345D02*
X0152819Y0275345D01*
X0152819Y0274847D02*
X0128831Y0274847D01*
X0129329Y0274348D02*
X0152819Y0274348D01*
X0153242Y0273849D02*
X0129828Y0273849D01*
X0129852Y0273351D02*
X0153408Y0273351D01*
X0152205Y0272852D02*
X0149544Y0272852D01*
X0149487Y0272910D02*
X0148210Y0272910D01*
X0147307Y0272007D01*
X0147307Y0270730D01*
X0148210Y0269826D01*
X0149487Y0269826D01*
X0150390Y0270730D01*
X0150390Y0272007D01*
X0149487Y0272910D01*
X0150043Y0272354D02*
X0151703Y0272354D01*
X0151204Y0271855D02*
X0150390Y0271855D01*
X0150390Y0271357D02*
X0150825Y0271357D01*
X0150619Y0270858D02*
X0150390Y0270858D01*
X0150412Y0270360D02*
X0150020Y0270360D01*
X0150213Y0269861D02*
X0149522Y0269861D01*
X0148175Y0269861D02*
X0145979Y0269861D01*
X0145944Y0269826D02*
X0146847Y0270730D01*
X0146847Y0272007D01*
X0145944Y0272910D01*
X0144667Y0272910D01*
X0144124Y0272367D01*
X0143581Y0272910D01*
X0142304Y0272910D01*
X0141401Y0272007D01*
X0141401Y0270730D01*
X0142304Y0269826D01*
X0143581Y0269826D01*
X0144124Y0270369D01*
X0144667Y0269826D01*
X0145944Y0269826D01*
X0146477Y0270360D02*
X0147676Y0270360D01*
X0147307Y0270858D02*
X0146847Y0270858D01*
X0146847Y0271357D02*
X0147307Y0271357D01*
X0147307Y0271855D02*
X0146847Y0271855D01*
X0146500Y0272354D02*
X0147654Y0272354D01*
X0148152Y0272852D02*
X0146001Y0272852D01*
X0144609Y0272852D02*
X0143639Y0272852D01*
X0142247Y0272852D02*
X0140096Y0272852D01*
X0140594Y0272354D02*
X0141748Y0272354D01*
X0141401Y0271855D02*
X0140941Y0271855D01*
X0140941Y0271357D02*
X0141401Y0271357D01*
X0141401Y0270858D02*
X0140941Y0270858D01*
X0140572Y0270360D02*
X0141771Y0270360D01*
X0142269Y0269861D02*
X0140073Y0269861D01*
X0138704Y0272852D02*
X0129852Y0272852D01*
X0124900Y0275844D02*
X0153112Y0275844D01*
X0155608Y0275844D02*
X0157443Y0275844D01*
X0157149Y0275345D02*
X0155902Y0275345D01*
X0155902Y0274847D02*
X0157149Y0274847D01*
X0157149Y0274348D02*
X0155902Y0274348D01*
X0155479Y0273849D02*
X0157573Y0273849D01*
X0157382Y0272852D02*
X0163113Y0272852D01*
X0163564Y0273303D02*
X0162661Y0272400D01*
X0162661Y0271123D01*
X0163564Y0270220D01*
X0164841Y0270220D01*
X0165744Y0271123D01*
X0165744Y0272400D01*
X0164841Y0273303D01*
X0163564Y0273303D01*
X0162661Y0272354D02*
X0157884Y0272354D01*
X0158382Y0271855D02*
X0162661Y0271855D01*
X0162661Y0271357D02*
X0158761Y0271357D01*
X0158968Y0270858D02*
X0162926Y0270858D01*
X0163424Y0270360D02*
X0159174Y0270360D01*
X0159809Y0273849D02*
X0167809Y0273849D01*
X0167779Y0274348D02*
X0160233Y0274348D01*
X0160233Y0274847D02*
X0167779Y0274847D01*
X0167968Y0275345D02*
X0160233Y0275345D01*
X0159939Y0275844D02*
X0168466Y0275844D01*
X0170175Y0275844D02*
X0183134Y0275844D01*
X0183134Y0275345D02*
X0170674Y0275345D01*
X0170863Y0274847D02*
X0183134Y0274847D01*
X0183452Y0274348D02*
X0170863Y0274348D01*
X0170833Y0273849D02*
X0183951Y0273849D01*
X0184076Y0272870D02*
X0183173Y0271967D01*
X0183173Y0270690D01*
X0184076Y0269787D01*
X0185353Y0269787D01*
X0186256Y0270690D01*
X0186256Y0271967D01*
X0185353Y0272870D01*
X0184076Y0272870D01*
X0184058Y0272852D02*
X0181828Y0272852D01*
X0181770Y0272910D02*
X0180493Y0272910D01*
X0179590Y0272007D01*
X0179590Y0270730D01*
X0180493Y0269826D01*
X0181770Y0269826D01*
X0182674Y0270730D01*
X0182674Y0272007D01*
X0181770Y0272910D01*
X0182326Y0272354D02*
X0183559Y0272354D01*
X0183173Y0271855D02*
X0182674Y0271855D01*
X0182674Y0271357D02*
X0183173Y0271357D01*
X0183173Y0270858D02*
X0182674Y0270858D01*
X0182304Y0270360D02*
X0183503Y0270360D01*
X0184002Y0269861D02*
X0181805Y0269861D01*
X0180458Y0269861D02*
X0177868Y0269861D01*
X0177833Y0269826D02*
X0178737Y0270730D01*
X0178737Y0272007D01*
X0177833Y0272910D01*
X0176556Y0272910D01*
X0175653Y0272007D01*
X0175653Y0270730D01*
X0176556Y0269826D01*
X0177833Y0269826D01*
X0178367Y0270360D02*
X0179960Y0270360D01*
X0179590Y0270858D02*
X0178737Y0270858D01*
X0178737Y0271357D02*
X0179590Y0271357D01*
X0179590Y0271855D02*
X0178737Y0271855D01*
X0178389Y0272354D02*
X0179937Y0272354D01*
X0180436Y0272852D02*
X0177891Y0272852D01*
X0176499Y0272852D02*
X0173166Y0272852D01*
X0173665Y0272354D02*
X0176000Y0272354D01*
X0175653Y0271855D02*
X0174012Y0271855D01*
X0174012Y0271357D02*
X0175653Y0271357D01*
X0175653Y0270858D02*
X0174012Y0270858D01*
X0173643Y0270360D02*
X0176023Y0270360D01*
X0176521Y0269861D02*
X0173144Y0269861D01*
X0171775Y0272852D02*
X0169229Y0272852D01*
X0168307Y0273351D02*
X0156178Y0273351D01*
X0165292Y0272852D02*
X0167050Y0272852D01*
X0166598Y0272354D02*
X0165744Y0272354D01*
X0165744Y0271855D02*
X0166598Y0271855D01*
X0166598Y0271357D02*
X0165744Y0271357D01*
X0165480Y0270858D02*
X0166863Y0270858D01*
X0167361Y0270360D02*
X0164981Y0270360D01*
X0144632Y0269861D02*
X0143616Y0269861D01*
X0144115Y0270360D02*
X0144133Y0270360D01*
X0141503Y0276342D02*
X0124401Y0276342D01*
X0100896Y0262882D02*
X0098014Y0262882D01*
X0098014Y0262384D02*
X0100896Y0262384D01*
X0100896Y0261885D02*
X0098014Y0261885D01*
X0098014Y0261387D02*
X0100896Y0261387D01*
X0100896Y0260888D02*
X0098014Y0260888D01*
X0098014Y0260390D02*
X0100896Y0260390D01*
X0100896Y0259891D02*
X0098014Y0259891D01*
X0098014Y0259393D02*
X0100896Y0259393D01*
X0100896Y0258894D02*
X0098014Y0258894D01*
X0098014Y0258396D02*
X0100896Y0258396D01*
X0100896Y0257897D02*
X0098014Y0257897D01*
X0098014Y0257399D02*
X0100896Y0257399D01*
X0100896Y0256900D02*
X0098014Y0256900D01*
X0098014Y0256402D02*
X0100896Y0256402D01*
X0100896Y0255903D02*
X0098014Y0255903D01*
X0098014Y0255405D02*
X0100896Y0255405D01*
X0100896Y0254906D02*
X0098014Y0254906D01*
X0098014Y0254408D02*
X0100896Y0254408D01*
X0100896Y0253909D02*
X0098014Y0253909D01*
X0098014Y0253411D02*
X0100896Y0253411D01*
X0100896Y0252912D02*
X0098014Y0252912D01*
X0098014Y0252413D02*
X0100896Y0252413D01*
X0100896Y0251915D02*
X0098014Y0251915D01*
X0098014Y0251416D02*
X0100896Y0251416D01*
X0100896Y0250918D02*
X0098014Y0250918D01*
X0098014Y0250419D02*
X0100896Y0250419D01*
X0100896Y0249921D02*
X0099422Y0249921D01*
X0092553Y0306253D02*
X0092445Y0306253D01*
X0092445Y0306751D02*
X0092553Y0306751D01*
X0092553Y0307250D02*
X0092445Y0307250D01*
X0092445Y0307748D02*
X0092553Y0307748D01*
X0092553Y0308247D02*
X0092445Y0308247D01*
X0092445Y0308745D02*
X0092553Y0308745D01*
X0092445Y0309244D02*
X0092705Y0309244D01*
X0092912Y0309742D02*
X0092445Y0309742D01*
X0092445Y0310241D02*
X0093332Y0310241D01*
X0093831Y0310739D02*
X0092445Y0310739D01*
X0092445Y0311238D02*
X0094329Y0311238D01*
X0094428Y0311736D02*
X0094828Y0311736D01*
X0094918Y0312235D02*
X0095326Y0312235D01*
X0094918Y0312733D02*
X0095825Y0312733D01*
X0096323Y0313232D02*
X0094918Y0313232D01*
X0094690Y0313730D02*
X0096822Y0313730D01*
X0097320Y0314229D02*
X0094192Y0314229D01*
X0092560Y0314229D02*
X0092445Y0314229D01*
X0092445Y0314727D02*
X0097819Y0314727D01*
X0098317Y0315226D02*
X0092445Y0315226D01*
X0092445Y0315724D02*
X0098816Y0315724D01*
X0098628Y0316348D02*
X0099931Y0317651D01*
X0099931Y0319494D01*
X0098628Y0320797D01*
X0096785Y0320797D01*
X0095482Y0319494D01*
X0095482Y0317651D01*
X0096785Y0316348D01*
X0098628Y0316348D01*
X0099001Y0316721D02*
X0099813Y0316721D01*
X0099500Y0317220D02*
X0100311Y0317220D01*
X0099931Y0317718D02*
X0100810Y0317718D01*
X0101308Y0318217D02*
X0099931Y0318217D01*
X0099931Y0318716D02*
X0101807Y0318716D01*
X0102305Y0319214D02*
X0099931Y0319214D01*
X0099713Y0319713D02*
X0102804Y0319713D01*
X0103302Y0320211D02*
X0099214Y0320211D01*
X0098716Y0320710D02*
X0103801Y0320710D01*
X0104299Y0321208D02*
X0094721Y0321208D01*
X0094721Y0321707D02*
X0105146Y0321707D01*
X0099314Y0316223D02*
X0092445Y0316223D01*
X0092445Y0316721D02*
X0096412Y0316721D01*
X0095914Y0317220D02*
X0092445Y0317220D01*
X0092445Y0317718D02*
X0095482Y0317718D01*
X0095482Y0318217D02*
X0092445Y0318217D01*
X0092445Y0318716D02*
X0095482Y0318716D01*
X0095482Y0319214D02*
X0092445Y0319214D01*
X0092445Y0319713D02*
X0095701Y0319713D01*
X0096199Y0320211D02*
X0094045Y0320211D01*
X0094543Y0320710D02*
X0096698Y0320710D01*
X0094680Y0322205D02*
X0138402Y0322205D01*
X0138402Y0321707D02*
X0113738Y0321707D01*
X0114584Y0321208D02*
X0138402Y0321208D01*
X0138402Y0322704D02*
X0094181Y0322704D01*
X0092445Y0323202D02*
X0138402Y0323202D01*
X0138402Y0323701D02*
X0092445Y0323701D01*
X0092445Y0324199D02*
X0138402Y0324199D01*
X0138402Y0324698D02*
X0092445Y0324698D01*
X0092445Y0325196D02*
X0138402Y0325196D01*
X0138402Y0325695D02*
X0092445Y0325695D01*
X0092445Y0326193D02*
X0138402Y0326193D01*
X0138402Y0326692D02*
X0092445Y0326692D01*
X0092445Y0327190D02*
X0138402Y0327190D01*
X0138402Y0327689D02*
X0092445Y0327689D01*
X0092445Y0328187D02*
X0138402Y0328187D01*
X0138402Y0328686D02*
X0092445Y0328686D01*
X0092445Y0329184D02*
X0138402Y0329184D01*
X0138402Y0329683D02*
X0092445Y0329683D01*
X0092445Y0330181D02*
X0138402Y0330181D01*
X0138402Y0330680D02*
X0092445Y0330680D01*
X0094185Y0331178D02*
X0111661Y0331178D01*
X0112029Y0330811D02*
X0111126Y0331714D01*
X0111126Y0332991D01*
X0112029Y0333894D01*
X0113306Y0333894D01*
X0114045Y0333155D01*
X0114785Y0333894D01*
X0116062Y0333894D01*
X0116703Y0333253D01*
X0117344Y0333894D01*
X0118621Y0333894D01*
X0119065Y0333450D01*
X0119509Y0333894D01*
X0120786Y0333894D01*
X0121689Y0332991D01*
X0121689Y0331714D01*
X0120786Y0330811D01*
X0119509Y0330811D01*
X0119065Y0331255D01*
X0118621Y0330811D01*
X0117344Y0330811D01*
X0116703Y0331452D01*
X0116062Y0330811D01*
X0114785Y0330811D01*
X0114045Y0331550D01*
X0113306Y0330811D01*
X0112029Y0330811D01*
X0111163Y0331677D02*
X0094684Y0331677D01*
X0094721Y0332175D02*
X0096313Y0332175D01*
X0096785Y0331703D02*
X0098628Y0331703D01*
X0099931Y0333006D01*
X0099931Y0334849D01*
X0098628Y0336152D01*
X0096785Y0336152D01*
X0095482Y0334849D01*
X0095482Y0333006D01*
X0096785Y0331703D01*
X0095814Y0332674D02*
X0094721Y0332674D01*
X0094539Y0333172D02*
X0095482Y0333172D01*
X0095482Y0333671D02*
X0094041Y0333671D01*
X0095482Y0334169D02*
X0092445Y0334169D01*
X0092445Y0334668D02*
X0095482Y0334668D01*
X0095800Y0335166D02*
X0092445Y0335166D01*
X0092445Y0335665D02*
X0096299Y0335665D01*
X0099115Y0335665D02*
X0138402Y0335665D01*
X0138402Y0336163D02*
X0092445Y0336163D01*
X0092445Y0336662D02*
X0138402Y0336662D01*
X0138402Y0337160D02*
X0092445Y0337160D01*
X0092445Y0337659D02*
X0138402Y0337659D01*
X0138402Y0338157D02*
X0092445Y0338157D01*
X0092445Y0338656D02*
X0138402Y0338656D01*
X0138402Y0339154D02*
X0092445Y0339154D01*
X0092445Y0339653D02*
X0138402Y0339653D01*
X0138402Y0340151D02*
X0094103Y0340151D01*
X0094602Y0340650D02*
X0138402Y0340650D01*
X0138402Y0341149D02*
X0094721Y0341149D01*
X0094721Y0341647D02*
X0122274Y0341647D01*
X0122376Y0341545D02*
X0124219Y0341545D01*
X0125522Y0342848D01*
X0125522Y0344691D01*
X0124219Y0345994D01*
X0122376Y0345994D01*
X0121073Y0344691D01*
X0121073Y0342848D01*
X0122376Y0341545D01*
X0121776Y0342146D02*
X0094621Y0342146D01*
X0094123Y0342644D02*
X0121277Y0342644D01*
X0121073Y0343143D02*
X0092445Y0343143D01*
X0092445Y0343641D02*
X0121073Y0343641D01*
X0121073Y0344140D02*
X0092494Y0344140D01*
X0092566Y0344638D02*
X0121073Y0344638D01*
X0121518Y0345137D02*
X0092854Y0345137D01*
X0093142Y0345635D02*
X0122017Y0345635D01*
X0124578Y0345635D02*
X0137704Y0345635D01*
X0137992Y0345137D02*
X0125076Y0345137D01*
X0125522Y0344638D02*
X0138280Y0344638D01*
X0138353Y0344140D02*
X0125522Y0344140D01*
X0125522Y0343641D02*
X0138402Y0343641D01*
X0138402Y0343143D02*
X0125522Y0343143D01*
X0125317Y0342644D02*
X0138402Y0342644D01*
X0138402Y0342146D02*
X0124819Y0342146D01*
X0124320Y0341647D02*
X0138402Y0341647D01*
X0137376Y0346134D02*
X0093470Y0346134D01*
X0094334Y0346632D02*
X0136513Y0346632D01*
X0138402Y0335166D02*
X0099613Y0335166D01*
X0099931Y0334668D02*
X0138402Y0334668D01*
X0138402Y0334169D02*
X0099931Y0334169D01*
X0099931Y0333671D02*
X0111806Y0333671D01*
X0111307Y0333172D02*
X0099931Y0333172D01*
X0099599Y0332674D02*
X0111126Y0332674D01*
X0111126Y0332175D02*
X0099101Y0332175D01*
X0113529Y0333671D02*
X0114561Y0333671D01*
X0114063Y0333172D02*
X0114028Y0333172D01*
X0113674Y0331178D02*
X0114417Y0331178D01*
X0116429Y0331178D02*
X0116976Y0331178D01*
X0118988Y0331178D02*
X0119141Y0331178D01*
X0121154Y0331178D02*
X0138402Y0331178D01*
X0138402Y0331677D02*
X0121652Y0331677D01*
X0121689Y0332175D02*
X0138402Y0332175D01*
X0138402Y0332674D02*
X0121689Y0332674D01*
X0121508Y0333172D02*
X0138402Y0333172D01*
X0138402Y0333671D02*
X0121009Y0333671D01*
X0119286Y0333671D02*
X0118844Y0333671D01*
X0117120Y0333671D02*
X0116285Y0333671D01*
X0186217Y0275844D02*
X0199569Y0275844D01*
X0199070Y0275345D02*
X0186217Y0275345D01*
X0186217Y0274847D02*
X0198882Y0274847D01*
X0198882Y0274348D02*
X0185898Y0274348D01*
X0185400Y0273849D02*
X0198911Y0273849D01*
X0197365Y0272852D02*
X0196395Y0272852D01*
X0196847Y0272354D02*
X0196867Y0272354D01*
X0196889Y0270360D02*
X0196083Y0270360D01*
X0197387Y0269861D02*
X0190467Y0269861D01*
X0190432Y0269826D02*
X0191171Y0270566D01*
X0191517Y0270220D01*
X0192794Y0270220D01*
X0193697Y0271123D01*
X0193697Y0272400D01*
X0192794Y0273303D01*
X0191517Y0273303D01*
X0190778Y0272564D01*
X0190432Y0272910D01*
X0189155Y0272910D01*
X0188252Y0272007D01*
X0188252Y0270730D01*
X0189155Y0269826D01*
X0190432Y0269826D01*
X0190965Y0270360D02*
X0191377Y0270360D01*
X0192934Y0270360D02*
X0194527Y0270360D01*
X0194028Y0270858D02*
X0193432Y0270858D01*
X0193697Y0271357D02*
X0193763Y0271357D01*
X0193763Y0271855D02*
X0193697Y0271855D01*
X0193697Y0272354D02*
X0193763Y0272354D01*
X0194215Y0272852D02*
X0193245Y0272852D01*
X0191066Y0272852D02*
X0190489Y0272852D01*
X0189097Y0272852D02*
X0185371Y0272852D01*
X0185870Y0272354D02*
X0188599Y0272354D01*
X0188252Y0271855D02*
X0186256Y0271855D01*
X0186256Y0271357D02*
X0188252Y0271357D01*
X0188252Y0270858D02*
X0186256Y0270858D01*
X0185926Y0270360D02*
X0188621Y0270360D01*
X0189120Y0269861D02*
X0185427Y0269861D01*
X0200994Y0251915D02*
X0213514Y0251915D01*
X0213094Y0251416D02*
X0201414Y0251416D01*
X0201414Y0250918D02*
X0213094Y0250918D01*
X0213094Y0250419D02*
X0201414Y0250419D01*
X0201117Y0249921D02*
X0213391Y0249921D01*
X0213889Y0249422D02*
X0200618Y0249422D01*
X0200385Y0237957D02*
X0249708Y0237957D01*
X0249708Y0237458D02*
X0200884Y0237458D01*
X0201217Y0236960D02*
X0249708Y0236960D01*
X0250029Y0236461D02*
X0201217Y0236461D01*
X0201217Y0235963D02*
X0249708Y0235963D01*
X0249708Y0235464D02*
X0200833Y0235464D01*
X0200335Y0234966D02*
X0249708Y0234966D01*
X0250054Y0238455D02*
X0170162Y0238455D01*
X0170311Y0237957D02*
X0198965Y0237957D01*
X0198467Y0237458D02*
X0170311Y0237458D01*
X0170242Y0236960D02*
X0198134Y0236960D01*
X0198134Y0236461D02*
X0169744Y0236461D01*
X0222461Y0270360D02*
X0223661Y0270360D01*
X0223162Y0270858D02*
X0222960Y0270858D01*
X0222773Y0272852D02*
X0223349Y0272852D01*
X0229570Y0272354D02*
X0230331Y0272354D01*
X0229984Y0271855D02*
X0229918Y0271855D01*
X0229918Y0271357D02*
X0229984Y0271357D01*
X0229984Y0270858D02*
X0229918Y0270858D01*
X0229548Y0270360D02*
X0230354Y0270360D01*
X0230852Y0269861D02*
X0229050Y0269861D01*
X0231532Y0261387D02*
X0247527Y0261387D01*
X0246536Y0260888D02*
X0231532Y0260888D01*
X0231271Y0260390D02*
X0246038Y0260390D01*
X0245539Y0259891D02*
X0230772Y0259891D01*
X0242093Y0273849D02*
X0256346Y0273849D01*
X0256058Y0274348D02*
X0242122Y0274348D01*
X0242122Y0274847D02*
X0255770Y0274847D01*
X0255352Y0275345D02*
X0241934Y0275345D01*
X0241435Y0275844D02*
X0254488Y0275844D01*
X0254058Y0272852D02*
X0253088Y0272852D01*
X0251775Y0272852D02*
X0249938Y0272852D01*
X0250437Y0272354D02*
X0251276Y0272354D01*
X0250889Y0271855D02*
X0250784Y0271855D01*
X0250784Y0271357D02*
X0250889Y0271357D01*
X0250889Y0270858D02*
X0250784Y0270858D01*
X0250414Y0270360D02*
X0251220Y0270360D01*
X0251718Y0269861D02*
X0249916Y0269861D01*
X0248569Y0269861D02*
X0247160Y0269861D01*
X0247658Y0270360D02*
X0248070Y0270360D01*
X0248048Y0272354D02*
X0247681Y0272354D01*
X0247182Y0272852D02*
X0248546Y0272852D01*
X0253144Y0269861D02*
X0254080Y0269861D01*
X0248558Y0239951D02*
X0248037Y0239951D01*
X0166380Y0131774D02*
X0166235Y0131774D01*
X0165699Y0127786D02*
X0166771Y0127786D01*
X0169044Y0126789D02*
X0169687Y0126789D01*
X0169189Y0126290D02*
X0169044Y0126290D01*
D17*
X0167502Y0126336D02*
X0165534Y0126336D01*
X0157549Y0134321D01*
X0142982Y0134321D01*
X0132746Y0124085D01*
X0113061Y0124085D01*
X0110699Y0126447D01*
X0110699Y0136683D01*
X0108939Y0138443D01*
X0102246Y0138443D01*
X0100370Y0140319D01*
X0100370Y0166118D01*
X0104400Y0170148D01*
X0109124Y0170148D01*
X0113061Y0174085D01*
X0113061Y0191604D01*
X0109715Y0194951D01*
X0107549Y0194951D01*
X0100408Y0202092D01*
X0100408Y0214778D01*
X0102431Y0216801D01*
X0102431Y0213258D02*
X0102431Y0202431D01*
X0108140Y0196722D01*
X0110502Y0196722D01*
X0116211Y0191014D01*
X0116211Y0171329D01*
X0113455Y0168573D01*
X0105584Y0168573D01*
X0102037Y0165026D01*
X0102037Y0141014D01*
X0103323Y0139728D01*
X0110016Y0139728D01*
X0112378Y0137366D01*
X0112378Y0127524D01*
X0114532Y0125370D01*
X0119360Y0125370D01*
X0120011Y0126021D01*
X0131171Y0126021D01*
X0142620Y0137470D01*
X0170431Y0137470D01*
X0170541Y0137581D01*
X0170431Y0137581D01*
X0170541Y0137581D02*
X0170258Y0137864D01*
X0172904Y0136683D02*
X0172904Y0148691D01*
X0172313Y0149281D01*
X0151250Y0149281D01*
X0130384Y0128415D01*
X0118967Y0128415D01*
X0113848Y0133533D01*
X0113848Y0138258D01*
X0111093Y0141014D01*
X0104400Y0141014D01*
X0103502Y0141912D01*
X0103502Y0155470D01*
X0104793Y0156762D01*
X0107743Y0156762D01*
X0110599Y0159618D01*
X0110599Y0160799D01*
X0118573Y0168773D01*
X0118573Y0204203D01*
X0120061Y0205691D01*
X0121833Y0205691D01*
X0124281Y0208140D01*
X0124281Y0211683D01*
X0118961Y0217004D01*
X0114445Y0217004D01*
X0114242Y0216801D01*
X0098691Y0218967D02*
X0130778Y0218967D01*
X0135896Y0213848D01*
X0148100Y0213848D01*
X0152431Y0209518D01*
X0105494Y0182746D02*
X0098691Y0182746D01*
X0098691Y0136289D01*
X0098980Y0136579D01*
X0104824Y0136579D01*
X0104929Y0136683D01*
X0105494Y0136683D01*
X0105494Y0136400D01*
X0098691Y0136289D02*
X0098691Y0125266D01*
X0101841Y0122116D01*
X0134911Y0122116D01*
X0144683Y0131887D01*
X0151762Y0131887D01*
X0155396Y0131966D01*
X0159124Y0128238D01*
X0159124Y0118967D01*
X0165030Y0113061D01*
X0171722Y0113061D01*
X0173580Y0114919D01*
X0173580Y0115334D01*
X0173580Y0115334D01*
X0173580Y0127739D01*
X0173580Y0127542D01*
X0166474Y0130254D02*
X0165575Y0130254D01*
X0166474Y0130254D02*
X0172904Y0136683D01*
X0152022Y0131676D02*
X0151762Y0131887D01*
X0098691Y0182746D02*
X0098691Y0218967D01*
X0098691Y0228219D01*
X0102037Y0231565D01*
X0102037Y0248494D01*
X0098558Y0248494D01*
X0098558Y0248605D01*
X0098558Y0248558D01*
X0098494Y0248494D01*
X0102037Y0248494D02*
X0102037Y0306762D01*
X0106171Y0310896D01*
X0121833Y0310896D01*
X0290226Y0141801D02*
X0290226Y0133927D01*
X0287077Y0130778D01*
X0259807Y0130778D01*
X0250463Y0121433D01*
X0227216Y0121433D01*
X0220628Y0128022D01*
X0220541Y0128108D01*
D18*
X0185618Y0136559D03*
X0183533Y0138258D03*
M02*
