G75*
%MOIN*%
%OFA0B0*%
%FSLAX25Y25*%
%IPPOS*%
%LPD*%
%AMOC8*
5,1,8,0,0,1.08239X$1,22.5*
%
%ADD10C,0.00000*%
D10*
X0095738Y0111486D02*
X0324085Y0111486D01*
X0324209Y0111488D01*
X0324332Y0111494D01*
X0324456Y0111503D01*
X0324578Y0111517D01*
X0324701Y0111534D01*
X0324823Y0111556D01*
X0324944Y0111581D01*
X0325064Y0111610D01*
X0325183Y0111642D01*
X0325302Y0111679D01*
X0325419Y0111719D01*
X0325534Y0111762D01*
X0325649Y0111810D01*
X0325761Y0111861D01*
X0325872Y0111915D01*
X0325982Y0111973D01*
X0326089Y0112034D01*
X0326195Y0112099D01*
X0326298Y0112167D01*
X0326399Y0112238D01*
X0326498Y0112312D01*
X0326595Y0112389D01*
X0326689Y0112470D01*
X0326780Y0112553D01*
X0326869Y0112639D01*
X0326955Y0112728D01*
X0327038Y0112819D01*
X0327119Y0112913D01*
X0327196Y0113010D01*
X0327270Y0113109D01*
X0327341Y0113210D01*
X0327409Y0113313D01*
X0327474Y0113419D01*
X0327535Y0113526D01*
X0327593Y0113636D01*
X0327647Y0113747D01*
X0327698Y0113859D01*
X0327746Y0113974D01*
X0327789Y0114089D01*
X0327829Y0114206D01*
X0327866Y0114325D01*
X0327898Y0114444D01*
X0327927Y0114564D01*
X0327952Y0114685D01*
X0327974Y0114807D01*
X0327991Y0114930D01*
X0328005Y0115052D01*
X0328014Y0115176D01*
X0328020Y0115299D01*
X0328022Y0115423D01*
X0328022Y0154793D01*
X0328020Y0154917D01*
X0328014Y0155040D01*
X0328005Y0155164D01*
X0327991Y0155286D01*
X0327974Y0155409D01*
X0327952Y0155531D01*
X0327927Y0155652D01*
X0327898Y0155772D01*
X0327866Y0155891D01*
X0327829Y0156010D01*
X0327789Y0156127D01*
X0327746Y0156242D01*
X0327698Y0156357D01*
X0327647Y0156469D01*
X0327593Y0156580D01*
X0327535Y0156690D01*
X0327474Y0156797D01*
X0327409Y0156903D01*
X0327341Y0157006D01*
X0327270Y0157107D01*
X0327196Y0157206D01*
X0327119Y0157303D01*
X0327038Y0157397D01*
X0326955Y0157488D01*
X0326869Y0157577D01*
X0326780Y0157663D01*
X0326689Y0157746D01*
X0326595Y0157827D01*
X0326498Y0157904D01*
X0326399Y0157978D01*
X0326298Y0158049D01*
X0326195Y0158117D01*
X0326089Y0158182D01*
X0325982Y0158243D01*
X0325872Y0158301D01*
X0325761Y0158355D01*
X0325649Y0158406D01*
X0325534Y0158454D01*
X0325419Y0158497D01*
X0325302Y0158537D01*
X0325183Y0158574D01*
X0325064Y0158606D01*
X0324944Y0158635D01*
X0324823Y0158660D01*
X0324701Y0158682D01*
X0324578Y0158699D01*
X0324456Y0158713D01*
X0324332Y0158722D01*
X0324209Y0158728D01*
X0324085Y0158730D01*
X0261093Y0158730D01*
X0260969Y0158732D01*
X0260846Y0158738D01*
X0260722Y0158747D01*
X0260600Y0158761D01*
X0260477Y0158778D01*
X0260355Y0158800D01*
X0260234Y0158825D01*
X0260114Y0158854D01*
X0259995Y0158886D01*
X0259876Y0158923D01*
X0259759Y0158963D01*
X0259644Y0159006D01*
X0259529Y0159054D01*
X0259417Y0159105D01*
X0259306Y0159159D01*
X0259196Y0159217D01*
X0259089Y0159278D01*
X0258983Y0159343D01*
X0258880Y0159411D01*
X0258779Y0159482D01*
X0258680Y0159556D01*
X0258583Y0159633D01*
X0258489Y0159714D01*
X0258398Y0159797D01*
X0258309Y0159883D01*
X0258223Y0159972D01*
X0258140Y0160063D01*
X0258059Y0160157D01*
X0257982Y0160254D01*
X0257908Y0160353D01*
X0257837Y0160454D01*
X0257769Y0160557D01*
X0257704Y0160663D01*
X0257643Y0160770D01*
X0257585Y0160880D01*
X0257531Y0160991D01*
X0257480Y0161103D01*
X0257432Y0161218D01*
X0257389Y0161333D01*
X0257349Y0161450D01*
X0257312Y0161569D01*
X0257280Y0161688D01*
X0257251Y0161808D01*
X0257226Y0161929D01*
X0257204Y0162051D01*
X0257187Y0162174D01*
X0257173Y0162296D01*
X0257164Y0162420D01*
X0257158Y0162543D01*
X0257156Y0162667D01*
X0257156Y0272904D01*
X0257154Y0273028D01*
X0257148Y0273151D01*
X0257139Y0273275D01*
X0257125Y0273397D01*
X0257108Y0273520D01*
X0257086Y0273642D01*
X0257061Y0273763D01*
X0257032Y0273883D01*
X0257000Y0274002D01*
X0256963Y0274121D01*
X0256923Y0274238D01*
X0256880Y0274353D01*
X0256832Y0274468D01*
X0256781Y0274580D01*
X0256727Y0274691D01*
X0256669Y0274801D01*
X0256608Y0274908D01*
X0256543Y0275014D01*
X0256475Y0275117D01*
X0256404Y0275218D01*
X0256330Y0275317D01*
X0256253Y0275414D01*
X0256172Y0275508D01*
X0256089Y0275599D01*
X0256003Y0275688D01*
X0255914Y0275774D01*
X0255823Y0275857D01*
X0255729Y0275938D01*
X0255632Y0276015D01*
X0255533Y0276089D01*
X0255432Y0276160D01*
X0255329Y0276228D01*
X0255223Y0276293D01*
X0255116Y0276354D01*
X0255006Y0276412D01*
X0254895Y0276466D01*
X0254783Y0276517D01*
X0254668Y0276565D01*
X0254553Y0276608D01*
X0254436Y0276648D01*
X0254317Y0276685D01*
X0254198Y0276717D01*
X0254078Y0276746D01*
X0253957Y0276771D01*
X0253835Y0276793D01*
X0253712Y0276810D01*
X0253590Y0276824D01*
X0253466Y0276833D01*
X0253343Y0276839D01*
X0253219Y0276841D01*
X0142982Y0276841D01*
X0142858Y0276843D01*
X0142735Y0276849D01*
X0142611Y0276858D01*
X0142489Y0276872D01*
X0142366Y0276889D01*
X0142244Y0276911D01*
X0142123Y0276936D01*
X0142003Y0276965D01*
X0141884Y0276997D01*
X0141765Y0277034D01*
X0141648Y0277074D01*
X0141533Y0277117D01*
X0141418Y0277165D01*
X0141306Y0277216D01*
X0141195Y0277270D01*
X0141085Y0277328D01*
X0140978Y0277389D01*
X0140872Y0277454D01*
X0140769Y0277522D01*
X0140668Y0277593D01*
X0140569Y0277667D01*
X0140472Y0277744D01*
X0140378Y0277825D01*
X0140287Y0277908D01*
X0140198Y0277994D01*
X0140112Y0278083D01*
X0140029Y0278174D01*
X0139948Y0278268D01*
X0139871Y0278365D01*
X0139797Y0278464D01*
X0139726Y0278565D01*
X0139658Y0278668D01*
X0139593Y0278774D01*
X0139532Y0278881D01*
X0139474Y0278991D01*
X0139420Y0279102D01*
X0139369Y0279214D01*
X0139321Y0279329D01*
X0139278Y0279444D01*
X0139238Y0279561D01*
X0139201Y0279680D01*
X0139169Y0279799D01*
X0139140Y0279919D01*
X0139115Y0280040D01*
X0139093Y0280162D01*
X0139076Y0280285D01*
X0139062Y0280407D01*
X0139053Y0280531D01*
X0139047Y0280654D01*
X0139045Y0280778D01*
X0139045Y0343770D01*
X0139043Y0343894D01*
X0139037Y0344017D01*
X0139028Y0344141D01*
X0139014Y0344263D01*
X0138997Y0344386D01*
X0138975Y0344508D01*
X0138950Y0344629D01*
X0138921Y0344749D01*
X0138889Y0344868D01*
X0138852Y0344987D01*
X0138812Y0345104D01*
X0138769Y0345219D01*
X0138721Y0345334D01*
X0138670Y0345446D01*
X0138616Y0345557D01*
X0138558Y0345667D01*
X0138497Y0345774D01*
X0138432Y0345880D01*
X0138364Y0345983D01*
X0138293Y0346084D01*
X0138219Y0346183D01*
X0138142Y0346280D01*
X0138061Y0346374D01*
X0137978Y0346465D01*
X0137892Y0346554D01*
X0137803Y0346640D01*
X0137712Y0346723D01*
X0137618Y0346804D01*
X0137521Y0346881D01*
X0137422Y0346955D01*
X0137321Y0347026D01*
X0137218Y0347094D01*
X0137112Y0347159D01*
X0137005Y0347220D01*
X0136895Y0347278D01*
X0136784Y0347332D01*
X0136672Y0347383D01*
X0136557Y0347431D01*
X0136442Y0347474D01*
X0136325Y0347514D01*
X0136206Y0347551D01*
X0136087Y0347583D01*
X0135967Y0347612D01*
X0135846Y0347637D01*
X0135724Y0347659D01*
X0135601Y0347676D01*
X0135479Y0347690D01*
X0135355Y0347699D01*
X0135232Y0347705D01*
X0135108Y0347707D01*
X0095738Y0347707D01*
X0095614Y0347705D01*
X0095491Y0347699D01*
X0095367Y0347690D01*
X0095245Y0347676D01*
X0095122Y0347659D01*
X0095000Y0347637D01*
X0094879Y0347612D01*
X0094759Y0347583D01*
X0094640Y0347551D01*
X0094521Y0347514D01*
X0094404Y0347474D01*
X0094289Y0347431D01*
X0094174Y0347383D01*
X0094062Y0347332D01*
X0093951Y0347278D01*
X0093841Y0347220D01*
X0093734Y0347159D01*
X0093628Y0347094D01*
X0093525Y0347026D01*
X0093424Y0346955D01*
X0093325Y0346881D01*
X0093228Y0346804D01*
X0093134Y0346723D01*
X0093043Y0346640D01*
X0092954Y0346554D01*
X0092868Y0346465D01*
X0092785Y0346374D01*
X0092704Y0346280D01*
X0092627Y0346183D01*
X0092553Y0346084D01*
X0092482Y0345983D01*
X0092414Y0345880D01*
X0092349Y0345774D01*
X0092288Y0345667D01*
X0092230Y0345557D01*
X0092176Y0345446D01*
X0092125Y0345334D01*
X0092077Y0345219D01*
X0092034Y0345104D01*
X0091994Y0344987D01*
X0091957Y0344868D01*
X0091925Y0344749D01*
X0091896Y0344629D01*
X0091871Y0344508D01*
X0091849Y0344386D01*
X0091832Y0344263D01*
X0091818Y0344141D01*
X0091809Y0344017D01*
X0091803Y0343894D01*
X0091801Y0343770D01*
X0091801Y0115423D01*
X0091803Y0115299D01*
X0091809Y0115176D01*
X0091818Y0115052D01*
X0091832Y0114930D01*
X0091849Y0114807D01*
X0091871Y0114685D01*
X0091896Y0114564D01*
X0091925Y0114444D01*
X0091957Y0114325D01*
X0091994Y0114206D01*
X0092034Y0114089D01*
X0092077Y0113974D01*
X0092125Y0113859D01*
X0092176Y0113747D01*
X0092230Y0113636D01*
X0092288Y0113526D01*
X0092349Y0113419D01*
X0092414Y0113313D01*
X0092482Y0113210D01*
X0092553Y0113109D01*
X0092627Y0113010D01*
X0092704Y0112913D01*
X0092785Y0112819D01*
X0092868Y0112728D01*
X0092954Y0112639D01*
X0093043Y0112553D01*
X0093134Y0112470D01*
X0093228Y0112389D01*
X0093325Y0112312D01*
X0093424Y0112238D01*
X0093525Y0112167D01*
X0093628Y0112099D01*
X0093734Y0112034D01*
X0093841Y0111973D01*
X0093951Y0111915D01*
X0094062Y0111861D01*
X0094174Y0111810D01*
X0094289Y0111762D01*
X0094404Y0111719D01*
X0094521Y0111679D01*
X0094640Y0111642D01*
X0094759Y0111610D01*
X0094879Y0111581D01*
X0095000Y0111556D01*
X0095122Y0111534D01*
X0095245Y0111517D01*
X0095367Y0111503D01*
X0095491Y0111494D01*
X0095614Y0111488D01*
X0095738Y0111486D01*
X0245344Y0174478D02*
X0245346Y0174603D01*
X0245352Y0174728D01*
X0245362Y0174852D01*
X0245376Y0174976D01*
X0245393Y0175100D01*
X0245415Y0175223D01*
X0245441Y0175345D01*
X0245470Y0175467D01*
X0245503Y0175587D01*
X0245541Y0175706D01*
X0245581Y0175825D01*
X0245626Y0175941D01*
X0245674Y0176056D01*
X0245726Y0176170D01*
X0245782Y0176282D01*
X0245841Y0176392D01*
X0245903Y0176500D01*
X0245969Y0176607D01*
X0246038Y0176711D01*
X0246111Y0176812D01*
X0246186Y0176912D01*
X0246265Y0177009D01*
X0246347Y0177103D01*
X0246432Y0177195D01*
X0246519Y0177284D01*
X0246610Y0177370D01*
X0246703Y0177453D01*
X0246799Y0177534D01*
X0246897Y0177611D01*
X0246997Y0177685D01*
X0247100Y0177756D01*
X0247205Y0177823D01*
X0247313Y0177888D01*
X0247422Y0177948D01*
X0247533Y0178006D01*
X0247646Y0178059D01*
X0247760Y0178109D01*
X0247876Y0178156D01*
X0247993Y0178198D01*
X0248112Y0178237D01*
X0248232Y0178273D01*
X0248353Y0178304D01*
X0248475Y0178332D01*
X0248597Y0178355D01*
X0248721Y0178375D01*
X0248845Y0178391D01*
X0248969Y0178403D01*
X0249094Y0178411D01*
X0249219Y0178415D01*
X0249343Y0178415D01*
X0249468Y0178411D01*
X0249593Y0178403D01*
X0249717Y0178391D01*
X0249841Y0178375D01*
X0249965Y0178355D01*
X0250087Y0178332D01*
X0250209Y0178304D01*
X0250330Y0178273D01*
X0250450Y0178237D01*
X0250569Y0178198D01*
X0250686Y0178156D01*
X0250802Y0178109D01*
X0250916Y0178059D01*
X0251029Y0178006D01*
X0251140Y0177948D01*
X0251250Y0177888D01*
X0251357Y0177823D01*
X0251462Y0177756D01*
X0251565Y0177685D01*
X0251665Y0177611D01*
X0251763Y0177534D01*
X0251859Y0177453D01*
X0251952Y0177370D01*
X0252043Y0177284D01*
X0252130Y0177195D01*
X0252215Y0177103D01*
X0252297Y0177009D01*
X0252376Y0176912D01*
X0252451Y0176812D01*
X0252524Y0176711D01*
X0252593Y0176607D01*
X0252659Y0176500D01*
X0252721Y0176392D01*
X0252780Y0176282D01*
X0252836Y0176170D01*
X0252888Y0176056D01*
X0252936Y0175941D01*
X0252981Y0175825D01*
X0253021Y0175706D01*
X0253059Y0175587D01*
X0253092Y0175467D01*
X0253121Y0175345D01*
X0253147Y0175223D01*
X0253169Y0175100D01*
X0253186Y0174976D01*
X0253200Y0174852D01*
X0253210Y0174728D01*
X0253216Y0174603D01*
X0253218Y0174478D01*
X0253216Y0174353D01*
X0253210Y0174228D01*
X0253200Y0174104D01*
X0253186Y0173980D01*
X0253169Y0173856D01*
X0253147Y0173733D01*
X0253121Y0173611D01*
X0253092Y0173489D01*
X0253059Y0173369D01*
X0253021Y0173250D01*
X0252981Y0173131D01*
X0252936Y0173015D01*
X0252888Y0172900D01*
X0252836Y0172786D01*
X0252780Y0172674D01*
X0252721Y0172564D01*
X0252659Y0172456D01*
X0252593Y0172349D01*
X0252524Y0172245D01*
X0252451Y0172144D01*
X0252376Y0172044D01*
X0252297Y0171947D01*
X0252215Y0171853D01*
X0252130Y0171761D01*
X0252043Y0171672D01*
X0251952Y0171586D01*
X0251859Y0171503D01*
X0251763Y0171422D01*
X0251665Y0171345D01*
X0251565Y0171271D01*
X0251462Y0171200D01*
X0251357Y0171133D01*
X0251249Y0171068D01*
X0251140Y0171008D01*
X0251029Y0170950D01*
X0250916Y0170897D01*
X0250802Y0170847D01*
X0250686Y0170800D01*
X0250569Y0170758D01*
X0250450Y0170719D01*
X0250330Y0170683D01*
X0250209Y0170652D01*
X0250087Y0170624D01*
X0249965Y0170601D01*
X0249841Y0170581D01*
X0249717Y0170565D01*
X0249593Y0170553D01*
X0249468Y0170545D01*
X0249343Y0170541D01*
X0249219Y0170541D01*
X0249094Y0170545D01*
X0248969Y0170553D01*
X0248845Y0170565D01*
X0248721Y0170581D01*
X0248597Y0170601D01*
X0248475Y0170624D01*
X0248353Y0170652D01*
X0248232Y0170683D01*
X0248112Y0170719D01*
X0247993Y0170758D01*
X0247876Y0170800D01*
X0247760Y0170847D01*
X0247646Y0170897D01*
X0247533Y0170950D01*
X0247422Y0171008D01*
X0247312Y0171068D01*
X0247205Y0171133D01*
X0247100Y0171200D01*
X0246997Y0171271D01*
X0246897Y0171345D01*
X0246799Y0171422D01*
X0246703Y0171503D01*
X0246610Y0171586D01*
X0246519Y0171672D01*
X0246432Y0171761D01*
X0246347Y0171853D01*
X0246265Y0171947D01*
X0246186Y0172044D01*
X0246111Y0172144D01*
X0246038Y0172245D01*
X0245969Y0172349D01*
X0245903Y0172456D01*
X0245841Y0172564D01*
X0245782Y0172674D01*
X0245726Y0172786D01*
X0245674Y0172900D01*
X0245626Y0173015D01*
X0245581Y0173131D01*
X0245541Y0173250D01*
X0245503Y0173369D01*
X0245470Y0173489D01*
X0245441Y0173611D01*
X0245415Y0173733D01*
X0245393Y0173856D01*
X0245376Y0173980D01*
X0245362Y0174104D01*
X0245352Y0174228D01*
X0245346Y0174353D01*
X0245344Y0174478D01*
X0245344Y0257156D02*
X0245346Y0257281D01*
X0245352Y0257406D01*
X0245362Y0257530D01*
X0245376Y0257654D01*
X0245393Y0257778D01*
X0245415Y0257901D01*
X0245441Y0258023D01*
X0245470Y0258145D01*
X0245503Y0258265D01*
X0245541Y0258384D01*
X0245581Y0258503D01*
X0245626Y0258619D01*
X0245674Y0258734D01*
X0245726Y0258848D01*
X0245782Y0258960D01*
X0245841Y0259070D01*
X0245903Y0259178D01*
X0245969Y0259285D01*
X0246038Y0259389D01*
X0246111Y0259490D01*
X0246186Y0259590D01*
X0246265Y0259687D01*
X0246347Y0259781D01*
X0246432Y0259873D01*
X0246519Y0259962D01*
X0246610Y0260048D01*
X0246703Y0260131D01*
X0246799Y0260212D01*
X0246897Y0260289D01*
X0246997Y0260363D01*
X0247100Y0260434D01*
X0247205Y0260501D01*
X0247313Y0260566D01*
X0247422Y0260626D01*
X0247533Y0260684D01*
X0247646Y0260737D01*
X0247760Y0260787D01*
X0247876Y0260834D01*
X0247993Y0260876D01*
X0248112Y0260915D01*
X0248232Y0260951D01*
X0248353Y0260982D01*
X0248475Y0261010D01*
X0248597Y0261033D01*
X0248721Y0261053D01*
X0248845Y0261069D01*
X0248969Y0261081D01*
X0249094Y0261089D01*
X0249219Y0261093D01*
X0249343Y0261093D01*
X0249468Y0261089D01*
X0249593Y0261081D01*
X0249717Y0261069D01*
X0249841Y0261053D01*
X0249965Y0261033D01*
X0250087Y0261010D01*
X0250209Y0260982D01*
X0250330Y0260951D01*
X0250450Y0260915D01*
X0250569Y0260876D01*
X0250686Y0260834D01*
X0250802Y0260787D01*
X0250916Y0260737D01*
X0251029Y0260684D01*
X0251140Y0260626D01*
X0251250Y0260566D01*
X0251357Y0260501D01*
X0251462Y0260434D01*
X0251565Y0260363D01*
X0251665Y0260289D01*
X0251763Y0260212D01*
X0251859Y0260131D01*
X0251952Y0260048D01*
X0252043Y0259962D01*
X0252130Y0259873D01*
X0252215Y0259781D01*
X0252297Y0259687D01*
X0252376Y0259590D01*
X0252451Y0259490D01*
X0252524Y0259389D01*
X0252593Y0259285D01*
X0252659Y0259178D01*
X0252721Y0259070D01*
X0252780Y0258960D01*
X0252836Y0258848D01*
X0252888Y0258734D01*
X0252936Y0258619D01*
X0252981Y0258503D01*
X0253021Y0258384D01*
X0253059Y0258265D01*
X0253092Y0258145D01*
X0253121Y0258023D01*
X0253147Y0257901D01*
X0253169Y0257778D01*
X0253186Y0257654D01*
X0253200Y0257530D01*
X0253210Y0257406D01*
X0253216Y0257281D01*
X0253218Y0257156D01*
X0253216Y0257031D01*
X0253210Y0256906D01*
X0253200Y0256782D01*
X0253186Y0256658D01*
X0253169Y0256534D01*
X0253147Y0256411D01*
X0253121Y0256289D01*
X0253092Y0256167D01*
X0253059Y0256047D01*
X0253021Y0255928D01*
X0252981Y0255809D01*
X0252936Y0255693D01*
X0252888Y0255578D01*
X0252836Y0255464D01*
X0252780Y0255352D01*
X0252721Y0255242D01*
X0252659Y0255134D01*
X0252593Y0255027D01*
X0252524Y0254923D01*
X0252451Y0254822D01*
X0252376Y0254722D01*
X0252297Y0254625D01*
X0252215Y0254531D01*
X0252130Y0254439D01*
X0252043Y0254350D01*
X0251952Y0254264D01*
X0251859Y0254181D01*
X0251763Y0254100D01*
X0251665Y0254023D01*
X0251565Y0253949D01*
X0251462Y0253878D01*
X0251357Y0253811D01*
X0251249Y0253746D01*
X0251140Y0253686D01*
X0251029Y0253628D01*
X0250916Y0253575D01*
X0250802Y0253525D01*
X0250686Y0253478D01*
X0250569Y0253436D01*
X0250450Y0253397D01*
X0250330Y0253361D01*
X0250209Y0253330D01*
X0250087Y0253302D01*
X0249965Y0253279D01*
X0249841Y0253259D01*
X0249717Y0253243D01*
X0249593Y0253231D01*
X0249468Y0253223D01*
X0249343Y0253219D01*
X0249219Y0253219D01*
X0249094Y0253223D01*
X0248969Y0253231D01*
X0248845Y0253243D01*
X0248721Y0253259D01*
X0248597Y0253279D01*
X0248475Y0253302D01*
X0248353Y0253330D01*
X0248232Y0253361D01*
X0248112Y0253397D01*
X0247993Y0253436D01*
X0247876Y0253478D01*
X0247760Y0253525D01*
X0247646Y0253575D01*
X0247533Y0253628D01*
X0247422Y0253686D01*
X0247312Y0253746D01*
X0247205Y0253811D01*
X0247100Y0253878D01*
X0246997Y0253949D01*
X0246897Y0254023D01*
X0246799Y0254100D01*
X0246703Y0254181D01*
X0246610Y0254264D01*
X0246519Y0254350D01*
X0246432Y0254439D01*
X0246347Y0254531D01*
X0246265Y0254625D01*
X0246186Y0254722D01*
X0246111Y0254822D01*
X0246038Y0254923D01*
X0245969Y0255027D01*
X0245903Y0255134D01*
X0245841Y0255242D01*
X0245782Y0255352D01*
X0245726Y0255464D01*
X0245674Y0255578D01*
X0245626Y0255693D01*
X0245581Y0255809D01*
X0245541Y0255928D01*
X0245503Y0256047D01*
X0245470Y0256167D01*
X0245441Y0256289D01*
X0245415Y0256411D01*
X0245393Y0256534D01*
X0245376Y0256658D01*
X0245362Y0256782D01*
X0245352Y0256906D01*
X0245346Y0257031D01*
X0245344Y0257156D01*
X0233533Y0268967D02*
X0233535Y0269092D01*
X0233541Y0269217D01*
X0233551Y0269341D01*
X0233565Y0269465D01*
X0233582Y0269589D01*
X0233604Y0269712D01*
X0233630Y0269834D01*
X0233659Y0269956D01*
X0233692Y0270076D01*
X0233730Y0270195D01*
X0233770Y0270314D01*
X0233815Y0270430D01*
X0233863Y0270545D01*
X0233915Y0270659D01*
X0233971Y0270771D01*
X0234030Y0270881D01*
X0234092Y0270989D01*
X0234158Y0271096D01*
X0234227Y0271200D01*
X0234300Y0271301D01*
X0234375Y0271401D01*
X0234454Y0271498D01*
X0234536Y0271592D01*
X0234621Y0271684D01*
X0234708Y0271773D01*
X0234799Y0271859D01*
X0234892Y0271942D01*
X0234988Y0272023D01*
X0235086Y0272100D01*
X0235186Y0272174D01*
X0235289Y0272245D01*
X0235394Y0272312D01*
X0235502Y0272377D01*
X0235611Y0272437D01*
X0235722Y0272495D01*
X0235835Y0272548D01*
X0235949Y0272598D01*
X0236065Y0272645D01*
X0236182Y0272687D01*
X0236301Y0272726D01*
X0236421Y0272762D01*
X0236542Y0272793D01*
X0236664Y0272821D01*
X0236786Y0272844D01*
X0236910Y0272864D01*
X0237034Y0272880D01*
X0237158Y0272892D01*
X0237283Y0272900D01*
X0237408Y0272904D01*
X0237532Y0272904D01*
X0237657Y0272900D01*
X0237782Y0272892D01*
X0237906Y0272880D01*
X0238030Y0272864D01*
X0238154Y0272844D01*
X0238276Y0272821D01*
X0238398Y0272793D01*
X0238519Y0272762D01*
X0238639Y0272726D01*
X0238758Y0272687D01*
X0238875Y0272645D01*
X0238991Y0272598D01*
X0239105Y0272548D01*
X0239218Y0272495D01*
X0239329Y0272437D01*
X0239439Y0272377D01*
X0239546Y0272312D01*
X0239651Y0272245D01*
X0239754Y0272174D01*
X0239854Y0272100D01*
X0239952Y0272023D01*
X0240048Y0271942D01*
X0240141Y0271859D01*
X0240232Y0271773D01*
X0240319Y0271684D01*
X0240404Y0271592D01*
X0240486Y0271498D01*
X0240565Y0271401D01*
X0240640Y0271301D01*
X0240713Y0271200D01*
X0240782Y0271096D01*
X0240848Y0270989D01*
X0240910Y0270881D01*
X0240969Y0270771D01*
X0241025Y0270659D01*
X0241077Y0270545D01*
X0241125Y0270430D01*
X0241170Y0270314D01*
X0241210Y0270195D01*
X0241248Y0270076D01*
X0241281Y0269956D01*
X0241310Y0269834D01*
X0241336Y0269712D01*
X0241358Y0269589D01*
X0241375Y0269465D01*
X0241389Y0269341D01*
X0241399Y0269217D01*
X0241405Y0269092D01*
X0241407Y0268967D01*
X0241405Y0268842D01*
X0241399Y0268717D01*
X0241389Y0268593D01*
X0241375Y0268469D01*
X0241358Y0268345D01*
X0241336Y0268222D01*
X0241310Y0268100D01*
X0241281Y0267978D01*
X0241248Y0267858D01*
X0241210Y0267739D01*
X0241170Y0267620D01*
X0241125Y0267504D01*
X0241077Y0267389D01*
X0241025Y0267275D01*
X0240969Y0267163D01*
X0240910Y0267053D01*
X0240848Y0266945D01*
X0240782Y0266838D01*
X0240713Y0266734D01*
X0240640Y0266633D01*
X0240565Y0266533D01*
X0240486Y0266436D01*
X0240404Y0266342D01*
X0240319Y0266250D01*
X0240232Y0266161D01*
X0240141Y0266075D01*
X0240048Y0265992D01*
X0239952Y0265911D01*
X0239854Y0265834D01*
X0239754Y0265760D01*
X0239651Y0265689D01*
X0239546Y0265622D01*
X0239438Y0265557D01*
X0239329Y0265497D01*
X0239218Y0265439D01*
X0239105Y0265386D01*
X0238991Y0265336D01*
X0238875Y0265289D01*
X0238758Y0265247D01*
X0238639Y0265208D01*
X0238519Y0265172D01*
X0238398Y0265141D01*
X0238276Y0265113D01*
X0238154Y0265090D01*
X0238030Y0265070D01*
X0237906Y0265054D01*
X0237782Y0265042D01*
X0237657Y0265034D01*
X0237532Y0265030D01*
X0237408Y0265030D01*
X0237283Y0265034D01*
X0237158Y0265042D01*
X0237034Y0265054D01*
X0236910Y0265070D01*
X0236786Y0265090D01*
X0236664Y0265113D01*
X0236542Y0265141D01*
X0236421Y0265172D01*
X0236301Y0265208D01*
X0236182Y0265247D01*
X0236065Y0265289D01*
X0235949Y0265336D01*
X0235835Y0265386D01*
X0235722Y0265439D01*
X0235611Y0265497D01*
X0235501Y0265557D01*
X0235394Y0265622D01*
X0235289Y0265689D01*
X0235186Y0265760D01*
X0235086Y0265834D01*
X0234988Y0265911D01*
X0234892Y0265992D01*
X0234799Y0266075D01*
X0234708Y0266161D01*
X0234621Y0266250D01*
X0234536Y0266342D01*
X0234454Y0266436D01*
X0234375Y0266533D01*
X0234300Y0266633D01*
X0234227Y0266734D01*
X0234158Y0266838D01*
X0234092Y0266945D01*
X0234030Y0267053D01*
X0233971Y0267163D01*
X0233915Y0267275D01*
X0233863Y0267389D01*
X0233815Y0267504D01*
X0233770Y0267620D01*
X0233730Y0267739D01*
X0233692Y0267858D01*
X0233659Y0267978D01*
X0233630Y0268100D01*
X0233604Y0268222D01*
X0233582Y0268345D01*
X0233565Y0268469D01*
X0233551Y0268593D01*
X0233541Y0268717D01*
X0233535Y0268842D01*
X0233533Y0268967D01*
X0150856Y0268967D02*
X0150858Y0269092D01*
X0150864Y0269217D01*
X0150874Y0269341D01*
X0150888Y0269465D01*
X0150905Y0269589D01*
X0150927Y0269712D01*
X0150953Y0269834D01*
X0150982Y0269956D01*
X0151015Y0270076D01*
X0151053Y0270195D01*
X0151093Y0270314D01*
X0151138Y0270430D01*
X0151186Y0270545D01*
X0151238Y0270659D01*
X0151294Y0270771D01*
X0151353Y0270881D01*
X0151415Y0270989D01*
X0151481Y0271096D01*
X0151550Y0271200D01*
X0151623Y0271301D01*
X0151698Y0271401D01*
X0151777Y0271498D01*
X0151859Y0271592D01*
X0151944Y0271684D01*
X0152031Y0271773D01*
X0152122Y0271859D01*
X0152215Y0271942D01*
X0152311Y0272023D01*
X0152409Y0272100D01*
X0152509Y0272174D01*
X0152612Y0272245D01*
X0152717Y0272312D01*
X0152825Y0272377D01*
X0152934Y0272437D01*
X0153045Y0272495D01*
X0153158Y0272548D01*
X0153272Y0272598D01*
X0153388Y0272645D01*
X0153505Y0272687D01*
X0153624Y0272726D01*
X0153744Y0272762D01*
X0153865Y0272793D01*
X0153987Y0272821D01*
X0154109Y0272844D01*
X0154233Y0272864D01*
X0154357Y0272880D01*
X0154481Y0272892D01*
X0154606Y0272900D01*
X0154731Y0272904D01*
X0154855Y0272904D01*
X0154980Y0272900D01*
X0155105Y0272892D01*
X0155229Y0272880D01*
X0155353Y0272864D01*
X0155477Y0272844D01*
X0155599Y0272821D01*
X0155721Y0272793D01*
X0155842Y0272762D01*
X0155962Y0272726D01*
X0156081Y0272687D01*
X0156198Y0272645D01*
X0156314Y0272598D01*
X0156428Y0272548D01*
X0156541Y0272495D01*
X0156652Y0272437D01*
X0156762Y0272377D01*
X0156869Y0272312D01*
X0156974Y0272245D01*
X0157077Y0272174D01*
X0157177Y0272100D01*
X0157275Y0272023D01*
X0157371Y0271942D01*
X0157464Y0271859D01*
X0157555Y0271773D01*
X0157642Y0271684D01*
X0157727Y0271592D01*
X0157809Y0271498D01*
X0157888Y0271401D01*
X0157963Y0271301D01*
X0158036Y0271200D01*
X0158105Y0271096D01*
X0158171Y0270989D01*
X0158233Y0270881D01*
X0158292Y0270771D01*
X0158348Y0270659D01*
X0158400Y0270545D01*
X0158448Y0270430D01*
X0158493Y0270314D01*
X0158533Y0270195D01*
X0158571Y0270076D01*
X0158604Y0269956D01*
X0158633Y0269834D01*
X0158659Y0269712D01*
X0158681Y0269589D01*
X0158698Y0269465D01*
X0158712Y0269341D01*
X0158722Y0269217D01*
X0158728Y0269092D01*
X0158730Y0268967D01*
X0158728Y0268842D01*
X0158722Y0268717D01*
X0158712Y0268593D01*
X0158698Y0268469D01*
X0158681Y0268345D01*
X0158659Y0268222D01*
X0158633Y0268100D01*
X0158604Y0267978D01*
X0158571Y0267858D01*
X0158533Y0267739D01*
X0158493Y0267620D01*
X0158448Y0267504D01*
X0158400Y0267389D01*
X0158348Y0267275D01*
X0158292Y0267163D01*
X0158233Y0267053D01*
X0158171Y0266945D01*
X0158105Y0266838D01*
X0158036Y0266734D01*
X0157963Y0266633D01*
X0157888Y0266533D01*
X0157809Y0266436D01*
X0157727Y0266342D01*
X0157642Y0266250D01*
X0157555Y0266161D01*
X0157464Y0266075D01*
X0157371Y0265992D01*
X0157275Y0265911D01*
X0157177Y0265834D01*
X0157077Y0265760D01*
X0156974Y0265689D01*
X0156869Y0265622D01*
X0156761Y0265557D01*
X0156652Y0265497D01*
X0156541Y0265439D01*
X0156428Y0265386D01*
X0156314Y0265336D01*
X0156198Y0265289D01*
X0156081Y0265247D01*
X0155962Y0265208D01*
X0155842Y0265172D01*
X0155721Y0265141D01*
X0155599Y0265113D01*
X0155477Y0265090D01*
X0155353Y0265070D01*
X0155229Y0265054D01*
X0155105Y0265042D01*
X0154980Y0265034D01*
X0154855Y0265030D01*
X0154731Y0265030D01*
X0154606Y0265034D01*
X0154481Y0265042D01*
X0154357Y0265054D01*
X0154233Y0265070D01*
X0154109Y0265090D01*
X0153987Y0265113D01*
X0153865Y0265141D01*
X0153744Y0265172D01*
X0153624Y0265208D01*
X0153505Y0265247D01*
X0153388Y0265289D01*
X0153272Y0265336D01*
X0153158Y0265386D01*
X0153045Y0265439D01*
X0152934Y0265497D01*
X0152824Y0265557D01*
X0152717Y0265622D01*
X0152612Y0265689D01*
X0152509Y0265760D01*
X0152409Y0265834D01*
X0152311Y0265911D01*
X0152215Y0265992D01*
X0152122Y0266075D01*
X0152031Y0266161D01*
X0151944Y0266250D01*
X0151859Y0266342D01*
X0151777Y0266436D01*
X0151698Y0266533D01*
X0151623Y0266633D01*
X0151550Y0266734D01*
X0151481Y0266838D01*
X0151415Y0266945D01*
X0151353Y0267053D01*
X0151294Y0267163D01*
X0151238Y0267275D01*
X0151186Y0267389D01*
X0151138Y0267504D01*
X0151093Y0267620D01*
X0151053Y0267739D01*
X0151015Y0267858D01*
X0150982Y0267978D01*
X0150953Y0268100D01*
X0150927Y0268222D01*
X0150905Y0268345D01*
X0150888Y0268469D01*
X0150874Y0268593D01*
X0150864Y0268717D01*
X0150858Y0268842D01*
X0150856Y0268967D01*
M02*
