G75*
%MOIN*%
%OFA0B0*%
%FSLAX25Y25*%
%IPPOS*%
%LPD*%
%AMOC8*
5,1,8,0,0,1.08239X$1,22.5*
%
%ADD10C,0.07087*%
%ADD11C,0.07677*%
%ADD12C,0.09300*%
%ADD13C,0.10050*%
%ADD14C,0.06496*%
%ADD15C,0.05400*%
%ADD16C,0.11811*%
%ADD17C,0.02178*%
%ADD18C,0.17780*%
%ADD19C,0.29591*%
%ADD20C,0.01000*%
D10*
X0162024Y0244020D03*
X0162024Y0342445D03*
X0162024Y0480240D03*
X0162024Y0578665D03*
X0162024Y0677091D03*
X0162024Y0775516D03*
X0260449Y0775516D03*
X0260449Y0677091D03*
X0263598Y0577878D03*
X0260449Y0480240D03*
X0260449Y0342445D03*
X0260449Y0244020D03*
X0358874Y0244020D03*
X0358874Y0342445D03*
X0358874Y0480240D03*
X0358874Y0578665D03*
X0358874Y0677091D03*
X0358874Y0775516D03*
X0457299Y0775516D03*
X0457299Y0677091D03*
X0457299Y0578665D03*
X0457299Y0480240D03*
X0457299Y0342445D03*
X0457299Y0244020D03*
D11*
X0445099Y0256220D03*
X0445099Y0231820D03*
X0469499Y0231820D03*
X0469499Y0256220D03*
X0469499Y0330245D03*
X0469499Y0354645D03*
X0445099Y0354645D03*
X0445099Y0330245D03*
X0371074Y0330245D03*
X0371074Y0354645D03*
X0346674Y0354645D03*
X0346674Y0330245D03*
X0346674Y0256220D03*
X0346674Y0231820D03*
X0371074Y0231820D03*
X0371074Y0256220D03*
X0272649Y0256220D03*
X0272649Y0231820D03*
X0248249Y0231820D03*
X0248249Y0256220D03*
X0248249Y0330245D03*
X0248249Y0354645D03*
X0272649Y0354645D03*
X0272649Y0330245D03*
X0272649Y0468040D03*
X0272649Y0492440D03*
X0248249Y0492440D03*
X0248249Y0468040D03*
X0251398Y0565678D03*
X0251398Y0590078D03*
X0275798Y0590078D03*
X0275798Y0565678D03*
X0272649Y0664891D03*
X0272649Y0689291D03*
X0248249Y0689291D03*
X0248249Y0664891D03*
X0248249Y0763316D03*
X0248249Y0787716D03*
X0272649Y0787716D03*
X0272649Y0763316D03*
X0346674Y0763316D03*
X0346674Y0787716D03*
X0371074Y0787716D03*
X0371074Y0763316D03*
X0371074Y0689291D03*
X0371074Y0664891D03*
X0346674Y0664891D03*
X0346674Y0689291D03*
X0346674Y0590865D03*
X0346674Y0566465D03*
X0371074Y0566465D03*
X0371074Y0590865D03*
X0371074Y0492440D03*
X0371074Y0468040D03*
X0346674Y0468040D03*
X0346674Y0492440D03*
X0445099Y0492440D03*
X0445099Y0468040D03*
X0469499Y0468040D03*
X0469499Y0492440D03*
X0469499Y0566465D03*
X0469499Y0590865D03*
X0445099Y0590865D03*
X0445099Y0566465D03*
X0445099Y0664891D03*
X0445099Y0689291D03*
X0469499Y0689291D03*
X0469499Y0664891D03*
X0469499Y0763316D03*
X0469499Y0787716D03*
X0445099Y0787716D03*
X0445099Y0763316D03*
X0174224Y0763316D03*
X0174224Y0787716D03*
X0149824Y0787716D03*
X0149824Y0763316D03*
X0149824Y0689291D03*
X0149824Y0664891D03*
X0174224Y0664891D03*
X0174224Y0689291D03*
X0174224Y0590865D03*
X0174224Y0566465D03*
X0149824Y0566465D03*
X0149824Y0590865D03*
X0149824Y0492440D03*
X0149824Y0468040D03*
X0174224Y0468040D03*
X0174224Y0492440D03*
X0174224Y0354645D03*
X0174224Y0330245D03*
X0149824Y0330245D03*
X0149824Y0354645D03*
X0149824Y0256220D03*
X0149824Y0231820D03*
X0174224Y0231820D03*
X0174224Y0256220D03*
D12*
X0201394Y0303075D03*
X0201394Y0204650D03*
X0169898Y0118035D03*
X0268323Y0118035D03*
X0299819Y0204650D03*
X0299819Y0303075D03*
X0299819Y0440870D03*
X0299819Y0539295D03*
X0299819Y0637720D03*
X0299819Y0736146D03*
X0398244Y0736146D03*
X0398244Y0637720D03*
X0398244Y0539295D03*
X0398244Y0440870D03*
X0496669Y0440870D03*
X0496669Y0539295D03*
X0496669Y0637720D03*
X0496669Y0736146D03*
X0496669Y0303075D03*
X0496669Y0204650D03*
X0465173Y0118035D03*
X0398244Y0204650D03*
X0366748Y0118035D03*
X0398244Y0303075D03*
X0201394Y0440870D03*
X0201394Y0539295D03*
X0201394Y0637720D03*
X0201394Y0736146D03*
D13*
X0211394Y0746146D03*
X0211394Y0726146D03*
X0191394Y0726146D03*
X0191394Y0746146D03*
X0191394Y0647720D03*
X0191394Y0627720D03*
X0211394Y0627720D03*
X0211394Y0647720D03*
X0211394Y0549295D03*
X0211394Y0529295D03*
X0191394Y0529295D03*
X0191394Y0549295D03*
X0191394Y0450870D03*
X0191394Y0430870D03*
X0211394Y0430870D03*
X0211394Y0450870D03*
X0289819Y0450870D03*
X0289819Y0430870D03*
X0309819Y0430870D03*
X0309819Y0450870D03*
X0309819Y0529295D03*
X0309819Y0549295D03*
X0289819Y0549295D03*
X0289819Y0529295D03*
X0289819Y0627720D03*
X0289819Y0647720D03*
X0309819Y0647720D03*
X0309819Y0627720D03*
X0309819Y0726146D03*
X0309819Y0746146D03*
X0289819Y0746146D03*
X0289819Y0726146D03*
X0388244Y0726146D03*
X0388244Y0746146D03*
X0408244Y0746146D03*
X0408244Y0726146D03*
X0408244Y0647720D03*
X0408244Y0627720D03*
X0388244Y0627720D03*
X0388244Y0647720D03*
X0388244Y0549295D03*
X0388244Y0529295D03*
X0408244Y0529295D03*
X0408244Y0549295D03*
X0408244Y0450870D03*
X0408244Y0430870D03*
X0388244Y0430870D03*
X0388244Y0450870D03*
X0388244Y0313075D03*
X0388244Y0293075D03*
X0408244Y0293075D03*
X0408244Y0313075D03*
X0408244Y0214650D03*
X0408244Y0194650D03*
X0388244Y0194650D03*
X0388244Y0214650D03*
X0376748Y0128035D03*
X0376748Y0108035D03*
X0356748Y0108035D03*
X0356748Y0128035D03*
X0309819Y0194650D03*
X0309819Y0214650D03*
X0289819Y0214650D03*
X0289819Y0194650D03*
X0278323Y0128035D03*
X0278323Y0108035D03*
X0258323Y0108035D03*
X0258323Y0128035D03*
X0211394Y0194650D03*
X0211394Y0214650D03*
X0191394Y0214650D03*
X0191394Y0194650D03*
X0179898Y0128035D03*
X0179898Y0108035D03*
X0159898Y0108035D03*
X0159898Y0128035D03*
X0191394Y0293075D03*
X0191394Y0313075D03*
X0211394Y0313075D03*
X0211394Y0293075D03*
X0289819Y0293075D03*
X0289819Y0313075D03*
X0309819Y0313075D03*
X0309819Y0293075D03*
X0455173Y0128035D03*
X0455173Y0108035D03*
X0475173Y0108035D03*
X0475173Y0128035D03*
X0486669Y0194650D03*
X0486669Y0214650D03*
X0506669Y0214650D03*
X0506669Y0194650D03*
X0506669Y0293075D03*
X0506669Y0313075D03*
X0486669Y0313075D03*
X0486669Y0293075D03*
X0486669Y0430870D03*
X0486669Y0450870D03*
X0506669Y0450870D03*
X0506669Y0430870D03*
X0506669Y0529295D03*
X0506669Y0549295D03*
X0486669Y0549295D03*
X0486669Y0529295D03*
X0486669Y0627720D03*
X0486669Y0647720D03*
X0506669Y0647720D03*
X0506669Y0627720D03*
X0506669Y0726146D03*
X0506669Y0746146D03*
X0486669Y0746146D03*
X0486669Y0726146D03*
D14*
X0053756Y0550240D03*
X0053756Y0540240D03*
X0053756Y0530240D03*
X0053756Y0520240D03*
X0053756Y0510240D03*
X0053756Y0500240D03*
X0053756Y0490240D03*
X0053756Y0480240D03*
X0053756Y0450870D03*
X0053756Y0440870D03*
X0034071Y0440870D03*
X0034071Y0450870D03*
X0034071Y0480240D03*
X0034071Y0490240D03*
X0034071Y0500240D03*
X0034071Y0510240D03*
X0034071Y0520240D03*
X0034071Y0530240D03*
X0034071Y0540240D03*
X0034071Y0550240D03*
X0034071Y0294335D03*
X0034071Y0284335D03*
X0034071Y0274335D03*
X0034071Y0264335D03*
X0034071Y0254335D03*
X0034071Y0244335D03*
X0034071Y0234335D03*
X0034071Y0224335D03*
X0053756Y0224335D03*
X0053756Y0234335D03*
X0053756Y0244335D03*
X0053756Y0254335D03*
X0053756Y0264335D03*
X0053756Y0274335D03*
X0053756Y0284335D03*
X0053756Y0294335D03*
D15*
X0078283Y0317130D03*
X0078283Y0327130D03*
X0078283Y0337130D03*
X0078283Y0347130D03*
X0078283Y0357130D03*
X0078283Y0367130D03*
X0078283Y0377130D03*
X0078283Y0387130D03*
X0078283Y0397130D03*
X0078283Y0407130D03*
X0088283Y0407130D03*
X0088283Y0397130D03*
X0088283Y0387130D03*
X0088283Y0377130D03*
X0088283Y0367130D03*
X0088283Y0357130D03*
X0088283Y0347130D03*
X0088283Y0337130D03*
X0088283Y0327130D03*
X0088283Y0317130D03*
X0088283Y0573035D03*
X0088283Y0583035D03*
X0088283Y0593035D03*
X0088283Y0603035D03*
X0088283Y0613035D03*
X0088283Y0623035D03*
X0088283Y0633035D03*
X0088283Y0643035D03*
X0088283Y0653035D03*
X0078283Y0653035D03*
X0078283Y0643035D03*
X0078283Y0633035D03*
X0078283Y0623035D03*
X0078283Y0613035D03*
X0078283Y0603035D03*
X0078283Y0593035D03*
X0078283Y0583035D03*
X0078283Y0573035D03*
X0078283Y0663035D03*
X0088283Y0663035D03*
D16*
X0138402Y0043232D03*
X0506512Y0086539D03*
D17*
X0030134Y0044807D03*
X0039976Y0044807D03*
X0041551Y0068035D03*
X0031709Y0068035D03*
X0029740Y0087720D03*
X0041551Y0087720D03*
X0041551Y0107406D03*
X0031709Y0107406D03*
X0029740Y0127091D03*
X0043520Y0127091D03*
X0040469Y0213685D03*
X0059248Y0264335D03*
X0061394Y0266480D03*
X0076394Y0273980D03*
X0078894Y0266480D03*
X0086020Y0281106D03*
X0093520Y0286106D03*
X0106394Y0349295D03*
X0102644Y0353045D03*
X0103559Y0361795D03*
X0118894Y0361795D03*
X0123894Y0359295D03*
X0123894Y0351795D03*
X0035252Y0371185D03*
X0034858Y0355831D03*
X0035646Y0392445D03*
X0033677Y0603469D03*
X0033283Y0635752D03*
X0034071Y0662130D03*
X0057988Y0714866D03*
X0080429Y0746756D03*
X0063894Y0804295D03*
X0039898Y0828232D03*
X0121394Y0801795D03*
X0143894Y0744266D03*
X0141394Y0736795D03*
X0138894Y0729295D03*
X0128894Y0719295D03*
X0131394Y0711795D03*
X0136394Y0704295D03*
X0126394Y0731795D03*
X0161394Y0736795D03*
X0166394Y0731795D03*
X0163894Y0744295D03*
X0178894Y0711795D03*
X0166118Y0699295D03*
X0193894Y0706795D03*
X0201394Y0676303D03*
X0201394Y0653862D03*
X0176394Y0619295D03*
X0166394Y0624295D03*
X0158894Y0619295D03*
X0158894Y0609295D03*
X0186394Y0606795D03*
X0193894Y0606795D03*
X0158894Y0651795D03*
X0121394Y0654295D03*
X0118894Y0659295D03*
X0118894Y0646795D03*
X0118894Y0641795D03*
X0108894Y0631795D03*
X0103894Y0636795D03*
X0101394Y0621795D03*
X0098894Y0616795D03*
X0258894Y0609295D03*
D18*
X0043913Y0854256D03*
X0043913Y0165280D03*
X0536039Y0165280D03*
X0536039Y0854256D03*
D19*
X0296669Y0834571D03*
D20*
X0193894Y0706795D02*
X0187791Y0706795D01*
X0185646Y0704650D01*
X0149110Y0704650D01*
X0134465Y0719295D01*
X0128894Y0719295D01*
X0131394Y0711795D02*
X0137713Y0711795D01*
X0150213Y0699295D01*
X0166118Y0699295D01*
X0178894Y0711795D02*
X0178894Y0719295D01*
X0171394Y0726795D01*
X0131394Y0726795D01*
X0126394Y0731795D01*
X0138894Y0729295D02*
X0141394Y0731795D01*
X0166394Y0731795D01*
X0161394Y0736795D02*
X0141394Y0736795D01*
X0143894Y0744266D02*
X0143923Y0744295D01*
X0163894Y0744295D01*
X0162024Y0775516D02*
X0162024Y0797169D01*
X0157398Y0801795D01*
X0121394Y0801795D01*
X0136394Y0704295D02*
X0138008Y0702681D01*
X0138008Y0682996D01*
X0143913Y0677091D01*
X0162024Y0677091D01*
X0200606Y0677091D01*
X0201394Y0676303D01*
X0208894Y0659295D02*
X0187220Y0659295D01*
X0182969Y0655043D01*
X0132417Y0655043D01*
X0128165Y0659295D01*
X0118894Y0659295D01*
X0117270Y0657671D01*
X0082270Y0657671D01*
X0078283Y0653685D01*
X0078283Y0653035D01*
X0078283Y0643035D02*
X0082183Y0639135D01*
X0092435Y0639135D01*
X0095094Y0641795D01*
X0118894Y0641795D01*
X0161394Y0641795D01*
X0186394Y0616795D01*
X0186394Y0606795D01*
X0193894Y0606795D02*
X0193894Y0614295D01*
X0161394Y0646795D01*
X0118894Y0646795D01*
X0092043Y0646795D01*
X0088283Y0643035D01*
X0089899Y0636935D02*
X0086668Y0636935D01*
X0082768Y0633035D01*
X0078283Y0633035D01*
X0088283Y0633035D02*
X0089524Y0631795D01*
X0108894Y0631795D01*
X0153894Y0631795D01*
X0166394Y0619295D01*
X0176394Y0619295D01*
X0166394Y0624295D02*
X0153894Y0636795D01*
X0103894Y0636795D01*
X0090039Y0636795D01*
X0089899Y0636935D01*
X0088283Y0653035D02*
X0089543Y0654295D01*
X0121394Y0654295D01*
X0123894Y0651795D01*
X0158894Y0651795D01*
X0158894Y0619295D02*
X0103894Y0619295D01*
X0101394Y0621795D01*
X0100154Y0623035D01*
X0088283Y0623035D01*
X0088283Y0613035D02*
X0083799Y0613035D01*
X0079899Y0616935D01*
X0071534Y0616935D01*
X0053756Y0599157D01*
X0053756Y0550240D01*
X0034071Y0550240D01*
X0034071Y0540240D02*
X0053756Y0540240D01*
X0058894Y0545378D01*
X0058894Y0599295D01*
X0072634Y0613035D01*
X0078283Y0613035D01*
X0076668Y0606935D02*
X0084383Y0606935D01*
X0088283Y0603035D01*
X0084383Y0596935D02*
X0088283Y0593035D01*
X0084383Y0596935D02*
X0076668Y0596935D01*
X0076528Y0596795D01*
X0073894Y0596795D01*
X0066394Y0589295D01*
X0066394Y0522878D01*
X0053756Y0510240D01*
X0034071Y0510240D01*
X0034071Y0520240D02*
X0053756Y0520240D01*
X0063894Y0530378D01*
X0063894Y0591795D01*
X0075134Y0603035D01*
X0078283Y0603035D01*
X0076528Y0606795D02*
X0073894Y0606795D01*
X0061394Y0594295D01*
X0061394Y0537878D01*
X0053756Y0530240D01*
X0034071Y0530240D01*
X0034071Y0500240D02*
X0053756Y0500240D01*
X0068894Y0515378D01*
X0068894Y0584295D01*
X0077634Y0593035D01*
X0078283Y0593035D01*
X0079899Y0586935D02*
X0076534Y0586935D01*
X0071394Y0581795D01*
X0071394Y0507878D01*
X0053756Y0490240D01*
X0034071Y0490240D01*
X0034071Y0480240D02*
X0053756Y0480240D01*
X0073894Y0500378D01*
X0073894Y0579295D01*
X0077634Y0583035D01*
X0078283Y0583035D01*
X0080039Y0586795D02*
X0088894Y0586795D01*
X0088894Y0583646D01*
X0088283Y0583035D01*
X0080039Y0586795D02*
X0079899Y0586935D01*
X0076528Y0606795D02*
X0076668Y0606935D01*
X0098894Y0616795D02*
X0153894Y0616795D01*
X0158894Y0611795D01*
X0158894Y0609295D01*
X0201394Y0637720D02*
X0201394Y0653862D01*
X0208894Y0659295D02*
X0258894Y0609295D01*
X0123894Y0359295D02*
X0108894Y0359295D01*
X0102644Y0353045D01*
X0106394Y0349295D02*
X0121394Y0349295D01*
X0123894Y0351795D01*
X0118894Y0361795D02*
X0103559Y0361795D01*
X0090646Y0288980D02*
X0067535Y0288980D01*
X0062181Y0294335D01*
X0053756Y0294335D01*
X0034071Y0294335D01*
X0034071Y0284335D02*
X0053756Y0284335D01*
X0082791Y0284335D01*
X0086020Y0281106D01*
X0093520Y0286106D02*
X0090646Y0288980D01*
X0076394Y0273980D02*
X0054110Y0273980D01*
X0053756Y0274335D01*
X0034071Y0274335D01*
X0034071Y0264335D02*
X0053756Y0264335D01*
X0059248Y0264335D01*
X0061394Y0266480D01*
X0078894Y0266480D01*
X0053756Y0254335D02*
X0034071Y0254335D01*
X0034071Y0244335D02*
X0053756Y0244335D01*
X0053756Y0234335D02*
X0034071Y0234335D01*
X0034071Y0224335D02*
X0053756Y0224335D01*
M02*
