G75*
%MOIN*%
%OFA0B0*%
%FSLAX25Y25*%
%IPPOS*%
%LPD*%
%AMOC8*
5,1,8,0,0,1.08239X$1,22.5*
%
%ADD10C,0.01300*%
%ADD11C,0.01000*%
%ADD12C,0.00500*%
%ADD13C,0.00472*%
%ADD14C,0.00800*%
D10*
X0086599Y0743501D02*
X0085503Y0744598D01*
X0085503Y0746791D01*
X0086599Y0747888D01*
X0090986Y0747888D01*
X0092082Y0746791D01*
X0092082Y0744598D01*
X0090986Y0743501D01*
X0086599Y0743501D01*
X0085503Y0750752D02*
X0092082Y0755138D01*
X0092082Y0757778D02*
X0092082Y0759972D01*
X0092082Y0758875D02*
X0085503Y0758875D01*
X0085503Y0759972D02*
X0085503Y0757778D01*
X0087696Y0770086D02*
X0087696Y0773375D01*
X0088792Y0774472D01*
X0090986Y0774472D01*
X0092082Y0773375D01*
X0092082Y0770086D01*
X0093179Y0770086D02*
X0087696Y0770086D01*
X0093179Y0770086D02*
X0094275Y0771182D01*
X0094275Y0772279D01*
X0090986Y0777336D02*
X0088792Y0777336D01*
X0087696Y0778433D01*
X0087696Y0780626D01*
X0088792Y0781722D01*
X0090986Y0781722D01*
X0092082Y0780626D01*
X0092082Y0778433D01*
X0090986Y0777336D01*
X0092082Y0784363D02*
X0092082Y0786556D01*
X0092082Y0785459D02*
X0085503Y0785459D01*
X0085503Y0786556D01*
X0088792Y0789420D02*
X0087696Y0790516D01*
X0087696Y0792710D01*
X0089889Y0792710D02*
X0089889Y0789420D01*
X0088792Y0789420D02*
X0092082Y0789420D01*
X0092082Y0792710D01*
X0090986Y0793806D01*
X0089889Y0792710D01*
X0088792Y0796670D02*
X0087696Y0797767D01*
X0087696Y0801056D01*
X0092082Y0801056D01*
X0092082Y0803920D02*
X0087696Y0803920D01*
X0085503Y0806114D01*
X0087696Y0808307D01*
X0092082Y0808307D01*
X0088792Y0808307D02*
X0088792Y0803920D01*
X0088792Y0796670D02*
X0092082Y0796670D01*
X0101152Y0808056D02*
X0101152Y0814635D01*
X0101152Y0812442D02*
X0104442Y0812442D01*
X0105539Y0811345D01*
X0105539Y0809152D01*
X0104442Y0808056D01*
X0101152Y0808056D01*
X0108291Y0812442D02*
X0109387Y0812442D01*
X0111580Y0810249D01*
X0111580Y0808056D02*
X0111580Y0812442D01*
X0114444Y0811345D02*
X0114444Y0808056D01*
X0117734Y0808056D01*
X0118831Y0809152D01*
X0117734Y0810249D01*
X0114444Y0810249D01*
X0114444Y0811345D02*
X0115541Y0812442D01*
X0117734Y0812442D01*
X0121695Y0811345D02*
X0122791Y0812442D01*
X0124984Y0812442D01*
X0126081Y0811345D01*
X0126081Y0809152D01*
X0124984Y0808056D01*
X0122791Y0808056D01*
X0121695Y0809152D01*
X0121695Y0811345D01*
X0121963Y0819867D02*
X0119770Y0819867D01*
X0118674Y0820963D01*
X0118674Y0825350D01*
X0119770Y0826446D01*
X0121963Y0826446D01*
X0123060Y0825350D01*
X0123060Y0820963D01*
X0121963Y0819867D01*
X0125700Y0819867D02*
X0127894Y0819867D01*
X0126797Y0819867D02*
X0126797Y0826446D01*
X0127894Y0826446D02*
X0125700Y0826446D01*
X0130042Y0814635D02*
X0128945Y0813539D01*
X0128945Y0812442D01*
X0130042Y0811345D01*
X0133331Y0811345D01*
X0130042Y0811345D02*
X0128945Y0810249D01*
X0128945Y0809152D01*
X0130042Y0808056D01*
X0133331Y0808056D01*
X0133331Y0814635D01*
X0130042Y0814635D01*
X0138008Y0818770D02*
X0138008Y0824253D01*
X0141298Y0824253D01*
X0142394Y0823156D01*
X0142394Y0820963D01*
X0141298Y0819867D01*
X0138008Y0819867D01*
X0138008Y0818770D02*
X0139104Y0817673D01*
X0140201Y0817673D01*
X0144319Y0813539D02*
X0144319Y0809152D01*
X0143222Y0808056D01*
X0143222Y0812442D02*
X0145415Y0812442D01*
X0148279Y0812442D02*
X0148279Y0808056D01*
X0151569Y0808056D01*
X0152665Y0809152D01*
X0152665Y0812442D01*
X0155529Y0811345D02*
X0156626Y0812442D01*
X0158819Y0812442D01*
X0159916Y0811345D01*
X0159916Y0809152D01*
X0158819Y0808056D01*
X0156626Y0808056D01*
X0155529Y0809152D01*
X0155529Y0811345D01*
X0162668Y0812442D02*
X0165958Y0810249D01*
X0162668Y0808056D01*
X0165958Y0808056D02*
X0165958Y0814635D01*
X0168821Y0811345D02*
X0168821Y0808056D01*
X0172111Y0808056D01*
X0173208Y0809152D01*
X0172111Y0810249D01*
X0168821Y0810249D01*
X0168821Y0811345D02*
X0169918Y0812442D01*
X0172111Y0812442D01*
X0176072Y0811345D02*
X0176072Y0810249D01*
X0180458Y0810249D01*
X0180458Y0811345D02*
X0179362Y0812442D01*
X0177168Y0812442D01*
X0176072Y0811345D01*
X0177168Y0808056D02*
X0179362Y0808056D01*
X0180458Y0809152D01*
X0180458Y0811345D01*
X0183210Y0812442D02*
X0184307Y0812442D01*
X0186500Y0810249D01*
X0186500Y0808056D02*
X0186500Y0812442D01*
X0189364Y0812442D02*
X0190461Y0811345D01*
X0193750Y0811345D01*
X0190461Y0811345D02*
X0189364Y0810249D01*
X0189364Y0809152D01*
X0190461Y0808056D01*
X0193750Y0808056D01*
X0193750Y0814635D01*
X0190461Y0814635D01*
X0189364Y0813539D01*
X0189364Y0812442D01*
X0176229Y0819867D02*
X0176229Y0824253D01*
X0174036Y0826446D01*
X0171842Y0824253D01*
X0171842Y0819867D01*
X0168979Y0819867D02*
X0168979Y0824253D01*
X0165689Y0824253D01*
X0164592Y0823156D01*
X0164592Y0819867D01*
X0161728Y0820963D02*
X0160632Y0822060D01*
X0157342Y0822060D01*
X0157342Y0823156D02*
X0157342Y0819867D01*
X0160632Y0819867D01*
X0161728Y0820963D01*
X0160632Y0824253D02*
X0158438Y0824253D01*
X0157342Y0823156D01*
X0154478Y0819867D02*
X0152285Y0819867D01*
X0153381Y0819867D02*
X0153381Y0826446D01*
X0154478Y0826446D01*
X0149644Y0823156D02*
X0149644Y0820963D01*
X0148548Y0819867D01*
X0146355Y0819867D01*
X0145258Y0820963D01*
X0145258Y0823156D01*
X0146355Y0824253D01*
X0148548Y0824253D01*
X0149644Y0823156D01*
X0171842Y0823156D02*
X0176229Y0823156D01*
D11*
X0207460Y0816917D02*
X0208081Y0817539D01*
X0209324Y0817539D01*
X0209945Y0816917D01*
X0207460Y0816917D02*
X0207460Y0816296D01*
X0209945Y0813811D01*
X0207460Y0813811D01*
X0211499Y0813811D02*
X0212120Y0813811D01*
X0212120Y0814432D01*
X0211499Y0814432D01*
X0211499Y0813811D01*
X0213985Y0813811D02*
X0216470Y0813811D01*
X0215228Y0813811D02*
X0215228Y0817539D01*
X0216470Y0816296D01*
X0218335Y0816296D02*
X0219578Y0813811D01*
X0220820Y0816296D01*
X0220666Y0820898D02*
X0220666Y0824625D01*
X0221908Y0823383D01*
X0223462Y0821519D02*
X0223462Y0820898D01*
X0224083Y0820898D01*
X0224083Y0821519D01*
X0223462Y0821519D01*
X0221908Y0820898D02*
X0219423Y0820898D01*
X0225948Y0820898D02*
X0228433Y0820898D01*
X0227191Y0820898D02*
X0227191Y0824625D01*
X0228433Y0823383D01*
X0229521Y0817539D02*
X0229521Y0813811D01*
X0227036Y0813811D01*
X0229573Y0810452D02*
X0229573Y0806724D01*
X0232058Y0810452D01*
X0232058Y0806724D01*
X0233924Y0808588D02*
X0234545Y0807967D01*
X0236409Y0807967D01*
X0236409Y0806724D02*
X0236409Y0810452D01*
X0234545Y0810452D01*
X0233924Y0809831D01*
X0233924Y0808588D01*
X0238274Y0810452D02*
X0239516Y0810452D01*
X0238895Y0810452D02*
X0238895Y0807346D01*
X0239516Y0806724D01*
X0240138Y0806724D01*
X0240759Y0807346D01*
X0240863Y0803365D02*
X0239620Y0803365D01*
X0238999Y0802744D01*
X0238999Y0802123D01*
X0241484Y0799638D01*
X0238999Y0799638D01*
X0237134Y0800259D02*
X0234649Y0802744D01*
X0234649Y0800259D01*
X0235270Y0799638D01*
X0236512Y0799638D01*
X0237134Y0800259D01*
X0237134Y0802744D01*
X0236512Y0803365D01*
X0235270Y0803365D01*
X0234649Y0802744D01*
X0232783Y0802123D02*
X0231541Y0803365D01*
X0231541Y0799638D01*
X0232783Y0799638D02*
X0230298Y0799638D01*
X0228433Y0800259D02*
X0227812Y0799638D01*
X0226570Y0799638D01*
X0225948Y0800259D01*
X0225948Y0802744D01*
X0226570Y0803365D01*
X0227812Y0803365D01*
X0228433Y0802744D01*
X0228433Y0802123D01*
X0227812Y0801502D01*
X0225948Y0801502D01*
X0227708Y0805482D02*
X0226466Y0806724D01*
X0227087Y0806724D01*
X0227087Y0807346D01*
X0226466Y0807346D01*
X0226466Y0806724D01*
X0220458Y0806724D02*
X0220458Y0810452D01*
X0219215Y0809209D01*
X0217973Y0810452D01*
X0217973Y0806724D01*
X0216108Y0806724D02*
X0214865Y0806724D01*
X0215487Y0806724D02*
X0215487Y0810452D01*
X0216108Y0810452D02*
X0214865Y0810452D01*
X0213208Y0810452D02*
X0210723Y0810452D01*
X0211965Y0810452D02*
X0211965Y0806724D01*
X0231386Y0813811D02*
X0231386Y0817539D01*
X0231386Y0815675D02*
X0233871Y0815675D01*
X0233871Y0813811D02*
X0233871Y0817539D01*
X0235736Y0816917D02*
X0235736Y0814432D01*
X0236357Y0813811D01*
X0237600Y0813811D01*
X0238221Y0814432D01*
X0238221Y0816917D01*
X0237600Y0817539D01*
X0236357Y0817539D01*
X0235736Y0816917D01*
X0234959Y0820898D02*
X0234337Y0820898D01*
X0234337Y0821519D01*
X0234959Y0821519D01*
X0234959Y0820898D01*
X0238066Y0820898D02*
X0236824Y0823383D01*
X0239309Y0823383D02*
X0238066Y0820898D01*
X0241174Y0822140D02*
X0243659Y0822140D01*
X0243659Y0821519D02*
X0243659Y0822761D01*
X0243038Y0823383D01*
X0241795Y0823383D01*
X0241174Y0822761D01*
X0241174Y0822140D01*
X0241795Y0820898D02*
X0243038Y0820898D01*
X0243659Y0821519D01*
X0245524Y0820898D02*
X0246767Y0822140D01*
X0246145Y0822140D02*
X0248009Y0822140D01*
X0248009Y0820898D02*
X0248009Y0824625D01*
X0246145Y0824625D01*
X0245524Y0824004D01*
X0245524Y0822761D01*
X0246145Y0822140D01*
X0246922Y0817539D02*
X0244436Y0813811D01*
X0244436Y0817539D01*
X0246922Y0817539D02*
X0246922Y0813811D01*
X0248787Y0813811D02*
X0250029Y0815054D01*
X0249408Y0815054D02*
X0251272Y0815054D01*
X0251272Y0813811D02*
X0251272Y0817539D01*
X0249408Y0817539D01*
X0248787Y0816917D01*
X0248787Y0815675D01*
X0249408Y0815054D01*
X0253137Y0813811D02*
X0255622Y0813811D01*
X0255622Y0817539D01*
X0253137Y0817539D01*
X0254379Y0815675D02*
X0255622Y0815675D01*
X0257487Y0816917D02*
X0258108Y0817539D01*
X0259351Y0817539D01*
X0259972Y0816917D01*
X0259972Y0814432D01*
X0259351Y0813811D01*
X0258108Y0813811D01*
X0257487Y0814432D01*
X0255467Y0810452D02*
X0254224Y0810452D01*
X0254846Y0810452D02*
X0254846Y0807346D01*
X0255467Y0806724D01*
X0256088Y0806724D01*
X0256709Y0807346D01*
X0252359Y0807967D02*
X0251117Y0806724D01*
X0249874Y0807967D01*
X0249874Y0810452D01*
X0252359Y0810452D02*
X0252359Y0807967D01*
X0248009Y0805482D02*
X0246767Y0806724D01*
X0247388Y0806724D01*
X0247388Y0807346D01*
X0246767Y0807346D01*
X0246767Y0806724D01*
X0241484Y0802744D02*
X0240863Y0803365D01*
D12*
X0027772Y0051106D02*
X0016945Y0051106D01*
X0016945Y0065280D01*
X0027772Y0065280D01*
X0028559Y0060555D02*
X0028559Y0055831D01*
X0033283Y0051106D02*
X0038008Y0051106D01*
X0042732Y0055831D02*
X0042732Y0060555D01*
X0038008Y0065280D02*
X0033283Y0065280D01*
X0033283Y0070791D02*
X0038008Y0070791D01*
X0042732Y0075516D02*
X0042732Y0080240D01*
X0038008Y0084965D02*
X0033283Y0084965D01*
X0027772Y0084965D02*
X0016945Y0084965D01*
X0016945Y0070791D01*
X0027772Y0070791D01*
X0028559Y0075516D02*
X0028559Y0080240D01*
X0027772Y0090476D02*
X0016945Y0090476D01*
X0016945Y0104650D01*
X0027772Y0104650D01*
X0028559Y0099925D02*
X0028559Y0095201D01*
X0033283Y0090476D02*
X0038008Y0090476D01*
X0042732Y0095201D02*
X0042732Y0099925D01*
X0038008Y0104650D02*
X0033283Y0104650D01*
X0033283Y0110161D02*
X0038008Y0110161D01*
X0042732Y0114886D02*
X0042732Y0119610D01*
X0038008Y0124335D02*
X0033283Y0124335D01*
X0027772Y0124335D02*
X0016945Y0124335D01*
X0016945Y0110161D01*
X0027772Y0110161D01*
X0028559Y0114886D02*
X0028559Y0119610D01*
X0028165Y0726303D02*
X0028165Y0824728D01*
D13*
X0194744Y0791969D02*
X0194744Y0761539D01*
X0208043Y0761539D02*
X0208043Y0791969D01*
X0194744Y0791969D01*
X0194744Y0693543D02*
X0208043Y0693543D01*
X0208043Y0663114D01*
X0194744Y0663114D02*
X0194744Y0693543D01*
X0194744Y0595118D02*
X0208043Y0595118D01*
X0208043Y0564689D01*
X0194744Y0564689D02*
X0194744Y0595118D01*
X0194744Y0496693D02*
X0208043Y0496693D01*
X0208043Y0466264D01*
X0194744Y0466264D02*
X0194744Y0496693D01*
X0194744Y0358898D02*
X0208043Y0358898D01*
X0208043Y0328469D01*
X0194744Y0328469D02*
X0194744Y0358898D01*
X0194744Y0260472D02*
X0208043Y0260472D01*
X0208043Y0230043D01*
X0194744Y0230043D02*
X0194744Y0260472D01*
X0293169Y0260472D02*
X0293169Y0230043D01*
X0306469Y0230043D02*
X0306469Y0260472D01*
X0293169Y0260472D01*
X0293169Y0328469D02*
X0293169Y0358898D01*
X0306469Y0358898D01*
X0306469Y0328469D01*
X0391594Y0328469D02*
X0391594Y0358898D01*
X0404894Y0358898D01*
X0404894Y0328469D01*
X0404894Y0260472D02*
X0391594Y0260472D01*
X0391594Y0230043D01*
X0404894Y0230043D02*
X0404894Y0260472D01*
X0490020Y0260472D02*
X0490020Y0230043D01*
X0503319Y0230043D02*
X0503319Y0260472D01*
X0490020Y0260472D01*
X0490020Y0328469D02*
X0490020Y0358898D01*
X0503319Y0358898D01*
X0503319Y0328469D01*
X0503319Y0466264D02*
X0503319Y0496693D01*
X0490020Y0496693D01*
X0490020Y0466264D01*
X0490020Y0564689D02*
X0490020Y0595118D01*
X0503319Y0595118D01*
X0503319Y0564689D01*
X0503319Y0663114D02*
X0503319Y0693543D01*
X0490020Y0693543D01*
X0490020Y0663114D01*
X0490020Y0761539D02*
X0490020Y0791969D01*
X0503319Y0791969D01*
X0503319Y0761539D01*
X0404894Y0761539D02*
X0404894Y0791969D01*
X0391594Y0791969D01*
X0391594Y0761539D01*
X0391594Y0693543D02*
X0404894Y0693543D01*
X0404894Y0663114D01*
X0391594Y0663114D02*
X0391594Y0693543D01*
X0391594Y0595118D02*
X0404894Y0595118D01*
X0404894Y0564689D01*
X0391594Y0564689D02*
X0391594Y0595118D01*
X0391594Y0496693D02*
X0404894Y0496693D01*
X0404894Y0466264D01*
X0391594Y0466264D02*
X0391594Y0496693D01*
X0306469Y0496693D02*
X0306469Y0466264D01*
X0293169Y0466264D02*
X0293169Y0496693D01*
X0306469Y0496693D01*
X0306469Y0564689D02*
X0306469Y0595118D01*
X0293169Y0595118D01*
X0293169Y0564689D01*
X0293169Y0663114D02*
X0293169Y0693543D01*
X0306469Y0693543D01*
X0306469Y0663114D01*
X0306469Y0761539D02*
X0306469Y0791969D01*
X0293169Y0791969D01*
X0293169Y0761539D01*
D14*
X0060843Y0210358D02*
X0038008Y0210358D01*
X0024228Y0210358D02*
X0024228Y0185555D01*
X0023835Y0188508D02*
X0014386Y0188508D01*
X0014386Y0207406D01*
X0023835Y0207406D01*
X0038008Y0185555D02*
X0060843Y0185555D01*
X0068717Y0189492D02*
X0068717Y0206421D01*
M02*
