G75*
%MOIN*%
%OFA0B0*%
%FSLAX25Y25*%
%IPPOS*%
%LPD*%
%AMOC8*
5,1,8,0,0,1.08239X$1,22.5*
%
%ADD10C,0.00600*%
%ADD11C,0.00000*%
D10*
X0024228Y0007799D02*
X0024228Y0873941D01*
X0555724Y0873941D01*
X0555724Y0007799D01*
X0024228Y0007799D01*
D11*
X0037023Y0027484D02*
X0037025Y0027653D01*
X0037031Y0027822D01*
X0037042Y0027991D01*
X0037056Y0028159D01*
X0037075Y0028327D01*
X0037098Y0028495D01*
X0037124Y0028662D01*
X0037155Y0028828D01*
X0037190Y0028994D01*
X0037229Y0029158D01*
X0037273Y0029322D01*
X0037320Y0029484D01*
X0037371Y0029645D01*
X0037426Y0029805D01*
X0037485Y0029964D01*
X0037547Y0030121D01*
X0037614Y0030276D01*
X0037685Y0030430D01*
X0037759Y0030582D01*
X0037837Y0030732D01*
X0037918Y0030880D01*
X0038003Y0031026D01*
X0038092Y0031170D01*
X0038184Y0031312D01*
X0038280Y0031451D01*
X0038379Y0031588D01*
X0038481Y0031723D01*
X0038587Y0031855D01*
X0038696Y0031984D01*
X0038808Y0032111D01*
X0038923Y0032235D01*
X0039041Y0032356D01*
X0039162Y0032474D01*
X0039286Y0032589D01*
X0039413Y0032701D01*
X0039542Y0032810D01*
X0039674Y0032916D01*
X0039809Y0033018D01*
X0039946Y0033117D01*
X0040085Y0033213D01*
X0040227Y0033305D01*
X0040371Y0033394D01*
X0040517Y0033479D01*
X0040665Y0033560D01*
X0040815Y0033638D01*
X0040967Y0033712D01*
X0041121Y0033783D01*
X0041276Y0033850D01*
X0041433Y0033912D01*
X0041592Y0033971D01*
X0041752Y0034026D01*
X0041913Y0034077D01*
X0042075Y0034124D01*
X0042239Y0034168D01*
X0042403Y0034207D01*
X0042569Y0034242D01*
X0042735Y0034273D01*
X0042902Y0034299D01*
X0043070Y0034322D01*
X0043238Y0034341D01*
X0043406Y0034355D01*
X0043575Y0034366D01*
X0043744Y0034372D01*
X0043913Y0034374D01*
X0044082Y0034372D01*
X0044251Y0034366D01*
X0044420Y0034355D01*
X0044588Y0034341D01*
X0044756Y0034322D01*
X0044924Y0034299D01*
X0045091Y0034273D01*
X0045257Y0034242D01*
X0045423Y0034207D01*
X0045587Y0034168D01*
X0045751Y0034124D01*
X0045913Y0034077D01*
X0046074Y0034026D01*
X0046234Y0033971D01*
X0046393Y0033912D01*
X0046550Y0033850D01*
X0046705Y0033783D01*
X0046859Y0033712D01*
X0047011Y0033638D01*
X0047161Y0033560D01*
X0047309Y0033479D01*
X0047455Y0033394D01*
X0047599Y0033305D01*
X0047741Y0033213D01*
X0047880Y0033117D01*
X0048017Y0033018D01*
X0048152Y0032916D01*
X0048284Y0032810D01*
X0048413Y0032701D01*
X0048540Y0032589D01*
X0048664Y0032474D01*
X0048785Y0032356D01*
X0048903Y0032235D01*
X0049018Y0032111D01*
X0049130Y0031984D01*
X0049239Y0031855D01*
X0049345Y0031723D01*
X0049447Y0031588D01*
X0049546Y0031451D01*
X0049642Y0031312D01*
X0049734Y0031170D01*
X0049823Y0031026D01*
X0049908Y0030880D01*
X0049989Y0030732D01*
X0050067Y0030582D01*
X0050141Y0030430D01*
X0050212Y0030276D01*
X0050279Y0030121D01*
X0050341Y0029964D01*
X0050400Y0029805D01*
X0050455Y0029645D01*
X0050506Y0029484D01*
X0050553Y0029322D01*
X0050597Y0029158D01*
X0050636Y0028994D01*
X0050671Y0028828D01*
X0050702Y0028662D01*
X0050728Y0028495D01*
X0050751Y0028327D01*
X0050770Y0028159D01*
X0050784Y0027991D01*
X0050795Y0027822D01*
X0050801Y0027653D01*
X0050803Y0027484D01*
X0050801Y0027315D01*
X0050795Y0027146D01*
X0050784Y0026977D01*
X0050770Y0026809D01*
X0050751Y0026641D01*
X0050728Y0026473D01*
X0050702Y0026306D01*
X0050671Y0026140D01*
X0050636Y0025974D01*
X0050597Y0025810D01*
X0050553Y0025646D01*
X0050506Y0025484D01*
X0050455Y0025323D01*
X0050400Y0025163D01*
X0050341Y0025004D01*
X0050279Y0024847D01*
X0050212Y0024692D01*
X0050141Y0024538D01*
X0050067Y0024386D01*
X0049989Y0024236D01*
X0049908Y0024088D01*
X0049823Y0023942D01*
X0049734Y0023798D01*
X0049642Y0023656D01*
X0049546Y0023517D01*
X0049447Y0023380D01*
X0049345Y0023245D01*
X0049239Y0023113D01*
X0049130Y0022984D01*
X0049018Y0022857D01*
X0048903Y0022733D01*
X0048785Y0022612D01*
X0048664Y0022494D01*
X0048540Y0022379D01*
X0048413Y0022267D01*
X0048284Y0022158D01*
X0048152Y0022052D01*
X0048017Y0021950D01*
X0047880Y0021851D01*
X0047741Y0021755D01*
X0047599Y0021663D01*
X0047455Y0021574D01*
X0047309Y0021489D01*
X0047161Y0021408D01*
X0047011Y0021330D01*
X0046859Y0021256D01*
X0046705Y0021185D01*
X0046550Y0021118D01*
X0046393Y0021056D01*
X0046234Y0020997D01*
X0046074Y0020942D01*
X0045913Y0020891D01*
X0045751Y0020844D01*
X0045587Y0020800D01*
X0045423Y0020761D01*
X0045257Y0020726D01*
X0045091Y0020695D01*
X0044924Y0020669D01*
X0044756Y0020646D01*
X0044588Y0020627D01*
X0044420Y0020613D01*
X0044251Y0020602D01*
X0044082Y0020596D01*
X0043913Y0020594D01*
X0043744Y0020596D01*
X0043575Y0020602D01*
X0043406Y0020613D01*
X0043238Y0020627D01*
X0043070Y0020646D01*
X0042902Y0020669D01*
X0042735Y0020695D01*
X0042569Y0020726D01*
X0042403Y0020761D01*
X0042239Y0020800D01*
X0042075Y0020844D01*
X0041913Y0020891D01*
X0041752Y0020942D01*
X0041592Y0020997D01*
X0041433Y0021056D01*
X0041276Y0021118D01*
X0041121Y0021185D01*
X0040967Y0021256D01*
X0040815Y0021330D01*
X0040665Y0021408D01*
X0040517Y0021489D01*
X0040371Y0021574D01*
X0040227Y0021663D01*
X0040085Y0021755D01*
X0039946Y0021851D01*
X0039809Y0021950D01*
X0039674Y0022052D01*
X0039542Y0022158D01*
X0039413Y0022267D01*
X0039286Y0022379D01*
X0039162Y0022494D01*
X0039041Y0022612D01*
X0038923Y0022733D01*
X0038808Y0022857D01*
X0038696Y0022984D01*
X0038587Y0023113D01*
X0038481Y0023245D01*
X0038379Y0023380D01*
X0038280Y0023517D01*
X0038184Y0023656D01*
X0038092Y0023798D01*
X0038003Y0023942D01*
X0037918Y0024088D01*
X0037837Y0024236D01*
X0037759Y0024386D01*
X0037685Y0024538D01*
X0037614Y0024692D01*
X0037547Y0024847D01*
X0037485Y0025004D01*
X0037426Y0025163D01*
X0037371Y0025323D01*
X0037320Y0025484D01*
X0037273Y0025646D01*
X0037229Y0025810D01*
X0037190Y0025974D01*
X0037155Y0026140D01*
X0037124Y0026306D01*
X0037098Y0026473D01*
X0037075Y0026641D01*
X0037056Y0026809D01*
X0037042Y0026977D01*
X0037031Y0027146D01*
X0037025Y0027315D01*
X0037023Y0027484D01*
X0083874Y0034571D02*
X0083878Y0034885D01*
X0083889Y0035199D01*
X0083909Y0035512D01*
X0083936Y0035825D01*
X0083970Y0036137D01*
X0084012Y0036448D01*
X0084062Y0036758D01*
X0084120Y0037067D01*
X0084185Y0037374D01*
X0084257Y0037680D01*
X0084337Y0037984D01*
X0084425Y0038285D01*
X0084520Y0038585D01*
X0084622Y0038882D01*
X0084731Y0039176D01*
X0084848Y0039467D01*
X0084972Y0039756D01*
X0085102Y0040042D01*
X0085240Y0040324D01*
X0085385Y0040603D01*
X0085536Y0040878D01*
X0085694Y0041149D01*
X0085859Y0041416D01*
X0086030Y0041680D01*
X0086208Y0041938D01*
X0086392Y0042193D01*
X0086582Y0042443D01*
X0086778Y0042688D01*
X0086981Y0042928D01*
X0087189Y0043164D01*
X0087402Y0043394D01*
X0087622Y0043618D01*
X0087846Y0043838D01*
X0088076Y0044051D01*
X0088312Y0044259D01*
X0088552Y0044462D01*
X0088797Y0044658D01*
X0089047Y0044848D01*
X0089302Y0045032D01*
X0089560Y0045210D01*
X0089824Y0045381D01*
X0090091Y0045546D01*
X0090362Y0045704D01*
X0090637Y0045855D01*
X0090916Y0046000D01*
X0091198Y0046138D01*
X0091484Y0046268D01*
X0091773Y0046392D01*
X0092064Y0046509D01*
X0092358Y0046618D01*
X0092655Y0046720D01*
X0092955Y0046815D01*
X0093256Y0046903D01*
X0093560Y0046983D01*
X0093866Y0047055D01*
X0094173Y0047120D01*
X0094482Y0047178D01*
X0094792Y0047228D01*
X0095103Y0047270D01*
X0095415Y0047304D01*
X0095728Y0047331D01*
X0096041Y0047351D01*
X0096355Y0047362D01*
X0096669Y0047366D01*
X0096983Y0047362D01*
X0097297Y0047351D01*
X0097610Y0047331D01*
X0097923Y0047304D01*
X0098235Y0047270D01*
X0098546Y0047228D01*
X0098856Y0047178D01*
X0099165Y0047120D01*
X0099472Y0047055D01*
X0099778Y0046983D01*
X0100082Y0046903D01*
X0100383Y0046815D01*
X0100683Y0046720D01*
X0100980Y0046618D01*
X0101274Y0046509D01*
X0101565Y0046392D01*
X0101854Y0046268D01*
X0102140Y0046138D01*
X0102422Y0046000D01*
X0102701Y0045855D01*
X0102976Y0045704D01*
X0103247Y0045546D01*
X0103514Y0045381D01*
X0103778Y0045210D01*
X0104036Y0045032D01*
X0104291Y0044848D01*
X0104541Y0044658D01*
X0104786Y0044462D01*
X0105026Y0044259D01*
X0105262Y0044051D01*
X0105492Y0043838D01*
X0105716Y0043618D01*
X0105936Y0043394D01*
X0106149Y0043164D01*
X0106357Y0042928D01*
X0106560Y0042688D01*
X0106756Y0042443D01*
X0106946Y0042193D01*
X0107130Y0041938D01*
X0107308Y0041680D01*
X0107479Y0041416D01*
X0107644Y0041149D01*
X0107802Y0040878D01*
X0107953Y0040603D01*
X0108098Y0040324D01*
X0108236Y0040042D01*
X0108366Y0039756D01*
X0108490Y0039467D01*
X0108607Y0039176D01*
X0108716Y0038882D01*
X0108818Y0038585D01*
X0108913Y0038285D01*
X0109001Y0037984D01*
X0109081Y0037680D01*
X0109153Y0037374D01*
X0109218Y0037067D01*
X0109276Y0036758D01*
X0109326Y0036448D01*
X0109368Y0036137D01*
X0109402Y0035825D01*
X0109429Y0035512D01*
X0109449Y0035199D01*
X0109460Y0034885D01*
X0109464Y0034571D01*
X0109460Y0034257D01*
X0109449Y0033943D01*
X0109429Y0033630D01*
X0109402Y0033317D01*
X0109368Y0033005D01*
X0109326Y0032694D01*
X0109276Y0032384D01*
X0109218Y0032075D01*
X0109153Y0031768D01*
X0109081Y0031462D01*
X0109001Y0031158D01*
X0108913Y0030857D01*
X0108818Y0030557D01*
X0108716Y0030260D01*
X0108607Y0029966D01*
X0108490Y0029675D01*
X0108366Y0029386D01*
X0108236Y0029100D01*
X0108098Y0028818D01*
X0107953Y0028539D01*
X0107802Y0028264D01*
X0107644Y0027993D01*
X0107479Y0027726D01*
X0107308Y0027462D01*
X0107130Y0027204D01*
X0106946Y0026949D01*
X0106756Y0026699D01*
X0106560Y0026454D01*
X0106357Y0026214D01*
X0106149Y0025978D01*
X0105936Y0025748D01*
X0105716Y0025524D01*
X0105492Y0025304D01*
X0105262Y0025091D01*
X0105026Y0024883D01*
X0104786Y0024680D01*
X0104541Y0024484D01*
X0104291Y0024294D01*
X0104036Y0024110D01*
X0103778Y0023932D01*
X0103514Y0023761D01*
X0103247Y0023596D01*
X0102976Y0023438D01*
X0102701Y0023287D01*
X0102422Y0023142D01*
X0102140Y0023004D01*
X0101854Y0022874D01*
X0101565Y0022750D01*
X0101274Y0022633D01*
X0100980Y0022524D01*
X0100683Y0022422D01*
X0100383Y0022327D01*
X0100082Y0022239D01*
X0099778Y0022159D01*
X0099472Y0022087D01*
X0099165Y0022022D01*
X0098856Y0021964D01*
X0098546Y0021914D01*
X0098235Y0021872D01*
X0097923Y0021838D01*
X0097610Y0021811D01*
X0097297Y0021791D01*
X0096983Y0021780D01*
X0096669Y0021776D01*
X0096355Y0021780D01*
X0096041Y0021791D01*
X0095728Y0021811D01*
X0095415Y0021838D01*
X0095103Y0021872D01*
X0094792Y0021914D01*
X0094482Y0021964D01*
X0094173Y0022022D01*
X0093866Y0022087D01*
X0093560Y0022159D01*
X0093256Y0022239D01*
X0092955Y0022327D01*
X0092655Y0022422D01*
X0092358Y0022524D01*
X0092064Y0022633D01*
X0091773Y0022750D01*
X0091484Y0022874D01*
X0091198Y0023004D01*
X0090916Y0023142D01*
X0090637Y0023287D01*
X0090362Y0023438D01*
X0090091Y0023596D01*
X0089824Y0023761D01*
X0089560Y0023932D01*
X0089302Y0024110D01*
X0089047Y0024294D01*
X0088797Y0024484D01*
X0088552Y0024680D01*
X0088312Y0024883D01*
X0088076Y0025091D01*
X0087846Y0025304D01*
X0087622Y0025524D01*
X0087402Y0025748D01*
X0087189Y0025978D01*
X0086981Y0026214D01*
X0086778Y0026454D01*
X0086582Y0026699D01*
X0086392Y0026949D01*
X0086208Y0027204D01*
X0086030Y0027462D01*
X0085859Y0027726D01*
X0085694Y0027993D01*
X0085536Y0028264D01*
X0085385Y0028539D01*
X0085240Y0028818D01*
X0085102Y0029100D01*
X0084972Y0029386D01*
X0084848Y0029675D01*
X0084731Y0029966D01*
X0084622Y0030260D01*
X0084520Y0030557D01*
X0084425Y0030857D01*
X0084337Y0031158D01*
X0084257Y0031462D01*
X0084185Y0031768D01*
X0084120Y0032075D01*
X0084062Y0032384D01*
X0084012Y0032694D01*
X0083970Y0033005D01*
X0083936Y0033317D01*
X0083909Y0033630D01*
X0083889Y0033943D01*
X0083878Y0034257D01*
X0083874Y0034571D01*
X0155134Y0165280D02*
X0155136Y0165449D01*
X0155142Y0165618D01*
X0155153Y0165787D01*
X0155167Y0165955D01*
X0155186Y0166123D01*
X0155209Y0166291D01*
X0155235Y0166458D01*
X0155266Y0166624D01*
X0155301Y0166790D01*
X0155340Y0166954D01*
X0155384Y0167118D01*
X0155431Y0167280D01*
X0155482Y0167441D01*
X0155537Y0167601D01*
X0155596Y0167760D01*
X0155658Y0167917D01*
X0155725Y0168072D01*
X0155796Y0168226D01*
X0155870Y0168378D01*
X0155948Y0168528D01*
X0156029Y0168676D01*
X0156114Y0168822D01*
X0156203Y0168966D01*
X0156295Y0169108D01*
X0156391Y0169247D01*
X0156490Y0169384D01*
X0156592Y0169519D01*
X0156698Y0169651D01*
X0156807Y0169780D01*
X0156919Y0169907D01*
X0157034Y0170031D01*
X0157152Y0170152D01*
X0157273Y0170270D01*
X0157397Y0170385D01*
X0157524Y0170497D01*
X0157653Y0170606D01*
X0157785Y0170712D01*
X0157920Y0170814D01*
X0158057Y0170913D01*
X0158196Y0171009D01*
X0158338Y0171101D01*
X0158482Y0171190D01*
X0158628Y0171275D01*
X0158776Y0171356D01*
X0158926Y0171434D01*
X0159078Y0171508D01*
X0159232Y0171579D01*
X0159387Y0171646D01*
X0159544Y0171708D01*
X0159703Y0171767D01*
X0159863Y0171822D01*
X0160024Y0171873D01*
X0160186Y0171920D01*
X0160350Y0171964D01*
X0160514Y0172003D01*
X0160680Y0172038D01*
X0160846Y0172069D01*
X0161013Y0172095D01*
X0161181Y0172118D01*
X0161349Y0172137D01*
X0161517Y0172151D01*
X0161686Y0172162D01*
X0161855Y0172168D01*
X0162024Y0172170D01*
X0162193Y0172168D01*
X0162362Y0172162D01*
X0162531Y0172151D01*
X0162699Y0172137D01*
X0162867Y0172118D01*
X0163035Y0172095D01*
X0163202Y0172069D01*
X0163368Y0172038D01*
X0163534Y0172003D01*
X0163698Y0171964D01*
X0163862Y0171920D01*
X0164024Y0171873D01*
X0164185Y0171822D01*
X0164345Y0171767D01*
X0164504Y0171708D01*
X0164661Y0171646D01*
X0164816Y0171579D01*
X0164970Y0171508D01*
X0165122Y0171434D01*
X0165272Y0171356D01*
X0165420Y0171275D01*
X0165566Y0171190D01*
X0165710Y0171101D01*
X0165852Y0171009D01*
X0165991Y0170913D01*
X0166128Y0170814D01*
X0166263Y0170712D01*
X0166395Y0170606D01*
X0166524Y0170497D01*
X0166651Y0170385D01*
X0166775Y0170270D01*
X0166896Y0170152D01*
X0167014Y0170031D01*
X0167129Y0169907D01*
X0167241Y0169780D01*
X0167350Y0169651D01*
X0167456Y0169519D01*
X0167558Y0169384D01*
X0167657Y0169247D01*
X0167753Y0169108D01*
X0167845Y0168966D01*
X0167934Y0168822D01*
X0168019Y0168676D01*
X0168100Y0168528D01*
X0168178Y0168378D01*
X0168252Y0168226D01*
X0168323Y0168072D01*
X0168390Y0167917D01*
X0168452Y0167760D01*
X0168511Y0167601D01*
X0168566Y0167441D01*
X0168617Y0167280D01*
X0168664Y0167118D01*
X0168708Y0166954D01*
X0168747Y0166790D01*
X0168782Y0166624D01*
X0168813Y0166458D01*
X0168839Y0166291D01*
X0168862Y0166123D01*
X0168881Y0165955D01*
X0168895Y0165787D01*
X0168906Y0165618D01*
X0168912Y0165449D01*
X0168914Y0165280D01*
X0168912Y0165111D01*
X0168906Y0164942D01*
X0168895Y0164773D01*
X0168881Y0164605D01*
X0168862Y0164437D01*
X0168839Y0164269D01*
X0168813Y0164102D01*
X0168782Y0163936D01*
X0168747Y0163770D01*
X0168708Y0163606D01*
X0168664Y0163442D01*
X0168617Y0163280D01*
X0168566Y0163119D01*
X0168511Y0162959D01*
X0168452Y0162800D01*
X0168390Y0162643D01*
X0168323Y0162488D01*
X0168252Y0162334D01*
X0168178Y0162182D01*
X0168100Y0162032D01*
X0168019Y0161884D01*
X0167934Y0161738D01*
X0167845Y0161594D01*
X0167753Y0161452D01*
X0167657Y0161313D01*
X0167558Y0161176D01*
X0167456Y0161041D01*
X0167350Y0160909D01*
X0167241Y0160780D01*
X0167129Y0160653D01*
X0167014Y0160529D01*
X0166896Y0160408D01*
X0166775Y0160290D01*
X0166651Y0160175D01*
X0166524Y0160063D01*
X0166395Y0159954D01*
X0166263Y0159848D01*
X0166128Y0159746D01*
X0165991Y0159647D01*
X0165852Y0159551D01*
X0165710Y0159459D01*
X0165566Y0159370D01*
X0165420Y0159285D01*
X0165272Y0159204D01*
X0165122Y0159126D01*
X0164970Y0159052D01*
X0164816Y0158981D01*
X0164661Y0158914D01*
X0164504Y0158852D01*
X0164345Y0158793D01*
X0164185Y0158738D01*
X0164024Y0158687D01*
X0163862Y0158640D01*
X0163698Y0158596D01*
X0163534Y0158557D01*
X0163368Y0158522D01*
X0163202Y0158491D01*
X0163035Y0158465D01*
X0162867Y0158442D01*
X0162699Y0158423D01*
X0162531Y0158409D01*
X0162362Y0158398D01*
X0162193Y0158392D01*
X0162024Y0158390D01*
X0161855Y0158392D01*
X0161686Y0158398D01*
X0161517Y0158409D01*
X0161349Y0158423D01*
X0161181Y0158442D01*
X0161013Y0158465D01*
X0160846Y0158491D01*
X0160680Y0158522D01*
X0160514Y0158557D01*
X0160350Y0158596D01*
X0160186Y0158640D01*
X0160024Y0158687D01*
X0159863Y0158738D01*
X0159703Y0158793D01*
X0159544Y0158852D01*
X0159387Y0158914D01*
X0159232Y0158981D01*
X0159078Y0159052D01*
X0158926Y0159126D01*
X0158776Y0159204D01*
X0158628Y0159285D01*
X0158482Y0159370D01*
X0158338Y0159459D01*
X0158196Y0159551D01*
X0158057Y0159647D01*
X0157920Y0159746D01*
X0157785Y0159848D01*
X0157653Y0159954D01*
X0157524Y0160063D01*
X0157397Y0160175D01*
X0157273Y0160290D01*
X0157152Y0160408D01*
X0157034Y0160529D01*
X0156919Y0160653D01*
X0156807Y0160780D01*
X0156698Y0160909D01*
X0156592Y0161041D01*
X0156490Y0161176D01*
X0156391Y0161313D01*
X0156295Y0161452D01*
X0156203Y0161594D01*
X0156114Y0161738D01*
X0156029Y0161884D01*
X0155948Y0162032D01*
X0155870Y0162182D01*
X0155796Y0162334D01*
X0155725Y0162488D01*
X0155658Y0162643D01*
X0155596Y0162800D01*
X0155537Y0162959D01*
X0155482Y0163119D01*
X0155431Y0163280D01*
X0155384Y0163442D01*
X0155340Y0163606D01*
X0155301Y0163770D01*
X0155266Y0163936D01*
X0155235Y0164102D01*
X0155209Y0164269D01*
X0155186Y0164437D01*
X0155167Y0164605D01*
X0155153Y0164773D01*
X0155142Y0164942D01*
X0155136Y0165111D01*
X0155134Y0165280D01*
X0155134Y0283390D02*
X0155136Y0283559D01*
X0155142Y0283728D01*
X0155153Y0283897D01*
X0155167Y0284065D01*
X0155186Y0284233D01*
X0155209Y0284401D01*
X0155235Y0284568D01*
X0155266Y0284734D01*
X0155301Y0284900D01*
X0155340Y0285064D01*
X0155384Y0285228D01*
X0155431Y0285390D01*
X0155482Y0285551D01*
X0155537Y0285711D01*
X0155596Y0285870D01*
X0155658Y0286027D01*
X0155725Y0286182D01*
X0155796Y0286336D01*
X0155870Y0286488D01*
X0155948Y0286638D01*
X0156029Y0286786D01*
X0156114Y0286932D01*
X0156203Y0287076D01*
X0156295Y0287218D01*
X0156391Y0287357D01*
X0156490Y0287494D01*
X0156592Y0287629D01*
X0156698Y0287761D01*
X0156807Y0287890D01*
X0156919Y0288017D01*
X0157034Y0288141D01*
X0157152Y0288262D01*
X0157273Y0288380D01*
X0157397Y0288495D01*
X0157524Y0288607D01*
X0157653Y0288716D01*
X0157785Y0288822D01*
X0157920Y0288924D01*
X0158057Y0289023D01*
X0158196Y0289119D01*
X0158338Y0289211D01*
X0158482Y0289300D01*
X0158628Y0289385D01*
X0158776Y0289466D01*
X0158926Y0289544D01*
X0159078Y0289618D01*
X0159232Y0289689D01*
X0159387Y0289756D01*
X0159544Y0289818D01*
X0159703Y0289877D01*
X0159863Y0289932D01*
X0160024Y0289983D01*
X0160186Y0290030D01*
X0160350Y0290074D01*
X0160514Y0290113D01*
X0160680Y0290148D01*
X0160846Y0290179D01*
X0161013Y0290205D01*
X0161181Y0290228D01*
X0161349Y0290247D01*
X0161517Y0290261D01*
X0161686Y0290272D01*
X0161855Y0290278D01*
X0162024Y0290280D01*
X0162193Y0290278D01*
X0162362Y0290272D01*
X0162531Y0290261D01*
X0162699Y0290247D01*
X0162867Y0290228D01*
X0163035Y0290205D01*
X0163202Y0290179D01*
X0163368Y0290148D01*
X0163534Y0290113D01*
X0163698Y0290074D01*
X0163862Y0290030D01*
X0164024Y0289983D01*
X0164185Y0289932D01*
X0164345Y0289877D01*
X0164504Y0289818D01*
X0164661Y0289756D01*
X0164816Y0289689D01*
X0164970Y0289618D01*
X0165122Y0289544D01*
X0165272Y0289466D01*
X0165420Y0289385D01*
X0165566Y0289300D01*
X0165710Y0289211D01*
X0165852Y0289119D01*
X0165991Y0289023D01*
X0166128Y0288924D01*
X0166263Y0288822D01*
X0166395Y0288716D01*
X0166524Y0288607D01*
X0166651Y0288495D01*
X0166775Y0288380D01*
X0166896Y0288262D01*
X0167014Y0288141D01*
X0167129Y0288017D01*
X0167241Y0287890D01*
X0167350Y0287761D01*
X0167456Y0287629D01*
X0167558Y0287494D01*
X0167657Y0287357D01*
X0167753Y0287218D01*
X0167845Y0287076D01*
X0167934Y0286932D01*
X0168019Y0286786D01*
X0168100Y0286638D01*
X0168178Y0286488D01*
X0168252Y0286336D01*
X0168323Y0286182D01*
X0168390Y0286027D01*
X0168452Y0285870D01*
X0168511Y0285711D01*
X0168566Y0285551D01*
X0168617Y0285390D01*
X0168664Y0285228D01*
X0168708Y0285064D01*
X0168747Y0284900D01*
X0168782Y0284734D01*
X0168813Y0284568D01*
X0168839Y0284401D01*
X0168862Y0284233D01*
X0168881Y0284065D01*
X0168895Y0283897D01*
X0168906Y0283728D01*
X0168912Y0283559D01*
X0168914Y0283390D01*
X0168912Y0283221D01*
X0168906Y0283052D01*
X0168895Y0282883D01*
X0168881Y0282715D01*
X0168862Y0282547D01*
X0168839Y0282379D01*
X0168813Y0282212D01*
X0168782Y0282046D01*
X0168747Y0281880D01*
X0168708Y0281716D01*
X0168664Y0281552D01*
X0168617Y0281390D01*
X0168566Y0281229D01*
X0168511Y0281069D01*
X0168452Y0280910D01*
X0168390Y0280753D01*
X0168323Y0280598D01*
X0168252Y0280444D01*
X0168178Y0280292D01*
X0168100Y0280142D01*
X0168019Y0279994D01*
X0167934Y0279848D01*
X0167845Y0279704D01*
X0167753Y0279562D01*
X0167657Y0279423D01*
X0167558Y0279286D01*
X0167456Y0279151D01*
X0167350Y0279019D01*
X0167241Y0278890D01*
X0167129Y0278763D01*
X0167014Y0278639D01*
X0166896Y0278518D01*
X0166775Y0278400D01*
X0166651Y0278285D01*
X0166524Y0278173D01*
X0166395Y0278064D01*
X0166263Y0277958D01*
X0166128Y0277856D01*
X0165991Y0277757D01*
X0165852Y0277661D01*
X0165710Y0277569D01*
X0165566Y0277480D01*
X0165420Y0277395D01*
X0165272Y0277314D01*
X0165122Y0277236D01*
X0164970Y0277162D01*
X0164816Y0277091D01*
X0164661Y0277024D01*
X0164504Y0276962D01*
X0164345Y0276903D01*
X0164185Y0276848D01*
X0164024Y0276797D01*
X0163862Y0276750D01*
X0163698Y0276706D01*
X0163534Y0276667D01*
X0163368Y0276632D01*
X0163202Y0276601D01*
X0163035Y0276575D01*
X0162867Y0276552D01*
X0162699Y0276533D01*
X0162531Y0276519D01*
X0162362Y0276508D01*
X0162193Y0276502D01*
X0162024Y0276500D01*
X0161855Y0276502D01*
X0161686Y0276508D01*
X0161517Y0276519D01*
X0161349Y0276533D01*
X0161181Y0276552D01*
X0161013Y0276575D01*
X0160846Y0276601D01*
X0160680Y0276632D01*
X0160514Y0276667D01*
X0160350Y0276706D01*
X0160186Y0276750D01*
X0160024Y0276797D01*
X0159863Y0276848D01*
X0159703Y0276903D01*
X0159544Y0276962D01*
X0159387Y0277024D01*
X0159232Y0277091D01*
X0159078Y0277162D01*
X0158926Y0277236D01*
X0158776Y0277314D01*
X0158628Y0277395D01*
X0158482Y0277480D01*
X0158338Y0277569D01*
X0158196Y0277661D01*
X0158057Y0277757D01*
X0157920Y0277856D01*
X0157785Y0277958D01*
X0157653Y0278064D01*
X0157524Y0278173D01*
X0157397Y0278285D01*
X0157273Y0278400D01*
X0157152Y0278518D01*
X0157034Y0278639D01*
X0156919Y0278763D01*
X0156807Y0278890D01*
X0156698Y0279019D01*
X0156592Y0279151D01*
X0156490Y0279286D01*
X0156391Y0279423D01*
X0156295Y0279562D01*
X0156203Y0279704D01*
X0156114Y0279848D01*
X0156029Y0279994D01*
X0155948Y0280142D01*
X0155870Y0280292D01*
X0155796Y0280444D01*
X0155725Y0280598D01*
X0155658Y0280753D01*
X0155596Y0280910D01*
X0155537Y0281069D01*
X0155482Y0281229D01*
X0155431Y0281390D01*
X0155384Y0281552D01*
X0155340Y0281716D01*
X0155301Y0281880D01*
X0155266Y0282046D01*
X0155235Y0282212D01*
X0155209Y0282379D01*
X0155186Y0282547D01*
X0155167Y0282715D01*
X0155153Y0282883D01*
X0155142Y0283052D01*
X0155136Y0283221D01*
X0155134Y0283390D01*
X0129544Y0401500D02*
X0129548Y0401814D01*
X0129559Y0402128D01*
X0129579Y0402441D01*
X0129606Y0402754D01*
X0129640Y0403066D01*
X0129682Y0403377D01*
X0129732Y0403687D01*
X0129790Y0403996D01*
X0129855Y0404303D01*
X0129927Y0404609D01*
X0130007Y0404913D01*
X0130095Y0405214D01*
X0130190Y0405514D01*
X0130292Y0405811D01*
X0130401Y0406105D01*
X0130518Y0406396D01*
X0130642Y0406685D01*
X0130772Y0406971D01*
X0130910Y0407253D01*
X0131055Y0407532D01*
X0131206Y0407807D01*
X0131364Y0408078D01*
X0131529Y0408345D01*
X0131700Y0408609D01*
X0131878Y0408867D01*
X0132062Y0409122D01*
X0132252Y0409372D01*
X0132448Y0409617D01*
X0132651Y0409857D01*
X0132859Y0410093D01*
X0133072Y0410323D01*
X0133292Y0410547D01*
X0133516Y0410767D01*
X0133746Y0410980D01*
X0133982Y0411188D01*
X0134222Y0411391D01*
X0134467Y0411587D01*
X0134717Y0411777D01*
X0134972Y0411961D01*
X0135230Y0412139D01*
X0135494Y0412310D01*
X0135761Y0412475D01*
X0136032Y0412633D01*
X0136307Y0412784D01*
X0136586Y0412929D01*
X0136868Y0413067D01*
X0137154Y0413197D01*
X0137443Y0413321D01*
X0137734Y0413438D01*
X0138028Y0413547D01*
X0138325Y0413649D01*
X0138625Y0413744D01*
X0138926Y0413832D01*
X0139230Y0413912D01*
X0139536Y0413984D01*
X0139843Y0414049D01*
X0140152Y0414107D01*
X0140462Y0414157D01*
X0140773Y0414199D01*
X0141085Y0414233D01*
X0141398Y0414260D01*
X0141711Y0414280D01*
X0142025Y0414291D01*
X0142339Y0414295D01*
X0142653Y0414291D01*
X0142967Y0414280D01*
X0143280Y0414260D01*
X0143593Y0414233D01*
X0143905Y0414199D01*
X0144216Y0414157D01*
X0144526Y0414107D01*
X0144835Y0414049D01*
X0145142Y0413984D01*
X0145448Y0413912D01*
X0145752Y0413832D01*
X0146053Y0413744D01*
X0146353Y0413649D01*
X0146650Y0413547D01*
X0146944Y0413438D01*
X0147235Y0413321D01*
X0147524Y0413197D01*
X0147810Y0413067D01*
X0148092Y0412929D01*
X0148371Y0412784D01*
X0148646Y0412633D01*
X0148917Y0412475D01*
X0149184Y0412310D01*
X0149448Y0412139D01*
X0149706Y0411961D01*
X0149961Y0411777D01*
X0150211Y0411587D01*
X0150456Y0411391D01*
X0150696Y0411188D01*
X0150932Y0410980D01*
X0151162Y0410767D01*
X0151386Y0410547D01*
X0151606Y0410323D01*
X0151819Y0410093D01*
X0152027Y0409857D01*
X0152230Y0409617D01*
X0152426Y0409372D01*
X0152616Y0409122D01*
X0152800Y0408867D01*
X0152978Y0408609D01*
X0153149Y0408345D01*
X0153314Y0408078D01*
X0153472Y0407807D01*
X0153623Y0407532D01*
X0153768Y0407253D01*
X0153906Y0406971D01*
X0154036Y0406685D01*
X0154160Y0406396D01*
X0154277Y0406105D01*
X0154386Y0405811D01*
X0154488Y0405514D01*
X0154583Y0405214D01*
X0154671Y0404913D01*
X0154751Y0404609D01*
X0154823Y0404303D01*
X0154888Y0403996D01*
X0154946Y0403687D01*
X0154996Y0403377D01*
X0155038Y0403066D01*
X0155072Y0402754D01*
X0155099Y0402441D01*
X0155119Y0402128D01*
X0155130Y0401814D01*
X0155134Y0401500D01*
X0155130Y0401186D01*
X0155119Y0400872D01*
X0155099Y0400559D01*
X0155072Y0400246D01*
X0155038Y0399934D01*
X0154996Y0399623D01*
X0154946Y0399313D01*
X0154888Y0399004D01*
X0154823Y0398697D01*
X0154751Y0398391D01*
X0154671Y0398087D01*
X0154583Y0397786D01*
X0154488Y0397486D01*
X0154386Y0397189D01*
X0154277Y0396895D01*
X0154160Y0396604D01*
X0154036Y0396315D01*
X0153906Y0396029D01*
X0153768Y0395747D01*
X0153623Y0395468D01*
X0153472Y0395193D01*
X0153314Y0394922D01*
X0153149Y0394655D01*
X0152978Y0394391D01*
X0152800Y0394133D01*
X0152616Y0393878D01*
X0152426Y0393628D01*
X0152230Y0393383D01*
X0152027Y0393143D01*
X0151819Y0392907D01*
X0151606Y0392677D01*
X0151386Y0392453D01*
X0151162Y0392233D01*
X0150932Y0392020D01*
X0150696Y0391812D01*
X0150456Y0391609D01*
X0150211Y0391413D01*
X0149961Y0391223D01*
X0149706Y0391039D01*
X0149448Y0390861D01*
X0149184Y0390690D01*
X0148917Y0390525D01*
X0148646Y0390367D01*
X0148371Y0390216D01*
X0148092Y0390071D01*
X0147810Y0389933D01*
X0147524Y0389803D01*
X0147235Y0389679D01*
X0146944Y0389562D01*
X0146650Y0389453D01*
X0146353Y0389351D01*
X0146053Y0389256D01*
X0145752Y0389168D01*
X0145448Y0389088D01*
X0145142Y0389016D01*
X0144835Y0388951D01*
X0144526Y0388893D01*
X0144216Y0388843D01*
X0143905Y0388801D01*
X0143593Y0388767D01*
X0143280Y0388740D01*
X0142967Y0388720D01*
X0142653Y0388709D01*
X0142339Y0388705D01*
X0142025Y0388709D01*
X0141711Y0388720D01*
X0141398Y0388740D01*
X0141085Y0388767D01*
X0140773Y0388801D01*
X0140462Y0388843D01*
X0140152Y0388893D01*
X0139843Y0388951D01*
X0139536Y0389016D01*
X0139230Y0389088D01*
X0138926Y0389168D01*
X0138625Y0389256D01*
X0138325Y0389351D01*
X0138028Y0389453D01*
X0137734Y0389562D01*
X0137443Y0389679D01*
X0137154Y0389803D01*
X0136868Y0389933D01*
X0136586Y0390071D01*
X0136307Y0390216D01*
X0136032Y0390367D01*
X0135761Y0390525D01*
X0135494Y0390690D01*
X0135230Y0390861D01*
X0134972Y0391039D01*
X0134717Y0391223D01*
X0134467Y0391413D01*
X0134222Y0391609D01*
X0133982Y0391812D01*
X0133746Y0392020D01*
X0133516Y0392233D01*
X0133292Y0392453D01*
X0133072Y0392677D01*
X0132859Y0392907D01*
X0132651Y0393143D01*
X0132448Y0393383D01*
X0132252Y0393628D01*
X0132062Y0393878D01*
X0131878Y0394133D01*
X0131700Y0394391D01*
X0131529Y0394655D01*
X0131364Y0394922D01*
X0131206Y0395193D01*
X0131055Y0395468D01*
X0130910Y0395747D01*
X0130772Y0396029D01*
X0130642Y0396315D01*
X0130518Y0396604D01*
X0130401Y0396895D01*
X0130292Y0397189D01*
X0130190Y0397486D01*
X0130095Y0397786D01*
X0130007Y0398087D01*
X0129927Y0398391D01*
X0129855Y0398697D01*
X0129790Y0399004D01*
X0129732Y0399313D01*
X0129682Y0399623D01*
X0129640Y0399934D01*
X0129606Y0400246D01*
X0129579Y0400559D01*
X0129559Y0400872D01*
X0129548Y0401186D01*
X0129544Y0401500D01*
X0076393Y0442543D02*
X0076395Y0442712D01*
X0076401Y0442881D01*
X0076412Y0443050D01*
X0076426Y0443218D01*
X0076445Y0443386D01*
X0076468Y0443554D01*
X0076494Y0443721D01*
X0076525Y0443887D01*
X0076560Y0444053D01*
X0076599Y0444217D01*
X0076643Y0444381D01*
X0076690Y0444543D01*
X0076741Y0444704D01*
X0076796Y0444864D01*
X0076855Y0445023D01*
X0076917Y0445180D01*
X0076984Y0445335D01*
X0077055Y0445489D01*
X0077129Y0445641D01*
X0077207Y0445791D01*
X0077288Y0445939D01*
X0077373Y0446085D01*
X0077462Y0446229D01*
X0077554Y0446371D01*
X0077650Y0446510D01*
X0077749Y0446647D01*
X0077851Y0446782D01*
X0077957Y0446914D01*
X0078066Y0447043D01*
X0078178Y0447170D01*
X0078293Y0447294D01*
X0078411Y0447415D01*
X0078532Y0447533D01*
X0078656Y0447648D01*
X0078783Y0447760D01*
X0078912Y0447869D01*
X0079044Y0447975D01*
X0079179Y0448077D01*
X0079316Y0448176D01*
X0079455Y0448272D01*
X0079597Y0448364D01*
X0079741Y0448453D01*
X0079887Y0448538D01*
X0080035Y0448619D01*
X0080185Y0448697D01*
X0080337Y0448771D01*
X0080491Y0448842D01*
X0080646Y0448909D01*
X0080803Y0448971D01*
X0080962Y0449030D01*
X0081122Y0449085D01*
X0081283Y0449136D01*
X0081445Y0449183D01*
X0081609Y0449227D01*
X0081773Y0449266D01*
X0081939Y0449301D01*
X0082105Y0449332D01*
X0082272Y0449358D01*
X0082440Y0449381D01*
X0082608Y0449400D01*
X0082776Y0449414D01*
X0082945Y0449425D01*
X0083114Y0449431D01*
X0083283Y0449433D01*
X0083452Y0449431D01*
X0083621Y0449425D01*
X0083790Y0449414D01*
X0083958Y0449400D01*
X0084126Y0449381D01*
X0084294Y0449358D01*
X0084461Y0449332D01*
X0084627Y0449301D01*
X0084793Y0449266D01*
X0084957Y0449227D01*
X0085121Y0449183D01*
X0085283Y0449136D01*
X0085444Y0449085D01*
X0085604Y0449030D01*
X0085763Y0448971D01*
X0085920Y0448909D01*
X0086075Y0448842D01*
X0086229Y0448771D01*
X0086381Y0448697D01*
X0086531Y0448619D01*
X0086679Y0448538D01*
X0086825Y0448453D01*
X0086969Y0448364D01*
X0087111Y0448272D01*
X0087250Y0448176D01*
X0087387Y0448077D01*
X0087522Y0447975D01*
X0087654Y0447869D01*
X0087783Y0447760D01*
X0087910Y0447648D01*
X0088034Y0447533D01*
X0088155Y0447415D01*
X0088273Y0447294D01*
X0088388Y0447170D01*
X0088500Y0447043D01*
X0088609Y0446914D01*
X0088715Y0446782D01*
X0088817Y0446647D01*
X0088916Y0446510D01*
X0089012Y0446371D01*
X0089104Y0446229D01*
X0089193Y0446085D01*
X0089278Y0445939D01*
X0089359Y0445791D01*
X0089437Y0445641D01*
X0089511Y0445489D01*
X0089582Y0445335D01*
X0089649Y0445180D01*
X0089711Y0445023D01*
X0089770Y0444864D01*
X0089825Y0444704D01*
X0089876Y0444543D01*
X0089923Y0444381D01*
X0089967Y0444217D01*
X0090006Y0444053D01*
X0090041Y0443887D01*
X0090072Y0443721D01*
X0090098Y0443554D01*
X0090121Y0443386D01*
X0090140Y0443218D01*
X0090154Y0443050D01*
X0090165Y0442881D01*
X0090171Y0442712D01*
X0090173Y0442543D01*
X0090171Y0442374D01*
X0090165Y0442205D01*
X0090154Y0442036D01*
X0090140Y0441868D01*
X0090121Y0441700D01*
X0090098Y0441532D01*
X0090072Y0441365D01*
X0090041Y0441199D01*
X0090006Y0441033D01*
X0089967Y0440869D01*
X0089923Y0440705D01*
X0089876Y0440543D01*
X0089825Y0440382D01*
X0089770Y0440222D01*
X0089711Y0440063D01*
X0089649Y0439906D01*
X0089582Y0439751D01*
X0089511Y0439597D01*
X0089437Y0439445D01*
X0089359Y0439295D01*
X0089278Y0439147D01*
X0089193Y0439001D01*
X0089104Y0438857D01*
X0089012Y0438715D01*
X0088916Y0438576D01*
X0088817Y0438439D01*
X0088715Y0438304D01*
X0088609Y0438172D01*
X0088500Y0438043D01*
X0088388Y0437916D01*
X0088273Y0437792D01*
X0088155Y0437671D01*
X0088034Y0437553D01*
X0087910Y0437438D01*
X0087783Y0437326D01*
X0087654Y0437217D01*
X0087522Y0437111D01*
X0087387Y0437009D01*
X0087250Y0436910D01*
X0087111Y0436814D01*
X0086969Y0436722D01*
X0086825Y0436633D01*
X0086679Y0436548D01*
X0086531Y0436467D01*
X0086381Y0436389D01*
X0086229Y0436315D01*
X0086075Y0436244D01*
X0085920Y0436177D01*
X0085763Y0436115D01*
X0085604Y0436056D01*
X0085444Y0436001D01*
X0085283Y0435950D01*
X0085121Y0435903D01*
X0084957Y0435859D01*
X0084793Y0435820D01*
X0084627Y0435785D01*
X0084461Y0435754D01*
X0084294Y0435728D01*
X0084126Y0435705D01*
X0083958Y0435686D01*
X0083790Y0435672D01*
X0083621Y0435661D01*
X0083452Y0435655D01*
X0083283Y0435653D01*
X0083114Y0435655D01*
X0082945Y0435661D01*
X0082776Y0435672D01*
X0082608Y0435686D01*
X0082440Y0435705D01*
X0082272Y0435728D01*
X0082105Y0435754D01*
X0081939Y0435785D01*
X0081773Y0435820D01*
X0081609Y0435859D01*
X0081445Y0435903D01*
X0081283Y0435950D01*
X0081122Y0436001D01*
X0080962Y0436056D01*
X0080803Y0436115D01*
X0080646Y0436177D01*
X0080491Y0436244D01*
X0080337Y0436315D01*
X0080185Y0436389D01*
X0080035Y0436467D01*
X0079887Y0436548D01*
X0079741Y0436633D01*
X0079597Y0436722D01*
X0079455Y0436814D01*
X0079316Y0436910D01*
X0079179Y0437009D01*
X0079044Y0437111D01*
X0078912Y0437217D01*
X0078783Y0437326D01*
X0078656Y0437438D01*
X0078532Y0437553D01*
X0078411Y0437671D01*
X0078293Y0437792D01*
X0078178Y0437916D01*
X0078066Y0438043D01*
X0077957Y0438172D01*
X0077851Y0438304D01*
X0077749Y0438439D01*
X0077650Y0438576D01*
X0077554Y0438715D01*
X0077462Y0438857D01*
X0077373Y0439001D01*
X0077288Y0439147D01*
X0077207Y0439295D01*
X0077129Y0439445D01*
X0077055Y0439597D01*
X0076984Y0439751D01*
X0076917Y0439906D01*
X0076855Y0440063D01*
X0076796Y0440222D01*
X0076741Y0440382D01*
X0076690Y0440543D01*
X0076643Y0440705D01*
X0076599Y0440869D01*
X0076560Y0441033D01*
X0076525Y0441199D01*
X0076494Y0441365D01*
X0076468Y0441532D01*
X0076445Y0441700D01*
X0076426Y0441868D01*
X0076412Y0442036D01*
X0076401Y0442205D01*
X0076395Y0442374D01*
X0076393Y0442543D01*
X0076393Y0555043D02*
X0076395Y0555212D01*
X0076401Y0555381D01*
X0076412Y0555550D01*
X0076426Y0555718D01*
X0076445Y0555886D01*
X0076468Y0556054D01*
X0076494Y0556221D01*
X0076525Y0556387D01*
X0076560Y0556553D01*
X0076599Y0556717D01*
X0076643Y0556881D01*
X0076690Y0557043D01*
X0076741Y0557204D01*
X0076796Y0557364D01*
X0076855Y0557523D01*
X0076917Y0557680D01*
X0076984Y0557835D01*
X0077055Y0557989D01*
X0077129Y0558141D01*
X0077207Y0558291D01*
X0077288Y0558439D01*
X0077373Y0558585D01*
X0077462Y0558729D01*
X0077554Y0558871D01*
X0077650Y0559010D01*
X0077749Y0559147D01*
X0077851Y0559282D01*
X0077957Y0559414D01*
X0078066Y0559543D01*
X0078178Y0559670D01*
X0078293Y0559794D01*
X0078411Y0559915D01*
X0078532Y0560033D01*
X0078656Y0560148D01*
X0078783Y0560260D01*
X0078912Y0560369D01*
X0079044Y0560475D01*
X0079179Y0560577D01*
X0079316Y0560676D01*
X0079455Y0560772D01*
X0079597Y0560864D01*
X0079741Y0560953D01*
X0079887Y0561038D01*
X0080035Y0561119D01*
X0080185Y0561197D01*
X0080337Y0561271D01*
X0080491Y0561342D01*
X0080646Y0561409D01*
X0080803Y0561471D01*
X0080962Y0561530D01*
X0081122Y0561585D01*
X0081283Y0561636D01*
X0081445Y0561683D01*
X0081609Y0561727D01*
X0081773Y0561766D01*
X0081939Y0561801D01*
X0082105Y0561832D01*
X0082272Y0561858D01*
X0082440Y0561881D01*
X0082608Y0561900D01*
X0082776Y0561914D01*
X0082945Y0561925D01*
X0083114Y0561931D01*
X0083283Y0561933D01*
X0083452Y0561931D01*
X0083621Y0561925D01*
X0083790Y0561914D01*
X0083958Y0561900D01*
X0084126Y0561881D01*
X0084294Y0561858D01*
X0084461Y0561832D01*
X0084627Y0561801D01*
X0084793Y0561766D01*
X0084957Y0561727D01*
X0085121Y0561683D01*
X0085283Y0561636D01*
X0085444Y0561585D01*
X0085604Y0561530D01*
X0085763Y0561471D01*
X0085920Y0561409D01*
X0086075Y0561342D01*
X0086229Y0561271D01*
X0086381Y0561197D01*
X0086531Y0561119D01*
X0086679Y0561038D01*
X0086825Y0560953D01*
X0086969Y0560864D01*
X0087111Y0560772D01*
X0087250Y0560676D01*
X0087387Y0560577D01*
X0087522Y0560475D01*
X0087654Y0560369D01*
X0087783Y0560260D01*
X0087910Y0560148D01*
X0088034Y0560033D01*
X0088155Y0559915D01*
X0088273Y0559794D01*
X0088388Y0559670D01*
X0088500Y0559543D01*
X0088609Y0559414D01*
X0088715Y0559282D01*
X0088817Y0559147D01*
X0088916Y0559010D01*
X0089012Y0558871D01*
X0089104Y0558729D01*
X0089193Y0558585D01*
X0089278Y0558439D01*
X0089359Y0558291D01*
X0089437Y0558141D01*
X0089511Y0557989D01*
X0089582Y0557835D01*
X0089649Y0557680D01*
X0089711Y0557523D01*
X0089770Y0557364D01*
X0089825Y0557204D01*
X0089876Y0557043D01*
X0089923Y0556881D01*
X0089967Y0556717D01*
X0090006Y0556553D01*
X0090041Y0556387D01*
X0090072Y0556221D01*
X0090098Y0556054D01*
X0090121Y0555886D01*
X0090140Y0555718D01*
X0090154Y0555550D01*
X0090165Y0555381D01*
X0090171Y0555212D01*
X0090173Y0555043D01*
X0090171Y0554874D01*
X0090165Y0554705D01*
X0090154Y0554536D01*
X0090140Y0554368D01*
X0090121Y0554200D01*
X0090098Y0554032D01*
X0090072Y0553865D01*
X0090041Y0553699D01*
X0090006Y0553533D01*
X0089967Y0553369D01*
X0089923Y0553205D01*
X0089876Y0553043D01*
X0089825Y0552882D01*
X0089770Y0552722D01*
X0089711Y0552563D01*
X0089649Y0552406D01*
X0089582Y0552251D01*
X0089511Y0552097D01*
X0089437Y0551945D01*
X0089359Y0551795D01*
X0089278Y0551647D01*
X0089193Y0551501D01*
X0089104Y0551357D01*
X0089012Y0551215D01*
X0088916Y0551076D01*
X0088817Y0550939D01*
X0088715Y0550804D01*
X0088609Y0550672D01*
X0088500Y0550543D01*
X0088388Y0550416D01*
X0088273Y0550292D01*
X0088155Y0550171D01*
X0088034Y0550053D01*
X0087910Y0549938D01*
X0087783Y0549826D01*
X0087654Y0549717D01*
X0087522Y0549611D01*
X0087387Y0549509D01*
X0087250Y0549410D01*
X0087111Y0549314D01*
X0086969Y0549222D01*
X0086825Y0549133D01*
X0086679Y0549048D01*
X0086531Y0548967D01*
X0086381Y0548889D01*
X0086229Y0548815D01*
X0086075Y0548744D01*
X0085920Y0548677D01*
X0085763Y0548615D01*
X0085604Y0548556D01*
X0085444Y0548501D01*
X0085283Y0548450D01*
X0085121Y0548403D01*
X0084957Y0548359D01*
X0084793Y0548320D01*
X0084627Y0548285D01*
X0084461Y0548254D01*
X0084294Y0548228D01*
X0084126Y0548205D01*
X0083958Y0548186D01*
X0083790Y0548172D01*
X0083621Y0548161D01*
X0083452Y0548155D01*
X0083283Y0548153D01*
X0083114Y0548155D01*
X0082945Y0548161D01*
X0082776Y0548172D01*
X0082608Y0548186D01*
X0082440Y0548205D01*
X0082272Y0548228D01*
X0082105Y0548254D01*
X0081939Y0548285D01*
X0081773Y0548320D01*
X0081609Y0548359D01*
X0081445Y0548403D01*
X0081283Y0548450D01*
X0081122Y0548501D01*
X0080962Y0548556D01*
X0080803Y0548615D01*
X0080646Y0548677D01*
X0080491Y0548744D01*
X0080337Y0548815D01*
X0080185Y0548889D01*
X0080035Y0548967D01*
X0079887Y0549048D01*
X0079741Y0549133D01*
X0079597Y0549222D01*
X0079455Y0549314D01*
X0079316Y0549410D01*
X0079179Y0549509D01*
X0079044Y0549611D01*
X0078912Y0549717D01*
X0078783Y0549826D01*
X0078656Y0549938D01*
X0078532Y0550053D01*
X0078411Y0550171D01*
X0078293Y0550292D01*
X0078178Y0550416D01*
X0078066Y0550543D01*
X0077957Y0550672D01*
X0077851Y0550804D01*
X0077749Y0550939D01*
X0077650Y0551076D01*
X0077554Y0551215D01*
X0077462Y0551357D01*
X0077373Y0551501D01*
X0077288Y0551647D01*
X0077207Y0551795D01*
X0077129Y0551945D01*
X0077055Y0552097D01*
X0076984Y0552251D01*
X0076917Y0552406D01*
X0076855Y0552563D01*
X0076796Y0552722D01*
X0076741Y0552882D01*
X0076690Y0553043D01*
X0076643Y0553205D01*
X0076599Y0553369D01*
X0076560Y0553533D01*
X0076525Y0553699D01*
X0076494Y0553865D01*
X0076468Y0554032D01*
X0076445Y0554200D01*
X0076426Y0554368D01*
X0076412Y0554536D01*
X0076401Y0554705D01*
X0076395Y0554874D01*
X0076393Y0555043D01*
X0076393Y0680043D02*
X0076395Y0680212D01*
X0076401Y0680381D01*
X0076412Y0680550D01*
X0076426Y0680718D01*
X0076445Y0680886D01*
X0076468Y0681054D01*
X0076494Y0681221D01*
X0076525Y0681387D01*
X0076560Y0681553D01*
X0076599Y0681717D01*
X0076643Y0681881D01*
X0076690Y0682043D01*
X0076741Y0682204D01*
X0076796Y0682364D01*
X0076855Y0682523D01*
X0076917Y0682680D01*
X0076984Y0682835D01*
X0077055Y0682989D01*
X0077129Y0683141D01*
X0077207Y0683291D01*
X0077288Y0683439D01*
X0077373Y0683585D01*
X0077462Y0683729D01*
X0077554Y0683871D01*
X0077650Y0684010D01*
X0077749Y0684147D01*
X0077851Y0684282D01*
X0077957Y0684414D01*
X0078066Y0684543D01*
X0078178Y0684670D01*
X0078293Y0684794D01*
X0078411Y0684915D01*
X0078532Y0685033D01*
X0078656Y0685148D01*
X0078783Y0685260D01*
X0078912Y0685369D01*
X0079044Y0685475D01*
X0079179Y0685577D01*
X0079316Y0685676D01*
X0079455Y0685772D01*
X0079597Y0685864D01*
X0079741Y0685953D01*
X0079887Y0686038D01*
X0080035Y0686119D01*
X0080185Y0686197D01*
X0080337Y0686271D01*
X0080491Y0686342D01*
X0080646Y0686409D01*
X0080803Y0686471D01*
X0080962Y0686530D01*
X0081122Y0686585D01*
X0081283Y0686636D01*
X0081445Y0686683D01*
X0081609Y0686727D01*
X0081773Y0686766D01*
X0081939Y0686801D01*
X0082105Y0686832D01*
X0082272Y0686858D01*
X0082440Y0686881D01*
X0082608Y0686900D01*
X0082776Y0686914D01*
X0082945Y0686925D01*
X0083114Y0686931D01*
X0083283Y0686933D01*
X0083452Y0686931D01*
X0083621Y0686925D01*
X0083790Y0686914D01*
X0083958Y0686900D01*
X0084126Y0686881D01*
X0084294Y0686858D01*
X0084461Y0686832D01*
X0084627Y0686801D01*
X0084793Y0686766D01*
X0084957Y0686727D01*
X0085121Y0686683D01*
X0085283Y0686636D01*
X0085444Y0686585D01*
X0085604Y0686530D01*
X0085763Y0686471D01*
X0085920Y0686409D01*
X0086075Y0686342D01*
X0086229Y0686271D01*
X0086381Y0686197D01*
X0086531Y0686119D01*
X0086679Y0686038D01*
X0086825Y0685953D01*
X0086969Y0685864D01*
X0087111Y0685772D01*
X0087250Y0685676D01*
X0087387Y0685577D01*
X0087522Y0685475D01*
X0087654Y0685369D01*
X0087783Y0685260D01*
X0087910Y0685148D01*
X0088034Y0685033D01*
X0088155Y0684915D01*
X0088273Y0684794D01*
X0088388Y0684670D01*
X0088500Y0684543D01*
X0088609Y0684414D01*
X0088715Y0684282D01*
X0088817Y0684147D01*
X0088916Y0684010D01*
X0089012Y0683871D01*
X0089104Y0683729D01*
X0089193Y0683585D01*
X0089278Y0683439D01*
X0089359Y0683291D01*
X0089437Y0683141D01*
X0089511Y0682989D01*
X0089582Y0682835D01*
X0089649Y0682680D01*
X0089711Y0682523D01*
X0089770Y0682364D01*
X0089825Y0682204D01*
X0089876Y0682043D01*
X0089923Y0681881D01*
X0089967Y0681717D01*
X0090006Y0681553D01*
X0090041Y0681387D01*
X0090072Y0681221D01*
X0090098Y0681054D01*
X0090121Y0680886D01*
X0090140Y0680718D01*
X0090154Y0680550D01*
X0090165Y0680381D01*
X0090171Y0680212D01*
X0090173Y0680043D01*
X0090171Y0679874D01*
X0090165Y0679705D01*
X0090154Y0679536D01*
X0090140Y0679368D01*
X0090121Y0679200D01*
X0090098Y0679032D01*
X0090072Y0678865D01*
X0090041Y0678699D01*
X0090006Y0678533D01*
X0089967Y0678369D01*
X0089923Y0678205D01*
X0089876Y0678043D01*
X0089825Y0677882D01*
X0089770Y0677722D01*
X0089711Y0677563D01*
X0089649Y0677406D01*
X0089582Y0677251D01*
X0089511Y0677097D01*
X0089437Y0676945D01*
X0089359Y0676795D01*
X0089278Y0676647D01*
X0089193Y0676501D01*
X0089104Y0676357D01*
X0089012Y0676215D01*
X0088916Y0676076D01*
X0088817Y0675939D01*
X0088715Y0675804D01*
X0088609Y0675672D01*
X0088500Y0675543D01*
X0088388Y0675416D01*
X0088273Y0675292D01*
X0088155Y0675171D01*
X0088034Y0675053D01*
X0087910Y0674938D01*
X0087783Y0674826D01*
X0087654Y0674717D01*
X0087522Y0674611D01*
X0087387Y0674509D01*
X0087250Y0674410D01*
X0087111Y0674314D01*
X0086969Y0674222D01*
X0086825Y0674133D01*
X0086679Y0674048D01*
X0086531Y0673967D01*
X0086381Y0673889D01*
X0086229Y0673815D01*
X0086075Y0673744D01*
X0085920Y0673677D01*
X0085763Y0673615D01*
X0085604Y0673556D01*
X0085444Y0673501D01*
X0085283Y0673450D01*
X0085121Y0673403D01*
X0084957Y0673359D01*
X0084793Y0673320D01*
X0084627Y0673285D01*
X0084461Y0673254D01*
X0084294Y0673228D01*
X0084126Y0673205D01*
X0083958Y0673186D01*
X0083790Y0673172D01*
X0083621Y0673161D01*
X0083452Y0673155D01*
X0083283Y0673153D01*
X0083114Y0673155D01*
X0082945Y0673161D01*
X0082776Y0673172D01*
X0082608Y0673186D01*
X0082440Y0673205D01*
X0082272Y0673228D01*
X0082105Y0673254D01*
X0081939Y0673285D01*
X0081773Y0673320D01*
X0081609Y0673359D01*
X0081445Y0673403D01*
X0081283Y0673450D01*
X0081122Y0673501D01*
X0080962Y0673556D01*
X0080803Y0673615D01*
X0080646Y0673677D01*
X0080491Y0673744D01*
X0080337Y0673815D01*
X0080185Y0673889D01*
X0080035Y0673967D01*
X0079887Y0674048D01*
X0079741Y0674133D01*
X0079597Y0674222D01*
X0079455Y0674314D01*
X0079316Y0674410D01*
X0079179Y0674509D01*
X0079044Y0674611D01*
X0078912Y0674717D01*
X0078783Y0674826D01*
X0078656Y0674938D01*
X0078532Y0675053D01*
X0078411Y0675171D01*
X0078293Y0675292D01*
X0078178Y0675416D01*
X0078066Y0675543D01*
X0077957Y0675672D01*
X0077851Y0675804D01*
X0077749Y0675939D01*
X0077650Y0676076D01*
X0077554Y0676215D01*
X0077462Y0676357D01*
X0077373Y0676501D01*
X0077288Y0676647D01*
X0077207Y0676795D01*
X0077129Y0676945D01*
X0077055Y0677097D01*
X0076984Y0677251D01*
X0076917Y0677406D01*
X0076855Y0677563D01*
X0076796Y0677722D01*
X0076741Y0677882D01*
X0076690Y0678043D01*
X0076643Y0678205D01*
X0076599Y0678369D01*
X0076560Y0678533D01*
X0076525Y0678699D01*
X0076494Y0678865D01*
X0076468Y0679032D01*
X0076445Y0679200D01*
X0076426Y0679368D01*
X0076412Y0679536D01*
X0076401Y0679705D01*
X0076395Y0679874D01*
X0076393Y0680043D01*
X0049228Y0737720D02*
X0049230Y0737854D01*
X0049236Y0737988D01*
X0049246Y0738122D01*
X0049260Y0738256D01*
X0049278Y0738389D01*
X0049299Y0738521D01*
X0049325Y0738653D01*
X0049355Y0738784D01*
X0049388Y0738914D01*
X0049425Y0739042D01*
X0049467Y0739170D01*
X0049511Y0739297D01*
X0049560Y0739422D01*
X0049612Y0739545D01*
X0049668Y0739667D01*
X0049728Y0739788D01*
X0049791Y0739906D01*
X0049857Y0740023D01*
X0049927Y0740137D01*
X0050000Y0740250D01*
X0050077Y0740360D01*
X0050157Y0740468D01*
X0050240Y0740573D01*
X0050326Y0740676D01*
X0050415Y0740776D01*
X0050507Y0740874D01*
X0050602Y0740969D01*
X0050700Y0741061D01*
X0050800Y0741150D01*
X0050903Y0741236D01*
X0051008Y0741319D01*
X0051116Y0741399D01*
X0051226Y0741476D01*
X0051339Y0741549D01*
X0051453Y0741619D01*
X0051570Y0741685D01*
X0051688Y0741748D01*
X0051809Y0741808D01*
X0051931Y0741864D01*
X0052054Y0741916D01*
X0052179Y0741965D01*
X0052306Y0742009D01*
X0052434Y0742051D01*
X0052562Y0742088D01*
X0052692Y0742121D01*
X0052823Y0742151D01*
X0052955Y0742177D01*
X0053087Y0742198D01*
X0053220Y0742216D01*
X0053354Y0742230D01*
X0053488Y0742240D01*
X0053622Y0742246D01*
X0053756Y0742248D01*
X0053890Y0742246D01*
X0054024Y0742240D01*
X0054158Y0742230D01*
X0054292Y0742216D01*
X0054425Y0742198D01*
X0054557Y0742177D01*
X0054689Y0742151D01*
X0054820Y0742121D01*
X0054950Y0742088D01*
X0055078Y0742051D01*
X0055206Y0742009D01*
X0055333Y0741965D01*
X0055458Y0741916D01*
X0055581Y0741864D01*
X0055703Y0741808D01*
X0055824Y0741748D01*
X0055942Y0741685D01*
X0056059Y0741619D01*
X0056173Y0741549D01*
X0056286Y0741476D01*
X0056396Y0741399D01*
X0056504Y0741319D01*
X0056609Y0741236D01*
X0056712Y0741150D01*
X0056812Y0741061D01*
X0056910Y0740969D01*
X0057005Y0740874D01*
X0057097Y0740776D01*
X0057186Y0740676D01*
X0057272Y0740573D01*
X0057355Y0740468D01*
X0057435Y0740360D01*
X0057512Y0740250D01*
X0057585Y0740137D01*
X0057655Y0740023D01*
X0057721Y0739906D01*
X0057784Y0739788D01*
X0057844Y0739667D01*
X0057900Y0739545D01*
X0057952Y0739422D01*
X0058001Y0739297D01*
X0058045Y0739170D01*
X0058087Y0739042D01*
X0058124Y0738914D01*
X0058157Y0738784D01*
X0058187Y0738653D01*
X0058213Y0738521D01*
X0058234Y0738389D01*
X0058252Y0738256D01*
X0058266Y0738122D01*
X0058276Y0737988D01*
X0058282Y0737854D01*
X0058284Y0737720D01*
X0058282Y0737586D01*
X0058276Y0737452D01*
X0058266Y0737318D01*
X0058252Y0737184D01*
X0058234Y0737051D01*
X0058213Y0736919D01*
X0058187Y0736787D01*
X0058157Y0736656D01*
X0058124Y0736526D01*
X0058087Y0736398D01*
X0058045Y0736270D01*
X0058001Y0736143D01*
X0057952Y0736018D01*
X0057900Y0735895D01*
X0057844Y0735773D01*
X0057784Y0735652D01*
X0057721Y0735534D01*
X0057655Y0735417D01*
X0057585Y0735303D01*
X0057512Y0735190D01*
X0057435Y0735080D01*
X0057355Y0734972D01*
X0057272Y0734867D01*
X0057186Y0734764D01*
X0057097Y0734664D01*
X0057005Y0734566D01*
X0056910Y0734471D01*
X0056812Y0734379D01*
X0056712Y0734290D01*
X0056609Y0734204D01*
X0056504Y0734121D01*
X0056396Y0734041D01*
X0056286Y0733964D01*
X0056173Y0733891D01*
X0056059Y0733821D01*
X0055942Y0733755D01*
X0055824Y0733692D01*
X0055703Y0733632D01*
X0055581Y0733576D01*
X0055458Y0733524D01*
X0055333Y0733475D01*
X0055206Y0733431D01*
X0055078Y0733389D01*
X0054950Y0733352D01*
X0054820Y0733319D01*
X0054689Y0733289D01*
X0054557Y0733263D01*
X0054425Y0733242D01*
X0054292Y0733224D01*
X0054158Y0733210D01*
X0054024Y0733200D01*
X0053890Y0733194D01*
X0053756Y0733192D01*
X0053622Y0733194D01*
X0053488Y0733200D01*
X0053354Y0733210D01*
X0053220Y0733224D01*
X0053087Y0733242D01*
X0052955Y0733263D01*
X0052823Y0733289D01*
X0052692Y0733319D01*
X0052562Y0733352D01*
X0052434Y0733389D01*
X0052306Y0733431D01*
X0052179Y0733475D01*
X0052054Y0733524D01*
X0051931Y0733576D01*
X0051809Y0733632D01*
X0051688Y0733692D01*
X0051570Y0733755D01*
X0051453Y0733821D01*
X0051339Y0733891D01*
X0051226Y0733964D01*
X0051116Y0734041D01*
X0051008Y0734121D01*
X0050903Y0734204D01*
X0050800Y0734290D01*
X0050700Y0734379D01*
X0050602Y0734471D01*
X0050507Y0734566D01*
X0050415Y0734664D01*
X0050326Y0734764D01*
X0050240Y0734867D01*
X0050157Y0734972D01*
X0050077Y0735080D01*
X0050000Y0735190D01*
X0049927Y0735303D01*
X0049857Y0735417D01*
X0049791Y0735534D01*
X0049728Y0735652D01*
X0049668Y0735773D01*
X0049612Y0735895D01*
X0049560Y0736018D01*
X0049511Y0736143D01*
X0049467Y0736270D01*
X0049425Y0736398D01*
X0049388Y0736526D01*
X0049355Y0736656D01*
X0049325Y0736787D01*
X0049299Y0736919D01*
X0049278Y0737051D01*
X0049260Y0737184D01*
X0049246Y0737318D01*
X0049236Y0737452D01*
X0049230Y0737586D01*
X0049228Y0737720D01*
X0040370Y0747957D02*
X0040372Y0748075D01*
X0040378Y0748194D01*
X0040388Y0748312D01*
X0040402Y0748429D01*
X0040419Y0748546D01*
X0040441Y0748663D01*
X0040467Y0748778D01*
X0040496Y0748893D01*
X0040529Y0749007D01*
X0040566Y0749119D01*
X0040607Y0749230D01*
X0040651Y0749340D01*
X0040699Y0749448D01*
X0040751Y0749555D01*
X0040806Y0749660D01*
X0040865Y0749763D01*
X0040927Y0749863D01*
X0040992Y0749962D01*
X0041061Y0750059D01*
X0041132Y0750153D01*
X0041207Y0750244D01*
X0041285Y0750334D01*
X0041366Y0750420D01*
X0041450Y0750504D01*
X0041536Y0750585D01*
X0041626Y0750663D01*
X0041717Y0750738D01*
X0041811Y0750809D01*
X0041908Y0750878D01*
X0042007Y0750943D01*
X0042107Y0751005D01*
X0042210Y0751064D01*
X0042315Y0751119D01*
X0042422Y0751171D01*
X0042530Y0751219D01*
X0042640Y0751263D01*
X0042751Y0751304D01*
X0042863Y0751341D01*
X0042977Y0751374D01*
X0043092Y0751403D01*
X0043207Y0751429D01*
X0043324Y0751451D01*
X0043441Y0751468D01*
X0043558Y0751482D01*
X0043676Y0751492D01*
X0043795Y0751498D01*
X0043913Y0751500D01*
X0044031Y0751498D01*
X0044150Y0751492D01*
X0044268Y0751482D01*
X0044385Y0751468D01*
X0044502Y0751451D01*
X0044619Y0751429D01*
X0044734Y0751403D01*
X0044849Y0751374D01*
X0044963Y0751341D01*
X0045075Y0751304D01*
X0045186Y0751263D01*
X0045296Y0751219D01*
X0045404Y0751171D01*
X0045511Y0751119D01*
X0045616Y0751064D01*
X0045719Y0751005D01*
X0045819Y0750943D01*
X0045918Y0750878D01*
X0046015Y0750809D01*
X0046109Y0750738D01*
X0046200Y0750663D01*
X0046290Y0750585D01*
X0046376Y0750504D01*
X0046460Y0750420D01*
X0046541Y0750334D01*
X0046619Y0750244D01*
X0046694Y0750153D01*
X0046765Y0750059D01*
X0046834Y0749962D01*
X0046899Y0749863D01*
X0046961Y0749763D01*
X0047020Y0749660D01*
X0047075Y0749555D01*
X0047127Y0749448D01*
X0047175Y0749340D01*
X0047219Y0749230D01*
X0047260Y0749119D01*
X0047297Y0749007D01*
X0047330Y0748893D01*
X0047359Y0748778D01*
X0047385Y0748663D01*
X0047407Y0748546D01*
X0047424Y0748429D01*
X0047438Y0748312D01*
X0047448Y0748194D01*
X0047454Y0748075D01*
X0047456Y0747957D01*
X0047454Y0747839D01*
X0047448Y0747720D01*
X0047438Y0747602D01*
X0047424Y0747485D01*
X0047407Y0747368D01*
X0047385Y0747251D01*
X0047359Y0747136D01*
X0047330Y0747021D01*
X0047297Y0746907D01*
X0047260Y0746795D01*
X0047219Y0746684D01*
X0047175Y0746574D01*
X0047127Y0746466D01*
X0047075Y0746359D01*
X0047020Y0746254D01*
X0046961Y0746151D01*
X0046899Y0746051D01*
X0046834Y0745952D01*
X0046765Y0745855D01*
X0046694Y0745761D01*
X0046619Y0745670D01*
X0046541Y0745580D01*
X0046460Y0745494D01*
X0046376Y0745410D01*
X0046290Y0745329D01*
X0046200Y0745251D01*
X0046109Y0745176D01*
X0046015Y0745105D01*
X0045918Y0745036D01*
X0045819Y0744971D01*
X0045719Y0744909D01*
X0045616Y0744850D01*
X0045511Y0744795D01*
X0045404Y0744743D01*
X0045296Y0744695D01*
X0045186Y0744651D01*
X0045075Y0744610D01*
X0044963Y0744573D01*
X0044849Y0744540D01*
X0044734Y0744511D01*
X0044619Y0744485D01*
X0044502Y0744463D01*
X0044385Y0744446D01*
X0044268Y0744432D01*
X0044150Y0744422D01*
X0044031Y0744416D01*
X0043913Y0744414D01*
X0043795Y0744416D01*
X0043676Y0744422D01*
X0043558Y0744432D01*
X0043441Y0744446D01*
X0043324Y0744463D01*
X0043207Y0744485D01*
X0043092Y0744511D01*
X0042977Y0744540D01*
X0042863Y0744573D01*
X0042751Y0744610D01*
X0042640Y0744651D01*
X0042530Y0744695D01*
X0042422Y0744743D01*
X0042315Y0744795D01*
X0042210Y0744850D01*
X0042107Y0744909D01*
X0042007Y0744971D01*
X0041908Y0745036D01*
X0041811Y0745105D01*
X0041717Y0745176D01*
X0041626Y0745251D01*
X0041536Y0745329D01*
X0041450Y0745410D01*
X0041366Y0745494D01*
X0041285Y0745580D01*
X0041207Y0745670D01*
X0041132Y0745761D01*
X0041061Y0745855D01*
X0040992Y0745952D01*
X0040927Y0746051D01*
X0040865Y0746151D01*
X0040806Y0746254D01*
X0040751Y0746359D01*
X0040699Y0746466D01*
X0040651Y0746574D01*
X0040607Y0746684D01*
X0040566Y0746795D01*
X0040529Y0746907D01*
X0040496Y0747021D01*
X0040467Y0747136D01*
X0040441Y0747251D01*
X0040419Y0747368D01*
X0040402Y0747485D01*
X0040388Y0747602D01*
X0040378Y0747720D01*
X0040372Y0747839D01*
X0040370Y0747957D01*
X0040370Y0803075D02*
X0040372Y0803193D01*
X0040378Y0803312D01*
X0040388Y0803430D01*
X0040402Y0803547D01*
X0040419Y0803664D01*
X0040441Y0803781D01*
X0040467Y0803896D01*
X0040496Y0804011D01*
X0040529Y0804125D01*
X0040566Y0804237D01*
X0040607Y0804348D01*
X0040651Y0804458D01*
X0040699Y0804566D01*
X0040751Y0804673D01*
X0040806Y0804778D01*
X0040865Y0804881D01*
X0040927Y0804981D01*
X0040992Y0805080D01*
X0041061Y0805177D01*
X0041132Y0805271D01*
X0041207Y0805362D01*
X0041285Y0805452D01*
X0041366Y0805538D01*
X0041450Y0805622D01*
X0041536Y0805703D01*
X0041626Y0805781D01*
X0041717Y0805856D01*
X0041811Y0805927D01*
X0041908Y0805996D01*
X0042007Y0806061D01*
X0042107Y0806123D01*
X0042210Y0806182D01*
X0042315Y0806237D01*
X0042422Y0806289D01*
X0042530Y0806337D01*
X0042640Y0806381D01*
X0042751Y0806422D01*
X0042863Y0806459D01*
X0042977Y0806492D01*
X0043092Y0806521D01*
X0043207Y0806547D01*
X0043324Y0806569D01*
X0043441Y0806586D01*
X0043558Y0806600D01*
X0043676Y0806610D01*
X0043795Y0806616D01*
X0043913Y0806618D01*
X0044031Y0806616D01*
X0044150Y0806610D01*
X0044268Y0806600D01*
X0044385Y0806586D01*
X0044502Y0806569D01*
X0044619Y0806547D01*
X0044734Y0806521D01*
X0044849Y0806492D01*
X0044963Y0806459D01*
X0045075Y0806422D01*
X0045186Y0806381D01*
X0045296Y0806337D01*
X0045404Y0806289D01*
X0045511Y0806237D01*
X0045616Y0806182D01*
X0045719Y0806123D01*
X0045819Y0806061D01*
X0045918Y0805996D01*
X0046015Y0805927D01*
X0046109Y0805856D01*
X0046200Y0805781D01*
X0046290Y0805703D01*
X0046376Y0805622D01*
X0046460Y0805538D01*
X0046541Y0805452D01*
X0046619Y0805362D01*
X0046694Y0805271D01*
X0046765Y0805177D01*
X0046834Y0805080D01*
X0046899Y0804981D01*
X0046961Y0804881D01*
X0047020Y0804778D01*
X0047075Y0804673D01*
X0047127Y0804566D01*
X0047175Y0804458D01*
X0047219Y0804348D01*
X0047260Y0804237D01*
X0047297Y0804125D01*
X0047330Y0804011D01*
X0047359Y0803896D01*
X0047385Y0803781D01*
X0047407Y0803664D01*
X0047424Y0803547D01*
X0047438Y0803430D01*
X0047448Y0803312D01*
X0047454Y0803193D01*
X0047456Y0803075D01*
X0047454Y0802957D01*
X0047448Y0802838D01*
X0047438Y0802720D01*
X0047424Y0802603D01*
X0047407Y0802486D01*
X0047385Y0802369D01*
X0047359Y0802254D01*
X0047330Y0802139D01*
X0047297Y0802025D01*
X0047260Y0801913D01*
X0047219Y0801802D01*
X0047175Y0801692D01*
X0047127Y0801584D01*
X0047075Y0801477D01*
X0047020Y0801372D01*
X0046961Y0801269D01*
X0046899Y0801169D01*
X0046834Y0801070D01*
X0046765Y0800973D01*
X0046694Y0800879D01*
X0046619Y0800788D01*
X0046541Y0800698D01*
X0046460Y0800612D01*
X0046376Y0800528D01*
X0046290Y0800447D01*
X0046200Y0800369D01*
X0046109Y0800294D01*
X0046015Y0800223D01*
X0045918Y0800154D01*
X0045819Y0800089D01*
X0045719Y0800027D01*
X0045616Y0799968D01*
X0045511Y0799913D01*
X0045404Y0799861D01*
X0045296Y0799813D01*
X0045186Y0799769D01*
X0045075Y0799728D01*
X0044963Y0799691D01*
X0044849Y0799658D01*
X0044734Y0799629D01*
X0044619Y0799603D01*
X0044502Y0799581D01*
X0044385Y0799564D01*
X0044268Y0799550D01*
X0044150Y0799540D01*
X0044031Y0799534D01*
X0043913Y0799532D01*
X0043795Y0799534D01*
X0043676Y0799540D01*
X0043558Y0799550D01*
X0043441Y0799564D01*
X0043324Y0799581D01*
X0043207Y0799603D01*
X0043092Y0799629D01*
X0042977Y0799658D01*
X0042863Y0799691D01*
X0042751Y0799728D01*
X0042640Y0799769D01*
X0042530Y0799813D01*
X0042422Y0799861D01*
X0042315Y0799913D01*
X0042210Y0799968D01*
X0042107Y0800027D01*
X0042007Y0800089D01*
X0041908Y0800154D01*
X0041811Y0800223D01*
X0041717Y0800294D01*
X0041626Y0800369D01*
X0041536Y0800447D01*
X0041450Y0800528D01*
X0041366Y0800612D01*
X0041285Y0800698D01*
X0041207Y0800788D01*
X0041132Y0800879D01*
X0041061Y0800973D01*
X0040992Y0801070D01*
X0040927Y0801169D01*
X0040865Y0801269D01*
X0040806Y0801372D01*
X0040751Y0801477D01*
X0040699Y0801584D01*
X0040651Y0801692D01*
X0040607Y0801802D01*
X0040566Y0801913D01*
X0040529Y0802025D01*
X0040496Y0802139D01*
X0040467Y0802254D01*
X0040441Y0802369D01*
X0040419Y0802486D01*
X0040402Y0802603D01*
X0040388Y0802720D01*
X0040378Y0802838D01*
X0040372Y0802957D01*
X0040370Y0803075D01*
X0049228Y0813311D02*
X0049230Y0813445D01*
X0049236Y0813579D01*
X0049246Y0813713D01*
X0049260Y0813847D01*
X0049278Y0813980D01*
X0049299Y0814112D01*
X0049325Y0814244D01*
X0049355Y0814375D01*
X0049388Y0814505D01*
X0049425Y0814633D01*
X0049467Y0814761D01*
X0049511Y0814888D01*
X0049560Y0815013D01*
X0049612Y0815136D01*
X0049668Y0815258D01*
X0049728Y0815379D01*
X0049791Y0815497D01*
X0049857Y0815614D01*
X0049927Y0815728D01*
X0050000Y0815841D01*
X0050077Y0815951D01*
X0050157Y0816059D01*
X0050240Y0816164D01*
X0050326Y0816267D01*
X0050415Y0816367D01*
X0050507Y0816465D01*
X0050602Y0816560D01*
X0050700Y0816652D01*
X0050800Y0816741D01*
X0050903Y0816827D01*
X0051008Y0816910D01*
X0051116Y0816990D01*
X0051226Y0817067D01*
X0051339Y0817140D01*
X0051453Y0817210D01*
X0051570Y0817276D01*
X0051688Y0817339D01*
X0051809Y0817399D01*
X0051931Y0817455D01*
X0052054Y0817507D01*
X0052179Y0817556D01*
X0052306Y0817600D01*
X0052434Y0817642D01*
X0052562Y0817679D01*
X0052692Y0817712D01*
X0052823Y0817742D01*
X0052955Y0817768D01*
X0053087Y0817789D01*
X0053220Y0817807D01*
X0053354Y0817821D01*
X0053488Y0817831D01*
X0053622Y0817837D01*
X0053756Y0817839D01*
X0053890Y0817837D01*
X0054024Y0817831D01*
X0054158Y0817821D01*
X0054292Y0817807D01*
X0054425Y0817789D01*
X0054557Y0817768D01*
X0054689Y0817742D01*
X0054820Y0817712D01*
X0054950Y0817679D01*
X0055078Y0817642D01*
X0055206Y0817600D01*
X0055333Y0817556D01*
X0055458Y0817507D01*
X0055581Y0817455D01*
X0055703Y0817399D01*
X0055824Y0817339D01*
X0055942Y0817276D01*
X0056059Y0817210D01*
X0056173Y0817140D01*
X0056286Y0817067D01*
X0056396Y0816990D01*
X0056504Y0816910D01*
X0056609Y0816827D01*
X0056712Y0816741D01*
X0056812Y0816652D01*
X0056910Y0816560D01*
X0057005Y0816465D01*
X0057097Y0816367D01*
X0057186Y0816267D01*
X0057272Y0816164D01*
X0057355Y0816059D01*
X0057435Y0815951D01*
X0057512Y0815841D01*
X0057585Y0815728D01*
X0057655Y0815614D01*
X0057721Y0815497D01*
X0057784Y0815379D01*
X0057844Y0815258D01*
X0057900Y0815136D01*
X0057952Y0815013D01*
X0058001Y0814888D01*
X0058045Y0814761D01*
X0058087Y0814633D01*
X0058124Y0814505D01*
X0058157Y0814375D01*
X0058187Y0814244D01*
X0058213Y0814112D01*
X0058234Y0813980D01*
X0058252Y0813847D01*
X0058266Y0813713D01*
X0058276Y0813579D01*
X0058282Y0813445D01*
X0058284Y0813311D01*
X0058282Y0813177D01*
X0058276Y0813043D01*
X0058266Y0812909D01*
X0058252Y0812775D01*
X0058234Y0812642D01*
X0058213Y0812510D01*
X0058187Y0812378D01*
X0058157Y0812247D01*
X0058124Y0812117D01*
X0058087Y0811989D01*
X0058045Y0811861D01*
X0058001Y0811734D01*
X0057952Y0811609D01*
X0057900Y0811486D01*
X0057844Y0811364D01*
X0057784Y0811243D01*
X0057721Y0811125D01*
X0057655Y0811008D01*
X0057585Y0810894D01*
X0057512Y0810781D01*
X0057435Y0810671D01*
X0057355Y0810563D01*
X0057272Y0810458D01*
X0057186Y0810355D01*
X0057097Y0810255D01*
X0057005Y0810157D01*
X0056910Y0810062D01*
X0056812Y0809970D01*
X0056712Y0809881D01*
X0056609Y0809795D01*
X0056504Y0809712D01*
X0056396Y0809632D01*
X0056286Y0809555D01*
X0056173Y0809482D01*
X0056059Y0809412D01*
X0055942Y0809346D01*
X0055824Y0809283D01*
X0055703Y0809223D01*
X0055581Y0809167D01*
X0055458Y0809115D01*
X0055333Y0809066D01*
X0055206Y0809022D01*
X0055078Y0808980D01*
X0054950Y0808943D01*
X0054820Y0808910D01*
X0054689Y0808880D01*
X0054557Y0808854D01*
X0054425Y0808833D01*
X0054292Y0808815D01*
X0054158Y0808801D01*
X0054024Y0808791D01*
X0053890Y0808785D01*
X0053756Y0808783D01*
X0053622Y0808785D01*
X0053488Y0808791D01*
X0053354Y0808801D01*
X0053220Y0808815D01*
X0053087Y0808833D01*
X0052955Y0808854D01*
X0052823Y0808880D01*
X0052692Y0808910D01*
X0052562Y0808943D01*
X0052434Y0808980D01*
X0052306Y0809022D01*
X0052179Y0809066D01*
X0052054Y0809115D01*
X0051931Y0809167D01*
X0051809Y0809223D01*
X0051688Y0809283D01*
X0051570Y0809346D01*
X0051453Y0809412D01*
X0051339Y0809482D01*
X0051226Y0809555D01*
X0051116Y0809632D01*
X0051008Y0809712D01*
X0050903Y0809795D01*
X0050800Y0809881D01*
X0050700Y0809970D01*
X0050602Y0810062D01*
X0050507Y0810157D01*
X0050415Y0810255D01*
X0050326Y0810355D01*
X0050240Y0810458D01*
X0050157Y0810563D01*
X0050077Y0810671D01*
X0050000Y0810781D01*
X0049927Y0810894D01*
X0049857Y0811008D01*
X0049791Y0811125D01*
X0049728Y0811243D01*
X0049668Y0811364D01*
X0049612Y0811486D01*
X0049560Y0811609D01*
X0049511Y0811734D01*
X0049467Y0811861D01*
X0049425Y0811989D01*
X0049388Y0812117D01*
X0049355Y0812247D01*
X0049325Y0812378D01*
X0049299Y0812510D01*
X0049278Y0812642D01*
X0049260Y0812775D01*
X0049246Y0812909D01*
X0049236Y0813043D01*
X0049230Y0813177D01*
X0049228Y0813311D01*
X0083874Y0834571D02*
X0083878Y0834885D01*
X0083889Y0835199D01*
X0083909Y0835512D01*
X0083936Y0835825D01*
X0083970Y0836137D01*
X0084012Y0836448D01*
X0084062Y0836758D01*
X0084120Y0837067D01*
X0084185Y0837374D01*
X0084257Y0837680D01*
X0084337Y0837984D01*
X0084425Y0838285D01*
X0084520Y0838585D01*
X0084622Y0838882D01*
X0084731Y0839176D01*
X0084848Y0839467D01*
X0084972Y0839756D01*
X0085102Y0840042D01*
X0085240Y0840324D01*
X0085385Y0840603D01*
X0085536Y0840878D01*
X0085694Y0841149D01*
X0085859Y0841416D01*
X0086030Y0841680D01*
X0086208Y0841938D01*
X0086392Y0842193D01*
X0086582Y0842443D01*
X0086778Y0842688D01*
X0086981Y0842928D01*
X0087189Y0843164D01*
X0087402Y0843394D01*
X0087622Y0843618D01*
X0087846Y0843838D01*
X0088076Y0844051D01*
X0088312Y0844259D01*
X0088552Y0844462D01*
X0088797Y0844658D01*
X0089047Y0844848D01*
X0089302Y0845032D01*
X0089560Y0845210D01*
X0089824Y0845381D01*
X0090091Y0845546D01*
X0090362Y0845704D01*
X0090637Y0845855D01*
X0090916Y0846000D01*
X0091198Y0846138D01*
X0091484Y0846268D01*
X0091773Y0846392D01*
X0092064Y0846509D01*
X0092358Y0846618D01*
X0092655Y0846720D01*
X0092955Y0846815D01*
X0093256Y0846903D01*
X0093560Y0846983D01*
X0093866Y0847055D01*
X0094173Y0847120D01*
X0094482Y0847178D01*
X0094792Y0847228D01*
X0095103Y0847270D01*
X0095415Y0847304D01*
X0095728Y0847331D01*
X0096041Y0847351D01*
X0096355Y0847362D01*
X0096669Y0847366D01*
X0096983Y0847362D01*
X0097297Y0847351D01*
X0097610Y0847331D01*
X0097923Y0847304D01*
X0098235Y0847270D01*
X0098546Y0847228D01*
X0098856Y0847178D01*
X0099165Y0847120D01*
X0099472Y0847055D01*
X0099778Y0846983D01*
X0100082Y0846903D01*
X0100383Y0846815D01*
X0100683Y0846720D01*
X0100980Y0846618D01*
X0101274Y0846509D01*
X0101565Y0846392D01*
X0101854Y0846268D01*
X0102140Y0846138D01*
X0102422Y0846000D01*
X0102701Y0845855D01*
X0102976Y0845704D01*
X0103247Y0845546D01*
X0103514Y0845381D01*
X0103778Y0845210D01*
X0104036Y0845032D01*
X0104291Y0844848D01*
X0104541Y0844658D01*
X0104786Y0844462D01*
X0105026Y0844259D01*
X0105262Y0844051D01*
X0105492Y0843838D01*
X0105716Y0843618D01*
X0105936Y0843394D01*
X0106149Y0843164D01*
X0106357Y0842928D01*
X0106560Y0842688D01*
X0106756Y0842443D01*
X0106946Y0842193D01*
X0107130Y0841938D01*
X0107308Y0841680D01*
X0107479Y0841416D01*
X0107644Y0841149D01*
X0107802Y0840878D01*
X0107953Y0840603D01*
X0108098Y0840324D01*
X0108236Y0840042D01*
X0108366Y0839756D01*
X0108490Y0839467D01*
X0108607Y0839176D01*
X0108716Y0838882D01*
X0108818Y0838585D01*
X0108913Y0838285D01*
X0109001Y0837984D01*
X0109081Y0837680D01*
X0109153Y0837374D01*
X0109218Y0837067D01*
X0109276Y0836758D01*
X0109326Y0836448D01*
X0109368Y0836137D01*
X0109402Y0835825D01*
X0109429Y0835512D01*
X0109449Y0835199D01*
X0109460Y0834885D01*
X0109464Y0834571D01*
X0109460Y0834257D01*
X0109449Y0833943D01*
X0109429Y0833630D01*
X0109402Y0833317D01*
X0109368Y0833005D01*
X0109326Y0832694D01*
X0109276Y0832384D01*
X0109218Y0832075D01*
X0109153Y0831768D01*
X0109081Y0831462D01*
X0109001Y0831158D01*
X0108913Y0830857D01*
X0108818Y0830557D01*
X0108716Y0830260D01*
X0108607Y0829966D01*
X0108490Y0829675D01*
X0108366Y0829386D01*
X0108236Y0829100D01*
X0108098Y0828818D01*
X0107953Y0828539D01*
X0107802Y0828264D01*
X0107644Y0827993D01*
X0107479Y0827726D01*
X0107308Y0827462D01*
X0107130Y0827204D01*
X0106946Y0826949D01*
X0106756Y0826699D01*
X0106560Y0826454D01*
X0106357Y0826214D01*
X0106149Y0825978D01*
X0105936Y0825748D01*
X0105716Y0825524D01*
X0105492Y0825304D01*
X0105262Y0825091D01*
X0105026Y0824883D01*
X0104786Y0824680D01*
X0104541Y0824484D01*
X0104291Y0824294D01*
X0104036Y0824110D01*
X0103778Y0823932D01*
X0103514Y0823761D01*
X0103247Y0823596D01*
X0102976Y0823438D01*
X0102701Y0823287D01*
X0102422Y0823142D01*
X0102140Y0823004D01*
X0101854Y0822874D01*
X0101565Y0822750D01*
X0101274Y0822633D01*
X0100980Y0822524D01*
X0100683Y0822422D01*
X0100383Y0822327D01*
X0100082Y0822239D01*
X0099778Y0822159D01*
X0099472Y0822087D01*
X0099165Y0822022D01*
X0098856Y0821964D01*
X0098546Y0821914D01*
X0098235Y0821872D01*
X0097923Y0821838D01*
X0097610Y0821811D01*
X0097297Y0821791D01*
X0096983Y0821780D01*
X0096669Y0821776D01*
X0096355Y0821780D01*
X0096041Y0821791D01*
X0095728Y0821811D01*
X0095415Y0821838D01*
X0095103Y0821872D01*
X0094792Y0821914D01*
X0094482Y0821964D01*
X0094173Y0822022D01*
X0093866Y0822087D01*
X0093560Y0822159D01*
X0093256Y0822239D01*
X0092955Y0822327D01*
X0092655Y0822422D01*
X0092358Y0822524D01*
X0092064Y0822633D01*
X0091773Y0822750D01*
X0091484Y0822874D01*
X0091198Y0823004D01*
X0090916Y0823142D01*
X0090637Y0823287D01*
X0090362Y0823438D01*
X0090091Y0823596D01*
X0089824Y0823761D01*
X0089560Y0823932D01*
X0089302Y0824110D01*
X0089047Y0824294D01*
X0088797Y0824484D01*
X0088552Y0824680D01*
X0088312Y0824883D01*
X0088076Y0825091D01*
X0087846Y0825304D01*
X0087622Y0825524D01*
X0087402Y0825748D01*
X0087189Y0825978D01*
X0086981Y0826214D01*
X0086778Y0826454D01*
X0086582Y0826699D01*
X0086392Y0826949D01*
X0086208Y0827204D01*
X0086030Y0827462D01*
X0085859Y0827726D01*
X0085694Y0827993D01*
X0085536Y0828264D01*
X0085385Y0828539D01*
X0085240Y0828818D01*
X0085102Y0829100D01*
X0084972Y0829386D01*
X0084848Y0829675D01*
X0084731Y0829966D01*
X0084622Y0830260D01*
X0084520Y0830557D01*
X0084425Y0830857D01*
X0084337Y0831158D01*
X0084257Y0831462D01*
X0084185Y0831768D01*
X0084120Y0832075D01*
X0084062Y0832384D01*
X0084012Y0832694D01*
X0083970Y0833005D01*
X0083936Y0833317D01*
X0083909Y0833630D01*
X0083889Y0833943D01*
X0083878Y0834257D01*
X0083874Y0834571D01*
X0155134Y0716461D02*
X0155136Y0716630D01*
X0155142Y0716799D01*
X0155153Y0716968D01*
X0155167Y0717136D01*
X0155186Y0717304D01*
X0155209Y0717472D01*
X0155235Y0717639D01*
X0155266Y0717805D01*
X0155301Y0717971D01*
X0155340Y0718135D01*
X0155384Y0718299D01*
X0155431Y0718461D01*
X0155482Y0718622D01*
X0155537Y0718782D01*
X0155596Y0718941D01*
X0155658Y0719098D01*
X0155725Y0719253D01*
X0155796Y0719407D01*
X0155870Y0719559D01*
X0155948Y0719709D01*
X0156029Y0719857D01*
X0156114Y0720003D01*
X0156203Y0720147D01*
X0156295Y0720289D01*
X0156391Y0720428D01*
X0156490Y0720565D01*
X0156592Y0720700D01*
X0156698Y0720832D01*
X0156807Y0720961D01*
X0156919Y0721088D01*
X0157034Y0721212D01*
X0157152Y0721333D01*
X0157273Y0721451D01*
X0157397Y0721566D01*
X0157524Y0721678D01*
X0157653Y0721787D01*
X0157785Y0721893D01*
X0157920Y0721995D01*
X0158057Y0722094D01*
X0158196Y0722190D01*
X0158338Y0722282D01*
X0158482Y0722371D01*
X0158628Y0722456D01*
X0158776Y0722537D01*
X0158926Y0722615D01*
X0159078Y0722689D01*
X0159232Y0722760D01*
X0159387Y0722827D01*
X0159544Y0722889D01*
X0159703Y0722948D01*
X0159863Y0723003D01*
X0160024Y0723054D01*
X0160186Y0723101D01*
X0160350Y0723145D01*
X0160514Y0723184D01*
X0160680Y0723219D01*
X0160846Y0723250D01*
X0161013Y0723276D01*
X0161181Y0723299D01*
X0161349Y0723318D01*
X0161517Y0723332D01*
X0161686Y0723343D01*
X0161855Y0723349D01*
X0162024Y0723351D01*
X0162193Y0723349D01*
X0162362Y0723343D01*
X0162531Y0723332D01*
X0162699Y0723318D01*
X0162867Y0723299D01*
X0163035Y0723276D01*
X0163202Y0723250D01*
X0163368Y0723219D01*
X0163534Y0723184D01*
X0163698Y0723145D01*
X0163862Y0723101D01*
X0164024Y0723054D01*
X0164185Y0723003D01*
X0164345Y0722948D01*
X0164504Y0722889D01*
X0164661Y0722827D01*
X0164816Y0722760D01*
X0164970Y0722689D01*
X0165122Y0722615D01*
X0165272Y0722537D01*
X0165420Y0722456D01*
X0165566Y0722371D01*
X0165710Y0722282D01*
X0165852Y0722190D01*
X0165991Y0722094D01*
X0166128Y0721995D01*
X0166263Y0721893D01*
X0166395Y0721787D01*
X0166524Y0721678D01*
X0166651Y0721566D01*
X0166775Y0721451D01*
X0166896Y0721333D01*
X0167014Y0721212D01*
X0167129Y0721088D01*
X0167241Y0720961D01*
X0167350Y0720832D01*
X0167456Y0720700D01*
X0167558Y0720565D01*
X0167657Y0720428D01*
X0167753Y0720289D01*
X0167845Y0720147D01*
X0167934Y0720003D01*
X0168019Y0719857D01*
X0168100Y0719709D01*
X0168178Y0719559D01*
X0168252Y0719407D01*
X0168323Y0719253D01*
X0168390Y0719098D01*
X0168452Y0718941D01*
X0168511Y0718782D01*
X0168566Y0718622D01*
X0168617Y0718461D01*
X0168664Y0718299D01*
X0168708Y0718135D01*
X0168747Y0717971D01*
X0168782Y0717805D01*
X0168813Y0717639D01*
X0168839Y0717472D01*
X0168862Y0717304D01*
X0168881Y0717136D01*
X0168895Y0716968D01*
X0168906Y0716799D01*
X0168912Y0716630D01*
X0168914Y0716461D01*
X0168912Y0716292D01*
X0168906Y0716123D01*
X0168895Y0715954D01*
X0168881Y0715786D01*
X0168862Y0715618D01*
X0168839Y0715450D01*
X0168813Y0715283D01*
X0168782Y0715117D01*
X0168747Y0714951D01*
X0168708Y0714787D01*
X0168664Y0714623D01*
X0168617Y0714461D01*
X0168566Y0714300D01*
X0168511Y0714140D01*
X0168452Y0713981D01*
X0168390Y0713824D01*
X0168323Y0713669D01*
X0168252Y0713515D01*
X0168178Y0713363D01*
X0168100Y0713213D01*
X0168019Y0713065D01*
X0167934Y0712919D01*
X0167845Y0712775D01*
X0167753Y0712633D01*
X0167657Y0712494D01*
X0167558Y0712357D01*
X0167456Y0712222D01*
X0167350Y0712090D01*
X0167241Y0711961D01*
X0167129Y0711834D01*
X0167014Y0711710D01*
X0166896Y0711589D01*
X0166775Y0711471D01*
X0166651Y0711356D01*
X0166524Y0711244D01*
X0166395Y0711135D01*
X0166263Y0711029D01*
X0166128Y0710927D01*
X0165991Y0710828D01*
X0165852Y0710732D01*
X0165710Y0710640D01*
X0165566Y0710551D01*
X0165420Y0710466D01*
X0165272Y0710385D01*
X0165122Y0710307D01*
X0164970Y0710233D01*
X0164816Y0710162D01*
X0164661Y0710095D01*
X0164504Y0710033D01*
X0164345Y0709974D01*
X0164185Y0709919D01*
X0164024Y0709868D01*
X0163862Y0709821D01*
X0163698Y0709777D01*
X0163534Y0709738D01*
X0163368Y0709703D01*
X0163202Y0709672D01*
X0163035Y0709646D01*
X0162867Y0709623D01*
X0162699Y0709604D01*
X0162531Y0709590D01*
X0162362Y0709579D01*
X0162193Y0709573D01*
X0162024Y0709571D01*
X0161855Y0709573D01*
X0161686Y0709579D01*
X0161517Y0709590D01*
X0161349Y0709604D01*
X0161181Y0709623D01*
X0161013Y0709646D01*
X0160846Y0709672D01*
X0160680Y0709703D01*
X0160514Y0709738D01*
X0160350Y0709777D01*
X0160186Y0709821D01*
X0160024Y0709868D01*
X0159863Y0709919D01*
X0159703Y0709974D01*
X0159544Y0710033D01*
X0159387Y0710095D01*
X0159232Y0710162D01*
X0159078Y0710233D01*
X0158926Y0710307D01*
X0158776Y0710385D01*
X0158628Y0710466D01*
X0158482Y0710551D01*
X0158338Y0710640D01*
X0158196Y0710732D01*
X0158057Y0710828D01*
X0157920Y0710927D01*
X0157785Y0711029D01*
X0157653Y0711135D01*
X0157524Y0711244D01*
X0157397Y0711356D01*
X0157273Y0711471D01*
X0157152Y0711589D01*
X0157034Y0711710D01*
X0156919Y0711834D01*
X0156807Y0711961D01*
X0156698Y0712090D01*
X0156592Y0712222D01*
X0156490Y0712357D01*
X0156391Y0712494D01*
X0156295Y0712633D01*
X0156203Y0712775D01*
X0156114Y0712919D01*
X0156029Y0713065D01*
X0155948Y0713213D01*
X0155870Y0713363D01*
X0155796Y0713515D01*
X0155725Y0713669D01*
X0155658Y0713824D01*
X0155596Y0713981D01*
X0155537Y0714140D01*
X0155482Y0714300D01*
X0155431Y0714461D01*
X0155384Y0714623D01*
X0155340Y0714787D01*
X0155301Y0714951D01*
X0155266Y0715117D01*
X0155235Y0715283D01*
X0155209Y0715450D01*
X0155186Y0715618D01*
X0155167Y0715786D01*
X0155153Y0715954D01*
X0155142Y0716123D01*
X0155136Y0716292D01*
X0155134Y0716461D01*
X0183874Y0834571D02*
X0183878Y0834885D01*
X0183889Y0835199D01*
X0183909Y0835512D01*
X0183936Y0835825D01*
X0183970Y0836137D01*
X0184012Y0836448D01*
X0184062Y0836758D01*
X0184120Y0837067D01*
X0184185Y0837374D01*
X0184257Y0837680D01*
X0184337Y0837984D01*
X0184425Y0838285D01*
X0184520Y0838585D01*
X0184622Y0838882D01*
X0184731Y0839176D01*
X0184848Y0839467D01*
X0184972Y0839756D01*
X0185102Y0840042D01*
X0185240Y0840324D01*
X0185385Y0840603D01*
X0185536Y0840878D01*
X0185694Y0841149D01*
X0185859Y0841416D01*
X0186030Y0841680D01*
X0186208Y0841938D01*
X0186392Y0842193D01*
X0186582Y0842443D01*
X0186778Y0842688D01*
X0186981Y0842928D01*
X0187189Y0843164D01*
X0187402Y0843394D01*
X0187622Y0843618D01*
X0187846Y0843838D01*
X0188076Y0844051D01*
X0188312Y0844259D01*
X0188552Y0844462D01*
X0188797Y0844658D01*
X0189047Y0844848D01*
X0189302Y0845032D01*
X0189560Y0845210D01*
X0189824Y0845381D01*
X0190091Y0845546D01*
X0190362Y0845704D01*
X0190637Y0845855D01*
X0190916Y0846000D01*
X0191198Y0846138D01*
X0191484Y0846268D01*
X0191773Y0846392D01*
X0192064Y0846509D01*
X0192358Y0846618D01*
X0192655Y0846720D01*
X0192955Y0846815D01*
X0193256Y0846903D01*
X0193560Y0846983D01*
X0193866Y0847055D01*
X0194173Y0847120D01*
X0194482Y0847178D01*
X0194792Y0847228D01*
X0195103Y0847270D01*
X0195415Y0847304D01*
X0195728Y0847331D01*
X0196041Y0847351D01*
X0196355Y0847362D01*
X0196669Y0847366D01*
X0196983Y0847362D01*
X0197297Y0847351D01*
X0197610Y0847331D01*
X0197923Y0847304D01*
X0198235Y0847270D01*
X0198546Y0847228D01*
X0198856Y0847178D01*
X0199165Y0847120D01*
X0199472Y0847055D01*
X0199778Y0846983D01*
X0200082Y0846903D01*
X0200383Y0846815D01*
X0200683Y0846720D01*
X0200980Y0846618D01*
X0201274Y0846509D01*
X0201565Y0846392D01*
X0201854Y0846268D01*
X0202140Y0846138D01*
X0202422Y0846000D01*
X0202701Y0845855D01*
X0202976Y0845704D01*
X0203247Y0845546D01*
X0203514Y0845381D01*
X0203778Y0845210D01*
X0204036Y0845032D01*
X0204291Y0844848D01*
X0204541Y0844658D01*
X0204786Y0844462D01*
X0205026Y0844259D01*
X0205262Y0844051D01*
X0205492Y0843838D01*
X0205716Y0843618D01*
X0205936Y0843394D01*
X0206149Y0843164D01*
X0206357Y0842928D01*
X0206560Y0842688D01*
X0206756Y0842443D01*
X0206946Y0842193D01*
X0207130Y0841938D01*
X0207308Y0841680D01*
X0207479Y0841416D01*
X0207644Y0841149D01*
X0207802Y0840878D01*
X0207953Y0840603D01*
X0208098Y0840324D01*
X0208236Y0840042D01*
X0208366Y0839756D01*
X0208490Y0839467D01*
X0208607Y0839176D01*
X0208716Y0838882D01*
X0208818Y0838585D01*
X0208913Y0838285D01*
X0209001Y0837984D01*
X0209081Y0837680D01*
X0209153Y0837374D01*
X0209218Y0837067D01*
X0209276Y0836758D01*
X0209326Y0836448D01*
X0209368Y0836137D01*
X0209402Y0835825D01*
X0209429Y0835512D01*
X0209449Y0835199D01*
X0209460Y0834885D01*
X0209464Y0834571D01*
X0209460Y0834257D01*
X0209449Y0833943D01*
X0209429Y0833630D01*
X0209402Y0833317D01*
X0209368Y0833005D01*
X0209326Y0832694D01*
X0209276Y0832384D01*
X0209218Y0832075D01*
X0209153Y0831768D01*
X0209081Y0831462D01*
X0209001Y0831158D01*
X0208913Y0830857D01*
X0208818Y0830557D01*
X0208716Y0830260D01*
X0208607Y0829966D01*
X0208490Y0829675D01*
X0208366Y0829386D01*
X0208236Y0829100D01*
X0208098Y0828818D01*
X0207953Y0828539D01*
X0207802Y0828264D01*
X0207644Y0827993D01*
X0207479Y0827726D01*
X0207308Y0827462D01*
X0207130Y0827204D01*
X0206946Y0826949D01*
X0206756Y0826699D01*
X0206560Y0826454D01*
X0206357Y0826214D01*
X0206149Y0825978D01*
X0205936Y0825748D01*
X0205716Y0825524D01*
X0205492Y0825304D01*
X0205262Y0825091D01*
X0205026Y0824883D01*
X0204786Y0824680D01*
X0204541Y0824484D01*
X0204291Y0824294D01*
X0204036Y0824110D01*
X0203778Y0823932D01*
X0203514Y0823761D01*
X0203247Y0823596D01*
X0202976Y0823438D01*
X0202701Y0823287D01*
X0202422Y0823142D01*
X0202140Y0823004D01*
X0201854Y0822874D01*
X0201565Y0822750D01*
X0201274Y0822633D01*
X0200980Y0822524D01*
X0200683Y0822422D01*
X0200383Y0822327D01*
X0200082Y0822239D01*
X0199778Y0822159D01*
X0199472Y0822087D01*
X0199165Y0822022D01*
X0198856Y0821964D01*
X0198546Y0821914D01*
X0198235Y0821872D01*
X0197923Y0821838D01*
X0197610Y0821811D01*
X0197297Y0821791D01*
X0196983Y0821780D01*
X0196669Y0821776D01*
X0196355Y0821780D01*
X0196041Y0821791D01*
X0195728Y0821811D01*
X0195415Y0821838D01*
X0195103Y0821872D01*
X0194792Y0821914D01*
X0194482Y0821964D01*
X0194173Y0822022D01*
X0193866Y0822087D01*
X0193560Y0822159D01*
X0193256Y0822239D01*
X0192955Y0822327D01*
X0192655Y0822422D01*
X0192358Y0822524D01*
X0192064Y0822633D01*
X0191773Y0822750D01*
X0191484Y0822874D01*
X0191198Y0823004D01*
X0190916Y0823142D01*
X0190637Y0823287D01*
X0190362Y0823438D01*
X0190091Y0823596D01*
X0189824Y0823761D01*
X0189560Y0823932D01*
X0189302Y0824110D01*
X0189047Y0824294D01*
X0188797Y0824484D01*
X0188552Y0824680D01*
X0188312Y0824883D01*
X0188076Y0825091D01*
X0187846Y0825304D01*
X0187622Y0825524D01*
X0187402Y0825748D01*
X0187189Y0825978D01*
X0186981Y0826214D01*
X0186778Y0826454D01*
X0186582Y0826699D01*
X0186392Y0826949D01*
X0186208Y0827204D01*
X0186030Y0827462D01*
X0185859Y0827726D01*
X0185694Y0827993D01*
X0185536Y0828264D01*
X0185385Y0828539D01*
X0185240Y0828818D01*
X0185102Y0829100D01*
X0184972Y0829386D01*
X0184848Y0829675D01*
X0184731Y0829966D01*
X0184622Y0830260D01*
X0184520Y0830557D01*
X0184425Y0830857D01*
X0184337Y0831158D01*
X0184257Y0831462D01*
X0184185Y0831768D01*
X0184120Y0832075D01*
X0184062Y0832384D01*
X0184012Y0832694D01*
X0183970Y0833005D01*
X0183936Y0833317D01*
X0183909Y0833630D01*
X0183889Y0833943D01*
X0183878Y0834257D01*
X0183874Y0834571D01*
X0332299Y0854256D02*
X0332301Y0854425D01*
X0332307Y0854594D01*
X0332318Y0854763D01*
X0332332Y0854931D01*
X0332351Y0855099D01*
X0332374Y0855267D01*
X0332400Y0855434D01*
X0332431Y0855600D01*
X0332466Y0855766D01*
X0332505Y0855930D01*
X0332549Y0856094D01*
X0332596Y0856256D01*
X0332647Y0856417D01*
X0332702Y0856577D01*
X0332761Y0856736D01*
X0332823Y0856893D01*
X0332890Y0857048D01*
X0332961Y0857202D01*
X0333035Y0857354D01*
X0333113Y0857504D01*
X0333194Y0857652D01*
X0333279Y0857798D01*
X0333368Y0857942D01*
X0333460Y0858084D01*
X0333556Y0858223D01*
X0333655Y0858360D01*
X0333757Y0858495D01*
X0333863Y0858627D01*
X0333972Y0858756D01*
X0334084Y0858883D01*
X0334199Y0859007D01*
X0334317Y0859128D01*
X0334438Y0859246D01*
X0334562Y0859361D01*
X0334689Y0859473D01*
X0334818Y0859582D01*
X0334950Y0859688D01*
X0335085Y0859790D01*
X0335222Y0859889D01*
X0335361Y0859985D01*
X0335503Y0860077D01*
X0335647Y0860166D01*
X0335793Y0860251D01*
X0335941Y0860332D01*
X0336091Y0860410D01*
X0336243Y0860484D01*
X0336397Y0860555D01*
X0336552Y0860622D01*
X0336709Y0860684D01*
X0336868Y0860743D01*
X0337028Y0860798D01*
X0337189Y0860849D01*
X0337351Y0860896D01*
X0337515Y0860940D01*
X0337679Y0860979D01*
X0337845Y0861014D01*
X0338011Y0861045D01*
X0338178Y0861071D01*
X0338346Y0861094D01*
X0338514Y0861113D01*
X0338682Y0861127D01*
X0338851Y0861138D01*
X0339020Y0861144D01*
X0339189Y0861146D01*
X0339358Y0861144D01*
X0339527Y0861138D01*
X0339696Y0861127D01*
X0339864Y0861113D01*
X0340032Y0861094D01*
X0340200Y0861071D01*
X0340367Y0861045D01*
X0340533Y0861014D01*
X0340699Y0860979D01*
X0340863Y0860940D01*
X0341027Y0860896D01*
X0341189Y0860849D01*
X0341350Y0860798D01*
X0341510Y0860743D01*
X0341669Y0860684D01*
X0341826Y0860622D01*
X0341981Y0860555D01*
X0342135Y0860484D01*
X0342287Y0860410D01*
X0342437Y0860332D01*
X0342585Y0860251D01*
X0342731Y0860166D01*
X0342875Y0860077D01*
X0343017Y0859985D01*
X0343156Y0859889D01*
X0343293Y0859790D01*
X0343428Y0859688D01*
X0343560Y0859582D01*
X0343689Y0859473D01*
X0343816Y0859361D01*
X0343940Y0859246D01*
X0344061Y0859128D01*
X0344179Y0859007D01*
X0344294Y0858883D01*
X0344406Y0858756D01*
X0344515Y0858627D01*
X0344621Y0858495D01*
X0344723Y0858360D01*
X0344822Y0858223D01*
X0344918Y0858084D01*
X0345010Y0857942D01*
X0345099Y0857798D01*
X0345184Y0857652D01*
X0345265Y0857504D01*
X0345343Y0857354D01*
X0345417Y0857202D01*
X0345488Y0857048D01*
X0345555Y0856893D01*
X0345617Y0856736D01*
X0345676Y0856577D01*
X0345731Y0856417D01*
X0345782Y0856256D01*
X0345829Y0856094D01*
X0345873Y0855930D01*
X0345912Y0855766D01*
X0345947Y0855600D01*
X0345978Y0855434D01*
X0346004Y0855267D01*
X0346027Y0855099D01*
X0346046Y0854931D01*
X0346060Y0854763D01*
X0346071Y0854594D01*
X0346077Y0854425D01*
X0346079Y0854256D01*
X0346077Y0854087D01*
X0346071Y0853918D01*
X0346060Y0853749D01*
X0346046Y0853581D01*
X0346027Y0853413D01*
X0346004Y0853245D01*
X0345978Y0853078D01*
X0345947Y0852912D01*
X0345912Y0852746D01*
X0345873Y0852582D01*
X0345829Y0852418D01*
X0345782Y0852256D01*
X0345731Y0852095D01*
X0345676Y0851935D01*
X0345617Y0851776D01*
X0345555Y0851619D01*
X0345488Y0851464D01*
X0345417Y0851310D01*
X0345343Y0851158D01*
X0345265Y0851008D01*
X0345184Y0850860D01*
X0345099Y0850714D01*
X0345010Y0850570D01*
X0344918Y0850428D01*
X0344822Y0850289D01*
X0344723Y0850152D01*
X0344621Y0850017D01*
X0344515Y0849885D01*
X0344406Y0849756D01*
X0344294Y0849629D01*
X0344179Y0849505D01*
X0344061Y0849384D01*
X0343940Y0849266D01*
X0343816Y0849151D01*
X0343689Y0849039D01*
X0343560Y0848930D01*
X0343428Y0848824D01*
X0343293Y0848722D01*
X0343156Y0848623D01*
X0343017Y0848527D01*
X0342875Y0848435D01*
X0342731Y0848346D01*
X0342585Y0848261D01*
X0342437Y0848180D01*
X0342287Y0848102D01*
X0342135Y0848028D01*
X0341981Y0847957D01*
X0341826Y0847890D01*
X0341669Y0847828D01*
X0341510Y0847769D01*
X0341350Y0847714D01*
X0341189Y0847663D01*
X0341027Y0847616D01*
X0340863Y0847572D01*
X0340699Y0847533D01*
X0340533Y0847498D01*
X0340367Y0847467D01*
X0340200Y0847441D01*
X0340032Y0847418D01*
X0339864Y0847399D01*
X0339696Y0847385D01*
X0339527Y0847374D01*
X0339358Y0847368D01*
X0339189Y0847366D01*
X0339020Y0847368D01*
X0338851Y0847374D01*
X0338682Y0847385D01*
X0338514Y0847399D01*
X0338346Y0847418D01*
X0338178Y0847441D01*
X0338011Y0847467D01*
X0337845Y0847498D01*
X0337679Y0847533D01*
X0337515Y0847572D01*
X0337351Y0847616D01*
X0337189Y0847663D01*
X0337028Y0847714D01*
X0336868Y0847769D01*
X0336709Y0847828D01*
X0336552Y0847890D01*
X0336397Y0847957D01*
X0336243Y0848028D01*
X0336091Y0848102D01*
X0335941Y0848180D01*
X0335793Y0848261D01*
X0335647Y0848346D01*
X0335503Y0848435D01*
X0335361Y0848527D01*
X0335222Y0848623D01*
X0335085Y0848722D01*
X0334950Y0848824D01*
X0334818Y0848930D01*
X0334689Y0849039D01*
X0334562Y0849151D01*
X0334438Y0849266D01*
X0334317Y0849384D01*
X0334199Y0849505D01*
X0334084Y0849629D01*
X0333972Y0849756D01*
X0333863Y0849885D01*
X0333757Y0850017D01*
X0333655Y0850152D01*
X0333556Y0850289D01*
X0333460Y0850428D01*
X0333368Y0850570D01*
X0333279Y0850714D01*
X0333194Y0850860D01*
X0333113Y0851008D01*
X0333035Y0851158D01*
X0332961Y0851310D01*
X0332890Y0851464D01*
X0332823Y0851619D01*
X0332761Y0851776D01*
X0332702Y0851935D01*
X0332647Y0852095D01*
X0332596Y0852256D01*
X0332549Y0852418D01*
X0332505Y0852582D01*
X0332466Y0852746D01*
X0332431Y0852912D01*
X0332400Y0853078D01*
X0332374Y0853245D01*
X0332351Y0853413D01*
X0332332Y0853581D01*
X0332318Y0853749D01*
X0332307Y0853918D01*
X0332301Y0854087D01*
X0332299Y0854256D01*
X0383874Y0834571D02*
X0383878Y0834885D01*
X0383889Y0835199D01*
X0383909Y0835512D01*
X0383936Y0835825D01*
X0383970Y0836137D01*
X0384012Y0836448D01*
X0384062Y0836758D01*
X0384120Y0837067D01*
X0384185Y0837374D01*
X0384257Y0837680D01*
X0384337Y0837984D01*
X0384425Y0838285D01*
X0384520Y0838585D01*
X0384622Y0838882D01*
X0384731Y0839176D01*
X0384848Y0839467D01*
X0384972Y0839756D01*
X0385102Y0840042D01*
X0385240Y0840324D01*
X0385385Y0840603D01*
X0385536Y0840878D01*
X0385694Y0841149D01*
X0385859Y0841416D01*
X0386030Y0841680D01*
X0386208Y0841938D01*
X0386392Y0842193D01*
X0386582Y0842443D01*
X0386778Y0842688D01*
X0386981Y0842928D01*
X0387189Y0843164D01*
X0387402Y0843394D01*
X0387622Y0843618D01*
X0387846Y0843838D01*
X0388076Y0844051D01*
X0388312Y0844259D01*
X0388552Y0844462D01*
X0388797Y0844658D01*
X0389047Y0844848D01*
X0389302Y0845032D01*
X0389560Y0845210D01*
X0389824Y0845381D01*
X0390091Y0845546D01*
X0390362Y0845704D01*
X0390637Y0845855D01*
X0390916Y0846000D01*
X0391198Y0846138D01*
X0391484Y0846268D01*
X0391773Y0846392D01*
X0392064Y0846509D01*
X0392358Y0846618D01*
X0392655Y0846720D01*
X0392955Y0846815D01*
X0393256Y0846903D01*
X0393560Y0846983D01*
X0393866Y0847055D01*
X0394173Y0847120D01*
X0394482Y0847178D01*
X0394792Y0847228D01*
X0395103Y0847270D01*
X0395415Y0847304D01*
X0395728Y0847331D01*
X0396041Y0847351D01*
X0396355Y0847362D01*
X0396669Y0847366D01*
X0396983Y0847362D01*
X0397297Y0847351D01*
X0397610Y0847331D01*
X0397923Y0847304D01*
X0398235Y0847270D01*
X0398546Y0847228D01*
X0398856Y0847178D01*
X0399165Y0847120D01*
X0399472Y0847055D01*
X0399778Y0846983D01*
X0400082Y0846903D01*
X0400383Y0846815D01*
X0400683Y0846720D01*
X0400980Y0846618D01*
X0401274Y0846509D01*
X0401565Y0846392D01*
X0401854Y0846268D01*
X0402140Y0846138D01*
X0402422Y0846000D01*
X0402701Y0845855D01*
X0402976Y0845704D01*
X0403247Y0845546D01*
X0403514Y0845381D01*
X0403778Y0845210D01*
X0404036Y0845032D01*
X0404291Y0844848D01*
X0404541Y0844658D01*
X0404786Y0844462D01*
X0405026Y0844259D01*
X0405262Y0844051D01*
X0405492Y0843838D01*
X0405716Y0843618D01*
X0405936Y0843394D01*
X0406149Y0843164D01*
X0406357Y0842928D01*
X0406560Y0842688D01*
X0406756Y0842443D01*
X0406946Y0842193D01*
X0407130Y0841938D01*
X0407308Y0841680D01*
X0407479Y0841416D01*
X0407644Y0841149D01*
X0407802Y0840878D01*
X0407953Y0840603D01*
X0408098Y0840324D01*
X0408236Y0840042D01*
X0408366Y0839756D01*
X0408490Y0839467D01*
X0408607Y0839176D01*
X0408716Y0838882D01*
X0408818Y0838585D01*
X0408913Y0838285D01*
X0409001Y0837984D01*
X0409081Y0837680D01*
X0409153Y0837374D01*
X0409218Y0837067D01*
X0409276Y0836758D01*
X0409326Y0836448D01*
X0409368Y0836137D01*
X0409402Y0835825D01*
X0409429Y0835512D01*
X0409449Y0835199D01*
X0409460Y0834885D01*
X0409464Y0834571D01*
X0409460Y0834257D01*
X0409449Y0833943D01*
X0409429Y0833630D01*
X0409402Y0833317D01*
X0409368Y0833005D01*
X0409326Y0832694D01*
X0409276Y0832384D01*
X0409218Y0832075D01*
X0409153Y0831768D01*
X0409081Y0831462D01*
X0409001Y0831158D01*
X0408913Y0830857D01*
X0408818Y0830557D01*
X0408716Y0830260D01*
X0408607Y0829966D01*
X0408490Y0829675D01*
X0408366Y0829386D01*
X0408236Y0829100D01*
X0408098Y0828818D01*
X0407953Y0828539D01*
X0407802Y0828264D01*
X0407644Y0827993D01*
X0407479Y0827726D01*
X0407308Y0827462D01*
X0407130Y0827204D01*
X0406946Y0826949D01*
X0406756Y0826699D01*
X0406560Y0826454D01*
X0406357Y0826214D01*
X0406149Y0825978D01*
X0405936Y0825748D01*
X0405716Y0825524D01*
X0405492Y0825304D01*
X0405262Y0825091D01*
X0405026Y0824883D01*
X0404786Y0824680D01*
X0404541Y0824484D01*
X0404291Y0824294D01*
X0404036Y0824110D01*
X0403778Y0823932D01*
X0403514Y0823761D01*
X0403247Y0823596D01*
X0402976Y0823438D01*
X0402701Y0823287D01*
X0402422Y0823142D01*
X0402140Y0823004D01*
X0401854Y0822874D01*
X0401565Y0822750D01*
X0401274Y0822633D01*
X0400980Y0822524D01*
X0400683Y0822422D01*
X0400383Y0822327D01*
X0400082Y0822239D01*
X0399778Y0822159D01*
X0399472Y0822087D01*
X0399165Y0822022D01*
X0398856Y0821964D01*
X0398546Y0821914D01*
X0398235Y0821872D01*
X0397923Y0821838D01*
X0397610Y0821811D01*
X0397297Y0821791D01*
X0396983Y0821780D01*
X0396669Y0821776D01*
X0396355Y0821780D01*
X0396041Y0821791D01*
X0395728Y0821811D01*
X0395415Y0821838D01*
X0395103Y0821872D01*
X0394792Y0821914D01*
X0394482Y0821964D01*
X0394173Y0822022D01*
X0393866Y0822087D01*
X0393560Y0822159D01*
X0393256Y0822239D01*
X0392955Y0822327D01*
X0392655Y0822422D01*
X0392358Y0822524D01*
X0392064Y0822633D01*
X0391773Y0822750D01*
X0391484Y0822874D01*
X0391198Y0823004D01*
X0390916Y0823142D01*
X0390637Y0823287D01*
X0390362Y0823438D01*
X0390091Y0823596D01*
X0389824Y0823761D01*
X0389560Y0823932D01*
X0389302Y0824110D01*
X0389047Y0824294D01*
X0388797Y0824484D01*
X0388552Y0824680D01*
X0388312Y0824883D01*
X0388076Y0825091D01*
X0387846Y0825304D01*
X0387622Y0825524D01*
X0387402Y0825748D01*
X0387189Y0825978D01*
X0386981Y0826214D01*
X0386778Y0826454D01*
X0386582Y0826699D01*
X0386392Y0826949D01*
X0386208Y0827204D01*
X0386030Y0827462D01*
X0385859Y0827726D01*
X0385694Y0827993D01*
X0385536Y0828264D01*
X0385385Y0828539D01*
X0385240Y0828818D01*
X0385102Y0829100D01*
X0384972Y0829386D01*
X0384848Y0829675D01*
X0384731Y0829966D01*
X0384622Y0830260D01*
X0384520Y0830557D01*
X0384425Y0830857D01*
X0384337Y0831158D01*
X0384257Y0831462D01*
X0384185Y0831768D01*
X0384120Y0832075D01*
X0384062Y0832384D01*
X0384012Y0832694D01*
X0383970Y0833005D01*
X0383936Y0833317D01*
X0383909Y0833630D01*
X0383889Y0833943D01*
X0383878Y0834257D01*
X0383874Y0834571D01*
X0332299Y0716461D02*
X0332301Y0716630D01*
X0332307Y0716799D01*
X0332318Y0716968D01*
X0332332Y0717136D01*
X0332351Y0717304D01*
X0332374Y0717472D01*
X0332400Y0717639D01*
X0332431Y0717805D01*
X0332466Y0717971D01*
X0332505Y0718135D01*
X0332549Y0718299D01*
X0332596Y0718461D01*
X0332647Y0718622D01*
X0332702Y0718782D01*
X0332761Y0718941D01*
X0332823Y0719098D01*
X0332890Y0719253D01*
X0332961Y0719407D01*
X0333035Y0719559D01*
X0333113Y0719709D01*
X0333194Y0719857D01*
X0333279Y0720003D01*
X0333368Y0720147D01*
X0333460Y0720289D01*
X0333556Y0720428D01*
X0333655Y0720565D01*
X0333757Y0720700D01*
X0333863Y0720832D01*
X0333972Y0720961D01*
X0334084Y0721088D01*
X0334199Y0721212D01*
X0334317Y0721333D01*
X0334438Y0721451D01*
X0334562Y0721566D01*
X0334689Y0721678D01*
X0334818Y0721787D01*
X0334950Y0721893D01*
X0335085Y0721995D01*
X0335222Y0722094D01*
X0335361Y0722190D01*
X0335503Y0722282D01*
X0335647Y0722371D01*
X0335793Y0722456D01*
X0335941Y0722537D01*
X0336091Y0722615D01*
X0336243Y0722689D01*
X0336397Y0722760D01*
X0336552Y0722827D01*
X0336709Y0722889D01*
X0336868Y0722948D01*
X0337028Y0723003D01*
X0337189Y0723054D01*
X0337351Y0723101D01*
X0337515Y0723145D01*
X0337679Y0723184D01*
X0337845Y0723219D01*
X0338011Y0723250D01*
X0338178Y0723276D01*
X0338346Y0723299D01*
X0338514Y0723318D01*
X0338682Y0723332D01*
X0338851Y0723343D01*
X0339020Y0723349D01*
X0339189Y0723351D01*
X0339358Y0723349D01*
X0339527Y0723343D01*
X0339696Y0723332D01*
X0339864Y0723318D01*
X0340032Y0723299D01*
X0340200Y0723276D01*
X0340367Y0723250D01*
X0340533Y0723219D01*
X0340699Y0723184D01*
X0340863Y0723145D01*
X0341027Y0723101D01*
X0341189Y0723054D01*
X0341350Y0723003D01*
X0341510Y0722948D01*
X0341669Y0722889D01*
X0341826Y0722827D01*
X0341981Y0722760D01*
X0342135Y0722689D01*
X0342287Y0722615D01*
X0342437Y0722537D01*
X0342585Y0722456D01*
X0342731Y0722371D01*
X0342875Y0722282D01*
X0343017Y0722190D01*
X0343156Y0722094D01*
X0343293Y0721995D01*
X0343428Y0721893D01*
X0343560Y0721787D01*
X0343689Y0721678D01*
X0343816Y0721566D01*
X0343940Y0721451D01*
X0344061Y0721333D01*
X0344179Y0721212D01*
X0344294Y0721088D01*
X0344406Y0720961D01*
X0344515Y0720832D01*
X0344621Y0720700D01*
X0344723Y0720565D01*
X0344822Y0720428D01*
X0344918Y0720289D01*
X0345010Y0720147D01*
X0345099Y0720003D01*
X0345184Y0719857D01*
X0345265Y0719709D01*
X0345343Y0719559D01*
X0345417Y0719407D01*
X0345488Y0719253D01*
X0345555Y0719098D01*
X0345617Y0718941D01*
X0345676Y0718782D01*
X0345731Y0718622D01*
X0345782Y0718461D01*
X0345829Y0718299D01*
X0345873Y0718135D01*
X0345912Y0717971D01*
X0345947Y0717805D01*
X0345978Y0717639D01*
X0346004Y0717472D01*
X0346027Y0717304D01*
X0346046Y0717136D01*
X0346060Y0716968D01*
X0346071Y0716799D01*
X0346077Y0716630D01*
X0346079Y0716461D01*
X0346077Y0716292D01*
X0346071Y0716123D01*
X0346060Y0715954D01*
X0346046Y0715786D01*
X0346027Y0715618D01*
X0346004Y0715450D01*
X0345978Y0715283D01*
X0345947Y0715117D01*
X0345912Y0714951D01*
X0345873Y0714787D01*
X0345829Y0714623D01*
X0345782Y0714461D01*
X0345731Y0714300D01*
X0345676Y0714140D01*
X0345617Y0713981D01*
X0345555Y0713824D01*
X0345488Y0713669D01*
X0345417Y0713515D01*
X0345343Y0713363D01*
X0345265Y0713213D01*
X0345184Y0713065D01*
X0345099Y0712919D01*
X0345010Y0712775D01*
X0344918Y0712633D01*
X0344822Y0712494D01*
X0344723Y0712357D01*
X0344621Y0712222D01*
X0344515Y0712090D01*
X0344406Y0711961D01*
X0344294Y0711834D01*
X0344179Y0711710D01*
X0344061Y0711589D01*
X0343940Y0711471D01*
X0343816Y0711356D01*
X0343689Y0711244D01*
X0343560Y0711135D01*
X0343428Y0711029D01*
X0343293Y0710927D01*
X0343156Y0710828D01*
X0343017Y0710732D01*
X0342875Y0710640D01*
X0342731Y0710551D01*
X0342585Y0710466D01*
X0342437Y0710385D01*
X0342287Y0710307D01*
X0342135Y0710233D01*
X0341981Y0710162D01*
X0341826Y0710095D01*
X0341669Y0710033D01*
X0341510Y0709974D01*
X0341350Y0709919D01*
X0341189Y0709868D01*
X0341027Y0709821D01*
X0340863Y0709777D01*
X0340699Y0709738D01*
X0340533Y0709703D01*
X0340367Y0709672D01*
X0340200Y0709646D01*
X0340032Y0709623D01*
X0339864Y0709604D01*
X0339696Y0709590D01*
X0339527Y0709579D01*
X0339358Y0709573D01*
X0339189Y0709571D01*
X0339020Y0709573D01*
X0338851Y0709579D01*
X0338682Y0709590D01*
X0338514Y0709604D01*
X0338346Y0709623D01*
X0338178Y0709646D01*
X0338011Y0709672D01*
X0337845Y0709703D01*
X0337679Y0709738D01*
X0337515Y0709777D01*
X0337351Y0709821D01*
X0337189Y0709868D01*
X0337028Y0709919D01*
X0336868Y0709974D01*
X0336709Y0710033D01*
X0336552Y0710095D01*
X0336397Y0710162D01*
X0336243Y0710233D01*
X0336091Y0710307D01*
X0335941Y0710385D01*
X0335793Y0710466D01*
X0335647Y0710551D01*
X0335503Y0710640D01*
X0335361Y0710732D01*
X0335222Y0710828D01*
X0335085Y0710927D01*
X0334950Y0711029D01*
X0334818Y0711135D01*
X0334689Y0711244D01*
X0334562Y0711356D01*
X0334438Y0711471D01*
X0334317Y0711589D01*
X0334199Y0711710D01*
X0334084Y0711834D01*
X0333972Y0711961D01*
X0333863Y0712090D01*
X0333757Y0712222D01*
X0333655Y0712357D01*
X0333556Y0712494D01*
X0333460Y0712633D01*
X0333368Y0712775D01*
X0333279Y0712919D01*
X0333194Y0713065D01*
X0333113Y0713213D01*
X0333035Y0713363D01*
X0332961Y0713515D01*
X0332890Y0713669D01*
X0332823Y0713824D01*
X0332761Y0713981D01*
X0332702Y0714140D01*
X0332647Y0714300D01*
X0332596Y0714461D01*
X0332549Y0714623D01*
X0332505Y0714787D01*
X0332466Y0714951D01*
X0332431Y0715117D01*
X0332400Y0715283D01*
X0332374Y0715450D01*
X0332351Y0715618D01*
X0332332Y0715786D01*
X0332318Y0715954D01*
X0332307Y0716123D01*
X0332301Y0716292D01*
X0332299Y0716461D01*
X0332299Y0519610D02*
X0332301Y0519779D01*
X0332307Y0519948D01*
X0332318Y0520117D01*
X0332332Y0520285D01*
X0332351Y0520453D01*
X0332374Y0520621D01*
X0332400Y0520788D01*
X0332431Y0520954D01*
X0332466Y0521120D01*
X0332505Y0521284D01*
X0332549Y0521448D01*
X0332596Y0521610D01*
X0332647Y0521771D01*
X0332702Y0521931D01*
X0332761Y0522090D01*
X0332823Y0522247D01*
X0332890Y0522402D01*
X0332961Y0522556D01*
X0333035Y0522708D01*
X0333113Y0522858D01*
X0333194Y0523006D01*
X0333279Y0523152D01*
X0333368Y0523296D01*
X0333460Y0523438D01*
X0333556Y0523577D01*
X0333655Y0523714D01*
X0333757Y0523849D01*
X0333863Y0523981D01*
X0333972Y0524110D01*
X0334084Y0524237D01*
X0334199Y0524361D01*
X0334317Y0524482D01*
X0334438Y0524600D01*
X0334562Y0524715D01*
X0334689Y0524827D01*
X0334818Y0524936D01*
X0334950Y0525042D01*
X0335085Y0525144D01*
X0335222Y0525243D01*
X0335361Y0525339D01*
X0335503Y0525431D01*
X0335647Y0525520D01*
X0335793Y0525605D01*
X0335941Y0525686D01*
X0336091Y0525764D01*
X0336243Y0525838D01*
X0336397Y0525909D01*
X0336552Y0525976D01*
X0336709Y0526038D01*
X0336868Y0526097D01*
X0337028Y0526152D01*
X0337189Y0526203D01*
X0337351Y0526250D01*
X0337515Y0526294D01*
X0337679Y0526333D01*
X0337845Y0526368D01*
X0338011Y0526399D01*
X0338178Y0526425D01*
X0338346Y0526448D01*
X0338514Y0526467D01*
X0338682Y0526481D01*
X0338851Y0526492D01*
X0339020Y0526498D01*
X0339189Y0526500D01*
X0339358Y0526498D01*
X0339527Y0526492D01*
X0339696Y0526481D01*
X0339864Y0526467D01*
X0340032Y0526448D01*
X0340200Y0526425D01*
X0340367Y0526399D01*
X0340533Y0526368D01*
X0340699Y0526333D01*
X0340863Y0526294D01*
X0341027Y0526250D01*
X0341189Y0526203D01*
X0341350Y0526152D01*
X0341510Y0526097D01*
X0341669Y0526038D01*
X0341826Y0525976D01*
X0341981Y0525909D01*
X0342135Y0525838D01*
X0342287Y0525764D01*
X0342437Y0525686D01*
X0342585Y0525605D01*
X0342731Y0525520D01*
X0342875Y0525431D01*
X0343017Y0525339D01*
X0343156Y0525243D01*
X0343293Y0525144D01*
X0343428Y0525042D01*
X0343560Y0524936D01*
X0343689Y0524827D01*
X0343816Y0524715D01*
X0343940Y0524600D01*
X0344061Y0524482D01*
X0344179Y0524361D01*
X0344294Y0524237D01*
X0344406Y0524110D01*
X0344515Y0523981D01*
X0344621Y0523849D01*
X0344723Y0523714D01*
X0344822Y0523577D01*
X0344918Y0523438D01*
X0345010Y0523296D01*
X0345099Y0523152D01*
X0345184Y0523006D01*
X0345265Y0522858D01*
X0345343Y0522708D01*
X0345417Y0522556D01*
X0345488Y0522402D01*
X0345555Y0522247D01*
X0345617Y0522090D01*
X0345676Y0521931D01*
X0345731Y0521771D01*
X0345782Y0521610D01*
X0345829Y0521448D01*
X0345873Y0521284D01*
X0345912Y0521120D01*
X0345947Y0520954D01*
X0345978Y0520788D01*
X0346004Y0520621D01*
X0346027Y0520453D01*
X0346046Y0520285D01*
X0346060Y0520117D01*
X0346071Y0519948D01*
X0346077Y0519779D01*
X0346079Y0519610D01*
X0346077Y0519441D01*
X0346071Y0519272D01*
X0346060Y0519103D01*
X0346046Y0518935D01*
X0346027Y0518767D01*
X0346004Y0518599D01*
X0345978Y0518432D01*
X0345947Y0518266D01*
X0345912Y0518100D01*
X0345873Y0517936D01*
X0345829Y0517772D01*
X0345782Y0517610D01*
X0345731Y0517449D01*
X0345676Y0517289D01*
X0345617Y0517130D01*
X0345555Y0516973D01*
X0345488Y0516818D01*
X0345417Y0516664D01*
X0345343Y0516512D01*
X0345265Y0516362D01*
X0345184Y0516214D01*
X0345099Y0516068D01*
X0345010Y0515924D01*
X0344918Y0515782D01*
X0344822Y0515643D01*
X0344723Y0515506D01*
X0344621Y0515371D01*
X0344515Y0515239D01*
X0344406Y0515110D01*
X0344294Y0514983D01*
X0344179Y0514859D01*
X0344061Y0514738D01*
X0343940Y0514620D01*
X0343816Y0514505D01*
X0343689Y0514393D01*
X0343560Y0514284D01*
X0343428Y0514178D01*
X0343293Y0514076D01*
X0343156Y0513977D01*
X0343017Y0513881D01*
X0342875Y0513789D01*
X0342731Y0513700D01*
X0342585Y0513615D01*
X0342437Y0513534D01*
X0342287Y0513456D01*
X0342135Y0513382D01*
X0341981Y0513311D01*
X0341826Y0513244D01*
X0341669Y0513182D01*
X0341510Y0513123D01*
X0341350Y0513068D01*
X0341189Y0513017D01*
X0341027Y0512970D01*
X0340863Y0512926D01*
X0340699Y0512887D01*
X0340533Y0512852D01*
X0340367Y0512821D01*
X0340200Y0512795D01*
X0340032Y0512772D01*
X0339864Y0512753D01*
X0339696Y0512739D01*
X0339527Y0512728D01*
X0339358Y0512722D01*
X0339189Y0512720D01*
X0339020Y0512722D01*
X0338851Y0512728D01*
X0338682Y0512739D01*
X0338514Y0512753D01*
X0338346Y0512772D01*
X0338178Y0512795D01*
X0338011Y0512821D01*
X0337845Y0512852D01*
X0337679Y0512887D01*
X0337515Y0512926D01*
X0337351Y0512970D01*
X0337189Y0513017D01*
X0337028Y0513068D01*
X0336868Y0513123D01*
X0336709Y0513182D01*
X0336552Y0513244D01*
X0336397Y0513311D01*
X0336243Y0513382D01*
X0336091Y0513456D01*
X0335941Y0513534D01*
X0335793Y0513615D01*
X0335647Y0513700D01*
X0335503Y0513789D01*
X0335361Y0513881D01*
X0335222Y0513977D01*
X0335085Y0514076D01*
X0334950Y0514178D01*
X0334818Y0514284D01*
X0334689Y0514393D01*
X0334562Y0514505D01*
X0334438Y0514620D01*
X0334317Y0514738D01*
X0334199Y0514859D01*
X0334084Y0514983D01*
X0333972Y0515110D01*
X0333863Y0515239D01*
X0333757Y0515371D01*
X0333655Y0515506D01*
X0333556Y0515643D01*
X0333460Y0515782D01*
X0333368Y0515924D01*
X0333279Y0516068D01*
X0333194Y0516214D01*
X0333113Y0516362D01*
X0333035Y0516512D01*
X0332961Y0516664D01*
X0332890Y0516818D01*
X0332823Y0516973D01*
X0332761Y0517130D01*
X0332702Y0517289D01*
X0332647Y0517449D01*
X0332596Y0517610D01*
X0332549Y0517772D01*
X0332505Y0517936D01*
X0332466Y0518100D01*
X0332431Y0518266D01*
X0332400Y0518432D01*
X0332374Y0518599D01*
X0332351Y0518767D01*
X0332332Y0518935D01*
X0332318Y0519103D01*
X0332307Y0519272D01*
X0332301Y0519441D01*
X0332299Y0519610D01*
X0324819Y0401500D02*
X0324823Y0401814D01*
X0324834Y0402128D01*
X0324854Y0402441D01*
X0324881Y0402754D01*
X0324915Y0403066D01*
X0324957Y0403377D01*
X0325007Y0403687D01*
X0325065Y0403996D01*
X0325130Y0404303D01*
X0325202Y0404609D01*
X0325282Y0404913D01*
X0325370Y0405214D01*
X0325465Y0405514D01*
X0325567Y0405811D01*
X0325676Y0406105D01*
X0325793Y0406396D01*
X0325917Y0406685D01*
X0326047Y0406971D01*
X0326185Y0407253D01*
X0326330Y0407532D01*
X0326481Y0407807D01*
X0326639Y0408078D01*
X0326804Y0408345D01*
X0326975Y0408609D01*
X0327153Y0408867D01*
X0327337Y0409122D01*
X0327527Y0409372D01*
X0327723Y0409617D01*
X0327926Y0409857D01*
X0328134Y0410093D01*
X0328347Y0410323D01*
X0328567Y0410547D01*
X0328791Y0410767D01*
X0329021Y0410980D01*
X0329257Y0411188D01*
X0329497Y0411391D01*
X0329742Y0411587D01*
X0329992Y0411777D01*
X0330247Y0411961D01*
X0330505Y0412139D01*
X0330769Y0412310D01*
X0331036Y0412475D01*
X0331307Y0412633D01*
X0331582Y0412784D01*
X0331861Y0412929D01*
X0332143Y0413067D01*
X0332429Y0413197D01*
X0332718Y0413321D01*
X0333009Y0413438D01*
X0333303Y0413547D01*
X0333600Y0413649D01*
X0333900Y0413744D01*
X0334201Y0413832D01*
X0334505Y0413912D01*
X0334811Y0413984D01*
X0335118Y0414049D01*
X0335427Y0414107D01*
X0335737Y0414157D01*
X0336048Y0414199D01*
X0336360Y0414233D01*
X0336673Y0414260D01*
X0336986Y0414280D01*
X0337300Y0414291D01*
X0337614Y0414295D01*
X0337928Y0414291D01*
X0338242Y0414280D01*
X0338555Y0414260D01*
X0338868Y0414233D01*
X0339180Y0414199D01*
X0339491Y0414157D01*
X0339801Y0414107D01*
X0340110Y0414049D01*
X0340417Y0413984D01*
X0340723Y0413912D01*
X0341027Y0413832D01*
X0341328Y0413744D01*
X0341628Y0413649D01*
X0341925Y0413547D01*
X0342219Y0413438D01*
X0342510Y0413321D01*
X0342799Y0413197D01*
X0343085Y0413067D01*
X0343367Y0412929D01*
X0343646Y0412784D01*
X0343921Y0412633D01*
X0344192Y0412475D01*
X0344459Y0412310D01*
X0344723Y0412139D01*
X0344981Y0411961D01*
X0345236Y0411777D01*
X0345486Y0411587D01*
X0345731Y0411391D01*
X0345971Y0411188D01*
X0346207Y0410980D01*
X0346437Y0410767D01*
X0346661Y0410547D01*
X0346881Y0410323D01*
X0347094Y0410093D01*
X0347302Y0409857D01*
X0347505Y0409617D01*
X0347701Y0409372D01*
X0347891Y0409122D01*
X0348075Y0408867D01*
X0348253Y0408609D01*
X0348424Y0408345D01*
X0348589Y0408078D01*
X0348747Y0407807D01*
X0348898Y0407532D01*
X0349043Y0407253D01*
X0349181Y0406971D01*
X0349311Y0406685D01*
X0349435Y0406396D01*
X0349552Y0406105D01*
X0349661Y0405811D01*
X0349763Y0405514D01*
X0349858Y0405214D01*
X0349946Y0404913D01*
X0350026Y0404609D01*
X0350098Y0404303D01*
X0350163Y0403996D01*
X0350221Y0403687D01*
X0350271Y0403377D01*
X0350313Y0403066D01*
X0350347Y0402754D01*
X0350374Y0402441D01*
X0350394Y0402128D01*
X0350405Y0401814D01*
X0350409Y0401500D01*
X0350405Y0401186D01*
X0350394Y0400872D01*
X0350374Y0400559D01*
X0350347Y0400246D01*
X0350313Y0399934D01*
X0350271Y0399623D01*
X0350221Y0399313D01*
X0350163Y0399004D01*
X0350098Y0398697D01*
X0350026Y0398391D01*
X0349946Y0398087D01*
X0349858Y0397786D01*
X0349763Y0397486D01*
X0349661Y0397189D01*
X0349552Y0396895D01*
X0349435Y0396604D01*
X0349311Y0396315D01*
X0349181Y0396029D01*
X0349043Y0395747D01*
X0348898Y0395468D01*
X0348747Y0395193D01*
X0348589Y0394922D01*
X0348424Y0394655D01*
X0348253Y0394391D01*
X0348075Y0394133D01*
X0347891Y0393878D01*
X0347701Y0393628D01*
X0347505Y0393383D01*
X0347302Y0393143D01*
X0347094Y0392907D01*
X0346881Y0392677D01*
X0346661Y0392453D01*
X0346437Y0392233D01*
X0346207Y0392020D01*
X0345971Y0391812D01*
X0345731Y0391609D01*
X0345486Y0391413D01*
X0345236Y0391223D01*
X0344981Y0391039D01*
X0344723Y0390861D01*
X0344459Y0390690D01*
X0344192Y0390525D01*
X0343921Y0390367D01*
X0343646Y0390216D01*
X0343367Y0390071D01*
X0343085Y0389933D01*
X0342799Y0389803D01*
X0342510Y0389679D01*
X0342219Y0389562D01*
X0341925Y0389453D01*
X0341628Y0389351D01*
X0341328Y0389256D01*
X0341027Y0389168D01*
X0340723Y0389088D01*
X0340417Y0389016D01*
X0340110Y0388951D01*
X0339801Y0388893D01*
X0339491Y0388843D01*
X0339180Y0388801D01*
X0338868Y0388767D01*
X0338555Y0388740D01*
X0338242Y0388720D01*
X0337928Y0388709D01*
X0337614Y0388705D01*
X0337300Y0388709D01*
X0336986Y0388720D01*
X0336673Y0388740D01*
X0336360Y0388767D01*
X0336048Y0388801D01*
X0335737Y0388843D01*
X0335427Y0388893D01*
X0335118Y0388951D01*
X0334811Y0389016D01*
X0334505Y0389088D01*
X0334201Y0389168D01*
X0333900Y0389256D01*
X0333600Y0389351D01*
X0333303Y0389453D01*
X0333009Y0389562D01*
X0332718Y0389679D01*
X0332429Y0389803D01*
X0332143Y0389933D01*
X0331861Y0390071D01*
X0331582Y0390216D01*
X0331307Y0390367D01*
X0331036Y0390525D01*
X0330769Y0390690D01*
X0330505Y0390861D01*
X0330247Y0391039D01*
X0329992Y0391223D01*
X0329742Y0391413D01*
X0329497Y0391609D01*
X0329257Y0391812D01*
X0329021Y0392020D01*
X0328791Y0392233D01*
X0328567Y0392453D01*
X0328347Y0392677D01*
X0328134Y0392907D01*
X0327926Y0393143D01*
X0327723Y0393383D01*
X0327527Y0393628D01*
X0327337Y0393878D01*
X0327153Y0394133D01*
X0326975Y0394391D01*
X0326804Y0394655D01*
X0326639Y0394922D01*
X0326481Y0395193D01*
X0326330Y0395468D01*
X0326185Y0395747D01*
X0326047Y0396029D01*
X0325917Y0396315D01*
X0325793Y0396604D01*
X0325676Y0396895D01*
X0325567Y0397189D01*
X0325465Y0397486D01*
X0325370Y0397786D01*
X0325282Y0398087D01*
X0325202Y0398391D01*
X0325130Y0398697D01*
X0325065Y0399004D01*
X0325007Y0399313D01*
X0324957Y0399623D01*
X0324915Y0399934D01*
X0324881Y0400246D01*
X0324854Y0400559D01*
X0324834Y0400872D01*
X0324823Y0401186D01*
X0324819Y0401500D01*
X0332299Y0283390D02*
X0332301Y0283559D01*
X0332307Y0283728D01*
X0332318Y0283897D01*
X0332332Y0284065D01*
X0332351Y0284233D01*
X0332374Y0284401D01*
X0332400Y0284568D01*
X0332431Y0284734D01*
X0332466Y0284900D01*
X0332505Y0285064D01*
X0332549Y0285228D01*
X0332596Y0285390D01*
X0332647Y0285551D01*
X0332702Y0285711D01*
X0332761Y0285870D01*
X0332823Y0286027D01*
X0332890Y0286182D01*
X0332961Y0286336D01*
X0333035Y0286488D01*
X0333113Y0286638D01*
X0333194Y0286786D01*
X0333279Y0286932D01*
X0333368Y0287076D01*
X0333460Y0287218D01*
X0333556Y0287357D01*
X0333655Y0287494D01*
X0333757Y0287629D01*
X0333863Y0287761D01*
X0333972Y0287890D01*
X0334084Y0288017D01*
X0334199Y0288141D01*
X0334317Y0288262D01*
X0334438Y0288380D01*
X0334562Y0288495D01*
X0334689Y0288607D01*
X0334818Y0288716D01*
X0334950Y0288822D01*
X0335085Y0288924D01*
X0335222Y0289023D01*
X0335361Y0289119D01*
X0335503Y0289211D01*
X0335647Y0289300D01*
X0335793Y0289385D01*
X0335941Y0289466D01*
X0336091Y0289544D01*
X0336243Y0289618D01*
X0336397Y0289689D01*
X0336552Y0289756D01*
X0336709Y0289818D01*
X0336868Y0289877D01*
X0337028Y0289932D01*
X0337189Y0289983D01*
X0337351Y0290030D01*
X0337515Y0290074D01*
X0337679Y0290113D01*
X0337845Y0290148D01*
X0338011Y0290179D01*
X0338178Y0290205D01*
X0338346Y0290228D01*
X0338514Y0290247D01*
X0338682Y0290261D01*
X0338851Y0290272D01*
X0339020Y0290278D01*
X0339189Y0290280D01*
X0339358Y0290278D01*
X0339527Y0290272D01*
X0339696Y0290261D01*
X0339864Y0290247D01*
X0340032Y0290228D01*
X0340200Y0290205D01*
X0340367Y0290179D01*
X0340533Y0290148D01*
X0340699Y0290113D01*
X0340863Y0290074D01*
X0341027Y0290030D01*
X0341189Y0289983D01*
X0341350Y0289932D01*
X0341510Y0289877D01*
X0341669Y0289818D01*
X0341826Y0289756D01*
X0341981Y0289689D01*
X0342135Y0289618D01*
X0342287Y0289544D01*
X0342437Y0289466D01*
X0342585Y0289385D01*
X0342731Y0289300D01*
X0342875Y0289211D01*
X0343017Y0289119D01*
X0343156Y0289023D01*
X0343293Y0288924D01*
X0343428Y0288822D01*
X0343560Y0288716D01*
X0343689Y0288607D01*
X0343816Y0288495D01*
X0343940Y0288380D01*
X0344061Y0288262D01*
X0344179Y0288141D01*
X0344294Y0288017D01*
X0344406Y0287890D01*
X0344515Y0287761D01*
X0344621Y0287629D01*
X0344723Y0287494D01*
X0344822Y0287357D01*
X0344918Y0287218D01*
X0345010Y0287076D01*
X0345099Y0286932D01*
X0345184Y0286786D01*
X0345265Y0286638D01*
X0345343Y0286488D01*
X0345417Y0286336D01*
X0345488Y0286182D01*
X0345555Y0286027D01*
X0345617Y0285870D01*
X0345676Y0285711D01*
X0345731Y0285551D01*
X0345782Y0285390D01*
X0345829Y0285228D01*
X0345873Y0285064D01*
X0345912Y0284900D01*
X0345947Y0284734D01*
X0345978Y0284568D01*
X0346004Y0284401D01*
X0346027Y0284233D01*
X0346046Y0284065D01*
X0346060Y0283897D01*
X0346071Y0283728D01*
X0346077Y0283559D01*
X0346079Y0283390D01*
X0346077Y0283221D01*
X0346071Y0283052D01*
X0346060Y0282883D01*
X0346046Y0282715D01*
X0346027Y0282547D01*
X0346004Y0282379D01*
X0345978Y0282212D01*
X0345947Y0282046D01*
X0345912Y0281880D01*
X0345873Y0281716D01*
X0345829Y0281552D01*
X0345782Y0281390D01*
X0345731Y0281229D01*
X0345676Y0281069D01*
X0345617Y0280910D01*
X0345555Y0280753D01*
X0345488Y0280598D01*
X0345417Y0280444D01*
X0345343Y0280292D01*
X0345265Y0280142D01*
X0345184Y0279994D01*
X0345099Y0279848D01*
X0345010Y0279704D01*
X0344918Y0279562D01*
X0344822Y0279423D01*
X0344723Y0279286D01*
X0344621Y0279151D01*
X0344515Y0279019D01*
X0344406Y0278890D01*
X0344294Y0278763D01*
X0344179Y0278639D01*
X0344061Y0278518D01*
X0343940Y0278400D01*
X0343816Y0278285D01*
X0343689Y0278173D01*
X0343560Y0278064D01*
X0343428Y0277958D01*
X0343293Y0277856D01*
X0343156Y0277757D01*
X0343017Y0277661D01*
X0342875Y0277569D01*
X0342731Y0277480D01*
X0342585Y0277395D01*
X0342437Y0277314D01*
X0342287Y0277236D01*
X0342135Y0277162D01*
X0341981Y0277091D01*
X0341826Y0277024D01*
X0341669Y0276962D01*
X0341510Y0276903D01*
X0341350Y0276848D01*
X0341189Y0276797D01*
X0341027Y0276750D01*
X0340863Y0276706D01*
X0340699Y0276667D01*
X0340533Y0276632D01*
X0340367Y0276601D01*
X0340200Y0276575D01*
X0340032Y0276552D01*
X0339864Y0276533D01*
X0339696Y0276519D01*
X0339527Y0276508D01*
X0339358Y0276502D01*
X0339189Y0276500D01*
X0339020Y0276502D01*
X0338851Y0276508D01*
X0338682Y0276519D01*
X0338514Y0276533D01*
X0338346Y0276552D01*
X0338178Y0276575D01*
X0338011Y0276601D01*
X0337845Y0276632D01*
X0337679Y0276667D01*
X0337515Y0276706D01*
X0337351Y0276750D01*
X0337189Y0276797D01*
X0337028Y0276848D01*
X0336868Y0276903D01*
X0336709Y0276962D01*
X0336552Y0277024D01*
X0336397Y0277091D01*
X0336243Y0277162D01*
X0336091Y0277236D01*
X0335941Y0277314D01*
X0335793Y0277395D01*
X0335647Y0277480D01*
X0335503Y0277569D01*
X0335361Y0277661D01*
X0335222Y0277757D01*
X0335085Y0277856D01*
X0334950Y0277958D01*
X0334818Y0278064D01*
X0334689Y0278173D01*
X0334562Y0278285D01*
X0334438Y0278400D01*
X0334317Y0278518D01*
X0334199Y0278639D01*
X0334084Y0278763D01*
X0333972Y0278890D01*
X0333863Y0279019D01*
X0333757Y0279151D01*
X0333655Y0279286D01*
X0333556Y0279423D01*
X0333460Y0279562D01*
X0333368Y0279704D01*
X0333279Y0279848D01*
X0333194Y0279994D01*
X0333113Y0280142D01*
X0333035Y0280292D01*
X0332961Y0280444D01*
X0332890Y0280598D01*
X0332823Y0280753D01*
X0332761Y0280910D01*
X0332702Y0281069D01*
X0332647Y0281229D01*
X0332596Y0281390D01*
X0332549Y0281552D01*
X0332505Y0281716D01*
X0332466Y0281880D01*
X0332431Y0282046D01*
X0332400Y0282212D01*
X0332374Y0282379D01*
X0332351Y0282547D01*
X0332332Y0282715D01*
X0332318Y0282883D01*
X0332307Y0283052D01*
X0332301Y0283221D01*
X0332299Y0283390D01*
X0332299Y0165280D02*
X0332301Y0165449D01*
X0332307Y0165618D01*
X0332318Y0165787D01*
X0332332Y0165955D01*
X0332351Y0166123D01*
X0332374Y0166291D01*
X0332400Y0166458D01*
X0332431Y0166624D01*
X0332466Y0166790D01*
X0332505Y0166954D01*
X0332549Y0167118D01*
X0332596Y0167280D01*
X0332647Y0167441D01*
X0332702Y0167601D01*
X0332761Y0167760D01*
X0332823Y0167917D01*
X0332890Y0168072D01*
X0332961Y0168226D01*
X0333035Y0168378D01*
X0333113Y0168528D01*
X0333194Y0168676D01*
X0333279Y0168822D01*
X0333368Y0168966D01*
X0333460Y0169108D01*
X0333556Y0169247D01*
X0333655Y0169384D01*
X0333757Y0169519D01*
X0333863Y0169651D01*
X0333972Y0169780D01*
X0334084Y0169907D01*
X0334199Y0170031D01*
X0334317Y0170152D01*
X0334438Y0170270D01*
X0334562Y0170385D01*
X0334689Y0170497D01*
X0334818Y0170606D01*
X0334950Y0170712D01*
X0335085Y0170814D01*
X0335222Y0170913D01*
X0335361Y0171009D01*
X0335503Y0171101D01*
X0335647Y0171190D01*
X0335793Y0171275D01*
X0335941Y0171356D01*
X0336091Y0171434D01*
X0336243Y0171508D01*
X0336397Y0171579D01*
X0336552Y0171646D01*
X0336709Y0171708D01*
X0336868Y0171767D01*
X0337028Y0171822D01*
X0337189Y0171873D01*
X0337351Y0171920D01*
X0337515Y0171964D01*
X0337679Y0172003D01*
X0337845Y0172038D01*
X0338011Y0172069D01*
X0338178Y0172095D01*
X0338346Y0172118D01*
X0338514Y0172137D01*
X0338682Y0172151D01*
X0338851Y0172162D01*
X0339020Y0172168D01*
X0339189Y0172170D01*
X0339358Y0172168D01*
X0339527Y0172162D01*
X0339696Y0172151D01*
X0339864Y0172137D01*
X0340032Y0172118D01*
X0340200Y0172095D01*
X0340367Y0172069D01*
X0340533Y0172038D01*
X0340699Y0172003D01*
X0340863Y0171964D01*
X0341027Y0171920D01*
X0341189Y0171873D01*
X0341350Y0171822D01*
X0341510Y0171767D01*
X0341669Y0171708D01*
X0341826Y0171646D01*
X0341981Y0171579D01*
X0342135Y0171508D01*
X0342287Y0171434D01*
X0342437Y0171356D01*
X0342585Y0171275D01*
X0342731Y0171190D01*
X0342875Y0171101D01*
X0343017Y0171009D01*
X0343156Y0170913D01*
X0343293Y0170814D01*
X0343428Y0170712D01*
X0343560Y0170606D01*
X0343689Y0170497D01*
X0343816Y0170385D01*
X0343940Y0170270D01*
X0344061Y0170152D01*
X0344179Y0170031D01*
X0344294Y0169907D01*
X0344406Y0169780D01*
X0344515Y0169651D01*
X0344621Y0169519D01*
X0344723Y0169384D01*
X0344822Y0169247D01*
X0344918Y0169108D01*
X0345010Y0168966D01*
X0345099Y0168822D01*
X0345184Y0168676D01*
X0345265Y0168528D01*
X0345343Y0168378D01*
X0345417Y0168226D01*
X0345488Y0168072D01*
X0345555Y0167917D01*
X0345617Y0167760D01*
X0345676Y0167601D01*
X0345731Y0167441D01*
X0345782Y0167280D01*
X0345829Y0167118D01*
X0345873Y0166954D01*
X0345912Y0166790D01*
X0345947Y0166624D01*
X0345978Y0166458D01*
X0346004Y0166291D01*
X0346027Y0166123D01*
X0346046Y0165955D01*
X0346060Y0165787D01*
X0346071Y0165618D01*
X0346077Y0165449D01*
X0346079Y0165280D01*
X0346077Y0165111D01*
X0346071Y0164942D01*
X0346060Y0164773D01*
X0346046Y0164605D01*
X0346027Y0164437D01*
X0346004Y0164269D01*
X0345978Y0164102D01*
X0345947Y0163936D01*
X0345912Y0163770D01*
X0345873Y0163606D01*
X0345829Y0163442D01*
X0345782Y0163280D01*
X0345731Y0163119D01*
X0345676Y0162959D01*
X0345617Y0162800D01*
X0345555Y0162643D01*
X0345488Y0162488D01*
X0345417Y0162334D01*
X0345343Y0162182D01*
X0345265Y0162032D01*
X0345184Y0161884D01*
X0345099Y0161738D01*
X0345010Y0161594D01*
X0344918Y0161452D01*
X0344822Y0161313D01*
X0344723Y0161176D01*
X0344621Y0161041D01*
X0344515Y0160909D01*
X0344406Y0160780D01*
X0344294Y0160653D01*
X0344179Y0160529D01*
X0344061Y0160408D01*
X0343940Y0160290D01*
X0343816Y0160175D01*
X0343689Y0160063D01*
X0343560Y0159954D01*
X0343428Y0159848D01*
X0343293Y0159746D01*
X0343156Y0159647D01*
X0343017Y0159551D01*
X0342875Y0159459D01*
X0342731Y0159370D01*
X0342585Y0159285D01*
X0342437Y0159204D01*
X0342287Y0159126D01*
X0342135Y0159052D01*
X0341981Y0158981D01*
X0341826Y0158914D01*
X0341669Y0158852D01*
X0341510Y0158793D01*
X0341350Y0158738D01*
X0341189Y0158687D01*
X0341027Y0158640D01*
X0340863Y0158596D01*
X0340699Y0158557D01*
X0340533Y0158522D01*
X0340367Y0158491D01*
X0340200Y0158465D01*
X0340032Y0158442D01*
X0339864Y0158423D01*
X0339696Y0158409D01*
X0339527Y0158398D01*
X0339358Y0158392D01*
X0339189Y0158390D01*
X0339020Y0158392D01*
X0338851Y0158398D01*
X0338682Y0158409D01*
X0338514Y0158423D01*
X0338346Y0158442D01*
X0338178Y0158465D01*
X0338011Y0158491D01*
X0337845Y0158522D01*
X0337679Y0158557D01*
X0337515Y0158596D01*
X0337351Y0158640D01*
X0337189Y0158687D01*
X0337028Y0158738D01*
X0336868Y0158793D01*
X0336709Y0158852D01*
X0336552Y0158914D01*
X0336397Y0158981D01*
X0336243Y0159052D01*
X0336091Y0159126D01*
X0335941Y0159204D01*
X0335793Y0159285D01*
X0335647Y0159370D01*
X0335503Y0159459D01*
X0335361Y0159551D01*
X0335222Y0159647D01*
X0335085Y0159746D01*
X0334950Y0159848D01*
X0334818Y0159954D01*
X0334689Y0160063D01*
X0334562Y0160175D01*
X0334438Y0160290D01*
X0334317Y0160408D01*
X0334199Y0160529D01*
X0334084Y0160653D01*
X0333972Y0160780D01*
X0333863Y0160909D01*
X0333757Y0161041D01*
X0333655Y0161176D01*
X0333556Y0161313D01*
X0333460Y0161452D01*
X0333368Y0161594D01*
X0333279Y0161738D01*
X0333194Y0161884D01*
X0333113Y0162032D01*
X0333035Y0162182D01*
X0332961Y0162334D01*
X0332890Y0162488D01*
X0332823Y0162643D01*
X0332761Y0162800D01*
X0332702Y0162959D01*
X0332647Y0163119D01*
X0332596Y0163280D01*
X0332549Y0163442D01*
X0332505Y0163606D01*
X0332466Y0163770D01*
X0332431Y0163936D01*
X0332400Y0164102D01*
X0332374Y0164269D01*
X0332351Y0164437D01*
X0332332Y0164605D01*
X0332318Y0164773D01*
X0332307Y0164942D01*
X0332301Y0165111D01*
X0332299Y0165280D01*
X0283874Y0034571D02*
X0283878Y0034885D01*
X0283889Y0035199D01*
X0283909Y0035512D01*
X0283936Y0035825D01*
X0283970Y0036137D01*
X0284012Y0036448D01*
X0284062Y0036758D01*
X0284120Y0037067D01*
X0284185Y0037374D01*
X0284257Y0037680D01*
X0284337Y0037984D01*
X0284425Y0038285D01*
X0284520Y0038585D01*
X0284622Y0038882D01*
X0284731Y0039176D01*
X0284848Y0039467D01*
X0284972Y0039756D01*
X0285102Y0040042D01*
X0285240Y0040324D01*
X0285385Y0040603D01*
X0285536Y0040878D01*
X0285694Y0041149D01*
X0285859Y0041416D01*
X0286030Y0041680D01*
X0286208Y0041938D01*
X0286392Y0042193D01*
X0286582Y0042443D01*
X0286778Y0042688D01*
X0286981Y0042928D01*
X0287189Y0043164D01*
X0287402Y0043394D01*
X0287622Y0043618D01*
X0287846Y0043838D01*
X0288076Y0044051D01*
X0288312Y0044259D01*
X0288552Y0044462D01*
X0288797Y0044658D01*
X0289047Y0044848D01*
X0289302Y0045032D01*
X0289560Y0045210D01*
X0289824Y0045381D01*
X0290091Y0045546D01*
X0290362Y0045704D01*
X0290637Y0045855D01*
X0290916Y0046000D01*
X0291198Y0046138D01*
X0291484Y0046268D01*
X0291773Y0046392D01*
X0292064Y0046509D01*
X0292358Y0046618D01*
X0292655Y0046720D01*
X0292955Y0046815D01*
X0293256Y0046903D01*
X0293560Y0046983D01*
X0293866Y0047055D01*
X0294173Y0047120D01*
X0294482Y0047178D01*
X0294792Y0047228D01*
X0295103Y0047270D01*
X0295415Y0047304D01*
X0295728Y0047331D01*
X0296041Y0047351D01*
X0296355Y0047362D01*
X0296669Y0047366D01*
X0296983Y0047362D01*
X0297297Y0047351D01*
X0297610Y0047331D01*
X0297923Y0047304D01*
X0298235Y0047270D01*
X0298546Y0047228D01*
X0298856Y0047178D01*
X0299165Y0047120D01*
X0299472Y0047055D01*
X0299778Y0046983D01*
X0300082Y0046903D01*
X0300383Y0046815D01*
X0300683Y0046720D01*
X0300980Y0046618D01*
X0301274Y0046509D01*
X0301565Y0046392D01*
X0301854Y0046268D01*
X0302140Y0046138D01*
X0302422Y0046000D01*
X0302701Y0045855D01*
X0302976Y0045704D01*
X0303247Y0045546D01*
X0303514Y0045381D01*
X0303778Y0045210D01*
X0304036Y0045032D01*
X0304291Y0044848D01*
X0304541Y0044658D01*
X0304786Y0044462D01*
X0305026Y0044259D01*
X0305262Y0044051D01*
X0305492Y0043838D01*
X0305716Y0043618D01*
X0305936Y0043394D01*
X0306149Y0043164D01*
X0306357Y0042928D01*
X0306560Y0042688D01*
X0306756Y0042443D01*
X0306946Y0042193D01*
X0307130Y0041938D01*
X0307308Y0041680D01*
X0307479Y0041416D01*
X0307644Y0041149D01*
X0307802Y0040878D01*
X0307953Y0040603D01*
X0308098Y0040324D01*
X0308236Y0040042D01*
X0308366Y0039756D01*
X0308490Y0039467D01*
X0308607Y0039176D01*
X0308716Y0038882D01*
X0308818Y0038585D01*
X0308913Y0038285D01*
X0309001Y0037984D01*
X0309081Y0037680D01*
X0309153Y0037374D01*
X0309218Y0037067D01*
X0309276Y0036758D01*
X0309326Y0036448D01*
X0309368Y0036137D01*
X0309402Y0035825D01*
X0309429Y0035512D01*
X0309449Y0035199D01*
X0309460Y0034885D01*
X0309464Y0034571D01*
X0309460Y0034257D01*
X0309449Y0033943D01*
X0309429Y0033630D01*
X0309402Y0033317D01*
X0309368Y0033005D01*
X0309326Y0032694D01*
X0309276Y0032384D01*
X0309218Y0032075D01*
X0309153Y0031768D01*
X0309081Y0031462D01*
X0309001Y0031158D01*
X0308913Y0030857D01*
X0308818Y0030557D01*
X0308716Y0030260D01*
X0308607Y0029966D01*
X0308490Y0029675D01*
X0308366Y0029386D01*
X0308236Y0029100D01*
X0308098Y0028818D01*
X0307953Y0028539D01*
X0307802Y0028264D01*
X0307644Y0027993D01*
X0307479Y0027726D01*
X0307308Y0027462D01*
X0307130Y0027204D01*
X0306946Y0026949D01*
X0306756Y0026699D01*
X0306560Y0026454D01*
X0306357Y0026214D01*
X0306149Y0025978D01*
X0305936Y0025748D01*
X0305716Y0025524D01*
X0305492Y0025304D01*
X0305262Y0025091D01*
X0305026Y0024883D01*
X0304786Y0024680D01*
X0304541Y0024484D01*
X0304291Y0024294D01*
X0304036Y0024110D01*
X0303778Y0023932D01*
X0303514Y0023761D01*
X0303247Y0023596D01*
X0302976Y0023438D01*
X0302701Y0023287D01*
X0302422Y0023142D01*
X0302140Y0023004D01*
X0301854Y0022874D01*
X0301565Y0022750D01*
X0301274Y0022633D01*
X0300980Y0022524D01*
X0300683Y0022422D01*
X0300383Y0022327D01*
X0300082Y0022239D01*
X0299778Y0022159D01*
X0299472Y0022087D01*
X0299165Y0022022D01*
X0298856Y0021964D01*
X0298546Y0021914D01*
X0298235Y0021872D01*
X0297923Y0021838D01*
X0297610Y0021811D01*
X0297297Y0021791D01*
X0296983Y0021780D01*
X0296669Y0021776D01*
X0296355Y0021780D01*
X0296041Y0021791D01*
X0295728Y0021811D01*
X0295415Y0021838D01*
X0295103Y0021872D01*
X0294792Y0021914D01*
X0294482Y0021964D01*
X0294173Y0022022D01*
X0293866Y0022087D01*
X0293560Y0022159D01*
X0293256Y0022239D01*
X0292955Y0022327D01*
X0292655Y0022422D01*
X0292358Y0022524D01*
X0292064Y0022633D01*
X0291773Y0022750D01*
X0291484Y0022874D01*
X0291198Y0023004D01*
X0290916Y0023142D01*
X0290637Y0023287D01*
X0290362Y0023438D01*
X0290091Y0023596D01*
X0289824Y0023761D01*
X0289560Y0023932D01*
X0289302Y0024110D01*
X0289047Y0024294D01*
X0288797Y0024484D01*
X0288552Y0024680D01*
X0288312Y0024883D01*
X0288076Y0025091D01*
X0287846Y0025304D01*
X0287622Y0025524D01*
X0287402Y0025748D01*
X0287189Y0025978D01*
X0286981Y0026214D01*
X0286778Y0026454D01*
X0286582Y0026699D01*
X0286392Y0026949D01*
X0286208Y0027204D01*
X0286030Y0027462D01*
X0285859Y0027726D01*
X0285694Y0027993D01*
X0285536Y0028264D01*
X0285385Y0028539D01*
X0285240Y0028818D01*
X0285102Y0029100D01*
X0284972Y0029386D01*
X0284848Y0029675D01*
X0284731Y0029966D01*
X0284622Y0030260D01*
X0284520Y0030557D01*
X0284425Y0030857D01*
X0284337Y0031158D01*
X0284257Y0031462D01*
X0284185Y0031768D01*
X0284120Y0032075D01*
X0284062Y0032384D01*
X0284012Y0032694D01*
X0283970Y0033005D01*
X0283936Y0033317D01*
X0283909Y0033630D01*
X0283889Y0033943D01*
X0283878Y0034257D01*
X0283874Y0034571D01*
X0332299Y0027484D02*
X0332301Y0027653D01*
X0332307Y0027822D01*
X0332318Y0027991D01*
X0332332Y0028159D01*
X0332351Y0028327D01*
X0332374Y0028495D01*
X0332400Y0028662D01*
X0332431Y0028828D01*
X0332466Y0028994D01*
X0332505Y0029158D01*
X0332549Y0029322D01*
X0332596Y0029484D01*
X0332647Y0029645D01*
X0332702Y0029805D01*
X0332761Y0029964D01*
X0332823Y0030121D01*
X0332890Y0030276D01*
X0332961Y0030430D01*
X0333035Y0030582D01*
X0333113Y0030732D01*
X0333194Y0030880D01*
X0333279Y0031026D01*
X0333368Y0031170D01*
X0333460Y0031312D01*
X0333556Y0031451D01*
X0333655Y0031588D01*
X0333757Y0031723D01*
X0333863Y0031855D01*
X0333972Y0031984D01*
X0334084Y0032111D01*
X0334199Y0032235D01*
X0334317Y0032356D01*
X0334438Y0032474D01*
X0334562Y0032589D01*
X0334689Y0032701D01*
X0334818Y0032810D01*
X0334950Y0032916D01*
X0335085Y0033018D01*
X0335222Y0033117D01*
X0335361Y0033213D01*
X0335503Y0033305D01*
X0335647Y0033394D01*
X0335793Y0033479D01*
X0335941Y0033560D01*
X0336091Y0033638D01*
X0336243Y0033712D01*
X0336397Y0033783D01*
X0336552Y0033850D01*
X0336709Y0033912D01*
X0336868Y0033971D01*
X0337028Y0034026D01*
X0337189Y0034077D01*
X0337351Y0034124D01*
X0337515Y0034168D01*
X0337679Y0034207D01*
X0337845Y0034242D01*
X0338011Y0034273D01*
X0338178Y0034299D01*
X0338346Y0034322D01*
X0338514Y0034341D01*
X0338682Y0034355D01*
X0338851Y0034366D01*
X0339020Y0034372D01*
X0339189Y0034374D01*
X0339358Y0034372D01*
X0339527Y0034366D01*
X0339696Y0034355D01*
X0339864Y0034341D01*
X0340032Y0034322D01*
X0340200Y0034299D01*
X0340367Y0034273D01*
X0340533Y0034242D01*
X0340699Y0034207D01*
X0340863Y0034168D01*
X0341027Y0034124D01*
X0341189Y0034077D01*
X0341350Y0034026D01*
X0341510Y0033971D01*
X0341669Y0033912D01*
X0341826Y0033850D01*
X0341981Y0033783D01*
X0342135Y0033712D01*
X0342287Y0033638D01*
X0342437Y0033560D01*
X0342585Y0033479D01*
X0342731Y0033394D01*
X0342875Y0033305D01*
X0343017Y0033213D01*
X0343156Y0033117D01*
X0343293Y0033018D01*
X0343428Y0032916D01*
X0343560Y0032810D01*
X0343689Y0032701D01*
X0343816Y0032589D01*
X0343940Y0032474D01*
X0344061Y0032356D01*
X0344179Y0032235D01*
X0344294Y0032111D01*
X0344406Y0031984D01*
X0344515Y0031855D01*
X0344621Y0031723D01*
X0344723Y0031588D01*
X0344822Y0031451D01*
X0344918Y0031312D01*
X0345010Y0031170D01*
X0345099Y0031026D01*
X0345184Y0030880D01*
X0345265Y0030732D01*
X0345343Y0030582D01*
X0345417Y0030430D01*
X0345488Y0030276D01*
X0345555Y0030121D01*
X0345617Y0029964D01*
X0345676Y0029805D01*
X0345731Y0029645D01*
X0345782Y0029484D01*
X0345829Y0029322D01*
X0345873Y0029158D01*
X0345912Y0028994D01*
X0345947Y0028828D01*
X0345978Y0028662D01*
X0346004Y0028495D01*
X0346027Y0028327D01*
X0346046Y0028159D01*
X0346060Y0027991D01*
X0346071Y0027822D01*
X0346077Y0027653D01*
X0346079Y0027484D01*
X0346077Y0027315D01*
X0346071Y0027146D01*
X0346060Y0026977D01*
X0346046Y0026809D01*
X0346027Y0026641D01*
X0346004Y0026473D01*
X0345978Y0026306D01*
X0345947Y0026140D01*
X0345912Y0025974D01*
X0345873Y0025810D01*
X0345829Y0025646D01*
X0345782Y0025484D01*
X0345731Y0025323D01*
X0345676Y0025163D01*
X0345617Y0025004D01*
X0345555Y0024847D01*
X0345488Y0024692D01*
X0345417Y0024538D01*
X0345343Y0024386D01*
X0345265Y0024236D01*
X0345184Y0024088D01*
X0345099Y0023942D01*
X0345010Y0023798D01*
X0344918Y0023656D01*
X0344822Y0023517D01*
X0344723Y0023380D01*
X0344621Y0023245D01*
X0344515Y0023113D01*
X0344406Y0022984D01*
X0344294Y0022857D01*
X0344179Y0022733D01*
X0344061Y0022612D01*
X0343940Y0022494D01*
X0343816Y0022379D01*
X0343689Y0022267D01*
X0343560Y0022158D01*
X0343428Y0022052D01*
X0343293Y0021950D01*
X0343156Y0021851D01*
X0343017Y0021755D01*
X0342875Y0021663D01*
X0342731Y0021574D01*
X0342585Y0021489D01*
X0342437Y0021408D01*
X0342287Y0021330D01*
X0342135Y0021256D01*
X0341981Y0021185D01*
X0341826Y0021118D01*
X0341669Y0021056D01*
X0341510Y0020997D01*
X0341350Y0020942D01*
X0341189Y0020891D01*
X0341027Y0020844D01*
X0340863Y0020800D01*
X0340699Y0020761D01*
X0340533Y0020726D01*
X0340367Y0020695D01*
X0340200Y0020669D01*
X0340032Y0020646D01*
X0339864Y0020627D01*
X0339696Y0020613D01*
X0339527Y0020602D01*
X0339358Y0020596D01*
X0339189Y0020594D01*
X0339020Y0020596D01*
X0338851Y0020602D01*
X0338682Y0020613D01*
X0338514Y0020627D01*
X0338346Y0020646D01*
X0338178Y0020669D01*
X0338011Y0020695D01*
X0337845Y0020726D01*
X0337679Y0020761D01*
X0337515Y0020800D01*
X0337351Y0020844D01*
X0337189Y0020891D01*
X0337028Y0020942D01*
X0336868Y0020997D01*
X0336709Y0021056D01*
X0336552Y0021118D01*
X0336397Y0021185D01*
X0336243Y0021256D01*
X0336091Y0021330D01*
X0335941Y0021408D01*
X0335793Y0021489D01*
X0335647Y0021574D01*
X0335503Y0021663D01*
X0335361Y0021755D01*
X0335222Y0021851D01*
X0335085Y0021950D01*
X0334950Y0022052D01*
X0334818Y0022158D01*
X0334689Y0022267D01*
X0334562Y0022379D01*
X0334438Y0022494D01*
X0334317Y0022612D01*
X0334199Y0022733D01*
X0334084Y0022857D01*
X0333972Y0022984D01*
X0333863Y0023113D01*
X0333757Y0023245D01*
X0333655Y0023380D01*
X0333556Y0023517D01*
X0333460Y0023656D01*
X0333368Y0023798D01*
X0333279Y0023942D01*
X0333194Y0024088D01*
X0333113Y0024236D01*
X0333035Y0024386D01*
X0332961Y0024538D01*
X0332890Y0024692D01*
X0332823Y0024847D01*
X0332761Y0025004D01*
X0332702Y0025163D01*
X0332647Y0025323D01*
X0332596Y0025484D01*
X0332549Y0025646D01*
X0332505Y0025810D01*
X0332466Y0025974D01*
X0332431Y0026140D01*
X0332400Y0026306D01*
X0332374Y0026473D01*
X0332351Y0026641D01*
X0332332Y0026809D01*
X0332318Y0026977D01*
X0332307Y0027146D01*
X0332301Y0027315D01*
X0332299Y0027484D01*
X0383874Y0034571D02*
X0383878Y0034885D01*
X0383889Y0035199D01*
X0383909Y0035512D01*
X0383936Y0035825D01*
X0383970Y0036137D01*
X0384012Y0036448D01*
X0384062Y0036758D01*
X0384120Y0037067D01*
X0384185Y0037374D01*
X0384257Y0037680D01*
X0384337Y0037984D01*
X0384425Y0038285D01*
X0384520Y0038585D01*
X0384622Y0038882D01*
X0384731Y0039176D01*
X0384848Y0039467D01*
X0384972Y0039756D01*
X0385102Y0040042D01*
X0385240Y0040324D01*
X0385385Y0040603D01*
X0385536Y0040878D01*
X0385694Y0041149D01*
X0385859Y0041416D01*
X0386030Y0041680D01*
X0386208Y0041938D01*
X0386392Y0042193D01*
X0386582Y0042443D01*
X0386778Y0042688D01*
X0386981Y0042928D01*
X0387189Y0043164D01*
X0387402Y0043394D01*
X0387622Y0043618D01*
X0387846Y0043838D01*
X0388076Y0044051D01*
X0388312Y0044259D01*
X0388552Y0044462D01*
X0388797Y0044658D01*
X0389047Y0044848D01*
X0389302Y0045032D01*
X0389560Y0045210D01*
X0389824Y0045381D01*
X0390091Y0045546D01*
X0390362Y0045704D01*
X0390637Y0045855D01*
X0390916Y0046000D01*
X0391198Y0046138D01*
X0391484Y0046268D01*
X0391773Y0046392D01*
X0392064Y0046509D01*
X0392358Y0046618D01*
X0392655Y0046720D01*
X0392955Y0046815D01*
X0393256Y0046903D01*
X0393560Y0046983D01*
X0393866Y0047055D01*
X0394173Y0047120D01*
X0394482Y0047178D01*
X0394792Y0047228D01*
X0395103Y0047270D01*
X0395415Y0047304D01*
X0395728Y0047331D01*
X0396041Y0047351D01*
X0396355Y0047362D01*
X0396669Y0047366D01*
X0396983Y0047362D01*
X0397297Y0047351D01*
X0397610Y0047331D01*
X0397923Y0047304D01*
X0398235Y0047270D01*
X0398546Y0047228D01*
X0398856Y0047178D01*
X0399165Y0047120D01*
X0399472Y0047055D01*
X0399778Y0046983D01*
X0400082Y0046903D01*
X0400383Y0046815D01*
X0400683Y0046720D01*
X0400980Y0046618D01*
X0401274Y0046509D01*
X0401565Y0046392D01*
X0401854Y0046268D01*
X0402140Y0046138D01*
X0402422Y0046000D01*
X0402701Y0045855D01*
X0402976Y0045704D01*
X0403247Y0045546D01*
X0403514Y0045381D01*
X0403778Y0045210D01*
X0404036Y0045032D01*
X0404291Y0044848D01*
X0404541Y0044658D01*
X0404786Y0044462D01*
X0405026Y0044259D01*
X0405262Y0044051D01*
X0405492Y0043838D01*
X0405716Y0043618D01*
X0405936Y0043394D01*
X0406149Y0043164D01*
X0406357Y0042928D01*
X0406560Y0042688D01*
X0406756Y0042443D01*
X0406946Y0042193D01*
X0407130Y0041938D01*
X0407308Y0041680D01*
X0407479Y0041416D01*
X0407644Y0041149D01*
X0407802Y0040878D01*
X0407953Y0040603D01*
X0408098Y0040324D01*
X0408236Y0040042D01*
X0408366Y0039756D01*
X0408490Y0039467D01*
X0408607Y0039176D01*
X0408716Y0038882D01*
X0408818Y0038585D01*
X0408913Y0038285D01*
X0409001Y0037984D01*
X0409081Y0037680D01*
X0409153Y0037374D01*
X0409218Y0037067D01*
X0409276Y0036758D01*
X0409326Y0036448D01*
X0409368Y0036137D01*
X0409402Y0035825D01*
X0409429Y0035512D01*
X0409449Y0035199D01*
X0409460Y0034885D01*
X0409464Y0034571D01*
X0409460Y0034257D01*
X0409449Y0033943D01*
X0409429Y0033630D01*
X0409402Y0033317D01*
X0409368Y0033005D01*
X0409326Y0032694D01*
X0409276Y0032384D01*
X0409218Y0032075D01*
X0409153Y0031768D01*
X0409081Y0031462D01*
X0409001Y0031158D01*
X0408913Y0030857D01*
X0408818Y0030557D01*
X0408716Y0030260D01*
X0408607Y0029966D01*
X0408490Y0029675D01*
X0408366Y0029386D01*
X0408236Y0029100D01*
X0408098Y0028818D01*
X0407953Y0028539D01*
X0407802Y0028264D01*
X0407644Y0027993D01*
X0407479Y0027726D01*
X0407308Y0027462D01*
X0407130Y0027204D01*
X0406946Y0026949D01*
X0406756Y0026699D01*
X0406560Y0026454D01*
X0406357Y0026214D01*
X0406149Y0025978D01*
X0405936Y0025748D01*
X0405716Y0025524D01*
X0405492Y0025304D01*
X0405262Y0025091D01*
X0405026Y0024883D01*
X0404786Y0024680D01*
X0404541Y0024484D01*
X0404291Y0024294D01*
X0404036Y0024110D01*
X0403778Y0023932D01*
X0403514Y0023761D01*
X0403247Y0023596D01*
X0402976Y0023438D01*
X0402701Y0023287D01*
X0402422Y0023142D01*
X0402140Y0023004D01*
X0401854Y0022874D01*
X0401565Y0022750D01*
X0401274Y0022633D01*
X0400980Y0022524D01*
X0400683Y0022422D01*
X0400383Y0022327D01*
X0400082Y0022239D01*
X0399778Y0022159D01*
X0399472Y0022087D01*
X0399165Y0022022D01*
X0398856Y0021964D01*
X0398546Y0021914D01*
X0398235Y0021872D01*
X0397923Y0021838D01*
X0397610Y0021811D01*
X0397297Y0021791D01*
X0396983Y0021780D01*
X0396669Y0021776D01*
X0396355Y0021780D01*
X0396041Y0021791D01*
X0395728Y0021811D01*
X0395415Y0021838D01*
X0395103Y0021872D01*
X0394792Y0021914D01*
X0394482Y0021964D01*
X0394173Y0022022D01*
X0393866Y0022087D01*
X0393560Y0022159D01*
X0393256Y0022239D01*
X0392955Y0022327D01*
X0392655Y0022422D01*
X0392358Y0022524D01*
X0392064Y0022633D01*
X0391773Y0022750D01*
X0391484Y0022874D01*
X0391198Y0023004D01*
X0390916Y0023142D01*
X0390637Y0023287D01*
X0390362Y0023438D01*
X0390091Y0023596D01*
X0389824Y0023761D01*
X0389560Y0023932D01*
X0389302Y0024110D01*
X0389047Y0024294D01*
X0388797Y0024484D01*
X0388552Y0024680D01*
X0388312Y0024883D01*
X0388076Y0025091D01*
X0387846Y0025304D01*
X0387622Y0025524D01*
X0387402Y0025748D01*
X0387189Y0025978D01*
X0386981Y0026214D01*
X0386778Y0026454D01*
X0386582Y0026699D01*
X0386392Y0026949D01*
X0386208Y0027204D01*
X0386030Y0027462D01*
X0385859Y0027726D01*
X0385694Y0027993D01*
X0385536Y0028264D01*
X0385385Y0028539D01*
X0385240Y0028818D01*
X0385102Y0029100D01*
X0384972Y0029386D01*
X0384848Y0029675D01*
X0384731Y0029966D01*
X0384622Y0030260D01*
X0384520Y0030557D01*
X0384425Y0030857D01*
X0384337Y0031158D01*
X0384257Y0031462D01*
X0384185Y0031768D01*
X0384120Y0032075D01*
X0384062Y0032384D01*
X0384012Y0032694D01*
X0383970Y0033005D01*
X0383936Y0033317D01*
X0383909Y0033630D01*
X0383889Y0033943D01*
X0383878Y0034257D01*
X0383874Y0034571D01*
X0483874Y0034571D02*
X0483878Y0034885D01*
X0483889Y0035199D01*
X0483909Y0035512D01*
X0483936Y0035825D01*
X0483970Y0036137D01*
X0484012Y0036448D01*
X0484062Y0036758D01*
X0484120Y0037067D01*
X0484185Y0037374D01*
X0484257Y0037680D01*
X0484337Y0037984D01*
X0484425Y0038285D01*
X0484520Y0038585D01*
X0484622Y0038882D01*
X0484731Y0039176D01*
X0484848Y0039467D01*
X0484972Y0039756D01*
X0485102Y0040042D01*
X0485240Y0040324D01*
X0485385Y0040603D01*
X0485536Y0040878D01*
X0485694Y0041149D01*
X0485859Y0041416D01*
X0486030Y0041680D01*
X0486208Y0041938D01*
X0486392Y0042193D01*
X0486582Y0042443D01*
X0486778Y0042688D01*
X0486981Y0042928D01*
X0487189Y0043164D01*
X0487402Y0043394D01*
X0487622Y0043618D01*
X0487846Y0043838D01*
X0488076Y0044051D01*
X0488312Y0044259D01*
X0488552Y0044462D01*
X0488797Y0044658D01*
X0489047Y0044848D01*
X0489302Y0045032D01*
X0489560Y0045210D01*
X0489824Y0045381D01*
X0490091Y0045546D01*
X0490362Y0045704D01*
X0490637Y0045855D01*
X0490916Y0046000D01*
X0491198Y0046138D01*
X0491484Y0046268D01*
X0491773Y0046392D01*
X0492064Y0046509D01*
X0492358Y0046618D01*
X0492655Y0046720D01*
X0492955Y0046815D01*
X0493256Y0046903D01*
X0493560Y0046983D01*
X0493866Y0047055D01*
X0494173Y0047120D01*
X0494482Y0047178D01*
X0494792Y0047228D01*
X0495103Y0047270D01*
X0495415Y0047304D01*
X0495728Y0047331D01*
X0496041Y0047351D01*
X0496355Y0047362D01*
X0496669Y0047366D01*
X0496983Y0047362D01*
X0497297Y0047351D01*
X0497610Y0047331D01*
X0497923Y0047304D01*
X0498235Y0047270D01*
X0498546Y0047228D01*
X0498856Y0047178D01*
X0499165Y0047120D01*
X0499472Y0047055D01*
X0499778Y0046983D01*
X0500082Y0046903D01*
X0500383Y0046815D01*
X0500683Y0046720D01*
X0500980Y0046618D01*
X0501274Y0046509D01*
X0501565Y0046392D01*
X0501854Y0046268D01*
X0502140Y0046138D01*
X0502422Y0046000D01*
X0502701Y0045855D01*
X0502976Y0045704D01*
X0503247Y0045546D01*
X0503514Y0045381D01*
X0503778Y0045210D01*
X0504036Y0045032D01*
X0504291Y0044848D01*
X0504541Y0044658D01*
X0504786Y0044462D01*
X0505026Y0044259D01*
X0505262Y0044051D01*
X0505492Y0043838D01*
X0505716Y0043618D01*
X0505936Y0043394D01*
X0506149Y0043164D01*
X0506357Y0042928D01*
X0506560Y0042688D01*
X0506756Y0042443D01*
X0506946Y0042193D01*
X0507130Y0041938D01*
X0507308Y0041680D01*
X0507479Y0041416D01*
X0507644Y0041149D01*
X0507802Y0040878D01*
X0507953Y0040603D01*
X0508098Y0040324D01*
X0508236Y0040042D01*
X0508366Y0039756D01*
X0508490Y0039467D01*
X0508607Y0039176D01*
X0508716Y0038882D01*
X0508818Y0038585D01*
X0508913Y0038285D01*
X0509001Y0037984D01*
X0509081Y0037680D01*
X0509153Y0037374D01*
X0509218Y0037067D01*
X0509276Y0036758D01*
X0509326Y0036448D01*
X0509368Y0036137D01*
X0509402Y0035825D01*
X0509429Y0035512D01*
X0509449Y0035199D01*
X0509460Y0034885D01*
X0509464Y0034571D01*
X0509460Y0034257D01*
X0509449Y0033943D01*
X0509429Y0033630D01*
X0509402Y0033317D01*
X0509368Y0033005D01*
X0509326Y0032694D01*
X0509276Y0032384D01*
X0509218Y0032075D01*
X0509153Y0031768D01*
X0509081Y0031462D01*
X0509001Y0031158D01*
X0508913Y0030857D01*
X0508818Y0030557D01*
X0508716Y0030260D01*
X0508607Y0029966D01*
X0508490Y0029675D01*
X0508366Y0029386D01*
X0508236Y0029100D01*
X0508098Y0028818D01*
X0507953Y0028539D01*
X0507802Y0028264D01*
X0507644Y0027993D01*
X0507479Y0027726D01*
X0507308Y0027462D01*
X0507130Y0027204D01*
X0506946Y0026949D01*
X0506756Y0026699D01*
X0506560Y0026454D01*
X0506357Y0026214D01*
X0506149Y0025978D01*
X0505936Y0025748D01*
X0505716Y0025524D01*
X0505492Y0025304D01*
X0505262Y0025091D01*
X0505026Y0024883D01*
X0504786Y0024680D01*
X0504541Y0024484D01*
X0504291Y0024294D01*
X0504036Y0024110D01*
X0503778Y0023932D01*
X0503514Y0023761D01*
X0503247Y0023596D01*
X0502976Y0023438D01*
X0502701Y0023287D01*
X0502422Y0023142D01*
X0502140Y0023004D01*
X0501854Y0022874D01*
X0501565Y0022750D01*
X0501274Y0022633D01*
X0500980Y0022524D01*
X0500683Y0022422D01*
X0500383Y0022327D01*
X0500082Y0022239D01*
X0499778Y0022159D01*
X0499472Y0022087D01*
X0499165Y0022022D01*
X0498856Y0021964D01*
X0498546Y0021914D01*
X0498235Y0021872D01*
X0497923Y0021838D01*
X0497610Y0021811D01*
X0497297Y0021791D01*
X0496983Y0021780D01*
X0496669Y0021776D01*
X0496355Y0021780D01*
X0496041Y0021791D01*
X0495728Y0021811D01*
X0495415Y0021838D01*
X0495103Y0021872D01*
X0494792Y0021914D01*
X0494482Y0021964D01*
X0494173Y0022022D01*
X0493866Y0022087D01*
X0493560Y0022159D01*
X0493256Y0022239D01*
X0492955Y0022327D01*
X0492655Y0022422D01*
X0492358Y0022524D01*
X0492064Y0022633D01*
X0491773Y0022750D01*
X0491484Y0022874D01*
X0491198Y0023004D01*
X0490916Y0023142D01*
X0490637Y0023287D01*
X0490362Y0023438D01*
X0490091Y0023596D01*
X0489824Y0023761D01*
X0489560Y0023932D01*
X0489302Y0024110D01*
X0489047Y0024294D01*
X0488797Y0024484D01*
X0488552Y0024680D01*
X0488312Y0024883D01*
X0488076Y0025091D01*
X0487846Y0025304D01*
X0487622Y0025524D01*
X0487402Y0025748D01*
X0487189Y0025978D01*
X0486981Y0026214D01*
X0486778Y0026454D01*
X0486582Y0026699D01*
X0486392Y0026949D01*
X0486208Y0027204D01*
X0486030Y0027462D01*
X0485859Y0027726D01*
X0485694Y0027993D01*
X0485536Y0028264D01*
X0485385Y0028539D01*
X0485240Y0028818D01*
X0485102Y0029100D01*
X0484972Y0029386D01*
X0484848Y0029675D01*
X0484731Y0029966D01*
X0484622Y0030260D01*
X0484520Y0030557D01*
X0484425Y0030857D01*
X0484337Y0031158D01*
X0484257Y0031462D01*
X0484185Y0031768D01*
X0484120Y0032075D01*
X0484062Y0032384D01*
X0484012Y0032694D01*
X0483970Y0033005D01*
X0483936Y0033317D01*
X0483909Y0033630D01*
X0483889Y0033943D01*
X0483878Y0034257D01*
X0483874Y0034571D01*
X0529149Y0027484D02*
X0529151Y0027653D01*
X0529157Y0027822D01*
X0529168Y0027991D01*
X0529182Y0028159D01*
X0529201Y0028327D01*
X0529224Y0028495D01*
X0529250Y0028662D01*
X0529281Y0028828D01*
X0529316Y0028994D01*
X0529355Y0029158D01*
X0529399Y0029322D01*
X0529446Y0029484D01*
X0529497Y0029645D01*
X0529552Y0029805D01*
X0529611Y0029964D01*
X0529673Y0030121D01*
X0529740Y0030276D01*
X0529811Y0030430D01*
X0529885Y0030582D01*
X0529963Y0030732D01*
X0530044Y0030880D01*
X0530129Y0031026D01*
X0530218Y0031170D01*
X0530310Y0031312D01*
X0530406Y0031451D01*
X0530505Y0031588D01*
X0530607Y0031723D01*
X0530713Y0031855D01*
X0530822Y0031984D01*
X0530934Y0032111D01*
X0531049Y0032235D01*
X0531167Y0032356D01*
X0531288Y0032474D01*
X0531412Y0032589D01*
X0531539Y0032701D01*
X0531668Y0032810D01*
X0531800Y0032916D01*
X0531935Y0033018D01*
X0532072Y0033117D01*
X0532211Y0033213D01*
X0532353Y0033305D01*
X0532497Y0033394D01*
X0532643Y0033479D01*
X0532791Y0033560D01*
X0532941Y0033638D01*
X0533093Y0033712D01*
X0533247Y0033783D01*
X0533402Y0033850D01*
X0533559Y0033912D01*
X0533718Y0033971D01*
X0533878Y0034026D01*
X0534039Y0034077D01*
X0534201Y0034124D01*
X0534365Y0034168D01*
X0534529Y0034207D01*
X0534695Y0034242D01*
X0534861Y0034273D01*
X0535028Y0034299D01*
X0535196Y0034322D01*
X0535364Y0034341D01*
X0535532Y0034355D01*
X0535701Y0034366D01*
X0535870Y0034372D01*
X0536039Y0034374D01*
X0536208Y0034372D01*
X0536377Y0034366D01*
X0536546Y0034355D01*
X0536714Y0034341D01*
X0536882Y0034322D01*
X0537050Y0034299D01*
X0537217Y0034273D01*
X0537383Y0034242D01*
X0537549Y0034207D01*
X0537713Y0034168D01*
X0537877Y0034124D01*
X0538039Y0034077D01*
X0538200Y0034026D01*
X0538360Y0033971D01*
X0538519Y0033912D01*
X0538676Y0033850D01*
X0538831Y0033783D01*
X0538985Y0033712D01*
X0539137Y0033638D01*
X0539287Y0033560D01*
X0539435Y0033479D01*
X0539581Y0033394D01*
X0539725Y0033305D01*
X0539867Y0033213D01*
X0540006Y0033117D01*
X0540143Y0033018D01*
X0540278Y0032916D01*
X0540410Y0032810D01*
X0540539Y0032701D01*
X0540666Y0032589D01*
X0540790Y0032474D01*
X0540911Y0032356D01*
X0541029Y0032235D01*
X0541144Y0032111D01*
X0541256Y0031984D01*
X0541365Y0031855D01*
X0541471Y0031723D01*
X0541573Y0031588D01*
X0541672Y0031451D01*
X0541768Y0031312D01*
X0541860Y0031170D01*
X0541949Y0031026D01*
X0542034Y0030880D01*
X0542115Y0030732D01*
X0542193Y0030582D01*
X0542267Y0030430D01*
X0542338Y0030276D01*
X0542405Y0030121D01*
X0542467Y0029964D01*
X0542526Y0029805D01*
X0542581Y0029645D01*
X0542632Y0029484D01*
X0542679Y0029322D01*
X0542723Y0029158D01*
X0542762Y0028994D01*
X0542797Y0028828D01*
X0542828Y0028662D01*
X0542854Y0028495D01*
X0542877Y0028327D01*
X0542896Y0028159D01*
X0542910Y0027991D01*
X0542921Y0027822D01*
X0542927Y0027653D01*
X0542929Y0027484D01*
X0542927Y0027315D01*
X0542921Y0027146D01*
X0542910Y0026977D01*
X0542896Y0026809D01*
X0542877Y0026641D01*
X0542854Y0026473D01*
X0542828Y0026306D01*
X0542797Y0026140D01*
X0542762Y0025974D01*
X0542723Y0025810D01*
X0542679Y0025646D01*
X0542632Y0025484D01*
X0542581Y0025323D01*
X0542526Y0025163D01*
X0542467Y0025004D01*
X0542405Y0024847D01*
X0542338Y0024692D01*
X0542267Y0024538D01*
X0542193Y0024386D01*
X0542115Y0024236D01*
X0542034Y0024088D01*
X0541949Y0023942D01*
X0541860Y0023798D01*
X0541768Y0023656D01*
X0541672Y0023517D01*
X0541573Y0023380D01*
X0541471Y0023245D01*
X0541365Y0023113D01*
X0541256Y0022984D01*
X0541144Y0022857D01*
X0541029Y0022733D01*
X0540911Y0022612D01*
X0540790Y0022494D01*
X0540666Y0022379D01*
X0540539Y0022267D01*
X0540410Y0022158D01*
X0540278Y0022052D01*
X0540143Y0021950D01*
X0540006Y0021851D01*
X0539867Y0021755D01*
X0539725Y0021663D01*
X0539581Y0021574D01*
X0539435Y0021489D01*
X0539287Y0021408D01*
X0539137Y0021330D01*
X0538985Y0021256D01*
X0538831Y0021185D01*
X0538676Y0021118D01*
X0538519Y0021056D01*
X0538360Y0020997D01*
X0538200Y0020942D01*
X0538039Y0020891D01*
X0537877Y0020844D01*
X0537713Y0020800D01*
X0537549Y0020761D01*
X0537383Y0020726D01*
X0537217Y0020695D01*
X0537050Y0020669D01*
X0536882Y0020646D01*
X0536714Y0020627D01*
X0536546Y0020613D01*
X0536377Y0020602D01*
X0536208Y0020596D01*
X0536039Y0020594D01*
X0535870Y0020596D01*
X0535701Y0020602D01*
X0535532Y0020613D01*
X0535364Y0020627D01*
X0535196Y0020646D01*
X0535028Y0020669D01*
X0534861Y0020695D01*
X0534695Y0020726D01*
X0534529Y0020761D01*
X0534365Y0020800D01*
X0534201Y0020844D01*
X0534039Y0020891D01*
X0533878Y0020942D01*
X0533718Y0020997D01*
X0533559Y0021056D01*
X0533402Y0021118D01*
X0533247Y0021185D01*
X0533093Y0021256D01*
X0532941Y0021330D01*
X0532791Y0021408D01*
X0532643Y0021489D01*
X0532497Y0021574D01*
X0532353Y0021663D01*
X0532211Y0021755D01*
X0532072Y0021851D01*
X0531935Y0021950D01*
X0531800Y0022052D01*
X0531668Y0022158D01*
X0531539Y0022267D01*
X0531412Y0022379D01*
X0531288Y0022494D01*
X0531167Y0022612D01*
X0531049Y0022733D01*
X0530934Y0022857D01*
X0530822Y0022984D01*
X0530713Y0023113D01*
X0530607Y0023245D01*
X0530505Y0023380D01*
X0530406Y0023517D01*
X0530310Y0023656D01*
X0530218Y0023798D01*
X0530129Y0023942D01*
X0530044Y0024088D01*
X0529963Y0024236D01*
X0529885Y0024386D01*
X0529811Y0024538D01*
X0529740Y0024692D01*
X0529673Y0024847D01*
X0529611Y0025004D01*
X0529552Y0025163D01*
X0529497Y0025323D01*
X0529446Y0025484D01*
X0529399Y0025646D01*
X0529355Y0025810D01*
X0529316Y0025974D01*
X0529281Y0026140D01*
X0529250Y0026306D01*
X0529224Y0026473D01*
X0529201Y0026641D01*
X0529182Y0026809D01*
X0529168Y0026977D01*
X0529157Y0027146D01*
X0529151Y0027315D01*
X0529149Y0027484D01*
X0529149Y0283390D02*
X0529151Y0283559D01*
X0529157Y0283728D01*
X0529168Y0283897D01*
X0529182Y0284065D01*
X0529201Y0284233D01*
X0529224Y0284401D01*
X0529250Y0284568D01*
X0529281Y0284734D01*
X0529316Y0284900D01*
X0529355Y0285064D01*
X0529399Y0285228D01*
X0529446Y0285390D01*
X0529497Y0285551D01*
X0529552Y0285711D01*
X0529611Y0285870D01*
X0529673Y0286027D01*
X0529740Y0286182D01*
X0529811Y0286336D01*
X0529885Y0286488D01*
X0529963Y0286638D01*
X0530044Y0286786D01*
X0530129Y0286932D01*
X0530218Y0287076D01*
X0530310Y0287218D01*
X0530406Y0287357D01*
X0530505Y0287494D01*
X0530607Y0287629D01*
X0530713Y0287761D01*
X0530822Y0287890D01*
X0530934Y0288017D01*
X0531049Y0288141D01*
X0531167Y0288262D01*
X0531288Y0288380D01*
X0531412Y0288495D01*
X0531539Y0288607D01*
X0531668Y0288716D01*
X0531800Y0288822D01*
X0531935Y0288924D01*
X0532072Y0289023D01*
X0532211Y0289119D01*
X0532353Y0289211D01*
X0532497Y0289300D01*
X0532643Y0289385D01*
X0532791Y0289466D01*
X0532941Y0289544D01*
X0533093Y0289618D01*
X0533247Y0289689D01*
X0533402Y0289756D01*
X0533559Y0289818D01*
X0533718Y0289877D01*
X0533878Y0289932D01*
X0534039Y0289983D01*
X0534201Y0290030D01*
X0534365Y0290074D01*
X0534529Y0290113D01*
X0534695Y0290148D01*
X0534861Y0290179D01*
X0535028Y0290205D01*
X0535196Y0290228D01*
X0535364Y0290247D01*
X0535532Y0290261D01*
X0535701Y0290272D01*
X0535870Y0290278D01*
X0536039Y0290280D01*
X0536208Y0290278D01*
X0536377Y0290272D01*
X0536546Y0290261D01*
X0536714Y0290247D01*
X0536882Y0290228D01*
X0537050Y0290205D01*
X0537217Y0290179D01*
X0537383Y0290148D01*
X0537549Y0290113D01*
X0537713Y0290074D01*
X0537877Y0290030D01*
X0538039Y0289983D01*
X0538200Y0289932D01*
X0538360Y0289877D01*
X0538519Y0289818D01*
X0538676Y0289756D01*
X0538831Y0289689D01*
X0538985Y0289618D01*
X0539137Y0289544D01*
X0539287Y0289466D01*
X0539435Y0289385D01*
X0539581Y0289300D01*
X0539725Y0289211D01*
X0539867Y0289119D01*
X0540006Y0289023D01*
X0540143Y0288924D01*
X0540278Y0288822D01*
X0540410Y0288716D01*
X0540539Y0288607D01*
X0540666Y0288495D01*
X0540790Y0288380D01*
X0540911Y0288262D01*
X0541029Y0288141D01*
X0541144Y0288017D01*
X0541256Y0287890D01*
X0541365Y0287761D01*
X0541471Y0287629D01*
X0541573Y0287494D01*
X0541672Y0287357D01*
X0541768Y0287218D01*
X0541860Y0287076D01*
X0541949Y0286932D01*
X0542034Y0286786D01*
X0542115Y0286638D01*
X0542193Y0286488D01*
X0542267Y0286336D01*
X0542338Y0286182D01*
X0542405Y0286027D01*
X0542467Y0285870D01*
X0542526Y0285711D01*
X0542581Y0285551D01*
X0542632Y0285390D01*
X0542679Y0285228D01*
X0542723Y0285064D01*
X0542762Y0284900D01*
X0542797Y0284734D01*
X0542828Y0284568D01*
X0542854Y0284401D01*
X0542877Y0284233D01*
X0542896Y0284065D01*
X0542910Y0283897D01*
X0542921Y0283728D01*
X0542927Y0283559D01*
X0542929Y0283390D01*
X0542927Y0283221D01*
X0542921Y0283052D01*
X0542910Y0282883D01*
X0542896Y0282715D01*
X0542877Y0282547D01*
X0542854Y0282379D01*
X0542828Y0282212D01*
X0542797Y0282046D01*
X0542762Y0281880D01*
X0542723Y0281716D01*
X0542679Y0281552D01*
X0542632Y0281390D01*
X0542581Y0281229D01*
X0542526Y0281069D01*
X0542467Y0280910D01*
X0542405Y0280753D01*
X0542338Y0280598D01*
X0542267Y0280444D01*
X0542193Y0280292D01*
X0542115Y0280142D01*
X0542034Y0279994D01*
X0541949Y0279848D01*
X0541860Y0279704D01*
X0541768Y0279562D01*
X0541672Y0279423D01*
X0541573Y0279286D01*
X0541471Y0279151D01*
X0541365Y0279019D01*
X0541256Y0278890D01*
X0541144Y0278763D01*
X0541029Y0278639D01*
X0540911Y0278518D01*
X0540790Y0278400D01*
X0540666Y0278285D01*
X0540539Y0278173D01*
X0540410Y0278064D01*
X0540278Y0277958D01*
X0540143Y0277856D01*
X0540006Y0277757D01*
X0539867Y0277661D01*
X0539725Y0277569D01*
X0539581Y0277480D01*
X0539435Y0277395D01*
X0539287Y0277314D01*
X0539137Y0277236D01*
X0538985Y0277162D01*
X0538831Y0277091D01*
X0538676Y0277024D01*
X0538519Y0276962D01*
X0538360Y0276903D01*
X0538200Y0276848D01*
X0538039Y0276797D01*
X0537877Y0276750D01*
X0537713Y0276706D01*
X0537549Y0276667D01*
X0537383Y0276632D01*
X0537217Y0276601D01*
X0537050Y0276575D01*
X0536882Y0276552D01*
X0536714Y0276533D01*
X0536546Y0276519D01*
X0536377Y0276508D01*
X0536208Y0276502D01*
X0536039Y0276500D01*
X0535870Y0276502D01*
X0535701Y0276508D01*
X0535532Y0276519D01*
X0535364Y0276533D01*
X0535196Y0276552D01*
X0535028Y0276575D01*
X0534861Y0276601D01*
X0534695Y0276632D01*
X0534529Y0276667D01*
X0534365Y0276706D01*
X0534201Y0276750D01*
X0534039Y0276797D01*
X0533878Y0276848D01*
X0533718Y0276903D01*
X0533559Y0276962D01*
X0533402Y0277024D01*
X0533247Y0277091D01*
X0533093Y0277162D01*
X0532941Y0277236D01*
X0532791Y0277314D01*
X0532643Y0277395D01*
X0532497Y0277480D01*
X0532353Y0277569D01*
X0532211Y0277661D01*
X0532072Y0277757D01*
X0531935Y0277856D01*
X0531800Y0277958D01*
X0531668Y0278064D01*
X0531539Y0278173D01*
X0531412Y0278285D01*
X0531288Y0278400D01*
X0531167Y0278518D01*
X0531049Y0278639D01*
X0530934Y0278763D01*
X0530822Y0278890D01*
X0530713Y0279019D01*
X0530607Y0279151D01*
X0530505Y0279286D01*
X0530406Y0279423D01*
X0530310Y0279562D01*
X0530218Y0279704D01*
X0530129Y0279848D01*
X0530044Y0279994D01*
X0529963Y0280142D01*
X0529885Y0280292D01*
X0529811Y0280444D01*
X0529740Y0280598D01*
X0529673Y0280753D01*
X0529611Y0280910D01*
X0529552Y0281069D01*
X0529497Y0281229D01*
X0529446Y0281390D01*
X0529399Y0281552D01*
X0529355Y0281716D01*
X0529316Y0281880D01*
X0529281Y0282046D01*
X0529250Y0282212D01*
X0529224Y0282379D01*
X0529201Y0282547D01*
X0529182Y0282715D01*
X0529168Y0282883D01*
X0529157Y0283052D01*
X0529151Y0283221D01*
X0529149Y0283390D01*
X0424819Y0401500D02*
X0424823Y0401814D01*
X0424834Y0402128D01*
X0424854Y0402441D01*
X0424881Y0402754D01*
X0424915Y0403066D01*
X0424957Y0403377D01*
X0425007Y0403687D01*
X0425065Y0403996D01*
X0425130Y0404303D01*
X0425202Y0404609D01*
X0425282Y0404913D01*
X0425370Y0405214D01*
X0425465Y0405514D01*
X0425567Y0405811D01*
X0425676Y0406105D01*
X0425793Y0406396D01*
X0425917Y0406685D01*
X0426047Y0406971D01*
X0426185Y0407253D01*
X0426330Y0407532D01*
X0426481Y0407807D01*
X0426639Y0408078D01*
X0426804Y0408345D01*
X0426975Y0408609D01*
X0427153Y0408867D01*
X0427337Y0409122D01*
X0427527Y0409372D01*
X0427723Y0409617D01*
X0427926Y0409857D01*
X0428134Y0410093D01*
X0428347Y0410323D01*
X0428567Y0410547D01*
X0428791Y0410767D01*
X0429021Y0410980D01*
X0429257Y0411188D01*
X0429497Y0411391D01*
X0429742Y0411587D01*
X0429992Y0411777D01*
X0430247Y0411961D01*
X0430505Y0412139D01*
X0430769Y0412310D01*
X0431036Y0412475D01*
X0431307Y0412633D01*
X0431582Y0412784D01*
X0431861Y0412929D01*
X0432143Y0413067D01*
X0432429Y0413197D01*
X0432718Y0413321D01*
X0433009Y0413438D01*
X0433303Y0413547D01*
X0433600Y0413649D01*
X0433900Y0413744D01*
X0434201Y0413832D01*
X0434505Y0413912D01*
X0434811Y0413984D01*
X0435118Y0414049D01*
X0435427Y0414107D01*
X0435737Y0414157D01*
X0436048Y0414199D01*
X0436360Y0414233D01*
X0436673Y0414260D01*
X0436986Y0414280D01*
X0437300Y0414291D01*
X0437614Y0414295D01*
X0437928Y0414291D01*
X0438242Y0414280D01*
X0438555Y0414260D01*
X0438868Y0414233D01*
X0439180Y0414199D01*
X0439491Y0414157D01*
X0439801Y0414107D01*
X0440110Y0414049D01*
X0440417Y0413984D01*
X0440723Y0413912D01*
X0441027Y0413832D01*
X0441328Y0413744D01*
X0441628Y0413649D01*
X0441925Y0413547D01*
X0442219Y0413438D01*
X0442510Y0413321D01*
X0442799Y0413197D01*
X0443085Y0413067D01*
X0443367Y0412929D01*
X0443646Y0412784D01*
X0443921Y0412633D01*
X0444192Y0412475D01*
X0444459Y0412310D01*
X0444723Y0412139D01*
X0444981Y0411961D01*
X0445236Y0411777D01*
X0445486Y0411587D01*
X0445731Y0411391D01*
X0445971Y0411188D01*
X0446207Y0410980D01*
X0446437Y0410767D01*
X0446661Y0410547D01*
X0446881Y0410323D01*
X0447094Y0410093D01*
X0447302Y0409857D01*
X0447505Y0409617D01*
X0447701Y0409372D01*
X0447891Y0409122D01*
X0448075Y0408867D01*
X0448253Y0408609D01*
X0448424Y0408345D01*
X0448589Y0408078D01*
X0448747Y0407807D01*
X0448898Y0407532D01*
X0449043Y0407253D01*
X0449181Y0406971D01*
X0449311Y0406685D01*
X0449435Y0406396D01*
X0449552Y0406105D01*
X0449661Y0405811D01*
X0449763Y0405514D01*
X0449858Y0405214D01*
X0449946Y0404913D01*
X0450026Y0404609D01*
X0450098Y0404303D01*
X0450163Y0403996D01*
X0450221Y0403687D01*
X0450271Y0403377D01*
X0450313Y0403066D01*
X0450347Y0402754D01*
X0450374Y0402441D01*
X0450394Y0402128D01*
X0450405Y0401814D01*
X0450409Y0401500D01*
X0450405Y0401186D01*
X0450394Y0400872D01*
X0450374Y0400559D01*
X0450347Y0400246D01*
X0450313Y0399934D01*
X0450271Y0399623D01*
X0450221Y0399313D01*
X0450163Y0399004D01*
X0450098Y0398697D01*
X0450026Y0398391D01*
X0449946Y0398087D01*
X0449858Y0397786D01*
X0449763Y0397486D01*
X0449661Y0397189D01*
X0449552Y0396895D01*
X0449435Y0396604D01*
X0449311Y0396315D01*
X0449181Y0396029D01*
X0449043Y0395747D01*
X0448898Y0395468D01*
X0448747Y0395193D01*
X0448589Y0394922D01*
X0448424Y0394655D01*
X0448253Y0394391D01*
X0448075Y0394133D01*
X0447891Y0393878D01*
X0447701Y0393628D01*
X0447505Y0393383D01*
X0447302Y0393143D01*
X0447094Y0392907D01*
X0446881Y0392677D01*
X0446661Y0392453D01*
X0446437Y0392233D01*
X0446207Y0392020D01*
X0445971Y0391812D01*
X0445731Y0391609D01*
X0445486Y0391413D01*
X0445236Y0391223D01*
X0444981Y0391039D01*
X0444723Y0390861D01*
X0444459Y0390690D01*
X0444192Y0390525D01*
X0443921Y0390367D01*
X0443646Y0390216D01*
X0443367Y0390071D01*
X0443085Y0389933D01*
X0442799Y0389803D01*
X0442510Y0389679D01*
X0442219Y0389562D01*
X0441925Y0389453D01*
X0441628Y0389351D01*
X0441328Y0389256D01*
X0441027Y0389168D01*
X0440723Y0389088D01*
X0440417Y0389016D01*
X0440110Y0388951D01*
X0439801Y0388893D01*
X0439491Y0388843D01*
X0439180Y0388801D01*
X0438868Y0388767D01*
X0438555Y0388740D01*
X0438242Y0388720D01*
X0437928Y0388709D01*
X0437614Y0388705D01*
X0437300Y0388709D01*
X0436986Y0388720D01*
X0436673Y0388740D01*
X0436360Y0388767D01*
X0436048Y0388801D01*
X0435737Y0388843D01*
X0435427Y0388893D01*
X0435118Y0388951D01*
X0434811Y0389016D01*
X0434505Y0389088D01*
X0434201Y0389168D01*
X0433900Y0389256D01*
X0433600Y0389351D01*
X0433303Y0389453D01*
X0433009Y0389562D01*
X0432718Y0389679D01*
X0432429Y0389803D01*
X0432143Y0389933D01*
X0431861Y0390071D01*
X0431582Y0390216D01*
X0431307Y0390367D01*
X0431036Y0390525D01*
X0430769Y0390690D01*
X0430505Y0390861D01*
X0430247Y0391039D01*
X0429992Y0391223D01*
X0429742Y0391413D01*
X0429497Y0391609D01*
X0429257Y0391812D01*
X0429021Y0392020D01*
X0428791Y0392233D01*
X0428567Y0392453D01*
X0428347Y0392677D01*
X0428134Y0392907D01*
X0427926Y0393143D01*
X0427723Y0393383D01*
X0427527Y0393628D01*
X0427337Y0393878D01*
X0427153Y0394133D01*
X0426975Y0394391D01*
X0426804Y0394655D01*
X0426639Y0394922D01*
X0426481Y0395193D01*
X0426330Y0395468D01*
X0426185Y0395747D01*
X0426047Y0396029D01*
X0425917Y0396315D01*
X0425793Y0396604D01*
X0425676Y0396895D01*
X0425567Y0397189D01*
X0425465Y0397486D01*
X0425370Y0397786D01*
X0425282Y0398087D01*
X0425202Y0398391D01*
X0425130Y0398697D01*
X0425065Y0399004D01*
X0425007Y0399313D01*
X0424957Y0399623D01*
X0424915Y0399934D01*
X0424881Y0400246D01*
X0424854Y0400559D01*
X0424834Y0400872D01*
X0424823Y0401186D01*
X0424819Y0401500D01*
X0529149Y0519610D02*
X0529151Y0519779D01*
X0529157Y0519948D01*
X0529168Y0520117D01*
X0529182Y0520285D01*
X0529201Y0520453D01*
X0529224Y0520621D01*
X0529250Y0520788D01*
X0529281Y0520954D01*
X0529316Y0521120D01*
X0529355Y0521284D01*
X0529399Y0521448D01*
X0529446Y0521610D01*
X0529497Y0521771D01*
X0529552Y0521931D01*
X0529611Y0522090D01*
X0529673Y0522247D01*
X0529740Y0522402D01*
X0529811Y0522556D01*
X0529885Y0522708D01*
X0529963Y0522858D01*
X0530044Y0523006D01*
X0530129Y0523152D01*
X0530218Y0523296D01*
X0530310Y0523438D01*
X0530406Y0523577D01*
X0530505Y0523714D01*
X0530607Y0523849D01*
X0530713Y0523981D01*
X0530822Y0524110D01*
X0530934Y0524237D01*
X0531049Y0524361D01*
X0531167Y0524482D01*
X0531288Y0524600D01*
X0531412Y0524715D01*
X0531539Y0524827D01*
X0531668Y0524936D01*
X0531800Y0525042D01*
X0531935Y0525144D01*
X0532072Y0525243D01*
X0532211Y0525339D01*
X0532353Y0525431D01*
X0532497Y0525520D01*
X0532643Y0525605D01*
X0532791Y0525686D01*
X0532941Y0525764D01*
X0533093Y0525838D01*
X0533247Y0525909D01*
X0533402Y0525976D01*
X0533559Y0526038D01*
X0533718Y0526097D01*
X0533878Y0526152D01*
X0534039Y0526203D01*
X0534201Y0526250D01*
X0534365Y0526294D01*
X0534529Y0526333D01*
X0534695Y0526368D01*
X0534861Y0526399D01*
X0535028Y0526425D01*
X0535196Y0526448D01*
X0535364Y0526467D01*
X0535532Y0526481D01*
X0535701Y0526492D01*
X0535870Y0526498D01*
X0536039Y0526500D01*
X0536208Y0526498D01*
X0536377Y0526492D01*
X0536546Y0526481D01*
X0536714Y0526467D01*
X0536882Y0526448D01*
X0537050Y0526425D01*
X0537217Y0526399D01*
X0537383Y0526368D01*
X0537549Y0526333D01*
X0537713Y0526294D01*
X0537877Y0526250D01*
X0538039Y0526203D01*
X0538200Y0526152D01*
X0538360Y0526097D01*
X0538519Y0526038D01*
X0538676Y0525976D01*
X0538831Y0525909D01*
X0538985Y0525838D01*
X0539137Y0525764D01*
X0539287Y0525686D01*
X0539435Y0525605D01*
X0539581Y0525520D01*
X0539725Y0525431D01*
X0539867Y0525339D01*
X0540006Y0525243D01*
X0540143Y0525144D01*
X0540278Y0525042D01*
X0540410Y0524936D01*
X0540539Y0524827D01*
X0540666Y0524715D01*
X0540790Y0524600D01*
X0540911Y0524482D01*
X0541029Y0524361D01*
X0541144Y0524237D01*
X0541256Y0524110D01*
X0541365Y0523981D01*
X0541471Y0523849D01*
X0541573Y0523714D01*
X0541672Y0523577D01*
X0541768Y0523438D01*
X0541860Y0523296D01*
X0541949Y0523152D01*
X0542034Y0523006D01*
X0542115Y0522858D01*
X0542193Y0522708D01*
X0542267Y0522556D01*
X0542338Y0522402D01*
X0542405Y0522247D01*
X0542467Y0522090D01*
X0542526Y0521931D01*
X0542581Y0521771D01*
X0542632Y0521610D01*
X0542679Y0521448D01*
X0542723Y0521284D01*
X0542762Y0521120D01*
X0542797Y0520954D01*
X0542828Y0520788D01*
X0542854Y0520621D01*
X0542877Y0520453D01*
X0542896Y0520285D01*
X0542910Y0520117D01*
X0542921Y0519948D01*
X0542927Y0519779D01*
X0542929Y0519610D01*
X0542927Y0519441D01*
X0542921Y0519272D01*
X0542910Y0519103D01*
X0542896Y0518935D01*
X0542877Y0518767D01*
X0542854Y0518599D01*
X0542828Y0518432D01*
X0542797Y0518266D01*
X0542762Y0518100D01*
X0542723Y0517936D01*
X0542679Y0517772D01*
X0542632Y0517610D01*
X0542581Y0517449D01*
X0542526Y0517289D01*
X0542467Y0517130D01*
X0542405Y0516973D01*
X0542338Y0516818D01*
X0542267Y0516664D01*
X0542193Y0516512D01*
X0542115Y0516362D01*
X0542034Y0516214D01*
X0541949Y0516068D01*
X0541860Y0515924D01*
X0541768Y0515782D01*
X0541672Y0515643D01*
X0541573Y0515506D01*
X0541471Y0515371D01*
X0541365Y0515239D01*
X0541256Y0515110D01*
X0541144Y0514983D01*
X0541029Y0514859D01*
X0540911Y0514738D01*
X0540790Y0514620D01*
X0540666Y0514505D01*
X0540539Y0514393D01*
X0540410Y0514284D01*
X0540278Y0514178D01*
X0540143Y0514076D01*
X0540006Y0513977D01*
X0539867Y0513881D01*
X0539725Y0513789D01*
X0539581Y0513700D01*
X0539435Y0513615D01*
X0539287Y0513534D01*
X0539137Y0513456D01*
X0538985Y0513382D01*
X0538831Y0513311D01*
X0538676Y0513244D01*
X0538519Y0513182D01*
X0538360Y0513123D01*
X0538200Y0513068D01*
X0538039Y0513017D01*
X0537877Y0512970D01*
X0537713Y0512926D01*
X0537549Y0512887D01*
X0537383Y0512852D01*
X0537217Y0512821D01*
X0537050Y0512795D01*
X0536882Y0512772D01*
X0536714Y0512753D01*
X0536546Y0512739D01*
X0536377Y0512728D01*
X0536208Y0512722D01*
X0536039Y0512720D01*
X0535870Y0512722D01*
X0535701Y0512728D01*
X0535532Y0512739D01*
X0535364Y0512753D01*
X0535196Y0512772D01*
X0535028Y0512795D01*
X0534861Y0512821D01*
X0534695Y0512852D01*
X0534529Y0512887D01*
X0534365Y0512926D01*
X0534201Y0512970D01*
X0534039Y0513017D01*
X0533878Y0513068D01*
X0533718Y0513123D01*
X0533559Y0513182D01*
X0533402Y0513244D01*
X0533247Y0513311D01*
X0533093Y0513382D01*
X0532941Y0513456D01*
X0532791Y0513534D01*
X0532643Y0513615D01*
X0532497Y0513700D01*
X0532353Y0513789D01*
X0532211Y0513881D01*
X0532072Y0513977D01*
X0531935Y0514076D01*
X0531800Y0514178D01*
X0531668Y0514284D01*
X0531539Y0514393D01*
X0531412Y0514505D01*
X0531288Y0514620D01*
X0531167Y0514738D01*
X0531049Y0514859D01*
X0530934Y0514983D01*
X0530822Y0515110D01*
X0530713Y0515239D01*
X0530607Y0515371D01*
X0530505Y0515506D01*
X0530406Y0515643D01*
X0530310Y0515782D01*
X0530218Y0515924D01*
X0530129Y0516068D01*
X0530044Y0516214D01*
X0529963Y0516362D01*
X0529885Y0516512D01*
X0529811Y0516664D01*
X0529740Y0516818D01*
X0529673Y0516973D01*
X0529611Y0517130D01*
X0529552Y0517289D01*
X0529497Y0517449D01*
X0529446Y0517610D01*
X0529399Y0517772D01*
X0529355Y0517936D01*
X0529316Y0518100D01*
X0529281Y0518266D01*
X0529250Y0518432D01*
X0529224Y0518599D01*
X0529201Y0518767D01*
X0529182Y0518935D01*
X0529168Y0519103D01*
X0529157Y0519272D01*
X0529151Y0519441D01*
X0529149Y0519610D01*
X0529149Y0716461D02*
X0529151Y0716630D01*
X0529157Y0716799D01*
X0529168Y0716968D01*
X0529182Y0717136D01*
X0529201Y0717304D01*
X0529224Y0717472D01*
X0529250Y0717639D01*
X0529281Y0717805D01*
X0529316Y0717971D01*
X0529355Y0718135D01*
X0529399Y0718299D01*
X0529446Y0718461D01*
X0529497Y0718622D01*
X0529552Y0718782D01*
X0529611Y0718941D01*
X0529673Y0719098D01*
X0529740Y0719253D01*
X0529811Y0719407D01*
X0529885Y0719559D01*
X0529963Y0719709D01*
X0530044Y0719857D01*
X0530129Y0720003D01*
X0530218Y0720147D01*
X0530310Y0720289D01*
X0530406Y0720428D01*
X0530505Y0720565D01*
X0530607Y0720700D01*
X0530713Y0720832D01*
X0530822Y0720961D01*
X0530934Y0721088D01*
X0531049Y0721212D01*
X0531167Y0721333D01*
X0531288Y0721451D01*
X0531412Y0721566D01*
X0531539Y0721678D01*
X0531668Y0721787D01*
X0531800Y0721893D01*
X0531935Y0721995D01*
X0532072Y0722094D01*
X0532211Y0722190D01*
X0532353Y0722282D01*
X0532497Y0722371D01*
X0532643Y0722456D01*
X0532791Y0722537D01*
X0532941Y0722615D01*
X0533093Y0722689D01*
X0533247Y0722760D01*
X0533402Y0722827D01*
X0533559Y0722889D01*
X0533718Y0722948D01*
X0533878Y0723003D01*
X0534039Y0723054D01*
X0534201Y0723101D01*
X0534365Y0723145D01*
X0534529Y0723184D01*
X0534695Y0723219D01*
X0534861Y0723250D01*
X0535028Y0723276D01*
X0535196Y0723299D01*
X0535364Y0723318D01*
X0535532Y0723332D01*
X0535701Y0723343D01*
X0535870Y0723349D01*
X0536039Y0723351D01*
X0536208Y0723349D01*
X0536377Y0723343D01*
X0536546Y0723332D01*
X0536714Y0723318D01*
X0536882Y0723299D01*
X0537050Y0723276D01*
X0537217Y0723250D01*
X0537383Y0723219D01*
X0537549Y0723184D01*
X0537713Y0723145D01*
X0537877Y0723101D01*
X0538039Y0723054D01*
X0538200Y0723003D01*
X0538360Y0722948D01*
X0538519Y0722889D01*
X0538676Y0722827D01*
X0538831Y0722760D01*
X0538985Y0722689D01*
X0539137Y0722615D01*
X0539287Y0722537D01*
X0539435Y0722456D01*
X0539581Y0722371D01*
X0539725Y0722282D01*
X0539867Y0722190D01*
X0540006Y0722094D01*
X0540143Y0721995D01*
X0540278Y0721893D01*
X0540410Y0721787D01*
X0540539Y0721678D01*
X0540666Y0721566D01*
X0540790Y0721451D01*
X0540911Y0721333D01*
X0541029Y0721212D01*
X0541144Y0721088D01*
X0541256Y0720961D01*
X0541365Y0720832D01*
X0541471Y0720700D01*
X0541573Y0720565D01*
X0541672Y0720428D01*
X0541768Y0720289D01*
X0541860Y0720147D01*
X0541949Y0720003D01*
X0542034Y0719857D01*
X0542115Y0719709D01*
X0542193Y0719559D01*
X0542267Y0719407D01*
X0542338Y0719253D01*
X0542405Y0719098D01*
X0542467Y0718941D01*
X0542526Y0718782D01*
X0542581Y0718622D01*
X0542632Y0718461D01*
X0542679Y0718299D01*
X0542723Y0718135D01*
X0542762Y0717971D01*
X0542797Y0717805D01*
X0542828Y0717639D01*
X0542854Y0717472D01*
X0542877Y0717304D01*
X0542896Y0717136D01*
X0542910Y0716968D01*
X0542921Y0716799D01*
X0542927Y0716630D01*
X0542929Y0716461D01*
X0542927Y0716292D01*
X0542921Y0716123D01*
X0542910Y0715954D01*
X0542896Y0715786D01*
X0542877Y0715618D01*
X0542854Y0715450D01*
X0542828Y0715283D01*
X0542797Y0715117D01*
X0542762Y0714951D01*
X0542723Y0714787D01*
X0542679Y0714623D01*
X0542632Y0714461D01*
X0542581Y0714300D01*
X0542526Y0714140D01*
X0542467Y0713981D01*
X0542405Y0713824D01*
X0542338Y0713669D01*
X0542267Y0713515D01*
X0542193Y0713363D01*
X0542115Y0713213D01*
X0542034Y0713065D01*
X0541949Y0712919D01*
X0541860Y0712775D01*
X0541768Y0712633D01*
X0541672Y0712494D01*
X0541573Y0712357D01*
X0541471Y0712222D01*
X0541365Y0712090D01*
X0541256Y0711961D01*
X0541144Y0711834D01*
X0541029Y0711710D01*
X0540911Y0711589D01*
X0540790Y0711471D01*
X0540666Y0711356D01*
X0540539Y0711244D01*
X0540410Y0711135D01*
X0540278Y0711029D01*
X0540143Y0710927D01*
X0540006Y0710828D01*
X0539867Y0710732D01*
X0539725Y0710640D01*
X0539581Y0710551D01*
X0539435Y0710466D01*
X0539287Y0710385D01*
X0539137Y0710307D01*
X0538985Y0710233D01*
X0538831Y0710162D01*
X0538676Y0710095D01*
X0538519Y0710033D01*
X0538360Y0709974D01*
X0538200Y0709919D01*
X0538039Y0709868D01*
X0537877Y0709821D01*
X0537713Y0709777D01*
X0537549Y0709738D01*
X0537383Y0709703D01*
X0537217Y0709672D01*
X0537050Y0709646D01*
X0536882Y0709623D01*
X0536714Y0709604D01*
X0536546Y0709590D01*
X0536377Y0709579D01*
X0536208Y0709573D01*
X0536039Y0709571D01*
X0535870Y0709573D01*
X0535701Y0709579D01*
X0535532Y0709590D01*
X0535364Y0709604D01*
X0535196Y0709623D01*
X0535028Y0709646D01*
X0534861Y0709672D01*
X0534695Y0709703D01*
X0534529Y0709738D01*
X0534365Y0709777D01*
X0534201Y0709821D01*
X0534039Y0709868D01*
X0533878Y0709919D01*
X0533718Y0709974D01*
X0533559Y0710033D01*
X0533402Y0710095D01*
X0533247Y0710162D01*
X0533093Y0710233D01*
X0532941Y0710307D01*
X0532791Y0710385D01*
X0532643Y0710466D01*
X0532497Y0710551D01*
X0532353Y0710640D01*
X0532211Y0710732D01*
X0532072Y0710828D01*
X0531935Y0710927D01*
X0531800Y0711029D01*
X0531668Y0711135D01*
X0531539Y0711244D01*
X0531412Y0711356D01*
X0531288Y0711471D01*
X0531167Y0711589D01*
X0531049Y0711710D01*
X0530934Y0711834D01*
X0530822Y0711961D01*
X0530713Y0712090D01*
X0530607Y0712222D01*
X0530505Y0712357D01*
X0530406Y0712494D01*
X0530310Y0712633D01*
X0530218Y0712775D01*
X0530129Y0712919D01*
X0530044Y0713065D01*
X0529963Y0713213D01*
X0529885Y0713363D01*
X0529811Y0713515D01*
X0529740Y0713669D01*
X0529673Y0713824D01*
X0529611Y0713981D01*
X0529552Y0714140D01*
X0529497Y0714300D01*
X0529446Y0714461D01*
X0529399Y0714623D01*
X0529355Y0714787D01*
X0529316Y0714951D01*
X0529281Y0715117D01*
X0529250Y0715283D01*
X0529224Y0715450D01*
X0529201Y0715618D01*
X0529182Y0715786D01*
X0529168Y0715954D01*
X0529157Y0716123D01*
X0529151Y0716292D01*
X0529149Y0716461D01*
X0483874Y0834571D02*
X0483878Y0834885D01*
X0483889Y0835199D01*
X0483909Y0835512D01*
X0483936Y0835825D01*
X0483970Y0836137D01*
X0484012Y0836448D01*
X0484062Y0836758D01*
X0484120Y0837067D01*
X0484185Y0837374D01*
X0484257Y0837680D01*
X0484337Y0837984D01*
X0484425Y0838285D01*
X0484520Y0838585D01*
X0484622Y0838882D01*
X0484731Y0839176D01*
X0484848Y0839467D01*
X0484972Y0839756D01*
X0485102Y0840042D01*
X0485240Y0840324D01*
X0485385Y0840603D01*
X0485536Y0840878D01*
X0485694Y0841149D01*
X0485859Y0841416D01*
X0486030Y0841680D01*
X0486208Y0841938D01*
X0486392Y0842193D01*
X0486582Y0842443D01*
X0486778Y0842688D01*
X0486981Y0842928D01*
X0487189Y0843164D01*
X0487402Y0843394D01*
X0487622Y0843618D01*
X0487846Y0843838D01*
X0488076Y0844051D01*
X0488312Y0844259D01*
X0488552Y0844462D01*
X0488797Y0844658D01*
X0489047Y0844848D01*
X0489302Y0845032D01*
X0489560Y0845210D01*
X0489824Y0845381D01*
X0490091Y0845546D01*
X0490362Y0845704D01*
X0490637Y0845855D01*
X0490916Y0846000D01*
X0491198Y0846138D01*
X0491484Y0846268D01*
X0491773Y0846392D01*
X0492064Y0846509D01*
X0492358Y0846618D01*
X0492655Y0846720D01*
X0492955Y0846815D01*
X0493256Y0846903D01*
X0493560Y0846983D01*
X0493866Y0847055D01*
X0494173Y0847120D01*
X0494482Y0847178D01*
X0494792Y0847228D01*
X0495103Y0847270D01*
X0495415Y0847304D01*
X0495728Y0847331D01*
X0496041Y0847351D01*
X0496355Y0847362D01*
X0496669Y0847366D01*
X0496983Y0847362D01*
X0497297Y0847351D01*
X0497610Y0847331D01*
X0497923Y0847304D01*
X0498235Y0847270D01*
X0498546Y0847228D01*
X0498856Y0847178D01*
X0499165Y0847120D01*
X0499472Y0847055D01*
X0499778Y0846983D01*
X0500082Y0846903D01*
X0500383Y0846815D01*
X0500683Y0846720D01*
X0500980Y0846618D01*
X0501274Y0846509D01*
X0501565Y0846392D01*
X0501854Y0846268D01*
X0502140Y0846138D01*
X0502422Y0846000D01*
X0502701Y0845855D01*
X0502976Y0845704D01*
X0503247Y0845546D01*
X0503514Y0845381D01*
X0503778Y0845210D01*
X0504036Y0845032D01*
X0504291Y0844848D01*
X0504541Y0844658D01*
X0504786Y0844462D01*
X0505026Y0844259D01*
X0505262Y0844051D01*
X0505492Y0843838D01*
X0505716Y0843618D01*
X0505936Y0843394D01*
X0506149Y0843164D01*
X0506357Y0842928D01*
X0506560Y0842688D01*
X0506756Y0842443D01*
X0506946Y0842193D01*
X0507130Y0841938D01*
X0507308Y0841680D01*
X0507479Y0841416D01*
X0507644Y0841149D01*
X0507802Y0840878D01*
X0507953Y0840603D01*
X0508098Y0840324D01*
X0508236Y0840042D01*
X0508366Y0839756D01*
X0508490Y0839467D01*
X0508607Y0839176D01*
X0508716Y0838882D01*
X0508818Y0838585D01*
X0508913Y0838285D01*
X0509001Y0837984D01*
X0509081Y0837680D01*
X0509153Y0837374D01*
X0509218Y0837067D01*
X0509276Y0836758D01*
X0509326Y0836448D01*
X0509368Y0836137D01*
X0509402Y0835825D01*
X0509429Y0835512D01*
X0509449Y0835199D01*
X0509460Y0834885D01*
X0509464Y0834571D01*
X0509460Y0834257D01*
X0509449Y0833943D01*
X0509429Y0833630D01*
X0509402Y0833317D01*
X0509368Y0833005D01*
X0509326Y0832694D01*
X0509276Y0832384D01*
X0509218Y0832075D01*
X0509153Y0831768D01*
X0509081Y0831462D01*
X0509001Y0831158D01*
X0508913Y0830857D01*
X0508818Y0830557D01*
X0508716Y0830260D01*
X0508607Y0829966D01*
X0508490Y0829675D01*
X0508366Y0829386D01*
X0508236Y0829100D01*
X0508098Y0828818D01*
X0507953Y0828539D01*
X0507802Y0828264D01*
X0507644Y0827993D01*
X0507479Y0827726D01*
X0507308Y0827462D01*
X0507130Y0827204D01*
X0506946Y0826949D01*
X0506756Y0826699D01*
X0506560Y0826454D01*
X0506357Y0826214D01*
X0506149Y0825978D01*
X0505936Y0825748D01*
X0505716Y0825524D01*
X0505492Y0825304D01*
X0505262Y0825091D01*
X0505026Y0824883D01*
X0504786Y0824680D01*
X0504541Y0824484D01*
X0504291Y0824294D01*
X0504036Y0824110D01*
X0503778Y0823932D01*
X0503514Y0823761D01*
X0503247Y0823596D01*
X0502976Y0823438D01*
X0502701Y0823287D01*
X0502422Y0823142D01*
X0502140Y0823004D01*
X0501854Y0822874D01*
X0501565Y0822750D01*
X0501274Y0822633D01*
X0500980Y0822524D01*
X0500683Y0822422D01*
X0500383Y0822327D01*
X0500082Y0822239D01*
X0499778Y0822159D01*
X0499472Y0822087D01*
X0499165Y0822022D01*
X0498856Y0821964D01*
X0498546Y0821914D01*
X0498235Y0821872D01*
X0497923Y0821838D01*
X0497610Y0821811D01*
X0497297Y0821791D01*
X0496983Y0821780D01*
X0496669Y0821776D01*
X0496355Y0821780D01*
X0496041Y0821791D01*
X0495728Y0821811D01*
X0495415Y0821838D01*
X0495103Y0821872D01*
X0494792Y0821914D01*
X0494482Y0821964D01*
X0494173Y0822022D01*
X0493866Y0822087D01*
X0493560Y0822159D01*
X0493256Y0822239D01*
X0492955Y0822327D01*
X0492655Y0822422D01*
X0492358Y0822524D01*
X0492064Y0822633D01*
X0491773Y0822750D01*
X0491484Y0822874D01*
X0491198Y0823004D01*
X0490916Y0823142D01*
X0490637Y0823287D01*
X0490362Y0823438D01*
X0490091Y0823596D01*
X0489824Y0823761D01*
X0489560Y0823932D01*
X0489302Y0824110D01*
X0489047Y0824294D01*
X0488797Y0824484D01*
X0488552Y0824680D01*
X0488312Y0824883D01*
X0488076Y0825091D01*
X0487846Y0825304D01*
X0487622Y0825524D01*
X0487402Y0825748D01*
X0487189Y0825978D01*
X0486981Y0826214D01*
X0486778Y0826454D01*
X0486582Y0826699D01*
X0486392Y0826949D01*
X0486208Y0827204D01*
X0486030Y0827462D01*
X0485859Y0827726D01*
X0485694Y0827993D01*
X0485536Y0828264D01*
X0485385Y0828539D01*
X0485240Y0828818D01*
X0485102Y0829100D01*
X0484972Y0829386D01*
X0484848Y0829675D01*
X0484731Y0829966D01*
X0484622Y0830260D01*
X0484520Y0830557D01*
X0484425Y0830857D01*
X0484337Y0831158D01*
X0484257Y0831462D01*
X0484185Y0831768D01*
X0484120Y0832075D01*
X0484062Y0832384D01*
X0484012Y0832694D01*
X0483970Y0833005D01*
X0483936Y0833317D01*
X0483909Y0833630D01*
X0483889Y0833943D01*
X0483878Y0834257D01*
X0483874Y0834571D01*
X0155134Y0519610D02*
X0155136Y0519779D01*
X0155142Y0519948D01*
X0155153Y0520117D01*
X0155167Y0520285D01*
X0155186Y0520453D01*
X0155209Y0520621D01*
X0155235Y0520788D01*
X0155266Y0520954D01*
X0155301Y0521120D01*
X0155340Y0521284D01*
X0155384Y0521448D01*
X0155431Y0521610D01*
X0155482Y0521771D01*
X0155537Y0521931D01*
X0155596Y0522090D01*
X0155658Y0522247D01*
X0155725Y0522402D01*
X0155796Y0522556D01*
X0155870Y0522708D01*
X0155948Y0522858D01*
X0156029Y0523006D01*
X0156114Y0523152D01*
X0156203Y0523296D01*
X0156295Y0523438D01*
X0156391Y0523577D01*
X0156490Y0523714D01*
X0156592Y0523849D01*
X0156698Y0523981D01*
X0156807Y0524110D01*
X0156919Y0524237D01*
X0157034Y0524361D01*
X0157152Y0524482D01*
X0157273Y0524600D01*
X0157397Y0524715D01*
X0157524Y0524827D01*
X0157653Y0524936D01*
X0157785Y0525042D01*
X0157920Y0525144D01*
X0158057Y0525243D01*
X0158196Y0525339D01*
X0158338Y0525431D01*
X0158482Y0525520D01*
X0158628Y0525605D01*
X0158776Y0525686D01*
X0158926Y0525764D01*
X0159078Y0525838D01*
X0159232Y0525909D01*
X0159387Y0525976D01*
X0159544Y0526038D01*
X0159703Y0526097D01*
X0159863Y0526152D01*
X0160024Y0526203D01*
X0160186Y0526250D01*
X0160350Y0526294D01*
X0160514Y0526333D01*
X0160680Y0526368D01*
X0160846Y0526399D01*
X0161013Y0526425D01*
X0161181Y0526448D01*
X0161349Y0526467D01*
X0161517Y0526481D01*
X0161686Y0526492D01*
X0161855Y0526498D01*
X0162024Y0526500D01*
X0162193Y0526498D01*
X0162362Y0526492D01*
X0162531Y0526481D01*
X0162699Y0526467D01*
X0162867Y0526448D01*
X0163035Y0526425D01*
X0163202Y0526399D01*
X0163368Y0526368D01*
X0163534Y0526333D01*
X0163698Y0526294D01*
X0163862Y0526250D01*
X0164024Y0526203D01*
X0164185Y0526152D01*
X0164345Y0526097D01*
X0164504Y0526038D01*
X0164661Y0525976D01*
X0164816Y0525909D01*
X0164970Y0525838D01*
X0165122Y0525764D01*
X0165272Y0525686D01*
X0165420Y0525605D01*
X0165566Y0525520D01*
X0165710Y0525431D01*
X0165852Y0525339D01*
X0165991Y0525243D01*
X0166128Y0525144D01*
X0166263Y0525042D01*
X0166395Y0524936D01*
X0166524Y0524827D01*
X0166651Y0524715D01*
X0166775Y0524600D01*
X0166896Y0524482D01*
X0167014Y0524361D01*
X0167129Y0524237D01*
X0167241Y0524110D01*
X0167350Y0523981D01*
X0167456Y0523849D01*
X0167558Y0523714D01*
X0167657Y0523577D01*
X0167753Y0523438D01*
X0167845Y0523296D01*
X0167934Y0523152D01*
X0168019Y0523006D01*
X0168100Y0522858D01*
X0168178Y0522708D01*
X0168252Y0522556D01*
X0168323Y0522402D01*
X0168390Y0522247D01*
X0168452Y0522090D01*
X0168511Y0521931D01*
X0168566Y0521771D01*
X0168617Y0521610D01*
X0168664Y0521448D01*
X0168708Y0521284D01*
X0168747Y0521120D01*
X0168782Y0520954D01*
X0168813Y0520788D01*
X0168839Y0520621D01*
X0168862Y0520453D01*
X0168881Y0520285D01*
X0168895Y0520117D01*
X0168906Y0519948D01*
X0168912Y0519779D01*
X0168914Y0519610D01*
X0168912Y0519441D01*
X0168906Y0519272D01*
X0168895Y0519103D01*
X0168881Y0518935D01*
X0168862Y0518767D01*
X0168839Y0518599D01*
X0168813Y0518432D01*
X0168782Y0518266D01*
X0168747Y0518100D01*
X0168708Y0517936D01*
X0168664Y0517772D01*
X0168617Y0517610D01*
X0168566Y0517449D01*
X0168511Y0517289D01*
X0168452Y0517130D01*
X0168390Y0516973D01*
X0168323Y0516818D01*
X0168252Y0516664D01*
X0168178Y0516512D01*
X0168100Y0516362D01*
X0168019Y0516214D01*
X0167934Y0516068D01*
X0167845Y0515924D01*
X0167753Y0515782D01*
X0167657Y0515643D01*
X0167558Y0515506D01*
X0167456Y0515371D01*
X0167350Y0515239D01*
X0167241Y0515110D01*
X0167129Y0514983D01*
X0167014Y0514859D01*
X0166896Y0514738D01*
X0166775Y0514620D01*
X0166651Y0514505D01*
X0166524Y0514393D01*
X0166395Y0514284D01*
X0166263Y0514178D01*
X0166128Y0514076D01*
X0165991Y0513977D01*
X0165852Y0513881D01*
X0165710Y0513789D01*
X0165566Y0513700D01*
X0165420Y0513615D01*
X0165272Y0513534D01*
X0165122Y0513456D01*
X0164970Y0513382D01*
X0164816Y0513311D01*
X0164661Y0513244D01*
X0164504Y0513182D01*
X0164345Y0513123D01*
X0164185Y0513068D01*
X0164024Y0513017D01*
X0163862Y0512970D01*
X0163698Y0512926D01*
X0163534Y0512887D01*
X0163368Y0512852D01*
X0163202Y0512821D01*
X0163035Y0512795D01*
X0162867Y0512772D01*
X0162699Y0512753D01*
X0162531Y0512739D01*
X0162362Y0512728D01*
X0162193Y0512722D01*
X0162024Y0512720D01*
X0161855Y0512722D01*
X0161686Y0512728D01*
X0161517Y0512739D01*
X0161349Y0512753D01*
X0161181Y0512772D01*
X0161013Y0512795D01*
X0160846Y0512821D01*
X0160680Y0512852D01*
X0160514Y0512887D01*
X0160350Y0512926D01*
X0160186Y0512970D01*
X0160024Y0513017D01*
X0159863Y0513068D01*
X0159703Y0513123D01*
X0159544Y0513182D01*
X0159387Y0513244D01*
X0159232Y0513311D01*
X0159078Y0513382D01*
X0158926Y0513456D01*
X0158776Y0513534D01*
X0158628Y0513615D01*
X0158482Y0513700D01*
X0158338Y0513789D01*
X0158196Y0513881D01*
X0158057Y0513977D01*
X0157920Y0514076D01*
X0157785Y0514178D01*
X0157653Y0514284D01*
X0157524Y0514393D01*
X0157397Y0514505D01*
X0157273Y0514620D01*
X0157152Y0514738D01*
X0157034Y0514859D01*
X0156919Y0514983D01*
X0156807Y0515110D01*
X0156698Y0515239D01*
X0156592Y0515371D01*
X0156490Y0515506D01*
X0156391Y0515643D01*
X0156295Y0515782D01*
X0156203Y0515924D01*
X0156114Y0516068D01*
X0156029Y0516214D01*
X0155948Y0516362D01*
X0155870Y0516512D01*
X0155796Y0516664D01*
X0155725Y0516818D01*
X0155658Y0516973D01*
X0155596Y0517130D01*
X0155537Y0517289D01*
X0155482Y0517449D01*
X0155431Y0517610D01*
X0155384Y0517772D01*
X0155340Y0517936D01*
X0155301Y0518100D01*
X0155266Y0518266D01*
X0155235Y0518432D01*
X0155209Y0518599D01*
X0155186Y0518767D01*
X0155167Y0518935D01*
X0155153Y0519103D01*
X0155142Y0519272D01*
X0155136Y0519441D01*
X0155134Y0519610D01*
X0049425Y0207799D02*
X0049427Y0207887D01*
X0049433Y0207975D01*
X0049443Y0208063D01*
X0049457Y0208151D01*
X0049474Y0208237D01*
X0049496Y0208323D01*
X0049521Y0208407D01*
X0049551Y0208491D01*
X0049583Y0208573D01*
X0049620Y0208653D01*
X0049660Y0208732D01*
X0049704Y0208809D01*
X0049751Y0208884D01*
X0049801Y0208956D01*
X0049855Y0209027D01*
X0049911Y0209094D01*
X0049971Y0209160D01*
X0050033Y0209222D01*
X0050099Y0209282D01*
X0050166Y0209338D01*
X0050237Y0209392D01*
X0050309Y0209442D01*
X0050384Y0209489D01*
X0050461Y0209533D01*
X0050540Y0209573D01*
X0050620Y0209610D01*
X0050702Y0209642D01*
X0050786Y0209672D01*
X0050870Y0209697D01*
X0050956Y0209719D01*
X0051042Y0209736D01*
X0051130Y0209750D01*
X0051218Y0209760D01*
X0051306Y0209766D01*
X0051394Y0209768D01*
X0051482Y0209766D01*
X0051570Y0209760D01*
X0051658Y0209750D01*
X0051746Y0209736D01*
X0051832Y0209719D01*
X0051918Y0209697D01*
X0052002Y0209672D01*
X0052086Y0209642D01*
X0052168Y0209610D01*
X0052248Y0209573D01*
X0052327Y0209533D01*
X0052404Y0209489D01*
X0052479Y0209442D01*
X0052551Y0209392D01*
X0052622Y0209338D01*
X0052689Y0209282D01*
X0052755Y0209222D01*
X0052817Y0209160D01*
X0052877Y0209094D01*
X0052933Y0209027D01*
X0052987Y0208956D01*
X0053037Y0208884D01*
X0053084Y0208809D01*
X0053128Y0208732D01*
X0053168Y0208653D01*
X0053205Y0208573D01*
X0053237Y0208491D01*
X0053267Y0208407D01*
X0053292Y0208323D01*
X0053314Y0208237D01*
X0053331Y0208151D01*
X0053345Y0208063D01*
X0053355Y0207975D01*
X0053361Y0207887D01*
X0053363Y0207799D01*
X0053361Y0207711D01*
X0053355Y0207623D01*
X0053345Y0207535D01*
X0053331Y0207447D01*
X0053314Y0207361D01*
X0053292Y0207275D01*
X0053267Y0207191D01*
X0053237Y0207107D01*
X0053205Y0207025D01*
X0053168Y0206945D01*
X0053128Y0206866D01*
X0053084Y0206789D01*
X0053037Y0206714D01*
X0052987Y0206642D01*
X0052933Y0206571D01*
X0052877Y0206504D01*
X0052817Y0206438D01*
X0052755Y0206376D01*
X0052689Y0206316D01*
X0052622Y0206260D01*
X0052551Y0206206D01*
X0052479Y0206156D01*
X0052404Y0206109D01*
X0052327Y0206065D01*
X0052248Y0206025D01*
X0052168Y0205988D01*
X0052086Y0205956D01*
X0052002Y0205926D01*
X0051918Y0205901D01*
X0051832Y0205879D01*
X0051746Y0205862D01*
X0051658Y0205848D01*
X0051570Y0205838D01*
X0051482Y0205832D01*
X0051394Y0205830D01*
X0051306Y0205832D01*
X0051218Y0205838D01*
X0051130Y0205848D01*
X0051042Y0205862D01*
X0050956Y0205879D01*
X0050870Y0205901D01*
X0050786Y0205926D01*
X0050702Y0205956D01*
X0050620Y0205988D01*
X0050540Y0206025D01*
X0050461Y0206065D01*
X0050384Y0206109D01*
X0050309Y0206156D01*
X0050237Y0206206D01*
X0050166Y0206260D01*
X0050099Y0206316D01*
X0050033Y0206376D01*
X0049971Y0206438D01*
X0049911Y0206504D01*
X0049855Y0206571D01*
X0049801Y0206642D01*
X0049751Y0206714D01*
X0049704Y0206789D01*
X0049660Y0206866D01*
X0049620Y0206945D01*
X0049583Y0207025D01*
X0049551Y0207107D01*
X0049521Y0207191D01*
X0049496Y0207275D01*
X0049474Y0207361D01*
X0049457Y0207447D01*
X0049443Y0207535D01*
X0049433Y0207623D01*
X0049427Y0207711D01*
X0049425Y0207799D01*
X0049425Y0188114D02*
X0049427Y0188202D01*
X0049433Y0188290D01*
X0049443Y0188378D01*
X0049457Y0188466D01*
X0049474Y0188552D01*
X0049496Y0188638D01*
X0049521Y0188722D01*
X0049551Y0188806D01*
X0049583Y0188888D01*
X0049620Y0188968D01*
X0049660Y0189047D01*
X0049704Y0189124D01*
X0049751Y0189199D01*
X0049801Y0189271D01*
X0049855Y0189342D01*
X0049911Y0189409D01*
X0049971Y0189475D01*
X0050033Y0189537D01*
X0050099Y0189597D01*
X0050166Y0189653D01*
X0050237Y0189707D01*
X0050309Y0189757D01*
X0050384Y0189804D01*
X0050461Y0189848D01*
X0050540Y0189888D01*
X0050620Y0189925D01*
X0050702Y0189957D01*
X0050786Y0189987D01*
X0050870Y0190012D01*
X0050956Y0190034D01*
X0051042Y0190051D01*
X0051130Y0190065D01*
X0051218Y0190075D01*
X0051306Y0190081D01*
X0051394Y0190083D01*
X0051482Y0190081D01*
X0051570Y0190075D01*
X0051658Y0190065D01*
X0051746Y0190051D01*
X0051832Y0190034D01*
X0051918Y0190012D01*
X0052002Y0189987D01*
X0052086Y0189957D01*
X0052168Y0189925D01*
X0052248Y0189888D01*
X0052327Y0189848D01*
X0052404Y0189804D01*
X0052479Y0189757D01*
X0052551Y0189707D01*
X0052622Y0189653D01*
X0052689Y0189597D01*
X0052755Y0189537D01*
X0052817Y0189475D01*
X0052877Y0189409D01*
X0052933Y0189342D01*
X0052987Y0189271D01*
X0053037Y0189199D01*
X0053084Y0189124D01*
X0053128Y0189047D01*
X0053168Y0188968D01*
X0053205Y0188888D01*
X0053237Y0188806D01*
X0053267Y0188722D01*
X0053292Y0188638D01*
X0053314Y0188552D01*
X0053331Y0188466D01*
X0053345Y0188378D01*
X0053355Y0188290D01*
X0053361Y0188202D01*
X0053363Y0188114D01*
X0053361Y0188026D01*
X0053355Y0187938D01*
X0053345Y0187850D01*
X0053331Y0187762D01*
X0053314Y0187676D01*
X0053292Y0187590D01*
X0053267Y0187506D01*
X0053237Y0187422D01*
X0053205Y0187340D01*
X0053168Y0187260D01*
X0053128Y0187181D01*
X0053084Y0187104D01*
X0053037Y0187029D01*
X0052987Y0186957D01*
X0052933Y0186886D01*
X0052877Y0186819D01*
X0052817Y0186753D01*
X0052755Y0186691D01*
X0052689Y0186631D01*
X0052622Y0186575D01*
X0052551Y0186521D01*
X0052479Y0186471D01*
X0052404Y0186424D01*
X0052327Y0186380D01*
X0052248Y0186340D01*
X0052168Y0186303D01*
X0052086Y0186271D01*
X0052002Y0186241D01*
X0051918Y0186216D01*
X0051832Y0186194D01*
X0051746Y0186177D01*
X0051658Y0186163D01*
X0051570Y0186153D01*
X0051482Y0186147D01*
X0051394Y0186145D01*
X0051306Y0186147D01*
X0051218Y0186153D01*
X0051130Y0186163D01*
X0051042Y0186177D01*
X0050956Y0186194D01*
X0050870Y0186216D01*
X0050786Y0186241D01*
X0050702Y0186271D01*
X0050620Y0186303D01*
X0050540Y0186340D01*
X0050461Y0186380D01*
X0050384Y0186424D01*
X0050309Y0186471D01*
X0050237Y0186521D01*
X0050166Y0186575D01*
X0050099Y0186631D01*
X0050033Y0186691D01*
X0049971Y0186753D01*
X0049911Y0186819D01*
X0049855Y0186886D01*
X0049801Y0186957D01*
X0049751Y0187029D01*
X0049704Y0187104D01*
X0049660Y0187181D01*
X0049620Y0187260D01*
X0049583Y0187340D01*
X0049551Y0187422D01*
X0049521Y0187506D01*
X0049496Y0187590D01*
X0049474Y0187676D01*
X0049457Y0187762D01*
X0049443Y0187850D01*
X0049433Y0187938D01*
X0049427Y0188026D01*
X0049425Y0188114D01*
X0183874Y0034571D02*
X0183878Y0034885D01*
X0183889Y0035199D01*
X0183909Y0035512D01*
X0183936Y0035825D01*
X0183970Y0036137D01*
X0184012Y0036448D01*
X0184062Y0036758D01*
X0184120Y0037067D01*
X0184185Y0037374D01*
X0184257Y0037680D01*
X0184337Y0037984D01*
X0184425Y0038285D01*
X0184520Y0038585D01*
X0184622Y0038882D01*
X0184731Y0039176D01*
X0184848Y0039467D01*
X0184972Y0039756D01*
X0185102Y0040042D01*
X0185240Y0040324D01*
X0185385Y0040603D01*
X0185536Y0040878D01*
X0185694Y0041149D01*
X0185859Y0041416D01*
X0186030Y0041680D01*
X0186208Y0041938D01*
X0186392Y0042193D01*
X0186582Y0042443D01*
X0186778Y0042688D01*
X0186981Y0042928D01*
X0187189Y0043164D01*
X0187402Y0043394D01*
X0187622Y0043618D01*
X0187846Y0043838D01*
X0188076Y0044051D01*
X0188312Y0044259D01*
X0188552Y0044462D01*
X0188797Y0044658D01*
X0189047Y0044848D01*
X0189302Y0045032D01*
X0189560Y0045210D01*
X0189824Y0045381D01*
X0190091Y0045546D01*
X0190362Y0045704D01*
X0190637Y0045855D01*
X0190916Y0046000D01*
X0191198Y0046138D01*
X0191484Y0046268D01*
X0191773Y0046392D01*
X0192064Y0046509D01*
X0192358Y0046618D01*
X0192655Y0046720D01*
X0192955Y0046815D01*
X0193256Y0046903D01*
X0193560Y0046983D01*
X0193866Y0047055D01*
X0194173Y0047120D01*
X0194482Y0047178D01*
X0194792Y0047228D01*
X0195103Y0047270D01*
X0195415Y0047304D01*
X0195728Y0047331D01*
X0196041Y0047351D01*
X0196355Y0047362D01*
X0196669Y0047366D01*
X0196983Y0047362D01*
X0197297Y0047351D01*
X0197610Y0047331D01*
X0197923Y0047304D01*
X0198235Y0047270D01*
X0198546Y0047228D01*
X0198856Y0047178D01*
X0199165Y0047120D01*
X0199472Y0047055D01*
X0199778Y0046983D01*
X0200082Y0046903D01*
X0200383Y0046815D01*
X0200683Y0046720D01*
X0200980Y0046618D01*
X0201274Y0046509D01*
X0201565Y0046392D01*
X0201854Y0046268D01*
X0202140Y0046138D01*
X0202422Y0046000D01*
X0202701Y0045855D01*
X0202976Y0045704D01*
X0203247Y0045546D01*
X0203514Y0045381D01*
X0203778Y0045210D01*
X0204036Y0045032D01*
X0204291Y0044848D01*
X0204541Y0044658D01*
X0204786Y0044462D01*
X0205026Y0044259D01*
X0205262Y0044051D01*
X0205492Y0043838D01*
X0205716Y0043618D01*
X0205936Y0043394D01*
X0206149Y0043164D01*
X0206357Y0042928D01*
X0206560Y0042688D01*
X0206756Y0042443D01*
X0206946Y0042193D01*
X0207130Y0041938D01*
X0207308Y0041680D01*
X0207479Y0041416D01*
X0207644Y0041149D01*
X0207802Y0040878D01*
X0207953Y0040603D01*
X0208098Y0040324D01*
X0208236Y0040042D01*
X0208366Y0039756D01*
X0208490Y0039467D01*
X0208607Y0039176D01*
X0208716Y0038882D01*
X0208818Y0038585D01*
X0208913Y0038285D01*
X0209001Y0037984D01*
X0209081Y0037680D01*
X0209153Y0037374D01*
X0209218Y0037067D01*
X0209276Y0036758D01*
X0209326Y0036448D01*
X0209368Y0036137D01*
X0209402Y0035825D01*
X0209429Y0035512D01*
X0209449Y0035199D01*
X0209460Y0034885D01*
X0209464Y0034571D01*
X0209460Y0034257D01*
X0209449Y0033943D01*
X0209429Y0033630D01*
X0209402Y0033317D01*
X0209368Y0033005D01*
X0209326Y0032694D01*
X0209276Y0032384D01*
X0209218Y0032075D01*
X0209153Y0031768D01*
X0209081Y0031462D01*
X0209001Y0031158D01*
X0208913Y0030857D01*
X0208818Y0030557D01*
X0208716Y0030260D01*
X0208607Y0029966D01*
X0208490Y0029675D01*
X0208366Y0029386D01*
X0208236Y0029100D01*
X0208098Y0028818D01*
X0207953Y0028539D01*
X0207802Y0028264D01*
X0207644Y0027993D01*
X0207479Y0027726D01*
X0207308Y0027462D01*
X0207130Y0027204D01*
X0206946Y0026949D01*
X0206756Y0026699D01*
X0206560Y0026454D01*
X0206357Y0026214D01*
X0206149Y0025978D01*
X0205936Y0025748D01*
X0205716Y0025524D01*
X0205492Y0025304D01*
X0205262Y0025091D01*
X0205026Y0024883D01*
X0204786Y0024680D01*
X0204541Y0024484D01*
X0204291Y0024294D01*
X0204036Y0024110D01*
X0203778Y0023932D01*
X0203514Y0023761D01*
X0203247Y0023596D01*
X0202976Y0023438D01*
X0202701Y0023287D01*
X0202422Y0023142D01*
X0202140Y0023004D01*
X0201854Y0022874D01*
X0201565Y0022750D01*
X0201274Y0022633D01*
X0200980Y0022524D01*
X0200683Y0022422D01*
X0200383Y0022327D01*
X0200082Y0022239D01*
X0199778Y0022159D01*
X0199472Y0022087D01*
X0199165Y0022022D01*
X0198856Y0021964D01*
X0198546Y0021914D01*
X0198235Y0021872D01*
X0197923Y0021838D01*
X0197610Y0021811D01*
X0197297Y0021791D01*
X0196983Y0021780D01*
X0196669Y0021776D01*
X0196355Y0021780D01*
X0196041Y0021791D01*
X0195728Y0021811D01*
X0195415Y0021838D01*
X0195103Y0021872D01*
X0194792Y0021914D01*
X0194482Y0021964D01*
X0194173Y0022022D01*
X0193866Y0022087D01*
X0193560Y0022159D01*
X0193256Y0022239D01*
X0192955Y0022327D01*
X0192655Y0022422D01*
X0192358Y0022524D01*
X0192064Y0022633D01*
X0191773Y0022750D01*
X0191484Y0022874D01*
X0191198Y0023004D01*
X0190916Y0023142D01*
X0190637Y0023287D01*
X0190362Y0023438D01*
X0190091Y0023596D01*
X0189824Y0023761D01*
X0189560Y0023932D01*
X0189302Y0024110D01*
X0189047Y0024294D01*
X0188797Y0024484D01*
X0188552Y0024680D01*
X0188312Y0024883D01*
X0188076Y0025091D01*
X0187846Y0025304D01*
X0187622Y0025524D01*
X0187402Y0025748D01*
X0187189Y0025978D01*
X0186981Y0026214D01*
X0186778Y0026454D01*
X0186582Y0026699D01*
X0186392Y0026949D01*
X0186208Y0027204D01*
X0186030Y0027462D01*
X0185859Y0027726D01*
X0185694Y0027993D01*
X0185536Y0028264D01*
X0185385Y0028539D01*
X0185240Y0028818D01*
X0185102Y0029100D01*
X0184972Y0029386D01*
X0184848Y0029675D01*
X0184731Y0029966D01*
X0184622Y0030260D01*
X0184520Y0030557D01*
X0184425Y0030857D01*
X0184337Y0031158D01*
X0184257Y0031462D01*
X0184185Y0031768D01*
X0184120Y0032075D01*
X0184062Y0032384D01*
X0184012Y0032694D01*
X0183970Y0033005D01*
X0183936Y0033317D01*
X0183909Y0033630D01*
X0183889Y0033943D01*
X0183878Y0034257D01*
X0183874Y0034571D01*
M02*
