G75*
%MOIN*%
%OFA0B0*%
%FSLAX25Y25*%
%IPPOS*%
%LPD*%
%AMOC8*
5,1,8,0,0,1.08239X$1,22.5*
%
%ADD10C,0.07087*%
%ADD11C,0.07677*%
%ADD12C,0.09300*%
%ADD13C,0.10050*%
%ADD14C,0.06496*%
%ADD15C,0.05400*%
%ADD16C,0.11811*%
%ADD17C,0.02178*%
%ADD18C,0.17780*%
%ADD19C,0.29591*%
%ADD20C,0.01000*%
D10*
X0162024Y0244020D03*
X0162024Y0342445D03*
X0162024Y0480240D03*
X0162024Y0578665D03*
X0162024Y0677091D03*
X0162024Y0775516D03*
X0260449Y0775516D03*
X0260449Y0677091D03*
X0263598Y0577878D03*
X0260449Y0480240D03*
X0260449Y0342445D03*
X0260449Y0244020D03*
X0358874Y0244020D03*
X0358874Y0342445D03*
X0358874Y0480240D03*
X0358874Y0578665D03*
X0358874Y0677091D03*
X0358874Y0775516D03*
X0457299Y0775516D03*
X0457299Y0677091D03*
X0457299Y0578665D03*
X0457299Y0480240D03*
X0457299Y0342445D03*
X0457299Y0244020D03*
D11*
X0445099Y0256220D03*
X0445099Y0231820D03*
X0469499Y0231820D03*
X0469499Y0256220D03*
X0469499Y0330245D03*
X0469499Y0354645D03*
X0445099Y0354645D03*
X0445099Y0330245D03*
X0371074Y0330245D03*
X0371074Y0354645D03*
X0346674Y0354645D03*
X0346674Y0330245D03*
X0346674Y0256220D03*
X0346674Y0231820D03*
X0371074Y0231820D03*
X0371074Y0256220D03*
X0272649Y0256220D03*
X0272649Y0231820D03*
X0248249Y0231820D03*
X0248249Y0256220D03*
X0248249Y0330245D03*
X0248249Y0354645D03*
X0272649Y0354645D03*
X0272649Y0330245D03*
X0272649Y0468040D03*
X0272649Y0492440D03*
X0248249Y0492440D03*
X0248249Y0468040D03*
X0251398Y0565678D03*
X0251398Y0590078D03*
X0275798Y0590078D03*
X0275798Y0565678D03*
X0272649Y0664891D03*
X0272649Y0689291D03*
X0248249Y0689291D03*
X0248249Y0664891D03*
X0248249Y0763316D03*
X0248249Y0787716D03*
X0272649Y0787716D03*
X0272649Y0763316D03*
X0346674Y0763316D03*
X0346674Y0787716D03*
X0371074Y0787716D03*
X0371074Y0763316D03*
X0371074Y0689291D03*
X0371074Y0664891D03*
X0346674Y0664891D03*
X0346674Y0689291D03*
X0346674Y0590865D03*
X0346674Y0566465D03*
X0371074Y0566465D03*
X0371074Y0590865D03*
X0371074Y0492440D03*
X0371074Y0468040D03*
X0346674Y0468040D03*
X0346674Y0492440D03*
X0445099Y0492440D03*
X0445099Y0468040D03*
X0469499Y0468040D03*
X0469499Y0492440D03*
X0469499Y0566465D03*
X0469499Y0590865D03*
X0445099Y0590865D03*
X0445099Y0566465D03*
X0445099Y0664891D03*
X0445099Y0689291D03*
X0469499Y0689291D03*
X0469499Y0664891D03*
X0469499Y0763316D03*
X0469499Y0787716D03*
X0445099Y0787716D03*
X0445099Y0763316D03*
X0174224Y0763316D03*
X0174224Y0787716D03*
X0149824Y0787716D03*
X0149824Y0763316D03*
X0149824Y0689291D03*
X0149824Y0664891D03*
X0174224Y0664891D03*
X0174224Y0689291D03*
X0174224Y0590865D03*
X0174224Y0566465D03*
X0149824Y0566465D03*
X0149824Y0590865D03*
X0149824Y0492440D03*
X0149824Y0468040D03*
X0174224Y0468040D03*
X0174224Y0492440D03*
X0174224Y0354645D03*
X0174224Y0330245D03*
X0149824Y0330245D03*
X0149824Y0354645D03*
X0149824Y0256220D03*
X0149824Y0231820D03*
X0174224Y0231820D03*
X0174224Y0256220D03*
D12*
X0201394Y0303075D03*
X0201394Y0204650D03*
X0169898Y0118035D03*
X0268323Y0118035D03*
X0299819Y0204650D03*
X0299819Y0303075D03*
X0299819Y0440870D03*
X0299819Y0539295D03*
X0299819Y0637720D03*
X0299819Y0736146D03*
X0398244Y0736146D03*
X0398244Y0637720D03*
X0398244Y0539295D03*
X0398244Y0440870D03*
X0496669Y0440870D03*
X0496669Y0539295D03*
X0496669Y0637720D03*
X0496669Y0736146D03*
X0496669Y0303075D03*
X0496669Y0204650D03*
X0465173Y0118035D03*
X0398244Y0204650D03*
X0366748Y0118035D03*
X0398244Y0303075D03*
X0201394Y0440870D03*
X0201394Y0539295D03*
X0201394Y0637720D03*
X0201394Y0736146D03*
D13*
X0211394Y0746146D03*
X0211394Y0726146D03*
X0191394Y0726146D03*
X0191394Y0746146D03*
X0191394Y0647720D03*
X0191394Y0627720D03*
X0211394Y0627720D03*
X0211394Y0647720D03*
X0211394Y0549295D03*
X0211394Y0529295D03*
X0191394Y0529295D03*
X0191394Y0549295D03*
X0191394Y0450870D03*
X0191394Y0430870D03*
X0211394Y0430870D03*
X0211394Y0450870D03*
X0289819Y0450870D03*
X0289819Y0430870D03*
X0309819Y0430870D03*
X0309819Y0450870D03*
X0309819Y0529295D03*
X0309819Y0549295D03*
X0289819Y0549295D03*
X0289819Y0529295D03*
X0289819Y0627720D03*
X0289819Y0647720D03*
X0309819Y0647720D03*
X0309819Y0627720D03*
X0309819Y0726146D03*
X0309819Y0746146D03*
X0289819Y0746146D03*
X0289819Y0726146D03*
X0388244Y0726146D03*
X0388244Y0746146D03*
X0408244Y0746146D03*
X0408244Y0726146D03*
X0408244Y0647720D03*
X0408244Y0627720D03*
X0388244Y0627720D03*
X0388244Y0647720D03*
X0388244Y0549295D03*
X0388244Y0529295D03*
X0408244Y0529295D03*
X0408244Y0549295D03*
X0408244Y0450870D03*
X0408244Y0430870D03*
X0388244Y0430870D03*
X0388244Y0450870D03*
X0388244Y0313075D03*
X0388244Y0293075D03*
X0408244Y0293075D03*
X0408244Y0313075D03*
X0408244Y0214650D03*
X0408244Y0194650D03*
X0388244Y0194650D03*
X0388244Y0214650D03*
X0376748Y0128035D03*
X0376748Y0108035D03*
X0356748Y0108035D03*
X0356748Y0128035D03*
X0309819Y0194650D03*
X0309819Y0214650D03*
X0289819Y0214650D03*
X0289819Y0194650D03*
X0278323Y0128035D03*
X0278323Y0108035D03*
X0258323Y0108035D03*
X0258323Y0128035D03*
X0211394Y0194650D03*
X0211394Y0214650D03*
X0191394Y0214650D03*
X0191394Y0194650D03*
X0179898Y0128035D03*
X0179898Y0108035D03*
X0159898Y0108035D03*
X0159898Y0128035D03*
X0191394Y0293075D03*
X0191394Y0313075D03*
X0211394Y0313075D03*
X0211394Y0293075D03*
X0289819Y0293075D03*
X0289819Y0313075D03*
X0309819Y0313075D03*
X0309819Y0293075D03*
X0455173Y0128035D03*
X0455173Y0108035D03*
X0475173Y0108035D03*
X0475173Y0128035D03*
X0486669Y0194650D03*
X0486669Y0214650D03*
X0506669Y0214650D03*
X0506669Y0194650D03*
X0506669Y0293075D03*
X0506669Y0313075D03*
X0486669Y0313075D03*
X0486669Y0293075D03*
X0486669Y0430870D03*
X0486669Y0450870D03*
X0506669Y0450870D03*
X0506669Y0430870D03*
X0506669Y0529295D03*
X0506669Y0549295D03*
X0486669Y0549295D03*
X0486669Y0529295D03*
X0486669Y0627720D03*
X0486669Y0647720D03*
X0506669Y0647720D03*
X0506669Y0627720D03*
X0506669Y0726146D03*
X0506669Y0746146D03*
X0486669Y0746146D03*
X0486669Y0726146D03*
D14*
X0053756Y0550240D03*
X0053756Y0540240D03*
X0053756Y0530240D03*
X0053756Y0520240D03*
X0053756Y0510240D03*
X0053756Y0500240D03*
X0053756Y0490240D03*
X0053756Y0480240D03*
X0053756Y0450870D03*
X0053756Y0440870D03*
X0034071Y0440870D03*
X0034071Y0450870D03*
X0034071Y0480240D03*
X0034071Y0490240D03*
X0034071Y0500240D03*
X0034071Y0510240D03*
X0034071Y0520240D03*
X0034071Y0530240D03*
X0034071Y0540240D03*
X0034071Y0550240D03*
X0034071Y0294335D03*
X0034071Y0284335D03*
X0034071Y0274335D03*
X0034071Y0264335D03*
X0034071Y0254335D03*
X0034071Y0244335D03*
X0034071Y0234335D03*
X0034071Y0224335D03*
X0053756Y0224335D03*
X0053756Y0234335D03*
X0053756Y0244335D03*
X0053756Y0254335D03*
X0053756Y0264335D03*
X0053756Y0274335D03*
X0053756Y0284335D03*
X0053756Y0294335D03*
D15*
X0078283Y0317130D03*
X0078283Y0327130D03*
X0078283Y0337130D03*
X0078283Y0347130D03*
X0078283Y0357130D03*
X0078283Y0367130D03*
X0078283Y0377130D03*
X0078283Y0387130D03*
X0078283Y0397130D03*
X0078283Y0407130D03*
X0088283Y0407130D03*
X0088283Y0397130D03*
X0088283Y0387130D03*
X0088283Y0377130D03*
X0088283Y0367130D03*
X0088283Y0357130D03*
X0088283Y0347130D03*
X0088283Y0337130D03*
X0088283Y0327130D03*
X0088283Y0317130D03*
X0088283Y0573035D03*
X0088283Y0583035D03*
X0088283Y0593035D03*
X0088283Y0603035D03*
X0088283Y0613035D03*
X0088283Y0623035D03*
X0088283Y0633035D03*
X0088283Y0643035D03*
X0088283Y0653035D03*
X0078283Y0653035D03*
X0078283Y0643035D03*
X0078283Y0633035D03*
X0078283Y0623035D03*
X0078283Y0613035D03*
X0078283Y0603035D03*
X0078283Y0593035D03*
X0078283Y0583035D03*
X0078283Y0573035D03*
X0078283Y0663035D03*
X0088283Y0663035D03*
D16*
X0138402Y0043232D03*
X0506512Y0086539D03*
D17*
X0193894Y0606795D03*
X0186394Y0606795D03*
X0176394Y0619295D03*
X0166394Y0624295D03*
X0158894Y0619295D03*
X0158894Y0609295D03*
X0158894Y0651795D03*
X0166118Y0699295D03*
X0178894Y0711795D03*
X0166394Y0731795D03*
X0161394Y0736795D03*
X0163894Y0744295D03*
X0143894Y0744266D03*
X0141394Y0736795D03*
X0138894Y0729295D03*
X0128894Y0719295D03*
X0131394Y0711795D03*
X0136394Y0704295D03*
X0126394Y0731795D03*
X0080429Y0746756D03*
X0057988Y0714866D03*
X0034071Y0662130D03*
X0033283Y0635752D03*
X0033677Y0603469D03*
X0098894Y0616795D03*
X0101394Y0621795D03*
X0108894Y0631795D03*
X0103894Y0636795D03*
X0118894Y0641795D03*
X0118894Y0646795D03*
X0121394Y0654295D03*
X0118894Y0659295D03*
X0193894Y0706795D03*
X0201394Y0676303D03*
X0201394Y0653862D03*
X0258894Y0609295D03*
X0121394Y0801795D03*
X0063894Y0804295D03*
X0039898Y0828232D03*
X0035646Y0392445D03*
X0035252Y0371185D03*
X0034858Y0355831D03*
X0086020Y0281106D03*
X0093520Y0286106D03*
X0076394Y0273980D03*
X0078894Y0266480D03*
X0061394Y0266480D03*
X0059248Y0264335D03*
X0040469Y0213685D03*
X0043520Y0127091D03*
X0029740Y0127091D03*
X0031709Y0107406D03*
X0041551Y0107406D03*
X0041551Y0087720D03*
X0029740Y0087720D03*
X0031709Y0068035D03*
X0041551Y0068035D03*
X0039976Y0044807D03*
X0030134Y0044807D03*
X0106394Y0349295D03*
X0102644Y0353045D03*
X0103559Y0361795D03*
X0118894Y0361795D03*
X0123894Y0359295D03*
X0123894Y0351795D03*
D18*
X0043913Y0165280D03*
X0043913Y0854256D03*
X0536039Y0854256D03*
X0536039Y0165280D03*
D19*
X0296669Y0834571D03*
D20*
X0026603Y0141657D02*
X0026603Y0010174D01*
X0553350Y0010174D01*
X0553350Y0141657D01*
X0026603Y0141657D01*
X0026603Y0140889D02*
X0553350Y0140889D01*
X0553350Y0139891D02*
X0026603Y0139891D01*
X0026603Y0138892D02*
X0553350Y0138892D01*
X0553350Y0137894D02*
X0026603Y0137894D01*
X0026603Y0136895D02*
X0553350Y0136895D01*
X0553350Y0135897D02*
X0026603Y0135897D01*
X0026603Y0134898D02*
X0553350Y0134898D01*
X0553350Y0133900D02*
X0026603Y0133900D01*
X0026603Y0132901D02*
X0553350Y0132901D01*
X0553350Y0131903D02*
X0026603Y0131903D01*
X0026603Y0130904D02*
X0553350Y0130904D01*
X0553350Y0129906D02*
X0026603Y0129906D01*
X0026603Y0128907D02*
X0553350Y0128907D01*
X0553350Y0127909D02*
X0026603Y0127909D01*
X0026603Y0126910D02*
X0553350Y0126910D01*
X0553350Y0125912D02*
X0026603Y0125912D01*
X0026603Y0124913D02*
X0553350Y0124913D01*
X0553350Y0123915D02*
X0026603Y0123915D01*
X0026603Y0122916D02*
X0166655Y0122916D01*
X0166641Y0122910D02*
X0165023Y0121293D01*
X0164148Y0119179D01*
X0164148Y0116892D01*
X0165023Y0114778D01*
X0166641Y0113161D01*
X0168754Y0112285D01*
X0171041Y0112285D01*
X0173155Y0113161D01*
X0174772Y0114778D01*
X0175648Y0116892D01*
X0175648Y0119179D01*
X0174772Y0121293D01*
X0173155Y0122910D01*
X0171041Y0123785D01*
X0168754Y0123785D01*
X0166641Y0122910D01*
X0165648Y0121918D02*
X0026603Y0121918D01*
X0026603Y0120919D02*
X0164868Y0120919D01*
X0164455Y0119921D02*
X0026603Y0119921D01*
X0026603Y0118922D02*
X0164148Y0118922D01*
X0164148Y0117923D02*
X0026603Y0117923D01*
X0026603Y0116925D02*
X0164148Y0116925D01*
X0164547Y0115926D02*
X0026603Y0115926D01*
X0026603Y0114928D02*
X0164961Y0114928D01*
X0165872Y0113929D02*
X0026603Y0113929D01*
X0026603Y0112931D02*
X0167195Y0112931D01*
X0172600Y0112931D02*
X0265621Y0112931D01*
X0265066Y0113161D02*
X0267179Y0112285D01*
X0269467Y0112285D01*
X0271580Y0113161D01*
X0273197Y0114778D01*
X0274073Y0116892D01*
X0274073Y0119179D01*
X0273197Y0121293D01*
X0271580Y0122910D01*
X0269467Y0123785D01*
X0267179Y0123785D01*
X0265066Y0122910D01*
X0263448Y0121293D01*
X0262573Y0119179D01*
X0262573Y0116892D01*
X0263448Y0114778D01*
X0265066Y0113161D01*
X0264297Y0113929D02*
X0173923Y0113929D01*
X0174834Y0114928D02*
X0263386Y0114928D01*
X0262973Y0115926D02*
X0175248Y0115926D01*
X0175648Y0116925D02*
X0262573Y0116925D01*
X0262573Y0117923D02*
X0175648Y0117923D01*
X0175648Y0118922D02*
X0262573Y0118922D01*
X0262880Y0119921D02*
X0175341Y0119921D01*
X0174927Y0120919D02*
X0263294Y0120919D01*
X0264073Y0121918D02*
X0174147Y0121918D01*
X0173140Y0122916D02*
X0265080Y0122916D01*
X0271565Y0122916D02*
X0363505Y0122916D01*
X0363491Y0122910D02*
X0361873Y0121293D01*
X0360998Y0119179D01*
X0360998Y0116892D01*
X0361873Y0114778D01*
X0363491Y0113161D01*
X0365604Y0112285D01*
X0367892Y0112285D01*
X0370005Y0113161D01*
X0371623Y0114778D01*
X0372498Y0116892D01*
X0372498Y0119179D01*
X0371623Y0121293D01*
X0370005Y0122910D01*
X0367892Y0123785D01*
X0365604Y0123785D01*
X0363491Y0122910D01*
X0362498Y0121918D02*
X0272572Y0121918D01*
X0273352Y0120919D02*
X0361719Y0120919D01*
X0361305Y0119921D02*
X0273766Y0119921D01*
X0274073Y0118922D02*
X0360998Y0118922D01*
X0360998Y0117923D02*
X0274073Y0117923D01*
X0274073Y0116925D02*
X0360998Y0116925D01*
X0361398Y0115926D02*
X0273673Y0115926D01*
X0273259Y0114928D02*
X0361811Y0114928D01*
X0362722Y0113929D02*
X0272349Y0113929D01*
X0271025Y0112931D02*
X0364046Y0112931D01*
X0369450Y0112931D02*
X0462471Y0112931D01*
X0461916Y0113161D02*
X0464029Y0112285D01*
X0466317Y0112285D01*
X0468430Y0113161D01*
X0470048Y0114778D01*
X0470923Y0116892D01*
X0470923Y0119179D01*
X0470048Y0121293D01*
X0468430Y0122910D01*
X0466317Y0123785D01*
X0464029Y0123785D01*
X0461916Y0122910D01*
X0460299Y0121293D01*
X0459423Y0119179D01*
X0459423Y0116892D01*
X0460299Y0114778D01*
X0461916Y0113161D01*
X0461147Y0113929D02*
X0370774Y0113929D01*
X0371685Y0114928D02*
X0460237Y0114928D01*
X0459823Y0115926D02*
X0372098Y0115926D01*
X0372498Y0116925D02*
X0459423Y0116925D01*
X0459423Y0117923D02*
X0372498Y0117923D01*
X0372498Y0118922D02*
X0459423Y0118922D01*
X0459730Y0119921D02*
X0372191Y0119921D01*
X0371777Y0120919D02*
X0460144Y0120919D01*
X0460924Y0121918D02*
X0370998Y0121918D01*
X0369991Y0122916D02*
X0461931Y0122916D01*
X0467875Y0112931D02*
X0553350Y0112931D01*
X0553350Y0113929D02*
X0469199Y0113929D01*
X0470110Y0114928D02*
X0553350Y0114928D01*
X0553350Y0115926D02*
X0470523Y0115926D01*
X0470923Y0116925D02*
X0553350Y0116925D01*
X0553350Y0117923D02*
X0470923Y0117923D01*
X0470923Y0118922D02*
X0553350Y0118922D01*
X0553350Y0119921D02*
X0470616Y0119921D01*
X0470203Y0120919D02*
X0553350Y0120919D01*
X0553350Y0121918D02*
X0469423Y0121918D01*
X0468416Y0122916D02*
X0553350Y0122916D01*
X0553350Y0111932D02*
X0026603Y0111932D01*
X0026603Y0110934D02*
X0553350Y0110934D01*
X0553350Y0109935D02*
X0026603Y0109935D01*
X0026603Y0108937D02*
X0553350Y0108937D01*
X0553350Y0107938D02*
X0026603Y0107938D01*
X0026603Y0106940D02*
X0553350Y0106940D01*
X0553350Y0105941D02*
X0026603Y0105941D01*
X0026603Y0104943D02*
X0553350Y0104943D01*
X0553350Y0103944D02*
X0026603Y0103944D01*
X0026603Y0102946D02*
X0553350Y0102946D01*
X0553350Y0101947D02*
X0026603Y0101947D01*
X0026603Y0100949D02*
X0553350Y0100949D01*
X0553350Y0099950D02*
X0026603Y0099950D01*
X0026603Y0098952D02*
X0553350Y0098952D01*
X0553350Y0097953D02*
X0026603Y0097953D01*
X0026603Y0096955D02*
X0553350Y0096955D01*
X0553350Y0095956D02*
X0026603Y0095956D01*
X0026603Y0094958D02*
X0553350Y0094958D01*
X0553350Y0093959D02*
X0026603Y0093959D01*
X0026603Y0092961D02*
X0553350Y0092961D01*
X0553350Y0091962D02*
X0026603Y0091962D01*
X0026603Y0090964D02*
X0553350Y0090964D01*
X0553350Y0089965D02*
X0026603Y0089965D01*
X0026603Y0088967D02*
X0553350Y0088967D01*
X0553350Y0087968D02*
X0026603Y0087968D01*
X0026603Y0086970D02*
X0553350Y0086970D01*
X0553350Y0085971D02*
X0026603Y0085971D01*
X0026603Y0084973D02*
X0553350Y0084973D01*
X0553350Y0083974D02*
X0026603Y0083974D01*
X0026603Y0082976D02*
X0553350Y0082976D01*
X0553350Y0081977D02*
X0026603Y0081977D01*
X0026603Y0080979D02*
X0553350Y0080979D01*
X0553350Y0079980D02*
X0026603Y0079980D01*
X0026603Y0078982D02*
X0553350Y0078982D01*
X0553350Y0077983D02*
X0026603Y0077983D01*
X0026603Y0076985D02*
X0553350Y0076985D01*
X0553350Y0075986D02*
X0026603Y0075986D01*
X0026603Y0074988D02*
X0553350Y0074988D01*
X0553350Y0073989D02*
X0026603Y0073989D01*
X0026603Y0072990D02*
X0553350Y0072990D01*
X0553350Y0071992D02*
X0026603Y0071992D01*
X0026603Y0070993D02*
X0553350Y0070993D01*
X0553350Y0069995D02*
X0026603Y0069995D01*
X0026603Y0068996D02*
X0553350Y0068996D01*
X0553350Y0067998D02*
X0026603Y0067998D01*
X0026603Y0066999D02*
X0553350Y0066999D01*
X0553350Y0066001D02*
X0026603Y0066001D01*
X0026603Y0065002D02*
X0553350Y0065002D01*
X0553350Y0064004D02*
X0026603Y0064004D01*
X0026603Y0063005D02*
X0553350Y0063005D01*
X0553350Y0062007D02*
X0026603Y0062007D01*
X0026603Y0061008D02*
X0553350Y0061008D01*
X0553350Y0060010D02*
X0026603Y0060010D01*
X0026603Y0059011D02*
X0553350Y0059011D01*
X0553350Y0058013D02*
X0026603Y0058013D01*
X0026603Y0057014D02*
X0553350Y0057014D01*
X0553350Y0056016D02*
X0026603Y0056016D01*
X0026603Y0055017D02*
X0553350Y0055017D01*
X0553350Y0054019D02*
X0026603Y0054019D01*
X0026603Y0053020D02*
X0553350Y0053020D01*
X0553350Y0052022D02*
X0026603Y0052022D01*
X0026603Y0051023D02*
X0553350Y0051023D01*
X0553350Y0050025D02*
X0026603Y0050025D01*
X0026603Y0049026D02*
X0093164Y0049026D01*
X0094712Y0049441D02*
X0090930Y0048428D01*
X0087539Y0046470D01*
X0084770Y0043701D01*
X0082813Y0040310D01*
X0081799Y0036529D01*
X0081799Y0032613D01*
X0082813Y0028831D01*
X0084770Y0025440D01*
X0087539Y0022672D01*
X0090930Y0020714D01*
X0094712Y0019701D01*
X0098627Y0019701D01*
X0102409Y0020714D01*
X0105800Y0022672D01*
X0108568Y0025440D01*
X0110526Y0028831D01*
X0111539Y0032613D01*
X0111539Y0036529D01*
X0110526Y0040310D01*
X0108568Y0043701D01*
X0105800Y0046470D01*
X0102409Y0048428D01*
X0098627Y0049441D01*
X0094712Y0049441D01*
X0090237Y0048028D02*
X0026603Y0048028D01*
X0026603Y0047029D02*
X0088508Y0047029D01*
X0087100Y0046031D02*
X0026603Y0046031D01*
X0026603Y0045032D02*
X0086101Y0045032D01*
X0085103Y0044034D02*
X0026603Y0044034D01*
X0026603Y0043035D02*
X0084386Y0043035D01*
X0083809Y0042037D02*
X0026603Y0042037D01*
X0026603Y0041038D02*
X0083233Y0041038D01*
X0082740Y0040040D02*
X0026603Y0040040D01*
X0026603Y0039041D02*
X0082472Y0039041D01*
X0082205Y0038043D02*
X0026603Y0038043D01*
X0026603Y0037044D02*
X0081937Y0037044D01*
X0081799Y0036046D02*
X0046670Y0036046D01*
X0045697Y0036449D02*
X0042130Y0036449D01*
X0038835Y0035084D01*
X0036314Y0032562D01*
X0034949Y0029267D01*
X0034949Y0025701D01*
X0036314Y0022406D01*
X0038835Y0019884D01*
X0042130Y0018520D01*
X0045697Y0018520D01*
X0048991Y0019884D01*
X0051513Y0022406D01*
X0052878Y0025701D01*
X0052878Y0029267D01*
X0051513Y0032562D01*
X0048991Y0035084D01*
X0045697Y0036449D01*
X0049028Y0035047D02*
X0081799Y0035047D01*
X0081799Y0034049D02*
X0050027Y0034049D01*
X0051025Y0033050D02*
X0081799Y0033050D01*
X0081950Y0032052D02*
X0051725Y0032052D01*
X0052138Y0031053D02*
X0082217Y0031053D01*
X0082485Y0030055D02*
X0052552Y0030055D01*
X0052878Y0029056D02*
X0082752Y0029056D01*
X0083259Y0028057D02*
X0052878Y0028057D01*
X0052878Y0027059D02*
X0083836Y0027059D01*
X0084412Y0026060D02*
X0052878Y0026060D01*
X0052613Y0025062D02*
X0085149Y0025062D01*
X0086147Y0024063D02*
X0052200Y0024063D01*
X0051786Y0023065D02*
X0087146Y0023065D01*
X0088587Y0022066D02*
X0051173Y0022066D01*
X0050175Y0021068D02*
X0090317Y0021068D01*
X0093336Y0020069D02*
X0049176Y0020069D01*
X0047027Y0019071D02*
X0336075Y0019071D01*
X0337406Y0018520D02*
X0340972Y0018520D01*
X0344267Y0019884D01*
X0346789Y0022406D01*
X0348154Y0025701D01*
X0348154Y0029267D01*
X0346789Y0032562D01*
X0344267Y0035084D01*
X0340972Y0036449D01*
X0337406Y0036449D01*
X0334111Y0035084D01*
X0331589Y0032562D01*
X0330224Y0029267D01*
X0330224Y0025701D01*
X0331589Y0022406D01*
X0334111Y0019884D01*
X0337406Y0018520D01*
X0333926Y0020069D02*
X0300003Y0020069D01*
X0298627Y0019701D02*
X0302409Y0020714D01*
X0305800Y0022672D01*
X0308568Y0025440D01*
X0310526Y0028831D01*
X0311539Y0032613D01*
X0311539Y0036529D01*
X0310526Y0040310D01*
X0308568Y0043701D01*
X0305800Y0046470D01*
X0302409Y0048428D01*
X0298627Y0049441D01*
X0294712Y0049441D01*
X0290930Y0048428D01*
X0287539Y0046470D01*
X0284770Y0043701D01*
X0282813Y0040310D01*
X0281799Y0036529D01*
X0281799Y0032613D01*
X0282813Y0028831D01*
X0284770Y0025440D01*
X0287539Y0022672D01*
X0290930Y0020714D01*
X0294712Y0019701D01*
X0298627Y0019701D01*
X0303022Y0021068D02*
X0332928Y0021068D01*
X0331929Y0022066D02*
X0304751Y0022066D01*
X0306193Y0023065D02*
X0331316Y0023065D01*
X0330903Y0024063D02*
X0307191Y0024063D01*
X0308190Y0025062D02*
X0330489Y0025062D01*
X0330224Y0026060D02*
X0308926Y0026060D01*
X0309503Y0027059D02*
X0330224Y0027059D01*
X0330224Y0028057D02*
X0310079Y0028057D01*
X0310586Y0029056D02*
X0330224Y0029056D01*
X0330550Y0030055D02*
X0310854Y0030055D01*
X0311121Y0031053D02*
X0330964Y0031053D01*
X0331378Y0032052D02*
X0311389Y0032052D01*
X0311539Y0033050D02*
X0332077Y0033050D01*
X0333075Y0034049D02*
X0311539Y0034049D01*
X0311539Y0035047D02*
X0334074Y0035047D01*
X0336432Y0036046D02*
X0311539Y0036046D01*
X0311401Y0037044D02*
X0381937Y0037044D01*
X0381799Y0036529D02*
X0381799Y0032613D01*
X0382813Y0028831D01*
X0384770Y0025440D01*
X0387539Y0022672D01*
X0390930Y0020714D01*
X0394712Y0019701D01*
X0398627Y0019701D01*
X0402409Y0020714D01*
X0405800Y0022672D01*
X0408568Y0025440D01*
X0410526Y0028831D01*
X0411539Y0032613D01*
X0411539Y0036529D01*
X0410526Y0040310D01*
X0408568Y0043701D01*
X0405800Y0046470D01*
X0402409Y0048428D01*
X0398627Y0049441D01*
X0394712Y0049441D01*
X0390930Y0048428D01*
X0387539Y0046470D01*
X0384770Y0043701D01*
X0382813Y0040310D01*
X0381799Y0036529D01*
X0381799Y0036046D02*
X0341946Y0036046D01*
X0344304Y0035047D02*
X0381799Y0035047D01*
X0381799Y0034049D02*
X0345302Y0034049D01*
X0346301Y0033050D02*
X0381799Y0033050D01*
X0381950Y0032052D02*
X0347000Y0032052D01*
X0347414Y0031053D02*
X0382217Y0031053D01*
X0382485Y0030055D02*
X0347828Y0030055D01*
X0348154Y0029056D02*
X0382752Y0029056D01*
X0383259Y0028057D02*
X0348154Y0028057D01*
X0348154Y0027059D02*
X0383836Y0027059D01*
X0384412Y0026060D02*
X0348154Y0026060D01*
X0347889Y0025062D02*
X0385149Y0025062D01*
X0386147Y0024063D02*
X0347475Y0024063D01*
X0347062Y0023065D02*
X0387146Y0023065D01*
X0388587Y0022066D02*
X0346449Y0022066D01*
X0345450Y0021068D02*
X0390317Y0021068D01*
X0393336Y0020069D02*
X0344452Y0020069D01*
X0342303Y0019071D02*
X0532925Y0019071D01*
X0534256Y0018520D02*
X0537823Y0018520D01*
X0541117Y0019884D01*
X0543639Y0022406D01*
X0545004Y0025701D01*
X0545004Y0029267D01*
X0543639Y0032562D01*
X0541117Y0035084D01*
X0537823Y0036449D01*
X0534256Y0036449D01*
X0530961Y0035084D01*
X0528440Y0032562D01*
X0527075Y0029267D01*
X0527075Y0025701D01*
X0528440Y0022406D01*
X0530961Y0019884D01*
X0534256Y0018520D01*
X0530776Y0020069D02*
X0500003Y0020069D01*
X0498627Y0019701D02*
X0502409Y0020714D01*
X0505800Y0022672D01*
X0508568Y0025440D01*
X0510526Y0028831D01*
X0511539Y0032613D01*
X0511539Y0036529D01*
X0510526Y0040310D01*
X0508568Y0043701D01*
X0505800Y0046470D01*
X0502409Y0048428D01*
X0498627Y0049441D01*
X0494712Y0049441D01*
X0490930Y0048428D01*
X0487539Y0046470D01*
X0484770Y0043701D01*
X0482813Y0040310D01*
X0481799Y0036529D01*
X0481799Y0032613D01*
X0482813Y0028831D01*
X0484770Y0025440D01*
X0487539Y0022672D01*
X0490930Y0020714D01*
X0494712Y0019701D01*
X0498627Y0019701D01*
X0503022Y0021068D02*
X0529778Y0021068D01*
X0528779Y0022066D02*
X0504751Y0022066D01*
X0506193Y0023065D02*
X0528167Y0023065D01*
X0527753Y0024063D02*
X0507191Y0024063D01*
X0508190Y0025062D02*
X0527340Y0025062D01*
X0527075Y0026060D02*
X0508926Y0026060D01*
X0509503Y0027059D02*
X0527075Y0027059D01*
X0527075Y0028057D02*
X0510079Y0028057D01*
X0510586Y0029056D02*
X0527075Y0029056D01*
X0527401Y0030055D02*
X0510854Y0030055D01*
X0511121Y0031053D02*
X0527814Y0031053D01*
X0528228Y0032052D02*
X0511389Y0032052D01*
X0511539Y0033050D02*
X0528927Y0033050D01*
X0529926Y0034049D02*
X0511539Y0034049D01*
X0511539Y0035047D02*
X0530924Y0035047D01*
X0533283Y0036046D02*
X0511539Y0036046D01*
X0511401Y0037044D02*
X0553350Y0037044D01*
X0553350Y0036046D02*
X0538796Y0036046D01*
X0541154Y0035047D02*
X0553350Y0035047D01*
X0553350Y0034049D02*
X0542153Y0034049D01*
X0543151Y0033050D02*
X0553350Y0033050D01*
X0553350Y0032052D02*
X0543851Y0032052D01*
X0544264Y0031053D02*
X0553350Y0031053D01*
X0553350Y0030055D02*
X0544678Y0030055D01*
X0545004Y0029056D02*
X0553350Y0029056D01*
X0553350Y0028057D02*
X0545004Y0028057D01*
X0545004Y0027059D02*
X0553350Y0027059D01*
X0553350Y0026060D02*
X0545004Y0026060D01*
X0544739Y0025062D02*
X0553350Y0025062D01*
X0553350Y0024063D02*
X0544326Y0024063D01*
X0543912Y0023065D02*
X0553350Y0023065D01*
X0553350Y0022066D02*
X0543299Y0022066D01*
X0542301Y0021068D02*
X0553350Y0021068D01*
X0553350Y0020069D02*
X0541302Y0020069D01*
X0539153Y0019071D02*
X0553350Y0019071D01*
X0553350Y0018072D02*
X0026603Y0018072D01*
X0026603Y0017074D02*
X0553350Y0017074D01*
X0553350Y0016075D02*
X0026603Y0016075D01*
X0026603Y0015077D02*
X0553350Y0015077D01*
X0553350Y0014078D02*
X0026603Y0014078D01*
X0026603Y0013080D02*
X0553350Y0013080D01*
X0553350Y0012081D02*
X0026603Y0012081D01*
X0026603Y0011083D02*
X0553350Y0011083D01*
X0553350Y0038043D02*
X0511134Y0038043D01*
X0510866Y0039041D02*
X0553350Y0039041D01*
X0553350Y0040040D02*
X0510599Y0040040D01*
X0510106Y0041038D02*
X0553350Y0041038D01*
X0553350Y0042037D02*
X0509529Y0042037D01*
X0508953Y0043035D02*
X0553350Y0043035D01*
X0553350Y0044034D02*
X0508236Y0044034D01*
X0507237Y0045032D02*
X0553350Y0045032D01*
X0553350Y0046031D02*
X0506239Y0046031D01*
X0504831Y0047029D02*
X0553350Y0047029D01*
X0553350Y0048028D02*
X0503101Y0048028D01*
X0500175Y0049026D02*
X0553350Y0049026D01*
X0493164Y0049026D02*
X0400175Y0049026D01*
X0403101Y0048028D02*
X0490237Y0048028D01*
X0488508Y0047029D02*
X0404831Y0047029D01*
X0406239Y0046031D02*
X0487100Y0046031D01*
X0486101Y0045032D02*
X0407237Y0045032D01*
X0408236Y0044034D02*
X0485103Y0044034D01*
X0484386Y0043035D02*
X0408953Y0043035D01*
X0409529Y0042037D02*
X0483809Y0042037D01*
X0483233Y0041038D02*
X0410106Y0041038D01*
X0410599Y0040040D02*
X0482740Y0040040D01*
X0482472Y0039041D02*
X0410866Y0039041D01*
X0411134Y0038043D02*
X0482205Y0038043D01*
X0481937Y0037044D02*
X0411401Y0037044D01*
X0411539Y0036046D02*
X0481799Y0036046D01*
X0481799Y0035047D02*
X0411539Y0035047D01*
X0411539Y0034049D02*
X0481799Y0034049D01*
X0481799Y0033050D02*
X0411539Y0033050D01*
X0411389Y0032052D02*
X0481950Y0032052D01*
X0482217Y0031053D02*
X0411121Y0031053D01*
X0410854Y0030055D02*
X0482485Y0030055D01*
X0482752Y0029056D02*
X0410586Y0029056D01*
X0410079Y0028057D02*
X0483259Y0028057D01*
X0483836Y0027059D02*
X0409503Y0027059D01*
X0408926Y0026060D02*
X0484412Y0026060D01*
X0485149Y0025062D02*
X0408190Y0025062D01*
X0407191Y0024063D02*
X0486147Y0024063D01*
X0487146Y0023065D02*
X0406193Y0023065D01*
X0404751Y0022066D02*
X0488587Y0022066D01*
X0490317Y0021068D02*
X0403022Y0021068D01*
X0400003Y0020069D02*
X0493336Y0020069D01*
X0393164Y0049026D02*
X0300175Y0049026D01*
X0303101Y0048028D02*
X0390237Y0048028D01*
X0388508Y0047029D02*
X0304831Y0047029D01*
X0306239Y0046031D02*
X0387100Y0046031D01*
X0386101Y0045032D02*
X0307237Y0045032D01*
X0308236Y0044034D02*
X0385103Y0044034D01*
X0384386Y0043035D02*
X0308953Y0043035D01*
X0309529Y0042037D02*
X0383809Y0042037D01*
X0383233Y0041038D02*
X0310106Y0041038D01*
X0310599Y0040040D02*
X0382740Y0040040D01*
X0382472Y0039041D02*
X0310866Y0039041D01*
X0311134Y0038043D02*
X0382205Y0038043D01*
X0293164Y0049026D02*
X0200175Y0049026D01*
X0198627Y0049441D02*
X0202409Y0048428D01*
X0205800Y0046470D01*
X0208568Y0043701D01*
X0210526Y0040310D01*
X0211539Y0036529D01*
X0211539Y0032613D01*
X0210526Y0028831D01*
X0208568Y0025440D01*
X0205800Y0022672D01*
X0202409Y0020714D01*
X0198627Y0019701D01*
X0194712Y0019701D01*
X0190930Y0020714D01*
X0187539Y0022672D01*
X0184770Y0025440D01*
X0182813Y0028831D01*
X0181799Y0032613D01*
X0181799Y0036529D01*
X0182813Y0040310D01*
X0184770Y0043701D01*
X0187539Y0046470D01*
X0190930Y0048428D01*
X0194712Y0049441D01*
X0198627Y0049441D01*
X0203101Y0048028D02*
X0290237Y0048028D01*
X0288508Y0047029D02*
X0204831Y0047029D01*
X0206239Y0046031D02*
X0287100Y0046031D01*
X0286101Y0045032D02*
X0207237Y0045032D01*
X0208236Y0044034D02*
X0285103Y0044034D01*
X0284386Y0043035D02*
X0208953Y0043035D01*
X0209529Y0042037D02*
X0283809Y0042037D01*
X0283233Y0041038D02*
X0210106Y0041038D01*
X0210599Y0040040D02*
X0282740Y0040040D01*
X0282472Y0039041D02*
X0210866Y0039041D01*
X0211134Y0038043D02*
X0282205Y0038043D01*
X0281937Y0037044D02*
X0211401Y0037044D01*
X0211539Y0036046D02*
X0281799Y0036046D01*
X0281799Y0035047D02*
X0211539Y0035047D01*
X0211539Y0034049D02*
X0281799Y0034049D01*
X0281799Y0033050D02*
X0211539Y0033050D01*
X0211389Y0032052D02*
X0281950Y0032052D01*
X0282217Y0031053D02*
X0211121Y0031053D01*
X0210854Y0030055D02*
X0282485Y0030055D01*
X0282752Y0029056D02*
X0210586Y0029056D01*
X0210079Y0028057D02*
X0283259Y0028057D01*
X0283836Y0027059D02*
X0209503Y0027059D01*
X0208926Y0026060D02*
X0284412Y0026060D01*
X0285149Y0025062D02*
X0208190Y0025062D01*
X0207191Y0024063D02*
X0286147Y0024063D01*
X0287146Y0023065D02*
X0206193Y0023065D01*
X0204751Y0022066D02*
X0288587Y0022066D01*
X0290317Y0021068D02*
X0203022Y0021068D01*
X0200003Y0020069D02*
X0293336Y0020069D01*
X0193336Y0020069D02*
X0100003Y0020069D01*
X0103022Y0021068D02*
X0190317Y0021068D01*
X0188587Y0022066D02*
X0104751Y0022066D01*
X0106193Y0023065D02*
X0187146Y0023065D01*
X0186147Y0024063D02*
X0107191Y0024063D01*
X0108190Y0025062D02*
X0185149Y0025062D01*
X0184412Y0026060D02*
X0108926Y0026060D01*
X0109503Y0027059D02*
X0183836Y0027059D01*
X0183259Y0028057D02*
X0110079Y0028057D01*
X0110586Y0029056D02*
X0182752Y0029056D01*
X0182485Y0030055D02*
X0110854Y0030055D01*
X0111121Y0031053D02*
X0182217Y0031053D01*
X0181950Y0032052D02*
X0111389Y0032052D01*
X0111539Y0033050D02*
X0181799Y0033050D01*
X0181799Y0034049D02*
X0111539Y0034049D01*
X0111539Y0035047D02*
X0181799Y0035047D01*
X0181799Y0036046D02*
X0111539Y0036046D01*
X0111401Y0037044D02*
X0181937Y0037044D01*
X0182205Y0038043D02*
X0111134Y0038043D01*
X0110866Y0039041D02*
X0182472Y0039041D01*
X0182740Y0040040D02*
X0110599Y0040040D01*
X0110106Y0041038D02*
X0183233Y0041038D01*
X0183809Y0042037D02*
X0109529Y0042037D01*
X0108953Y0043035D02*
X0184386Y0043035D01*
X0185103Y0044034D02*
X0108236Y0044034D01*
X0107237Y0045032D02*
X0186101Y0045032D01*
X0187100Y0046031D02*
X0106239Y0046031D01*
X0104831Y0047029D02*
X0188508Y0047029D01*
X0190237Y0048028D02*
X0103101Y0048028D01*
X0100175Y0049026D02*
X0193164Y0049026D01*
X0041157Y0036046D02*
X0026603Y0036046D01*
X0026603Y0035047D02*
X0038798Y0035047D01*
X0037800Y0034049D02*
X0026603Y0034049D01*
X0026603Y0033050D02*
X0036801Y0033050D01*
X0036102Y0032052D02*
X0026603Y0032052D01*
X0026603Y0031053D02*
X0035688Y0031053D01*
X0035275Y0030055D02*
X0026603Y0030055D01*
X0026603Y0029056D02*
X0034949Y0029056D01*
X0034949Y0028057D02*
X0026603Y0028057D01*
X0026603Y0027059D02*
X0034949Y0027059D01*
X0034949Y0026060D02*
X0026603Y0026060D01*
X0026603Y0025062D02*
X0035214Y0025062D01*
X0035627Y0024063D02*
X0026603Y0024063D01*
X0026603Y0023065D02*
X0036041Y0023065D01*
X0036653Y0022066D02*
X0026603Y0022066D01*
X0026603Y0021068D02*
X0037652Y0021068D01*
X0038650Y0020069D02*
X0026603Y0020069D01*
X0026603Y0019071D02*
X0040800Y0019071D01*
M02*
