G75*
%MOIN*%
%OFA0B0*%
%FSLAX25Y25*%
%IPPOS*%
%LPD*%
%AMOC8*
5,1,8,0,0,1.08239X$1,22.5*
%
%ADD10C,0.00600*%
%ADD11C,0.00000*%
D10*
X0029059Y0021185D02*
X0029059Y0950319D01*
X0560555Y0950319D01*
X0560555Y0021185D01*
X0029059Y0021185D01*
D11*
X0054255Y0063705D02*
X0054257Y0063793D01*
X0054263Y0063881D01*
X0054273Y0063969D01*
X0054287Y0064057D01*
X0054304Y0064143D01*
X0054326Y0064229D01*
X0054351Y0064313D01*
X0054381Y0064397D01*
X0054413Y0064479D01*
X0054450Y0064559D01*
X0054490Y0064638D01*
X0054534Y0064715D01*
X0054581Y0064790D01*
X0054631Y0064862D01*
X0054685Y0064933D01*
X0054741Y0065000D01*
X0054801Y0065066D01*
X0054863Y0065128D01*
X0054929Y0065188D01*
X0054996Y0065244D01*
X0055067Y0065298D01*
X0055139Y0065348D01*
X0055214Y0065395D01*
X0055291Y0065439D01*
X0055370Y0065479D01*
X0055450Y0065516D01*
X0055532Y0065548D01*
X0055616Y0065578D01*
X0055700Y0065603D01*
X0055786Y0065625D01*
X0055872Y0065642D01*
X0055960Y0065656D01*
X0056048Y0065666D01*
X0056136Y0065672D01*
X0056224Y0065674D01*
X0056312Y0065672D01*
X0056400Y0065666D01*
X0056488Y0065656D01*
X0056576Y0065642D01*
X0056662Y0065625D01*
X0056748Y0065603D01*
X0056832Y0065578D01*
X0056916Y0065548D01*
X0056998Y0065516D01*
X0057078Y0065479D01*
X0057157Y0065439D01*
X0057234Y0065395D01*
X0057309Y0065348D01*
X0057381Y0065298D01*
X0057452Y0065244D01*
X0057519Y0065188D01*
X0057585Y0065128D01*
X0057647Y0065066D01*
X0057707Y0065000D01*
X0057763Y0064933D01*
X0057817Y0064862D01*
X0057867Y0064790D01*
X0057914Y0064715D01*
X0057958Y0064638D01*
X0057998Y0064559D01*
X0058035Y0064479D01*
X0058067Y0064397D01*
X0058097Y0064313D01*
X0058122Y0064229D01*
X0058144Y0064143D01*
X0058161Y0064057D01*
X0058175Y0063969D01*
X0058185Y0063881D01*
X0058191Y0063793D01*
X0058193Y0063705D01*
X0058191Y0063617D01*
X0058185Y0063529D01*
X0058175Y0063441D01*
X0058161Y0063353D01*
X0058144Y0063267D01*
X0058122Y0063181D01*
X0058097Y0063097D01*
X0058067Y0063013D01*
X0058035Y0062931D01*
X0057998Y0062851D01*
X0057958Y0062772D01*
X0057914Y0062695D01*
X0057867Y0062620D01*
X0057817Y0062548D01*
X0057763Y0062477D01*
X0057707Y0062410D01*
X0057647Y0062344D01*
X0057585Y0062282D01*
X0057519Y0062222D01*
X0057452Y0062166D01*
X0057381Y0062112D01*
X0057309Y0062062D01*
X0057234Y0062015D01*
X0057157Y0061971D01*
X0057078Y0061931D01*
X0056998Y0061894D01*
X0056916Y0061862D01*
X0056832Y0061832D01*
X0056748Y0061807D01*
X0056662Y0061785D01*
X0056576Y0061768D01*
X0056488Y0061754D01*
X0056400Y0061744D01*
X0056312Y0061738D01*
X0056224Y0061736D01*
X0056136Y0061738D01*
X0056048Y0061744D01*
X0055960Y0061754D01*
X0055872Y0061768D01*
X0055786Y0061785D01*
X0055700Y0061807D01*
X0055616Y0061832D01*
X0055532Y0061862D01*
X0055450Y0061894D01*
X0055370Y0061931D01*
X0055291Y0061971D01*
X0055214Y0062015D01*
X0055139Y0062062D01*
X0055067Y0062112D01*
X0054996Y0062166D01*
X0054929Y0062222D01*
X0054863Y0062282D01*
X0054801Y0062344D01*
X0054741Y0062410D01*
X0054685Y0062477D01*
X0054631Y0062548D01*
X0054581Y0062620D01*
X0054534Y0062695D01*
X0054490Y0062772D01*
X0054450Y0062851D01*
X0054413Y0062931D01*
X0054381Y0063013D01*
X0054351Y0063097D01*
X0054326Y0063181D01*
X0054304Y0063267D01*
X0054287Y0063353D01*
X0054273Y0063441D01*
X0054263Y0063529D01*
X0054257Y0063617D01*
X0054255Y0063705D01*
X0054255Y0083390D02*
X0054257Y0083478D01*
X0054263Y0083566D01*
X0054273Y0083654D01*
X0054287Y0083742D01*
X0054304Y0083828D01*
X0054326Y0083914D01*
X0054351Y0083998D01*
X0054381Y0084082D01*
X0054413Y0084164D01*
X0054450Y0084244D01*
X0054490Y0084323D01*
X0054534Y0084400D01*
X0054581Y0084475D01*
X0054631Y0084547D01*
X0054685Y0084618D01*
X0054741Y0084685D01*
X0054801Y0084751D01*
X0054863Y0084813D01*
X0054929Y0084873D01*
X0054996Y0084929D01*
X0055067Y0084983D01*
X0055139Y0085033D01*
X0055214Y0085080D01*
X0055291Y0085124D01*
X0055370Y0085164D01*
X0055450Y0085201D01*
X0055532Y0085233D01*
X0055616Y0085263D01*
X0055700Y0085288D01*
X0055786Y0085310D01*
X0055872Y0085327D01*
X0055960Y0085341D01*
X0056048Y0085351D01*
X0056136Y0085357D01*
X0056224Y0085359D01*
X0056312Y0085357D01*
X0056400Y0085351D01*
X0056488Y0085341D01*
X0056576Y0085327D01*
X0056662Y0085310D01*
X0056748Y0085288D01*
X0056832Y0085263D01*
X0056916Y0085233D01*
X0056998Y0085201D01*
X0057078Y0085164D01*
X0057157Y0085124D01*
X0057234Y0085080D01*
X0057309Y0085033D01*
X0057381Y0084983D01*
X0057452Y0084929D01*
X0057519Y0084873D01*
X0057585Y0084813D01*
X0057647Y0084751D01*
X0057707Y0084685D01*
X0057763Y0084618D01*
X0057817Y0084547D01*
X0057867Y0084475D01*
X0057914Y0084400D01*
X0057958Y0084323D01*
X0057998Y0084244D01*
X0058035Y0084164D01*
X0058067Y0084082D01*
X0058097Y0083998D01*
X0058122Y0083914D01*
X0058144Y0083828D01*
X0058161Y0083742D01*
X0058175Y0083654D01*
X0058185Y0083566D01*
X0058191Y0083478D01*
X0058193Y0083390D01*
X0058191Y0083302D01*
X0058185Y0083214D01*
X0058175Y0083126D01*
X0058161Y0083038D01*
X0058144Y0082952D01*
X0058122Y0082866D01*
X0058097Y0082782D01*
X0058067Y0082698D01*
X0058035Y0082616D01*
X0057998Y0082536D01*
X0057958Y0082457D01*
X0057914Y0082380D01*
X0057867Y0082305D01*
X0057817Y0082233D01*
X0057763Y0082162D01*
X0057707Y0082095D01*
X0057647Y0082029D01*
X0057585Y0081967D01*
X0057519Y0081907D01*
X0057452Y0081851D01*
X0057381Y0081797D01*
X0057309Y0081747D01*
X0057234Y0081700D01*
X0057157Y0081656D01*
X0057078Y0081616D01*
X0056998Y0081579D01*
X0056916Y0081547D01*
X0056832Y0081517D01*
X0056748Y0081492D01*
X0056662Y0081470D01*
X0056576Y0081453D01*
X0056488Y0081439D01*
X0056400Y0081429D01*
X0056312Y0081423D01*
X0056224Y0081421D01*
X0056136Y0081423D01*
X0056048Y0081429D01*
X0055960Y0081439D01*
X0055872Y0081453D01*
X0055786Y0081470D01*
X0055700Y0081492D01*
X0055616Y0081517D01*
X0055532Y0081547D01*
X0055450Y0081579D01*
X0055370Y0081616D01*
X0055291Y0081656D01*
X0055214Y0081700D01*
X0055139Y0081747D01*
X0055067Y0081797D01*
X0054996Y0081851D01*
X0054929Y0081907D01*
X0054863Y0081967D01*
X0054801Y0082029D01*
X0054741Y0082095D01*
X0054685Y0082162D01*
X0054631Y0082233D01*
X0054581Y0082305D01*
X0054534Y0082380D01*
X0054490Y0082457D01*
X0054450Y0082536D01*
X0054413Y0082616D01*
X0054381Y0082698D01*
X0054351Y0082782D01*
X0054326Y0082866D01*
X0054304Y0082952D01*
X0054287Y0083038D01*
X0054273Y0083126D01*
X0054263Y0083214D01*
X0054257Y0083302D01*
X0054255Y0083390D01*
X0159964Y0040870D02*
X0159966Y0041039D01*
X0159972Y0041208D01*
X0159983Y0041377D01*
X0159997Y0041545D01*
X0160016Y0041713D01*
X0160039Y0041881D01*
X0160065Y0042048D01*
X0160096Y0042214D01*
X0160131Y0042380D01*
X0160170Y0042544D01*
X0160214Y0042708D01*
X0160261Y0042870D01*
X0160312Y0043031D01*
X0160367Y0043191D01*
X0160426Y0043350D01*
X0160488Y0043507D01*
X0160555Y0043662D01*
X0160626Y0043816D01*
X0160700Y0043968D01*
X0160778Y0044118D01*
X0160859Y0044266D01*
X0160944Y0044412D01*
X0161033Y0044556D01*
X0161125Y0044698D01*
X0161221Y0044837D01*
X0161320Y0044974D01*
X0161422Y0045109D01*
X0161528Y0045241D01*
X0161637Y0045370D01*
X0161749Y0045497D01*
X0161864Y0045621D01*
X0161982Y0045742D01*
X0162103Y0045860D01*
X0162227Y0045975D01*
X0162354Y0046087D01*
X0162483Y0046196D01*
X0162615Y0046302D01*
X0162750Y0046404D01*
X0162887Y0046503D01*
X0163026Y0046599D01*
X0163168Y0046691D01*
X0163312Y0046780D01*
X0163458Y0046865D01*
X0163606Y0046946D01*
X0163756Y0047024D01*
X0163908Y0047098D01*
X0164062Y0047169D01*
X0164217Y0047236D01*
X0164374Y0047298D01*
X0164533Y0047357D01*
X0164693Y0047412D01*
X0164854Y0047463D01*
X0165016Y0047510D01*
X0165180Y0047554D01*
X0165344Y0047593D01*
X0165510Y0047628D01*
X0165676Y0047659D01*
X0165843Y0047685D01*
X0166011Y0047708D01*
X0166179Y0047727D01*
X0166347Y0047741D01*
X0166516Y0047752D01*
X0166685Y0047758D01*
X0166854Y0047760D01*
X0167023Y0047758D01*
X0167192Y0047752D01*
X0167361Y0047741D01*
X0167529Y0047727D01*
X0167697Y0047708D01*
X0167865Y0047685D01*
X0168032Y0047659D01*
X0168198Y0047628D01*
X0168364Y0047593D01*
X0168528Y0047554D01*
X0168692Y0047510D01*
X0168854Y0047463D01*
X0169015Y0047412D01*
X0169175Y0047357D01*
X0169334Y0047298D01*
X0169491Y0047236D01*
X0169646Y0047169D01*
X0169800Y0047098D01*
X0169952Y0047024D01*
X0170102Y0046946D01*
X0170250Y0046865D01*
X0170396Y0046780D01*
X0170540Y0046691D01*
X0170682Y0046599D01*
X0170821Y0046503D01*
X0170958Y0046404D01*
X0171093Y0046302D01*
X0171225Y0046196D01*
X0171354Y0046087D01*
X0171481Y0045975D01*
X0171605Y0045860D01*
X0171726Y0045742D01*
X0171844Y0045621D01*
X0171959Y0045497D01*
X0172071Y0045370D01*
X0172180Y0045241D01*
X0172286Y0045109D01*
X0172388Y0044974D01*
X0172487Y0044837D01*
X0172583Y0044698D01*
X0172675Y0044556D01*
X0172764Y0044412D01*
X0172849Y0044266D01*
X0172930Y0044118D01*
X0173008Y0043968D01*
X0173082Y0043816D01*
X0173153Y0043662D01*
X0173220Y0043507D01*
X0173282Y0043350D01*
X0173341Y0043191D01*
X0173396Y0043031D01*
X0173447Y0042870D01*
X0173494Y0042708D01*
X0173538Y0042544D01*
X0173577Y0042380D01*
X0173612Y0042214D01*
X0173643Y0042048D01*
X0173669Y0041881D01*
X0173692Y0041713D01*
X0173711Y0041545D01*
X0173725Y0041377D01*
X0173736Y0041208D01*
X0173742Y0041039D01*
X0173744Y0040870D01*
X0173742Y0040701D01*
X0173736Y0040532D01*
X0173725Y0040363D01*
X0173711Y0040195D01*
X0173692Y0040027D01*
X0173669Y0039859D01*
X0173643Y0039692D01*
X0173612Y0039526D01*
X0173577Y0039360D01*
X0173538Y0039196D01*
X0173494Y0039032D01*
X0173447Y0038870D01*
X0173396Y0038709D01*
X0173341Y0038549D01*
X0173282Y0038390D01*
X0173220Y0038233D01*
X0173153Y0038078D01*
X0173082Y0037924D01*
X0173008Y0037772D01*
X0172930Y0037622D01*
X0172849Y0037474D01*
X0172764Y0037328D01*
X0172675Y0037184D01*
X0172583Y0037042D01*
X0172487Y0036903D01*
X0172388Y0036766D01*
X0172286Y0036631D01*
X0172180Y0036499D01*
X0172071Y0036370D01*
X0171959Y0036243D01*
X0171844Y0036119D01*
X0171726Y0035998D01*
X0171605Y0035880D01*
X0171481Y0035765D01*
X0171354Y0035653D01*
X0171225Y0035544D01*
X0171093Y0035438D01*
X0170958Y0035336D01*
X0170821Y0035237D01*
X0170682Y0035141D01*
X0170540Y0035049D01*
X0170396Y0034960D01*
X0170250Y0034875D01*
X0170102Y0034794D01*
X0169952Y0034716D01*
X0169800Y0034642D01*
X0169646Y0034571D01*
X0169491Y0034504D01*
X0169334Y0034442D01*
X0169175Y0034383D01*
X0169015Y0034328D01*
X0168854Y0034277D01*
X0168692Y0034230D01*
X0168528Y0034186D01*
X0168364Y0034147D01*
X0168198Y0034112D01*
X0168032Y0034081D01*
X0167865Y0034055D01*
X0167697Y0034032D01*
X0167529Y0034013D01*
X0167361Y0033999D01*
X0167192Y0033988D01*
X0167023Y0033982D01*
X0166854Y0033980D01*
X0166685Y0033982D01*
X0166516Y0033988D01*
X0166347Y0033999D01*
X0166179Y0034013D01*
X0166011Y0034032D01*
X0165843Y0034055D01*
X0165676Y0034081D01*
X0165510Y0034112D01*
X0165344Y0034147D01*
X0165180Y0034186D01*
X0165016Y0034230D01*
X0164854Y0034277D01*
X0164693Y0034328D01*
X0164533Y0034383D01*
X0164374Y0034442D01*
X0164217Y0034504D01*
X0164062Y0034571D01*
X0163908Y0034642D01*
X0163756Y0034716D01*
X0163606Y0034794D01*
X0163458Y0034875D01*
X0163312Y0034960D01*
X0163168Y0035049D01*
X0163026Y0035141D01*
X0162887Y0035237D01*
X0162750Y0035336D01*
X0162615Y0035438D01*
X0162483Y0035544D01*
X0162354Y0035653D01*
X0162227Y0035765D01*
X0162103Y0035880D01*
X0161982Y0035998D01*
X0161864Y0036119D01*
X0161749Y0036243D01*
X0161637Y0036370D01*
X0161528Y0036499D01*
X0161422Y0036631D01*
X0161320Y0036766D01*
X0161221Y0036903D01*
X0161125Y0037042D01*
X0161033Y0037184D01*
X0160944Y0037328D01*
X0160859Y0037474D01*
X0160778Y0037622D01*
X0160700Y0037772D01*
X0160626Y0037924D01*
X0160555Y0038078D01*
X0160488Y0038233D01*
X0160426Y0038390D01*
X0160367Y0038549D01*
X0160312Y0038709D01*
X0160261Y0038870D01*
X0160214Y0039032D01*
X0160170Y0039196D01*
X0160131Y0039360D01*
X0160096Y0039526D01*
X0160065Y0039692D01*
X0160039Y0039859D01*
X0160016Y0040027D01*
X0159997Y0040195D01*
X0159983Y0040363D01*
X0159972Y0040532D01*
X0159966Y0040701D01*
X0159964Y0040870D01*
X0159964Y0158980D02*
X0159966Y0159149D01*
X0159972Y0159318D01*
X0159983Y0159487D01*
X0159997Y0159655D01*
X0160016Y0159823D01*
X0160039Y0159991D01*
X0160065Y0160158D01*
X0160096Y0160324D01*
X0160131Y0160490D01*
X0160170Y0160654D01*
X0160214Y0160818D01*
X0160261Y0160980D01*
X0160312Y0161141D01*
X0160367Y0161301D01*
X0160426Y0161460D01*
X0160488Y0161617D01*
X0160555Y0161772D01*
X0160626Y0161926D01*
X0160700Y0162078D01*
X0160778Y0162228D01*
X0160859Y0162376D01*
X0160944Y0162522D01*
X0161033Y0162666D01*
X0161125Y0162808D01*
X0161221Y0162947D01*
X0161320Y0163084D01*
X0161422Y0163219D01*
X0161528Y0163351D01*
X0161637Y0163480D01*
X0161749Y0163607D01*
X0161864Y0163731D01*
X0161982Y0163852D01*
X0162103Y0163970D01*
X0162227Y0164085D01*
X0162354Y0164197D01*
X0162483Y0164306D01*
X0162615Y0164412D01*
X0162750Y0164514D01*
X0162887Y0164613D01*
X0163026Y0164709D01*
X0163168Y0164801D01*
X0163312Y0164890D01*
X0163458Y0164975D01*
X0163606Y0165056D01*
X0163756Y0165134D01*
X0163908Y0165208D01*
X0164062Y0165279D01*
X0164217Y0165346D01*
X0164374Y0165408D01*
X0164533Y0165467D01*
X0164693Y0165522D01*
X0164854Y0165573D01*
X0165016Y0165620D01*
X0165180Y0165664D01*
X0165344Y0165703D01*
X0165510Y0165738D01*
X0165676Y0165769D01*
X0165843Y0165795D01*
X0166011Y0165818D01*
X0166179Y0165837D01*
X0166347Y0165851D01*
X0166516Y0165862D01*
X0166685Y0165868D01*
X0166854Y0165870D01*
X0167023Y0165868D01*
X0167192Y0165862D01*
X0167361Y0165851D01*
X0167529Y0165837D01*
X0167697Y0165818D01*
X0167865Y0165795D01*
X0168032Y0165769D01*
X0168198Y0165738D01*
X0168364Y0165703D01*
X0168528Y0165664D01*
X0168692Y0165620D01*
X0168854Y0165573D01*
X0169015Y0165522D01*
X0169175Y0165467D01*
X0169334Y0165408D01*
X0169491Y0165346D01*
X0169646Y0165279D01*
X0169800Y0165208D01*
X0169952Y0165134D01*
X0170102Y0165056D01*
X0170250Y0164975D01*
X0170396Y0164890D01*
X0170540Y0164801D01*
X0170682Y0164709D01*
X0170821Y0164613D01*
X0170958Y0164514D01*
X0171093Y0164412D01*
X0171225Y0164306D01*
X0171354Y0164197D01*
X0171481Y0164085D01*
X0171605Y0163970D01*
X0171726Y0163852D01*
X0171844Y0163731D01*
X0171959Y0163607D01*
X0172071Y0163480D01*
X0172180Y0163351D01*
X0172286Y0163219D01*
X0172388Y0163084D01*
X0172487Y0162947D01*
X0172583Y0162808D01*
X0172675Y0162666D01*
X0172764Y0162522D01*
X0172849Y0162376D01*
X0172930Y0162228D01*
X0173008Y0162078D01*
X0173082Y0161926D01*
X0173153Y0161772D01*
X0173220Y0161617D01*
X0173282Y0161460D01*
X0173341Y0161301D01*
X0173396Y0161141D01*
X0173447Y0160980D01*
X0173494Y0160818D01*
X0173538Y0160654D01*
X0173577Y0160490D01*
X0173612Y0160324D01*
X0173643Y0160158D01*
X0173669Y0159991D01*
X0173692Y0159823D01*
X0173711Y0159655D01*
X0173725Y0159487D01*
X0173736Y0159318D01*
X0173742Y0159149D01*
X0173744Y0158980D01*
X0173742Y0158811D01*
X0173736Y0158642D01*
X0173725Y0158473D01*
X0173711Y0158305D01*
X0173692Y0158137D01*
X0173669Y0157969D01*
X0173643Y0157802D01*
X0173612Y0157636D01*
X0173577Y0157470D01*
X0173538Y0157306D01*
X0173494Y0157142D01*
X0173447Y0156980D01*
X0173396Y0156819D01*
X0173341Y0156659D01*
X0173282Y0156500D01*
X0173220Y0156343D01*
X0173153Y0156188D01*
X0173082Y0156034D01*
X0173008Y0155882D01*
X0172930Y0155732D01*
X0172849Y0155584D01*
X0172764Y0155438D01*
X0172675Y0155294D01*
X0172583Y0155152D01*
X0172487Y0155013D01*
X0172388Y0154876D01*
X0172286Y0154741D01*
X0172180Y0154609D01*
X0172071Y0154480D01*
X0171959Y0154353D01*
X0171844Y0154229D01*
X0171726Y0154108D01*
X0171605Y0153990D01*
X0171481Y0153875D01*
X0171354Y0153763D01*
X0171225Y0153654D01*
X0171093Y0153548D01*
X0170958Y0153446D01*
X0170821Y0153347D01*
X0170682Y0153251D01*
X0170540Y0153159D01*
X0170396Y0153070D01*
X0170250Y0152985D01*
X0170102Y0152904D01*
X0169952Y0152826D01*
X0169800Y0152752D01*
X0169646Y0152681D01*
X0169491Y0152614D01*
X0169334Y0152552D01*
X0169175Y0152493D01*
X0169015Y0152438D01*
X0168854Y0152387D01*
X0168692Y0152340D01*
X0168528Y0152296D01*
X0168364Y0152257D01*
X0168198Y0152222D01*
X0168032Y0152191D01*
X0167865Y0152165D01*
X0167697Y0152142D01*
X0167529Y0152123D01*
X0167361Y0152109D01*
X0167192Y0152098D01*
X0167023Y0152092D01*
X0166854Y0152090D01*
X0166685Y0152092D01*
X0166516Y0152098D01*
X0166347Y0152109D01*
X0166179Y0152123D01*
X0166011Y0152142D01*
X0165843Y0152165D01*
X0165676Y0152191D01*
X0165510Y0152222D01*
X0165344Y0152257D01*
X0165180Y0152296D01*
X0165016Y0152340D01*
X0164854Y0152387D01*
X0164693Y0152438D01*
X0164533Y0152493D01*
X0164374Y0152552D01*
X0164217Y0152614D01*
X0164062Y0152681D01*
X0163908Y0152752D01*
X0163756Y0152826D01*
X0163606Y0152904D01*
X0163458Y0152985D01*
X0163312Y0153070D01*
X0163168Y0153159D01*
X0163026Y0153251D01*
X0162887Y0153347D01*
X0162750Y0153446D01*
X0162615Y0153548D01*
X0162483Y0153654D01*
X0162354Y0153763D01*
X0162227Y0153875D01*
X0162103Y0153990D01*
X0161982Y0154108D01*
X0161864Y0154229D01*
X0161749Y0154353D01*
X0161637Y0154480D01*
X0161528Y0154609D01*
X0161422Y0154741D01*
X0161320Y0154876D01*
X0161221Y0155013D01*
X0161125Y0155152D01*
X0161033Y0155294D01*
X0160944Y0155438D01*
X0160859Y0155584D01*
X0160778Y0155732D01*
X0160700Y0155882D01*
X0160626Y0156034D01*
X0160555Y0156188D01*
X0160488Y0156343D01*
X0160426Y0156500D01*
X0160367Y0156659D01*
X0160312Y0156819D01*
X0160261Y0156980D01*
X0160214Y0157142D01*
X0160170Y0157306D01*
X0160131Y0157470D01*
X0160096Y0157636D01*
X0160065Y0157802D01*
X0160039Y0157969D01*
X0160016Y0158137D01*
X0159997Y0158305D01*
X0159983Y0158473D01*
X0159972Y0158642D01*
X0159966Y0158811D01*
X0159964Y0158980D01*
X0134374Y0277091D02*
X0134378Y0277405D01*
X0134389Y0277719D01*
X0134409Y0278032D01*
X0134436Y0278345D01*
X0134470Y0278657D01*
X0134512Y0278968D01*
X0134562Y0279278D01*
X0134620Y0279587D01*
X0134685Y0279894D01*
X0134757Y0280200D01*
X0134837Y0280504D01*
X0134925Y0280805D01*
X0135020Y0281105D01*
X0135122Y0281402D01*
X0135231Y0281696D01*
X0135348Y0281987D01*
X0135472Y0282276D01*
X0135602Y0282562D01*
X0135740Y0282844D01*
X0135885Y0283123D01*
X0136036Y0283398D01*
X0136194Y0283669D01*
X0136359Y0283936D01*
X0136530Y0284200D01*
X0136708Y0284458D01*
X0136892Y0284713D01*
X0137082Y0284963D01*
X0137278Y0285208D01*
X0137481Y0285448D01*
X0137689Y0285684D01*
X0137902Y0285914D01*
X0138122Y0286138D01*
X0138346Y0286358D01*
X0138576Y0286571D01*
X0138812Y0286779D01*
X0139052Y0286982D01*
X0139297Y0287178D01*
X0139547Y0287368D01*
X0139802Y0287552D01*
X0140060Y0287730D01*
X0140324Y0287901D01*
X0140591Y0288066D01*
X0140862Y0288224D01*
X0141137Y0288375D01*
X0141416Y0288520D01*
X0141698Y0288658D01*
X0141984Y0288788D01*
X0142273Y0288912D01*
X0142564Y0289029D01*
X0142858Y0289138D01*
X0143155Y0289240D01*
X0143455Y0289335D01*
X0143756Y0289423D01*
X0144060Y0289503D01*
X0144366Y0289575D01*
X0144673Y0289640D01*
X0144982Y0289698D01*
X0145292Y0289748D01*
X0145603Y0289790D01*
X0145915Y0289824D01*
X0146228Y0289851D01*
X0146541Y0289871D01*
X0146855Y0289882D01*
X0147169Y0289886D01*
X0147483Y0289882D01*
X0147797Y0289871D01*
X0148110Y0289851D01*
X0148423Y0289824D01*
X0148735Y0289790D01*
X0149046Y0289748D01*
X0149356Y0289698D01*
X0149665Y0289640D01*
X0149972Y0289575D01*
X0150278Y0289503D01*
X0150582Y0289423D01*
X0150883Y0289335D01*
X0151183Y0289240D01*
X0151480Y0289138D01*
X0151774Y0289029D01*
X0152065Y0288912D01*
X0152354Y0288788D01*
X0152640Y0288658D01*
X0152922Y0288520D01*
X0153201Y0288375D01*
X0153476Y0288224D01*
X0153747Y0288066D01*
X0154014Y0287901D01*
X0154278Y0287730D01*
X0154536Y0287552D01*
X0154791Y0287368D01*
X0155041Y0287178D01*
X0155286Y0286982D01*
X0155526Y0286779D01*
X0155762Y0286571D01*
X0155992Y0286358D01*
X0156216Y0286138D01*
X0156436Y0285914D01*
X0156649Y0285684D01*
X0156857Y0285448D01*
X0157060Y0285208D01*
X0157256Y0284963D01*
X0157446Y0284713D01*
X0157630Y0284458D01*
X0157808Y0284200D01*
X0157979Y0283936D01*
X0158144Y0283669D01*
X0158302Y0283398D01*
X0158453Y0283123D01*
X0158598Y0282844D01*
X0158736Y0282562D01*
X0158866Y0282276D01*
X0158990Y0281987D01*
X0159107Y0281696D01*
X0159216Y0281402D01*
X0159318Y0281105D01*
X0159413Y0280805D01*
X0159501Y0280504D01*
X0159581Y0280200D01*
X0159653Y0279894D01*
X0159718Y0279587D01*
X0159776Y0279278D01*
X0159826Y0278968D01*
X0159868Y0278657D01*
X0159902Y0278345D01*
X0159929Y0278032D01*
X0159949Y0277719D01*
X0159960Y0277405D01*
X0159964Y0277091D01*
X0159960Y0276777D01*
X0159949Y0276463D01*
X0159929Y0276150D01*
X0159902Y0275837D01*
X0159868Y0275525D01*
X0159826Y0275214D01*
X0159776Y0274904D01*
X0159718Y0274595D01*
X0159653Y0274288D01*
X0159581Y0273982D01*
X0159501Y0273678D01*
X0159413Y0273377D01*
X0159318Y0273077D01*
X0159216Y0272780D01*
X0159107Y0272486D01*
X0158990Y0272195D01*
X0158866Y0271906D01*
X0158736Y0271620D01*
X0158598Y0271338D01*
X0158453Y0271059D01*
X0158302Y0270784D01*
X0158144Y0270513D01*
X0157979Y0270246D01*
X0157808Y0269982D01*
X0157630Y0269724D01*
X0157446Y0269469D01*
X0157256Y0269219D01*
X0157060Y0268974D01*
X0156857Y0268734D01*
X0156649Y0268498D01*
X0156436Y0268268D01*
X0156216Y0268044D01*
X0155992Y0267824D01*
X0155762Y0267611D01*
X0155526Y0267403D01*
X0155286Y0267200D01*
X0155041Y0267004D01*
X0154791Y0266814D01*
X0154536Y0266630D01*
X0154278Y0266452D01*
X0154014Y0266281D01*
X0153747Y0266116D01*
X0153476Y0265958D01*
X0153201Y0265807D01*
X0152922Y0265662D01*
X0152640Y0265524D01*
X0152354Y0265394D01*
X0152065Y0265270D01*
X0151774Y0265153D01*
X0151480Y0265044D01*
X0151183Y0264942D01*
X0150883Y0264847D01*
X0150582Y0264759D01*
X0150278Y0264679D01*
X0149972Y0264607D01*
X0149665Y0264542D01*
X0149356Y0264484D01*
X0149046Y0264434D01*
X0148735Y0264392D01*
X0148423Y0264358D01*
X0148110Y0264331D01*
X0147797Y0264311D01*
X0147483Y0264300D01*
X0147169Y0264296D01*
X0146855Y0264300D01*
X0146541Y0264311D01*
X0146228Y0264331D01*
X0145915Y0264358D01*
X0145603Y0264392D01*
X0145292Y0264434D01*
X0144982Y0264484D01*
X0144673Y0264542D01*
X0144366Y0264607D01*
X0144060Y0264679D01*
X0143756Y0264759D01*
X0143455Y0264847D01*
X0143155Y0264942D01*
X0142858Y0265044D01*
X0142564Y0265153D01*
X0142273Y0265270D01*
X0141984Y0265394D01*
X0141698Y0265524D01*
X0141416Y0265662D01*
X0141137Y0265807D01*
X0140862Y0265958D01*
X0140591Y0266116D01*
X0140324Y0266281D01*
X0140060Y0266452D01*
X0139802Y0266630D01*
X0139547Y0266814D01*
X0139297Y0267004D01*
X0139052Y0267200D01*
X0138812Y0267403D01*
X0138576Y0267611D01*
X0138346Y0267824D01*
X0138122Y0268044D01*
X0137902Y0268268D01*
X0137689Y0268498D01*
X0137481Y0268734D01*
X0137278Y0268974D01*
X0137082Y0269219D01*
X0136892Y0269469D01*
X0136708Y0269724D01*
X0136530Y0269982D01*
X0136359Y0270246D01*
X0136194Y0270513D01*
X0136036Y0270784D01*
X0135885Y0271059D01*
X0135740Y0271338D01*
X0135602Y0271620D01*
X0135472Y0271906D01*
X0135348Y0272195D01*
X0135231Y0272486D01*
X0135122Y0272780D01*
X0135020Y0273077D01*
X0134925Y0273377D01*
X0134837Y0273678D01*
X0134757Y0273982D01*
X0134685Y0274288D01*
X0134620Y0274595D01*
X0134562Y0274904D01*
X0134512Y0275214D01*
X0134470Y0275525D01*
X0134436Y0275837D01*
X0134409Y0276150D01*
X0134389Y0276463D01*
X0134378Y0276777D01*
X0134374Y0277091D01*
X0081224Y0314197D02*
X0081226Y0314366D01*
X0081232Y0314535D01*
X0081243Y0314704D01*
X0081257Y0314872D01*
X0081276Y0315040D01*
X0081299Y0315208D01*
X0081325Y0315375D01*
X0081356Y0315541D01*
X0081391Y0315707D01*
X0081430Y0315871D01*
X0081474Y0316035D01*
X0081521Y0316197D01*
X0081572Y0316358D01*
X0081627Y0316518D01*
X0081686Y0316677D01*
X0081748Y0316834D01*
X0081815Y0316989D01*
X0081886Y0317143D01*
X0081960Y0317295D01*
X0082038Y0317445D01*
X0082119Y0317593D01*
X0082204Y0317739D01*
X0082293Y0317883D01*
X0082385Y0318025D01*
X0082481Y0318164D01*
X0082580Y0318301D01*
X0082682Y0318436D01*
X0082788Y0318568D01*
X0082897Y0318697D01*
X0083009Y0318824D01*
X0083124Y0318948D01*
X0083242Y0319069D01*
X0083363Y0319187D01*
X0083487Y0319302D01*
X0083614Y0319414D01*
X0083743Y0319523D01*
X0083875Y0319629D01*
X0084010Y0319731D01*
X0084147Y0319830D01*
X0084286Y0319926D01*
X0084428Y0320018D01*
X0084572Y0320107D01*
X0084718Y0320192D01*
X0084866Y0320273D01*
X0085016Y0320351D01*
X0085168Y0320425D01*
X0085322Y0320496D01*
X0085477Y0320563D01*
X0085634Y0320625D01*
X0085793Y0320684D01*
X0085953Y0320739D01*
X0086114Y0320790D01*
X0086276Y0320837D01*
X0086440Y0320881D01*
X0086604Y0320920D01*
X0086770Y0320955D01*
X0086936Y0320986D01*
X0087103Y0321012D01*
X0087271Y0321035D01*
X0087439Y0321054D01*
X0087607Y0321068D01*
X0087776Y0321079D01*
X0087945Y0321085D01*
X0088114Y0321087D01*
X0088283Y0321085D01*
X0088452Y0321079D01*
X0088621Y0321068D01*
X0088789Y0321054D01*
X0088957Y0321035D01*
X0089125Y0321012D01*
X0089292Y0320986D01*
X0089458Y0320955D01*
X0089624Y0320920D01*
X0089788Y0320881D01*
X0089952Y0320837D01*
X0090114Y0320790D01*
X0090275Y0320739D01*
X0090435Y0320684D01*
X0090594Y0320625D01*
X0090751Y0320563D01*
X0090906Y0320496D01*
X0091060Y0320425D01*
X0091212Y0320351D01*
X0091362Y0320273D01*
X0091510Y0320192D01*
X0091656Y0320107D01*
X0091800Y0320018D01*
X0091942Y0319926D01*
X0092081Y0319830D01*
X0092218Y0319731D01*
X0092353Y0319629D01*
X0092485Y0319523D01*
X0092614Y0319414D01*
X0092741Y0319302D01*
X0092865Y0319187D01*
X0092986Y0319069D01*
X0093104Y0318948D01*
X0093219Y0318824D01*
X0093331Y0318697D01*
X0093440Y0318568D01*
X0093546Y0318436D01*
X0093648Y0318301D01*
X0093747Y0318164D01*
X0093843Y0318025D01*
X0093935Y0317883D01*
X0094024Y0317739D01*
X0094109Y0317593D01*
X0094190Y0317445D01*
X0094268Y0317295D01*
X0094342Y0317143D01*
X0094413Y0316989D01*
X0094480Y0316834D01*
X0094542Y0316677D01*
X0094601Y0316518D01*
X0094656Y0316358D01*
X0094707Y0316197D01*
X0094754Y0316035D01*
X0094798Y0315871D01*
X0094837Y0315707D01*
X0094872Y0315541D01*
X0094903Y0315375D01*
X0094929Y0315208D01*
X0094952Y0315040D01*
X0094971Y0314872D01*
X0094985Y0314704D01*
X0094996Y0314535D01*
X0095002Y0314366D01*
X0095004Y0314197D01*
X0095002Y0314028D01*
X0094996Y0313859D01*
X0094985Y0313690D01*
X0094971Y0313522D01*
X0094952Y0313354D01*
X0094929Y0313186D01*
X0094903Y0313019D01*
X0094872Y0312853D01*
X0094837Y0312687D01*
X0094798Y0312523D01*
X0094754Y0312359D01*
X0094707Y0312197D01*
X0094656Y0312036D01*
X0094601Y0311876D01*
X0094542Y0311717D01*
X0094480Y0311560D01*
X0094413Y0311405D01*
X0094342Y0311251D01*
X0094268Y0311099D01*
X0094190Y0310949D01*
X0094109Y0310801D01*
X0094024Y0310655D01*
X0093935Y0310511D01*
X0093843Y0310369D01*
X0093747Y0310230D01*
X0093648Y0310093D01*
X0093546Y0309958D01*
X0093440Y0309826D01*
X0093331Y0309697D01*
X0093219Y0309570D01*
X0093104Y0309446D01*
X0092986Y0309325D01*
X0092865Y0309207D01*
X0092741Y0309092D01*
X0092614Y0308980D01*
X0092485Y0308871D01*
X0092353Y0308765D01*
X0092218Y0308663D01*
X0092081Y0308564D01*
X0091942Y0308468D01*
X0091800Y0308376D01*
X0091656Y0308287D01*
X0091510Y0308202D01*
X0091362Y0308121D01*
X0091212Y0308043D01*
X0091060Y0307969D01*
X0090906Y0307898D01*
X0090751Y0307831D01*
X0090594Y0307769D01*
X0090435Y0307710D01*
X0090275Y0307655D01*
X0090114Y0307604D01*
X0089952Y0307557D01*
X0089788Y0307513D01*
X0089624Y0307474D01*
X0089458Y0307439D01*
X0089292Y0307408D01*
X0089125Y0307382D01*
X0088957Y0307359D01*
X0088789Y0307340D01*
X0088621Y0307326D01*
X0088452Y0307315D01*
X0088283Y0307309D01*
X0088114Y0307307D01*
X0087945Y0307309D01*
X0087776Y0307315D01*
X0087607Y0307326D01*
X0087439Y0307340D01*
X0087271Y0307359D01*
X0087103Y0307382D01*
X0086936Y0307408D01*
X0086770Y0307439D01*
X0086604Y0307474D01*
X0086440Y0307513D01*
X0086276Y0307557D01*
X0086114Y0307604D01*
X0085953Y0307655D01*
X0085793Y0307710D01*
X0085634Y0307769D01*
X0085477Y0307831D01*
X0085322Y0307898D01*
X0085168Y0307969D01*
X0085016Y0308043D01*
X0084866Y0308121D01*
X0084718Y0308202D01*
X0084572Y0308287D01*
X0084428Y0308376D01*
X0084286Y0308468D01*
X0084147Y0308564D01*
X0084010Y0308663D01*
X0083875Y0308765D01*
X0083743Y0308871D01*
X0083614Y0308980D01*
X0083487Y0309092D01*
X0083363Y0309207D01*
X0083242Y0309325D01*
X0083124Y0309446D01*
X0083009Y0309570D01*
X0082897Y0309697D01*
X0082788Y0309826D01*
X0082682Y0309958D01*
X0082580Y0310093D01*
X0082481Y0310230D01*
X0082385Y0310369D01*
X0082293Y0310511D01*
X0082204Y0310655D01*
X0082119Y0310801D01*
X0082038Y0310949D01*
X0081960Y0311099D01*
X0081886Y0311251D01*
X0081815Y0311405D01*
X0081748Y0311560D01*
X0081686Y0311717D01*
X0081627Y0311876D01*
X0081572Y0312036D01*
X0081521Y0312197D01*
X0081474Y0312359D01*
X0081430Y0312523D01*
X0081391Y0312687D01*
X0081356Y0312853D01*
X0081325Y0313019D01*
X0081299Y0313186D01*
X0081276Y0313354D01*
X0081257Y0313522D01*
X0081243Y0313690D01*
X0081232Y0313859D01*
X0081226Y0314028D01*
X0081224Y0314197D01*
X0081224Y0426697D02*
X0081226Y0426866D01*
X0081232Y0427035D01*
X0081243Y0427204D01*
X0081257Y0427372D01*
X0081276Y0427540D01*
X0081299Y0427708D01*
X0081325Y0427875D01*
X0081356Y0428041D01*
X0081391Y0428207D01*
X0081430Y0428371D01*
X0081474Y0428535D01*
X0081521Y0428697D01*
X0081572Y0428858D01*
X0081627Y0429018D01*
X0081686Y0429177D01*
X0081748Y0429334D01*
X0081815Y0429489D01*
X0081886Y0429643D01*
X0081960Y0429795D01*
X0082038Y0429945D01*
X0082119Y0430093D01*
X0082204Y0430239D01*
X0082293Y0430383D01*
X0082385Y0430525D01*
X0082481Y0430664D01*
X0082580Y0430801D01*
X0082682Y0430936D01*
X0082788Y0431068D01*
X0082897Y0431197D01*
X0083009Y0431324D01*
X0083124Y0431448D01*
X0083242Y0431569D01*
X0083363Y0431687D01*
X0083487Y0431802D01*
X0083614Y0431914D01*
X0083743Y0432023D01*
X0083875Y0432129D01*
X0084010Y0432231D01*
X0084147Y0432330D01*
X0084286Y0432426D01*
X0084428Y0432518D01*
X0084572Y0432607D01*
X0084718Y0432692D01*
X0084866Y0432773D01*
X0085016Y0432851D01*
X0085168Y0432925D01*
X0085322Y0432996D01*
X0085477Y0433063D01*
X0085634Y0433125D01*
X0085793Y0433184D01*
X0085953Y0433239D01*
X0086114Y0433290D01*
X0086276Y0433337D01*
X0086440Y0433381D01*
X0086604Y0433420D01*
X0086770Y0433455D01*
X0086936Y0433486D01*
X0087103Y0433512D01*
X0087271Y0433535D01*
X0087439Y0433554D01*
X0087607Y0433568D01*
X0087776Y0433579D01*
X0087945Y0433585D01*
X0088114Y0433587D01*
X0088283Y0433585D01*
X0088452Y0433579D01*
X0088621Y0433568D01*
X0088789Y0433554D01*
X0088957Y0433535D01*
X0089125Y0433512D01*
X0089292Y0433486D01*
X0089458Y0433455D01*
X0089624Y0433420D01*
X0089788Y0433381D01*
X0089952Y0433337D01*
X0090114Y0433290D01*
X0090275Y0433239D01*
X0090435Y0433184D01*
X0090594Y0433125D01*
X0090751Y0433063D01*
X0090906Y0432996D01*
X0091060Y0432925D01*
X0091212Y0432851D01*
X0091362Y0432773D01*
X0091510Y0432692D01*
X0091656Y0432607D01*
X0091800Y0432518D01*
X0091942Y0432426D01*
X0092081Y0432330D01*
X0092218Y0432231D01*
X0092353Y0432129D01*
X0092485Y0432023D01*
X0092614Y0431914D01*
X0092741Y0431802D01*
X0092865Y0431687D01*
X0092986Y0431569D01*
X0093104Y0431448D01*
X0093219Y0431324D01*
X0093331Y0431197D01*
X0093440Y0431068D01*
X0093546Y0430936D01*
X0093648Y0430801D01*
X0093747Y0430664D01*
X0093843Y0430525D01*
X0093935Y0430383D01*
X0094024Y0430239D01*
X0094109Y0430093D01*
X0094190Y0429945D01*
X0094268Y0429795D01*
X0094342Y0429643D01*
X0094413Y0429489D01*
X0094480Y0429334D01*
X0094542Y0429177D01*
X0094601Y0429018D01*
X0094656Y0428858D01*
X0094707Y0428697D01*
X0094754Y0428535D01*
X0094798Y0428371D01*
X0094837Y0428207D01*
X0094872Y0428041D01*
X0094903Y0427875D01*
X0094929Y0427708D01*
X0094952Y0427540D01*
X0094971Y0427372D01*
X0094985Y0427204D01*
X0094996Y0427035D01*
X0095002Y0426866D01*
X0095004Y0426697D01*
X0095002Y0426528D01*
X0094996Y0426359D01*
X0094985Y0426190D01*
X0094971Y0426022D01*
X0094952Y0425854D01*
X0094929Y0425686D01*
X0094903Y0425519D01*
X0094872Y0425353D01*
X0094837Y0425187D01*
X0094798Y0425023D01*
X0094754Y0424859D01*
X0094707Y0424697D01*
X0094656Y0424536D01*
X0094601Y0424376D01*
X0094542Y0424217D01*
X0094480Y0424060D01*
X0094413Y0423905D01*
X0094342Y0423751D01*
X0094268Y0423599D01*
X0094190Y0423449D01*
X0094109Y0423301D01*
X0094024Y0423155D01*
X0093935Y0423011D01*
X0093843Y0422869D01*
X0093747Y0422730D01*
X0093648Y0422593D01*
X0093546Y0422458D01*
X0093440Y0422326D01*
X0093331Y0422197D01*
X0093219Y0422070D01*
X0093104Y0421946D01*
X0092986Y0421825D01*
X0092865Y0421707D01*
X0092741Y0421592D01*
X0092614Y0421480D01*
X0092485Y0421371D01*
X0092353Y0421265D01*
X0092218Y0421163D01*
X0092081Y0421064D01*
X0091942Y0420968D01*
X0091800Y0420876D01*
X0091656Y0420787D01*
X0091510Y0420702D01*
X0091362Y0420621D01*
X0091212Y0420543D01*
X0091060Y0420469D01*
X0090906Y0420398D01*
X0090751Y0420331D01*
X0090594Y0420269D01*
X0090435Y0420210D01*
X0090275Y0420155D01*
X0090114Y0420104D01*
X0089952Y0420057D01*
X0089788Y0420013D01*
X0089624Y0419974D01*
X0089458Y0419939D01*
X0089292Y0419908D01*
X0089125Y0419882D01*
X0088957Y0419859D01*
X0088789Y0419840D01*
X0088621Y0419826D01*
X0088452Y0419815D01*
X0088283Y0419809D01*
X0088114Y0419807D01*
X0087945Y0419809D01*
X0087776Y0419815D01*
X0087607Y0419826D01*
X0087439Y0419840D01*
X0087271Y0419859D01*
X0087103Y0419882D01*
X0086936Y0419908D01*
X0086770Y0419939D01*
X0086604Y0419974D01*
X0086440Y0420013D01*
X0086276Y0420057D01*
X0086114Y0420104D01*
X0085953Y0420155D01*
X0085793Y0420210D01*
X0085634Y0420269D01*
X0085477Y0420331D01*
X0085322Y0420398D01*
X0085168Y0420469D01*
X0085016Y0420543D01*
X0084866Y0420621D01*
X0084718Y0420702D01*
X0084572Y0420787D01*
X0084428Y0420876D01*
X0084286Y0420968D01*
X0084147Y0421064D01*
X0084010Y0421163D01*
X0083875Y0421265D01*
X0083743Y0421371D01*
X0083614Y0421480D01*
X0083487Y0421592D01*
X0083363Y0421707D01*
X0083242Y0421825D01*
X0083124Y0421946D01*
X0083009Y0422070D01*
X0082897Y0422197D01*
X0082788Y0422326D01*
X0082682Y0422458D01*
X0082580Y0422593D01*
X0082481Y0422730D01*
X0082385Y0422869D01*
X0082293Y0423011D01*
X0082204Y0423155D01*
X0082119Y0423301D01*
X0082038Y0423449D01*
X0081960Y0423599D01*
X0081886Y0423751D01*
X0081815Y0423905D01*
X0081748Y0424060D01*
X0081686Y0424217D01*
X0081627Y0424376D01*
X0081572Y0424536D01*
X0081521Y0424697D01*
X0081474Y0424859D01*
X0081430Y0425023D01*
X0081391Y0425187D01*
X0081356Y0425353D01*
X0081325Y0425519D01*
X0081299Y0425686D01*
X0081276Y0425854D01*
X0081257Y0426022D01*
X0081243Y0426190D01*
X0081232Y0426359D01*
X0081226Y0426528D01*
X0081224Y0426697D01*
X0081224Y0564492D02*
X0081226Y0564661D01*
X0081232Y0564830D01*
X0081243Y0564999D01*
X0081257Y0565167D01*
X0081276Y0565335D01*
X0081299Y0565503D01*
X0081325Y0565670D01*
X0081356Y0565836D01*
X0081391Y0566002D01*
X0081430Y0566166D01*
X0081474Y0566330D01*
X0081521Y0566492D01*
X0081572Y0566653D01*
X0081627Y0566813D01*
X0081686Y0566972D01*
X0081748Y0567129D01*
X0081815Y0567284D01*
X0081886Y0567438D01*
X0081960Y0567590D01*
X0082038Y0567740D01*
X0082119Y0567888D01*
X0082204Y0568034D01*
X0082293Y0568178D01*
X0082385Y0568320D01*
X0082481Y0568459D01*
X0082580Y0568596D01*
X0082682Y0568731D01*
X0082788Y0568863D01*
X0082897Y0568992D01*
X0083009Y0569119D01*
X0083124Y0569243D01*
X0083242Y0569364D01*
X0083363Y0569482D01*
X0083487Y0569597D01*
X0083614Y0569709D01*
X0083743Y0569818D01*
X0083875Y0569924D01*
X0084010Y0570026D01*
X0084147Y0570125D01*
X0084286Y0570221D01*
X0084428Y0570313D01*
X0084572Y0570402D01*
X0084718Y0570487D01*
X0084866Y0570568D01*
X0085016Y0570646D01*
X0085168Y0570720D01*
X0085322Y0570791D01*
X0085477Y0570858D01*
X0085634Y0570920D01*
X0085793Y0570979D01*
X0085953Y0571034D01*
X0086114Y0571085D01*
X0086276Y0571132D01*
X0086440Y0571176D01*
X0086604Y0571215D01*
X0086770Y0571250D01*
X0086936Y0571281D01*
X0087103Y0571307D01*
X0087271Y0571330D01*
X0087439Y0571349D01*
X0087607Y0571363D01*
X0087776Y0571374D01*
X0087945Y0571380D01*
X0088114Y0571382D01*
X0088283Y0571380D01*
X0088452Y0571374D01*
X0088621Y0571363D01*
X0088789Y0571349D01*
X0088957Y0571330D01*
X0089125Y0571307D01*
X0089292Y0571281D01*
X0089458Y0571250D01*
X0089624Y0571215D01*
X0089788Y0571176D01*
X0089952Y0571132D01*
X0090114Y0571085D01*
X0090275Y0571034D01*
X0090435Y0570979D01*
X0090594Y0570920D01*
X0090751Y0570858D01*
X0090906Y0570791D01*
X0091060Y0570720D01*
X0091212Y0570646D01*
X0091362Y0570568D01*
X0091510Y0570487D01*
X0091656Y0570402D01*
X0091800Y0570313D01*
X0091942Y0570221D01*
X0092081Y0570125D01*
X0092218Y0570026D01*
X0092353Y0569924D01*
X0092485Y0569818D01*
X0092614Y0569709D01*
X0092741Y0569597D01*
X0092865Y0569482D01*
X0092986Y0569364D01*
X0093104Y0569243D01*
X0093219Y0569119D01*
X0093331Y0568992D01*
X0093440Y0568863D01*
X0093546Y0568731D01*
X0093648Y0568596D01*
X0093747Y0568459D01*
X0093843Y0568320D01*
X0093935Y0568178D01*
X0094024Y0568034D01*
X0094109Y0567888D01*
X0094190Y0567740D01*
X0094268Y0567590D01*
X0094342Y0567438D01*
X0094413Y0567284D01*
X0094480Y0567129D01*
X0094542Y0566972D01*
X0094601Y0566813D01*
X0094656Y0566653D01*
X0094707Y0566492D01*
X0094754Y0566330D01*
X0094798Y0566166D01*
X0094837Y0566002D01*
X0094872Y0565836D01*
X0094903Y0565670D01*
X0094929Y0565503D01*
X0094952Y0565335D01*
X0094971Y0565167D01*
X0094985Y0564999D01*
X0094996Y0564830D01*
X0095002Y0564661D01*
X0095004Y0564492D01*
X0095002Y0564323D01*
X0094996Y0564154D01*
X0094985Y0563985D01*
X0094971Y0563817D01*
X0094952Y0563649D01*
X0094929Y0563481D01*
X0094903Y0563314D01*
X0094872Y0563148D01*
X0094837Y0562982D01*
X0094798Y0562818D01*
X0094754Y0562654D01*
X0094707Y0562492D01*
X0094656Y0562331D01*
X0094601Y0562171D01*
X0094542Y0562012D01*
X0094480Y0561855D01*
X0094413Y0561700D01*
X0094342Y0561546D01*
X0094268Y0561394D01*
X0094190Y0561244D01*
X0094109Y0561096D01*
X0094024Y0560950D01*
X0093935Y0560806D01*
X0093843Y0560664D01*
X0093747Y0560525D01*
X0093648Y0560388D01*
X0093546Y0560253D01*
X0093440Y0560121D01*
X0093331Y0559992D01*
X0093219Y0559865D01*
X0093104Y0559741D01*
X0092986Y0559620D01*
X0092865Y0559502D01*
X0092741Y0559387D01*
X0092614Y0559275D01*
X0092485Y0559166D01*
X0092353Y0559060D01*
X0092218Y0558958D01*
X0092081Y0558859D01*
X0091942Y0558763D01*
X0091800Y0558671D01*
X0091656Y0558582D01*
X0091510Y0558497D01*
X0091362Y0558416D01*
X0091212Y0558338D01*
X0091060Y0558264D01*
X0090906Y0558193D01*
X0090751Y0558126D01*
X0090594Y0558064D01*
X0090435Y0558005D01*
X0090275Y0557950D01*
X0090114Y0557899D01*
X0089952Y0557852D01*
X0089788Y0557808D01*
X0089624Y0557769D01*
X0089458Y0557734D01*
X0089292Y0557703D01*
X0089125Y0557677D01*
X0088957Y0557654D01*
X0088789Y0557635D01*
X0088621Y0557621D01*
X0088452Y0557610D01*
X0088283Y0557604D01*
X0088114Y0557602D01*
X0087945Y0557604D01*
X0087776Y0557610D01*
X0087607Y0557621D01*
X0087439Y0557635D01*
X0087271Y0557654D01*
X0087103Y0557677D01*
X0086936Y0557703D01*
X0086770Y0557734D01*
X0086604Y0557769D01*
X0086440Y0557808D01*
X0086276Y0557852D01*
X0086114Y0557899D01*
X0085953Y0557950D01*
X0085793Y0558005D01*
X0085634Y0558064D01*
X0085477Y0558126D01*
X0085322Y0558193D01*
X0085168Y0558264D01*
X0085016Y0558338D01*
X0084866Y0558416D01*
X0084718Y0558497D01*
X0084572Y0558582D01*
X0084428Y0558671D01*
X0084286Y0558763D01*
X0084147Y0558859D01*
X0084010Y0558958D01*
X0083875Y0559060D01*
X0083743Y0559166D01*
X0083614Y0559275D01*
X0083487Y0559387D01*
X0083363Y0559502D01*
X0083242Y0559620D01*
X0083124Y0559741D01*
X0083009Y0559865D01*
X0082897Y0559992D01*
X0082788Y0560121D01*
X0082682Y0560253D01*
X0082580Y0560388D01*
X0082481Y0560525D01*
X0082385Y0560664D01*
X0082293Y0560806D01*
X0082204Y0560950D01*
X0082119Y0561096D01*
X0082038Y0561244D01*
X0081960Y0561394D01*
X0081886Y0561546D01*
X0081815Y0561700D01*
X0081748Y0561855D01*
X0081686Y0562012D01*
X0081627Y0562171D01*
X0081572Y0562331D01*
X0081521Y0562492D01*
X0081474Y0562654D01*
X0081430Y0562818D01*
X0081391Y0562982D01*
X0081356Y0563148D01*
X0081325Y0563314D01*
X0081299Y0563481D01*
X0081276Y0563649D01*
X0081257Y0563817D01*
X0081243Y0563985D01*
X0081232Y0564154D01*
X0081226Y0564323D01*
X0081224Y0564492D01*
X0054059Y0613311D02*
X0054061Y0613445D01*
X0054067Y0613579D01*
X0054077Y0613713D01*
X0054091Y0613847D01*
X0054109Y0613980D01*
X0054130Y0614112D01*
X0054156Y0614244D01*
X0054186Y0614375D01*
X0054219Y0614505D01*
X0054256Y0614633D01*
X0054298Y0614761D01*
X0054342Y0614888D01*
X0054391Y0615013D01*
X0054443Y0615136D01*
X0054499Y0615258D01*
X0054559Y0615379D01*
X0054622Y0615497D01*
X0054688Y0615614D01*
X0054758Y0615728D01*
X0054831Y0615841D01*
X0054908Y0615951D01*
X0054988Y0616059D01*
X0055071Y0616164D01*
X0055157Y0616267D01*
X0055246Y0616367D01*
X0055338Y0616465D01*
X0055433Y0616560D01*
X0055531Y0616652D01*
X0055631Y0616741D01*
X0055734Y0616827D01*
X0055839Y0616910D01*
X0055947Y0616990D01*
X0056057Y0617067D01*
X0056170Y0617140D01*
X0056284Y0617210D01*
X0056401Y0617276D01*
X0056519Y0617339D01*
X0056640Y0617399D01*
X0056762Y0617455D01*
X0056885Y0617507D01*
X0057010Y0617556D01*
X0057137Y0617600D01*
X0057265Y0617642D01*
X0057393Y0617679D01*
X0057523Y0617712D01*
X0057654Y0617742D01*
X0057786Y0617768D01*
X0057918Y0617789D01*
X0058051Y0617807D01*
X0058185Y0617821D01*
X0058319Y0617831D01*
X0058453Y0617837D01*
X0058587Y0617839D01*
X0058721Y0617837D01*
X0058855Y0617831D01*
X0058989Y0617821D01*
X0059123Y0617807D01*
X0059256Y0617789D01*
X0059388Y0617768D01*
X0059520Y0617742D01*
X0059651Y0617712D01*
X0059781Y0617679D01*
X0059909Y0617642D01*
X0060037Y0617600D01*
X0060164Y0617556D01*
X0060289Y0617507D01*
X0060412Y0617455D01*
X0060534Y0617399D01*
X0060655Y0617339D01*
X0060773Y0617276D01*
X0060890Y0617210D01*
X0061004Y0617140D01*
X0061117Y0617067D01*
X0061227Y0616990D01*
X0061335Y0616910D01*
X0061440Y0616827D01*
X0061543Y0616741D01*
X0061643Y0616652D01*
X0061741Y0616560D01*
X0061836Y0616465D01*
X0061928Y0616367D01*
X0062017Y0616267D01*
X0062103Y0616164D01*
X0062186Y0616059D01*
X0062266Y0615951D01*
X0062343Y0615841D01*
X0062416Y0615728D01*
X0062486Y0615614D01*
X0062552Y0615497D01*
X0062615Y0615379D01*
X0062675Y0615258D01*
X0062731Y0615136D01*
X0062783Y0615013D01*
X0062832Y0614888D01*
X0062876Y0614761D01*
X0062918Y0614633D01*
X0062955Y0614505D01*
X0062988Y0614375D01*
X0063018Y0614244D01*
X0063044Y0614112D01*
X0063065Y0613980D01*
X0063083Y0613847D01*
X0063097Y0613713D01*
X0063107Y0613579D01*
X0063113Y0613445D01*
X0063115Y0613311D01*
X0063113Y0613177D01*
X0063107Y0613043D01*
X0063097Y0612909D01*
X0063083Y0612775D01*
X0063065Y0612642D01*
X0063044Y0612510D01*
X0063018Y0612378D01*
X0062988Y0612247D01*
X0062955Y0612117D01*
X0062918Y0611989D01*
X0062876Y0611861D01*
X0062832Y0611734D01*
X0062783Y0611609D01*
X0062731Y0611486D01*
X0062675Y0611364D01*
X0062615Y0611243D01*
X0062552Y0611125D01*
X0062486Y0611008D01*
X0062416Y0610894D01*
X0062343Y0610781D01*
X0062266Y0610671D01*
X0062186Y0610563D01*
X0062103Y0610458D01*
X0062017Y0610355D01*
X0061928Y0610255D01*
X0061836Y0610157D01*
X0061741Y0610062D01*
X0061643Y0609970D01*
X0061543Y0609881D01*
X0061440Y0609795D01*
X0061335Y0609712D01*
X0061227Y0609632D01*
X0061117Y0609555D01*
X0061004Y0609482D01*
X0060890Y0609412D01*
X0060773Y0609346D01*
X0060655Y0609283D01*
X0060534Y0609223D01*
X0060412Y0609167D01*
X0060289Y0609115D01*
X0060164Y0609066D01*
X0060037Y0609022D01*
X0059909Y0608980D01*
X0059781Y0608943D01*
X0059651Y0608910D01*
X0059520Y0608880D01*
X0059388Y0608854D01*
X0059256Y0608833D01*
X0059123Y0608815D01*
X0058989Y0608801D01*
X0058855Y0608791D01*
X0058721Y0608785D01*
X0058587Y0608783D01*
X0058453Y0608785D01*
X0058319Y0608791D01*
X0058185Y0608801D01*
X0058051Y0608815D01*
X0057918Y0608833D01*
X0057786Y0608854D01*
X0057654Y0608880D01*
X0057523Y0608910D01*
X0057393Y0608943D01*
X0057265Y0608980D01*
X0057137Y0609022D01*
X0057010Y0609066D01*
X0056885Y0609115D01*
X0056762Y0609167D01*
X0056640Y0609223D01*
X0056519Y0609283D01*
X0056401Y0609346D01*
X0056284Y0609412D01*
X0056170Y0609482D01*
X0056057Y0609555D01*
X0055947Y0609632D01*
X0055839Y0609712D01*
X0055734Y0609795D01*
X0055631Y0609881D01*
X0055531Y0609970D01*
X0055433Y0610062D01*
X0055338Y0610157D01*
X0055246Y0610255D01*
X0055157Y0610355D01*
X0055071Y0610458D01*
X0054988Y0610563D01*
X0054908Y0610671D01*
X0054831Y0610781D01*
X0054758Y0610894D01*
X0054688Y0611008D01*
X0054622Y0611125D01*
X0054559Y0611243D01*
X0054499Y0611364D01*
X0054443Y0611486D01*
X0054391Y0611609D01*
X0054342Y0611734D01*
X0054298Y0611861D01*
X0054256Y0611989D01*
X0054219Y0612117D01*
X0054186Y0612247D01*
X0054156Y0612378D01*
X0054130Y0612510D01*
X0054109Y0612642D01*
X0054091Y0612775D01*
X0054077Y0612909D01*
X0054067Y0613043D01*
X0054061Y0613177D01*
X0054059Y0613311D01*
X0045201Y0623547D02*
X0045203Y0623665D01*
X0045209Y0623784D01*
X0045219Y0623902D01*
X0045233Y0624019D01*
X0045250Y0624136D01*
X0045272Y0624253D01*
X0045298Y0624368D01*
X0045327Y0624483D01*
X0045360Y0624597D01*
X0045397Y0624709D01*
X0045438Y0624820D01*
X0045482Y0624930D01*
X0045530Y0625038D01*
X0045582Y0625145D01*
X0045637Y0625250D01*
X0045696Y0625353D01*
X0045758Y0625453D01*
X0045823Y0625552D01*
X0045892Y0625649D01*
X0045963Y0625743D01*
X0046038Y0625834D01*
X0046116Y0625924D01*
X0046197Y0626010D01*
X0046281Y0626094D01*
X0046367Y0626175D01*
X0046457Y0626253D01*
X0046548Y0626328D01*
X0046642Y0626399D01*
X0046739Y0626468D01*
X0046838Y0626533D01*
X0046938Y0626595D01*
X0047041Y0626654D01*
X0047146Y0626709D01*
X0047253Y0626761D01*
X0047361Y0626809D01*
X0047471Y0626853D01*
X0047582Y0626894D01*
X0047694Y0626931D01*
X0047808Y0626964D01*
X0047923Y0626993D01*
X0048038Y0627019D01*
X0048155Y0627041D01*
X0048272Y0627058D01*
X0048389Y0627072D01*
X0048507Y0627082D01*
X0048626Y0627088D01*
X0048744Y0627090D01*
X0048862Y0627088D01*
X0048981Y0627082D01*
X0049099Y0627072D01*
X0049216Y0627058D01*
X0049333Y0627041D01*
X0049450Y0627019D01*
X0049565Y0626993D01*
X0049680Y0626964D01*
X0049794Y0626931D01*
X0049906Y0626894D01*
X0050017Y0626853D01*
X0050127Y0626809D01*
X0050235Y0626761D01*
X0050342Y0626709D01*
X0050447Y0626654D01*
X0050550Y0626595D01*
X0050650Y0626533D01*
X0050749Y0626468D01*
X0050846Y0626399D01*
X0050940Y0626328D01*
X0051031Y0626253D01*
X0051121Y0626175D01*
X0051207Y0626094D01*
X0051291Y0626010D01*
X0051372Y0625924D01*
X0051450Y0625834D01*
X0051525Y0625743D01*
X0051596Y0625649D01*
X0051665Y0625552D01*
X0051730Y0625453D01*
X0051792Y0625353D01*
X0051851Y0625250D01*
X0051906Y0625145D01*
X0051958Y0625038D01*
X0052006Y0624930D01*
X0052050Y0624820D01*
X0052091Y0624709D01*
X0052128Y0624597D01*
X0052161Y0624483D01*
X0052190Y0624368D01*
X0052216Y0624253D01*
X0052238Y0624136D01*
X0052255Y0624019D01*
X0052269Y0623902D01*
X0052279Y0623784D01*
X0052285Y0623665D01*
X0052287Y0623547D01*
X0052285Y0623429D01*
X0052279Y0623310D01*
X0052269Y0623192D01*
X0052255Y0623075D01*
X0052238Y0622958D01*
X0052216Y0622841D01*
X0052190Y0622726D01*
X0052161Y0622611D01*
X0052128Y0622497D01*
X0052091Y0622385D01*
X0052050Y0622274D01*
X0052006Y0622164D01*
X0051958Y0622056D01*
X0051906Y0621949D01*
X0051851Y0621844D01*
X0051792Y0621741D01*
X0051730Y0621641D01*
X0051665Y0621542D01*
X0051596Y0621445D01*
X0051525Y0621351D01*
X0051450Y0621260D01*
X0051372Y0621170D01*
X0051291Y0621084D01*
X0051207Y0621000D01*
X0051121Y0620919D01*
X0051031Y0620841D01*
X0050940Y0620766D01*
X0050846Y0620695D01*
X0050749Y0620626D01*
X0050650Y0620561D01*
X0050550Y0620499D01*
X0050447Y0620440D01*
X0050342Y0620385D01*
X0050235Y0620333D01*
X0050127Y0620285D01*
X0050017Y0620241D01*
X0049906Y0620200D01*
X0049794Y0620163D01*
X0049680Y0620130D01*
X0049565Y0620101D01*
X0049450Y0620075D01*
X0049333Y0620053D01*
X0049216Y0620036D01*
X0049099Y0620022D01*
X0048981Y0620012D01*
X0048862Y0620006D01*
X0048744Y0620004D01*
X0048626Y0620006D01*
X0048507Y0620012D01*
X0048389Y0620022D01*
X0048272Y0620036D01*
X0048155Y0620053D01*
X0048038Y0620075D01*
X0047923Y0620101D01*
X0047808Y0620130D01*
X0047694Y0620163D01*
X0047582Y0620200D01*
X0047471Y0620241D01*
X0047361Y0620285D01*
X0047253Y0620333D01*
X0047146Y0620385D01*
X0047041Y0620440D01*
X0046938Y0620499D01*
X0046838Y0620561D01*
X0046739Y0620626D01*
X0046642Y0620695D01*
X0046548Y0620766D01*
X0046457Y0620841D01*
X0046367Y0620919D01*
X0046281Y0621000D01*
X0046197Y0621084D01*
X0046116Y0621170D01*
X0046038Y0621260D01*
X0045963Y0621351D01*
X0045892Y0621445D01*
X0045823Y0621542D01*
X0045758Y0621641D01*
X0045696Y0621741D01*
X0045637Y0621844D01*
X0045582Y0621949D01*
X0045530Y0622056D01*
X0045482Y0622164D01*
X0045438Y0622274D01*
X0045397Y0622385D01*
X0045360Y0622497D01*
X0045327Y0622611D01*
X0045298Y0622726D01*
X0045272Y0622841D01*
X0045250Y0622958D01*
X0045233Y0623075D01*
X0045219Y0623192D01*
X0045209Y0623310D01*
X0045203Y0623429D01*
X0045201Y0623547D01*
X0045201Y0678665D02*
X0045203Y0678783D01*
X0045209Y0678902D01*
X0045219Y0679020D01*
X0045233Y0679137D01*
X0045250Y0679254D01*
X0045272Y0679371D01*
X0045298Y0679486D01*
X0045327Y0679601D01*
X0045360Y0679715D01*
X0045397Y0679827D01*
X0045438Y0679938D01*
X0045482Y0680048D01*
X0045530Y0680156D01*
X0045582Y0680263D01*
X0045637Y0680368D01*
X0045696Y0680471D01*
X0045758Y0680571D01*
X0045823Y0680670D01*
X0045892Y0680767D01*
X0045963Y0680861D01*
X0046038Y0680952D01*
X0046116Y0681042D01*
X0046197Y0681128D01*
X0046281Y0681212D01*
X0046367Y0681293D01*
X0046457Y0681371D01*
X0046548Y0681446D01*
X0046642Y0681517D01*
X0046739Y0681586D01*
X0046838Y0681651D01*
X0046938Y0681713D01*
X0047041Y0681772D01*
X0047146Y0681827D01*
X0047253Y0681879D01*
X0047361Y0681927D01*
X0047471Y0681971D01*
X0047582Y0682012D01*
X0047694Y0682049D01*
X0047808Y0682082D01*
X0047923Y0682111D01*
X0048038Y0682137D01*
X0048155Y0682159D01*
X0048272Y0682176D01*
X0048389Y0682190D01*
X0048507Y0682200D01*
X0048626Y0682206D01*
X0048744Y0682208D01*
X0048862Y0682206D01*
X0048981Y0682200D01*
X0049099Y0682190D01*
X0049216Y0682176D01*
X0049333Y0682159D01*
X0049450Y0682137D01*
X0049565Y0682111D01*
X0049680Y0682082D01*
X0049794Y0682049D01*
X0049906Y0682012D01*
X0050017Y0681971D01*
X0050127Y0681927D01*
X0050235Y0681879D01*
X0050342Y0681827D01*
X0050447Y0681772D01*
X0050550Y0681713D01*
X0050650Y0681651D01*
X0050749Y0681586D01*
X0050846Y0681517D01*
X0050940Y0681446D01*
X0051031Y0681371D01*
X0051121Y0681293D01*
X0051207Y0681212D01*
X0051291Y0681128D01*
X0051372Y0681042D01*
X0051450Y0680952D01*
X0051525Y0680861D01*
X0051596Y0680767D01*
X0051665Y0680670D01*
X0051730Y0680571D01*
X0051792Y0680471D01*
X0051851Y0680368D01*
X0051906Y0680263D01*
X0051958Y0680156D01*
X0052006Y0680048D01*
X0052050Y0679938D01*
X0052091Y0679827D01*
X0052128Y0679715D01*
X0052161Y0679601D01*
X0052190Y0679486D01*
X0052216Y0679371D01*
X0052238Y0679254D01*
X0052255Y0679137D01*
X0052269Y0679020D01*
X0052279Y0678902D01*
X0052285Y0678783D01*
X0052287Y0678665D01*
X0052285Y0678547D01*
X0052279Y0678428D01*
X0052269Y0678310D01*
X0052255Y0678193D01*
X0052238Y0678076D01*
X0052216Y0677959D01*
X0052190Y0677844D01*
X0052161Y0677729D01*
X0052128Y0677615D01*
X0052091Y0677503D01*
X0052050Y0677392D01*
X0052006Y0677282D01*
X0051958Y0677174D01*
X0051906Y0677067D01*
X0051851Y0676962D01*
X0051792Y0676859D01*
X0051730Y0676759D01*
X0051665Y0676660D01*
X0051596Y0676563D01*
X0051525Y0676469D01*
X0051450Y0676378D01*
X0051372Y0676288D01*
X0051291Y0676202D01*
X0051207Y0676118D01*
X0051121Y0676037D01*
X0051031Y0675959D01*
X0050940Y0675884D01*
X0050846Y0675813D01*
X0050749Y0675744D01*
X0050650Y0675679D01*
X0050550Y0675617D01*
X0050447Y0675558D01*
X0050342Y0675503D01*
X0050235Y0675451D01*
X0050127Y0675403D01*
X0050017Y0675359D01*
X0049906Y0675318D01*
X0049794Y0675281D01*
X0049680Y0675248D01*
X0049565Y0675219D01*
X0049450Y0675193D01*
X0049333Y0675171D01*
X0049216Y0675154D01*
X0049099Y0675140D01*
X0048981Y0675130D01*
X0048862Y0675124D01*
X0048744Y0675122D01*
X0048626Y0675124D01*
X0048507Y0675130D01*
X0048389Y0675140D01*
X0048272Y0675154D01*
X0048155Y0675171D01*
X0048038Y0675193D01*
X0047923Y0675219D01*
X0047808Y0675248D01*
X0047694Y0675281D01*
X0047582Y0675318D01*
X0047471Y0675359D01*
X0047361Y0675403D01*
X0047253Y0675451D01*
X0047146Y0675503D01*
X0047041Y0675558D01*
X0046938Y0675617D01*
X0046838Y0675679D01*
X0046739Y0675744D01*
X0046642Y0675813D01*
X0046548Y0675884D01*
X0046457Y0675959D01*
X0046367Y0676037D01*
X0046281Y0676118D01*
X0046197Y0676202D01*
X0046116Y0676288D01*
X0046038Y0676378D01*
X0045963Y0676469D01*
X0045892Y0676563D01*
X0045823Y0676660D01*
X0045758Y0676759D01*
X0045696Y0676859D01*
X0045637Y0676962D01*
X0045582Y0677067D01*
X0045530Y0677174D01*
X0045482Y0677282D01*
X0045438Y0677392D01*
X0045397Y0677503D01*
X0045360Y0677615D01*
X0045327Y0677729D01*
X0045298Y0677844D01*
X0045272Y0677959D01*
X0045250Y0678076D01*
X0045233Y0678193D01*
X0045219Y0678310D01*
X0045209Y0678428D01*
X0045203Y0678547D01*
X0045201Y0678665D01*
X0054059Y0688902D02*
X0054061Y0689036D01*
X0054067Y0689170D01*
X0054077Y0689304D01*
X0054091Y0689438D01*
X0054109Y0689571D01*
X0054130Y0689703D01*
X0054156Y0689835D01*
X0054186Y0689966D01*
X0054219Y0690096D01*
X0054256Y0690224D01*
X0054298Y0690352D01*
X0054342Y0690479D01*
X0054391Y0690604D01*
X0054443Y0690727D01*
X0054499Y0690849D01*
X0054559Y0690970D01*
X0054622Y0691088D01*
X0054688Y0691205D01*
X0054758Y0691319D01*
X0054831Y0691432D01*
X0054908Y0691542D01*
X0054988Y0691650D01*
X0055071Y0691755D01*
X0055157Y0691858D01*
X0055246Y0691958D01*
X0055338Y0692056D01*
X0055433Y0692151D01*
X0055531Y0692243D01*
X0055631Y0692332D01*
X0055734Y0692418D01*
X0055839Y0692501D01*
X0055947Y0692581D01*
X0056057Y0692658D01*
X0056170Y0692731D01*
X0056284Y0692801D01*
X0056401Y0692867D01*
X0056519Y0692930D01*
X0056640Y0692990D01*
X0056762Y0693046D01*
X0056885Y0693098D01*
X0057010Y0693147D01*
X0057137Y0693191D01*
X0057265Y0693233D01*
X0057393Y0693270D01*
X0057523Y0693303D01*
X0057654Y0693333D01*
X0057786Y0693359D01*
X0057918Y0693380D01*
X0058051Y0693398D01*
X0058185Y0693412D01*
X0058319Y0693422D01*
X0058453Y0693428D01*
X0058587Y0693430D01*
X0058721Y0693428D01*
X0058855Y0693422D01*
X0058989Y0693412D01*
X0059123Y0693398D01*
X0059256Y0693380D01*
X0059388Y0693359D01*
X0059520Y0693333D01*
X0059651Y0693303D01*
X0059781Y0693270D01*
X0059909Y0693233D01*
X0060037Y0693191D01*
X0060164Y0693147D01*
X0060289Y0693098D01*
X0060412Y0693046D01*
X0060534Y0692990D01*
X0060655Y0692930D01*
X0060773Y0692867D01*
X0060890Y0692801D01*
X0061004Y0692731D01*
X0061117Y0692658D01*
X0061227Y0692581D01*
X0061335Y0692501D01*
X0061440Y0692418D01*
X0061543Y0692332D01*
X0061643Y0692243D01*
X0061741Y0692151D01*
X0061836Y0692056D01*
X0061928Y0691958D01*
X0062017Y0691858D01*
X0062103Y0691755D01*
X0062186Y0691650D01*
X0062266Y0691542D01*
X0062343Y0691432D01*
X0062416Y0691319D01*
X0062486Y0691205D01*
X0062552Y0691088D01*
X0062615Y0690970D01*
X0062675Y0690849D01*
X0062731Y0690727D01*
X0062783Y0690604D01*
X0062832Y0690479D01*
X0062876Y0690352D01*
X0062918Y0690224D01*
X0062955Y0690096D01*
X0062988Y0689966D01*
X0063018Y0689835D01*
X0063044Y0689703D01*
X0063065Y0689571D01*
X0063083Y0689438D01*
X0063097Y0689304D01*
X0063107Y0689170D01*
X0063113Y0689036D01*
X0063115Y0688902D01*
X0063113Y0688768D01*
X0063107Y0688634D01*
X0063097Y0688500D01*
X0063083Y0688366D01*
X0063065Y0688233D01*
X0063044Y0688101D01*
X0063018Y0687969D01*
X0062988Y0687838D01*
X0062955Y0687708D01*
X0062918Y0687580D01*
X0062876Y0687452D01*
X0062832Y0687325D01*
X0062783Y0687200D01*
X0062731Y0687077D01*
X0062675Y0686955D01*
X0062615Y0686834D01*
X0062552Y0686716D01*
X0062486Y0686599D01*
X0062416Y0686485D01*
X0062343Y0686372D01*
X0062266Y0686262D01*
X0062186Y0686154D01*
X0062103Y0686049D01*
X0062017Y0685946D01*
X0061928Y0685846D01*
X0061836Y0685748D01*
X0061741Y0685653D01*
X0061643Y0685561D01*
X0061543Y0685472D01*
X0061440Y0685386D01*
X0061335Y0685303D01*
X0061227Y0685223D01*
X0061117Y0685146D01*
X0061004Y0685073D01*
X0060890Y0685003D01*
X0060773Y0684937D01*
X0060655Y0684874D01*
X0060534Y0684814D01*
X0060412Y0684758D01*
X0060289Y0684706D01*
X0060164Y0684657D01*
X0060037Y0684613D01*
X0059909Y0684571D01*
X0059781Y0684534D01*
X0059651Y0684501D01*
X0059520Y0684471D01*
X0059388Y0684445D01*
X0059256Y0684424D01*
X0059123Y0684406D01*
X0058989Y0684392D01*
X0058855Y0684382D01*
X0058721Y0684376D01*
X0058587Y0684374D01*
X0058453Y0684376D01*
X0058319Y0684382D01*
X0058185Y0684392D01*
X0058051Y0684406D01*
X0057918Y0684424D01*
X0057786Y0684445D01*
X0057654Y0684471D01*
X0057523Y0684501D01*
X0057393Y0684534D01*
X0057265Y0684571D01*
X0057137Y0684613D01*
X0057010Y0684657D01*
X0056885Y0684706D01*
X0056762Y0684758D01*
X0056640Y0684814D01*
X0056519Y0684874D01*
X0056401Y0684937D01*
X0056284Y0685003D01*
X0056170Y0685073D01*
X0056057Y0685146D01*
X0055947Y0685223D01*
X0055839Y0685303D01*
X0055734Y0685386D01*
X0055631Y0685472D01*
X0055531Y0685561D01*
X0055433Y0685653D01*
X0055338Y0685748D01*
X0055246Y0685846D01*
X0055157Y0685946D01*
X0055071Y0686049D01*
X0054988Y0686154D01*
X0054908Y0686262D01*
X0054831Y0686372D01*
X0054758Y0686485D01*
X0054688Y0686599D01*
X0054622Y0686716D01*
X0054559Y0686834D01*
X0054499Y0686955D01*
X0054443Y0687077D01*
X0054391Y0687200D01*
X0054342Y0687325D01*
X0054298Y0687452D01*
X0054256Y0687580D01*
X0054219Y0687708D01*
X0054186Y0687838D01*
X0054156Y0687969D01*
X0054130Y0688101D01*
X0054109Y0688233D01*
X0054091Y0688366D01*
X0054077Y0688500D01*
X0054067Y0688634D01*
X0054061Y0688768D01*
X0054059Y0688902D01*
X0088705Y0710161D02*
X0088709Y0710475D01*
X0088720Y0710789D01*
X0088740Y0711102D01*
X0088767Y0711415D01*
X0088801Y0711727D01*
X0088843Y0712038D01*
X0088893Y0712348D01*
X0088951Y0712657D01*
X0089016Y0712964D01*
X0089088Y0713270D01*
X0089168Y0713574D01*
X0089256Y0713875D01*
X0089351Y0714175D01*
X0089453Y0714472D01*
X0089562Y0714766D01*
X0089679Y0715057D01*
X0089803Y0715346D01*
X0089933Y0715632D01*
X0090071Y0715914D01*
X0090216Y0716193D01*
X0090367Y0716468D01*
X0090525Y0716739D01*
X0090690Y0717006D01*
X0090861Y0717270D01*
X0091039Y0717528D01*
X0091223Y0717783D01*
X0091413Y0718033D01*
X0091609Y0718278D01*
X0091812Y0718518D01*
X0092020Y0718754D01*
X0092233Y0718984D01*
X0092453Y0719208D01*
X0092677Y0719428D01*
X0092907Y0719641D01*
X0093143Y0719849D01*
X0093383Y0720052D01*
X0093628Y0720248D01*
X0093878Y0720438D01*
X0094133Y0720622D01*
X0094391Y0720800D01*
X0094655Y0720971D01*
X0094922Y0721136D01*
X0095193Y0721294D01*
X0095468Y0721445D01*
X0095747Y0721590D01*
X0096029Y0721728D01*
X0096315Y0721858D01*
X0096604Y0721982D01*
X0096895Y0722099D01*
X0097189Y0722208D01*
X0097486Y0722310D01*
X0097786Y0722405D01*
X0098087Y0722493D01*
X0098391Y0722573D01*
X0098697Y0722645D01*
X0099004Y0722710D01*
X0099313Y0722768D01*
X0099623Y0722818D01*
X0099934Y0722860D01*
X0100246Y0722894D01*
X0100559Y0722921D01*
X0100872Y0722941D01*
X0101186Y0722952D01*
X0101500Y0722956D01*
X0101814Y0722952D01*
X0102128Y0722941D01*
X0102441Y0722921D01*
X0102754Y0722894D01*
X0103066Y0722860D01*
X0103377Y0722818D01*
X0103687Y0722768D01*
X0103996Y0722710D01*
X0104303Y0722645D01*
X0104609Y0722573D01*
X0104913Y0722493D01*
X0105214Y0722405D01*
X0105514Y0722310D01*
X0105811Y0722208D01*
X0106105Y0722099D01*
X0106396Y0721982D01*
X0106685Y0721858D01*
X0106971Y0721728D01*
X0107253Y0721590D01*
X0107532Y0721445D01*
X0107807Y0721294D01*
X0108078Y0721136D01*
X0108345Y0720971D01*
X0108609Y0720800D01*
X0108867Y0720622D01*
X0109122Y0720438D01*
X0109372Y0720248D01*
X0109617Y0720052D01*
X0109857Y0719849D01*
X0110093Y0719641D01*
X0110323Y0719428D01*
X0110547Y0719208D01*
X0110767Y0718984D01*
X0110980Y0718754D01*
X0111188Y0718518D01*
X0111391Y0718278D01*
X0111587Y0718033D01*
X0111777Y0717783D01*
X0111961Y0717528D01*
X0112139Y0717270D01*
X0112310Y0717006D01*
X0112475Y0716739D01*
X0112633Y0716468D01*
X0112784Y0716193D01*
X0112929Y0715914D01*
X0113067Y0715632D01*
X0113197Y0715346D01*
X0113321Y0715057D01*
X0113438Y0714766D01*
X0113547Y0714472D01*
X0113649Y0714175D01*
X0113744Y0713875D01*
X0113832Y0713574D01*
X0113912Y0713270D01*
X0113984Y0712964D01*
X0114049Y0712657D01*
X0114107Y0712348D01*
X0114157Y0712038D01*
X0114199Y0711727D01*
X0114233Y0711415D01*
X0114260Y0711102D01*
X0114280Y0710789D01*
X0114291Y0710475D01*
X0114295Y0710161D01*
X0114291Y0709847D01*
X0114280Y0709533D01*
X0114260Y0709220D01*
X0114233Y0708907D01*
X0114199Y0708595D01*
X0114157Y0708284D01*
X0114107Y0707974D01*
X0114049Y0707665D01*
X0113984Y0707358D01*
X0113912Y0707052D01*
X0113832Y0706748D01*
X0113744Y0706447D01*
X0113649Y0706147D01*
X0113547Y0705850D01*
X0113438Y0705556D01*
X0113321Y0705265D01*
X0113197Y0704976D01*
X0113067Y0704690D01*
X0112929Y0704408D01*
X0112784Y0704129D01*
X0112633Y0703854D01*
X0112475Y0703583D01*
X0112310Y0703316D01*
X0112139Y0703052D01*
X0111961Y0702794D01*
X0111777Y0702539D01*
X0111587Y0702289D01*
X0111391Y0702044D01*
X0111188Y0701804D01*
X0110980Y0701568D01*
X0110767Y0701338D01*
X0110547Y0701114D01*
X0110323Y0700894D01*
X0110093Y0700681D01*
X0109857Y0700473D01*
X0109617Y0700270D01*
X0109372Y0700074D01*
X0109122Y0699884D01*
X0108867Y0699700D01*
X0108609Y0699522D01*
X0108345Y0699351D01*
X0108078Y0699186D01*
X0107807Y0699028D01*
X0107532Y0698877D01*
X0107253Y0698732D01*
X0106971Y0698594D01*
X0106685Y0698464D01*
X0106396Y0698340D01*
X0106105Y0698223D01*
X0105811Y0698114D01*
X0105514Y0698012D01*
X0105214Y0697917D01*
X0104913Y0697829D01*
X0104609Y0697749D01*
X0104303Y0697677D01*
X0103996Y0697612D01*
X0103687Y0697554D01*
X0103377Y0697504D01*
X0103066Y0697462D01*
X0102754Y0697428D01*
X0102441Y0697401D01*
X0102128Y0697381D01*
X0101814Y0697370D01*
X0101500Y0697366D01*
X0101186Y0697370D01*
X0100872Y0697381D01*
X0100559Y0697401D01*
X0100246Y0697428D01*
X0099934Y0697462D01*
X0099623Y0697504D01*
X0099313Y0697554D01*
X0099004Y0697612D01*
X0098697Y0697677D01*
X0098391Y0697749D01*
X0098087Y0697829D01*
X0097786Y0697917D01*
X0097486Y0698012D01*
X0097189Y0698114D01*
X0096895Y0698223D01*
X0096604Y0698340D01*
X0096315Y0698464D01*
X0096029Y0698594D01*
X0095747Y0698732D01*
X0095468Y0698877D01*
X0095193Y0699028D01*
X0094922Y0699186D01*
X0094655Y0699351D01*
X0094391Y0699522D01*
X0094133Y0699700D01*
X0093878Y0699884D01*
X0093628Y0700074D01*
X0093383Y0700270D01*
X0093143Y0700473D01*
X0092907Y0700681D01*
X0092677Y0700894D01*
X0092453Y0701114D01*
X0092233Y0701338D01*
X0092020Y0701568D01*
X0091812Y0701804D01*
X0091609Y0702044D01*
X0091413Y0702289D01*
X0091223Y0702539D01*
X0091039Y0702794D01*
X0090861Y0703052D01*
X0090690Y0703316D01*
X0090525Y0703583D01*
X0090367Y0703854D01*
X0090216Y0704129D01*
X0090071Y0704408D01*
X0089933Y0704690D01*
X0089803Y0704976D01*
X0089679Y0705265D01*
X0089562Y0705556D01*
X0089453Y0705850D01*
X0089351Y0706147D01*
X0089256Y0706447D01*
X0089168Y0706748D01*
X0089088Y0707052D01*
X0089016Y0707358D01*
X0088951Y0707665D01*
X0088893Y0707974D01*
X0088843Y0708284D01*
X0088801Y0708595D01*
X0088767Y0708907D01*
X0088740Y0709220D01*
X0088720Y0709533D01*
X0088709Y0709847D01*
X0088705Y0710161D01*
X0159964Y0592051D02*
X0159966Y0592220D01*
X0159972Y0592389D01*
X0159983Y0592558D01*
X0159997Y0592726D01*
X0160016Y0592894D01*
X0160039Y0593062D01*
X0160065Y0593229D01*
X0160096Y0593395D01*
X0160131Y0593561D01*
X0160170Y0593725D01*
X0160214Y0593889D01*
X0160261Y0594051D01*
X0160312Y0594212D01*
X0160367Y0594372D01*
X0160426Y0594531D01*
X0160488Y0594688D01*
X0160555Y0594843D01*
X0160626Y0594997D01*
X0160700Y0595149D01*
X0160778Y0595299D01*
X0160859Y0595447D01*
X0160944Y0595593D01*
X0161033Y0595737D01*
X0161125Y0595879D01*
X0161221Y0596018D01*
X0161320Y0596155D01*
X0161422Y0596290D01*
X0161528Y0596422D01*
X0161637Y0596551D01*
X0161749Y0596678D01*
X0161864Y0596802D01*
X0161982Y0596923D01*
X0162103Y0597041D01*
X0162227Y0597156D01*
X0162354Y0597268D01*
X0162483Y0597377D01*
X0162615Y0597483D01*
X0162750Y0597585D01*
X0162887Y0597684D01*
X0163026Y0597780D01*
X0163168Y0597872D01*
X0163312Y0597961D01*
X0163458Y0598046D01*
X0163606Y0598127D01*
X0163756Y0598205D01*
X0163908Y0598279D01*
X0164062Y0598350D01*
X0164217Y0598417D01*
X0164374Y0598479D01*
X0164533Y0598538D01*
X0164693Y0598593D01*
X0164854Y0598644D01*
X0165016Y0598691D01*
X0165180Y0598735D01*
X0165344Y0598774D01*
X0165510Y0598809D01*
X0165676Y0598840D01*
X0165843Y0598866D01*
X0166011Y0598889D01*
X0166179Y0598908D01*
X0166347Y0598922D01*
X0166516Y0598933D01*
X0166685Y0598939D01*
X0166854Y0598941D01*
X0167023Y0598939D01*
X0167192Y0598933D01*
X0167361Y0598922D01*
X0167529Y0598908D01*
X0167697Y0598889D01*
X0167865Y0598866D01*
X0168032Y0598840D01*
X0168198Y0598809D01*
X0168364Y0598774D01*
X0168528Y0598735D01*
X0168692Y0598691D01*
X0168854Y0598644D01*
X0169015Y0598593D01*
X0169175Y0598538D01*
X0169334Y0598479D01*
X0169491Y0598417D01*
X0169646Y0598350D01*
X0169800Y0598279D01*
X0169952Y0598205D01*
X0170102Y0598127D01*
X0170250Y0598046D01*
X0170396Y0597961D01*
X0170540Y0597872D01*
X0170682Y0597780D01*
X0170821Y0597684D01*
X0170958Y0597585D01*
X0171093Y0597483D01*
X0171225Y0597377D01*
X0171354Y0597268D01*
X0171481Y0597156D01*
X0171605Y0597041D01*
X0171726Y0596923D01*
X0171844Y0596802D01*
X0171959Y0596678D01*
X0172071Y0596551D01*
X0172180Y0596422D01*
X0172286Y0596290D01*
X0172388Y0596155D01*
X0172487Y0596018D01*
X0172583Y0595879D01*
X0172675Y0595737D01*
X0172764Y0595593D01*
X0172849Y0595447D01*
X0172930Y0595299D01*
X0173008Y0595149D01*
X0173082Y0594997D01*
X0173153Y0594843D01*
X0173220Y0594688D01*
X0173282Y0594531D01*
X0173341Y0594372D01*
X0173396Y0594212D01*
X0173447Y0594051D01*
X0173494Y0593889D01*
X0173538Y0593725D01*
X0173577Y0593561D01*
X0173612Y0593395D01*
X0173643Y0593229D01*
X0173669Y0593062D01*
X0173692Y0592894D01*
X0173711Y0592726D01*
X0173725Y0592558D01*
X0173736Y0592389D01*
X0173742Y0592220D01*
X0173744Y0592051D01*
X0173742Y0591882D01*
X0173736Y0591713D01*
X0173725Y0591544D01*
X0173711Y0591376D01*
X0173692Y0591208D01*
X0173669Y0591040D01*
X0173643Y0590873D01*
X0173612Y0590707D01*
X0173577Y0590541D01*
X0173538Y0590377D01*
X0173494Y0590213D01*
X0173447Y0590051D01*
X0173396Y0589890D01*
X0173341Y0589730D01*
X0173282Y0589571D01*
X0173220Y0589414D01*
X0173153Y0589259D01*
X0173082Y0589105D01*
X0173008Y0588953D01*
X0172930Y0588803D01*
X0172849Y0588655D01*
X0172764Y0588509D01*
X0172675Y0588365D01*
X0172583Y0588223D01*
X0172487Y0588084D01*
X0172388Y0587947D01*
X0172286Y0587812D01*
X0172180Y0587680D01*
X0172071Y0587551D01*
X0171959Y0587424D01*
X0171844Y0587300D01*
X0171726Y0587179D01*
X0171605Y0587061D01*
X0171481Y0586946D01*
X0171354Y0586834D01*
X0171225Y0586725D01*
X0171093Y0586619D01*
X0170958Y0586517D01*
X0170821Y0586418D01*
X0170682Y0586322D01*
X0170540Y0586230D01*
X0170396Y0586141D01*
X0170250Y0586056D01*
X0170102Y0585975D01*
X0169952Y0585897D01*
X0169800Y0585823D01*
X0169646Y0585752D01*
X0169491Y0585685D01*
X0169334Y0585623D01*
X0169175Y0585564D01*
X0169015Y0585509D01*
X0168854Y0585458D01*
X0168692Y0585411D01*
X0168528Y0585367D01*
X0168364Y0585328D01*
X0168198Y0585293D01*
X0168032Y0585262D01*
X0167865Y0585236D01*
X0167697Y0585213D01*
X0167529Y0585194D01*
X0167361Y0585180D01*
X0167192Y0585169D01*
X0167023Y0585163D01*
X0166854Y0585161D01*
X0166685Y0585163D01*
X0166516Y0585169D01*
X0166347Y0585180D01*
X0166179Y0585194D01*
X0166011Y0585213D01*
X0165843Y0585236D01*
X0165676Y0585262D01*
X0165510Y0585293D01*
X0165344Y0585328D01*
X0165180Y0585367D01*
X0165016Y0585411D01*
X0164854Y0585458D01*
X0164693Y0585509D01*
X0164533Y0585564D01*
X0164374Y0585623D01*
X0164217Y0585685D01*
X0164062Y0585752D01*
X0163908Y0585823D01*
X0163756Y0585897D01*
X0163606Y0585975D01*
X0163458Y0586056D01*
X0163312Y0586141D01*
X0163168Y0586230D01*
X0163026Y0586322D01*
X0162887Y0586418D01*
X0162750Y0586517D01*
X0162615Y0586619D01*
X0162483Y0586725D01*
X0162354Y0586834D01*
X0162227Y0586946D01*
X0162103Y0587061D01*
X0161982Y0587179D01*
X0161864Y0587300D01*
X0161749Y0587424D01*
X0161637Y0587551D01*
X0161528Y0587680D01*
X0161422Y0587812D01*
X0161320Y0587947D01*
X0161221Y0588084D01*
X0161125Y0588223D01*
X0161033Y0588365D01*
X0160944Y0588509D01*
X0160859Y0588655D01*
X0160778Y0588803D01*
X0160700Y0588953D01*
X0160626Y0589105D01*
X0160555Y0589259D01*
X0160488Y0589414D01*
X0160426Y0589571D01*
X0160367Y0589730D01*
X0160312Y0589890D01*
X0160261Y0590051D01*
X0160214Y0590213D01*
X0160170Y0590377D01*
X0160131Y0590541D01*
X0160096Y0590707D01*
X0160065Y0590873D01*
X0160039Y0591040D01*
X0160016Y0591208D01*
X0159997Y0591376D01*
X0159983Y0591544D01*
X0159972Y0591713D01*
X0159966Y0591882D01*
X0159964Y0592051D01*
X0188705Y0710161D02*
X0188709Y0710475D01*
X0188720Y0710789D01*
X0188740Y0711102D01*
X0188767Y0711415D01*
X0188801Y0711727D01*
X0188843Y0712038D01*
X0188893Y0712348D01*
X0188951Y0712657D01*
X0189016Y0712964D01*
X0189088Y0713270D01*
X0189168Y0713574D01*
X0189256Y0713875D01*
X0189351Y0714175D01*
X0189453Y0714472D01*
X0189562Y0714766D01*
X0189679Y0715057D01*
X0189803Y0715346D01*
X0189933Y0715632D01*
X0190071Y0715914D01*
X0190216Y0716193D01*
X0190367Y0716468D01*
X0190525Y0716739D01*
X0190690Y0717006D01*
X0190861Y0717270D01*
X0191039Y0717528D01*
X0191223Y0717783D01*
X0191413Y0718033D01*
X0191609Y0718278D01*
X0191812Y0718518D01*
X0192020Y0718754D01*
X0192233Y0718984D01*
X0192453Y0719208D01*
X0192677Y0719428D01*
X0192907Y0719641D01*
X0193143Y0719849D01*
X0193383Y0720052D01*
X0193628Y0720248D01*
X0193878Y0720438D01*
X0194133Y0720622D01*
X0194391Y0720800D01*
X0194655Y0720971D01*
X0194922Y0721136D01*
X0195193Y0721294D01*
X0195468Y0721445D01*
X0195747Y0721590D01*
X0196029Y0721728D01*
X0196315Y0721858D01*
X0196604Y0721982D01*
X0196895Y0722099D01*
X0197189Y0722208D01*
X0197486Y0722310D01*
X0197786Y0722405D01*
X0198087Y0722493D01*
X0198391Y0722573D01*
X0198697Y0722645D01*
X0199004Y0722710D01*
X0199313Y0722768D01*
X0199623Y0722818D01*
X0199934Y0722860D01*
X0200246Y0722894D01*
X0200559Y0722921D01*
X0200872Y0722941D01*
X0201186Y0722952D01*
X0201500Y0722956D01*
X0201814Y0722952D01*
X0202128Y0722941D01*
X0202441Y0722921D01*
X0202754Y0722894D01*
X0203066Y0722860D01*
X0203377Y0722818D01*
X0203687Y0722768D01*
X0203996Y0722710D01*
X0204303Y0722645D01*
X0204609Y0722573D01*
X0204913Y0722493D01*
X0205214Y0722405D01*
X0205514Y0722310D01*
X0205811Y0722208D01*
X0206105Y0722099D01*
X0206396Y0721982D01*
X0206685Y0721858D01*
X0206971Y0721728D01*
X0207253Y0721590D01*
X0207532Y0721445D01*
X0207807Y0721294D01*
X0208078Y0721136D01*
X0208345Y0720971D01*
X0208609Y0720800D01*
X0208867Y0720622D01*
X0209122Y0720438D01*
X0209372Y0720248D01*
X0209617Y0720052D01*
X0209857Y0719849D01*
X0210093Y0719641D01*
X0210323Y0719428D01*
X0210547Y0719208D01*
X0210767Y0718984D01*
X0210980Y0718754D01*
X0211188Y0718518D01*
X0211391Y0718278D01*
X0211587Y0718033D01*
X0211777Y0717783D01*
X0211961Y0717528D01*
X0212139Y0717270D01*
X0212310Y0717006D01*
X0212475Y0716739D01*
X0212633Y0716468D01*
X0212784Y0716193D01*
X0212929Y0715914D01*
X0213067Y0715632D01*
X0213197Y0715346D01*
X0213321Y0715057D01*
X0213438Y0714766D01*
X0213547Y0714472D01*
X0213649Y0714175D01*
X0213744Y0713875D01*
X0213832Y0713574D01*
X0213912Y0713270D01*
X0213984Y0712964D01*
X0214049Y0712657D01*
X0214107Y0712348D01*
X0214157Y0712038D01*
X0214199Y0711727D01*
X0214233Y0711415D01*
X0214260Y0711102D01*
X0214280Y0710789D01*
X0214291Y0710475D01*
X0214295Y0710161D01*
X0214291Y0709847D01*
X0214280Y0709533D01*
X0214260Y0709220D01*
X0214233Y0708907D01*
X0214199Y0708595D01*
X0214157Y0708284D01*
X0214107Y0707974D01*
X0214049Y0707665D01*
X0213984Y0707358D01*
X0213912Y0707052D01*
X0213832Y0706748D01*
X0213744Y0706447D01*
X0213649Y0706147D01*
X0213547Y0705850D01*
X0213438Y0705556D01*
X0213321Y0705265D01*
X0213197Y0704976D01*
X0213067Y0704690D01*
X0212929Y0704408D01*
X0212784Y0704129D01*
X0212633Y0703854D01*
X0212475Y0703583D01*
X0212310Y0703316D01*
X0212139Y0703052D01*
X0211961Y0702794D01*
X0211777Y0702539D01*
X0211587Y0702289D01*
X0211391Y0702044D01*
X0211188Y0701804D01*
X0210980Y0701568D01*
X0210767Y0701338D01*
X0210547Y0701114D01*
X0210323Y0700894D01*
X0210093Y0700681D01*
X0209857Y0700473D01*
X0209617Y0700270D01*
X0209372Y0700074D01*
X0209122Y0699884D01*
X0208867Y0699700D01*
X0208609Y0699522D01*
X0208345Y0699351D01*
X0208078Y0699186D01*
X0207807Y0699028D01*
X0207532Y0698877D01*
X0207253Y0698732D01*
X0206971Y0698594D01*
X0206685Y0698464D01*
X0206396Y0698340D01*
X0206105Y0698223D01*
X0205811Y0698114D01*
X0205514Y0698012D01*
X0205214Y0697917D01*
X0204913Y0697829D01*
X0204609Y0697749D01*
X0204303Y0697677D01*
X0203996Y0697612D01*
X0203687Y0697554D01*
X0203377Y0697504D01*
X0203066Y0697462D01*
X0202754Y0697428D01*
X0202441Y0697401D01*
X0202128Y0697381D01*
X0201814Y0697370D01*
X0201500Y0697366D01*
X0201186Y0697370D01*
X0200872Y0697381D01*
X0200559Y0697401D01*
X0200246Y0697428D01*
X0199934Y0697462D01*
X0199623Y0697504D01*
X0199313Y0697554D01*
X0199004Y0697612D01*
X0198697Y0697677D01*
X0198391Y0697749D01*
X0198087Y0697829D01*
X0197786Y0697917D01*
X0197486Y0698012D01*
X0197189Y0698114D01*
X0196895Y0698223D01*
X0196604Y0698340D01*
X0196315Y0698464D01*
X0196029Y0698594D01*
X0195747Y0698732D01*
X0195468Y0698877D01*
X0195193Y0699028D01*
X0194922Y0699186D01*
X0194655Y0699351D01*
X0194391Y0699522D01*
X0194133Y0699700D01*
X0193878Y0699884D01*
X0193628Y0700074D01*
X0193383Y0700270D01*
X0193143Y0700473D01*
X0192907Y0700681D01*
X0192677Y0700894D01*
X0192453Y0701114D01*
X0192233Y0701338D01*
X0192020Y0701568D01*
X0191812Y0701804D01*
X0191609Y0702044D01*
X0191413Y0702289D01*
X0191223Y0702539D01*
X0191039Y0702794D01*
X0190861Y0703052D01*
X0190690Y0703316D01*
X0190525Y0703583D01*
X0190367Y0703854D01*
X0190216Y0704129D01*
X0190071Y0704408D01*
X0189933Y0704690D01*
X0189803Y0704976D01*
X0189679Y0705265D01*
X0189562Y0705556D01*
X0189453Y0705850D01*
X0189351Y0706147D01*
X0189256Y0706447D01*
X0189168Y0706748D01*
X0189088Y0707052D01*
X0189016Y0707358D01*
X0188951Y0707665D01*
X0188893Y0707974D01*
X0188843Y0708284D01*
X0188801Y0708595D01*
X0188767Y0708907D01*
X0188740Y0709220D01*
X0188720Y0709533D01*
X0188709Y0709847D01*
X0188705Y0710161D01*
X0188705Y0910161D02*
X0188709Y0910475D01*
X0188720Y0910789D01*
X0188740Y0911102D01*
X0188767Y0911415D01*
X0188801Y0911727D01*
X0188843Y0912038D01*
X0188893Y0912348D01*
X0188951Y0912657D01*
X0189016Y0912964D01*
X0189088Y0913270D01*
X0189168Y0913574D01*
X0189256Y0913875D01*
X0189351Y0914175D01*
X0189453Y0914472D01*
X0189562Y0914766D01*
X0189679Y0915057D01*
X0189803Y0915346D01*
X0189933Y0915632D01*
X0190071Y0915914D01*
X0190216Y0916193D01*
X0190367Y0916468D01*
X0190525Y0916739D01*
X0190690Y0917006D01*
X0190861Y0917270D01*
X0191039Y0917528D01*
X0191223Y0917783D01*
X0191413Y0918033D01*
X0191609Y0918278D01*
X0191812Y0918518D01*
X0192020Y0918754D01*
X0192233Y0918984D01*
X0192453Y0919208D01*
X0192677Y0919428D01*
X0192907Y0919641D01*
X0193143Y0919849D01*
X0193383Y0920052D01*
X0193628Y0920248D01*
X0193878Y0920438D01*
X0194133Y0920622D01*
X0194391Y0920800D01*
X0194655Y0920971D01*
X0194922Y0921136D01*
X0195193Y0921294D01*
X0195468Y0921445D01*
X0195747Y0921590D01*
X0196029Y0921728D01*
X0196315Y0921858D01*
X0196604Y0921982D01*
X0196895Y0922099D01*
X0197189Y0922208D01*
X0197486Y0922310D01*
X0197786Y0922405D01*
X0198087Y0922493D01*
X0198391Y0922573D01*
X0198697Y0922645D01*
X0199004Y0922710D01*
X0199313Y0922768D01*
X0199623Y0922818D01*
X0199934Y0922860D01*
X0200246Y0922894D01*
X0200559Y0922921D01*
X0200872Y0922941D01*
X0201186Y0922952D01*
X0201500Y0922956D01*
X0201814Y0922952D01*
X0202128Y0922941D01*
X0202441Y0922921D01*
X0202754Y0922894D01*
X0203066Y0922860D01*
X0203377Y0922818D01*
X0203687Y0922768D01*
X0203996Y0922710D01*
X0204303Y0922645D01*
X0204609Y0922573D01*
X0204913Y0922493D01*
X0205214Y0922405D01*
X0205514Y0922310D01*
X0205811Y0922208D01*
X0206105Y0922099D01*
X0206396Y0921982D01*
X0206685Y0921858D01*
X0206971Y0921728D01*
X0207253Y0921590D01*
X0207532Y0921445D01*
X0207807Y0921294D01*
X0208078Y0921136D01*
X0208345Y0920971D01*
X0208609Y0920800D01*
X0208867Y0920622D01*
X0209122Y0920438D01*
X0209372Y0920248D01*
X0209617Y0920052D01*
X0209857Y0919849D01*
X0210093Y0919641D01*
X0210323Y0919428D01*
X0210547Y0919208D01*
X0210767Y0918984D01*
X0210980Y0918754D01*
X0211188Y0918518D01*
X0211391Y0918278D01*
X0211587Y0918033D01*
X0211777Y0917783D01*
X0211961Y0917528D01*
X0212139Y0917270D01*
X0212310Y0917006D01*
X0212475Y0916739D01*
X0212633Y0916468D01*
X0212784Y0916193D01*
X0212929Y0915914D01*
X0213067Y0915632D01*
X0213197Y0915346D01*
X0213321Y0915057D01*
X0213438Y0914766D01*
X0213547Y0914472D01*
X0213649Y0914175D01*
X0213744Y0913875D01*
X0213832Y0913574D01*
X0213912Y0913270D01*
X0213984Y0912964D01*
X0214049Y0912657D01*
X0214107Y0912348D01*
X0214157Y0912038D01*
X0214199Y0911727D01*
X0214233Y0911415D01*
X0214260Y0911102D01*
X0214280Y0910789D01*
X0214291Y0910475D01*
X0214295Y0910161D01*
X0214291Y0909847D01*
X0214280Y0909533D01*
X0214260Y0909220D01*
X0214233Y0908907D01*
X0214199Y0908595D01*
X0214157Y0908284D01*
X0214107Y0907974D01*
X0214049Y0907665D01*
X0213984Y0907358D01*
X0213912Y0907052D01*
X0213832Y0906748D01*
X0213744Y0906447D01*
X0213649Y0906147D01*
X0213547Y0905850D01*
X0213438Y0905556D01*
X0213321Y0905265D01*
X0213197Y0904976D01*
X0213067Y0904690D01*
X0212929Y0904408D01*
X0212784Y0904129D01*
X0212633Y0903854D01*
X0212475Y0903583D01*
X0212310Y0903316D01*
X0212139Y0903052D01*
X0211961Y0902794D01*
X0211777Y0902539D01*
X0211587Y0902289D01*
X0211391Y0902044D01*
X0211188Y0901804D01*
X0210980Y0901568D01*
X0210767Y0901338D01*
X0210547Y0901114D01*
X0210323Y0900894D01*
X0210093Y0900681D01*
X0209857Y0900473D01*
X0209617Y0900270D01*
X0209372Y0900074D01*
X0209122Y0899884D01*
X0208867Y0899700D01*
X0208609Y0899522D01*
X0208345Y0899351D01*
X0208078Y0899186D01*
X0207807Y0899028D01*
X0207532Y0898877D01*
X0207253Y0898732D01*
X0206971Y0898594D01*
X0206685Y0898464D01*
X0206396Y0898340D01*
X0206105Y0898223D01*
X0205811Y0898114D01*
X0205514Y0898012D01*
X0205214Y0897917D01*
X0204913Y0897829D01*
X0204609Y0897749D01*
X0204303Y0897677D01*
X0203996Y0897612D01*
X0203687Y0897554D01*
X0203377Y0897504D01*
X0203066Y0897462D01*
X0202754Y0897428D01*
X0202441Y0897401D01*
X0202128Y0897381D01*
X0201814Y0897370D01*
X0201500Y0897366D01*
X0201186Y0897370D01*
X0200872Y0897381D01*
X0200559Y0897401D01*
X0200246Y0897428D01*
X0199934Y0897462D01*
X0199623Y0897504D01*
X0199313Y0897554D01*
X0199004Y0897612D01*
X0198697Y0897677D01*
X0198391Y0897749D01*
X0198087Y0897829D01*
X0197786Y0897917D01*
X0197486Y0898012D01*
X0197189Y0898114D01*
X0196895Y0898223D01*
X0196604Y0898340D01*
X0196315Y0898464D01*
X0196029Y0898594D01*
X0195747Y0898732D01*
X0195468Y0898877D01*
X0195193Y0899028D01*
X0194922Y0899186D01*
X0194655Y0899351D01*
X0194391Y0899522D01*
X0194133Y0899700D01*
X0193878Y0899884D01*
X0193628Y0900074D01*
X0193383Y0900270D01*
X0193143Y0900473D01*
X0192907Y0900681D01*
X0192677Y0900894D01*
X0192453Y0901114D01*
X0192233Y0901338D01*
X0192020Y0901568D01*
X0191812Y0901804D01*
X0191609Y0902044D01*
X0191413Y0902289D01*
X0191223Y0902539D01*
X0191039Y0902794D01*
X0190861Y0903052D01*
X0190690Y0903316D01*
X0190525Y0903583D01*
X0190367Y0903854D01*
X0190216Y0904129D01*
X0190071Y0904408D01*
X0189933Y0904690D01*
X0189803Y0904976D01*
X0189679Y0905265D01*
X0189562Y0905556D01*
X0189453Y0905850D01*
X0189351Y0906147D01*
X0189256Y0906447D01*
X0189168Y0906748D01*
X0189088Y0907052D01*
X0189016Y0907358D01*
X0188951Y0907665D01*
X0188893Y0907974D01*
X0188843Y0908284D01*
X0188801Y0908595D01*
X0188767Y0908907D01*
X0188740Y0909220D01*
X0188720Y0909533D01*
X0188709Y0909847D01*
X0188705Y0910161D01*
X0159964Y0930634D02*
X0159966Y0930803D01*
X0159972Y0930972D01*
X0159983Y0931141D01*
X0159997Y0931309D01*
X0160016Y0931477D01*
X0160039Y0931645D01*
X0160065Y0931812D01*
X0160096Y0931978D01*
X0160131Y0932144D01*
X0160170Y0932308D01*
X0160214Y0932472D01*
X0160261Y0932634D01*
X0160312Y0932795D01*
X0160367Y0932955D01*
X0160426Y0933114D01*
X0160488Y0933271D01*
X0160555Y0933426D01*
X0160626Y0933580D01*
X0160700Y0933732D01*
X0160778Y0933882D01*
X0160859Y0934030D01*
X0160944Y0934176D01*
X0161033Y0934320D01*
X0161125Y0934462D01*
X0161221Y0934601D01*
X0161320Y0934738D01*
X0161422Y0934873D01*
X0161528Y0935005D01*
X0161637Y0935134D01*
X0161749Y0935261D01*
X0161864Y0935385D01*
X0161982Y0935506D01*
X0162103Y0935624D01*
X0162227Y0935739D01*
X0162354Y0935851D01*
X0162483Y0935960D01*
X0162615Y0936066D01*
X0162750Y0936168D01*
X0162887Y0936267D01*
X0163026Y0936363D01*
X0163168Y0936455D01*
X0163312Y0936544D01*
X0163458Y0936629D01*
X0163606Y0936710D01*
X0163756Y0936788D01*
X0163908Y0936862D01*
X0164062Y0936933D01*
X0164217Y0937000D01*
X0164374Y0937062D01*
X0164533Y0937121D01*
X0164693Y0937176D01*
X0164854Y0937227D01*
X0165016Y0937274D01*
X0165180Y0937318D01*
X0165344Y0937357D01*
X0165510Y0937392D01*
X0165676Y0937423D01*
X0165843Y0937449D01*
X0166011Y0937472D01*
X0166179Y0937491D01*
X0166347Y0937505D01*
X0166516Y0937516D01*
X0166685Y0937522D01*
X0166854Y0937524D01*
X0167023Y0937522D01*
X0167192Y0937516D01*
X0167361Y0937505D01*
X0167529Y0937491D01*
X0167697Y0937472D01*
X0167865Y0937449D01*
X0168032Y0937423D01*
X0168198Y0937392D01*
X0168364Y0937357D01*
X0168528Y0937318D01*
X0168692Y0937274D01*
X0168854Y0937227D01*
X0169015Y0937176D01*
X0169175Y0937121D01*
X0169334Y0937062D01*
X0169491Y0937000D01*
X0169646Y0936933D01*
X0169800Y0936862D01*
X0169952Y0936788D01*
X0170102Y0936710D01*
X0170250Y0936629D01*
X0170396Y0936544D01*
X0170540Y0936455D01*
X0170682Y0936363D01*
X0170821Y0936267D01*
X0170958Y0936168D01*
X0171093Y0936066D01*
X0171225Y0935960D01*
X0171354Y0935851D01*
X0171481Y0935739D01*
X0171605Y0935624D01*
X0171726Y0935506D01*
X0171844Y0935385D01*
X0171959Y0935261D01*
X0172071Y0935134D01*
X0172180Y0935005D01*
X0172286Y0934873D01*
X0172388Y0934738D01*
X0172487Y0934601D01*
X0172583Y0934462D01*
X0172675Y0934320D01*
X0172764Y0934176D01*
X0172849Y0934030D01*
X0172930Y0933882D01*
X0173008Y0933732D01*
X0173082Y0933580D01*
X0173153Y0933426D01*
X0173220Y0933271D01*
X0173282Y0933114D01*
X0173341Y0932955D01*
X0173396Y0932795D01*
X0173447Y0932634D01*
X0173494Y0932472D01*
X0173538Y0932308D01*
X0173577Y0932144D01*
X0173612Y0931978D01*
X0173643Y0931812D01*
X0173669Y0931645D01*
X0173692Y0931477D01*
X0173711Y0931309D01*
X0173725Y0931141D01*
X0173736Y0930972D01*
X0173742Y0930803D01*
X0173744Y0930634D01*
X0173742Y0930465D01*
X0173736Y0930296D01*
X0173725Y0930127D01*
X0173711Y0929959D01*
X0173692Y0929791D01*
X0173669Y0929623D01*
X0173643Y0929456D01*
X0173612Y0929290D01*
X0173577Y0929124D01*
X0173538Y0928960D01*
X0173494Y0928796D01*
X0173447Y0928634D01*
X0173396Y0928473D01*
X0173341Y0928313D01*
X0173282Y0928154D01*
X0173220Y0927997D01*
X0173153Y0927842D01*
X0173082Y0927688D01*
X0173008Y0927536D01*
X0172930Y0927386D01*
X0172849Y0927238D01*
X0172764Y0927092D01*
X0172675Y0926948D01*
X0172583Y0926806D01*
X0172487Y0926667D01*
X0172388Y0926530D01*
X0172286Y0926395D01*
X0172180Y0926263D01*
X0172071Y0926134D01*
X0171959Y0926007D01*
X0171844Y0925883D01*
X0171726Y0925762D01*
X0171605Y0925644D01*
X0171481Y0925529D01*
X0171354Y0925417D01*
X0171225Y0925308D01*
X0171093Y0925202D01*
X0170958Y0925100D01*
X0170821Y0925001D01*
X0170682Y0924905D01*
X0170540Y0924813D01*
X0170396Y0924724D01*
X0170250Y0924639D01*
X0170102Y0924558D01*
X0169952Y0924480D01*
X0169800Y0924406D01*
X0169646Y0924335D01*
X0169491Y0924268D01*
X0169334Y0924206D01*
X0169175Y0924147D01*
X0169015Y0924092D01*
X0168854Y0924041D01*
X0168692Y0923994D01*
X0168528Y0923950D01*
X0168364Y0923911D01*
X0168198Y0923876D01*
X0168032Y0923845D01*
X0167865Y0923819D01*
X0167697Y0923796D01*
X0167529Y0923777D01*
X0167361Y0923763D01*
X0167192Y0923752D01*
X0167023Y0923746D01*
X0166854Y0923744D01*
X0166685Y0923746D01*
X0166516Y0923752D01*
X0166347Y0923763D01*
X0166179Y0923777D01*
X0166011Y0923796D01*
X0165843Y0923819D01*
X0165676Y0923845D01*
X0165510Y0923876D01*
X0165344Y0923911D01*
X0165180Y0923950D01*
X0165016Y0923994D01*
X0164854Y0924041D01*
X0164693Y0924092D01*
X0164533Y0924147D01*
X0164374Y0924206D01*
X0164217Y0924268D01*
X0164062Y0924335D01*
X0163908Y0924406D01*
X0163756Y0924480D01*
X0163606Y0924558D01*
X0163458Y0924639D01*
X0163312Y0924724D01*
X0163168Y0924813D01*
X0163026Y0924905D01*
X0162887Y0925001D01*
X0162750Y0925100D01*
X0162615Y0925202D01*
X0162483Y0925308D01*
X0162354Y0925417D01*
X0162227Y0925529D01*
X0162103Y0925644D01*
X0161982Y0925762D01*
X0161864Y0925883D01*
X0161749Y0926007D01*
X0161637Y0926134D01*
X0161528Y0926263D01*
X0161422Y0926395D01*
X0161320Y0926530D01*
X0161221Y0926667D01*
X0161125Y0926806D01*
X0161033Y0926948D01*
X0160944Y0927092D01*
X0160859Y0927238D01*
X0160778Y0927386D01*
X0160700Y0927536D01*
X0160626Y0927688D01*
X0160555Y0927842D01*
X0160488Y0927997D01*
X0160426Y0928154D01*
X0160367Y0928313D01*
X0160312Y0928473D01*
X0160261Y0928634D01*
X0160214Y0928796D01*
X0160170Y0928960D01*
X0160131Y0929124D01*
X0160096Y0929290D01*
X0160065Y0929456D01*
X0160039Y0929623D01*
X0160016Y0929791D01*
X0159997Y0929959D01*
X0159983Y0930127D01*
X0159972Y0930296D01*
X0159966Y0930465D01*
X0159964Y0930634D01*
X0088705Y0910161D02*
X0088709Y0910475D01*
X0088720Y0910789D01*
X0088740Y0911102D01*
X0088767Y0911415D01*
X0088801Y0911727D01*
X0088843Y0912038D01*
X0088893Y0912348D01*
X0088951Y0912657D01*
X0089016Y0912964D01*
X0089088Y0913270D01*
X0089168Y0913574D01*
X0089256Y0913875D01*
X0089351Y0914175D01*
X0089453Y0914472D01*
X0089562Y0914766D01*
X0089679Y0915057D01*
X0089803Y0915346D01*
X0089933Y0915632D01*
X0090071Y0915914D01*
X0090216Y0916193D01*
X0090367Y0916468D01*
X0090525Y0916739D01*
X0090690Y0917006D01*
X0090861Y0917270D01*
X0091039Y0917528D01*
X0091223Y0917783D01*
X0091413Y0918033D01*
X0091609Y0918278D01*
X0091812Y0918518D01*
X0092020Y0918754D01*
X0092233Y0918984D01*
X0092453Y0919208D01*
X0092677Y0919428D01*
X0092907Y0919641D01*
X0093143Y0919849D01*
X0093383Y0920052D01*
X0093628Y0920248D01*
X0093878Y0920438D01*
X0094133Y0920622D01*
X0094391Y0920800D01*
X0094655Y0920971D01*
X0094922Y0921136D01*
X0095193Y0921294D01*
X0095468Y0921445D01*
X0095747Y0921590D01*
X0096029Y0921728D01*
X0096315Y0921858D01*
X0096604Y0921982D01*
X0096895Y0922099D01*
X0097189Y0922208D01*
X0097486Y0922310D01*
X0097786Y0922405D01*
X0098087Y0922493D01*
X0098391Y0922573D01*
X0098697Y0922645D01*
X0099004Y0922710D01*
X0099313Y0922768D01*
X0099623Y0922818D01*
X0099934Y0922860D01*
X0100246Y0922894D01*
X0100559Y0922921D01*
X0100872Y0922941D01*
X0101186Y0922952D01*
X0101500Y0922956D01*
X0101814Y0922952D01*
X0102128Y0922941D01*
X0102441Y0922921D01*
X0102754Y0922894D01*
X0103066Y0922860D01*
X0103377Y0922818D01*
X0103687Y0922768D01*
X0103996Y0922710D01*
X0104303Y0922645D01*
X0104609Y0922573D01*
X0104913Y0922493D01*
X0105214Y0922405D01*
X0105514Y0922310D01*
X0105811Y0922208D01*
X0106105Y0922099D01*
X0106396Y0921982D01*
X0106685Y0921858D01*
X0106971Y0921728D01*
X0107253Y0921590D01*
X0107532Y0921445D01*
X0107807Y0921294D01*
X0108078Y0921136D01*
X0108345Y0920971D01*
X0108609Y0920800D01*
X0108867Y0920622D01*
X0109122Y0920438D01*
X0109372Y0920248D01*
X0109617Y0920052D01*
X0109857Y0919849D01*
X0110093Y0919641D01*
X0110323Y0919428D01*
X0110547Y0919208D01*
X0110767Y0918984D01*
X0110980Y0918754D01*
X0111188Y0918518D01*
X0111391Y0918278D01*
X0111587Y0918033D01*
X0111777Y0917783D01*
X0111961Y0917528D01*
X0112139Y0917270D01*
X0112310Y0917006D01*
X0112475Y0916739D01*
X0112633Y0916468D01*
X0112784Y0916193D01*
X0112929Y0915914D01*
X0113067Y0915632D01*
X0113197Y0915346D01*
X0113321Y0915057D01*
X0113438Y0914766D01*
X0113547Y0914472D01*
X0113649Y0914175D01*
X0113744Y0913875D01*
X0113832Y0913574D01*
X0113912Y0913270D01*
X0113984Y0912964D01*
X0114049Y0912657D01*
X0114107Y0912348D01*
X0114157Y0912038D01*
X0114199Y0911727D01*
X0114233Y0911415D01*
X0114260Y0911102D01*
X0114280Y0910789D01*
X0114291Y0910475D01*
X0114295Y0910161D01*
X0114291Y0909847D01*
X0114280Y0909533D01*
X0114260Y0909220D01*
X0114233Y0908907D01*
X0114199Y0908595D01*
X0114157Y0908284D01*
X0114107Y0907974D01*
X0114049Y0907665D01*
X0113984Y0907358D01*
X0113912Y0907052D01*
X0113832Y0906748D01*
X0113744Y0906447D01*
X0113649Y0906147D01*
X0113547Y0905850D01*
X0113438Y0905556D01*
X0113321Y0905265D01*
X0113197Y0904976D01*
X0113067Y0904690D01*
X0112929Y0904408D01*
X0112784Y0904129D01*
X0112633Y0903854D01*
X0112475Y0903583D01*
X0112310Y0903316D01*
X0112139Y0903052D01*
X0111961Y0902794D01*
X0111777Y0902539D01*
X0111587Y0902289D01*
X0111391Y0902044D01*
X0111188Y0901804D01*
X0110980Y0901568D01*
X0110767Y0901338D01*
X0110547Y0901114D01*
X0110323Y0900894D01*
X0110093Y0900681D01*
X0109857Y0900473D01*
X0109617Y0900270D01*
X0109372Y0900074D01*
X0109122Y0899884D01*
X0108867Y0899700D01*
X0108609Y0899522D01*
X0108345Y0899351D01*
X0108078Y0899186D01*
X0107807Y0899028D01*
X0107532Y0898877D01*
X0107253Y0898732D01*
X0106971Y0898594D01*
X0106685Y0898464D01*
X0106396Y0898340D01*
X0106105Y0898223D01*
X0105811Y0898114D01*
X0105514Y0898012D01*
X0105214Y0897917D01*
X0104913Y0897829D01*
X0104609Y0897749D01*
X0104303Y0897677D01*
X0103996Y0897612D01*
X0103687Y0897554D01*
X0103377Y0897504D01*
X0103066Y0897462D01*
X0102754Y0897428D01*
X0102441Y0897401D01*
X0102128Y0897381D01*
X0101814Y0897370D01*
X0101500Y0897366D01*
X0101186Y0897370D01*
X0100872Y0897381D01*
X0100559Y0897401D01*
X0100246Y0897428D01*
X0099934Y0897462D01*
X0099623Y0897504D01*
X0099313Y0897554D01*
X0099004Y0897612D01*
X0098697Y0897677D01*
X0098391Y0897749D01*
X0098087Y0897829D01*
X0097786Y0897917D01*
X0097486Y0898012D01*
X0097189Y0898114D01*
X0096895Y0898223D01*
X0096604Y0898340D01*
X0096315Y0898464D01*
X0096029Y0898594D01*
X0095747Y0898732D01*
X0095468Y0898877D01*
X0095193Y0899028D01*
X0094922Y0899186D01*
X0094655Y0899351D01*
X0094391Y0899522D01*
X0094133Y0899700D01*
X0093878Y0899884D01*
X0093628Y0900074D01*
X0093383Y0900270D01*
X0093143Y0900473D01*
X0092907Y0900681D01*
X0092677Y0900894D01*
X0092453Y0901114D01*
X0092233Y0901338D01*
X0092020Y0901568D01*
X0091812Y0901804D01*
X0091609Y0902044D01*
X0091413Y0902289D01*
X0091223Y0902539D01*
X0091039Y0902794D01*
X0090861Y0903052D01*
X0090690Y0903316D01*
X0090525Y0903583D01*
X0090367Y0903854D01*
X0090216Y0904129D01*
X0090071Y0904408D01*
X0089933Y0904690D01*
X0089803Y0904976D01*
X0089679Y0905265D01*
X0089562Y0905556D01*
X0089453Y0905850D01*
X0089351Y0906147D01*
X0089256Y0906447D01*
X0089168Y0906748D01*
X0089088Y0907052D01*
X0089016Y0907358D01*
X0088951Y0907665D01*
X0088893Y0907974D01*
X0088843Y0908284D01*
X0088801Y0908595D01*
X0088767Y0908907D01*
X0088740Y0909220D01*
X0088720Y0909533D01*
X0088709Y0909847D01*
X0088705Y0910161D01*
X0041854Y0930634D02*
X0041856Y0930803D01*
X0041862Y0930972D01*
X0041873Y0931141D01*
X0041887Y0931309D01*
X0041906Y0931477D01*
X0041929Y0931645D01*
X0041955Y0931812D01*
X0041986Y0931978D01*
X0042021Y0932144D01*
X0042060Y0932308D01*
X0042104Y0932472D01*
X0042151Y0932634D01*
X0042202Y0932795D01*
X0042257Y0932955D01*
X0042316Y0933114D01*
X0042378Y0933271D01*
X0042445Y0933426D01*
X0042516Y0933580D01*
X0042590Y0933732D01*
X0042668Y0933882D01*
X0042749Y0934030D01*
X0042834Y0934176D01*
X0042923Y0934320D01*
X0043015Y0934462D01*
X0043111Y0934601D01*
X0043210Y0934738D01*
X0043312Y0934873D01*
X0043418Y0935005D01*
X0043527Y0935134D01*
X0043639Y0935261D01*
X0043754Y0935385D01*
X0043872Y0935506D01*
X0043993Y0935624D01*
X0044117Y0935739D01*
X0044244Y0935851D01*
X0044373Y0935960D01*
X0044505Y0936066D01*
X0044640Y0936168D01*
X0044777Y0936267D01*
X0044916Y0936363D01*
X0045058Y0936455D01*
X0045202Y0936544D01*
X0045348Y0936629D01*
X0045496Y0936710D01*
X0045646Y0936788D01*
X0045798Y0936862D01*
X0045952Y0936933D01*
X0046107Y0937000D01*
X0046264Y0937062D01*
X0046423Y0937121D01*
X0046583Y0937176D01*
X0046744Y0937227D01*
X0046906Y0937274D01*
X0047070Y0937318D01*
X0047234Y0937357D01*
X0047400Y0937392D01*
X0047566Y0937423D01*
X0047733Y0937449D01*
X0047901Y0937472D01*
X0048069Y0937491D01*
X0048237Y0937505D01*
X0048406Y0937516D01*
X0048575Y0937522D01*
X0048744Y0937524D01*
X0048913Y0937522D01*
X0049082Y0937516D01*
X0049251Y0937505D01*
X0049419Y0937491D01*
X0049587Y0937472D01*
X0049755Y0937449D01*
X0049922Y0937423D01*
X0050088Y0937392D01*
X0050254Y0937357D01*
X0050418Y0937318D01*
X0050582Y0937274D01*
X0050744Y0937227D01*
X0050905Y0937176D01*
X0051065Y0937121D01*
X0051224Y0937062D01*
X0051381Y0937000D01*
X0051536Y0936933D01*
X0051690Y0936862D01*
X0051842Y0936788D01*
X0051992Y0936710D01*
X0052140Y0936629D01*
X0052286Y0936544D01*
X0052430Y0936455D01*
X0052572Y0936363D01*
X0052711Y0936267D01*
X0052848Y0936168D01*
X0052983Y0936066D01*
X0053115Y0935960D01*
X0053244Y0935851D01*
X0053371Y0935739D01*
X0053495Y0935624D01*
X0053616Y0935506D01*
X0053734Y0935385D01*
X0053849Y0935261D01*
X0053961Y0935134D01*
X0054070Y0935005D01*
X0054176Y0934873D01*
X0054278Y0934738D01*
X0054377Y0934601D01*
X0054473Y0934462D01*
X0054565Y0934320D01*
X0054654Y0934176D01*
X0054739Y0934030D01*
X0054820Y0933882D01*
X0054898Y0933732D01*
X0054972Y0933580D01*
X0055043Y0933426D01*
X0055110Y0933271D01*
X0055172Y0933114D01*
X0055231Y0932955D01*
X0055286Y0932795D01*
X0055337Y0932634D01*
X0055384Y0932472D01*
X0055428Y0932308D01*
X0055467Y0932144D01*
X0055502Y0931978D01*
X0055533Y0931812D01*
X0055559Y0931645D01*
X0055582Y0931477D01*
X0055601Y0931309D01*
X0055615Y0931141D01*
X0055626Y0930972D01*
X0055632Y0930803D01*
X0055634Y0930634D01*
X0055632Y0930465D01*
X0055626Y0930296D01*
X0055615Y0930127D01*
X0055601Y0929959D01*
X0055582Y0929791D01*
X0055559Y0929623D01*
X0055533Y0929456D01*
X0055502Y0929290D01*
X0055467Y0929124D01*
X0055428Y0928960D01*
X0055384Y0928796D01*
X0055337Y0928634D01*
X0055286Y0928473D01*
X0055231Y0928313D01*
X0055172Y0928154D01*
X0055110Y0927997D01*
X0055043Y0927842D01*
X0054972Y0927688D01*
X0054898Y0927536D01*
X0054820Y0927386D01*
X0054739Y0927238D01*
X0054654Y0927092D01*
X0054565Y0926948D01*
X0054473Y0926806D01*
X0054377Y0926667D01*
X0054278Y0926530D01*
X0054176Y0926395D01*
X0054070Y0926263D01*
X0053961Y0926134D01*
X0053849Y0926007D01*
X0053734Y0925883D01*
X0053616Y0925762D01*
X0053495Y0925644D01*
X0053371Y0925529D01*
X0053244Y0925417D01*
X0053115Y0925308D01*
X0052983Y0925202D01*
X0052848Y0925100D01*
X0052711Y0925001D01*
X0052572Y0924905D01*
X0052430Y0924813D01*
X0052286Y0924724D01*
X0052140Y0924639D01*
X0051992Y0924558D01*
X0051842Y0924480D01*
X0051690Y0924406D01*
X0051536Y0924335D01*
X0051381Y0924268D01*
X0051224Y0924206D01*
X0051065Y0924147D01*
X0050905Y0924092D01*
X0050744Y0924041D01*
X0050582Y0923994D01*
X0050418Y0923950D01*
X0050254Y0923911D01*
X0050088Y0923876D01*
X0049922Y0923845D01*
X0049755Y0923819D01*
X0049587Y0923796D01*
X0049419Y0923777D01*
X0049251Y0923763D01*
X0049082Y0923752D01*
X0048913Y0923746D01*
X0048744Y0923744D01*
X0048575Y0923746D01*
X0048406Y0923752D01*
X0048237Y0923763D01*
X0048069Y0923777D01*
X0047901Y0923796D01*
X0047733Y0923819D01*
X0047566Y0923845D01*
X0047400Y0923876D01*
X0047234Y0923911D01*
X0047070Y0923950D01*
X0046906Y0923994D01*
X0046744Y0924041D01*
X0046583Y0924092D01*
X0046423Y0924147D01*
X0046264Y0924206D01*
X0046107Y0924268D01*
X0045952Y0924335D01*
X0045798Y0924406D01*
X0045646Y0924480D01*
X0045496Y0924558D01*
X0045348Y0924639D01*
X0045202Y0924724D01*
X0045058Y0924813D01*
X0044916Y0924905D01*
X0044777Y0925001D01*
X0044640Y0925100D01*
X0044505Y0925202D01*
X0044373Y0925308D01*
X0044244Y0925417D01*
X0044117Y0925529D01*
X0043993Y0925644D01*
X0043872Y0925762D01*
X0043754Y0925883D01*
X0043639Y0926007D01*
X0043527Y0926134D01*
X0043418Y0926263D01*
X0043312Y0926395D01*
X0043210Y0926530D01*
X0043111Y0926667D01*
X0043015Y0926806D01*
X0042923Y0926948D01*
X0042834Y0927092D01*
X0042749Y0927238D01*
X0042668Y0927386D01*
X0042590Y0927536D01*
X0042516Y0927688D01*
X0042445Y0927842D01*
X0042378Y0927997D01*
X0042316Y0928154D01*
X0042257Y0928313D01*
X0042202Y0928473D01*
X0042151Y0928634D01*
X0042104Y0928796D01*
X0042060Y0928960D01*
X0042021Y0929124D01*
X0041986Y0929290D01*
X0041955Y0929456D01*
X0041929Y0929623D01*
X0041906Y0929791D01*
X0041887Y0929959D01*
X0041873Y0930127D01*
X0041862Y0930296D01*
X0041856Y0930465D01*
X0041854Y0930634D01*
X0288705Y0910161D02*
X0288709Y0910475D01*
X0288720Y0910789D01*
X0288740Y0911102D01*
X0288767Y0911415D01*
X0288801Y0911727D01*
X0288843Y0912038D01*
X0288893Y0912348D01*
X0288951Y0912657D01*
X0289016Y0912964D01*
X0289088Y0913270D01*
X0289168Y0913574D01*
X0289256Y0913875D01*
X0289351Y0914175D01*
X0289453Y0914472D01*
X0289562Y0914766D01*
X0289679Y0915057D01*
X0289803Y0915346D01*
X0289933Y0915632D01*
X0290071Y0915914D01*
X0290216Y0916193D01*
X0290367Y0916468D01*
X0290525Y0916739D01*
X0290690Y0917006D01*
X0290861Y0917270D01*
X0291039Y0917528D01*
X0291223Y0917783D01*
X0291413Y0918033D01*
X0291609Y0918278D01*
X0291812Y0918518D01*
X0292020Y0918754D01*
X0292233Y0918984D01*
X0292453Y0919208D01*
X0292677Y0919428D01*
X0292907Y0919641D01*
X0293143Y0919849D01*
X0293383Y0920052D01*
X0293628Y0920248D01*
X0293878Y0920438D01*
X0294133Y0920622D01*
X0294391Y0920800D01*
X0294655Y0920971D01*
X0294922Y0921136D01*
X0295193Y0921294D01*
X0295468Y0921445D01*
X0295747Y0921590D01*
X0296029Y0921728D01*
X0296315Y0921858D01*
X0296604Y0921982D01*
X0296895Y0922099D01*
X0297189Y0922208D01*
X0297486Y0922310D01*
X0297786Y0922405D01*
X0298087Y0922493D01*
X0298391Y0922573D01*
X0298697Y0922645D01*
X0299004Y0922710D01*
X0299313Y0922768D01*
X0299623Y0922818D01*
X0299934Y0922860D01*
X0300246Y0922894D01*
X0300559Y0922921D01*
X0300872Y0922941D01*
X0301186Y0922952D01*
X0301500Y0922956D01*
X0301814Y0922952D01*
X0302128Y0922941D01*
X0302441Y0922921D01*
X0302754Y0922894D01*
X0303066Y0922860D01*
X0303377Y0922818D01*
X0303687Y0922768D01*
X0303996Y0922710D01*
X0304303Y0922645D01*
X0304609Y0922573D01*
X0304913Y0922493D01*
X0305214Y0922405D01*
X0305514Y0922310D01*
X0305811Y0922208D01*
X0306105Y0922099D01*
X0306396Y0921982D01*
X0306685Y0921858D01*
X0306971Y0921728D01*
X0307253Y0921590D01*
X0307532Y0921445D01*
X0307807Y0921294D01*
X0308078Y0921136D01*
X0308345Y0920971D01*
X0308609Y0920800D01*
X0308867Y0920622D01*
X0309122Y0920438D01*
X0309372Y0920248D01*
X0309617Y0920052D01*
X0309857Y0919849D01*
X0310093Y0919641D01*
X0310323Y0919428D01*
X0310547Y0919208D01*
X0310767Y0918984D01*
X0310980Y0918754D01*
X0311188Y0918518D01*
X0311391Y0918278D01*
X0311587Y0918033D01*
X0311777Y0917783D01*
X0311961Y0917528D01*
X0312139Y0917270D01*
X0312310Y0917006D01*
X0312475Y0916739D01*
X0312633Y0916468D01*
X0312784Y0916193D01*
X0312929Y0915914D01*
X0313067Y0915632D01*
X0313197Y0915346D01*
X0313321Y0915057D01*
X0313438Y0914766D01*
X0313547Y0914472D01*
X0313649Y0914175D01*
X0313744Y0913875D01*
X0313832Y0913574D01*
X0313912Y0913270D01*
X0313984Y0912964D01*
X0314049Y0912657D01*
X0314107Y0912348D01*
X0314157Y0912038D01*
X0314199Y0911727D01*
X0314233Y0911415D01*
X0314260Y0911102D01*
X0314280Y0910789D01*
X0314291Y0910475D01*
X0314295Y0910161D01*
X0314291Y0909847D01*
X0314280Y0909533D01*
X0314260Y0909220D01*
X0314233Y0908907D01*
X0314199Y0908595D01*
X0314157Y0908284D01*
X0314107Y0907974D01*
X0314049Y0907665D01*
X0313984Y0907358D01*
X0313912Y0907052D01*
X0313832Y0906748D01*
X0313744Y0906447D01*
X0313649Y0906147D01*
X0313547Y0905850D01*
X0313438Y0905556D01*
X0313321Y0905265D01*
X0313197Y0904976D01*
X0313067Y0904690D01*
X0312929Y0904408D01*
X0312784Y0904129D01*
X0312633Y0903854D01*
X0312475Y0903583D01*
X0312310Y0903316D01*
X0312139Y0903052D01*
X0311961Y0902794D01*
X0311777Y0902539D01*
X0311587Y0902289D01*
X0311391Y0902044D01*
X0311188Y0901804D01*
X0310980Y0901568D01*
X0310767Y0901338D01*
X0310547Y0901114D01*
X0310323Y0900894D01*
X0310093Y0900681D01*
X0309857Y0900473D01*
X0309617Y0900270D01*
X0309372Y0900074D01*
X0309122Y0899884D01*
X0308867Y0899700D01*
X0308609Y0899522D01*
X0308345Y0899351D01*
X0308078Y0899186D01*
X0307807Y0899028D01*
X0307532Y0898877D01*
X0307253Y0898732D01*
X0306971Y0898594D01*
X0306685Y0898464D01*
X0306396Y0898340D01*
X0306105Y0898223D01*
X0305811Y0898114D01*
X0305514Y0898012D01*
X0305214Y0897917D01*
X0304913Y0897829D01*
X0304609Y0897749D01*
X0304303Y0897677D01*
X0303996Y0897612D01*
X0303687Y0897554D01*
X0303377Y0897504D01*
X0303066Y0897462D01*
X0302754Y0897428D01*
X0302441Y0897401D01*
X0302128Y0897381D01*
X0301814Y0897370D01*
X0301500Y0897366D01*
X0301186Y0897370D01*
X0300872Y0897381D01*
X0300559Y0897401D01*
X0300246Y0897428D01*
X0299934Y0897462D01*
X0299623Y0897504D01*
X0299313Y0897554D01*
X0299004Y0897612D01*
X0298697Y0897677D01*
X0298391Y0897749D01*
X0298087Y0897829D01*
X0297786Y0897917D01*
X0297486Y0898012D01*
X0297189Y0898114D01*
X0296895Y0898223D01*
X0296604Y0898340D01*
X0296315Y0898464D01*
X0296029Y0898594D01*
X0295747Y0898732D01*
X0295468Y0898877D01*
X0295193Y0899028D01*
X0294922Y0899186D01*
X0294655Y0899351D01*
X0294391Y0899522D01*
X0294133Y0899700D01*
X0293878Y0899884D01*
X0293628Y0900074D01*
X0293383Y0900270D01*
X0293143Y0900473D01*
X0292907Y0900681D01*
X0292677Y0900894D01*
X0292453Y0901114D01*
X0292233Y0901338D01*
X0292020Y0901568D01*
X0291812Y0901804D01*
X0291609Y0902044D01*
X0291413Y0902289D01*
X0291223Y0902539D01*
X0291039Y0902794D01*
X0290861Y0903052D01*
X0290690Y0903316D01*
X0290525Y0903583D01*
X0290367Y0903854D01*
X0290216Y0904129D01*
X0290071Y0904408D01*
X0289933Y0904690D01*
X0289803Y0904976D01*
X0289679Y0905265D01*
X0289562Y0905556D01*
X0289453Y0905850D01*
X0289351Y0906147D01*
X0289256Y0906447D01*
X0289168Y0906748D01*
X0289088Y0907052D01*
X0289016Y0907358D01*
X0288951Y0907665D01*
X0288893Y0907974D01*
X0288843Y0908284D01*
X0288801Y0908595D01*
X0288767Y0908907D01*
X0288740Y0909220D01*
X0288720Y0909533D01*
X0288709Y0909847D01*
X0288705Y0910161D01*
X0337130Y0930634D02*
X0337132Y0930803D01*
X0337138Y0930972D01*
X0337149Y0931141D01*
X0337163Y0931309D01*
X0337182Y0931477D01*
X0337205Y0931645D01*
X0337231Y0931812D01*
X0337262Y0931978D01*
X0337297Y0932144D01*
X0337336Y0932308D01*
X0337380Y0932472D01*
X0337427Y0932634D01*
X0337478Y0932795D01*
X0337533Y0932955D01*
X0337592Y0933114D01*
X0337654Y0933271D01*
X0337721Y0933426D01*
X0337792Y0933580D01*
X0337866Y0933732D01*
X0337944Y0933882D01*
X0338025Y0934030D01*
X0338110Y0934176D01*
X0338199Y0934320D01*
X0338291Y0934462D01*
X0338387Y0934601D01*
X0338486Y0934738D01*
X0338588Y0934873D01*
X0338694Y0935005D01*
X0338803Y0935134D01*
X0338915Y0935261D01*
X0339030Y0935385D01*
X0339148Y0935506D01*
X0339269Y0935624D01*
X0339393Y0935739D01*
X0339520Y0935851D01*
X0339649Y0935960D01*
X0339781Y0936066D01*
X0339916Y0936168D01*
X0340053Y0936267D01*
X0340192Y0936363D01*
X0340334Y0936455D01*
X0340478Y0936544D01*
X0340624Y0936629D01*
X0340772Y0936710D01*
X0340922Y0936788D01*
X0341074Y0936862D01*
X0341228Y0936933D01*
X0341383Y0937000D01*
X0341540Y0937062D01*
X0341699Y0937121D01*
X0341859Y0937176D01*
X0342020Y0937227D01*
X0342182Y0937274D01*
X0342346Y0937318D01*
X0342510Y0937357D01*
X0342676Y0937392D01*
X0342842Y0937423D01*
X0343009Y0937449D01*
X0343177Y0937472D01*
X0343345Y0937491D01*
X0343513Y0937505D01*
X0343682Y0937516D01*
X0343851Y0937522D01*
X0344020Y0937524D01*
X0344189Y0937522D01*
X0344358Y0937516D01*
X0344527Y0937505D01*
X0344695Y0937491D01*
X0344863Y0937472D01*
X0345031Y0937449D01*
X0345198Y0937423D01*
X0345364Y0937392D01*
X0345530Y0937357D01*
X0345694Y0937318D01*
X0345858Y0937274D01*
X0346020Y0937227D01*
X0346181Y0937176D01*
X0346341Y0937121D01*
X0346500Y0937062D01*
X0346657Y0937000D01*
X0346812Y0936933D01*
X0346966Y0936862D01*
X0347118Y0936788D01*
X0347268Y0936710D01*
X0347416Y0936629D01*
X0347562Y0936544D01*
X0347706Y0936455D01*
X0347848Y0936363D01*
X0347987Y0936267D01*
X0348124Y0936168D01*
X0348259Y0936066D01*
X0348391Y0935960D01*
X0348520Y0935851D01*
X0348647Y0935739D01*
X0348771Y0935624D01*
X0348892Y0935506D01*
X0349010Y0935385D01*
X0349125Y0935261D01*
X0349237Y0935134D01*
X0349346Y0935005D01*
X0349452Y0934873D01*
X0349554Y0934738D01*
X0349653Y0934601D01*
X0349749Y0934462D01*
X0349841Y0934320D01*
X0349930Y0934176D01*
X0350015Y0934030D01*
X0350096Y0933882D01*
X0350174Y0933732D01*
X0350248Y0933580D01*
X0350319Y0933426D01*
X0350386Y0933271D01*
X0350448Y0933114D01*
X0350507Y0932955D01*
X0350562Y0932795D01*
X0350613Y0932634D01*
X0350660Y0932472D01*
X0350704Y0932308D01*
X0350743Y0932144D01*
X0350778Y0931978D01*
X0350809Y0931812D01*
X0350835Y0931645D01*
X0350858Y0931477D01*
X0350877Y0931309D01*
X0350891Y0931141D01*
X0350902Y0930972D01*
X0350908Y0930803D01*
X0350910Y0930634D01*
X0350908Y0930465D01*
X0350902Y0930296D01*
X0350891Y0930127D01*
X0350877Y0929959D01*
X0350858Y0929791D01*
X0350835Y0929623D01*
X0350809Y0929456D01*
X0350778Y0929290D01*
X0350743Y0929124D01*
X0350704Y0928960D01*
X0350660Y0928796D01*
X0350613Y0928634D01*
X0350562Y0928473D01*
X0350507Y0928313D01*
X0350448Y0928154D01*
X0350386Y0927997D01*
X0350319Y0927842D01*
X0350248Y0927688D01*
X0350174Y0927536D01*
X0350096Y0927386D01*
X0350015Y0927238D01*
X0349930Y0927092D01*
X0349841Y0926948D01*
X0349749Y0926806D01*
X0349653Y0926667D01*
X0349554Y0926530D01*
X0349452Y0926395D01*
X0349346Y0926263D01*
X0349237Y0926134D01*
X0349125Y0926007D01*
X0349010Y0925883D01*
X0348892Y0925762D01*
X0348771Y0925644D01*
X0348647Y0925529D01*
X0348520Y0925417D01*
X0348391Y0925308D01*
X0348259Y0925202D01*
X0348124Y0925100D01*
X0347987Y0925001D01*
X0347848Y0924905D01*
X0347706Y0924813D01*
X0347562Y0924724D01*
X0347416Y0924639D01*
X0347268Y0924558D01*
X0347118Y0924480D01*
X0346966Y0924406D01*
X0346812Y0924335D01*
X0346657Y0924268D01*
X0346500Y0924206D01*
X0346341Y0924147D01*
X0346181Y0924092D01*
X0346020Y0924041D01*
X0345858Y0923994D01*
X0345694Y0923950D01*
X0345530Y0923911D01*
X0345364Y0923876D01*
X0345198Y0923845D01*
X0345031Y0923819D01*
X0344863Y0923796D01*
X0344695Y0923777D01*
X0344527Y0923763D01*
X0344358Y0923752D01*
X0344189Y0923746D01*
X0344020Y0923744D01*
X0343851Y0923746D01*
X0343682Y0923752D01*
X0343513Y0923763D01*
X0343345Y0923777D01*
X0343177Y0923796D01*
X0343009Y0923819D01*
X0342842Y0923845D01*
X0342676Y0923876D01*
X0342510Y0923911D01*
X0342346Y0923950D01*
X0342182Y0923994D01*
X0342020Y0924041D01*
X0341859Y0924092D01*
X0341699Y0924147D01*
X0341540Y0924206D01*
X0341383Y0924268D01*
X0341228Y0924335D01*
X0341074Y0924406D01*
X0340922Y0924480D01*
X0340772Y0924558D01*
X0340624Y0924639D01*
X0340478Y0924724D01*
X0340334Y0924813D01*
X0340192Y0924905D01*
X0340053Y0925001D01*
X0339916Y0925100D01*
X0339781Y0925202D01*
X0339649Y0925308D01*
X0339520Y0925417D01*
X0339393Y0925529D01*
X0339269Y0925644D01*
X0339148Y0925762D01*
X0339030Y0925883D01*
X0338915Y0926007D01*
X0338803Y0926134D01*
X0338694Y0926263D01*
X0338588Y0926395D01*
X0338486Y0926530D01*
X0338387Y0926667D01*
X0338291Y0926806D01*
X0338199Y0926948D01*
X0338110Y0927092D01*
X0338025Y0927238D01*
X0337944Y0927386D01*
X0337866Y0927536D01*
X0337792Y0927688D01*
X0337721Y0927842D01*
X0337654Y0927997D01*
X0337592Y0928154D01*
X0337533Y0928313D01*
X0337478Y0928473D01*
X0337427Y0928634D01*
X0337380Y0928796D01*
X0337336Y0928960D01*
X0337297Y0929124D01*
X0337262Y0929290D01*
X0337231Y0929456D01*
X0337205Y0929623D01*
X0337182Y0929791D01*
X0337163Y0929959D01*
X0337149Y0930127D01*
X0337138Y0930296D01*
X0337132Y0930465D01*
X0337130Y0930634D01*
X0388705Y0910161D02*
X0388709Y0910475D01*
X0388720Y0910789D01*
X0388740Y0911102D01*
X0388767Y0911415D01*
X0388801Y0911727D01*
X0388843Y0912038D01*
X0388893Y0912348D01*
X0388951Y0912657D01*
X0389016Y0912964D01*
X0389088Y0913270D01*
X0389168Y0913574D01*
X0389256Y0913875D01*
X0389351Y0914175D01*
X0389453Y0914472D01*
X0389562Y0914766D01*
X0389679Y0915057D01*
X0389803Y0915346D01*
X0389933Y0915632D01*
X0390071Y0915914D01*
X0390216Y0916193D01*
X0390367Y0916468D01*
X0390525Y0916739D01*
X0390690Y0917006D01*
X0390861Y0917270D01*
X0391039Y0917528D01*
X0391223Y0917783D01*
X0391413Y0918033D01*
X0391609Y0918278D01*
X0391812Y0918518D01*
X0392020Y0918754D01*
X0392233Y0918984D01*
X0392453Y0919208D01*
X0392677Y0919428D01*
X0392907Y0919641D01*
X0393143Y0919849D01*
X0393383Y0920052D01*
X0393628Y0920248D01*
X0393878Y0920438D01*
X0394133Y0920622D01*
X0394391Y0920800D01*
X0394655Y0920971D01*
X0394922Y0921136D01*
X0395193Y0921294D01*
X0395468Y0921445D01*
X0395747Y0921590D01*
X0396029Y0921728D01*
X0396315Y0921858D01*
X0396604Y0921982D01*
X0396895Y0922099D01*
X0397189Y0922208D01*
X0397486Y0922310D01*
X0397786Y0922405D01*
X0398087Y0922493D01*
X0398391Y0922573D01*
X0398697Y0922645D01*
X0399004Y0922710D01*
X0399313Y0922768D01*
X0399623Y0922818D01*
X0399934Y0922860D01*
X0400246Y0922894D01*
X0400559Y0922921D01*
X0400872Y0922941D01*
X0401186Y0922952D01*
X0401500Y0922956D01*
X0401814Y0922952D01*
X0402128Y0922941D01*
X0402441Y0922921D01*
X0402754Y0922894D01*
X0403066Y0922860D01*
X0403377Y0922818D01*
X0403687Y0922768D01*
X0403996Y0922710D01*
X0404303Y0922645D01*
X0404609Y0922573D01*
X0404913Y0922493D01*
X0405214Y0922405D01*
X0405514Y0922310D01*
X0405811Y0922208D01*
X0406105Y0922099D01*
X0406396Y0921982D01*
X0406685Y0921858D01*
X0406971Y0921728D01*
X0407253Y0921590D01*
X0407532Y0921445D01*
X0407807Y0921294D01*
X0408078Y0921136D01*
X0408345Y0920971D01*
X0408609Y0920800D01*
X0408867Y0920622D01*
X0409122Y0920438D01*
X0409372Y0920248D01*
X0409617Y0920052D01*
X0409857Y0919849D01*
X0410093Y0919641D01*
X0410323Y0919428D01*
X0410547Y0919208D01*
X0410767Y0918984D01*
X0410980Y0918754D01*
X0411188Y0918518D01*
X0411391Y0918278D01*
X0411587Y0918033D01*
X0411777Y0917783D01*
X0411961Y0917528D01*
X0412139Y0917270D01*
X0412310Y0917006D01*
X0412475Y0916739D01*
X0412633Y0916468D01*
X0412784Y0916193D01*
X0412929Y0915914D01*
X0413067Y0915632D01*
X0413197Y0915346D01*
X0413321Y0915057D01*
X0413438Y0914766D01*
X0413547Y0914472D01*
X0413649Y0914175D01*
X0413744Y0913875D01*
X0413832Y0913574D01*
X0413912Y0913270D01*
X0413984Y0912964D01*
X0414049Y0912657D01*
X0414107Y0912348D01*
X0414157Y0912038D01*
X0414199Y0911727D01*
X0414233Y0911415D01*
X0414260Y0911102D01*
X0414280Y0910789D01*
X0414291Y0910475D01*
X0414295Y0910161D01*
X0414291Y0909847D01*
X0414280Y0909533D01*
X0414260Y0909220D01*
X0414233Y0908907D01*
X0414199Y0908595D01*
X0414157Y0908284D01*
X0414107Y0907974D01*
X0414049Y0907665D01*
X0413984Y0907358D01*
X0413912Y0907052D01*
X0413832Y0906748D01*
X0413744Y0906447D01*
X0413649Y0906147D01*
X0413547Y0905850D01*
X0413438Y0905556D01*
X0413321Y0905265D01*
X0413197Y0904976D01*
X0413067Y0904690D01*
X0412929Y0904408D01*
X0412784Y0904129D01*
X0412633Y0903854D01*
X0412475Y0903583D01*
X0412310Y0903316D01*
X0412139Y0903052D01*
X0411961Y0902794D01*
X0411777Y0902539D01*
X0411587Y0902289D01*
X0411391Y0902044D01*
X0411188Y0901804D01*
X0410980Y0901568D01*
X0410767Y0901338D01*
X0410547Y0901114D01*
X0410323Y0900894D01*
X0410093Y0900681D01*
X0409857Y0900473D01*
X0409617Y0900270D01*
X0409372Y0900074D01*
X0409122Y0899884D01*
X0408867Y0899700D01*
X0408609Y0899522D01*
X0408345Y0899351D01*
X0408078Y0899186D01*
X0407807Y0899028D01*
X0407532Y0898877D01*
X0407253Y0898732D01*
X0406971Y0898594D01*
X0406685Y0898464D01*
X0406396Y0898340D01*
X0406105Y0898223D01*
X0405811Y0898114D01*
X0405514Y0898012D01*
X0405214Y0897917D01*
X0404913Y0897829D01*
X0404609Y0897749D01*
X0404303Y0897677D01*
X0403996Y0897612D01*
X0403687Y0897554D01*
X0403377Y0897504D01*
X0403066Y0897462D01*
X0402754Y0897428D01*
X0402441Y0897401D01*
X0402128Y0897381D01*
X0401814Y0897370D01*
X0401500Y0897366D01*
X0401186Y0897370D01*
X0400872Y0897381D01*
X0400559Y0897401D01*
X0400246Y0897428D01*
X0399934Y0897462D01*
X0399623Y0897504D01*
X0399313Y0897554D01*
X0399004Y0897612D01*
X0398697Y0897677D01*
X0398391Y0897749D01*
X0398087Y0897829D01*
X0397786Y0897917D01*
X0397486Y0898012D01*
X0397189Y0898114D01*
X0396895Y0898223D01*
X0396604Y0898340D01*
X0396315Y0898464D01*
X0396029Y0898594D01*
X0395747Y0898732D01*
X0395468Y0898877D01*
X0395193Y0899028D01*
X0394922Y0899186D01*
X0394655Y0899351D01*
X0394391Y0899522D01*
X0394133Y0899700D01*
X0393878Y0899884D01*
X0393628Y0900074D01*
X0393383Y0900270D01*
X0393143Y0900473D01*
X0392907Y0900681D01*
X0392677Y0900894D01*
X0392453Y0901114D01*
X0392233Y0901338D01*
X0392020Y0901568D01*
X0391812Y0901804D01*
X0391609Y0902044D01*
X0391413Y0902289D01*
X0391223Y0902539D01*
X0391039Y0902794D01*
X0390861Y0903052D01*
X0390690Y0903316D01*
X0390525Y0903583D01*
X0390367Y0903854D01*
X0390216Y0904129D01*
X0390071Y0904408D01*
X0389933Y0904690D01*
X0389803Y0904976D01*
X0389679Y0905265D01*
X0389562Y0905556D01*
X0389453Y0905850D01*
X0389351Y0906147D01*
X0389256Y0906447D01*
X0389168Y0906748D01*
X0389088Y0907052D01*
X0389016Y0907358D01*
X0388951Y0907665D01*
X0388893Y0907974D01*
X0388843Y0908284D01*
X0388801Y0908595D01*
X0388767Y0908907D01*
X0388740Y0909220D01*
X0388720Y0909533D01*
X0388709Y0909847D01*
X0388705Y0910161D01*
X0488705Y0910161D02*
X0488709Y0910475D01*
X0488720Y0910789D01*
X0488740Y0911102D01*
X0488767Y0911415D01*
X0488801Y0911727D01*
X0488843Y0912038D01*
X0488893Y0912348D01*
X0488951Y0912657D01*
X0489016Y0912964D01*
X0489088Y0913270D01*
X0489168Y0913574D01*
X0489256Y0913875D01*
X0489351Y0914175D01*
X0489453Y0914472D01*
X0489562Y0914766D01*
X0489679Y0915057D01*
X0489803Y0915346D01*
X0489933Y0915632D01*
X0490071Y0915914D01*
X0490216Y0916193D01*
X0490367Y0916468D01*
X0490525Y0916739D01*
X0490690Y0917006D01*
X0490861Y0917270D01*
X0491039Y0917528D01*
X0491223Y0917783D01*
X0491413Y0918033D01*
X0491609Y0918278D01*
X0491812Y0918518D01*
X0492020Y0918754D01*
X0492233Y0918984D01*
X0492453Y0919208D01*
X0492677Y0919428D01*
X0492907Y0919641D01*
X0493143Y0919849D01*
X0493383Y0920052D01*
X0493628Y0920248D01*
X0493878Y0920438D01*
X0494133Y0920622D01*
X0494391Y0920800D01*
X0494655Y0920971D01*
X0494922Y0921136D01*
X0495193Y0921294D01*
X0495468Y0921445D01*
X0495747Y0921590D01*
X0496029Y0921728D01*
X0496315Y0921858D01*
X0496604Y0921982D01*
X0496895Y0922099D01*
X0497189Y0922208D01*
X0497486Y0922310D01*
X0497786Y0922405D01*
X0498087Y0922493D01*
X0498391Y0922573D01*
X0498697Y0922645D01*
X0499004Y0922710D01*
X0499313Y0922768D01*
X0499623Y0922818D01*
X0499934Y0922860D01*
X0500246Y0922894D01*
X0500559Y0922921D01*
X0500872Y0922941D01*
X0501186Y0922952D01*
X0501500Y0922956D01*
X0501814Y0922952D01*
X0502128Y0922941D01*
X0502441Y0922921D01*
X0502754Y0922894D01*
X0503066Y0922860D01*
X0503377Y0922818D01*
X0503687Y0922768D01*
X0503996Y0922710D01*
X0504303Y0922645D01*
X0504609Y0922573D01*
X0504913Y0922493D01*
X0505214Y0922405D01*
X0505514Y0922310D01*
X0505811Y0922208D01*
X0506105Y0922099D01*
X0506396Y0921982D01*
X0506685Y0921858D01*
X0506971Y0921728D01*
X0507253Y0921590D01*
X0507532Y0921445D01*
X0507807Y0921294D01*
X0508078Y0921136D01*
X0508345Y0920971D01*
X0508609Y0920800D01*
X0508867Y0920622D01*
X0509122Y0920438D01*
X0509372Y0920248D01*
X0509617Y0920052D01*
X0509857Y0919849D01*
X0510093Y0919641D01*
X0510323Y0919428D01*
X0510547Y0919208D01*
X0510767Y0918984D01*
X0510980Y0918754D01*
X0511188Y0918518D01*
X0511391Y0918278D01*
X0511587Y0918033D01*
X0511777Y0917783D01*
X0511961Y0917528D01*
X0512139Y0917270D01*
X0512310Y0917006D01*
X0512475Y0916739D01*
X0512633Y0916468D01*
X0512784Y0916193D01*
X0512929Y0915914D01*
X0513067Y0915632D01*
X0513197Y0915346D01*
X0513321Y0915057D01*
X0513438Y0914766D01*
X0513547Y0914472D01*
X0513649Y0914175D01*
X0513744Y0913875D01*
X0513832Y0913574D01*
X0513912Y0913270D01*
X0513984Y0912964D01*
X0514049Y0912657D01*
X0514107Y0912348D01*
X0514157Y0912038D01*
X0514199Y0911727D01*
X0514233Y0911415D01*
X0514260Y0911102D01*
X0514280Y0910789D01*
X0514291Y0910475D01*
X0514295Y0910161D01*
X0514291Y0909847D01*
X0514280Y0909533D01*
X0514260Y0909220D01*
X0514233Y0908907D01*
X0514199Y0908595D01*
X0514157Y0908284D01*
X0514107Y0907974D01*
X0514049Y0907665D01*
X0513984Y0907358D01*
X0513912Y0907052D01*
X0513832Y0906748D01*
X0513744Y0906447D01*
X0513649Y0906147D01*
X0513547Y0905850D01*
X0513438Y0905556D01*
X0513321Y0905265D01*
X0513197Y0904976D01*
X0513067Y0904690D01*
X0512929Y0904408D01*
X0512784Y0904129D01*
X0512633Y0903854D01*
X0512475Y0903583D01*
X0512310Y0903316D01*
X0512139Y0903052D01*
X0511961Y0902794D01*
X0511777Y0902539D01*
X0511587Y0902289D01*
X0511391Y0902044D01*
X0511188Y0901804D01*
X0510980Y0901568D01*
X0510767Y0901338D01*
X0510547Y0901114D01*
X0510323Y0900894D01*
X0510093Y0900681D01*
X0509857Y0900473D01*
X0509617Y0900270D01*
X0509372Y0900074D01*
X0509122Y0899884D01*
X0508867Y0899700D01*
X0508609Y0899522D01*
X0508345Y0899351D01*
X0508078Y0899186D01*
X0507807Y0899028D01*
X0507532Y0898877D01*
X0507253Y0898732D01*
X0506971Y0898594D01*
X0506685Y0898464D01*
X0506396Y0898340D01*
X0506105Y0898223D01*
X0505811Y0898114D01*
X0505514Y0898012D01*
X0505214Y0897917D01*
X0504913Y0897829D01*
X0504609Y0897749D01*
X0504303Y0897677D01*
X0503996Y0897612D01*
X0503687Y0897554D01*
X0503377Y0897504D01*
X0503066Y0897462D01*
X0502754Y0897428D01*
X0502441Y0897401D01*
X0502128Y0897381D01*
X0501814Y0897370D01*
X0501500Y0897366D01*
X0501186Y0897370D01*
X0500872Y0897381D01*
X0500559Y0897401D01*
X0500246Y0897428D01*
X0499934Y0897462D01*
X0499623Y0897504D01*
X0499313Y0897554D01*
X0499004Y0897612D01*
X0498697Y0897677D01*
X0498391Y0897749D01*
X0498087Y0897829D01*
X0497786Y0897917D01*
X0497486Y0898012D01*
X0497189Y0898114D01*
X0496895Y0898223D01*
X0496604Y0898340D01*
X0496315Y0898464D01*
X0496029Y0898594D01*
X0495747Y0898732D01*
X0495468Y0898877D01*
X0495193Y0899028D01*
X0494922Y0899186D01*
X0494655Y0899351D01*
X0494391Y0899522D01*
X0494133Y0899700D01*
X0493878Y0899884D01*
X0493628Y0900074D01*
X0493383Y0900270D01*
X0493143Y0900473D01*
X0492907Y0900681D01*
X0492677Y0900894D01*
X0492453Y0901114D01*
X0492233Y0901338D01*
X0492020Y0901568D01*
X0491812Y0901804D01*
X0491609Y0902044D01*
X0491413Y0902289D01*
X0491223Y0902539D01*
X0491039Y0902794D01*
X0490861Y0903052D01*
X0490690Y0903316D01*
X0490525Y0903583D01*
X0490367Y0903854D01*
X0490216Y0904129D01*
X0490071Y0904408D01*
X0489933Y0904690D01*
X0489803Y0904976D01*
X0489679Y0905265D01*
X0489562Y0905556D01*
X0489453Y0905850D01*
X0489351Y0906147D01*
X0489256Y0906447D01*
X0489168Y0906748D01*
X0489088Y0907052D01*
X0489016Y0907358D01*
X0488951Y0907665D01*
X0488893Y0907974D01*
X0488843Y0908284D01*
X0488801Y0908595D01*
X0488767Y0908907D01*
X0488740Y0909220D01*
X0488720Y0909533D01*
X0488709Y0909847D01*
X0488705Y0910161D01*
X0533980Y0930634D02*
X0533982Y0930803D01*
X0533988Y0930972D01*
X0533999Y0931141D01*
X0534013Y0931309D01*
X0534032Y0931477D01*
X0534055Y0931645D01*
X0534081Y0931812D01*
X0534112Y0931978D01*
X0534147Y0932144D01*
X0534186Y0932308D01*
X0534230Y0932472D01*
X0534277Y0932634D01*
X0534328Y0932795D01*
X0534383Y0932955D01*
X0534442Y0933114D01*
X0534504Y0933271D01*
X0534571Y0933426D01*
X0534642Y0933580D01*
X0534716Y0933732D01*
X0534794Y0933882D01*
X0534875Y0934030D01*
X0534960Y0934176D01*
X0535049Y0934320D01*
X0535141Y0934462D01*
X0535237Y0934601D01*
X0535336Y0934738D01*
X0535438Y0934873D01*
X0535544Y0935005D01*
X0535653Y0935134D01*
X0535765Y0935261D01*
X0535880Y0935385D01*
X0535998Y0935506D01*
X0536119Y0935624D01*
X0536243Y0935739D01*
X0536370Y0935851D01*
X0536499Y0935960D01*
X0536631Y0936066D01*
X0536766Y0936168D01*
X0536903Y0936267D01*
X0537042Y0936363D01*
X0537184Y0936455D01*
X0537328Y0936544D01*
X0537474Y0936629D01*
X0537622Y0936710D01*
X0537772Y0936788D01*
X0537924Y0936862D01*
X0538078Y0936933D01*
X0538233Y0937000D01*
X0538390Y0937062D01*
X0538549Y0937121D01*
X0538709Y0937176D01*
X0538870Y0937227D01*
X0539032Y0937274D01*
X0539196Y0937318D01*
X0539360Y0937357D01*
X0539526Y0937392D01*
X0539692Y0937423D01*
X0539859Y0937449D01*
X0540027Y0937472D01*
X0540195Y0937491D01*
X0540363Y0937505D01*
X0540532Y0937516D01*
X0540701Y0937522D01*
X0540870Y0937524D01*
X0541039Y0937522D01*
X0541208Y0937516D01*
X0541377Y0937505D01*
X0541545Y0937491D01*
X0541713Y0937472D01*
X0541881Y0937449D01*
X0542048Y0937423D01*
X0542214Y0937392D01*
X0542380Y0937357D01*
X0542544Y0937318D01*
X0542708Y0937274D01*
X0542870Y0937227D01*
X0543031Y0937176D01*
X0543191Y0937121D01*
X0543350Y0937062D01*
X0543507Y0937000D01*
X0543662Y0936933D01*
X0543816Y0936862D01*
X0543968Y0936788D01*
X0544118Y0936710D01*
X0544266Y0936629D01*
X0544412Y0936544D01*
X0544556Y0936455D01*
X0544698Y0936363D01*
X0544837Y0936267D01*
X0544974Y0936168D01*
X0545109Y0936066D01*
X0545241Y0935960D01*
X0545370Y0935851D01*
X0545497Y0935739D01*
X0545621Y0935624D01*
X0545742Y0935506D01*
X0545860Y0935385D01*
X0545975Y0935261D01*
X0546087Y0935134D01*
X0546196Y0935005D01*
X0546302Y0934873D01*
X0546404Y0934738D01*
X0546503Y0934601D01*
X0546599Y0934462D01*
X0546691Y0934320D01*
X0546780Y0934176D01*
X0546865Y0934030D01*
X0546946Y0933882D01*
X0547024Y0933732D01*
X0547098Y0933580D01*
X0547169Y0933426D01*
X0547236Y0933271D01*
X0547298Y0933114D01*
X0547357Y0932955D01*
X0547412Y0932795D01*
X0547463Y0932634D01*
X0547510Y0932472D01*
X0547554Y0932308D01*
X0547593Y0932144D01*
X0547628Y0931978D01*
X0547659Y0931812D01*
X0547685Y0931645D01*
X0547708Y0931477D01*
X0547727Y0931309D01*
X0547741Y0931141D01*
X0547752Y0930972D01*
X0547758Y0930803D01*
X0547760Y0930634D01*
X0547758Y0930465D01*
X0547752Y0930296D01*
X0547741Y0930127D01*
X0547727Y0929959D01*
X0547708Y0929791D01*
X0547685Y0929623D01*
X0547659Y0929456D01*
X0547628Y0929290D01*
X0547593Y0929124D01*
X0547554Y0928960D01*
X0547510Y0928796D01*
X0547463Y0928634D01*
X0547412Y0928473D01*
X0547357Y0928313D01*
X0547298Y0928154D01*
X0547236Y0927997D01*
X0547169Y0927842D01*
X0547098Y0927688D01*
X0547024Y0927536D01*
X0546946Y0927386D01*
X0546865Y0927238D01*
X0546780Y0927092D01*
X0546691Y0926948D01*
X0546599Y0926806D01*
X0546503Y0926667D01*
X0546404Y0926530D01*
X0546302Y0926395D01*
X0546196Y0926263D01*
X0546087Y0926134D01*
X0545975Y0926007D01*
X0545860Y0925883D01*
X0545742Y0925762D01*
X0545621Y0925644D01*
X0545497Y0925529D01*
X0545370Y0925417D01*
X0545241Y0925308D01*
X0545109Y0925202D01*
X0544974Y0925100D01*
X0544837Y0925001D01*
X0544698Y0924905D01*
X0544556Y0924813D01*
X0544412Y0924724D01*
X0544266Y0924639D01*
X0544118Y0924558D01*
X0543968Y0924480D01*
X0543816Y0924406D01*
X0543662Y0924335D01*
X0543507Y0924268D01*
X0543350Y0924206D01*
X0543191Y0924147D01*
X0543031Y0924092D01*
X0542870Y0924041D01*
X0542708Y0923994D01*
X0542544Y0923950D01*
X0542380Y0923911D01*
X0542214Y0923876D01*
X0542048Y0923845D01*
X0541881Y0923819D01*
X0541713Y0923796D01*
X0541545Y0923777D01*
X0541377Y0923763D01*
X0541208Y0923752D01*
X0541039Y0923746D01*
X0540870Y0923744D01*
X0540701Y0923746D01*
X0540532Y0923752D01*
X0540363Y0923763D01*
X0540195Y0923777D01*
X0540027Y0923796D01*
X0539859Y0923819D01*
X0539692Y0923845D01*
X0539526Y0923876D01*
X0539360Y0923911D01*
X0539196Y0923950D01*
X0539032Y0923994D01*
X0538870Y0924041D01*
X0538709Y0924092D01*
X0538549Y0924147D01*
X0538390Y0924206D01*
X0538233Y0924268D01*
X0538078Y0924335D01*
X0537924Y0924406D01*
X0537772Y0924480D01*
X0537622Y0924558D01*
X0537474Y0924639D01*
X0537328Y0924724D01*
X0537184Y0924813D01*
X0537042Y0924905D01*
X0536903Y0925001D01*
X0536766Y0925100D01*
X0536631Y0925202D01*
X0536499Y0925308D01*
X0536370Y0925417D01*
X0536243Y0925529D01*
X0536119Y0925644D01*
X0535998Y0925762D01*
X0535880Y0925883D01*
X0535765Y0926007D01*
X0535653Y0926134D01*
X0535544Y0926263D01*
X0535438Y0926395D01*
X0535336Y0926530D01*
X0535237Y0926667D01*
X0535141Y0926806D01*
X0535049Y0926948D01*
X0534960Y0927092D01*
X0534875Y0927238D01*
X0534794Y0927386D01*
X0534716Y0927536D01*
X0534642Y0927688D01*
X0534571Y0927842D01*
X0534504Y0927997D01*
X0534442Y0928154D01*
X0534383Y0928313D01*
X0534328Y0928473D01*
X0534277Y0928634D01*
X0534230Y0928796D01*
X0534186Y0928960D01*
X0534147Y0929124D01*
X0534112Y0929290D01*
X0534081Y0929456D01*
X0534055Y0929623D01*
X0534032Y0929791D01*
X0534013Y0929959D01*
X0533999Y0930127D01*
X0533988Y0930296D01*
X0533982Y0930465D01*
X0533980Y0930634D01*
X0488705Y0710161D02*
X0488709Y0710475D01*
X0488720Y0710789D01*
X0488740Y0711102D01*
X0488767Y0711415D01*
X0488801Y0711727D01*
X0488843Y0712038D01*
X0488893Y0712348D01*
X0488951Y0712657D01*
X0489016Y0712964D01*
X0489088Y0713270D01*
X0489168Y0713574D01*
X0489256Y0713875D01*
X0489351Y0714175D01*
X0489453Y0714472D01*
X0489562Y0714766D01*
X0489679Y0715057D01*
X0489803Y0715346D01*
X0489933Y0715632D01*
X0490071Y0715914D01*
X0490216Y0716193D01*
X0490367Y0716468D01*
X0490525Y0716739D01*
X0490690Y0717006D01*
X0490861Y0717270D01*
X0491039Y0717528D01*
X0491223Y0717783D01*
X0491413Y0718033D01*
X0491609Y0718278D01*
X0491812Y0718518D01*
X0492020Y0718754D01*
X0492233Y0718984D01*
X0492453Y0719208D01*
X0492677Y0719428D01*
X0492907Y0719641D01*
X0493143Y0719849D01*
X0493383Y0720052D01*
X0493628Y0720248D01*
X0493878Y0720438D01*
X0494133Y0720622D01*
X0494391Y0720800D01*
X0494655Y0720971D01*
X0494922Y0721136D01*
X0495193Y0721294D01*
X0495468Y0721445D01*
X0495747Y0721590D01*
X0496029Y0721728D01*
X0496315Y0721858D01*
X0496604Y0721982D01*
X0496895Y0722099D01*
X0497189Y0722208D01*
X0497486Y0722310D01*
X0497786Y0722405D01*
X0498087Y0722493D01*
X0498391Y0722573D01*
X0498697Y0722645D01*
X0499004Y0722710D01*
X0499313Y0722768D01*
X0499623Y0722818D01*
X0499934Y0722860D01*
X0500246Y0722894D01*
X0500559Y0722921D01*
X0500872Y0722941D01*
X0501186Y0722952D01*
X0501500Y0722956D01*
X0501814Y0722952D01*
X0502128Y0722941D01*
X0502441Y0722921D01*
X0502754Y0722894D01*
X0503066Y0722860D01*
X0503377Y0722818D01*
X0503687Y0722768D01*
X0503996Y0722710D01*
X0504303Y0722645D01*
X0504609Y0722573D01*
X0504913Y0722493D01*
X0505214Y0722405D01*
X0505514Y0722310D01*
X0505811Y0722208D01*
X0506105Y0722099D01*
X0506396Y0721982D01*
X0506685Y0721858D01*
X0506971Y0721728D01*
X0507253Y0721590D01*
X0507532Y0721445D01*
X0507807Y0721294D01*
X0508078Y0721136D01*
X0508345Y0720971D01*
X0508609Y0720800D01*
X0508867Y0720622D01*
X0509122Y0720438D01*
X0509372Y0720248D01*
X0509617Y0720052D01*
X0509857Y0719849D01*
X0510093Y0719641D01*
X0510323Y0719428D01*
X0510547Y0719208D01*
X0510767Y0718984D01*
X0510980Y0718754D01*
X0511188Y0718518D01*
X0511391Y0718278D01*
X0511587Y0718033D01*
X0511777Y0717783D01*
X0511961Y0717528D01*
X0512139Y0717270D01*
X0512310Y0717006D01*
X0512475Y0716739D01*
X0512633Y0716468D01*
X0512784Y0716193D01*
X0512929Y0715914D01*
X0513067Y0715632D01*
X0513197Y0715346D01*
X0513321Y0715057D01*
X0513438Y0714766D01*
X0513547Y0714472D01*
X0513649Y0714175D01*
X0513744Y0713875D01*
X0513832Y0713574D01*
X0513912Y0713270D01*
X0513984Y0712964D01*
X0514049Y0712657D01*
X0514107Y0712348D01*
X0514157Y0712038D01*
X0514199Y0711727D01*
X0514233Y0711415D01*
X0514260Y0711102D01*
X0514280Y0710789D01*
X0514291Y0710475D01*
X0514295Y0710161D01*
X0514291Y0709847D01*
X0514280Y0709533D01*
X0514260Y0709220D01*
X0514233Y0708907D01*
X0514199Y0708595D01*
X0514157Y0708284D01*
X0514107Y0707974D01*
X0514049Y0707665D01*
X0513984Y0707358D01*
X0513912Y0707052D01*
X0513832Y0706748D01*
X0513744Y0706447D01*
X0513649Y0706147D01*
X0513547Y0705850D01*
X0513438Y0705556D01*
X0513321Y0705265D01*
X0513197Y0704976D01*
X0513067Y0704690D01*
X0512929Y0704408D01*
X0512784Y0704129D01*
X0512633Y0703854D01*
X0512475Y0703583D01*
X0512310Y0703316D01*
X0512139Y0703052D01*
X0511961Y0702794D01*
X0511777Y0702539D01*
X0511587Y0702289D01*
X0511391Y0702044D01*
X0511188Y0701804D01*
X0510980Y0701568D01*
X0510767Y0701338D01*
X0510547Y0701114D01*
X0510323Y0700894D01*
X0510093Y0700681D01*
X0509857Y0700473D01*
X0509617Y0700270D01*
X0509372Y0700074D01*
X0509122Y0699884D01*
X0508867Y0699700D01*
X0508609Y0699522D01*
X0508345Y0699351D01*
X0508078Y0699186D01*
X0507807Y0699028D01*
X0507532Y0698877D01*
X0507253Y0698732D01*
X0506971Y0698594D01*
X0506685Y0698464D01*
X0506396Y0698340D01*
X0506105Y0698223D01*
X0505811Y0698114D01*
X0505514Y0698012D01*
X0505214Y0697917D01*
X0504913Y0697829D01*
X0504609Y0697749D01*
X0504303Y0697677D01*
X0503996Y0697612D01*
X0503687Y0697554D01*
X0503377Y0697504D01*
X0503066Y0697462D01*
X0502754Y0697428D01*
X0502441Y0697401D01*
X0502128Y0697381D01*
X0501814Y0697370D01*
X0501500Y0697366D01*
X0501186Y0697370D01*
X0500872Y0697381D01*
X0500559Y0697401D01*
X0500246Y0697428D01*
X0499934Y0697462D01*
X0499623Y0697504D01*
X0499313Y0697554D01*
X0499004Y0697612D01*
X0498697Y0697677D01*
X0498391Y0697749D01*
X0498087Y0697829D01*
X0497786Y0697917D01*
X0497486Y0698012D01*
X0497189Y0698114D01*
X0496895Y0698223D01*
X0496604Y0698340D01*
X0496315Y0698464D01*
X0496029Y0698594D01*
X0495747Y0698732D01*
X0495468Y0698877D01*
X0495193Y0699028D01*
X0494922Y0699186D01*
X0494655Y0699351D01*
X0494391Y0699522D01*
X0494133Y0699700D01*
X0493878Y0699884D01*
X0493628Y0700074D01*
X0493383Y0700270D01*
X0493143Y0700473D01*
X0492907Y0700681D01*
X0492677Y0700894D01*
X0492453Y0701114D01*
X0492233Y0701338D01*
X0492020Y0701568D01*
X0491812Y0701804D01*
X0491609Y0702044D01*
X0491413Y0702289D01*
X0491223Y0702539D01*
X0491039Y0702794D01*
X0490861Y0703052D01*
X0490690Y0703316D01*
X0490525Y0703583D01*
X0490367Y0703854D01*
X0490216Y0704129D01*
X0490071Y0704408D01*
X0489933Y0704690D01*
X0489803Y0704976D01*
X0489679Y0705265D01*
X0489562Y0705556D01*
X0489453Y0705850D01*
X0489351Y0706147D01*
X0489256Y0706447D01*
X0489168Y0706748D01*
X0489088Y0707052D01*
X0489016Y0707358D01*
X0488951Y0707665D01*
X0488893Y0707974D01*
X0488843Y0708284D01*
X0488801Y0708595D01*
X0488767Y0708907D01*
X0488740Y0709220D01*
X0488720Y0709533D01*
X0488709Y0709847D01*
X0488705Y0710161D01*
X0533980Y0592051D02*
X0533982Y0592220D01*
X0533988Y0592389D01*
X0533999Y0592558D01*
X0534013Y0592726D01*
X0534032Y0592894D01*
X0534055Y0593062D01*
X0534081Y0593229D01*
X0534112Y0593395D01*
X0534147Y0593561D01*
X0534186Y0593725D01*
X0534230Y0593889D01*
X0534277Y0594051D01*
X0534328Y0594212D01*
X0534383Y0594372D01*
X0534442Y0594531D01*
X0534504Y0594688D01*
X0534571Y0594843D01*
X0534642Y0594997D01*
X0534716Y0595149D01*
X0534794Y0595299D01*
X0534875Y0595447D01*
X0534960Y0595593D01*
X0535049Y0595737D01*
X0535141Y0595879D01*
X0535237Y0596018D01*
X0535336Y0596155D01*
X0535438Y0596290D01*
X0535544Y0596422D01*
X0535653Y0596551D01*
X0535765Y0596678D01*
X0535880Y0596802D01*
X0535998Y0596923D01*
X0536119Y0597041D01*
X0536243Y0597156D01*
X0536370Y0597268D01*
X0536499Y0597377D01*
X0536631Y0597483D01*
X0536766Y0597585D01*
X0536903Y0597684D01*
X0537042Y0597780D01*
X0537184Y0597872D01*
X0537328Y0597961D01*
X0537474Y0598046D01*
X0537622Y0598127D01*
X0537772Y0598205D01*
X0537924Y0598279D01*
X0538078Y0598350D01*
X0538233Y0598417D01*
X0538390Y0598479D01*
X0538549Y0598538D01*
X0538709Y0598593D01*
X0538870Y0598644D01*
X0539032Y0598691D01*
X0539196Y0598735D01*
X0539360Y0598774D01*
X0539526Y0598809D01*
X0539692Y0598840D01*
X0539859Y0598866D01*
X0540027Y0598889D01*
X0540195Y0598908D01*
X0540363Y0598922D01*
X0540532Y0598933D01*
X0540701Y0598939D01*
X0540870Y0598941D01*
X0541039Y0598939D01*
X0541208Y0598933D01*
X0541377Y0598922D01*
X0541545Y0598908D01*
X0541713Y0598889D01*
X0541881Y0598866D01*
X0542048Y0598840D01*
X0542214Y0598809D01*
X0542380Y0598774D01*
X0542544Y0598735D01*
X0542708Y0598691D01*
X0542870Y0598644D01*
X0543031Y0598593D01*
X0543191Y0598538D01*
X0543350Y0598479D01*
X0543507Y0598417D01*
X0543662Y0598350D01*
X0543816Y0598279D01*
X0543968Y0598205D01*
X0544118Y0598127D01*
X0544266Y0598046D01*
X0544412Y0597961D01*
X0544556Y0597872D01*
X0544698Y0597780D01*
X0544837Y0597684D01*
X0544974Y0597585D01*
X0545109Y0597483D01*
X0545241Y0597377D01*
X0545370Y0597268D01*
X0545497Y0597156D01*
X0545621Y0597041D01*
X0545742Y0596923D01*
X0545860Y0596802D01*
X0545975Y0596678D01*
X0546087Y0596551D01*
X0546196Y0596422D01*
X0546302Y0596290D01*
X0546404Y0596155D01*
X0546503Y0596018D01*
X0546599Y0595879D01*
X0546691Y0595737D01*
X0546780Y0595593D01*
X0546865Y0595447D01*
X0546946Y0595299D01*
X0547024Y0595149D01*
X0547098Y0594997D01*
X0547169Y0594843D01*
X0547236Y0594688D01*
X0547298Y0594531D01*
X0547357Y0594372D01*
X0547412Y0594212D01*
X0547463Y0594051D01*
X0547510Y0593889D01*
X0547554Y0593725D01*
X0547593Y0593561D01*
X0547628Y0593395D01*
X0547659Y0593229D01*
X0547685Y0593062D01*
X0547708Y0592894D01*
X0547727Y0592726D01*
X0547741Y0592558D01*
X0547752Y0592389D01*
X0547758Y0592220D01*
X0547760Y0592051D01*
X0547758Y0591882D01*
X0547752Y0591713D01*
X0547741Y0591544D01*
X0547727Y0591376D01*
X0547708Y0591208D01*
X0547685Y0591040D01*
X0547659Y0590873D01*
X0547628Y0590707D01*
X0547593Y0590541D01*
X0547554Y0590377D01*
X0547510Y0590213D01*
X0547463Y0590051D01*
X0547412Y0589890D01*
X0547357Y0589730D01*
X0547298Y0589571D01*
X0547236Y0589414D01*
X0547169Y0589259D01*
X0547098Y0589105D01*
X0547024Y0588953D01*
X0546946Y0588803D01*
X0546865Y0588655D01*
X0546780Y0588509D01*
X0546691Y0588365D01*
X0546599Y0588223D01*
X0546503Y0588084D01*
X0546404Y0587947D01*
X0546302Y0587812D01*
X0546196Y0587680D01*
X0546087Y0587551D01*
X0545975Y0587424D01*
X0545860Y0587300D01*
X0545742Y0587179D01*
X0545621Y0587061D01*
X0545497Y0586946D01*
X0545370Y0586834D01*
X0545241Y0586725D01*
X0545109Y0586619D01*
X0544974Y0586517D01*
X0544837Y0586418D01*
X0544698Y0586322D01*
X0544556Y0586230D01*
X0544412Y0586141D01*
X0544266Y0586056D01*
X0544118Y0585975D01*
X0543968Y0585897D01*
X0543816Y0585823D01*
X0543662Y0585752D01*
X0543507Y0585685D01*
X0543350Y0585623D01*
X0543191Y0585564D01*
X0543031Y0585509D01*
X0542870Y0585458D01*
X0542708Y0585411D01*
X0542544Y0585367D01*
X0542380Y0585328D01*
X0542214Y0585293D01*
X0542048Y0585262D01*
X0541881Y0585236D01*
X0541713Y0585213D01*
X0541545Y0585194D01*
X0541377Y0585180D01*
X0541208Y0585169D01*
X0541039Y0585163D01*
X0540870Y0585161D01*
X0540701Y0585163D01*
X0540532Y0585169D01*
X0540363Y0585180D01*
X0540195Y0585194D01*
X0540027Y0585213D01*
X0539859Y0585236D01*
X0539692Y0585262D01*
X0539526Y0585293D01*
X0539360Y0585328D01*
X0539196Y0585367D01*
X0539032Y0585411D01*
X0538870Y0585458D01*
X0538709Y0585509D01*
X0538549Y0585564D01*
X0538390Y0585623D01*
X0538233Y0585685D01*
X0538078Y0585752D01*
X0537924Y0585823D01*
X0537772Y0585897D01*
X0537622Y0585975D01*
X0537474Y0586056D01*
X0537328Y0586141D01*
X0537184Y0586230D01*
X0537042Y0586322D01*
X0536903Y0586418D01*
X0536766Y0586517D01*
X0536631Y0586619D01*
X0536499Y0586725D01*
X0536370Y0586834D01*
X0536243Y0586946D01*
X0536119Y0587061D01*
X0535998Y0587179D01*
X0535880Y0587300D01*
X0535765Y0587424D01*
X0535653Y0587551D01*
X0535544Y0587680D01*
X0535438Y0587812D01*
X0535336Y0587947D01*
X0535237Y0588084D01*
X0535141Y0588223D01*
X0535049Y0588365D01*
X0534960Y0588509D01*
X0534875Y0588655D01*
X0534794Y0588803D01*
X0534716Y0588953D01*
X0534642Y0589105D01*
X0534571Y0589259D01*
X0534504Y0589414D01*
X0534442Y0589571D01*
X0534383Y0589730D01*
X0534328Y0589890D01*
X0534277Y0590051D01*
X0534230Y0590213D01*
X0534186Y0590377D01*
X0534147Y0590541D01*
X0534112Y0590707D01*
X0534081Y0590873D01*
X0534055Y0591040D01*
X0534032Y0591208D01*
X0534013Y0591376D01*
X0533999Y0591544D01*
X0533988Y0591713D01*
X0533982Y0591882D01*
X0533980Y0592051D01*
X0533980Y0395201D02*
X0533982Y0395370D01*
X0533988Y0395539D01*
X0533999Y0395708D01*
X0534013Y0395876D01*
X0534032Y0396044D01*
X0534055Y0396212D01*
X0534081Y0396379D01*
X0534112Y0396545D01*
X0534147Y0396711D01*
X0534186Y0396875D01*
X0534230Y0397039D01*
X0534277Y0397201D01*
X0534328Y0397362D01*
X0534383Y0397522D01*
X0534442Y0397681D01*
X0534504Y0397838D01*
X0534571Y0397993D01*
X0534642Y0398147D01*
X0534716Y0398299D01*
X0534794Y0398449D01*
X0534875Y0398597D01*
X0534960Y0398743D01*
X0535049Y0398887D01*
X0535141Y0399029D01*
X0535237Y0399168D01*
X0535336Y0399305D01*
X0535438Y0399440D01*
X0535544Y0399572D01*
X0535653Y0399701D01*
X0535765Y0399828D01*
X0535880Y0399952D01*
X0535998Y0400073D01*
X0536119Y0400191D01*
X0536243Y0400306D01*
X0536370Y0400418D01*
X0536499Y0400527D01*
X0536631Y0400633D01*
X0536766Y0400735D01*
X0536903Y0400834D01*
X0537042Y0400930D01*
X0537184Y0401022D01*
X0537328Y0401111D01*
X0537474Y0401196D01*
X0537622Y0401277D01*
X0537772Y0401355D01*
X0537924Y0401429D01*
X0538078Y0401500D01*
X0538233Y0401567D01*
X0538390Y0401629D01*
X0538549Y0401688D01*
X0538709Y0401743D01*
X0538870Y0401794D01*
X0539032Y0401841D01*
X0539196Y0401885D01*
X0539360Y0401924D01*
X0539526Y0401959D01*
X0539692Y0401990D01*
X0539859Y0402016D01*
X0540027Y0402039D01*
X0540195Y0402058D01*
X0540363Y0402072D01*
X0540532Y0402083D01*
X0540701Y0402089D01*
X0540870Y0402091D01*
X0541039Y0402089D01*
X0541208Y0402083D01*
X0541377Y0402072D01*
X0541545Y0402058D01*
X0541713Y0402039D01*
X0541881Y0402016D01*
X0542048Y0401990D01*
X0542214Y0401959D01*
X0542380Y0401924D01*
X0542544Y0401885D01*
X0542708Y0401841D01*
X0542870Y0401794D01*
X0543031Y0401743D01*
X0543191Y0401688D01*
X0543350Y0401629D01*
X0543507Y0401567D01*
X0543662Y0401500D01*
X0543816Y0401429D01*
X0543968Y0401355D01*
X0544118Y0401277D01*
X0544266Y0401196D01*
X0544412Y0401111D01*
X0544556Y0401022D01*
X0544698Y0400930D01*
X0544837Y0400834D01*
X0544974Y0400735D01*
X0545109Y0400633D01*
X0545241Y0400527D01*
X0545370Y0400418D01*
X0545497Y0400306D01*
X0545621Y0400191D01*
X0545742Y0400073D01*
X0545860Y0399952D01*
X0545975Y0399828D01*
X0546087Y0399701D01*
X0546196Y0399572D01*
X0546302Y0399440D01*
X0546404Y0399305D01*
X0546503Y0399168D01*
X0546599Y0399029D01*
X0546691Y0398887D01*
X0546780Y0398743D01*
X0546865Y0398597D01*
X0546946Y0398449D01*
X0547024Y0398299D01*
X0547098Y0398147D01*
X0547169Y0397993D01*
X0547236Y0397838D01*
X0547298Y0397681D01*
X0547357Y0397522D01*
X0547412Y0397362D01*
X0547463Y0397201D01*
X0547510Y0397039D01*
X0547554Y0396875D01*
X0547593Y0396711D01*
X0547628Y0396545D01*
X0547659Y0396379D01*
X0547685Y0396212D01*
X0547708Y0396044D01*
X0547727Y0395876D01*
X0547741Y0395708D01*
X0547752Y0395539D01*
X0547758Y0395370D01*
X0547760Y0395201D01*
X0547758Y0395032D01*
X0547752Y0394863D01*
X0547741Y0394694D01*
X0547727Y0394526D01*
X0547708Y0394358D01*
X0547685Y0394190D01*
X0547659Y0394023D01*
X0547628Y0393857D01*
X0547593Y0393691D01*
X0547554Y0393527D01*
X0547510Y0393363D01*
X0547463Y0393201D01*
X0547412Y0393040D01*
X0547357Y0392880D01*
X0547298Y0392721D01*
X0547236Y0392564D01*
X0547169Y0392409D01*
X0547098Y0392255D01*
X0547024Y0392103D01*
X0546946Y0391953D01*
X0546865Y0391805D01*
X0546780Y0391659D01*
X0546691Y0391515D01*
X0546599Y0391373D01*
X0546503Y0391234D01*
X0546404Y0391097D01*
X0546302Y0390962D01*
X0546196Y0390830D01*
X0546087Y0390701D01*
X0545975Y0390574D01*
X0545860Y0390450D01*
X0545742Y0390329D01*
X0545621Y0390211D01*
X0545497Y0390096D01*
X0545370Y0389984D01*
X0545241Y0389875D01*
X0545109Y0389769D01*
X0544974Y0389667D01*
X0544837Y0389568D01*
X0544698Y0389472D01*
X0544556Y0389380D01*
X0544412Y0389291D01*
X0544266Y0389206D01*
X0544118Y0389125D01*
X0543968Y0389047D01*
X0543816Y0388973D01*
X0543662Y0388902D01*
X0543507Y0388835D01*
X0543350Y0388773D01*
X0543191Y0388714D01*
X0543031Y0388659D01*
X0542870Y0388608D01*
X0542708Y0388561D01*
X0542544Y0388517D01*
X0542380Y0388478D01*
X0542214Y0388443D01*
X0542048Y0388412D01*
X0541881Y0388386D01*
X0541713Y0388363D01*
X0541545Y0388344D01*
X0541377Y0388330D01*
X0541208Y0388319D01*
X0541039Y0388313D01*
X0540870Y0388311D01*
X0540701Y0388313D01*
X0540532Y0388319D01*
X0540363Y0388330D01*
X0540195Y0388344D01*
X0540027Y0388363D01*
X0539859Y0388386D01*
X0539692Y0388412D01*
X0539526Y0388443D01*
X0539360Y0388478D01*
X0539196Y0388517D01*
X0539032Y0388561D01*
X0538870Y0388608D01*
X0538709Y0388659D01*
X0538549Y0388714D01*
X0538390Y0388773D01*
X0538233Y0388835D01*
X0538078Y0388902D01*
X0537924Y0388973D01*
X0537772Y0389047D01*
X0537622Y0389125D01*
X0537474Y0389206D01*
X0537328Y0389291D01*
X0537184Y0389380D01*
X0537042Y0389472D01*
X0536903Y0389568D01*
X0536766Y0389667D01*
X0536631Y0389769D01*
X0536499Y0389875D01*
X0536370Y0389984D01*
X0536243Y0390096D01*
X0536119Y0390211D01*
X0535998Y0390329D01*
X0535880Y0390450D01*
X0535765Y0390574D01*
X0535653Y0390701D01*
X0535544Y0390830D01*
X0535438Y0390962D01*
X0535336Y0391097D01*
X0535237Y0391234D01*
X0535141Y0391373D01*
X0535049Y0391515D01*
X0534960Y0391659D01*
X0534875Y0391805D01*
X0534794Y0391953D01*
X0534716Y0392103D01*
X0534642Y0392255D01*
X0534571Y0392409D01*
X0534504Y0392564D01*
X0534442Y0392721D01*
X0534383Y0392880D01*
X0534328Y0393040D01*
X0534277Y0393201D01*
X0534230Y0393363D01*
X0534186Y0393527D01*
X0534147Y0393691D01*
X0534112Y0393857D01*
X0534081Y0394023D01*
X0534055Y0394190D01*
X0534032Y0394358D01*
X0534013Y0394526D01*
X0533999Y0394694D01*
X0533988Y0394863D01*
X0533982Y0395032D01*
X0533980Y0395201D01*
X0429650Y0277091D02*
X0429654Y0277405D01*
X0429665Y0277719D01*
X0429685Y0278032D01*
X0429712Y0278345D01*
X0429746Y0278657D01*
X0429788Y0278968D01*
X0429838Y0279278D01*
X0429896Y0279587D01*
X0429961Y0279894D01*
X0430033Y0280200D01*
X0430113Y0280504D01*
X0430201Y0280805D01*
X0430296Y0281105D01*
X0430398Y0281402D01*
X0430507Y0281696D01*
X0430624Y0281987D01*
X0430748Y0282276D01*
X0430878Y0282562D01*
X0431016Y0282844D01*
X0431161Y0283123D01*
X0431312Y0283398D01*
X0431470Y0283669D01*
X0431635Y0283936D01*
X0431806Y0284200D01*
X0431984Y0284458D01*
X0432168Y0284713D01*
X0432358Y0284963D01*
X0432554Y0285208D01*
X0432757Y0285448D01*
X0432965Y0285684D01*
X0433178Y0285914D01*
X0433398Y0286138D01*
X0433622Y0286358D01*
X0433852Y0286571D01*
X0434088Y0286779D01*
X0434328Y0286982D01*
X0434573Y0287178D01*
X0434823Y0287368D01*
X0435078Y0287552D01*
X0435336Y0287730D01*
X0435600Y0287901D01*
X0435867Y0288066D01*
X0436138Y0288224D01*
X0436413Y0288375D01*
X0436692Y0288520D01*
X0436974Y0288658D01*
X0437260Y0288788D01*
X0437549Y0288912D01*
X0437840Y0289029D01*
X0438134Y0289138D01*
X0438431Y0289240D01*
X0438731Y0289335D01*
X0439032Y0289423D01*
X0439336Y0289503D01*
X0439642Y0289575D01*
X0439949Y0289640D01*
X0440258Y0289698D01*
X0440568Y0289748D01*
X0440879Y0289790D01*
X0441191Y0289824D01*
X0441504Y0289851D01*
X0441817Y0289871D01*
X0442131Y0289882D01*
X0442445Y0289886D01*
X0442759Y0289882D01*
X0443073Y0289871D01*
X0443386Y0289851D01*
X0443699Y0289824D01*
X0444011Y0289790D01*
X0444322Y0289748D01*
X0444632Y0289698D01*
X0444941Y0289640D01*
X0445248Y0289575D01*
X0445554Y0289503D01*
X0445858Y0289423D01*
X0446159Y0289335D01*
X0446459Y0289240D01*
X0446756Y0289138D01*
X0447050Y0289029D01*
X0447341Y0288912D01*
X0447630Y0288788D01*
X0447916Y0288658D01*
X0448198Y0288520D01*
X0448477Y0288375D01*
X0448752Y0288224D01*
X0449023Y0288066D01*
X0449290Y0287901D01*
X0449554Y0287730D01*
X0449812Y0287552D01*
X0450067Y0287368D01*
X0450317Y0287178D01*
X0450562Y0286982D01*
X0450802Y0286779D01*
X0451038Y0286571D01*
X0451268Y0286358D01*
X0451492Y0286138D01*
X0451712Y0285914D01*
X0451925Y0285684D01*
X0452133Y0285448D01*
X0452336Y0285208D01*
X0452532Y0284963D01*
X0452722Y0284713D01*
X0452906Y0284458D01*
X0453084Y0284200D01*
X0453255Y0283936D01*
X0453420Y0283669D01*
X0453578Y0283398D01*
X0453729Y0283123D01*
X0453874Y0282844D01*
X0454012Y0282562D01*
X0454142Y0282276D01*
X0454266Y0281987D01*
X0454383Y0281696D01*
X0454492Y0281402D01*
X0454594Y0281105D01*
X0454689Y0280805D01*
X0454777Y0280504D01*
X0454857Y0280200D01*
X0454929Y0279894D01*
X0454994Y0279587D01*
X0455052Y0279278D01*
X0455102Y0278968D01*
X0455144Y0278657D01*
X0455178Y0278345D01*
X0455205Y0278032D01*
X0455225Y0277719D01*
X0455236Y0277405D01*
X0455240Y0277091D01*
X0455236Y0276777D01*
X0455225Y0276463D01*
X0455205Y0276150D01*
X0455178Y0275837D01*
X0455144Y0275525D01*
X0455102Y0275214D01*
X0455052Y0274904D01*
X0454994Y0274595D01*
X0454929Y0274288D01*
X0454857Y0273982D01*
X0454777Y0273678D01*
X0454689Y0273377D01*
X0454594Y0273077D01*
X0454492Y0272780D01*
X0454383Y0272486D01*
X0454266Y0272195D01*
X0454142Y0271906D01*
X0454012Y0271620D01*
X0453874Y0271338D01*
X0453729Y0271059D01*
X0453578Y0270784D01*
X0453420Y0270513D01*
X0453255Y0270246D01*
X0453084Y0269982D01*
X0452906Y0269724D01*
X0452722Y0269469D01*
X0452532Y0269219D01*
X0452336Y0268974D01*
X0452133Y0268734D01*
X0451925Y0268498D01*
X0451712Y0268268D01*
X0451492Y0268044D01*
X0451268Y0267824D01*
X0451038Y0267611D01*
X0450802Y0267403D01*
X0450562Y0267200D01*
X0450317Y0267004D01*
X0450067Y0266814D01*
X0449812Y0266630D01*
X0449554Y0266452D01*
X0449290Y0266281D01*
X0449023Y0266116D01*
X0448752Y0265958D01*
X0448477Y0265807D01*
X0448198Y0265662D01*
X0447916Y0265524D01*
X0447630Y0265394D01*
X0447341Y0265270D01*
X0447050Y0265153D01*
X0446756Y0265044D01*
X0446459Y0264942D01*
X0446159Y0264847D01*
X0445858Y0264759D01*
X0445554Y0264679D01*
X0445248Y0264607D01*
X0444941Y0264542D01*
X0444632Y0264484D01*
X0444322Y0264434D01*
X0444011Y0264392D01*
X0443699Y0264358D01*
X0443386Y0264331D01*
X0443073Y0264311D01*
X0442759Y0264300D01*
X0442445Y0264296D01*
X0442131Y0264300D01*
X0441817Y0264311D01*
X0441504Y0264331D01*
X0441191Y0264358D01*
X0440879Y0264392D01*
X0440568Y0264434D01*
X0440258Y0264484D01*
X0439949Y0264542D01*
X0439642Y0264607D01*
X0439336Y0264679D01*
X0439032Y0264759D01*
X0438731Y0264847D01*
X0438431Y0264942D01*
X0438134Y0265044D01*
X0437840Y0265153D01*
X0437549Y0265270D01*
X0437260Y0265394D01*
X0436974Y0265524D01*
X0436692Y0265662D01*
X0436413Y0265807D01*
X0436138Y0265958D01*
X0435867Y0266116D01*
X0435600Y0266281D01*
X0435336Y0266452D01*
X0435078Y0266630D01*
X0434823Y0266814D01*
X0434573Y0267004D01*
X0434328Y0267200D01*
X0434088Y0267403D01*
X0433852Y0267611D01*
X0433622Y0267824D01*
X0433398Y0268044D01*
X0433178Y0268268D01*
X0432965Y0268498D01*
X0432757Y0268734D01*
X0432554Y0268974D01*
X0432358Y0269219D01*
X0432168Y0269469D01*
X0431984Y0269724D01*
X0431806Y0269982D01*
X0431635Y0270246D01*
X0431470Y0270513D01*
X0431312Y0270784D01*
X0431161Y0271059D01*
X0431016Y0271338D01*
X0430878Y0271620D01*
X0430748Y0271906D01*
X0430624Y0272195D01*
X0430507Y0272486D01*
X0430398Y0272780D01*
X0430296Y0273077D01*
X0430201Y0273377D01*
X0430113Y0273678D01*
X0430033Y0273982D01*
X0429961Y0274288D01*
X0429896Y0274595D01*
X0429838Y0274904D01*
X0429788Y0275214D01*
X0429746Y0275525D01*
X0429712Y0275837D01*
X0429685Y0276150D01*
X0429665Y0276463D01*
X0429654Y0276777D01*
X0429650Y0277091D01*
X0329650Y0277091D02*
X0329654Y0277405D01*
X0329665Y0277719D01*
X0329685Y0278032D01*
X0329712Y0278345D01*
X0329746Y0278657D01*
X0329788Y0278968D01*
X0329838Y0279278D01*
X0329896Y0279587D01*
X0329961Y0279894D01*
X0330033Y0280200D01*
X0330113Y0280504D01*
X0330201Y0280805D01*
X0330296Y0281105D01*
X0330398Y0281402D01*
X0330507Y0281696D01*
X0330624Y0281987D01*
X0330748Y0282276D01*
X0330878Y0282562D01*
X0331016Y0282844D01*
X0331161Y0283123D01*
X0331312Y0283398D01*
X0331470Y0283669D01*
X0331635Y0283936D01*
X0331806Y0284200D01*
X0331984Y0284458D01*
X0332168Y0284713D01*
X0332358Y0284963D01*
X0332554Y0285208D01*
X0332757Y0285448D01*
X0332965Y0285684D01*
X0333178Y0285914D01*
X0333398Y0286138D01*
X0333622Y0286358D01*
X0333852Y0286571D01*
X0334088Y0286779D01*
X0334328Y0286982D01*
X0334573Y0287178D01*
X0334823Y0287368D01*
X0335078Y0287552D01*
X0335336Y0287730D01*
X0335600Y0287901D01*
X0335867Y0288066D01*
X0336138Y0288224D01*
X0336413Y0288375D01*
X0336692Y0288520D01*
X0336974Y0288658D01*
X0337260Y0288788D01*
X0337549Y0288912D01*
X0337840Y0289029D01*
X0338134Y0289138D01*
X0338431Y0289240D01*
X0338731Y0289335D01*
X0339032Y0289423D01*
X0339336Y0289503D01*
X0339642Y0289575D01*
X0339949Y0289640D01*
X0340258Y0289698D01*
X0340568Y0289748D01*
X0340879Y0289790D01*
X0341191Y0289824D01*
X0341504Y0289851D01*
X0341817Y0289871D01*
X0342131Y0289882D01*
X0342445Y0289886D01*
X0342759Y0289882D01*
X0343073Y0289871D01*
X0343386Y0289851D01*
X0343699Y0289824D01*
X0344011Y0289790D01*
X0344322Y0289748D01*
X0344632Y0289698D01*
X0344941Y0289640D01*
X0345248Y0289575D01*
X0345554Y0289503D01*
X0345858Y0289423D01*
X0346159Y0289335D01*
X0346459Y0289240D01*
X0346756Y0289138D01*
X0347050Y0289029D01*
X0347341Y0288912D01*
X0347630Y0288788D01*
X0347916Y0288658D01*
X0348198Y0288520D01*
X0348477Y0288375D01*
X0348752Y0288224D01*
X0349023Y0288066D01*
X0349290Y0287901D01*
X0349554Y0287730D01*
X0349812Y0287552D01*
X0350067Y0287368D01*
X0350317Y0287178D01*
X0350562Y0286982D01*
X0350802Y0286779D01*
X0351038Y0286571D01*
X0351268Y0286358D01*
X0351492Y0286138D01*
X0351712Y0285914D01*
X0351925Y0285684D01*
X0352133Y0285448D01*
X0352336Y0285208D01*
X0352532Y0284963D01*
X0352722Y0284713D01*
X0352906Y0284458D01*
X0353084Y0284200D01*
X0353255Y0283936D01*
X0353420Y0283669D01*
X0353578Y0283398D01*
X0353729Y0283123D01*
X0353874Y0282844D01*
X0354012Y0282562D01*
X0354142Y0282276D01*
X0354266Y0281987D01*
X0354383Y0281696D01*
X0354492Y0281402D01*
X0354594Y0281105D01*
X0354689Y0280805D01*
X0354777Y0280504D01*
X0354857Y0280200D01*
X0354929Y0279894D01*
X0354994Y0279587D01*
X0355052Y0279278D01*
X0355102Y0278968D01*
X0355144Y0278657D01*
X0355178Y0278345D01*
X0355205Y0278032D01*
X0355225Y0277719D01*
X0355236Y0277405D01*
X0355240Y0277091D01*
X0355236Y0276777D01*
X0355225Y0276463D01*
X0355205Y0276150D01*
X0355178Y0275837D01*
X0355144Y0275525D01*
X0355102Y0275214D01*
X0355052Y0274904D01*
X0354994Y0274595D01*
X0354929Y0274288D01*
X0354857Y0273982D01*
X0354777Y0273678D01*
X0354689Y0273377D01*
X0354594Y0273077D01*
X0354492Y0272780D01*
X0354383Y0272486D01*
X0354266Y0272195D01*
X0354142Y0271906D01*
X0354012Y0271620D01*
X0353874Y0271338D01*
X0353729Y0271059D01*
X0353578Y0270784D01*
X0353420Y0270513D01*
X0353255Y0270246D01*
X0353084Y0269982D01*
X0352906Y0269724D01*
X0352722Y0269469D01*
X0352532Y0269219D01*
X0352336Y0268974D01*
X0352133Y0268734D01*
X0351925Y0268498D01*
X0351712Y0268268D01*
X0351492Y0268044D01*
X0351268Y0267824D01*
X0351038Y0267611D01*
X0350802Y0267403D01*
X0350562Y0267200D01*
X0350317Y0267004D01*
X0350067Y0266814D01*
X0349812Y0266630D01*
X0349554Y0266452D01*
X0349290Y0266281D01*
X0349023Y0266116D01*
X0348752Y0265958D01*
X0348477Y0265807D01*
X0348198Y0265662D01*
X0347916Y0265524D01*
X0347630Y0265394D01*
X0347341Y0265270D01*
X0347050Y0265153D01*
X0346756Y0265044D01*
X0346459Y0264942D01*
X0346159Y0264847D01*
X0345858Y0264759D01*
X0345554Y0264679D01*
X0345248Y0264607D01*
X0344941Y0264542D01*
X0344632Y0264484D01*
X0344322Y0264434D01*
X0344011Y0264392D01*
X0343699Y0264358D01*
X0343386Y0264331D01*
X0343073Y0264311D01*
X0342759Y0264300D01*
X0342445Y0264296D01*
X0342131Y0264300D01*
X0341817Y0264311D01*
X0341504Y0264331D01*
X0341191Y0264358D01*
X0340879Y0264392D01*
X0340568Y0264434D01*
X0340258Y0264484D01*
X0339949Y0264542D01*
X0339642Y0264607D01*
X0339336Y0264679D01*
X0339032Y0264759D01*
X0338731Y0264847D01*
X0338431Y0264942D01*
X0338134Y0265044D01*
X0337840Y0265153D01*
X0337549Y0265270D01*
X0337260Y0265394D01*
X0336974Y0265524D01*
X0336692Y0265662D01*
X0336413Y0265807D01*
X0336138Y0265958D01*
X0335867Y0266116D01*
X0335600Y0266281D01*
X0335336Y0266452D01*
X0335078Y0266630D01*
X0334823Y0266814D01*
X0334573Y0267004D01*
X0334328Y0267200D01*
X0334088Y0267403D01*
X0333852Y0267611D01*
X0333622Y0267824D01*
X0333398Y0268044D01*
X0333178Y0268268D01*
X0332965Y0268498D01*
X0332757Y0268734D01*
X0332554Y0268974D01*
X0332358Y0269219D01*
X0332168Y0269469D01*
X0331984Y0269724D01*
X0331806Y0269982D01*
X0331635Y0270246D01*
X0331470Y0270513D01*
X0331312Y0270784D01*
X0331161Y0271059D01*
X0331016Y0271338D01*
X0330878Y0271620D01*
X0330748Y0271906D01*
X0330624Y0272195D01*
X0330507Y0272486D01*
X0330398Y0272780D01*
X0330296Y0273077D01*
X0330201Y0273377D01*
X0330113Y0273678D01*
X0330033Y0273982D01*
X0329961Y0274288D01*
X0329896Y0274595D01*
X0329838Y0274904D01*
X0329788Y0275214D01*
X0329746Y0275525D01*
X0329712Y0275837D01*
X0329685Y0276150D01*
X0329665Y0276463D01*
X0329654Y0276777D01*
X0329650Y0277091D01*
X0337130Y0158980D02*
X0337132Y0159149D01*
X0337138Y0159318D01*
X0337149Y0159487D01*
X0337163Y0159655D01*
X0337182Y0159823D01*
X0337205Y0159991D01*
X0337231Y0160158D01*
X0337262Y0160324D01*
X0337297Y0160490D01*
X0337336Y0160654D01*
X0337380Y0160818D01*
X0337427Y0160980D01*
X0337478Y0161141D01*
X0337533Y0161301D01*
X0337592Y0161460D01*
X0337654Y0161617D01*
X0337721Y0161772D01*
X0337792Y0161926D01*
X0337866Y0162078D01*
X0337944Y0162228D01*
X0338025Y0162376D01*
X0338110Y0162522D01*
X0338199Y0162666D01*
X0338291Y0162808D01*
X0338387Y0162947D01*
X0338486Y0163084D01*
X0338588Y0163219D01*
X0338694Y0163351D01*
X0338803Y0163480D01*
X0338915Y0163607D01*
X0339030Y0163731D01*
X0339148Y0163852D01*
X0339269Y0163970D01*
X0339393Y0164085D01*
X0339520Y0164197D01*
X0339649Y0164306D01*
X0339781Y0164412D01*
X0339916Y0164514D01*
X0340053Y0164613D01*
X0340192Y0164709D01*
X0340334Y0164801D01*
X0340478Y0164890D01*
X0340624Y0164975D01*
X0340772Y0165056D01*
X0340922Y0165134D01*
X0341074Y0165208D01*
X0341228Y0165279D01*
X0341383Y0165346D01*
X0341540Y0165408D01*
X0341699Y0165467D01*
X0341859Y0165522D01*
X0342020Y0165573D01*
X0342182Y0165620D01*
X0342346Y0165664D01*
X0342510Y0165703D01*
X0342676Y0165738D01*
X0342842Y0165769D01*
X0343009Y0165795D01*
X0343177Y0165818D01*
X0343345Y0165837D01*
X0343513Y0165851D01*
X0343682Y0165862D01*
X0343851Y0165868D01*
X0344020Y0165870D01*
X0344189Y0165868D01*
X0344358Y0165862D01*
X0344527Y0165851D01*
X0344695Y0165837D01*
X0344863Y0165818D01*
X0345031Y0165795D01*
X0345198Y0165769D01*
X0345364Y0165738D01*
X0345530Y0165703D01*
X0345694Y0165664D01*
X0345858Y0165620D01*
X0346020Y0165573D01*
X0346181Y0165522D01*
X0346341Y0165467D01*
X0346500Y0165408D01*
X0346657Y0165346D01*
X0346812Y0165279D01*
X0346966Y0165208D01*
X0347118Y0165134D01*
X0347268Y0165056D01*
X0347416Y0164975D01*
X0347562Y0164890D01*
X0347706Y0164801D01*
X0347848Y0164709D01*
X0347987Y0164613D01*
X0348124Y0164514D01*
X0348259Y0164412D01*
X0348391Y0164306D01*
X0348520Y0164197D01*
X0348647Y0164085D01*
X0348771Y0163970D01*
X0348892Y0163852D01*
X0349010Y0163731D01*
X0349125Y0163607D01*
X0349237Y0163480D01*
X0349346Y0163351D01*
X0349452Y0163219D01*
X0349554Y0163084D01*
X0349653Y0162947D01*
X0349749Y0162808D01*
X0349841Y0162666D01*
X0349930Y0162522D01*
X0350015Y0162376D01*
X0350096Y0162228D01*
X0350174Y0162078D01*
X0350248Y0161926D01*
X0350319Y0161772D01*
X0350386Y0161617D01*
X0350448Y0161460D01*
X0350507Y0161301D01*
X0350562Y0161141D01*
X0350613Y0160980D01*
X0350660Y0160818D01*
X0350704Y0160654D01*
X0350743Y0160490D01*
X0350778Y0160324D01*
X0350809Y0160158D01*
X0350835Y0159991D01*
X0350858Y0159823D01*
X0350877Y0159655D01*
X0350891Y0159487D01*
X0350902Y0159318D01*
X0350908Y0159149D01*
X0350910Y0158980D01*
X0350908Y0158811D01*
X0350902Y0158642D01*
X0350891Y0158473D01*
X0350877Y0158305D01*
X0350858Y0158137D01*
X0350835Y0157969D01*
X0350809Y0157802D01*
X0350778Y0157636D01*
X0350743Y0157470D01*
X0350704Y0157306D01*
X0350660Y0157142D01*
X0350613Y0156980D01*
X0350562Y0156819D01*
X0350507Y0156659D01*
X0350448Y0156500D01*
X0350386Y0156343D01*
X0350319Y0156188D01*
X0350248Y0156034D01*
X0350174Y0155882D01*
X0350096Y0155732D01*
X0350015Y0155584D01*
X0349930Y0155438D01*
X0349841Y0155294D01*
X0349749Y0155152D01*
X0349653Y0155013D01*
X0349554Y0154876D01*
X0349452Y0154741D01*
X0349346Y0154609D01*
X0349237Y0154480D01*
X0349125Y0154353D01*
X0349010Y0154229D01*
X0348892Y0154108D01*
X0348771Y0153990D01*
X0348647Y0153875D01*
X0348520Y0153763D01*
X0348391Y0153654D01*
X0348259Y0153548D01*
X0348124Y0153446D01*
X0347987Y0153347D01*
X0347848Y0153251D01*
X0347706Y0153159D01*
X0347562Y0153070D01*
X0347416Y0152985D01*
X0347268Y0152904D01*
X0347118Y0152826D01*
X0346966Y0152752D01*
X0346812Y0152681D01*
X0346657Y0152614D01*
X0346500Y0152552D01*
X0346341Y0152493D01*
X0346181Y0152438D01*
X0346020Y0152387D01*
X0345858Y0152340D01*
X0345694Y0152296D01*
X0345530Y0152257D01*
X0345364Y0152222D01*
X0345198Y0152191D01*
X0345031Y0152165D01*
X0344863Y0152142D01*
X0344695Y0152123D01*
X0344527Y0152109D01*
X0344358Y0152098D01*
X0344189Y0152092D01*
X0344020Y0152090D01*
X0343851Y0152092D01*
X0343682Y0152098D01*
X0343513Y0152109D01*
X0343345Y0152123D01*
X0343177Y0152142D01*
X0343009Y0152165D01*
X0342842Y0152191D01*
X0342676Y0152222D01*
X0342510Y0152257D01*
X0342346Y0152296D01*
X0342182Y0152340D01*
X0342020Y0152387D01*
X0341859Y0152438D01*
X0341699Y0152493D01*
X0341540Y0152552D01*
X0341383Y0152614D01*
X0341228Y0152681D01*
X0341074Y0152752D01*
X0340922Y0152826D01*
X0340772Y0152904D01*
X0340624Y0152985D01*
X0340478Y0153070D01*
X0340334Y0153159D01*
X0340192Y0153251D01*
X0340053Y0153347D01*
X0339916Y0153446D01*
X0339781Y0153548D01*
X0339649Y0153654D01*
X0339520Y0153763D01*
X0339393Y0153875D01*
X0339269Y0153990D01*
X0339148Y0154108D01*
X0339030Y0154229D01*
X0338915Y0154353D01*
X0338803Y0154480D01*
X0338694Y0154609D01*
X0338588Y0154741D01*
X0338486Y0154876D01*
X0338387Y0155013D01*
X0338291Y0155152D01*
X0338199Y0155294D01*
X0338110Y0155438D01*
X0338025Y0155584D01*
X0337944Y0155732D01*
X0337866Y0155882D01*
X0337792Y0156034D01*
X0337721Y0156188D01*
X0337654Y0156343D01*
X0337592Y0156500D01*
X0337533Y0156659D01*
X0337478Y0156819D01*
X0337427Y0156980D01*
X0337380Y0157142D01*
X0337336Y0157306D01*
X0337297Y0157470D01*
X0337262Y0157636D01*
X0337231Y0157802D01*
X0337205Y0157969D01*
X0337182Y0158137D01*
X0337163Y0158305D01*
X0337149Y0158473D01*
X0337138Y0158642D01*
X0337132Y0158811D01*
X0337130Y0158980D01*
X0337130Y0040870D02*
X0337132Y0041039D01*
X0337138Y0041208D01*
X0337149Y0041377D01*
X0337163Y0041545D01*
X0337182Y0041713D01*
X0337205Y0041881D01*
X0337231Y0042048D01*
X0337262Y0042214D01*
X0337297Y0042380D01*
X0337336Y0042544D01*
X0337380Y0042708D01*
X0337427Y0042870D01*
X0337478Y0043031D01*
X0337533Y0043191D01*
X0337592Y0043350D01*
X0337654Y0043507D01*
X0337721Y0043662D01*
X0337792Y0043816D01*
X0337866Y0043968D01*
X0337944Y0044118D01*
X0338025Y0044266D01*
X0338110Y0044412D01*
X0338199Y0044556D01*
X0338291Y0044698D01*
X0338387Y0044837D01*
X0338486Y0044974D01*
X0338588Y0045109D01*
X0338694Y0045241D01*
X0338803Y0045370D01*
X0338915Y0045497D01*
X0339030Y0045621D01*
X0339148Y0045742D01*
X0339269Y0045860D01*
X0339393Y0045975D01*
X0339520Y0046087D01*
X0339649Y0046196D01*
X0339781Y0046302D01*
X0339916Y0046404D01*
X0340053Y0046503D01*
X0340192Y0046599D01*
X0340334Y0046691D01*
X0340478Y0046780D01*
X0340624Y0046865D01*
X0340772Y0046946D01*
X0340922Y0047024D01*
X0341074Y0047098D01*
X0341228Y0047169D01*
X0341383Y0047236D01*
X0341540Y0047298D01*
X0341699Y0047357D01*
X0341859Y0047412D01*
X0342020Y0047463D01*
X0342182Y0047510D01*
X0342346Y0047554D01*
X0342510Y0047593D01*
X0342676Y0047628D01*
X0342842Y0047659D01*
X0343009Y0047685D01*
X0343177Y0047708D01*
X0343345Y0047727D01*
X0343513Y0047741D01*
X0343682Y0047752D01*
X0343851Y0047758D01*
X0344020Y0047760D01*
X0344189Y0047758D01*
X0344358Y0047752D01*
X0344527Y0047741D01*
X0344695Y0047727D01*
X0344863Y0047708D01*
X0345031Y0047685D01*
X0345198Y0047659D01*
X0345364Y0047628D01*
X0345530Y0047593D01*
X0345694Y0047554D01*
X0345858Y0047510D01*
X0346020Y0047463D01*
X0346181Y0047412D01*
X0346341Y0047357D01*
X0346500Y0047298D01*
X0346657Y0047236D01*
X0346812Y0047169D01*
X0346966Y0047098D01*
X0347118Y0047024D01*
X0347268Y0046946D01*
X0347416Y0046865D01*
X0347562Y0046780D01*
X0347706Y0046691D01*
X0347848Y0046599D01*
X0347987Y0046503D01*
X0348124Y0046404D01*
X0348259Y0046302D01*
X0348391Y0046196D01*
X0348520Y0046087D01*
X0348647Y0045975D01*
X0348771Y0045860D01*
X0348892Y0045742D01*
X0349010Y0045621D01*
X0349125Y0045497D01*
X0349237Y0045370D01*
X0349346Y0045241D01*
X0349452Y0045109D01*
X0349554Y0044974D01*
X0349653Y0044837D01*
X0349749Y0044698D01*
X0349841Y0044556D01*
X0349930Y0044412D01*
X0350015Y0044266D01*
X0350096Y0044118D01*
X0350174Y0043968D01*
X0350248Y0043816D01*
X0350319Y0043662D01*
X0350386Y0043507D01*
X0350448Y0043350D01*
X0350507Y0043191D01*
X0350562Y0043031D01*
X0350613Y0042870D01*
X0350660Y0042708D01*
X0350704Y0042544D01*
X0350743Y0042380D01*
X0350778Y0042214D01*
X0350809Y0042048D01*
X0350835Y0041881D01*
X0350858Y0041713D01*
X0350877Y0041545D01*
X0350891Y0041377D01*
X0350902Y0041208D01*
X0350908Y0041039D01*
X0350910Y0040870D01*
X0350908Y0040701D01*
X0350902Y0040532D01*
X0350891Y0040363D01*
X0350877Y0040195D01*
X0350858Y0040027D01*
X0350835Y0039859D01*
X0350809Y0039692D01*
X0350778Y0039526D01*
X0350743Y0039360D01*
X0350704Y0039196D01*
X0350660Y0039032D01*
X0350613Y0038870D01*
X0350562Y0038709D01*
X0350507Y0038549D01*
X0350448Y0038390D01*
X0350386Y0038233D01*
X0350319Y0038078D01*
X0350248Y0037924D01*
X0350174Y0037772D01*
X0350096Y0037622D01*
X0350015Y0037474D01*
X0349930Y0037328D01*
X0349841Y0037184D01*
X0349749Y0037042D01*
X0349653Y0036903D01*
X0349554Y0036766D01*
X0349452Y0036631D01*
X0349346Y0036499D01*
X0349237Y0036370D01*
X0349125Y0036243D01*
X0349010Y0036119D01*
X0348892Y0035998D01*
X0348771Y0035880D01*
X0348647Y0035765D01*
X0348520Y0035653D01*
X0348391Y0035544D01*
X0348259Y0035438D01*
X0348124Y0035336D01*
X0347987Y0035237D01*
X0347848Y0035141D01*
X0347706Y0035049D01*
X0347562Y0034960D01*
X0347416Y0034875D01*
X0347268Y0034794D01*
X0347118Y0034716D01*
X0346966Y0034642D01*
X0346812Y0034571D01*
X0346657Y0034504D01*
X0346500Y0034442D01*
X0346341Y0034383D01*
X0346181Y0034328D01*
X0346020Y0034277D01*
X0345858Y0034230D01*
X0345694Y0034186D01*
X0345530Y0034147D01*
X0345364Y0034112D01*
X0345198Y0034081D01*
X0345031Y0034055D01*
X0344863Y0034032D01*
X0344695Y0034013D01*
X0344527Y0033999D01*
X0344358Y0033988D01*
X0344189Y0033982D01*
X0344020Y0033980D01*
X0343851Y0033982D01*
X0343682Y0033988D01*
X0343513Y0033999D01*
X0343345Y0034013D01*
X0343177Y0034032D01*
X0343009Y0034055D01*
X0342842Y0034081D01*
X0342676Y0034112D01*
X0342510Y0034147D01*
X0342346Y0034186D01*
X0342182Y0034230D01*
X0342020Y0034277D01*
X0341859Y0034328D01*
X0341699Y0034383D01*
X0341540Y0034442D01*
X0341383Y0034504D01*
X0341228Y0034571D01*
X0341074Y0034642D01*
X0340922Y0034716D01*
X0340772Y0034794D01*
X0340624Y0034875D01*
X0340478Y0034960D01*
X0340334Y0035049D01*
X0340192Y0035141D01*
X0340053Y0035237D01*
X0339916Y0035336D01*
X0339781Y0035438D01*
X0339649Y0035544D01*
X0339520Y0035653D01*
X0339393Y0035765D01*
X0339269Y0035880D01*
X0339148Y0035998D01*
X0339030Y0036119D01*
X0338915Y0036243D01*
X0338803Y0036370D01*
X0338694Y0036499D01*
X0338588Y0036631D01*
X0338486Y0036766D01*
X0338387Y0036903D01*
X0338291Y0037042D01*
X0338199Y0037184D01*
X0338110Y0037328D01*
X0338025Y0037474D01*
X0337944Y0037622D01*
X0337866Y0037772D01*
X0337792Y0037924D01*
X0337721Y0038078D01*
X0337654Y0038233D01*
X0337592Y0038390D01*
X0337533Y0038549D01*
X0337478Y0038709D01*
X0337427Y0038870D01*
X0337380Y0039032D01*
X0337336Y0039196D01*
X0337297Y0039360D01*
X0337262Y0039526D01*
X0337231Y0039692D01*
X0337205Y0039859D01*
X0337182Y0040027D01*
X0337163Y0040195D01*
X0337149Y0040363D01*
X0337138Y0040532D01*
X0337132Y0040701D01*
X0337130Y0040870D01*
X0533980Y0158980D02*
X0533982Y0159149D01*
X0533988Y0159318D01*
X0533999Y0159487D01*
X0534013Y0159655D01*
X0534032Y0159823D01*
X0534055Y0159991D01*
X0534081Y0160158D01*
X0534112Y0160324D01*
X0534147Y0160490D01*
X0534186Y0160654D01*
X0534230Y0160818D01*
X0534277Y0160980D01*
X0534328Y0161141D01*
X0534383Y0161301D01*
X0534442Y0161460D01*
X0534504Y0161617D01*
X0534571Y0161772D01*
X0534642Y0161926D01*
X0534716Y0162078D01*
X0534794Y0162228D01*
X0534875Y0162376D01*
X0534960Y0162522D01*
X0535049Y0162666D01*
X0535141Y0162808D01*
X0535237Y0162947D01*
X0535336Y0163084D01*
X0535438Y0163219D01*
X0535544Y0163351D01*
X0535653Y0163480D01*
X0535765Y0163607D01*
X0535880Y0163731D01*
X0535998Y0163852D01*
X0536119Y0163970D01*
X0536243Y0164085D01*
X0536370Y0164197D01*
X0536499Y0164306D01*
X0536631Y0164412D01*
X0536766Y0164514D01*
X0536903Y0164613D01*
X0537042Y0164709D01*
X0537184Y0164801D01*
X0537328Y0164890D01*
X0537474Y0164975D01*
X0537622Y0165056D01*
X0537772Y0165134D01*
X0537924Y0165208D01*
X0538078Y0165279D01*
X0538233Y0165346D01*
X0538390Y0165408D01*
X0538549Y0165467D01*
X0538709Y0165522D01*
X0538870Y0165573D01*
X0539032Y0165620D01*
X0539196Y0165664D01*
X0539360Y0165703D01*
X0539526Y0165738D01*
X0539692Y0165769D01*
X0539859Y0165795D01*
X0540027Y0165818D01*
X0540195Y0165837D01*
X0540363Y0165851D01*
X0540532Y0165862D01*
X0540701Y0165868D01*
X0540870Y0165870D01*
X0541039Y0165868D01*
X0541208Y0165862D01*
X0541377Y0165851D01*
X0541545Y0165837D01*
X0541713Y0165818D01*
X0541881Y0165795D01*
X0542048Y0165769D01*
X0542214Y0165738D01*
X0542380Y0165703D01*
X0542544Y0165664D01*
X0542708Y0165620D01*
X0542870Y0165573D01*
X0543031Y0165522D01*
X0543191Y0165467D01*
X0543350Y0165408D01*
X0543507Y0165346D01*
X0543662Y0165279D01*
X0543816Y0165208D01*
X0543968Y0165134D01*
X0544118Y0165056D01*
X0544266Y0164975D01*
X0544412Y0164890D01*
X0544556Y0164801D01*
X0544698Y0164709D01*
X0544837Y0164613D01*
X0544974Y0164514D01*
X0545109Y0164412D01*
X0545241Y0164306D01*
X0545370Y0164197D01*
X0545497Y0164085D01*
X0545621Y0163970D01*
X0545742Y0163852D01*
X0545860Y0163731D01*
X0545975Y0163607D01*
X0546087Y0163480D01*
X0546196Y0163351D01*
X0546302Y0163219D01*
X0546404Y0163084D01*
X0546503Y0162947D01*
X0546599Y0162808D01*
X0546691Y0162666D01*
X0546780Y0162522D01*
X0546865Y0162376D01*
X0546946Y0162228D01*
X0547024Y0162078D01*
X0547098Y0161926D01*
X0547169Y0161772D01*
X0547236Y0161617D01*
X0547298Y0161460D01*
X0547357Y0161301D01*
X0547412Y0161141D01*
X0547463Y0160980D01*
X0547510Y0160818D01*
X0547554Y0160654D01*
X0547593Y0160490D01*
X0547628Y0160324D01*
X0547659Y0160158D01*
X0547685Y0159991D01*
X0547708Y0159823D01*
X0547727Y0159655D01*
X0547741Y0159487D01*
X0547752Y0159318D01*
X0547758Y0159149D01*
X0547760Y0158980D01*
X0547758Y0158811D01*
X0547752Y0158642D01*
X0547741Y0158473D01*
X0547727Y0158305D01*
X0547708Y0158137D01*
X0547685Y0157969D01*
X0547659Y0157802D01*
X0547628Y0157636D01*
X0547593Y0157470D01*
X0547554Y0157306D01*
X0547510Y0157142D01*
X0547463Y0156980D01*
X0547412Y0156819D01*
X0547357Y0156659D01*
X0547298Y0156500D01*
X0547236Y0156343D01*
X0547169Y0156188D01*
X0547098Y0156034D01*
X0547024Y0155882D01*
X0546946Y0155732D01*
X0546865Y0155584D01*
X0546780Y0155438D01*
X0546691Y0155294D01*
X0546599Y0155152D01*
X0546503Y0155013D01*
X0546404Y0154876D01*
X0546302Y0154741D01*
X0546196Y0154609D01*
X0546087Y0154480D01*
X0545975Y0154353D01*
X0545860Y0154229D01*
X0545742Y0154108D01*
X0545621Y0153990D01*
X0545497Y0153875D01*
X0545370Y0153763D01*
X0545241Y0153654D01*
X0545109Y0153548D01*
X0544974Y0153446D01*
X0544837Y0153347D01*
X0544698Y0153251D01*
X0544556Y0153159D01*
X0544412Y0153070D01*
X0544266Y0152985D01*
X0544118Y0152904D01*
X0543968Y0152826D01*
X0543816Y0152752D01*
X0543662Y0152681D01*
X0543507Y0152614D01*
X0543350Y0152552D01*
X0543191Y0152493D01*
X0543031Y0152438D01*
X0542870Y0152387D01*
X0542708Y0152340D01*
X0542544Y0152296D01*
X0542380Y0152257D01*
X0542214Y0152222D01*
X0542048Y0152191D01*
X0541881Y0152165D01*
X0541713Y0152142D01*
X0541545Y0152123D01*
X0541377Y0152109D01*
X0541208Y0152098D01*
X0541039Y0152092D01*
X0540870Y0152090D01*
X0540701Y0152092D01*
X0540532Y0152098D01*
X0540363Y0152109D01*
X0540195Y0152123D01*
X0540027Y0152142D01*
X0539859Y0152165D01*
X0539692Y0152191D01*
X0539526Y0152222D01*
X0539360Y0152257D01*
X0539196Y0152296D01*
X0539032Y0152340D01*
X0538870Y0152387D01*
X0538709Y0152438D01*
X0538549Y0152493D01*
X0538390Y0152552D01*
X0538233Y0152614D01*
X0538078Y0152681D01*
X0537924Y0152752D01*
X0537772Y0152826D01*
X0537622Y0152904D01*
X0537474Y0152985D01*
X0537328Y0153070D01*
X0537184Y0153159D01*
X0537042Y0153251D01*
X0536903Y0153347D01*
X0536766Y0153446D01*
X0536631Y0153548D01*
X0536499Y0153654D01*
X0536370Y0153763D01*
X0536243Y0153875D01*
X0536119Y0153990D01*
X0535998Y0154108D01*
X0535880Y0154229D01*
X0535765Y0154353D01*
X0535653Y0154480D01*
X0535544Y0154609D01*
X0535438Y0154741D01*
X0535336Y0154876D01*
X0535237Y0155013D01*
X0535141Y0155152D01*
X0535049Y0155294D01*
X0534960Y0155438D01*
X0534875Y0155584D01*
X0534794Y0155732D01*
X0534716Y0155882D01*
X0534642Y0156034D01*
X0534571Y0156188D01*
X0534504Y0156343D01*
X0534442Y0156500D01*
X0534383Y0156659D01*
X0534328Y0156819D01*
X0534277Y0156980D01*
X0534230Y0157142D01*
X0534186Y0157306D01*
X0534147Y0157470D01*
X0534112Y0157636D01*
X0534081Y0157802D01*
X0534055Y0157969D01*
X0534032Y0158137D01*
X0534013Y0158305D01*
X0533999Y0158473D01*
X0533988Y0158642D01*
X0533982Y0158811D01*
X0533980Y0158980D01*
X0337130Y0395201D02*
X0337132Y0395370D01*
X0337138Y0395539D01*
X0337149Y0395708D01*
X0337163Y0395876D01*
X0337182Y0396044D01*
X0337205Y0396212D01*
X0337231Y0396379D01*
X0337262Y0396545D01*
X0337297Y0396711D01*
X0337336Y0396875D01*
X0337380Y0397039D01*
X0337427Y0397201D01*
X0337478Y0397362D01*
X0337533Y0397522D01*
X0337592Y0397681D01*
X0337654Y0397838D01*
X0337721Y0397993D01*
X0337792Y0398147D01*
X0337866Y0398299D01*
X0337944Y0398449D01*
X0338025Y0398597D01*
X0338110Y0398743D01*
X0338199Y0398887D01*
X0338291Y0399029D01*
X0338387Y0399168D01*
X0338486Y0399305D01*
X0338588Y0399440D01*
X0338694Y0399572D01*
X0338803Y0399701D01*
X0338915Y0399828D01*
X0339030Y0399952D01*
X0339148Y0400073D01*
X0339269Y0400191D01*
X0339393Y0400306D01*
X0339520Y0400418D01*
X0339649Y0400527D01*
X0339781Y0400633D01*
X0339916Y0400735D01*
X0340053Y0400834D01*
X0340192Y0400930D01*
X0340334Y0401022D01*
X0340478Y0401111D01*
X0340624Y0401196D01*
X0340772Y0401277D01*
X0340922Y0401355D01*
X0341074Y0401429D01*
X0341228Y0401500D01*
X0341383Y0401567D01*
X0341540Y0401629D01*
X0341699Y0401688D01*
X0341859Y0401743D01*
X0342020Y0401794D01*
X0342182Y0401841D01*
X0342346Y0401885D01*
X0342510Y0401924D01*
X0342676Y0401959D01*
X0342842Y0401990D01*
X0343009Y0402016D01*
X0343177Y0402039D01*
X0343345Y0402058D01*
X0343513Y0402072D01*
X0343682Y0402083D01*
X0343851Y0402089D01*
X0344020Y0402091D01*
X0344189Y0402089D01*
X0344358Y0402083D01*
X0344527Y0402072D01*
X0344695Y0402058D01*
X0344863Y0402039D01*
X0345031Y0402016D01*
X0345198Y0401990D01*
X0345364Y0401959D01*
X0345530Y0401924D01*
X0345694Y0401885D01*
X0345858Y0401841D01*
X0346020Y0401794D01*
X0346181Y0401743D01*
X0346341Y0401688D01*
X0346500Y0401629D01*
X0346657Y0401567D01*
X0346812Y0401500D01*
X0346966Y0401429D01*
X0347118Y0401355D01*
X0347268Y0401277D01*
X0347416Y0401196D01*
X0347562Y0401111D01*
X0347706Y0401022D01*
X0347848Y0400930D01*
X0347987Y0400834D01*
X0348124Y0400735D01*
X0348259Y0400633D01*
X0348391Y0400527D01*
X0348520Y0400418D01*
X0348647Y0400306D01*
X0348771Y0400191D01*
X0348892Y0400073D01*
X0349010Y0399952D01*
X0349125Y0399828D01*
X0349237Y0399701D01*
X0349346Y0399572D01*
X0349452Y0399440D01*
X0349554Y0399305D01*
X0349653Y0399168D01*
X0349749Y0399029D01*
X0349841Y0398887D01*
X0349930Y0398743D01*
X0350015Y0398597D01*
X0350096Y0398449D01*
X0350174Y0398299D01*
X0350248Y0398147D01*
X0350319Y0397993D01*
X0350386Y0397838D01*
X0350448Y0397681D01*
X0350507Y0397522D01*
X0350562Y0397362D01*
X0350613Y0397201D01*
X0350660Y0397039D01*
X0350704Y0396875D01*
X0350743Y0396711D01*
X0350778Y0396545D01*
X0350809Y0396379D01*
X0350835Y0396212D01*
X0350858Y0396044D01*
X0350877Y0395876D01*
X0350891Y0395708D01*
X0350902Y0395539D01*
X0350908Y0395370D01*
X0350910Y0395201D01*
X0350908Y0395032D01*
X0350902Y0394863D01*
X0350891Y0394694D01*
X0350877Y0394526D01*
X0350858Y0394358D01*
X0350835Y0394190D01*
X0350809Y0394023D01*
X0350778Y0393857D01*
X0350743Y0393691D01*
X0350704Y0393527D01*
X0350660Y0393363D01*
X0350613Y0393201D01*
X0350562Y0393040D01*
X0350507Y0392880D01*
X0350448Y0392721D01*
X0350386Y0392564D01*
X0350319Y0392409D01*
X0350248Y0392255D01*
X0350174Y0392103D01*
X0350096Y0391953D01*
X0350015Y0391805D01*
X0349930Y0391659D01*
X0349841Y0391515D01*
X0349749Y0391373D01*
X0349653Y0391234D01*
X0349554Y0391097D01*
X0349452Y0390962D01*
X0349346Y0390830D01*
X0349237Y0390701D01*
X0349125Y0390574D01*
X0349010Y0390450D01*
X0348892Y0390329D01*
X0348771Y0390211D01*
X0348647Y0390096D01*
X0348520Y0389984D01*
X0348391Y0389875D01*
X0348259Y0389769D01*
X0348124Y0389667D01*
X0347987Y0389568D01*
X0347848Y0389472D01*
X0347706Y0389380D01*
X0347562Y0389291D01*
X0347416Y0389206D01*
X0347268Y0389125D01*
X0347118Y0389047D01*
X0346966Y0388973D01*
X0346812Y0388902D01*
X0346657Y0388835D01*
X0346500Y0388773D01*
X0346341Y0388714D01*
X0346181Y0388659D01*
X0346020Y0388608D01*
X0345858Y0388561D01*
X0345694Y0388517D01*
X0345530Y0388478D01*
X0345364Y0388443D01*
X0345198Y0388412D01*
X0345031Y0388386D01*
X0344863Y0388363D01*
X0344695Y0388344D01*
X0344527Y0388330D01*
X0344358Y0388319D01*
X0344189Y0388313D01*
X0344020Y0388311D01*
X0343851Y0388313D01*
X0343682Y0388319D01*
X0343513Y0388330D01*
X0343345Y0388344D01*
X0343177Y0388363D01*
X0343009Y0388386D01*
X0342842Y0388412D01*
X0342676Y0388443D01*
X0342510Y0388478D01*
X0342346Y0388517D01*
X0342182Y0388561D01*
X0342020Y0388608D01*
X0341859Y0388659D01*
X0341699Y0388714D01*
X0341540Y0388773D01*
X0341383Y0388835D01*
X0341228Y0388902D01*
X0341074Y0388973D01*
X0340922Y0389047D01*
X0340772Y0389125D01*
X0340624Y0389206D01*
X0340478Y0389291D01*
X0340334Y0389380D01*
X0340192Y0389472D01*
X0340053Y0389568D01*
X0339916Y0389667D01*
X0339781Y0389769D01*
X0339649Y0389875D01*
X0339520Y0389984D01*
X0339393Y0390096D01*
X0339269Y0390211D01*
X0339148Y0390329D01*
X0339030Y0390450D01*
X0338915Y0390574D01*
X0338803Y0390701D01*
X0338694Y0390830D01*
X0338588Y0390962D01*
X0338486Y0391097D01*
X0338387Y0391234D01*
X0338291Y0391373D01*
X0338199Y0391515D01*
X0338110Y0391659D01*
X0338025Y0391805D01*
X0337944Y0391953D01*
X0337866Y0392103D01*
X0337792Y0392255D01*
X0337721Y0392409D01*
X0337654Y0392564D01*
X0337592Y0392721D01*
X0337533Y0392880D01*
X0337478Y0393040D01*
X0337427Y0393201D01*
X0337380Y0393363D01*
X0337336Y0393527D01*
X0337297Y0393691D01*
X0337262Y0393857D01*
X0337231Y0394023D01*
X0337205Y0394190D01*
X0337182Y0394358D01*
X0337163Y0394526D01*
X0337149Y0394694D01*
X0337138Y0394863D01*
X0337132Y0395032D01*
X0337130Y0395201D01*
X0337130Y0592051D02*
X0337132Y0592220D01*
X0337138Y0592389D01*
X0337149Y0592558D01*
X0337163Y0592726D01*
X0337182Y0592894D01*
X0337205Y0593062D01*
X0337231Y0593229D01*
X0337262Y0593395D01*
X0337297Y0593561D01*
X0337336Y0593725D01*
X0337380Y0593889D01*
X0337427Y0594051D01*
X0337478Y0594212D01*
X0337533Y0594372D01*
X0337592Y0594531D01*
X0337654Y0594688D01*
X0337721Y0594843D01*
X0337792Y0594997D01*
X0337866Y0595149D01*
X0337944Y0595299D01*
X0338025Y0595447D01*
X0338110Y0595593D01*
X0338199Y0595737D01*
X0338291Y0595879D01*
X0338387Y0596018D01*
X0338486Y0596155D01*
X0338588Y0596290D01*
X0338694Y0596422D01*
X0338803Y0596551D01*
X0338915Y0596678D01*
X0339030Y0596802D01*
X0339148Y0596923D01*
X0339269Y0597041D01*
X0339393Y0597156D01*
X0339520Y0597268D01*
X0339649Y0597377D01*
X0339781Y0597483D01*
X0339916Y0597585D01*
X0340053Y0597684D01*
X0340192Y0597780D01*
X0340334Y0597872D01*
X0340478Y0597961D01*
X0340624Y0598046D01*
X0340772Y0598127D01*
X0340922Y0598205D01*
X0341074Y0598279D01*
X0341228Y0598350D01*
X0341383Y0598417D01*
X0341540Y0598479D01*
X0341699Y0598538D01*
X0341859Y0598593D01*
X0342020Y0598644D01*
X0342182Y0598691D01*
X0342346Y0598735D01*
X0342510Y0598774D01*
X0342676Y0598809D01*
X0342842Y0598840D01*
X0343009Y0598866D01*
X0343177Y0598889D01*
X0343345Y0598908D01*
X0343513Y0598922D01*
X0343682Y0598933D01*
X0343851Y0598939D01*
X0344020Y0598941D01*
X0344189Y0598939D01*
X0344358Y0598933D01*
X0344527Y0598922D01*
X0344695Y0598908D01*
X0344863Y0598889D01*
X0345031Y0598866D01*
X0345198Y0598840D01*
X0345364Y0598809D01*
X0345530Y0598774D01*
X0345694Y0598735D01*
X0345858Y0598691D01*
X0346020Y0598644D01*
X0346181Y0598593D01*
X0346341Y0598538D01*
X0346500Y0598479D01*
X0346657Y0598417D01*
X0346812Y0598350D01*
X0346966Y0598279D01*
X0347118Y0598205D01*
X0347268Y0598127D01*
X0347416Y0598046D01*
X0347562Y0597961D01*
X0347706Y0597872D01*
X0347848Y0597780D01*
X0347987Y0597684D01*
X0348124Y0597585D01*
X0348259Y0597483D01*
X0348391Y0597377D01*
X0348520Y0597268D01*
X0348647Y0597156D01*
X0348771Y0597041D01*
X0348892Y0596923D01*
X0349010Y0596802D01*
X0349125Y0596678D01*
X0349237Y0596551D01*
X0349346Y0596422D01*
X0349452Y0596290D01*
X0349554Y0596155D01*
X0349653Y0596018D01*
X0349749Y0595879D01*
X0349841Y0595737D01*
X0349930Y0595593D01*
X0350015Y0595447D01*
X0350096Y0595299D01*
X0350174Y0595149D01*
X0350248Y0594997D01*
X0350319Y0594843D01*
X0350386Y0594688D01*
X0350448Y0594531D01*
X0350507Y0594372D01*
X0350562Y0594212D01*
X0350613Y0594051D01*
X0350660Y0593889D01*
X0350704Y0593725D01*
X0350743Y0593561D01*
X0350778Y0593395D01*
X0350809Y0593229D01*
X0350835Y0593062D01*
X0350858Y0592894D01*
X0350877Y0592726D01*
X0350891Y0592558D01*
X0350902Y0592389D01*
X0350908Y0592220D01*
X0350910Y0592051D01*
X0350908Y0591882D01*
X0350902Y0591713D01*
X0350891Y0591544D01*
X0350877Y0591376D01*
X0350858Y0591208D01*
X0350835Y0591040D01*
X0350809Y0590873D01*
X0350778Y0590707D01*
X0350743Y0590541D01*
X0350704Y0590377D01*
X0350660Y0590213D01*
X0350613Y0590051D01*
X0350562Y0589890D01*
X0350507Y0589730D01*
X0350448Y0589571D01*
X0350386Y0589414D01*
X0350319Y0589259D01*
X0350248Y0589105D01*
X0350174Y0588953D01*
X0350096Y0588803D01*
X0350015Y0588655D01*
X0349930Y0588509D01*
X0349841Y0588365D01*
X0349749Y0588223D01*
X0349653Y0588084D01*
X0349554Y0587947D01*
X0349452Y0587812D01*
X0349346Y0587680D01*
X0349237Y0587551D01*
X0349125Y0587424D01*
X0349010Y0587300D01*
X0348892Y0587179D01*
X0348771Y0587061D01*
X0348647Y0586946D01*
X0348520Y0586834D01*
X0348391Y0586725D01*
X0348259Y0586619D01*
X0348124Y0586517D01*
X0347987Y0586418D01*
X0347848Y0586322D01*
X0347706Y0586230D01*
X0347562Y0586141D01*
X0347416Y0586056D01*
X0347268Y0585975D01*
X0347118Y0585897D01*
X0346966Y0585823D01*
X0346812Y0585752D01*
X0346657Y0585685D01*
X0346500Y0585623D01*
X0346341Y0585564D01*
X0346181Y0585509D01*
X0346020Y0585458D01*
X0345858Y0585411D01*
X0345694Y0585367D01*
X0345530Y0585328D01*
X0345364Y0585293D01*
X0345198Y0585262D01*
X0345031Y0585236D01*
X0344863Y0585213D01*
X0344695Y0585194D01*
X0344527Y0585180D01*
X0344358Y0585169D01*
X0344189Y0585163D01*
X0344020Y0585161D01*
X0343851Y0585163D01*
X0343682Y0585169D01*
X0343513Y0585180D01*
X0343345Y0585194D01*
X0343177Y0585213D01*
X0343009Y0585236D01*
X0342842Y0585262D01*
X0342676Y0585293D01*
X0342510Y0585328D01*
X0342346Y0585367D01*
X0342182Y0585411D01*
X0342020Y0585458D01*
X0341859Y0585509D01*
X0341699Y0585564D01*
X0341540Y0585623D01*
X0341383Y0585685D01*
X0341228Y0585752D01*
X0341074Y0585823D01*
X0340922Y0585897D01*
X0340772Y0585975D01*
X0340624Y0586056D01*
X0340478Y0586141D01*
X0340334Y0586230D01*
X0340192Y0586322D01*
X0340053Y0586418D01*
X0339916Y0586517D01*
X0339781Y0586619D01*
X0339649Y0586725D01*
X0339520Y0586834D01*
X0339393Y0586946D01*
X0339269Y0587061D01*
X0339148Y0587179D01*
X0339030Y0587300D01*
X0338915Y0587424D01*
X0338803Y0587551D01*
X0338694Y0587680D01*
X0338588Y0587812D01*
X0338486Y0587947D01*
X0338387Y0588084D01*
X0338291Y0588223D01*
X0338199Y0588365D01*
X0338110Y0588509D01*
X0338025Y0588655D01*
X0337944Y0588803D01*
X0337866Y0588953D01*
X0337792Y0589105D01*
X0337721Y0589259D01*
X0337654Y0589414D01*
X0337592Y0589571D01*
X0337533Y0589730D01*
X0337478Y0589890D01*
X0337427Y0590051D01*
X0337380Y0590213D01*
X0337336Y0590377D01*
X0337297Y0590541D01*
X0337262Y0590707D01*
X0337231Y0590873D01*
X0337205Y0591040D01*
X0337182Y0591208D01*
X0337163Y0591376D01*
X0337149Y0591544D01*
X0337138Y0591713D01*
X0337132Y0591882D01*
X0337130Y0592051D01*
X0388705Y0710161D02*
X0388709Y0710475D01*
X0388720Y0710789D01*
X0388740Y0711102D01*
X0388767Y0711415D01*
X0388801Y0711727D01*
X0388843Y0712038D01*
X0388893Y0712348D01*
X0388951Y0712657D01*
X0389016Y0712964D01*
X0389088Y0713270D01*
X0389168Y0713574D01*
X0389256Y0713875D01*
X0389351Y0714175D01*
X0389453Y0714472D01*
X0389562Y0714766D01*
X0389679Y0715057D01*
X0389803Y0715346D01*
X0389933Y0715632D01*
X0390071Y0715914D01*
X0390216Y0716193D01*
X0390367Y0716468D01*
X0390525Y0716739D01*
X0390690Y0717006D01*
X0390861Y0717270D01*
X0391039Y0717528D01*
X0391223Y0717783D01*
X0391413Y0718033D01*
X0391609Y0718278D01*
X0391812Y0718518D01*
X0392020Y0718754D01*
X0392233Y0718984D01*
X0392453Y0719208D01*
X0392677Y0719428D01*
X0392907Y0719641D01*
X0393143Y0719849D01*
X0393383Y0720052D01*
X0393628Y0720248D01*
X0393878Y0720438D01*
X0394133Y0720622D01*
X0394391Y0720800D01*
X0394655Y0720971D01*
X0394922Y0721136D01*
X0395193Y0721294D01*
X0395468Y0721445D01*
X0395747Y0721590D01*
X0396029Y0721728D01*
X0396315Y0721858D01*
X0396604Y0721982D01*
X0396895Y0722099D01*
X0397189Y0722208D01*
X0397486Y0722310D01*
X0397786Y0722405D01*
X0398087Y0722493D01*
X0398391Y0722573D01*
X0398697Y0722645D01*
X0399004Y0722710D01*
X0399313Y0722768D01*
X0399623Y0722818D01*
X0399934Y0722860D01*
X0400246Y0722894D01*
X0400559Y0722921D01*
X0400872Y0722941D01*
X0401186Y0722952D01*
X0401500Y0722956D01*
X0401814Y0722952D01*
X0402128Y0722941D01*
X0402441Y0722921D01*
X0402754Y0722894D01*
X0403066Y0722860D01*
X0403377Y0722818D01*
X0403687Y0722768D01*
X0403996Y0722710D01*
X0404303Y0722645D01*
X0404609Y0722573D01*
X0404913Y0722493D01*
X0405214Y0722405D01*
X0405514Y0722310D01*
X0405811Y0722208D01*
X0406105Y0722099D01*
X0406396Y0721982D01*
X0406685Y0721858D01*
X0406971Y0721728D01*
X0407253Y0721590D01*
X0407532Y0721445D01*
X0407807Y0721294D01*
X0408078Y0721136D01*
X0408345Y0720971D01*
X0408609Y0720800D01*
X0408867Y0720622D01*
X0409122Y0720438D01*
X0409372Y0720248D01*
X0409617Y0720052D01*
X0409857Y0719849D01*
X0410093Y0719641D01*
X0410323Y0719428D01*
X0410547Y0719208D01*
X0410767Y0718984D01*
X0410980Y0718754D01*
X0411188Y0718518D01*
X0411391Y0718278D01*
X0411587Y0718033D01*
X0411777Y0717783D01*
X0411961Y0717528D01*
X0412139Y0717270D01*
X0412310Y0717006D01*
X0412475Y0716739D01*
X0412633Y0716468D01*
X0412784Y0716193D01*
X0412929Y0715914D01*
X0413067Y0715632D01*
X0413197Y0715346D01*
X0413321Y0715057D01*
X0413438Y0714766D01*
X0413547Y0714472D01*
X0413649Y0714175D01*
X0413744Y0713875D01*
X0413832Y0713574D01*
X0413912Y0713270D01*
X0413984Y0712964D01*
X0414049Y0712657D01*
X0414107Y0712348D01*
X0414157Y0712038D01*
X0414199Y0711727D01*
X0414233Y0711415D01*
X0414260Y0711102D01*
X0414280Y0710789D01*
X0414291Y0710475D01*
X0414295Y0710161D01*
X0414291Y0709847D01*
X0414280Y0709533D01*
X0414260Y0709220D01*
X0414233Y0708907D01*
X0414199Y0708595D01*
X0414157Y0708284D01*
X0414107Y0707974D01*
X0414049Y0707665D01*
X0413984Y0707358D01*
X0413912Y0707052D01*
X0413832Y0706748D01*
X0413744Y0706447D01*
X0413649Y0706147D01*
X0413547Y0705850D01*
X0413438Y0705556D01*
X0413321Y0705265D01*
X0413197Y0704976D01*
X0413067Y0704690D01*
X0412929Y0704408D01*
X0412784Y0704129D01*
X0412633Y0703854D01*
X0412475Y0703583D01*
X0412310Y0703316D01*
X0412139Y0703052D01*
X0411961Y0702794D01*
X0411777Y0702539D01*
X0411587Y0702289D01*
X0411391Y0702044D01*
X0411188Y0701804D01*
X0410980Y0701568D01*
X0410767Y0701338D01*
X0410547Y0701114D01*
X0410323Y0700894D01*
X0410093Y0700681D01*
X0409857Y0700473D01*
X0409617Y0700270D01*
X0409372Y0700074D01*
X0409122Y0699884D01*
X0408867Y0699700D01*
X0408609Y0699522D01*
X0408345Y0699351D01*
X0408078Y0699186D01*
X0407807Y0699028D01*
X0407532Y0698877D01*
X0407253Y0698732D01*
X0406971Y0698594D01*
X0406685Y0698464D01*
X0406396Y0698340D01*
X0406105Y0698223D01*
X0405811Y0698114D01*
X0405514Y0698012D01*
X0405214Y0697917D01*
X0404913Y0697829D01*
X0404609Y0697749D01*
X0404303Y0697677D01*
X0403996Y0697612D01*
X0403687Y0697554D01*
X0403377Y0697504D01*
X0403066Y0697462D01*
X0402754Y0697428D01*
X0402441Y0697401D01*
X0402128Y0697381D01*
X0401814Y0697370D01*
X0401500Y0697366D01*
X0401186Y0697370D01*
X0400872Y0697381D01*
X0400559Y0697401D01*
X0400246Y0697428D01*
X0399934Y0697462D01*
X0399623Y0697504D01*
X0399313Y0697554D01*
X0399004Y0697612D01*
X0398697Y0697677D01*
X0398391Y0697749D01*
X0398087Y0697829D01*
X0397786Y0697917D01*
X0397486Y0698012D01*
X0397189Y0698114D01*
X0396895Y0698223D01*
X0396604Y0698340D01*
X0396315Y0698464D01*
X0396029Y0698594D01*
X0395747Y0698732D01*
X0395468Y0698877D01*
X0395193Y0699028D01*
X0394922Y0699186D01*
X0394655Y0699351D01*
X0394391Y0699522D01*
X0394133Y0699700D01*
X0393878Y0699884D01*
X0393628Y0700074D01*
X0393383Y0700270D01*
X0393143Y0700473D01*
X0392907Y0700681D01*
X0392677Y0700894D01*
X0392453Y0701114D01*
X0392233Y0701338D01*
X0392020Y0701568D01*
X0391812Y0701804D01*
X0391609Y0702044D01*
X0391413Y0702289D01*
X0391223Y0702539D01*
X0391039Y0702794D01*
X0390861Y0703052D01*
X0390690Y0703316D01*
X0390525Y0703583D01*
X0390367Y0703854D01*
X0390216Y0704129D01*
X0390071Y0704408D01*
X0389933Y0704690D01*
X0389803Y0704976D01*
X0389679Y0705265D01*
X0389562Y0705556D01*
X0389453Y0705850D01*
X0389351Y0706147D01*
X0389256Y0706447D01*
X0389168Y0706748D01*
X0389088Y0707052D01*
X0389016Y0707358D01*
X0388951Y0707665D01*
X0388893Y0707974D01*
X0388843Y0708284D01*
X0388801Y0708595D01*
X0388767Y0708907D01*
X0388740Y0709220D01*
X0388720Y0709533D01*
X0388709Y0709847D01*
X0388705Y0710161D01*
X0337130Y0729846D02*
X0337132Y0730015D01*
X0337138Y0730184D01*
X0337149Y0730353D01*
X0337163Y0730521D01*
X0337182Y0730689D01*
X0337205Y0730857D01*
X0337231Y0731024D01*
X0337262Y0731190D01*
X0337297Y0731356D01*
X0337336Y0731520D01*
X0337380Y0731684D01*
X0337427Y0731846D01*
X0337478Y0732007D01*
X0337533Y0732167D01*
X0337592Y0732326D01*
X0337654Y0732483D01*
X0337721Y0732638D01*
X0337792Y0732792D01*
X0337866Y0732944D01*
X0337944Y0733094D01*
X0338025Y0733242D01*
X0338110Y0733388D01*
X0338199Y0733532D01*
X0338291Y0733674D01*
X0338387Y0733813D01*
X0338486Y0733950D01*
X0338588Y0734085D01*
X0338694Y0734217D01*
X0338803Y0734346D01*
X0338915Y0734473D01*
X0339030Y0734597D01*
X0339148Y0734718D01*
X0339269Y0734836D01*
X0339393Y0734951D01*
X0339520Y0735063D01*
X0339649Y0735172D01*
X0339781Y0735278D01*
X0339916Y0735380D01*
X0340053Y0735479D01*
X0340192Y0735575D01*
X0340334Y0735667D01*
X0340478Y0735756D01*
X0340624Y0735841D01*
X0340772Y0735922D01*
X0340922Y0736000D01*
X0341074Y0736074D01*
X0341228Y0736145D01*
X0341383Y0736212D01*
X0341540Y0736274D01*
X0341699Y0736333D01*
X0341859Y0736388D01*
X0342020Y0736439D01*
X0342182Y0736486D01*
X0342346Y0736530D01*
X0342510Y0736569D01*
X0342676Y0736604D01*
X0342842Y0736635D01*
X0343009Y0736661D01*
X0343177Y0736684D01*
X0343345Y0736703D01*
X0343513Y0736717D01*
X0343682Y0736728D01*
X0343851Y0736734D01*
X0344020Y0736736D01*
X0344189Y0736734D01*
X0344358Y0736728D01*
X0344527Y0736717D01*
X0344695Y0736703D01*
X0344863Y0736684D01*
X0345031Y0736661D01*
X0345198Y0736635D01*
X0345364Y0736604D01*
X0345530Y0736569D01*
X0345694Y0736530D01*
X0345858Y0736486D01*
X0346020Y0736439D01*
X0346181Y0736388D01*
X0346341Y0736333D01*
X0346500Y0736274D01*
X0346657Y0736212D01*
X0346812Y0736145D01*
X0346966Y0736074D01*
X0347118Y0736000D01*
X0347268Y0735922D01*
X0347416Y0735841D01*
X0347562Y0735756D01*
X0347706Y0735667D01*
X0347848Y0735575D01*
X0347987Y0735479D01*
X0348124Y0735380D01*
X0348259Y0735278D01*
X0348391Y0735172D01*
X0348520Y0735063D01*
X0348647Y0734951D01*
X0348771Y0734836D01*
X0348892Y0734718D01*
X0349010Y0734597D01*
X0349125Y0734473D01*
X0349237Y0734346D01*
X0349346Y0734217D01*
X0349452Y0734085D01*
X0349554Y0733950D01*
X0349653Y0733813D01*
X0349749Y0733674D01*
X0349841Y0733532D01*
X0349930Y0733388D01*
X0350015Y0733242D01*
X0350096Y0733094D01*
X0350174Y0732944D01*
X0350248Y0732792D01*
X0350319Y0732638D01*
X0350386Y0732483D01*
X0350448Y0732326D01*
X0350507Y0732167D01*
X0350562Y0732007D01*
X0350613Y0731846D01*
X0350660Y0731684D01*
X0350704Y0731520D01*
X0350743Y0731356D01*
X0350778Y0731190D01*
X0350809Y0731024D01*
X0350835Y0730857D01*
X0350858Y0730689D01*
X0350877Y0730521D01*
X0350891Y0730353D01*
X0350902Y0730184D01*
X0350908Y0730015D01*
X0350910Y0729846D01*
X0350908Y0729677D01*
X0350902Y0729508D01*
X0350891Y0729339D01*
X0350877Y0729171D01*
X0350858Y0729003D01*
X0350835Y0728835D01*
X0350809Y0728668D01*
X0350778Y0728502D01*
X0350743Y0728336D01*
X0350704Y0728172D01*
X0350660Y0728008D01*
X0350613Y0727846D01*
X0350562Y0727685D01*
X0350507Y0727525D01*
X0350448Y0727366D01*
X0350386Y0727209D01*
X0350319Y0727054D01*
X0350248Y0726900D01*
X0350174Y0726748D01*
X0350096Y0726598D01*
X0350015Y0726450D01*
X0349930Y0726304D01*
X0349841Y0726160D01*
X0349749Y0726018D01*
X0349653Y0725879D01*
X0349554Y0725742D01*
X0349452Y0725607D01*
X0349346Y0725475D01*
X0349237Y0725346D01*
X0349125Y0725219D01*
X0349010Y0725095D01*
X0348892Y0724974D01*
X0348771Y0724856D01*
X0348647Y0724741D01*
X0348520Y0724629D01*
X0348391Y0724520D01*
X0348259Y0724414D01*
X0348124Y0724312D01*
X0347987Y0724213D01*
X0347848Y0724117D01*
X0347706Y0724025D01*
X0347562Y0723936D01*
X0347416Y0723851D01*
X0347268Y0723770D01*
X0347118Y0723692D01*
X0346966Y0723618D01*
X0346812Y0723547D01*
X0346657Y0723480D01*
X0346500Y0723418D01*
X0346341Y0723359D01*
X0346181Y0723304D01*
X0346020Y0723253D01*
X0345858Y0723206D01*
X0345694Y0723162D01*
X0345530Y0723123D01*
X0345364Y0723088D01*
X0345198Y0723057D01*
X0345031Y0723031D01*
X0344863Y0723008D01*
X0344695Y0722989D01*
X0344527Y0722975D01*
X0344358Y0722964D01*
X0344189Y0722958D01*
X0344020Y0722956D01*
X0343851Y0722958D01*
X0343682Y0722964D01*
X0343513Y0722975D01*
X0343345Y0722989D01*
X0343177Y0723008D01*
X0343009Y0723031D01*
X0342842Y0723057D01*
X0342676Y0723088D01*
X0342510Y0723123D01*
X0342346Y0723162D01*
X0342182Y0723206D01*
X0342020Y0723253D01*
X0341859Y0723304D01*
X0341699Y0723359D01*
X0341540Y0723418D01*
X0341383Y0723480D01*
X0341228Y0723547D01*
X0341074Y0723618D01*
X0340922Y0723692D01*
X0340772Y0723770D01*
X0340624Y0723851D01*
X0340478Y0723936D01*
X0340334Y0724025D01*
X0340192Y0724117D01*
X0340053Y0724213D01*
X0339916Y0724312D01*
X0339781Y0724414D01*
X0339649Y0724520D01*
X0339520Y0724629D01*
X0339393Y0724741D01*
X0339269Y0724856D01*
X0339148Y0724974D01*
X0339030Y0725095D01*
X0338915Y0725219D01*
X0338803Y0725346D01*
X0338694Y0725475D01*
X0338588Y0725607D01*
X0338486Y0725742D01*
X0338387Y0725879D01*
X0338291Y0726018D01*
X0338199Y0726160D01*
X0338110Y0726304D01*
X0338025Y0726450D01*
X0337944Y0726598D01*
X0337866Y0726748D01*
X0337792Y0726900D01*
X0337721Y0727054D01*
X0337654Y0727209D01*
X0337592Y0727366D01*
X0337533Y0727525D01*
X0337478Y0727685D01*
X0337427Y0727846D01*
X0337380Y0728008D01*
X0337336Y0728172D01*
X0337297Y0728336D01*
X0337262Y0728502D01*
X0337231Y0728668D01*
X0337205Y0728835D01*
X0337182Y0729003D01*
X0337163Y0729171D01*
X0337149Y0729339D01*
X0337138Y0729508D01*
X0337132Y0729677D01*
X0337130Y0729846D01*
X0159964Y0395201D02*
X0159966Y0395370D01*
X0159972Y0395539D01*
X0159983Y0395708D01*
X0159997Y0395876D01*
X0160016Y0396044D01*
X0160039Y0396212D01*
X0160065Y0396379D01*
X0160096Y0396545D01*
X0160131Y0396711D01*
X0160170Y0396875D01*
X0160214Y0397039D01*
X0160261Y0397201D01*
X0160312Y0397362D01*
X0160367Y0397522D01*
X0160426Y0397681D01*
X0160488Y0397838D01*
X0160555Y0397993D01*
X0160626Y0398147D01*
X0160700Y0398299D01*
X0160778Y0398449D01*
X0160859Y0398597D01*
X0160944Y0398743D01*
X0161033Y0398887D01*
X0161125Y0399029D01*
X0161221Y0399168D01*
X0161320Y0399305D01*
X0161422Y0399440D01*
X0161528Y0399572D01*
X0161637Y0399701D01*
X0161749Y0399828D01*
X0161864Y0399952D01*
X0161982Y0400073D01*
X0162103Y0400191D01*
X0162227Y0400306D01*
X0162354Y0400418D01*
X0162483Y0400527D01*
X0162615Y0400633D01*
X0162750Y0400735D01*
X0162887Y0400834D01*
X0163026Y0400930D01*
X0163168Y0401022D01*
X0163312Y0401111D01*
X0163458Y0401196D01*
X0163606Y0401277D01*
X0163756Y0401355D01*
X0163908Y0401429D01*
X0164062Y0401500D01*
X0164217Y0401567D01*
X0164374Y0401629D01*
X0164533Y0401688D01*
X0164693Y0401743D01*
X0164854Y0401794D01*
X0165016Y0401841D01*
X0165180Y0401885D01*
X0165344Y0401924D01*
X0165510Y0401959D01*
X0165676Y0401990D01*
X0165843Y0402016D01*
X0166011Y0402039D01*
X0166179Y0402058D01*
X0166347Y0402072D01*
X0166516Y0402083D01*
X0166685Y0402089D01*
X0166854Y0402091D01*
X0167023Y0402089D01*
X0167192Y0402083D01*
X0167361Y0402072D01*
X0167529Y0402058D01*
X0167697Y0402039D01*
X0167865Y0402016D01*
X0168032Y0401990D01*
X0168198Y0401959D01*
X0168364Y0401924D01*
X0168528Y0401885D01*
X0168692Y0401841D01*
X0168854Y0401794D01*
X0169015Y0401743D01*
X0169175Y0401688D01*
X0169334Y0401629D01*
X0169491Y0401567D01*
X0169646Y0401500D01*
X0169800Y0401429D01*
X0169952Y0401355D01*
X0170102Y0401277D01*
X0170250Y0401196D01*
X0170396Y0401111D01*
X0170540Y0401022D01*
X0170682Y0400930D01*
X0170821Y0400834D01*
X0170958Y0400735D01*
X0171093Y0400633D01*
X0171225Y0400527D01*
X0171354Y0400418D01*
X0171481Y0400306D01*
X0171605Y0400191D01*
X0171726Y0400073D01*
X0171844Y0399952D01*
X0171959Y0399828D01*
X0172071Y0399701D01*
X0172180Y0399572D01*
X0172286Y0399440D01*
X0172388Y0399305D01*
X0172487Y0399168D01*
X0172583Y0399029D01*
X0172675Y0398887D01*
X0172764Y0398743D01*
X0172849Y0398597D01*
X0172930Y0398449D01*
X0173008Y0398299D01*
X0173082Y0398147D01*
X0173153Y0397993D01*
X0173220Y0397838D01*
X0173282Y0397681D01*
X0173341Y0397522D01*
X0173396Y0397362D01*
X0173447Y0397201D01*
X0173494Y0397039D01*
X0173538Y0396875D01*
X0173577Y0396711D01*
X0173612Y0396545D01*
X0173643Y0396379D01*
X0173669Y0396212D01*
X0173692Y0396044D01*
X0173711Y0395876D01*
X0173725Y0395708D01*
X0173736Y0395539D01*
X0173742Y0395370D01*
X0173744Y0395201D01*
X0173742Y0395032D01*
X0173736Y0394863D01*
X0173725Y0394694D01*
X0173711Y0394526D01*
X0173692Y0394358D01*
X0173669Y0394190D01*
X0173643Y0394023D01*
X0173612Y0393857D01*
X0173577Y0393691D01*
X0173538Y0393527D01*
X0173494Y0393363D01*
X0173447Y0393201D01*
X0173396Y0393040D01*
X0173341Y0392880D01*
X0173282Y0392721D01*
X0173220Y0392564D01*
X0173153Y0392409D01*
X0173082Y0392255D01*
X0173008Y0392103D01*
X0172930Y0391953D01*
X0172849Y0391805D01*
X0172764Y0391659D01*
X0172675Y0391515D01*
X0172583Y0391373D01*
X0172487Y0391234D01*
X0172388Y0391097D01*
X0172286Y0390962D01*
X0172180Y0390830D01*
X0172071Y0390701D01*
X0171959Y0390574D01*
X0171844Y0390450D01*
X0171726Y0390329D01*
X0171605Y0390211D01*
X0171481Y0390096D01*
X0171354Y0389984D01*
X0171225Y0389875D01*
X0171093Y0389769D01*
X0170958Y0389667D01*
X0170821Y0389568D01*
X0170682Y0389472D01*
X0170540Y0389380D01*
X0170396Y0389291D01*
X0170250Y0389206D01*
X0170102Y0389125D01*
X0169952Y0389047D01*
X0169800Y0388973D01*
X0169646Y0388902D01*
X0169491Y0388835D01*
X0169334Y0388773D01*
X0169175Y0388714D01*
X0169015Y0388659D01*
X0168854Y0388608D01*
X0168692Y0388561D01*
X0168528Y0388517D01*
X0168364Y0388478D01*
X0168198Y0388443D01*
X0168032Y0388412D01*
X0167865Y0388386D01*
X0167697Y0388363D01*
X0167529Y0388344D01*
X0167361Y0388330D01*
X0167192Y0388319D01*
X0167023Y0388313D01*
X0166854Y0388311D01*
X0166685Y0388313D01*
X0166516Y0388319D01*
X0166347Y0388330D01*
X0166179Y0388344D01*
X0166011Y0388363D01*
X0165843Y0388386D01*
X0165676Y0388412D01*
X0165510Y0388443D01*
X0165344Y0388478D01*
X0165180Y0388517D01*
X0165016Y0388561D01*
X0164854Y0388608D01*
X0164693Y0388659D01*
X0164533Y0388714D01*
X0164374Y0388773D01*
X0164217Y0388835D01*
X0164062Y0388902D01*
X0163908Y0388973D01*
X0163756Y0389047D01*
X0163606Y0389125D01*
X0163458Y0389206D01*
X0163312Y0389291D01*
X0163168Y0389380D01*
X0163026Y0389472D01*
X0162887Y0389568D01*
X0162750Y0389667D01*
X0162615Y0389769D01*
X0162483Y0389875D01*
X0162354Y0389984D01*
X0162227Y0390096D01*
X0162103Y0390211D01*
X0161982Y0390329D01*
X0161864Y0390450D01*
X0161749Y0390574D01*
X0161637Y0390701D01*
X0161528Y0390830D01*
X0161422Y0390962D01*
X0161320Y0391097D01*
X0161221Y0391234D01*
X0161125Y0391373D01*
X0161033Y0391515D01*
X0160944Y0391659D01*
X0160859Y0391805D01*
X0160778Y0391953D01*
X0160700Y0392103D01*
X0160626Y0392255D01*
X0160555Y0392409D01*
X0160488Y0392564D01*
X0160426Y0392721D01*
X0160367Y0392880D01*
X0160312Y0393040D01*
X0160261Y0393201D01*
X0160214Y0393363D01*
X0160170Y0393527D01*
X0160131Y0393691D01*
X0160096Y0393857D01*
X0160065Y0394023D01*
X0160039Y0394190D01*
X0160016Y0394358D01*
X0159997Y0394526D01*
X0159983Y0394694D01*
X0159972Y0394863D01*
X0159966Y0395032D01*
X0159964Y0395201D01*
M02*
