G75*
%MOIN*%
%OFA0B0*%
%FSLAX25Y25*%
%IPPOS*%
%LPD*%
%AMOC8*
5,1,8,0,0,1.08239X$1,22.5*
%
%ADD10C,0.00794*%
%ADD11C,0.10668*%
%ADD12C,0.01187*%
%ADD13C,0.01772*%
%ADD14C,0.01181*%
%ADD15C,0.00200*%
%ADD16C,0.00787*%
D10*
X0169307Y0049701D03*
X0168441Y0053008D03*
X0168283Y0057890D03*
X0173835Y0055291D03*
X0175540Y0057772D03*
X0181748Y0058598D03*
X0181827Y0061354D03*
X0185449Y0063087D03*
X0184976Y0065094D03*
X0188913Y0064898D03*
X0190399Y0064011D03*
X0192063Y0064504D03*
X0189110Y0062732D03*
X0189504Y0060961D03*
X0186945Y0060173D03*
X0185213Y0058520D03*
X0186157Y0053677D03*
X0184583Y0053087D03*
X0189701Y0054071D03*
X0191079Y0053677D03*
X0193244Y0055252D03*
X0196197Y0055843D03*
X0197575Y0054071D03*
X0199150Y0053677D03*
X0201118Y0053283D03*
X0205055Y0053480D03*
X0207417Y0053087D03*
X0212142Y0053874D03*
X0211433Y0055882D03*
X0215134Y0053913D03*
X0220449Y0053756D03*
X0221157Y0057457D03*
X0227024Y0057693D03*
X0226787Y0061354D03*
X0222693Y0067287D03*
X0225528Y0068638D03*
X0221847Y0072181D03*
X0218638Y0073362D03*
X0221197Y0075993D03*
X0223808Y0076591D03*
X0225134Y0077693D03*
X0227496Y0076512D03*
X0222772Y0079799D03*
X0219819Y0078520D03*
X0219819Y0082063D03*
X0218559Y0084071D03*
X0216866Y0085567D03*
X0216079Y0086945D03*
X0214898Y0085567D03*
X0214898Y0083598D03*
X0212929Y0083598D03*
X0211945Y0084937D03*
X0212929Y0085370D03*
X0210961Y0085370D03*
X0208992Y0085567D03*
X0209386Y0087010D03*
X0207024Y0089504D03*
X0207516Y0090980D03*
X0208598Y0090685D03*
X0208992Y0092260D03*
X0210961Y0093441D03*
X0211039Y0095843D03*
X0208992Y0095606D03*
X0208992Y0097378D03*
X0208992Y0099346D03*
X0207024Y0099346D03*
X0205055Y0099346D03*
X0203480Y0100560D03*
X0203087Y0103283D03*
X0206236Y0102299D03*
X0207024Y0103283D03*
X0208992Y0103283D03*
X0210961Y0103283D03*
X0212929Y0103283D03*
X0210961Y0105265D03*
X0208795Y0105449D03*
X0210961Y0100921D03*
X0212944Y0099354D03*
X0214898Y0099346D03*
X0216472Y0101118D03*
X0216866Y0103302D03*
X0215843Y0105540D03*
X0220016Y0105658D03*
X0221197Y0106827D03*
X0220606Y0108205D03*
X0222772Y0108796D03*
X0223756Y0106827D03*
X0226512Y0108205D03*
X0224740Y0110501D03*
X0226827Y0111190D03*
X0220409Y0110501D03*
X0218362Y0110685D03*
X0213913Y0115619D03*
X0213126Y0116603D03*
X0212535Y0117587D03*
X0211945Y0116603D03*
X0207811Y0114898D03*
X0205724Y0117299D03*
X0201591Y0115528D03*
X0198638Y0118087D03*
X0194701Y0120449D03*
X0192732Y0119858D03*
X0190882Y0120835D03*
X0185606Y0119898D03*
X0183913Y0119425D03*
X0182102Y0115528D03*
X0181638Y0113622D03*
X0179150Y0112378D03*
X0179346Y0109228D03*
X0182496Y0109425D03*
X0183795Y0107220D03*
X0185587Y0107161D03*
X0185093Y0105608D03*
X0188126Y0107220D03*
X0185685Y0110134D03*
X0181866Y0103639D03*
X0183008Y0098953D03*
X0183008Y0096984D03*
X0183008Y0095016D03*
X0183008Y0093047D03*
X0183008Y0091079D03*
X0180646Y0091079D03*
X0180646Y0093047D03*
X0180646Y0095016D03*
X0180646Y0096984D03*
X0180646Y0098953D03*
X0185370Y0098953D03*
X0185370Y0096984D03*
X0185370Y0095016D03*
X0185370Y0093047D03*
X0190094Y0098165D03*
X0186591Y0101924D03*
X0195488Y0100567D03*
X0195526Y0104033D03*
X0197850Y0104110D03*
X0196827Y0097142D03*
X0195764Y0094425D03*
X0197575Y0093441D03*
X0196000Y0090488D03*
X0194419Y0088709D03*
X0194066Y0087343D03*
X0193441Y0085921D03*
X0193835Y0082811D03*
X0193047Y0081827D03*
X0193638Y0080843D03*
X0192063Y0082575D03*
X0188913Y0082857D03*
X0187732Y0083008D03*
X0185764Y0082811D03*
X0184583Y0081236D03*
X0182890Y0081315D03*
X0182220Y0082811D03*
X0183795Y0083008D03*
X0179858Y0083008D03*
X0178165Y0081866D03*
X0175921Y0082405D03*
X0171984Y0080449D03*
X0171315Y0082378D03*
X0170016Y0083598D03*
X0171027Y0088717D03*
X0170291Y0091551D03*
X0168520Y0092535D03*
X0171039Y0095409D03*
X0168559Y0097339D03*
X0168441Y0100291D03*
X0169630Y0102598D03*
X0168323Y0104661D03*
X0170094Y0106276D03*
X0168835Y0109189D03*
X0172181Y0110764D03*
X0173441Y0109622D03*
X0175409Y0111000D03*
X0173008Y0101906D03*
X0175554Y0099346D03*
X0182024Y0086748D03*
X0179858Y0076512D03*
X0177890Y0076512D03*
X0177102Y0069819D03*
X0174819Y0062181D03*
X0168441Y0062772D03*
X0175921Y0052890D03*
X0196394Y0063323D03*
X0196787Y0065094D03*
X0199150Y0065488D03*
X0202489Y0065692D03*
X0204661Y0065488D03*
X0202339Y0062811D03*
X0198168Y0058795D03*
X0208992Y0061157D03*
X0210961Y0063191D03*
X0212654Y0064925D03*
X0217260Y0065094D03*
X0210567Y0069109D03*
X0208598Y0069425D03*
X0213949Y0071498D03*
X0213677Y0072575D03*
X0209780Y0076118D03*
X0204661Y0079071D03*
X0202417Y0076630D03*
X0199110Y0076512D03*
X0199150Y0077693D03*
X0197732Y0076743D03*
X0196000Y0076906D03*
X0196000Y0079268D03*
X0196787Y0082811D03*
X0199150Y0081630D03*
X0201197Y0081709D03*
X0201709Y0084976D03*
X0202181Y0086065D03*
X0201709Y0087035D03*
X0200724Y0089504D03*
X0201118Y0091472D03*
X0203087Y0092063D03*
X0202693Y0090094D03*
X0205055Y0087535D03*
X0205055Y0085567D03*
X0205055Y0083598D03*
X0207024Y0083598D03*
X0210653Y0081341D03*
X0216893Y0080764D03*
X0219898Y0086591D03*
X0222535Y0085606D03*
X0226039Y0088441D03*
X0227535Y0091906D03*
X0227457Y0095252D03*
X0227417Y0099701D03*
X0226709Y0101315D03*
X0226709Y0103283D03*
X0219189Y0102220D03*
X0220803Y0097378D03*
X0222590Y0095228D03*
X0217654Y0096197D03*
X0216945Y0094071D03*
X0216866Y0092260D03*
X0216079Y0090882D03*
X0216866Y0089898D03*
X0212929Y0089504D03*
X0214898Y0093441D03*
X0214898Y0096000D03*
X0206236Y0094386D03*
X0205055Y0093441D03*
X0203874Y0097181D03*
X0200528Y0096197D03*
X0189701Y0076906D03*
X0189701Y0075724D03*
X0188670Y0074851D03*
X0186551Y0077102D03*
X0192378Y0073980D03*
X0193816Y0074524D03*
X0197557Y0071246D03*
X0198283Y0072012D03*
X0197181Y0070016D03*
X0201315Y0072969D03*
X0187935Y0069851D03*
X0226669Y0083323D03*
X0227260Y0052850D03*
X0226000Y0050055D03*
X0213638Y0124858D03*
X0211866Y0125252D03*
X0201709Y0125068D03*
D11*
X0221591Y0119425D03*
X0174346Y0119425D03*
D12*
X0187969Y0124228D03*
X0192969Y0124228D03*
X0195691Y0114701D03*
X0197784Y0110094D03*
X0200331Y0109925D03*
X0207955Y0117063D03*
X0215888Y0112339D03*
X0213782Y0106720D03*
X0222640Y0097614D03*
X0223113Y0093047D03*
X0223126Y0088756D03*
X0222489Y0083441D03*
X0222181Y0074150D03*
X0220409Y0065488D03*
X0215685Y0063126D03*
X0218480Y0054937D03*
X0221630Y0049583D03*
X0202260Y0069976D03*
X0191079Y0069622D03*
X0184583Y0075921D03*
X0175528Y0065094D03*
X0174346Y0049740D03*
X0175239Y0091315D03*
X0175554Y0096972D03*
X0174661Y0103756D03*
X0190540Y0093441D03*
D13*
X0181827Y0107614D03*
X0179268Y0063913D03*
X0179071Y0054268D03*
D14*
X0179071Y0063913D01*
X0179268Y0063913D01*
D15*
X0184976Y0065094D02*
X0184976Y0070055D01*
X0187811Y0072890D01*
X0194622Y0072890D01*
X0197417Y0075685D01*
X0198283Y0075685D01*
X0199110Y0076512D01*
X0200646Y0076630D02*
X0188913Y0064898D01*
X0190399Y0065112D02*
X0190399Y0064011D01*
X0190399Y0065112D02*
X0200174Y0074888D01*
X0202348Y0074888D01*
X0203783Y0076323D01*
X0203783Y0085870D01*
X0204661Y0086748D01*
X0207811Y0086748D01*
X0208992Y0085567D01*
X0210212Y0085370D02*
X0207850Y0083008D01*
X0207850Y0073401D01*
X0199937Y0065488D01*
X0199150Y0065488D01*
X0196787Y0065094D02*
X0200232Y0068539D01*
X0202086Y0068539D01*
X0203579Y0070031D01*
X0203579Y0071886D01*
X0207024Y0075331D01*
X0207024Y0083598D01*
X0206236Y0084386D02*
X0206236Y0075724D01*
X0186157Y0055646D01*
X0186157Y0053677D01*
X0184583Y0053087D02*
X0185961Y0051709D01*
X0193167Y0051709D01*
X0210567Y0069109D01*
X0209681Y0069522D02*
X0209681Y0070508D01*
X0211354Y0072181D01*
X0211354Y0076315D01*
X0214996Y0079957D01*
X0214996Y0083500D01*
X0214898Y0083598D01*
X0213913Y0084386D02*
X0212929Y0085370D01*
X0211945Y0084937D02*
X0210449Y0083441D01*
X0209622Y0083441D01*
X0208598Y0082417D01*
X0208598Y0072969D01*
X0189701Y0054071D01*
X0193244Y0055252D02*
X0210764Y0072772D01*
X0210764Y0077890D01*
X0213913Y0081039D01*
X0213913Y0084386D01*
X0212929Y0083598D02*
X0212929Y0083402D01*
X0212142Y0082614D01*
X0210370Y0082614D01*
X0209386Y0081630D01*
X0209386Y0076710D01*
X0209083Y0076407D01*
X0209083Y0075829D01*
X0209386Y0075526D01*
X0209386Y0072589D01*
X0202489Y0065692D01*
X0202503Y0065692D01*
X0204661Y0065488D02*
X0206728Y0067555D01*
X0207714Y0067555D01*
X0209681Y0069522D01*
X0212142Y0068638D02*
X0212142Y0075724D01*
X0215882Y0079465D01*
X0215882Y0084583D01*
X0214898Y0085567D01*
X0215685Y0084780D01*
X0216866Y0085567D02*
X0216866Y0082614D01*
X0217654Y0081827D01*
X0217654Y0077890D01*
X0212929Y0073165D01*
X0212929Y0067654D01*
X0210961Y0065685D01*
X0210961Y0063191D01*
X0214209Y0062831D02*
X0210961Y0059583D01*
X0207417Y0059583D01*
X0201118Y0053283D01*
X0197575Y0054071D02*
X0212142Y0068638D01*
X0214209Y0066374D02*
X0214209Y0062831D01*
X0214209Y0066374D02*
X0215685Y0067850D01*
X0215685Y0073165D01*
X0218835Y0076315D01*
X0218835Y0083795D01*
X0218559Y0084071D01*
X0218539Y0085272D02*
X0218539Y0087339D01*
X0217225Y0088653D01*
X0206172Y0088653D01*
X0205055Y0087535D01*
X0203480Y0087929D02*
X0208205Y0092654D01*
X0208205Y0094819D01*
X0208992Y0095606D01*
X0209681Y0096492D02*
X0204200Y0096492D01*
X0194355Y0086647D01*
X0192702Y0086647D01*
X0188913Y0082857D01*
X0188789Y0081748D02*
X0191962Y0084920D01*
X0193582Y0084920D01*
X0198953Y0090291D01*
X0201315Y0090291D01*
X0203087Y0092063D01*
X0206236Y0091866D02*
X0203087Y0088717D01*
X0200331Y0088717D01*
X0194819Y0083205D01*
X0194819Y0080646D01*
X0193047Y0078874D01*
X0191669Y0078874D01*
X0189701Y0076906D01*
X0189701Y0075724D02*
X0191079Y0075724D01*
X0196000Y0080646D01*
X0196000Y0083205D01*
X0200724Y0087929D01*
X0203480Y0087929D01*
X0201709Y0087035D02*
X0201030Y0087035D01*
X0197671Y0083676D01*
X0197575Y0083598D01*
X0197575Y0079071D01*
X0196591Y0078087D01*
X0194622Y0078087D01*
X0194031Y0077496D01*
X0194031Y0075134D01*
X0193835Y0074937D01*
X0193638Y0074937D01*
X0193816Y0074759D01*
X0193816Y0074524D01*
X0193638Y0074937D02*
X0188756Y0074937D01*
X0188670Y0074851D01*
X0191251Y0079858D02*
X0183598Y0072206D01*
X0183598Y0050724D01*
X0184386Y0049937D01*
X0199543Y0049937D01*
X0207811Y0058205D01*
X0213323Y0058205D01*
X0218957Y0063839D01*
X0218957Y0073043D01*
X0218638Y0073362D01*
X0221847Y0072181D02*
X0219357Y0069691D01*
X0219357Y0063648D01*
X0213520Y0057811D01*
X0213495Y0057811D01*
X0213489Y0057805D01*
X0207977Y0057805D01*
X0199709Y0049537D01*
X0184220Y0049537D01*
X0183198Y0050559D01*
X0183198Y0072372D01*
X0192063Y0081236D01*
X0192063Y0082575D01*
X0192220Y0083953D02*
X0193638Y0083953D01*
X0199189Y0089504D01*
X0200724Y0089504D01*
X0197969Y0092260D02*
X0196786Y0092260D01*
X0187732Y0083206D01*
X0187732Y0083008D01*
X0188047Y0081748D02*
X0188789Y0081748D01*
X0188047Y0081748D02*
X0185567Y0079268D01*
X0180646Y0079268D01*
X0177890Y0076512D01*
X0179858Y0076512D02*
X0182024Y0078677D01*
X0185961Y0078677D01*
X0188323Y0081039D01*
X0189307Y0081039D01*
X0192220Y0083953D01*
X0193638Y0080843D02*
X0192654Y0079858D01*
X0191251Y0079858D01*
X0185764Y0082811D02*
X0185764Y0082909D01*
X0194967Y0092112D01*
X0194967Y0092642D01*
X0200317Y0097993D01*
X0202201Y0097993D01*
X0204858Y0100651D01*
X0206359Y0100651D01*
X0208992Y0103283D01*
X0210961Y0103283D02*
X0207909Y0100232D01*
X0207909Y0098854D01*
X0207417Y0098362D01*
X0204071Y0098362D01*
X0203587Y0097878D01*
X0203585Y0097878D01*
X0203177Y0097470D01*
X0203177Y0097469D01*
X0197969Y0092260D01*
X0194032Y0092654D02*
X0194032Y0095921D01*
X0200409Y0102299D01*
X0206236Y0102299D01*
X0208598Y0105252D02*
X0195061Y0105252D01*
X0191911Y0102102D01*
X0191911Y0092873D01*
X0186551Y0087513D01*
X0184363Y0087513D01*
X0179858Y0083008D01*
X0182220Y0082811D02*
X0182220Y0083372D01*
X0185203Y0086354D01*
X0186551Y0086354D01*
X0192850Y0092654D01*
X0192850Y0100134D01*
X0195213Y0102496D01*
X0198756Y0102496D01*
X0200331Y0104071D01*
X0212142Y0104071D01*
X0212929Y0103283D01*
X0213126Y0101906D02*
X0218874Y0101906D01*
X0219189Y0102220D01*
X0220016Y0105658D02*
X0218060Y0107614D01*
X0188520Y0107614D01*
X0188126Y0107220D01*
X0186630Y0108205D02*
X0219228Y0108205D01*
X0220606Y0106827D01*
X0221197Y0106827D01*
X0222772Y0108796D02*
X0226709Y0104860D01*
X0226709Y0103283D01*
X0227406Y0102995D02*
X0227406Y0110611D01*
X0226827Y0111190D01*
X0223756Y0106827D02*
X0221197Y0109386D01*
X0201787Y0109386D01*
X0201433Y0109031D01*
X0196630Y0109031D01*
X0196276Y0109386D01*
X0185961Y0109386D01*
X0183795Y0107220D01*
X0185587Y0107161D02*
X0186630Y0108205D01*
X0192945Y0106921D02*
X0211354Y0106921D01*
X0212735Y0105540D01*
X0215843Y0105540D01*
X0213126Y0101906D02*
X0210961Y0099740D01*
X0210961Y0097772D01*
X0209681Y0096492D01*
X0206236Y0094386D02*
X0206236Y0091866D01*
X0205055Y0085567D02*
X0206236Y0084386D01*
X0205449Y0083205D02*
X0205055Y0083598D01*
X0205449Y0083205D02*
X0205449Y0075921D01*
X0192260Y0062732D01*
X0189110Y0062732D01*
X0192063Y0064504D02*
X0196591Y0069031D01*
X0197378Y0069031D01*
X0199346Y0071000D01*
X0199346Y0071984D01*
X0200618Y0073256D01*
X0200618Y0073257D01*
X0201026Y0073665D01*
X0201028Y0073665D01*
X0201575Y0074213D01*
X0202620Y0074213D01*
X0204661Y0076118D01*
X0204661Y0079071D01*
X0204661Y0079268D01*
X0202417Y0076630D02*
X0200646Y0076630D01*
X0210212Y0085370D02*
X0210961Y0085370D01*
X0218539Y0085272D02*
X0220803Y0083008D01*
X0220803Y0077693D01*
X0223429Y0075067D01*
X0223429Y0065752D01*
X0213559Y0055882D01*
X0211433Y0055882D01*
X0212142Y0053874D02*
X0206433Y0048165D01*
X0182024Y0048165D01*
X0175540Y0054649D01*
X0175540Y0057772D01*
X0207417Y0053087D02*
X0209287Y0054957D01*
X0214996Y0054957D01*
X0224346Y0064307D01*
X0224346Y0076052D01*
X0223808Y0076591D01*
X0194032Y0092654D02*
X0186945Y0085567D01*
X0186354Y0085567D01*
X0183795Y0083008D01*
X0185370Y0088618D02*
X0188913Y0092161D01*
X0188913Y0100921D01*
X0194228Y0106236D01*
X0209976Y0106236D01*
X0210948Y0105265D01*
X0210961Y0105265D01*
X0208795Y0105449D02*
X0208598Y0105252D01*
X0192945Y0106921D02*
X0187732Y0101709D01*
X0187732Y0093146D01*
X0184189Y0089602D01*
X0180350Y0089602D01*
X0180234Y0089535D01*
X0174298Y0083598D01*
X0170016Y0083598D01*
X0175921Y0082405D02*
X0182135Y0088618D01*
X0185370Y0088618D01*
X0226709Y0101315D02*
X0226709Y0102298D01*
X0227406Y0102995D01*
X0192969Y0122921D02*
X0190882Y0120835D01*
X0192969Y0122921D02*
X0192969Y0124228D01*
D16*
X0197784Y0110094D02*
X0207955Y0117063D01*
X0216866Y0103302D02*
X0217452Y0103302D01*
X0218424Y0104274D01*
X0220600Y0104274D01*
X0225134Y0099740D01*
X0225134Y0095069D01*
X0223113Y0093047D01*
X0221197Y0096171D02*
X0221197Y0084733D01*
X0222489Y0083441D01*
X0221197Y0096171D02*
X0222640Y0097614D01*
M02*
