G75*
%MOIN*%
%OFA0B0*%
%FSLAX24Y24*%
%IPPOS*%
%LPD*%
%AMOC8*
5,1,8,0,0,1.08239X$1,22.5*
%
%ADD10C,0.0140*%
%ADD11C,0.0295*%
%ADD12C,0.0050*%
%ADD13C,0.0180*%
%ADD14C,0.0100*%
D10*
X012753Y006946D03*
X013823Y007691D03*
X013777Y008040D03*
X013945Y008171D03*
X014169Y008304D03*
X014214Y007955D03*
X014260Y007606D03*
X014652Y007870D03*
X014606Y008219D03*
X014561Y008569D03*
X014998Y008484D03*
X014952Y008833D03*
X015389Y008748D03*
X015344Y009097D03*
X015781Y009012D03*
X015736Y009361D03*
X016173Y009276D03*
X016127Y009625D03*
X016519Y009890D03*
X016036Y010324D03*
X015729Y010497D03*
X015814Y010934D03*
X016121Y010761D03*
X016428Y010588D03*
X016819Y010852D03*
X016513Y011025D03*
X016206Y011198D03*
X016598Y011462D03*
X016904Y011289D03*
X017211Y011116D03*
X017296Y011553D03*
X016989Y011727D03*
X017411Y010539D03*
X017346Y010353D03*
X017282Y010167D03*
X017217Y009981D03*
X017153Y009795D03*
X017088Y009609D03*
X017024Y009423D03*
X016564Y009540D03*
X016610Y009191D03*
X016218Y008927D03*
X015827Y008663D03*
X015435Y008399D03*
X015043Y008134D03*
X015312Y006946D03*
X013670Y008758D03*
X013771Y009176D03*
X014078Y009003D03*
X014163Y009440D03*
X014469Y009267D03*
X014554Y009704D03*
X014248Y009877D03*
X013856Y009613D03*
X013422Y009411D03*
X013189Y009471D03*
X012993Y009725D03*
X012950Y010292D03*
X013245Y011178D03*
X014639Y010141D03*
X014946Y009968D03*
X015253Y009795D03*
X015644Y010059D03*
X015338Y010233D03*
X015031Y010406D03*
X015423Y010670D03*
X014861Y009531D03*
X018178Y011051D03*
X018398Y011404D03*
X018560Y012950D03*
X020135Y013835D03*
X015115Y017772D03*
X015067Y018336D03*
X014873Y018592D03*
X014642Y018654D03*
X014294Y018889D03*
X013987Y019062D03*
X013902Y018625D03*
X013595Y018798D03*
X013510Y018360D03*
X013817Y018187D03*
X014209Y018452D03*
X014395Y019301D03*
X014120Y019893D03*
X014287Y020024D03*
X014242Y020374D03*
X013805Y020459D03*
X013850Y020109D03*
X013896Y019760D03*
X013504Y019496D03*
X013458Y019845D03*
X013413Y020194D03*
X013021Y019930D03*
X012630Y019666D03*
X013067Y019581D03*
X013112Y019232D03*
X012675Y019317D03*
X012721Y018968D03*
X012283Y019053D03*
X012329Y018703D03*
X011892Y018788D03*
X011937Y018439D03*
X011546Y018175D03*
X012028Y017741D03*
X012335Y017568D03*
X012250Y017131D03*
X011943Y017304D03*
X011637Y017477D03*
X011245Y017213D03*
X011552Y017039D03*
X011858Y016866D03*
X011467Y016602D03*
X011160Y016775D03*
X010853Y016948D03*
X010768Y016511D03*
X011075Y016338D03*
X010654Y017526D03*
X010718Y017712D03*
X010783Y017898D03*
X010847Y018084D03*
X010912Y018270D03*
X010976Y018456D03*
X011041Y018642D03*
X011455Y018873D03*
X011500Y018524D03*
X011846Y019138D03*
X012238Y019402D03*
X012812Y018269D03*
X013119Y018096D03*
X013425Y017923D03*
X013034Y017659D03*
X012727Y017832D03*
X012420Y018005D03*
X012642Y017395D03*
X013203Y018533D03*
X014820Y016887D03*
X014426Y014918D03*
X013835Y013146D03*
X009886Y017014D03*
X009666Y016660D03*
X009505Y015213D03*
X007930Y013835D03*
X012851Y021414D03*
X015213Y021414D03*
D11*
X008801Y008687D03*
X009242Y008290D03*
X009338Y008851D03*
X009790Y008476D03*
X010247Y008154D03*
X009744Y007904D03*
X010244Y007584D03*
X010743Y007863D03*
X011247Y007620D03*
X010791Y007292D03*
X011336Y007057D03*
X011795Y007409D03*
X012332Y007251D03*
X011935Y006853D03*
X012511Y006710D03*
X013461Y006552D03*
X014032Y006552D03*
X014623Y006552D03*
X015553Y006710D03*
X015733Y007251D03*
X016270Y007409D03*
X016130Y006853D03*
X016729Y007057D03*
X016818Y007620D03*
X017321Y007863D03*
X017821Y007584D03*
X017817Y008154D03*
X018275Y008476D03*
X018726Y008851D03*
X019126Y009243D03*
X019688Y009139D03*
X019502Y009678D03*
X019833Y010129D03*
X020140Y010630D03*
X020411Y010129D03*
X020702Y010646D03*
X020392Y011129D03*
X020963Y011223D03*
X020613Y011673D03*
X020781Y012207D03*
X021326Y012380D03*
X020908Y012768D03*
X020987Y013321D03*
X021513Y013540D03*
X021513Y013934D03*
X021513Y014328D03*
X021471Y014806D03*
X020951Y015039D03*
X020848Y015589D03*
X021248Y015998D03*
X020697Y016144D03*
X020507Y016670D03*
X021070Y016564D03*
X020830Y017150D03*
X020562Y017679D03*
X020263Y017204D03*
X019989Y017692D03*
X020237Y018207D03*
X019668Y018169D03*
X019320Y018606D03*
X018917Y019034D03*
X018502Y019409D03*
X018034Y019765D03*
X017563Y020066D03*
X017539Y020638D03*
X017055Y020336D03*
X016542Y020558D03*
X017005Y020896D03*
X016413Y021122D03*
X015985Y020745D03*
X015442Y020880D03*
X015844Y021289D03*
X014623Y021513D03*
X014032Y021513D03*
X013442Y021513D03*
X012622Y020880D03*
X012079Y020745D03*
X012221Y021289D03*
X011651Y021122D03*
X011523Y020558D03*
X011009Y020336D03*
X011060Y020896D03*
X010525Y020638D03*
X010501Y020066D03*
X010030Y019765D03*
X009563Y019409D03*
X009148Y019034D03*
X008745Y018606D03*
X008396Y018169D03*
X008075Y017692D03*
X007828Y018207D03*
X008177Y018687D03*
X008593Y019165D03*
X009016Y019581D03*
X009504Y019984D03*
X009990Y020325D03*
X007502Y017679D03*
X007802Y017204D03*
X007234Y017150D03*
X007558Y016670D03*
X007368Y016144D03*
X006994Y016564D03*
X006817Y015998D03*
X007217Y015589D03*
X007114Y015039D03*
X006678Y015393D03*
X006594Y014806D03*
X006552Y014328D03*
X006552Y013934D03*
X006552Y013540D03*
X007077Y013321D03*
X007157Y012768D03*
X006738Y012380D03*
X007284Y012207D03*
X007451Y011673D03*
X006899Y011781D03*
X007101Y011223D03*
X007672Y011129D03*
X007925Y010630D03*
X007653Y010129D03*
X007363Y010646D03*
X008232Y010129D03*
X008563Y009678D03*
X008005Y009603D03*
X008376Y009139D03*
X008939Y009243D03*
X006629Y012963D03*
X017274Y007292D03*
X018321Y007904D03*
X018823Y008290D03*
X019264Y008687D03*
X020059Y009603D03*
X021165Y011781D03*
X021435Y012963D03*
X021387Y015393D03*
X019887Y018687D03*
X019472Y019165D03*
X019048Y019581D03*
X018561Y019984D03*
X018075Y020325D03*
D12*
X017688Y019718D01*
X018125Y019410D02*
X018561Y019984D01*
X019048Y019581D02*
X018565Y019044D01*
X018947Y018674D02*
X019472Y019165D01*
X019887Y018687D02*
X019324Y018241D01*
X019642Y017804D02*
X020237Y018207D01*
X020562Y017679D02*
X019939Y017329D01*
X020177Y016850D02*
X020830Y017150D01*
X021070Y016564D02*
X020391Y016319D01*
X020552Y015812D02*
X021248Y015998D01*
X021387Y015393D02*
X020682Y015261D01*
X021471Y014806D02*
X021472Y014805D01*
X021435Y012963D02*
X020730Y013062D01*
X020622Y012532D02*
X021326Y012380D01*
X021165Y011781D02*
X020472Y011992D01*
X020292Y011482D02*
X020963Y011223D01*
X020702Y010646D02*
X020062Y010962D01*
X019792Y010492D02*
X020411Y010129D01*
X020059Y009603D02*
X019482Y010032D01*
X019142Y009612D02*
X019688Y009139D01*
X019264Y008687D02*
X018762Y009202D01*
X018352Y008832D02*
X018823Y008290D01*
X018321Y007904D02*
X017902Y008492D01*
X017452Y008192D02*
X017821Y007584D01*
X017274Y007292D02*
X016952Y007932D01*
X016462Y007722D02*
X016729Y007057D01*
X016130Y006853D02*
X015928Y007498D01*
X015533Y007972D02*
X014952Y008833D01*
X015389Y008748D02*
X015788Y008156D01*
X016038Y008349D02*
X015827Y008663D01*
X016285Y008547D02*
X015736Y009361D01*
X016173Y009276D02*
X016521Y008761D01*
X016285Y008547D02*
X019142Y009612D01*
X018178Y011051D02*
X018178Y011051D01*
X018178Y011051D01*
X017211Y011116D02*
X016788Y011744D01*
X016502Y011602D02*
X016597Y011463D01*
X016596Y011462D02*
X016597Y011462D01*
X016597Y011462D01*
X016598Y011462D01*
X016232Y011442D02*
X016513Y011026D01*
X016513Y011025D02*
X016513Y011026D01*
X016513Y011026D01*
X016513Y011027D01*
X016424Y010588D02*
X016425Y010587D01*
X016426Y010587D01*
X016428Y010588D01*
X016423Y010589D02*
X015962Y011272D01*
X015692Y011112D02*
X015812Y010934D01*
X015814Y010933D01*
X015815Y010933D01*
X015422Y010952D02*
X015729Y010497D01*
X015729Y010497D01*
X015729Y010497D01*
X015729Y010497D01*
X015645Y010059D02*
X015644Y010059D01*
X015643Y010059D01*
X015643Y010060D02*
X015162Y010772D01*
X014892Y010612D02*
X015031Y010406D01*
X015032Y010405D02*
X015032Y010406D01*
X015032Y010406D01*
X015032Y010407D01*
X014892Y010612D02*
X018947Y018674D01*
X017203Y020007D02*
X017539Y020638D01*
X017005Y020896D02*
X016722Y020237D01*
X016186Y020442D02*
X016413Y021122D01*
X015844Y021289D02*
X015667Y020587D01*
X014619Y019458D02*
X014519Y019391D01*
X014189Y019880D01*
X014120Y019893D01*
X013896Y019760D02*
X013304Y020638D01*
X013048Y020453D02*
X013458Y019845D01*
X013021Y019930D02*
X012793Y020269D01*
X012532Y020093D02*
X013112Y019232D01*
X012675Y019317D02*
X012276Y019908D01*
X012026Y019716D02*
X012238Y019402D01*
X011780Y019518D02*
X012329Y018703D01*
X011892Y018788D02*
X011544Y019303D01*
X011780Y019518D02*
X008922Y018452D01*
X008745Y018606D01*
X009148Y019034D02*
X009302Y018862D01*
X009712Y019232D02*
X009563Y019409D01*
X010030Y019765D02*
X010162Y019572D01*
X010612Y019872D02*
X010501Y020066D01*
X011009Y020336D02*
X011112Y020132D01*
X011602Y020342D02*
X011523Y020558D01*
X012079Y020745D02*
X012137Y020567D01*
X012622Y020880D02*
X013815Y021006D01*
X014242Y020374D01*
X013805Y020459D02*
X013548Y020839D01*
X021473Y014805D02*
X021355Y014635D01*
X021232Y014468D01*
X021106Y014304D01*
X020976Y014143D01*
X020842Y013985D01*
X020705Y013831D01*
X020563Y013680D01*
X020418Y013532D01*
X020270Y013388D01*
X020118Y013247D01*
X019962Y013111D01*
X019804Y012978D01*
X019642Y012848D01*
X019477Y012723D01*
X019309Y012602D01*
X019139Y012485D01*
X018965Y012372D01*
X018789Y012264D01*
X018610Y012159D01*
X018429Y012059D01*
X018246Y011964D01*
X018060Y011872D01*
X017872Y011786D01*
X017682Y011704D01*
X017490Y011626D01*
X017296Y011553D01*
X017211Y011116D02*
X017211Y011116D01*
X017211Y011116D01*
X017211Y011116D01*
X017346Y010353D02*
X017392Y010282D01*
X017217Y009981D02*
X017262Y009912D01*
X017088Y009609D02*
X017122Y009562D01*
X016972Y009220D02*
X016519Y009890D01*
X016610Y009191D02*
X016750Y008984D01*
X015272Y007796D02*
X015043Y008134D01*
X014606Y008219D02*
X015016Y007611D01*
X014761Y007427D02*
X014169Y008304D01*
X013945Y008171D02*
X013875Y008185D01*
X013545Y008674D01*
X013446Y008607D01*
X013408Y008584D01*
X013368Y008565D01*
X013327Y008549D01*
X013285Y008537D01*
X013241Y008528D01*
X013197Y008524D01*
X013153Y008523D01*
X013109Y008526D01*
X013066Y008533D01*
X013023Y008544D01*
X012981Y008558D01*
X012941Y008576D01*
X012902Y008598D01*
X012866Y008623D01*
X012831Y008650D01*
X012800Y008681D01*
X012771Y008714D01*
X012745Y008750D01*
X012722Y008788D01*
X012703Y008828D01*
X012687Y008869D01*
X012675Y008911D01*
X012666Y008955D01*
X012662Y008999D01*
X012661Y009043D01*
X012664Y009087D01*
X012671Y009130D01*
X012682Y009173D01*
X012696Y009215D01*
X012714Y009255D01*
X012736Y009294D01*
X012761Y009330D01*
X012788Y009365D01*
X012819Y009396D01*
X012852Y009425D01*
X012888Y009451D01*
X012889Y009451D02*
X013109Y009599D01*
X013332Y009542D02*
X013421Y009411D01*
X013422Y009411D01*
X013422Y009411D01*
X013423Y009411D01*
X013592Y009722D02*
X014078Y009003D01*
X007334Y015003D02*
X007480Y015165D01*
X007630Y015323D01*
X007783Y015478D01*
X007940Y015629D01*
X008101Y015776D01*
X008265Y015919D01*
X008433Y016058D01*
X008604Y016192D01*
X008778Y016323D01*
X008956Y016449D01*
X009136Y016571D01*
X009320Y016689D01*
X009506Y016802D01*
X009695Y016910D01*
X009886Y017014D01*
X009886Y017014D01*
X009886Y017014D01*
X010853Y016948D02*
X011277Y016321D01*
X011562Y016462D02*
X011468Y016602D01*
X011468Y016603D02*
X011467Y016603D01*
X011467Y016603D01*
X011466Y016603D01*
X011832Y016622D02*
X011552Y017038D01*
X011551Y017038D02*
X011551Y017039D01*
X011551Y017039D01*
X011551Y017040D01*
X011637Y017476D02*
X011639Y017477D01*
X011640Y017477D01*
X011641Y017476D01*
X012102Y016792D01*
X012372Y016952D02*
X012252Y017130D01*
X012253Y017130D02*
X012252Y017131D01*
X012251Y017131D01*
X012250Y017131D01*
X012642Y017112D02*
X012335Y017568D01*
X012335Y017568D01*
X012335Y017568D01*
X012335Y017568D01*
X012422Y018005D02*
X012421Y018005D01*
X012420Y018005D01*
X012422Y018005D02*
X012902Y017292D01*
X013172Y017452D02*
X013033Y017658D01*
X013033Y017659D01*
X013033Y017659D01*
X013033Y017660D01*
X013172Y017452D02*
X008939Y009243D01*
X007076Y013321D02*
X007177Y013484D01*
X007282Y013643D01*
X007390Y013800D01*
X007502Y013954D01*
X007618Y014106D01*
X007738Y014255D01*
X007861Y014400D01*
X007987Y014543D01*
X008117Y014683D01*
X008250Y014819D01*
X008387Y014952D01*
X008527Y015082D01*
X008670Y015209D01*
X008815Y015332D01*
X008964Y015451D01*
X009116Y015567D01*
X009270Y015679D01*
X009427Y015787D01*
X009587Y015892D01*
X009749Y015993D01*
X009913Y016089D01*
X010080Y016182D01*
X010249Y016270D01*
X010420Y016355D01*
X010593Y016435D01*
X010768Y016511D01*
X010854Y016948D02*
X010854Y016948D01*
X010854Y016948D01*
X010854Y016948D01*
X010718Y017712D02*
X010672Y017782D01*
X010847Y018084D02*
X010802Y018152D01*
X010976Y018456D02*
X010942Y018502D01*
X011093Y018844D02*
X011546Y018175D01*
X011455Y018873D02*
X011314Y019081D01*
X013118Y018097D02*
X013119Y018097D01*
X013119Y018097D01*
X013120Y018097D01*
X013119Y018096D02*
X013432Y017632D01*
X013692Y017812D02*
X013206Y018533D01*
X013207Y018533D02*
X013205Y018534D01*
X013204Y018534D01*
X013902Y018623D02*
X014212Y018162D01*
X013952Y017982D02*
X013816Y018184D01*
X013816Y018185D01*
X013816Y018186D01*
X013817Y018187D01*
X013901Y018623D02*
X013901Y018624D01*
X013901Y018624D01*
X013901Y018625D01*
X018179Y011051D02*
X018370Y011155D01*
X018559Y011263D01*
X018745Y011376D01*
X018929Y011494D01*
X019109Y011616D01*
X019287Y011742D01*
X019461Y011873D01*
X019632Y012007D01*
X019800Y012146D01*
X019964Y012289D01*
X020125Y012436D01*
X020282Y012587D01*
X020435Y012742D01*
X020585Y012900D01*
X020731Y013062D01*
X014947Y009968D02*
X014946Y009968D01*
X014945Y009968D01*
X014945Y009969D02*
X014632Y010432D01*
X014372Y010252D02*
X014858Y009532D01*
X014860Y009531D01*
X014861Y009531D01*
X014163Y009442D02*
X013852Y009902D01*
X014112Y010082D02*
X014248Y009881D01*
X014248Y009880D02*
X014248Y009879D01*
X014248Y009878D01*
X014247Y009877D01*
X014163Y009442D02*
X014163Y009441D01*
X014163Y009441D01*
X014163Y009440D01*
X013823Y007691D02*
X014250Y007058D01*
X015553Y006710D01*
X007442Y015533D02*
X007664Y015741D01*
X007890Y015944D01*
X008122Y016141D01*
X008358Y016332D01*
X008599Y016518D01*
X008844Y016697D01*
X009094Y016871D01*
X009347Y017039D01*
X009605Y017200D01*
X009866Y017356D01*
X010131Y017505D01*
X010400Y017647D01*
X010672Y017783D01*
X008582Y018032D02*
X008396Y018169D01*
X008075Y017692D02*
X008272Y017572D01*
X008002Y017102D02*
X007802Y017204D01*
X007558Y016670D02*
X007772Y016582D01*
X007592Y016072D02*
X007368Y016144D01*
X007217Y015589D02*
X007442Y015532D01*
X007335Y015003D02*
X007114Y015039D01*
X017392Y010282D02*
X017664Y010418D01*
X017933Y010560D01*
X018198Y010709D01*
X018459Y010865D01*
X018717Y011026D01*
X018970Y011194D01*
X019220Y011368D01*
X019465Y011547D01*
X019706Y011733D01*
X019942Y011924D01*
X020174Y012121D01*
X020400Y012324D01*
X020622Y012532D01*
X015176Y018614D02*
X014956Y018466D01*
X014732Y018522D02*
X014644Y018653D01*
X014644Y018654D02*
X014643Y018654D01*
X014643Y018654D01*
X014642Y018654D01*
X014472Y018342D02*
X013987Y019062D01*
X014618Y019458D02*
X014656Y019481D01*
X014696Y019500D01*
X014737Y019516D01*
X014779Y019528D01*
X014823Y019537D01*
X014867Y019541D01*
X014911Y019542D01*
X014955Y019539D01*
X014998Y019532D01*
X015041Y019521D01*
X015083Y019507D01*
X015123Y019489D01*
X015162Y019467D01*
X015198Y019442D01*
X015233Y019415D01*
X015264Y019384D01*
X015293Y019351D01*
X015319Y019315D01*
X015342Y019277D01*
X015361Y019237D01*
X015377Y019196D01*
X015389Y019154D01*
X015398Y019110D01*
X015402Y019066D01*
X015403Y019022D01*
X015400Y018978D01*
X015393Y018935D01*
X015382Y018892D01*
X015368Y018850D01*
X015350Y018810D01*
X015328Y018771D01*
X015303Y018735D01*
X015276Y018700D01*
X015245Y018669D01*
X015212Y018640D01*
X015176Y018614D01*
X020472Y011992D02*
X020204Y011769D01*
X019931Y011552D01*
X019653Y011342D01*
X019369Y011139D01*
X019081Y010942D01*
X018789Y010753D01*
X018492Y010570D01*
X018190Y010395D01*
X017885Y010226D01*
X017576Y010066D01*
X017263Y009912D01*
X014260Y007606D02*
X014516Y007226D01*
X007593Y016072D02*
X007861Y016295D01*
X008134Y016512D01*
X008412Y016722D01*
X008696Y016925D01*
X008984Y017122D01*
X009276Y017311D01*
X009573Y017494D01*
X009875Y017669D01*
X010180Y017838D01*
X010489Y017998D01*
X010802Y018152D01*
X012137Y020566D02*
X012257Y020569D01*
X012378Y020575D01*
X012498Y020585D01*
X012617Y020599D01*
X012737Y020616D01*
X012855Y020637D01*
X012973Y020662D01*
X013090Y020690D01*
X013207Y020722D01*
X013322Y020757D01*
X013436Y020796D01*
X013549Y020838D01*
X020293Y011483D02*
X019961Y011237D01*
X019624Y010999D01*
X019282Y010769D01*
X018934Y010547D01*
X018581Y010334D01*
X018223Y010128D01*
X017861Y009931D01*
X017494Y009743D01*
X017123Y009563D01*
X015928Y007499D02*
X015808Y007496D01*
X015687Y007490D01*
X015567Y007480D01*
X015448Y007466D01*
X015328Y007449D01*
X015210Y007428D01*
X015092Y007403D01*
X014975Y007375D01*
X014858Y007343D01*
X014743Y007308D01*
X014629Y007269D01*
X014516Y007227D01*
X007772Y016582D02*
X008104Y016828D01*
X008441Y017066D01*
X008783Y017296D01*
X009131Y017518D01*
X009484Y017731D01*
X009842Y017937D01*
X010204Y018134D01*
X010571Y018322D01*
X010942Y018502D01*
X011602Y020343D02*
X011747Y020347D01*
X011891Y020354D01*
X012035Y020366D01*
X012179Y020381D01*
X012322Y020400D01*
X012465Y020423D01*
X012607Y020450D01*
X012748Y020480D01*
X012889Y020514D01*
X013028Y020552D01*
X013167Y020593D01*
X013304Y020638D01*
X013049Y020453D02*
X012877Y020403D01*
X012704Y020357D01*
X012530Y020315D01*
X012355Y020278D01*
X012180Y020244D01*
X012003Y020215D01*
X011826Y020190D01*
X011648Y020169D01*
X011470Y020153D01*
X011291Y020140D01*
X011113Y020132D01*
X016972Y009220D02*
X017430Y009439D01*
X017882Y009668D01*
X018330Y009907D01*
X018772Y010156D01*
X019208Y010415D01*
X019638Y010684D01*
X020063Y010962D01*
X016788Y011744D02*
X016939Y011962D01*
X017094Y012177D01*
X017255Y012387D01*
X017422Y012593D01*
X017593Y012796D01*
X017769Y012994D01*
X017949Y013188D01*
X018135Y013377D01*
X018325Y013562D01*
X018519Y013742D01*
X018718Y013917D01*
X018921Y014087D01*
X019128Y014252D01*
X019339Y014413D01*
X019554Y014567D01*
X019773Y014717D01*
X019995Y014861D01*
X020221Y015000D01*
X020450Y015133D01*
X020682Y015261D01*
X014956Y018466D02*
X014696Y017945D01*
X014450Y017418D01*
X014217Y016886D01*
X013996Y016347D01*
X013789Y015804D01*
X013595Y015256D01*
X013415Y014703D01*
X013248Y014146D01*
X013095Y013584D01*
X012955Y013020D01*
X012830Y012452D01*
X012718Y011881D01*
X012620Y011308D01*
X012536Y010732D01*
X012467Y010155D01*
X012411Y009576D01*
X012370Y008996D01*
X012343Y008415D01*
X012330Y007833D01*
X012331Y007251D01*
X014761Y007427D02*
X014898Y007472D01*
X015037Y007513D01*
X015176Y007551D01*
X015317Y007585D01*
X015458Y007615D01*
X015600Y007642D01*
X015743Y007665D01*
X015886Y007684D01*
X016030Y007699D01*
X016174Y007711D01*
X016318Y007718D01*
X016463Y007722D01*
X016952Y007933D02*
X016774Y007925D01*
X016595Y007912D01*
X016417Y007896D01*
X016239Y007875D01*
X016062Y007850D01*
X015885Y007821D01*
X015710Y007787D01*
X015535Y007750D01*
X015361Y007708D01*
X015188Y007662D01*
X015016Y007612D01*
X015272Y007796D02*
X015509Y007862D01*
X015748Y007923D01*
X015989Y007978D01*
X016230Y008028D01*
X016473Y008072D01*
X016717Y008111D01*
X016961Y008144D01*
X017206Y008171D01*
X017452Y008192D01*
X011093Y018845D02*
X010635Y018626D01*
X010183Y018397D01*
X009735Y018158D01*
X009293Y017909D01*
X008857Y017650D01*
X008427Y017381D01*
X008002Y017103D01*
X011277Y016321D02*
X011116Y016099D01*
X010949Y015880D01*
X010777Y015666D01*
X010600Y015456D01*
X010418Y015250D01*
X010231Y015049D01*
X010039Y014852D01*
X009842Y014661D01*
X009641Y014474D01*
X009435Y014292D01*
X009225Y014115D01*
X009010Y013943D01*
X008792Y013777D01*
X008569Y013616D01*
X008342Y013460D01*
X008112Y013310D01*
X007878Y013166D01*
X007641Y013028D01*
X007400Y012895D01*
X007157Y012768D01*
X013108Y009599D02*
X013362Y010109D01*
X013602Y010625D01*
X013831Y011147D01*
X014046Y011675D01*
X014248Y012207D01*
X014438Y012745D01*
X014614Y013287D01*
X014776Y013832D01*
X014926Y014382D01*
X015062Y014936D01*
X015184Y015492D01*
X015293Y016051D01*
X015388Y016613D01*
X015469Y017177D01*
X015537Y017742D01*
X015590Y018310D01*
X015630Y018878D01*
X015656Y019447D01*
X015668Y020017D01*
X015666Y020586D01*
X012792Y020269D02*
X012555Y020203D01*
X012316Y020142D01*
X012075Y020087D01*
X011834Y020037D01*
X011591Y019993D01*
X011347Y019954D01*
X011103Y019921D01*
X010858Y019894D01*
X010612Y019873D01*
X010162Y019572D02*
X010505Y019624D01*
X010847Y019683D01*
X011188Y019750D01*
X011526Y019824D01*
X011864Y019906D01*
X012199Y019996D01*
X012532Y020093D01*
X012276Y019908D02*
X011769Y019751D01*
X011259Y019605D01*
X010746Y019470D01*
X010230Y019345D01*
X009712Y019232D01*
X016750Y008984D02*
X017371Y009260D01*
X017986Y009549D01*
X018594Y009851D01*
X019197Y010165D01*
X019792Y010492D01*
X016503Y011602D02*
X016679Y011878D01*
X016861Y012149D01*
X017049Y012416D01*
X017244Y012679D01*
X017445Y012937D01*
X017652Y013190D01*
X017864Y013438D01*
X018082Y013682D01*
X018306Y013920D01*
X018535Y014153D01*
X018770Y014380D01*
X019010Y014602D01*
X019255Y014819D01*
X019505Y015029D01*
X019760Y015234D01*
X020019Y015433D01*
X020283Y015625D01*
X020552Y015812D01*
X014732Y018522D02*
X014449Y017944D01*
X014179Y017360D01*
X013923Y016770D01*
X013680Y016175D01*
X013452Y015573D01*
X013238Y014967D01*
X013037Y014355D01*
X012851Y013740D01*
X012680Y013120D01*
X012523Y012496D01*
X012380Y011868D01*
X012252Y011238D01*
X012139Y010605D01*
X012040Y009969D01*
X011957Y009331D01*
X011888Y008692D01*
X011834Y008051D01*
X011795Y007408D01*
X015533Y007972D02*
X015866Y008069D01*
X016201Y008159D01*
X016539Y008241D01*
X016877Y008315D01*
X017218Y008382D01*
X017560Y008441D01*
X017903Y008493D01*
X011314Y019081D02*
X010693Y018805D01*
X010078Y018516D01*
X009470Y018214D01*
X008867Y017900D01*
X008272Y017573D01*
X011563Y016462D02*
X011375Y016181D01*
X011181Y015905D01*
X010980Y015633D01*
X010773Y015367D01*
X010560Y015105D01*
X010340Y014848D01*
X010115Y014596D01*
X009884Y014350D01*
X009647Y014109D01*
X009405Y013874D01*
X009158Y013644D01*
X008905Y013420D01*
X008647Y013202D01*
X008384Y012990D01*
X008116Y012785D01*
X007843Y012585D01*
X007566Y012392D01*
X007284Y012206D01*
X013332Y009542D02*
X013608Y010109D01*
X013872Y010682D01*
X014121Y011261D01*
X014358Y011846D01*
X014580Y012436D01*
X014789Y013031D01*
X014984Y013630D01*
X015165Y014234D01*
X015332Y014842D01*
X015484Y015454D01*
X015622Y016069D01*
X015746Y016688D01*
X015856Y017309D01*
X015951Y017932D01*
X016032Y018557D01*
X016098Y019184D01*
X016149Y019813D01*
X016186Y020442D01*
X011833Y016622D02*
X011597Y016248D01*
X011352Y015878D01*
X011099Y015515D01*
X010838Y015157D01*
X010568Y014806D01*
X010290Y014461D01*
X010005Y014123D01*
X009711Y013791D01*
X009410Y013466D01*
X009101Y013149D01*
X008785Y012839D01*
X008462Y012536D01*
X008132Y012240D01*
X007795Y011953D01*
X007452Y011673D01*
X013592Y009723D02*
X013913Y010384D01*
X014219Y011052D01*
X014509Y011728D01*
X014783Y012410D01*
X015042Y013098D01*
X015284Y013792D01*
X015510Y014492D01*
X015720Y015196D01*
X015913Y015906D01*
X016090Y016619D01*
X016250Y017337D01*
X016393Y018058D01*
X016520Y018782D01*
X016629Y019509D01*
X016722Y020238D01*
X012102Y016793D02*
X011795Y016276D01*
X011476Y015766D01*
X011146Y015264D01*
X010803Y014770D01*
X010450Y014284D01*
X010085Y013806D01*
X009709Y013337D01*
X009322Y012877D01*
X008925Y012426D01*
X008518Y011984D01*
X008100Y011552D01*
X007672Y011129D01*
X015788Y008156D02*
X016295Y008313D01*
X016805Y008459D01*
X017318Y008594D01*
X017834Y008719D01*
X018352Y008832D01*
X016233Y011442D02*
X016455Y011810D01*
X016686Y012172D01*
X016924Y012529D01*
X017171Y012880D01*
X017427Y013226D01*
X017690Y013565D01*
X017961Y013898D01*
X018239Y014225D01*
X018525Y014545D01*
X018819Y014859D01*
X019120Y015165D01*
X019428Y015465D01*
X019742Y015757D01*
X020064Y016042D01*
X020392Y016319D01*
X014472Y018342D02*
X014142Y017668D01*
X013828Y016987D01*
X013530Y016298D01*
X013248Y015603D01*
X012983Y014901D01*
X012733Y014194D01*
X012501Y013480D01*
X012285Y012762D01*
X012085Y012039D01*
X011903Y011311D01*
X011737Y010579D01*
X011589Y009844D01*
X011458Y009105D01*
X011344Y008364D01*
X011247Y007620D01*
X015962Y011272D02*
X016252Y011779D01*
X016554Y012280D01*
X016867Y012774D01*
X017192Y013260D01*
X017528Y013738D01*
X017875Y014208D01*
X018232Y014670D01*
X018601Y015124D01*
X018980Y015569D01*
X019369Y016005D01*
X019768Y016432D01*
X020177Y016850D01*
X014212Y018162D02*
X013815Y017345D01*
X013436Y016519D01*
X013077Y015685D01*
X012737Y014842D01*
X012418Y013991D01*
X012118Y013134D01*
X011838Y012270D01*
X011578Y011399D01*
X011338Y010522D01*
X011119Y009641D01*
X010921Y008754D01*
X010743Y007863D01*
X015692Y011112D02*
X016099Y011845D01*
X016522Y012568D01*
X016962Y013281D01*
X017418Y013984D01*
X017891Y014676D01*
X018380Y015357D01*
X018884Y016026D01*
X019404Y016683D01*
X019939Y017328D01*
X013952Y017982D02*
X013440Y016931D01*
X012952Y015868D01*
X012490Y014795D01*
X012052Y013711D01*
X011639Y012617D01*
X011253Y011514D01*
X010892Y010402D01*
X010556Y009282D01*
X010248Y008154D01*
X008582Y018033D02*
X009562Y018474D01*
X010549Y018898D01*
X011544Y019304D01*
X017204Y020007D02*
X017034Y019134D01*
X016844Y018264D01*
X016633Y017399D01*
X016403Y016540D01*
X016152Y015686D01*
X015882Y014838D01*
X015592Y013996D01*
X015282Y013162D01*
X014953Y012335D01*
X014605Y011515D01*
X014239Y010705D01*
X013853Y009902D01*
X016038Y008350D02*
X016941Y008650D01*
X017849Y008934D01*
X018762Y009203D01*
X015422Y010953D02*
X016058Y012135D01*
X016722Y013301D01*
X017412Y014452D01*
X018129Y015587D01*
X018873Y016705D01*
X019642Y017805D01*
X013692Y017813D02*
X012951Y016296D01*
X012246Y014762D01*
X011577Y013212D01*
X010945Y011648D01*
X010348Y010068D01*
X009789Y008476D01*
X015162Y010772D02*
X016491Y013294D01*
X017879Y015784D01*
X019323Y018241D01*
X013432Y017632D02*
X011999Y014738D01*
X010634Y011810D01*
X009338Y008852D01*
X007925Y010630D02*
X008483Y011285D01*
X009026Y011952D01*
X009553Y012632D01*
X010065Y013324D01*
X010560Y014028D01*
X011038Y014743D01*
X011500Y015469D01*
X011945Y016206D01*
X012372Y016952D01*
X017688Y019719D02*
X017391Y018614D01*
X017069Y017516D01*
X016721Y016426D01*
X016348Y015344D01*
X015950Y014272D01*
X015528Y013209D01*
X015080Y012156D01*
X014608Y011114D01*
X014112Y010083D01*
X016521Y008761D02*
X017516Y009167D01*
X018503Y009591D01*
X019483Y010032D01*
X012026Y019715D02*
X011123Y019415D01*
X010215Y019131D01*
X009302Y018862D01*
X012642Y017112D02*
X011976Y015907D01*
X011281Y014717D01*
X010559Y013544D01*
X009810Y012388D01*
X009034Y011249D01*
X008232Y010129D01*
X014372Y010252D02*
X015086Y011741D01*
X015765Y013246D01*
X016408Y014766D01*
X017016Y016300D01*
X017589Y017849D01*
X018125Y019410D01*
X012902Y017293D02*
X011514Y014721D01*
X010067Y012183D01*
X008562Y009678D01*
X014631Y010432D02*
X016009Y013272D01*
X017320Y016143D01*
X018564Y019043D01*
D13*
X015247Y020279D03*
X009694Y016172D03*
X009251Y016114D03*
X008865Y015613D03*
X012818Y007785D03*
X018412Y011763D03*
X018519Y012309D03*
X019039Y012067D03*
D14*
X012818Y007785D02*
X013504Y006769D01*
X013461Y006552D01*
X015247Y020279D02*
X014653Y021160D01*
X014576Y021273D01*
X014623Y021513D01*
M02*
