%
M48
M72
T01C0.00394
T02C0.00787
T03C0.01181
T04C0.03600
T05C0.03937
T06C0.04000
T07C0.08268
%
T01
X167646Y48788
X169733Y48158
X167489Y52016
X170953Y53591
X174024Y57410
X175717Y56701
X175323Y60244
X174851Y62213
X177292Y65402
X173433Y67489
X177134Y69851
X177922Y76544
X179890Y76544
X179890Y78512
X178985Y81898
X178315Y82892
X176741Y82843
X175284Y82830
X173512Y79103
X170244Y75756
X167764Y76504
X168036Y79874
X167410Y82961
X168906Y83000
X170481Y83000
X168709Y85166
X170638Y86465
X174142Y87370
X170941Y90796
X170678Y91977
X168552Y92567
X167607Y90953
X168158Y94536
X168591Y97370
X171071Y95441
X175586Y99378
X173591Y101268
X175993Y104496
X181898Y103670
X185243Y105640
X186780Y105874
X185619Y107193
X183827Y107252
X182528Y109457
X184851Y109772
X184063Y113119
X181670Y113653
X182134Y115559
X185441Y116741
X186840Y119594
X187213Y121189
X184300Y121859
X188000Y124260
X190520Y125481
X193000Y124260
X195481Y125599
X200481Y125678
X201741Y125100
X205520Y125638
X203827Y121307
X203827Y119615
X206583Y119260
X206662Y118079
X206544Y116937
X206465Y115717
X207843Y113355
X207804Y112331
X207843Y111386
X208867Y112370
X210205Y112331
X211150Y111662
X210599Y110796
X209339Y111071
X210284Y106005
X207056Y103315
X206583Y100874
X207056Y99378
X209024Y99378
X208394Y100874
X211111Y100835
X212725Y100553
X212976Y99385
X214930Y99378
X215323Y101150
X216898Y99378
X217685Y96229
X216977Y94103
X216898Y92292
X216111Y90914
X216898Y89930
X216111Y86977
X216898Y85520
X214930Y85520
X213197Y85402
X212961Y83630
X214930Y83630
X216925Y80796
X219851Y82095
X218591Y84103
X219930Y86622
X222567Y86032
X226071Y88473
X227370Y92134
X227489Y95284
X226347Y99575
X227449Y99733
X226898Y102095
X225678Y102154
X224969Y104063
X223000Y104103
X220756Y103315
X218867Y103315
X216898Y103333
X215756Y105848
X217095Y107265
X220638Y108237
X221229Y106859
X222607Y106662
X223788Y106859
X225166Y109024
X224772Y110533
X226859Y112009
X227725Y112961
X226544Y107383
X223579Y101335
X220835Y97410
X222622Y95259
X214930Y96032
X214930Y93473
X210993Y93473
X209024Y92292
X208630Y90717
X207036Y90736
X207056Y89536
X205087Y87567
X205087Y85599
X205087Y83630
X207056Y83630
X208197Y84615
X209024Y85520
X209221Y87042
X210993Y85493
X209418Y83630
X210685Y81215
X204457Y79063
X204575Y77410
X204260Y76426
X201701Y76662
X199142Y76426
X199181Y77725
X197764Y76775
X196032Y76937
X196032Y79300
X196977Y81111
X197016Y82370
X199181Y81662
X201229Y81741
X201229Y83420
X201741Y85008
X202252Y86097
X201741Y87067
X200756Y89536
X201150Y91504
X202922Y92213
X202725Y90126
X205087Y93473
X207056Y93473
X207056Y95441
X209024Y97410
X211071Y95874
X212961Y89536
X203906Y97213
X200559Y96229
X197646Y98197
X196071Y100678
X194455Y99183
X195796Y94457
X197961Y93709
X196032Y90520
X194451Y88741
X194098Y87572
X193119Y85835
X193867Y82843
X192095Y82685
X193827Y80914
X192685Y79890
X189733Y76937
X189339Y75796
X188230Y75277
X186307Y77252
X192252Y74563
X193690Y75344
X191701Y72056
X190914Y71150
X190402Y72056
X188046Y69686
X188709Y65323
X190824Y64397
X192095Y64536
X191111Y62764
X189851Y61544
X187370Y59024
X185244Y58552
X186937Y56111
X185835Y54418
X184654Y55323
X181800Y56563
X181780Y58630
X181859Y61386
X185481Y63119
X185008Y65126
X192095Y58788
X189693Y57095
X190874Y55441
X191150Y53552
X193276Y55284
X194575Y53433
X197607Y54103
X199181Y53709
X201937Y54103
X205402Y53355
X206977Y53237
X208276Y53158
X207764Y55599
X211465Y55914
X210914Y53433
X215244Y53630
X219221Y52016
X219300Y48158
X226032Y50087
X228000Y48512
X227292Y52882
X225756Y55126
X228237Y55678
X227056Y57725
X227607Y60166
X227725Y63197
X224721Y62449
X223630Y61063
X222449Y60402
X221426Y56701
X214575Y61741
X213197Y60953
X211347Y60717
X210993Y63222
X209300Y64091
X206150Y65284
X205244Y63119
X202370Y62843
X202324Y65488
X201544Y67410
X198709Y64693
X197685Y65363
X196426Y63355
X198200Y58827
X201033Y58727
X208630Y60953
X212685Y64957
X216304Y69444
X219154Y69045
X222725Y67319
X223906Y64300
X227449Y67252
X227528Y72213
X222352Y72213
X218670Y73591
X221229Y76419
X219851Y78552
X222804Y79831
X225796Y80638
X226701Y83355
X224930Y77370
X223840Y76504
X227528Y76544
X213985Y73158
X207910Y70374
X198512Y72044
X197392Y71396
X188945Y82889
X187567Y82922
X185796Y82843
X184615Y81268
X182922Y81347
X182252Y82843
X183827Y82961
X179890Y83000
X182174Y87016
X186780Y101956
X192961Y105914
X196150Y110993
X196741Y112370
X194969Y111937
X193158Y112567
X193827Y114142
X193827Y115953
X193906Y117764
X193433Y120126
X192252Y119851
X190284Y122134
X185363Y125599
X191189Y112410
X200233Y113158
X203670Y113709
X204063Y104260
X201189Y103315
X202292Y100874
X203709Y100789
X212961Y102764
X216504Y111123
X215835Y111950
X216741Y112383
X215717Y113092
X214733Y114076
X214142Y114930
X218473Y110796
X220441Y110533
X213670Y124890
X211898Y125284
X210441Y125835
X179181Y112410
X179378Y109260
X175441Y110914
X173473Y109654
X172213Y110796
X170284Y110796
X168867Y109221
X170126Y106307
X167882Y103512
X169662Y102630
X168473Y100323
X167922Y112764
X175599Y148867
X236465Y155166
X240402Y202410
X221977Y201622
X176819Y208748
X169181Y71347
X167967Y67111
X167489Y57922
X176701Y48119
X181465Y48079
T02
X180244Y53748
X177528Y54103
X175467Y53932
X173591Y53709
X170441Y50559
X170851Y62977
X169181Y65717
X175559Y65126
X177528Y63945
X180284Y63945
X187370Y66496
X191347Y69654
X197292Y70048
X184615Y75953
X183040Y91426
X183040Y93079
X183040Y95048
X183040Y97016
X183000Y98670
X185244Y98788
X185402Y97016
X185402Y95048
X185402Y93079
X180678Y93079
X180678Y91386
X175271Y91347
X175586Y97004
X180678Y97016
X180599Y98748
X180678Y95048
X190572Y93473
X197449Y104221
X202410Y112922
X214227Y106583
X222672Y97646
X223144Y93079
X223158Y88788
X222521Y83473
X222213Y74181
X220441Y65205
X215717Y65126
X214063Y63315
X221634Y59315
X221465Y54772
X222201Y53433
X219418Y53748
X218512Y54969
X218867Y136780
X185205Y193473
T03
X204300Y140914
X196027Y118867
X204339Y116819
X210796Y116701
X192141Y104063
X181859Y107646
T04
X179890Y167882
X179890Y177882
T05
X185205Y129300
X191701Y129300
X198197Y129300
X204103Y129300
X210599Y129300
T06
X208630Y223512
X198630Y223512
X188630Y223512
X188630Y233512
X198630Y233512
X208630Y233512
X218630Y233512
X228630Y233512
X228630Y223512
X218630Y223512
T07
X175166Y196229
X239733Y140717
X221622Y119457
X174378Y119457
M30
