G75*
%MOIN*%
%OFA0B0*%
%FSLAX25Y25*%
%IPPOS*%
%LPD*%
%AMOC8*
5,1,8,0,0,1.08239X$1,22.5*
%
%ADD10C,0.00000*%
D10*
X0024799Y0046453D02*
X0024799Y0127161D01*
X0143697Y0127161D01*
X0143697Y0085823D01*
X0143696Y0085823D02*
X0143698Y0085737D01*
X0143703Y0085651D01*
X0143713Y0085566D01*
X0143726Y0085481D01*
X0143743Y0085397D01*
X0143763Y0085313D01*
X0143787Y0085231D01*
X0143815Y0085150D01*
X0143846Y0085069D01*
X0143880Y0084991D01*
X0143918Y0084914D01*
X0143960Y0084839D01*
X0144004Y0084765D01*
X0144052Y0084694D01*
X0144103Y0084624D01*
X0144157Y0084557D01*
X0144213Y0084493D01*
X0144273Y0084431D01*
X0144335Y0084371D01*
X0144399Y0084315D01*
X0144466Y0084261D01*
X0144536Y0084210D01*
X0144607Y0084162D01*
X0144681Y0084118D01*
X0144756Y0084076D01*
X0144833Y0084038D01*
X0144911Y0084004D01*
X0144992Y0083973D01*
X0145073Y0083945D01*
X0145155Y0083921D01*
X0145239Y0083901D01*
X0145323Y0083884D01*
X0145408Y0083871D01*
X0145493Y0083861D01*
X0145579Y0083856D01*
X0145665Y0083854D01*
X0145751Y0083856D01*
X0145837Y0083861D01*
X0145922Y0083871D01*
X0146007Y0083884D01*
X0146091Y0083901D01*
X0146175Y0083921D01*
X0146257Y0083945D01*
X0146338Y0083973D01*
X0146419Y0084004D01*
X0146497Y0084038D01*
X0146574Y0084076D01*
X0146650Y0084118D01*
X0146723Y0084162D01*
X0146794Y0084210D01*
X0146864Y0084261D01*
X0146931Y0084315D01*
X0146995Y0084371D01*
X0147057Y0084431D01*
X0147117Y0084493D01*
X0147173Y0084557D01*
X0147227Y0084624D01*
X0147278Y0084694D01*
X0147326Y0084765D01*
X0147370Y0084839D01*
X0147412Y0084914D01*
X0147450Y0084991D01*
X0147484Y0085069D01*
X0147515Y0085150D01*
X0147543Y0085231D01*
X0147567Y0085313D01*
X0147587Y0085397D01*
X0147604Y0085481D01*
X0147617Y0085566D01*
X0147627Y0085651D01*
X0147632Y0085737D01*
X0147634Y0085823D01*
X0147634Y0122043D01*
X0147636Y0122167D01*
X0147642Y0122290D01*
X0147651Y0122414D01*
X0147665Y0122536D01*
X0147682Y0122659D01*
X0147704Y0122781D01*
X0147729Y0122902D01*
X0147758Y0123022D01*
X0147790Y0123141D01*
X0147827Y0123260D01*
X0147867Y0123377D01*
X0147910Y0123492D01*
X0147958Y0123607D01*
X0148009Y0123719D01*
X0148063Y0123830D01*
X0148121Y0123940D01*
X0148182Y0124047D01*
X0148247Y0124153D01*
X0148315Y0124256D01*
X0148386Y0124357D01*
X0148460Y0124456D01*
X0148537Y0124553D01*
X0148618Y0124647D01*
X0148701Y0124738D01*
X0148787Y0124827D01*
X0148876Y0124913D01*
X0148967Y0124996D01*
X0149061Y0125077D01*
X0149158Y0125154D01*
X0149257Y0125228D01*
X0149358Y0125299D01*
X0149461Y0125367D01*
X0149567Y0125432D01*
X0149674Y0125493D01*
X0149784Y0125551D01*
X0149895Y0125605D01*
X0150007Y0125656D01*
X0150122Y0125704D01*
X0150237Y0125747D01*
X0150354Y0125787D01*
X0150473Y0125824D01*
X0150592Y0125856D01*
X0150712Y0125885D01*
X0150833Y0125910D01*
X0150955Y0125932D01*
X0151078Y0125949D01*
X0151200Y0125963D01*
X0151324Y0125972D01*
X0151447Y0125978D01*
X0151571Y0125980D01*
X0205114Y0125980D01*
X0205238Y0125978D01*
X0205361Y0125972D01*
X0205485Y0125963D01*
X0205607Y0125949D01*
X0205730Y0125932D01*
X0205852Y0125910D01*
X0205973Y0125885D01*
X0206093Y0125856D01*
X0206212Y0125824D01*
X0206331Y0125787D01*
X0206448Y0125747D01*
X0206563Y0125704D01*
X0206678Y0125656D01*
X0206790Y0125605D01*
X0206901Y0125551D01*
X0207011Y0125493D01*
X0207118Y0125432D01*
X0207224Y0125367D01*
X0207327Y0125299D01*
X0207428Y0125228D01*
X0207527Y0125154D01*
X0207624Y0125077D01*
X0207718Y0124996D01*
X0207809Y0124913D01*
X0207898Y0124827D01*
X0207984Y0124738D01*
X0208067Y0124647D01*
X0208148Y0124553D01*
X0208225Y0124456D01*
X0208299Y0124357D01*
X0208370Y0124256D01*
X0208438Y0124153D01*
X0208503Y0124047D01*
X0208564Y0123940D01*
X0208622Y0123830D01*
X0208676Y0123719D01*
X0208727Y0123607D01*
X0208775Y0123492D01*
X0208818Y0123377D01*
X0208858Y0123260D01*
X0208895Y0123141D01*
X0208927Y0123022D01*
X0208956Y0122902D01*
X0208981Y0122781D01*
X0209003Y0122659D01*
X0209020Y0122536D01*
X0209034Y0122414D01*
X0209043Y0122290D01*
X0209049Y0122167D01*
X0209051Y0122043D01*
X0209051Y0103933D01*
X0209053Y0103847D01*
X0209058Y0103761D01*
X0209068Y0103676D01*
X0209081Y0103591D01*
X0209098Y0103507D01*
X0209118Y0103423D01*
X0209142Y0103341D01*
X0209170Y0103260D01*
X0209201Y0103179D01*
X0209235Y0103101D01*
X0209273Y0103024D01*
X0209315Y0102949D01*
X0209359Y0102875D01*
X0209407Y0102804D01*
X0209458Y0102734D01*
X0209512Y0102667D01*
X0209568Y0102603D01*
X0209628Y0102541D01*
X0209690Y0102481D01*
X0209754Y0102425D01*
X0209821Y0102371D01*
X0209891Y0102320D01*
X0209962Y0102272D01*
X0210036Y0102228D01*
X0210111Y0102186D01*
X0210188Y0102148D01*
X0210266Y0102114D01*
X0210347Y0102083D01*
X0210428Y0102055D01*
X0210510Y0102031D01*
X0210594Y0102011D01*
X0210678Y0101994D01*
X0210763Y0101981D01*
X0210848Y0101971D01*
X0210934Y0101966D01*
X0211020Y0101964D01*
X0211106Y0101966D01*
X0211192Y0101971D01*
X0211277Y0101981D01*
X0211362Y0101994D01*
X0211446Y0102011D01*
X0211530Y0102031D01*
X0211612Y0102055D01*
X0211693Y0102083D01*
X0211774Y0102114D01*
X0211852Y0102148D01*
X0211929Y0102186D01*
X0212005Y0102228D01*
X0212078Y0102272D01*
X0212149Y0102320D01*
X0212219Y0102371D01*
X0212286Y0102425D01*
X0212350Y0102481D01*
X0212412Y0102541D01*
X0212472Y0102603D01*
X0212528Y0102667D01*
X0212582Y0102734D01*
X0212633Y0102804D01*
X0212681Y0102875D01*
X0212725Y0102949D01*
X0212767Y0103024D01*
X0212805Y0103101D01*
X0212839Y0103179D01*
X0212870Y0103260D01*
X0212898Y0103341D01*
X0212922Y0103423D01*
X0212942Y0103507D01*
X0212959Y0103591D01*
X0212972Y0103676D01*
X0212982Y0103761D01*
X0212987Y0103847D01*
X0212989Y0103933D01*
X0212988Y0103933D02*
X0212988Y0148815D01*
X0328736Y0148815D01*
X0328736Y0046453D01*
X0212988Y0046453D01*
X0212988Y0075193D01*
X0212989Y0075193D02*
X0212987Y0075279D01*
X0212982Y0075365D01*
X0212972Y0075450D01*
X0212959Y0075535D01*
X0212942Y0075619D01*
X0212922Y0075703D01*
X0212898Y0075785D01*
X0212870Y0075866D01*
X0212839Y0075947D01*
X0212805Y0076025D01*
X0212767Y0076102D01*
X0212725Y0076178D01*
X0212681Y0076251D01*
X0212633Y0076322D01*
X0212582Y0076392D01*
X0212528Y0076459D01*
X0212472Y0076523D01*
X0212412Y0076585D01*
X0212350Y0076645D01*
X0212286Y0076701D01*
X0212219Y0076755D01*
X0212149Y0076806D01*
X0212078Y0076854D01*
X0212005Y0076898D01*
X0211929Y0076940D01*
X0211852Y0076978D01*
X0211774Y0077012D01*
X0211693Y0077043D01*
X0211612Y0077071D01*
X0211530Y0077095D01*
X0211446Y0077115D01*
X0211362Y0077132D01*
X0211277Y0077145D01*
X0211192Y0077155D01*
X0211106Y0077160D01*
X0211020Y0077162D01*
X0210934Y0077160D01*
X0210848Y0077155D01*
X0210763Y0077145D01*
X0210678Y0077132D01*
X0210594Y0077115D01*
X0210510Y0077095D01*
X0210428Y0077071D01*
X0210347Y0077043D01*
X0210266Y0077012D01*
X0210188Y0076978D01*
X0210111Y0076940D01*
X0210036Y0076898D01*
X0209962Y0076854D01*
X0209891Y0076806D01*
X0209821Y0076755D01*
X0209754Y0076701D01*
X0209690Y0076645D01*
X0209628Y0076585D01*
X0209568Y0076523D01*
X0209512Y0076459D01*
X0209458Y0076392D01*
X0209407Y0076322D01*
X0209359Y0076251D01*
X0209315Y0076178D01*
X0209273Y0076102D01*
X0209235Y0076025D01*
X0209201Y0075947D01*
X0209170Y0075866D01*
X0209142Y0075785D01*
X0209118Y0075703D01*
X0209098Y0075619D01*
X0209081Y0075535D01*
X0209068Y0075450D01*
X0209058Y0075365D01*
X0209053Y0075279D01*
X0209051Y0075193D01*
X0209051Y0046453D01*
X0147634Y0046453D01*
X0147634Y0055114D01*
X0147632Y0055200D01*
X0147627Y0055286D01*
X0147617Y0055371D01*
X0147604Y0055456D01*
X0147587Y0055540D01*
X0147567Y0055624D01*
X0147543Y0055706D01*
X0147515Y0055787D01*
X0147484Y0055868D01*
X0147450Y0055946D01*
X0147412Y0056023D01*
X0147370Y0056099D01*
X0147326Y0056172D01*
X0147278Y0056243D01*
X0147227Y0056313D01*
X0147173Y0056380D01*
X0147117Y0056444D01*
X0147057Y0056506D01*
X0146995Y0056566D01*
X0146931Y0056622D01*
X0146864Y0056676D01*
X0146794Y0056727D01*
X0146723Y0056775D01*
X0146650Y0056819D01*
X0146574Y0056861D01*
X0146497Y0056899D01*
X0146419Y0056933D01*
X0146338Y0056964D01*
X0146257Y0056992D01*
X0146175Y0057016D01*
X0146091Y0057036D01*
X0146007Y0057053D01*
X0145922Y0057066D01*
X0145837Y0057076D01*
X0145751Y0057081D01*
X0145665Y0057083D01*
X0145579Y0057081D01*
X0145493Y0057076D01*
X0145408Y0057066D01*
X0145323Y0057053D01*
X0145239Y0057036D01*
X0145155Y0057016D01*
X0145073Y0056992D01*
X0144992Y0056964D01*
X0144911Y0056933D01*
X0144833Y0056899D01*
X0144756Y0056861D01*
X0144681Y0056819D01*
X0144607Y0056775D01*
X0144536Y0056727D01*
X0144466Y0056676D01*
X0144399Y0056622D01*
X0144335Y0056566D01*
X0144273Y0056506D01*
X0144213Y0056444D01*
X0144157Y0056380D01*
X0144103Y0056313D01*
X0144052Y0056243D01*
X0144004Y0056172D01*
X0143960Y0056099D01*
X0143918Y0056023D01*
X0143880Y0055946D01*
X0143846Y0055868D01*
X0143815Y0055787D01*
X0143787Y0055706D01*
X0143763Y0055624D01*
X0143743Y0055540D01*
X0143726Y0055456D01*
X0143713Y0055371D01*
X0143703Y0055286D01*
X0143698Y0055200D01*
X0143696Y0055114D01*
X0143697Y0055114D02*
X0143697Y0046453D01*
X0024799Y0046453D01*
X0143697Y0062201D02*
X0143697Y0066531D01*
X0145665Y0068500D02*
X0145751Y0068498D01*
X0145837Y0068493D01*
X0145922Y0068483D01*
X0146007Y0068470D01*
X0146091Y0068453D01*
X0146175Y0068433D01*
X0146257Y0068409D01*
X0146338Y0068381D01*
X0146419Y0068350D01*
X0146497Y0068316D01*
X0146574Y0068278D01*
X0146650Y0068236D01*
X0146723Y0068192D01*
X0146794Y0068144D01*
X0146864Y0068093D01*
X0146931Y0068039D01*
X0146995Y0067983D01*
X0147057Y0067923D01*
X0147117Y0067861D01*
X0147173Y0067797D01*
X0147227Y0067730D01*
X0147278Y0067660D01*
X0147326Y0067589D01*
X0147370Y0067516D01*
X0147412Y0067440D01*
X0147450Y0067363D01*
X0147484Y0067285D01*
X0147515Y0067204D01*
X0147543Y0067123D01*
X0147567Y0067041D01*
X0147587Y0066957D01*
X0147604Y0066873D01*
X0147617Y0066788D01*
X0147627Y0066703D01*
X0147632Y0066617D01*
X0147634Y0066531D01*
X0147634Y0062201D01*
X0147632Y0062115D01*
X0147627Y0062029D01*
X0147617Y0061944D01*
X0147604Y0061859D01*
X0147587Y0061775D01*
X0147567Y0061691D01*
X0147543Y0061609D01*
X0147515Y0061528D01*
X0147484Y0061447D01*
X0147450Y0061369D01*
X0147412Y0061292D01*
X0147370Y0061217D01*
X0147326Y0061143D01*
X0147278Y0061072D01*
X0147227Y0061002D01*
X0147173Y0060935D01*
X0147117Y0060871D01*
X0147057Y0060809D01*
X0146995Y0060749D01*
X0146931Y0060693D01*
X0146864Y0060639D01*
X0146794Y0060588D01*
X0146723Y0060540D01*
X0146650Y0060496D01*
X0146574Y0060454D01*
X0146497Y0060416D01*
X0146419Y0060382D01*
X0146338Y0060351D01*
X0146257Y0060323D01*
X0146175Y0060299D01*
X0146091Y0060279D01*
X0146007Y0060262D01*
X0145922Y0060249D01*
X0145837Y0060239D01*
X0145751Y0060234D01*
X0145665Y0060232D01*
X0145579Y0060234D01*
X0145493Y0060239D01*
X0145408Y0060249D01*
X0145323Y0060262D01*
X0145239Y0060279D01*
X0145155Y0060299D01*
X0145073Y0060323D01*
X0144992Y0060351D01*
X0144911Y0060382D01*
X0144833Y0060416D01*
X0144756Y0060454D01*
X0144681Y0060496D01*
X0144607Y0060540D01*
X0144536Y0060588D01*
X0144466Y0060639D01*
X0144399Y0060693D01*
X0144335Y0060749D01*
X0144273Y0060809D01*
X0144213Y0060871D01*
X0144157Y0060935D01*
X0144103Y0061002D01*
X0144052Y0061072D01*
X0144004Y0061143D01*
X0143960Y0061217D01*
X0143918Y0061292D01*
X0143880Y0061369D01*
X0143846Y0061447D01*
X0143815Y0061528D01*
X0143787Y0061609D01*
X0143763Y0061691D01*
X0143743Y0061775D01*
X0143726Y0061859D01*
X0143713Y0061944D01*
X0143703Y0062029D01*
X0143698Y0062115D01*
X0143696Y0062201D01*
X0143696Y0066531D02*
X0143698Y0066617D01*
X0143703Y0066703D01*
X0143713Y0066788D01*
X0143726Y0066873D01*
X0143743Y0066957D01*
X0143763Y0067041D01*
X0143787Y0067123D01*
X0143815Y0067204D01*
X0143846Y0067285D01*
X0143880Y0067363D01*
X0143918Y0067440D01*
X0143960Y0067516D01*
X0144004Y0067589D01*
X0144052Y0067660D01*
X0144103Y0067730D01*
X0144157Y0067797D01*
X0144213Y0067861D01*
X0144273Y0067923D01*
X0144335Y0067983D01*
X0144399Y0068039D01*
X0144466Y0068093D01*
X0144536Y0068144D01*
X0144607Y0068192D01*
X0144681Y0068236D01*
X0144756Y0068278D01*
X0144833Y0068316D01*
X0144911Y0068350D01*
X0144992Y0068381D01*
X0145073Y0068409D01*
X0145155Y0068433D01*
X0145239Y0068453D01*
X0145323Y0068470D01*
X0145408Y0068483D01*
X0145493Y0068493D01*
X0145579Y0068498D01*
X0145665Y0068500D01*
X0143696Y0072437D02*
X0143698Y0072525D01*
X0143704Y0072613D01*
X0143714Y0072701D01*
X0143728Y0072789D01*
X0143745Y0072875D01*
X0143767Y0072961D01*
X0143792Y0073045D01*
X0143822Y0073129D01*
X0143854Y0073211D01*
X0143891Y0073291D01*
X0143931Y0073370D01*
X0143975Y0073447D01*
X0144022Y0073522D01*
X0144072Y0073594D01*
X0144126Y0073665D01*
X0144182Y0073732D01*
X0144242Y0073798D01*
X0144304Y0073860D01*
X0144370Y0073920D01*
X0144437Y0073976D01*
X0144508Y0074030D01*
X0144580Y0074080D01*
X0144655Y0074127D01*
X0144732Y0074171D01*
X0144811Y0074211D01*
X0144891Y0074248D01*
X0144973Y0074280D01*
X0145057Y0074310D01*
X0145141Y0074335D01*
X0145227Y0074357D01*
X0145313Y0074374D01*
X0145401Y0074388D01*
X0145489Y0074398D01*
X0145577Y0074404D01*
X0145665Y0074406D01*
X0145753Y0074404D01*
X0145841Y0074398D01*
X0145929Y0074388D01*
X0146017Y0074374D01*
X0146103Y0074357D01*
X0146189Y0074335D01*
X0146273Y0074310D01*
X0146357Y0074280D01*
X0146439Y0074248D01*
X0146519Y0074211D01*
X0146598Y0074171D01*
X0146675Y0074127D01*
X0146750Y0074080D01*
X0146822Y0074030D01*
X0146893Y0073976D01*
X0146960Y0073920D01*
X0147026Y0073860D01*
X0147088Y0073798D01*
X0147148Y0073732D01*
X0147204Y0073665D01*
X0147258Y0073594D01*
X0147308Y0073522D01*
X0147355Y0073447D01*
X0147399Y0073370D01*
X0147439Y0073291D01*
X0147476Y0073211D01*
X0147508Y0073129D01*
X0147538Y0073045D01*
X0147563Y0072961D01*
X0147585Y0072875D01*
X0147602Y0072789D01*
X0147616Y0072701D01*
X0147626Y0072613D01*
X0147632Y0072525D01*
X0147634Y0072437D01*
X0147632Y0072349D01*
X0147626Y0072261D01*
X0147616Y0072173D01*
X0147602Y0072085D01*
X0147585Y0071999D01*
X0147563Y0071913D01*
X0147538Y0071829D01*
X0147508Y0071745D01*
X0147476Y0071663D01*
X0147439Y0071583D01*
X0147399Y0071504D01*
X0147355Y0071427D01*
X0147308Y0071352D01*
X0147258Y0071280D01*
X0147204Y0071209D01*
X0147148Y0071142D01*
X0147088Y0071076D01*
X0147026Y0071014D01*
X0146960Y0070954D01*
X0146893Y0070898D01*
X0146822Y0070844D01*
X0146750Y0070794D01*
X0146675Y0070747D01*
X0146598Y0070703D01*
X0146519Y0070663D01*
X0146439Y0070626D01*
X0146357Y0070594D01*
X0146273Y0070564D01*
X0146189Y0070539D01*
X0146103Y0070517D01*
X0146017Y0070500D01*
X0145929Y0070486D01*
X0145841Y0070476D01*
X0145753Y0070470D01*
X0145665Y0070468D01*
X0145577Y0070470D01*
X0145489Y0070476D01*
X0145401Y0070486D01*
X0145313Y0070500D01*
X0145227Y0070517D01*
X0145141Y0070539D01*
X0145057Y0070564D01*
X0144973Y0070594D01*
X0144891Y0070626D01*
X0144811Y0070663D01*
X0144732Y0070703D01*
X0144655Y0070747D01*
X0144580Y0070794D01*
X0144508Y0070844D01*
X0144437Y0070898D01*
X0144370Y0070954D01*
X0144304Y0071014D01*
X0144242Y0071076D01*
X0144182Y0071142D01*
X0144126Y0071209D01*
X0144072Y0071280D01*
X0144022Y0071352D01*
X0143975Y0071427D01*
X0143931Y0071504D01*
X0143891Y0071583D01*
X0143854Y0071663D01*
X0143822Y0071745D01*
X0143792Y0071829D01*
X0143767Y0071913D01*
X0143745Y0071999D01*
X0143728Y0072085D01*
X0143714Y0072173D01*
X0143704Y0072261D01*
X0143698Y0072349D01*
X0143696Y0072437D01*
X0143696Y0078343D02*
X0143698Y0078431D01*
X0143704Y0078519D01*
X0143714Y0078607D01*
X0143728Y0078695D01*
X0143745Y0078781D01*
X0143767Y0078867D01*
X0143792Y0078951D01*
X0143822Y0079035D01*
X0143854Y0079117D01*
X0143891Y0079197D01*
X0143931Y0079276D01*
X0143975Y0079353D01*
X0144022Y0079428D01*
X0144072Y0079500D01*
X0144126Y0079571D01*
X0144182Y0079638D01*
X0144242Y0079704D01*
X0144304Y0079766D01*
X0144370Y0079826D01*
X0144437Y0079882D01*
X0144508Y0079936D01*
X0144580Y0079986D01*
X0144655Y0080033D01*
X0144732Y0080077D01*
X0144811Y0080117D01*
X0144891Y0080154D01*
X0144973Y0080186D01*
X0145057Y0080216D01*
X0145141Y0080241D01*
X0145227Y0080263D01*
X0145313Y0080280D01*
X0145401Y0080294D01*
X0145489Y0080304D01*
X0145577Y0080310D01*
X0145665Y0080312D01*
X0145753Y0080310D01*
X0145841Y0080304D01*
X0145929Y0080294D01*
X0146017Y0080280D01*
X0146103Y0080263D01*
X0146189Y0080241D01*
X0146273Y0080216D01*
X0146357Y0080186D01*
X0146439Y0080154D01*
X0146519Y0080117D01*
X0146598Y0080077D01*
X0146675Y0080033D01*
X0146750Y0079986D01*
X0146822Y0079936D01*
X0146893Y0079882D01*
X0146960Y0079826D01*
X0147026Y0079766D01*
X0147088Y0079704D01*
X0147148Y0079638D01*
X0147204Y0079571D01*
X0147258Y0079500D01*
X0147308Y0079428D01*
X0147355Y0079353D01*
X0147399Y0079276D01*
X0147439Y0079197D01*
X0147476Y0079117D01*
X0147508Y0079035D01*
X0147538Y0078951D01*
X0147563Y0078867D01*
X0147585Y0078781D01*
X0147602Y0078695D01*
X0147616Y0078607D01*
X0147626Y0078519D01*
X0147632Y0078431D01*
X0147634Y0078343D01*
X0147632Y0078255D01*
X0147626Y0078167D01*
X0147616Y0078079D01*
X0147602Y0077991D01*
X0147585Y0077905D01*
X0147563Y0077819D01*
X0147538Y0077735D01*
X0147508Y0077651D01*
X0147476Y0077569D01*
X0147439Y0077489D01*
X0147399Y0077410D01*
X0147355Y0077333D01*
X0147308Y0077258D01*
X0147258Y0077186D01*
X0147204Y0077115D01*
X0147148Y0077048D01*
X0147088Y0076982D01*
X0147026Y0076920D01*
X0146960Y0076860D01*
X0146893Y0076804D01*
X0146822Y0076750D01*
X0146750Y0076700D01*
X0146675Y0076653D01*
X0146598Y0076609D01*
X0146519Y0076569D01*
X0146439Y0076532D01*
X0146357Y0076500D01*
X0146273Y0076470D01*
X0146189Y0076445D01*
X0146103Y0076423D01*
X0146017Y0076406D01*
X0145929Y0076392D01*
X0145841Y0076382D01*
X0145753Y0076376D01*
X0145665Y0076374D01*
X0145577Y0076376D01*
X0145489Y0076382D01*
X0145401Y0076392D01*
X0145313Y0076406D01*
X0145227Y0076423D01*
X0145141Y0076445D01*
X0145057Y0076470D01*
X0144973Y0076500D01*
X0144891Y0076532D01*
X0144811Y0076569D01*
X0144732Y0076609D01*
X0144655Y0076653D01*
X0144580Y0076700D01*
X0144508Y0076750D01*
X0144437Y0076804D01*
X0144370Y0076860D01*
X0144304Y0076920D01*
X0144242Y0076982D01*
X0144182Y0077048D01*
X0144126Y0077115D01*
X0144072Y0077186D01*
X0144022Y0077258D01*
X0143975Y0077333D01*
X0143931Y0077410D01*
X0143891Y0077489D01*
X0143854Y0077569D01*
X0143822Y0077651D01*
X0143792Y0077735D01*
X0143767Y0077819D01*
X0143745Y0077905D01*
X0143728Y0077991D01*
X0143714Y0078079D01*
X0143704Y0078167D01*
X0143698Y0078255D01*
X0143696Y0078343D01*
X0209051Y0081886D02*
X0209053Y0081974D01*
X0209059Y0082062D01*
X0209069Y0082150D01*
X0209083Y0082238D01*
X0209100Y0082324D01*
X0209122Y0082410D01*
X0209147Y0082494D01*
X0209177Y0082578D01*
X0209209Y0082660D01*
X0209246Y0082740D01*
X0209286Y0082819D01*
X0209330Y0082896D01*
X0209377Y0082971D01*
X0209427Y0083043D01*
X0209481Y0083114D01*
X0209537Y0083181D01*
X0209597Y0083247D01*
X0209659Y0083309D01*
X0209725Y0083369D01*
X0209792Y0083425D01*
X0209863Y0083479D01*
X0209935Y0083529D01*
X0210010Y0083576D01*
X0210087Y0083620D01*
X0210166Y0083660D01*
X0210246Y0083697D01*
X0210328Y0083729D01*
X0210412Y0083759D01*
X0210496Y0083784D01*
X0210582Y0083806D01*
X0210668Y0083823D01*
X0210756Y0083837D01*
X0210844Y0083847D01*
X0210932Y0083853D01*
X0211020Y0083855D01*
X0211108Y0083853D01*
X0211196Y0083847D01*
X0211284Y0083837D01*
X0211372Y0083823D01*
X0211458Y0083806D01*
X0211544Y0083784D01*
X0211628Y0083759D01*
X0211712Y0083729D01*
X0211794Y0083697D01*
X0211874Y0083660D01*
X0211953Y0083620D01*
X0212030Y0083576D01*
X0212105Y0083529D01*
X0212177Y0083479D01*
X0212248Y0083425D01*
X0212315Y0083369D01*
X0212381Y0083309D01*
X0212443Y0083247D01*
X0212503Y0083181D01*
X0212559Y0083114D01*
X0212613Y0083043D01*
X0212663Y0082971D01*
X0212710Y0082896D01*
X0212754Y0082819D01*
X0212794Y0082740D01*
X0212831Y0082660D01*
X0212863Y0082578D01*
X0212893Y0082494D01*
X0212918Y0082410D01*
X0212940Y0082324D01*
X0212957Y0082238D01*
X0212971Y0082150D01*
X0212981Y0082062D01*
X0212987Y0081974D01*
X0212989Y0081886D01*
X0212987Y0081798D01*
X0212981Y0081710D01*
X0212971Y0081622D01*
X0212957Y0081534D01*
X0212940Y0081448D01*
X0212918Y0081362D01*
X0212893Y0081278D01*
X0212863Y0081194D01*
X0212831Y0081112D01*
X0212794Y0081032D01*
X0212754Y0080953D01*
X0212710Y0080876D01*
X0212663Y0080801D01*
X0212613Y0080729D01*
X0212559Y0080658D01*
X0212503Y0080591D01*
X0212443Y0080525D01*
X0212381Y0080463D01*
X0212315Y0080403D01*
X0212248Y0080347D01*
X0212177Y0080293D01*
X0212105Y0080243D01*
X0212030Y0080196D01*
X0211953Y0080152D01*
X0211874Y0080112D01*
X0211794Y0080075D01*
X0211712Y0080043D01*
X0211628Y0080013D01*
X0211544Y0079988D01*
X0211458Y0079966D01*
X0211372Y0079949D01*
X0211284Y0079935D01*
X0211196Y0079925D01*
X0211108Y0079919D01*
X0211020Y0079917D01*
X0210932Y0079919D01*
X0210844Y0079925D01*
X0210756Y0079935D01*
X0210668Y0079949D01*
X0210582Y0079966D01*
X0210496Y0079988D01*
X0210412Y0080013D01*
X0210328Y0080043D01*
X0210246Y0080075D01*
X0210166Y0080112D01*
X0210087Y0080152D01*
X0210010Y0080196D01*
X0209935Y0080243D01*
X0209863Y0080293D01*
X0209792Y0080347D01*
X0209725Y0080403D01*
X0209659Y0080463D01*
X0209597Y0080525D01*
X0209537Y0080591D01*
X0209481Y0080658D01*
X0209427Y0080729D01*
X0209377Y0080801D01*
X0209330Y0080876D01*
X0209286Y0080953D01*
X0209246Y0081032D01*
X0209209Y0081112D01*
X0209177Y0081194D01*
X0209147Y0081278D01*
X0209122Y0081362D01*
X0209100Y0081448D01*
X0209083Y0081534D01*
X0209069Y0081622D01*
X0209059Y0081710D01*
X0209053Y0081798D01*
X0209051Y0081886D01*
X0209051Y0089760D02*
X0209053Y0089848D01*
X0209059Y0089936D01*
X0209069Y0090024D01*
X0209083Y0090112D01*
X0209100Y0090198D01*
X0209122Y0090284D01*
X0209147Y0090368D01*
X0209177Y0090452D01*
X0209209Y0090534D01*
X0209246Y0090614D01*
X0209286Y0090693D01*
X0209330Y0090770D01*
X0209377Y0090845D01*
X0209427Y0090917D01*
X0209481Y0090988D01*
X0209537Y0091055D01*
X0209597Y0091121D01*
X0209659Y0091183D01*
X0209725Y0091243D01*
X0209792Y0091299D01*
X0209863Y0091353D01*
X0209935Y0091403D01*
X0210010Y0091450D01*
X0210087Y0091494D01*
X0210166Y0091534D01*
X0210246Y0091571D01*
X0210328Y0091603D01*
X0210412Y0091633D01*
X0210496Y0091658D01*
X0210582Y0091680D01*
X0210668Y0091697D01*
X0210756Y0091711D01*
X0210844Y0091721D01*
X0210932Y0091727D01*
X0211020Y0091729D01*
X0211108Y0091727D01*
X0211196Y0091721D01*
X0211284Y0091711D01*
X0211372Y0091697D01*
X0211458Y0091680D01*
X0211544Y0091658D01*
X0211628Y0091633D01*
X0211712Y0091603D01*
X0211794Y0091571D01*
X0211874Y0091534D01*
X0211953Y0091494D01*
X0212030Y0091450D01*
X0212105Y0091403D01*
X0212177Y0091353D01*
X0212248Y0091299D01*
X0212315Y0091243D01*
X0212381Y0091183D01*
X0212443Y0091121D01*
X0212503Y0091055D01*
X0212559Y0090988D01*
X0212613Y0090917D01*
X0212663Y0090845D01*
X0212710Y0090770D01*
X0212754Y0090693D01*
X0212794Y0090614D01*
X0212831Y0090534D01*
X0212863Y0090452D01*
X0212893Y0090368D01*
X0212918Y0090284D01*
X0212940Y0090198D01*
X0212957Y0090112D01*
X0212971Y0090024D01*
X0212981Y0089936D01*
X0212987Y0089848D01*
X0212989Y0089760D01*
X0212987Y0089672D01*
X0212981Y0089584D01*
X0212971Y0089496D01*
X0212957Y0089408D01*
X0212940Y0089322D01*
X0212918Y0089236D01*
X0212893Y0089152D01*
X0212863Y0089068D01*
X0212831Y0088986D01*
X0212794Y0088906D01*
X0212754Y0088827D01*
X0212710Y0088750D01*
X0212663Y0088675D01*
X0212613Y0088603D01*
X0212559Y0088532D01*
X0212503Y0088465D01*
X0212443Y0088399D01*
X0212381Y0088337D01*
X0212315Y0088277D01*
X0212248Y0088221D01*
X0212177Y0088167D01*
X0212105Y0088117D01*
X0212030Y0088070D01*
X0211953Y0088026D01*
X0211874Y0087986D01*
X0211794Y0087949D01*
X0211712Y0087917D01*
X0211628Y0087887D01*
X0211544Y0087862D01*
X0211458Y0087840D01*
X0211372Y0087823D01*
X0211284Y0087809D01*
X0211196Y0087799D01*
X0211108Y0087793D01*
X0211020Y0087791D01*
X0210932Y0087793D01*
X0210844Y0087799D01*
X0210756Y0087809D01*
X0210668Y0087823D01*
X0210582Y0087840D01*
X0210496Y0087862D01*
X0210412Y0087887D01*
X0210328Y0087917D01*
X0210246Y0087949D01*
X0210166Y0087986D01*
X0210087Y0088026D01*
X0210010Y0088070D01*
X0209935Y0088117D01*
X0209863Y0088167D01*
X0209792Y0088221D01*
X0209725Y0088277D01*
X0209659Y0088337D01*
X0209597Y0088399D01*
X0209537Y0088465D01*
X0209481Y0088532D01*
X0209427Y0088603D01*
X0209377Y0088675D01*
X0209330Y0088750D01*
X0209286Y0088827D01*
X0209246Y0088906D01*
X0209209Y0088986D01*
X0209177Y0089068D01*
X0209147Y0089152D01*
X0209122Y0089236D01*
X0209100Y0089322D01*
X0209083Y0089408D01*
X0209069Y0089496D01*
X0209059Y0089584D01*
X0209053Y0089672D01*
X0209051Y0089760D01*
X0209051Y0097634D02*
X0209053Y0097722D01*
X0209059Y0097810D01*
X0209069Y0097898D01*
X0209083Y0097986D01*
X0209100Y0098072D01*
X0209122Y0098158D01*
X0209147Y0098242D01*
X0209177Y0098326D01*
X0209209Y0098408D01*
X0209246Y0098488D01*
X0209286Y0098567D01*
X0209330Y0098644D01*
X0209377Y0098719D01*
X0209427Y0098791D01*
X0209481Y0098862D01*
X0209537Y0098929D01*
X0209597Y0098995D01*
X0209659Y0099057D01*
X0209725Y0099117D01*
X0209792Y0099173D01*
X0209863Y0099227D01*
X0209935Y0099277D01*
X0210010Y0099324D01*
X0210087Y0099368D01*
X0210166Y0099408D01*
X0210246Y0099445D01*
X0210328Y0099477D01*
X0210412Y0099507D01*
X0210496Y0099532D01*
X0210582Y0099554D01*
X0210668Y0099571D01*
X0210756Y0099585D01*
X0210844Y0099595D01*
X0210932Y0099601D01*
X0211020Y0099603D01*
X0211108Y0099601D01*
X0211196Y0099595D01*
X0211284Y0099585D01*
X0211372Y0099571D01*
X0211458Y0099554D01*
X0211544Y0099532D01*
X0211628Y0099507D01*
X0211712Y0099477D01*
X0211794Y0099445D01*
X0211874Y0099408D01*
X0211953Y0099368D01*
X0212030Y0099324D01*
X0212105Y0099277D01*
X0212177Y0099227D01*
X0212248Y0099173D01*
X0212315Y0099117D01*
X0212381Y0099057D01*
X0212443Y0098995D01*
X0212503Y0098929D01*
X0212559Y0098862D01*
X0212613Y0098791D01*
X0212663Y0098719D01*
X0212710Y0098644D01*
X0212754Y0098567D01*
X0212794Y0098488D01*
X0212831Y0098408D01*
X0212863Y0098326D01*
X0212893Y0098242D01*
X0212918Y0098158D01*
X0212940Y0098072D01*
X0212957Y0097986D01*
X0212971Y0097898D01*
X0212981Y0097810D01*
X0212987Y0097722D01*
X0212989Y0097634D01*
X0212987Y0097546D01*
X0212981Y0097458D01*
X0212971Y0097370D01*
X0212957Y0097282D01*
X0212940Y0097196D01*
X0212918Y0097110D01*
X0212893Y0097026D01*
X0212863Y0096942D01*
X0212831Y0096860D01*
X0212794Y0096780D01*
X0212754Y0096701D01*
X0212710Y0096624D01*
X0212663Y0096549D01*
X0212613Y0096477D01*
X0212559Y0096406D01*
X0212503Y0096339D01*
X0212443Y0096273D01*
X0212381Y0096211D01*
X0212315Y0096151D01*
X0212248Y0096095D01*
X0212177Y0096041D01*
X0212105Y0095991D01*
X0212030Y0095944D01*
X0211953Y0095900D01*
X0211874Y0095860D01*
X0211794Y0095823D01*
X0211712Y0095791D01*
X0211628Y0095761D01*
X0211544Y0095736D01*
X0211458Y0095714D01*
X0211372Y0095697D01*
X0211284Y0095683D01*
X0211196Y0095673D01*
X0211108Y0095667D01*
X0211020Y0095665D01*
X0210932Y0095667D01*
X0210844Y0095673D01*
X0210756Y0095683D01*
X0210668Y0095697D01*
X0210582Y0095714D01*
X0210496Y0095736D01*
X0210412Y0095761D01*
X0210328Y0095791D01*
X0210246Y0095823D01*
X0210166Y0095860D01*
X0210087Y0095900D01*
X0210010Y0095944D01*
X0209935Y0095991D01*
X0209863Y0096041D01*
X0209792Y0096095D01*
X0209725Y0096151D01*
X0209659Y0096211D01*
X0209597Y0096273D01*
X0209537Y0096339D01*
X0209481Y0096406D01*
X0209427Y0096477D01*
X0209377Y0096549D01*
X0209330Y0096624D01*
X0209286Y0096701D01*
X0209246Y0096780D01*
X0209209Y0096860D01*
X0209177Y0096942D01*
X0209147Y0097026D01*
X0209122Y0097110D01*
X0209100Y0097196D01*
X0209083Y0097282D01*
X0209069Y0097370D01*
X0209059Y0097458D01*
X0209053Y0097546D01*
X0209051Y0097634D01*
X0198028Y0118894D02*
X0198030Y0119019D01*
X0198036Y0119144D01*
X0198046Y0119268D01*
X0198060Y0119392D01*
X0198077Y0119516D01*
X0198099Y0119639D01*
X0198125Y0119761D01*
X0198154Y0119883D01*
X0198187Y0120003D01*
X0198225Y0120122D01*
X0198265Y0120241D01*
X0198310Y0120357D01*
X0198358Y0120472D01*
X0198410Y0120586D01*
X0198466Y0120698D01*
X0198525Y0120808D01*
X0198587Y0120916D01*
X0198653Y0121023D01*
X0198722Y0121127D01*
X0198795Y0121228D01*
X0198870Y0121328D01*
X0198949Y0121425D01*
X0199031Y0121519D01*
X0199116Y0121611D01*
X0199203Y0121700D01*
X0199294Y0121786D01*
X0199387Y0121869D01*
X0199483Y0121950D01*
X0199581Y0122027D01*
X0199681Y0122101D01*
X0199784Y0122172D01*
X0199889Y0122239D01*
X0199997Y0122304D01*
X0200106Y0122364D01*
X0200217Y0122422D01*
X0200330Y0122475D01*
X0200444Y0122525D01*
X0200560Y0122572D01*
X0200677Y0122614D01*
X0200796Y0122653D01*
X0200916Y0122689D01*
X0201037Y0122720D01*
X0201159Y0122748D01*
X0201281Y0122771D01*
X0201405Y0122791D01*
X0201529Y0122807D01*
X0201653Y0122819D01*
X0201778Y0122827D01*
X0201903Y0122831D01*
X0202027Y0122831D01*
X0202152Y0122827D01*
X0202277Y0122819D01*
X0202401Y0122807D01*
X0202525Y0122791D01*
X0202649Y0122771D01*
X0202771Y0122748D01*
X0202893Y0122720D01*
X0203014Y0122689D01*
X0203134Y0122653D01*
X0203253Y0122614D01*
X0203370Y0122572D01*
X0203486Y0122525D01*
X0203600Y0122475D01*
X0203713Y0122422D01*
X0203824Y0122364D01*
X0203934Y0122304D01*
X0204041Y0122239D01*
X0204146Y0122172D01*
X0204249Y0122101D01*
X0204349Y0122027D01*
X0204447Y0121950D01*
X0204543Y0121869D01*
X0204636Y0121786D01*
X0204727Y0121700D01*
X0204814Y0121611D01*
X0204899Y0121519D01*
X0204981Y0121425D01*
X0205060Y0121328D01*
X0205135Y0121228D01*
X0205208Y0121127D01*
X0205277Y0121023D01*
X0205343Y0120916D01*
X0205405Y0120808D01*
X0205464Y0120698D01*
X0205520Y0120586D01*
X0205572Y0120472D01*
X0205620Y0120357D01*
X0205665Y0120241D01*
X0205705Y0120122D01*
X0205743Y0120003D01*
X0205776Y0119883D01*
X0205805Y0119761D01*
X0205831Y0119639D01*
X0205853Y0119516D01*
X0205870Y0119392D01*
X0205884Y0119268D01*
X0205894Y0119144D01*
X0205900Y0119019D01*
X0205902Y0118894D01*
X0205900Y0118769D01*
X0205894Y0118644D01*
X0205884Y0118520D01*
X0205870Y0118396D01*
X0205853Y0118272D01*
X0205831Y0118149D01*
X0205805Y0118027D01*
X0205776Y0117905D01*
X0205743Y0117785D01*
X0205705Y0117666D01*
X0205665Y0117547D01*
X0205620Y0117431D01*
X0205572Y0117316D01*
X0205520Y0117202D01*
X0205464Y0117090D01*
X0205405Y0116980D01*
X0205343Y0116872D01*
X0205277Y0116765D01*
X0205208Y0116661D01*
X0205135Y0116560D01*
X0205060Y0116460D01*
X0204981Y0116363D01*
X0204899Y0116269D01*
X0204814Y0116177D01*
X0204727Y0116088D01*
X0204636Y0116002D01*
X0204543Y0115919D01*
X0204447Y0115838D01*
X0204349Y0115761D01*
X0204249Y0115687D01*
X0204146Y0115616D01*
X0204041Y0115549D01*
X0203933Y0115484D01*
X0203824Y0115424D01*
X0203713Y0115366D01*
X0203600Y0115313D01*
X0203486Y0115263D01*
X0203370Y0115216D01*
X0203253Y0115174D01*
X0203134Y0115135D01*
X0203014Y0115099D01*
X0202893Y0115068D01*
X0202771Y0115040D01*
X0202649Y0115017D01*
X0202525Y0114997D01*
X0202401Y0114981D01*
X0202277Y0114969D01*
X0202152Y0114961D01*
X0202027Y0114957D01*
X0201903Y0114957D01*
X0201778Y0114961D01*
X0201653Y0114969D01*
X0201529Y0114981D01*
X0201405Y0114997D01*
X0201281Y0115017D01*
X0201159Y0115040D01*
X0201037Y0115068D01*
X0200916Y0115099D01*
X0200796Y0115135D01*
X0200677Y0115174D01*
X0200560Y0115216D01*
X0200444Y0115263D01*
X0200330Y0115313D01*
X0200217Y0115366D01*
X0200106Y0115424D01*
X0199996Y0115484D01*
X0199889Y0115549D01*
X0199784Y0115616D01*
X0199681Y0115687D01*
X0199581Y0115761D01*
X0199483Y0115838D01*
X0199387Y0115919D01*
X0199294Y0116002D01*
X0199203Y0116088D01*
X0199116Y0116177D01*
X0199031Y0116269D01*
X0198949Y0116363D01*
X0198870Y0116460D01*
X0198795Y0116560D01*
X0198722Y0116661D01*
X0198653Y0116765D01*
X0198587Y0116872D01*
X0198525Y0116980D01*
X0198466Y0117090D01*
X0198410Y0117202D01*
X0198358Y0117316D01*
X0198310Y0117431D01*
X0198265Y0117547D01*
X0198225Y0117666D01*
X0198187Y0117785D01*
X0198154Y0117905D01*
X0198125Y0118027D01*
X0198099Y0118149D01*
X0198077Y0118272D01*
X0198060Y0118396D01*
X0198046Y0118520D01*
X0198036Y0118644D01*
X0198030Y0118769D01*
X0198028Y0118894D01*
M02*
