G75*
%MOIN*%
%OFA0B0*%
%FSLAX25Y25*%
%IPPOS*%
%LPD*%
%AMOC8*
5,1,8,0,0,1.08239X$1,22.5*
%
%ADD10C,0.06000*%
%ADD11C,0.05400*%
%ADD12C,0.01102*%
%ADD13C,0.00594*%
%ADD14C,0.10668*%
%ADD15C,0.01654*%
%ADD16C,0.01575*%
%ADD17C,0.00200*%
%ADD18C,0.00787*%
%ADD19C,0.00300*%
%ADD20C,0.01181*%
D10*
X0280796Y0062016D03*
X0290796Y0062016D03*
X0290796Y0072016D03*
X0280796Y0072016D03*
X0280796Y0082016D03*
X0290796Y0082016D03*
X0290796Y0092016D03*
X0290796Y0102016D03*
X0280796Y0102016D03*
X0280796Y0092016D03*
X0280796Y0112016D03*
X0290796Y0112016D03*
X0290796Y0122016D03*
X0280796Y0122016D03*
X0280796Y0132016D03*
X0290796Y0132016D03*
X0228630Y0223512D03*
X0218630Y0223512D03*
X0208630Y0223512D03*
X0198630Y0223512D03*
X0188630Y0223512D03*
X0188630Y0233512D03*
X0198630Y0233512D03*
X0208630Y0233512D03*
X0218630Y0233512D03*
X0228630Y0233512D03*
D11*
X0179890Y0177882D03*
X0179890Y0167882D03*
X0329693Y0058237D03*
X0339693Y0058237D03*
D12*
X0239733Y0113552D03*
X0222672Y0097646D03*
X0223144Y0093079D03*
X0223158Y0088788D03*
X0222521Y0083473D03*
X0222213Y0074181D03*
X0220441Y0065205D03*
X0215717Y0065126D03*
X0214063Y0063315D03*
X0221634Y0059315D03*
X0221465Y0054772D03*
X0222201Y0053433D03*
X0219418Y0053748D03*
X0218512Y0054969D03*
X0197292Y0070048D03*
X0191347Y0069654D03*
X0187370Y0066496D03*
X0180284Y0063945D03*
X0177528Y0063945D03*
X0175559Y0065126D03*
X0173433Y0063642D03*
X0169063Y0068237D03*
X0171504Y0076150D03*
X0184615Y0075953D03*
X0183040Y0091426D03*
X0183040Y0093079D03*
X0183040Y0095048D03*
X0183040Y0097016D03*
X0183000Y0098670D03*
X0185244Y0098788D03*
X0185402Y0097016D03*
X0185402Y0095048D03*
X0185402Y0093079D03*
X0180678Y0093079D03*
X0180678Y0091386D03*
X0175271Y0091347D03*
X0175586Y0097004D03*
X0180678Y0097016D03*
X0180599Y0098748D03*
X0180678Y0095048D03*
X0190572Y0093473D03*
X0197449Y0104221D03*
X0202410Y0112922D03*
X0214227Y0106583D03*
X0218867Y0136780D03*
X0185205Y0193473D03*
X0180678Y0054300D03*
X0177528Y0054103D03*
X0175467Y0053932D03*
X0173591Y0053709D03*
X0170441Y0050559D03*
D13*
X0167646Y0048788D03*
X0169733Y0048158D03*
X0167489Y0052016D03*
X0170953Y0053591D03*
X0174024Y0057410D03*
X0175717Y0056701D03*
X0175323Y0060244D03*
X0174851Y0062213D03*
X0181859Y0061386D03*
X0181780Y0058630D03*
X0181800Y0056563D03*
X0185244Y0058552D03*
X0187370Y0059024D03*
X0189851Y0061544D03*
X0189142Y0062764D03*
X0190824Y0064397D03*
X0192095Y0064536D03*
X0188709Y0065323D03*
X0185008Y0065126D03*
X0185481Y0063119D03*
X0188046Y0069686D03*
X0190914Y0071150D03*
X0190402Y0072056D03*
X0191701Y0072056D03*
X0192252Y0074563D03*
X0193690Y0075344D03*
X0196032Y0076937D03*
X0197764Y0076775D03*
X0199142Y0076426D03*
X0199181Y0077725D03*
X0201701Y0076662D03*
X0204260Y0076426D03*
X0204575Y0077410D03*
X0204457Y0079063D03*
X0201229Y0081741D03*
X0201229Y0083420D03*
X0201741Y0085008D03*
X0202252Y0086097D03*
X0201741Y0087067D03*
X0200756Y0089536D03*
X0201150Y0091504D03*
X0202922Y0092213D03*
X0202725Y0090126D03*
X0205087Y0087567D03*
X0205087Y0085599D03*
X0205087Y0083630D03*
X0207056Y0083630D03*
X0208197Y0084615D03*
X0209024Y0085520D03*
X0209221Y0087042D03*
X0210993Y0085493D03*
X0213197Y0085402D03*
X0214930Y0085520D03*
X0216111Y0086977D03*
X0216898Y0085520D03*
X0218591Y0084103D03*
X0219851Y0082095D03*
X0216925Y0080796D03*
X0214930Y0083630D03*
X0212961Y0083630D03*
X0210685Y0081215D03*
X0209418Y0083630D03*
X0207056Y0089536D03*
X0207036Y0090736D03*
X0208630Y0090717D03*
X0209024Y0092292D03*
X0207056Y0093473D03*
X0207056Y0095441D03*
X0209024Y0097410D03*
X0209024Y0099378D03*
X0208394Y0100874D03*
X0206583Y0100874D03*
X0207056Y0099378D03*
X0203709Y0100789D03*
X0202292Y0100874D03*
X0201189Y0103315D03*
X0204063Y0104260D03*
X0207056Y0103315D03*
X0210284Y0106005D03*
X0210599Y0110796D03*
X0210678Y0112056D03*
X0209339Y0111071D03*
X0208827Y0112370D03*
X0207843Y0111386D03*
X0207843Y0113355D03*
X0206465Y0115717D03*
X0206544Y0116937D03*
X0206662Y0118079D03*
X0206622Y0119654D03*
X0206622Y0120993D03*
X0203827Y0121307D03*
X0203827Y0119615D03*
X0201741Y0125100D03*
X0200481Y0125678D03*
X0195481Y0125599D03*
X0193000Y0124260D03*
X0190520Y0125481D03*
X0188000Y0124260D03*
X0185363Y0125599D03*
X0184300Y0121859D03*
X0187213Y0121189D03*
X0186840Y0119594D03*
X0185441Y0116741D03*
X0182134Y0115559D03*
X0181670Y0113653D03*
X0184063Y0113119D03*
X0184851Y0109772D03*
X0182528Y0109457D03*
X0183827Y0107252D03*
X0185619Y0107193D03*
X0185243Y0105640D03*
X0186780Y0105874D03*
X0192961Y0105914D03*
X0196150Y0110993D03*
X0196741Y0112370D03*
X0194969Y0111937D03*
X0193158Y0112567D03*
X0193827Y0114142D03*
X0193827Y0115953D03*
X0193906Y0117764D03*
X0193433Y0120126D03*
X0192252Y0119851D03*
X0190284Y0122134D03*
X0191189Y0112410D03*
X0200233Y0113158D03*
X0203670Y0113709D03*
X0214142Y0114930D03*
X0214733Y0114076D03*
X0215717Y0113092D03*
X0215835Y0111950D03*
X0216741Y0112383D03*
X0216504Y0111123D03*
X0218473Y0110796D03*
X0220441Y0110533D03*
X0220638Y0108237D03*
X0221229Y0106859D03*
X0222607Y0106662D03*
X0223788Y0106859D03*
X0225166Y0109024D03*
X0224772Y0110533D03*
X0226859Y0112009D03*
X0227725Y0112961D03*
X0226544Y0107383D03*
X0224969Y0104063D03*
X0223000Y0104103D03*
X0220756Y0103315D03*
X0218867Y0103315D03*
X0216898Y0103333D03*
X0215323Y0101150D03*
X0214930Y0099378D03*
X0212976Y0099385D03*
X0212725Y0100553D03*
X0211111Y0100835D03*
X0212961Y0102764D03*
X0216898Y0099378D03*
X0217685Y0096229D03*
X0216977Y0094103D03*
X0216898Y0092292D03*
X0216111Y0090914D03*
X0216898Y0089930D03*
X0212961Y0089536D03*
X0210993Y0093473D03*
X0211071Y0095874D03*
X0214930Y0096032D03*
X0214930Y0093473D03*
X0220835Y0097410D03*
X0222622Y0095259D03*
X0227489Y0095284D03*
X0227370Y0092134D03*
X0226071Y0088473D03*
X0222567Y0086032D03*
X0219930Y0086622D03*
X0226701Y0083355D03*
X0225796Y0080638D03*
X0222804Y0079831D03*
X0219851Y0078552D03*
X0221229Y0076419D03*
X0223840Y0076504D03*
X0224930Y0077370D03*
X0227528Y0076544D03*
X0227528Y0072213D03*
X0227449Y0067252D03*
X0223906Y0064300D03*
X0224721Y0062449D03*
X0222449Y0060402D03*
X0224969Y0058897D03*
X0227056Y0057725D03*
X0228237Y0055678D03*
X0225756Y0055126D03*
X0227292Y0052882D03*
X0226032Y0050087D03*
X0219300Y0048158D03*
X0219221Y0052016D03*
X0215244Y0053630D03*
X0210914Y0053433D03*
X0211465Y0055914D03*
X0208276Y0053158D03*
X0205402Y0053355D03*
X0201150Y0053315D03*
X0199181Y0053709D03*
X0197607Y0054103D03*
X0194575Y0053433D03*
X0193276Y0055284D03*
X0190874Y0055441D03*
X0191150Y0053552D03*
X0186189Y0054890D03*
X0185008Y0053512D03*
X0176741Y0048237D03*
X0167489Y0057922D03*
X0167607Y0064772D03*
X0173433Y0067489D03*
X0177134Y0069851D03*
X0177922Y0076544D03*
X0179890Y0076544D03*
X0179890Y0078512D03*
X0178985Y0081898D03*
X0178315Y0082892D03*
X0176741Y0082843D03*
X0175481Y0082437D03*
X0171937Y0080323D03*
X0171347Y0082410D03*
X0171032Y0084418D03*
X0171059Y0088748D03*
X0170323Y0091583D03*
X0168552Y0092567D03*
X0168158Y0094536D03*
X0168591Y0097370D03*
X0171071Y0095441D03*
X0175586Y0099378D03*
X0173591Y0101268D03*
X0175993Y0104496D03*
X0181898Y0103670D03*
X0186780Y0101956D03*
X0194455Y0099183D03*
X0196071Y0100678D03*
X0197646Y0098197D03*
X0200559Y0096229D03*
X0203906Y0097213D03*
X0205087Y0093473D03*
X0197961Y0093709D03*
X0195796Y0094457D03*
X0196032Y0090520D03*
X0194451Y0088741D03*
X0194098Y0087572D03*
X0193119Y0085835D03*
X0193867Y0082843D03*
X0192095Y0082685D03*
X0193827Y0080914D03*
X0192685Y0079890D03*
X0196032Y0079300D03*
X0196977Y0081111D03*
X0197016Y0082370D03*
X0199181Y0081662D03*
X0188945Y0082889D03*
X0187567Y0082922D03*
X0185796Y0082843D03*
X0184615Y0081268D03*
X0182922Y0081347D03*
X0182252Y0082843D03*
X0183827Y0082961D03*
X0179890Y0083000D03*
X0182056Y0086780D03*
X0167725Y0088433D03*
X0168473Y0100323D03*
X0169662Y0102630D03*
X0167882Y0103512D03*
X0170126Y0106307D03*
X0168867Y0109221D03*
X0170284Y0110796D03*
X0172213Y0110796D03*
X0173473Y0109654D03*
X0175441Y0110914D03*
X0179181Y0112410D03*
X0179378Y0109260D03*
X0167922Y0112764D03*
X0211898Y0125284D03*
X0213670Y0124890D03*
X0217095Y0107265D03*
X0215756Y0105848D03*
X0223579Y0101335D03*
X0225678Y0102154D03*
X0226898Y0102095D03*
X0227449Y0099733D03*
X0226347Y0099575D03*
X0218670Y0073591D03*
X0222352Y0072213D03*
X0219154Y0069045D03*
X0216304Y0069444D03*
X0212685Y0064957D03*
X0210993Y0063222D03*
X0209300Y0064091D03*
X0205244Y0063119D03*
X0204811Y0065520D03*
X0202324Y0065488D03*
X0201544Y0067410D03*
X0198709Y0064693D03*
X0197685Y0065363D03*
X0196426Y0063355D03*
X0198200Y0058827D03*
X0201033Y0058727D03*
X0202370Y0062843D03*
X0208630Y0060953D03*
X0211347Y0060323D03*
X0213591Y0060559D03*
X0214575Y0061347D03*
X0216583Y0063591D03*
X0222725Y0067319D03*
X0227725Y0063197D03*
X0227607Y0060166D03*
X0221426Y0056701D03*
X0205401Y0069215D03*
X0198512Y0072044D03*
X0197392Y0071396D03*
X0189339Y0075796D03*
X0189733Y0076937D03*
X0188230Y0075277D03*
X0186307Y0077252D03*
X0213985Y0073158D03*
X0240166Y0065835D03*
X0252922Y0052016D03*
X0282252Y0053512D03*
X0316307Y0080284D03*
X0336268Y0098119D03*
X0336268Y0141426D03*
X0304772Y0141426D03*
X0255402Y0127331D03*
X0236465Y0155166D03*
X0175599Y0148867D03*
X0221977Y0201622D03*
X0240402Y0202410D03*
X0176819Y0208748D03*
D14*
X0174378Y0119457D03*
X0221622Y0119457D03*
D15*
X0210796Y0116701D03*
X0204339Y0116819D03*
X0196027Y0118867D03*
X0181859Y0107646D03*
X0192141Y0104063D03*
X0204300Y0140914D03*
D16*
X0179890Y0165323D01*
X0179890Y0167882D01*
D17*
X0203785Y0141508D02*
X0203973Y0141629D01*
X0204188Y0141692D01*
X0204411Y0141692D01*
X0204626Y0141629D01*
X0204814Y0141508D01*
X0204961Y0141339D01*
X0205054Y0141135D01*
X0205085Y0140914D01*
X0205054Y0140692D01*
X0204961Y0140489D01*
X0204814Y0140320D01*
X0204626Y0140199D01*
X0204411Y0140136D01*
X0204188Y0140136D01*
X0203973Y0140199D01*
X0203785Y0140320D01*
X0203639Y0140489D01*
X0203546Y0140692D01*
X0203514Y0140914D01*
X0203546Y0141135D01*
X0203639Y0141339D01*
X0203785Y0141508D01*
X0203756Y0141474D02*
X0204843Y0141474D01*
X0204989Y0141276D02*
X0203610Y0141276D01*
X0203537Y0141077D02*
X0205062Y0141077D01*
X0205080Y0140879D02*
X0203519Y0140879D01*
X0203551Y0140680D02*
X0205048Y0140680D01*
X0204954Y0140482D02*
X0203645Y0140482D01*
X0203842Y0140283D02*
X0204757Y0140283D01*
X0204475Y0141673D02*
X0204124Y0141673D01*
X0193149Y0124517D02*
X0193228Y0124451D01*
X0193279Y0124362D01*
X0193297Y0124260D01*
X0193279Y0124159D01*
X0193228Y0124069D01*
X0193149Y0124003D01*
X0193052Y0123968D01*
X0192949Y0123968D01*
X0192852Y0124003D01*
X0192773Y0124069D01*
X0192721Y0124159D01*
X0192704Y0124260D01*
X0192721Y0124362D01*
X0192773Y0124451D01*
X0192852Y0124517D01*
X0192949Y0124553D01*
X0193052Y0124553D01*
X0193149Y0124517D01*
X0193256Y0124402D02*
X0192745Y0124402D01*
X0192713Y0124204D02*
X0193287Y0124204D01*
X0193151Y0124005D02*
X0192849Y0124005D01*
X0200084Y0113415D02*
X0200181Y0113450D01*
X0200284Y0113450D01*
X0200381Y0113415D01*
X0200460Y0113349D01*
X0200512Y0113259D01*
X0200530Y0113158D01*
X0200512Y0113056D01*
X0200460Y0112967D01*
X0200381Y0112901D01*
X0200284Y0112866D01*
X0200181Y0112866D01*
X0200084Y0112901D01*
X0200005Y0112967D01*
X0199954Y0113056D01*
X0199936Y0113158D01*
X0199954Y0113259D01*
X0200005Y0113349D01*
X0200084Y0113415D01*
X0199969Y0113286D02*
X0200496Y0113286D01*
X0200517Y0113087D02*
X0199948Y0113087D01*
X0200118Y0112889D02*
X0200348Y0112889D01*
X0203391Y0113608D02*
X0203442Y0113518D01*
X0203521Y0113452D01*
X0203618Y0113417D01*
X0203721Y0113417D01*
X0203818Y0113452D01*
X0203897Y0113518D01*
X0203949Y0113608D01*
X0203967Y0113709D01*
X0203949Y0113811D01*
X0203897Y0113900D01*
X0203818Y0113966D01*
X0203721Y0114001D01*
X0203618Y0114001D01*
X0203521Y0113966D01*
X0203442Y0113900D01*
X0203391Y0113811D01*
X0203373Y0113709D01*
X0203391Y0113608D01*
X0203377Y0113683D02*
X0203962Y0113683D01*
X0203908Y0113881D02*
X0203432Y0113881D01*
X0203483Y0113484D02*
X0203857Y0113484D01*
X0210135Y0116276D02*
X0210042Y0116480D01*
X0210010Y0116701D01*
X0210042Y0116923D01*
X0210135Y0117126D01*
X0210281Y0117295D01*
X0210469Y0117416D01*
X0210684Y0117479D01*
X0210908Y0117479D01*
X0211122Y0117416D01*
X0211310Y0117295D01*
X0211457Y0117126D01*
X0211550Y0116923D01*
X0211581Y0116701D01*
X0211550Y0116480D01*
X0211457Y0116276D01*
X0211310Y0116107D01*
X0211122Y0115986D01*
X0210908Y0115923D01*
X0210684Y0115923D01*
X0210469Y0115986D01*
X0210281Y0116107D01*
X0210135Y0116276D01*
X0210146Y0116263D02*
X0211446Y0116263D01*
X0211541Y0116462D02*
X0210050Y0116462D01*
X0210016Y0116660D02*
X0211576Y0116660D01*
X0211559Y0116859D02*
X0210033Y0116859D01*
X0210103Y0117057D02*
X0211488Y0117057D01*
X0211344Y0117256D02*
X0210247Y0117256D01*
X0210600Y0117454D02*
X0210991Y0117454D01*
X0211244Y0116065D02*
X0210347Y0116065D01*
X0210335Y0106297D02*
X0210432Y0106262D01*
X0210511Y0106196D01*
X0210563Y0106107D01*
X0210581Y0106005D01*
X0210563Y0105904D01*
X0210511Y0105814D01*
X0210432Y0105748D01*
X0210335Y0105713D01*
X0210232Y0105713D01*
X0210135Y0105748D01*
X0210056Y0105814D01*
X0210005Y0105904D01*
X0209987Y0106005D01*
X0210005Y0106107D01*
X0210056Y0106196D01*
X0210135Y0106262D01*
X0210232Y0106297D01*
X0210335Y0106297D01*
X0210544Y0106139D02*
X0210024Y0106139D01*
X0209998Y0105941D02*
X0210569Y0105941D01*
X0210416Y0105742D02*
X0210151Y0105742D01*
X0212734Y0102955D02*
X0212813Y0103021D01*
X0212909Y0103057D01*
X0213013Y0103057D01*
X0213109Y0103021D01*
X0213188Y0102955D01*
X0213240Y0102866D01*
X0213258Y0102764D01*
X0213240Y0102663D01*
X0213188Y0102573D01*
X0213109Y0102507D01*
X0213013Y0102472D01*
X0212909Y0102472D01*
X0212813Y0102507D01*
X0212734Y0102573D01*
X0212682Y0102663D01*
X0212664Y0102764D01*
X0212682Y0102866D01*
X0212734Y0102955D01*
X0212743Y0102963D02*
X0213179Y0102963D01*
X0213258Y0102765D02*
X0212664Y0102765D01*
X0212742Y0102566D02*
X0213180Y0102566D01*
X0212776Y0100845D02*
X0212873Y0100810D01*
X0212952Y0100744D01*
X0213004Y0100655D01*
X0213022Y0100553D01*
X0213004Y0100452D01*
X0212952Y0100362D01*
X0212873Y0100296D01*
X0212776Y0100261D01*
X0212673Y0100261D01*
X0212576Y0100296D01*
X0212497Y0100362D01*
X0212446Y0100452D01*
X0212428Y0100553D01*
X0212446Y0100655D01*
X0212497Y0100744D01*
X0212576Y0100810D01*
X0212673Y0100845D01*
X0212776Y0100845D01*
X0212910Y0100779D02*
X0212540Y0100779D01*
X0212433Y0100581D02*
X0213017Y0100581D01*
X0212964Y0100382D02*
X0212486Y0100382D01*
X0208691Y0100874D02*
X0208673Y0100773D01*
X0208621Y0100684D01*
X0208543Y0100617D01*
X0208446Y0100582D01*
X0208343Y0100582D01*
X0208246Y0100617D01*
X0208167Y0100684D01*
X0208115Y0100773D01*
X0208097Y0100874D01*
X0208115Y0100976D01*
X0208167Y0101065D01*
X0208246Y0101131D01*
X0208343Y0101167D01*
X0208446Y0101167D01*
X0208543Y0101131D01*
X0208621Y0101065D01*
X0208673Y0100976D01*
X0208691Y0100874D01*
X0208674Y0100779D02*
X0208114Y0100779D01*
X0208116Y0100978D02*
X0208672Y0100978D01*
X0206880Y0100874D02*
X0206862Y0100773D01*
X0206810Y0100684D01*
X0206731Y0100617D01*
X0206635Y0100582D01*
X0206532Y0100582D01*
X0206435Y0100617D01*
X0206356Y0100684D01*
X0206304Y0100773D01*
X0206286Y0100874D01*
X0206304Y0100976D01*
X0206356Y0101065D01*
X0206435Y0101131D01*
X0206532Y0101167D01*
X0206635Y0101167D01*
X0206731Y0101131D01*
X0206810Y0101065D01*
X0206862Y0100976D01*
X0206880Y0100874D01*
X0206863Y0100779D02*
X0206303Y0100779D01*
X0206305Y0100978D02*
X0206861Y0100978D01*
X0202589Y0100874D02*
X0202571Y0100773D01*
X0202519Y0100684D01*
X0202440Y0100617D01*
X0202343Y0100582D01*
X0202240Y0100582D01*
X0202143Y0100617D01*
X0202064Y0100684D01*
X0202013Y0100773D01*
X0201995Y0100874D01*
X0202013Y0100976D01*
X0202064Y0101065D01*
X0202143Y0101131D01*
X0202240Y0101167D01*
X0202343Y0101167D01*
X0202440Y0101131D01*
X0202519Y0101065D01*
X0202571Y0100976D01*
X0202589Y0100874D01*
X0202572Y0100779D02*
X0202012Y0100779D01*
X0202014Y0100978D02*
X0202569Y0100978D01*
X0206907Y0095698D02*
X0207004Y0095734D01*
X0207107Y0095734D01*
X0207204Y0095698D01*
X0207283Y0095632D01*
X0207334Y0095543D01*
X0207352Y0095441D01*
X0207334Y0095340D01*
X0207283Y0095251D01*
X0207204Y0095184D01*
X0207107Y0095149D01*
X0207004Y0095149D01*
X0206907Y0095184D01*
X0206828Y0095251D01*
X0206777Y0095340D01*
X0206759Y0095441D01*
X0206777Y0095543D01*
X0206828Y0095632D01*
X0206907Y0095698D01*
X0206820Y0095618D02*
X0207291Y0095618D01*
X0207349Y0095420D02*
X0206762Y0095420D01*
X0206863Y0095221D02*
X0207248Y0095221D01*
X0207107Y0093765D02*
X0207204Y0093730D01*
X0207283Y0093664D01*
X0207334Y0093574D01*
X0207352Y0093473D01*
X0207334Y0093371D01*
X0207283Y0093282D01*
X0207204Y0093216D01*
X0207107Y0093180D01*
X0207004Y0093180D01*
X0206907Y0093216D01*
X0206828Y0093282D01*
X0206777Y0093371D01*
X0206759Y0093473D01*
X0206777Y0093574D01*
X0206828Y0093664D01*
X0206907Y0093730D01*
X0207004Y0093765D01*
X0207107Y0093765D01*
X0207301Y0093633D02*
X0206810Y0093633D01*
X0206765Y0093435D02*
X0207346Y0093435D01*
X0207228Y0093236D02*
X0206883Y0093236D01*
X0203201Y0092315D02*
X0203219Y0092213D01*
X0203201Y0092111D01*
X0203149Y0092022D01*
X0203070Y0091956D01*
X0202973Y0091921D01*
X0202870Y0091921D01*
X0202773Y0091956D01*
X0202694Y0092022D01*
X0202643Y0092111D01*
X0202625Y0092213D01*
X0202643Y0092315D01*
X0202694Y0092404D01*
X0202773Y0092470D01*
X0202870Y0092505D01*
X0202973Y0092505D01*
X0203070Y0092470D01*
X0203149Y0092404D01*
X0203201Y0092315D01*
X0203213Y0092244D02*
X0202630Y0092244D01*
X0202681Y0092045D02*
X0203162Y0092045D01*
X0203104Y0092442D02*
X0202740Y0092442D01*
X0200905Y0089793D02*
X0200984Y0089727D01*
X0201035Y0089637D01*
X0201053Y0089536D01*
X0201035Y0089434D01*
X0200984Y0089345D01*
X0200905Y0089279D01*
X0200808Y0089243D01*
X0200705Y0089243D01*
X0200608Y0089279D01*
X0200529Y0089345D01*
X0200477Y0089434D01*
X0200459Y0089536D01*
X0200477Y0089637D01*
X0200529Y0089727D01*
X0200608Y0089793D01*
X0200705Y0089828D01*
X0200808Y0089828D01*
X0200905Y0089793D01*
X0201021Y0089663D02*
X0200492Y0089663D01*
X0200472Y0089464D02*
X0201041Y0089464D01*
X0200869Y0089266D02*
X0200643Y0089266D01*
X0201592Y0087324D02*
X0201689Y0087360D01*
X0201792Y0087360D01*
X0201889Y0087324D01*
X0201968Y0087258D01*
X0202020Y0087169D01*
X0202037Y0087067D01*
X0202020Y0086966D01*
X0201968Y0086877D01*
X0201889Y0086810D01*
X0201792Y0086775D01*
X0201689Y0086775D01*
X0201592Y0086810D01*
X0201513Y0086877D01*
X0201462Y0086966D01*
X0201444Y0087067D01*
X0201462Y0087169D01*
X0201513Y0087258D01*
X0201592Y0087324D01*
X0201540Y0087281D02*
X0201941Y0087281D01*
X0202035Y0087082D02*
X0201446Y0087082D01*
X0201509Y0086884D02*
X0201972Y0086884D01*
X0204808Y0087466D02*
X0204860Y0087377D01*
X0204939Y0087310D01*
X0205035Y0087275D01*
X0205139Y0087275D01*
X0205235Y0087310D01*
X0205314Y0087377D01*
X0205366Y0087466D01*
X0205384Y0087567D01*
X0205366Y0087669D01*
X0205314Y0087758D01*
X0205235Y0087824D01*
X0205139Y0087860D01*
X0205035Y0087860D01*
X0204939Y0087824D01*
X0204860Y0087758D01*
X0204808Y0087669D01*
X0204790Y0087567D01*
X0204808Y0087466D01*
X0204806Y0087479D02*
X0205368Y0087479D01*
X0205361Y0087678D02*
X0204813Y0087678D01*
X0205020Y0087281D02*
X0205154Y0087281D01*
X0205139Y0085891D02*
X0205235Y0085856D01*
X0205314Y0085790D01*
X0205366Y0085700D01*
X0205384Y0085599D01*
X0205366Y0085497D01*
X0205314Y0085408D01*
X0205235Y0085342D01*
X0205139Y0085306D01*
X0205035Y0085306D01*
X0204939Y0085342D01*
X0204860Y0085408D01*
X0204808Y0085497D01*
X0204790Y0085599D01*
X0204808Y0085700D01*
X0204860Y0085790D01*
X0204939Y0085856D01*
X0205035Y0085891D01*
X0205139Y0085891D01*
X0205035Y0085891D01*
X0204807Y0085693D02*
X0205367Y0085693D01*
X0205364Y0085494D02*
X0204810Y0085494D01*
X0205035Y0083923D02*
X0205139Y0083923D01*
X0205235Y0083887D01*
X0205314Y0083821D01*
X0205366Y0083732D01*
X0205384Y0083630D01*
X0205366Y0083529D01*
X0205314Y0083440D01*
X0205235Y0083373D01*
X0205139Y0083338D01*
X0205035Y0083338D01*
X0204939Y0083373D01*
X0204860Y0083440D01*
X0204808Y0083529D01*
X0204790Y0083630D01*
X0204808Y0083732D01*
X0204860Y0083821D01*
X0204939Y0083887D01*
X0205035Y0083923D01*
X0204990Y0083906D02*
X0205184Y0083906D01*
X0205370Y0083708D02*
X0204804Y0083708D01*
X0204819Y0083509D02*
X0205355Y0083509D01*
X0206759Y0083630D02*
X0206777Y0083732D01*
X0206828Y0083821D01*
X0206907Y0083887D01*
X0207004Y0083923D01*
X0207107Y0083923D01*
X0207204Y0083887D01*
X0207283Y0083821D01*
X0207334Y0083732D01*
X0207352Y0083630D01*
X0207334Y0083529D01*
X0207283Y0083440D01*
X0207204Y0083373D01*
X0207107Y0083338D01*
X0207004Y0083338D01*
X0206907Y0083373D01*
X0206828Y0083440D01*
X0206777Y0083529D01*
X0206759Y0083630D01*
X0206772Y0083708D02*
X0207339Y0083708D01*
X0207323Y0083509D02*
X0206788Y0083509D01*
X0206958Y0083906D02*
X0207153Y0083906D01*
X0207970Y0084424D02*
X0207918Y0084513D01*
X0207900Y0084615D01*
X0207918Y0084716D01*
X0207970Y0084805D01*
X0208049Y0084872D01*
X0208146Y0084907D01*
X0208249Y0084907D01*
X0208346Y0084872D01*
X0208425Y0084805D01*
X0208476Y0084716D01*
X0208494Y0084615D01*
X0208476Y0084513D01*
X0208425Y0084424D01*
X0208346Y0084357D01*
X0208249Y0084322D01*
X0208146Y0084322D01*
X0208049Y0084357D01*
X0207970Y0084424D01*
X0207925Y0084502D02*
X0208470Y0084502D01*
X0208479Y0084700D02*
X0207915Y0084700D01*
X0208123Y0084899D02*
X0208272Y0084899D01*
X0208797Y0085329D02*
X0208745Y0085419D01*
X0208727Y0085520D01*
X0208745Y0085622D01*
X0208797Y0085711D01*
X0208876Y0085777D01*
X0208972Y0085812D01*
X0209076Y0085812D01*
X0209172Y0085777D01*
X0209251Y0085711D01*
X0209303Y0085622D01*
X0209321Y0085520D01*
X0209303Y0085419D01*
X0209251Y0085329D01*
X0209172Y0085263D01*
X0209076Y0085228D01*
X0208972Y0085228D01*
X0208876Y0085263D01*
X0208797Y0085329D01*
X0208837Y0085296D02*
X0209211Y0085296D01*
X0209316Y0085494D02*
X0208732Y0085494D01*
X0208786Y0085693D02*
X0209262Y0085693D01*
X0210696Y0085493D02*
X0210714Y0085594D01*
X0210765Y0085683D01*
X0210844Y0085750D01*
X0210941Y0085785D01*
X0211044Y0085785D01*
X0211141Y0085750D01*
X0211220Y0085683D01*
X0211271Y0085594D01*
X0211289Y0085493D01*
X0211271Y0085391D01*
X0211220Y0085302D01*
X0211141Y0085235D01*
X0211044Y0085200D01*
X0210941Y0085200D01*
X0210844Y0085235D01*
X0210765Y0085302D01*
X0210714Y0085391D01*
X0210696Y0085493D01*
X0210696Y0085494D02*
X0211289Y0085494D01*
X0211213Y0085296D02*
X0210772Y0085296D01*
X0210776Y0085693D02*
X0211209Y0085693D01*
X0212900Y0085402D02*
X0212918Y0085503D01*
X0212970Y0085593D01*
X0213049Y0085659D01*
X0213146Y0085694D01*
X0213249Y0085694D01*
X0213346Y0085659D01*
X0213425Y0085593D01*
X0213476Y0085503D01*
X0213494Y0085402D01*
X0213476Y0085300D01*
X0213425Y0085211D01*
X0213346Y0085145D01*
X0213249Y0085110D01*
X0213146Y0085110D01*
X0213049Y0085145D01*
X0212970Y0085211D01*
X0212918Y0085300D01*
X0212900Y0085402D01*
X0212917Y0085494D02*
X0213478Y0085494D01*
X0213473Y0085296D02*
X0212921Y0085296D01*
X0213141Y0085693D02*
X0213253Y0085693D01*
X0214633Y0085520D02*
X0214651Y0085622D01*
X0214702Y0085711D01*
X0214781Y0085777D01*
X0214878Y0085812D01*
X0214981Y0085812D01*
X0215078Y0085777D01*
X0215157Y0085711D01*
X0215208Y0085622D01*
X0215226Y0085520D01*
X0215208Y0085419D01*
X0215157Y0085329D01*
X0215078Y0085263D01*
X0214981Y0085228D01*
X0214878Y0085228D01*
X0214781Y0085263D01*
X0214702Y0085329D01*
X0214651Y0085419D01*
X0214633Y0085520D01*
X0214637Y0085494D02*
X0215222Y0085494D01*
X0215167Y0085693D02*
X0214692Y0085693D01*
X0214742Y0085296D02*
X0215117Y0085296D01*
X0214981Y0083923D02*
X0215078Y0083887D01*
X0215157Y0083821D01*
X0215208Y0083732D01*
X0215226Y0083630D01*
X0215208Y0083529D01*
X0215157Y0083440D01*
X0215078Y0083373D01*
X0214981Y0083338D01*
X0214878Y0083338D01*
X0214781Y0083373D01*
X0214702Y0083440D01*
X0214651Y0083529D01*
X0214633Y0083630D01*
X0214651Y0083732D01*
X0214702Y0083821D01*
X0214781Y0083887D01*
X0214878Y0083923D01*
X0214981Y0083923D01*
X0215027Y0083906D02*
X0214832Y0083906D01*
X0214646Y0083708D02*
X0215213Y0083708D01*
X0215197Y0083509D02*
X0214662Y0083509D01*
X0213258Y0083630D02*
X0213240Y0083529D01*
X0213188Y0083440D01*
X0213109Y0083373D01*
X0213013Y0083338D01*
X0212909Y0083338D01*
X0212813Y0083373D01*
X0212734Y0083440D01*
X0212682Y0083529D01*
X0212664Y0083630D01*
X0212682Y0083732D01*
X0212734Y0083821D01*
X0212813Y0083887D01*
X0212909Y0083923D01*
X0213013Y0083923D01*
X0213109Y0083887D01*
X0213188Y0083821D01*
X0213240Y0083732D01*
X0213258Y0083630D01*
X0213244Y0083708D02*
X0212678Y0083708D01*
X0212694Y0083509D02*
X0213229Y0083509D01*
X0213058Y0083906D02*
X0212864Y0083906D01*
X0216619Y0085419D02*
X0216671Y0085329D01*
X0216750Y0085263D01*
X0216846Y0085228D01*
X0216950Y0085228D01*
X0217046Y0085263D01*
X0217125Y0085329D01*
X0217177Y0085419D01*
X0217195Y0085520D01*
X0217177Y0085622D01*
X0217125Y0085711D01*
X0217046Y0085777D01*
X0216950Y0085812D01*
X0216846Y0085812D01*
X0216750Y0085777D01*
X0216671Y0085711D01*
X0216619Y0085622D01*
X0216601Y0085520D01*
X0216619Y0085419D01*
X0216606Y0085494D02*
X0217190Y0085494D01*
X0217136Y0085693D02*
X0216660Y0085693D01*
X0216711Y0085296D02*
X0217085Y0085296D01*
X0218364Y0084294D02*
X0218443Y0084360D01*
X0218539Y0084395D01*
X0218642Y0084395D01*
X0218739Y0084360D01*
X0218818Y0084294D01*
X0218870Y0084204D01*
X0218888Y0084103D01*
X0218870Y0084001D01*
X0218818Y0083912D01*
X0218739Y0083846D01*
X0218642Y0083810D01*
X0218539Y0083810D01*
X0218443Y0083846D01*
X0218364Y0083912D01*
X0218312Y0084001D01*
X0218294Y0084103D01*
X0218312Y0084204D01*
X0218364Y0084294D01*
X0218375Y0084303D02*
X0218807Y0084303D01*
X0218887Y0084105D02*
X0218294Y0084105D01*
X0218371Y0083906D02*
X0218811Y0083906D01*
X0222027Y0083473D02*
X0222051Y0083625D01*
X0222121Y0083763D01*
X0222231Y0083872D01*
X0222368Y0083942D01*
X0222521Y0083967D01*
X0222673Y0083942D01*
X0222811Y0083872D01*
X0222920Y0083763D01*
X0222990Y0083625D01*
X0223015Y0083473D01*
X0222990Y0083320D01*
X0222920Y0083183D01*
X0222811Y0083073D01*
X0222673Y0083003D01*
X0222521Y0082979D01*
X0222368Y0083003D01*
X0222231Y0083073D01*
X0222121Y0083183D01*
X0222051Y0083320D01*
X0222027Y0083473D01*
X0222033Y0083509D02*
X0223009Y0083509D01*
X0222985Y0083310D02*
X0222056Y0083310D01*
X0222192Y0083112D02*
X0222850Y0083112D01*
X0222949Y0083708D02*
X0222093Y0083708D01*
X0222297Y0083906D02*
X0222745Y0083906D01*
X0224878Y0077663D02*
X0224981Y0077663D01*
X0225078Y0077628D01*
X0225157Y0077561D01*
X0225208Y0077472D01*
X0225226Y0077370D01*
X0225208Y0077269D01*
X0225157Y0077180D01*
X0225078Y0077113D01*
X0224981Y0077078D01*
X0224878Y0077078D01*
X0224781Y0077113D01*
X0224702Y0077180D01*
X0224651Y0077269D01*
X0224633Y0077370D01*
X0224651Y0077472D01*
X0224702Y0077561D01*
X0224781Y0077628D01*
X0224878Y0077663D01*
X0224698Y0077554D02*
X0225161Y0077554D01*
X0225224Y0077355D02*
X0224635Y0077355D01*
X0224730Y0077157D02*
X0225130Y0077157D01*
X0224119Y0076606D02*
X0224137Y0076504D01*
X0224119Y0076403D01*
X0224067Y0076314D01*
X0223988Y0076247D01*
X0223891Y0076212D01*
X0223788Y0076212D01*
X0223691Y0076247D01*
X0223612Y0076314D01*
X0223561Y0076403D01*
X0223543Y0076504D01*
X0223561Y0076606D01*
X0223612Y0076695D01*
X0223691Y0076761D01*
X0223788Y0076797D01*
X0223891Y0076797D01*
X0223988Y0076761D01*
X0224067Y0076695D01*
X0224119Y0076606D01*
X0224127Y0076561D02*
X0223553Y0076561D01*
X0223584Y0076363D02*
X0224096Y0076363D01*
X0223990Y0076760D02*
X0223689Y0076760D01*
X0227231Y0076544D02*
X0227249Y0076645D01*
X0227301Y0076735D01*
X0227380Y0076801D01*
X0227476Y0076836D01*
X0227580Y0076836D01*
X0227676Y0076801D01*
X0227755Y0076735D01*
X0227807Y0076645D01*
X0227825Y0076544D01*
X0227807Y0076442D01*
X0227755Y0076353D01*
X0227676Y0076287D01*
X0227580Y0076251D01*
X0227476Y0076251D01*
X0227380Y0076287D01*
X0227301Y0076353D01*
X0227249Y0076442D01*
X0227231Y0076544D01*
X0227234Y0076561D02*
X0227822Y0076561D01*
X0227761Y0076363D02*
X0227295Y0076363D01*
X0227330Y0076760D02*
X0227725Y0076760D01*
X0222579Y0072404D02*
X0222500Y0072470D01*
X0222403Y0072505D01*
X0222300Y0072505D01*
X0222203Y0072470D01*
X0222124Y0072404D01*
X0222073Y0072315D01*
X0222055Y0072213D01*
X0222073Y0072111D01*
X0222124Y0072022D01*
X0222203Y0071956D01*
X0222300Y0071921D01*
X0222403Y0071921D01*
X0222500Y0071956D01*
X0222579Y0072022D01*
X0222631Y0072111D01*
X0222648Y0072213D01*
X0222631Y0072315D01*
X0222579Y0072404D01*
X0222586Y0072392D02*
X0222118Y0072392D01*
X0222058Y0072194D02*
X0222645Y0072194D01*
X0222547Y0071995D02*
X0222156Y0071995D01*
X0218949Y0073489D02*
X0218897Y0073400D01*
X0218818Y0073334D01*
X0218721Y0073299D01*
X0218618Y0073299D01*
X0218521Y0073334D01*
X0218442Y0073400D01*
X0218391Y0073489D01*
X0218373Y0073591D01*
X0218391Y0073692D01*
X0218442Y0073782D01*
X0218521Y0073848D01*
X0218618Y0073883D01*
X0218721Y0073883D01*
X0218818Y0073848D01*
X0218897Y0073782D01*
X0218443Y0073782D01*
X0218374Y0073583D02*
X0218965Y0073583D01*
X0218967Y0073591D02*
X0218949Y0073489D01*
X0218967Y0073591D02*
X0218949Y0073692D01*
X0218897Y0073782D01*
X0218879Y0073385D02*
X0218460Y0073385D01*
X0224572Y0062706D02*
X0224669Y0062742D01*
X0224772Y0062742D01*
X0224869Y0062706D01*
X0224948Y0062640D01*
X0225000Y0062551D01*
X0225018Y0062449D01*
X0225000Y0062348D01*
X0224948Y0062258D01*
X0224869Y0062192D01*
X0224772Y0062157D01*
X0224669Y0062157D01*
X0224572Y0062192D01*
X0224493Y0062258D01*
X0224442Y0062348D01*
X0224424Y0062449D01*
X0224442Y0062551D01*
X0224493Y0062640D01*
X0224572Y0062706D01*
X0224524Y0062665D02*
X0224918Y0062665D01*
X0225015Y0062467D02*
X0224427Y0062467D01*
X0224488Y0062268D02*
X0224954Y0062268D01*
X0224917Y0059190D02*
X0225020Y0059190D01*
X0225117Y0059154D01*
X0225196Y0059088D01*
X0225248Y0058999D01*
X0225266Y0058897D01*
X0225248Y0058796D01*
X0225196Y0058706D01*
X0225117Y0058640D01*
X0225020Y0058605D01*
X0224917Y0058605D01*
X0224820Y0058640D01*
X0224741Y0058706D01*
X0224690Y0058796D01*
X0224672Y0058897D01*
X0224690Y0058999D01*
X0224741Y0059088D01*
X0224820Y0059154D01*
X0224917Y0059190D01*
X0224746Y0059092D02*
X0225191Y0059092D01*
X0225265Y0058894D02*
X0224673Y0058894D01*
X0224755Y0058695D02*
X0225183Y0058695D01*
X0222104Y0059162D02*
X0222034Y0059025D01*
X0221924Y0058916D01*
X0221787Y0058845D01*
X0221634Y0058821D01*
X0221482Y0058845D01*
X0221344Y0058916D01*
X0221235Y0059025D01*
X0221165Y0059162D01*
X0221141Y0059315D01*
X0221165Y0059467D01*
X0221235Y0059605D01*
X0221344Y0059714D01*
X0221482Y0059784D01*
X0221634Y0059809D01*
X0221787Y0059784D01*
X0221924Y0059714D01*
X0222034Y0059605D01*
X0222104Y0059467D01*
X0222128Y0059315D01*
X0222104Y0059162D01*
X0222068Y0059092D02*
X0221201Y0059092D01*
X0221144Y0059291D02*
X0222124Y0059291D01*
X0222093Y0059489D02*
X0221176Y0059489D01*
X0221317Y0059688D02*
X0221951Y0059688D01*
X0221881Y0058894D02*
X0221387Y0058894D01*
X0221465Y0055266D02*
X0221618Y0055242D01*
X0221755Y0055171D01*
X0221864Y0055062D01*
X0221934Y0054925D01*
X0221959Y0054772D01*
X0221934Y0054619D01*
X0221864Y0054482D01*
X0221755Y0054373D01*
X0221618Y0054303D01*
X0221465Y0054278D01*
X0221312Y0054303D01*
X0221175Y0054373D01*
X0221066Y0054482D01*
X0220995Y0054619D01*
X0220971Y0054772D01*
X0220995Y0054925D01*
X0221066Y0055062D01*
X0221175Y0055171D01*
X0221312Y0055242D01*
X0221465Y0055266D01*
X0221125Y0055122D02*
X0221805Y0055122D01*
X0221935Y0054923D02*
X0220995Y0054923D01*
X0220979Y0054725D02*
X0221951Y0054725D01*
X0221887Y0054526D02*
X0221043Y0054526D01*
X0221263Y0054328D02*
X0221667Y0054328D01*
X0211762Y0055914D02*
X0211744Y0055812D01*
X0211692Y0055723D01*
X0211613Y0055657D01*
X0211517Y0055621D01*
X0211413Y0055621D01*
X0211317Y0055657D01*
X0211238Y0055723D01*
X0211186Y0055812D01*
X0211168Y0055914D01*
X0211186Y0056015D01*
X0211238Y0056105D01*
X0211317Y0056171D01*
X0211413Y0056206D01*
X0211517Y0056206D01*
X0211613Y0056171D01*
X0211692Y0056105D01*
X0211744Y0056015D01*
X0211762Y0055914D01*
X0211761Y0055916D02*
X0211168Y0055916D01*
X0211244Y0055717D02*
X0211686Y0055717D01*
X0211681Y0056114D02*
X0211249Y0056114D01*
X0208503Y0053349D02*
X0208555Y0053259D01*
X0208573Y0053158D01*
X0208555Y0053056D01*
X0208503Y0052967D01*
X0208424Y0052901D01*
X0208328Y0052866D01*
X0208224Y0052866D01*
X0208128Y0052901D01*
X0208049Y0052967D01*
X0207997Y0053056D01*
X0207979Y0053158D01*
X0207997Y0053259D01*
X0208049Y0053349D01*
X0208128Y0053415D01*
X0208224Y0053450D01*
X0208328Y0053450D01*
X0208424Y0053415D01*
X0208503Y0053349D01*
X0208511Y0053335D02*
X0208041Y0053335D01*
X0207983Y0053137D02*
X0208569Y0053137D01*
X0208469Y0052938D02*
X0208083Y0052938D01*
X0201447Y0053315D02*
X0201429Y0053214D01*
X0201377Y0053125D01*
X0201298Y0053058D01*
X0201202Y0053023D01*
X0201098Y0053023D01*
X0201002Y0053058D01*
X0200923Y0053125D01*
X0200871Y0053214D01*
X0200853Y0053315D01*
X0200871Y0053417D01*
X0200923Y0053506D01*
X0201002Y0053572D01*
X0201098Y0053608D01*
X0201202Y0053608D01*
X0201298Y0053572D01*
X0201377Y0053506D01*
X0201429Y0053417D01*
X0201447Y0053315D01*
X0201443Y0053335D02*
X0200857Y0053335D01*
X0200916Y0053137D02*
X0201384Y0053137D01*
X0201344Y0053534D02*
X0200956Y0053534D01*
X0197904Y0054103D02*
X0197886Y0054001D01*
X0197834Y0053912D01*
X0197755Y0053846D01*
X0197658Y0053810D01*
X0197555Y0053810D01*
X0197458Y0053846D01*
X0197379Y0053912D01*
X0197328Y0054001D01*
X0197310Y0054103D01*
X0197328Y0054204D01*
X0197379Y0054294D01*
X0197458Y0054360D01*
X0197555Y0054395D01*
X0197658Y0054395D01*
X0197755Y0054360D01*
X0197834Y0054294D01*
X0197886Y0054204D01*
X0197904Y0054103D01*
X0197899Y0054129D02*
X0197315Y0054129D01*
X0197368Y0053931D02*
X0197845Y0053931D01*
X0197793Y0054328D02*
X0197420Y0054328D01*
X0193555Y0055182D02*
X0193503Y0055093D01*
X0193424Y0055027D01*
X0193328Y0054992D01*
X0193224Y0054992D01*
X0193128Y0055027D01*
X0193049Y0055093D01*
X0192997Y0055182D01*
X0192979Y0055284D01*
X0192997Y0055385D01*
X0193049Y0055475D01*
X0193128Y0055541D01*
X0193224Y0055576D01*
X0193328Y0055576D01*
X0193424Y0055541D01*
X0193503Y0055475D01*
X0193555Y0055385D01*
X0193573Y0055284D01*
X0193555Y0055182D01*
X0193520Y0055122D02*
X0193032Y0055122D01*
X0192986Y0055320D02*
X0193566Y0055320D01*
X0193451Y0055519D02*
X0193101Y0055519D01*
X0191171Y0055441D02*
X0191153Y0055340D01*
X0191102Y0055251D01*
X0191023Y0055184D01*
X0190926Y0055149D01*
X0190823Y0055149D01*
X0190726Y0055184D01*
X0190647Y0055251D01*
X0190595Y0055340D01*
X0190578Y0055441D01*
X0190595Y0055543D01*
X0190647Y0055632D01*
X0190726Y0055698D01*
X0190823Y0055734D01*
X0190926Y0055734D01*
X0191023Y0055698D01*
X0191102Y0055632D01*
X0191153Y0055543D01*
X0191171Y0055441D01*
X0191158Y0055519D02*
X0190591Y0055519D01*
X0190607Y0055320D02*
X0191142Y0055320D01*
X0190971Y0055717D02*
X0190778Y0055717D01*
X0186468Y0054992D02*
X0186486Y0054890D01*
X0186468Y0054789D01*
X0186417Y0054699D01*
X0186338Y0054633D01*
X0186241Y0054598D01*
X0186138Y0054598D01*
X0186041Y0054633D01*
X0185962Y0054699D01*
X0185910Y0054789D01*
X0185893Y0054890D01*
X0185910Y0054992D01*
X0185962Y0055081D01*
X0186041Y0055147D01*
X0186138Y0055182D01*
X0186241Y0055182D01*
X0186338Y0055147D01*
X0186417Y0055081D01*
X0186468Y0054992D01*
X0186480Y0054923D02*
X0185898Y0054923D01*
X0185947Y0054725D02*
X0186432Y0054725D01*
X0186368Y0055122D02*
X0186011Y0055122D01*
X0185157Y0053769D02*
X0185236Y0053703D01*
X0185287Y0053614D01*
X0185305Y0053512D01*
X0185287Y0053411D01*
X0185236Y0053321D01*
X0185157Y0053255D01*
X0185060Y0053220D01*
X0184957Y0053220D01*
X0184860Y0053255D01*
X0184781Y0053321D01*
X0184729Y0053411D01*
X0184711Y0053512D01*
X0184729Y0053614D01*
X0184781Y0053703D01*
X0184860Y0053769D01*
X0184957Y0053805D01*
X0185060Y0053805D01*
X0185157Y0053769D01*
X0185201Y0053732D02*
X0184816Y0053732D01*
X0184715Y0053534D02*
X0185301Y0053534D01*
X0185244Y0053335D02*
X0184773Y0053335D01*
X0181147Y0054147D02*
X0181077Y0054009D01*
X0180968Y0053900D01*
X0180830Y0053830D01*
X0180678Y0053806D01*
X0180525Y0053830D01*
X0180387Y0053900D01*
X0180278Y0054009D01*
X0180208Y0054147D01*
X0180184Y0054300D01*
X0180208Y0054452D01*
X0180278Y0054590D01*
X0180387Y0054699D01*
X0180525Y0054769D01*
X0180678Y0054793D01*
X0180830Y0054769D01*
X0180968Y0054699D01*
X0181077Y0054590D01*
X0181147Y0054452D01*
X0181171Y0054300D01*
X0181147Y0054147D01*
X0181138Y0054129D02*
X0180217Y0054129D01*
X0180188Y0054328D02*
X0181167Y0054328D01*
X0181109Y0054526D02*
X0180246Y0054526D01*
X0180438Y0054725D02*
X0180917Y0054725D01*
X0180998Y0053931D02*
X0180357Y0053931D01*
X0175961Y0053932D02*
X0175937Y0053779D01*
X0175867Y0053642D01*
X0175757Y0053532D01*
X0175620Y0053462D01*
X0175467Y0053438D01*
X0175315Y0053462D01*
X0175177Y0053532D01*
X0175068Y0053642D01*
X0174998Y0053779D01*
X0174974Y0053932D01*
X0174998Y0054084D01*
X0175068Y0054222D01*
X0175177Y0054331D01*
X0175315Y0054401D01*
X0175467Y0054426D01*
X0175620Y0054401D01*
X0175757Y0054331D01*
X0175867Y0054222D01*
X0175937Y0054084D01*
X0175961Y0053932D01*
X0175961Y0053931D02*
X0174974Y0053931D01*
X0175021Y0054129D02*
X0175914Y0054129D01*
X0175761Y0054328D02*
X0175174Y0054328D01*
X0175022Y0053732D02*
X0175913Y0053732D01*
X0175759Y0053534D02*
X0175176Y0053534D01*
X0170841Y0050850D02*
X0170911Y0050712D01*
X0170935Y0050559D01*
X0170911Y0050407D01*
X0170841Y0050269D01*
X0170732Y0050160D01*
X0170594Y0050090D01*
X0170441Y0050066D01*
X0170289Y0050090D01*
X0170151Y0050160D01*
X0170042Y0050269D01*
X0169972Y0050407D01*
X0169948Y0050559D01*
X0169972Y0050712D01*
X0170042Y0050850D01*
X0170151Y0050959D01*
X0170289Y0051029D01*
X0170441Y0051053D01*
X0170594Y0051029D01*
X0170732Y0050959D01*
X0170841Y0050850D01*
X0170889Y0050755D02*
X0169994Y0050755D01*
X0169948Y0050556D02*
X0170935Y0050556D01*
X0170886Y0050358D02*
X0169997Y0050358D01*
X0170153Y0050159D02*
X0170730Y0050159D01*
X0170737Y0050953D02*
X0170145Y0050953D01*
X0173281Y0063173D02*
X0173143Y0063243D01*
X0173034Y0063352D01*
X0172964Y0063490D01*
X0172940Y0063642D01*
X0172964Y0063795D01*
X0173034Y0063932D01*
X0173143Y0064042D01*
X0173281Y0064112D01*
X0173433Y0064136D01*
X0173586Y0064112D01*
X0173724Y0064042D01*
X0173833Y0063932D01*
X0173903Y0063795D01*
X0173927Y0063642D01*
X0173903Y0063490D01*
X0173833Y0063352D01*
X0173724Y0063243D01*
X0173586Y0063173D01*
X0173433Y0063148D01*
X0173281Y0063173D01*
X0173125Y0063261D02*
X0173742Y0063261D01*
X0173888Y0063459D02*
X0172979Y0063459D01*
X0172942Y0063658D02*
X0173925Y0063658D01*
X0173872Y0063856D02*
X0172995Y0063856D01*
X0173169Y0064055D02*
X0173697Y0064055D01*
X0169463Y0067946D02*
X0169354Y0067837D01*
X0169216Y0067767D01*
X0169063Y0067743D01*
X0168911Y0067767D01*
X0168773Y0067837D01*
X0168664Y0067946D01*
X0168594Y0068084D01*
X0168570Y0068237D01*
X0168594Y0068389D01*
X0168664Y0068527D01*
X0168773Y0068636D01*
X0168911Y0068706D01*
X0169063Y0068730D01*
X0169216Y0068706D01*
X0169354Y0068636D01*
X0169463Y0068527D01*
X0169533Y0068389D01*
X0169557Y0068237D01*
X0169533Y0068084D01*
X0169463Y0067946D01*
X0169503Y0068025D02*
X0168624Y0068025D01*
X0168572Y0068224D02*
X0169555Y0068224D01*
X0169516Y0068422D02*
X0168611Y0068422D01*
X0168758Y0068621D02*
X0169369Y0068621D01*
X0169333Y0067827D02*
X0168794Y0067827D01*
X0179814Y0064098D02*
X0179790Y0063945D01*
X0179814Y0063793D01*
X0179884Y0063655D01*
X0179994Y0063546D01*
X0180131Y0063476D01*
X0180284Y0063452D01*
X0180436Y0063476D01*
X0180574Y0063546D01*
X0180683Y0063655D01*
X0180753Y0063793D01*
X0180778Y0063945D01*
X0180753Y0064098D01*
X0180683Y0064235D01*
X0180574Y0064345D01*
X0180436Y0064415D01*
X0180284Y0064439D01*
X0180131Y0064415D01*
X0179994Y0064345D01*
X0179884Y0064235D01*
X0179814Y0064098D01*
X0179808Y0064055D02*
X0180760Y0064055D01*
X0180763Y0063856D02*
X0179804Y0063856D01*
X0179883Y0063658D02*
X0180685Y0063658D01*
X0180333Y0063459D02*
X0180235Y0063459D01*
X0179902Y0064253D02*
X0180665Y0064253D01*
X0184729Y0065025D02*
X0184781Y0064936D01*
X0184860Y0064869D01*
X0184957Y0064834D01*
X0185060Y0064834D01*
X0185157Y0064869D01*
X0185236Y0064936D01*
X0185287Y0065025D01*
X0185305Y0065126D01*
X0185287Y0065228D01*
X0185236Y0065317D01*
X0185157Y0065383D01*
X0185060Y0065419D01*
X0184957Y0065419D01*
X0184860Y0065383D01*
X0184781Y0065317D01*
X0184729Y0065228D01*
X0184711Y0065126D01*
X0184729Y0065025D01*
X0184725Y0065047D02*
X0185291Y0065047D01*
X0185277Y0065246D02*
X0184740Y0065246D01*
X0184916Y0064849D02*
X0185101Y0064849D01*
X0188412Y0065323D02*
X0188430Y0065425D01*
X0188482Y0065514D01*
X0188561Y0065580D01*
X0188658Y0065616D01*
X0188761Y0065616D01*
X0188857Y0065580D01*
X0188936Y0065514D01*
X0188988Y0065425D01*
X0189006Y0065323D01*
X0188988Y0065222D01*
X0188936Y0065132D01*
X0188857Y0065066D01*
X0188761Y0065031D01*
X0188658Y0065031D01*
X0188561Y0065066D01*
X0188482Y0065132D01*
X0188430Y0065222D01*
X0188412Y0065323D01*
X0188426Y0065246D02*
X0188992Y0065246D01*
X0188977Y0065444D02*
X0188441Y0065444D01*
X0188612Y0065047D02*
X0188806Y0065047D01*
X0190545Y0064499D02*
X0190597Y0064588D01*
X0190676Y0064654D01*
X0190773Y0064690D01*
X0190876Y0064690D01*
X0190973Y0064654D01*
X0191052Y0064588D01*
X0191103Y0064499D01*
X0191121Y0064397D01*
X0191103Y0064296D01*
X0191052Y0064206D01*
X0190973Y0064140D01*
X0190876Y0064105D01*
X0190773Y0064105D01*
X0190676Y0064140D01*
X0190597Y0064206D01*
X0190545Y0064296D01*
X0190527Y0064397D01*
X0190545Y0064499D01*
X0190537Y0064452D02*
X0191111Y0064452D01*
X0191079Y0064253D02*
X0190570Y0064253D01*
X0190671Y0064650D02*
X0190977Y0064650D01*
X0191798Y0064536D02*
X0191816Y0064637D01*
X0191867Y0064727D01*
X0191946Y0064793D01*
X0192043Y0064828D01*
X0192146Y0064828D01*
X0192243Y0064793D01*
X0192322Y0064727D01*
X0192374Y0064637D01*
X0192392Y0064536D01*
X0192374Y0064434D01*
X0192322Y0064345D01*
X0192243Y0064279D01*
X0192146Y0064243D01*
X0192043Y0064243D01*
X0191946Y0064279D01*
X0191867Y0064345D01*
X0191816Y0064434D01*
X0191798Y0064536D01*
X0191813Y0064452D02*
X0192377Y0064452D01*
X0192366Y0064650D02*
X0191823Y0064650D01*
X0192016Y0064253D02*
X0192174Y0064253D01*
X0189421Y0062866D02*
X0189439Y0062764D01*
X0189421Y0062663D01*
X0189370Y0062573D01*
X0189291Y0062507D01*
X0189194Y0062472D01*
X0189091Y0062472D01*
X0188994Y0062507D01*
X0188915Y0062573D01*
X0188863Y0062663D01*
X0188845Y0062764D01*
X0188863Y0062866D01*
X0188915Y0062955D01*
X0188994Y0063021D01*
X0189091Y0063057D01*
X0189194Y0063057D01*
X0189291Y0063021D01*
X0189370Y0062955D01*
X0189421Y0062866D01*
X0189421Y0062864D02*
X0188863Y0062864D01*
X0188863Y0062665D02*
X0189422Y0062665D01*
X0197406Y0065261D02*
X0197458Y0065172D01*
X0197537Y0065106D01*
X0197634Y0065070D01*
X0197737Y0065070D01*
X0197834Y0065106D01*
X0197913Y0065172D01*
X0197964Y0065261D01*
X0197982Y0065363D01*
X0197964Y0065464D01*
X0197913Y0065553D01*
X0197834Y0065620D01*
X0197737Y0065655D01*
X0197634Y0065655D01*
X0197537Y0065620D01*
X0197458Y0065553D01*
X0197406Y0065464D01*
X0197389Y0065363D01*
X0197406Y0065261D01*
X0197415Y0065246D02*
X0197956Y0065246D01*
X0197968Y0065444D02*
X0197403Y0065444D01*
X0197601Y0065643D02*
X0197770Y0065643D01*
X0198482Y0064884D02*
X0198561Y0064950D01*
X0198658Y0064986D01*
X0198761Y0064986D01*
X0198857Y0064950D01*
X0198936Y0064884D01*
X0198988Y0064795D01*
X0199006Y0064693D01*
X0198988Y0064592D01*
X0198936Y0064502D01*
X0198857Y0064436D01*
X0198761Y0064401D01*
X0198658Y0064401D01*
X0198561Y0064436D01*
X0198482Y0064502D01*
X0198430Y0064592D01*
X0198412Y0064693D01*
X0198430Y0064795D01*
X0198482Y0064884D01*
X0198461Y0064849D02*
X0198957Y0064849D01*
X0198998Y0064650D02*
X0198420Y0064650D01*
X0198542Y0064452D02*
X0198876Y0064452D01*
X0202045Y0065386D02*
X0202097Y0065297D01*
X0202176Y0065231D01*
X0202272Y0065195D01*
X0202376Y0065195D01*
X0202472Y0065231D01*
X0202551Y0065297D01*
X0202603Y0065386D01*
X0202621Y0065488D01*
X0202603Y0065589D01*
X0202551Y0065679D01*
X0202472Y0065745D01*
X0202376Y0065780D01*
X0202272Y0065780D01*
X0202176Y0065745D01*
X0202097Y0065679D01*
X0202045Y0065589D01*
X0202027Y0065488D01*
X0202045Y0065386D01*
X0202035Y0065444D02*
X0202613Y0065444D01*
X0202572Y0065643D02*
X0202076Y0065643D01*
X0202157Y0065246D02*
X0202491Y0065246D01*
X0204515Y0065520D02*
X0204532Y0065622D01*
X0204584Y0065711D01*
X0204663Y0065777D01*
X0204760Y0065812D01*
X0204863Y0065812D01*
X0204960Y0065777D01*
X0205039Y0065711D01*
X0205090Y0065622D01*
X0205108Y0065520D01*
X0205090Y0065419D01*
X0205039Y0065329D01*
X0204960Y0065263D01*
X0204863Y0065228D01*
X0204760Y0065228D01*
X0204663Y0065263D01*
X0204584Y0065329D01*
X0204532Y0065419D01*
X0204515Y0065520D01*
X0204528Y0065444D02*
X0205095Y0065444D01*
X0205078Y0065643D02*
X0204545Y0065643D01*
X0204710Y0065246D02*
X0204913Y0065246D01*
X0210714Y0063324D02*
X0210765Y0063413D01*
X0210844Y0063480D01*
X0210941Y0063515D01*
X0211044Y0063515D01*
X0211141Y0063480D01*
X0211220Y0063413D01*
X0211271Y0063324D01*
X0211289Y0063222D01*
X0211271Y0063121D01*
X0211220Y0063032D01*
X0211141Y0062965D01*
X0211044Y0062930D01*
X0210941Y0062930D01*
X0210844Y0062965D01*
X0210765Y0063032D01*
X0210714Y0063121D01*
X0210696Y0063222D01*
X0210714Y0063324D01*
X0210702Y0063261D02*
X0211283Y0063261D01*
X0211238Y0063062D02*
X0210747Y0063062D01*
X0210820Y0063459D02*
X0211165Y0063459D01*
X0201312Y0058829D02*
X0201330Y0058727D01*
X0201312Y0058626D01*
X0201261Y0058536D01*
X0201182Y0058470D01*
X0201085Y0058435D01*
X0200982Y0058435D01*
X0200885Y0058470D01*
X0200806Y0058536D01*
X0200755Y0058626D01*
X0200737Y0058727D01*
X0200755Y0058829D01*
X0200806Y0058918D01*
X0200885Y0058984D01*
X0200982Y0059020D01*
X0201085Y0059020D01*
X0201182Y0058984D01*
X0201261Y0058918D01*
X0201312Y0058829D01*
X0201275Y0058894D02*
X0200792Y0058894D01*
X0200742Y0058695D02*
X0201325Y0058695D01*
X0201213Y0058497D02*
X0200853Y0058497D01*
X0193838Y0075086D02*
X0193742Y0075051D01*
X0193638Y0075051D01*
X0193542Y0075086D01*
X0193463Y0075153D01*
X0193411Y0075242D01*
X0193393Y0075344D01*
X0193411Y0075445D01*
X0193463Y0075534D01*
X0193542Y0075601D01*
X0193638Y0075636D01*
X0193742Y0075636D01*
X0193838Y0075601D01*
X0193917Y0075534D01*
X0193969Y0075445D01*
X0193987Y0075344D01*
X0193969Y0075242D01*
X0193917Y0075153D01*
X0193838Y0075086D01*
X0193742Y0075051D01*
X0193638Y0075051D01*
X0193542Y0075086D01*
X0193463Y0075153D01*
X0193411Y0075242D01*
X0193393Y0075344D01*
X0193411Y0075445D01*
X0193463Y0075534D01*
X0193542Y0075601D01*
X0193638Y0075636D01*
X0193742Y0075636D01*
X0193838Y0075601D01*
X0193917Y0075534D01*
X0193969Y0075445D01*
X0193987Y0075344D01*
X0193969Y0075242D01*
X0193917Y0075153D01*
X0193838Y0075086D01*
X0193928Y0075172D02*
X0193452Y0075172D01*
X0193928Y0075172D01*
X0193982Y0075370D02*
X0193398Y0075370D01*
X0193982Y0075370D01*
X0193877Y0075569D02*
X0193503Y0075569D01*
X0193877Y0075569D01*
X0190012Y0076836D02*
X0189960Y0076747D01*
X0189881Y0076680D01*
X0189784Y0076645D01*
X0189681Y0076645D01*
X0189584Y0076680D01*
X0189505Y0076747D01*
X0189454Y0076836D01*
X0189436Y0076937D01*
X0189454Y0077039D01*
X0189505Y0077128D01*
X0189584Y0077194D01*
X0189681Y0077230D01*
X0189784Y0077230D01*
X0189881Y0077194D01*
X0189960Y0077128D01*
X0190012Y0077039D01*
X0190030Y0076937D01*
X0190012Y0076836D01*
X0189968Y0076760D02*
X0189498Y0076760D01*
X0189439Y0076958D02*
X0190026Y0076958D01*
X0189926Y0077157D02*
X0189539Y0077157D01*
X0189391Y0076088D02*
X0189487Y0076053D01*
X0189566Y0075986D01*
X0189618Y0075897D01*
X0189636Y0075796D01*
X0189618Y0075694D01*
X0189566Y0075605D01*
X0189487Y0075539D01*
X0189391Y0075503D01*
X0189287Y0075503D01*
X0189191Y0075539D01*
X0189112Y0075605D01*
X0189060Y0075694D01*
X0189042Y0075796D01*
X0189060Y0075897D01*
X0189112Y0075986D01*
X0189191Y0076053D01*
X0189287Y0076088D01*
X0189391Y0076088D01*
X0189578Y0075966D02*
X0189100Y0075966D01*
X0189047Y0075767D02*
X0189631Y0075767D01*
X0189523Y0075569D02*
X0189155Y0075569D01*
X0188508Y0075378D02*
X0188526Y0075277D01*
X0188508Y0075175D01*
X0188457Y0075086D01*
X0188378Y0075020D01*
X0188281Y0074984D01*
X0188178Y0074984D01*
X0188081Y0075020D01*
X0188002Y0075086D01*
X0187951Y0075175D01*
X0187933Y0075277D01*
X0187951Y0075378D01*
X0188002Y0075468D01*
X0188081Y0075534D01*
X0188178Y0075569D01*
X0188281Y0075569D01*
X0188378Y0075534D01*
X0188457Y0075468D01*
X0188508Y0075378D01*
X0188510Y0075370D02*
X0187949Y0075370D01*
X0187953Y0075172D02*
X0188506Y0075172D01*
X0188283Y0075569D02*
X0188176Y0075569D01*
X0193600Y0080723D02*
X0193548Y0080812D01*
X0193530Y0080914D01*
X0193548Y0081015D01*
X0193600Y0081105D01*
X0193679Y0081171D01*
X0193776Y0081206D01*
X0193879Y0081206D01*
X0193976Y0081171D01*
X0194055Y0081105D01*
X0194106Y0081015D01*
X0194124Y0080914D01*
X0194106Y0080812D01*
X0194055Y0080723D01*
X0193976Y0080657D01*
X0193879Y0080621D01*
X0193776Y0080621D01*
X0193679Y0080657D01*
X0193600Y0080723D01*
X0193596Y0080730D02*
X0194059Y0080730D01*
X0194121Y0080928D02*
X0193533Y0080928D01*
X0193626Y0081127D02*
X0194028Y0081127D01*
X0192322Y0082495D02*
X0192243Y0082428D01*
X0192146Y0082393D01*
X0192043Y0082393D01*
X0191946Y0082428D01*
X0191867Y0082495D01*
X0191816Y0082584D01*
X0191798Y0082685D01*
X0191816Y0082787D01*
X0191867Y0082876D01*
X0191946Y0082943D01*
X0192043Y0082978D01*
X0192146Y0082978D01*
X0192243Y0082943D01*
X0192322Y0082876D01*
X0192374Y0082787D01*
X0192392Y0082685D01*
X0192374Y0082584D01*
X0192322Y0082495D01*
X0192335Y0082516D02*
X0191855Y0082516D01*
X0191803Y0082715D02*
X0192387Y0082715D01*
X0192278Y0082913D02*
X0191912Y0082913D01*
X0189242Y0082889D02*
X0189224Y0082788D01*
X0189173Y0082699D01*
X0189094Y0082632D01*
X0188997Y0082597D01*
X0188894Y0082597D01*
X0188797Y0082632D01*
X0188718Y0082699D01*
X0188666Y0082788D01*
X0188648Y0082889D01*
X0188666Y0082991D01*
X0188718Y0083080D01*
X0188797Y0083146D01*
X0188894Y0083182D01*
X0188997Y0083182D01*
X0189094Y0083146D01*
X0189173Y0083080D01*
X0189224Y0082991D01*
X0189242Y0082889D01*
X0189238Y0082913D02*
X0188653Y0082913D01*
X0188708Y0082715D02*
X0189182Y0082715D01*
X0189135Y0083112D02*
X0188756Y0083112D01*
X0187864Y0082922D02*
X0187846Y0082820D01*
X0187795Y0082731D01*
X0187716Y0082665D01*
X0187619Y0082629D01*
X0187516Y0082629D01*
X0187419Y0082665D01*
X0187340Y0082731D01*
X0187288Y0082820D01*
X0187270Y0082922D01*
X0187288Y0083023D01*
X0187340Y0083112D01*
X0187795Y0083112D01*
X0187846Y0083023D01*
X0187864Y0082922D01*
X0187863Y0082913D02*
X0187272Y0082913D01*
X0187340Y0083112D02*
X0187419Y0083179D01*
X0187516Y0083214D01*
X0187619Y0083214D01*
X0187716Y0083179D01*
X0187795Y0083112D01*
X0187776Y0082715D02*
X0187359Y0082715D01*
X0186093Y0082843D02*
X0186075Y0082741D01*
X0186023Y0082652D01*
X0185944Y0082586D01*
X0185847Y0082551D01*
X0185744Y0082551D01*
X0185647Y0082586D01*
X0185568Y0082652D01*
X0185517Y0082741D01*
X0185499Y0082843D01*
X0185517Y0082944D01*
X0185568Y0083034D01*
X0185647Y0083100D01*
X0185744Y0083135D01*
X0185847Y0083135D01*
X0185944Y0083100D01*
X0186023Y0083034D01*
X0186075Y0082944D01*
X0186093Y0082843D01*
X0186080Y0082913D02*
X0185511Y0082913D01*
X0185532Y0082715D02*
X0186059Y0082715D01*
X0185911Y0083112D02*
X0185680Y0083112D01*
X0184124Y0082961D02*
X0184106Y0082859D01*
X0184055Y0082770D01*
X0183976Y0082704D01*
X0183879Y0082669D01*
X0183776Y0082669D01*
X0183679Y0082704D01*
X0183600Y0082770D01*
X0183548Y0082859D01*
X0183530Y0082961D01*
X0183548Y0083063D01*
X0183600Y0083152D01*
X0183679Y0083218D01*
X0183776Y0083253D01*
X0183879Y0083253D01*
X0183976Y0083218D01*
X0184055Y0083152D01*
X0184106Y0083063D01*
X0184124Y0082961D01*
X0184116Y0082913D02*
X0183539Y0082913D01*
X0183577Y0083112D02*
X0184078Y0083112D01*
X0183989Y0082715D02*
X0183666Y0082715D01*
X0182549Y0082843D02*
X0182531Y0082741D01*
X0182480Y0082652D01*
X0182401Y0082586D01*
X0182304Y0082551D01*
X0182201Y0082551D01*
X0182104Y0082586D01*
X0182025Y0082652D01*
X0181973Y0082741D01*
X0181956Y0082843D01*
X0181973Y0082944D01*
X0182025Y0083034D01*
X0182104Y0083100D01*
X0182201Y0083135D01*
X0182304Y0083135D01*
X0182401Y0083100D01*
X0182480Y0083034D01*
X0182531Y0082944D01*
X0182549Y0082843D01*
X0182537Y0082913D02*
X0181968Y0082913D01*
X0181989Y0082715D02*
X0182516Y0082715D01*
X0182368Y0083112D02*
X0182137Y0083112D01*
X0180187Y0083000D02*
X0180169Y0082899D01*
X0180118Y0082810D01*
X0180039Y0082743D01*
X0179942Y0082708D01*
X0179839Y0082708D01*
X0179742Y0082743D01*
X0179663Y0082810D01*
X0179611Y0082899D01*
X0179593Y0083000D01*
X0179611Y0083102D01*
X0179663Y0083191D01*
X0179742Y0083257D01*
X0179839Y0083293D01*
X0179942Y0083293D01*
X0180039Y0083257D01*
X0180118Y0083191D01*
X0180169Y0083102D01*
X0180187Y0083000D01*
X0180172Y0082913D02*
X0179609Y0082913D01*
X0179617Y0083112D02*
X0180163Y0083112D01*
X0179961Y0082715D02*
X0179820Y0082715D01*
X0178612Y0082892D02*
X0178594Y0082790D01*
X0178543Y0082701D01*
X0178464Y0082635D01*
X0178367Y0082599D01*
X0178264Y0082599D01*
X0178167Y0082635D01*
X0178088Y0082701D01*
X0178036Y0082790D01*
X0178019Y0082892D01*
X0178036Y0082993D01*
X0178088Y0083083D01*
X0178167Y0083149D01*
X0178264Y0083184D01*
X0178367Y0083184D01*
X0178464Y0083149D01*
X0178543Y0083083D01*
X0178594Y0082993D01*
X0178612Y0082892D01*
X0178608Y0082913D02*
X0178022Y0082913D01*
X0178080Y0082715D02*
X0178551Y0082715D01*
X0178508Y0083112D02*
X0178123Y0083112D01*
X0177025Y0082913D02*
X0176456Y0082913D01*
X0176462Y0082944D02*
X0176513Y0083034D01*
X0176592Y0083100D01*
X0176689Y0083135D01*
X0176792Y0083135D01*
X0176889Y0083100D01*
X0176968Y0083034D01*
X0177020Y0082944D01*
X0177037Y0082843D01*
X0177020Y0082741D01*
X0176968Y0082652D01*
X0176889Y0082586D01*
X0176792Y0082551D01*
X0176689Y0082551D01*
X0176592Y0082586D01*
X0176513Y0082652D01*
X0176462Y0082741D01*
X0176444Y0082843D01*
X0176462Y0082944D01*
X0176477Y0082715D02*
X0177004Y0082715D01*
X0176856Y0083112D02*
X0176625Y0083112D01*
X0175708Y0082627D02*
X0175760Y0082538D01*
X0175778Y0082437D01*
X0175760Y0082335D01*
X0175708Y0082246D01*
X0175629Y0082180D01*
X0175532Y0082144D01*
X0175429Y0082144D01*
X0175332Y0082180D01*
X0175253Y0082246D01*
X0175202Y0082335D01*
X0175184Y0082437D01*
X0175202Y0082538D01*
X0175253Y0082627D01*
X0175332Y0082694D01*
X0175429Y0082729D01*
X0175532Y0082729D01*
X0175629Y0082694D01*
X0175708Y0082627D01*
X0175763Y0082516D02*
X0175198Y0082516D01*
X0175212Y0082318D02*
X0175750Y0082318D01*
X0175571Y0082715D02*
X0175391Y0082715D01*
X0171311Y0084316D02*
X0171259Y0084227D01*
X0171180Y0084161D01*
X0171083Y0084125D01*
X0170980Y0084125D01*
X0170883Y0084161D01*
X0170804Y0084227D01*
X0170753Y0084316D01*
X0170735Y0084418D01*
X0170753Y0084519D01*
X0170804Y0084609D01*
X0170883Y0084675D01*
X0170980Y0084710D01*
X0171083Y0084710D01*
X0171180Y0084675D01*
X0171259Y0084609D01*
X0171311Y0084519D01*
X0171329Y0084418D01*
X0171311Y0084316D01*
X0171303Y0084303D02*
X0170761Y0084303D01*
X0170750Y0084502D02*
X0171314Y0084502D01*
X0171111Y0084700D02*
X0170953Y0084700D01*
X0177694Y0076735D02*
X0177773Y0076801D01*
X0177870Y0076836D01*
X0177973Y0076836D01*
X0178070Y0076801D01*
X0178149Y0076735D01*
X0178201Y0076645D01*
X0178219Y0076544D01*
X0178201Y0076442D01*
X0178149Y0076353D01*
X0178070Y0076287D01*
X0177973Y0076251D01*
X0177870Y0076251D01*
X0177773Y0076287D01*
X0177694Y0076353D01*
X0177643Y0076442D01*
X0177625Y0076544D01*
X0177643Y0076645D01*
X0177694Y0076735D01*
X0177724Y0076760D02*
X0178119Y0076760D01*
X0178215Y0076561D02*
X0177628Y0076561D01*
X0177689Y0076363D02*
X0178155Y0076363D01*
X0179593Y0076544D02*
X0179611Y0076645D01*
X0179663Y0076735D01*
X0179742Y0076801D01*
X0179839Y0076836D01*
X0179942Y0076836D01*
X0180039Y0076801D01*
X0180118Y0076735D01*
X0180169Y0076645D01*
X0180187Y0076544D01*
X0180169Y0076442D01*
X0180118Y0076353D01*
X0180039Y0076287D01*
X0179942Y0076251D01*
X0179839Y0076251D01*
X0179742Y0076287D01*
X0179663Y0076353D01*
X0179611Y0076442D01*
X0179593Y0076544D01*
X0179596Y0076561D02*
X0180184Y0076561D01*
X0180123Y0076363D02*
X0179657Y0076363D01*
X0179693Y0076760D02*
X0180088Y0076760D01*
X0198845Y0076426D02*
X0198863Y0076527D01*
X0198915Y0076616D01*
X0198994Y0076683D01*
X0199091Y0076718D01*
X0199194Y0076718D01*
X0199291Y0076683D01*
X0199370Y0076616D01*
X0199421Y0076527D01*
X0199439Y0076426D01*
X0199421Y0076324D01*
X0199370Y0076235D01*
X0199291Y0076169D01*
X0199194Y0076133D01*
X0199091Y0076133D01*
X0198994Y0076169D01*
X0198915Y0076235D01*
X0198863Y0076324D01*
X0198845Y0076426D01*
X0198856Y0076363D02*
X0199428Y0076363D01*
X0199401Y0076561D02*
X0198883Y0076561D01*
X0199006Y0076164D02*
X0199278Y0076164D01*
X0201422Y0076560D02*
X0201474Y0076471D01*
X0201553Y0076405D01*
X0201650Y0076369D01*
X0201753Y0076369D01*
X0201850Y0076405D01*
X0201929Y0076471D01*
X0201980Y0076560D01*
X0201998Y0076662D01*
X0201980Y0076763D01*
X0201929Y0076853D01*
X0201850Y0076919D01*
X0201753Y0076954D01*
X0201650Y0076954D01*
X0201553Y0076919D01*
X0201474Y0076853D01*
X0201422Y0076763D01*
X0201404Y0076662D01*
X0201422Y0076560D01*
X0201422Y0076561D02*
X0201980Y0076561D01*
X0201981Y0076760D02*
X0201422Y0076760D01*
X0204230Y0078873D02*
X0204178Y0078962D01*
X0204160Y0079063D01*
X0204178Y0079165D01*
X0204230Y0079254D01*
X0204309Y0079320D01*
X0204406Y0079356D01*
X0204509Y0079356D01*
X0204606Y0079320D01*
X0204684Y0079254D01*
X0204736Y0079165D01*
X0204754Y0079063D01*
X0204736Y0078962D01*
X0204684Y0078873D01*
X0204606Y0078806D01*
X0204509Y0078771D01*
X0204406Y0078771D01*
X0204309Y0078806D01*
X0204230Y0078873D01*
X0204189Y0078943D02*
X0204725Y0078943D01*
X0204740Y0079142D02*
X0204174Y0079142D01*
X0204363Y0079340D02*
X0204551Y0079340D01*
X0222745Y0092789D02*
X0222675Y0092927D01*
X0222651Y0093079D01*
X0222675Y0093232D01*
X0222745Y0093369D01*
X0222854Y0093479D01*
X0222992Y0093549D01*
X0223144Y0093573D01*
X0223297Y0093549D01*
X0223435Y0093479D01*
X0223544Y0093369D01*
X0223614Y0093232D01*
X0223638Y0093079D01*
X0223614Y0092927D01*
X0223544Y0092789D01*
X0223435Y0092680D01*
X0223297Y0092610D01*
X0223144Y0092585D01*
X0222992Y0092610D01*
X0222854Y0092680D01*
X0222745Y0092789D01*
X0222720Y0092839D02*
X0223569Y0092839D01*
X0223632Y0093038D02*
X0222657Y0093038D01*
X0222677Y0093236D02*
X0223612Y0093236D01*
X0223479Y0093435D02*
X0222810Y0093435D01*
X0222931Y0092641D02*
X0223358Y0092641D01*
X0222672Y0097152D02*
X0222519Y0097177D01*
X0222382Y0097247D01*
X0222273Y0097356D01*
X0222203Y0097494D01*
X0222178Y0097646D01*
X0222203Y0097799D01*
X0222273Y0097936D01*
X0222382Y0098045D01*
X0222519Y0098116D01*
X0222672Y0098140D01*
X0222825Y0098116D01*
X0222962Y0098045D01*
X0223071Y0097936D01*
X0223142Y0097799D01*
X0223166Y0097646D01*
X0223142Y0097494D01*
X0223071Y0097356D01*
X0222962Y0097247D01*
X0222825Y0097177D01*
X0222672Y0097152D01*
X0222461Y0097206D02*
X0222883Y0097206D01*
X0223096Y0097405D02*
X0222248Y0097405D01*
X0222185Y0097603D02*
X0223159Y0097603D01*
X0223140Y0097802D02*
X0222204Y0097802D01*
X0222337Y0098000D02*
X0223007Y0098000D01*
X0226671Y0101904D02*
X0226619Y0101993D01*
X0226601Y0102095D01*
X0226619Y0102196D01*
X0226671Y0102286D01*
X0226750Y0102352D01*
X0226846Y0102387D01*
X0226950Y0102387D01*
X0227046Y0102352D01*
X0227125Y0102286D01*
X0227177Y0102196D01*
X0227195Y0102095D01*
X0227177Y0101993D01*
X0227125Y0101904D01*
X0227046Y0101838D01*
X0226950Y0101803D01*
X0226846Y0101803D01*
X0226750Y0101838D01*
X0226671Y0101904D01*
X0226632Y0101971D02*
X0227164Y0101971D01*
X0227182Y0102169D02*
X0226614Y0102169D01*
X0226793Y0102368D02*
X0227004Y0102368D01*
X0225196Y0103873D02*
X0225117Y0103806D01*
X0225020Y0103771D01*
X0224917Y0103771D01*
X0224820Y0103806D01*
X0224741Y0103873D01*
X0224690Y0103962D01*
X0224672Y0104063D01*
X0224690Y0104165D01*
X0224741Y0104254D01*
X0224820Y0104320D01*
X0224917Y0104356D01*
X0225020Y0104356D01*
X0225117Y0104320D01*
X0225196Y0104254D01*
X0225248Y0104165D01*
X0225266Y0104063D01*
X0225248Y0103962D01*
X0225196Y0103873D01*
X0225244Y0103956D02*
X0224694Y0103956D01*
X0224688Y0104154D02*
X0225250Y0104154D01*
X0225029Y0104353D02*
X0224909Y0104353D01*
X0223936Y0106602D02*
X0223839Y0106566D01*
X0223736Y0106566D01*
X0223639Y0106602D01*
X0223560Y0106668D01*
X0223509Y0106757D01*
X0223491Y0106859D01*
X0223509Y0106960D01*
X0223560Y0107049D01*
X0223639Y0107116D01*
X0223736Y0107151D01*
X0223839Y0107151D01*
X0223936Y0107116D01*
X0224015Y0107049D01*
X0224067Y0106960D01*
X0224085Y0106859D01*
X0224067Y0106757D01*
X0224015Y0106668D01*
X0223936Y0106602D01*
X0224054Y0106735D02*
X0223522Y0106735D01*
X0223504Y0106933D02*
X0224071Y0106933D01*
X0223892Y0107132D02*
X0223684Y0107132D01*
X0221526Y0106859D02*
X0221508Y0106757D01*
X0221456Y0106668D01*
X0221377Y0106602D01*
X0221280Y0106566D01*
X0221177Y0106566D01*
X0221080Y0106602D01*
X0221001Y0106668D01*
X0220950Y0106757D01*
X0220932Y0106859D01*
X0220950Y0106960D01*
X0221001Y0107049D01*
X0221080Y0107116D01*
X0221177Y0107151D01*
X0221280Y0107151D01*
X0221377Y0107116D01*
X0221456Y0107049D01*
X0221508Y0106960D01*
X0221526Y0106859D01*
X0221512Y0106933D02*
X0220945Y0106933D01*
X0220963Y0106735D02*
X0221495Y0106735D01*
X0221333Y0107132D02*
X0221125Y0107132D01*
X0220808Y0103608D02*
X0220905Y0103572D01*
X0220984Y0103506D01*
X0221035Y0103417D01*
X0221053Y0103315D01*
X0221035Y0103214D01*
X0220984Y0103125D01*
X0220905Y0103058D01*
X0220808Y0103023D01*
X0220705Y0103023D01*
X0220608Y0103058D01*
X0220529Y0103125D01*
X0220477Y0103214D01*
X0220459Y0103315D01*
X0220477Y0103417D01*
X0220529Y0103506D01*
X0220608Y0103572D01*
X0220705Y0103608D01*
X0220808Y0103608D01*
X0220921Y0103559D02*
X0220591Y0103559D01*
X0220467Y0103360D02*
X0221045Y0103360D01*
X0221005Y0103162D02*
X0220507Y0103162D01*
X0217195Y0103333D02*
X0217177Y0103232D01*
X0217125Y0103143D01*
X0217046Y0103076D01*
X0216950Y0103041D01*
X0216846Y0103041D01*
X0216750Y0103076D01*
X0216671Y0103143D01*
X0216619Y0103232D01*
X0216601Y0103333D01*
X0216619Y0103435D01*
X0216671Y0103524D01*
X0216750Y0103591D01*
X0216846Y0103626D01*
X0216950Y0103626D01*
X0217046Y0103591D01*
X0217125Y0103524D01*
X0217177Y0103435D01*
X0217195Y0103333D01*
X0217190Y0103360D02*
X0216606Y0103360D01*
X0216660Y0103162D02*
X0217136Y0103162D01*
X0217084Y0103559D02*
X0216712Y0103559D01*
X0215905Y0105591D02*
X0215808Y0105555D01*
X0215705Y0105555D01*
X0215608Y0105591D01*
X0215529Y0105657D01*
X0215477Y0105746D01*
X0215459Y0105848D01*
X0215477Y0105949D01*
X0215529Y0106038D01*
X0215608Y0106105D01*
X0215705Y0106140D01*
X0215808Y0106140D01*
X0215905Y0106105D01*
X0215984Y0106038D01*
X0216035Y0105949D01*
X0216053Y0105848D01*
X0216035Y0105746D01*
X0215984Y0105657D01*
X0215905Y0105591D01*
X0216033Y0105742D02*
X0215480Y0105742D01*
X0215476Y0105941D02*
X0216037Y0105941D01*
X0215810Y0106139D02*
X0215703Y0106139D01*
X0216867Y0107074D02*
X0216816Y0107163D01*
X0216798Y0107265D01*
X0216816Y0107366D01*
X0216867Y0107456D01*
X0216946Y0107522D01*
X0217043Y0107557D01*
X0217146Y0107557D01*
X0217243Y0107522D01*
X0217322Y0107456D01*
X0217374Y0107366D01*
X0217392Y0107265D01*
X0217374Y0107163D01*
X0217322Y0107074D01*
X0217243Y0107008D01*
X0217146Y0106973D01*
X0217043Y0106973D01*
X0216946Y0107008D01*
X0216867Y0107074D01*
X0216834Y0107132D02*
X0217356Y0107132D01*
X0217380Y0107330D02*
X0216810Y0107330D01*
X0216965Y0107529D02*
X0217225Y0107529D01*
X0216950Y0099671D02*
X0217046Y0099635D01*
X0217125Y0099569D01*
X0217177Y0099480D01*
X0217195Y0099378D01*
X0217177Y0099277D01*
X0217125Y0099188D01*
X0217046Y0099121D01*
X0216950Y0099086D01*
X0216846Y0099086D01*
X0216750Y0099121D01*
X0216671Y0099188D01*
X0216619Y0099277D01*
X0216601Y0099378D01*
X0216619Y0099480D01*
X0216671Y0099569D01*
X0216750Y0099635D01*
X0216846Y0099671D01*
X0216950Y0099671D01*
X0217102Y0099588D02*
X0216694Y0099588D01*
X0216603Y0099390D02*
X0217193Y0099390D01*
X0217128Y0099191D02*
X0216668Y0099191D01*
X0226710Y0111752D02*
X0226631Y0111818D01*
X0226580Y0111908D01*
X0226562Y0112009D01*
X0226580Y0112111D01*
X0226631Y0112200D01*
X0226710Y0112266D01*
X0226807Y0112301D01*
X0226910Y0112301D01*
X0227007Y0112266D01*
X0227086Y0112200D01*
X0227138Y0112111D01*
X0227156Y0112009D01*
X0227138Y0111908D01*
X0227086Y0111818D01*
X0227007Y0111752D01*
X0226910Y0111717D01*
X0226807Y0111717D01*
X0226710Y0111752D01*
X0226586Y0111896D02*
X0227131Y0111896D01*
X0227140Y0112095D02*
X0226577Y0112095D01*
X0226784Y0112293D02*
X0226933Y0112293D01*
X0187077Y0105874D02*
X0187059Y0105773D01*
X0187007Y0105684D01*
X0186928Y0105617D01*
X0186831Y0105582D01*
X0186728Y0105582D01*
X0186631Y0105617D01*
X0186553Y0105684D01*
X0186501Y0105773D01*
X0186483Y0105874D01*
X0186501Y0105976D01*
X0186553Y0106065D01*
X0186631Y0106131D01*
X0186728Y0106167D01*
X0186831Y0106167D01*
X0186928Y0106131D01*
X0187007Y0106065D01*
X0187059Y0105976D01*
X0187077Y0105874D01*
X0187065Y0105941D02*
X0186495Y0105941D01*
X0186519Y0105742D02*
X0187041Y0105742D01*
X0186907Y0106139D02*
X0186653Y0106139D01*
X0185846Y0107002D02*
X0185767Y0106936D01*
X0185670Y0106901D01*
X0185567Y0106901D01*
X0185470Y0106936D01*
X0185391Y0107002D01*
X0185340Y0107092D01*
X0185322Y0107193D01*
X0185340Y0107295D01*
X0185391Y0107384D01*
X0185470Y0107450D01*
X0185567Y0107486D01*
X0185670Y0107486D01*
X0185767Y0107450D01*
X0185846Y0107384D01*
X0185897Y0107295D01*
X0185915Y0107193D01*
X0185897Y0107092D01*
X0185846Y0107002D01*
X0185759Y0106933D02*
X0185478Y0106933D01*
X0185332Y0107132D02*
X0185905Y0107132D01*
X0185877Y0107330D02*
X0185360Y0107330D01*
X0184124Y0107252D02*
X0184106Y0107151D01*
X0184055Y0107062D01*
X0183976Y0106995D01*
X0183879Y0106960D01*
X0183776Y0106960D01*
X0183679Y0106995D01*
X0183600Y0107062D01*
X0183548Y0107151D01*
X0183530Y0107252D01*
X0183548Y0107354D01*
X0183600Y0107443D01*
X0183679Y0107509D01*
X0183776Y0107545D01*
X0183879Y0107545D01*
X0183976Y0107509D01*
X0184055Y0107443D01*
X0184106Y0107354D01*
X0184124Y0107252D01*
X0184110Y0107330D02*
X0183544Y0107330D01*
X0183559Y0107132D02*
X0184095Y0107132D01*
X0183922Y0107529D02*
X0183732Y0107529D01*
D18*
X0216898Y0103333D02*
X0217970Y0104406D01*
X0221287Y0104406D01*
X0221847Y0103846D01*
X0221847Y0101122D01*
X0224280Y0098689D01*
X0224280Y0094215D01*
X0223144Y0093079D01*
X0221229Y0096203D02*
X0221229Y0084765D01*
X0222521Y0083473D01*
X0221229Y0096203D02*
X0222672Y0097646D01*
X0180284Y0063945D02*
X0180284Y0054693D01*
X0180678Y0054300D01*
X0175717Y0053932D02*
X0175467Y0053932D01*
X0175717Y0053932D02*
X0175717Y0049772D01*
X0173433Y0063642D02*
X0172516Y0063642D01*
X0169063Y0067095D01*
X0169063Y0068237D01*
X0221465Y0054772D02*
X0221937Y0055244D01*
X0224063Y0055244D01*
D19*
X0224969Y0058897D02*
X0226386Y0060315D01*
X0226386Y0075402D01*
X0227528Y0076544D01*
X0225402Y0076898D02*
X0225402Y0070441D01*
X0224753Y0069792D01*
X0224753Y0062481D01*
X0224721Y0062449D01*
X0221819Y0061780D02*
X0214831Y0054792D01*
X0214815Y0054792D01*
X0214519Y0054496D01*
X0209615Y0054496D01*
X0208276Y0053158D01*
X0211465Y0055914D02*
X0213591Y0055914D01*
X0219260Y0061583D01*
X0219260Y0067685D01*
X0223466Y0071891D01*
X0223466Y0075631D01*
X0220835Y0078262D01*
X0220835Y0083296D01*
X0218571Y0085559D01*
X0218571Y0087370D01*
X0217666Y0088276D01*
X0205796Y0088276D01*
X0205087Y0087567D01*
X0204851Y0086603D02*
X0207941Y0086603D01*
X0209024Y0085520D01*
X0208197Y0084615D02*
X0208197Y0081505D01*
X0207882Y0081189D01*
X0207882Y0074575D01*
X0201729Y0068422D01*
X0201358Y0068422D01*
X0200697Y0067761D01*
X0200697Y0066681D01*
X0198709Y0064693D01*
X0197685Y0065363D02*
X0197685Y0065874D01*
X0207056Y0075244D01*
X0207056Y0083630D01*
X0206150Y0084536D02*
X0206150Y0080087D01*
X0206268Y0079969D01*
X0206268Y0075756D01*
X0196681Y0066170D01*
X0196681Y0065776D01*
X0186189Y0055284D01*
X0186189Y0054890D01*
X0187114Y0054437D02*
X0196191Y0054437D01*
X0200481Y0058727D01*
X0201033Y0058727D01*
X0198355Y0054103D02*
X0197607Y0054103D01*
X0198355Y0054103D02*
X0206937Y0062685D01*
X0206937Y0064733D01*
X0211780Y0069575D01*
X0211780Y0072607D01*
X0213394Y0074221D01*
X0213394Y0076977D01*
X0215914Y0079496D01*
X0215914Y0084536D01*
X0214930Y0085520D01*
X0213945Y0084654D02*
X0213945Y0081268D01*
X0211583Y0078906D01*
X0211583Y0075402D01*
X0210205Y0074024D01*
X0210205Y0072607D01*
X0208237Y0070638D01*
X0208237Y0069457D01*
X0205361Y0066582D01*
X0204616Y0066582D01*
X0202675Y0064641D01*
X0202633Y0064641D01*
X0193276Y0055284D01*
X0190874Y0055441D02*
X0204211Y0068778D01*
X0204211Y0069565D01*
X0208630Y0073985D01*
X0208630Y0080520D01*
X0210993Y0082882D01*
X0210993Y0085493D01*
X0213197Y0085402D02*
X0213945Y0084654D01*
X0212961Y0083630D02*
X0212961Y0082056D01*
X0209418Y0078512D01*
X0209418Y0073197D01*
X0206839Y0070619D01*
X0206839Y0069241D01*
X0204799Y0067200D01*
X0204037Y0067200D01*
X0202324Y0065488D01*
X0204811Y0065520D02*
X0205679Y0065520D01*
X0209713Y0069554D01*
X0209713Y0070540D01*
X0210993Y0071819D01*
X0210993Y0073433D01*
X0212538Y0074979D01*
X0212538Y0077991D01*
X0215028Y0080481D01*
X0215028Y0083532D01*
X0214930Y0083630D01*
X0216898Y0082646D02*
X0216898Y0085520D01*
X0218591Y0084103D02*
X0218867Y0083827D01*
X0218867Y0076347D01*
X0215933Y0073414D01*
X0215933Y0071642D01*
X0214241Y0069949D01*
X0214241Y0065087D01*
X0208768Y0059615D01*
X0207449Y0059615D01*
X0201150Y0053315D01*
X0201978Y0052372D02*
X0207843Y0058237D01*
X0213355Y0058237D01*
X0217390Y0062272D01*
X0217390Y0063200D01*
X0217430Y0063240D01*
X0217430Y0063942D01*
X0217390Y0063981D01*
X0217390Y0072018D01*
X0217852Y0072480D01*
X0218670Y0073298D01*
X0218670Y0073591D01*
X0217852Y0072480D02*
X0217390Y0072018D01*
X0217990Y0071770D02*
X0217990Y0069654D01*
X0217990Y0069822D01*
X0217990Y0069654D02*
X0217990Y0064230D01*
X0218030Y0064190D01*
X0218030Y0062992D01*
X0217990Y0062952D01*
X0217990Y0062023D01*
X0213603Y0057637D01*
X0208091Y0057637D01*
X0202227Y0051772D01*
X0184057Y0051772D01*
X0183030Y0052798D01*
X0183030Y0072486D01*
X0192095Y0081551D01*
X0192095Y0082685D01*
X0191111Y0082899D02*
X0191980Y0083768D01*
X0193807Y0083768D01*
X0199575Y0089536D01*
X0200756Y0089536D01*
X0201167Y0088748D02*
X0201107Y0088689D01*
X0200303Y0088689D01*
X0194851Y0083237D01*
X0194851Y0080678D01*
X0193079Y0078906D01*
X0191701Y0078906D01*
X0189733Y0076937D01*
X0189339Y0075796D02*
X0189378Y0075756D01*
X0190048Y0075756D01*
X0191071Y0076780D01*
X0192134Y0076780D01*
X0196032Y0080678D01*
X0196032Y0083237D01*
X0196622Y0083827D01*
X0197843Y0083827D01*
X0199575Y0085559D01*
X0199575Y0086386D01*
X0201150Y0087961D01*
X0203748Y0087961D01*
X0206190Y0090402D01*
X0206190Y0091087D01*
X0206686Y0091583D01*
X0206701Y0091583D01*
X0207981Y0092863D01*
X0207981Y0094122D01*
X0207056Y0095048D01*
X0207056Y0095441D01*
X0207056Y0093473D02*
X0207056Y0093401D01*
X0203942Y0090287D01*
X0203942Y0089572D01*
X0203119Y0088748D01*
X0201167Y0088748D01*
X0201406Y0090383D02*
X0202922Y0091898D01*
X0202922Y0092213D01*
X0201406Y0090383D02*
X0199044Y0090383D01*
X0193433Y0084772D01*
X0191813Y0084772D01*
X0190323Y0083282D01*
X0190323Y0082843D01*
X0189516Y0082036D01*
X0188335Y0082036D01*
X0186052Y0079752D01*
X0179083Y0079752D01*
X0177843Y0078512D01*
X0177843Y0076622D01*
X0177922Y0076544D01*
X0179890Y0076544D02*
X0181426Y0078079D01*
X0186111Y0078079D01*
X0189103Y0081071D01*
X0189142Y0081071D01*
X0190126Y0081071D01*
X0191111Y0082056D01*
X0191111Y0082899D01*
X0188945Y0082889D02*
X0188945Y0083197D01*
X0192448Y0086700D01*
X0194408Y0086700D01*
X0194433Y0086725D01*
X0194449Y0086725D01*
X0194945Y0087221D01*
X0194945Y0087237D01*
X0195615Y0087907D01*
X0195615Y0088591D01*
X0198316Y0091292D01*
X0199000Y0091292D01*
X0203351Y0095642D01*
X0204205Y0095642D01*
X0205087Y0096524D01*
X0209713Y0096524D01*
X0210973Y0097784D01*
X0215304Y0097784D01*
X0216898Y0099378D01*
X0215422Y0102233D02*
X0219674Y0102233D01*
X0220756Y0103315D01*
X0221229Y0106859D02*
X0219260Y0106859D01*
X0217056Y0109063D01*
X0187489Y0109063D01*
X0185619Y0107193D01*
X0185599Y0108433D02*
X0187114Y0109949D01*
X0219142Y0109949D01*
X0219909Y0109181D01*
X0221465Y0109181D01*
X0223788Y0106859D01*
X0223748Y0105284D02*
X0217489Y0105284D01*
X0217036Y0104831D01*
X0212430Y0104831D01*
X0212213Y0105048D01*
X0209725Y0105048D01*
X0209489Y0105284D01*
X0196583Y0105284D01*
X0188158Y0096859D01*
X0188158Y0091898D01*
X0185008Y0088748D01*
X0180284Y0088748D01*
X0176741Y0085205D01*
X0176741Y0082843D01*
X0175481Y0082437D02*
X0175481Y0085520D01*
X0179496Y0089536D01*
X0184615Y0089536D01*
X0187370Y0092292D01*
X0187370Y0097817D01*
X0192281Y0102728D01*
X0192694Y0102728D01*
X0193476Y0103510D01*
X0193476Y0103923D01*
X0196136Y0106583D01*
X0209706Y0106583D01*
X0210284Y0106005D01*
X0211123Y0107410D02*
X0193259Y0107410D01*
X0187980Y0102130D01*
X0187980Y0101958D01*
X0186583Y0100562D01*
X0186583Y0092685D01*
X0184221Y0090323D01*
X0178315Y0090323D01*
X0172410Y0084418D01*
X0171032Y0084418D01*
X0178315Y0085205D02*
X0178315Y0082892D01*
X0179890Y0083000D02*
X0183225Y0086336D01*
X0185374Y0086336D01*
X0191943Y0092905D01*
X0191943Y0095244D01*
X0197255Y0100557D01*
X0198648Y0100557D01*
X0200559Y0102469D01*
X0201540Y0102469D01*
X0201600Y0102528D01*
X0206645Y0102528D01*
X0206705Y0102469D01*
X0207406Y0102469D01*
X0207466Y0102528D01*
X0212725Y0102528D01*
X0212961Y0102764D01*
X0213552Y0104103D02*
X0211071Y0104103D01*
X0211012Y0104162D01*
X0205163Y0104162D01*
X0204414Y0103413D01*
X0202922Y0103413D01*
X0202174Y0104162D01*
X0199890Y0104162D01*
X0198256Y0102528D01*
X0195638Y0102528D01*
X0188945Y0095835D01*
X0188945Y0091504D01*
X0185402Y0087961D01*
X0181071Y0087961D01*
X0178315Y0085205D01*
X0182252Y0083404D02*
X0183940Y0085092D01*
X0185289Y0085092D01*
X0192882Y0092685D01*
X0192882Y0094851D01*
X0197548Y0099516D01*
X0199300Y0099516D01*
X0201505Y0101721D01*
X0211557Y0101721D01*
X0212725Y0100553D01*
X0215422Y0102233D02*
X0213552Y0104103D01*
X0212994Y0105539D02*
X0214659Y0105539D01*
X0214968Y0105848D01*
X0215756Y0105848D01*
X0217095Y0107265D02*
X0216123Y0108237D01*
X0189142Y0108237D01*
X0186780Y0105874D01*
X0185599Y0108433D02*
X0185008Y0108433D01*
X0183827Y0107252D01*
X0196229Y0096229D02*
X0197646Y0096229D01*
X0202292Y0100874D01*
X0204435Y0100227D02*
X0205936Y0100227D01*
X0206583Y0100874D01*
X0207941Y0100422D02*
X0207941Y0098886D01*
X0207252Y0098197D01*
X0203693Y0098197D01*
X0202512Y0097016D01*
X0202512Y0096875D01*
X0197928Y0092292D01*
X0196622Y0092292D01*
X0195698Y0091367D01*
X0195681Y0091367D01*
X0195185Y0090871D01*
X0195185Y0090854D01*
X0187567Y0083237D01*
X0187567Y0082922D01*
X0185796Y0082843D02*
X0185796Y0083064D01*
X0200756Y0098025D01*
X0202233Y0098025D01*
X0204435Y0100227D01*
X0207941Y0100422D02*
X0208394Y0100874D01*
X0212994Y0105539D02*
X0211123Y0107410D01*
X0204693Y0114733D02*
X0203670Y0113709D01*
X0204693Y0114733D02*
X0208827Y0114733D01*
X0210796Y0116701D01*
X0200233Y0117028D02*
X0200233Y0113158D01*
X0200233Y0117028D02*
X0193000Y0124260D01*
X0223748Y0105284D02*
X0224969Y0104063D01*
X0226898Y0102095D02*
X0227487Y0102684D01*
X0227487Y0111380D01*
X0226859Y0112009D01*
X0196229Y0096229D02*
X0193768Y0093768D01*
X0193768Y0092390D01*
X0185579Y0084201D01*
X0185067Y0084201D01*
X0183827Y0082961D01*
X0182252Y0082843D02*
X0182252Y0083404D01*
X0189142Y0081071D02*
X0189339Y0081071D01*
X0192267Y0080874D02*
X0193788Y0080874D01*
X0193827Y0080914D01*
X0192267Y0080874D02*
X0183630Y0072238D01*
X0183630Y0053047D01*
X0184305Y0052372D01*
X0201978Y0052372D01*
X0210993Y0063222D02*
X0210993Y0065717D01*
X0212961Y0067685D01*
X0212961Y0070520D01*
X0214831Y0072391D01*
X0214831Y0076446D01*
X0217772Y0079386D01*
X0217772Y0081772D01*
X0216898Y0082646D01*
X0223840Y0076504D02*
X0224444Y0075900D01*
X0224444Y0071097D01*
X0221819Y0068473D01*
X0221819Y0061780D01*
X0222352Y0072213D02*
X0218433Y0072213D01*
X0217990Y0071770D01*
X0224930Y0077370D02*
X0225402Y0076898D01*
X0206150Y0084536D02*
X0205087Y0085599D01*
X0204851Y0086603D02*
X0203453Y0085205D01*
X0203453Y0079930D01*
X0202548Y0079024D01*
X0202548Y0076311D01*
X0201650Y0075413D01*
X0200668Y0075413D01*
X0199092Y0073838D01*
X0197066Y0073838D01*
X0193600Y0070372D01*
X0193600Y0068345D01*
X0190824Y0065569D01*
X0190824Y0064397D01*
X0192095Y0064536D02*
X0194536Y0066977D01*
X0194536Y0069737D01*
X0197689Y0072891D01*
X0199859Y0072891D01*
X0201497Y0074528D01*
X0202260Y0074528D01*
X0203374Y0075643D01*
X0203374Y0077430D01*
X0204457Y0078512D01*
X0204457Y0079063D01*
X0205481Y0079693D02*
X0205481Y0076386D01*
X0195776Y0066681D01*
X0195776Y0066485D01*
X0192056Y0062764D01*
X0189142Y0062764D01*
X0188709Y0065323D02*
X0192764Y0069378D01*
X0192764Y0071268D01*
X0196150Y0074654D01*
X0198670Y0074654D01*
X0200678Y0076662D01*
X0201701Y0076662D01*
X0199142Y0076426D02*
X0198433Y0075717D01*
X0198000Y0075717D01*
X0195796Y0075717D01*
X0193394Y0073315D01*
X0188237Y0073315D01*
X0185008Y0070087D01*
X0185008Y0065126D01*
X0188557Y0074949D02*
X0191283Y0074949D01*
X0191541Y0075207D01*
X0191744Y0075410D01*
X0193623Y0075410D01*
X0193690Y0075344D01*
X0194063Y0075717D01*
X0194063Y0076741D01*
X0195441Y0078119D01*
X0196622Y0078119D01*
X0198113Y0079609D01*
X0198113Y0082410D01*
X0200613Y0084910D01*
X0200613Y0085939D01*
X0201741Y0087067D01*
X0205087Y0083630D02*
X0205087Y0080087D01*
X0205481Y0079693D01*
X0198315Y0075717D02*
X0198000Y0075717D01*
X0191744Y0075410D02*
X0191541Y0075207D01*
X0188557Y0074949D02*
X0188230Y0075277D01*
X0187114Y0054437D02*
X0186189Y0053512D01*
X0185008Y0053512D01*
D20*
X0175717Y0049772D02*
X0221229Y0049772D01*
X0224063Y0052607D01*
X0224063Y0055244D01*
X0224063Y0056886D01*
X0221634Y0059315D01*
X0175717Y0049772D02*
X0171229Y0049772D01*
X0170441Y0050559D01*
M02*
