G75*
%MOIN*%
%OFA0B0*%
%FSLAX24Y24*%
%IPPOS*%
%LPD*%
%AMOC8*
5,1,8,0,0,1.08239X$1,22.5*
%
%ADD10R,0.0800X0.0800*%
%ADD11R,0.0354X0.0098*%
%ADD12R,0.0098X0.0354*%
%ADD13R,0.0420X0.0350*%
%ADD14R,0.0300X0.0270*%
D10*
X004015Y005845D03*
X004015Y006945D03*
X005115Y006945D03*
X005115Y005845D03*
D11*
X006160Y005903D03*
X006160Y006099D03*
X006160Y006296D03*
X006160Y006493D03*
X006160Y006690D03*
X006160Y006887D03*
X006160Y007084D03*
X006160Y007281D03*
X006160Y007477D03*
X006160Y007674D03*
X006160Y005706D03*
X006160Y005509D03*
X006160Y005312D03*
X006160Y005115D03*
X002971Y005115D03*
X002971Y005312D03*
X002971Y005509D03*
X002971Y005706D03*
X002971Y005903D03*
X002971Y006099D03*
X002971Y006296D03*
X002971Y006493D03*
X002971Y006690D03*
X002971Y006887D03*
X002971Y007084D03*
X002971Y007281D03*
X002971Y007477D03*
X002971Y007674D03*
D12*
X003286Y007989D03*
X003483Y007989D03*
X003679Y007989D03*
X003876Y007989D03*
X004073Y007989D03*
X004270Y007989D03*
X004467Y007989D03*
X004664Y007989D03*
X004861Y007989D03*
X005057Y007989D03*
X005254Y007989D03*
X005451Y007989D03*
X005648Y007989D03*
X005845Y007989D03*
X005845Y004800D03*
X005648Y004800D03*
X005451Y004800D03*
X005254Y004800D03*
X005057Y004800D03*
X004861Y004800D03*
X004664Y004800D03*
X004467Y004800D03*
X004270Y004800D03*
X004073Y004800D03*
X003876Y004800D03*
X003679Y004800D03*
X003483Y004800D03*
X003286Y004800D03*
D13*
X006755Y004945D03*
X006755Y004265D03*
D14*
X002630Y004270D03*
X002630Y004690D03*
M02*
