G75*
%MOIN*%
%OFA0B0*%
%FSLAX24Y24*%
%IPPOS*%
%LPD*%
%AMOC8*
5,1,8,0,0,1.08239X$1,22.5*
%
%ADD10C,0.0100*%
%ADD11C,0.0050*%
%ADD12C,0.0070*%
D10*
X010377Y011928D02*
X010379Y011955D01*
X010385Y011982D01*
X010394Y012008D01*
X010407Y012032D01*
X010423Y012055D01*
X010442Y012074D01*
X010464Y012091D01*
X010488Y012105D01*
X010513Y012115D01*
X010540Y012122D01*
X010567Y012125D01*
X010595Y012124D01*
X010622Y012119D01*
X010648Y012111D01*
X010672Y012099D01*
X010695Y012083D01*
X010716Y012065D01*
X010733Y012044D01*
X010748Y012020D01*
X010759Y011995D01*
X010767Y011969D01*
X010771Y011942D01*
X010771Y011914D01*
X010767Y011887D01*
X010759Y011861D01*
X010748Y011836D01*
X010733Y011812D01*
X010716Y011791D01*
X010695Y011773D01*
X010673Y011757D01*
X010648Y011745D01*
X010622Y011737D01*
X010595Y011732D01*
X010567Y011731D01*
X010540Y011734D01*
X010513Y011741D01*
X010488Y011751D01*
X010464Y011765D01*
X010442Y011782D01*
X010423Y011801D01*
X010407Y011824D01*
X010394Y011848D01*
X010385Y011874D01*
X010379Y011901D01*
X010377Y011928D01*
D11*
X010349Y011525D02*
X014001Y011525D01*
X014225Y011749D01*
X014225Y012325D01*
X013725Y014725D02*
X010425Y014725D01*
X010125Y012225D02*
X010125Y011749D01*
X010349Y011525D01*
D12*
X011563Y011390D02*
X011783Y011390D01*
X011783Y011060D01*
X011563Y011060D01*
X011673Y011225D02*
X011783Y011225D01*
X011931Y011115D02*
X011986Y011060D01*
X012151Y011060D01*
X012151Y011390D01*
X011986Y011390D01*
X011931Y011335D01*
X011931Y011115D01*
X012287Y011060D02*
X012397Y011060D01*
X012342Y011060D02*
X012342Y011390D01*
X012397Y011390D02*
X012287Y011390D01*
X012545Y011335D02*
X012600Y011390D01*
X012710Y011390D01*
X012765Y011335D01*
X012765Y011280D01*
X012710Y011225D01*
X012600Y011225D01*
X012545Y011170D01*
X012545Y011115D01*
X012600Y011060D01*
X012710Y011060D01*
X012765Y011115D01*
X012913Y013125D02*
X012915Y013181D01*
X012921Y013236D01*
X012931Y013290D01*
X012944Y013344D01*
X012962Y013397D01*
X012983Y013448D01*
X013007Y013498D01*
X013035Y013546D01*
X013067Y013592D01*
X013101Y013636D01*
X013139Y013677D01*
X013179Y013715D01*
X013222Y013750D01*
X013267Y013782D01*
X013315Y013811D01*
X013364Y013837D01*
X013415Y013859D01*
X013467Y013877D01*
X013521Y013891D01*
X013576Y013902D01*
X013631Y013909D01*
X013686Y013912D01*
X013742Y013911D01*
X013797Y013906D01*
X013852Y013897D01*
X013906Y013885D01*
X013959Y013868D01*
X014011Y013848D01*
X014061Y013824D01*
X014109Y013797D01*
X014156Y013767D01*
X014200Y013733D01*
X014242Y013696D01*
X014280Y013656D01*
X014317Y013614D01*
X014350Y013569D01*
X014379Y013523D01*
X014406Y013474D01*
X014428Y013423D01*
X014448Y013371D01*
X014463Y013317D01*
X014475Y013263D01*
X014483Y013208D01*
X014487Y013153D01*
X014487Y013097D01*
X014483Y013042D01*
X014475Y012987D01*
X014463Y012933D01*
X014448Y012879D01*
X014428Y012827D01*
X014406Y012776D01*
X014379Y012727D01*
X014350Y012681D01*
X014317Y012636D01*
X014280Y012594D01*
X014242Y012554D01*
X014200Y012517D01*
X014156Y012483D01*
X014109Y012453D01*
X014061Y012426D01*
X014011Y012402D01*
X013959Y012382D01*
X013906Y012365D01*
X013852Y012353D01*
X013797Y012344D01*
X013742Y012339D01*
X013686Y012338D01*
X013631Y012341D01*
X013576Y012348D01*
X013521Y012359D01*
X013467Y012373D01*
X013415Y012391D01*
X013364Y012413D01*
X013315Y012439D01*
X013267Y012468D01*
X013222Y012500D01*
X013179Y012535D01*
X013139Y012573D01*
X013101Y012614D01*
X013067Y012658D01*
X013035Y012704D01*
X013007Y012752D01*
X012983Y012802D01*
X012962Y012853D01*
X012944Y012906D01*
X012931Y012960D01*
X012921Y013014D01*
X012915Y013069D01*
X012913Y013125D01*
X012772Y014860D02*
X012827Y014915D01*
X012772Y014860D02*
X012661Y014860D01*
X012606Y014915D01*
X012606Y014970D01*
X012661Y015025D01*
X012772Y015025D01*
X012827Y015080D01*
X012827Y015135D01*
X012772Y015190D01*
X012661Y015190D01*
X012606Y015135D01*
X012458Y015080D02*
X012348Y015190D01*
X012348Y014860D01*
X012458Y014860D02*
X012238Y014860D01*
X012090Y014915D02*
X012035Y014860D01*
X011925Y014860D01*
X011870Y014915D01*
X011870Y014970D01*
X011925Y015025D01*
X012035Y015025D01*
X012090Y015080D01*
X012090Y015135D01*
X012035Y015190D01*
X011925Y015190D01*
X011870Y015135D01*
X011722Y015190D02*
X011557Y015190D01*
X011501Y015135D01*
X011501Y014915D01*
X011557Y014860D01*
X011722Y014860D01*
X011722Y015190D01*
X009763Y013125D02*
X009765Y013181D01*
X009771Y013236D01*
X009781Y013290D01*
X009794Y013344D01*
X009812Y013397D01*
X009833Y013448D01*
X009857Y013498D01*
X009885Y013546D01*
X009917Y013592D01*
X009951Y013636D01*
X009989Y013677D01*
X010029Y013715D01*
X010072Y013750D01*
X010117Y013782D01*
X010165Y013811D01*
X010214Y013837D01*
X010265Y013859D01*
X010317Y013877D01*
X010371Y013891D01*
X010426Y013902D01*
X010481Y013909D01*
X010536Y013912D01*
X010592Y013911D01*
X010647Y013906D01*
X010702Y013897D01*
X010756Y013885D01*
X010809Y013868D01*
X010861Y013848D01*
X010911Y013824D01*
X010959Y013797D01*
X011006Y013767D01*
X011050Y013733D01*
X011092Y013696D01*
X011130Y013656D01*
X011167Y013614D01*
X011200Y013569D01*
X011229Y013523D01*
X011256Y013474D01*
X011278Y013423D01*
X011298Y013371D01*
X011313Y013317D01*
X011325Y013263D01*
X011333Y013208D01*
X011337Y013153D01*
X011337Y013097D01*
X011333Y013042D01*
X011325Y012987D01*
X011313Y012933D01*
X011298Y012879D01*
X011278Y012827D01*
X011256Y012776D01*
X011229Y012727D01*
X011200Y012681D01*
X011167Y012636D01*
X011130Y012594D01*
X011092Y012554D01*
X011050Y012517D01*
X011006Y012483D01*
X010959Y012453D01*
X010911Y012426D01*
X010861Y012402D01*
X010809Y012382D01*
X010756Y012365D01*
X010702Y012353D01*
X010647Y012344D01*
X010592Y012339D01*
X010536Y012338D01*
X010481Y012341D01*
X010426Y012348D01*
X010371Y012359D01*
X010317Y012373D01*
X010265Y012391D01*
X010214Y012413D01*
X010165Y012439D01*
X010117Y012468D01*
X010072Y012500D01*
X010029Y012535D01*
X009989Y012573D01*
X009951Y012614D01*
X009917Y012658D01*
X009885Y012704D01*
X009857Y012752D01*
X009833Y012802D01*
X009812Y012853D01*
X009794Y012906D01*
X009781Y012960D01*
X009771Y013014D01*
X009765Y013069D01*
X009763Y013125D01*
M02*
