G75*
%MOIN*%
%OFA0B0*%
%FSLAX24Y24*%
%IPPOS*%
%LPD*%
%AMOC8*
5,1,8,0,0,1.08239X$1,22.5*
%
%ADD10R,0.0354X0.0098*%
%ADD11R,0.0098X0.0354*%
%ADD12R,0.1890X0.1890*%
%ADD13R,0.0420X0.0350*%
%ADD14R,0.0300X0.0270*%
%ADD15C,0.0240*%
%ADD16C,0.0100*%
%ADD17OC8,0.0768*%
%ADD18C,0.0050*%
%ADD19C,0.0060*%
D10*
X002971Y005115D03*
X002971Y005312D03*
X002971Y005509D03*
X002971Y005706D03*
X002971Y005903D03*
X002971Y006099D03*
X002971Y006296D03*
X002971Y006493D03*
X002971Y006690D03*
X002971Y006887D03*
X002971Y007084D03*
X002971Y007281D03*
X002971Y007477D03*
X002971Y007674D03*
X006160Y007674D03*
X006160Y007477D03*
X006160Y007281D03*
X006160Y007084D03*
X006160Y006887D03*
X006160Y006690D03*
X006160Y006493D03*
X006160Y006296D03*
X006160Y006099D03*
X006160Y005903D03*
X006160Y005706D03*
X006160Y005509D03*
X006160Y005312D03*
X006160Y005115D03*
D11*
X005845Y004800D03*
X005648Y004800D03*
X005451Y004800D03*
X005254Y004800D03*
X005057Y004800D03*
X004861Y004800D03*
X004664Y004800D03*
X004467Y004800D03*
X004270Y004800D03*
X004073Y004800D03*
X003876Y004800D03*
X003679Y004800D03*
X003483Y004800D03*
X003286Y004800D03*
X003286Y007989D03*
X003483Y007989D03*
X003679Y007989D03*
X003876Y007989D03*
X004073Y007989D03*
X004270Y007989D03*
X004467Y007989D03*
X004664Y007989D03*
X004861Y007989D03*
X005057Y007989D03*
X005254Y007989D03*
X005451Y007989D03*
X005648Y007989D03*
X005845Y007989D03*
D12*
X004565Y006395D03*
D13*
X006755Y004945D03*
X006755Y004265D03*
D14*
X002630Y004270D03*
X002630Y004690D03*
D15*
X003405Y005205D03*
X004180Y005180D03*
X004568Y005180D03*
X004943Y005180D03*
X004468Y004430D03*
X004143Y004205D03*
X003843Y003980D03*
X003543Y003780D03*
X003405Y002730D03*
X003268Y002280D03*
X003755Y001080D03*
X003305Y000505D03*
X002780Y000605D03*
X001705Y000605D03*
X000705Y000605D03*
X000705Y001605D03*
X000705Y003280D03*
X000705Y004205D03*
X001205Y004705D03*
X000705Y005205D03*
X001705Y005205D03*
X001805Y005855D03*
X001805Y003980D03*
X004455Y001380D03*
X005455Y001380D03*
X006355Y000930D03*
X006855Y000505D03*
X008705Y001105D03*
X006955Y003055D03*
X006855Y002630D03*
X007505Y003605D03*
X006930Y003705D03*
X007230Y005305D03*
X007305Y005705D03*
X007705Y006105D03*
X008705Y004605D03*
X008705Y003605D03*
X005705Y005205D03*
X005755Y005905D03*
X005943Y009140D03*
X005697Y009411D03*
X005451Y009140D03*
X005205Y009411D03*
X004959Y009140D03*
X004713Y009411D03*
X004467Y009140D03*
X004221Y009411D03*
X003975Y009140D03*
X003729Y009411D03*
X003483Y009140D03*
X003236Y009411D03*
X002990Y009140D03*
X002744Y009411D03*
X002498Y009140D03*
X002252Y009411D03*
X002006Y009140D03*
X001760Y009411D03*
X001514Y009140D03*
X001268Y009411D03*
X001022Y009140D03*
X000505Y008655D03*
X001032Y009864D03*
X001020Y010217D03*
X000505Y010205D03*
X006189Y009411D03*
X006435Y009140D03*
X006681Y009411D03*
X006927Y009140D03*
X007174Y009411D03*
X007420Y009140D03*
X007666Y009411D03*
X007912Y009140D03*
X008158Y009411D03*
X008158Y009780D03*
X008712Y010177D03*
X008705Y008229D03*
D16*
X008712Y010177D02*
X008712Y010709D01*
X001020Y010709D01*
X001020Y010217D01*
X001805Y005855D02*
X001805Y005755D01*
X002555Y005755D01*
X002604Y005706D01*
X002971Y005706D01*
X002971Y005509D02*
X002971Y005312D01*
X003298Y005312D01*
X003405Y005205D01*
X003679Y005205D01*
X003679Y004800D01*
X003286Y004800D02*
X002715Y004800D01*
X002715Y004775D01*
X002630Y004690D01*
X005705Y005205D02*
X005812Y005312D01*
X006160Y005312D01*
X006648Y005312D01*
X006755Y005205D01*
X006755Y004945D01*
X006160Y005903D02*
X005807Y005903D01*
X005755Y005905D01*
D17*
X008555Y006305D03*
X000805Y006305D03*
D18*
X000405Y000480D02*
X000530Y000355D01*
X003155Y000355D01*
X003305Y000505D01*
X003141Y000617D02*
X000505Y000617D01*
X000505Y000665D02*
X003189Y000665D01*
X003224Y000700D02*
X003110Y000586D01*
X003110Y000455D01*
X000571Y000455D01*
X000505Y000521D01*
X000505Y005705D01*
X001446Y005705D01*
X001505Y005764D01*
X001546Y005805D01*
X001610Y005805D01*
X001610Y005774D01*
X001680Y005704D01*
X001680Y005703D01*
X001753Y005630D01*
X002503Y005630D01*
X002552Y005581D01*
X002719Y005581D01*
X002719Y005429D01*
X002737Y005411D01*
X002719Y005392D01*
X002719Y005232D01*
X002763Y005188D01*
X002918Y005188D01*
X002919Y005187D01*
X003210Y005187D01*
X003210Y005124D01*
X003282Y005052D01*
X003205Y005052D01*
X003161Y005009D01*
X003161Y004925D01*
X002663Y004925D01*
X002638Y004900D01*
X002449Y004900D01*
X002405Y004856D01*
X002405Y004524D01*
X002449Y004480D01*
X002811Y004480D01*
X002855Y004524D01*
X002855Y004675D01*
X003161Y004675D01*
X003161Y004592D01*
X003205Y004548D01*
X003366Y004548D01*
X003384Y004566D01*
X003402Y004548D01*
X003563Y004548D01*
X003581Y004566D01*
X003599Y004548D01*
X003707Y004548D01*
X003464Y004305D01*
X003364Y004305D01*
X003305Y004246D01*
X003114Y004055D01*
X003114Y004055D01*
X003055Y003996D01*
X003055Y002351D01*
X003073Y002334D01*
X003073Y002199D01*
X003187Y002085D01*
X003348Y002085D01*
X003462Y002199D01*
X003462Y002361D01*
X003348Y002475D01*
X003255Y002475D01*
X003255Y002604D01*
X003324Y002535D01*
X003486Y002535D01*
X003600Y002649D01*
X003600Y002811D01*
X003486Y002925D01*
X003405Y002925D01*
X003405Y003642D01*
X003462Y003585D01*
X003623Y003585D01*
X003718Y003680D01*
X004640Y003680D01*
X004699Y003739D01*
X005354Y004394D01*
X005354Y004568D01*
X005378Y004592D01*
X005378Y005009D01*
X005334Y005052D01*
X005174Y005052D01*
X005156Y005034D01*
X005138Y005052D01*
X005091Y005052D01*
X005137Y005099D01*
X005137Y005261D01*
X005023Y005375D01*
X004862Y005375D01*
X004755Y005268D01*
X004648Y005375D01*
X004487Y005375D01*
X004374Y005262D01*
X004261Y005375D01*
X004099Y005375D01*
X003985Y005261D01*
X003985Y005099D01*
X004032Y005052D01*
X003993Y005052D01*
X003975Y005034D01*
X003957Y005052D01*
X003804Y005052D01*
X003804Y005257D01*
X003731Y005330D01*
X003556Y005330D01*
X003486Y005400D01*
X003387Y005400D01*
X003350Y005437D01*
X003223Y005437D01*
X003223Y005589D01*
X003205Y005607D01*
X003223Y005626D01*
X003223Y005786D01*
X003205Y005804D01*
X003206Y005805D01*
X003405Y005805D01*
X003405Y007605D01*
X005705Y007605D01*
X005705Y006100D01*
X005674Y006100D01*
X005560Y005986D01*
X005560Y005824D01*
X005674Y005710D01*
X005836Y005710D01*
X005903Y005778D01*
X006212Y005778D01*
X006368Y005778D01*
X006395Y005805D01*
X007129Y005805D01*
X007110Y005786D01*
X007110Y005624D01*
X007224Y005510D01*
X007386Y005510D01*
X007500Y005624D01*
X007500Y005786D01*
X007481Y005805D01*
X007864Y005805D01*
X007905Y005764D01*
X007964Y005705D01*
X008855Y005705D01*
X008855Y001231D01*
X008786Y001300D01*
X008624Y001300D01*
X008510Y001186D01*
X008510Y001024D01*
X008624Y000910D01*
X008786Y000910D01*
X008855Y000979D01*
X008855Y000521D01*
X008789Y000455D01*
X007050Y000455D01*
X007050Y000586D01*
X006936Y000700D01*
X006774Y000700D01*
X006660Y000586D01*
X006660Y000424D01*
X006729Y000355D01*
X003431Y000355D01*
X003500Y000424D01*
X003500Y000586D01*
X003386Y000700D01*
X003224Y000700D01*
X003110Y000568D02*
X000505Y000568D01*
X000507Y000520D02*
X003110Y000520D01*
X003110Y000471D02*
X000555Y000471D01*
X000405Y000480D02*
X000405Y005805D01*
X001405Y005805D01*
X001705Y006105D01*
X002105Y006105D01*
X002307Y005903D01*
X002971Y005903D01*
X002971Y006099D02*
X002578Y006099D01*
X000776Y007902D01*
X000776Y009608D01*
X001032Y009864D01*
X001268Y009411D02*
X001268Y007803D01*
X002578Y006493D01*
X002971Y006493D01*
X002971Y006296D02*
X002578Y006296D01*
X001022Y007853D01*
X001022Y009140D01*
X001514Y009140D02*
X001514Y007754D01*
X002578Y006690D01*
X002971Y006690D01*
X002971Y006887D02*
X002578Y006887D01*
X001760Y007705D01*
X001760Y009411D01*
X002006Y009140D02*
X002006Y007656D01*
X002578Y007084D01*
X002971Y007084D01*
X002971Y007281D02*
X002578Y007281D01*
X002252Y007607D01*
X002252Y009411D01*
X002498Y009140D02*
X002498Y007557D01*
X002578Y007477D01*
X002971Y007477D01*
X002971Y007674D02*
X002941Y007674D01*
X002744Y007871D01*
X002744Y009411D01*
X002990Y009140D02*
X002990Y008285D01*
X003286Y007989D01*
X003483Y007989D02*
X003483Y008265D01*
X003236Y008511D01*
X003236Y009411D01*
X003483Y009140D02*
X003483Y008659D01*
X003679Y008462D01*
X003679Y007989D01*
X003876Y007989D02*
X003876Y008708D01*
X003729Y008855D01*
X003729Y009411D01*
X003975Y009140D02*
X003975Y009052D01*
X004073Y008954D01*
X004073Y007989D01*
X004270Y007989D02*
X004270Y009003D01*
X004221Y009052D01*
X004221Y009411D01*
X004467Y009140D02*
X004467Y007989D01*
X004664Y007989D02*
X004664Y009003D01*
X004713Y009052D01*
X004713Y009411D01*
X004959Y009140D02*
X004959Y009052D01*
X004861Y008954D01*
X004861Y007989D01*
X005057Y007989D02*
X005057Y008708D01*
X005205Y008855D01*
X005205Y009411D01*
X005451Y009140D02*
X005451Y008659D01*
X005254Y008462D01*
X005254Y007989D01*
X005451Y007989D02*
X005451Y008265D01*
X005697Y008511D01*
X005697Y009411D01*
X005943Y009140D02*
X005943Y008511D01*
X005648Y008216D01*
X005648Y007989D01*
X005845Y007989D02*
X006189Y008334D01*
X006189Y009411D01*
X006435Y009140D02*
X006435Y007871D01*
X006238Y007674D01*
X006160Y007674D01*
X006160Y007477D02*
X006583Y007477D01*
X006681Y007576D01*
X006681Y009411D01*
X006927Y009140D02*
X006927Y007621D01*
X006587Y007281D01*
X006160Y007281D01*
X006160Y007084D02*
X006587Y007084D01*
X007174Y007670D01*
X007174Y009411D01*
X007420Y009140D02*
X007420Y007720D01*
X006587Y006887D01*
X006160Y006887D01*
X006160Y006690D02*
X006587Y006690D01*
X007666Y007769D01*
X007666Y009411D01*
X007912Y009140D02*
X007912Y007818D01*
X006587Y006493D01*
X006160Y006493D01*
X006160Y006296D02*
X006587Y006296D01*
X008158Y007867D01*
X008158Y009411D01*
X008404Y009534D02*
X008158Y009780D01*
X008404Y009534D02*
X008404Y007916D01*
X006587Y006099D01*
X006160Y006099D01*
X006212Y005778D02*
X006212Y005778D01*
X005883Y005758D02*
X007110Y005758D01*
X007110Y005709D02*
X003223Y005709D01*
X003223Y005661D02*
X007110Y005661D01*
X007122Y005612D02*
X003209Y005612D01*
X003223Y005564D02*
X007171Y005564D01*
X007219Y005515D02*
X003223Y005515D01*
X003223Y005467D02*
X008855Y005467D01*
X008855Y005515D02*
X007391Y005515D01*
X007439Y005564D02*
X008855Y005564D01*
X008855Y005612D02*
X007488Y005612D01*
X007500Y005661D02*
X008855Y005661D01*
X008955Y005805D02*
X008955Y000480D01*
X008830Y000355D01*
X007005Y000355D01*
X006855Y000505D01*
X007019Y000617D02*
X008855Y000617D01*
X008855Y000665D02*
X006971Y000665D01*
X007050Y000568D02*
X008855Y000568D01*
X008853Y000520D02*
X007050Y000520D01*
X007050Y000471D02*
X008805Y000471D01*
X008855Y000714D02*
X000505Y000714D01*
X000505Y000762D02*
X008855Y000762D01*
X008855Y000811D02*
X000505Y000811D01*
X000505Y000859D02*
X008855Y000859D01*
X008855Y000908D02*
X003858Y000908D01*
X003836Y000885D02*
X003950Y000999D01*
X003950Y001161D01*
X003836Y001275D01*
X003674Y001275D01*
X003560Y001161D01*
X003560Y000999D01*
X003674Y000885D01*
X003836Y000885D01*
X003907Y000956D02*
X008578Y000956D01*
X008530Y001005D02*
X003950Y001005D01*
X003950Y001053D02*
X008510Y001053D01*
X008510Y001102D02*
X003950Y001102D01*
X003950Y001150D02*
X008510Y001150D01*
X008523Y001199D02*
X003912Y001199D01*
X003864Y001247D02*
X008571Y001247D01*
X008620Y001296D02*
X000505Y001296D01*
X000505Y001344D02*
X008855Y001344D01*
X008855Y001296D02*
X008790Y001296D01*
X008839Y001247D02*
X008855Y001247D01*
X008855Y001393D02*
X000505Y001393D01*
X000505Y001441D02*
X008855Y001441D01*
X008855Y001490D02*
X000505Y001490D01*
X000505Y001538D02*
X008855Y001538D01*
X008855Y001587D02*
X000505Y001587D01*
X000505Y001635D02*
X008855Y001635D01*
X008855Y001684D02*
X000505Y001684D01*
X000505Y001732D02*
X008855Y001732D01*
X008855Y001781D02*
X000505Y001781D01*
X000505Y001829D02*
X008855Y001829D01*
X008855Y001878D02*
X000505Y001878D01*
X000505Y001926D02*
X008855Y001926D01*
X008855Y001975D02*
X000505Y001975D01*
X000505Y002023D02*
X008855Y002023D01*
X008855Y002072D02*
X000505Y002072D01*
X000505Y002120D02*
X003152Y002120D01*
X003103Y002169D02*
X000505Y002169D01*
X000505Y002217D02*
X003073Y002217D01*
X003073Y002266D02*
X000505Y002266D01*
X000505Y002314D02*
X003073Y002314D01*
X003055Y002363D02*
X000505Y002363D01*
X000505Y002411D02*
X003055Y002411D01*
X003055Y002460D02*
X000505Y002460D01*
X000505Y002508D02*
X003055Y002508D01*
X003055Y002557D02*
X000505Y002557D01*
X000505Y002605D02*
X003055Y002605D01*
X003055Y002654D02*
X000505Y002654D01*
X000505Y002702D02*
X003055Y002702D01*
X003055Y002751D02*
X000505Y002751D01*
X000505Y002799D02*
X003055Y002799D01*
X003055Y002848D02*
X000505Y002848D01*
X000505Y002896D02*
X003055Y002896D01*
X003055Y002945D02*
X000505Y002945D01*
X000505Y002993D02*
X003055Y002993D01*
X003055Y003042D02*
X000505Y003042D01*
X000505Y003090D02*
X003055Y003090D01*
X003055Y003139D02*
X000505Y003139D01*
X000505Y003187D02*
X003055Y003187D01*
X003055Y003236D02*
X000505Y003236D01*
X000505Y003284D02*
X003055Y003284D01*
X003055Y003333D02*
X000505Y003333D01*
X000505Y003381D02*
X003055Y003381D01*
X003055Y003430D02*
X000505Y003430D01*
X000505Y003478D02*
X003055Y003478D01*
X003055Y003527D02*
X000505Y003527D01*
X000505Y003575D02*
X003055Y003575D01*
X003055Y003624D02*
X000505Y003624D01*
X000505Y003672D02*
X003055Y003672D01*
X003055Y003721D02*
X000505Y003721D01*
X000505Y003769D02*
X003055Y003769D01*
X003055Y003818D02*
X001918Y003818D01*
X001886Y003785D02*
X002000Y003899D01*
X002000Y004061D01*
X001886Y004175D01*
X001724Y004175D01*
X001610Y004061D01*
X001610Y003899D01*
X001724Y003785D01*
X001886Y003785D01*
X001967Y003866D02*
X003055Y003866D01*
X003055Y003915D02*
X002000Y003915D01*
X002000Y003963D02*
X003055Y003963D01*
X003070Y004012D02*
X002000Y004012D01*
X002000Y004060D02*
X003119Y004060D01*
X003167Y004109D02*
X001952Y004109D01*
X001904Y004157D02*
X003216Y004157D01*
X003264Y004206D02*
X000505Y004206D01*
X000505Y004254D02*
X003313Y004254D01*
X003305Y004246D02*
X003305Y004246D01*
X003361Y004303D02*
X000505Y004303D01*
X000505Y004351D02*
X003510Y004351D01*
X003558Y004400D02*
X000505Y004400D01*
X000505Y004448D02*
X003607Y004448D01*
X003655Y004497D02*
X002828Y004497D01*
X002855Y004545D02*
X003704Y004545D01*
X003855Y004555D02*
X003855Y004779D01*
X004055Y004782D02*
X004055Y004555D01*
X003555Y004055D01*
X003455Y004055D01*
X003305Y003905D01*
X003305Y002830D01*
X003405Y002730D01*
X003507Y002557D02*
X008855Y002557D01*
X008855Y002605D02*
X003556Y002605D01*
X003600Y002654D02*
X008855Y002654D01*
X008855Y002702D02*
X003600Y002702D01*
X003600Y002751D02*
X008855Y002751D01*
X008855Y002799D02*
X003600Y002799D01*
X003563Y002848D02*
X008855Y002848D01*
X008855Y002896D02*
X007072Y002896D01*
X007036Y002860D02*
X007150Y002974D01*
X007150Y003136D01*
X007036Y003250D01*
X006874Y003250D01*
X006760Y003136D01*
X006760Y002974D01*
X006874Y002860D01*
X007036Y002860D01*
X007120Y002945D02*
X008855Y002945D01*
X008855Y002993D02*
X007150Y002993D01*
X007150Y003042D02*
X008014Y003042D01*
X007956Y003066D02*
X008085Y003012D01*
X008225Y003012D01*
X008354Y003066D01*
X008454Y003165D01*
X008507Y003294D01*
X008507Y003434D01*
X008454Y003564D01*
X008354Y003663D01*
X008225Y003717D01*
X008085Y003717D01*
X007956Y003663D01*
X007856Y003564D01*
X007803Y003434D01*
X007803Y003294D01*
X007856Y003165D01*
X007956Y003066D01*
X007931Y003090D02*
X007150Y003090D01*
X007147Y003139D02*
X007883Y003139D01*
X007847Y003187D02*
X007099Y003187D01*
X007050Y003236D02*
X007827Y003236D01*
X007807Y003284D02*
X003405Y003284D01*
X003405Y003236D02*
X006860Y003236D01*
X006811Y003187D02*
X003405Y003187D01*
X003405Y003139D02*
X006763Y003139D01*
X006760Y003090D02*
X003405Y003090D01*
X003405Y003042D02*
X006760Y003042D01*
X006760Y002993D02*
X003405Y002993D01*
X003405Y002945D02*
X006790Y002945D01*
X006838Y002896D02*
X003515Y002896D01*
X003303Y002557D02*
X003255Y002557D01*
X003255Y002508D02*
X008855Y002508D01*
X008855Y002460D02*
X003364Y002460D01*
X003412Y002411D02*
X008855Y002411D01*
X008855Y002363D02*
X003461Y002363D01*
X003462Y002314D02*
X008855Y002314D01*
X008855Y002266D02*
X003462Y002266D01*
X003462Y002217D02*
X008855Y002217D01*
X008855Y002169D02*
X003432Y002169D01*
X003383Y002120D02*
X008855Y002120D01*
X008855Y003042D02*
X008296Y003042D01*
X008379Y003090D02*
X008855Y003090D01*
X008855Y003139D02*
X008427Y003139D01*
X008463Y003187D02*
X008855Y003187D01*
X008855Y003236D02*
X008483Y003236D01*
X008503Y003284D02*
X008855Y003284D01*
X008855Y003333D02*
X008507Y003333D01*
X008507Y003381D02*
X008855Y003381D01*
X008855Y003430D02*
X008507Y003430D01*
X008489Y003478D02*
X008855Y003478D01*
X008855Y003527D02*
X008469Y003527D01*
X008442Y003575D02*
X008855Y003575D01*
X008855Y003624D02*
X008394Y003624D01*
X008333Y003672D02*
X008855Y003672D01*
X008855Y003721D02*
X007125Y003721D01*
X007125Y003769D02*
X008855Y003769D01*
X008855Y003818D02*
X007093Y003818D01*
X007125Y003786D02*
X007011Y003900D01*
X006849Y003900D01*
X006735Y003786D01*
X006735Y003624D01*
X006849Y003510D01*
X007011Y003510D01*
X007125Y003624D01*
X007125Y003786D01*
X007045Y003866D02*
X008855Y003866D01*
X008855Y003915D02*
X004875Y003915D01*
X004923Y003963D02*
X008855Y003963D01*
X008855Y004012D02*
X004972Y004012D01*
X005020Y004060D02*
X008855Y004060D01*
X008855Y004109D02*
X005069Y004109D01*
X005117Y004157D02*
X008855Y004157D01*
X008855Y004206D02*
X008254Y004206D01*
X008225Y004193D02*
X008085Y004193D01*
X007956Y004247D01*
X007856Y004346D01*
X007803Y004476D01*
X007803Y004616D01*
X007856Y004745D01*
X007956Y004844D01*
X008085Y004898D01*
X008225Y004898D01*
X008354Y004844D01*
X008454Y004745D01*
X008507Y004616D01*
X008507Y004476D01*
X008454Y004346D01*
X008354Y004247D01*
X008225Y004193D01*
X008362Y004254D02*
X008855Y004254D01*
X008855Y004303D02*
X008410Y004303D01*
X008456Y004351D02*
X008855Y004351D01*
X008855Y004400D02*
X008476Y004400D01*
X008496Y004448D02*
X008855Y004448D01*
X008855Y004497D02*
X008507Y004497D01*
X008507Y004545D02*
X008855Y004545D01*
X008855Y004594D02*
X008507Y004594D01*
X008496Y004642D02*
X008855Y004642D01*
X008855Y004691D02*
X008476Y004691D01*
X008456Y004739D02*
X008855Y004739D01*
X008855Y004788D02*
X008411Y004788D01*
X008363Y004836D02*
X008855Y004836D01*
X008855Y004885D02*
X008257Y004885D01*
X008053Y004885D02*
X007040Y004885D01*
X007040Y004933D02*
X008855Y004933D01*
X008855Y004982D02*
X007040Y004982D01*
X007040Y005030D02*
X008855Y005030D01*
X008855Y005079D02*
X007040Y005079D01*
X007040Y005127D02*
X008855Y005127D01*
X008855Y005176D02*
X007016Y005176D01*
X006996Y005195D02*
X006880Y005195D01*
X006880Y005257D01*
X006807Y005330D01*
X006700Y005437D01*
X005760Y005437D01*
X005723Y005400D01*
X005624Y005400D01*
X005510Y005286D01*
X005510Y005124D01*
X005624Y005010D01*
X005786Y005010D01*
X005900Y005124D01*
X005900Y005187D01*
X006212Y005187D01*
X006506Y005187D01*
X006470Y005151D01*
X006470Y004739D01*
X005378Y004739D01*
X005378Y004691D02*
X007834Y004691D01*
X007854Y004739D02*
X007040Y004739D01*
X007040Y005151D01*
X006996Y005195D01*
X006880Y005224D02*
X008855Y005224D01*
X008855Y005273D02*
X006864Y005273D01*
X006816Y005321D02*
X008855Y005321D01*
X008855Y005370D02*
X006767Y005370D01*
X006719Y005418D02*
X008855Y005418D01*
X008955Y005805D02*
X008005Y005805D01*
X007705Y006105D01*
X007500Y005758D02*
X007911Y005758D01*
X007960Y005709D02*
X007500Y005709D01*
X007947Y004836D02*
X007040Y004836D01*
X007040Y004788D02*
X007899Y004788D01*
X007814Y004642D02*
X005378Y004642D01*
X005378Y004594D02*
X007803Y004594D01*
X007803Y004545D02*
X005354Y004545D01*
X005354Y004497D02*
X007803Y004497D01*
X007814Y004448D02*
X005354Y004448D01*
X005354Y004400D02*
X007834Y004400D01*
X007854Y004351D02*
X005311Y004351D01*
X005263Y004303D02*
X007900Y004303D01*
X007948Y004254D02*
X005214Y004254D01*
X005166Y004206D02*
X008056Y004206D01*
X007977Y003672D02*
X007125Y003672D01*
X007124Y003624D02*
X007916Y003624D01*
X007868Y003575D02*
X007076Y003575D01*
X007027Y003527D02*
X007841Y003527D01*
X007821Y003478D02*
X003405Y003478D01*
X003405Y003430D02*
X007803Y003430D01*
X007803Y003381D02*
X003405Y003381D01*
X003405Y003333D02*
X007803Y003333D01*
X006833Y003527D02*
X003405Y003527D01*
X003405Y003575D02*
X006784Y003575D01*
X006736Y003624D02*
X003662Y003624D01*
X003710Y003672D02*
X006735Y003672D01*
X006735Y003721D02*
X004681Y003721D01*
X004729Y003769D02*
X006735Y003769D01*
X006767Y003818D02*
X004778Y003818D01*
X004826Y003866D02*
X006815Y003866D01*
X006996Y004695D02*
X006514Y004695D01*
X006470Y004739D01*
X006470Y004788D02*
X005378Y004788D01*
X005378Y004836D02*
X006470Y004836D01*
X006470Y004885D02*
X005378Y004885D01*
X005378Y004933D02*
X006470Y004933D01*
X006470Y004982D02*
X005378Y004982D01*
X005357Y005030D02*
X005604Y005030D01*
X005556Y005079D02*
X005117Y005079D01*
X005137Y005127D02*
X005510Y005127D01*
X005510Y005176D02*
X005137Y005176D01*
X005137Y005224D02*
X005510Y005224D01*
X005510Y005273D02*
X005126Y005273D01*
X005077Y005321D02*
X005545Y005321D01*
X005594Y005370D02*
X005029Y005370D01*
X004856Y005370D02*
X004654Y005370D01*
X004702Y005321D02*
X004808Y005321D01*
X004759Y005273D02*
X004751Y005273D01*
X004568Y005180D02*
X004468Y005093D01*
X004468Y005005D01*
X004467Y004800D01*
X004668Y004779D02*
X004668Y004573D01*
X004525Y004430D01*
X004468Y004430D01*
X004567Y004205D02*
X004143Y004205D01*
X003843Y003980D02*
X004573Y003980D01*
X005070Y004477D01*
X005070Y004788D01*
X005254Y004800D02*
X005254Y004436D01*
X004599Y003780D01*
X003543Y003780D01*
X003423Y003624D02*
X003405Y003624D01*
X003155Y003955D02*
X003155Y002393D01*
X003268Y002280D01*
X003646Y001247D02*
X000505Y001247D01*
X000505Y001199D02*
X003598Y001199D01*
X003560Y001150D02*
X000505Y001150D01*
X000505Y001102D02*
X003560Y001102D01*
X003560Y001053D02*
X000505Y001053D01*
X000505Y001005D02*
X003560Y001005D01*
X003603Y000956D02*
X000505Y000956D01*
X000505Y000908D02*
X003652Y000908D01*
X003421Y000665D02*
X006739Y000665D01*
X006691Y000617D02*
X003469Y000617D01*
X003500Y000568D02*
X006660Y000568D01*
X006660Y000520D02*
X003500Y000520D01*
X003500Y000471D02*
X006660Y000471D01*
X006662Y000423D02*
X003498Y000423D01*
X003450Y000374D02*
X006710Y000374D01*
X008832Y000956D02*
X008855Y000956D01*
X006996Y004695D02*
X007040Y004739D01*
X006470Y005030D02*
X005806Y005030D01*
X005854Y005079D02*
X006470Y005079D01*
X006470Y005127D02*
X005900Y005127D01*
X005900Y005176D02*
X006494Y005176D01*
X005741Y005418D02*
X003369Y005418D01*
X003516Y005370D02*
X004094Y005370D01*
X004045Y005321D02*
X003740Y005321D01*
X003789Y005273D02*
X003997Y005273D01*
X003985Y005224D02*
X003804Y005224D01*
X003804Y005176D02*
X003985Y005176D01*
X003985Y005127D02*
X003804Y005127D01*
X003804Y005079D02*
X004006Y005079D01*
X004180Y005180D02*
X004270Y005090D01*
X004270Y004800D01*
X004363Y005273D02*
X004384Y005273D01*
X004433Y005321D02*
X004315Y005321D01*
X004266Y005370D02*
X004481Y005370D01*
X004873Y004788D02*
X004873Y004511D01*
X004567Y004205D01*
X003855Y004555D02*
X003505Y004205D01*
X003405Y004205D01*
X003155Y003955D01*
X003161Y004594D02*
X002855Y004594D01*
X002855Y004642D02*
X003161Y004642D01*
X003161Y004933D02*
X000505Y004933D01*
X000505Y004885D02*
X002433Y004885D01*
X002405Y004836D02*
X000505Y004836D01*
X000505Y004788D02*
X002405Y004788D01*
X002405Y004739D02*
X000505Y004739D01*
X000505Y004691D02*
X002405Y004691D01*
X002405Y004642D02*
X000505Y004642D01*
X000505Y004594D02*
X002405Y004594D01*
X002405Y004545D02*
X000505Y004545D01*
X000505Y004497D02*
X002432Y004497D01*
X002726Y005224D02*
X000505Y005224D01*
X000505Y005176D02*
X003210Y005176D01*
X003210Y005127D02*
X000505Y005127D01*
X000505Y005079D02*
X003256Y005079D01*
X003183Y005030D02*
X000505Y005030D01*
X000505Y004982D02*
X003161Y004982D01*
X002719Y005273D02*
X000505Y005273D01*
X000505Y005321D02*
X002719Y005321D01*
X002719Y005370D02*
X000505Y005370D01*
X000505Y005418D02*
X002729Y005418D01*
X002719Y005467D02*
X000505Y005467D01*
X000505Y005515D02*
X002719Y005515D01*
X002719Y005564D02*
X000505Y005564D01*
X000505Y005612D02*
X002521Y005612D01*
X003223Y005758D02*
X005627Y005758D01*
X005578Y005806D02*
X003405Y005806D01*
X003405Y005855D02*
X005560Y005855D01*
X005560Y005903D02*
X003405Y005903D01*
X003405Y005952D02*
X005560Y005952D01*
X005574Y006000D02*
X003405Y006000D01*
X003405Y006049D02*
X005623Y006049D01*
X005671Y006097D02*
X003405Y006097D01*
X003405Y006146D02*
X005705Y006146D01*
X005705Y006194D02*
X003405Y006194D01*
X003405Y006243D02*
X005705Y006243D01*
X005705Y006291D02*
X003405Y006291D01*
X003405Y006340D02*
X005705Y006340D01*
X005705Y006388D02*
X003405Y006388D01*
X003405Y006437D02*
X005705Y006437D01*
X005705Y006485D02*
X003405Y006485D01*
X003405Y006534D02*
X005705Y006534D01*
X005705Y006582D02*
X003405Y006582D01*
X003405Y006631D02*
X005705Y006631D01*
X005705Y006679D02*
X003405Y006679D01*
X003405Y006728D02*
X005705Y006728D01*
X005705Y006776D02*
X003405Y006776D01*
X003405Y006825D02*
X005705Y006825D01*
X005705Y006873D02*
X003405Y006873D01*
X003405Y006922D02*
X005705Y006922D01*
X005705Y006970D02*
X003405Y006970D01*
X003405Y007019D02*
X005705Y007019D01*
X005705Y007067D02*
X003405Y007067D01*
X003405Y007116D02*
X005705Y007116D01*
X005705Y007164D02*
X003405Y007164D01*
X003405Y007213D02*
X005705Y007213D01*
X005705Y007261D02*
X003405Y007261D01*
X003405Y007310D02*
X005705Y007310D01*
X005705Y007358D02*
X003405Y007358D01*
X003405Y007407D02*
X005705Y007407D01*
X005705Y007455D02*
X003405Y007455D01*
X003405Y007504D02*
X005705Y007504D01*
X005705Y007552D02*
X003405Y007552D01*
X003405Y007601D02*
X005705Y007601D01*
X001723Y005661D02*
X000505Y005661D01*
X001450Y005709D02*
X001675Y005709D01*
X001627Y005758D02*
X001499Y005758D01*
X001706Y004157D02*
X000505Y004157D01*
X000505Y004109D02*
X001658Y004109D01*
X001610Y004060D02*
X000505Y004060D01*
X000505Y004012D02*
X001610Y004012D01*
X001610Y003963D02*
X000505Y003963D01*
X000505Y003915D02*
X001610Y003915D01*
X001643Y003866D02*
X000505Y003866D01*
X000505Y003818D02*
X001692Y003818D01*
D19*
X003855Y004779D02*
X003876Y004800D01*
X004055Y004782D02*
X004073Y004800D01*
X004655Y004792D02*
X004668Y004779D01*
X004664Y004796D02*
X004664Y004800D01*
X004655Y004792D01*
X004861Y004800D02*
X004873Y004788D01*
X005057Y004800D02*
X005070Y004788D01*
X006055Y005312D02*
X006160Y005312D01*
M02*
