%
M48
M72
T01C0.0100
T02C0.0354
T03C0.0512
%
T01
X705Y605
X705Y1605
X1705Y605
X2780Y605
X3305Y505
X3755Y1080
X4455Y1380
X5455Y1380
X6355Y930
X6855Y505
X8705Y1105
X6955Y3055
X6855Y2630
X7505Y3605
X6930Y3705
X7230Y5305
X7305Y5705
X7705Y6105
X8705Y4605
X8705Y3605
X5705Y5205
X5755Y5905
X4943Y5180
X4568Y5180
X4180Y5180
X4468Y4430
X4143Y4205
X3843Y3980
X3543Y3780
X3405Y2730
X3268Y2280
X1805Y3980
X1205Y4705
X705Y5205
X705Y4205
X705Y3280
X1705Y5205
X1805Y5855
X3405Y5205
X505Y8655
X1022Y9140
X1268Y9411
X1514Y9140
X1760Y9411
X2006Y9140
X2252Y9411
X2498Y9140
X2744Y9411
X2990Y9140
X3236Y9411
X3483Y9140
X3729Y9411
X3975Y9140
X4221Y9411
X4467Y9140
X4713Y9411
X4959Y9140
X5205Y9411
X5451Y9140
X5697Y9411
X5943Y9140
X6189Y9411
X6435Y9140
X6681Y9411
X6927Y9140
X7174Y9411
X7420Y9140
X7666Y9411
X7912Y9140
X8158Y9411
X8158Y9780
X8712Y10177
X8705Y8229
X1032Y9864
X1020Y10217
X505Y10205
T02
X8155Y4546
X8155Y3364
T03
X8555Y6305
X805Y6305
M30
