%
M48
M72
T01C0.01378
T02C0.03600
T03C0.03937
T04C0.04331
T05C0.04724
T06C0.05118
T07C0.06200
T08C0.06700
T09C0.07087
T10C0.09055
T11C0.13780
T12C0.25591
%
T01
X35850Y96756
X75850Y161756
X73350Y169256
X90850Y184256
X98350Y189256
X103350Y264256
X99600Y268006
X98183Y274423
X115850Y276756
X120850Y274256
X120850Y266756
X31815Y270791
X32209Y286146
X32602Y307406
X30634Y518429
X30240Y550713
X31028Y577091
X60850Y646756
X60850Y719256
X68350Y739256
X118350Y716756
X140850Y659226
X138350Y651756
X135850Y644256
X123350Y646756
X125850Y634256
X128350Y626756
X133350Y619256
X158350Y614256
X175850Y626756
X163350Y646756
X158350Y651756
X160850Y659256
X190850Y621756
X155850Y566756
X163350Y539256
X155850Y534256
X155850Y524256
X173350Y534256
X183350Y521756
X190850Y521756
X255850Y524256
X115850Y556756
X115850Y561756
X118350Y569256
X115850Y574256
X100850Y551756
X105850Y546756
X98350Y536756
X95850Y531756
T02
X85240Y527996
X75240Y527996
X75240Y537996
X75240Y547996
X75240Y557996
X85240Y557996
X85240Y547996
X85240Y537996
X85240Y517996
X75240Y517996
X75240Y507996
X75240Y497996
X75240Y487996
X85240Y487996
X85240Y497996
X85240Y507996
X85240Y567996
X75240Y567996
X75240Y577996
X85240Y577996
X85240Y322091
X75240Y322091
X75240Y312091
X85240Y312091
X85240Y302091
X75240Y302091
X75240Y292091
X85240Y292091
X85240Y282091
X75240Y282091
X75240Y272091
X85240Y272091
X85240Y262091
X75240Y262091
X75240Y252091
X85240Y252091
X85240Y242091
X75240Y242091
X75240Y232091
X85240Y232091
T03
X48744Y90083
X48744Y70398
T04
X50713Y119610
X50713Y129610
X50713Y139610
X50713Y149610
X50713Y159610
X50713Y169610
X50713Y179610
X50713Y189610
X31028Y189610
X31028Y179610
X31028Y169610
X31028Y159610
X31028Y149610
X31028Y139610
X31028Y129610
X31028Y119610
X31028Y355831
X31028Y365831
X50713Y365831
X50713Y355831
X50713Y395201
X50713Y405201
X50713Y415201
X50713Y425201
X50713Y435201
X50713Y445201
X50713Y455201
X50713Y465201
X31028Y465201
X31028Y455201
X31028Y445201
X31028Y435201
X31028Y425201
X31028Y415201
X31028Y405201
X31028Y395201
T05
X158980Y395201
X158980Y493626
X158980Y592051
X158980Y690476
X257406Y690476
X257406Y592051
X260555Y492839
X257406Y395201
X257406Y257406
X257406Y158980
X158980Y158980
X158980Y257406
X355831Y257406
X355831Y158980
X454256Y158980
X454256Y257406
X454256Y395201
X454256Y493626
X454256Y592051
X454256Y690476
X355831Y690476
X355831Y592051
X355831Y493626
X355831Y395201
T06
X368031Y407401
X368031Y383001
X343631Y383001
X343631Y407401
X343631Y481426
X343631Y505826
X368031Y505826
X368031Y481426
X368031Y579851
X368031Y604251
X343631Y604251
X343631Y579851
X343631Y678276
X343631Y702676
X368031Y702676
X368031Y678276
X442056Y678276
X442056Y702676
X466456Y702676
X466456Y678276
X466456Y604251
X466456Y579851
X442056Y579851
X442056Y604251
X442056Y505826
X442056Y481426
X466456Y481426
X466456Y505826
X466456Y407401
X466456Y383001
X442056Y383001
X442056Y407401
X442056Y269606
X442056Y245206
X466456Y245206
X466456Y269606
X466456Y171180
X466456Y146780
X442056Y146780
X442056Y171180
X368031Y171180
X368031Y146780
X343631Y146780
X343631Y171180
X343631Y245206
X343631Y269606
X368031Y269606
X368031Y245206
X269606Y245206
X269606Y269606
X245206Y269606
X245206Y245206
X245206Y171180
X245206Y146780
X269606Y146780
X269606Y171180
X171180Y171180
X171180Y146780
X146780Y146780
X146780Y171180
X146780Y245206
X146780Y269606
X171180Y269606
X171180Y245206
X171180Y383001
X171180Y407401
X146780Y407401
X146780Y383001
X146780Y481426
X146780Y505826
X171180Y505826
X171180Y481426
X171180Y579851
X171180Y604251
X146780Y604251
X146780Y579851
X146780Y678276
X146780Y702676
X171180Y702676
X171180Y678276
X245206Y678276
X245206Y702676
X269606Y702676
X269606Y678276
X269606Y604251
X269606Y579851
X245206Y579851
X245206Y604251
X248355Y505039
X248355Y480639
X272755Y480639
X272755Y505039
X269606Y407401
X269606Y383001
X245206Y383001
X245206Y407401
T07
X198350Y454256
X198350Y552681
X198350Y651106
X296776Y651106
X296776Y552681
X296776Y454256
X296776Y355831
X395201Y355831
X395201Y454256
X395201Y552681
X395201Y651106
X493626Y651106
X493626Y552681
X493626Y454256
X493626Y355831
X493626Y218035
X493626Y119610
X395201Y119610
X395201Y218035
X296776Y218035
X296776Y119610
X198350Y119610
X198350Y218035
X198350Y355831
T08
X188350Y365831
X188350Y345831
X208350Y345831
X208350Y365831
X208350Y444256
X208350Y464256
X188350Y464256
X188350Y444256
X188350Y542681
X188350Y562681
X208350Y562681
X208350Y542681
X286776Y542681
X286776Y562681
X306776Y562681
X306776Y542681
X306776Y464256
X306776Y444256
X286776Y444256
X286776Y464256
X286776Y365831
X286776Y345831
X306776Y345831
X306776Y365831
X385201Y365831
X405201Y365831
X405201Y345831
X385201Y345831
X385201Y444256
X405201Y444256
X405201Y464256
X385201Y464256
X385201Y542681
X405201Y542681
X405201Y562681
X385201Y562681
X385201Y641106
X385201Y661106
X405201Y661106
X405201Y641106
X483626Y641106
X483626Y661106
X503626Y661106
X503626Y641106
X503626Y562681
X503626Y542681
X483626Y542681
X483626Y562681
X483626Y464256
X503626Y464256
X503626Y444256
X483626Y444256
X483626Y365831
X503626Y365831
X503626Y345831
X483626Y345831
X483626Y228035
X483626Y208035
X503626Y208035
X503626Y228035
X503626Y129610
X503626Y109610
X483626Y109610
X483626Y129610
X405201Y129610
X405201Y109610
X385201Y109610
X385201Y129610
X385201Y208035
X405201Y208035
X405201Y228035
X385201Y228035
X306776Y228035
X306776Y208035
X286776Y208035
X286776Y228035
X208350Y228035
X208350Y208035
X188350Y208035
X188350Y228035
X188350Y129610
X188350Y109610
X208350Y109610
X208350Y129610
X286776Y129610
X286776Y109610
X306776Y109610
X306776Y129610
X306776Y641106
X306776Y661106
X286776Y661106
X286776Y641106
X208350Y641106
X208350Y661106
X188350Y661106
X188350Y641106
T09
X40870Y662917
X40870Y718035
T10
X54256Y728272
X54256Y652681
T11
X40870Y40870
X80240Y198350
X158980Y198350
X158980Y40870
X336146Y40870
X336146Y198350
X336146Y434571
X336146Y631421
X336146Y769217
X158980Y769217
X158980Y631421
X80240Y611736
X80240Y454256
X80240Y355831
X158980Y434571
X40870Y769217
X532996Y769217
X532996Y631421
X532996Y434571
X532996Y198350
X532996Y40870
T12
X493626Y60555
X393626Y60555
X434571Y316461
X334571Y316461
X139295Y316461
X99925Y60555
X99925Y749531
X393626Y749531
X493626Y749531
M30
