%
M48
M72
T01C0.0060
T02C0.0320
T03C0.1000
%
T01
X2020Y2965
X740Y5385
X560Y5505
X740Y5625
X740Y5865
X560Y5745
X560Y5985
X740Y6105
X740Y6345
X560Y6225
X560Y6465
X740Y6585
X740Y6825
X560Y6705
X560Y6945
X740Y7065
X560Y7185
X540Y7985
X540Y8305
X3780Y2965
X4440Y2225
X4710Y3195
X5060Y5385
X5240Y5505
X5060Y5625
X5060Y5865
X5240Y5745
X5240Y5985
X5060Y6105
X5060Y6345
X5240Y6225
X5240Y6465
X5060Y6585
X5060Y6825
X5240Y6705
X5240Y6945
X5060Y7065
X5240Y7185
X5260Y8005
X5260Y8285
T02
X5195Y4650
X605Y4655
T03
X1225Y1780
M30
