%
M48
M72
T01C0.01181
T02C0.01378
T03C0.04000
%
T01
X133677Y132890
X137274Y132156
X141348Y136039
X169110Y123047
X171866Y119898
X174268Y118795
X176551Y120134
X178953Y118717
X181315Y119898
X184071Y119110
X188008Y124228
X169110Y114780
T02
X129738Y136031
T03
X132496Y89189
X142496Y89189
X152496Y89189
X162496Y89189
X172496Y89189
X182496Y89189
X182496Y99189
X172496Y99189
X162496Y99189
X152496Y99189
X142496Y99189
X132496Y99189
X132457Y110567
X142457Y110567
X152457Y110567
X162457Y110567
X162457Y120567
X152457Y120567
X142457Y120567
X132457Y120567
M30
