%
M48
M72
T01C0.00394
T02C0.00787
T03C0.01181
T04C0.03600
T05C0.03937
T06C0.04000
T07C0.08268
%
T01
X167528Y55678
X170678Y54693
X174418Y54693
X176780Y58827
X181465Y58985
X185244Y59339
X187331Y61229
X189496Y60953
X191307Y60402
X192725Y60520
X195638Y60796
X198081Y60696
X199181Y60008
X200756Y60205
X205087Y58355
X208552Y59418
X209536Y59969
X210678Y59654
X214536Y58985
X218512Y63827
X222779Y65315
X222804Y67213
X219154Y69045
X216304Y69444
X213355Y67174
X210244Y65270
X208709Y65205
X206150Y65284
X202718Y65488
X201937Y69181
X198512Y72044
X197392Y71396
X191701Y72056
X190914Y71150
X190402Y72056
X192252Y74563
X193690Y75344
X196032Y76937
X197764Y76775
X199142Y76426
X199181Y77725
X201701Y76662
X204260Y76426
X204575Y77410
X204457Y79063
X201229Y81741
X201229Y83420
X201741Y85008
X202252Y86097
X201741Y87067
X200756Y89536
X201150Y91504
X202922Y92213
X202725Y90126
X205087Y87567
X205087Y85599
X205087Y83630
X207056Y83630
X208197Y84615
X209024Y85520
X209221Y87042
X210993Y85493
X213197Y85402
X214930Y85520
X216111Y86977
X216898Y85520
X218591Y84103
X219851Y82095
X216925Y80796
X214930Y83630
X212961Y83630
X210685Y81215
X209418Y83630
X207056Y89536
X207036Y90736
X208630Y90717
X209024Y92292
X207056Y93473
X207056Y95441
X209024Y97410
X209024Y99378
X208394Y100874
X206583Y100874
X207056Y99378
X203709Y100789
X202292Y100874
X201189Y103315
X204063Y104260
X207056Y103315
X210284Y106005
X210599Y110796
X211150Y111662
X210205Y112331
X208867Y112370
X207804Y112331
X207843Y111386
X209339Y111071
X207843Y113355
X206465Y115717
X206544Y116937
X206662Y118079
X206583Y119260
X203827Y119615
X203827Y121307
X201741Y125100
X200481Y125678
X195481Y125599
X193000Y124260
X190520Y125481
X188000Y124260
X185363Y125599
X184300Y121859
X187213Y121189
X186840Y119594
X185441Y116741
X182134Y115559
X181670Y113653
X184063Y113119
X184851Y109772
X182528Y109457
X183827Y107252
X185619Y107193
X185243Y105640
X186780Y105874
X192961Y105914
X196150Y110993
X196741Y112370
X194969Y111937
X193158Y112567
X193827Y114142
X193827Y115953
X193906Y117764
X193433Y120126
X192252Y119851
X190284Y122134
X191189Y112410
X200233Y113158
X203670Y113709
X214142Y114930
X214733Y114076
X215717Y113092
X215835Y111950
X216741Y112383
X216504Y111123
X218473Y110796
X220441Y110533
X220638Y108237
X221229Y106859
X222607Y106662
X223788Y106859
X225166Y109024
X224772Y110533
X226859Y112009
X227725Y112961
X226544Y107383
X224969Y104063
X223000Y104103
X220756Y103315
X218867Y103315
X216898Y103333
X215323Y101150
X214930Y99378
X212976Y99385
X212725Y100553
X211111Y100835
X212961Y102764
X216898Y99378
X217685Y96229
X216977Y94103
X216898Y92292
X216111Y90914
X216898Y89930
X212961Y89536
X210993Y93473
X211071Y95874
X214930Y96032
X214930Y93473
X220835Y97410
X222622Y95259
X227489Y95284
X227370Y92134
X226071Y88473
X222567Y86032
X219930Y86622
X226701Y83355
X225796Y80638
X222804Y79831
X219851Y78552
X221229Y76419
X223840Y76504
X224930Y77370
X227528Y76544
X228552Y74378
X227528Y72213
X222352Y72213
X218670Y73591
X213985Y73158
X207910Y70374
X198709Y64693
X197685Y65363
X196386Y64575
X197213Y63552
X192095Y64536
X190824Y64397
X189142Y64142
X188315Y65323
X187016Y63945
X184969Y63630
X185008Y65126
X181898Y63748
X177056Y65244
X173158Y67213
X177134Y69851
X177922Y76544
X179890Y76544
X179890Y78512
X178985Y81898
X178315Y82892
X176741Y82843
X175284Y82830
X173512Y79103
X170244Y75756
X167764Y76504
X168036Y79874
X167410Y82961
X168906Y83000
X170481Y83000
X168709Y85166
X170638Y86465
X174142Y87370
X170941Y90796
X170678Y91977
X168552Y92567
X167607Y90953
X168158Y94536
X168591Y97370
X171071Y95441
X175586Y99378
X173591Y101268
X175993Y104496
X181898Y103670
X186780Y101956
X194455Y99183
X196071Y100678
X197646Y98197
X200559Y96229
X203906Y97213
X205087Y93473
X197961Y93709
X195796Y94457
X196032Y90520
X194451Y88741
X194098Y87572
X193119Y85835
X193867Y82843
X192095Y82685
X193827Y80914
X192685Y79890
X196032Y79300
X196977Y81111
X197016Y82370
X199181Y81662
X188945Y82889
X187567Y82922
X185796Y82843
X184615Y81268
X182922Y81347
X182252Y82843
X183827Y82961
X179890Y83000
X182174Y87016
X186307Y77252
X188230Y75277
X189339Y75796
X189733Y76937
X188046Y69686
X172009Y62023
X171662Y59811
X167528Y59811
X167528Y62764
X167967Y67111
X169181Y71347
X168473Y100323
X169662Y102630
X167882Y103512
X170126Y106307
X168867Y109221
X170284Y110796
X172213Y110796
X173473Y109654
X175441Y110914
X179181Y112410
X179378Y109260
X167922Y112764
X205520Y125638
X210441Y125835
X211898Y125284
X213670Y124890
X217095Y107265
X215756Y105848
X223579Y101335
X225678Y102154
X226898Y102095
X227449Y99733
X226347Y99575
X228158Y66701
X228158Y62370
X224918Y62843
X223827Y61850
X223985Y57449
X225402Y55284
X227764Y56071
X222174Y54772
X175599Y148867
X236465Y155166
X240402Y202410
X221977Y201622
X176819Y208748
T02
X185205Y193473
X218867Y136780
X202410Y112922
X197449Y104221
X185244Y98788
X185402Y97016
X185402Y95048
X185402Y93079
X183040Y93079
X183040Y91426
X180678Y91386
X180678Y93079
X180678Y95048
X180678Y97016
X180599Y98748
X183000Y98670
X183040Y97016
X183040Y95048
X190572Y93473
X175586Y97004
X175271Y91347
X184615Y75953
X191347Y69654
X197292Y70048
X187370Y66496
X180284Y64536
X177528Y63945
X175559Y64930
X170851Y63371
X169181Y65717
X173394Y59811
X175074Y59837
X177922Y60402
X179851Y60441
X170244Y56268
X214063Y64300
X215717Y64930
X220441Y64418
X221634Y59905
X223185Y59930
X218237Y59654
X216544Y59890
X222213Y74181
X222521Y83473
X223158Y88788
X223144Y93079
X222672Y97646
X214227Y106583
T03
X210796Y116701
X204339Y116819
X196027Y118867
X181859Y107646
X192141Y104063
X204300Y140914
T04
X179890Y167882
X179890Y177882
T05
X185205Y129300
X191701Y129300
X198197Y129300
X204103Y129300
X210599Y129300
T06
X208630Y223512
X198630Y223512
X188630Y223512
X188630Y233512
X198630Y233512
X208630Y233512
X218630Y233512
X228630Y233512
X228630Y223512
X218630Y223512
T07
X175166Y196229
X239733Y140717
X221622Y119457
X174378Y119457
M30
