G75*
%MOIN*%
%OFA0B0*%
%FSLAX24Y24*%
%IPPOS*%
%LPD*%
%AMOC8*
5,1,8,0,0,1.08239X$1,22.5*
%
%ADD10C,0.0000*%
D10*
X003650Y006650D02*
X003150Y007150D01*
X003150Y072650D01*
X003650Y073150D01*
X062650Y073150D01*
X063150Y072650D01*
X063150Y007150D01*
X062650Y006650D01*
X003650Y006650D01*
X020007Y043150D02*
X020009Y043200D01*
X020015Y043251D01*
X020025Y043300D01*
X020038Y043349D01*
X020056Y043396D01*
X020077Y043442D01*
X020102Y043486D01*
X020130Y043528D01*
X020161Y043568D01*
X020195Y043605D01*
X020232Y043639D01*
X020272Y043670D01*
X020314Y043698D01*
X020358Y043723D01*
X020404Y043744D01*
X020451Y043762D01*
X020500Y043775D01*
X020549Y043785D01*
X020600Y043791D01*
X020650Y043793D01*
X020700Y043791D01*
X020751Y043785D01*
X020800Y043775D01*
X020849Y043762D01*
X020896Y043744D01*
X020942Y043723D01*
X020986Y043698D01*
X021028Y043670D01*
X021068Y043639D01*
X021105Y043605D01*
X021139Y043568D01*
X021170Y043528D01*
X021198Y043486D01*
X021223Y043442D01*
X021244Y043396D01*
X021262Y043349D01*
X021275Y043300D01*
X021285Y043251D01*
X021291Y043200D01*
X021293Y043150D01*
X021291Y043100D01*
X021285Y043049D01*
X021275Y043000D01*
X021262Y042951D01*
X021244Y042904D01*
X021223Y042858D01*
X021198Y042814D01*
X021170Y042772D01*
X021139Y042732D01*
X021105Y042695D01*
X021068Y042661D01*
X021028Y042630D01*
X020986Y042602D01*
X020942Y042577D01*
X020896Y042556D01*
X020849Y042538D01*
X020800Y042525D01*
X020751Y042515D01*
X020700Y042509D01*
X020650Y042507D01*
X020600Y042509D01*
X020549Y042515D01*
X020500Y042525D01*
X020451Y042538D01*
X020404Y042556D01*
X020358Y042577D01*
X020314Y042602D01*
X020272Y042630D01*
X020232Y042661D01*
X020195Y042695D01*
X020161Y042732D01*
X020130Y042772D01*
X020102Y042814D01*
X020077Y042858D01*
X020056Y042904D01*
X020038Y042951D01*
X020025Y043000D01*
X020015Y043049D01*
X020009Y043100D01*
X020007Y043150D01*
X045007Y043150D02*
X045009Y043200D01*
X045015Y043251D01*
X045025Y043300D01*
X045038Y043349D01*
X045056Y043396D01*
X045077Y043442D01*
X045102Y043486D01*
X045130Y043528D01*
X045161Y043568D01*
X045195Y043605D01*
X045232Y043639D01*
X045272Y043670D01*
X045314Y043698D01*
X045358Y043723D01*
X045404Y043744D01*
X045451Y043762D01*
X045500Y043775D01*
X045549Y043785D01*
X045600Y043791D01*
X045650Y043793D01*
X045700Y043791D01*
X045751Y043785D01*
X045800Y043775D01*
X045849Y043762D01*
X045896Y043744D01*
X045942Y043723D01*
X045986Y043698D01*
X046028Y043670D01*
X046068Y043639D01*
X046105Y043605D01*
X046139Y043568D01*
X046170Y043528D01*
X046198Y043486D01*
X046223Y043442D01*
X046244Y043396D01*
X046262Y043349D01*
X046275Y043300D01*
X046285Y043251D01*
X046291Y043200D01*
X046293Y043150D01*
X046291Y043100D01*
X046285Y043049D01*
X046275Y043000D01*
X046262Y042951D01*
X046244Y042904D01*
X046223Y042858D01*
X046198Y042814D01*
X046170Y042772D01*
X046139Y042732D01*
X046105Y042695D01*
X046068Y042661D01*
X046028Y042630D01*
X045986Y042602D01*
X045942Y042577D01*
X045896Y042556D01*
X045849Y042538D01*
X045800Y042525D01*
X045751Y042515D01*
X045700Y042509D01*
X045650Y042507D01*
X045600Y042509D01*
X045549Y042515D01*
X045500Y042525D01*
X045451Y042538D01*
X045404Y042556D01*
X045358Y042577D01*
X045314Y042602D01*
X045272Y042630D01*
X045232Y042661D01*
X045195Y042695D01*
X045161Y042732D01*
X045130Y042772D01*
X045102Y042814D01*
X045077Y042858D01*
X045056Y042904D01*
X045038Y042951D01*
X045025Y043000D01*
X045015Y043049D01*
X045009Y043100D01*
X045007Y043150D01*
M02*
