G75*
%MOIN*%
%OFA0B0*%
%FSLAX25Y25*%
%IPPOS*%
%LPD*%
%AMOC8*
5,1,8,0,0,1.08239X$1,22.5*
%
%ADD10C,0.00700*%
%ADD11C,0.00900*%
%ADD12C,0.01000*%
%ADD13C,0.00500*%
D10*
X0027195Y0017720D02*
X0027247Y0017718D01*
X0027299Y0017713D01*
X0027351Y0017703D01*
X0027402Y0017690D01*
X0027451Y0017674D01*
X0027500Y0017654D01*
X0027546Y0017630D01*
X0027591Y0017604D01*
X0027634Y0017574D01*
X0027675Y0017541D01*
X0027713Y0017505D01*
X0027749Y0017467D01*
X0027782Y0017426D01*
X0027812Y0017383D01*
X0027838Y0017338D01*
X0027862Y0017291D01*
X0027882Y0017243D01*
X0027898Y0017194D01*
X0027911Y0017143D01*
X0027921Y0017091D01*
X0027926Y0017039D01*
X0027928Y0016987D01*
X0027928Y0016620D01*
X0027195Y0017720D02*
X0024628Y0017720D01*
X0025362Y0019584D02*
X0024628Y0020500D01*
X0027928Y0020500D01*
X0027928Y0019584D02*
X0027928Y0021417D01*
X0006744Y0041151D02*
X0007294Y0042160D01*
X0008668Y0041793D02*
X0008666Y0041717D01*
X0008660Y0041640D01*
X0008651Y0041565D01*
X0008638Y0041489D01*
X0008621Y0041415D01*
X0008601Y0041341D01*
X0008576Y0041268D01*
X0008549Y0041197D01*
X0008518Y0041127D01*
X0008483Y0041059D01*
X0008445Y0040993D01*
X0008404Y0040928D01*
X0008360Y0040866D01*
X0008313Y0040806D01*
X0008263Y0040748D01*
X0008210Y0040693D01*
X0007293Y0042159D02*
X0007321Y0042203D01*
X0007351Y0042244D01*
X0007385Y0042283D01*
X0007421Y0042320D01*
X0007460Y0042355D01*
X0007500Y0042386D01*
X0007543Y0042415D01*
X0007588Y0042440D01*
X0007634Y0042463D01*
X0007682Y0042482D01*
X0007731Y0042498D01*
X0007781Y0042510D01*
X0007832Y0042519D01*
X0007883Y0042524D01*
X0007935Y0042526D01*
X0007987Y0042524D01*
X0008039Y0042519D01*
X0008091Y0042509D01*
X0008142Y0042496D01*
X0008191Y0042480D01*
X0008239Y0042460D01*
X0008286Y0042436D01*
X0008331Y0042410D01*
X0008374Y0042380D01*
X0008415Y0042347D01*
X0008453Y0042311D01*
X0008489Y0042273D01*
X0008522Y0042232D01*
X0008552Y0042189D01*
X0008578Y0042144D01*
X0008602Y0042097D01*
X0008622Y0042049D01*
X0008638Y0042000D01*
X0008651Y0041949D01*
X0008661Y0041897D01*
X0008666Y0041845D01*
X0008668Y0041793D01*
X0005644Y0042343D02*
X0005601Y0042283D01*
X0005562Y0042221D01*
X0005526Y0042156D01*
X0005494Y0042090D01*
X0005465Y0042022D01*
X0005440Y0041953D01*
X0005418Y0041882D01*
X0005401Y0041811D01*
X0005387Y0041738D01*
X0005377Y0041665D01*
X0005371Y0041592D01*
X0005369Y0041518D01*
X0005371Y0041466D01*
X0005376Y0041414D01*
X0005386Y0041362D01*
X0005399Y0041311D01*
X0005415Y0041262D01*
X0005435Y0041214D01*
X0005459Y0041167D01*
X0005485Y0041122D01*
X0005515Y0041079D01*
X0005548Y0041038D01*
X0005584Y0041000D01*
X0005622Y0040964D01*
X0005663Y0040931D01*
X0005706Y0040901D01*
X0005751Y0040875D01*
X0005798Y0040851D01*
X0005846Y0040831D01*
X0005895Y0040815D01*
X0005946Y0040802D01*
X0005998Y0040792D01*
X0006050Y0040787D01*
X0006102Y0040785D01*
X0006102Y0040784D02*
X0006154Y0040786D01*
X0006205Y0040791D01*
X0006256Y0040800D01*
X0006306Y0040812D01*
X0006355Y0040828D01*
X0006403Y0040847D01*
X0006449Y0040870D01*
X0006494Y0040895D01*
X0006537Y0040924D01*
X0006577Y0040955D01*
X0006616Y0040990D01*
X0006652Y0041027D01*
X0006686Y0041066D01*
X0006716Y0041107D01*
X0006744Y0041151D01*
X0005369Y0044350D02*
X0007202Y0045450D01*
X0005369Y0046550D01*
X0008669Y0046550D01*
X0008669Y0048309D02*
X0005369Y0049409D01*
X0008669Y0050509D01*
X0007844Y0050234D02*
X0007844Y0048584D01*
X0008669Y0044350D02*
X0005369Y0044350D01*
X0091557Y0021023D02*
X0091557Y0019190D01*
X0091924Y0019190D01*
X0091557Y0021023D02*
X0094857Y0020107D01*
X0094124Y0017327D02*
X0091557Y0017327D01*
X0094124Y0017326D02*
X0094176Y0017324D01*
X0094228Y0017319D01*
X0094280Y0017309D01*
X0094331Y0017296D01*
X0094380Y0017280D01*
X0094429Y0017260D01*
X0094475Y0017236D01*
X0094520Y0017210D01*
X0094563Y0017180D01*
X0094604Y0017147D01*
X0094642Y0017111D01*
X0094678Y0017073D01*
X0094711Y0017032D01*
X0094741Y0016989D01*
X0094767Y0016944D01*
X0094791Y0016897D01*
X0094811Y0016849D01*
X0094827Y0016800D01*
X0094840Y0016749D01*
X0094850Y0016697D01*
X0094855Y0016645D01*
X0094857Y0016593D01*
X0094857Y0016227D01*
X0130959Y0042011D02*
X0132792Y0043111D01*
X0130959Y0044211D01*
X0134259Y0044211D01*
X0134259Y0046331D02*
X0130959Y0046331D01*
X0132792Y0047431D01*
X0130959Y0048531D01*
X0134259Y0048531D01*
X0133526Y0050457D02*
X0131692Y0050457D01*
X0131692Y0050458D02*
X0131640Y0050460D01*
X0131588Y0050465D01*
X0131536Y0050475D01*
X0131485Y0050488D01*
X0131436Y0050504D01*
X0131388Y0050524D01*
X0131341Y0050548D01*
X0131296Y0050574D01*
X0131253Y0050604D01*
X0131212Y0050637D01*
X0131174Y0050673D01*
X0131138Y0050711D01*
X0131105Y0050752D01*
X0131075Y0050795D01*
X0131049Y0050840D01*
X0131025Y0050886D01*
X0131005Y0050935D01*
X0130989Y0050984D01*
X0130976Y0051035D01*
X0130966Y0051087D01*
X0130961Y0051139D01*
X0130959Y0051191D01*
X0130959Y0051924D01*
X0130959Y0053291D02*
X0134259Y0055491D01*
X0134259Y0053291D02*
X0130959Y0055491D01*
X0134259Y0051924D02*
X0134259Y0051191D01*
X0134257Y0051139D01*
X0134252Y0051087D01*
X0134242Y0051035D01*
X0134229Y0050984D01*
X0134213Y0050935D01*
X0134193Y0050887D01*
X0134169Y0050840D01*
X0134143Y0050795D01*
X0134113Y0050752D01*
X0134080Y0050711D01*
X0134044Y0050673D01*
X0134006Y0050637D01*
X0133965Y0050604D01*
X0133922Y0050574D01*
X0133877Y0050548D01*
X0133831Y0050524D01*
X0133782Y0050504D01*
X0133733Y0050488D01*
X0133682Y0050475D01*
X0133630Y0050465D01*
X0133578Y0050460D01*
X0133526Y0050458D01*
X0134259Y0042011D02*
X0130959Y0042011D01*
D11*
X0122984Y0046754D02*
X0122984Y0050854D01*
X0121846Y0050854D02*
X0124123Y0050854D01*
X0120140Y0050854D02*
X0119229Y0050854D01*
X0119684Y0050854D02*
X0119684Y0046754D01*
X0119229Y0046754D02*
X0120140Y0046754D01*
X0117001Y0046754D02*
X0117001Y0050854D01*
X0115634Y0048576D01*
X0114268Y0050854D01*
X0114268Y0046754D01*
X0111457Y0048007D02*
X0111457Y0049715D01*
X0110318Y0050171D02*
X0110318Y0048007D01*
X0110320Y0047960D01*
X0110326Y0047913D01*
X0110335Y0047867D01*
X0110349Y0047822D01*
X0110366Y0047778D01*
X0110387Y0047736D01*
X0110411Y0047696D01*
X0110438Y0047658D01*
X0110468Y0047622D01*
X0110502Y0047588D01*
X0110538Y0047558D01*
X0110576Y0047531D01*
X0110616Y0047507D01*
X0110658Y0047486D01*
X0110702Y0047469D01*
X0110747Y0047455D01*
X0110793Y0047446D01*
X0110840Y0047440D01*
X0110887Y0047438D01*
X0110934Y0047440D01*
X0110981Y0047446D01*
X0111027Y0047455D01*
X0111072Y0047469D01*
X0111116Y0047486D01*
X0111158Y0047507D01*
X0111198Y0047531D01*
X0111236Y0047558D01*
X0111272Y0047588D01*
X0111306Y0047622D01*
X0111336Y0047658D01*
X0111363Y0047696D01*
X0111387Y0047736D01*
X0111408Y0047778D01*
X0111425Y0047822D01*
X0111439Y0047867D01*
X0111448Y0047913D01*
X0111454Y0047960D01*
X0111456Y0048007D01*
X0110317Y0048121D02*
X0110315Y0048070D01*
X0110309Y0048019D01*
X0110300Y0047969D01*
X0110287Y0047920D01*
X0110270Y0047871D01*
X0110249Y0047825D01*
X0110225Y0047780D01*
X0110198Y0047736D01*
X0110168Y0047695D01*
X0110135Y0047656D01*
X0110099Y0047620D01*
X0110060Y0047587D01*
X0110019Y0047557D01*
X0109976Y0047530D01*
X0109930Y0047506D01*
X0109884Y0047485D01*
X0109835Y0047468D01*
X0109786Y0047455D01*
X0109736Y0047446D01*
X0109685Y0047440D01*
X0109634Y0047438D01*
X0109583Y0047440D01*
X0109532Y0047446D01*
X0109482Y0047455D01*
X0109433Y0047468D01*
X0109384Y0047485D01*
X0109338Y0047506D01*
X0109293Y0047530D01*
X0109249Y0047557D01*
X0109208Y0047587D01*
X0109169Y0047620D01*
X0109133Y0047656D01*
X0109100Y0047695D01*
X0109070Y0047736D01*
X0109043Y0047780D01*
X0109019Y0047825D01*
X0108998Y0047871D01*
X0108981Y0047920D01*
X0108968Y0047969D01*
X0108959Y0048019D01*
X0108953Y0048070D01*
X0108951Y0048121D01*
X0108951Y0049487D01*
X0108953Y0049538D01*
X0108959Y0049589D01*
X0108968Y0049639D01*
X0108981Y0049688D01*
X0108998Y0049737D01*
X0109019Y0049783D01*
X0109043Y0049829D01*
X0109070Y0049872D01*
X0109100Y0049913D01*
X0109133Y0049952D01*
X0109169Y0049988D01*
X0109208Y0050021D01*
X0109249Y0050051D01*
X0109293Y0050078D01*
X0109338Y0050102D01*
X0109384Y0050123D01*
X0109433Y0050140D01*
X0109482Y0050153D01*
X0109532Y0050162D01*
X0109583Y0050168D01*
X0109634Y0050170D01*
X0109634Y0050171D02*
X0110318Y0050171D01*
X0111456Y0049715D02*
X0111454Y0049799D01*
X0111448Y0049883D01*
X0111439Y0049967D01*
X0111425Y0050050D01*
X0111408Y0050132D01*
X0111386Y0050214D01*
X0111362Y0050294D01*
X0111333Y0050373D01*
X0111301Y0050451D01*
X0111265Y0050527D01*
X0111226Y0050602D01*
X0111183Y0050674D01*
X0111137Y0050745D01*
X0111088Y0050813D01*
X0111036Y0050879D01*
X0110980Y0050942D01*
X0110922Y0051003D01*
X0110861Y0051061D01*
X0110798Y0051117D01*
X0110732Y0051169D01*
X0110664Y0051218D01*
X0110593Y0051264D01*
X0110521Y0051307D01*
X0110446Y0051346D01*
X0110370Y0051382D01*
X0110292Y0051414D01*
X0110213Y0051443D01*
X0110133Y0051467D01*
X0110051Y0051489D01*
X0109969Y0051506D01*
X0109886Y0051520D01*
X0109802Y0051529D01*
X0109718Y0051535D01*
X0109634Y0051537D01*
X0109550Y0051535D01*
X0109466Y0051529D01*
X0109382Y0051520D01*
X0109299Y0051506D01*
X0109217Y0051489D01*
X0109135Y0051467D01*
X0109055Y0051443D01*
X0108976Y0051414D01*
X0108898Y0051382D01*
X0108822Y0051346D01*
X0108747Y0051307D01*
X0108675Y0051264D01*
X0108604Y0051218D01*
X0108536Y0051169D01*
X0108470Y0051117D01*
X0108407Y0051061D01*
X0108346Y0051003D01*
X0108288Y0050942D01*
X0108232Y0050879D01*
X0108180Y0050813D01*
X0108131Y0050745D01*
X0108085Y0050674D01*
X0108042Y0050602D01*
X0108003Y0050527D01*
X0107967Y0050451D01*
X0107935Y0050373D01*
X0107906Y0050294D01*
X0107882Y0050214D01*
X0107860Y0050132D01*
X0107843Y0050050D01*
X0107829Y0049967D01*
X0107820Y0049883D01*
X0107814Y0049799D01*
X0107812Y0049715D01*
X0107812Y0047779D01*
X0107813Y0047779D02*
X0107815Y0047699D01*
X0107821Y0047619D01*
X0107830Y0047539D01*
X0107843Y0047459D01*
X0107860Y0047381D01*
X0107880Y0047303D01*
X0107905Y0047227D01*
X0107932Y0047151D01*
X0107963Y0047077D01*
X0107998Y0047005D01*
X0108036Y0046934D01*
X0108077Y0046865D01*
X0108122Y0046798D01*
X0108169Y0046733D01*
X0108220Y0046671D01*
X0108273Y0046611D01*
X0108330Y0046553D01*
X0108388Y0046499D01*
X0108450Y0046447D01*
X0108513Y0046398D01*
X0108579Y0046352D01*
X0108647Y0046309D01*
X0108717Y0046270D01*
X0108789Y0046233D01*
X0108862Y0046200D01*
X0108937Y0046171D01*
X0109013Y0046145D01*
X0109090Y0046123D01*
X0109169Y0046105D01*
X0109248Y0046090D01*
X0109327Y0046078D01*
X0109407Y0046071D01*
X0105532Y0046754D02*
X0103710Y0046754D01*
X0103710Y0050854D01*
X0101407Y0050854D02*
X0100496Y0046754D01*
X0099584Y0049487D01*
X0098673Y0046754D01*
X0097762Y0050854D01*
X0095401Y0050854D02*
X0095401Y0046754D01*
X0092668Y0046754D02*
X0092668Y0050854D01*
X0094034Y0048576D01*
X0095401Y0050854D01*
X0090779Y0054254D02*
X0090779Y0058354D01*
X0088502Y0058354D02*
X0090779Y0054254D01*
X0088502Y0054254D02*
X0088502Y0058354D01*
X0085038Y0058354D02*
X0083899Y0058354D01*
X0083899Y0054254D01*
X0085265Y0056076D02*
X0086177Y0054254D01*
X0085038Y0056076D02*
X0083899Y0056076D01*
X0085038Y0056076D02*
X0085104Y0056078D01*
X0085170Y0056084D01*
X0085236Y0056093D01*
X0085301Y0056107D01*
X0085365Y0056124D01*
X0085428Y0056145D01*
X0085489Y0056169D01*
X0085549Y0056197D01*
X0085608Y0056229D01*
X0085664Y0056263D01*
X0085718Y0056301D01*
X0085770Y0056342D01*
X0085820Y0056387D01*
X0085866Y0056433D01*
X0085911Y0056483D01*
X0085952Y0056535D01*
X0085990Y0056589D01*
X0086024Y0056646D01*
X0086056Y0056704D01*
X0086084Y0056764D01*
X0086108Y0056825D01*
X0086129Y0056888D01*
X0086146Y0056952D01*
X0086160Y0057017D01*
X0086169Y0057083D01*
X0086175Y0057149D01*
X0086177Y0057215D01*
X0086175Y0057281D01*
X0086169Y0057347D01*
X0086160Y0057413D01*
X0086146Y0057478D01*
X0086129Y0057542D01*
X0086108Y0057605D01*
X0086084Y0057666D01*
X0086056Y0057726D01*
X0086024Y0057785D01*
X0085990Y0057841D01*
X0085952Y0057895D01*
X0085911Y0057947D01*
X0085866Y0057997D01*
X0085820Y0058043D01*
X0085770Y0058088D01*
X0085718Y0058129D01*
X0085664Y0058167D01*
X0085607Y0058201D01*
X0085549Y0058233D01*
X0085489Y0058261D01*
X0085428Y0058285D01*
X0085365Y0058306D01*
X0085301Y0058323D01*
X0085236Y0058337D01*
X0085170Y0058346D01*
X0085104Y0058352D01*
X0085038Y0058354D01*
X0081788Y0058354D02*
X0079966Y0058354D01*
X0079966Y0054254D01*
X0081788Y0054254D01*
X0081333Y0056532D02*
X0079966Y0056532D01*
X0076942Y0058354D02*
X0076882Y0058352D01*
X0076823Y0058346D01*
X0076764Y0058336D01*
X0076706Y0058323D01*
X0076649Y0058306D01*
X0076593Y0058285D01*
X0076539Y0058260D01*
X0076486Y0058232D01*
X0076436Y0058200D01*
X0076387Y0058166D01*
X0076341Y0058128D01*
X0076298Y0058087D01*
X0076257Y0058044D01*
X0076219Y0057998D01*
X0076185Y0057949D01*
X0076153Y0057898D01*
X0076125Y0057846D01*
X0076100Y0057792D01*
X0076079Y0057736D01*
X0076062Y0057679D01*
X0076049Y0057621D01*
X0076039Y0057562D01*
X0076033Y0057503D01*
X0076031Y0057443D01*
X0076030Y0057443D02*
X0076030Y0055165D01*
X0076031Y0055165D02*
X0076033Y0055105D01*
X0076039Y0055046D01*
X0076049Y0054987D01*
X0076062Y0054929D01*
X0076079Y0054872D01*
X0076100Y0054816D01*
X0076125Y0054762D01*
X0076153Y0054710D01*
X0076185Y0054659D01*
X0076219Y0054610D01*
X0076257Y0054564D01*
X0076298Y0054521D01*
X0076341Y0054480D01*
X0076387Y0054442D01*
X0076436Y0054408D01*
X0076487Y0054376D01*
X0076539Y0054348D01*
X0076593Y0054323D01*
X0076649Y0054302D01*
X0076706Y0054285D01*
X0076764Y0054272D01*
X0076823Y0054262D01*
X0076882Y0054256D01*
X0076942Y0054254D01*
X0077853Y0054254D01*
X0076603Y0050854D02*
X0076603Y0047665D01*
X0076601Y0047605D01*
X0076595Y0047546D01*
X0076585Y0047487D01*
X0076572Y0047429D01*
X0076555Y0047372D01*
X0076534Y0047316D01*
X0076509Y0047262D01*
X0076481Y0047210D01*
X0076449Y0047159D01*
X0076415Y0047110D01*
X0076377Y0047064D01*
X0076336Y0047021D01*
X0076293Y0046980D01*
X0076247Y0046942D01*
X0076198Y0046908D01*
X0076148Y0046876D01*
X0076095Y0046848D01*
X0076041Y0046823D01*
X0075985Y0046802D01*
X0075928Y0046785D01*
X0075870Y0046772D01*
X0075811Y0046762D01*
X0075752Y0046756D01*
X0075692Y0046754D01*
X0075237Y0046754D01*
X0079204Y0046754D02*
X0079204Y0050854D01*
X0080343Y0050854D01*
X0080409Y0050852D01*
X0080475Y0050846D01*
X0080541Y0050837D01*
X0080606Y0050823D01*
X0080670Y0050806D01*
X0080733Y0050785D01*
X0080794Y0050761D01*
X0080854Y0050733D01*
X0080912Y0050701D01*
X0080969Y0050667D01*
X0081023Y0050629D01*
X0081075Y0050588D01*
X0081125Y0050543D01*
X0081171Y0050497D01*
X0081216Y0050447D01*
X0081257Y0050395D01*
X0081295Y0050341D01*
X0081329Y0050285D01*
X0081361Y0050226D01*
X0081389Y0050166D01*
X0081413Y0050105D01*
X0081434Y0050042D01*
X0081451Y0049978D01*
X0081465Y0049913D01*
X0081474Y0049847D01*
X0081480Y0049781D01*
X0081482Y0049715D01*
X0081480Y0049649D01*
X0081474Y0049583D01*
X0081465Y0049517D01*
X0081451Y0049452D01*
X0081434Y0049388D01*
X0081413Y0049325D01*
X0081389Y0049264D01*
X0081361Y0049204D01*
X0081329Y0049146D01*
X0081295Y0049089D01*
X0081257Y0049035D01*
X0081216Y0048983D01*
X0081171Y0048933D01*
X0081125Y0048887D01*
X0081075Y0048842D01*
X0081023Y0048801D01*
X0080969Y0048763D01*
X0080913Y0048729D01*
X0080854Y0048697D01*
X0080794Y0048669D01*
X0080733Y0048645D01*
X0080670Y0048624D01*
X0080606Y0048607D01*
X0080541Y0048593D01*
X0080475Y0048584D01*
X0080409Y0048578D01*
X0080343Y0048576D01*
X0079204Y0048576D01*
X0083596Y0046754D02*
X0083596Y0050854D01*
X0085873Y0046754D01*
X0085873Y0050854D01*
X0087893Y0046982D02*
X0088121Y0046982D01*
X0088121Y0046754D01*
X0087779Y0045843D01*
X0087893Y0046754D02*
X0087893Y0046982D01*
X0087893Y0046754D02*
X0088121Y0046754D01*
X0100202Y0054254D02*
X0100202Y0058354D01*
X0102479Y0058354D02*
X0102479Y0054254D01*
X0105016Y0054254D02*
X0106838Y0054254D01*
X0105016Y0054254D02*
X0105016Y0058354D01*
X0102479Y0056532D02*
X0100202Y0056532D01*
X0097829Y0057215D02*
X0097829Y0055393D01*
X0097830Y0055393D02*
X0097828Y0055327D01*
X0097822Y0055261D01*
X0097813Y0055195D01*
X0097799Y0055130D01*
X0097782Y0055066D01*
X0097761Y0055003D01*
X0097737Y0054942D01*
X0097709Y0054882D01*
X0097677Y0054824D01*
X0097643Y0054767D01*
X0097605Y0054713D01*
X0097564Y0054661D01*
X0097519Y0054611D01*
X0097473Y0054565D01*
X0097423Y0054520D01*
X0097371Y0054479D01*
X0097317Y0054441D01*
X0097261Y0054407D01*
X0097202Y0054375D01*
X0097142Y0054347D01*
X0097081Y0054323D01*
X0097018Y0054302D01*
X0096954Y0054285D01*
X0096889Y0054271D01*
X0096823Y0054262D01*
X0096757Y0054256D01*
X0096691Y0054254D01*
X0096625Y0054256D01*
X0096559Y0054262D01*
X0096493Y0054271D01*
X0096428Y0054285D01*
X0096364Y0054302D01*
X0096301Y0054323D01*
X0096240Y0054347D01*
X0096180Y0054375D01*
X0096122Y0054407D01*
X0096065Y0054441D01*
X0096011Y0054479D01*
X0095959Y0054520D01*
X0095909Y0054565D01*
X0095863Y0054611D01*
X0095818Y0054661D01*
X0095777Y0054713D01*
X0095739Y0054767D01*
X0095705Y0054824D01*
X0095673Y0054882D01*
X0095645Y0054942D01*
X0095621Y0055003D01*
X0095600Y0055066D01*
X0095583Y0055130D01*
X0095569Y0055195D01*
X0095560Y0055261D01*
X0095554Y0055327D01*
X0095552Y0055393D01*
X0095552Y0057215D01*
X0095554Y0057281D01*
X0095560Y0057347D01*
X0095569Y0057413D01*
X0095583Y0057478D01*
X0095600Y0057542D01*
X0095621Y0057605D01*
X0095645Y0057666D01*
X0095673Y0057726D01*
X0095705Y0057785D01*
X0095739Y0057841D01*
X0095777Y0057895D01*
X0095818Y0057947D01*
X0095863Y0057997D01*
X0095909Y0058043D01*
X0095959Y0058088D01*
X0096011Y0058129D01*
X0096065Y0058167D01*
X0096122Y0058201D01*
X0096180Y0058233D01*
X0096240Y0058261D01*
X0096301Y0058285D01*
X0096364Y0058306D01*
X0096428Y0058323D01*
X0096493Y0058337D01*
X0096559Y0058346D01*
X0096625Y0058352D01*
X0096691Y0058354D01*
X0096757Y0058352D01*
X0096823Y0058346D01*
X0096889Y0058337D01*
X0096954Y0058323D01*
X0097018Y0058306D01*
X0097081Y0058285D01*
X0097142Y0058261D01*
X0097202Y0058233D01*
X0097261Y0058201D01*
X0097317Y0058167D01*
X0097371Y0058129D01*
X0097423Y0058088D01*
X0097473Y0058043D01*
X0097519Y0057997D01*
X0097564Y0057947D01*
X0097605Y0057895D01*
X0097643Y0057841D01*
X0097677Y0057785D01*
X0097709Y0057726D01*
X0097737Y0057666D01*
X0097761Y0057605D01*
X0097782Y0057542D01*
X0097799Y0057478D01*
X0097813Y0057413D01*
X0097822Y0057347D01*
X0097828Y0057281D01*
X0097830Y0057215D01*
X0098942Y0061754D02*
X0099170Y0061754D01*
X0099170Y0061982D01*
X0098942Y0061982D01*
X0098942Y0061754D01*
X0096356Y0061754D02*
X0097267Y0064487D01*
X0095445Y0064487D02*
X0096356Y0061754D01*
X0093517Y0061754D02*
X0092379Y0061754D01*
X0092328Y0061756D01*
X0092277Y0061762D01*
X0092227Y0061771D01*
X0092178Y0061784D01*
X0092129Y0061801D01*
X0092083Y0061822D01*
X0092038Y0061846D01*
X0091994Y0061873D01*
X0091953Y0061903D01*
X0091914Y0061936D01*
X0091878Y0061972D01*
X0091845Y0062011D01*
X0091815Y0062052D01*
X0091788Y0062096D01*
X0091764Y0062141D01*
X0091743Y0062187D01*
X0091726Y0062236D01*
X0091713Y0062285D01*
X0091704Y0062335D01*
X0091698Y0062386D01*
X0091696Y0062437D01*
X0091695Y0062437D02*
X0091695Y0063576D01*
X0091695Y0063121D02*
X0093517Y0063121D01*
X0093517Y0063576D01*
X0093515Y0063636D01*
X0093509Y0063695D01*
X0093499Y0063754D01*
X0093486Y0063812D01*
X0093469Y0063869D01*
X0093448Y0063925D01*
X0093423Y0063979D01*
X0093395Y0064032D01*
X0093363Y0064082D01*
X0093329Y0064131D01*
X0093291Y0064177D01*
X0093250Y0064220D01*
X0093207Y0064261D01*
X0093161Y0064299D01*
X0093112Y0064333D01*
X0093062Y0064365D01*
X0093009Y0064393D01*
X0092955Y0064418D01*
X0092899Y0064439D01*
X0092842Y0064456D01*
X0092784Y0064469D01*
X0092725Y0064479D01*
X0092666Y0064485D01*
X0092606Y0064487D01*
X0092546Y0064485D01*
X0092487Y0064479D01*
X0092428Y0064469D01*
X0092370Y0064456D01*
X0092313Y0064439D01*
X0092257Y0064418D01*
X0092203Y0064393D01*
X0092151Y0064365D01*
X0092100Y0064333D01*
X0092051Y0064299D01*
X0092005Y0064261D01*
X0091962Y0064220D01*
X0091921Y0064177D01*
X0091883Y0064131D01*
X0091849Y0064082D01*
X0091817Y0064032D01*
X0091789Y0063979D01*
X0091764Y0063925D01*
X0091743Y0063869D01*
X0091726Y0063812D01*
X0091713Y0063754D01*
X0091703Y0063695D01*
X0091697Y0063636D01*
X0091695Y0063576D01*
X0089592Y0061754D02*
X0088681Y0063576D01*
X0088453Y0063576D02*
X0087315Y0063576D01*
X0088453Y0063576D02*
X0088519Y0063578D01*
X0088585Y0063584D01*
X0088651Y0063593D01*
X0088716Y0063607D01*
X0088780Y0063624D01*
X0088843Y0063645D01*
X0088904Y0063669D01*
X0088964Y0063697D01*
X0089023Y0063729D01*
X0089079Y0063763D01*
X0089133Y0063801D01*
X0089185Y0063842D01*
X0089235Y0063887D01*
X0089281Y0063933D01*
X0089326Y0063983D01*
X0089367Y0064035D01*
X0089405Y0064089D01*
X0089439Y0064146D01*
X0089471Y0064204D01*
X0089499Y0064264D01*
X0089523Y0064325D01*
X0089544Y0064388D01*
X0089561Y0064452D01*
X0089575Y0064517D01*
X0089584Y0064583D01*
X0089590Y0064649D01*
X0089592Y0064715D01*
X0089590Y0064781D01*
X0089584Y0064847D01*
X0089575Y0064913D01*
X0089561Y0064978D01*
X0089544Y0065042D01*
X0089523Y0065105D01*
X0089499Y0065166D01*
X0089471Y0065226D01*
X0089439Y0065285D01*
X0089405Y0065341D01*
X0089367Y0065395D01*
X0089326Y0065447D01*
X0089281Y0065497D01*
X0089235Y0065543D01*
X0089185Y0065588D01*
X0089133Y0065629D01*
X0089079Y0065667D01*
X0089022Y0065701D01*
X0088964Y0065733D01*
X0088904Y0065761D01*
X0088843Y0065785D01*
X0088780Y0065806D01*
X0088716Y0065823D01*
X0088651Y0065837D01*
X0088585Y0065846D01*
X0088519Y0065852D01*
X0088453Y0065854D01*
X0087315Y0065854D01*
X0087315Y0061754D01*
X0077853Y0058354D02*
X0076942Y0058354D01*
X0064939Y0059724D02*
X0064939Y0059951D01*
X0064937Y0060011D01*
X0064931Y0060070D01*
X0064921Y0060129D01*
X0064908Y0060187D01*
X0064891Y0060244D01*
X0064870Y0060300D01*
X0064845Y0060354D01*
X0064817Y0060407D01*
X0064785Y0060457D01*
X0064751Y0060506D01*
X0064713Y0060552D01*
X0064672Y0060595D01*
X0064629Y0060636D01*
X0064583Y0060674D01*
X0064534Y0060708D01*
X0064484Y0060740D01*
X0064431Y0060768D01*
X0064377Y0060793D01*
X0064321Y0060814D01*
X0064264Y0060831D01*
X0064206Y0060844D01*
X0064147Y0060854D01*
X0064088Y0060860D01*
X0064028Y0060862D01*
X0062661Y0060862D01*
X0062661Y0059724D01*
X0062663Y0059658D01*
X0062669Y0059592D01*
X0062678Y0059526D01*
X0062692Y0059461D01*
X0062709Y0059397D01*
X0062730Y0059334D01*
X0062754Y0059273D01*
X0062782Y0059213D01*
X0062814Y0059155D01*
X0062848Y0059098D01*
X0062886Y0059044D01*
X0062927Y0058992D01*
X0062972Y0058942D01*
X0063018Y0058896D01*
X0063068Y0058851D01*
X0063120Y0058810D01*
X0063174Y0058772D01*
X0063231Y0058738D01*
X0063289Y0058706D01*
X0063349Y0058678D01*
X0063410Y0058654D01*
X0063473Y0058633D01*
X0063537Y0058616D01*
X0063602Y0058602D01*
X0063668Y0058593D01*
X0063734Y0058587D01*
X0063800Y0058585D01*
X0063866Y0058587D01*
X0063932Y0058593D01*
X0063998Y0058602D01*
X0064063Y0058616D01*
X0064127Y0058633D01*
X0064190Y0058654D01*
X0064251Y0058678D01*
X0064311Y0058706D01*
X0064370Y0058738D01*
X0064426Y0058772D01*
X0064480Y0058810D01*
X0064532Y0058851D01*
X0064582Y0058896D01*
X0064628Y0058942D01*
X0064673Y0058992D01*
X0064714Y0059044D01*
X0064752Y0059098D01*
X0064786Y0059155D01*
X0064818Y0059213D01*
X0064846Y0059273D01*
X0064870Y0059334D01*
X0064891Y0059397D01*
X0064908Y0059461D01*
X0064922Y0059526D01*
X0064931Y0059592D01*
X0064937Y0059658D01*
X0064939Y0059724D01*
X0062661Y0060862D02*
X0062663Y0060946D01*
X0062669Y0061030D01*
X0062678Y0061114D01*
X0062692Y0061197D01*
X0062709Y0061279D01*
X0062731Y0061361D01*
X0062755Y0061441D01*
X0062784Y0061520D01*
X0062816Y0061598D01*
X0062852Y0061674D01*
X0062891Y0061749D01*
X0062934Y0061821D01*
X0062980Y0061892D01*
X0063029Y0061960D01*
X0063081Y0062026D01*
X0063137Y0062089D01*
X0063195Y0062150D01*
X0063256Y0062208D01*
X0063319Y0062264D01*
X0063385Y0062316D01*
X0063453Y0062365D01*
X0063524Y0062411D01*
X0063596Y0062454D01*
X0063671Y0062493D01*
X0063747Y0062529D01*
X0063825Y0062561D01*
X0063904Y0062590D01*
X0063984Y0062614D01*
X0064066Y0062636D01*
X0064148Y0062653D01*
X0064231Y0062667D01*
X0064315Y0062676D01*
X0064399Y0062682D01*
X0064483Y0062684D01*
X0060439Y0062685D02*
X0058161Y0062685D01*
X0058161Y0060862D01*
X0059528Y0060862D01*
X0059588Y0060860D01*
X0059647Y0060854D01*
X0059706Y0060844D01*
X0059764Y0060831D01*
X0059821Y0060814D01*
X0059877Y0060793D01*
X0059931Y0060768D01*
X0059984Y0060740D01*
X0060034Y0060708D01*
X0060083Y0060674D01*
X0060129Y0060636D01*
X0060172Y0060595D01*
X0060213Y0060552D01*
X0060251Y0060506D01*
X0060285Y0060457D01*
X0060317Y0060407D01*
X0060345Y0060354D01*
X0060370Y0060300D01*
X0060391Y0060244D01*
X0060408Y0060187D01*
X0060421Y0060129D01*
X0060431Y0060070D01*
X0060437Y0060011D01*
X0060439Y0059951D01*
X0060439Y0059496D01*
X0060437Y0059436D01*
X0060431Y0059377D01*
X0060421Y0059318D01*
X0060408Y0059260D01*
X0060391Y0059203D01*
X0060370Y0059147D01*
X0060345Y0059093D01*
X0060317Y0059041D01*
X0060285Y0058990D01*
X0060251Y0058941D01*
X0060213Y0058895D01*
X0060172Y0058852D01*
X0060129Y0058811D01*
X0060083Y0058773D01*
X0060034Y0058739D01*
X0059984Y0058707D01*
X0059931Y0058679D01*
X0059877Y0058654D01*
X0059821Y0058633D01*
X0059764Y0058616D01*
X0059706Y0058603D01*
X0059647Y0058593D01*
X0059588Y0058587D01*
X0059528Y0058585D01*
X0058161Y0058585D01*
X0055939Y0058585D02*
X0053661Y0058585D01*
X0055597Y0060862D01*
X0054914Y0062685D02*
X0054845Y0062683D01*
X0054776Y0062678D01*
X0054708Y0062669D01*
X0054640Y0062656D01*
X0054573Y0062640D01*
X0054507Y0062620D01*
X0054442Y0062597D01*
X0054378Y0062571D01*
X0054316Y0062541D01*
X0054255Y0062508D01*
X0054196Y0062472D01*
X0054139Y0062433D01*
X0054085Y0062391D01*
X0054032Y0062346D01*
X0053982Y0062299D01*
X0053935Y0062249D01*
X0053890Y0062196D01*
X0053848Y0062141D01*
X0053809Y0062084D01*
X0053773Y0062026D01*
X0053740Y0061965D01*
X0053710Y0061903D01*
X0053684Y0061839D01*
X0053661Y0061774D01*
X0055597Y0060863D02*
X0055642Y0060908D01*
X0055684Y0060956D01*
X0055724Y0061006D01*
X0055760Y0061058D01*
X0055793Y0061112D01*
X0055823Y0061169D01*
X0055850Y0061226D01*
X0055873Y0061286D01*
X0055893Y0061346D01*
X0055910Y0061408D01*
X0055922Y0061470D01*
X0055932Y0061533D01*
X0055937Y0061596D01*
X0055939Y0061660D01*
X0055937Y0061722D01*
X0055932Y0061784D01*
X0055922Y0061845D01*
X0055909Y0061905D01*
X0055893Y0061965D01*
X0055872Y0062023D01*
X0055849Y0062081D01*
X0055822Y0062136D01*
X0055791Y0062190D01*
X0055758Y0062242D01*
X0055721Y0062292D01*
X0055681Y0062340D01*
X0055639Y0062385D01*
X0055594Y0062427D01*
X0055546Y0062467D01*
X0055496Y0062504D01*
X0055444Y0062537D01*
X0055390Y0062568D01*
X0055335Y0062595D01*
X0055277Y0062618D01*
X0055219Y0062639D01*
X0055159Y0062655D01*
X0055099Y0062668D01*
X0055038Y0062678D01*
X0054976Y0062683D01*
X0054914Y0062685D01*
X0051367Y0060179D02*
X0048633Y0060179D01*
X0046411Y0060407D02*
X0046411Y0059951D01*
X0044589Y0059951D01*
X0044589Y0060407D02*
X0044589Y0059268D01*
X0044591Y0059217D01*
X0044597Y0059166D01*
X0044606Y0059116D01*
X0044619Y0059067D01*
X0044636Y0059018D01*
X0044657Y0058972D01*
X0044681Y0058927D01*
X0044708Y0058883D01*
X0044738Y0058842D01*
X0044771Y0058803D01*
X0044807Y0058767D01*
X0044846Y0058734D01*
X0044887Y0058704D01*
X0044931Y0058677D01*
X0044976Y0058653D01*
X0045022Y0058632D01*
X0045071Y0058615D01*
X0045120Y0058602D01*
X0045170Y0058593D01*
X0045221Y0058587D01*
X0045272Y0058585D01*
X0046411Y0058585D01*
X0046411Y0060407D02*
X0046409Y0060467D01*
X0046403Y0060526D01*
X0046393Y0060585D01*
X0046380Y0060643D01*
X0046363Y0060700D01*
X0046342Y0060756D01*
X0046317Y0060810D01*
X0046289Y0060863D01*
X0046257Y0060913D01*
X0046223Y0060962D01*
X0046185Y0061008D01*
X0046144Y0061051D01*
X0046101Y0061092D01*
X0046055Y0061130D01*
X0046006Y0061164D01*
X0045956Y0061196D01*
X0045903Y0061224D01*
X0045849Y0061249D01*
X0045793Y0061270D01*
X0045736Y0061287D01*
X0045678Y0061300D01*
X0045619Y0061310D01*
X0045560Y0061316D01*
X0045500Y0061318D01*
X0045440Y0061316D01*
X0045381Y0061310D01*
X0045322Y0061300D01*
X0045264Y0061287D01*
X0045207Y0061270D01*
X0045151Y0061249D01*
X0045097Y0061224D01*
X0045045Y0061196D01*
X0044994Y0061164D01*
X0044945Y0061130D01*
X0044899Y0061092D01*
X0044856Y0061051D01*
X0044815Y0061008D01*
X0044777Y0060962D01*
X0044743Y0060913D01*
X0044711Y0060863D01*
X0044683Y0060810D01*
X0044658Y0060756D01*
X0044637Y0060700D01*
X0044620Y0060643D01*
X0044607Y0060585D01*
X0044597Y0060526D01*
X0044591Y0060467D01*
X0044589Y0060407D01*
X0042323Y0061318D02*
X0042323Y0057901D01*
X0042321Y0057850D01*
X0042315Y0057799D01*
X0042306Y0057749D01*
X0042293Y0057700D01*
X0042276Y0057651D01*
X0042255Y0057605D01*
X0042231Y0057559D01*
X0042204Y0057516D01*
X0042174Y0057475D01*
X0042141Y0057436D01*
X0042105Y0057400D01*
X0042066Y0057367D01*
X0042025Y0057337D01*
X0041981Y0057310D01*
X0041936Y0057286D01*
X0041890Y0057265D01*
X0041841Y0057248D01*
X0041792Y0057235D01*
X0041742Y0057226D01*
X0041691Y0057220D01*
X0041640Y0057218D01*
X0040729Y0057218D01*
X0041185Y0058585D02*
X0042323Y0058585D01*
X0041185Y0058585D02*
X0041134Y0058587D01*
X0041083Y0058593D01*
X0041033Y0058602D01*
X0040984Y0058615D01*
X0040935Y0058632D01*
X0040889Y0058653D01*
X0040844Y0058677D01*
X0040800Y0058704D01*
X0040759Y0058734D01*
X0040720Y0058767D01*
X0040684Y0058803D01*
X0040651Y0058842D01*
X0040621Y0058883D01*
X0040594Y0058927D01*
X0040570Y0058972D01*
X0040549Y0059018D01*
X0040532Y0059067D01*
X0040519Y0059116D01*
X0040510Y0059166D01*
X0040504Y0059217D01*
X0040502Y0059268D01*
X0040501Y0059268D02*
X0040501Y0060635D01*
X0040502Y0060635D02*
X0040504Y0060686D01*
X0040510Y0060737D01*
X0040519Y0060787D01*
X0040532Y0060836D01*
X0040549Y0060885D01*
X0040570Y0060931D01*
X0040594Y0060977D01*
X0040621Y0061020D01*
X0040651Y0061061D01*
X0040684Y0061100D01*
X0040720Y0061136D01*
X0040759Y0061169D01*
X0040800Y0061199D01*
X0040844Y0061226D01*
X0040889Y0061250D01*
X0040935Y0061271D01*
X0040984Y0061288D01*
X0041033Y0061301D01*
X0041083Y0061310D01*
X0041134Y0061316D01*
X0041185Y0061318D01*
X0042323Y0061318D01*
X0038273Y0060635D02*
X0038273Y0058585D01*
X0037248Y0058585D01*
X0037192Y0058587D01*
X0037137Y0058593D01*
X0037082Y0058602D01*
X0037028Y0058616D01*
X0036975Y0058633D01*
X0036924Y0058654D01*
X0036874Y0058678D01*
X0036826Y0058706D01*
X0036780Y0058737D01*
X0036736Y0058771D01*
X0036694Y0058809D01*
X0036656Y0058849D01*
X0036620Y0058891D01*
X0036587Y0058936D01*
X0036558Y0058984D01*
X0036532Y0059033D01*
X0036509Y0059083D01*
X0036490Y0059136D01*
X0036475Y0059189D01*
X0036463Y0059244D01*
X0036455Y0059299D01*
X0036451Y0059354D01*
X0036451Y0059410D01*
X0036455Y0059465D01*
X0036463Y0059520D01*
X0036475Y0059575D01*
X0036490Y0059628D01*
X0036509Y0059681D01*
X0036532Y0059731D01*
X0036558Y0059781D01*
X0036587Y0059828D01*
X0036620Y0059873D01*
X0036656Y0059915D01*
X0036694Y0059955D01*
X0036736Y0059993D01*
X0036780Y0060027D01*
X0036826Y0060058D01*
X0036874Y0060086D01*
X0036924Y0060110D01*
X0036975Y0060131D01*
X0037028Y0060148D01*
X0037082Y0060162D01*
X0037137Y0060171D01*
X0037192Y0060177D01*
X0037248Y0060179D01*
X0038273Y0060179D01*
X0038273Y0060635D02*
X0038271Y0060686D01*
X0038265Y0060737D01*
X0038256Y0060787D01*
X0038243Y0060836D01*
X0038226Y0060885D01*
X0038205Y0060931D01*
X0038181Y0060977D01*
X0038154Y0061020D01*
X0038124Y0061061D01*
X0038091Y0061100D01*
X0038055Y0061136D01*
X0038016Y0061169D01*
X0037975Y0061199D01*
X0037931Y0061226D01*
X0037886Y0061250D01*
X0037840Y0061271D01*
X0037791Y0061288D01*
X0037742Y0061301D01*
X0037692Y0061310D01*
X0037641Y0061316D01*
X0037590Y0061318D01*
X0036679Y0061318D01*
X0034574Y0061318D02*
X0033208Y0061318D01*
X0030992Y0058584D02*
X0030876Y0058588D01*
X0030760Y0058595D01*
X0030644Y0058605D01*
X0030528Y0058619D01*
X0030413Y0058636D01*
X0030299Y0058657D01*
X0030185Y0058681D01*
X0030072Y0058709D01*
X0029960Y0058740D01*
X0029849Y0058774D01*
X0029739Y0058812D01*
X0030308Y0061319D02*
X0030404Y0061316D01*
X0030500Y0061309D01*
X0030596Y0061299D01*
X0030691Y0061285D01*
X0030785Y0061267D01*
X0030879Y0061247D01*
X0030972Y0061222D01*
X0031064Y0061194D01*
X0031155Y0061163D01*
X0031245Y0061129D01*
X0031333Y0061091D01*
X0030308Y0061318D02*
X0030262Y0061317D01*
X0030215Y0061312D01*
X0030169Y0061303D01*
X0030124Y0061291D01*
X0030080Y0061275D01*
X0030037Y0061256D01*
X0029996Y0061234D01*
X0029957Y0061208D01*
X0029920Y0061179D01*
X0029885Y0061148D01*
X0029853Y0061113D01*
X0029824Y0061077D01*
X0029797Y0061038D01*
X0029774Y0060997D01*
X0029755Y0060955D01*
X0029738Y0060911D01*
X0029726Y0060866D01*
X0029716Y0060820D01*
X0029711Y0060773D01*
X0029709Y0060727D01*
X0029711Y0060680D01*
X0029716Y0060633D01*
X0029726Y0060587D01*
X0029739Y0060542D01*
X0029755Y0060498D01*
X0029775Y0060456D01*
X0029798Y0060415D01*
X0029824Y0060376D01*
X0029854Y0060340D01*
X0029886Y0060306D01*
X0029920Y0060274D01*
X0029957Y0060245D01*
X0029997Y0060220D01*
X0030038Y0060197D01*
X0030081Y0060178D01*
X0030081Y0060179D02*
X0031219Y0059724D01*
X0031262Y0059705D01*
X0031303Y0059682D01*
X0031343Y0059657D01*
X0031380Y0059628D01*
X0031414Y0059596D01*
X0031446Y0059562D01*
X0031476Y0059526D01*
X0031502Y0059487D01*
X0031525Y0059446D01*
X0031545Y0059404D01*
X0031561Y0059360D01*
X0031574Y0059315D01*
X0031584Y0059269D01*
X0031589Y0059222D01*
X0031591Y0059175D01*
X0031589Y0059129D01*
X0031584Y0059082D01*
X0031574Y0059036D01*
X0031562Y0058991D01*
X0031545Y0058947D01*
X0031526Y0058905D01*
X0031503Y0058864D01*
X0031476Y0058825D01*
X0031447Y0058789D01*
X0031415Y0058754D01*
X0031380Y0058723D01*
X0031343Y0058694D01*
X0031304Y0058668D01*
X0031263Y0058646D01*
X0031220Y0058627D01*
X0031176Y0058611D01*
X0031131Y0058599D01*
X0031085Y0058590D01*
X0031038Y0058585D01*
X0030992Y0058584D01*
X0033663Y0059268D02*
X0033663Y0062685D01*
X0033663Y0059268D02*
X0033665Y0059217D01*
X0033671Y0059166D01*
X0033680Y0059116D01*
X0033693Y0059067D01*
X0033710Y0059018D01*
X0033731Y0058972D01*
X0033755Y0058927D01*
X0033782Y0058883D01*
X0033812Y0058842D01*
X0033845Y0058803D01*
X0033881Y0058767D01*
X0033920Y0058734D01*
X0033961Y0058704D01*
X0034005Y0058677D01*
X0034050Y0058653D01*
X0034096Y0058632D01*
X0034145Y0058615D01*
X0034194Y0058602D01*
X0034244Y0058593D01*
X0034295Y0058587D01*
X0034346Y0058585D01*
X0034574Y0058585D01*
X0036606Y0055185D02*
X0037973Y0051085D01*
X0039857Y0051768D02*
X0039857Y0053135D01*
X0039858Y0053135D02*
X0039860Y0053186D01*
X0039866Y0053237D01*
X0039875Y0053287D01*
X0039888Y0053336D01*
X0039905Y0053385D01*
X0039926Y0053431D01*
X0039950Y0053477D01*
X0039977Y0053520D01*
X0040007Y0053561D01*
X0040040Y0053600D01*
X0040076Y0053636D01*
X0040115Y0053669D01*
X0040156Y0053699D01*
X0040200Y0053726D01*
X0040245Y0053750D01*
X0040291Y0053771D01*
X0040340Y0053788D01*
X0040389Y0053801D01*
X0040439Y0053810D01*
X0040490Y0053816D01*
X0040541Y0053818D01*
X0041679Y0053818D01*
X0041679Y0055185D02*
X0041679Y0051085D01*
X0040541Y0051085D01*
X0040490Y0051087D01*
X0040439Y0051093D01*
X0040389Y0051102D01*
X0040340Y0051115D01*
X0040291Y0051132D01*
X0040245Y0051153D01*
X0040200Y0051177D01*
X0040156Y0051204D01*
X0040115Y0051234D01*
X0040076Y0051267D01*
X0040040Y0051303D01*
X0040007Y0051342D01*
X0039977Y0051383D01*
X0039950Y0051427D01*
X0039926Y0051472D01*
X0039905Y0051518D01*
X0039888Y0051567D01*
X0039875Y0051616D01*
X0039866Y0051666D01*
X0039860Y0051717D01*
X0039858Y0051768D01*
X0037631Y0052110D02*
X0035581Y0052110D01*
X0035239Y0051085D02*
X0036606Y0055185D01*
X0031067Y0053818D02*
X0029245Y0051085D01*
X0027130Y0051085D02*
X0027130Y0053135D01*
X0027130Y0052679D02*
X0026105Y0052679D01*
X0027129Y0053135D02*
X0027127Y0053186D01*
X0027121Y0053237D01*
X0027112Y0053287D01*
X0027099Y0053336D01*
X0027082Y0053385D01*
X0027061Y0053431D01*
X0027037Y0053477D01*
X0027010Y0053520D01*
X0026980Y0053561D01*
X0026947Y0053600D01*
X0026911Y0053636D01*
X0026872Y0053669D01*
X0026831Y0053699D01*
X0026787Y0053726D01*
X0026742Y0053750D01*
X0026696Y0053771D01*
X0026647Y0053788D01*
X0026598Y0053801D01*
X0026548Y0053810D01*
X0026497Y0053816D01*
X0026446Y0053818D01*
X0025535Y0053818D01*
X0026105Y0052679D02*
X0026049Y0052677D01*
X0025994Y0052671D01*
X0025939Y0052662D01*
X0025885Y0052648D01*
X0025832Y0052631D01*
X0025781Y0052610D01*
X0025731Y0052586D01*
X0025683Y0052558D01*
X0025637Y0052527D01*
X0025593Y0052493D01*
X0025551Y0052455D01*
X0025513Y0052415D01*
X0025477Y0052373D01*
X0025444Y0052328D01*
X0025415Y0052281D01*
X0025389Y0052231D01*
X0025366Y0052181D01*
X0025347Y0052128D01*
X0025332Y0052075D01*
X0025320Y0052020D01*
X0025312Y0051965D01*
X0025308Y0051910D01*
X0025308Y0051854D01*
X0025312Y0051799D01*
X0025320Y0051744D01*
X0025332Y0051689D01*
X0025347Y0051636D01*
X0025366Y0051583D01*
X0025389Y0051533D01*
X0025415Y0051484D01*
X0025444Y0051436D01*
X0025477Y0051391D01*
X0025513Y0051349D01*
X0025551Y0051309D01*
X0025593Y0051271D01*
X0025637Y0051237D01*
X0025683Y0051206D01*
X0025731Y0051178D01*
X0025781Y0051154D01*
X0025832Y0051133D01*
X0025885Y0051116D01*
X0025939Y0051102D01*
X0025994Y0051093D01*
X0026049Y0051087D01*
X0026105Y0051085D01*
X0027130Y0051085D01*
X0029245Y0053818D02*
X0031067Y0051085D01*
X0023267Y0051996D02*
X0023267Y0052907D01*
X0023265Y0052967D01*
X0023259Y0053026D01*
X0023249Y0053085D01*
X0023236Y0053143D01*
X0023219Y0053200D01*
X0023198Y0053256D01*
X0023173Y0053310D01*
X0023145Y0053363D01*
X0023113Y0053413D01*
X0023079Y0053462D01*
X0023041Y0053508D01*
X0023000Y0053551D01*
X0022957Y0053592D01*
X0022911Y0053630D01*
X0022862Y0053664D01*
X0022812Y0053696D01*
X0022759Y0053724D01*
X0022705Y0053749D01*
X0022649Y0053770D01*
X0022592Y0053787D01*
X0022534Y0053800D01*
X0022475Y0053810D01*
X0022416Y0053816D01*
X0022356Y0053818D01*
X0022296Y0053816D01*
X0022237Y0053810D01*
X0022178Y0053800D01*
X0022120Y0053787D01*
X0022063Y0053770D01*
X0022007Y0053749D01*
X0021953Y0053724D01*
X0021901Y0053696D01*
X0021850Y0053664D01*
X0021801Y0053630D01*
X0021755Y0053592D01*
X0021712Y0053551D01*
X0021671Y0053508D01*
X0021633Y0053462D01*
X0021599Y0053413D01*
X0021567Y0053363D01*
X0021539Y0053310D01*
X0021514Y0053256D01*
X0021493Y0053200D01*
X0021476Y0053143D01*
X0021463Y0053085D01*
X0021453Y0053026D01*
X0021447Y0052967D01*
X0021445Y0052907D01*
X0021445Y0051996D01*
X0021447Y0051936D01*
X0021453Y0051877D01*
X0021463Y0051818D01*
X0021476Y0051760D01*
X0021493Y0051703D01*
X0021514Y0051647D01*
X0021539Y0051593D01*
X0021567Y0051541D01*
X0021599Y0051490D01*
X0021633Y0051441D01*
X0021671Y0051395D01*
X0021712Y0051352D01*
X0021755Y0051311D01*
X0021801Y0051273D01*
X0021850Y0051239D01*
X0021901Y0051207D01*
X0021953Y0051179D01*
X0022007Y0051154D01*
X0022063Y0051133D01*
X0022120Y0051116D01*
X0022178Y0051103D01*
X0022237Y0051093D01*
X0022296Y0051087D01*
X0022356Y0051085D01*
X0022416Y0051087D01*
X0022475Y0051093D01*
X0022534Y0051103D01*
X0022592Y0051116D01*
X0022649Y0051133D01*
X0022705Y0051154D01*
X0022759Y0051179D01*
X0022812Y0051207D01*
X0022862Y0051239D01*
X0022911Y0051273D01*
X0022957Y0051311D01*
X0023000Y0051352D01*
X0023041Y0051395D01*
X0023079Y0051441D01*
X0023113Y0051490D01*
X0023145Y0051541D01*
X0023173Y0051593D01*
X0023198Y0051647D01*
X0023219Y0051703D01*
X0023236Y0051760D01*
X0023249Y0051818D01*
X0023259Y0051877D01*
X0023265Y0051936D01*
X0023267Y0051996D01*
X0019568Y0051085D02*
X0018657Y0051085D01*
X0018597Y0051087D01*
X0018538Y0051093D01*
X0018479Y0051103D01*
X0018421Y0051116D01*
X0018364Y0051133D01*
X0018308Y0051154D01*
X0018254Y0051179D01*
X0018202Y0051207D01*
X0018151Y0051239D01*
X0018102Y0051273D01*
X0018056Y0051311D01*
X0018013Y0051352D01*
X0017972Y0051395D01*
X0017934Y0051441D01*
X0017900Y0051490D01*
X0017868Y0051541D01*
X0017840Y0051593D01*
X0017815Y0051647D01*
X0017794Y0051703D01*
X0017777Y0051760D01*
X0017764Y0051818D01*
X0017754Y0051877D01*
X0017748Y0051936D01*
X0017746Y0051996D01*
X0017746Y0054274D01*
X0017748Y0054334D01*
X0017754Y0054393D01*
X0017764Y0054452D01*
X0017777Y0054510D01*
X0017794Y0054567D01*
X0017815Y0054623D01*
X0017840Y0054677D01*
X0017868Y0054729D01*
X0017900Y0054780D01*
X0017934Y0054829D01*
X0017972Y0054875D01*
X0018013Y0054918D01*
X0018056Y0054959D01*
X0018102Y0054997D01*
X0018151Y0055031D01*
X0018201Y0055063D01*
X0018254Y0055091D01*
X0018308Y0055116D01*
X0018364Y0055137D01*
X0018421Y0055154D01*
X0018479Y0055167D01*
X0018538Y0055177D01*
X0018597Y0055183D01*
X0018657Y0055185D01*
X0019568Y0055185D01*
X0019561Y0058585D02*
X0018422Y0058585D01*
X0018371Y0058587D01*
X0018320Y0058593D01*
X0018270Y0058602D01*
X0018221Y0058615D01*
X0018172Y0058632D01*
X0018126Y0058653D01*
X0018081Y0058677D01*
X0018037Y0058704D01*
X0017996Y0058734D01*
X0017957Y0058767D01*
X0017921Y0058803D01*
X0017888Y0058842D01*
X0017858Y0058883D01*
X0017831Y0058927D01*
X0017807Y0058972D01*
X0017786Y0059018D01*
X0017769Y0059067D01*
X0017756Y0059116D01*
X0017747Y0059166D01*
X0017741Y0059217D01*
X0017739Y0059268D01*
X0017739Y0060407D01*
X0017739Y0059951D02*
X0019561Y0059951D01*
X0019561Y0060407D01*
X0019559Y0060467D01*
X0019553Y0060526D01*
X0019543Y0060585D01*
X0019530Y0060643D01*
X0019513Y0060700D01*
X0019492Y0060756D01*
X0019467Y0060810D01*
X0019439Y0060863D01*
X0019407Y0060913D01*
X0019373Y0060962D01*
X0019335Y0061008D01*
X0019294Y0061051D01*
X0019251Y0061092D01*
X0019205Y0061130D01*
X0019156Y0061164D01*
X0019106Y0061196D01*
X0019053Y0061224D01*
X0018999Y0061249D01*
X0018943Y0061270D01*
X0018886Y0061287D01*
X0018828Y0061300D01*
X0018769Y0061310D01*
X0018710Y0061316D01*
X0018650Y0061318D01*
X0018590Y0061316D01*
X0018531Y0061310D01*
X0018472Y0061300D01*
X0018414Y0061287D01*
X0018357Y0061270D01*
X0018301Y0061249D01*
X0018247Y0061224D01*
X0018195Y0061196D01*
X0018144Y0061164D01*
X0018095Y0061130D01*
X0018049Y0061092D01*
X0018006Y0061051D01*
X0017965Y0061008D01*
X0017927Y0060962D01*
X0017893Y0060913D01*
X0017861Y0060863D01*
X0017833Y0060810D01*
X0017808Y0060756D01*
X0017787Y0060700D01*
X0017770Y0060643D01*
X0017757Y0060585D01*
X0017747Y0060526D01*
X0017741Y0060467D01*
X0017739Y0060407D01*
X0015439Y0060862D02*
X0013161Y0060862D01*
X0013161Y0062685D02*
X0013161Y0058585D01*
X0015439Y0058585D02*
X0015439Y0062685D01*
X0021829Y0061318D02*
X0022740Y0061318D01*
X0022791Y0061316D01*
X0022842Y0061310D01*
X0022892Y0061301D01*
X0022941Y0061288D01*
X0022990Y0061271D01*
X0023036Y0061250D01*
X0023081Y0061226D01*
X0023125Y0061199D01*
X0023166Y0061169D01*
X0023205Y0061136D01*
X0023241Y0061100D01*
X0023274Y0061061D01*
X0023304Y0061020D01*
X0023331Y0060977D01*
X0023355Y0060931D01*
X0023376Y0060885D01*
X0023393Y0060836D01*
X0023406Y0060787D01*
X0023415Y0060737D01*
X0023421Y0060686D01*
X0023423Y0060635D01*
X0023423Y0058585D01*
X0022398Y0058585D01*
X0022342Y0058587D01*
X0022287Y0058593D01*
X0022232Y0058602D01*
X0022178Y0058616D01*
X0022125Y0058633D01*
X0022074Y0058654D01*
X0022024Y0058678D01*
X0021976Y0058706D01*
X0021930Y0058737D01*
X0021886Y0058771D01*
X0021844Y0058809D01*
X0021806Y0058849D01*
X0021770Y0058891D01*
X0021737Y0058936D01*
X0021708Y0058984D01*
X0021682Y0059033D01*
X0021659Y0059083D01*
X0021640Y0059136D01*
X0021625Y0059189D01*
X0021613Y0059244D01*
X0021605Y0059299D01*
X0021601Y0059354D01*
X0021601Y0059410D01*
X0021605Y0059465D01*
X0021613Y0059520D01*
X0021625Y0059575D01*
X0021640Y0059628D01*
X0021659Y0059681D01*
X0021682Y0059731D01*
X0021708Y0059781D01*
X0021737Y0059828D01*
X0021770Y0059873D01*
X0021806Y0059915D01*
X0021844Y0059955D01*
X0021886Y0059993D01*
X0021930Y0060027D01*
X0021976Y0060058D01*
X0022024Y0060086D01*
X0022074Y0060110D01*
X0022125Y0060131D01*
X0022178Y0060148D01*
X0022232Y0060162D01*
X0022287Y0060171D01*
X0022342Y0060177D01*
X0022398Y0060179D01*
X0023423Y0060179D01*
X0025651Y0060635D02*
X0025651Y0059268D01*
X0025652Y0059268D02*
X0025654Y0059217D01*
X0025660Y0059166D01*
X0025669Y0059116D01*
X0025682Y0059067D01*
X0025699Y0059018D01*
X0025720Y0058972D01*
X0025744Y0058927D01*
X0025771Y0058883D01*
X0025801Y0058842D01*
X0025834Y0058803D01*
X0025870Y0058767D01*
X0025909Y0058734D01*
X0025950Y0058704D01*
X0025994Y0058677D01*
X0026039Y0058653D01*
X0026085Y0058632D01*
X0026134Y0058615D01*
X0026183Y0058602D01*
X0026233Y0058593D01*
X0026284Y0058587D01*
X0026335Y0058585D01*
X0027473Y0058585D01*
X0027473Y0062685D01*
X0027473Y0061318D02*
X0026335Y0061318D01*
X0026284Y0061316D01*
X0026233Y0061310D01*
X0026183Y0061301D01*
X0026134Y0061288D01*
X0026085Y0061271D01*
X0026039Y0061250D01*
X0025994Y0061226D01*
X0025950Y0061199D01*
X0025909Y0061169D01*
X0025870Y0061136D01*
X0025834Y0061100D01*
X0025801Y0061061D01*
X0025771Y0061020D01*
X0025744Y0060977D01*
X0025720Y0060931D01*
X0025699Y0060885D01*
X0025682Y0060836D01*
X0025669Y0060787D01*
X0025660Y0060737D01*
X0025654Y0060686D01*
X0025652Y0060635D01*
X0044135Y0053818D02*
X0045046Y0053818D01*
X0045097Y0053816D01*
X0045148Y0053810D01*
X0045198Y0053801D01*
X0045247Y0053788D01*
X0045296Y0053771D01*
X0045342Y0053750D01*
X0045387Y0053726D01*
X0045431Y0053699D01*
X0045472Y0053669D01*
X0045511Y0053636D01*
X0045547Y0053600D01*
X0045580Y0053561D01*
X0045610Y0053520D01*
X0045637Y0053477D01*
X0045661Y0053431D01*
X0045682Y0053385D01*
X0045699Y0053336D01*
X0045712Y0053287D01*
X0045721Y0053237D01*
X0045727Y0053186D01*
X0045729Y0053135D01*
X0045729Y0051085D01*
X0044704Y0051085D01*
X0044648Y0051087D01*
X0044593Y0051093D01*
X0044538Y0051102D01*
X0044484Y0051116D01*
X0044431Y0051133D01*
X0044380Y0051154D01*
X0044330Y0051178D01*
X0044282Y0051206D01*
X0044236Y0051237D01*
X0044192Y0051271D01*
X0044150Y0051309D01*
X0044112Y0051349D01*
X0044076Y0051391D01*
X0044043Y0051436D01*
X0044014Y0051484D01*
X0043988Y0051533D01*
X0043965Y0051583D01*
X0043946Y0051636D01*
X0043931Y0051689D01*
X0043919Y0051744D01*
X0043911Y0051799D01*
X0043907Y0051854D01*
X0043907Y0051910D01*
X0043911Y0051965D01*
X0043919Y0052020D01*
X0043931Y0052075D01*
X0043946Y0052128D01*
X0043965Y0052181D01*
X0043988Y0052231D01*
X0044014Y0052281D01*
X0044043Y0052328D01*
X0044076Y0052373D01*
X0044112Y0052415D01*
X0044150Y0052455D01*
X0044192Y0052493D01*
X0044236Y0052527D01*
X0044282Y0052558D01*
X0044330Y0052586D01*
X0044380Y0052610D01*
X0044431Y0052631D01*
X0044484Y0052648D01*
X0044538Y0052662D01*
X0044593Y0052671D01*
X0044648Y0052677D01*
X0044704Y0052679D01*
X0045729Y0052679D01*
X0048183Y0053818D02*
X0049321Y0053818D01*
X0049372Y0053816D01*
X0049423Y0053810D01*
X0049473Y0053801D01*
X0049522Y0053788D01*
X0049571Y0053771D01*
X0049617Y0053750D01*
X0049662Y0053726D01*
X0049706Y0053699D01*
X0049747Y0053669D01*
X0049786Y0053636D01*
X0049822Y0053600D01*
X0049855Y0053561D01*
X0049885Y0053520D01*
X0049912Y0053477D01*
X0049936Y0053431D01*
X0049957Y0053385D01*
X0049974Y0053336D01*
X0049987Y0053287D01*
X0049996Y0053237D01*
X0050002Y0053186D01*
X0050004Y0053135D01*
X0050005Y0053135D02*
X0050005Y0051768D01*
X0050004Y0051768D02*
X0050002Y0051717D01*
X0049996Y0051666D01*
X0049987Y0051616D01*
X0049974Y0051567D01*
X0049957Y0051518D01*
X0049936Y0051472D01*
X0049912Y0051426D01*
X0049885Y0051383D01*
X0049855Y0051342D01*
X0049822Y0051303D01*
X0049786Y0051267D01*
X0049747Y0051234D01*
X0049706Y0051204D01*
X0049662Y0051177D01*
X0049617Y0051153D01*
X0049571Y0051132D01*
X0049522Y0051115D01*
X0049473Y0051102D01*
X0049423Y0051093D01*
X0049372Y0051087D01*
X0049321Y0051085D01*
X0048183Y0051085D01*
X0048183Y0049718D02*
X0048183Y0053818D01*
X0051614Y0053818D02*
X0052980Y0053818D01*
X0052069Y0055185D02*
X0052069Y0051768D01*
X0052071Y0051717D01*
X0052077Y0051666D01*
X0052086Y0051616D01*
X0052099Y0051567D01*
X0052116Y0051518D01*
X0052137Y0051472D01*
X0052161Y0051427D01*
X0052188Y0051383D01*
X0052218Y0051342D01*
X0052251Y0051303D01*
X0052287Y0051267D01*
X0052326Y0051234D01*
X0052367Y0051204D01*
X0052411Y0051177D01*
X0052456Y0051153D01*
X0052502Y0051132D01*
X0052551Y0051115D01*
X0052600Y0051102D01*
X0052650Y0051093D01*
X0052701Y0051087D01*
X0052752Y0051085D01*
X0052980Y0051085D01*
X0054895Y0051768D02*
X0054895Y0052907D01*
X0054895Y0052451D02*
X0056717Y0052451D01*
X0056717Y0052907D01*
X0056715Y0052967D01*
X0056709Y0053026D01*
X0056699Y0053085D01*
X0056686Y0053143D01*
X0056669Y0053200D01*
X0056648Y0053256D01*
X0056623Y0053310D01*
X0056595Y0053363D01*
X0056563Y0053413D01*
X0056529Y0053462D01*
X0056491Y0053508D01*
X0056450Y0053551D01*
X0056407Y0053592D01*
X0056361Y0053630D01*
X0056312Y0053664D01*
X0056262Y0053696D01*
X0056209Y0053724D01*
X0056155Y0053749D01*
X0056099Y0053770D01*
X0056042Y0053787D01*
X0055984Y0053800D01*
X0055925Y0053810D01*
X0055866Y0053816D01*
X0055806Y0053818D01*
X0055746Y0053816D01*
X0055687Y0053810D01*
X0055628Y0053800D01*
X0055570Y0053787D01*
X0055513Y0053770D01*
X0055457Y0053749D01*
X0055403Y0053724D01*
X0055351Y0053696D01*
X0055300Y0053664D01*
X0055251Y0053630D01*
X0055205Y0053592D01*
X0055162Y0053551D01*
X0055121Y0053508D01*
X0055083Y0053462D01*
X0055049Y0053413D01*
X0055017Y0053363D01*
X0054989Y0053310D01*
X0054964Y0053256D01*
X0054943Y0053200D01*
X0054926Y0053143D01*
X0054913Y0053085D01*
X0054903Y0053026D01*
X0054897Y0052967D01*
X0054895Y0052907D01*
X0054895Y0051768D02*
X0054897Y0051717D01*
X0054903Y0051666D01*
X0054912Y0051616D01*
X0054925Y0051567D01*
X0054942Y0051518D01*
X0054963Y0051472D01*
X0054987Y0051427D01*
X0055014Y0051383D01*
X0055044Y0051342D01*
X0055077Y0051303D01*
X0055113Y0051267D01*
X0055152Y0051234D01*
X0055193Y0051204D01*
X0055237Y0051177D01*
X0055282Y0051153D01*
X0055328Y0051132D01*
X0055377Y0051115D01*
X0055426Y0051102D01*
X0055476Y0051093D01*
X0055527Y0051087D01*
X0055578Y0051085D01*
X0056717Y0051085D01*
X0058987Y0051085D02*
X0058987Y0053818D01*
X0060354Y0053818D01*
X0060354Y0053362D01*
X0103467Y0061754D02*
X0105745Y0061754D01*
X0104606Y0061754D02*
X0104606Y0065854D01*
X0103467Y0064943D01*
X0111703Y0062323D02*
X0111750Y0062423D01*
X0111793Y0062523D01*
X0111833Y0062625D01*
X0111869Y0062728D01*
X0111902Y0062833D01*
X0111932Y0062938D01*
X0111958Y0063044D01*
X0111981Y0063151D01*
X0112001Y0063259D01*
X0112017Y0063367D01*
X0112029Y0063476D01*
X0112038Y0063585D01*
X0112043Y0063695D01*
X0112045Y0063804D01*
X0109767Y0063804D02*
X0109769Y0063913D01*
X0109774Y0064023D01*
X0109783Y0064132D01*
X0109795Y0064241D01*
X0109811Y0064349D01*
X0109831Y0064457D01*
X0109854Y0064564D01*
X0109880Y0064670D01*
X0109910Y0064775D01*
X0109943Y0064880D01*
X0109979Y0064983D01*
X0110019Y0065085D01*
X0110062Y0065186D01*
X0110109Y0065285D01*
X0110109Y0065284D02*
X0110128Y0065336D01*
X0110151Y0065386D01*
X0110177Y0065434D01*
X0110206Y0065481D01*
X0110238Y0065526D01*
X0110273Y0065568D01*
X0110311Y0065608D01*
X0110351Y0065646D01*
X0110394Y0065681D01*
X0110439Y0065713D01*
X0110485Y0065742D01*
X0110534Y0065767D01*
X0110584Y0065790D01*
X0110636Y0065809D01*
X0110688Y0065825D01*
X0110742Y0065838D01*
X0110796Y0065847D01*
X0110851Y0065852D01*
X0110906Y0065854D01*
X0110961Y0065852D01*
X0111016Y0065847D01*
X0111070Y0065838D01*
X0111124Y0065825D01*
X0111176Y0065809D01*
X0111228Y0065790D01*
X0111278Y0065767D01*
X0111327Y0065742D01*
X0111373Y0065713D01*
X0111418Y0065681D01*
X0111461Y0065646D01*
X0111501Y0065608D01*
X0111539Y0065568D01*
X0111574Y0065526D01*
X0111606Y0065481D01*
X0111635Y0065434D01*
X0111661Y0065386D01*
X0111684Y0065336D01*
X0111703Y0065284D01*
X0111817Y0064943D02*
X0109995Y0062665D01*
X0110906Y0061754D02*
X0110961Y0061756D01*
X0111016Y0061761D01*
X0111070Y0061770D01*
X0111124Y0061783D01*
X0111176Y0061799D01*
X0111228Y0061818D01*
X0111278Y0061841D01*
X0111327Y0061866D01*
X0111373Y0061895D01*
X0111418Y0061927D01*
X0111461Y0061962D01*
X0111501Y0062000D01*
X0111539Y0062040D01*
X0111574Y0062082D01*
X0111606Y0062127D01*
X0111635Y0062174D01*
X0111661Y0062222D01*
X0111684Y0062272D01*
X0111703Y0062324D01*
X0110906Y0061754D02*
X0110851Y0061756D01*
X0110796Y0061761D01*
X0110742Y0061770D01*
X0110688Y0061783D01*
X0110636Y0061799D01*
X0110584Y0061818D01*
X0110534Y0061841D01*
X0110485Y0061866D01*
X0110439Y0061895D01*
X0110394Y0061927D01*
X0110351Y0061962D01*
X0110311Y0062000D01*
X0110273Y0062040D01*
X0110238Y0062082D01*
X0110206Y0062127D01*
X0110177Y0062174D01*
X0110151Y0062222D01*
X0110128Y0062272D01*
X0110109Y0062324D01*
X0107870Y0061982D02*
X0107870Y0061754D01*
X0107642Y0061754D01*
X0107642Y0061982D01*
X0107870Y0061982D01*
X0112046Y0063804D02*
X0112044Y0063913D01*
X0112039Y0064023D01*
X0112030Y0064132D01*
X0112018Y0064241D01*
X0112002Y0064349D01*
X0111982Y0064457D01*
X0111959Y0064564D01*
X0111933Y0064670D01*
X0111903Y0064775D01*
X0111870Y0064880D01*
X0111834Y0064983D01*
X0111794Y0065085D01*
X0111751Y0065186D01*
X0111704Y0065285D01*
X0109767Y0063804D02*
X0109769Y0063695D01*
X0109774Y0063585D01*
X0109783Y0063476D01*
X0109795Y0063367D01*
X0109811Y0063259D01*
X0109831Y0063151D01*
X0109854Y0063044D01*
X0109880Y0062938D01*
X0109910Y0062833D01*
X0109943Y0062728D01*
X0109979Y0062625D01*
X0110019Y0062523D01*
X0110062Y0062423D01*
X0110109Y0062323D01*
X0114752Y0057443D02*
X0115891Y0058354D01*
X0115891Y0054254D01*
X0117029Y0054254D02*
X0114752Y0054254D01*
X0111841Y0054254D02*
X0112752Y0056987D01*
X0110929Y0056987D02*
X0111841Y0054254D01*
X0118927Y0054254D02*
X0119154Y0054254D01*
X0119154Y0054482D01*
X0118927Y0054482D01*
X0118927Y0054254D01*
X0121052Y0054254D02*
X0123329Y0054254D01*
X0121052Y0054254D02*
X0122988Y0056532D01*
X0122304Y0058354D02*
X0122235Y0058352D01*
X0122166Y0058347D01*
X0122098Y0058338D01*
X0122030Y0058325D01*
X0121963Y0058309D01*
X0121897Y0058289D01*
X0121832Y0058266D01*
X0121768Y0058240D01*
X0121706Y0058210D01*
X0121645Y0058177D01*
X0121586Y0058141D01*
X0121529Y0058102D01*
X0121475Y0058060D01*
X0121422Y0058015D01*
X0121372Y0057968D01*
X0121325Y0057918D01*
X0121280Y0057865D01*
X0121238Y0057810D01*
X0121199Y0057753D01*
X0121163Y0057695D01*
X0121130Y0057634D01*
X0121100Y0057572D01*
X0121074Y0057508D01*
X0121051Y0057443D01*
X0122987Y0056532D02*
X0123032Y0056577D01*
X0123074Y0056625D01*
X0123114Y0056675D01*
X0123150Y0056727D01*
X0123183Y0056781D01*
X0123213Y0056838D01*
X0123240Y0056895D01*
X0123263Y0056955D01*
X0123283Y0057015D01*
X0123300Y0057077D01*
X0123312Y0057139D01*
X0123322Y0057202D01*
X0123327Y0057265D01*
X0123329Y0057329D01*
X0123327Y0057391D01*
X0123322Y0057453D01*
X0123312Y0057514D01*
X0123299Y0057574D01*
X0123283Y0057634D01*
X0123262Y0057692D01*
X0123239Y0057750D01*
X0123212Y0057805D01*
X0123181Y0057859D01*
X0123148Y0057911D01*
X0123111Y0057961D01*
X0123071Y0058009D01*
X0123029Y0058054D01*
X0122984Y0058096D01*
X0122936Y0058136D01*
X0122886Y0058173D01*
X0122834Y0058206D01*
X0122780Y0058237D01*
X0122725Y0058264D01*
X0122667Y0058287D01*
X0122609Y0058308D01*
X0122549Y0058324D01*
X0122489Y0058337D01*
X0122428Y0058347D01*
X0122366Y0058352D01*
X0122304Y0058354D01*
D12*
X0127436Y0067908D02*
X0127436Y0043499D01*
X0071924Y0043499D01*
X0071924Y0067908D01*
X0127436Y0067908D01*
X0068184Y0067908D02*
X0068184Y0047042D01*
X0010310Y0047042D01*
X0010310Y0067908D01*
X0068184Y0067908D01*
D13*
X0050129Y0003081D02*
X0018633Y0003081D01*
X0018633Y0034578D01*
X0050129Y0034578D01*
X0050129Y0003081D01*
M02*
