%
M48
M72
T01C0.0100
T02C0.0197
T03C0.0276
T04C0.0354
%
T01
X2094Y1208
X4308Y1208
X5243Y2782
X5243Y3865
X5243Y4653
X5243Y5440
X5243Y6227
X5243Y7015
X5243Y7802
X5243Y8590
X5243Y9377
X4662Y10668
X5696Y16237
X5243Y18038
X4790Y19840
X5843Y25432
X5243Y26700
X5243Y27487
X5243Y28275
X5243Y29062
X5243Y29849
X5243Y30637
X5243Y31424
X5243Y32212
X5243Y33294
X4554Y34869
X6178Y34869
X8393Y34869
X8097Y20105
X8738Y17134
X8097Y15971
X8393Y1208
X5932Y1208
X2389Y15971
X2438Y16740
X1796Y17138
X1796Y17538
X1795Y17940
X1796Y18338
X1796Y18738
X1546Y18538
X1546Y18138
X1546Y17738
X1546Y17338
X1546Y18938
X2389Y20105
X2143Y34869
T02
X3049Y19538
X3649Y19538
X4249Y19538
X4249Y18938
X4249Y18338
X4249Y17738
X4249Y17138
X4249Y16538
X3649Y16538
X3049Y16538
X5243Y16738
X5243Y19338
X6237Y19538
X6237Y18938
X6237Y18338
X6237Y17738
X6237Y17138
X6237Y16538
X6837Y16538
X7437Y16538
X7437Y19538
X6837Y19538
T03
X5243Y18726
X5243Y17351
T04
X1109Y16660
X1109Y19416
X9377Y19416
X9377Y16660
M30
