G75*
%MOIN*%
%OFA0B0*%
%FSLAX24Y24*%
%IPPOS*%
%LPD*%
%AMOC8*
5,1,8,0,0,1.08239X$1,22.5*
%
%ADD10C,0.0000*%
D10*
X000322Y000716D02*
X000322Y001700D01*
X000324Y001739D01*
X000330Y001777D01*
X000339Y001814D01*
X000352Y001851D01*
X000369Y001886D01*
X000388Y001919D01*
X000411Y001950D01*
X000437Y001979D01*
X000466Y002005D01*
X000497Y002028D01*
X000530Y002047D01*
X000565Y002064D01*
X000602Y002077D01*
X000639Y002086D01*
X000677Y002092D01*
X000716Y002094D01*
X003865Y002094D01*
X003865Y002093D02*
X003904Y002095D01*
X003942Y002101D01*
X003979Y002110D01*
X004016Y002123D01*
X004051Y002140D01*
X004084Y002159D01*
X004115Y002182D01*
X004144Y002208D01*
X004170Y002237D01*
X004193Y002268D01*
X004212Y002301D01*
X004229Y002336D01*
X004242Y002373D01*
X004251Y002410D01*
X004257Y002448D01*
X004259Y002487D01*
X004259Y012757D01*
X004144Y013036D02*
X000437Y016742D01*
X000322Y017020D02*
X000322Y019056D01*
X000437Y019335D02*
X004144Y023041D01*
X004259Y023320D02*
X004259Y033590D01*
X004257Y033629D01*
X004251Y033667D01*
X004242Y033704D01*
X004229Y033741D01*
X004212Y033776D01*
X004193Y033809D01*
X004170Y033840D01*
X004144Y033869D01*
X004115Y033895D01*
X004084Y033918D01*
X004051Y033937D01*
X004016Y033954D01*
X003979Y033967D01*
X003942Y033976D01*
X003904Y033982D01*
X003865Y033984D01*
X003865Y033983D02*
X000716Y033983D01*
X000677Y033985D01*
X000639Y033991D01*
X000602Y034000D01*
X000565Y034013D01*
X000530Y034030D01*
X000497Y034049D01*
X000466Y034072D01*
X000437Y034098D01*
X000411Y034127D01*
X000388Y034158D01*
X000369Y034191D01*
X000352Y034226D01*
X000339Y034263D01*
X000330Y034300D01*
X000324Y034338D01*
X000322Y034377D01*
X000322Y035361D01*
X000324Y035400D01*
X000330Y035438D01*
X000339Y035475D01*
X000352Y035512D01*
X000369Y035547D01*
X000388Y035580D01*
X000411Y035611D01*
X000437Y035640D01*
X000466Y035666D01*
X000497Y035689D01*
X000530Y035708D01*
X000565Y035725D01*
X000602Y035738D01*
X000639Y035747D01*
X000677Y035753D01*
X000716Y035755D01*
X009771Y035755D01*
X009810Y035753D01*
X009848Y035747D01*
X009885Y035738D01*
X009922Y035725D01*
X009957Y035708D01*
X009990Y035689D01*
X010021Y035666D01*
X010050Y035640D01*
X010076Y035611D01*
X010099Y035580D01*
X010118Y035547D01*
X010135Y035512D01*
X010148Y035475D01*
X010157Y035438D01*
X010163Y035400D01*
X010165Y035361D01*
X010164Y035361D02*
X010164Y034377D01*
X010165Y034377D02*
X010163Y034338D01*
X010157Y034300D01*
X010148Y034263D01*
X010135Y034226D01*
X010118Y034191D01*
X010099Y034158D01*
X010076Y034127D01*
X010050Y034098D01*
X010021Y034072D01*
X009990Y034049D01*
X009957Y034030D01*
X009922Y034013D01*
X009885Y034000D01*
X009848Y033991D01*
X009810Y033985D01*
X009771Y033983D01*
X006621Y033983D01*
X006621Y033984D02*
X006582Y033982D01*
X006544Y033976D01*
X006507Y033967D01*
X006470Y033954D01*
X006435Y033937D01*
X006402Y033918D01*
X006371Y033895D01*
X006342Y033869D01*
X006316Y033840D01*
X006293Y033809D01*
X006274Y033776D01*
X006257Y033741D01*
X006244Y033704D01*
X006235Y033667D01*
X006229Y033629D01*
X006227Y033590D01*
X006227Y023320D01*
X006343Y023041D02*
X010049Y019335D01*
X010164Y019056D02*
X010164Y017020D01*
X010049Y016742D02*
X006343Y013036D01*
X006227Y012757D02*
X006227Y002487D01*
X006229Y002448D01*
X006235Y002410D01*
X006244Y002373D01*
X006257Y002336D01*
X006274Y002301D01*
X006293Y002268D01*
X006316Y002237D01*
X006342Y002208D01*
X006371Y002182D01*
X006402Y002159D01*
X006435Y002140D01*
X006470Y002123D01*
X006507Y002110D01*
X006544Y002101D01*
X006582Y002095D01*
X006621Y002093D01*
X006621Y002094D02*
X009771Y002094D01*
X009810Y002092D01*
X009848Y002086D01*
X009885Y002077D01*
X009922Y002064D01*
X009957Y002047D01*
X009990Y002028D01*
X010021Y002005D01*
X010050Y001979D01*
X010076Y001950D01*
X010099Y001919D01*
X010118Y001886D01*
X010135Y001851D01*
X010148Y001814D01*
X010157Y001777D01*
X010163Y001739D01*
X010165Y001700D01*
X010164Y001700D02*
X010164Y000716D01*
X010165Y000716D02*
X010163Y000677D01*
X010157Y000639D01*
X010148Y000602D01*
X010135Y000565D01*
X010118Y000530D01*
X010099Y000497D01*
X010076Y000466D01*
X010050Y000437D01*
X010021Y000411D01*
X009990Y000388D01*
X009957Y000369D01*
X009922Y000352D01*
X009885Y000339D01*
X009848Y000330D01*
X009810Y000324D01*
X009771Y000322D01*
X000716Y000322D01*
X000677Y000324D01*
X000639Y000330D01*
X000602Y000339D01*
X000565Y000352D01*
X000530Y000369D01*
X000497Y000388D01*
X000466Y000411D01*
X000437Y000437D01*
X000411Y000466D01*
X000388Y000497D01*
X000369Y000530D01*
X000352Y000565D01*
X000339Y000602D01*
X000330Y000639D01*
X000324Y000677D01*
X000322Y000716D01*
X004259Y012757D02*
X004257Y012796D01*
X004251Y012834D01*
X004242Y012871D01*
X004229Y012908D01*
X004212Y012943D01*
X004193Y012976D01*
X004170Y013007D01*
X004144Y013036D01*
X003923Y014241D02*
X002626Y015537D01*
X002627Y015537D02*
X002609Y015557D01*
X002594Y015580D01*
X002582Y015605D01*
X002574Y015631D01*
X002570Y015658D01*
X002569Y015685D01*
X002572Y015712D01*
X002579Y015739D01*
X002590Y015764D01*
X002603Y015787D01*
X002620Y015809D01*
X002640Y015828D01*
X002662Y015843D01*
X002686Y015856D01*
X002712Y015865D01*
X002739Y015871D01*
X002766Y015873D01*
X004259Y015873D01*
X004259Y014380D01*
X004257Y014353D01*
X004251Y014326D01*
X004242Y014300D01*
X004229Y014276D01*
X004214Y014254D01*
X004195Y014234D01*
X004173Y014217D01*
X004150Y014204D01*
X004125Y014193D01*
X004098Y014186D01*
X004071Y014183D01*
X004044Y014184D01*
X004017Y014188D01*
X003991Y014196D01*
X003966Y014208D01*
X003943Y014223D01*
X003923Y014241D01*
X004259Y020204D02*
X002766Y020204D01*
X002739Y020206D01*
X002712Y020212D01*
X002686Y020221D01*
X002662Y020234D01*
X002640Y020249D01*
X002620Y020268D01*
X002603Y020290D01*
X002590Y020313D01*
X002579Y020338D01*
X002572Y020365D01*
X002569Y020392D01*
X002570Y020419D01*
X002574Y020446D01*
X002582Y020472D01*
X002594Y020497D01*
X002609Y020520D01*
X002627Y020540D01*
X002626Y020540D02*
X003923Y021836D01*
X003943Y021854D01*
X003966Y021869D01*
X003991Y021881D01*
X004017Y021889D01*
X004044Y021893D01*
X004071Y021894D01*
X004098Y021891D01*
X004125Y021884D01*
X004150Y021873D01*
X004173Y021860D01*
X004195Y021843D01*
X004214Y021823D01*
X004229Y021801D01*
X004242Y021777D01*
X004251Y021751D01*
X004257Y021724D01*
X004259Y021697D01*
X004259Y020204D01*
X004144Y023041D02*
X004170Y023070D01*
X004193Y023101D01*
X004212Y023134D01*
X004229Y023169D01*
X004242Y023206D01*
X004251Y023243D01*
X004257Y023281D01*
X004259Y023320D01*
X006227Y021697D02*
X006227Y020204D01*
X007721Y020204D01*
X007748Y020206D01*
X007775Y020212D01*
X007801Y020221D01*
X007825Y020234D01*
X007847Y020249D01*
X007867Y020268D01*
X007884Y020290D01*
X007897Y020313D01*
X007908Y020338D01*
X007915Y020365D01*
X007918Y020392D01*
X007917Y020419D01*
X007913Y020446D01*
X007905Y020472D01*
X007893Y020497D01*
X007878Y020520D01*
X007860Y020540D01*
X006563Y021836D01*
X006543Y021854D01*
X006520Y021869D01*
X006495Y021881D01*
X006469Y021889D01*
X006442Y021893D01*
X006415Y021894D01*
X006388Y021891D01*
X006361Y021884D01*
X006336Y021873D01*
X006313Y021860D01*
X006291Y021843D01*
X006272Y021823D01*
X006257Y021801D01*
X006244Y021777D01*
X006235Y021751D01*
X006229Y021724D01*
X006227Y021697D01*
X006342Y023041D02*
X006316Y023070D01*
X006293Y023101D01*
X006274Y023134D01*
X006257Y023169D01*
X006244Y023206D01*
X006235Y023243D01*
X006229Y023281D01*
X006227Y023320D01*
X006227Y015873D02*
X006227Y014380D01*
X006229Y014353D01*
X006235Y014326D01*
X006244Y014300D01*
X006257Y014276D01*
X006272Y014254D01*
X006291Y014234D01*
X006313Y014217D01*
X006336Y014204D01*
X006361Y014193D01*
X006388Y014186D01*
X006415Y014183D01*
X006442Y014184D01*
X006469Y014188D01*
X006495Y014196D01*
X006520Y014208D01*
X006543Y014223D01*
X006563Y014241D01*
X007860Y015537D01*
X007878Y015557D01*
X007893Y015580D01*
X007905Y015605D01*
X007913Y015631D01*
X007917Y015658D01*
X007918Y015685D01*
X007915Y015712D01*
X007908Y015739D01*
X007897Y015764D01*
X007884Y015787D01*
X007867Y015809D01*
X007847Y015828D01*
X007825Y015843D01*
X007801Y015856D01*
X007775Y015865D01*
X007748Y015871D01*
X007721Y015873D01*
X006227Y015873D01*
X006342Y013036D02*
X006316Y013007D01*
X006293Y012976D01*
X006274Y012943D01*
X006257Y012908D01*
X006244Y012871D01*
X006235Y012834D01*
X006229Y012796D01*
X006227Y012757D01*
X010050Y016741D02*
X010076Y016770D01*
X010099Y016801D01*
X010118Y016834D01*
X010135Y016869D01*
X010148Y016906D01*
X010157Y016943D01*
X010163Y016981D01*
X010165Y017020D01*
X010165Y019056D02*
X010163Y019095D01*
X010157Y019133D01*
X010148Y019170D01*
X010135Y019207D01*
X010118Y019242D01*
X010099Y019275D01*
X010076Y019306D01*
X010050Y019335D01*
X000437Y019335D02*
X000411Y019306D01*
X000388Y019275D01*
X000369Y019242D01*
X000352Y019207D01*
X000339Y019170D01*
X000330Y019133D01*
X000324Y019095D01*
X000322Y019056D01*
X000322Y017020D02*
X000324Y016981D01*
X000330Y016943D01*
X000339Y016906D01*
X000352Y016869D01*
X000369Y016834D01*
X000388Y016801D01*
X000411Y016770D01*
X000437Y016741D01*
M02*
