G75*
%MOIN*%
%OFA0B0*%
%FSLAX24Y24*%
%IPPOS*%
%LPD*%
%AMOC8*
5,1,8,0,0,1.08239X$1,22.5*
%
%ADD10C,0.0276*%
%ADD11OC8,0.0476*%
D10*
X003721Y005400D03*
X004101Y005400D03*
X004481Y005400D03*
X004481Y006160D03*
X004101Y006160D03*
X003721Y006160D03*
X003721Y011305D03*
X004101Y011305D03*
X004481Y011305D03*
X004481Y012065D03*
X004101Y012065D03*
X003721Y012065D03*
X003721Y017211D03*
X004101Y017211D03*
X004481Y017211D03*
X004481Y017971D03*
X004101Y017971D03*
X003721Y017971D03*
X009626Y017971D03*
X010006Y017971D03*
X010386Y017971D03*
X010386Y017211D03*
X010006Y017211D03*
X009626Y017211D03*
X009626Y012065D03*
X010006Y012065D03*
X010386Y012065D03*
X010386Y011305D03*
X010006Y011305D03*
X009626Y011305D03*
X009626Y006160D03*
X010006Y006160D03*
X010386Y006160D03*
X010386Y005400D03*
X010006Y005400D03*
X009626Y005400D03*
X015532Y005400D03*
X015912Y005400D03*
X016292Y005400D03*
X016292Y006160D03*
X015912Y006160D03*
X015532Y006160D03*
X015532Y011305D03*
X015912Y011305D03*
X016292Y011305D03*
X016292Y012065D03*
X015912Y012065D03*
X015532Y012065D03*
X015532Y017211D03*
X015912Y017211D03*
X016292Y017211D03*
X016292Y017971D03*
X015912Y017971D03*
X015532Y017971D03*
D11*
X003387Y003151D03*
X003880Y003151D03*
X004372Y003151D03*
X004864Y003151D03*
X009293Y003151D03*
X009785Y003151D03*
X010277Y003151D03*
X010769Y003151D03*
X015198Y003151D03*
X015691Y003151D03*
X016183Y003151D03*
X016675Y003151D03*
X016675Y009057D03*
X016183Y009057D03*
X015691Y009057D03*
X015198Y009057D03*
X010769Y009057D03*
X010277Y009057D03*
X009785Y009057D03*
X009293Y009057D03*
X004864Y009057D03*
X004372Y009057D03*
X003880Y009057D03*
X003387Y009057D03*
X003387Y014962D03*
X003880Y014962D03*
X004372Y014962D03*
X004864Y014962D03*
X009293Y014962D03*
X009785Y014962D03*
X010277Y014962D03*
X010769Y014962D03*
X015198Y014962D03*
X015691Y014962D03*
X016183Y014962D03*
X016675Y014962D03*
M02*
