G75*
%MOIN*%
%OFA0B0*%
%FSLAX24Y24*%
%IPPOS*%
%LPD*%
%AMOC8*
5,1,8,0,0,1.08239X$1,22.5*
%
%ADD10C,0.0560*%
%ADD11R,0.0139X0.0509*%
%ADD12C,0.0950*%
%ADD13C,0.0651*%
%ADD14R,0.0242X0.0149*%
%ADD15R,0.0321X0.0149*%
%ADD16OC8,0.0300*%
%ADD17R,0.0330X0.0360*%
%ADD18R,0.0410X0.0480*%
%ADD19OC8,0.0710*%
%ADD20R,0.0710X0.0710*%
%ADD21OC8,0.1241*%
D10*
X013177Y017471D03*
X017425Y011603D03*
X023293Y015850D03*
X019045Y021718D03*
D11*
G36*
X018901Y022449D02*
X018786Y022371D01*
X018503Y022791D01*
X018618Y022869D01*
X018901Y022449D01*
G37*
G36*
X019032Y022537D02*
X018917Y022459D01*
X018634Y022879D01*
X018749Y022957D01*
X019032Y022537D01*
G37*
G36*
X018771Y022361D02*
X018656Y022283D01*
X018373Y022703D01*
X018488Y022781D01*
X018771Y022361D01*
G37*
G36*
X018640Y022273D02*
X018525Y022195D01*
X018242Y022615D01*
X018357Y022693D01*
X018640Y022273D01*
G37*
G36*
X018510Y022185D02*
X018395Y022107D01*
X018112Y022527D01*
X018227Y022605D01*
X018510Y022185D01*
G37*
G36*
X018379Y022097D02*
X018264Y022019D01*
X017981Y022439D01*
X018096Y022517D01*
X018379Y022097D01*
G37*
G36*
X018249Y022008D02*
X018134Y021930D01*
X017851Y022350D01*
X017966Y022428D01*
X018249Y022008D01*
G37*
G36*
X018118Y021920D02*
X018003Y021842D01*
X017720Y022262D01*
X017835Y022340D01*
X018118Y021920D01*
G37*
G36*
X017987Y021832D02*
X017872Y021754D01*
X017589Y022174D01*
X017704Y022252D01*
X017987Y021832D01*
G37*
G36*
X017857Y021744D02*
X017742Y021666D01*
X017459Y022086D01*
X017574Y022164D01*
X017857Y021744D01*
G37*
G36*
X017726Y021656D02*
X017611Y021578D01*
X017328Y021998D01*
X017443Y022076D01*
X017726Y021656D01*
G37*
G36*
X017596Y021568D02*
X017481Y021490D01*
X017198Y021910D01*
X017313Y021988D01*
X017596Y021568D01*
G37*
G36*
X017465Y021480D02*
X017350Y021402D01*
X017067Y021822D01*
X017182Y021900D01*
X017465Y021480D01*
G37*
G36*
X017335Y021392D02*
X017220Y021314D01*
X016937Y021734D01*
X017052Y021812D01*
X017335Y021392D01*
G37*
G36*
X017204Y021304D02*
X017089Y021226D01*
X016806Y021646D01*
X016921Y021724D01*
X017204Y021304D01*
G37*
G36*
X017074Y021216D02*
X016959Y021138D01*
X016676Y021558D01*
X016791Y021636D01*
X017074Y021216D01*
G37*
G36*
X016943Y021128D02*
X016828Y021050D01*
X016545Y021470D01*
X016660Y021548D01*
X016943Y021128D01*
G37*
G36*
X016812Y021040D02*
X016697Y020962D01*
X016414Y021382D01*
X016529Y021460D01*
X016812Y021040D01*
G37*
G36*
X016682Y020952D02*
X016567Y020874D01*
X016284Y021294D01*
X016399Y021372D01*
X016682Y020952D01*
G37*
G36*
X016551Y020864D02*
X016436Y020786D01*
X016153Y021206D01*
X016268Y021284D01*
X016551Y020864D01*
G37*
G36*
X016421Y020776D02*
X016306Y020698D01*
X016023Y021118D01*
X016138Y021196D01*
X016421Y020776D01*
G37*
G36*
X016290Y020688D02*
X016175Y020610D01*
X015892Y021030D01*
X016007Y021108D01*
X016290Y020688D01*
G37*
G36*
X016160Y020599D02*
X016045Y020521D01*
X015762Y020941D01*
X015877Y021019D01*
X016160Y020599D01*
G37*
G36*
X016029Y020511D02*
X015914Y020433D01*
X015631Y020853D01*
X015746Y020931D01*
X016029Y020511D01*
G37*
G36*
X015899Y020423D02*
X015784Y020345D01*
X015501Y020765D01*
X015616Y020843D01*
X015899Y020423D01*
G37*
G36*
X015768Y020335D02*
X015653Y020257D01*
X015370Y020677D01*
X015485Y020755D01*
X015768Y020335D01*
G37*
G36*
X015637Y020247D02*
X015522Y020169D01*
X015239Y020589D01*
X015354Y020667D01*
X015637Y020247D01*
G37*
G36*
X015507Y020159D02*
X015392Y020081D01*
X015109Y020501D01*
X015224Y020579D01*
X015507Y020159D01*
G37*
G36*
X015376Y020071D02*
X015261Y019993D01*
X014978Y020413D01*
X015093Y020491D01*
X015376Y020071D01*
G37*
G36*
X015246Y019983D02*
X015131Y019905D01*
X014848Y020325D01*
X014963Y020403D01*
X015246Y019983D01*
G37*
G36*
X015115Y019895D02*
X015000Y019817D01*
X014717Y020237D01*
X014832Y020315D01*
X015115Y019895D01*
G37*
G36*
X014985Y019807D02*
X014870Y019729D01*
X014587Y020149D01*
X014702Y020227D01*
X014985Y019807D01*
G37*
G36*
X014854Y019719D02*
X014739Y019641D01*
X014456Y020061D01*
X014571Y020139D01*
X014854Y019719D01*
G37*
G36*
X014724Y019631D02*
X014609Y019553D01*
X014326Y019973D01*
X014441Y020051D01*
X014724Y019631D01*
G37*
G36*
X014593Y019543D02*
X014478Y019465D01*
X014195Y019885D01*
X014310Y019963D01*
X014593Y019543D01*
G37*
G36*
X013680Y020649D02*
X013795Y020727D01*
X014078Y020307D01*
X013963Y020229D01*
X013680Y020649D01*
G37*
G36*
X013810Y020737D02*
X013925Y020815D01*
X014208Y020395D01*
X014093Y020317D01*
X013810Y020737D01*
G37*
G36*
X013941Y020825D02*
X014056Y020903D01*
X014339Y020483D01*
X014224Y020405D01*
X013941Y020825D01*
G37*
G36*
X014071Y020913D02*
X014186Y020991D01*
X014469Y020571D01*
X014354Y020493D01*
X014071Y020913D01*
G37*
G36*
X014202Y021001D02*
X014317Y021079D01*
X014600Y020659D01*
X014485Y020581D01*
X014202Y021001D01*
G37*
G36*
X014333Y021089D02*
X014448Y021167D01*
X014731Y020747D01*
X014616Y020669D01*
X014333Y021089D01*
G37*
G36*
X014463Y021177D02*
X014578Y021255D01*
X014861Y020835D01*
X014746Y020757D01*
X014463Y021177D01*
G37*
G36*
X014594Y021265D02*
X014709Y021343D01*
X014992Y020923D01*
X014877Y020845D01*
X014594Y021265D01*
G37*
G36*
X014724Y021353D02*
X014839Y021431D01*
X015122Y021011D01*
X015007Y020933D01*
X014724Y021353D01*
G37*
G36*
X014855Y021441D02*
X014970Y021519D01*
X015253Y021099D01*
X015138Y021021D01*
X014855Y021441D01*
G37*
G36*
X014985Y021529D02*
X015100Y021607D01*
X015383Y021187D01*
X015268Y021109D01*
X014985Y021529D01*
G37*
G36*
X015116Y021617D02*
X015231Y021695D01*
X015514Y021275D01*
X015399Y021197D01*
X015116Y021617D01*
G37*
G36*
X015246Y021705D02*
X015361Y021783D01*
X015644Y021363D01*
X015529Y021285D01*
X015246Y021705D01*
G37*
G36*
X015377Y021793D02*
X015492Y021871D01*
X015775Y021451D01*
X015660Y021373D01*
X015377Y021793D01*
G37*
G36*
X015508Y021881D02*
X015623Y021959D01*
X015906Y021539D01*
X015791Y021461D01*
X015508Y021881D01*
G37*
G36*
X015638Y021969D02*
X015753Y022047D01*
X016036Y021627D01*
X015921Y021549D01*
X015638Y021969D01*
G37*
G36*
X015769Y022058D02*
X015884Y022136D01*
X016167Y021716D01*
X016052Y021638D01*
X015769Y022058D01*
G37*
G36*
X015899Y022146D02*
X016014Y022224D01*
X016297Y021804D01*
X016182Y021726D01*
X015899Y022146D01*
G37*
G36*
X016030Y022234D02*
X016145Y022312D01*
X016428Y021892D01*
X016313Y021814D01*
X016030Y022234D01*
G37*
G36*
X016160Y022322D02*
X016275Y022400D01*
X016558Y021980D01*
X016443Y021902D01*
X016160Y022322D01*
G37*
G36*
X016291Y022410D02*
X016406Y022488D01*
X016689Y022068D01*
X016574Y021990D01*
X016291Y022410D01*
G37*
G36*
X016421Y022498D02*
X016536Y022576D01*
X016819Y022156D01*
X016704Y022078D01*
X016421Y022498D01*
G37*
G36*
X016552Y022586D02*
X016667Y022664D01*
X016950Y022244D01*
X016835Y022166D01*
X016552Y022586D01*
G37*
G36*
X016683Y022674D02*
X016798Y022752D01*
X017081Y022332D01*
X016966Y022254D01*
X016683Y022674D01*
G37*
G36*
X016813Y022762D02*
X016928Y022840D01*
X017211Y022420D01*
X017096Y022342D01*
X016813Y022762D01*
G37*
G36*
X016944Y022850D02*
X017059Y022928D01*
X017342Y022508D01*
X017227Y022430D01*
X016944Y022850D01*
G37*
G36*
X017074Y022938D02*
X017189Y023016D01*
X017472Y022596D01*
X017357Y022518D01*
X017074Y022938D01*
G37*
G36*
X017205Y023026D02*
X017320Y023104D01*
X017603Y022684D01*
X017488Y022606D01*
X017205Y023026D01*
G37*
G36*
X017335Y023114D02*
X017450Y023192D01*
X017733Y022772D01*
X017618Y022694D01*
X017335Y023114D01*
G37*
G36*
X017466Y023202D02*
X017581Y023280D01*
X017864Y022860D01*
X017749Y022782D01*
X017466Y023202D01*
G37*
G36*
X017596Y023290D02*
X017711Y023368D01*
X017994Y022948D01*
X017879Y022870D01*
X017596Y023290D01*
G37*
G36*
X017727Y023378D02*
X017842Y023456D01*
X018125Y023036D01*
X018010Y022958D01*
X017727Y023378D01*
G37*
G36*
X017858Y023466D02*
X017973Y023544D01*
X018256Y023124D01*
X018141Y023046D01*
X017858Y023466D01*
G37*
G36*
X017988Y023555D02*
X018103Y023633D01*
X018386Y023213D01*
X018271Y023135D01*
X017988Y023555D01*
G37*
G36*
X018119Y023643D02*
X018234Y023721D01*
X018517Y023301D01*
X018402Y023223D01*
X018119Y023643D01*
G37*
G36*
X021118Y020303D02*
X021040Y020418D01*
X021460Y020701D01*
X021538Y020586D01*
X021118Y020303D01*
G37*
G36*
X021206Y020172D02*
X021128Y020287D01*
X021548Y020570D01*
X021626Y020455D01*
X021206Y020172D01*
G37*
G36*
X021294Y020042D02*
X021216Y020157D01*
X021636Y020440D01*
X021714Y020325D01*
X021294Y020042D01*
G37*
G36*
X021382Y019911D02*
X021304Y020026D01*
X021724Y020309D01*
X021802Y020194D01*
X021382Y019911D01*
G37*
G36*
X021470Y019780D02*
X021392Y019895D01*
X021812Y020178D01*
X021890Y020063D01*
X021470Y019780D01*
G37*
G36*
X021558Y019650D02*
X021480Y019765D01*
X021900Y020048D01*
X021978Y019933D01*
X021558Y019650D01*
G37*
G36*
X021646Y019519D02*
X021568Y019634D01*
X021988Y019917D01*
X022066Y019802D01*
X021646Y019519D01*
G37*
G36*
X021734Y019389D02*
X021656Y019504D01*
X022076Y019787D01*
X022154Y019672D01*
X021734Y019389D01*
G37*
G36*
X021822Y019258D02*
X021744Y019373D01*
X022164Y019656D01*
X022242Y019541D01*
X021822Y019258D01*
G37*
G36*
X021910Y019128D02*
X021832Y019243D01*
X022252Y019526D01*
X022330Y019411D01*
X021910Y019128D01*
G37*
G36*
X021998Y018997D02*
X021920Y019112D01*
X022340Y019395D01*
X022418Y019280D01*
X021998Y018997D01*
G37*
G36*
X022086Y018867D02*
X022008Y018982D01*
X022428Y019265D01*
X022506Y019150D01*
X022086Y018867D01*
G37*
G36*
X022174Y018736D02*
X022096Y018851D01*
X022516Y019134D01*
X022594Y019019D01*
X022174Y018736D01*
G37*
G36*
X022262Y018605D02*
X022184Y018720D01*
X022604Y019003D01*
X022682Y018888D01*
X022262Y018605D01*
G37*
G36*
X022350Y018475D02*
X022272Y018590D01*
X022692Y018873D01*
X022770Y018758D01*
X022350Y018475D01*
G37*
G36*
X022438Y018344D02*
X022360Y018459D01*
X022780Y018742D01*
X022858Y018627D01*
X022438Y018344D01*
G37*
G36*
X022527Y018214D02*
X022449Y018329D01*
X022869Y018612D01*
X022947Y018497D01*
X022527Y018214D01*
G37*
G36*
X022615Y018083D02*
X022537Y018198D01*
X022957Y018481D01*
X023035Y018366D01*
X022615Y018083D01*
G37*
G36*
X022703Y017953D02*
X022625Y018068D01*
X023045Y018351D01*
X023123Y018236D01*
X022703Y017953D01*
G37*
G36*
X022791Y017822D02*
X022713Y017937D01*
X023133Y018220D01*
X023211Y018105D01*
X022791Y017822D01*
G37*
G36*
X022879Y017692D02*
X022801Y017807D01*
X023221Y018090D01*
X023299Y017975D01*
X022879Y017692D01*
G37*
G36*
X022967Y017561D02*
X022889Y017676D01*
X023309Y017959D01*
X023387Y017844D01*
X022967Y017561D01*
G37*
G36*
X023055Y017430D02*
X022977Y017545D01*
X023397Y017828D01*
X023475Y017713D01*
X023055Y017430D01*
G37*
G36*
X023143Y017300D02*
X023065Y017415D01*
X023485Y017698D01*
X023563Y017583D01*
X023143Y017300D01*
G37*
G36*
X023231Y017169D02*
X023153Y017284D01*
X023573Y017567D01*
X023651Y017452D01*
X023231Y017169D01*
G37*
G36*
X023319Y017039D02*
X023241Y017154D01*
X023661Y017437D01*
X023739Y017322D01*
X023319Y017039D01*
G37*
G36*
X023407Y016908D02*
X023329Y017023D01*
X023749Y017306D01*
X023827Y017191D01*
X023407Y016908D01*
G37*
G36*
X023495Y016778D02*
X023417Y016893D01*
X023837Y017176D01*
X023915Y017061D01*
X023495Y016778D01*
G37*
G36*
X023583Y016647D02*
X023505Y016762D01*
X023925Y017045D01*
X024003Y016930D01*
X023583Y016647D01*
G37*
G36*
X023671Y016517D02*
X023593Y016632D01*
X024013Y016915D01*
X024091Y016800D01*
X023671Y016517D01*
G37*
G36*
X023759Y016386D02*
X023681Y016501D01*
X024101Y016784D01*
X024179Y016669D01*
X023759Y016386D01*
G37*
G36*
X023847Y016255D02*
X023769Y016370D01*
X024189Y016653D01*
X024267Y016538D01*
X023847Y016255D01*
G37*
G36*
X023936Y016125D02*
X023858Y016240D01*
X024278Y016523D01*
X024356Y016408D01*
X023936Y016125D01*
G37*
G36*
X024024Y015994D02*
X023946Y016109D01*
X024366Y016392D01*
X024444Y016277D01*
X024024Y015994D01*
G37*
G36*
X024112Y015864D02*
X024034Y015979D01*
X024454Y016262D01*
X024532Y016147D01*
X024112Y015864D01*
G37*
G36*
X025217Y016777D02*
X025295Y016662D01*
X024875Y016379D01*
X024797Y016494D01*
X025217Y016777D01*
G37*
G36*
X025129Y016907D02*
X025207Y016792D01*
X024787Y016509D01*
X024709Y016624D01*
X025129Y016907D01*
G37*
G36*
X025041Y017038D02*
X025119Y016923D01*
X024699Y016640D01*
X024621Y016755D01*
X025041Y017038D01*
G37*
G36*
X024953Y017169D02*
X025031Y017054D01*
X024611Y016771D01*
X024533Y016886D01*
X024953Y017169D01*
G37*
G36*
X024865Y017299D02*
X024943Y017184D01*
X024523Y016901D01*
X024445Y017016D01*
X024865Y017299D01*
G37*
G36*
X024777Y017430D02*
X024855Y017315D01*
X024435Y017032D01*
X024357Y017147D01*
X024777Y017430D01*
G37*
G36*
X024689Y017560D02*
X024767Y017445D01*
X024347Y017162D01*
X024269Y017277D01*
X024689Y017560D01*
G37*
G36*
X024601Y017691D02*
X024679Y017576D01*
X024259Y017293D01*
X024181Y017408D01*
X024601Y017691D01*
G37*
G36*
X024513Y017821D02*
X024591Y017706D01*
X024171Y017423D01*
X024093Y017538D01*
X024513Y017821D01*
G37*
G36*
X024425Y017952D02*
X024503Y017837D01*
X024083Y017554D01*
X024005Y017669D01*
X024425Y017952D01*
G37*
G36*
X024337Y018083D02*
X024415Y017968D01*
X023995Y017685D01*
X023917Y017800D01*
X024337Y018083D01*
G37*
G36*
X024249Y018213D02*
X024327Y018098D01*
X023907Y017815D01*
X023829Y017930D01*
X024249Y018213D01*
G37*
G36*
X024161Y018344D02*
X024239Y018229D01*
X023819Y017946D01*
X023741Y018061D01*
X024161Y018344D01*
G37*
G36*
X024073Y018474D02*
X024151Y018359D01*
X023731Y018076D01*
X023653Y018191D01*
X024073Y018474D01*
G37*
G36*
X023985Y018605D02*
X024063Y018490D01*
X023643Y018207D01*
X023565Y018322D01*
X023985Y018605D01*
G37*
G36*
X023896Y018735D02*
X023974Y018620D01*
X023554Y018337D01*
X023476Y018452D01*
X023896Y018735D01*
G37*
G36*
X023808Y018866D02*
X023886Y018751D01*
X023466Y018468D01*
X023388Y018583D01*
X023808Y018866D01*
G37*
G36*
X023720Y018996D02*
X023798Y018881D01*
X023378Y018598D01*
X023300Y018713D01*
X023720Y018996D01*
G37*
G36*
X023632Y019127D02*
X023710Y019012D01*
X023290Y018729D01*
X023212Y018844D01*
X023632Y019127D01*
G37*
G36*
X023544Y019258D02*
X023622Y019143D01*
X023202Y018860D01*
X023124Y018975D01*
X023544Y019258D01*
G37*
G36*
X023456Y019388D02*
X023534Y019273D01*
X023114Y018990D01*
X023036Y019105D01*
X023456Y019388D01*
G37*
G36*
X023368Y019519D02*
X023446Y019404D01*
X023026Y019121D01*
X022948Y019236D01*
X023368Y019519D01*
G37*
G36*
X023280Y019649D02*
X023358Y019534D01*
X022938Y019251D01*
X022860Y019366D01*
X023280Y019649D01*
G37*
G36*
X023192Y019780D02*
X023270Y019665D01*
X022850Y019382D01*
X022772Y019497D01*
X023192Y019780D01*
G37*
G36*
X023104Y019910D02*
X023182Y019795D01*
X022762Y019512D01*
X022684Y019627D01*
X023104Y019910D01*
G37*
G36*
X023016Y020041D02*
X023094Y019926D01*
X022674Y019643D01*
X022596Y019758D01*
X023016Y020041D01*
G37*
G36*
X022928Y020171D02*
X023006Y020056D01*
X022586Y019773D01*
X022508Y019888D01*
X022928Y020171D01*
G37*
G36*
X022840Y020302D02*
X022918Y020187D01*
X022498Y019904D01*
X022420Y020019D01*
X022840Y020302D01*
G37*
G36*
X022752Y020433D02*
X022830Y020318D01*
X022410Y020035D01*
X022332Y020150D01*
X022752Y020433D01*
G37*
G36*
X022664Y020563D02*
X022742Y020448D01*
X022322Y020165D01*
X022244Y020280D01*
X022664Y020563D01*
G37*
G36*
X022576Y020694D02*
X022654Y020579D01*
X022234Y020296D01*
X022156Y020411D01*
X022576Y020694D01*
G37*
G36*
X022488Y020824D02*
X022566Y020709D01*
X022146Y020426D01*
X022068Y020541D01*
X022488Y020824D01*
G37*
G36*
X022399Y020955D02*
X022477Y020840D01*
X022057Y020557D01*
X021979Y020672D01*
X022399Y020955D01*
G37*
G36*
X022311Y021085D02*
X022389Y020970D01*
X021969Y020687D01*
X021891Y020802D01*
X022311Y021085D01*
G37*
G36*
X022223Y021216D02*
X022301Y021101D01*
X021881Y020818D01*
X021803Y020933D01*
X022223Y021216D01*
G37*
G36*
X021878Y013778D02*
X021993Y013856D01*
X022276Y013436D01*
X022161Y013358D01*
X021878Y013778D01*
G37*
G36*
X021747Y013690D02*
X021862Y013768D01*
X022145Y013348D01*
X022030Y013270D01*
X021747Y013690D01*
G37*
G36*
X021616Y013602D02*
X021731Y013680D01*
X022014Y013260D01*
X021899Y013182D01*
X021616Y013602D01*
G37*
G36*
X021486Y013514D02*
X021601Y013592D01*
X021884Y013172D01*
X021769Y013094D01*
X021486Y013514D01*
G37*
G36*
X021355Y013426D02*
X021470Y013504D01*
X021753Y013084D01*
X021638Y013006D01*
X021355Y013426D01*
G37*
G36*
X021225Y013338D02*
X021340Y013416D01*
X021623Y012996D01*
X021508Y012918D01*
X021225Y013338D01*
G37*
G36*
X021094Y013250D02*
X021209Y013328D01*
X021492Y012908D01*
X021377Y012830D01*
X021094Y013250D01*
G37*
G36*
X020964Y013162D02*
X021079Y013240D01*
X021362Y012820D01*
X021247Y012742D01*
X020964Y013162D01*
G37*
G36*
X020833Y013074D02*
X020948Y013152D01*
X021231Y012732D01*
X021116Y012654D01*
X020833Y013074D01*
G37*
G36*
X020703Y012986D02*
X020818Y013064D01*
X021101Y012644D01*
X020986Y012566D01*
X020703Y012986D01*
G37*
G36*
X020572Y012897D02*
X020687Y012975D01*
X020970Y012555D01*
X020855Y012477D01*
X020572Y012897D01*
G37*
G36*
X020441Y012809D02*
X020556Y012887D01*
X020839Y012467D01*
X020724Y012389D01*
X020441Y012809D01*
G37*
G36*
X020311Y012721D02*
X020426Y012799D01*
X020709Y012379D01*
X020594Y012301D01*
X020311Y012721D01*
G37*
G36*
X020180Y012633D02*
X020295Y012711D01*
X020578Y012291D01*
X020463Y012213D01*
X020180Y012633D01*
G37*
G36*
X020050Y012545D02*
X020165Y012623D01*
X020448Y012203D01*
X020333Y012125D01*
X020050Y012545D01*
G37*
G36*
X019919Y012457D02*
X020034Y012535D01*
X020317Y012115D01*
X020202Y012037D01*
X019919Y012457D01*
G37*
G36*
X019789Y012369D02*
X019904Y012447D01*
X020187Y012027D01*
X020072Y011949D01*
X019789Y012369D01*
G37*
G36*
X019658Y012281D02*
X019773Y012359D01*
X020056Y011939D01*
X019941Y011861D01*
X019658Y012281D01*
G37*
G36*
X019527Y012193D02*
X019642Y012271D01*
X019925Y011851D01*
X019810Y011773D01*
X019527Y012193D01*
G37*
G36*
X019397Y012105D02*
X019512Y012183D01*
X019795Y011763D01*
X019680Y011685D01*
X019397Y012105D01*
G37*
G36*
X019266Y012017D02*
X019381Y012095D01*
X019664Y011675D01*
X019549Y011597D01*
X019266Y012017D01*
G37*
G36*
X019136Y011929D02*
X019251Y012007D01*
X019534Y011587D01*
X019419Y011509D01*
X019136Y011929D01*
G37*
G36*
X019005Y011841D02*
X019120Y011919D01*
X019403Y011499D01*
X019288Y011421D01*
X019005Y011841D01*
G37*
G36*
X018875Y011753D02*
X018990Y011831D01*
X019273Y011411D01*
X019158Y011333D01*
X018875Y011753D01*
G37*
G36*
X018744Y011665D02*
X018859Y011743D01*
X019142Y011323D01*
X019027Y011245D01*
X018744Y011665D01*
G37*
G36*
X018614Y011577D02*
X018729Y011655D01*
X019012Y011235D01*
X018897Y011157D01*
X018614Y011577D01*
G37*
G36*
X018483Y011488D02*
X018598Y011566D01*
X018881Y011146D01*
X018766Y011068D01*
X018483Y011488D01*
G37*
G36*
X018352Y011400D02*
X018467Y011478D01*
X018750Y011058D01*
X018635Y010980D01*
X018352Y011400D01*
G37*
G36*
X018222Y011312D02*
X018337Y011390D01*
X018620Y010970D01*
X018505Y010892D01*
X018222Y011312D01*
G37*
G36*
X018091Y011224D02*
X018206Y011302D01*
X018489Y010882D01*
X018374Y010804D01*
X018091Y011224D01*
G37*
G36*
X017961Y011136D02*
X018076Y011214D01*
X018359Y010794D01*
X018244Y010716D01*
X017961Y011136D01*
G37*
G36*
X017830Y011048D02*
X017945Y011126D01*
X018228Y010706D01*
X018113Y010628D01*
X017830Y011048D01*
G37*
G36*
X017700Y010960D02*
X017815Y011038D01*
X018098Y010618D01*
X017983Y010540D01*
X017700Y010960D01*
G37*
G36*
X017569Y010872D02*
X017684Y010950D01*
X017967Y010530D01*
X017852Y010452D01*
X017569Y010872D01*
G37*
G36*
X017439Y010784D02*
X017554Y010862D01*
X017837Y010442D01*
X017722Y010364D01*
X017439Y010784D01*
G37*
G36*
X018352Y009678D02*
X018237Y009600D01*
X017954Y010020D01*
X018069Y010098D01*
X018352Y009678D01*
G37*
G36*
X018482Y009766D02*
X018367Y009688D01*
X018084Y010108D01*
X018199Y010186D01*
X018482Y009766D01*
G37*
G36*
X018613Y009854D02*
X018498Y009776D01*
X018215Y010196D01*
X018330Y010274D01*
X018613Y009854D01*
G37*
G36*
X018743Y009942D02*
X018628Y009864D01*
X018345Y010284D01*
X018460Y010362D01*
X018743Y009942D01*
G37*
G36*
X018874Y010030D02*
X018759Y009952D01*
X018476Y010372D01*
X018591Y010450D01*
X018874Y010030D01*
G37*
G36*
X019005Y010119D02*
X018890Y010041D01*
X018607Y010461D01*
X018722Y010539D01*
X019005Y010119D01*
G37*
G36*
X019135Y010207D02*
X019020Y010129D01*
X018737Y010549D01*
X018852Y010627D01*
X019135Y010207D01*
G37*
G36*
X019266Y010295D02*
X019151Y010217D01*
X018868Y010637D01*
X018983Y010715D01*
X019266Y010295D01*
G37*
G36*
X019396Y010383D02*
X019281Y010305D01*
X018998Y010725D01*
X019113Y010803D01*
X019396Y010383D01*
G37*
G36*
X019527Y010471D02*
X019412Y010393D01*
X019129Y010813D01*
X019244Y010891D01*
X019527Y010471D01*
G37*
G36*
X019657Y010559D02*
X019542Y010481D01*
X019259Y010901D01*
X019374Y010979D01*
X019657Y010559D01*
G37*
G36*
X019788Y010647D02*
X019673Y010569D01*
X019390Y010989D01*
X019505Y011067D01*
X019788Y010647D01*
G37*
G36*
X019918Y010735D02*
X019803Y010657D01*
X019520Y011077D01*
X019635Y011155D01*
X019918Y010735D01*
G37*
G36*
X020049Y010823D02*
X019934Y010745D01*
X019651Y011165D01*
X019766Y011243D01*
X020049Y010823D01*
G37*
G36*
X020180Y010911D02*
X020065Y010833D01*
X019782Y011253D01*
X019897Y011331D01*
X020180Y010911D01*
G37*
G36*
X020310Y010999D02*
X020195Y010921D01*
X019912Y011341D01*
X020027Y011419D01*
X020310Y010999D01*
G37*
G36*
X020441Y011087D02*
X020326Y011009D01*
X020043Y011429D01*
X020158Y011507D01*
X020441Y011087D01*
G37*
G36*
X020571Y011175D02*
X020456Y011097D01*
X020173Y011517D01*
X020288Y011595D01*
X020571Y011175D01*
G37*
G36*
X020702Y011263D02*
X020587Y011185D01*
X020304Y011605D01*
X020419Y011683D01*
X020702Y011263D01*
G37*
G36*
X020832Y011351D02*
X020717Y011273D01*
X020434Y011693D01*
X020549Y011771D01*
X020832Y011351D01*
G37*
G36*
X020963Y011439D02*
X020848Y011361D01*
X020565Y011781D01*
X020680Y011859D01*
X020963Y011439D01*
G37*
G36*
X021093Y011528D02*
X020978Y011450D01*
X020695Y011870D01*
X020810Y011948D01*
X021093Y011528D01*
G37*
G36*
X021224Y011616D02*
X021109Y011538D01*
X020826Y011958D01*
X020941Y012036D01*
X021224Y011616D01*
G37*
G36*
X021355Y011704D02*
X021240Y011626D01*
X020957Y012046D01*
X021072Y012124D01*
X021355Y011704D01*
G37*
G36*
X021485Y011792D02*
X021370Y011714D01*
X021087Y012134D01*
X021202Y012212D01*
X021485Y011792D01*
G37*
G36*
X021616Y011880D02*
X021501Y011802D01*
X021218Y012222D01*
X021333Y012300D01*
X021616Y011880D01*
G37*
G36*
X021746Y011968D02*
X021631Y011890D01*
X021348Y012310D01*
X021463Y012388D01*
X021746Y011968D01*
G37*
G36*
X021877Y012056D02*
X021762Y011978D01*
X021479Y012398D01*
X021594Y012476D01*
X021877Y012056D01*
G37*
G36*
X022007Y012144D02*
X021892Y012066D01*
X021609Y012486D01*
X021724Y012564D01*
X022007Y012144D01*
G37*
G36*
X022138Y012232D02*
X022023Y012154D01*
X021740Y012574D01*
X021855Y012652D01*
X022138Y012232D01*
G37*
G36*
X022268Y012320D02*
X022153Y012242D01*
X021870Y012662D01*
X021985Y012740D01*
X022268Y012320D01*
G37*
G36*
X022399Y012408D02*
X022284Y012330D01*
X022001Y012750D01*
X022116Y012828D01*
X022399Y012408D01*
G37*
G36*
X022530Y012496D02*
X022415Y012418D01*
X022132Y012838D01*
X022247Y012916D01*
X022530Y012496D01*
G37*
G36*
X022660Y012584D02*
X022545Y012506D01*
X022262Y012926D01*
X022377Y013004D01*
X022660Y012584D01*
G37*
G36*
X022791Y012672D02*
X022676Y012594D01*
X022393Y013014D01*
X022508Y013092D01*
X022791Y012672D01*
G37*
G36*
X015353Y013018D02*
X015431Y012903D01*
X015011Y012620D01*
X014933Y012735D01*
X015353Y013018D01*
G37*
G36*
X015265Y013149D02*
X015343Y013034D01*
X014923Y012751D01*
X014845Y012866D01*
X015265Y013149D01*
G37*
G36*
X015177Y013279D02*
X015255Y013164D01*
X014835Y012881D01*
X014757Y012996D01*
X015177Y013279D01*
G37*
G36*
X015089Y013410D02*
X015167Y013295D01*
X014747Y013012D01*
X014669Y013127D01*
X015089Y013410D01*
G37*
G36*
X015001Y013540D02*
X015079Y013425D01*
X014659Y013142D01*
X014581Y013257D01*
X015001Y013540D01*
G37*
G36*
X014913Y013671D02*
X014991Y013556D01*
X014571Y013273D01*
X014493Y013388D01*
X014913Y013671D01*
G37*
G36*
X014825Y013801D02*
X014903Y013686D01*
X014483Y013403D01*
X014405Y013518D01*
X014825Y013801D01*
G37*
G36*
X014736Y013932D02*
X014814Y013817D01*
X014394Y013534D01*
X014316Y013649D01*
X014736Y013932D01*
G37*
G36*
X014648Y014063D02*
X014726Y013948D01*
X014306Y013665D01*
X014228Y013780D01*
X014648Y014063D01*
G37*
G36*
X014560Y014193D02*
X014638Y014078D01*
X014218Y013795D01*
X014140Y013910D01*
X014560Y014193D01*
G37*
G36*
X014472Y014324D02*
X014550Y014209D01*
X014130Y013926D01*
X014052Y014041D01*
X014472Y014324D01*
G37*
G36*
X014384Y014454D02*
X014462Y014339D01*
X014042Y014056D01*
X013964Y014171D01*
X014384Y014454D01*
G37*
G36*
X014296Y014585D02*
X014374Y014470D01*
X013954Y014187D01*
X013876Y014302D01*
X014296Y014585D01*
G37*
G36*
X014208Y014715D02*
X014286Y014600D01*
X013866Y014317D01*
X013788Y014432D01*
X014208Y014715D01*
G37*
G36*
X014120Y014846D02*
X014198Y014731D01*
X013778Y014448D01*
X013700Y014563D01*
X014120Y014846D01*
G37*
G36*
X014032Y014976D02*
X014110Y014861D01*
X013690Y014578D01*
X013612Y014693D01*
X014032Y014976D01*
G37*
G36*
X013944Y015107D02*
X014022Y014992D01*
X013602Y014709D01*
X013524Y014824D01*
X013944Y015107D01*
G37*
G36*
X013856Y015238D02*
X013934Y015123D01*
X013514Y014840D01*
X013436Y014955D01*
X013856Y015238D01*
G37*
G36*
X013768Y015368D02*
X013846Y015253D01*
X013426Y014970D01*
X013348Y015085D01*
X013768Y015368D01*
G37*
G36*
X013680Y015499D02*
X013758Y015384D01*
X013338Y015101D01*
X013260Y015216D01*
X013680Y015499D01*
G37*
G36*
X013592Y015629D02*
X013670Y015514D01*
X013250Y015231D01*
X013172Y015346D01*
X013592Y015629D01*
G37*
G36*
X013504Y015760D02*
X013582Y015645D01*
X013162Y015362D01*
X013084Y015477D01*
X013504Y015760D01*
G37*
G36*
X013416Y015890D02*
X013494Y015775D01*
X013074Y015492D01*
X012996Y015607D01*
X013416Y015890D01*
G37*
G36*
X013327Y016021D02*
X013405Y015906D01*
X012985Y015623D01*
X012907Y015738D01*
X013327Y016021D01*
G37*
G36*
X013239Y016152D02*
X013317Y016037D01*
X012897Y015754D01*
X012819Y015869D01*
X013239Y016152D01*
G37*
G36*
X013151Y016282D02*
X013229Y016167D01*
X012809Y015884D01*
X012731Y015999D01*
X013151Y016282D01*
G37*
G36*
X013063Y016413D02*
X013141Y016298D01*
X012721Y016015D01*
X012643Y016130D01*
X013063Y016413D01*
G37*
G36*
X012975Y016543D02*
X013053Y016428D01*
X012633Y016145D01*
X012555Y016260D01*
X012975Y016543D01*
G37*
G36*
X012887Y016674D02*
X012965Y016559D01*
X012545Y016276D01*
X012467Y016391D01*
X012887Y016674D01*
G37*
G36*
X012799Y016804D02*
X012877Y016689D01*
X012457Y016406D01*
X012379Y016521D01*
X012799Y016804D01*
G37*
G36*
X012711Y016935D02*
X012789Y016820D01*
X012369Y016537D01*
X012291Y016652D01*
X012711Y016935D01*
G37*
G36*
X012623Y017065D02*
X012701Y016950D01*
X012281Y016667D01*
X012203Y016782D01*
X012623Y017065D01*
G37*
G36*
X012535Y017196D02*
X012613Y017081D01*
X012193Y016798D01*
X012115Y016913D01*
X012535Y017196D01*
G37*
G36*
X012447Y017327D02*
X012525Y017212D01*
X012105Y016929D01*
X012027Y017044D01*
X012447Y017327D01*
G37*
G36*
X012359Y017457D02*
X012437Y017342D01*
X012017Y017059D01*
X011939Y017174D01*
X012359Y017457D01*
G37*
G36*
X011253Y016544D02*
X011175Y016659D01*
X011595Y016942D01*
X011673Y016827D01*
X011253Y016544D01*
G37*
G36*
X011341Y016413D02*
X011263Y016528D01*
X011683Y016811D01*
X011761Y016696D01*
X011341Y016413D01*
G37*
G36*
X011429Y016283D02*
X011351Y016398D01*
X011771Y016681D01*
X011849Y016566D01*
X011429Y016283D01*
G37*
G36*
X011517Y016152D02*
X011439Y016267D01*
X011859Y016550D01*
X011937Y016435D01*
X011517Y016152D01*
G37*
G36*
X011605Y016022D02*
X011527Y016137D01*
X011947Y016420D01*
X012025Y016305D01*
X011605Y016022D01*
G37*
G36*
X011693Y015891D02*
X011615Y016006D01*
X012035Y016289D01*
X012113Y016174D01*
X011693Y015891D01*
G37*
G36*
X011781Y015761D02*
X011703Y015876D01*
X012123Y016159D01*
X012201Y016044D01*
X011781Y015761D01*
G37*
G36*
X011869Y015630D02*
X011791Y015745D01*
X012211Y016028D01*
X012289Y015913D01*
X011869Y015630D01*
G37*
G36*
X011958Y015499D02*
X011880Y015614D01*
X012300Y015897D01*
X012378Y015782D01*
X011958Y015499D01*
G37*
G36*
X012046Y015369D02*
X011968Y015484D01*
X012388Y015767D01*
X012466Y015652D01*
X012046Y015369D01*
G37*
G36*
X012134Y015238D02*
X012056Y015353D01*
X012476Y015636D01*
X012554Y015521D01*
X012134Y015238D01*
G37*
G36*
X012222Y015108D02*
X012144Y015223D01*
X012564Y015506D01*
X012642Y015391D01*
X012222Y015108D01*
G37*
G36*
X012310Y014977D02*
X012232Y015092D01*
X012652Y015375D01*
X012730Y015260D01*
X012310Y014977D01*
G37*
G36*
X012398Y014847D02*
X012320Y014962D01*
X012740Y015245D01*
X012818Y015130D01*
X012398Y014847D01*
G37*
G36*
X012486Y014716D02*
X012408Y014831D01*
X012828Y015114D01*
X012906Y014999D01*
X012486Y014716D01*
G37*
G36*
X012574Y014586D02*
X012496Y014701D01*
X012916Y014984D01*
X012994Y014869D01*
X012574Y014586D01*
G37*
G36*
X012662Y014455D02*
X012584Y014570D01*
X013004Y014853D01*
X013082Y014738D01*
X012662Y014455D01*
G37*
G36*
X012750Y014324D02*
X012672Y014439D01*
X013092Y014722D01*
X013170Y014607D01*
X012750Y014324D01*
G37*
G36*
X012838Y014194D02*
X012760Y014309D01*
X013180Y014592D01*
X013258Y014477D01*
X012838Y014194D01*
G37*
G36*
X012926Y014063D02*
X012848Y014178D01*
X013268Y014461D01*
X013346Y014346D01*
X012926Y014063D01*
G37*
G36*
X013014Y013933D02*
X012936Y014048D01*
X013356Y014331D01*
X013434Y014216D01*
X013014Y013933D01*
G37*
G36*
X013102Y013802D02*
X013024Y013917D01*
X013444Y014200D01*
X013522Y014085D01*
X013102Y013802D01*
G37*
G36*
X013190Y013672D02*
X013112Y013787D01*
X013532Y014070D01*
X013610Y013955D01*
X013190Y013672D01*
G37*
G36*
X013278Y013541D02*
X013200Y013656D01*
X013620Y013939D01*
X013698Y013824D01*
X013278Y013541D01*
G37*
G36*
X013367Y013411D02*
X013289Y013526D01*
X013709Y013809D01*
X013787Y013694D01*
X013367Y013411D01*
G37*
G36*
X013455Y013280D02*
X013377Y013395D01*
X013797Y013678D01*
X013875Y013563D01*
X013455Y013280D01*
G37*
G36*
X013543Y013149D02*
X013465Y013264D01*
X013885Y013547D01*
X013963Y013432D01*
X013543Y013149D01*
G37*
G36*
X013631Y013019D02*
X013553Y013134D01*
X013973Y013417D01*
X014051Y013302D01*
X013631Y013019D01*
G37*
G36*
X013719Y012888D02*
X013641Y013003D01*
X014061Y013286D01*
X014139Y013171D01*
X013719Y012888D01*
G37*
G36*
X013807Y012758D02*
X013729Y012873D01*
X014149Y013156D01*
X014227Y013041D01*
X013807Y012758D01*
G37*
G36*
X013895Y012627D02*
X013817Y012742D01*
X014237Y013025D01*
X014315Y012910D01*
X013895Y012627D01*
G37*
G36*
X013983Y012497D02*
X013905Y012612D01*
X014325Y012895D01*
X014403Y012780D01*
X013983Y012497D01*
G37*
G36*
X014071Y012366D02*
X013993Y012481D01*
X014413Y012764D01*
X014491Y012649D01*
X014071Y012366D01*
G37*
G36*
X014159Y012236D02*
X014081Y012351D01*
X014501Y012634D01*
X014579Y012519D01*
X014159Y012236D01*
G37*
G36*
X014247Y012105D02*
X014169Y012220D01*
X014589Y012503D01*
X014667Y012388D01*
X014247Y012105D01*
G37*
D12*
X018235Y016660D03*
D13*
X018826Y018629D03*
X017645Y014692D03*
D14*
G36*
X008160Y012233D02*
X008359Y012368D01*
X008442Y012245D01*
X008243Y012110D01*
X008160Y012233D01*
G37*
G36*
X008072Y012363D02*
X008271Y012498D01*
X008354Y012375D01*
X008155Y012240D01*
X008072Y012363D01*
G37*
G36*
X007983Y012494D02*
X008182Y012629D01*
X008265Y012506D01*
X008066Y012371D01*
X007983Y012494D01*
G37*
G36*
X008282Y012556D02*
X008147Y012755D01*
X008270Y012838D01*
X008405Y012639D01*
X008282Y012556D01*
G37*
G36*
X008413Y012644D02*
X008278Y012843D01*
X008401Y012926D01*
X008536Y012727D01*
X008413Y012644D01*
G37*
G36*
X008543Y012733D02*
X008408Y012932D01*
X008531Y013015D01*
X008666Y012816D01*
X008543Y012733D01*
G37*
G36*
X008674Y012821D02*
X008539Y013020D01*
X008662Y013103D01*
X008797Y012904D01*
X008674Y012821D01*
G37*
G36*
X009049Y013034D02*
X008850Y012899D01*
X008767Y013022D01*
X008966Y013157D01*
X009049Y013034D01*
G37*
G36*
X009137Y012904D02*
X008938Y012769D01*
X008855Y012892D01*
X009054Y013027D01*
X009137Y012904D01*
G37*
G36*
X009225Y012773D02*
X009026Y012638D01*
X008943Y012761D01*
X009142Y012896D01*
X009225Y012773D01*
G37*
G36*
X009313Y012643D02*
X009114Y012508D01*
X009031Y012631D01*
X009230Y012766D01*
X009313Y012643D01*
G37*
G36*
X008884Y012492D02*
X009019Y012293D01*
X008896Y012210D01*
X008761Y012409D01*
X008884Y012492D01*
G37*
G36*
X008753Y012404D02*
X008888Y012205D01*
X008765Y012122D01*
X008630Y012321D01*
X008753Y012404D01*
G37*
G36*
X008623Y012316D02*
X008758Y012117D01*
X008635Y012034D01*
X008500Y012233D01*
X008623Y012316D01*
G37*
G36*
X008248Y012102D02*
X008447Y012237D01*
X008530Y012114D01*
X008331Y011979D01*
X008248Y012102D01*
G37*
G36*
X008864Y011188D02*
X009063Y011323D01*
X009146Y011200D01*
X008947Y011065D01*
X008864Y011188D01*
G37*
G36*
X008952Y011058D02*
X009151Y011193D01*
X009234Y011070D01*
X009035Y010935D01*
X008952Y011058D01*
G37*
G36*
X009040Y010927D02*
X009239Y011062D01*
X009322Y010939D01*
X009123Y010804D01*
X009040Y010927D01*
G37*
G36*
X009128Y010797D02*
X009327Y010932D01*
X009410Y010809D01*
X009211Y010674D01*
X009128Y010797D01*
G37*
G36*
X009503Y011011D02*
X009638Y010812D01*
X009515Y010729D01*
X009380Y010928D01*
X009503Y011011D01*
G37*
G36*
X009634Y011099D02*
X009769Y010900D01*
X009646Y010817D01*
X009511Y011016D01*
X009634Y011099D01*
G37*
G36*
X009764Y011187D02*
X009899Y010988D01*
X009776Y010905D01*
X009641Y011104D01*
X009764Y011187D01*
G37*
G36*
X010194Y011337D02*
X009995Y011202D01*
X009912Y011325D01*
X010111Y011460D01*
X010194Y011337D01*
G37*
G36*
X010106Y011468D02*
X009907Y011333D01*
X009824Y011456D01*
X010023Y011591D01*
X010106Y011468D01*
G37*
G36*
X010018Y011598D02*
X009819Y011463D01*
X009736Y011586D01*
X009935Y011721D01*
X010018Y011598D01*
G37*
G36*
X009929Y011729D02*
X009730Y011594D01*
X009647Y011717D01*
X009846Y011852D01*
X009929Y011729D01*
G37*
G36*
X009555Y011515D02*
X009420Y011714D01*
X009543Y011797D01*
X009678Y011598D01*
X009555Y011515D01*
G37*
G36*
X009424Y011427D02*
X009289Y011626D01*
X009412Y011709D01*
X009547Y011510D01*
X009424Y011427D01*
G37*
G36*
X009293Y011339D02*
X009158Y011538D01*
X009281Y011621D01*
X009416Y011422D01*
X009293Y011339D01*
G37*
G36*
X009163Y011251D02*
X009028Y011450D01*
X009151Y011533D01*
X009286Y011334D01*
X009163Y011251D01*
G37*
G36*
X010044Y009945D02*
X009909Y010144D01*
X010032Y010227D01*
X010167Y010028D01*
X010044Y009945D01*
G37*
G36*
X009745Y009883D02*
X009944Y010018D01*
X010027Y009895D01*
X009828Y009760D01*
X009745Y009883D01*
G37*
G36*
X009833Y009752D02*
X010032Y009887D01*
X010115Y009764D01*
X009916Y009629D01*
X009833Y009752D01*
G37*
G36*
X009921Y009622D02*
X010120Y009757D01*
X010203Y009634D01*
X010004Y009499D01*
X009921Y009622D01*
G37*
G36*
X010009Y009491D02*
X010208Y009626D01*
X010291Y009503D01*
X010092Y009368D01*
X010009Y009491D01*
G37*
G36*
X010384Y009705D02*
X010519Y009506D01*
X010396Y009423D01*
X010261Y009622D01*
X010384Y009705D01*
G37*
G36*
X010514Y009793D02*
X010649Y009594D01*
X010526Y009511D01*
X010391Y009710D01*
X010514Y009793D01*
G37*
G36*
X010645Y009881D02*
X010780Y009682D01*
X010657Y009599D01*
X010522Y009798D01*
X010645Y009881D01*
G37*
G36*
X011074Y010032D02*
X010875Y009897D01*
X010792Y010020D01*
X010991Y010155D01*
X011074Y010032D01*
G37*
G36*
X010986Y010162D02*
X010787Y010027D01*
X010704Y010150D01*
X010903Y010285D01*
X010986Y010162D01*
G37*
G36*
X010898Y010293D02*
X010699Y010158D01*
X010616Y010281D01*
X010815Y010416D01*
X010898Y010293D01*
G37*
G36*
X010810Y010423D02*
X010611Y010288D01*
X010528Y010411D01*
X010727Y010546D01*
X010810Y010423D01*
G37*
G36*
X010435Y010209D02*
X010300Y010408D01*
X010423Y010491D01*
X010558Y010292D01*
X010435Y010209D01*
G37*
G36*
X010305Y010121D02*
X010170Y010320D01*
X010293Y010403D01*
X010428Y010204D01*
X010305Y010121D01*
G37*
G36*
X010174Y010033D02*
X010039Y010232D01*
X010162Y010315D01*
X010297Y010116D01*
X010174Y010033D01*
G37*
G36*
X011055Y008728D02*
X010920Y008927D01*
X011043Y009010D01*
X011178Y008811D01*
X011055Y008728D01*
G37*
G36*
X010924Y008640D02*
X010789Y008839D01*
X010912Y008922D01*
X011047Y008723D01*
X010924Y008640D01*
G37*
G36*
X010625Y008577D02*
X010824Y008712D01*
X010907Y008589D01*
X010708Y008454D01*
X010625Y008577D01*
G37*
G36*
X010713Y008447D02*
X010912Y008582D01*
X010995Y008459D01*
X010796Y008324D01*
X010713Y008447D01*
G37*
G36*
X010801Y008316D02*
X011000Y008451D01*
X011083Y008328D01*
X010884Y008193D01*
X010801Y008316D01*
G37*
G36*
X010890Y008186D02*
X011089Y008321D01*
X011172Y008198D01*
X010973Y008063D01*
X010890Y008186D01*
G37*
G36*
X011264Y008399D02*
X011399Y008200D01*
X011276Y008117D01*
X011141Y008316D01*
X011264Y008399D01*
G37*
G36*
X011395Y008488D02*
X011530Y008289D01*
X011407Y008206D01*
X011272Y008405D01*
X011395Y008488D01*
G37*
G36*
X011526Y008576D02*
X011661Y008377D01*
X011538Y008294D01*
X011403Y008493D01*
X011526Y008576D01*
G37*
G36*
X011955Y008726D02*
X011756Y008591D01*
X011673Y008714D01*
X011872Y008849D01*
X011955Y008726D01*
G37*
G36*
X011867Y008857D02*
X011668Y008722D01*
X011585Y008845D01*
X011784Y008980D01*
X011867Y008857D01*
G37*
G36*
X011779Y008987D02*
X011580Y008852D01*
X011497Y008975D01*
X011696Y009110D01*
X011779Y008987D01*
G37*
G36*
X011691Y009118D02*
X011492Y008983D01*
X011409Y009106D01*
X011608Y009241D01*
X011691Y009118D01*
G37*
G36*
X011316Y008904D02*
X011181Y009103D01*
X011304Y009186D01*
X011439Y008987D01*
X011316Y008904D01*
G37*
G36*
X011185Y008816D02*
X011050Y009015D01*
X011173Y009098D01*
X011308Y008899D01*
X011185Y008816D01*
G37*
G36*
X011935Y007422D02*
X011800Y007621D01*
X011923Y007704D01*
X012058Y007505D01*
X011935Y007422D01*
G37*
G36*
X011805Y007334D02*
X011670Y007533D01*
X011793Y007616D01*
X011928Y007417D01*
X011805Y007334D01*
G37*
G36*
X011506Y007272D02*
X011705Y007407D01*
X011788Y007284D01*
X011589Y007149D01*
X011506Y007272D01*
G37*
G36*
X011594Y007141D02*
X011793Y007276D01*
X011876Y007153D01*
X011677Y007018D01*
X011594Y007141D01*
G37*
G36*
X011682Y007011D02*
X011881Y007146D01*
X011964Y007023D01*
X011765Y006888D01*
X011682Y007011D01*
G37*
G36*
X011770Y006880D02*
X011969Y007015D01*
X012052Y006892D01*
X011853Y006757D01*
X011770Y006880D01*
G37*
G36*
X012145Y007094D02*
X012280Y006895D01*
X012157Y006812D01*
X012022Y007011D01*
X012145Y007094D01*
G37*
G36*
X012276Y007182D02*
X012411Y006983D01*
X012288Y006900D01*
X012153Y007099D01*
X012276Y007182D01*
G37*
G36*
X012406Y007270D02*
X012541Y007071D01*
X012418Y006988D01*
X012283Y007187D01*
X012406Y007270D01*
G37*
G36*
X012835Y007420D02*
X012636Y007285D01*
X012553Y007408D01*
X012752Y007543D01*
X012835Y007420D01*
G37*
G36*
X012747Y007551D02*
X012548Y007416D01*
X012465Y007539D01*
X012664Y007674D01*
X012747Y007551D01*
G37*
G36*
X012659Y007682D02*
X012460Y007547D01*
X012377Y007670D01*
X012576Y007805D01*
X012659Y007682D01*
G37*
G36*
X012571Y007812D02*
X012372Y007677D01*
X012289Y007800D01*
X012488Y007935D01*
X012571Y007812D01*
G37*
G36*
X012196Y007598D02*
X012061Y007797D01*
X012184Y007880D01*
X012319Y007681D01*
X012196Y007598D01*
G37*
G36*
X012066Y007510D02*
X011931Y007709D01*
X012054Y007792D01*
X012189Y007593D01*
X012066Y007510D01*
G37*
G36*
X008003Y013798D02*
X008138Y013599D01*
X008015Y013516D01*
X007880Y013715D01*
X008003Y013798D01*
G37*
G36*
X007872Y013710D02*
X008007Y013511D01*
X007884Y013428D01*
X007749Y013627D01*
X007872Y013710D01*
G37*
G36*
X007742Y013622D02*
X007877Y013423D01*
X007754Y013340D01*
X007619Y013539D01*
X007742Y013622D01*
G37*
G36*
X007367Y013408D02*
X007566Y013543D01*
X007649Y013420D01*
X007450Y013285D01*
X007367Y013408D01*
G37*
G36*
X007279Y013538D02*
X007478Y013673D01*
X007561Y013550D01*
X007362Y013415D01*
X007279Y013538D01*
G37*
G36*
X007191Y013669D02*
X007390Y013804D01*
X007473Y013681D01*
X007274Y013546D01*
X007191Y013669D01*
G37*
G36*
X007103Y013800D02*
X007302Y013935D01*
X007385Y013812D01*
X007186Y013677D01*
X007103Y013800D01*
G37*
G36*
X007402Y013862D02*
X007267Y014061D01*
X007390Y014144D01*
X007525Y013945D01*
X007402Y013862D01*
G37*
G36*
X007532Y013950D02*
X007397Y014149D01*
X007520Y014232D01*
X007655Y014033D01*
X007532Y013950D01*
G37*
G36*
X007663Y014038D02*
X007528Y014237D01*
X007651Y014320D01*
X007786Y014121D01*
X007663Y014038D01*
G37*
G36*
X007793Y014126D02*
X007658Y014325D01*
X007781Y014408D01*
X007916Y014209D01*
X007793Y014126D01*
G37*
G36*
X008168Y014340D02*
X007969Y014205D01*
X007886Y014328D01*
X008085Y014463D01*
X008168Y014340D01*
G37*
G36*
X008256Y014209D02*
X008057Y014074D01*
X007974Y014197D01*
X008173Y014332D01*
X008256Y014209D01*
G37*
G36*
X008344Y014079D02*
X008145Y013944D01*
X008062Y014067D01*
X008261Y014202D01*
X008344Y014079D01*
G37*
G36*
X008432Y013948D02*
X008233Y013813D01*
X008150Y013936D01*
X008349Y014071D01*
X008432Y013948D01*
G37*
G36*
X007552Y015254D02*
X007353Y015119D01*
X007270Y015242D01*
X007469Y015377D01*
X007552Y015254D01*
G37*
G36*
X007464Y015384D02*
X007265Y015249D01*
X007182Y015372D01*
X007381Y015507D01*
X007464Y015384D01*
G37*
G36*
X007376Y015515D02*
X007177Y015380D01*
X007094Y015503D01*
X007293Y015638D01*
X007376Y015515D01*
G37*
G36*
X007288Y015646D02*
X007089Y015511D01*
X007006Y015634D01*
X007205Y015769D01*
X007288Y015646D01*
G37*
G36*
X006913Y015432D02*
X006778Y015631D01*
X006901Y015714D01*
X007036Y015515D01*
X006913Y015432D01*
G37*
G36*
X006782Y015344D02*
X006647Y015543D01*
X006770Y015626D01*
X006905Y015427D01*
X006782Y015344D01*
G37*
G36*
X006652Y015256D02*
X006517Y015455D01*
X006640Y015538D01*
X006775Y015339D01*
X006652Y015256D01*
G37*
G36*
X006521Y015168D02*
X006386Y015367D01*
X006509Y015450D01*
X006644Y015251D01*
X006521Y015168D01*
G37*
G36*
X006222Y015105D02*
X006421Y015240D01*
X006504Y015117D01*
X006305Y014982D01*
X006222Y015105D01*
G37*
G36*
X006310Y014975D02*
X006509Y015110D01*
X006592Y014987D01*
X006393Y014852D01*
X006310Y014975D01*
G37*
G36*
X006398Y014844D02*
X006597Y014979D01*
X006680Y014856D01*
X006481Y014721D01*
X006398Y014844D01*
G37*
G36*
X006486Y014713D02*
X006685Y014848D01*
X006768Y014725D01*
X006569Y014590D01*
X006486Y014713D01*
G37*
G36*
X006861Y014927D02*
X006996Y014728D01*
X006873Y014645D01*
X006738Y014844D01*
X006861Y014927D01*
G37*
G36*
X006992Y015015D02*
X007127Y014816D01*
X007004Y014733D01*
X006869Y014932D01*
X006992Y015015D01*
G37*
G36*
X007122Y015103D02*
X007257Y014904D01*
X007134Y014821D01*
X006999Y015020D01*
X007122Y015103D01*
G37*
G36*
X006242Y016409D02*
X006377Y016210D01*
X006254Y016127D01*
X006119Y016326D01*
X006242Y016409D01*
G37*
G36*
X006111Y016321D02*
X006246Y016122D01*
X006123Y016039D01*
X005988Y016238D01*
X006111Y016321D01*
G37*
G36*
X005981Y016233D02*
X006116Y016034D01*
X005993Y015951D01*
X005858Y016150D01*
X005981Y016233D01*
G37*
G36*
X005606Y016019D02*
X005805Y016154D01*
X005888Y016031D01*
X005689Y015896D01*
X005606Y016019D01*
G37*
G36*
X005518Y016150D02*
X005717Y016285D01*
X005800Y016162D01*
X005601Y016027D01*
X005518Y016150D01*
G37*
G36*
X005430Y016280D02*
X005629Y016415D01*
X005712Y016292D01*
X005513Y016157D01*
X005430Y016280D01*
G37*
G36*
X005342Y016411D02*
X005541Y016546D01*
X005624Y016423D01*
X005425Y016288D01*
X005342Y016411D01*
G37*
G36*
X005640Y016473D02*
X005505Y016672D01*
X005628Y016755D01*
X005763Y016556D01*
X005640Y016473D01*
G37*
G36*
X005771Y016561D02*
X005636Y016760D01*
X005759Y016843D01*
X005894Y016644D01*
X005771Y016561D01*
G37*
G36*
X005902Y016649D02*
X005767Y016848D01*
X005890Y016931D01*
X006025Y016732D01*
X005902Y016649D01*
G37*
G36*
X006032Y016737D02*
X005897Y016936D01*
X006020Y017019D01*
X006155Y016820D01*
X006032Y016737D01*
G37*
G36*
X006407Y016951D02*
X006208Y016816D01*
X006125Y016939D01*
X006324Y017074D01*
X006407Y016951D01*
G37*
G36*
X006495Y016821D02*
X006296Y016686D01*
X006213Y016809D01*
X006412Y016944D01*
X006495Y016821D01*
G37*
G36*
X006583Y016690D02*
X006384Y016555D01*
X006301Y016678D01*
X006500Y016813D01*
X006583Y016690D01*
G37*
G36*
X006671Y016559D02*
X006472Y016424D01*
X006389Y016547D01*
X006588Y016682D01*
X006671Y016559D01*
G37*
G36*
X008995Y022060D02*
X008860Y022259D01*
X008983Y022342D01*
X009118Y022143D01*
X008995Y022060D01*
G37*
G36*
X009126Y022148D02*
X008991Y022347D01*
X009114Y022430D01*
X009249Y022231D01*
X009126Y022148D01*
G37*
G36*
X009256Y022236D02*
X009121Y022435D01*
X009244Y022518D01*
X009379Y022319D01*
X009256Y022236D01*
G37*
G36*
X009387Y022324D02*
X009252Y022523D01*
X009375Y022606D01*
X009510Y022407D01*
X009387Y022324D01*
G37*
G36*
X009173Y022699D02*
X009372Y022834D01*
X009455Y022711D01*
X009256Y022576D01*
X009173Y022699D01*
G37*
G36*
X009085Y022830D02*
X009284Y022965D01*
X009367Y022842D01*
X009168Y022707D01*
X009085Y022830D01*
G37*
G36*
X008997Y022960D02*
X009196Y023095D01*
X009279Y022972D01*
X009080Y022837D01*
X008997Y022960D01*
G37*
G36*
X008909Y023091D02*
X009108Y023226D01*
X009191Y023103D01*
X008992Y022968D01*
X008909Y023091D01*
G37*
G36*
X008847Y023390D02*
X008982Y023191D01*
X008859Y023108D01*
X008724Y023307D01*
X008847Y023390D01*
G37*
G36*
X008716Y023302D02*
X008851Y023103D01*
X008728Y023020D01*
X008593Y023219D01*
X008716Y023302D01*
G37*
G36*
X008585Y023214D02*
X008720Y023015D01*
X008597Y022932D01*
X008462Y023131D01*
X008585Y023214D01*
G37*
G36*
X008455Y023126D02*
X008590Y022927D01*
X008467Y022844D01*
X008332Y023043D01*
X008455Y023126D01*
G37*
G36*
X008669Y022751D02*
X008470Y022616D01*
X008387Y022739D01*
X008586Y022874D01*
X008669Y022751D01*
G37*
G36*
X008757Y022620D02*
X008558Y022485D01*
X008475Y022608D01*
X008674Y022743D01*
X008757Y022620D01*
G37*
G36*
X008845Y022490D02*
X008646Y022355D01*
X008563Y022478D01*
X008762Y022613D01*
X008845Y022490D01*
G37*
G36*
X009974Y023631D02*
X009775Y023496D01*
X009692Y023619D01*
X009891Y023754D01*
X009974Y023631D01*
G37*
G36*
X010062Y023501D02*
X009863Y023366D01*
X009780Y023489D01*
X009979Y023624D01*
X010062Y023501D01*
G37*
G36*
X010150Y023370D02*
X009951Y023235D01*
X009868Y023358D01*
X010067Y023493D01*
X010150Y023370D01*
G37*
G36*
X010301Y022941D02*
X010166Y023140D01*
X010289Y023223D01*
X010424Y023024D01*
X010301Y022941D01*
G37*
G36*
X010431Y023029D02*
X010296Y023228D01*
X010419Y023311D01*
X010554Y023112D01*
X010431Y023029D01*
G37*
G36*
X010562Y023117D02*
X010427Y023316D01*
X010550Y023399D01*
X010685Y023200D01*
X010562Y023117D01*
G37*
G36*
X010693Y023205D02*
X010558Y023404D01*
X010681Y023487D01*
X010816Y023288D01*
X010693Y023205D01*
G37*
G36*
X010479Y023580D02*
X010678Y023715D01*
X010761Y023592D01*
X010562Y023457D01*
X010479Y023580D01*
G37*
G36*
X010391Y023710D02*
X010590Y023845D01*
X010673Y023722D01*
X010474Y023587D01*
X010391Y023710D01*
G37*
G36*
X010303Y023841D02*
X010502Y023976D01*
X010585Y023853D01*
X010386Y023718D01*
X010303Y023841D01*
G37*
G36*
X010215Y023972D02*
X010414Y024107D01*
X010497Y023984D01*
X010298Y023849D01*
X010215Y023972D01*
G37*
G36*
X010152Y024270D02*
X010287Y024071D01*
X010164Y023988D01*
X010029Y024187D01*
X010152Y024270D01*
G37*
G36*
X010022Y024182D02*
X010157Y023983D01*
X010034Y023900D01*
X009899Y024099D01*
X010022Y024182D01*
G37*
G36*
X009891Y024094D02*
X010026Y023895D01*
X009903Y023812D01*
X009768Y024011D01*
X009891Y024094D01*
G37*
G36*
X009760Y024006D02*
X009895Y023807D01*
X009772Y023724D01*
X009637Y023923D01*
X009760Y024006D01*
G37*
G36*
X011280Y024512D02*
X011081Y024377D01*
X010998Y024500D01*
X011197Y024635D01*
X011280Y024512D01*
G37*
G36*
X011368Y024381D02*
X011169Y024246D01*
X011086Y024369D01*
X011285Y024504D01*
X011368Y024381D01*
G37*
G36*
X011456Y024251D02*
X011257Y024116D01*
X011174Y024239D01*
X011373Y024374D01*
X011456Y024251D01*
G37*
G36*
X011606Y023821D02*
X011471Y024020D01*
X011594Y024103D01*
X011729Y023904D01*
X011606Y023821D01*
G37*
G36*
X011737Y023909D02*
X011602Y024108D01*
X011725Y024191D01*
X011860Y023992D01*
X011737Y023909D01*
G37*
G36*
X011868Y023998D02*
X011733Y024197D01*
X011856Y024280D01*
X011991Y024081D01*
X011868Y023998D01*
G37*
G36*
X011998Y024086D02*
X011863Y024285D01*
X011986Y024368D01*
X012121Y024169D01*
X011998Y024086D01*
G37*
G36*
X011784Y024460D02*
X011983Y024595D01*
X012066Y024472D01*
X011867Y024337D01*
X011784Y024460D01*
G37*
G36*
X011696Y024591D02*
X011895Y024726D01*
X011978Y024603D01*
X011779Y024468D01*
X011696Y024591D01*
G37*
G36*
X011608Y024722D02*
X011807Y024857D01*
X011890Y024734D01*
X011691Y024599D01*
X011608Y024722D01*
G37*
G36*
X011520Y024852D02*
X011719Y024987D01*
X011802Y024864D01*
X011603Y024729D01*
X011520Y024852D01*
G37*
G36*
X011458Y025151D02*
X011593Y024952D01*
X011470Y024869D01*
X011335Y025068D01*
X011458Y025151D01*
G37*
G36*
X011327Y025063D02*
X011462Y024864D01*
X011339Y024781D01*
X011204Y024980D01*
X011327Y025063D01*
G37*
G36*
X011197Y024975D02*
X011332Y024776D01*
X011209Y024693D01*
X011074Y024892D01*
X011197Y024975D01*
G37*
G36*
X011066Y024887D02*
X011201Y024688D01*
X011078Y024605D01*
X010943Y024804D01*
X011066Y024887D01*
G37*
G36*
X012372Y025767D02*
X012507Y025568D01*
X012384Y025485D01*
X012249Y025684D01*
X012372Y025767D01*
G37*
G36*
X012502Y025855D02*
X012637Y025656D01*
X012514Y025573D01*
X012379Y025772D01*
X012502Y025855D01*
G37*
G36*
X012633Y025943D02*
X012768Y025744D01*
X012645Y025661D01*
X012510Y025860D01*
X012633Y025943D01*
G37*
G36*
X012763Y026032D02*
X012898Y025833D01*
X012775Y025750D01*
X012640Y025949D01*
X012763Y026032D01*
G37*
G36*
X012826Y025733D02*
X013025Y025868D01*
X013108Y025745D01*
X012909Y025610D01*
X012826Y025733D01*
G37*
G36*
X012914Y025602D02*
X013113Y025737D01*
X013196Y025614D01*
X012997Y025479D01*
X012914Y025602D01*
G37*
G36*
X013002Y025472D02*
X013201Y025607D01*
X013284Y025484D01*
X013085Y025349D01*
X013002Y025472D01*
G37*
G36*
X013090Y025341D02*
X013289Y025476D01*
X013372Y025353D01*
X013173Y025218D01*
X013090Y025341D01*
G37*
G36*
X013304Y024966D02*
X013169Y025165D01*
X013292Y025248D01*
X013427Y025049D01*
X013304Y024966D01*
G37*
G36*
X013173Y024878D02*
X013038Y025077D01*
X013161Y025160D01*
X013296Y024961D01*
X013173Y024878D01*
G37*
G36*
X013043Y024790D02*
X012908Y024989D01*
X013031Y025072D01*
X013166Y024873D01*
X013043Y024790D01*
G37*
G36*
X012912Y024702D02*
X012777Y024901D01*
X012900Y024984D01*
X013035Y024785D01*
X012912Y024702D01*
G37*
G36*
X012762Y025131D02*
X012563Y024996D01*
X012480Y025119D01*
X012679Y025254D01*
X012762Y025131D01*
G37*
G36*
X012673Y025262D02*
X012474Y025127D01*
X012391Y025250D01*
X012590Y025385D01*
X012673Y025262D01*
G37*
G36*
X012585Y025392D02*
X012386Y025257D01*
X012303Y025380D01*
X012502Y025515D01*
X012585Y025392D01*
G37*
G36*
X013891Y026273D02*
X013692Y026138D01*
X013609Y026261D01*
X013808Y026396D01*
X013891Y026273D01*
G37*
G36*
X013979Y026143D02*
X013780Y026008D01*
X013697Y026131D01*
X013896Y026266D01*
X013979Y026143D01*
G37*
G36*
X014067Y026012D02*
X013868Y025877D01*
X013785Y026000D01*
X013984Y026135D01*
X014067Y026012D01*
G37*
G36*
X014218Y025583D02*
X014083Y025782D01*
X014206Y025865D01*
X014341Y025666D01*
X014218Y025583D01*
G37*
G36*
X014348Y025671D02*
X014213Y025870D01*
X014336Y025953D01*
X014471Y025754D01*
X014348Y025671D01*
G37*
G36*
X014479Y025759D02*
X014344Y025958D01*
X014467Y026041D01*
X014602Y025842D01*
X014479Y025759D01*
G37*
G36*
X014609Y025847D02*
X014474Y026046D01*
X014597Y026129D01*
X014732Y025930D01*
X014609Y025847D01*
G37*
G36*
X014395Y026222D02*
X014594Y026357D01*
X014677Y026234D01*
X014478Y026099D01*
X014395Y026222D01*
G37*
G36*
X014307Y026352D02*
X014506Y026487D01*
X014589Y026364D01*
X014390Y026229D01*
X014307Y026352D01*
G37*
G36*
X014219Y026483D02*
X014418Y026618D01*
X014501Y026495D01*
X014302Y026360D01*
X014219Y026483D01*
G37*
G36*
X014131Y026613D02*
X014330Y026748D01*
X014413Y026625D01*
X014214Y026490D01*
X014131Y026613D01*
G37*
G36*
X014069Y026912D02*
X014204Y026713D01*
X014081Y026630D01*
X013946Y026829D01*
X014069Y026912D01*
G37*
G36*
X013938Y026824D02*
X014073Y026625D01*
X013950Y026542D01*
X013815Y026741D01*
X013938Y026824D01*
G37*
G36*
X013808Y026736D02*
X013943Y026537D01*
X013820Y026454D01*
X013685Y026653D01*
X013808Y026736D01*
G37*
G36*
X013677Y026648D02*
X013812Y026449D01*
X013689Y026366D01*
X013554Y026565D01*
X013677Y026648D01*
G37*
G36*
X015197Y027154D02*
X014998Y027019D01*
X014915Y027142D01*
X015114Y027277D01*
X015197Y027154D01*
G37*
G36*
X015285Y027023D02*
X015086Y026888D01*
X015003Y027011D01*
X015202Y027146D01*
X015285Y027023D01*
G37*
G36*
X015373Y026893D02*
X015174Y026758D01*
X015091Y026881D01*
X015290Y027016D01*
X015373Y026893D01*
G37*
G36*
X015523Y026463D02*
X015388Y026662D01*
X015511Y026745D01*
X015646Y026546D01*
X015523Y026463D01*
G37*
G36*
X015654Y026551D02*
X015519Y026750D01*
X015642Y026833D01*
X015777Y026634D01*
X015654Y026551D01*
G37*
G36*
X015784Y026639D02*
X015649Y026838D01*
X015772Y026921D01*
X015907Y026722D01*
X015784Y026639D01*
G37*
G36*
X015915Y026727D02*
X015780Y026926D01*
X015903Y027009D01*
X016038Y026810D01*
X015915Y026727D01*
G37*
G36*
X015701Y027102D02*
X015900Y027237D01*
X015983Y027114D01*
X015784Y026979D01*
X015701Y027102D01*
G37*
G36*
X015613Y027233D02*
X015812Y027368D01*
X015895Y027245D01*
X015696Y027110D01*
X015613Y027233D01*
G37*
G36*
X015525Y027363D02*
X015724Y027498D01*
X015807Y027375D01*
X015608Y027240D01*
X015525Y027363D01*
G37*
G36*
X015437Y027494D02*
X015636Y027629D01*
X015719Y027506D01*
X015520Y027371D01*
X015437Y027494D01*
G37*
G36*
X015374Y027793D02*
X015509Y027594D01*
X015386Y027511D01*
X015251Y027710D01*
X015374Y027793D01*
G37*
G36*
X015244Y027705D02*
X015379Y027506D01*
X015256Y027423D01*
X015121Y027622D01*
X015244Y027705D01*
G37*
G36*
X015113Y027617D02*
X015248Y027418D01*
X015125Y027335D01*
X014990Y027534D01*
X015113Y027617D01*
G37*
G36*
X014983Y027529D02*
X015118Y027330D01*
X014995Y027247D01*
X014860Y027446D01*
X014983Y027529D01*
G37*
G36*
X016502Y028034D02*
X016303Y027899D01*
X016220Y028022D01*
X016419Y028157D01*
X016502Y028034D01*
G37*
G36*
X016590Y027904D02*
X016391Y027769D01*
X016308Y027892D01*
X016507Y028027D01*
X016590Y027904D01*
G37*
G36*
X016678Y027773D02*
X016479Y027638D01*
X016396Y027761D01*
X016595Y027896D01*
X016678Y027773D01*
G37*
G36*
X016829Y027344D02*
X016694Y027543D01*
X016817Y027626D01*
X016952Y027427D01*
X016829Y027344D01*
G37*
G36*
X016959Y027432D02*
X016824Y027631D01*
X016947Y027714D01*
X017082Y027515D01*
X016959Y027432D01*
G37*
G36*
X017090Y027520D02*
X016955Y027719D01*
X017078Y027802D01*
X017213Y027603D01*
X017090Y027520D01*
G37*
G36*
X017220Y027608D02*
X017085Y027807D01*
X017208Y027890D01*
X017343Y027691D01*
X017220Y027608D01*
G37*
G36*
X017007Y027983D02*
X017206Y028118D01*
X017289Y027995D01*
X017090Y027860D01*
X017007Y027983D01*
G37*
G36*
X016918Y028113D02*
X017117Y028248D01*
X017200Y028125D01*
X017001Y027990D01*
X016918Y028113D01*
G37*
G36*
X016830Y028244D02*
X017029Y028379D01*
X017112Y028256D01*
X016913Y028121D01*
X016830Y028244D01*
G37*
G36*
X016742Y028375D02*
X016941Y028510D01*
X017024Y028387D01*
X016825Y028252D01*
X016742Y028375D01*
G37*
G36*
X016680Y028673D02*
X016815Y028474D01*
X016692Y028391D01*
X016557Y028590D01*
X016680Y028673D01*
G37*
G36*
X016549Y028585D02*
X016684Y028386D01*
X016561Y028303D01*
X016426Y028502D01*
X016549Y028585D01*
G37*
G36*
X016419Y028497D02*
X016554Y028298D01*
X016431Y028215D01*
X016296Y028414D01*
X016419Y028497D01*
G37*
G36*
X016288Y028409D02*
X016423Y028210D01*
X016300Y028127D01*
X016165Y028326D01*
X016288Y028409D01*
G37*
G36*
X017808Y028915D02*
X017609Y028780D01*
X017526Y028903D01*
X017725Y029038D01*
X017808Y028915D01*
G37*
G36*
X017896Y028784D02*
X017697Y028649D01*
X017614Y028772D01*
X017813Y028907D01*
X017896Y028784D01*
G37*
G36*
X017984Y028654D02*
X017785Y028519D01*
X017702Y028642D01*
X017901Y028777D01*
X017984Y028654D01*
G37*
G36*
X018134Y028224D02*
X017999Y028423D01*
X018122Y028506D01*
X018257Y028307D01*
X018134Y028224D01*
G37*
G36*
X018265Y028313D02*
X018130Y028512D01*
X018253Y028595D01*
X018388Y028396D01*
X018265Y028313D01*
G37*
G36*
X018395Y028401D02*
X018260Y028600D01*
X018383Y028683D01*
X018518Y028484D01*
X018395Y028401D01*
G37*
G36*
X018526Y028489D02*
X018391Y028688D01*
X018514Y028771D01*
X018649Y028572D01*
X018526Y028489D01*
G37*
G36*
X018312Y028864D02*
X018511Y028999D01*
X018594Y028876D01*
X018395Y028741D01*
X018312Y028864D01*
G37*
G36*
X018224Y028994D02*
X018423Y029129D01*
X018506Y029006D01*
X018307Y028871D01*
X018224Y028994D01*
G37*
G36*
X018136Y029125D02*
X018335Y029260D01*
X018418Y029137D01*
X018219Y029002D01*
X018136Y029125D01*
G37*
G36*
X018048Y029255D02*
X018247Y029390D01*
X018330Y029267D01*
X018131Y029132D01*
X018048Y029255D01*
G37*
G36*
X017986Y029554D02*
X018121Y029355D01*
X017998Y029272D01*
X017863Y029471D01*
X017986Y029554D01*
G37*
G36*
X017855Y029466D02*
X017990Y029267D01*
X017867Y029184D01*
X017732Y029383D01*
X017855Y029466D01*
G37*
G36*
X017724Y029378D02*
X017859Y029179D01*
X017736Y029096D01*
X017601Y029295D01*
X017724Y029378D01*
G37*
G36*
X017594Y029290D02*
X017729Y029091D01*
X017606Y029008D01*
X017471Y029207D01*
X017594Y029290D01*
G37*
G36*
X023635Y025900D02*
X023834Y026035D01*
X023917Y025912D01*
X023718Y025777D01*
X023635Y025900D01*
G37*
G36*
X023723Y025770D02*
X023922Y025905D01*
X024005Y025782D01*
X023806Y025647D01*
X023723Y025770D01*
G37*
G36*
X023811Y025639D02*
X024010Y025774D01*
X024093Y025651D01*
X023894Y025516D01*
X023811Y025639D01*
G37*
G36*
X023899Y025509D02*
X024098Y025644D01*
X024181Y025521D01*
X023982Y025386D01*
X023899Y025509D01*
G37*
G36*
X024274Y025723D02*
X024409Y025524D01*
X024286Y025441D01*
X024151Y025640D01*
X024274Y025723D01*
G37*
G36*
X024405Y025811D02*
X024540Y025612D01*
X024417Y025529D01*
X024282Y025728D01*
X024405Y025811D01*
G37*
G36*
X024535Y025899D02*
X024670Y025700D01*
X024547Y025617D01*
X024412Y025816D01*
X024535Y025899D01*
G37*
G36*
X024666Y025987D02*
X024801Y025788D01*
X024678Y025705D01*
X024543Y025904D01*
X024666Y025987D01*
G37*
G36*
X024964Y026049D02*
X024765Y025914D01*
X024682Y026037D01*
X024881Y026172D01*
X024964Y026049D01*
G37*
G36*
X024876Y026180D02*
X024677Y026045D01*
X024594Y026168D01*
X024793Y026303D01*
X024876Y026180D01*
G37*
G36*
X024788Y026310D02*
X024589Y026175D01*
X024506Y026298D01*
X024705Y026433D01*
X024788Y026310D01*
G37*
G36*
X024700Y026441D02*
X024501Y026306D01*
X024418Y026429D01*
X024617Y026564D01*
X024700Y026441D01*
G37*
G36*
X024325Y026227D02*
X024190Y026426D01*
X024313Y026509D01*
X024448Y026310D01*
X024325Y026227D01*
G37*
G36*
X024195Y026139D02*
X024060Y026338D01*
X024183Y026421D01*
X024318Y026222D01*
X024195Y026139D01*
G37*
G36*
X024064Y026051D02*
X023929Y026250D01*
X024052Y026333D01*
X024187Y026134D01*
X024064Y026051D01*
G37*
G36*
X024945Y024745D02*
X024810Y024944D01*
X024933Y025027D01*
X025068Y024828D01*
X024945Y024745D01*
G37*
G36*
X025076Y024833D02*
X024941Y025032D01*
X025064Y025115D01*
X025199Y024916D01*
X025076Y024833D01*
G37*
G36*
X025206Y024921D02*
X025071Y025120D01*
X025194Y025203D01*
X025329Y025004D01*
X025206Y024921D01*
G37*
G36*
X025581Y025135D02*
X025382Y025000D01*
X025299Y025123D01*
X025498Y025258D01*
X025581Y025135D01*
G37*
G36*
X025669Y025005D02*
X025470Y024870D01*
X025387Y024993D01*
X025586Y025128D01*
X025669Y025005D01*
G37*
G36*
X025757Y024874D02*
X025558Y024739D01*
X025475Y024862D01*
X025674Y024997D01*
X025757Y024874D01*
G37*
G36*
X025845Y024744D02*
X025646Y024609D01*
X025563Y024732D01*
X025762Y024867D01*
X025845Y024744D01*
G37*
G36*
X025546Y024681D02*
X025681Y024482D01*
X025558Y024399D01*
X025423Y024598D01*
X025546Y024681D01*
G37*
G36*
X025416Y024593D02*
X025551Y024394D01*
X025428Y024311D01*
X025293Y024510D01*
X025416Y024593D01*
G37*
G36*
X025285Y024505D02*
X025420Y024306D01*
X025297Y024223D01*
X025162Y024422D01*
X025285Y024505D01*
G37*
G36*
X025155Y024417D02*
X025290Y024218D01*
X025167Y024135D01*
X025032Y024334D01*
X025155Y024417D01*
G37*
G36*
X024780Y024203D02*
X024979Y024338D01*
X025062Y024215D01*
X024863Y024080D01*
X024780Y024203D01*
G37*
G36*
X024692Y024334D02*
X024891Y024469D01*
X024974Y024346D01*
X024775Y024211D01*
X024692Y024334D01*
G37*
G36*
X024604Y024464D02*
X024803Y024599D01*
X024886Y024476D01*
X024687Y024341D01*
X024604Y024464D01*
G37*
G36*
X024516Y024595D02*
X024715Y024730D01*
X024798Y024607D01*
X024599Y024472D01*
X024516Y024595D01*
G37*
G36*
X025826Y023440D02*
X025691Y023639D01*
X025814Y023722D01*
X025949Y023523D01*
X025826Y023440D01*
G37*
G36*
X025956Y023528D02*
X025821Y023727D01*
X025944Y023810D01*
X026079Y023611D01*
X025956Y023528D01*
G37*
G36*
X026087Y023616D02*
X025952Y023815D01*
X026075Y023898D01*
X026210Y023699D01*
X026087Y023616D01*
G37*
G36*
X026462Y023830D02*
X026263Y023695D01*
X026180Y023818D01*
X026379Y023953D01*
X026462Y023830D01*
G37*
G36*
X026550Y023699D02*
X026351Y023564D01*
X026268Y023687D01*
X026467Y023822D01*
X026550Y023699D01*
G37*
G36*
X026638Y023569D02*
X026439Y023434D01*
X026356Y023557D01*
X026555Y023692D01*
X026638Y023569D01*
G37*
G36*
X026726Y023438D02*
X026527Y023303D01*
X026444Y023426D01*
X026643Y023561D01*
X026726Y023438D01*
G37*
G36*
X026427Y023376D02*
X026562Y023177D01*
X026439Y023094D01*
X026304Y023293D01*
X026427Y023376D01*
G37*
G36*
X026296Y023288D02*
X026431Y023089D01*
X026308Y023006D01*
X026173Y023205D01*
X026296Y023288D01*
G37*
G36*
X026166Y023199D02*
X026301Y023000D01*
X026178Y022917D01*
X026043Y023116D01*
X026166Y023199D01*
G37*
G36*
X026035Y023111D02*
X026170Y022912D01*
X026047Y022829D01*
X025912Y023028D01*
X026035Y023111D01*
G37*
G36*
X025660Y022898D02*
X025859Y023033D01*
X025942Y022910D01*
X025743Y022775D01*
X025660Y022898D01*
G37*
G36*
X025572Y023028D02*
X025771Y023163D01*
X025854Y023040D01*
X025655Y022905D01*
X025572Y023028D01*
G37*
G36*
X025484Y023159D02*
X025683Y023294D01*
X025766Y023171D01*
X025567Y023036D01*
X025484Y023159D01*
G37*
G36*
X025396Y023289D02*
X025595Y023424D01*
X025678Y023301D01*
X025479Y023166D01*
X025396Y023289D01*
G37*
G36*
X026277Y021984D02*
X026476Y022119D01*
X026559Y021996D01*
X026360Y021861D01*
X026277Y021984D01*
G37*
G36*
X026365Y021853D02*
X026564Y021988D01*
X026647Y021865D01*
X026448Y021730D01*
X026365Y021853D01*
G37*
G36*
X026453Y021723D02*
X026652Y021858D01*
X026735Y021735D01*
X026536Y021600D01*
X026453Y021723D01*
G37*
G36*
X026541Y021592D02*
X026740Y021727D01*
X026823Y021604D01*
X026624Y021469D01*
X026541Y021592D01*
G37*
G36*
X026916Y021806D02*
X027051Y021607D01*
X026928Y021524D01*
X026793Y021723D01*
X026916Y021806D01*
G37*
G36*
X027046Y021894D02*
X027181Y021695D01*
X027058Y021612D01*
X026923Y021811D01*
X027046Y021894D01*
G37*
G36*
X027177Y021982D02*
X027312Y021783D01*
X027189Y021700D01*
X027054Y021899D01*
X027177Y021982D01*
G37*
G36*
X027308Y022070D02*
X027443Y021871D01*
X027320Y021788D01*
X027185Y021987D01*
X027308Y022070D01*
G37*
G36*
X027606Y022132D02*
X027407Y021997D01*
X027324Y022120D01*
X027523Y022255D01*
X027606Y022132D01*
G37*
G36*
X027518Y022263D02*
X027319Y022128D01*
X027236Y022251D01*
X027435Y022386D01*
X027518Y022263D01*
G37*
G36*
X027430Y022394D02*
X027231Y022259D01*
X027148Y022382D01*
X027347Y022517D01*
X027430Y022394D01*
G37*
G36*
X027342Y022524D02*
X027143Y022389D01*
X027060Y022512D01*
X027259Y022647D01*
X027342Y022524D01*
G37*
G36*
X026967Y022310D02*
X026832Y022509D01*
X026955Y022592D01*
X027090Y022393D01*
X026967Y022310D01*
G37*
G36*
X026837Y022222D02*
X026702Y022421D01*
X026825Y022504D01*
X026960Y022305D01*
X026837Y022222D01*
G37*
G36*
X026706Y022134D02*
X026571Y022333D01*
X026694Y022416D01*
X026829Y022217D01*
X026706Y022134D01*
G37*
G36*
X027587Y020829D02*
X027452Y021028D01*
X027575Y021111D01*
X027710Y020912D01*
X027587Y020829D01*
G37*
G36*
X027717Y020917D02*
X027582Y021116D01*
X027705Y021199D01*
X027840Y021000D01*
X027717Y020917D01*
G37*
G36*
X027848Y021005D02*
X027713Y021204D01*
X027836Y021287D01*
X027971Y021088D01*
X027848Y021005D01*
G37*
G36*
X028223Y021219D02*
X028024Y021084D01*
X027941Y021207D01*
X028140Y021342D01*
X028223Y021219D01*
G37*
G36*
X028311Y021088D02*
X028112Y020953D01*
X028029Y021076D01*
X028228Y021211D01*
X028311Y021088D01*
G37*
G36*
X028399Y020957D02*
X028200Y020822D01*
X028117Y020945D01*
X028316Y021080D01*
X028399Y020957D01*
G37*
G36*
X028487Y020827D02*
X028288Y020692D01*
X028205Y020815D01*
X028404Y020950D01*
X028487Y020827D01*
G37*
G36*
X028188Y020764D02*
X028323Y020565D01*
X028200Y020482D01*
X028065Y020681D01*
X028188Y020764D01*
G37*
G36*
X028058Y020676D02*
X028193Y020477D01*
X028070Y020394D01*
X027935Y020593D01*
X028058Y020676D01*
G37*
G36*
X027927Y020588D02*
X028062Y020389D01*
X027939Y020306D01*
X027804Y020505D01*
X027927Y020588D01*
G37*
G36*
X027796Y020500D02*
X027931Y020301D01*
X027808Y020218D01*
X027673Y020417D01*
X027796Y020500D01*
G37*
G36*
X027422Y020286D02*
X027621Y020421D01*
X027704Y020298D01*
X027505Y020163D01*
X027422Y020286D01*
G37*
G36*
X027334Y020417D02*
X027533Y020552D01*
X027616Y020429D01*
X027417Y020294D01*
X027334Y020417D01*
G37*
G36*
X027246Y020548D02*
X027445Y020683D01*
X027528Y020560D01*
X027329Y020425D01*
X027246Y020548D01*
G37*
G36*
X027157Y020678D02*
X027356Y020813D01*
X027439Y020690D01*
X027240Y020555D01*
X027157Y020678D01*
G37*
G36*
X028038Y019373D02*
X028237Y019508D01*
X028320Y019385D01*
X028121Y019250D01*
X028038Y019373D01*
G37*
G36*
X028126Y019242D02*
X028325Y019377D01*
X028408Y019254D01*
X028209Y019119D01*
X028126Y019242D01*
G37*
G36*
X028214Y019111D02*
X028413Y019246D01*
X028496Y019123D01*
X028297Y018988D01*
X028214Y019111D01*
G37*
G36*
X028302Y018981D02*
X028501Y019116D01*
X028584Y018993D01*
X028385Y018858D01*
X028302Y018981D01*
G37*
G36*
X028677Y019195D02*
X028812Y018996D01*
X028689Y018913D01*
X028554Y019112D01*
X028677Y019195D01*
G37*
G36*
X028808Y019283D02*
X028943Y019084D01*
X028820Y019001D01*
X028685Y019200D01*
X028808Y019283D01*
G37*
G36*
X028938Y019371D02*
X029073Y019172D01*
X028950Y019089D01*
X028815Y019288D01*
X028938Y019371D01*
G37*
G36*
X029069Y019459D02*
X029204Y019260D01*
X029081Y019177D01*
X028946Y019376D01*
X029069Y019459D01*
G37*
G36*
X029368Y019521D02*
X029169Y019386D01*
X029086Y019509D01*
X029285Y019644D01*
X029368Y019521D01*
G37*
G36*
X029280Y019652D02*
X029081Y019517D01*
X028998Y019640D01*
X029197Y019775D01*
X029280Y019652D01*
G37*
G36*
X029191Y019782D02*
X028992Y019647D01*
X028909Y019770D01*
X029108Y019905D01*
X029191Y019782D01*
G37*
G36*
X029103Y019913D02*
X028904Y019778D01*
X028821Y019901D01*
X029020Y020036D01*
X029103Y019913D01*
G37*
G36*
X028729Y019699D02*
X028594Y019898D01*
X028717Y019981D01*
X028852Y019782D01*
X028729Y019699D01*
G37*
G36*
X028598Y019611D02*
X028463Y019810D01*
X028586Y019893D01*
X028721Y019694D01*
X028598Y019611D01*
G37*
G36*
X028467Y019523D02*
X028332Y019722D01*
X028455Y019805D01*
X028590Y019606D01*
X028467Y019523D01*
G37*
G36*
X029348Y018217D02*
X029213Y018416D01*
X029336Y018499D01*
X029471Y018300D01*
X029348Y018217D01*
G37*
G36*
X029479Y018305D02*
X029344Y018504D01*
X029467Y018587D01*
X029602Y018388D01*
X029479Y018305D01*
G37*
G36*
X029609Y018394D02*
X029474Y018593D01*
X029597Y018676D01*
X029732Y018477D01*
X029609Y018394D01*
G37*
G36*
X029984Y018607D02*
X029785Y018472D01*
X029702Y018595D01*
X029901Y018730D01*
X029984Y018607D01*
G37*
G36*
X030072Y018477D02*
X029873Y018342D01*
X029790Y018465D01*
X029989Y018600D01*
X030072Y018477D01*
G37*
G36*
X030160Y018346D02*
X029961Y018211D01*
X029878Y018334D01*
X030077Y018469D01*
X030160Y018346D01*
G37*
G36*
X030248Y018216D02*
X030049Y018081D01*
X029966Y018204D01*
X030165Y018339D01*
X030248Y018216D01*
G37*
G36*
X029949Y018153D02*
X030084Y017954D01*
X029961Y017871D01*
X029826Y018070D01*
X029949Y018153D01*
G37*
G36*
X029819Y018065D02*
X029954Y017866D01*
X029831Y017783D01*
X029696Y017982D01*
X029819Y018065D01*
G37*
G36*
X029688Y017977D02*
X029823Y017778D01*
X029700Y017695D01*
X029565Y017894D01*
X029688Y017977D01*
G37*
G36*
X029558Y017889D02*
X029693Y017690D01*
X029570Y017607D01*
X029435Y017806D01*
X029558Y017889D01*
G37*
G36*
X029183Y017675D02*
X029382Y017810D01*
X029465Y017687D01*
X029266Y017552D01*
X029183Y017675D01*
G37*
G36*
X029095Y017806D02*
X029294Y017941D01*
X029377Y017818D01*
X029178Y017683D01*
X029095Y017806D01*
G37*
G36*
X029007Y017936D02*
X029206Y018071D01*
X029289Y017948D01*
X029090Y017813D01*
X029007Y017936D01*
G37*
G36*
X028919Y018067D02*
X029118Y018202D01*
X029201Y018079D01*
X029002Y017944D01*
X028919Y018067D01*
G37*
G36*
X030229Y016912D02*
X030094Y017111D01*
X030217Y017194D01*
X030352Y016995D01*
X030229Y016912D01*
G37*
G36*
X030359Y017000D02*
X030224Y017199D01*
X030347Y017282D01*
X030482Y017083D01*
X030359Y017000D01*
G37*
G36*
X030490Y017088D02*
X030355Y017287D01*
X030478Y017370D01*
X030613Y017171D01*
X030490Y017088D01*
G37*
G36*
X030865Y017302D02*
X030666Y017167D01*
X030583Y017290D01*
X030782Y017425D01*
X030865Y017302D01*
G37*
G36*
X030953Y017171D02*
X030754Y017036D01*
X030671Y017159D01*
X030870Y017294D01*
X030953Y017171D01*
G37*
G36*
X031041Y017041D02*
X030842Y016906D01*
X030759Y017029D01*
X030958Y017164D01*
X031041Y017041D01*
G37*
G36*
X031129Y016910D02*
X030930Y016775D01*
X030847Y016898D01*
X031046Y017033D01*
X031129Y016910D01*
G37*
G36*
X030830Y016848D02*
X030965Y016649D01*
X030842Y016566D01*
X030707Y016765D01*
X030830Y016848D01*
G37*
G36*
X030699Y016760D02*
X030834Y016561D01*
X030711Y016478D01*
X030576Y016677D01*
X030699Y016760D01*
G37*
G36*
X030569Y016672D02*
X030704Y016473D01*
X030581Y016390D01*
X030446Y016589D01*
X030569Y016672D01*
G37*
G36*
X030438Y016584D02*
X030573Y016385D01*
X030450Y016302D01*
X030315Y016501D01*
X030438Y016584D01*
G37*
G36*
X030063Y016370D02*
X030262Y016505D01*
X030345Y016382D01*
X030146Y016247D01*
X030063Y016370D01*
G37*
G36*
X029975Y016500D02*
X030174Y016635D01*
X030257Y016512D01*
X030058Y016377D01*
X029975Y016500D01*
G37*
G36*
X029887Y016631D02*
X030086Y016766D01*
X030169Y016643D01*
X029970Y016508D01*
X029887Y016631D01*
G37*
G36*
X029799Y016761D02*
X029998Y016896D01*
X030081Y016773D01*
X029882Y016638D01*
X029799Y016761D01*
G37*
G36*
X027475Y011261D02*
X027610Y011062D01*
X027487Y010979D01*
X027352Y011178D01*
X027475Y011261D01*
G37*
G36*
X027345Y011173D02*
X027480Y010974D01*
X027357Y010891D01*
X027222Y011090D01*
X027345Y011173D01*
G37*
G36*
X027214Y011085D02*
X027349Y010886D01*
X027226Y010803D01*
X027091Y011002D01*
X027214Y011085D01*
G37*
G36*
X027084Y010997D02*
X027219Y010798D01*
X027096Y010715D01*
X026961Y010914D01*
X027084Y010997D01*
G37*
G36*
X027297Y010622D02*
X027098Y010487D01*
X027015Y010610D01*
X027214Y010745D01*
X027297Y010622D01*
G37*
G36*
X027385Y010491D02*
X027186Y010356D01*
X027103Y010479D01*
X027302Y010614D01*
X027385Y010491D01*
G37*
G36*
X027473Y010361D02*
X027274Y010226D01*
X027191Y010349D01*
X027390Y010484D01*
X027473Y010361D01*
G37*
G36*
X027562Y010230D02*
X027363Y010095D01*
X027280Y010218D01*
X027479Y010353D01*
X027562Y010230D01*
G37*
G36*
X027624Y009931D02*
X027489Y010130D01*
X027612Y010213D01*
X027747Y010014D01*
X027624Y009931D01*
G37*
G36*
X027754Y010019D02*
X027619Y010218D01*
X027742Y010301D01*
X027877Y010102D01*
X027754Y010019D01*
G37*
G36*
X027885Y010107D02*
X027750Y010306D01*
X027873Y010389D01*
X028008Y010190D01*
X027885Y010107D01*
G37*
G36*
X028016Y010195D02*
X027881Y010394D01*
X028004Y010477D01*
X028139Y010278D01*
X028016Y010195D01*
G37*
G36*
X027802Y010570D02*
X028001Y010705D01*
X028084Y010582D01*
X027885Y010447D01*
X027802Y010570D01*
G37*
G36*
X027714Y010701D02*
X027913Y010836D01*
X027996Y010713D01*
X027797Y010578D01*
X027714Y010701D01*
G37*
G36*
X027626Y010831D02*
X027825Y010966D01*
X027908Y010843D01*
X027709Y010708D01*
X027626Y010831D01*
G37*
G36*
X026496Y009690D02*
X026695Y009825D01*
X026778Y009702D01*
X026579Y009567D01*
X026496Y009690D01*
G37*
G36*
X026408Y009820D02*
X026607Y009955D01*
X026690Y009832D01*
X026491Y009697D01*
X026408Y009820D01*
G37*
G36*
X026320Y009951D02*
X026519Y010086D01*
X026602Y009963D01*
X026403Y009828D01*
X026320Y009951D01*
G37*
G36*
X026170Y010380D02*
X026305Y010181D01*
X026182Y010098D01*
X026047Y010297D01*
X026170Y010380D01*
G37*
G36*
X026039Y010292D02*
X026174Y010093D01*
X026051Y010010D01*
X025916Y010209D01*
X026039Y010292D01*
G37*
G36*
X025909Y010204D02*
X026044Y010005D01*
X025921Y009922D01*
X025786Y010121D01*
X025909Y010204D01*
G37*
G36*
X025778Y010116D02*
X025913Y009917D01*
X025790Y009834D01*
X025655Y010033D01*
X025778Y010116D01*
G37*
G36*
X025992Y009741D02*
X025793Y009606D01*
X025710Y009729D01*
X025909Y009864D01*
X025992Y009741D01*
G37*
G36*
X026080Y009610D02*
X025881Y009475D01*
X025798Y009598D01*
X025997Y009733D01*
X026080Y009610D01*
G37*
G36*
X026168Y009480D02*
X025969Y009345D01*
X025886Y009468D01*
X026085Y009603D01*
X026168Y009480D01*
G37*
G36*
X026256Y009349D02*
X026057Y009214D01*
X025974Y009337D01*
X026173Y009472D01*
X026256Y009349D01*
G37*
G36*
X026318Y009051D02*
X026183Y009250D01*
X026306Y009333D01*
X026441Y009134D01*
X026318Y009051D01*
G37*
G36*
X026449Y009139D02*
X026314Y009338D01*
X026437Y009421D01*
X026572Y009222D01*
X026449Y009139D01*
G37*
G36*
X026579Y009227D02*
X026444Y009426D01*
X026567Y009509D01*
X026702Y009310D01*
X026579Y009227D01*
G37*
G36*
X026710Y009315D02*
X026575Y009514D01*
X026698Y009597D01*
X026833Y009398D01*
X026710Y009315D01*
G37*
G36*
X025191Y008809D02*
X025390Y008944D01*
X025473Y008821D01*
X025274Y008686D01*
X025191Y008809D01*
G37*
G36*
X025103Y008940D02*
X025302Y009075D01*
X025385Y008952D01*
X025186Y008817D01*
X025103Y008940D01*
G37*
G36*
X025014Y009070D02*
X025213Y009205D01*
X025296Y009082D01*
X025097Y008947D01*
X025014Y009070D01*
G37*
G36*
X024864Y009499D02*
X024999Y009300D01*
X024876Y009217D01*
X024741Y009416D01*
X024864Y009499D01*
G37*
G36*
X024734Y009411D02*
X024869Y009212D01*
X024746Y009129D01*
X024611Y009328D01*
X024734Y009411D01*
G37*
G36*
X024603Y009323D02*
X024738Y009124D01*
X024615Y009041D01*
X024480Y009240D01*
X024603Y009323D01*
G37*
G36*
X024472Y009235D02*
X024607Y009036D01*
X024484Y008953D01*
X024349Y009152D01*
X024472Y009235D01*
G37*
G36*
X024686Y008860D02*
X024487Y008725D01*
X024404Y008848D01*
X024603Y008983D01*
X024686Y008860D01*
G37*
G36*
X024774Y008730D02*
X024575Y008595D01*
X024492Y008718D01*
X024691Y008853D01*
X024774Y008730D01*
G37*
G36*
X024862Y008599D02*
X024663Y008464D01*
X024580Y008587D01*
X024779Y008722D01*
X024862Y008599D01*
G37*
G36*
X024950Y008469D02*
X024751Y008334D01*
X024668Y008457D01*
X024867Y008592D01*
X024950Y008469D01*
G37*
G36*
X025013Y008170D02*
X024878Y008369D01*
X025001Y008452D01*
X025136Y008253D01*
X025013Y008170D01*
G37*
G36*
X025143Y008258D02*
X025008Y008457D01*
X025131Y008540D01*
X025266Y008341D01*
X025143Y008258D01*
G37*
G36*
X025274Y008346D02*
X025139Y008545D01*
X025262Y008628D01*
X025397Y008429D01*
X025274Y008346D01*
G37*
G36*
X025404Y008434D02*
X025269Y008633D01*
X025392Y008716D01*
X025527Y008517D01*
X025404Y008434D01*
G37*
G36*
X024099Y007553D02*
X023964Y007752D01*
X024087Y007835D01*
X024222Y007636D01*
X024099Y007553D01*
G37*
G36*
X023968Y007465D02*
X023833Y007664D01*
X023956Y007747D01*
X024091Y007548D01*
X023968Y007465D01*
G37*
G36*
X023838Y007377D02*
X023703Y007576D01*
X023826Y007659D01*
X023961Y007460D01*
X023838Y007377D01*
G37*
G36*
X023707Y007289D02*
X023572Y007488D01*
X023695Y007571D01*
X023830Y007372D01*
X023707Y007289D01*
G37*
G36*
X023645Y007588D02*
X023446Y007453D01*
X023363Y007576D01*
X023562Y007711D01*
X023645Y007588D01*
G37*
G36*
X023557Y007719D02*
X023358Y007584D01*
X023275Y007707D01*
X023474Y007842D01*
X023557Y007719D01*
G37*
G36*
X023469Y007849D02*
X023270Y007714D01*
X023187Y007837D01*
X023386Y007972D01*
X023469Y007849D01*
G37*
G36*
X023381Y007980D02*
X023182Y007845D01*
X023099Y007968D01*
X023298Y008103D01*
X023381Y007980D01*
G37*
G36*
X023167Y008355D02*
X023302Y008156D01*
X023179Y008073D01*
X023044Y008272D01*
X023167Y008355D01*
G37*
G36*
X023297Y008443D02*
X023432Y008244D01*
X023309Y008161D01*
X023174Y008360D01*
X023297Y008443D01*
G37*
G36*
X023428Y008531D02*
X023563Y008332D01*
X023440Y008249D01*
X023305Y008448D01*
X023428Y008531D01*
G37*
G36*
X023559Y008619D02*
X023694Y008420D01*
X023571Y008337D01*
X023436Y008536D01*
X023559Y008619D01*
G37*
G36*
X023709Y008189D02*
X023908Y008324D01*
X023991Y008201D01*
X023792Y008066D01*
X023709Y008189D01*
G37*
G36*
X023797Y008059D02*
X023996Y008194D01*
X024079Y008071D01*
X023880Y007936D01*
X023797Y008059D01*
G37*
G36*
X023885Y007928D02*
X024084Y008063D01*
X024167Y007940D01*
X023968Y007805D01*
X023885Y007928D01*
G37*
G36*
X022579Y007048D02*
X022778Y007183D01*
X022861Y007060D01*
X022662Y006925D01*
X022579Y007048D01*
G37*
G36*
X022491Y007178D02*
X022690Y007313D01*
X022773Y007190D01*
X022574Y007055D01*
X022491Y007178D01*
G37*
G36*
X022403Y007309D02*
X022602Y007444D01*
X022685Y007321D01*
X022486Y007186D01*
X022403Y007309D01*
G37*
G36*
X022253Y007738D02*
X022388Y007539D01*
X022265Y007456D01*
X022130Y007655D01*
X022253Y007738D01*
G37*
G36*
X022122Y007650D02*
X022257Y007451D01*
X022134Y007368D01*
X021999Y007567D01*
X022122Y007650D01*
G37*
G36*
X021992Y007562D02*
X022127Y007363D01*
X022004Y007280D01*
X021869Y007479D01*
X021992Y007562D01*
G37*
G36*
X021861Y007474D02*
X021996Y007275D01*
X021873Y007192D01*
X021738Y007391D01*
X021861Y007474D01*
G37*
G36*
X022075Y007099D02*
X021876Y006964D01*
X021793Y007087D01*
X021992Y007222D01*
X022075Y007099D01*
G37*
G36*
X022163Y006969D02*
X021964Y006834D01*
X021881Y006957D01*
X022080Y007092D01*
X022163Y006969D01*
G37*
G36*
X022251Y006838D02*
X022052Y006703D01*
X021969Y006826D01*
X022168Y006961D01*
X022251Y006838D01*
G37*
G36*
X022339Y006707D02*
X022140Y006572D01*
X022057Y006695D01*
X022256Y006830D01*
X022339Y006707D01*
G37*
G36*
X022402Y006409D02*
X022267Y006608D01*
X022390Y006691D01*
X022525Y006492D01*
X022402Y006409D01*
G37*
G36*
X022532Y006497D02*
X022397Y006696D01*
X022520Y006779D01*
X022655Y006580D01*
X022532Y006497D01*
G37*
G36*
X022663Y006585D02*
X022528Y006784D01*
X022651Y006867D01*
X022786Y006668D01*
X022663Y006585D01*
G37*
G36*
X022793Y006673D02*
X022658Y006872D01*
X022781Y006955D01*
X022916Y006756D01*
X022793Y006673D01*
G37*
G36*
X021274Y006167D02*
X021473Y006302D01*
X021556Y006179D01*
X021357Y006044D01*
X021274Y006167D01*
G37*
G36*
X021186Y006298D02*
X021385Y006433D01*
X021468Y006310D01*
X021269Y006175D01*
X021186Y006298D01*
G37*
G36*
X021098Y006428D02*
X021297Y006563D01*
X021380Y006440D01*
X021181Y006305D01*
X021098Y006428D01*
G37*
G36*
X020947Y006858D02*
X021082Y006659D01*
X020959Y006576D01*
X020824Y006775D01*
X020947Y006858D01*
G37*
G36*
X020817Y006770D02*
X020952Y006571D01*
X020829Y006488D01*
X020694Y006687D01*
X020817Y006770D01*
G37*
G36*
X020686Y006681D02*
X020821Y006482D01*
X020698Y006399D01*
X020563Y006598D01*
X020686Y006681D01*
G37*
G36*
X020556Y006593D02*
X020691Y006394D01*
X020568Y006311D01*
X020433Y006510D01*
X020556Y006593D01*
G37*
G36*
X020770Y006219D02*
X020571Y006084D01*
X020488Y006207D01*
X020687Y006342D01*
X020770Y006219D01*
G37*
G36*
X020858Y006088D02*
X020659Y005953D01*
X020576Y006076D01*
X020775Y006211D01*
X020858Y006088D01*
G37*
G36*
X020946Y005957D02*
X020747Y005822D01*
X020664Y005945D01*
X020863Y006080D01*
X020946Y005957D01*
G37*
G36*
X021034Y005827D02*
X020835Y005692D01*
X020752Y005815D01*
X020951Y005950D01*
X021034Y005827D01*
G37*
G36*
X021096Y005528D02*
X020961Y005727D01*
X021084Y005810D01*
X021219Y005611D01*
X021096Y005528D01*
G37*
G36*
X021227Y005616D02*
X021092Y005815D01*
X021215Y005898D01*
X021350Y005699D01*
X021227Y005616D01*
G37*
G36*
X021357Y005704D02*
X021222Y005903D01*
X021345Y005986D01*
X021480Y005787D01*
X021357Y005704D01*
G37*
G36*
X021488Y005792D02*
X021353Y005991D01*
X021476Y006074D01*
X021611Y005875D01*
X021488Y005792D01*
G37*
G36*
X019968Y005287D02*
X020167Y005422D01*
X020250Y005299D01*
X020051Y005164D01*
X019968Y005287D01*
G37*
G36*
X019880Y005417D02*
X020079Y005552D01*
X020162Y005429D01*
X019963Y005294D01*
X019880Y005417D01*
G37*
G36*
X019792Y005548D02*
X019991Y005683D01*
X020074Y005560D01*
X019875Y005425D01*
X019792Y005548D01*
G37*
G36*
X019642Y005977D02*
X019777Y005778D01*
X019654Y005695D01*
X019519Y005894D01*
X019642Y005977D01*
G37*
G36*
X019511Y005889D02*
X019646Y005690D01*
X019523Y005607D01*
X019388Y005806D01*
X019511Y005889D01*
G37*
G36*
X019381Y005801D02*
X019516Y005602D01*
X019393Y005519D01*
X019258Y005718D01*
X019381Y005801D01*
G37*
G36*
X019250Y005713D02*
X019385Y005514D01*
X019262Y005431D01*
X019127Y005630D01*
X019250Y005713D01*
G37*
G36*
X019464Y005338D02*
X019265Y005203D01*
X019182Y005326D01*
X019381Y005461D01*
X019464Y005338D01*
G37*
G36*
X019552Y005207D02*
X019353Y005072D01*
X019270Y005195D01*
X019469Y005330D01*
X019552Y005207D01*
G37*
G36*
X019640Y005077D02*
X019441Y004942D01*
X019358Y005065D01*
X019557Y005200D01*
X019640Y005077D01*
G37*
G36*
X019728Y004946D02*
X019529Y004811D01*
X019446Y004934D01*
X019645Y005069D01*
X019728Y004946D01*
G37*
G36*
X019790Y004647D02*
X019655Y004846D01*
X019778Y004929D01*
X019913Y004730D01*
X019790Y004647D01*
G37*
G36*
X019921Y004736D02*
X019786Y004935D01*
X019909Y005018D01*
X020044Y004819D01*
X019921Y004736D01*
G37*
G36*
X020052Y004824D02*
X019917Y005023D01*
X020040Y005106D01*
X020175Y004907D01*
X020052Y004824D01*
G37*
G36*
X020182Y004912D02*
X020047Y005111D01*
X020170Y005194D01*
X020305Y004995D01*
X020182Y004912D01*
G37*
G36*
X018663Y004406D02*
X018862Y004541D01*
X018945Y004418D01*
X018746Y004283D01*
X018663Y004406D01*
G37*
G36*
X018575Y004536D02*
X018774Y004671D01*
X018857Y004548D01*
X018658Y004413D01*
X018575Y004536D01*
G37*
G36*
X018487Y004667D02*
X018686Y004802D01*
X018769Y004679D01*
X018570Y004544D01*
X018487Y004667D01*
G37*
G36*
X018336Y005096D02*
X018471Y004897D01*
X018348Y004814D01*
X018213Y005013D01*
X018336Y005096D01*
G37*
G36*
X018206Y005008D02*
X018341Y004809D01*
X018218Y004726D01*
X018083Y004925D01*
X018206Y005008D01*
G37*
G36*
X018075Y004920D02*
X018210Y004721D01*
X018087Y004638D01*
X017952Y004837D01*
X018075Y004920D01*
G37*
G36*
X017945Y004832D02*
X018080Y004633D01*
X017957Y004550D01*
X017822Y004749D01*
X017945Y004832D01*
G37*
G36*
X018158Y004457D02*
X017959Y004322D01*
X017876Y004445D01*
X018075Y004580D01*
X018158Y004457D01*
G37*
G36*
X018246Y004327D02*
X018047Y004192D01*
X017964Y004315D01*
X018163Y004450D01*
X018246Y004327D01*
G37*
G36*
X018334Y004196D02*
X018135Y004061D01*
X018052Y004184D01*
X018251Y004319D01*
X018334Y004196D01*
G37*
G36*
X018423Y004066D02*
X018224Y003931D01*
X018141Y004054D01*
X018340Y004189D01*
X018423Y004066D01*
G37*
G36*
X018485Y003767D02*
X018350Y003966D01*
X018473Y004049D01*
X018608Y003850D01*
X018485Y003767D01*
G37*
G36*
X018615Y003855D02*
X018480Y004054D01*
X018603Y004137D01*
X018738Y003938D01*
X018615Y003855D01*
G37*
G36*
X018746Y003943D02*
X018611Y004142D01*
X018734Y004225D01*
X018869Y004026D01*
X018746Y003943D01*
G37*
G36*
X018877Y004031D02*
X018742Y004230D01*
X018865Y004313D01*
X019000Y004114D01*
X018877Y004031D01*
G37*
D15*
G36*
X018333Y004754D02*
X018598Y004932D01*
X018681Y004810D01*
X018416Y004632D01*
X018333Y004754D01*
G37*
G36*
X019639Y005634D02*
X019904Y005812D01*
X019987Y005690D01*
X019722Y005512D01*
X019639Y005634D01*
G37*
G36*
X020944Y006515D02*
X021209Y006693D01*
X021292Y006571D01*
X021027Y006393D01*
X020944Y006515D01*
G37*
G36*
X022250Y007395D02*
X022515Y007573D01*
X022598Y007451D01*
X022333Y007273D01*
X022250Y007395D01*
G37*
G36*
X023555Y008276D02*
X023820Y008454D01*
X023903Y008332D01*
X023638Y008154D01*
X023555Y008276D01*
G37*
G36*
X024861Y009157D02*
X025126Y009335D01*
X025209Y009213D01*
X024944Y009035D01*
X024861Y009157D01*
G37*
G36*
X026166Y010037D02*
X026431Y010215D01*
X026514Y010093D01*
X026249Y009915D01*
X026166Y010037D01*
G37*
G36*
X027472Y010918D02*
X027737Y011096D01*
X027820Y010974D01*
X027555Y010796D01*
X027472Y010918D01*
G37*
G36*
X030142Y016758D02*
X029964Y017023D01*
X030086Y017106D01*
X030264Y016841D01*
X030142Y016758D01*
G37*
G36*
X029261Y018064D02*
X029083Y018329D01*
X029205Y018412D01*
X029383Y018147D01*
X029261Y018064D01*
G37*
G36*
X028381Y019369D02*
X028203Y019634D01*
X028325Y019717D01*
X028503Y019452D01*
X028381Y019369D01*
G37*
G36*
X027500Y020675D02*
X027322Y020940D01*
X027444Y021023D01*
X027622Y020758D01*
X027500Y020675D01*
G37*
G36*
X026620Y021980D02*
X026442Y022245D01*
X026564Y022328D01*
X026742Y022063D01*
X026620Y021980D01*
G37*
G36*
X025739Y023286D02*
X025561Y023551D01*
X025683Y023634D01*
X025861Y023369D01*
X025739Y023286D01*
G37*
G36*
X024858Y024592D02*
X024680Y024857D01*
X024802Y024940D01*
X024980Y024675D01*
X024858Y024592D01*
G37*
G36*
X023978Y025897D02*
X023800Y026162D01*
X023922Y026245D01*
X024100Y025980D01*
X023978Y025897D01*
G37*
G36*
X018138Y028567D02*
X017873Y028389D01*
X017790Y028511D01*
X018055Y028689D01*
X018138Y028567D01*
G37*
G36*
X016832Y027687D02*
X016567Y027509D01*
X016484Y027631D01*
X016749Y027809D01*
X016832Y027687D01*
G37*
G36*
X015526Y026806D02*
X015261Y026628D01*
X015178Y026750D01*
X015443Y026928D01*
X015526Y026806D01*
G37*
G36*
X014221Y025925D02*
X013956Y025747D01*
X013873Y025869D01*
X014138Y026047D01*
X014221Y025925D01*
G37*
G36*
X012915Y025045D02*
X012650Y024867D01*
X012567Y024989D01*
X012832Y025167D01*
X012915Y025045D01*
G37*
G36*
X011610Y024164D02*
X011345Y023986D01*
X011262Y024108D01*
X011527Y024286D01*
X011610Y024164D01*
G37*
G36*
X010304Y023284D02*
X010039Y023106D01*
X009956Y023228D01*
X010221Y023406D01*
X010304Y023284D01*
G37*
G36*
X008999Y022403D02*
X008734Y022225D01*
X008651Y022347D01*
X008916Y022525D01*
X008999Y022403D01*
G37*
G36*
X006328Y016563D02*
X006506Y016298D01*
X006384Y016215D01*
X006206Y016480D01*
X006328Y016563D01*
G37*
G36*
X007209Y015257D02*
X007387Y014992D01*
X007265Y014909D01*
X007087Y015174D01*
X007209Y015257D01*
G37*
G36*
X008090Y013952D02*
X008268Y013687D01*
X008146Y013604D01*
X007968Y013869D01*
X008090Y013952D01*
G37*
G36*
X008970Y012646D02*
X009148Y012381D01*
X009026Y012298D01*
X008848Y012563D01*
X008970Y012646D01*
G37*
G36*
X009851Y011340D02*
X010029Y011075D01*
X009907Y010992D01*
X009729Y011257D01*
X009851Y011340D01*
G37*
G36*
X010731Y010035D02*
X010909Y009770D01*
X010787Y009687D01*
X010609Y009952D01*
X010731Y010035D01*
G37*
G36*
X011612Y008729D02*
X011790Y008464D01*
X011668Y008381D01*
X011490Y008646D01*
X011612Y008729D01*
G37*
G36*
X012493Y007424D02*
X012671Y007159D01*
X012549Y007076D01*
X012371Y007341D01*
X012493Y007424D01*
G37*
D16*
X017485Y037245D03*
X017485Y037745D03*
X017485Y038245D03*
X017485Y038745D03*
X017485Y039245D03*
X017485Y039745D03*
X017485Y040245D03*
X017485Y040745D03*
X017485Y041245D03*
X017485Y041745D03*
X017985Y041745D03*
X017985Y041245D03*
X017985Y040745D03*
X017985Y040245D03*
X017985Y039745D03*
X017985Y039245D03*
X017985Y038745D03*
X017985Y038245D03*
X017985Y037745D03*
X017985Y037245D03*
X018485Y037245D03*
X018485Y037745D03*
X018485Y038245D03*
X018485Y038745D03*
X018485Y039245D03*
X018485Y039745D03*
X018485Y040245D03*
X018485Y040745D03*
X018485Y041245D03*
X018485Y041745D03*
X018985Y041745D03*
X018985Y041245D03*
X018985Y040745D03*
X018985Y040245D03*
X018985Y039745D03*
X018985Y039245D03*
X018985Y038745D03*
X018985Y038245D03*
X018985Y037745D03*
X018985Y037245D03*
X018985Y044097D03*
X018985Y044597D03*
X018985Y045097D03*
X018985Y045597D03*
X018985Y046097D03*
X018985Y046597D03*
X018985Y047097D03*
X018985Y047597D03*
X018985Y048097D03*
X018985Y048597D03*
X018485Y048597D03*
X017985Y048597D03*
X017985Y048097D03*
X018485Y048097D03*
X018485Y047597D03*
X017985Y047597D03*
X017985Y047097D03*
X018485Y047097D03*
X018485Y046597D03*
X017985Y046597D03*
X017985Y046097D03*
X018485Y046097D03*
X018485Y045597D03*
X017985Y045597D03*
X017985Y045097D03*
X018485Y045097D03*
X018485Y044597D03*
X017985Y044597D03*
X017985Y044097D03*
X018485Y044097D03*
X017485Y044097D03*
X017485Y044597D03*
X017485Y045097D03*
X017485Y045597D03*
X017485Y046097D03*
X017485Y046597D03*
X017485Y047097D03*
X017485Y047597D03*
X017485Y048097D03*
X017485Y048597D03*
D17*
G36*
X016288Y029792D02*
X016473Y029519D01*
X016176Y029318D01*
X015991Y029591D01*
X016288Y029792D01*
G37*
G36*
X016523Y029444D02*
X016708Y029171D01*
X016411Y028970D01*
X016226Y029243D01*
X016523Y029444D01*
G37*
G36*
X014782Y028269D02*
X014967Y027996D01*
X014670Y027795D01*
X014485Y028068D01*
X014782Y028269D01*
G37*
G36*
X014547Y028618D02*
X014732Y028345D01*
X014435Y028144D01*
X014250Y028417D01*
X014547Y028618D01*
G37*
G36*
X011107Y026297D02*
X011292Y026024D01*
X010995Y025823D01*
X010810Y026096D01*
X011107Y026297D01*
G37*
G36*
X011342Y025949D02*
X011527Y025676D01*
X011230Y025475D01*
X011045Y025748D01*
X011342Y025949D01*
G37*
G36*
X009518Y024718D02*
X009703Y024445D01*
X009406Y024244D01*
X009221Y024517D01*
X009518Y024718D01*
G37*
G36*
X009283Y025067D02*
X009468Y024794D01*
X009171Y024593D01*
X008986Y024866D01*
X009283Y025067D01*
G37*
G36*
X005452Y014948D02*
X005725Y015133D01*
X005926Y014836D01*
X005653Y014651D01*
X005452Y014948D01*
G37*
G36*
X005104Y014714D02*
X005377Y014899D01*
X005578Y014602D01*
X005305Y014417D01*
X005104Y014714D01*
G37*
G36*
X006278Y012973D02*
X006551Y013158D01*
X006752Y012861D01*
X006479Y012676D01*
X006278Y012973D01*
G37*
G36*
X006626Y013207D02*
X006899Y013392D01*
X007100Y013095D01*
X006827Y012910D01*
X006626Y013207D01*
G37*
G36*
X008599Y009532D02*
X008872Y009717D01*
X009073Y009420D01*
X008800Y009235D01*
X008599Y009532D01*
G37*
G36*
X008947Y009767D02*
X009220Y009952D01*
X009421Y009655D01*
X009148Y009470D01*
X008947Y009767D01*
G37*
G36*
X010177Y007943D02*
X010450Y008128D01*
X010651Y007831D01*
X010378Y007646D01*
X010177Y007943D01*
G37*
G36*
X009829Y007708D02*
X010102Y007893D01*
X010303Y007596D01*
X010030Y007411D01*
X009829Y007708D01*
G37*
G36*
X019906Y003849D02*
X019721Y004122D01*
X020018Y004323D01*
X020203Y004050D01*
X019906Y003849D01*
G37*
G36*
X020141Y003501D02*
X019956Y003774D01*
X020253Y003975D01*
X020438Y003702D01*
X020141Y003501D01*
G37*
G36*
X021730Y005079D02*
X021545Y005352D01*
X021842Y005553D01*
X022027Y005280D01*
X021730Y005079D01*
G37*
G36*
X021965Y004731D02*
X021780Y005004D01*
X022077Y005205D01*
X022262Y004932D01*
X021965Y004731D01*
G37*
G36*
X025364Y007024D02*
X025179Y007297D01*
X025476Y007498D01*
X025661Y007225D01*
X025364Y007024D01*
G37*
G36*
X025129Y007372D02*
X024944Y007645D01*
X025241Y007846D01*
X025426Y007573D01*
X025129Y007372D01*
G37*
G36*
X026994Y008630D02*
X026809Y008903D01*
X027106Y009104D01*
X027291Y008831D01*
X026994Y008630D01*
G37*
G36*
X027229Y008282D02*
X027044Y008555D01*
X027341Y008756D01*
X027526Y008483D01*
X027229Y008282D01*
G37*
G36*
X031046Y018331D02*
X030773Y018146D01*
X030572Y018443D01*
X030845Y018628D01*
X031046Y018331D01*
G37*
G36*
X031395Y018566D02*
X031122Y018381D01*
X030921Y018678D01*
X031194Y018863D01*
X031395Y018566D01*
G37*
G36*
X030164Y020390D02*
X029891Y020205D01*
X029690Y020502D01*
X029963Y020687D01*
X030164Y020390D01*
G37*
G36*
X029816Y020155D02*
X029543Y019970D01*
X029342Y020267D01*
X029615Y020452D01*
X029816Y020155D01*
G37*
G36*
X027524Y023554D02*
X027251Y023369D01*
X027050Y023666D01*
X027323Y023851D01*
X027524Y023554D01*
G37*
G36*
X027872Y023789D02*
X027599Y023604D01*
X027398Y023901D01*
X027671Y024086D01*
X027872Y023789D01*
G37*
G36*
X026642Y025613D02*
X026369Y025428D01*
X026168Y025725D01*
X026441Y025910D01*
X026642Y025613D01*
G37*
G36*
X026293Y025378D02*
X026020Y025193D01*
X025819Y025490D01*
X026092Y025675D01*
X026293Y025378D01*
G37*
D18*
G36*
X026810Y024809D02*
X026471Y024580D01*
X026202Y024977D01*
X026541Y025206D01*
X026810Y024809D01*
G37*
G36*
X027374Y025189D02*
X027035Y024960D01*
X026766Y025357D01*
X027105Y025586D01*
X027374Y025189D01*
G37*
G36*
X027821Y024526D02*
X027482Y024297D01*
X027213Y024694D01*
X027552Y024923D01*
X027821Y024526D01*
G37*
G36*
X027257Y024145D02*
X026918Y023916D01*
X026649Y024313D01*
X026988Y024542D01*
X027257Y024145D01*
G37*
G36*
X030333Y019586D02*
X029994Y019357D01*
X029725Y019754D01*
X030064Y019983D01*
X030333Y019586D01*
G37*
G36*
X030896Y019966D02*
X030557Y019737D01*
X030288Y020134D01*
X030627Y020363D01*
X030896Y019966D01*
G37*
G36*
X031344Y019303D02*
X031005Y019074D01*
X030736Y019471D01*
X031075Y019700D01*
X031344Y019303D01*
G37*
G36*
X030780Y018922D02*
X030441Y018693D01*
X030172Y019090D01*
X030511Y019319D01*
X030780Y018922D01*
G37*
G36*
X026425Y008114D02*
X026196Y008453D01*
X026593Y008722D01*
X026822Y008383D01*
X026425Y008114D01*
G37*
G36*
X026805Y007550D02*
X026576Y007889D01*
X026973Y008158D01*
X027202Y007819D01*
X026805Y007550D01*
G37*
G36*
X026100Y007075D02*
X025871Y007414D01*
X026268Y007683D01*
X026497Y007344D01*
X026100Y007075D01*
G37*
G36*
X025720Y007639D02*
X025491Y007978D01*
X025888Y008247D01*
X026117Y007908D01*
X025720Y007639D01*
G37*
G36*
X021541Y003999D02*
X021312Y004338D01*
X021709Y004607D01*
X021938Y004268D01*
X021541Y003999D01*
G37*
G36*
X021161Y004563D02*
X020932Y004902D01*
X021329Y005171D01*
X021558Y004832D01*
X021161Y004563D01*
G37*
G36*
X020497Y004116D02*
X020268Y004455D01*
X020665Y004724D01*
X020894Y004385D01*
X020497Y004116D01*
G37*
G36*
X020878Y003552D02*
X020649Y003891D01*
X021046Y004160D01*
X021275Y003821D01*
X020878Y003552D01*
G37*
G36*
X009661Y008512D02*
X010000Y008741D01*
X010269Y008344D01*
X009930Y008115D01*
X009661Y008512D01*
G37*
G36*
X009097Y008132D02*
X009436Y008361D01*
X009705Y007964D01*
X009366Y007735D01*
X009097Y008132D01*
G37*
G36*
X008650Y008795D02*
X008989Y009024D01*
X009258Y008627D01*
X008919Y008398D01*
X008650Y008795D01*
G37*
G36*
X009213Y009175D02*
X009552Y009404D01*
X009821Y009007D01*
X009482Y008778D01*
X009213Y009175D01*
G37*
G36*
X006138Y013735D02*
X006477Y013964D01*
X006746Y013567D01*
X006407Y013338D01*
X006138Y013735D01*
G37*
G36*
X005574Y013355D02*
X005913Y013584D01*
X006182Y013187D01*
X005843Y012958D01*
X005574Y013355D01*
G37*
G36*
X005127Y014018D02*
X005466Y014247D01*
X005735Y013850D01*
X005396Y013621D01*
X005127Y014018D01*
G37*
G36*
X005690Y014398D02*
X006029Y014627D01*
X006298Y014230D01*
X005959Y014001D01*
X005690Y014398D01*
G37*
G36*
X010087Y025235D02*
X010316Y024896D01*
X009919Y024627D01*
X009690Y024966D01*
X010087Y025235D01*
G37*
G36*
X009707Y025799D02*
X009936Y025460D01*
X009539Y025191D01*
X009310Y025530D01*
X009707Y025799D01*
G37*
G36*
X010370Y026246D02*
X010599Y025907D01*
X010202Y025638D01*
X009973Y025977D01*
X010370Y026246D01*
G37*
G36*
X010750Y025682D02*
X010979Y025343D01*
X010582Y025074D01*
X010353Y025413D01*
X010750Y025682D01*
G37*
G36*
X014930Y029322D02*
X015159Y028983D01*
X014762Y028714D01*
X014533Y029053D01*
X014930Y029322D01*
G37*
G36*
X015310Y028758D02*
X015539Y028419D01*
X015142Y028150D01*
X014913Y028489D01*
X015310Y028758D01*
G37*
G36*
X015973Y029205D02*
X016202Y028866D01*
X015805Y028597D01*
X015576Y028936D01*
X015973Y029205D01*
G37*
G36*
X015593Y029769D02*
X015822Y029430D01*
X015425Y029161D01*
X015196Y029500D01*
X015593Y029769D01*
G37*
D19*
X033535Y038960D03*
X033535Y039960D03*
X033535Y040960D03*
D20*
X033535Y041960D03*
D21*
X033735Y043660D03*
X033735Y045660D03*
X033735Y047660D03*
X033735Y037160D03*
X033735Y035160D03*
M02*
