G75*
%MOIN*%
%OFA0B0*%
%FSLAX25Y25*%
%IPPOS*%
%LPD*%
%AMOC8*
5,1,8,0,0,1.08239X$1,22.5*
%
%ADD10C,0.00000*%
D10*
X0025463Y0043179D02*
X0025463Y0074675D01*
X0025462Y0043179D02*
X0025855Y0042472D01*
X0026266Y0041774D01*
X0026694Y0041087D01*
X0027138Y0040411D01*
X0027599Y0039745D01*
X0028075Y0039091D01*
X0028568Y0038449D01*
X0029076Y0037819D01*
X0029599Y0037202D01*
X0030138Y0036598D01*
X0030691Y0036007D01*
X0031258Y0035430D01*
X0031839Y0034866D01*
X0032434Y0034317D01*
X0033042Y0033783D01*
X0033662Y0033264D01*
X0034296Y0032760D01*
X0034941Y0032272D01*
X0035598Y0031800D01*
X0036267Y0031344D01*
X0036946Y0030904D01*
X0037636Y0030481D01*
X0038337Y0030075D01*
X0039046Y0029686D01*
X0039766Y0029315D01*
X0040494Y0028962D01*
X0041230Y0028626D01*
X0041974Y0028308D01*
X0042726Y0028009D01*
X0043485Y0027728D01*
X0044251Y0027466D01*
X0045023Y0027223D01*
X0045800Y0026998D01*
X0046583Y0026793D01*
X0047371Y0026607D01*
X0048163Y0026440D01*
X0048958Y0026292D01*
X0049757Y0026164D01*
X0050559Y0026056D01*
X0051364Y0025967D01*
X0052170Y0025898D01*
X0052978Y0025849D01*
X0053787Y0025819D01*
X0054596Y0025809D01*
X0055405Y0025819D01*
X0056214Y0025849D01*
X0057022Y0025898D01*
X0057828Y0025967D01*
X0058633Y0026056D01*
X0059435Y0026164D01*
X0060234Y0026292D01*
X0061029Y0026440D01*
X0061821Y0026607D01*
X0062609Y0026793D01*
X0063392Y0026998D01*
X0064169Y0027223D01*
X0064941Y0027466D01*
X0065707Y0027728D01*
X0066466Y0028009D01*
X0067218Y0028308D01*
X0067962Y0028626D01*
X0068698Y0028962D01*
X0069426Y0029315D01*
X0070146Y0029686D01*
X0070855Y0030075D01*
X0071556Y0030481D01*
X0072246Y0030904D01*
X0072925Y0031344D01*
X0073594Y0031800D01*
X0074251Y0032272D01*
X0074896Y0032760D01*
X0075530Y0033264D01*
X0076150Y0033783D01*
X0076758Y0034317D01*
X0077353Y0034866D01*
X0077934Y0035430D01*
X0078501Y0036007D01*
X0079054Y0036598D01*
X0079593Y0037202D01*
X0080116Y0037819D01*
X0080624Y0038449D01*
X0081117Y0039091D01*
X0081593Y0039745D01*
X0082054Y0040411D01*
X0082498Y0041087D01*
X0082926Y0041774D01*
X0083337Y0042472D01*
X0083730Y0043179D01*
X0083730Y0074675D01*
X0083337Y0075382D01*
X0082926Y0076080D01*
X0082498Y0076767D01*
X0082054Y0077443D01*
X0081593Y0078109D01*
X0081117Y0078763D01*
X0080624Y0079405D01*
X0080116Y0080035D01*
X0079593Y0080652D01*
X0079054Y0081256D01*
X0078501Y0081847D01*
X0077934Y0082424D01*
X0077353Y0082988D01*
X0076758Y0083537D01*
X0076150Y0084071D01*
X0075530Y0084590D01*
X0074896Y0085094D01*
X0074251Y0085582D01*
X0073594Y0086054D01*
X0072925Y0086510D01*
X0072246Y0086950D01*
X0071556Y0087373D01*
X0070855Y0087779D01*
X0070146Y0088168D01*
X0069426Y0088539D01*
X0068698Y0088892D01*
X0067962Y0089228D01*
X0067218Y0089546D01*
X0066466Y0089845D01*
X0065707Y0090126D01*
X0064941Y0090388D01*
X0064169Y0090631D01*
X0063392Y0090856D01*
X0062609Y0091061D01*
X0061821Y0091247D01*
X0061029Y0091414D01*
X0060234Y0091562D01*
X0059435Y0091690D01*
X0058633Y0091798D01*
X0057828Y0091887D01*
X0057022Y0091956D01*
X0056214Y0092005D01*
X0055405Y0092035D01*
X0054596Y0092045D01*
X0053787Y0092035D01*
X0052978Y0092005D01*
X0052170Y0091956D01*
X0051364Y0091887D01*
X0050559Y0091798D01*
X0049757Y0091690D01*
X0048958Y0091562D01*
X0048163Y0091414D01*
X0047371Y0091247D01*
X0046583Y0091061D01*
X0045800Y0090856D01*
X0045023Y0090631D01*
X0044251Y0090388D01*
X0043485Y0090126D01*
X0042726Y0089845D01*
X0041974Y0089546D01*
X0041230Y0089228D01*
X0040494Y0088892D01*
X0039766Y0088539D01*
X0039046Y0088168D01*
X0038337Y0087779D01*
X0037636Y0087373D01*
X0036946Y0086950D01*
X0036267Y0086510D01*
X0035598Y0086054D01*
X0034941Y0085582D01*
X0034296Y0085094D01*
X0033662Y0084590D01*
X0033042Y0084071D01*
X0032434Y0083537D01*
X0031839Y0082988D01*
X0031258Y0082424D01*
X0030691Y0081847D01*
X0030138Y0081256D01*
X0029599Y0080652D01*
X0029076Y0080035D01*
X0028568Y0079405D01*
X0028075Y0078763D01*
X0027599Y0078109D01*
X0027138Y0077443D01*
X0026694Y0076767D01*
X0026266Y0076080D01*
X0025855Y0075382D01*
X0025462Y0074675D01*
M02*
