G75*
%MOIN*%
%OFA0B0*%
%FSLAX25Y25*%
%IPPOS*%
%LPD*%
%AMOC8*
5,1,8,0,0,1.08239X$1,22.5*
%
%ADD10C,0.02953*%
%ADD11C,0.02100*%
%ADD12C,0.01387*%
%ADD13C,0.00500*%
%ADD14C,0.00591*%
D10*
X0054596Y0034911D03*
X0032943Y0073494D03*
X0029400Y0073100D03*
X0032156Y0077037D03*
X0054596Y0084911D03*
X0077037Y0077037D03*
X0076250Y0073494D03*
X0079793Y0073100D03*
D11*
X0072994Y0073880D03*
X0073629Y0076723D03*
X0072919Y0079559D03*
X0071213Y0081898D03*
X0068374Y0081043D03*
X0066955Y0083598D03*
X0064701Y0085416D03*
X0062181Y0083855D03*
X0063053Y0081076D03*
X0060148Y0085956D03*
X0057501Y0087129D03*
X0051692Y0087129D03*
X0049045Y0085956D03*
X0047012Y0083855D03*
X0046140Y0081076D03*
X0044492Y0085416D03*
X0042238Y0083598D03*
X0040819Y0081043D03*
X0040695Y0078132D03*
X0037980Y0081898D03*
X0036274Y0079559D03*
X0035564Y0076723D03*
X0036199Y0073880D03*
X0031415Y0053957D03*
X0029559Y0051711D03*
X0028904Y0048862D03*
X0029363Y0046004D03*
X0032280Y0045477D03*
X0032384Y0042555D03*
X0033568Y0039913D03*
X0036522Y0040159D03*
X0037006Y0043032D03*
X0037379Y0037364D03*
X0039205Y0035118D03*
X0041995Y0036121D03*
X0043546Y0033643D03*
X0045892Y0031946D03*
X0048327Y0033636D03*
X0050467Y0031644D03*
X0053172Y0030612D03*
X0056021Y0030612D03*
X0058726Y0031644D03*
X0060866Y0033636D03*
X0061882Y0036366D03*
X0063301Y0031946D03*
X0065647Y0033643D03*
X0067198Y0036121D03*
X0067473Y0039021D03*
X0069988Y0035118D03*
X0071814Y0037364D03*
X0072671Y0040159D03*
X0072187Y0043032D03*
X0075625Y0039913D03*
X0076809Y0042555D03*
X0076913Y0045477D03*
X0075701Y0048126D03*
X0079830Y0046004D03*
X0080289Y0048862D03*
X0079634Y0051711D03*
X0077778Y0053957D03*
X0068497Y0078132D03*
X0033492Y0048126D03*
X0041720Y0039021D03*
X0047311Y0036366D03*
D12*
X0046722Y0028809D03*
X0039636Y0031565D03*
X0032943Y0036683D03*
X0029400Y0040620D03*
X0028056Y0054793D03*
X0031762Y0061683D03*
X0029793Y0062077D03*
X0029400Y0064045D03*
X0032549Y0064045D03*
X0034124Y0061683D03*
X0035699Y0064045D03*
X0037274Y0061683D03*
X0038848Y0064045D03*
X0040423Y0061683D03*
X0041998Y0064045D03*
X0043573Y0061683D03*
X0045148Y0064045D03*
X0046722Y0061683D03*
X0048297Y0064045D03*
X0049872Y0061683D03*
X0051447Y0064045D03*
X0053022Y0061683D03*
X0054596Y0064045D03*
X0056171Y0061683D03*
X0057746Y0064045D03*
X0059321Y0061683D03*
X0060896Y0064045D03*
X0062470Y0061683D03*
X0064045Y0064045D03*
X0065620Y0061683D03*
X0067195Y0064045D03*
X0068770Y0061683D03*
X0070344Y0064045D03*
X0071919Y0061683D03*
X0073494Y0064045D03*
X0075069Y0061683D03*
X0076644Y0064045D03*
X0077431Y0061683D03*
X0079793Y0061683D03*
X0079793Y0054793D03*
X0073494Y0054793D03*
X0070344Y0054793D03*
X0067195Y0054793D03*
X0064045Y0054793D03*
X0060896Y0054793D03*
X0057746Y0054793D03*
X0054596Y0054793D03*
X0051447Y0054793D03*
X0048297Y0054793D03*
X0045148Y0054793D03*
X0041998Y0054793D03*
X0038848Y0054793D03*
X0035699Y0054793D03*
X0037274Y0070935D03*
X0040423Y0070935D03*
X0043573Y0070935D03*
X0046722Y0070935D03*
X0049872Y0070935D03*
X0053022Y0070935D03*
X0056171Y0070935D03*
X0059321Y0070935D03*
X0062470Y0070935D03*
X0065620Y0070935D03*
X0068770Y0070935D03*
X0071919Y0070935D03*
X0075069Y0070935D03*
X0078219Y0070935D03*
X0081368Y0070935D03*
X0072707Y0084321D03*
X0065620Y0088258D03*
X0054596Y0090226D03*
X0043573Y0088258D03*
X0036093Y0083927D03*
X0034124Y0070935D03*
X0030974Y0070935D03*
X0068376Y0031171D03*
X0062864Y0028809D03*
X0054596Y0027628D03*
X0074675Y0035108D03*
X0079006Y0039833D03*
D13*
X0035778Y0035996D02*
X0032218Y0035996D01*
X0031998Y0036175D02*
X0028009Y0040998D01*
X0026513Y0043470D01*
X0026513Y0053871D01*
X0027334Y0053050D01*
X0027928Y0053050D01*
X0027459Y0052581D01*
X0027459Y0050841D01*
X0027686Y0050614D01*
X0026804Y0049732D01*
X0026804Y0047992D01*
X0027593Y0047203D01*
X0027263Y0046873D01*
X0027263Y0045134D01*
X0028493Y0043904D01*
X0030233Y0043904D01*
X0030558Y0044229D01*
X0030823Y0043964D01*
X0030284Y0043425D01*
X0030284Y0041686D01*
X0031468Y0040502D01*
X0031468Y0039043D01*
X0032698Y0037813D01*
X0034437Y0037813D01*
X0035168Y0038543D01*
X0035378Y0038333D01*
X0035279Y0038234D01*
X0035279Y0036495D01*
X0036509Y0035264D01*
X0037105Y0035264D01*
X0037105Y0034248D01*
X0038335Y0033018D01*
X0040075Y0033018D01*
X0041101Y0034044D01*
X0041125Y0034021D01*
X0041446Y0034021D01*
X0041446Y0032773D01*
X0042676Y0031543D01*
X0043792Y0031543D01*
X0043792Y0031076D01*
X0045022Y0029846D01*
X0046762Y0029846D01*
X0047992Y0031076D01*
X0047992Y0031536D01*
X0048367Y0031536D01*
X0048367Y0030774D01*
X0049597Y0029544D01*
X0051270Y0029544D01*
X0052302Y0028512D01*
X0054042Y0028512D01*
X0054596Y0029067D01*
X0055151Y0028512D01*
X0056891Y0028512D01*
X0057923Y0029544D01*
X0059596Y0029544D01*
X0060826Y0030774D01*
X0060826Y0031536D01*
X0061201Y0031536D01*
X0061201Y0031076D01*
X0062431Y0029846D01*
X0064171Y0029846D01*
X0065401Y0031076D01*
X0065401Y0031543D01*
X0066517Y0031543D01*
X0067747Y0032773D01*
X0067747Y0034021D01*
X0068068Y0034021D01*
X0068092Y0034044D01*
X0069118Y0033018D01*
X0070857Y0033018D01*
X0072088Y0034248D01*
X0072088Y0035264D01*
X0072684Y0035264D01*
X0073914Y0036495D01*
X0073914Y0038234D01*
X0073815Y0038333D01*
X0074025Y0038543D01*
X0074756Y0037813D01*
X0076495Y0037813D01*
X0077725Y0039043D01*
X0077725Y0040502D01*
X0078908Y0041686D01*
X0078908Y0043425D01*
X0078370Y0043964D01*
X0078635Y0044229D01*
X0078960Y0043904D01*
X0080700Y0043904D01*
X0081930Y0045134D01*
X0081930Y0046873D01*
X0081600Y0047203D01*
X0082389Y0047992D01*
X0082389Y0049732D01*
X0081507Y0050614D01*
X0081734Y0050841D01*
X0081734Y0052581D01*
X0080890Y0053424D01*
X0081537Y0054071D01*
X0081537Y0055516D01*
X0080516Y0056537D01*
X0079071Y0056537D01*
X0078591Y0056057D01*
X0076908Y0056057D01*
X0075678Y0054826D01*
X0075678Y0053087D01*
X0076908Y0051857D01*
X0077534Y0051857D01*
X0077534Y0050841D01*
X0078416Y0049959D01*
X0078189Y0049732D01*
X0078189Y0047992D01*
X0078519Y0047662D01*
X0078108Y0047251D01*
X0077801Y0047558D01*
X0077801Y0048996D01*
X0076571Y0050226D01*
X0074831Y0050226D01*
X0073601Y0048996D01*
X0073601Y0047256D01*
X0074813Y0046045D01*
X0074813Y0044607D01*
X0075352Y0044068D01*
X0074709Y0043425D01*
X0074709Y0041966D01*
X0074271Y0041529D01*
X0073962Y0041838D01*
X0074287Y0042162D01*
X0074287Y0043902D01*
X0073056Y0045132D01*
X0071317Y0045132D01*
X0070087Y0043902D01*
X0070087Y0042162D01*
X0070895Y0041353D01*
X0070571Y0041029D01*
X0070571Y0039289D01*
X0070670Y0039190D01*
X0069714Y0038234D01*
X0069714Y0037218D01*
X0069118Y0037218D01*
X0069094Y0037194D01*
X0068855Y0037433D01*
X0069573Y0038151D01*
X0069573Y0039891D01*
X0068343Y0041121D01*
X0066603Y0041121D01*
X0065373Y0039891D01*
X0065373Y0038151D01*
X0065816Y0037709D01*
X0065098Y0036990D01*
X0065098Y0035743D01*
X0064777Y0035743D01*
X0063547Y0034513D01*
X0063547Y0034046D01*
X0062966Y0034046D01*
X0062966Y0034480D01*
X0063982Y0035497D01*
X0064531Y0035497D01*
X0063982Y0035497D02*
X0063982Y0037236D01*
X0062752Y0038466D01*
X0061013Y0038466D01*
X0059782Y0037236D01*
X0059782Y0035523D01*
X0058766Y0034506D01*
X0058766Y0033744D01*
X0057856Y0033744D01*
X0056824Y0032712D01*
X0055151Y0032712D01*
X0054596Y0032158D01*
X0054042Y0032712D01*
X0052368Y0032712D01*
X0051337Y0033744D01*
X0050427Y0033744D01*
X0050427Y0034506D01*
X0049410Y0035523D01*
X0049410Y0037236D01*
X0048180Y0038466D01*
X0046441Y0038466D01*
X0045211Y0037236D01*
X0045211Y0035497D01*
X0044662Y0035497D01*
X0044416Y0035743D02*
X0045646Y0034513D01*
X0045646Y0034046D01*
X0046227Y0034046D01*
X0046227Y0034480D01*
X0045211Y0035497D01*
X0045211Y0035996D02*
X0044095Y0035996D01*
X0044095Y0035743D02*
X0044095Y0036990D01*
X0043377Y0037709D01*
X0043820Y0038151D01*
X0043820Y0039891D01*
X0042589Y0041121D01*
X0040850Y0041121D01*
X0039620Y0039891D01*
X0039620Y0038151D01*
X0040338Y0037433D01*
X0040099Y0037194D01*
X0040075Y0037218D01*
X0039479Y0037218D01*
X0039479Y0038234D01*
X0038523Y0039190D01*
X0038622Y0039289D01*
X0038622Y0041029D01*
X0038297Y0041353D01*
X0039106Y0042162D01*
X0039106Y0043902D01*
X0037876Y0045132D01*
X0036136Y0045132D01*
X0034906Y0043902D01*
X0034906Y0042162D01*
X0035231Y0041838D01*
X0034921Y0041529D01*
X0034484Y0041966D01*
X0034484Y0043425D01*
X0033841Y0044068D01*
X0034380Y0044607D01*
X0034380Y0046045D01*
X0035592Y0047256D01*
X0035592Y0048996D01*
X0034362Y0050226D01*
X0032622Y0050226D01*
X0031392Y0048996D01*
X0031392Y0047558D01*
X0031085Y0047251D01*
X0030674Y0047662D01*
X0031004Y0047992D01*
X0031004Y0049732D01*
X0030777Y0049959D01*
X0031659Y0050841D01*
X0031659Y0051857D01*
X0032285Y0051857D01*
X0033515Y0053087D01*
X0033515Y0054826D01*
X0032285Y0056057D01*
X0030546Y0056057D01*
X0029800Y0055311D01*
X0029800Y0055516D01*
X0028778Y0056537D01*
X0028383Y0056537D01*
X0028383Y0061021D01*
X0029071Y0060333D01*
X0030516Y0060333D01*
X0030581Y0060398D01*
X0031040Y0059939D01*
X0032484Y0059939D01*
X0032943Y0060398D01*
X0033402Y0059939D01*
X0034846Y0059939D01*
X0035699Y0060792D01*
X0036551Y0059939D01*
X0037996Y0059939D01*
X0038848Y0060792D01*
X0039701Y0059939D01*
X0041145Y0059939D01*
X0041998Y0060792D01*
X0042851Y0059939D01*
X0044295Y0059939D01*
X0045148Y0060792D01*
X0046000Y0059939D01*
X0047445Y0059939D01*
X0048297Y0060792D01*
X0049150Y0059939D01*
X0050594Y0059939D01*
X0051447Y0060792D01*
X0052299Y0059939D01*
X0053744Y0059939D01*
X0054596Y0060792D01*
X0055449Y0059939D01*
X0056894Y0059939D01*
X0057746Y0060792D01*
X0058599Y0059939D01*
X0060043Y0059939D01*
X0060896Y0060792D01*
X0061748Y0059939D01*
X0063193Y0059939D01*
X0064045Y0060792D01*
X0064898Y0059939D01*
X0066342Y0059939D01*
X0067195Y0060792D01*
X0068047Y0059939D01*
X0069492Y0059939D01*
X0070344Y0060792D01*
X0071197Y0059939D01*
X0072642Y0059939D01*
X0073494Y0060792D01*
X0074347Y0059939D01*
X0075791Y0059939D01*
X0076250Y0060398D01*
X0076709Y0059939D01*
X0078153Y0059939D01*
X0078612Y0060398D01*
X0079071Y0059939D01*
X0080516Y0059939D01*
X0081537Y0060961D01*
X0081537Y0062405D01*
X0080516Y0063427D01*
X0079071Y0063427D01*
X0078612Y0062968D01*
X0078322Y0063258D01*
X0078387Y0063323D01*
X0078387Y0064768D01*
X0077366Y0065789D01*
X0075921Y0065789D01*
X0075069Y0064936D01*
X0074216Y0065789D01*
X0072772Y0065789D01*
X0071919Y0064936D01*
X0071067Y0065789D01*
X0069622Y0065789D01*
X0068770Y0064936D01*
X0067917Y0065789D01*
X0066473Y0065789D01*
X0065620Y0064936D01*
X0064768Y0065789D01*
X0063323Y0065789D01*
X0062470Y0064936D01*
X0061618Y0065789D01*
X0060173Y0065789D01*
X0059321Y0064936D01*
X0058468Y0065789D01*
X0057024Y0065789D01*
X0056171Y0064936D01*
X0055319Y0065789D01*
X0053874Y0065789D01*
X0053022Y0064936D01*
X0052169Y0065789D01*
X0050725Y0065789D01*
X0049872Y0064936D01*
X0049020Y0065789D01*
X0047575Y0065789D01*
X0046722Y0064936D01*
X0045870Y0065789D01*
X0044425Y0065789D01*
X0043573Y0064936D01*
X0042720Y0065789D01*
X0041276Y0065789D01*
X0040423Y0064936D01*
X0039571Y0065789D01*
X0038126Y0065789D01*
X0037274Y0064936D01*
X0036421Y0065789D01*
X0034977Y0065789D01*
X0034124Y0064936D01*
X0033271Y0065789D01*
X0031827Y0065789D01*
X0030974Y0064936D01*
X0030122Y0065789D01*
X0028677Y0065789D01*
X0028383Y0065494D01*
X0028383Y0070787D01*
X0028897Y0070574D01*
X0029231Y0070574D01*
X0029231Y0070213D01*
X0030252Y0069191D01*
X0031697Y0069191D01*
X0032549Y0070044D01*
X0033402Y0069191D01*
X0034846Y0069191D01*
X0035699Y0070044D01*
X0036551Y0069191D01*
X0037996Y0069191D01*
X0038848Y0070044D01*
X0039701Y0069191D01*
X0041145Y0069191D01*
X0041998Y0070044D01*
X0042851Y0069191D01*
X0044295Y0069191D01*
X0045148Y0070044D01*
X0046000Y0069191D01*
X0047445Y0069191D01*
X0048297Y0070044D01*
X0049150Y0069191D01*
X0050594Y0069191D01*
X0051447Y0070044D01*
X0052299Y0069191D01*
X0053744Y0069191D01*
X0054596Y0070044D01*
X0055449Y0069191D01*
X0056894Y0069191D01*
X0057746Y0070044D01*
X0058599Y0069191D01*
X0060043Y0069191D01*
X0060896Y0070044D01*
X0061748Y0069191D01*
X0063193Y0069191D01*
X0064045Y0070044D01*
X0064898Y0069191D01*
X0066342Y0069191D01*
X0067195Y0070044D01*
X0068047Y0069191D01*
X0069492Y0069191D01*
X0070344Y0070044D01*
X0071197Y0069191D01*
X0072642Y0069191D01*
X0073494Y0070044D01*
X0074347Y0069191D01*
X0075791Y0069191D01*
X0076644Y0070044D01*
X0077496Y0069191D01*
X0078941Y0069191D01*
X0079962Y0070213D01*
X0079962Y0070574D01*
X0080296Y0070574D01*
X0081224Y0070959D01*
X0081935Y0071669D01*
X0082320Y0072598D01*
X0082320Y0073603D01*
X0081935Y0074531D01*
X0081224Y0075242D01*
X0080296Y0075627D01*
X0079291Y0075627D01*
X0078362Y0075242D01*
X0078219Y0075098D01*
X0077681Y0075636D01*
X0076753Y0076020D01*
X0075747Y0076020D01*
X0075729Y0076013D01*
X0075729Y0077593D01*
X0074826Y0078496D01*
X0075019Y0078689D01*
X0075019Y0080429D01*
X0073789Y0081659D01*
X0073313Y0081659D01*
X0073313Y0082768D01*
X0072082Y0083998D01*
X0070343Y0083998D01*
X0069366Y0083021D01*
X0069244Y0083143D01*
X0069055Y0083143D01*
X0069055Y0084468D01*
X0067825Y0085698D01*
X0066801Y0085698D01*
X0066801Y0086286D01*
X0065571Y0087516D01*
X0063831Y0087516D01*
X0062601Y0086286D01*
X0062601Y0085955D01*
X0062248Y0085955D01*
X0062248Y0086826D01*
X0061018Y0088056D01*
X0059543Y0088056D01*
X0058371Y0089228D01*
X0056631Y0089228D01*
X0055401Y0087998D01*
X0055401Y0086259D01*
X0056631Y0085029D01*
X0058106Y0085029D01*
X0059279Y0083856D01*
X0060081Y0083856D01*
X0060081Y0082985D01*
X0061037Y0082029D01*
X0060953Y0081945D01*
X0060953Y0080206D01*
X0062183Y0078976D01*
X0063923Y0078976D01*
X0065153Y0080206D01*
X0065153Y0081945D01*
X0064197Y0082902D01*
X0064281Y0082985D01*
X0064281Y0083316D01*
X0064855Y0083316D01*
X0064855Y0082729D01*
X0066085Y0081498D01*
X0066274Y0081498D01*
X0066274Y0080173D01*
X0066921Y0079526D01*
X0066397Y0079002D01*
X0066397Y0077262D01*
X0067628Y0076032D01*
X0069367Y0076032D01*
X0070597Y0077262D01*
X0070597Y0079002D01*
X0069950Y0079649D01*
X0070221Y0079920D01*
X0070343Y0079798D01*
X0070819Y0079798D01*
X0070819Y0078689D01*
X0071722Y0077787D01*
X0071529Y0077593D01*
X0071529Y0075854D01*
X0071763Y0075619D01*
X0070894Y0074750D01*
X0070894Y0073010D01*
X0071226Y0072679D01*
X0071197Y0072679D01*
X0070344Y0071826D01*
X0069492Y0072679D01*
X0068047Y0072679D01*
X0067195Y0071826D01*
X0066342Y0072679D01*
X0064898Y0072679D01*
X0064045Y0071826D01*
X0063193Y0072679D01*
X0061748Y0072679D01*
X0060896Y0071826D01*
X0060043Y0072679D01*
X0058599Y0072679D01*
X0057746Y0071826D01*
X0056894Y0072679D01*
X0055449Y0072679D01*
X0054596Y0071826D01*
X0053744Y0072679D01*
X0052299Y0072679D01*
X0051447Y0071826D01*
X0050594Y0072679D01*
X0049150Y0072679D01*
X0048297Y0071826D01*
X0047445Y0072679D01*
X0046000Y0072679D01*
X0045148Y0071826D01*
X0044295Y0072679D01*
X0042851Y0072679D01*
X0041998Y0071826D01*
X0041145Y0072679D01*
X0039701Y0072679D01*
X0038848Y0071826D01*
X0037996Y0072679D01*
X0037967Y0072679D01*
X0038299Y0073010D01*
X0038299Y0074750D01*
X0037429Y0075619D01*
X0037664Y0075854D01*
X0037664Y0077593D01*
X0037471Y0077787D01*
X0038374Y0078689D01*
X0038374Y0079798D01*
X0038850Y0079798D01*
X0038972Y0079920D01*
X0039243Y0079649D01*
X0038595Y0079002D01*
X0038595Y0077262D01*
X0039826Y0076032D01*
X0041565Y0076032D01*
X0042795Y0077262D01*
X0042795Y0079002D01*
X0042272Y0079526D01*
X0042919Y0080173D01*
X0042919Y0081498D01*
X0043108Y0081498D01*
X0044338Y0082729D01*
X0044338Y0083316D01*
X0044912Y0083316D01*
X0044912Y0082985D01*
X0044996Y0082902D01*
X0044040Y0081945D01*
X0044040Y0080206D01*
X0045270Y0078976D01*
X0047010Y0078976D01*
X0048240Y0080206D01*
X0048240Y0081945D01*
X0048156Y0082029D01*
X0049112Y0082985D01*
X0049112Y0083856D01*
X0049914Y0083856D01*
X0051086Y0085029D01*
X0052562Y0085029D01*
X0053792Y0086259D01*
X0053792Y0087998D01*
X0052562Y0089228D01*
X0050822Y0089228D01*
X0049650Y0088056D01*
X0048175Y0088056D01*
X0046945Y0086826D01*
X0046945Y0085955D01*
X0046592Y0085955D01*
X0046592Y0086286D01*
X0045362Y0087516D01*
X0043622Y0087516D01*
X0042392Y0086286D01*
X0042392Y0085698D01*
X0041368Y0085698D01*
X0040138Y0084468D01*
X0040138Y0083143D01*
X0039949Y0083143D01*
X0039827Y0083021D01*
X0038850Y0083998D01*
X0037110Y0083998D01*
X0035880Y0082768D01*
X0035880Y0081659D01*
X0035404Y0081659D01*
X0034174Y0080429D01*
X0034174Y0078689D01*
X0034367Y0078496D01*
X0034310Y0078439D01*
X0034297Y0078468D01*
X0033587Y0079179D01*
X0032658Y0079564D01*
X0031653Y0079564D01*
X0030724Y0079179D01*
X0030014Y0078468D01*
X0029978Y0078383D01*
X0029272Y0078383D01*
X0031998Y0081679D01*
X0036849Y0085636D01*
X0042375Y0088575D01*
X0048367Y0090384D01*
X0054596Y0090995D01*
X0060826Y0090384D01*
X0066818Y0088575D01*
X0072344Y0085636D01*
X0077194Y0081679D01*
X0081184Y0076856D01*
X0082680Y0074385D01*
X0082680Y0043470D01*
X0081184Y0040998D01*
X0077194Y0036175D01*
X0072344Y0032218D01*
X0066818Y0029280D01*
X0060826Y0027470D01*
X0054596Y0026859D01*
X0048367Y0027470D01*
X0042375Y0029280D01*
X0036849Y0032218D01*
X0031998Y0036175D01*
X0031734Y0036494D02*
X0035279Y0036494D01*
X0035279Y0036993D02*
X0031322Y0036993D01*
X0030910Y0037491D02*
X0035279Y0037491D01*
X0035279Y0037990D02*
X0034614Y0037990D01*
X0035113Y0038488D02*
X0035223Y0038488D01*
X0036276Y0035497D02*
X0032829Y0035497D01*
X0033440Y0034999D02*
X0037105Y0034999D01*
X0037105Y0034500D02*
X0034052Y0034500D01*
X0034663Y0034002D02*
X0037352Y0034002D01*
X0037851Y0033503D02*
X0035274Y0033503D01*
X0035885Y0033005D02*
X0041446Y0033005D01*
X0041446Y0033503D02*
X0040560Y0033503D01*
X0041059Y0034002D02*
X0041446Y0034002D01*
X0041713Y0032506D02*
X0036496Y0032506D01*
X0037245Y0032008D02*
X0042212Y0032008D01*
X0043792Y0031509D02*
X0038183Y0031509D01*
X0039120Y0031011D02*
X0043858Y0031011D01*
X0044356Y0030512D02*
X0040058Y0030512D01*
X0040995Y0030014D02*
X0044855Y0030014D01*
X0044898Y0028518D02*
X0052296Y0028518D01*
X0051798Y0029016D02*
X0043247Y0029016D01*
X0041932Y0029515D02*
X0051299Y0029515D01*
X0049128Y0030014D02*
X0046929Y0030014D01*
X0047428Y0030512D02*
X0048629Y0030512D01*
X0048367Y0031011D02*
X0047926Y0031011D01*
X0047992Y0031509D02*
X0048367Y0031509D01*
X0050427Y0034002D02*
X0058766Y0034002D01*
X0058766Y0034500D02*
X0050427Y0034500D01*
X0049935Y0034999D02*
X0059258Y0034999D01*
X0059757Y0035497D02*
X0049436Y0035497D01*
X0049410Y0035996D02*
X0059782Y0035996D01*
X0059782Y0036494D02*
X0049410Y0036494D01*
X0049410Y0036993D02*
X0059782Y0036993D01*
X0060037Y0037491D02*
X0049156Y0037491D01*
X0048657Y0037990D02*
X0060536Y0037990D01*
X0063229Y0037990D02*
X0065535Y0037990D01*
X0065599Y0037491D02*
X0063728Y0037491D01*
X0063982Y0036993D02*
X0065100Y0036993D01*
X0065098Y0036494D02*
X0063982Y0036494D01*
X0063982Y0035996D02*
X0065098Y0035996D01*
X0064033Y0034999D02*
X0063484Y0034999D01*
X0063547Y0034500D02*
X0062986Y0034500D01*
X0061201Y0031509D02*
X0060826Y0031509D01*
X0060826Y0031011D02*
X0061267Y0031011D01*
X0061765Y0030512D02*
X0060564Y0030512D01*
X0060065Y0030014D02*
X0062264Y0030014D01*
X0062644Y0028019D02*
X0046548Y0028019D01*
X0048199Y0027521D02*
X0060994Y0027521D01*
X0064295Y0028518D02*
X0056896Y0028518D01*
X0057395Y0029016D02*
X0065946Y0029016D01*
X0067260Y0029515D02*
X0057894Y0029515D01*
X0056259Y0027022D02*
X0052934Y0027022D01*
X0054047Y0028518D02*
X0055146Y0028518D01*
X0054647Y0029016D02*
X0054546Y0029016D01*
X0054248Y0032506D02*
X0054945Y0032506D01*
X0057117Y0033005D02*
X0052076Y0033005D01*
X0051578Y0033503D02*
X0057615Y0033503D01*
X0064338Y0030014D02*
X0068198Y0030014D01*
X0069135Y0030512D02*
X0064837Y0030512D01*
X0065335Y0031011D02*
X0070073Y0031011D01*
X0071010Y0031509D02*
X0065401Y0031509D01*
X0066981Y0032008D02*
X0071948Y0032008D01*
X0072697Y0032506D02*
X0067480Y0032506D01*
X0067747Y0033005D02*
X0073308Y0033005D01*
X0073919Y0033503D02*
X0071342Y0033503D01*
X0071841Y0034002D02*
X0074530Y0034002D01*
X0075141Y0034500D02*
X0072088Y0034500D01*
X0072088Y0034999D02*
X0075752Y0034999D01*
X0076364Y0035497D02*
X0072917Y0035497D01*
X0073415Y0035996D02*
X0076975Y0035996D01*
X0077459Y0036494D02*
X0073914Y0036494D01*
X0073914Y0036993D02*
X0077871Y0036993D01*
X0078283Y0037491D02*
X0073914Y0037491D01*
X0073914Y0037990D02*
X0074579Y0037990D01*
X0074080Y0038488D02*
X0073970Y0038488D01*
X0076672Y0037990D02*
X0078696Y0037990D01*
X0079108Y0038488D02*
X0077170Y0038488D01*
X0077669Y0038987D02*
X0079520Y0038987D01*
X0079932Y0039485D02*
X0077725Y0039485D01*
X0077725Y0039984D02*
X0080345Y0039984D01*
X0080757Y0040482D02*
X0077725Y0040482D01*
X0078204Y0040981D02*
X0081169Y0040981D01*
X0081475Y0041479D02*
X0078702Y0041479D01*
X0078908Y0041978D02*
X0081777Y0041978D01*
X0082079Y0042476D02*
X0078908Y0042476D01*
X0078908Y0042975D02*
X0082381Y0042975D01*
X0082680Y0043473D02*
X0078860Y0043473D01*
X0078892Y0043972D02*
X0078378Y0043972D01*
X0080768Y0043972D02*
X0082680Y0043972D01*
X0082680Y0044470D02*
X0081267Y0044470D01*
X0081765Y0044969D02*
X0082680Y0044969D01*
X0082680Y0045467D02*
X0081930Y0045467D01*
X0081930Y0045966D02*
X0082680Y0045966D01*
X0082680Y0046464D02*
X0081930Y0046464D01*
X0081841Y0046963D02*
X0082680Y0046963D01*
X0082680Y0047461D02*
X0081858Y0047461D01*
X0082356Y0047960D02*
X0082680Y0047960D01*
X0082680Y0048458D02*
X0082389Y0048458D01*
X0082389Y0048957D02*
X0082680Y0048957D01*
X0082680Y0049455D02*
X0082389Y0049455D01*
X0082167Y0049954D02*
X0082680Y0049954D01*
X0082680Y0050452D02*
X0081669Y0050452D01*
X0081734Y0050951D02*
X0082680Y0050951D01*
X0082680Y0051449D02*
X0081734Y0051449D01*
X0081734Y0051948D02*
X0082680Y0051948D01*
X0082680Y0052447D02*
X0081734Y0052447D01*
X0081369Y0052945D02*
X0082680Y0052945D01*
X0082680Y0053444D02*
X0080909Y0053444D01*
X0081408Y0053942D02*
X0082680Y0053942D01*
X0082680Y0054441D02*
X0081537Y0054441D01*
X0081537Y0054939D02*
X0082680Y0054939D01*
X0082680Y0055438D02*
X0081537Y0055438D01*
X0081116Y0055936D02*
X0082680Y0055936D01*
X0082680Y0056435D02*
X0080618Y0056435D01*
X0082680Y0056933D02*
X0028383Y0056933D01*
X0028383Y0057432D02*
X0082680Y0057432D01*
X0082680Y0057930D02*
X0028383Y0057930D01*
X0028383Y0058429D02*
X0082680Y0058429D01*
X0082680Y0058927D02*
X0028383Y0058927D01*
X0028383Y0059426D02*
X0082680Y0059426D01*
X0082680Y0059924D02*
X0028383Y0059924D01*
X0028383Y0060423D02*
X0028981Y0060423D01*
X0028483Y0060921D02*
X0028383Y0060921D01*
X0028881Y0056435D02*
X0034874Y0056435D01*
X0034977Y0056537D02*
X0033955Y0055516D01*
X0033955Y0054071D01*
X0034977Y0053050D01*
X0036421Y0053050D01*
X0037274Y0053902D01*
X0038126Y0053050D01*
X0039571Y0053050D01*
X0040423Y0053902D01*
X0041276Y0053050D01*
X0042720Y0053050D01*
X0043573Y0053902D01*
X0044425Y0053050D01*
X0045870Y0053050D01*
X0046722Y0053902D01*
X0047575Y0053050D01*
X0049020Y0053050D01*
X0049872Y0053902D01*
X0050725Y0053050D01*
X0052169Y0053050D01*
X0053022Y0053902D01*
X0053874Y0053050D01*
X0055319Y0053050D01*
X0056171Y0053902D01*
X0057024Y0053050D01*
X0058468Y0053050D01*
X0059321Y0053902D01*
X0060173Y0053050D01*
X0061618Y0053050D01*
X0062470Y0053902D01*
X0063323Y0053050D01*
X0064768Y0053050D01*
X0065620Y0053902D01*
X0066473Y0053050D01*
X0067917Y0053050D01*
X0068770Y0053902D01*
X0069622Y0053050D01*
X0071067Y0053050D01*
X0071919Y0053902D01*
X0072772Y0053050D01*
X0074216Y0053050D01*
X0075238Y0054071D01*
X0075238Y0055516D01*
X0074216Y0056537D01*
X0072772Y0056537D01*
X0071919Y0055684D01*
X0071067Y0056537D01*
X0069622Y0056537D01*
X0068770Y0055684D01*
X0067917Y0056537D01*
X0066473Y0056537D01*
X0065620Y0055684D01*
X0064768Y0056537D01*
X0063323Y0056537D01*
X0062470Y0055684D01*
X0061618Y0056537D01*
X0060173Y0056537D01*
X0059321Y0055684D01*
X0058468Y0056537D01*
X0057024Y0056537D01*
X0056171Y0055684D01*
X0055319Y0056537D01*
X0053874Y0056537D01*
X0053022Y0055684D01*
X0052169Y0056537D01*
X0050725Y0056537D01*
X0049872Y0055684D01*
X0049020Y0056537D01*
X0047575Y0056537D01*
X0046722Y0055684D01*
X0045870Y0056537D01*
X0044425Y0056537D01*
X0043573Y0055684D01*
X0042720Y0056537D01*
X0041276Y0056537D01*
X0040423Y0055684D01*
X0039571Y0056537D01*
X0038126Y0056537D01*
X0037274Y0055684D01*
X0036421Y0056537D01*
X0034977Y0056537D01*
X0034376Y0055936D02*
X0032406Y0055936D01*
X0032904Y0055438D02*
X0033955Y0055438D01*
X0033955Y0054939D02*
X0033403Y0054939D01*
X0033515Y0054441D02*
X0033955Y0054441D01*
X0034084Y0053942D02*
X0033515Y0053942D01*
X0033515Y0053444D02*
X0034583Y0053444D01*
X0033374Y0052945D02*
X0075819Y0052945D01*
X0075678Y0053444D02*
X0074610Y0053444D01*
X0075109Y0053942D02*
X0075678Y0053942D01*
X0075678Y0054441D02*
X0075238Y0054441D01*
X0075238Y0054939D02*
X0075790Y0054939D01*
X0076289Y0055438D02*
X0075238Y0055438D01*
X0074817Y0055936D02*
X0076787Y0055936D01*
X0078969Y0056435D02*
X0074319Y0056435D01*
X0072669Y0056435D02*
X0071169Y0056435D01*
X0071668Y0055936D02*
X0072171Y0055936D01*
X0072378Y0053444D02*
X0071461Y0053444D01*
X0069228Y0053444D02*
X0068311Y0053444D01*
X0066079Y0053444D02*
X0065161Y0053444D01*
X0062929Y0053444D02*
X0062012Y0053444D01*
X0059779Y0053444D02*
X0058862Y0053444D01*
X0056630Y0053444D02*
X0055713Y0053444D01*
X0053480Y0053444D02*
X0052563Y0053444D01*
X0050331Y0053444D02*
X0049413Y0053444D01*
X0047181Y0053444D02*
X0046264Y0053444D01*
X0044031Y0053444D02*
X0043114Y0053444D01*
X0040882Y0053444D02*
X0039965Y0053444D01*
X0037732Y0053444D02*
X0036815Y0053444D01*
X0037022Y0055936D02*
X0037525Y0055936D01*
X0038024Y0056435D02*
X0036523Y0056435D01*
X0039673Y0056435D02*
X0041173Y0056435D01*
X0040675Y0055936D02*
X0040172Y0055936D01*
X0042823Y0056435D02*
X0044323Y0056435D01*
X0043824Y0055936D02*
X0043321Y0055936D01*
X0045972Y0056435D02*
X0047473Y0056435D01*
X0046974Y0055936D02*
X0046471Y0055936D01*
X0049122Y0056435D02*
X0050622Y0056435D01*
X0050124Y0055936D02*
X0049620Y0055936D01*
X0052271Y0056435D02*
X0053772Y0056435D01*
X0053273Y0055936D02*
X0052770Y0055936D01*
X0055421Y0056435D02*
X0056921Y0056435D01*
X0056423Y0055936D02*
X0055920Y0055936D01*
X0058571Y0056435D02*
X0060071Y0056435D01*
X0059573Y0055936D02*
X0059069Y0055936D01*
X0061720Y0056435D02*
X0063221Y0056435D01*
X0062722Y0055936D02*
X0062219Y0055936D01*
X0064870Y0056435D02*
X0066370Y0056435D01*
X0065872Y0055936D02*
X0065368Y0055936D01*
X0068020Y0056435D02*
X0069520Y0056435D01*
X0069021Y0055936D02*
X0068518Y0055936D01*
X0067564Y0060423D02*
X0066826Y0060423D01*
X0064414Y0060423D02*
X0063676Y0060423D01*
X0061265Y0060423D02*
X0060526Y0060423D01*
X0058115Y0060423D02*
X0057377Y0060423D01*
X0054966Y0060423D02*
X0054227Y0060423D01*
X0051816Y0060423D02*
X0051078Y0060423D01*
X0048666Y0060423D02*
X0047928Y0060423D01*
X0045517Y0060423D02*
X0044778Y0060423D01*
X0042367Y0060423D02*
X0041629Y0060423D01*
X0039218Y0060423D02*
X0038479Y0060423D01*
X0036068Y0060423D02*
X0035330Y0060423D01*
X0034595Y0065408D02*
X0033653Y0065408D01*
X0031446Y0065408D02*
X0030503Y0065408D01*
X0028383Y0065906D02*
X0082680Y0065906D01*
X0082680Y0065408D02*
X0077747Y0065408D01*
X0078246Y0064909D02*
X0082680Y0064909D01*
X0082680Y0064411D02*
X0078387Y0064411D01*
X0078387Y0063912D02*
X0082680Y0063912D01*
X0082680Y0063414D02*
X0080529Y0063414D01*
X0081027Y0062915D02*
X0082680Y0062915D01*
X0082680Y0062417D02*
X0081526Y0062417D01*
X0081537Y0061918D02*
X0082680Y0061918D01*
X0082680Y0061420D02*
X0081537Y0061420D01*
X0081497Y0060921D02*
X0082680Y0060921D01*
X0082680Y0060423D02*
X0080999Y0060423D01*
X0079058Y0063414D02*
X0078387Y0063414D01*
X0075540Y0065408D02*
X0074598Y0065408D01*
X0072391Y0065408D02*
X0071448Y0065408D01*
X0069241Y0065408D02*
X0068298Y0065408D01*
X0066091Y0065408D02*
X0065149Y0065408D01*
X0062942Y0065408D02*
X0061999Y0065408D01*
X0059792Y0065408D02*
X0058849Y0065408D01*
X0056643Y0065408D02*
X0055700Y0065408D01*
X0053493Y0065408D02*
X0052550Y0065408D01*
X0050343Y0065408D02*
X0049401Y0065408D01*
X0047194Y0065408D02*
X0046251Y0065408D01*
X0044044Y0065408D02*
X0043101Y0065408D01*
X0040895Y0065408D02*
X0039952Y0065408D01*
X0037745Y0065408D02*
X0036802Y0065408D01*
X0036347Y0069396D02*
X0035051Y0069396D01*
X0035549Y0069894D02*
X0035848Y0069894D01*
X0033197Y0069396D02*
X0031901Y0069396D01*
X0032400Y0069894D02*
X0032699Y0069894D01*
X0030048Y0069396D02*
X0028383Y0069396D01*
X0028383Y0069894D02*
X0029549Y0069894D01*
X0029231Y0070393D02*
X0028383Y0070393D01*
X0028383Y0068897D02*
X0082680Y0068897D01*
X0082680Y0068399D02*
X0028383Y0068399D01*
X0028383Y0067900D02*
X0082680Y0067900D01*
X0082680Y0067402D02*
X0028383Y0067402D01*
X0028383Y0066903D02*
X0082680Y0066903D01*
X0082680Y0066405D02*
X0028383Y0066405D01*
X0037670Y0075378D02*
X0071523Y0075378D01*
X0071529Y0075877D02*
X0037664Y0075877D01*
X0037664Y0076375D02*
X0039483Y0076375D01*
X0038984Y0076874D02*
X0037664Y0076874D01*
X0037664Y0077372D02*
X0038595Y0077372D01*
X0038595Y0077871D02*
X0037555Y0077871D01*
X0038053Y0078369D02*
X0038595Y0078369D01*
X0038595Y0078868D02*
X0038374Y0078868D01*
X0038374Y0079366D02*
X0038960Y0079366D01*
X0038917Y0079865D02*
X0039027Y0079865D01*
X0042431Y0079366D02*
X0044879Y0079366D01*
X0044381Y0079865D02*
X0042610Y0079865D01*
X0042919Y0080363D02*
X0044040Y0080363D01*
X0044040Y0080862D02*
X0042919Y0080862D01*
X0042919Y0081360D02*
X0044040Y0081360D01*
X0044040Y0081859D02*
X0043468Y0081859D01*
X0043967Y0082357D02*
X0044452Y0082357D01*
X0044338Y0082856D02*
X0044950Y0082856D01*
X0048240Y0081859D02*
X0060953Y0081859D01*
X0060953Y0081360D02*
X0048240Y0081360D01*
X0048240Y0080862D02*
X0060953Y0080862D01*
X0060953Y0080363D02*
X0048240Y0080363D01*
X0047899Y0079865D02*
X0061294Y0079865D01*
X0061793Y0079366D02*
X0047400Y0079366D01*
X0048484Y0082357D02*
X0060709Y0082357D01*
X0060210Y0082856D02*
X0048982Y0082856D01*
X0049112Y0083354D02*
X0060081Y0083354D01*
X0060081Y0083853D02*
X0049112Y0083853D01*
X0050409Y0084351D02*
X0058784Y0084351D01*
X0058285Y0084850D02*
X0050908Y0084850D01*
X0052881Y0085348D02*
X0056311Y0085348D01*
X0055813Y0085847D02*
X0053380Y0085847D01*
X0053792Y0086345D02*
X0055401Y0086345D01*
X0055401Y0086844D02*
X0053792Y0086844D01*
X0053792Y0087342D02*
X0055401Y0087342D01*
X0055401Y0087841D02*
X0053792Y0087841D01*
X0053451Y0088339D02*
X0055742Y0088339D01*
X0056241Y0088838D02*
X0052952Y0088838D01*
X0052934Y0090832D02*
X0056258Y0090832D01*
X0058762Y0088838D02*
X0065946Y0088838D01*
X0067260Y0088339D02*
X0059260Y0088339D01*
X0061234Y0087841D02*
X0068198Y0087841D01*
X0069135Y0087342D02*
X0065744Y0087342D01*
X0066243Y0086844D02*
X0070073Y0086844D01*
X0071010Y0086345D02*
X0066741Y0086345D01*
X0066801Y0085847D02*
X0071948Y0085847D01*
X0072697Y0085348D02*
X0068175Y0085348D01*
X0068673Y0084850D02*
X0073308Y0084850D01*
X0073919Y0084351D02*
X0069055Y0084351D01*
X0069055Y0083853D02*
X0070198Y0083853D01*
X0069699Y0083354D02*
X0069055Y0083354D01*
X0072228Y0083853D02*
X0074530Y0083853D01*
X0075141Y0083354D02*
X0072726Y0083354D01*
X0073225Y0082856D02*
X0075752Y0082856D01*
X0076364Y0082357D02*
X0073313Y0082357D01*
X0073313Y0081859D02*
X0076975Y0081859D01*
X0077459Y0081360D02*
X0074088Y0081360D01*
X0074587Y0080862D02*
X0077871Y0080862D01*
X0078283Y0080363D02*
X0075019Y0080363D01*
X0075019Y0079865D02*
X0078696Y0079865D01*
X0079108Y0079366D02*
X0075019Y0079366D01*
X0075019Y0078868D02*
X0079520Y0078868D01*
X0079932Y0078369D02*
X0074953Y0078369D01*
X0075451Y0077871D02*
X0080345Y0077871D01*
X0080757Y0077372D02*
X0075729Y0077372D01*
X0075729Y0076874D02*
X0081169Y0076874D01*
X0081184Y0076856D02*
X0081184Y0076856D01*
X0081475Y0076375D02*
X0075729Y0076375D01*
X0077100Y0075877D02*
X0081777Y0075877D01*
X0082079Y0075378D02*
X0080896Y0075378D01*
X0081587Y0074880D02*
X0082381Y0074880D01*
X0082680Y0074381D02*
X0081997Y0074381D01*
X0082204Y0073883D02*
X0082680Y0073883D01*
X0082680Y0073384D02*
X0082320Y0073384D01*
X0082320Y0072885D02*
X0082680Y0072885D01*
X0082680Y0072387D02*
X0082232Y0072387D01*
X0082026Y0071888D02*
X0082680Y0071888D01*
X0082680Y0071390D02*
X0081656Y0071390D01*
X0081062Y0070891D02*
X0082680Y0070891D01*
X0082680Y0070393D02*
X0079962Y0070393D01*
X0079644Y0069894D02*
X0082680Y0069894D01*
X0082680Y0069396D02*
X0079145Y0069396D01*
X0077292Y0069396D02*
X0075996Y0069396D01*
X0076494Y0069894D02*
X0076793Y0069894D01*
X0074142Y0069396D02*
X0072846Y0069396D01*
X0073345Y0069894D02*
X0073644Y0069894D01*
X0070992Y0069396D02*
X0069697Y0069396D01*
X0070195Y0069894D02*
X0070494Y0069894D01*
X0070407Y0071888D02*
X0070282Y0071888D01*
X0069784Y0072387D02*
X0070905Y0072387D01*
X0071019Y0072885D02*
X0038174Y0072885D01*
X0038288Y0072387D02*
X0039409Y0072387D01*
X0038911Y0071888D02*
X0038786Y0071888D01*
X0038299Y0073384D02*
X0070894Y0073384D01*
X0070894Y0073883D02*
X0038299Y0073883D01*
X0038299Y0074381D02*
X0070894Y0074381D01*
X0071024Y0074880D02*
X0038169Y0074880D01*
X0041908Y0076375D02*
X0067285Y0076375D01*
X0066786Y0076874D02*
X0042407Y0076874D01*
X0042795Y0077372D02*
X0066397Y0077372D01*
X0066397Y0077871D02*
X0042795Y0077871D01*
X0042795Y0078369D02*
X0066397Y0078369D01*
X0066397Y0078868D02*
X0042795Y0078868D01*
X0040138Y0083354D02*
X0039494Y0083354D01*
X0038995Y0083853D02*
X0040138Y0083853D01*
X0040138Y0084351D02*
X0035274Y0084351D01*
X0034663Y0083853D02*
X0036965Y0083853D01*
X0036467Y0083354D02*
X0034052Y0083354D01*
X0033440Y0082856D02*
X0035968Y0082856D01*
X0035880Y0082357D02*
X0032829Y0082357D01*
X0032218Y0081859D02*
X0035880Y0081859D01*
X0035105Y0081360D02*
X0031734Y0081360D01*
X0031322Y0080862D02*
X0034606Y0080862D01*
X0034174Y0080363D02*
X0030910Y0080363D01*
X0030497Y0079865D02*
X0034174Y0079865D01*
X0034174Y0079366D02*
X0033135Y0079366D01*
X0033898Y0078868D02*
X0034174Y0078868D01*
X0031176Y0079366D02*
X0030085Y0079366D01*
X0030413Y0078868D02*
X0029673Y0078868D01*
X0035885Y0084850D02*
X0040519Y0084850D01*
X0041018Y0085348D02*
X0036496Y0085348D01*
X0037245Y0085847D02*
X0042392Y0085847D01*
X0042451Y0086345D02*
X0038183Y0086345D01*
X0039120Y0086844D02*
X0042950Y0086844D01*
X0043448Y0087342D02*
X0040058Y0087342D01*
X0040995Y0087841D02*
X0047959Y0087841D01*
X0047461Y0087342D02*
X0045535Y0087342D01*
X0046034Y0086844D02*
X0046962Y0086844D01*
X0046945Y0086345D02*
X0046532Y0086345D01*
X0044898Y0089336D02*
X0064295Y0089336D01*
X0062644Y0089835D02*
X0046548Y0089835D01*
X0048199Y0090333D02*
X0060993Y0090333D01*
X0061732Y0087342D02*
X0063658Y0087342D01*
X0063159Y0086844D02*
X0062231Y0086844D01*
X0062248Y0086345D02*
X0062661Y0086345D01*
X0064243Y0082856D02*
X0064855Y0082856D01*
X0064741Y0082357D02*
X0065226Y0082357D01*
X0065153Y0081859D02*
X0065725Y0081859D01*
X0066274Y0081360D02*
X0065153Y0081360D01*
X0065153Y0080862D02*
X0066274Y0080862D01*
X0066274Y0080363D02*
X0065153Y0080363D01*
X0064812Y0079865D02*
X0066583Y0079865D01*
X0066762Y0079366D02*
X0064314Y0079366D01*
X0070166Y0079865D02*
X0070276Y0079865D01*
X0070233Y0079366D02*
X0070819Y0079366D01*
X0070819Y0078868D02*
X0070597Y0078868D01*
X0070597Y0078369D02*
X0071139Y0078369D01*
X0071638Y0077871D02*
X0070597Y0077871D01*
X0070597Y0077372D02*
X0071529Y0077372D01*
X0071529Y0076874D02*
X0070209Y0076874D01*
X0069710Y0076375D02*
X0071529Y0076375D01*
X0067756Y0072387D02*
X0066634Y0072387D01*
X0067133Y0071888D02*
X0067257Y0071888D01*
X0067344Y0069894D02*
X0067045Y0069894D01*
X0066547Y0069396D02*
X0067843Y0069396D01*
X0064693Y0069396D02*
X0063397Y0069396D01*
X0063896Y0069894D02*
X0064195Y0069894D01*
X0064108Y0071888D02*
X0063983Y0071888D01*
X0063484Y0072387D02*
X0064606Y0072387D01*
X0061456Y0072387D02*
X0060335Y0072387D01*
X0060833Y0071888D02*
X0060958Y0071888D01*
X0061045Y0069894D02*
X0060746Y0069894D01*
X0060248Y0069396D02*
X0061544Y0069396D01*
X0058394Y0069396D02*
X0057098Y0069396D01*
X0057597Y0069894D02*
X0057896Y0069894D01*
X0057808Y0071888D02*
X0057684Y0071888D01*
X0057185Y0072387D02*
X0058307Y0072387D01*
X0055157Y0072387D02*
X0054036Y0072387D01*
X0054534Y0071888D02*
X0054659Y0071888D01*
X0054746Y0069894D02*
X0054447Y0069894D01*
X0053948Y0069396D02*
X0055244Y0069396D01*
X0052095Y0069396D02*
X0050799Y0069396D01*
X0051297Y0069894D02*
X0051596Y0069894D01*
X0051509Y0071888D02*
X0051385Y0071888D01*
X0050886Y0072387D02*
X0052008Y0072387D01*
X0048858Y0072387D02*
X0047736Y0072387D01*
X0048235Y0071888D02*
X0048360Y0071888D01*
X0048447Y0069894D02*
X0048148Y0069894D01*
X0047649Y0069396D02*
X0048945Y0069396D01*
X0045796Y0069396D02*
X0044500Y0069396D01*
X0044998Y0069894D02*
X0045297Y0069894D01*
X0045210Y0071888D02*
X0045085Y0071888D01*
X0044587Y0072387D02*
X0045708Y0072387D01*
X0042559Y0072387D02*
X0041437Y0072387D01*
X0041936Y0071888D02*
X0042060Y0071888D01*
X0042147Y0069894D02*
X0041849Y0069894D01*
X0041350Y0069396D02*
X0042646Y0069396D01*
X0039496Y0069396D02*
X0038200Y0069396D01*
X0038699Y0069894D02*
X0038998Y0069894D01*
X0030425Y0055936D02*
X0029379Y0055936D01*
X0029800Y0055438D02*
X0029926Y0055438D01*
X0027823Y0052945D02*
X0026513Y0052945D01*
X0026513Y0052447D02*
X0027459Y0052447D01*
X0027459Y0051948D02*
X0026513Y0051948D01*
X0026513Y0051449D02*
X0027459Y0051449D01*
X0027459Y0050951D02*
X0026513Y0050951D01*
X0026513Y0050452D02*
X0027524Y0050452D01*
X0027026Y0049954D02*
X0026513Y0049954D01*
X0026513Y0049455D02*
X0026804Y0049455D01*
X0026804Y0048957D02*
X0026513Y0048957D01*
X0026513Y0048458D02*
X0026804Y0048458D01*
X0026836Y0047960D02*
X0026513Y0047960D01*
X0026513Y0047461D02*
X0027335Y0047461D01*
X0027352Y0046963D02*
X0026513Y0046963D01*
X0026513Y0046464D02*
X0027263Y0046464D01*
X0027263Y0045966D02*
X0026513Y0045966D01*
X0026513Y0045467D02*
X0027263Y0045467D01*
X0027428Y0044969D02*
X0026513Y0044969D01*
X0026513Y0044470D02*
X0027926Y0044470D01*
X0028425Y0043972D02*
X0026513Y0043972D01*
X0026513Y0043473D02*
X0030332Y0043473D01*
X0030301Y0043972D02*
X0030815Y0043972D01*
X0030284Y0042975D02*
X0026812Y0042975D01*
X0027114Y0042476D02*
X0030284Y0042476D01*
X0030284Y0041978D02*
X0027416Y0041978D01*
X0027718Y0041479D02*
X0030491Y0041479D01*
X0030989Y0040981D02*
X0028023Y0040981D01*
X0028436Y0040482D02*
X0031468Y0040482D01*
X0031468Y0039984D02*
X0028848Y0039984D01*
X0029260Y0039485D02*
X0031468Y0039485D01*
X0031524Y0038987D02*
X0029673Y0038987D01*
X0030085Y0038488D02*
X0032023Y0038488D01*
X0032521Y0037990D02*
X0030497Y0037990D01*
X0034484Y0041978D02*
X0035091Y0041978D01*
X0034906Y0042476D02*
X0034484Y0042476D01*
X0034484Y0042975D02*
X0034906Y0042975D01*
X0034906Y0043473D02*
X0034436Y0043473D01*
X0033938Y0043972D02*
X0034976Y0043972D01*
X0035475Y0044470D02*
X0034243Y0044470D01*
X0034380Y0044969D02*
X0035973Y0044969D01*
X0038039Y0044969D02*
X0071154Y0044969D01*
X0070655Y0044470D02*
X0038538Y0044470D01*
X0039036Y0043972D02*
X0070157Y0043972D01*
X0070087Y0043473D02*
X0039106Y0043473D01*
X0039106Y0042975D02*
X0070087Y0042975D01*
X0070087Y0042476D02*
X0039106Y0042476D01*
X0038922Y0041978D02*
X0070271Y0041978D01*
X0070770Y0041479D02*
X0038423Y0041479D01*
X0038622Y0040981D02*
X0040710Y0040981D01*
X0040211Y0040482D02*
X0038622Y0040482D01*
X0038622Y0039984D02*
X0039713Y0039984D01*
X0039620Y0039485D02*
X0038622Y0039485D01*
X0038726Y0038987D02*
X0039620Y0038987D01*
X0039620Y0038488D02*
X0039225Y0038488D01*
X0039479Y0037990D02*
X0039781Y0037990D01*
X0039479Y0037491D02*
X0040280Y0037491D01*
X0043228Y0040482D02*
X0065965Y0040482D01*
X0066463Y0040981D02*
X0042730Y0040981D01*
X0043727Y0039984D02*
X0065466Y0039984D01*
X0065373Y0039485D02*
X0043820Y0039485D01*
X0043820Y0038987D02*
X0065373Y0038987D01*
X0065373Y0038488D02*
X0043820Y0038488D01*
X0043658Y0037990D02*
X0045964Y0037990D01*
X0045465Y0037491D02*
X0043594Y0037491D01*
X0044093Y0036993D02*
X0045211Y0036993D01*
X0045211Y0036494D02*
X0044095Y0036494D01*
X0044095Y0035743D02*
X0044416Y0035743D01*
X0045160Y0034999D02*
X0045709Y0034999D01*
X0045646Y0034500D02*
X0046207Y0034500D01*
X0034380Y0045467D02*
X0074813Y0045467D01*
X0074813Y0044969D02*
X0073220Y0044969D01*
X0073718Y0044470D02*
X0074949Y0044470D01*
X0075255Y0043972D02*
X0074217Y0043972D01*
X0074287Y0043473D02*
X0074756Y0043473D01*
X0074709Y0042975D02*
X0074287Y0042975D01*
X0074287Y0042476D02*
X0074709Y0042476D01*
X0074709Y0041978D02*
X0074102Y0041978D01*
X0070571Y0040981D02*
X0068483Y0040981D01*
X0068982Y0040482D02*
X0070571Y0040482D01*
X0070571Y0039984D02*
X0069480Y0039984D01*
X0069573Y0039485D02*
X0070571Y0039485D01*
X0070467Y0038987D02*
X0069573Y0038987D01*
X0069573Y0038488D02*
X0069968Y0038488D01*
X0069714Y0037990D02*
X0069412Y0037990D01*
X0069714Y0037491D02*
X0068913Y0037491D01*
X0068134Y0034002D02*
X0067747Y0034002D01*
X0067747Y0033503D02*
X0068633Y0033503D01*
X0074813Y0045966D02*
X0034380Y0045966D01*
X0034800Y0046464D02*
X0074393Y0046464D01*
X0073895Y0046963D02*
X0035298Y0046963D01*
X0035592Y0047461D02*
X0073601Y0047461D01*
X0073601Y0047960D02*
X0035592Y0047960D01*
X0035592Y0048458D02*
X0073601Y0048458D01*
X0073601Y0048957D02*
X0035592Y0048957D01*
X0035132Y0049455D02*
X0074060Y0049455D01*
X0074559Y0049954D02*
X0034634Y0049954D01*
X0032350Y0049954D02*
X0030782Y0049954D01*
X0031004Y0049455D02*
X0031851Y0049455D01*
X0031392Y0048957D02*
X0031004Y0048957D01*
X0031004Y0048458D02*
X0031392Y0048458D01*
X0031392Y0047960D02*
X0030971Y0047960D01*
X0030875Y0047461D02*
X0031295Y0047461D01*
X0031271Y0050452D02*
X0077922Y0050452D01*
X0077534Y0050951D02*
X0031659Y0050951D01*
X0031659Y0051449D02*
X0077534Y0051449D01*
X0076816Y0051948D02*
X0032377Y0051948D01*
X0032875Y0052447D02*
X0076318Y0052447D01*
X0076843Y0049954D02*
X0078411Y0049954D01*
X0078189Y0049455D02*
X0077342Y0049455D01*
X0077801Y0048957D02*
X0078189Y0048957D01*
X0078189Y0048458D02*
X0077801Y0048458D01*
X0077801Y0047960D02*
X0078221Y0047960D01*
X0078318Y0047461D02*
X0077898Y0047461D01*
X0073863Y0060423D02*
X0073125Y0060423D01*
X0070714Y0060423D02*
X0069975Y0060423D01*
X0077939Y0075378D02*
X0078690Y0075378D01*
X0050431Y0088838D02*
X0043247Y0088838D01*
X0041932Y0088339D02*
X0049933Y0088339D01*
X0026940Y0053444D02*
X0026513Y0053444D01*
D14*
X0028056Y0054793D02*
X0027037Y0055812D01*
X0027037Y0074281D01*
X0029793Y0077037D01*
X0032156Y0077037D01*
M02*
