G75*
%MOIN*%
%OFA0B0*%
%FSLAX25Y25*%
%IPPOS*%
%LPD*%
%AMOC8*
5,1,8,0,0,1.08239X$1,22.5*
%
%ADD10C,0.02953*%
%ADD11C,0.01800*%
%ADD12C,0.01387*%
%ADD13C,0.00500*%
%ADD14C,0.00591*%
D10*
X0054596Y0034911D03*
X0033258Y0073494D03*
X0031171Y0076250D03*
X0028967Y0072667D03*
X0054596Y0084911D03*
X0077037Y0077037D03*
X0076250Y0073494D03*
X0079793Y0073494D03*
D11*
X0072994Y0073880D03*
X0073629Y0076723D03*
X0072919Y0079559D03*
X0071213Y0081898D03*
X0068374Y0081043D03*
X0066955Y0083598D03*
X0064701Y0085416D03*
X0062181Y0083855D03*
X0063053Y0081076D03*
X0060148Y0085956D03*
X0057501Y0087129D03*
X0051692Y0087129D03*
X0049045Y0085956D03*
X0047012Y0083855D03*
X0046140Y0081076D03*
X0044492Y0085416D03*
X0042238Y0083598D03*
X0040819Y0081043D03*
X0040695Y0078132D03*
X0037980Y0081898D03*
X0036274Y0079559D03*
X0035564Y0076723D03*
X0036199Y0073880D03*
X0031415Y0053957D03*
X0029559Y0051711D03*
X0028904Y0048862D03*
X0029363Y0046004D03*
X0032280Y0045477D03*
X0032384Y0042555D03*
X0033568Y0039913D03*
X0036522Y0040159D03*
X0037006Y0043032D03*
X0037379Y0037364D03*
X0039205Y0035118D03*
X0041995Y0036121D03*
X0043546Y0033643D03*
X0045892Y0031946D03*
X0048327Y0033636D03*
X0050467Y0031644D03*
X0053172Y0030612D03*
X0056021Y0030612D03*
X0058726Y0031644D03*
X0060866Y0033636D03*
X0061882Y0036366D03*
X0063301Y0031946D03*
X0065647Y0033643D03*
X0067198Y0036121D03*
X0067473Y0039021D03*
X0069988Y0035118D03*
X0071814Y0037364D03*
X0072671Y0040159D03*
X0072187Y0043032D03*
X0075625Y0039913D03*
X0076809Y0042555D03*
X0076913Y0045477D03*
X0075701Y0048126D03*
X0079830Y0046004D03*
X0080289Y0048862D03*
X0079634Y0051711D03*
X0077778Y0053957D03*
X0068497Y0078132D03*
X0033492Y0048126D03*
X0041720Y0039021D03*
X0047311Y0036366D03*
D12*
X0048219Y0030344D03*
X0040817Y0032746D03*
X0034518Y0037077D03*
X0029793Y0042982D03*
X0035699Y0054793D03*
X0038848Y0054793D03*
X0041998Y0054793D03*
X0045148Y0054793D03*
X0048297Y0054793D03*
X0051447Y0054793D03*
X0054596Y0054793D03*
X0057746Y0054793D03*
X0059321Y0052431D03*
X0060896Y0054793D03*
X0064045Y0054793D03*
X0067195Y0054793D03*
X0070344Y0054793D03*
X0073494Y0054793D03*
X0079793Y0054793D03*
X0084124Y0055778D03*
X0079793Y0061683D03*
X0077431Y0061683D03*
X0076644Y0064045D03*
X0075069Y0061683D03*
X0073494Y0064045D03*
X0071919Y0061683D03*
X0070344Y0064045D03*
X0068770Y0061683D03*
X0067195Y0064045D03*
X0065620Y0061683D03*
X0064045Y0064045D03*
X0062470Y0061683D03*
X0060896Y0064045D03*
X0059321Y0061683D03*
X0057746Y0064045D03*
X0056171Y0061683D03*
X0054596Y0064045D03*
X0053022Y0061683D03*
X0051447Y0064045D03*
X0049872Y0061683D03*
X0048297Y0064045D03*
X0046722Y0061683D03*
X0045148Y0064045D03*
X0043573Y0061683D03*
X0041998Y0064045D03*
X0040423Y0061683D03*
X0038848Y0064045D03*
X0037274Y0061683D03*
X0035699Y0064045D03*
X0034124Y0061683D03*
X0031762Y0061683D03*
X0029793Y0062077D03*
X0030187Y0064045D03*
X0027864Y0064124D03*
X0032549Y0064045D03*
X0032549Y0070935D03*
X0034518Y0070935D03*
X0037274Y0070935D03*
X0040423Y0070935D03*
X0043573Y0070935D03*
X0046722Y0070935D03*
X0049872Y0070935D03*
X0053022Y0070935D03*
X0056171Y0070935D03*
X0059321Y0070935D03*
X0062470Y0070935D03*
X0065620Y0070935D03*
X0068770Y0070935D03*
X0071919Y0070935D03*
X0074281Y0070935D03*
X0077431Y0070935D03*
X0084124Y0062077D03*
X0075463Y0079990D03*
X0069557Y0084321D03*
X0062470Y0087470D03*
X0054557Y0088415D03*
X0046801Y0087392D03*
X0039636Y0084242D03*
X0033533Y0079518D03*
X0025300Y0058337D03*
X0025069Y0055384D03*
X0061053Y0030305D03*
X0068376Y0032746D03*
X0074360Y0037510D03*
X0079124Y0043415D03*
D13*
X0035829Y0036993D02*
X0033819Y0036993D01*
X0033271Y0037491D02*
X0035829Y0037491D01*
X0035829Y0037990D02*
X0032724Y0037990D01*
X0032926Y0038363D02*
X0034210Y0038363D01*
X0035118Y0039271D01*
X0035118Y0039371D01*
X0035880Y0038609D01*
X0036431Y0038609D01*
X0035829Y0038006D01*
X0035829Y0036722D01*
X0036737Y0035814D01*
X0037710Y0035814D01*
X0037655Y0035760D01*
X0037655Y0034476D01*
X0038563Y0033568D01*
X0039847Y0033568D01*
X0040755Y0034476D01*
X0040755Y0035168D01*
X0041353Y0034571D01*
X0042282Y0034571D01*
X0041996Y0034285D01*
X0041996Y0033001D01*
X0042904Y0032093D01*
X0044188Y0032093D01*
X0044342Y0032247D01*
X0044342Y0031304D01*
X0045250Y0030396D01*
X0046534Y0030396D01*
X0047442Y0031304D01*
X0047442Y0032330D01*
X0047685Y0032086D01*
X0048917Y0032086D01*
X0048917Y0031002D01*
X0049825Y0030094D01*
X0051109Y0030094D01*
X0051622Y0030607D01*
X0051622Y0029970D01*
X0052530Y0029062D01*
X0053814Y0029062D01*
X0054596Y0029845D01*
X0055379Y0029062D01*
X0056663Y0029062D01*
X0057571Y0029970D01*
X0057571Y0030607D01*
X0058084Y0030094D01*
X0059368Y0030094D01*
X0060276Y0031002D01*
X0060276Y0032086D01*
X0061508Y0032086D01*
X0061751Y0032330D01*
X0061751Y0031304D01*
X0062659Y0030396D01*
X0063943Y0030396D01*
X0064851Y0031304D01*
X0064851Y0032247D01*
X0065005Y0032093D01*
X0066289Y0032093D01*
X0067197Y0033001D01*
X0067197Y0034285D01*
X0066911Y0034571D01*
X0067840Y0034571D01*
X0068438Y0035168D01*
X0068438Y0034476D01*
X0069346Y0033568D01*
X0070630Y0033568D01*
X0071538Y0034476D01*
X0071538Y0035760D01*
X0071483Y0035814D01*
X0072456Y0035814D01*
X0073364Y0036722D01*
X0073364Y0038006D01*
X0072762Y0038609D01*
X0073313Y0038609D01*
X0074075Y0039371D01*
X0074075Y0039271D01*
X0074983Y0038363D01*
X0076267Y0038363D01*
X0077175Y0039271D01*
X0077175Y0040555D01*
X0076725Y0041005D01*
X0077451Y0041005D01*
X0078358Y0041913D01*
X0078358Y0043198D01*
X0077592Y0043964D01*
X0078463Y0044835D01*
X0078463Y0045179D01*
X0079188Y0044454D01*
X0080472Y0044454D01*
X0081380Y0045362D01*
X0081380Y0046646D01*
X0080713Y0047312D01*
X0080931Y0047312D01*
X0081839Y0048220D01*
X0081839Y0049139D01*
X0083449Y0050750D01*
X0083449Y0063631D01*
X0082922Y0064158D01*
X0080166Y0066914D01*
X0075090Y0066914D01*
X0074563Y0066387D01*
X0073565Y0065389D01*
X0072938Y0065389D01*
X0072150Y0064602D01*
X0072150Y0063489D01*
X0072938Y0062702D01*
X0074051Y0062702D01*
X0074838Y0063489D01*
X0074838Y0064116D01*
X0075300Y0064578D01*
X0075300Y0063489D01*
X0076087Y0062702D01*
X0076549Y0062702D01*
X0076250Y0062402D01*
X0075625Y0063027D01*
X0074512Y0063027D01*
X0073725Y0062240D01*
X0073725Y0061126D01*
X0074512Y0060339D01*
X0074815Y0060339D01*
X0074499Y0060024D01*
X0073972Y0059497D01*
X0073972Y0056137D01*
X0072938Y0056137D01*
X0072150Y0055350D01*
X0072150Y0054833D01*
X0071856Y0054583D01*
X0071814Y0054583D01*
X0071688Y0054457D01*
X0071688Y0055350D01*
X0070901Y0056137D01*
X0069788Y0056137D01*
X0069001Y0055350D01*
X0069001Y0054237D01*
X0069444Y0053793D01*
X0069444Y0038461D01*
X0070264Y0037642D01*
X0070264Y0036722D01*
X0070319Y0036668D01*
X0069346Y0036668D01*
X0068748Y0036070D01*
X0068748Y0036763D01*
X0068040Y0037471D01*
X0068115Y0037471D01*
X0069023Y0038379D01*
X0069023Y0039663D01*
X0068373Y0040313D01*
X0068373Y0054071D01*
X0068539Y0054237D01*
X0068539Y0055350D01*
X0067751Y0056137D01*
X0066638Y0056137D01*
X0065851Y0055350D01*
X0065851Y0054237D01*
X0066573Y0053515D01*
X0066573Y0053144D01*
X0065389Y0054329D01*
X0065389Y0055350D01*
X0064602Y0056137D01*
X0063489Y0056137D01*
X0062702Y0055350D01*
X0062702Y0054237D01*
X0063489Y0053450D01*
X0063722Y0053450D01*
X0064917Y0052255D01*
X0064917Y0042174D01*
X0064430Y0041687D01*
X0063902Y0041159D01*
X0063902Y0034115D01*
X0064097Y0033920D01*
X0064097Y0033342D01*
X0063943Y0033496D01*
X0062659Y0033496D01*
X0062416Y0033253D01*
X0062416Y0034278D01*
X0061877Y0034816D01*
X0062524Y0034816D01*
X0063432Y0035724D01*
X0063432Y0037009D01*
X0062782Y0037659D01*
X0062782Y0041057D01*
X0064284Y0042558D01*
X0064811Y0043085D01*
X0064811Y0051820D01*
X0062239Y0054391D01*
X0062239Y0055350D01*
X0061452Y0056137D01*
X0060339Y0056137D01*
X0059552Y0055350D01*
X0059552Y0054237D01*
X0060339Y0053450D01*
X0060635Y0053450D01*
X0063011Y0051074D01*
X0063011Y0050412D01*
X0062433Y0050990D01*
X0061180Y0051509D01*
X0059824Y0051509D01*
X0058571Y0050990D01*
X0057612Y0050031D01*
X0057093Y0048778D01*
X0057093Y0047422D01*
X0057612Y0046169D01*
X0058571Y0045210D01*
X0059824Y0044691D01*
X0061180Y0044691D01*
X0062433Y0045210D01*
X0063011Y0045788D01*
X0063011Y0043831D01*
X0060982Y0041802D01*
X0060982Y0037659D01*
X0060332Y0037009D01*
X0060332Y0035724D01*
X0060871Y0035186D01*
X0060224Y0035186D01*
X0059316Y0034278D01*
X0059316Y0033194D01*
X0059077Y0033194D01*
X0059077Y0041780D01*
X0057071Y0043786D01*
X0057071Y0052255D01*
X0058266Y0053450D01*
X0058303Y0053450D01*
X0059090Y0054237D01*
X0059090Y0055350D01*
X0058303Y0056137D01*
X0057189Y0056137D01*
X0056402Y0055350D01*
X0056402Y0054237D01*
X0056455Y0054184D01*
X0055798Y0053528D01*
X0055496Y0053226D01*
X0055496Y0053793D01*
X0055940Y0054237D01*
X0055940Y0055350D01*
X0055153Y0056137D01*
X0054040Y0056137D01*
X0053253Y0055350D01*
X0053253Y0054237D01*
X0053696Y0053793D01*
X0053696Y0053226D01*
X0053394Y0053528D01*
X0052738Y0054184D01*
X0052791Y0054237D01*
X0052791Y0055350D01*
X0052003Y0056137D01*
X0050890Y0056137D01*
X0050103Y0055350D01*
X0050103Y0054237D01*
X0050890Y0053450D01*
X0050927Y0053450D01*
X0052122Y0052255D01*
X0052122Y0044339D01*
X0048247Y0040464D01*
X0048247Y0037622D01*
X0047953Y0037916D01*
X0046668Y0037916D01*
X0046182Y0037430D01*
X0046182Y0045788D01*
X0046760Y0045210D01*
X0048013Y0044691D01*
X0049369Y0044691D01*
X0050622Y0045210D01*
X0051581Y0046169D01*
X0052100Y0047422D01*
X0052100Y0048778D01*
X0051581Y0050031D01*
X0050622Y0050990D01*
X0049369Y0051509D01*
X0048013Y0051509D01*
X0046760Y0050990D01*
X0046182Y0050412D01*
X0046182Y0050518D01*
X0049197Y0053533D01*
X0049197Y0053793D01*
X0049641Y0054237D01*
X0049641Y0055350D01*
X0048854Y0056137D01*
X0047741Y0056137D01*
X0046954Y0055350D01*
X0046954Y0054237D01*
X0047154Y0054036D01*
X0046048Y0052929D01*
X0046048Y0053793D01*
X0046491Y0054237D01*
X0046491Y0055350D01*
X0045704Y0056137D01*
X0044591Y0056137D01*
X0043804Y0055350D01*
X0043804Y0054237D01*
X0044248Y0053793D01*
X0044248Y0053591D01*
X0042898Y0052242D01*
X0042898Y0053793D01*
X0043342Y0054237D01*
X0043342Y0055350D01*
X0042555Y0056137D01*
X0041441Y0056137D01*
X0040654Y0055350D01*
X0040654Y0054237D01*
X0041098Y0053793D01*
X0041098Y0042371D01*
X0038869Y0040142D01*
X0038342Y0039615D01*
X0038342Y0038593D01*
X0038021Y0038914D01*
X0037469Y0038914D01*
X0038072Y0039517D01*
X0038072Y0039948D01*
X0039748Y0041625D01*
X0039748Y0053793D01*
X0040192Y0054237D01*
X0040192Y0055350D01*
X0039405Y0056137D01*
X0038292Y0056137D01*
X0037505Y0055350D01*
X0037505Y0054237D01*
X0037948Y0053793D01*
X0037948Y0044282D01*
X0037648Y0044582D01*
X0036406Y0044582D01*
X0036599Y0044775D01*
X0036599Y0053793D01*
X0037043Y0054237D01*
X0037043Y0055350D01*
X0036255Y0056137D01*
X0035142Y0056137D01*
X0034355Y0055350D01*
X0034355Y0054237D01*
X0034799Y0053793D01*
X0034799Y0049011D01*
X0034134Y0049676D01*
X0032850Y0049676D01*
X0032268Y0049095D01*
X0032268Y0049893D01*
X0034237Y0051861D01*
X0034237Y0060339D01*
X0034681Y0060339D01*
X0035468Y0061126D01*
X0035468Y0062240D01*
X0034681Y0063027D01*
X0033567Y0063027D01*
X0032943Y0062402D01*
X0032644Y0062702D01*
X0033106Y0062702D01*
X0033893Y0063489D01*
X0033893Y0064602D01*
X0033106Y0065389D01*
X0032478Y0065389D01*
X0031481Y0066387D01*
X0030953Y0066914D01*
X0028239Y0066914D01*
X0027712Y0066387D01*
X0027693Y0066368D01*
X0026935Y0066368D01*
X0026408Y0065841D01*
X0026144Y0065577D01*
X0026180Y0065788D01*
X0028216Y0067824D01*
X0029791Y0067824D01*
X0030345Y0068378D01*
X0030972Y0069006D01*
X0031526Y0069559D01*
X0031526Y0070058D01*
X0031993Y0069591D01*
X0033106Y0069591D01*
X0033533Y0070019D01*
X0033961Y0069591D01*
X0034974Y0069591D01*
X0034974Y0065221D01*
X0034355Y0064602D01*
X0034355Y0063489D01*
X0035142Y0062702D01*
X0036255Y0062702D01*
X0037043Y0063489D01*
X0037043Y0064602D01*
X0036774Y0064870D01*
X0036774Y0069591D01*
X0037830Y0069591D01*
X0037948Y0069710D01*
X0037948Y0065046D01*
X0037505Y0064602D01*
X0037505Y0063489D01*
X0038292Y0062702D01*
X0039405Y0062702D01*
X0040192Y0063489D01*
X0040192Y0064602D01*
X0039748Y0065046D01*
X0039748Y0069710D01*
X0039867Y0069591D01*
X0040980Y0069591D01*
X0041098Y0069710D01*
X0041098Y0065046D01*
X0040654Y0064602D01*
X0040654Y0063489D01*
X0041441Y0062702D01*
X0042555Y0062702D01*
X0043342Y0063489D01*
X0043342Y0064602D01*
X0042898Y0065046D01*
X0042898Y0069710D01*
X0043016Y0069591D01*
X0044129Y0069591D01*
X0044248Y0069710D01*
X0044248Y0065046D01*
X0043804Y0064602D01*
X0043804Y0063489D01*
X0044591Y0062702D01*
X0045704Y0062702D01*
X0046491Y0063489D01*
X0046491Y0064602D01*
X0046048Y0065046D01*
X0046048Y0069710D01*
X0046166Y0069591D01*
X0047279Y0069591D01*
X0047397Y0069710D01*
X0047397Y0065046D01*
X0046954Y0064602D01*
X0046954Y0063489D01*
X0047741Y0062702D01*
X0048854Y0062702D01*
X0049641Y0063489D01*
X0049641Y0064602D01*
X0049197Y0065046D01*
X0049197Y0069710D01*
X0049315Y0069591D01*
X0050429Y0069591D01*
X0050547Y0069710D01*
X0050547Y0065046D01*
X0050103Y0064602D01*
X0050103Y0063489D01*
X0050890Y0062702D01*
X0052003Y0062702D01*
X0052791Y0063489D01*
X0052791Y0064602D01*
X0052347Y0065046D01*
X0052347Y0069710D01*
X0052465Y0069591D01*
X0053578Y0069591D01*
X0053696Y0069710D01*
X0053696Y0065046D01*
X0053253Y0064602D01*
X0053253Y0063489D01*
X0054040Y0062702D01*
X0055153Y0062702D01*
X0055940Y0063489D01*
X0055940Y0064602D01*
X0055496Y0065046D01*
X0055496Y0069710D01*
X0055615Y0069591D01*
X0056728Y0069591D01*
X0056846Y0069710D01*
X0056846Y0065046D01*
X0056402Y0064602D01*
X0056402Y0063489D01*
X0057189Y0062702D01*
X0058303Y0062702D01*
X0059090Y0063489D01*
X0059090Y0064602D01*
X0058646Y0065046D01*
X0058646Y0069710D01*
X0058764Y0069591D01*
X0059877Y0069591D01*
X0059996Y0069710D01*
X0059996Y0065046D01*
X0059552Y0064602D01*
X0059552Y0063489D01*
X0060339Y0062702D01*
X0061452Y0062702D01*
X0062239Y0063489D01*
X0062239Y0064602D01*
X0061796Y0065046D01*
X0061796Y0069710D01*
X0061914Y0069591D01*
X0063027Y0069591D01*
X0063145Y0069710D01*
X0063145Y0065046D01*
X0062702Y0064602D01*
X0062702Y0063489D01*
X0063489Y0062702D01*
X0064602Y0062702D01*
X0065389Y0063489D01*
X0065389Y0064602D01*
X0064945Y0065046D01*
X0064945Y0069710D01*
X0065063Y0069591D01*
X0066177Y0069591D01*
X0066295Y0069710D01*
X0066295Y0065046D01*
X0065851Y0064602D01*
X0065851Y0063489D01*
X0066638Y0062702D01*
X0067751Y0062702D01*
X0068539Y0063489D01*
X0068539Y0064602D01*
X0068095Y0065046D01*
X0068095Y0069710D01*
X0068213Y0069591D01*
X0069326Y0069591D01*
X0069444Y0069710D01*
X0069444Y0065046D01*
X0069001Y0064602D01*
X0069001Y0063489D01*
X0069788Y0062702D01*
X0070901Y0062702D01*
X0071688Y0063489D01*
X0071688Y0064602D01*
X0071244Y0065046D01*
X0071244Y0069710D01*
X0071363Y0069591D01*
X0072476Y0069591D01*
X0073100Y0070216D01*
X0073725Y0069591D01*
X0074838Y0069591D01*
X0075625Y0070378D01*
X0075625Y0071368D01*
X0076087Y0071368D01*
X0076087Y0070378D01*
X0076875Y0069591D01*
X0077988Y0069591D01*
X0078775Y0070378D01*
X0078775Y0071492D01*
X0078015Y0072252D01*
X0078022Y0072259D01*
X0078913Y0071368D01*
X0080674Y0071368D01*
X0081680Y0072374D01*
X0083502Y0068250D01*
X0084804Y0062080D01*
X0084804Y0055774D01*
X0083502Y0049605D01*
X0080954Y0043837D01*
X0077270Y0038720D01*
X0072608Y0034473D01*
X0067171Y0031281D01*
X0061191Y0029280D01*
X0058111Y0028761D01*
X0051082Y0028761D01*
X0048002Y0029280D01*
X0042022Y0031281D01*
X0036584Y0034473D01*
X0031923Y0038720D01*
X0028239Y0043837D01*
X0026642Y0047451D01*
X0027813Y0046281D01*
X0027813Y0045362D01*
X0028721Y0044454D01*
X0030005Y0044454D01*
X0030730Y0045179D01*
X0030730Y0044835D01*
X0031601Y0043964D01*
X0030834Y0043198D01*
X0030834Y0041913D01*
X0031742Y0041005D01*
X0032468Y0041005D01*
X0032018Y0040555D01*
X0032018Y0039271D01*
X0032926Y0038363D01*
X0032800Y0038488D02*
X0032177Y0038488D01*
X0032302Y0038987D02*
X0031731Y0038987D01*
X0032018Y0039485D02*
X0031372Y0039485D01*
X0031013Y0039984D02*
X0032018Y0039984D01*
X0032018Y0040482D02*
X0030654Y0040482D01*
X0030295Y0040981D02*
X0032443Y0040981D01*
X0031269Y0041479D02*
X0029936Y0041479D01*
X0029577Y0041978D02*
X0030834Y0041978D01*
X0030834Y0042476D02*
X0029219Y0042476D01*
X0028860Y0042975D02*
X0030834Y0042975D01*
X0031110Y0043473D02*
X0028501Y0043473D01*
X0028179Y0043972D02*
X0031593Y0043972D01*
X0031095Y0044470D02*
X0030022Y0044470D01*
X0030520Y0044969D02*
X0030730Y0044969D01*
X0031368Y0046389D02*
X0031368Y0050266D01*
X0033337Y0052234D01*
X0033337Y0060108D01*
X0031762Y0061683D01*
X0032928Y0062417D02*
X0032957Y0062417D01*
X0033319Y0062915D02*
X0033456Y0062915D01*
X0033818Y0063414D02*
X0034430Y0063414D01*
X0034355Y0063912D02*
X0033893Y0063912D01*
X0033893Y0064411D02*
X0034355Y0064411D01*
X0034663Y0064909D02*
X0033585Y0064909D01*
X0032459Y0065408D02*
X0034974Y0065408D01*
X0034974Y0065906D02*
X0031961Y0065906D01*
X0031462Y0066405D02*
X0034974Y0066405D01*
X0034974Y0066903D02*
X0030964Y0066903D01*
X0030581Y0066014D02*
X0028612Y0066014D01*
X0028066Y0065468D01*
X0027308Y0065468D01*
X0026520Y0064681D01*
X0026520Y0063567D01*
X0026644Y0063444D01*
X0026644Y0048723D01*
X0029363Y0046004D01*
X0027813Y0045966D02*
X0027299Y0045966D01*
X0027519Y0045467D02*
X0027813Y0045467D01*
X0027739Y0044969D02*
X0028206Y0044969D01*
X0027959Y0044470D02*
X0028704Y0044470D01*
X0027629Y0046464D02*
X0027078Y0046464D01*
X0027131Y0046963D02*
X0026858Y0046963D01*
X0025744Y0049486D02*
X0025691Y0049605D01*
X0024389Y0055774D01*
X0024389Y0057347D01*
X0024743Y0056993D01*
X0025744Y0056993D01*
X0025744Y0049486D01*
X0025744Y0049954D02*
X0025617Y0049954D01*
X0025512Y0050452D02*
X0025744Y0050452D01*
X0025744Y0050951D02*
X0025407Y0050951D01*
X0025302Y0051449D02*
X0025744Y0051449D01*
X0025744Y0051948D02*
X0025197Y0051948D01*
X0025091Y0052447D02*
X0025744Y0052447D01*
X0025744Y0052945D02*
X0024986Y0052945D01*
X0024881Y0053444D02*
X0025744Y0053444D01*
X0025744Y0053942D02*
X0024776Y0053942D01*
X0024670Y0054441D02*
X0025744Y0054441D01*
X0025744Y0054939D02*
X0024565Y0054939D01*
X0024460Y0055438D02*
X0025744Y0055438D01*
X0025744Y0055936D02*
X0024389Y0055936D01*
X0024389Y0056435D02*
X0025744Y0056435D01*
X0025744Y0056933D02*
X0024389Y0056933D01*
X0027825Y0058927D02*
X0027825Y0062009D01*
X0029862Y0064045D01*
X0030187Y0064045D01*
X0029151Y0064909D02*
X0028781Y0064909D01*
X0028985Y0065114D02*
X0029355Y0065114D01*
X0028843Y0064602D01*
X0028843Y0064300D01*
X0027544Y0063000D01*
X0027544Y0063817D01*
X0027420Y0063940D01*
X0027420Y0064308D01*
X0027680Y0064568D01*
X0028439Y0064568D01*
X0028985Y0065114D01*
X0028843Y0064411D02*
X0027523Y0064411D01*
X0027448Y0063912D02*
X0028456Y0063912D01*
X0027957Y0063414D02*
X0027544Y0063414D01*
X0026473Y0065906D02*
X0026298Y0065906D01*
X0026797Y0066405D02*
X0027730Y0066405D01*
X0027295Y0066903D02*
X0028229Y0066903D01*
X0027794Y0067402D02*
X0034974Y0067402D01*
X0034974Y0067900D02*
X0029867Y0067900D01*
X0030366Y0068399D02*
X0034974Y0068399D01*
X0034974Y0068897D02*
X0030864Y0068897D01*
X0031363Y0069396D02*
X0034974Y0069396D01*
X0036774Y0069396D02*
X0037948Y0069396D01*
X0037948Y0068897D02*
X0036774Y0068897D01*
X0036774Y0068399D02*
X0037948Y0068399D01*
X0037948Y0067900D02*
X0036774Y0067900D01*
X0036774Y0067402D02*
X0037948Y0067402D01*
X0037948Y0066903D02*
X0036774Y0066903D01*
X0036774Y0066405D02*
X0037948Y0066405D01*
X0037948Y0065906D02*
X0036774Y0065906D01*
X0036774Y0065408D02*
X0037948Y0065408D01*
X0037812Y0064909D02*
X0036774Y0064909D01*
X0037043Y0064411D02*
X0037505Y0064411D01*
X0037505Y0063912D02*
X0037043Y0063912D01*
X0036968Y0063414D02*
X0037580Y0063414D01*
X0037830Y0063027D02*
X0036717Y0063027D01*
X0035930Y0062240D01*
X0035930Y0061126D01*
X0036717Y0060339D01*
X0037830Y0060339D01*
X0038617Y0061126D01*
X0038617Y0062240D01*
X0037830Y0063027D01*
X0037942Y0062915D02*
X0038078Y0062915D01*
X0038440Y0062417D02*
X0039257Y0062417D01*
X0039080Y0062240D02*
X0039080Y0061126D01*
X0039867Y0060339D01*
X0040980Y0060339D01*
X0041767Y0061126D01*
X0041767Y0062240D01*
X0040980Y0063027D01*
X0039867Y0063027D01*
X0039080Y0062240D01*
X0039080Y0061918D02*
X0038617Y0061918D01*
X0038617Y0061420D02*
X0039080Y0061420D01*
X0039285Y0060921D02*
X0038412Y0060921D01*
X0037914Y0060423D02*
X0039783Y0060423D01*
X0041063Y0060423D02*
X0042933Y0060423D01*
X0043016Y0060339D02*
X0044129Y0060339D01*
X0044917Y0061126D01*
X0044917Y0062240D01*
X0044129Y0063027D01*
X0043016Y0063027D01*
X0042229Y0062240D01*
X0042229Y0061126D01*
X0043016Y0060339D01*
X0042434Y0060921D02*
X0041562Y0060921D01*
X0041767Y0061420D02*
X0042229Y0061420D01*
X0042229Y0061918D02*
X0041767Y0061918D01*
X0041590Y0062417D02*
X0042406Y0062417D01*
X0042768Y0062915D02*
X0042905Y0062915D01*
X0043267Y0063414D02*
X0043879Y0063414D01*
X0043804Y0063912D02*
X0043342Y0063912D01*
X0043342Y0064411D02*
X0043804Y0064411D01*
X0044111Y0064909D02*
X0043034Y0064909D01*
X0042898Y0065408D02*
X0044248Y0065408D01*
X0044248Y0065906D02*
X0042898Y0065906D01*
X0042898Y0066405D02*
X0044248Y0066405D01*
X0044248Y0066903D02*
X0042898Y0066903D01*
X0042898Y0067402D02*
X0044248Y0067402D01*
X0044248Y0067900D02*
X0042898Y0067900D01*
X0042898Y0068399D02*
X0044248Y0068399D01*
X0044248Y0068897D02*
X0042898Y0068897D01*
X0042898Y0069396D02*
X0044248Y0069396D01*
X0046048Y0069396D02*
X0047397Y0069396D01*
X0047397Y0068897D02*
X0046048Y0068897D01*
X0046048Y0068399D02*
X0047397Y0068399D01*
X0047397Y0067900D02*
X0046048Y0067900D01*
X0046048Y0067402D02*
X0047397Y0067402D01*
X0047397Y0066903D02*
X0046048Y0066903D01*
X0046048Y0066405D02*
X0047397Y0066405D01*
X0047397Y0065906D02*
X0046048Y0065906D01*
X0046048Y0065408D02*
X0047397Y0065408D01*
X0047261Y0064909D02*
X0046184Y0064909D01*
X0046491Y0064411D02*
X0046954Y0064411D01*
X0046954Y0063912D02*
X0046491Y0063912D01*
X0046416Y0063414D02*
X0047028Y0063414D01*
X0047279Y0063027D02*
X0046166Y0063027D01*
X0045379Y0062240D01*
X0045379Y0061126D01*
X0046166Y0060339D01*
X0047279Y0060339D01*
X0048066Y0061126D01*
X0048066Y0062240D01*
X0047279Y0063027D01*
X0047391Y0062915D02*
X0047527Y0062915D01*
X0047889Y0062417D02*
X0048705Y0062417D01*
X0048528Y0062240D02*
X0048528Y0061126D01*
X0049315Y0060339D01*
X0050429Y0060339D01*
X0051216Y0061126D01*
X0051216Y0062240D01*
X0050429Y0063027D01*
X0049315Y0063027D01*
X0048528Y0062240D01*
X0048528Y0061918D02*
X0048066Y0061918D01*
X0048066Y0061420D02*
X0048528Y0061420D01*
X0048734Y0060921D02*
X0047861Y0060921D01*
X0047362Y0060423D02*
X0049232Y0060423D01*
X0050512Y0060423D02*
X0052382Y0060423D01*
X0052465Y0060339D02*
X0053578Y0060339D01*
X0054365Y0061126D01*
X0054365Y0062240D01*
X0053578Y0063027D01*
X0052465Y0063027D01*
X0051678Y0062240D01*
X0051678Y0061126D01*
X0052465Y0060339D01*
X0051883Y0060921D02*
X0051010Y0060921D01*
X0051216Y0061420D02*
X0051678Y0061420D01*
X0051678Y0061918D02*
X0051216Y0061918D01*
X0051039Y0062417D02*
X0051855Y0062417D01*
X0052217Y0062915D02*
X0052354Y0062915D01*
X0052716Y0063414D02*
X0053328Y0063414D01*
X0053253Y0063912D02*
X0052791Y0063912D01*
X0052791Y0064411D02*
X0053253Y0064411D01*
X0053560Y0064909D02*
X0052483Y0064909D01*
X0052347Y0065408D02*
X0053696Y0065408D01*
X0053696Y0065906D02*
X0052347Y0065906D01*
X0052347Y0066405D02*
X0053696Y0066405D01*
X0053696Y0066903D02*
X0052347Y0066903D01*
X0052347Y0067402D02*
X0053696Y0067402D01*
X0053696Y0067900D02*
X0052347Y0067900D01*
X0052347Y0068399D02*
X0053696Y0068399D01*
X0053696Y0068897D02*
X0052347Y0068897D01*
X0052347Y0069396D02*
X0053696Y0069396D01*
X0055496Y0069396D02*
X0056846Y0069396D01*
X0056846Y0068897D02*
X0055496Y0068897D01*
X0055496Y0068399D02*
X0056846Y0068399D01*
X0056846Y0067900D02*
X0055496Y0067900D01*
X0055496Y0067402D02*
X0056846Y0067402D01*
X0056846Y0066903D02*
X0055496Y0066903D01*
X0055496Y0066405D02*
X0056846Y0066405D01*
X0056846Y0065906D02*
X0055496Y0065906D01*
X0055496Y0065408D02*
X0056846Y0065408D01*
X0056710Y0064909D02*
X0055633Y0064909D01*
X0055940Y0064411D02*
X0056402Y0064411D01*
X0056402Y0063912D02*
X0055940Y0063912D01*
X0055865Y0063414D02*
X0056477Y0063414D01*
X0056728Y0063027D02*
X0055615Y0063027D01*
X0054828Y0062240D01*
X0054828Y0061126D01*
X0055615Y0060339D01*
X0056728Y0060339D01*
X0057515Y0061126D01*
X0057515Y0062240D01*
X0056728Y0063027D01*
X0056839Y0062915D02*
X0056976Y0062915D01*
X0057338Y0062417D02*
X0058154Y0062417D01*
X0057977Y0062240D02*
X0057977Y0061126D01*
X0058764Y0060339D01*
X0059877Y0060339D01*
X0060665Y0061126D01*
X0060665Y0062240D01*
X0059877Y0063027D01*
X0058764Y0063027D01*
X0057977Y0062240D01*
X0057977Y0061918D02*
X0057515Y0061918D01*
X0057515Y0061420D02*
X0057977Y0061420D01*
X0058182Y0060921D02*
X0057310Y0060921D01*
X0056811Y0060423D02*
X0058681Y0060423D01*
X0059961Y0060423D02*
X0061831Y0060423D01*
X0061914Y0060339D02*
X0063027Y0060339D01*
X0063814Y0061126D01*
X0063814Y0062240D01*
X0063027Y0063027D01*
X0061914Y0063027D01*
X0061127Y0062240D01*
X0061127Y0061126D01*
X0061914Y0060339D01*
X0061332Y0060921D02*
X0060459Y0060921D01*
X0060665Y0061420D02*
X0061127Y0061420D01*
X0061127Y0061918D02*
X0060665Y0061918D01*
X0060487Y0062417D02*
X0061304Y0062417D01*
X0061666Y0062915D02*
X0061802Y0062915D01*
X0062164Y0063414D02*
X0062777Y0063414D01*
X0062702Y0063912D02*
X0062239Y0063912D01*
X0062239Y0064411D02*
X0062702Y0064411D01*
X0063009Y0064909D02*
X0061932Y0064909D01*
X0061796Y0065408D02*
X0063145Y0065408D01*
X0063145Y0065906D02*
X0061796Y0065906D01*
X0061796Y0066405D02*
X0063145Y0066405D01*
X0063145Y0066903D02*
X0061796Y0066903D01*
X0061796Y0067402D02*
X0063145Y0067402D01*
X0063145Y0067900D02*
X0061796Y0067900D01*
X0061796Y0068399D02*
X0063145Y0068399D01*
X0063145Y0068897D02*
X0061796Y0068897D01*
X0061796Y0069396D02*
X0063145Y0069396D01*
X0064945Y0069396D02*
X0066295Y0069396D01*
X0066295Y0068897D02*
X0064945Y0068897D01*
X0064945Y0068399D02*
X0066295Y0068399D01*
X0066295Y0067900D02*
X0064945Y0067900D01*
X0064945Y0067402D02*
X0066295Y0067402D01*
X0066295Y0066903D02*
X0064945Y0066903D01*
X0064945Y0066405D02*
X0066295Y0066405D01*
X0066295Y0065906D02*
X0064945Y0065906D01*
X0064945Y0065408D02*
X0066295Y0065408D01*
X0066159Y0064909D02*
X0065082Y0064909D01*
X0065389Y0064411D02*
X0065851Y0064411D01*
X0065851Y0063912D02*
X0065389Y0063912D01*
X0065314Y0063414D02*
X0065926Y0063414D01*
X0066177Y0063027D02*
X0065063Y0063027D01*
X0064276Y0062240D01*
X0064276Y0061126D01*
X0065063Y0060339D01*
X0066177Y0060339D01*
X0066964Y0061126D01*
X0066964Y0062240D01*
X0066177Y0063027D01*
X0066288Y0062915D02*
X0066425Y0062915D01*
X0066787Y0062417D02*
X0067603Y0062417D01*
X0067426Y0062240D02*
X0067426Y0061126D01*
X0068213Y0060339D01*
X0069326Y0060339D01*
X0070113Y0061126D01*
X0070113Y0062240D01*
X0069326Y0063027D01*
X0068213Y0063027D01*
X0067426Y0062240D01*
X0067426Y0061918D02*
X0066964Y0061918D01*
X0066964Y0061420D02*
X0067426Y0061420D01*
X0067631Y0060921D02*
X0066758Y0060921D01*
X0066260Y0060423D02*
X0068130Y0060423D01*
X0069410Y0060423D02*
X0071279Y0060423D01*
X0071363Y0060339D02*
X0072476Y0060339D01*
X0073263Y0061126D01*
X0073263Y0062240D01*
X0072476Y0063027D01*
X0071363Y0063027D01*
X0070576Y0062240D01*
X0070576Y0061126D01*
X0071363Y0060339D01*
X0070781Y0060921D02*
X0069908Y0060921D01*
X0070113Y0061420D02*
X0070576Y0061420D01*
X0070576Y0061918D02*
X0070113Y0061918D01*
X0069936Y0062417D02*
X0070753Y0062417D01*
X0071115Y0062915D02*
X0071251Y0062915D01*
X0071613Y0063414D02*
X0072225Y0063414D01*
X0072150Y0063912D02*
X0071688Y0063912D01*
X0071688Y0064411D02*
X0072150Y0064411D01*
X0072458Y0064909D02*
X0071381Y0064909D01*
X0071244Y0065408D02*
X0073584Y0065408D01*
X0074082Y0065906D02*
X0071244Y0065906D01*
X0071244Y0066405D02*
X0074581Y0066405D01*
X0075079Y0066903D02*
X0071244Y0066903D01*
X0071244Y0067402D02*
X0083681Y0067402D01*
X0083576Y0067900D02*
X0071244Y0067900D01*
X0071244Y0068399D02*
X0083436Y0068399D01*
X0083216Y0068897D02*
X0071244Y0068897D01*
X0071244Y0069396D02*
X0082995Y0069396D01*
X0082775Y0069894D02*
X0078291Y0069894D01*
X0078775Y0070393D02*
X0082555Y0070393D01*
X0082335Y0070891D02*
X0078775Y0070891D01*
X0078775Y0071390D02*
X0078890Y0071390D01*
X0078392Y0071888D02*
X0078378Y0071888D01*
X0080696Y0071390D02*
X0082115Y0071390D01*
X0081894Y0071888D02*
X0081195Y0071888D01*
X0076571Y0069894D02*
X0075141Y0069894D01*
X0075625Y0070393D02*
X0076087Y0070393D01*
X0076087Y0070891D02*
X0075625Y0070891D01*
X0073422Y0069894D02*
X0072779Y0069894D01*
X0069444Y0069396D02*
X0068095Y0069396D01*
X0068095Y0068897D02*
X0069444Y0068897D01*
X0069444Y0068399D02*
X0068095Y0068399D01*
X0068095Y0067900D02*
X0069444Y0067900D01*
X0069444Y0067402D02*
X0068095Y0067402D01*
X0068095Y0066903D02*
X0069444Y0066903D01*
X0069444Y0066405D02*
X0068095Y0066405D01*
X0068095Y0065906D02*
X0069444Y0065906D01*
X0069444Y0065408D02*
X0068095Y0065408D01*
X0068231Y0064909D02*
X0069308Y0064909D01*
X0069001Y0064411D02*
X0068539Y0064411D01*
X0068539Y0063912D02*
X0069001Y0063912D01*
X0069076Y0063414D02*
X0068464Y0063414D01*
X0068102Y0062915D02*
X0067965Y0062915D01*
X0067195Y0064045D02*
X0067195Y0073888D01*
X0071213Y0077905D01*
X0071213Y0081898D01*
X0072763Y0081859D02*
X0074280Y0081859D01*
X0073732Y0082357D02*
X0072763Y0082357D01*
X0072763Y0082540D02*
X0071855Y0083448D01*
X0070571Y0083448D01*
X0069663Y0082540D01*
X0069663Y0081947D01*
X0069016Y0082593D01*
X0068141Y0082593D01*
X0068505Y0082956D01*
X0068505Y0084241D01*
X0067597Y0085148D01*
X0066313Y0085148D01*
X0066251Y0085087D01*
X0066251Y0086058D01*
X0065343Y0086966D01*
X0064059Y0086966D01*
X0063151Y0086058D01*
X0063151Y0085077D01*
X0062823Y0085405D01*
X0061698Y0085405D01*
X0061698Y0086598D01*
X0060790Y0087506D01*
X0059506Y0087506D01*
X0059051Y0087051D01*
X0059051Y0087771D01*
X0058143Y0088678D01*
X0056859Y0088678D01*
X0055951Y0087771D01*
X0055951Y0087285D01*
X0055888Y0087327D01*
X0055392Y0087533D01*
X0054865Y0087638D01*
X0054839Y0087638D01*
X0054839Y0085154D01*
X0054354Y0085154D01*
X0054354Y0087638D01*
X0054328Y0087638D01*
X0053801Y0087533D01*
X0053305Y0087327D01*
X0053242Y0087285D01*
X0053242Y0087771D01*
X0052334Y0088678D01*
X0051050Y0088678D01*
X0050142Y0087771D01*
X0050142Y0087051D01*
X0049687Y0087506D01*
X0048402Y0087506D01*
X0047495Y0086598D01*
X0047495Y0085405D01*
X0046370Y0085405D01*
X0046042Y0085077D01*
X0046042Y0086058D01*
X0045134Y0086966D01*
X0043850Y0086966D01*
X0042942Y0086058D01*
X0042942Y0085087D01*
X0042880Y0085148D01*
X0041596Y0085148D01*
X0040688Y0084241D01*
X0040688Y0082956D01*
X0041052Y0082593D01*
X0040177Y0082593D01*
X0039530Y0081947D01*
X0039530Y0082540D01*
X0038622Y0083448D01*
X0037338Y0083448D01*
X0036430Y0082540D01*
X0036430Y0081256D01*
X0036577Y0081109D01*
X0035632Y0081109D01*
X0034724Y0080201D01*
X0034724Y0078917D01*
X0035367Y0078273D01*
X0034922Y0078273D01*
X0034014Y0077365D01*
X0034014Y0076081D01*
X0034922Y0075173D01*
X0035300Y0075173D01*
X0034943Y0074816D01*
X0034139Y0075620D01*
X0033298Y0075620D01*
X0033298Y0077131D01*
X0032052Y0078376D01*
X0031377Y0078376D01*
X0031923Y0079135D01*
X0036584Y0083381D01*
X0042022Y0086573D01*
X0048002Y0088574D01*
X0051082Y0089093D01*
X0058111Y0089093D01*
X0061191Y0088574D01*
X0067171Y0086573D01*
X0072608Y0083381D01*
X0076613Y0079733D01*
X0076242Y0079659D01*
X0075746Y0079453D01*
X0075299Y0079155D01*
X0074920Y0078775D01*
X0074621Y0078329D01*
X0074502Y0078042D01*
X0074271Y0078273D01*
X0073825Y0078273D01*
X0074469Y0078917D01*
X0074469Y0080201D01*
X0073561Y0081109D01*
X0072616Y0081109D01*
X0072763Y0081256D01*
X0072763Y0082540D01*
X0072447Y0082856D02*
X0073185Y0082856D01*
X0072638Y0083354D02*
X0071948Y0083354D01*
X0071805Y0083853D02*
X0068505Y0083853D01*
X0068505Y0083354D02*
X0070477Y0083354D01*
X0069978Y0082856D02*
X0068404Y0082856D01*
X0069252Y0082357D02*
X0069663Y0082357D01*
X0068374Y0081043D02*
X0064045Y0076714D01*
X0064045Y0064045D01*
X0063275Y0062915D02*
X0063139Y0062915D01*
X0063637Y0062417D02*
X0064453Y0062417D01*
X0064276Y0061918D02*
X0063814Y0061918D01*
X0063814Y0061420D02*
X0064276Y0061420D01*
X0064482Y0060921D02*
X0063609Y0060921D01*
X0063110Y0060423D02*
X0064980Y0060423D01*
X0064952Y0062915D02*
X0064816Y0062915D01*
X0060896Y0064045D02*
X0060896Y0075856D01*
X0064701Y0079662D01*
X0064701Y0085416D01*
X0063151Y0085348D02*
X0062880Y0085348D01*
X0063151Y0085847D02*
X0061698Y0085847D01*
X0061698Y0086345D02*
X0063439Y0086345D01*
X0063937Y0086844D02*
X0061453Y0086844D01*
X0060955Y0087342D02*
X0064873Y0087342D01*
X0065465Y0086844D02*
X0066363Y0086844D01*
X0065964Y0086345D02*
X0067559Y0086345D01*
X0068409Y0085847D02*
X0066251Y0085847D01*
X0066251Y0085348D02*
X0069258Y0085348D01*
X0070107Y0084850D02*
X0067896Y0084850D01*
X0068394Y0084351D02*
X0070956Y0084351D01*
X0072763Y0081360D02*
X0074827Y0081360D01*
X0075374Y0080862D02*
X0073809Y0080862D01*
X0074307Y0080363D02*
X0075921Y0080363D01*
X0076469Y0079865D02*
X0074469Y0079865D01*
X0074469Y0079366D02*
X0075615Y0079366D01*
X0075012Y0078868D02*
X0074420Y0078868D01*
X0074648Y0078369D02*
X0073921Y0078369D01*
X0073629Y0076723D02*
X0072313Y0076723D01*
X0070344Y0074755D01*
X0070344Y0064045D01*
X0069574Y0062915D02*
X0069438Y0062915D01*
X0072587Y0062915D02*
X0072724Y0062915D01*
X0073086Y0062417D02*
X0073902Y0062417D01*
X0073725Y0061918D02*
X0073263Y0061918D01*
X0073263Y0061420D02*
X0073725Y0061420D01*
X0073930Y0060921D02*
X0073058Y0060921D01*
X0072559Y0060423D02*
X0074429Y0060423D01*
X0074399Y0059924D02*
X0034237Y0059924D01*
X0034237Y0059426D02*
X0073972Y0059426D01*
X0073972Y0058927D02*
X0034237Y0058927D01*
X0034237Y0058429D02*
X0073972Y0058429D01*
X0073972Y0057930D02*
X0034237Y0057930D01*
X0034237Y0057432D02*
X0073972Y0057432D01*
X0073972Y0056933D02*
X0034237Y0056933D01*
X0034237Y0056435D02*
X0073972Y0056435D01*
X0072737Y0055936D02*
X0071102Y0055936D01*
X0071600Y0055438D02*
X0072238Y0055438D01*
X0072150Y0054939D02*
X0071688Y0054939D01*
X0070344Y0054793D02*
X0070344Y0038834D01*
X0071814Y0037364D01*
X0072883Y0038488D02*
X0074858Y0038488D01*
X0074360Y0038987D02*
X0073691Y0038987D01*
X0073364Y0037990D02*
X0076469Y0037990D01*
X0076393Y0038488D02*
X0077016Y0038488D01*
X0076891Y0038987D02*
X0077462Y0038987D01*
X0077175Y0039485D02*
X0077821Y0039485D01*
X0078180Y0039984D02*
X0077175Y0039984D01*
X0077175Y0040482D02*
X0078539Y0040482D01*
X0078898Y0040981D02*
X0076750Y0040981D01*
X0077924Y0041479D02*
X0079257Y0041479D01*
X0079615Y0041978D02*
X0078358Y0041978D01*
X0078358Y0042476D02*
X0079974Y0042476D01*
X0080333Y0042975D02*
X0078358Y0042975D01*
X0078083Y0043473D02*
X0080692Y0043473D01*
X0081013Y0043972D02*
X0077600Y0043972D01*
X0078098Y0044470D02*
X0079171Y0044470D01*
X0078673Y0044969D02*
X0078463Y0044969D01*
X0080489Y0044470D02*
X0081234Y0044470D01*
X0081454Y0044969D02*
X0080987Y0044969D01*
X0081380Y0045467D02*
X0081674Y0045467D01*
X0081894Y0045966D02*
X0081380Y0045966D01*
X0081380Y0046464D02*
X0082115Y0046464D01*
X0082335Y0046963D02*
X0081063Y0046963D01*
X0081080Y0047461D02*
X0082555Y0047461D01*
X0082775Y0047960D02*
X0081579Y0047960D01*
X0081839Y0048458D02*
X0082995Y0048458D01*
X0083216Y0048957D02*
X0081839Y0048957D01*
X0082155Y0049455D02*
X0083436Y0049455D01*
X0083576Y0049954D02*
X0082653Y0049954D01*
X0083152Y0050452D02*
X0083681Y0050452D01*
X0083786Y0050951D02*
X0083449Y0050951D01*
X0083449Y0051449D02*
X0083891Y0051449D01*
X0083996Y0051948D02*
X0083449Y0051948D01*
X0083449Y0052447D02*
X0084102Y0052447D01*
X0084207Y0052945D02*
X0083449Y0052945D01*
X0083449Y0053444D02*
X0084312Y0053444D01*
X0084417Y0053942D02*
X0083449Y0053942D01*
X0083449Y0054441D02*
X0084522Y0054441D01*
X0084628Y0054939D02*
X0083449Y0054939D01*
X0083449Y0055438D02*
X0084733Y0055438D01*
X0084804Y0055936D02*
X0083449Y0055936D01*
X0083449Y0056435D02*
X0084804Y0056435D01*
X0084804Y0056933D02*
X0083449Y0056933D01*
X0083449Y0057432D02*
X0084804Y0057432D01*
X0084804Y0057930D02*
X0083449Y0057930D01*
X0083449Y0058429D02*
X0084804Y0058429D01*
X0084804Y0058927D02*
X0083449Y0058927D01*
X0083449Y0059426D02*
X0084804Y0059426D01*
X0084804Y0059924D02*
X0083449Y0059924D01*
X0083449Y0060423D02*
X0084804Y0060423D01*
X0084804Y0060921D02*
X0083449Y0060921D01*
X0083449Y0061420D02*
X0084804Y0061420D01*
X0084804Y0061918D02*
X0083449Y0061918D01*
X0083449Y0062417D02*
X0084733Y0062417D01*
X0084628Y0062915D02*
X0083449Y0062915D01*
X0083449Y0063414D02*
X0084522Y0063414D01*
X0084417Y0063912D02*
X0083168Y0063912D01*
X0082669Y0064411D02*
X0084312Y0064411D01*
X0084207Y0064909D02*
X0082171Y0064909D01*
X0081672Y0065408D02*
X0084102Y0065408D01*
X0083996Y0065906D02*
X0081174Y0065906D01*
X0080675Y0066405D02*
X0083891Y0066405D01*
X0083786Y0066903D02*
X0080177Y0066903D01*
X0079793Y0066014D02*
X0082549Y0063258D01*
X0082549Y0051123D01*
X0080289Y0048862D01*
X0076053Y0048478D02*
X0075701Y0048126D01*
X0076053Y0048478D02*
X0076053Y0055384D01*
X0077234Y0056565D01*
X0078022Y0056565D01*
X0079793Y0054793D01*
X0080974Y0053415D02*
X0078319Y0053415D01*
X0077778Y0053957D01*
X0080974Y0053415D02*
X0081368Y0053809D01*
X0081368Y0062746D01*
X0079400Y0064715D01*
X0077313Y0064715D01*
X0076644Y0064045D01*
X0075300Y0063912D02*
X0074838Y0063912D01*
X0074763Y0063414D02*
X0075375Y0063414D01*
X0075737Y0062915D02*
X0075873Y0062915D01*
X0076235Y0062417D02*
X0076265Y0062417D01*
X0077431Y0061683D02*
X0074872Y0059124D01*
X0074872Y0050069D01*
X0073888Y0049085D01*
X0073888Y0045476D01*
X0076808Y0042555D01*
X0072187Y0043032D02*
X0072187Y0053683D01*
X0073494Y0054793D01*
X0069587Y0055936D02*
X0067952Y0055936D01*
X0068451Y0055438D02*
X0069088Y0055438D01*
X0069001Y0054939D02*
X0068539Y0054939D01*
X0068539Y0054441D02*
X0069001Y0054441D01*
X0069295Y0053942D02*
X0068373Y0053942D01*
X0068373Y0053444D02*
X0069444Y0053444D01*
X0069444Y0052945D02*
X0068373Y0052945D01*
X0068373Y0052447D02*
X0069444Y0052447D01*
X0069444Y0051948D02*
X0068373Y0051948D01*
X0068373Y0051449D02*
X0069444Y0051449D01*
X0069444Y0050951D02*
X0068373Y0050951D01*
X0068373Y0050452D02*
X0069444Y0050452D01*
X0069444Y0049954D02*
X0068373Y0049954D01*
X0068373Y0049455D02*
X0069444Y0049455D01*
X0069444Y0048957D02*
X0068373Y0048957D01*
X0068373Y0048458D02*
X0069444Y0048458D01*
X0069444Y0047960D02*
X0068373Y0047960D01*
X0068373Y0047461D02*
X0069444Y0047461D01*
X0069444Y0046963D02*
X0068373Y0046963D01*
X0068373Y0046464D02*
X0069444Y0046464D01*
X0069444Y0045966D02*
X0068373Y0045966D01*
X0068373Y0045467D02*
X0069444Y0045467D01*
X0069444Y0044969D02*
X0068373Y0044969D01*
X0068373Y0044470D02*
X0069444Y0044470D01*
X0069444Y0043972D02*
X0068373Y0043972D01*
X0068373Y0043473D02*
X0069444Y0043473D01*
X0069444Y0042975D02*
X0068373Y0042975D01*
X0068373Y0042476D02*
X0069444Y0042476D01*
X0069444Y0041978D02*
X0068373Y0041978D01*
X0068373Y0041479D02*
X0069444Y0041479D01*
X0069444Y0040981D02*
X0068373Y0040981D01*
X0068373Y0040482D02*
X0069444Y0040482D01*
X0069444Y0039984D02*
X0068703Y0039984D01*
X0069023Y0039485D02*
X0069444Y0039485D01*
X0069444Y0038987D02*
X0069023Y0038987D01*
X0069023Y0038488D02*
X0069444Y0038488D01*
X0069916Y0037990D02*
X0068634Y0037990D01*
X0068136Y0037491D02*
X0070264Y0037491D01*
X0070264Y0036993D02*
X0068518Y0036993D01*
X0068748Y0036494D02*
X0069172Y0036494D01*
X0068438Y0034999D02*
X0068268Y0034999D01*
X0068438Y0034500D02*
X0066982Y0034500D01*
X0067197Y0034002D02*
X0068912Y0034002D01*
X0070107Y0033005D02*
X0067197Y0033005D01*
X0067197Y0033503D02*
X0070956Y0033503D01*
X0071063Y0034002D02*
X0071805Y0034002D01*
X0071538Y0034500D02*
X0072638Y0034500D01*
X0073185Y0034999D02*
X0071538Y0034999D01*
X0071538Y0035497D02*
X0073733Y0035497D01*
X0074280Y0035996D02*
X0072638Y0035996D01*
X0073136Y0036494D02*
X0074827Y0036494D01*
X0075374Y0036993D02*
X0073364Y0036993D01*
X0073364Y0037491D02*
X0075921Y0037491D01*
X0069258Y0032506D02*
X0066702Y0032506D01*
X0067559Y0031509D02*
X0064851Y0031509D01*
X0064851Y0032008D02*
X0068409Y0032008D01*
X0066363Y0031011D02*
X0064558Y0031011D01*
X0064873Y0030512D02*
X0064059Y0030512D01*
X0063383Y0030014D02*
X0057571Y0030014D01*
X0057571Y0030512D02*
X0057667Y0030512D01*
X0057116Y0029515D02*
X0061893Y0029515D01*
X0062543Y0030512D02*
X0059786Y0030512D01*
X0060276Y0031011D02*
X0062044Y0031011D01*
X0061751Y0031509D02*
X0060276Y0031509D01*
X0060276Y0032008D02*
X0061751Y0032008D01*
X0062416Y0033503D02*
X0064097Y0033503D01*
X0064015Y0034002D02*
X0062416Y0034002D01*
X0062194Y0034500D02*
X0063902Y0034500D01*
X0063902Y0034999D02*
X0062707Y0034999D01*
X0063205Y0035497D02*
X0063902Y0035497D01*
X0063902Y0035996D02*
X0063432Y0035996D01*
X0063432Y0036494D02*
X0063902Y0036494D01*
X0063902Y0036993D02*
X0063432Y0036993D01*
X0063902Y0037491D02*
X0062950Y0037491D01*
X0062782Y0037990D02*
X0063902Y0037990D01*
X0063902Y0038488D02*
X0062782Y0038488D01*
X0062782Y0038987D02*
X0063902Y0038987D01*
X0063902Y0039485D02*
X0062782Y0039485D01*
X0062782Y0039984D02*
X0063902Y0039984D01*
X0063902Y0040482D02*
X0062782Y0040482D01*
X0062782Y0040981D02*
X0063902Y0040981D01*
X0064222Y0041479D02*
X0063205Y0041479D01*
X0063704Y0041978D02*
X0064721Y0041978D01*
X0064917Y0042476D02*
X0064202Y0042476D01*
X0064701Y0042975D02*
X0064917Y0042975D01*
X0064917Y0043473D02*
X0064811Y0043473D01*
X0064811Y0043972D02*
X0064917Y0043972D01*
X0064917Y0044470D02*
X0064811Y0044470D01*
X0064811Y0044969D02*
X0064917Y0044969D01*
X0064917Y0045467D02*
X0064811Y0045467D01*
X0064811Y0045966D02*
X0064917Y0045966D01*
X0064917Y0046464D02*
X0064811Y0046464D01*
X0064811Y0046963D02*
X0064917Y0046963D01*
X0064917Y0047461D02*
X0064811Y0047461D01*
X0064811Y0047960D02*
X0064917Y0047960D01*
X0064917Y0048458D02*
X0064811Y0048458D01*
X0064811Y0048957D02*
X0064917Y0048957D01*
X0064917Y0049455D02*
X0064811Y0049455D01*
X0064811Y0049954D02*
X0064917Y0049954D01*
X0064917Y0050452D02*
X0064811Y0050452D01*
X0064811Y0050951D02*
X0064917Y0050951D01*
X0064917Y0051449D02*
X0064811Y0051449D01*
X0064917Y0051948D02*
X0064683Y0051948D01*
X0064726Y0052447D02*
X0064184Y0052447D01*
X0064227Y0052945D02*
X0063686Y0052945D01*
X0063729Y0053444D02*
X0063187Y0053444D01*
X0062996Y0053942D02*
X0062689Y0053942D01*
X0062702Y0054441D02*
X0062239Y0054441D01*
X0062239Y0054939D02*
X0062702Y0054939D01*
X0062789Y0055438D02*
X0062152Y0055438D01*
X0061653Y0055936D02*
X0063288Y0055936D01*
X0064045Y0054793D02*
X0064045Y0054400D01*
X0065817Y0052628D01*
X0065817Y0041801D01*
X0064802Y0040787D01*
X0064802Y0034487D01*
X0065647Y0033643D01*
X0061882Y0036367D02*
X0061882Y0041429D01*
X0063911Y0043458D01*
X0063911Y0051447D01*
X0060896Y0054462D01*
X0060896Y0054793D01*
X0059847Y0053942D02*
X0058795Y0053942D01*
X0059090Y0054441D02*
X0059552Y0054441D01*
X0059552Y0054939D02*
X0059090Y0054939D01*
X0059002Y0055438D02*
X0059640Y0055438D01*
X0060138Y0055936D02*
X0058504Y0055936D01*
X0057746Y0054793D02*
X0057746Y0054203D01*
X0056171Y0052628D01*
X0056171Y0043414D01*
X0058177Y0041407D01*
X0058177Y0032193D01*
X0058726Y0031644D01*
X0057176Y0031649D02*
X0056663Y0032162D01*
X0055379Y0032162D01*
X0054596Y0031380D01*
X0054072Y0031904D01*
X0054072Y0031938D01*
X0053662Y0032347D01*
X0053801Y0032290D01*
X0054328Y0032185D01*
X0054354Y0032185D01*
X0054354Y0034669D01*
X0054839Y0034669D01*
X0054839Y0032185D01*
X0054865Y0032185D01*
X0055392Y0032290D01*
X0055888Y0032495D01*
X0056334Y0032794D01*
X0056714Y0033173D01*
X0057013Y0033620D01*
X0057218Y0034116D01*
X0057277Y0034415D01*
X0057277Y0032388D01*
X0057176Y0032286D01*
X0057176Y0031649D01*
X0057176Y0032008D02*
X0056818Y0032008D01*
X0057277Y0032506D02*
X0055904Y0032506D01*
X0056545Y0033005D02*
X0057277Y0033005D01*
X0057277Y0033503D02*
X0056934Y0033503D01*
X0057171Y0034002D02*
X0057277Y0034002D01*
X0057277Y0035408D02*
X0057218Y0035707D01*
X0057013Y0036203D01*
X0056714Y0036649D01*
X0056334Y0037029D01*
X0055888Y0037327D01*
X0055392Y0037533D01*
X0054865Y0037638D01*
X0054839Y0037638D01*
X0054839Y0035154D01*
X0054354Y0035154D01*
X0054354Y0037638D01*
X0054328Y0037638D01*
X0053801Y0037533D01*
X0053305Y0037327D01*
X0052858Y0037029D01*
X0052741Y0036911D01*
X0052741Y0038672D01*
X0055496Y0041428D01*
X0055496Y0042816D01*
X0055798Y0042514D01*
X0057277Y0041035D01*
X0057277Y0035408D01*
X0057277Y0035497D02*
X0057260Y0035497D01*
X0057277Y0035996D02*
X0057098Y0035996D01*
X0057277Y0036494D02*
X0056818Y0036494D01*
X0056371Y0036993D02*
X0057277Y0036993D01*
X0057277Y0037491D02*
X0055493Y0037491D01*
X0054839Y0037491D02*
X0054354Y0037491D01*
X0054354Y0036993D02*
X0054839Y0036993D01*
X0054839Y0036494D02*
X0054354Y0036494D01*
X0054354Y0035996D02*
X0054839Y0035996D01*
X0054839Y0035497D02*
X0054354Y0035497D01*
X0054354Y0034500D02*
X0054839Y0034500D01*
X0054839Y0034002D02*
X0054354Y0034002D01*
X0054354Y0033503D02*
X0054839Y0033503D01*
X0054839Y0033005D02*
X0054354Y0033005D01*
X0054354Y0032506D02*
X0054839Y0032506D01*
X0055224Y0032008D02*
X0054002Y0032008D01*
X0054467Y0031509D02*
X0054726Y0031509D01*
X0053172Y0031565D02*
X0053172Y0030612D01*
X0053172Y0031565D02*
X0051841Y0032896D01*
X0051841Y0039045D01*
X0054596Y0041801D01*
X0054596Y0054793D01*
X0053547Y0053942D02*
X0052980Y0053942D01*
X0052791Y0054441D02*
X0053253Y0054441D01*
X0053253Y0054939D02*
X0052791Y0054939D01*
X0052703Y0055438D02*
X0053340Y0055438D01*
X0053839Y0055936D02*
X0052204Y0055936D01*
X0051447Y0054793D02*
X0051447Y0054203D01*
X0053022Y0052628D01*
X0053022Y0043967D01*
X0049147Y0040092D01*
X0049147Y0034456D01*
X0048327Y0033636D01*
X0048917Y0032008D02*
X0047442Y0032008D01*
X0047442Y0031509D02*
X0048917Y0031509D01*
X0048917Y0031011D02*
X0047149Y0031011D01*
X0046650Y0030512D02*
X0049407Y0030512D01*
X0049568Y0029016D02*
X0059625Y0029016D01*
X0059316Y0033503D02*
X0059077Y0033503D01*
X0059077Y0034002D02*
X0059316Y0034002D01*
X0059538Y0034500D02*
X0059077Y0034500D01*
X0059077Y0034999D02*
X0060036Y0034999D01*
X0060560Y0035497D02*
X0059077Y0035497D01*
X0059077Y0035996D02*
X0060332Y0035996D01*
X0060332Y0036494D02*
X0059077Y0036494D01*
X0059077Y0036993D02*
X0060332Y0036993D01*
X0060815Y0037491D02*
X0059077Y0037491D01*
X0059077Y0037990D02*
X0060982Y0037990D01*
X0060982Y0038488D02*
X0059077Y0038488D01*
X0059077Y0038987D02*
X0060982Y0038987D01*
X0060982Y0039485D02*
X0059077Y0039485D01*
X0059077Y0039984D02*
X0060982Y0039984D01*
X0060982Y0040482D02*
X0059077Y0040482D01*
X0059077Y0040981D02*
X0060982Y0040981D01*
X0060982Y0041479D02*
X0059077Y0041479D01*
X0058880Y0041978D02*
X0061158Y0041978D01*
X0061657Y0042476D02*
X0058381Y0042476D01*
X0057883Y0042975D02*
X0062155Y0042975D01*
X0062654Y0043473D02*
X0057384Y0043473D01*
X0057071Y0043972D02*
X0063011Y0043972D01*
X0063011Y0044470D02*
X0057071Y0044470D01*
X0057071Y0044969D02*
X0059154Y0044969D01*
X0058314Y0045467D02*
X0057071Y0045467D01*
X0057071Y0045966D02*
X0057815Y0045966D01*
X0057490Y0046464D02*
X0057071Y0046464D01*
X0057071Y0046963D02*
X0057283Y0046963D01*
X0057093Y0047461D02*
X0057071Y0047461D01*
X0057071Y0047960D02*
X0057093Y0047960D01*
X0057071Y0048458D02*
X0057093Y0048458D01*
X0057071Y0048957D02*
X0057167Y0048957D01*
X0057071Y0049455D02*
X0057373Y0049455D01*
X0057580Y0049954D02*
X0057071Y0049954D01*
X0057071Y0050452D02*
X0058033Y0050452D01*
X0058531Y0050951D02*
X0057071Y0050951D01*
X0057071Y0051449D02*
X0059679Y0051449D01*
X0061140Y0052945D02*
X0057761Y0052945D01*
X0057263Y0052447D02*
X0061639Y0052447D01*
X0062137Y0051948D02*
X0057071Y0051948D01*
X0058260Y0053444D02*
X0060642Y0053444D01*
X0061325Y0051449D02*
X0062636Y0051449D01*
X0062472Y0050951D02*
X0063011Y0050951D01*
X0063011Y0050452D02*
X0062971Y0050452D01*
X0066274Y0053444D02*
X0066573Y0053444D01*
X0066146Y0053942D02*
X0065776Y0053942D01*
X0065851Y0054441D02*
X0065389Y0054441D01*
X0065389Y0054939D02*
X0065851Y0054939D01*
X0065939Y0055438D02*
X0065301Y0055438D01*
X0064803Y0055936D02*
X0066437Y0055936D01*
X0067195Y0054793D02*
X0067473Y0054515D01*
X0067473Y0039021D01*
X0063011Y0044969D02*
X0061850Y0044969D01*
X0062690Y0045467D02*
X0063011Y0045467D01*
X0057277Y0040981D02*
X0055049Y0040981D01*
X0055496Y0041479D02*
X0056833Y0041479D01*
X0056334Y0041978D02*
X0055496Y0041978D01*
X0055496Y0042476D02*
X0055836Y0042476D01*
X0054550Y0040482D02*
X0057277Y0040482D01*
X0057277Y0039984D02*
X0054052Y0039984D01*
X0053553Y0039485D02*
X0057277Y0039485D01*
X0057277Y0038987D02*
X0053055Y0038987D01*
X0052741Y0038488D02*
X0057277Y0038488D01*
X0057277Y0037990D02*
X0052741Y0037990D01*
X0052741Y0037491D02*
X0053700Y0037491D01*
X0052822Y0036993D02*
X0052741Y0036993D01*
X0048247Y0037990D02*
X0046182Y0037990D01*
X0046182Y0038488D02*
X0048247Y0038488D01*
X0048247Y0038987D02*
X0046182Y0038987D01*
X0046182Y0039485D02*
X0048247Y0039485D01*
X0048247Y0039984D02*
X0046182Y0039984D01*
X0046182Y0040482D02*
X0048265Y0040482D01*
X0048763Y0040981D02*
X0046182Y0040981D01*
X0046182Y0041479D02*
X0049262Y0041479D01*
X0049760Y0041978D02*
X0046182Y0041978D01*
X0046182Y0042476D02*
X0050259Y0042476D01*
X0050757Y0042975D02*
X0046182Y0042975D01*
X0046182Y0043473D02*
X0051256Y0043473D01*
X0051754Y0043972D02*
X0046182Y0043972D01*
X0046182Y0044470D02*
X0052122Y0044470D01*
X0052122Y0044969D02*
X0050039Y0044969D01*
X0050879Y0045467D02*
X0052122Y0045467D01*
X0052122Y0045966D02*
X0051378Y0045966D01*
X0051703Y0046464D02*
X0052122Y0046464D01*
X0052122Y0046963D02*
X0051910Y0046963D01*
X0052100Y0047461D02*
X0052122Y0047461D01*
X0052100Y0047960D02*
X0052122Y0047960D01*
X0052100Y0048458D02*
X0052122Y0048458D01*
X0052122Y0048957D02*
X0052026Y0048957D01*
X0052122Y0049455D02*
X0051820Y0049455D01*
X0051613Y0049954D02*
X0052122Y0049954D01*
X0052122Y0050452D02*
X0051160Y0050452D01*
X0050661Y0050951D02*
X0052122Y0050951D01*
X0052122Y0051449D02*
X0049514Y0051449D01*
X0048111Y0052447D02*
X0051930Y0052447D01*
X0052122Y0051948D02*
X0047612Y0051948D01*
X0047868Y0051449D02*
X0047114Y0051449D01*
X0046720Y0050951D02*
X0046615Y0050951D01*
X0046222Y0050452D02*
X0046182Y0050452D01*
X0045282Y0050890D02*
X0048297Y0053906D01*
X0048297Y0054793D01*
X0049346Y0053942D02*
X0050398Y0053942D01*
X0050103Y0054441D02*
X0049641Y0054441D01*
X0049641Y0054939D02*
X0050103Y0054939D01*
X0050191Y0055438D02*
X0049553Y0055438D01*
X0049055Y0055936D02*
X0050689Y0055936D01*
X0050933Y0053444D02*
X0049108Y0053444D01*
X0048609Y0052945D02*
X0051432Y0052945D01*
X0053479Y0053444D02*
X0053696Y0053444D01*
X0055496Y0053444D02*
X0055714Y0053444D01*
X0055645Y0053942D02*
X0056213Y0053942D01*
X0056402Y0054441D02*
X0055940Y0054441D01*
X0055940Y0054939D02*
X0056402Y0054939D01*
X0056490Y0055438D02*
X0055852Y0055438D01*
X0055354Y0055936D02*
X0056989Y0055936D01*
X0055531Y0060423D02*
X0053662Y0060423D01*
X0054160Y0060921D02*
X0055033Y0060921D01*
X0054828Y0061420D02*
X0054365Y0061420D01*
X0054365Y0061918D02*
X0054828Y0061918D01*
X0055005Y0062417D02*
X0054188Y0062417D01*
X0053826Y0062915D02*
X0053690Y0062915D01*
X0054596Y0064045D02*
X0054596Y0080581D01*
X0057501Y0083485D01*
X0057501Y0087129D01*
X0056520Y0088339D02*
X0052673Y0088339D01*
X0053172Y0087841D02*
X0056021Y0087841D01*
X0055951Y0087342D02*
X0055852Y0087342D01*
X0054839Y0087342D02*
X0054354Y0087342D01*
X0054354Y0086844D02*
X0054839Y0086844D01*
X0054839Y0086345D02*
X0054354Y0086345D01*
X0054354Y0085847D02*
X0054839Y0085847D01*
X0054839Y0085348D02*
X0054354Y0085348D01*
X0054354Y0085154D02*
X0054354Y0084669D01*
X0051870Y0084669D01*
X0051870Y0084643D01*
X0051975Y0084116D01*
X0052180Y0083620D01*
X0052479Y0083173D01*
X0052858Y0082794D01*
X0053305Y0082495D01*
X0053801Y0082290D01*
X0054328Y0082185D01*
X0054354Y0082185D01*
X0054354Y0084669D01*
X0054839Y0084669D01*
X0054839Y0082185D01*
X0054865Y0082185D01*
X0054944Y0082201D01*
X0053696Y0080953D01*
X0053696Y0072160D01*
X0053578Y0072279D01*
X0052465Y0072279D01*
X0052347Y0072160D01*
X0052347Y0080953D01*
X0049944Y0083356D01*
X0049944Y0084664D01*
X0050594Y0085314D01*
X0050594Y0086034D01*
X0051050Y0085579D01*
X0051949Y0085579D01*
X0051870Y0085180D01*
X0051870Y0085154D01*
X0054354Y0085154D01*
X0054354Y0084850D02*
X0050130Y0084850D01*
X0049944Y0084351D02*
X0051928Y0084351D01*
X0052084Y0083853D02*
X0049944Y0083853D01*
X0049946Y0083354D02*
X0052358Y0083354D01*
X0052796Y0082856D02*
X0050445Y0082856D01*
X0050943Y0082357D02*
X0053639Y0082357D01*
X0054354Y0082357D02*
X0054839Y0082357D01*
X0054839Y0082856D02*
X0054354Y0082856D01*
X0054354Y0083354D02*
X0054839Y0083354D01*
X0054839Y0083853D02*
X0054354Y0083853D01*
X0054354Y0084351D02*
X0054839Y0084351D01*
X0054602Y0081859D02*
X0051442Y0081859D01*
X0051940Y0081360D02*
X0054103Y0081360D01*
X0053696Y0080862D02*
X0052347Y0080862D01*
X0052347Y0080363D02*
X0053696Y0080363D01*
X0053696Y0079865D02*
X0052347Y0079865D01*
X0052347Y0079366D02*
X0053696Y0079366D01*
X0053696Y0078868D02*
X0052347Y0078868D01*
X0052347Y0078369D02*
X0053696Y0078369D01*
X0053696Y0077871D02*
X0052347Y0077871D01*
X0052347Y0077372D02*
X0053696Y0077372D01*
X0053696Y0076874D02*
X0052347Y0076874D01*
X0052347Y0076375D02*
X0053696Y0076375D01*
X0053696Y0075877D02*
X0052347Y0075877D01*
X0052347Y0075378D02*
X0053696Y0075378D01*
X0053696Y0074880D02*
X0052347Y0074880D01*
X0052347Y0074381D02*
X0053696Y0074381D01*
X0053696Y0073883D02*
X0052347Y0073883D01*
X0052347Y0073384D02*
X0053696Y0073384D01*
X0053696Y0072885D02*
X0052347Y0072885D01*
X0052347Y0072387D02*
X0053696Y0072387D01*
X0050547Y0069396D02*
X0049197Y0069396D01*
X0049197Y0068897D02*
X0050547Y0068897D01*
X0050547Y0068399D02*
X0049197Y0068399D01*
X0049197Y0067900D02*
X0050547Y0067900D01*
X0050547Y0067402D02*
X0049197Y0067402D01*
X0049197Y0066903D02*
X0050547Y0066903D01*
X0050547Y0066405D02*
X0049197Y0066405D01*
X0049197Y0065906D02*
X0050547Y0065906D01*
X0050547Y0065408D02*
X0049197Y0065408D01*
X0049333Y0064909D02*
X0050411Y0064909D01*
X0050103Y0064411D02*
X0049641Y0064411D01*
X0049641Y0063912D02*
X0050103Y0063912D01*
X0050178Y0063414D02*
X0049566Y0063414D01*
X0049204Y0062915D02*
X0049067Y0062915D01*
X0048297Y0064045D02*
X0048297Y0078918D01*
X0046140Y0081076D01*
X0045148Y0079006D02*
X0043179Y0080974D01*
X0043179Y0082657D01*
X0042238Y0083598D01*
X0041297Y0084850D02*
X0039086Y0084850D01*
X0039935Y0085348D02*
X0042942Y0085348D01*
X0042942Y0085847D02*
X0040784Y0085847D01*
X0041634Y0086345D02*
X0043229Y0086345D01*
X0042830Y0086844D02*
X0043728Y0086844D01*
X0044320Y0087342D02*
X0048238Y0087342D01*
X0047740Y0086844D02*
X0045256Y0086844D01*
X0045754Y0086345D02*
X0047495Y0086345D01*
X0047495Y0085847D02*
X0046042Y0085847D01*
X0046042Y0085348D02*
X0046313Y0085348D01*
X0045810Y0087841D02*
X0050212Y0087841D01*
X0050142Y0087342D02*
X0049851Y0087342D01*
X0050711Y0088339D02*
X0047300Y0088339D01*
X0049568Y0088838D02*
X0059625Y0088838D01*
X0058981Y0087841D02*
X0063383Y0087841D01*
X0061893Y0088339D02*
X0058482Y0088339D01*
X0059051Y0087342D02*
X0059342Y0087342D01*
X0062181Y0083855D02*
X0057746Y0079421D01*
X0057746Y0064045D01*
X0058782Y0064909D02*
X0059859Y0064909D01*
X0059996Y0065408D02*
X0058646Y0065408D01*
X0058646Y0065906D02*
X0059996Y0065906D01*
X0059996Y0066405D02*
X0058646Y0066405D01*
X0058646Y0066903D02*
X0059996Y0066903D01*
X0059996Y0067402D02*
X0058646Y0067402D01*
X0058646Y0067900D02*
X0059996Y0067900D01*
X0059996Y0068399D02*
X0058646Y0068399D01*
X0058646Y0068897D02*
X0059996Y0068897D01*
X0059996Y0069396D02*
X0058646Y0069396D01*
X0059090Y0064411D02*
X0059552Y0064411D01*
X0059552Y0063912D02*
X0059090Y0063912D01*
X0059015Y0063414D02*
X0059627Y0063414D01*
X0059989Y0062915D02*
X0060125Y0062915D01*
X0058653Y0062915D02*
X0058516Y0062915D01*
X0055503Y0062915D02*
X0055367Y0062915D01*
X0051447Y0064045D02*
X0051447Y0080581D01*
X0049045Y0082983D01*
X0049045Y0085956D01*
X0050594Y0085847D02*
X0050782Y0085847D01*
X0050594Y0085348D02*
X0051904Y0085348D01*
X0053242Y0087342D02*
X0053341Y0087342D01*
X0045148Y0079006D02*
X0045148Y0064045D01*
X0045918Y0062915D02*
X0046054Y0062915D01*
X0045556Y0062417D02*
X0044739Y0062417D01*
X0044917Y0061918D02*
X0045379Y0061918D01*
X0045379Y0061420D02*
X0044917Y0061420D01*
X0044711Y0060921D02*
X0045584Y0060921D01*
X0046083Y0060423D02*
X0044213Y0060423D01*
X0044241Y0062915D02*
X0044377Y0062915D01*
X0041998Y0064045D02*
X0041998Y0076830D01*
X0040695Y0078132D01*
X0038848Y0076984D02*
X0036274Y0079559D01*
X0035272Y0078369D02*
X0032059Y0078369D01*
X0031731Y0078868D02*
X0034773Y0078868D01*
X0034724Y0079366D02*
X0032177Y0079366D01*
X0032724Y0079865D02*
X0034724Y0079865D01*
X0034886Y0080363D02*
X0033271Y0080363D01*
X0033819Y0080862D02*
X0035384Y0080862D01*
X0034913Y0081859D02*
X0036430Y0081859D01*
X0036430Y0082357D02*
X0035460Y0082357D01*
X0036008Y0082856D02*
X0036746Y0082856D01*
X0036555Y0083354D02*
X0037245Y0083354D01*
X0037388Y0083853D02*
X0040688Y0083853D01*
X0040688Y0083354D02*
X0038716Y0083354D01*
X0039215Y0082856D02*
X0040789Y0082856D01*
X0039941Y0082357D02*
X0039530Y0082357D01*
X0040799Y0084351D02*
X0038237Y0084351D01*
X0036430Y0081360D02*
X0034366Y0081360D01*
X0034519Y0077871D02*
X0032558Y0077871D01*
X0033056Y0077372D02*
X0034021Y0077372D01*
X0034014Y0076874D02*
X0033298Y0076874D01*
X0033298Y0076375D02*
X0034014Y0076375D01*
X0034219Y0075877D02*
X0033298Y0075877D01*
X0034381Y0075378D02*
X0034718Y0075378D01*
X0034880Y0074880D02*
X0035006Y0074880D01*
X0036199Y0073880D02*
X0035874Y0073516D01*
X0035874Y0064181D01*
X0035699Y0064045D01*
X0036469Y0062915D02*
X0036606Y0062915D01*
X0036107Y0062417D02*
X0035291Y0062417D01*
X0035468Y0061918D02*
X0035930Y0061918D01*
X0035930Y0061420D02*
X0035468Y0061420D01*
X0035262Y0060921D02*
X0036135Y0060921D01*
X0036634Y0060423D02*
X0034764Y0060423D01*
X0034792Y0062915D02*
X0034929Y0062915D01*
X0032549Y0064045D02*
X0030581Y0066014D01*
X0031526Y0069894D02*
X0031690Y0069894D01*
X0033409Y0069894D02*
X0033658Y0069894D01*
X0038848Y0064045D02*
X0038848Y0076984D01*
X0039748Y0069396D02*
X0041098Y0069396D01*
X0041098Y0068897D02*
X0039748Y0068897D01*
X0039748Y0068399D02*
X0041098Y0068399D01*
X0041098Y0067900D02*
X0039748Y0067900D01*
X0039748Y0067402D02*
X0041098Y0067402D01*
X0041098Y0066903D02*
X0039748Y0066903D01*
X0039748Y0066405D02*
X0041098Y0066405D01*
X0041098Y0065906D02*
X0039748Y0065906D01*
X0039748Y0065408D02*
X0041098Y0065408D01*
X0040962Y0064909D02*
X0039885Y0064909D01*
X0040192Y0064411D02*
X0040654Y0064411D01*
X0040654Y0063912D02*
X0040192Y0063912D01*
X0040117Y0063414D02*
X0040729Y0063414D01*
X0041091Y0062915D02*
X0041228Y0062915D01*
X0039755Y0062915D02*
X0039619Y0062915D01*
X0039606Y0055936D02*
X0041241Y0055936D01*
X0040742Y0055438D02*
X0040104Y0055438D01*
X0040192Y0054939D02*
X0040654Y0054939D01*
X0040654Y0054441D02*
X0040192Y0054441D01*
X0039897Y0053942D02*
X0040949Y0053942D01*
X0041098Y0053444D02*
X0039748Y0053444D01*
X0039748Y0052945D02*
X0041098Y0052945D01*
X0041098Y0052447D02*
X0039748Y0052447D01*
X0039748Y0051948D02*
X0041098Y0051948D01*
X0041098Y0051449D02*
X0039748Y0051449D01*
X0039748Y0050951D02*
X0041098Y0050951D01*
X0041098Y0050452D02*
X0039748Y0050452D01*
X0039748Y0049954D02*
X0041098Y0049954D01*
X0041098Y0049455D02*
X0039748Y0049455D01*
X0039748Y0048957D02*
X0041098Y0048957D01*
X0041098Y0048458D02*
X0039748Y0048458D01*
X0039748Y0047960D02*
X0041098Y0047960D01*
X0041098Y0047461D02*
X0039748Y0047461D01*
X0039748Y0046963D02*
X0041098Y0046963D01*
X0041098Y0046464D02*
X0039748Y0046464D01*
X0039748Y0045966D02*
X0041098Y0045966D01*
X0041098Y0045467D02*
X0039748Y0045467D01*
X0039748Y0044969D02*
X0041098Y0044969D01*
X0041098Y0044470D02*
X0039748Y0044470D01*
X0039748Y0043972D02*
X0041098Y0043972D01*
X0041098Y0043473D02*
X0039748Y0043473D01*
X0039748Y0042975D02*
X0041098Y0042975D01*
X0041098Y0042476D02*
X0039748Y0042476D01*
X0039748Y0041978D02*
X0040705Y0041978D01*
X0040206Y0041479D02*
X0039602Y0041479D01*
X0039708Y0040981D02*
X0039104Y0040981D01*
X0039209Y0040482D02*
X0038605Y0040482D01*
X0038711Y0039984D02*
X0038107Y0039984D01*
X0038040Y0039485D02*
X0038342Y0039485D01*
X0038342Y0038987D02*
X0037541Y0038987D01*
X0037010Y0040159D02*
X0036522Y0040159D01*
X0037010Y0040159D02*
X0038848Y0041998D01*
X0038848Y0054793D01*
X0037799Y0053942D02*
X0036748Y0053942D01*
X0036599Y0053444D02*
X0037948Y0053444D01*
X0037948Y0052945D02*
X0036599Y0052945D01*
X0036599Y0052447D02*
X0037948Y0052447D01*
X0037948Y0051948D02*
X0036599Y0051948D01*
X0036599Y0051449D02*
X0037948Y0051449D01*
X0037948Y0050951D02*
X0036599Y0050951D01*
X0036599Y0050452D02*
X0037948Y0050452D01*
X0037948Y0049954D02*
X0036599Y0049954D01*
X0036599Y0049455D02*
X0037948Y0049455D01*
X0037948Y0048957D02*
X0036599Y0048957D01*
X0036599Y0048458D02*
X0037948Y0048458D01*
X0037948Y0047960D02*
X0036599Y0047960D01*
X0036599Y0047461D02*
X0037948Y0047461D01*
X0037948Y0046963D02*
X0036599Y0046963D01*
X0036599Y0046464D02*
X0037948Y0046464D01*
X0037948Y0045966D02*
X0036599Y0045966D01*
X0036599Y0045467D02*
X0037948Y0045467D01*
X0037948Y0044969D02*
X0036599Y0044969D01*
X0035699Y0045148D02*
X0034518Y0043967D01*
X0034518Y0040863D01*
X0033568Y0039913D01*
X0034833Y0038987D02*
X0035502Y0038987D01*
X0036310Y0038488D02*
X0034335Y0038488D01*
X0034366Y0036494D02*
X0036057Y0036494D01*
X0036555Y0035996D02*
X0034913Y0035996D01*
X0035460Y0035497D02*
X0037655Y0035497D01*
X0037655Y0034999D02*
X0036008Y0034999D01*
X0036555Y0034500D02*
X0037655Y0034500D01*
X0037388Y0034002D02*
X0038130Y0034002D01*
X0038237Y0033503D02*
X0041996Y0033503D01*
X0041996Y0033005D02*
X0039086Y0033005D01*
X0039935Y0032506D02*
X0042491Y0032506D01*
X0041634Y0031509D02*
X0044342Y0031509D01*
X0044342Y0032008D02*
X0040784Y0032008D01*
X0040281Y0034002D02*
X0041996Y0034002D01*
X0042211Y0034500D02*
X0040755Y0034500D01*
X0040755Y0034999D02*
X0040925Y0034999D01*
X0041995Y0036121D02*
X0043557Y0037683D01*
X0043557Y0051628D01*
X0045148Y0053219D01*
X0045148Y0054793D01*
X0046197Y0053942D02*
X0047061Y0053942D01*
X0046954Y0054441D02*
X0046491Y0054441D01*
X0046491Y0054939D02*
X0046954Y0054939D01*
X0047041Y0055438D02*
X0046404Y0055438D01*
X0045905Y0055936D02*
X0047540Y0055936D01*
X0046562Y0053444D02*
X0046048Y0053444D01*
X0046048Y0052945D02*
X0046064Y0052945D01*
X0044100Y0053444D02*
X0042898Y0053444D01*
X0042898Y0052945D02*
X0043601Y0052945D01*
X0043103Y0052447D02*
X0042898Y0052447D01*
X0043047Y0053942D02*
X0044099Y0053942D01*
X0043804Y0054441D02*
X0043342Y0054441D01*
X0043342Y0054939D02*
X0043804Y0054939D01*
X0043892Y0055438D02*
X0043254Y0055438D01*
X0042755Y0055936D02*
X0044390Y0055936D01*
X0041998Y0054793D02*
X0041998Y0041998D01*
X0039242Y0039242D01*
X0039242Y0035118D01*
X0039205Y0035118D01*
X0042830Y0031011D02*
X0044635Y0031011D01*
X0044320Y0030512D02*
X0045134Y0030512D01*
X0045810Y0030014D02*
X0051622Y0030014D01*
X0051622Y0030512D02*
X0051526Y0030512D01*
X0052077Y0029515D02*
X0047300Y0029515D01*
X0045892Y0031946D02*
X0045282Y0032556D01*
X0045282Y0050890D01*
X0046182Y0045467D02*
X0046503Y0045467D01*
X0046182Y0044969D02*
X0047343Y0044969D01*
X0046243Y0037491D02*
X0046182Y0037491D01*
X0054266Y0029515D02*
X0054927Y0029515D01*
X0037948Y0044470D02*
X0037760Y0044470D01*
X0035699Y0045148D02*
X0035699Y0054793D01*
X0034650Y0053942D02*
X0034237Y0053942D01*
X0034237Y0053444D02*
X0034799Y0053444D01*
X0034799Y0052945D02*
X0034237Y0052945D01*
X0034237Y0052447D02*
X0034799Y0052447D01*
X0034799Y0051948D02*
X0034237Y0051948D01*
X0033825Y0051449D02*
X0034799Y0051449D01*
X0034799Y0050951D02*
X0033326Y0050951D01*
X0032828Y0050452D02*
X0034799Y0050452D01*
X0034799Y0049954D02*
X0032329Y0049954D01*
X0032268Y0049455D02*
X0032629Y0049455D01*
X0034355Y0049455D02*
X0034799Y0049455D01*
X0031368Y0046389D02*
X0032280Y0045477D01*
X0029559Y0051711D02*
X0029400Y0051711D01*
X0029400Y0057352D01*
X0027825Y0058927D01*
X0034237Y0055936D02*
X0034941Y0055936D01*
X0034443Y0055438D02*
X0034237Y0055438D01*
X0034237Y0054939D02*
X0034355Y0054939D01*
X0034355Y0054441D02*
X0034237Y0054441D01*
X0036456Y0055936D02*
X0038091Y0055936D01*
X0037592Y0055438D02*
X0036955Y0055438D01*
X0037043Y0054939D02*
X0037505Y0054939D01*
X0037505Y0054441D02*
X0037043Y0054441D01*
X0050540Y0062915D02*
X0050677Y0062915D01*
X0073494Y0064045D02*
X0075463Y0066014D01*
X0079793Y0066014D01*
X0075300Y0064411D02*
X0075132Y0064411D01*
X0074401Y0062915D02*
X0074264Y0062915D01*
D14*
X0033258Y0073494D02*
X0033144Y0073494D01*
X0030581Y0070931D01*
X0030581Y0069951D01*
X0029400Y0068770D01*
X0027825Y0068770D01*
X0025300Y0066245D01*
X0024381Y0060934D01*
X0024381Y0059124D01*
X0025169Y0058337D01*
X0025300Y0058337D01*
M02*
