G75*
%MOIN*%
%OFA0B0*%
%FSLAX25Y25*%
%IPPOS*%
%LPD*%
%AMOC8*
5,1,8,0,0,1.08239X$1,22.5*
%
%ADD10C,0.00594*%
%ADD11C,0.00200*%
%ADD12C,0.00300*%
%ADD13C,0.00827*%
%ADD14C,0.01102*%
%ADD15C,0.01654*%
%ADD16C,0.00600*%
D10*
X0220907Y0095641D03*
X0220907Y0098160D03*
X0222324Y0101782D03*
X0225553Y0106271D03*
X0227993Y0105247D03*
X0230907Y0103436D03*
X0229923Y0102570D03*
X0229923Y0100680D03*
X0231301Y0100877D03*
X0232482Y0101861D03*
X0232639Y0103042D03*
X0235238Y0103633D03*
X0235238Y0101664D03*
X0233269Y0100444D03*
X0231301Y0099105D03*
X0230080Y0099263D03*
X0230080Y0097885D03*
X0231301Y0097137D03*
X0232088Y0096192D03*
X0233348Y0096822D03*
X0232560Y0098160D03*
X0235238Y0098121D03*
X0240041Y0100444D03*
X0240828Y0102963D03*
X0245946Y0105562D03*
X0250277Y0107058D03*
X0250198Y0108633D03*
X0250434Y0109893D03*
X0252954Y0108475D03*
X0252954Y0106900D03*
X0252954Y0105326D03*
X0254529Y0106900D03*
X0254529Y0108475D03*
X0256104Y0108475D03*
X0257127Y0109499D03*
X0256104Y0110050D03*
X0257679Y0108475D03*
X0257679Y0106900D03*
X0260050Y0107686D03*
X0260828Y0108475D03*
X0261379Y0109499D03*
X0262403Y0110050D03*
X0263978Y0110050D03*
X0263978Y0108475D03*
X0263978Y0106900D03*
X0265553Y0106900D03*
X0265553Y0105326D03*
X0267521Y0105404D03*
X0268445Y0106742D03*
X0269332Y0107688D03*
X0270986Y0107688D03*
X0270694Y0111254D03*
X0269726Y0111782D03*
X0268151Y0112176D03*
X0267560Y0113711D03*
X0265553Y0113200D03*
X0263978Y0113200D03*
X0263190Y0113987D03*
X0260828Y0114774D03*
X0260828Y0116349D03*
X0259253Y0116349D03*
X0257679Y0116349D03*
X0259253Y0117924D03*
X0260828Y0117924D03*
X0262403Y0117924D03*
X0262403Y0116349D03*
X0263978Y0116349D03*
X0265553Y0116349D03*
X0265553Y0117924D03*
X0271419Y0117491D03*
X0274844Y0115365D03*
X0276261Y0112255D03*
X0272954Y0111704D03*
X0267521Y0110050D03*
X0262403Y0111625D03*
X0260828Y0111625D03*
X0259253Y0111625D03*
X0257679Y0111625D03*
X0257679Y0113200D03*
X0259253Y0113200D03*
X0256104Y0113200D03*
X0254529Y0113200D03*
X0252954Y0113200D03*
X0254529Y0111625D03*
X0254529Y0114794D03*
X0254529Y0116349D03*
X0253742Y0117141D03*
X0254529Y0117924D03*
X0256104Y0117924D03*
X0252954Y0117924D03*
X0252954Y0116349D03*
X0249883Y0117985D03*
X0249325Y0120723D03*
X0251616Y0120680D03*
X0253505Y0120759D03*
X0255868Y0120759D03*
X0257757Y0120759D03*
X0259175Y0120680D03*
X0248029Y0115047D03*
X0246812Y0116034D03*
X0243491Y0119165D03*
X0242560Y0117767D03*
X0246262Y0119935D03*
X0234214Y0114617D03*
X0230356Y0111861D03*
X0237915Y0112176D03*
X0255080Y0102255D03*
X0255229Y0101141D03*
X0256104Y0099263D03*
X0256419Y0098200D03*
X0257403Y0097688D03*
X0257442Y0098869D03*
X0258190Y0096428D03*
X0260238Y0094499D03*
X0263820Y0095798D03*
X0264529Y0095129D03*
X0263151Y0096546D03*
X0266694Y0096192D03*
X0268348Y0094538D03*
X0265277Y0099420D03*
X0265277Y0100326D03*
X0264332Y0100404D03*
X0265429Y0103247D03*
X0263929Y0103447D03*
X0262429Y0103347D03*
X0260779Y0103047D03*
X0259979Y0103847D03*
X0258466Y0104538D03*
X0256891Y0104145D03*
X0256104Y0103121D03*
X0260829Y0106453D03*
X0259253Y0110050D03*
X0272245Y0104066D03*
X0273664Y0100241D03*
X0274490Y0098160D03*
X0277442Y0098908D03*
X0277442Y0100011D03*
X0278623Y0100011D03*
X0278623Y0098908D03*
X0279962Y0098908D03*
X0279923Y0100089D03*
X0279844Y0101231D03*
X0278584Y0101271D03*
X0277482Y0101271D03*
X0281261Y0100129D03*
X0282206Y0100523D03*
X0283269Y0100208D03*
X0282600Y0099263D03*
X0282639Y0098042D03*
X0283827Y0098554D03*
X0284608Y0096349D03*
X0283820Y0095326D03*
X0283190Y0096231D03*
X0282127Y0095641D03*
X0280749Y0096585D03*
X0281340Y0097688D03*
X0281261Y0098908D03*
X0279923Y0097570D03*
X0278702Y0097491D03*
X0277560Y0095208D03*
X0284608Y0094538D03*
X0285474Y0095365D03*
X0285553Y0102963D03*
X0280525Y0106440D03*
X0281616Y0108239D03*
X0279962Y0110129D03*
X0277364Y0105562D03*
X0254214Y0090050D03*
X0252403Y0088751D03*
X0251419Y0089499D03*
X0250238Y0089302D03*
X0250238Y0088200D03*
X0250356Y0086940D03*
X0252324Y0086271D03*
X0253348Y0087924D03*
X0249883Y0090562D03*
X0248151Y0088633D03*
X0248151Y0087058D03*
X0259253Y0089341D03*
X0267127Y0083672D03*
X0261379Y0080286D03*
X0264529Y0079263D03*
X0266497Y0079263D03*
X0268466Y0079341D03*
X0270513Y0079341D03*
X0272403Y0079341D03*
X0272049Y0077412D03*
X0270277Y0077215D03*
X0270277Y0075641D03*
X0268781Y0074696D03*
X0266812Y0074696D03*
X0264214Y0074853D03*
X0264214Y0076822D03*
X0266616Y0077215D03*
X0268151Y0076822D03*
X0273308Y0074499D03*
X0274805Y0074656D03*
X0275868Y0074105D03*
X0274293Y0072924D03*
X0272718Y0072924D03*
X0271340Y0072727D03*
X0269096Y0071467D03*
X0268978Y0069971D03*
X0267993Y0069184D03*
X0266812Y0069578D03*
X0266812Y0071231D03*
X0264214Y0070916D03*
X0264214Y0068948D03*
X0265828Y0068003D03*
X0266419Y0066822D03*
X0267521Y0066152D03*
X0268757Y0064841D03*
X0268332Y0063660D03*
X0266529Y0064447D03*
X0264017Y0065404D03*
X0264214Y0066979D03*
X0269175Y0068003D03*
X0270277Y0069105D03*
X0271340Y0068790D03*
X0271930Y0067412D03*
X0271734Y0066231D03*
X0270553Y0067215D03*
X0270159Y0066231D03*
X0270164Y0064841D03*
X0274686Y0063633D03*
X0276301Y0063633D03*
X0273269Y0059814D03*
X0267598Y0060286D03*
X0264511Y0062374D03*
X0261693Y0058908D03*
X0259647Y0058633D03*
X0259647Y0060208D03*
X0258308Y0063121D03*
X0256261Y0068554D03*
X0253269Y0069578D03*
X0250671Y0070444D03*
X0251773Y0072885D03*
X0246734Y0070523D03*
X0247229Y0068347D03*
X0238151Y0069302D03*
X0236182Y0069105D03*
X0236104Y0067137D03*
X0236182Y0065326D03*
X0238151Y0065365D03*
X0238151Y0067137D03*
X0236104Y0071310D03*
X0238151Y0071664D03*
X0238348Y0073830D03*
X0236182Y0073830D03*
X0233466Y0074420D03*
X0232167Y0074066D03*
X0231458Y0072255D03*
X0230513Y0070877D03*
X0229371Y0070089D03*
X0230710Y0069302D03*
X0231930Y0067924D03*
X0231104Y0066349D03*
X0232482Y0064971D03*
X0229371Y0067727D03*
X0232482Y0070365D03*
X0233269Y0072058D03*
X0229490Y0072255D03*
X0229411Y0074538D03*
X0233742Y0079578D03*
X0234765Y0080523D03*
X0235710Y0079656D03*
X0235238Y0095956D03*
X0229962Y0096349D03*
X0248387Y0097924D03*
X0248348Y0099735D03*
X0249017Y0100916D03*
X0280434Y0088482D03*
X0274371Y0079341D03*
X0275986Y0077412D03*
X0275474Y0076074D03*
X0275868Y0071743D03*
X0274490Y0071349D03*
X0275277Y0070168D03*
X0274293Y0068987D03*
X0270474Y0070286D03*
X0281307Y0076744D03*
X0287908Y0075460D03*
X0274371Y0055483D03*
X0257929Y0052431D03*
X0256458Y0050365D03*
X0253929Y0050047D03*
X0251336Y0048881D03*
X0250329Y0050444D03*
X0247665Y0049794D03*
X0244824Y0050095D03*
X0245929Y0052447D03*
X0237836Y0055089D03*
X0240894Y0056622D03*
X0234329Y0057247D03*
D11*
X0234450Y0106113D02*
X0235238Y0110050D01*
D12*
X0218228Y0079520D02*
X0218842Y0076411D01*
X0221149Y0069840D01*
X0223608Y0065617D01*
X0223608Y0066193D01*
X0224055Y0066640D01*
X0224688Y0066640D01*
X0225135Y0066193D01*
X0225135Y0065561D01*
X0224688Y0065113D01*
X0224055Y0065113D01*
X0223686Y0065483D01*
X0224654Y0063821D01*
X0229231Y0058571D01*
X0234715Y0054279D01*
X0240911Y0051098D01*
X0244177Y0050143D01*
X0244177Y0050363D01*
X0244556Y0050741D01*
X0245092Y0050741D01*
X0245471Y0050363D01*
X0245471Y0049827D01*
X0245422Y0049778D01*
X0247323Y0049222D01*
X0247019Y0049526D01*
X0247019Y0050062D01*
X0247397Y0050441D01*
X0247933Y0050441D01*
X0248312Y0050062D01*
X0248312Y0049526D01*
X0247933Y0049148D01*
X0247578Y0049148D01*
X0247596Y0049142D01*
X0250689Y0048848D01*
X0250689Y0049149D01*
X0251068Y0049528D01*
X0251604Y0049528D01*
X0251983Y0049149D01*
X0251983Y0048725D01*
X0254529Y0048483D01*
X0260798Y0049079D01*
X0260616Y0049261D01*
X0260616Y0049894D01*
X0261063Y0050341D01*
X0261696Y0050341D01*
X0262143Y0049894D01*
X0262143Y0049342D01*
X0268147Y0051098D01*
X0274343Y0054279D01*
X0279827Y0058571D01*
X0284404Y0063821D01*
X0287909Y0069840D01*
X0290215Y0076411D01*
X0290830Y0079520D01*
X0287735Y0082615D01*
X0287735Y0087879D01*
X0288117Y0088261D01*
X0290830Y0090974D01*
X0290215Y0094083D01*
X0287909Y0100654D01*
X0284404Y0106673D01*
X0279827Y0111923D01*
X0275491Y0115316D01*
X0275491Y0115097D01*
X0275112Y0114718D01*
X0274576Y0114718D01*
X0274197Y0115097D01*
X0274197Y0115633D01*
X0274576Y0116012D01*
X0274602Y0116012D01*
X0274343Y0116215D01*
X0268147Y0119396D01*
X0261462Y0121351D01*
X0254529Y0122011D01*
X0247596Y0121351D01*
X0240911Y0119396D01*
X0234715Y0116215D01*
X0229231Y0111923D01*
X0224654Y0106673D01*
X0221149Y0100654D01*
X0218842Y0094083D01*
X0218228Y0090974D01*
X0220941Y0088261D01*
X0220941Y0088261D01*
X0221323Y0087879D01*
X0221323Y0082615D01*
X0218228Y0079520D01*
X0218283Y0079575D02*
X0233095Y0079575D01*
X0233095Y0079310D02*
X0233474Y0078931D01*
X0234009Y0078931D01*
X0234388Y0079310D01*
X0234388Y0079846D01*
X0234009Y0080224D01*
X0233474Y0080224D01*
X0233095Y0079846D01*
X0233095Y0079310D01*
X0233128Y0079277D02*
X0218276Y0079277D01*
X0218335Y0078978D02*
X0233426Y0078978D01*
X0234057Y0078978D02*
X0263899Y0078978D01*
X0263882Y0078995D02*
X0264261Y0078616D01*
X0264797Y0078616D01*
X0265176Y0078995D01*
X0265176Y0079531D01*
X0264797Y0079909D01*
X0264261Y0079909D01*
X0263882Y0079531D01*
X0263882Y0078995D01*
X0263882Y0079277D02*
X0236245Y0079277D01*
X0236357Y0079388D02*
X0235978Y0079010D01*
X0235442Y0079010D01*
X0235063Y0079388D01*
X0235063Y0079906D01*
X0235033Y0079876D01*
X0234497Y0079876D01*
X0234118Y0080255D01*
X0234118Y0080790D01*
X0234497Y0081169D01*
X0235033Y0081169D01*
X0235412Y0080790D01*
X0235412Y0080273D01*
X0235442Y0080303D01*
X0235978Y0080303D01*
X0236357Y0079924D01*
X0236357Y0079388D01*
X0236357Y0079575D02*
X0263927Y0079575D01*
X0264225Y0079874D02*
X0261882Y0079874D01*
X0262026Y0080018D02*
X0261647Y0079639D01*
X0261111Y0079639D01*
X0260732Y0080018D01*
X0260732Y0080554D01*
X0261111Y0080933D01*
X0261647Y0080933D01*
X0262026Y0080554D01*
X0262026Y0080018D01*
X0262026Y0080172D02*
X0290178Y0080172D01*
X0290476Y0079874D02*
X0274754Y0079874D01*
X0274639Y0079988D02*
X0274104Y0079988D01*
X0273725Y0079609D01*
X0273725Y0079073D01*
X0274104Y0078695D01*
X0274639Y0078695D01*
X0275018Y0079073D01*
X0275018Y0079609D01*
X0274639Y0079988D01*
X0275018Y0079575D02*
X0290775Y0079575D01*
X0290782Y0079277D02*
X0275018Y0079277D01*
X0274923Y0078978D02*
X0290723Y0078978D01*
X0290664Y0078680D02*
X0266829Y0078680D01*
X0266765Y0078616D02*
X0267144Y0078995D01*
X0267144Y0079531D01*
X0266765Y0079909D01*
X0266229Y0079909D01*
X0265851Y0079531D01*
X0265851Y0078995D01*
X0266229Y0078616D01*
X0266765Y0078616D01*
X0267128Y0078978D02*
X0267914Y0078978D01*
X0267819Y0079073D02*
X0268198Y0078695D01*
X0268734Y0078695D01*
X0269113Y0079073D01*
X0269113Y0079609D01*
X0268734Y0079988D01*
X0268198Y0079988D01*
X0267819Y0079609D01*
X0267819Y0079073D01*
X0267819Y0079277D02*
X0267144Y0079277D01*
X0267100Y0079575D02*
X0267819Y0079575D01*
X0268083Y0079874D02*
X0266801Y0079874D01*
X0266194Y0079874D02*
X0264833Y0079874D01*
X0265131Y0079575D02*
X0265895Y0079575D01*
X0265851Y0079277D02*
X0265176Y0079277D01*
X0265159Y0078978D02*
X0265867Y0078978D01*
X0266166Y0078680D02*
X0264861Y0078680D01*
X0264197Y0078680D02*
X0218394Y0078680D01*
X0218453Y0078381D02*
X0227056Y0078381D01*
X0227205Y0078530D02*
X0226758Y0078083D01*
X0226758Y0077450D01*
X0227205Y0077003D01*
X0227837Y0077003D01*
X0228284Y0077450D01*
X0228284Y0078083D01*
X0227837Y0078530D01*
X0227205Y0078530D01*
X0226758Y0078083D02*
X0218512Y0078083D01*
X0218571Y0077784D02*
X0226758Y0077784D01*
X0226758Y0077486D02*
X0218630Y0077486D01*
X0218689Y0077187D02*
X0227021Y0077187D01*
X0228021Y0077187D02*
X0263665Y0077187D01*
X0263567Y0077090D02*
X0263567Y0076554D01*
X0263946Y0076175D01*
X0264482Y0076175D01*
X0264861Y0076554D01*
X0264861Y0077090D01*
X0264482Y0077469D01*
X0263946Y0077469D01*
X0263567Y0077090D01*
X0263567Y0076889D02*
X0218748Y0076889D01*
X0218807Y0076590D02*
X0263567Y0076590D01*
X0263829Y0076292D02*
X0218884Y0076292D01*
X0218989Y0075993D02*
X0287527Y0075993D01*
X0287641Y0076106D02*
X0287262Y0075727D01*
X0287262Y0075192D01*
X0287641Y0074813D01*
X0288176Y0074813D01*
X0288555Y0075192D01*
X0288555Y0075727D01*
X0288176Y0076106D01*
X0287641Y0076106D01*
X0287262Y0075695D02*
X0219094Y0075695D01*
X0219199Y0075396D02*
X0263842Y0075396D01*
X0263946Y0075500D02*
X0263567Y0075121D01*
X0263567Y0074585D01*
X0263946Y0074206D01*
X0264482Y0074206D01*
X0264861Y0074585D01*
X0264861Y0075121D01*
X0264482Y0075500D01*
X0263946Y0075500D01*
X0263567Y0075098D02*
X0219303Y0075098D01*
X0219408Y0074799D02*
X0263567Y0074799D01*
X0263652Y0074501D02*
X0219513Y0074501D01*
X0219618Y0074202D02*
X0289440Y0074202D01*
X0289545Y0074501D02*
X0264776Y0074501D01*
X0264861Y0074799D02*
X0289650Y0074799D01*
X0289754Y0075098D02*
X0288461Y0075098D01*
X0288555Y0075396D02*
X0289859Y0075396D01*
X0289964Y0075695D02*
X0288555Y0075695D01*
X0288290Y0075993D02*
X0290069Y0075993D01*
X0290173Y0076292D02*
X0281769Y0076292D01*
X0281954Y0076476D02*
X0281575Y0076097D01*
X0281039Y0076097D01*
X0280660Y0076476D01*
X0280660Y0077012D01*
X0281039Y0077391D01*
X0281575Y0077391D01*
X0281954Y0077012D01*
X0281954Y0076476D01*
X0281954Y0076590D02*
X0290251Y0076590D01*
X0290310Y0076889D02*
X0281954Y0076889D01*
X0281779Y0077187D02*
X0290369Y0077187D01*
X0290428Y0077486D02*
X0228284Y0077486D01*
X0228284Y0077784D02*
X0290487Y0077784D01*
X0290546Y0078083D02*
X0228284Y0078083D01*
X0227986Y0078381D02*
X0290605Y0078381D01*
X0289879Y0080471D02*
X0262026Y0080471D01*
X0261811Y0080769D02*
X0289581Y0080769D01*
X0289282Y0081068D02*
X0235135Y0081068D01*
X0235412Y0080769D02*
X0260948Y0080769D01*
X0260732Y0080471D02*
X0235412Y0080471D01*
X0235063Y0079874D02*
X0234360Y0079874D01*
X0234388Y0079575D02*
X0235063Y0079575D01*
X0235175Y0079277D02*
X0234355Y0079277D01*
X0234201Y0080172D02*
X0234062Y0080172D01*
X0234118Y0080471D02*
X0226552Y0080471D01*
X0226552Y0080364D02*
X0226105Y0079917D01*
X0225473Y0079917D01*
X0225025Y0080364D01*
X0225025Y0080996D01*
X0225473Y0081443D01*
X0226105Y0081443D01*
X0226552Y0080996D01*
X0226552Y0080364D01*
X0226361Y0080172D02*
X0233421Y0080172D01*
X0233123Y0079874D02*
X0218582Y0079874D01*
X0218880Y0080172D02*
X0225217Y0080172D01*
X0225025Y0080471D02*
X0219179Y0080471D01*
X0219477Y0080769D02*
X0225025Y0080769D01*
X0225097Y0081068D02*
X0219776Y0081068D01*
X0220074Y0081366D02*
X0225395Y0081366D01*
X0226182Y0081366D02*
X0288984Y0081366D01*
X0288685Y0081665D02*
X0220373Y0081665D01*
X0220671Y0081963D02*
X0288387Y0081963D01*
X0288088Y0082262D02*
X0220970Y0082262D01*
X0221268Y0082560D02*
X0287790Y0082560D01*
X0287735Y0082859D02*
X0279163Y0082859D01*
X0278997Y0082692D02*
X0279525Y0083220D01*
X0279525Y0083967D01*
X0278997Y0084495D01*
X0278250Y0084495D01*
X0277722Y0083967D01*
X0277722Y0083220D01*
X0278250Y0082692D01*
X0278997Y0082692D01*
X0279462Y0083157D02*
X0287735Y0083157D01*
X0287735Y0083456D02*
X0279525Y0083456D01*
X0279525Y0083754D02*
X0287735Y0083754D01*
X0287735Y0084053D02*
X0279438Y0084053D01*
X0279140Y0084351D02*
X0287735Y0084351D01*
X0287735Y0084650D02*
X0221323Y0084650D01*
X0221323Y0084948D02*
X0287735Y0084948D01*
X0287735Y0085247D02*
X0284546Y0085247D01*
X0284741Y0085443D02*
X0284294Y0084995D01*
X0283662Y0084995D01*
X0283214Y0085443D01*
X0283214Y0086075D01*
X0283662Y0086522D01*
X0284294Y0086522D01*
X0284741Y0086075D01*
X0284741Y0085443D01*
X0284741Y0085545D02*
X0287735Y0085545D01*
X0287735Y0085844D02*
X0284741Y0085844D01*
X0284674Y0086142D02*
X0287735Y0086142D01*
X0287735Y0086441D02*
X0284375Y0086441D01*
X0283580Y0086441D02*
X0248449Y0086441D01*
X0248419Y0086411D02*
X0248798Y0086790D01*
X0248798Y0087326D01*
X0248419Y0087705D01*
X0247883Y0087705D01*
X0247504Y0087326D01*
X0247504Y0086790D01*
X0247883Y0086411D01*
X0248419Y0086411D01*
X0248747Y0086739D02*
X0287735Y0086739D01*
X0287735Y0087038D02*
X0248798Y0087038D01*
X0248787Y0087336D02*
X0287735Y0087336D01*
X0287735Y0087635D02*
X0248489Y0087635D01*
X0248419Y0087986D02*
X0248798Y0088365D01*
X0248798Y0088901D01*
X0248419Y0089280D01*
X0247883Y0089280D01*
X0247504Y0088901D01*
X0247504Y0088365D01*
X0247883Y0087986D01*
X0248419Y0087986D01*
X0248665Y0088232D02*
X0279788Y0088232D01*
X0279788Y0088214D02*
X0280166Y0087835D01*
X0280702Y0087835D01*
X0281081Y0088214D01*
X0281081Y0088750D01*
X0280702Y0089129D01*
X0280166Y0089129D01*
X0279788Y0088750D01*
X0279788Y0088214D01*
X0279788Y0088531D02*
X0248798Y0088531D01*
X0248798Y0088829D02*
X0258851Y0088829D01*
X0258985Y0088695D02*
X0259521Y0088695D01*
X0259900Y0089073D01*
X0259900Y0089609D01*
X0259521Y0089988D01*
X0258985Y0089988D01*
X0258606Y0089609D01*
X0258606Y0089073D01*
X0258985Y0088695D01*
X0258606Y0089128D02*
X0251962Y0089128D01*
X0252066Y0089231D02*
X0251687Y0088852D01*
X0251151Y0088852D01*
X0250772Y0089231D01*
X0250772Y0089767D01*
X0251151Y0090146D01*
X0251687Y0090146D01*
X0252066Y0089767D01*
X0252066Y0089231D01*
X0252066Y0089426D02*
X0253923Y0089426D01*
X0253946Y0089403D02*
X0254482Y0089403D01*
X0254861Y0089782D01*
X0254861Y0090318D01*
X0254482Y0090697D01*
X0253946Y0090697D01*
X0253567Y0090318D01*
X0253567Y0089782D01*
X0253946Y0089403D01*
X0253625Y0089725D02*
X0252066Y0089725D01*
X0251809Y0090023D02*
X0253567Y0090023D01*
X0253571Y0090322D02*
X0218880Y0090322D01*
X0218582Y0090620D02*
X0253869Y0090620D01*
X0254559Y0090620D02*
X0277604Y0090620D01*
X0277756Y0090468D02*
X0278388Y0090468D01*
X0278836Y0090915D01*
X0278836Y0091547D01*
X0278388Y0091995D01*
X0277756Y0091995D01*
X0277309Y0091547D01*
X0277309Y0090915D01*
X0277756Y0090468D01*
X0277309Y0090919D02*
X0221359Y0090919D01*
X0221144Y0090704D02*
X0221592Y0091151D01*
X0221592Y0091784D01*
X0221144Y0092231D01*
X0220512Y0092231D01*
X0220065Y0091784D01*
X0220065Y0091151D01*
X0220512Y0090704D01*
X0221144Y0090704D01*
X0221592Y0091217D02*
X0224093Y0091217D01*
X0224213Y0091098D02*
X0224845Y0091098D01*
X0225292Y0091545D01*
X0225292Y0092177D01*
X0224845Y0092624D01*
X0224213Y0092624D01*
X0223766Y0092177D01*
X0223766Y0091545D01*
X0224213Y0091098D01*
X0223795Y0091516D02*
X0221592Y0091516D01*
X0221561Y0091814D02*
X0223766Y0091814D01*
X0223766Y0092113D02*
X0221262Y0092113D01*
X0220394Y0092113D02*
X0218453Y0092113D01*
X0218512Y0092411D02*
X0223999Y0092411D01*
X0225058Y0092411D02*
X0229671Y0092411D01*
X0229671Y0092414D02*
X0229671Y0091781D01*
X0230118Y0091334D01*
X0230751Y0091334D01*
X0231198Y0091781D01*
X0231198Y0092414D01*
X0230751Y0092861D01*
X0230118Y0092861D01*
X0229671Y0092414D01*
X0229671Y0092113D02*
X0225292Y0092113D01*
X0225292Y0091814D02*
X0229671Y0091814D01*
X0229936Y0091516D02*
X0225263Y0091516D01*
X0224965Y0091217D02*
X0277309Y0091217D01*
X0277309Y0091516D02*
X0230932Y0091516D01*
X0231198Y0091814D02*
X0277576Y0091814D01*
X0278569Y0091814D02*
X0290664Y0091814D01*
X0290723Y0091516D02*
X0278836Y0091516D01*
X0278836Y0091217D02*
X0290782Y0091217D01*
X0290775Y0090919D02*
X0278836Y0090919D01*
X0278541Y0090620D02*
X0290476Y0090620D01*
X0290178Y0090322D02*
X0254857Y0090322D01*
X0254861Y0090023D02*
X0289879Y0090023D01*
X0289581Y0089725D02*
X0259785Y0089725D01*
X0259900Y0089426D02*
X0289282Y0089426D01*
X0288984Y0089128D02*
X0280704Y0089128D01*
X0281002Y0088829D02*
X0288685Y0088829D01*
X0288387Y0088531D02*
X0281081Y0088531D01*
X0281081Y0088232D02*
X0288088Y0088232D01*
X0287790Y0087934D02*
X0280800Y0087934D01*
X0280068Y0087934D02*
X0221268Y0087934D01*
X0221323Y0087635D02*
X0247813Y0087635D01*
X0247515Y0087336D02*
X0221323Y0087336D01*
X0221323Y0087038D02*
X0247504Y0087038D01*
X0247555Y0086739D02*
X0221323Y0086739D01*
X0221323Y0086441D02*
X0247853Y0086441D01*
X0247637Y0088232D02*
X0220970Y0088232D01*
X0220671Y0088531D02*
X0247504Y0088531D01*
X0247504Y0088829D02*
X0220373Y0088829D01*
X0220074Y0089128D02*
X0247731Y0089128D01*
X0248571Y0089128D02*
X0250875Y0089128D01*
X0250772Y0089426D02*
X0219776Y0089426D01*
X0219477Y0089725D02*
X0250772Y0089725D01*
X0251028Y0090023D02*
X0219179Y0090023D01*
X0218283Y0090919D02*
X0220297Y0090919D01*
X0220065Y0091217D02*
X0218276Y0091217D01*
X0218335Y0091516D02*
X0220065Y0091516D01*
X0220095Y0091814D02*
X0218394Y0091814D01*
X0218571Y0092710D02*
X0229967Y0092710D01*
X0230902Y0092710D02*
X0249965Y0092710D01*
X0249848Y0092826D02*
X0250376Y0092298D01*
X0251123Y0092298D01*
X0251651Y0092826D01*
X0251651Y0093573D01*
X0251123Y0094101D01*
X0250376Y0094101D01*
X0249848Y0093573D01*
X0249848Y0092826D01*
X0249848Y0093008D02*
X0218630Y0093008D01*
X0218689Y0093307D02*
X0249848Y0093307D01*
X0249880Y0093605D02*
X0218748Y0093605D01*
X0218807Y0093904D02*
X0250179Y0093904D01*
X0251320Y0093904D02*
X0290251Y0093904D01*
X0290310Y0093605D02*
X0251618Y0093605D01*
X0251651Y0093307D02*
X0290369Y0093307D01*
X0290428Y0093008D02*
X0251651Y0093008D01*
X0251534Y0092710D02*
X0290487Y0092710D01*
X0290546Y0092411D02*
X0251235Y0092411D01*
X0250263Y0092411D02*
X0231198Y0092411D01*
X0231198Y0092113D02*
X0290605Y0092113D01*
X0290173Y0094202D02*
X0218884Y0094202D01*
X0218989Y0094501D02*
X0290069Y0094501D01*
X0289964Y0094799D02*
X0287994Y0094799D01*
X0287973Y0094779D02*
X0288501Y0095307D01*
X0288501Y0096053D01*
X0287973Y0096581D01*
X0287227Y0096581D01*
X0286699Y0096053D01*
X0286699Y0095307D01*
X0287227Y0094779D01*
X0287973Y0094779D01*
X0288292Y0095098D02*
X0289859Y0095098D01*
X0289754Y0095396D02*
X0288501Y0095396D01*
X0288501Y0095695D02*
X0289650Y0095695D01*
X0289545Y0095993D02*
X0288501Y0095993D01*
X0288262Y0096292D02*
X0289440Y0096292D01*
X0289335Y0096590D02*
X0219723Y0096590D01*
X0219618Y0096292D02*
X0286937Y0096292D01*
X0286699Y0095993D02*
X0219513Y0095993D01*
X0219408Y0095695D02*
X0286699Y0095695D01*
X0286699Y0095396D02*
X0219303Y0095396D01*
X0219199Y0095098D02*
X0286908Y0095098D01*
X0287206Y0094799D02*
X0219094Y0094799D01*
X0219827Y0096889D02*
X0236258Y0096889D01*
X0236282Y0096865D02*
X0237028Y0096865D01*
X0237556Y0097393D01*
X0237556Y0098140D01*
X0237028Y0098668D01*
X0236282Y0098668D01*
X0235754Y0098140D01*
X0235754Y0097393D01*
X0236282Y0096865D01*
X0235960Y0097187D02*
X0219932Y0097187D01*
X0220037Y0097486D02*
X0235754Y0097486D01*
X0235754Y0097784D02*
X0220142Y0097784D01*
X0220246Y0098083D02*
X0235754Y0098083D01*
X0235995Y0098381D02*
X0220351Y0098381D01*
X0220456Y0098680D02*
X0259612Y0098680D01*
X0259612Y0098456D02*
X0260140Y0097928D01*
X0260886Y0097928D01*
X0261414Y0098456D01*
X0261414Y0099203D01*
X0260886Y0099731D01*
X0260140Y0099731D01*
X0259612Y0099203D01*
X0259612Y0098456D01*
X0259687Y0098381D02*
X0237315Y0098381D01*
X0237556Y0098083D02*
X0259985Y0098083D01*
X0259612Y0098978D02*
X0220561Y0098978D01*
X0220666Y0099277D02*
X0247891Y0099277D01*
X0248080Y0099088D02*
X0248616Y0099088D01*
X0248995Y0099467D01*
X0248995Y0100003D01*
X0248616Y0100382D01*
X0248080Y0100382D01*
X0247701Y0100003D01*
X0247701Y0099467D01*
X0248080Y0099088D01*
X0247701Y0099575D02*
X0220770Y0099575D01*
X0220875Y0099874D02*
X0239696Y0099874D01*
X0239773Y0099797D02*
X0240309Y0099797D01*
X0240688Y0100176D01*
X0240688Y0100712D01*
X0240309Y0101091D01*
X0239773Y0101091D01*
X0239394Y0100712D01*
X0239394Y0100176D01*
X0239773Y0099797D01*
X0239397Y0100172D02*
X0220980Y0100172D01*
X0221085Y0100471D02*
X0239394Y0100471D01*
X0239452Y0100770D02*
X0221216Y0100770D01*
X0221390Y0101068D02*
X0239750Y0101068D01*
X0240331Y0101068D02*
X0248370Y0101068D01*
X0248370Y0101184D02*
X0248370Y0100648D01*
X0248749Y0100269D01*
X0249285Y0100269D01*
X0249664Y0100648D01*
X0249664Y0101184D01*
X0249285Y0101563D01*
X0248749Y0101563D01*
X0248370Y0101184D01*
X0248553Y0101367D02*
X0237356Y0101367D01*
X0237186Y0101196D02*
X0237714Y0101724D01*
X0237714Y0102471D01*
X0237186Y0102998D01*
X0236439Y0102998D01*
X0235911Y0102471D01*
X0235911Y0101724D01*
X0236439Y0101196D01*
X0237186Y0101196D01*
X0237655Y0101665D02*
X0244669Y0101665D01*
X0244843Y0101491D02*
X0245475Y0101491D01*
X0245922Y0101939D01*
X0245922Y0102571D01*
X0245475Y0103018D01*
X0244843Y0103018D01*
X0244395Y0102571D01*
X0244395Y0101939D01*
X0244843Y0101491D01*
X0244395Y0101964D02*
X0237714Y0101964D01*
X0237714Y0102262D02*
X0244395Y0102262D01*
X0244395Y0102561D02*
X0237624Y0102561D01*
X0237325Y0102859D02*
X0238477Y0102859D01*
X0238723Y0102613D02*
X0239469Y0102613D01*
X0239997Y0103141D01*
X0239997Y0103888D01*
X0239469Y0104416D01*
X0238723Y0104416D01*
X0238195Y0103888D01*
X0238195Y0103141D01*
X0238723Y0102613D01*
X0238195Y0103158D02*
X0222607Y0103158D01*
X0222781Y0103456D02*
X0238195Y0103456D01*
X0238195Y0103755D02*
X0222954Y0103755D01*
X0223128Y0104053D02*
X0238360Y0104053D01*
X0238658Y0104352D02*
X0225343Y0104352D01*
X0225239Y0104247D02*
X0225686Y0104694D01*
X0225686Y0105327D01*
X0225239Y0105774D01*
X0224606Y0105774D01*
X0224159Y0105327D01*
X0224159Y0104694D01*
X0224606Y0104247D01*
X0225239Y0104247D01*
X0225642Y0104650D02*
X0227675Y0104650D01*
X0227726Y0104600D02*
X0228261Y0104600D01*
X0228640Y0104979D01*
X0228640Y0105515D01*
X0228261Y0105894D01*
X0227726Y0105894D01*
X0227347Y0105515D01*
X0227347Y0104979D01*
X0227726Y0104600D01*
X0227377Y0104949D02*
X0225686Y0104949D01*
X0225686Y0105247D02*
X0227347Y0105247D01*
X0227377Y0105546D02*
X0225467Y0105546D01*
X0224378Y0105546D02*
X0223997Y0105546D01*
X0224159Y0105247D02*
X0223824Y0105247D01*
X0223650Y0104949D02*
X0224159Y0104949D01*
X0224204Y0104650D02*
X0223476Y0104650D01*
X0223302Y0104352D02*
X0224502Y0104352D01*
X0224171Y0105844D02*
X0227676Y0105844D01*
X0228311Y0105844D02*
X0245314Y0105844D01*
X0245299Y0105830D02*
X0245299Y0105294D01*
X0245678Y0104915D01*
X0246214Y0104915D01*
X0246593Y0105294D01*
X0246593Y0105830D01*
X0246214Y0106209D01*
X0245678Y0106209D01*
X0245299Y0105830D01*
X0245299Y0105546D02*
X0228609Y0105546D01*
X0228640Y0105247D02*
X0245346Y0105247D01*
X0245645Y0104949D02*
X0228610Y0104949D01*
X0228312Y0104650D02*
X0256482Y0104650D01*
X0256623Y0104791D02*
X0256244Y0104412D01*
X0256244Y0103877D01*
X0256353Y0103768D01*
X0255836Y0103768D01*
X0255457Y0103389D01*
X0255457Y0102853D01*
X0255836Y0102474D01*
X0256372Y0102474D01*
X0256751Y0102853D01*
X0256751Y0103389D01*
X0256642Y0103498D01*
X0257159Y0103498D01*
X0257538Y0103877D01*
X0257538Y0104412D01*
X0257159Y0104791D01*
X0256623Y0104791D01*
X0256244Y0104352D02*
X0239533Y0104352D01*
X0239832Y0104053D02*
X0256244Y0104053D01*
X0255823Y0103755D02*
X0239997Y0103755D01*
X0239997Y0103456D02*
X0255524Y0103456D01*
X0255457Y0103158D02*
X0239997Y0103158D01*
X0239715Y0102859D02*
X0244684Y0102859D01*
X0245634Y0102859D02*
X0254770Y0102859D01*
X0254812Y0102902D02*
X0254433Y0102523D01*
X0254433Y0101987D01*
X0254797Y0101623D01*
X0254582Y0101409D01*
X0254582Y0100873D01*
X0254961Y0100494D01*
X0255497Y0100494D01*
X0255876Y0100873D01*
X0255876Y0101409D01*
X0255512Y0101772D01*
X0255727Y0101987D01*
X0255727Y0102523D01*
X0255348Y0102902D01*
X0254812Y0102902D01*
X0254471Y0102561D02*
X0245922Y0102561D01*
X0245922Y0102262D02*
X0254433Y0102262D01*
X0254457Y0101964D02*
X0245922Y0101964D01*
X0245649Y0101665D02*
X0254755Y0101665D01*
X0254582Y0101367D02*
X0249482Y0101367D01*
X0249664Y0101068D02*
X0254582Y0101068D01*
X0254685Y0100770D02*
X0249664Y0100770D01*
X0249487Y0100471D02*
X0273018Y0100471D01*
X0273018Y0100509D02*
X0273018Y0099973D01*
X0273396Y0099594D01*
X0273932Y0099594D01*
X0274311Y0099973D01*
X0274311Y0100509D01*
X0273932Y0100887D01*
X0273396Y0100887D01*
X0273018Y0100509D01*
X0273018Y0100172D02*
X0248825Y0100172D01*
X0248995Y0099874D02*
X0273116Y0099874D01*
X0273278Y0100770D02*
X0255773Y0100770D01*
X0255876Y0101068D02*
X0287668Y0101068D01*
X0287842Y0100770D02*
X0274050Y0100770D01*
X0274311Y0100471D02*
X0287973Y0100471D01*
X0288078Y0100172D02*
X0274311Y0100172D01*
X0274212Y0099874D02*
X0288183Y0099874D01*
X0288287Y0099575D02*
X0266868Y0099575D01*
X0266767Y0099676D02*
X0267147Y0099296D01*
X0267147Y0098757D01*
X0266767Y0098376D01*
X0266228Y0098376D01*
X0265847Y0098757D01*
X0265847Y0099296D01*
X0266228Y0099676D01*
X0266767Y0099676D01*
X0267147Y0099277D02*
X0288392Y0099277D01*
X0288497Y0098978D02*
X0287310Y0098978D01*
X0287286Y0099002D02*
X0286654Y0099002D01*
X0286206Y0098555D01*
X0286206Y0097923D01*
X0286654Y0097476D01*
X0287286Y0097476D01*
X0287733Y0097923D01*
X0287733Y0098555D01*
X0287286Y0099002D01*
X0287609Y0098680D02*
X0288602Y0098680D01*
X0288707Y0098381D02*
X0287733Y0098381D01*
X0287733Y0098083D02*
X0288811Y0098083D01*
X0288916Y0097784D02*
X0287595Y0097784D01*
X0287296Y0097486D02*
X0289021Y0097486D01*
X0289126Y0097187D02*
X0237350Y0097187D01*
X0237556Y0097486D02*
X0286643Y0097486D01*
X0286345Y0097784D02*
X0237556Y0097784D01*
X0237052Y0096889D02*
X0289230Y0096889D01*
X0286206Y0098083D02*
X0284271Y0098083D01*
X0284095Y0097907D02*
X0284474Y0098286D01*
X0284474Y0098822D01*
X0284095Y0099201D01*
X0283559Y0099201D01*
X0283180Y0098822D01*
X0283180Y0098286D01*
X0283559Y0097907D01*
X0284095Y0097907D01*
X0284474Y0098381D02*
X0286206Y0098381D01*
X0286331Y0098680D02*
X0284474Y0098680D01*
X0284318Y0098978D02*
X0286630Y0098978D01*
X0283337Y0098978D02*
X0267147Y0098978D01*
X0267070Y0098680D02*
X0283180Y0098680D01*
X0283180Y0098381D02*
X0266772Y0098381D01*
X0266223Y0098381D02*
X0261339Y0098381D01*
X0261414Y0098680D02*
X0265925Y0098680D01*
X0265847Y0098978D02*
X0261414Y0098978D01*
X0261340Y0099277D02*
X0265847Y0099277D01*
X0266127Y0099575D02*
X0261042Y0099575D01*
X0259985Y0099575D02*
X0248995Y0099575D01*
X0248804Y0099277D02*
X0259686Y0099277D01*
X0261041Y0098083D02*
X0283384Y0098083D01*
X0287494Y0101367D02*
X0255876Y0101367D01*
X0255619Y0101665D02*
X0287320Y0101665D01*
X0287146Y0101964D02*
X0255704Y0101964D01*
X0255727Y0102262D02*
X0286973Y0102262D01*
X0286799Y0102561D02*
X0261207Y0102561D01*
X0261047Y0102400D02*
X0261426Y0102779D01*
X0261426Y0103315D01*
X0261047Y0103694D01*
X0260626Y0103694D01*
X0260626Y0104115D01*
X0260247Y0104494D01*
X0259711Y0104494D01*
X0259332Y0104115D01*
X0259332Y0103579D01*
X0259711Y0103200D01*
X0260132Y0103200D01*
X0260132Y0102779D01*
X0260511Y0102400D01*
X0261047Y0102400D01*
X0261426Y0102859D02*
X0262002Y0102859D01*
X0262161Y0102700D02*
X0262697Y0102700D01*
X0263076Y0103079D01*
X0263076Y0103615D01*
X0262697Y0103994D01*
X0262161Y0103994D01*
X0261782Y0103615D01*
X0261782Y0103079D01*
X0262161Y0102700D01*
X0261782Y0103158D02*
X0261426Y0103158D01*
X0261284Y0103456D02*
X0261782Y0103456D01*
X0261922Y0103755D02*
X0260626Y0103755D01*
X0260626Y0104053D02*
X0263620Y0104053D01*
X0263661Y0104094D02*
X0263282Y0103715D01*
X0263282Y0103179D01*
X0263661Y0102800D01*
X0264197Y0102800D01*
X0264576Y0103179D01*
X0264576Y0103715D01*
X0264197Y0104094D01*
X0263661Y0104094D01*
X0263322Y0103755D02*
X0262936Y0103755D01*
X0263076Y0103456D02*
X0263282Y0103456D01*
X0263303Y0103158D02*
X0263076Y0103158D01*
X0262856Y0102859D02*
X0263602Y0102859D01*
X0264256Y0102859D02*
X0264902Y0102859D01*
X0264782Y0102979D02*
X0265161Y0102600D01*
X0265697Y0102600D01*
X0266076Y0102979D01*
X0266076Y0103515D01*
X0265697Y0103894D01*
X0265161Y0103894D01*
X0264782Y0103515D01*
X0264782Y0102979D01*
X0264782Y0103158D02*
X0264554Y0103158D01*
X0264576Y0103456D02*
X0264782Y0103456D01*
X0265022Y0103755D02*
X0264536Y0103755D01*
X0264237Y0104053D02*
X0277767Y0104053D01*
X0277624Y0103910D02*
X0277624Y0103277D01*
X0278071Y0102830D01*
X0278703Y0102830D01*
X0279151Y0103277D01*
X0279151Y0103910D01*
X0278703Y0104357D01*
X0278071Y0104357D01*
X0277624Y0103910D01*
X0277624Y0103755D02*
X0265836Y0103755D01*
X0266076Y0103456D02*
X0277624Y0103456D01*
X0277743Y0103158D02*
X0266076Y0103158D01*
X0265956Y0102859D02*
X0278042Y0102859D01*
X0278732Y0102859D02*
X0286625Y0102859D01*
X0286451Y0103158D02*
X0279031Y0103158D01*
X0279151Y0103456D02*
X0286277Y0103456D01*
X0286103Y0103755D02*
X0279151Y0103755D01*
X0279007Y0104053D02*
X0285930Y0104053D01*
X0285756Y0104352D02*
X0278709Y0104352D01*
X0278066Y0104352D02*
X0260389Y0104352D01*
X0259569Y0104352D02*
X0259113Y0104352D01*
X0259113Y0104270D02*
X0258734Y0103891D01*
X0258198Y0103891D01*
X0257819Y0104270D01*
X0257819Y0104806D01*
X0258198Y0105185D01*
X0258734Y0105185D01*
X0259113Y0104806D01*
X0259113Y0104270D01*
X0258896Y0104053D02*
X0259332Y0104053D01*
X0259332Y0103755D02*
X0257416Y0103755D01*
X0257538Y0104053D02*
X0258036Y0104053D01*
X0257819Y0104352D02*
X0257538Y0104352D01*
X0257300Y0104650D02*
X0257819Y0104650D01*
X0257962Y0104949D02*
X0253492Y0104949D01*
X0253601Y0105058D02*
X0253222Y0104679D01*
X0252686Y0104679D01*
X0252307Y0105058D01*
X0252307Y0105594D01*
X0252686Y0105972D01*
X0253222Y0105972D01*
X0253601Y0105594D01*
X0253601Y0105058D01*
X0253601Y0105247D02*
X0264906Y0105247D01*
X0264906Y0105058D02*
X0265285Y0104679D01*
X0265820Y0104679D01*
X0266199Y0105058D01*
X0266199Y0105594D01*
X0265820Y0105972D01*
X0265285Y0105972D01*
X0264906Y0105594D01*
X0264906Y0105058D01*
X0265015Y0104949D02*
X0258970Y0104949D01*
X0259113Y0104650D02*
X0285582Y0104650D01*
X0285408Y0104949D02*
X0267980Y0104949D01*
X0268168Y0105136D02*
X0267789Y0104758D01*
X0267253Y0104758D01*
X0266874Y0105136D01*
X0266874Y0105672D01*
X0267253Y0106051D01*
X0267789Y0106051D01*
X0268168Y0105672D01*
X0268168Y0105136D01*
X0268168Y0105247D02*
X0285234Y0105247D01*
X0285060Y0105546D02*
X0268168Y0105546D01*
X0267996Y0105844D02*
X0280207Y0105844D01*
X0280258Y0105793D02*
X0280793Y0105793D01*
X0281172Y0106172D01*
X0281172Y0106708D01*
X0280793Y0107087D01*
X0280258Y0107087D01*
X0279879Y0106708D01*
X0279879Y0106172D01*
X0280258Y0105793D01*
X0279908Y0106143D02*
X0268760Y0106143D01*
X0268713Y0106095D02*
X0269092Y0106474D01*
X0269092Y0107010D01*
X0268713Y0107389D01*
X0268177Y0107389D01*
X0267798Y0107010D01*
X0267798Y0106474D01*
X0268177Y0106095D01*
X0268713Y0106095D01*
X0269058Y0106441D02*
X0279879Y0106441D01*
X0279910Y0106740D02*
X0269092Y0106740D01*
X0269063Y0107038D02*
X0280209Y0107038D01*
X0280842Y0107038D02*
X0284086Y0107038D01*
X0284346Y0106740D02*
X0281141Y0106740D01*
X0281172Y0106441D02*
X0284539Y0106441D01*
X0284713Y0106143D02*
X0281143Y0106143D01*
X0280844Y0105844D02*
X0284887Y0105844D01*
X0283825Y0107337D02*
X0271549Y0107337D01*
X0271632Y0107420D02*
X0271254Y0107041D01*
X0270718Y0107041D01*
X0270339Y0107420D01*
X0270339Y0107956D01*
X0270718Y0108335D01*
X0271254Y0108335D01*
X0271632Y0107956D01*
X0271632Y0107420D01*
X0271632Y0107635D02*
X0283565Y0107635D01*
X0283305Y0107934D02*
X0271632Y0107934D01*
X0271356Y0108232D02*
X0283045Y0108232D01*
X0282784Y0108531D02*
X0264625Y0108531D01*
X0264625Y0108743D02*
X0264246Y0109122D01*
X0263710Y0109122D01*
X0263331Y0108743D01*
X0263331Y0108207D01*
X0263710Y0107828D01*
X0264246Y0107828D01*
X0264625Y0108207D01*
X0264625Y0108743D01*
X0264538Y0108829D02*
X0282524Y0108829D01*
X0282264Y0109128D02*
X0250618Y0109128D01*
X0250466Y0109280D02*
X0249930Y0109280D01*
X0249551Y0108901D01*
X0249551Y0108365D01*
X0249930Y0107986D01*
X0250466Y0107986D01*
X0250845Y0108365D01*
X0250845Y0108901D01*
X0250466Y0109280D01*
X0250845Y0108829D02*
X0252393Y0108829D01*
X0252307Y0108743D02*
X0252307Y0108207D01*
X0252686Y0107828D01*
X0253222Y0107828D01*
X0253601Y0108207D01*
X0253601Y0108743D01*
X0253222Y0109122D01*
X0252686Y0109122D01*
X0252307Y0108743D01*
X0252307Y0108531D02*
X0250845Y0108531D01*
X0250713Y0108232D02*
X0252307Y0108232D01*
X0252581Y0107934D02*
X0225753Y0107934D01*
X0226013Y0108232D02*
X0249684Y0108232D01*
X0249551Y0108531D02*
X0230152Y0108531D01*
X0230042Y0108421D02*
X0230489Y0108868D01*
X0230489Y0109500D01*
X0230042Y0109947D01*
X0229410Y0109947D01*
X0228962Y0109500D01*
X0228962Y0108868D01*
X0229410Y0108421D01*
X0230042Y0108421D01*
X0230451Y0108829D02*
X0249551Y0108829D01*
X0249779Y0109128D02*
X0230489Y0109128D01*
X0230489Y0109426D02*
X0255813Y0109426D01*
X0255836Y0109403D02*
X0256372Y0109403D01*
X0256751Y0109782D01*
X0256751Y0110318D01*
X0256372Y0110697D01*
X0255836Y0110697D01*
X0255457Y0110318D01*
X0255457Y0109782D01*
X0255836Y0109403D01*
X0255836Y0109122D02*
X0255457Y0108743D01*
X0255457Y0108207D01*
X0255836Y0107828D01*
X0256372Y0107828D01*
X0256751Y0108207D01*
X0256751Y0108743D01*
X0256372Y0109122D01*
X0255836Y0109122D01*
X0255543Y0108829D02*
X0255090Y0108829D01*
X0255176Y0108743D02*
X0254797Y0109122D01*
X0254261Y0109122D01*
X0253882Y0108743D01*
X0253882Y0108207D01*
X0254261Y0107828D01*
X0254797Y0107828D01*
X0255176Y0108207D01*
X0255176Y0108743D01*
X0255176Y0108531D02*
X0255457Y0108531D01*
X0255457Y0108232D02*
X0255176Y0108232D01*
X0254902Y0107934D02*
X0255730Y0107934D01*
X0256477Y0107934D02*
X0257305Y0107934D01*
X0257411Y0107828D02*
X0257946Y0107828D01*
X0258325Y0108207D01*
X0258325Y0108743D01*
X0257946Y0109122D01*
X0257411Y0109122D01*
X0257032Y0108743D01*
X0257032Y0108207D01*
X0257411Y0107828D01*
X0257411Y0107547D02*
X0257032Y0107168D01*
X0257032Y0106633D01*
X0257411Y0106254D01*
X0257946Y0106254D01*
X0258325Y0106633D01*
X0258325Y0107168D01*
X0257946Y0107547D01*
X0257411Y0107547D01*
X0257200Y0107337D02*
X0255007Y0107337D01*
X0255176Y0107168D02*
X0254797Y0107547D01*
X0254261Y0107547D01*
X0253882Y0107168D01*
X0253882Y0106633D01*
X0254261Y0106254D01*
X0254797Y0106254D01*
X0255176Y0106633D01*
X0255176Y0107168D01*
X0255176Y0107038D02*
X0257032Y0107038D01*
X0257032Y0106740D02*
X0255176Y0106740D01*
X0254984Y0106441D02*
X0257223Y0106441D01*
X0258134Y0106441D02*
X0260182Y0106441D01*
X0260182Y0106185D02*
X0260182Y0106721D01*
X0260561Y0107100D01*
X0261097Y0107100D01*
X0261476Y0106721D01*
X0261476Y0106185D01*
X0261097Y0105806D01*
X0260561Y0105806D01*
X0260182Y0106185D01*
X0260225Y0106143D02*
X0246280Y0106143D01*
X0246579Y0105844D02*
X0252558Y0105844D01*
X0252307Y0105546D02*
X0246593Y0105546D01*
X0246546Y0105247D02*
X0252307Y0105247D01*
X0252416Y0104949D02*
X0246248Y0104949D01*
X0245612Y0106143D02*
X0224345Y0106143D01*
X0224519Y0106441D02*
X0249979Y0106441D01*
X0250009Y0106411D02*
X0250545Y0106411D01*
X0250924Y0106790D01*
X0250924Y0107326D01*
X0250545Y0107705D01*
X0250009Y0107705D01*
X0249630Y0107326D01*
X0249630Y0106790D01*
X0250009Y0106411D01*
X0249680Y0106740D02*
X0224712Y0106740D01*
X0224972Y0107038D02*
X0249630Y0107038D01*
X0249641Y0107337D02*
X0225232Y0107337D01*
X0225493Y0107635D02*
X0249940Y0107635D01*
X0250614Y0107635D02*
X0259403Y0107635D01*
X0259403Y0107418D02*
X0259782Y0107039D01*
X0260318Y0107039D01*
X0260697Y0107418D01*
X0260697Y0107828D01*
X0261096Y0107828D01*
X0261475Y0108207D01*
X0261475Y0108743D01*
X0261096Y0109122D01*
X0260560Y0109122D01*
X0260181Y0108743D01*
X0260181Y0108333D01*
X0259782Y0108333D01*
X0259403Y0107954D01*
X0259403Y0107418D01*
X0259485Y0107337D02*
X0258157Y0107337D01*
X0258325Y0107038D02*
X0260499Y0107038D01*
X0260615Y0107337D02*
X0263499Y0107337D01*
X0263331Y0107168D02*
X0263331Y0106633D01*
X0263710Y0106254D01*
X0264246Y0106254D01*
X0264625Y0106633D01*
X0264625Y0107168D01*
X0264246Y0107547D01*
X0263710Y0107547D01*
X0263331Y0107168D01*
X0263331Y0107038D02*
X0261159Y0107038D01*
X0261457Y0106740D02*
X0263331Y0106740D01*
X0263522Y0106441D02*
X0261476Y0106441D01*
X0261433Y0106143D02*
X0268129Y0106143D01*
X0267831Y0106441D02*
X0264433Y0106441D01*
X0264625Y0106740D02*
X0267798Y0106740D01*
X0267826Y0107038D02*
X0264625Y0107038D01*
X0264456Y0107337D02*
X0268124Y0107337D01*
X0268685Y0107420D02*
X0269064Y0107041D01*
X0269600Y0107041D01*
X0269979Y0107420D01*
X0269979Y0107956D01*
X0269600Y0108335D01*
X0269064Y0108335D01*
X0268685Y0107956D01*
X0268685Y0107420D01*
X0268765Y0107337D02*
X0268768Y0107337D01*
X0268685Y0107635D02*
X0260697Y0107635D01*
X0261201Y0107934D02*
X0263604Y0107934D01*
X0263331Y0108232D02*
X0261475Y0108232D01*
X0261475Y0108531D02*
X0263331Y0108531D01*
X0263417Y0108829D02*
X0261389Y0108829D01*
X0262112Y0109426D02*
X0259544Y0109426D01*
X0259521Y0109403D02*
X0259900Y0109782D01*
X0259900Y0110318D01*
X0259521Y0110697D01*
X0258985Y0110697D01*
X0258606Y0110318D01*
X0258606Y0109782D01*
X0258985Y0109403D01*
X0259521Y0109403D01*
X0259843Y0109725D02*
X0261813Y0109725D01*
X0261756Y0109782D02*
X0262135Y0109403D01*
X0262671Y0109403D01*
X0263050Y0109782D01*
X0263050Y0110318D01*
X0262671Y0110697D01*
X0262135Y0110697D01*
X0261756Y0110318D01*
X0261756Y0109782D01*
X0261756Y0110023D02*
X0259900Y0110023D01*
X0259896Y0110322D02*
X0261760Y0110322D01*
X0262058Y0110620D02*
X0259598Y0110620D01*
X0258909Y0110620D02*
X0256448Y0110620D01*
X0256747Y0110322D02*
X0258610Y0110322D01*
X0258606Y0110023D02*
X0256751Y0110023D01*
X0256693Y0109725D02*
X0258664Y0109725D01*
X0258962Y0109426D02*
X0256395Y0109426D01*
X0256664Y0108829D02*
X0257118Y0108829D01*
X0257032Y0108531D02*
X0256751Y0108531D01*
X0256751Y0108232D02*
X0257032Y0108232D01*
X0258052Y0107934D02*
X0259403Y0107934D01*
X0259681Y0108232D02*
X0258325Y0108232D01*
X0258325Y0108531D02*
X0260181Y0108531D01*
X0260267Y0108829D02*
X0258239Y0108829D01*
X0258325Y0106740D02*
X0260201Y0106740D01*
X0260523Y0105844D02*
X0253350Y0105844D01*
X0253601Y0105546D02*
X0264906Y0105546D01*
X0265156Y0105844D02*
X0261135Y0105844D01*
X0260132Y0103158D02*
X0256751Y0103158D01*
X0256751Y0102859D02*
X0260132Y0102859D01*
X0260350Y0102561D02*
X0256458Y0102561D01*
X0255749Y0102561D02*
X0255689Y0102561D01*
X0255457Y0102859D02*
X0255391Y0102859D01*
X0256683Y0103456D02*
X0259455Y0103456D01*
X0254073Y0106441D02*
X0250575Y0106441D01*
X0250874Y0106740D02*
X0253882Y0106740D01*
X0253882Y0107038D02*
X0250924Y0107038D01*
X0250913Y0107337D02*
X0254050Y0107337D01*
X0254156Y0107934D02*
X0253327Y0107934D01*
X0253601Y0108232D02*
X0253882Y0108232D01*
X0253882Y0108531D02*
X0253601Y0108531D01*
X0253515Y0108829D02*
X0253968Y0108829D01*
X0255514Y0109725D02*
X0230264Y0109725D01*
X0229187Y0109725D02*
X0227314Y0109725D01*
X0227054Y0109426D02*
X0228962Y0109426D01*
X0228962Y0109128D02*
X0226794Y0109128D01*
X0226534Y0108829D02*
X0229001Y0108829D01*
X0229299Y0108531D02*
X0226273Y0108531D01*
X0227575Y0110023D02*
X0255457Y0110023D01*
X0255461Y0110322D02*
X0227835Y0110322D01*
X0228095Y0110620D02*
X0255759Y0110620D01*
X0255036Y0111217D02*
X0257171Y0111217D01*
X0257032Y0111357D02*
X0257411Y0110978D01*
X0257946Y0110978D01*
X0258325Y0111357D01*
X0258325Y0111893D01*
X0257946Y0112272D01*
X0257411Y0112272D01*
X0257032Y0111893D01*
X0257032Y0111357D01*
X0257032Y0111516D02*
X0255176Y0111516D01*
X0255176Y0111357D02*
X0254797Y0110978D01*
X0254261Y0110978D01*
X0253882Y0111357D01*
X0253882Y0111893D01*
X0254261Y0112272D01*
X0254797Y0112272D01*
X0255176Y0111893D01*
X0255176Y0111357D01*
X0255176Y0111814D02*
X0257032Y0111814D01*
X0257252Y0112113D02*
X0254956Y0112113D01*
X0254797Y0112553D02*
X0255176Y0112932D01*
X0255176Y0113468D01*
X0254797Y0113847D01*
X0254261Y0113847D01*
X0253882Y0113468D01*
X0253882Y0112932D01*
X0254261Y0112553D01*
X0254797Y0112553D01*
X0254954Y0112710D02*
X0257253Y0112710D01*
X0257411Y0112553D02*
X0257946Y0112553D01*
X0258325Y0112932D01*
X0258325Y0113468D01*
X0257946Y0113847D01*
X0257411Y0113847D01*
X0257032Y0113468D01*
X0257032Y0112932D01*
X0257411Y0112553D01*
X0257032Y0113008D02*
X0255176Y0113008D01*
X0255176Y0113307D02*
X0257032Y0113307D01*
X0257170Y0113605D02*
X0255038Y0113605D01*
X0254797Y0114147D02*
X0255176Y0114526D01*
X0255176Y0115062D01*
X0254797Y0115441D01*
X0254261Y0115441D01*
X0253882Y0115062D01*
X0253882Y0114526D01*
X0254261Y0114147D01*
X0254797Y0114147D01*
X0254852Y0114203D02*
X0260485Y0114203D01*
X0260560Y0114128D02*
X0261096Y0114128D01*
X0261475Y0114507D01*
X0261475Y0115042D01*
X0261096Y0115421D01*
X0260560Y0115421D01*
X0260181Y0115042D01*
X0260181Y0114507D01*
X0260560Y0114128D01*
X0260187Y0114501D02*
X0255151Y0114501D01*
X0255176Y0114800D02*
X0260181Y0114800D01*
X0260237Y0115098D02*
X0255139Y0115098D01*
X0254841Y0115397D02*
X0260535Y0115397D01*
X0261121Y0115397D02*
X0274197Y0115397D01*
X0274197Y0115098D02*
X0261419Y0115098D01*
X0261475Y0114800D02*
X0274495Y0114800D01*
X0275193Y0114800D02*
X0276151Y0114800D01*
X0275770Y0115098D02*
X0275491Y0115098D01*
X0276533Y0114501D02*
X0263591Y0114501D01*
X0263458Y0114634D02*
X0263837Y0114255D01*
X0263837Y0113847D01*
X0264246Y0113847D01*
X0264625Y0113468D01*
X0264625Y0112932D01*
X0264246Y0112553D01*
X0263710Y0112553D01*
X0263331Y0112932D01*
X0263331Y0113340D01*
X0262922Y0113340D01*
X0262543Y0113719D01*
X0262543Y0114255D01*
X0262922Y0114634D01*
X0263458Y0114634D01*
X0263837Y0114203D02*
X0276914Y0114203D01*
X0277295Y0113904D02*
X0263837Y0113904D01*
X0264487Y0113605D02*
X0277677Y0113605D01*
X0278058Y0113307D02*
X0264625Y0113307D01*
X0264625Y0113008D02*
X0278440Y0113008D01*
X0278821Y0112710D02*
X0268532Y0112710D01*
X0268419Y0112823D02*
X0267883Y0112823D01*
X0267504Y0112444D01*
X0267504Y0111908D01*
X0267883Y0111529D01*
X0268419Y0111529D01*
X0268798Y0111908D01*
X0268798Y0112444D01*
X0268419Y0112823D01*
X0268798Y0112411D02*
X0269440Y0112411D01*
X0269458Y0112429D02*
X0269079Y0112050D01*
X0269079Y0111514D01*
X0269458Y0111135D01*
X0269994Y0111135D01*
X0270047Y0111189D01*
X0270047Y0110986D01*
X0270426Y0110607D01*
X0270962Y0110607D01*
X0271341Y0110986D01*
X0271341Y0111522D01*
X0270962Y0111901D01*
X0270426Y0111901D01*
X0270373Y0111848D01*
X0270373Y0112050D01*
X0269994Y0112429D01*
X0269458Y0112429D01*
X0269142Y0112113D02*
X0268798Y0112113D01*
X0268704Y0111814D02*
X0269079Y0111814D01*
X0269079Y0111516D02*
X0263050Y0111516D01*
X0263050Y0111357D02*
X0262671Y0110978D01*
X0262135Y0110978D01*
X0261756Y0111357D01*
X0261756Y0111893D01*
X0262135Y0112272D01*
X0262671Y0112272D01*
X0263050Y0111893D01*
X0263050Y0111357D01*
X0262910Y0111217D02*
X0269376Y0111217D01*
X0270114Y0110919D02*
X0248997Y0110919D01*
X0248782Y0110704D02*
X0249229Y0111151D01*
X0249229Y0111784D01*
X0248782Y0112231D01*
X0248150Y0112231D01*
X0247703Y0111784D01*
X0247703Y0111151D01*
X0248150Y0110704D01*
X0248782Y0110704D01*
X0249229Y0111217D02*
X0254022Y0111217D01*
X0253882Y0111516D02*
X0249229Y0111516D01*
X0249198Y0111814D02*
X0253882Y0111814D01*
X0254102Y0112113D02*
X0248900Y0112113D01*
X0248032Y0112113D02*
X0238562Y0112113D01*
X0238562Y0111908D02*
X0238183Y0111529D01*
X0237647Y0111529D01*
X0237268Y0111908D01*
X0237268Y0112444D01*
X0237647Y0112823D01*
X0238183Y0112823D01*
X0238562Y0112444D01*
X0238562Y0111908D01*
X0238468Y0111814D02*
X0247733Y0111814D01*
X0247703Y0111516D02*
X0228876Y0111516D01*
X0229136Y0111814D02*
X0237362Y0111814D01*
X0237268Y0112113D02*
X0229474Y0112113D01*
X0229855Y0112411D02*
X0237268Y0112411D01*
X0237534Y0112710D02*
X0230237Y0112710D01*
X0230618Y0113008D02*
X0252307Y0113008D01*
X0252307Y0112932D02*
X0252307Y0113468D01*
X0252686Y0113847D01*
X0253222Y0113847D01*
X0253601Y0113468D01*
X0253601Y0112932D01*
X0253222Y0112553D01*
X0252686Y0112553D01*
X0252307Y0112932D01*
X0252529Y0112710D02*
X0238296Y0112710D01*
X0238562Y0112411D02*
X0267504Y0112411D01*
X0267504Y0112113D02*
X0262830Y0112113D01*
X0263050Y0111814D02*
X0267598Y0111814D01*
X0267770Y0112710D02*
X0264403Y0112710D01*
X0263553Y0112710D02*
X0259678Y0112710D01*
X0259521Y0112553D02*
X0259900Y0112932D01*
X0259900Y0113468D01*
X0259521Y0113847D01*
X0258985Y0113847D01*
X0258606Y0113468D01*
X0258606Y0112932D01*
X0258985Y0112553D01*
X0259521Y0112553D01*
X0259900Y0113008D02*
X0263331Y0113008D01*
X0263331Y0113307D02*
X0259900Y0113307D01*
X0259762Y0113605D02*
X0262657Y0113605D01*
X0262543Y0113904D02*
X0231762Y0113904D01*
X0231381Y0113605D02*
X0252445Y0113605D01*
X0252307Y0113307D02*
X0230999Y0113307D01*
X0232144Y0114203D02*
X0254205Y0114203D01*
X0253907Y0114501D02*
X0248398Y0114501D01*
X0248297Y0114400D02*
X0248676Y0114779D01*
X0248676Y0115315D01*
X0248297Y0115694D01*
X0247761Y0115694D01*
X0247382Y0115315D01*
X0247382Y0114779D01*
X0247761Y0114400D01*
X0248297Y0114400D01*
X0248676Y0114800D02*
X0253882Y0114800D01*
X0253918Y0115098D02*
X0248676Y0115098D01*
X0248594Y0115397D02*
X0254217Y0115397D01*
X0254261Y0115702D02*
X0254797Y0115702D01*
X0255176Y0116081D01*
X0255176Y0116617D01*
X0254797Y0116996D01*
X0254388Y0116996D01*
X0254388Y0117277D01*
X0254797Y0117277D01*
X0255176Y0117656D01*
X0255176Y0118192D01*
X0254797Y0118571D01*
X0254261Y0118571D01*
X0253882Y0118192D01*
X0253882Y0117788D01*
X0253474Y0117788D01*
X0253095Y0117409D01*
X0253095Y0116996D01*
X0252686Y0116996D01*
X0252307Y0116617D01*
X0252307Y0116081D01*
X0252686Y0115702D01*
X0253222Y0115702D01*
X0253601Y0116081D01*
X0253601Y0116494D01*
X0253882Y0116494D01*
X0253882Y0116081D01*
X0254261Y0115702D01*
X0253970Y0115994D02*
X0253513Y0115994D01*
X0253601Y0116292D02*
X0253882Y0116292D01*
X0254388Y0117188D02*
X0272448Y0117188D01*
X0271867Y0117486D02*
X0262880Y0117486D01*
X0263050Y0117656D02*
X0262671Y0117277D01*
X0262135Y0117277D01*
X0261756Y0117656D01*
X0261756Y0118192D01*
X0262135Y0118571D01*
X0262671Y0118571D01*
X0263050Y0118192D01*
X0263050Y0117656D01*
X0263050Y0117785D02*
X0271285Y0117785D01*
X0270704Y0118083D02*
X0263050Y0118083D01*
X0262860Y0118382D02*
X0270122Y0118382D01*
X0269541Y0118680D02*
X0243921Y0118680D01*
X0243759Y0118519D02*
X0244138Y0118897D01*
X0244138Y0119433D01*
X0243759Y0119812D01*
X0243223Y0119812D01*
X0242844Y0119433D01*
X0242844Y0118897D01*
X0243223Y0118519D01*
X0243759Y0118519D01*
X0244138Y0118979D02*
X0268959Y0118979D01*
X0268378Y0119277D02*
X0244138Y0119277D01*
X0243996Y0119576D02*
X0245707Y0119576D01*
X0245615Y0119667D02*
X0245994Y0119288D01*
X0246530Y0119288D01*
X0246909Y0119667D01*
X0246909Y0120203D01*
X0246530Y0120582D01*
X0245994Y0120582D01*
X0245615Y0120203D01*
X0245615Y0119667D01*
X0245615Y0119874D02*
X0242546Y0119874D01*
X0242987Y0119576D02*
X0241526Y0119576D01*
X0240680Y0119277D02*
X0242844Y0119277D01*
X0242844Y0118979D02*
X0240098Y0118979D01*
X0239517Y0118680D02*
X0243062Y0118680D01*
X0242828Y0118413D02*
X0242292Y0118413D01*
X0241914Y0118035D01*
X0241914Y0117499D01*
X0242292Y0117120D01*
X0242828Y0117120D01*
X0243207Y0117499D01*
X0243207Y0118035D01*
X0242828Y0118413D01*
X0242860Y0118382D02*
X0249365Y0118382D01*
X0249236Y0118253D02*
X0249236Y0117718D01*
X0249615Y0117339D01*
X0250151Y0117339D01*
X0250530Y0117718D01*
X0250530Y0118253D01*
X0250151Y0118632D01*
X0249615Y0118632D01*
X0249236Y0118253D01*
X0249236Y0118083D02*
X0243159Y0118083D01*
X0243207Y0117785D02*
X0249236Y0117785D01*
X0249468Y0117486D02*
X0243195Y0117486D01*
X0242896Y0117188D02*
X0253095Y0117188D01*
X0253172Y0117486D02*
X0250299Y0117486D01*
X0250530Y0117785D02*
X0253471Y0117785D01*
X0253882Y0118083D02*
X0250530Y0118083D01*
X0250402Y0118382D02*
X0254072Y0118382D01*
X0254986Y0118382D02*
X0255647Y0118382D01*
X0255836Y0118571D02*
X0255457Y0118192D01*
X0255457Y0117656D01*
X0255836Y0117277D01*
X0256372Y0117277D01*
X0256751Y0117656D01*
X0256751Y0118192D01*
X0256372Y0118571D01*
X0255836Y0118571D01*
X0255457Y0118083D02*
X0255176Y0118083D01*
X0255176Y0117785D02*
X0255457Y0117785D01*
X0255627Y0117486D02*
X0255006Y0117486D01*
X0254904Y0116889D02*
X0257304Y0116889D01*
X0257411Y0116996D02*
X0257032Y0116617D01*
X0257032Y0116081D01*
X0257411Y0115702D01*
X0257946Y0115702D01*
X0258325Y0116081D01*
X0258325Y0116617D01*
X0257946Y0116996D01*
X0257411Y0116996D01*
X0257032Y0116591D02*
X0255176Y0116591D01*
X0255176Y0116292D02*
X0257032Y0116292D01*
X0257119Y0115994D02*
X0255088Y0115994D01*
X0256581Y0117486D02*
X0258776Y0117486D01*
X0258606Y0117656D02*
X0258985Y0117277D01*
X0259521Y0117277D01*
X0259900Y0117656D01*
X0259900Y0118192D01*
X0259521Y0118571D01*
X0258985Y0118571D01*
X0258606Y0118192D01*
X0258606Y0117656D01*
X0258606Y0117785D02*
X0256751Y0117785D01*
X0256751Y0118083D02*
X0258606Y0118083D01*
X0258796Y0118382D02*
X0256561Y0118382D01*
X0256135Y0120112D02*
X0256514Y0120491D01*
X0256514Y0121027D01*
X0256135Y0121406D01*
X0255600Y0121406D01*
X0255221Y0121027D01*
X0255221Y0120491D01*
X0255600Y0120112D01*
X0256135Y0120112D01*
X0256196Y0120173D02*
X0257428Y0120173D01*
X0257489Y0120112D02*
X0258025Y0120112D01*
X0258404Y0120491D01*
X0258404Y0121027D01*
X0258025Y0121406D01*
X0257489Y0121406D01*
X0257110Y0121027D01*
X0257110Y0120491D01*
X0257489Y0120112D01*
X0257130Y0120471D02*
X0256495Y0120471D01*
X0256514Y0120770D02*
X0257110Y0120770D01*
X0257152Y0121068D02*
X0256473Y0121068D01*
X0256174Y0121367D02*
X0257451Y0121367D01*
X0258064Y0121367D02*
X0261300Y0121367D01*
X0262430Y0121068D02*
X0259701Y0121068D01*
X0259821Y0120948D02*
X0259443Y0121327D01*
X0258907Y0121327D01*
X0258528Y0120948D01*
X0258528Y0120412D01*
X0258907Y0120033D01*
X0259443Y0120033D01*
X0259821Y0120412D01*
X0259821Y0120948D01*
X0259821Y0120770D02*
X0263450Y0120770D01*
X0264471Y0120471D02*
X0259821Y0120471D01*
X0259582Y0120173D02*
X0265491Y0120173D01*
X0266512Y0119874D02*
X0246909Y0119874D01*
X0246909Y0120173D02*
X0248960Y0120173D01*
X0249057Y0120076D02*
X0249593Y0120076D01*
X0249972Y0120455D01*
X0249972Y0120990D01*
X0249593Y0121369D01*
X0249057Y0121369D01*
X0248678Y0120990D01*
X0248678Y0120455D01*
X0249057Y0120076D01*
X0248678Y0120471D02*
X0246641Y0120471D01*
X0246628Y0121068D02*
X0248756Y0121068D01*
X0248678Y0120770D02*
X0245608Y0120770D01*
X0245883Y0120471D02*
X0244587Y0120471D01*
X0243567Y0120173D02*
X0245615Y0120173D01*
X0246817Y0119576D02*
X0267532Y0119576D01*
X0265820Y0116996D02*
X0265285Y0116996D01*
X0264906Y0116617D01*
X0264906Y0116081D01*
X0265285Y0115702D01*
X0265820Y0115702D01*
X0266199Y0116081D01*
X0266199Y0116617D01*
X0265820Y0116996D01*
X0265927Y0116889D02*
X0273029Y0116889D01*
X0273611Y0116591D02*
X0266199Y0116591D01*
X0266199Y0116292D02*
X0274192Y0116292D01*
X0274558Y0115994D02*
X0266112Y0115994D01*
X0264993Y0115994D02*
X0264537Y0115994D01*
X0264625Y0116081D02*
X0264246Y0115702D01*
X0263710Y0115702D01*
X0263331Y0116081D01*
X0263331Y0116617D01*
X0263710Y0116996D01*
X0264246Y0116996D01*
X0264625Y0116617D01*
X0264625Y0116081D01*
X0264625Y0116292D02*
X0264906Y0116292D01*
X0264906Y0116591D02*
X0264625Y0116591D01*
X0264353Y0116889D02*
X0265178Y0116889D01*
X0263603Y0116889D02*
X0262778Y0116889D01*
X0262671Y0116996D02*
X0262135Y0116996D01*
X0261756Y0116617D01*
X0261756Y0116081D01*
X0262135Y0115702D01*
X0262671Y0115702D01*
X0263050Y0116081D01*
X0263050Y0116617D01*
X0262671Y0116996D01*
X0263050Y0116591D02*
X0263331Y0116591D01*
X0263331Y0116292D02*
X0263050Y0116292D01*
X0262962Y0115994D02*
X0263419Y0115994D01*
X0261844Y0115994D02*
X0259812Y0115994D01*
X0259900Y0116081D02*
X0259521Y0115702D01*
X0258985Y0115702D01*
X0258606Y0116081D01*
X0258606Y0116617D01*
X0258985Y0116996D01*
X0259521Y0116996D01*
X0259900Y0116617D01*
X0259900Y0116081D01*
X0259900Y0116292D02*
X0261756Y0116292D01*
X0261756Y0116591D02*
X0259900Y0116591D01*
X0259628Y0116889D02*
X0262028Y0116889D01*
X0261926Y0117486D02*
X0261305Y0117486D01*
X0261475Y0117656D02*
X0261096Y0117277D01*
X0260560Y0117277D01*
X0260181Y0117656D01*
X0260181Y0118192D01*
X0260560Y0118571D01*
X0261096Y0118571D01*
X0261475Y0118192D01*
X0261475Y0117656D01*
X0261475Y0117785D02*
X0261756Y0117785D01*
X0261756Y0118083D02*
X0261475Y0118083D01*
X0261285Y0118382D02*
X0261946Y0118382D01*
X0260371Y0118382D02*
X0259711Y0118382D01*
X0259900Y0118083D02*
X0260181Y0118083D01*
X0260181Y0117785D02*
X0259900Y0117785D01*
X0259730Y0117486D02*
X0260351Y0117486D01*
X0258878Y0116889D02*
X0258053Y0116889D01*
X0258325Y0116591D02*
X0258606Y0116591D01*
X0258606Y0116292D02*
X0258325Y0116292D01*
X0258238Y0115994D02*
X0258694Y0115994D01*
X0258744Y0113605D02*
X0258187Y0113605D01*
X0258325Y0113307D02*
X0258606Y0113307D01*
X0258606Y0113008D02*
X0258325Y0113008D01*
X0258104Y0112710D02*
X0258828Y0112710D01*
X0258105Y0112113D02*
X0260401Y0112113D01*
X0260560Y0112272D02*
X0260181Y0111893D01*
X0260181Y0111357D01*
X0260560Y0110978D01*
X0261096Y0110978D01*
X0261475Y0111357D01*
X0261475Y0111893D01*
X0261096Y0112272D01*
X0260560Y0112272D01*
X0260181Y0111814D02*
X0258325Y0111814D01*
X0258325Y0111516D02*
X0260181Y0111516D01*
X0260321Y0111217D02*
X0258186Y0111217D01*
X0261335Y0111217D02*
X0261896Y0111217D01*
X0261756Y0111516D02*
X0261475Y0111516D01*
X0261475Y0111814D02*
X0261756Y0111814D01*
X0261976Y0112113D02*
X0261255Y0112113D01*
X0261171Y0114203D02*
X0262543Y0114203D01*
X0262790Y0114501D02*
X0261469Y0114501D01*
X0262747Y0110620D02*
X0263633Y0110620D01*
X0263710Y0110697D02*
X0263331Y0110318D01*
X0263331Y0109782D01*
X0263710Y0109403D01*
X0264246Y0109403D01*
X0264625Y0109782D01*
X0264625Y0110318D01*
X0264246Y0110697D01*
X0263710Y0110697D01*
X0263335Y0110322D02*
X0263046Y0110322D01*
X0263050Y0110023D02*
X0263331Y0110023D01*
X0263388Y0109725D02*
X0262992Y0109725D01*
X0262694Y0109426D02*
X0263687Y0109426D01*
X0264269Y0109426D02*
X0267230Y0109426D01*
X0267253Y0109403D02*
X0267789Y0109403D01*
X0268168Y0109782D01*
X0268168Y0110318D01*
X0267789Y0110697D01*
X0267253Y0110697D01*
X0266874Y0110318D01*
X0266874Y0109782D01*
X0267253Y0109403D01*
X0266931Y0109725D02*
X0264567Y0109725D01*
X0264625Y0110023D02*
X0266874Y0110023D01*
X0266878Y0110322D02*
X0264621Y0110322D01*
X0264322Y0110620D02*
X0267177Y0110620D01*
X0267866Y0110620D02*
X0270413Y0110620D01*
X0270975Y0110620D02*
X0279539Y0110620D01*
X0279694Y0110776D02*
X0279315Y0110397D01*
X0279315Y0109861D01*
X0279694Y0109482D01*
X0280230Y0109482D01*
X0280609Y0109861D01*
X0280609Y0110397D01*
X0280230Y0110776D01*
X0279694Y0110776D01*
X0279315Y0110322D02*
X0268164Y0110322D01*
X0268168Y0110023D02*
X0279315Y0110023D01*
X0279451Y0109725D02*
X0268111Y0109725D01*
X0267812Y0109426D02*
X0282004Y0109426D01*
X0281743Y0109725D02*
X0280473Y0109725D01*
X0280609Y0110023D02*
X0281483Y0110023D01*
X0281223Y0110322D02*
X0280609Y0110322D01*
X0280385Y0110620D02*
X0280963Y0110620D01*
X0280702Y0110919D02*
X0271273Y0110919D01*
X0271341Y0111217D02*
X0280442Y0111217D01*
X0280182Y0111516D02*
X0271341Y0111516D01*
X0271048Y0111814D02*
X0279922Y0111814D01*
X0279584Y0112113D02*
X0270310Y0112113D01*
X0270011Y0112411D02*
X0279203Y0112411D01*
X0274259Y0115695D02*
X0236316Y0115695D01*
X0236316Y0115721D02*
X0235869Y0116168D01*
X0235236Y0116168D01*
X0234789Y0115721D01*
X0234789Y0115088D01*
X0235236Y0114641D01*
X0235869Y0114641D01*
X0236316Y0115088D01*
X0236316Y0115721D01*
X0236316Y0115397D02*
X0247464Y0115397D01*
X0247382Y0115098D02*
X0236316Y0115098D01*
X0236027Y0114800D02*
X0247382Y0114800D01*
X0247660Y0114501D02*
X0232525Y0114501D01*
X0232907Y0114800D02*
X0235078Y0114800D01*
X0234789Y0115098D02*
X0233288Y0115098D01*
X0233670Y0115397D02*
X0234789Y0115397D01*
X0234789Y0115695D02*
X0234051Y0115695D01*
X0234432Y0115994D02*
X0235062Y0115994D01*
X0234866Y0116292D02*
X0252307Y0116292D01*
X0252307Y0116591D02*
X0235447Y0116591D01*
X0236028Y0116889D02*
X0252579Y0116889D01*
X0252395Y0115994D02*
X0236043Y0115994D01*
X0236610Y0117188D02*
X0242225Y0117188D01*
X0241926Y0117486D02*
X0237191Y0117486D01*
X0237773Y0117785D02*
X0241914Y0117785D01*
X0241962Y0118083D02*
X0238354Y0118083D01*
X0238936Y0118382D02*
X0242261Y0118382D01*
X0247758Y0121367D02*
X0249054Y0121367D01*
X0249595Y0121367D02*
X0253199Y0121367D01*
X0253237Y0121406D02*
X0252858Y0121027D01*
X0252858Y0120491D01*
X0253237Y0120112D01*
X0253773Y0120112D01*
X0254152Y0120491D01*
X0254152Y0121027D01*
X0253773Y0121406D01*
X0253237Y0121406D01*
X0252900Y0121068D02*
X0252142Y0121068D01*
X0252262Y0120948D02*
X0251883Y0121327D01*
X0251348Y0121327D01*
X0250969Y0120948D01*
X0250969Y0120412D01*
X0251348Y0120033D01*
X0251883Y0120033D01*
X0252262Y0120412D01*
X0252262Y0120948D01*
X0252262Y0120770D02*
X0252858Y0120770D01*
X0252878Y0120471D02*
X0252262Y0120471D01*
X0252023Y0120173D02*
X0253177Y0120173D01*
X0253834Y0120173D02*
X0255539Y0120173D01*
X0255240Y0120471D02*
X0254133Y0120471D01*
X0254152Y0120770D02*
X0255221Y0120770D01*
X0255262Y0121068D02*
X0254111Y0121068D01*
X0253812Y0121367D02*
X0255561Y0121367D01*
X0255025Y0121964D02*
X0254033Y0121964D01*
X0251089Y0121068D02*
X0249894Y0121068D01*
X0249972Y0120770D02*
X0250969Y0120770D01*
X0250969Y0120471D02*
X0249972Y0120471D01*
X0249690Y0120173D02*
X0251208Y0120173D01*
X0250895Y0121665D02*
X0258162Y0121665D01*
X0258362Y0121068D02*
X0258648Y0121068D01*
X0258528Y0120770D02*
X0258404Y0120770D01*
X0258385Y0120471D02*
X0258528Y0120471D01*
X0258767Y0120173D02*
X0258086Y0120173D01*
X0254020Y0113605D02*
X0253463Y0113605D01*
X0253601Y0113307D02*
X0253882Y0113307D01*
X0253882Y0113008D02*
X0253601Y0113008D01*
X0253379Y0112710D02*
X0254104Y0112710D01*
X0247935Y0110919D02*
X0228355Y0110919D01*
X0228616Y0111217D02*
X0247703Y0111217D01*
X0236300Y0102859D02*
X0222433Y0102859D01*
X0222259Y0102561D02*
X0236001Y0102561D01*
X0235911Y0102262D02*
X0222085Y0102262D01*
X0221911Y0101964D02*
X0235911Y0101964D01*
X0235970Y0101665D02*
X0221738Y0101665D01*
X0221564Y0101367D02*
X0236269Y0101367D01*
X0240386Y0099874D02*
X0247701Y0099874D01*
X0247870Y0100172D02*
X0240684Y0100172D01*
X0240688Y0100471D02*
X0248548Y0100471D01*
X0248370Y0100770D02*
X0240630Y0100770D01*
X0254803Y0089725D02*
X0258722Y0089725D01*
X0258606Y0089426D02*
X0254505Y0089426D01*
X0259656Y0088829D02*
X0279866Y0088829D01*
X0280165Y0089128D02*
X0259900Y0089128D01*
X0260732Y0080172D02*
X0236109Y0080172D01*
X0236357Y0079874D02*
X0260877Y0079874D01*
X0264763Y0077187D02*
X0280835Y0077187D01*
X0280660Y0076889D02*
X0264861Y0076889D01*
X0264861Y0076590D02*
X0280660Y0076590D01*
X0280845Y0076292D02*
X0264599Y0076292D01*
X0264586Y0075396D02*
X0287262Y0075396D01*
X0287356Y0075098D02*
X0264861Y0075098D01*
X0264530Y0073648D02*
X0263898Y0073648D01*
X0263451Y0073201D01*
X0263451Y0072568D01*
X0263898Y0072121D01*
X0264530Y0072121D01*
X0264977Y0072568D01*
X0264977Y0073201D01*
X0264530Y0073648D01*
X0264573Y0073605D02*
X0289230Y0073605D01*
X0289126Y0073306D02*
X0264872Y0073306D01*
X0264977Y0073008D02*
X0289021Y0073008D01*
X0288916Y0072709D02*
X0264977Y0072709D01*
X0264820Y0072411D02*
X0283605Y0072411D01*
X0283740Y0072546D02*
X0283293Y0072099D01*
X0283293Y0071466D01*
X0283740Y0071019D01*
X0284373Y0071019D01*
X0284820Y0071466D01*
X0284820Y0072099D01*
X0284373Y0072546D01*
X0283740Y0072546D01*
X0283307Y0072112D02*
X0220351Y0072112D01*
X0220456Y0071814D02*
X0283293Y0071814D01*
X0283293Y0071515D02*
X0264530Y0071515D01*
X0264482Y0071563D02*
X0263946Y0071563D01*
X0263567Y0071184D01*
X0263567Y0070648D01*
X0263946Y0070269D01*
X0264482Y0070269D01*
X0264861Y0070648D01*
X0264861Y0071184D01*
X0264482Y0071563D01*
X0264828Y0071217D02*
X0283542Y0071217D01*
X0284571Y0071217D02*
X0288392Y0071217D01*
X0288497Y0071515D02*
X0284820Y0071515D01*
X0284820Y0071814D02*
X0288602Y0071814D01*
X0288707Y0072112D02*
X0284806Y0072112D01*
X0284507Y0072411D02*
X0288811Y0072411D01*
X0288287Y0070918D02*
X0264861Y0070918D01*
X0264832Y0070620D02*
X0288183Y0070620D01*
X0288078Y0070321D02*
X0264534Y0070321D01*
X0263894Y0070321D02*
X0251317Y0070321D01*
X0251317Y0070176D02*
X0250939Y0069797D01*
X0250403Y0069797D01*
X0250024Y0070176D01*
X0250024Y0070712D01*
X0250403Y0071091D01*
X0250939Y0071091D01*
X0251317Y0070712D01*
X0251317Y0070176D01*
X0251165Y0070023D02*
X0252800Y0070023D01*
X0252622Y0069846D02*
X0252622Y0069310D01*
X0253001Y0068931D01*
X0253537Y0068931D01*
X0253916Y0069310D01*
X0253916Y0069846D01*
X0253537Y0070224D01*
X0253001Y0070224D01*
X0252622Y0069846D01*
X0252622Y0069724D02*
X0221216Y0069724D01*
X0221085Y0070023D02*
X0246319Y0070023D01*
X0246466Y0069876D02*
X0246087Y0070255D01*
X0246087Y0070790D01*
X0246466Y0071169D01*
X0247002Y0071169D01*
X0247380Y0070790D01*
X0247380Y0070255D01*
X0247002Y0069876D01*
X0246466Y0069876D01*
X0246087Y0070321D02*
X0220980Y0070321D01*
X0220875Y0070620D02*
X0246087Y0070620D01*
X0246215Y0070918D02*
X0220770Y0070918D01*
X0220666Y0071217D02*
X0263600Y0071217D01*
X0263567Y0070918D02*
X0251111Y0070918D01*
X0251317Y0070620D02*
X0263596Y0070620D01*
X0263898Y0071515D02*
X0220561Y0071515D01*
X0220247Y0072411D02*
X0251332Y0072411D01*
X0251505Y0072238D02*
X0252041Y0072238D01*
X0252420Y0072617D01*
X0252420Y0073153D01*
X0252041Y0073532D01*
X0251505Y0073532D01*
X0251126Y0073153D01*
X0251126Y0072617D01*
X0251505Y0072238D01*
X0251126Y0072709D02*
X0220142Y0072709D01*
X0220037Y0073008D02*
X0251126Y0073008D01*
X0251280Y0073306D02*
X0219932Y0073306D01*
X0219827Y0073605D02*
X0263855Y0073605D01*
X0263556Y0073306D02*
X0252266Y0073306D01*
X0252420Y0073008D02*
X0263451Y0073008D01*
X0263451Y0072709D02*
X0252420Y0072709D01*
X0252214Y0072411D02*
X0263608Y0072411D01*
X0263946Y0069595D02*
X0263567Y0069216D01*
X0263567Y0068680D01*
X0263946Y0068301D01*
X0264482Y0068301D01*
X0264861Y0068680D01*
X0264861Y0069216D01*
X0264482Y0069595D01*
X0263946Y0069595D01*
X0263777Y0069426D02*
X0253916Y0069426D01*
X0253916Y0069724D02*
X0287842Y0069724D01*
X0287973Y0070023D02*
X0253739Y0070023D01*
X0253734Y0069127D02*
X0255920Y0069127D01*
X0255993Y0069201D02*
X0255614Y0068822D01*
X0255614Y0068286D01*
X0255993Y0067907D01*
X0256529Y0067907D01*
X0256908Y0068286D01*
X0256908Y0068822D01*
X0256529Y0069201D01*
X0255993Y0069201D01*
X0255621Y0068829D02*
X0247662Y0068829D01*
X0247497Y0068994D02*
X0246961Y0068994D01*
X0246582Y0068615D01*
X0246582Y0068079D01*
X0246961Y0067700D01*
X0247497Y0067700D01*
X0247876Y0068079D01*
X0247876Y0068615D01*
X0247497Y0068994D01*
X0247876Y0068530D02*
X0255614Y0068530D01*
X0255669Y0068232D02*
X0247876Y0068232D01*
X0247730Y0067933D02*
X0255967Y0067933D01*
X0256555Y0067933D02*
X0286799Y0067933D01*
X0286625Y0067635D02*
X0279872Y0067635D01*
X0279705Y0067802D02*
X0278959Y0067802D01*
X0278431Y0067274D01*
X0278431Y0066527D01*
X0278959Y0065999D01*
X0279705Y0065999D01*
X0280233Y0066527D01*
X0280233Y0067274D01*
X0279705Y0067802D01*
X0279488Y0068106D02*
X0280121Y0068106D01*
X0280568Y0068553D01*
X0280568Y0069185D01*
X0280121Y0069632D01*
X0279488Y0069632D01*
X0279041Y0069185D01*
X0279041Y0068553D01*
X0279488Y0068106D01*
X0279362Y0068232D02*
X0256854Y0068232D01*
X0256908Y0068530D02*
X0263717Y0068530D01*
X0263567Y0068829D02*
X0256901Y0068829D01*
X0256603Y0069127D02*
X0263567Y0069127D01*
X0264651Y0069426D02*
X0279282Y0069426D01*
X0279041Y0069127D02*
X0264861Y0069127D01*
X0264861Y0068829D02*
X0279041Y0068829D01*
X0279064Y0068530D02*
X0264711Y0068530D01*
X0264482Y0067626D02*
X0263946Y0067626D01*
X0263567Y0067247D01*
X0263567Y0066711D01*
X0263946Y0066332D01*
X0264482Y0066332D01*
X0264861Y0066711D01*
X0264861Y0067247D01*
X0264482Y0067626D01*
X0264772Y0067336D02*
X0278493Y0067336D01*
X0278431Y0067038D02*
X0264861Y0067038D01*
X0264861Y0066739D02*
X0278431Y0066739D01*
X0278517Y0066441D02*
X0264590Y0066441D01*
X0264285Y0066051D02*
X0264664Y0065672D01*
X0264664Y0065136D01*
X0264285Y0064758D01*
X0263749Y0064758D01*
X0263370Y0065136D01*
X0263370Y0065672D01*
X0263749Y0066051D01*
X0264285Y0066051D01*
X0264493Y0065844D02*
X0285582Y0065844D01*
X0285756Y0066142D02*
X0279848Y0066142D01*
X0280147Y0066441D02*
X0285930Y0066441D01*
X0286103Y0066739D02*
X0280233Y0066739D01*
X0280233Y0067038D02*
X0286277Y0067038D01*
X0286451Y0067336D02*
X0280171Y0067336D01*
X0280247Y0068232D02*
X0286973Y0068232D01*
X0287146Y0068530D02*
X0280545Y0068530D01*
X0280568Y0068829D02*
X0287320Y0068829D01*
X0287494Y0069127D02*
X0280568Y0069127D01*
X0280327Y0069426D02*
X0287668Y0069426D01*
X0285408Y0065545D02*
X0264664Y0065545D01*
X0264664Y0065247D02*
X0268249Y0065247D01*
X0268110Y0065109D02*
X0268110Y0064573D01*
X0268377Y0064306D01*
X0268064Y0064306D01*
X0267685Y0063927D01*
X0267685Y0063392D01*
X0268064Y0063013D01*
X0268600Y0063013D01*
X0268979Y0063392D01*
X0268979Y0063927D01*
X0268713Y0064194D01*
X0269025Y0064194D01*
X0269404Y0064573D01*
X0269404Y0065109D01*
X0269025Y0065487D01*
X0268489Y0065487D01*
X0268110Y0065109D01*
X0268110Y0064948D02*
X0266942Y0064948D01*
X0266797Y0065094D02*
X0266261Y0065094D01*
X0265882Y0064715D01*
X0265882Y0064179D01*
X0266261Y0063800D01*
X0266797Y0063800D01*
X0267176Y0064179D01*
X0267176Y0064715D01*
X0266797Y0065094D01*
X0267176Y0064650D02*
X0268110Y0064650D01*
X0268332Y0064351D02*
X0267176Y0064351D01*
X0267049Y0064053D02*
X0267810Y0064053D01*
X0267685Y0063754D02*
X0258590Y0063754D01*
X0258576Y0063768D02*
X0258041Y0063768D01*
X0257662Y0063389D01*
X0257662Y0062853D01*
X0258041Y0062474D01*
X0258576Y0062474D01*
X0258955Y0062853D01*
X0258955Y0063389D01*
X0258576Y0063768D01*
X0258889Y0063456D02*
X0267685Y0063456D01*
X0267920Y0063157D02*
X0258955Y0063157D01*
X0258955Y0062859D02*
X0264081Y0062859D01*
X0264243Y0063021D02*
X0263864Y0062642D01*
X0263864Y0062106D01*
X0264243Y0061727D01*
X0264779Y0061727D01*
X0265158Y0062106D01*
X0265158Y0062642D01*
X0264779Y0063021D01*
X0264243Y0063021D01*
X0263864Y0062560D02*
X0258662Y0062560D01*
X0257955Y0062560D02*
X0246071Y0062560D01*
X0245947Y0062436D02*
X0246395Y0062883D01*
X0246395Y0063516D01*
X0245947Y0063963D01*
X0245315Y0063963D01*
X0244868Y0063516D01*
X0244868Y0062883D01*
X0245315Y0062436D01*
X0245947Y0062436D01*
X0246370Y0062859D02*
X0257662Y0062859D01*
X0257662Y0063157D02*
X0246395Y0063157D01*
X0246395Y0063456D02*
X0257728Y0063456D01*
X0258027Y0063754D02*
X0246156Y0063754D01*
X0245106Y0063754D02*
X0228046Y0063754D01*
X0228048Y0063752D02*
X0227601Y0064199D01*
X0226969Y0064199D01*
X0226521Y0063752D01*
X0226521Y0063120D01*
X0226969Y0062673D01*
X0227601Y0062673D01*
X0228048Y0063120D01*
X0228048Y0063752D01*
X0228048Y0063456D02*
X0244868Y0063456D01*
X0244868Y0063157D02*
X0228048Y0063157D01*
X0227787Y0062859D02*
X0244893Y0062859D01*
X0245191Y0062560D02*
X0225753Y0062560D01*
X0226013Y0062262D02*
X0263864Y0062262D01*
X0264007Y0061963D02*
X0226273Y0061963D01*
X0226534Y0061665D02*
X0282524Y0061665D01*
X0282784Y0061963D02*
X0265015Y0061963D01*
X0265158Y0062262D02*
X0283045Y0062262D01*
X0283305Y0062560D02*
X0265158Y0062560D01*
X0264941Y0062859D02*
X0283565Y0062859D01*
X0283825Y0063157D02*
X0268744Y0063157D01*
X0268979Y0063456D02*
X0284086Y0063456D01*
X0284346Y0063754D02*
X0268979Y0063754D01*
X0268854Y0064053D02*
X0284539Y0064053D01*
X0284713Y0064351D02*
X0270589Y0064351D01*
X0270431Y0064194D02*
X0270810Y0064573D01*
X0270810Y0065109D01*
X0270431Y0065487D01*
X0269896Y0065487D01*
X0269517Y0065109D01*
X0269517Y0064573D01*
X0269896Y0064194D01*
X0270431Y0064194D01*
X0270810Y0064650D02*
X0284887Y0064650D01*
X0285060Y0064948D02*
X0270810Y0064948D01*
X0270672Y0065247D02*
X0285234Y0065247D01*
X0278816Y0066142D02*
X0259359Y0066142D01*
X0259466Y0066036D02*
X0259018Y0066483D01*
X0258386Y0066483D01*
X0257939Y0066036D01*
X0257939Y0065403D01*
X0258386Y0064956D01*
X0259018Y0064956D01*
X0259466Y0065403D01*
X0259466Y0066036D01*
X0259466Y0065844D02*
X0263542Y0065844D01*
X0263370Y0065545D02*
X0259466Y0065545D01*
X0259309Y0065247D02*
X0263370Y0065247D01*
X0263559Y0064948D02*
X0223997Y0064948D01*
X0223922Y0065247D02*
X0223824Y0065247D01*
X0223608Y0065844D02*
X0223476Y0065844D01*
X0223608Y0066142D02*
X0223302Y0066142D01*
X0223128Y0066441D02*
X0223856Y0066441D01*
X0222954Y0066739D02*
X0263567Y0066739D01*
X0263567Y0067038D02*
X0222781Y0067038D01*
X0222607Y0067336D02*
X0263656Y0067336D01*
X0263838Y0066441D02*
X0259060Y0066441D01*
X0258344Y0066441D02*
X0224887Y0066441D01*
X0225135Y0066142D02*
X0258045Y0066142D01*
X0257939Y0065844D02*
X0225135Y0065844D01*
X0225119Y0065545D02*
X0257939Y0065545D01*
X0258095Y0065247D02*
X0224821Y0065247D01*
X0224171Y0064650D02*
X0265882Y0064650D01*
X0265882Y0064351D02*
X0224345Y0064351D01*
X0224519Y0064053D02*
X0226822Y0064053D01*
X0226523Y0063754D02*
X0224712Y0063754D01*
X0224972Y0063456D02*
X0226521Y0063456D01*
X0226521Y0063157D02*
X0225232Y0063157D01*
X0225493Y0062859D02*
X0226783Y0062859D01*
X0226794Y0061366D02*
X0282264Y0061366D01*
X0282004Y0061067D02*
X0227054Y0061067D01*
X0227314Y0060769D02*
X0259294Y0060769D01*
X0259379Y0060854D02*
X0259000Y0060475D01*
X0259000Y0059940D01*
X0259379Y0059561D01*
X0259915Y0059561D01*
X0260294Y0059940D01*
X0260294Y0060475D01*
X0259915Y0060854D01*
X0259379Y0060854D01*
X0259000Y0060470D02*
X0227575Y0060470D01*
X0227835Y0060172D02*
X0259000Y0060172D01*
X0259066Y0059873D02*
X0228095Y0059873D01*
X0228355Y0059575D02*
X0259365Y0059575D01*
X0259379Y0059280D02*
X0259000Y0058901D01*
X0259000Y0058365D01*
X0259379Y0057986D01*
X0259915Y0057986D01*
X0260294Y0058365D01*
X0260294Y0058901D01*
X0259915Y0059280D01*
X0259379Y0059280D01*
X0259376Y0059276D02*
X0228616Y0059276D01*
X0228876Y0058978D02*
X0259077Y0058978D01*
X0259000Y0058679D02*
X0229136Y0058679D01*
X0229474Y0058381D02*
X0259000Y0058381D01*
X0259283Y0058082D02*
X0229855Y0058082D01*
X0230237Y0057784D02*
X0233951Y0057784D01*
X0234061Y0057894D02*
X0233682Y0057515D01*
X0233682Y0056979D01*
X0234061Y0056600D01*
X0234597Y0056600D01*
X0234976Y0056979D01*
X0234976Y0057515D01*
X0234597Y0057894D01*
X0234061Y0057894D01*
X0233682Y0057485D02*
X0230618Y0057485D01*
X0230999Y0057187D02*
X0233682Y0057187D01*
X0233773Y0056888D02*
X0231381Y0056888D01*
X0231762Y0056590D02*
X0240247Y0056590D01*
X0240247Y0056354D02*
X0240247Y0056890D01*
X0240626Y0057269D01*
X0241162Y0057269D01*
X0241541Y0056890D01*
X0241541Y0056354D01*
X0241162Y0055975D01*
X0240626Y0055975D01*
X0240247Y0056354D01*
X0240310Y0056291D02*
X0232144Y0056291D01*
X0232525Y0055993D02*
X0240608Y0055993D01*
X0241180Y0055993D02*
X0276533Y0055993D01*
X0276914Y0056291D02*
X0241479Y0056291D01*
X0241541Y0056590D02*
X0277295Y0056590D01*
X0277677Y0056888D02*
X0241541Y0056888D01*
X0241244Y0057187D02*
X0278058Y0057187D01*
X0278440Y0057485D02*
X0234976Y0057485D01*
X0234976Y0057187D02*
X0240545Y0057187D01*
X0240247Y0056888D02*
X0234885Y0056888D01*
X0234707Y0057784D02*
X0278821Y0057784D01*
X0279203Y0058082D02*
X0260011Y0058082D01*
X0260294Y0058381D02*
X0261305Y0058381D01*
X0261425Y0058261D02*
X0261046Y0058640D01*
X0261046Y0059176D01*
X0261425Y0059555D01*
X0261961Y0059555D01*
X0262340Y0059176D01*
X0262340Y0058640D01*
X0261961Y0058261D01*
X0261425Y0058261D01*
X0261046Y0058679D02*
X0260294Y0058679D01*
X0260217Y0058978D02*
X0261046Y0058978D01*
X0261146Y0059276D02*
X0259918Y0059276D01*
X0259929Y0059575D02*
X0272622Y0059575D01*
X0272622Y0059546D02*
X0273001Y0059167D01*
X0273537Y0059167D01*
X0273916Y0059546D01*
X0273916Y0060082D01*
X0273537Y0060461D01*
X0273001Y0060461D01*
X0272622Y0060082D01*
X0272622Y0059546D01*
X0272622Y0059873D02*
X0268100Y0059873D01*
X0268245Y0060018D02*
X0267866Y0059639D01*
X0267330Y0059639D01*
X0266951Y0060018D01*
X0266951Y0060554D01*
X0267330Y0060933D01*
X0267866Y0060933D01*
X0268245Y0060554D01*
X0268245Y0060018D01*
X0268245Y0060172D02*
X0272712Y0060172D01*
X0272892Y0059276D02*
X0262239Y0059276D01*
X0262340Y0058978D02*
X0280182Y0058978D01*
X0280442Y0059276D02*
X0273646Y0059276D01*
X0273916Y0059575D02*
X0280702Y0059575D01*
X0280963Y0059873D02*
X0273916Y0059873D01*
X0273826Y0060172D02*
X0281223Y0060172D01*
X0281483Y0060470D02*
X0268245Y0060470D01*
X0268030Y0060769D02*
X0281743Y0060769D01*
X0279922Y0058679D02*
X0262340Y0058679D01*
X0262080Y0058381D02*
X0279584Y0058381D01*
X0276151Y0055694D02*
X0238146Y0055694D01*
X0238104Y0055736D02*
X0237568Y0055736D01*
X0237189Y0055357D01*
X0237189Y0054821D01*
X0237568Y0054443D01*
X0238104Y0054443D01*
X0238483Y0054821D01*
X0238483Y0055357D01*
X0238104Y0055736D01*
X0238444Y0055396D02*
X0275770Y0055396D01*
X0275388Y0055097D02*
X0238483Y0055097D01*
X0238460Y0054799D02*
X0275007Y0054799D01*
X0274625Y0054500D02*
X0238162Y0054500D01*
X0237510Y0054500D02*
X0234432Y0054500D01*
X0234051Y0054799D02*
X0237212Y0054799D01*
X0237189Y0055097D02*
X0233670Y0055097D01*
X0233288Y0055396D02*
X0237228Y0055396D01*
X0237526Y0055694D02*
X0232907Y0055694D01*
X0234866Y0054202D02*
X0274192Y0054202D01*
X0273611Y0053903D02*
X0235447Y0053903D01*
X0236028Y0053605D02*
X0273029Y0053605D01*
X0272448Y0053306D02*
X0236610Y0053306D01*
X0237191Y0053008D02*
X0245575Y0053008D01*
X0245661Y0053094D02*
X0245282Y0052715D01*
X0245282Y0052179D01*
X0245661Y0051800D01*
X0246197Y0051800D01*
X0246576Y0052179D01*
X0246576Y0052715D01*
X0246197Y0053094D01*
X0245661Y0053094D01*
X0245282Y0052709D02*
X0237773Y0052709D01*
X0238354Y0052411D02*
X0245282Y0052411D01*
X0245349Y0052112D02*
X0238936Y0052112D01*
X0239517Y0051814D02*
X0245647Y0051814D01*
X0246210Y0051814D02*
X0257632Y0051814D01*
X0257661Y0051784D02*
X0258197Y0051784D01*
X0258576Y0052163D01*
X0258576Y0052699D01*
X0258197Y0053078D01*
X0257661Y0053078D01*
X0257282Y0052699D01*
X0257282Y0052163D01*
X0257661Y0051784D01*
X0257333Y0052112D02*
X0246509Y0052112D01*
X0246576Y0052411D02*
X0257282Y0052411D01*
X0257292Y0052709D02*
X0246576Y0052709D01*
X0246283Y0053008D02*
X0257591Y0053008D01*
X0258267Y0053008D02*
X0271867Y0053008D01*
X0271285Y0052709D02*
X0258566Y0052709D01*
X0258576Y0052411D02*
X0270704Y0052411D01*
X0270122Y0052112D02*
X0258525Y0052112D01*
X0258226Y0051814D02*
X0269541Y0051814D01*
X0268959Y0051515D02*
X0240098Y0051515D01*
X0240680Y0051217D02*
X0268378Y0051217D01*
X0267532Y0050918D02*
X0256820Y0050918D01*
X0256726Y0051012D02*
X0256190Y0051012D01*
X0255811Y0050633D01*
X0255811Y0050097D01*
X0256190Y0049718D01*
X0256726Y0049718D01*
X0257105Y0050097D01*
X0257105Y0050633D01*
X0256726Y0051012D01*
X0257105Y0050620D02*
X0266512Y0050620D01*
X0265491Y0050321D02*
X0261715Y0050321D01*
X0262014Y0050023D02*
X0264471Y0050023D01*
X0263450Y0049724D02*
X0262143Y0049724D01*
X0262143Y0049426D02*
X0262430Y0049426D01*
X0261043Y0050321D02*
X0257105Y0050321D01*
X0257030Y0050023D02*
X0260745Y0050023D01*
X0260616Y0049724D02*
X0256732Y0049724D01*
X0256184Y0049724D02*
X0254521Y0049724D01*
X0254576Y0049779D02*
X0254197Y0049400D01*
X0253661Y0049400D01*
X0253282Y0049779D01*
X0253282Y0050315D01*
X0253661Y0050694D01*
X0254197Y0050694D01*
X0254576Y0050315D01*
X0254576Y0049779D01*
X0254576Y0050023D02*
X0255886Y0050023D01*
X0255811Y0050321D02*
X0254570Y0050321D01*
X0254271Y0050620D02*
X0255811Y0050620D01*
X0256096Y0050918D02*
X0250769Y0050918D01*
X0250597Y0051091D02*
X0250061Y0051091D01*
X0249682Y0050712D01*
X0249682Y0050176D01*
X0250061Y0049797D01*
X0250597Y0049797D01*
X0250976Y0050176D01*
X0250976Y0050712D01*
X0250597Y0051091D01*
X0250976Y0050620D02*
X0253587Y0050620D01*
X0253288Y0050321D02*
X0250976Y0050321D01*
X0250823Y0050023D02*
X0253282Y0050023D01*
X0253337Y0049724D02*
X0248312Y0049724D01*
X0248312Y0050023D02*
X0249835Y0050023D01*
X0249682Y0050321D02*
X0248053Y0050321D01*
X0247277Y0050321D02*
X0245471Y0050321D01*
X0245471Y0050023D02*
X0247019Y0050023D01*
X0247019Y0049724D02*
X0245607Y0049724D01*
X0245214Y0050620D02*
X0249682Y0050620D01*
X0249888Y0050918D02*
X0241526Y0050918D01*
X0242546Y0050620D02*
X0244434Y0050620D01*
X0244177Y0050321D02*
X0243567Y0050321D01*
X0246628Y0049426D02*
X0247119Y0049426D01*
X0247758Y0049127D02*
X0250689Y0049127D01*
X0250966Y0049426D02*
X0248211Y0049426D01*
X0251707Y0049426D02*
X0253635Y0049426D01*
X0254222Y0049426D02*
X0260616Y0049426D01*
X0260750Y0049127D02*
X0251983Y0049127D01*
X0251983Y0048829D02*
X0258163Y0048829D01*
X0255025Y0048530D02*
X0254033Y0048530D01*
X0260228Y0059873D02*
X0267096Y0059873D01*
X0266951Y0060172D02*
X0260294Y0060172D01*
X0260294Y0060470D02*
X0266951Y0060470D01*
X0267166Y0060769D02*
X0260000Y0060769D01*
X0266008Y0064053D02*
X0227748Y0064053D01*
X0222433Y0067635D02*
X0278792Y0067635D01*
X0269655Y0065247D02*
X0269266Y0065247D01*
X0269404Y0064948D02*
X0269517Y0064948D01*
X0269517Y0064650D02*
X0269404Y0064650D01*
X0269183Y0064351D02*
X0269738Y0064351D01*
X0266115Y0064948D02*
X0264476Y0064948D01*
X0252805Y0069127D02*
X0221564Y0069127D01*
X0221738Y0068829D02*
X0246796Y0068829D01*
X0246582Y0068530D02*
X0221911Y0068530D01*
X0222085Y0068232D02*
X0246582Y0068232D01*
X0246728Y0067933D02*
X0222259Y0067933D01*
X0221390Y0069426D02*
X0252622Y0069426D01*
X0250177Y0070023D02*
X0247149Y0070023D01*
X0247380Y0070321D02*
X0250024Y0070321D01*
X0250024Y0070620D02*
X0247380Y0070620D01*
X0247253Y0070918D02*
X0250230Y0070918D01*
X0234396Y0081068D02*
X0226481Y0081068D01*
X0226552Y0080769D02*
X0234118Y0080769D01*
X0221323Y0082859D02*
X0278083Y0082859D01*
X0277785Y0083157D02*
X0221323Y0083157D01*
X0221323Y0083456D02*
X0277722Y0083456D01*
X0277722Y0083754D02*
X0221323Y0083754D01*
X0221323Y0084053D02*
X0277808Y0084053D01*
X0278107Y0084351D02*
X0221323Y0084351D01*
X0221323Y0085247D02*
X0283410Y0085247D01*
X0283214Y0085545D02*
X0221323Y0085545D01*
X0221323Y0085844D02*
X0283214Y0085844D01*
X0283282Y0086142D02*
X0221323Y0086142D01*
X0219723Y0073903D02*
X0289335Y0073903D01*
X0273820Y0078978D02*
X0272954Y0078978D01*
X0273050Y0079073D02*
X0272671Y0078695D01*
X0272135Y0078695D01*
X0271756Y0079073D01*
X0271756Y0079609D01*
X0272135Y0079988D01*
X0272671Y0079988D01*
X0273050Y0079609D01*
X0273050Y0079073D01*
X0273050Y0079277D02*
X0273725Y0079277D01*
X0273725Y0079575D02*
X0273050Y0079575D01*
X0272785Y0079874D02*
X0273989Y0079874D01*
X0272020Y0079874D02*
X0270896Y0079874D01*
X0270781Y0079988D02*
X0270245Y0079988D01*
X0269866Y0079609D01*
X0269866Y0079073D01*
X0270245Y0078695D01*
X0270781Y0078695D01*
X0271160Y0079073D01*
X0271160Y0079609D01*
X0270781Y0079988D01*
X0271160Y0079575D02*
X0271756Y0079575D01*
X0271756Y0079277D02*
X0271160Y0079277D01*
X0271065Y0078978D02*
X0271851Y0078978D01*
X0269962Y0078978D02*
X0269017Y0078978D01*
X0269113Y0079277D02*
X0269866Y0079277D01*
X0269866Y0079575D02*
X0269113Y0079575D01*
X0268848Y0079874D02*
X0270131Y0079874D01*
X0267062Y0104949D02*
X0266090Y0104949D01*
X0266199Y0105247D02*
X0266874Y0105247D01*
X0266874Y0105546D02*
X0266199Y0105546D01*
X0265949Y0105844D02*
X0267046Y0105844D01*
X0268685Y0107934D02*
X0264351Y0107934D01*
X0264625Y0108232D02*
X0268962Y0108232D01*
X0269702Y0108232D02*
X0270615Y0108232D01*
X0270339Y0107934D02*
X0269979Y0107934D01*
X0269979Y0107635D02*
X0270339Y0107635D01*
X0270422Y0107337D02*
X0269896Y0107337D01*
D13*
X0278387Y0103593D03*
X0286970Y0098239D03*
X0278072Y0091231D03*
X0284371Y0088318D03*
X0283978Y0085759D03*
X0283348Y0083357D03*
X0286734Y0078082D03*
X0286970Y0072097D03*
X0286970Y0069971D03*
X0284056Y0071782D03*
X0279805Y0068869D03*
X0276182Y0059578D03*
X0265080Y0050601D03*
X0261379Y0049578D03*
X0241773Y0051310D03*
X0234135Y0055956D03*
X0241143Y0058869D03*
X0245631Y0063200D03*
X0250119Y0065483D03*
X0253427Y0065719D03*
X0258702Y0065719D03*
X0257285Y0069499D03*
X0264214Y0072885D03*
X0257127Y0075483D03*
X0252954Y0076979D03*
X0248860Y0075011D03*
X0248151Y0073908D03*
X0256261Y0081231D03*
X0255946Y0088475D03*
X0245316Y0100286D03*
X0245159Y0102255D03*
X0246261Y0108711D03*
X0248466Y0111467D03*
X0239883Y0118397D03*
X0235553Y0115404D03*
X0229726Y0109184D03*
X0224923Y0105011D03*
X0224529Y0091861D03*
X0220828Y0091467D03*
X0230434Y0092097D03*
X0225789Y0080680D03*
X0227521Y0077767D03*
X0224371Y0065877D03*
X0227285Y0063436D03*
D14*
X0224608Y0077294D03*
X0222324Y0090050D03*
X0236655Y0097767D03*
X0236812Y0102097D03*
X0239096Y0103515D03*
X0250749Y0093200D03*
X0260513Y0098830D03*
X0278623Y0083593D03*
X0287600Y0095680D03*
X0279332Y0066900D03*
D15*
X0221930Y0099656D03*
D16*
X0266497Y0099026D03*
M02*
