G75*
%MOIN*%
%OFA0B0*%
%FSLAX25Y25*%
%IPPOS*%
%LPD*%
%AMOC8*
5,1,8,0,0,1.08239X$1,22.5*
%
%ADD10C,0.00300*%
%ADD11C,0.01184*%
%ADD12R,0.02956X0.05318*%
%ADD13R,0.01775X0.01381*%
%ADD14R,0.01381X0.01775*%
%ADD15R,0.01184X0.02169*%
%ADD16R,0.02169X0.01184*%
%ADD17R,0.01381X0.02169*%
%ADD18R,0.02169X0.01381*%
%ADD19R,0.11224X0.11224*%
%ADD20R,0.12405X0.12405*%
%ADD21R,0.01184X0.02562*%
%ADD22R,0.02562X0.01184*%
%ADD23C,0.00200*%
%ADD24R,0.05318X0.02956*%
%ADD25R,0.02956X0.01184*%
%ADD26R,0.06696X0.09570*%
%ADD27R,0.02129X0.01145*%
%ADD28R,0.02562X0.01775*%
%ADD29R,0.06106X0.10043*%
%ADD30R,0.02956X0.03743*%
%ADD31R,0.01775X0.02562*%
%ADD32C,0.00592*%
%ADD33C,0.00494*%
%ADD34C,0.00691*%
%ADD35C,0.01106*%
%ADD36C,0.01775*%
%ADD37C,0.02562*%
%ADD38C,0.00987*%
D10*
X0055505Y0084632D02*
X0055628Y0084539D01*
X0055770Y0084480D01*
X0055923Y0084460D01*
X0060647Y0084460D01*
X0060800Y0084480D01*
X0060943Y0084539D01*
X0061065Y0084632D01*
X0061159Y0084755D01*
X0061218Y0084897D01*
X0061238Y0085050D01*
X0061238Y0088397D01*
X0055923Y0088397D01*
X0055770Y0088376D01*
X0055628Y0088317D01*
X0055505Y0088224D01*
X0055411Y0088101D01*
X0055352Y0087959D01*
X0055332Y0087806D01*
X0055332Y0085050D01*
X0055352Y0084897D01*
X0055411Y0084755D01*
X0055505Y0084632D01*
X0055492Y0084650D02*
X0061078Y0084650D01*
X0061224Y0084948D02*
X0055346Y0084948D01*
X0055332Y0085247D02*
X0061238Y0085247D01*
X0061238Y0085545D02*
X0055332Y0085545D01*
X0055332Y0085844D02*
X0061238Y0085844D01*
X0061238Y0086142D02*
X0055332Y0086142D01*
X0055332Y0086441D02*
X0061238Y0086441D01*
X0061238Y0086739D02*
X0055332Y0086739D01*
X0055332Y0087038D02*
X0061238Y0087038D01*
X0061238Y0087336D02*
X0055332Y0087336D01*
X0055332Y0087635D02*
X0061238Y0087635D01*
X0061238Y0087934D02*
X0055349Y0087934D01*
X0055516Y0088232D02*
X0061238Y0088232D01*
X0062439Y0087959D02*
X0062419Y0087806D01*
X0062419Y0085050D01*
X0062439Y0084897D01*
X0062498Y0084755D01*
X0062592Y0084632D01*
X0062714Y0084539D01*
X0062857Y0084480D01*
X0063010Y0084460D01*
X0067734Y0084460D01*
X0067887Y0084480D01*
X0068029Y0084539D01*
X0068152Y0084632D01*
X0068245Y0084755D01*
X0068304Y0084897D01*
X0068324Y0085050D01*
X0068324Y0087806D01*
X0068304Y0087959D01*
X0068245Y0088101D01*
X0068152Y0088224D01*
X0068029Y0088317D01*
X0067887Y0088376D01*
X0067734Y0088397D01*
X0063010Y0088397D01*
X0062857Y0088376D01*
X0062714Y0088317D01*
X0062592Y0088224D01*
X0062498Y0088101D01*
X0062439Y0087959D01*
X0062436Y0087934D02*
X0068308Y0087934D01*
X0068324Y0087635D02*
X0062419Y0087635D01*
X0062419Y0087336D02*
X0068324Y0087336D01*
X0068324Y0087038D02*
X0062419Y0087038D01*
X0062419Y0086739D02*
X0068324Y0086739D01*
X0068324Y0086441D02*
X0062419Y0086441D01*
X0062419Y0086142D02*
X0068324Y0086142D01*
X0068324Y0085844D02*
X0062419Y0085844D01*
X0062419Y0085545D02*
X0068324Y0085545D01*
X0068324Y0085247D02*
X0062419Y0085247D01*
X0062432Y0084948D02*
X0068311Y0084948D01*
X0068165Y0084650D02*
X0062579Y0084650D01*
X0062603Y0088232D02*
X0068140Y0088232D01*
D11*
X0063758Y0072491D03*
X0063758Y0070523D03*
X0063758Y0068554D03*
X0061789Y0068554D03*
X0061789Y0070523D03*
X0061789Y0072491D03*
X0059821Y0072491D03*
X0059821Y0070523D03*
X0059821Y0068554D03*
X0045332Y0059026D03*
X0045332Y0057058D03*
X0045332Y0055089D03*
X0043364Y0055089D03*
X0041395Y0055089D03*
X0041395Y0057058D03*
X0041395Y0059026D03*
X0043364Y0059026D03*
X0043364Y0057058D03*
X0076435Y0109460D03*
X0078403Y0109460D03*
X0078403Y0111428D03*
X0076435Y0111428D03*
X0076435Y0113397D03*
X0078403Y0113397D03*
X0080372Y0113397D03*
X0080372Y0111428D03*
X0080372Y0109460D03*
X0053593Y0113074D03*
X0053593Y0115042D03*
X0053593Y0117011D03*
X0051624Y0117011D03*
X0051624Y0115042D03*
X0051624Y0113074D03*
X0049656Y0113074D03*
X0049656Y0115042D03*
X0049656Y0117011D03*
D12*
X0049742Y0092963D03*
X0050175Y0081271D03*
X0058049Y0081271D03*
X0057616Y0092963D03*
X0073128Y0088633D03*
X0081002Y0088633D03*
X0080490Y0104853D03*
X0088364Y0104853D03*
X0075096Y0055483D03*
X0067222Y0055483D03*
D13*
X0078403Y0054774D03*
X0078403Y0057137D03*
X0060923Y0075326D03*
X0060923Y0077688D03*
X0058876Y0077688D03*
X0058876Y0075326D03*
X0049899Y0064302D03*
X0049899Y0061940D03*
X0038324Y0059341D03*
X0038324Y0056979D03*
X0029506Y0101074D03*
X0029506Y0103436D03*
X0048738Y0107673D03*
X0050726Y0107688D03*
X0050726Y0110050D03*
X0048738Y0110035D03*
X0070687Y0086034D03*
X0070687Y0083672D03*
X0075411Y0104066D03*
X0075411Y0106428D03*
X0077773Y0106428D03*
X0077773Y0104066D03*
X0083285Y0110247D03*
X0083285Y0112609D03*
X0075057Y0115916D03*
X0075057Y0118278D03*
D14*
X0076671Y0116034D03*
X0079033Y0116034D03*
X0083088Y0108633D03*
X0085450Y0108633D03*
X0070687Y0089774D03*
X0068324Y0089774D03*
X0065254Y0083160D03*
X0065254Y0081231D03*
X0065254Y0079315D03*
X0065254Y0077124D03*
X0065254Y0075208D03*
X0062891Y0075208D03*
X0062891Y0077124D03*
X0062891Y0079315D03*
X0062891Y0081231D03*
X0062891Y0083160D03*
X0052065Y0085680D03*
X0049702Y0085680D03*
X0045726Y0090286D03*
X0043364Y0090286D03*
X0052104Y0103672D03*
X0052104Y0105562D03*
X0054466Y0105562D03*
X0054466Y0103672D03*
X0035962Y0109420D03*
X0034860Y0107452D03*
X0033600Y0109420D03*
X0032498Y0107452D03*
X0030017Y0098239D03*
X0027655Y0098239D03*
X0027655Y0095641D03*
X0027655Y0093278D03*
X0030017Y0093278D03*
X0030017Y0095641D03*
X0049427Y0074145D03*
X0051789Y0074145D03*
X0060490Y0065759D03*
X0062852Y0065759D03*
X0066947Y0059853D03*
X0069309Y0059853D03*
X0071080Y0059853D03*
X0073443Y0059853D03*
X0075214Y0059656D03*
X0077576Y0059656D03*
G36*
X0079445Y0056253D02*
X0080549Y0057080D01*
X0081611Y0055661D01*
X0080507Y0054834D01*
X0079445Y0056253D01*
G37*
G36*
X0081337Y0057668D02*
X0082441Y0058495D01*
X0083503Y0057076D01*
X0082399Y0056249D01*
X0081337Y0057668D01*
G37*
X0088679Y0067373D03*
X0088679Y0069578D03*
X0088679Y0071782D03*
X0088679Y0073987D03*
X0088679Y0076192D03*
X0088679Y0078397D03*
X0091041Y0078397D03*
X0091041Y0076192D03*
X0091041Y0073987D03*
X0091041Y0071782D03*
X0091041Y0069578D03*
X0091041Y0067373D03*
X0080608Y0083948D03*
X0078246Y0083948D03*
X0076356Y0083948D03*
X0073994Y0083948D03*
X0069269Y0050995D03*
X0066907Y0050995D03*
X0050293Y0054302D03*
X0050214Y0056428D03*
X0047852Y0056428D03*
X0047931Y0054302D03*
X0048324Y0052412D03*
X0045962Y0052412D03*
X0047852Y0058869D03*
X0050214Y0058869D03*
D15*
X0054301Y0063512D03*
X0055876Y0063512D03*
X0057451Y0063512D03*
X0059026Y0063512D03*
X0060600Y0063512D03*
X0062175Y0063512D03*
X0062175Y0052095D03*
X0060600Y0052095D03*
X0059026Y0052095D03*
X0057451Y0052095D03*
X0055876Y0052095D03*
X0054301Y0052095D03*
D16*
X0052530Y0053866D03*
X0052530Y0055441D03*
X0052530Y0057016D03*
X0052530Y0058591D03*
X0052530Y0060165D03*
X0052530Y0061740D03*
X0063947Y0061740D03*
X0063947Y0060165D03*
X0063947Y0058591D03*
X0063947Y0057016D03*
X0063947Y0055441D03*
X0063947Y0053866D03*
D17*
X0044297Y0061968D03*
X0042328Y0061968D03*
X0040360Y0061968D03*
X0038391Y0061968D03*
X0036423Y0061968D03*
X0034454Y0061968D03*
X0034454Y0077716D03*
X0036423Y0077716D03*
X0038391Y0077716D03*
X0040360Y0077716D03*
X0042328Y0077716D03*
X0044297Y0077716D03*
D18*
X0047249Y0074763D03*
X0047249Y0072795D03*
X0047249Y0070826D03*
X0047249Y0068858D03*
X0047249Y0066889D03*
X0047249Y0064921D03*
X0031501Y0064921D03*
X0031501Y0066889D03*
X0031501Y0068858D03*
X0031501Y0070826D03*
X0031501Y0072795D03*
X0031501Y0074763D03*
D19*
X0039375Y0069842D03*
D20*
X0076928Y0071823D03*
D21*
X0075944Y0081272D03*
X0073976Y0081272D03*
X0072007Y0081272D03*
X0070039Y0081272D03*
X0077913Y0081272D03*
X0079881Y0081272D03*
X0081850Y0081272D03*
X0083818Y0081272D03*
X0083818Y0062374D03*
X0081850Y0062374D03*
X0079881Y0062374D03*
X0077913Y0062374D03*
X0075944Y0062374D03*
X0073976Y0062374D03*
X0072007Y0062374D03*
X0070039Y0062374D03*
D22*
X0067480Y0064933D03*
X0067480Y0066902D03*
X0067480Y0068870D03*
X0067480Y0070839D03*
X0067480Y0072807D03*
X0067480Y0074776D03*
X0067480Y0076744D03*
X0067480Y0078713D03*
X0086377Y0078713D03*
X0086377Y0076744D03*
X0086377Y0074776D03*
X0086377Y0072807D03*
X0086377Y0070839D03*
X0086377Y0068870D03*
X0086377Y0066902D03*
X0086377Y0064933D03*
D23*
X0089328Y0092786D02*
X0089958Y0092786D01*
X0089958Y0093377D01*
X0089328Y0094007D01*
X0089328Y0092786D01*
X0089328Y0092790D02*
X0089958Y0092790D01*
X0089958Y0092989D02*
X0089328Y0092989D01*
X0089328Y0093187D02*
X0089958Y0093187D01*
X0089949Y0093386D02*
X0089328Y0093386D01*
X0089328Y0093584D02*
X0089751Y0093584D01*
X0089552Y0093783D02*
X0089328Y0093783D01*
X0089328Y0093981D02*
X0089354Y0093981D01*
X0090099Y0094577D02*
X0091747Y0094577D01*
X0091945Y0094775D02*
X0089901Y0094775D01*
X0089702Y0094974D02*
X0092144Y0094974D01*
X0092259Y0095089D02*
X0090923Y0093753D01*
X0089587Y0095089D01*
X0090923Y0096426D01*
X0092259Y0095089D01*
X0092176Y0095172D02*
X0089670Y0095172D01*
X0089868Y0095371D02*
X0091978Y0095371D01*
X0091779Y0095570D02*
X0090067Y0095570D01*
X0090265Y0095768D02*
X0091581Y0095768D01*
X0091382Y0095967D02*
X0090464Y0095967D01*
X0090662Y0096165D02*
X0091184Y0096165D01*
X0090985Y0096364D02*
X0090861Y0096364D01*
X0089958Y0096802D02*
X0089328Y0096172D01*
X0089328Y0097393D01*
X0089958Y0097393D01*
X0089958Y0096802D01*
X0089917Y0096761D02*
X0089328Y0096761D01*
X0089328Y0096959D02*
X0089958Y0096959D01*
X0089958Y0097158D02*
X0089328Y0097158D01*
X0089328Y0097356D02*
X0089958Y0097356D01*
X0089718Y0096562D02*
X0089328Y0096562D01*
X0089328Y0096364D02*
X0089520Y0096364D01*
X0090298Y0094378D02*
X0091548Y0094378D01*
X0091350Y0094180D02*
X0090496Y0094180D01*
X0090695Y0093981D02*
X0091151Y0093981D01*
X0090953Y0093783D02*
X0090893Y0093783D01*
X0091887Y0093377D02*
X0091887Y0092786D01*
X0092517Y0092786D01*
X0092517Y0094007D01*
X0091887Y0093377D01*
X0091897Y0093386D02*
X0092517Y0093386D01*
X0092517Y0093584D02*
X0092095Y0093584D01*
X0092294Y0093783D02*
X0092517Y0093783D01*
X0092517Y0093981D02*
X0092492Y0093981D01*
X0092517Y0093187D02*
X0091887Y0093187D01*
X0091887Y0092989D02*
X0092517Y0092989D01*
X0092517Y0092790D02*
X0091887Y0092790D01*
X0092517Y0096172D02*
X0091887Y0096802D01*
X0091887Y0097393D01*
X0092517Y0097393D01*
X0092517Y0096172D01*
X0092517Y0096364D02*
X0092326Y0096364D01*
X0092517Y0096562D02*
X0092127Y0096562D01*
X0091929Y0096761D02*
X0092517Y0096761D01*
X0092517Y0096959D02*
X0091887Y0096959D01*
X0091887Y0097158D02*
X0092517Y0097158D01*
X0092517Y0097356D02*
X0091887Y0097356D01*
X0074880Y0096684D02*
X0074880Y0095463D01*
X0074250Y0096093D01*
X0074250Y0096684D01*
X0074880Y0096684D01*
X0074880Y0096562D02*
X0074250Y0096562D01*
X0074250Y0096364D02*
X0074880Y0096364D01*
X0074880Y0096165D02*
X0074250Y0096165D01*
X0074377Y0095967D02*
X0074880Y0095967D01*
X0074880Y0095768D02*
X0074575Y0095768D01*
X0074774Y0095570D02*
X0074880Y0095570D01*
X0074227Y0094775D02*
X0072344Y0094775D01*
X0072145Y0094577D02*
X0074425Y0094577D01*
X0074621Y0094381D02*
X0073285Y0095717D01*
X0071949Y0094381D01*
X0073285Y0093045D01*
X0074621Y0094381D01*
X0074619Y0094378D02*
X0071951Y0094378D01*
X0072150Y0094180D02*
X0074421Y0094180D01*
X0074222Y0093981D02*
X0072348Y0093981D01*
X0072547Y0093783D02*
X0074023Y0093783D01*
X0073825Y0093584D02*
X0072745Y0093584D01*
X0072944Y0093386D02*
X0073626Y0093386D01*
X0073428Y0093187D02*
X0073142Y0093187D01*
X0072321Y0092668D02*
X0072321Y0092078D01*
X0071691Y0092078D01*
X0071691Y0093298D01*
X0072321Y0092668D01*
X0072321Y0092592D02*
X0071691Y0092592D01*
X0071691Y0092790D02*
X0072198Y0092790D01*
X0072000Y0092989D02*
X0071691Y0092989D01*
X0071691Y0093187D02*
X0071801Y0093187D01*
X0071691Y0092393D02*
X0072321Y0092393D01*
X0072321Y0092195D02*
X0071691Y0092195D01*
X0072542Y0094974D02*
X0074028Y0094974D01*
X0073830Y0095172D02*
X0072741Y0095172D01*
X0072939Y0095371D02*
X0073631Y0095371D01*
X0073433Y0095570D02*
X0073138Y0095570D01*
X0072321Y0096093D02*
X0072321Y0096684D01*
X0071691Y0096684D01*
X0071691Y0095463D01*
X0072321Y0096093D01*
X0072321Y0096165D02*
X0071691Y0096165D01*
X0071691Y0095967D02*
X0072194Y0095967D01*
X0071995Y0095768D02*
X0071691Y0095768D01*
X0071691Y0095570D02*
X0071797Y0095570D01*
X0071691Y0096364D02*
X0072321Y0096364D01*
X0072321Y0096562D02*
X0071691Y0096562D01*
X0074880Y0093298D02*
X0074250Y0092668D01*
X0074250Y0092078D01*
X0074880Y0092078D01*
X0074880Y0093298D01*
X0074880Y0093187D02*
X0074769Y0093187D01*
X0074880Y0092989D02*
X0074570Y0092989D01*
X0074372Y0092790D02*
X0074880Y0092790D01*
X0074880Y0092592D02*
X0074250Y0092592D01*
X0074250Y0092393D02*
X0074880Y0092393D01*
X0074880Y0092195D02*
X0074250Y0092195D01*
X0067321Y0092195D02*
X0066691Y0092195D01*
X0066691Y0092393D02*
X0067321Y0092393D01*
X0067321Y0092592D02*
X0066851Y0092592D01*
X0066691Y0092432D02*
X0067321Y0093062D01*
X0067321Y0091841D01*
X0066691Y0091841D01*
X0066691Y0092432D01*
X0066691Y0091996D02*
X0067321Y0091996D01*
X0067321Y0092790D02*
X0067049Y0092790D01*
X0067248Y0092989D02*
X0067321Y0092989D01*
X0066701Y0093783D02*
X0064751Y0093783D01*
X0064553Y0093981D02*
X0066899Y0093981D01*
X0067062Y0094145D02*
X0065726Y0095481D01*
X0064390Y0094145D01*
X0065726Y0092808D01*
X0067062Y0094145D01*
X0067027Y0094180D02*
X0064425Y0094180D01*
X0064624Y0094378D02*
X0066828Y0094378D01*
X0066630Y0094577D02*
X0064822Y0094577D01*
X0065021Y0094775D02*
X0066431Y0094775D01*
X0066233Y0094974D02*
X0065219Y0094974D01*
X0065418Y0095172D02*
X0066034Y0095172D01*
X0065836Y0095371D02*
X0065616Y0095371D01*
X0064761Y0095857D02*
X0064761Y0096448D01*
X0064132Y0096448D01*
X0064132Y0095227D01*
X0064761Y0095857D01*
X0064761Y0095967D02*
X0064132Y0095967D01*
X0064132Y0096165D02*
X0064761Y0096165D01*
X0064761Y0096364D02*
X0064132Y0096364D01*
X0064132Y0095768D02*
X0064672Y0095768D01*
X0064474Y0095570D02*
X0064132Y0095570D01*
X0064132Y0095371D02*
X0064275Y0095371D01*
X0064950Y0093584D02*
X0066502Y0093584D01*
X0066304Y0093386D02*
X0065148Y0093386D01*
X0065347Y0093187D02*
X0066105Y0093187D01*
X0065907Y0092989D02*
X0065546Y0092989D01*
X0064761Y0092432D02*
X0064761Y0091841D01*
X0064132Y0091841D01*
X0064132Y0093062D01*
X0064761Y0092432D01*
X0064761Y0092393D02*
X0064132Y0092393D01*
X0064132Y0092195D02*
X0064761Y0092195D01*
X0064761Y0091996D02*
X0064132Y0091996D01*
X0064132Y0092592D02*
X0064602Y0092592D01*
X0064403Y0092790D02*
X0064132Y0092790D01*
X0064132Y0092989D02*
X0064205Y0092989D01*
X0066780Y0095768D02*
X0067321Y0095768D01*
X0067321Y0095570D02*
X0066978Y0095570D01*
X0067177Y0095371D02*
X0067321Y0095371D01*
X0067321Y0095227D02*
X0066691Y0095857D01*
X0066691Y0096448D01*
X0067321Y0096448D01*
X0067321Y0095227D01*
X0067321Y0095967D02*
X0066691Y0095967D01*
X0066691Y0096165D02*
X0067321Y0096165D01*
X0067321Y0096364D02*
X0066691Y0096364D01*
D24*
X0048246Y0097373D03*
X0048246Y0105247D03*
X0044860Y0108397D03*
X0044860Y0116271D03*
D25*
X0043521Y0103593D03*
X0043521Y0101625D03*
X0043521Y0099656D03*
X0043521Y0097688D03*
X0043521Y0095719D03*
X0032498Y0095719D03*
X0032498Y0097688D03*
X0032498Y0099656D03*
X0032498Y0101625D03*
X0032498Y0103593D03*
D26*
X0038010Y0099656D03*
D27*
X0040844Y0108456D03*
X0040844Y0111015D03*
D28*
X0038246Y0111835D03*
X0038246Y0107635D03*
X0030136Y0090103D03*
X0030136Y0085903D03*
X0030136Y0083252D03*
X0030136Y0079052D03*
X0061789Y0091651D03*
X0061789Y0095851D03*
X0069584Y0096087D03*
X0069584Y0091887D03*
X0083915Y0089867D03*
X0084151Y0092517D03*
X0086907Y0089867D03*
X0087458Y0092517D03*
X0090254Y0090221D03*
X0090254Y0086021D03*
X0086907Y0085667D03*
X0083915Y0085667D03*
X0084151Y0096717D03*
X0087458Y0096717D03*
D29*
X0045332Y0083987D03*
X0035096Y0083987D03*
D30*
X0033206Y0091074D03*
X0039663Y0091074D03*
D31*
X0049768Y0076585D03*
X0053968Y0076585D03*
X0052130Y0098082D03*
X0056330Y0098082D03*
X0061894Y0098357D03*
X0066094Y0098357D03*
X0069532Y0098357D03*
X0073732Y0098357D03*
X0076618Y0098082D03*
X0080818Y0098082D03*
X0086539Y0099145D03*
X0090739Y0099145D03*
X0090346Y0083357D03*
X0086146Y0083357D03*
X0084440Y0059578D03*
X0080240Y0059578D03*
D32*
X0055549Y0066604D02*
X0055549Y0067196D01*
X0057321Y0067196D01*
X0057321Y0066604D01*
X0055549Y0066604D01*
X0055549Y0067195D02*
X0057321Y0067195D01*
X0055549Y0071329D02*
X0055549Y0071921D01*
X0057321Y0071921D01*
X0057321Y0071329D01*
X0055549Y0071329D01*
X0055549Y0071920D02*
X0057321Y0071920D01*
X0051809Y0071921D02*
X0051809Y0071329D01*
X0050037Y0071329D01*
X0050037Y0071921D01*
X0051809Y0071921D01*
X0051809Y0071920D02*
X0050037Y0071920D01*
X0051809Y0067196D02*
X0051809Y0066604D01*
X0050037Y0066604D01*
X0050037Y0067196D01*
X0051809Y0067196D01*
X0051809Y0067195D02*
X0050037Y0067195D01*
D33*
X0049988Y0069017D02*
X0049988Y0069509D01*
X0051858Y0069509D01*
X0051858Y0069017D01*
X0049988Y0069017D01*
X0055500Y0069017D02*
X0055500Y0069509D01*
X0057370Y0069509D01*
X0057370Y0069017D01*
X0055500Y0069017D01*
D34*
X0054024Y0065571D02*
X0053334Y0065571D01*
X0053334Y0067443D01*
X0054024Y0067443D01*
X0054024Y0065571D01*
X0054024Y0066261D02*
X0053334Y0066261D01*
X0053334Y0066951D02*
X0054024Y0066951D01*
X0054024Y0071083D02*
X0053334Y0071083D01*
X0053334Y0072955D01*
X0054024Y0072955D01*
X0054024Y0071083D01*
X0054024Y0071773D02*
X0053334Y0071773D01*
X0053334Y0072463D02*
X0054024Y0072463D01*
D35*
X0058482Y0105326D03*
X0058482Y0106900D03*
X0060057Y0106900D03*
X0060057Y0105326D03*
X0061632Y0105326D03*
X0063206Y0105326D03*
X0063206Y0106900D03*
X0061632Y0106900D03*
X0061632Y0108475D03*
X0063206Y0108475D03*
X0063206Y0110050D03*
X0061632Y0110050D03*
X0061632Y0111625D03*
X0063206Y0111625D03*
X0063206Y0113200D03*
X0061632Y0113200D03*
X0061632Y0114774D03*
X0063206Y0114774D03*
X0063206Y0116349D03*
X0061632Y0116349D03*
X0061632Y0117924D03*
X0063206Y0117924D03*
X0064781Y0117924D03*
X0064781Y0116349D03*
X0064781Y0114774D03*
X0064781Y0113200D03*
X0066356Y0113200D03*
X0066356Y0114774D03*
X0066356Y0116349D03*
X0066356Y0117924D03*
X0067931Y0117924D03*
X0069506Y0117924D03*
X0069506Y0116349D03*
X0069506Y0114774D03*
X0069506Y0113200D03*
X0069506Y0111625D03*
X0069506Y0110050D03*
X0069506Y0108475D03*
X0069506Y0106900D03*
X0069506Y0105326D03*
X0067931Y0105326D03*
X0067931Y0106900D03*
X0067931Y0108475D03*
X0067931Y0110050D03*
X0067931Y0111625D03*
X0067931Y0113200D03*
X0067931Y0114774D03*
X0067931Y0116349D03*
X0071080Y0116349D03*
X0071080Y0114774D03*
X0071080Y0113200D03*
X0071080Y0111625D03*
X0071080Y0110050D03*
X0071080Y0108475D03*
X0071080Y0106900D03*
X0071080Y0105326D03*
X0066356Y0105326D03*
X0066356Y0106900D03*
X0064781Y0106900D03*
X0064781Y0105326D03*
X0064781Y0108475D03*
X0066356Y0108475D03*
X0066356Y0110050D03*
X0064781Y0110050D03*
X0064781Y0111625D03*
X0066356Y0111625D03*
X0071080Y0117924D03*
X0060057Y0117924D03*
X0060057Y0116349D03*
X0060057Y0114774D03*
X0060057Y0113200D03*
X0058482Y0113200D03*
X0058482Y0114774D03*
X0058482Y0116349D03*
X0058482Y0117924D03*
X0058482Y0111625D03*
X0060057Y0111625D03*
X0060057Y0110050D03*
X0060057Y0108475D03*
X0058482Y0108475D03*
X0058482Y0110050D03*
D36*
X0058049Y0101034D03*
X0053049Y0101034D03*
X0063049Y0101034D03*
X0068049Y0101034D03*
X0073049Y0101034D03*
X0078049Y0101034D03*
X0083049Y0101034D03*
X0065765Y0085837D03*
X0058679Y0085837D03*
D37*
X0035647Y0059105D03*
X0029033Y0067609D03*
X0093436Y0075460D03*
D38*
X0081002Y0093672D03*
X0081002Y0095247D03*
X0079427Y0095247D03*
X0079427Y0093672D03*
X0077852Y0093672D03*
X0077852Y0095247D03*
M02*
