G75*
%MOIN*%
%OFA0B0*%
%FSLAX25Y25*%
%IPPOS*%
%LPD*%
%AMOC8*
5,1,8,0,0,1.08239X$1,22.5*
%
%ADD10C,0.00594*%
%ADD11C,0.01102*%
%ADD12C,0.00300*%
%ADD13C,0.00200*%
%ADD14C,0.00591*%
%ADD15C,0.00787*%
%ADD16C,0.01181*%
%ADD17C,0.00827*%
%ADD18C,0.00394*%
D10*
X0044693Y0032016D03*
X0044650Y0033529D03*
X0043764Y0034709D03*
X0042134Y0035481D03*
X0042489Y0036583D03*
X0043591Y0038945D03*
X0042567Y0041111D03*
X0040323Y0039772D03*
X0038709Y0044300D03*
X0041347Y0046071D03*
X0042725Y0044142D03*
X0046583Y0048079D03*
X0043473Y0049339D03*
X0039496Y0050756D03*
X0037056Y0050008D03*
X0037489Y0047410D03*
X0041465Y0054457D03*
X0040363Y0055796D03*
X0040599Y0058473D03*
X0043079Y0055441D03*
X0044378Y0057922D03*
X0045796Y0060520D03*
X0043670Y0061544D03*
X0043276Y0063670D03*
X0045796Y0063670D03*
X0049969Y0062174D03*
X0053119Y0062174D03*
X0056268Y0062174D03*
X0059418Y0062174D03*
X0062528Y0062174D03*
X0065717Y0062174D03*
X0068867Y0062174D03*
X0072016Y0062174D03*
X0075166Y0062174D03*
X0078315Y0062174D03*
X0081465Y0062174D03*
X0084615Y0062174D03*
X0087764Y0062174D03*
X0090914Y0062174D03*
X0094063Y0062174D03*
X0097922Y0061465D03*
X0099969Y0061681D03*
X0102567Y0061111D03*
X0101544Y0057685D03*
X0102252Y0055008D03*
X0105599Y0051544D03*
X0107056Y0049851D03*
X0106662Y0045756D03*
X0105476Y0044514D03*
X0101662Y0043945D03*
X0100874Y0047882D03*
X0097016Y0047174D03*
X0097922Y0050914D03*
X0095638Y0058237D03*
X0092489Y0058237D03*
X0089339Y0058237D03*
X0086189Y0058237D03*
X0083040Y0058237D03*
X0079890Y0058237D03*
X0076701Y0058197D03*
X0073591Y0058237D03*
X0070441Y0058237D03*
X0067292Y0058237D03*
X0064142Y0058237D03*
X0060993Y0058237D03*
X0057843Y0058237D03*
X0054693Y0058237D03*
X0051544Y0058079D03*
X0048394Y0058237D03*
X0039811Y0061780D03*
X0036150Y0062213D03*
X0040756Y0066662D03*
X0039811Y0072804D03*
X0041629Y0076038D03*
X0042640Y0077801D03*
X0047764Y0078777D03*
X0050126Y0078777D03*
X0048244Y0076086D03*
X0050126Y0074111D03*
X0051674Y0074024D03*
X0052804Y0072528D03*
X0051106Y0072075D03*
X0051126Y0069733D03*
X0048315Y0069733D03*
X0057292Y0071319D03*
X0059260Y0071319D03*
X0061229Y0071319D03*
X0062804Y0072646D03*
X0063776Y0073867D03*
X0063630Y0075953D03*
X0068630Y0076544D03*
X0070441Y0076347D03*
X0070441Y0077922D03*
X0072016Y0077922D03*
X0074615Y0080520D03*
X0076741Y0081071D03*
X0076741Y0082646D03*
X0078315Y0082646D03*
X0076741Y0084221D03*
X0075166Y0082646D03*
X0073591Y0084221D03*
X0071229Y0085012D03*
X0072016Y0087370D03*
X0070441Y0087370D03*
X0070441Y0088945D03*
X0072016Y0088945D03*
X0070993Y0091859D03*
X0069181Y0091898D03*
X0066819Y0089024D03*
X0064969Y0088591D03*
X0063552Y0085993D03*
X0059142Y0089693D03*
X0057882Y0088040D03*
X0053847Y0086816D03*
X0052472Y0085985D03*
X0049969Y0083158D03*
X0048906Y0082646D03*
X0059260Y0081138D03*
X0066741Y0079969D03*
X0067922Y0082174D03*
X0072016Y0081071D03*
X0075953Y0078709D03*
X0076741Y0077922D03*
X0078709Y0080678D03*
X0081465Y0077922D03*
X0083040Y0077922D03*
X0083040Y0076347D03*
X0081701Y0074930D03*
X0086583Y0073197D03*
X0089587Y0075323D03*
X0088957Y0076111D03*
X0089418Y0078709D03*
X0089575Y0080126D03*
X0090323Y0082449D03*
X0094175Y0081503D03*
X0095166Y0082528D03*
X0092982Y0079407D03*
X0096701Y0075363D03*
X0097634Y0074280D03*
X0096370Y0072355D03*
X0097189Y0071811D03*
X0096347Y0071268D03*
X0095347Y0071414D03*
X0095178Y0072556D03*
X0095015Y0069575D03*
X0096504Y0069693D03*
X0099355Y0071477D03*
X0100671Y0071577D03*
X0104083Y0070048D03*
X0106189Y0064772D03*
X0090942Y0070273D03*
X0084142Y0068867D03*
X0080796Y0069890D03*
X0076268Y0068519D03*
X0075717Y0070087D03*
X0072362Y0071650D03*
X0070835Y0070205D03*
X0069969Y0069221D03*
X0068827Y0070363D03*
X0069574Y0072016D03*
X0069574Y0074181D03*
X0065166Y0071229D03*
X0081465Y0084221D03*
X0083040Y0084221D03*
X0084975Y0082804D03*
X0085638Y0081780D03*
X0086268Y0085874D03*
X0084063Y0086937D03*
X0083040Y0087370D03*
X0084011Y0088263D03*
X0082646Y0088945D03*
X0081465Y0087370D03*
X0081682Y0091401D03*
X0076504Y0091819D03*
X0074851Y0091937D03*
X0073355Y0091859D03*
X0087961Y0087725D03*
X0076268Y0043709D03*
X0072489Y0043040D03*
X0076819Y0039024D03*
X0082331Y0041977D03*
X0081977Y0033985D03*
X0077370Y0033276D03*
X0080993Y0030166D03*
X0086583Y0027607D03*
X0085796Y0024772D03*
X0087764Y0024772D03*
X0090225Y0024674D03*
X0085835Y0022607D03*
X0084378Y0022882D03*
X0083237Y0021819D03*
X0082416Y0023438D03*
X0080914Y0021386D03*
X0077823Y0020933D03*
X0076465Y0020973D03*
X0077922Y0023276D03*
X0074178Y0023282D03*
X0073000Y0021347D03*
X0071229Y0023119D03*
X0069260Y0022213D03*
X0065993Y0023473D03*
X0064024Y0023315D03*
X0064308Y0024938D03*
X0059024Y0027725D03*
X0064418Y0030717D03*
X0060520Y0031741D03*
X0060481Y0035993D03*
X0066977Y0038709D03*
X0066071Y0042252D03*
X0060481Y0043512D03*
X0060441Y0040520D03*
X0067843Y0033394D03*
X0068985Y0030678D03*
X0072725Y0032882D03*
X0056426Y0023591D03*
X0053906Y0024969D03*
X0048394Y0028788D03*
X0048512Y0033315D03*
X0049772Y0033788D03*
X0091662Y0030087D03*
X0096386Y0030284D03*
X0099536Y0033827D03*
X0103237Y0038827D03*
X0097056Y0041150D03*
D11*
X0105244Y0066701D03*
X0094930Y0075953D03*
X0090835Y0072489D03*
X0083394Y0070048D03*
X0078000Y0069851D03*
X0086823Y0081150D03*
X0097922Y0080126D03*
X0049496Y0076286D03*
X0039103Y0071307D03*
X0038394Y0069181D03*
X0038315Y0062489D03*
D12*
X0042379Y0034178D02*
X0043107Y0034178D01*
X0042924Y0034361D02*
X0043416Y0033869D01*
X0043809Y0033869D01*
X0043809Y0033181D01*
X0044302Y0032689D01*
X0044998Y0032689D01*
X0045491Y0033181D01*
X0045491Y0033878D01*
X0044998Y0034370D01*
X0044605Y0034370D01*
X0044605Y0035057D01*
X0044112Y0035550D01*
X0043416Y0035550D01*
X0042924Y0035057D01*
X0042924Y0034361D01*
X0042924Y0034477D02*
X0042140Y0034477D01*
X0041900Y0034775D02*
X0042924Y0034775D01*
X0042940Y0035074D02*
X0041661Y0035074D01*
X0041421Y0035372D02*
X0043239Y0035372D01*
X0044290Y0035372D02*
X0102201Y0035372D01*
X0102025Y0035074D02*
X0044588Y0035074D01*
X0044605Y0034775D02*
X0101849Y0034775D01*
X0101682Y0034492D02*
X0096945Y0029164D01*
X0091274Y0024844D01*
X0091199Y0024807D01*
X0091202Y0024824D01*
X0091188Y0024844D01*
X0091195Y0024866D01*
X0091118Y0024999D01*
X0091091Y0025149D01*
X0091072Y0025163D01*
X0091070Y0025186D01*
X0090953Y0025285D01*
X0090876Y0025417D01*
X0090854Y0025423D01*
X0090844Y0025444D01*
X0090700Y0025497D01*
X0090583Y0025595D01*
X0090559Y0025593D01*
X0090543Y0025610D01*
X0090390Y0025610D01*
X0090246Y0025662D01*
X0090225Y0025652D01*
X0090204Y0025662D01*
X0090060Y0025610D01*
X0089907Y0025610D01*
X0089890Y0025593D01*
X0089867Y0025595D01*
X0089750Y0025497D01*
X0089606Y0025444D01*
X0089596Y0025423D01*
X0089573Y0025417D01*
X0089497Y0025285D01*
X0089379Y0025186D01*
X0089377Y0025163D01*
X0089358Y0025149D01*
X0089352Y0025115D01*
X0087746Y0024233D01*
X0087521Y0024233D01*
X0086732Y0025022D01*
X0086689Y0025097D01*
X0086662Y0025248D01*
X0086643Y0025261D01*
X0086641Y0025285D01*
X0086524Y0025383D01*
X0086447Y0025516D01*
X0086425Y0025522D01*
X0086415Y0025543D01*
X0086271Y0025595D01*
X0086154Y0025694D01*
X0086130Y0025692D01*
X0086114Y0025708D01*
X0085961Y0025708D01*
X0085817Y0025760D01*
X0085796Y0025751D01*
X0085775Y0025760D01*
X0085631Y0025708D01*
X0085477Y0025708D01*
X0085461Y0025692D01*
X0085438Y0025694D01*
X0085320Y0025595D01*
X0085177Y0025543D01*
X0085167Y0025522D01*
X0085144Y0025516D01*
X0085068Y0025383D01*
X0084950Y0025285D01*
X0084948Y0025261D01*
X0084929Y0025248D01*
X0084903Y0025097D01*
X0084826Y0024965D01*
X0084832Y0024942D01*
X0084819Y0024923D01*
X0084845Y0024772D01*
X0084819Y0024621D01*
X0084832Y0024602D01*
X0084826Y0024580D01*
X0084903Y0024447D01*
X0084929Y0024296D01*
X0084948Y0024283D01*
X0084950Y0024259D01*
X0085068Y0024161D01*
X0085144Y0024028D01*
X0085167Y0024022D01*
X0085177Y0024001D01*
X0085320Y0023949D01*
X0085438Y0023850D01*
X0085461Y0023853D01*
X0085477Y0023836D01*
X0085545Y0023836D01*
X0086335Y0023047D01*
X0086761Y0022621D01*
X0084879Y0021693D01*
X0077998Y0019829D01*
X0070887Y0019321D01*
X0063810Y0020188D01*
X0057032Y0022396D01*
X0050804Y0025866D01*
X0045358Y0030466D01*
X0040896Y0036027D01*
X0037585Y0042340D01*
X0035548Y0049172D01*
X0034860Y0056268D01*
X0105222Y0056268D01*
X0105222Y0055970D02*
X0034889Y0055970D01*
X0034860Y0056268D02*
X0035548Y0063364D01*
X0036719Y0067292D01*
X0104235Y0067292D01*
X0104201Y0067258D01*
X0104201Y0067233D01*
X0104181Y0067218D01*
X0104175Y0067180D01*
X0104150Y0067155D01*
X0104150Y0067044D01*
X0104080Y0066908D01*
X0104088Y0066884D01*
X0104073Y0066864D01*
X0104099Y0066701D01*
X0104073Y0066539D01*
X0104088Y0066518D01*
X0104080Y0066494D01*
X0104150Y0066358D01*
X0104150Y0066248D01*
X0104175Y0066222D01*
X0104181Y0066185D01*
X0104201Y0066170D01*
X0104201Y0066144D01*
X0104318Y0066028D01*
X0104393Y0065881D01*
X0104417Y0065873D01*
X0104424Y0065849D01*
X0104571Y0065775D01*
X0104688Y0065658D01*
X0104713Y0065658D01*
X0104728Y0065638D01*
X0104766Y0065632D01*
X0104791Y0065606D01*
X0104901Y0065606D01*
X0105037Y0065537D01*
X0105061Y0065545D01*
X0105082Y0065530D01*
X0105244Y0065556D01*
X0105407Y0065530D01*
X0105428Y0065545D01*
X0105452Y0065537D01*
X0105588Y0065606D01*
X0105698Y0065606D01*
X0105723Y0065632D01*
X0105761Y0065638D01*
X0105776Y0065658D01*
X0105801Y0065658D01*
X0105918Y0065775D01*
X0106064Y0065849D01*
X0106072Y0065873D01*
X0106096Y0065881D01*
X0106171Y0066028D01*
X0106288Y0066144D01*
X0106288Y0066170D01*
X0106308Y0066185D01*
X0106314Y0066222D01*
X0106339Y0066248D01*
X0106339Y0066358D01*
X0106409Y0066494D01*
X0106401Y0066518D01*
X0106416Y0066539D01*
X0106406Y0066599D01*
X0106963Y0067227D01*
X0107686Y0065185D01*
X0108318Y0061995D01*
X0105604Y0059282D01*
X0105222Y0058900D01*
X0105222Y0053636D01*
X0108318Y0050541D01*
X0107686Y0047351D01*
X0105307Y0040631D01*
X0101682Y0034492D01*
X0101668Y0034477D02*
X0044605Y0034477D01*
X0045190Y0034178D02*
X0101403Y0034178D01*
X0101137Y0033880D02*
X0077955Y0033880D01*
X0077719Y0034117D02*
X0077022Y0034117D01*
X0076530Y0033624D01*
X0076530Y0032928D01*
X0077022Y0032435D01*
X0077719Y0032435D01*
X0078211Y0032928D01*
X0078211Y0033624D01*
X0077719Y0034117D01*
X0078211Y0033581D02*
X0100872Y0033581D01*
X0100607Y0033283D02*
X0078211Y0033283D01*
X0078211Y0032984D02*
X0100341Y0032984D01*
X0100076Y0032686D02*
X0077969Y0032686D01*
X0076772Y0032686D02*
X0043577Y0032686D01*
X0043337Y0032984D02*
X0044007Y0032984D01*
X0043809Y0033283D02*
X0043098Y0033283D01*
X0042858Y0033581D02*
X0043809Y0033581D01*
X0043405Y0033880D02*
X0042619Y0033880D01*
X0041182Y0035671D02*
X0102378Y0035671D01*
X0102554Y0035969D02*
X0040942Y0035969D01*
X0040770Y0036268D02*
X0102730Y0036268D01*
X0102907Y0036566D02*
X0040613Y0036566D01*
X0040457Y0036865D02*
X0103083Y0036865D01*
X0103259Y0037163D02*
X0040300Y0037163D01*
X0040144Y0037462D02*
X0103436Y0037462D01*
X0103612Y0037760D02*
X0039987Y0037760D01*
X0039830Y0038059D02*
X0103788Y0038059D01*
X0103964Y0038357D02*
X0039674Y0038357D01*
X0039517Y0038656D02*
X0104141Y0038656D01*
X0104317Y0038954D02*
X0039361Y0038954D01*
X0039204Y0039253D02*
X0104493Y0039253D01*
X0104670Y0039551D02*
X0039048Y0039551D01*
X0038891Y0039850D02*
X0104846Y0039850D01*
X0105022Y0040148D02*
X0038735Y0040148D01*
X0038578Y0040447D02*
X0105199Y0040447D01*
X0105348Y0040746D02*
X0038422Y0040746D01*
X0038265Y0041044D02*
X0105453Y0041044D01*
X0105559Y0041343D02*
X0038108Y0041343D01*
X0037952Y0041641D02*
X0105665Y0041641D01*
X0105770Y0041940D02*
X0037795Y0041940D01*
X0037639Y0042238D02*
X0105876Y0042238D01*
X0105982Y0042537D02*
X0037527Y0042537D01*
X0037438Y0042835D02*
X0106087Y0042835D01*
X0106193Y0043134D02*
X0037349Y0043134D01*
X0037260Y0043432D02*
X0106299Y0043432D01*
X0106405Y0043731D02*
X0105882Y0043731D01*
X0105825Y0043674D02*
X0106317Y0044166D01*
X0106317Y0044862D01*
X0105825Y0045355D01*
X0105128Y0045355D01*
X0104636Y0044862D01*
X0104636Y0044166D01*
X0105128Y0043674D01*
X0105825Y0043674D01*
X0106180Y0044029D02*
X0106510Y0044029D01*
X0106616Y0044328D02*
X0106317Y0044328D01*
X0106317Y0044626D02*
X0106722Y0044626D01*
X0106827Y0044925D02*
X0106255Y0044925D01*
X0105956Y0045223D02*
X0106933Y0045223D01*
X0107039Y0045522D02*
X0036637Y0045522D01*
X0036548Y0045820D02*
X0107144Y0045820D01*
X0107250Y0046119D02*
X0036459Y0046119D01*
X0036370Y0046417D02*
X0107356Y0046417D01*
X0107461Y0046716D02*
X0036281Y0046716D01*
X0036192Y0047014D02*
X0107567Y0047014D01*
X0107673Y0047313D02*
X0036103Y0047313D01*
X0036013Y0047611D02*
X0107738Y0047611D01*
X0107797Y0047910D02*
X0045484Y0047910D01*
X0045405Y0047831D02*
X0045965Y0048391D01*
X0045965Y0049184D01*
X0045405Y0049745D01*
X0044612Y0049745D01*
X0044313Y0049446D01*
X0044313Y0049687D01*
X0043821Y0050180D01*
X0043125Y0050180D01*
X0042632Y0049687D01*
X0042632Y0048991D01*
X0043125Y0048498D01*
X0043821Y0048498D01*
X0044051Y0048729D01*
X0044051Y0048391D01*
X0044612Y0047831D01*
X0045405Y0047831D01*
X0045782Y0048208D02*
X0107856Y0048208D01*
X0107915Y0048507D02*
X0045965Y0048507D01*
X0045965Y0048805D02*
X0107974Y0048805D01*
X0108033Y0049104D02*
X0045965Y0049104D01*
X0045747Y0049402D02*
X0108092Y0049402D01*
X0108151Y0049701D02*
X0045449Y0049701D01*
X0044568Y0049701D02*
X0044300Y0049701D01*
X0044001Y0049999D02*
X0108210Y0049999D01*
X0108269Y0050298D02*
X0035439Y0050298D01*
X0035410Y0050596D02*
X0108262Y0050596D01*
X0107963Y0050895D02*
X0035381Y0050895D01*
X0035352Y0051193D02*
X0107665Y0051193D01*
X0107366Y0051492D02*
X0035323Y0051492D01*
X0035294Y0051790D02*
X0107068Y0051790D01*
X0106769Y0052089D02*
X0035265Y0052089D01*
X0035236Y0052387D02*
X0106471Y0052387D01*
X0106172Y0052686D02*
X0035208Y0052686D01*
X0035179Y0052984D02*
X0105874Y0052984D01*
X0105575Y0053283D02*
X0035150Y0053283D01*
X0035121Y0053582D02*
X0105277Y0053582D01*
X0105222Y0053880D02*
X0035092Y0053880D01*
X0035063Y0054179D02*
X0105222Y0054179D01*
X0105222Y0054477D02*
X0035034Y0054477D01*
X0035005Y0054776D02*
X0105222Y0054776D01*
X0105222Y0055074D02*
X0034976Y0055074D01*
X0034947Y0055373D02*
X0105222Y0055373D01*
X0105222Y0055671D02*
X0034918Y0055671D01*
X0034889Y0056567D02*
X0105222Y0056567D01*
X0105222Y0056865D02*
X0034918Y0056865D01*
X0034947Y0057164D02*
X0105222Y0057164D01*
X0105222Y0057462D02*
X0034976Y0057462D01*
X0035005Y0057761D02*
X0105222Y0057761D01*
X0105222Y0058059D02*
X0035034Y0058059D01*
X0035063Y0058358D02*
X0105222Y0058358D01*
X0105222Y0058656D02*
X0035092Y0058656D01*
X0035121Y0058955D02*
X0105277Y0058955D01*
X0105575Y0059253D02*
X0035150Y0059253D01*
X0035179Y0059552D02*
X0105874Y0059552D01*
X0105604Y0059282D02*
X0105604Y0059282D01*
X0106172Y0059850D02*
X0035208Y0059850D01*
X0035236Y0060149D02*
X0106471Y0060149D01*
X0106769Y0060447D02*
X0035265Y0060447D01*
X0035294Y0060746D02*
X0107068Y0060746D01*
X0107366Y0061044D02*
X0100520Y0061044D01*
X0100317Y0060841D02*
X0100809Y0061333D01*
X0100809Y0062030D01*
X0100317Y0062522D01*
X0099621Y0062522D01*
X0099128Y0062030D01*
X0099128Y0061333D01*
X0099621Y0060841D01*
X0100317Y0060841D01*
X0100809Y0061343D02*
X0107665Y0061343D01*
X0107963Y0061641D02*
X0100809Y0061641D01*
X0100809Y0061940D02*
X0108262Y0061940D01*
X0108269Y0062238D02*
X0100601Y0062238D01*
X0099337Y0062238D02*
X0039410Y0062238D01*
X0039410Y0062035D02*
X0038769Y0061394D01*
X0037862Y0061394D01*
X0037220Y0062035D01*
X0037220Y0062942D01*
X0037862Y0063583D01*
X0038769Y0063583D01*
X0039410Y0062942D01*
X0039410Y0062035D01*
X0039315Y0061940D02*
X0099128Y0061940D01*
X0099128Y0061641D02*
X0039016Y0061641D01*
X0039410Y0062537D02*
X0108210Y0062537D01*
X0108151Y0062835D02*
X0039410Y0062835D01*
X0039218Y0063134D02*
X0108092Y0063134D01*
X0108033Y0063432D02*
X0038920Y0063432D01*
X0037711Y0063432D02*
X0035568Y0063432D01*
X0035526Y0063134D02*
X0037412Y0063134D01*
X0037220Y0062835D02*
X0035497Y0062835D01*
X0035468Y0062537D02*
X0037220Y0062537D01*
X0037220Y0062238D02*
X0035439Y0062238D01*
X0035410Y0061940D02*
X0037316Y0061940D01*
X0037614Y0061641D02*
X0035381Y0061641D01*
X0035352Y0061343D02*
X0099128Y0061343D01*
X0099417Y0061044D02*
X0035323Y0061044D01*
X0035657Y0063731D02*
X0107974Y0063731D01*
X0107915Y0064029D02*
X0035746Y0064029D01*
X0035835Y0064328D02*
X0107856Y0064328D01*
X0107797Y0064626D02*
X0035924Y0064626D01*
X0036013Y0064925D02*
X0107738Y0064925D01*
X0107673Y0065223D02*
X0036102Y0065223D01*
X0036192Y0065522D02*
X0107567Y0065522D01*
X0107461Y0065820D02*
X0106008Y0065820D01*
X0106262Y0066119D02*
X0107356Y0066119D01*
X0107250Y0066417D02*
X0106370Y0066417D01*
X0106510Y0066716D02*
X0107144Y0066716D01*
X0107039Y0067015D02*
X0106775Y0067015D01*
X0106662Y0068079D02*
X0104496Y0068079D01*
X0104196Y0069401D01*
X0104351Y0069401D01*
X0104730Y0069780D01*
X0104730Y0070316D01*
X0104351Y0070694D01*
X0103902Y0070694D01*
X0103512Y0072410D01*
X0101544Y0076347D01*
X0098686Y0079562D01*
X0098690Y0079568D01*
X0098771Y0079650D01*
X0098771Y0079694D01*
X0098806Y0079719D01*
X0098810Y0079740D01*
X0098823Y0079753D01*
X0098823Y0079822D01*
X0098824Y0079833D01*
X0098877Y0079936D01*
X0098863Y0079977D01*
X0098889Y0080013D01*
X0098871Y0080126D01*
X0098889Y0080240D01*
X0098863Y0080276D01*
X0098877Y0080317D01*
X0098824Y0080420D01*
X0098823Y0080430D01*
X0098823Y0080500D01*
X0098810Y0080513D01*
X0098806Y0080533D01*
X0098771Y0080559D01*
X0098771Y0080603D01*
X0098690Y0080684D01*
X0098637Y0080787D01*
X0098596Y0080800D01*
X0098582Y0080842D01*
X0098480Y0080894D01*
X0098398Y0080976D01*
X0098354Y0080976D01*
X0098329Y0081011D01*
X0098308Y0081014D01*
X0098295Y0081028D01*
X0098226Y0081028D01*
X0098215Y0081029D01*
X0098112Y0081081D01*
X0098071Y0081068D01*
X0098035Y0081094D01*
X0097922Y0081076D01*
X0097808Y0081094D01*
X0097773Y0081068D01*
X0097731Y0081081D01*
X0097628Y0081029D01*
X0097618Y0081028D01*
X0097548Y0081028D01*
X0097535Y0081014D01*
X0097515Y0081011D01*
X0097489Y0080976D01*
X0097445Y0080976D01*
X0097437Y0080967D01*
X0096819Y0081662D01*
X0095813Y0082613D01*
X0095813Y0082796D01*
X0095434Y0083175D01*
X0095217Y0083175D01*
X0093276Y0085008D01*
X0093276Y0086167D01*
X0096945Y0083372D01*
X0101682Y0078044D01*
X0105307Y0071906D01*
X0106662Y0068079D01*
X0106616Y0068209D02*
X0104467Y0068209D01*
X0104399Y0068507D02*
X0106510Y0068507D01*
X0106404Y0068806D02*
X0104331Y0068806D01*
X0104264Y0069104D02*
X0106299Y0069104D01*
X0106193Y0069403D02*
X0104353Y0069403D01*
X0104651Y0069701D02*
X0106087Y0069701D01*
X0105982Y0070000D02*
X0104730Y0070000D01*
X0104730Y0070298D02*
X0105876Y0070298D01*
X0105770Y0070597D02*
X0104449Y0070597D01*
X0103856Y0070895D02*
X0105665Y0070895D01*
X0105559Y0071194D02*
X0103789Y0071194D01*
X0103721Y0071492D02*
X0105453Y0071492D01*
X0105348Y0071791D02*
X0103653Y0071791D01*
X0103585Y0072089D02*
X0105198Y0072089D01*
X0105022Y0072388D02*
X0103517Y0072388D01*
X0103374Y0072686D02*
X0104846Y0072686D01*
X0104670Y0072985D02*
X0103225Y0072985D01*
X0103076Y0073283D02*
X0104493Y0073283D01*
X0104317Y0073582D02*
X0102926Y0073582D01*
X0102777Y0073880D02*
X0104141Y0073880D01*
X0103964Y0074179D02*
X0102628Y0074179D01*
X0102478Y0074477D02*
X0103788Y0074477D01*
X0103612Y0074776D02*
X0102329Y0074776D01*
X0102180Y0075074D02*
X0103436Y0075074D01*
X0103259Y0075373D02*
X0102031Y0075373D01*
X0101881Y0075671D02*
X0103083Y0075671D01*
X0102907Y0075970D02*
X0101732Y0075970D01*
X0101583Y0076268D02*
X0102730Y0076268D01*
X0102554Y0076567D02*
X0101348Y0076567D01*
X0101083Y0076865D02*
X0102378Y0076865D01*
X0102201Y0077164D02*
X0100817Y0077164D01*
X0100552Y0077462D02*
X0102025Y0077462D01*
X0101849Y0077761D02*
X0100287Y0077761D01*
X0100021Y0078059D02*
X0101668Y0078059D01*
X0101403Y0078358D02*
X0099756Y0078358D01*
X0099491Y0078656D02*
X0101137Y0078656D01*
X0100872Y0078955D02*
X0099225Y0078955D01*
X0098960Y0079253D02*
X0100607Y0079253D01*
X0100341Y0079552D02*
X0098695Y0079552D01*
X0098833Y0079851D02*
X0100076Y0079851D01*
X0099811Y0080149D02*
X0098875Y0080149D01*
X0098823Y0080448D02*
X0099545Y0080448D01*
X0099280Y0080746D02*
X0098658Y0080746D01*
X0099014Y0081045D02*
X0098185Y0081045D01*
X0097658Y0081045D02*
X0097368Y0081045D01*
X0097103Y0081343D02*
X0098749Y0081343D01*
X0098484Y0081642D02*
X0096837Y0081642D01*
X0096525Y0081940D02*
X0098218Y0081940D01*
X0097953Y0082239D02*
X0096209Y0082239D01*
X0095893Y0082537D02*
X0097688Y0082537D01*
X0097422Y0082836D02*
X0095773Y0082836D01*
X0095474Y0083134D02*
X0097157Y0083134D01*
X0096866Y0083433D02*
X0094944Y0083433D01*
X0094628Y0083731D02*
X0096474Y0083731D01*
X0096082Y0084030D02*
X0094312Y0084030D01*
X0093996Y0084328D02*
X0095690Y0084328D01*
X0095298Y0084627D02*
X0093680Y0084627D01*
X0093364Y0084925D02*
X0094907Y0084925D01*
X0094515Y0085224D02*
X0093276Y0085224D01*
X0093276Y0085522D02*
X0094123Y0085522D01*
X0093731Y0085821D02*
X0093276Y0085821D01*
X0093276Y0086119D02*
X0093339Y0086119D01*
X0093544Y0084068D02*
X0091312Y0084068D01*
X0090130Y0085249D01*
X0087375Y0085249D01*
X0086021Y0086602D01*
X0086021Y0085772D01*
X0089591Y0082202D01*
X0089676Y0082202D01*
X0089676Y0082717D01*
X0090055Y0083096D01*
X0090591Y0083096D01*
X0090970Y0082717D01*
X0090970Y0082202D01*
X0091100Y0082202D01*
X0092171Y0081132D01*
X0092171Y0081132D01*
X0093153Y0080150D01*
X0093220Y0080150D01*
X0093244Y0080126D01*
X0093277Y0080129D01*
X0093359Y0080060D01*
X0093460Y0080024D01*
X0093474Y0079993D01*
X0093506Y0079985D01*
X0093560Y0079892D01*
X0093642Y0079823D01*
X0093645Y0079790D01*
X0093672Y0079771D01*
X0093691Y0079665D01*
X0093744Y0079573D01*
X0093736Y0079540D01*
X0093755Y0079513D01*
X0093736Y0079407D01*
X0093755Y0079302D01*
X0093736Y0079275D01*
X0093744Y0079242D01*
X0093691Y0079150D01*
X0093672Y0079044D01*
X0093645Y0079025D01*
X0093642Y0078992D01*
X0093560Y0078923D01*
X0093506Y0078830D01*
X0093474Y0078822D01*
X0093460Y0078791D01*
X0093359Y0078755D01*
X0093277Y0078686D01*
X0093244Y0078689D01*
X0093220Y0078665D01*
X0093113Y0078665D01*
X0093013Y0078628D01*
X0092982Y0078643D01*
X0092952Y0078628D01*
X0092852Y0078665D01*
X0092744Y0078665D01*
X0092721Y0078689D01*
X0092688Y0078686D01*
X0092606Y0078755D01*
X0092505Y0078791D01*
X0092491Y0078822D01*
X0092459Y0078830D01*
X0092405Y0078923D01*
X0092323Y0078992D01*
X0092320Y0079025D01*
X0092293Y0079044D01*
X0092274Y0079150D01*
X0092221Y0079242D01*
X0092224Y0079254D01*
X0091353Y0080124D01*
X0090565Y0080912D01*
X0089056Y0080912D01*
X0088678Y0081290D01*
X0088678Y0081290D01*
X0085109Y0084860D01*
X0085109Y0084860D01*
X0084731Y0085238D01*
X0084731Y0086631D01*
X0084701Y0086660D01*
X0084331Y0086291D01*
X0083795Y0086291D01*
X0083685Y0086401D01*
X0083685Y0085750D01*
X0084199Y0085236D01*
X0084577Y0084858D01*
X0084577Y0083320D01*
X0084707Y0083450D01*
X0085243Y0083450D01*
X0085622Y0083071D01*
X0085622Y0082536D01*
X0085513Y0082427D01*
X0085906Y0082427D01*
X0086285Y0082048D01*
X0086285Y0081886D01*
X0086450Y0082051D01*
X0087197Y0082051D01*
X0087725Y0081523D01*
X0087725Y0080777D01*
X0087197Y0080249D01*
X0086450Y0080249D01*
X0085922Y0080777D01*
X0085922Y0081149D01*
X0085906Y0081133D01*
X0085370Y0081133D01*
X0084991Y0081512D01*
X0084991Y0082048D01*
X0085100Y0082157D01*
X0084707Y0082157D01*
X0084577Y0082287D01*
X0084577Y0076970D01*
X0084199Y0076592D01*
X0084199Y0076592D01*
X0083799Y0076192D01*
X0083802Y0076182D01*
X0083783Y0076150D01*
X0083783Y0076037D01*
X0083701Y0075955D01*
X0083699Y0075931D01*
X0083617Y0075862D01*
X0083564Y0075770D01*
X0083531Y0075761D01*
X0083517Y0075731D01*
X0083454Y0075708D01*
X0083232Y0075486D01*
X0083232Y0071261D01*
X0083483Y0071011D01*
X0083508Y0071015D01*
X0083543Y0070989D01*
X0083585Y0071003D01*
X0083687Y0070950D01*
X0083698Y0070949D01*
X0083767Y0070949D01*
X0083780Y0070936D01*
X0083801Y0070932D01*
X0083827Y0070897D01*
X0083871Y0070897D01*
X0083952Y0070816D01*
X0084055Y0070763D01*
X0084068Y0070722D01*
X0084110Y0070708D01*
X0084162Y0070606D01*
X0084243Y0070524D01*
X0084243Y0070480D01*
X0084279Y0070455D01*
X0084282Y0070434D01*
X0084295Y0070421D01*
X0084295Y0070352D01*
X0084297Y0070341D01*
X0084349Y0070238D01*
X0084336Y0070197D01*
X0084361Y0070161D01*
X0084343Y0070048D01*
X0084361Y0069934D01*
X0084336Y0069898D01*
X0084349Y0069857D01*
X0084297Y0069754D01*
X0084295Y0069744D01*
X0084295Y0069674D01*
X0084282Y0069661D01*
X0084279Y0069641D01*
X0084243Y0069615D01*
X0084243Y0069571D01*
X0084186Y0069513D01*
X0084410Y0069513D01*
X0084789Y0069134D01*
X0084789Y0068599D01*
X0084410Y0068220D01*
X0083874Y0068220D01*
X0083495Y0068599D01*
X0083495Y0069082D01*
X0083394Y0069098D01*
X0083280Y0069080D01*
X0083245Y0069106D01*
X0083203Y0069093D01*
X0083101Y0069145D01*
X0083090Y0069146D01*
X0083021Y0069146D01*
X0083008Y0069160D01*
X0082987Y0069163D01*
X0082961Y0069198D01*
X0082917Y0069198D01*
X0082836Y0069280D01*
X0082734Y0069332D01*
X0082720Y0069374D01*
X0082678Y0069387D01*
X0082626Y0069490D01*
X0082545Y0069571D01*
X0082545Y0069615D01*
X0082509Y0069641D01*
X0082506Y0069661D01*
X0082493Y0069674D01*
X0082493Y0069744D01*
X0082491Y0069754D01*
X0082439Y0069857D01*
X0082453Y0069898D01*
X0082427Y0069934D01*
X0082431Y0069959D01*
X0082181Y0070209D01*
X0081745Y0070645D01*
X0081745Y0074155D01*
X0081731Y0074151D01*
X0081701Y0074165D01*
X0081671Y0074151D01*
X0081574Y0074186D01*
X0081393Y0074186D01*
X0081290Y0074289D01*
X0081224Y0074313D01*
X0081210Y0074344D01*
X0081177Y0074352D01*
X0081124Y0074445D01*
X0081042Y0074514D01*
X0081040Y0074539D01*
X0081016Y0074563D01*
X0081011Y0074566D01*
X0081011Y0074568D01*
X0080957Y0074621D01*
X0080957Y0074733D01*
X0080939Y0074764D01*
X0080948Y0074797D01*
X0080929Y0074824D01*
X0080947Y0074930D01*
X0080929Y0075035D01*
X0080948Y0075062D01*
X0080939Y0075095D01*
X0080957Y0075126D01*
X0080957Y0075238D01*
X0081011Y0075291D01*
X0081011Y0075293D01*
X0081016Y0075296D01*
X0081040Y0075320D01*
X0081042Y0075345D01*
X0081124Y0075414D01*
X0081177Y0075507D01*
X0081210Y0075515D01*
X0081224Y0075546D01*
X0081290Y0075570D01*
X0081393Y0075673D01*
X0081574Y0075673D01*
X0081671Y0075708D01*
X0081701Y0075694D01*
X0081731Y0075708D01*
X0081745Y0075704D01*
X0081745Y0076102D01*
X0082181Y0076538D01*
X0082349Y0076706D01*
X0082350Y0076710D01*
X0082360Y0076717D01*
X0082378Y0076735D01*
X0082380Y0076763D01*
X0082462Y0076831D01*
X0082516Y0076924D01*
X0082548Y0076933D01*
X0082562Y0076963D01*
X0082631Y0076988D01*
X0082732Y0077089D01*
X0082801Y0077089D01*
X0082802Y0077089D01*
X0082871Y0077089D01*
X0083057Y0077275D01*
X0082772Y0077275D01*
X0082393Y0077654D01*
X0082393Y0078190D01*
X0082772Y0078568D01*
X0083287Y0078568D01*
X0083287Y0083574D01*
X0082772Y0083574D01*
X0082393Y0083953D01*
X0082393Y0084489D01*
X0082757Y0084853D01*
X0082394Y0085215D01*
X0082394Y0086943D01*
X0082380Y0086955D01*
X0082377Y0086988D01*
X0082350Y0087007D01*
X0082331Y0087113D01*
X0082278Y0087205D01*
X0082287Y0087238D01*
X0082267Y0087265D01*
X0082286Y0087370D01*
X0082267Y0087476D01*
X0082287Y0087503D01*
X0082278Y0087536D01*
X0082331Y0087628D01*
X0082350Y0087734D01*
X0082377Y0087753D01*
X0082380Y0087786D01*
X0082462Y0087855D01*
X0082516Y0087948D01*
X0082548Y0087956D01*
X0082562Y0087987D01*
X0082663Y0088023D01*
X0082745Y0088092D01*
X0082778Y0088089D01*
X0082802Y0088113D01*
X0082909Y0088113D01*
X0083009Y0088149D01*
X0083040Y0088135D01*
X0083070Y0088149D01*
X0083171Y0088113D01*
X0083253Y0088113D01*
X0083258Y0088130D01*
X0083239Y0088158D01*
X0083257Y0088263D01*
X0083239Y0088369D01*
X0083258Y0088396D01*
X0083249Y0088428D01*
X0083303Y0088521D01*
X0083321Y0088626D01*
X0083349Y0088646D01*
X0083352Y0088679D01*
X0083434Y0088748D01*
X0083487Y0088840D01*
X0083520Y0088849D01*
X0083534Y0088879D01*
X0083634Y0088916D01*
X0083674Y0088949D01*
X0083674Y0088949D01*
X0083674Y0089228D01*
X0083533Y0089369D01*
X0083455Y0089369D01*
X0083441Y0089383D01*
X0083123Y0089383D01*
X0083293Y0089213D01*
X0083293Y0088677D01*
X0082914Y0088298D01*
X0082378Y0088298D01*
X0082209Y0088468D01*
X0082209Y0087567D01*
X0082227Y0087536D01*
X0082218Y0087503D01*
X0082237Y0087476D01*
X0082219Y0087370D01*
X0082237Y0087265D01*
X0082218Y0087238D01*
X0082227Y0087205D01*
X0082209Y0087174D01*
X0082209Y0087062D01*
X0082155Y0087009D01*
X0082155Y0087007D01*
X0082151Y0087004D01*
X0082127Y0086980D01*
X0082124Y0086955D01*
X0082042Y0086886D01*
X0081989Y0086793D01*
X0081957Y0086785D01*
X0081942Y0086754D01*
X0081877Y0086730D01*
X0081773Y0086627D01*
X0081634Y0086627D01*
X0081165Y0086158D01*
X0081165Y0084836D01*
X0081197Y0084868D01*
X0081733Y0084868D01*
X0082112Y0084489D01*
X0082112Y0083953D01*
X0081733Y0083574D01*
X0081213Y0083574D01*
X0081732Y0083055D01*
X0082110Y0082677D01*
X0082110Y0078349D01*
X0082124Y0078337D01*
X0082127Y0078312D01*
X0082151Y0078288D01*
X0082155Y0078285D01*
X0082155Y0078283D01*
X0082209Y0078230D01*
X0082209Y0078118D01*
X0082227Y0078087D01*
X0082218Y0078054D01*
X0082237Y0078027D01*
X0082219Y0077922D01*
X0082237Y0077816D01*
X0082218Y0077789D01*
X0082227Y0077757D01*
X0082209Y0077725D01*
X0082209Y0077614D01*
X0082155Y0077560D01*
X0082155Y0077558D01*
X0082151Y0077556D01*
X0082127Y0077532D01*
X0082124Y0077506D01*
X0082042Y0077437D01*
X0081989Y0077344D01*
X0081957Y0077336D01*
X0081942Y0077305D01*
X0081877Y0077281D01*
X0079846Y0075251D01*
X0079411Y0074816D01*
X0074070Y0074816D01*
X0071605Y0077281D01*
X0071539Y0077305D01*
X0071525Y0077336D01*
X0071492Y0077344D01*
X0071439Y0077437D01*
X0071357Y0077506D01*
X0071354Y0077532D01*
X0071331Y0077556D01*
X0071326Y0077558D01*
X0071326Y0077560D01*
X0071272Y0077614D01*
X0071272Y0077725D01*
X0071254Y0077757D01*
X0071263Y0077789D01*
X0071244Y0077816D01*
X0071262Y0077922D01*
X0071244Y0078027D01*
X0071263Y0078054D01*
X0071254Y0078087D01*
X0071272Y0078118D01*
X0071272Y0078230D01*
X0071326Y0078283D01*
X0071326Y0078285D01*
X0071330Y0078288D01*
X0071354Y0078312D01*
X0071357Y0078337D01*
X0071371Y0078349D01*
X0071371Y0080644D01*
X0071357Y0080656D01*
X0071354Y0080689D01*
X0071326Y0080708D01*
X0071308Y0080813D01*
X0071254Y0080906D01*
X0071263Y0080938D01*
X0071244Y0080966D01*
X0071262Y0081071D01*
X0071244Y0081177D01*
X0071263Y0081204D01*
X0071254Y0081236D01*
X0071308Y0081329D01*
X0071326Y0081434D01*
X0071354Y0081454D01*
X0071357Y0081487D01*
X0071439Y0081556D01*
X0071492Y0081648D01*
X0071525Y0081657D01*
X0071539Y0081687D01*
X0071639Y0081724D01*
X0071721Y0081793D01*
X0071755Y0081790D01*
X0071778Y0081814D01*
X0071885Y0081814D01*
X0071986Y0081850D01*
X0072016Y0081836D01*
X0072046Y0081850D01*
X0072147Y0081814D01*
X0072254Y0081814D01*
X0072278Y0081790D01*
X0072311Y0081793D01*
X0072393Y0081724D01*
X0072494Y0081687D01*
X0072508Y0081657D01*
X0072540Y0081648D01*
X0072594Y0081556D01*
X0072676Y0081487D01*
X0072678Y0081454D01*
X0072706Y0081434D01*
X0072724Y0081329D01*
X0072778Y0081236D01*
X0072769Y0081204D01*
X0072789Y0081177D01*
X0072770Y0081071D01*
X0072789Y0080966D01*
X0072769Y0080938D01*
X0072778Y0080906D01*
X0072724Y0080813D01*
X0072706Y0080708D01*
X0072678Y0080689D01*
X0072676Y0080656D01*
X0072661Y0080644D01*
X0072661Y0078349D01*
X0072676Y0078337D01*
X0072678Y0078312D01*
X0072702Y0078288D01*
X0072706Y0078285D01*
X0072706Y0078283D01*
X0074686Y0076303D01*
X0078795Y0076303D01*
X0080775Y0078283D01*
X0080775Y0078285D01*
X0080779Y0078288D01*
X0080803Y0078312D01*
X0080806Y0078337D01*
X0080820Y0078349D01*
X0080820Y0082143D01*
X0079875Y0083087D01*
X0079875Y0086693D01*
X0080253Y0087071D01*
X0080706Y0087524D01*
X0080703Y0087536D01*
X0080721Y0087567D01*
X0080721Y0089647D01*
X0081509Y0090434D01*
X0081509Y0090434D01*
X0081701Y0090627D01*
X0081682Y0090636D01*
X0081651Y0090622D01*
X0081551Y0090659D01*
X0081444Y0090659D01*
X0081420Y0090682D01*
X0081387Y0090679D01*
X0081305Y0090748D01*
X0081204Y0090785D01*
X0081190Y0090815D01*
X0081158Y0090824D01*
X0081104Y0090916D01*
X0081022Y0090985D01*
X0081019Y0091019D01*
X0080992Y0091038D01*
X0080989Y0091055D01*
X0080459Y0091228D01*
X0077151Y0091755D01*
X0077151Y0091551D01*
X0076772Y0091172D01*
X0076236Y0091172D01*
X0075857Y0091551D01*
X0075857Y0092087D01*
X0075962Y0092191D01*
X0075143Y0092322D01*
X0075139Y0092318D01*
X0073810Y0092318D01*
X0074002Y0092127D01*
X0074002Y0091591D01*
X0073623Y0091212D01*
X0073087Y0091212D01*
X0072708Y0091591D01*
X0072708Y0092127D01*
X0072899Y0092318D01*
X0069677Y0092318D01*
X0069828Y0092166D01*
X0069828Y0091630D01*
X0069449Y0091251D01*
X0068914Y0091251D01*
X0068535Y0091630D01*
X0068535Y0092160D01*
X0067689Y0092026D01*
X0067617Y0091920D01*
X0064388Y0091333D01*
X0064264Y0091419D01*
X0063587Y0091311D01*
X0063587Y0088227D01*
X0068468Y0083345D01*
X0068468Y0082711D01*
X0068499Y0082658D01*
X0068581Y0082589D01*
X0068584Y0082556D01*
X0068611Y0082537D01*
X0068904Y0082537D01*
X0068630Y0082431D02*
X0068611Y0082537D01*
X0068630Y0082431D02*
X0068684Y0082339D01*
X0068675Y0082306D01*
X0068694Y0082279D01*
X0068675Y0082174D01*
X0068694Y0082068D01*
X0068675Y0082041D01*
X0068684Y0082009D01*
X0068630Y0081916D01*
X0068611Y0081810D01*
X0068584Y0081791D01*
X0068581Y0081758D01*
X0068499Y0081689D01*
X0068446Y0081596D01*
X0068413Y0081588D01*
X0068399Y0081557D01*
X0068299Y0081521D01*
X0068217Y0081452D01*
X0068183Y0081455D01*
X0068160Y0081431D01*
X0068053Y0081431D01*
X0067952Y0081395D01*
X0067922Y0081409D01*
X0067891Y0081395D01*
X0067791Y0081431D01*
X0067684Y0081431D01*
X0067660Y0081455D01*
X0067627Y0081452D01*
X0067545Y0081521D01*
X0067444Y0081557D01*
X0067430Y0081588D01*
X0067398Y0081596D01*
X0067344Y0081689D01*
X0067262Y0081758D01*
X0067259Y0081791D01*
X0067232Y0081810D01*
X0067213Y0081916D01*
X0067160Y0082009D01*
X0067168Y0082041D01*
X0067149Y0082068D01*
X0067168Y0082174D01*
X0067149Y0082279D01*
X0067168Y0082306D01*
X0067160Y0082339D01*
X0067213Y0082431D01*
X0067232Y0082537D01*
X0067259Y0082556D01*
X0067262Y0082589D01*
X0067344Y0082658D01*
X0067375Y0082711D01*
X0067375Y0082892D01*
X0064198Y0086068D01*
X0064198Y0085725D01*
X0063820Y0085346D01*
X0063284Y0085346D01*
X0062905Y0085725D01*
X0062905Y0086260D01*
X0063284Y0086639D01*
X0063627Y0086639D01*
X0062493Y0087774D01*
X0062493Y0091082D01*
X0059611Y0090140D01*
X0059789Y0089961D01*
X0059789Y0089425D01*
X0059410Y0089046D01*
X0058874Y0089046D01*
X0058495Y0089425D01*
X0058495Y0089775D01*
X0058102Y0089647D01*
X0057732Y0089457D01*
X0057632Y0089357D01*
X0057538Y0089357D01*
X0057291Y0089230D01*
X0057191Y0089131D01*
X0057119Y0089131D01*
X0054331Y0087417D01*
X0054339Y0087402D01*
X0054371Y0087394D01*
X0054424Y0087301D01*
X0054506Y0087232D01*
X0054509Y0087199D01*
X0054537Y0087180D01*
X0054555Y0087074D01*
X0054609Y0086982D01*
X0054600Y0086949D01*
X0054619Y0086922D01*
X0054601Y0086816D01*
X0054619Y0086711D01*
X0054600Y0086684D01*
X0054609Y0086651D01*
X0054555Y0086559D01*
X0054537Y0086453D01*
X0054509Y0086434D01*
X0054506Y0086401D01*
X0054424Y0086332D01*
X0054371Y0086239D01*
X0054347Y0086233D01*
X0054347Y0085940D01*
X0053540Y0085133D01*
X0053540Y0075746D01*
X0052279Y0074485D01*
X0052333Y0074440D01*
X0052336Y0074406D01*
X0052363Y0074387D01*
X0052382Y0074282D01*
X0052435Y0074189D01*
X0052427Y0074157D01*
X0052446Y0074129D01*
X0052427Y0074024D01*
X0052446Y0073919D01*
X0052427Y0073891D01*
X0052435Y0073859D01*
X0052382Y0073766D01*
X0052363Y0073661D01*
X0052336Y0073642D01*
X0052333Y0073608D01*
X0052251Y0073539D01*
X0052198Y0073447D01*
X0052165Y0073438D01*
X0052151Y0073408D01*
X0052051Y0073371D01*
X0051969Y0073302D01*
X0051935Y0073305D01*
X0051912Y0073282D01*
X0051805Y0073282D01*
X0051704Y0073245D01*
X0051695Y0073249D01*
X0052157Y0072787D01*
X0052157Y0072796D01*
X0052536Y0073175D01*
X0053071Y0073175D01*
X0053450Y0072796D01*
X0053450Y0072260D01*
X0053071Y0071881D01*
X0053063Y0071881D01*
X0053125Y0071819D01*
X0056723Y0071819D01*
X0056768Y0071897D01*
X0056800Y0071905D01*
X0056814Y0071935D01*
X0056915Y0071972D01*
X0056997Y0072041D01*
X0057030Y0072038D01*
X0057054Y0072062D01*
X0057161Y0072062D01*
X0057261Y0072098D01*
X0057292Y0072084D01*
X0057322Y0072098D01*
X0057423Y0072062D01*
X0057530Y0072062D01*
X0057553Y0072038D01*
X0057587Y0072041D01*
X0057669Y0071972D01*
X0057769Y0071935D01*
X0057783Y0071905D01*
X0057816Y0071897D01*
X0057869Y0071804D01*
X0057951Y0071735D01*
X0057954Y0071702D01*
X0057981Y0071683D01*
X0057985Y0071663D01*
X0058141Y0071819D01*
X0058692Y0071819D01*
X0058736Y0071897D01*
X0058769Y0071905D01*
X0058783Y0071935D01*
X0058883Y0071972D01*
X0058965Y0072041D01*
X0058999Y0072038D01*
X0059022Y0072062D01*
X0059129Y0072062D01*
X0059230Y0072098D01*
X0059260Y0072084D01*
X0059291Y0072098D01*
X0059391Y0072062D01*
X0059498Y0072062D01*
X0059522Y0072038D01*
X0059555Y0072041D01*
X0059637Y0071972D01*
X0059738Y0071935D01*
X0059752Y0071905D01*
X0059784Y0071897D01*
X0059838Y0071804D01*
X0059920Y0071735D01*
X0059923Y0071702D01*
X0059950Y0071683D01*
X0059953Y0071663D01*
X0060109Y0071819D01*
X0060660Y0071819D01*
X0060705Y0071897D01*
X0060737Y0071905D01*
X0060751Y0071935D01*
X0060852Y0071972D01*
X0060934Y0072041D01*
X0060967Y0072038D01*
X0060991Y0072062D01*
X0061098Y0072062D01*
X0061198Y0072098D01*
X0061229Y0072084D01*
X0061259Y0072098D01*
X0061360Y0072062D01*
X0061467Y0072062D01*
X0061490Y0072038D01*
X0061524Y0072041D01*
X0061606Y0071972D01*
X0061642Y0071959D01*
X0061536Y0072065D01*
X0061536Y0074152D01*
X0059053Y0076634D01*
X0058760Y0076927D01*
X0058760Y0080555D01*
X0058736Y0080561D01*
X0058683Y0080654D01*
X0058601Y0080722D01*
X0058598Y0080756D01*
X0058570Y0080775D01*
X0058552Y0080880D01*
X0058498Y0080973D01*
X0058507Y0081005D01*
X0058488Y0081033D01*
X0058506Y0081138D01*
X0058488Y0081244D01*
X0058507Y0081271D01*
X0058498Y0081303D01*
X0058552Y0081396D01*
X0058570Y0081501D01*
X0058598Y0081521D01*
X0058601Y0081554D01*
X0058683Y0081623D01*
X0058736Y0081715D01*
X0058769Y0081724D01*
X0058783Y0081754D01*
X0058883Y0081791D01*
X0058965Y0081860D01*
X0058999Y0081857D01*
X0059022Y0081881D01*
X0059129Y0081881D01*
X0059230Y0081917D01*
X0059260Y0081903D01*
X0059291Y0081917D01*
X0059391Y0081881D01*
X0059498Y0081881D01*
X0059522Y0081857D01*
X0059555Y0081860D01*
X0059637Y0081791D01*
X0059738Y0081754D01*
X0059752Y0081724D01*
X0059784Y0081715D01*
X0059838Y0081623D01*
X0059920Y0081554D01*
X0059923Y0081521D01*
X0059950Y0081501D01*
X0059969Y0081396D01*
X0060022Y0081303D01*
X0060013Y0081271D01*
X0060033Y0081244D01*
X0060014Y0081138D01*
X0060033Y0081033D01*
X0060013Y0081005D01*
X0060022Y0080973D01*
X0059969Y0080880D01*
X0059950Y0080775D01*
X0059923Y0080756D01*
X0059920Y0080722D01*
X0059838Y0080654D01*
X0059784Y0080561D01*
X0059760Y0080555D01*
X0059760Y0077341D01*
X0062243Y0074859D01*
X0062536Y0074566D01*
X0062536Y0072479D01*
X0063286Y0071729D01*
X0064597Y0071729D01*
X0064642Y0071806D01*
X0064674Y0071815D01*
X0064688Y0071845D01*
X0064789Y0071882D01*
X0064871Y0071950D01*
X0064904Y0071947D01*
X0064928Y0071971D01*
X0065035Y0071971D01*
X0065135Y0072008D01*
X0065166Y0071994D01*
X0065196Y0072008D01*
X0065297Y0071971D01*
X0065404Y0071971D01*
X0065427Y0071947D01*
X0065461Y0071950D01*
X0065543Y0071882D01*
X0065643Y0071845D01*
X0065657Y0071815D01*
X0065690Y0071806D01*
X0065743Y0071713D01*
X0065825Y0071644D01*
X0065828Y0071611D01*
X0065855Y0071592D01*
X0065874Y0071487D01*
X0065928Y0071394D01*
X0065919Y0071362D01*
X0065938Y0071334D01*
X0065920Y0071229D01*
X0065938Y0071123D01*
X0065919Y0071096D01*
X0065928Y0071064D01*
X0065874Y0070971D01*
X0065855Y0070866D01*
X0065828Y0070846D01*
X0065825Y0070813D01*
X0065743Y0070744D01*
X0065690Y0070652D01*
X0065657Y0070643D01*
X0065643Y0070613D01*
X0065543Y0070576D01*
X0065461Y0070507D01*
X0065427Y0070510D01*
X0065404Y0070486D01*
X0065297Y0070486D01*
X0065196Y0070450D01*
X0065166Y0070464D01*
X0065135Y0070450D01*
X0065035Y0070486D01*
X0064928Y0070486D01*
X0064904Y0070510D01*
X0064871Y0070507D01*
X0064789Y0070576D01*
X0064688Y0070613D01*
X0064674Y0070643D01*
X0064642Y0070652D01*
X0064597Y0070729D01*
X0062872Y0070729D01*
X0061919Y0071682D01*
X0061937Y0071577D01*
X0061991Y0071484D01*
X0061982Y0071452D01*
X0062001Y0071425D01*
X0061983Y0071319D01*
X0062001Y0071214D01*
X0061982Y0071186D01*
X0061991Y0071154D01*
X0061937Y0071061D01*
X0061918Y0070956D01*
X0061891Y0070937D01*
X0061888Y0070904D01*
X0061806Y0070835D01*
X0061753Y0070742D01*
X0061720Y0070733D01*
X0061706Y0070703D01*
X0061606Y0070666D01*
X0061524Y0070598D01*
X0061490Y0070601D01*
X0061467Y0070577D01*
X0061360Y0070577D01*
X0061259Y0070540D01*
X0061229Y0070554D01*
X0061198Y0070540D01*
X0061098Y0070577D01*
X0060991Y0070577D01*
X0060967Y0070601D01*
X0060934Y0070598D01*
X0060852Y0070666D01*
X0060751Y0070703D01*
X0060737Y0070733D01*
X0060705Y0070742D01*
X0060660Y0070819D01*
X0060524Y0070819D01*
X0059574Y0069870D01*
X0059574Y0069870D01*
X0059281Y0069577D01*
X0058019Y0069577D01*
X0058015Y0069572D01*
X0052729Y0069572D01*
X0051643Y0068486D01*
X0050610Y0068486D01*
X0049863Y0069233D01*
X0048884Y0069233D01*
X0048839Y0069155D01*
X0048807Y0069147D01*
X0048793Y0069116D01*
X0048692Y0069080D01*
X0048610Y0069011D01*
X0048577Y0069014D01*
X0048553Y0068990D01*
X0048446Y0068990D01*
X0048346Y0068954D01*
X0048315Y0068968D01*
X0048285Y0068954D01*
X0048184Y0068990D01*
X0048077Y0068990D01*
X0048054Y0069014D01*
X0048020Y0069011D01*
X0047938Y0069080D01*
X0047838Y0069116D01*
X0047824Y0069147D01*
X0047791Y0069155D01*
X0047738Y0069248D01*
X0047656Y0069317D01*
X0047653Y0069350D01*
X0047626Y0069369D01*
X0047607Y0069475D01*
X0047553Y0069568D01*
X0047562Y0069600D01*
X0047543Y0069627D01*
X0047562Y0069733D01*
X0047543Y0069838D01*
X0047562Y0069865D01*
X0047553Y0069898D01*
X0047607Y0069990D01*
X0047626Y0070096D01*
X0047653Y0070115D01*
X0047656Y0070148D01*
X0047738Y0070217D01*
X0047791Y0070310D01*
X0047824Y0070319D01*
X0047838Y0070349D01*
X0047938Y0070385D01*
X0048020Y0070454D01*
X0048054Y0070451D01*
X0048077Y0070475D01*
X0048184Y0070475D01*
X0048285Y0070512D01*
X0048315Y0070497D01*
X0048346Y0070512D01*
X0048446Y0070475D01*
X0048553Y0070475D01*
X0048577Y0070451D01*
X0048610Y0070454D01*
X0048692Y0070385D01*
X0048793Y0070349D01*
X0048807Y0070319D01*
X0048839Y0070310D01*
X0048884Y0070233D01*
X0050277Y0070233D01*
X0050433Y0070077D01*
X0050437Y0070096D01*
X0050464Y0070115D01*
X0050467Y0070148D01*
X0050549Y0070217D01*
X0050602Y0070310D01*
X0050635Y0070319D01*
X0050649Y0070349D01*
X0050749Y0070385D01*
X0050831Y0070454D01*
X0050865Y0070451D01*
X0050888Y0070475D01*
X0050995Y0070475D01*
X0051096Y0070512D01*
X0051126Y0070497D01*
X0051157Y0070512D01*
X0051187Y0070501D01*
X0051466Y0070780D01*
X0051759Y0071072D01*
X0052457Y0071072D01*
X0051799Y0071731D01*
X0051796Y0071711D01*
X0051768Y0071692D01*
X0051766Y0071659D01*
X0051684Y0071590D01*
X0051630Y0071497D01*
X0051598Y0071489D01*
X0051584Y0071458D01*
X0051483Y0071422D01*
X0051401Y0071353D01*
X0051368Y0071356D01*
X0051344Y0071332D01*
X0051237Y0071332D01*
X0051136Y0071296D01*
X0051106Y0071310D01*
X0051076Y0071296D01*
X0050975Y0071332D01*
X0050868Y0071332D01*
X0050845Y0071356D01*
X0050811Y0071353D01*
X0050729Y0071422D01*
X0050629Y0071458D01*
X0050615Y0071489D01*
X0050582Y0071497D01*
X0050529Y0071590D01*
X0050447Y0071659D01*
X0050444Y0071692D01*
X0050416Y0071711D01*
X0050398Y0071817D01*
X0050344Y0071910D01*
X0050353Y0071942D01*
X0050334Y0071969D01*
X0050352Y0072075D01*
X0050342Y0072131D01*
X0048880Y0073594D01*
X0048880Y0074627D01*
X0049638Y0075385D01*
X0049123Y0075385D01*
X0048791Y0075718D01*
X0048512Y0075439D01*
X0047976Y0075439D01*
X0047598Y0075818D01*
X0047598Y0076354D01*
X0047976Y0076733D01*
X0048512Y0076733D01*
X0048595Y0076650D01*
X0048595Y0076660D01*
X0049123Y0077188D01*
X0049870Y0077188D01*
X0050398Y0076660D01*
X0050398Y0076145D01*
X0050414Y0076161D01*
X0050414Y0077783D01*
X0050187Y0078009D01*
X0050157Y0077998D01*
X0050126Y0078012D01*
X0050096Y0077998D01*
X0049995Y0078035D01*
X0049888Y0078035D01*
X0049865Y0078059D01*
X0049831Y0078056D01*
X0049749Y0078124D01*
X0049649Y0078161D01*
X0049635Y0078191D01*
X0049602Y0078200D01*
X0049549Y0078293D01*
X0049467Y0078362D01*
X0049464Y0078395D01*
X0049437Y0078414D01*
X0049418Y0078519D01*
X0049365Y0078612D01*
X0049373Y0078644D01*
X0049354Y0078672D01*
X0049373Y0078777D01*
X0049354Y0078883D01*
X0049373Y0078910D01*
X0049365Y0078942D01*
X0049418Y0079035D01*
X0049437Y0079141D01*
X0049464Y0079160D01*
X0049467Y0079193D01*
X0049549Y0079262D01*
X0049602Y0079355D01*
X0049635Y0079363D01*
X0049649Y0079393D01*
X0049749Y0079430D01*
X0049831Y0079499D01*
X0049865Y0079496D01*
X0049888Y0079520D01*
X0049995Y0079520D01*
X0050096Y0079556D01*
X0050126Y0079542D01*
X0050157Y0079556D01*
X0050257Y0079520D01*
X0050364Y0079520D01*
X0050388Y0079496D01*
X0050421Y0079499D01*
X0050503Y0079430D01*
X0050604Y0079393D01*
X0050618Y0079363D01*
X0050650Y0079355D01*
X0050704Y0079262D01*
X0050786Y0079193D01*
X0050789Y0079160D01*
X0050816Y0079141D01*
X0050835Y0079035D01*
X0050888Y0078942D01*
X0050880Y0078910D01*
X0050899Y0078883D01*
X0050880Y0078777D01*
X0050890Y0078721D01*
X0051121Y0078490D01*
X0051414Y0078197D01*
X0051414Y0076105D01*
X0051972Y0076663D01*
X0051972Y0085401D01*
X0051948Y0085408D01*
X0051895Y0085500D01*
X0051812Y0085569D01*
X0051810Y0085602D01*
X0051782Y0085622D01*
X0051764Y0085727D01*
X0051716Y0085810D01*
X0050861Y0085285D01*
X0048869Y0083293D01*
X0049174Y0083293D01*
X0049322Y0083145D01*
X0049322Y0083426D01*
X0049701Y0083805D01*
X0050237Y0083805D01*
X0050616Y0083426D01*
X0050616Y0082890D01*
X0050237Y0082511D01*
X0049701Y0082511D01*
X0049553Y0082659D01*
X0049553Y0082378D01*
X0049174Y0081999D01*
X0048638Y0081999D01*
X0048311Y0082326D01*
X0048311Y0079315D01*
X0048342Y0079262D01*
X0048424Y0079193D01*
X0048427Y0079160D01*
X0048454Y0079141D01*
X0048472Y0079035D01*
X0048526Y0078942D01*
X0048517Y0078910D01*
X0048537Y0078883D01*
X0048518Y0078777D01*
X0048537Y0078672D01*
X0048517Y0078644D01*
X0048526Y0078612D01*
X0048472Y0078519D01*
X0048454Y0078414D01*
X0048427Y0078395D01*
X0048424Y0078362D01*
X0048342Y0078293D01*
X0048288Y0078200D01*
X0048256Y0078191D01*
X0048242Y0078161D01*
X0048141Y0078124D01*
X0048059Y0078056D01*
X0048026Y0078059D01*
X0048002Y0078035D01*
X0047895Y0078035D01*
X0047794Y0077998D01*
X0047764Y0078012D01*
X0047734Y0077998D01*
X0047633Y0078035D01*
X0047526Y0078035D01*
X0047503Y0078059D01*
X0047469Y0078056D01*
X0047387Y0078124D01*
X0047287Y0078161D01*
X0047273Y0078191D01*
X0047240Y0078200D01*
X0047187Y0078293D01*
X0047105Y0078362D01*
X0047102Y0078395D01*
X0047074Y0078414D01*
X0047056Y0078519D01*
X0047002Y0078612D01*
X0047011Y0078644D01*
X0046992Y0078672D01*
X0047010Y0078777D01*
X0046992Y0078883D01*
X0047011Y0078910D01*
X0047002Y0078942D01*
X0047056Y0079035D01*
X0047074Y0079141D01*
X0047102Y0079160D01*
X0047105Y0079193D01*
X0047187Y0079262D01*
X0047217Y0079315D01*
X0047217Y0083188D01*
X0050024Y0085994D01*
X0050029Y0086016D01*
X0045358Y0082070D01*
X0042451Y0078447D01*
X0042908Y0078447D01*
X0043287Y0078069D01*
X0043287Y0077533D01*
X0042908Y0077154D01*
X0042372Y0077154D01*
X0041993Y0077533D01*
X0041993Y0077876D01*
X0040896Y0076510D01*
X0038543Y0072022D01*
X0038729Y0072209D01*
X0039476Y0072209D01*
X0040004Y0071681D01*
X0040004Y0070934D01*
X0039476Y0070406D01*
X0038729Y0070406D01*
X0038202Y0070934D01*
X0038202Y0071371D01*
X0037585Y0070196D01*
X0036954Y0068079D01*
X0075793Y0068079D01*
X0075621Y0068251D01*
X0075621Y0068786D01*
X0076000Y0069165D01*
X0076536Y0069165D01*
X0076915Y0068786D01*
X0076915Y0068251D01*
X0076743Y0068079D01*
X0103984Y0068079D01*
X0103645Y0069571D01*
X0103436Y0069780D01*
X0103436Y0070316D01*
X0103468Y0070348D01*
X0103038Y0072240D01*
X0101126Y0076064D01*
X0096460Y0081313D01*
X0095640Y0082088D01*
X0095434Y0081881D01*
X0094898Y0081881D01*
X0094519Y0082260D01*
X0094519Y0082796D01*
X0094699Y0082976D01*
X0093544Y0084068D01*
X0093584Y0084030D02*
X0087764Y0084030D01*
X0087465Y0084328D02*
X0091051Y0084328D01*
X0090753Y0084627D02*
X0087167Y0084627D01*
X0086868Y0084925D02*
X0090454Y0084925D01*
X0090156Y0085224D02*
X0086570Y0085224D01*
X0086271Y0085522D02*
X0087101Y0085522D01*
X0086803Y0085821D02*
X0086021Y0085821D01*
X0086021Y0086119D02*
X0086504Y0086119D01*
X0086206Y0086418D02*
X0086021Y0086418D01*
X0084731Y0086418D02*
X0084459Y0086418D01*
X0084731Y0086119D02*
X0083685Y0086119D01*
X0083685Y0085821D02*
X0084731Y0085821D01*
X0084731Y0085522D02*
X0083913Y0085522D01*
X0084211Y0085224D02*
X0084745Y0085224D01*
X0084510Y0084925D02*
X0085043Y0084925D01*
X0085342Y0084627D02*
X0084577Y0084627D01*
X0084577Y0084328D02*
X0085640Y0084328D01*
X0085939Y0084030D02*
X0084577Y0084030D01*
X0084577Y0083731D02*
X0086237Y0083731D01*
X0086536Y0083433D02*
X0085261Y0083433D01*
X0085559Y0083134D02*
X0086834Y0083134D01*
X0087133Y0082836D02*
X0085622Y0082836D01*
X0085622Y0082537D02*
X0087431Y0082537D01*
X0087730Y0082239D02*
X0086094Y0082239D01*
X0086285Y0081940D02*
X0086339Y0081940D01*
X0087308Y0081940D02*
X0088028Y0081940D01*
X0088327Y0081642D02*
X0087606Y0081642D01*
X0087725Y0081343D02*
X0088625Y0081343D01*
X0088924Y0081045D02*
X0087725Y0081045D01*
X0087694Y0080746D02*
X0089280Y0080746D01*
X0089307Y0080773D02*
X0088928Y0080394D01*
X0088928Y0079858D01*
X0089307Y0079480D01*
X0089843Y0079480D01*
X0090222Y0079858D01*
X0090222Y0080394D01*
X0089843Y0080773D01*
X0089307Y0080773D01*
X0088982Y0080448D02*
X0087395Y0080448D01*
X0086251Y0080448D02*
X0084577Y0080448D01*
X0084577Y0080746D02*
X0085953Y0080746D01*
X0085922Y0081045D02*
X0084577Y0081045D01*
X0084577Y0081343D02*
X0085160Y0081343D01*
X0084991Y0081642D02*
X0084577Y0081642D01*
X0084577Y0081940D02*
X0084991Y0081940D01*
X0084625Y0082239D02*
X0084577Y0082239D01*
X0084577Y0083433D02*
X0084690Y0083433D01*
X0083287Y0083433D02*
X0081355Y0083433D01*
X0081653Y0083134D02*
X0083287Y0083134D01*
X0083287Y0082836D02*
X0081952Y0082836D01*
X0082110Y0082537D02*
X0083287Y0082537D01*
X0083287Y0082239D02*
X0082110Y0082239D01*
X0082110Y0081940D02*
X0083287Y0081940D01*
X0083287Y0081642D02*
X0082110Y0081642D01*
X0082110Y0081343D02*
X0083287Y0081343D01*
X0083287Y0081045D02*
X0082110Y0081045D01*
X0082110Y0080746D02*
X0083287Y0080746D01*
X0083287Y0080448D02*
X0082110Y0080448D01*
X0082110Y0080149D02*
X0083287Y0080149D01*
X0083287Y0079851D02*
X0082110Y0079851D01*
X0082110Y0079552D02*
X0083287Y0079552D01*
X0083287Y0079253D02*
X0082110Y0079253D01*
X0082110Y0078955D02*
X0083287Y0078955D01*
X0083287Y0078656D02*
X0082110Y0078656D01*
X0082110Y0078358D02*
X0082561Y0078358D01*
X0082393Y0078059D02*
X0082219Y0078059D01*
X0082226Y0077761D02*
X0082393Y0077761D01*
X0082584Y0077462D02*
X0082073Y0077462D01*
X0081759Y0077164D02*
X0082946Y0077164D01*
X0082482Y0076865D02*
X0081460Y0076865D01*
X0081162Y0076567D02*
X0082210Y0076567D01*
X0081911Y0076268D02*
X0080863Y0076268D01*
X0080565Y0075970D02*
X0081745Y0075970D01*
X0081391Y0075671D02*
X0080266Y0075671D01*
X0079968Y0075373D02*
X0081075Y0075373D01*
X0080945Y0075074D02*
X0079669Y0075074D01*
X0080942Y0074776D02*
X0069894Y0074776D01*
X0069842Y0074828D02*
X0069327Y0074828D01*
X0069327Y0076140D01*
X0069327Y0076221D01*
X0069339Y0076286D01*
X0069392Y0076379D01*
X0069384Y0076411D01*
X0069403Y0076438D01*
X0069384Y0076544D01*
X0069403Y0076649D01*
X0069384Y0076677D01*
X0069392Y0076709D01*
X0069339Y0076802D01*
X0069328Y0076861D01*
X0069680Y0076508D01*
X0069688Y0076480D01*
X0069669Y0076452D01*
X0069688Y0076347D01*
X0069669Y0076241D01*
X0069688Y0076214D01*
X0069679Y0076182D01*
X0069733Y0076089D01*
X0069752Y0075984D01*
X0069779Y0075964D01*
X0069782Y0075931D01*
X0069864Y0075862D01*
X0069917Y0075770D01*
X0069950Y0075761D01*
X0069964Y0075731D01*
X0070064Y0075694D01*
X0070146Y0075625D01*
X0070180Y0075628D01*
X0070203Y0075605D01*
X0070310Y0075605D01*
X0070411Y0075568D01*
X0070441Y0075582D01*
X0070472Y0075568D01*
X0070572Y0075605D01*
X0070679Y0075605D01*
X0070703Y0075628D01*
X0070736Y0075625D01*
X0070818Y0075694D01*
X0070919Y0075731D01*
X0070933Y0075761D01*
X0070965Y0075770D01*
X0071019Y0075862D01*
X0071101Y0075931D01*
X0071104Y0075964D01*
X0071131Y0075984D01*
X0071150Y0076089D01*
X0071203Y0076182D01*
X0071195Y0076214D01*
X0071214Y0076241D01*
X0071195Y0076347D01*
X0071214Y0076452D01*
X0071195Y0076480D01*
X0071203Y0076512D01*
X0071150Y0076605D01*
X0071131Y0076710D01*
X0071104Y0076729D01*
X0071101Y0076763D01*
X0071087Y0076774D01*
X0071087Y0076927D01*
X0070724Y0077290D01*
X0071088Y0077654D01*
X0071088Y0078190D01*
X0070709Y0078568D01*
X0070194Y0078568D01*
X0070194Y0084636D01*
X0070582Y0085024D01*
X0070582Y0084744D01*
X0070961Y0084365D01*
X0071497Y0084365D01*
X0071876Y0084744D01*
X0071876Y0085280D01*
X0071497Y0085659D01*
X0071217Y0085659D01*
X0072186Y0086628D01*
X0072254Y0086628D01*
X0072278Y0086652D01*
X0072311Y0086649D01*
X0072393Y0086718D01*
X0072494Y0086754D01*
X0072508Y0086785D01*
X0072540Y0086793D01*
X0072594Y0086886D01*
X0072676Y0086955D01*
X0072678Y0086988D01*
X0072706Y0087007D01*
X0072724Y0087113D01*
X0072778Y0087205D01*
X0072769Y0087238D01*
X0072789Y0087265D01*
X0072770Y0087370D01*
X0072789Y0087476D01*
X0072769Y0087503D01*
X0072778Y0087536D01*
X0072724Y0087628D01*
X0072706Y0087734D01*
X0072678Y0087753D01*
X0072676Y0087786D01*
X0072594Y0087855D01*
X0072540Y0087948D01*
X0072508Y0087956D01*
X0072494Y0087987D01*
X0072393Y0088023D01*
X0072311Y0088092D01*
X0072278Y0088089D01*
X0072254Y0088113D01*
X0072147Y0088113D01*
X0072046Y0088149D01*
X0072016Y0088135D01*
X0071986Y0088149D01*
X0071885Y0088113D01*
X0071778Y0088113D01*
X0071755Y0088089D01*
X0071721Y0088092D01*
X0071639Y0088023D01*
X0071539Y0087987D01*
X0071525Y0087956D01*
X0071492Y0087948D01*
X0071439Y0087855D01*
X0071357Y0087786D01*
X0071354Y0087753D01*
X0071326Y0087734D01*
X0071308Y0087628D01*
X0071254Y0087536D01*
X0071257Y0087524D01*
X0071088Y0087355D01*
X0071088Y0087638D01*
X0070709Y0088017D01*
X0070173Y0088017D01*
X0069794Y0087638D01*
X0069794Y0087103D01*
X0070173Y0086724D01*
X0070457Y0086724D01*
X0069549Y0085816D01*
X0069512Y0085853D01*
X0069512Y0088597D01*
X0069555Y0088681D01*
X0069636Y0088763D01*
X0069636Y0088789D01*
X0069658Y0088805D01*
X0069676Y0088919D01*
X0069728Y0089021D01*
X0069720Y0089046D01*
X0069735Y0089068D01*
X0069717Y0089181D01*
X0069735Y0089295D01*
X0069720Y0089317D01*
X0069728Y0089342D01*
X0069676Y0089444D01*
X0069658Y0089558D01*
X0069636Y0089574D01*
X0069636Y0089600D01*
X0069618Y0089619D01*
X0070291Y0089619D01*
X0070318Y0089592D01*
X0070173Y0089592D01*
X0069794Y0089213D01*
X0069794Y0088677D01*
X0070173Y0088298D01*
X0070709Y0088298D01*
X0071088Y0088677D01*
X0071088Y0088821D01*
X0071326Y0088584D01*
X0071326Y0088582D01*
X0071330Y0088579D01*
X0071354Y0088555D01*
X0071357Y0088530D01*
X0071439Y0088461D01*
X0071492Y0088368D01*
X0071525Y0088359D01*
X0071539Y0088329D01*
X0071605Y0088305D01*
X0071708Y0088202D01*
X0071889Y0088202D01*
X0071986Y0088166D01*
X0072016Y0088180D01*
X0072046Y0088166D01*
X0072143Y0088202D01*
X0072324Y0088202D01*
X0072428Y0088305D01*
X0072494Y0088329D01*
X0072508Y0088359D01*
X0072540Y0088368D01*
X0072594Y0088461D01*
X0072676Y0088530D01*
X0072678Y0088555D01*
X0072702Y0088579D01*
X0072706Y0088582D01*
X0072706Y0088584D01*
X0072760Y0088637D01*
X0072760Y0088749D01*
X0072778Y0088780D01*
X0072769Y0088812D01*
X0072789Y0088840D01*
X0072770Y0088945D01*
X0072789Y0089051D01*
X0072769Y0089078D01*
X0072778Y0089110D01*
X0072760Y0089142D01*
X0072760Y0089253D01*
X0072706Y0089307D01*
X0072706Y0089309D01*
X0072702Y0089311D01*
X0072678Y0089335D01*
X0072676Y0089361D01*
X0072594Y0089430D01*
X0072540Y0089523D01*
X0072508Y0089531D01*
X0072494Y0089561D01*
X0072428Y0089585D01*
X0070907Y0091106D01*
X0065532Y0091106D01*
X0065506Y0091132D01*
X0065479Y0091132D01*
X0065464Y0091154D01*
X0065350Y0091172D01*
X0065247Y0091224D01*
X0065222Y0091216D01*
X0065201Y0091231D01*
X0065087Y0091213D01*
X0064973Y0091231D01*
X0064952Y0091216D01*
X0064927Y0091224D01*
X0064824Y0091172D01*
X0064710Y0091154D01*
X0064695Y0091132D01*
X0064668Y0091132D01*
X0064587Y0091051D01*
X0064484Y0090999D01*
X0064476Y0090973D01*
X0064451Y0090965D01*
X0064399Y0090863D01*
X0064317Y0090781D01*
X0064317Y0090755D01*
X0064296Y0090739D01*
X0064278Y0090626D01*
X0064226Y0090523D01*
X0064234Y0090498D01*
X0064218Y0090476D01*
X0064236Y0090363D01*
X0064218Y0090249D01*
X0064234Y0090227D01*
X0064226Y0090202D01*
X0064278Y0090100D01*
X0064296Y0089986D01*
X0064317Y0089970D01*
X0064317Y0089944D01*
X0064399Y0089862D01*
X0064451Y0089760D01*
X0064476Y0089752D01*
X0064484Y0089727D01*
X0064587Y0089674D01*
X0064668Y0089593D01*
X0064695Y0089593D01*
X0064710Y0089571D01*
X0064824Y0089553D01*
X0064927Y0089501D01*
X0064952Y0089509D01*
X0064973Y0089494D01*
X0065087Y0089512D01*
X0065201Y0089494D01*
X0065222Y0089509D01*
X0065247Y0089501D01*
X0065350Y0089553D01*
X0065464Y0089571D01*
X0065479Y0089593D01*
X0065506Y0089593D01*
X0065532Y0089619D01*
X0066499Y0089619D01*
X0066172Y0089292D01*
X0066172Y0088756D01*
X0066551Y0088377D01*
X0067087Y0088377D01*
X0067466Y0088756D01*
X0067466Y0089292D01*
X0067139Y0089619D01*
X0068115Y0089619D01*
X0068097Y0089600D01*
X0068097Y0089574D01*
X0068075Y0089558D01*
X0068057Y0089444D01*
X0068005Y0089342D01*
X0068013Y0089317D01*
X0067998Y0089295D01*
X0068016Y0089181D01*
X0067998Y0089068D01*
X0068013Y0089046D01*
X0068005Y0089021D01*
X0068057Y0088919D01*
X0068075Y0088805D01*
X0068097Y0088789D01*
X0068097Y0088763D01*
X0068178Y0088681D01*
X0068221Y0088597D01*
X0068221Y0085319D01*
X0068904Y0084636D01*
X0068904Y0077285D01*
X0068924Y0077265D01*
X0068892Y0077262D01*
X0068868Y0077286D01*
X0068761Y0077286D01*
X0068661Y0077323D01*
X0068630Y0077309D01*
X0068600Y0077323D01*
X0068499Y0077286D01*
X0068392Y0077286D01*
X0068369Y0077262D01*
X0068335Y0077265D01*
X0068253Y0077196D01*
X0068153Y0077160D01*
X0068139Y0077130D01*
X0068106Y0077121D01*
X0068053Y0077028D01*
X0067971Y0076959D01*
X0067968Y0076926D01*
X0067941Y0076907D01*
X0067922Y0076802D01*
X0067868Y0076709D01*
X0067877Y0076677D01*
X0067858Y0076649D01*
X0067877Y0076544D01*
X0067858Y0076438D01*
X0067877Y0076411D01*
X0067868Y0076379D01*
X0067922Y0076286D01*
X0067941Y0076180D01*
X0067968Y0076161D01*
X0067971Y0076128D01*
X0068053Y0076059D01*
X0068106Y0075966D01*
X0068139Y0075958D01*
X0068153Y0075928D01*
X0068253Y0075891D01*
X0068327Y0075829D01*
X0068327Y0070946D01*
X0068303Y0070940D01*
X0068250Y0070847D01*
X0068168Y0070778D01*
X0068165Y0070745D01*
X0068137Y0070726D01*
X0068119Y0070620D01*
X0068065Y0070528D01*
X0068074Y0070495D01*
X0068055Y0070468D01*
X0068073Y0070363D01*
X0068055Y0070257D01*
X0068074Y0070230D01*
X0068065Y0070197D01*
X0068119Y0070105D01*
X0068137Y0069999D01*
X0068165Y0069980D01*
X0068168Y0069947D01*
X0068250Y0069878D01*
X0068303Y0069785D01*
X0068336Y0069777D01*
X0068350Y0069746D01*
X0068450Y0069710D01*
X0068532Y0069641D01*
X0068566Y0069644D01*
X0068589Y0069620D01*
X0068696Y0069620D01*
X0068797Y0069584D01*
X0068827Y0069598D01*
X0068857Y0069584D01*
X0068958Y0069620D01*
X0069065Y0069620D01*
X0069089Y0069644D01*
X0069122Y0069641D01*
X0069204Y0069710D01*
X0069305Y0069746D01*
X0069319Y0069777D01*
X0069351Y0069785D01*
X0069405Y0069878D01*
X0069487Y0069947D01*
X0069490Y0069980D01*
X0069517Y0069999D01*
X0069535Y0070105D01*
X0069589Y0070197D01*
X0069580Y0070230D01*
X0069600Y0070257D01*
X0069581Y0070363D01*
X0069600Y0070468D01*
X0069580Y0070495D01*
X0069589Y0070528D01*
X0069535Y0070620D01*
X0069517Y0070726D01*
X0069490Y0070745D01*
X0069487Y0070778D01*
X0069405Y0070847D01*
X0069351Y0070940D01*
X0069327Y0070946D01*
X0069327Y0073535D01*
X0069842Y0073535D01*
X0070221Y0073914D01*
X0070221Y0074449D01*
X0069842Y0074828D01*
X0070193Y0074477D02*
X0081085Y0074477D01*
X0081593Y0074179D02*
X0070221Y0074179D01*
X0070188Y0073880D02*
X0081745Y0073880D01*
X0081745Y0073582D02*
X0069889Y0073582D01*
X0069327Y0073283D02*
X0081745Y0073283D01*
X0081745Y0072985D02*
X0069327Y0072985D01*
X0069327Y0072686D02*
X0081745Y0072686D01*
X0081745Y0072388D02*
X0069327Y0072388D01*
X0069327Y0072089D02*
X0071886Y0072089D01*
X0071715Y0071918D02*
X0072094Y0072297D01*
X0072630Y0072297D01*
X0073009Y0071918D01*
X0073009Y0071382D01*
X0072630Y0071003D01*
X0072094Y0071003D01*
X0071715Y0071382D01*
X0071715Y0071918D01*
X0071715Y0071791D02*
X0069327Y0071791D01*
X0069327Y0071492D02*
X0071715Y0071492D01*
X0071903Y0071194D02*
X0069327Y0071194D01*
X0069377Y0070895D02*
X0075818Y0070895D01*
X0075778Y0070855D02*
X0075747Y0070866D01*
X0075717Y0070852D01*
X0075687Y0070866D01*
X0075586Y0070829D01*
X0075479Y0070829D01*
X0075455Y0070806D01*
X0075422Y0070809D01*
X0075340Y0070740D01*
X0075239Y0070703D01*
X0075225Y0070673D01*
X0075193Y0070664D01*
X0075140Y0070572D01*
X0075057Y0070503D01*
X0075055Y0070469D01*
X0075027Y0070450D01*
X0075009Y0070345D01*
X0074955Y0070252D01*
X0074964Y0070220D01*
X0074945Y0070192D01*
X0074963Y0070087D01*
X0074945Y0069982D01*
X0074964Y0069954D01*
X0074955Y0069922D01*
X0075009Y0069829D01*
X0075027Y0069724D01*
X0075055Y0069705D01*
X0075057Y0069671D01*
X0075140Y0069602D01*
X0075193Y0069510D01*
X0075225Y0069501D01*
X0075239Y0069471D01*
X0075340Y0069434D01*
X0075422Y0069365D01*
X0075455Y0069368D01*
X0075479Y0069345D01*
X0075586Y0069345D01*
X0075687Y0069308D01*
X0075717Y0069322D01*
X0075747Y0069308D01*
X0075848Y0069345D01*
X0075955Y0069345D01*
X0075979Y0069368D01*
X0076012Y0069365D01*
X0076094Y0069434D01*
X0076194Y0069471D01*
X0076209Y0069501D01*
X0076241Y0069510D01*
X0076294Y0069602D01*
X0076376Y0069671D01*
X0076379Y0069705D01*
X0076407Y0069724D01*
X0076425Y0069829D01*
X0076479Y0069922D01*
X0076470Y0069954D01*
X0076489Y0069982D01*
X0076471Y0070087D01*
X0076481Y0070144D01*
X0076632Y0070294D01*
X0079684Y0070294D01*
X0080032Y0069947D01*
X0080042Y0069890D01*
X0080023Y0069785D01*
X0080042Y0069757D01*
X0080034Y0069725D01*
X0080087Y0069632D01*
X0080106Y0069527D01*
X0080133Y0069508D01*
X0080136Y0069474D01*
X0080218Y0069406D01*
X0080272Y0069313D01*
X0080304Y0069304D01*
X0080318Y0069274D01*
X0080419Y0069237D01*
X0080501Y0069169D01*
X0080534Y0069171D01*
X0080558Y0069148D01*
X0080665Y0069148D01*
X0080765Y0069111D01*
X0080796Y0069125D01*
X0080826Y0069111D01*
X0080927Y0069148D01*
X0081034Y0069148D01*
X0081057Y0069171D01*
X0081091Y0069169D01*
X0081173Y0069237D01*
X0081273Y0069274D01*
X0081287Y0069304D01*
X0081320Y0069313D01*
X0081373Y0069406D01*
X0081455Y0069474D01*
X0081458Y0069508D01*
X0081485Y0069527D01*
X0081504Y0069632D01*
X0081558Y0069725D01*
X0081549Y0069757D01*
X0081568Y0069785D01*
X0081549Y0069890D01*
X0081568Y0069996D01*
X0081549Y0070023D01*
X0081558Y0070055D01*
X0081504Y0070148D01*
X0081485Y0070253D01*
X0081458Y0070273D01*
X0081455Y0070306D01*
X0081373Y0070375D01*
X0081320Y0070467D01*
X0081287Y0070476D01*
X0081273Y0070506D01*
X0081173Y0070543D01*
X0081091Y0070612D01*
X0081057Y0070609D01*
X0081034Y0070632D01*
X0080927Y0070632D01*
X0080826Y0070669D01*
X0080796Y0070655D01*
X0080765Y0070669D01*
X0080735Y0070658D01*
X0080391Y0071002D01*
X0080098Y0071294D01*
X0076217Y0071294D01*
X0075924Y0071002D01*
X0075778Y0070855D01*
X0076116Y0071194D02*
X0072820Y0071194D01*
X0073009Y0071492D02*
X0081745Y0071492D01*
X0081745Y0071194D02*
X0080199Y0071194D01*
X0080498Y0070895D02*
X0081745Y0070895D01*
X0081793Y0070597D02*
X0081109Y0070597D01*
X0081456Y0070298D02*
X0082092Y0070298D01*
X0082390Y0070000D02*
X0081565Y0070000D01*
X0081544Y0069701D02*
X0082493Y0069701D01*
X0082670Y0069403D02*
X0081371Y0069403D01*
X0080796Y0069890D02*
X0079891Y0070794D01*
X0076424Y0070794D01*
X0075717Y0070087D01*
X0075154Y0070597D02*
X0071358Y0070597D01*
X0071482Y0070473D02*
X0071103Y0070852D01*
X0070567Y0070852D01*
X0070188Y0070473D01*
X0070188Y0069937D01*
X0070567Y0069558D01*
X0071103Y0069558D01*
X0071482Y0069937D01*
X0071482Y0070473D01*
X0071482Y0070298D02*
X0074982Y0070298D01*
X0074948Y0070000D02*
X0071482Y0070000D01*
X0071246Y0069701D02*
X0075055Y0069701D01*
X0075378Y0069403D02*
X0070616Y0069403D01*
X0070616Y0069489D02*
X0070237Y0069868D01*
X0069701Y0069868D01*
X0069322Y0069489D01*
X0069322Y0068953D01*
X0069701Y0068574D01*
X0070237Y0068574D01*
X0070616Y0068953D01*
X0070616Y0069489D01*
X0070424Y0069701D02*
X0070403Y0069701D01*
X0070188Y0070000D02*
X0069517Y0070000D01*
X0069534Y0069701D02*
X0069194Y0069701D01*
X0069322Y0069403D02*
X0052560Y0069403D01*
X0052261Y0069104D02*
X0069322Y0069104D01*
X0069469Y0068806D02*
X0051963Y0068806D01*
X0051664Y0068507D02*
X0075621Y0068507D01*
X0075640Y0068806D02*
X0070468Y0068806D01*
X0070616Y0069104D02*
X0075939Y0069104D01*
X0076056Y0069403D02*
X0080220Y0069403D01*
X0080048Y0069701D02*
X0076379Y0069701D01*
X0076486Y0070000D02*
X0079979Y0070000D01*
X0081745Y0071791D02*
X0073009Y0071791D01*
X0072837Y0072089D02*
X0081745Y0072089D01*
X0083232Y0072089D02*
X0089960Y0072089D01*
X0089934Y0072115D02*
X0090462Y0071587D01*
X0091208Y0071587D01*
X0091736Y0072115D01*
X0091736Y0072862D01*
X0091208Y0073390D01*
X0090462Y0073390D01*
X0089934Y0072862D01*
X0089934Y0072115D01*
X0089934Y0072388D02*
X0083232Y0072388D01*
X0083232Y0072686D02*
X0089934Y0072686D01*
X0090057Y0072985D02*
X0083232Y0072985D01*
X0083232Y0073283D02*
X0090355Y0073283D01*
X0091315Y0073283D02*
X0102516Y0073283D01*
X0102666Y0072985D02*
X0096655Y0072985D01*
X0096638Y0073002D02*
X0096103Y0073002D01*
X0095824Y0072723D01*
X0095824Y0072823D01*
X0095445Y0073202D01*
X0094910Y0073202D01*
X0094531Y0072823D01*
X0094531Y0072288D01*
X0094910Y0071909D01*
X0094927Y0071909D01*
X0094700Y0071682D01*
X0094700Y0071146D01*
X0095024Y0070822D01*
X0091482Y0070822D01*
X0091466Y0070850D01*
X0091434Y0070859D01*
X0091420Y0070889D01*
X0091319Y0070926D01*
X0091237Y0070994D01*
X0091204Y0070991D01*
X0091180Y0071015D01*
X0091073Y0071015D01*
X0090972Y0071052D01*
X0090942Y0071038D01*
X0090912Y0071052D01*
X0090811Y0071015D01*
X0090704Y0071015D01*
X0090681Y0070991D01*
X0090647Y0070994D01*
X0090565Y0070926D01*
X0090465Y0070889D01*
X0090451Y0070859D01*
X0090418Y0070850D01*
X0090365Y0070757D01*
X0090283Y0070689D01*
X0090280Y0070655D01*
X0090252Y0070636D01*
X0090234Y0070531D01*
X0090180Y0070438D01*
X0090189Y0070406D01*
X0090170Y0070378D01*
X0090188Y0070273D01*
X0090170Y0070167D01*
X0090189Y0070140D01*
X0090180Y0070108D01*
X0090234Y0070015D01*
X0090252Y0069910D01*
X0090280Y0069890D01*
X0090283Y0069857D01*
X0090365Y0069788D01*
X0090418Y0069696D01*
X0090450Y0069687D01*
X0090465Y0069657D01*
X0090565Y0069620D01*
X0090647Y0069551D01*
X0090681Y0069554D01*
X0090704Y0069530D01*
X0090811Y0069530D01*
X0090912Y0069494D01*
X0090942Y0069508D01*
X0090972Y0069494D01*
X0091073Y0069530D01*
X0091180Y0069530D01*
X0091204Y0069554D01*
X0091237Y0069551D01*
X0091319Y0069620D01*
X0091420Y0069657D01*
X0091434Y0069687D01*
X0091466Y0069696D01*
X0091520Y0069788D01*
X0091560Y0069822D01*
X0094369Y0069822D01*
X0094369Y0069307D01*
X0094747Y0068928D01*
X0095283Y0068928D01*
X0095662Y0069307D01*
X0095662Y0069822D01*
X0095668Y0069822D01*
X0095741Y0069750D01*
X0095751Y0069693D01*
X0095732Y0069588D01*
X0095751Y0069560D01*
X0095742Y0069528D01*
X0095796Y0069435D01*
X0095815Y0069330D01*
X0095842Y0069311D01*
X0095845Y0069278D01*
X0095927Y0069209D01*
X0095980Y0069116D01*
X0096013Y0069107D01*
X0096027Y0069077D01*
X0096127Y0069041D01*
X0096209Y0068972D01*
X0096243Y0068975D01*
X0096266Y0068951D01*
X0096373Y0068951D01*
X0096474Y0068914D01*
X0096504Y0068928D01*
X0096535Y0068914D01*
X0096635Y0068951D01*
X0096742Y0068951D01*
X0096766Y0068975D01*
X0096799Y0068972D01*
X0096881Y0069041D01*
X0096982Y0069077D01*
X0096996Y0069107D01*
X0097028Y0069116D01*
X0097082Y0069209D01*
X0097164Y0069278D01*
X0097167Y0069311D01*
X0097194Y0069330D01*
X0097213Y0069435D01*
X0097266Y0069528D01*
X0097258Y0069560D01*
X0097277Y0069588D01*
X0097258Y0069693D01*
X0097277Y0069799D01*
X0097258Y0069826D01*
X0097266Y0069858D01*
X0097213Y0069951D01*
X0097194Y0070057D01*
X0097167Y0070076D01*
X0097164Y0070109D01*
X0097082Y0070178D01*
X0097028Y0070271D01*
X0096996Y0070279D01*
X0096982Y0070309D01*
X0096881Y0070346D01*
X0096799Y0070415D01*
X0096766Y0070412D01*
X0096742Y0070436D01*
X0096635Y0070436D01*
X0096535Y0070472D01*
X0096504Y0070458D01*
X0096474Y0070472D01*
X0096444Y0070461D01*
X0096376Y0070529D01*
X0096283Y0070621D01*
X0096615Y0070621D01*
X0096994Y0071000D01*
X0096994Y0071165D01*
X0097457Y0071165D01*
X0097836Y0071543D01*
X0097836Y0072079D01*
X0097457Y0072458D01*
X0097017Y0072458D01*
X0097017Y0072623D01*
X0096638Y0073002D01*
X0096954Y0072686D02*
X0102815Y0072686D01*
X0102964Y0072388D02*
X0097528Y0072388D01*
X0097826Y0072089D02*
X0099052Y0072089D01*
X0099087Y0072124D02*
X0098708Y0071745D01*
X0098708Y0071209D01*
X0099087Y0070830D01*
X0099623Y0070830D01*
X0100002Y0071209D01*
X0100002Y0071745D01*
X0099623Y0072124D01*
X0099087Y0072124D01*
X0098754Y0071791D02*
X0097836Y0071791D01*
X0097785Y0071492D02*
X0098708Y0071492D01*
X0098723Y0071194D02*
X0097486Y0071194D01*
X0096889Y0070895D02*
X0099022Y0070895D01*
X0099688Y0070895D02*
X0103344Y0070895D01*
X0103412Y0070597D02*
X0096308Y0070597D01*
X0095876Y0070322D02*
X0090991Y0070322D01*
X0090942Y0070273D01*
X0090236Y0070000D02*
X0084351Y0070000D01*
X0084319Y0070298D02*
X0090184Y0070298D01*
X0090245Y0070597D02*
X0084171Y0070597D01*
X0083873Y0070895D02*
X0090482Y0070895D01*
X0091403Y0070895D02*
X0094951Y0070895D01*
X0094700Y0071194D02*
X0083300Y0071194D01*
X0083232Y0071492D02*
X0094700Y0071492D01*
X0094809Y0071791D02*
X0091412Y0071791D01*
X0091710Y0072089D02*
X0094729Y0072089D01*
X0094531Y0072388D02*
X0091736Y0072388D01*
X0091736Y0072686D02*
X0094531Y0072686D01*
X0094692Y0072985D02*
X0091613Y0072985D01*
X0090258Y0071791D02*
X0083232Y0071791D01*
X0083232Y0073582D02*
X0102367Y0073582D01*
X0102218Y0073880D02*
X0098149Y0073880D01*
X0098281Y0074012D02*
X0097902Y0073633D01*
X0097366Y0073633D01*
X0096987Y0074012D01*
X0096987Y0074548D01*
X0097366Y0074927D01*
X0097902Y0074927D01*
X0098281Y0074548D01*
X0098281Y0074012D01*
X0098281Y0074179D02*
X0102069Y0074179D01*
X0101919Y0074477D02*
X0098281Y0074477D01*
X0098053Y0074776D02*
X0101770Y0074776D01*
X0101621Y0075074D02*
X0097328Y0075074D01*
X0097348Y0075095D02*
X0096969Y0074716D01*
X0096433Y0074716D01*
X0096054Y0075095D01*
X0096054Y0075631D01*
X0096433Y0076009D01*
X0096969Y0076009D01*
X0097348Y0075631D01*
X0097348Y0075095D01*
X0097348Y0075373D02*
X0101472Y0075373D01*
X0101322Y0075671D02*
X0097307Y0075671D01*
X0097009Y0075970D02*
X0101173Y0075970D01*
X0100944Y0076268D02*
X0095831Y0076268D01*
X0095831Y0076326D02*
X0095303Y0076854D01*
X0094556Y0076854D01*
X0094028Y0076326D01*
X0094028Y0075580D01*
X0094556Y0075052D01*
X0095303Y0075052D01*
X0095831Y0075580D01*
X0095831Y0076326D01*
X0095590Y0076567D02*
X0100679Y0076567D01*
X0100414Y0076865D02*
X0084473Y0076865D01*
X0084577Y0077164D02*
X0100148Y0077164D01*
X0099883Y0077462D02*
X0084577Y0077462D01*
X0084577Y0077761D02*
X0099618Y0077761D01*
X0099352Y0078059D02*
X0084577Y0078059D01*
X0084577Y0078358D02*
X0099087Y0078358D01*
X0098822Y0078656D02*
X0093090Y0078656D01*
X0092875Y0078656D02*
X0084577Y0078656D01*
X0084577Y0078955D02*
X0092367Y0078955D01*
X0092224Y0079253D02*
X0084577Y0079253D01*
X0084577Y0079552D02*
X0089235Y0079552D01*
X0088936Y0079851D02*
X0084577Y0079851D01*
X0084577Y0080149D02*
X0088928Y0080149D01*
X0089870Y0080746D02*
X0090731Y0080746D01*
X0091030Y0080448D02*
X0090169Y0080448D01*
X0090222Y0080149D02*
X0091328Y0080149D01*
X0091627Y0079851D02*
X0090214Y0079851D01*
X0089916Y0079552D02*
X0091925Y0079552D01*
X0092855Y0080448D02*
X0097230Y0080448D01*
X0096964Y0080746D02*
X0092556Y0080746D01*
X0092258Y0081045D02*
X0093719Y0081045D01*
X0093907Y0080856D02*
X0093528Y0081235D01*
X0093528Y0081771D01*
X0093907Y0082150D01*
X0094443Y0082150D01*
X0094822Y0081771D01*
X0094822Y0081235D01*
X0094443Y0080856D01*
X0093907Y0080856D01*
X0093528Y0081343D02*
X0091959Y0081343D01*
X0091661Y0081642D02*
X0093528Y0081642D01*
X0093697Y0081940D02*
X0091362Y0081940D01*
X0090970Y0082239D02*
X0094540Y0082239D01*
X0094519Y0082537D02*
X0090970Y0082537D01*
X0090852Y0082836D02*
X0094559Y0082836D01*
X0094532Y0083134D02*
X0088659Y0083134D01*
X0088361Y0083433D02*
X0094216Y0083433D01*
X0093900Y0083731D02*
X0088062Y0083731D01*
X0088958Y0082836D02*
X0089795Y0082836D01*
X0089676Y0082537D02*
X0089256Y0082537D01*
X0089555Y0082239D02*
X0089676Y0082239D01*
X0093221Y0080149D02*
X0097495Y0080149D01*
X0097760Y0079851D02*
X0093609Y0079851D01*
X0093739Y0079552D02*
X0098026Y0079552D01*
X0098291Y0079253D02*
X0093741Y0079253D01*
X0093598Y0078955D02*
X0098556Y0078955D01*
X0096699Y0081045D02*
X0094631Y0081045D01*
X0094822Y0081343D02*
X0096429Y0081343D01*
X0096113Y0081642D02*
X0094822Y0081642D01*
X0094839Y0081940D02*
X0094653Y0081940D01*
X0095493Y0081940D02*
X0095796Y0081940D01*
X0094269Y0076567D02*
X0089416Y0076567D01*
X0089604Y0076379D02*
X0089225Y0076757D01*
X0088689Y0076757D01*
X0088310Y0076379D01*
X0088310Y0075843D01*
X0088689Y0075464D01*
X0088940Y0075464D01*
X0088940Y0075055D01*
X0089319Y0074676D01*
X0089855Y0074676D01*
X0090234Y0075055D01*
X0090234Y0075591D01*
X0089855Y0075970D01*
X0089604Y0075970D01*
X0089604Y0076379D01*
X0089604Y0076268D02*
X0094028Y0076268D01*
X0094028Y0075970D02*
X0089855Y0075970D01*
X0090154Y0075671D02*
X0094028Y0075671D01*
X0094235Y0075373D02*
X0090234Y0075373D01*
X0090234Y0075074D02*
X0094534Y0075074D01*
X0095325Y0075074D02*
X0096075Y0075074D01*
X0096054Y0075373D02*
X0095624Y0075373D01*
X0095831Y0075671D02*
X0096095Y0075671D01*
X0095831Y0075970D02*
X0096394Y0075970D01*
X0096373Y0074776D02*
X0089954Y0074776D01*
X0089220Y0074776D02*
X0083232Y0074776D01*
X0083232Y0075074D02*
X0088940Y0075074D01*
X0088940Y0075373D02*
X0083232Y0075373D01*
X0083418Y0075671D02*
X0088482Y0075671D01*
X0088310Y0075970D02*
X0083716Y0075970D01*
X0083876Y0076268D02*
X0088310Y0076268D01*
X0088499Y0076567D02*
X0084174Y0076567D01*
X0083232Y0074477D02*
X0096987Y0074477D01*
X0096987Y0074179D02*
X0083232Y0074179D01*
X0083232Y0073880D02*
X0097119Y0073880D01*
X0097029Y0074776D02*
X0097215Y0074776D01*
X0096086Y0072985D02*
X0095663Y0072985D01*
X0095876Y0070322D02*
X0096504Y0069693D01*
X0095749Y0069701D02*
X0095662Y0069701D01*
X0095662Y0069403D02*
X0095802Y0069403D01*
X0096014Y0069104D02*
X0095459Y0069104D01*
X0094572Y0069104D02*
X0084789Y0069104D01*
X0084789Y0068806D02*
X0103819Y0068806D01*
X0103751Y0069104D02*
X0096994Y0069104D01*
X0097207Y0069403D02*
X0103683Y0069403D01*
X0103515Y0069701D02*
X0097259Y0069701D01*
X0097204Y0070000D02*
X0103436Y0070000D01*
X0103436Y0070298D02*
X0096987Y0070298D01*
X0094369Y0069701D02*
X0091469Y0069701D01*
X0090415Y0069701D02*
X0084295Y0069701D01*
X0084521Y0069403D02*
X0094369Y0069403D01*
X0099986Y0071194D02*
X0100140Y0071194D01*
X0100024Y0071309D02*
X0100403Y0070930D01*
X0100939Y0070930D01*
X0101318Y0071309D01*
X0101318Y0071845D01*
X0100939Y0072224D01*
X0100403Y0072224D01*
X0100024Y0071845D01*
X0100024Y0071309D01*
X0100024Y0071492D02*
X0100002Y0071492D01*
X0100024Y0071791D02*
X0099956Y0071791D01*
X0099657Y0072089D02*
X0100269Y0072089D01*
X0101074Y0072089D02*
X0103072Y0072089D01*
X0103140Y0071791D02*
X0101318Y0071791D01*
X0101318Y0071492D02*
X0103208Y0071492D01*
X0103276Y0071194D02*
X0101203Y0071194D01*
X0103886Y0068507D02*
X0084697Y0068507D01*
X0083587Y0068507D02*
X0076915Y0068507D01*
X0076896Y0068806D02*
X0083495Y0068806D01*
X0083248Y0069104D02*
X0083239Y0069104D01*
X0083181Y0069104D02*
X0076597Y0069104D01*
X0076873Y0068209D02*
X0103954Y0068209D01*
X0104134Y0067015D02*
X0036637Y0067015D01*
X0036548Y0066716D02*
X0104097Y0066716D01*
X0104119Y0066417D02*
X0036459Y0066417D01*
X0036370Y0066119D02*
X0104227Y0066119D01*
X0104481Y0065820D02*
X0036281Y0065820D01*
X0036993Y0068209D02*
X0075663Y0068209D01*
X0070312Y0070597D02*
X0069549Y0070597D01*
X0069592Y0070298D02*
X0070188Y0070298D01*
X0068827Y0070363D02*
X0068827Y0076347D01*
X0068630Y0076544D01*
X0067925Y0076268D02*
X0066885Y0076268D01*
X0066948Y0076331D02*
X0067241Y0076624D01*
X0067241Y0079385D01*
X0067264Y0079392D01*
X0067318Y0079484D01*
X0067400Y0079553D01*
X0067403Y0079586D01*
X0067430Y0079606D01*
X0067449Y0079711D01*
X0067502Y0079804D01*
X0067494Y0079836D01*
X0067513Y0079863D01*
X0067494Y0079969D01*
X0067513Y0080074D01*
X0067494Y0080102D01*
X0067502Y0080134D01*
X0067449Y0080227D01*
X0067430Y0080332D01*
X0067403Y0080351D01*
X0067400Y0080385D01*
X0067318Y0080453D01*
X0067264Y0080546D01*
X0067232Y0080555D01*
X0067218Y0080585D01*
X0067117Y0080622D01*
X0067035Y0080690D01*
X0067002Y0080688D01*
X0066978Y0080711D01*
X0066871Y0080711D01*
X0066771Y0080748D01*
X0066741Y0080734D01*
X0066710Y0080748D01*
X0066680Y0080737D01*
X0059170Y0088247D01*
X0058877Y0088540D01*
X0058451Y0088540D01*
X0058406Y0088617D01*
X0058374Y0088626D01*
X0058360Y0088656D01*
X0058259Y0088693D01*
X0058177Y0088761D01*
X0058144Y0088758D01*
X0058120Y0088782D01*
X0058013Y0088782D01*
X0057913Y0088819D01*
X0057882Y0088805D01*
X0057852Y0088819D01*
X0057751Y0088782D01*
X0057644Y0088782D01*
X0057621Y0088758D01*
X0057587Y0088761D01*
X0057505Y0088693D01*
X0057405Y0088656D01*
X0057391Y0088626D01*
X0057358Y0088617D01*
X0057305Y0088524D01*
X0057223Y0088455D01*
X0057220Y0088422D01*
X0057193Y0088403D01*
X0057174Y0088298D01*
X0057120Y0088205D01*
X0057129Y0088173D01*
X0057110Y0088145D01*
X0057128Y0088040D01*
X0057110Y0087934D01*
X0057129Y0087907D01*
X0057120Y0087875D01*
X0057174Y0087782D01*
X0057193Y0087677D01*
X0057220Y0087657D01*
X0057223Y0087624D01*
X0057305Y0087555D01*
X0057358Y0087463D01*
X0057391Y0087454D01*
X0057405Y0087424D01*
X0057505Y0087387D01*
X0057587Y0087318D01*
X0057621Y0087321D01*
X0057644Y0087297D01*
X0057751Y0087297D01*
X0057852Y0087261D01*
X0057882Y0087275D01*
X0057913Y0087261D01*
X0058013Y0087297D01*
X0058120Y0087297D01*
X0058144Y0087321D01*
X0058177Y0087318D01*
X0058259Y0087387D01*
X0058360Y0087424D01*
X0058374Y0087454D01*
X0058406Y0087463D01*
X0058451Y0087540D01*
X0058463Y0087540D01*
X0065977Y0080026D01*
X0065987Y0079969D01*
X0065968Y0079863D01*
X0065987Y0079836D01*
X0065979Y0079804D01*
X0066032Y0079711D01*
X0066051Y0079606D01*
X0066078Y0079586D01*
X0066081Y0079553D01*
X0066163Y0079484D01*
X0066217Y0079392D01*
X0066241Y0079385D01*
X0066241Y0077038D01*
X0063837Y0074634D01*
X0063806Y0074645D01*
X0063776Y0074631D01*
X0063746Y0074645D01*
X0063645Y0074609D01*
X0063538Y0074609D01*
X0063514Y0074585D01*
X0063481Y0074588D01*
X0063399Y0074519D01*
X0063298Y0074483D01*
X0063284Y0074452D01*
X0063252Y0074444D01*
X0063199Y0074351D01*
X0063117Y0074282D01*
X0063114Y0074249D01*
X0063086Y0074230D01*
X0063068Y0074124D01*
X0063014Y0074032D01*
X0063023Y0073999D01*
X0063004Y0073972D01*
X0063022Y0073867D01*
X0063004Y0073761D01*
X0063023Y0073734D01*
X0063014Y0073701D01*
X0063068Y0073609D01*
X0063086Y0073503D01*
X0063114Y0073484D01*
X0063117Y0073451D01*
X0063199Y0073382D01*
X0063252Y0073289D01*
X0063284Y0073281D01*
X0063298Y0073250D01*
X0063399Y0073214D01*
X0063481Y0073145D01*
X0063514Y0073148D01*
X0063538Y0073124D01*
X0063645Y0073124D01*
X0063746Y0073088D01*
X0063776Y0073102D01*
X0063806Y0073088D01*
X0063907Y0073124D01*
X0064014Y0073124D01*
X0064038Y0073148D01*
X0064071Y0073145D01*
X0064153Y0073214D01*
X0064253Y0073250D01*
X0064268Y0073281D01*
X0064300Y0073289D01*
X0064353Y0073382D01*
X0064435Y0073451D01*
X0064438Y0073484D01*
X0064466Y0073503D01*
X0064484Y0073609D01*
X0064538Y0073701D01*
X0064529Y0073734D01*
X0064548Y0073761D01*
X0064530Y0073867D01*
X0064540Y0073923D01*
X0066948Y0076331D01*
X0067183Y0076567D02*
X0067872Y0076567D01*
X0067933Y0076865D02*
X0067241Y0076865D01*
X0067241Y0077164D02*
X0068164Y0077164D01*
X0068904Y0077462D02*
X0067241Y0077462D01*
X0067241Y0077761D02*
X0068904Y0077761D01*
X0068904Y0078059D02*
X0067241Y0078059D01*
X0067241Y0078358D02*
X0068904Y0078358D01*
X0068904Y0078656D02*
X0067241Y0078656D01*
X0067241Y0078955D02*
X0068904Y0078955D01*
X0068904Y0079253D02*
X0067241Y0079253D01*
X0067399Y0079552D02*
X0068904Y0079552D01*
X0068904Y0079851D02*
X0067504Y0079851D01*
X0067494Y0080149D02*
X0068904Y0080149D01*
X0068904Y0080448D02*
X0067325Y0080448D01*
X0066776Y0080746D02*
X0068904Y0080746D01*
X0068904Y0081045D02*
X0066372Y0081045D01*
X0066073Y0081343D02*
X0068904Y0081343D01*
X0068904Y0081642D02*
X0068472Y0081642D01*
X0068644Y0081940D02*
X0068904Y0081940D01*
X0068904Y0082239D02*
X0068687Y0082239D01*
X0068468Y0082836D02*
X0068904Y0082836D01*
X0068904Y0083134D02*
X0068468Y0083134D01*
X0068381Y0083433D02*
X0068904Y0083433D01*
X0068904Y0083731D02*
X0068082Y0083731D01*
X0067784Y0084030D02*
X0068904Y0084030D01*
X0068904Y0084328D02*
X0067485Y0084328D01*
X0067187Y0084627D02*
X0068904Y0084627D01*
X0068615Y0084925D02*
X0066888Y0084925D01*
X0066590Y0085224D02*
X0068316Y0085224D01*
X0068221Y0085522D02*
X0066291Y0085522D01*
X0065993Y0085821D02*
X0068221Y0085821D01*
X0068221Y0086119D02*
X0065694Y0086119D01*
X0065396Y0086418D02*
X0068221Y0086418D01*
X0068221Y0086716D02*
X0065097Y0086716D01*
X0064799Y0087015D02*
X0068221Y0087015D01*
X0068221Y0087313D02*
X0064500Y0087313D01*
X0064202Y0087612D02*
X0068221Y0087612D01*
X0068221Y0087910D02*
X0063903Y0087910D01*
X0063605Y0088209D02*
X0068221Y0088209D01*
X0068221Y0088507D02*
X0067217Y0088507D01*
X0067466Y0088806D02*
X0068075Y0088806D01*
X0068003Y0089104D02*
X0067466Y0089104D01*
X0067355Y0089403D02*
X0068036Y0089403D01*
X0069697Y0089403D02*
X0069984Y0089403D01*
X0069794Y0089104D02*
X0069730Y0089104D01*
X0069794Y0088806D02*
X0069658Y0088806D01*
X0069512Y0088507D02*
X0069964Y0088507D01*
X0069512Y0088209D02*
X0071701Y0088209D01*
X0071471Y0087910D02*
X0070816Y0087910D01*
X0071088Y0087612D02*
X0071298Y0087612D01*
X0071383Y0088507D02*
X0070918Y0088507D01*
X0071088Y0088806D02*
X0071104Y0088806D01*
X0072331Y0088209D02*
X0080721Y0088209D01*
X0080721Y0088507D02*
X0072649Y0088507D01*
X0072771Y0088806D02*
X0080721Y0088806D01*
X0080721Y0089104D02*
X0072776Y0089104D01*
X0072626Y0089403D02*
X0080721Y0089403D01*
X0080776Y0089701D02*
X0072312Y0089701D01*
X0072013Y0090000D02*
X0081074Y0090000D01*
X0081373Y0090298D02*
X0071715Y0090298D01*
X0071416Y0090597D02*
X0081671Y0090597D01*
X0081116Y0090895D02*
X0071118Y0090895D01*
X0069691Y0091492D02*
X0072806Y0091492D01*
X0072708Y0091791D02*
X0069828Y0091791D01*
X0069828Y0092089D02*
X0072708Y0092089D01*
X0074002Y0092089D02*
X0075860Y0092089D01*
X0075857Y0091791D02*
X0074002Y0091791D01*
X0073903Y0091492D02*
X0075916Y0091492D01*
X0076215Y0091194D02*
X0065307Y0091194D01*
X0065263Y0091492D02*
X0068672Y0091492D01*
X0068535Y0091791D02*
X0066905Y0091791D01*
X0068090Y0092089D02*
X0068535Y0092089D01*
X0066283Y0089403D02*
X0063587Y0089403D01*
X0063587Y0089701D02*
X0064534Y0089701D01*
X0064294Y0090000D02*
X0063587Y0090000D01*
X0063587Y0090298D02*
X0064226Y0090298D01*
X0064263Y0090597D02*
X0063587Y0090597D01*
X0063587Y0090895D02*
X0064415Y0090895D01*
X0064867Y0091194D02*
X0063587Y0091194D01*
X0062493Y0090895D02*
X0061922Y0090895D01*
X0062493Y0090597D02*
X0061009Y0090597D01*
X0060096Y0090298D02*
X0062493Y0090298D01*
X0062493Y0090000D02*
X0059750Y0090000D01*
X0059789Y0089701D02*
X0062493Y0089701D01*
X0062493Y0089403D02*
X0059766Y0089403D01*
X0059468Y0089104D02*
X0062493Y0089104D01*
X0062493Y0088806D02*
X0057948Y0088806D01*
X0057885Y0088806D02*
X0057880Y0088806D01*
X0057817Y0088806D02*
X0056591Y0088806D01*
X0057076Y0089104D02*
X0058816Y0089104D01*
X0058518Y0089403D02*
X0057678Y0089403D01*
X0058270Y0089701D02*
X0058495Y0089701D01*
X0058909Y0088507D02*
X0062493Y0088507D01*
X0062493Y0088209D02*
X0059208Y0088209D01*
X0059506Y0087910D02*
X0062493Y0087910D01*
X0062655Y0087612D02*
X0059805Y0087612D01*
X0060103Y0087313D02*
X0062953Y0087313D01*
X0063252Y0087015D02*
X0060402Y0087015D01*
X0060700Y0086716D02*
X0063551Y0086716D01*
X0063062Y0086418D02*
X0060999Y0086418D01*
X0061297Y0086119D02*
X0062905Y0086119D01*
X0062905Y0085821D02*
X0061596Y0085821D01*
X0061894Y0085522D02*
X0063107Y0085522D01*
X0062491Y0084925D02*
X0065342Y0084925D01*
X0065640Y0084627D02*
X0062790Y0084627D01*
X0063088Y0084328D02*
X0065939Y0084328D01*
X0066237Y0084030D02*
X0063387Y0084030D01*
X0063685Y0083731D02*
X0066536Y0083731D01*
X0066834Y0083433D02*
X0063984Y0083433D01*
X0064282Y0083134D02*
X0067133Y0083134D01*
X0067375Y0082836D02*
X0064581Y0082836D01*
X0064879Y0082537D02*
X0067232Y0082537D01*
X0067156Y0082239D02*
X0065178Y0082239D01*
X0065476Y0081940D02*
X0067199Y0081940D01*
X0067372Y0081642D02*
X0065775Y0081642D01*
X0064958Y0081045D02*
X0060031Y0081045D01*
X0059999Y0081343D02*
X0064659Y0081343D01*
X0064361Y0081642D02*
X0059827Y0081642D01*
X0059260Y0081138D02*
X0059260Y0077134D01*
X0062036Y0074359D01*
X0062036Y0072272D01*
X0063079Y0071229D01*
X0065166Y0071229D01*
X0065873Y0071492D02*
X0068327Y0071492D01*
X0068327Y0071194D02*
X0065926Y0071194D01*
X0065861Y0070895D02*
X0068277Y0070895D01*
X0068105Y0070597D02*
X0065600Y0070597D01*
X0064732Y0070597D02*
X0061486Y0070597D01*
X0061878Y0070895D02*
X0062706Y0070895D01*
X0062407Y0071194D02*
X0061987Y0071194D01*
X0061986Y0071492D02*
X0062109Y0071492D01*
X0061536Y0072089D02*
X0061284Y0072089D01*
X0061240Y0072089D02*
X0061218Y0072089D01*
X0061174Y0072089D02*
X0059315Y0072089D01*
X0059271Y0072089D02*
X0059249Y0072089D01*
X0059205Y0072089D02*
X0057347Y0072089D01*
X0057303Y0072089D02*
X0057281Y0072089D01*
X0057237Y0072089D02*
X0053280Y0072089D01*
X0053450Y0072388D02*
X0061536Y0072388D01*
X0061536Y0072686D02*
X0053450Y0072686D01*
X0053262Y0072985D02*
X0061536Y0072985D01*
X0061536Y0073283D02*
X0051913Y0073283D01*
X0051959Y0072985D02*
X0052346Y0072985D01*
X0052301Y0073582D02*
X0061536Y0073582D01*
X0061536Y0073880D02*
X0052430Y0073880D01*
X0052433Y0074179D02*
X0061509Y0074179D01*
X0061210Y0074477D02*
X0052288Y0074477D01*
X0052570Y0074776D02*
X0060912Y0074776D01*
X0060613Y0075074D02*
X0052868Y0075074D01*
X0053167Y0075373D02*
X0060315Y0075373D01*
X0060016Y0075671D02*
X0053465Y0075671D01*
X0053540Y0075970D02*
X0059718Y0075970D01*
X0059419Y0076268D02*
X0053540Y0076268D01*
X0053540Y0076567D02*
X0059120Y0076567D01*
X0058822Y0076865D02*
X0053540Y0076865D01*
X0053540Y0077164D02*
X0058760Y0077164D01*
X0058760Y0077462D02*
X0053540Y0077462D01*
X0053540Y0077761D02*
X0058760Y0077761D01*
X0058760Y0078059D02*
X0053540Y0078059D01*
X0053540Y0078358D02*
X0058760Y0078358D01*
X0058760Y0078656D02*
X0053540Y0078656D01*
X0053540Y0078955D02*
X0058760Y0078955D01*
X0058760Y0079253D02*
X0053540Y0079253D01*
X0053540Y0079552D02*
X0058760Y0079552D01*
X0058760Y0079851D02*
X0053540Y0079851D01*
X0053540Y0080149D02*
X0058760Y0080149D01*
X0058760Y0080448D02*
X0053540Y0080448D01*
X0053540Y0080746D02*
X0058599Y0080746D01*
X0058490Y0081045D02*
X0053540Y0081045D01*
X0053540Y0081343D02*
X0058521Y0081343D01*
X0058694Y0081642D02*
X0053540Y0081642D01*
X0053540Y0081940D02*
X0064062Y0081940D01*
X0063764Y0082239D02*
X0053540Y0082239D01*
X0053540Y0082537D02*
X0063465Y0082537D01*
X0063167Y0082836D02*
X0053540Y0082836D01*
X0053540Y0083134D02*
X0062868Y0083134D01*
X0062570Y0083433D02*
X0053540Y0083433D01*
X0053540Y0083731D02*
X0062271Y0083731D01*
X0061973Y0084030D02*
X0053540Y0084030D01*
X0053540Y0084328D02*
X0061674Y0084328D01*
X0061376Y0084627D02*
X0053540Y0084627D01*
X0053540Y0084925D02*
X0061077Y0084925D01*
X0060779Y0085224D02*
X0053631Y0085224D01*
X0053929Y0085522D02*
X0060480Y0085522D01*
X0060182Y0085821D02*
X0054228Y0085821D01*
X0054347Y0086119D02*
X0059883Y0086119D01*
X0059585Y0086418D02*
X0054508Y0086418D01*
X0054618Y0086716D02*
X0059286Y0086716D01*
X0058988Y0087015D02*
X0054590Y0087015D01*
X0054417Y0087313D02*
X0057628Y0087313D01*
X0057237Y0087612D02*
X0054648Y0087612D01*
X0055133Y0087910D02*
X0057127Y0087910D01*
X0057123Y0088209D02*
X0055619Y0088209D01*
X0056105Y0088507D02*
X0057285Y0088507D01*
X0057882Y0088040D02*
X0058670Y0088040D01*
X0066741Y0079969D01*
X0066741Y0076831D01*
X0063776Y0073867D01*
X0064532Y0073880D02*
X0068327Y0073880D01*
X0068327Y0073582D02*
X0064480Y0073582D01*
X0064277Y0073283D02*
X0068327Y0073283D01*
X0068327Y0072985D02*
X0062536Y0072985D01*
X0062536Y0073283D02*
X0063275Y0073283D01*
X0063072Y0073582D02*
X0062536Y0073582D01*
X0062536Y0073880D02*
X0063020Y0073880D01*
X0063077Y0074179D02*
X0062536Y0074179D01*
X0062536Y0074477D02*
X0063296Y0074477D01*
X0063978Y0074776D02*
X0062326Y0074776D01*
X0062027Y0075074D02*
X0064277Y0075074D01*
X0064575Y0075373D02*
X0063965Y0075373D01*
X0063898Y0075306D02*
X0064277Y0075685D01*
X0064277Y0076221D01*
X0063898Y0076600D01*
X0063362Y0076600D01*
X0062983Y0076221D01*
X0062983Y0075685D01*
X0063362Y0075306D01*
X0063898Y0075306D01*
X0064263Y0075671D02*
X0064874Y0075671D01*
X0065172Y0075970D02*
X0064277Y0075970D01*
X0064230Y0076268D02*
X0065471Y0076268D01*
X0065769Y0076567D02*
X0063931Y0076567D01*
X0063329Y0076567D02*
X0060535Y0076567D01*
X0060833Y0076268D02*
X0063031Y0076268D01*
X0062983Y0075970D02*
X0061132Y0075970D01*
X0061430Y0075671D02*
X0062997Y0075671D01*
X0063296Y0075373D02*
X0061729Y0075373D01*
X0060236Y0076865D02*
X0066068Y0076865D01*
X0066241Y0077164D02*
X0059938Y0077164D01*
X0059760Y0077462D02*
X0066241Y0077462D01*
X0066241Y0077761D02*
X0059760Y0077761D01*
X0059760Y0078059D02*
X0066241Y0078059D01*
X0066241Y0078358D02*
X0059760Y0078358D01*
X0059760Y0078656D02*
X0066241Y0078656D01*
X0066241Y0078955D02*
X0059760Y0078955D01*
X0059760Y0079253D02*
X0066241Y0079253D01*
X0066083Y0079552D02*
X0059760Y0079552D01*
X0059760Y0079851D02*
X0065977Y0079851D01*
X0065853Y0080149D02*
X0059760Y0080149D01*
X0059760Y0080448D02*
X0065555Y0080448D01*
X0065256Y0080746D02*
X0059922Y0080746D01*
X0062193Y0085224D02*
X0065043Y0085224D01*
X0064745Y0085522D02*
X0063996Y0085522D01*
X0064198Y0085821D02*
X0064446Y0085821D01*
X0063587Y0088507D02*
X0066421Y0088507D01*
X0066172Y0088806D02*
X0063587Y0088806D01*
X0063587Y0089104D02*
X0066172Y0089104D01*
X0069512Y0087910D02*
X0070066Y0087910D01*
X0069794Y0087612D02*
X0069512Y0087612D01*
X0069512Y0087313D02*
X0069794Y0087313D01*
X0069882Y0087015D02*
X0069512Y0087015D01*
X0069512Y0086716D02*
X0070449Y0086716D01*
X0070151Y0086418D02*
X0069512Y0086418D01*
X0069512Y0086119D02*
X0069852Y0086119D01*
X0069554Y0085821D02*
X0069545Y0085821D01*
X0070483Y0084925D02*
X0070582Y0084925D01*
X0070700Y0084627D02*
X0070194Y0084627D01*
X0070194Y0084328D02*
X0072944Y0084328D01*
X0072944Y0084489D02*
X0072944Y0083953D01*
X0073323Y0083574D01*
X0073859Y0083574D01*
X0074238Y0083953D01*
X0074238Y0084489D01*
X0073859Y0084868D01*
X0073323Y0084868D01*
X0072944Y0084489D01*
X0073082Y0084627D02*
X0071758Y0084627D01*
X0071876Y0084925D02*
X0079875Y0084925D01*
X0079875Y0084627D02*
X0074100Y0084627D01*
X0074238Y0084328D02*
X0079875Y0084328D01*
X0079875Y0084030D02*
X0074238Y0084030D01*
X0074016Y0083731D02*
X0079875Y0083731D01*
X0079875Y0083433D02*
X0070194Y0083433D01*
X0070194Y0083731D02*
X0073166Y0083731D01*
X0072944Y0084030D02*
X0070194Y0084030D01*
X0070194Y0083134D02*
X0076314Y0083134D01*
X0076473Y0083293D02*
X0076094Y0082914D01*
X0076094Y0082378D01*
X0076473Y0081999D01*
X0077008Y0081999D01*
X0077387Y0082378D01*
X0077387Y0082914D01*
X0077008Y0083293D01*
X0076473Y0083293D01*
X0076094Y0082836D02*
X0070194Y0082836D01*
X0070194Y0082537D02*
X0076094Y0082537D01*
X0076233Y0082239D02*
X0070194Y0082239D01*
X0070194Y0081940D02*
X0080820Y0081940D01*
X0080820Y0081642D02*
X0072544Y0081642D01*
X0072722Y0081343D02*
X0080820Y0081343D01*
X0080820Y0081045D02*
X0079257Y0081045D01*
X0079356Y0080945D02*
X0078977Y0081324D01*
X0078441Y0081324D01*
X0078062Y0080945D01*
X0078062Y0080410D01*
X0078441Y0080031D01*
X0078977Y0080031D01*
X0079356Y0080410D01*
X0079356Y0080945D01*
X0079356Y0080746D02*
X0080820Y0080746D01*
X0080820Y0080448D02*
X0079356Y0080448D01*
X0079095Y0080149D02*
X0080820Y0080149D01*
X0080820Y0079851D02*
X0072661Y0079851D01*
X0072661Y0080149D02*
X0074071Y0080149D01*
X0073968Y0080252D02*
X0074347Y0079873D01*
X0074882Y0079873D01*
X0075261Y0080252D01*
X0075261Y0080788D01*
X0074882Y0081167D01*
X0074347Y0081167D01*
X0073968Y0080788D01*
X0073968Y0080252D01*
X0073968Y0080448D02*
X0072661Y0080448D01*
X0072713Y0080746D02*
X0073968Y0080746D01*
X0074224Y0081045D02*
X0072775Y0081045D01*
X0071488Y0081642D02*
X0070194Y0081642D01*
X0070194Y0081343D02*
X0071310Y0081343D01*
X0071258Y0081045D02*
X0070194Y0081045D01*
X0070194Y0080746D02*
X0071320Y0080746D01*
X0071371Y0080448D02*
X0070194Y0080448D01*
X0070194Y0080149D02*
X0071371Y0080149D01*
X0071371Y0079851D02*
X0070194Y0079851D01*
X0070194Y0079552D02*
X0071371Y0079552D01*
X0071371Y0079253D02*
X0070194Y0079253D01*
X0070194Y0078955D02*
X0071371Y0078955D01*
X0071371Y0078656D02*
X0070194Y0078656D01*
X0070920Y0078358D02*
X0071371Y0078358D01*
X0071262Y0078059D02*
X0071088Y0078059D01*
X0071088Y0077761D02*
X0071255Y0077761D01*
X0071409Y0077462D02*
X0070897Y0077462D01*
X0070850Y0077164D02*
X0071722Y0077164D01*
X0072021Y0076865D02*
X0071087Y0076865D01*
X0071171Y0076567D02*
X0072319Y0076567D01*
X0072618Y0076268D02*
X0071209Y0076268D01*
X0071111Y0075970D02*
X0072916Y0075970D01*
X0073215Y0075671D02*
X0070791Y0075671D01*
X0070091Y0075671D02*
X0069327Y0075671D01*
X0069327Y0075373D02*
X0073513Y0075373D01*
X0073812Y0075074D02*
X0069327Y0075074D01*
X0069327Y0075970D02*
X0069771Y0075970D01*
X0069674Y0076268D02*
X0069336Y0076268D01*
X0069388Y0076567D02*
X0069622Y0076567D01*
X0068327Y0075671D02*
X0066288Y0075671D01*
X0065989Y0075373D02*
X0068327Y0075373D01*
X0068327Y0075074D02*
X0065691Y0075074D01*
X0065392Y0074776D02*
X0068327Y0074776D01*
X0068327Y0074477D02*
X0065094Y0074477D01*
X0064795Y0074179D02*
X0068327Y0074179D01*
X0068327Y0072686D02*
X0062536Y0072686D01*
X0062627Y0072388D02*
X0068327Y0072388D01*
X0068327Y0072089D02*
X0062926Y0072089D01*
X0063224Y0071791D02*
X0064633Y0071791D01*
X0065698Y0071791D02*
X0068327Y0071791D01*
X0068062Y0070298D02*
X0060002Y0070298D01*
X0059704Y0070000D02*
X0068137Y0070000D01*
X0068461Y0069701D02*
X0059405Y0069701D01*
X0059074Y0070077D02*
X0057812Y0070077D01*
X0057808Y0070072D01*
X0052522Y0070072D01*
X0051436Y0068986D01*
X0050817Y0068986D01*
X0050070Y0069733D01*
X0048315Y0069733D01*
X0047609Y0070000D02*
X0038850Y0070000D01*
X0038767Y0070083D02*
X0038021Y0070083D01*
X0037493Y0069555D01*
X0037493Y0068808D01*
X0038021Y0068280D01*
X0038767Y0068280D01*
X0039295Y0068808D01*
X0039295Y0069555D01*
X0038767Y0070083D01*
X0039149Y0069701D02*
X0047556Y0069701D01*
X0047620Y0069403D02*
X0039295Y0069403D01*
X0039295Y0069104D02*
X0047872Y0069104D01*
X0048759Y0069104D02*
X0049992Y0069104D01*
X0050290Y0068806D02*
X0039293Y0068806D01*
X0038994Y0068507D02*
X0050589Y0068507D01*
X0051126Y0069733D02*
X0051966Y0070572D01*
X0057601Y0070572D01*
X0058348Y0071319D01*
X0059260Y0071319D01*
X0059853Y0071791D02*
X0060081Y0071791D01*
X0060316Y0071319D02*
X0059074Y0070077D01*
X0060301Y0070597D02*
X0060971Y0070597D01*
X0061229Y0071319D02*
X0060316Y0071319D01*
X0058112Y0071791D02*
X0057885Y0071791D01*
X0057292Y0071319D02*
X0052918Y0071319D01*
X0050126Y0074111D01*
X0052472Y0076456D01*
X0052472Y0085985D01*
X0051868Y0085522D02*
X0051248Y0085522D01*
X0050800Y0085224D02*
X0051972Y0085224D01*
X0051972Y0084925D02*
X0050502Y0084925D01*
X0050203Y0084627D02*
X0051972Y0084627D01*
X0051972Y0084328D02*
X0049905Y0084328D01*
X0049606Y0084030D02*
X0051972Y0084030D01*
X0051972Y0083731D02*
X0050310Y0083731D01*
X0050609Y0083433D02*
X0051972Y0083433D01*
X0051972Y0083134D02*
X0050616Y0083134D01*
X0050561Y0082836D02*
X0051972Y0082836D01*
X0051972Y0082537D02*
X0050263Y0082537D01*
X0049675Y0082537D02*
X0049553Y0082537D01*
X0049413Y0082239D02*
X0051972Y0082239D01*
X0051972Y0081940D02*
X0048311Y0081940D01*
X0048311Y0081642D02*
X0051972Y0081642D01*
X0051972Y0081343D02*
X0048311Y0081343D01*
X0048311Y0081045D02*
X0051972Y0081045D01*
X0051972Y0080746D02*
X0048311Y0080746D01*
X0048311Y0080448D02*
X0051972Y0080448D01*
X0051972Y0080149D02*
X0048311Y0080149D01*
X0048311Y0079851D02*
X0051972Y0079851D01*
X0051972Y0079552D02*
X0050168Y0079552D01*
X0050148Y0079552D02*
X0050105Y0079552D01*
X0050084Y0079552D02*
X0048311Y0079552D01*
X0048352Y0079253D02*
X0049539Y0079253D01*
X0049372Y0078955D02*
X0048519Y0078955D01*
X0048526Y0078656D02*
X0049365Y0078656D01*
X0049471Y0078358D02*
X0048419Y0078358D01*
X0048064Y0078059D02*
X0049827Y0078059D01*
X0050414Y0077761D02*
X0043287Y0077761D01*
X0043287Y0078059D02*
X0047465Y0078059D01*
X0047109Y0078358D02*
X0042997Y0078358D01*
X0042619Y0078656D02*
X0047003Y0078656D01*
X0047010Y0078955D02*
X0042858Y0078955D01*
X0043098Y0079253D02*
X0047177Y0079253D01*
X0047217Y0079552D02*
X0043337Y0079552D01*
X0043577Y0079851D02*
X0047217Y0079851D01*
X0047217Y0080149D02*
X0043816Y0080149D01*
X0044056Y0080448D02*
X0047217Y0080448D01*
X0047217Y0080746D02*
X0044295Y0080746D01*
X0044535Y0081045D02*
X0047217Y0081045D01*
X0047217Y0081343D02*
X0044774Y0081343D01*
X0045014Y0081642D02*
X0047217Y0081642D01*
X0047217Y0081940D02*
X0045253Y0081940D01*
X0045557Y0082239D02*
X0047217Y0082239D01*
X0047217Y0082537D02*
X0045911Y0082537D01*
X0046264Y0082836D02*
X0047217Y0082836D01*
X0047217Y0083134D02*
X0046617Y0083134D01*
X0046971Y0083433D02*
X0047462Y0083433D01*
X0047324Y0083731D02*
X0047761Y0083731D01*
X0047678Y0084030D02*
X0048059Y0084030D01*
X0048031Y0084328D02*
X0048358Y0084328D01*
X0048384Y0084627D02*
X0048656Y0084627D01*
X0048738Y0084925D02*
X0048955Y0084925D01*
X0049091Y0085224D02*
X0049253Y0085224D01*
X0049444Y0085522D02*
X0049552Y0085522D01*
X0049798Y0085821D02*
X0049851Y0085821D01*
X0049627Y0083731D02*
X0049308Y0083731D01*
X0049329Y0083433D02*
X0049009Y0083433D01*
X0048399Y0082239D02*
X0048311Y0082239D01*
X0050714Y0079253D02*
X0051972Y0079253D01*
X0051972Y0078955D02*
X0050881Y0078955D01*
X0050954Y0078656D02*
X0051972Y0078656D01*
X0051972Y0078358D02*
X0051253Y0078358D01*
X0051414Y0078059D02*
X0051972Y0078059D01*
X0051972Y0077761D02*
X0051414Y0077761D01*
X0051414Y0077462D02*
X0051972Y0077462D01*
X0051972Y0077164D02*
X0051414Y0077164D01*
X0051414Y0076865D02*
X0051972Y0076865D01*
X0051876Y0076567D02*
X0051414Y0076567D01*
X0051414Y0076268D02*
X0051577Y0076268D01*
X0050914Y0075954D02*
X0050914Y0077990D01*
X0050126Y0078777D01*
X0050414Y0077462D02*
X0043216Y0077462D01*
X0042918Y0077164D02*
X0049099Y0077164D01*
X0048801Y0076865D02*
X0041182Y0076865D01*
X0041361Y0076685D02*
X0040982Y0076306D01*
X0040982Y0075770D01*
X0041361Y0075391D01*
X0041897Y0075391D01*
X0042276Y0075770D01*
X0042276Y0076306D01*
X0041897Y0076685D01*
X0041361Y0076685D01*
X0041243Y0076567D02*
X0040942Y0076567D01*
X0040982Y0076268D02*
X0040770Y0076268D01*
X0040613Y0075970D02*
X0040982Y0075970D01*
X0041081Y0075671D02*
X0040457Y0075671D01*
X0040300Y0075373D02*
X0049625Y0075373D01*
X0049327Y0075074D02*
X0040144Y0075074D01*
X0039987Y0074776D02*
X0049028Y0074776D01*
X0048880Y0074477D02*
X0039830Y0074477D01*
X0039674Y0074179D02*
X0048880Y0074179D01*
X0048880Y0073880D02*
X0039517Y0073880D01*
X0039361Y0073582D02*
X0048892Y0073582D01*
X0049190Y0073283D02*
X0040246Y0073283D01*
X0040079Y0073450D02*
X0039543Y0073450D01*
X0039165Y0073071D01*
X0039165Y0072536D01*
X0039543Y0072157D01*
X0040079Y0072157D01*
X0040458Y0072536D01*
X0040458Y0073071D01*
X0040079Y0073450D01*
X0040458Y0072985D02*
X0049489Y0072985D01*
X0049787Y0072686D02*
X0040458Y0072686D01*
X0040310Y0072388D02*
X0050086Y0072388D01*
X0050350Y0072089D02*
X0039595Y0072089D01*
X0039312Y0072388D02*
X0038735Y0072388D01*
X0038610Y0072089D02*
X0038578Y0072089D01*
X0038891Y0072686D02*
X0039165Y0072686D01*
X0039165Y0072985D02*
X0039048Y0072985D01*
X0039204Y0073283D02*
X0039376Y0073283D01*
X0039894Y0071791D02*
X0050402Y0071791D01*
X0050602Y0071492D02*
X0040004Y0071492D01*
X0040004Y0071194D02*
X0052336Y0071194D01*
X0052038Y0071492D02*
X0051611Y0071492D01*
X0051582Y0070895D02*
X0039965Y0070895D01*
X0039666Y0070597D02*
X0051283Y0070597D01*
X0050596Y0070298D02*
X0048846Y0070298D01*
X0047785Y0070298D02*
X0037639Y0070298D01*
X0037527Y0070000D02*
X0037938Y0070000D01*
X0037639Y0069701D02*
X0037438Y0069701D01*
X0037493Y0069403D02*
X0037349Y0069403D01*
X0037260Y0069104D02*
X0037493Y0069104D01*
X0037496Y0068806D02*
X0037171Y0068806D01*
X0037082Y0068507D02*
X0037794Y0068507D01*
X0037795Y0070597D02*
X0038539Y0070597D01*
X0038241Y0070895D02*
X0037952Y0070895D01*
X0038108Y0071194D02*
X0038202Y0071194D01*
X0042177Y0075671D02*
X0047744Y0075671D01*
X0047598Y0075970D02*
X0042276Y0075970D01*
X0042276Y0076268D02*
X0047598Y0076268D01*
X0047811Y0076567D02*
X0042015Y0076567D01*
X0042362Y0077164D02*
X0041421Y0077164D01*
X0041661Y0077462D02*
X0042063Y0077462D01*
X0041993Y0077761D02*
X0041900Y0077761D01*
X0048745Y0075671D02*
X0048837Y0075671D01*
X0049380Y0074420D02*
X0050914Y0075954D01*
X0050414Y0076268D02*
X0050398Y0076268D01*
X0050398Y0076567D02*
X0050414Y0076567D01*
X0050414Y0076865D02*
X0050192Y0076865D01*
X0050414Y0077164D02*
X0049893Y0077164D01*
X0049380Y0074420D02*
X0049380Y0073801D01*
X0051106Y0072075D01*
X0051674Y0074024D02*
X0051674Y0074587D01*
X0053040Y0075953D01*
X0053040Y0085340D01*
X0053847Y0086147D01*
X0053847Y0086816D01*
X0058136Y0087313D02*
X0058689Y0087313D01*
X0066670Y0080746D02*
X0066705Y0080746D01*
X0066714Y0080746D02*
X0066767Y0080746D01*
X0066586Y0075970D02*
X0068104Y0075970D01*
X0072661Y0078358D02*
X0075389Y0078358D01*
X0075306Y0078441D02*
X0075685Y0078062D01*
X0076094Y0078062D01*
X0076094Y0077654D01*
X0076473Y0077275D01*
X0077008Y0077275D01*
X0077387Y0077654D01*
X0077387Y0078190D01*
X0077008Y0078568D01*
X0076600Y0078568D01*
X0076600Y0078977D01*
X0076221Y0079356D01*
X0075685Y0079356D01*
X0075306Y0078977D01*
X0075306Y0078441D01*
X0075306Y0078656D02*
X0072661Y0078656D01*
X0072661Y0078955D02*
X0075306Y0078955D01*
X0075583Y0079253D02*
X0072661Y0079253D01*
X0072661Y0079552D02*
X0080820Y0079552D01*
X0080820Y0079253D02*
X0076323Y0079253D01*
X0076600Y0078955D02*
X0080820Y0078955D01*
X0080820Y0078656D02*
X0076600Y0078656D01*
X0077219Y0078358D02*
X0080820Y0078358D01*
X0080551Y0078059D02*
X0077387Y0078059D01*
X0077387Y0077761D02*
X0080252Y0077761D01*
X0079954Y0077462D02*
X0077196Y0077462D01*
X0076285Y0077462D02*
X0073527Y0077462D01*
X0073826Y0077164D02*
X0079655Y0077164D01*
X0079357Y0076865D02*
X0074124Y0076865D01*
X0074423Y0076567D02*
X0079058Y0076567D01*
X0076094Y0077761D02*
X0073229Y0077761D01*
X0072930Y0078059D02*
X0076094Y0078059D01*
X0075158Y0080149D02*
X0078323Y0080149D01*
X0078062Y0080448D02*
X0075261Y0080448D01*
X0075261Y0080746D02*
X0078062Y0080746D01*
X0078161Y0081045D02*
X0075005Y0081045D01*
X0077248Y0082239D02*
X0080724Y0082239D01*
X0080425Y0082537D02*
X0077387Y0082537D01*
X0077387Y0082836D02*
X0080127Y0082836D01*
X0079875Y0083134D02*
X0077167Y0083134D01*
X0079875Y0085224D02*
X0071876Y0085224D01*
X0071634Y0085522D02*
X0079875Y0085522D01*
X0079875Y0085821D02*
X0071379Y0085821D01*
X0071677Y0086119D02*
X0079875Y0086119D01*
X0079875Y0086418D02*
X0071976Y0086418D01*
X0072391Y0086716D02*
X0079898Y0086716D01*
X0080197Y0087015D02*
X0072707Y0087015D01*
X0072780Y0087313D02*
X0080495Y0087313D01*
X0080721Y0087612D02*
X0072734Y0087612D01*
X0072562Y0087910D02*
X0080721Y0087910D01*
X0082209Y0087910D02*
X0082494Y0087910D01*
X0082322Y0087612D02*
X0082209Y0087612D01*
X0082229Y0087313D02*
X0082276Y0087313D01*
X0082349Y0087015D02*
X0082161Y0087015D01*
X0082394Y0086716D02*
X0081862Y0086716D01*
X0081425Y0086418D02*
X0082394Y0086418D01*
X0082394Y0086119D02*
X0081165Y0086119D01*
X0081165Y0085821D02*
X0082394Y0085821D01*
X0082394Y0085522D02*
X0081165Y0085522D01*
X0081165Y0085224D02*
X0082394Y0085224D01*
X0082685Y0084925D02*
X0081165Y0084925D01*
X0081974Y0084627D02*
X0082531Y0084627D01*
X0082393Y0084328D02*
X0082112Y0084328D01*
X0082112Y0084030D02*
X0082393Y0084030D01*
X0082615Y0083731D02*
X0081890Y0083731D01*
X0082209Y0088209D02*
X0083248Y0088209D01*
X0083295Y0088507D02*
X0083123Y0088507D01*
X0083293Y0088806D02*
X0083467Y0088806D01*
X0083293Y0089104D02*
X0083674Y0089104D01*
X0080564Y0091194D02*
X0076794Y0091194D01*
X0077092Y0091492D02*
X0078801Y0091492D01*
X0077222Y0092497D02*
X0074913Y0092865D01*
X0042945Y0049999D02*
X0035468Y0049999D01*
X0035497Y0049701D02*
X0042646Y0049701D01*
X0042632Y0049402D02*
X0035526Y0049402D01*
X0035568Y0049104D02*
X0042632Y0049104D01*
X0042818Y0048805D02*
X0035657Y0048805D01*
X0035746Y0048507D02*
X0043116Y0048507D01*
X0043829Y0048507D02*
X0044051Y0048507D01*
X0044234Y0048208D02*
X0035835Y0048208D01*
X0035924Y0047910D02*
X0044533Y0047910D01*
X0036726Y0045223D02*
X0104997Y0045223D01*
X0104698Y0044925D02*
X0036815Y0044925D01*
X0036904Y0044626D02*
X0104636Y0044626D01*
X0104636Y0044328D02*
X0036993Y0044328D01*
X0037082Y0044029D02*
X0104773Y0044029D01*
X0105071Y0043731D02*
X0037171Y0043731D01*
X0045488Y0033880D02*
X0076786Y0033880D01*
X0076530Y0033581D02*
X0045491Y0033581D01*
X0045491Y0033283D02*
X0076530Y0033283D01*
X0076530Y0032984D02*
X0045294Y0032984D01*
X0044056Y0032089D02*
X0099545Y0032089D01*
X0099811Y0032387D02*
X0043816Y0032387D01*
X0044295Y0031790D02*
X0099280Y0031790D01*
X0099015Y0031492D02*
X0044535Y0031492D01*
X0044774Y0031193D02*
X0098749Y0031193D01*
X0098484Y0030895D02*
X0045014Y0030895D01*
X0045253Y0030596D02*
X0098218Y0030596D01*
X0097953Y0030298D02*
X0045557Y0030298D01*
X0045911Y0029999D02*
X0097688Y0029999D01*
X0097422Y0029701D02*
X0046264Y0029701D01*
X0046617Y0029402D02*
X0097157Y0029402D01*
X0096866Y0029104D02*
X0046971Y0029104D01*
X0047324Y0028805D02*
X0096474Y0028805D01*
X0096082Y0028507D02*
X0047678Y0028507D01*
X0048031Y0028208D02*
X0095690Y0028208D01*
X0095299Y0027910D02*
X0048384Y0027910D01*
X0048738Y0027611D02*
X0094907Y0027611D01*
X0094515Y0027313D02*
X0049091Y0027313D01*
X0049444Y0027014D02*
X0094123Y0027014D01*
X0093731Y0026715D02*
X0049798Y0026715D01*
X0050151Y0026417D02*
X0093339Y0026417D01*
X0092947Y0026118D02*
X0050505Y0026118D01*
X0050886Y0025820D02*
X0092555Y0025820D01*
X0092163Y0025521D02*
X0090671Y0025521D01*
X0091026Y0025223D02*
X0091771Y0025223D01*
X0091379Y0024924D02*
X0091161Y0024924D01*
X0089779Y0025521D02*
X0086425Y0025521D01*
X0086667Y0025223D02*
X0089423Y0025223D01*
X0089005Y0024924D02*
X0086830Y0024924D01*
X0087128Y0024626D02*
X0088461Y0024626D01*
X0087918Y0024327D02*
X0087427Y0024327D01*
X0086248Y0023133D02*
X0083257Y0023133D01*
X0083257Y0023090D02*
X0082764Y0022598D01*
X0082068Y0022598D01*
X0081576Y0023090D01*
X0081576Y0023786D01*
X0082068Y0024279D01*
X0082764Y0024279D01*
X0083257Y0023786D01*
X0083257Y0023090D01*
X0083257Y0023432D02*
X0085949Y0023432D01*
X0085651Y0023730D02*
X0083257Y0023730D01*
X0083014Y0024029D02*
X0085144Y0024029D01*
X0084924Y0024327D02*
X0064886Y0024327D01*
X0064656Y0024098D02*
X0065149Y0024590D01*
X0065149Y0025286D01*
X0064656Y0025779D01*
X0063960Y0025779D01*
X0063468Y0025286D01*
X0063468Y0024590D01*
X0063902Y0024156D01*
X0063676Y0024156D01*
X0063183Y0023664D01*
X0063183Y0022967D01*
X0063676Y0022475D01*
X0064372Y0022475D01*
X0064865Y0022967D01*
X0064865Y0023664D01*
X0064430Y0024098D01*
X0064656Y0024098D01*
X0064499Y0024029D02*
X0065360Y0024029D01*
X0065152Y0023821D02*
X0065152Y0023125D01*
X0065644Y0022632D01*
X0066341Y0022632D01*
X0066833Y0023125D01*
X0066833Y0023821D01*
X0066341Y0024313D01*
X0065644Y0024313D01*
X0065152Y0023821D01*
X0065152Y0023730D02*
X0064798Y0023730D01*
X0064865Y0023432D02*
X0065152Y0023432D01*
X0065152Y0023133D02*
X0064865Y0023133D01*
X0064732Y0022835D02*
X0065442Y0022835D01*
X0064434Y0022536D02*
X0068420Y0022536D01*
X0068420Y0022561D02*
X0068420Y0021865D01*
X0068912Y0021372D01*
X0069608Y0021372D01*
X0070101Y0021865D01*
X0070101Y0022561D01*
X0069608Y0023054D01*
X0068912Y0023054D01*
X0068420Y0022561D01*
X0068420Y0022238D02*
X0057519Y0022238D01*
X0056781Y0022536D02*
X0063614Y0022536D01*
X0063316Y0022835D02*
X0056245Y0022835D01*
X0055709Y0023133D02*
X0063183Y0023133D01*
X0063183Y0023432D02*
X0055173Y0023432D01*
X0054637Y0023730D02*
X0063250Y0023730D01*
X0063549Y0024029D02*
X0054101Y0024029D01*
X0053565Y0024327D02*
X0063730Y0024327D01*
X0063468Y0024626D02*
X0053030Y0024626D01*
X0052494Y0024924D02*
X0063468Y0024924D01*
X0063468Y0025223D02*
X0051958Y0025223D01*
X0051422Y0025521D02*
X0063703Y0025521D01*
X0064914Y0025521D02*
X0085166Y0025521D01*
X0084925Y0025223D02*
X0065149Y0025223D01*
X0065149Y0024924D02*
X0084820Y0024924D01*
X0084819Y0024626D02*
X0065149Y0024626D01*
X0066625Y0024029D02*
X0081818Y0024029D01*
X0081576Y0023730D02*
X0071806Y0023730D01*
X0071577Y0023959D02*
X0070881Y0023959D01*
X0070388Y0023467D01*
X0070388Y0022770D01*
X0070881Y0022278D01*
X0071577Y0022278D01*
X0072069Y0022770D01*
X0072069Y0023467D01*
X0071577Y0023959D01*
X0072069Y0023432D02*
X0081576Y0023432D01*
X0081576Y0023133D02*
X0072069Y0023133D01*
X0072069Y0022835D02*
X0081831Y0022835D01*
X0083001Y0022835D02*
X0086546Y0022835D01*
X0086590Y0022536D02*
X0071835Y0022536D01*
X0072404Y0021939D02*
X0070101Y0021939D01*
X0070101Y0022238D02*
X0085984Y0022238D01*
X0085378Y0021939D02*
X0073597Y0021939D01*
X0073841Y0021695D02*
X0073349Y0022187D01*
X0072652Y0022187D01*
X0072160Y0021695D01*
X0072160Y0020999D01*
X0072652Y0020506D01*
X0073349Y0020506D01*
X0073841Y0020999D01*
X0073841Y0021695D01*
X0073841Y0021641D02*
X0075944Y0021641D01*
X0076117Y0021813D02*
X0075624Y0021321D01*
X0075624Y0020625D01*
X0076117Y0020132D01*
X0076813Y0020132D01*
X0077124Y0020444D01*
X0077475Y0020093D01*
X0078171Y0020093D01*
X0078664Y0020585D01*
X0078664Y0021282D01*
X0078171Y0021774D01*
X0077475Y0021774D01*
X0077164Y0021463D01*
X0076813Y0021813D01*
X0076117Y0021813D01*
X0075646Y0021342D02*
X0073841Y0021342D01*
X0073841Y0021044D02*
X0075624Y0021044D01*
X0075624Y0020745D02*
X0073588Y0020745D01*
X0072413Y0020745D02*
X0062099Y0020745D01*
X0063015Y0020447D02*
X0075802Y0020447D01*
X0076101Y0020148D02*
X0064131Y0020148D01*
X0066569Y0019850D02*
X0078073Y0019850D01*
X0078227Y0020148D02*
X0079175Y0020148D01*
X0078525Y0020447D02*
X0080277Y0020447D01*
X0081379Y0020745D02*
X0078664Y0020745D01*
X0078664Y0021044D02*
X0082481Y0021044D01*
X0083582Y0021342D02*
X0078603Y0021342D01*
X0078305Y0021641D02*
X0084684Y0021641D01*
X0077342Y0021641D02*
X0076986Y0021641D01*
X0076829Y0020148D02*
X0077420Y0020148D01*
X0074107Y0019551D02*
X0069007Y0019551D01*
X0068644Y0021641D02*
X0059351Y0021641D01*
X0060267Y0021342D02*
X0072160Y0021342D01*
X0072160Y0021044D02*
X0061183Y0021044D01*
X0058435Y0021939D02*
X0068420Y0021939D01*
X0068693Y0022835D02*
X0066543Y0022835D01*
X0066833Y0023133D02*
X0070388Y0023133D01*
X0070388Y0022835D02*
X0069827Y0022835D01*
X0070101Y0022536D02*
X0070622Y0022536D01*
X0070388Y0023432D02*
X0066833Y0023432D01*
X0066833Y0023730D02*
X0070652Y0023730D01*
X0069877Y0021641D02*
X0072160Y0021641D01*
D13*
X0085517Y0024671D02*
X0085568Y0024581D01*
X0085647Y0024515D01*
X0085744Y0024480D01*
X0085847Y0024480D01*
X0085944Y0024515D01*
X0086023Y0024581D01*
X0086075Y0024671D01*
X0086093Y0024772D01*
X0086075Y0024874D01*
X0086023Y0024963D01*
X0085944Y0025029D01*
X0085847Y0025064D01*
X0085744Y0025064D01*
X0085647Y0025029D01*
X0085568Y0024963D01*
X0085517Y0024874D01*
X0085499Y0024772D01*
X0085517Y0024671D01*
X0085511Y0024705D02*
X0086081Y0024705D01*
X0086057Y0024903D02*
X0085534Y0024903D01*
X0085671Y0024506D02*
X0085920Y0024506D01*
X0089928Y0024674D02*
X0089946Y0024775D01*
X0089997Y0024864D01*
X0090076Y0024931D01*
X0090173Y0024966D01*
X0090276Y0024966D01*
X0090373Y0024931D01*
X0090452Y0024864D01*
X0090504Y0024775D01*
X0090522Y0024674D01*
X0090504Y0024572D01*
X0090452Y0024483D01*
X0090373Y0024417D01*
X0090276Y0024381D01*
X0090173Y0024381D01*
X0090076Y0024417D01*
X0089997Y0024483D01*
X0089946Y0024572D01*
X0089928Y0024674D01*
X0089933Y0024705D02*
X0090516Y0024705D01*
X0090466Y0024506D02*
X0089984Y0024506D01*
X0090044Y0024903D02*
X0090406Y0024903D01*
X0105092Y0066232D02*
X0104954Y0066302D01*
X0104845Y0066411D01*
X0104775Y0066549D01*
X0104751Y0066701D01*
X0104775Y0066854D01*
X0104845Y0066991D01*
X0104954Y0067101D01*
X0105092Y0067171D01*
X0105244Y0067195D01*
X0105397Y0067171D01*
X0105535Y0067101D01*
X0105644Y0066991D01*
X0105714Y0066854D01*
X0105738Y0066701D01*
X0105714Y0066549D01*
X0105644Y0066411D01*
X0105535Y0066302D01*
X0105397Y0066232D01*
X0105244Y0066207D01*
X0105092Y0066232D01*
X0104864Y0066392D02*
X0105625Y0066392D01*
X0105721Y0066591D02*
X0104768Y0066591D01*
X0104765Y0066789D02*
X0105724Y0066789D01*
X0105646Y0066988D02*
X0104843Y0066988D01*
X0105190Y0067186D02*
X0105299Y0067186D01*
X0096783Y0069592D02*
X0096732Y0069502D01*
X0096653Y0069436D01*
X0096556Y0069401D01*
X0096453Y0069401D01*
X0096356Y0069436D01*
X0096277Y0069502D01*
X0096225Y0069592D01*
X0096207Y0069693D01*
X0096225Y0069795D01*
X0096277Y0069884D01*
X0096356Y0069950D01*
X0096453Y0069986D01*
X0096556Y0069986D01*
X0096653Y0069950D01*
X0096732Y0069884D01*
X0096783Y0069795D01*
X0096801Y0069693D01*
X0096783Y0069592D01*
X0096770Y0069568D02*
X0096239Y0069568D01*
X0096220Y0069767D02*
X0096788Y0069767D01*
X0096612Y0069965D02*
X0096397Y0069965D01*
X0091239Y0070273D02*
X0091221Y0070171D01*
X0091170Y0070082D01*
X0091091Y0070016D01*
X0090994Y0069980D01*
X0090891Y0069980D01*
X0090794Y0070016D01*
X0090715Y0070082D01*
X0090663Y0070171D01*
X0090645Y0070273D01*
X0090663Y0070374D01*
X0090715Y0070464D01*
X0090794Y0070530D01*
X0090891Y0070565D01*
X0090994Y0070565D01*
X0091091Y0070530D01*
X0091170Y0070464D01*
X0091221Y0070374D01*
X0091239Y0070273D01*
X0091223Y0070362D02*
X0090661Y0070362D01*
X0090667Y0070164D02*
X0091217Y0070164D01*
X0091005Y0070561D02*
X0090879Y0070561D01*
X0083888Y0070048D02*
X0083864Y0069895D01*
X0083794Y0069757D01*
X0083684Y0069648D01*
X0083547Y0069578D01*
X0083394Y0069554D01*
X0083242Y0069578D01*
X0083104Y0069648D01*
X0082995Y0069757D01*
X0082925Y0069895D01*
X0082900Y0070048D01*
X0082925Y0070200D01*
X0082995Y0070338D01*
X0083104Y0070447D01*
X0083242Y0070517D01*
X0083394Y0070541D01*
X0083547Y0070517D01*
X0083684Y0070447D01*
X0083794Y0070338D01*
X0083864Y0070200D01*
X0083888Y0070048D01*
X0083875Y0069965D02*
X0082913Y0069965D01*
X0082919Y0070164D02*
X0083869Y0070164D01*
X0083769Y0070362D02*
X0083019Y0070362D01*
X0082990Y0069767D02*
X0083798Y0069767D01*
X0083485Y0069568D02*
X0083303Y0069568D01*
X0081093Y0069890D02*
X0081075Y0069789D01*
X0081023Y0069699D01*
X0080944Y0069633D01*
X0080847Y0069598D01*
X0080744Y0069598D01*
X0080647Y0069633D01*
X0080568Y0069699D01*
X0080517Y0069789D01*
X0080499Y0069890D01*
X0080517Y0069992D01*
X0080568Y0070081D01*
X0080647Y0070147D01*
X0080744Y0070182D01*
X0080847Y0070182D01*
X0080944Y0070147D01*
X0081023Y0070081D01*
X0081075Y0069992D01*
X0081093Y0069890D01*
X0081079Y0069965D02*
X0080512Y0069965D01*
X0080529Y0069767D02*
X0081062Y0069767D01*
X0080898Y0070164D02*
X0080693Y0070164D01*
X0076014Y0070087D02*
X0075996Y0069985D01*
X0075944Y0069896D01*
X0075865Y0069830D01*
X0075768Y0069795D01*
X0075665Y0069795D01*
X0075569Y0069830D01*
X0075490Y0069896D01*
X0075438Y0069985D01*
X0075420Y0070087D01*
X0075438Y0070189D01*
X0075490Y0070278D01*
X0075569Y0070344D01*
X0075665Y0070379D01*
X0075768Y0070379D01*
X0075865Y0070344D01*
X0075944Y0070278D01*
X0075996Y0070189D01*
X0076014Y0070087D01*
X0076000Y0070164D02*
X0075434Y0070164D01*
X0075450Y0069965D02*
X0075984Y0069965D01*
X0075815Y0070362D02*
X0075619Y0070362D01*
X0069124Y0070363D02*
X0069106Y0070261D01*
X0069055Y0070172D01*
X0068976Y0070106D01*
X0068879Y0070070D01*
X0068776Y0070070D01*
X0068679Y0070106D01*
X0068600Y0070172D01*
X0068548Y0070261D01*
X0068530Y0070363D01*
X0068548Y0070464D01*
X0068600Y0070553D01*
X0068679Y0070620D01*
X0068776Y0070655D01*
X0068879Y0070655D01*
X0068976Y0070620D01*
X0069055Y0070553D01*
X0069106Y0070464D01*
X0069124Y0070363D01*
X0069124Y0070362D02*
X0068530Y0070362D01*
X0068609Y0070164D02*
X0069045Y0070164D01*
X0069046Y0070561D02*
X0068609Y0070561D01*
X0065445Y0071127D02*
X0065393Y0071038D01*
X0065314Y0070972D01*
X0065217Y0070936D01*
X0065114Y0070936D01*
X0065017Y0070972D01*
X0064938Y0071038D01*
X0064887Y0071127D01*
X0064869Y0071229D01*
X0064887Y0071330D01*
X0064938Y0071420D01*
X0065017Y0071486D01*
X0065114Y0071521D01*
X0065217Y0071521D01*
X0065314Y0071486D01*
X0065393Y0071420D01*
X0065445Y0071330D01*
X0065463Y0071229D01*
X0065445Y0071127D01*
X0065450Y0071156D02*
X0064882Y0071156D01*
X0064901Y0071355D02*
X0065430Y0071355D01*
X0065276Y0070958D02*
X0065055Y0070958D01*
X0063924Y0073609D02*
X0063828Y0073574D01*
X0063724Y0073574D01*
X0063628Y0073609D01*
X0063549Y0073676D01*
X0063497Y0073765D01*
X0063479Y0073867D01*
X0063497Y0073968D01*
X0063549Y0074057D01*
X0063628Y0074124D01*
X0063724Y0074159D01*
X0063828Y0074159D01*
X0063924Y0074124D01*
X0064003Y0074057D01*
X0064055Y0073968D01*
X0064073Y0073867D01*
X0064055Y0073765D01*
X0064003Y0073676D01*
X0063924Y0073609D01*
X0064039Y0073737D02*
X0063513Y0073737D01*
X0063491Y0073936D02*
X0064061Y0073936D01*
X0063895Y0074134D02*
X0063656Y0074134D01*
X0061456Y0071510D02*
X0061508Y0071421D01*
X0061526Y0071319D01*
X0061508Y0071218D01*
X0061456Y0071128D01*
X0061377Y0071062D01*
X0061280Y0071027D01*
X0061177Y0071027D01*
X0061080Y0071062D01*
X0061001Y0071128D01*
X0060950Y0071218D01*
X0060932Y0071319D01*
X0060950Y0071421D01*
X0061001Y0071510D01*
X0061080Y0071576D01*
X0061177Y0071612D01*
X0061280Y0071612D01*
X0061377Y0071576D01*
X0061456Y0071510D01*
X0061404Y0071553D02*
X0061053Y0071553D01*
X0060938Y0071355D02*
X0061519Y0071355D01*
X0061472Y0071156D02*
X0060985Y0071156D01*
X0059557Y0071319D02*
X0059539Y0071218D01*
X0059488Y0071128D01*
X0059409Y0071062D01*
X0059312Y0071027D01*
X0059209Y0071027D01*
X0059112Y0071062D01*
X0059033Y0071128D01*
X0058981Y0071218D01*
X0058963Y0071319D01*
X0058981Y0071421D01*
X0059033Y0071510D01*
X0059112Y0071576D01*
X0059209Y0071612D01*
X0059312Y0071612D01*
X0059409Y0071576D01*
X0059488Y0071510D01*
X0059539Y0071421D01*
X0059557Y0071319D01*
X0059551Y0071355D02*
X0058970Y0071355D01*
X0059017Y0071156D02*
X0059504Y0071156D01*
X0059436Y0071553D02*
X0059085Y0071553D01*
X0057589Y0071319D02*
X0057571Y0071218D01*
X0057519Y0071128D01*
X0057440Y0071062D01*
X0057343Y0071027D01*
X0057240Y0071027D01*
X0057143Y0071062D01*
X0057064Y0071128D01*
X0057013Y0071218D01*
X0056995Y0071319D01*
X0057013Y0071421D01*
X0057064Y0071510D01*
X0057143Y0071576D01*
X0057240Y0071612D01*
X0057343Y0071612D01*
X0057440Y0071576D01*
X0057519Y0071510D01*
X0057571Y0071421D01*
X0057589Y0071319D01*
X0057582Y0071355D02*
X0057001Y0071355D01*
X0057048Y0071156D02*
X0057535Y0071156D01*
X0057467Y0071553D02*
X0057116Y0071553D01*
X0051953Y0073922D02*
X0051901Y0073833D01*
X0051822Y0073767D01*
X0051725Y0073732D01*
X0051622Y0073732D01*
X0051525Y0073767D01*
X0051446Y0073833D01*
X0051395Y0073922D01*
X0051377Y0074024D01*
X0051395Y0074126D01*
X0051446Y0074215D01*
X0051525Y0074281D01*
X0051622Y0074316D01*
X0051725Y0074316D01*
X0051822Y0074281D01*
X0051901Y0074215D01*
X0051953Y0074126D01*
X0051970Y0074024D01*
X0051953Y0073922D01*
X0051955Y0073936D02*
X0051392Y0073936D01*
X0051400Y0074134D02*
X0051948Y0074134D01*
X0051740Y0073737D02*
X0051607Y0073737D01*
X0050405Y0074009D02*
X0050354Y0073920D01*
X0050275Y0073854D01*
X0050178Y0073818D01*
X0050075Y0073818D01*
X0049978Y0073854D01*
X0049899Y0073920D01*
X0049847Y0074009D01*
X0049830Y0074111D01*
X0049847Y0074212D01*
X0049899Y0074301D01*
X0049978Y0074368D01*
X0050075Y0074403D01*
X0050178Y0074403D01*
X0050275Y0074368D01*
X0050354Y0074301D01*
X0050405Y0074212D01*
X0050423Y0074111D01*
X0050405Y0074009D01*
X0050354Y0073920D01*
X0050275Y0073854D01*
X0050178Y0073818D01*
X0050075Y0073818D01*
X0049978Y0073854D01*
X0049899Y0073920D01*
X0049847Y0074009D01*
X0049830Y0074111D01*
X0049847Y0074212D01*
X0049899Y0074301D01*
X0049978Y0074368D01*
X0050075Y0074403D01*
X0050178Y0074403D01*
X0050275Y0074368D01*
X0050354Y0074301D01*
X0050405Y0074212D01*
X0050423Y0074111D01*
X0050405Y0074009D01*
X0050363Y0073936D02*
X0049890Y0073936D01*
X0050363Y0073936D01*
X0050419Y0074134D02*
X0049834Y0074134D01*
X0050419Y0074134D01*
X0050317Y0074333D02*
X0049936Y0074333D01*
X0050317Y0074333D01*
X0051055Y0072367D02*
X0051158Y0072367D01*
X0051255Y0072332D01*
X0051334Y0072265D01*
X0051385Y0072176D01*
X0051403Y0072075D01*
X0051385Y0071973D01*
X0051334Y0071884D01*
X0051255Y0071818D01*
X0051158Y0071782D01*
X0051055Y0071782D01*
X0050958Y0071818D01*
X0050879Y0071884D01*
X0050827Y0071973D01*
X0050809Y0072075D01*
X0050827Y0072176D01*
X0050879Y0072265D01*
X0050958Y0072332D01*
X0051055Y0072367D01*
X0051001Y0072348D02*
X0051211Y0072348D01*
X0051390Y0072149D02*
X0050822Y0072149D01*
X0050840Y0071951D02*
X0051372Y0071951D01*
X0051178Y0070025D02*
X0051275Y0069990D01*
X0051354Y0069923D01*
X0051405Y0069834D01*
X0051423Y0069733D01*
X0051405Y0069631D01*
X0051354Y0069542D01*
X0051275Y0069476D01*
X0051178Y0069440D01*
X0051075Y0069440D01*
X0050978Y0069476D01*
X0050899Y0069542D01*
X0050847Y0069631D01*
X0050830Y0069733D01*
X0050847Y0069834D01*
X0050899Y0069923D01*
X0050978Y0069990D01*
X0051075Y0070025D01*
X0051178Y0070025D01*
X0051304Y0069965D02*
X0050949Y0069965D01*
X0050836Y0069767D02*
X0051417Y0069767D01*
X0051369Y0069568D02*
X0050884Y0069568D01*
X0048612Y0069733D02*
X0048594Y0069631D01*
X0048543Y0069542D01*
X0048464Y0069476D01*
X0048367Y0069440D01*
X0048264Y0069440D01*
X0048167Y0069476D01*
X0048088Y0069542D01*
X0048036Y0069631D01*
X0048019Y0069733D01*
X0048036Y0069834D01*
X0048088Y0069923D01*
X0048167Y0069990D01*
X0048264Y0070025D01*
X0048367Y0070025D01*
X0048464Y0069990D01*
X0048543Y0069923D01*
X0048594Y0069834D01*
X0048612Y0069733D01*
X0048606Y0069767D02*
X0048025Y0069767D01*
X0048073Y0069568D02*
X0048558Y0069568D01*
X0048493Y0069965D02*
X0048138Y0069965D01*
X0047816Y0078485D02*
X0047713Y0078485D01*
X0047616Y0078520D01*
X0047537Y0078586D01*
X0047485Y0078676D01*
X0047467Y0078777D01*
X0047485Y0078879D01*
X0047537Y0078968D01*
X0047616Y0079034D01*
X0047713Y0079070D01*
X0047816Y0079070D01*
X0047913Y0079034D01*
X0047992Y0078968D01*
X0048043Y0078879D01*
X0048061Y0078777D01*
X0048043Y0078676D01*
X0047992Y0078586D01*
X0047913Y0078520D01*
X0047816Y0078485D01*
X0047861Y0078501D02*
X0047668Y0078501D01*
X0047481Y0078700D02*
X0048047Y0078700D01*
X0048032Y0078898D02*
X0047497Y0078898D01*
X0049830Y0078777D02*
X0049847Y0078676D01*
X0049899Y0078586D01*
X0049978Y0078520D01*
X0050075Y0078485D01*
X0050178Y0078485D01*
X0050275Y0078520D01*
X0050354Y0078586D01*
X0050405Y0078676D01*
X0050423Y0078777D01*
X0050405Y0078879D01*
X0050354Y0078968D01*
X0050275Y0079034D01*
X0050178Y0079070D01*
X0050075Y0079070D01*
X0049978Y0079034D01*
X0049899Y0078968D01*
X0049847Y0078879D01*
X0049830Y0078777D01*
X0049843Y0078700D02*
X0050410Y0078700D01*
X0050394Y0078898D02*
X0049859Y0078898D01*
X0050030Y0078501D02*
X0050223Y0078501D01*
X0052420Y0085693D02*
X0052324Y0085728D01*
X0052245Y0085794D01*
X0052193Y0085883D01*
X0052175Y0085985D01*
X0052193Y0086086D01*
X0052245Y0086176D01*
X0052324Y0086242D01*
X0052420Y0086277D01*
X0052523Y0086277D01*
X0052620Y0086242D01*
X0052699Y0086176D01*
X0052751Y0086086D01*
X0052769Y0085985D01*
X0052751Y0085883D01*
X0052699Y0085794D01*
X0052620Y0085728D01*
X0052523Y0085693D01*
X0052420Y0085693D01*
X0052214Y0085846D02*
X0052729Y0085846D01*
X0052758Y0086045D02*
X0052186Y0086045D01*
X0052327Y0086243D02*
X0052617Y0086243D01*
X0053568Y0086715D02*
X0053620Y0086626D01*
X0053699Y0086559D01*
X0053795Y0086524D01*
X0053899Y0086524D01*
X0053995Y0086559D01*
X0054074Y0086626D01*
X0054126Y0086715D01*
X0054144Y0086816D01*
X0054126Y0086918D01*
X0054074Y0087007D01*
X0053995Y0087074D01*
X0053899Y0087109D01*
X0053795Y0087109D01*
X0053699Y0087074D01*
X0053620Y0087007D01*
X0053568Y0086918D01*
X0053550Y0086816D01*
X0053568Y0086715D01*
X0053611Y0086640D02*
X0054083Y0086640D01*
X0054140Y0086839D02*
X0053554Y0086839D01*
X0053655Y0087037D02*
X0054038Y0087037D01*
X0057603Y0087938D02*
X0057655Y0087849D01*
X0057734Y0087783D01*
X0057831Y0087747D01*
X0057934Y0087747D01*
X0058031Y0087783D01*
X0058110Y0087849D01*
X0058161Y0087938D01*
X0058179Y0088040D01*
X0058161Y0088141D01*
X0058110Y0088231D01*
X0058031Y0088297D01*
X0057934Y0088332D01*
X0057831Y0088332D01*
X0057734Y0088297D01*
X0057655Y0088231D01*
X0057603Y0088141D01*
X0057585Y0088040D01*
X0057603Y0087938D01*
X0057587Y0088030D02*
X0058177Y0088030D01*
X0058111Y0088228D02*
X0057654Y0088228D01*
X0057676Y0087831D02*
X0058089Y0087831D01*
X0064711Y0090240D02*
X0064767Y0090130D01*
X0064855Y0090043D01*
X0064965Y0089987D01*
X0065087Y0089967D01*
X0065209Y0089987D01*
X0065319Y0090043D01*
X0065407Y0090130D01*
X0065463Y0090240D01*
X0065482Y0090363D01*
X0065463Y0090485D01*
X0065407Y0090595D01*
X0065319Y0090682D01*
X0065209Y0090739D01*
X0065087Y0090758D01*
X0064965Y0090739D01*
X0064855Y0090682D01*
X0064767Y0090595D01*
X0064711Y0090485D01*
X0064692Y0090363D01*
X0064711Y0090240D01*
X0064725Y0090214D02*
X0065449Y0090214D01*
X0065474Y0090412D02*
X0064700Y0090412D01*
X0064783Y0090611D02*
X0065391Y0090611D01*
X0065265Y0090015D02*
X0064909Y0090015D01*
X0068491Y0089304D02*
X0068547Y0089414D01*
X0068634Y0089501D01*
X0068744Y0089557D01*
X0068867Y0089577D01*
X0068989Y0089557D01*
X0069099Y0089501D01*
X0069186Y0089414D01*
X0069242Y0089304D01*
X0069262Y0089181D01*
X0069242Y0089059D01*
X0069186Y0088949D01*
X0069099Y0088862D01*
X0068989Y0088806D01*
X0068867Y0088786D01*
X0068744Y0088806D01*
X0068634Y0088862D01*
X0068547Y0088949D01*
X0068491Y0089059D01*
X0068471Y0089181D01*
X0068491Y0089304D01*
X0068478Y0089221D02*
X0069256Y0089221D01*
X0069224Y0089022D02*
X0068509Y0089022D01*
X0068708Y0088824D02*
X0069025Y0088824D01*
X0069181Y0089420D02*
X0068552Y0089420D01*
X0071719Y0088945D02*
X0071737Y0088844D01*
X0071789Y0088754D01*
X0071868Y0088688D01*
X0071965Y0088653D01*
X0072068Y0088653D01*
X0072165Y0088688D01*
X0072244Y0088754D01*
X0072295Y0088844D01*
X0072313Y0088945D01*
X0072295Y0089047D01*
X0072244Y0089136D01*
X0072165Y0089202D01*
X0072068Y0089238D01*
X0071965Y0089238D01*
X0071868Y0089202D01*
X0071789Y0089136D01*
X0071737Y0089047D01*
X0071719Y0088945D01*
X0071733Y0089022D02*
X0072299Y0089022D01*
X0072284Y0088824D02*
X0071749Y0088824D01*
X0071919Y0089221D02*
X0072113Y0089221D01*
X0072068Y0087663D02*
X0072165Y0087628D01*
X0072244Y0087561D01*
X0072295Y0087472D01*
X0072313Y0087370D01*
X0072295Y0087269D01*
X0072244Y0087180D01*
X0072165Y0087113D01*
X0072068Y0087078D01*
X0071965Y0087078D01*
X0071868Y0087113D01*
X0071789Y0087180D01*
X0071737Y0087269D01*
X0071719Y0087370D01*
X0071737Y0087472D01*
X0071789Y0087561D01*
X0071868Y0087628D01*
X0071965Y0087663D01*
X0072068Y0087663D01*
X0072150Y0087633D02*
X0071882Y0087633D01*
X0071731Y0087434D02*
X0072302Y0087434D01*
X0072276Y0087236D02*
X0071756Y0087236D01*
X0068070Y0082431D02*
X0068149Y0082364D01*
X0068201Y0082275D01*
X0068219Y0082174D01*
X0068201Y0082072D01*
X0068149Y0081983D01*
X0068070Y0081917D01*
X0067973Y0081881D01*
X0067870Y0081881D01*
X0067773Y0081917D01*
X0067694Y0081983D01*
X0067643Y0082072D01*
X0067625Y0082174D01*
X0067643Y0082275D01*
X0067694Y0082364D01*
X0067773Y0082431D01*
X0067870Y0082466D01*
X0067973Y0082466D01*
X0068070Y0082431D01*
X0068201Y0082273D02*
X0067642Y0082273D01*
X0067642Y0082075D02*
X0068201Y0082075D01*
X0066889Y0080226D02*
X0066968Y0080160D01*
X0067020Y0080070D01*
X0067037Y0079969D01*
X0067020Y0079867D01*
X0066968Y0079778D01*
X0066889Y0079712D01*
X0066792Y0079677D01*
X0066689Y0079677D01*
X0066592Y0079712D01*
X0066513Y0079778D01*
X0066462Y0079867D01*
X0066444Y0079969D01*
X0066462Y0080070D01*
X0066513Y0080160D01*
X0066592Y0080226D01*
X0066689Y0080261D01*
X0066792Y0080261D01*
X0066889Y0080226D01*
X0066968Y0080160D01*
X0067020Y0080070D01*
X0067037Y0079969D01*
X0067020Y0079867D01*
X0066968Y0079778D01*
X0066889Y0079712D01*
X0066792Y0079677D01*
X0066689Y0079677D01*
X0066592Y0079712D01*
X0066513Y0079778D01*
X0066462Y0079867D01*
X0066444Y0079969D01*
X0066462Y0080070D01*
X0066513Y0080160D01*
X0066592Y0080226D01*
X0066689Y0080261D01*
X0066792Y0080261D01*
X0066889Y0080226D01*
X0067009Y0080089D02*
X0066473Y0080089D01*
X0067009Y0080089D01*
X0067024Y0079891D02*
X0066457Y0079891D01*
X0067024Y0079891D01*
X0066836Y0079692D02*
X0066645Y0079692D01*
X0066836Y0079692D01*
X0068482Y0076801D02*
X0068579Y0076836D01*
X0068682Y0076836D01*
X0068779Y0076801D01*
X0068858Y0076735D01*
X0068909Y0076645D01*
X0068927Y0076544D01*
X0068909Y0076442D01*
X0068858Y0076353D01*
X0068779Y0076287D01*
X0068682Y0076251D01*
X0068579Y0076251D01*
X0068482Y0076287D01*
X0068403Y0076353D01*
X0068351Y0076442D01*
X0068333Y0076544D01*
X0068351Y0076645D01*
X0068403Y0076735D01*
X0068482Y0076801D01*
X0068392Y0076715D02*
X0068869Y0076715D01*
X0068922Y0076516D02*
X0068338Y0076516D01*
X0068445Y0076318D02*
X0068816Y0076318D01*
X0070144Y0076347D02*
X0070162Y0076448D01*
X0070214Y0076538D01*
X0070293Y0076604D01*
X0070390Y0076639D01*
X0070493Y0076639D01*
X0070590Y0076604D01*
X0070669Y0076538D01*
X0070720Y0076448D01*
X0070738Y0076347D01*
X0070720Y0076245D01*
X0070669Y0076156D01*
X0070590Y0076090D01*
X0070493Y0076055D01*
X0070390Y0076055D01*
X0070293Y0076090D01*
X0070214Y0076156D01*
X0070162Y0076245D01*
X0070144Y0076347D01*
X0070150Y0076318D02*
X0070733Y0076318D01*
X0070681Y0076516D02*
X0070202Y0076516D01*
X0070258Y0076119D02*
X0070625Y0076119D01*
X0071868Y0077665D02*
X0071965Y0077629D01*
X0072068Y0077629D01*
X0072165Y0077665D01*
X0072244Y0077731D01*
X0072295Y0077820D01*
X0072313Y0077922D01*
X0072295Y0078023D01*
X0072244Y0078112D01*
X0072165Y0078179D01*
X0072068Y0078214D01*
X0071965Y0078214D01*
X0071868Y0078179D01*
X0071789Y0078112D01*
X0071737Y0078023D01*
X0071719Y0077922D01*
X0071737Y0077820D01*
X0071789Y0077731D01*
X0071868Y0077665D01*
X0071789Y0077731D01*
X0071737Y0077820D01*
X0071719Y0077922D01*
X0071737Y0078023D01*
X0071789Y0078112D01*
X0071868Y0078179D01*
X0071965Y0078214D01*
X0072068Y0078214D01*
X0072165Y0078179D01*
X0072244Y0078112D01*
X0072295Y0078023D01*
X0072313Y0077922D01*
X0072295Y0077820D01*
X0072244Y0077731D01*
X0072165Y0077665D01*
X0072068Y0077629D01*
X0071965Y0077629D01*
X0071868Y0077665D01*
X0071817Y0077707D02*
X0072216Y0077707D01*
X0071817Y0077707D01*
X0071722Y0077906D02*
X0072310Y0077906D01*
X0071722Y0077906D01*
X0071784Y0078104D02*
X0072248Y0078104D01*
X0071784Y0078104D01*
X0071965Y0080779D02*
X0071868Y0080814D01*
X0071789Y0080880D01*
X0071737Y0080970D01*
X0071719Y0081071D01*
X0071737Y0081173D01*
X0071789Y0081262D01*
X0071868Y0081328D01*
X0071965Y0081364D01*
X0072068Y0081364D01*
X0072165Y0081328D01*
X0072244Y0081262D01*
X0072295Y0081173D01*
X0072313Y0081071D01*
X0072295Y0080970D01*
X0072244Y0080880D01*
X0072165Y0080814D01*
X0072068Y0080779D01*
X0071965Y0080779D01*
X0071787Y0080884D02*
X0072245Y0080884D01*
X0072311Y0081082D02*
X0071721Y0081082D01*
X0071811Y0081281D02*
X0072222Y0081281D01*
X0081186Y0078023D02*
X0081238Y0078112D01*
X0081317Y0078179D01*
X0081413Y0078214D01*
X0081517Y0078214D01*
X0081613Y0078179D01*
X0081692Y0078112D01*
X0081744Y0078023D01*
X0081762Y0077922D01*
X0081744Y0077820D01*
X0081692Y0077731D01*
X0081613Y0077665D01*
X0081517Y0077629D01*
X0081413Y0077629D01*
X0081317Y0077665D01*
X0081238Y0077731D01*
X0081186Y0077820D01*
X0081168Y0077922D01*
X0081186Y0078023D01*
X0081238Y0078112D01*
X0081317Y0078179D01*
X0081413Y0078214D01*
X0081517Y0078214D01*
X0081613Y0078179D01*
X0081692Y0078112D01*
X0081744Y0078023D01*
X0081762Y0077922D01*
X0081744Y0077820D01*
X0081692Y0077731D01*
X0081613Y0077665D01*
X0081517Y0077629D01*
X0081413Y0077629D01*
X0081317Y0077665D01*
X0081238Y0077731D01*
X0081186Y0077820D01*
X0081168Y0077922D01*
X0081186Y0078023D01*
X0081233Y0078104D02*
X0081697Y0078104D01*
X0081233Y0078104D01*
X0081171Y0077906D02*
X0081759Y0077906D01*
X0081171Y0077906D01*
X0081266Y0077707D02*
X0081664Y0077707D01*
X0081266Y0077707D01*
X0082812Y0076538D02*
X0082891Y0076604D01*
X0082988Y0076639D01*
X0083091Y0076639D01*
X0083188Y0076604D01*
X0083267Y0076538D01*
X0083319Y0076448D01*
X0083337Y0076347D01*
X0083319Y0076245D01*
X0083267Y0076156D01*
X0083188Y0076090D01*
X0083091Y0076055D01*
X0082988Y0076055D01*
X0082891Y0076090D01*
X0082812Y0076156D01*
X0082761Y0076245D01*
X0082743Y0076347D01*
X0082761Y0076448D01*
X0082812Y0076538D01*
X0082800Y0076516D02*
X0083280Y0076516D01*
X0083331Y0076318D02*
X0082748Y0076318D01*
X0082856Y0076119D02*
X0083223Y0076119D01*
X0081929Y0075120D02*
X0081980Y0075031D01*
X0081998Y0074930D01*
X0081980Y0074828D01*
X0081929Y0074739D01*
X0081850Y0074672D01*
X0081753Y0074637D01*
X0081650Y0074637D01*
X0081553Y0074672D01*
X0081474Y0074739D01*
X0081422Y0074828D01*
X0081404Y0074930D01*
X0081422Y0075031D01*
X0081474Y0075120D01*
X0081553Y0075187D01*
X0081650Y0075222D01*
X0081753Y0075222D01*
X0081850Y0075187D01*
X0081929Y0075120D01*
X0081921Y0075127D02*
X0081481Y0075127D01*
X0081405Y0074928D02*
X0081998Y0074928D01*
X0081918Y0074730D02*
X0081485Y0074730D01*
X0092703Y0079306D02*
X0092755Y0079217D01*
X0092834Y0079150D01*
X0092931Y0079115D01*
X0093034Y0079115D01*
X0093131Y0079150D01*
X0093210Y0079217D01*
X0093261Y0079306D01*
X0093279Y0079407D01*
X0093261Y0079509D01*
X0093210Y0079598D01*
X0093131Y0079664D01*
X0093034Y0079700D01*
X0092931Y0079700D01*
X0092834Y0079664D01*
X0092755Y0079598D01*
X0092703Y0079509D01*
X0092686Y0079407D01*
X0092703Y0079306D01*
X0092710Y0079295D02*
X0093255Y0079295D01*
X0093264Y0079494D02*
X0092701Y0079494D01*
X0092911Y0079692D02*
X0093054Y0079692D01*
X0097428Y0080126D02*
X0097452Y0080279D01*
X0097522Y0080417D01*
X0097631Y0080526D01*
X0097769Y0080596D01*
X0097922Y0080620D01*
X0098074Y0080596D01*
X0098212Y0080526D01*
X0098321Y0080417D01*
X0098391Y0080279D01*
X0098415Y0080126D01*
X0098391Y0079974D01*
X0098321Y0079836D01*
X0098212Y0079727D01*
X0098074Y0079657D01*
X0097922Y0079633D01*
X0097769Y0079657D01*
X0097631Y0079727D01*
X0097522Y0079836D01*
X0097452Y0079974D01*
X0097428Y0080126D01*
X0097434Y0080089D02*
X0098410Y0080089D01*
X0098387Y0080288D02*
X0097457Y0080288D01*
X0097592Y0080486D02*
X0098251Y0080486D01*
X0098349Y0079891D02*
X0097494Y0079891D01*
X0097699Y0079692D02*
X0098144Y0079692D01*
X0084239Y0088072D02*
X0084160Y0088006D01*
X0084063Y0087971D01*
X0083960Y0087971D01*
X0083863Y0088006D01*
X0083784Y0088072D01*
X0083732Y0088162D01*
X0083714Y0088263D01*
X0083732Y0088365D01*
X0083784Y0088454D01*
X0083863Y0088520D01*
X0083960Y0088555D01*
X0084063Y0088555D01*
X0084160Y0088520D01*
X0084239Y0088454D01*
X0084290Y0088365D01*
X0084308Y0088263D01*
X0084290Y0088162D01*
X0084239Y0088072D01*
X0084188Y0088030D02*
X0083834Y0088030D01*
X0083720Y0088228D02*
X0084302Y0088228D01*
X0084254Y0088427D02*
X0083768Y0088427D01*
X0083188Y0087628D02*
X0083267Y0087561D01*
X0083319Y0087472D01*
X0083337Y0087370D01*
X0083319Y0087269D01*
X0083267Y0087180D01*
X0083188Y0087113D01*
X0083091Y0087078D01*
X0082988Y0087078D01*
X0082891Y0087113D01*
X0082812Y0087180D01*
X0082761Y0087269D01*
X0082743Y0087370D01*
X0082761Y0087472D01*
X0082812Y0087561D01*
X0082891Y0087628D01*
X0082988Y0087663D01*
X0083091Y0087663D01*
X0083188Y0087628D01*
X0083173Y0087633D02*
X0082906Y0087633D01*
X0082754Y0087434D02*
X0083325Y0087434D01*
X0083300Y0087236D02*
X0082780Y0087236D01*
X0081762Y0087370D02*
X0081744Y0087269D01*
X0081692Y0087180D01*
X0081613Y0087113D01*
X0081517Y0087078D01*
X0081413Y0087078D01*
X0081317Y0087113D01*
X0081238Y0087180D01*
X0081186Y0087269D01*
X0081168Y0087370D01*
X0081186Y0087472D01*
X0081238Y0087561D01*
X0081317Y0087628D01*
X0081413Y0087663D01*
X0081517Y0087663D01*
X0081613Y0087628D01*
X0081692Y0087561D01*
X0081744Y0087472D01*
X0081762Y0087370D01*
X0081744Y0087269D01*
X0081692Y0087180D01*
X0081613Y0087113D01*
X0081517Y0087078D01*
X0081413Y0087078D01*
X0081317Y0087113D01*
X0081238Y0087180D01*
X0081186Y0087269D01*
X0081168Y0087370D01*
X0081186Y0087472D01*
X0081238Y0087561D01*
X0081317Y0087628D01*
X0081413Y0087663D01*
X0081517Y0087663D01*
X0081613Y0087628D01*
X0081692Y0087561D01*
X0081744Y0087472D01*
X0081762Y0087370D01*
X0081751Y0087434D02*
X0081179Y0087434D01*
X0081751Y0087434D01*
X0081725Y0087236D02*
X0081205Y0087236D01*
X0081725Y0087236D01*
X0081599Y0087633D02*
X0081331Y0087633D01*
X0081599Y0087633D01*
X0081630Y0091109D02*
X0081533Y0091144D01*
X0081454Y0091210D01*
X0081403Y0091299D01*
X0081385Y0091401D01*
X0081403Y0091502D01*
X0081454Y0091592D01*
X0081533Y0091658D01*
X0081630Y0091693D01*
X0081733Y0091693D01*
X0081830Y0091658D01*
X0081909Y0091592D01*
X0081961Y0091502D01*
X0081979Y0091401D01*
X0081961Y0091299D01*
X0081909Y0091210D01*
X0081830Y0091144D01*
X0081733Y0091109D01*
X0081630Y0091109D01*
X0081459Y0091206D02*
X0081904Y0091206D01*
X0081978Y0091405D02*
X0081386Y0091405D01*
X0081468Y0091603D02*
X0081896Y0091603D01*
X0059539Y0081240D02*
X0059557Y0081138D01*
X0059539Y0081037D01*
X0059488Y0080947D01*
X0059409Y0080881D01*
X0059312Y0080846D01*
X0059209Y0080846D01*
X0059112Y0080881D01*
X0059033Y0080947D01*
X0058981Y0081037D01*
X0058963Y0081138D01*
X0058981Y0081240D01*
X0059033Y0081329D01*
X0059112Y0081395D01*
X0059209Y0081431D01*
X0059312Y0081431D01*
X0059409Y0081395D01*
X0059488Y0081329D01*
X0059539Y0081240D01*
X0059516Y0081281D02*
X0059005Y0081281D01*
X0058973Y0081082D02*
X0059547Y0081082D01*
X0059412Y0080884D02*
X0059109Y0080884D01*
D14*
X0068867Y0085586D02*
X0069549Y0084904D01*
X0072016Y0087370D01*
X0069549Y0084904D02*
X0069549Y0077552D01*
X0070441Y0076660D01*
X0070441Y0076347D01*
X0072016Y0077922D02*
X0072016Y0081071D01*
X0068867Y0085586D02*
X0068867Y0089181D01*
X0067238Y0092507D02*
X0064536Y0092016D01*
X0077340Y0092379D02*
X0080611Y0091857D01*
X0081523Y0091559D01*
X0081682Y0091401D01*
X0084011Y0088263D02*
X0085376Y0086898D01*
X0085376Y0085505D01*
X0089324Y0081557D01*
X0090833Y0081557D01*
X0091904Y0080486D01*
X0092982Y0079407D01*
X0096111Y0079260D02*
X0097922Y0080126D01*
X0083932Y0077237D02*
X0083277Y0076582D01*
X0083040Y0076345D01*
X0083932Y0077237D02*
X0083932Y0084590D01*
X0083040Y0085483D01*
X0083040Y0087370D01*
X0081465Y0087370D02*
X0080520Y0086426D01*
X0080520Y0083355D01*
X0081465Y0082410D01*
X0081465Y0077922D01*
X0085796Y0024772D02*
X0087174Y0023394D01*
X0087961Y0023394D01*
X0090144Y0024593D01*
X0090225Y0024674D01*
D15*
X0105244Y0066701D02*
X0106471Y0068085D01*
X0106471Y0068221D01*
X0083394Y0070048D02*
X0082489Y0070953D01*
X0082489Y0074930D01*
X0082489Y0075794D01*
X0083040Y0076345D01*
X0082489Y0074930D02*
X0081701Y0074930D01*
X0079103Y0075559D02*
X0074378Y0075559D01*
X0072016Y0077922D01*
X0079103Y0075559D02*
X0081465Y0077922D01*
X0081465Y0087370D02*
X0081465Y0089339D01*
X0082252Y0090126D01*
X0083749Y0090126D01*
X0083763Y0090113D01*
X0083841Y0090113D01*
X0084615Y0089339D01*
X0072016Y0088945D02*
X0070599Y0090363D01*
X0065087Y0090363D01*
D16*
X0084615Y0089339D02*
X0087764Y0086189D01*
X0090520Y0086189D01*
X0091701Y0085008D01*
X0094047Y0085008D01*
X0094058Y0085001D01*
D17*
X0068867Y0089181D03*
X0065087Y0090363D03*
X0045008Y0048788D03*
D18*
X0047764Y0078777D02*
X0047764Y0082961D01*
X0050520Y0085717D01*
X0056965Y0089678D01*
X0056965Y0089678D01*
X0057406Y0089904D01*
X0057891Y0090153D01*
X0062692Y0091722D01*
X0063129Y0091792D01*
X0063040Y0091703D01*
X0063040Y0088000D01*
X0067922Y0083119D01*
X0067922Y0082174D01*
X0064536Y0092016D02*
X0063129Y0091792D01*
X0067238Y0092507D02*
X0069480Y0092865D01*
X0074913Y0092865D01*
X0077222Y0092497D02*
X0077340Y0092379D01*
X0083275Y0076582D02*
X0083277Y0076582D01*
X0083275Y0076582D02*
X0083040Y0076347D01*
X0057406Y0089904D02*
X0057406Y0089904D01*
X0057406Y0089904D01*
M02*
