G75*
%MOIN*%
%OFA0B0*%
%FSLAX25Y25*%
%IPPOS*%
%LPD*%
%AMOC8*
5,1,8,0,0,1.08239X$1,22.5*
%
%ADD10C,0.00984*%
%ADD11R,0.02756X0.05118*%
%ADD12R,0.01575X0.01181*%
%ADD13R,0.01181X0.01575*%
%ADD14R,0.00984X0.01969*%
%ADD15R,0.01969X0.00984*%
%ADD16R,0.01181X0.01969*%
%ADD17R,0.01969X0.01181*%
%ADD18R,0.11024X0.11024*%
%ADD19R,0.12205X0.12205*%
%ADD20R,0.02362X0.00984*%
%ADD21R,0.00984X0.02362*%
%ADD22R,0.00394X0.00394*%
%ADD23C,0.00394*%
%ADD24C,0.00200*%
%ADD25R,0.05118X0.02756*%
%ADD26R,0.02756X0.00984*%
%ADD27R,0.06496X0.09370*%
%ADD28R,0.00945X0.01929*%
%ADD29R,0.02362X0.01575*%
%ADD30R,0.05906X0.09843*%
%ADD31R,0.02756X0.03543*%
%ADD32R,0.01378X0.00787*%
%ADD33R,0.01575X0.02362*%
%ADD34C,0.00492*%
%ADD35C,0.00394*%
%ADD36C,0.00591*%
%ADD37C,0.00906*%
%ADD38C,0.02362*%
%ADD39C,0.03543*%
%ADD40C,0.00787*%
%ADD41R,0.01969X0.02756*%
%ADD42R,0.05906X0.02362*%
%ADD43R,0.01969X0.02362*%
%ADD44C,0.02953*%
%ADD45R,0.03937X0.05906*%
%ADD46R,0.02362X0.05906*%
%ADD47C,0.00594*%
%ADD48C,0.00787*%
%ADD49C,0.01102*%
%ADD50C,0.00300*%
%ADD51C,0.00827*%
%ADD52C,0.01654*%
%ADD53C,0.00400*%
%ADD54C,0.00500*%
%ADD55C,0.00800*%
%ADD56C,0.00600*%
%ADD57C,0.01000*%
%ADD58C,0.01181*%
%ADD59C,0.01600*%
%ADD60C,0.01969*%
%ADD61C,0.00512*%
%ADD62C,0.01575*%
%ADD63C,0.02362*%
%ADD64C,0.02205*%
%ADD65C,0.01457*%
D10*
X0071747Y0092947D03*
X0073715Y0092947D03*
X0073715Y0094916D03*
X0073715Y0096884D03*
X0071747Y0096884D03*
X0071747Y0094916D03*
X0075684Y0094916D03*
X0075684Y0096884D03*
X0075684Y0092947D03*
X0090251Y0106333D03*
X0092219Y0106333D03*
X0092219Y0108301D03*
X0090251Y0108301D03*
X0090251Y0110270D03*
X0092219Y0110270D03*
X0094188Y0110270D03*
X0094188Y0108301D03*
X0094188Y0106333D03*
X0106786Y0147278D03*
X0106786Y0149246D03*
X0108755Y0149246D03*
X0110723Y0149246D03*
X0110723Y0147278D03*
X0108755Y0147278D03*
X0108755Y0151215D03*
X0110723Y0151215D03*
X0106786Y0151215D03*
X0083951Y0150821D03*
X0081983Y0150821D03*
X0080014Y0150821D03*
X0080014Y0152790D03*
X0080014Y0154758D03*
X0081983Y0154758D03*
X0081983Y0152790D03*
X0083951Y0152790D03*
X0083951Y0154758D03*
D11*
G36*
X0063277Y0155805D02*
X0061329Y0157753D01*
X0064947Y0161371D01*
X0066895Y0159423D01*
X0063277Y0155805D01*
G37*
G36*
X0057709Y0161372D02*
X0055761Y0163320D01*
X0059379Y0166938D01*
X0061327Y0164990D01*
X0057709Y0161372D01*
G37*
X0079030Y0130624D03*
X0086904Y0130624D03*
X0103125Y0126254D03*
X0110999Y0126254D03*
X0110880Y0142672D03*
X0118755Y0142672D03*
G36*
X0123187Y0150236D02*
X0125135Y0152184D01*
X0128753Y0148566D01*
X0126805Y0146618D01*
X0123187Y0150236D01*
G37*
G36*
X0128755Y0155804D02*
X0130703Y0157752D01*
X0134321Y0154134D01*
X0132373Y0152186D01*
X0128755Y0155804D01*
G37*
X0105290Y0091924D03*
X0097416Y0091924D03*
D12*
X0108098Y0093223D03*
X0110132Y0093223D03*
X0110132Y0095585D03*
X0108098Y0095585D03*
X0120132Y0110427D03*
X0120132Y0112790D03*
X0120132Y0114364D03*
X0120132Y0116727D03*
X0107940Y0141884D03*
X0107940Y0144246D03*
X0105526Y0144246D03*
X0105526Y0141884D03*
X0105251Y0153695D03*
X0105251Y0156057D03*
X0085014Y0148341D03*
X0085014Y0145979D03*
X0084896Y0143616D03*
X0084896Y0141254D03*
X0082337Y0145979D03*
X0082337Y0148341D03*
X0079916Y0148326D03*
X0079916Y0145964D03*
X0059896Y0141254D03*
X0059896Y0138892D03*
X0084936Y0115506D03*
X0087180Y0115506D03*
X0087180Y0113144D03*
X0084936Y0113144D03*
X0080487Y0102632D03*
X0080487Y0100270D03*
X0068715Y0097160D03*
X0068715Y0094798D03*
D13*
X0078321Y0093774D03*
X0078321Y0095979D03*
X0078321Y0098420D03*
X0080684Y0098420D03*
X0080684Y0095979D03*
X0080684Y0093774D03*
X0080684Y0091569D03*
X0079896Y0089483D03*
X0077534Y0089483D03*
X0078321Y0091569D03*
X0082770Y0087790D03*
X0085132Y0087790D03*
X0098006Y0095821D03*
X0100369Y0095821D03*
X0102377Y0095729D03*
X0104739Y0095729D03*
X0093243Y0103577D03*
X0090880Y0103577D03*
X0093125Y0113183D03*
X0093125Y0115388D03*
X0095487Y0115388D03*
X0095487Y0113183D03*
X0102928Y0120388D03*
X0103636Y0122475D03*
X0105014Y0122475D03*
X0105290Y0120388D03*
X0107377Y0122475D03*
X0109069Y0121963D03*
X0109069Y0119758D03*
X0111432Y0119758D03*
X0111432Y0121963D03*
X0116510Y0120939D03*
X0118873Y0120939D03*
X0118400Y0118735D03*
X0120762Y0118735D03*
X0118873Y0123341D03*
X0116510Y0123341D03*
X0119975Y0108301D03*
X0119975Y0106136D03*
X0122337Y0106136D03*
X0122337Y0108301D03*
X0101274Y0122475D03*
X0082180Y0112357D03*
X0079818Y0112357D03*
X0076117Y0128105D03*
X0073755Y0128105D03*
X0060408Y0131097D03*
X0060408Y0133459D03*
X0058046Y0133459D03*
X0058046Y0131097D03*
X0058046Y0136057D03*
X0060408Y0136057D03*
X0062455Y0145073D03*
X0064818Y0145073D03*
G36*
X0064601Y0147012D02*
X0063767Y0146178D01*
X0062655Y0147290D01*
X0063489Y0148124D01*
X0064601Y0147012D01*
G37*
G36*
X0066271Y0148683D02*
X0065437Y0147849D01*
X0064325Y0148961D01*
X0065159Y0149795D01*
X0066271Y0148683D01*
G37*
X0080723Y0157475D03*
X0083085Y0157475D03*
X0106983Y0153853D03*
X0109345Y0153853D03*
X0113479Y0146451D03*
X0115841Y0146451D03*
X0060999Y0120388D03*
X0058636Y0120388D03*
D14*
X0084699Y0101333D03*
X0086274Y0101333D03*
X0087849Y0101333D03*
X0089424Y0101333D03*
X0090999Y0101333D03*
X0092573Y0101333D03*
X0092573Y0089916D03*
X0090999Y0089916D03*
X0089424Y0089916D03*
X0087849Y0089916D03*
X0086274Y0089916D03*
X0084699Y0089916D03*
D15*
X0082928Y0091687D03*
X0082928Y0093262D03*
X0082928Y0094837D03*
X0082928Y0096412D03*
X0082928Y0097987D03*
X0082928Y0099561D03*
X0094345Y0099561D03*
X0094345Y0097987D03*
X0094345Y0096412D03*
X0094345Y0094837D03*
X0094345Y0093262D03*
X0094345Y0091687D03*
D16*
X0074687Y0099787D03*
X0072719Y0099787D03*
X0070750Y0099787D03*
X0068782Y0099787D03*
X0066813Y0099787D03*
X0064845Y0099787D03*
X0064845Y0115535D03*
X0066813Y0115535D03*
X0068782Y0115535D03*
X0070750Y0115535D03*
X0072719Y0115535D03*
X0074687Y0115535D03*
D17*
X0077640Y0112582D03*
X0077640Y0110613D03*
X0077640Y0108645D03*
X0077640Y0106676D03*
X0077640Y0104708D03*
X0077640Y0102739D03*
X0061892Y0102739D03*
X0061892Y0104708D03*
X0061892Y0106676D03*
X0061892Y0108645D03*
X0061892Y0110613D03*
X0061892Y0112582D03*
D18*
X0069766Y0107661D03*
D19*
X0107808Y0107653D03*
D20*
X0098360Y0106669D03*
X0098360Y0104701D03*
X0098360Y0102732D03*
X0098360Y0100764D03*
X0098360Y0108638D03*
X0098360Y0110606D03*
X0098360Y0112575D03*
X0098360Y0114543D03*
X0117257Y0114543D03*
X0117257Y0112575D03*
X0117257Y0110606D03*
X0117257Y0108638D03*
X0117257Y0106669D03*
X0117257Y0104701D03*
X0117257Y0102732D03*
X0117257Y0100764D03*
D21*
X0114698Y0098205D03*
X0112730Y0098205D03*
X0110761Y0098205D03*
X0108793Y0098205D03*
X0106824Y0098205D03*
X0104856Y0098205D03*
X0102887Y0098205D03*
X0100919Y0098205D03*
X0100919Y0117102D03*
X0102887Y0117102D03*
X0104856Y0117102D03*
X0106824Y0117102D03*
X0108793Y0117102D03*
X0110761Y0117102D03*
X0112730Y0117102D03*
X0114698Y0117102D03*
D22*
G36*
X0121314Y0132236D02*
X0121036Y0132514D01*
X0121314Y0132792D01*
X0121592Y0132514D01*
X0121314Y0132236D01*
G37*
G36*
X0103676Y0131921D02*
X0103398Y0132199D01*
X0103676Y0132477D01*
X0103954Y0132199D01*
X0103676Y0131921D01*
G37*
G36*
X0096117Y0131685D02*
X0095839Y0131963D01*
X0096117Y0132241D01*
X0096395Y0131963D01*
X0096117Y0131685D01*
G37*
D23*
X0097416Y0130270D03*
X0097416Y0133656D03*
X0094818Y0133656D03*
X0094818Y0130270D03*
X0102377Y0130506D03*
X0102377Y0133892D03*
X0104975Y0133892D03*
X0104975Y0130506D03*
X0120014Y0130821D03*
X0122613Y0130821D03*
X0122613Y0134207D03*
X0120014Y0134207D03*
D24*
X0120381Y0133983D02*
X0119522Y0133983D01*
X0119522Y0133785D02*
X0120183Y0133785D01*
X0119984Y0133586D02*
X0119522Y0133586D01*
X0119522Y0133400D02*
X0119798Y0133400D01*
X0120546Y0134148D01*
X0120546Y0135014D01*
X0119522Y0135014D01*
X0119522Y0133400D01*
X0119522Y0134182D02*
X0120546Y0134182D01*
X0120546Y0134380D02*
X0119522Y0134380D01*
X0119522Y0134579D02*
X0120546Y0134579D01*
X0120546Y0134777D02*
X0119522Y0134777D01*
X0119522Y0134976D02*
X0120546Y0134976D01*
X0121314Y0134089D02*
X0119738Y0132514D01*
X0121314Y0130939D01*
X0122889Y0132514D01*
X0121314Y0134089D01*
X0121208Y0133983D02*
X0121420Y0133983D01*
X0121618Y0133785D02*
X0121009Y0133785D01*
X0120811Y0133586D02*
X0121817Y0133586D01*
X0122015Y0133388D02*
X0120612Y0133388D01*
X0120414Y0133189D02*
X0122214Y0133189D01*
X0122412Y0132991D02*
X0120215Y0132991D01*
X0120017Y0132792D02*
X0122611Y0132792D01*
X0122809Y0132594D02*
X0119818Y0132594D01*
X0119857Y0132395D02*
X0122770Y0132395D01*
X0122572Y0132197D02*
X0120056Y0132197D01*
X0120254Y0131998D02*
X0122373Y0131998D01*
X0122175Y0131800D02*
X0120453Y0131800D01*
X0120651Y0131601D02*
X0121976Y0131601D01*
X0121777Y0131403D02*
X0120850Y0131403D01*
X0120968Y0131575D02*
X0120917Y0131665D01*
X0120899Y0131766D01*
X0120917Y0131868D01*
X0120968Y0131957D01*
X0121047Y0132023D01*
X0121144Y0132058D01*
X0121247Y0132058D01*
X0121344Y0132023D01*
X0121423Y0131957D01*
X0121474Y0131868D01*
X0121492Y0131766D01*
X0121474Y0131665D01*
X0121423Y0131575D01*
X0121344Y0131509D01*
X0121247Y0131474D01*
X0121144Y0131474D01*
X0121047Y0131509D01*
X0120968Y0131575D01*
X0120953Y0131601D02*
X0121438Y0131601D01*
X0121486Y0131800D02*
X0120905Y0131800D01*
X0121017Y0131998D02*
X0121373Y0131998D01*
X0121579Y0131204D02*
X0121048Y0131204D01*
X0121247Y0131006D02*
X0121380Y0131006D01*
X0122081Y0130880D02*
X0122081Y0130014D01*
X0123105Y0130014D01*
X0123105Y0131628D01*
X0122829Y0131628D01*
X0122081Y0130880D01*
X0122081Y0130807D02*
X0123105Y0130807D01*
X0123105Y0130609D02*
X0122081Y0130609D01*
X0122081Y0130410D02*
X0123105Y0130410D01*
X0123105Y0130212D02*
X0122081Y0130212D01*
X0122207Y0131006D02*
X0123105Y0131006D01*
X0123105Y0131204D02*
X0122405Y0131204D01*
X0122604Y0131403D02*
X0123105Y0131403D01*
X0123105Y0131601D02*
X0122802Y0131601D01*
X0123523Y0133029D02*
X0123386Y0133099D01*
X0123276Y0133208D01*
X0123206Y0133346D01*
X0123182Y0133498D01*
X0123206Y0133651D01*
X0123276Y0133789D01*
X0123386Y0133898D01*
X0123523Y0133968D01*
X0123676Y0133992D01*
X0123828Y0133968D01*
X0123966Y0133898D01*
X0124075Y0133789D01*
X0124145Y0133651D01*
X0124169Y0133498D01*
X0124145Y0133346D01*
X0124075Y0133208D01*
X0123966Y0133099D01*
X0123828Y0133029D01*
X0123676Y0133005D01*
X0123523Y0133029D01*
X0123295Y0133189D02*
X0124056Y0133189D01*
X0124152Y0133388D02*
X0123200Y0133388D01*
X0123105Y0133400D02*
X0122829Y0133400D01*
X0122081Y0134148D01*
X0122081Y0135014D01*
X0123105Y0135014D01*
X0123105Y0133400D01*
X0123105Y0133586D02*
X0122643Y0133586D01*
X0122444Y0133785D02*
X0123105Y0133785D01*
X0123274Y0133785D02*
X0124077Y0133785D01*
X0124156Y0133586D02*
X0123196Y0133586D01*
X0123105Y0133983D02*
X0122246Y0133983D01*
X0122081Y0134182D02*
X0123105Y0134182D01*
X0123105Y0134380D02*
X0122081Y0134380D01*
X0122081Y0134579D02*
X0123105Y0134579D01*
X0123105Y0134777D02*
X0122081Y0134777D01*
X0122081Y0134976D02*
X0123105Y0134976D01*
X0123621Y0133983D02*
X0123730Y0133983D01*
X0120546Y0130880D02*
X0120546Y0130014D01*
X0119522Y0130014D01*
X0119522Y0131628D01*
X0119798Y0131628D01*
X0120546Y0130880D01*
X0120546Y0130807D02*
X0119522Y0130807D01*
X0119522Y0130609D02*
X0120546Y0130609D01*
X0120546Y0130410D02*
X0119522Y0130410D01*
X0119522Y0130212D02*
X0120546Y0130212D01*
X0120420Y0131006D02*
X0119522Y0131006D01*
X0119522Y0131204D02*
X0120222Y0131204D01*
X0120023Y0131403D02*
X0119522Y0131403D01*
X0119522Y0131601D02*
X0119825Y0131601D01*
X0114950Y0140579D02*
X0114813Y0140509D01*
X0114660Y0140485D01*
X0114507Y0140509D01*
X0114370Y0140579D01*
X0114261Y0140688D01*
X0114190Y0140826D01*
X0114166Y0140979D01*
X0114190Y0141131D01*
X0114261Y0141269D01*
X0114370Y0141378D01*
X0114507Y0141448D01*
X0114660Y0141472D01*
X0114813Y0141448D01*
X0114950Y0141378D01*
X0115059Y0141269D01*
X0115130Y0141131D01*
X0115154Y0140979D01*
X0115130Y0140826D01*
X0115059Y0140688D01*
X0114950Y0140579D01*
X0114862Y0140534D02*
X0114458Y0140534D01*
X0114238Y0140733D02*
X0115082Y0140733D01*
X0115146Y0140931D02*
X0114174Y0140931D01*
X0114190Y0141130D02*
X0115130Y0141130D01*
X0115000Y0141328D02*
X0114320Y0141328D01*
X0113479Y0146451D02*
X0113479Y0146530D01*
X0114936Y0147987D01*
X0115954Y0147214D02*
X0116063Y0147323D01*
X0116200Y0147393D01*
X0116353Y0147417D01*
X0116505Y0147393D01*
X0116643Y0147323D01*
X0116752Y0147214D01*
X0116822Y0147076D01*
X0116847Y0146924D01*
X0116822Y0146771D01*
X0116752Y0146633D01*
X0116643Y0146524D01*
X0116505Y0146454D01*
X0116353Y0146430D01*
X0116200Y0146454D01*
X0116063Y0146524D01*
X0115954Y0146633D01*
X0115883Y0146771D01*
X0115859Y0146924D01*
X0115883Y0147076D01*
X0115954Y0147214D01*
X0116023Y0147284D02*
X0116682Y0147284D01*
X0116818Y0147085D02*
X0115888Y0147085D01*
X0115865Y0146887D02*
X0116841Y0146887D01*
X0116780Y0146688D02*
X0115926Y0146688D01*
X0115880Y0146648D02*
X0115841Y0146451D01*
X0115880Y0146648D02*
X0116353Y0146924D01*
X0116131Y0146490D02*
X0116575Y0146490D01*
X0113873Y0146687D02*
X0113715Y0146609D01*
X0113676Y0146648D01*
X0113715Y0146609D02*
X0113479Y0146451D01*
X0114936Y0149561D02*
X0114266Y0150231D01*
X0106195Y0150231D01*
X0105605Y0150821D01*
X0103202Y0150821D01*
X0101471Y0152552D01*
X0101471Y0152593D01*
X0101742Y0153346D02*
X0101707Y0153380D01*
X0099109Y0153380D01*
X0098321Y0152593D01*
X0098270Y0153875D02*
X0098173Y0153911D01*
X0098094Y0153977D01*
X0098042Y0154066D01*
X0098025Y0154168D01*
X0098042Y0154269D01*
X0098094Y0154358D01*
X0098173Y0154425D01*
X0098270Y0154460D01*
X0098373Y0154460D01*
X0098470Y0154425D01*
X0098549Y0154358D01*
X0098600Y0154269D01*
X0098618Y0154168D01*
X0098600Y0154066D01*
X0098549Y0153977D01*
X0098470Y0153911D01*
X0098373Y0153875D01*
X0098270Y0153875D01*
X0098062Y0154033D02*
X0098581Y0154033D01*
X0098607Y0154232D02*
X0098036Y0154232D01*
X0098188Y0154430D02*
X0098455Y0154430D01*
X0098321Y0154168D02*
X0097534Y0154955D01*
X0097534Y0156215D01*
X0096038Y0157711D01*
X0092652Y0157711D01*
X0091786Y0158577D01*
X0091786Y0158656D01*
X0091530Y0158797D02*
X0092042Y0158797D01*
X0092065Y0158757D02*
X0092083Y0158656D01*
X0092065Y0158554D01*
X0092013Y0158465D01*
X0091934Y0158399D01*
X0091838Y0158363D01*
X0091734Y0158363D01*
X0091638Y0158399D01*
X0091559Y0158465D01*
X0091507Y0158554D01*
X0091489Y0158656D01*
X0091507Y0158757D01*
X0091559Y0158847D01*
X0091638Y0158913D01*
X0091734Y0158948D01*
X0091838Y0158948D01*
X0091934Y0158913D01*
X0092013Y0158847D01*
X0092065Y0158757D01*
X0092073Y0158599D02*
X0091499Y0158599D01*
X0091636Y0158400D02*
X0091936Y0158400D01*
X0092967Y0157042D02*
X0089621Y0157042D01*
X0089109Y0157042D01*
X0087613Y0158538D01*
X0087613Y0158695D01*
X0087333Y0158599D02*
X0087893Y0158599D01*
X0087892Y0158594D02*
X0087840Y0158504D01*
X0087761Y0158438D01*
X0087664Y0158403D01*
X0087561Y0158403D01*
X0087464Y0158438D01*
X0087385Y0158504D01*
X0087334Y0158594D01*
X0087316Y0158695D01*
X0087334Y0158797D01*
X0087891Y0158797D01*
X0087892Y0158797D02*
X0087910Y0158695D01*
X0087892Y0158594D01*
X0087892Y0158797D02*
X0087840Y0158886D01*
X0087761Y0158952D01*
X0087664Y0158988D01*
X0087561Y0158988D01*
X0087464Y0158952D01*
X0087385Y0158886D01*
X0087334Y0158797D01*
X0088085Y0156530D02*
X0087278Y0155723D01*
X0087278Y0154187D01*
X0083951Y0150821D01*
X0084546Y0149675D02*
X0083927Y0149056D01*
X0083927Y0147066D01*
X0085014Y0145979D01*
X0086077Y0145979D01*
X0086451Y0145605D01*
X0086451Y0143085D01*
X0085703Y0142337D01*
X0084050Y0142337D01*
X0083518Y0141805D01*
X0083518Y0138931D01*
X0083440Y0138853D01*
X0082298Y0140034D02*
X0082298Y0141372D01*
X0084542Y0143616D01*
X0084896Y0143616D01*
X0083425Y0144783D02*
X0083425Y0149113D01*
X0083527Y0149216D01*
X0083527Y0149221D01*
X0086898Y0152593D01*
X0086904Y0152593D01*
X0087022Y0152593D01*
X0088873Y0152593D01*
X0087022Y0152593D02*
X0086904Y0152593D01*
X0087534Y0150231D02*
X0086978Y0149675D01*
X0084546Y0149675D01*
X0085014Y0148341D02*
X0085467Y0148557D01*
X0086884Y0148557D01*
X0087770Y0149443D01*
X0088873Y0149443D01*
X0088683Y0149666D02*
X0089062Y0149666D01*
X0089100Y0149634D02*
X0089152Y0149545D01*
X0089169Y0149443D01*
X0089152Y0149342D01*
X0089100Y0149252D01*
X0089021Y0149186D01*
X0088924Y0149151D01*
X0088821Y0149151D01*
X0088724Y0149186D01*
X0088645Y0149252D01*
X0088594Y0149342D01*
X0088576Y0149443D01*
X0088594Y0149545D01*
X0088645Y0149634D01*
X0088724Y0149700D01*
X0088821Y0149736D01*
X0088924Y0149736D01*
X0089021Y0149700D01*
X0089100Y0149634D01*
X0089165Y0149467D02*
X0088580Y0149467D01*
X0088636Y0149269D02*
X0089109Y0149269D01*
X0087888Y0148656D02*
X0087199Y0147967D01*
X0087199Y0141333D01*
X0087121Y0141254D01*
X0084896Y0141254D01*
X0087199Y0141333D02*
X0087199Y0140093D01*
X0088440Y0138853D01*
X0090851Y0138959D02*
X0090868Y0139060D01*
X0090920Y0139150D01*
X0090999Y0139216D01*
X0091096Y0139251D01*
X0091199Y0139251D01*
X0091296Y0139216D01*
X0091375Y0139150D01*
X0091426Y0139060D01*
X0091444Y0138959D01*
X0091426Y0138857D01*
X0091375Y0138768D01*
X0091296Y0138702D01*
X0091199Y0138667D01*
X0091096Y0138667D01*
X0090999Y0138702D01*
X0090920Y0138768D01*
X0090868Y0138857D01*
X0090851Y0138959D01*
X0090853Y0138946D02*
X0091442Y0138946D01*
X0091378Y0139145D02*
X0090917Y0139145D01*
X0091089Y0138959D02*
X0087888Y0142160D01*
X0087888Y0146490D01*
X0088479Y0147081D01*
X0089660Y0147081D01*
X0090447Y0147868D01*
X0091725Y0147868D02*
X0091743Y0147970D01*
X0091795Y0148059D01*
X0091874Y0148125D01*
X0091971Y0148161D01*
X0092074Y0148161D01*
X0092171Y0148125D01*
X0092250Y0148059D01*
X0092301Y0147970D01*
X0092319Y0147868D01*
X0092301Y0147767D01*
X0092250Y0147678D01*
X0092171Y0147611D01*
X0092074Y0147576D01*
X0091971Y0147576D01*
X0091874Y0147611D01*
X0091795Y0147678D01*
X0091743Y0147767D01*
X0091725Y0147868D01*
X0091727Y0147879D02*
X0092317Y0147879D01*
X0092251Y0147681D02*
X0091793Y0147681D01*
X0091817Y0148078D02*
X0092228Y0148078D01*
X0092416Y0148656D02*
X0087888Y0148656D01*
X0087534Y0150231D02*
X0090841Y0150231D01*
X0091235Y0150624D01*
X0091235Y0151412D01*
X0091629Y0151805D01*
X0095959Y0151805D01*
X0096747Y0151018D01*
X0097534Y0150231D02*
X0093203Y0150231D01*
X0092810Y0149837D01*
X0092810Y0149050D01*
X0092416Y0148656D01*
X0092897Y0147574D02*
X0092994Y0147610D01*
X0093097Y0147610D01*
X0093194Y0147574D01*
X0093273Y0147508D01*
X0093325Y0147419D01*
X0093343Y0147317D01*
X0093325Y0147216D01*
X0093273Y0147126D01*
X0093194Y0147060D01*
X0093097Y0147025D01*
X0092994Y0147025D01*
X0092897Y0147060D01*
X0092818Y0147126D01*
X0092767Y0147216D01*
X0092749Y0147317D01*
X0092767Y0147419D01*
X0092818Y0147508D01*
X0092897Y0147574D01*
X0092994Y0147610D01*
X0093097Y0147610D01*
X0093194Y0147574D01*
X0093273Y0147508D01*
X0093325Y0147419D01*
X0093343Y0147317D01*
X0093325Y0147216D01*
X0093273Y0147126D01*
X0093194Y0147060D01*
X0093097Y0147025D01*
X0092994Y0147025D01*
X0092897Y0147060D01*
X0092818Y0147126D01*
X0092767Y0147216D01*
X0092749Y0147317D01*
X0092767Y0147419D01*
X0092818Y0147508D01*
X0092897Y0147574D01*
X0092804Y0147482D02*
X0093288Y0147482D01*
X0092804Y0147482D01*
X0092755Y0147284D02*
X0093337Y0147284D01*
X0092755Y0147284D01*
X0092868Y0147085D02*
X0093224Y0147085D01*
X0092868Y0147085D01*
X0093046Y0147317D02*
X0093317Y0147546D01*
X0093509Y0147446D01*
X0093597Y0147475D02*
X0093597Y0147868D01*
X0093597Y0146294D02*
X0092810Y0145506D01*
X0092810Y0141766D01*
X0093597Y0140979D01*
X0093347Y0141130D02*
X0093847Y0141130D01*
X0093824Y0141169D02*
X0093876Y0141080D01*
X0093894Y0140979D01*
X0093876Y0140877D01*
X0093824Y0140788D01*
X0093745Y0140722D01*
X0093649Y0140686D01*
X0093545Y0140686D01*
X0093449Y0140722D01*
X0093370Y0140788D01*
X0093318Y0140877D01*
X0093300Y0140979D01*
X0093318Y0141080D01*
X0093370Y0141169D01*
X0093449Y0141236D01*
X0093545Y0141271D01*
X0093649Y0141271D01*
X0093745Y0141236D01*
X0093824Y0141169D01*
X0093886Y0140931D02*
X0093309Y0140931D01*
X0093435Y0140733D02*
X0093759Y0140733D01*
X0095014Y0140624D02*
X0093440Y0139050D01*
X0093440Y0138853D01*
X0091350Y0138748D02*
X0090944Y0138748D01*
X0091089Y0138959D02*
X0091147Y0138959D01*
X0095014Y0140624D02*
X0100526Y0140624D01*
X0102849Y0142947D01*
X0102849Y0147672D01*
X0101865Y0148656D01*
X0100684Y0148656D01*
X0099896Y0149443D01*
X0101471Y0149443D02*
X0102180Y0149443D01*
X0104333Y0147290D01*
X0104333Y0143144D01*
X0104333Y0142913D01*
X0104219Y0142798D01*
X0104002Y0142581D01*
X0104699Y0141884D01*
X0105526Y0141884D01*
X0105590Y0141884D01*
X0106668Y0140861D02*
X0105802Y0139994D01*
X0104581Y0139994D01*
X0103440Y0138853D01*
X0102116Y0137244D02*
X0102225Y0137135D01*
X0102295Y0136997D01*
X0102319Y0136845D01*
X0102295Y0136692D01*
X0102225Y0136555D01*
X0102116Y0136445D01*
X0101978Y0136375D01*
X0101825Y0136351D01*
X0101673Y0136375D01*
X0101535Y0136445D01*
X0101426Y0136555D01*
X0101356Y0136692D01*
X0101332Y0136845D01*
X0101356Y0136997D01*
X0101426Y0137135D01*
X0101535Y0137244D01*
X0101673Y0137314D01*
X0101825Y0137338D01*
X0101978Y0137314D01*
X0102116Y0137244D01*
X0102200Y0137160D02*
X0101451Y0137160D01*
X0101350Y0136961D02*
X0102301Y0136961D01*
X0102306Y0136763D02*
X0101345Y0136763D01*
X0101421Y0136564D02*
X0102230Y0136564D01*
X0101916Y0136366D02*
X0101734Y0136366D01*
X0101884Y0134699D02*
X0102908Y0134699D01*
X0102908Y0133833D01*
X0102160Y0133085D01*
X0101884Y0133085D01*
X0101884Y0134699D01*
X0101884Y0134579D02*
X0102908Y0134579D01*
X0102908Y0134380D02*
X0101884Y0134380D01*
X0101884Y0134182D02*
X0102908Y0134182D01*
X0102908Y0133983D02*
X0101884Y0133983D01*
X0101884Y0133785D02*
X0102860Y0133785D01*
X0102661Y0133586D02*
X0101884Y0133586D01*
X0101884Y0133388D02*
X0102463Y0133388D01*
X0102264Y0133189D02*
X0101884Y0133189D01*
X0102495Y0132594D02*
X0104856Y0132594D01*
X0104703Y0132497D02*
X0104721Y0132396D01*
X0104703Y0132294D01*
X0104651Y0132205D01*
X0104572Y0132139D01*
X0104475Y0132104D01*
X0104372Y0132104D01*
X0104275Y0132139D01*
X0104196Y0132205D01*
X0104145Y0132294D01*
X0104127Y0132396D01*
X0104145Y0132497D01*
X0104196Y0132587D01*
X0104275Y0132653D01*
X0104372Y0132688D01*
X0104475Y0132688D01*
X0104572Y0132653D01*
X0104651Y0132587D01*
X0104703Y0132497D01*
X0104721Y0132395D02*
X0104127Y0132395D01*
X0104205Y0132594D02*
X0104643Y0132594D01*
X0104658Y0132792D02*
X0102694Y0132792D01*
X0102892Y0132991D02*
X0104459Y0132991D01*
X0104261Y0133189D02*
X0103091Y0133189D01*
X0103289Y0133388D02*
X0104062Y0133388D01*
X0103864Y0133586D02*
X0103488Y0133586D01*
X0103676Y0133774D02*
X0105251Y0132199D01*
X0103676Y0130624D01*
X0102101Y0132199D01*
X0103676Y0133774D01*
X0104443Y0133833D02*
X0104443Y0134699D01*
X0105467Y0134699D01*
X0105467Y0133085D01*
X0105192Y0133085D01*
X0104443Y0133833D01*
X0104492Y0133785D02*
X0105467Y0133785D01*
X0105467Y0133983D02*
X0104443Y0133983D01*
X0104443Y0134182D02*
X0105467Y0134182D01*
X0105467Y0134380D02*
X0104443Y0134380D01*
X0104443Y0134579D02*
X0105467Y0134579D01*
X0105467Y0133586D02*
X0104690Y0133586D01*
X0104889Y0133388D02*
X0105467Y0133388D01*
X0105467Y0133189D02*
X0105087Y0133189D01*
X0105055Y0132395D02*
X0102297Y0132395D01*
X0102103Y0132197D02*
X0105249Y0132197D01*
X0105050Y0131998D02*
X0102301Y0131998D01*
X0102500Y0131800D02*
X0104852Y0131800D01*
X0104653Y0131601D02*
X0102698Y0131601D01*
X0102897Y0131403D02*
X0104455Y0131403D01*
X0104256Y0131204D02*
X0103095Y0131204D01*
X0103294Y0131006D02*
X0104058Y0131006D01*
X0103859Y0130807D02*
X0103492Y0130807D01*
X0102908Y0130565D02*
X0102908Y0129699D01*
X0101884Y0129699D01*
X0101884Y0131313D01*
X0102160Y0131313D01*
X0102908Y0130565D01*
X0102865Y0130609D02*
X0101884Y0130609D01*
X0101884Y0130807D02*
X0102666Y0130807D01*
X0102468Y0131006D02*
X0101884Y0131006D01*
X0101884Y0131204D02*
X0102269Y0131204D01*
X0101884Y0130410D02*
X0102908Y0130410D01*
X0102908Y0130212D02*
X0101884Y0130212D01*
X0101884Y0130013D02*
X0102908Y0130013D01*
X0102908Y0129815D02*
X0101884Y0129815D01*
X0104443Y0129815D02*
X0105467Y0129815D01*
X0105467Y0129699D02*
X0105467Y0131313D01*
X0105192Y0131313D01*
X0104443Y0130565D01*
X0104443Y0129699D01*
X0105467Y0129699D01*
X0105467Y0130013D02*
X0104443Y0130013D01*
X0104443Y0130212D02*
X0105467Y0130212D01*
X0105467Y0130410D02*
X0104443Y0130410D01*
X0104487Y0130609D02*
X0105467Y0130609D01*
X0105467Y0130807D02*
X0104685Y0130807D01*
X0104884Y0131006D02*
X0105467Y0131006D01*
X0105467Y0131204D02*
X0105082Y0131204D01*
X0104641Y0132197D02*
X0104206Y0132197D01*
X0097908Y0132849D02*
X0097632Y0132849D01*
X0096884Y0133597D01*
X0096884Y0134463D01*
X0097908Y0134463D01*
X0097908Y0132849D01*
X0097908Y0132991D02*
X0097490Y0132991D01*
X0097292Y0133189D02*
X0097908Y0133189D01*
X0097908Y0133388D02*
X0097093Y0133388D01*
X0096895Y0133586D02*
X0097908Y0133586D01*
X0097908Y0133785D02*
X0096884Y0133785D01*
X0096884Y0133983D02*
X0097908Y0133983D01*
X0097908Y0134182D02*
X0096884Y0134182D01*
X0096884Y0134380D02*
X0097908Y0134380D01*
X0096664Y0132991D02*
X0095569Y0132991D01*
X0095371Y0132792D02*
X0096863Y0132792D01*
X0097061Y0132594D02*
X0095172Y0132594D01*
X0094974Y0132395D02*
X0097260Y0132395D01*
X0097458Y0132197D02*
X0094775Y0132197D01*
X0094577Y0131998D02*
X0097657Y0131998D01*
X0097692Y0131963D02*
X0096117Y0133538D01*
X0094541Y0131963D01*
X0096117Y0130388D01*
X0097692Y0131963D01*
X0097529Y0131800D02*
X0094705Y0131800D01*
X0094903Y0131601D02*
X0097330Y0131601D01*
X0097132Y0131403D02*
X0095102Y0131403D01*
X0095300Y0131204D02*
X0096933Y0131204D01*
X0096735Y0131006D02*
X0095499Y0131006D01*
X0095697Y0130807D02*
X0096536Y0130807D01*
X0096338Y0130609D02*
X0095896Y0130609D01*
X0096094Y0130410D02*
X0096139Y0130410D01*
X0096884Y0130329D02*
X0096884Y0129463D01*
X0097908Y0129463D01*
X0097908Y0131077D01*
X0097632Y0131077D01*
X0096884Y0130329D01*
X0096966Y0130410D02*
X0097908Y0130410D01*
X0097908Y0130212D02*
X0096884Y0130212D01*
X0096884Y0130013D02*
X0097908Y0130013D01*
X0097908Y0129815D02*
X0096884Y0129815D01*
X0096884Y0129616D02*
X0097908Y0129616D01*
X0097908Y0130609D02*
X0097164Y0130609D01*
X0097363Y0130807D02*
X0097908Y0130807D01*
X0097908Y0131006D02*
X0097561Y0131006D01*
X0096466Y0133189D02*
X0095768Y0133189D01*
X0095966Y0133388D02*
X0096267Y0133388D01*
X0095349Y0133597D02*
X0095349Y0134463D01*
X0094325Y0134463D01*
X0094325Y0132849D01*
X0094601Y0132849D01*
X0095349Y0133597D01*
X0095339Y0133586D02*
X0094325Y0133586D01*
X0094325Y0133388D02*
X0095140Y0133388D01*
X0094942Y0133189D02*
X0094325Y0133189D01*
X0094325Y0132991D02*
X0094743Y0132991D01*
X0094325Y0133785D02*
X0095349Y0133785D01*
X0095349Y0133983D02*
X0094325Y0133983D01*
X0094325Y0134182D02*
X0095349Y0134182D01*
X0095349Y0134380D02*
X0094325Y0134380D01*
X0096141Y0136249D02*
X0096032Y0136358D01*
X0095962Y0136495D01*
X0095938Y0136648D01*
X0095962Y0136800D01*
X0096032Y0136938D01*
X0096141Y0137047D01*
X0096279Y0137117D01*
X0096432Y0137142D01*
X0096584Y0137117D01*
X0096722Y0137047D01*
X0096831Y0136938D01*
X0096901Y0136800D01*
X0096925Y0136648D01*
X0096901Y0136495D01*
X0096831Y0136358D01*
X0096722Y0136249D01*
X0096584Y0136178D01*
X0096432Y0136154D01*
X0096279Y0136178D01*
X0096141Y0136249D01*
X0096028Y0136366D02*
X0096835Y0136366D01*
X0096912Y0136564D02*
X0095951Y0136564D01*
X0095956Y0136763D02*
X0096907Y0136763D01*
X0096808Y0136961D02*
X0096055Y0136961D01*
X0096351Y0136167D02*
X0096512Y0136167D01*
X0098440Y0138853D02*
X0099424Y0139837D01*
X0101258Y0139837D01*
X0104002Y0142581D01*
X0104219Y0142798D02*
X0104297Y0142877D01*
X0104333Y0143052D02*
X0104333Y0143144D01*
X0106510Y0144246D02*
X0106668Y0144246D01*
X0106668Y0140861D01*
X0107079Y0140622D02*
X0107136Y0140732D01*
X0107223Y0140820D01*
X0107333Y0140876D01*
X0107455Y0140895D01*
X0107577Y0140876D01*
X0107688Y0140820D01*
X0107775Y0140732D01*
X0107831Y0140622D01*
X0107851Y0140500D01*
X0107831Y0140378D01*
X0107791Y0140299D01*
X0107657Y0140164D01*
X0107577Y0140124D01*
X0107455Y0140105D01*
X0107333Y0140124D01*
X0107223Y0140180D01*
X0107136Y0140268D01*
X0107079Y0140378D01*
X0107060Y0140500D01*
X0107079Y0140622D01*
X0107065Y0140534D02*
X0107845Y0140534D01*
X0107810Y0140336D02*
X0107101Y0140336D01*
X0107307Y0140137D02*
X0107603Y0140137D01*
X0107775Y0140733D02*
X0107136Y0140733D01*
X0107870Y0141863D02*
X0107791Y0141930D01*
X0107739Y0142019D01*
X0107721Y0142120D01*
X0107739Y0142222D01*
X0107791Y0142311D01*
X0107870Y0142377D01*
X0107967Y0142413D01*
X0108070Y0142413D01*
X0108167Y0142377D01*
X0108246Y0142311D01*
X0108297Y0142222D01*
X0108315Y0142120D01*
X0108297Y0142019D01*
X0108246Y0141930D01*
X0108167Y0141863D01*
X0108070Y0141828D01*
X0107967Y0141828D01*
X0107870Y0141863D01*
X0107798Y0141924D02*
X0108239Y0141924D01*
X0108315Y0142122D02*
X0107722Y0142122D01*
X0107802Y0142321D02*
X0108234Y0142321D01*
X0109114Y0139755D02*
X0109266Y0139779D01*
X0109419Y0139755D01*
X0109557Y0139685D01*
X0109666Y0139576D01*
X0109736Y0139438D01*
X0109760Y0139286D01*
X0109736Y0139133D01*
X0109666Y0138996D01*
X0109557Y0138886D01*
X0109419Y0138816D01*
X0109266Y0138792D01*
X0109114Y0138816D01*
X0108976Y0138886D01*
X0108867Y0138996D01*
X0108797Y0139133D01*
X0108773Y0139286D01*
X0108797Y0139438D01*
X0108867Y0139576D01*
X0108976Y0139685D01*
X0109114Y0139755D01*
X0109084Y0139740D02*
X0109448Y0139740D01*
X0109683Y0139542D02*
X0108849Y0139542D01*
X0108782Y0139343D02*
X0109751Y0139343D01*
X0109738Y0139145D02*
X0108795Y0139145D01*
X0108916Y0138946D02*
X0109616Y0138946D01*
X0107901Y0145214D02*
X0107797Y0145214D01*
X0107701Y0145249D01*
X0107622Y0145315D01*
X0107570Y0145405D01*
X0107552Y0145506D01*
X0107570Y0145608D01*
X0107622Y0145697D01*
X0107701Y0145763D01*
X0107797Y0145799D01*
X0107901Y0145799D01*
X0107997Y0145763D01*
X0108076Y0145697D01*
X0108128Y0145608D01*
X0108146Y0145506D01*
X0108128Y0145405D01*
X0108076Y0145315D01*
X0107997Y0145249D01*
X0107901Y0145214D01*
X0107797Y0145214D01*
X0107701Y0145249D01*
X0107622Y0145315D01*
X0107570Y0145405D01*
X0107552Y0145506D01*
X0107570Y0145608D01*
X0107622Y0145697D01*
X0107701Y0145763D01*
X0107797Y0145799D01*
X0107901Y0145799D01*
X0107997Y0145763D01*
X0108076Y0145697D01*
X0108128Y0145608D01*
X0108146Y0145506D01*
X0108128Y0145405D01*
X0108076Y0145315D01*
X0107997Y0145249D01*
X0107901Y0145214D01*
X0108056Y0145299D02*
X0107642Y0145299D01*
X0108056Y0145299D01*
X0108144Y0145497D02*
X0107554Y0145497D01*
X0108144Y0145497D01*
X0108077Y0145696D02*
X0107621Y0145696D01*
X0108077Y0145696D01*
X0108703Y0148954D02*
X0108606Y0148989D01*
X0108527Y0149056D01*
X0108476Y0149145D01*
X0108458Y0149246D01*
X0108476Y0149348D01*
X0108527Y0149437D01*
X0108606Y0149503D01*
X0108703Y0149539D01*
X0108806Y0149539D01*
X0108903Y0149503D01*
X0108982Y0149437D01*
X0109033Y0149348D01*
X0109051Y0149246D01*
X0109033Y0149145D01*
X0108982Y0149056D01*
X0108903Y0148989D01*
X0108806Y0148954D01*
X0108703Y0148954D01*
X0108519Y0149070D02*
X0108990Y0149070D01*
X0109047Y0149269D02*
X0108462Y0149269D01*
X0108563Y0149467D02*
X0108946Y0149467D01*
X0108755Y0151215D02*
X0107608Y0152401D01*
X0107573Y0152435D01*
X0104384Y0152435D01*
X0103440Y0153380D01*
X0103440Y0154955D01*
X0104542Y0156057D01*
X0105251Y0156057D01*
X0105367Y0156031D01*
X0106244Y0154779D02*
X0106341Y0154814D01*
X0106444Y0154814D01*
X0106541Y0154779D01*
X0106620Y0154713D01*
X0106671Y0154623D01*
X0106689Y0154522D01*
X0106671Y0154420D01*
X0106620Y0154331D01*
X0106541Y0154265D01*
X0106444Y0154230D01*
X0106341Y0154230D01*
X0106244Y0154265D01*
X0106165Y0154331D01*
X0106113Y0154420D01*
X0106095Y0154522D01*
X0106113Y0154623D01*
X0106165Y0154713D01*
X0106244Y0154779D01*
X0106341Y0154814D01*
X0106444Y0154814D01*
X0106541Y0154779D01*
X0106620Y0154713D01*
X0106671Y0154623D01*
X0106689Y0154522D01*
X0106671Y0154420D01*
X0106620Y0154331D01*
X0106541Y0154265D01*
X0106444Y0154230D01*
X0106341Y0154230D01*
X0106244Y0154265D01*
X0106165Y0154331D01*
X0106113Y0154420D01*
X0106095Y0154522D01*
X0106113Y0154623D01*
X0106165Y0154713D01*
X0106244Y0154779D01*
X0106116Y0154629D02*
X0106668Y0154629D01*
X0106116Y0154629D01*
X0106112Y0154430D02*
X0106673Y0154430D01*
X0106112Y0154430D01*
X0106335Y0154232D02*
X0106449Y0154232D01*
X0106335Y0154232D01*
X0105408Y0153695D02*
X0105251Y0153695D01*
X0103302Y0152692D02*
X0104583Y0151412D01*
X0106786Y0151412D01*
X0106786Y0151215D01*
X0105360Y0149582D02*
X0105439Y0149516D01*
X0105490Y0149427D01*
X0105508Y0149325D01*
X0105490Y0149224D01*
X0105439Y0149134D01*
X0105360Y0149068D01*
X0105263Y0149033D01*
X0105160Y0149033D01*
X0105063Y0149068D01*
X0104984Y0149134D01*
X0104932Y0149224D01*
X0104914Y0149325D01*
X0104932Y0149427D01*
X0104984Y0149516D01*
X0105063Y0149582D01*
X0105160Y0149617D01*
X0105263Y0149617D01*
X0105360Y0149582D01*
X0105467Y0149467D02*
X0104956Y0149467D01*
X0104924Y0149269D02*
X0105498Y0149269D01*
X0105362Y0149070D02*
X0105060Y0149070D01*
X0103302Y0152692D02*
X0102437Y0152692D01*
X0101783Y0153346D01*
X0101742Y0153346D01*
X0101129Y0155450D02*
X0101026Y0155450D01*
X0100929Y0155485D01*
X0100850Y0155552D01*
X0100798Y0155641D01*
X0100780Y0155742D01*
X0100798Y0155844D01*
X0100850Y0155933D01*
X0100929Y0155999D01*
X0101026Y0156035D01*
X0101129Y0156035D01*
X0101226Y0155999D01*
X0101305Y0155933D01*
X0101356Y0155844D01*
X0101374Y0155742D01*
X0101356Y0155641D01*
X0101305Y0155552D01*
X0101226Y0155485D01*
X0101129Y0155450D01*
X0101345Y0155621D02*
X0100810Y0155621D01*
X0100794Y0155820D02*
X0101361Y0155820D01*
X0101175Y0156018D02*
X0100980Y0156018D01*
X0098321Y0151018D02*
X0097534Y0150231D01*
X0095451Y0149545D02*
X0095469Y0149443D01*
X0095451Y0149342D01*
X0095399Y0149252D01*
X0095320Y0149186D01*
X0095223Y0149151D01*
X0095120Y0149151D01*
X0095023Y0149186D01*
X0094944Y0149252D01*
X0094893Y0149342D01*
X0094875Y0149443D01*
X0094893Y0149545D01*
X0094944Y0149634D01*
X0095023Y0149700D01*
X0095120Y0149736D01*
X0095223Y0149736D01*
X0095320Y0149700D01*
X0095399Y0149634D01*
X0095451Y0149545D01*
X0095469Y0149443D01*
X0095451Y0149342D01*
X0095399Y0149252D01*
X0095320Y0149186D01*
X0095223Y0149151D01*
X0095120Y0149151D01*
X0095023Y0149186D01*
X0094944Y0149252D01*
X0094893Y0149342D01*
X0094875Y0149443D01*
X0094893Y0149545D01*
X0094944Y0149634D01*
X0095023Y0149700D01*
X0095120Y0149736D01*
X0095223Y0149736D01*
X0095320Y0149700D01*
X0095399Y0149634D01*
X0095451Y0149545D01*
X0095464Y0149467D02*
X0094879Y0149467D01*
X0095464Y0149467D01*
X0095409Y0149269D02*
X0094935Y0149269D01*
X0095409Y0149269D01*
X0095361Y0149666D02*
X0094982Y0149666D01*
X0095361Y0149666D01*
X0096992Y0147732D02*
X0097089Y0147767D01*
X0097192Y0147767D01*
X0097289Y0147732D01*
X0097368Y0147666D01*
X0097419Y0147576D01*
X0097437Y0147475D01*
X0097419Y0147373D01*
X0097368Y0147284D01*
X0097289Y0147218D01*
X0097192Y0147182D01*
X0097089Y0147182D01*
X0096992Y0147218D01*
X0096913Y0147284D01*
X0096861Y0147373D01*
X0096843Y0147475D01*
X0096861Y0147576D01*
X0096913Y0147666D01*
X0096992Y0147732D01*
X0097089Y0147767D01*
X0097192Y0147767D01*
X0097289Y0147732D01*
X0097368Y0147666D01*
X0097419Y0147576D01*
X0097437Y0147475D01*
X0097419Y0147373D01*
X0097368Y0147284D01*
X0097289Y0147218D01*
X0097192Y0147182D01*
X0097089Y0147182D01*
X0096992Y0147218D01*
X0096913Y0147284D01*
X0096861Y0147373D01*
X0096843Y0147475D01*
X0096861Y0147576D01*
X0096913Y0147666D01*
X0096992Y0147732D01*
X0096931Y0147681D02*
X0097350Y0147681D01*
X0096931Y0147681D01*
X0096845Y0147482D02*
X0097436Y0147482D01*
X0096845Y0147482D01*
X0096913Y0147284D02*
X0097367Y0147284D01*
X0096913Y0147284D01*
X0093597Y0152593D02*
X0094384Y0153380D01*
X0094384Y0156530D01*
X0093873Y0157042D01*
X0092967Y0157042D01*
X0092022Y0155742D02*
X0091235Y0156530D01*
X0088085Y0156530D01*
X0083679Y0155490D02*
X0083697Y0155388D01*
X0083679Y0155287D01*
X0083628Y0155197D01*
X0083549Y0155131D01*
X0083452Y0155096D01*
X0083349Y0155096D01*
X0083252Y0155131D01*
X0083173Y0155197D01*
X0083121Y0155287D01*
X0083103Y0155388D01*
X0083121Y0155490D01*
X0083173Y0155579D01*
X0083252Y0155645D01*
X0083349Y0155680D01*
X0083452Y0155680D01*
X0083549Y0155645D01*
X0083628Y0155579D01*
X0083679Y0155490D01*
X0083697Y0155388D01*
X0083679Y0155287D01*
X0083628Y0155197D01*
X0083549Y0155131D01*
X0083452Y0155096D01*
X0083349Y0155096D01*
X0083252Y0155131D01*
X0083173Y0155197D01*
X0083121Y0155287D01*
X0083103Y0155388D01*
X0083121Y0155490D01*
X0083173Y0155579D01*
X0083252Y0155645D01*
X0083349Y0155680D01*
X0083452Y0155680D01*
X0083549Y0155645D01*
X0083628Y0155579D01*
X0083679Y0155490D01*
X0083691Y0155423D02*
X0083109Y0155423D01*
X0083691Y0155423D01*
X0083643Y0155224D02*
X0083157Y0155224D01*
X0083643Y0155224D01*
X0083577Y0155621D02*
X0083223Y0155621D01*
X0083577Y0155621D01*
X0083212Y0153158D02*
X0083308Y0153122D01*
X0083387Y0153056D01*
X0083439Y0152967D01*
X0083457Y0152865D01*
X0083439Y0152764D01*
X0083387Y0152674D01*
X0083308Y0152608D01*
X0083212Y0152573D01*
X0083108Y0152573D01*
X0083012Y0152608D01*
X0082933Y0152674D01*
X0082881Y0152764D01*
X0082863Y0152865D01*
X0082881Y0152967D01*
X0082933Y0153056D01*
X0083012Y0153122D01*
X0083108Y0153158D01*
X0083212Y0153158D01*
X0083396Y0153040D02*
X0082924Y0153040D01*
X0082867Y0152842D02*
X0083453Y0152842D01*
X0083350Y0152643D02*
X0082970Y0152643D01*
X0082280Y0152790D02*
X0082262Y0152688D01*
X0082210Y0152599D01*
X0082131Y0152533D01*
X0082034Y0152497D01*
X0081931Y0152497D01*
X0081834Y0152533D01*
X0081755Y0152599D01*
X0081704Y0152688D01*
X0081686Y0152790D01*
X0081704Y0152891D01*
X0081755Y0152980D01*
X0081834Y0153047D01*
X0081931Y0153082D01*
X0082034Y0153082D01*
X0082131Y0153047D01*
X0082210Y0152980D01*
X0082262Y0152891D01*
X0082280Y0152790D01*
X0082270Y0152842D02*
X0081695Y0152842D01*
X0081730Y0152643D02*
X0082236Y0152643D01*
X0082139Y0153040D02*
X0081827Y0153040D01*
X0077801Y0156300D02*
X0077722Y0156233D01*
X0077625Y0156198D01*
X0077522Y0156198D01*
X0077425Y0156233D01*
X0077346Y0156300D01*
X0077294Y0156389D01*
X0077277Y0156490D01*
X0077294Y0156592D01*
X0077346Y0156681D01*
X0077425Y0156748D01*
X0077522Y0156783D01*
X0077625Y0156783D01*
X0077722Y0156748D01*
X0077801Y0156681D01*
X0077852Y0156592D01*
X0077870Y0156490D01*
X0077852Y0156389D01*
X0077801Y0156300D01*
X0077857Y0156415D02*
X0077290Y0156415D01*
X0077307Y0156614D02*
X0077840Y0156614D01*
X0077676Y0156217D02*
X0077471Y0156217D01*
X0079215Y0146625D02*
X0079318Y0146625D01*
X0079415Y0146590D01*
X0079494Y0146524D01*
X0079545Y0146434D01*
X0079563Y0146333D01*
X0079545Y0146231D01*
X0079494Y0146142D01*
X0079415Y0146076D01*
X0079318Y0146041D01*
X0079215Y0146041D01*
X0079118Y0146076D01*
X0079039Y0146142D01*
X0078987Y0146231D01*
X0078969Y0146333D01*
X0078987Y0146434D01*
X0079039Y0146524D01*
X0079118Y0146590D01*
X0079215Y0146625D01*
X0079019Y0146490D02*
X0079513Y0146490D01*
X0079556Y0146291D02*
X0078977Y0146291D01*
X0079098Y0146093D02*
X0079435Y0146093D01*
X0082277Y0146333D02*
X0082294Y0146434D01*
X0082346Y0146524D01*
X0082425Y0146590D01*
X0082522Y0146625D01*
X0082625Y0146625D01*
X0082722Y0146590D01*
X0082801Y0146524D01*
X0082852Y0146434D01*
X0082870Y0146333D01*
X0082852Y0146231D01*
X0082801Y0146142D01*
X0082722Y0146076D01*
X0082625Y0146041D01*
X0082522Y0146041D01*
X0082425Y0146076D01*
X0082346Y0146142D01*
X0082294Y0146231D01*
X0082277Y0146333D01*
X0082284Y0146291D02*
X0082863Y0146291D01*
X0082821Y0146490D02*
X0082326Y0146490D01*
X0082405Y0146093D02*
X0082742Y0146093D01*
X0083425Y0144783D02*
X0081629Y0142987D01*
X0081629Y0140900D01*
X0080880Y0140152D01*
X0080680Y0139939D02*
X0081081Y0139939D01*
X0081108Y0139961D02*
X0081029Y0139895D01*
X0080932Y0139860D01*
X0080829Y0139860D01*
X0080732Y0139895D01*
X0080653Y0139961D01*
X0080602Y0140050D01*
X0080584Y0140152D01*
X0080602Y0140253D01*
X0080653Y0140343D01*
X0080732Y0140409D01*
X0080829Y0140444D01*
X0080932Y0140444D01*
X0081029Y0140409D01*
X0081108Y0140343D01*
X0081159Y0140253D01*
X0081177Y0140152D01*
X0081159Y0140050D01*
X0081108Y0139961D01*
X0081175Y0140137D02*
X0080586Y0140137D01*
X0080649Y0140336D02*
X0081112Y0140336D01*
X0081341Y0139421D02*
X0081444Y0139421D01*
X0081541Y0139385D01*
X0081620Y0139319D01*
X0081671Y0139230D01*
X0081689Y0139128D01*
X0081671Y0139027D01*
X0081620Y0138937D01*
X0081541Y0138871D01*
X0081444Y0138836D01*
X0081341Y0138836D01*
X0081244Y0138871D01*
X0081165Y0138937D01*
X0081113Y0139027D01*
X0081095Y0139128D01*
X0081113Y0139230D01*
X0081165Y0139319D01*
X0081244Y0139385D01*
X0081341Y0139421D01*
X0081194Y0139343D02*
X0081591Y0139343D01*
X0081686Y0139145D02*
X0081098Y0139145D01*
X0081160Y0138946D02*
X0081625Y0138946D01*
X0081392Y0139128D02*
X0082298Y0140034D01*
X0085014Y0145979D02*
X0085251Y0145900D01*
X0085251Y0146136D01*
X0085211Y0146097D02*
X0085101Y0146031D01*
X0085101Y0146452D01*
X0085101Y0146031D02*
X0085014Y0145979D01*
X0075147Y0135276D02*
X0075256Y0135166D01*
X0075326Y0135029D01*
X0075351Y0134876D01*
X0075326Y0134724D01*
X0075256Y0134586D01*
X0075147Y0134477D01*
X0075009Y0134407D01*
X0074857Y0134383D01*
X0074704Y0134407D01*
X0074567Y0134477D01*
X0074457Y0134586D01*
X0074387Y0134724D01*
X0074363Y0134876D01*
X0074387Y0135029D01*
X0074457Y0135166D01*
X0074567Y0135276D01*
X0074704Y0135346D01*
X0074857Y0135370D01*
X0075009Y0135346D01*
X0075147Y0135276D01*
X0075248Y0135174D02*
X0074465Y0135174D01*
X0074379Y0134976D02*
X0075335Y0134976D01*
X0075335Y0134777D02*
X0074379Y0134777D01*
X0074465Y0134579D02*
X0075249Y0134579D01*
X0081387Y0129302D02*
X0081496Y0129411D01*
X0081633Y0129481D01*
X0081786Y0129505D01*
X0081939Y0129481D01*
X0082076Y0129411D01*
X0082185Y0129302D01*
X0082256Y0129164D01*
X0082280Y0129011D01*
X0082256Y0128859D01*
X0082185Y0128721D01*
X0082076Y0128612D01*
X0081939Y0128542D01*
X0081786Y0128518D01*
X0081633Y0128542D01*
X0081496Y0128612D01*
X0081387Y0128721D01*
X0081316Y0128859D01*
X0081292Y0129011D01*
X0081316Y0129164D01*
X0081387Y0129302D01*
X0081345Y0129219D02*
X0082227Y0129219D01*
X0082278Y0129021D02*
X0081294Y0129021D01*
X0081335Y0128822D02*
X0082237Y0128822D01*
X0082088Y0128624D02*
X0081484Y0128624D01*
X0081509Y0129418D02*
X0082063Y0129418D01*
X0083819Y0131406D02*
X0083709Y0131515D01*
X0083639Y0131653D01*
X0083615Y0131805D01*
X0083639Y0131958D01*
X0083709Y0132096D01*
X0083819Y0132205D01*
X0083956Y0132275D01*
X0084109Y0132299D01*
X0084261Y0132275D01*
X0084399Y0132205D01*
X0084508Y0132096D01*
X0084578Y0131958D01*
X0084603Y0131805D01*
X0084578Y0131653D01*
X0084508Y0131515D01*
X0084399Y0131406D01*
X0084261Y0131336D01*
X0084109Y0131312D01*
X0083956Y0131336D01*
X0083819Y0131406D01*
X0083825Y0131403D02*
X0084393Y0131403D01*
X0084552Y0131601D02*
X0083666Y0131601D01*
X0083616Y0131800D02*
X0084602Y0131800D01*
X0084558Y0131998D02*
X0083660Y0131998D01*
X0083811Y0132197D02*
X0084407Y0132197D01*
X0094325Y0131077D02*
X0094325Y0129463D01*
X0095349Y0129463D01*
X0095349Y0130329D01*
X0094601Y0131077D01*
X0094325Y0131077D01*
X0094325Y0131006D02*
X0094672Y0131006D01*
X0094871Y0130807D02*
X0094325Y0130807D01*
X0094325Y0130609D02*
X0095069Y0130609D01*
X0095268Y0130410D02*
X0094325Y0130410D01*
X0094325Y0130212D02*
X0095349Y0130212D01*
X0095349Y0130013D02*
X0094325Y0130013D01*
X0094325Y0129815D02*
X0095349Y0129815D01*
X0095349Y0129616D02*
X0094325Y0129616D01*
X0087053Y0117889D02*
X0087132Y0117823D01*
X0087183Y0117734D01*
X0087201Y0117632D01*
X0087183Y0117531D01*
X0087132Y0117441D01*
X0087053Y0117375D01*
X0086956Y0117340D01*
X0086853Y0117340D01*
X0086756Y0117375D01*
X0086677Y0117441D01*
X0086625Y0117531D01*
X0086607Y0117632D01*
X0086625Y0117734D01*
X0086677Y0117823D01*
X0086756Y0117889D01*
X0086853Y0117925D01*
X0086956Y0117925D01*
X0087053Y0117889D01*
X0087012Y0117904D02*
X0086796Y0117904D01*
X0086620Y0117705D02*
X0087188Y0117705D01*
X0087169Y0117507D02*
X0086639Y0117507D01*
X0085075Y0117790D02*
X0085057Y0117688D01*
X0085006Y0117599D01*
X0084927Y0117533D01*
X0084830Y0117497D01*
X0084727Y0117497D01*
X0084630Y0117533D01*
X0084551Y0117599D01*
X0084499Y0117688D01*
X0084481Y0117790D01*
X0084499Y0117891D01*
X0084551Y0117980D01*
X0084630Y0118047D01*
X0084727Y0118082D01*
X0084830Y0118082D01*
X0084927Y0118047D01*
X0085006Y0117980D01*
X0085057Y0117891D01*
X0085075Y0117790D01*
X0085060Y0117705D02*
X0084496Y0117705D01*
X0084507Y0117904D02*
X0085050Y0117904D01*
X0084856Y0117507D02*
X0084700Y0117507D01*
X0083116Y0114464D02*
X0083195Y0114398D01*
X0083246Y0114309D01*
X0083264Y0114207D01*
X0083246Y0114105D01*
X0083195Y0114016D01*
X0083116Y0113950D01*
X0083019Y0113915D01*
X0082916Y0113915D01*
X0082819Y0113950D01*
X0082740Y0114016D01*
X0082688Y0114105D01*
X0082670Y0114207D01*
X0082688Y0114309D01*
X0082740Y0114398D01*
X0082819Y0114464D01*
X0082916Y0114499D01*
X0083019Y0114499D01*
X0083116Y0114464D01*
X0083233Y0114331D02*
X0082701Y0114331D01*
X0082683Y0114132D02*
X0083251Y0114132D01*
X0083071Y0113934D02*
X0082863Y0113934D01*
X0081004Y0115439D02*
X0080895Y0115330D01*
X0080757Y0115259D01*
X0080605Y0115235D01*
X0080452Y0115259D01*
X0080315Y0115330D01*
X0080205Y0115439D01*
X0080135Y0115576D01*
X0080111Y0115729D01*
X0080135Y0115882D01*
X0080205Y0116019D01*
X0080315Y0116128D01*
X0080452Y0116199D01*
X0080605Y0116223D01*
X0080757Y0116199D01*
X0080895Y0116128D01*
X0081004Y0116019D01*
X0081074Y0115882D01*
X0081099Y0115729D01*
X0081074Y0115576D01*
X0081004Y0115439D01*
X0081047Y0115522D02*
X0080163Y0115522D01*
X0080113Y0115720D02*
X0081097Y0115720D01*
X0081055Y0115919D02*
X0080154Y0115919D01*
X0080304Y0116117D02*
X0080906Y0116117D01*
X0080883Y0115323D02*
X0080327Y0115323D01*
X0083921Y0109976D02*
X0084018Y0110011D01*
X0084121Y0110011D01*
X0084218Y0109976D01*
X0084297Y0109910D01*
X0084348Y0109820D01*
X0084366Y0109719D01*
X0084348Y0109617D01*
X0084297Y0109528D01*
X0084218Y0109462D01*
X0084121Y0109426D01*
X0084018Y0109426D01*
X0083921Y0109462D01*
X0083842Y0109528D01*
X0083791Y0109617D01*
X0083773Y0109719D01*
X0083791Y0109820D01*
X0083842Y0109910D01*
X0083921Y0109976D01*
X0083906Y0109964D02*
X0084233Y0109964D01*
X0084358Y0109765D02*
X0083781Y0109765D01*
X0083820Y0109566D02*
X0084319Y0109566D01*
X0083412Y0106863D02*
X0083509Y0106827D01*
X0083588Y0106761D01*
X0083640Y0106672D01*
X0083658Y0106570D01*
X0083640Y0106469D01*
X0083588Y0106380D01*
X0083509Y0106313D01*
X0083412Y0106278D01*
X0083309Y0106278D01*
X0083212Y0106313D01*
X0083133Y0106380D01*
X0083082Y0106469D01*
X0083064Y0106570D01*
X0083082Y0106672D01*
X0083133Y0106761D01*
X0083212Y0106827D01*
X0083309Y0106863D01*
X0083412Y0106863D01*
X0083557Y0106787D02*
X0083165Y0106787D01*
X0083067Y0106589D02*
X0083654Y0106589D01*
X0083594Y0106390D02*
X0083127Y0106390D01*
X0083921Y0104149D02*
X0084018Y0104184D01*
X0084121Y0104184D01*
X0084218Y0104149D01*
X0084297Y0104083D01*
X0084348Y0103994D01*
X0084366Y0103892D01*
X0084348Y0103791D01*
X0084297Y0103701D01*
X0084218Y0103635D01*
X0084121Y0103600D01*
X0084018Y0103600D01*
X0083921Y0103635D01*
X0083842Y0103701D01*
X0083791Y0103791D01*
X0083773Y0103892D01*
X0083791Y0103994D01*
X0083842Y0104083D01*
X0083921Y0104149D01*
X0083799Y0104008D02*
X0084340Y0104008D01*
X0084352Y0103810D02*
X0083787Y0103810D01*
X0083986Y0103611D02*
X0084152Y0103611D01*
X0082183Y0102576D02*
X0082201Y0102475D01*
X0082183Y0102373D01*
X0082132Y0102284D01*
X0082053Y0102218D01*
X0081956Y0102182D01*
X0081853Y0102182D01*
X0081756Y0102218D01*
X0081677Y0102284D01*
X0081625Y0102373D01*
X0081607Y0102475D01*
X0081625Y0102576D01*
X0081677Y0102666D01*
X0081756Y0102732D01*
X0081853Y0102767D01*
X0081956Y0102767D01*
X0082053Y0102732D01*
X0082132Y0102666D01*
X0082183Y0102576D01*
X0082159Y0102619D02*
X0081650Y0102619D01*
X0081617Y0102420D02*
X0082191Y0102420D01*
X0082057Y0102222D02*
X0081751Y0102222D01*
X0079927Y0100815D02*
X0079978Y0100726D01*
X0079996Y0100624D01*
X0079978Y0100523D01*
X0079927Y0100434D01*
X0079848Y0100367D01*
X0079751Y0100332D01*
X0079648Y0100332D01*
X0079551Y0100367D01*
X0079472Y0100434D01*
X0079420Y0100523D01*
X0079403Y0100624D01*
X0079420Y0100726D01*
X0079472Y0100815D01*
X0079551Y0100881D01*
X0079648Y0100917D01*
X0079751Y0100917D01*
X0079848Y0100881D01*
X0079927Y0100815D01*
X0079907Y0100832D02*
X0079492Y0100832D01*
X0079404Y0100633D02*
X0079995Y0100633D01*
X0079928Y0100435D02*
X0079471Y0100435D01*
X0078321Y0100949D02*
X0078321Y0098420D01*
X0077224Y0098898D02*
X0077114Y0098789D01*
X0076977Y0098719D01*
X0076824Y0098695D01*
X0076672Y0098719D01*
X0076534Y0098789D01*
X0076425Y0098898D01*
X0076355Y0099036D01*
X0076330Y0099188D01*
X0076355Y0099341D01*
X0076425Y0099479D01*
X0076534Y0099588D01*
X0076672Y0099658D01*
X0076824Y0099682D01*
X0076977Y0099658D01*
X0077114Y0099588D01*
X0077224Y0099479D01*
X0077294Y0099341D01*
X0077318Y0099188D01*
X0077294Y0099036D01*
X0077224Y0098898D01*
X0077172Y0098847D02*
X0076476Y0098847D01*
X0076353Y0099045D02*
X0077295Y0099045D01*
X0077309Y0099244D02*
X0076339Y0099244D01*
X0076406Y0099442D02*
X0077242Y0099442D01*
X0077010Y0099641D02*
X0076638Y0099641D01*
X0078321Y0100949D02*
X0079121Y0101749D01*
X0079121Y0105676D01*
X0078103Y0106694D01*
X0077640Y0106694D01*
X0077360Y0106787D02*
X0077920Y0106787D01*
X0077360Y0106787D01*
X0077361Y0106796D02*
X0077413Y0106885D01*
X0077492Y0106951D01*
X0077588Y0106986D01*
X0077691Y0106986D01*
X0077788Y0106951D01*
X0077867Y0106885D01*
X0077919Y0106796D01*
X0077937Y0106694D01*
X0077919Y0106592D01*
X0077867Y0106503D01*
X0077788Y0106437D01*
X0077691Y0106402D01*
X0077588Y0106402D01*
X0077492Y0106437D01*
X0077413Y0106503D01*
X0077361Y0106592D01*
X0077343Y0106694D01*
X0077361Y0106796D01*
X0077413Y0106885D01*
X0077492Y0106951D01*
X0077588Y0106986D01*
X0077691Y0106986D01*
X0077788Y0106951D01*
X0077867Y0106885D01*
X0077919Y0106796D01*
X0077937Y0106694D01*
X0077919Y0106592D01*
X0077867Y0106503D01*
X0077788Y0106437D01*
X0077691Y0106402D01*
X0077588Y0106402D01*
X0077492Y0106437D01*
X0077413Y0106503D01*
X0077361Y0106592D01*
X0077343Y0106694D01*
X0077361Y0106796D01*
X0077363Y0106589D02*
X0077917Y0106589D01*
X0077363Y0106589D01*
X0077587Y0106986D02*
X0077693Y0106986D01*
X0077587Y0106986D01*
X0070878Y0108503D02*
X0070807Y0108366D01*
X0070698Y0108256D01*
X0070561Y0108186D01*
X0070408Y0108162D01*
X0070255Y0108186D01*
X0070118Y0108256D01*
X0070009Y0108366D01*
X0069939Y0108503D01*
X0069914Y0108656D01*
X0069939Y0108808D01*
X0070009Y0108946D01*
X0070118Y0109055D01*
X0070255Y0109125D01*
X0070408Y0109150D01*
X0070561Y0109125D01*
X0070698Y0109055D01*
X0070807Y0108946D01*
X0070878Y0108808D01*
X0070902Y0108656D01*
X0070878Y0108503D01*
X0070889Y0108574D02*
X0069927Y0108574D01*
X0069933Y0108772D02*
X0070883Y0108772D01*
X0070783Y0108971D02*
X0070034Y0108971D01*
X0070004Y0108375D02*
X0070812Y0108375D01*
X0070502Y0108177D02*
X0070315Y0108177D01*
X0072482Y0114658D02*
X0072386Y0114693D01*
X0072307Y0114759D01*
X0072255Y0114849D01*
X0072237Y0114950D01*
X0072255Y0115052D01*
X0072307Y0115141D01*
X0072386Y0115207D01*
X0072482Y0115243D01*
X0072586Y0115243D01*
X0072682Y0115207D01*
X0072761Y0115141D01*
X0072813Y0115052D01*
X0072831Y0114950D01*
X0072813Y0114849D01*
X0072761Y0114759D01*
X0072682Y0114693D01*
X0072586Y0114658D01*
X0072482Y0114658D01*
X0072344Y0114728D02*
X0072724Y0114728D01*
X0072827Y0114926D02*
X0072241Y0114926D01*
X0072297Y0115125D02*
X0072771Y0115125D01*
X0071226Y0115630D02*
X0071174Y0115541D01*
X0071095Y0115474D01*
X0070999Y0115439D01*
X0070895Y0115439D01*
X0070799Y0115474D01*
X0070720Y0115541D01*
X0070668Y0115630D01*
X0070650Y0115731D01*
X0070668Y0115833D01*
X0070720Y0115922D01*
X0070799Y0115988D01*
X0070895Y0116024D01*
X0070999Y0116024D01*
X0071095Y0115988D01*
X0071174Y0115922D01*
X0071226Y0115833D01*
X0071244Y0115731D01*
X0071226Y0115630D01*
X0071242Y0115720D02*
X0070652Y0115720D01*
X0070718Y0115919D02*
X0071176Y0115919D01*
X0071152Y0115522D02*
X0070742Y0115522D01*
X0069345Y0116308D02*
X0069293Y0116219D01*
X0069215Y0116152D01*
X0069118Y0116117D01*
X0069014Y0116117D01*
X0069015Y0116117D02*
X0068918Y0116152D01*
X0068839Y0116219D01*
X0068787Y0116308D01*
X0068769Y0116410D01*
X0068787Y0116511D01*
X0068839Y0116600D01*
X0068918Y0116667D01*
X0069015Y0116702D01*
X0069118Y0116702D01*
X0069215Y0116667D01*
X0069293Y0116600D01*
X0069345Y0116511D01*
X0069363Y0116410D01*
X0069345Y0116308D01*
X0069346Y0116316D02*
X0068786Y0116316D01*
X0068789Y0116514D02*
X0069343Y0116514D01*
X0069118Y0116117D02*
X0069015Y0116117D01*
X0063835Y0115585D02*
X0063815Y0115463D01*
X0063759Y0115353D01*
X0063672Y0115265D01*
X0063562Y0115209D01*
X0063440Y0115190D01*
X0063317Y0115209D01*
X0063207Y0115265D01*
X0063120Y0115353D01*
X0063064Y0115463D01*
X0063044Y0115585D01*
X0063064Y0115707D01*
X0063120Y0115817D01*
X0063207Y0115905D01*
X0063317Y0115961D01*
X0063440Y0115980D01*
X0063562Y0115961D01*
X0063672Y0115905D01*
X0063759Y0115817D01*
X0063815Y0115707D01*
X0063835Y0115585D01*
X0063825Y0115522D02*
X0063054Y0115522D01*
X0063070Y0115720D02*
X0063809Y0115720D01*
X0063644Y0115919D02*
X0063235Y0115919D01*
X0063149Y0115323D02*
X0063730Y0115323D01*
X0058785Y0119174D02*
X0058706Y0119107D01*
X0058609Y0119072D01*
X0058506Y0119072D01*
X0058409Y0119107D01*
X0058330Y0119174D01*
X0058279Y0119263D01*
X0058261Y0119364D01*
X0058279Y0119466D01*
X0058330Y0119555D01*
X0058409Y0119622D01*
X0058506Y0119657D01*
X0058609Y0119657D01*
X0058706Y0119622D01*
X0058785Y0119555D01*
X0058837Y0119466D01*
X0058855Y0119364D01*
X0058837Y0119263D01*
X0058785Y0119174D01*
X0058842Y0119294D02*
X0058273Y0119294D01*
X0058294Y0119492D02*
X0058822Y0119492D01*
X0058672Y0119095D02*
X0058443Y0119095D01*
X0055524Y0115691D02*
X0055575Y0115601D01*
X0055593Y0115500D01*
X0055575Y0115398D01*
X0055524Y0115309D01*
X0055445Y0115243D01*
X0055348Y0115207D01*
X0055245Y0115207D01*
X0055148Y0115243D01*
X0055069Y0115309D01*
X0055017Y0115398D01*
X0055000Y0115500D01*
X0055017Y0115601D01*
X0055069Y0115691D01*
X0055148Y0115757D01*
X0055245Y0115792D01*
X0055348Y0115792D01*
X0055445Y0115757D01*
X0055524Y0115691D01*
X0055488Y0115720D02*
X0055104Y0115720D01*
X0055003Y0115522D02*
X0055589Y0115522D01*
X0055532Y0115323D02*
X0055061Y0115323D01*
X0059424Y0105427D02*
X0059458Y0104536D01*
X0059503Y0103362D01*
X0061142Y0100784D01*
X0063287Y0098405D01*
X0074163Y0098405D01*
X0075684Y0096884D01*
X0077355Y0096687D02*
X0077373Y0096789D01*
X0077425Y0096878D01*
X0077504Y0096944D01*
X0077601Y0096980D01*
X0077704Y0096980D01*
X0077801Y0096944D01*
X0077880Y0096878D01*
X0077931Y0096789D01*
X0077949Y0096687D01*
X0077931Y0096586D01*
X0077880Y0096496D01*
X0077801Y0096430D01*
X0077704Y0096395D01*
X0077601Y0096395D01*
X0077504Y0096430D01*
X0077425Y0096496D01*
X0077373Y0096586D01*
X0077355Y0096687D01*
X0077360Y0096663D02*
X0077945Y0096663D01*
X0077889Y0096862D02*
X0077415Y0096862D01*
X0077463Y0096465D02*
X0077842Y0096465D01*
X0078191Y0094814D02*
X0078294Y0094814D01*
X0078391Y0094779D01*
X0078470Y0094713D01*
X0078522Y0094623D01*
X0078540Y0094522D01*
X0078522Y0094420D01*
X0078470Y0094331D01*
X0078391Y0094265D01*
X0078294Y0094230D01*
X0078191Y0094230D01*
X0078094Y0094265D01*
X0078015Y0094331D01*
X0077964Y0094420D01*
X0077946Y0094522D01*
X0077964Y0094623D01*
X0078015Y0094713D01*
X0078094Y0094779D01*
X0078191Y0094814D01*
X0077995Y0094678D02*
X0078490Y0094678D01*
X0078532Y0094480D02*
X0077953Y0094480D01*
X0078075Y0094281D02*
X0078410Y0094281D01*
X0080023Y0092469D02*
X0080102Y0092535D01*
X0080199Y0092570D01*
X0080302Y0092570D01*
X0080399Y0092535D01*
X0080478Y0092469D01*
X0080530Y0092379D01*
X0080547Y0092278D01*
X0080530Y0092176D01*
X0080478Y0092087D01*
X0080399Y0092021D01*
X0080302Y0091986D01*
X0080199Y0091986D01*
X0080102Y0092021D01*
X0080023Y0092087D01*
X0079972Y0092176D01*
X0079954Y0092278D01*
X0079972Y0092379D01*
X0080023Y0092469D01*
X0080054Y0092495D02*
X0080447Y0092495D01*
X0080544Y0092296D02*
X0079957Y0092296D01*
X0080017Y0092097D02*
X0080484Y0092097D01*
X0081940Y0092767D02*
X0081992Y0092678D01*
X0082071Y0092611D01*
X0082168Y0092576D01*
X0082271Y0092576D01*
X0082368Y0092611D01*
X0082446Y0092678D01*
X0082498Y0092767D01*
X0082516Y0092868D01*
X0082498Y0092970D01*
X0082446Y0093059D01*
X0082368Y0093125D01*
X0082271Y0093161D01*
X0082168Y0093161D01*
X0082071Y0093125D01*
X0081992Y0093059D01*
X0081940Y0092970D01*
X0081922Y0092868D01*
X0081940Y0092767D01*
X0081983Y0092693D02*
X0082455Y0092693D01*
X0082512Y0092892D02*
X0081926Y0092892D01*
X0082028Y0093090D02*
X0082410Y0093090D01*
X0080753Y0096037D02*
X0080656Y0096001D01*
X0080553Y0096001D01*
X0080456Y0096037D01*
X0080378Y0096103D01*
X0080326Y0096192D01*
X0080308Y0096294D01*
X0080326Y0096395D01*
X0080378Y0096484D01*
X0080456Y0096551D01*
X0080553Y0096586D01*
X0080656Y0096586D01*
X0080753Y0096551D01*
X0080832Y0096484D01*
X0080884Y0096395D01*
X0080902Y0096294D01*
X0080884Y0096192D01*
X0080832Y0096103D01*
X0080753Y0096037D01*
X0080791Y0096068D02*
X0080419Y0096068D01*
X0080313Y0096266D02*
X0080897Y0096266D01*
X0080844Y0096465D02*
X0080366Y0096465D01*
X0080632Y0098127D02*
X0080535Y0098163D01*
X0080456Y0098229D01*
X0080405Y0098318D01*
X0080387Y0098420D01*
X0080405Y0098521D01*
X0080456Y0098610D01*
X0080535Y0098677D01*
X0080632Y0098712D01*
X0080735Y0098712D01*
X0080832Y0098677D01*
X0080911Y0098610D01*
X0080963Y0098521D01*
X0080980Y0098420D01*
X0080963Y0098318D01*
X0080911Y0098229D01*
X0080832Y0098163D01*
X0080735Y0098127D01*
X0080632Y0098127D01*
X0080535Y0098163D01*
X0080456Y0098229D01*
X0080405Y0098318D01*
X0080387Y0098420D01*
X0080405Y0098521D01*
X0080456Y0098610D01*
X0080535Y0098677D01*
X0080632Y0098712D01*
X0080735Y0098712D01*
X0080832Y0098677D01*
X0080911Y0098610D01*
X0080963Y0098521D01*
X0080980Y0098420D01*
X0080963Y0098318D01*
X0080911Y0098229D01*
X0080832Y0098163D01*
X0080735Y0098127D01*
X0080632Y0098127D01*
X0080443Y0098251D02*
X0080924Y0098251D01*
X0080443Y0098251D01*
X0080392Y0098450D02*
X0080975Y0098450D01*
X0080392Y0098450D01*
X0080501Y0098648D02*
X0080866Y0098648D01*
X0080501Y0098648D01*
X0074927Y0095106D02*
X0074978Y0095017D01*
X0074996Y0094916D01*
X0074978Y0094814D01*
X0074927Y0094725D01*
X0074848Y0094659D01*
X0074751Y0094623D01*
X0074648Y0094623D01*
X0074551Y0094659D01*
X0074472Y0094725D01*
X0074420Y0094814D01*
X0074403Y0094916D01*
X0074420Y0095017D01*
X0074472Y0095106D01*
X0074551Y0095173D01*
X0074648Y0095208D01*
X0074751Y0095208D01*
X0074848Y0095173D01*
X0074927Y0095106D01*
X0074945Y0095075D02*
X0074454Y0095075D01*
X0074409Y0094877D02*
X0074989Y0094877D01*
X0074871Y0094678D02*
X0074528Y0094678D01*
X0072884Y0096053D02*
X0073715Y0096884D01*
X0072884Y0096053D02*
X0067224Y0096053D01*
X0066038Y0096924D01*
X0066024Y0096946D02*
X0065972Y0097035D01*
X0065954Y0097137D01*
X0065972Y0097238D01*
X0066024Y0097327D01*
X0066103Y0097394D01*
X0066200Y0097429D01*
X0066303Y0097429D01*
X0066400Y0097394D01*
X0066479Y0097327D01*
X0066530Y0097238D01*
X0066548Y0097137D01*
X0066530Y0097035D01*
X0066479Y0096946D01*
X0066400Y0096880D01*
X0066303Y0096844D01*
X0066200Y0096844D01*
X0066103Y0096880D01*
X0066024Y0096946D01*
X0065968Y0097060D02*
X0066535Y0097060D01*
X0066518Y0097259D02*
X0065984Y0097259D01*
X0066152Y0096862D02*
X0066351Y0096862D01*
X0064900Y0099697D02*
X0064778Y0099678D01*
X0064656Y0099697D01*
X0064546Y0099753D01*
X0064458Y0099841D01*
X0064402Y0099951D01*
X0064383Y0100073D01*
X0064402Y0100195D01*
X0064458Y0100305D01*
X0064546Y0100393D01*
X0064656Y0100449D01*
X0064778Y0100468D01*
X0064900Y0100449D01*
X0065010Y0100393D01*
X0065098Y0100305D01*
X0065154Y0100195D01*
X0065173Y0100073D01*
X0065154Y0099951D01*
X0065098Y0099841D01*
X0065010Y0099753D01*
X0064900Y0099697D01*
X0065097Y0099839D02*
X0064460Y0099839D01*
X0064388Y0100038D02*
X0065168Y0100038D01*
X0065133Y0100236D02*
X0064423Y0100236D01*
X0064628Y0100435D02*
X0064928Y0100435D01*
X0069821Y0094094D02*
X0069932Y0094150D01*
X0070054Y0094169D01*
X0070176Y0094150D01*
X0070286Y0094094D01*
X0070374Y0094006D01*
X0070430Y0093896D01*
X0070449Y0093774D01*
X0070430Y0093652D01*
X0070374Y0093542D01*
X0070286Y0093454D01*
X0070176Y0093398D01*
X0070054Y0093379D01*
X0069932Y0093398D01*
X0069821Y0093454D01*
X0069734Y0093542D01*
X0069678Y0093652D01*
X0069658Y0093774D01*
X0069678Y0093896D01*
X0069734Y0094006D01*
X0069821Y0094094D01*
X0069810Y0094083D02*
X0070297Y0094083D01*
X0070432Y0093884D02*
X0069676Y0093884D01*
X0069672Y0093686D02*
X0070435Y0093686D01*
X0070319Y0093487D02*
X0069788Y0093487D01*
X0071468Y0093049D02*
X0071519Y0093138D01*
X0071598Y0093204D01*
X0071695Y0093239D01*
X0071798Y0093239D01*
X0071895Y0093204D01*
X0071974Y0093138D01*
X0072026Y0093049D01*
X0072043Y0092947D01*
X0072026Y0092846D01*
X0071974Y0092756D01*
X0071895Y0092690D01*
X0071798Y0092655D01*
X0071695Y0092655D01*
X0071598Y0092690D01*
X0071519Y0092756D01*
X0071468Y0092846D01*
X0071450Y0092947D01*
X0071468Y0093049D01*
X0071519Y0093138D01*
X0071598Y0093204D01*
X0071695Y0093239D01*
X0071798Y0093239D01*
X0071895Y0093204D01*
X0071974Y0093138D01*
X0072026Y0093049D01*
X0072043Y0092947D01*
X0072026Y0092846D01*
X0071974Y0092756D01*
X0071895Y0092690D01*
X0071798Y0092655D01*
X0071695Y0092655D01*
X0071598Y0092690D01*
X0071519Y0092756D01*
X0071468Y0092846D01*
X0071450Y0092947D01*
X0071468Y0093049D01*
X0071492Y0093090D02*
X0072002Y0093090D01*
X0071492Y0093090D01*
X0071460Y0092892D02*
X0072034Y0092892D01*
X0071460Y0092892D01*
X0071595Y0092693D02*
X0071899Y0092693D01*
X0071595Y0092693D01*
X0078869Y0090096D02*
X0078921Y0090185D01*
X0079000Y0090251D01*
X0079097Y0090287D01*
X0079200Y0090287D01*
X0079297Y0090251D01*
X0079376Y0090185D01*
X0079427Y0090096D01*
X0079445Y0089994D01*
X0079427Y0089893D01*
X0079376Y0089804D01*
X0079297Y0089737D01*
X0079200Y0089702D01*
X0079097Y0089702D01*
X0079000Y0089737D01*
X0078921Y0089804D01*
X0078869Y0089893D01*
X0078851Y0089994D01*
X0078869Y0090096D01*
X0078879Y0090112D02*
X0079418Y0090112D01*
X0079431Y0089914D02*
X0078866Y0089914D01*
X0079060Y0089715D02*
X0079236Y0089715D01*
X0082098Y0088364D02*
X0082149Y0088453D01*
X0082228Y0088519D01*
X0082325Y0088554D01*
X0082428Y0088554D01*
X0082525Y0088519D01*
X0082604Y0088453D01*
X0082656Y0088364D01*
X0082673Y0088262D01*
X0082656Y0088161D01*
X0082604Y0088071D01*
X0082525Y0088005D01*
X0082428Y0087970D01*
X0082325Y0087970D01*
X0082228Y0088005D01*
X0082149Y0088071D01*
X0082098Y0088161D01*
X0082080Y0088262D01*
X0082098Y0088364D01*
X0082091Y0088326D02*
X0082662Y0088326D01*
X0082636Y0088127D02*
X0082117Y0088127D01*
X0082242Y0088524D02*
X0082511Y0088524D01*
X0083361Y0080249D02*
X0083641Y0080212D01*
X0083901Y0080104D01*
X0084125Y0079932D01*
X0084297Y0079708D01*
X0084405Y0079447D01*
X0084442Y0079168D01*
X0084405Y0078888D01*
X0084297Y0078627D01*
X0084125Y0078403D01*
X0083901Y0078231D01*
X0083641Y0078123D01*
X0083361Y0078087D01*
X0083081Y0078123D01*
X0082820Y0078231D01*
X0082596Y0078403D01*
X0082425Y0078627D01*
X0082317Y0078888D01*
X0082280Y0079168D01*
X0082317Y0079447D01*
X0082425Y0079708D01*
X0082596Y0079932D01*
X0082820Y0080104D01*
X0083081Y0080212D01*
X0083361Y0080249D01*
X0083701Y0080187D02*
X0083020Y0080187D01*
X0082670Y0079988D02*
X0084052Y0079988D01*
X0084234Y0079790D02*
X0082487Y0079790D01*
X0082376Y0079591D02*
X0084345Y0079591D01*
X0084412Y0079393D02*
X0082309Y0079393D01*
X0082283Y0079194D02*
X0084438Y0079194D01*
X0084419Y0078996D02*
X0082302Y0078996D01*
X0082354Y0078797D02*
X0084368Y0078797D01*
X0084275Y0078599D02*
X0082446Y0078599D01*
X0082600Y0078400D02*
X0084121Y0078400D01*
X0083830Y0078202D02*
X0082892Y0078202D01*
X0092149Y0089252D02*
X0092098Y0089342D01*
X0092080Y0089443D01*
X0092098Y0089545D01*
X0092149Y0089634D01*
X0092228Y0089700D01*
X0092325Y0089736D01*
X0092428Y0089736D01*
X0092525Y0089700D01*
X0092604Y0089634D01*
X0092656Y0089545D01*
X0092673Y0089443D01*
X0092656Y0089342D01*
X0092604Y0089252D01*
X0092525Y0089186D01*
X0092428Y0089151D01*
X0092325Y0089151D01*
X0092228Y0089186D01*
X0092149Y0089252D01*
X0092111Y0089318D02*
X0092642Y0089318D01*
X0092660Y0089517D02*
X0092093Y0089517D01*
X0092270Y0089715D02*
X0092484Y0089715D01*
X0093882Y0093281D02*
X0093803Y0093347D01*
X0093751Y0093436D01*
X0093733Y0093538D01*
X0093751Y0093639D01*
X0093803Y0093729D01*
X0093882Y0093795D01*
X0093979Y0093830D01*
X0094082Y0093830D01*
X0094179Y0093795D01*
X0094258Y0093729D01*
X0094309Y0093639D01*
X0094327Y0093538D01*
X0094309Y0093436D01*
X0094258Y0093347D01*
X0094179Y0093281D01*
X0094082Y0093245D01*
X0093979Y0093245D01*
X0093882Y0093281D01*
X0093872Y0093289D02*
X0094188Y0093289D01*
X0094318Y0093487D02*
X0093742Y0093487D01*
X0093778Y0093686D02*
X0094282Y0093686D01*
X0097464Y0096339D02*
X0097413Y0096428D01*
X0097395Y0096530D01*
X0097413Y0096631D01*
X0097464Y0096721D01*
X0097543Y0096787D01*
X0097640Y0096822D01*
X0097743Y0096822D01*
X0097840Y0096787D01*
X0097919Y0096721D01*
X0097970Y0096631D01*
X0097988Y0096530D01*
X0097970Y0096428D01*
X0097919Y0096339D01*
X0097840Y0096273D01*
X0097743Y0096237D01*
X0097640Y0096237D01*
X0097543Y0096273D01*
X0097464Y0096339D01*
X0097561Y0096266D02*
X0097822Y0096266D01*
X0097977Y0096465D02*
X0097406Y0096465D01*
X0097431Y0096663D02*
X0097952Y0096663D01*
X0100543Y0097982D02*
X0100599Y0097872D01*
X0100686Y0097785D01*
X0100797Y0097729D01*
X0100919Y0097709D01*
X0101041Y0097729D01*
X0101151Y0097785D01*
X0101238Y0097872D01*
X0101295Y0097982D01*
X0101314Y0098105D01*
X0101295Y0098227D01*
X0101238Y0098337D01*
X0101151Y0098424D01*
X0101041Y0098481D01*
X0100919Y0098500D01*
X0100797Y0098481D01*
X0100686Y0098424D01*
X0100599Y0098337D01*
X0100543Y0098227D01*
X0100523Y0098105D01*
X0100543Y0097982D01*
X0100532Y0098053D02*
X0101306Y0098053D01*
X0101282Y0098251D02*
X0100555Y0098251D01*
X0100736Y0098450D02*
X0101101Y0098450D01*
X0101220Y0097854D02*
X0100617Y0097854D01*
X0103606Y0096051D02*
X0103685Y0096118D01*
X0103782Y0096153D01*
X0103885Y0096153D01*
X0103982Y0096118D01*
X0104061Y0096051D01*
X0104112Y0095962D01*
X0104130Y0095861D01*
X0104112Y0095759D01*
X0104061Y0095670D01*
X0103982Y0095603D01*
X0103885Y0095568D01*
X0103782Y0095568D01*
X0103685Y0095603D01*
X0103606Y0095670D01*
X0103554Y0095759D01*
X0103536Y0095861D01*
X0103554Y0095962D01*
X0103606Y0096051D01*
X0103625Y0096068D02*
X0104041Y0096068D01*
X0104129Y0095869D02*
X0103538Y0095869D01*
X0103605Y0095671D02*
X0104061Y0095671D01*
X0107570Y0093797D02*
X0107622Y0093886D01*
X0107701Y0093952D01*
X0107797Y0093988D01*
X0107901Y0093988D01*
X0107997Y0093952D01*
X0108076Y0093886D01*
X0108128Y0093797D01*
X0108146Y0093695D01*
X0108128Y0093594D01*
X0108076Y0093504D01*
X0107997Y0093438D01*
X0107901Y0093403D01*
X0107797Y0093403D01*
X0107701Y0093438D01*
X0107622Y0093504D01*
X0107570Y0093594D01*
X0107552Y0093695D01*
X0107570Y0093797D01*
X0107621Y0093884D02*
X0108077Y0093884D01*
X0108144Y0093686D02*
X0107554Y0093686D01*
X0107642Y0093487D02*
X0108056Y0093487D01*
X0108151Y0098700D02*
X0108054Y0098735D01*
X0107975Y0098801D01*
X0107923Y0098891D01*
X0107905Y0098992D01*
X0107923Y0099094D01*
X0107975Y0099183D01*
X0108054Y0099249D01*
X0108151Y0099284D01*
X0108254Y0099284D01*
X0108351Y0099249D01*
X0108430Y0099183D01*
X0108481Y0099094D01*
X0108499Y0098992D01*
X0108481Y0098891D01*
X0108430Y0098801D01*
X0108351Y0098735D01*
X0108254Y0098700D01*
X0108151Y0098700D01*
X0107948Y0098847D02*
X0108456Y0098847D01*
X0108490Y0099045D02*
X0107915Y0099045D01*
X0108048Y0099244D02*
X0108357Y0099244D01*
X0107185Y0099940D02*
X0107076Y0099831D01*
X0106939Y0099761D01*
X0106786Y0099737D01*
X0106633Y0099761D01*
X0106496Y0099831D01*
X0106387Y0099940D01*
X0106316Y0100078D01*
X0106292Y0100231D01*
X0106316Y0100383D01*
X0106387Y0100521D01*
X0106496Y0100630D01*
X0106633Y0100700D01*
X0106786Y0100724D01*
X0106939Y0100700D01*
X0107076Y0100630D01*
X0107185Y0100521D01*
X0107256Y0100383D01*
X0107280Y0100231D01*
X0107256Y0100078D01*
X0107185Y0099940D01*
X0107235Y0100038D02*
X0106337Y0100038D01*
X0106293Y0100236D02*
X0107279Y0100236D01*
X0107229Y0100435D02*
X0106343Y0100435D01*
X0106503Y0100633D02*
X0107069Y0100633D01*
X0107084Y0099839D02*
X0106488Y0099839D01*
X0108822Y0105618D02*
X0108634Y0105739D01*
X0108487Y0105908D01*
X0108394Y0106112D01*
X0108362Y0106333D01*
X0108394Y0106554D01*
X0108487Y0106758D01*
X0108634Y0106927D01*
X0108822Y0107048D01*
X0109036Y0107111D01*
X0109260Y0107111D01*
X0109475Y0107048D01*
X0109663Y0106927D01*
X0109809Y0106758D01*
X0109902Y0106554D01*
X0109934Y0106333D01*
X0109902Y0106112D01*
X0109809Y0105908D01*
X0109663Y0105739D01*
X0109475Y0105618D01*
X0109260Y0105555D01*
X0109036Y0105555D01*
X0108822Y0105618D01*
X0108896Y0105596D02*
X0109400Y0105596D01*
X0109711Y0105795D02*
X0108585Y0105795D01*
X0108448Y0105993D02*
X0109848Y0105993D01*
X0109914Y0106192D02*
X0108383Y0106192D01*
X0108371Y0106390D02*
X0109926Y0106390D01*
X0109886Y0106589D02*
X0108410Y0106589D01*
X0108513Y0106787D02*
X0109784Y0106787D01*
X0109571Y0106986D02*
X0108725Y0106986D01*
X0109148Y0106333D02*
X0107828Y0107653D01*
X0107808Y0107653D01*
X0111347Y0109064D02*
X0111440Y0108861D01*
X0111586Y0108692D01*
X0111775Y0108571D01*
X0111989Y0108508D01*
X0112213Y0108508D01*
X0112427Y0108571D01*
X0112616Y0108692D01*
X0112762Y0108861D01*
X0112855Y0109064D01*
X0112887Y0109286D01*
X0112855Y0109507D01*
X0112762Y0109711D01*
X0112616Y0109880D01*
X0112427Y0110001D01*
X0112213Y0110064D01*
X0111989Y0110064D01*
X0111775Y0110001D01*
X0111586Y0109880D01*
X0111440Y0109711D01*
X0111347Y0109507D01*
X0111315Y0109286D01*
X0111347Y0109064D01*
X0111440Y0108861D01*
X0111586Y0108692D01*
X0111775Y0108571D01*
X0111989Y0108508D01*
X0112213Y0108508D01*
X0112427Y0108571D01*
X0112616Y0108692D01*
X0112762Y0108861D01*
X0112855Y0109064D01*
X0112887Y0109286D01*
X0112855Y0109507D01*
X0112762Y0109711D01*
X0112616Y0109880D01*
X0112427Y0110001D01*
X0112213Y0110064D01*
X0111989Y0110064D01*
X0111775Y0110001D01*
X0111586Y0109880D01*
X0111440Y0109711D01*
X0111347Y0109507D01*
X0111315Y0109286D01*
X0111347Y0109064D01*
X0111390Y0108971D02*
X0112812Y0108971D01*
X0111390Y0108971D01*
X0111332Y0109169D02*
X0112870Y0109169D01*
X0111332Y0109169D01*
X0111327Y0109368D02*
X0112875Y0109368D01*
X0111327Y0109368D01*
X0111374Y0109566D02*
X0112828Y0109566D01*
X0111374Y0109566D01*
X0111487Y0109765D02*
X0112715Y0109765D01*
X0111487Y0109765D01*
X0111717Y0109964D02*
X0112485Y0109964D01*
X0111717Y0109964D01*
X0111517Y0108772D02*
X0112685Y0108772D01*
X0111517Y0108772D01*
X0111770Y0108574D02*
X0112432Y0108574D01*
X0111770Y0108574D01*
X0115617Y0109164D02*
X0115635Y0109265D01*
X0115687Y0109355D01*
X0115766Y0109421D01*
X0115862Y0109456D01*
X0115965Y0109456D01*
X0116062Y0109421D01*
X0116141Y0109355D01*
X0116193Y0109265D01*
X0116211Y0109164D01*
X0116193Y0109062D01*
X0116141Y0108973D01*
X0116062Y0108907D01*
X0115965Y0108871D01*
X0115862Y0108871D01*
X0115766Y0108907D01*
X0115687Y0108973D01*
X0115635Y0109062D01*
X0115617Y0109164D01*
X0115635Y0109265D01*
X0115687Y0109355D01*
X0115766Y0109421D01*
X0115862Y0109456D01*
X0115965Y0109456D01*
X0116062Y0109421D01*
X0116141Y0109355D01*
X0116193Y0109265D01*
X0116211Y0109164D01*
X0116193Y0109062D01*
X0116141Y0108973D01*
X0116062Y0108907D01*
X0115965Y0108871D01*
X0115862Y0108871D01*
X0115766Y0108907D01*
X0115687Y0108973D01*
X0115635Y0109062D01*
X0115617Y0109164D01*
X0115618Y0109169D02*
X0116210Y0109169D01*
X0115618Y0109169D01*
X0115689Y0108971D02*
X0116139Y0108971D01*
X0115689Y0108971D01*
X0115914Y0109164D02*
X0116504Y0108573D01*
X0117022Y0108573D01*
X0117416Y0108573D01*
X0117688Y0108301D01*
X0119975Y0108301D01*
X0119442Y0106669D02*
X0117257Y0106669D01*
X0116496Y0106961D02*
X0116444Y0106872D01*
X0116366Y0106806D01*
X0116269Y0106771D01*
X0116166Y0106771D01*
X0116069Y0106806D01*
X0115990Y0106872D01*
X0115938Y0106961D01*
X0115920Y0107063D01*
X0115938Y0107164D01*
X0115990Y0107254D01*
X0116069Y0107320D01*
X0116166Y0107355D01*
X0116269Y0107355D01*
X0116366Y0107320D01*
X0116444Y0107254D01*
X0116496Y0107164D01*
X0116514Y0107063D01*
X0116496Y0106961D01*
X0116500Y0106986D02*
X0115934Y0106986D01*
X0115950Y0107184D02*
X0116485Y0107184D01*
X0116315Y0106787D02*
X0116119Y0106787D01*
X0117087Y0104979D02*
X0117184Y0105015D01*
X0117287Y0105015D01*
X0117384Y0104979D01*
X0117463Y0104913D01*
X0117515Y0104824D01*
X0117532Y0104722D01*
X0117515Y0104621D01*
X0117463Y0104532D01*
X0117384Y0104465D01*
X0117287Y0104430D01*
X0117184Y0104430D01*
X0117087Y0104465D01*
X0117008Y0104532D01*
X0116957Y0104621D01*
X0116939Y0104722D01*
X0116957Y0104824D01*
X0117008Y0104913D01*
X0117087Y0104979D01*
X0117146Y0105001D02*
X0117326Y0105001D01*
X0117518Y0104802D02*
X0116953Y0104802D01*
X0116967Y0104604D02*
X0117505Y0104604D01*
X0116421Y0102989D02*
X0116500Y0102923D01*
X0116552Y0102834D01*
X0116570Y0102732D01*
X0116552Y0102631D01*
X0116500Y0102541D01*
X0116421Y0102475D01*
X0116325Y0102440D01*
X0116221Y0102440D01*
X0116125Y0102475D01*
X0116046Y0102541D01*
X0115994Y0102631D01*
X0115976Y0102732D01*
X0115994Y0102834D01*
X0116046Y0102923D01*
X0116125Y0102989D01*
X0116221Y0103025D01*
X0116325Y0103025D01*
X0116421Y0102989D01*
X0116349Y0103016D02*
X0116197Y0103016D01*
X0115991Y0102817D02*
X0116555Y0102817D01*
X0116545Y0102619D02*
X0116001Y0102619D01*
X0115317Y0101825D02*
X0114922Y0101825D01*
X0114892Y0101799D02*
X0114971Y0101866D01*
X0115068Y0101901D01*
X0115171Y0101901D01*
X0115268Y0101866D01*
X0115347Y0101799D01*
X0115398Y0101710D01*
X0115416Y0101609D01*
X0115398Y0101507D01*
X0115347Y0101418D01*
X0115268Y0101351D01*
X0115171Y0101316D01*
X0115068Y0101316D01*
X0114971Y0101351D01*
X0114892Y0101418D01*
X0114841Y0101507D01*
X0114823Y0101609D01*
X0114841Y0101710D01*
X0114892Y0101799D01*
X0114826Y0101626D02*
X0115413Y0101626D01*
X0115353Y0101428D02*
X0114886Y0101428D01*
X0114174Y0100567D02*
X0114095Y0100633D01*
X0113998Y0100669D01*
X0113895Y0100669D01*
X0113798Y0100633D01*
X0113719Y0100567D01*
X0113667Y0100478D01*
X0113649Y0100376D01*
X0113667Y0100275D01*
X0113719Y0100185D01*
X0113798Y0100119D01*
X0113895Y0100084D01*
X0113998Y0100084D01*
X0114095Y0100119D01*
X0114174Y0100185D01*
X0114225Y0100275D01*
X0114243Y0100376D01*
X0114225Y0100478D01*
X0114174Y0100567D01*
X0114094Y0100633D02*
X0113798Y0100633D01*
X0113660Y0100435D02*
X0114233Y0100435D01*
X0114203Y0100236D02*
X0113689Y0100236D01*
X0112957Y0099577D02*
X0113009Y0099487D01*
X0113027Y0099386D01*
X0113009Y0099284D01*
X0112957Y0099195D01*
X0112878Y0099129D01*
X0112781Y0099093D01*
X0112678Y0099093D01*
X0112581Y0099129D01*
X0112502Y0099195D01*
X0112451Y0099284D01*
X0112433Y0099386D01*
X0112451Y0099487D01*
X0112502Y0099577D01*
X0112581Y0099643D01*
X0112678Y0099678D01*
X0112781Y0099678D01*
X0112878Y0099643D01*
X0112957Y0099577D01*
X0112880Y0099641D02*
X0112579Y0099641D01*
X0112443Y0099442D02*
X0113017Y0099442D01*
X0112985Y0099244D02*
X0112474Y0099244D01*
X0119442Y0106669D02*
X0119975Y0106136D01*
X0122337Y0106136D02*
X0122692Y0106727D01*
X0122978Y0106787D02*
X0122405Y0106787D01*
X0122413Y0106828D02*
X0122464Y0106917D01*
X0122543Y0106984D01*
X0122640Y0107019D01*
X0122743Y0107019D01*
X0122840Y0106984D01*
X0122919Y0106917D01*
X0122970Y0106828D01*
X0122988Y0106727D01*
X0122970Y0106625D01*
X0122919Y0106536D01*
X0122840Y0106470D01*
X0122743Y0106434D01*
X0122640Y0106434D01*
X0122543Y0106470D01*
X0122464Y0106536D01*
X0122413Y0106625D01*
X0122395Y0106727D01*
X0122413Y0106828D01*
X0122549Y0106986D02*
X0122834Y0106986D01*
X0122950Y0106589D02*
X0122434Y0106589D01*
X0122561Y0108088D02*
X0122464Y0108123D01*
X0122385Y0108189D01*
X0122334Y0108279D01*
X0122316Y0108380D01*
X0122334Y0108482D01*
X0122385Y0108571D01*
X0122464Y0108637D01*
X0122561Y0108673D01*
X0122664Y0108673D01*
X0122761Y0108637D01*
X0122840Y0108571D01*
X0122892Y0108482D01*
X0122910Y0108380D01*
X0122892Y0108279D01*
X0122840Y0108189D01*
X0122761Y0108123D01*
X0122664Y0108088D01*
X0122561Y0108088D01*
X0122400Y0108177D02*
X0122825Y0108177D01*
X0122909Y0108375D02*
X0122317Y0108375D01*
X0122337Y0108341D02*
X0122613Y0108380D01*
X0122337Y0108341D02*
X0122337Y0108301D01*
X0122389Y0108574D02*
X0122837Y0108574D01*
X0122704Y0110174D02*
X0122601Y0110174D01*
X0122504Y0110210D01*
X0122425Y0110276D01*
X0122373Y0110365D01*
X0122355Y0110467D01*
X0122373Y0110568D01*
X0122425Y0110658D01*
X0122504Y0110724D01*
X0122601Y0110759D01*
X0122704Y0110759D01*
X0122801Y0110724D01*
X0122880Y0110658D01*
X0122931Y0110568D01*
X0122949Y0110467D01*
X0122931Y0110365D01*
X0122880Y0110276D01*
X0122801Y0110210D01*
X0122704Y0110174D01*
X0122928Y0110361D02*
X0122376Y0110361D01*
X0122372Y0110559D02*
X0122933Y0110559D01*
X0122708Y0110758D02*
X0122596Y0110758D01*
X0122827Y0111648D02*
X0123827Y0112648D01*
X0123856Y0111604D02*
X0123959Y0111604D01*
X0124056Y0111568D01*
X0124135Y0111502D01*
X0124187Y0111413D01*
X0124205Y0111311D01*
X0124187Y0111210D01*
X0124135Y0111121D01*
X0124056Y0111054D01*
X0123959Y0111019D01*
X0123856Y0111019D01*
X0123759Y0111054D01*
X0123680Y0111121D01*
X0123629Y0111210D01*
X0123611Y0111311D01*
X0123629Y0111413D01*
X0123680Y0111502D01*
X0123759Y0111568D01*
X0123856Y0111604D01*
X0123739Y0111552D02*
X0124076Y0111552D01*
X0124197Y0111353D02*
X0123618Y0111353D01*
X0123661Y0111155D02*
X0124155Y0111155D01*
X0122827Y0111648D02*
X0115504Y0111648D01*
X0115225Y0111552D02*
X0115784Y0111552D01*
X0115783Y0111546D02*
X0115732Y0111457D01*
X0115653Y0111391D01*
X0115556Y0111356D01*
X0115453Y0111356D01*
X0115356Y0111391D01*
X0115277Y0111457D01*
X0115226Y0111546D01*
X0115208Y0111648D01*
X0115226Y0111749D01*
X0115277Y0111839D01*
X0115356Y0111905D01*
X0115453Y0111940D01*
X0115556Y0111940D01*
X0115653Y0111905D01*
X0115732Y0111839D01*
X0115783Y0111749D01*
X0115801Y0111648D01*
X0115783Y0111546D01*
X0115783Y0111750D02*
X0115226Y0111750D01*
X0117003Y0112829D02*
X0117257Y0112575D01*
X0117436Y0114364D02*
X0117257Y0114543D01*
X0117436Y0114364D02*
X0120132Y0114364D01*
X0120132Y0112790D01*
X0122976Y0115788D02*
X0122924Y0115877D01*
X0122906Y0115979D01*
X0122924Y0116080D01*
X0122976Y0116169D01*
X0123055Y0116236D01*
X0123152Y0116271D01*
X0123255Y0116271D01*
X0123352Y0116236D01*
X0123431Y0116169D01*
X0123482Y0116080D01*
X0123500Y0115979D01*
X0123482Y0115877D01*
X0123431Y0115788D01*
X0123352Y0115722D01*
X0123255Y0115686D01*
X0123152Y0115686D01*
X0123055Y0115722D01*
X0122976Y0115788D01*
X0123058Y0115720D02*
X0123348Y0115720D01*
X0123490Y0115919D02*
X0122917Y0115919D01*
X0122946Y0116117D02*
X0123461Y0116117D01*
X0123203Y0115979D02*
X0124306Y0115979D01*
X0124896Y0116569D01*
X0122825Y0117153D02*
X0122761Y0117100D01*
X0122664Y0117064D01*
X0122561Y0117064D01*
X0122464Y0117100D01*
X0122385Y0117166D01*
X0122334Y0117255D01*
X0122316Y0117357D01*
X0122334Y0117458D01*
X0122385Y0117547D01*
X0122464Y0117614D01*
X0122561Y0117649D01*
X0122664Y0117649D01*
X0122761Y0117614D01*
X0122840Y0117547D01*
X0122878Y0117481D01*
X0122825Y0117427D01*
X0122825Y0117153D01*
X0122774Y0117110D02*
X0122452Y0117110D01*
X0122324Y0117308D02*
X0122825Y0117308D01*
X0122864Y0117507D02*
X0122362Y0117507D01*
X0122140Y0117357D02*
X0120762Y0118735D01*
X0122434Y0118695D02*
X0122458Y0118848D01*
X0122528Y0118985D01*
X0122638Y0119095D01*
X0123217Y0119095D01*
X0123218Y0119095D02*
X0123327Y0118985D01*
X0123397Y0118848D01*
X0123421Y0118695D01*
X0123397Y0118543D01*
X0123327Y0118405D01*
X0123218Y0118296D01*
X0123080Y0118226D01*
X0122928Y0118201D01*
X0122775Y0118226D01*
X0122638Y0118296D01*
X0122528Y0118405D01*
X0122458Y0118543D01*
X0122434Y0118695D01*
X0122434Y0118698D02*
X0123421Y0118698D01*
X0123375Y0118499D02*
X0122480Y0118499D01*
X0122632Y0118301D02*
X0123223Y0118301D01*
X0123372Y0118897D02*
X0122483Y0118897D01*
X0122638Y0119095D02*
X0122775Y0119165D01*
X0122928Y0119189D01*
X0123080Y0119165D01*
X0123218Y0119095D01*
X0122613Y0117357D02*
X0122140Y0117357D01*
X0120132Y0116727D02*
X0116983Y0116727D01*
X0115644Y0115388D01*
X0110920Y0115388D01*
X0110723Y0115585D01*
X0110239Y0115522D02*
X0111207Y0115522D01*
X0110239Y0115522D01*
X0110229Y0115585D02*
X0110253Y0115737D01*
X0110324Y0115875D01*
X0110433Y0115984D01*
X0110570Y0116054D01*
X0110723Y0116079D01*
X0110876Y0116054D01*
X0111013Y0115984D01*
X0111122Y0115875D01*
X0111193Y0115737D01*
X0111217Y0115585D01*
X0111193Y0115432D01*
X0111122Y0115295D01*
X0111013Y0115186D01*
X0110876Y0115115D01*
X0110723Y0115091D01*
X0110570Y0115115D01*
X0110433Y0115186D01*
X0110324Y0115295D01*
X0110253Y0115432D01*
X0110229Y0115585D01*
X0110253Y0115737D01*
X0110324Y0115875D01*
X0110433Y0115984D01*
X0110570Y0116054D01*
X0110723Y0116079D01*
X0110876Y0116054D01*
X0111013Y0115984D01*
X0111122Y0115875D01*
X0111193Y0115737D01*
X0111217Y0115585D01*
X0111193Y0115432D01*
X0111122Y0115295D01*
X0111013Y0115186D01*
X0110876Y0115115D01*
X0110723Y0115091D01*
X0110570Y0115115D01*
X0110433Y0115186D01*
X0110324Y0115295D01*
X0110253Y0115432D01*
X0110229Y0115585D01*
X0110251Y0115720D02*
X0111195Y0115720D01*
X0110251Y0115720D01*
X0110367Y0115919D02*
X0111079Y0115919D01*
X0110367Y0115919D01*
X0110309Y0115323D02*
X0111137Y0115323D01*
X0110309Y0115323D01*
X0110552Y0115125D02*
X0110894Y0115125D01*
X0110552Y0115125D01*
X0113803Y0120288D02*
X0113724Y0120355D01*
X0113672Y0120444D01*
X0113655Y0120546D01*
X0113672Y0120647D01*
X0113724Y0120736D01*
X0113803Y0120803D01*
X0113900Y0120838D01*
X0114003Y0120838D01*
X0114100Y0120803D01*
X0114179Y0120736D01*
X0114230Y0120647D01*
X0114248Y0120546D01*
X0114230Y0120444D01*
X0114179Y0120355D01*
X0114100Y0120288D01*
X0114003Y0120253D01*
X0113900Y0120253D01*
X0113803Y0120288D01*
X0113810Y0120286D02*
X0114093Y0120286D01*
X0114237Y0120485D02*
X0113665Y0120485D01*
X0113693Y0120683D02*
X0114210Y0120683D01*
X0113352Y0121182D02*
X0113273Y0121115D01*
X0113176Y0121080D01*
X0113073Y0121080D01*
X0112976Y0121115D01*
X0112897Y0121182D01*
X0112846Y0121271D01*
X0112828Y0121372D01*
X0112846Y0121474D01*
X0112897Y0121563D01*
X0112976Y0121629D01*
X0113073Y0121665D01*
X0113176Y0121665D01*
X0113273Y0121629D01*
X0113352Y0121563D01*
X0113404Y0121474D01*
X0113421Y0121372D01*
X0113404Y0121271D01*
X0113352Y0121182D01*
X0113405Y0121279D02*
X0112844Y0121279D01*
X0112848Y0121477D02*
X0113402Y0121477D01*
X0113177Y0121080D02*
X0113073Y0121080D01*
X0109348Y0121783D02*
X0109297Y0121693D01*
X0109218Y0121627D01*
X0109121Y0121592D01*
X0109018Y0121592D01*
X0108921Y0121627D01*
X0108842Y0121693D01*
X0108791Y0121783D01*
X0108773Y0121884D01*
X0108791Y0121986D01*
X0108842Y0122075D01*
X0108921Y0122141D01*
X0109018Y0122176D01*
X0109121Y0122176D01*
X0109218Y0122141D01*
X0109297Y0122075D01*
X0109348Y0121986D01*
X0109366Y0121884D01*
X0109348Y0121783D01*
X0109297Y0121693D01*
X0109218Y0121627D01*
X0109121Y0121592D01*
X0109018Y0121592D01*
X0108921Y0121627D01*
X0108842Y0121693D01*
X0108791Y0121783D01*
X0108773Y0121884D01*
X0108791Y0121986D01*
X0108842Y0122075D01*
X0108921Y0122141D01*
X0109018Y0122176D01*
X0109121Y0122176D01*
X0109218Y0122141D01*
X0109297Y0122075D01*
X0109348Y0121986D01*
X0109366Y0121884D01*
X0109348Y0121783D01*
X0109365Y0121874D02*
X0108774Y0121874D01*
X0109365Y0121874D01*
X0109298Y0122073D02*
X0108841Y0122073D01*
X0109298Y0122073D01*
X0109069Y0121963D02*
X0109069Y0121884D01*
X0108863Y0121676D02*
X0109276Y0121676D01*
X0108863Y0121676D01*
X0105146Y0117302D02*
X0105255Y0117193D01*
X0105325Y0117055D01*
X0105349Y0116903D01*
X0105325Y0116750D01*
X0105255Y0116612D01*
X0105146Y0116503D01*
X0105008Y0116433D01*
X0104856Y0116409D01*
X0104703Y0116433D01*
X0104566Y0116503D01*
X0104456Y0116612D01*
X0104386Y0116750D01*
X0104362Y0116903D01*
X0104386Y0117055D01*
X0104456Y0117193D01*
X0104566Y0117302D01*
X0104703Y0117372D01*
X0104856Y0117396D01*
X0105008Y0117372D01*
X0105146Y0117302D01*
X0105133Y0117308D02*
X0104578Y0117308D01*
X0104414Y0117110D02*
X0105297Y0117110D01*
X0105348Y0116911D02*
X0104363Y0116911D01*
X0104405Y0116713D02*
X0105306Y0116713D01*
X0105157Y0116514D02*
X0104554Y0116514D01*
X0095980Y0115388D02*
X0095956Y0115236D01*
X0095886Y0115098D01*
X0095777Y0114989D01*
X0095639Y0114919D01*
X0095487Y0114894D01*
X0095334Y0114919D01*
X0095197Y0114989D01*
X0095087Y0115098D01*
X0095017Y0115236D01*
X0094993Y0115388D01*
X0095017Y0115541D01*
X0095087Y0115678D01*
X0095197Y0115787D01*
X0095334Y0115858D01*
X0095487Y0115882D01*
X0095639Y0115858D01*
X0095777Y0115787D01*
X0095886Y0115678D01*
X0095956Y0115541D01*
X0095980Y0115388D01*
X0095956Y0115236D01*
X0095886Y0115098D01*
X0095777Y0114989D01*
X0095639Y0114919D01*
X0095487Y0114894D01*
X0095334Y0114919D01*
X0095197Y0114989D01*
X0095087Y0115098D01*
X0095017Y0115236D01*
X0094993Y0115388D01*
X0095017Y0115541D01*
X0095087Y0115678D01*
X0095197Y0115787D01*
X0095334Y0115858D01*
X0095487Y0115882D01*
X0095639Y0115858D01*
X0095777Y0115787D01*
X0095886Y0115678D01*
X0095956Y0115541D01*
X0095980Y0115388D01*
X0095956Y0115236D01*
X0095886Y0115098D01*
X0095777Y0114989D01*
X0095639Y0114919D01*
X0095487Y0114894D01*
X0095334Y0114919D01*
X0095197Y0114989D01*
X0095087Y0115098D01*
X0095017Y0115236D01*
X0094993Y0115388D01*
X0095017Y0115541D01*
X0095087Y0115678D01*
X0095197Y0115787D01*
X0095334Y0115858D01*
X0095487Y0115882D01*
X0095639Y0115858D01*
X0095777Y0115787D01*
X0095886Y0115678D01*
X0095956Y0115541D01*
X0095980Y0115388D01*
X0095970Y0115323D02*
X0095003Y0115323D01*
X0095970Y0115323D01*
X0095003Y0115323D01*
X0095014Y0115522D02*
X0095959Y0115522D01*
X0095014Y0115522D01*
X0095959Y0115522D01*
X0095844Y0115720D02*
X0095129Y0115720D01*
X0095844Y0115720D01*
X0095129Y0115720D01*
X0095074Y0115125D02*
X0095900Y0115125D01*
X0095074Y0115125D01*
X0095900Y0115125D01*
X0095655Y0114926D02*
X0095319Y0114926D01*
X0095655Y0114926D01*
X0095319Y0114926D01*
X0093285Y0115247D02*
X0093234Y0115158D01*
X0093155Y0115092D01*
X0093058Y0115056D01*
X0092955Y0115056D01*
X0092858Y0115092D01*
X0092779Y0115158D01*
X0092728Y0115247D01*
X0092710Y0115349D01*
X0092728Y0115450D01*
X0092779Y0115540D01*
X0092858Y0115606D01*
X0092955Y0115641D01*
X0093058Y0115641D01*
X0093155Y0115606D01*
X0093234Y0115540D01*
X0093285Y0115450D01*
X0093303Y0115349D01*
X0093285Y0115247D01*
X0093299Y0115323D02*
X0092714Y0115323D01*
X0092769Y0115522D02*
X0093244Y0115522D01*
X0093194Y0115125D02*
X0092819Y0115125D01*
X0092822Y0114145D02*
X0092919Y0114110D01*
X0092998Y0114043D01*
X0093049Y0113954D01*
X0093067Y0113853D01*
X0093049Y0113751D01*
X0092998Y0113662D01*
X0092919Y0113596D01*
X0092822Y0113560D01*
X0092719Y0113560D01*
X0092622Y0113596D01*
X0092543Y0113662D01*
X0092491Y0113751D01*
X0092473Y0113853D01*
X0092491Y0113954D01*
X0092543Y0114043D01*
X0092622Y0114110D01*
X0092719Y0114145D01*
X0092822Y0114145D01*
X0092857Y0114132D02*
X0092684Y0114132D01*
X0092488Y0113934D02*
X0093053Y0113934D01*
X0093040Y0113735D02*
X0092501Y0113735D01*
X0090941Y0113853D02*
X0090923Y0113751D01*
X0090872Y0113662D01*
X0090793Y0113596D01*
X0090696Y0113560D01*
X0090593Y0113560D01*
X0090496Y0113596D01*
X0090417Y0113662D01*
X0090365Y0113751D01*
X0090347Y0113853D01*
X0090365Y0113954D01*
X0090417Y0114043D01*
X0090496Y0114110D01*
X0090593Y0114145D01*
X0090696Y0114145D01*
X0090793Y0114110D01*
X0090872Y0114043D01*
X0090923Y0113954D01*
X0090941Y0113853D01*
X0090927Y0113934D02*
X0090362Y0113934D01*
X0090375Y0113735D02*
X0090914Y0113735D01*
X0090731Y0114132D02*
X0090558Y0114132D01*
X0089506Y0113915D02*
X0089524Y0113813D01*
X0089506Y0113712D01*
X0089454Y0113622D01*
X0089375Y0113556D01*
X0089279Y0113521D01*
X0089175Y0113521D01*
X0089079Y0113556D01*
X0089000Y0113622D01*
X0088948Y0113712D01*
X0088930Y0113813D01*
X0088948Y0113915D01*
X0089000Y0114004D01*
X0089079Y0114070D01*
X0089175Y0114106D01*
X0089279Y0114106D01*
X0089375Y0114070D01*
X0089454Y0114004D01*
X0089506Y0113915D01*
X0089495Y0113934D02*
X0088959Y0113934D01*
X0088944Y0113735D02*
X0089510Y0113735D01*
X0089322Y0113537D02*
X0089132Y0113537D01*
X0092071Y0108559D02*
X0092168Y0108594D01*
X0092271Y0108594D01*
X0092368Y0108559D01*
X0092446Y0108492D01*
X0092498Y0108403D01*
X0092516Y0108301D01*
X0092498Y0108200D01*
X0092446Y0108111D01*
X0092368Y0108044D01*
X0092271Y0108009D01*
X0092168Y0108009D01*
X0092071Y0108044D01*
X0091992Y0108111D01*
X0091940Y0108200D01*
X0091922Y0108301D01*
X0091940Y0108403D01*
X0091992Y0108492D01*
X0092071Y0108559D01*
X0092168Y0108594D01*
X0092271Y0108594D01*
X0092368Y0108559D01*
X0092446Y0108492D01*
X0092498Y0108403D01*
X0092516Y0108301D01*
X0092498Y0108200D01*
X0092446Y0108111D01*
X0092368Y0108044D01*
X0092271Y0108009D01*
X0092168Y0108009D01*
X0092071Y0108044D01*
X0091992Y0108111D01*
X0091940Y0108200D01*
X0091922Y0108301D01*
X0091940Y0108403D01*
X0091992Y0108492D01*
X0092071Y0108559D01*
X0092113Y0108574D02*
X0092325Y0108574D01*
X0092113Y0108574D01*
X0091935Y0108375D02*
X0092503Y0108375D01*
X0091935Y0108375D01*
X0091953Y0108177D02*
X0092485Y0108177D01*
X0091953Y0108177D01*
X0092168Y0106625D02*
X0092271Y0106625D01*
X0092368Y0106590D01*
X0092446Y0106524D01*
X0092498Y0106434D01*
X0092516Y0106333D01*
X0092498Y0106231D01*
X0092446Y0106142D01*
X0092368Y0106076D01*
X0092271Y0106041D01*
X0092168Y0106041D01*
X0092071Y0106076D01*
X0091992Y0106142D01*
X0091940Y0106231D01*
X0091922Y0106333D01*
X0091940Y0106434D01*
X0091992Y0106524D01*
X0092071Y0106590D01*
X0092168Y0106625D01*
X0092069Y0106589D02*
X0092369Y0106589D01*
X0092506Y0106390D02*
X0091932Y0106390D01*
X0091963Y0106192D02*
X0092475Y0106192D01*
X0094388Y0103857D02*
X0094499Y0103914D01*
X0094621Y0103933D01*
X0094743Y0103914D01*
X0094853Y0103857D01*
X0094940Y0103770D01*
X0094997Y0103660D01*
X0095016Y0103538D01*
X0094997Y0103416D01*
X0094940Y0103305D01*
X0094853Y0103218D01*
X0094743Y0103162D01*
X0094621Y0103142D01*
X0094499Y0103162D01*
X0094388Y0103218D01*
X0094301Y0103305D01*
X0094245Y0103416D01*
X0094225Y0103538D01*
X0094245Y0103660D01*
X0094301Y0103770D01*
X0094388Y0103857D01*
X0094341Y0103810D02*
X0094901Y0103810D01*
X0095004Y0103611D02*
X0094237Y0103611D01*
X0094246Y0103413D02*
X0094995Y0103413D01*
X0094846Y0103214D02*
X0094396Y0103214D01*
X0094279Y0101232D02*
X0094375Y0101196D01*
X0094454Y0101130D01*
X0094506Y0101041D01*
X0094524Y0100939D01*
X0094506Y0100838D01*
X0094454Y0100748D01*
X0094375Y0100682D01*
X0094279Y0100647D01*
X0094175Y0100647D01*
X0094079Y0100682D01*
X0094000Y0100748D01*
X0093948Y0100838D01*
X0093930Y0100939D01*
X0093948Y0101041D01*
X0094000Y0101130D01*
X0094079Y0101196D01*
X0094175Y0101232D01*
X0094279Y0101232D01*
X0094286Y0101229D02*
X0094168Y0101229D01*
X0093946Y0101030D02*
X0094508Y0101030D01*
X0094503Y0100832D02*
X0093951Y0100832D01*
X0091226Y0098217D02*
X0091278Y0098127D01*
X0091295Y0098026D01*
X0091278Y0097924D01*
X0091226Y0097835D01*
X0091147Y0097769D01*
X0091050Y0097734D01*
X0090947Y0097734D01*
X0090850Y0097769D01*
X0090771Y0097835D01*
X0090720Y0097924D01*
X0090702Y0098026D01*
X0090720Y0098127D01*
X0090771Y0098217D01*
X0090850Y0098283D01*
X0090947Y0098318D01*
X0091050Y0098318D01*
X0091147Y0098283D01*
X0091226Y0098217D01*
X0091185Y0098251D02*
X0090812Y0098251D01*
X0090707Y0098053D02*
X0091291Y0098053D01*
X0091237Y0097854D02*
X0090760Y0097854D01*
X0089467Y0103162D02*
X0089345Y0103142D01*
X0089223Y0103162D01*
X0089113Y0103218D01*
X0089025Y0103305D01*
X0088969Y0103416D01*
X0088950Y0103538D01*
X0088969Y0103660D01*
X0089025Y0103770D01*
X0089113Y0103857D01*
X0089223Y0103914D01*
X0089345Y0103933D01*
X0089467Y0103914D01*
X0089577Y0103857D01*
X0089665Y0103770D01*
X0089721Y0103660D01*
X0089740Y0103538D01*
X0089721Y0103416D01*
X0089665Y0103305D01*
X0089577Y0103218D01*
X0089467Y0103162D01*
X0089570Y0103214D02*
X0089120Y0103214D01*
X0088971Y0103413D02*
X0089720Y0103413D01*
X0089729Y0103611D02*
X0088961Y0103611D01*
X0089065Y0103810D02*
X0089625Y0103810D01*
X0086817Y0106890D02*
X0086738Y0106824D01*
X0086641Y0106789D01*
X0086538Y0106789D01*
X0086441Y0106824D01*
X0086362Y0106890D01*
X0086310Y0106979D01*
X0086292Y0107081D01*
X0086310Y0107183D01*
X0086362Y0107272D01*
X0086441Y0107338D01*
X0086538Y0107373D01*
X0086641Y0107373D01*
X0086738Y0107338D01*
X0086817Y0107272D01*
X0086868Y0107183D01*
X0086886Y0107081D01*
X0086868Y0106979D01*
X0086817Y0106890D01*
X0086869Y0106986D02*
X0086309Y0106986D01*
X0086311Y0107184D02*
X0086867Y0107184D01*
X0066643Y0130304D02*
X0066505Y0130234D01*
X0066353Y0130209D01*
X0066200Y0130234D01*
X0066063Y0130304D01*
X0065954Y0130413D01*
X0065883Y0130550D01*
X0065859Y0130703D01*
X0065883Y0130856D01*
X0065954Y0130993D01*
X0066063Y0131102D01*
X0066200Y0131173D01*
X0066353Y0131197D01*
X0066505Y0131173D01*
X0066643Y0131102D01*
X0066752Y0130993D01*
X0066822Y0130856D01*
X0066847Y0130703D01*
X0066822Y0130550D01*
X0066752Y0130413D01*
X0066643Y0130304D01*
X0066750Y0130410D02*
X0065956Y0130410D01*
X0065874Y0130609D02*
X0066832Y0130609D01*
X0066830Y0130807D02*
X0065876Y0130807D01*
X0065966Y0131006D02*
X0066740Y0131006D01*
X0066368Y0130212D02*
X0066338Y0130212D01*
X0068330Y0135722D02*
X0068252Y0135788D01*
X0068200Y0135877D01*
X0068182Y0135979D01*
X0068200Y0136080D01*
X0068252Y0136169D01*
X0068330Y0136236D01*
X0068427Y0136271D01*
X0068530Y0136271D01*
X0068627Y0136236D01*
X0068706Y0136169D01*
X0068758Y0136080D01*
X0068776Y0135979D01*
X0068758Y0135877D01*
X0068706Y0135788D01*
X0068627Y0135722D01*
X0068530Y0135686D01*
X0068427Y0135686D01*
X0068330Y0135722D01*
X0068273Y0135770D02*
X0068685Y0135770D01*
X0068774Y0135968D02*
X0068184Y0135968D01*
X0068250Y0136167D02*
X0068708Y0136167D01*
X0062852Y0137373D02*
X0062801Y0137284D01*
X0062722Y0137218D01*
X0062625Y0137182D01*
X0062522Y0137182D01*
X0062425Y0137218D01*
X0062346Y0137284D01*
X0062294Y0137373D01*
X0062277Y0137475D01*
X0062294Y0137576D01*
X0062346Y0137666D01*
X0062425Y0137732D01*
X0062522Y0137767D01*
X0062625Y0137767D01*
X0062722Y0137732D01*
X0062801Y0137666D01*
X0062852Y0137576D01*
X0062870Y0137475D01*
X0062852Y0137373D01*
X0062844Y0137358D02*
X0062303Y0137358D01*
X0062291Y0137557D02*
X0062856Y0137557D01*
X0062658Y0137755D02*
X0062489Y0137755D01*
X0058046Y0133459D02*
X0057967Y0133538D01*
X0057183Y0133324D02*
X0057201Y0133223D01*
X0057183Y0133121D01*
X0057132Y0133032D01*
X0057053Y0132966D01*
X0056956Y0132930D01*
X0056853Y0132930D01*
X0056756Y0132966D01*
X0056677Y0133032D01*
X0056625Y0133121D01*
X0056607Y0133223D01*
X0056625Y0133324D01*
X0056677Y0133414D01*
X0056756Y0133480D01*
X0056853Y0133515D01*
X0056956Y0133515D01*
X0057053Y0133480D01*
X0057132Y0133414D01*
X0057183Y0133324D01*
X0057146Y0133388D02*
X0056662Y0133388D01*
X0056613Y0133189D02*
X0057195Y0133189D01*
X0057083Y0132991D02*
X0056726Y0132991D01*
X0056825Y0135485D02*
X0056673Y0135509D01*
X0056535Y0135579D01*
X0056426Y0135688D01*
X0056356Y0135826D01*
X0056332Y0135979D01*
X0056356Y0136131D01*
X0056426Y0136269D01*
X0056535Y0136378D01*
X0056673Y0136448D01*
X0056825Y0136472D01*
X0056978Y0136448D01*
X0057116Y0136378D01*
X0057225Y0136269D01*
X0057295Y0136131D01*
X0057319Y0135979D01*
X0057295Y0135826D01*
X0057225Y0135688D01*
X0057116Y0135579D01*
X0056978Y0135509D01*
X0056825Y0135485D01*
X0056550Y0135571D02*
X0057100Y0135571D01*
X0057266Y0135770D02*
X0056384Y0135770D01*
X0056333Y0135968D02*
X0057317Y0135968D01*
X0057277Y0136167D02*
X0056374Y0136167D01*
X0056523Y0136366D02*
X0057128Y0136366D01*
X0060157Y0131260D02*
X0060295Y0131330D01*
X0060447Y0131354D01*
X0060600Y0131330D01*
X0060738Y0131260D01*
X0060847Y0131151D01*
X0060917Y0131013D01*
X0060941Y0130861D01*
X0060917Y0130708D01*
X0060847Y0130570D01*
X0060738Y0130461D01*
X0060600Y0130391D01*
X0060447Y0130367D01*
X0060295Y0130391D01*
X0060157Y0130461D01*
X0060048Y0130570D01*
X0059978Y0130708D01*
X0059954Y0130861D01*
X0059978Y0131013D01*
X0060048Y0131151D01*
X0060157Y0131260D01*
X0060102Y0131204D02*
X0060793Y0131204D01*
X0060918Y0131006D02*
X0059977Y0131006D01*
X0059962Y0130807D02*
X0060933Y0130807D01*
X0060866Y0130609D02*
X0060028Y0130609D01*
X0060257Y0130410D02*
X0060638Y0130410D01*
X0059712Y0127649D02*
X0059808Y0127614D01*
X0059887Y0127547D01*
X0059939Y0127458D01*
X0059957Y0127357D01*
X0059939Y0127255D01*
X0059887Y0127166D01*
X0059808Y0127100D01*
X0059712Y0127064D01*
X0059608Y0127064D01*
X0059512Y0127100D01*
X0059433Y0127166D01*
X0059381Y0127255D01*
X0059363Y0127357D01*
X0059381Y0127458D01*
X0059433Y0127547D01*
X0059512Y0127614D01*
X0059608Y0127649D01*
X0059712Y0127649D01*
X0059761Y0127631D02*
X0059559Y0127631D01*
X0059377Y0127433D02*
X0059943Y0127433D01*
X0059927Y0127234D02*
X0059393Y0127234D01*
X0067638Y0142684D02*
X0067528Y0142793D01*
X0067458Y0142931D01*
X0067434Y0143084D01*
X0067458Y0143236D01*
X0067528Y0143374D01*
X0067638Y0143483D01*
X0067775Y0143553D01*
X0067928Y0143577D01*
X0068080Y0143553D01*
X0068218Y0143483D01*
X0068327Y0143374D01*
X0068397Y0143236D01*
X0068421Y0143084D01*
X0068397Y0142931D01*
X0068327Y0142793D01*
X0068218Y0142684D01*
X0068080Y0142614D01*
X0067928Y0142590D01*
X0067775Y0142614D01*
X0067638Y0142684D01*
X0067604Y0142718D02*
X0068252Y0142718D01*
X0068390Y0142916D02*
X0067466Y0142916D01*
X0067439Y0143115D02*
X0068416Y0143115D01*
X0068358Y0143313D02*
X0067498Y0143313D01*
X0067694Y0143512D02*
X0068161Y0143512D01*
X0068349Y0149663D02*
X0068252Y0149698D01*
X0068173Y0149764D01*
X0068121Y0149853D01*
X0068103Y0149955D01*
X0068121Y0150057D01*
X0068173Y0150146D01*
X0068252Y0150212D01*
X0068349Y0150247D01*
X0068452Y0150247D01*
X0068549Y0150212D01*
X0068628Y0150146D01*
X0068679Y0150057D01*
X0068697Y0149955D01*
X0068679Y0149853D01*
X0068628Y0149764D01*
X0068549Y0149698D01*
X0068452Y0149663D01*
X0068349Y0149663D01*
X0068340Y0149666D02*
X0068460Y0149666D01*
X0068681Y0149864D02*
X0068119Y0149864D01*
X0068125Y0150063D02*
X0068676Y0150063D01*
X0053232Y0161710D02*
X0053153Y0161643D01*
X0053056Y0161608D01*
X0052953Y0161608D01*
X0052856Y0161643D01*
X0052777Y0161710D01*
X0052725Y0161799D01*
X0052707Y0161900D01*
X0052725Y0162002D01*
X0052777Y0162091D01*
X0052856Y0162158D01*
X0052953Y0162193D01*
X0053056Y0162193D01*
X0053153Y0162158D01*
X0053232Y0162091D01*
X0053283Y0162002D01*
X0053301Y0161900D01*
X0053283Y0161799D01*
X0053232Y0161710D01*
X0053269Y0161775D02*
X0052739Y0161775D01*
X0052720Y0161973D02*
X0053288Y0161973D01*
X0053113Y0162172D02*
X0052895Y0162172D01*
X0047585Y0155476D02*
X0047664Y0155410D01*
X0047715Y0155321D01*
X0047733Y0155219D01*
X0047715Y0155118D01*
X0047664Y0155028D01*
X0047585Y0154962D01*
X0047488Y0154927D01*
X0047385Y0154927D01*
X0047288Y0154962D01*
X0047209Y0155028D01*
X0047157Y0155118D01*
X0047140Y0155219D01*
X0047157Y0155321D01*
X0047209Y0155410D01*
X0047288Y0155476D01*
X0047385Y0155511D01*
X0047488Y0155511D01*
X0047585Y0155476D01*
X0047649Y0155423D02*
X0047224Y0155423D01*
X0047140Y0155224D02*
X0047732Y0155224D01*
X0047661Y0155026D02*
X0047212Y0155026D01*
X0094639Y0158616D02*
X0094657Y0158718D01*
X0094708Y0158807D01*
X0094787Y0158874D01*
X0094884Y0158909D01*
X0094987Y0158909D01*
X0095084Y0158874D01*
X0095163Y0158807D01*
X0095215Y0158718D01*
X0095232Y0158616D01*
X0095215Y0158515D01*
X0095163Y0158426D01*
X0095084Y0158359D01*
X0094987Y0158324D01*
X0094884Y0158324D01*
X0094787Y0158359D01*
X0094708Y0158426D01*
X0094657Y0158515D01*
X0094639Y0158616D01*
X0094642Y0158599D02*
X0095229Y0158599D01*
X0095169Y0158797D02*
X0094702Y0158797D01*
X0094738Y0158400D02*
X0095133Y0158400D01*
X0122322Y0165975D02*
X0122374Y0165885D01*
X0122453Y0165819D01*
X0122550Y0165784D01*
X0122653Y0165784D01*
X0122750Y0165819D01*
X0122829Y0165885D01*
X0122880Y0165975D01*
X0122898Y0166076D01*
X0122880Y0166178D01*
X0122829Y0166267D01*
X0122750Y0166333D01*
X0122653Y0166369D01*
X0122550Y0166369D01*
X0122453Y0166333D01*
X0122374Y0166267D01*
X0122322Y0166178D01*
X0122304Y0166076D01*
X0122322Y0165975D01*
X0122340Y0165944D02*
X0122862Y0165944D01*
X0122887Y0166142D02*
X0122316Y0166142D01*
X0122473Y0166341D02*
X0122729Y0166341D01*
X0126219Y0150139D02*
X0126499Y0150176D01*
X0126779Y0150139D01*
X0127039Y0150031D01*
X0127263Y0149859D01*
X0127435Y0149635D01*
X0127543Y0149374D01*
X0127580Y0149095D01*
X0127543Y0148815D01*
X0127435Y0148554D01*
X0127263Y0148330D01*
X0127039Y0148158D01*
X0126779Y0148050D01*
X0126499Y0148013D01*
X0126219Y0148050D01*
X0125958Y0148158D01*
X0125734Y0148330D01*
X0125562Y0148554D01*
X0125454Y0148815D01*
X0125418Y0149095D01*
X0125454Y0149374D01*
X0125562Y0149635D01*
X0125734Y0149859D01*
X0125958Y0150031D01*
X0126219Y0150139D01*
X0126035Y0150063D02*
X0126962Y0150063D01*
X0127256Y0149864D02*
X0125741Y0149864D01*
X0125586Y0149666D02*
X0127411Y0149666D01*
X0127505Y0149467D02*
X0125493Y0149467D01*
X0125441Y0149269D02*
X0127557Y0149269D01*
X0127577Y0149070D02*
X0125421Y0149070D01*
X0125447Y0148872D02*
X0127551Y0148872D01*
X0127484Y0148673D02*
X0125513Y0148673D01*
X0125623Y0148475D02*
X0127374Y0148475D01*
X0127193Y0148276D02*
X0125805Y0148276D01*
X0126153Y0148078D02*
X0126845Y0148078D01*
X0116125Y0109368D02*
X0115703Y0109368D01*
X0116125Y0109368D01*
X0098273Y0070173D02*
X0098352Y0070106D01*
X0098404Y0070017D01*
X0098421Y0069916D01*
X0098404Y0069814D01*
X0098352Y0069725D01*
X0098273Y0069659D01*
X0098176Y0069623D01*
X0098073Y0069623D01*
X0097976Y0069659D01*
X0097897Y0069725D01*
X0097846Y0069814D01*
X0097828Y0069916D01*
X0097846Y0070017D01*
X0097897Y0070106D01*
X0097976Y0070173D01*
X0098073Y0070208D01*
X0098176Y0070208D01*
X0098273Y0070173D01*
X0098377Y0070063D02*
X0097872Y0070063D01*
X0097837Y0069864D02*
X0098412Y0069864D01*
X0098282Y0069666D02*
X0097968Y0069666D01*
D25*
X0083951Y0071451D03*
X0083951Y0079325D03*
X0057810Y0109286D03*
X0057810Y0117160D03*
X0078636Y0135191D03*
X0078636Y0143065D03*
X0075841Y0146609D03*
X0075841Y0154483D03*
D26*
X0073912Y0141412D03*
X0073912Y0139443D03*
X0073912Y0137475D03*
X0073912Y0135506D03*
X0073912Y0133538D03*
X0062888Y0133538D03*
X0062888Y0135506D03*
X0062888Y0137475D03*
X0062888Y0139443D03*
X0062888Y0141412D03*
D27*
X0068400Y0137475D03*
D28*
X0069050Y0151805D03*
X0071609Y0151805D03*
D29*
X0071510Y0149260D03*
X0067967Y0149181D03*
X0067967Y0144981D03*
X0071510Y0145060D03*
X0060684Y0126504D03*
X0060684Y0122304D03*
X0089936Y0117449D03*
X0089936Y0113249D03*
X0092180Y0129469D03*
X0092180Y0133669D03*
X0099975Y0133905D03*
X0099975Y0129705D03*
X0114542Y0130335D03*
X0117849Y0130335D03*
X0117849Y0134535D03*
X0114542Y0134535D03*
X0114188Y0125441D03*
X0114188Y0121241D03*
X0121038Y0121123D03*
X0121038Y0125323D03*
D30*
X0075723Y0121805D03*
X0065487Y0121805D03*
D31*
X0063597Y0128892D03*
X0070054Y0128892D03*
D32*
X0114936Y0147987D03*
X0114936Y0149561D03*
D33*
X0116930Y0136963D03*
X0121130Y0136963D03*
X0120736Y0127632D03*
X0116536Y0127632D03*
X0111209Y0135900D03*
X0107009Y0135900D03*
X0104122Y0136175D03*
X0099922Y0136175D03*
X0096484Y0136175D03*
X0092284Y0136175D03*
X0086642Y0136057D03*
X0082442Y0136057D03*
X0092442Y0117868D03*
X0096642Y0117868D03*
X0082980Y0115388D03*
X0078780Y0115388D03*
D34*
X0082150Y0109689D02*
X0082150Y0109197D01*
X0080478Y0109197D01*
X0080478Y0109689D01*
X0082150Y0109689D01*
X0082150Y0109688D02*
X0080478Y0109688D01*
X0082150Y0104965D02*
X0082150Y0104473D01*
X0080478Y0104473D01*
X0080478Y0104965D01*
X0082150Y0104965D01*
X0082150Y0104964D02*
X0080478Y0104964D01*
X0085989Y0104965D02*
X0085989Y0104473D01*
X0085989Y0104965D02*
X0087661Y0104965D01*
X0087661Y0104473D01*
X0085989Y0104473D01*
X0085989Y0104964D02*
X0087661Y0104964D01*
X0085989Y0109197D02*
X0085989Y0109689D01*
X0087661Y0109689D01*
X0087661Y0109197D01*
X0085989Y0109197D01*
X0085989Y0109688D02*
X0087661Y0109688D01*
D35*
X0085940Y0107277D02*
X0085940Y0106885D01*
X0085940Y0107277D02*
X0087710Y0107277D01*
X0087710Y0106885D01*
X0085940Y0106885D01*
X0080429Y0106885D02*
X0080429Y0107277D01*
X0082199Y0107277D01*
X0082199Y0106885D01*
X0080429Y0106885D01*
X0059424Y0105427D02*
X0057810Y0109286D01*
X0083165Y0152861D02*
X0083952Y0152861D01*
X0083165Y0152861D02*
X0083160Y0152865D01*
X0096747Y0147868D02*
X0097140Y0147475D01*
X0108018Y0142120D02*
X0108018Y0141963D01*
X0107940Y0141884D01*
D36*
X0107940Y0144246D02*
X0106510Y0144246D01*
X0105526Y0144246D01*
X0103453Y0136845D02*
X0104122Y0136175D01*
X0111392Y0126766D02*
X0110999Y0126254D01*
X0111432Y0126412D01*
X0097140Y0147475D02*
X0095172Y0149443D01*
X0093597Y0147868D01*
X0093046Y0147317D01*
X0082573Y0146333D02*
X0082337Y0145979D01*
X0083951Y0154758D02*
X0083951Y0154837D01*
X0083400Y0155388D01*
X0069742Y0146099D02*
X0069742Y0143948D01*
X0073274Y0128105D02*
X0070771Y0125601D01*
X0065487Y0125601D01*
X0065487Y0121805D01*
X0073274Y0128105D02*
X0073755Y0128105D01*
X0076117Y0128105D02*
X0076117Y0123931D01*
X0076432Y0123616D01*
X0076983Y0123065D01*
X0083774Y0108951D02*
X0084364Y0108951D01*
X0083774Y0108951D02*
X0083774Y0110723D01*
X0084364Y0110723D01*
X0084364Y0108951D01*
X0084364Y0109541D02*
X0083774Y0109541D01*
X0083774Y0110131D02*
X0084364Y0110131D01*
X0084364Y0110721D02*
X0083774Y0110721D01*
X0084069Y0109837D02*
X0084069Y0109758D01*
X0084364Y0103439D02*
X0083774Y0103439D01*
X0083774Y0105211D01*
X0084364Y0105211D01*
X0084364Y0103439D01*
X0084364Y0104029D02*
X0083774Y0104029D01*
X0083774Y0104619D02*
X0084364Y0104619D01*
X0084364Y0105209D02*
X0083774Y0105209D01*
X0084069Y0104325D02*
X0084109Y0104089D01*
X0084069Y0103892D01*
X0081314Y0102672D02*
X0081085Y0102661D01*
X0080487Y0102632D01*
X0080703Y0096786D02*
X0080684Y0095979D01*
X0080605Y0096294D01*
X0082610Y0093259D02*
X0082219Y0092868D01*
X0082610Y0093259D02*
X0082928Y0093262D01*
X0080408Y0092120D02*
X0080684Y0091569D01*
X0080408Y0092120D02*
X0080251Y0092278D01*
X0078321Y0091569D02*
X0077810Y0091963D01*
X0076865Y0092908D01*
X0076710Y0093062D01*
X0076710Y0097517D01*
X0075904Y0094876D02*
X0075684Y0094916D01*
X0073715Y0094916D01*
X0074660Y0094876D01*
X0074699Y0094916D01*
X0075684Y0092947D02*
X0076865Y0092908D01*
X0071747Y0096884D02*
X0071471Y0097160D01*
X0068715Y0097160D01*
X0068715Y0094798D02*
X0069739Y0093774D01*
X0070054Y0093774D01*
X0085033Y0088327D02*
X0085033Y0088062D01*
X0085132Y0087790D01*
X0101314Y0155585D02*
X0101077Y0155742D01*
X0101314Y0155585D02*
X0101471Y0155742D01*
D37*
X0101471Y0155742D03*
X0101471Y0154168D03*
X0099896Y0154168D03*
X0099896Y0155742D03*
X0098321Y0155742D03*
X0096747Y0155742D03*
X0096747Y0154168D03*
X0098321Y0154168D03*
X0098321Y0152593D03*
X0096747Y0152593D03*
X0096747Y0151018D03*
X0098321Y0151018D03*
X0098321Y0149443D03*
X0096747Y0149443D03*
X0096747Y0147868D03*
X0096747Y0146294D03*
X0098321Y0146294D03*
X0098321Y0147868D03*
X0099896Y0147868D03*
X0099896Y0146294D03*
X0101471Y0146294D03*
X0101471Y0147868D03*
X0101471Y0149443D03*
X0099896Y0149443D03*
X0099896Y0151018D03*
X0099896Y0152593D03*
X0101471Y0152593D03*
X0101471Y0151018D03*
X0101471Y0144719D03*
X0099896Y0144719D03*
X0098321Y0144719D03*
X0096747Y0144719D03*
X0096747Y0143144D03*
X0098321Y0143144D03*
X0099896Y0143144D03*
X0101471Y0143144D03*
X0095172Y0143144D03*
X0095172Y0144719D03*
X0095172Y0146294D03*
X0095172Y0147868D03*
X0093597Y0147868D03*
X0093597Y0146294D03*
X0092022Y0146294D03*
X0092022Y0147868D03*
X0090447Y0147868D03*
X0088873Y0147868D03*
X0088873Y0146294D03*
X0090447Y0146294D03*
X0090447Y0144719D03*
X0088873Y0144719D03*
X0088873Y0143144D03*
X0090447Y0143144D03*
X0092022Y0143144D03*
X0092022Y0144719D03*
X0093597Y0144719D03*
X0093597Y0143144D03*
X0093597Y0149443D03*
X0092022Y0149443D03*
X0090447Y0149443D03*
X0088873Y0149443D03*
X0088873Y0151018D03*
X0090447Y0151018D03*
X0090447Y0152593D03*
X0088873Y0152593D03*
X0088873Y0154168D03*
X0088873Y0155742D03*
X0090447Y0155742D03*
X0090447Y0154168D03*
X0092022Y0154168D03*
X0092022Y0155742D03*
X0093597Y0155742D03*
X0093597Y0154168D03*
X0095172Y0154168D03*
X0095172Y0155742D03*
X0095172Y0152593D03*
X0093597Y0152593D03*
X0092022Y0152593D03*
X0092022Y0151018D03*
X0093597Y0151018D03*
X0095172Y0151018D03*
X0095172Y0149443D03*
D38*
X0093440Y0138853D03*
X0088440Y0138853D03*
X0083440Y0138853D03*
X0098440Y0138853D03*
X0103440Y0138853D03*
X0108440Y0138853D03*
X0113440Y0138853D03*
X0066038Y0096924D03*
X0059424Y0105427D03*
D39*
X0123827Y0112648D03*
X0124896Y0116569D03*
D40*
X0111392Y0131490D03*
X0109818Y0131490D03*
X0109818Y0133065D03*
X0111392Y0133065D03*
X0108243Y0133065D03*
X0108243Y0131490D03*
D41*
G36*
X0124829Y0159117D02*
X0123437Y0160509D01*
X0125385Y0162457D01*
X0126777Y0161065D01*
X0124829Y0159117D01*
G37*
G36*
X0054396Y0157447D02*
X0053004Y0156055D01*
X0051056Y0158003D01*
X0052448Y0159395D01*
X0054396Y0157447D01*
G37*
X0092613Y0071884D03*
D42*
G36*
X0054256Y0148955D02*
X0050081Y0153130D01*
X0051752Y0154801D01*
X0055927Y0150626D01*
X0054256Y0148955D01*
G37*
G36*
X0059824Y0154523D02*
X0055649Y0158698D01*
X0057320Y0160369D01*
X0061495Y0156194D01*
X0059824Y0154523D01*
G37*
G36*
X0116338Y0159257D02*
X0120513Y0163432D01*
X0122184Y0161761D01*
X0118009Y0157586D01*
X0116338Y0159257D01*
G37*
G36*
X0121905Y0153689D02*
X0126080Y0157864D01*
X0127751Y0156193D01*
X0123576Y0152018D01*
X0121905Y0153689D01*
G37*
D43*
G36*
X0119122Y0153411D02*
X0117731Y0154802D01*
X0119400Y0156471D01*
X0120791Y0155080D01*
X0119122Y0153411D01*
G37*
G36*
X0060102Y0151739D02*
X0058711Y0150348D01*
X0057042Y0152017D01*
X0058433Y0153408D01*
X0060102Y0151739D01*
G37*
X0092613Y0080152D03*
D44*
X0092219Y0067553D03*
X0087495Y0067553D03*
X0082770Y0067553D03*
X0097337Y0067553D03*
X0135129Y0156889D03*
X0131788Y0160230D03*
X0128447Y0163571D03*
X0124828Y0167190D03*
X0056623Y0167747D03*
X0053283Y0164406D03*
X0049942Y0161065D03*
X0046323Y0157446D03*
D45*
X0082770Y0124246D03*
X0087495Y0124246D03*
X0092219Y0124246D03*
X0097337Y0124246D03*
D46*
X0096550Y0076215D03*
X0088676Y0076215D03*
D47*
X0075099Y0090414D03*
X0073715Y0092947D03*
X0071747Y0092947D03*
X0074699Y0094916D03*
X0077652Y0096687D03*
X0078243Y0094522D03*
X0080251Y0092278D03*
X0082219Y0092868D03*
X0082346Y0090554D03*
X0081117Y0089640D03*
X0082377Y0088262D03*
X0079148Y0089994D03*
X0080605Y0096294D03*
X0080684Y0098420D03*
X0079699Y0100624D03*
X0082081Y0100665D03*
X0081904Y0102475D03*
X0084069Y0103892D03*
X0083361Y0106570D03*
X0084069Y0109719D03*
X0086825Y0109443D03*
X0086589Y0107081D03*
X0090251Y0106333D03*
X0092219Y0106333D03*
X0092219Y0108301D03*
X0092770Y0113853D03*
X0093006Y0115349D03*
X0090644Y0113853D03*
X0089227Y0113813D03*
X0086904Y0117632D03*
X0084778Y0117790D03*
X0083558Y0120624D03*
X0085959Y0120742D03*
X0085880Y0122750D03*
X0087888Y0121687D03*
X0089818Y0120309D03*
X0088518Y0119364D03*
X0092219Y0120309D03*
X0094581Y0118931D03*
X0095526Y0122120D03*
X0097731Y0121884D03*
X0097337Y0124050D03*
X0095487Y0124679D03*
X0097298Y0127396D03*
X0095526Y0127553D03*
X0096038Y0131097D03*
X0095329Y0132042D03*
X0095132Y0133065D03*
X0096156Y0132829D03*
X0096865Y0132002D03*
X0095369Y0134128D03*
X0094699Y0135316D03*
X0093951Y0133971D03*
X0094069Y0132829D03*
X0092810Y0133183D03*
X0089660Y0137199D03*
X0090447Y0138105D03*
X0091147Y0138959D03*
X0093597Y0140979D03*
X0093597Y0143144D03*
X0092022Y0143144D03*
X0090447Y0143144D03*
X0088873Y0143144D03*
X0088873Y0144719D03*
X0090447Y0144719D03*
X0090447Y0146294D03*
X0088873Y0146294D03*
X0088873Y0147868D03*
X0088873Y0149443D03*
X0090447Y0149443D03*
X0090447Y0151018D03*
X0089660Y0151809D03*
X0090447Y0152593D03*
X0090447Y0154168D03*
X0088873Y0154168D03*
X0088873Y0155742D03*
X0090447Y0155742D03*
X0092022Y0154168D03*
X0093597Y0154168D03*
X0093597Y0155742D03*
X0095172Y0155742D03*
X0095172Y0154168D03*
X0096747Y0154168D03*
X0096747Y0155742D03*
X0098321Y0155742D03*
X0098321Y0154168D03*
X0099896Y0154168D03*
X0101471Y0154168D03*
X0102495Y0153735D03*
X0101077Y0155742D03*
X0099896Y0152593D03*
X0099109Y0151805D03*
X0099896Y0151018D03*
X0101471Y0151018D03*
X0103406Y0149601D03*
X0105211Y0149325D03*
X0108006Y0146924D03*
X0107849Y0145506D03*
X0107388Y0142908D03*
X0108018Y0142120D03*
X0110795Y0138695D03*
X0111809Y0137964D03*
X0110566Y0136963D03*
X0110526Y0135742D03*
X0110526Y0134364D03*
X0113282Y0134601D03*
X0113440Y0133538D03*
X0114818Y0133223D03*
X0116156Y0133380D03*
X0116865Y0134443D03*
X0117258Y0135506D03*
X0118361Y0134994D03*
X0118951Y0135861D03*
X0118282Y0136530D03*
X0118715Y0137396D03*
X0119103Y0138374D03*
X0117786Y0138274D03*
X0116664Y0138301D03*
X0115621Y0138609D03*
X0115723Y0137711D03*
X0114778Y0138065D03*
X0113778Y0138211D03*
X0113873Y0137317D03*
X0113447Y0136372D03*
X0114589Y0135943D03*
X0114943Y0136888D03*
X0116077Y0136727D03*
X0117337Y0136766D03*
X0115841Y0135388D03*
X0114739Y0134719D03*
X0118046Y0133459D03*
X0119109Y0134050D03*
X0120054Y0134837D03*
X0120841Y0134089D03*
X0120132Y0133223D03*
X0121195Y0131766D03*
X0121983Y0132553D03*
X0122514Y0136845D03*
X0116066Y0141077D03*
X0115132Y0142160D03*
X0114802Y0139152D03*
X0113609Y0139353D03*
X0112606Y0148300D03*
X0113597Y0149325D03*
X0108755Y0149246D03*
X0106392Y0154522D03*
X0101471Y0147868D03*
X0101471Y0146294D03*
X0099896Y0146294D03*
X0099896Y0147868D03*
X0098321Y0147868D03*
X0097140Y0147475D03*
X0096747Y0146294D03*
X0098321Y0146294D03*
X0098321Y0144719D03*
X0096747Y0144719D03*
X0096747Y0143144D03*
X0098321Y0143144D03*
X0099896Y0143144D03*
X0099896Y0144719D03*
X0101471Y0144719D03*
X0101471Y0143144D03*
X0098321Y0149443D03*
X0096747Y0149443D03*
X0095172Y0149443D03*
X0095172Y0147868D03*
X0095172Y0146294D03*
X0094384Y0145506D03*
X0093597Y0144719D03*
X0092022Y0144719D03*
X0092022Y0146294D03*
X0093046Y0147317D03*
X0092022Y0147868D03*
X0092022Y0149443D03*
X0092022Y0151018D03*
X0092022Y0152593D03*
X0093597Y0151018D03*
X0093597Y0149443D03*
X0095172Y0151018D03*
X0095172Y0152593D03*
X0096747Y0152593D03*
X0094936Y0158616D03*
X0093282Y0158735D03*
X0091786Y0158656D03*
X0089424Y0158656D03*
X0087613Y0158695D03*
X0085251Y0155821D03*
X0083400Y0155388D03*
X0083160Y0152865D03*
X0081983Y0152790D03*
X0077573Y0156490D03*
X0072396Y0153692D03*
X0068400Y0149955D03*
X0067337Y0149443D03*
X0066676Y0142883D03*
X0066195Y0140742D03*
X0065487Y0140034D03*
X0065841Y0136490D03*
X0065880Y0135231D03*
X0065880Y0134168D03*
X0068479Y0135979D03*
X0069660Y0137435D03*
X0071156Y0135939D03*
X0070093Y0134837D03*
X0071156Y0133774D03*
X0071235Y0139325D03*
X0079266Y0146333D03*
X0082573Y0146333D03*
X0082652Y0142947D03*
X0080880Y0140152D03*
X0081392Y0139128D03*
X0085290Y0139246D03*
X0088085Y0136097D03*
X0091904Y0128026D03*
X0088400Y0127120D03*
X0088400Y0124483D03*
X0085684Y0127278D03*
X0082849Y0128105D03*
X0079306Y0127278D03*
X0079424Y0121294D03*
X0079463Y0118223D03*
X0082022Y0117750D03*
X0082967Y0114207D03*
X0077640Y0106694D03*
X0074069Y0103183D03*
X0074896Y0102475D03*
X0070570Y0102621D03*
X0069468Y0103763D03*
X0068523Y0104708D03*
X0067618Y0105613D03*
X0066751Y0106519D03*
X0065885Y0107385D03*
X0064936Y0108341D03*
X0064665Y0104038D03*
X0065334Y0103133D03*
X0066279Y0102464D03*
X0066251Y0097137D03*
X0072534Y0114950D03*
X0070947Y0115731D03*
X0069066Y0116410D03*
X0061707Y0116372D03*
X0058558Y0119364D03*
X0055296Y0115500D03*
X0059660Y0127357D03*
X0056904Y0133223D03*
X0058243Y0139601D03*
X0060060Y0142835D03*
X0061071Y0144598D03*
X0056957Y0148593D03*
X0055259Y0147898D03*
X0053700Y0148399D03*
X0054953Y0150208D03*
X0051612Y0150487D03*
X0052169Y0152992D03*
X0049246Y0152853D03*
X0047436Y0155219D03*
X0049107Y0156889D03*
X0053004Y0161900D03*
X0055927Y0165102D03*
X0057319Y0162914D03*
X0057458Y0158838D03*
X0059974Y0159309D03*
X0060778Y0160077D03*
X0064001Y0162040D03*
X0061913Y0164128D03*
X0066367Y0157836D03*
X0064557Y0155915D03*
X0062887Y0154523D03*
X0061077Y0152714D03*
X0058850Y0150487D03*
X0060242Y0155776D03*
X0062573Y0137475D03*
X0088873Y0151018D03*
X0095172Y0144719D03*
X0095172Y0143144D03*
X0100251Y0138223D03*
X0101117Y0137947D03*
X0102573Y0135664D03*
X0103440Y0132632D03*
X0104424Y0132396D03*
X0100447Y0132947D03*
X0099739Y0133616D03*
X0099069Y0134364D03*
X0098282Y0135349D03*
X0100408Y0127435D03*
X0100684Y0124837D03*
X0099542Y0123538D03*
X0100093Y0121687D03*
X0101274Y0122475D03*
X0101077Y0119128D03*
X0100919Y0117102D03*
X0102887Y0117102D03*
X0098518Y0119128D03*
X0098360Y0110606D03*
X0098360Y0108638D03*
X0098360Y0106669D03*
X0098360Y0104701D03*
X0098360Y0102732D03*
X0098360Y0100764D03*
X0094227Y0100939D03*
X0090999Y0098026D03*
X0094345Y0096412D03*
X0094030Y0093538D03*
X0092377Y0089443D03*
X0092022Y0087829D03*
X0093991Y0087829D03*
X0096353Y0087829D03*
X0097895Y0087873D03*
X0096077Y0081333D03*
X0097770Y0080624D03*
X0098518Y0079168D03*
X0096353Y0078774D03*
X0098518Y0076215D03*
X0096353Y0074837D03*
X0098518Y0072868D03*
X0098125Y0069916D03*
X0095762Y0069916D03*
X0089463Y0069128D03*
X0085132Y0068931D03*
X0085723Y0071490D03*
X0088479Y0074443D03*
X0086865Y0076018D03*
X0085723Y0075939D03*
X0088676Y0078577D03*
X0087692Y0081333D03*
X0085526Y0081530D03*
X0082888Y0081451D03*
X0086353Y0087435D03*
X0087692Y0087435D03*
X0089660Y0087829D03*
X0090251Y0081333D03*
X0093400Y0081333D03*
X0081589Y0076805D03*
X0081589Y0073853D03*
X0082928Y0096412D03*
X0097692Y0096530D03*
X0102887Y0098205D03*
X0103833Y0095861D03*
X0104856Y0098205D03*
X0108202Y0098992D03*
X0110761Y0098205D03*
X0112730Y0099386D03*
X0113946Y0100376D03*
X0115119Y0101609D03*
X0116273Y0102732D03*
X0117236Y0104722D03*
X0116217Y0107063D03*
X0115914Y0109164D03*
X0115504Y0111648D03*
X0122652Y0110467D03*
X0123908Y0111311D03*
X0122613Y0108380D03*
X0122692Y0106727D03*
X0123203Y0115979D03*
X0122613Y0117357D03*
X0113951Y0120546D03*
X0113125Y0121372D03*
X0109069Y0121884D03*
X0118400Y0128479D03*
X0124936Y0129207D03*
X0125218Y0147146D03*
X0123297Y0148955D03*
X0121905Y0150626D03*
X0120096Y0152435D03*
X0123158Y0153270D03*
X0126554Y0153601D03*
X0127361Y0152791D03*
X0126220Y0156054D03*
X0130257Y0156193D03*
X0132484Y0157585D03*
X0129283Y0160509D03*
X0124272Y0164406D03*
X0122601Y0166076D03*
X0120235Y0164267D03*
X0120374Y0161344D03*
X0117869Y0161900D03*
X0115781Y0159813D03*
X0115280Y0158254D03*
X0115976Y0156555D03*
X0117590Y0158560D03*
X0117869Y0154662D03*
X0129422Y0149512D03*
X0131510Y0151600D03*
X0107849Y0093695D03*
D48*
X0108098Y0093446D01*
X0108098Y0093223D01*
X0110132Y0093223D01*
X0110132Y0095585D02*
X0108098Y0095585D01*
X0108098Y0095651D01*
X0106824Y0096925D01*
X0106824Y0098205D01*
X0106824Y0100192D01*
X0106786Y0100231D01*
X0104608Y0095861D02*
X0104693Y0095775D01*
X0104608Y0095861D02*
X0103833Y0095861D01*
X0102377Y0095729D02*
X0100919Y0095729D01*
X0100919Y0095821D01*
X0100329Y0095861D01*
X0100919Y0095821D02*
X0100919Y0098205D01*
X0097924Y0096268D02*
X0097692Y0096501D01*
X0097692Y0096530D01*
X0094621Y0103538D02*
X0094581Y0103577D01*
X0093243Y0103577D01*
X0093243Y0105467D01*
X0094188Y0106333D01*
X0090880Y0103577D02*
X0089384Y0103577D01*
X0089345Y0103538D01*
X0083915Y0097984D02*
X0084692Y0097207D01*
X0084699Y0089916D01*
X0084692Y0088403D01*
X0085033Y0088062D01*
X0080684Y0093774D02*
X0081291Y0094595D01*
X0082681Y0094595D01*
X0082928Y0094837D01*
X0080684Y0095979D02*
X0080637Y0096539D01*
X0080684Y0096586D01*
X0080684Y0098420D01*
X0081119Y0097984D01*
X0082928Y0097987D01*
X0083915Y0097984D01*
X0080605Y0096924D02*
X0080637Y0096539D01*
X0078321Y0096018D02*
X0077652Y0096687D01*
X0078321Y0096018D02*
X0078321Y0095979D01*
X0076710Y0097517D02*
X0076710Y0099075D01*
X0076824Y0099188D01*
X0074687Y0099787D02*
X0077640Y0102739D01*
X0077640Y0104708D01*
X0081085Y0104491D02*
X0081085Y0102661D01*
X0080487Y0102632D02*
X0081747Y0102632D01*
X0081904Y0102475D01*
X0081085Y0104491D02*
X0081314Y0104719D01*
X0079699Y0100624D02*
X0080447Y0100270D01*
X0080487Y0100270D01*
X0074687Y0099787D02*
X0072719Y0099787D01*
X0070750Y0099787D01*
X0068782Y0099787D01*
X0066813Y0099787D01*
X0064845Y0099787D01*
X0064845Y0099837D02*
X0064778Y0100073D01*
X0061892Y0102739D02*
X0061892Y0104708D01*
X0061892Y0106676D01*
X0061892Y0108645D01*
X0061892Y0110613D01*
X0061892Y0112582D01*
X0064845Y0115535D01*
X0064794Y0115585D01*
X0063440Y0115585D01*
X0064845Y0115535D02*
X0066813Y0115535D01*
X0074778Y0115444D02*
X0074778Y0112673D01*
X0069766Y0107661D01*
X0077640Y0112582D02*
X0077640Y0114248D01*
X0078780Y0115388D01*
X0079121Y0115729D01*
X0080605Y0115729D01*
X0082967Y0115375D02*
X0082967Y0114207D01*
X0082967Y0115375D02*
X0082980Y0115388D01*
X0089227Y0113813D02*
X0089398Y0113249D01*
X0089936Y0113249D01*
X0089647Y0113249D01*
X0090644Y0113853D01*
X0092770Y0113853D02*
X0093125Y0113498D01*
X0093125Y0113183D01*
X0095487Y0113183D02*
X0095487Y0115388D01*
X0093151Y0117724D01*
X0092783Y0117724D01*
X0092508Y0117449D01*
X0089936Y0117449D01*
X0092442Y0117868D02*
X0092783Y0117724D01*
X0095487Y0115808D02*
X0095487Y0115388D01*
X0096642Y0117868D02*
X0097350Y0118065D01*
X0100618Y0114798D01*
X0109542Y0114798D01*
X0110723Y0115979D01*
X0110723Y0117064D01*
X0110761Y0117102D01*
X0110723Y0117102D01*
X0110723Y0115585D01*
X0110761Y0117102D02*
X0110761Y0119088D01*
X0111432Y0119758D01*
X0111432Y0121963D01*
X0111589Y0121963D01*
X0114188Y0124561D01*
X0114188Y0125441D01*
X0116379Y0127238D01*
X0116536Y0127632D01*
X0118125Y0125467D02*
X0120697Y0125467D01*
X0120736Y0125506D01*
X0121038Y0125323D01*
X0120736Y0125506D02*
X0120736Y0127632D01*
X0120014Y0130821D02*
X0118308Y0130335D01*
X0117849Y0130335D01*
X0114542Y0130335D02*
X0113991Y0130231D01*
X0114095Y0130335D01*
X0114542Y0130335D02*
X0112547Y0130335D01*
X0111392Y0131490D01*
X0111392Y0126845D01*
X0110999Y0126254D01*
X0108715Y0129128D02*
X0109818Y0130624D01*
X0109818Y0131490D01*
X0104975Y0130506D02*
X0104765Y0130099D01*
X0104109Y0132199D02*
X0103676Y0132199D01*
X0103518Y0132396D01*
X0104109Y0132199D02*
X0104424Y0132396D01*
X0104975Y0133892D02*
X0104122Y0135099D01*
X0104122Y0136175D01*
X0104122Y0136346D01*
X0105999Y0138223D01*
X0105999Y0139043D01*
X0107455Y0140500D01*
X0108440Y0138931D02*
X0109266Y0139286D01*
X0108440Y0138931D02*
X0108440Y0138853D01*
X0104122Y0136743D02*
X0104122Y0136175D01*
X0103453Y0136845D02*
X0101825Y0136845D01*
X0099975Y0136477D02*
X0099922Y0136175D01*
X0097416Y0133656D02*
X0096484Y0134942D01*
X0096484Y0136175D01*
X0094818Y0133656D02*
X0095959Y0132160D01*
X0096117Y0131963D01*
X0094818Y0133656D02*
X0092796Y0133735D01*
X0092284Y0134246D01*
X0092180Y0133669D01*
X0092284Y0134246D02*
X0092284Y0136175D01*
X0092180Y0129994D02*
X0092180Y0129469D01*
X0086904Y0130624D02*
X0086902Y0130690D01*
X0086897Y0130756D01*
X0086887Y0130822D01*
X0086874Y0130887D01*
X0086858Y0130951D01*
X0086838Y0131014D01*
X0086814Y0131076D01*
X0086787Y0131136D01*
X0086757Y0131195D01*
X0086723Y0131252D01*
X0086686Y0131307D01*
X0086646Y0131360D01*
X0086604Y0131411D01*
X0086558Y0131459D01*
X0086510Y0131505D01*
X0086459Y0131547D01*
X0086406Y0131587D01*
X0086351Y0131624D01*
X0086294Y0131658D01*
X0086235Y0131688D01*
X0086175Y0131715D01*
X0086113Y0131739D01*
X0086050Y0131759D01*
X0085986Y0131775D01*
X0085921Y0131788D01*
X0085855Y0131798D01*
X0085789Y0131803D01*
X0085723Y0131805D01*
X0084109Y0131805D01*
X0084410Y0134010D02*
X0082442Y0136057D01*
X0078636Y0135191D02*
X0076589Y0135191D01*
X0076589Y0136451D01*
X0075566Y0137475D01*
X0073912Y0137475D01*
X0073912Y0139443D02*
X0076809Y0139443D01*
X0077737Y0140371D01*
X0077737Y0142166D01*
X0078636Y0143065D01*
X0073755Y0143065D01*
X0071799Y0145020D01*
X0071510Y0145060D01*
X0071507Y0143141D02*
X0070549Y0143141D01*
X0069742Y0143948D01*
X0071507Y0143141D02*
X0073236Y0141412D01*
X0073912Y0141412D01*
X0074778Y0141412D01*
X0069742Y0146099D02*
X0069742Y0147491D01*
X0071510Y0149260D01*
X0071629Y0151786D01*
X0071609Y0151805D01*
X0069050Y0151805D02*
X0068171Y0151805D01*
X0066417Y0150522D01*
X0065298Y0149403D01*
X0065298Y0148822D01*
X0065959Y0148161D01*
X0065959Y0145349D01*
X0065093Y0145349D01*
X0064818Y0145073D01*
X0065959Y0145349D02*
X0067967Y0145349D01*
X0067967Y0144981D01*
X0067967Y0143123D01*
X0067928Y0143084D01*
X0067967Y0144981D02*
X0067075Y0145296D01*
X0067351Y0145296D02*
X0067967Y0144981D01*
X0067967Y0149181D02*
X0068400Y0149181D01*
X0068400Y0149955D01*
X0077573Y0156490D02*
X0080584Y0157475D01*
X0080723Y0157475D01*
X0083085Y0157475D02*
X0083400Y0157160D01*
X0083400Y0155388D01*
X0081983Y0154758D02*
X0081983Y0152790D01*
X0079547Y0146333D02*
X0079266Y0146333D01*
X0079547Y0146333D02*
X0079916Y0145964D01*
X0074818Y0135506D02*
X0073912Y0135506D01*
X0074818Y0135506D02*
X0074857Y0134876D01*
X0073912Y0133538D02*
X0073518Y0133538D01*
X0071943Y0131963D01*
X0061274Y0131963D01*
X0060408Y0131097D01*
X0059660Y0127357D02*
X0060684Y0126504D01*
X0058636Y0120388D02*
X0058558Y0119364D01*
X0066353Y0130703D02*
X0070054Y0130703D01*
X0070054Y0128892D01*
X0058046Y0136057D02*
X0057967Y0135979D01*
X0056825Y0135979D01*
X0057238Y0162849D02*
X0057238Y0164155D01*
X0058544Y0164155D01*
X0057319Y0164155D01*
X0057319Y0162914D01*
X0105251Y0153695D02*
X0106392Y0153616D01*
X0106392Y0154522D01*
X0106983Y0153853D01*
X0108755Y0149246D02*
X0108755Y0147278D01*
X0106786Y0147278D02*
X0106786Y0146569D01*
X0107849Y0145506D01*
X0107940Y0145416D01*
X0107940Y0144246D01*
X0114660Y0140979D02*
X0116235Y0139404D01*
X0121904Y0139404D01*
X0122928Y0138380D01*
X0124883Y0134483D01*
X0124883Y0131149D01*
X0125880Y0130152D01*
X0125487Y0130152D01*
X0123886Y0131753D01*
X0123347Y0131215D01*
X0122613Y0130821D01*
X0123676Y0133498D02*
X0123676Y0133538D01*
X0122613Y0134207D01*
X0122274Y0134877D01*
X0121130Y0136020D01*
X0121130Y0136963D01*
X0118125Y0125467D02*
X0116510Y0123853D01*
X0116510Y0123341D01*
X0116510Y0123406D01*
X0116510Y0123341D02*
X0116510Y0120939D01*
X0116510Y0120152D01*
X0115684Y0119325D01*
X0113517Y0119325D01*
X0112730Y0118538D01*
X0112730Y0117102D01*
X0113951Y0120546D02*
X0114188Y0120782D01*
X0114188Y0121241D01*
X0113256Y0121241D01*
X0113125Y0121372D01*
X0118873Y0123341D02*
X0119188Y0123656D01*
X0121038Y0121123D02*
X0122928Y0119233D01*
X0122928Y0118695D01*
X0117193Y0112638D02*
X0115094Y0112638D01*
X0115088Y0112632D01*
X0112495Y0112632D01*
X0112101Y0112238D01*
X0112101Y0109286D01*
X0113421Y0110606D01*
X0117257Y0110606D01*
X0117257Y0112575D02*
X0117193Y0112638D01*
X0104856Y0116903D02*
X0104856Y0117102D01*
X0126805Y0148566D02*
X0126499Y0149095D01*
X0125970Y0149401D02*
X0126805Y0148566D01*
X0130563Y0155943D02*
X0130257Y0156193D01*
X0083951Y0079325D02*
X0082770Y0079325D01*
X0083361Y0079168D01*
X0085329Y0071451D02*
X0085723Y0071490D01*
D49*
X0076824Y0099188D03*
X0074227Y0104955D03*
X0072888Y0106136D03*
X0071668Y0107435D03*
X0070408Y0108656D03*
X0069109Y0109994D03*
X0067810Y0111215D03*
X0066747Y0112435D03*
X0056747Y0129286D03*
X0060447Y0130861D03*
X0056825Y0135979D03*
X0057534Y0138105D03*
X0066353Y0130703D03*
X0074857Y0134876D03*
X0081786Y0129011D03*
X0084109Y0131805D03*
X0096432Y0136648D03*
X0101825Y0136845D03*
X0109266Y0139286D03*
X0113361Y0142750D03*
X0114660Y0140979D03*
X0116353Y0146924D03*
X0105255Y0147947D03*
X0123676Y0133498D03*
X0122928Y0118695D03*
X0110723Y0115585D03*
X0104856Y0116903D03*
X0095487Y0115388D03*
X0106786Y0100231D03*
X0080605Y0115729D03*
X0067928Y0143084D03*
D50*
X0063628Y0147151D02*
X0062412Y0145935D01*
X0062412Y0145229D01*
X0062455Y0145073D01*
X0062264Y0144882D01*
X0062264Y0141523D01*
X0062258Y0141412D01*
X0062888Y0141412D01*
X0060054Y0141412D01*
X0059896Y0141254D01*
X0060447Y0139443D02*
X0062888Y0139443D01*
X0062888Y0137475D02*
X0062573Y0137475D01*
X0062888Y0137475D02*
X0062888Y0135506D01*
X0060959Y0135506D01*
X0060408Y0136057D01*
X0060408Y0135506D01*
X0060408Y0133538D02*
X0060408Y0133459D01*
X0058046Y0131097D01*
X0058046Y0133459D02*
X0057140Y0133459D01*
X0056904Y0133223D01*
X0060408Y0133538D02*
X0062888Y0133538D01*
X0060447Y0131097D02*
X0060447Y0130861D01*
X0060447Y0131097D02*
X0060408Y0131097D01*
X0059896Y0138892D02*
X0060447Y0139443D01*
X0056215Y0147100D02*
X0053969Y0147100D01*
X0045433Y0155637D01*
X0048499Y0158703D01*
X0051455Y0155747D01*
X0051701Y0154761D01*
X0051701Y0154665D01*
X0051733Y0154633D01*
X0051744Y0154590D01*
X0051826Y0154540D01*
X0055513Y0150854D01*
X0055785Y0150854D01*
X0055859Y0150927D01*
X0055972Y0150815D01*
X0056161Y0150815D01*
X0059914Y0154568D01*
X0059914Y0154757D01*
X0055777Y0158894D01*
X0061698Y0164815D01*
X0064797Y0161716D01*
X0060978Y0157897D01*
X0060978Y0157607D01*
X0063132Y0155454D01*
X0063422Y0155454D01*
X0066691Y0158723D01*
X0066691Y0157576D01*
X0063731Y0154616D01*
X0063578Y0154463D01*
X0063351Y0154236D01*
X0063343Y0154228D01*
X0063270Y0153954D01*
X0063069Y0153954D01*
X0062342Y0153227D01*
X0062342Y0152562D01*
X0061677Y0152562D01*
X0060950Y0151836D01*
X0060950Y0151170D01*
X0060285Y0151170D01*
X0059559Y0150444D01*
X0059559Y0150243D01*
X0059284Y0150170D01*
X0059087Y0149972D01*
X0059087Y0149972D01*
X0058896Y0149781D01*
X0056215Y0147100D01*
X0056360Y0147245D02*
X0053825Y0147245D01*
X0053526Y0147543D02*
X0056658Y0147543D01*
X0056957Y0147842D02*
X0053228Y0147842D01*
X0052929Y0148140D02*
X0057255Y0148140D01*
X0057554Y0148439D02*
X0052631Y0148439D01*
X0052332Y0148737D02*
X0057852Y0148737D01*
X0058151Y0149036D02*
X0052034Y0149036D01*
X0051735Y0149334D02*
X0058449Y0149334D01*
X0058748Y0149633D02*
X0051436Y0149633D01*
X0051138Y0149931D02*
X0059046Y0149931D01*
X0058896Y0149781D02*
X0058896Y0149781D01*
X0059284Y0150170D02*
X0059284Y0150170D01*
X0059509Y0150230D02*
X0050839Y0150230D01*
X0050541Y0150528D02*
X0059643Y0150528D01*
X0059942Y0150827D02*
X0056173Y0150827D01*
X0055959Y0150827D02*
X0050242Y0150827D01*
X0049944Y0151125D02*
X0055241Y0151125D01*
X0054943Y0151424D02*
X0049645Y0151424D01*
X0049347Y0151722D02*
X0054644Y0151722D01*
X0054346Y0152021D02*
X0049048Y0152021D01*
X0048750Y0152319D02*
X0054047Y0152319D01*
X0053749Y0152618D02*
X0048451Y0152618D01*
X0048153Y0152916D02*
X0053450Y0152916D01*
X0053152Y0153215D02*
X0047854Y0153215D01*
X0047556Y0153513D02*
X0052853Y0153513D01*
X0052555Y0153812D02*
X0047257Y0153812D01*
X0046959Y0154110D02*
X0052256Y0154110D01*
X0051958Y0154409D02*
X0046660Y0154409D01*
X0046362Y0154707D02*
X0051701Y0154707D01*
X0051640Y0155006D02*
X0046063Y0155006D01*
X0045765Y0155304D02*
X0051565Y0155304D01*
X0051491Y0155603D02*
X0045466Y0155603D01*
X0045697Y0155902D02*
X0051300Y0155902D01*
X0051002Y0156200D02*
X0045996Y0156200D01*
X0046294Y0156499D02*
X0050703Y0156499D01*
X0050405Y0156797D02*
X0046593Y0156797D01*
X0046891Y0157096D02*
X0050106Y0157096D01*
X0049808Y0157394D02*
X0047190Y0157394D01*
X0047488Y0157693D02*
X0049509Y0157693D01*
X0049211Y0157991D02*
X0047787Y0157991D01*
X0048085Y0158290D02*
X0048912Y0158290D01*
X0048614Y0158588D02*
X0048384Y0158588D01*
X0051887Y0162091D02*
X0052852Y0161125D01*
X0059120Y0167393D01*
X0058450Y0168063D01*
X0058450Y0166990D01*
X0057380Y0165920D01*
X0055867Y0165920D01*
X0055791Y0165996D01*
X0051887Y0162091D01*
X0051966Y0162170D02*
X0053897Y0162170D01*
X0053599Y0161872D02*
X0052106Y0161872D01*
X0052404Y0161573D02*
X0053300Y0161573D01*
X0053001Y0161275D02*
X0052703Y0161275D01*
X0052265Y0162469D02*
X0054196Y0162469D01*
X0054494Y0162767D02*
X0052563Y0162767D01*
X0052862Y0163066D02*
X0054793Y0163066D01*
X0055091Y0163364D02*
X0053160Y0163364D01*
X0053459Y0163663D02*
X0055390Y0163663D01*
X0055688Y0163961D02*
X0053757Y0163961D01*
X0054056Y0164260D02*
X0055987Y0164260D01*
X0056285Y0164558D02*
X0054354Y0164558D01*
X0054653Y0164857D02*
X0056584Y0164857D01*
X0056882Y0165155D02*
X0054951Y0165155D01*
X0055250Y0165454D02*
X0057181Y0165454D01*
X0057479Y0165752D02*
X0055548Y0165752D01*
X0057510Y0166051D02*
X0057778Y0166051D01*
X0057809Y0166349D02*
X0058076Y0166349D01*
X0058107Y0166648D02*
X0058375Y0166648D01*
X0058406Y0166946D02*
X0058673Y0166946D01*
X0058450Y0167245D02*
X0058972Y0167245D01*
X0058969Y0167543D02*
X0058450Y0167543D01*
X0058450Y0167842D02*
X0058671Y0167842D01*
X0061442Y0164558D02*
X0061955Y0164558D01*
X0062253Y0164260D02*
X0061143Y0164260D01*
X0060845Y0163961D02*
X0062552Y0163961D01*
X0062850Y0163663D02*
X0060546Y0163663D01*
X0060248Y0163364D02*
X0063149Y0163364D01*
X0063447Y0163066D02*
X0059949Y0163066D01*
X0059651Y0162767D02*
X0063746Y0162767D01*
X0064044Y0162469D02*
X0059352Y0162469D01*
X0059054Y0162170D02*
X0064343Y0162170D01*
X0064641Y0161872D02*
X0058755Y0161872D01*
X0058457Y0161573D02*
X0064654Y0161573D01*
X0064355Y0161275D02*
X0058158Y0161275D01*
X0057860Y0160976D02*
X0064057Y0160976D01*
X0063758Y0160678D02*
X0057561Y0160678D01*
X0057263Y0160379D02*
X0063460Y0160379D01*
X0063161Y0160081D02*
X0056964Y0160081D01*
X0056666Y0159782D02*
X0062863Y0159782D01*
X0062564Y0159484D02*
X0056367Y0159484D01*
X0056069Y0159185D02*
X0062266Y0159185D01*
X0061967Y0158887D02*
X0055785Y0158887D01*
X0056083Y0158588D02*
X0061669Y0158588D01*
X0061370Y0158290D02*
X0056382Y0158290D01*
X0056680Y0157991D02*
X0061072Y0157991D01*
X0060978Y0157693D02*
X0056979Y0157693D01*
X0057277Y0157394D02*
X0061191Y0157394D01*
X0061490Y0157096D02*
X0057576Y0157096D01*
X0057874Y0156797D02*
X0061788Y0156797D01*
X0062087Y0156499D02*
X0058173Y0156499D01*
X0058471Y0156200D02*
X0062385Y0156200D01*
X0062684Y0155902D02*
X0058770Y0155902D01*
X0059068Y0155603D02*
X0062982Y0155603D01*
X0063571Y0155603D02*
X0064718Y0155603D01*
X0065016Y0155902D02*
X0063869Y0155902D01*
X0064168Y0156200D02*
X0065315Y0156200D01*
X0065613Y0156499D02*
X0064466Y0156499D01*
X0064765Y0156797D02*
X0065912Y0156797D01*
X0066210Y0157096D02*
X0065063Y0157096D01*
X0065362Y0157394D02*
X0066509Y0157394D01*
X0066691Y0157693D02*
X0065661Y0157693D01*
X0065959Y0157991D02*
X0066691Y0157991D01*
X0066691Y0158290D02*
X0066258Y0158290D01*
X0066556Y0158588D02*
X0066691Y0158588D01*
X0064419Y0155304D02*
X0059367Y0155304D01*
X0059665Y0155006D02*
X0064121Y0155006D01*
X0063822Y0154707D02*
X0059914Y0154707D01*
X0059756Y0154409D02*
X0063524Y0154409D01*
X0063343Y0154228D02*
X0063343Y0154228D01*
X0063312Y0154110D02*
X0059457Y0154110D01*
X0059159Y0153812D02*
X0062927Y0153812D01*
X0062628Y0153513D02*
X0058860Y0153513D01*
X0058562Y0153215D02*
X0062342Y0153215D01*
X0062342Y0152916D02*
X0058263Y0152916D01*
X0057965Y0152618D02*
X0062342Y0152618D01*
X0061434Y0152319D02*
X0057666Y0152319D01*
X0057367Y0152021D02*
X0061136Y0152021D01*
X0060950Y0151722D02*
X0057069Y0151722D01*
X0056770Y0151424D02*
X0060950Y0151424D01*
X0060240Y0151125D02*
X0056472Y0151125D01*
X0069188Y0138262D02*
X0068400Y0137475D01*
X0068479Y0135979D01*
X0068558Y0131025D02*
X0072332Y0131025D01*
X0072881Y0131575D01*
X0073808Y0132502D01*
X0075515Y0132502D01*
X0075834Y0132820D01*
X0075834Y0133183D01*
X0076353Y0133183D01*
X0076353Y0137081D01*
X0084857Y0137081D01*
X0084857Y0132743D01*
X0084771Y0132743D01*
X0084666Y0132849D01*
X0084640Y0132849D01*
X0084625Y0132869D01*
X0084588Y0132875D01*
X0084562Y0132900D01*
X0084452Y0132900D01*
X0084316Y0132970D01*
X0084292Y0132962D01*
X0084271Y0132977D01*
X0084109Y0132951D01*
X0083946Y0132977D01*
X0083926Y0132962D01*
X0083902Y0132970D01*
X0083766Y0132900D01*
X0083655Y0132900D01*
X0083630Y0132875D01*
X0083592Y0132869D01*
X0083577Y0132849D01*
X0083552Y0132849D01*
X0083436Y0132732D01*
X0083289Y0132657D01*
X0083281Y0132633D01*
X0083257Y0132625D01*
X0083182Y0132479D01*
X0083066Y0132362D01*
X0083066Y0132337D01*
X0083045Y0132322D01*
X0083039Y0132284D01*
X0083014Y0132259D01*
X0083014Y0132149D01*
X0082945Y0132013D01*
X0082953Y0131989D01*
X0082938Y0131968D01*
X0082963Y0131805D01*
X0082938Y0131643D01*
X0082953Y0131622D01*
X0082945Y0131598D01*
X0083014Y0131462D01*
X0083014Y0131352D01*
X0083039Y0131327D01*
X0083045Y0131289D01*
X0083066Y0131274D01*
X0083066Y0131249D01*
X0083182Y0131132D01*
X0083257Y0130985D01*
X0083281Y0130978D01*
X0083289Y0130954D01*
X0083436Y0130879D01*
X0083552Y0130762D01*
X0083577Y0130762D01*
X0083592Y0130742D01*
X0083630Y0130736D01*
X0083655Y0130711D01*
X0083766Y0130711D01*
X0083902Y0130641D01*
X0083926Y0130649D01*
X0083946Y0130634D01*
X0084109Y0130660D01*
X0084271Y0130634D01*
X0084292Y0130649D01*
X0084316Y0130641D01*
X0084452Y0130711D01*
X0084562Y0130711D01*
X0084588Y0130736D01*
X0084625Y0130742D01*
X0084640Y0130762D01*
X0084666Y0130762D01*
X0084771Y0130868D01*
X0084857Y0130868D01*
X0084857Y0129074D01*
X0078349Y0129074D01*
X0078207Y0128931D01*
X0078085Y0128931D01*
X0078085Y0129050D01*
X0077251Y0129050D01*
X0077251Y0129117D01*
X0076932Y0129436D01*
X0075301Y0129436D01*
X0074982Y0129117D01*
X0074982Y0129050D01*
X0074889Y0129050D01*
X0074889Y0129117D01*
X0074570Y0129436D01*
X0072939Y0129436D01*
X0072620Y0129117D01*
X0072620Y0129050D01*
X0071589Y0129050D01*
X0071589Y0127606D01*
X0071142Y0127160D01*
X0068775Y0127160D01*
X0068665Y0127270D01*
X0068558Y0127270D01*
X0068558Y0131025D01*
X0068558Y0130827D02*
X0083488Y0130827D01*
X0083186Y0131125D02*
X0072431Y0131125D01*
X0072730Y0131424D02*
X0083014Y0131424D01*
X0082950Y0131722D02*
X0073028Y0131722D01*
X0073327Y0132021D02*
X0082949Y0132021D01*
X0083045Y0132319D02*
X0073625Y0132319D01*
X0075631Y0132618D02*
X0083253Y0132618D01*
X0083797Y0132916D02*
X0075834Y0132916D01*
X0076353Y0133215D02*
X0084857Y0133215D01*
X0084857Y0133513D02*
X0076353Y0133513D01*
X0076353Y0133812D02*
X0084857Y0133812D01*
X0084857Y0134110D02*
X0076353Y0134110D01*
X0076353Y0134409D02*
X0084857Y0134409D01*
X0084857Y0134707D02*
X0076353Y0134707D01*
X0076353Y0135006D02*
X0084857Y0135006D01*
X0084857Y0135304D02*
X0076353Y0135304D01*
X0076353Y0135603D02*
X0084857Y0135603D01*
X0084857Y0135901D02*
X0076353Y0135901D01*
X0076353Y0136200D02*
X0084857Y0136200D01*
X0084857Y0136498D02*
X0076353Y0136498D01*
X0076353Y0136797D02*
X0084857Y0136797D01*
X0085551Y0136797D02*
X0095153Y0136797D01*
X0095153Y0137095D02*
X0085551Y0137095D01*
X0085551Y0137368D02*
X0085144Y0137775D01*
X0085132Y0137775D01*
X0085132Y0138106D01*
X0085164Y0138138D01*
X0085164Y0138406D01*
X0085638Y0138406D01*
X0086130Y0138898D01*
X0086130Y0139286D01*
X0086715Y0139286D01*
X0086715Y0138138D01*
X0087725Y0137128D01*
X0089154Y0137128D01*
X0090164Y0138138D01*
X0090164Y0138973D01*
X0090194Y0138944D01*
X0090170Y0138808D01*
X0090184Y0138789D01*
X0090178Y0138766D01*
X0090254Y0138634D01*
X0090281Y0138483D01*
X0090300Y0138470D01*
X0090302Y0138446D01*
X0090419Y0138348D01*
X0090496Y0138215D01*
X0090518Y0138209D01*
X0090528Y0138188D01*
X0090672Y0138136D01*
X0090789Y0138037D01*
X0090813Y0138039D01*
X0090829Y0138023D01*
X0090982Y0138023D01*
X0091126Y0137971D01*
X0091147Y0137980D01*
X0091169Y0137971D01*
X0091312Y0138023D01*
X0091466Y0138023D01*
X0091482Y0138039D01*
X0091505Y0138037D01*
X0091623Y0138136D01*
X0091715Y0138169D01*
X0091715Y0138138D01*
X0092725Y0137128D01*
X0094154Y0137128D01*
X0095164Y0138138D01*
X0095164Y0139286D01*
X0096715Y0139286D01*
X0096715Y0138138D01*
X0096953Y0137900D01*
X0095472Y0137900D01*
X0095153Y0137582D01*
X0095153Y0134769D01*
X0095472Y0134451D01*
X0095650Y0134451D01*
X0095769Y0134331D01*
X0096241Y0133680D01*
X0096241Y0133330D01*
X0096618Y0132953D01*
X0097151Y0132420D01*
X0090762Y0132420D01*
X0090762Y0133538D01*
X0090716Y0133585D01*
X0090716Y0133771D01*
X0090051Y0134436D01*
X0089342Y0135144D01*
X0085551Y0135144D01*
X0085551Y0137368D01*
X0085525Y0137394D02*
X0087459Y0137394D01*
X0087161Y0137692D02*
X0085227Y0137692D01*
X0085132Y0137991D02*
X0086862Y0137991D01*
X0086715Y0138289D02*
X0085164Y0138289D01*
X0085820Y0138588D02*
X0086715Y0138588D01*
X0086715Y0138886D02*
X0086119Y0138886D01*
X0086130Y0139185D02*
X0086715Y0139185D01*
X0085551Y0136498D02*
X0095153Y0136498D01*
X0095153Y0136200D02*
X0085551Y0136200D01*
X0085551Y0135901D02*
X0095153Y0135901D01*
X0095153Y0135603D02*
X0085551Y0135603D01*
X0085551Y0135304D02*
X0095153Y0135304D01*
X0095153Y0135006D02*
X0089481Y0135006D01*
X0089780Y0134707D02*
X0095215Y0134707D01*
X0095692Y0134409D02*
X0090078Y0134409D01*
X0090377Y0134110D02*
X0095929Y0134110D01*
X0096145Y0133812D02*
X0090675Y0133812D01*
X0090762Y0133513D02*
X0096241Y0133513D01*
X0096356Y0133215D02*
X0090762Y0133215D01*
X0090762Y0132916D02*
X0096655Y0132916D01*
X0096953Y0132618D02*
X0090762Y0132618D01*
X0088826Y0131727D02*
X0088826Y0129074D01*
X0101238Y0129074D01*
X0101521Y0129357D01*
X0104728Y0129357D01*
X0105046Y0129038D01*
X0105046Y0128931D01*
X0106038Y0128931D01*
X0108636Y0131333D01*
X0108636Y0132514D01*
X0108951Y0133301D01*
X0108951Y0137632D01*
X0106734Y0137632D01*
X0105802Y0136700D01*
X0105802Y0135275D01*
X0106111Y0134966D01*
X0106111Y0132818D01*
X0105826Y0132534D01*
X0105895Y0132466D01*
X0105895Y0131932D01*
X0105802Y0131840D01*
X0105802Y0131727D01*
X0105689Y0131727D01*
X0105518Y0131555D01*
X0104319Y0130357D01*
X0103942Y0129980D01*
X0103409Y0129980D01*
X0101834Y0131555D01*
X0101663Y0131727D01*
X0098336Y0131727D01*
X0098336Y0131696D01*
X0097959Y0131319D01*
X0097959Y0131319D01*
X0096760Y0130121D01*
X0096383Y0129744D01*
X0095850Y0129744D01*
X0094275Y0131319D01*
X0093898Y0131696D01*
X0093898Y0131727D01*
X0088826Y0131727D01*
X0088826Y0131722D02*
X0093898Y0131722D01*
X0094170Y0131424D02*
X0088826Y0131424D01*
X0088826Y0131125D02*
X0094469Y0131125D01*
X0094767Y0130827D02*
X0088826Y0130827D01*
X0088826Y0130528D02*
X0095066Y0130528D01*
X0095364Y0130230D02*
X0088826Y0130230D01*
X0088826Y0129931D02*
X0095663Y0129931D01*
X0096570Y0129931D02*
X0107120Y0129931D01*
X0107443Y0130230D02*
X0104192Y0130230D01*
X0104490Y0130528D02*
X0107766Y0130528D01*
X0108088Y0130827D02*
X0104789Y0130827D01*
X0105087Y0131125D02*
X0108411Y0131125D01*
X0108636Y0131424D02*
X0105386Y0131424D01*
X0105684Y0131722D02*
X0108636Y0131722D01*
X0108636Y0132021D02*
X0105895Y0132021D01*
X0105895Y0132319D02*
X0108636Y0132319D01*
X0108678Y0132618D02*
X0105910Y0132618D01*
X0106111Y0132916D02*
X0108797Y0132916D01*
X0108917Y0133215D02*
X0106111Y0133215D01*
X0106111Y0133513D02*
X0108951Y0133513D01*
X0108951Y0133812D02*
X0106111Y0133812D01*
X0106111Y0134110D02*
X0108951Y0134110D01*
X0108951Y0134409D02*
X0106111Y0134409D01*
X0106111Y0134707D02*
X0108951Y0134707D01*
X0108951Y0135006D02*
X0106071Y0135006D01*
X0105802Y0135304D02*
X0108951Y0135304D01*
X0108951Y0135603D02*
X0105802Y0135603D01*
X0105802Y0135901D02*
X0108951Y0135901D01*
X0108951Y0136200D02*
X0105802Y0136200D01*
X0105802Y0136498D02*
X0108951Y0136498D01*
X0108951Y0136797D02*
X0105898Y0136797D01*
X0106197Y0137095D02*
X0108951Y0137095D01*
X0108951Y0137394D02*
X0106495Y0137394D01*
X0108440Y0138853D02*
X0109007Y0139420D01*
X0110392Y0139569D02*
X0112484Y0139569D01*
X0112802Y0139887D01*
X0112802Y0139994D01*
X0114044Y0139994D01*
X0114103Y0139936D01*
X0114129Y0139936D01*
X0114143Y0139915D01*
X0114181Y0139909D01*
X0114207Y0139884D01*
X0114317Y0139884D01*
X0114453Y0139815D01*
X0114477Y0139822D01*
X0114497Y0139807D01*
X0114504Y0139809D01*
X0115297Y0139016D01*
X0115847Y0138466D01*
X0118262Y0138466D01*
X0118262Y0138026D01*
X0118754Y0137533D01*
X0119451Y0137533D01*
X0119799Y0137882D01*
X0119799Y0135557D01*
X0120117Y0135238D01*
X0120587Y0135238D01*
X0120742Y0135083D01*
X0121438Y0134387D01*
X0121438Y0133881D01*
X0121815Y0133504D01*
X0122505Y0132814D01*
X0116144Y0132814D01*
X0116038Y0132708D01*
X0115932Y0132814D01*
X0113152Y0132814D01*
X0112746Y0132408D01*
X0112746Y0131727D01*
X0112495Y0131727D01*
X0112101Y0132120D01*
X0112088Y0132120D01*
X0111781Y0132428D01*
X0111004Y0132428D01*
X0110920Y0132344D01*
X0110920Y0133301D01*
X0109739Y0134483D01*
X0109739Y0137713D01*
X0110164Y0138138D01*
X0110447Y0137855D01*
X0110968Y0137855D01*
X0110968Y0137616D01*
X0111460Y0137124D01*
X0112157Y0137124D01*
X0112649Y0137616D01*
X0112649Y0138313D01*
X0112157Y0138805D01*
X0111636Y0138805D01*
X0111636Y0139043D01*
X0111144Y0139536D01*
X0110447Y0139536D01*
X0110422Y0139510D01*
X0110392Y0139569D01*
X0111196Y0139483D02*
X0114830Y0139483D01*
X0115128Y0139185D02*
X0111494Y0139185D01*
X0111636Y0138886D02*
X0115427Y0138886D01*
X0115725Y0138588D02*
X0112374Y0138588D01*
X0112649Y0138289D02*
X0118262Y0138289D01*
X0118297Y0137991D02*
X0112649Y0137991D01*
X0112649Y0137692D02*
X0118595Y0137692D01*
X0119610Y0137692D02*
X0119799Y0137692D01*
X0119799Y0137394D02*
X0112427Y0137394D01*
X0112981Y0137095D02*
X0109739Y0137095D01*
X0109739Y0136797D02*
X0112682Y0136797D01*
X0112606Y0136721D02*
X0112606Y0136024D01*
X0113098Y0135532D01*
X0113795Y0135532D01*
X0114287Y0136024D01*
X0114287Y0136721D01*
X0113795Y0137213D01*
X0113098Y0137213D01*
X0112606Y0136721D01*
X0112606Y0136498D02*
X0109739Y0136498D01*
X0109739Y0136200D02*
X0112606Y0136200D01*
X0112729Y0135901D02*
X0109739Y0135901D01*
X0109739Y0135603D02*
X0113028Y0135603D01*
X0113866Y0135603D02*
X0119799Y0135603D01*
X0119799Y0135901D02*
X0114164Y0135901D01*
X0114287Y0136200D02*
X0119799Y0136200D01*
X0119799Y0136498D02*
X0114287Y0136498D01*
X0114211Y0136797D02*
X0119799Y0136797D01*
X0119799Y0137095D02*
X0113912Y0137095D01*
X0111190Y0137394D02*
X0109739Y0137394D01*
X0109739Y0137692D02*
X0110968Y0137692D01*
X0110311Y0137991D02*
X0110017Y0137991D01*
X0109739Y0135304D02*
X0120051Y0135304D01*
X0120819Y0135006D02*
X0109739Y0135006D01*
X0109739Y0134707D02*
X0121118Y0134707D01*
X0121416Y0134409D02*
X0109813Y0134409D01*
X0110111Y0134110D02*
X0121438Y0134110D01*
X0121507Y0133812D02*
X0110410Y0133812D01*
X0110708Y0133513D02*
X0121806Y0133513D01*
X0122104Y0133215D02*
X0110920Y0133215D01*
X0110920Y0132916D02*
X0122403Y0132916D01*
X0121314Y0132514D02*
X0121195Y0132396D01*
X0121195Y0131766D01*
X0120516Y0130827D02*
X0116432Y0130827D01*
X0116432Y0131125D02*
X0120217Y0131125D01*
X0119918Y0131424D02*
X0116432Y0131424D01*
X0116432Y0131722D02*
X0119620Y0131722D01*
X0119472Y0131870D02*
X0121047Y0130295D01*
X0121580Y0130295D01*
X0121957Y0130672D01*
X0121957Y0130672D01*
X0123155Y0131870D01*
X0123155Y0131870D01*
X0123405Y0132120D01*
X0126054Y0132120D01*
X0126144Y0131864D01*
X0126669Y0129207D01*
X0125776Y0129207D01*
X0125776Y0129555D01*
X0125284Y0130048D01*
X0124587Y0130048D01*
X0124095Y0129555D01*
X0124095Y0129207D01*
X0121899Y0129207D01*
X0121749Y0129357D01*
X0119724Y0129357D01*
X0119574Y0129207D01*
X0118861Y0129207D01*
X0118748Y0129319D01*
X0118052Y0129319D01*
X0117940Y0129207D01*
X0117699Y0129207D01*
X0117549Y0129357D01*
X0116432Y0129357D01*
X0116432Y0132120D01*
X0119222Y0132120D01*
X0119472Y0131870D01*
X0119472Y0131870D01*
X0119321Y0132021D02*
X0116432Y0132021D01*
X0115644Y0132021D02*
X0113440Y0132021D01*
X0113440Y0132120D02*
X0115644Y0132120D01*
X0115644Y0128577D01*
X0117022Y0128577D01*
X0117022Y0125742D01*
X0113440Y0125742D01*
X0113440Y0132120D01*
X0113440Y0131722D02*
X0115644Y0131722D01*
X0115644Y0131424D02*
X0113440Y0131424D01*
X0113440Y0131125D02*
X0115644Y0131125D01*
X0115644Y0130827D02*
X0113440Y0130827D01*
X0113440Y0130528D02*
X0115644Y0130528D01*
X0115644Y0130230D02*
X0113440Y0130230D01*
X0113440Y0129931D02*
X0115644Y0129931D01*
X0115644Y0129633D02*
X0113440Y0129633D01*
X0113440Y0129334D02*
X0115644Y0129334D01*
X0115644Y0129035D02*
X0113440Y0129035D01*
X0113440Y0128737D02*
X0115644Y0128737D01*
X0116432Y0129633D02*
X0124172Y0129633D01*
X0124095Y0129334D02*
X0121772Y0129334D01*
X0121813Y0130528D02*
X0126408Y0130528D01*
X0126467Y0130230D02*
X0116432Y0130230D01*
X0116432Y0130528D02*
X0120814Y0130528D01*
X0122112Y0130827D02*
X0126349Y0130827D01*
X0126290Y0131125D02*
X0122410Y0131125D01*
X0122709Y0131424D02*
X0126231Y0131424D01*
X0126172Y0131722D02*
X0123007Y0131722D01*
X0123306Y0132021D02*
X0126089Y0132021D01*
X0126526Y0129931D02*
X0125400Y0129931D01*
X0125699Y0129633D02*
X0126585Y0129633D01*
X0126644Y0129334D02*
X0125776Y0129334D01*
X0124471Y0129931D02*
X0116432Y0129931D01*
X0117572Y0129334D02*
X0119701Y0129334D01*
X0117022Y0128438D02*
X0113440Y0128438D01*
X0113440Y0128140D02*
X0117022Y0128140D01*
X0117022Y0127841D02*
X0113440Y0127841D01*
X0113440Y0127543D02*
X0117022Y0127543D01*
X0117022Y0127244D02*
X0113440Y0127244D01*
X0113440Y0126946D02*
X0117022Y0126946D01*
X0117022Y0126647D02*
X0113440Y0126647D01*
X0113440Y0126349D02*
X0117022Y0126349D01*
X0117022Y0126050D02*
X0113440Y0126050D01*
X0113440Y0125752D02*
X0117022Y0125752D01*
X0118203Y0123971D02*
X0118203Y0120191D01*
X0122573Y0120191D01*
X0122573Y0123971D01*
X0118203Y0123971D01*
X0118203Y0123961D02*
X0122573Y0123961D01*
X0122573Y0123662D02*
X0118203Y0123662D01*
X0118203Y0123364D02*
X0122573Y0123364D01*
X0122573Y0123065D02*
X0118203Y0123065D01*
X0118203Y0122767D02*
X0122573Y0122767D01*
X0122573Y0122468D02*
X0118203Y0122468D01*
X0118203Y0122170D02*
X0122573Y0122170D01*
X0122573Y0121871D02*
X0118203Y0121871D01*
X0118203Y0121573D02*
X0122573Y0121573D01*
X0122573Y0121274D02*
X0118203Y0121274D01*
X0118203Y0120976D02*
X0122573Y0120976D01*
X0122573Y0120677D02*
X0118203Y0120677D01*
X0118203Y0120379D02*
X0122573Y0120379D01*
X0118400Y0118735D02*
X0116330Y0118735D01*
X0114698Y0117102D01*
X0117257Y0114543D02*
X0117788Y0114543D01*
X0120172Y0110467D02*
X0120132Y0110427D01*
X0120172Y0110467D02*
X0122652Y0110467D01*
X0123827Y0111392D02*
X0123827Y0112648D01*
X0123827Y0111392D02*
X0123908Y0111311D01*
X0117390Y0108573D02*
X0117285Y0108624D01*
X0117411Y0108498D01*
X0117390Y0108573D02*
X0117022Y0108573D01*
X0117257Y0108638D02*
X0116440Y0108638D01*
X0115914Y0109164D01*
X0117257Y0108638D02*
X0117285Y0108624D01*
X0116217Y0107063D02*
X0117257Y0106669D01*
X0117236Y0104722D02*
X0117257Y0104701D01*
X0117257Y0102732D02*
X0116273Y0102732D01*
X0115119Y0101609D02*
X0115964Y0100764D01*
X0117257Y0100764D01*
X0114698Y0099624D02*
X0114698Y0098205D01*
X0114698Y0098443D01*
X0114698Y0099624D02*
X0113946Y0100376D01*
X0112730Y0099386D02*
X0112730Y0098205D01*
X0108793Y0098205D02*
X0108793Y0098992D01*
X0108202Y0098992D01*
X0104739Y0095729D02*
X0104693Y0095775D01*
X0104601Y0093301D02*
X0105290Y0091924D01*
X0102140Y0091924D01*
X0099207Y0094857D01*
X0099207Y0097354D01*
X0096539Y0100023D01*
X0096539Y0108498D01*
X0096539Y0108942D01*
X0095203Y0110278D01*
X0094384Y0110278D01*
X0094188Y0110270D01*
X0094857Y0109286D02*
X0093203Y0109286D01*
X0092219Y0110270D01*
X0092146Y0108307D02*
X0092219Y0108301D01*
X0094188Y0108301D01*
X0094857Y0109286D02*
X0095798Y0108345D01*
X0095798Y0099676D01*
X0096312Y0099161D01*
X0096312Y0094602D01*
X0097416Y0091924D01*
X0098085Y0093774D01*
X0098006Y0095821D02*
X0098006Y0096175D01*
X0097924Y0096268D01*
X0100329Y0095861D02*
X0100369Y0095821D01*
X0100919Y0098105D02*
X0100919Y0098205D01*
X0104266Y0093301D02*
X0104831Y0092737D01*
X0104251Y0092364D01*
X0104266Y0093301D02*
X0105290Y0091924D01*
X0097659Y0081864D02*
X0099246Y0080276D01*
X0099246Y0068203D01*
X0094910Y0068203D01*
X0094910Y0072384D01*
X0095433Y0073255D01*
X0095501Y0073323D01*
X0095501Y0073368D01*
X0095524Y0073407D01*
X0095501Y0073499D01*
X0095501Y0078713D01*
X0095308Y0078906D01*
X0095204Y0078906D01*
X0095204Y0079066D01*
X0095070Y0079199D01*
X0089762Y0079199D01*
X0089628Y0079066D01*
X0089628Y0073215D01*
X0081255Y0073215D01*
X0081255Y0077597D01*
X0086655Y0077597D01*
X0086860Y0077802D01*
X0086860Y0080848D01*
X0086655Y0081053D01*
X0082032Y0081053D01*
X0082843Y0081864D01*
X0087577Y0081864D01*
X0087823Y0082006D01*
X0087965Y0081864D01*
X0088993Y0081864D01*
X0089463Y0082334D01*
X0089934Y0081864D01*
X0090961Y0081864D01*
X0091432Y0082334D01*
X0091902Y0081864D01*
X0092930Y0081864D01*
X0093072Y0082006D01*
X0093317Y0081864D01*
X0097659Y0081864D01*
X0097950Y0081572D02*
X0082551Y0081572D01*
X0082252Y0081274D02*
X0098249Y0081274D01*
X0098547Y0080975D02*
X0086733Y0080975D01*
X0086860Y0080677D02*
X0098846Y0080677D01*
X0099144Y0080378D02*
X0086860Y0080378D01*
X0086860Y0080080D02*
X0099246Y0080080D01*
X0099246Y0079781D02*
X0086860Y0079781D01*
X0086860Y0079483D02*
X0099246Y0079483D01*
X0099246Y0079184D02*
X0095085Y0079184D01*
X0095328Y0078886D02*
X0099246Y0078886D01*
X0099246Y0078587D02*
X0095501Y0078587D01*
X0095501Y0078289D02*
X0099246Y0078289D01*
X0099246Y0077990D02*
X0095501Y0077990D01*
X0095501Y0077692D02*
X0099246Y0077692D01*
X0099246Y0077393D02*
X0095501Y0077393D01*
X0095501Y0077095D02*
X0099246Y0077095D01*
X0099246Y0076796D02*
X0095501Y0076796D01*
X0095501Y0076497D02*
X0099246Y0076497D01*
X0099246Y0076199D02*
X0095501Y0076199D01*
X0095501Y0075900D02*
X0099246Y0075900D01*
X0099246Y0075602D02*
X0095501Y0075602D01*
X0095501Y0075303D02*
X0099246Y0075303D01*
X0099246Y0075005D02*
X0095501Y0075005D01*
X0095501Y0074706D02*
X0099246Y0074706D01*
X0099246Y0074408D02*
X0095501Y0074408D01*
X0095501Y0074109D02*
X0099246Y0074109D01*
X0099246Y0073811D02*
X0095501Y0073811D01*
X0095501Y0073512D02*
X0099246Y0073512D01*
X0099246Y0073214D02*
X0095408Y0073214D01*
X0095229Y0072915D02*
X0099246Y0072915D01*
X0099246Y0072617D02*
X0095050Y0072617D01*
X0094910Y0072318D02*
X0099246Y0072318D01*
X0099246Y0072020D02*
X0094910Y0072020D01*
X0094910Y0071721D02*
X0099246Y0071721D01*
X0099246Y0071423D02*
X0094910Y0071423D01*
X0094910Y0071124D02*
X0099246Y0071124D01*
X0099246Y0070826D02*
X0094910Y0070826D01*
X0094910Y0070527D02*
X0099246Y0070527D01*
X0099246Y0070229D02*
X0094910Y0070229D01*
X0094910Y0069930D02*
X0099246Y0069930D01*
X0099246Y0069632D02*
X0094910Y0069632D01*
X0094910Y0069333D02*
X0099246Y0069333D01*
X0099246Y0069035D02*
X0094910Y0069035D01*
X0094910Y0068736D02*
X0099246Y0068736D01*
X0099246Y0068438D02*
X0094910Y0068438D01*
X0090119Y0068438D02*
X0084469Y0068438D01*
X0084597Y0068310D02*
X0083527Y0069380D01*
X0082014Y0069380D01*
X0081255Y0068621D01*
X0081255Y0069569D01*
X0090119Y0069569D01*
X0090119Y0068203D01*
X0084597Y0068203D01*
X0084597Y0068310D01*
X0084170Y0068736D02*
X0090119Y0068736D01*
X0090119Y0069035D02*
X0083872Y0069035D01*
X0083573Y0069333D02*
X0090119Y0069333D01*
X0089628Y0073512D02*
X0081255Y0073512D01*
X0081255Y0073811D02*
X0089628Y0073811D01*
X0089628Y0074109D02*
X0081255Y0074109D01*
X0081255Y0074408D02*
X0089628Y0074408D01*
X0089628Y0074706D02*
X0081255Y0074706D01*
X0081255Y0075005D02*
X0089628Y0075005D01*
X0089628Y0075303D02*
X0081255Y0075303D01*
X0081255Y0075602D02*
X0089628Y0075602D01*
X0089628Y0075900D02*
X0081255Y0075900D01*
X0081255Y0076199D02*
X0089628Y0076199D01*
X0089628Y0076497D02*
X0081255Y0076497D01*
X0081255Y0076796D02*
X0089628Y0076796D01*
X0089628Y0077095D02*
X0081255Y0077095D01*
X0081255Y0077393D02*
X0089628Y0077393D01*
X0089628Y0077692D02*
X0086750Y0077692D01*
X0086860Y0077990D02*
X0089628Y0077990D01*
X0089628Y0078289D02*
X0086860Y0078289D01*
X0086860Y0078587D02*
X0089628Y0078587D01*
X0089628Y0078886D02*
X0086860Y0078886D01*
X0086860Y0079184D02*
X0089747Y0079184D01*
X0089927Y0081871D02*
X0088999Y0081871D01*
X0089298Y0082169D02*
X0089628Y0082169D01*
X0090968Y0081871D02*
X0091895Y0081871D01*
X0091597Y0082169D02*
X0091266Y0082169D01*
X0092936Y0081871D02*
X0093306Y0081871D01*
X0087958Y0081871D02*
X0087589Y0081871D01*
X0082770Y0087790D02*
X0082377Y0088262D01*
X0079896Y0089483D02*
X0079660Y0089483D01*
X0079148Y0089994D01*
X0077534Y0089483D02*
X0074699Y0092317D01*
X0074699Y0093380D01*
X0074148Y0093931D01*
X0072731Y0093931D01*
X0071747Y0094916D01*
X0071786Y0093237D02*
X0071822Y0092807D01*
X0071747Y0092947D01*
X0071786Y0093237D01*
X0078321Y0093774D02*
X0078243Y0094522D01*
X0078388Y0092275D02*
X0078388Y0092120D01*
X0078321Y0091569D01*
X0078321Y0091710D01*
X0080703Y0096786D02*
X0080703Y0096825D01*
X0078490Y0106676D02*
X0077640Y0106676D01*
X0077640Y0106694D01*
X0079621Y0107908D02*
X0080447Y0107081D01*
X0081314Y0107081D01*
X0079621Y0107908D02*
X0079621Y0109876D01*
X0080408Y0110664D01*
X0081195Y0110664D01*
X0082180Y0111648D01*
X0082180Y0112357D01*
X0079818Y0112357D02*
X0079818Y0111648D01*
X0078783Y0110613D01*
X0077640Y0110613D01*
X0081314Y0109443D02*
X0083361Y0107396D01*
X0083361Y0106570D01*
X0084069Y0109719D02*
X0084069Y0109837D01*
X0084069Y0109758D02*
X0084358Y0110047D01*
X0086510Y0110861D02*
X0084936Y0112435D01*
X0084936Y0113144D01*
X0087180Y0113144D02*
X0087180Y0112357D01*
X0087888Y0111648D01*
X0088873Y0111648D01*
X0090251Y0110270D01*
X0090251Y0108301D02*
X0087692Y0110861D01*
X0086510Y0110861D01*
X0086589Y0107081D02*
X0086825Y0107081D01*
X0092156Y0106396D02*
X0092219Y0106333D01*
X0094227Y0100939D02*
X0094227Y0099669D01*
X0094345Y0099561D01*
X0094343Y0098026D02*
X0090999Y0098026D01*
X0094343Y0098026D02*
X0094353Y0098025D01*
X0094362Y0098021D01*
X0094370Y0098015D01*
X0094376Y0098007D01*
X0094380Y0097998D01*
X0094381Y0097988D01*
X0094736Y0097984D01*
X0094345Y0097987D01*
X0094380Y0098026D01*
X0094030Y0093538D02*
X0094306Y0093262D01*
X0094345Y0093262D01*
X0092573Y0089916D02*
X0092377Y0089913D01*
X0092377Y0089443D01*
X0081967Y0069333D02*
X0081255Y0069333D01*
X0081255Y0069035D02*
X0081669Y0069035D01*
X0081370Y0068736D02*
X0081255Y0068736D01*
X0066038Y0096924D02*
X0066251Y0097137D01*
X0059458Y0104536D02*
X0059371Y0104536D01*
X0055296Y0115500D02*
X0055892Y0116095D01*
X0057810Y0117160D01*
X0068782Y0115535D02*
X0069066Y0115819D01*
X0069066Y0116410D01*
X0070750Y0115535D02*
X0070947Y0115731D01*
X0072534Y0115350D02*
X0072534Y0114950D01*
X0072719Y0115135D02*
X0072719Y0115535D01*
X0072719Y0115191D01*
X0072810Y0115191D01*
X0072810Y0116085D01*
X0072719Y0116175D01*
X0072719Y0116385D01*
X0072719Y0116175D02*
X0072719Y0115535D01*
X0072693Y0115533D01*
X0072667Y0115528D01*
X0072642Y0115518D01*
X0072619Y0115506D01*
X0072598Y0115490D01*
X0072579Y0115471D01*
X0072563Y0115450D01*
X0072551Y0115427D01*
X0072541Y0115402D01*
X0072536Y0115376D01*
X0072534Y0115350D01*
X0072810Y0115191D02*
X0072810Y0114719D01*
X0074687Y0115535D02*
X0074778Y0115444D01*
X0079026Y0116963D02*
X0079026Y0122715D01*
X0080452Y0122715D01*
X0080452Y0121149D01*
X0080657Y0120944D01*
X0084884Y0120944D01*
X0085089Y0121149D01*
X0085089Y0127344D01*
X0084884Y0127549D01*
X0080657Y0127549D01*
X0080452Y0127344D01*
X0080452Y0125777D01*
X0079026Y0125777D01*
X0079026Y0126872D01*
X0078821Y0127077D01*
X0078636Y0127077D01*
X0078636Y0127715D01*
X0080553Y0127715D01*
X0080758Y0127920D01*
X0080758Y0128380D01*
X0081055Y0128380D01*
X0081070Y0128351D01*
X0081112Y0128337D01*
X0081125Y0128296D01*
X0081228Y0128243D01*
X0081309Y0128162D01*
X0081353Y0128162D01*
X0081379Y0128126D01*
X0081400Y0128123D01*
X0081413Y0128110D01*
X0081482Y0128110D01*
X0081493Y0128108D01*
X0081595Y0128056D01*
X0081637Y0128070D01*
X0081672Y0128044D01*
X0081786Y0128062D01*
X0081900Y0128044D01*
X0081935Y0128070D01*
X0081977Y0128056D01*
X0082079Y0128108D01*
X0082090Y0128110D01*
X0082159Y0128110D01*
X0082172Y0128123D01*
X0082193Y0128126D01*
X0082219Y0128162D01*
X0082263Y0128162D01*
X0082344Y0128243D01*
X0082447Y0128296D01*
X0082460Y0128337D01*
X0082502Y0128351D01*
X0082517Y0128380D01*
X0085176Y0128380D01*
X0085176Y0127920D01*
X0085381Y0127715D01*
X0088427Y0127715D01*
X0088632Y0127920D01*
X0088632Y0128380D01*
X0090805Y0128380D01*
X0090854Y0128332D01*
X0093506Y0128332D01*
X0093554Y0128380D01*
X0101397Y0128380D01*
X0101397Y0123550D01*
X0101602Y0123345D01*
X0101865Y0123345D01*
X0101865Y0121325D01*
X0095598Y0121325D01*
X0095265Y0121358D01*
X0095204Y0121384D01*
X0095204Y0127500D01*
X0095001Y0127703D01*
X0089438Y0127703D01*
X0089234Y0127500D01*
X0089234Y0120796D01*
X0089438Y0120592D01*
X0092973Y0120592D01*
X0093026Y0120539D01*
X0093339Y0120226D01*
X0093569Y0119996D01*
X0094886Y0119451D01*
X0101865Y0119451D01*
X0101865Y0116963D01*
X0101761Y0116963D01*
X0101761Y0118428D01*
X0101556Y0118633D01*
X0100282Y0118633D01*
X0100077Y0118428D01*
X0100077Y0116963D01*
X0099505Y0116963D01*
X0098015Y0118453D01*
X0097985Y0118561D01*
X0097805Y0118663D01*
X0097779Y0118688D01*
X0097779Y0119194D01*
X0097574Y0119399D01*
X0095710Y0119399D01*
X0095505Y0119194D01*
X0095505Y0116963D01*
X0094964Y0116963D01*
X0093895Y0118032D01*
X0093579Y0118347D01*
X0093579Y0119194D01*
X0093374Y0119399D01*
X0091510Y0119399D01*
X0091305Y0119194D01*
X0091305Y0118543D01*
X0091262Y0118586D01*
X0088610Y0118586D01*
X0088405Y0118381D01*
X0088405Y0116963D01*
X0079026Y0116963D01*
X0079026Y0117095D02*
X0088405Y0117095D01*
X0088405Y0117394D02*
X0079026Y0117394D01*
X0079026Y0117692D02*
X0088405Y0117692D01*
X0088405Y0117991D02*
X0079026Y0117991D01*
X0079026Y0118289D02*
X0088405Y0118289D01*
X0087180Y0117357D02*
X0087180Y0115506D01*
X0087180Y0117357D02*
X0086904Y0117632D01*
X0084936Y0117632D02*
X0084936Y0115506D01*
X0084936Y0117632D02*
X0084778Y0117790D01*
X0084916Y0120976D02*
X0089234Y0120976D01*
X0089234Y0121274D02*
X0085089Y0121274D01*
X0085089Y0121573D02*
X0089234Y0121573D01*
X0089234Y0121871D02*
X0085089Y0121871D01*
X0085089Y0122170D02*
X0089234Y0122170D01*
X0089234Y0122468D02*
X0085089Y0122468D01*
X0085089Y0122767D02*
X0089234Y0122767D01*
X0089234Y0123065D02*
X0085089Y0123065D01*
X0085089Y0123364D02*
X0089234Y0123364D01*
X0089234Y0123662D02*
X0085089Y0123662D01*
X0085089Y0123961D02*
X0089234Y0123961D01*
X0089234Y0124259D02*
X0085089Y0124259D01*
X0085089Y0124558D02*
X0089234Y0124558D01*
X0089234Y0124856D02*
X0085089Y0124856D01*
X0085089Y0125155D02*
X0089234Y0125155D01*
X0089234Y0125453D02*
X0085089Y0125453D01*
X0085089Y0125752D02*
X0089234Y0125752D01*
X0089234Y0126050D02*
X0085089Y0126050D01*
X0085089Y0126349D02*
X0089234Y0126349D01*
X0089234Y0126647D02*
X0085089Y0126647D01*
X0085089Y0126946D02*
X0089234Y0126946D01*
X0089234Y0127244D02*
X0085089Y0127244D01*
X0084890Y0127543D02*
X0089277Y0127543D01*
X0088553Y0127841D02*
X0101397Y0127841D01*
X0101397Y0127543D02*
X0095161Y0127543D01*
X0095204Y0127244D02*
X0101397Y0127244D01*
X0101397Y0126946D02*
X0095204Y0126946D01*
X0095204Y0126647D02*
X0101397Y0126647D01*
X0101397Y0126349D02*
X0095204Y0126349D01*
X0095204Y0126050D02*
X0101397Y0126050D01*
X0101397Y0125752D02*
X0095204Y0125752D01*
X0095204Y0125453D02*
X0101397Y0125453D01*
X0101397Y0125155D02*
X0095204Y0125155D01*
X0095204Y0124856D02*
X0101397Y0124856D01*
X0101397Y0124558D02*
X0095204Y0124558D01*
X0095204Y0124259D02*
X0101397Y0124259D01*
X0101397Y0123961D02*
X0095204Y0123961D01*
X0095204Y0123662D02*
X0101397Y0123662D01*
X0101583Y0123364D02*
X0095204Y0123364D01*
X0095204Y0123065D02*
X0101865Y0123065D01*
X0101865Y0122767D02*
X0095204Y0122767D01*
X0095204Y0122468D02*
X0101865Y0122468D01*
X0101865Y0122170D02*
X0095204Y0122170D01*
X0095204Y0121871D02*
X0101865Y0121871D01*
X0101865Y0121573D02*
X0095204Y0121573D01*
X0094087Y0119782D02*
X0079026Y0119782D01*
X0079026Y0120080D02*
X0093485Y0120080D01*
X0093569Y0119996D02*
X0093569Y0119996D01*
X0093339Y0120226D02*
X0093339Y0120226D01*
X0093186Y0120379D02*
X0079026Y0120379D01*
X0079026Y0120677D02*
X0089353Y0120677D01*
X0091305Y0119185D02*
X0079026Y0119185D01*
X0079026Y0119483D02*
X0094807Y0119483D01*
X0095505Y0119185D02*
X0093579Y0119185D01*
X0093579Y0118886D02*
X0095505Y0118886D01*
X0095505Y0118588D02*
X0093579Y0118588D01*
X0093638Y0118289D02*
X0095505Y0118289D01*
X0095505Y0117991D02*
X0093936Y0117991D01*
X0094235Y0117692D02*
X0095505Y0117692D01*
X0095505Y0117394D02*
X0094533Y0117394D01*
X0094832Y0117095D02*
X0095505Y0117095D01*
X0097938Y0118588D02*
X0100236Y0118588D01*
X0100077Y0118289D02*
X0098178Y0118289D01*
X0098477Y0117991D02*
X0100077Y0117991D01*
X0100077Y0117692D02*
X0098775Y0117692D01*
X0099074Y0117394D02*
X0100077Y0117394D01*
X0100077Y0117095D02*
X0099372Y0117095D01*
X0101761Y0117095D02*
X0101865Y0117095D01*
X0101865Y0117394D02*
X0101761Y0117394D01*
X0101761Y0117692D02*
X0101865Y0117692D01*
X0101865Y0117991D02*
X0101761Y0117991D01*
X0101761Y0118289D02*
X0101865Y0118289D01*
X0101865Y0118588D02*
X0101602Y0118588D01*
X0101865Y0118886D02*
X0097779Y0118886D01*
X0097779Y0119185D02*
X0101865Y0119185D01*
X0103636Y0122475D02*
X0105014Y0122475D01*
X0106983Y0122435D02*
X0106983Y0122475D01*
X0107022Y0122475D02*
X0106983Y0122435D01*
X0106983Y0122278D01*
X0107180Y0122475D01*
X0107377Y0122475D01*
X0107022Y0122475D01*
X0106983Y0122278D02*
X0106983Y0120624D01*
X0107495Y0120112D01*
X0107495Y0119128D01*
X0108793Y0117830D01*
X0108793Y0117102D01*
X0108793Y0117712D01*
X0106824Y0117102D02*
X0106824Y0119523D01*
X0105959Y0120388D01*
X0105290Y0120388D01*
X0105290Y0120112D01*
X0107495Y0122049D02*
X0107763Y0122049D01*
X0107377Y0122475D01*
X0109069Y0121884D02*
X0109069Y0119758D01*
X0108518Y0124010D02*
X0102558Y0124010D01*
X0102558Y0128238D01*
X0106024Y0128238D01*
X0106298Y0128227D01*
X0106309Y0128238D01*
X0106325Y0128238D01*
X0106519Y0128431D01*
X0108761Y0130504D01*
X0109345Y0130861D01*
X0110054Y0130861D01*
X0110054Y0130231D01*
X0109530Y0129357D01*
X0109395Y0129357D01*
X0109077Y0129038D01*
X0109077Y0128603D01*
X0108518Y0127672D01*
X0108518Y0124010D01*
X0108518Y0124259D02*
X0102558Y0124259D01*
X0102558Y0124558D02*
X0108518Y0124558D01*
X0108518Y0124856D02*
X0102558Y0124856D01*
X0102558Y0125155D02*
X0108518Y0125155D01*
X0108518Y0125453D02*
X0102558Y0125453D01*
X0102558Y0125752D02*
X0108518Y0125752D01*
X0108518Y0126050D02*
X0102558Y0126050D01*
X0102558Y0126349D02*
X0108518Y0126349D01*
X0108518Y0126647D02*
X0102558Y0126647D01*
X0102558Y0126946D02*
X0108518Y0126946D01*
X0108518Y0127244D02*
X0102558Y0127244D01*
X0102558Y0127543D02*
X0108518Y0127543D01*
X0108620Y0127841D02*
X0102558Y0127841D01*
X0102558Y0128140D02*
X0108799Y0128140D01*
X0108978Y0128438D02*
X0106527Y0128438D01*
X0106850Y0128737D02*
X0109077Y0128737D01*
X0109077Y0129035D02*
X0107173Y0129035D01*
X0107496Y0129334D02*
X0109372Y0129334D01*
X0109695Y0129633D02*
X0107819Y0129633D01*
X0108142Y0129931D02*
X0109874Y0129931D01*
X0110053Y0130230D02*
X0108465Y0130230D01*
X0108801Y0130528D02*
X0110054Y0130528D01*
X0110054Y0130827D02*
X0109289Y0130827D01*
X0110920Y0132618D02*
X0112956Y0132618D01*
X0112746Y0132319D02*
X0111889Y0132319D01*
X0112201Y0132021D02*
X0112746Y0132021D01*
X0106797Y0129633D02*
X0088826Y0129633D01*
X0088826Y0129334D02*
X0101498Y0129334D01*
X0101397Y0128140D02*
X0088632Y0128140D01*
X0085255Y0127841D02*
X0080679Y0127841D01*
X0080651Y0127543D02*
X0078636Y0127543D01*
X0078636Y0127244D02*
X0080452Y0127244D01*
X0080452Y0126946D02*
X0078952Y0126946D01*
X0079026Y0126647D02*
X0080452Y0126647D01*
X0080452Y0126349D02*
X0079026Y0126349D01*
X0079026Y0126050D02*
X0080452Y0126050D01*
X0080758Y0128140D02*
X0081369Y0128140D01*
X0082203Y0128140D02*
X0085176Y0128140D01*
X0084857Y0129334D02*
X0077034Y0129334D01*
X0078085Y0129035D02*
X0078311Y0129035D01*
X0075199Y0129334D02*
X0074672Y0129334D01*
X0072837Y0129334D02*
X0068558Y0129334D01*
X0068558Y0129633D02*
X0084857Y0129633D01*
X0084857Y0129931D02*
X0068558Y0129931D01*
X0068558Y0130230D02*
X0084857Y0130230D01*
X0084857Y0130528D02*
X0068558Y0130528D01*
X0068558Y0129035D02*
X0071589Y0129035D01*
X0071589Y0128737D02*
X0068558Y0128737D01*
X0068558Y0128438D02*
X0071589Y0128438D01*
X0071589Y0128140D02*
X0068558Y0128140D01*
X0068558Y0127841D02*
X0071589Y0127841D01*
X0071526Y0127543D02*
X0068558Y0127543D01*
X0068691Y0127244D02*
X0071227Y0127244D01*
X0079026Y0122468D02*
X0080452Y0122468D01*
X0080452Y0122170D02*
X0079026Y0122170D01*
X0079026Y0121871D02*
X0080452Y0121871D01*
X0080452Y0121573D02*
X0079026Y0121573D01*
X0079026Y0121274D02*
X0080452Y0121274D01*
X0080625Y0120976D02*
X0079026Y0120976D01*
X0079026Y0118886D02*
X0091305Y0118886D01*
X0091305Y0118588D02*
X0079026Y0118588D01*
X0081786Y0129011D02*
X0081786Y0129128D01*
X0084730Y0130827D02*
X0084857Y0130827D01*
X0084857Y0132916D02*
X0084421Y0132916D01*
X0089420Y0137394D02*
X0092459Y0137394D01*
X0092161Y0137692D02*
X0089718Y0137692D01*
X0090017Y0137991D02*
X0091071Y0137991D01*
X0091224Y0137991D02*
X0091862Y0137991D01*
X0090453Y0138289D02*
X0090164Y0138289D01*
X0090164Y0138588D02*
X0090262Y0138588D01*
X0090184Y0138886D02*
X0090164Y0138886D01*
X0094420Y0137394D02*
X0095153Y0137394D01*
X0095264Y0137692D02*
X0094718Y0137692D01*
X0095017Y0137991D02*
X0096862Y0137991D01*
X0096715Y0138289D02*
X0095164Y0138289D01*
X0095164Y0138588D02*
X0096715Y0138588D01*
X0096715Y0138886D02*
X0095164Y0138886D01*
X0095164Y0139185D02*
X0096715Y0139185D01*
X0097816Y0137128D02*
X0099154Y0137128D01*
X0100164Y0138138D01*
X0100164Y0139193D01*
X0101524Y0139193D01*
X0101617Y0139286D01*
X0101715Y0139286D01*
X0101715Y0138138D01*
X0101858Y0137995D01*
X0101825Y0137990D01*
X0101663Y0138016D01*
X0101642Y0138001D01*
X0101618Y0138009D01*
X0101482Y0137940D01*
X0101372Y0137940D01*
X0101347Y0137914D01*
X0101309Y0137908D01*
X0101294Y0137888D01*
X0101269Y0137888D01*
X0101152Y0137771D01*
X0101005Y0137697D01*
X0100998Y0137673D01*
X0100973Y0137665D01*
X0100899Y0137518D01*
X0100782Y0137402D01*
X0100782Y0137376D01*
X0100762Y0137361D01*
X0100756Y0137324D01*
X0100730Y0137298D01*
X0100730Y0137188D01*
X0100661Y0137052D01*
X0100669Y0137028D01*
X0100654Y0137007D01*
X0100680Y0136845D01*
X0100654Y0136682D01*
X0100669Y0136662D01*
X0100661Y0136638D01*
X0100730Y0136502D01*
X0100730Y0136391D01*
X0100756Y0136366D01*
X0100762Y0136328D01*
X0100782Y0136313D01*
X0100782Y0136288D01*
X0100899Y0136172D01*
X0100973Y0136025D01*
X0100998Y0136017D01*
X0101005Y0135993D01*
X0101152Y0135918D01*
X0101269Y0135802D01*
X0101294Y0135802D01*
X0101309Y0135781D01*
X0101347Y0135775D01*
X0101372Y0135750D01*
X0101482Y0135750D01*
X0101618Y0135681D01*
X0101642Y0135688D01*
X0101663Y0135674D01*
X0101825Y0135699D01*
X0101988Y0135674D01*
X0102009Y0135688D01*
X0102033Y0135681D01*
X0102168Y0135750D01*
X0102279Y0135750D01*
X0102304Y0135775D01*
X0102342Y0135781D01*
X0102357Y0135802D01*
X0102382Y0135802D01*
X0102488Y0135907D01*
X0102791Y0135907D01*
X0102791Y0134769D01*
X0103110Y0134451D01*
X0103433Y0134451D01*
X0103800Y0133931D01*
X0103800Y0133566D01*
X0104177Y0133189D01*
X0104925Y0132441D01*
X0105108Y0132441D01*
X0105108Y0132420D01*
X0098390Y0132420D01*
X0098552Y0132582D01*
X0098552Y0134730D01*
X0098175Y0135107D01*
X0097816Y0135107D01*
X0097816Y0137128D01*
X0097816Y0137095D02*
X0100683Y0137095D01*
X0100672Y0136797D02*
X0097816Y0136797D01*
X0097816Y0136498D02*
X0100730Y0136498D01*
X0100870Y0136200D02*
X0097816Y0136200D01*
X0097816Y0135901D02*
X0101169Y0135901D01*
X0102482Y0135901D02*
X0102791Y0135901D01*
X0102791Y0135603D02*
X0097816Y0135603D01*
X0097816Y0135304D02*
X0102791Y0135304D01*
X0102791Y0135006D02*
X0098276Y0135006D01*
X0098552Y0134707D02*
X0102853Y0134707D01*
X0103462Y0134409D02*
X0098552Y0134409D01*
X0098552Y0134110D02*
X0103673Y0134110D01*
X0103800Y0133812D02*
X0098552Y0133812D01*
X0098552Y0133513D02*
X0103853Y0133513D01*
X0104151Y0133215D02*
X0098552Y0133215D01*
X0098552Y0132916D02*
X0104450Y0132916D01*
X0104749Y0132618D02*
X0098552Y0132618D01*
X0098336Y0131722D02*
X0101667Y0131722D01*
X0101966Y0131424D02*
X0098063Y0131424D01*
X0097764Y0131125D02*
X0102264Y0131125D01*
X0102563Y0130827D02*
X0097466Y0130827D01*
X0097167Y0130528D02*
X0102861Y0130528D01*
X0103160Y0130230D02*
X0096869Y0130230D01*
X0096484Y0136175D02*
X0096484Y0136648D01*
X0096432Y0136648D01*
X0099420Y0137394D02*
X0100782Y0137394D01*
X0101004Y0137692D02*
X0099718Y0137692D01*
X0100017Y0137991D02*
X0101583Y0137991D01*
X0101821Y0137991D02*
X0101829Y0137991D01*
X0101715Y0138289D02*
X0100164Y0138289D01*
X0100164Y0138588D02*
X0101715Y0138588D01*
X0101715Y0138886D02*
X0100164Y0138886D01*
X0100164Y0139185D02*
X0101715Y0139185D01*
X0105290Y0149246D02*
X0106786Y0149246D01*
X0105290Y0149246D02*
X0105211Y0149325D01*
X0106825Y0153616D02*
X0106983Y0153853D01*
X0109345Y0153853D02*
X0109345Y0152626D01*
X0109478Y0152492D01*
X0110723Y0151215D01*
X0110723Y0149246D02*
X0110723Y0148774D01*
X0112022Y0147475D01*
X0112022Y0146018D01*
X0112039Y0146018D01*
X0114874Y0143183D01*
X0118243Y0143183D01*
X0118755Y0142672D01*
X0114531Y0139782D02*
X0112697Y0139782D01*
X0110999Y0142357D02*
X0110880Y0142672D01*
X0110762Y0142947D01*
X0110723Y0147278D01*
X0118552Y0152562D02*
X0118552Y0153227D01*
X0117826Y0153954D01*
X0117625Y0153954D01*
X0117552Y0154228D01*
X0117552Y0154228D01*
X0117544Y0154236D01*
X0117354Y0154426D01*
X0117164Y0154616D01*
X0114482Y0157298D01*
X0114482Y0159543D01*
X0123019Y0168080D01*
X0126085Y0165014D01*
X0123129Y0162058D01*
X0122143Y0161812D01*
X0122048Y0161812D01*
X0122016Y0161780D01*
X0121972Y0161769D01*
X0121923Y0161687D01*
X0118236Y0158000D01*
X0118236Y0157728D01*
X0118310Y0157654D01*
X0118197Y0157541D01*
X0118197Y0157351D01*
X0121950Y0153598D01*
X0122139Y0153598D01*
X0126276Y0157735D01*
X0132197Y0151814D01*
X0129098Y0148716D01*
X0125280Y0152535D01*
X0124990Y0152535D01*
X0122836Y0150381D01*
X0122836Y0150091D01*
X0126105Y0146821D01*
X0124958Y0146821D01*
X0121999Y0149781D01*
X0121913Y0149867D01*
X0121618Y0150162D01*
X0121618Y0150162D01*
X0121610Y0150170D01*
X0121336Y0150243D01*
X0121336Y0150444D01*
X0120610Y0151170D01*
X0119944Y0151170D01*
X0119944Y0151836D01*
X0119218Y0152562D01*
X0118552Y0152562D01*
X0118552Y0152618D02*
X0131393Y0152618D01*
X0131095Y0152916D02*
X0118552Y0152916D01*
X0118552Y0153215D02*
X0130796Y0153215D01*
X0130498Y0153513D02*
X0118267Y0153513D01*
X0117968Y0153812D02*
X0121736Y0153812D01*
X0121438Y0154110D02*
X0117583Y0154110D01*
X0117371Y0154409D02*
X0121139Y0154409D01*
X0120841Y0154707D02*
X0117072Y0154707D01*
X0116774Y0155006D02*
X0120542Y0155006D01*
X0120244Y0155304D02*
X0116475Y0155304D01*
X0116177Y0155603D02*
X0119945Y0155603D01*
X0119647Y0155902D02*
X0115878Y0155902D01*
X0115580Y0156200D02*
X0119348Y0156200D01*
X0119050Y0156499D02*
X0115281Y0156499D01*
X0114983Y0156797D02*
X0118751Y0156797D01*
X0118453Y0157096D02*
X0114684Y0157096D01*
X0114482Y0157394D02*
X0118197Y0157394D01*
X0118271Y0157693D02*
X0114482Y0157693D01*
X0114482Y0157991D02*
X0118236Y0157991D01*
X0118526Y0158290D02*
X0114482Y0158290D01*
X0114482Y0158588D02*
X0118824Y0158588D01*
X0119123Y0158887D02*
X0114482Y0158887D01*
X0114482Y0159185D02*
X0119421Y0159185D01*
X0119720Y0159484D02*
X0114482Y0159484D01*
X0114721Y0159782D02*
X0120018Y0159782D01*
X0120317Y0160081D02*
X0115019Y0160081D01*
X0115318Y0160379D02*
X0120615Y0160379D01*
X0120914Y0160678D02*
X0115616Y0160678D01*
X0115915Y0160976D02*
X0121212Y0160976D01*
X0121511Y0161275D02*
X0116213Y0161275D01*
X0116512Y0161573D02*
X0121809Y0161573D01*
X0122384Y0161872D02*
X0116810Y0161872D01*
X0117109Y0162170D02*
X0123241Y0162170D01*
X0123540Y0162469D02*
X0117408Y0162469D01*
X0117706Y0162767D02*
X0123838Y0162767D01*
X0124137Y0163066D02*
X0118005Y0163066D01*
X0118303Y0163364D02*
X0124435Y0163364D01*
X0124734Y0163663D02*
X0118602Y0163663D01*
X0118900Y0163961D02*
X0125032Y0163961D01*
X0125331Y0164260D02*
X0119199Y0164260D01*
X0119497Y0164558D02*
X0125629Y0164558D01*
X0125928Y0164857D02*
X0119796Y0164857D01*
X0120094Y0165155D02*
X0125944Y0165155D01*
X0125645Y0165454D02*
X0120393Y0165454D01*
X0120691Y0165752D02*
X0125347Y0165752D01*
X0125048Y0166051D02*
X0120990Y0166051D01*
X0121288Y0166349D02*
X0124750Y0166349D01*
X0124451Y0166648D02*
X0121587Y0166648D01*
X0121885Y0166946D02*
X0124153Y0166946D01*
X0123854Y0167245D02*
X0122184Y0167245D01*
X0122482Y0167543D02*
X0123556Y0167543D01*
X0123257Y0167842D02*
X0122781Y0167842D01*
X0129122Y0161275D02*
X0129824Y0161275D01*
X0129526Y0161573D02*
X0129420Y0161573D01*
X0129473Y0161626D02*
X0128508Y0160660D01*
X0134775Y0154393D01*
X0135445Y0155063D01*
X0134372Y0155063D01*
X0133302Y0156133D01*
X0133302Y0157646D01*
X0133378Y0157721D01*
X0129473Y0161626D01*
X0128823Y0160976D02*
X0130123Y0160976D01*
X0130421Y0160678D02*
X0128525Y0160678D01*
X0128789Y0160379D02*
X0130720Y0160379D01*
X0131018Y0160081D02*
X0129087Y0160081D01*
X0129386Y0159782D02*
X0131317Y0159782D01*
X0131615Y0159484D02*
X0129684Y0159484D01*
X0129983Y0159185D02*
X0131914Y0159185D01*
X0132212Y0158887D02*
X0130281Y0158887D01*
X0130580Y0158588D02*
X0132511Y0158588D01*
X0132809Y0158290D02*
X0130878Y0158290D01*
X0131177Y0157991D02*
X0133108Y0157991D01*
X0133349Y0157693D02*
X0131475Y0157693D01*
X0131774Y0157394D02*
X0133302Y0157394D01*
X0133302Y0157096D02*
X0132073Y0157096D01*
X0132371Y0156797D02*
X0133302Y0156797D01*
X0133302Y0156499D02*
X0132670Y0156499D01*
X0132968Y0156200D02*
X0133302Y0156200D01*
X0133267Y0155902D02*
X0133534Y0155902D01*
X0133565Y0155603D02*
X0133832Y0155603D01*
X0133864Y0155304D02*
X0134131Y0155304D01*
X0134162Y0155006D02*
X0135388Y0155006D01*
X0135090Y0154707D02*
X0134461Y0154707D01*
X0134759Y0154409D02*
X0134791Y0154409D01*
X0131990Y0152021D02*
X0125793Y0152021D01*
X0125495Y0152319D02*
X0131692Y0152319D01*
X0132105Y0151722D02*
X0126092Y0151722D01*
X0126390Y0151424D02*
X0131806Y0151424D01*
X0131508Y0151125D02*
X0126689Y0151125D01*
X0126987Y0150827D02*
X0131209Y0150827D01*
X0130911Y0150528D02*
X0127286Y0150528D01*
X0127584Y0150230D02*
X0130612Y0150230D01*
X0130314Y0149931D02*
X0127883Y0149931D01*
X0128181Y0149633D02*
X0130015Y0149633D01*
X0129717Y0149334D02*
X0128480Y0149334D01*
X0128779Y0149036D02*
X0129418Y0149036D01*
X0129120Y0148737D02*
X0129077Y0148737D01*
X0125981Y0146946D02*
X0124834Y0146946D01*
X0124535Y0147245D02*
X0125682Y0147245D01*
X0125384Y0147543D02*
X0124237Y0147543D01*
X0123938Y0147842D02*
X0125085Y0147842D01*
X0124787Y0148140D02*
X0123640Y0148140D01*
X0123341Y0148439D02*
X0124488Y0148439D01*
X0124190Y0148737D02*
X0123043Y0148737D01*
X0122744Y0149036D02*
X0123891Y0149036D01*
X0123593Y0149334D02*
X0122446Y0149334D01*
X0122147Y0149633D02*
X0123294Y0149633D01*
X0122996Y0149931D02*
X0121849Y0149931D01*
X0121610Y0150170D02*
X0121610Y0150170D01*
X0121385Y0150230D02*
X0122836Y0150230D01*
X0122983Y0150528D02*
X0121252Y0150528D01*
X0120953Y0150827D02*
X0123282Y0150827D01*
X0123580Y0151125D02*
X0120655Y0151125D01*
X0119944Y0151424D02*
X0123879Y0151424D01*
X0124177Y0151722D02*
X0119944Y0151722D01*
X0119759Y0152021D02*
X0124476Y0152021D01*
X0124774Y0152319D02*
X0119461Y0152319D01*
X0122353Y0153812D02*
X0130199Y0153812D01*
X0129901Y0154110D02*
X0122651Y0154110D01*
X0122950Y0154409D02*
X0129602Y0154409D01*
X0129304Y0154707D02*
X0123248Y0154707D01*
X0123547Y0155006D02*
X0129005Y0155006D01*
X0128707Y0155304D02*
X0123845Y0155304D01*
X0124144Y0155603D02*
X0128408Y0155603D01*
X0128110Y0155902D02*
X0124442Y0155902D01*
X0124741Y0156200D02*
X0127811Y0156200D01*
X0127513Y0156499D02*
X0125039Y0156499D01*
X0125338Y0156797D02*
X0127214Y0156797D01*
X0126916Y0157096D02*
X0125636Y0157096D01*
X0125935Y0157394D02*
X0126617Y0157394D01*
X0126319Y0157693D02*
X0126233Y0157693D01*
X0106474Y0129334D02*
X0104751Y0129334D01*
X0105046Y0129035D02*
X0106151Y0129035D01*
X0103518Y0127475D02*
X0103125Y0126254D01*
X0093125Y0115388D02*
X0093046Y0115388D01*
X0093006Y0115349D01*
X0070408Y0108656D02*
X0069766Y0107661D01*
X0075841Y0146609D02*
X0075841Y0148616D01*
X0080014Y0152790D01*
X0080014Y0154758D02*
X0079953Y0154820D01*
X0075881Y0154820D01*
X0075251Y0154829D01*
X0075841Y0154483D01*
X0080014Y0150821D02*
X0080014Y0148529D01*
X0079948Y0148463D01*
X0079916Y0148326D01*
X0081983Y0148774D02*
X0081983Y0150821D01*
X0081983Y0148774D02*
X0082337Y0148341D01*
X0079916Y0145964D02*
X0079502Y0146042D01*
X0079505Y0146040D01*
X0092022Y0147868D02*
X0092022Y0147868D01*
X0099896Y0155742D02*
X0097022Y0158616D01*
X0094936Y0158616D01*
D51*
X0107455Y0140500D03*
X0094621Y0103538D03*
X0089345Y0103538D03*
X0100919Y0098105D03*
X0070054Y0093774D03*
X0064778Y0100073D03*
X0063440Y0115585D03*
X0061707Y0118498D03*
D52*
X0103243Y0112238D03*
X0106195Y0112238D03*
X0106195Y0109286D03*
X0103243Y0109286D03*
X0103243Y0106333D03*
X0106195Y0106333D03*
X0106195Y0103380D03*
X0103243Y0103380D03*
X0109148Y0103380D03*
X0109148Y0106333D03*
X0109148Y0109286D03*
X0112101Y0109286D03*
X0112101Y0106333D03*
X0109148Y0112238D03*
D53*
X0082180Y0112357D02*
X0081761Y0111963D01*
X0083951Y0152790D02*
X0083952Y0152861D01*
D54*
X0077534Y0121805D02*
X0075723Y0121805D01*
X0061892Y0102739D02*
X0061892Y0102462D01*
X0064845Y0099837D02*
X0064845Y0099787D01*
D55*
X0108243Y0133065D02*
X0109818Y0133065D01*
D56*
X0107009Y0135900D02*
X0108440Y0137409D01*
X0108440Y0138853D01*
D57*
X0081786Y0129128D02*
X0079030Y0130624D01*
D58*
X0084410Y0134010D02*
X0088873Y0134010D01*
X0089581Y0133301D01*
X0089581Y0130231D01*
X0090343Y0129469D01*
X0092180Y0129469D01*
X0060999Y0121989D02*
X0060999Y0120388D01*
X0060999Y0121989D02*
X0060684Y0122304D01*
X0053004Y0161900D02*
X0053283Y0164406D01*
D59*
X0063597Y0128892D02*
X0063597Y0123695D01*
X0065487Y0121805D01*
X0075723Y0121805D02*
X0076983Y0123065D01*
D60*
X0065487Y0121805D02*
X0064988Y0122304D01*
X0060684Y0122304D01*
D61*
X0092022Y0122868D02*
X0092219Y0124246D01*
X0092022Y0122868D02*
X0094401Y0120883D01*
X0095596Y0120388D02*
X0102928Y0120388D01*
X0095596Y0120388D02*
X0095518Y0120390D01*
X0095440Y0120395D01*
X0095363Y0120404D01*
X0095285Y0120417D01*
X0095209Y0120433D01*
X0095134Y0120453D01*
X0095059Y0120476D01*
X0094985Y0120502D01*
X0094913Y0120532D01*
X0094843Y0120565D01*
X0094774Y0120602D01*
X0094706Y0120641D01*
X0094641Y0120684D01*
X0094578Y0120729D01*
X0094516Y0120778D01*
X0094457Y0120829D01*
X0094401Y0120883D01*
D62*
X0076825Y0124640D02*
X0076774Y0124638D01*
X0076724Y0124633D01*
X0076674Y0124624D01*
X0076625Y0124611D01*
X0076577Y0124595D01*
X0076530Y0124576D01*
X0076485Y0124553D01*
X0076442Y0124527D01*
X0076400Y0124499D01*
X0076361Y0124467D01*
X0076324Y0124432D01*
X0076289Y0124395D01*
X0076257Y0124356D01*
X0076229Y0124314D01*
X0076203Y0124271D01*
X0076180Y0124226D01*
X0076161Y0124179D01*
X0076145Y0124131D01*
X0076132Y0124082D01*
X0076123Y0124032D01*
X0076118Y0123982D01*
X0076116Y0123931D01*
X0047436Y0155219D02*
X0047436Y0156333D01*
X0046323Y0157446D01*
X0083991Y0071490D02*
X0085723Y0071490D01*
X0083991Y0071490D02*
X0083951Y0071451D01*
X0087495Y0067553D02*
X0088085Y0068144D01*
X0092180Y0071451D02*
X0092613Y0071884D01*
X0092219Y0071490D01*
X0097337Y0070703D02*
X0097337Y0067553D01*
X0098125Y0069916D02*
X0097337Y0070703D01*
X0131482Y0154969D02*
X0130257Y0156193D01*
X0131482Y0154969D02*
X0131538Y0154969D01*
X0131788Y0160230D02*
X0130953Y0160230D01*
X0125719Y0160787D02*
X0125107Y0160787D01*
X0125664Y0160787D01*
X0122601Y0164963D02*
X0122601Y0166076D01*
X0122601Y0164963D02*
X0124828Y0167190D01*
D63*
X0082770Y0124246D02*
X0077062Y0124246D01*
X0076432Y0123616D01*
D64*
X0064112Y0158588D03*
X0126499Y0149095D03*
X0083361Y0079168D03*
D65*
X0085329Y0071451D02*
X0092180Y0071451D01*
X0092613Y0071884D02*
X0092613Y0067947D01*
X0092611Y0067908D01*
X0092605Y0067870D01*
X0092596Y0067833D01*
X0092583Y0067796D01*
X0092566Y0067761D01*
X0092547Y0067728D01*
X0092524Y0067697D01*
X0092498Y0067668D01*
X0092469Y0067642D01*
X0092438Y0067619D01*
X0092405Y0067600D01*
X0092370Y0067583D01*
X0092333Y0067570D01*
X0092296Y0067561D01*
X0092258Y0067555D01*
X0092219Y0067553D01*
X0130563Y0155943D02*
X0125719Y0160787D01*
X0125107Y0160787D02*
X0127891Y0163571D01*
X0127890Y0163571D02*
X0127919Y0163597D01*
X0127950Y0163620D01*
X0127983Y0163639D01*
X0128018Y0163656D01*
X0128055Y0163669D01*
X0128092Y0163678D01*
X0128130Y0163684D01*
X0128169Y0163686D01*
X0128208Y0163684D01*
X0128246Y0163678D01*
X0128283Y0163669D01*
X0128320Y0163656D01*
X0128355Y0163639D01*
X0128388Y0163620D01*
X0128419Y0163597D01*
X0128448Y0163571D01*
X0057238Y0162849D02*
X0052726Y0158337D01*
X0052726Y0157725D01*
X0049942Y0160509D01*
X0049942Y0161065D01*
M02*
