%
M48
M72
T01C0.0118
T02C0.0120
T03C0.0130
T04C0.0197
T05C0.0200
T06C0.0236
T07C0.0250
T08C0.0276
T09C0.0354
T10C0.0470
T11C0.0500
%
T01
X9365Y21437
X9109Y22030
X8833Y22517
X9396Y22545
X9929Y22540
X9915Y21657
X11933Y22517
X12209Y22030
X12496Y22545
X13029Y22540
X13015Y21657
X12465Y21437
T02
X5365Y6315
X8440Y9940
X9440Y9365
X8402Y11340
X7727Y11578
X8340Y13246
X8590Y13443
X8940Y13640
X9340Y14290
X8990Y15390
X9940Y15840
X10440Y16340
X10640Y16540
X11040Y16240
X10815Y15865
X10815Y15590
X11215Y15565
X11290Y15290
X11465Y16340
X13007Y16962
X13384Y16492
X14074Y16978
X14374Y16861
X13989Y17458
X13682Y17659
X9940Y17540
X8990Y17090
X8940Y16640
X8690Y16840
X7840Y16040
X7640Y16265
X7990Y14690
X8190Y14490
X5788Y13478
X5498Y13382
X5239Y13211
X4993Y13041
X11690Y12090
X12165Y11890
X12590Y11740
X13040Y11590
T03
X14290Y13490
X15590Y13240
X16740Y13390
X15890Y15740
X14540Y15440
X15090Y9690
X15440Y8940
X16340Y8940
X16340Y9390
X16340Y8390
X15940Y6590
X15540Y6590
X6715Y7865
X4790Y8315
X4790Y8740
X6265Y13215
X6265Y13690
X6290Y14965
X6290Y15415
X6340Y16390
X6640Y17090
T04
X5640Y14240
X11790Y14440
X11790Y13990
X12240Y13990
X12240Y14440
X12240Y14890
X12240Y15340
X11790Y15340
X11790Y14890
X11790Y13540
X12240Y13540
X12240Y13090
X11790Y13090
X13440Y13090
X13440Y13540
X13440Y13990
X13440Y14440
X13440Y14890
X13440Y15340
X15190Y16340
X15190Y16890
X16340Y7815
X15140Y7215
X14690Y6715
T05
X12940Y8290
X11340Y8290
X9590Y7640
X8390Y7740
X9140Y5140
X6715Y10865
X3944Y13583
X11949Y17726
X12612Y18173
X15040Y11040
T06
X14370Y21560
X14370Y21940
X14370Y22320
X13610Y22320
X13610Y21940
X13610Y21560
X11270Y21560
X11270Y21940
X11270Y22320
X10510Y22320
X10510Y21940
X10510Y21560
X8170Y21560
X8170Y21940
X8170Y22320
X7410Y22320
X7410Y21940
X7410Y21560
T07
X8640Y10990
X9140Y10990
X9140Y10490
X8640Y10490
X9640Y10490
X10140Y10490
X10640Y10490
X10640Y10990
X10140Y10990
X9640Y10990
X11140Y10990
X11640Y10990
X12140Y10990
X12140Y10490
X11640Y10490
X11140Y10490
X12640Y10490
X13140Y10490
X13140Y10990
X12640Y10990
T08
X10890Y8790
X10140Y8790
T09
X7041Y4736
X6357Y5190
X7840Y4340
X8740Y4040
X13040Y4090
X13990Y4340
X14740Y4740
X15440Y5190
X17990Y9640
X17990Y12140
X17694Y13091
X17340Y14132
X11340Y18090
X6990Y14390
X3790Y12140
X3790Y9640
T10
X8015Y10740
X13765Y10740
T11
X15948Y10080
X10080Y5832
X5832Y11700
M30
