  0
SECTION
  2
HEADER
  9
$ACADVER
  1
AC1009
  9
$FILLMODE
 70
1
  9
$EXTMIN
 10
-77.1300
 20
-13.1300
 30
0.0000
  9
$EXTMAX
 10
41.3551
 20
72.1300
 30
0.0000
  0
ENDSEC
  0
SECTION
  2
TABLES
  0
TABLE
  2
LTYPE
 70
1
  0
LTYPE
  2
CONTINUOUS
 70
64
  3
Solid line
 72
65
 73
0
 40
0
  0
ENDTAB
  0
TABLE
  2
LAYER
 70
255
  0
LAYER
  2
17
 70
64
 62
110
  6
CONTINUOUS
  0
LAYER
  2
20
 70
64
 62
31
  6
CONTINUOUS
  0
LAYER
  2
44
 70
64
 62
253
  6
CONTINUOUS
  0
LAYER
  2
45
 70
64
 62
253
  6
CONTINUOUS
  0
LAYER
  2
46
 70
64
 62
140
  6
CONTINUOUS
  0
LAYER
  2
47
 70
64
 62
253
  6
CONTINUOUS
  0
LAYER
  2
249
 70
64
 62
253
  6
CONTINUOUS
  0
ENDTAB
  0
ENDSEC
  0
SECTION
  2
BLOCKS
  0
BLOCK
  8
0
  2
RECT
 70
64
 10
0.0000
 20
0.0000
 30
0.0000
  3
RECT
  0
SOLID
  8
0
 10
-0.5000
 20
-0.5000
 30
0.0000
 11
0.5000
 21
-0.5000
 31
0.0000
 12
-0.5000
 22
0.5000
 32
0.0000
 13
0.5000
 23
0.5000
 33
0.0000
  0
ENDBLK
  8
0
  0
BLOCK
  8
0
  2
PIE
 70
64
 10
0.0000
 20
0.0000
 30
0.0000
  3
PIE
  0
POLYLINE
  8
0
 66
1
 10
0.0000
 20
0.0000
 30
0.0000
 40
0.5000
 41
0.5000
 70
0
  0
VERTEX
  8
0
 10
0.0000
 20
-0.2500
 30
0.0000
 42
1.0000
  0
VERTEX
  8
0
 10
0.0000
 20
0.2500
 30
0.0000
 42
1.0000
  0
VERTEX
  8
0
 10
0.0000
 20
-0.2500
 30
0.0000
  0
SEQEND
  8
0
  0
ENDBLK
  8
0
  0
BLOCK
  8
0
  2
OCTAGONP
 70
64
 10
0.0000
 20
0.0000
 30
0.0000
  3
OCTAGONP
  0
POLYLINE
  8
0
 66
1
 10
0.0000
 20
0.0000
 30
0.0000
 40
0.5000
 41
0.5000
 70
0
  0
VERTEX
  8
0
 10
-0.2500
 20
-0.1036
 30
0.0000
  0
VERTEX
  8
0
 10
-0.2500
 20
0.1036
 30
0.0000
  0
VERTEX
  8
0
 10
-0.1036
 20
0.2500
 30
0.0000
  0
VERTEX
  8
0
 10
0.1036
 20
0.2500
 30
0.0000
  0
VERTEX
  8
0
 10
0.2500
 20
0.1036
 30
0.0000
  0
VERTEX
  8
0
 10
0.2500
 20
-0.1036
 30
0.0000
  0
VERTEX
  8
0
 10
0.1036
 20
-0.2500
 30
0.0000
  0
VERTEX
  8
0
 10
-0.1036
 20
-0.2500
 30
0.0000
  0
VERTEX
  8
0
 10
-0.2500
 20
-0.1036
 30
0.0000
  0
VERTEX
  8
0
 10
-0.2500
 20
0.1036
 30
0.0000
  0
SEQEND
  8
0
  0
ENDBLK
  8
0
  0
BLOCK
  8
0
  2
SQUAREP
 70
64
 10
0.0000
 20
0.0000
 30
0.0000
  3
SQUAREP
  0
SOLID
  8
0
 10
-0.5000
 20
-0.5000
 30
0.0000
 11
0.5000
 21
-0.5000
 31
0.0000
 12
-0.5000
 22
0.5000
 32
0.0000
 13
0.5000
 23
0.5000
 33
0.0000
  0
ENDBLK
  8
0
  0
BLOCK
  8
0
  2
ROUNDP
 70
64
 10
0.0000
 20
0.0000
 30
0.0000
  3
ROUNDP
  0
POLYLINE
  8
0
 66
1
 10
0.0000
 20
0.0000
 30
0.0000
 40
0.5000
 41
0.5000
 70
0
  0
VERTEX
  8
0
 10
0.0000
 20
-0.2500
 30
0.0000
 42
1.0000
  0
VERTEX
  8
0
 10
0.0000
 20
0.2500
 30
0.0000
 42
1.0000
  0
VERTEX
  8
0
 10
0.0000
 20
-0.2500
 30
0.0000
  0
SEQEND
  8
0
  0
ENDBLK
  8
0
  0
BLOCK
  8
0
  2
ANNULUSP
 70
64
 10
0.0000
 20
0.0000
 30
0.0000
  3
ANNULUSP
  0
POLYLINE
  8
0
 66
1
 10
0.0000
 20
0.0000
 30
0.0000
 40
0.5000
 41
0.5000
 70
0
  0
VERTEX
  8
0
 10
0.0000
 20
-0.2500
 30
0.0000
 42
1.0000
  0
VERTEX
  8
0
 10
0.0000
 20
0.2500
 30
0.0000
 42
1.0000
  0
VERTEX
  8
0
 10
0.0000
 20
-0.2500
 30
0.0000
  0
SEQEND
  8
0
  0
ENDBLK
  8
0
  0
BLOCK
  8
0
  2
THERMALP
 70
64
 10
0.0000
 20
0.0000
 30
0.0000
  3
THERMALP
  0
POLYLINE
  8
0
 66
1
 10
0.0000
 20
0.0000
 30
0.0000
 40
0.1000
 41
0.1000
 70
0
  0
VERTEX
  8
0
 10
-0.2379
 20
0.4500
 30
0.0000
  0
VERTEX
  8
0
 10
0.2379
 20
0.4500
 30
0.0000
  0
SEQEND
  8
0
  0
POLYLINE
  8
0
 66
1
 10
0.0000
 20
0.0000
 30
0.0000
 40
0.0500
 41
0.0500
 70
0
  0
VERTEX
  8
0
 10
0.2379
 20
0.4250
 30
0.0000
 42
1.0000
  0
VERTEX
  8
0
 10
0.2379
 20
0.4750
 30
0.0000
  0
SEQEND
  8
0
  0
POLYLINE
  8
0
 66
1
 10
0.0000
 20
0.0000
 30
0.0000
 40
0.0500
 41
0.0500
 70
0
  0
VERTEX
  8
0
 10
-0.2379
 20
0.4750
 30
0.0000
 42
1.0000
  0
VERTEX
  8
0
 10
-0.2379
 20
0.4250
 30
0.0000
  0
SEQEND
  8
0
  0
POLYLINE
  8
0
 66
1
 10
0.0000
 20
0.0000
 30
0.0000
 40
0.1000
 41
0.1000
 70
0
  0
VERTEX
  8
0
 10
0.4500
 20
0.2379
 30
0.0000
  0
VERTEX
  8
0
 10
0.4500
 20
-0.2379
 30
0.0000
  0
SEQEND
  8
0
  0
POLYLINE
  8
0
 66
1
 10
0.0000
 20
0.0000
 30
0.0000
 40
0.0500
 41
0.0500
 70
0
  0
VERTEX
  8
0
 10
0.4250
 20
-0.2379
 30
0.0000
 42
1.0000
  0
VERTEX
  8
0
 10
0.4750
 20
-0.2379
 30
0.0000
  0
SEQEND
  8
0
  0
POLYLINE
  8
0
 66
1
 10
0.0000
 20
0.0000
 30
0.0000
 40
0.0500
 41
0.0500
 70
0
  0
VERTEX
  8
0
 10
0.4750
 20
0.2379
 30
0.0000
 42
1.0000
  0
VERTEX
  8
0
 10
0.4250
 20
0.2379
 30
0.0000
  0
SEQEND
  8
0
  0
POLYLINE
  8
0
 66
1
 10
0.0000
 20
0.0000
 30
0.0000
 40
0.1000
 41
0.1000
 70
0
  0
VERTEX
  8
0
 10
0.2379
 20
-0.4500
 30
0.0000
  0
VERTEX
  8
0
 10
-0.2379
 20
-0.4500
 30
0.0000
  0
SEQEND
  8
0
  0
POLYLINE
  8
0
 66
1
 10
0.0000
 20
0.0000
 30
0.0000
 40
0.0500
 41
0.0500
 70
0
  0
VERTEX
  8
0
 10
-0.2379
 20
-0.4250
 30
0.0000
 42
1.0000
  0
VERTEX
  8
0
 10
-0.2379
 20
-0.4750
 30
0.0000
  0
SEQEND
  8
0
  0
POLYLINE
  8
0
 66
1
 10
0.0000
 20
0.0000
 30
0.0000
 40
0.0500
 41
0.0500
 70
0
  0
VERTEX
  8
0
 10
0.2379
 20
-0.4750
 30
0.0000
 42
1.0000
  0
VERTEX
  8
0
 10
0.2379
 20
-0.4250
 30
0.0000
  0
SEQEND
  8
0
  0
POLYLINE
  8
0
 66
1
 10
0.0000
 20
0.0000
 30
0.0000
 40
0.1000
 41
0.1000
 70
0
  0
VERTEX
  8
0
 10
-0.4500
 20
-0.2379
 30
0.0000
  0
VERTEX
  8
0
 10
-0.4500
 20
0.2379
 30
0.0000
  0
SEQEND
  8
0
  0
POLYLINE
  8
0
 66
1
 10
0.0000
 20
0.0000
 30
0.0000
 40
0.0500
 41
0.0500
 70
0
  0
VERTEX
  8
0
 10
-0.4250
 20
0.2379
 30
0.0000
 42
1.0000
  0
VERTEX
  8
0
 10
-0.4750
 20
0.2379
 30
0.0000
  0
SEQEND
  8
0
  0
POLYLINE
  8
0
 66
1
 10
0.0000
 20
0.0000
 30
0.0000
 40
0.0500
 41
0.0500
 70
0
  0
VERTEX
  8
0
 10
-0.4750
 20
-0.2379
 30
0.0000
 42
1.0000
  0
VERTEX
  8
0
 10
-0.4250
 20
-0.2379
 30
0.0000
  0
SEQEND
  8
0
  0
ENDBLK
  8
0
  0
BLOCK
  8
0
  2
OCTAGONV
 70
64
 10
0.0000
 20
0.0000
 30
0.0000
  3
OCTAGONV
  0
POLYLINE
  8
0
 66
1
 10
0.0000
 20
0.0000
 30
0.0000
 40
0.5000
 41
0.5000
 70
0
  0
VERTEX
  8
0
 10
-0.2500
 20
-0.1036
 30
0.0000
  0
VERTEX
  8
0
 10
-0.2500
 20
0.1036
 30
0.0000
  0
VERTEX
  8
0
 10
-0.1036
 20
0.2500
 30
0.0000
  0
VERTEX
  8
0
 10
0.1036
 20
0.2500
 30
0.0000
  0
VERTEX
  8
0
 10
0.2500
 20
0.1036
 30
0.0000
  0
VERTEX
  8
0
 10
0.2500
 20
-0.1036
 30
0.0000
  0
VERTEX
  8
0
 10
0.1036
 20
-0.2500
 30
0.0000
  0
VERTEX
  8
0
 10
-0.1036
 20
-0.2500
 30
0.0000
  0
VERTEX
  8
0
 10
-0.2500
 20
-0.1036
 30
0.0000
  0
VERTEX
  8
0
 10
-0.2500
 20
0.1036
 30
0.0000
  0
SEQEND
  8
0
  0
ENDBLK
  8
0
  0
BLOCK
  8
0
  2
SQUAREV
 70
64
 10
0.0000
 20
0.0000
 30
0.0000
  3
SQUAREV
  0
SOLID
  8
0
 10
-0.5000
 20
-0.5000
 30
0.0000
 11
0.5000
 21
-0.5000
 31
0.0000
 12
-0.5000
 22
0.5000
 32
0.0000
 13
0.5000
 23
0.5000
 33
0.0000
  0
ENDBLK
  8
0
  0
BLOCK
  8
0
  2
ROUNDV
 70
64
 10
0.0000
 20
0.0000
 30
0.0000
  3
ROUNDV
  0
POLYLINE
  8
0
 66
1
 10
0.0000
 20
0.0000
 30
0.0000
 40
0.5000
 41
0.5000
 70
0
  0
VERTEX
  8
0
 10
0.0000
 20
-0.2500
 30
0.0000
 42
1.0000
  0
VERTEX
  8
0
 10
0.0000
 20
0.2500
 30
0.0000
 42
1.0000
  0
VERTEX
  8
0
 10
0.0000
 20
-0.2500
 30
0.0000
  0
SEQEND
  8
0
  0
ENDBLK
  8
0
  0
BLOCK
  8
0
  2
ANNULUSV
 70
64
 10
0.0000
 20
0.0000
 30
0.0000
  3
ANNULUSV
  0
POLYLINE
  8
0
 66
1
 10
0.0000
 20
0.0000
 30
0.0000
 40
0.5000
 41
0.5000
 70
0
  0
VERTEX
  8
0
 10
0.0000
 20
-0.2500
 30
0.0000
 42
1.0000
  0
VERTEX
  8
0
 10
0.0000
 20
0.2500
 30
0.0000
 42
1.0000
  0
VERTEX
  8
0
 10
0.0000
 20
-0.2500
 30
0.0000
  0
SEQEND
  8
0
  0
ENDBLK
  8
0
  0
BLOCK
  8
0
  2
THERMALV
 70
64
 10
0.0000
 20
0.0000
 30
0.0000
  3
THERMALV
  0
POLYLINE
  8
0
 66
1
 10
0.0000
 20
0.0000
 30
0.0000
 40
0.1000
 41
0.1000
 70
0
  0
VERTEX
  8
0
 10
-0.2379
 20
0.4500
 30
0.0000
  0
VERTEX
  8
0
 10
0.2379
 20
0.4500
 30
0.0000
  0
SEQEND
  8
0
  0
POLYLINE
  8
0
 66
1
 10
0.0000
 20
0.0000
 30
0.0000
 40
0.0500
 41
0.0500
 70
0
  0
VERTEX
  8
0
 10
0.2379
 20
0.4250
 30
0.0000
 42
1.0000
  0
VERTEX
  8
0
 10
0.2379
 20
0.4750
 30
0.0000
  0
SEQEND
  8
0
  0
POLYLINE
  8
0
 66
1
 10
0.0000
 20
0.0000
 30
0.0000
 40
0.0500
 41
0.0500
 70
0
  0
VERTEX
  8
0
 10
-0.2379
 20
0.4750
 30
0.0000
 42
1.0000
  0
VERTEX
  8
0
 10
-0.2379
 20
0.4250
 30
0.0000
  0
SEQEND
  8
0
  0
POLYLINE
  8
0
 66
1
 10
0.0000
 20
0.0000
 30
0.0000
 40
0.1000
 41
0.1000
 70
0
  0
VERTEX
  8
0
 10
0.4500
 20
0.2379
 30
0.0000
  0
VERTEX
  8
0
 10
0.4500
 20
-0.2379
 30
0.0000
  0
SEQEND
  8
0
  0
POLYLINE
  8
0
 66
1
 10
0.0000
 20
0.0000
 30
0.0000
 40
0.0500
 41
0.0500
 70
0
  0
VERTEX
  8
0
 10
0.4250
 20
-0.2379
 30
0.0000
 42
1.0000
  0
VERTEX
  8
0
 10
0.4750
 20
-0.2379
 30
0.0000
  0
SEQEND
  8
0
  0
POLYLINE
  8
0
 66
1
 10
0.0000
 20
0.0000
 30
0.0000
 40
0.0500
 41
0.0500
 70
0
  0
VERTEX
  8
0
 10
0.4750
 20
0.2379
 30
0.0000
 42
1.0000
  0
VERTEX
  8
0
 10
0.4250
 20
0.2379
 30
0.0000
  0
SEQEND
  8
0
  0
POLYLINE
  8
0
 66
1
 10
0.0000
 20
0.0000
 30
0.0000
 40
0.1000
 41
0.1000
 70
0
  0
VERTEX
  8
0
 10
0.2379
 20
-0.4500
 30
0.0000
  0
VERTEX
  8
0
 10
-0.2379
 20
-0.4500
 30
0.0000
  0
SEQEND
  8
0
  0
POLYLINE
  8
0
 66
1
 10
0.0000
 20
0.0000
 30
0.0000
 40
0.0500
 41
0.0500
 70
0
  0
VERTEX
  8
0
 10
-0.2379
 20
-0.4250
 30
0.0000
 42
1.0000
  0
VERTEX
  8
0
 10
-0.2379
 20
-0.4750
 30
0.0000
  0
SEQEND
  8
0
  0
POLYLINE
  8
0
 66
1
 10
0.0000
 20
0.0000
 30
0.0000
 40
0.0500
 41
0.0500
 70
0
  0
VERTEX
  8
0
 10
0.2379
 20
-0.4750
 30
0.0000
 42
1.0000
  0
VERTEX
  8
0
 10
0.2379
 20
-0.4250
 30
0.0000
  0
SEQEND
  8
0
  0
POLYLINE
  8
0
 66
1
 10
0.0000
 20
0.0000
 30
0.0000
 40
0.1000
 41
0.1000
 70
0
  0
VERTEX
  8
0
 10
-0.4500
 20
-0.2379
 30
0.0000
  0
VERTEX
  8
0
 10
-0.4500
 20
0.2379
 30
0.0000
  0
SEQEND
  8
0
  0
POLYLINE
  8
0
 66
1
 10
0.0000
 20
0.0000
 30
0.0000
 40
0.0500
 41
0.0500
 70
0
  0
VERTEX
  8
0
 10
-0.4250
 20
0.2379
 30
0.0000
 42
1.0000
  0
VERTEX
  8
0
 10
-0.4750
 20
0.2379
 30
0.0000
  0
SEQEND
  8
0
  0
POLYLINE
  8
0
 66
1
 10
0.0000
 20
0.0000
 30
0.0000
 40
0.0500
 41
0.0500
 70
0
  0
VERTEX
  8
0
 10
-0.4750
 20
-0.2379
 30
0.0000
 42
1.0000
  0
VERTEX
  8
0
 10
-0.4250
 20
-0.2379
 30
0.0000
  0
SEQEND
  8
0
  0
ENDBLK
  8
0
  0
ENDSEC
  0
SECTION
  2
ENTITIES
  0
CIRCLE
  8
20
 10
-60.9000
 20
12.5000
 30
0.0000
 40
0.9000
  0
CIRCLE
  8
20
 10
-60.9000
 20
26.5000
 30
0.0000
 40
0.9000
  0
CIRCLE
  8
20
 10
-58.4000
 20
9.9000
 30
0.0000
 40
1.1500
  0
CIRCLE
  8
20
 10
-58.4000
 20
29.1000
 30
0.0000
 40
1.1500
  0
INSERT
  8
17
  2
ROUNDP
 10
-64.7700
 20
43.2300
 30
0.0000
 41
1.1200
 42
1.1200
 43
1.0000
 50
90.0000
  0
INSERT
  8
17
  2
ROUNDP
 10
-64.7700
 20
43.2300
 30
0.0000
 41
1.1200
 42
1.1200
 43
1.0000
 50
90.0000
  0
CIRCLE
  8
44
 10
-64.7700
 20
43.2300
 30
0.0000
 40
0.4000
  0
INSERT
  8
17
  2
ROUNDP
 10
-62.2300
 20
43.2300
 30
0.0000
 41
1.1200
 42
1.1200
 43
1.0000
 50
90.0000
  0
INSERT
  8
17
  2
ROUNDP
 10
-62.2300
 20
43.2300
 30
0.0000
 41
1.1200
 42
1.1200
 43
1.0000
 50
90.0000
  0
CIRCLE
  8
44
 10
-62.2300
 20
43.2300
 30
0.0000
 40
0.4000
  0
INSERT
  8
17
  2
ROUNDP
 10
-62.2300
 20
45.7700
 30
0.0000
 41
1.1200
 42
1.1200
 43
1.0000
 50
90.0000
  0
INSERT
  8
17
  2
ROUNDP
 10
-62.2300
 20
45.7700
 30
0.0000
 41
1.1200
 42
1.1200
 43
1.0000
 50
90.0000
  0
CIRCLE
  8
44
 10
-62.2300
 20
45.7700
 30
0.0000
 40
0.4000
  0
INSERT
  8
17
  2
ROUNDP
 10
-64.7700
 20
45.7700
 30
0.0000
 41
1.1200
 42
1.1200
 43
1.0000
 50
90.0000
  0
INSERT
  8
17
  2
ROUNDP
 10
-64.7700
 20
45.7700
 30
0.0000
 41
1.1200
 42
1.1200
 43
1.0000
 50
90.0000
  0
CIRCLE
  8
44
 10
-64.7700
 20
45.7700
 30
0.0000
 40
0.4000
  0
INSERT
  8
17
  2
ROUNDP
 10
-63.5000
 20
44.5000
 30
0.0000
 41
1.1200
 42
1.1200
 43
1.0000
 50
90.0000
  0
INSERT
  8
17
  2
ROUNDP
 10
-63.5000
 20
44.5000
 30
0.0000
 41
1.1200
 42
1.1200
 43
1.0000
 50
90.0000
  0
CIRCLE
  8
44
 10
-63.5000
 20
44.5000
 30
0.0000
 40
0.4000
  0
INSERT
  8
17
  2
ROUNDP
 10
-64.7700
 20
38.7300
 30
0.0000
 41
1.1200
 42
1.1200
 43
1.0000
 50
90.0000
  0
INSERT
  8
17
  2
ROUNDP
 10
-64.7700
 20
38.7300
 30
0.0000
 41
1.1200
 42
1.1200
 43
1.0000
 50
90.0000
  0
CIRCLE
  8
44
 10
-64.7700
 20
38.7300
 30
0.0000
 40
0.4000
  0
INSERT
  8
17
  2
ROUNDP
 10
-62.2300
 20
38.7300
 30
0.0000
 41
1.1200
 42
1.1200
 43
1.0000
 50
90.0000
  0
INSERT
  8
17
  2
ROUNDP
 10
-62.2300
 20
38.7300
 30
0.0000
 41
1.1200
 42
1.1200
 43
1.0000
 50
90.0000
  0
CIRCLE
  8
44
 10
-62.2300
 20
38.7300
 30
0.0000
 40
0.4000
  0
INSERT
  8
17
  2
ROUNDP
 10
-62.2300
 20
41.2700
 30
0.0000
 41
1.1200
 42
1.1200
 43
1.0000
 50
90.0000
  0
INSERT
  8
17
  2
ROUNDP
 10
-62.2300
 20
41.2700
 30
0.0000
 41
1.1200
 42
1.1200
 43
1.0000
 50
90.0000
  0
CIRCLE
  8
44
 10
-62.2300
 20
41.2700
 30
0.0000
 40
0.4000
  0
INSERT
  8
17
  2
ROUNDP
 10
-64.7700
 20
41.2700
 30
0.0000
 41
1.1200
 42
1.1200
 43
1.0000
 50
90.0000
  0
INSERT
  8
17
  2
ROUNDP
 10
-64.7700
 20
41.2700
 30
0.0000
 41
1.1200
 42
1.1200
 43
1.0000
 50
90.0000
  0
CIRCLE
  8
44
 10
-64.7700
 20
41.2700
 30
0.0000
 40
0.4000
  0
INSERT
  8
17
  2
ROUNDP
 10
-63.5000
 20
40.0000
 30
0.0000
 41
1.1200
 42
1.1200
 43
1.0000
 50
90.0000
  0
INSERT
  8
17
  2
ROUNDP
 10
-63.5000
 20
40.0000
 30
0.0000
 41
1.1200
 42
1.1200
 43
1.0000
 50
90.0000
  0
CIRCLE
  8
44
 10
-63.5000
 20
40.0000
 30
0.0000
 40
0.4000
  0
INSERT
  8
17
  2
ROUNDP
 10
-64.7700
 20
34.2300
 30
0.0000
 41
1.1200
 42
1.1200
 43
1.0000
 50
90.0000
  0
INSERT
  8
17
  2
ROUNDP
 10
-64.7700
 20
34.2300
 30
0.0000
 41
1.1200
 42
1.1200
 43
1.0000
 50
90.0000
  0
CIRCLE
  8
44
 10
-64.7700
 20
34.2300
 30
0.0000
 40
0.4000
  0
INSERT
  8
17
  2
ROUNDP
 10
-62.2300
 20
34.2300
 30
0.0000
 41
1.1200
 42
1.1200
 43
1.0000
 50
90.0000
  0
INSERT
  8
17
  2
ROUNDP
 10
-62.2300
 20
34.2300
 30
0.0000
 41
1.1200
 42
1.1200
 43
1.0000
 50
90.0000
  0
CIRCLE
  8
44
 10
-62.2300
 20
34.2300
 30
0.0000
 40
0.4000
  0
INSERT
  8
17
  2
ROUNDP
 10
-62.2300
 20
36.7700
 30
0.0000
 41
1.1200
 42
1.1200
 43
1.0000
 50
90.0000
  0
INSERT
  8
17
  2
ROUNDP
 10
-62.2300
 20
36.7700
 30
0.0000
 41
1.1200
 42
1.1200
 43
1.0000
 50
90.0000
  0
CIRCLE
  8
44
 10
-62.2300
 20
36.7700
 30
0.0000
 40
0.4000
  0
INSERT
  8
17
  2
ROUNDP
 10
-64.7700
 20
36.7700
 30
0.0000
 41
1.1200
 42
1.1200
 43
1.0000
 50
90.0000
  0
INSERT
  8
17
  2
ROUNDP
 10
-64.7700
 20
36.7700
 30
0.0000
 41
1.1200
 42
1.1200
 43
1.0000
 50
90.0000
  0
CIRCLE
  8
44
 10
-64.7700
 20
36.7700
 30
0.0000
 40
0.4000
  0
INSERT
  8
17
  2
ROUNDP
 10
-63.5000
 20
35.5000
 30
0.0000
 41
1.1200
 42
1.1200
 43
1.0000
 50
90.0000
  0
INSERT
  8
17
  2
ROUNDP
 10
-63.5000
 20
35.5000
 30
0.0000
 41
1.1200
 42
1.1200
 43
1.0000
 50
90.0000
  0
CIRCLE
  8
44
 10
-63.5000
 20
35.5000
 30
0.0000
 40
0.4000
  0
CIRCLE
  8
20
 10
-26.3700
 20
0.6000
 30
0.0000
 40
0.5950
  0
CIRCLE
  8
20
 10
-10.8300
 20
0.6000
 30
0.0000
 40
0.5950
  0
POLYLINE
  8
20
 66
1
 10
0.0000
 20
0.0000
 30
0.0000
 40
0.1270
 41
0.1270
 70
0
  0
VERTEX
  8
20
 10
10.9000
 20
-3.0000
 30
0.0000
  0
VERTEX
  8
20
 10
10.9000
 20
66.0000
 30
0.0000
  0
SEQEND
  8
0
  0
POLYLINE
  8
20
 66
1
 10
0.0000
 20
0.0000
 30
0.0000
 40
0.0635
 41
0.0635
 70
0
  0
VERTEX
  8
20
 10
10.9318
 20
66.0000
 30
0.0000
 42
1.0000
  0
VERTEX
  8
20
 10
10.8682
 20
66.0000
 30
0.0000
  0
SEQEND
  8
0
  0
POLYLINE
  8
20
 66
1
 10
0.0000
 20
0.0000
 30
0.0000
 40
0.0635
 41
0.0635
 70
0
  0
VERTEX
  8
20
 10
10.8682
 20
-3.0000
 30
0.0000
 42
1.0000
  0
VERTEX
  8
20
 10
10.9318
 20
-3.0000
 30
0.0000
  0
SEQEND
  8
0
  0
POLYLINE
  8
20
 66
1
 10
0.0000
 20
0.0000
 30
0.0000
 40
0.1270
 41
0.1270
 70
0
  0
VERTEX
  8
20
 10
10.9000
 20
66.0000
 30
0.0000
  0
VERTEX
  8
20
 10
-43.3000
 20
66.0000
 30
0.0000
  0
SEQEND
  8
0
  0
POLYLINE
  8
20
 66
1
 10
0.0000
 20
0.0000
 30
0.0000
 40
0.0635
 41
0.0635
 70
0
  0
VERTEX
  8
20
 10
-43.3000
 20
66.0318
 30
0.0000
 42
1.0000
  0
VERTEX
  8
20
 10
-43.3000
 20
65.9682
 30
0.0000
  0
SEQEND
  8
0
  0
POLYLINE
  8
20
 66
1
 10
0.0000
 20
0.0000
 30
0.0000
 40
0.0635
 41
0.0635
 70
0
  0
VERTEX
  8
20
 10
10.9000
 20
65.9682
 30
0.0000
 42
1.0000
  0
VERTEX
  8
20
 10
10.9000
 20
66.0318
 30
0.0000
  0
SEQEND
  8
0
  0
POLYLINE
  8
20
 66
1
 10
0.0000
 20
0.0000
 30
0.0000
 40
0.1270
 41
0.1270
 70
0
  0
VERTEX
  8
20
 10
-43.3000
 20
66.0000
 30
0.0000
  0
VERTEX
  8
20
 10
-43.3000
 20
64.4000
 30
0.0000
  0
SEQEND
  8
0
  0
POLYLINE
  8
20
 66
1
 10
0.0000
 20
0.0000
 30
0.0000
 40
0.0635
 41
0.0635
 70
0
  0
VERTEX
  8
20
 10
-43.3318
 20
64.4000
 30
0.0000
 42
1.0000
  0
VERTEX
  8
20
 10
-43.2683
 20
64.4000
 30
0.0000
  0
SEQEND
  8
0
  0
POLYLINE
  8
20
 66
1
 10
0.0000
 20
0.0000
 30
0.0000
 40
0.0635
 41
0.0635
 70
0
  0
VERTEX
  8
20
 10
-43.2683
 20
66.0000
 30
0.0000
 42
1.0000
  0
VERTEX
  8
20
 10
-43.3318
 20
66.0000
 30
0.0000
  0
SEQEND
  8
0
  0
POLYLINE
  8
20
 66
1
 10
0.0000
 20
0.0000
 30
0.0000
 40
0.1270
 41
0.1270
 70
0
  0
VERTEX
  8
20
 10
-44.3000
 20
63.4000
 30
0.0000
 42
0.4142
  0
VERTEX
  8
20
 10
-43.3000
 20
64.4000
 30
0.0000
  0
SEQEND
  8
0
  0
POLYLINE
  8
20
 66
1
 10
0.0000
 20
0.0000
 30
0.0000
 40
0.0635
 41
0.0635
 70
0
  0
VERTEX
  8
20
 10
-44.3000
 20
63.4318
 30
0.0000
 42
1.0000
  0
VERTEX
  8
20
 10
-44.3000
 20
63.3683
 30
0.0000
  0
SEQEND
  8
0
  0
POLYLINE
  8
20
 66
1
 10
0.0000
 20
0.0000
 30
0.0000
 40
0.0635
 41
0.0635
 70
0
  0
VERTEX
  8
20
 10
-43.2683
 20
64.4000
 30
0.0000
 42
1.0000
  0
VERTEX
  8
20
 10
-43.3318
 20
64.4000
 30
0.0000
  0
SEQEND
  8
0
  0
POLYLINE
  8
20
 66
1
 10
0.0000
 20
0.0000
 30
0.0000
 40
0.1270
 41
0.1270
 70
0
  0
VERTEX
  8
20
 10
-44.3000
 20
63.4000
 30
0.0000
  0
VERTEX
  8
20
 10
-54.1000
 20
63.4000
 30
0.0000
  0
SEQEND
  8
0
  0
POLYLINE
  8
20
 66
1
 10
0.0000
 20
0.0000
 30
0.0000
 40
0.0635
 41
0.0635
 70
0
  0
VERTEX
  8
20
 10
-54.1000
 20
63.4318
 30
0.0000
 42
1.0000
  0
VERTEX
  8
20
 10
-54.1000
 20
63.3683
 30
0.0000
  0
SEQEND
  8
0
  0
POLYLINE
  8
20
 66
1
 10
0.0000
 20
0.0000
 30
0.0000
 40
0.0635
 41
0.0635
 70
0
  0
VERTEX
  8
20
 10
-44.3000
 20
63.3683
 30
0.0000
 42
1.0000
  0
VERTEX
  8
20
 10
-44.3000
 20
63.4318
 30
0.0000
  0
SEQEND
  8
0
  0
POLYLINE
  8
20
 66
1
 10
0.0000
 20
0.0000
 30
0.0000
 40
0.1270
 41
0.1270
 70
0
  0
VERTEX
  8
20
 10
-54.1000
 20
63.4000
 30
0.0000
  0
VERTEX
  8
20
 10
-54.1000
 20
62.3000
 30
0.0000
  0
SEQEND
  8
0
  0
POLYLINE
  8
20
 66
1
 10
0.0000
 20
0.0000
 30
0.0000
 40
0.0635
 41
0.0635
 70
0
  0
VERTEX
  8
20
 10
-54.1318
 20
62.3000
 30
0.0000
 42
1.0000
  0
VERTEX
  8
20
 10
-54.0682
 20
62.3000
 30
0.0000
  0
SEQEND
  8
0
  0
POLYLINE
  8
20
 66
1
 10
0.0000
 20
0.0000
 30
0.0000
 40
0.0635
 41
0.0635
 70
0
  0
VERTEX
  8
20
 10
-54.0682
 20
63.4000
 30
0.0000
 42
1.0000
  0
VERTEX
  8
20
 10
-54.1318
 20
63.4000
 30
0.0000
  0
SEQEND
  8
0
  0
POLYLINE
  8
20
 66
1
 10
0.0000
 20
0.0000
 30
0.0000
 40
0.1270
 41
0.1270
 70
0
  0
VERTEX
  8
20
 10
-55.1000
 20
61.3000
 30
0.0000
 42
0.4142
  0
VERTEX
  8
20
 10
-54.1000
 20
62.3000
 30
0.0000
  0
SEQEND
  8
0
  0
POLYLINE
  8
20
 66
1
 10
0.0000
 20
0.0000
 30
0.0000
 40
0.0635
 41
0.0635
 70
0
  0
VERTEX
  8
20
 10
-55.1000
 20
61.3318
 30
0.0000
 42
1.0000
  0
VERTEX
  8
20
 10
-55.1000
 20
61.2683
 30
0.0000
  0
SEQEND
  8
0
  0
POLYLINE
  8
20
 66
1
 10
0.0000
 20
0.0000
 30
0.0000
 40
0.0635
 41
0.0635
 70
0
  0
VERTEX
  8
20
 10
-54.0682
 20
62.3000
 30
0.0000
 42
1.0000
  0
VERTEX
  8
20
 10
-54.1318
 20
62.3000
 30
0.0000
  0
SEQEND
  8
0
  0
POLYLINE
  8
20
 66
1
 10
0.0000
 20
0.0000
 30
0.0000
 40
0.1270
 41
0.1270
 70
0
  0
VERTEX
  8
20
 10
-55.1000
 20
61.3000
 30
0.0000
  0
VERTEX
  8
20
 10
-65.6000
 20
61.3000
 30
0.0000
  0
SEQEND
  8
0
  0
POLYLINE
  8
20
 66
1
 10
0.0000
 20
0.0000
 30
0.0000
 40
0.0635
 41
0.0635
 70
0
  0
VERTEX
  8
20
 10
-65.6000
 20
61.3318
 30
0.0000
 42
1.0000
  0
VERTEX
  8
20
 10
-65.6000
 20
61.2683
 30
0.0000
  0
SEQEND
  8
0
  0
POLYLINE
  8
20
 66
1
 10
0.0000
 20
0.0000
 30
0.0000
 40
0.0635
 41
0.0635
 70
0
  0
VERTEX
  8
20
 10
-55.1000
 20
61.2683
 30
0.0000
 42
1.0000
  0
VERTEX
  8
20
 10
-55.1000
 20
61.3318
 30
0.0000
  0
SEQEND
  8
0
  0
POLYLINE
  8
20
 66
1
 10
0.0000
 20
0.0000
 30
0.0000
 40
0.1270
 41
0.1270
 70
0
  0
VERTEX
  8
20
 10
-65.6000
 20
61.3000
 30
0.0000
  0
VERTEX
  8
20
 10
-65.6000
 20
0.0000
 30
0.0000
  0
SEQEND
  8
0
  0
POLYLINE
  8
20
 66
1
 10
0.0000
 20
0.0000
 30
0.0000
 40
0.0635
 41
0.0635
 70
0
  0
VERTEX
  8
20
 10
-65.6318
 20
0.0000
 30
0.0000
 42
1.0000
  0
VERTEX
  8
20
 10
-65.5683
 20
0.0000
 30
0.0000
  0
SEQEND
  8
0
  0
POLYLINE
  8
20
 66
1
 10
0.0000
 20
0.0000
 30
0.0000
 40
0.0635
 41
0.0635
 70
0
  0
VERTEX
  8
20
 10
-65.5683
 20
61.3000
 30
0.0000
 42
1.0000
  0
VERTEX
  8
20
 10
-65.6318
 20
61.3000
 30
0.0000
  0
SEQEND
  8
0
  0
POLYLINE
  8
20
 66
1
 10
0.0000
 20
0.0000
 30
0.0000
 40
0.1270
 41
0.1270
 70
0
  0
VERTEX
  8
20
 10
-65.6000
 20
0.0000
 30
0.0000
  0
VERTEX
  8
20
 10
-39.5000
 20
0.0000
 30
0.0000
  0
SEQEND
  8
0
  0
POLYLINE
  8
20
 66
1
 10
0.0000
 20
0.0000
 30
0.0000
 40
0.0635
 41
0.0635
 70
0
  0
VERTEX
  8
20
 10
-39.5000
 20
-0.0318
 30
0.0000
 42
1.0000
  0
VERTEX
  8
20
 10
-39.5000
 20
0.0318
 30
0.0000
  0
SEQEND
  8
0
  0
POLYLINE
  8
20
 66
1
 10
0.0000
 20
0.0000
 30
0.0000
 40
0.0635
 41
0.0635
 70
0
  0
VERTEX
  8
20
 10
-65.6000
 20
0.0318
 30
0.0000
 42
1.0000
  0
VERTEX
  8
20
 10
-65.6000
 20
-0.0318
 30
0.0000
  0
SEQEND
  8
0
  0
POLYLINE
  8
20
 66
1
 10
0.0000
 20
0.0000
 30
0.0000
 40
0.1270
 41
0.1270
 70
0
  0
VERTEX
  8
20
 10
-38.5000
 20
-1.0000
 30
0.0000
 42
0.4142
  0
VERTEX
  8
20
 10
-39.5000
 20
0.0000
 30
0.0000
  0
SEQEND
  8
0
  0
POLYLINE
  8
20
 66
1
 10
0.0000
 20
0.0000
 30
0.0000
 40
0.0635
 41
0.0635
 70
0
  0
VERTEX
  8
20
 10
-38.5318
 20
-1.0000
 30
0.0000
 42
1.0000
  0
VERTEX
  8
20
 10
-38.4682
 20
-1.0000
 30
0.0000
  0
SEQEND
  8
0
  0
POLYLINE
  8
20
 66
1
 10
0.0000
 20
0.0000
 30
0.0000
 40
0.0635
 41
0.0635
 70
0
  0
VERTEX
  8
20
 10
-39.5000
 20
0.0318
 30
0.0000
 42
1.0000
  0
VERTEX
  8
20
 10
-39.5000
 20
-0.0318
 30
0.0000
  0
SEQEND
  8
0
  0
POLYLINE
  8
20
 66
1
 10
0.0000
 20
0.0000
 30
0.0000
 40
0.1270
 41
0.1270
 70
0
  0
VERTEX
  8
20
 10
-38.5000
 20
-1.0000
 30
0.0000
  0
VERTEX
  8
20
 10
-38.5000
 20
-3.0000
 30
0.0000
  0
SEQEND
  8
0
  0
POLYLINE
  8
20
 66
1
 10
0.0000
 20
0.0000
 30
0.0000
 40
0.0635
 41
0.0635
 70
0
  0
VERTEX
  8
20
 10
-38.5318
 20
-3.0000
 30
0.0000
 42
1.0000
  0
VERTEX
  8
20
 10
-38.4682
 20
-3.0000
 30
0.0000
  0
SEQEND
  8
0
  0
POLYLINE
  8
20
 66
1
 10
0.0000
 20
0.0000
 30
0.0000
 40
0.0635
 41
0.0635
 70
0
  0
VERTEX
  8
20
 10
-38.4682
 20
-1.0000
 30
0.0000
 42
1.0000
  0
VERTEX
  8
20
 10
-38.5318
 20
-1.0000
 30
0.0000
  0
SEQEND
  8
0
  0
POLYLINE
  8
20
 66
1
 10
0.0000
 20
0.0000
 30
0.0000
 40
0.1270
 41
0.1270
 70
0
  0
VERTEX
  8
20
 10
-38.5000
 20
-3.0000
 30
0.0000
  0
VERTEX
  8
20
 10
10.9000
 20
-3.0000
 30
0.0000
  0
SEQEND
  8
0
  0
POLYLINE
  8
20
 66
1
 10
0.0000
 20
0.0000
 30
0.0000
 40
0.0635
 41
0.0635
 70
0
  0
VERTEX
  8
20
 10
10.9000
 20
-3.0318
 30
0.0000
 42
1.0000
  0
VERTEX
  8
20
 10
10.9000
 20
-2.9682
 30
0.0000
  0
SEQEND
  8
0
  0
POLYLINE
  8
20
 66
1
 10
0.0000
 20
0.0000
 30
0.0000
 40
0.0635
 41
0.0635
 70
0
  0
VERTEX
  8
20
 10
-38.5000
 20
-2.9682
 30
0.0000
 42
1.0000
  0
VERTEX
  8
20
 10
-38.5000
 20
-3.0318
 30
0.0000
  0
SEQEND
  8
0
  0
INSERT
  8
17
  2
ROUNDP
 10
-54.6000
 20
59.0500
 30
0.0000
 41
4.0000
 42
4.0000
 43
1.0000
 50
180.0000
  0
INSERT
  8
17
  2
ROUNDP
 10
-54.6000
 20
59.0500
 30
0.0000
 41
4.0000
 42
4.0000
 43
1.0000
 50
180.0000
  0
CIRCLE
  8
44
 10
-54.6000
 20
59.0500
 30
0.0000
 40
1.3500
  0
INSERT
  8
17
  2
ROUNDP
 10
-54.6000
 20
2.5000
 30
0.0000
 41
4.0000
 42
4.0000
 43
1.0000
 50
180.0000
  0
INSERT
  8
17
  2
ROUNDP
 10
-54.6000
 20
2.5000
 30
0.0000
 41
4.0000
 42
4.0000
 43
1.0000
 50
180.0000
  0
CIRCLE
  8
44
 10
-54.6000
 20
2.5000
 30
0.0000
 40
1.3500
  0
CIRCLE
  8
20
 10
2.0000
 20
4.3347
 30
0.0000
 40
0.6604
  0
CIRCLE
  8
20
 10
-1.0500
 20
58.6907
 30
0.0000
 40
0.6604
  0
INSERT
  8
17
  2
ROUNDP
 10
-0.0320
 20
62.9960
 30
0.0000
 41
3.7084
 42
3.7084
 43
1.0000
 50
270.0000
  0
INSERT
  8
17
  2
ROUNDP
 10
-0.0320
 20
62.9960
 30
0.0000
 41
3.7084
 42
3.7084
 43
1.0000
 50
270.0000
  0
CIRCLE
  8
44
 10
-0.0320
 20
62.9960
 30
0.0000
 40
1.3462
  0
INSERT
  8
17
  2
ROUNDP
 10
-0.0320
 20
0.0040
 30
0.0000
 41
3.7084
 42
3.7084
 43
1.0000
 50
270.0000
  0
INSERT
  8
17
  2
ROUNDP
 10
-0.0320
 20
0.0040
 30
0.0000
 41
3.7084
 42
3.7084
 43
1.0000
 50
270.0000
  0
CIRCLE
  8
44
 10
-0.0320
 20
0.0040
 30
0.0000
 40
1.3462
  0
INSERT
  8
17
  2
ROUNDP
 10
-64.7700
 20
53.2300
 30
0.0000
 41
1.1200
 42
1.1200
 43
1.0000
 50
90.0000
  0
INSERT
  8
17
  2
ROUNDP
 10
-64.7700
 20
53.2300
 30
0.0000
 41
1.1200
 42
1.1200
 43
1.0000
 50
90.0000
  0
CIRCLE
  8
44
 10
-64.7700
 20
53.2300
 30
0.0000
 40
0.4000
  0
INSERT
  8
17
  2
ROUNDP
 10
-62.2300
 20
53.2300
 30
0.0000
 41
1.1200
 42
1.1200
 43
1.0000
 50
90.0000
  0
INSERT
  8
17
  2
ROUNDP
 10
-62.2300
 20
53.2300
 30
0.0000
 41
1.1200
 42
1.1200
 43
1.0000
 50
90.0000
  0
CIRCLE
  8
44
 10
-62.2300
 20
53.2300
 30
0.0000
 40
0.4000
  0
INSERT
  8
17
  2
ROUNDP
 10
-62.2300
 20
55.7700
 30
0.0000
 41
1.1200
 42
1.1200
 43
1.0000
 50
90.0000
  0
INSERT
  8
17
  2
ROUNDP
 10
-62.2300
 20
55.7700
 30
0.0000
 41
1.1200
 42
1.1200
 43
1.0000
 50
90.0000
  0
CIRCLE
  8
44
 10
-62.2300
 20
55.7700
 30
0.0000
 40
0.4000
  0
INSERT
  8
17
  2
ROUNDP
 10
-64.7700
 20
55.7700
 30
0.0000
 41
1.1200
 42
1.1200
 43
1.0000
 50
90.0000
  0
INSERT
  8
17
  2
ROUNDP
 10
-64.7700
 20
55.7700
 30
0.0000
 41
1.1200
 42
1.1200
 43
1.0000
 50
90.0000
  0
CIRCLE
  8
44
 10
-64.7700
 20
55.7700
 30
0.0000
 40
0.4000
  0
INSERT
  8
17
  2
ROUNDP
 10
-63.5000
 20
54.5000
 30
0.0000
 41
1.1200
 42
1.1200
 43
1.0000
 50
90.0000
  0
INSERT
  8
17
  2
ROUNDP
 10
-63.5000
 20
54.5000
 30
0.0000
 41
1.1200
 42
1.1200
 43
1.0000
 50
90.0000
  0
CIRCLE
  8
44
 10
-63.5000
 20
54.5000
 30
0.0000
 40
0.4000
  0
INSERT
  8
17
  2
ROUNDP
 10
-64.7700
 20
48.2300
 30
0.0000
 41
1.1200
 42
1.1200
 43
1.0000
 50
90.0000
  0
INSERT
  8
17
  2
ROUNDP
 10
-64.7700
 20
48.2300
 30
0.0000
 41
1.1200
 42
1.1200
 43
1.0000
 50
90.0000
  0
CIRCLE
  8
44
 10
-64.7700
 20
48.2300
 30
0.0000
 40
0.4000
  0
INSERT
  8
17
  2
ROUNDP
 10
-62.2300
 20
48.2300
 30
0.0000
 41
1.1200
 42
1.1200
 43
1.0000
 50
90.0000
  0
INSERT
  8
17
  2
ROUNDP
 10
-62.2300
 20
48.2300
 30
0.0000
 41
1.1200
 42
1.1200
 43
1.0000
 50
90.0000
  0
CIRCLE
  8
44
 10
-62.2300
 20
48.2300
 30
0.0000
 40
0.4000
  0
INSERT
  8
17
  2
ROUNDP
 10
-62.2300
 20
50.7700
 30
0.0000
 41
1.1200
 42
1.1200
 43
1.0000
 50
90.0000
  0
INSERT
  8
17
  2
ROUNDP
 10
-62.2300
 20
50.7700
 30
0.0000
 41
1.1200
 42
1.1200
 43
1.0000
 50
90.0000
  0
CIRCLE
  8
44
 10
-62.2300
 20
50.7700
 30
0.0000
 40
0.4000
  0
INSERT
  8
17
  2
ROUNDP
 10
-64.7700
 20
50.7700
 30
0.0000
 41
1.1200
 42
1.1200
 43
1.0000
 50
90.0000
  0
INSERT
  8
17
  2
ROUNDP
 10
-64.7700
 20
50.7700
 30
0.0000
 41
1.1200
 42
1.1200
 43
1.0000
 50
90.0000
  0
CIRCLE
  8
44
 10
-64.7700
 20
50.7700
 30
0.0000
 40
0.4000
  0
INSERT
  8
17
  2
ROUNDP
 10
-63.5000
 20
49.5000
 30
0.0000
 41
1.1200
 42
1.1200
 43
1.0000
 50
90.0000
  0
INSERT
  8
17
  2
ROUNDP
 10
-63.5000
 20
49.5000
 30
0.0000
 41
1.1200
 42
1.1200
 43
1.0000
 50
90.0000
  0
CIRCLE
  8
44
 10
-63.5000
 20
49.5000
 30
0.0000
 40
0.4000
  0
CIRCLE
  8
44
 10
-30.2000
 20
24.5000
 30
0.0000
 40
0.1000
  0
CIRCLE
  8
44
 10
-1.9961
 20
22.4039
 30
0.0000
 40
0.1000
  0
CIRCLE
  8
44
 10
0.9000
 20
17.7000
 30
0.0000
 40
0.1000
  0
CIRCLE
  8
44
 10
-31.6000
 20
11.1000
 30
0.0000
 40
0.1000
  0
CIRCLE
  8
44
 10
-30.4096
 20
11.9096
 30
0.0000
 40
0.1000
  0
CIRCLE
  8
44
 10
-3.0000
 20
29.8000
 30
0.0000
 40
0.1000
  0
CIRCLE
  8
44
 10
-49.2253
 20
28.3253
 30
0.0000
 40
0.1000
  0
CIRCLE
  8
44
 10
-49.4000
 20
14.1254
 30
0.0000
 40
0.1000
  0
CIRCLE
  8
44
 10
-49.2568
 20
20.5532
 30
0.0000
 40
0.1000
  0
CIRCLE
  8
44
 10
-2.9000
 20
25.3000
 30
0.0000
 40
0.1000
  0
CIRCLE
  8
44
 10
-28.9182
 20
28.1000
 30
0.0000
 40
0.1000
  0
CIRCLE
  8
44
 10
0.9000
 20
22.8000
 30
0.0000
 40
0.1000
  0
CIRCLE
  8
44
 10
-33.9816
 20
26.6184
 30
0.0000
 40
0.1000
  0
CIRCLE
  8
44
 10
0.8000
 20
54.0000
 30
0.0000
 40
0.1000
  0
CIRCLE
  8
44
 10
-3.2000
 20
62.2000
 30
0.0000
 40
0.1000
  0
CIRCLE
  8
44
 10
2.0000
 20
53.0000
 30
0.0000
 40
0.1000
  0
CIRCLE
  8
44
 10
-3.0700
 20
63.7500
 30
0.0000
 40
0.1000
  0
CIRCLE
  8
44
 10
-34.2518
 20
48.9987
 30
0.0000
 40
0.1000
  0
CIRCLE
  8
44
 10
-27.5768
 20
53.4987
 30
0.0000
 40
0.1500
  0
CIRCLE
  8
44
 10
-35.3518
 20
59.2487
 30
0.0000
 40
0.1500
  0
CIRCLE
  8
44
 10
-43.1000
 20
52.3000
 30
0.0000
 40
0.1000
  0
CIRCLE
  8
44
 10
-42.5000
 20
52.3000
 30
0.0000
 40
0.1000
  0
CIRCLE
  8
44
 10
-42.1000
 20
53.0000
 30
0.0000
 40
0.1000
  0
CIRCLE
  8
44
 10
-33.4518
 20
48.9487
 30
0.0000
 40
0.1000
  0
CIRCLE
  8
44
 10
-35.6000
 20
59.9000
 30
0.0000
 40
0.1000
  0
CIRCLE
  8
44
 10
-36.1768
 20
59.2237
 30
0.0000
 40
0.1000
  0
CIRCLE
  8
44
 10
-27.6518
 20
52.5987
 30
0.0000
 40
0.1000
  0
CIRCLE
  8
44
 10
-42.7000
 20
52.9000
 30
0.0000
 40
0.1000
  0
CIRCLE
  8
44
 10
-36.1768
 20
59.8237
 30
0.0000
 40
0.1000
  0
CIRCLE
  8
44
 10
-42.3000
 20
56.3000
 30
0.0000
 40
0.1000
  0
CIRCLE
  8
44
 10
-27.0518
 20
52.5987
 30
0.0000
 40
0.1000
  0
CIRCLE
  8
44
 10
-41.0000
 20
56.3000
 30
0.0000
 40
0.1000
  0
CIRCLE
  8
44
 10
-34.3205
 20
59.8795
 30
0.0000
 40
0.1000
  0
CIRCLE
  8
44
 10
-13.8518
 20
35.6987
 30
0.0000
 40
0.1000
  0
CIRCLE
  8
44
 10
-8.1768
 20
40.7987
 30
0.0000
 40
0.1500
  0
CIRCLE
  8
44
 10
-23.3000
 20
39.6000
 30
0.0000
 40
0.1000
  0
CIRCLE
  8
44
 10
-22.7000
 20
39.6000
 30
0.0000
 40
0.1000
  0
CIRCLE
  8
44
 10
-22.7000
 20
40.3000
 30
0.0000
 40
0.1000
  0
CIRCLE
  8
44
 10
-14.5518
 20
36.4487
 30
0.0000
 40
0.1000
  0
CIRCLE
  8
44
 10
-17.7518
 20
46.3987
 30
0.0000
 40
0.1000
  0
CIRCLE
  8
44
 10
-18.1768
 20
45.9237
 30
0.0000
 40
0.1000
  0
CIRCLE
  8
44
 10
-7.5518
 20
40.7987
 30
0.0000
 40
0.1000
  0
CIRCLE
  8
44
 10
-23.3000
 20
40.2000
 30
0.0000
 40
0.1000
  0
CIRCLE
  8
44
 10
-16.9768
 20
46.7237
 30
0.0000
 40
0.1000
  0
CIRCLE
  8
44
 10
-22.9000
 20
43.6000
 30
0.0000
 40
0.1000
  0
CIRCLE
  8
44
 10
-21.6000
 20
43.6000
 30
0.0000
 40
0.1000
  0
CIRCLE
  8
44
 10
-26.9000
 20
53.5000
 30
0.0000
 40
0.1000
  0
CIRCLE
  8
44
 10
-18.2000
 20
46.4000
 30
0.0000
 40
0.1000
  0
CIRCLE
  8
44
 10
-34.8000
 20
49.3000
 30
0.0000
 40
0.1000
  0
CIRCLE
  8
44
 10
-14.1518
 20
36.1487
 30
0.0000
 40
0.1000
  0
CIRCLE
  8
44
 10
-14.4518
 20
35.7487
 30
0.0000
 40
0.1000
  0
CIRCLE
  8
44
 10
-16.2000
 20
46.4000
 30
0.0000
 40
0.1000
  0
CIRCLE
  8
44
 10
-7.1000
 20
40.8000
 30
0.0000
 40
0.1000
  0
CIRCLE
  8
44
 10
-22.4000
 20
43.6000
 30
0.0000
 40
0.1000
  0
CIRCLE
  8
44
 10
-17.7000
 20
45.9000
 30
0.0000
 40
0.1000
  0
CIRCLE
  8
44
 10
-6.7518
 20
40.4987
 30
0.0000
 40
0.1000
  0
CIRCLE
  8
44
 10
-26.4518
 20
52.5987
 30
0.0000
 40
0.1000
  0
CIRCLE
  8
44
 10
-26.4518
 20
53.4987
 30
0.0000
 40
0.1000
  0
CIRCLE
  8
44
 10
-15.2205
 20
47.0518
 30
0.0000
 40
0.1000
  0
CIRCLE
  8
44
 10
-18.2000
 20
46.9000
 30
0.0000
 40
0.1000
  0
CIRCLE
  8
44
 10
-17.7000
 20
46.9000
 30
0.0000
 40
0.1000
  0
CIRCLE
  8
44
 10
0.7000
 20
56.8000
 30
0.0000
 40
0.2000
  0
CIRCLE
  8
44
 10
1.9000
 20
54.3000
 30
0.0000
 40
0.2000
  0
CIRCLE
  8
44
 10
-0.4000
 20
55.6000
 30
0.0000
 40
0.2000
  0
CIRCLE
  8
44
 10
-28.4518
 20
54.9987
 30
0.0000
 40
0.1500
  0
CIRCLE
  8
44
 10
-31.3768
 20
58.8487
 30
0.0000
 40
0.1500
  0
CIRCLE
  8
44
 10
-31.8018
 20
49.0737
 30
0.0000
 40
0.1500
  0
CIRCLE
  8
44
 10
-30.8000
 20
59.8000
 30
0.0000
 40
0.1000
  0
CIRCLE
  8
44
 10
-30.1000
 20
59.8000
 30
0.0000
 40
0.1000
  0
CIRCLE
  8
44
 10
-31.2188
 20
59.3927
 30
0.0000
 40
0.1000
  0
CIRCLE
  8
44
 10
-28.8000
 20
14.7000
 30
0.0000
 40
0.2000
  0
CIRCLE
  8
44
 10
-32.8000
 20
26.6000
 30
0.0000
 40
0.2000
  0
CIRCLE
  8
44
 10
-29.9000
 20
59.2000
 30
0.0000
 40
0.1000
  0
CIRCLE
  8
44
 10
-27.0000
 20
59.2000
 30
0.0000
 40
0.1000
  0
CIRCLE
  8
44
 10
-27.0000
 20
59.8000
 30
0.0000
 40
0.1000
  0
CIRCLE
  8
44
 10
-27.0000
 20
54.9000
 30
0.0000
 40
0.1000
  0
CIRCLE
  8
44
 10
-30.5000
 20
59.3000
 30
0.0000
 40
0.1000
  0
CIRCLE
  8
44
 10
-27.9000
 20
54.9000
 30
0.0000
 40
0.1000
  0
CIRCLE
  8
44
 10
-31.2000
 20
49.2000
 30
0.0000
 40
0.1000
  0
CIRCLE
  8
44
 10
-29.2000
 20
60.6000
 30
0.0000
 40
0.1000
  0
CIRCLE
  8
44
 10
-25.1000
 20
8.2000
 30
0.0000
 40
0.2000
  0
CIRCLE
  8
44
 10
-23.2000
 20
9.2000
 30
0.0000
 40
0.2000
  0
CIRCLE
  8
44
 10
-23.1000
 20
8.1000
 30
0.0000
 40
0.2000
  0
CIRCLE
  8
44
 10
-24.0000
 20
8.2000
 30
0.0000
 40
0.2000
  0
CIRCLE
  8
44
 10
-47.4000
 20
34.8000
 30
0.0000
 40
0.1500
  0
CIRCLE
  8
44
 10
-27.4000
 20
37.8000
 30
0.0000
 40
0.2000
  0
CIRCLE
  8
44
 10
-29.4000
 20
42.0000
 30
0.0000
 40
0.2000
  0
CIRCLE
  8
44
 10
-42.7000
 20
42.0000
 30
0.0000
 40
0.2000
  0
CIRCLE
  8
44
 10
-8.7000
 20
8.7000
 30
0.0000
 40
0.2000
  0
CIRCLE
  8
44
 10
-6.4000
 20
7.5000
 30
0.0000
 40
0.2000
  0
CIRCLE
  8
44
 10
-7.5000
 20
7.5000
 30
0.0000
 40
0.2000
  0
CIRCLE
  8
44
 10
-8.7000
 20
7.5000
 30
0.0000
 40
0.2000
  0
CIRCLE
  8
44
 10
3.7000
 20
64.0000
 30
0.0000
 40
0.1000
  0
CIRCLE
  8
44
 10
-9.0518
 20
42.2987
 30
0.0000
 40
0.1500
  0
CIRCLE
  8
44
 10
-11.9768
 20
45.8487
 30
0.0000
 40
0.1000
  0
CIRCLE
  8
44
 10
-11.5018
 20
35.8737
 30
0.0000
 40
0.1000
  0
CIRCLE
  8
44
 10
-12.0200
 20
46.4100
 30
0.0000
 40
0.1000
  0
CIRCLE
  8
44
 10
-11.0000
 20
46.7000
 30
0.0000
 40
0.1000
  0
CIRCLE
  8
44
 10
-11.9888
 20
46.9827
 30
0.0000
 40
0.1000
  0
CIRCLE
  8
44
 10
-11.5000
 20
47.0000
 30
0.0000
 40
0.1000
  0
CIRCLE
  8
44
 10
-11.5000
 20
46.4000
 30
0.0000
 40
0.1000
  0
CIRCLE
  8
44
 10
-8.3000
 20
42.3000
 30
0.0000
 40
0.1000
  0
CIRCLE
  8
44
 10
-30.8000
 20
48.8000
 30
0.0000
 40
0.1000
  0
CIRCLE
  8
44
 10
-23.2000
 20
10.0000
 30
0.0000
 40
0.2000
  0
CIRCLE
  8
44
 10
-8.7000
 20
9.8000
 30
0.0000
 40
0.2000
  0
CIRCLE
  8
44
 10
-6.3000
 20
60.0000
 30
0.0000
 40
0.2000
  0
CIRCLE
  8
44
 10
-12.4000
 20
36.5000
 30
0.0000
 40
0.1000
  0
CIRCLE
  8
44
 10
-11.9000
 20
36.2000
 30
0.0000
 40
0.1000
  0
CIRCLE
  8
44
 10
-25.8000
 20
37.7000
 30
0.0000
 40
0.2000
  0
CIRCLE
  8
44
 10
-29.4000
 20
59.6000
 30
0.0000
 40
0.1000
  0
CIRCLE
  8
44
 10
3.3000
 20
51.8000
 30
0.0000
 40
0.2000
  0
CIRCLE
  8
44
 10
4.5000
 20
51.8000
 30
0.0000
 40
0.2000
  0
CIRCLE
  8
44
 10
4.5000
 20
54.4000
 30
0.0000
 40
0.2000
  0
CIRCLE
  8
44
 10
5.8900
 20
54.2500
 30
0.0000
 40
0.2000
  0
CIRCLE
  8
44
 10
3.3000
 20
42.9000
 30
0.0000
 40
0.1000
  0
CIRCLE
  8
44
 10
8.9000
 20
42.9000
 30
0.0000
 40
0.1000
  0
CIRCLE
  8
44
 10
-60.0000
 20
22.4000
 30
0.0000
 40
0.1000
  0
CIRCLE
  8
44
 10
-39.3000
 20
48.4000
 30
0.0000
 40
0.1000
  0
CIRCLE
  8
44
 10
-42.6000
 20
47.0000
 30
0.0000
 40
0.1000
  0
CIRCLE
  8
44
 10
-33.2000
 20
0.4000
 30
0.0000
 40
0.1000
  0
CIRCLE
  8
44
 10
-29.7000
 20
2.4000
 30
0.0000
 40
0.2000
  0
CIRCLE
  8
44
 10
-26.4000
 20
4.1000
 30
0.0000
 40
0.2000
  0
CIRCLE
  8
44
 10
-25.2000
 20
40.0000
 30
0.0000
 40
0.1000
  0
CIRCLE
  8
44
 10
-21.8373
 20
1.0628
 30
0.0000
 40
0.1500
  0
CIRCLE
  8
44
 10
-14.0000
 20
0.6968
 30
0.0000
 40
0.1500
  0
CIRCLE
  8
44
 10
-26.3000
 20
9.5000
 30
0.0000
 40
0.1000
  0
CIRCLE
  8
44
 10
-29.3000
 20
12.2000
 30
0.0000
 40
0.1000
  0
CIRCLE
  8
44
 10
-29.3000
 20
10.0000
 30
0.0000
 40
0.1000
  0
CIRCLE
  8
44
 10
-29.9000
 20
14.5000
 30
0.0000
 40
0.1000
  0
CIRCLE
  8
44
 10
-7.8800
 20
35.5000
 30
0.0000
 40
0.1000
  0
CIRCLE
  8
44
 10
-7.0500
 20
60.8494
 30
0.0000
 40
0.2000
  0
CIRCLE
  8
44
 10
-3.6100
 20
63.1482
 30
0.0000
 40
0.1500
  0
CIRCLE
  8
44
 10
3.4000
 20
55.7000
 30
0.0000
 40
0.2000
  0
CIRCLE
  8
44
 10
-14.7000
 20
35.2000
 30
0.0000
 40
0.1000
  0
CIRCLE
  8
44
 10
-41.4000
 20
18.2000
 30
0.0000
 40
0.1750
  0
CIRCLE
  8
44
 10
-35.9000
 20
9.3172
 30
0.0000
 40
0.2000
  0
CIRCLE
  8
44
 10
-41.4000
 20
13.2000
 30
0.0000
 40
0.2000
  0
CIRCLE
  8
44
 10
-35.9000
 20
21.9000
 30
0.0000
 40
0.2000
  0
CIRCLE
  8
44
 10
-40.1000
 20
32.4000
 30
0.0000
 40
0.2000
  0
CIRCLE
  8
44
 10
-33.9000
 20
18.7000
 30
0.0000
 40
0.3500
  0
CIRCLE
  8
44
 10
-35.7000
 20
13.9000
 30
0.0000
 40
0.2000
  0
CIRCLE
  8
44
 10
-40.3000
 20
13.3000
 30
0.0000
 40
0.1000
  0
CIRCLE
  8
44
 10
-43.7000
 20
26.5000
 30
0.0000
 40
0.1000
  0
CIRCLE
  8
44
 10
-14.5237
 20
56.7982
 30
0.0000
 40
0.1500
  0
CIRCLE
  8
44
 10
-14.5237
 20
60.5482
 30
0.0000
 40
0.1500
  0
CIRCLE
  8
44
 10
-15.0000
 20
55.5000
 30
0.0000
 40
0.1000
  0
CIRCLE
  8
44
 10
-14.0000
 20
55.3000
 30
0.0000
 40
0.1000
  0
CIRCLE
  8
44
 10
-15.0000
 20
55.0000
 30
0.0000
 40
0.1000
  0
CIRCLE
  8
44
 10
-14.4000
 20
55.0000
 30
0.0000
 40
0.1000
  0
CIRCLE
  8
44
 10
-14.5000
 20
55.5000
 30
0.0000
 40
0.1000
  0
CIRCLE
  8
44
 10
-14.6000
 20
56.2000
 30
0.0000
 40
0.1000
  0
CIRCLE
  8
44
 10
-13.9000
 20
56.7800
 30
0.0000
 40
0.1000
  0
CIRCLE
  8
44
 10
-15.2000
 20
56.7000
 30
0.0000
 40
0.1000
  0
CIRCLE
  8
44
 10
-21.8000
 20
46.6000
 30
0.0000
 40
0.3500
  0
CIRCLE
  8
44
 10
-53.4000
 20
28.3000
 30
0.0000
 40
0.3500
  0
CIRCLE
  8
44
 10
-13.7000
 20
55.0000
 30
0.0000
 40
0.1000
  0
CIRCLE
  8
44
 10
5.7000
 20
52.0000
 30
0.0000
 40
0.2000
  0
CIRCLE
  8
44
 10
5.7000
 20
50.5000
 30
0.0000
 40
0.2000
  0
CIRCLE
  8
44
 10
-44.5000
 20
36.1000
 30
0.0000
 40
0.2000
  0
CIRCLE
  8
44
 10
-39.1000
 20
33.4000
 30
0.0000
 40
0.2000
  0
CIRCLE
  8
44
 10
-47.1788
 20
25.8863
 30
0.0000
 40
0.1000
  0
CIRCLE
  8
44
 10
-47.7218
 20
19.0432
 30
0.0000
 40
0.1000
  0
CIRCLE
  8
44
 10
-47.4746
 20
12.2000
 30
0.0000
 40
0.1000
  0
CIRCLE
  8
44
 10
-44.0158
 20
27.0500
 30
0.0000
 40
0.1000
  0
CIRCLE
  8
44
 10
-37.1000
 20
29.1000
 30
0.0000
 40
0.1000
  0
CIRCLE
  8
44
 10
-36.5000
 20
29.7000
 30
0.0000
 40
0.1000
  0
CIRCLE
  8
44
 10
-35.9000
 20
30.3000
 30
0.0000
 40
0.1000
  0
CIRCLE
  8
44
 10
-34.6000
 20
30.2000
 30
0.0000
 40
0.1000
  0
CIRCLE
  8
44
 10
-33.9000
 20
30.8000
 30
0.0000
 40
0.1000
  0
CIRCLE
  8
44
 10
-34.8000
 20
31.3000
 30
0.0000
 40
0.1000
  0
CIRCLE
  8
44
 10
-34.1000
 20
29.0000
 30
0.0000
 40
0.1000
  0
CIRCLE
  8
44
 10
-35.4000
 20
30.9000
 30
0.0000
 40
0.1000
  0
CIRCLE
  8
44
 10
-33.0000
 20
32.8000
 30
0.0000
 40
0.2000
  0
CIRCLE
  8
44
 10
-34.8000
 20
28.5000
 30
0.0000
 40
0.1000
  0
CIRCLE
  8
44
 10
-35.5000
 20
29.2000
 30
0.0000
 40
0.1000
  0
CIRCLE
  8
44
 10
-35.0000
 20
29.7000
 30
0.0000
 40
0.1000
  0
CIRCLE
  8
44
 10
-51.8000
 20
25.9000
 30
0.0000
 40
0.1000
  0
CIRCLE
  8
44
 10
-50.0000
 20
26.5000
 30
0.0000
 40
0.1000
  0
CIRCLE
  8
44
 10
-51.4951
 20
19.0137
 30
0.0000
 40
0.1000
  0
CIRCLE
  8
44
 10
-49.3000
 20
19.0000
 30
0.0000
 40
0.1000
  0
CIRCLE
  8
44
 10
-51.6618
 20
12.2000
 30
0.0000
 40
0.1000
  0
CIRCLE
  8
44
 10
-49.4618
 20
12.2000
 30
0.0000
 40
0.1000
  0
CIRCLE
  8
44
 10
-3.0000
 20
21.0000
 30
0.0000
 40
0.1000
  0
CIRCLE
  8
44
 10
-32.4000
 20
21.9000
 30
0.0000
 40
0.1000
  0
CIRCLE
  8
44
 10
-33.3000
 20
22.3000
 30
0.0000
 40
0.1000
  0
CIRCLE
  8
44
 10
-4.7032
 20
21.7000
 30
0.0000
 40
0.1000
  0
CIRCLE
  8
44
 10
-4.3000
 20
19.7000
 30
0.0000
 40
0.1000
  0
CIRCLE
  8
44
 10
-26.3000
 20
19.9000
 30
0.0000
 40
0.1000
  0
CIRCLE
  8
44
 10
-2.8000
 20
18.6000
 30
0.0000
 40
0.1000
  0
CIRCLE
  8
44
 10
-26.3000
 20
19.3000
 30
0.0000
 40
0.1000
  0
CIRCLE
  8
44
 10
-4.1000
 20
18.6000
 30
0.0000
 40
0.1000
  0
CIRCLE
  8
44
 10
-26.3000
 20
18.6000
 30
0.0000
 40
0.1000
  0
CIRCLE
  8
44
 10
-3.0000
 20
21.7000
 30
0.0000
 40
0.1000
  0
CIRCLE
  8
44
 10
-29.6000
 20
22.2000
 30
0.0000
 40
0.1000
  0
CIRCLE
  8
44
 10
5.7000
 20
40.2000
 30
0.0000
 40
0.1000
  0
CIRCLE
  8
44
 10
4.7000
 20
39.0000
 30
0.0000
 40
0.1000
  0
CIRCLE
  8
44
 10
-44.0672
 20
18.8000
 30
0.0000
 40
0.2000
  0
CIRCLE
  8
44
 10
-35.9000
 20
6.7000
 30
0.0000
 40
0.2000
  0
CIRCLE
  8
44
 10
-44.1000
 20
12.8000
 30
0.0000
 40
0.2000
  0
CIRCLE
  8
44
 10
-35.0000
 20
6.6000
 30
0.0000
 40
0.2000
  0
CIRCLE
  8
44
 10
-34.0000
 20
21.6000
 30
0.0000
 40
0.2000
  0
CIRCLE
  8
44
 10
-36.1000
 20
24.8000
 30
0.0000
 40
0.2000
  0
CIRCLE
  8
44
 10
-41.0000
 20
31.5000
 30
0.0000
 40
0.2000
  0
CIRCLE
  8
44
 10
-35.5000
 20
34.2000
 30
0.0000
 40
0.2000
  0
CIRCLE
  8
44
 10
-39.8000
 20
30.0000
 30
0.0000
 40
0.2000
  0
CIRCLE
  8
44
 10
-38.4000
 20
34.0000
 30
0.0000
 40
0.1000
  0
CIRCLE
  8
44
 10
-31.6000
 20
30.0000
 30
0.0000
 40
0.2000
  0
CIRCLE
  8
44
 10
-37.4000
 20
25.6000
 30
0.0000
 40
0.2000
  0
CIRCLE
  8
44
 10
-45.7000
 20
22.4000
 30
0.0000
 40
0.1000
  0
CIRCLE
  8
44
 10
-45.7500
 20
8.6000
 30
0.0000
 40
0.1000
  0
CIRCLE
  8
44
 10
-45.7500
 20
7.1500
 30
0.0000
 40
0.1000
  0
CIRCLE
  8
44
 10
-45.7000
 20
5.4500
 30
0.0000
 40
0.1000
  0
CIRCLE
  8
44
 10
-35.7000
 20
18.2500
 30
0.0000
 40
0.2000
  0
CIRCLE
  8
44
 10
-34.8500
 20
15.3000
 30
0.0000
 40
0.2000
  0
CIRCLE
  8
44
 10
-40.4000
 20
12.3000
 30
0.0000
 40
0.2000
  0
CIRCLE
  8
44
 10
-40.0000
 20
17.6000
 30
0.0000
 40
0.2000
  0
CIRCLE
  8
44
 10
-40.5500
 20
10.1500
 30
0.0000
 40
0.2000
  0
CIRCLE
  8
44
 10
-51.7000
 20
27.8000
 30
0.0000
 40
0.1000
  0
CIRCLE
  8
44
 10
-43.6000
 20
31.4000
 30
0.0000
 40
0.1000
  0
CIRCLE
  8
44
 10
-39.7000
 20
35.2000
 30
0.0000
 40
0.1000
  0
CIRCLE
  8
44
 10
-46.5000
 20
31.4000
 30
0.0000
 40
0.1000
  0
CIRCLE
  8
44
 10
-41.8000
 20
33.1000
 30
0.0000
 40
0.1000
  0
CIRCLE
  8
44
 10
-40.0500
 20
22.1000
 30
0.0000
 40
0.1000
  0
CIRCLE
  8
44
 10
-34.8000
 20
5.6000
 30
0.0000
 40
0.2000
  0
CIRCLE
  8
44
 10
-33.9666
 20
6.0666
 30
0.0000
 40
0.1750
  0
CIRCLE
  8
44
 10
-33.0000
 20
13.3000
 30
0.0000
 40
0.2000
  0
CIRCLE
  8
44
 10
-32.9000
 20
16.3000
 30
0.0000
 40
0.2000
  0
CIRCLE
  8
44
 10
-48.1000
 20
6.3500
 30
0.0000
 40
0.1000
  0
CIRCLE
  8
44
 10
-50.4000
 20
8.6500
 30
0.0000
 40
0.1000
  0
CIRCLE
  8
44
 10
-51.5000
 20
10.4500
 30
0.0000
 40
0.1000
  0
CIRCLE
  8
44
 10
-55.6000
 20
19.2500
 30
0.0000
 40
0.1000
  0
CIRCLE
  8
44
 10
-55.6000
 20
20.7000
 30
0.0000
 40
0.1000
  0
CIRCLE
  8
44
 10
-55.6000
 20
23.5000
 30
0.0000
 40
0.1000
  0
CIRCLE
  8
44
 10
-55.6000
 20
25.2000
 30
0.0000
 40
0.1000
  0
CIRCLE
  8
44
 10
-55.6000
 20
26.8000
 30
0.0000
 40
0.1000
  0
CIRCLE
  8
44
 10
-51.8000
 20
25.4000
 30
0.0000
 40
0.1000
  0
CIRCLE
  8
44
 10
-47.6000
 20
17.5639
 30
0.0000
 40
0.1000
  0
CIRCLE
  8
44
 10
-51.4782
 20
18.5069
 30
0.0000
 40
0.1000
  0
CIRCLE
  8
44
 10
-47.8000
 20
9.8000
 30
0.0000
 40
0.1000
  0
CIRCLE
  8
44
 10
-45.7000
 20
10.0000
 30
0.0000
 40
0.1000
  0
CIRCLE
  8
44
 10
-45.7000
 20
15.7000
 30
0.0000
 40
0.1000
  0
CIRCLE
  8
44
 10
-45.7000
 20
20.8000
 30
0.0000
 40
0.1000
  0
CIRCLE
  8
44
 10
-51.6354
 20
11.7069
 30
0.0000
 40
0.1000
  0
CIRCLE
  8
44
 10
-46.9000
 20
14.9000
 30
0.0000
 40
0.1000
  0
CIRCLE
  8
44
 10
-51.2000
 20
28.3000
 30
0.0000
 40
0.1000
  0
CIRCLE
  8
44
 10
-50.5000
 20
29.0000
 30
0.0000
 40
0.1000
  0
CIRCLE
  8
44
 10
-48.7000
 20
30.8000
 30
0.0000
 40
0.1000
  0
CIRCLE
  8
44
 10
-30.1000
 20
31.0000
 30
0.0000
 40
0.1000
  0
CIRCLE
  8
44
 10
-31.3000
 20
32.1000
 30
0.0000
 40
0.1000
  0
CIRCLE
  8
44
 10
-30.7000
 20
30.4000
 30
0.0000
 40
0.1000
  0
CIRCLE
  8
44
 10
-46.7131
 20
23.1218
 30
0.0000
 40
0.1000
  0
CIRCLE
  8
44
 10
-34.4000
 20
24.7726
 30
0.0000
 40
0.3500
  0
CIRCLE
  8
44
 10
-1.7000
 20
29.9000
 30
0.0000
 40
0.1000
  0
CIRCLE
  8
44
 10
-49.8000
 20
27.4532
 30
0.0000
 40
0.1000
  0
CIRCLE
  8
44
 10
-0.4000
 20
30.0000
 30
0.0000
 40
0.1000
  0
CIRCLE
  8
44
 10
-49.3174
 20
23.4174
 30
0.0000
 40
0.1000
  0
CIRCLE
  8
44
 10
-1.7000
 20
31.2000
 30
0.0000
 40
0.1000
  0
CIRCLE
  8
44
 10
-48.8000
 20
23.4000
 30
0.0000
 40
0.1000
  0
CIRCLE
  8
44
 10
-3.0000
 20
28.6000
 30
0.0000
 40
0.1000
  0
CIRCLE
  8
44
 10
-48.7000
 20
28.5000
 30
0.0000
 40
0.1000
  0
CIRCLE
  8
44
 10
2.1000
 20
28.0000
 30
0.0000
 40
0.1000
  0
CIRCLE
  8
44
 10
-49.8000
 20
21.5000
 30
0.0000
 40
0.1000
  0
CIRCLE
  8
44
 10
-3.0000
 20
16.5000
 30
0.0000
 40
0.1000
  0
CIRCLE
  8
44
 10
-49.2826
 20
16.5174
 30
0.0000
 40
0.1000
  0
CIRCLE
  8
44
 10
-0.3000
 20
17.7000
 30
0.0000
 40
0.1000
  0
CIRCLE
  8
44
 10
-48.8032
 20
16.3188
 30
0.0000
 40
0.1000
  0
CIRCLE
  8
44
 10
1.0000
 20
27.5000
 30
0.0000
 40
0.1000
  0
CIRCLE
  8
44
 10
-48.9000
 20
21.5000
 30
0.0000
 40
0.1000
  0
CIRCLE
  8
44
 10
0.8000
 20
19.1000
 30
0.0000
 40
0.1000
  0
CIRCLE
  8
44
 10
-49.8499
 20
13.7925
 30
0.0000
 40
0.1000
  0
CIRCLE
  8
44
 10
3.3000
 20
19.6000
 30
0.0000
 40
0.1000
  0
CIRCLE
  8
44
 10
-49.3000
 20
9.7000
 30
0.0000
 40
0.1000
  0
CIRCLE
  8
44
 10
2.1000
 20
20.5000
 30
0.0000
 40
0.1000
  0
CIRCLE
  8
44
 10
-48.8610
 20
9.3610
 30
0.0000
 40
0.1000
  0
CIRCLE
  8
44
 10
-1.6000
 20
17.8000
 30
0.0000
 40
0.1000
  0
CIRCLE
  8
44
 10
-48.9000
 20
14.6000
 30
0.0000
 40
0.1000
  0
CIRCLE
  8
44
 10
-54.8000
 20
25.5000
 30
0.0000
 40
0.1000
  0
CIRCLE
  8
44
 10
-50.2000
 20
23.4000
 30
0.0000
 40
0.1000
  0
CIRCLE
  8
44
 10
-51.6000
 20
24.4343
 30
0.0000
 40
0.1000
  0
CIRCLE
  8
44
 10
-47.4000
 20
27.2218
 30
0.0000
 40
0.1000
  0
CIRCLE
  8
44
 10
-51.2000
 20
23.9000
 30
0.0000
 40
0.1000
  0
CIRCLE
  8
44
 10
-47.7468
 20
24.6881
 30
0.0000
 40
0.1000
  0
CIRCLE
  8
44
 10
-47.8174
 20
21.8826
 30
0.0000
 40
0.1000
  0
CIRCLE
  8
44
 10
-47.6000
 20
20.4000
 30
0.0000
 40
0.1000
  0
CIRCLE
  8
44
 10
-48.4000
 20
21.7000
 30
0.0000
 40
0.1000
  0
CIRCLE
  8
44
 10
-47.0158
 20
18.0138
 30
0.0000
 40
0.1000
  0
CIRCLE
  8
44
 10
-51.4036
 20
21.9206
 30
0.0000
 40
0.1000
  0
CIRCLE
  8
44
 10
-50.0826
 20
16.2174
 30
0.0000
 40
0.1000
  0
CIRCLE
  8
44
 10
-52.0000
 20
21.1000
 30
0.0000
 40
0.1000
  0
CIRCLE
  8
44
 10
-47.4174
 20
13.6826
 30
0.0000
 40
0.1000
  0
CIRCLE
  8
44
 10
-52.0000
 20
20.5000
 30
0.0000
 40
0.1000
  0
CIRCLE
  8
44
 10
-47.5000
 20
10.7000
 30
0.0000
 40
0.1000
  0
CIRCLE
  8
44
 10
-52.0036
 20
19.8000
 30
0.0000
 40
0.1000
  0
CIRCLE
  8
44
 10
-50.2000
 20
9.5000
 30
0.0000
 40
0.1000
  0
CIRCLE
  8
44
 10
-48.9000
 20
30.0000
 30
0.0000
 40
0.1000
  0
CIRCLE
  8
44
 10
-51.6254
 20
26.3931
 30
0.0000
 40
0.1000
  0
CIRCLE
  8
44
 10
-48.5000
 20
29.6000
 30
0.0000
 40
0.1000
  0
CIRCLE
  8
44
 10
-51.5254
 20
24.9137
 30
0.0000
 40
0.1000
  0
CIRCLE
  8
44
 10
-48.1000
 20
29.2000
 30
0.0000
 40
0.1000
  0
CIRCLE
  8
44
 10
-47.0158
 20
25.4069
 30
0.0000
 40
0.1000
  0
CIRCLE
  8
44
 10
-47.7000
 20
28.8000
 30
0.0000
 40
0.1000
  0
CIRCLE
  8
44
 10
-47.0158
 20
26.3931
 30
0.0000
 40
0.1000
  0
CIRCLE
  8
44
 10
-46.6000
 20
27.7000
 30
0.0000
 40
0.1000
  0
CIRCLE
  8
44
 10
-51.6254
 20
19.4931
 30
0.0000
 40
0.1000
  0
CIRCLE
  8
44
 10
-46.2000
 20
27.3000
 30
0.0000
 40
0.1000
  0
CIRCLE
  8
44
 10
-51.4254
 20
17.8137
 30
0.0000
 40
0.1000
  0
CIRCLE
  8
44
 10
-45.8000
 20
28.4000
 30
0.0000
 40
0.1000
  0
CIRCLE
  8
44
 10
-47.0158
 20
19.5069
 30
0.0000
 40
0.1000
  0
CIRCLE
  8
44
 10
-45.4000
 20
27.7000
 30
0.0000
 40
0.1000
  0
CIRCLE
  8
44
 10
-47.0158
 20
18.5069
 30
0.0000
 40
0.1000
  0
CIRCLE
  8
44
 10
-31.7000
 20
31.2000
 30
0.0000
 40
0.1000
  0
CIRCLE
  8
44
 10
-47.1746
 20
11.7069
 30
0.0000
 40
0.1000
  0
CIRCLE
  8
44
 10
-32.0000
 20
31.6000
 30
0.0000
 40
0.1000
  0
CIRCLE
  8
44
 10
-47.4746
 20
12.6931
 30
0.0000
 40
0.1000
  0
CIRCLE
  8
44
 10
-32.3486
 20
31.9486
 30
0.0000
 40
0.1000
  0
CIRCLE
  8
44
 10
-51.7500
 20
11.2000
 30
0.0000
 40
0.1000
  0
CIRCLE
  8
44
 10
-32.6876
 20
32.2876
 30
0.0000
 40
0.1000
  0
CIRCLE
  8
44
 10
-51.6842
 20
12.6931
 30
0.0000
 40
0.1000
  0
CIRCLE
  8
44
 10
-59.7000
 20
20.9000
 30
0.0000
 40
0.1000
  0
CIRCLE
  8
44
 10
-57.2000
 20
8.4000
 30
0.0000
 40
0.1000
  0
CIRCLE
  8
44
 10
-62.6000
 20
21.1000
 30
0.0000
 40
0.1000
  0
CIRCLE
  8
44
 10
-57.7000
 20
7.9032
 30
0.0000
 40
0.1000
  0
CIRCLE
  8
44
 10
3.3000
 20
31.7000
 30
0.0000
 40
0.1000
  0
CIRCLE
  8
44
 10
-31.5000
 20
41.7000
 30
0.0000
 40
0.1000
  0
CIRCLE
  8
44
 10
2.2000
 20
29.1000
 30
0.0000
 40
0.1000
  0
CIRCLE
  8
44
 10
-43.7000
 20
41.4000
 30
0.0000
 40
0.1000
  0
CIRCLE
  8
44
 10
-31.5000
 20
38.9000
 30
0.0000
 40
0.1000
  0
CIRCLE
  8
44
 10
-4.3000
 20
29.6000
 30
0.0000
 40
0.1000
  0
CIRCLE
  8
44
 10
-44.7000
 20
39.0000
 30
0.0000
 40
0.1000
  0
CIRCLE
  8
44
 10
-4.1000
 20
27.5000
 30
0.0000
 40
0.1000
  0
CIRCLE
  8
44
 10
-3.0000
 20
32.2000
 30
0.0000
 40
0.1000
  0
CIRCLE
  8
44
 10
-26.6000
 20
40.8000
 30
0.0000
 40
0.1000
  0
CIRCLE
  8
44
 10
-4.3000
 20
31.1000
 30
0.0000
 40
0.1000
  0
CIRCLE
  8
44
 10
-28.1000
 20
40.8000
 30
0.0000
 40
0.1000
  0
CIRCLE
  8
44
 10
-46.8000
 20
35.5000
 30
0.0000
 40
0.1000
  0
CIRCLE
  8
44
 10
4.1000
 20
30.3000
 30
0.0000
 40
0.1000
  0
CIRCLE
  8
44
 10
-4.4000
 20
25.8000
 30
0.0000
 40
0.1000
  0
CIRCLE
  8
44
 10
-28.9000
 20
28.7000
 30
0.0000
 40
0.1000
  0
CIRCLE
  8
44
 10
-1.8000
 20
23.3000
 30
0.0000
 40
0.1000
  0
CIRCLE
  8
44
 10
-30.2099
 20
26.8036
 30
0.0000
 40
0.1000
  0
CIRCLE
  8
44
 10
-39.6000
 20
32.8968
 30
0.0000
 40
0.1000
  0
CIRCLE
  8
44
 10
-47.2000
 20
28.6000
 30
0.0000
 40
0.1000
  0
CIRCLE
  8
44
 10
-3.0000
 20
24.1000
 30
0.0000
 40
0.1000
  0
CIRCLE
  8
44
 10
-29.4000
 20
27.5000
 30
0.0000
 40
0.1000
  0
CIRCLE
  8
44
 10
5.6000
 20
17.7000
 30
0.0000
 40
0.1000
  0
CIRCLE
  8
44
 10
5.6000
 20
19.1000
 30
0.0000
 40
0.1000
  0
CIRCLE
  8
44
 10
5.8000
 20
22.3000
 30
0.0000
 40
0.1000
  0
CIRCLE
  8
44
 10
5.8000
 20
23.1000
 30
0.0000
 40
0.1000
  0
CIRCLE
  8
44
 10
4.4000
 20
24.2000
 30
0.0000
 40
0.1000
  0
CIRCLE
  8
44
 10
5.8000
 20
24.5000
 30
0.0000
 40
0.1000
  0
CIRCLE
  8
44
 10
5.7000
 20
28.0000
 30
0.0000
 40
0.1000
  0
CIRCLE
  8
44
 10
5.8000
 20
29.6000
 30
0.0000
 40
0.1000
  0
CIRCLE
  8
44
 10
0.8000
 20
48.7000
 30
0.0000
 40
0.1000
  0
CIRCLE
  8
44
 10
-25.0000
 20
57.0000
 30
0.0000
 40
0.1000
  0
CIRCLE
  8
44
 10
-4.0000
 20
50.4000
 30
0.0000
 40
0.1000
  0
CIRCLE
  8
44
 10
-25.6000
 20
56.5000
 30
0.0000
 40
0.1000
  0
CIRCLE
  8
44
 10
-2.8000
 20
49.1000
 30
0.0000
 40
0.1000
  0
CIRCLE
  8
44
 10
-25.0000
 20
56.0000
 30
0.0000
 40
0.1000
  0
CIRCLE
  8
44
 10
-4.0000
 20
49.2000
 30
0.0000
 40
0.1000
  0
CIRCLE
  8
44
 10
-25.6000
 20
55.5000
 30
0.0000
 40
0.1000
  0
CIRCLE
  8
44
 10
2.2000
 20
47.8000
 30
0.0000
 40
0.1000
  0
CIRCLE
  8
44
 10
-25.0000
 20
54.5000
 30
0.0000
 40
0.1000
  0
CIRCLE
  8
44
 10
-3.0000
 20
47.6000
 30
0.0000
 40
0.1000
  0
CIRCLE
  8
44
 10
-25.6000
 20
54.1000
 30
0.0000
 40
0.1000
  0
CIRCLE
  8
44
 10
1.0000
 20
46.6000
 30
0.0000
 40
0.1000
  0
CIRCLE
  8
44
 10
-25.0000
 20
53.0000
 30
0.0000
 40
0.1000
  0
CIRCLE
  8
44
 10
2.1000
 20
45.3000
 30
0.0000
 40
0.1000
  0
CIRCLE
  8
44
 10
-25.0000
 20
52.2000
 30
0.0000
 40
0.1000
  0
CIRCLE
  8
44
 10
-4.3000
 20
46.4000
 30
0.0000
 40
0.1000
  0
CIRCLE
  8
44
 10
-25.9000
 20
51.7000
 30
0.0000
 40
0.1000
  0
CIRCLE
  8
44
 10
0.9000
 20
45.2000
 30
0.0000
 40
0.1000
  0
CIRCLE
  8
44
 10
-25.0000
 20
51.2000
 30
0.0000
 40
0.1000
  0
CIRCLE
  8
44
 10
-3.0000
 20
45.0000
 30
0.0000
 40
0.1000
  0
CIRCLE
  8
44
 10
-25.9000
 20
50.8000
 30
0.0000
 40
0.1000
  0
CIRCLE
  8
44
 10
-4.3000
 20
45.0000
 30
0.0000
 40
0.1000
  0
CIRCLE
  8
44
 10
-25.0000
 20
50.2000
 30
0.0000
 40
0.1000
  0
CIRCLE
  8
44
 10
-2.5000
 20
52.5000
 30
0.0000
 40
0.1000
  0
CIRCLE
  8
44
 10
-23.5000
 20
58.6000
 30
0.0000
 40
0.1000
  0
CIRCLE
  8
44
 10
-4.3000
 20
52.6000
 30
0.0000
 40
0.1000
  0
CIRCLE
  8
44
 10
-24.3000
 20
58.2000
 30
0.0000
 40
0.1000
  0
CIRCLE
  8
44
 10
-2.9000
 20
51.8000
 30
0.0000
 40
0.1000
  0
CIRCLE
  8
44
 10
-24.9000
 20
57.7523
 30
0.0000
 40
0.1000
  0
CIRCLE
  8
44
 10
2.2000
 20
49.1000
 30
0.0000
 40
0.1000
  0
CIRCLE
  8
44
 10
-25.6000
 20
57.4524
 30
0.0000
 40
0.1000
  0
CIRCLE
  8
44
 10
2.1000
 20
44.1000
 30
0.0000
 40
0.1000
  0
CIRCLE
  8
44
 10
-25.9000
 20
49.8000
 30
0.0000
 40
0.1000
  0
CIRCLE
  8
44
 10
0.9000
 20
41.4000
 30
0.0000
 40
0.1000
  0
CIRCLE
  8
44
 10
-25.2000
 20
47.2000
 30
0.0000
 40
0.1000
  0
CIRCLE
  8
44
 10
2.3000
 20
40.2000
 30
0.0000
 40
0.1000
  0
CIRCLE
  8
44
 10
-37.3000
 20
50.5000
 30
0.0000
 40
0.1000
  0
CIRCLE
  8
44
 10
-37.3000
 20
45.9932
 30
0.0000
 40
0.1000
  0
CIRCLE
  8
44
 10
-24.4000
 20
46.4000
 30
0.0000
 40
0.1000
  0
CIRCLE
  8
44
 10
-3.0000
 20
41.0000
 30
0.0000
 40
0.1000
  0
CIRCLE
  8
44
 10
-37.7000
 20
48.8000
 30
0.0000
 40
0.1000
  0
CIRCLE
  8
44
 10
-37.7000
 20
46.4000
 30
0.0000
 40
0.1000
  0
CIRCLE
  8
44
 10
-24.9000
 20
46.8000
 30
0.0000
 40
0.1000
  0
CIRCLE
  8
44
 10
-4.2000
 20
42.7000
 30
0.0000
 40
0.1000
  0
CIRCLE
  8
44
 10
-29.1000
 20
48.8000
 30
0.0000
 40
0.1000
  0
CIRCLE
  8
44
 10
0.8000
 20
50.4000
 30
0.0000
 40
0.1000
  0
CIRCLE
  8
44
 10
-25.8000
 20
62.5000
 30
0.0000
 40
0.1000
  0
CIRCLE
  8
44
 10
-35.6000
 20
50.2000
 30
0.0000
 40
0.1000
  0
CIRCLE
  8
44
 10
-4.6000
 20
43.2000
 30
0.0000
 40
0.1000
  0
CIRCLE
  8
44
 10
-3.5700
 20
42.9400
 30
0.0000
 40
0.1000
  0
CIRCLE
  8
44
 10
0.9000
 20
42.7000
 30
0.0000
 40
0.1000
  0
CIRCLE
  8
44
 10
2.2000
 20
41.4000
 30
0.0000
 40
0.1000
  0
CIRCLE
  8
44
 10
-36.8596
 20
50.1596
 30
0.0000
 40
0.1000
  0
CIRCLE
  8
44
 10
-3.0000
 20
43.8000
 30
0.0000
 40
0.1000
  0
CIRCLE
  8
44
 10
-28.5000
 20
49.3000
 30
0.0000
 40
0.1000
  0
CIRCLE
  8
44
 10
-0.5000
 20
40.1000
 30
0.0000
 40
0.1000
  0
CIRCLE
  8
44
 10
-6.3462
 20
41.9538
 30
0.0000
 40
0.1000
  0
CIRCLE
  8
44
 10
3.4000
 20
39.4000
 30
0.0000
 40
0.1000
  0
CIRCLE
  8
44
 10
-7.1000
 20
41.8000
 30
0.0000
 40
0.1000
  0
CIRCLE
  8
44
 10
3.4000
 20
38.8000
 30
0.0000
 40
0.1000
  0
CIRCLE
  8
44
 10
-7.2000
 20
41.3000
 30
0.0000
 40
0.1000
  0
CIRCLE
  8
44
 10
-0.4000
 20
37.6000
 30
0.0000
 40
0.1000
  0
CIRCLE
  8
44
 10
-7.2000
 20
39.7000
 30
0.0000
 40
0.1000
  0
CIRCLE
  8
44
 10
-1.7000
 20
37.6000
 30
0.0000
 40
0.1000
  0
CIRCLE
  8
44
 10
-7.8000
 20
39.2000
 30
0.0000
 40
0.1000
  0
CIRCLE
  8
44
 10
3.5000
 20
36.4000
 30
0.0000
 40
0.1000
  0
CIRCLE
  8
44
 10
-8.8000
 20
38.7000
 30
0.0000
 40
0.1000
  0
CIRCLE
  8
44
 10
-0.3000
 20
36.3000
 30
0.0000
 40
0.1000
  0
CIRCLE
  8
44
 10
-9.2000
 20
38.1000
 30
0.0000
 40
0.1000
  0
CIRCLE
  8
44
 10
3.5000
 20
35.1000
 30
0.0000
 40
0.1000
  0
CIRCLE
  8
44
 10
-8.7000
 20
37.6000
 30
0.0000
 40
0.1000
  0
CIRCLE
  8
44
 10
-1.8000
 20
34.9000
 30
0.0000
 40
0.1000
  0
CIRCLE
  8
44
 10
-10.0000
 20
37.2000
 30
0.0000
 40
0.1000
  0
CIRCLE
  8
44
 10
-0.5000
 20
32.9000
 30
0.0000
 40
0.1000
  0
CIRCLE
  8
44
 10
-23.8000
 20
41.2000
 30
0.0000
 40
0.1000
  0
CIRCLE
  8
44
 10
-6.9000
 20
33.9000
 30
0.0000
 40
0.1000
  0
CIRCLE
  8
44
 10
-17.7000
 20
36.4000
 30
0.0000
 40
0.1000
  0
CIRCLE
  8
44
 10
-6.3000
 20
33.5000
 30
0.0000
 40
0.1000
  0
CIRCLE
  8
44
 10
-18.4000
 20
36.3482
 30
0.0000
 40
0.1000
  0
CIRCLE
  8
44
 10
4.6000
 20
34.0000
 30
0.0000
 40
0.1000
  0
CIRCLE
  8
44
 10
-9.0000
 20
36.1193
 30
0.0000
 40
0.1000
  0
CIRCLE
  8
44
 10
-0.4000
 20
33.8000
 30
0.0000
 40
0.1000
  0
CIRCLE
  8
44
 10
-15.8185
 20
36.4008
 30
0.0000
 40
0.1000
  0
CIRCLE
  8
44
 10
-1.8000
 20
33.5000
 30
0.0000
 40
0.1000
  0
CIRCLE
  8
44
 10
-16.1667
 20
37.3667
 30
0.0000
 40
0.1000
  0
CIRCLE
  8
44
 10
-4.4000
 20
34.7000
 30
0.0000
 40
0.1000
  0
CIRCLE
  8
44
 10
-9.6000
 20
36.7000
 30
0.0000
 40
0.1000
  0
CIRCLE
  8
44
 10
-15.7737
 20
59.1982
 30
0.0000
 40
0.1000
  0
CIRCLE
  8
44
 10
-15.7737
 20
58.2482
 30
0.0000
 40
0.1000
  0
CIRCLE
  8
44
 10
-17.1237
 20
58.2482
 30
0.0000
 40
0.1000
  0
CIRCLE
  8
44
 10
-17.0237
 20
59.2982
 30
0.0000
 40
0.1000
  0
CIRCLE
  8
44
 10
-17.6487
 20
59.1982
 30
0.0000
 40
0.1000
  0
CIRCLE
  8
44
 10
-10.7737
 20
59.2982
 30
0.0000
 40
0.1000
  0
CIRCLE
  8
44
 10
-10.1487
 20
59.9232
 30
0.0000
 40
0.1000
  0
CIRCLE
  8
44
 10
-10.2987
 20
57.6482
 30
0.0000
 40
0.1000
  0
CIRCLE
  8
44
 10
-10.1487
 20
58.4232
 30
0.0000
 40
0.1000
  0
CIRCLE
  8
44
 10
-9.7737
 20
60.5482
 30
0.0000
 40
0.1000
  0
CIRCLE
  8
44
 10
-9.5987
 20
59.8232
 30
0.0000
 40
0.1000
  0
CIRCLE
  8
44
 10
-9.4237
 20
58.2732
 30
0.0000
 40
0.1000
  0
CIRCLE
  8
44
 10
-11.8987
 20
60.5482
 30
0.0000
 40
0.1500
  0
CIRCLE
  8
44
 10
-9.8237
 20
59.1232
 30
0.0000
 40
0.1000
  0
CIRCLE
  8
44
 10
-9.1987
 20
60.6232
 30
0.0000
 40
0.1000
  0
CIRCLE
  8
44
 10
-8.6487
 20
58.3232
 30
0.0000
 40
0.1000
  0
CIRCLE
  8
44
 10
-17.9237
 20
58.1482
 30
0.0000
 40
0.1000
  0
CIRCLE
  8
44
 10
-18.3987
 20
59.1732
 30
0.0000
 40
0.1000
  0
CIRCLE
  8
44
 10
-18.3487
 20
58.5232
 30
0.0000
 40
0.1000
  0
CIRCLE
  8
44
 10
-32.6018
 20
54.2487
 30
0.0000
 40
0.1000
  0
CIRCLE
  8
44
 10
-34.1018
 20
54.2487
 30
0.0000
 40
0.1000
  0
CIRCLE
  8
44
 10
-34.1018
 20
52.7487
 30
0.0000
 40
0.1000
  0
CIRCLE
  8
44
 10
-32.6018
 20
52.7487
 30
0.0000
 40
0.1000
  0
CIRCLE
  8
44
 10
-31.1018
 20
52.7487
 30
0.0000
 40
0.1000
  0
CIRCLE
  8
44
 10
-31.1018
 20
54.2487
 30
0.0000
 40
0.1000
  0
CIRCLE
  8
44
 10
-32.6018
 20
55.7487
 30
0.0000
 40
0.1000
  0
CIRCLE
  8
44
 10
-34.1018
 20
55.7487
 30
0.0000
 40
0.1000
  0
CIRCLE
  8
44
 10
-31.1018
 20
55.7487
 30
0.0000
 40
0.1000
  0
CIRCLE
  8
44
 10
-31.2000
 20
62.9000
 30
0.0000
 40
0.1000
  0
CIRCLE
  8
44
 10
-31.8000
 20
62.9000
 30
0.0000
 40
0.1000
  0
CIRCLE
  8
44
 10
-9.6237
 20
61.4232
 30
0.0000
 40
0.1000
  0
CIRCLE
  8
44
 10
-9.1737
 20
59.0732
 30
0.0000
 40
0.1000
  0
CIRCLE
  8
44
 10
-26.0000
 20
15.3000
 30
0.0000
 40
0.2000
  0
CIRCLE
  8
44
 10
-25.5000
 20
16.7000
 30
0.0000
 40
0.2000
  0
CIRCLE
  8
44
 10
-29.8000
 20
29.3000
 30
0.0000
 40
0.2000
  0
CIRCLE
  8
44
 10
-31.9000
 20
25.2000
 30
0.0000
 40
0.2000
  0
CIRCLE
  8
44
 10
-25.9000
 20
18.0000
 30
0.0000
 40
0.2000
  0
CIRCLE
  8
44
 10
-17.6237
 20
58.6482
 30
0.0000
 40
0.1000
  0
CIRCLE
  8
44
 10
-19.0487
 20
59.0232
 30
0.0000
 40
0.1000
  0
CIRCLE
  8
44
 10
-19.0000
 20
58.3000
 30
0.0000
 40
0.1000
  0
CIRCLE
  8
44
 10
-8.9000
 20
59.9000
 30
0.0000
 40
0.1000
  0
CIRCLE
  8
44
 10
-8.6000
 20
59.1000
 30
0.0000
 40
0.1000
  0
CIRCLE
  8
44
 10
-9.7237
 20
57.4732
 30
0.0000
 40
0.1000
  0
CIRCLE
  8
44
 10
-31.5000
 20
22.1000
 30
0.0000
 40
0.1000
  0
CIRCLE
  8
44
 10
-28.4000
 20
22.7000
 30
0.0000
 40
0.1000
  0
CIRCLE
  8
44
 10
-27.9000
 20
22.4000
 30
0.0000
 40
0.1000
  0
CIRCLE
  8
44
 10
-28.7000
 20
18.0000
 30
0.0000
 40
0.1000
  0
CIRCLE
  8
44
 10
-29.2356
 20
13.4000
 30
0.0000
 40
0.1000
  0
CIRCLE
  8
44
 10
-28.8000
 20
10.8000
 30
0.0000
 40
0.1000
  0
CIRCLE
  8
44
 10
-30.2000
 20
9.2000
 30
0.0000
 40
0.1000
  0
CIRCLE
  8
44
 10
-25.8000
 20
63.4000
 30
0.0000
 40
0.1000
  0
CIRCLE
  8
44
 10
-26.7000
 20
61.2000
 30
0.0000
 40
0.1000
  0
CIRCLE
  8
44
 10
-33.3000
 20
53.5000
 30
0.0000
 40
0.1000
  0
CIRCLE
  8
44
 10
-33.3000
 20
55.0000
 30
0.0000
 40
0.1000
  0
CIRCLE
  8
44
 10
-31.7000
 20
55.0000
 30
0.0000
 40
0.1000
  0
CIRCLE
  8
44
 10
-31.8000
 20
53.5000
 30
0.0000
 40
0.1000
  0
CIRCLE
  8
44
 10
-36.2000
 20
35.9000
 30
0.0000
 40
0.1000
  0
CIRCLE
  8
44
 10
-49.8000
 20
36.4000
 30
0.0000
 40
0.2000
  0
CIRCLE
  8
44
 10
-53.3000
 20
41.7000
 30
0.0000
 40
0.2000
  0
CIRCLE
  8
44
 10
-39.4000
 20
42.0000
 30
0.0000
 40
0.2000
  0
CIRCLE
  8
44
 10
-33.0000
 20
39.1000
 30
0.0000
 40
0.1000
  0
CIRCLE
  8
44
 10
-50.3000
 20
35.0000
 30
0.0000
 40
0.2000
  0
CIRCLE
  8
44
 10
-25.0000
 20
40.9000
 30
0.0000
 40
0.2000
  0
CIRCLE
  8
44
 10
-47.0000
 20
38.8000
 30
0.0000
 40
0.1000
  0
CIRCLE
  8
44
 10
-22.9000
 20
14.4000
 30
0.0000
 40
0.1000
  0
CIRCLE
  8
44
 10
-21.6000
 20
14.3000
 30
0.0000
 40
0.1000
  0
CIRCLE
  8
44
 10
-21.6000
 20
13.0000
 30
0.0000
 40
0.1000
  0
CIRCLE
  8
44
 10
-22.9000
 20
13.0000
 30
0.0000
 40
0.1000
  0
CIRCLE
  8
44
 10
-22.9000
 20
11.8000
 30
0.0000
 40
0.1000
  0
CIRCLE
  8
44
 10
-21.6000
 20
11.8000
 30
0.0000
 40
0.1000
  0
CIRCLE
  8
44
 10
-20.3000
 20
11.8000
 30
0.0000
 40
0.1000
  0
CIRCLE
  8
44
 10
-19.1000
 20
11.8000
 30
0.0000
 40
0.1000
  0
CIRCLE
  8
44
 10
-17.8000
 20
11.8000
 30
0.0000
 40
0.1000
  0
CIRCLE
  8
44
 10
-16.5000
 20
11.8000
 30
0.0000
 40
0.1000
  0
CIRCLE
  8
44
 10
-20.4000
 20
10.5000
 30
0.0000
 40
0.1000
  0
CIRCLE
  8
44
 10
-20.4000
 20
9.3000
 30
0.0000
 40
0.1000
  0
CIRCLE
  8
44
 10
-19.1000
 20
10.5000
 30
0.0000
 40
0.1000
  0
CIRCLE
  8
44
 10
-17.8000
 20
10.5000
 30
0.0000
 40
0.1000
  0
CIRCLE
  8
44
 10
-16.5000
 20
10.5000
 30
0.0000
 40
0.1000
  0
CIRCLE
  8
44
 10
-15.2000
 20
10.5000
 30
0.0000
 40
0.1000
  0
CIRCLE
  8
44
 10
-14.0000
 20
10.5000
 30
0.0000
 40
0.1000
  0
CIRCLE
  8
44
 10
-12.8000
 20
10.5000
 30
0.0000
 40
0.1000
  0
CIRCLE
  8
44
 10
-11.5000
 20
10.5000
 30
0.0000
 40
0.1000
  0
CIRCLE
  8
44
 10
-11.5000
 20
9.2000
 30
0.0000
 40
0.1000
  0
CIRCLE
  8
44
 10
-11.5000
 20
11.8000
 30
0.0000
 40
0.1000
  0
CIRCLE
  8
44
 10
-12.8000
 20
11.8000
 30
0.0000
 40
0.1000
  0
CIRCLE
  8
44
 10
-14.0000
 20
11.8000
 30
0.0000
 40
0.1000
  0
CIRCLE
  8
44
 10
-15.2000
 20
11.8000
 30
0.0000
 40
0.1000
  0
CIRCLE
  8
44
 10
-15.3000
 20
13.1000
 30
0.0000
 40
0.1000
  0
CIRCLE
  8
44
 10
-15.3000
 20
14.4000
 30
0.0000
 40
0.1000
  0
CIRCLE
  8
44
 10
-14.0000
 20
14.4000
 30
0.0000
 40
0.1000
  0
CIRCLE
  8
44
 10
-14.0000
 20
13.1000
 30
0.0000
 40
0.1000
  0
CIRCLE
  8
44
 10
-12.8000
 20
13.1000
 30
0.0000
 40
0.1000
  0
CIRCLE
  8
44
 10
-10.2000
 20
11.8000
 30
0.0000
 40
0.1000
  0
CIRCLE
  8
44
 10
-8.8000
 20
11.8000
 30
0.0000
 40
0.1000
  0
CIRCLE
  8
44
 10
-10.2000
 20
12.9000
 30
0.0000
 40
0.1000
  0
CIRCLE
  8
44
 10
-11.5000
 20
13.0000
 30
0.0000
 40
0.1000
  0
CIRCLE
  8
44
 10
-7.5000
 20
10.6000
 30
0.0000
 40
0.1000
  0
CIRCLE
  8
44
 10
-8.6000
 20
12.6000
 30
0.0000
 40
0.1000
  0
CIRCLE
  8
44
 10
-12.9000
 20
14.4000
 30
0.0000
 40
0.1000
  0
CIRCLE
  8
44
 10
-15.3000
 20
15.5000
 30
0.0000
 40
0.1000
  0
CIRCLE
  8
44
 10
-14.0000
 20
15.5000
 30
0.0000
 40
0.1000
  0
CIRCLE
  8
44
 10
-14.3000
 20
28.0000
 30
0.0000
 40
0.1000
  0
CIRCLE
  8
44
 10
-14.2000
 20
27.3000
 30
0.0000
 40
0.1000
  0
CIRCLE
  8
44
 10
-14.6000
 20
26.5000
 30
0.0000
 40
0.1000
  0
CIRCLE
  8
44
 10
-18.5000
 20
33.4000
 30
0.0000
 40
0.1000
  0
CIRCLE
  8
44
 10
-17.9000
 20
33.4000
 30
0.0000
 40
0.1000
  0
CIRCLE
  8
44
 10
-18.3000
 20
29.2000
 30
0.0000
 40
0.1000
  0
CIRCLE
  8
44
 10
-19.8000
 20
27.1000
 30
0.0000
 40
0.1000
  0
CIRCLE
  8
44
 10
-19.7000
 20
26.6000
 30
0.0000
 40
0.1000
  0
CIRCLE
  8
44
 10
-20.2000
 20
26.6000
 30
0.0000
 40
0.1000
  0
CIRCLE
  8
44
 10
-24.1000
 20
31.0000
 30
0.0000
 40
0.1000
  0
CIRCLE
  8
44
 10
-23.1000
 20
33.3000
 30
0.0000
 40
0.1000
  0
CIRCLE
  8
44
 10
-24.1000
 20
29.0000
 30
0.0000
 40
0.1000
  0
CIRCLE
  8
44
 10
-20.4000
 20
27.1000
 30
0.0000
 40
0.1000
  0
CIRCLE
  8
44
 10
-8.6000
 20
27.9000
 30
0.0000
 40
0.1000
  0
CIRCLE
  8
44
 10
-8.6000
 20
27.2000
 30
0.0000
 40
0.1000
  0
CIRCLE
  8
44
 10
-13.0000
 20
33.5000
 30
0.0000
 40
0.1000
  0
CIRCLE
  8
44
 10
-12.2000
 20
33.5000
 30
0.0000
 40
0.1000
  0
CIRCLE
  8
44
 10
-12.8000
 20
29.1000
 30
0.0000
 40
0.1000
  0
CIRCLE
  8
44
 10
-61.2000
 20
56.6000
 30
0.0000
 40
0.1000
  0
CIRCLE
  8
44
 10
-57.7000
 20
36.3000
 30
0.0000
 40
0.1000
  0
CIRCLE
  8
44
 10
-57.7000
 20
40.1000
 30
0.0000
 40
0.1000
  0
CIRCLE
  8
44
 10
-57.7000
 20
43.9000
 30
0.0000
 40
0.1000
  0
CIRCLE
  8
44
 10
-60.9000
 20
51.6000
 30
0.0000
 40
0.1000
  0
CIRCLE
  8
44
 10
-44.6000
 20
57.2000
 30
0.0000
 40
0.1000
  0
CIRCLE
  8
44
 10
-53.4000
 20
61.7000
 30
0.0000
 40
0.1000
  0
CIRCLE
  8
44
 10
-52.6000
 20
61.0000
 30
0.0000
 40
0.1000
  0
CIRCLE
  8
44
 10
-52.6000
 20
62.6000
 30
0.0000
 40
0.1000
  0
CIRCLE
  8
44
 10
-51.0000
 20
62.7000
 30
0.0000
 40
0.1000
  0
CIRCLE
  8
44
 10
-49.4000
 20
62.7000
 30
0.0000
 40
0.1000
  0
CIRCLE
  8
44
 10
-48.0000
 20
62.6000
 30
0.0000
 40
0.1000
  0
CIRCLE
  8
44
 10
-43.1000
 20
63.4000
 30
0.0000
 40
0.1000
  0
CIRCLE
  8
44
 10
-49.0000
 20
35.0000
 30
0.0000
 40
0.1500
  0
CIRCLE
  8
44
 10
-14.8000
 20
27.0000
 30
0.0000
 40
0.1000
  0
CIRCLE
  8
44
 10
10.4000
 20
-2.5000
 30
0.0000
 40
0.1000
  0
CIRCLE
  8
44
 10
-44.5000
 20
55.9000
 30
0.0000
 40
0.1000
  0
CIRCLE
  8
44
 10
-37.5000
 20
58.5000
 30
0.0000
 40
0.1000
  0
CIRCLE
  8
44
 10
-10.9000
 20
28.0000
 30
0.0000
 40
0.1000
  0
CIRCLE
  8
44
 10
-11.6000
 20
28.0000
 30
0.0000
 40
0.1000
  0
CIRCLE
  8
44
 10
-11.6000
 20
27.3000
 30
0.0000
 40
0.1000
  0
CIRCLE
  8
44
 10
-10.9000
 20
27.3000
 30
0.0000
 40
0.1000
  0
CIRCLE
  8
44
 10
-21.4000
 20
16.5000
 30
0.0000
 40
0.1000
  0
CIRCLE
  8
44
 10
-22.0000
 20
28.2000
 30
0.0000
 40
0.1000
  0
CIRCLE
  8
44
 10
-22.0000
 20
27.5000
 30
0.0000
 40
0.1000
  0
CIRCLE
  8
44
 10
-22.7000
 20
27.5000
 30
0.0000
 40
0.1000
  0
CIRCLE
  8
44
 10
-22.7000
 20
28.2000
 30
0.0000
 40
0.1000
  0
CIRCLE
  8
44
 10
-16.4000
 20
28.3000
 30
0.0000
 40
0.1000
  0
CIRCLE
  8
44
 10
-16.4000
 20
27.5000
 30
0.0000
 40
0.1000
  0
CIRCLE
  8
44
 10
-17.1000
 20
27.5000
 30
0.0000
 40
0.1000
  0
CIRCLE
  8
44
 10
-17.1000
 20
28.3000
 30
0.0000
 40
0.1000
  0
CIRCLE
  8
44
 10
-40.3000
 20
52.2000
 30
0.0000
 40
0.1000
  0
CIRCLE
  8
44
 10
-41.9000
 20
53.9000
 30
0.0000
 40
0.1000
  0
CIRCLE
  8
44
 10
-48.6000
 20
55.3000
 30
0.0000
 40
0.1000
  0
CIRCLE
  8
44
 10
-48.6000
 20
58.2000
 30
0.0000
 40
0.1000
  0
CIRCLE
  8
44
 10
-48.3000
 20
61.5000
 30
0.0000
 40
0.1000
  0
CIRCLE
  8
44
 10
-13.2018
 20
41.5487
 30
0.0000
 40
0.1000
  0
CIRCLE
  8
44
 10
-14.7018
 20
41.5487
 30
0.0000
 40
0.1000
  0
CIRCLE
  8
44
 10
-14.7018
 20
40.0487
 30
0.0000
 40
0.1000
  0
CIRCLE
  8
44
 10
-13.2018
 20
40.0487
 30
0.0000
 40
0.1000
  0
CIRCLE
  8
44
 10
-11.7018
 20
40.0487
 30
0.0000
 40
0.1000
  0
CIRCLE
  8
44
 10
-11.7018
 20
41.5487
 30
0.0000
 40
0.1000
  0
CIRCLE
  8
44
 10
-13.2018
 20
43.0487
 30
0.0000
 40
0.1000
  0
CIRCLE
  8
44
 10
-14.7018
 20
43.0487
 30
0.0000
 40
0.1000
  0
CIRCLE
  8
44
 10
-11.7018
 20
43.0487
 30
0.0000
 40
0.1000
  0
CIRCLE
  8
44
 10
-13.9000
 20
40.8000
 30
0.0000
 40
0.1000
  0
CIRCLE
  8
44
 10
-13.9000
 20
42.3000
 30
0.0000
 40
0.1000
  0
CIRCLE
  8
44
 10
-12.3000
 20
42.3000
 30
0.0000
 40
0.1000
  0
CIRCLE
  8
44
 10
-12.4000
 20
40.8000
 30
0.0000
 40
0.1000
  0
CIRCLE
  8
44
 10
-6.4237
 20
63.5232
 30
0.0000
 40
0.1000
  0
CIRCLE
  8
44
 10
-5.4237
 20
63.5232
 30
0.0000
 40
0.1000
  0
CIRCLE
  8
44
 10
-5.9237
 20
63.0232
 30
0.0000
 40
0.1000
  0
CIRCLE
  8
44
 10
-6.4237
 20
62.5232
 30
0.0000
 40
0.1000
  0
CIRCLE
  8
44
 10
-5.4237
 20
62.5232
 30
0.0000
 40
0.1000
  0
CIRCLE
  8
44
 10
-22.1000
 20
41.1000
 30
0.0000
 40
0.1000
  0
CIRCLE
  8
44
 10
-8.6000
 20
26.7000
 30
0.0000
 40
0.1000
  0
CIRCLE
  8
44
 10
-9.3000
 20
26.7000
 30
0.0000
 40
0.1000
  0
CIRCLE
  8
44
 10
-14.2000
 20
26.8000
 30
0.0000
 40
0.1000
  0
CIRCLE
  8
44
 10
-20.4000
 20
26.1000
 30
0.0000
 40
0.1000
  0
CIRCLE
  8
44
 10
-19.8000
 20
26.1000
 30
0.0000
 40
0.1000
  0
CIRCLE
  8
44
 10
-8.5000
 20
26.2000
 30
0.0000
 40
0.1000
  0
CIRCLE
  8
44
 10
-9.1000
 20
26.2000
 30
0.0000
 40
0.1000
  0
CIRCLE
  8
44
 10
-11.2000
 20
33.5000
 30
0.0000
 40
0.1000
  0
CIRCLE
  8
44
 10
-23.8000
 20
32.9000
 30
0.0000
 40
0.1000
  0
CIRCLE
  8
44
 10
-55.4000
 20
54.3000
 30
0.0000
 40
0.1000
  0
CIRCLE
  8
44
 10
-54.4000
 20
54.3000
 30
0.0000
 40
0.1000
  0
CIRCLE
  8
44
 10
-53.4000
 20
54.3000
 30
0.0000
 40
0.1000
  0
CIRCLE
  8
44
 10
-52.4000
 20
54.3000
 30
0.0000
 40
0.1000
  0
CIRCLE
  8
44
 10
-50.4000
 20
54.3000
 30
0.0000
 40
0.1000
  0
CIRCLE
  8
44
 10
-49.4000
 20
54.3000
 30
0.0000
 40
0.1000
  0
CIRCLE
  8
44
 10
-48.4000
 20
54.3000
 30
0.0000
 40
0.1000
  0
CIRCLE
  8
44
 10
-47.4000
 20
54.3000
 30
0.0000
 40
0.1000
  0
CIRCLE
  8
44
 10
-46.4000
 20
54.3000
 30
0.0000
 40
0.1000
  0
CIRCLE
  8
44
 10
-45.4000
 20
54.3000
 30
0.0000
 40
0.1000
  0
CIRCLE
  8
44
 10
-56.4000
 20
52.5000
 30
0.0000
 40
0.1000
  0
CIRCLE
  8
44
 10
-55.4000
 20
52.5000
 30
0.0000
 40
0.1000
  0
CIRCLE
  8
44
 10
-54.4000
 20
52.5000
 30
0.0000
 40
0.1000
  0
CIRCLE
  8
44
 10
-53.4000
 20
52.5000
 30
0.0000
 40
0.1000
  0
CIRCLE
  8
44
 10
-52.4000
 20
52.5000
 30
0.0000
 40
0.1000
  0
CIRCLE
  8
44
 10
-51.4000
 20
52.5000
 30
0.0000
 40
0.1000
  0
CIRCLE
  8
44
 10
-49.4000
 20
52.5000
 30
0.0000
 40
0.1000
  0
CIRCLE
  8
44
 10
-48.4000
 20
52.5000
 30
0.0000
 40
0.1000
  0
CIRCLE
  8
44
 10
-47.4000
 20
52.5000
 30
0.0000
 40
0.1000
  0
CIRCLE
  8
44
 10
-46.4000
 20
52.5000
 30
0.0000
 40
0.1000
  0
CIRCLE
  8
44
 10
-45.4000
 20
52.5000
 30
0.0000
 40
0.1000
  0
CIRCLE
  8
44
 10
-44.4000
 20
52.5000
 30
0.0000
 40
0.1000
  0
CIRCLE
  8
44
 10
10.4000
 20
-0.4000
 30
0.0000
 40
0.1000
  0
CIRCLE
  8
44
 10
10.4000
 20
1.5000
 30
0.0000
 40
0.1000
  0
CIRCLE
  8
44
 10
10.4000
 20
3.5000
 30
0.0000
 40
0.1000
  0
CIRCLE
  8
44
 10
10.4000
 20
5.5000
 30
0.0000
 40
0.1000
  0
CIRCLE
  8
44
 10
10.4000
 20
7.5000
 30
0.0000
 40
0.1000
  0
CIRCLE
  8
44
 10
10.3900
 20
9.4400
 30
0.0000
 40
0.1000
  0
CIRCLE
  8
44
 10
10.4000
 20
11.5000
 30
0.0000
 40
0.1000
  0
CIRCLE
  8
44
 10
10.4000
 20
14.0000
 30
0.0000
 40
0.1000
  0
CIRCLE
  8
44
 10
10.4000
 20
29.5000
 30
0.0000
 40
0.1000
  0
CIRCLE
  8
44
 10
10.4000
 20
16.5000
 30
0.0000
 40
0.1000
  0
CIRCLE
  8
44
 10
10.4000
 20
19.5000
 30
0.0000
 40
0.1000
  0
CIRCLE
  8
44
 10
10.4000
 20
21.5000
 30
0.0000
 40
0.1000
  0
CIRCLE
  8
44
 10
10.4000
 20
24.5000
 30
0.0000
 40
0.1000
  0
CIRCLE
  8
44
 10
10.4000
 20
27.0000
 30
0.0000
 40
0.1000
  0
CIRCLE
  8
44
 10
10.4000
 20
31.5000
 30
0.0000
 40
0.1000
  0
CIRCLE
  8
44
 10
10.4000
 20
45.5000
 30
0.0000
 40
0.1000
  0
CIRCLE
  8
44
 10
10.4000
 20
33.5000
 30
0.0000
 40
0.1000
  0
CIRCLE
  8
44
 10
10.4000
 20
35.5000
 30
0.0000
 40
0.1000
  0
CIRCLE
  8
44
 10
10.4000
 20
37.5000
 30
0.0000
 40
0.1000
  0
CIRCLE
  8
44
 10
10.4000
 20
39.5000
 30
0.0000
 40
0.1000
  0
CIRCLE
  8
44
 10
10.4000
 20
41.5000
 30
0.0000
 40
0.1000
  0
CIRCLE
  8
44
 10
10.4000
 20
43.5000
 30
0.0000
 40
0.1000
  0
CIRCLE
  8
44
 10
10.4000
 20
47.5000
 30
0.0000
 40
0.1000
  0
CIRCLE
  8
44
 10
10.4000
 20
49.5000
 30
0.0000
 40
0.1000
  0
CIRCLE
  8
44
 10
10.4000
 20
51.5000
 30
0.0000
 40
0.1000
  0
CIRCLE
  8
44
 10
10.4000
 20
53.5000
 30
0.0000
 40
0.1000
  0
CIRCLE
  8
44
 10
10.4000
 20
55.5000
 30
0.0000
 40
0.1000
  0
CIRCLE
  8
44
 10
10.4000
 20
57.5000
 30
0.0000
 40
0.1000
  0
CIRCLE
  8
44
 10
10.4000
 20
59.5000
 30
0.0000
 40
0.1000
  0
CIRCLE
  8
44
 10
-8.9000
 20
57.7000
 30
0.0000
 40
0.1000
  0
CIRCLE
  8
44
 10
-10.8237
 20
58.0732
 30
0.0000
 40
0.1000
  0
CIRCLE
  8
44
 10
-10.4237
 20
58.9232
 30
0.0000
 40
0.1000
  0
CIRCLE
  8
44
 10
6.0000
 20
55.6000
 30
0.0000
 40
0.2000
  0
CIRCLE
  8
44
 10
3.2000
 20
49.3000
 30
0.0000
 40
0.2000
  0
CIRCLE
  8
44
 10
7.0000
 20
53.1000
 30
0.0000
 40
0.2000
  0
CIRCLE
  8
44
 10
7.0000
 20
49.4000
 30
0.0000
 40
0.2000
  0
CIRCLE
  8
44
 10
9.0000
 20
46.6000
 30
0.0000
 40
0.1000
  0
CIRCLE
  8
44
 10
9.1000
 20
43.6000
 30
0.0000
 40
0.1000
  0
CIRCLE
  8
44
 10
8.5000
 20
60.7000
 30
0.0000
 40
0.2000
  0
CIRCLE
  8
44
 10
3.2000
 20
57.7000
 30
0.0000
 40
0.2000
  0
CIRCLE
  8
44
 10
-1.2000
 20
57.5000
 30
0.0000
 40
0.2000
  0
CIRCLE
  8
44
 10
-44.3000
 20
54.6000
 30
0.0000
 40
0.1000
  0
CIRCLE
  8
44
 10
-42.6000
 20
53.9000
 30
0.0000
 40
0.1000
  0
CIRCLE
  8
44
 10
-43.6000
 20
52.9000
 30
0.0000
 40
0.1000
  0
CIRCLE
  8
44
 10
10.4000
 20
65.5000
 30
0.0000
 40
0.1000
  0
CIRCLE
  8
44
 10
10.4000
 20
63.5000
 30
0.0000
 40
0.1000
  0
CIRCLE
  8
44
 10
10.4000
 20
61.5000
 30
0.0000
 40
0.1000
  0
CIRCLE
  8
44
 10
8.4000
 20
65.5000
 30
0.0000
 40
0.1000
  0
CIRCLE
  8
44
 10
6.4000
 20
65.5000
 30
0.0000
 40
0.1000
  0
CIRCLE
  8
44
 10
4.4000
 20
65.5000
 30
0.0000
 40
0.1000
  0
CIRCLE
  8
44
 10
2.4000
 20
65.5000
 30
0.0000
 40
0.1000
  0
CIRCLE
  8
44
 10
0.4000
 20
65.5000
 30
0.0000
 40
0.1000
  0
CIRCLE
  8
44
 10
-1.6000
 20
65.5000
 30
0.0000
 40
0.1000
  0
CIRCLE
  8
44
 10
-3.6000
 20
65.5000
 30
0.0000
 40
0.1000
  0
CIRCLE
  8
44
 10
-5.6000
 20
65.5000
 30
0.0000
 40
0.1000
  0
CIRCLE
  8
44
 10
-7.6000
 20
65.5000
 30
0.0000
 40
0.1000
  0
CIRCLE
  8
44
 10
-9.6000
 20
65.5000
 30
0.0000
 40
0.1000
  0
CIRCLE
  8
44
 10
-11.6000
 20
65.5000
 30
0.0000
 40
0.1000
  0
CIRCLE
  8
44
 10
-13.6000
 20
65.5000
 30
0.0000
 40
0.1000
  0
CIRCLE
  8
44
 10
-15.6000
 20
65.5000
 30
0.0000
 40
0.1000
  0
CIRCLE
  8
44
 10
-17.6000
 20
65.5000
 30
0.0000
 40
0.1000
  0
CIRCLE
  8
44
 10
-19.6000
 20
65.5000
 30
0.0000
 40
0.1000
  0
CIRCLE
  8
44
 10
-21.6000
 20
65.5000
 30
0.0000
 40
0.1000
  0
CIRCLE
  8
44
 10
-23.6000
 20
65.5000
 30
0.0000
 40
0.1000
  0
CIRCLE
  8
44
 10
-25.6000
 20
65.5000
 30
0.0000
 40
0.1000
  0
CIRCLE
  8
44
 10
-27.6000
 20
65.5000
 30
0.0000
 40
0.1000
  0
CIRCLE
  8
44
 10
-29.6000
 20
65.5000
 30
0.0000
 40
0.1000
  0
CIRCLE
  8
44
 10
-31.6000
 20
65.5000
 30
0.0000
 40
0.1000
  0
CIRCLE
  8
44
 10
-33.6000
 20
65.5000
 30
0.0000
 40
0.1000
  0
CIRCLE
  8
44
 10
-35.6000
 20
65.5000
 30
0.0000
 40
0.1000
  0
CIRCLE
  8
44
 10
-37.6000
 20
65.5000
 30
0.0000
 40
0.1000
  0
CIRCLE
  8
44
 10
-39.6000
 20
65.5000
 30
0.0000
 40
0.1000
  0
CIRCLE
  8
44
 10
-41.6000
 20
65.5000
 30
0.0000
 40
0.1000
  0
CIRCLE
  8
44
 10
-55.6000
 20
46.3000
 30
0.0000
 40
0.1000
  0
CIRCLE
  8
44
 10
-54.5000
 20
45.6000
 30
0.0000
 40
0.1000
  0
CIRCLE
  8
44
 10
-53.7000
 20
44.7000
 30
0.0000
 40
0.1000
  0
CIRCLE
  8
44
 10
-52.6000
 20
44.1000
 30
0.0000
 40
0.1000
  0
CIRCLE
  8
44
 10
-51.3000
 20
43.8000
 30
0.0000
 40
0.1000
  0
CIRCLE
  8
44
 10
-50.1000
 20
43.8000
 30
0.0000
 40
0.1000
  0
CIRCLE
  8
44
 10
-48.6000
 20
43.8000
 30
0.0000
 40
0.1000
  0
CIRCLE
  8
44
 10
-47.4000
 20
43.8000
 30
0.0000
 40
0.1000
  0
CIRCLE
  8
44
 10
-46.0000
 20
43.8000
 30
0.0000
 40
0.1000
  0
CIRCLE
  8
44
 10
-43.7000
 20
43.8000
 30
0.0000
 40
0.1000
  0
CIRCLE
  8
44
 10
-42.6000
 20
43.8000
 30
0.0000
 40
0.1000
  0
CIRCLE
  8
44
 10
-41.1000
 20
43.8000
 30
0.0000
 40
0.1000
  0
CIRCLE
  8
44
 10
-38.1000
 20
43.8000
 30
0.0000
 40
0.1000
  0
CIRCLE
  8
44
 10
-39.6000
 20
43.8000
 30
0.0000
 40
0.1000
  0
CIRCLE
  8
44
 10
-36.6000
 20
43.8000
 30
0.0000
 40
0.1000
  0
CIRCLE
  8
44
 10
-35.1000
 20
43.8000
 30
0.0000
 40
0.1000
  0
CIRCLE
  8
44
 10
-33.6000
 20
43.8000
 30
0.0000
 40
0.1000
  0
CIRCLE
  8
44
 10
-32.1000
 20
43.8000
 30
0.0000
 40
0.1000
  0
CIRCLE
  8
44
 10
-30.6000
 20
43.8000
 30
0.0000
 40
0.1000
  0
CIRCLE
  8
44
 10
-29.1000
 20
43.8000
 30
0.0000
 40
0.1000
  0
CIRCLE
  8
44
 10
-27.6000
 20
43.8000
 30
0.0000
 40
0.1000
  0
CIRCLE
  8
44
 10
-26.1000
 20
43.8000
 30
0.0000
 40
0.1000
  0
CIRCLE
  8
44
 10
-24.3000
 20
42.3000
 30
0.0000
 40
0.1000
  0
CIRCLE
  8
44
 10
-23.1000
 20
41.7000
 30
0.0000
 40
0.1000
  0
CIRCLE
  8
44
 10
-56.8000
 20
46.4000
 30
0.0000
 40
0.1000
  0
CIRCLE
  8
44
 10
-58.1000
 20
46.6000
 30
0.0000
 40
0.1000
  0
CIRCLE
  8
44
 10
-53.0000
 20
46.4000
 30
0.0000
 40
0.1000
  0
CIRCLE
  8
44
 10
-52.1000
 20
45.8000
 30
0.0000
 40
0.1000
  0
CIRCLE
  8
44
 10
-50.8000
 20
45.5000
 30
0.0000
 40
0.1000
  0
CIRCLE
  8
44
 10
-49.4000
 20
45.5000
 30
0.0000
 40
0.1000
  0
CIRCLE
  8
44
 10
-47.9000
 20
45.5000
 30
0.0000
 40
0.1000
  0
CIRCLE
  8
44
 10
-46.4000
 20
45.5000
 30
0.0000
 40
0.1000
  0
CIRCLE
  8
44
 10
-44.9000
 20
45.5000
 30
0.0000
 40
0.1000
  0
CIRCLE
  8
44
 10
-41.9000
 20
45.5000
 30
0.0000
 40
0.1000
  0
CIRCLE
  8
44
 10
-43.4000
 20
45.5000
 30
0.0000
 40
0.1000
  0
CIRCLE
  8
44
 10
-40.4000
 20
45.5000
 30
0.0000
 40
0.1000
  0
CIRCLE
  8
44
 10
-38.9000
 20
45.5000
 30
0.0000
 40
0.1000
  0
CIRCLE
  8
44
 10
-35.9000
 20
45.5000
 30
0.0000
 40
0.1000
  0
CIRCLE
  8
44
 10
-34.4000
 20
45.5000
 30
0.0000
 40
0.1000
  0
CIRCLE
  8
44
 10
-32.9000
 20
45.5000
 30
0.0000
 40
0.1000
  0
CIRCLE
  8
44
 10
-31.4000
 20
45.5000
 30
0.0000
 40
0.1000
  0
CIRCLE
  8
44
 10
-29.9000
 20
45.5000
 30
0.0000
 40
0.1000
  0
CIRCLE
  8
44
 10
-28.4000
 20
45.5000
 30
0.0000
 40
0.1000
  0
CIRCLE
  8
44
 10
-26.9000
 20
45.5000
 30
0.0000
 40
0.1000
  0
CIRCLE
  8
44
 10
-25.4000
 20
45.5000
 30
0.0000
 40
0.1000
  0
CIRCLE
  8
44
 10
-24.4000
 20
45.2000
 30
0.0000
 40
0.1000
  0
CIRCLE
  8
44
 10
8.4000
 20
-2.5000
 30
0.0000
 40
0.1000
  0
CIRCLE
  8
44
 10
5.8000
 20
-2.5000
 30
0.0000
 40
0.1000
  0
CIRCLE
  8
44
 10
4.4000
 20
-2.5000
 30
0.0000
 40
0.1000
  0
CIRCLE
  8
44
 10
2.4000
 20
-2.5000
 30
0.0000
 40
0.1000
  0
CIRCLE
  8
44
 10
0.4000
 20
-2.5000
 30
0.0000
 40
0.1000
  0
CIRCLE
  8
44
 10
-1.6000
 20
-2.5000
 30
0.0000
 40
0.1000
  0
CIRCLE
  8
44
 10
-3.6000
 20
-2.5000
 30
0.0000
 40
0.1000
  0
CIRCLE
  8
44
 10
-5.6000
 20
-2.5000
 30
0.0000
 40
0.1000
  0
CIRCLE
  8
44
 10
-35.6000
 20
-2.5000
 30
0.0000
 40
0.1000
  0
CIRCLE
  8
44
 10
-37.6000
 20
-2.5000
 30
0.0000
 40
0.1000
  0
CIRCLE
  8
44
 10
-37.9000
 20
-1.0000
 30
0.0000
 40
0.1000
  0
CIRCLE
  8
44
 10
-59.2000
 20
56.6000
 30
0.0000
 40
0.1000
  0
CIRCLE
  8
44
 10
-57.2000
 20
56.6000
 30
0.0000
 40
0.1000
  0
CIRCLE
  8
44
 10
-55.2000
 20
56.6000
 30
0.0000
 40
0.1000
  0
CIRCLE
  8
44
 10
-53.2000
 20
56.6000
 30
0.0000
 40
0.1000
  0
CIRCLE
  8
44
 10
-65.1000
 20
15.0000
 30
0.0000
 40
0.1000
  0
CIRCLE
  8
44
 10
-65.1000
 20
13.0000
 30
0.0000
 40
0.1000
  0
CIRCLE
  8
44
 10
-65.1000
 20
11.0000
 30
0.0000
 40
0.1000
  0
CIRCLE
  8
44
 10
-65.1000
 20
9.0000
 30
0.0000
 40
0.1000
  0
CIRCLE
  8
44
 10
-65.1000
 20
7.0000
 30
0.0000
 40
0.1000
  0
CIRCLE
  8
44
 10
-65.1000
 20
5.0000
 30
0.0000
 40
0.1000
  0
CIRCLE
  8
44
 10
-65.1000
 20
17.0000
 30
0.0000
 40
0.1000
  0
CIRCLE
  8
44
 10
-65.1000
 20
19.0000
 30
0.0000
 40
0.1000
  0
CIRCLE
  8
44
 10
-65.1000
 20
21.0000
 30
0.0000
 40
0.1000
  0
CIRCLE
  8
44
 10
-65.1000
 20
23.0000
 30
0.0000
 40
0.1000
  0
CIRCLE
  8
44
 10
-65.1000
 20
25.0000
 30
0.0000
 40
0.1000
  0
CIRCLE
  8
44
 10
-65.1000
 20
27.0000
 30
0.0000
 40
0.1000
  0
CIRCLE
  8
44
 10
-65.1000
 20
29.0000
 30
0.0000
 40
0.1000
  0
CIRCLE
  8
44
 10
-65.1000
 20
31.0000
 30
0.0000
 40
0.1000
  0
CIRCLE
  8
44
 10
-63.0000
 20
15.8000
 30
0.0000
 40
0.1000
  0
CIRCLE
  8
44
 10
-39.5000
 20
0.5000
 30
0.0000
 40
0.1000
  0
CIRCLE
  8
44
 10
-41.5000
 20
0.5000
 30
0.0000
 40
0.1000
  0
CIRCLE
  8
44
 10
-43.5000
 20
0.5000
 30
0.0000
 40
0.1000
  0
CIRCLE
  8
44
 10
-45.5000
 20
0.5000
 30
0.0000
 40
0.1000
  0
CIRCLE
  8
44
 10
-47.5000
 20
0.5000
 30
0.0000
 40
0.1000
  0
CIRCLE
  8
44
 10
-49.5000
 20
0.5000
 30
0.0000
 40
0.1000
  0
CIRCLE
  8
44
 10
-58.8000
 20
19.2000
 30
0.0000
 40
0.1000
  0
CIRCLE
  8
44
 10
-62.6000
 20
22.4000
 30
0.0000
 40
0.1000
  0
CIRCLE
  8
44
 10
-62.0000
 20
20.3000
 30
0.0000
 40
0.1000
  0
CIRCLE
  8
44
 10
-60.6000
 20
20.3000
 30
0.0000
 40
0.1000
  0
CIRCLE
  8
44
 10
-62.0000
 20
19.5000
 30
0.0000
 40
0.1000
  0
CIRCLE
  8
44
 10
-60.6000
 20
19.5000
 30
0.0000
 40
0.1000
  0
CIRCLE
  8
44
 10
-61.3000
 20
19.9000
 30
0.0000
 40
0.1000
  0
CIRCLE
  8
44
 10
-55.7000
 20
17.9000
 30
0.0000
 40
0.1000
  0
CIRCLE
  8
44
 10
-56.7000
 20
17.8000
 30
0.0000
 40
0.1000
  0
CIRCLE
  8
44
 10
-55.7000
 20
15.8000
 30
0.0000
 40
0.1000
  0
CIRCLE
  8
44
 10
-56.8000
 20
15.8000
 30
0.0000
 40
0.1000
  0
CIRCLE
  8
44
 10
-56.6000
 20
19.8000
 30
0.0000
 40
0.1000
  0
CIRCLE
  8
44
 10
-56.7000
 20
21.6000
 30
0.0000
 40
0.1000
  0
CIRCLE
  8
44
 10
-56.1000
 20
16.8000
 30
0.0000
 40
0.1000
  0
CIRCLE
  8
44
 10
-55.6200
 20
12.1900
 30
0.0000
 40
0.1000
  0
CIRCLE
  8
44
 10
-43.3000
 20
55.5000
 30
0.0000
 40
0.1000
  0
CIRCLE
  8
44
 10
-37.4000
 20
45.5000
 30
0.0000
 40
0.1000
  0
CIRCLE
  8
44
 10
-16.2000
 20
9.1666
 30
0.0000
 40
0.1000
  0
CIRCLE
  8
44
 10
-15.7000
 20
9.1666
 30
0.0000
 40
0.1000
  0
CIRCLE
  8
44
 10
-51.5000
 20
0.5000
 30
0.0000
 40
0.1000
  0
CIRCLE
  8
44
 10
-32.3000
 20
2.1000
 30
0.0000
 40
0.2000
  0
CIRCLE
  8
44
 10
-23.9000
 20
4.5000
 30
0.0000
 40
0.2000
  0
CIRCLE
  8
44
 10
-32.2000
 20
-1.0000
 30
0.0000
 40
0.2000
  0
CIRCLE
  8
44
 10
-30.0000
 20
4.5000
 30
0.0000
 40
0.1000
  0
CIRCLE
  8
44
 10
-29.2000
 20
5.3000
 30
0.0000
 40
0.1000
  0
CIRCLE
  8
44
 10
-29.2000
 20
4.5000
 30
0.0000
 40
0.1000
  0
CIRCLE
  8
44
 10
-29.6000
 20
4.9000
 30
0.0000
 40
0.1000
  0
CIRCLE
  8
44
 10
-29.4000
 20
39.4000
 30
0.0000
 40
0.2000
  0
CIRCLE
  8
44
 10
-28.8415
 20
36.3585
 30
0.0000
 40
0.2000
  0
CIRCLE
  8
44
 10
-25.2000
 20
38.8000
 30
0.0000
 40
0.2000
  0
CIRCLE
  8
44
 10
-21.9000
 20
37.6000
 30
0.0000
 40
0.2000
  0
CIRCLE
  8
44
 10
-21.8000
 20
45.0000
 30
0.0000
 40
0.2000
  0
CIRCLE
  8
44
 10
-43.5415
 20
40.2585
 30
0.0000
 40
0.2000
  0
CIRCLE
  8
44
 10
-23.6000
 20
0.4000
 30
0.0000
 40
0.1500
  0
CIRCLE
  8
44
 10
-15.3000
 20
-0.0468
 30
0.0000
 40
0.1500
  0
CIRCLE
  8
44
 10
-41.5000
 20
57.6000
 30
0.0000
 40
0.2000
  0
CIRCLE
  8
44
 10
-41.1000
 20
50.4000
 30
0.0000
 40
0.2000
  0
CIRCLE
  8
44
 10
-31.6000
 20
-2.5000
 30
0.0000
 40
0.1000
  0
CIRCLE
  8
44
 10
-27.6000
 20
-2.5000
 30
0.0000
 40
0.1000
  0
CIRCLE
  8
44
 10
-25.6000
 20
-2.5000
 30
0.0000
 40
0.1000
  0
CIRCLE
  8
44
 10
-23.6000
 20
-2.5000
 30
0.0000
 40
0.1000
  0
CIRCLE
  8
44
 10
-7.6000
 20
-2.5000
 30
0.0000
 40
0.1000
  0
CIRCLE
  8
44
 10
-9.6000
 20
-2.5000
 30
0.0000
 40
0.1000
  0
CIRCLE
  8
44
 10
-11.6000
 20
-2.5000
 30
0.0000
 40
0.1000
  0
CIRCLE
  8
44
 10
-28.2000
 20
47.9000
 30
0.0000
 40
0.1000
  0
CIRCLE
  8
44
 10
-49.9000
 20
30.4000
 30
0.0000
 40
0.1000
  0
CIRCLE
  8
44
 10
-49.1000
 20
31.3000
 30
0.0000
 40
0.1000
  0
CIRCLE
  8
44
 10
-51.0000
 20
29.4000
 30
0.0000
 40
0.1000
  0
CIRCLE
  8
44
 10
-51.7000
 20
28.6000
 30
0.0000
 40
0.1000
  0
CIRCLE
  8
44
 10
-44.1000
 20
31.9000
 30
0.0000
 40
0.1000
  0
CIRCLE
  8
44
 10
-42.2000
 20
33.6000
 30
0.0000
 40
0.1000
  0
CIRCLE
  8
44
 10
-40.3000
 20
35.6000
 30
0.0000
 40
0.1000
  0
CIRCLE
  8
44
 10
-54.3000
 20
47.8000
 30
0.0000
 40
0.1000
  0
CIRCLE
  8
44
 10
-20.3000
 20
35.6000
 30
0.0000
 40
0.1000
  0
CIRCLE
  8
44
 10
8.4000
 20
63.4000
 30
0.0000
 40
0.1000
  0
CIRCLE
  8
44
 10
-62.1000
 20
32.4000
 30
0.0000
 40
0.1000
  0
CIRCLE
  8
44
 10
4.0000
 20
45.4843
 30
0.0000
 40
0.1000
  0
CIRCLE
  8
44
 10
3.3000
 20
54.4000
 30
0.0000
 40
0.1000
  0
CIRCLE
  8
44
 10
6.9000
 20
54.3000
 30
0.0000
 40
0.1000
  0
CIRCLE
  8
44
 10
5.9000
 20
49.3000
 30
0.0000
 40
0.1000
  0
CIRCLE
  8
44
 10
4.6000
 20
49.2000
 30
0.0000
 40
0.1000
  0
CIRCLE
  8
44
 10
-1.8000
 20
49.3000
 30
0.0000
 40
0.1000
  0
CIRCLE
  8
44
 10
-1.8000
 20
50.6000
 30
0.0000
 40
0.1000
  0
CIRCLE
  8
44
 10
-1.8000
 20
47.7000
 30
0.0000
 40
0.1000
  0
CIRCLE
  8
44
 10
2.0000
 20
46.7000
 30
0.0000
 40
0.1000
  0
CIRCLE
  8
44
 10
5.5000
 20
46.7000
 30
0.0000
 40
0.1000
  0
CIRCLE
  8
44
 10
7.0000
 20
46.6000
 30
0.0000
 40
0.1000
  0
CIRCLE
  8
44
 10
7.1000
 20
48.0000
 30
0.0000
 40
0.1000
  0
CIRCLE
  8
44
 10
7.1000
 20
45.4000
 30
0.0000
 40
0.1000
  0
CIRCLE
  8
44
 10
7.0000
 20
44.2000
 30
0.0000
 40
0.1000
  0
CIRCLE
  8
44
 10
5.7000
 20
44.2000
 30
0.0000
 40
0.1000
  0
CIRCLE
  8
44
 10
5.7000
 20
42.9000
 30
0.0000
 40
0.1000
  0
CIRCLE
  8
44
 10
7.2000
 20
43.0000
 30
0.0000
 40
0.1000
  0
CIRCLE
  8
44
 10
4.5000
 20
43.0000
 30
0.0000
 40
0.1000
  0
CIRCLE
  8
44
 10
1.9000
 20
42.9000
 30
0.0000
 40
0.1000
  0
CIRCLE
  8
44
 10
-0.5000
 20
42.6000
 30
0.0000
 40
0.1000
  0
CIRCLE
  8
44
 10
-0.6000
 20
43.7000
 30
0.0000
 40
0.1000
  0
CIRCLE
  8
44
 10
0.7000
 20
44.0000
 30
0.0000
 40
0.1000
  0
CIRCLE
  8
44
 10
-1.9000
 20
39.1000
 30
0.0000
 40
0.1000
  0
CIRCLE
  8
44
 10
-3.1000
 20
39.1000
 30
0.0000
 40
0.1000
  0
CIRCLE
  8
44
 10
0.7000
 20
37.9000
 30
0.0000
 40
0.1000
  0
CIRCLE
  8
44
 10
2.1000
 20
37.8000
 30
0.0000
 40
0.1000
  0
CIRCLE
  8
44
 10
3.2000
 20
37.8000
 30
0.0000
 40
0.1000
  0
CIRCLE
  8
44
 10
3.3000
 20
40.4000
 30
0.0000
 40
0.1000
  0
CIRCLE
  8
44
 10
4.5000
 20
37.8000
 30
0.0000
 40
0.1000
  0
CIRCLE
  8
44
 10
5.8000
 20
37.8000
 30
0.0000
 40
0.1000
  0
CIRCLE
  8
44
 10
5.8000
 20
39.1000
 30
0.0000
 40
0.1000
  0
CIRCLE
  8
44
 10
7.1000
 20
39.0000
 30
0.0000
 40
0.1000
  0
CIRCLE
  8
44
 10
7.1000
 20
37.9000
 30
0.0000
 40
0.1000
  0
CIRCLE
  8
44
 10
7.2000
 20
36.5000
 30
0.0000
 40
0.1000
  0
CIRCLE
  8
44
 10
5.8000
 20
36.5000
 30
0.0000
 40
0.1000
  0
CIRCLE
  8
44
 10
4.6000
 20
36.6000
 30
0.0000
 40
0.1000
  0
CIRCLE
  8
44
 10
1.9000
 20
36.4000
 30
0.0000
 40
0.1000
  0
CIRCLE
  8
44
 10
0.7000
 20
36.4000
 30
0.0000
 40
0.1000
  0
CIRCLE
  8
44
 10
-1.8000
 20
36.1000
 30
0.0000
 40
0.1000
  0
CIRCLE
  8
44
 10
-3.1000
 20
36.1000
 30
0.0000
 40
0.1000
  0
CIRCLE
  8
44
 10
-0.6000
 20
35.0000
 30
0.0000
 40
0.1000
  0
CIRCLE
  8
44
 10
-3.0000
 20
34.7000
 30
0.0000
 40
0.1000
  0
CIRCLE
  8
44
 10
2.0000
 20
35.0000
 30
0.0000
 40
0.1000
  0
CIRCLE
  8
44
 10
5.8000
 20
35.0000
 30
0.0000
 40
0.1000
  0
CIRCLE
  8
44
 10
5.8000
 20
34.0000
 30
0.0000
 40
0.1000
  0
CIRCLE
  8
44
 10
3.3000
 20
32.9000
 30
0.0000
 40
0.1000
  0
CIRCLE
  8
44
 10
5.7000
 20
32.8000
 30
0.0000
 40
0.1000
  0
CIRCLE
  8
44
 10
4.7000
 20
31.4000
 30
0.0000
 40
0.1000
  0
CIRCLE
  8
44
 10
7.2000
 20
31.4000
 30
0.0000
 40
0.1000
  0
CIRCLE
  8
44
 10
1.9000
 20
32.8000
 30
0.0000
 40
0.1000
  0
CIRCLE
  8
44
 10
0.7000
 20
31.5000
 30
0.0000
 40
0.1000
  0
CIRCLE
  8
44
 10
-0.6000
 20
31.3000
 30
0.0000
 40
0.1000
  0
CIRCLE
  8
44
 10
0.7000
 20
30.0000
 30
0.0000
 40
0.1000
  0
CIRCLE
  8
44
 10
-1.8000
 20
28.6000
 30
0.0000
 40
0.1000
  0
CIRCLE
  8
44
 10
-1.8000
 20
27.6000
 30
0.0000
 40
0.1000
  0
CIRCLE
  8
44
 10
-3.2000
 20
27.6000
 30
0.0000
 40
0.1000
  0
CIRCLE
  8
44
 10
-0.5000
 20
27.7000
 30
0.0000
 40
0.1000
  0
CIRCLE
  8
44
 10
-6.5000
 20
28.1000
 30
0.0000
 40
0.1000
  0
CIRCLE
  8
44
 10
-5.1000
 20
27.6000
 30
0.0000
 40
0.1000
  0
CIRCLE
  8
44
 10
-1.8000
 20
25.2000
 30
0.0000
 40
0.1000
  0
CIRCLE
  8
44
 10
-0.5000
 20
25.2000
 30
0.0000
 40
0.1000
  0
CIRCLE
  8
44
 10
0.7000
 20
25.2000
 30
0.0000
 40
0.1000
  0
CIRCLE
  8
44
 10
2.0000
 20
25.1000
 30
0.0000
 40
0.1000
  0
CIRCLE
  8
44
 10
-3.1000
 20
26.3000
 30
0.0000
 40
0.1000
  0
CIRCLE
  8
44
 10
2.0000
 20
26.3000
 30
0.0000
 40
0.1000
  0
CIRCLE
  8
44
 10
-0.5000
 20
26.3000
 30
0.0000
 40
0.1000
  0
CIRCLE
  8
44
 10
-0.5000
 20
23.8000
 30
0.0000
 40
0.1000
  0
CIRCLE
  8
44
 10
0.8000
 20
23.8000
 30
0.0000
 40
0.1000
  0
CIRCLE
  8
44
 10
2.1000
 20
23.8000
 30
0.0000
 40
0.1000
  0
CIRCLE
  8
44
 10
2.0000
 20
22.4000
 30
0.0000
 40
0.1000
  0
CIRCLE
  8
44
 10
-1.8000
 20
21.2000
 30
0.0000
 40
0.1000
  0
CIRCLE
  8
44
 10
0.7000
 20
21.2000
 30
0.0000
 40
0.1000
  0
CIRCLE
  8
44
 10
5.7000
 20
21.3000
 30
0.0000
 40
0.1000
  0
CIRCLE
  8
44
 10
3.2000
 20
8.6000
 30
0.0000
 40
0.1000
  0
CIRCLE
  8
44
 10
-0.5000
 20
53.1000
 30
0.0000
 40
0.1000
  0
CIRCLE
  8
44
 10
-3.1000
 20
53.9000
 30
0.0000
 40
0.1000
  0
CIRCLE
  8
44
 10
-0.4000
 20
56.8000
 30
0.0000
 40
0.1000
  0
CIRCLE
  8
44
 10
3.3000
 20
56.8000
 30
0.0000
 40
0.1000
  0
CIRCLE
  8
44
 10
5.1000
 20
57.1000
 30
0.0000
 40
0.1000
  0
CIRCLE
  8
44
 10
0.6000
 20
51.7000
 30
0.0000
 40
0.1000
  0
CIRCLE
  8
44
 10
-1.8000
 20
51.8000
 30
0.0000
 40
0.1000
  0
CIRCLE
  8
44
 10
0.7000
 20
47.7000
 30
0.0000
 40
0.1000
  0
CIRCLE
  8
44
 10
-0.5000
 20
46.1000
 30
0.0000
 40
0.1000
  0
CIRCLE
  8
44
 10
7.1000
 20
28.8000
 30
0.0000
 40
0.1000
  0
CIRCLE
  8
44
 10
5.8000
 20
26.4000
 30
0.0000
 40
0.1000
  0
CIRCLE
  8
44
 10
7.1000
 20
26.4000
 30
0.0000
 40
0.1000
  0
CIRCLE
  8
44
 10
3.2000
 20
26.5000
 30
0.0000
 40
0.1000
  0
CIRCLE
  8
44
 10
-0.5000
 20
21.2000
 30
0.0000
 40
0.1000
  0
CIRCLE
  8
44
 10
-0.6000
 20
18.7000
 30
0.0000
 40
0.1000
  0
CIRCLE
  8
44
 10
-1.9000
 20
18.7000
 30
0.0000
 40
0.1000
  0
CIRCLE
  8
44
 10
-3.1000
 20
19.7000
 30
0.0000
 40
0.1000
  0
CIRCLE
  8
44
 10
2.0000
 20
18.7000
 30
0.0000
 40
0.1000
  0
CIRCLE
  8
44
 10
4.6000
 20
16.5000
 30
0.0000
 40
0.1000
  0
CIRCLE
  8
44
 10
7.1000
 20
16.4000
 30
0.0000
 40
0.1000
  0
CIRCLE
  8
44
 10
7.1000
 20
18.8000
 30
0.0000
 40
0.1000
  0
CIRCLE
  8
44
 10
-1.8000
 20
16.2000
 30
0.0000
 40
0.1000
  0
CIRCLE
  8
44
 10
0.6000
 20
16.3000
 30
0.0000
 40
0.1000
  0
CIRCLE
  8
44
 10
-0.5000
 20
16.3000
 30
0.0000
 40
0.1000
  0
CIRCLE
  8
44
 10
-3.1000
 20
15.0000
 30
0.0000
 40
0.1000
  0
CIRCLE
  8
44
 10
-0.6000
 20
14.9000
 30
0.0000
 40
0.1000
  0
CIRCLE
  8
44
 10
-3.1000
 20
13.6000
 30
0.0000
 40
0.1000
  0
CIRCLE
  8
44
 10
-3.0000
 20
12.4000
 30
0.0000
 40
0.1000
  0
CIRCLE
  8
44
 10
-3.1000
 20
11.1000
 30
0.0000
 40
0.1000
  0
CIRCLE
  8
44
 10
-3.1000
 20
9.8000
 30
0.0000
 40
0.1000
  0
CIRCLE
  8
44
 10
0.9000
 20
12.4000
 30
0.0000
 40
0.1000
  0
CIRCLE
  8
44
 10
3.2000
 20
11.3000
 30
0.0000
 40
0.1000
  0
CIRCLE
  8
44
 10
2.6000
 20
6.1000
 30
0.0000
 40
0.1000
  0
CIRCLE
  8
44
 10
4.4000
 20
7.4000
 30
0.0000
 40
0.1000
  0
CIRCLE
  8
44
 10
7.0000
 20
7.4000
 30
0.0000
 40
0.1000
  0
CIRCLE
  8
44
 10
7.1000
 20
8.7000
 30
0.0000
 40
0.1000
  0
CIRCLE
  8
44
 10
7.2000
 20
10.0000
 30
0.0000
 40
0.1000
  0
CIRCLE
  8
44
 10
5.9000
 20
11.3000
 30
0.0000
 40
0.1000
  0
CIRCLE
  8
44
 10
-4.0000
 20
8.7000
 30
0.0000
 40
0.1000
  0
CIRCLE
  8
44
 10
0.1000
 20
5.8000
 30
0.0000
 40
0.1000
  0
CIRCLE
  8
44
 10
1.2000
 20
8.6000
 30
0.0000
 40
0.1000
  0
CIRCLE
  8
44
 10
0.2000
 20
11.2000
 30
0.0000
 40
0.1000
  0
CIRCLE
  8
44
 10
-1.7000
 20
9.0000
 30
0.0000
 40
0.1000
  0
CIRCLE
  8
44
 10
-2.4000
 20
6.1000
 30
0.0000
 40
0.1000
  0
CIRCLE
  8
44
 10
-4.3000
 20
7.3000
 30
0.0000
 40
0.1000
  0
CIRCLE
  8
44
 10
7.0000
 20
6.1000
 30
0.0000
 40
0.1000
  0
CIRCLE
  8
44
 10
4.6000
 20
6.1000
 30
0.0000
 40
0.1000
  0
CIRCLE
  8
44
 10
7.1000
 20
12.5000
 30
0.0000
 40
0.1000
  0
CIRCLE
  8
44
 10
7.1000
 20
13.7000
 30
0.0000
 40
0.1000
  0
CIRCLE
  8
44
 10
2.1000
 20
16.3000
 30
0.0000
 40
0.1000
  0
CIRCLE
  8
44
 10
-1.8000
 20
12.5000
 30
0.0000
 40
0.1000
  0
CIRCLE
  8
44
 10
-4.2000
 20
12.4000
 30
0.0000
 40
0.1000
  0
CIRCLE
  8
44
 10
7.0000
 20
23.6000
 30
0.0000
 40
0.1000
  0
CIRCLE
  8
44
 10
7.0000
 20
25.2000
 30
0.0000
 40
0.1000
  0
CIRCLE
  8
44
 10
7.1000
 20
15.0000
 30
0.0000
 40
0.1000
  0
CIRCLE
  8
44
 10
-7.6000
 20
51.2000
 30
0.0000
 40
0.1000
  0
CIRCLE
  8
44
 10
-6.9000
 20
50.5000
 30
0.0000
 40
0.1000
  0
CIRCLE
  8
44
 10
-6.2000
 20
49.9000
 30
0.0000
 40
0.1000
  0
CIRCLE
  8
44
 10
-5.8000
 20
49.5000
 30
0.0000
 40
0.1000
  0
CIRCLE
  8
44
 10
-5.4000
 20
49.1000
 30
0.0000
 40
0.1000
  0
CIRCLE
  8
44
 10
-4.0000
 20
47.7000
 30
0.0000
 40
0.1000
  0
CIRCLE
  8
44
 10
-4.9000
 20
48.6000
 30
0.0000
 40
0.1000
  0
CIRCLE
  8
44
 10
-7.3000
 20
50.9000
 30
0.0000
 40
0.1000
  0
CIRCLE
  8
44
 10
-24.2000
 20
59.4000
 30
0.0000
 40
0.2000
  0
CIRCLE
  8
44
 10
-33.1000
 20
65.1000
 30
0.0000
 40
0.2000
  0
CIRCLE
  8
44
 10
-29.2000
 20
11.3000
 30
0.0000
 40
0.1000
  0
CIRCLE
  8
44
 10
-21.6000
 20
53.9000
 30
0.0000
 40
0.1000
  0
CIRCLE
  8
44
 10
-24.0000
 20
53.9000
 30
0.0000
 40
0.1000
  0
CIRCLE
  8
44
 10
-23.2000
 20
55.1000
 30
0.0000
 40
0.1000
  0
CIRCLE
  8
44
 10
-24.6000
 20
55.0000
 30
0.0000
 40
0.1000
  0
CIRCLE
  8
44
 10
-25.7000
 20
53.4000
 30
0.0000
 40
0.1000
  0
CIRCLE
  8
44
 10
-28.0000
 20
48.5000
 30
0.0000
 40
0.1000
  0
CIRCLE
  8
44
 10
-29.3000
 20
48.1000
 30
0.0000
 40
0.1000
  0
CIRCLE
  8
44
 10
-40.6000
 20
60.7000
 30
0.0000
 40
0.1000
  0
CIRCLE
  8
44
 10
-40.7000
 20
59.1000
 30
0.0000
 40
0.1000
  0
CIRCLE
  8
44
 10
-38.9000
 20
59.2000
 30
0.0000
 40
0.1000
  0
CIRCLE
  8
44
 10
-43.2000
 20
62.1000
 30
0.0000
 40
0.1000
  0
CIRCLE
  8
44
 10
-43.2000
 20
59.1000
 30
0.0000
 40
0.1000
  0
CIRCLE
  8
44
 10
-29.2000
 20
30.8000
 30
0.0000
 40
0.1000
  0
CIRCLE
  8
44
 10
-28.2000
 20
29.6000
 30
0.0000
 40
0.1000
  0
CIRCLE
  8
44
 10
-6.5000
 20
27.1000
 30
0.0000
 40
0.1000
  0
CIRCLE
  8
44
 10
-5.8000
 20
25.9000
 30
0.0000
 40
0.1000
  0
CIRCLE
  8
44
 10
-24.4000
 20
17.8000
 30
0.0000
 40
0.1000
  0
CIRCLE
  8
44
 10
-24.8000
 20
15.9000
 30
0.0000
 40
0.1000
  0
CIRCLE
  8
44
 10
-25.2000
 20
14.5000
 30
0.0000
 40
0.1000
  0
CIRCLE
  8
44
 10
-26.4000
 20
7.9000
 30
0.0000
 40
0.1000
  0
CIRCLE
  8
44
 10
-27.3000
 20
8.4000
 30
0.0000
 40
0.1000
  0
CIRCLE
  8
44
 10
-7.1000
 20
35.5000
 30
0.0000
 40
0.1000
  0
CIRCLE
  8
44
 10
-4.2000
 20
39.3000
 30
0.0000
 40
0.1000
  0
CIRCLE
  8
44
 10
-5.5000
 20
56.8000
 30
0.0000
 40
0.1000
  0
CIRCLE
  8
44
 10
-7.6000
 20
59.2000
 30
0.0000
 40
0.1000
  0
CIRCLE
  8
44
 10
-7.7600
 20
61.3900
 30
0.0000
 40
0.1000
  0
CIRCLE
  8
44
 10
5.9000
 20
60.3000
 30
0.0000
 40
0.1000
  0
CIRCLE
  8
44
 10
-20.0000
 20
46.8000
 30
0.0000
 40
0.1000
  0
CIRCLE
  8
44
 10
-31.1000
 20
24.7000
 30
0.0000
 40
0.3500
  0
CIRCLE
  8
44
 10
-41.5200
 20
49.1600
 30
0.0000
 40
0.2000
  0
CIRCLE
  8
44
 10
-1.8800
 20
46.0600
 30
0.0000
 40
0.1000
  0
CIRCLE
  8
44
 10
-3.0500
 20
46.0100
 30
0.0000
 40
0.1000
  0
CIRCLE
  8
44
 10
-3.0400
 20
42.3500
 30
0.0000
 40
0.1000
  0
CIRCLE
  8
44
 10
3.2000
 20
58.5000
 30
0.0000
 40
0.2000
  0
CIRCLE
  8
44
 10
-2.4000
 20
57.5000
 30
0.0000
 40
0.2000
  0
CIRCLE
  8
44
 10
2.0000
 20
57.0000
 30
0.0000
 40
0.2000
  0
CIRCLE
  8
44
 10
-60.5000
 20
5.4000
 30
0.0000
 40
0.1000
  0
CIRCLE
  8
44
 10
-12.1000
 20
0.1000
 30
0.0000
 40
0.1000
  0
CIRCLE
  8
44
 10
-9.8000
 20
1.2000
 30
0.0000
 40
0.1000
  0
CIRCLE
  8
44
 10
-15.1000
 20
4.3000
 30
0.0000
 40
0.1000
  0
CIRCLE
  8
44
 10
-25.2000
 20
1.2000
 30
0.0000
 40
0.1000
  0
CIRCLE
  8
44
 10
-29.3000
 20
3.8000
 30
0.0000
 40
0.1000
  0
CIRCLE
  8
44
 10
-30.7000
 20
-0.9000
 30
0.0000
 40
0.1000
  0
CIRCLE
  8
44
 10
-36.3000
 20
1.0000
 30
0.0000
 40
0.1000
  0
CIRCLE
  8
44
 10
-5.8000
 20
0.7000
 30
0.0000
 40
0.1000
  0
CIRCLE
  8
44
 10
-7.9000
 20
0.4000
 30
0.0000
 40
0.1000
  0
CIRCLE
  8
44
 10
-2.8000
 20
-0.8000
 30
0.0000
 40
0.1000
  0
CIRCLE
  8
44
 10
4.2000
 20
2.8000
 30
0.0000
 40
0.1000
  0
CIRCLE
  8
44
 10
9.2000
 20
0.5000
 30
0.0000
 40
0.1000
  0
CIRCLE
  8
44
 10
3.3000
 20
0.8000
 30
0.0000
 40
0.1000
  0
CIRCLE
  8
44
 10
8.2000
 20
3.8000
 30
0.0000
 40
0.1000
  0
CIRCLE
  8
44
 10
2.1000
 20
2.7000
 30
0.0000
 40
0.1000
  0
CIRCLE
  8
44
 10
-63.6000
 20
6.5000
 30
0.0000
 40
0.1000
  0
CIRCLE
  8
44
 10
-63.4000
 20
8.4000
 30
0.0000
 40
0.1000
  0
CIRCLE
  8
44
 10
-61.0000
 20
10.2000
 30
0.0000
 40
0.1000
  0
CIRCLE
  8
44
 10
-58.9000
 20
22.9000
 30
0.0000
 40
0.1000
  0
CIRCLE
  8
44
 10
-58.9000
 20
26.2000
 30
0.0000
 40
0.1000
  0
CIRCLE
  8
44
 10
-63.4000
 20
25.6000
 30
0.0000
 40
0.1000
  0
CIRCLE
  8
44
 10
-61.7000
 20
28.5000
 30
0.0000
 40
0.1000
  0
CIRCLE
  8
44
 10
-55.9000
 20
30.3000
 30
0.0000
 40
0.1000
  0
CIRCLE
  8
44
 10
-51.5000
 20
31.1000
 30
0.0000
 40
0.1000
  0
CIRCLE
  8
44
 10
-54.3000
 20
41.5000
 30
0.0000
 40
0.1000
  0
CIRCLE
  8
44
 10
-57.8000
 20
42.0000
 30
0.0000
 40
0.1000
  0
CIRCLE
  8
44
 10
-57.8000
 20
38.3000
 30
0.0000
 40
0.1000
  0
CIRCLE
  8
44
 10
-23.3000
 20
60.2000
 30
0.0000
 40
0.1000
  0
CIRCLE
  8
44
 10
-24.3000
 20
61.3000
 30
0.0000
 40
0.1000
  0
CIRCLE
  8
44
 10
-23.9000
 20
63.1000
 30
0.0000
 40
0.1000
  0
CIRCLE
  8
44
 10
-28.6000
 20
62.5000
 30
0.0000
 40
0.1000
  0
CIRCLE
  8
44
 10
-46.1000
 20
39.3000
 30
0.0000
 40
0.1000
  0
CIRCLE
  8
44
 10
-48.5000
 20
40.6000
 30
0.0000
 40
0.1000
  0
CIRCLE
  8
44
 10
-40.7000
 20
40.2000
 30
0.0000
 40
0.1000
  0
CIRCLE
  8
44
 10
-34.9000
 20
40.7000
 30
0.0000
 40
0.1000
  0
CIRCLE
  8
44
 10
-38.7000
 20
41.5000
 30
0.0000
 40
0.1000
  0
CIRCLE
  8
44
 10
-29.0000
 20
25.2000
 30
0.0000
 40
0.1000
  0
CIRCLE
  8
44
 10
-63.1000
 20
5.0000
 30
0.0000
 40
0.1000
  0
CIRCLE
  8
44
 10
-59.1000
 20
5.0000
 30
0.0000
 40
0.1000
  0
CIRCLE
  8
44
 10
-57.1000
 20
5.0000
 30
0.0000
 40
0.1000
  0
CIRCLE
  8
44
 10
-55.1000
 20
5.0000
 30
0.0000
 40
0.1000
  0
CIRCLE
  8
44
 10
-54.2000
 20
5.0000
 30
0.0000
 40
0.1000
  0
CIRCLE
  8
44
 10
-51.5000
 20
2.3000
 30
0.0000
 40
0.1000
  0
CIRCLE
  8
44
 10
-1.6000
 20
53.0000
 30
0.0000
 40
0.1000
  0
CIRCLE
  8
44
 10
-15.6000
 20
60.4000
 30
0.0000
 40
0.1000
  0
CIRCLE
  8
44
 10
-6.5000
 20
56.0000
 30
0.0000
 40
0.1000
  0
CIRCLE
  8
44
 10
-4.1000
 20
54.3000
 30
0.0000
 40
0.1000
  0
CIRCLE
  8
44
 10
-15.7000
 20
57.0000
 30
0.0000
 40
0.1000
  0
CIRCLE
  8
44
 10
-6.5000
 20
55.3000
 30
0.0000
 40
0.1000
  0
CIRCLE
  8
44
 10
1.0000
 20
53.0000
 30
0.0000
 40
0.1000
  0
CIRCLE
  8
44
 10
-3.8000
 20
60.6000
 30
0.0000
 40
0.1000
  0
CIRCLE
  8
44
 10
2.1000
 20
51.5000
 30
0.0000
 40
0.1000
  0
CIRCLE
  8
44
 10
-4.7000
 20
59.8000
 30
0.0000
 40
0.1000
  0
CIRCLE
  8
44
 10
-1.8000
 20
54.0000
 30
0.0000
 40
0.1000
  0
CIRCLE
  8
44
 10
-5.6000
 20
59.8000
 30
0.0000
 40
0.1000
  0
CIRCLE
  8
44
 10
-3.1450
 20
7.2650
 30
0.0000
 40
0.1000
  0
CIRCLE
  8
44
 10
-33.1000
 20
1.1000
 30
0.0000
 40
0.1000
  0
CIRCLE
  8
44
 10
-35.6336
 20
2.2212
 30
0.0000
 40
0.1000
  0
CIRCLE
  8
44
 10
-53.7000
 20
15.3000
 30
0.0000
 40
0.1000
  0
CIRCLE
  8
44
 10
-35.6336
 20
1.6788
 30
0.0000
 40
0.1000
  0
CIRCLE
  8
44
 10
-53.9000
 20
16.0075
 30
0.0000
 40
0.1000
  0
CIRCLE
  8
44
 10
-1.7450
 20
11.1950
 30
0.0000
 40
0.1000
  0
CIRCLE
  8
44
 10
-33.2000
 20
-0.2000
 30
0.0000
 40
0.1000
  0
CIRCLE
  8
44
 10
-35.6000
 20
-1.1000
 30
0.0000
 40
0.1000
  0
CIRCLE
  8
44
 10
-55.2000
 20
14.7000
 30
0.0000
 40
0.1000
  0
CIRCLE
  8
44
 10
-35.4000
 20
-0.6000
 30
0.0000
 40
0.1000
  0
CIRCLE
  8
44
 10
-54.6418
 20
13.9382
 30
0.0000
 40
0.1000
  0
CIRCLE
  8
44
 10
-1.7000
 20
10.1000
 30
0.0000
 40
0.1000
  0
CIRCLE
  8
44
 10
-27.6000
 20
-0.8000
 30
0.0000
 40
0.1000
  0
CIRCLE
  8
44
 10
-56.5400
 20
13.8400
 30
0.0000
 40
0.1000
  0
CIRCLE
  8
44
 10
-29.8000
 20
-2.2000
 30
0.0000
 40
0.1000
  0
CIRCLE
  8
44
 10
-56.0000
 20
13.0412
 30
0.0000
 40
0.1000
  0
CIRCLE
  8
44
 10
-29.8000
 20
-1.5000
 30
0.0000
 40
0.1000
  0
CIRCLE
  8
44
 10
-3.1000
 20
8.6000
 30
0.0000
 40
0.1000
  0
CIRCLE
  8
44
 10
-26.4000
 20
4.8000
 30
0.0000
 40
0.1000
  0
CIRCLE
  8
44
 10
-33.3564
 20
4.1564
 30
0.0000
 40
0.1000
  0
CIRCLE
  8
44
 10
-53.0000
 20
18.5000
 30
0.0000
 40
0.1000
  0
CIRCLE
  8
44
 10
-32.9436
 20
3.8436
 30
0.0000
 40
0.1000
  0
CIRCLE
  8
44
 10
-53.5000
 20
17.9125
 30
0.0000
 40
0.1000
  0
CIRCLE
  8
44
 10
-4.2000
 20
10.1000
 30
0.0000
 40
0.1000
  0
CIRCLE
  8
44
 10
-26.4000
 20
5.4515
 30
0.0000
 40
0.1000
  0
CIRCLE
  8
44
 10
-32.7436
 20
5.2436
 30
0.0000
 40
0.1000
  0
CIRCLE
  8
44
 10
-52.5000
 20
17.2000
 30
0.0000
 40
0.1000
  0
CIRCLE
  8
44
 10
-33.3564
 20
5.3564
 30
0.0000
 40
0.1000
  0
CIRCLE
  8
44
 10
-52.1600
 20
16.5000
 30
0.0000
 40
0.1000
  0
CIRCLE
  8
44
 10
-1.7000
 20
15.1000
 30
0.0000
 40
0.1000
  0
CIRCLE
  8
44
 10
-14.4000
 20
-1.6000
 30
0.0000
 40
0.1000
  0
CIRCLE
  8
44
 10
-13.2868
 20
-1.6000
 30
0.0000
 40
0.1000
  0
CIRCLE
  8
44
 10
-0.5000
 20
13.8000
 30
0.0000
 40
0.1000
  0
CIRCLE
  8
44
 10
-22.7000
 20
-2.2603
 30
0.0000
 40
0.1000
  0
CIRCLE
  8
44
 10
1.6000
 20
10.0000
 30
0.0000
 40
0.1000
  0
CIRCLE
  8
44
 10
-22.1000
 20
-1.2000
 30
0.0000
 40
0.1000
  0
CIRCLE
  8
44
 10
-16.9000
 20
4.3794
 30
0.0000
 40
0.1000
  0
CIRCLE
  8
44
 10
-17.3900
 20
4.4306
 30
0.0000
 40
0.1000
  0
CIRCLE
  8
44
 10
-18.1000
 20
4.4000
 30
0.0000
 40
0.1000
  0
CIRCLE
  8
44
 10
-18.6000
 20
4.4000
 30
0.0000
 40
0.1000
  0
CIRCLE
  8
44
 10
-19.1310
 20
4.3524
 30
0.0000
 40
0.1000
  0
CIRCLE
  8
44
 10
-19.7000
 20
4.4000
 30
0.0000
 40
0.1000
  0
CIRCLE
  8
44
 10
-20.3000
 20
4.4000
 30
0.0000
 40
0.1000
  0
CIRCLE
  8
44
 10
-20.9000
 20
4.4000
 30
0.0000
 40
0.1000
  0
CIRCLE
  8
44
 10
0.9000
 20
13.9000
 30
0.0000
 40
0.1000
  0
CIRCLE
  8
44
 10
2.2000
 20
13.9000
 30
0.0000
 40
0.1000
  0
CIRCLE
  8
44
 10
-1.6000
 20
13.8000
 30
0.0000
 40
0.1000
  0
CIRCLE
  8
44
 10
0.9000
 20
15.2000
 30
0.0000
 40
0.1000
  0
CIRCLE
  8
44
 10
-15.3000
 20
-1.6032
 30
0.0000
 40
0.1000
  0
CIRCLE
  8
44
 10
-12.3000
 20
-1.6000
 30
0.0000
 40
0.1000
  0
CIRCLE
  8
44
 10
-0.4000
 20
12.6000
 30
0.0000
 40
0.1000
  0
CIRCLE
  8
44
 10
-22.1000
 20
-2.0000
 30
0.0000
 40
0.1000
  0
CIRCLE
  8
44
 10
0.9000
 20
11.3000
 30
0.0000
 40
0.1000
  0
CIRCLE
  8
44
 10
-22.5000
 20
-0.7000
 30
0.0000
 40
0.1000
  0
CIRCLE
  8
44
 10
-17.7334
 20
7.6266
 30
0.0000
 40
0.1000
  0
CIRCLE
  8
44
 10
-13.2737
 20
56.7982
 30
0.0000
 40
0.1000
  0
CIRCLE
  8
44
 10
-14.6487
 20
62.0482
 30
0.0000
 40
0.1000
  0
CIRCLE
  8
44
 10
-9.7000
 20
26.4000
 30
0.0000
 40
0.1000
  0
CIRCLE
  8
44
 10
-12.7000
 20
26.4000
 30
0.0000
 40
0.1000
  0
CIRCLE
  8
44
 10
-14.1666
 20
7.6266
 30
0.0000
 40
0.1000
  0
CIRCLE
  8
44
 10
-50.6000
 20
50.7000
 30
0.0000
 40
0.1000
  0
CIRCLE
  8
44
 10
-54.0532
 20
50.7000
 30
0.0000
 40
0.1000
  0
CIRCLE
  8
44
 10
-55.5000
 20
12.8000
 30
0.0000
 40
0.1000
  0
CIRCLE
  8
44
 10
-55.4000
 20
13.5000
 30
0.0000
 40
0.1000
  0
CIRCLE
  8
44
 10
-18.6000
 20
8.0500
 30
0.0000
 40
0.1000
  0
CIRCLE
  8
44
 10
-13.6000
 20
8.0000
 30
0.0000
 40
0.1000
  0
CIRCLE
  8
44
 10
-15.2132
 20
26.6000
 30
0.0000
 40
0.1000
  0
CIRCLE
  8
44
 10
-18.2000
 20
26.7000
 30
0.0000
 40
0.1000
  0
CIRCLE
  8
44
 10
-20.8000
 20
26.6000
 30
0.0000
 40
0.1000
  0
CIRCLE
  8
44
 10
-23.2000
 20
25.9000
 30
0.0000
 40
0.1000
  0
CIRCLE
  8
44
 10
-26.3000
 20
12.0000
 30
0.0000
 40
0.1000
  0
CIRCLE
  8
44
 10
-28.3000
 20
8.1000
 30
0.0000
 40
0.1000
  0
CIRCLE
  8
44
 10
-34.0000
 20
10.1000
 30
0.0000
 40
0.2000
  0
CIRCLE
  8
44
 10
-29.6000
 20
16.7000
 30
0.0000
 40
0.2000
  0
CIRCLE
  8
44
 10
-35.0000
 20
21.7000
 30
0.0000
 40
0.2000
  0
CIRCLE
  8
44
 10
-31.9876
 20
9.1876
 30
0.0000
 40
0.1000
  0
CIRCLE
  8
44
 10
-38.7000
 20
6.9000
 30
0.0000
 40
0.1000
  0
CIRCLE
  8
44
 10
-44.1000
 20
7.2706
 30
0.0000
 40
0.1000
  0
CIRCLE
  8
44
 10
-39.3250
 20
7.0750
 30
0.0000
 40
0.1000
  0
CIRCLE
  8
44
 10
-44.2000
 20
7.7500
 30
0.0000
 40
0.1000
  0
CIRCLE
  8
44
 10
-40.2000
 20
7.0000
 30
0.0000
 40
0.1000
  0
CIRCLE
  8
44
 10
-44.2000
 20
8.2500
 30
0.0000
 40
0.1000
  0
CIRCLE
  8
44
 10
-7.7000
 20
64.8000
 30
0.0000
 40
0.1000
  0
CIRCLE
  8
44
 10
-15.0000
 20
65.2000
 30
0.0000
 40
0.1000
  0
CIRCLE
  8
44
 10
-11.6906
 20
64.0094
 30
0.0000
 40
0.1000
  0
CIRCLE
  8
44
 10
-8.0000
 20
63.3000
 30
0.0000
 40
0.1000
  0
CIRCLE
  8
44
 10
-12.0237
 20
59.2982
 30
0.0000
 40
0.1000
  0
CIRCLE
  8
44
 10
-10.9000
 20
61.8000
 30
0.0000
 40
0.1000
  0
CIRCLE
  8
44
 10
-33.4000
 20
47.8000
 30
0.0000
 40
0.1000
  0
CIRCLE
  8
44
 10
-32.8000
 20
47.8000
 30
0.0000
 40
0.1000
  0
CIRCLE
  8
44
 10
-32.6018
 20
49.3007
 30
0.0000
 40
0.1000
  0
CIRCLE
  8
44
 10
-7.6000
 20
27.1000
 30
0.0000
 40
0.3500
  0
CIRCLE
  8
44
 10
-32.5000
 20
9.5000
 30
0.0000
 40
0.2000
  0
CIRCLE
  8
44
 10
-10.5000
 20
35.1000
 30
0.0000
 40
0.1000
  0
CIRCLE
  8
44
 10
-10.3000
 20
35.6000
 30
0.0000
 40
0.1000
  0
CIRCLE
  8
44
 10
-13.2819
 20
37.4881
 30
0.0000
 40
0.1000
  0
CIRCLE
  8
44
 10
4.5257
 20
44.8375
 30
0.0000
 40
0.1000
  0
CIRCLE
  8
44
 10
5.6000
 20
45.4000
 30
0.0000
 40
0.1000
  0
CIRCLE
  8
44
 10
3.2000
 20
46.5000
 30
0.0000
 40
0.1000
  0
CIRCLE
  8
44
 10
-37.8518
 20
56.6237
 30
0.0000
 40
0.1500
  0
CIRCLE
  8
44
 10
-18.2518
 20
43.3237
 30
0.0000
 40
0.1500
  0
CIRCLE
  8
44
 10
-33.1018
 20
59.0237
 30
0.0000
 40
0.1500
  0
CIRCLE
  8
44
 10
-13.7018
 20
46.3237
 30
0.0000
 40
0.1500
  0
CIRCLE
  8
44
 10
-37.5018
 20
52.5737
 30
0.0000
 40
0.1500
  0
CIRCLE
  8
44
 10
-18.3018
 20
40.1737
 30
0.0000
 40
0.1500
  0
CIRCLE
  8
44
 10
-37.5000
 20
63.7000
 30
0.0000
 40
0.3500
  0
CIRCLE
  8
44
 10
-19.7000
 20
64.0000
 30
0.0000
 40
0.3500
  0
CIRCLE
  8
44
 10
-17.0000
 20
61.5000
 30
0.0000
 40
0.1000
  0
CIRCLE
  8
44
 10
-40.1600
 20
48.3500
 30
0.0000
 40
0.2000
  0
CIRCLE
  8
44
 10
-17.1000
 20
56.4000
 30
0.0000
 40
0.1000
  0
CIRCLE
  8
44
 10
-37.6000
 20
34.4000
 30
0.0000
 40
0.2000
  0
CIRCLE
  8
44
 10
-36.0884
 20
38.7000
 30
0.0000
 40
0.2000
  0
CIRCLE
  8
44
 10
-49.8000
 20
38.4000
 30
0.0000
 40
0.2000
  0
CIRCLE
  8
44
 10
-45.9000
 20
34.4520
 30
0.0000
 40
0.2000
  0
ENDSEC
  0
EOF
