G75*
%MOIN*%
%OFA0B0*%
%FSLAX24Y24*%
%IPPOS*%
%LPD*%
%AMOC8*
5,1,8,0,0,1.08239X$1,22.5*
%
%ADD10C,0.0276*%
%ADD11C,0.0540*%
%ADD12C,0.0250*%
%ADD13C,0.0930*%
%ADD14C,0.0631*%
%ADD15C,0.0335*%
D10*
X005677Y005677D03*
X005399Y005955D03*
X005905Y006422D03*
X006169Y006169D03*
X006422Y005905D03*
X005955Y005399D03*
X017657Y017657D03*
X017921Y017404D03*
X018427Y017871D03*
X018149Y018149D03*
X017871Y018427D03*
X017404Y017921D03*
X025641Y025084D03*
X025362Y025362D03*
X025084Y025641D03*
X025590Y026107D03*
X025854Y025854D03*
X026107Y025590D03*
X037089Y017921D03*
X037342Y017657D03*
X037606Y017404D03*
X038112Y017871D03*
X037834Y018149D03*
X037556Y018427D03*
X045326Y025084D03*
X045047Y025362D03*
X044769Y025641D03*
X045275Y026107D03*
X045539Y025854D03*
X045792Y025590D03*
X056774Y017921D03*
X057027Y017657D03*
X057291Y017404D03*
X057797Y017871D03*
X057519Y018149D03*
X057241Y018427D03*
X065011Y025084D03*
X064732Y025362D03*
X064454Y025641D03*
X064960Y026107D03*
X065224Y025854D03*
X065477Y025590D03*
X076459Y017921D03*
X076712Y017657D03*
X076977Y017404D03*
X077482Y017871D03*
X077204Y018149D03*
X076926Y018427D03*
X064960Y006422D03*
X065224Y006169D03*
X065477Y005905D03*
X065011Y005399D03*
X064732Y005677D03*
X064454Y005955D03*
X045792Y005905D03*
X045539Y006169D03*
X045275Y006422D03*
X044769Y005955D03*
X045047Y005677D03*
X045326Y005399D03*
X026107Y005905D03*
X025854Y006169D03*
X025590Y006422D03*
X025084Y005955D03*
X025362Y005677D03*
X025641Y005399D03*
X005955Y025084D03*
X005677Y025362D03*
X005399Y025641D03*
X005905Y026107D03*
X006169Y025854D03*
X006422Y025590D03*
X017921Y037089D03*
X017657Y037342D03*
X017404Y037606D03*
X017871Y038112D03*
X018149Y037834D03*
X018427Y037556D03*
X025641Y044769D03*
X025362Y045047D03*
X025084Y045326D03*
X025590Y045792D03*
X025854Y045539D03*
X026107Y045275D03*
X037089Y037606D03*
X037342Y037342D03*
X037606Y037089D03*
X038112Y037556D03*
X037834Y037834D03*
X037556Y038112D03*
X045326Y044769D03*
X045047Y045047D03*
X044769Y045326D03*
X045275Y045792D03*
X045539Y045539D03*
X045792Y045275D03*
X056774Y037606D03*
X057027Y037342D03*
X057291Y037089D03*
X057797Y037556D03*
X057519Y037834D03*
X057241Y038112D03*
X065011Y044769D03*
X064732Y045047D03*
X064454Y045326D03*
X064960Y045792D03*
X065224Y045539D03*
X065477Y045275D03*
X076459Y037606D03*
X076712Y037342D03*
X076977Y037089D03*
X077482Y037556D03*
X077204Y037834D03*
X076926Y038112D03*
X076977Y056774D03*
X076712Y057027D03*
X076459Y057291D03*
X076926Y057797D03*
X077204Y057519D03*
X077482Y057241D03*
X057797Y057241D03*
X057519Y057519D03*
X057241Y057797D03*
X056774Y057291D03*
X057027Y057027D03*
X057291Y056774D03*
X038112Y057241D03*
X037834Y057519D03*
X037556Y057797D03*
X037089Y057291D03*
X037342Y057027D03*
X037606Y056774D03*
X018427Y057241D03*
X018149Y057519D03*
X017871Y057797D03*
X017404Y057291D03*
X017657Y057027D03*
X017921Y056774D03*
X006169Y045539D03*
X006422Y045275D03*
X005955Y044769D03*
X005677Y045047D03*
X005399Y045326D03*
X005905Y045792D03*
D11*
X011103Y046225D03*
X016971Y050473D03*
X012723Y056341D03*
X006855Y052093D03*
X012723Y036656D03*
X006855Y032408D03*
X011103Y026540D03*
X016971Y030788D03*
X026540Y032408D03*
X032408Y036656D03*
X036656Y030788D03*
X030788Y026540D03*
X032408Y016971D03*
X026540Y012723D03*
X030788Y006855D03*
X036656Y011103D03*
X046225Y012723D03*
X052093Y016971D03*
X056341Y011103D03*
X050473Y006855D03*
X065910Y012723D03*
X071778Y016971D03*
X076026Y011103D03*
X070158Y006855D03*
X070158Y026540D03*
X076026Y030788D03*
X071778Y036656D03*
X065910Y032408D03*
X056341Y030788D03*
X050473Y026540D03*
X046225Y032408D03*
X052093Y036656D03*
X050473Y046225D03*
X056341Y050473D03*
X052093Y056341D03*
X046225Y052093D03*
X036656Y050473D03*
X030788Y046225D03*
X026540Y052093D03*
X032408Y056341D03*
X065910Y052093D03*
X071778Y056341D03*
X076026Y050473D03*
X070158Y046225D03*
X016971Y011103D03*
X011103Y006855D03*
X006855Y012723D03*
X012723Y016971D03*
D12*
X012993Y018874D03*
X012910Y019153D03*
X012710Y019366D03*
X012447Y019488D03*
X013079Y019417D03*
X013331Y019274D03*
X013512Y019044D03*
X013572Y018759D03*
X013942Y019129D03*
X013703Y019293D03*
X014103Y018886D03*
X014139Y018596D03*
X014539Y018934D03*
X014314Y019117D03*
X014679Y018678D03*
X014690Y018387D03*
X015117Y018690D03*
X014909Y018891D03*
X015236Y018423D03*
X015222Y018132D03*
X015673Y018398D03*
X015482Y018616D03*
X015769Y018122D03*
X015731Y017833D03*
X016202Y018061D03*
X016030Y018294D03*
X016275Y017777D03*
X016213Y017493D03*
X016702Y017680D03*
X016550Y017927D03*
X016750Y017392D03*
X016665Y017113D03*
X017167Y017259D03*
X017037Y017518D03*
X017192Y016968D03*
X017083Y016697D03*
X017596Y016801D03*
X017488Y017069D03*
X017596Y016508D03*
X017465Y016248D03*
X017985Y016308D03*
X017900Y016585D03*
X017961Y016017D03*
X017808Y015768D03*
X018332Y015784D03*
X018270Y016067D03*
X018283Y015496D03*
X018110Y015261D03*
X018633Y015234D03*
X018595Y015521D03*
X018560Y014951D03*
X018369Y014731D03*
X018888Y014660D03*
X018873Y014949D03*
X018791Y014384D03*
X018582Y014181D03*
X019093Y014067D03*
X019103Y014356D03*
X018974Y013800D03*
X018748Y013615D03*
X019248Y013458D03*
X019282Y013746D03*
X019107Y013202D03*
X018867Y013037D03*
X018867Y010789D03*
X019107Y010624D03*
X019248Y010368D03*
X019282Y010080D03*
X018974Y010026D03*
X018748Y010211D03*
X019093Y009759D03*
X019103Y009470D03*
X018791Y009442D03*
X018582Y009645D03*
X018888Y009166D03*
X018873Y008877D03*
X018560Y008875D03*
X018369Y009095D03*
X018633Y008592D03*
X018595Y008305D03*
X018283Y008330D03*
X018110Y008565D03*
X018332Y008042D03*
X018270Y007759D03*
X017961Y007809D03*
X017808Y008058D03*
X017985Y007518D03*
X017900Y007241D03*
X017596Y007318D03*
X017465Y007578D03*
X017596Y007025D03*
X017488Y006757D03*
X017192Y006858D03*
X017083Y007129D03*
X017167Y006567D03*
X017037Y006308D03*
X016750Y006434D03*
X016665Y006713D03*
X016702Y006146D03*
X016550Y005899D03*
X016275Y006049D03*
X016213Y006333D03*
X016202Y005765D03*
X016030Y005532D03*
X015769Y005704D03*
X015731Y005993D03*
X015673Y005428D03*
X015482Y005210D03*
X015236Y005403D03*
X015222Y005694D03*
X015117Y005136D03*
X014909Y004935D03*
X014679Y005148D03*
X014690Y005439D03*
X014539Y004892D03*
X014314Y004709D03*
X014103Y004940D03*
X013942Y004697D03*
X013703Y004533D03*
X013512Y004782D03*
X013572Y005067D03*
X013331Y004552D03*
X013079Y004409D03*
X012910Y004673D03*
X012993Y004952D03*
X012710Y004460D03*
X012447Y004338D03*
X011379Y004338D03*
X011116Y004460D03*
X010916Y004673D03*
X010833Y004952D03*
X010495Y004552D03*
X010747Y004409D03*
X010314Y004782D03*
X010254Y005067D03*
X009884Y004697D03*
X010123Y004533D03*
X009723Y004940D03*
X009687Y005230D03*
X009287Y004892D03*
X009512Y004709D03*
X009147Y005148D03*
X009136Y005439D03*
X008709Y005136D03*
X008917Y004935D03*
X008590Y005403D03*
X008604Y005694D03*
X008153Y005428D03*
X008344Y005210D03*
X008057Y005704D03*
X008095Y005993D03*
X007624Y005765D03*
X007796Y005532D03*
X007551Y006049D03*
X007613Y006333D03*
X007124Y006146D03*
X007276Y005899D03*
X007076Y006434D03*
X007161Y006713D03*
X006659Y006567D03*
X006789Y006308D03*
X006634Y006858D03*
X006743Y007129D03*
X006230Y007025D03*
X006338Y006757D03*
X006230Y007318D03*
X006361Y007578D03*
X005841Y007518D03*
X005926Y007241D03*
X005865Y007809D03*
X006017Y008058D03*
X005494Y008042D03*
X005556Y007759D03*
X005543Y008330D03*
X005716Y008565D03*
X005193Y008592D03*
X005231Y008305D03*
X005266Y008875D03*
X005457Y009095D03*
X004938Y009166D03*
X004953Y008877D03*
X005035Y009442D03*
X005244Y009645D03*
X004733Y009759D03*
X004723Y009470D03*
X004852Y010026D03*
X005078Y010211D03*
X004578Y010368D03*
X004544Y010080D03*
X004719Y010624D03*
X004959Y010789D03*
X004959Y013037D03*
X004719Y013202D03*
X004578Y013458D03*
X004544Y013746D03*
X004852Y013800D03*
X005078Y013615D03*
X004733Y014067D03*
X004723Y014356D03*
X005035Y014384D03*
X005244Y014181D03*
X004938Y014660D03*
X004953Y014949D03*
X005266Y014951D03*
X005457Y014731D03*
X005193Y015234D03*
X005231Y015521D03*
X005543Y015496D03*
X005716Y015261D03*
X005494Y015784D03*
X005556Y016067D03*
X005865Y016017D03*
X006017Y015768D03*
X005841Y016308D03*
X005926Y016585D03*
X006230Y016508D03*
X006361Y016248D03*
X006230Y016801D03*
X006338Y017069D03*
X006634Y016968D03*
X006743Y016697D03*
X006659Y017259D03*
X006789Y017518D03*
X007076Y017392D03*
X007161Y017113D03*
X007124Y017680D03*
X007276Y017927D03*
X007551Y017777D03*
X007613Y017493D03*
X007624Y018061D03*
X007796Y018294D03*
X008057Y018122D03*
X008095Y017833D03*
X008153Y018398D03*
X008344Y018616D03*
X008590Y018423D03*
X008604Y018132D03*
X008709Y018690D03*
X008917Y018891D03*
X009147Y018678D03*
X009136Y018387D03*
X009287Y018934D03*
X009512Y019117D03*
X009723Y018886D03*
X009884Y019129D03*
X010123Y019293D03*
X010314Y019044D03*
X010254Y018759D03*
X010495Y019274D03*
X010747Y019417D03*
X010916Y019153D03*
X010833Y018874D03*
X011116Y019366D03*
X011379Y019488D03*
X009687Y018596D03*
X010747Y024094D03*
X010495Y024237D03*
X010314Y024467D03*
X010254Y024752D03*
X009884Y024382D03*
X010123Y024218D03*
X009723Y024625D03*
X009687Y024915D03*
X009287Y024577D03*
X009512Y024394D03*
X009147Y024833D03*
X009136Y025124D03*
X008709Y024821D03*
X008917Y024620D03*
X008590Y025088D03*
X008604Y025379D03*
X008153Y025113D03*
X008344Y024895D03*
X008057Y025389D03*
X008095Y025678D03*
X007624Y025450D03*
X007796Y025218D03*
X007551Y025734D03*
X007613Y026018D03*
X007124Y025831D03*
X007276Y025584D03*
X007076Y026119D03*
X007161Y026398D03*
X006659Y026252D03*
X006789Y025994D03*
X006634Y026543D03*
X006743Y026814D03*
X006230Y026710D03*
X006338Y026442D03*
X006230Y027003D03*
X006361Y027263D03*
X005841Y027203D03*
X005926Y026926D03*
X005865Y027494D03*
X006017Y027743D03*
X005494Y027727D03*
X005556Y027444D03*
X005543Y028015D03*
X005716Y028250D03*
X005193Y028277D03*
X005231Y027990D03*
X005266Y028560D03*
X005457Y028780D03*
X004938Y028851D03*
X004953Y028562D03*
X005035Y029127D03*
X005244Y029330D03*
X004733Y029444D03*
X004723Y029155D03*
X004852Y029711D03*
X005078Y029896D03*
X004578Y030053D03*
X004544Y029765D03*
X004719Y030309D03*
X004959Y030474D03*
X004959Y032722D03*
X004719Y032887D03*
X004578Y033143D03*
X004544Y033431D03*
X004852Y033485D03*
X005078Y033300D03*
X004733Y033752D03*
X004723Y034041D03*
X005035Y034069D03*
X005244Y033866D03*
X004938Y034345D03*
X004953Y034634D03*
X005266Y034636D03*
X005457Y034416D03*
X005193Y034919D03*
X005231Y035206D03*
X005543Y035181D03*
X005716Y034946D03*
X005494Y035470D03*
X005556Y035752D03*
X005865Y035702D03*
X006017Y035453D03*
X005841Y035993D03*
X005926Y036270D03*
X006230Y036193D03*
X006361Y035933D03*
X006230Y036486D03*
X006338Y036754D03*
X006634Y036653D03*
X006743Y036382D03*
X006659Y036944D03*
X006789Y037203D03*
X007076Y037077D03*
X007161Y036798D03*
X007124Y037365D03*
X007276Y037612D03*
X007551Y037462D03*
X007613Y037178D03*
X007624Y037746D03*
X007796Y037979D03*
X008057Y037807D03*
X008095Y037518D03*
X008153Y038083D03*
X008344Y038301D03*
X008590Y038108D03*
X008604Y037817D03*
X008709Y038375D03*
X008917Y038576D03*
X009147Y038363D03*
X009136Y038072D03*
X009287Y038619D03*
X009512Y038802D03*
X009723Y038571D03*
X009884Y038814D03*
X010123Y038978D03*
X010314Y038729D03*
X010254Y038444D03*
X010495Y038959D03*
X010747Y039102D03*
X010916Y038838D03*
X010833Y038559D03*
X011116Y039052D03*
X011379Y039173D03*
X012447Y039173D03*
X012710Y039052D03*
X012910Y038838D03*
X012993Y038559D03*
X013331Y038959D03*
X013079Y039102D03*
X013512Y038729D03*
X013572Y038444D03*
X013942Y038814D03*
X013703Y038978D03*
X014103Y038571D03*
X014139Y038281D03*
X014539Y038619D03*
X014314Y038802D03*
X014679Y038363D03*
X014690Y038072D03*
X015117Y038375D03*
X014909Y038576D03*
X015236Y038108D03*
X015222Y037817D03*
X015673Y038083D03*
X015482Y038301D03*
X015769Y037807D03*
X015731Y037518D03*
X016202Y037746D03*
X016030Y037979D03*
X016275Y037462D03*
X016213Y037178D03*
X016702Y037365D03*
X016550Y037612D03*
X016750Y037077D03*
X016665Y036798D03*
X017167Y036944D03*
X017037Y037203D03*
X017192Y036653D03*
X017083Y036382D03*
X017596Y036486D03*
X017488Y036754D03*
X017596Y036193D03*
X017465Y035933D03*
X017985Y035993D03*
X017900Y036270D03*
X017961Y035702D03*
X017808Y035453D03*
X018332Y035470D03*
X018270Y035752D03*
X018283Y035181D03*
X018110Y034946D03*
X018633Y034919D03*
X018595Y035206D03*
X018560Y034636D03*
X018369Y034416D03*
X018888Y034345D03*
X018873Y034634D03*
X018791Y034069D03*
X018582Y033866D03*
X019093Y033752D03*
X019103Y034041D03*
X018974Y033485D03*
X018748Y033300D03*
X019248Y033143D03*
X019282Y033431D03*
X019107Y032887D03*
X018867Y032722D03*
X018867Y030474D03*
X019107Y030309D03*
X019248Y030053D03*
X019282Y029765D03*
X018974Y029711D03*
X018748Y029896D03*
X019093Y029444D03*
X019103Y029155D03*
X018791Y029127D03*
X018582Y029330D03*
X018888Y028851D03*
X018873Y028562D03*
X018560Y028560D03*
X018369Y028780D03*
X018633Y028277D03*
X018595Y027990D03*
X018283Y028015D03*
X018110Y028250D03*
X018332Y027727D03*
X018270Y027444D03*
X017961Y027494D03*
X017808Y027743D03*
X017985Y027203D03*
X017900Y026926D03*
X017596Y027003D03*
X017465Y027263D03*
X017596Y026710D03*
X017488Y026442D03*
X017192Y026543D03*
X017083Y026814D03*
X017167Y026252D03*
X017037Y025994D03*
X016750Y026119D03*
X016665Y026398D03*
X016702Y025831D03*
X016550Y025584D03*
X016275Y025734D03*
X016213Y026018D03*
X016202Y025450D03*
X016030Y025218D03*
X015769Y025389D03*
X015731Y025678D03*
X015673Y025113D03*
X015482Y024895D03*
X015236Y025088D03*
X015222Y025379D03*
X015117Y024821D03*
X014909Y024620D03*
X014679Y024833D03*
X014690Y025124D03*
X014539Y024577D03*
X014314Y024394D03*
X014103Y024625D03*
X013942Y024382D03*
X013703Y024218D03*
X013512Y024467D03*
X013572Y024752D03*
X013331Y024237D03*
X013079Y024094D03*
X012910Y024358D03*
X012993Y024637D03*
X012710Y024145D03*
X012447Y024023D03*
X011379Y024023D03*
X011116Y024145D03*
X010916Y024358D03*
X010833Y024637D03*
X014139Y024915D03*
X024408Y029155D03*
X024418Y029444D03*
X024537Y029711D03*
X024763Y029896D03*
X024263Y030053D03*
X024229Y029765D03*
X024404Y030309D03*
X024644Y030474D03*
X024929Y029330D03*
X024720Y029127D03*
X024623Y028851D03*
X024638Y028562D03*
X024951Y028560D03*
X025142Y028780D03*
X024878Y028277D03*
X024916Y027990D03*
X025228Y028015D03*
X025401Y028250D03*
X025179Y027727D03*
X025241Y027444D03*
X025550Y027494D03*
X025703Y027743D03*
X025526Y027203D03*
X025611Y026926D03*
X025915Y027003D03*
X026046Y027263D03*
X025915Y026710D03*
X026023Y026442D03*
X026319Y026543D03*
X026428Y026814D03*
X026344Y026252D03*
X026474Y025994D03*
X026761Y026119D03*
X026847Y026398D03*
X026809Y025831D03*
X026961Y025584D03*
X027236Y025734D03*
X027298Y026018D03*
X027309Y025450D03*
X027481Y025218D03*
X027742Y025389D03*
X027780Y025678D03*
X027838Y025113D03*
X028029Y024895D03*
X028275Y025088D03*
X028289Y025379D03*
X028394Y024821D03*
X028602Y024620D03*
X028832Y024833D03*
X028821Y025124D03*
X028972Y024577D03*
X029197Y024394D03*
X029408Y024625D03*
X029569Y024382D03*
X029808Y024218D03*
X029999Y024467D03*
X029940Y024752D03*
X030180Y024237D03*
X030432Y024094D03*
X030601Y024358D03*
X030518Y024637D03*
X030801Y024145D03*
X031064Y024023D03*
X032132Y024023D03*
X032395Y024145D03*
X032595Y024358D03*
X032678Y024637D03*
X033016Y024237D03*
X032764Y024094D03*
X033197Y024467D03*
X033257Y024752D03*
X033627Y024382D03*
X033388Y024218D03*
X033788Y024625D03*
X033824Y024915D03*
X034224Y024577D03*
X033999Y024394D03*
X034364Y024833D03*
X034375Y025124D03*
X034802Y024821D03*
X034594Y024620D03*
X034921Y025088D03*
X034907Y025379D03*
X035358Y025113D03*
X035167Y024895D03*
X035454Y025389D03*
X035416Y025678D03*
X035887Y025450D03*
X035715Y025218D03*
X035960Y025734D03*
X035898Y026018D03*
X036387Y025831D03*
X036235Y025584D03*
X036435Y026119D03*
X036350Y026398D03*
X036852Y026252D03*
X036722Y025994D03*
X036877Y026543D03*
X036768Y026814D03*
X037281Y026710D03*
X037173Y026442D03*
X037281Y027003D03*
X037150Y027263D03*
X037670Y027203D03*
X037585Y026926D03*
X037646Y027494D03*
X037494Y027743D03*
X038017Y027727D03*
X037955Y027444D03*
X037968Y028015D03*
X037795Y028250D03*
X038318Y028277D03*
X038280Y027990D03*
X038245Y028560D03*
X038054Y028780D03*
X038573Y028851D03*
X038558Y028562D03*
X038476Y029127D03*
X038267Y029330D03*
X038778Y029444D03*
X038788Y029155D03*
X038659Y029711D03*
X038433Y029896D03*
X038933Y030053D03*
X038967Y029765D03*
X038792Y030309D03*
X038552Y030474D03*
X038552Y032722D03*
X038792Y032887D03*
X038933Y033143D03*
X038967Y033431D03*
X038659Y033485D03*
X038433Y033300D03*
X038778Y033752D03*
X038788Y034041D03*
X038476Y034069D03*
X038267Y033866D03*
X038573Y034345D03*
X038558Y034634D03*
X038245Y034636D03*
X038054Y034416D03*
X038318Y034919D03*
X038280Y035206D03*
X037968Y035181D03*
X037795Y034946D03*
X038017Y035470D03*
X037955Y035752D03*
X037646Y035702D03*
X037494Y035453D03*
X037670Y035993D03*
X037585Y036270D03*
X037281Y036193D03*
X037150Y035933D03*
X037281Y036486D03*
X037173Y036754D03*
X036877Y036653D03*
X036768Y036382D03*
X036852Y036944D03*
X036722Y037203D03*
X036435Y037077D03*
X036350Y036798D03*
X036387Y037365D03*
X036235Y037612D03*
X035960Y037462D03*
X035898Y037178D03*
X035887Y037746D03*
X035715Y037979D03*
X035454Y037807D03*
X035416Y037518D03*
X035358Y038083D03*
X035167Y038301D03*
X034921Y038108D03*
X034907Y037817D03*
X034802Y038375D03*
X034594Y038576D03*
X034364Y038363D03*
X034375Y038072D03*
X034224Y038619D03*
X033999Y038802D03*
X033788Y038571D03*
X033627Y038814D03*
X033388Y038978D03*
X033197Y038729D03*
X033257Y038444D03*
X033016Y038959D03*
X032764Y039102D03*
X032595Y038838D03*
X032678Y038559D03*
X032395Y039052D03*
X032132Y039173D03*
X031064Y039173D03*
X030801Y039052D03*
X030601Y038838D03*
X030518Y038559D03*
X030180Y038959D03*
X030432Y039102D03*
X029999Y038729D03*
X029940Y038444D03*
X029569Y038814D03*
X029808Y038978D03*
X029408Y038571D03*
X029372Y038281D03*
X028972Y038619D03*
X029197Y038802D03*
X028832Y038363D03*
X028821Y038072D03*
X028394Y038375D03*
X028602Y038576D03*
X028275Y038108D03*
X028289Y037817D03*
X027838Y038083D03*
X028029Y038301D03*
X027742Y037807D03*
X027780Y037518D03*
X027309Y037746D03*
X027481Y037979D03*
X027236Y037462D03*
X027298Y037178D03*
X026809Y037365D03*
X026961Y037612D03*
X026761Y037077D03*
X026847Y036798D03*
X026344Y036944D03*
X026474Y037203D03*
X026319Y036653D03*
X026428Y036382D03*
X025915Y036486D03*
X026023Y036754D03*
X025915Y036193D03*
X026046Y035933D03*
X025526Y035993D03*
X025611Y036270D03*
X025550Y035702D03*
X025703Y035453D03*
X025179Y035470D03*
X025241Y035752D03*
X025228Y035181D03*
X025401Y034946D03*
X024878Y034919D03*
X024916Y035206D03*
X024951Y034636D03*
X025142Y034416D03*
X024623Y034345D03*
X024638Y034634D03*
X024720Y034069D03*
X024929Y033866D03*
X024418Y033752D03*
X024408Y034041D03*
X024537Y033485D03*
X024763Y033300D03*
X024263Y033143D03*
X024229Y033431D03*
X024404Y032887D03*
X024644Y032722D03*
X033824Y038281D03*
X032764Y043780D03*
X033016Y043922D03*
X033197Y044152D03*
X033257Y044437D03*
X033627Y044067D03*
X033388Y043903D03*
X033788Y044311D03*
X033824Y044600D03*
X034224Y044262D03*
X033999Y044079D03*
X034364Y044518D03*
X034375Y044809D03*
X034802Y044506D03*
X034594Y044305D03*
X034921Y044773D03*
X034907Y045064D03*
X035358Y044798D03*
X035167Y044580D03*
X035454Y045074D03*
X035416Y045363D03*
X035887Y045136D03*
X035715Y044903D03*
X035960Y045419D03*
X035898Y045703D03*
X036387Y045516D03*
X036235Y045269D03*
X036435Y045804D03*
X036350Y046083D03*
X036852Y045937D03*
X036722Y045679D03*
X036877Y046228D03*
X036768Y046499D03*
X037281Y046395D03*
X037173Y046127D03*
X037281Y046688D03*
X037150Y046948D03*
X037670Y046888D03*
X037585Y046612D03*
X037646Y047179D03*
X037494Y047428D03*
X038017Y047412D03*
X037955Y047129D03*
X037968Y047700D03*
X037795Y047935D03*
X038318Y047962D03*
X038280Y047675D03*
X038245Y048245D03*
X038054Y048465D03*
X038573Y048536D03*
X038558Y048247D03*
X038476Y048812D03*
X038267Y049015D03*
X038778Y049130D03*
X038788Y048840D03*
X038659Y049396D03*
X038433Y049581D03*
X038933Y049738D03*
X038967Y049450D03*
X038792Y049994D03*
X038552Y050159D03*
X038552Y052407D03*
X038792Y052572D03*
X038933Y052828D03*
X038967Y053116D03*
X038659Y053170D03*
X038433Y052985D03*
X038778Y053437D03*
X038788Y053726D03*
X038476Y053754D03*
X038267Y053551D03*
X038573Y054030D03*
X038558Y054319D03*
X038245Y054321D03*
X038054Y054101D03*
X038318Y054604D03*
X038280Y054891D03*
X037968Y054866D03*
X037795Y054631D03*
X038017Y055155D03*
X037955Y055437D03*
X037646Y055387D03*
X037494Y055138D03*
X037670Y055678D03*
X037585Y055955D03*
X037281Y055878D03*
X037150Y055618D03*
X037281Y056171D03*
X037173Y056439D03*
X036877Y056338D03*
X036768Y056068D03*
X036852Y056629D03*
X036722Y056888D03*
X036435Y056762D03*
X036350Y056483D03*
X036387Y057050D03*
X036235Y057297D03*
X035960Y057147D03*
X035898Y056863D03*
X035887Y057431D03*
X035715Y057664D03*
X035454Y057492D03*
X035416Y057203D03*
X035358Y057768D03*
X035167Y057986D03*
X034921Y057793D03*
X034907Y057502D03*
X034802Y058060D03*
X034594Y058261D03*
X034364Y058048D03*
X034375Y057757D03*
X034224Y058304D03*
X033999Y058487D03*
X033788Y058256D03*
X033627Y058499D03*
X033388Y058663D03*
X033197Y058414D03*
X033257Y058129D03*
X033016Y058644D03*
X032764Y058787D03*
X032595Y058523D03*
X032678Y058244D03*
X032395Y058737D03*
X032132Y058858D03*
X031064Y058858D03*
X030801Y058737D03*
X030601Y058523D03*
X030518Y058244D03*
X030180Y058644D03*
X030432Y058787D03*
X029999Y058414D03*
X029940Y058129D03*
X029569Y058499D03*
X029808Y058663D03*
X029408Y058256D03*
X029372Y057966D03*
X028972Y058304D03*
X029197Y058487D03*
X028832Y058048D03*
X028821Y057757D03*
X028394Y058060D03*
X028602Y058261D03*
X028275Y057793D03*
X028289Y057502D03*
X027838Y057768D03*
X028029Y057986D03*
X027742Y057492D03*
X027780Y057203D03*
X027309Y057431D03*
X027481Y057664D03*
X027236Y057147D03*
X027298Y056863D03*
X026809Y057050D03*
X026961Y057297D03*
X026761Y056762D03*
X026847Y056483D03*
X026344Y056629D03*
X026474Y056888D03*
X026319Y056338D03*
X026428Y056068D03*
X025915Y056171D03*
X026023Y056439D03*
X025915Y055878D03*
X026046Y055618D03*
X025526Y055678D03*
X025611Y055955D03*
X025550Y055387D03*
X025703Y055138D03*
X025179Y055155D03*
X025241Y055437D03*
X025228Y054866D03*
X025401Y054631D03*
X024878Y054604D03*
X024916Y054891D03*
X024951Y054321D03*
X025142Y054101D03*
X024623Y054030D03*
X024638Y054319D03*
X024720Y053754D03*
X024929Y053551D03*
X024418Y053437D03*
X024408Y053726D03*
X024537Y053170D03*
X024763Y052985D03*
X024263Y052828D03*
X024229Y053116D03*
X024404Y052572D03*
X024644Y052407D03*
X024644Y050159D03*
X024404Y049994D03*
X024263Y049738D03*
X024229Y049450D03*
X024537Y049396D03*
X024763Y049581D03*
X024418Y049130D03*
X024408Y048840D03*
X024720Y048812D03*
X024929Y049015D03*
X024623Y048536D03*
X024638Y048247D03*
X024951Y048245D03*
X025142Y048465D03*
X024878Y047962D03*
X024916Y047675D03*
X025228Y047700D03*
X025401Y047935D03*
X025179Y047412D03*
X025241Y047129D03*
X025550Y047179D03*
X025703Y047428D03*
X025526Y046888D03*
X025611Y046612D03*
X025915Y046688D03*
X026046Y046948D03*
X025915Y046395D03*
X026023Y046127D03*
X026319Y046228D03*
X026428Y046499D03*
X026344Y045937D03*
X026474Y045679D03*
X026761Y045804D03*
X026847Y046083D03*
X026809Y045516D03*
X026961Y045269D03*
X027236Y045419D03*
X027298Y045703D03*
X027309Y045136D03*
X027481Y044903D03*
X027742Y045074D03*
X027780Y045363D03*
X027838Y044798D03*
X028029Y044580D03*
X028275Y044773D03*
X028289Y045064D03*
X028394Y044506D03*
X028602Y044305D03*
X028832Y044518D03*
X028821Y044809D03*
X028972Y044262D03*
X029197Y044079D03*
X029408Y044311D03*
X029372Y044600D03*
X029569Y044067D03*
X029808Y043903D03*
X029999Y044152D03*
X029940Y044437D03*
X030180Y043922D03*
X030432Y043780D03*
X030601Y044043D03*
X030518Y044322D03*
X030801Y043830D03*
X031064Y043708D03*
X032132Y043708D03*
X032395Y043830D03*
X032595Y044043D03*
X032678Y044322D03*
X043914Y049450D03*
X043948Y049738D03*
X044089Y049994D03*
X044329Y050159D03*
X044448Y049581D03*
X044222Y049396D03*
X044103Y049130D03*
X044093Y048840D03*
X044405Y048812D03*
X044614Y049015D03*
X044308Y048536D03*
X044323Y048247D03*
X044636Y048245D03*
X044827Y048465D03*
X044563Y047962D03*
X044601Y047675D03*
X044913Y047700D03*
X045086Y047935D03*
X044864Y047412D03*
X044927Y047129D03*
X045235Y047179D03*
X045388Y047428D03*
X045211Y046888D03*
X045296Y046612D03*
X045600Y046688D03*
X045731Y046948D03*
X045600Y046395D03*
X045708Y046127D03*
X046005Y046228D03*
X046113Y046499D03*
X046029Y045937D03*
X046159Y045679D03*
X046446Y045804D03*
X046532Y046083D03*
X046494Y045516D03*
X046646Y045269D03*
X046921Y045419D03*
X046983Y045703D03*
X046994Y045136D03*
X047166Y044903D03*
X047427Y045074D03*
X047465Y045363D03*
X047523Y044798D03*
X047714Y044580D03*
X047960Y044773D03*
X047974Y045064D03*
X048079Y044506D03*
X048287Y044305D03*
X048517Y044518D03*
X048506Y044809D03*
X048657Y044262D03*
X048882Y044079D03*
X049093Y044311D03*
X049057Y044600D03*
X049254Y044067D03*
X049493Y043903D03*
X049684Y044152D03*
X049625Y044437D03*
X049865Y043922D03*
X050117Y043780D03*
X050286Y044043D03*
X050203Y044322D03*
X050486Y043830D03*
X050749Y043708D03*
X051817Y043708D03*
X052080Y043830D03*
X052280Y044043D03*
X052363Y044322D03*
X052701Y043922D03*
X052449Y043780D03*
X052882Y044152D03*
X052942Y044437D03*
X053312Y044067D03*
X053073Y043903D03*
X053474Y044311D03*
X053509Y044600D03*
X053909Y044262D03*
X053684Y044079D03*
X054049Y044518D03*
X054060Y044809D03*
X054487Y044506D03*
X054279Y044305D03*
X054606Y044773D03*
X054592Y045064D03*
X055043Y044798D03*
X054852Y044580D03*
X055139Y045074D03*
X055101Y045363D03*
X055572Y045136D03*
X055400Y044903D03*
X055645Y045419D03*
X055583Y045703D03*
X056072Y045516D03*
X055920Y045269D03*
X056120Y045804D03*
X056035Y046083D03*
X056537Y045937D03*
X056407Y045679D03*
X056562Y046228D03*
X056453Y046499D03*
X056966Y046395D03*
X056858Y046127D03*
X056966Y046688D03*
X056835Y046948D03*
X057355Y046888D03*
X057270Y046612D03*
X057331Y047179D03*
X057179Y047428D03*
X057702Y047412D03*
X057640Y047129D03*
X057653Y047700D03*
X057480Y047935D03*
X058003Y047962D03*
X057965Y047675D03*
X057930Y048245D03*
X057739Y048465D03*
X058258Y048536D03*
X058243Y048247D03*
X058161Y048812D03*
X057952Y049015D03*
X058463Y049130D03*
X058473Y048840D03*
X058344Y049396D03*
X058119Y049581D03*
X058618Y049738D03*
X058652Y049450D03*
X058477Y049994D03*
X058237Y050159D03*
X058237Y052407D03*
X058477Y052572D03*
X058618Y052828D03*
X058652Y053116D03*
X058344Y053170D03*
X058119Y052985D03*
X058463Y053437D03*
X058473Y053726D03*
X058161Y053754D03*
X057952Y053551D03*
X058258Y054030D03*
X058243Y054319D03*
X057930Y054321D03*
X057739Y054101D03*
X058003Y054604D03*
X057965Y054891D03*
X057653Y054866D03*
X057480Y054631D03*
X057702Y055155D03*
X057640Y055437D03*
X057331Y055387D03*
X057179Y055138D03*
X057355Y055678D03*
X057270Y055955D03*
X056966Y055878D03*
X056835Y055618D03*
X056966Y056171D03*
X056858Y056439D03*
X056562Y056338D03*
X056453Y056068D03*
X056537Y056629D03*
X056407Y056888D03*
X056120Y056762D03*
X056035Y056483D03*
X056072Y057050D03*
X055920Y057297D03*
X055645Y057147D03*
X055583Y056863D03*
X055572Y057431D03*
X055400Y057664D03*
X055139Y057492D03*
X055101Y057203D03*
X055043Y057768D03*
X054852Y057986D03*
X054606Y057793D03*
X054592Y057502D03*
X054487Y058060D03*
X054279Y058261D03*
X054049Y058048D03*
X054060Y057757D03*
X053909Y058304D03*
X053684Y058487D03*
X053474Y058256D03*
X053509Y057966D03*
X053312Y058499D03*
X053073Y058663D03*
X052882Y058414D03*
X052942Y058129D03*
X052701Y058644D03*
X052449Y058787D03*
X052280Y058523D03*
X052363Y058244D03*
X052080Y058737D03*
X051817Y058858D03*
X050749Y058858D03*
X050486Y058737D03*
X050286Y058523D03*
X050203Y058244D03*
X049865Y058644D03*
X050117Y058787D03*
X049684Y058414D03*
X049625Y058129D03*
X049254Y058499D03*
X049493Y058663D03*
X049093Y058256D03*
X049057Y057966D03*
X048657Y058304D03*
X048882Y058487D03*
X048517Y058048D03*
X048506Y057757D03*
X048079Y058060D03*
X048287Y058261D03*
X047960Y057793D03*
X047974Y057502D03*
X047523Y057768D03*
X047714Y057986D03*
X047427Y057492D03*
X047465Y057203D03*
X046994Y057431D03*
X047166Y057664D03*
X046921Y057147D03*
X046983Y056863D03*
X046494Y057050D03*
X046646Y057297D03*
X046446Y056762D03*
X046532Y056483D03*
X046029Y056629D03*
X046159Y056888D03*
X046005Y056338D03*
X046113Y056068D03*
X045600Y056171D03*
X045708Y056439D03*
X045600Y055878D03*
X045731Y055618D03*
X045211Y055678D03*
X045296Y055955D03*
X045235Y055387D03*
X045388Y055138D03*
X044864Y055155D03*
X044927Y055437D03*
X044913Y054866D03*
X045086Y054631D03*
X044563Y054604D03*
X044601Y054891D03*
X044636Y054321D03*
X044827Y054101D03*
X044308Y054030D03*
X044323Y054319D03*
X044405Y053754D03*
X044614Y053551D03*
X044103Y053437D03*
X044093Y053726D03*
X044222Y053170D03*
X044448Y052985D03*
X043948Y052828D03*
X043914Y053116D03*
X044089Y052572D03*
X044329Y052407D03*
X033824Y057966D03*
X019103Y053726D03*
X019093Y053437D03*
X018974Y053170D03*
X018748Y052985D03*
X019248Y052828D03*
X019282Y053116D03*
X019107Y052572D03*
X018867Y052407D03*
X018582Y053551D03*
X018791Y053754D03*
X018888Y054030D03*
X018873Y054319D03*
X018560Y054321D03*
X018369Y054101D03*
X018633Y054604D03*
X018595Y054891D03*
X018283Y054866D03*
X018110Y054631D03*
X018332Y055155D03*
X018270Y055437D03*
X017961Y055387D03*
X017808Y055138D03*
X017985Y055678D03*
X017900Y055955D03*
X017596Y055878D03*
X017465Y055618D03*
X017596Y056171D03*
X017488Y056439D03*
X017192Y056338D03*
X017083Y056068D03*
X017167Y056629D03*
X017037Y056888D03*
X016750Y056762D03*
X016665Y056483D03*
X016702Y057050D03*
X016550Y057297D03*
X016275Y057147D03*
X016213Y056863D03*
X016202Y057431D03*
X016030Y057664D03*
X015769Y057492D03*
X015731Y057203D03*
X015673Y057768D03*
X015482Y057986D03*
X015236Y057793D03*
X015222Y057502D03*
X015117Y058060D03*
X014909Y058261D03*
X014679Y058048D03*
X014690Y057757D03*
X014539Y058304D03*
X014314Y058487D03*
X014103Y058256D03*
X013942Y058499D03*
X013703Y058663D03*
X013512Y058414D03*
X013572Y058129D03*
X013331Y058644D03*
X013079Y058787D03*
X012910Y058523D03*
X012993Y058244D03*
X012710Y058737D03*
X012447Y058858D03*
X011379Y058858D03*
X011116Y058737D03*
X010916Y058523D03*
X010833Y058244D03*
X010495Y058644D03*
X010747Y058787D03*
X010314Y058414D03*
X010254Y058129D03*
X009884Y058499D03*
X010123Y058663D03*
X009723Y058256D03*
X009687Y057966D03*
X009287Y058304D03*
X009512Y058487D03*
X009147Y058048D03*
X009136Y057757D03*
X008709Y058060D03*
X008917Y058261D03*
X008590Y057793D03*
X008604Y057502D03*
X008153Y057768D03*
X008344Y057986D03*
X008057Y057492D03*
X008095Y057203D03*
X007624Y057431D03*
X007796Y057664D03*
X007551Y057147D03*
X007613Y056863D03*
X007124Y057050D03*
X007276Y057297D03*
X007076Y056762D03*
X007161Y056483D03*
X006659Y056629D03*
X006789Y056888D03*
X006634Y056338D03*
X006743Y056068D03*
X006230Y056171D03*
X006338Y056439D03*
X006230Y055878D03*
X006361Y055618D03*
X005841Y055678D03*
X005926Y055955D03*
X005865Y055387D03*
X006017Y055138D03*
X005494Y055155D03*
X005556Y055437D03*
X005543Y054866D03*
X005716Y054631D03*
X005193Y054604D03*
X005231Y054891D03*
X005266Y054321D03*
X005457Y054101D03*
X004938Y054030D03*
X004953Y054319D03*
X005035Y053754D03*
X005244Y053551D03*
X004733Y053437D03*
X004723Y053726D03*
X004852Y053170D03*
X005078Y052985D03*
X004578Y052828D03*
X004544Y053116D03*
X004719Y052572D03*
X004959Y052407D03*
X004959Y050159D03*
X004719Y049994D03*
X004578Y049738D03*
X004544Y049450D03*
X004852Y049396D03*
X005078Y049581D03*
X004733Y049130D03*
X004723Y048840D03*
X005035Y048812D03*
X005244Y049015D03*
X004938Y048536D03*
X004953Y048247D03*
X005266Y048245D03*
X005457Y048465D03*
X005193Y047962D03*
X005231Y047675D03*
X005543Y047700D03*
X005716Y047935D03*
X005494Y047412D03*
X005556Y047129D03*
X005865Y047179D03*
X006017Y047428D03*
X005841Y046888D03*
X005926Y046612D03*
X006230Y046688D03*
X006361Y046948D03*
X006230Y046395D03*
X006338Y046127D03*
X006634Y046228D03*
X006743Y046499D03*
X006659Y045937D03*
X006789Y045679D03*
X007076Y045804D03*
X007161Y046083D03*
X007124Y045516D03*
X007276Y045269D03*
X007551Y045419D03*
X007613Y045703D03*
X007624Y045136D03*
X007796Y044903D03*
X008057Y045074D03*
X008095Y045363D03*
X008153Y044798D03*
X008344Y044580D03*
X008590Y044773D03*
X008604Y045064D03*
X008709Y044506D03*
X008917Y044305D03*
X009147Y044518D03*
X009136Y044809D03*
X009287Y044262D03*
X009512Y044079D03*
X009723Y044311D03*
X009687Y044600D03*
X009884Y044067D03*
X010123Y043903D03*
X010314Y044152D03*
X010254Y044437D03*
X010495Y043922D03*
X010747Y043780D03*
X010916Y044043D03*
X010833Y044322D03*
X011116Y043830D03*
X011379Y043708D03*
X012447Y043708D03*
X012710Y043830D03*
X012910Y044043D03*
X012993Y044322D03*
X013331Y043922D03*
X013079Y043780D03*
X013512Y044152D03*
X013572Y044437D03*
X013942Y044067D03*
X013703Y043903D03*
X014103Y044311D03*
X014139Y044600D03*
X014539Y044262D03*
X014314Y044079D03*
X014679Y044518D03*
X014690Y044809D03*
X015117Y044506D03*
X014909Y044305D03*
X015236Y044773D03*
X015222Y045064D03*
X015673Y044798D03*
X015482Y044580D03*
X015769Y045074D03*
X015731Y045363D03*
X016202Y045136D03*
X016030Y044903D03*
X016275Y045419D03*
X016213Y045703D03*
X016702Y045516D03*
X016550Y045269D03*
X016750Y045804D03*
X016665Y046083D03*
X017167Y045937D03*
X017037Y045679D03*
X017192Y046228D03*
X017083Y046499D03*
X017596Y046395D03*
X017488Y046127D03*
X017596Y046688D03*
X017465Y046948D03*
X017985Y046888D03*
X017900Y046612D03*
X017961Y047179D03*
X017808Y047428D03*
X018332Y047412D03*
X018270Y047129D03*
X018283Y047700D03*
X018110Y047935D03*
X018633Y047962D03*
X018595Y047675D03*
X018560Y048245D03*
X018369Y048465D03*
X018888Y048536D03*
X018873Y048247D03*
X018791Y048812D03*
X018582Y049015D03*
X019093Y049130D03*
X019103Y048840D03*
X018974Y049396D03*
X018748Y049581D03*
X019248Y049738D03*
X019282Y049450D03*
X019107Y049994D03*
X018867Y050159D03*
X014139Y057966D03*
X009687Y038281D03*
X029372Y024915D03*
X030432Y019417D03*
X030180Y019274D03*
X029999Y019044D03*
X029940Y018759D03*
X029569Y019129D03*
X029808Y019293D03*
X029408Y018886D03*
X029372Y018596D03*
X028972Y018934D03*
X029197Y019117D03*
X028832Y018678D03*
X028821Y018387D03*
X028394Y018690D03*
X028602Y018891D03*
X028275Y018423D03*
X028289Y018132D03*
X027838Y018398D03*
X028029Y018616D03*
X027742Y018122D03*
X027780Y017833D03*
X027309Y018061D03*
X027481Y018294D03*
X027236Y017777D03*
X027298Y017493D03*
X026809Y017680D03*
X026961Y017927D03*
X026761Y017392D03*
X026847Y017113D03*
X026344Y017259D03*
X026474Y017518D03*
X026319Y016968D03*
X026428Y016697D03*
X025915Y016801D03*
X026023Y017069D03*
X025915Y016508D03*
X026046Y016248D03*
X025526Y016308D03*
X025611Y016585D03*
X025550Y016017D03*
X025703Y015768D03*
X025179Y015784D03*
X025241Y016067D03*
X025228Y015496D03*
X025401Y015261D03*
X024878Y015234D03*
X024916Y015521D03*
X024951Y014951D03*
X025142Y014731D03*
X024623Y014660D03*
X024638Y014949D03*
X024720Y014384D03*
X024929Y014181D03*
X024418Y014067D03*
X024408Y014356D03*
X024537Y013800D03*
X024763Y013615D03*
X024263Y013458D03*
X024229Y013746D03*
X024404Y013202D03*
X024644Y013037D03*
X024644Y010789D03*
X024404Y010624D03*
X024263Y010368D03*
X024229Y010080D03*
X024537Y010026D03*
X024763Y010211D03*
X024418Y009759D03*
X024408Y009470D03*
X024720Y009442D03*
X024929Y009645D03*
X024623Y009166D03*
X024638Y008877D03*
X024951Y008875D03*
X025142Y009095D03*
X024878Y008592D03*
X024916Y008305D03*
X025228Y008330D03*
X025401Y008565D03*
X025179Y008042D03*
X025241Y007759D03*
X025550Y007809D03*
X025703Y008058D03*
X025526Y007518D03*
X025611Y007241D03*
X025915Y007318D03*
X026046Y007578D03*
X025915Y007025D03*
X026023Y006757D03*
X026319Y006858D03*
X026428Y007129D03*
X026344Y006567D03*
X026474Y006308D03*
X026761Y006434D03*
X026847Y006713D03*
X026809Y006146D03*
X026961Y005899D03*
X027236Y006049D03*
X027298Y006333D03*
X027309Y005765D03*
X027481Y005532D03*
X027742Y005704D03*
X027780Y005993D03*
X027838Y005428D03*
X028029Y005210D03*
X028275Y005403D03*
X028289Y005694D03*
X028394Y005136D03*
X028602Y004935D03*
X028832Y005148D03*
X028821Y005439D03*
X028972Y004892D03*
X029197Y004709D03*
X029408Y004940D03*
X029569Y004697D03*
X029808Y004533D03*
X029999Y004782D03*
X029940Y005067D03*
X030180Y004552D03*
X030432Y004409D03*
X030601Y004673D03*
X030518Y004952D03*
X030801Y004460D03*
X031064Y004338D03*
X032132Y004338D03*
X032395Y004460D03*
X032595Y004673D03*
X032678Y004952D03*
X033016Y004552D03*
X032764Y004409D03*
X033197Y004782D03*
X033257Y005067D03*
X033627Y004697D03*
X033388Y004533D03*
X033788Y004940D03*
X033824Y005230D03*
X034224Y004892D03*
X033999Y004709D03*
X034364Y005148D03*
X034375Y005439D03*
X034802Y005136D03*
X034594Y004935D03*
X034921Y005403D03*
X034907Y005694D03*
X035358Y005428D03*
X035167Y005210D03*
X035454Y005704D03*
X035416Y005993D03*
X035887Y005765D03*
X035715Y005532D03*
X035960Y006049D03*
X035898Y006333D03*
X036387Y006146D03*
X036235Y005899D03*
X036435Y006434D03*
X036350Y006713D03*
X036852Y006567D03*
X036722Y006308D03*
X036877Y006858D03*
X036768Y007129D03*
X037281Y007025D03*
X037173Y006757D03*
X037281Y007318D03*
X037150Y007578D03*
X037670Y007518D03*
X037585Y007241D03*
X037646Y007809D03*
X037494Y008058D03*
X038017Y008042D03*
X037955Y007759D03*
X037968Y008330D03*
X037795Y008565D03*
X038318Y008592D03*
X038280Y008305D03*
X038245Y008875D03*
X038054Y009095D03*
X038573Y009166D03*
X038558Y008877D03*
X038476Y009442D03*
X038267Y009645D03*
X038778Y009759D03*
X038788Y009470D03*
X038659Y010026D03*
X038433Y010211D03*
X038933Y010368D03*
X038967Y010080D03*
X038792Y010624D03*
X038552Y010789D03*
X038552Y013037D03*
X038792Y013202D03*
X038933Y013458D03*
X038967Y013746D03*
X038659Y013800D03*
X038433Y013615D03*
X038778Y014067D03*
X038788Y014356D03*
X038476Y014384D03*
X038267Y014181D03*
X038573Y014660D03*
X038558Y014949D03*
X038245Y014951D03*
X038054Y014731D03*
X038318Y015234D03*
X038280Y015521D03*
X037968Y015496D03*
X037795Y015261D03*
X038017Y015784D03*
X037955Y016067D03*
X037646Y016017D03*
X037494Y015768D03*
X037670Y016308D03*
X037585Y016585D03*
X037281Y016508D03*
X037150Y016248D03*
X037281Y016801D03*
X037173Y017069D03*
X036877Y016968D03*
X036768Y016697D03*
X036852Y017259D03*
X036722Y017518D03*
X036435Y017392D03*
X036350Y017113D03*
X036387Y017680D03*
X036235Y017927D03*
X035960Y017777D03*
X035898Y017493D03*
X035887Y018061D03*
X035715Y018294D03*
X035454Y018122D03*
X035416Y017833D03*
X035358Y018398D03*
X035167Y018616D03*
X034921Y018423D03*
X034907Y018132D03*
X034802Y018690D03*
X034594Y018891D03*
X034364Y018678D03*
X034375Y018387D03*
X034224Y018934D03*
X033999Y019117D03*
X033788Y018886D03*
X033627Y019129D03*
X033388Y019293D03*
X033197Y019044D03*
X033257Y018759D03*
X033016Y019274D03*
X032764Y019417D03*
X032595Y019153D03*
X032678Y018874D03*
X032395Y019366D03*
X032132Y019488D03*
X031064Y019488D03*
X030801Y019366D03*
X030601Y019153D03*
X030518Y018874D03*
X033824Y018596D03*
X043914Y013746D03*
X043948Y013458D03*
X044089Y013202D03*
X044329Y013037D03*
X044448Y013615D03*
X044222Y013800D03*
X044103Y014067D03*
X044093Y014356D03*
X044405Y014384D03*
X044614Y014181D03*
X044308Y014660D03*
X044323Y014949D03*
X044636Y014951D03*
X044827Y014731D03*
X044563Y015234D03*
X044601Y015521D03*
X044913Y015496D03*
X045086Y015261D03*
X044864Y015784D03*
X044927Y016067D03*
X045235Y016017D03*
X045388Y015768D03*
X045211Y016308D03*
X045296Y016585D03*
X045600Y016508D03*
X045731Y016248D03*
X045600Y016801D03*
X045708Y017069D03*
X046005Y016968D03*
X046113Y016697D03*
X046029Y017259D03*
X046159Y017518D03*
X046446Y017392D03*
X046532Y017113D03*
X046494Y017680D03*
X046646Y017927D03*
X046921Y017777D03*
X046983Y017493D03*
X046994Y018061D03*
X047166Y018294D03*
X047427Y018122D03*
X047465Y017833D03*
X047523Y018398D03*
X047714Y018616D03*
X047960Y018423D03*
X047974Y018132D03*
X048079Y018690D03*
X048287Y018891D03*
X048517Y018678D03*
X048506Y018387D03*
X048657Y018934D03*
X048882Y019117D03*
X049093Y018886D03*
X049254Y019129D03*
X049493Y019293D03*
X049684Y019044D03*
X049625Y018759D03*
X049865Y019274D03*
X050117Y019417D03*
X050286Y019153D03*
X050203Y018874D03*
X050486Y019366D03*
X050749Y019488D03*
X051817Y019488D03*
X052080Y019366D03*
X052280Y019153D03*
X052363Y018874D03*
X052701Y019274D03*
X052449Y019417D03*
X052882Y019044D03*
X052942Y018759D03*
X053312Y019129D03*
X053073Y019293D03*
X053474Y018886D03*
X053509Y018596D03*
X053909Y018934D03*
X053684Y019117D03*
X054049Y018678D03*
X054060Y018387D03*
X054487Y018690D03*
X054279Y018891D03*
X054606Y018423D03*
X054592Y018132D03*
X055043Y018398D03*
X054852Y018616D03*
X055139Y018122D03*
X055101Y017833D03*
X055572Y018061D03*
X055400Y018294D03*
X055645Y017777D03*
X055583Y017493D03*
X056072Y017680D03*
X055920Y017927D03*
X056120Y017392D03*
X056035Y017113D03*
X056537Y017259D03*
X056407Y017518D03*
X056562Y016968D03*
X056453Y016697D03*
X056966Y016801D03*
X056858Y017069D03*
X056966Y016508D03*
X056835Y016248D03*
X057355Y016308D03*
X057270Y016585D03*
X057331Y016017D03*
X057179Y015768D03*
X057702Y015784D03*
X057640Y016067D03*
X057653Y015496D03*
X057480Y015261D03*
X058003Y015234D03*
X057965Y015521D03*
X057930Y014951D03*
X057739Y014731D03*
X058258Y014660D03*
X058243Y014949D03*
X058161Y014384D03*
X057952Y014181D03*
X058463Y014067D03*
X058473Y014356D03*
X058344Y013800D03*
X058119Y013615D03*
X058618Y013458D03*
X058652Y013746D03*
X058477Y013202D03*
X058237Y013037D03*
X058237Y010789D03*
X058477Y010624D03*
X058618Y010368D03*
X058652Y010080D03*
X058344Y010026D03*
X058119Y010211D03*
X058463Y009759D03*
X058473Y009470D03*
X058161Y009442D03*
X057952Y009645D03*
X058258Y009166D03*
X058243Y008877D03*
X057930Y008875D03*
X057739Y009095D03*
X058003Y008592D03*
X057965Y008305D03*
X057653Y008330D03*
X057480Y008565D03*
X057702Y008042D03*
X057640Y007759D03*
X057331Y007809D03*
X057179Y008058D03*
X057355Y007518D03*
X057270Y007241D03*
X056966Y007318D03*
X056835Y007578D03*
X056966Y007025D03*
X056858Y006757D03*
X056562Y006858D03*
X056453Y007129D03*
X056537Y006567D03*
X056407Y006308D03*
X056120Y006434D03*
X056035Y006713D03*
X056072Y006146D03*
X055920Y005899D03*
X055645Y006049D03*
X055583Y006333D03*
X055572Y005765D03*
X055400Y005532D03*
X055139Y005704D03*
X055101Y005993D03*
X055043Y005428D03*
X054852Y005210D03*
X054606Y005403D03*
X054592Y005694D03*
X054487Y005136D03*
X054279Y004935D03*
X054049Y005148D03*
X054060Y005439D03*
X053909Y004892D03*
X053684Y004709D03*
X053474Y004940D03*
X053509Y005230D03*
X053312Y004697D03*
X053073Y004533D03*
X052882Y004782D03*
X052942Y005067D03*
X052701Y004552D03*
X052449Y004409D03*
X052280Y004673D03*
X052363Y004952D03*
X052080Y004460D03*
X051817Y004338D03*
X050749Y004338D03*
X050486Y004460D03*
X050286Y004673D03*
X050203Y004952D03*
X049865Y004552D03*
X050117Y004409D03*
X049684Y004782D03*
X049625Y005067D03*
X049254Y004697D03*
X049493Y004533D03*
X049093Y004940D03*
X049057Y005230D03*
X048657Y004892D03*
X048882Y004709D03*
X048517Y005148D03*
X048506Y005439D03*
X048079Y005136D03*
X048287Y004935D03*
X047960Y005403D03*
X047974Y005694D03*
X047523Y005428D03*
X047714Y005210D03*
X047427Y005704D03*
X047465Y005993D03*
X046994Y005765D03*
X047166Y005532D03*
X046921Y006049D03*
X046983Y006333D03*
X046494Y006146D03*
X046646Y005899D03*
X046446Y006434D03*
X046532Y006713D03*
X046029Y006567D03*
X046159Y006308D03*
X046005Y006858D03*
X046113Y007129D03*
X045600Y007025D03*
X045708Y006757D03*
X045600Y007318D03*
X045731Y007578D03*
X045211Y007518D03*
X045296Y007241D03*
X045235Y007809D03*
X045388Y008058D03*
X044864Y008042D03*
X044927Y007759D03*
X044913Y008330D03*
X045086Y008565D03*
X044563Y008592D03*
X044601Y008305D03*
X044636Y008875D03*
X044827Y009095D03*
X044308Y009166D03*
X044323Y008877D03*
X044405Y009442D03*
X044614Y009645D03*
X044103Y009759D03*
X044093Y009470D03*
X044222Y010026D03*
X044448Y010211D03*
X043948Y010368D03*
X043914Y010080D03*
X044089Y010624D03*
X044329Y010789D03*
X049057Y018596D03*
X050117Y024094D03*
X049865Y024237D03*
X049684Y024467D03*
X049625Y024752D03*
X049254Y024382D03*
X049493Y024218D03*
X049093Y024625D03*
X049057Y024915D03*
X048657Y024577D03*
X048882Y024394D03*
X048517Y024833D03*
X048506Y025124D03*
X048079Y024821D03*
X048287Y024620D03*
X047960Y025088D03*
X047974Y025379D03*
X047523Y025113D03*
X047714Y024895D03*
X047427Y025389D03*
X047465Y025678D03*
X046994Y025450D03*
X047166Y025218D03*
X046921Y025734D03*
X046983Y026018D03*
X046494Y025831D03*
X046646Y025584D03*
X046446Y026119D03*
X046532Y026398D03*
X046029Y026252D03*
X046159Y025994D03*
X046005Y026543D03*
X046113Y026814D03*
X045600Y026710D03*
X045708Y026442D03*
X045600Y027003D03*
X045731Y027263D03*
X045211Y027203D03*
X045296Y026926D03*
X045235Y027494D03*
X045388Y027743D03*
X044864Y027727D03*
X044927Y027444D03*
X044913Y028015D03*
X045086Y028250D03*
X044563Y028277D03*
X044601Y027990D03*
X044636Y028560D03*
X044827Y028780D03*
X044308Y028851D03*
X044323Y028562D03*
X044405Y029127D03*
X044614Y029330D03*
X044103Y029444D03*
X044093Y029155D03*
X044222Y029711D03*
X044448Y029896D03*
X043948Y030053D03*
X043914Y029765D03*
X044089Y030309D03*
X044329Y030474D03*
X044329Y032722D03*
X044089Y032887D03*
X043948Y033143D03*
X043914Y033431D03*
X044222Y033485D03*
X044448Y033300D03*
X044103Y033752D03*
X044093Y034041D03*
X044405Y034069D03*
X044614Y033866D03*
X044308Y034345D03*
X044323Y034634D03*
X044636Y034636D03*
X044827Y034416D03*
X044563Y034919D03*
X044601Y035206D03*
X044913Y035181D03*
X045086Y034946D03*
X044864Y035470D03*
X044927Y035752D03*
X045235Y035702D03*
X045388Y035453D03*
X045211Y035993D03*
X045296Y036270D03*
X045600Y036193D03*
X045731Y035933D03*
X045600Y036486D03*
X045708Y036754D03*
X046005Y036653D03*
X046113Y036382D03*
X046029Y036944D03*
X046159Y037203D03*
X046446Y037077D03*
X046532Y036798D03*
X046494Y037365D03*
X046646Y037612D03*
X046921Y037462D03*
X046983Y037178D03*
X046994Y037746D03*
X047166Y037979D03*
X047427Y037807D03*
X047465Y037518D03*
X047523Y038083D03*
X047714Y038301D03*
X047960Y038108D03*
X047974Y037817D03*
X048079Y038375D03*
X048287Y038576D03*
X048517Y038363D03*
X048506Y038072D03*
X048657Y038619D03*
X048882Y038802D03*
X049093Y038571D03*
X049254Y038814D03*
X049493Y038978D03*
X049684Y038729D03*
X049625Y038444D03*
X049865Y038959D03*
X050117Y039102D03*
X050286Y038838D03*
X050203Y038559D03*
X050486Y039052D03*
X050749Y039173D03*
X051817Y039173D03*
X052080Y039052D03*
X052280Y038838D03*
X052363Y038559D03*
X052701Y038959D03*
X052449Y039102D03*
X052882Y038729D03*
X052942Y038444D03*
X053312Y038814D03*
X053073Y038978D03*
X053474Y038571D03*
X053509Y038281D03*
X053909Y038619D03*
X053684Y038802D03*
X054049Y038363D03*
X054060Y038072D03*
X054487Y038375D03*
X054279Y038576D03*
X054606Y038108D03*
X054592Y037817D03*
X055043Y038083D03*
X054852Y038301D03*
X055139Y037807D03*
X055101Y037518D03*
X055572Y037746D03*
X055400Y037979D03*
X055645Y037462D03*
X055583Y037178D03*
X056072Y037365D03*
X055920Y037612D03*
X056120Y037077D03*
X056035Y036798D03*
X056537Y036944D03*
X056407Y037203D03*
X056562Y036653D03*
X056453Y036382D03*
X056966Y036486D03*
X056858Y036754D03*
X056966Y036193D03*
X056835Y035933D03*
X057355Y035993D03*
X057270Y036270D03*
X057331Y035702D03*
X057179Y035453D03*
X057702Y035470D03*
X057640Y035752D03*
X057653Y035181D03*
X057480Y034946D03*
X058003Y034919D03*
X057965Y035206D03*
X057930Y034636D03*
X057739Y034416D03*
X058258Y034345D03*
X058243Y034634D03*
X058161Y034069D03*
X057952Y033866D03*
X058463Y033752D03*
X058473Y034041D03*
X058344Y033485D03*
X058119Y033300D03*
X058618Y033143D03*
X058652Y033431D03*
X058477Y032887D03*
X058237Y032722D03*
X058237Y030474D03*
X058477Y030309D03*
X058618Y030053D03*
X058652Y029765D03*
X058344Y029711D03*
X058119Y029896D03*
X058463Y029444D03*
X058473Y029155D03*
X058161Y029127D03*
X057952Y029330D03*
X058258Y028851D03*
X058243Y028562D03*
X057930Y028560D03*
X057739Y028780D03*
X058003Y028277D03*
X057965Y027990D03*
X057653Y028015D03*
X057480Y028250D03*
X057702Y027727D03*
X057640Y027444D03*
X057331Y027494D03*
X057179Y027743D03*
X057355Y027203D03*
X057270Y026926D03*
X056966Y027003D03*
X056835Y027263D03*
X056966Y026710D03*
X056858Y026442D03*
X056562Y026543D03*
X056453Y026814D03*
X056537Y026252D03*
X056407Y025994D03*
X056120Y026119D03*
X056035Y026398D03*
X056072Y025831D03*
X055920Y025584D03*
X055645Y025734D03*
X055583Y026018D03*
X055572Y025450D03*
X055400Y025218D03*
X055139Y025389D03*
X055101Y025678D03*
X055043Y025113D03*
X054852Y024895D03*
X054606Y025088D03*
X054592Y025379D03*
X054487Y024821D03*
X054279Y024620D03*
X054049Y024833D03*
X054060Y025124D03*
X053909Y024577D03*
X053684Y024394D03*
X053474Y024625D03*
X053509Y024915D03*
X053312Y024382D03*
X053073Y024218D03*
X052882Y024467D03*
X052942Y024752D03*
X052701Y024237D03*
X052449Y024094D03*
X052280Y024358D03*
X052363Y024637D03*
X052080Y024145D03*
X051817Y024023D03*
X050749Y024023D03*
X050486Y024145D03*
X050286Y024358D03*
X050203Y024637D03*
X063778Y029155D03*
X063788Y029444D03*
X063907Y029711D03*
X064133Y029896D03*
X063633Y030053D03*
X063599Y029765D03*
X063774Y030309D03*
X064014Y030474D03*
X064299Y029330D03*
X064090Y029127D03*
X063994Y028851D03*
X064008Y028562D03*
X064321Y028560D03*
X064512Y028780D03*
X064248Y028277D03*
X064286Y027990D03*
X064598Y028015D03*
X064771Y028250D03*
X064549Y027727D03*
X064612Y027444D03*
X064920Y027494D03*
X065073Y027743D03*
X064896Y027203D03*
X064981Y026926D03*
X065285Y027003D03*
X065416Y027263D03*
X065285Y026710D03*
X065393Y026442D03*
X065690Y026543D03*
X065798Y026814D03*
X065714Y026252D03*
X065844Y025994D03*
X066131Y026119D03*
X066217Y026398D03*
X066180Y025831D03*
X066331Y025584D03*
X066606Y025734D03*
X066668Y026018D03*
X066679Y025450D03*
X066851Y025218D03*
X067112Y025389D03*
X067150Y025678D03*
X067208Y025113D03*
X067399Y024895D03*
X067646Y025088D03*
X067764Y024821D03*
X067973Y024620D03*
X068202Y024833D03*
X068191Y025124D03*
X068342Y024577D03*
X068567Y024394D03*
X068778Y024625D03*
X068939Y024382D03*
X069178Y024218D03*
X069369Y024467D03*
X069310Y024752D03*
X069550Y024237D03*
X069802Y024094D03*
X069971Y024358D03*
X069888Y024637D03*
X070171Y024145D03*
X070434Y024023D03*
X071502Y024023D03*
X071765Y024145D03*
X071965Y024358D03*
X072048Y024637D03*
X072386Y024237D03*
X072134Y024094D03*
X072567Y024467D03*
X072627Y024752D03*
X072997Y024382D03*
X072758Y024218D03*
X073159Y024625D03*
X073194Y024915D03*
X073594Y024577D03*
X073369Y024394D03*
X073734Y024833D03*
X073745Y025124D03*
X074172Y024821D03*
X073964Y024620D03*
X074291Y025088D03*
X074277Y025379D03*
X074728Y025113D03*
X074537Y024895D03*
X074824Y025389D03*
X074786Y025678D03*
X075257Y025450D03*
X075085Y025218D03*
X075330Y025734D03*
X075268Y026018D03*
X075757Y025831D03*
X075605Y025584D03*
X075805Y026119D03*
X075720Y026398D03*
X076222Y026252D03*
X076092Y025994D03*
X076247Y026543D03*
X076138Y026814D03*
X076651Y026710D03*
X076543Y026442D03*
X076651Y027003D03*
X076520Y027263D03*
X077040Y027203D03*
X076955Y026926D03*
X077016Y027494D03*
X076864Y027743D03*
X077387Y027727D03*
X077325Y027444D03*
X077338Y028015D03*
X077166Y028250D03*
X077688Y028277D03*
X077650Y027990D03*
X077615Y028560D03*
X077424Y028780D03*
X077943Y028851D03*
X077928Y028562D03*
X077846Y029127D03*
X077637Y029330D03*
X078148Y029444D03*
X078158Y029155D03*
X078029Y029711D03*
X077804Y029896D03*
X078303Y030053D03*
X078337Y029765D03*
X078162Y030309D03*
X077922Y030474D03*
X077922Y032722D03*
X078162Y032887D03*
X078303Y033143D03*
X078337Y033431D03*
X078029Y033485D03*
X077804Y033300D03*
X078148Y033752D03*
X078158Y034041D03*
X077846Y034069D03*
X077637Y033866D03*
X077943Y034345D03*
X077928Y034634D03*
X077615Y034636D03*
X077424Y034416D03*
X077688Y034919D03*
X077650Y035206D03*
X077338Y035181D03*
X077166Y034946D03*
X077387Y035470D03*
X077325Y035752D03*
X077016Y035702D03*
X076864Y035453D03*
X077040Y035993D03*
X076955Y036270D03*
X076651Y036193D03*
X076520Y035933D03*
X076651Y036486D03*
X076543Y036754D03*
X076247Y036653D03*
X076138Y036382D03*
X076222Y036944D03*
X076092Y037203D03*
X075805Y037077D03*
X075720Y036798D03*
X075757Y037365D03*
X075605Y037612D03*
X075330Y037462D03*
X075268Y037178D03*
X075257Y037746D03*
X075085Y037979D03*
X074824Y037807D03*
X074786Y037518D03*
X074728Y038083D03*
X074537Y038301D03*
X074291Y038108D03*
X074277Y037817D03*
X074172Y038375D03*
X073964Y038576D03*
X073734Y038363D03*
X073745Y038072D03*
X073594Y038619D03*
X073369Y038802D03*
X073159Y038571D03*
X073194Y038281D03*
X072997Y038814D03*
X072758Y038978D03*
X072567Y038729D03*
X072627Y038444D03*
X072386Y038959D03*
X072134Y039102D03*
X071965Y038838D03*
X072048Y038559D03*
X071765Y039052D03*
X071502Y039173D03*
X070434Y039173D03*
X070171Y039052D03*
X069971Y038838D03*
X069888Y038559D03*
X069550Y038959D03*
X069802Y039102D03*
X069369Y038729D03*
X069310Y038444D03*
X068939Y038814D03*
X069178Y038978D03*
X068778Y038571D03*
X068743Y038281D03*
X068342Y038619D03*
X068567Y038802D03*
X068202Y038363D03*
X068191Y038072D03*
X067764Y038375D03*
X067973Y038576D03*
X067646Y038108D03*
X067659Y037817D03*
X067208Y038083D03*
X067399Y038301D03*
X067112Y037807D03*
X067150Y037518D03*
X066679Y037746D03*
X066851Y037979D03*
X066606Y037462D03*
X066668Y037178D03*
X066180Y037365D03*
X066331Y037612D03*
X066131Y037077D03*
X066217Y036798D03*
X065714Y036944D03*
X065844Y037203D03*
X065690Y036653D03*
X065798Y036382D03*
X065285Y036486D03*
X065393Y036754D03*
X065285Y036193D03*
X065416Y035933D03*
X064896Y035993D03*
X064981Y036270D03*
X064920Y035702D03*
X065073Y035453D03*
X064549Y035470D03*
X064612Y035752D03*
X064598Y035181D03*
X064771Y034946D03*
X064248Y034919D03*
X064286Y035206D03*
X064321Y034636D03*
X064512Y034416D03*
X063994Y034345D03*
X064008Y034634D03*
X064090Y034069D03*
X064299Y033866D03*
X063788Y033752D03*
X063778Y034041D03*
X063907Y033485D03*
X064133Y033300D03*
X063633Y033143D03*
X063599Y033431D03*
X063774Y032887D03*
X064014Y032722D03*
X067659Y025379D03*
X068743Y024915D03*
X069802Y019417D03*
X069550Y019274D03*
X069369Y019044D03*
X069310Y018759D03*
X068939Y019129D03*
X069178Y019293D03*
X068778Y018886D03*
X068743Y018596D03*
X068342Y018934D03*
X068567Y019117D03*
X068202Y018678D03*
X068191Y018387D03*
X067764Y018690D03*
X067973Y018891D03*
X067646Y018423D03*
X067659Y018132D03*
X067208Y018398D03*
X067399Y018616D03*
X067112Y018122D03*
X067150Y017833D03*
X066679Y018061D03*
X066851Y018294D03*
X066606Y017777D03*
X066668Y017493D03*
X066180Y017680D03*
X066331Y017927D03*
X066131Y017392D03*
X066217Y017113D03*
X065714Y017259D03*
X065844Y017518D03*
X065690Y016968D03*
X065798Y016697D03*
X065285Y016801D03*
X065393Y017069D03*
X065285Y016508D03*
X065416Y016248D03*
X064896Y016308D03*
X064981Y016585D03*
X064920Y016017D03*
X065073Y015768D03*
X064549Y015784D03*
X064612Y016067D03*
X064598Y015496D03*
X064771Y015261D03*
X064248Y015234D03*
X064286Y015521D03*
X064321Y014951D03*
X064512Y014731D03*
X063994Y014660D03*
X064008Y014949D03*
X064090Y014384D03*
X064299Y014181D03*
X063788Y014067D03*
X063778Y014356D03*
X063907Y013800D03*
X064133Y013615D03*
X063633Y013458D03*
X063599Y013746D03*
X063774Y013202D03*
X064014Y013037D03*
X064014Y010789D03*
X063774Y010624D03*
X063633Y010368D03*
X063599Y010080D03*
X063907Y010026D03*
X064133Y010211D03*
X063788Y009759D03*
X063778Y009470D03*
X064090Y009442D03*
X064299Y009645D03*
X063994Y009166D03*
X064008Y008877D03*
X064321Y008875D03*
X064512Y009095D03*
X064248Y008592D03*
X064286Y008305D03*
X064598Y008330D03*
X064771Y008565D03*
X064549Y008042D03*
X064612Y007759D03*
X064920Y007809D03*
X065073Y008058D03*
X064896Y007518D03*
X064981Y007241D03*
X065285Y007318D03*
X065416Y007578D03*
X065285Y007025D03*
X065393Y006757D03*
X065690Y006858D03*
X065798Y007129D03*
X065714Y006567D03*
X065844Y006308D03*
X066131Y006434D03*
X066217Y006713D03*
X066180Y006146D03*
X066331Y005899D03*
X066606Y006049D03*
X066668Y006333D03*
X066679Y005765D03*
X066851Y005532D03*
X067112Y005704D03*
X067150Y005993D03*
X067208Y005428D03*
X067399Y005210D03*
X067646Y005403D03*
X067659Y005694D03*
X067764Y005136D03*
X067973Y004935D03*
X068202Y005148D03*
X068191Y005439D03*
X068342Y004892D03*
X068567Y004709D03*
X068778Y004940D03*
X068939Y004697D03*
X069178Y004533D03*
X069369Y004782D03*
X069310Y005067D03*
X069550Y004552D03*
X069802Y004409D03*
X069971Y004673D03*
X069888Y004952D03*
X070171Y004460D03*
X070434Y004338D03*
X071502Y004338D03*
X071765Y004460D03*
X071965Y004673D03*
X072048Y004952D03*
X072386Y004552D03*
X072134Y004409D03*
X072567Y004782D03*
X072627Y005067D03*
X072997Y004697D03*
X072758Y004533D03*
X073159Y004940D03*
X073194Y005230D03*
X073594Y004892D03*
X073369Y004709D03*
X073734Y005148D03*
X073745Y005439D03*
X074172Y005136D03*
X073964Y004935D03*
X074291Y005403D03*
X074277Y005694D03*
X074728Y005428D03*
X074537Y005210D03*
X074824Y005704D03*
X074786Y005993D03*
X075257Y005765D03*
X075085Y005532D03*
X075330Y006049D03*
X075268Y006333D03*
X075757Y006146D03*
X075605Y005899D03*
X075805Y006434D03*
X075720Y006713D03*
X076222Y006567D03*
X076092Y006308D03*
X076247Y006858D03*
X076138Y007129D03*
X076651Y007025D03*
X076543Y006757D03*
X076651Y007318D03*
X076520Y007578D03*
X077040Y007518D03*
X076955Y007241D03*
X077016Y007809D03*
X076864Y008058D03*
X077387Y008042D03*
X077325Y007759D03*
X077338Y008330D03*
X077166Y008565D03*
X077688Y008592D03*
X077650Y008305D03*
X077615Y008875D03*
X077424Y009095D03*
X077943Y009166D03*
X077928Y008877D03*
X077846Y009442D03*
X077637Y009645D03*
X078148Y009759D03*
X078158Y009470D03*
X078029Y010026D03*
X077804Y010211D03*
X078303Y010368D03*
X078337Y010080D03*
X078162Y010624D03*
X077922Y010789D03*
X077922Y013037D03*
X078162Y013202D03*
X078303Y013458D03*
X078337Y013746D03*
X078029Y013800D03*
X077804Y013615D03*
X078148Y014067D03*
X078158Y014356D03*
X077846Y014384D03*
X077637Y014181D03*
X077943Y014660D03*
X077928Y014949D03*
X077615Y014951D03*
X077424Y014731D03*
X077688Y015234D03*
X077650Y015521D03*
X077338Y015496D03*
X077166Y015261D03*
X077387Y015784D03*
X077325Y016067D03*
X077016Y016017D03*
X076864Y015768D03*
X077040Y016308D03*
X076955Y016585D03*
X076651Y016508D03*
X076520Y016248D03*
X076651Y016801D03*
X076543Y017069D03*
X076247Y016968D03*
X076138Y016697D03*
X076222Y017259D03*
X076092Y017518D03*
X075805Y017392D03*
X075720Y017113D03*
X075757Y017680D03*
X075605Y017927D03*
X075330Y017777D03*
X075268Y017493D03*
X075257Y018061D03*
X075085Y018294D03*
X074824Y018122D03*
X074786Y017833D03*
X074728Y018398D03*
X074537Y018616D03*
X074291Y018423D03*
X074277Y018132D03*
X074172Y018690D03*
X073964Y018891D03*
X073734Y018678D03*
X073745Y018387D03*
X073594Y018934D03*
X073369Y019117D03*
X073159Y018886D03*
X073194Y018596D03*
X072997Y019129D03*
X072758Y019293D03*
X072567Y019044D03*
X072627Y018759D03*
X072386Y019274D03*
X072134Y019417D03*
X071965Y019153D03*
X072048Y018874D03*
X071765Y019366D03*
X071502Y019488D03*
X070434Y019488D03*
X070171Y019366D03*
X069971Y019153D03*
X069888Y018874D03*
X068743Y005230D03*
X029372Y005230D03*
X014139Y005230D03*
X049057Y038281D03*
X063778Y048840D03*
X063788Y049130D03*
X063907Y049396D03*
X064133Y049581D03*
X063633Y049738D03*
X063599Y049450D03*
X063774Y049994D03*
X064014Y050159D03*
X064299Y049015D03*
X064090Y048812D03*
X063994Y048536D03*
X064008Y048247D03*
X064321Y048245D03*
X064512Y048465D03*
X064248Y047962D03*
X064286Y047675D03*
X064598Y047700D03*
X064771Y047935D03*
X064549Y047412D03*
X064612Y047129D03*
X064920Y047179D03*
X065073Y047428D03*
X064896Y046888D03*
X064981Y046612D03*
X065285Y046688D03*
X065416Y046948D03*
X065285Y046395D03*
X065393Y046127D03*
X065690Y046228D03*
X065798Y046499D03*
X065714Y045937D03*
X065844Y045679D03*
X066131Y045804D03*
X066217Y046083D03*
X066180Y045516D03*
X066331Y045269D03*
X066606Y045419D03*
X066668Y045703D03*
X066679Y045136D03*
X066851Y044903D03*
X067112Y045074D03*
X067150Y045363D03*
X067208Y044798D03*
X067399Y044580D03*
X067646Y044773D03*
X067764Y044506D03*
X067973Y044305D03*
X068202Y044518D03*
X068191Y044809D03*
X068342Y044262D03*
X068567Y044079D03*
X068778Y044311D03*
X068743Y044600D03*
X068939Y044067D03*
X069178Y043903D03*
X069369Y044152D03*
X069310Y044437D03*
X069550Y043922D03*
X069802Y043780D03*
X069971Y044043D03*
X069888Y044322D03*
X070171Y043830D03*
X070434Y043708D03*
X071502Y043708D03*
X071765Y043830D03*
X071965Y044043D03*
X072048Y044322D03*
X072386Y043922D03*
X072134Y043780D03*
X072567Y044152D03*
X072627Y044437D03*
X072997Y044067D03*
X072758Y043903D03*
X073159Y044311D03*
X073194Y044600D03*
X073594Y044262D03*
X073369Y044079D03*
X073734Y044518D03*
X073745Y044809D03*
X074172Y044506D03*
X073964Y044305D03*
X074291Y044773D03*
X074277Y045064D03*
X074728Y044798D03*
X074537Y044580D03*
X074824Y045074D03*
X074786Y045363D03*
X075257Y045136D03*
X075085Y044903D03*
X075330Y045419D03*
X075268Y045703D03*
X075757Y045516D03*
X075605Y045269D03*
X075805Y045804D03*
X075720Y046083D03*
X076222Y045937D03*
X076092Y045679D03*
X076247Y046228D03*
X076138Y046499D03*
X076651Y046395D03*
X076543Y046127D03*
X076651Y046688D03*
X076520Y046948D03*
X077040Y046888D03*
X076955Y046612D03*
X077016Y047179D03*
X076864Y047428D03*
X077387Y047412D03*
X077325Y047129D03*
X077338Y047700D03*
X077166Y047935D03*
X077688Y047962D03*
X077650Y047675D03*
X077615Y048245D03*
X077424Y048465D03*
X077943Y048536D03*
X077928Y048247D03*
X077846Y048812D03*
X077637Y049015D03*
X078148Y049130D03*
X078158Y048840D03*
X078029Y049396D03*
X077804Y049581D03*
X078303Y049738D03*
X078337Y049450D03*
X078162Y049994D03*
X077922Y050159D03*
X077922Y052407D03*
X078162Y052572D03*
X078303Y052828D03*
X078337Y053116D03*
X078029Y053170D03*
X077804Y052985D03*
X078148Y053437D03*
X078158Y053726D03*
X077846Y053754D03*
X077637Y053551D03*
X077943Y054030D03*
X077928Y054319D03*
X077615Y054321D03*
X077424Y054101D03*
X077688Y054604D03*
X077650Y054891D03*
X077338Y054866D03*
X077166Y054631D03*
X077387Y055155D03*
X077325Y055437D03*
X077016Y055387D03*
X076864Y055138D03*
X077040Y055678D03*
X076955Y055955D03*
X076651Y055878D03*
X076520Y055618D03*
X076651Y056171D03*
X076543Y056439D03*
X076247Y056338D03*
X076138Y056068D03*
X076222Y056629D03*
X076092Y056888D03*
X075805Y056762D03*
X075720Y056483D03*
X075757Y057050D03*
X075605Y057297D03*
X075330Y057147D03*
X075268Y056863D03*
X075257Y057431D03*
X075085Y057664D03*
X074824Y057492D03*
X074786Y057203D03*
X074728Y057768D03*
X074537Y057986D03*
X074291Y057793D03*
X074277Y057502D03*
X074172Y058060D03*
X073964Y058261D03*
X073734Y058048D03*
X073745Y057757D03*
X073594Y058304D03*
X073369Y058487D03*
X073159Y058256D03*
X073194Y057966D03*
X072997Y058499D03*
X072758Y058663D03*
X072567Y058414D03*
X072627Y058129D03*
X072386Y058644D03*
X072134Y058787D03*
X071965Y058523D03*
X072048Y058244D03*
X071765Y058737D03*
X071502Y058858D03*
X070434Y058858D03*
X070171Y058737D03*
X069971Y058523D03*
X069888Y058244D03*
X069550Y058644D03*
X069802Y058787D03*
X069369Y058414D03*
X069310Y058129D03*
X068939Y058499D03*
X069178Y058663D03*
X068778Y058256D03*
X068743Y057966D03*
X068342Y058304D03*
X068567Y058487D03*
X068202Y058048D03*
X068191Y057757D03*
X067764Y058060D03*
X067973Y058261D03*
X067646Y057793D03*
X067659Y057502D03*
X067208Y057768D03*
X067399Y057986D03*
X067112Y057492D03*
X067150Y057203D03*
X066679Y057431D03*
X066851Y057664D03*
X066606Y057147D03*
X066668Y056863D03*
X066180Y057050D03*
X066331Y057297D03*
X066131Y056762D03*
X066217Y056483D03*
X065714Y056629D03*
X065844Y056888D03*
X065690Y056338D03*
X065798Y056068D03*
X065285Y056171D03*
X065393Y056439D03*
X065285Y055878D03*
X065416Y055618D03*
X064896Y055678D03*
X064981Y055955D03*
X064920Y055387D03*
X065073Y055138D03*
X064549Y055155D03*
X064612Y055437D03*
X064598Y054866D03*
X064771Y054631D03*
X064248Y054604D03*
X064286Y054891D03*
X064321Y054321D03*
X064512Y054101D03*
X063994Y054030D03*
X064008Y054319D03*
X064090Y053754D03*
X064299Y053551D03*
X063788Y053437D03*
X063778Y053726D03*
X063907Y053170D03*
X064133Y052985D03*
X063633Y052828D03*
X063599Y053116D03*
X063774Y052572D03*
X064014Y052407D03*
X067659Y045064D03*
D13*
X070968Y051283D03*
X051283Y051283D03*
X031598Y051283D03*
X011913Y051283D03*
X011913Y031598D03*
X031598Y031598D03*
X051283Y031598D03*
X070968Y031598D03*
X070968Y011913D03*
X051283Y011913D03*
X031598Y011913D03*
X011913Y011913D03*
D14*
X012504Y013881D03*
X011322Y009944D03*
X031007Y009944D03*
X032189Y013881D03*
X050693Y009944D03*
X051874Y013881D03*
X070378Y009944D03*
X071559Y013881D03*
X070378Y029630D03*
X071559Y033567D03*
X051874Y033567D03*
X050693Y029630D03*
X032189Y033567D03*
X031007Y029630D03*
X012504Y033567D03*
X011322Y029630D03*
X011322Y049315D03*
X012504Y053252D03*
X031007Y049315D03*
X032189Y053252D03*
X050693Y049315D03*
X051874Y053252D03*
X070378Y049315D03*
X071559Y053252D03*
D15*
X071952Y054630D03*
X071874Y055338D03*
X067622Y052267D03*
X067070Y052267D03*
X066559Y052464D03*
X065299Y052385D03*
X063606Y051795D03*
X063606Y051086D03*
X058645Y050771D03*
X058645Y051480D03*
X056952Y050181D03*
X055693Y050102D03*
X055181Y050299D03*
X054630Y050299D03*
X050299Y047937D03*
X050374Y047226D03*
X051086Y043685D03*
X051483Y043683D03*
X051480Y039196D03*
X051083Y039198D03*
X052189Y035653D03*
X052267Y034944D03*
X047937Y032582D03*
X047385Y032582D03*
X046874Y032779D03*
X045614Y032700D03*
X043921Y032110D03*
X043921Y031401D03*
X038960Y031086D03*
X038960Y031795D03*
X037267Y030496D03*
X036007Y030417D03*
X035496Y030614D03*
X034944Y030614D03*
X030689Y027541D03*
X030614Y028252D03*
X031401Y024000D03*
X031798Y023998D03*
X031795Y019511D03*
X031398Y019513D03*
X032504Y015968D03*
X032582Y015259D03*
X028252Y012897D03*
X027700Y012897D03*
X027189Y013094D03*
X025929Y013015D03*
X024236Y012425D03*
X024236Y011716D03*
X019275Y011401D03*
X019275Y012110D03*
X017582Y010811D03*
X016322Y010732D03*
X015811Y010929D03*
X015259Y010929D03*
X010929Y008567D03*
X011004Y007856D03*
X011716Y004315D03*
X012113Y004313D03*
X004551Y011716D03*
X004551Y012425D03*
X006244Y013015D03*
X007504Y013094D03*
X008015Y012897D03*
X008567Y012897D03*
X012897Y015259D03*
X012819Y015968D03*
X012110Y019511D03*
X011713Y019513D03*
X011716Y024000D03*
X012113Y023998D03*
X011004Y027541D03*
X010929Y028252D03*
X015259Y030614D03*
X015811Y030614D03*
X016322Y030417D03*
X017582Y030496D03*
X019275Y031086D03*
X019275Y031795D03*
X024236Y032110D03*
X024236Y031401D03*
X025929Y032700D03*
X027189Y032779D03*
X027700Y032582D03*
X028252Y032582D03*
X032582Y034944D03*
X032504Y035653D03*
X031795Y039196D03*
X031398Y039198D03*
X031401Y043685D03*
X031798Y043683D03*
X030689Y047226D03*
X030614Y047937D03*
X034944Y050299D03*
X035496Y050299D03*
X036007Y050102D03*
X037267Y050181D03*
X038960Y050771D03*
X038960Y051480D03*
X043921Y051795D03*
X043921Y051086D03*
X045614Y052385D03*
X046874Y052464D03*
X047385Y052267D03*
X047937Y052267D03*
X052189Y055338D03*
X052267Y054630D03*
X051480Y058881D03*
X051083Y058883D03*
X032504Y055338D03*
X032582Y054630D03*
X028252Y052267D03*
X027700Y052267D03*
X027189Y052464D03*
X025929Y052385D03*
X024236Y051795D03*
X024236Y051086D03*
X019275Y050771D03*
X019275Y051480D03*
X017582Y050181D03*
X016322Y050102D03*
X015811Y050299D03*
X015259Y050299D03*
X010929Y047937D03*
X011004Y047226D03*
X011716Y043685D03*
X012113Y043683D03*
X012110Y039196D03*
X011713Y039198D03*
X012819Y035653D03*
X012897Y034944D03*
X008567Y032582D03*
X008015Y032582D03*
X007504Y032779D03*
X006244Y032700D03*
X004551Y032110D03*
X004551Y031401D03*
X004551Y051086D03*
X004551Y051795D03*
X006244Y052385D03*
X007504Y052464D03*
X008015Y052267D03*
X008567Y052267D03*
X012897Y054630D03*
X012819Y055338D03*
X012110Y058881D03*
X011713Y058883D03*
X031398Y058883D03*
X031795Y058881D03*
X065299Y032700D03*
X066559Y032779D03*
X067070Y032582D03*
X067622Y032582D03*
X063606Y032110D03*
X063606Y031401D03*
X058645Y031086D03*
X058645Y031795D03*
X056952Y030496D03*
X055693Y030417D03*
X055181Y030614D03*
X054630Y030614D03*
X050299Y028252D03*
X050374Y027541D03*
X051086Y024000D03*
X051483Y023998D03*
X051480Y019511D03*
X051083Y019513D03*
X052189Y015968D03*
X052267Y015259D03*
X047937Y012897D03*
X047385Y012897D03*
X046874Y013094D03*
X045614Y013015D03*
X043921Y012425D03*
X043921Y011716D03*
X038960Y011401D03*
X038960Y012110D03*
X037267Y010811D03*
X036007Y010732D03*
X035496Y010929D03*
X034944Y010929D03*
X030689Y007856D03*
X030614Y008567D03*
X031401Y004315D03*
X031798Y004313D03*
X050374Y007856D03*
X050299Y008567D03*
X054630Y010929D03*
X055181Y010929D03*
X055693Y010732D03*
X056952Y010811D03*
X058645Y011401D03*
X058645Y012110D03*
X063606Y012425D03*
X063606Y011716D03*
X065299Y013015D03*
X066559Y013094D03*
X067070Y012897D03*
X067622Y012897D03*
X071952Y015259D03*
X071874Y015968D03*
X071165Y019511D03*
X070768Y019513D03*
X070771Y024000D03*
X071168Y023998D03*
X070059Y027541D03*
X069984Y028252D03*
X074315Y030614D03*
X074866Y030614D03*
X075378Y030417D03*
X076637Y030496D03*
X078330Y031086D03*
X078330Y031795D03*
X071952Y034944D03*
X071874Y035653D03*
X071165Y039196D03*
X070768Y039198D03*
X070771Y043685D03*
X071168Y043683D03*
X070059Y047226D03*
X069984Y047937D03*
X074315Y050299D03*
X074866Y050299D03*
X075378Y050102D03*
X076637Y050181D03*
X078330Y050771D03*
X078330Y051480D03*
X071165Y058881D03*
X070768Y058883D03*
X078330Y012110D03*
X078330Y011401D03*
X076637Y010811D03*
X075378Y010732D03*
X074866Y010929D03*
X074315Y010929D03*
X069984Y008567D03*
X070059Y007856D03*
X070771Y004315D03*
X071168Y004313D03*
X051483Y004313D03*
X051086Y004315D03*
M02*
