G75*
%MOIN*%
%OFA0B0*%
%FSLAX25Y25*%
%IPPOS*%
%LPD*%
%AMOC8*
5,1,8,0,0,1.08239X$1,22.5*
%
%ADD10C,0.00500*%
%ADD11C,0.00700*%
D10*
X0078165Y0096079D02*
X0093126Y0096079D01*
X0093126Y0114780D01*
X0078165Y0114780D01*
X0078165Y0096079D01*
X0077216Y0105461D02*
X0072816Y0105461D01*
X0072816Y0113861D01*
X0077216Y0113861D01*
X0077216Y0105461D01*
X0094469Y0105987D02*
X0094469Y0097587D01*
X0098869Y0097587D01*
X0098869Y0105987D01*
X0094469Y0105987D01*
X0094469Y0107430D02*
X0098869Y0107430D01*
X0098869Y0115830D01*
X0094469Y0115830D01*
X0094469Y0107430D01*
X0100370Y0111000D02*
X0111394Y0111000D01*
X0111394Y0096039D01*
X0100370Y0096039D01*
X0100370Y0111000D01*
X0098638Y0113835D02*
X0102969Y0113835D01*
X0102969Y0115173D02*
X0099819Y0115173D01*
X0099819Y0123835D01*
X0102969Y0123835D01*
X0102969Y0125173D02*
X0098638Y0125173D01*
X0098638Y0113835D01*
X0112580Y0107169D02*
X0116980Y0107169D01*
X0116980Y0098769D01*
X0112580Y0098769D01*
X0112580Y0107169D01*
X0120291Y0113835D02*
X0124622Y0113835D01*
X0124622Y0125173D01*
X0120291Y0125173D01*
X0120291Y0123835D02*
X0123441Y0123835D01*
X0123441Y0115173D01*
X0120291Y0115173D01*
X0120277Y0121686D02*
X0120279Y0121746D01*
X0120285Y0121805D01*
X0120295Y0121864D01*
X0120309Y0121922D01*
X0120326Y0121979D01*
X0120348Y0122035D01*
X0120373Y0122089D01*
X0120402Y0122142D01*
X0120434Y0122192D01*
X0120469Y0122240D01*
X0120508Y0122286D01*
X0120549Y0122329D01*
X0120594Y0122369D01*
X0120641Y0122406D01*
X0120690Y0122440D01*
X0120741Y0122470D01*
X0120795Y0122497D01*
X0120850Y0122520D01*
X0120906Y0122540D01*
X0120964Y0122556D01*
X0121022Y0122568D01*
X0121082Y0122576D01*
X0121141Y0122580D01*
X0121201Y0122580D01*
X0121260Y0122576D01*
X0121320Y0122568D01*
X0121378Y0122556D01*
X0121436Y0122540D01*
X0121492Y0122520D01*
X0121547Y0122497D01*
X0121601Y0122470D01*
X0121652Y0122440D01*
X0121701Y0122406D01*
X0121748Y0122369D01*
X0121793Y0122329D01*
X0121834Y0122286D01*
X0121873Y0122240D01*
X0121908Y0122192D01*
X0121940Y0122142D01*
X0121969Y0122089D01*
X0121994Y0122035D01*
X0122016Y0121979D01*
X0122033Y0121922D01*
X0122047Y0121864D01*
X0122057Y0121805D01*
X0122063Y0121746D01*
X0122065Y0121686D01*
X0122063Y0121626D01*
X0122057Y0121567D01*
X0122047Y0121508D01*
X0122033Y0121450D01*
X0122016Y0121393D01*
X0121994Y0121337D01*
X0121969Y0121283D01*
X0121940Y0121230D01*
X0121908Y0121180D01*
X0121873Y0121132D01*
X0121834Y0121086D01*
X0121793Y0121043D01*
X0121748Y0121003D01*
X0121701Y0120966D01*
X0121652Y0120932D01*
X0121601Y0120902D01*
X0121547Y0120875D01*
X0121492Y0120852D01*
X0121436Y0120832D01*
X0121378Y0120816D01*
X0121320Y0120804D01*
X0121260Y0120796D01*
X0121201Y0120792D01*
X0121141Y0120792D01*
X0121082Y0120796D01*
X0121022Y0120804D01*
X0120964Y0120816D01*
X0120906Y0120832D01*
X0120850Y0120852D01*
X0120795Y0120875D01*
X0120741Y0120902D01*
X0120690Y0120932D01*
X0120641Y0120966D01*
X0120594Y0121003D01*
X0120549Y0121043D01*
X0120508Y0121086D01*
X0120469Y0121132D01*
X0120434Y0121180D01*
X0120402Y0121230D01*
X0120373Y0121283D01*
X0120348Y0121337D01*
X0120326Y0121393D01*
X0120309Y0121450D01*
X0120295Y0121508D01*
X0120285Y0121567D01*
X0120279Y0121626D01*
X0120277Y0121686D01*
X0078677Y0127024D02*
X0074346Y0127024D01*
X0074346Y0128362D02*
X0077496Y0128362D01*
X0077496Y0137024D01*
X0074346Y0137024D01*
X0074346Y0138362D02*
X0078677Y0138362D01*
X0078677Y0127024D01*
X0074332Y0134875D02*
X0074334Y0134935D01*
X0074340Y0134994D01*
X0074350Y0135053D01*
X0074364Y0135111D01*
X0074381Y0135168D01*
X0074403Y0135224D01*
X0074428Y0135278D01*
X0074457Y0135331D01*
X0074489Y0135381D01*
X0074524Y0135429D01*
X0074563Y0135475D01*
X0074604Y0135518D01*
X0074649Y0135558D01*
X0074696Y0135595D01*
X0074745Y0135629D01*
X0074796Y0135659D01*
X0074850Y0135686D01*
X0074905Y0135709D01*
X0074961Y0135729D01*
X0075019Y0135745D01*
X0075077Y0135757D01*
X0075137Y0135765D01*
X0075196Y0135769D01*
X0075256Y0135769D01*
X0075315Y0135765D01*
X0075375Y0135757D01*
X0075433Y0135745D01*
X0075491Y0135729D01*
X0075547Y0135709D01*
X0075602Y0135686D01*
X0075656Y0135659D01*
X0075707Y0135629D01*
X0075756Y0135595D01*
X0075803Y0135558D01*
X0075848Y0135518D01*
X0075889Y0135475D01*
X0075928Y0135429D01*
X0075963Y0135381D01*
X0075995Y0135331D01*
X0076024Y0135278D01*
X0076049Y0135224D01*
X0076071Y0135168D01*
X0076088Y0135111D01*
X0076102Y0135053D01*
X0076112Y0134994D01*
X0076118Y0134935D01*
X0076120Y0134875D01*
X0076118Y0134815D01*
X0076112Y0134756D01*
X0076102Y0134697D01*
X0076088Y0134639D01*
X0076071Y0134582D01*
X0076049Y0134526D01*
X0076024Y0134472D01*
X0075995Y0134419D01*
X0075963Y0134369D01*
X0075928Y0134321D01*
X0075889Y0134275D01*
X0075848Y0134232D01*
X0075803Y0134192D01*
X0075756Y0134155D01*
X0075707Y0134121D01*
X0075656Y0134091D01*
X0075602Y0134064D01*
X0075547Y0134041D01*
X0075491Y0134021D01*
X0075433Y0134005D01*
X0075375Y0133993D01*
X0075315Y0133985D01*
X0075256Y0133981D01*
X0075196Y0133981D01*
X0075137Y0133985D01*
X0075077Y0133993D01*
X0075019Y0134005D01*
X0074961Y0134021D01*
X0074905Y0134041D01*
X0074850Y0134064D01*
X0074796Y0134091D01*
X0074745Y0134121D01*
X0074696Y0134155D01*
X0074649Y0134192D01*
X0074604Y0134232D01*
X0074563Y0134275D01*
X0074524Y0134321D01*
X0074489Y0134369D01*
X0074457Y0134419D01*
X0074428Y0134472D01*
X0074403Y0134526D01*
X0074381Y0134582D01*
X0074364Y0134639D01*
X0074350Y0134697D01*
X0074340Y0134756D01*
X0074334Y0134815D01*
X0074332Y0134875D01*
X0064898Y0137024D02*
X0061748Y0137024D01*
X0061748Y0128362D01*
X0064898Y0128362D01*
X0064898Y0127024D02*
X0060567Y0127024D01*
X0060567Y0138362D01*
X0064898Y0138362D01*
D11*
X0080218Y0126731D02*
X0081747Y0124933D01*
X0079949Y0124933D01*
X0081747Y0127450D02*
X0081726Y0127509D01*
X0081702Y0127566D01*
X0081674Y0127622D01*
X0081643Y0127676D01*
X0081609Y0127728D01*
X0081572Y0127778D01*
X0081531Y0127825D01*
X0081488Y0127870D01*
X0081443Y0127913D01*
X0081395Y0127952D01*
X0081344Y0127989D01*
X0081292Y0128023D01*
X0081237Y0128053D01*
X0081181Y0128080D01*
X0081124Y0128104D01*
X0081065Y0128124D01*
X0081005Y0128140D01*
X0080944Y0128153D01*
X0080882Y0128163D01*
X0080820Y0128168D01*
X0080758Y0128170D01*
X0080758Y0128169D02*
X0080703Y0128167D01*
X0080648Y0128161D01*
X0080593Y0128152D01*
X0080540Y0128139D01*
X0080487Y0128122D01*
X0080436Y0128102D01*
X0080386Y0128078D01*
X0080338Y0128051D01*
X0080291Y0128021D01*
X0080247Y0127988D01*
X0080206Y0127951D01*
X0080167Y0127912D01*
X0080130Y0127871D01*
X0080097Y0127827D01*
X0080067Y0127780D01*
X0080040Y0127732D01*
X0080016Y0127682D01*
X0079996Y0127631D01*
X0079979Y0127578D01*
X0079966Y0127525D01*
X0079957Y0127470D01*
X0079951Y0127415D01*
X0079949Y0127360D01*
X0079951Y0127301D01*
X0079957Y0127243D01*
X0079967Y0127185D01*
X0079980Y0127128D01*
X0079998Y0127072D01*
X0080019Y0127018D01*
X0080044Y0126965D01*
X0080073Y0126913D01*
X0080104Y0126864D01*
X0080139Y0126817D01*
X0080178Y0126773D01*
X0080219Y0126731D01*
X0083587Y0125652D02*
X0083587Y0128170D01*
X0083587Y0125652D02*
X0083589Y0125601D01*
X0083594Y0125550D01*
X0083603Y0125499D01*
X0083616Y0125449D01*
X0083632Y0125401D01*
X0083652Y0125353D01*
X0083675Y0125307D01*
X0083701Y0125263D01*
X0083730Y0125221D01*
X0083763Y0125181D01*
X0083798Y0125144D01*
X0083835Y0125109D01*
X0083875Y0125076D01*
X0083917Y0125047D01*
X0083961Y0125021D01*
X0084007Y0124998D01*
X0084055Y0124978D01*
X0084103Y0124962D01*
X0084153Y0124949D01*
X0084204Y0124940D01*
X0084255Y0124935D01*
X0084306Y0124933D01*
X0084666Y0124933D01*
X0081556Y0119154D02*
X0081556Y0116816D01*
X0081555Y0116816D02*
X0081553Y0116757D01*
X0081547Y0116699D01*
X0081538Y0116641D01*
X0081524Y0116583D01*
X0081507Y0116527D01*
X0081487Y0116472D01*
X0081462Y0116418D01*
X0081435Y0116367D01*
X0081403Y0116317D01*
X0081369Y0116269D01*
X0081332Y0116223D01*
X0081292Y0116180D01*
X0081249Y0116140D01*
X0081203Y0116103D01*
X0081155Y0116069D01*
X0081106Y0116037D01*
X0081054Y0116010D01*
X0081000Y0115985D01*
X0080945Y0115965D01*
X0080889Y0115948D01*
X0080831Y0115934D01*
X0080773Y0115925D01*
X0080715Y0115919D01*
X0080656Y0115917D01*
X0080597Y0115919D01*
X0080539Y0115925D01*
X0080481Y0115934D01*
X0080423Y0115948D01*
X0080367Y0115965D01*
X0080312Y0115985D01*
X0080258Y0116010D01*
X0080207Y0116037D01*
X0080157Y0116069D01*
X0080109Y0116103D01*
X0080063Y0116140D01*
X0080020Y0116180D01*
X0079980Y0116223D01*
X0079943Y0116269D01*
X0079909Y0116317D01*
X0079877Y0116367D01*
X0079850Y0116418D01*
X0079825Y0116472D01*
X0079805Y0116527D01*
X0079788Y0116583D01*
X0079774Y0116641D01*
X0079765Y0116699D01*
X0079759Y0116757D01*
X0079757Y0116816D01*
X0079757Y0119154D01*
X0076366Y0117716D02*
X0076325Y0117758D01*
X0076286Y0117802D01*
X0076251Y0117849D01*
X0076220Y0117898D01*
X0076191Y0117950D01*
X0076166Y0118003D01*
X0076145Y0118057D01*
X0076127Y0118113D01*
X0076114Y0118170D01*
X0076104Y0118228D01*
X0076098Y0118286D01*
X0076096Y0118345D01*
X0076366Y0117715D02*
X0077894Y0115917D01*
X0076096Y0115917D01*
X0077894Y0118434D02*
X0077873Y0118493D01*
X0077849Y0118550D01*
X0077821Y0118606D01*
X0077790Y0118660D01*
X0077756Y0118712D01*
X0077719Y0118762D01*
X0077678Y0118809D01*
X0077635Y0118854D01*
X0077590Y0118897D01*
X0077542Y0118936D01*
X0077491Y0118973D01*
X0077439Y0119007D01*
X0077384Y0119037D01*
X0077328Y0119064D01*
X0077271Y0119088D01*
X0077212Y0119108D01*
X0077152Y0119124D01*
X0077091Y0119137D01*
X0077029Y0119147D01*
X0076967Y0119152D01*
X0076905Y0119154D01*
X0076850Y0119152D01*
X0076795Y0119146D01*
X0076740Y0119137D01*
X0076687Y0119124D01*
X0076634Y0119107D01*
X0076583Y0119087D01*
X0076533Y0119063D01*
X0076485Y0119036D01*
X0076438Y0119006D01*
X0076394Y0118973D01*
X0076353Y0118936D01*
X0076314Y0118897D01*
X0076277Y0118856D01*
X0076244Y0118812D01*
X0076214Y0118765D01*
X0076187Y0118717D01*
X0076163Y0118667D01*
X0076143Y0118616D01*
X0076126Y0118563D01*
X0076113Y0118510D01*
X0076104Y0118455D01*
X0076098Y0118400D01*
X0076096Y0118345D01*
X0071272Y0112630D02*
X0071272Y0110832D01*
X0069833Y0110832D01*
X0069833Y0111911D01*
X0069831Y0111962D01*
X0069826Y0112013D01*
X0069817Y0112064D01*
X0069804Y0112114D01*
X0069788Y0112162D01*
X0069768Y0112210D01*
X0069745Y0112256D01*
X0069719Y0112300D01*
X0069690Y0112342D01*
X0069657Y0112382D01*
X0069622Y0112419D01*
X0069585Y0112454D01*
X0069545Y0112487D01*
X0069503Y0112516D01*
X0069459Y0112542D01*
X0069413Y0112565D01*
X0069365Y0112585D01*
X0069317Y0112601D01*
X0069267Y0112614D01*
X0069216Y0112623D01*
X0069165Y0112628D01*
X0069114Y0112630D01*
X0068754Y0112630D01*
X0068703Y0112628D01*
X0068652Y0112623D01*
X0068601Y0112614D01*
X0068551Y0112601D01*
X0068503Y0112585D01*
X0068455Y0112565D01*
X0068409Y0112542D01*
X0068365Y0112516D01*
X0068323Y0112487D01*
X0068283Y0112454D01*
X0068246Y0112419D01*
X0068211Y0112382D01*
X0068178Y0112342D01*
X0068149Y0112300D01*
X0068123Y0112256D01*
X0068100Y0112210D01*
X0068080Y0112162D01*
X0068064Y0112114D01*
X0068051Y0112064D01*
X0068042Y0112013D01*
X0068037Y0111962D01*
X0068035Y0111911D01*
X0068035Y0110832D01*
X0068035Y0109301D02*
X0068035Y0108582D01*
X0068037Y0108531D01*
X0068042Y0108480D01*
X0068051Y0108429D01*
X0068064Y0108379D01*
X0068080Y0108331D01*
X0068100Y0108283D01*
X0068123Y0108237D01*
X0068149Y0108193D01*
X0068178Y0108151D01*
X0068211Y0108111D01*
X0068246Y0108074D01*
X0068283Y0108039D01*
X0068323Y0108006D01*
X0068365Y0107977D01*
X0068409Y0107951D01*
X0068455Y0107928D01*
X0068503Y0107908D01*
X0068551Y0107892D01*
X0068601Y0107879D01*
X0068652Y0107870D01*
X0068703Y0107865D01*
X0068754Y0107863D01*
X0070553Y0107863D01*
X0070604Y0107865D01*
X0070655Y0107870D01*
X0070706Y0107879D01*
X0070756Y0107892D01*
X0070804Y0107908D01*
X0070852Y0107928D01*
X0070898Y0107951D01*
X0070942Y0107977D01*
X0070984Y0108006D01*
X0071024Y0108039D01*
X0071061Y0108074D01*
X0071096Y0108111D01*
X0071129Y0108151D01*
X0071158Y0108193D01*
X0071184Y0108237D01*
X0071207Y0108283D01*
X0071227Y0108331D01*
X0071243Y0108379D01*
X0071256Y0108429D01*
X0071265Y0108480D01*
X0071270Y0108531D01*
X0071272Y0108582D01*
X0071272Y0109301D01*
X0112681Y0109999D02*
X0113401Y0109999D01*
X0112681Y0109999D02*
X0112629Y0110001D01*
X0112576Y0110007D01*
X0112525Y0110016D01*
X0112474Y0110029D01*
X0112424Y0110046D01*
X0112376Y0110067D01*
X0112329Y0110091D01*
X0112284Y0110118D01*
X0112242Y0110149D01*
X0112201Y0110183D01*
X0112163Y0110219D01*
X0112128Y0110258D01*
X0112096Y0110300D01*
X0112067Y0110343D01*
X0112042Y0110389D01*
X0112019Y0110437D01*
X0112001Y0110486D01*
X0111985Y0110536D01*
X0111974Y0110587D01*
X0111966Y0110639D01*
X0111962Y0110692D01*
X0111962Y0110744D01*
X0111966Y0110797D01*
X0111974Y0110849D01*
X0111985Y0110900D01*
X0112001Y0110950D01*
X0112019Y0110999D01*
X0112042Y0111047D01*
X0112067Y0111093D01*
X0112096Y0111136D01*
X0112128Y0111178D01*
X0112163Y0111217D01*
X0112201Y0111253D01*
X0112242Y0111287D01*
X0112284Y0111318D01*
X0112329Y0111345D01*
X0112376Y0111369D01*
X0112424Y0111390D01*
X0112474Y0111407D01*
X0112525Y0111420D01*
X0112576Y0111429D01*
X0112629Y0111435D01*
X0112681Y0111437D01*
X0113760Y0111437D01*
X0115623Y0111437D02*
X0115623Y0109100D01*
X0115625Y0109041D01*
X0115631Y0108983D01*
X0115640Y0108925D01*
X0115654Y0108867D01*
X0115671Y0108811D01*
X0115691Y0108756D01*
X0115716Y0108702D01*
X0115743Y0108651D01*
X0115775Y0108601D01*
X0115809Y0108553D01*
X0115846Y0108507D01*
X0115886Y0108464D01*
X0115929Y0108424D01*
X0115975Y0108387D01*
X0116023Y0108353D01*
X0116073Y0108321D01*
X0116124Y0108294D01*
X0116178Y0108269D01*
X0116233Y0108249D01*
X0116289Y0108232D01*
X0116347Y0108218D01*
X0116405Y0108209D01*
X0116463Y0108203D01*
X0116522Y0108201D01*
X0116581Y0108203D01*
X0116639Y0108209D01*
X0116697Y0108218D01*
X0116755Y0108232D01*
X0116811Y0108249D01*
X0116866Y0108269D01*
X0116920Y0108294D01*
X0116972Y0108321D01*
X0117021Y0108353D01*
X0117069Y0108387D01*
X0117115Y0108424D01*
X0117158Y0108464D01*
X0117198Y0108507D01*
X0117235Y0108553D01*
X0117269Y0108601D01*
X0117301Y0108651D01*
X0117328Y0108702D01*
X0117353Y0108756D01*
X0117373Y0108811D01*
X0117390Y0108867D01*
X0117404Y0108925D01*
X0117413Y0108983D01*
X0117419Y0109041D01*
X0117421Y0109100D01*
X0117422Y0109100D02*
X0117422Y0111437D01*
X0119988Y0109381D02*
X0121786Y0109381D01*
X0120887Y0109381D02*
X0120887Y0112619D01*
X0121786Y0111899D01*
X0123626Y0112619D02*
X0123626Y0110101D01*
X0123628Y0110050D01*
X0123633Y0109999D01*
X0123642Y0109948D01*
X0123655Y0109898D01*
X0123671Y0109850D01*
X0123691Y0109802D01*
X0123714Y0109756D01*
X0123740Y0109712D01*
X0123769Y0109670D01*
X0123802Y0109630D01*
X0123837Y0109593D01*
X0123874Y0109558D01*
X0123914Y0109525D01*
X0123956Y0109496D01*
X0124000Y0109470D01*
X0124046Y0109447D01*
X0124094Y0109427D01*
X0124142Y0109411D01*
X0124192Y0109398D01*
X0124243Y0109389D01*
X0124294Y0109384D01*
X0124345Y0109382D01*
X0124345Y0109381D02*
X0124705Y0109381D01*
X0122158Y0105130D02*
X0121439Y0105130D01*
X0122158Y0105130D02*
X0122209Y0105128D01*
X0122260Y0105123D01*
X0122311Y0105114D01*
X0122361Y0105101D01*
X0122409Y0105085D01*
X0122457Y0105065D01*
X0122503Y0105042D01*
X0122547Y0105016D01*
X0122589Y0104987D01*
X0122629Y0104954D01*
X0122666Y0104919D01*
X0122701Y0104882D01*
X0122734Y0104842D01*
X0122763Y0104800D01*
X0122789Y0104756D01*
X0122812Y0104710D01*
X0122832Y0104662D01*
X0122848Y0104614D01*
X0122861Y0104564D01*
X0122870Y0104513D01*
X0122875Y0104462D01*
X0122877Y0104411D01*
X0122878Y0104411D02*
X0122878Y0102613D01*
X0122877Y0102613D02*
X0122875Y0102562D01*
X0122870Y0102511D01*
X0122861Y0102460D01*
X0122848Y0102410D01*
X0122832Y0102362D01*
X0122812Y0102314D01*
X0122789Y0102268D01*
X0122763Y0102224D01*
X0122734Y0102182D01*
X0122701Y0102142D01*
X0122666Y0102105D01*
X0122629Y0102070D01*
X0122589Y0102037D01*
X0122547Y0102008D01*
X0122503Y0101982D01*
X0122457Y0101959D01*
X0122409Y0101939D01*
X0122361Y0101923D01*
X0122311Y0101910D01*
X0122260Y0101901D01*
X0122209Y0101896D01*
X0122158Y0101894D01*
X0122158Y0101893D02*
X0121439Y0101893D01*
X0119908Y0102613D02*
X0118110Y0102613D01*
X0118649Y0103332D02*
X0118649Y0101893D01*
X0119908Y0102613D02*
X0119189Y0105130D01*
X0113760Y0108200D02*
X0112861Y0108200D01*
X0112861Y0108201D02*
X0112802Y0108203D01*
X0112744Y0108209D01*
X0112686Y0108218D01*
X0112628Y0108232D01*
X0112572Y0108249D01*
X0112517Y0108269D01*
X0112463Y0108294D01*
X0112412Y0108321D01*
X0112362Y0108353D01*
X0112314Y0108387D01*
X0112268Y0108424D01*
X0112225Y0108464D01*
X0112185Y0108507D01*
X0112148Y0108553D01*
X0112114Y0108601D01*
X0112082Y0108651D01*
X0112055Y0108702D01*
X0112030Y0108756D01*
X0112010Y0108811D01*
X0111993Y0108867D01*
X0111979Y0108925D01*
X0111970Y0108983D01*
X0111964Y0109041D01*
X0111962Y0109100D01*
X0111964Y0109159D01*
X0111970Y0109217D01*
X0111979Y0109275D01*
X0111993Y0109333D01*
X0112010Y0109389D01*
X0112030Y0109444D01*
X0112055Y0109498D01*
X0112082Y0109550D01*
X0112114Y0109599D01*
X0112148Y0109647D01*
X0112185Y0109693D01*
X0112225Y0109736D01*
X0112268Y0109776D01*
X0112314Y0109813D01*
X0112362Y0109847D01*
X0112412Y0109879D01*
X0112463Y0109906D01*
X0112517Y0109931D01*
X0112572Y0109951D01*
X0112628Y0109968D01*
X0112686Y0109982D01*
X0112744Y0109991D01*
X0112802Y0109997D01*
X0112861Y0109999D01*
M02*
