%
M48
M72
T01C0.01181
%
T01
X110449Y160449
X115961Y160055
X122260Y160055
X128559Y160449
X136827Y160055
X141945Y160055
X147850Y160055
X152969Y160449
X156906Y171472
X147063Y185252
X142339Y184465
X137220Y184465
X132496Y184071
X127378Y184465
X122260Y184465
X111236Y172260
X106512Y201394
X95488Y205331
X95094Y210449
X95094Y216354
X95094Y221472
X95488Y229740
X95094Y236039
X95094Y242339
X95488Y247850
X107299Y247063
X119504Y236039
X119504Y230921
X119110Y225803
X119504Y221079
X119504Y215961
X120291Y211236
X141157Y209661
X146669Y215961
X151000Y210055
X173047Y212024
X173835Y207299
X173835Y202181
X174228Y197457
X173835Y192339
X173835Y187220
X186039Y176197
X197850Y175409
X198244Y180921
X198244Y187220
X197850Y193520
X198244Y201787
X198244Y206906
X198244Y212811
X197850Y217929
X186827Y221866
X171079Y238795
X165961Y238795
X160843Y239189
X156118Y238795
X151000Y238795
X146276Y238008
X136433Y251787
X140370Y262811
X145488Y263205
X151394Y263205
X156512Y263205
X164780Y262811
X171079Y263205
X177378Y263205
X182890Y262811
X182102Y251000
X216354Y236433
X216354Y226591
X216354Y216748
X216354Y206512
X226591Y197850
X230528Y206512
X228165Y211630
X230528Y216748
X228165Y221472
X230528Y226591
X228165Y231709
X230528Y236433
X242339Y231709
X242339Y221866
X242339Y211630
X242339Y201787
X227064Y185646
M30
