G75*
%MOIN*%
%OFA0B0*%
%FSLAX24Y24*%
%IPPOS*%
%LPD*%
%AMOC8*
5,1,8,0,0,1.08239X$1,22.5*
%
%ADD10C,0.0050*%
%ADD11C,0.0060*%
%ADD12C,0.0070*%
D10*
X003443Y004071D02*
X004577Y004071D01*
X004577Y004504D01*
X004682Y004577D02*
X005115Y004577D01*
X005115Y004443D02*
X004800Y004443D01*
X004800Y003577D01*
X005115Y003577D01*
X005115Y003443D02*
X004682Y003443D01*
X004682Y004577D01*
X004443Y004504D02*
X004443Y004189D01*
X003577Y004189D01*
X003577Y004504D01*
X003443Y004504D02*
X003443Y004071D01*
X004938Y003792D02*
X004940Y003811D01*
X004946Y003828D01*
X004955Y003844D01*
X004967Y003858D01*
X004982Y003869D01*
X004999Y003877D01*
X005018Y003881D01*
X005036Y003881D01*
X005055Y003877D01*
X005071Y003869D01*
X005087Y003858D01*
X005099Y003844D01*
X005108Y003828D01*
X005114Y003811D01*
X005116Y003792D01*
X005114Y003773D01*
X005108Y003756D01*
X005099Y003740D01*
X005087Y003726D01*
X005072Y003715D01*
X005055Y003707D01*
X005036Y003703D01*
X005018Y003703D01*
X004999Y003707D01*
X004983Y003715D01*
X004967Y003726D01*
X004955Y003740D01*
X004946Y003756D01*
X004940Y003773D01*
X004938Y003792D01*
X005750Y005710D02*
X005750Y006150D01*
X006590Y006150D01*
X006590Y005710D01*
X005750Y005710D01*
X004577Y006236D02*
X004577Y006669D01*
X003443Y006669D01*
X003443Y006236D01*
X003577Y006236D02*
X003577Y006551D01*
X004443Y006551D01*
X004443Y006236D01*
X003703Y006324D02*
X003705Y006343D01*
X003711Y006360D01*
X003720Y006376D01*
X003732Y006390D01*
X003747Y006401D01*
X003764Y006409D01*
X003783Y006413D01*
X003801Y006413D01*
X003820Y006409D01*
X003836Y006401D01*
X003852Y006390D01*
X003864Y006376D01*
X003873Y006360D01*
X003879Y006343D01*
X003881Y006324D01*
X003879Y006305D01*
X003873Y006288D01*
X003864Y006272D01*
X003852Y006258D01*
X003837Y006247D01*
X003820Y006239D01*
X003801Y006235D01*
X003783Y006235D01*
X003764Y006239D01*
X003748Y006247D01*
X003732Y006258D01*
X003720Y006272D01*
X003711Y006288D01*
X003705Y006305D01*
X003703Y006324D01*
X003443Y007082D02*
X004577Y007082D01*
X004577Y007515D01*
X004443Y007515D02*
X004443Y007200D01*
X003577Y007200D01*
X003577Y007515D01*
X003443Y007515D02*
X003443Y007082D01*
X004990Y009310D02*
X005310Y009310D01*
X005310Y009950D01*
X004990Y009950D01*
X004990Y009310D01*
X005370Y009310D02*
X005690Y009310D01*
X005690Y009950D01*
X005370Y009950D01*
X005370Y009310D01*
X005750Y009310D02*
X006070Y009310D01*
X006070Y009950D01*
X005750Y009950D01*
X005750Y009310D01*
X006330Y009890D02*
X009770Y009890D01*
X009770Y012530D01*
X006330Y012530D01*
X006330Y009890D01*
X006550Y009830D02*
X006550Y009510D01*
X007190Y009510D01*
X007190Y009830D01*
X006550Y009830D01*
X008530Y008410D02*
X011970Y008410D01*
X011970Y005770D01*
X008530Y005770D01*
X008530Y008410D01*
X011530Y008510D02*
X011530Y008830D01*
X012170Y008830D01*
X012170Y008510D01*
X011530Y008510D01*
X013723Y010785D02*
X013723Y011218D01*
X014857Y011218D01*
X014857Y010785D01*
X014723Y010785D02*
X014723Y011100D01*
X013857Y011100D01*
X013857Y010785D01*
X013618Y013723D02*
X013185Y013723D01*
X013185Y013857D02*
X013500Y013857D01*
X013500Y014723D01*
X013185Y014723D01*
X013185Y014857D02*
X013618Y014857D01*
X013618Y013723D01*
X013184Y014508D02*
X013186Y014527D01*
X013192Y014544D01*
X013201Y014560D01*
X013213Y014574D01*
X013228Y014585D01*
X013245Y014593D01*
X013264Y014597D01*
X013282Y014597D01*
X013301Y014593D01*
X013317Y014585D01*
X013333Y014574D01*
X013345Y014560D01*
X013354Y014544D01*
X013360Y014527D01*
X013362Y014508D01*
X013360Y014489D01*
X013354Y014472D01*
X013345Y014456D01*
X013333Y014442D01*
X013318Y014431D01*
X013301Y014423D01*
X013282Y014419D01*
X013264Y014419D01*
X013245Y014423D01*
X013229Y014431D01*
X013213Y014442D01*
X013201Y014456D01*
X013192Y014472D01*
X013186Y014489D01*
X013184Y014508D01*
X007515Y014723D02*
X007200Y014723D01*
X007200Y013857D01*
X007515Y013857D01*
X007515Y013723D02*
X007082Y013723D01*
X007082Y014857D01*
X007515Y014857D01*
X006669Y014857D02*
X006236Y014857D01*
X006236Y014723D02*
X006551Y014723D01*
X006551Y013857D01*
X006236Y013857D01*
X006236Y013723D02*
X006669Y013723D01*
X006669Y014857D01*
X006235Y014508D02*
X006237Y014527D01*
X006243Y014544D01*
X006252Y014560D01*
X006264Y014574D01*
X006279Y014585D01*
X006296Y014593D01*
X006315Y014597D01*
X006333Y014597D01*
X006352Y014593D01*
X006368Y014585D01*
X006384Y014574D01*
X006396Y014560D01*
X006405Y014544D01*
X006411Y014527D01*
X006413Y014508D01*
X006411Y014489D01*
X006405Y014472D01*
X006396Y014456D01*
X006384Y014442D01*
X006369Y014431D01*
X006352Y014423D01*
X006333Y014419D01*
X006315Y014419D01*
X006296Y014423D01*
X006280Y014431D01*
X006264Y014442D01*
X006252Y014456D01*
X006243Y014472D01*
X006237Y014489D01*
X006235Y014508D01*
X004577Y013618D02*
X004577Y013185D01*
X004443Y013185D02*
X004443Y013500D01*
X003577Y013500D01*
X003577Y013185D01*
X003443Y013185D02*
X003443Y013618D01*
X004577Y013618D01*
X004504Y013723D02*
X004071Y013723D01*
X004071Y014857D01*
X004504Y014857D01*
X004504Y014723D02*
X004189Y014723D01*
X004189Y013857D01*
X004504Y013857D01*
X003703Y013273D02*
X003705Y013292D01*
X003711Y013309D01*
X003720Y013325D01*
X003732Y013339D01*
X003747Y013350D01*
X003764Y013358D01*
X003783Y013362D01*
X003801Y013362D01*
X003820Y013358D01*
X003836Y013350D01*
X003852Y013339D01*
X003864Y013325D01*
X003873Y013309D01*
X003879Y013292D01*
X003881Y013273D01*
X003879Y013254D01*
X003873Y013237D01*
X003864Y013221D01*
X003852Y013207D01*
X003837Y013196D01*
X003820Y013188D01*
X003801Y013184D01*
X003783Y013184D01*
X003764Y013188D01*
X003748Y013196D01*
X003732Y013207D01*
X003720Y013221D01*
X003711Y013237D01*
X003705Y013254D01*
X003703Y013273D01*
X010785Y004577D02*
X011218Y004577D01*
X011218Y003443D01*
X010785Y003443D01*
X010785Y003577D02*
X011100Y003577D01*
X011100Y004443D01*
X010785Y004443D01*
X011631Y004577D02*
X012064Y004577D01*
X012064Y004443D02*
X011749Y004443D01*
X011749Y003577D01*
X012064Y003577D01*
X012064Y003443D02*
X011631Y003443D01*
X011631Y004577D01*
X011887Y003792D02*
X011889Y003811D01*
X011895Y003828D01*
X011904Y003844D01*
X011916Y003858D01*
X011931Y003869D01*
X011948Y003877D01*
X011967Y003881D01*
X011985Y003881D01*
X012004Y003877D01*
X012020Y003869D01*
X012036Y003858D01*
X012048Y003844D01*
X012057Y003828D01*
X012063Y003811D01*
X012065Y003792D01*
X012063Y003773D01*
X012057Y003756D01*
X012048Y003740D01*
X012036Y003726D01*
X012021Y003715D01*
X012004Y003707D01*
X011985Y003703D01*
X011967Y003703D01*
X011948Y003707D01*
X011932Y003715D01*
X011916Y003726D01*
X011904Y003740D01*
X011895Y003756D01*
X011889Y003773D01*
X011887Y003792D01*
X013723Y004682D02*
X013723Y005115D01*
X013857Y005115D02*
X013857Y004800D01*
X014723Y004800D01*
X014723Y005115D01*
X014857Y005115D02*
X014857Y004682D01*
X013723Y004682D01*
X013796Y004577D02*
X014229Y004577D01*
X014229Y003443D01*
X013796Y003443D01*
X013796Y003577D02*
X014111Y003577D01*
X014111Y004443D01*
X013796Y004443D01*
X014419Y005027D02*
X014421Y005046D01*
X014427Y005063D01*
X014436Y005079D01*
X014448Y005093D01*
X014463Y005104D01*
X014480Y005112D01*
X014499Y005116D01*
X014517Y005116D01*
X014536Y005112D01*
X014552Y005104D01*
X014568Y005093D01*
X014580Y005079D01*
X014589Y005063D01*
X014595Y005046D01*
X014597Y005027D01*
X014595Y005008D01*
X014589Y004991D01*
X014580Y004975D01*
X014568Y004961D01*
X014553Y004950D01*
X014536Y004942D01*
X014517Y004938D01*
X014499Y004938D01*
X014480Y004942D01*
X014464Y004950D01*
X014448Y004961D01*
X014436Y004975D01*
X014427Y004991D01*
X014421Y005008D01*
X014419Y005027D01*
D11*
X012193Y005360D02*
X012193Y005533D01*
X012107Y005620D01*
X012020Y005533D01*
X012020Y005360D01*
X011899Y005360D02*
X011899Y005620D01*
X011812Y005533D01*
X011725Y005620D01*
X011725Y005360D01*
X011604Y005360D02*
X011604Y005620D01*
X011474Y005620D01*
X011430Y005577D01*
X011430Y005490D01*
X011474Y005447D01*
X011604Y005447D01*
X011309Y005317D02*
X011136Y005317D01*
X011015Y005360D02*
X010885Y005360D01*
X010841Y005403D01*
X010841Y005447D01*
X010885Y005490D01*
X011015Y005490D01*
X011015Y005360D02*
X011015Y005620D01*
X010885Y005620D01*
X010841Y005577D01*
X010841Y005533D01*
X010885Y005490D01*
X010383Y005447D02*
X010252Y005447D01*
X010209Y005490D01*
X010209Y005577D01*
X010252Y005620D01*
X010383Y005620D01*
X010383Y005360D01*
X010296Y005447D02*
X010209Y005360D01*
X010088Y005360D02*
X010088Y005620D01*
X010088Y005490D02*
X009914Y005490D01*
X009914Y005620D02*
X009914Y005360D01*
X009793Y005360D02*
X009793Y005620D01*
X009663Y005620D01*
X009620Y005577D01*
X009620Y005403D01*
X009663Y005360D01*
X009793Y005360D01*
X009499Y005360D02*
X009325Y005533D01*
X009325Y005577D01*
X009368Y005620D01*
X009455Y005620D01*
X009499Y005577D01*
X009499Y005360D02*
X009325Y005360D01*
X009204Y005360D02*
X009030Y005360D01*
X009117Y005360D02*
X009117Y005620D01*
X009204Y005533D01*
X008909Y005490D02*
X008909Y005403D01*
X008866Y005360D01*
X008779Y005360D01*
X008736Y005403D01*
X008736Y005447D01*
X008779Y005490D01*
X008909Y005490D01*
X008823Y005577D01*
X008736Y005620D01*
X008615Y005490D02*
X008441Y005490D01*
X008485Y005360D02*
X008485Y005620D01*
X008615Y005490D01*
X007590Y006920D02*
X007590Y008420D01*
X005590Y008420D01*
X005590Y006920D01*
X007590Y006920D01*
X007050Y007248D02*
X007052Y007274D01*
X007058Y007300D01*
X007067Y007325D01*
X007080Y007348D01*
X007096Y007369D01*
X007115Y007387D01*
X007137Y007403D01*
X007160Y007415D01*
X007185Y007423D01*
X007211Y007428D01*
X007238Y007429D01*
X007264Y007426D01*
X007289Y007419D01*
X007314Y007409D01*
X007336Y007395D01*
X007357Y007378D01*
X007374Y007359D01*
X007389Y007337D01*
X007400Y007313D01*
X007408Y007287D01*
X007412Y007261D01*
X007412Y007235D01*
X007408Y007209D01*
X007400Y007183D01*
X007389Y007159D01*
X007374Y007137D01*
X007357Y007118D01*
X007336Y007101D01*
X007314Y007087D01*
X007289Y007077D01*
X007264Y007070D01*
X007238Y007067D01*
X007211Y007068D01*
X007185Y007073D01*
X007160Y007081D01*
X007137Y007093D01*
X007115Y007109D01*
X007096Y007127D01*
X007080Y007148D01*
X007067Y007171D01*
X007058Y007196D01*
X007052Y007222D01*
X007050Y007248D01*
X007780Y007523D02*
X007823Y007480D01*
X008040Y007480D01*
X008040Y007653D02*
X007823Y007653D01*
X007780Y007610D01*
X007780Y007523D01*
X007780Y007775D02*
X007953Y007948D01*
X007997Y007948D01*
X008040Y007905D01*
X008040Y007818D01*
X007997Y007775D01*
X007780Y007775D02*
X007780Y007948D01*
X007747Y009180D02*
X007920Y009180D01*
X007833Y009180D02*
X007833Y009440D01*
X007920Y009353D01*
X007777Y009580D02*
X007690Y009580D01*
X007647Y009623D01*
X007525Y009580D02*
X007352Y009580D01*
X007439Y009580D02*
X007439Y009840D01*
X007525Y009753D01*
X007647Y009797D02*
X007690Y009840D01*
X007777Y009840D01*
X007820Y009797D01*
X007820Y009623D01*
X007777Y009580D01*
X007625Y009397D02*
X007582Y009440D01*
X007495Y009440D01*
X007452Y009397D01*
X007625Y009223D01*
X007582Y009180D01*
X007495Y009180D01*
X007452Y009223D01*
X007452Y009397D01*
X007331Y009353D02*
X007201Y009353D01*
X007157Y009310D01*
X007157Y009180D01*
X007331Y009180D02*
X007331Y009353D01*
X007625Y009397D02*
X007625Y009223D01*
X006040Y010280D02*
X006040Y010410D01*
X005997Y010453D01*
X005910Y010453D01*
X005867Y010410D01*
X005867Y010280D01*
X005867Y010367D02*
X005780Y010453D01*
X005823Y010575D02*
X005780Y010618D01*
X005780Y010705D01*
X005823Y010748D01*
X005867Y010748D01*
X005910Y010705D01*
X005910Y010575D01*
X005823Y010575D01*
X005910Y010575D02*
X005997Y010661D01*
X006040Y010748D01*
X006049Y010860D02*
X005876Y010860D01*
X005963Y010860D02*
X005963Y011120D01*
X006049Y011033D01*
X005755Y011077D02*
X005755Y010903D01*
X005581Y011077D01*
X005581Y010903D01*
X005625Y010860D01*
X005711Y010860D01*
X005755Y010903D01*
X005755Y011077D02*
X005711Y011120D01*
X005625Y011120D01*
X005581Y011077D01*
X005460Y011077D02*
X005460Y010903D01*
X005287Y011077D01*
X005287Y010903D01*
X005330Y010860D01*
X005417Y010860D01*
X005460Y010903D01*
X005460Y011077D02*
X005417Y011120D01*
X005330Y011120D01*
X005287Y011077D01*
X005166Y011120D02*
X005166Y010860D01*
X005166Y010947D02*
X005035Y011033D01*
X005166Y010947D02*
X005035Y010860D01*
X005023Y010748D02*
X004980Y010705D01*
X004980Y010618D01*
X005023Y010575D01*
X005110Y010575D02*
X005153Y010661D01*
X005153Y010705D01*
X005110Y010748D01*
X005023Y010748D01*
X005110Y010575D02*
X005240Y010575D01*
X005240Y010748D01*
X005380Y010575D02*
X005423Y010575D01*
X005597Y010748D01*
X005640Y010748D01*
X005640Y010575D01*
X005597Y010453D02*
X005510Y010453D01*
X005467Y010410D01*
X005467Y010280D01*
X005467Y010367D02*
X005380Y010453D01*
X005240Y010410D02*
X005197Y010453D01*
X005110Y010453D01*
X005067Y010410D01*
X005067Y010280D01*
X005067Y010367D02*
X004980Y010453D01*
X004980Y010280D02*
X005240Y010280D01*
X005240Y010410D01*
X005380Y010280D02*
X005640Y010280D01*
X005640Y010410D01*
X005597Y010453D01*
X005780Y010280D02*
X006040Y010280D01*
X005352Y008846D02*
X005308Y008846D01*
X005265Y008802D01*
X005222Y008846D01*
X005178Y008846D01*
X005135Y008802D01*
X005135Y008716D01*
X005178Y008672D01*
X005178Y008551D02*
X005135Y008508D01*
X005135Y008421D01*
X005178Y008378D01*
X005265Y008378D02*
X005308Y008464D01*
X005308Y008508D01*
X005265Y008551D01*
X005178Y008551D01*
X005265Y008378D02*
X005395Y008378D01*
X005395Y008551D01*
X005352Y008672D02*
X005395Y008716D01*
X005395Y008802D01*
X005352Y008846D01*
X005265Y008802D02*
X005265Y008759D01*
X005352Y008257D02*
X005178Y008257D01*
X005135Y008213D01*
X005135Y008126D01*
X005178Y008083D01*
X005352Y008257D01*
X005395Y008213D01*
X005395Y008126D01*
X005352Y008083D01*
X005178Y008083D01*
X005265Y007962D02*
X005265Y007788D01*
X005395Y007918D01*
X005135Y007918D01*
X005178Y007667D02*
X005135Y007624D01*
X005135Y007537D01*
X005178Y007494D01*
X005352Y007494D01*
X005395Y007537D01*
X005395Y007624D01*
X005352Y007667D01*
X005395Y007373D02*
X005135Y007373D01*
X005265Y007373D02*
X005265Y007199D01*
X005265Y007078D02*
X005265Y006904D01*
X005395Y007035D01*
X005135Y007035D01*
X005135Y007199D02*
X005395Y007199D01*
X005395Y006783D02*
X005352Y006783D01*
X005178Y006610D01*
X005135Y006610D01*
X005395Y006610D02*
X005395Y006783D01*
X006845Y006020D02*
X006845Y005760D01*
X006801Y005890D02*
X006975Y005890D01*
X006845Y006020D01*
X007096Y005977D02*
X007096Y005890D01*
X007139Y005847D01*
X007269Y005847D01*
X007183Y005847D02*
X007096Y005760D01*
X007269Y005760D02*
X007269Y006020D01*
X007139Y006020D01*
X007096Y005977D01*
X006931Y005620D02*
X006845Y005620D01*
X006801Y005577D01*
X006975Y005403D01*
X006931Y005360D01*
X006845Y005360D01*
X006801Y005403D01*
X006801Y005577D01*
X006931Y005620D02*
X006975Y005577D01*
X006975Y005403D01*
X007102Y003080D02*
X007059Y003037D01*
X007059Y002993D01*
X007102Y002950D01*
X007232Y002950D01*
X007102Y002950D02*
X007059Y002907D01*
X007059Y002863D01*
X007102Y002820D01*
X007232Y002820D01*
X007232Y003080D01*
X007102Y003080D01*
X007354Y003037D02*
X007354Y002863D01*
X007397Y002820D01*
X007484Y002820D01*
X007527Y002863D01*
X007354Y003037D01*
X007397Y003080D01*
X007484Y003080D01*
X007527Y003037D01*
X007527Y002863D01*
X007648Y002863D02*
X007692Y002820D01*
X007778Y002820D01*
X007822Y002863D01*
X007778Y002950D02*
X007692Y002950D01*
X007648Y002907D01*
X007648Y002863D01*
X007778Y002950D02*
X007822Y002993D01*
X007822Y003037D01*
X007778Y003080D01*
X007692Y003080D01*
X007648Y003037D01*
X007643Y002680D02*
X007599Y002637D01*
X007599Y002550D01*
X007643Y002507D01*
X007773Y002507D01*
X007773Y002420D02*
X007773Y002680D01*
X007643Y002680D01*
X007478Y002680D02*
X007478Y002420D01*
X007305Y002420D01*
X007183Y002463D02*
X007140Y002420D01*
X007053Y002420D01*
X007010Y002463D01*
X007183Y002463D02*
X007183Y002637D01*
X007140Y002680D01*
X007053Y002680D01*
X007010Y002637D01*
X007305Y002680D02*
X007478Y002680D01*
X007478Y002550D02*
X007391Y002550D01*
X007599Y002420D02*
X007686Y002507D01*
X007894Y002463D02*
X007894Y002637D01*
X008067Y002463D01*
X008024Y002420D01*
X007937Y002420D01*
X007894Y002463D01*
X008067Y002463D02*
X008067Y002637D01*
X008024Y002680D01*
X007937Y002680D01*
X007894Y002637D01*
X007943Y002777D02*
X008116Y002777D01*
X008238Y002820D02*
X008238Y003080D01*
X008411Y003080D02*
X008238Y002820D01*
X008232Y002680D02*
X008362Y002550D01*
X008188Y002550D01*
X008232Y002420D02*
X008232Y002680D01*
X008411Y002820D02*
X008411Y003080D01*
X008521Y003080D02*
X008608Y003080D01*
X008564Y003080D02*
X008564Y002820D01*
X008521Y002820D02*
X008608Y002820D01*
X008729Y002820D02*
X008729Y002993D01*
X008815Y003080D01*
X008902Y002993D01*
X008902Y002820D01*
X008902Y002950D02*
X008729Y002950D01*
X008657Y002680D02*
X008483Y002680D01*
X008570Y002550D02*
X008657Y002550D01*
X008657Y002420D02*
X008657Y002680D01*
X008778Y002637D02*
X008821Y002680D01*
X008951Y002680D01*
X008951Y002420D01*
X008821Y002420D01*
X008778Y002463D01*
X008778Y002637D01*
X012020Y005490D02*
X012193Y005490D01*
X012253Y008980D02*
X012340Y009067D01*
X012080Y009067D01*
X012080Y009153D02*
X012080Y008980D01*
X012123Y009275D02*
X012297Y009448D01*
X012123Y009448D01*
X012080Y009405D01*
X012080Y009318D01*
X012123Y009275D01*
X012297Y009275D01*
X012340Y009318D01*
X012340Y009405D01*
X012297Y009448D01*
X012253Y009569D02*
X012253Y009699D01*
X012210Y009743D01*
X012080Y009743D01*
X012080Y009569D02*
X012253Y009569D01*
X012480Y009275D02*
X012523Y009275D01*
X012697Y009448D01*
X012740Y009448D01*
X012740Y009275D01*
X012697Y009153D02*
X012740Y009110D01*
X012740Y009023D01*
X012697Y008980D01*
X012523Y008980D01*
X012480Y009023D01*
X012480Y009110D01*
X012523Y009153D01*
X015620Y009095D02*
X015620Y008922D01*
X015880Y008922D01*
X015880Y009095D01*
X015837Y009217D02*
X015663Y009217D01*
X015620Y009260D01*
X015620Y009347D01*
X015663Y009390D01*
X015837Y009390D02*
X015880Y009347D01*
X015880Y009260D01*
X015837Y009217D01*
X015750Y009009D02*
X015750Y008922D01*
X015750Y008801D02*
X015707Y008757D01*
X015707Y008627D01*
X015620Y008627D02*
X015880Y008627D01*
X015880Y008757D01*
X015837Y008801D01*
X015750Y008801D01*
X015707Y008714D02*
X015620Y008801D01*
X015663Y008506D02*
X015620Y008463D01*
X015620Y008376D01*
X015663Y008333D01*
X015837Y008506D01*
X015663Y008506D01*
X015663Y008333D02*
X015837Y008333D01*
X015880Y008376D01*
X015880Y008463D01*
X015837Y008506D01*
X016077Y008627D02*
X016077Y008801D01*
X016120Y008922D02*
X016120Y009095D01*
X016163Y009217D02*
X016337Y009390D01*
X016163Y009390D01*
X016120Y009347D01*
X016120Y009260D01*
X016163Y009217D01*
X016337Y009217D01*
X016380Y009260D01*
X016380Y009347D01*
X016337Y009390D01*
X016380Y009511D02*
X016380Y009641D01*
X016337Y009685D01*
X016293Y009685D01*
X016250Y009641D01*
X016250Y009511D01*
X016120Y009511D02*
X016120Y009641D01*
X016163Y009685D01*
X016207Y009685D01*
X016250Y009641D01*
X016120Y009511D02*
X016380Y009511D01*
X016380Y009095D02*
X016380Y008922D01*
X016120Y008922D01*
X016250Y008922D02*
X016250Y009009D01*
X016163Y008506D02*
X016380Y008506D01*
X016380Y008333D02*
X016163Y008333D01*
X016120Y008376D01*
X016120Y008463D01*
X016163Y008506D01*
X016120Y008212D02*
X016207Y008125D01*
X016207Y008168D02*
X016207Y008038D01*
X016120Y008038D02*
X016380Y008038D01*
X016380Y008168D01*
X016337Y008212D01*
X016250Y008212D01*
X016207Y008168D01*
X016250Y007917D02*
X016250Y007743D01*
X016120Y007743D02*
X016380Y007743D01*
X016380Y007622D02*
X016380Y007449D01*
X016380Y007535D02*
X016120Y007535D01*
X016120Y007328D02*
X016293Y007328D01*
X016380Y007241D01*
X016293Y007154D01*
X016120Y007154D01*
X016250Y007154D02*
X016250Y007328D01*
X015880Y007449D02*
X015880Y007579D01*
X015837Y007622D01*
X015663Y007622D01*
X015620Y007579D01*
X015620Y007449D01*
X015880Y007449D01*
X015880Y007743D02*
X015620Y007743D01*
X015750Y007743D02*
X015750Y007830D01*
X015880Y007743D02*
X015880Y007917D01*
X015750Y008038D02*
X015750Y008212D01*
X015620Y008168D02*
X015880Y008168D01*
X015750Y008038D01*
X016120Y007917D02*
X016380Y007917D01*
X009993Y012660D02*
X009993Y012833D01*
X009907Y012920D01*
X009820Y012833D01*
X009820Y012660D01*
X009699Y012660D02*
X009699Y012920D01*
X009612Y012833D01*
X009525Y012920D01*
X009525Y012660D01*
X009404Y012660D02*
X009404Y012920D01*
X009274Y012920D01*
X009230Y012877D01*
X009230Y012790D01*
X009274Y012747D01*
X009404Y012747D01*
X009109Y012617D02*
X008936Y012617D01*
X008815Y012660D02*
X008815Y012833D01*
X008728Y012920D01*
X008641Y012833D01*
X008641Y012660D01*
X008641Y012790D02*
X008815Y012790D01*
X008183Y012747D02*
X008052Y012747D01*
X008009Y012790D01*
X008009Y012877D01*
X008052Y012920D01*
X008183Y012920D01*
X008183Y012660D01*
X008096Y012747D02*
X008009Y012660D01*
X007888Y012660D02*
X007888Y012920D01*
X007888Y012790D02*
X007714Y012790D01*
X007714Y012920D02*
X007714Y012660D01*
X007593Y012660D02*
X007593Y012920D01*
X007463Y012920D01*
X007420Y012877D01*
X007420Y012703D01*
X007463Y012660D01*
X007593Y012660D01*
X007299Y012660D02*
X007125Y012833D01*
X007125Y012877D01*
X007168Y012920D01*
X007255Y012920D01*
X007299Y012877D01*
X007299Y012660D02*
X007125Y012660D01*
X007004Y012660D02*
X006830Y012660D01*
X006917Y012660D02*
X006917Y012920D01*
X007004Y012833D01*
X006709Y012790D02*
X006579Y012790D01*
X006536Y012747D01*
X006536Y012703D01*
X006579Y012660D01*
X006666Y012660D01*
X006709Y012703D01*
X006709Y012790D01*
X006623Y012877D01*
X006536Y012920D01*
X006415Y012790D02*
X006241Y012790D01*
X006285Y012660D02*
X006285Y012920D01*
X006415Y012790D01*
X006376Y015223D02*
X006320Y015249D01*
X006376Y015223D02*
X006457Y015253D01*
X006483Y015309D01*
X006424Y015472D01*
X006368Y015498D01*
X006287Y015468D01*
X006261Y015412D01*
X006175Y015569D02*
X006012Y015509D01*
X006093Y015539D02*
X006004Y015784D01*
X006115Y015732D01*
X006200Y015855D02*
X006289Y015610D01*
X006363Y015914D01*
X006452Y015670D01*
X006580Y015670D02*
X006743Y015730D01*
X006840Y015670D02*
X006814Y015614D01*
X006844Y015532D01*
X006900Y015507D01*
X007022Y015551D01*
X007052Y015470D02*
X006963Y015714D01*
X006840Y015670D01*
X006883Y015827D02*
X006828Y015853D01*
X006753Y016056D01*
X006916Y016116D02*
X006991Y015912D01*
X006965Y015856D01*
X006883Y015827D01*
X007091Y015715D02*
X007314Y015611D01*
X007288Y015555D01*
X007206Y015526D01*
X007151Y015552D01*
X007091Y015715D01*
X007117Y015770D01*
X007199Y015800D01*
X007254Y015774D01*
X007314Y015611D01*
X007398Y015734D02*
X007561Y015793D01*
X007394Y015871D01*
X007483Y015627D01*
X007630Y015957D02*
X007793Y016016D01*
X007882Y015772D01*
X007981Y015854D02*
X007922Y016017D01*
X007948Y016073D01*
X008070Y016117D01*
X008159Y015873D01*
X008037Y015828D01*
X007981Y015854D01*
X007838Y015894D02*
X007756Y015864D01*
X007559Y016073D02*
X007470Y016317D01*
X007584Y016359D02*
X007747Y016418D01*
X007666Y016388D02*
X007755Y016144D01*
X007935Y016256D02*
X007876Y016419D01*
X007902Y016474D01*
X008024Y016519D01*
X008113Y016274D01*
X007991Y016230D01*
X007935Y016256D01*
X007515Y016195D02*
X007352Y016136D01*
X007253Y016053D02*
X007130Y016009D01*
X007075Y016035D01*
X007045Y016116D01*
X007071Y016172D01*
X007193Y016216D01*
X007282Y015972D01*
X007396Y016013D02*
X007307Y016258D01*
X007171Y016024D02*
X007119Y015913D01*
X006940Y015521D02*
X006889Y015410D01*
X006775Y015369D02*
X006612Y015309D01*
X006649Y015461D02*
X006730Y015491D01*
X006686Y015613D02*
X006775Y015369D01*
X006686Y015613D02*
X006523Y015554D01*
X005898Y015468D02*
X005776Y015423D01*
X005720Y015449D01*
X005705Y015490D01*
X005731Y015546D01*
X005853Y015590D01*
X005731Y015546D02*
X005676Y015572D01*
X005661Y015612D01*
X005687Y015668D01*
X005809Y015713D01*
X005898Y015468D01*
X009410Y015537D02*
X009453Y015580D01*
X009540Y015580D01*
X009583Y015537D01*
X009583Y015363D01*
X009540Y015320D01*
X009453Y015320D01*
X009410Y015363D01*
X009705Y015320D02*
X009878Y015320D01*
X009878Y015580D01*
X009705Y015580D01*
X009791Y015450D02*
X009878Y015450D01*
X009999Y015450D02*
X010043Y015407D01*
X010173Y015407D01*
X010173Y015320D02*
X010173Y015580D01*
X010043Y015580D01*
X009999Y015537D01*
X009999Y015450D01*
X010086Y015407D02*
X009999Y015320D01*
X010294Y015363D02*
X010337Y015320D01*
X010424Y015320D01*
X010467Y015363D01*
X010294Y015537D01*
X010294Y015363D01*
X010467Y015363D02*
X010467Y015537D01*
X010424Y015580D01*
X010337Y015580D01*
X010294Y015537D01*
X010343Y015677D02*
X010516Y015677D01*
X010638Y015720D02*
X010638Y015980D01*
X010811Y015980D02*
X010638Y015720D01*
X010632Y015580D02*
X010762Y015450D01*
X010588Y015450D01*
X010632Y015320D02*
X010632Y015580D01*
X010811Y015720D02*
X010811Y015980D01*
X010921Y015980D02*
X011008Y015980D01*
X010964Y015980D02*
X010964Y015720D01*
X010921Y015720D02*
X011008Y015720D01*
X011129Y015720D02*
X011129Y015893D01*
X011215Y015980D01*
X011302Y015893D01*
X011302Y015720D01*
X011302Y015850D02*
X011129Y015850D01*
X011057Y015580D02*
X010883Y015580D01*
X010970Y015450D02*
X011057Y015450D01*
X011057Y015320D02*
X011057Y015580D01*
X011178Y015537D02*
X011221Y015580D01*
X011351Y015580D01*
X011351Y015320D01*
X011221Y015320D01*
X011178Y015363D01*
X011178Y015537D01*
X010222Y015720D02*
X010222Y015980D01*
X010048Y015720D01*
X010048Y015980D01*
X009927Y015937D02*
X009884Y015980D01*
X009797Y015980D01*
X009754Y015937D01*
X009927Y015763D01*
X009884Y015720D01*
X009797Y015720D01*
X009754Y015763D01*
X009754Y015937D01*
X009632Y015980D02*
X009502Y015980D01*
X009459Y015937D01*
X009459Y015893D01*
X009502Y015850D01*
X009632Y015850D01*
X009502Y015850D02*
X009459Y015807D01*
X009459Y015763D01*
X009502Y015720D01*
X009632Y015720D01*
X009632Y015980D01*
X009927Y015937D02*
X009927Y015763D01*
X009993Y012790D02*
X009820Y012790D01*
X002680Y011121D02*
X002637Y011165D01*
X002593Y011165D01*
X002550Y011121D01*
X002550Y010991D01*
X002420Y010991D02*
X002420Y011121D01*
X002463Y011165D01*
X002507Y011165D01*
X002550Y011121D01*
X002680Y011121D02*
X002680Y010991D01*
X002420Y010991D01*
X002463Y010870D02*
X002420Y010827D01*
X002420Y010740D01*
X002463Y010697D01*
X002637Y010870D01*
X002463Y010870D01*
X002463Y010697D02*
X002637Y010697D01*
X002680Y010740D01*
X002680Y010827D01*
X002637Y010870D01*
X002680Y010575D02*
X002420Y010575D01*
X002507Y010489D01*
X002420Y010402D01*
X002680Y010402D01*
X002377Y010281D02*
X002377Y010107D01*
X002463Y009986D02*
X002680Y009986D01*
X002680Y009813D02*
X002463Y009813D01*
X002420Y009856D01*
X002420Y009943D01*
X002463Y009986D01*
X002180Y009943D02*
X002180Y009856D01*
X002137Y009813D01*
X001963Y009813D01*
X002137Y009986D01*
X001963Y009986D01*
X001920Y009943D01*
X001920Y009856D01*
X001963Y009813D01*
X002050Y009692D02*
X002050Y009518D01*
X002180Y009648D01*
X001920Y009648D01*
X002180Y009397D02*
X002180Y009223D01*
X001920Y009223D01*
X001963Y009102D02*
X002137Y009102D01*
X002180Y009059D01*
X002180Y008929D01*
X001920Y008929D01*
X001920Y009059D01*
X001963Y009102D01*
X002050Y009223D02*
X002050Y009310D01*
X002420Y009223D02*
X002680Y009223D01*
X002680Y009102D02*
X002680Y008929D01*
X002680Y009015D02*
X002420Y009015D01*
X002420Y008808D02*
X002593Y008808D01*
X002680Y008721D01*
X002593Y008634D01*
X002420Y008634D01*
X002550Y008634D02*
X002550Y008808D01*
X002550Y009223D02*
X002550Y009397D01*
X002507Y009518D02*
X002507Y009648D01*
X002550Y009692D01*
X002637Y009692D01*
X002680Y009648D01*
X002680Y009518D01*
X002420Y009518D01*
X002420Y009397D02*
X002680Y009397D01*
X002507Y009605D02*
X002420Y009692D01*
X002180Y009943D02*
X002137Y009986D01*
X002180Y010107D02*
X001920Y010107D01*
X002007Y010107D02*
X002007Y010237D01*
X002050Y010281D01*
X002137Y010281D01*
X002180Y010237D01*
X002180Y010107D01*
X002007Y010194D02*
X001920Y010281D01*
X001920Y010402D02*
X001920Y010575D01*
X001963Y010697D02*
X001920Y010740D01*
X001920Y010827D01*
X001963Y010870D01*
X001963Y010697D02*
X002137Y010697D01*
X002180Y010740D01*
X002180Y010827D01*
X002137Y010870D01*
X002180Y010575D02*
X002180Y010402D01*
X001920Y010402D01*
X002050Y010402D02*
X002050Y010489D01*
D12*
X002922Y006830D02*
X002875Y006783D01*
X002875Y006689D01*
X002922Y006643D01*
X003109Y006643D01*
X003155Y006689D01*
X003155Y006783D01*
X003109Y006830D01*
X003155Y006507D02*
X003155Y006320D01*
X002875Y006320D01*
X002875Y006507D01*
X003015Y006414D02*
X003015Y006320D01*
X003015Y006185D02*
X002968Y006138D01*
X002968Y005998D01*
X002875Y005998D02*
X003155Y005998D01*
X003155Y006138D01*
X003109Y006185D01*
X003015Y006185D01*
X002968Y006092D02*
X002875Y006185D01*
X002922Y005863D02*
X002875Y005816D01*
X002875Y005723D01*
X002922Y005676D01*
X003109Y005863D01*
X002922Y005863D01*
X003109Y005863D02*
X003155Y005816D01*
X003155Y005723D01*
X003109Y005676D01*
X002922Y005676D01*
X003015Y005540D02*
X003015Y005354D01*
X003155Y005494D01*
X002875Y005494D01*
X003155Y005218D02*
X003155Y005031D01*
X002875Y005031D01*
X003015Y005031D02*
X003015Y005125D01*
X002922Y004896D02*
X003109Y004896D01*
X003155Y004849D01*
X003155Y004709D01*
X002875Y004709D01*
X002875Y004849D01*
X002922Y004896D01*
X004768Y005216D02*
X004768Y005403D01*
X004815Y005538D02*
X004908Y005632D01*
X004815Y005725D01*
X005095Y005725D01*
X005002Y005860D02*
X005095Y005954D01*
X004815Y005954D01*
X004815Y006047D02*
X004815Y005860D01*
X004815Y006183D02*
X004815Y006323D01*
X004862Y006370D01*
X004908Y006370D01*
X004955Y006323D01*
X004955Y006183D01*
X004955Y006323D02*
X005002Y006370D01*
X005049Y006370D01*
X005095Y006323D01*
X005095Y006183D01*
X004815Y006183D01*
X004815Y005538D02*
X005095Y005538D01*
X005095Y005080D02*
X004815Y005080D01*
X004955Y005080D02*
X004955Y004894D01*
X004815Y004894D02*
X005095Y004894D01*
X005049Y004758D02*
X005095Y004711D01*
X005095Y004618D01*
X005049Y004571D01*
X004862Y004571D01*
X004815Y004618D01*
X004815Y004711D01*
X004862Y004758D01*
X004815Y004436D02*
X004815Y004249D01*
X005095Y004249D01*
X005095Y004436D01*
X004955Y004342D02*
X004955Y004249D01*
X005095Y004114D02*
X004815Y004114D01*
X004815Y003927D02*
X005095Y003927D01*
X005002Y004020D01*
X005095Y004114D01*
X009730Y002255D02*
X009746Y002211D01*
X009806Y002183D01*
X009937Y002231D01*
X009806Y002183D02*
X009778Y002123D01*
X009794Y002079D01*
X009854Y002051D01*
X009985Y002099D01*
X009889Y002363D01*
X009758Y002315D01*
X009730Y002255D01*
X010113Y002146D02*
X010288Y002210D01*
X010200Y002178D02*
X010104Y002441D01*
X010224Y002385D01*
X010336Y002475D02*
X010363Y002535D01*
X010451Y002567D01*
X010511Y002539D01*
X010527Y002495D01*
X010499Y002435D01*
X010411Y002404D01*
X010383Y002344D01*
X010399Y002300D01*
X010459Y002272D01*
X010547Y002304D01*
X010575Y002364D01*
X010661Y002225D02*
X010633Y002165D01*
X010661Y002225D02*
X010748Y002257D01*
X010808Y002229D01*
X010872Y002053D01*
X010844Y001994D01*
X010756Y001962D01*
X010697Y001990D01*
X011015Y002056D02*
X011191Y002120D01*
X011095Y002383D01*
X010920Y002319D01*
X010910Y002386D02*
X010734Y002322D01*
X011021Y002476D02*
X010925Y002740D01*
X010973Y002608D02*
X011149Y002672D01*
X011197Y002540D02*
X011101Y002804D01*
X011244Y002806D02*
X011272Y002866D01*
X011360Y002898D01*
X011420Y002870D01*
X011483Y002694D01*
X011456Y002634D01*
X011368Y002603D01*
X011308Y002630D01*
X011398Y002493D02*
X011266Y002445D01*
X011238Y002386D01*
X011270Y002298D01*
X011330Y002270D01*
X011462Y002318D01*
X011494Y002230D02*
X011398Y002493D01*
X011541Y002496D02*
X011605Y002320D01*
X011665Y002292D01*
X011753Y002324D01*
X011781Y002384D01*
X011541Y002496D01*
X011569Y002556D01*
X011657Y002588D01*
X011717Y002560D01*
X011781Y002384D01*
X011876Y002518D02*
X012052Y002582D01*
X011872Y002666D01*
X011968Y002403D01*
X012131Y002760D02*
X012306Y002824D01*
X012402Y002561D01*
X012354Y002692D02*
X012267Y002660D01*
X012514Y002651D02*
X012450Y002826D01*
X012478Y002886D01*
X012609Y002934D01*
X012705Y002671D01*
X012573Y002623D01*
X012514Y002651D01*
X012105Y002871D02*
X012009Y003134D01*
X011953Y003015D01*
X011834Y003070D01*
X011930Y002807D01*
X011802Y002761D02*
X011627Y002697D01*
X011667Y002860D02*
X011754Y002892D01*
X011802Y002761D02*
X011706Y003024D01*
X011531Y002960D01*
X011374Y002286D02*
X011318Y002166D01*
X011143Y002251D02*
X011055Y002220D01*
M02*
