G75*
%MOIN*%
%OFA0B0*%
%FSLAX24Y24*%
%IPPOS*%
%LPD*%
%AMOC8*
5,1,8,0,0,1.08239X$1,22.5*
%
%ADD10C,0.0540*%
%ADD11R,0.0310X0.0340*%
%ADD12OC8,0.0520*%
%ADD13R,0.0190X0.0340*%
%ADD14R,0.0190X0.0440*%
%ADD15R,0.0335X0.0131*%
%ADD16R,0.0335X0.0178*%
%ADD17R,0.0131X0.0335*%
%ADD18R,0.0178X0.0335*%
%ADD19R,0.0210X0.0210*%
%ADD20R,0.0827X0.0827*%
%ADD21R,0.0280X0.0160*%
%ADD22R,0.0160X0.0280*%
%ADD23R,0.0340X0.0310*%
D10*
X005650Y005410D03*
X005410Y012650D03*
X012650Y012890D03*
X012890Y005650D03*
D11*
X009380Y007770D03*
X008960Y007770D03*
X007860Y009610D03*
X007440Y009610D03*
X008920Y010530D03*
X009340Y010530D03*
X009340Y011070D03*
X008920Y011070D03*
X008920Y011610D03*
X009340Y011610D03*
D12*
X004210Y003730D03*
X002450Y006250D03*
X002150Y007010D03*
X014090Y014570D03*
X015850Y012050D03*
X016150Y011290D03*
D13*
X002440Y008510D03*
X002190Y008510D03*
X001940Y008510D03*
D14*
X001940Y008060D03*
X002190Y008060D03*
X002440Y008060D03*
D15*
X003386Y007988D03*
X003386Y008145D03*
X003386Y008303D03*
X003386Y008460D03*
X003386Y008618D03*
X003386Y008775D03*
X003386Y008933D03*
X003386Y009090D03*
X003386Y009248D03*
X003386Y009405D03*
X003386Y009563D03*
X003386Y009720D03*
X003386Y009878D03*
X003386Y010035D03*
X003386Y010193D03*
X003386Y010350D03*
X003386Y010507D03*
X003386Y010665D03*
X003386Y010822D03*
X003386Y010980D03*
X003386Y011137D03*
X003386Y011295D03*
X003386Y011452D03*
X003386Y011610D03*
X003386Y011767D03*
X003386Y011925D03*
X003386Y012082D03*
X003386Y012240D03*
X003386Y012397D03*
X003386Y012555D03*
X003386Y012712D03*
X003386Y012870D03*
X003386Y013027D03*
X004634Y013027D03*
X004634Y012870D03*
X004634Y012712D03*
X004634Y012555D03*
X004634Y012397D03*
X004634Y012240D03*
X004634Y012082D03*
X004634Y011925D03*
X004634Y011767D03*
X004634Y011610D03*
X004634Y011452D03*
X004634Y011295D03*
X004634Y011137D03*
X004634Y010980D03*
X004634Y010822D03*
X004634Y010665D03*
X004634Y010507D03*
X004634Y010350D03*
X004634Y010193D03*
X004634Y010035D03*
X004634Y009878D03*
X004634Y009720D03*
X004634Y009563D03*
X004634Y009405D03*
X004634Y009248D03*
X004634Y009090D03*
X004634Y008933D03*
X004634Y008775D03*
X004634Y008618D03*
X004634Y008460D03*
X004634Y008303D03*
X004634Y008145D03*
X004634Y007988D03*
X004634Y007830D03*
X004634Y007673D03*
X003386Y007673D03*
X003386Y007830D03*
X003386Y006079D03*
X003386Y005921D03*
X003386Y005764D03*
X003386Y005606D03*
X003386Y005449D03*
X003386Y005291D03*
X003386Y005134D03*
X003386Y004976D03*
X003386Y004819D03*
X003386Y004661D03*
X004634Y004661D03*
X004634Y004819D03*
X004634Y004976D03*
X004634Y005134D03*
X004634Y005291D03*
X004634Y005449D03*
X004634Y005606D03*
X004634Y005764D03*
X004634Y005921D03*
X004634Y006079D03*
X013666Y006060D03*
X013666Y005903D03*
X013666Y005745D03*
X013666Y005588D03*
X013666Y005430D03*
X013666Y005273D03*
X013666Y006218D03*
X013666Y006375D03*
X013666Y006533D03*
X013666Y006690D03*
X013666Y006848D03*
X013666Y007005D03*
X013666Y007163D03*
X013666Y007320D03*
X013666Y007478D03*
X013666Y007635D03*
X013666Y007793D03*
X013666Y007950D03*
X013666Y008107D03*
X013666Y008265D03*
X013666Y008422D03*
X013666Y008580D03*
X013666Y008737D03*
X013666Y008895D03*
X013666Y009052D03*
X013666Y009210D03*
X013666Y009367D03*
X013666Y009525D03*
X013666Y009682D03*
X013666Y009840D03*
X013666Y009997D03*
X013666Y010155D03*
X013666Y010312D03*
X013666Y010470D03*
X013666Y010627D03*
X014914Y010627D03*
X014914Y010470D03*
X014914Y010312D03*
X014914Y010155D03*
X014914Y009997D03*
X014914Y009840D03*
X014914Y009682D03*
X014914Y009525D03*
X014914Y009367D03*
X014914Y009210D03*
X014914Y009052D03*
X014914Y008895D03*
X014914Y008737D03*
X014914Y008580D03*
X014914Y008422D03*
X014914Y008265D03*
X014914Y008107D03*
X014914Y007950D03*
X014914Y007793D03*
X014914Y007635D03*
X014914Y007478D03*
X014914Y007320D03*
X014914Y007163D03*
X014914Y007005D03*
X014914Y006848D03*
X014914Y006690D03*
X014914Y006533D03*
X014914Y006375D03*
X014914Y006218D03*
X014914Y006060D03*
X014914Y005903D03*
X014914Y005745D03*
X014914Y005588D03*
X014914Y005430D03*
X014914Y005273D03*
X014914Y012221D03*
X014914Y012379D03*
X014914Y012536D03*
X014914Y012694D03*
X014914Y012851D03*
X014914Y013009D03*
X014914Y013166D03*
X014914Y013324D03*
X014914Y013481D03*
X014914Y013639D03*
X013666Y013639D03*
X013666Y013481D03*
X013666Y013324D03*
X013666Y013166D03*
X013666Y013009D03*
X013666Y012851D03*
X013666Y012694D03*
X013666Y012536D03*
X013666Y012379D03*
X013666Y012221D03*
D16*
X013666Y012034D03*
X013666Y010814D03*
X014914Y010814D03*
X014914Y012034D03*
X014914Y013826D03*
X013666Y013826D03*
X013666Y005086D03*
X014914Y005086D03*
X004634Y004474D03*
X003386Y004474D03*
X003386Y006266D03*
X003386Y007486D03*
X004634Y007486D03*
X004634Y006266D03*
X004634Y013214D03*
X003386Y013214D03*
D17*
X004661Y013666D03*
X004819Y013666D03*
X004976Y013666D03*
X005134Y013666D03*
X005291Y013666D03*
X005449Y013666D03*
X005606Y013666D03*
X005764Y013666D03*
X005921Y013666D03*
X006079Y013666D03*
X006079Y014914D03*
X005921Y014914D03*
X005764Y014914D03*
X005606Y014914D03*
X005449Y014914D03*
X005291Y014914D03*
X005134Y014914D03*
X004976Y014914D03*
X004819Y014914D03*
X004661Y014914D03*
X007673Y014914D03*
X007830Y014914D03*
X007988Y014914D03*
X008145Y014914D03*
X008303Y014914D03*
X008460Y014914D03*
X008618Y014914D03*
X008775Y014914D03*
X008933Y014914D03*
X009090Y014914D03*
X009248Y014914D03*
X009405Y014914D03*
X009563Y014914D03*
X009720Y014914D03*
X009878Y014914D03*
X010035Y014914D03*
X010193Y014914D03*
X010350Y014914D03*
X010507Y014914D03*
X010665Y014914D03*
X010822Y014914D03*
X010980Y014914D03*
X011137Y014914D03*
X011295Y014914D03*
X011452Y014914D03*
X011610Y014914D03*
X011767Y014914D03*
X011925Y014914D03*
X012082Y014914D03*
X012240Y014914D03*
X012397Y014914D03*
X012555Y014914D03*
X012712Y014914D03*
X012870Y014914D03*
X013027Y014914D03*
X013027Y013666D03*
X012870Y013666D03*
X012712Y013666D03*
X012555Y013666D03*
X012397Y013666D03*
X012240Y013666D03*
X012082Y013666D03*
X011925Y013666D03*
X011767Y013666D03*
X011610Y013666D03*
X011452Y013666D03*
X011295Y013666D03*
X011137Y013666D03*
X010980Y013666D03*
X010822Y013666D03*
X010665Y013666D03*
X010507Y013666D03*
X010350Y013666D03*
X010193Y013666D03*
X010035Y013666D03*
X009878Y013666D03*
X009720Y013666D03*
X009563Y013666D03*
X009405Y013666D03*
X009248Y013666D03*
X009090Y013666D03*
X008933Y013666D03*
X008775Y013666D03*
X008618Y013666D03*
X008460Y013666D03*
X008303Y013666D03*
X008145Y013666D03*
X007988Y013666D03*
X007830Y013666D03*
X007673Y013666D03*
X007635Y004634D03*
X007478Y004634D03*
X007320Y004634D03*
X007163Y004634D03*
X007005Y004634D03*
X006848Y004634D03*
X006690Y004634D03*
X006533Y004634D03*
X006375Y004634D03*
X006218Y004634D03*
X006060Y004634D03*
X005903Y004634D03*
X005745Y004634D03*
X005588Y004634D03*
X005430Y004634D03*
X005273Y004634D03*
X005273Y003386D03*
X005430Y003386D03*
X005588Y003386D03*
X005745Y003386D03*
X005903Y003386D03*
X006060Y003386D03*
X006218Y003386D03*
X006375Y003386D03*
X006533Y003386D03*
X006690Y003386D03*
X006848Y003386D03*
X007005Y003386D03*
X007163Y003386D03*
X007320Y003386D03*
X007478Y003386D03*
X007635Y003386D03*
X007793Y003386D03*
X007950Y003386D03*
X008107Y003386D03*
X008265Y003386D03*
X008422Y003386D03*
X008580Y003386D03*
X008737Y003386D03*
X008895Y003386D03*
X009052Y003386D03*
X009210Y003386D03*
X009367Y003386D03*
X009525Y003386D03*
X009682Y003386D03*
X009840Y003386D03*
X009997Y003386D03*
X010155Y003386D03*
X010312Y003386D03*
X010470Y003386D03*
X010627Y003386D03*
X010627Y004634D03*
X010470Y004634D03*
X010312Y004634D03*
X010155Y004634D03*
X009997Y004634D03*
X009840Y004634D03*
X009682Y004634D03*
X009525Y004634D03*
X009367Y004634D03*
X009210Y004634D03*
X009052Y004634D03*
X008895Y004634D03*
X008737Y004634D03*
X008580Y004634D03*
X008422Y004634D03*
X008265Y004634D03*
X008107Y004634D03*
X007950Y004634D03*
X007793Y004634D03*
X012221Y004634D03*
X012379Y004634D03*
X012536Y004634D03*
X012694Y004634D03*
X012851Y004634D03*
X013009Y004634D03*
X013166Y004634D03*
X013324Y004634D03*
X013481Y004634D03*
X013639Y004634D03*
X013639Y003386D03*
X013481Y003386D03*
X013324Y003386D03*
X013166Y003386D03*
X013009Y003386D03*
X012851Y003386D03*
X012694Y003386D03*
X012536Y003386D03*
X012379Y003386D03*
X012221Y003386D03*
D18*
X012034Y003386D03*
X010814Y003386D03*
X010814Y004634D03*
X012034Y004634D03*
X013826Y004634D03*
X013826Y003386D03*
X005086Y003386D03*
X005086Y004634D03*
X004474Y013666D03*
X004474Y014914D03*
X006266Y014914D03*
X007486Y014914D03*
X007486Y013666D03*
X006266Y013666D03*
X013214Y013666D03*
X013214Y014914D03*
D19*
X012205Y009990D03*
X011895Y009990D03*
X011405Y009990D03*
X011095Y009990D03*
X010525Y009990D03*
X010215Y009990D03*
D20*
X007630Y011070D03*
D21*
X006931Y010952D03*
X006931Y010696D03*
X006931Y011208D03*
X006931Y011464D03*
X008329Y011444D03*
X008329Y011188D03*
X008329Y010932D03*
X008329Y010676D03*
D22*
X008004Y010371D03*
X007748Y010371D03*
X007492Y010371D03*
X007236Y010371D03*
X007256Y011769D03*
X007512Y011769D03*
X007768Y011769D03*
X008024Y011769D03*
D23*
X010150Y011600D03*
X010150Y012020D03*
M02*
