G75*
%MOIN*%
%OFA0B0*%
%FSLAX24Y24*%
%IPPOS*%
%LPD*%
%AMOC8*
5,1,8,0,0,1.08239X$1,22.5*
%
%ADD10C,0.0905*%
%ADD11C,0.0935*%
%ADD12OC8,0.0680*%
%ADD13C,0.0611*%
%ADD14C,0.1330*%
%ADD15C,0.0000*%
%ADD16C,0.0001*%
%ADD17R,0.0671X0.1340*%
%ADD18R,0.0820X0.0560*%
%ADD19R,0.0430X0.0500*%
%ADD20R,0.0434X0.0395*%
%ADD21R,0.0500X0.0430*%
%ADD22R,0.0297X0.0474*%
%ADD23R,0.0316X0.0946*%
%ADD24R,0.0560X0.0440*%
%ADD25OC8,0.1180*%
%ADD26R,0.0710X0.1655*%
%ADD27R,0.1655X0.0710*%
%ADD28R,0.1143X0.1143*%
%ADD29OC8,0.1143*%
%ADD30OC8,0.1661*%
%ADD31R,0.0330X0.0880*%
%ADD32R,0.0434X0.0434*%
%ADD33R,0.0651X0.0217*%
%ADD34R,0.0680X0.0460*%
%ADD35R,0.0330X0.0780*%
%ADD36R,0.0460X0.0680*%
%ADD37R,0.0380X0.0350*%
%ADD38R,0.0350X0.0380*%
%ADD39R,0.0580X0.0379*%
%ADD40R,0.1180X0.0730*%
%ADD41R,0.1080X0.0480*%
%ADD42R,0.2088X0.1005*%
%ADD43C,0.0316*%
%ADD44R,0.0316X0.0178*%
%ADD45R,0.2088X0.2088*%
%ADD46R,0.0178X0.0316*%
%ADD47C,0.1540*%
%ADD48C,0.0330*%
%ADD49C,0.0600*%
%ADD50R,0.0198X0.0710*%
%ADD51OC8,0.0730*%
%ADD52R,0.0730X0.0730*%
%ADD53C,0.0620*%
%ADD54R,0.0631X0.0474*%
%ADD55R,0.0474X0.0631*%
%ADD56R,0.0400X0.1360*%
%ADD57R,0.0560X0.0820*%
D10*
X006724Y012303D03*
X006724Y018209D03*
X006724Y022146D03*
X006724Y028051D03*
X006724Y031988D03*
D11*
X005724Y030988D03*
X007724Y030988D03*
X007724Y029051D03*
X005724Y029051D03*
X005724Y027051D03*
X007724Y027051D03*
X007724Y023146D03*
X005724Y023146D03*
X005724Y021146D03*
X007724Y021146D03*
X007724Y019209D03*
X005724Y019209D03*
X005724Y017209D03*
X007724Y017209D03*
X007724Y013303D03*
X005724Y013303D03*
X005724Y011303D03*
X007724Y011303D03*
X007724Y032988D03*
X005724Y032988D03*
D12*
X007161Y034547D03*
X008161Y034547D03*
X009161Y034547D03*
X010161Y034547D03*
X010161Y024705D03*
X009161Y024705D03*
X008161Y024705D03*
X007161Y024705D03*
X007161Y014862D03*
X008161Y014862D03*
X009161Y014862D03*
X010161Y014862D03*
D13*
X020081Y015009D03*
X015307Y024212D03*
X019491Y030462D03*
X012857Y035442D03*
X010632Y043109D03*
X030071Y041682D03*
X031597Y041682D03*
X033122Y041682D03*
X056646Y026328D03*
X056646Y024753D03*
X056646Y023178D03*
X047591Y016289D03*
X047591Y015304D03*
X036392Y008307D03*
X034648Y008267D03*
X046013Y006286D03*
X068408Y006102D03*
X068359Y042273D03*
X007187Y006052D03*
D14*
X007706Y003780D03*
X007706Y037400D03*
D15*
X017526Y003230D02*
X017526Y001870D01*
X021036Y001870D01*
X021036Y003230D01*
X017526Y003230D01*
D16*
X017526Y003229D02*
X021036Y003229D01*
X021036Y003228D02*
X017526Y003228D01*
X017526Y003227D02*
X021036Y003227D01*
X021036Y003226D02*
X017526Y003226D01*
X017526Y003225D02*
X021036Y003225D01*
X021036Y003224D02*
X017526Y003224D01*
X017526Y003223D02*
X021036Y003223D01*
X021036Y003222D02*
X017526Y003222D01*
X017526Y003221D02*
X021036Y003221D01*
X021036Y003220D02*
X017526Y003220D01*
X017526Y003219D02*
X021036Y003219D01*
X021036Y003218D02*
X017526Y003218D01*
X017526Y003217D02*
X021036Y003217D01*
X021036Y003216D02*
X017526Y003216D01*
X017526Y003215D02*
X021036Y003215D01*
X021036Y003214D02*
X017526Y003214D01*
X017526Y003213D02*
X021036Y003213D01*
X021036Y003212D02*
X017526Y003212D01*
X017526Y003211D02*
X021036Y003211D01*
X021036Y003210D02*
X017526Y003210D01*
X017526Y003209D02*
X021036Y003209D01*
X021036Y003208D02*
X017526Y003208D01*
X017526Y003207D02*
X021036Y003207D01*
X021036Y003206D02*
X017526Y003206D01*
X017526Y003205D02*
X021036Y003205D01*
X021036Y003204D02*
X017526Y003204D01*
X017526Y003203D02*
X021036Y003203D01*
X021036Y003202D02*
X017526Y003202D01*
X017526Y003201D02*
X021036Y003201D01*
X021036Y003200D02*
X017526Y003200D01*
X017526Y003199D02*
X021036Y003199D01*
X021036Y003198D02*
X017526Y003198D01*
X017526Y003197D02*
X021036Y003197D01*
X021036Y003196D02*
X017526Y003196D01*
X017526Y003195D02*
X021036Y003195D01*
X021036Y003194D02*
X017526Y003194D01*
X017526Y003193D02*
X021036Y003193D01*
X021036Y003192D02*
X017526Y003192D01*
X017526Y003191D02*
X021036Y003191D01*
X021036Y003190D02*
X017526Y003190D01*
X017526Y003189D02*
X021036Y003189D01*
X021036Y003188D02*
X017526Y003188D01*
X017526Y003187D02*
X021036Y003187D01*
X021036Y003186D02*
X017526Y003186D01*
X017526Y003185D02*
X021036Y003185D01*
X021036Y003184D02*
X017526Y003184D01*
X017526Y003183D02*
X021036Y003183D01*
X021036Y003182D02*
X017526Y003182D01*
X017526Y003181D02*
X021036Y003181D01*
X021036Y003180D02*
X017526Y003180D01*
X017526Y003179D02*
X021036Y003179D01*
X021036Y003178D02*
X017526Y003178D01*
X017526Y003177D02*
X021036Y003177D01*
X021036Y003176D02*
X017526Y003176D01*
X017526Y003175D02*
X021036Y003175D01*
X021036Y003174D02*
X017526Y003174D01*
X017526Y003173D02*
X021036Y003173D01*
X021036Y003172D02*
X017526Y003172D01*
X017526Y003171D02*
X021036Y003171D01*
X021036Y003170D02*
X017526Y003170D01*
X017526Y003169D02*
X021036Y003169D01*
X021036Y003168D02*
X017526Y003168D01*
X017526Y003167D02*
X021036Y003167D01*
X021036Y003166D02*
X017526Y003166D01*
X017526Y003165D02*
X021036Y003165D01*
X021036Y003164D02*
X017526Y003164D01*
X017526Y003163D02*
X021036Y003163D01*
X021036Y003162D02*
X017526Y003162D01*
X017526Y003161D02*
X021036Y003161D01*
X021036Y003160D02*
X017526Y003160D01*
X017526Y003159D02*
X021036Y003159D01*
X021036Y003158D02*
X017526Y003158D01*
X017526Y003157D02*
X021036Y003157D01*
X021036Y003156D02*
X017526Y003156D01*
X017526Y003155D02*
X021036Y003155D01*
X021036Y003154D02*
X017526Y003154D01*
X017526Y003153D02*
X021036Y003153D01*
X021036Y003152D02*
X017526Y003152D01*
X017526Y003151D02*
X021036Y003151D01*
X021036Y003150D02*
X017526Y003150D01*
X017526Y003149D02*
X021036Y003149D01*
X021036Y003148D02*
X017526Y003148D01*
X017526Y003147D02*
X021036Y003147D01*
X021036Y003146D02*
X017526Y003146D01*
X017526Y003145D02*
X021036Y003145D01*
X021036Y003144D02*
X017526Y003144D01*
X017526Y003143D02*
X021036Y003143D01*
X021036Y003142D02*
X017526Y003142D01*
X017526Y003141D02*
X021036Y003141D01*
X021036Y003140D02*
X017526Y003140D01*
X017526Y003139D02*
X021036Y003139D01*
X021036Y003138D02*
X017526Y003138D01*
X017526Y003137D02*
X021036Y003137D01*
X021036Y003136D02*
X017526Y003136D01*
X017526Y003135D02*
X021036Y003135D01*
X021036Y003134D02*
X017526Y003134D01*
X017526Y003133D02*
X021036Y003133D01*
X021036Y003132D02*
X017526Y003132D01*
X017526Y003131D02*
X021036Y003131D01*
X021036Y003130D02*
X017526Y003130D01*
X017526Y003129D02*
X021036Y003129D01*
X021036Y003128D02*
X017526Y003128D01*
X017526Y003127D02*
X021036Y003127D01*
X021036Y003126D02*
X017526Y003126D01*
X017526Y003125D02*
X021036Y003125D01*
X021036Y003124D02*
X017526Y003124D01*
X017526Y003123D02*
X021036Y003123D01*
X021036Y003122D02*
X017526Y003122D01*
X017526Y003121D02*
X021036Y003121D01*
X021036Y003120D02*
X017526Y003120D01*
X017526Y003119D02*
X021036Y003119D01*
X021036Y003118D02*
X017526Y003118D01*
X017526Y003117D02*
X021036Y003117D01*
X021036Y003116D02*
X017526Y003116D01*
X017526Y003115D02*
X021036Y003115D01*
X021036Y003114D02*
X017526Y003114D01*
X017526Y003113D02*
X021036Y003113D01*
X021036Y003112D02*
X017526Y003112D01*
X017526Y003111D02*
X021036Y003111D01*
X021036Y003110D02*
X017526Y003110D01*
X017526Y003109D02*
X021036Y003109D01*
X021036Y003108D02*
X017526Y003108D01*
X017526Y003107D02*
X021036Y003107D01*
X021036Y003106D02*
X017526Y003106D01*
X017526Y003105D02*
X021036Y003105D01*
X021036Y003104D02*
X017526Y003104D01*
X017526Y003103D02*
X021036Y003103D01*
X021036Y003102D02*
X017526Y003102D01*
X017526Y003101D02*
X021036Y003101D01*
X021036Y003100D02*
X017526Y003100D01*
X017526Y003099D02*
X021036Y003099D01*
X021036Y003098D02*
X017526Y003098D01*
X017526Y003097D02*
X021036Y003097D01*
X021036Y003096D02*
X017526Y003096D01*
X017526Y003095D02*
X021036Y003095D01*
X021036Y003094D02*
X017526Y003094D01*
X017526Y003093D02*
X021036Y003093D01*
X021036Y003092D02*
X017526Y003092D01*
X017526Y003091D02*
X021036Y003091D01*
X021036Y003090D02*
X017526Y003090D01*
X017526Y003089D02*
X021036Y003089D01*
X021036Y003088D02*
X017526Y003088D01*
X017526Y003087D02*
X021036Y003087D01*
X021036Y003086D02*
X017526Y003086D01*
X017526Y003085D02*
X021036Y003085D01*
X021036Y003084D02*
X017526Y003084D01*
X017526Y003083D02*
X021036Y003083D01*
X021036Y003082D02*
X017526Y003082D01*
X017526Y003081D02*
X021036Y003081D01*
X021036Y003080D02*
X017526Y003080D01*
X017526Y003079D02*
X021036Y003079D01*
X021036Y003078D02*
X017526Y003078D01*
X017526Y003077D02*
X021036Y003077D01*
X021036Y003076D02*
X017526Y003076D01*
X017526Y003075D02*
X021036Y003075D01*
X021036Y003074D02*
X017526Y003074D01*
X017526Y003073D02*
X021036Y003073D01*
X021036Y003072D02*
X017526Y003072D01*
X017526Y003071D02*
X021036Y003071D01*
X021036Y003070D02*
X017526Y003070D01*
X017526Y003069D02*
X021036Y003069D01*
X021036Y003068D02*
X017526Y003068D01*
X017526Y003067D02*
X021036Y003067D01*
X021036Y003066D02*
X017526Y003066D01*
X017526Y003065D02*
X021036Y003065D01*
X021036Y003064D02*
X017526Y003064D01*
X017526Y003063D02*
X021036Y003063D01*
X021036Y003062D02*
X017526Y003062D01*
X017526Y003061D02*
X021036Y003061D01*
X021036Y003060D02*
X017526Y003060D01*
X017526Y003059D02*
X021036Y003059D01*
X021036Y003058D02*
X017526Y003058D01*
X017526Y003057D02*
X021036Y003057D01*
X021036Y003056D02*
X017526Y003056D01*
X017526Y003055D02*
X021036Y003055D01*
X021036Y003054D02*
X017526Y003054D01*
X017526Y003053D02*
X021036Y003053D01*
X021036Y003052D02*
X017526Y003052D01*
X017526Y003051D02*
X021036Y003051D01*
X021036Y003050D02*
X017526Y003050D01*
X017526Y003049D02*
X021036Y003049D01*
X021036Y003048D02*
X017526Y003048D01*
X017526Y003047D02*
X021036Y003047D01*
X021036Y003046D02*
X017526Y003046D01*
X017526Y003045D02*
X021036Y003045D01*
X021036Y003044D02*
X017526Y003044D01*
X017526Y003043D02*
X021036Y003043D01*
X021036Y003042D02*
X017526Y003042D01*
X017526Y003041D02*
X021036Y003041D01*
X021036Y003040D02*
X017526Y003040D01*
X017526Y003039D02*
X021036Y003039D01*
X021036Y003038D02*
X017526Y003038D01*
X017526Y003037D02*
X021036Y003037D01*
X021036Y003036D02*
X017526Y003036D01*
X017526Y003035D02*
X021036Y003035D01*
X021036Y003034D02*
X017526Y003034D01*
X017526Y003033D02*
X021036Y003033D01*
X021036Y003032D02*
X017526Y003032D01*
X017526Y003031D02*
X021036Y003031D01*
X021036Y003030D02*
X017526Y003030D01*
X017526Y003029D02*
X021036Y003029D01*
X021036Y003028D02*
X017526Y003028D01*
X017526Y003027D02*
X021036Y003027D01*
X021036Y003026D02*
X017526Y003026D01*
X017526Y003025D02*
X021036Y003025D01*
X021036Y003024D02*
X017526Y003024D01*
X017526Y003023D02*
X021036Y003023D01*
X021036Y003022D02*
X017526Y003022D01*
X017526Y003021D02*
X021036Y003021D01*
X021036Y003020D02*
X017526Y003020D01*
X017526Y003019D02*
X021036Y003019D01*
X021036Y003018D02*
X017526Y003018D01*
X017526Y003017D02*
X021036Y003017D01*
X021036Y003016D02*
X017526Y003016D01*
X017526Y003015D02*
X021036Y003015D01*
X021036Y003014D02*
X017526Y003014D01*
X017526Y003013D02*
X021036Y003013D01*
X021036Y003012D02*
X017526Y003012D01*
X017526Y003011D02*
X021036Y003011D01*
X021036Y003010D02*
X017526Y003010D01*
X017526Y003009D02*
X021036Y003009D01*
X021036Y003008D02*
X017526Y003008D01*
X017526Y003007D02*
X021036Y003007D01*
X021036Y003006D02*
X017526Y003006D01*
X017526Y003005D02*
X021036Y003005D01*
X021036Y003004D02*
X017526Y003004D01*
X017526Y003003D02*
X021036Y003003D01*
X021036Y003002D02*
X017526Y003002D01*
X017526Y003001D02*
X021036Y003001D01*
X021036Y003000D02*
X017526Y003000D01*
X017526Y002999D02*
X021036Y002999D01*
X021036Y002998D02*
X017526Y002998D01*
X017526Y002997D02*
X021036Y002997D01*
X021036Y002996D02*
X017526Y002996D01*
X017526Y002995D02*
X021036Y002995D01*
X021036Y002994D02*
X017526Y002994D01*
X017526Y002993D02*
X021036Y002993D01*
X021036Y002992D02*
X017526Y002992D01*
X017526Y002991D02*
X021036Y002991D01*
X021036Y002990D02*
X017526Y002990D01*
X017526Y002989D02*
X021036Y002989D01*
X021036Y002988D02*
X017526Y002988D01*
X017526Y002987D02*
X021036Y002987D01*
X021036Y002986D02*
X017526Y002986D01*
X017526Y002985D02*
X021036Y002985D01*
X021036Y002984D02*
X017526Y002984D01*
X017526Y002983D02*
X021036Y002983D01*
X021036Y002982D02*
X017526Y002982D01*
X017526Y002981D02*
X021036Y002981D01*
X021036Y002980D02*
X017526Y002980D01*
X017526Y002979D02*
X021036Y002979D01*
X021036Y002978D02*
X017526Y002978D01*
X017526Y002977D02*
X021036Y002977D01*
X021036Y002976D02*
X017526Y002976D01*
X017526Y002975D02*
X021036Y002975D01*
X021036Y002974D02*
X017526Y002974D01*
X017526Y002973D02*
X021036Y002973D01*
X021036Y002972D02*
X017526Y002972D01*
X017526Y002971D02*
X021036Y002971D01*
X021036Y002970D02*
X017526Y002970D01*
X017526Y002969D02*
X021036Y002969D01*
X021036Y002968D02*
X017526Y002968D01*
X017526Y002967D02*
X021036Y002967D01*
X021036Y002966D02*
X017526Y002966D01*
X017526Y002965D02*
X021036Y002965D01*
X021036Y002964D02*
X017526Y002964D01*
X017526Y002963D02*
X021036Y002963D01*
X021036Y002962D02*
X017526Y002962D01*
X017526Y002961D02*
X021036Y002961D01*
X021036Y002960D02*
X017526Y002960D01*
X017526Y002959D02*
X021036Y002959D01*
X021036Y002958D02*
X017526Y002958D01*
X017526Y002957D02*
X021036Y002957D01*
X021036Y002956D02*
X017526Y002956D01*
X017526Y002955D02*
X021036Y002955D01*
X021036Y002954D02*
X017526Y002954D01*
X017526Y002953D02*
X021036Y002953D01*
X021036Y002952D02*
X017526Y002952D01*
X017526Y002951D02*
X021036Y002951D01*
X021036Y002950D02*
X017526Y002950D01*
X017526Y002949D02*
X021036Y002949D01*
X021036Y002948D02*
X017526Y002948D01*
X017526Y002947D02*
X021036Y002947D01*
X021036Y002946D02*
X017526Y002946D01*
X017526Y002945D02*
X021036Y002945D01*
X021036Y002944D02*
X017526Y002944D01*
X017526Y002943D02*
X021036Y002943D01*
X021036Y002942D02*
X017526Y002942D01*
X017526Y002941D02*
X021036Y002941D01*
X021036Y002940D02*
X017526Y002940D01*
X017526Y002939D02*
X021036Y002939D01*
X021036Y002938D02*
X017526Y002938D01*
X017526Y002937D02*
X021036Y002937D01*
X021036Y002936D02*
X017526Y002936D01*
X017526Y002935D02*
X021036Y002935D01*
X017526Y002935D01*
X017526Y002934D02*
X021036Y002934D01*
X021036Y002933D02*
X017526Y002933D01*
X017526Y002932D02*
X021036Y002932D01*
X021036Y002931D02*
X017526Y002931D01*
X017526Y002930D02*
X021036Y002930D01*
X021036Y002929D02*
X017526Y002929D01*
X017526Y002928D02*
X021036Y002928D01*
X021036Y002927D02*
X017526Y002927D01*
X017526Y002926D02*
X021036Y002926D01*
X021036Y002925D02*
X017526Y002925D01*
X017526Y002924D02*
X021036Y002924D01*
X021036Y002923D02*
X017526Y002923D01*
X017526Y002922D02*
X021036Y002922D01*
X021036Y002921D02*
X017526Y002921D01*
X017526Y002920D02*
X021036Y002920D01*
X021036Y002919D02*
X017526Y002919D01*
X017526Y002918D02*
X021036Y002918D01*
X021036Y002917D02*
X017526Y002917D01*
X017526Y002916D02*
X021036Y002916D01*
X021036Y002915D02*
X017526Y002915D01*
X017526Y002914D02*
X021036Y002914D01*
X021036Y002913D02*
X017526Y002913D01*
X017526Y002912D02*
X021036Y002912D01*
X021036Y002911D02*
X017526Y002911D01*
X017526Y002910D02*
X021036Y002910D01*
X021036Y002909D02*
X017526Y002909D01*
X017526Y002908D02*
X021036Y002908D01*
X021036Y002907D02*
X017526Y002907D01*
X017526Y002906D02*
X021036Y002906D01*
X021036Y002905D02*
X017526Y002905D01*
X017526Y002904D02*
X021036Y002904D01*
X021036Y002903D02*
X017526Y002903D01*
X017526Y002902D02*
X021036Y002902D01*
X021036Y002901D02*
X017526Y002901D01*
X017526Y002900D02*
X021036Y002900D01*
X021036Y002899D02*
X017526Y002899D01*
X017526Y002898D02*
X021036Y002898D01*
X021036Y002897D02*
X017526Y002897D01*
X017526Y002896D02*
X021036Y002896D01*
X021036Y002895D02*
X017526Y002895D01*
X017526Y002894D02*
X021036Y002894D01*
X021036Y002893D02*
X017526Y002893D01*
X017526Y002892D02*
X021036Y002892D01*
X021036Y002891D02*
X017526Y002891D01*
X017526Y002890D02*
X021036Y002890D01*
X021036Y002889D02*
X017526Y002889D01*
X017526Y002888D02*
X021036Y002888D01*
X021036Y002887D02*
X017526Y002887D01*
X017526Y002886D02*
X021036Y002886D01*
X021036Y002885D02*
X017526Y002885D01*
X017526Y002884D02*
X021036Y002884D01*
X021036Y002883D02*
X017526Y002883D01*
X017526Y002882D02*
X021036Y002882D01*
X021036Y002881D02*
X017526Y002881D01*
X017526Y002880D02*
X021036Y002880D01*
X021036Y002879D02*
X017526Y002879D01*
X017526Y002878D02*
X021036Y002878D01*
X021036Y002877D02*
X017526Y002877D01*
X017526Y002876D02*
X021036Y002876D01*
X021036Y002875D02*
X017526Y002875D01*
X017526Y002874D02*
X021036Y002874D01*
X021036Y002873D02*
X017526Y002873D01*
X017526Y002872D02*
X021036Y002872D01*
X021036Y002871D02*
X017526Y002871D01*
X017526Y002870D02*
X021036Y002870D01*
X021036Y002869D02*
X017526Y002869D01*
X017526Y002868D02*
X021036Y002868D01*
X021036Y002867D02*
X017526Y002867D01*
X017526Y002866D02*
X021036Y002866D01*
X021036Y002865D02*
X017526Y002865D01*
X017526Y002864D02*
X021036Y002864D01*
X021036Y002863D02*
X017526Y002863D01*
X017526Y002862D02*
X021036Y002862D01*
X021036Y002861D02*
X017526Y002861D01*
X017526Y002860D02*
X021036Y002860D01*
X021036Y002859D02*
X017526Y002859D01*
X017526Y002858D02*
X021036Y002858D01*
X021036Y002857D02*
X017526Y002857D01*
X017526Y002856D02*
X021036Y002856D01*
X021036Y002855D02*
X017526Y002855D01*
X017526Y002854D02*
X021036Y002854D01*
X021036Y002853D02*
X017526Y002853D01*
X017526Y002852D02*
X021036Y002852D01*
X021036Y002851D02*
X017526Y002851D01*
X017526Y002850D02*
X021036Y002850D01*
X021036Y002849D02*
X017526Y002849D01*
X017526Y002848D02*
X021036Y002848D01*
X021036Y002847D02*
X017526Y002847D01*
X017526Y002846D02*
X021036Y002846D01*
X021036Y002845D02*
X017526Y002845D01*
X017526Y002844D02*
X021036Y002844D01*
X021036Y002843D02*
X017526Y002843D01*
X017526Y002842D02*
X021036Y002842D01*
X021036Y002841D02*
X017526Y002841D01*
X017526Y002840D02*
X021036Y002840D01*
X021036Y002839D02*
X017526Y002839D01*
X017526Y002838D02*
X021036Y002838D01*
X021036Y002837D02*
X017526Y002837D01*
X017526Y002836D02*
X021036Y002836D01*
X021036Y002835D02*
X017526Y002835D01*
X017526Y002834D02*
X021036Y002834D01*
X021036Y002833D02*
X017526Y002833D01*
X017526Y002832D02*
X021036Y002832D01*
X021036Y002831D02*
X017526Y002831D01*
X017526Y002830D02*
X021036Y002830D01*
X021036Y002829D02*
X017526Y002829D01*
X017526Y002828D02*
X021036Y002828D01*
X021036Y002827D02*
X017526Y002827D01*
X017526Y002826D02*
X021036Y002826D01*
X021036Y002825D02*
X017526Y002825D01*
X017526Y002824D02*
X021036Y002824D01*
X021036Y002823D02*
X017526Y002823D01*
X017526Y002822D02*
X021036Y002822D01*
X021036Y002821D02*
X017526Y002821D01*
X017526Y002820D02*
X021036Y002820D01*
X021036Y002819D02*
X017526Y002819D01*
X017526Y002818D02*
X021036Y002818D01*
X021036Y002817D02*
X017526Y002817D01*
X017526Y002816D02*
X021036Y002816D01*
X021036Y002815D02*
X017526Y002815D01*
X017526Y002814D02*
X021036Y002814D01*
X021036Y002813D02*
X017526Y002813D01*
X017526Y002812D02*
X021036Y002812D01*
X021036Y002811D02*
X017526Y002811D01*
X017526Y002810D02*
X021036Y002810D01*
X021036Y002809D02*
X017526Y002809D01*
X017526Y002808D02*
X021036Y002808D01*
X021036Y002807D02*
X017526Y002807D01*
X017526Y002806D02*
X021036Y002806D01*
X021036Y002805D02*
X017526Y002805D01*
X017526Y002804D02*
X021036Y002804D01*
X021036Y002803D02*
X017526Y002803D01*
X017526Y002802D02*
X021036Y002802D01*
X021036Y002801D02*
X017526Y002801D01*
X017526Y002800D02*
X021036Y002800D01*
X021036Y002799D02*
X017526Y002799D01*
X017526Y002798D02*
X021036Y002798D01*
X021036Y002797D02*
X017526Y002797D01*
X017526Y002796D02*
X021036Y002796D01*
X021036Y002795D02*
X017526Y002795D01*
X017526Y002794D02*
X021036Y002794D01*
X021036Y002793D02*
X017526Y002793D01*
X017526Y002792D02*
X021036Y002792D01*
X021036Y002791D02*
X017526Y002791D01*
X017526Y002790D02*
X021036Y002790D01*
X021036Y002789D02*
X017526Y002789D01*
X017526Y002788D02*
X021036Y002788D01*
X021036Y002787D02*
X017526Y002787D01*
X017526Y002786D02*
X021036Y002786D01*
X021036Y002785D02*
X017526Y002785D01*
X017526Y002784D02*
X021036Y002784D01*
X021036Y002783D02*
X017526Y002783D01*
X017526Y002782D02*
X021036Y002782D01*
X021036Y002781D02*
X017526Y002781D01*
X017526Y002780D02*
X021036Y002780D01*
X021036Y002779D02*
X017526Y002779D01*
X017526Y002778D02*
X021036Y002778D01*
X021036Y002777D02*
X017526Y002777D01*
X017526Y002776D02*
X021036Y002776D01*
X021036Y002775D02*
X017526Y002775D01*
X017526Y002774D02*
X021036Y002774D01*
X021036Y002773D02*
X017526Y002773D01*
X017526Y002772D02*
X021036Y002772D01*
X021036Y002771D02*
X017526Y002771D01*
X017526Y002770D02*
X021036Y002770D01*
X021036Y002769D02*
X017526Y002769D01*
X017526Y002768D02*
X021036Y002768D01*
X021036Y002767D02*
X017526Y002767D01*
X017526Y002766D02*
X021036Y002766D01*
X021036Y002765D02*
X017526Y002765D01*
X017526Y002764D02*
X021036Y002764D01*
X021036Y002763D02*
X017526Y002763D01*
X017526Y002762D02*
X021036Y002762D01*
X021036Y002761D02*
X017526Y002761D01*
X017526Y002760D02*
X021036Y002760D01*
X021036Y002759D02*
X017526Y002759D01*
X017526Y002758D02*
X021036Y002758D01*
X021036Y002757D02*
X017526Y002757D01*
X017526Y002756D02*
X021036Y002756D01*
X021036Y002755D02*
X017526Y002755D01*
X017526Y002754D02*
X021036Y002754D01*
X021036Y002753D02*
X017526Y002753D01*
X017526Y002752D02*
X021036Y002752D01*
X021036Y002751D02*
X017526Y002751D01*
X017526Y002750D02*
X021036Y002750D01*
X021036Y002749D02*
X017526Y002749D01*
X017526Y002748D02*
X021036Y002748D01*
X021036Y002747D02*
X017526Y002747D01*
X017526Y002746D02*
X021036Y002746D01*
X021036Y002745D02*
X017526Y002745D01*
X017526Y002744D02*
X021036Y002744D01*
X021036Y002743D02*
X017526Y002743D01*
X017526Y002742D02*
X021036Y002742D01*
X021036Y002741D02*
X017526Y002741D01*
X017526Y002740D02*
X021036Y002740D01*
X021036Y002739D02*
X017526Y002739D01*
X017526Y002738D02*
X021036Y002738D01*
X021036Y002737D02*
X017526Y002737D01*
X017526Y002736D02*
X021036Y002736D01*
X021036Y002735D02*
X017526Y002735D01*
X017526Y002734D02*
X021036Y002734D01*
X021036Y002733D02*
X017526Y002733D01*
X017526Y002732D02*
X021036Y002732D01*
X021036Y002731D02*
X017526Y002731D01*
X017526Y002730D02*
X021036Y002730D01*
X021036Y002729D02*
X017526Y002729D01*
X017526Y002728D02*
X021036Y002728D01*
X021036Y002727D02*
X017526Y002727D01*
X017526Y002726D02*
X021036Y002726D01*
X021036Y002725D02*
X017526Y002725D01*
X017526Y002724D02*
X021036Y002724D01*
X021036Y002723D02*
X017526Y002723D01*
X017526Y002722D02*
X021036Y002722D01*
X021036Y002721D02*
X017526Y002721D01*
X017526Y002720D02*
X021036Y002720D01*
X021036Y002719D02*
X017526Y002719D01*
X017526Y002718D02*
X021036Y002718D01*
X021036Y002717D02*
X017526Y002717D01*
X017526Y002716D02*
X021036Y002716D01*
X021036Y002715D02*
X017526Y002715D01*
X017526Y002714D02*
X021036Y002714D01*
X021036Y002713D02*
X017526Y002713D01*
X017526Y002712D02*
X021036Y002712D01*
X021036Y002711D02*
X017526Y002711D01*
X017526Y002710D02*
X021036Y002710D01*
X021036Y002709D02*
X017526Y002709D01*
X017526Y002708D02*
X021036Y002708D01*
X021036Y002707D02*
X017526Y002707D01*
X017526Y002706D02*
X021036Y002706D01*
X021036Y002705D02*
X017526Y002705D01*
X017526Y002704D02*
X021036Y002704D01*
X021036Y002703D02*
X017526Y002703D01*
X017526Y002702D02*
X021036Y002702D01*
X021036Y002701D02*
X017526Y002701D01*
X017526Y002700D02*
X021036Y002700D01*
X021036Y002699D02*
X017526Y002699D01*
X017526Y002698D02*
X021036Y002698D01*
X021036Y002697D02*
X017526Y002697D01*
X017526Y002696D02*
X021036Y002696D01*
X021036Y002695D02*
X017526Y002695D01*
X017526Y002694D02*
X021036Y002694D01*
X021036Y002693D02*
X017526Y002693D01*
X017526Y002692D02*
X021036Y002692D01*
X021036Y002691D02*
X017526Y002691D01*
X017526Y002690D02*
X021036Y002690D01*
X021036Y002689D02*
X017526Y002689D01*
X017526Y002688D02*
X021036Y002688D01*
X021036Y002687D02*
X017526Y002687D01*
X017526Y002686D02*
X021036Y002686D01*
X021036Y002685D02*
X017526Y002685D01*
X017526Y002684D02*
X021036Y002684D01*
X021036Y002683D02*
X017526Y002683D01*
X017526Y002682D02*
X021036Y002682D01*
X021036Y002681D02*
X017526Y002681D01*
X017526Y002680D02*
X021036Y002680D01*
X021036Y002679D02*
X017526Y002679D01*
X017526Y002678D02*
X021036Y002678D01*
X021036Y002677D02*
X017526Y002677D01*
X017526Y002676D02*
X021036Y002676D01*
X021036Y002675D02*
X017526Y002675D01*
X017526Y002674D02*
X021036Y002674D01*
X021036Y002673D02*
X017526Y002673D01*
X017526Y002672D02*
X021036Y002672D01*
X021036Y002671D02*
X017526Y002671D01*
X017526Y002670D02*
X021036Y002670D01*
X021036Y002669D02*
X017526Y002669D01*
X017526Y002668D02*
X021036Y002668D01*
X021036Y002667D02*
X017526Y002667D01*
X017526Y002666D02*
X021036Y002666D01*
X021036Y002665D02*
X017526Y002665D01*
X017526Y002664D02*
X021036Y002664D01*
X021036Y002663D02*
X017526Y002663D01*
X017526Y002662D02*
X021036Y002662D01*
X021036Y002661D02*
X017526Y002661D01*
X017526Y002660D02*
X021036Y002660D01*
X021036Y002659D02*
X017526Y002659D01*
X017526Y002658D02*
X021036Y002658D01*
X021036Y002657D02*
X017526Y002657D01*
X017526Y002656D02*
X021036Y002656D01*
X021036Y002655D02*
X017526Y002655D01*
X017526Y002654D02*
X021036Y002654D01*
X021036Y002653D02*
X017526Y002653D01*
X017526Y002652D02*
X021036Y002652D01*
X021036Y002651D02*
X017526Y002651D01*
X017526Y002650D02*
X021036Y002650D01*
X021036Y002649D02*
X017526Y002649D01*
X017526Y002648D02*
X021036Y002648D01*
X021036Y002647D02*
X017526Y002647D01*
X017526Y002646D02*
X021036Y002646D01*
X021036Y002645D02*
X017526Y002645D01*
X017526Y002644D02*
X021036Y002644D01*
X021036Y002643D02*
X017526Y002643D01*
X017526Y002642D02*
X021036Y002642D01*
X021036Y002641D02*
X017526Y002641D01*
X017526Y002640D02*
X021036Y002640D01*
X021036Y002639D02*
X017526Y002639D01*
X017526Y002638D02*
X021036Y002638D01*
X021036Y002637D02*
X017526Y002637D01*
X017526Y002636D02*
X021036Y002636D01*
X021036Y002635D02*
X017526Y002635D01*
X017526Y002634D02*
X021036Y002634D01*
X021036Y002633D02*
X017526Y002633D01*
X017526Y002632D02*
X021036Y002632D01*
X021036Y002631D02*
X017526Y002631D01*
X017526Y002630D02*
X021036Y002630D01*
X021036Y002629D02*
X017526Y002629D01*
X017526Y002628D02*
X021036Y002628D01*
X021036Y002627D02*
X017526Y002627D01*
X017526Y002626D02*
X021036Y002626D01*
X021036Y002625D02*
X017526Y002625D01*
X017526Y002624D02*
X021036Y002624D01*
X021036Y002623D02*
X017526Y002623D01*
X017526Y002622D02*
X021036Y002622D01*
X021036Y002621D02*
X017526Y002621D01*
X017526Y002620D02*
X021036Y002620D01*
X021036Y002619D02*
X017526Y002619D01*
X017526Y002618D02*
X021036Y002618D01*
X021036Y002617D02*
X017526Y002617D01*
X017526Y002616D02*
X021036Y002616D01*
X021036Y002615D02*
X017526Y002615D01*
X017526Y002614D02*
X021036Y002614D01*
X021036Y002613D02*
X017526Y002613D01*
X017526Y002612D02*
X021036Y002612D01*
X021036Y002611D02*
X017526Y002611D01*
X017526Y002610D02*
X021036Y002610D01*
X021036Y002609D02*
X017526Y002609D01*
X017526Y002608D02*
X021036Y002608D01*
X021036Y002607D02*
X017526Y002607D01*
X017526Y002606D02*
X021036Y002606D01*
X021036Y002605D02*
X017526Y002605D01*
X017526Y002604D02*
X021036Y002604D01*
X021036Y002603D02*
X017526Y002603D01*
X017526Y002602D02*
X021036Y002602D01*
X021036Y002601D02*
X017526Y002601D01*
X017526Y002600D02*
X021036Y002600D01*
X021036Y002599D02*
X017526Y002599D01*
X017526Y002598D02*
X021036Y002598D01*
X021036Y002597D02*
X017526Y002597D01*
X017526Y002596D02*
X021036Y002596D01*
X021036Y002595D02*
X017526Y002595D01*
X017526Y002594D02*
X021036Y002594D01*
X021036Y002593D02*
X017526Y002593D01*
X017526Y002592D02*
X021036Y002592D01*
X021036Y002591D02*
X017526Y002591D01*
X017526Y002590D02*
X021036Y002590D01*
X021036Y002589D02*
X017526Y002589D01*
X017526Y002588D02*
X021036Y002588D01*
X021036Y002587D02*
X017526Y002587D01*
X017526Y002586D02*
X021036Y002586D01*
X021036Y002585D02*
X017526Y002585D01*
X017526Y002584D02*
X021036Y002584D01*
X021036Y002583D02*
X017526Y002583D01*
X017526Y002582D02*
X021036Y002582D01*
X021036Y002581D02*
X017526Y002581D01*
X017526Y002580D02*
X021036Y002580D01*
X021036Y002579D02*
X017526Y002579D01*
X017526Y002578D02*
X021036Y002578D01*
X021036Y002577D02*
X017526Y002577D01*
X017526Y002576D02*
X021036Y002576D01*
X021036Y002575D02*
X017526Y002575D01*
X017526Y002574D02*
X021036Y002574D01*
X021036Y002573D02*
X017526Y002573D01*
X017526Y002572D02*
X021036Y002572D01*
X021036Y002571D02*
X017526Y002571D01*
X017526Y002570D02*
X021036Y002570D01*
X021036Y002569D02*
X017526Y002569D01*
X017526Y002568D02*
X021036Y002568D01*
X021036Y002567D02*
X017526Y002567D01*
X017526Y002566D02*
X021036Y002566D01*
X021036Y002565D02*
X017526Y002565D01*
X017526Y002564D02*
X021036Y002564D01*
X021036Y002563D02*
X017526Y002563D01*
X017526Y002562D02*
X021036Y002562D01*
X021036Y002561D02*
X017526Y002561D01*
X017526Y002560D02*
X021036Y002560D01*
X021036Y002559D02*
X017526Y002559D01*
X017526Y002558D02*
X021036Y002558D01*
X021036Y002557D02*
X017526Y002557D01*
X017526Y002556D02*
X021036Y002556D01*
X021036Y002555D02*
X017526Y002555D01*
X017526Y002554D02*
X021036Y002554D01*
X021036Y002553D02*
X017526Y002553D01*
X017526Y002552D02*
X021036Y002552D01*
X021036Y002551D02*
X017526Y002551D01*
X017526Y002550D02*
X021036Y002550D01*
X021036Y002549D02*
X017526Y002549D01*
X017526Y002548D02*
X021036Y002548D01*
X021036Y002547D02*
X017526Y002547D01*
X017526Y002546D02*
X021036Y002546D01*
X021036Y002545D02*
X017526Y002545D01*
X017526Y002544D02*
X021036Y002544D01*
X021036Y002543D02*
X017526Y002543D01*
X017526Y002542D02*
X021036Y002542D01*
X021036Y002541D02*
X017526Y002541D01*
X017526Y002540D02*
X021036Y002540D01*
X021036Y002539D02*
X017526Y002539D01*
X017526Y002538D02*
X021036Y002538D01*
X021036Y002537D02*
X017526Y002537D01*
X017526Y002536D02*
X021036Y002536D01*
X021036Y002535D02*
X017526Y002535D01*
X017526Y002534D02*
X021036Y002534D01*
X021036Y002533D02*
X017526Y002533D01*
X017526Y002532D02*
X021036Y002532D01*
X021036Y002531D02*
X017526Y002531D01*
X017526Y002530D02*
X021036Y002530D01*
X021036Y002529D02*
X017526Y002529D01*
X017526Y002528D02*
X021036Y002528D01*
X021036Y002527D02*
X017526Y002527D01*
X017526Y002526D02*
X021036Y002526D01*
X021036Y002525D02*
X017526Y002525D01*
X017526Y002524D02*
X021036Y002524D01*
X021036Y002523D02*
X017526Y002523D01*
X017526Y002522D02*
X021036Y002522D01*
X021036Y002521D02*
X017526Y002521D01*
X017526Y002520D02*
X021036Y002520D01*
X021036Y002519D02*
X017526Y002519D01*
X017526Y002518D02*
X021036Y002518D01*
X021036Y002517D02*
X017526Y002517D01*
X017526Y002516D02*
X021036Y002516D01*
X021036Y002515D02*
X017526Y002515D01*
X017526Y002514D02*
X021036Y002514D01*
X021036Y002513D02*
X017526Y002513D01*
X017526Y002512D02*
X021036Y002512D01*
X021036Y002511D02*
X017526Y002511D01*
X017526Y002510D02*
X021036Y002510D01*
X021036Y002509D02*
X017526Y002509D01*
X017526Y002508D02*
X021036Y002508D01*
X021036Y002507D02*
X017526Y002507D01*
X017526Y002506D02*
X021036Y002506D01*
X021036Y002505D02*
X017526Y002505D01*
X017526Y002504D02*
X021036Y002504D01*
X021036Y002503D02*
X017526Y002503D01*
X017526Y002502D02*
X021036Y002502D01*
X021036Y002501D02*
X017526Y002501D01*
X017526Y002500D02*
X021036Y002500D01*
X021036Y002499D02*
X017526Y002499D01*
X017526Y002498D02*
X021036Y002498D01*
X021036Y002497D02*
X017526Y002497D01*
X017526Y002496D02*
X021036Y002496D01*
X021036Y002495D02*
X017526Y002495D01*
X017526Y002494D02*
X021036Y002494D01*
X021036Y002493D02*
X017526Y002493D01*
X017526Y002492D02*
X021036Y002492D01*
X021036Y002491D02*
X017526Y002491D01*
X017526Y002490D02*
X021036Y002490D01*
X021036Y002489D02*
X017526Y002489D01*
X017526Y002488D02*
X021036Y002488D01*
X021036Y002487D02*
X017526Y002487D01*
X017526Y002486D02*
X021036Y002486D01*
X021036Y002485D02*
X017526Y002485D01*
X017526Y002484D02*
X021036Y002484D01*
X021036Y002483D02*
X017526Y002483D01*
X017526Y002482D02*
X021036Y002482D01*
X021036Y002481D02*
X017526Y002481D01*
X017526Y002480D02*
X021036Y002480D01*
X021036Y002479D02*
X017526Y002479D01*
X017526Y002478D02*
X021036Y002478D01*
X021036Y002477D02*
X017526Y002477D01*
X017526Y002476D02*
X021036Y002476D01*
X021036Y002475D02*
X017526Y002475D01*
X017526Y002474D02*
X021036Y002474D01*
X021036Y002473D02*
X017526Y002473D01*
X017526Y002472D02*
X021036Y002472D01*
X021036Y002471D02*
X017526Y002471D01*
X017526Y002470D02*
X021036Y002470D01*
X021036Y002469D02*
X017526Y002469D01*
X017526Y002468D02*
X021036Y002468D01*
X021036Y002467D02*
X017526Y002467D01*
X017526Y002466D02*
X021036Y002466D01*
X021036Y002465D02*
X017526Y002465D01*
X017526Y002464D02*
X021036Y002464D01*
X021036Y002463D02*
X017526Y002463D01*
X017526Y002462D02*
X021036Y002462D01*
X021036Y002461D02*
X017526Y002461D01*
X017526Y002460D02*
X021036Y002460D01*
X021036Y002459D02*
X017526Y002459D01*
X017526Y002458D02*
X021036Y002458D01*
X021036Y002457D02*
X017526Y002457D01*
X017526Y002456D02*
X021036Y002456D01*
X021036Y002455D02*
X017526Y002455D01*
X017526Y002454D02*
X021036Y002454D01*
X021036Y002453D02*
X017526Y002453D01*
X017526Y002452D02*
X021036Y002452D01*
X021036Y002451D02*
X017526Y002451D01*
X017526Y002450D02*
X021036Y002450D01*
X021036Y002449D02*
X017526Y002449D01*
X017526Y002448D02*
X021036Y002448D01*
X021036Y002447D02*
X017526Y002447D01*
X017526Y002446D02*
X021036Y002446D01*
X021036Y002445D02*
X017526Y002445D01*
X017526Y002444D02*
X021036Y002444D01*
X021036Y002443D02*
X017526Y002443D01*
X017526Y002442D02*
X021036Y002442D01*
X021036Y002441D02*
X017526Y002441D01*
X017526Y002440D02*
X021036Y002440D01*
X021036Y002439D02*
X017526Y002439D01*
X017526Y002438D02*
X021036Y002438D01*
X021036Y002437D02*
X017526Y002437D01*
X017526Y002436D02*
X021036Y002436D01*
X021036Y002435D02*
X017526Y002435D01*
X017526Y002434D02*
X021036Y002434D01*
X021036Y002433D02*
X017526Y002433D01*
X017526Y002432D02*
X021036Y002432D01*
X021036Y002431D02*
X017526Y002431D01*
X017526Y002430D02*
X021036Y002430D01*
X021036Y002429D02*
X017526Y002429D01*
X017526Y002428D02*
X021036Y002428D01*
X021036Y002427D02*
X017526Y002427D01*
X017526Y002426D02*
X021036Y002426D01*
X021036Y002425D02*
X017526Y002425D01*
X017526Y002424D02*
X021036Y002424D01*
X021036Y002423D02*
X017526Y002423D01*
X017526Y002422D02*
X021036Y002422D01*
X021036Y002421D02*
X017526Y002421D01*
X017526Y002420D02*
X021036Y002420D01*
X021036Y002419D02*
X017526Y002419D01*
X017526Y002418D02*
X021036Y002418D01*
X021036Y002417D02*
X017526Y002417D01*
X017526Y002416D02*
X021036Y002416D01*
X021036Y002415D02*
X017526Y002415D01*
X017526Y002414D02*
X021036Y002414D01*
X021036Y002413D02*
X017526Y002413D01*
X017526Y002412D02*
X021036Y002412D01*
X021036Y002411D02*
X017526Y002411D01*
X017526Y002410D02*
X021036Y002410D01*
X021036Y002409D02*
X017526Y002409D01*
X017526Y002408D02*
X021036Y002408D01*
X021036Y002407D02*
X017526Y002407D01*
X017526Y002406D02*
X021036Y002406D01*
X021036Y002405D02*
X017526Y002405D01*
X017526Y002404D02*
X021036Y002404D01*
X021036Y002403D02*
X017526Y002403D01*
X017526Y002402D02*
X021036Y002402D01*
X021036Y002401D02*
X017526Y002401D01*
X017526Y002400D02*
X021036Y002400D01*
X021036Y002399D02*
X017526Y002399D01*
X017526Y002398D02*
X021036Y002398D01*
X021036Y002397D02*
X017526Y002397D01*
X017526Y002396D02*
X021036Y002396D01*
X021036Y002395D02*
X017526Y002395D01*
X017526Y002394D02*
X021036Y002394D01*
X021036Y002393D02*
X017526Y002393D01*
X017526Y002392D02*
X021036Y002392D01*
X021036Y002391D02*
X017526Y002391D01*
X017526Y002390D02*
X021036Y002390D01*
X021036Y002389D02*
X017526Y002389D01*
X017526Y002388D02*
X021036Y002388D01*
X021036Y002387D02*
X017526Y002387D01*
X017526Y002386D02*
X021036Y002386D01*
X021036Y002385D02*
X017526Y002385D01*
X017526Y002384D02*
X021036Y002384D01*
X021036Y002383D02*
X017526Y002383D01*
X017526Y002382D02*
X021036Y002382D01*
X021036Y002381D02*
X017526Y002381D01*
X017526Y002380D02*
X021036Y002380D01*
X021036Y002379D02*
X017526Y002379D01*
X017526Y002378D02*
X021036Y002378D01*
X021036Y002377D02*
X017526Y002377D01*
X017526Y002376D02*
X021036Y002376D01*
X021036Y002375D02*
X017526Y002375D01*
X017526Y002374D02*
X021036Y002374D01*
X021036Y002373D02*
X017526Y002373D01*
X017526Y002372D02*
X021036Y002372D01*
X021036Y002371D02*
X017526Y002371D01*
X017526Y002370D02*
X021036Y002370D01*
X021036Y002369D02*
X017526Y002369D01*
X017526Y002368D02*
X021036Y002368D01*
X021036Y002367D02*
X017526Y002367D01*
X017526Y002366D02*
X021036Y002366D01*
X021036Y002365D02*
X017526Y002365D01*
X017526Y002364D02*
X021036Y002364D01*
X021036Y002363D02*
X017526Y002363D01*
X017526Y002362D02*
X021036Y002362D01*
X021036Y002361D02*
X017526Y002361D01*
X017526Y002360D02*
X021036Y002360D01*
X021036Y002359D02*
X017526Y002359D01*
X017526Y002358D02*
X021036Y002358D01*
X021036Y002357D02*
X017526Y002357D01*
X017526Y002356D02*
X021036Y002356D01*
X021036Y002355D02*
X017526Y002355D01*
X017526Y002354D02*
X021036Y002354D01*
X021036Y002353D02*
X017526Y002353D01*
X017526Y002352D02*
X021036Y002352D01*
X021036Y002351D02*
X017526Y002351D01*
X017526Y002350D02*
X021036Y002350D01*
X021036Y002349D02*
X017526Y002349D01*
X017526Y002348D02*
X021036Y002348D01*
X021036Y002347D02*
X017526Y002347D01*
X017526Y002346D02*
X021036Y002346D01*
X021036Y002345D02*
X017526Y002345D01*
X017526Y002344D02*
X021036Y002344D01*
X021036Y002343D02*
X017526Y002343D01*
X017526Y002342D02*
X021036Y002342D01*
X021036Y002341D02*
X017526Y002341D01*
X017526Y002340D02*
X021036Y002340D01*
X021036Y002339D02*
X017526Y002339D01*
X017526Y002338D02*
X021036Y002338D01*
X021036Y002337D02*
X017526Y002337D01*
X017526Y002336D02*
X021036Y002336D01*
X021036Y002335D02*
X017526Y002335D01*
X017526Y002334D02*
X021036Y002334D01*
X021036Y002333D02*
X017526Y002333D01*
X017526Y002332D02*
X021036Y002332D01*
X021036Y002331D02*
X017526Y002331D01*
X017526Y002330D02*
X021036Y002330D01*
X021036Y002329D02*
X017526Y002329D01*
X017526Y002328D02*
X021036Y002328D01*
X021036Y002327D02*
X017526Y002327D01*
X017526Y002326D02*
X021036Y002326D01*
X021036Y002325D02*
X017526Y002325D01*
X017526Y002324D02*
X021036Y002324D01*
X021036Y002323D02*
X017526Y002323D01*
X017526Y002322D02*
X021036Y002322D01*
X021036Y002321D02*
X017526Y002321D01*
X017526Y002320D02*
X021036Y002320D01*
X021036Y002319D02*
X017526Y002319D01*
X017526Y002318D02*
X021036Y002318D01*
X021036Y002317D02*
X017526Y002317D01*
X017526Y002316D02*
X021036Y002316D01*
X021036Y002315D02*
X017526Y002315D01*
X017526Y002314D02*
X021036Y002314D01*
X021036Y002313D02*
X017526Y002313D01*
X017526Y002312D02*
X021036Y002312D01*
X021036Y002311D02*
X017526Y002311D01*
X017526Y002310D02*
X021036Y002310D01*
X021036Y002309D02*
X017526Y002309D01*
X017526Y002308D02*
X021036Y002308D01*
X021036Y002307D02*
X017526Y002307D01*
X017526Y002306D02*
X021036Y002306D01*
X021036Y002305D02*
X017526Y002305D01*
X017526Y002304D02*
X021036Y002304D01*
X021036Y002303D02*
X017526Y002303D01*
X017526Y002302D02*
X021036Y002302D01*
X021036Y002301D02*
X017526Y002301D01*
X017526Y002300D02*
X021036Y002300D01*
X021036Y002299D02*
X017526Y002299D01*
X017526Y002298D02*
X021036Y002298D01*
X021036Y002297D02*
X017526Y002297D01*
X017526Y002296D02*
X021036Y002296D01*
X021036Y002295D02*
X017526Y002295D01*
X017526Y002294D02*
X021036Y002294D01*
X021036Y002293D02*
X017526Y002293D01*
X017526Y002292D02*
X021036Y002292D01*
X021036Y002291D02*
X017526Y002291D01*
X017526Y002290D02*
X021036Y002290D01*
X021036Y002289D02*
X017526Y002289D01*
X017526Y002288D02*
X021036Y002288D01*
X021036Y002287D02*
X017526Y002287D01*
X017526Y002286D02*
X021036Y002286D01*
X021036Y002285D02*
X017526Y002285D01*
X017526Y002284D02*
X021036Y002284D01*
X021036Y002283D02*
X017526Y002283D01*
X017526Y002282D02*
X021036Y002282D01*
X021036Y002281D02*
X017526Y002281D01*
X017526Y002280D02*
X021036Y002280D01*
X021036Y002279D02*
X017526Y002279D01*
X017526Y002278D02*
X021036Y002278D01*
X021036Y002277D02*
X017526Y002277D01*
X017526Y002276D02*
X021036Y002276D01*
X021036Y002275D02*
X017526Y002275D01*
X017526Y002274D02*
X021036Y002274D01*
X021036Y002273D02*
X017526Y002273D01*
X017526Y002272D02*
X021036Y002272D01*
X021036Y002271D02*
X017526Y002271D01*
X017526Y002270D02*
X021036Y002270D01*
X021036Y002269D02*
X017526Y002269D01*
X017526Y002268D02*
X021036Y002268D01*
X021036Y002267D02*
X017526Y002267D01*
X017526Y002266D02*
X021036Y002266D01*
X021036Y002265D02*
X017526Y002265D01*
X017526Y002264D02*
X021036Y002264D01*
X021036Y002263D02*
X017526Y002263D01*
X017526Y002262D02*
X021036Y002262D01*
X021036Y002261D02*
X017526Y002261D01*
X017526Y002260D02*
X021036Y002260D01*
X021036Y002259D02*
X017526Y002259D01*
X017526Y002258D02*
X021036Y002258D01*
X021036Y002257D02*
X017526Y002257D01*
X017526Y002256D02*
X021036Y002256D01*
X021036Y002255D02*
X017526Y002255D01*
X017526Y002254D02*
X021036Y002254D01*
X021036Y002253D02*
X017526Y002253D01*
X017526Y002252D02*
X021036Y002252D01*
X021036Y002251D02*
X017526Y002251D01*
X017526Y002250D02*
X021036Y002250D01*
X021036Y002249D02*
X017526Y002249D01*
X017526Y002248D02*
X021036Y002248D01*
X021036Y002247D02*
X017526Y002247D01*
X017526Y002246D02*
X021036Y002246D01*
X021036Y002245D02*
X017526Y002245D01*
X017526Y002244D02*
X021036Y002244D01*
X021036Y002243D02*
X017526Y002243D01*
X017526Y002242D02*
X021036Y002242D01*
X021036Y002241D02*
X017526Y002241D01*
X017526Y002240D02*
X021036Y002240D01*
X021036Y002239D02*
X017526Y002239D01*
X017526Y002238D02*
X021036Y002238D01*
X021036Y002237D02*
X017526Y002237D01*
X017526Y002236D02*
X021036Y002236D01*
X021036Y002235D02*
X017526Y002235D01*
X017526Y002234D02*
X021036Y002234D01*
X021036Y002233D02*
X017526Y002233D01*
X017526Y002232D02*
X021036Y002232D01*
X021036Y002231D02*
X017526Y002231D01*
X017526Y002230D02*
X021036Y002230D01*
X021036Y002229D02*
X017526Y002229D01*
X017526Y002228D02*
X021036Y002228D01*
X021036Y002227D02*
X017526Y002227D01*
X017526Y002226D02*
X021036Y002226D01*
X021036Y002225D02*
X017526Y002225D01*
X017526Y002224D02*
X021036Y002224D01*
X021036Y002223D02*
X017526Y002223D01*
X017526Y002222D02*
X021036Y002222D01*
X021036Y002221D02*
X017526Y002221D01*
X017526Y002220D02*
X021036Y002220D01*
X021036Y002219D02*
X017526Y002219D01*
X017526Y002218D02*
X021036Y002218D01*
X021036Y002217D02*
X017526Y002217D01*
X017526Y002216D02*
X021036Y002216D01*
X021036Y002215D02*
X017526Y002215D01*
X017526Y002214D02*
X021036Y002214D01*
X021036Y002213D02*
X017526Y002213D01*
X017526Y002212D02*
X021036Y002212D01*
X021036Y002211D02*
X017526Y002211D01*
X017526Y002210D02*
X021036Y002210D01*
X021036Y002209D02*
X017526Y002209D01*
X017526Y002208D02*
X021036Y002208D01*
X021036Y002207D02*
X017526Y002207D01*
X017526Y002206D02*
X021036Y002206D01*
X021036Y002205D02*
X017526Y002205D01*
X017526Y002204D02*
X021036Y002204D01*
X021036Y002203D02*
X017526Y002203D01*
X017526Y002202D02*
X021036Y002202D01*
X021036Y002201D02*
X017526Y002201D01*
X017526Y002200D02*
X021036Y002200D01*
X021036Y002199D02*
X017526Y002199D01*
X017526Y002198D02*
X021036Y002198D01*
X021036Y002197D02*
X017526Y002197D01*
X017526Y002196D02*
X021036Y002196D01*
X021036Y002195D02*
X017526Y002195D01*
X017526Y002194D02*
X021036Y002194D01*
X021036Y002193D02*
X017526Y002193D01*
X017526Y002192D02*
X021036Y002192D01*
X021036Y002191D02*
X017526Y002191D01*
X017526Y002190D02*
X021036Y002190D01*
X021036Y002189D02*
X017526Y002189D01*
X017526Y002188D02*
X021036Y002188D01*
X021036Y002187D02*
X017526Y002187D01*
X017526Y002186D02*
X021036Y002186D01*
X021036Y002185D02*
X017526Y002185D01*
X017526Y002184D02*
X021036Y002184D01*
X021036Y002183D02*
X017526Y002183D01*
X017526Y002182D02*
X021036Y002182D01*
X021036Y002181D02*
X017526Y002181D01*
X017526Y002180D02*
X021036Y002180D01*
X021036Y002179D02*
X017526Y002179D01*
X017526Y002178D02*
X021036Y002178D01*
X021036Y002177D02*
X017526Y002177D01*
X017526Y002176D02*
X021036Y002176D01*
X021036Y002175D02*
X017526Y002175D01*
X017526Y002174D02*
X021036Y002174D01*
X021036Y002173D02*
X017526Y002173D01*
X017526Y002172D02*
X021036Y002172D01*
X021036Y002171D02*
X017526Y002171D01*
X017526Y002170D02*
X021036Y002170D01*
X021036Y002169D02*
X017526Y002169D01*
X017526Y002168D02*
X021036Y002168D01*
X021036Y002167D02*
X017526Y002167D01*
X017526Y002166D02*
X021036Y002166D01*
X021036Y002165D02*
X017526Y002165D01*
X017526Y002164D02*
X021036Y002164D01*
X021036Y002163D02*
X017526Y002163D01*
X017526Y002162D02*
X021036Y002162D01*
X021036Y002161D02*
X017526Y002161D01*
X017526Y002160D02*
X021036Y002160D01*
X021036Y002159D02*
X017526Y002159D01*
X017526Y002158D02*
X021036Y002158D01*
X021036Y002157D02*
X017526Y002157D01*
X017526Y002156D02*
X021036Y002156D01*
X021036Y002155D02*
X017526Y002155D01*
X017526Y002154D02*
X021036Y002154D01*
X021036Y002153D02*
X017526Y002153D01*
X017526Y002152D02*
X021036Y002152D01*
X021036Y002151D02*
X017526Y002151D01*
X017526Y002150D02*
X021036Y002150D01*
X021036Y002149D02*
X017526Y002149D01*
X017526Y002148D02*
X021036Y002148D01*
X021036Y002147D02*
X017526Y002147D01*
X017526Y002146D02*
X021036Y002146D01*
X021036Y002145D02*
X017526Y002145D01*
X017526Y002144D02*
X021036Y002144D01*
X021036Y002143D02*
X017526Y002143D01*
X017526Y002142D02*
X021036Y002142D01*
X021036Y002141D02*
X017526Y002141D01*
X017526Y002140D02*
X021036Y002140D01*
X021036Y002139D02*
X017526Y002139D01*
X017526Y002138D02*
X021036Y002138D01*
X021036Y002137D02*
X017526Y002137D01*
X017526Y002136D02*
X021036Y002136D01*
X021036Y002135D02*
X017526Y002135D01*
X017526Y002134D02*
X021036Y002134D01*
X021036Y002133D02*
X017526Y002133D01*
X017526Y002132D02*
X021036Y002132D01*
X021036Y002131D02*
X017526Y002131D01*
X017526Y002130D02*
X021036Y002130D01*
X021036Y002129D02*
X017526Y002129D01*
X017526Y002128D02*
X021036Y002128D01*
X021036Y002127D02*
X017526Y002127D01*
X017526Y002126D02*
X021036Y002126D01*
X021036Y002125D02*
X017526Y002125D01*
X017526Y002124D02*
X021036Y002124D01*
X021036Y002123D02*
X017526Y002123D01*
X017526Y002122D02*
X021036Y002122D01*
X021036Y002121D02*
X017526Y002121D01*
X017526Y002120D02*
X021036Y002120D01*
X021036Y002119D02*
X017526Y002119D01*
X017526Y002118D02*
X021036Y002118D01*
X021036Y002117D02*
X017526Y002117D01*
X017526Y002116D02*
X021036Y002116D01*
X021036Y002115D02*
X017526Y002115D01*
X017526Y002114D02*
X021036Y002114D01*
X021036Y002113D02*
X017526Y002113D01*
X017526Y002112D02*
X021036Y002112D01*
X021036Y002111D02*
X017526Y002111D01*
X017526Y002110D02*
X021036Y002110D01*
X021036Y002109D02*
X017526Y002109D01*
X017526Y002108D02*
X021036Y002108D01*
X021036Y002107D02*
X017526Y002107D01*
X017526Y002106D02*
X021036Y002106D01*
X021036Y002105D02*
X017526Y002105D01*
X017526Y002104D02*
X021036Y002104D01*
X021036Y002103D02*
X017526Y002103D01*
X017526Y002102D02*
X021036Y002102D01*
X021036Y002101D02*
X017526Y002101D01*
X017526Y002100D02*
X021036Y002100D01*
X021036Y002099D02*
X017526Y002099D01*
X017526Y002098D02*
X021036Y002098D01*
X021036Y002097D02*
X017526Y002097D01*
X017526Y002096D02*
X021036Y002096D01*
X021036Y002095D02*
X017526Y002095D01*
X017526Y002094D02*
X021036Y002094D01*
X021036Y002093D02*
X017526Y002093D01*
X017526Y002092D02*
X021036Y002092D01*
X021036Y002091D02*
X017526Y002091D01*
X017526Y002090D02*
X021036Y002090D01*
X021036Y002089D02*
X017526Y002089D01*
X017526Y002088D02*
X021036Y002088D01*
X021036Y002087D02*
X017526Y002087D01*
X017526Y002086D02*
X021036Y002086D01*
X021036Y002085D02*
X017526Y002085D01*
X017526Y002084D02*
X021036Y002084D01*
X021036Y002083D02*
X017526Y002083D01*
X017526Y002082D02*
X021036Y002082D01*
X021036Y002081D02*
X017526Y002081D01*
X017526Y002080D02*
X021036Y002080D01*
X021036Y002079D02*
X017526Y002079D01*
X017526Y002078D02*
X021036Y002078D01*
X021036Y002077D02*
X017526Y002077D01*
X017526Y002076D02*
X021036Y002076D01*
X021036Y002075D02*
X017526Y002075D01*
X017526Y002074D02*
X021036Y002074D01*
X021036Y002073D02*
X017526Y002073D01*
X017526Y002072D02*
X021036Y002072D01*
X021036Y002071D02*
X017526Y002071D01*
X017526Y002070D02*
X021036Y002070D01*
X021036Y002069D02*
X017526Y002069D01*
X017526Y002068D02*
X021036Y002068D01*
X021036Y002067D02*
X017526Y002067D01*
X017526Y002066D02*
X021036Y002066D01*
X021036Y002065D02*
X017526Y002065D01*
X017526Y002064D02*
X021036Y002064D01*
X021036Y002063D02*
X017526Y002063D01*
X017526Y002062D02*
X021036Y002062D01*
X021036Y002061D02*
X017526Y002061D01*
X017526Y002060D02*
X021036Y002060D01*
X021036Y002059D02*
X017526Y002059D01*
X017526Y002058D02*
X021036Y002058D01*
X021036Y002057D02*
X017526Y002057D01*
X017526Y002056D02*
X021036Y002056D01*
X021036Y002055D02*
X017526Y002055D01*
X017526Y002054D02*
X021036Y002054D01*
X021036Y002053D02*
X017526Y002053D01*
X017526Y002052D02*
X021036Y002052D01*
X021036Y002051D02*
X017526Y002051D01*
X017526Y002050D02*
X021036Y002050D01*
X021036Y002049D02*
X017526Y002049D01*
X017526Y002048D02*
X021036Y002048D01*
X021036Y002047D02*
X017526Y002047D01*
X017526Y002046D02*
X021036Y002046D01*
X021036Y002045D02*
X017526Y002045D01*
X017526Y002044D02*
X021036Y002044D01*
X021036Y002043D02*
X017526Y002043D01*
X017526Y002042D02*
X021036Y002042D01*
X021036Y002041D02*
X017526Y002041D01*
X017526Y002040D02*
X021036Y002040D01*
X021036Y002039D02*
X017526Y002039D01*
X017526Y002038D02*
X021036Y002038D01*
X021036Y002037D02*
X017526Y002037D01*
X017526Y002036D02*
X021036Y002036D01*
X021036Y002035D02*
X017526Y002035D01*
X017526Y002034D02*
X021036Y002034D01*
X021036Y002033D02*
X017526Y002033D01*
X017526Y002032D02*
X021036Y002032D01*
X021036Y002031D02*
X017526Y002031D01*
X017526Y002030D02*
X021036Y002030D01*
X021036Y002029D02*
X017526Y002029D01*
X017526Y002028D02*
X021036Y002028D01*
X021036Y002027D02*
X017526Y002027D01*
X017526Y002026D02*
X021036Y002026D01*
X021036Y002025D02*
X017526Y002025D01*
X017526Y002024D02*
X021036Y002024D01*
X021036Y002023D02*
X017526Y002023D01*
X017526Y002022D02*
X021036Y002022D01*
X021036Y002021D02*
X017526Y002021D01*
X017526Y002020D02*
X021036Y002020D01*
X021036Y002019D02*
X017526Y002019D01*
X017526Y002018D02*
X021036Y002018D01*
X021036Y002017D02*
X017526Y002017D01*
X017526Y002016D02*
X021036Y002016D01*
X021036Y002015D02*
X017526Y002015D01*
X017526Y002014D02*
X021036Y002014D01*
X021036Y002013D02*
X017526Y002013D01*
X017526Y002012D02*
X021036Y002012D01*
X021036Y002011D02*
X017526Y002011D01*
X017526Y002010D02*
X021036Y002010D01*
X021036Y002009D02*
X017526Y002009D01*
X017526Y002008D02*
X021036Y002008D01*
X021036Y002007D02*
X017526Y002007D01*
X017526Y002006D02*
X021036Y002006D01*
X021036Y002005D02*
X017526Y002005D01*
X017526Y002004D02*
X021036Y002004D01*
X021036Y002003D02*
X017526Y002003D01*
X017526Y002002D02*
X021036Y002002D01*
X021036Y002001D02*
X017526Y002001D01*
X017526Y002000D02*
X021036Y002000D01*
X021036Y001999D02*
X017526Y001999D01*
X017526Y001998D02*
X021036Y001998D01*
X021036Y001997D02*
X017526Y001997D01*
X017526Y001996D02*
X021036Y001996D01*
X021036Y001995D02*
X017526Y001995D01*
X017526Y001994D02*
X021036Y001994D01*
X021036Y001993D02*
X017526Y001993D01*
X017526Y001992D02*
X021036Y001992D01*
X021036Y001991D02*
X017526Y001991D01*
X017526Y001990D02*
X021036Y001990D01*
X021036Y001989D02*
X017526Y001989D01*
X017526Y001988D02*
X021036Y001988D01*
X021036Y001987D02*
X017526Y001987D01*
X017526Y001986D02*
X021036Y001986D01*
X021036Y001985D02*
X017526Y001985D01*
X017526Y001984D02*
X021036Y001984D01*
X021036Y001983D02*
X017526Y001983D01*
X017526Y001982D02*
X021036Y001982D01*
X021036Y001981D02*
X017526Y001981D01*
X017526Y001980D02*
X021036Y001980D01*
X021036Y001979D02*
X017526Y001979D01*
X017526Y001978D02*
X021036Y001978D01*
X021036Y001977D02*
X017526Y001977D01*
X017526Y001976D02*
X021036Y001976D01*
X021036Y001975D02*
X017526Y001975D01*
X017526Y001974D02*
X021036Y001974D01*
X021036Y001973D02*
X017526Y001973D01*
X017526Y001972D02*
X021036Y001972D01*
X021036Y001971D02*
X017526Y001971D01*
X017526Y001970D02*
X021036Y001970D01*
X021036Y001969D02*
X017526Y001969D01*
X017526Y001968D02*
X021036Y001968D01*
X021036Y001967D02*
X017526Y001967D01*
X017526Y001966D02*
X021036Y001966D01*
X021036Y001965D02*
X017526Y001965D01*
X017526Y001964D02*
X021036Y001964D01*
X021036Y001963D02*
X017526Y001963D01*
X017526Y001962D02*
X021036Y001962D01*
X021036Y001961D02*
X017526Y001961D01*
X017526Y001960D02*
X021036Y001960D01*
X021036Y001959D02*
X017526Y001959D01*
X017526Y001958D02*
X021036Y001958D01*
X021036Y001957D02*
X017526Y001957D01*
X017526Y001956D02*
X021036Y001956D01*
X021036Y001955D02*
X017526Y001955D01*
X017526Y001954D02*
X021036Y001954D01*
X021036Y001953D02*
X017526Y001953D01*
X017526Y001952D02*
X021036Y001952D01*
X021036Y001951D02*
X017526Y001951D01*
X017526Y001950D02*
X021036Y001950D01*
X021036Y001949D02*
X017526Y001949D01*
X017526Y001948D02*
X021036Y001948D01*
X021036Y001947D02*
X017526Y001947D01*
X017526Y001946D02*
X021036Y001946D01*
X021036Y001945D02*
X017526Y001945D01*
X017526Y001944D02*
X021036Y001944D01*
X021036Y001943D02*
X017526Y001943D01*
X017526Y001942D02*
X021036Y001942D01*
X021036Y001941D02*
X017526Y001941D01*
X017526Y001940D02*
X021036Y001940D01*
X021036Y001939D02*
X017526Y001939D01*
X017526Y001938D02*
X021036Y001938D01*
X021036Y001937D02*
X017526Y001937D01*
X017526Y001936D02*
X021036Y001936D01*
X021036Y001935D02*
X017526Y001935D01*
X017526Y001934D02*
X021036Y001934D01*
X021036Y001933D02*
X017526Y001933D01*
X017526Y001932D02*
X021036Y001932D01*
X021036Y001931D02*
X017526Y001931D01*
X017526Y001930D02*
X021036Y001930D01*
X021036Y001929D02*
X017526Y001929D01*
X017526Y001928D02*
X021036Y001928D01*
X021036Y001927D02*
X017526Y001927D01*
X017526Y001926D02*
X021036Y001926D01*
X021036Y001925D02*
X017526Y001925D01*
X017526Y001924D02*
X021036Y001924D01*
X021036Y001923D02*
X017526Y001923D01*
X017526Y001922D02*
X021036Y001922D01*
X021036Y001921D02*
X017526Y001921D01*
X017526Y001920D02*
X021036Y001920D01*
X017526Y001920D01*
X017526Y001919D02*
X021036Y001919D01*
X021036Y001918D02*
X017526Y001918D01*
X017526Y001917D02*
X021036Y001917D01*
X021036Y001916D02*
X017526Y001916D01*
X017526Y001915D02*
X021036Y001915D01*
X021036Y001914D02*
X017526Y001914D01*
X017526Y001913D02*
X021036Y001913D01*
X021036Y001912D02*
X017526Y001912D01*
X017526Y001911D02*
X021036Y001911D01*
X021036Y001910D02*
X017526Y001910D01*
X017526Y001909D02*
X021036Y001909D01*
X021036Y001908D02*
X017526Y001908D01*
X017526Y001907D02*
X021036Y001907D01*
X021036Y001906D02*
X017526Y001906D01*
X017526Y001905D02*
X021036Y001905D01*
X021036Y001904D02*
X017526Y001904D01*
X017526Y001903D02*
X021036Y001903D01*
X021036Y001902D02*
X017526Y001902D01*
X017526Y001901D02*
X021036Y001901D01*
X021036Y001900D02*
X017526Y001900D01*
X017526Y001899D02*
X021036Y001899D01*
X021036Y001898D02*
X017526Y001898D01*
X017526Y001897D02*
X021036Y001897D01*
X021036Y001896D02*
X017526Y001896D01*
X017526Y001895D02*
X021036Y001895D01*
X021036Y001894D02*
X017526Y001894D01*
X017526Y001893D02*
X021036Y001893D01*
X021036Y001892D02*
X017526Y001892D01*
X017526Y001891D02*
X021036Y001891D01*
X021036Y001890D02*
X017526Y001890D01*
X017526Y001889D02*
X021036Y001889D01*
X021036Y001888D02*
X017526Y001888D01*
X017526Y001887D02*
X021036Y001887D01*
X021036Y001886D02*
X017526Y001886D01*
X017526Y001885D02*
X021036Y001885D01*
X021036Y001884D02*
X017526Y001884D01*
X017526Y001883D02*
X021036Y001883D01*
X021036Y001882D02*
X017526Y001882D01*
X017526Y001881D02*
X021036Y001881D01*
X021036Y001880D02*
X017526Y001880D01*
X017526Y001879D02*
X021036Y001879D01*
X021036Y001878D02*
X017526Y001878D01*
X017526Y001877D02*
X021036Y001877D01*
X021036Y001876D02*
X017526Y001876D01*
X017526Y001875D02*
X021036Y001875D01*
X021036Y001874D02*
X017526Y001874D01*
X017526Y001873D02*
X021036Y001873D01*
X021036Y001872D02*
X017526Y001872D01*
X017526Y001871D02*
X021036Y001871D01*
D17*
X010504Y018209D03*
X008850Y018209D03*
X008850Y022146D03*
X010504Y022146D03*
X010504Y028051D03*
X008850Y028051D03*
X008850Y031988D03*
X010504Y031988D03*
D18*
X011646Y031535D03*
X012827Y031535D03*
X014008Y031535D03*
X014008Y032835D03*
X012827Y032835D03*
X011646Y032835D03*
X011646Y028898D03*
X012827Y028898D03*
X014008Y028898D03*
X014008Y027598D03*
X012827Y027598D03*
X011646Y027598D03*
X047029Y008179D03*
X047029Y006879D03*
D19*
X045707Y008070D03*
X045027Y008070D03*
X044868Y015619D03*
X044188Y015619D03*
X044188Y016369D03*
X044868Y016369D03*
X045885Y021295D03*
X046565Y021295D03*
X046566Y022119D03*
X045886Y022119D03*
X021061Y036466D03*
X020381Y036466D03*
X015923Y032776D03*
X015243Y032776D03*
X016838Y031397D03*
X017518Y031397D03*
X015923Y028839D03*
X015243Y028839D03*
X016887Y027460D03*
X017567Y027460D03*
X012084Y025886D03*
X011404Y025886D03*
X011404Y025098D03*
X012084Y025098D03*
X012084Y024311D03*
X011404Y024311D03*
X007753Y025886D03*
X007073Y025886D03*
X009829Y029232D03*
X010509Y029232D03*
X010509Y033169D03*
X009829Y033169D03*
X009829Y020964D03*
X010509Y020964D03*
X010509Y019390D03*
X009829Y019390D03*
X011178Y015009D03*
X011858Y015009D03*
X012851Y015009D03*
X013531Y015009D03*
X013531Y014123D03*
X012851Y014123D03*
X009506Y013651D03*
X008826Y013651D03*
X008856Y008907D03*
X008176Y008907D03*
D20*
X011754Y013602D03*
X011754Y014350D03*
X010928Y013976D03*
X010701Y025709D03*
X010701Y026457D03*
X009874Y026083D03*
X009283Y026083D03*
X008457Y026457D03*
X008457Y025709D03*
X013850Y029646D03*
X013023Y030020D03*
X013850Y030394D03*
X013850Y033583D03*
X013023Y033957D03*
X013850Y034331D03*
D21*
X014614Y034281D03*
X015378Y034259D03*
X015378Y033579D03*
X014614Y033601D03*
X015061Y032032D03*
X015061Y031352D03*
X015996Y031352D03*
X015996Y032032D03*
X015278Y030359D03*
X014579Y030352D03*
X014579Y029672D03*
X015278Y029679D03*
X015061Y028095D03*
X015996Y028095D03*
X015996Y027415D03*
X015061Y027415D03*
X014844Y023027D03*
X014844Y022347D03*
X016685Y020516D03*
X016685Y019836D03*
X017424Y019836D03*
X017424Y020516D03*
X014324Y018125D03*
X014324Y017445D03*
X008811Y012150D03*
X008811Y011470D03*
X008861Y010280D03*
X008861Y009600D03*
X013241Y007623D03*
X013241Y006943D03*
X027836Y012554D03*
X027836Y013234D03*
X042916Y011865D03*
X042916Y011185D03*
X043654Y011185D03*
X043654Y011865D03*
X044392Y011865D03*
X044392Y011185D03*
X045130Y011185D03*
X045130Y011865D03*
X045180Y009404D03*
X045180Y008724D03*
X049866Y011058D03*
X049866Y011738D03*
X016144Y035486D03*
X015258Y035486D03*
X014471Y035486D03*
X013683Y035486D03*
X013683Y036166D03*
X014471Y036166D03*
X015258Y036166D03*
X016144Y036166D03*
X011488Y036221D03*
X010834Y036221D03*
X010834Y035541D03*
X011488Y035541D03*
D22*
X016804Y033109D03*
X017178Y033109D03*
X017552Y033109D03*
X017552Y032046D03*
X016804Y032046D03*
X016804Y029172D03*
X017178Y029172D03*
X017552Y029172D03*
X017552Y028109D03*
X016804Y028109D03*
D23*
X016098Y021250D03*
X015598Y021250D03*
X015098Y021250D03*
X014598Y021250D03*
X014098Y021250D03*
X013598Y021250D03*
X013098Y021250D03*
X013098Y019203D03*
X013598Y019203D03*
X014098Y019203D03*
X014598Y019203D03*
X015098Y019203D03*
X015598Y019203D03*
X016098Y019203D03*
D24*
X012857Y036220D03*
X012857Y037637D03*
D25*
X051937Y014854D03*
X051937Y010854D03*
X051937Y006854D03*
X059937Y006854D03*
X059937Y009854D03*
X059937Y011854D03*
D26*
X058485Y017848D03*
X058485Y020250D03*
D27*
X062515Y014892D03*
X064916Y014892D03*
D28*
X065051Y021283D03*
D29*
X063398Y021283D03*
X063398Y019630D03*
X065051Y019630D03*
X065051Y017976D03*
X063398Y017976D03*
D30*
X067925Y017976D03*
X067925Y021283D03*
D31*
X043757Y021666D03*
X043257Y021666D03*
X042757Y021666D03*
X042257Y021666D03*
X041757Y021666D03*
X041257Y021666D03*
X040757Y021666D03*
X040257Y021666D03*
X038934Y021666D03*
X038434Y021666D03*
X037934Y021666D03*
X037434Y021666D03*
X036934Y021666D03*
X036434Y021666D03*
X035934Y021666D03*
X035434Y021666D03*
X034013Y021666D03*
X033513Y021666D03*
X033013Y021666D03*
X032513Y021666D03*
X032013Y021666D03*
X031513Y021666D03*
X031013Y021666D03*
X030513Y021666D03*
X029190Y021666D03*
X028690Y021666D03*
X028190Y021666D03*
X027690Y021666D03*
X027190Y021666D03*
X026690Y021666D03*
X026190Y021666D03*
X025690Y021666D03*
X024367Y021666D03*
X023867Y021666D03*
X023367Y021666D03*
X022867Y021666D03*
X022367Y021666D03*
X021867Y021666D03*
X021367Y021666D03*
X020867Y021666D03*
X020867Y017666D03*
X021367Y017666D03*
X021867Y017666D03*
X022367Y017666D03*
X022867Y017666D03*
X023367Y017666D03*
X023867Y017666D03*
X024367Y017666D03*
X025690Y017666D03*
X026190Y017666D03*
X026690Y017666D03*
X027190Y017666D03*
X027690Y017666D03*
X028190Y017666D03*
X028690Y017666D03*
X029190Y017666D03*
X030513Y017666D03*
X031013Y017666D03*
X031513Y017666D03*
X032013Y017666D03*
X032513Y017666D03*
X033013Y017666D03*
X033513Y017666D03*
X034013Y017666D03*
X035434Y017666D03*
X035934Y017666D03*
X036434Y017666D03*
X036934Y017666D03*
X037434Y017666D03*
X037934Y017666D03*
X038434Y017666D03*
X038934Y017666D03*
X040257Y017666D03*
X040757Y017666D03*
X041257Y017666D03*
X041757Y017666D03*
X042257Y017666D03*
X042757Y017666D03*
X043257Y017666D03*
X043757Y017666D03*
D32*
X017553Y029802D03*
X017553Y033755D03*
D33*
X019559Y035195D03*
X019559Y035451D03*
X019559Y035707D03*
X019559Y035963D03*
X021882Y035963D03*
X021882Y035707D03*
X021882Y035451D03*
X021882Y035195D03*
D34*
X018556Y035416D03*
X018556Y036236D03*
X010435Y007939D03*
X010435Y007119D03*
X014176Y006873D03*
X014176Y007693D03*
D35*
X045708Y017717D03*
X046208Y017717D03*
X046708Y017717D03*
X047208Y017727D03*
X047208Y019937D03*
X046708Y019937D03*
X046208Y019937D03*
X045708Y019937D03*
D36*
X008828Y008119D03*
X008008Y008119D03*
D37*
X028054Y014209D03*
X028054Y014629D03*
X028496Y014629D03*
X028496Y014209D03*
X028939Y014209D03*
X028939Y014629D03*
X029382Y014629D03*
X029382Y014209D03*
X029825Y014209D03*
X029825Y014629D03*
X030268Y014629D03*
X030268Y014209D03*
X030711Y014209D03*
X030711Y014629D03*
X031154Y014629D03*
X031154Y014209D03*
X031597Y014209D03*
X031597Y014629D03*
X032040Y014629D03*
X032040Y014209D03*
X032483Y014209D03*
X032483Y014629D03*
X032926Y014629D03*
X032926Y014209D03*
X033369Y014209D03*
X033369Y014629D03*
X033811Y014629D03*
X033811Y014209D03*
X034254Y014209D03*
X034254Y014629D03*
X034697Y014629D03*
X034697Y014209D03*
X035140Y014209D03*
X035140Y014629D03*
X035583Y014629D03*
X035583Y014209D03*
X036026Y014209D03*
X036026Y014629D03*
X036128Y012529D03*
X036128Y012109D03*
X036678Y012109D03*
X036678Y012529D03*
X037228Y012529D03*
X037228Y012109D03*
X035578Y012109D03*
X035578Y012529D03*
X032039Y009195D03*
X032039Y008775D03*
X031547Y008775D03*
X031547Y009195D03*
D38*
X029592Y008267D03*
X029172Y008267D03*
X027738Y009819D03*
X027318Y009819D03*
X026838Y009819D03*
X026418Y009819D03*
X026418Y010469D03*
X026838Y010469D03*
X027318Y010469D03*
X027738Y010469D03*
X027738Y011169D03*
X027318Y011169D03*
X026838Y011169D03*
X026418Y011169D03*
X028119Y012008D03*
X028539Y012008D03*
D39*
X034945Y011150D03*
X034945Y010650D03*
X034945Y010150D03*
X034945Y009650D03*
X037945Y009650D03*
X037945Y010150D03*
X037945Y010650D03*
X037945Y011150D03*
D40*
X048260Y008030D03*
X048260Y006930D03*
X049638Y006930D03*
X049638Y008030D03*
D41*
X009992Y011340D03*
X009992Y012240D03*
D42*
X010386Y010462D03*
X010386Y008828D03*
D43*
X032917Y009187D03*
D44*
X033280Y010235D03*
X033280Y010432D03*
X033280Y010629D03*
X033280Y010826D03*
X033280Y011023D03*
X033280Y011220D03*
X033280Y011417D03*
X033280Y011613D03*
X033280Y011810D03*
X033280Y012007D03*
X033280Y012204D03*
X033280Y012401D03*
X030603Y012401D03*
X030603Y012204D03*
X030603Y012007D03*
X030603Y011810D03*
X030603Y011613D03*
X030603Y011417D03*
X030603Y011220D03*
X030603Y011023D03*
X030603Y010826D03*
X030603Y010629D03*
X030603Y010432D03*
X030603Y010235D03*
D45*
X031941Y011318D03*
D46*
X031843Y009980D03*
X032040Y009980D03*
X032237Y009980D03*
X032433Y009980D03*
X032630Y009980D03*
X032827Y009980D03*
X033024Y009980D03*
X031646Y009980D03*
X031449Y009980D03*
X031252Y009980D03*
X031056Y009980D03*
X030859Y009980D03*
X030859Y012657D03*
X031056Y012657D03*
X031252Y012657D03*
X031449Y012657D03*
X031646Y012657D03*
X031843Y012657D03*
X032040Y012657D03*
X032237Y012657D03*
X032433Y012657D03*
X032630Y012657D03*
X032827Y012657D03*
X033024Y012657D03*
D47*
X042909Y039319D03*
X067709Y039319D03*
D48*
X065059Y039369D03*
X064559Y039369D03*
X064059Y039369D03*
X063559Y039369D03*
X063059Y039369D03*
X062559Y039369D03*
X062059Y039369D03*
X061559Y039369D03*
X061059Y039369D03*
X060559Y039369D03*
X060059Y039369D03*
X059559Y039369D03*
X059059Y039369D03*
X058559Y039369D03*
X058059Y039369D03*
X057559Y039369D03*
X057059Y039369D03*
X056559Y039369D03*
X056059Y039369D03*
X055559Y039369D03*
X055059Y039369D03*
X054559Y039369D03*
X054059Y039369D03*
X053559Y039369D03*
X053059Y039369D03*
X052559Y039369D03*
X052059Y039369D03*
X051559Y039369D03*
X051059Y039369D03*
X050559Y039369D03*
X050059Y039369D03*
X049559Y039369D03*
X049059Y039369D03*
X048559Y039369D03*
X048059Y039369D03*
X047559Y039369D03*
X047059Y039369D03*
X046559Y039369D03*
X046059Y039369D03*
X045559Y039369D03*
X045559Y038869D03*
X046059Y038869D03*
X046559Y038869D03*
X047059Y038869D03*
X047559Y038869D03*
X048059Y038869D03*
X048559Y038869D03*
X049059Y038869D03*
X049559Y038869D03*
X050059Y038869D03*
X050559Y038869D03*
X051059Y038869D03*
X051559Y038869D03*
X052059Y038869D03*
X052559Y038869D03*
X053059Y038869D03*
X053559Y038869D03*
X054059Y038869D03*
X054559Y038869D03*
X055059Y038869D03*
X055559Y038869D03*
X056059Y038869D03*
X056559Y038869D03*
X057059Y038869D03*
X057559Y038869D03*
X058059Y038869D03*
X058559Y038869D03*
X059059Y038869D03*
X059559Y038869D03*
X060059Y038869D03*
X060559Y038869D03*
X061059Y038869D03*
X061559Y038869D03*
X062059Y038869D03*
X062559Y038869D03*
X063059Y038869D03*
X063559Y038869D03*
X064059Y038869D03*
X064559Y038869D03*
X065059Y038869D03*
X065059Y040869D03*
X065059Y041369D03*
X064559Y041369D03*
X064059Y041369D03*
X063559Y041369D03*
X063059Y041369D03*
X062559Y041369D03*
X062059Y041369D03*
X061559Y041369D03*
X061059Y041369D03*
X060559Y041369D03*
X060059Y041369D03*
X059559Y041369D03*
X059059Y041369D03*
X058559Y041369D03*
X058059Y041369D03*
X057559Y041369D03*
X057059Y041369D03*
X056559Y041369D03*
X056059Y041369D03*
X055559Y041369D03*
X055059Y041369D03*
X054559Y041369D03*
X054059Y041369D03*
X053559Y041369D03*
X053059Y041369D03*
X052559Y041369D03*
X052059Y041369D03*
X051559Y041369D03*
X051059Y041369D03*
X050559Y041369D03*
X050059Y041369D03*
X049559Y041369D03*
X049059Y041369D03*
X048559Y041369D03*
X048059Y041369D03*
X047559Y041369D03*
X047059Y041369D03*
X046559Y041369D03*
X046059Y041369D03*
X045559Y041369D03*
X045559Y040869D03*
X046059Y040869D03*
X046559Y040869D03*
X047059Y040869D03*
X047559Y040869D03*
X048059Y040869D03*
X048559Y040869D03*
X049059Y040869D03*
X049559Y040869D03*
X050059Y040869D03*
X050559Y040869D03*
X051059Y040869D03*
X051559Y040869D03*
X052059Y040869D03*
X052559Y040869D03*
X053059Y040869D03*
X053559Y040869D03*
X054059Y040869D03*
X054559Y040869D03*
X055059Y040869D03*
X055559Y040869D03*
X056059Y040869D03*
X056559Y040869D03*
X057059Y040869D03*
X057559Y040869D03*
X058059Y040869D03*
X058559Y040869D03*
X059059Y040869D03*
X059559Y040869D03*
X060059Y040869D03*
X060559Y040869D03*
X061059Y040869D03*
X061559Y040869D03*
X062059Y040869D03*
X062559Y040869D03*
X063059Y040869D03*
X063559Y040869D03*
X064059Y040869D03*
X064559Y040869D03*
X044457Y010458D03*
X043957Y010458D03*
X043457Y010458D03*
X042957Y010458D03*
X042457Y010458D03*
X042457Y009958D03*
X042957Y009958D03*
X043457Y009958D03*
X043957Y009958D03*
X044457Y009958D03*
X044457Y009458D03*
X043957Y009458D03*
X043457Y009458D03*
X042957Y009458D03*
X042457Y009458D03*
X042457Y008958D03*
X042957Y008958D03*
X043457Y008958D03*
X043957Y008958D03*
X044457Y008958D03*
X044457Y008458D03*
X043957Y008458D03*
X043457Y008458D03*
X042957Y008458D03*
X042457Y008458D03*
D49*
X044604Y038919D03*
X066004Y040119D03*
D50*
X037676Y027973D03*
X037479Y027973D03*
X037282Y027973D03*
X037085Y027973D03*
X036888Y027973D03*
X036692Y027973D03*
X036495Y027973D03*
X036298Y027973D03*
X036101Y027973D03*
X035904Y027973D03*
X035707Y027973D03*
X035511Y027973D03*
X035314Y027973D03*
X035117Y027973D03*
X034920Y027973D03*
X034723Y027973D03*
X034526Y027973D03*
X034329Y027973D03*
X034133Y027973D03*
X033936Y027973D03*
X033739Y027973D03*
X033542Y027973D03*
X033345Y027973D03*
X033148Y027973D03*
X032951Y027973D03*
X032755Y027973D03*
X032558Y027973D03*
X032361Y027973D03*
X032164Y027973D03*
X031967Y027973D03*
X031770Y027973D03*
X031574Y027973D03*
X028868Y027015D03*
X028672Y027015D03*
X028475Y027015D03*
X028278Y027015D03*
X028081Y027015D03*
X027884Y027015D03*
X027687Y027015D03*
X027491Y027015D03*
X027294Y027015D03*
X027097Y027015D03*
X026900Y027015D03*
X026703Y027015D03*
X026506Y027015D03*
X026309Y027015D03*
X026113Y027015D03*
X025916Y027015D03*
X025719Y027015D03*
X025522Y027015D03*
X025325Y027015D03*
X024103Y027019D03*
X023847Y027019D03*
X023591Y027019D03*
X023335Y027019D03*
X023079Y027019D03*
X022824Y027019D03*
X022568Y027019D03*
X022312Y027019D03*
X022312Y024814D03*
X022568Y024814D03*
X022824Y024814D03*
X023079Y024814D03*
X023335Y024814D03*
X023591Y024814D03*
X023847Y024814D03*
X024103Y024814D03*
X025325Y024810D03*
X025522Y024810D03*
X025719Y024810D03*
X025916Y024810D03*
X026113Y024810D03*
X026309Y024810D03*
X026506Y024810D03*
X026703Y024810D03*
X026900Y024810D03*
X027097Y024810D03*
X027294Y024810D03*
X027491Y024810D03*
X027687Y024810D03*
X027884Y024810D03*
X028081Y024810D03*
X028278Y024810D03*
X028475Y024810D03*
X028672Y024810D03*
X028868Y024810D03*
X031574Y024745D03*
X031770Y024745D03*
X031967Y024745D03*
X032164Y024745D03*
X032361Y024745D03*
X032558Y024745D03*
X032755Y024745D03*
X032951Y024745D03*
X033148Y024745D03*
X033345Y024745D03*
X033542Y024745D03*
X033739Y024745D03*
X033936Y024745D03*
X034133Y024745D03*
X034329Y024745D03*
X034526Y024745D03*
X034723Y024745D03*
X034920Y024745D03*
X035117Y024745D03*
X035314Y024745D03*
X035511Y024745D03*
X035707Y024745D03*
X035904Y024745D03*
X036101Y024745D03*
X036298Y024745D03*
X036495Y024745D03*
X036692Y024745D03*
X036888Y024745D03*
X037085Y024745D03*
X037282Y024745D03*
X037479Y024745D03*
X037676Y024745D03*
D51*
X023597Y012279D03*
X023597Y011279D03*
X023597Y010279D03*
X024269Y041631D03*
X025269Y041631D03*
X026269Y041631D03*
D52*
X027269Y041631D03*
X023597Y013279D03*
D53*
X020105Y027312D02*
X019565Y027312D01*
X019565Y028312D02*
X020105Y028312D01*
X020105Y029312D02*
X019565Y029312D01*
X019565Y031643D02*
X020105Y031643D01*
X020105Y032643D02*
X019565Y032643D01*
X019565Y033643D02*
X020105Y033643D01*
D54*
X012079Y033583D03*
X011212Y033957D03*
X012079Y034331D03*
X012079Y030394D03*
X011212Y030020D03*
X012079Y029646D03*
D55*
X016902Y035442D03*
X017650Y035442D03*
X017276Y036308D03*
X012413Y021545D03*
X011665Y021545D03*
X012039Y020679D03*
X012039Y019675D03*
X011665Y018809D03*
X012413Y018809D03*
D56*
X063268Y011859D03*
X064198Y011859D03*
D57*
X046017Y007184D03*
X044717Y007184D03*
X041253Y008572D03*
X039953Y008572D03*
X039953Y010393D03*
X041253Y010393D03*
M02*
