G75*
%MOIN*%
%OFA0B0*%
%FSLAX25Y25*%
%IPPOS*%
%LPD*%
%AMOC8*
5,1,8,0,0,1.08239X$1,22.5*
%
%ADD10R,0.03500X0.04200*%
%ADD11C,0.08250*%
%ADD12C,0.08550*%
%ADD13R,0.04200X0.03500*%
%ADD14OC8,0.06000*%
%ADD15C,0.05906*%
%ADD16OC8,0.11811*%
%ADD17C,0.20600*%
%ADD18C,0.05315*%
%ADD19OC8,0.11000*%
%ADD20R,0.10630X0.10630*%
%ADD21OC8,0.10630*%
%ADD22OC8,0.15811*%
%ADD23R,0.03000X0.02700*%
%ADD24R,0.02700X0.03000*%
%ADD25R,0.07400X0.04800*%
%ADD26R,0.04800X0.07400*%
%ADD27C,0.14600*%
%ADD28OC8,0.06496*%
%ADD29R,0.06496X0.06496*%
%ADD30C,0.05400*%
%ADD31R,0.06500X0.11000*%
%ADD32C,0.02953*%
%ADD33C,0.02375*%
%ADD34C,0.03543*%
%ADD35C,0.01600*%
%ADD36C,0.01981*%
%ADD37C,0.01000*%
%ADD38C,0.02100*%
%ADD39C,0.00900*%
%ADD40C,0.00598*%
%ADD41C,0.01299*%
%ADD42C,0.02178*%
%ADD43C,0.00600*%
%ADD44C,0.02400*%
D10*
X0207746Y0166823D03*
X0214546Y0166823D03*
X0255482Y0166823D03*
X0262282Y0166823D03*
X0304202Y0166823D03*
X0311002Y0166823D03*
X0353415Y0166823D03*
X0360215Y0166823D03*
X0401151Y0166823D03*
X0407951Y0166823D03*
X0461393Y0169330D03*
X0468193Y0169330D03*
X0468030Y0206394D03*
X0461230Y0206394D03*
X0408443Y0227846D03*
X0401643Y0227846D03*
X0360215Y0227846D03*
X0353415Y0227846D03*
X0311002Y0227846D03*
X0304202Y0227846D03*
X0262774Y0227846D03*
X0255974Y0227846D03*
X0214546Y0227846D03*
X0207746Y0227846D03*
X0216954Y0262413D03*
X0223754Y0262413D03*
X0239734Y0261803D03*
X0246534Y0261803D03*
X0285704Y0099901D03*
X0292504Y0099901D03*
D11*
X0067243Y0123031D03*
X0067243Y0182086D03*
X0067243Y0221456D03*
X0067243Y0280511D03*
X0067243Y0319881D03*
D12*
X0077243Y0309881D03*
X0057243Y0309881D03*
X0057243Y0290511D03*
X0077243Y0290511D03*
X0077243Y0270511D03*
X0057243Y0270511D03*
X0057243Y0231456D03*
X0077243Y0231456D03*
X0077243Y0211456D03*
X0057243Y0211456D03*
X0057243Y0192086D03*
X0077243Y0192086D03*
X0077243Y0172086D03*
X0057243Y0172086D03*
X0057243Y0133031D03*
X0077243Y0133031D03*
X0077243Y0113031D03*
X0057243Y0113031D03*
X0057243Y0329881D03*
X0077243Y0329881D03*
D13*
X0254748Y0263002D03*
X0254748Y0256202D03*
X0294315Y0255942D03*
X0294315Y0262742D03*
X0313016Y0261266D03*
X0313016Y0254466D03*
X0351402Y0254466D03*
X0351402Y0261266D03*
X0379945Y0261266D03*
X0379945Y0254466D03*
X0457091Y0397785D03*
X0457091Y0404585D03*
X0464091Y0404585D03*
X0464091Y0397785D03*
X0472091Y0397785D03*
X0472091Y0404585D03*
X0479091Y0404585D03*
X0479091Y0397785D03*
X0326795Y0086561D03*
X0326795Y0079761D03*
X0314984Y0079761D03*
X0314984Y0086561D03*
D14*
X0101613Y0148621D03*
X0091613Y0148621D03*
X0081613Y0148621D03*
X0071613Y0148621D03*
X0071613Y0247046D03*
X0081613Y0247046D03*
X0091613Y0247046D03*
X0101613Y0247046D03*
X0101613Y0345472D03*
X0091613Y0345472D03*
X0081613Y0345472D03*
X0071613Y0345472D03*
D15*
X0200811Y0150091D03*
X0071874Y0060524D03*
X0346480Y0082669D03*
X0363916Y0083070D03*
X0460129Y0062861D03*
X0481776Y0173185D03*
X0491776Y0173185D03*
X0501776Y0173185D03*
X0501776Y0203185D03*
X0491776Y0203185D03*
X0481776Y0203185D03*
D16*
X0512909Y0168886D03*
X0476409Y0131543D03*
X0566461Y0231783D03*
X0566461Y0247531D03*
X0566461Y0263280D03*
X0679587Y0420228D03*
X0333724Y0416823D03*
X0315969Y0416823D03*
X0298713Y0416823D03*
X0110823Y0427094D03*
X0153075Y0242118D03*
X0677579Y0067016D03*
D17*
X0641558Y0491700D03*
X0393558Y0491700D03*
X0341558Y0491700D03*
X0093558Y0491700D03*
D18*
X0128567Y0354421D03*
X0194906Y0304618D03*
D19*
X0519369Y0148542D03*
X0519369Y0108542D03*
X0519369Y0068542D03*
X0599369Y0068542D03*
X0599369Y0098542D03*
X0599369Y0118542D03*
D20*
X0650511Y0212834D03*
D21*
X0650511Y0196298D03*
X0650511Y0179763D03*
X0633975Y0179763D03*
X0633975Y0196298D03*
X0633975Y0212834D03*
D22*
X0679251Y0212834D03*
X0679251Y0179763D03*
D23*
X0371579Y0254290D03*
X0371579Y0258490D03*
X0342543Y0258490D03*
X0342543Y0254290D03*
X0320890Y0253798D03*
X0320890Y0257998D03*
X0286441Y0259966D03*
X0286441Y0255766D03*
X0262327Y0255766D03*
X0262327Y0259966D03*
X0308094Y0130045D03*
X0308094Y0125845D03*
X0314984Y0125845D03*
X0314984Y0130045D03*
X0322366Y0130045D03*
X0322366Y0125845D03*
X0327287Y0125845D03*
X0327287Y0130045D03*
X0328562Y0100510D03*
X0328562Y0096310D03*
X0323640Y0096310D03*
X0323640Y0100510D03*
X0316953Y0100517D03*
X0316953Y0096317D03*
X0312031Y0096317D03*
X0312031Y0100517D03*
D24*
X0307242Y0098909D03*
X0303042Y0098909D03*
X0303042Y0103831D03*
X0307242Y0103831D03*
X0307242Y0108752D03*
X0303042Y0108752D03*
X0303042Y0113673D03*
X0307242Y0113673D03*
X0307242Y0120071D03*
X0303042Y0120071D03*
X0332569Y0120563D03*
X0336769Y0120563D03*
X0336769Y0115642D03*
X0332569Y0115642D03*
X0332569Y0110720D03*
X0336769Y0110720D03*
X0336769Y0106291D03*
X0332569Y0106291D03*
X0244250Y0255898D03*
X0240050Y0255898D03*
X0223931Y0256350D03*
X0219731Y0256350D03*
D25*
X0289269Y0142285D03*
X0289269Y0129285D03*
X0306126Y0087201D03*
X0306126Y0074201D03*
X0335654Y0074201D03*
X0335654Y0087201D03*
D26*
X0285060Y0109938D03*
X0272060Y0109938D03*
D27*
X0429091Y0393185D03*
X0677091Y0393185D03*
D28*
X0262693Y0416311D03*
X0252693Y0416311D03*
X0242693Y0416311D03*
X0235968Y0122789D03*
X0235968Y0112789D03*
X0235968Y0102789D03*
D29*
X0235968Y0132789D03*
X0272693Y0416311D03*
D30*
X0201050Y0336429D02*
X0195650Y0336429D01*
X0195650Y0326429D02*
X0201050Y0326429D01*
X0201050Y0316429D02*
X0195650Y0316429D01*
X0195650Y0293122D02*
X0201050Y0293122D01*
X0201050Y0283122D02*
X0195650Y0283122D01*
X0195650Y0273122D02*
X0201050Y0273122D01*
D31*
X0449209Y0424213D03*
X0460209Y0424213D03*
X0475091Y0424185D03*
X0486091Y0424185D03*
D32*
X0292113Y0223729D03*
X0304908Y0223237D03*
X0309830Y0223237D03*
X0337389Y0222745D03*
X0354121Y0223237D03*
X0359534Y0223237D03*
X0392999Y0217824D03*
X0402349Y0223237D03*
X0407271Y0223237D03*
X0437290Y0223237D03*
X0457083Y0206394D03*
X0472083Y0206394D03*
X0472083Y0169330D03*
X0457083Y0169330D03*
X0459669Y0109736D03*
X0456224Y0107374D03*
X0454256Y0103437D03*
X0453272Y0099500D03*
X0457701Y0099500D03*
X0460654Y0096547D03*
X0459177Y0103437D03*
X0261601Y0223237D03*
X0256188Y0223237D03*
X0243885Y0223237D03*
X0214357Y0222745D03*
X0207960Y0222745D03*
X0159965Y0269185D03*
X0159965Y0307571D03*
D33*
X0168331Y0309539D03*
X0175220Y0309539D03*
X0150614Y0309539D03*
X0145983Y0308070D03*
X0138109Y0308070D03*
X0125516Y0304126D03*
X0125314Y0296259D03*
X0093818Y0292322D03*
X0110550Y0264763D03*
X0125314Y0258857D03*
X0125314Y0250983D03*
X0125314Y0243109D03*
X0148444Y0234251D03*
X0130929Y0218988D03*
X0124039Y0220465D03*
X0116657Y0220957D03*
X0076795Y0240642D03*
X0074476Y0254280D03*
X0070688Y0263287D03*
X0088404Y0256889D03*
X0147169Y0270169D03*
X0168823Y0270169D03*
X0175713Y0270169D03*
X0174236Y0209146D03*
X0178665Y0205209D03*
X0178665Y0198319D03*
X0174236Y0194382D03*
X0166854Y0194382D03*
X0166854Y0209146D03*
X0124039Y0183555D03*
X0116657Y0183555D03*
X0143232Y0170760D03*
X0123055Y0150091D03*
X0099433Y0136311D03*
X0132406Y0080701D03*
X0141756Y0081193D03*
X0208685Y0170760D03*
X0214098Y0170760D03*
X0243626Y0170760D03*
X0255437Y0170760D03*
X0262327Y0170760D03*
X0291854Y0170760D03*
X0304157Y0170760D03*
X0311047Y0170760D03*
X0338606Y0170760D03*
X0353370Y0170760D03*
X0360260Y0170760D03*
X0390772Y0170760D03*
X0401106Y0170760D03*
X0407996Y0170760D03*
X0437524Y0170760D03*
X0419807Y0122039D03*
X0423744Y0119579D03*
X0419315Y0116134D03*
X0423252Y0112689D03*
X0414886Y0112197D03*
X0409965Y0112689D03*
X0411933Y0118594D03*
X0409965Y0122531D03*
X0379453Y0093004D03*
X0408488Y0078732D03*
X0411441Y0075878D03*
X0413902Y0079815D03*
X0416362Y0075386D03*
X0419807Y0079815D03*
X0422268Y0075386D03*
X0425220Y0079323D03*
X0417839Y0087197D03*
X0125314Y0335629D03*
X0125516Y0343496D03*
X0138109Y0347440D03*
X0145983Y0347440D03*
X0152583Y0366134D03*
X0161441Y0365642D03*
X0176697Y0349894D03*
X0185555Y0349894D03*
X0185555Y0366626D03*
X0199827Y0364657D03*
X0203764Y0369087D03*
X0210654Y0369087D03*
X0214591Y0364657D03*
X0098247Y0336121D03*
X0452591Y0411185D03*
X0458091Y0411185D03*
X0463091Y0411185D03*
X0463091Y0416185D03*
X0473091Y0411185D03*
X0478591Y0411185D03*
X0493091Y0411185D03*
X0468091Y0405185D03*
X0473091Y0391185D03*
X0478091Y0391185D03*
D34*
X0468091Y0431685D03*
X0128562Y0381200D03*
X0470496Y0101862D03*
X0473941Y0099402D03*
X0471972Y0095957D03*
X0469512Y0092020D03*
X0475417Y0091528D03*
X0477386Y0095957D03*
X0482307Y0093988D03*
X0483783Y0097925D03*
X0483783Y0103831D03*
X0479354Y0101862D03*
X0489689Y0099402D03*
X0494118Y0100878D03*
X0495594Y0096449D03*
X0500024Y0100386D03*
X0501008Y0093988D03*
X0489197Y0093496D03*
X0446382Y0063968D03*
X0442937Y0060524D03*
X0438508Y0062492D03*
X0436047Y0067413D03*
X0439000Y0070858D03*
X0434079Y0072335D03*
X0430142Y0070858D03*
X0431126Y0065445D03*
X0433094Y0061016D03*
X0431618Y0077256D03*
X0439492Y0076272D03*
D35*
X0432110Y0087197D02*
X0432110Y0101961D01*
X0407951Y0166823D02*
X0407996Y0166868D01*
X0407996Y0170760D01*
X0401106Y0170760D02*
X0401106Y0166868D01*
X0401151Y0166823D01*
X0360260Y0166868D02*
X0360215Y0166823D01*
X0360260Y0166868D02*
X0360260Y0170760D01*
X0353370Y0170760D02*
X0353370Y0166868D01*
X0353415Y0166823D01*
X0311047Y0166868D02*
X0311002Y0166823D01*
X0311047Y0166868D02*
X0311047Y0170760D01*
X0304157Y0170760D02*
X0304157Y0166868D01*
X0304202Y0166823D01*
X0262327Y0166868D02*
X0262282Y0166823D01*
X0262327Y0166868D02*
X0262327Y0170760D01*
X0255437Y0170760D02*
X0255437Y0166868D01*
X0255482Y0166823D01*
X0214546Y0166823D02*
X0214546Y0170313D01*
X0214098Y0170760D01*
X0208685Y0170760D02*
X0207746Y0169820D01*
X0207746Y0166823D01*
X0207960Y0222745D02*
X0207746Y0222959D01*
X0207746Y0227846D01*
X0214546Y0227846D02*
X0214546Y0222933D01*
X0214357Y0222745D01*
X0255974Y0223451D02*
X0256188Y0223237D01*
X0255974Y0223451D02*
X0255974Y0227846D01*
X0261601Y0226674D02*
X0261601Y0223237D01*
X0261601Y0226674D02*
X0262774Y0227846D01*
X0304202Y0227846D02*
X0304202Y0223943D01*
X0304908Y0223237D01*
X0309830Y0223237D02*
X0309830Y0226674D01*
X0311002Y0227846D01*
X0353415Y0227846D02*
X0353415Y0223943D01*
X0354121Y0223237D01*
X0359534Y0223237D02*
X0360215Y0223918D01*
X0360215Y0227846D01*
X0401643Y0227846D02*
X0401643Y0223943D01*
X0402349Y0223237D01*
X0407271Y0223237D02*
X0408443Y0224410D01*
X0408443Y0227846D01*
X0457083Y0206394D02*
X0461230Y0206394D01*
X0468030Y0206394D02*
X0472083Y0206394D01*
X0472083Y0169330D02*
X0468193Y0169330D01*
X0461393Y0169330D02*
X0457083Y0169330D01*
X0458091Y0391185D02*
X0457091Y0397785D01*
X0457091Y0404585D02*
X0458091Y0411185D01*
X0460209Y0413303D01*
X0460209Y0424213D01*
X0449209Y0424213D02*
X0449209Y0414567D01*
X0452591Y0411185D01*
X0463091Y0411185D02*
X0464091Y0404585D01*
X0464091Y0397785D02*
X0463091Y0391185D01*
X0473091Y0391185D02*
X0472091Y0397785D01*
X0472091Y0404585D02*
X0473091Y0411185D01*
X0478591Y0411185D01*
X0479091Y0404585D01*
X0479091Y0397785D02*
X0478091Y0391185D01*
X0473091Y0411185D02*
X0475091Y0413185D01*
X0475091Y0424185D01*
X0486091Y0424185D02*
X0486091Y0418185D01*
X0493091Y0411185D01*
X0128567Y0354421D02*
X0121087Y0346941D01*
X0121087Y0343004D01*
X0121087Y0304126D01*
X0121087Y0265740D01*
X0116657Y0261311D01*
X0116657Y0220957D01*
X0116657Y0195565D01*
X0124039Y0188183D01*
X0124039Y0183555D01*
D36*
X0136343Y0185524D03*
X0151106Y0185524D03*
X0201303Y0169283D03*
X0201303Y0155012D03*
X0210161Y0149106D03*
X0223941Y0150091D03*
X0218035Y0159441D03*
X0241165Y0141232D03*
X0228370Y0137787D03*
X0222315Y0137244D03*
X0212815Y0139244D03*
X0207315Y0127244D03*
X0216315Y0125244D03*
X0225213Y0128126D03*
X0229846Y0122531D03*
X0225713Y0117126D03*
X0221815Y0109744D03*
X0228102Y0105386D03*
X0228260Y0099386D03*
X0230339Y0091035D03*
X0224925Y0091035D03*
X0219020Y0091035D03*
X0214098Y0091035D03*
X0215575Y0084638D03*
X0221480Y0084638D03*
X0220004Y0078732D03*
X0227878Y0084638D03*
X0233783Y0084638D03*
X0239197Y0084638D03*
X0244118Y0084638D03*
X0249039Y0084638D03*
X0249039Y0091035D03*
X0244118Y0091035D03*
X0237228Y0091035D03*
X0244610Y0076764D03*
X0255437Y0084638D03*
X0255437Y0091035D03*
X0263803Y0091035D03*
X0262327Y0084638D03*
X0268724Y0084638D03*
X0275122Y0084638D03*
X0271677Y0091035D03*
X0278567Y0091035D03*
X0280276Y0098185D03*
X0280276Y0104685D03*
X0280276Y0111685D03*
X0289886Y0118594D03*
X0290870Y0122039D03*
X0292346Y0123024D03*
X0293823Y0119579D03*
X0297760Y0117610D03*
X0298252Y0111213D03*
X0299728Y0102354D03*
X0299728Y0099894D03*
X0298252Y0097925D03*
X0296776Y0099894D03*
X0296776Y0102354D03*
X0295791Y0090543D03*
X0288409Y0082669D03*
X0282996Y0084638D03*
X0273646Y0077748D03*
X0260776Y0098185D03*
X0260776Y0104685D03*
X0260776Y0111685D03*
X0252484Y0108752D03*
X0253469Y0119579D03*
X0249039Y0129913D03*
X0260358Y0131390D03*
X0268724Y0125484D03*
X0273646Y0132374D03*
X0271185Y0139264D03*
X0282996Y0130405D03*
X0283488Y0124500D03*
X0288409Y0123516D03*
X0297268Y0132374D03*
X0300220Y0129421D03*
X0302681Y0126961D03*
X0313508Y0119087D03*
X0319413Y0119087D03*
X0325319Y0119087D03*
X0325319Y0113181D03*
X0325319Y0107276D03*
X0319413Y0107276D03*
X0319413Y0113181D03*
X0313508Y0113181D03*
X0313508Y0107276D03*
X0310063Y0092512D03*
X0324827Y0091528D03*
X0332209Y0092512D03*
X0338114Y0102846D03*
X0341067Y0102354D03*
X0341559Y0104815D03*
X0340083Y0106291D03*
X0340575Y0115150D03*
X0343035Y0115642D03*
X0345496Y0115642D03*
X0343528Y0118102D03*
X0345496Y0119579D03*
X0355776Y0128685D03*
X0361276Y0128685D03*
X0366776Y0128685D03*
X0372276Y0128685D03*
X0378961Y0128929D03*
X0378469Y0135819D03*
X0370594Y0139756D03*
X0362720Y0134342D03*
X0387819Y0139264D03*
X0399138Y0128929D03*
X0408488Y0130898D03*
X0408488Y0136803D03*
X0415378Y0142217D03*
X0422760Y0146646D03*
X0429650Y0140740D03*
X0420791Y0129913D03*
X0431618Y0107866D03*
X0432110Y0101961D03*
X0427189Y0097039D03*
X0427189Y0092118D03*
X0422268Y0092118D03*
X0419807Y0095071D03*
X0422268Y0097039D03*
X0416854Y0096547D03*
X0415870Y0093594D03*
X0418331Y0092118D03*
X0432110Y0087197D03*
X0437031Y0087197D03*
X0448350Y0090150D03*
X0446874Y0097039D03*
X0449335Y0099500D03*
X0450811Y0101961D03*
X0451303Y0107866D03*
X0442445Y0101961D03*
X0441953Y0097039D03*
X0457701Y0094579D03*
X0533980Y0097925D03*
X0466429Y0160697D03*
X0473362Y0162768D03*
X0476220Y0176307D03*
X0487594Y0162878D03*
X0496213Y0166173D03*
X0504787Y0161331D03*
X0452776Y0163685D03*
X0452776Y0156185D03*
X0446874Y0172728D03*
X0451303Y0176665D03*
X0432602Y0167807D03*
X0427681Y0170760D03*
X0395201Y0170760D03*
X0391756Y0157965D03*
X0326795Y0136311D03*
X0326303Y0133850D03*
X0322366Y0133358D03*
X0322366Y0135819D03*
X0316461Y0133850D03*
X0317445Y0154520D03*
X0311047Y0159933D03*
X0307602Y0153535D03*
X0297760Y0168791D03*
X0279059Y0164362D03*
X0249039Y0159933D03*
X0246579Y0168299D03*
X0254945Y0140248D03*
X0208315Y0115244D03*
X0196874Y0122531D03*
X0187031Y0124008D03*
X0184079Y0114657D03*
X0194413Y0109736D03*
X0204315Y0105244D03*
X0213815Y0101244D03*
X0207209Y0091035D03*
X0202287Y0091035D03*
X0196382Y0091035D03*
X0192937Y0084638D03*
X0187524Y0084638D03*
X0182602Y0084638D03*
X0185555Y0079224D03*
X0176205Y0084638D03*
X0170299Y0084638D03*
X0169807Y0091035D03*
X0164886Y0092512D03*
X0160949Y0095465D03*
X0157504Y0098909D03*
X0153567Y0102846D03*
X0149630Y0106783D03*
X0146185Y0110720D03*
X0142248Y0114657D03*
X0137327Y0119579D03*
X0133390Y0123024D03*
X0128469Y0126468D03*
X0122071Y0129421D03*
X0120102Y0122039D03*
X0125024Y0120071D03*
X0129453Y0116626D03*
X0132898Y0113181D03*
X0136835Y0108752D03*
X0141264Y0104323D03*
X0145693Y0099894D03*
X0149630Y0095957D03*
X0154059Y0092020D03*
X0158488Y0088083D03*
X0163902Y0085622D03*
X0157504Y0079717D03*
X0171776Y0076272D03*
X0175220Y0091035D03*
X0181618Y0091035D03*
X0186539Y0091035D03*
X0184079Y0098417D03*
X0194906Y0099402D03*
X0202287Y0084638D03*
X0202780Y0079717D03*
X0208685Y0084638D03*
X0171776Y0100878D03*
X0159965Y0107768D03*
X0157504Y0115642D03*
X0169807Y0124992D03*
X0164283Y0133016D03*
X0154059Y0139264D03*
X0158980Y0146646D03*
X0171776Y0149598D03*
X0172268Y0139756D03*
X0175713Y0133358D03*
X0190969Y0136311D03*
X0198843Y0136803D03*
X0184571Y0146646D03*
X0146677Y0149106D03*
X0136835Y0130898D03*
X0145201Y0124992D03*
X0123547Y0144185D03*
X0114197Y0129913D03*
X0107799Y0129913D03*
X0101402Y0130405D03*
X0095496Y0130405D03*
X0091067Y0130405D03*
X0086638Y0129913D03*
X0075220Y0139165D03*
X0108783Y0123024D03*
X0114197Y0123024D03*
X0130929Y0100878D03*
X0135358Y0091528D03*
X0081515Y0093503D03*
X0077780Y0090051D03*
X0077780Y0086606D03*
X0075609Y0082676D03*
X0075609Y0079231D03*
X0078070Y0075787D03*
X0081022Y0075787D03*
X0141264Y0219972D03*
X0156028Y0219972D03*
X0216559Y0256390D03*
X0213114Y0262787D03*
X0227386Y0254913D03*
X0231323Y0254913D03*
X0236736Y0254913D03*
X0247563Y0255898D03*
X0251008Y0262787D03*
X0246579Y0266232D03*
X0261343Y0264756D03*
X0267740Y0260819D03*
X0271185Y0260819D03*
X0271185Y0264756D03*
X0280535Y0264756D03*
X0282996Y0259835D03*
X0286441Y0263280D03*
X0289886Y0255898D03*
X0282504Y0254421D03*
X0280043Y0253437D03*
X0271185Y0254421D03*
X0258882Y0255405D03*
X0250516Y0248516D03*
X0264295Y0242118D03*
X0264787Y0238673D03*
X0291362Y0248024D03*
X0298744Y0262787D03*
X0294315Y0266724D03*
X0309079Y0261311D03*
X0313016Y0265248D03*
X0320890Y0261311D03*
X0317445Y0252945D03*
X0313508Y0247531D03*
X0324827Y0252945D03*
X0333685Y0252945D03*
X0342543Y0261803D03*
X0346480Y0252945D03*
X0351402Y0257866D03*
X0355339Y0261311D03*
X0359276Y0252945D03*
X0367642Y0252945D03*
X0375024Y0252945D03*
X0379453Y0247531D03*
X0384374Y0261311D03*
X0380437Y0265248D03*
X0371579Y0261803D03*
X0454748Y0219972D03*
X0454748Y0213083D03*
X0462130Y0217020D03*
X0470988Y0222185D03*
X0468244Y0226654D03*
X0360752Y0088575D03*
X0349433Y0092512D03*
X0349433Y0077748D03*
X0359768Y0076764D03*
X0370594Y0080701D03*
X0376992Y0086114D03*
X0378469Y0076764D03*
X0326795Y0074795D03*
X0322858Y0074795D03*
X0322366Y0077748D03*
X0319906Y0077748D03*
X0321382Y0080209D03*
X0318429Y0074795D03*
X0314984Y0074795D03*
X0232307Y0243102D03*
X0223941Y0357276D03*
X0226276Y0359638D03*
X0498091Y0411185D03*
X0503091Y0411185D03*
D37*
X0069058Y0117694D02*
X0069058Y0058555D01*
X0430928Y0058555D01*
X0430321Y0059162D01*
X0429823Y0060365D01*
X0429823Y0061666D01*
X0430098Y0062330D01*
X0429273Y0062671D01*
X0428352Y0063592D01*
X0427854Y0064794D01*
X0427854Y0066096D01*
X0428352Y0067298D01*
X0428890Y0067836D01*
X0428288Y0068085D01*
X0427368Y0069005D01*
X0426870Y0070207D01*
X0426870Y0071509D01*
X0427368Y0072711D01*
X0428288Y0073632D01*
X0429491Y0074130D01*
X0430616Y0074130D01*
X0429765Y0074482D01*
X0428845Y0075403D01*
X0428346Y0076605D01*
X0428346Y0077907D01*
X0428845Y0079109D01*
X0429765Y0080029D01*
X0430967Y0080528D01*
X0432269Y0080528D01*
X0433471Y0080029D01*
X0434392Y0079109D01*
X0434890Y0077907D01*
X0434890Y0076605D01*
X0434476Y0075606D01*
X0434730Y0075606D01*
X0435932Y0075108D01*
X0436852Y0074188D01*
X0437101Y0073586D01*
X0437147Y0073632D01*
X0437400Y0073737D01*
X0436719Y0074418D01*
X0436220Y0075621D01*
X0436220Y0076922D01*
X0436719Y0078125D01*
X0437639Y0079045D01*
X0438841Y0079543D01*
X0440143Y0079543D01*
X0441345Y0079045D01*
X0442266Y0078125D01*
X0442764Y0076922D01*
X0442764Y0075621D01*
X0442266Y0074418D01*
X0441345Y0073498D01*
X0441092Y0073393D01*
X0441774Y0072711D01*
X0442272Y0071509D01*
X0442272Y0070207D01*
X0441774Y0069005D01*
X0440853Y0068085D01*
X0439651Y0067587D01*
X0439319Y0067587D01*
X0439319Y0066763D01*
X0438905Y0065764D01*
X0439159Y0065764D01*
X0440361Y0065266D01*
X0441281Y0064345D01*
X0441623Y0063521D01*
X0442286Y0063795D01*
X0443110Y0063795D01*
X0443110Y0064619D01*
X0443608Y0065822D01*
X0444529Y0066742D01*
X0445731Y0067240D01*
X0447033Y0067240D01*
X0448235Y0066742D01*
X0449155Y0065822D01*
X0449654Y0064619D01*
X0449654Y0063318D01*
X0449155Y0062115D01*
X0448235Y0061195D01*
X0447033Y0060697D01*
X0446209Y0060697D01*
X0446209Y0059873D01*
X0445711Y0058670D01*
X0445595Y0058555D01*
X0552681Y0058555D01*
X0552681Y0099894D01*
X0535534Y0099894D01*
X0536092Y0099336D01*
X0536471Y0098421D01*
X0536471Y0097430D01*
X0536092Y0096514D01*
X0535391Y0095814D01*
X0534476Y0095435D01*
X0533485Y0095435D01*
X0532570Y0095814D01*
X0531869Y0096514D01*
X0531490Y0097430D01*
X0531490Y0097602D01*
X0526345Y0097602D01*
X0524307Y0099641D01*
X0524307Y0103581D01*
X0522268Y0101542D01*
X0516469Y0101542D01*
X0512369Y0105643D01*
X0512369Y0111442D01*
X0516469Y0115542D01*
X0522268Y0115542D01*
X0524307Y0113504D01*
X0524307Y0143581D01*
X0522268Y0141542D01*
X0516469Y0141542D01*
X0512369Y0145643D01*
X0512369Y0151442D01*
X0516469Y0155542D01*
X0522268Y0155542D01*
X0524307Y0153504D01*
X0524307Y0170947D01*
X0516451Y0178803D01*
X0432363Y0178803D01*
X0429480Y0175920D01*
X0429480Y0172483D01*
X0429792Y0172171D01*
X0430172Y0171255D01*
X0430172Y0170264D01*
X0429792Y0169349D01*
X0429092Y0168648D01*
X0428177Y0168269D01*
X0427186Y0168269D01*
X0426270Y0168648D01*
X0425570Y0169349D01*
X0425191Y0170264D01*
X0425191Y0171255D01*
X0425570Y0172171D01*
X0425882Y0172483D01*
X0425882Y0177411D01*
X0429074Y0180602D01*
X0206224Y0180602D01*
X0198350Y0172728D01*
X0198350Y0160917D01*
X0190476Y0153043D01*
X0103555Y0153043D01*
X0106113Y0150485D01*
X0106113Y0146757D01*
X0103477Y0144121D01*
X0099749Y0144121D01*
X0097113Y0146757D01*
X0097113Y0150485D01*
X0099671Y0153043D01*
X0093555Y0153043D01*
X0096113Y0150485D01*
X0096113Y0146757D01*
X0093477Y0144121D01*
X0089749Y0144121D01*
X0087113Y0146757D01*
X0087113Y0150485D01*
X0089671Y0153043D01*
X0083555Y0153043D01*
X0086113Y0150485D01*
X0086113Y0146757D01*
X0083477Y0144121D01*
X0079749Y0144121D01*
X0077113Y0146757D01*
X0077113Y0150485D01*
X0079671Y0153043D01*
X0069058Y0153043D01*
X0069058Y0128367D01*
X0070429Y0127799D01*
X0072011Y0126217D01*
X0072868Y0124150D01*
X0072868Y0121912D01*
X0072011Y0119844D01*
X0070429Y0118262D01*
X0069058Y0117694D01*
X0069058Y0117553D02*
X0280012Y0117553D01*
X0280012Y0118551D02*
X0238445Y0118551D01*
X0237934Y0118041D02*
X0240716Y0120822D01*
X0240716Y0124755D01*
X0237934Y0127537D01*
X0234001Y0127537D01*
X0231220Y0124755D01*
X0231220Y0120822D01*
X0234001Y0118041D01*
X0237934Y0118041D01*
X0237934Y0117537D02*
X0234001Y0117537D01*
X0231220Y0114755D01*
X0231220Y0110822D01*
X0234001Y0108041D01*
X0237934Y0108041D01*
X0240716Y0110822D01*
X0240716Y0114755D01*
X0237934Y0117537D01*
X0238917Y0116554D02*
X0280012Y0116554D01*
X0280012Y0116290D02*
X0280168Y0116134D01*
X0280012Y0115978D01*
X0280012Y0114176D01*
X0279780Y0114176D01*
X0278865Y0113796D01*
X0278164Y0113096D01*
X0277785Y0112180D01*
X0277785Y0111190D01*
X0278164Y0110274D01*
X0278865Y0109574D01*
X0279780Y0109194D01*
X0280012Y0109194D01*
X0280012Y0107176D01*
X0279780Y0107176D01*
X0278865Y0106796D01*
X0278164Y0106096D01*
X0277785Y0105180D01*
X0277785Y0104190D01*
X0278164Y0103274D01*
X0278865Y0102574D01*
X0279780Y0102194D01*
X0280012Y0102194D01*
X0280012Y0100676D01*
X0279780Y0100676D01*
X0278865Y0100296D01*
X0278164Y0099596D01*
X0277785Y0098680D01*
X0277785Y0097690D01*
X0278164Y0096774D01*
X0278865Y0096074D01*
X0279780Y0095694D01*
X0280430Y0095694D01*
X0281183Y0094941D01*
X0288746Y0094941D01*
X0289148Y0095343D01*
X0289550Y0094941D01*
X0300459Y0094941D01*
X0300924Y0094780D01*
X0301256Y0094941D01*
X0301624Y0094941D01*
X0301972Y0095289D01*
X0303250Y0095909D01*
X0305013Y0095909D01*
X0305892Y0096788D01*
X0305892Y0101031D01*
X0305665Y0101257D01*
X0305665Y0101483D01*
X0305892Y0101709D01*
X0305892Y0105952D01*
X0305552Y0106291D01*
X0305892Y0106631D01*
X0305892Y0110873D01*
X0305665Y0111100D01*
X0305665Y0111326D01*
X0305892Y0111552D01*
X0305892Y0115795D01*
X0305531Y0116155D01*
X0305665Y0116290D01*
X0305665Y0117723D01*
X0305892Y0117950D01*
X0305892Y0122192D01*
X0305665Y0122419D01*
X0305665Y0126929D01*
X0318765Y0126929D01*
X0319638Y0127802D01*
X0320245Y0127195D01*
X0324487Y0127195D01*
X0324714Y0127421D01*
X0324940Y0127421D01*
X0325166Y0127195D01*
X0329409Y0127195D01*
X0330287Y0128074D01*
X0330287Y0128525D01*
X0330355Y0128593D01*
X0330355Y0129115D01*
X0331017Y0131224D01*
X0331256Y0131462D01*
X0331256Y0131984D01*
X0331412Y0132482D01*
X0331256Y0132781D01*
X0331256Y0137632D01*
X0330084Y0138803D01*
X0320553Y0138803D01*
X0319413Y0137663D01*
X0318765Y0138311D01*
X0281183Y0138311D01*
X0280012Y0137139D01*
X0280012Y0116290D01*
X0280012Y0115556D02*
X0239915Y0115556D01*
X0240716Y0114557D02*
X0280012Y0114557D01*
X0278627Y0113559D02*
X0240716Y0113559D01*
X0240716Y0112560D02*
X0277942Y0112560D01*
X0277785Y0111562D02*
X0240716Y0111562D01*
X0240457Y0110563D02*
X0278045Y0110563D01*
X0278887Y0109565D02*
X0239458Y0109565D01*
X0238460Y0108566D02*
X0280012Y0108566D01*
X0280012Y0107568D02*
X0069058Y0107568D01*
X0069058Y0108566D02*
X0233476Y0108566D01*
X0232477Y0109565D02*
X0069058Y0109565D01*
X0069058Y0110563D02*
X0231479Y0110563D01*
X0231220Y0111562D02*
X0069058Y0111562D01*
X0069058Y0112560D02*
X0231220Y0112560D01*
X0231220Y0113559D02*
X0069058Y0113559D01*
X0069058Y0114557D02*
X0231220Y0114557D01*
X0232020Y0115556D02*
X0069058Y0115556D01*
X0069058Y0116554D02*
X0233018Y0116554D01*
X0233490Y0118551D02*
X0070718Y0118551D01*
X0071717Y0119550D02*
X0232492Y0119550D01*
X0231493Y0120548D02*
X0072303Y0120548D01*
X0072717Y0121547D02*
X0231220Y0121547D01*
X0231220Y0122545D02*
X0072868Y0122545D01*
X0072868Y0123544D02*
X0231220Y0123544D01*
X0231220Y0124542D02*
X0072705Y0124542D01*
X0072292Y0125541D02*
X0232005Y0125541D01*
X0233004Y0126539D02*
X0071689Y0126539D01*
X0070691Y0127538D02*
X0280012Y0127538D01*
X0280012Y0128536D02*
X0069058Y0128536D01*
X0069058Y0129535D02*
X0280012Y0129535D01*
X0280012Y0130533D02*
X0069058Y0130533D01*
X0069058Y0131532D02*
X0280012Y0131532D01*
X0280012Y0132530D02*
X0069058Y0132530D01*
X0069058Y0133529D02*
X0280012Y0133529D01*
X0280012Y0134527D02*
X0101450Y0134527D01*
X0101711Y0134789D02*
X0102120Y0135776D01*
X0102120Y0136846D01*
X0101711Y0137833D01*
X0100955Y0138589D01*
X0099968Y0138998D01*
X0098898Y0138998D01*
X0097911Y0138589D01*
X0097155Y0137833D01*
X0096746Y0136846D01*
X0096746Y0135776D01*
X0097155Y0134789D01*
X0097911Y0134033D01*
X0098898Y0133624D01*
X0099968Y0133624D01*
X0100955Y0134033D01*
X0101711Y0134789D01*
X0102017Y0135526D02*
X0280012Y0135526D01*
X0280012Y0136524D02*
X0102120Y0136524D01*
X0101840Y0137523D02*
X0280395Y0137523D01*
X0282012Y0136311D02*
X0317937Y0136311D01*
X0317937Y0128929D01*
X0304650Y0128929D01*
X0303665Y0127945D01*
X0303665Y0117118D01*
X0282012Y0117118D01*
X0282012Y0136311D01*
X0282012Y0135526D02*
X0317937Y0135526D01*
X0317937Y0134527D02*
X0282012Y0134527D01*
X0282012Y0133529D02*
X0317937Y0133529D01*
X0317937Y0132530D02*
X0282012Y0132530D01*
X0282012Y0131532D02*
X0317937Y0131532D01*
X0317937Y0130533D02*
X0282012Y0130533D01*
X0282012Y0129535D02*
X0317937Y0129535D01*
X0319374Y0127538D02*
X0319902Y0127538D01*
X0321382Y0129421D02*
X0321382Y0136803D01*
X0329256Y0136803D01*
X0329256Y0132291D01*
X0328355Y0129421D01*
X0321382Y0129421D01*
X0321382Y0129535D02*
X0328391Y0129535D01*
X0328704Y0130533D02*
X0321382Y0130533D01*
X0321382Y0131532D02*
X0329018Y0131532D01*
X0329256Y0132530D02*
X0321382Y0132530D01*
X0321382Y0133529D02*
X0329256Y0133529D01*
X0329256Y0134527D02*
X0321382Y0134527D01*
X0321382Y0135526D02*
X0329256Y0135526D01*
X0329256Y0136524D02*
X0321382Y0136524D01*
X0320272Y0138521D02*
X0101023Y0138521D01*
X0097843Y0138521D02*
X0069058Y0138521D01*
X0069058Y0137523D02*
X0097026Y0137523D01*
X0096746Y0136524D02*
X0069058Y0136524D01*
X0069058Y0135526D02*
X0096849Y0135526D01*
X0097416Y0134527D02*
X0069058Y0134527D01*
X0069058Y0139520D02*
X0524307Y0139520D01*
X0524307Y0140518D02*
X0069058Y0140518D01*
X0069058Y0141517D02*
X0524307Y0141517D01*
X0524307Y0142515D02*
X0523241Y0142515D01*
X0524240Y0143514D02*
X0524307Y0143514D01*
X0524307Y0138521D02*
X0479904Y0138521D01*
X0479477Y0138949D02*
X0473342Y0138949D01*
X0469004Y0134611D01*
X0469004Y0128476D01*
X0473342Y0124138D01*
X0479477Y0124138D01*
X0483815Y0128476D01*
X0483815Y0134611D01*
X0479477Y0138949D01*
X0480903Y0137523D02*
X0524307Y0137523D01*
X0524307Y0136524D02*
X0481901Y0136524D01*
X0482900Y0135526D02*
X0524307Y0135526D01*
X0524307Y0134527D02*
X0483815Y0134527D01*
X0483815Y0133529D02*
X0524307Y0133529D01*
X0524307Y0132530D02*
X0483815Y0132530D01*
X0483815Y0131532D02*
X0524307Y0131532D01*
X0524307Y0130533D02*
X0483815Y0130533D01*
X0483815Y0129535D02*
X0524307Y0129535D01*
X0524307Y0128536D02*
X0483815Y0128536D01*
X0482877Y0127538D02*
X0524307Y0127538D01*
X0524307Y0126539D02*
X0481878Y0126539D01*
X0480880Y0125541D02*
X0524307Y0125541D01*
X0524307Y0124542D02*
X0479881Y0124542D01*
X0472938Y0124542D02*
X0420787Y0124542D01*
X0420342Y0124727D02*
X0419273Y0124727D01*
X0418285Y0124318D01*
X0417529Y0123562D01*
X0417120Y0122574D01*
X0417120Y0121505D01*
X0417529Y0120517D01*
X0418285Y0119761D01*
X0419273Y0119352D01*
X0420342Y0119352D01*
X0421057Y0119648D01*
X0421057Y0119044D01*
X0421466Y0118056D01*
X0422222Y0117300D01*
X0423210Y0116891D01*
X0424279Y0116891D01*
X0425266Y0117300D01*
X0426022Y0118056D01*
X0426431Y0119044D01*
X0426431Y0120113D01*
X0426022Y0121101D01*
X0425266Y0121857D01*
X0424279Y0122266D01*
X0423210Y0122266D01*
X0422494Y0121970D01*
X0422494Y0122574D01*
X0422085Y0123562D01*
X0421329Y0124318D01*
X0420342Y0124727D01*
X0418827Y0124542D02*
X0411754Y0124542D01*
X0411487Y0124810D02*
X0412243Y0124054D01*
X0412652Y0123066D01*
X0412652Y0121997D01*
X0412356Y0121282D01*
X0412468Y0121282D01*
X0413455Y0120873D01*
X0414211Y0120117D01*
X0414620Y0119129D01*
X0414620Y0118060D01*
X0414211Y0117072D01*
X0413455Y0116316D01*
X0412468Y0115907D01*
X0411398Y0115907D01*
X0410411Y0116316D01*
X0409655Y0117072D01*
X0409246Y0118060D01*
X0409246Y0119129D01*
X0409542Y0119844D01*
X0409430Y0119844D01*
X0408442Y0120253D01*
X0407686Y0121009D01*
X0407277Y0121997D01*
X0407277Y0123066D01*
X0407686Y0124054D01*
X0408442Y0124810D01*
X0409430Y0125219D01*
X0410499Y0125219D01*
X0411487Y0124810D01*
X0412454Y0123544D02*
X0417521Y0123544D01*
X0417120Y0122545D02*
X0412652Y0122545D01*
X0412465Y0121547D02*
X0417120Y0121547D01*
X0417516Y0120548D02*
X0413780Y0120548D01*
X0414446Y0119550D02*
X0418795Y0119550D01*
X0418780Y0118821D02*
X0417793Y0118412D01*
X0417037Y0117656D01*
X0416628Y0116668D01*
X0416628Y0115599D01*
X0417037Y0114612D01*
X0417793Y0113856D01*
X0418780Y0113446D01*
X0419850Y0113446D01*
X0420824Y0113850D01*
X0420565Y0113224D01*
X0420565Y0112154D01*
X0420974Y0111167D01*
X0421730Y0110411D01*
X0422717Y0110002D01*
X0423787Y0110002D01*
X0424774Y0110411D01*
X0425530Y0111167D01*
X0425939Y0112154D01*
X0425939Y0113224D01*
X0425530Y0114211D01*
X0424774Y0114967D01*
X0423787Y0115376D01*
X0422717Y0115376D01*
X0421743Y0114973D01*
X0422002Y0115599D01*
X0422002Y0116668D01*
X0421593Y0117656D01*
X0420837Y0118412D01*
X0419850Y0118821D01*
X0418780Y0118821D01*
X0418128Y0118551D02*
X0414620Y0118551D01*
X0414410Y0117553D02*
X0416994Y0117553D01*
X0416628Y0116554D02*
X0413693Y0116554D01*
X0414351Y0114884D02*
X0413364Y0114475D01*
X0412608Y0113719D01*
X0412527Y0113525D01*
X0412243Y0114211D01*
X0411487Y0114967D01*
X0410499Y0115376D01*
X0409430Y0115376D01*
X0408442Y0114967D01*
X0407686Y0114211D01*
X0407277Y0113224D01*
X0407277Y0112154D01*
X0407686Y0111167D01*
X0408442Y0110411D01*
X0409430Y0110002D01*
X0410499Y0110002D01*
X0411487Y0110411D01*
X0412243Y0111167D01*
X0412323Y0111361D01*
X0412608Y0110675D01*
X0413364Y0109919D01*
X0414351Y0109509D01*
X0415420Y0109509D01*
X0416408Y0109919D01*
X0417164Y0110675D01*
X0417573Y0111662D01*
X0417573Y0112731D01*
X0417164Y0113719D01*
X0416408Y0114475D01*
X0415420Y0114884D01*
X0414351Y0114884D01*
X0413562Y0114557D02*
X0411897Y0114557D01*
X0412513Y0113559D02*
X0412541Y0113559D01*
X0412719Y0110563D02*
X0411639Y0110563D01*
X0414218Y0109565D02*
X0345528Y0109565D01*
X0345528Y0110563D02*
X0408290Y0110563D01*
X0407523Y0111562D02*
X0345528Y0111562D01*
X0345528Y0112533D02*
X0345403Y0112657D01*
X0347309Y0112657D01*
X0348480Y0113829D01*
X0348480Y0123360D01*
X0347309Y0124531D01*
X0339506Y0124531D01*
X0339206Y0124688D01*
X0338709Y0124531D01*
X0338187Y0124531D01*
X0337948Y0124293D01*
X0335839Y0123630D01*
X0335317Y0123630D01*
X0335250Y0123563D01*
X0334798Y0123563D01*
X0333919Y0122684D01*
X0333919Y0118442D01*
X0334146Y0118215D01*
X0334146Y0117989D01*
X0333919Y0117763D01*
X0333919Y0113520D01*
X0334259Y0113181D01*
X0333919Y0112842D01*
X0333919Y0108599D01*
X0334013Y0108506D01*
X0333919Y0108413D01*
X0333919Y0104170D01*
X0334146Y0103944D01*
X0334146Y0103903D01*
X0334450Y0103599D01*
X0335539Y0100972D01*
X0335539Y0100542D01*
X0335843Y0100237D01*
X0336008Y0099839D01*
X0336406Y0099674D01*
X0336710Y0099370D01*
X0337141Y0099370D01*
X0337539Y0099205D01*
X0337937Y0099370D01*
X0344356Y0099370D01*
X0345528Y0100542D01*
X0345528Y0112533D01*
X0345501Y0112560D02*
X0407277Y0112560D01*
X0407416Y0113559D02*
X0348210Y0113559D01*
X0348480Y0114557D02*
X0408032Y0114557D01*
X0410173Y0116554D02*
X0348480Y0116554D01*
X0348480Y0115556D02*
X0416646Y0115556D01*
X0416210Y0114557D02*
X0417091Y0114557D01*
X0417231Y0113559D02*
X0418510Y0113559D01*
X0417573Y0112560D02*
X0420565Y0112560D01*
X0420703Y0113559D02*
X0420120Y0113559D01*
X0420810Y0111562D02*
X0417531Y0111562D01*
X0417053Y0110563D02*
X0421577Y0110563D01*
X0424927Y0110563D02*
X0512369Y0110563D01*
X0512369Y0109565D02*
X0453127Y0109565D01*
X0453415Y0109277D02*
X0452714Y0109977D01*
X0451799Y0110357D01*
X0450808Y0110357D01*
X0449892Y0109977D01*
X0449192Y0109277D01*
X0448813Y0108362D01*
X0448813Y0107371D01*
X0449001Y0106916D01*
X0441615Y0099530D01*
X0441457Y0099530D01*
X0440542Y0099151D01*
X0439841Y0098450D01*
X0439462Y0097535D01*
X0439462Y0096544D01*
X0439841Y0095629D01*
X0440542Y0094928D01*
X0441457Y0094549D01*
X0442448Y0094549D01*
X0443364Y0094928D01*
X0444064Y0095629D01*
X0444443Y0096544D01*
X0444443Y0096701D01*
X0452132Y0104390D01*
X0453303Y0105561D01*
X0453303Y0106344D01*
X0453415Y0106455D01*
X0453794Y0107371D01*
X0453794Y0108362D01*
X0453415Y0109277D01*
X0453709Y0108566D02*
X0512369Y0108566D01*
X0512369Y0107568D02*
X0453794Y0107568D01*
X0453462Y0106569D02*
X0481895Y0106569D01*
X0481930Y0106604D02*
X0481010Y0105684D01*
X0480668Y0104859D01*
X0480005Y0105134D01*
X0478704Y0105134D01*
X0477501Y0104636D01*
X0476581Y0103715D01*
X0476083Y0102513D01*
X0476083Y0101887D01*
X0475794Y0102175D01*
X0474592Y0102673D01*
X0473701Y0102673D01*
X0473270Y0103715D01*
X0472349Y0104636D01*
X0471147Y0105134D01*
X0469845Y0105134D01*
X0468643Y0104636D01*
X0467722Y0103715D01*
X0467224Y0102513D01*
X0467224Y0101211D01*
X0467722Y0100009D01*
X0468643Y0099089D01*
X0469845Y0098591D01*
X0469980Y0098591D01*
X0469199Y0097810D01*
X0468701Y0096607D01*
X0468701Y0095306D01*
X0468729Y0095237D01*
X0467659Y0094793D01*
X0466738Y0093873D01*
X0466240Y0092670D01*
X0466240Y0091369D01*
X0466738Y0090166D01*
X0467659Y0089246D01*
X0468861Y0088748D01*
X0470163Y0088748D01*
X0471365Y0089246D01*
X0472285Y0090166D01*
X0472363Y0090353D01*
X0472644Y0089674D01*
X0473564Y0088754D01*
X0474767Y0088256D01*
X0476068Y0088256D01*
X0477271Y0088754D01*
X0478191Y0089674D01*
X0478689Y0090877D01*
X0478689Y0092178D01*
X0478414Y0092841D01*
X0479120Y0093134D01*
X0479534Y0092135D01*
X0480454Y0091215D01*
X0481656Y0090717D01*
X0482958Y0090717D01*
X0484160Y0091215D01*
X0485081Y0092135D01*
X0485579Y0093337D01*
X0485579Y0094639D01*
X0485406Y0095056D01*
X0485637Y0095152D01*
X0486557Y0096072D01*
X0487055Y0097274D01*
X0487055Y0097409D01*
X0487836Y0096628D01*
X0488022Y0096551D01*
X0487344Y0096270D01*
X0486423Y0095349D01*
X0485925Y0094147D01*
X0485925Y0092845D01*
X0486423Y0091643D01*
X0487344Y0090722D01*
X0488546Y0090224D01*
X0489848Y0090224D01*
X0491050Y0090722D01*
X0491970Y0091643D01*
X0492468Y0092845D01*
X0492468Y0094147D01*
X0491970Y0095349D01*
X0491050Y0096270D01*
X0490864Y0096347D01*
X0491542Y0096628D01*
X0492463Y0097548D01*
X0492630Y0097953D01*
X0492670Y0097937D01*
X0492323Y0097100D01*
X0492323Y0095798D01*
X0492821Y0094596D01*
X0493741Y0093675D01*
X0494944Y0093177D01*
X0496245Y0093177D01*
X0497448Y0093675D01*
X0497736Y0093964D01*
X0497736Y0093337D01*
X0498234Y0092135D01*
X0499155Y0091215D01*
X0500357Y0090717D01*
X0501659Y0090717D01*
X0502861Y0091215D01*
X0503781Y0092135D01*
X0504280Y0093337D01*
X0504280Y0094639D01*
X0503781Y0095841D01*
X0502861Y0096762D01*
X0501659Y0097260D01*
X0501026Y0097260D01*
X0501877Y0097612D01*
X0502797Y0098533D01*
X0503295Y0099735D01*
X0503295Y0101037D01*
X0502797Y0102239D01*
X0501877Y0103159D01*
X0500674Y0103657D01*
X0499373Y0103657D01*
X0498170Y0103159D01*
X0497250Y0102239D01*
X0497173Y0102052D01*
X0496892Y0102731D01*
X0495971Y0103651D01*
X0494769Y0104150D01*
X0493467Y0104150D01*
X0492265Y0103651D01*
X0491345Y0102731D01*
X0491177Y0102326D01*
X0490340Y0102673D01*
X0489038Y0102673D01*
X0487836Y0102175D01*
X0486915Y0101255D01*
X0486417Y0100052D01*
X0486417Y0099918D01*
X0485637Y0100699D01*
X0485204Y0100878D01*
X0485637Y0101057D01*
X0486557Y0101977D01*
X0487055Y0103180D01*
X0487055Y0104481D01*
X0486557Y0105684D01*
X0485637Y0106604D01*
X0484434Y0107102D01*
X0483133Y0107102D01*
X0481930Y0106604D01*
X0480963Y0105570D02*
X0453303Y0105570D01*
X0452314Y0104572D02*
X0468579Y0104572D01*
X0467664Y0103573D02*
X0451315Y0103573D01*
X0450317Y0102575D02*
X0467250Y0102575D01*
X0467224Y0101576D02*
X0449318Y0101576D01*
X0448320Y0100578D02*
X0467487Y0100578D01*
X0468152Y0099579D02*
X0447321Y0099579D01*
X0446323Y0098581D02*
X0469970Y0098581D01*
X0469105Y0097582D02*
X0445324Y0097582D01*
X0444443Y0096584D02*
X0468701Y0096584D01*
X0468701Y0095585D02*
X0444021Y0095585D01*
X0442540Y0094587D02*
X0467452Y0094587D01*
X0466620Y0093588D02*
X0439031Y0093588D01*
X0439031Y0092590D02*
X0466240Y0092590D01*
X0466240Y0091591D02*
X0439031Y0091591D01*
X0439031Y0090593D02*
X0466562Y0090593D01*
X0467310Y0089594D02*
X0439031Y0089594D01*
X0439031Y0088719D02*
X0439031Y0103281D01*
X0434109Y0108204D01*
X0434109Y0108362D01*
X0433729Y0109277D01*
X0433029Y0109977D01*
X0432114Y0110357D01*
X0431123Y0110357D01*
X0430207Y0109977D01*
X0429507Y0109277D01*
X0429128Y0108362D01*
X0429128Y0107371D01*
X0429507Y0106455D01*
X0430207Y0105755D01*
X0431123Y0105376D01*
X0431280Y0105376D01*
X0432205Y0104451D01*
X0431615Y0104451D01*
X0430699Y0104072D01*
X0429999Y0103371D01*
X0429620Y0102456D01*
X0429620Y0101465D01*
X0429810Y0101005D01*
X0429810Y0088152D01*
X0429620Y0087692D01*
X0429620Y0086701D01*
X0429999Y0085786D01*
X0430699Y0085085D01*
X0431615Y0084706D01*
X0432606Y0084706D01*
X0433521Y0085085D01*
X0434222Y0085786D01*
X0434571Y0086629D01*
X0434920Y0085786D01*
X0435621Y0085085D01*
X0436536Y0084706D01*
X0437527Y0084706D01*
X0438442Y0085085D01*
X0439143Y0085786D01*
X0439522Y0086701D01*
X0439522Y0087692D01*
X0439143Y0088608D01*
X0439031Y0088719D01*
X0439148Y0088596D02*
X0473946Y0088596D01*
X0472724Y0089594D02*
X0471713Y0089594D01*
X0476889Y0088596D02*
X0552681Y0088596D01*
X0552681Y0089594D02*
X0478111Y0089594D01*
X0478571Y0090593D02*
X0487657Y0090593D01*
X0486475Y0091591D02*
X0484537Y0091591D01*
X0485269Y0092590D02*
X0486031Y0092590D01*
X0485925Y0093588D02*
X0485579Y0093588D01*
X0485579Y0094587D02*
X0486107Y0094587D01*
X0486070Y0095585D02*
X0486659Y0095585D01*
X0486769Y0096584D02*
X0487942Y0096584D01*
X0491436Y0096584D02*
X0492323Y0096584D01*
X0492411Y0095585D02*
X0491734Y0095585D01*
X0492286Y0094587D02*
X0492830Y0094587D01*
X0492468Y0093588D02*
X0493951Y0093588D01*
X0492363Y0092590D02*
X0498046Y0092590D01*
X0497736Y0093588D02*
X0497238Y0093588D01*
X0498778Y0091591D02*
X0491919Y0091591D01*
X0490737Y0090593D02*
X0552681Y0090593D01*
X0552681Y0091591D02*
X0503238Y0091591D01*
X0503970Y0092590D02*
X0552681Y0092590D01*
X0552681Y0093588D02*
X0504280Y0093588D01*
X0504280Y0094587D02*
X0552681Y0094587D01*
X0552681Y0095585D02*
X0534840Y0095585D01*
X0536120Y0096584D02*
X0552681Y0096584D01*
X0552681Y0097582D02*
X0536471Y0097582D01*
X0536404Y0098581D02*
X0552681Y0098581D01*
X0552681Y0099579D02*
X0535848Y0099579D01*
X0531490Y0097582D02*
X0501805Y0097582D01*
X0502817Y0098581D02*
X0525367Y0098581D01*
X0524368Y0099579D02*
X0503231Y0099579D01*
X0503295Y0100578D02*
X0524307Y0100578D01*
X0524307Y0101576D02*
X0522302Y0101576D01*
X0523301Y0102575D02*
X0524307Y0102575D01*
X0524299Y0103573D02*
X0524307Y0103573D01*
X0516435Y0101576D02*
X0503072Y0101576D01*
X0502461Y0102575D02*
X0515437Y0102575D01*
X0514438Y0103573D02*
X0500877Y0103573D01*
X0499170Y0103573D02*
X0496049Y0103573D01*
X0496956Y0102575D02*
X0497586Y0102575D01*
X0492187Y0103573D02*
X0487055Y0103573D01*
X0487018Y0104572D02*
X0513440Y0104572D01*
X0512441Y0105570D02*
X0486604Y0105570D01*
X0485672Y0106569D02*
X0512369Y0106569D01*
X0512488Y0111562D02*
X0425694Y0111562D01*
X0425939Y0112560D02*
X0513487Y0112560D01*
X0514485Y0113559D02*
X0425801Y0113559D01*
X0425184Y0114557D02*
X0515484Y0114557D01*
X0523254Y0114557D02*
X0524307Y0114557D01*
X0524307Y0113559D02*
X0524252Y0113559D01*
X0524307Y0115556D02*
X0421984Y0115556D01*
X0422002Y0116554D02*
X0524307Y0116554D01*
X0524307Y0117553D02*
X0425519Y0117553D01*
X0426227Y0118551D02*
X0524307Y0118551D01*
X0524307Y0119550D02*
X0426431Y0119550D01*
X0426251Y0120548D02*
X0524307Y0120548D01*
X0524307Y0121547D02*
X0425577Y0121547D01*
X0422494Y0122545D02*
X0524307Y0122545D01*
X0524307Y0123544D02*
X0422093Y0123544D01*
X0421057Y0119550D02*
X0420819Y0119550D01*
X0420502Y0118551D02*
X0421261Y0118551D01*
X0421636Y0117553D02*
X0421970Y0117553D01*
X0415553Y0109565D02*
X0429794Y0109565D01*
X0429212Y0108566D02*
X0345528Y0108566D01*
X0345528Y0107568D02*
X0429128Y0107568D01*
X0429460Y0106569D02*
X0345528Y0106569D01*
X0345528Y0105570D02*
X0430652Y0105570D01*
X0432084Y0104572D02*
X0345528Y0104572D01*
X0345528Y0103573D02*
X0430201Y0103573D01*
X0429669Y0102575D02*
X0345528Y0102575D01*
X0345528Y0101576D02*
X0429620Y0101576D01*
X0429810Y0100578D02*
X0345528Y0100578D01*
X0344565Y0099579D02*
X0429810Y0099579D01*
X0429810Y0098581D02*
X0332413Y0098581D01*
X0332173Y0098821D02*
X0332732Y0098261D01*
X0332732Y0098218D01*
X0336361Y0094311D01*
X0347710Y0094311D01*
X0348022Y0094623D01*
X0348938Y0095002D01*
X0349928Y0095002D01*
X0350844Y0094623D01*
X0351544Y0093923D01*
X0351924Y0093007D01*
X0351924Y0092016D01*
X0351544Y0091101D01*
X0350844Y0090400D01*
X0349928Y0090021D01*
X0348938Y0090021D01*
X0348022Y0090400D01*
X0347710Y0090713D01*
X0343067Y0090713D01*
X0343067Y0083317D01*
X0341895Y0082146D01*
X0330382Y0082146D01*
X0330395Y0082133D01*
X0330395Y0077390D01*
X0330272Y0077266D01*
X0330272Y0071998D01*
X0329100Y0070827D01*
X0313664Y0070827D01*
X0312492Y0071998D01*
X0312000Y0072490D01*
X0312000Y0076774D01*
X0311384Y0077390D01*
X0311384Y0081161D01*
X0300376Y0081161D01*
X0299205Y0082333D01*
X0299205Y0091372D01*
X0300376Y0092543D01*
X0305790Y0092543D01*
X0308555Y0095309D01*
X0308555Y0098261D01*
X0309727Y0099433D01*
X0319750Y0099433D01*
X0319906Y0099277D01*
X0320061Y0099433D01*
X0329947Y0099433D01*
X0329978Y0099462D01*
X0330769Y0099433D01*
X0331561Y0099433D01*
X0331591Y0099403D01*
X0331634Y0099401D01*
X0332173Y0098821D01*
X0333193Y0099402D02*
X0305634Y0099402D01*
X0305634Y0126961D01*
X0333193Y0126961D01*
X0333193Y0099402D01*
X0333193Y0099579D02*
X0305634Y0099579D01*
X0305892Y0099579D02*
X0336501Y0099579D01*
X0335539Y0100578D02*
X0305892Y0100578D01*
X0305634Y0100578D02*
X0333193Y0100578D01*
X0333193Y0101576D02*
X0305634Y0101576D01*
X0305759Y0101576D02*
X0335288Y0101576D01*
X0334875Y0102575D02*
X0305892Y0102575D01*
X0305634Y0102575D02*
X0333193Y0102575D01*
X0333193Y0103573D02*
X0305634Y0103573D01*
X0305892Y0103573D02*
X0334461Y0103573D01*
X0333919Y0104572D02*
X0305892Y0104572D01*
X0305634Y0104572D02*
X0333193Y0104572D01*
X0333193Y0105570D02*
X0305634Y0105570D01*
X0305892Y0105570D02*
X0333919Y0105570D01*
X0333919Y0106569D02*
X0305830Y0106569D01*
X0305634Y0106569D02*
X0333193Y0106569D01*
X0333193Y0107568D02*
X0305634Y0107568D01*
X0305892Y0107568D02*
X0333919Y0107568D01*
X0333952Y0108566D02*
X0305892Y0108566D01*
X0305634Y0108566D02*
X0333193Y0108566D01*
X0333193Y0109565D02*
X0305634Y0109565D01*
X0305892Y0109565D02*
X0333919Y0109565D01*
X0333919Y0110563D02*
X0305892Y0110563D01*
X0305634Y0110563D02*
X0333193Y0110563D01*
X0333193Y0111562D02*
X0305634Y0111562D01*
X0305892Y0111562D02*
X0333919Y0111562D01*
X0333919Y0112560D02*
X0305892Y0112560D01*
X0305634Y0112560D02*
X0333193Y0112560D01*
X0333193Y0113559D02*
X0305634Y0113559D01*
X0305892Y0113559D02*
X0333919Y0113559D01*
X0333919Y0114557D02*
X0305892Y0114557D01*
X0305634Y0114557D02*
X0333193Y0114557D01*
X0333193Y0115556D02*
X0305634Y0115556D01*
X0305892Y0115556D02*
X0333919Y0115556D01*
X0333919Y0116554D02*
X0305665Y0116554D01*
X0305634Y0116554D02*
X0333193Y0116554D01*
X0333193Y0117553D02*
X0305634Y0117553D01*
X0305665Y0117553D02*
X0333919Y0117553D01*
X0333919Y0118551D02*
X0305892Y0118551D01*
X0305634Y0118551D02*
X0333193Y0118551D01*
X0333193Y0119550D02*
X0305634Y0119550D01*
X0305892Y0119550D02*
X0333919Y0119550D01*
X0333919Y0120548D02*
X0305892Y0120548D01*
X0305634Y0120548D02*
X0333193Y0120548D01*
X0333193Y0121547D02*
X0305634Y0121547D01*
X0305892Y0121547D02*
X0333919Y0121547D01*
X0333919Y0122545D02*
X0305665Y0122545D01*
X0305634Y0122545D02*
X0333193Y0122545D01*
X0333193Y0123544D02*
X0305634Y0123544D01*
X0305665Y0123544D02*
X0334779Y0123544D01*
X0333193Y0124542D02*
X0305634Y0124542D01*
X0305665Y0124542D02*
X0338743Y0124542D01*
X0339485Y0124542D02*
X0408175Y0124542D01*
X0407475Y0123544D02*
X0348297Y0123544D01*
X0348480Y0122545D02*
X0407277Y0122545D01*
X0407464Y0121547D02*
X0348480Y0121547D01*
X0348480Y0120548D02*
X0408147Y0120548D01*
X0409420Y0119550D02*
X0348480Y0119550D01*
X0348480Y0118551D02*
X0409246Y0118551D01*
X0409456Y0117553D02*
X0348480Y0117553D01*
X0346480Y0117553D02*
X0336146Y0117553D01*
X0336146Y0118551D02*
X0346480Y0118551D01*
X0346480Y0119550D02*
X0336146Y0119550D01*
X0336146Y0120548D02*
X0346480Y0120548D01*
X0346480Y0121547D02*
X0336146Y0121547D01*
X0336146Y0121630D02*
X0336146Y0114657D01*
X0346480Y0114657D01*
X0346480Y0122531D01*
X0339015Y0122531D01*
X0336146Y0121630D01*
X0333193Y0125541D02*
X0305634Y0125541D01*
X0305665Y0125541D02*
X0471939Y0125541D01*
X0470941Y0126539D02*
X0373603Y0126539D01*
X0373686Y0126574D02*
X0372771Y0126194D01*
X0371780Y0126194D01*
X0370865Y0126574D01*
X0370164Y0127274D01*
X0369785Y0128190D01*
X0369785Y0129180D01*
X0370164Y0130096D01*
X0370865Y0130796D01*
X0371780Y0131176D01*
X0372771Y0131176D01*
X0373686Y0130796D01*
X0374387Y0130096D01*
X0374766Y0129180D01*
X0374766Y0128190D01*
X0374387Y0127274D01*
X0373686Y0126574D01*
X0374496Y0127538D02*
X0469942Y0127538D01*
X0469004Y0128536D02*
X0374766Y0128536D01*
X0374619Y0129535D02*
X0469004Y0129535D01*
X0469004Y0130533D02*
X0373949Y0130533D01*
X0370602Y0130533D02*
X0368449Y0130533D01*
X0368186Y0130796D02*
X0367271Y0131176D01*
X0366280Y0131176D01*
X0365365Y0130796D01*
X0364664Y0130096D01*
X0364285Y0129180D01*
X0364285Y0128190D01*
X0364664Y0127274D01*
X0365365Y0126574D01*
X0366280Y0126194D01*
X0367271Y0126194D01*
X0368186Y0126574D01*
X0368887Y0127274D01*
X0369266Y0128190D01*
X0369266Y0129180D01*
X0368887Y0130096D01*
X0368186Y0130796D01*
X0369119Y0129535D02*
X0369932Y0129535D01*
X0369785Y0128536D02*
X0369266Y0128536D01*
X0368996Y0127538D02*
X0370055Y0127538D01*
X0370948Y0126539D02*
X0368103Y0126539D01*
X0365448Y0126539D02*
X0362603Y0126539D01*
X0362686Y0126574D02*
X0363387Y0127274D01*
X0363766Y0128190D01*
X0363766Y0129180D01*
X0363387Y0130096D01*
X0362686Y0130796D01*
X0361771Y0131176D01*
X0360780Y0131176D01*
X0359865Y0130796D01*
X0359164Y0130096D01*
X0358785Y0129180D01*
X0358785Y0128190D01*
X0359164Y0127274D01*
X0359865Y0126574D01*
X0360780Y0126194D01*
X0361771Y0126194D01*
X0362686Y0126574D01*
X0363496Y0127538D02*
X0364555Y0127538D01*
X0364285Y0128536D02*
X0363766Y0128536D01*
X0363619Y0129535D02*
X0364432Y0129535D01*
X0365102Y0130533D02*
X0362949Y0130533D01*
X0359602Y0130533D02*
X0357449Y0130533D01*
X0357186Y0130796D02*
X0356271Y0131176D01*
X0355280Y0131176D01*
X0354365Y0130796D01*
X0353664Y0130096D01*
X0353285Y0129180D01*
X0353285Y0128190D01*
X0353664Y0127274D01*
X0354365Y0126574D01*
X0355280Y0126194D01*
X0356271Y0126194D01*
X0357186Y0126574D01*
X0357887Y0127274D01*
X0358266Y0128190D01*
X0358266Y0129180D01*
X0357887Y0130096D01*
X0357186Y0130796D01*
X0358119Y0129535D02*
X0358932Y0129535D01*
X0358785Y0128536D02*
X0358266Y0128536D01*
X0357996Y0127538D02*
X0359055Y0127538D01*
X0359948Y0126539D02*
X0357103Y0126539D01*
X0354448Y0126539D02*
X0305665Y0126539D01*
X0305634Y0126539D02*
X0333193Y0126539D01*
X0330298Y0128536D02*
X0353285Y0128536D01*
X0353432Y0129535D02*
X0330487Y0129535D01*
X0330800Y0130533D02*
X0354102Y0130533D01*
X0353555Y0127538D02*
X0329752Y0127538D01*
X0331256Y0131532D02*
X0469004Y0131532D01*
X0469004Y0132530D02*
X0331387Y0132530D01*
X0331256Y0133529D02*
X0469004Y0133529D01*
X0469004Y0134527D02*
X0331256Y0134527D01*
X0331256Y0135526D02*
X0469919Y0135526D01*
X0470918Y0136524D02*
X0331256Y0136524D01*
X0331256Y0137523D02*
X0471916Y0137523D01*
X0472915Y0138521D02*
X0330366Y0138521D01*
X0336146Y0116554D02*
X0346480Y0116554D01*
X0346480Y0115556D02*
X0336146Y0115556D01*
X0336146Y0111705D02*
X0343528Y0111705D01*
X0343528Y0101370D01*
X0337539Y0101370D01*
X0336146Y0104732D01*
X0336146Y0111705D01*
X0336146Y0111562D02*
X0343528Y0111562D01*
X0343528Y0110563D02*
X0336146Y0110563D01*
X0336146Y0109565D02*
X0343528Y0109565D01*
X0343528Y0108566D02*
X0336146Y0108566D01*
X0336146Y0107568D02*
X0343528Y0107568D01*
X0343528Y0106569D02*
X0336146Y0106569D01*
X0336146Y0105570D02*
X0343528Y0105570D01*
X0343528Y0104572D02*
X0336212Y0104572D01*
X0336626Y0103573D02*
X0343528Y0103573D01*
X0343528Y0102575D02*
X0337040Y0102575D01*
X0337453Y0101576D02*
X0343528Y0101576D01*
X0347986Y0094587D02*
X0336104Y0094587D01*
X0335177Y0095585D02*
X0429810Y0095585D01*
X0429810Y0094587D02*
X0350880Y0094587D01*
X0351683Y0093588D02*
X0429810Y0093588D01*
X0429810Y0092590D02*
X0351924Y0092590D01*
X0351748Y0091591D02*
X0429810Y0091591D01*
X0429810Y0090593D02*
X0351036Y0090593D01*
X0347830Y0090593D02*
X0343067Y0090593D01*
X0343067Y0089594D02*
X0416604Y0089594D01*
X0416316Y0089475D02*
X0415560Y0088719D01*
X0415151Y0087731D01*
X0415151Y0086662D01*
X0415560Y0085675D01*
X0416316Y0084919D01*
X0417304Y0084509D01*
X0418373Y0084509D01*
X0419361Y0084919D01*
X0420117Y0085675D01*
X0420526Y0086662D01*
X0420526Y0087731D01*
X0420117Y0088719D01*
X0419361Y0089475D01*
X0418373Y0089884D01*
X0417304Y0089884D01*
X0416316Y0089475D01*
X0415509Y0088596D02*
X0343067Y0088596D01*
X0343067Y0087597D02*
X0415151Y0087597D01*
X0415177Y0086599D02*
X0366684Y0086599D01*
X0366438Y0086845D02*
X0364802Y0087523D01*
X0363030Y0087523D01*
X0361394Y0086845D01*
X0360141Y0085592D01*
X0359463Y0083956D01*
X0359463Y0082184D01*
X0360141Y0080548D01*
X0361394Y0079295D01*
X0363030Y0078617D01*
X0364802Y0078617D01*
X0366438Y0079295D01*
X0367691Y0080548D01*
X0368369Y0082184D01*
X0368369Y0083956D01*
X0367691Y0085592D01*
X0366438Y0086845D01*
X0367683Y0085600D02*
X0415635Y0085600D01*
X0417081Y0084602D02*
X0368101Y0084602D01*
X0368369Y0083603D02*
X0552681Y0083603D01*
X0552681Y0082605D02*
X0368369Y0082605D01*
X0368129Y0081606D02*
X0411892Y0081606D01*
X0411623Y0081337D02*
X0411214Y0080349D01*
X0411214Y0079280D01*
X0411510Y0078565D01*
X0411176Y0078565D01*
X0411176Y0079267D01*
X0410766Y0080255D01*
X0410010Y0081011D01*
X0409023Y0081420D01*
X0407954Y0081420D01*
X0406966Y0081011D01*
X0406210Y0080255D01*
X0405801Y0079267D01*
X0405801Y0078198D01*
X0406210Y0077210D01*
X0406966Y0076454D01*
X0407954Y0076045D01*
X0408754Y0076045D01*
X0408754Y0075343D01*
X0409163Y0074356D01*
X0409919Y0073600D01*
X0410906Y0073191D01*
X0411976Y0073191D01*
X0412963Y0073600D01*
X0413719Y0074356D01*
X0413800Y0074550D01*
X0414084Y0073864D01*
X0414840Y0073108D01*
X0415828Y0072698D01*
X0416897Y0072698D01*
X0417884Y0073108D01*
X0418640Y0073864D01*
X0419050Y0074851D01*
X0419050Y0075920D01*
X0418640Y0076908D01*
X0417884Y0077664D01*
X0416897Y0078073D01*
X0415960Y0078073D01*
X0416180Y0078293D01*
X0416589Y0079280D01*
X0416589Y0080349D01*
X0416180Y0081337D01*
X0415424Y0082093D01*
X0414436Y0082502D01*
X0413367Y0082502D01*
X0412379Y0082093D01*
X0411623Y0081337D01*
X0411321Y0080608D02*
X0410413Y0080608D01*
X0411034Y0079609D02*
X0411214Y0079609D01*
X0411176Y0078611D02*
X0411492Y0078611D01*
X0408754Y0075615D02*
X0330272Y0075615D01*
X0330272Y0074617D02*
X0409055Y0074617D01*
X0409900Y0073618D02*
X0330272Y0073618D01*
X0330272Y0072620D02*
X0427330Y0072620D01*
X0426917Y0071621D02*
X0329894Y0071621D01*
X0328272Y0072827D02*
X0314492Y0072827D01*
X0314000Y0073319D01*
X0314000Y0081193D01*
X0328272Y0081193D01*
X0328272Y0072827D01*
X0328272Y0073618D02*
X0314000Y0073618D01*
X0314000Y0074617D02*
X0328272Y0074617D01*
X0328272Y0075615D02*
X0314000Y0075615D01*
X0314000Y0076614D02*
X0328272Y0076614D01*
X0328272Y0077612D02*
X0314000Y0077612D01*
X0314000Y0078611D02*
X0328272Y0078611D01*
X0328272Y0079609D02*
X0314000Y0079609D01*
X0314000Y0080608D02*
X0328272Y0080608D01*
X0330395Y0080608D02*
X0360116Y0080608D01*
X0359703Y0081606D02*
X0330395Y0081606D01*
X0330395Y0079609D02*
X0361080Y0079609D01*
X0359463Y0082605D02*
X0342354Y0082605D01*
X0343067Y0083603D02*
X0359463Y0083603D01*
X0359731Y0084602D02*
X0343067Y0084602D01*
X0343067Y0085600D02*
X0360149Y0085600D01*
X0361148Y0086599D02*
X0343067Y0086599D01*
X0341067Y0086599D02*
X0322559Y0086599D01*
X0321436Y0087597D02*
X0341067Y0087597D01*
X0341067Y0088596D02*
X0320890Y0088596D01*
X0320890Y0088083D02*
X0320890Y0097433D01*
X0330732Y0097433D01*
X0334096Y0093811D01*
X0333725Y0093811D01*
X0333033Y0094502D01*
X0331384Y0094502D01*
X0330218Y0093336D01*
X0330218Y0091687D01*
X0331384Y0090521D01*
X0333033Y0090521D01*
X0333725Y0091213D01*
X0336508Y0091213D01*
X0337130Y0090543D01*
X0341067Y0090543D01*
X0341067Y0084146D01*
X0325319Y0084146D01*
X0320890Y0088083D01*
X0320890Y0089594D02*
X0341067Y0089594D01*
X0341067Y0085600D02*
X0323682Y0085600D01*
X0324806Y0084602D02*
X0341067Y0084602D01*
X0337084Y0090593D02*
X0333105Y0090593D01*
X0331313Y0090593D02*
X0320890Y0090593D01*
X0320890Y0091591D02*
X0330314Y0091591D01*
X0330218Y0092590D02*
X0320890Y0092590D01*
X0320890Y0093588D02*
X0330470Y0093588D01*
X0332448Y0095585D02*
X0320890Y0095585D01*
X0320890Y0094587D02*
X0333375Y0094587D01*
X0334250Y0096584D02*
X0429810Y0096584D01*
X0429810Y0097582D02*
X0333323Y0097582D01*
X0331521Y0096584D02*
X0320890Y0096584D01*
X0318921Y0096584D02*
X0310555Y0096584D01*
X0310555Y0097433D02*
X0318921Y0097433D01*
X0318921Y0085130D01*
X0316953Y0083161D01*
X0301205Y0083161D01*
X0301205Y0090543D01*
X0306618Y0090543D01*
X0310555Y0094480D01*
X0310555Y0097433D01*
X0310555Y0095585D02*
X0318921Y0095585D01*
X0318921Y0094587D02*
X0310555Y0094587D01*
X0309663Y0093588D02*
X0318921Y0093588D01*
X0318921Y0092590D02*
X0308665Y0092590D01*
X0307666Y0091591D02*
X0318921Y0091591D01*
X0318921Y0090593D02*
X0306668Y0090593D01*
X0305836Y0092590D02*
X0192451Y0092590D01*
X0193449Y0091591D02*
X0299424Y0091591D01*
X0299205Y0090593D02*
X0194448Y0090593D01*
X0195446Y0089594D02*
X0299205Y0089594D01*
X0299205Y0088596D02*
X0196445Y0088596D01*
X0197443Y0087597D02*
X0299205Y0087597D01*
X0299205Y0086599D02*
X0198442Y0086599D01*
X0199440Y0085600D02*
X0299205Y0085600D01*
X0299205Y0084602D02*
X0200439Y0084602D01*
X0201437Y0083603D02*
X0299205Y0083603D01*
X0299205Y0082605D02*
X0202436Y0082605D01*
X0202833Y0082207D02*
X0186569Y0098471D01*
X0186569Y0098913D01*
X0186190Y0099828D01*
X0185490Y0100529D01*
X0184574Y0100908D01*
X0183583Y0100908D01*
X0182668Y0100529D01*
X0181967Y0099828D01*
X0181588Y0098913D01*
X0181588Y0097922D01*
X0181967Y0097007D01*
X0182668Y0096306D01*
X0183583Y0095927D01*
X0184025Y0095927D01*
X0200289Y0079663D01*
X0200289Y0079221D01*
X0200668Y0078306D01*
X0201369Y0077605D01*
X0202284Y0077226D01*
X0203275Y0077226D01*
X0204190Y0077605D01*
X0204891Y0078306D01*
X0205270Y0079221D01*
X0205270Y0080212D01*
X0204891Y0081127D01*
X0204190Y0081828D01*
X0203275Y0082207D01*
X0202833Y0082207D01*
X0204412Y0081606D02*
X0299931Y0081606D01*
X0301205Y0083603D02*
X0317395Y0083603D01*
X0318393Y0084602D02*
X0301205Y0084602D01*
X0301205Y0085600D02*
X0318921Y0085600D01*
X0318921Y0086599D02*
X0301205Y0086599D01*
X0301205Y0087597D02*
X0318921Y0087597D01*
X0318921Y0088596D02*
X0301205Y0088596D01*
X0301205Y0089594D02*
X0318921Y0089594D01*
X0308555Y0095585D02*
X0302583Y0095585D01*
X0302117Y0097582D02*
X0290378Y0097582D01*
X0290378Y0096941D02*
X0290378Y0103219D01*
X0292466Y0105307D01*
X0303665Y0105307D01*
X0303665Y0098334D01*
X0300796Y0096941D01*
X0290378Y0096941D01*
X0290378Y0098581D02*
X0303665Y0098581D01*
X0303665Y0099579D02*
X0290378Y0099579D01*
X0290378Y0100578D02*
X0303665Y0100578D01*
X0303665Y0101576D02*
X0290378Y0101576D01*
X0290378Y0102575D02*
X0303665Y0102575D01*
X0303665Y0103573D02*
X0290732Y0103573D01*
X0291731Y0104572D02*
X0303665Y0104572D01*
X0303665Y0107276D02*
X0291068Y0107276D01*
X0287917Y0104124D01*
X0287917Y0096941D01*
X0282012Y0096941D01*
X0282012Y0097106D01*
X0282266Y0097360D01*
X0282266Y0099010D01*
X0282012Y0099264D01*
X0282012Y0103606D01*
X0282266Y0103860D01*
X0282266Y0105510D01*
X0282012Y0105764D01*
X0282012Y0110606D01*
X0282266Y0110860D01*
X0282266Y0112510D01*
X0282012Y0112764D01*
X0282012Y0115150D01*
X0303665Y0115150D01*
X0303665Y0107276D01*
X0303665Y0107568D02*
X0282012Y0107568D01*
X0282012Y0108566D02*
X0303665Y0108566D01*
X0303665Y0109565D02*
X0282012Y0109565D01*
X0282012Y0110563D02*
X0303665Y0110563D01*
X0303665Y0111562D02*
X0282266Y0111562D01*
X0282216Y0112560D02*
X0303665Y0112560D01*
X0303665Y0113559D02*
X0282012Y0113559D01*
X0282012Y0114557D02*
X0303665Y0114557D01*
X0303665Y0117553D02*
X0282012Y0117553D01*
X0282012Y0118551D02*
X0303665Y0118551D01*
X0303665Y0119550D02*
X0282012Y0119550D01*
X0282012Y0120548D02*
X0303665Y0120548D01*
X0303665Y0121547D02*
X0282012Y0121547D01*
X0282012Y0122545D02*
X0303665Y0122545D01*
X0303665Y0123544D02*
X0282012Y0123544D01*
X0282012Y0124542D02*
X0303665Y0124542D01*
X0303665Y0125541D02*
X0282012Y0125541D01*
X0282012Y0126539D02*
X0303665Y0126539D01*
X0303665Y0127538D02*
X0282012Y0127538D01*
X0282012Y0128536D02*
X0304257Y0128536D01*
X0280012Y0126539D02*
X0238932Y0126539D01*
X0239930Y0125541D02*
X0280012Y0125541D01*
X0280012Y0124542D02*
X0240716Y0124542D01*
X0240716Y0123544D02*
X0280012Y0123544D01*
X0280012Y0122545D02*
X0240716Y0122545D01*
X0240716Y0121547D02*
X0280012Y0121547D01*
X0280012Y0120548D02*
X0240442Y0120548D01*
X0239443Y0119550D02*
X0280012Y0119550D01*
X0278637Y0106569D02*
X0069058Y0106569D01*
X0069058Y0105570D02*
X0277947Y0105570D01*
X0277785Y0104572D02*
X0069058Y0104572D01*
X0069058Y0103573D02*
X0278040Y0103573D01*
X0278863Y0102575D02*
X0069058Y0102575D01*
X0069058Y0101576D02*
X0280012Y0101576D01*
X0279545Y0100578D02*
X0185371Y0100578D01*
X0186293Y0099579D02*
X0278157Y0099579D01*
X0277785Y0098581D02*
X0186569Y0098581D01*
X0187458Y0097582D02*
X0277829Y0097582D01*
X0278355Y0096584D02*
X0188457Y0096584D01*
X0189455Y0095585D02*
X0280539Y0095585D01*
X0282266Y0097582D02*
X0287917Y0097582D01*
X0287917Y0098581D02*
X0282266Y0098581D01*
X0282012Y0099579D02*
X0287917Y0099579D01*
X0287917Y0100578D02*
X0282012Y0100578D01*
X0282012Y0101576D02*
X0287917Y0101576D01*
X0287917Y0102575D02*
X0282012Y0102575D01*
X0282012Y0103573D02*
X0287917Y0103573D01*
X0288365Y0104572D02*
X0282266Y0104572D01*
X0282205Y0105570D02*
X0289363Y0105570D01*
X0290362Y0106569D02*
X0282012Y0106569D01*
X0305892Y0098581D02*
X0308875Y0098581D01*
X0308555Y0097582D02*
X0305892Y0097582D01*
X0305688Y0096584D02*
X0308555Y0096584D01*
X0307833Y0094587D02*
X0190454Y0094587D01*
X0191452Y0093588D02*
X0306835Y0093588D01*
X0311384Y0080608D02*
X0205106Y0080608D01*
X0205270Y0079609D02*
X0311384Y0079609D01*
X0311384Y0078611D02*
X0205017Y0078611D01*
X0204197Y0077612D02*
X0311384Y0077612D01*
X0312000Y0076614D02*
X0069058Y0076614D01*
X0069058Y0077612D02*
X0201362Y0077612D01*
X0200542Y0078611D02*
X0069058Y0078611D01*
X0069058Y0079609D02*
X0200289Y0079609D01*
X0199344Y0080608D02*
X0069058Y0080608D01*
X0069058Y0081606D02*
X0198345Y0081606D01*
X0197347Y0082605D02*
X0069058Y0082605D01*
X0069058Y0083603D02*
X0196348Y0083603D01*
X0195350Y0084602D02*
X0069058Y0084602D01*
X0069058Y0085600D02*
X0194351Y0085600D01*
X0193353Y0086599D02*
X0069058Y0086599D01*
X0069058Y0087597D02*
X0192354Y0087597D01*
X0191356Y0088596D02*
X0069058Y0088596D01*
X0069058Y0089594D02*
X0190357Y0089594D01*
X0189359Y0090593D02*
X0069058Y0090593D01*
X0069058Y0091591D02*
X0188360Y0091591D01*
X0187362Y0092590D02*
X0069058Y0092590D01*
X0069058Y0093588D02*
X0186363Y0093588D01*
X0185365Y0094587D02*
X0069058Y0094587D01*
X0069058Y0095585D02*
X0184366Y0095585D01*
X0182390Y0096584D02*
X0069058Y0096584D01*
X0069058Y0097582D02*
X0181729Y0097582D01*
X0181588Y0098581D02*
X0069058Y0098581D01*
X0069058Y0099579D02*
X0181864Y0099579D01*
X0182787Y0100578D02*
X0069058Y0100578D01*
X0069058Y0075615D02*
X0312000Y0075615D01*
X0312000Y0074617D02*
X0069058Y0074617D01*
X0069058Y0073618D02*
X0312000Y0073618D01*
X0312000Y0072620D02*
X0069058Y0072620D01*
X0069058Y0071621D02*
X0312869Y0071621D01*
X0330272Y0076614D02*
X0406806Y0076614D01*
X0406043Y0077612D02*
X0330395Y0077612D01*
X0330395Y0078611D02*
X0405801Y0078611D01*
X0405943Y0079609D02*
X0366752Y0079609D01*
X0367716Y0080608D02*
X0406563Y0080608D01*
X0415911Y0081606D02*
X0417798Y0081606D01*
X0417529Y0081337D02*
X0417120Y0080349D01*
X0417120Y0079280D01*
X0417529Y0078293D01*
X0418285Y0077537D01*
X0419273Y0077128D01*
X0420209Y0077128D01*
X0419989Y0076908D01*
X0419580Y0075920D01*
X0419580Y0074851D01*
X0419989Y0073864D01*
X0420745Y0073108D01*
X0421733Y0072698D01*
X0422802Y0072698D01*
X0423790Y0073108D01*
X0424546Y0073864D01*
X0424955Y0074851D01*
X0424955Y0075920D01*
X0424653Y0076649D01*
X0424686Y0076635D01*
X0425755Y0076635D01*
X0426743Y0077045D01*
X0427499Y0077801D01*
X0427908Y0078788D01*
X0427908Y0079857D01*
X0427499Y0080845D01*
X0426743Y0081601D01*
X0425755Y0082010D01*
X0424686Y0082010D01*
X0423698Y0081601D01*
X0422942Y0080845D01*
X0422533Y0079857D01*
X0422533Y0078788D01*
X0422835Y0078060D01*
X0422802Y0078073D01*
X0421866Y0078073D01*
X0422085Y0078293D01*
X0422494Y0079280D01*
X0422494Y0080349D01*
X0422085Y0081337D01*
X0421329Y0082093D01*
X0420342Y0082502D01*
X0419273Y0082502D01*
X0418285Y0082093D01*
X0417529Y0081337D01*
X0417227Y0080608D02*
X0416482Y0080608D01*
X0416589Y0079609D02*
X0417120Y0079609D01*
X0417397Y0078611D02*
X0416312Y0078611D01*
X0417936Y0077612D02*
X0418209Y0077612D01*
X0418762Y0076614D02*
X0419867Y0076614D01*
X0419580Y0075615D02*
X0419050Y0075615D01*
X0418952Y0074617D02*
X0419677Y0074617D01*
X0420235Y0073618D02*
X0418395Y0073618D01*
X0414329Y0073618D02*
X0412982Y0073618D01*
X0422217Y0078611D02*
X0422607Y0078611D01*
X0422533Y0079609D02*
X0422494Y0079609D01*
X0422388Y0080608D02*
X0422844Y0080608D01*
X0423711Y0081606D02*
X0421816Y0081606D01*
X0420043Y0085600D02*
X0430185Y0085600D01*
X0429662Y0086599D02*
X0420500Y0086599D01*
X0420526Y0087597D02*
X0429620Y0087597D01*
X0429810Y0088596D02*
X0420168Y0088596D01*
X0419073Y0089594D02*
X0429810Y0089594D01*
X0434558Y0086599D02*
X0434583Y0086599D01*
X0435106Y0085600D02*
X0434036Y0085600D01*
X0437031Y0087197D02*
X0437031Y0102453D01*
X0431618Y0107866D01*
X0433442Y0109565D02*
X0449479Y0109565D01*
X0448897Y0108566D02*
X0434024Y0108566D01*
X0434745Y0107568D02*
X0448813Y0107568D01*
X0448654Y0106569D02*
X0435744Y0106569D01*
X0436742Y0105570D02*
X0447655Y0105570D01*
X0446657Y0104572D02*
X0437741Y0104572D01*
X0438739Y0103573D02*
X0445658Y0103573D01*
X0444660Y0102575D02*
X0439031Y0102575D01*
X0439031Y0101576D02*
X0443661Y0101576D01*
X0442663Y0100578D02*
X0439031Y0100578D01*
X0439031Y0099579D02*
X0441664Y0099579D01*
X0439972Y0098581D02*
X0439031Y0098581D01*
X0439031Y0097582D02*
X0439482Y0097582D01*
X0439462Y0096584D02*
X0439031Y0096584D01*
X0439031Y0095585D02*
X0439885Y0095585D01*
X0439031Y0094587D02*
X0441365Y0094587D01*
X0441953Y0097039D02*
X0451303Y0106390D01*
X0451303Y0107866D01*
X0472413Y0104572D02*
X0477437Y0104572D01*
X0476522Y0103573D02*
X0473328Y0103573D01*
X0474829Y0102575D02*
X0476108Y0102575D01*
X0485758Y0100578D02*
X0486635Y0100578D01*
X0486156Y0101576D02*
X0487237Y0101576D01*
X0486805Y0102575D02*
X0488801Y0102575D01*
X0490577Y0102575D02*
X0491280Y0102575D01*
X0492477Y0097582D02*
X0492523Y0097582D01*
X0480077Y0091591D02*
X0478689Y0091591D01*
X0478519Y0092590D02*
X0479345Y0092590D01*
X0503039Y0096584D02*
X0531840Y0096584D01*
X0533121Y0095585D02*
X0503887Y0095585D01*
X0552681Y0087597D02*
X0439522Y0087597D01*
X0439480Y0086599D02*
X0552681Y0086599D01*
X0552681Y0085600D02*
X0438957Y0085600D01*
X0437204Y0078611D02*
X0434598Y0078611D01*
X0434890Y0077612D02*
X0436506Y0077612D01*
X0436220Y0076614D02*
X0434890Y0076614D01*
X0434480Y0075615D02*
X0436223Y0075615D01*
X0436424Y0074617D02*
X0436636Y0074617D01*
X0437088Y0073618D02*
X0437133Y0073618D01*
X0441465Y0073618D02*
X0552681Y0073618D01*
X0552681Y0072620D02*
X0441812Y0072620D01*
X0442225Y0071621D02*
X0552681Y0071621D01*
X0552681Y0070623D02*
X0442272Y0070623D01*
X0442030Y0069624D02*
X0552681Y0069624D01*
X0552681Y0068626D02*
X0441394Y0068626D01*
X0439748Y0067627D02*
X0552681Y0067627D01*
X0552681Y0066629D02*
X0448349Y0066629D01*
X0449235Y0065630D02*
X0552681Y0065630D01*
X0552681Y0064632D02*
X0449648Y0064632D01*
X0449654Y0063633D02*
X0552681Y0063633D01*
X0552681Y0062634D02*
X0449371Y0062634D01*
X0448676Y0061636D02*
X0552681Y0061636D01*
X0552681Y0060637D02*
X0446209Y0060637D01*
X0446112Y0059639D02*
X0552681Y0059639D01*
X0552681Y0058640D02*
X0445681Y0058640D01*
X0441895Y0063633D02*
X0441576Y0063633D01*
X0440995Y0064632D02*
X0443115Y0064632D01*
X0443529Y0065630D02*
X0439481Y0065630D01*
X0439263Y0066629D02*
X0444415Y0066629D01*
X0442348Y0074617D02*
X0552681Y0074617D01*
X0552681Y0075615D02*
X0442761Y0075615D01*
X0442764Y0076614D02*
X0552681Y0076614D01*
X0552681Y0077612D02*
X0442478Y0077612D01*
X0441780Y0078611D02*
X0552681Y0078611D01*
X0552681Y0079609D02*
X0433892Y0079609D01*
X0429345Y0079609D02*
X0427908Y0079609D01*
X0427834Y0078611D02*
X0428638Y0078611D01*
X0428346Y0077612D02*
X0427310Y0077612D01*
X0428346Y0076614D02*
X0424668Y0076614D01*
X0424955Y0075615D02*
X0428757Y0075615D01*
X0429631Y0074617D02*
X0424858Y0074617D01*
X0424301Y0073618D02*
X0428275Y0073618D01*
X0426870Y0070623D02*
X0069058Y0070623D01*
X0069058Y0069624D02*
X0427112Y0069624D01*
X0427748Y0068626D02*
X0069058Y0068626D01*
X0069058Y0067627D02*
X0428681Y0067627D01*
X0428075Y0066629D02*
X0069058Y0066629D01*
X0069058Y0065630D02*
X0427854Y0065630D01*
X0427922Y0064632D02*
X0069058Y0064632D01*
X0069058Y0063633D02*
X0428335Y0063633D01*
X0429362Y0062634D02*
X0069058Y0062634D01*
X0069058Y0061636D02*
X0429823Y0061636D01*
X0429823Y0060637D02*
X0069058Y0060637D01*
X0069058Y0059639D02*
X0430124Y0059639D01*
X0430843Y0058640D02*
X0069058Y0058640D01*
X0069058Y0142515D02*
X0515496Y0142515D01*
X0514498Y0143514D02*
X0069058Y0143514D01*
X0069058Y0144512D02*
X0079358Y0144512D01*
X0078359Y0145511D02*
X0069058Y0145511D01*
X0069058Y0146509D02*
X0077361Y0146509D01*
X0077113Y0147508D02*
X0069058Y0147508D01*
X0069058Y0148506D02*
X0077113Y0148506D01*
X0077113Y0149505D02*
X0069058Y0149505D01*
X0069058Y0150503D02*
X0077131Y0150503D01*
X0078130Y0151502D02*
X0069058Y0151502D01*
X0069058Y0152501D02*
X0079128Y0152501D01*
X0084098Y0152501D02*
X0089128Y0152501D01*
X0088130Y0151502D02*
X0085096Y0151502D01*
X0086095Y0150503D02*
X0087131Y0150503D01*
X0087113Y0149505D02*
X0086113Y0149505D01*
X0086113Y0148506D02*
X0087113Y0148506D01*
X0087113Y0147508D02*
X0086113Y0147508D01*
X0085865Y0146509D02*
X0087361Y0146509D01*
X0088359Y0145511D02*
X0084867Y0145511D01*
X0083868Y0144512D02*
X0089358Y0144512D01*
X0093868Y0144512D02*
X0099358Y0144512D01*
X0098359Y0145511D02*
X0094867Y0145511D01*
X0095865Y0146509D02*
X0097361Y0146509D01*
X0097113Y0147508D02*
X0096113Y0147508D01*
X0096113Y0148506D02*
X0097113Y0148506D01*
X0097113Y0149505D02*
X0096113Y0149505D01*
X0096095Y0150503D02*
X0097131Y0150503D01*
X0098130Y0151502D02*
X0095096Y0151502D01*
X0094098Y0152501D02*
X0099128Y0152501D01*
X0104098Y0152501D02*
X0121851Y0152501D01*
X0121533Y0152369D02*
X0120777Y0151613D01*
X0120368Y0150625D01*
X0120368Y0149556D01*
X0120777Y0148568D01*
X0121533Y0147812D01*
X0122521Y0147403D01*
X0123590Y0147403D01*
X0124577Y0147812D01*
X0125333Y0148568D01*
X0125743Y0149556D01*
X0125743Y0150625D01*
X0125333Y0151613D01*
X0124577Y0152369D01*
X0123590Y0152778D01*
X0122521Y0152778D01*
X0121533Y0152369D01*
X0120731Y0151502D02*
X0105096Y0151502D01*
X0106095Y0150503D02*
X0120368Y0150503D01*
X0120389Y0149505D02*
X0106113Y0149505D01*
X0106113Y0148506D02*
X0120839Y0148506D01*
X0122267Y0147508D02*
X0106113Y0147508D01*
X0105865Y0146509D02*
X0512369Y0146509D01*
X0512369Y0147508D02*
X0123843Y0147508D01*
X0125272Y0148506D02*
X0512369Y0148506D01*
X0512369Y0149505D02*
X0125721Y0149505D01*
X0125743Y0150503D02*
X0512369Y0150503D01*
X0512429Y0151502D02*
X0125379Y0151502D01*
X0124259Y0152501D02*
X0513427Y0152501D01*
X0514426Y0153499D02*
X0190932Y0153499D01*
X0191931Y0154498D02*
X0450941Y0154498D01*
X0450664Y0154774D02*
X0451365Y0154074D01*
X0452280Y0153694D01*
X0453271Y0153694D01*
X0454186Y0154074D01*
X0454887Y0154774D01*
X0455266Y0155690D01*
X0455266Y0156680D01*
X0454887Y0157596D01*
X0454186Y0158296D01*
X0453271Y0158676D01*
X0452280Y0158676D01*
X0451365Y0158296D01*
X0450664Y0157596D01*
X0450285Y0156680D01*
X0450285Y0155690D01*
X0450664Y0154774D01*
X0450365Y0155496D02*
X0192929Y0155496D01*
X0193928Y0156495D02*
X0450285Y0156495D01*
X0450622Y0157493D02*
X0194926Y0157493D01*
X0195925Y0158492D02*
X0451836Y0158492D01*
X0453715Y0158492D02*
X0524307Y0158492D01*
X0524307Y0159490D02*
X0196923Y0159490D01*
X0197922Y0160489D02*
X0524307Y0160489D01*
X0524307Y0161487D02*
X0515984Y0161487D01*
X0515977Y0161480D02*
X0520315Y0165818D01*
X0520315Y0171953D01*
X0515977Y0176291D01*
X0509842Y0176291D01*
X0505504Y0171953D01*
X0505504Y0165818D01*
X0509842Y0161480D01*
X0515977Y0161480D01*
X0516982Y0162486D02*
X0524307Y0162486D01*
X0524307Y0163484D02*
X0517981Y0163484D01*
X0518979Y0164483D02*
X0524307Y0164483D01*
X0524307Y0165481D02*
X0519978Y0165481D01*
X0520315Y0166480D02*
X0524307Y0166480D01*
X0524307Y0167478D02*
X0520315Y0167478D01*
X0520315Y0168477D02*
X0524307Y0168477D01*
X0524307Y0169475D02*
X0520315Y0169475D01*
X0520315Y0170474D02*
X0524307Y0170474D01*
X0523782Y0171472D02*
X0520315Y0171472D01*
X0519797Y0172471D02*
X0522784Y0172471D01*
X0521785Y0173469D02*
X0518799Y0173469D01*
X0517800Y0174468D02*
X0520786Y0174468D01*
X0519788Y0175466D02*
X0516802Y0175466D01*
X0518789Y0176465D02*
X0494793Y0176465D01*
X0494298Y0176960D02*
X0495550Y0175707D01*
X0496228Y0174071D01*
X0496228Y0172299D01*
X0495550Y0170663D01*
X0494298Y0169410D01*
X0492661Y0168732D01*
X0490890Y0168732D01*
X0489253Y0169410D01*
X0488001Y0170663D01*
X0487323Y0172299D01*
X0487323Y0174071D01*
X0488001Y0175707D01*
X0489253Y0176960D01*
X0490890Y0177638D01*
X0492661Y0177638D01*
X0494298Y0176960D01*
X0493082Y0177463D02*
X0517791Y0177463D01*
X0516792Y0178462D02*
X0432022Y0178462D01*
X0431024Y0177463D02*
X0480469Y0177463D01*
X0480890Y0177638D02*
X0479253Y0176960D01*
X0478001Y0175707D01*
X0477323Y0174071D01*
X0477323Y0172299D01*
X0478001Y0170663D01*
X0479253Y0169410D01*
X0480890Y0168732D01*
X0482661Y0168732D01*
X0484298Y0169410D01*
X0485550Y0170663D01*
X0486228Y0172299D01*
X0486228Y0174071D01*
X0485550Y0175707D01*
X0484298Y0176960D01*
X0482661Y0177638D01*
X0480890Y0177638D01*
X0483082Y0177463D02*
X0490469Y0177463D01*
X0488758Y0176465D02*
X0484793Y0176465D01*
X0485650Y0175466D02*
X0487901Y0175466D01*
X0487487Y0174468D02*
X0486064Y0174468D01*
X0486228Y0173469D02*
X0487323Y0173469D01*
X0487323Y0172471D02*
X0486228Y0172471D01*
X0485886Y0171472D02*
X0487665Y0171472D01*
X0488190Y0170474D02*
X0485361Y0170474D01*
X0484363Y0169475D02*
X0489188Y0169475D01*
X0494363Y0169475D02*
X0505504Y0169475D01*
X0505504Y0168477D02*
X0474952Y0168477D01*
X0475060Y0168738D02*
X0475060Y0169922D01*
X0474607Y0171016D01*
X0473769Y0171853D01*
X0472676Y0172306D01*
X0471491Y0172306D01*
X0471277Y0172217D01*
X0470564Y0172930D01*
X0465821Y0172930D01*
X0464943Y0172051D01*
X0464943Y0166609D01*
X0465821Y0165730D01*
X0470564Y0165730D01*
X0471277Y0166443D01*
X0471491Y0166354D01*
X0472676Y0166354D01*
X0473769Y0166807D01*
X0474607Y0167644D01*
X0475060Y0168738D01*
X0475060Y0169475D02*
X0479188Y0169475D01*
X0478190Y0170474D02*
X0474831Y0170474D01*
X0474150Y0171472D02*
X0477665Y0171472D01*
X0477323Y0172471D02*
X0471023Y0172471D01*
X0465362Y0172471D02*
X0429492Y0172471D01*
X0429480Y0173469D02*
X0477323Y0173469D01*
X0477487Y0174468D02*
X0429480Y0174468D01*
X0429480Y0175466D02*
X0477901Y0175466D01*
X0478758Y0176465D02*
X0430025Y0176465D01*
X0427932Y0179460D02*
X0205082Y0179460D01*
X0204084Y0178462D02*
X0426933Y0178462D01*
X0425935Y0177463D02*
X0203085Y0177463D01*
X0202087Y0176465D02*
X0425882Y0176465D01*
X0425882Y0175466D02*
X0201088Y0175466D01*
X0200090Y0174468D02*
X0425882Y0174468D01*
X0425882Y0173469D02*
X0199091Y0173469D01*
X0198350Y0172471D02*
X0206595Y0172471D01*
X0206407Y0172282D02*
X0206019Y0171347D01*
X0205446Y0170773D01*
X0205446Y0170423D01*
X0205374Y0170423D01*
X0204496Y0169544D01*
X0204496Y0164101D01*
X0205374Y0163223D01*
X0210117Y0163223D01*
X0210996Y0164101D01*
X0210996Y0169316D01*
X0211372Y0170225D01*
X0211372Y0171294D01*
X0210963Y0172282D01*
X0210207Y0173038D01*
X0209220Y0173447D01*
X0208150Y0173447D01*
X0207163Y0173038D01*
X0206407Y0172282D01*
X0206071Y0171472D02*
X0198350Y0171472D01*
X0198350Y0170474D02*
X0205446Y0170474D01*
X0204496Y0169475D02*
X0198350Y0169475D01*
X0198350Y0168477D02*
X0204496Y0168477D01*
X0204496Y0167478D02*
X0198350Y0167478D01*
X0198350Y0166480D02*
X0204496Y0166480D01*
X0204496Y0165481D02*
X0198350Y0165481D01*
X0198350Y0164483D02*
X0204496Y0164483D01*
X0205113Y0163484D02*
X0198350Y0163484D01*
X0198350Y0162486D02*
X0450577Y0162486D01*
X0450664Y0162274D02*
X0451365Y0161574D01*
X0452280Y0161194D01*
X0453271Y0161194D01*
X0454186Y0161574D01*
X0454887Y0162274D01*
X0455266Y0163190D01*
X0455266Y0164180D01*
X0454887Y0165096D01*
X0454186Y0165796D01*
X0453271Y0166176D01*
X0452280Y0166176D01*
X0451365Y0165796D01*
X0450664Y0165096D01*
X0450285Y0164180D01*
X0450285Y0163190D01*
X0450664Y0162274D01*
X0451574Y0161487D02*
X0198350Y0161487D01*
X0210378Y0163484D02*
X0252849Y0163484D01*
X0253111Y0163223D02*
X0257853Y0163223D01*
X0258732Y0164101D01*
X0258732Y0169544D01*
X0258103Y0170173D01*
X0258124Y0170225D01*
X0258124Y0171294D01*
X0257715Y0172282D01*
X0256959Y0173038D01*
X0255972Y0173447D01*
X0254902Y0173447D01*
X0253915Y0173038D01*
X0253159Y0172282D01*
X0252750Y0171294D01*
X0252750Y0170225D01*
X0252797Y0170110D01*
X0252232Y0169544D01*
X0252232Y0164101D01*
X0253111Y0163223D01*
X0252232Y0164483D02*
X0210996Y0164483D01*
X0210996Y0165481D02*
X0252232Y0165481D01*
X0252232Y0166480D02*
X0210996Y0166480D01*
X0210996Y0167478D02*
X0252232Y0167478D01*
X0252232Y0168477D02*
X0210996Y0168477D01*
X0211062Y0169475D02*
X0252232Y0169475D01*
X0252750Y0170474D02*
X0211372Y0170474D01*
X0211299Y0171472D02*
X0252823Y0171472D01*
X0253347Y0172471D02*
X0210775Y0172471D01*
X0206081Y0180459D02*
X0428930Y0180459D01*
X0425870Y0172471D02*
X0403196Y0172471D01*
X0403385Y0172282D02*
X0402629Y0173038D01*
X0401641Y0173447D01*
X0400572Y0173447D01*
X0399584Y0173038D01*
X0398828Y0172282D01*
X0398419Y0171294D01*
X0398419Y0170225D01*
X0398467Y0170110D01*
X0397901Y0169544D01*
X0397901Y0164101D01*
X0398780Y0163223D01*
X0403523Y0163223D01*
X0404401Y0164101D01*
X0404401Y0169544D01*
X0403772Y0170173D01*
X0403794Y0170225D01*
X0403794Y0171294D01*
X0403385Y0172282D01*
X0403720Y0171472D02*
X0425280Y0171472D01*
X0425191Y0170474D02*
X0403794Y0170474D01*
X0404401Y0169475D02*
X0425517Y0169475D01*
X0426685Y0168477D02*
X0404401Y0168477D01*
X0404401Y0167478D02*
X0464943Y0167478D01*
X0464943Y0168477D02*
X0428677Y0168477D01*
X0429845Y0169475D02*
X0464943Y0169475D01*
X0464943Y0170474D02*
X0430172Y0170474D01*
X0430082Y0171472D02*
X0464943Y0171472D01*
X0465071Y0166480D02*
X0404401Y0166480D01*
X0404401Y0165481D02*
X0451050Y0165481D01*
X0450410Y0164483D02*
X0404401Y0164483D01*
X0403784Y0163484D02*
X0450285Y0163484D01*
X0453978Y0161487D02*
X0509835Y0161487D01*
X0508837Y0162486D02*
X0454975Y0162486D01*
X0455266Y0163484D02*
X0507838Y0163484D01*
X0506840Y0164483D02*
X0455141Y0164483D01*
X0454502Y0165481D02*
X0505841Y0165481D01*
X0505504Y0166480D02*
X0472980Y0166480D01*
X0474441Y0167478D02*
X0505504Y0167478D01*
X0505504Y0170474D02*
X0495361Y0170474D01*
X0495886Y0171472D02*
X0505504Y0171472D01*
X0506021Y0172471D02*
X0496228Y0172471D01*
X0496228Y0173469D02*
X0507020Y0173469D01*
X0508018Y0174468D02*
X0496064Y0174468D01*
X0495650Y0175466D02*
X0509017Y0175466D01*
X0524307Y0157493D02*
X0454930Y0157493D01*
X0455266Y0156495D02*
X0524307Y0156495D01*
X0524307Y0155496D02*
X0522315Y0155496D01*
X0523313Y0154498D02*
X0524307Y0154498D01*
X0516423Y0155496D02*
X0455186Y0155496D01*
X0454610Y0154498D02*
X0515424Y0154498D01*
X0512501Y0145511D02*
X0104867Y0145511D01*
X0103868Y0144512D02*
X0513499Y0144512D01*
X0552681Y0084602D02*
X0418596Y0084602D01*
X0426730Y0081606D02*
X0552681Y0081606D01*
X0552681Y0080608D02*
X0427597Y0080608D01*
X0398519Y0163484D02*
X0356048Y0163484D01*
X0355786Y0163223D02*
X0356665Y0164101D01*
X0356665Y0169544D01*
X0356036Y0170173D01*
X0356057Y0170225D01*
X0356057Y0171294D01*
X0355648Y0172282D01*
X0354892Y0173038D01*
X0353905Y0173447D01*
X0352836Y0173447D01*
X0351848Y0173038D01*
X0351092Y0172282D01*
X0350683Y0171294D01*
X0350683Y0170225D01*
X0350731Y0170110D01*
X0350165Y0169544D01*
X0350165Y0164101D01*
X0351044Y0163223D01*
X0355786Y0163223D01*
X0356665Y0164483D02*
X0397901Y0164483D01*
X0397901Y0165481D02*
X0356665Y0165481D01*
X0356665Y0166480D02*
X0397901Y0166480D01*
X0397901Y0167478D02*
X0356665Y0167478D01*
X0356665Y0168477D02*
X0397901Y0168477D01*
X0397901Y0169475D02*
X0356665Y0169475D01*
X0356057Y0170474D02*
X0398419Y0170474D01*
X0398493Y0171472D02*
X0355984Y0171472D01*
X0355460Y0172471D02*
X0399017Y0172471D01*
X0351280Y0172471D02*
X0306247Y0172471D01*
X0306436Y0172282D02*
X0305680Y0173038D01*
X0304692Y0173447D01*
X0303623Y0173447D01*
X0302635Y0173038D01*
X0301879Y0172282D01*
X0301470Y0171294D01*
X0301470Y0170225D01*
X0301518Y0170110D01*
X0300952Y0169544D01*
X0300952Y0164101D01*
X0301831Y0163223D01*
X0306574Y0163223D01*
X0307452Y0164101D01*
X0307452Y0169544D01*
X0306823Y0170173D01*
X0306845Y0170225D01*
X0306845Y0171294D01*
X0306436Y0172282D01*
X0306771Y0171472D02*
X0350756Y0171472D01*
X0350683Y0170474D02*
X0306845Y0170474D01*
X0307452Y0169475D02*
X0350165Y0169475D01*
X0350165Y0168477D02*
X0307452Y0168477D01*
X0307452Y0167478D02*
X0350165Y0167478D01*
X0350165Y0166480D02*
X0307452Y0166480D01*
X0307452Y0165481D02*
X0350165Y0165481D01*
X0350165Y0164483D02*
X0307452Y0164483D01*
X0306835Y0163484D02*
X0350782Y0163484D01*
X0301570Y0163484D02*
X0258115Y0163484D01*
X0258732Y0164483D02*
X0300952Y0164483D01*
X0300952Y0165481D02*
X0258732Y0165481D01*
X0258732Y0166480D02*
X0300952Y0166480D01*
X0300952Y0167478D02*
X0258732Y0167478D01*
X0258732Y0168477D02*
X0300952Y0168477D01*
X0300952Y0169475D02*
X0258732Y0169475D01*
X0258124Y0170474D02*
X0301470Y0170474D01*
X0301544Y0171472D02*
X0258051Y0171472D01*
X0257527Y0172471D02*
X0302068Y0172471D01*
X0297268Y0252453D02*
X0283350Y0252453D01*
X0284494Y0253597D01*
X0284494Y0255246D01*
X0283328Y0256412D01*
X0282351Y0256412D01*
X0282058Y0256705D01*
X0278521Y0256705D01*
X0277760Y0255944D01*
X0276776Y0254959D01*
X0276776Y0252453D01*
X0250024Y0252453D01*
X0250024Y0258850D01*
X0259827Y0258850D01*
X0259827Y0258202D01*
X0260413Y0257616D01*
X0264241Y0257616D01*
X0264827Y0258202D01*
X0264827Y0258850D01*
X0266894Y0258850D01*
X0266916Y0258828D01*
X0268565Y0258828D01*
X0268587Y0258850D01*
X0270338Y0258850D01*
X0270361Y0258828D01*
X0272010Y0258828D01*
X0272032Y0258850D01*
X0281165Y0258850D01*
X0282172Y0257844D01*
X0283821Y0257844D01*
X0284060Y0258083D01*
X0284527Y0257616D01*
X0288355Y0257616D01*
X0288941Y0258202D01*
X0288941Y0258850D01*
X0297268Y0258850D01*
X0297268Y0252453D01*
X0297268Y0253350D02*
X0284248Y0253350D01*
X0284494Y0254349D02*
X0297268Y0254349D01*
X0297268Y0255347D02*
X0284393Y0255347D01*
X0283395Y0256346D02*
X0297268Y0256346D01*
X0297268Y0257344D02*
X0250024Y0257344D01*
X0250024Y0256346D02*
X0278162Y0256346D01*
X0277163Y0255347D02*
X0250024Y0255347D01*
X0250024Y0254349D02*
X0276776Y0254349D01*
X0276776Y0253350D02*
X0250024Y0253350D01*
X0247563Y0255898D02*
X0244250Y0255898D01*
X0241657Y0256346D02*
X0222465Y0256346D01*
X0222957Y0256390D02*
X0222957Y0256419D01*
X0222465Y0257344D02*
X0241657Y0257344D01*
X0241657Y0258343D02*
X0222465Y0258343D01*
X0222465Y0259341D02*
X0241657Y0259341D01*
X0241657Y0260340D02*
X0222465Y0260340D01*
X0222465Y0261338D02*
X0241657Y0261338D01*
X0241657Y0262337D02*
X0222465Y0262337D01*
X0222465Y0263335D02*
X0241657Y0263335D01*
X0241657Y0264334D02*
X0222465Y0264334D01*
X0222465Y0265248D02*
X0241657Y0265248D01*
X0241657Y0253929D01*
X0222465Y0253929D01*
X0222465Y0265248D01*
X0216954Y0262413D02*
X0213488Y0262413D01*
X0213114Y0262787D01*
X0216559Y0256390D02*
X0216599Y0256350D01*
X0219731Y0256350D01*
X0222465Y0255347D02*
X0241657Y0255347D01*
X0241657Y0254349D02*
X0222465Y0254349D01*
X0246534Y0261803D02*
X0246579Y0261848D01*
X0246579Y0266232D01*
X0250024Y0258343D02*
X0259827Y0258343D01*
X0262327Y0259966D02*
X0262327Y0260819D01*
X0267740Y0260819D01*
X0264827Y0258343D02*
X0281673Y0258343D01*
X0288941Y0258343D02*
X0297268Y0258343D01*
X0289886Y0255898D02*
X0289886Y0254913D01*
X0309079Y0261311D02*
X0313016Y0261311D01*
X0313016Y0265248D01*
X0320890Y0261311D02*
X0320890Y0257998D01*
X0320890Y0257866D01*
X0342543Y0258358D02*
X0342543Y0258490D01*
X0342543Y0261803D01*
X0351402Y0261311D02*
X0355339Y0261311D01*
X0371579Y0261803D02*
X0371579Y0258490D01*
X0371579Y0258358D01*
X0380437Y0261311D02*
X0384374Y0261311D01*
X0380437Y0261311D02*
X0380437Y0265248D01*
X0076795Y0251961D02*
X0076795Y0240642D01*
X0076795Y0251961D02*
X0074476Y0254280D01*
D38*
X0365280Y0271547D03*
X0368760Y0274114D03*
X0370760Y0272437D03*
X0372760Y0269972D03*
X0375122Y0273516D03*
X0378665Y0273122D03*
X0384571Y0278634D03*
X0386846Y0275397D03*
X0389295Y0273003D03*
X0381028Y0281421D03*
X0382996Y0283752D03*
X0380245Y0286027D03*
X0505591Y0385685D03*
X0508130Y0395701D03*
X0493091Y0391185D03*
X0520591Y0385685D03*
X0527591Y0386685D03*
X0530591Y0383185D03*
X0535591Y0385685D03*
X0543091Y0391185D03*
X0544091Y0397685D03*
X0541059Y0398177D03*
X0540567Y0403193D03*
X0550591Y0405685D03*
X0555591Y0405693D03*
X0560591Y0405685D03*
X0563091Y0411185D03*
X0558091Y0411185D03*
X0553091Y0411185D03*
X0548091Y0411185D03*
X0543091Y0411185D03*
X0545591Y0416685D03*
X0548091Y0421685D03*
X0554417Y0425591D03*
X0558091Y0419685D03*
X0564260Y0425591D03*
X0570091Y0419685D03*
X0573091Y0411185D03*
X0568091Y0406185D03*
X0568091Y0401185D03*
X0573091Y0403685D03*
X0579091Y0400685D03*
X0576591Y0397185D03*
X0573091Y0396185D03*
X0573091Y0391185D03*
X0575591Y0385185D03*
X0573591Y0381685D03*
X0569591Y0384185D03*
X0567091Y0381685D03*
X0565091Y0375185D03*
X0563091Y0371685D03*
X0553591Y0375685D03*
X0554091Y0379185D03*
X0554091Y0382685D03*
X0551091Y0382685D03*
X0548091Y0395685D03*
X0554591Y0397685D03*
X0563091Y0395185D03*
X0579724Y0390772D03*
X0588091Y0391185D03*
X0588091Y0396185D03*
X0593091Y0396185D03*
X0595091Y0401685D03*
X0590091Y0403685D03*
X0583091Y0406185D03*
X0583091Y0411185D03*
X0582091Y0419685D03*
X0579024Y0425591D03*
X0594091Y0419685D03*
X0597724Y0424606D03*
X0606091Y0419685D03*
X0608091Y0416185D03*
X0603091Y0411185D03*
X0597591Y0406685D03*
X0593091Y0411185D03*
X0605591Y0405185D03*
X0608091Y0402185D03*
X0615091Y0403685D03*
X0621091Y0399685D03*
X0625091Y0403685D03*
X0630591Y0400185D03*
X0633091Y0406185D03*
X0638091Y0402685D03*
X0638091Y0397685D03*
X0644091Y0399685D03*
X0649091Y0397685D03*
X0650091Y0403685D03*
X0648091Y0411185D03*
X0648091Y0417685D03*
X0643000Y0425098D03*
X0636091Y0416685D03*
X0638091Y0411185D03*
X0628091Y0411185D03*
X0623091Y0411185D03*
X0624091Y0417685D03*
X0615591Y0417185D03*
X0618394Y0424606D03*
X0629220Y0424606D03*
X0656780Y0425098D03*
X0668283Y0423768D03*
X0668283Y0410972D03*
X0667791Y0403591D03*
X0667299Y0391780D03*
X0667299Y0384398D03*
X0668283Y0376524D03*
X0654091Y0373685D03*
X0650091Y0384185D03*
X0654091Y0384685D03*
X0653091Y0391185D03*
X0643091Y0391185D03*
X0638091Y0391185D03*
X0633091Y0391185D03*
X0633091Y0386185D03*
X0630591Y0382185D03*
X0628591Y0384685D03*
X0622591Y0381685D03*
X0617591Y0386685D03*
X0615091Y0383685D03*
X0611091Y0381685D03*
X0606091Y0382685D03*
X0608591Y0386185D03*
X0608091Y0391185D03*
X0603091Y0391185D03*
X0603091Y0396185D03*
X0613091Y0396685D03*
X0618091Y0391185D03*
X0623091Y0391185D03*
X0637591Y0381685D03*
X0643091Y0382685D03*
X0642091Y0372685D03*
X0600591Y0382685D03*
X0596091Y0385685D03*
X0593091Y0382185D03*
X0590591Y0384685D03*
X0586591Y0383685D03*
X0582091Y0382185D03*
X0580091Y0384185D03*
X0525591Y0396685D03*
X0528091Y0411185D03*
X0533091Y0416185D03*
X0540091Y0421685D03*
X0518091Y0411185D03*
X0513091Y0411185D03*
X0478091Y0416185D03*
X0468091Y0411185D03*
X0460591Y0401685D03*
X0463091Y0391185D03*
X0458091Y0391185D03*
D39*
X0498091Y0411185D02*
X0498091Y0256500D01*
X0468244Y0226654D01*
X0470988Y0222185D02*
X0503091Y0254287D01*
X0503091Y0411185D01*
X0527591Y0386685D02*
X0530591Y0383685D01*
X0530591Y0383185D01*
X0551091Y0382685D02*
X0552091Y0383685D01*
X0552091Y0394685D01*
X0543091Y0403685D01*
X0543091Y0411185D01*
X0545091Y0416185D02*
X0545091Y0404185D01*
X0554091Y0395185D01*
X0554091Y0382685D01*
X0556591Y0381685D02*
X0554091Y0379185D01*
X0556591Y0381685D02*
X0556591Y0399685D01*
X0550591Y0405685D01*
X0555591Y0405693D02*
X0555591Y0404685D01*
X0559091Y0401185D01*
X0559091Y0381185D01*
X0553591Y0375685D01*
X0563091Y0371685D02*
X0563091Y0390185D01*
X0561091Y0392185D01*
X0561091Y0401685D01*
X0558091Y0404685D01*
X0558091Y0411185D01*
X0563091Y0411185D02*
X0563091Y0398685D01*
X0565091Y0396685D01*
X0565091Y0375185D01*
X0567091Y0381685D02*
X0567091Y0385685D01*
X0568091Y0386685D01*
X0568091Y0401185D01*
X0570591Y0403685D02*
X0570591Y0385185D01*
X0569591Y0384185D01*
X0573591Y0381685D02*
X0573591Y0390685D01*
X0573091Y0391185D01*
X0575591Y0396185D02*
X0575591Y0385185D01*
X0580091Y0384185D02*
X0582075Y0386169D01*
X0582075Y0397701D01*
X0579091Y0400685D01*
X0580091Y0403185D02*
X0583583Y0399693D01*
X0583583Y0383677D01*
X0582091Y0382185D01*
X0586091Y0384185D02*
X0586591Y0383685D01*
X0586091Y0384185D02*
X0586091Y0403185D01*
X0583091Y0406185D01*
X0580091Y0408185D02*
X0580091Y0403185D01*
X0580091Y0408185D02*
X0583091Y0411185D01*
X0597591Y0406685D02*
X0600591Y0403685D01*
X0600591Y0382685D01*
X0603091Y0385685D02*
X0606091Y0382685D01*
X0603091Y0385685D02*
X0603091Y0391185D01*
X0606091Y0388685D02*
X0608591Y0386185D01*
X0608091Y0386685D01*
X0606091Y0388685D02*
X0606091Y0400185D01*
X0608091Y0402185D01*
X0611091Y0403185D02*
X0603091Y0411185D01*
X0611091Y0403185D02*
X0611091Y0381685D01*
X0615091Y0383685D02*
X0615091Y0394685D01*
X0613091Y0396685D01*
X0617591Y0386685D02*
X0622591Y0381685D01*
X0628591Y0384685D02*
X0628591Y0401685D01*
X0633091Y0406185D01*
X0630591Y0400185D02*
X0630591Y0382185D01*
X0633091Y0386185D02*
X0637591Y0381685D01*
X0643091Y0391185D02*
X0650091Y0384185D01*
X0593091Y0382185D02*
X0593091Y0396185D01*
X0588091Y0391185D02*
X0590591Y0388685D01*
X0590591Y0384685D01*
X0576591Y0397185D02*
X0575591Y0396185D01*
X0570591Y0403685D02*
X0568091Y0406185D01*
X0545591Y0416685D02*
X0545091Y0416185D01*
X0380245Y0286027D02*
X0373199Y0286027D01*
X0366760Y0279588D01*
X0366760Y0273028D01*
X0365280Y0271547D01*
X0368760Y0274114D02*
X0368885Y0274239D01*
X0368885Y0279733D01*
X0372904Y0283752D01*
X0382996Y0283752D01*
X0381028Y0281421D02*
X0379442Y0280034D01*
X0374604Y0280034D01*
X0371422Y0276852D01*
X0371422Y0273016D01*
X0370760Y0272437D01*
X0372822Y0270034D02*
X0372760Y0269972D01*
X0372822Y0270034D02*
X0372822Y0276272D01*
X0375184Y0278634D01*
X0384571Y0278634D01*
X0386846Y0275397D02*
X0377003Y0275397D01*
X0375122Y0273516D01*
X0378665Y0273122D02*
X0379453Y0273003D01*
X0389295Y0273003D01*
X0380437Y0261311D02*
X0380392Y0261266D01*
X0379945Y0261266D01*
X0351402Y0261311D02*
X0351402Y0261266D01*
X0313016Y0261311D02*
X0313016Y0261266D01*
X0298744Y0262787D02*
X0294315Y0262787D01*
X0294315Y0262742D02*
X0294315Y0266724D01*
X0286441Y0263280D02*
X0286441Y0259966D01*
X0286441Y0259835D02*
X0282996Y0259835D01*
X0254748Y0263002D02*
X0254533Y0262787D01*
X0251008Y0262787D01*
X0223941Y0357276D02*
X0314492Y0357276D01*
X0454748Y0217020D01*
X0462130Y0217020D01*
X0453776Y0222185D02*
X0470988Y0222185D01*
X0471276Y0222185D01*
X0453776Y0222185D02*
X0316323Y0359638D01*
X0226276Y0359638D01*
D40*
X0153567Y0331669D02*
X0153567Y0260240D01*
X0173166Y0240642D01*
X0252976Y0240642D01*
X0258882Y0246547D01*
X0275987Y0246547D01*
X0278075Y0248635D01*
X0278075Y0254421D01*
X0279059Y0255405D01*
X0281520Y0255405D01*
X0282504Y0254421D01*
X0280811Y0252669D02*
X0280811Y0248098D01*
X0276799Y0244087D01*
X0258882Y0244087D01*
X0252976Y0238181D01*
X0171640Y0238181D01*
X0151106Y0258715D01*
X0151106Y0292807D01*
X0171776Y0235720D02*
X0156028Y0219972D01*
X0141264Y0219972D01*
X0151106Y0211114D02*
X0151106Y0185524D01*
X0136343Y0185524D01*
X0151106Y0211114D02*
X0173252Y0233260D01*
X0259374Y0233260D01*
X0264787Y0238673D01*
X0264295Y0242118D02*
X0257898Y0235720D01*
X0171776Y0235720D01*
X0280043Y0253437D02*
X0280811Y0252669D01*
X0310063Y0252699D02*
X0382898Y0252699D01*
X0382898Y0252102D02*
X0310063Y0252102D01*
X0310063Y0251505D02*
X0382898Y0251505D01*
X0382898Y0250908D02*
X0310063Y0250908D01*
X0310063Y0250311D02*
X0382898Y0250311D01*
X0382898Y0249714D02*
X0310063Y0249714D01*
X0310063Y0249500D02*
X0382898Y0249500D01*
X0382898Y0254421D01*
X0310063Y0254421D01*
X0310063Y0249500D01*
X0310063Y0253296D02*
X0382898Y0253296D01*
X0382898Y0253893D02*
X0310063Y0253893D01*
X0427681Y0176665D02*
X0427681Y0170760D01*
X0427681Y0176665D02*
X0431618Y0180602D01*
X0517196Y0180602D01*
X0526106Y0171692D01*
X0526106Y0100386D01*
X0527091Y0099402D01*
X0532504Y0099402D01*
X0533980Y0097925D01*
X0349433Y0092512D02*
X0332209Y0092512D01*
X0202780Y0079717D02*
X0184079Y0098417D01*
D41*
X0181618Y0266724D02*
X0162425Y0266724D01*
X0159965Y0269185D01*
X0181618Y0266724D02*
X0186047Y0271154D01*
X0186047Y0279520D01*
X0189650Y0283122D01*
X0198350Y0283122D01*
X0198350Y0293122D02*
X0205188Y0293122D01*
X0210654Y0298587D01*
X0210654Y0331330D01*
X0205554Y0336429D01*
X0198350Y0336429D01*
X0198350Y0326429D02*
X0198193Y0326272D01*
X0188508Y0326272D01*
X0182110Y0319874D01*
X0182110Y0308794D01*
X0177934Y0304618D01*
X0162917Y0304618D01*
X0159965Y0307571D01*
X0125516Y0304126D02*
X0121087Y0304126D01*
X0121087Y0343004D02*
X0121087Y0343496D01*
X0125516Y0343496D01*
D42*
X0146382Y0332571D03*
X0153567Y0331669D03*
X0151106Y0292807D03*
D43*
X0151106Y0306237D01*
X0148627Y0308716D01*
X0148627Y0331901D01*
X0147957Y0332571D01*
X0146382Y0332571D01*
D44*
X0468091Y0431685D02*
X0472091Y0431685D01*
X0475516Y0428260D01*
X0475091Y0424185D01*
M02*
