%
M48
M72
T01C0.0118
T02C0.0130
T03C0.0138
T04C0.0157
T05C0.0197
T06C0.0236
T07C0.0354
T08C0.0360
T09C0.0400
T10C0.0433
T11C0.0520
T12C0.0550
T13C0.0570
T14C0.0600
T15C0.0709
T16C0.1060
T17C0.1181
T18C0.1250
%
T01
X7807Y7579
X8102Y7579
X7561Y7923
X7561Y8268
X7778Y8661
X7778Y9005
X8151Y9350
X10878Y12302
X11420Y12302
X12010Y12204
X12502Y12007
X12945Y11663
X13290Y11318
X13683Y10875
X14126Y10432
X14569Y9989
X14963Y9596
X15406Y9202
X15849Y8808
X16390Y8562
X17030Y8464
X17620Y8464
X18260Y8464
X18752Y8464
X19294Y8464
X19638Y9104
X20229Y9104
X20721Y9104
X20869Y8464
X20229Y8464
X20278Y7972
X21557Y8464
X22148Y8464
X22000Y7873
X22788Y8464
X23378Y8464
X23920Y8464
X24412Y8464
X24904Y8464
X24904Y9104
X24412Y9104
X23723Y9104
X23034Y9104
X22493Y9104
X21902Y9104
X21410Y9104
X22826Y9939
X22810Y10539
X22181Y10974
X21381Y10124
X20431Y10524
X19441Y10974
X20831Y11524
X19687Y12253
X18703Y12401
X18408Y11466
X16981Y12499
X15750Y11564
X15996Y10777
X15357Y10285
X14963Y10678
X14619Y11072
X14225Y11466
X13733Y11958
X13339Y12302
X12847Y12647
X12207Y12942
X11420Y12991
X10780Y12991
X10140Y13041
X9550Y13041
X9107Y13041
X8664Y12991
X7522Y13917
X12355Y14419
X13683Y13090
X14520Y12499
X16428Y13302
X15406Y13926
X15898Y14665
X17178Y14960
X17227Y13976
X18457Y14665
X19097Y13631
X19884Y13680
X20731Y12724
X21631Y12524
X22521Y12813
X22985Y12253
X22571Y11713
X24904Y12991
X26036Y13139
X26872Y12548
X27365Y13237
X27119Y13926
X28300Y13041
X28349Y12450
X28841Y12352
X29087Y12204
X29235Y12302
X29382Y11958
X28989Y11859
X29776Y11761
X29825Y11121
X29678Y10235
X29678Y9989
X29825Y9793
X29973Y9989
X29973Y10235
X31351Y10728
X31351Y11318
X31941Y11318
X31941Y10728
X32532Y10728
X32532Y11318
X32532Y11909
X31941Y11909
X31351Y11909
X30268Y12696
X30022Y12942
X29727Y13237
X31646Y13385
X32237Y13336
X32237Y13582
X32630Y13385
X32680Y13631
X30760Y15354
X31744Y15452
X31105Y15993
X29776Y16879
X27906Y16436
X24904Y15993
X24658Y16830
X22394Y15009
X21016Y14911
X21281Y13924
X22231Y13724
X22837Y13779
X24117Y14123
X25494Y14025
X25347Y11958
X26078Y11169
X25248Y10875
X26078Y10469
X26078Y9819
X26380Y9104
X26233Y8464
X26872Y8464
X27512Y8464
X27365Y7775
X28300Y8464
X28841Y8267
X29579Y9054
X31006Y9251
X32483Y9153
X33221Y9251
X33811Y10285
X34107Y10235
X34156Y10481
X34008Y10629
X34057Y11515
X34304Y11564
X34550Y11564
X34353Y11810
X34550Y11958
X35578Y12869
X36128Y12869
X36678Y12869
X37228Y12869
X37896Y12893
X37847Y13582
X37059Y13976
X36272Y13434
X38782Y13926
X39914Y12893
X40849Y13090
X40849Y13680
X41538Y14222
X42276Y14665
X42965Y14074
X42079Y12991
X43162Y10787
X43211Y10196
X42719Y9704
X42719Y9212
X42227Y9212
X41981Y9507
X42227Y9704
X41685Y9655
X41587Y9359
X41833Y9212
X43211Y8720
X43703Y8720
X44835Y9015
X44687Y9704
X44933Y9950
X45081Y10196
X45130Y10787
X44244Y10196
X44195Y9704
X45770Y9458
X53398Y9793
X45278Y15619
X45278Y16369
X44687Y17273
X45130Y17667
X43260Y16781
X42768Y17076
X39520Y17076
X39176Y15796
X45475Y21308
X45475Y21997
X46213Y21702
X47099Y22219
X46824Y22665
X48821Y17617
X47886Y17027
X48772Y16781
X49559Y16338
X51479Y16633
X50593Y17470
X37945Y24753
X37502Y25294
X36764Y25294
X35928Y25294
X35140Y25787
X35534Y26131
X34648Y25294
X34254Y26180
X33369Y25294
X32483Y25294
X31744Y25294
X31351Y24753
X30908Y26131
X31302Y26525
X32089Y26131
X29874Y26279
X29431Y26672
X28644Y26328
X28300Y25983
X28250Y25442
X28004Y25344
X27119Y25442
X27119Y26082
X26774Y26082
X27119Y26476
X28054Y26476
X28989Y25590
X29136Y24802
X26430Y24212
X26479Y23867
X25052Y24852
X24756Y25590
X25101Y26279
X24658Y26623
X26134Y26476
X25888Y25541
X23674Y25491
X23132Y25491
X22739Y25491
X21656Y25639
X21311Y26279
X23231Y24310
X15603Y21997
X14126Y21997
X13634Y18552
X15111Y18552
X20130Y16928
X20130Y15501
X21804Y15944
X17571Y13336
X14668Y14911
X13093Y10088
X13536Y9153
X15750Y9891
X16095Y9546
X16489Y9251
X16981Y9104
X17522Y9104
X18162Y9104
X18654Y9104
X18408Y9842
X19491Y9940
X18556Y7922
X17178Y7627
X15750Y7972
X17178Y10088
X24461Y7676
X25544Y8464
X25544Y9104
X27168Y9104
X27857Y9104
X28028Y9819
X28028Y10469
X28028Y11169
X32138Y8021
X32237Y7775
X31991Y7775
X31843Y7480
X31498Y7480
X32286Y7480
X32680Y7480
X34943Y7775
X35977Y7676
X37059Y8070
X37699Y8611
X37847Y7676
X36075Y8857
X34943Y9251
X37158Y26180
X38044Y26525
X38437Y26131
X22628Y35964
X22394Y35728
X49809Y41119
X50309Y41119
T02
X51309Y41119
X51809Y41119
X52809Y41119
X53309Y41619
X54009Y42169
X54559Y41669
X54809Y42169
X55442Y42559
X55809Y41969
X56426Y42559
X57009Y41969
X57902Y42559
X58209Y41969
X58309Y41119
X58309Y40619
X57909Y40069
X57659Y39719
X57309Y39619
X57309Y39119
X57559Y38519
X57359Y38169
X56959Y38419
X56709Y38169
X55409Y38269
X55109Y38269
X55409Y37919
X55359Y37569
X56309Y37169
X56509Y37519
X58009Y38419
X58209Y38219
X58659Y38369
X59059Y38469
X59309Y38219
X59609Y38569
X60059Y38269
X60609Y38269
X60859Y38619
X60809Y39119
X60309Y39119
X60309Y39619
X60809Y40219
X60559Y40519
X60309Y41119
X60809Y41619
X60609Y41969
X61559Y41719
X62409Y41769
X62309Y41119
X62809Y41119
X63309Y40619
X63809Y40269
X63809Y39769
X64409Y39969
X64909Y39769
X65009Y40369
X64809Y41119
X64809Y41769
X63809Y41119
X63609Y41669
X62922Y42461
X61839Y42461
X59772Y42461
X59409Y41969
X59309Y41119
X59759Y40669
X59509Y40169
X59009Y40369
X58809Y39619
X59309Y39619
X58809Y39119
X57972Y39077
X57309Y40369
X56809Y40619
X56809Y40119
X56309Y39519
X55459Y39769
X54809Y39569
X54409Y39769
X54106Y39818
X54057Y40319
X55059Y40569
X55559Y40569
X56059Y40569
X55809Y41119
X55309Y41119
X54809Y41119
X54309Y41119
X56309Y41119
X57309Y41119
X54309Y39119
X53559Y38569
X53059Y38319
X52759Y38669
X52059Y38569
X52559Y39669
X50813Y39570
X50559Y38569
X49309Y39119
X46309Y39119
X45809Y39119
X46059Y40169
X46809Y41119
X47809Y41619
X61109Y38169
X61509Y38369
X61759Y38669
X61809Y39119
X62309Y39119
X63309Y39119
X63809Y39119
X64309Y39119
X65309Y39119
X65409Y38469
X65009Y38419
X64309Y38269
X63759Y38169
X63309Y38619
X63059Y38219
X62859Y38469
X62259Y38169
X64209Y37269
X65409Y37369
X66828Y37652
X66730Y38440
X66730Y39178
X66779Y40359
X66828Y41097
X66828Y42377
X65678Y42510
X64300Y42510
X63059Y40019
X62509Y40369
X62109Y39969
X61509Y40369
X61309Y39669
X38930Y27300
X38685Y27540
X38457Y27863
X38103Y28142
X38300Y28375
X38025Y28603
X37867Y27312
X37512Y27352
X37276Y26997
X37076Y27244
X36876Y27411
X36528Y27155
T03
X15111Y29281
X15357Y33167
X14638Y33257
T04
X14598Y34744
X13811Y34744
X12552Y34350
X12531Y33563
X9825Y33612
X13811Y30807
X14598Y30807
X15061Y30954
X16833Y30954
X17522Y30954
X12552Y30413
X12531Y29626
X9382Y29232
X11055Y26476
X12531Y25886
X12531Y25098
X12531Y24311
X14844Y23425
X13093Y21899
X12404Y22046
X11666Y22096
X7680Y24064
X7448Y25428
X7069Y26329
X8840Y25689
X14717Y27017
X16882Y27017
X17571Y27017
X17424Y20915
X17867Y20521
X17867Y19832
X17424Y19438
X16685Y19438
X16685Y20915
X12404Y18356
X11666Y18356
X14323Y17076
X12306Y15009
X9943Y13631
X13241Y8070
X14176Y8119
X20869Y17076
X21410Y17076
X24363Y17076
X25544Y17076
X26233Y17076
X29185Y17076
X30416Y17076
X31105Y17076
X33861Y17076
X35337Y17076
X36026Y17076
X39077Y17076
X40111Y17076
X40800Y17076
X43752Y17076
X41981Y12204
X42374Y11958
X41931Y11613
X42325Y11269
X41489Y11220
X40996Y11269
X41193Y11859
X40996Y12253
X37945Y9300
X40849Y7873
X41144Y7588
X41390Y7981
X41636Y7539
X41981Y7981
X42227Y7539
X42522Y7932
X41784Y8720
X18556Y34989
X17670Y34989
X16144Y36564
X15258Y36613
X18556Y36663
X19983Y36466
X20376Y36909
X21065Y36909
X21459Y36466
X45259Y41119
X45809Y41119
X46309Y41119
X46309Y41619
X47309Y41119
X47859Y41119
X49309Y41119
X46809Y40519
X47309Y39119
X47809Y39119
T05
X43729Y22324
X45708Y20639
X47208Y20639
X47208Y16933
X45708Y16933
X39300Y21782
X40235Y22324
X40727Y22324
X35953Y22324
X35412Y22324
X33739Y22274
X30983Y22324
X30491Y22324
X29211Y22373
X26160Y22324
X25619Y22324
X24388Y22324
X21436Y22274
X20796Y22274
X15996Y26919
X15996Y30757
X45622Y10737
X45967Y10974
X45918Y10344
X45770Y9950
X46065Y9655
X45327Y9950
X45426Y10344
T06
X47050Y10186
X47394Y9940
X47197Y9596
X46951Y9202
X47542Y9153
X47739Y9596
X48231Y9399
X48378Y9793
X48378Y10383
X47935Y10186
X48969Y9940
X49412Y10088
X49559Y9645
X50002Y10039
X50101Y9399
X48920Y9350
X44638Y6397
X44294Y6052
X43851Y6249
X43309Y6102
X43113Y6544
X43605Y6741
X43900Y7086
X43408Y7233
X43014Y7086
X43949Y7627
X43162Y7726
X12856Y38120
X46809Y43169
T07
X33122Y41682
X31597Y41682
X30071Y41682
X19491Y30462
X12857Y35442
X10632Y43109
X15307Y24212
X20081Y15009
X7187Y6052
X34648Y8267
X36392Y8307
X46013Y6286
X47591Y15304
X47591Y16289
X56646Y23178
X56646Y24753
X56646Y26328
X68359Y42273
X68408Y6102
T08
X19835Y27312
X19835Y28312
X19835Y29312
X19835Y31643
X19835Y32643
X19835Y33643
T09
X10161Y34547
X9161Y34547
X8161Y34547
X7161Y34547
X7161Y24705
X8161Y24705
X9161Y24705
X10161Y24705
X10161Y14862
X9161Y14862
X8161Y14862
X7161Y14862
T10
X23597Y13279
X23597Y12279
X23597Y11279
X23597Y10279
X24269Y41631
X25269Y41631
X26269Y41631
X27269Y41631
T11
X44604Y38919
X66004Y40119
T12
X6724Y31988
X6724Y28051
X6724Y22146
X6724Y18209
X6724Y12303
T13
X5724Y11303
X7724Y11303
X7724Y13303
X5724Y13303
X5724Y17209
X7724Y17209
X7724Y19209
X5724Y19209
X5724Y21146
X7724Y21146
X7724Y23146
X5724Y23146
X5724Y27051
X7724Y27051
X7724Y29051
X5724Y29051
X5724Y30988
X7724Y30988
X7724Y32988
X5724Y32988
T14
X51937Y14854
X51937Y10854
X51937Y6854
X59937Y6854
X59937Y9854
X59937Y11854
T15
X63398Y17976
X65051Y17976
X65051Y19630
X63398Y19630
X63398Y21283
X65051Y21283
T16
X67709Y39319
X42909Y39319
T17
X67925Y21283
X67925Y17976
T18
X7706Y3780
X7706Y37400
M30
