G75*
%MOIN*%
%OFA0B0*%
%FSLAX25Y25*%
%IPPOS*%
%LPD*%
%AMOC8*
5,1,8,0,0,1.08239X$1,22.5*
%
%ADD10C,0.00000*%
D10*
X0171500Y0128311D02*
X0171500Y0619689D01*
X0171503Y0619974D01*
X0171514Y0620260D01*
X0171531Y0620545D01*
X0171555Y0620829D01*
X0171586Y0621113D01*
X0171624Y0621396D01*
X0171669Y0621677D01*
X0171720Y0621958D01*
X0171778Y0622238D01*
X0171843Y0622516D01*
X0171915Y0622792D01*
X0171993Y0623066D01*
X0172078Y0623339D01*
X0172170Y0623609D01*
X0172268Y0623877D01*
X0172372Y0624143D01*
X0172483Y0624406D01*
X0172600Y0624666D01*
X0172723Y0624924D01*
X0172853Y0625178D01*
X0172989Y0625429D01*
X0173130Y0625677D01*
X0173278Y0625921D01*
X0173431Y0626162D01*
X0173591Y0626398D01*
X0173756Y0626631D01*
X0173926Y0626860D01*
X0174102Y0627085D01*
X0174284Y0627305D01*
X0174470Y0627521D01*
X0174662Y0627732D01*
X0174859Y0627939D01*
X0175061Y0628141D01*
X0175268Y0628338D01*
X0175479Y0628530D01*
X0175695Y0628716D01*
X0175915Y0628898D01*
X0176140Y0629074D01*
X0176369Y0629244D01*
X0176602Y0629409D01*
X0176838Y0629569D01*
X0177079Y0629722D01*
X0177323Y0629870D01*
X0177571Y0630011D01*
X0177822Y0630147D01*
X0178076Y0630277D01*
X0178334Y0630400D01*
X0178594Y0630517D01*
X0178857Y0630628D01*
X0179123Y0630732D01*
X0179391Y0630830D01*
X0179661Y0630922D01*
X0179934Y0631007D01*
X0180208Y0631085D01*
X0180484Y0631157D01*
X0180762Y0631222D01*
X0181042Y0631280D01*
X0181323Y0631331D01*
X0181604Y0631376D01*
X0181887Y0631414D01*
X0182171Y0631445D01*
X0182455Y0631469D01*
X0182740Y0631486D01*
X0183026Y0631497D01*
X0183311Y0631500D01*
X0619689Y0631500D01*
X0619974Y0631497D01*
X0620260Y0631486D01*
X0620545Y0631469D01*
X0620829Y0631445D01*
X0621113Y0631414D01*
X0621396Y0631376D01*
X0621677Y0631331D01*
X0621958Y0631280D01*
X0622238Y0631222D01*
X0622516Y0631157D01*
X0622792Y0631085D01*
X0623066Y0631007D01*
X0623339Y0630922D01*
X0623609Y0630830D01*
X0623877Y0630732D01*
X0624143Y0630628D01*
X0624406Y0630517D01*
X0624666Y0630400D01*
X0624924Y0630277D01*
X0625178Y0630147D01*
X0625429Y0630011D01*
X0625677Y0629870D01*
X0625921Y0629722D01*
X0626162Y0629569D01*
X0626398Y0629409D01*
X0626631Y0629244D01*
X0626860Y0629074D01*
X0627085Y0628898D01*
X0627305Y0628716D01*
X0627521Y0628530D01*
X0627732Y0628338D01*
X0627939Y0628141D01*
X0628141Y0627939D01*
X0628338Y0627732D01*
X0628530Y0627521D01*
X0628716Y0627305D01*
X0628898Y0627085D01*
X0629074Y0626860D01*
X0629244Y0626631D01*
X0629409Y0626398D01*
X0629569Y0626162D01*
X0629722Y0625921D01*
X0629870Y0625677D01*
X0630011Y0625429D01*
X0630147Y0625178D01*
X0630277Y0624924D01*
X0630400Y0624666D01*
X0630517Y0624406D01*
X0630628Y0624143D01*
X0630732Y0623877D01*
X0630830Y0623609D01*
X0630922Y0623339D01*
X0631007Y0623066D01*
X0631085Y0622792D01*
X0631157Y0622516D01*
X0631222Y0622238D01*
X0631280Y0621958D01*
X0631331Y0621677D01*
X0631376Y0621396D01*
X0631414Y0621113D01*
X0631445Y0620829D01*
X0631469Y0620545D01*
X0631486Y0620260D01*
X0631497Y0619974D01*
X0631500Y0619689D01*
X0631500Y0128311D01*
X0631497Y0128026D01*
X0631486Y0127740D01*
X0631469Y0127455D01*
X0631445Y0127171D01*
X0631414Y0126887D01*
X0631376Y0126604D01*
X0631331Y0126323D01*
X0631280Y0126042D01*
X0631222Y0125762D01*
X0631157Y0125484D01*
X0631085Y0125208D01*
X0631007Y0124934D01*
X0630922Y0124661D01*
X0630830Y0124391D01*
X0630732Y0124123D01*
X0630628Y0123857D01*
X0630517Y0123594D01*
X0630400Y0123334D01*
X0630277Y0123076D01*
X0630147Y0122822D01*
X0630011Y0122571D01*
X0629870Y0122323D01*
X0629722Y0122079D01*
X0629569Y0121838D01*
X0629409Y0121602D01*
X0629244Y0121369D01*
X0629074Y0121140D01*
X0628898Y0120915D01*
X0628716Y0120695D01*
X0628530Y0120479D01*
X0628338Y0120268D01*
X0628141Y0120061D01*
X0627939Y0119859D01*
X0627732Y0119662D01*
X0627521Y0119470D01*
X0627305Y0119284D01*
X0627085Y0119102D01*
X0626860Y0118926D01*
X0626631Y0118756D01*
X0626398Y0118591D01*
X0626162Y0118431D01*
X0625921Y0118278D01*
X0625677Y0118130D01*
X0625429Y0117989D01*
X0625178Y0117853D01*
X0624924Y0117723D01*
X0624666Y0117600D01*
X0624406Y0117483D01*
X0624143Y0117372D01*
X0623877Y0117268D01*
X0623609Y0117170D01*
X0623339Y0117078D01*
X0623066Y0116993D01*
X0622792Y0116915D01*
X0622516Y0116843D01*
X0622238Y0116778D01*
X0621958Y0116720D01*
X0621677Y0116669D01*
X0621396Y0116624D01*
X0621113Y0116586D01*
X0620829Y0116555D01*
X0620545Y0116531D01*
X0620260Y0116514D01*
X0619974Y0116503D01*
X0619689Y0116500D01*
X0183311Y0116500D01*
X0183026Y0116503D01*
X0182740Y0116514D01*
X0182455Y0116531D01*
X0182171Y0116555D01*
X0181887Y0116586D01*
X0181604Y0116624D01*
X0181323Y0116669D01*
X0181042Y0116720D01*
X0180762Y0116778D01*
X0180484Y0116843D01*
X0180208Y0116915D01*
X0179934Y0116993D01*
X0179661Y0117078D01*
X0179391Y0117170D01*
X0179123Y0117268D01*
X0178857Y0117372D01*
X0178594Y0117483D01*
X0178334Y0117600D01*
X0178076Y0117723D01*
X0177822Y0117853D01*
X0177571Y0117989D01*
X0177323Y0118130D01*
X0177079Y0118278D01*
X0176838Y0118431D01*
X0176602Y0118591D01*
X0176369Y0118756D01*
X0176140Y0118926D01*
X0175915Y0119102D01*
X0175695Y0119284D01*
X0175479Y0119470D01*
X0175268Y0119662D01*
X0175061Y0119859D01*
X0174859Y0120061D01*
X0174662Y0120268D01*
X0174470Y0120479D01*
X0174284Y0120695D01*
X0174102Y0120915D01*
X0173926Y0121140D01*
X0173756Y0121369D01*
X0173591Y0121602D01*
X0173431Y0121838D01*
X0173278Y0122079D01*
X0173130Y0122323D01*
X0172989Y0122571D01*
X0172853Y0122822D01*
X0172723Y0123076D01*
X0172600Y0123334D01*
X0172483Y0123594D01*
X0172372Y0123857D01*
X0172268Y0124123D01*
X0172170Y0124391D01*
X0172078Y0124661D01*
X0171993Y0124934D01*
X0171915Y0125208D01*
X0171843Y0125484D01*
X0171778Y0125762D01*
X0171720Y0126042D01*
X0171669Y0126323D01*
X0171624Y0126604D01*
X0171586Y0126887D01*
X0171555Y0127171D01*
X0171531Y0127455D01*
X0171514Y0127740D01*
X0171503Y0128026D01*
X0171500Y0128311D01*
X0299516Y0397563D02*
X0299518Y0397723D01*
X0299524Y0397883D01*
X0299534Y0398043D01*
X0299548Y0398203D01*
X0299566Y0398362D01*
X0299588Y0398521D01*
X0299614Y0398679D01*
X0299643Y0398836D01*
X0299677Y0398993D01*
X0299715Y0399148D01*
X0299756Y0399303D01*
X0299801Y0399457D01*
X0299851Y0399609D01*
X0299903Y0399760D01*
X0299960Y0399910D01*
X0300021Y0400059D01*
X0300085Y0400206D01*
X0300152Y0400351D01*
X0300224Y0400494D01*
X0300298Y0400636D01*
X0300377Y0400776D01*
X0300459Y0400913D01*
X0300544Y0401049D01*
X0300632Y0401182D01*
X0300724Y0401314D01*
X0300819Y0401442D01*
X0300918Y0401569D01*
X0301019Y0401693D01*
X0301124Y0401814D01*
X0301231Y0401933D01*
X0301342Y0402049D01*
X0301455Y0402162D01*
X0301571Y0402273D01*
X0301690Y0402380D01*
X0301811Y0402485D01*
X0301935Y0402586D01*
X0302062Y0402685D01*
X0302190Y0402780D01*
X0302322Y0402872D01*
X0302455Y0402960D01*
X0302591Y0403045D01*
X0302729Y0403127D01*
X0302868Y0403206D01*
X0303010Y0403280D01*
X0303153Y0403352D01*
X0303298Y0403419D01*
X0303445Y0403483D01*
X0303594Y0403544D01*
X0303744Y0403601D01*
X0303895Y0403653D01*
X0304047Y0403703D01*
X0304201Y0403748D01*
X0304356Y0403789D01*
X0304511Y0403827D01*
X0304668Y0403861D01*
X0304825Y0403890D01*
X0304983Y0403916D01*
X0305142Y0403938D01*
X0305301Y0403956D01*
X0305461Y0403970D01*
X0305621Y0403980D01*
X0305781Y0403986D01*
X0305941Y0403988D01*
X0306101Y0403986D01*
X0306261Y0403980D01*
X0306421Y0403970D01*
X0306581Y0403956D01*
X0306740Y0403938D01*
X0306899Y0403916D01*
X0307057Y0403890D01*
X0307214Y0403861D01*
X0307371Y0403827D01*
X0307526Y0403789D01*
X0307681Y0403748D01*
X0307835Y0403703D01*
X0307987Y0403653D01*
X0308138Y0403601D01*
X0308288Y0403544D01*
X0308437Y0403483D01*
X0308584Y0403419D01*
X0308729Y0403352D01*
X0308872Y0403280D01*
X0309014Y0403206D01*
X0309154Y0403127D01*
X0309291Y0403045D01*
X0309427Y0402960D01*
X0309560Y0402872D01*
X0309692Y0402780D01*
X0309820Y0402685D01*
X0309947Y0402586D01*
X0310071Y0402485D01*
X0310192Y0402380D01*
X0310311Y0402273D01*
X0310427Y0402162D01*
X0310540Y0402049D01*
X0310651Y0401933D01*
X0310758Y0401814D01*
X0310863Y0401693D01*
X0310964Y0401569D01*
X0311063Y0401442D01*
X0311158Y0401314D01*
X0311250Y0401182D01*
X0311338Y0401049D01*
X0311423Y0400913D01*
X0311505Y0400775D01*
X0311584Y0400636D01*
X0311658Y0400494D01*
X0311730Y0400351D01*
X0311797Y0400206D01*
X0311861Y0400059D01*
X0311922Y0399910D01*
X0311979Y0399760D01*
X0312031Y0399609D01*
X0312081Y0399457D01*
X0312126Y0399303D01*
X0312167Y0399148D01*
X0312205Y0398993D01*
X0312239Y0398836D01*
X0312268Y0398679D01*
X0312294Y0398521D01*
X0312316Y0398362D01*
X0312334Y0398203D01*
X0312348Y0398043D01*
X0312358Y0397883D01*
X0312364Y0397723D01*
X0312366Y0397563D01*
X0312364Y0397403D01*
X0312358Y0397243D01*
X0312348Y0397083D01*
X0312334Y0396923D01*
X0312316Y0396764D01*
X0312294Y0396605D01*
X0312268Y0396447D01*
X0312239Y0396290D01*
X0312205Y0396133D01*
X0312167Y0395978D01*
X0312126Y0395823D01*
X0312081Y0395669D01*
X0312031Y0395517D01*
X0311979Y0395366D01*
X0311922Y0395216D01*
X0311861Y0395067D01*
X0311797Y0394920D01*
X0311730Y0394775D01*
X0311658Y0394632D01*
X0311584Y0394490D01*
X0311505Y0394350D01*
X0311423Y0394213D01*
X0311338Y0394077D01*
X0311250Y0393944D01*
X0311158Y0393812D01*
X0311063Y0393684D01*
X0310964Y0393557D01*
X0310863Y0393433D01*
X0310758Y0393312D01*
X0310651Y0393193D01*
X0310540Y0393077D01*
X0310427Y0392964D01*
X0310311Y0392853D01*
X0310192Y0392746D01*
X0310071Y0392641D01*
X0309947Y0392540D01*
X0309820Y0392441D01*
X0309692Y0392346D01*
X0309560Y0392254D01*
X0309427Y0392166D01*
X0309291Y0392081D01*
X0309153Y0391999D01*
X0309014Y0391920D01*
X0308872Y0391846D01*
X0308729Y0391774D01*
X0308584Y0391707D01*
X0308437Y0391643D01*
X0308288Y0391582D01*
X0308138Y0391525D01*
X0307987Y0391473D01*
X0307835Y0391423D01*
X0307681Y0391378D01*
X0307526Y0391337D01*
X0307371Y0391299D01*
X0307214Y0391265D01*
X0307057Y0391236D01*
X0306899Y0391210D01*
X0306740Y0391188D01*
X0306581Y0391170D01*
X0306421Y0391156D01*
X0306261Y0391146D01*
X0306101Y0391140D01*
X0305941Y0391138D01*
X0305781Y0391140D01*
X0305621Y0391146D01*
X0305461Y0391156D01*
X0305301Y0391170D01*
X0305142Y0391188D01*
X0304983Y0391210D01*
X0304825Y0391236D01*
X0304668Y0391265D01*
X0304511Y0391299D01*
X0304356Y0391337D01*
X0304201Y0391378D01*
X0304047Y0391423D01*
X0303895Y0391473D01*
X0303744Y0391525D01*
X0303594Y0391582D01*
X0303445Y0391643D01*
X0303298Y0391707D01*
X0303153Y0391774D01*
X0303010Y0391846D01*
X0302868Y0391920D01*
X0302728Y0391999D01*
X0302591Y0392081D01*
X0302455Y0392166D01*
X0302322Y0392254D01*
X0302190Y0392346D01*
X0302062Y0392441D01*
X0301935Y0392540D01*
X0301811Y0392641D01*
X0301690Y0392746D01*
X0301571Y0392853D01*
X0301455Y0392964D01*
X0301342Y0393077D01*
X0301231Y0393193D01*
X0301124Y0393312D01*
X0301019Y0393433D01*
X0300918Y0393557D01*
X0300819Y0393684D01*
X0300724Y0393812D01*
X0300632Y0393944D01*
X0300544Y0394077D01*
X0300459Y0394213D01*
X0300377Y0394351D01*
X0300298Y0394490D01*
X0300224Y0394632D01*
X0300152Y0394775D01*
X0300085Y0394920D01*
X0300021Y0395067D01*
X0299960Y0395216D01*
X0299903Y0395366D01*
X0299851Y0395517D01*
X0299801Y0395669D01*
X0299756Y0395823D01*
X0299715Y0395978D01*
X0299677Y0396133D01*
X0299643Y0396290D01*
X0299614Y0396447D01*
X0299588Y0396605D01*
X0299566Y0396764D01*
X0299548Y0396923D01*
X0299534Y0397083D01*
X0299524Y0397243D01*
X0299518Y0397403D01*
X0299516Y0397563D01*
X0490634Y0405437D02*
X0490636Y0405597D01*
X0490642Y0405757D01*
X0490652Y0405917D01*
X0490666Y0406077D01*
X0490684Y0406236D01*
X0490706Y0406395D01*
X0490732Y0406553D01*
X0490761Y0406710D01*
X0490795Y0406867D01*
X0490833Y0407022D01*
X0490874Y0407177D01*
X0490919Y0407331D01*
X0490969Y0407483D01*
X0491021Y0407634D01*
X0491078Y0407784D01*
X0491139Y0407933D01*
X0491203Y0408080D01*
X0491270Y0408225D01*
X0491342Y0408368D01*
X0491416Y0408510D01*
X0491495Y0408650D01*
X0491577Y0408787D01*
X0491662Y0408923D01*
X0491750Y0409056D01*
X0491842Y0409188D01*
X0491937Y0409316D01*
X0492036Y0409443D01*
X0492137Y0409567D01*
X0492242Y0409688D01*
X0492349Y0409807D01*
X0492460Y0409923D01*
X0492573Y0410036D01*
X0492689Y0410147D01*
X0492808Y0410254D01*
X0492929Y0410359D01*
X0493053Y0410460D01*
X0493180Y0410559D01*
X0493308Y0410654D01*
X0493440Y0410746D01*
X0493573Y0410834D01*
X0493709Y0410919D01*
X0493847Y0411001D01*
X0493986Y0411080D01*
X0494128Y0411154D01*
X0494271Y0411226D01*
X0494416Y0411293D01*
X0494563Y0411357D01*
X0494712Y0411418D01*
X0494862Y0411475D01*
X0495013Y0411527D01*
X0495165Y0411577D01*
X0495319Y0411622D01*
X0495474Y0411663D01*
X0495629Y0411701D01*
X0495786Y0411735D01*
X0495943Y0411764D01*
X0496101Y0411790D01*
X0496260Y0411812D01*
X0496419Y0411830D01*
X0496579Y0411844D01*
X0496739Y0411854D01*
X0496899Y0411860D01*
X0497059Y0411862D01*
X0497219Y0411860D01*
X0497379Y0411854D01*
X0497539Y0411844D01*
X0497699Y0411830D01*
X0497858Y0411812D01*
X0498017Y0411790D01*
X0498175Y0411764D01*
X0498332Y0411735D01*
X0498489Y0411701D01*
X0498644Y0411663D01*
X0498799Y0411622D01*
X0498953Y0411577D01*
X0499105Y0411527D01*
X0499256Y0411475D01*
X0499406Y0411418D01*
X0499555Y0411357D01*
X0499702Y0411293D01*
X0499847Y0411226D01*
X0499990Y0411154D01*
X0500132Y0411080D01*
X0500272Y0411001D01*
X0500409Y0410919D01*
X0500545Y0410834D01*
X0500678Y0410746D01*
X0500810Y0410654D01*
X0500938Y0410559D01*
X0501065Y0410460D01*
X0501189Y0410359D01*
X0501310Y0410254D01*
X0501429Y0410147D01*
X0501545Y0410036D01*
X0501658Y0409923D01*
X0501769Y0409807D01*
X0501876Y0409688D01*
X0501981Y0409567D01*
X0502082Y0409443D01*
X0502181Y0409316D01*
X0502276Y0409188D01*
X0502368Y0409056D01*
X0502456Y0408923D01*
X0502541Y0408787D01*
X0502623Y0408649D01*
X0502702Y0408510D01*
X0502776Y0408368D01*
X0502848Y0408225D01*
X0502915Y0408080D01*
X0502979Y0407933D01*
X0503040Y0407784D01*
X0503097Y0407634D01*
X0503149Y0407483D01*
X0503199Y0407331D01*
X0503244Y0407177D01*
X0503285Y0407022D01*
X0503323Y0406867D01*
X0503357Y0406710D01*
X0503386Y0406553D01*
X0503412Y0406395D01*
X0503434Y0406236D01*
X0503452Y0406077D01*
X0503466Y0405917D01*
X0503476Y0405757D01*
X0503482Y0405597D01*
X0503484Y0405437D01*
X0503482Y0405277D01*
X0503476Y0405117D01*
X0503466Y0404957D01*
X0503452Y0404797D01*
X0503434Y0404638D01*
X0503412Y0404479D01*
X0503386Y0404321D01*
X0503357Y0404164D01*
X0503323Y0404007D01*
X0503285Y0403852D01*
X0503244Y0403697D01*
X0503199Y0403543D01*
X0503149Y0403391D01*
X0503097Y0403240D01*
X0503040Y0403090D01*
X0502979Y0402941D01*
X0502915Y0402794D01*
X0502848Y0402649D01*
X0502776Y0402506D01*
X0502702Y0402364D01*
X0502623Y0402224D01*
X0502541Y0402087D01*
X0502456Y0401951D01*
X0502368Y0401818D01*
X0502276Y0401686D01*
X0502181Y0401558D01*
X0502082Y0401431D01*
X0501981Y0401307D01*
X0501876Y0401186D01*
X0501769Y0401067D01*
X0501658Y0400951D01*
X0501545Y0400838D01*
X0501429Y0400727D01*
X0501310Y0400620D01*
X0501189Y0400515D01*
X0501065Y0400414D01*
X0500938Y0400315D01*
X0500810Y0400220D01*
X0500678Y0400128D01*
X0500545Y0400040D01*
X0500409Y0399955D01*
X0500271Y0399873D01*
X0500132Y0399794D01*
X0499990Y0399720D01*
X0499847Y0399648D01*
X0499702Y0399581D01*
X0499555Y0399517D01*
X0499406Y0399456D01*
X0499256Y0399399D01*
X0499105Y0399347D01*
X0498953Y0399297D01*
X0498799Y0399252D01*
X0498644Y0399211D01*
X0498489Y0399173D01*
X0498332Y0399139D01*
X0498175Y0399110D01*
X0498017Y0399084D01*
X0497858Y0399062D01*
X0497699Y0399044D01*
X0497539Y0399030D01*
X0497379Y0399020D01*
X0497219Y0399014D01*
X0497059Y0399012D01*
X0496899Y0399014D01*
X0496739Y0399020D01*
X0496579Y0399030D01*
X0496419Y0399044D01*
X0496260Y0399062D01*
X0496101Y0399084D01*
X0495943Y0399110D01*
X0495786Y0399139D01*
X0495629Y0399173D01*
X0495474Y0399211D01*
X0495319Y0399252D01*
X0495165Y0399297D01*
X0495013Y0399347D01*
X0494862Y0399399D01*
X0494712Y0399456D01*
X0494563Y0399517D01*
X0494416Y0399581D01*
X0494271Y0399648D01*
X0494128Y0399720D01*
X0493986Y0399794D01*
X0493846Y0399873D01*
X0493709Y0399955D01*
X0493573Y0400040D01*
X0493440Y0400128D01*
X0493308Y0400220D01*
X0493180Y0400315D01*
X0493053Y0400414D01*
X0492929Y0400515D01*
X0492808Y0400620D01*
X0492689Y0400727D01*
X0492573Y0400838D01*
X0492460Y0400951D01*
X0492349Y0401067D01*
X0492242Y0401186D01*
X0492137Y0401307D01*
X0492036Y0401431D01*
X0491937Y0401558D01*
X0491842Y0401686D01*
X0491750Y0401818D01*
X0491662Y0401951D01*
X0491577Y0402087D01*
X0491495Y0402225D01*
X0491416Y0402364D01*
X0491342Y0402506D01*
X0491270Y0402649D01*
X0491203Y0402794D01*
X0491139Y0402941D01*
X0491078Y0403090D01*
X0491021Y0403240D01*
X0490969Y0403391D01*
X0490919Y0403543D01*
X0490874Y0403697D01*
X0490833Y0403852D01*
X0490795Y0404007D01*
X0490761Y0404164D01*
X0490732Y0404321D01*
X0490706Y0404479D01*
X0490684Y0404638D01*
X0490666Y0404797D01*
X0490652Y0404957D01*
X0490642Y0405117D01*
X0490636Y0405277D01*
X0490634Y0405437D01*
M02*
