G75*
%MOIN*%
%OFA0B0*%
%FSLAX24Y24*%
%IPPOS*%
%LPD*%
%AMOC8*
5,1,8,0,0,1.08239X$1,22.5*
%
%ADD10C,0.0050*%
%ADD11C,0.0060*%
%ADD12C,0.0080*%
%ADD13C,0.0070*%
D10*
X008405Y004227D02*
X009539Y004227D01*
X009539Y004660D01*
X009645Y004733D02*
X010078Y004733D01*
X010078Y004599D02*
X009763Y004599D01*
X009763Y003733D01*
X010078Y003733D01*
X010078Y003599D02*
X009645Y003599D01*
X009645Y004733D01*
X009405Y004660D02*
X009405Y004345D01*
X008539Y004345D01*
X008539Y004660D01*
X008405Y004660D02*
X008405Y004227D01*
X009901Y003948D02*
X009903Y003967D01*
X009909Y003984D01*
X009918Y004000D01*
X009930Y004014D01*
X009945Y004025D01*
X009962Y004033D01*
X009981Y004037D01*
X009999Y004037D01*
X010018Y004033D01*
X010034Y004025D01*
X010050Y004014D01*
X010062Y004000D01*
X010071Y003984D01*
X010077Y003967D01*
X010079Y003948D01*
X010077Y003929D01*
X010071Y003912D01*
X010062Y003896D01*
X010050Y003882D01*
X010035Y003871D01*
X010018Y003863D01*
X009999Y003859D01*
X009981Y003859D01*
X009962Y003863D01*
X009946Y003871D01*
X009930Y003882D01*
X009918Y003896D01*
X009909Y003912D01*
X009903Y003929D01*
X009901Y003948D01*
X010752Y005866D02*
X010752Y006306D01*
X011592Y006306D01*
X011592Y005866D01*
X010752Y005866D01*
X009539Y006392D02*
X009539Y006825D01*
X008405Y006825D01*
X008405Y006392D01*
X008539Y006392D02*
X008539Y006707D01*
X009405Y006707D01*
X009405Y006392D01*
X008665Y006480D02*
X008667Y006499D01*
X008673Y006516D01*
X008682Y006532D01*
X008694Y006546D01*
X008709Y006557D01*
X008726Y006565D01*
X008745Y006569D01*
X008763Y006569D01*
X008782Y006565D01*
X008798Y006557D01*
X008814Y006546D01*
X008826Y006532D01*
X008835Y006516D01*
X008841Y006499D01*
X008843Y006480D01*
X008841Y006461D01*
X008835Y006444D01*
X008826Y006428D01*
X008814Y006414D01*
X008799Y006403D01*
X008782Y006395D01*
X008763Y006391D01*
X008745Y006391D01*
X008726Y006395D01*
X008710Y006403D01*
X008694Y006414D01*
X008682Y006428D01*
X008673Y006444D01*
X008667Y006461D01*
X008665Y006480D01*
X008405Y007238D02*
X009539Y007238D01*
X009539Y007671D01*
X009405Y007671D02*
X009405Y007356D01*
X008539Y007356D01*
X008539Y007671D01*
X008405Y007671D02*
X008405Y007238D01*
X009952Y009466D02*
X010272Y009466D01*
X010272Y010106D01*
X009952Y010106D01*
X009952Y009466D01*
X010332Y009466D02*
X010332Y010106D01*
X010652Y010106D01*
X010652Y009466D01*
X010332Y009466D01*
X010712Y009466D02*
X010712Y010106D01*
X011032Y010106D01*
X011032Y009466D01*
X010712Y009466D01*
X011292Y010036D02*
X014732Y010036D01*
X014732Y012676D01*
X011292Y012676D01*
X011292Y010036D01*
X011512Y009986D02*
X011512Y009666D01*
X012152Y009666D01*
X012152Y009986D01*
X011512Y009986D01*
X013492Y008576D02*
X013492Y005936D01*
X016932Y005936D01*
X016932Y008576D01*
X013492Y008576D01*
X015747Y004733D02*
X016180Y004733D01*
X016180Y003599D01*
X015747Y003599D01*
X015747Y003733D02*
X016062Y003733D01*
X016062Y004599D01*
X015747Y004599D01*
X016593Y004733D02*
X016593Y003599D01*
X017026Y003599D01*
X017026Y003733D02*
X016711Y003733D01*
X016711Y004599D01*
X017026Y004599D01*
X017026Y004733D02*
X016593Y004733D01*
X016849Y003948D02*
X016851Y003967D01*
X016857Y003984D01*
X016866Y004000D01*
X016878Y004014D01*
X016893Y004025D01*
X016910Y004033D01*
X016929Y004037D01*
X016947Y004037D01*
X016966Y004033D01*
X016982Y004025D01*
X016998Y004014D01*
X017010Y004000D01*
X017019Y003984D01*
X017025Y003967D01*
X017027Y003948D01*
X017025Y003929D01*
X017019Y003912D01*
X017010Y003896D01*
X016998Y003882D01*
X016983Y003871D01*
X016966Y003863D01*
X016947Y003859D01*
X016929Y003859D01*
X016910Y003863D01*
X016894Y003871D01*
X016878Y003882D01*
X016866Y003896D01*
X016857Y003912D01*
X016851Y003929D01*
X016849Y003948D01*
X018758Y003733D02*
X019073Y003733D01*
X019073Y004599D01*
X018758Y004599D01*
X018758Y004733D02*
X019192Y004733D01*
X019192Y003599D01*
X018758Y003599D01*
X018685Y004838D02*
X018685Y005271D01*
X018819Y005271D02*
X018819Y004956D01*
X019685Y004956D01*
X019685Y005271D01*
X019819Y005271D02*
X019819Y004838D01*
X018685Y004838D01*
X019381Y005183D02*
X019383Y005202D01*
X019389Y005219D01*
X019398Y005235D01*
X019410Y005249D01*
X019425Y005260D01*
X019442Y005268D01*
X019461Y005272D01*
X019479Y005272D01*
X019498Y005268D01*
X019514Y005260D01*
X019530Y005249D01*
X019542Y005235D01*
X019551Y005219D01*
X019557Y005202D01*
X019559Y005183D01*
X019557Y005164D01*
X019551Y005147D01*
X019542Y005131D01*
X019530Y005117D01*
X019515Y005106D01*
X019498Y005098D01*
X019479Y005094D01*
X019461Y005094D01*
X019442Y005098D01*
X019426Y005106D01*
X019410Y005117D01*
X019398Y005131D01*
X019389Y005147D01*
X019383Y005164D01*
X019381Y005183D01*
X017132Y008666D02*
X017132Y008986D01*
X016492Y008986D01*
X016492Y008666D01*
X017132Y008666D01*
X018685Y010940D02*
X018685Y011374D01*
X019819Y011374D01*
X019819Y010940D01*
X019685Y010940D02*
X019685Y011255D01*
X018819Y011255D01*
X018819Y010940D01*
X018580Y013879D02*
X018147Y013879D01*
X018147Y014013D02*
X018462Y014013D01*
X018462Y014879D01*
X018147Y014879D01*
X018147Y015013D02*
X018580Y015013D01*
X018580Y013879D01*
X018146Y014664D02*
X018148Y014683D01*
X018154Y014700D01*
X018163Y014716D01*
X018175Y014730D01*
X018190Y014741D01*
X018207Y014749D01*
X018226Y014753D01*
X018244Y014753D01*
X018263Y014749D01*
X018279Y014741D01*
X018295Y014730D01*
X018307Y014716D01*
X018316Y014700D01*
X018322Y014683D01*
X018324Y014664D01*
X018322Y014645D01*
X018316Y014628D01*
X018307Y014612D01*
X018295Y014598D01*
X018280Y014587D01*
X018263Y014579D01*
X018244Y014575D01*
X018226Y014575D01*
X018207Y014579D01*
X018191Y014587D01*
X018175Y014598D01*
X018163Y014612D01*
X018154Y014628D01*
X018148Y014645D01*
X018146Y014664D01*
X020125Y016255D02*
X019883Y016614D01*
X019994Y016688D02*
X020170Y016427D01*
X020888Y016912D01*
X020712Y017173D01*
X020823Y017248D02*
X021065Y016889D01*
X020125Y016255D01*
X020356Y015912D02*
X020598Y015553D01*
X020709Y015628D02*
X020533Y015889D01*
X021251Y016373D01*
X021427Y016112D01*
X021538Y016187D02*
X021296Y016546D01*
X020356Y015912D01*
X020494Y016980D02*
X020496Y016999D01*
X020502Y017016D01*
X020511Y017032D01*
X020523Y017046D01*
X020538Y017057D01*
X020555Y017065D01*
X020574Y017069D01*
X020592Y017069D01*
X020611Y017065D01*
X020627Y017057D01*
X020643Y017046D01*
X020655Y017032D01*
X020664Y017016D01*
X020670Y016999D01*
X020672Y016980D01*
X020670Y016961D01*
X020664Y016944D01*
X020655Y016928D01*
X020643Y016914D01*
X020628Y016903D01*
X020611Y016895D01*
X020592Y016891D01*
X020574Y016891D01*
X020555Y016895D01*
X020539Y016903D01*
X020523Y016914D01*
X020511Y016928D01*
X020502Y016944D01*
X020496Y016961D01*
X020494Y016980D01*
X022553Y014870D02*
X023187Y013930D01*
X023546Y014173D01*
X023471Y014284D02*
X023210Y014107D01*
X022726Y014826D01*
X022987Y015002D01*
X022912Y015113D02*
X022553Y014870D01*
X022507Y014751D02*
X022749Y014392D01*
X021809Y013758D01*
X021567Y014117D01*
X021678Y014192D02*
X021854Y013931D01*
X022572Y014415D01*
X022396Y014676D01*
X022178Y014483D02*
X022180Y014502D01*
X022186Y014519D01*
X022195Y014535D01*
X022207Y014549D01*
X022222Y014560D01*
X022239Y014568D01*
X022258Y014572D01*
X022276Y014572D01*
X022295Y014568D01*
X022311Y014560D01*
X022327Y014549D01*
X022339Y014535D01*
X022348Y014519D01*
X022354Y014502D01*
X022356Y014483D01*
X022354Y014464D01*
X022348Y014447D01*
X022339Y014431D01*
X022327Y014417D01*
X022312Y014406D01*
X022295Y014398D01*
X022276Y014394D01*
X022258Y014394D01*
X022239Y014398D01*
X022223Y014406D01*
X022207Y014417D01*
X022195Y014431D01*
X022186Y014447D01*
X022180Y014464D01*
X022178Y014483D01*
X025467Y011211D02*
X025467Y010077D01*
X025900Y010077D01*
X025900Y010211D02*
X025586Y010211D01*
X025586Y011077D01*
X025900Y011077D01*
X025900Y011211D02*
X025467Y011211D01*
X025724Y010426D02*
X025726Y010445D01*
X025732Y010462D01*
X025741Y010478D01*
X025753Y010492D01*
X025768Y010503D01*
X025785Y010511D01*
X025804Y010515D01*
X025822Y010515D01*
X025841Y010511D01*
X025857Y010503D01*
X025873Y010492D01*
X025885Y010478D01*
X025894Y010462D01*
X025900Y010445D01*
X025902Y010426D01*
X025900Y010407D01*
X025894Y010390D01*
X025885Y010374D01*
X025873Y010360D01*
X025858Y010349D01*
X025841Y010341D01*
X025822Y010337D01*
X025804Y010337D01*
X025785Y010341D01*
X025769Y010349D01*
X025753Y010360D01*
X025741Y010374D01*
X025732Y010390D01*
X025726Y010407D01*
X025724Y010426D01*
X025900Y008211D02*
X025467Y008211D01*
X025467Y007077D01*
X025900Y007077D01*
X025900Y007211D02*
X025586Y007211D01*
X025586Y008077D01*
X025900Y008077D01*
X025724Y007426D02*
X025726Y007445D01*
X025732Y007462D01*
X025741Y007478D01*
X025753Y007492D01*
X025768Y007503D01*
X025785Y007511D01*
X025804Y007515D01*
X025822Y007515D01*
X025841Y007511D01*
X025857Y007503D01*
X025873Y007492D01*
X025885Y007478D01*
X025894Y007462D01*
X025900Y007445D01*
X025902Y007426D01*
X025900Y007407D01*
X025894Y007390D01*
X025885Y007374D01*
X025873Y007360D01*
X025858Y007349D01*
X025841Y007341D01*
X025822Y007337D01*
X025804Y007337D01*
X025785Y007341D01*
X025769Y007349D01*
X025753Y007360D01*
X025741Y007374D01*
X025732Y007390D01*
X025726Y007407D01*
X025724Y007426D01*
X025900Y005211D02*
X025467Y005211D01*
X025467Y004077D01*
X025900Y004077D01*
X025900Y004211D02*
X025586Y004211D01*
X025586Y005077D01*
X025900Y005077D01*
X025724Y004426D02*
X025726Y004445D01*
X025732Y004462D01*
X025741Y004478D01*
X025753Y004492D01*
X025768Y004503D01*
X025785Y004511D01*
X025804Y004515D01*
X025822Y004515D01*
X025841Y004511D01*
X025857Y004503D01*
X025873Y004492D01*
X025885Y004478D01*
X025894Y004462D01*
X025900Y004445D01*
X025902Y004426D01*
X025900Y004407D01*
X025894Y004390D01*
X025885Y004374D01*
X025873Y004360D01*
X025858Y004349D01*
X025841Y004341D01*
X025822Y004337D01*
X025804Y004337D01*
X025785Y004341D01*
X025769Y004349D01*
X025753Y004360D01*
X025741Y004374D01*
X025732Y004390D01*
X025726Y004407D01*
X025724Y004426D01*
X031570Y004211D02*
X031885Y004211D01*
X031885Y005077D01*
X031570Y005077D01*
X031570Y005211D02*
X032003Y005211D01*
X032003Y004077D01*
X031570Y004077D01*
X031570Y007077D02*
X032003Y007077D01*
X032003Y008211D01*
X031570Y008211D01*
X031570Y008077D02*
X031885Y008077D01*
X031885Y007211D01*
X031570Y007211D01*
X031570Y010077D02*
X032003Y010077D01*
X032003Y011211D01*
X031570Y011211D01*
X031570Y011077D02*
X031885Y011077D01*
X031885Y010211D01*
X031570Y010211D01*
X028246Y017343D02*
X028605Y017585D01*
X027971Y018525D01*
X027612Y018283D01*
X027687Y018172D02*
X027948Y018348D01*
X028432Y017630D01*
X028171Y017454D01*
X027791Y018043D02*
X027793Y018062D01*
X027799Y018079D01*
X027808Y018095D01*
X027820Y018109D01*
X027835Y018120D01*
X027852Y018128D01*
X027871Y018132D01*
X027889Y018132D01*
X027908Y018128D01*
X027924Y018120D01*
X027940Y018109D01*
X027952Y018095D01*
X027961Y018079D01*
X027967Y018062D01*
X027969Y018043D01*
X027967Y018024D01*
X027961Y018007D01*
X027952Y017991D01*
X027940Y017977D01*
X027925Y017966D01*
X027908Y017958D01*
X027889Y017954D01*
X027871Y017954D01*
X027852Y017958D01*
X027836Y017966D01*
X027820Y017977D01*
X027808Y017991D01*
X027799Y018007D01*
X027793Y018024D01*
X027791Y018043D01*
X028314Y018756D02*
X028948Y017816D01*
X029307Y018058D01*
X029232Y018169D02*
X028971Y017993D01*
X028486Y018711D01*
X028747Y018887D01*
X028673Y018998D02*
X028314Y018756D01*
X029989Y020013D02*
X029747Y020372D01*
X029858Y020447D02*
X030034Y020186D01*
X030752Y020670D01*
X030576Y020932D01*
X030687Y021006D02*
X030929Y020647D01*
X029989Y020013D01*
X030109Y019967D02*
X030468Y020209D01*
X031102Y019269D01*
X030743Y019027D01*
X030668Y019138D02*
X030929Y019314D01*
X030445Y020032D01*
X030184Y019856D01*
X030288Y019727D02*
X030290Y019746D01*
X030296Y019763D01*
X030305Y019779D01*
X030317Y019793D01*
X030332Y019804D01*
X030349Y019812D01*
X030368Y019816D01*
X030386Y019816D01*
X030405Y019812D01*
X030421Y019804D01*
X030437Y019793D01*
X030449Y019779D01*
X030458Y019763D01*
X030464Y019746D01*
X030466Y019727D01*
X030464Y019708D01*
X030458Y019691D01*
X030449Y019675D01*
X030437Y019661D01*
X030422Y019650D01*
X030405Y019642D01*
X030386Y019638D01*
X030368Y019638D01*
X030349Y019642D01*
X030333Y019650D01*
X030317Y019661D01*
X030305Y019675D01*
X030296Y019691D01*
X030290Y019708D01*
X030288Y019727D01*
X030358Y020738D02*
X030360Y020757D01*
X030366Y020774D01*
X030375Y020790D01*
X030387Y020804D01*
X030402Y020815D01*
X030419Y020823D01*
X030438Y020827D01*
X030456Y020827D01*
X030475Y020823D01*
X030491Y020815D01*
X030507Y020804D01*
X030519Y020790D01*
X030528Y020774D01*
X030534Y020757D01*
X030536Y020738D01*
X030534Y020719D01*
X030528Y020702D01*
X030519Y020686D01*
X030507Y020672D01*
X030492Y020661D01*
X030475Y020653D01*
X030456Y020649D01*
X030438Y020649D01*
X030419Y020653D01*
X030403Y020661D01*
X030387Y020672D01*
X030375Y020686D01*
X030366Y020702D01*
X030360Y020719D01*
X030358Y020738D01*
X027406Y025632D02*
X027230Y025893D01*
X026512Y025408D01*
X026688Y025147D01*
X026577Y025072D02*
X026335Y025431D01*
X027275Y026065D01*
X027517Y025706D01*
X027044Y026408D02*
X026802Y026767D01*
X026691Y026692D02*
X026867Y026431D01*
X026149Y025947D01*
X025973Y026208D01*
X025862Y026133D02*
X026104Y025774D01*
X027044Y026408D01*
X026473Y026499D02*
X026475Y026518D01*
X026481Y026535D01*
X026490Y026551D01*
X026502Y026565D01*
X026517Y026576D01*
X026534Y026584D01*
X026553Y026588D01*
X026571Y026588D01*
X026590Y026584D01*
X026606Y026576D01*
X026622Y026565D01*
X026634Y026551D01*
X026643Y026535D01*
X026649Y026518D01*
X026651Y026499D01*
X026649Y026480D01*
X026643Y026463D01*
X026634Y026447D01*
X026622Y026433D01*
X026607Y026422D01*
X026590Y026414D01*
X026571Y026410D01*
X026553Y026410D01*
X026534Y026414D01*
X026518Y026422D01*
X026502Y026433D01*
X026490Y026447D01*
X026481Y026463D01*
X026475Y026480D01*
X026473Y026499D01*
X025722Y028128D02*
X025546Y028389D01*
X024828Y027905D01*
X025004Y027644D01*
X024893Y027569D02*
X024651Y027928D01*
X025591Y028562D01*
X025833Y028203D01*
X024846Y027450D02*
X024487Y027207D01*
X024412Y027318D02*
X024674Y027494D01*
X024189Y028213D01*
X023928Y028036D01*
X023853Y028147D02*
X024212Y028390D01*
X024846Y027450D01*
X024032Y027907D02*
X024034Y027926D01*
X024040Y027943D01*
X024049Y027959D01*
X024061Y027973D01*
X024076Y027984D01*
X024093Y027992D01*
X024112Y027996D01*
X024130Y027996D01*
X024149Y027992D01*
X024165Y027984D01*
X024181Y027973D01*
X024193Y027959D01*
X024202Y027943D01*
X024208Y027926D01*
X024210Y027907D01*
X024208Y027888D01*
X024202Y027871D01*
X024193Y027855D01*
X024181Y027841D01*
X024166Y027830D01*
X024149Y027822D01*
X024130Y027818D01*
X024112Y027818D01*
X024093Y027822D01*
X024077Y027830D01*
X024061Y027841D01*
X024049Y027855D01*
X024040Y027871D01*
X024034Y027888D01*
X024032Y027907D01*
X025467Y031077D02*
X025900Y031077D01*
X025900Y031211D02*
X025586Y031211D01*
X025586Y032077D01*
X025900Y032077D01*
X025900Y032211D02*
X025467Y032211D01*
X025467Y031077D01*
X025724Y031426D02*
X025726Y031445D01*
X025732Y031462D01*
X025741Y031478D01*
X025753Y031492D01*
X025768Y031503D01*
X025785Y031511D01*
X025804Y031515D01*
X025822Y031515D01*
X025841Y031511D01*
X025857Y031503D01*
X025873Y031492D01*
X025885Y031478D01*
X025894Y031462D01*
X025900Y031445D01*
X025902Y031426D01*
X025900Y031407D01*
X025894Y031390D01*
X025885Y031374D01*
X025873Y031360D01*
X025858Y031349D01*
X025841Y031341D01*
X025822Y031337D01*
X025804Y031337D01*
X025785Y031341D01*
X025769Y031349D01*
X025753Y031360D01*
X025741Y031374D01*
X025732Y031390D01*
X025726Y031407D01*
X025724Y031426D01*
X025900Y034077D02*
X025467Y034077D01*
X025467Y035211D01*
X025900Y035211D01*
X025900Y035077D02*
X025586Y035077D01*
X025586Y034211D01*
X025900Y034211D01*
X025724Y034426D02*
X025726Y034445D01*
X025732Y034462D01*
X025741Y034478D01*
X025753Y034492D01*
X025768Y034503D01*
X025785Y034511D01*
X025804Y034515D01*
X025822Y034515D01*
X025841Y034511D01*
X025857Y034503D01*
X025873Y034492D01*
X025885Y034478D01*
X025894Y034462D01*
X025900Y034445D01*
X025902Y034426D01*
X025900Y034407D01*
X025894Y034390D01*
X025885Y034374D01*
X025873Y034360D01*
X025858Y034349D01*
X025841Y034341D01*
X025822Y034337D01*
X025804Y034337D01*
X025785Y034341D01*
X025769Y034349D01*
X025753Y034360D01*
X025741Y034374D01*
X025732Y034390D01*
X025726Y034407D01*
X025724Y034426D01*
X025900Y037077D02*
X025467Y037077D01*
X025467Y038211D01*
X025900Y038211D01*
X025900Y038077D02*
X025586Y038077D01*
X025586Y037211D01*
X025900Y037211D01*
X025724Y037426D02*
X025726Y037445D01*
X025732Y037462D01*
X025741Y037478D01*
X025753Y037492D01*
X025768Y037503D01*
X025785Y037511D01*
X025804Y037515D01*
X025822Y037515D01*
X025841Y037511D01*
X025857Y037503D01*
X025873Y037492D01*
X025885Y037478D01*
X025894Y037462D01*
X025900Y037445D01*
X025902Y037426D01*
X025900Y037407D01*
X025894Y037390D01*
X025885Y037374D01*
X025873Y037360D01*
X025858Y037349D01*
X025841Y037341D01*
X025822Y037337D01*
X025804Y037337D01*
X025785Y037341D01*
X025769Y037349D01*
X025753Y037360D01*
X025741Y037374D01*
X025732Y037390D01*
X025726Y037407D01*
X025724Y037426D01*
X021421Y034712D02*
X020671Y034881D01*
X021074Y034617D02*
X021130Y034602D01*
X020784Y035728D02*
X020726Y035735D01*
X021053Y035884D02*
X020285Y035929D01*
X020253Y036795D02*
X020195Y036792D01*
X020494Y036992D02*
X019729Y036912D01*
X019564Y037750D02*
X019507Y037738D01*
X019770Y037985D02*
X019028Y037782D01*
X018720Y038591D02*
X018666Y038569D01*
X018884Y038855D02*
X018185Y038534D01*
X017750Y039282D02*
X017700Y039252D01*
X017869Y039570D02*
X017232Y039138D01*
X016691Y039800D02*
X016647Y039763D01*
X016762Y040104D02*
X016203Y039575D01*
X015551Y040144D02*
X015513Y040099D01*
X015571Y040455D02*
X015106Y039842D01*
X015931Y037779D02*
X015506Y037149D01*
X015771Y036970D01*
X016196Y037600D01*
X015931Y037779D01*
X014229Y035004D02*
X014231Y035043D01*
X014237Y035082D01*
X014247Y035120D01*
X014260Y035157D01*
X014277Y035192D01*
X014297Y035226D01*
X014321Y035257D01*
X014348Y035286D01*
X014377Y035312D01*
X014409Y035335D01*
X014443Y035355D01*
X014479Y035371D01*
X014516Y035383D01*
X014555Y035392D01*
X014594Y035397D01*
X014633Y035398D01*
X014672Y035395D01*
X014711Y035388D01*
X014748Y035377D01*
X014785Y035363D01*
X014820Y035345D01*
X014853Y035324D01*
X014884Y035299D01*
X014912Y035272D01*
X014937Y035242D01*
X014959Y035209D01*
X014978Y035175D01*
X014993Y035139D01*
X015005Y035101D01*
X015013Y035063D01*
X015017Y035024D01*
X015017Y034984D01*
X015013Y034945D01*
X015005Y034907D01*
X014993Y034869D01*
X014978Y034833D01*
X014959Y034799D01*
X014937Y034766D01*
X014912Y034736D01*
X014884Y034709D01*
X014853Y034684D01*
X014820Y034663D01*
X014785Y034645D01*
X014748Y034631D01*
X014711Y034620D01*
X014672Y034613D01*
X014633Y034610D01*
X014594Y034611D01*
X014555Y034616D01*
X014516Y034625D01*
X014479Y034637D01*
X014443Y034653D01*
X014409Y034673D01*
X014377Y034696D01*
X014348Y034722D01*
X014321Y034751D01*
X014297Y034782D01*
X014277Y034816D01*
X014260Y034851D01*
X014247Y034888D01*
X014237Y034926D01*
X014231Y034965D01*
X014229Y035004D01*
X013488Y033036D02*
X013490Y033082D01*
X013496Y033128D01*
X013506Y033173D01*
X013519Y033217D01*
X013536Y033260D01*
X013557Y033301D01*
X013581Y033341D01*
X013609Y033378D01*
X013639Y033412D01*
X013673Y033444D01*
X013709Y033473D01*
X013747Y033499D01*
X013787Y033522D01*
X013829Y033541D01*
X013873Y033556D01*
X013917Y033568D01*
X013963Y033576D01*
X014009Y033580D01*
X014055Y033580D01*
X014101Y033576D01*
X014147Y033568D01*
X014191Y033556D01*
X014235Y033541D01*
X014277Y033522D01*
X014317Y033499D01*
X014355Y033473D01*
X014391Y033444D01*
X014425Y033412D01*
X014455Y033378D01*
X014483Y033341D01*
X014507Y033301D01*
X014528Y033260D01*
X014545Y033217D01*
X014558Y033173D01*
X014568Y033128D01*
X014574Y033082D01*
X014576Y033036D01*
X014574Y032990D01*
X014568Y032944D01*
X014558Y032899D01*
X014545Y032855D01*
X014528Y032812D01*
X014507Y032771D01*
X014483Y032731D01*
X014455Y032694D01*
X014425Y032660D01*
X014391Y032628D01*
X014355Y032599D01*
X014317Y032573D01*
X014277Y032550D01*
X014235Y032531D01*
X014191Y032516D01*
X014147Y032504D01*
X014101Y032496D01*
X014055Y032492D01*
X014009Y032492D01*
X013963Y032496D01*
X013917Y032504D01*
X013873Y032516D01*
X013829Y032531D01*
X013787Y032550D01*
X013747Y032573D01*
X013709Y032599D01*
X013673Y032628D01*
X013639Y032660D01*
X013609Y032694D01*
X013581Y032731D01*
X013557Y032771D01*
X013536Y032812D01*
X013519Y032855D01*
X013506Y032899D01*
X013496Y032944D01*
X013490Y032990D01*
X013488Y033036D01*
X010095Y033036D02*
X010097Y033161D01*
X010103Y033286D01*
X010113Y033410D01*
X010127Y033534D01*
X010144Y033658D01*
X010166Y033781D01*
X010192Y033903D01*
X010221Y034025D01*
X010254Y034145D01*
X010292Y034264D01*
X010332Y034383D01*
X010377Y034499D01*
X010425Y034614D01*
X010477Y034728D01*
X010533Y034840D01*
X010592Y034950D01*
X010654Y035058D01*
X010720Y035165D01*
X010789Y035269D01*
X010862Y035370D01*
X010937Y035470D01*
X011016Y035567D01*
X011098Y035661D01*
X011183Y035753D01*
X011270Y035842D01*
X011361Y035928D01*
X011454Y036011D01*
X011550Y036092D01*
X011648Y036169D01*
X011748Y036243D01*
X011851Y036314D01*
X011956Y036381D01*
X012064Y036446D01*
X012173Y036506D01*
X012284Y036564D01*
X012397Y036617D01*
X012511Y036667D01*
X012627Y036714D01*
X012744Y036756D01*
X012863Y036795D01*
X012983Y036831D01*
X013104Y036862D01*
X013226Y036890D01*
X013348Y036913D01*
X013472Y036933D01*
X013596Y036949D01*
X013720Y036961D01*
X013845Y036969D01*
X013970Y036973D01*
X014094Y036973D01*
X014219Y036969D01*
X014344Y036961D01*
X014468Y036949D01*
X014592Y036933D01*
X014716Y036913D01*
X014838Y036890D01*
X014960Y036862D01*
X015081Y036831D01*
X015201Y036795D01*
X015320Y036756D01*
X015437Y036714D01*
X015553Y036667D01*
X015667Y036617D01*
X015780Y036564D01*
X015891Y036506D01*
X016001Y036446D01*
X016108Y036381D01*
X016213Y036314D01*
X016316Y036243D01*
X016416Y036169D01*
X016514Y036092D01*
X016610Y036011D01*
X016703Y035928D01*
X016794Y035842D01*
X016881Y035753D01*
X016966Y035661D01*
X017048Y035567D01*
X017127Y035470D01*
X017202Y035370D01*
X017275Y035269D01*
X017344Y035165D01*
X017410Y035058D01*
X017472Y034950D01*
X017531Y034840D01*
X017587Y034728D01*
X017639Y034614D01*
X017687Y034499D01*
X017732Y034383D01*
X017772Y034264D01*
X017810Y034145D01*
X017843Y034025D01*
X017872Y033903D01*
X017898Y033781D01*
X017920Y033658D01*
X017937Y033534D01*
X017951Y033410D01*
X017961Y033286D01*
X017967Y033161D01*
X017969Y033036D01*
X017967Y032911D01*
X017961Y032786D01*
X017951Y032662D01*
X017937Y032538D01*
X017920Y032414D01*
X017898Y032291D01*
X017872Y032169D01*
X017843Y032047D01*
X017810Y031927D01*
X017772Y031808D01*
X017732Y031689D01*
X017687Y031573D01*
X017639Y031458D01*
X017587Y031344D01*
X017531Y031232D01*
X017472Y031122D01*
X017410Y031014D01*
X017344Y030907D01*
X017275Y030803D01*
X017202Y030702D01*
X017127Y030602D01*
X017048Y030505D01*
X016966Y030411D01*
X016881Y030319D01*
X016794Y030230D01*
X016703Y030144D01*
X016610Y030061D01*
X016514Y029980D01*
X016416Y029903D01*
X016316Y029829D01*
X016213Y029758D01*
X016108Y029691D01*
X016000Y029626D01*
X015891Y029566D01*
X015780Y029508D01*
X015667Y029455D01*
X015553Y029405D01*
X015437Y029358D01*
X015320Y029316D01*
X015201Y029277D01*
X015081Y029241D01*
X014960Y029210D01*
X014838Y029182D01*
X014716Y029159D01*
X014592Y029139D01*
X014468Y029123D01*
X014344Y029111D01*
X014219Y029103D01*
X014094Y029099D01*
X013970Y029099D01*
X013845Y029103D01*
X013720Y029111D01*
X013596Y029123D01*
X013472Y029139D01*
X013348Y029159D01*
X013226Y029182D01*
X013104Y029210D01*
X012983Y029241D01*
X012863Y029277D01*
X012744Y029316D01*
X012627Y029358D01*
X012511Y029405D01*
X012397Y029455D01*
X012284Y029508D01*
X012173Y029566D01*
X012063Y029626D01*
X011956Y029691D01*
X011851Y029758D01*
X011748Y029829D01*
X011648Y029903D01*
X011550Y029980D01*
X011454Y030061D01*
X011361Y030144D01*
X011270Y030230D01*
X011183Y030319D01*
X011098Y030411D01*
X011016Y030505D01*
X010937Y030602D01*
X010862Y030702D01*
X010789Y030803D01*
X010720Y030907D01*
X010654Y031014D01*
X010592Y031122D01*
X010533Y031232D01*
X010477Y031344D01*
X010425Y031458D01*
X010377Y031573D01*
X010332Y031689D01*
X010292Y031808D01*
X010254Y031927D01*
X010221Y032047D01*
X010192Y032169D01*
X010166Y032291D01*
X010144Y032414D01*
X010127Y032538D01*
X010113Y032662D01*
X010103Y032786D01*
X010097Y032911D01*
X010095Y033036D01*
X007779Y035929D02*
X007011Y035884D01*
X007281Y035728D02*
X007339Y035735D01*
X007394Y034881D02*
X006643Y034712D01*
X006935Y034602D02*
X006991Y034617D01*
X007153Y032655D02*
X006496Y032254D01*
X006807Y032243D02*
X006855Y032276D01*
X007305Y031548D02*
X006721Y031047D01*
X007030Y031086D02*
X007072Y031126D01*
X007638Y030470D02*
X007144Y029879D01*
X007443Y029969D02*
X007478Y030015D01*
X008143Y029460D02*
X007752Y028797D01*
X008032Y028934D02*
X008059Y028985D01*
X008798Y028555D02*
X008520Y027838D01*
X008774Y028018D02*
X008792Y028073D01*
X009600Y027760D02*
X009443Y027007D01*
X009664Y027226D02*
X009673Y027284D01*
X010511Y027113D02*
X010478Y026345D01*
X010660Y026597D02*
X010660Y026655D01*
X011526Y026618D02*
X011618Y025854D01*
X011757Y026133D02*
X011747Y026190D01*
X013048Y031067D02*
X013050Y031106D01*
X013056Y031145D01*
X013066Y031183D01*
X013079Y031220D01*
X013096Y031255D01*
X013116Y031289D01*
X013140Y031320D01*
X013167Y031349D01*
X013196Y031375D01*
X013228Y031398D01*
X013262Y031418D01*
X013298Y031434D01*
X013335Y031446D01*
X013374Y031455D01*
X013413Y031460D01*
X013452Y031461D01*
X013491Y031458D01*
X013530Y031451D01*
X013567Y031440D01*
X013604Y031426D01*
X013639Y031408D01*
X013672Y031387D01*
X013703Y031362D01*
X013731Y031335D01*
X013756Y031305D01*
X013778Y031272D01*
X013797Y031238D01*
X013812Y031202D01*
X013824Y031164D01*
X013832Y031126D01*
X013836Y031087D01*
X013836Y031047D01*
X013832Y031008D01*
X013824Y030970D01*
X013812Y030932D01*
X013797Y030896D01*
X013778Y030862D01*
X013756Y030829D01*
X013731Y030799D01*
X013703Y030772D01*
X013672Y030747D01*
X013639Y030726D01*
X013604Y030708D01*
X013567Y030694D01*
X013530Y030683D01*
X013491Y030676D01*
X013452Y030673D01*
X013413Y030674D01*
X013374Y030679D01*
X013335Y030688D01*
X013298Y030700D01*
X013262Y030716D01*
X013228Y030736D01*
X013196Y030759D01*
X013167Y030785D01*
X013140Y030814D01*
X013116Y030845D01*
X013096Y030879D01*
X013079Y030914D01*
X013066Y030951D01*
X013056Y030989D01*
X013050Y031028D01*
X013048Y031067D01*
X016539Y026618D02*
X016446Y025854D01*
X016307Y026133D02*
X016317Y026190D01*
X017404Y026597D02*
X017405Y026655D01*
X017587Y026345D02*
X017553Y027113D01*
X018400Y027226D02*
X018392Y027284D01*
X018622Y027007D02*
X018464Y027760D01*
X019272Y028073D02*
X019291Y028018D01*
X019545Y027838D02*
X019266Y028555D01*
X020032Y028934D02*
X020006Y028985D01*
X020312Y028797D02*
X019922Y029460D01*
X020622Y029969D02*
X020587Y030015D01*
X020920Y029879D02*
X020427Y030470D01*
X021034Y031086D02*
X020992Y031126D01*
X021343Y031047D02*
X020760Y031548D01*
X021257Y032243D02*
X021209Y032276D01*
X021569Y032254D02*
X020912Y032655D01*
X019153Y024977D02*
X018794Y024735D01*
X019428Y023795D01*
X019787Y024037D01*
X019712Y024148D02*
X019451Y023972D01*
X018967Y024690D01*
X019228Y024866D01*
X018452Y024504D02*
X019086Y023564D01*
X018727Y023322D01*
X018652Y023433D02*
X018913Y023609D01*
X018429Y024327D01*
X018168Y024151D01*
X018093Y024262D02*
X018452Y024504D01*
X018272Y024022D02*
X018274Y024041D01*
X018280Y024058D01*
X018289Y024074D01*
X018301Y024088D01*
X018316Y024099D01*
X018333Y024107D01*
X018352Y024111D01*
X018370Y024111D01*
X018389Y024107D01*
X018405Y024099D01*
X018421Y024088D01*
X018433Y024074D01*
X018442Y024058D01*
X018448Y024041D01*
X018450Y024022D01*
X018448Y024003D01*
X018442Y023986D01*
X018433Y023970D01*
X018421Y023956D01*
X018406Y023945D01*
X018389Y023937D01*
X018370Y023933D01*
X018352Y023933D01*
X018333Y023937D01*
X018317Y023945D01*
X018301Y023956D01*
X018289Y023970D01*
X018280Y023986D01*
X018274Y024003D01*
X018272Y024022D01*
X017216Y022464D02*
X016955Y022288D01*
X016470Y023006D01*
X016731Y023182D01*
X016657Y023293D02*
X016298Y023051D01*
X016932Y022111D01*
X017291Y022353D01*
X017410Y022307D02*
X016470Y021673D01*
X016712Y021314D01*
X016823Y021388D02*
X016647Y021650D01*
X017365Y022134D01*
X017541Y021873D01*
X017652Y021948D02*
X017410Y022307D01*
X022991Y021278D02*
X023306Y021790D01*
X023582Y021514D02*
X023700Y021514D01*
X023700Y021869D01*
X023700Y021514D02*
X023818Y021514D01*
X024093Y021790D02*
X024408Y021278D01*
X024408Y021042D02*
X024093Y020530D01*
X023818Y020806D02*
X023700Y020806D01*
X023582Y020806D01*
X023700Y020806D02*
X023700Y020451D01*
X023306Y020530D02*
X022991Y021042D01*
X031570Y031077D02*
X032003Y031077D01*
X032003Y032211D01*
X031570Y032211D01*
X031570Y032077D02*
X031885Y032077D01*
X031885Y031211D01*
X031570Y031211D01*
X031570Y034077D02*
X032003Y034077D01*
X032003Y035211D01*
X031570Y035211D01*
X031570Y035077D02*
X031885Y035077D01*
X031885Y034211D01*
X031570Y034211D01*
X031570Y037077D02*
X032003Y037077D01*
X032003Y038211D01*
X031570Y038211D01*
X031570Y038077D02*
X031885Y038077D01*
X031885Y037211D01*
X031570Y037211D01*
X012958Y039842D02*
X012493Y040455D01*
X012514Y040144D02*
X012551Y040099D01*
X011861Y039575D02*
X011302Y040104D01*
X011373Y039800D02*
X011418Y039763D01*
X010833Y039138D02*
X010196Y039570D01*
X010315Y039282D02*
X010365Y039252D01*
X009879Y038534D02*
X009180Y038855D01*
X009345Y038591D02*
X009399Y038569D01*
X009037Y037782D02*
X008295Y037985D01*
X008500Y037750D02*
X008557Y037738D01*
X008336Y036912D02*
X007571Y036992D01*
X007811Y036795D02*
X007869Y036792D01*
X009033Y015013D02*
X009033Y013879D01*
X009466Y013879D01*
X009539Y013774D02*
X009539Y013340D01*
X009405Y013340D02*
X009405Y013655D01*
X008539Y013655D01*
X008539Y013340D01*
X008405Y013340D02*
X008405Y013774D01*
X009539Y013774D01*
X009466Y014013D02*
X009151Y014013D01*
X009151Y014879D01*
X009466Y014879D01*
X009466Y015013D02*
X009033Y015013D01*
X008665Y013428D02*
X008667Y013447D01*
X008673Y013464D01*
X008682Y013480D01*
X008694Y013494D01*
X008709Y013505D01*
X008726Y013513D01*
X008745Y013517D01*
X008763Y013517D01*
X008782Y013513D01*
X008798Y013505D01*
X008814Y013494D01*
X008826Y013480D01*
X008835Y013464D01*
X008841Y013447D01*
X008843Y013428D01*
X008841Y013409D01*
X008835Y013392D01*
X008826Y013376D01*
X008814Y013362D01*
X008799Y013351D01*
X008782Y013343D01*
X008763Y013339D01*
X008745Y013339D01*
X008726Y013343D01*
X008710Y013351D01*
X008694Y013362D01*
X008682Y013376D01*
X008673Y013392D01*
X008667Y013409D01*
X008665Y013428D01*
X011198Y013879D02*
X011632Y013879D01*
X011632Y015013D01*
X011198Y015013D01*
X011198Y014879D02*
X011513Y014879D01*
X011513Y014013D01*
X011198Y014013D01*
X011197Y014664D02*
X011199Y014683D01*
X011205Y014700D01*
X011214Y014716D01*
X011226Y014730D01*
X011241Y014741D01*
X011258Y014749D01*
X011277Y014753D01*
X011295Y014753D01*
X011314Y014749D01*
X011330Y014741D01*
X011346Y014730D01*
X011358Y014716D01*
X011367Y014700D01*
X011373Y014683D01*
X011375Y014664D01*
X011373Y014645D01*
X011367Y014628D01*
X011358Y014612D01*
X011346Y014598D01*
X011331Y014587D01*
X011314Y014579D01*
X011295Y014575D01*
X011277Y014575D01*
X011258Y014579D01*
X011242Y014587D01*
X011226Y014598D01*
X011214Y014612D01*
X011205Y014628D01*
X011199Y014645D01*
X011197Y014664D01*
X012045Y015013D02*
X012045Y013879D01*
X012478Y013879D01*
X012478Y014013D02*
X012163Y014013D01*
X012163Y014879D01*
X012478Y014879D01*
X012478Y015013D02*
X012045Y015013D01*
D11*
X006882Y009215D02*
X006882Y009085D01*
X007143Y009085D01*
X007143Y009215D01*
X007099Y009258D01*
X006926Y009258D01*
X006882Y009215D01*
X006882Y009379D02*
X007143Y009379D01*
X007143Y009553D01*
X007012Y009466D02*
X007012Y009379D01*
X007012Y009674D02*
X007012Y009847D01*
X006882Y009804D02*
X007143Y009804D01*
X007012Y009674D01*
X006926Y009968D02*
X007099Y010142D01*
X006926Y010142D01*
X006882Y010099D01*
X006882Y010012D01*
X006926Y009968D01*
X007099Y009968D01*
X007143Y010012D01*
X007143Y010099D01*
X007099Y010142D01*
X007143Y010263D02*
X007143Y010393D01*
X007099Y010437D01*
X007012Y010437D01*
X006969Y010393D01*
X006969Y010263D01*
X006882Y010263D02*
X007143Y010263D01*
X006969Y010350D02*
X006882Y010437D01*
X006882Y010558D02*
X006882Y010731D01*
X006926Y010852D02*
X006882Y010896D01*
X006882Y010983D01*
X006926Y011026D01*
X007099Y011026D02*
X007143Y010983D01*
X007143Y010896D01*
X007099Y010852D01*
X006926Y010852D01*
X007012Y010645D02*
X007012Y010558D01*
X006882Y010558D02*
X007143Y010558D01*
X007143Y010731D01*
X007382Y010731D02*
X007643Y010731D01*
X007599Y010852D02*
X007643Y010896D01*
X007643Y010983D01*
X007599Y011026D01*
X007426Y010852D01*
X007382Y010896D01*
X007382Y010983D01*
X007426Y011026D01*
X007599Y011026D01*
X007643Y011147D02*
X007643Y011277D01*
X007599Y011321D01*
X007556Y011321D01*
X007512Y011277D01*
X007512Y011147D01*
X007382Y011147D02*
X007382Y011277D01*
X007426Y011321D01*
X007469Y011321D01*
X007512Y011277D01*
X007382Y011147D02*
X007643Y011147D01*
X007599Y010852D02*
X007426Y010852D01*
X007382Y010731D02*
X007469Y010645D01*
X007382Y010558D01*
X007643Y010558D01*
X007339Y010437D02*
X007339Y010263D01*
X007426Y010142D02*
X007643Y010142D01*
X007643Y009968D02*
X007426Y009968D01*
X007382Y010012D01*
X007382Y010099D01*
X007426Y010142D01*
X007382Y009847D02*
X007469Y009761D01*
X007469Y009804D02*
X007469Y009674D01*
X007382Y009674D02*
X007643Y009674D01*
X007643Y009804D01*
X007599Y009847D01*
X007512Y009847D01*
X007469Y009804D01*
X007512Y009553D02*
X007512Y009379D01*
X007382Y009379D02*
X007643Y009379D01*
X007643Y009258D02*
X007643Y009085D01*
X007643Y009171D02*
X007382Y009171D01*
X007382Y008963D02*
X007556Y008963D01*
X007643Y008877D01*
X007556Y008790D01*
X007382Y008790D01*
X007512Y008790D02*
X007512Y008963D01*
X007643Y009553D02*
X007382Y009553D01*
X009942Y010436D02*
X010203Y010436D01*
X010203Y010566D01*
X010159Y010609D01*
X010072Y010609D01*
X010029Y010566D01*
X010029Y010436D01*
X010029Y010523D02*
X009942Y010609D01*
X009942Y010730D02*
X009942Y010904D01*
X009942Y010817D02*
X010203Y010817D01*
X010116Y010730D01*
X010342Y010730D02*
X010342Y010904D01*
X010342Y010817D02*
X010603Y010817D01*
X010516Y010730D01*
X010559Y010609D02*
X010472Y010609D01*
X010429Y010566D01*
X010429Y010436D01*
X010429Y010523D02*
X010342Y010609D01*
X010342Y010436D02*
X010603Y010436D01*
X010603Y010566D01*
X010559Y010609D01*
X010742Y010609D02*
X010829Y010523D01*
X010829Y010566D02*
X010829Y010436D01*
X010742Y010436D02*
X011003Y010436D01*
X011003Y010566D01*
X010959Y010609D01*
X010872Y010609D01*
X010829Y010566D01*
X010742Y010730D02*
X010742Y010904D01*
X010742Y010817D02*
X011003Y010817D01*
X010916Y010730D01*
X010925Y011016D02*
X010925Y011276D01*
X011012Y011189D01*
X011003Y011155D02*
X010872Y011025D01*
X010872Y011199D01*
X010742Y011155D02*
X011003Y011155D01*
X011012Y011016D02*
X010838Y011016D01*
X010717Y011059D02*
X010544Y011233D01*
X010544Y011059D01*
X010587Y011016D01*
X010674Y011016D01*
X010717Y011059D01*
X010717Y011233D01*
X010674Y011276D01*
X010587Y011276D01*
X010544Y011233D01*
X010603Y011199D02*
X010603Y011025D01*
X010472Y011025D01*
X010516Y011112D01*
X010516Y011155D01*
X010472Y011199D01*
X010386Y011199D01*
X010342Y011155D01*
X010342Y011068D01*
X010386Y011025D01*
X010379Y011016D02*
X010422Y011059D01*
X010249Y011233D01*
X010249Y011059D01*
X010292Y011016D01*
X010379Y011016D01*
X010422Y011059D02*
X010422Y011233D01*
X010379Y011276D01*
X010292Y011276D01*
X010249Y011233D01*
X010203Y011155D02*
X010159Y011199D01*
X010116Y011199D01*
X010072Y011155D01*
X010029Y011199D01*
X009986Y011199D01*
X009942Y011155D01*
X009942Y011068D01*
X009986Y011025D01*
X009998Y011016D02*
X010128Y011103D01*
X009998Y011189D01*
X010072Y011155D02*
X010072Y011112D01*
X010128Y011016D02*
X010128Y011276D01*
X010203Y011155D02*
X010203Y011068D01*
X010159Y011025D01*
X010140Y009002D02*
X010097Y008958D01*
X010097Y008872D01*
X010140Y008828D01*
X010140Y008707D02*
X010097Y008664D01*
X010097Y008577D01*
X010140Y008533D01*
X010227Y008533D02*
X010271Y008620D01*
X010271Y008664D01*
X010227Y008707D01*
X010140Y008707D01*
X010227Y008533D02*
X010357Y008533D01*
X010357Y008707D01*
X010314Y008828D02*
X010357Y008872D01*
X010357Y008958D01*
X010314Y009002D01*
X010271Y009002D01*
X010227Y008958D01*
X010184Y009002D01*
X010140Y009002D01*
X010227Y008958D02*
X010227Y008915D01*
X010552Y008576D02*
X010552Y007076D01*
X012552Y007076D01*
X012552Y008576D01*
X010552Y008576D01*
X010357Y008369D02*
X010314Y008412D01*
X010140Y008239D01*
X010097Y008282D01*
X010097Y008369D01*
X010140Y008412D01*
X010314Y008412D01*
X010357Y008369D02*
X010357Y008282D01*
X010314Y008239D01*
X010140Y008239D01*
X010227Y008118D02*
X010227Y007944D01*
X010357Y008074D01*
X010097Y008074D01*
X010140Y007823D02*
X010097Y007780D01*
X010097Y007693D01*
X010140Y007650D01*
X010314Y007650D01*
X010357Y007693D01*
X010357Y007780D01*
X010314Y007823D01*
X010357Y007528D02*
X010097Y007528D01*
X010227Y007528D02*
X010227Y007355D01*
X010227Y007234D02*
X010227Y007060D01*
X010357Y007190D01*
X010097Y007190D01*
X010097Y007355D02*
X010357Y007355D01*
X010357Y006939D02*
X010314Y006939D01*
X010140Y006766D01*
X010097Y006766D01*
X010357Y006766D02*
X010357Y006939D01*
X011803Y006176D02*
X011890Y006133D01*
X011977Y006046D01*
X011847Y006046D01*
X011803Y006003D01*
X011803Y005959D01*
X011847Y005916D01*
X011934Y005916D01*
X011977Y005959D01*
X011977Y006046D01*
X012098Y005916D02*
X012272Y005916D01*
X012185Y005916D02*
X012185Y006176D01*
X012272Y006089D01*
X012393Y006046D02*
X012436Y006003D01*
X012566Y006003D01*
X012480Y006003D02*
X012393Y005916D01*
X012393Y006046D02*
X012393Y006133D01*
X012436Y006176D01*
X012566Y006176D01*
X012566Y005916D01*
X011977Y005733D02*
X011977Y005559D01*
X011803Y005733D01*
X011803Y005559D01*
X011847Y005516D01*
X011934Y005516D01*
X011977Y005559D01*
X011977Y005733D02*
X011934Y005776D01*
X011847Y005776D01*
X011803Y005733D01*
X012013Y007404D02*
X012015Y007430D01*
X012021Y007456D01*
X012030Y007481D01*
X012043Y007504D01*
X012059Y007525D01*
X012078Y007543D01*
X012100Y007559D01*
X012123Y007571D01*
X012148Y007579D01*
X012174Y007584D01*
X012201Y007585D01*
X012227Y007582D01*
X012252Y007575D01*
X012277Y007565D01*
X012299Y007551D01*
X012320Y007534D01*
X012337Y007515D01*
X012352Y007493D01*
X012363Y007469D01*
X012371Y007443D01*
X012375Y007417D01*
X012375Y007391D01*
X012371Y007365D01*
X012363Y007339D01*
X012352Y007315D01*
X012337Y007293D01*
X012320Y007274D01*
X012299Y007257D01*
X012277Y007243D01*
X012252Y007233D01*
X012227Y007226D01*
X012201Y007223D01*
X012174Y007224D01*
X012148Y007229D01*
X012123Y007237D01*
X012100Y007249D01*
X012078Y007265D01*
X012059Y007283D01*
X012043Y007304D01*
X012030Y007327D01*
X012021Y007352D01*
X012015Y007378D01*
X012013Y007404D01*
X012742Y007679D02*
X012742Y007766D01*
X012786Y007809D01*
X013003Y007809D01*
X012959Y007930D02*
X013003Y007974D01*
X013003Y008061D01*
X012959Y008104D01*
X012916Y008104D01*
X012742Y007930D01*
X012742Y008104D01*
X012742Y007679D02*
X012786Y007636D01*
X013003Y007636D01*
X012882Y009336D02*
X012709Y009336D01*
X012796Y009336D02*
X012796Y009596D01*
X012882Y009509D01*
X012739Y009736D02*
X012652Y009736D01*
X012609Y009779D01*
X012739Y009736D02*
X012782Y009779D01*
X012782Y009953D01*
X012739Y009996D01*
X012652Y009996D01*
X012609Y009953D01*
X012488Y009866D02*
X012314Y009866D01*
X012358Y009996D02*
X012488Y009866D01*
X012358Y009736D02*
X012358Y009996D01*
X012458Y009596D02*
X012414Y009553D01*
X012588Y009379D01*
X012544Y009336D01*
X012458Y009336D01*
X012414Y009379D01*
X012414Y009553D01*
X012458Y009596D02*
X012544Y009596D01*
X012588Y009553D01*
X012588Y009379D01*
X012293Y009336D02*
X012293Y009509D01*
X012163Y009509D01*
X012120Y009466D01*
X012120Y009336D01*
X011338Y015379D02*
X011282Y015405D01*
X011338Y015379D02*
X011419Y015409D01*
X011445Y015465D01*
X011386Y015628D01*
X011330Y015654D01*
X011249Y015624D01*
X011223Y015568D01*
X011137Y015725D02*
X010974Y015665D01*
X011056Y015695D02*
X010967Y015939D01*
X011078Y015888D01*
X011162Y016011D02*
X011251Y015766D01*
X011325Y016070D01*
X011414Y015825D01*
X011543Y015826D02*
X011706Y015885D01*
X011803Y015825D02*
X011777Y015770D01*
X011806Y015688D01*
X011862Y015662D01*
X011984Y015707D01*
X011903Y015677D02*
X011851Y015566D01*
X011737Y015525D02*
X011648Y015769D01*
X011485Y015710D01*
X011611Y015617D02*
X011693Y015647D01*
X011737Y015525D02*
X011574Y015465D01*
X011803Y015825D02*
X011925Y015870D01*
X012014Y015625D01*
X012113Y015708D02*
X012169Y015682D01*
X012250Y015711D01*
X012276Y015767D01*
X012054Y015871D01*
X012113Y015708D01*
X012054Y015871D02*
X012080Y015926D01*
X012161Y015956D01*
X012217Y015930D01*
X012276Y015767D01*
X012360Y015890D02*
X012523Y015949D01*
X012356Y016027D01*
X012445Y015782D01*
X012593Y016113D02*
X012756Y016172D01*
X012845Y015928D01*
X012944Y016010D02*
X012884Y016173D01*
X012910Y016229D01*
X013032Y016273D01*
X013121Y016028D01*
X012999Y015984D01*
X012944Y016010D01*
X012800Y016050D02*
X012719Y016020D01*
X012717Y016300D02*
X012628Y016544D01*
X012709Y016574D02*
X012546Y016514D01*
X012432Y016473D02*
X012521Y016228D01*
X012477Y016351D02*
X012314Y016291D01*
X012215Y016209D02*
X012093Y016165D01*
X012037Y016191D01*
X012007Y016272D01*
X012033Y016328D01*
X012156Y016372D01*
X012245Y016128D01*
X012358Y016169D02*
X012269Y016414D01*
X012133Y016180D02*
X012082Y016068D01*
X011953Y016068D02*
X011927Y016012D01*
X011845Y015982D01*
X011790Y016008D01*
X011716Y016212D01*
X011879Y016271D02*
X011953Y016068D01*
X012897Y016411D02*
X012838Y016574D01*
X012864Y016630D01*
X012986Y016675D01*
X013075Y016430D01*
X012953Y016386D01*
X012897Y016411D01*
X014421Y016093D02*
X014421Y016049D01*
X014465Y016006D01*
X014595Y016006D01*
X014595Y016136D02*
X014465Y016136D01*
X014421Y016093D01*
X014465Y016006D02*
X014421Y015963D01*
X014421Y015919D01*
X014465Y015876D01*
X014595Y015876D01*
X014595Y016136D01*
X014716Y016093D02*
X014889Y015919D01*
X014846Y015876D01*
X014759Y015876D01*
X014716Y015919D01*
X014716Y016093D01*
X014759Y016136D01*
X014846Y016136D01*
X014889Y016093D01*
X014889Y015919D01*
X015011Y015876D02*
X015011Y016136D01*
X015184Y016136D02*
X015011Y015876D01*
X015005Y015736D02*
X014961Y015693D01*
X014961Y015606D01*
X015005Y015563D01*
X015135Y015563D01*
X015048Y015563D02*
X014961Y015476D01*
X014840Y015476D02*
X014667Y015476D01*
X014546Y015519D02*
X014546Y015693D01*
X014502Y015736D01*
X014416Y015736D01*
X014372Y015693D01*
X014372Y015519D02*
X014416Y015476D01*
X014502Y015476D01*
X014546Y015519D01*
X014754Y015606D02*
X014840Y015606D01*
X014840Y015736D02*
X014840Y015476D01*
X014840Y015736D02*
X014667Y015736D01*
X015005Y015736D02*
X015135Y015736D01*
X015135Y015476D01*
X015256Y015519D02*
X015300Y015476D01*
X015386Y015476D01*
X015430Y015519D01*
X015256Y015693D01*
X015256Y015519D01*
X015430Y015519D02*
X015430Y015693D01*
X015386Y015736D01*
X015300Y015736D01*
X015256Y015693D01*
X015305Y015832D02*
X015479Y015832D01*
X015600Y015876D02*
X015600Y016136D01*
X015773Y016136D02*
X015600Y015876D01*
X015594Y015736D02*
X015724Y015606D01*
X015551Y015606D01*
X015594Y015476D02*
X015594Y015736D01*
X015773Y015876D02*
X015773Y016136D01*
X015883Y016136D02*
X015970Y016136D01*
X015926Y016136D02*
X015926Y015876D01*
X015883Y015876D02*
X015970Y015876D01*
X016091Y015876D02*
X016091Y016049D01*
X016178Y016136D01*
X016264Y016049D01*
X016264Y015876D01*
X016264Y016006D02*
X016091Y016006D01*
X016019Y015736D02*
X015845Y015736D01*
X015932Y015606D02*
X016019Y015606D01*
X016019Y015476D02*
X016019Y015736D01*
X016140Y015693D02*
X016140Y015519D01*
X016183Y015476D01*
X016314Y015476D01*
X016314Y015736D01*
X016183Y015736D01*
X016140Y015693D01*
X015184Y015876D02*
X015184Y016136D01*
X017460Y019198D02*
X017412Y019270D01*
X017423Y019330D01*
X017567Y019427D01*
X017520Y019186D01*
X017460Y019198D01*
X017520Y019186D02*
X017664Y019283D01*
X017676Y019344D01*
X017627Y019416D01*
X017567Y019427D01*
X017535Y019552D02*
X017463Y019660D01*
X017402Y019671D01*
X017366Y019647D01*
X017355Y019587D01*
X017427Y019479D01*
X017320Y019406D02*
X017247Y019514D01*
X017258Y019574D01*
X017294Y019599D01*
X017355Y019587D01*
X017535Y019552D02*
X017320Y019406D01*
X017552Y019062D02*
X017768Y019207D01*
X017865Y019063D02*
X017649Y018918D01*
X017672Y019038D01*
X017552Y019062D01*
X017681Y018793D02*
X017778Y018649D01*
X017882Y018573D02*
X018097Y018719D01*
X017989Y018646D02*
X018086Y018502D01*
X017979Y018429D02*
X018194Y018575D01*
X018226Y018450D02*
X018286Y018438D01*
X018335Y018366D01*
X018323Y018306D01*
X018179Y018209D01*
X018119Y018221D01*
X018071Y018293D01*
X018082Y018353D01*
X018211Y018085D02*
X018308Y017941D01*
X018524Y018086D01*
X018427Y018230D01*
X018367Y018085D02*
X018416Y018013D01*
X018376Y017840D02*
X018592Y017986D01*
X018568Y017865D01*
X018689Y017842D01*
X018473Y017696D01*
X021305Y017117D02*
X021293Y017057D01*
X021366Y016949D01*
X021581Y017094D01*
X021509Y017202D01*
X021448Y017214D01*
X021412Y017190D01*
X021401Y017129D01*
X021473Y017021D01*
X021401Y017129D02*
X021340Y017141D01*
X021305Y017117D01*
X021433Y016848D02*
X021530Y016704D01*
X021482Y016776D02*
X021698Y016922D01*
X021674Y016801D01*
X021814Y016750D02*
X021598Y016604D01*
X021719Y016581D01*
X021695Y016460D01*
X021911Y016606D01*
X021727Y016335D02*
X021824Y016192D01*
X021928Y016115D02*
X022143Y016261D01*
X022035Y016188D02*
X022132Y016044D01*
X022025Y015972D02*
X022240Y016117D01*
X022272Y015992D02*
X022332Y015981D01*
X022381Y015909D01*
X022369Y015849D01*
X022225Y015752D01*
X022165Y015763D01*
X022117Y015835D01*
X022128Y015895D01*
X022257Y015627D02*
X022354Y015483D01*
X022570Y015629D01*
X022473Y015772D01*
X022414Y015628D02*
X022462Y015556D01*
X022422Y015383D02*
X022638Y015528D01*
X022614Y015408D01*
X022735Y015384D01*
X022519Y015239D01*
X025300Y014697D02*
X025324Y014661D01*
X025385Y014649D01*
X025492Y014722D01*
X025420Y014830D02*
X025565Y014614D01*
X025457Y014541D01*
X025397Y014553D01*
X025373Y014589D01*
X025385Y014649D01*
X025300Y014697D02*
X025312Y014757D01*
X025420Y014830D01*
X025544Y014862D02*
X025785Y014815D01*
X025773Y014755D01*
X025702Y014706D01*
X025641Y014718D01*
X025544Y014862D01*
X025556Y014922D01*
X025628Y014970D01*
X025688Y014959D01*
X025785Y014815D01*
X025886Y014882D02*
X025946Y014871D01*
X026018Y014919D01*
X026029Y014980D01*
X025945Y015027D02*
X025873Y014979D01*
X025861Y014918D01*
X025886Y014882D01*
X025945Y015027D02*
X025957Y015087D01*
X025932Y015123D01*
X025872Y015135D01*
X025800Y015087D01*
X025789Y015026D01*
X026178Y014975D02*
X026322Y015072D01*
X026398Y015176D02*
X026253Y015392D01*
X026326Y015284D02*
X026469Y015381D01*
X026397Y015489D02*
X026542Y015273D01*
X026618Y015377D02*
X026679Y015365D01*
X026751Y015414D01*
X026762Y015474D01*
X026665Y015618D01*
X026605Y015629D01*
X026533Y015581D01*
X026521Y015521D01*
X026741Y015721D02*
X026885Y015818D01*
X027031Y015603D01*
X026887Y015506D01*
X026886Y015662D02*
X026958Y015710D01*
X027131Y015670D02*
X026986Y015886D01*
X027106Y015863D01*
X027130Y015983D01*
X027275Y015767D01*
X027881Y018781D02*
X027988Y018854D01*
X027843Y019070D01*
X027735Y018997D01*
X027723Y018937D01*
X027748Y018901D01*
X027808Y018889D01*
X027916Y018962D01*
X027808Y018889D02*
X027796Y018829D01*
X027820Y018793D01*
X027881Y018781D01*
X028089Y018922D02*
X028233Y019019D01*
X028161Y018970D02*
X028015Y019186D01*
X028136Y019163D01*
X028212Y019266D02*
X028224Y019327D01*
X028296Y019375D01*
X028356Y019363D01*
X028380Y019327D01*
X028368Y019267D01*
X028296Y019219D01*
X028285Y019158D01*
X028309Y019122D01*
X028369Y019111D01*
X028441Y019159D01*
X028453Y019219D01*
X028602Y019215D02*
X028746Y019312D01*
X028822Y019416D02*
X028676Y019632D01*
X028749Y019524D02*
X028893Y019621D01*
X028966Y019513D02*
X028820Y019729D01*
X028945Y019761D02*
X028956Y019821D01*
X029028Y019869D01*
X029089Y019858D01*
X029186Y019714D01*
X029174Y019654D01*
X029102Y019605D01*
X029042Y019617D01*
X029310Y019746D02*
X029454Y019843D01*
X029309Y020058D01*
X029165Y019961D01*
X029309Y019902D02*
X029381Y019950D01*
X029409Y020126D02*
X029555Y019910D01*
X029698Y020007D02*
X029553Y020223D01*
X029529Y020103D01*
X029409Y020126D01*
X030045Y022607D02*
X030261Y022753D01*
X030141Y022776D01*
X030164Y022897D01*
X029948Y022751D01*
X029881Y022851D02*
X029784Y022995D01*
X029752Y023120D02*
X029691Y023132D01*
X029643Y023204D01*
X029655Y023264D01*
X029551Y023340D02*
X029767Y023486D01*
X029799Y023361D02*
X029859Y023349D01*
X029907Y023277D01*
X029896Y023217D01*
X029752Y023120D01*
X029940Y022996D02*
X029988Y022924D01*
X029881Y022851D02*
X030096Y022997D01*
X029999Y023141D01*
X029659Y023413D02*
X029562Y023557D01*
X029670Y023629D02*
X029454Y023484D01*
X029350Y023560D02*
X029253Y023704D01*
X029221Y023829D02*
X029124Y023972D01*
X029093Y024097D02*
X029139Y024338D01*
X028996Y024241D01*
X028984Y024181D01*
X029032Y024109D01*
X029093Y024097D01*
X029236Y024194D01*
X029248Y024254D01*
X029200Y024326D01*
X029139Y024338D01*
X029108Y024463D02*
X029035Y024571D01*
X028975Y024582D01*
X028939Y024558D01*
X028927Y024498D01*
X029000Y024390D01*
X028892Y024317D02*
X029108Y024463D01*
X028927Y024498D02*
X028867Y024509D01*
X028831Y024485D01*
X028819Y024425D01*
X028892Y024317D01*
X029281Y023973D02*
X029329Y023901D01*
X029221Y023829D02*
X029437Y023974D01*
X029340Y024118D01*
X025927Y025494D02*
X025854Y025602D01*
X025794Y025614D01*
X025650Y025517D01*
X025639Y025457D01*
X025711Y025349D01*
X025927Y025494D01*
X025762Y025739D02*
X025714Y025810D01*
X025738Y025775D02*
X025522Y025629D01*
X025546Y025593D02*
X025498Y025665D01*
X025473Y025780D02*
X025412Y025792D01*
X025364Y025864D01*
X025376Y025924D01*
X025519Y026021D01*
X025580Y026009D01*
X025628Y025937D01*
X025616Y025877D01*
X025473Y025780D01*
X025236Y025976D02*
X025139Y026120D01*
X025107Y026244D02*
X025010Y026388D01*
X024942Y026489D02*
X024845Y026633D01*
X024894Y026561D02*
X025110Y026706D01*
X025086Y026586D01*
X025226Y026534D02*
X025323Y026390D01*
X025107Y026244D01*
X025215Y026317D02*
X025166Y026389D01*
X024885Y026806D02*
X024813Y026914D01*
X024752Y026925D01*
X024717Y026901D01*
X024705Y026841D01*
X024778Y026733D01*
X024993Y026879D01*
X024921Y026986D01*
X024860Y026998D01*
X024824Y026974D01*
X024813Y026914D01*
X022107Y027721D02*
X021962Y027937D01*
X021938Y027816D01*
X021818Y027840D01*
X021963Y027624D01*
X021863Y027556D02*
X021717Y027772D01*
X021573Y027675D01*
X021497Y027571D02*
X021594Y027428D01*
X021583Y027367D01*
X021511Y027319D01*
X021450Y027331D01*
X021374Y027227D02*
X021229Y027443D01*
X021353Y027474D02*
X021365Y027535D01*
X021437Y027583D01*
X021497Y027571D01*
X021718Y027616D02*
X021790Y027664D01*
X021863Y027556D02*
X021719Y027459D01*
X021302Y027335D02*
X021158Y027238D01*
X021230Y027130D02*
X021085Y027346D01*
X021154Y027026D02*
X021010Y026929D01*
X020886Y026897D02*
X020740Y027113D01*
X020742Y026800D01*
X020596Y027016D01*
X020520Y026912D02*
X020617Y026768D01*
X020376Y026815D01*
X020473Y026671D01*
X020534Y026660D01*
X020605Y026708D01*
X020617Y026768D01*
X020520Y026912D02*
X020460Y026924D01*
X020388Y026875D01*
X020376Y026815D01*
X020252Y026783D02*
X020144Y026711D01*
X020132Y026651D01*
X020156Y026615D01*
X020217Y026603D01*
X020324Y026676D01*
X020252Y026783D02*
X020397Y026568D01*
X020289Y026495D01*
X020229Y026507D01*
X020205Y026543D01*
X020217Y026603D01*
X018578Y028023D02*
X018691Y028154D01*
X018635Y028089D02*
X018438Y028259D01*
X018447Y028137D01*
X018640Y028359D02*
X018701Y028364D01*
X018786Y028462D01*
X018851Y028405D02*
X018720Y028519D01*
X018659Y028514D01*
X018602Y028449D01*
X018607Y028388D01*
X018640Y028359D01*
X018738Y028274D02*
X018799Y028278D01*
X018856Y028344D01*
X018851Y028405D01*
X019143Y028937D02*
X019129Y028997D01*
X019175Y029071D01*
X019234Y029085D01*
X019271Y029062D01*
X019328Y028823D01*
X019419Y028971D01*
X019446Y029097D02*
X019389Y029336D01*
X019536Y029245D01*
X019551Y029185D01*
X019505Y029111D01*
X019446Y029097D01*
X019298Y029188D01*
X019284Y029248D01*
X019329Y029322D01*
X019389Y029336D01*
X019744Y029827D02*
X019720Y029883D01*
X019753Y029964D01*
X019810Y029987D01*
X019850Y029971D01*
X019945Y029745D01*
X020011Y029906D01*
X020056Y030018D02*
X020122Y030178D01*
X020089Y030098D02*
X019848Y030196D01*
X019896Y030083D01*
X020192Y030803D02*
X020159Y030855D01*
X020178Y030939D01*
X020230Y030972D01*
X020272Y030962D01*
X020403Y030755D01*
X020442Y030924D01*
X020468Y031042D02*
X020338Y031250D01*
X020295Y031259D01*
X020243Y031227D01*
X020224Y031142D01*
X020257Y031090D01*
X020468Y031042D02*
X020507Y031211D01*
X020472Y031828D02*
X020431Y031874D01*
X020436Y031960D01*
X020482Y032001D01*
X020525Y031998D01*
X020688Y031814D01*
X020699Y031988D01*
X020663Y032111D02*
X020709Y032152D01*
X020714Y032238D01*
X020673Y032284D01*
X020630Y032287D01*
X020584Y032246D01*
X020581Y032203D01*
X020584Y032246D02*
X020543Y032292D01*
X020500Y032295D01*
X020454Y032254D01*
X020449Y032168D01*
X020489Y032122D01*
X020519Y033956D02*
X020466Y033986D01*
X020443Y034070D01*
X020473Y034123D01*
X020515Y034135D01*
X020728Y034013D01*
X020683Y034180D01*
X020525Y034263D02*
X020480Y034430D01*
X020366Y034354D02*
X020525Y034263D01*
X020366Y034354D02*
X020617Y034423D01*
X020285Y034992D02*
X020228Y035014D01*
X020192Y035092D01*
X020213Y035150D01*
X020253Y035168D01*
X020482Y035082D01*
X020410Y035240D01*
X020321Y035332D02*
X020342Y035390D01*
X020306Y035468D01*
X020249Y035490D01*
X020170Y035454D01*
X020148Y035397D01*
X020166Y035357D01*
X020242Y035296D01*
X020123Y035242D01*
X020051Y035400D01*
X019882Y035987D02*
X019821Y035999D01*
X019773Y036071D01*
X019785Y036131D01*
X019821Y036155D01*
X020062Y036108D01*
X019965Y036252D01*
X019861Y036328D02*
X019873Y036389D01*
X019825Y036461D01*
X019764Y036472D01*
X019728Y036448D01*
X019717Y036388D01*
X019789Y036280D01*
X019861Y036328D01*
X019789Y036280D02*
X019669Y036304D01*
X019584Y036351D01*
X019328Y036893D02*
X019266Y036895D01*
X019207Y036959D01*
X019209Y037020D01*
X019241Y037050D01*
X019486Y037042D01*
X019367Y037168D01*
X019284Y037257D02*
X019253Y037227D01*
X019007Y037235D01*
X018976Y037205D01*
X019094Y037079D01*
X018627Y037707D02*
X018566Y037698D01*
X018497Y037751D01*
X018489Y037812D01*
X018515Y037846D01*
X018758Y037879D01*
X018620Y037984D01*
X018498Y038023D02*
X018472Y037989D01*
X018411Y037981D01*
X018342Y038033D01*
X018334Y038094D01*
X018360Y038129D01*
X018421Y038137D01*
X018490Y038084D01*
X018498Y038023D01*
X018411Y037981D02*
X018419Y037920D01*
X018393Y037886D01*
X018332Y037877D01*
X018263Y037930D01*
X018255Y037991D01*
X018281Y038025D01*
X018342Y038033D01*
X017802Y038394D02*
X017743Y038376D01*
X017667Y038417D01*
X017649Y038476D01*
X017669Y038514D01*
X017904Y038586D01*
X017751Y038667D01*
X017623Y038686D02*
X017605Y038744D01*
X017529Y038785D01*
X017470Y038767D01*
X017389Y038614D01*
X017407Y038555D01*
X017483Y038515D01*
X017542Y038533D01*
X017562Y038571D01*
X017544Y038629D01*
X017429Y038691D01*
X016887Y038933D02*
X016832Y038906D01*
X016749Y038934D01*
X016722Y038989D01*
X016736Y039030D01*
X016791Y039057D01*
X016764Y039112D01*
X016778Y039153D01*
X016833Y039180D01*
X016915Y039152D01*
X016942Y039097D01*
X016832Y039043D02*
X016791Y039057D01*
X016663Y039192D02*
X016443Y039083D01*
X016499Y039247D01*
X016554Y039275D01*
X016636Y039247D01*
X016663Y039192D01*
X016607Y039027D01*
X016552Y039000D01*
X016470Y039028D01*
X016443Y039083D01*
X015885Y039320D02*
X015835Y039284D01*
X015750Y039298D01*
X015714Y039348D01*
X015721Y039391D01*
X015771Y039427D01*
X015735Y039476D01*
X015742Y039519D01*
X015792Y039555D01*
X015877Y039541D01*
X015913Y039491D01*
X015813Y039420D02*
X015771Y039427D01*
X015601Y039410D02*
X015502Y039339D01*
X015544Y039596D01*
X015629Y039582D02*
X015458Y039610D01*
X013818Y035661D02*
X013065Y035930D01*
X011447Y031411D01*
X012200Y031141D01*
X013818Y035661D01*
X013456Y035452D02*
X013398Y035289D01*
X013427Y035370D02*
X013182Y035458D01*
X013293Y035510D01*
X013153Y035248D02*
X013097Y035221D01*
X013068Y035140D01*
X013094Y035084D01*
X013135Y035070D01*
X013357Y035174D01*
X013299Y035011D01*
X013217Y034912D02*
X013176Y034926D01*
X013121Y034900D01*
X013091Y034818D01*
X013118Y034763D01*
X013158Y034748D01*
X013214Y034775D01*
X013243Y034856D01*
X013217Y034912D01*
X013121Y034900D02*
X013094Y034955D01*
X013054Y034970D01*
X012998Y034944D01*
X012969Y034862D01*
X012995Y034807D01*
X013036Y034792D01*
X013091Y034818D01*
X013018Y034357D02*
X012855Y034415D01*
X012800Y034389D01*
X012770Y034307D01*
X012796Y034252D01*
X012715Y034153D02*
X012960Y034065D01*
X012960Y034193D02*
X013015Y034220D01*
X013044Y034301D01*
X013018Y034357D01*
X012837Y034109D02*
X012782Y034082D01*
X012753Y034001D01*
X012779Y033945D01*
X012901Y033901D01*
X012820Y033802D02*
X012764Y033776D01*
X012720Y033653D01*
X012679Y033668D02*
X012802Y033624D01*
X012846Y033747D01*
X012820Y033802D01*
X012683Y033805D02*
X012653Y033723D01*
X012679Y033668D01*
X012598Y033568D02*
X012554Y033446D01*
X012580Y033391D01*
X012703Y033347D01*
X012662Y033233D02*
X012498Y033291D01*
X012455Y033169D01*
X012481Y033113D01*
X012603Y033069D01*
X012522Y032970D02*
X012548Y032914D01*
X012519Y032833D01*
X012422Y032821D02*
X012481Y032984D01*
X012522Y032970D02*
X012440Y032999D01*
X012385Y032973D01*
X012355Y032891D01*
X012382Y032836D01*
X012422Y032821D01*
X012463Y032678D02*
X012434Y032596D01*
X012449Y032637D02*
X012204Y032725D01*
X012218Y032765D01*
X012053Y032303D02*
X012298Y032215D01*
X012239Y032052D01*
X012198Y031938D02*
X012169Y031856D01*
X012184Y031897D02*
X011939Y031985D01*
X011953Y032026D02*
X011924Y031944D01*
X011887Y031841D02*
X011843Y031718D01*
X011869Y031663D01*
X011910Y031648D01*
X011966Y031674D01*
X012010Y031797D01*
X012132Y031753D02*
X012088Y031631D01*
X012033Y031604D01*
X011992Y031619D01*
X011966Y031674D01*
X012132Y031753D02*
X011887Y031841D01*
X011994Y032140D02*
X012053Y032303D01*
X012175Y032259D02*
X012146Y032178D01*
X012598Y033568D02*
X012761Y033510D01*
X014959Y031860D02*
X014930Y031778D01*
X014956Y031723D01*
X015178Y031828D01*
X015204Y031772D01*
X015175Y031690D01*
X015119Y031664D01*
X014956Y031723D01*
X014959Y031860D02*
X015014Y031886D01*
X015178Y031828D01*
X015213Y031925D02*
X015253Y031911D01*
X015268Y031952D01*
X015227Y031966D01*
X015213Y031925D01*
X015309Y032066D02*
X015367Y032229D01*
X015338Y032147D02*
X015093Y032235D01*
X015204Y032288D01*
X015461Y032619D02*
X015502Y032604D01*
X015516Y032645D01*
X015476Y032660D01*
X015461Y032619D01*
X015394Y032818D02*
X015586Y032841D01*
X015452Y032981D01*
X015534Y033081D02*
X015575Y033066D01*
X015633Y033229D01*
X015593Y033244D02*
X015537Y033218D01*
X015508Y033136D01*
X015534Y033081D01*
X015671Y033077D02*
X015700Y033159D01*
X015674Y033215D01*
X015593Y033244D01*
X015633Y033358D02*
X015689Y033384D01*
X015733Y033507D01*
X015814Y033477D02*
X015569Y033565D01*
X015526Y033443D01*
X015552Y033387D01*
X015633Y033358D01*
X015703Y033425D02*
X015756Y033314D01*
X015938Y033171D02*
X015979Y033156D01*
X016090Y033208D01*
X016212Y033165D01*
X016090Y033208D02*
X016037Y033319D01*
X015996Y033334D01*
X016078Y033433D02*
X016119Y033419D01*
X016174Y033445D01*
X016218Y033567D01*
X016174Y033445D02*
X016201Y033390D01*
X016241Y033375D01*
X016297Y033401D01*
X016341Y033524D01*
X016096Y033611D01*
X016052Y033489D01*
X016078Y033433D01*
X016020Y033013D02*
X015961Y032849D01*
X015879Y032750D02*
X015906Y032694D01*
X015876Y032613D01*
X015903Y032557D01*
X015943Y032543D01*
X015999Y032569D01*
X016028Y032651D01*
X016002Y032706D01*
X015879Y032750D02*
X015839Y032765D01*
X015783Y032738D01*
X015754Y032657D01*
X015780Y032601D01*
X015780Y032472D02*
X015669Y032420D01*
X015722Y032309D01*
X015885Y032251D01*
X015762Y032295D02*
X015821Y032458D01*
X015780Y032472D02*
X015943Y032414D01*
X016166Y032385D02*
X016411Y032297D01*
X016371Y032183D02*
X016260Y032130D01*
X016312Y032020D01*
X016067Y032107D01*
X016026Y031993D02*
X016271Y031905D01*
X016213Y031742D01*
X016131Y031643D02*
X015968Y031701D01*
X015912Y031675D01*
X015883Y031593D01*
X015909Y031538D01*
X015991Y031509D01*
X016046Y031535D01*
X015965Y031564D01*
X015994Y031646D01*
X016076Y031616D01*
X016046Y031535D01*
X016073Y031479D02*
X016128Y031506D01*
X016157Y031587D01*
X016131Y031643D01*
X016385Y031570D02*
X016411Y031515D01*
X016633Y031620D01*
X016659Y031564D01*
X016630Y031482D01*
X016574Y031456D01*
X016411Y031515D01*
X016385Y031570D02*
X016414Y031652D01*
X016469Y031678D01*
X016633Y031620D01*
X016592Y031763D02*
X016650Y031926D01*
X016691Y032040D02*
X016773Y032011D01*
X016828Y032037D01*
X016857Y032119D01*
X016831Y032174D01*
X016750Y032204D02*
X016680Y032137D01*
X016665Y032096D01*
X016691Y032040D01*
X016569Y032084D02*
X016627Y032247D01*
X016750Y032204D01*
X016913Y032274D02*
X016971Y032437D01*
X016942Y032355D02*
X016697Y032443D01*
X016808Y032496D01*
X016808Y032624D02*
X017030Y032729D01*
X017056Y032674D01*
X017027Y032592D01*
X016971Y032566D01*
X016808Y032624D01*
X016782Y032680D01*
X016811Y032761D01*
X016867Y032788D01*
X017030Y032729D01*
X017112Y032829D02*
X017170Y032992D01*
X016948Y032887D01*
X016907Y032902D01*
X016881Y032957D01*
X016910Y033039D01*
X016966Y033065D01*
X016735Y033200D02*
X016490Y033288D01*
X016676Y033037D01*
X016431Y033124D01*
X016580Y032896D02*
X016621Y032882D01*
X016606Y032841D01*
X016565Y032856D01*
X016580Y032896D01*
X016606Y032841D02*
X016717Y032893D01*
X016653Y033358D02*
X016709Y033384D01*
X016752Y033507D01*
X016834Y033477D02*
X016589Y033565D01*
X016545Y033443D01*
X016571Y033387D01*
X016653Y033358D01*
X016630Y033679D02*
X016659Y033761D01*
X016645Y033720D02*
X016849Y033647D01*
X016904Y033673D01*
X016919Y033714D01*
X016893Y033769D01*
X016496Y033956D02*
X016440Y033930D01*
X016496Y033956D02*
X016525Y034038D01*
X016499Y034093D01*
X016335Y034152D01*
X016280Y034125D01*
X016251Y034044D01*
X016277Y033988D01*
X016376Y034266D02*
X016350Y034321D01*
X016379Y034403D01*
X016435Y034429D01*
X016598Y034370D01*
X016624Y034315D01*
X016595Y034233D01*
X016539Y034207D01*
X015900Y034932D02*
X014282Y030413D01*
X016165Y029739D01*
X017783Y034258D01*
X015900Y034932D01*
X016225Y032548D02*
X016277Y032437D01*
X016166Y032385D01*
X016126Y032271D02*
X016371Y032183D01*
X016470Y032460D02*
X016225Y032548D01*
X015722Y032180D02*
X015663Y032017D01*
X015500Y031947D02*
X015686Y031696D01*
X015441Y031784D01*
X015441Y031655D02*
X015605Y031596D01*
X015631Y031541D01*
X015602Y031459D01*
X015546Y031433D01*
X015424Y031348D02*
X015365Y031185D01*
X015324Y031071D02*
X015266Y030908D01*
X015158Y030992D02*
X015324Y031071D01*
X015158Y030992D02*
X015403Y030904D01*
X015348Y030750D02*
X015333Y030709D01*
X015292Y030723D01*
X015307Y030764D01*
X015348Y030750D01*
X015257Y030625D02*
X015035Y030521D01*
X015199Y030462D01*
X015254Y030488D01*
X015283Y030570D01*
X015257Y030625D01*
X015094Y030684D01*
X015038Y030658D01*
X015009Y030576D01*
X015035Y030521D01*
X015604Y030813D02*
X015662Y030976D01*
X015633Y030894D02*
X015878Y030807D01*
X015944Y030992D02*
X015973Y031073D01*
X015959Y031032D02*
X015714Y031120D01*
X015728Y031161D02*
X015699Y031079D01*
X015769Y031275D02*
X016014Y031187D01*
X016073Y031351D02*
X015828Y031438D01*
X015880Y031327D01*
X015769Y031275D01*
X015383Y031492D02*
X015357Y031547D01*
X015386Y031629D01*
X015441Y031655D01*
X015500Y031947D02*
X015745Y031859D01*
X016315Y031374D02*
X016370Y031401D01*
X016315Y031374D02*
X016285Y031293D01*
X016311Y031237D01*
X016352Y031223D01*
X016574Y031328D01*
X016516Y031164D01*
X017859Y027819D02*
X017920Y027814D01*
X017947Y027780D01*
X017942Y027719D01*
X017875Y027664D01*
X017814Y027670D01*
X017786Y027703D01*
X017792Y027764D01*
X017859Y027819D01*
X017942Y027719D02*
X018003Y027714D01*
X018030Y027680D01*
X018025Y027619D01*
X017958Y027564D01*
X017897Y027569D01*
X017869Y027603D01*
X017875Y027664D01*
X017831Y027459D02*
X017698Y027348D01*
X017765Y027403D02*
X017599Y027604D01*
X017587Y027481D01*
X017025Y027254D02*
X016963Y027017D01*
X016985Y026979D01*
X016880Y026918D02*
X016731Y026830D01*
X016805Y026874D02*
X016674Y027099D01*
X016643Y026980D01*
X016853Y027204D02*
X017003Y027292D01*
X017025Y027254D01*
X016087Y026722D02*
X016031Y026747D01*
X015909Y026700D01*
X015940Y026619D01*
X015996Y026594D01*
X016077Y026625D01*
X016102Y026681D01*
X016087Y026722D01*
X015959Y026812D02*
X016025Y026884D01*
X015959Y026812D02*
X015909Y026700D01*
X015843Y026535D02*
X015681Y026473D01*
X015762Y026504D02*
X015669Y026747D01*
X015619Y026635D01*
X018296Y022690D02*
X018297Y022377D01*
X018152Y022593D01*
X018100Y022453D02*
X017979Y022477D01*
X018125Y022261D01*
X018197Y022309D02*
X018053Y022212D01*
X017953Y022145D02*
X017845Y022072D01*
X017785Y022084D01*
X017760Y022120D01*
X017772Y022180D01*
X017880Y022252D01*
X017953Y022145D02*
X017807Y022360D01*
X017699Y022288D01*
X017688Y022227D01*
X017712Y022191D01*
X017772Y022180D01*
X018441Y022474D02*
X018296Y022690D01*
X018566Y022506D02*
X018710Y022603D01*
X018786Y022707D02*
X018640Y022922D01*
X018713Y022815D02*
X018857Y022912D01*
X018784Y023019D02*
X018930Y022804D01*
X019006Y022907D02*
X019066Y022896D01*
X019138Y022944D01*
X019150Y023004D01*
X019053Y023148D01*
X018993Y023160D01*
X018921Y023111D01*
X018909Y023051D01*
X019129Y023252D02*
X019273Y023349D01*
X019418Y023133D01*
X019274Y023036D01*
X019274Y023193D02*
X019346Y023241D01*
X019519Y023201D02*
X019373Y023417D01*
X019494Y023393D01*
X019517Y023514D01*
X019663Y023298D01*
X022138Y021941D02*
X022213Y021898D01*
X022176Y021920D02*
X022306Y022145D01*
X022343Y022123D02*
X022268Y022167D01*
X022427Y022025D02*
X022486Y022041D01*
X022561Y021998D01*
X022577Y021939D01*
X022555Y021901D01*
X022496Y021885D01*
X022421Y021928D01*
X022362Y021913D01*
X022340Y021875D01*
X022356Y021816D01*
X022431Y021772D01*
X022490Y021788D01*
X022595Y021728D02*
X022682Y021878D01*
X022741Y021894D01*
X022816Y021850D01*
X022832Y021791D01*
X022745Y021641D01*
X022686Y021625D01*
X022611Y021668D01*
X022595Y021728D01*
X022829Y021543D02*
X022959Y021768D01*
X022990Y021650D01*
X023109Y021681D01*
X022979Y021456D01*
X022825Y021198D02*
X022766Y021214D01*
X022825Y021198D02*
X022869Y021123D01*
X022853Y021064D01*
X022815Y021042D01*
X022756Y021058D01*
X022713Y021133D01*
X022653Y021149D01*
X022616Y021127D01*
X022600Y021068D01*
X022643Y020993D01*
X022702Y020977D01*
X022763Y020872D02*
X022913Y020959D01*
X022973Y020943D01*
X023016Y020868D01*
X023000Y020809D01*
X023098Y020725D02*
X022873Y020595D01*
X022850Y020722D02*
X022791Y020738D01*
X022747Y020813D01*
X022763Y020872D01*
X023098Y020725D02*
X023185Y020575D01*
X023246Y020470D02*
X023020Y020340D01*
X023155Y020368D02*
X023332Y020320D01*
X023170Y020427D02*
X023107Y020190D01*
X023569Y020173D02*
X023569Y020260D01*
X023613Y020303D01*
X023786Y020303D01*
X023830Y020260D01*
X023830Y020173D01*
X023786Y020130D01*
X023786Y020009D02*
X023830Y019965D01*
X023830Y019878D01*
X023786Y019835D01*
X023743Y019835D01*
X023700Y019878D01*
X023700Y019965D01*
X023656Y020009D01*
X023613Y020009D01*
X023569Y019965D01*
X023569Y019878D01*
X023613Y019835D01*
X023613Y020130D02*
X023569Y020173D01*
X024212Y020560D02*
X024342Y020785D01*
X024298Y020710D02*
X024411Y020645D01*
X024427Y020586D01*
X024384Y020511D01*
X024324Y020495D01*
X024212Y020560D01*
X024489Y020450D02*
X024575Y020600D01*
X024635Y020616D01*
X024710Y020573D01*
X024726Y020514D01*
X024639Y020363D01*
X024580Y020347D01*
X024504Y020391D01*
X024489Y020450D01*
X024722Y020265D02*
X024852Y020490D01*
X024884Y020372D01*
X025002Y020404D01*
X024872Y020178D01*
X024977Y020118D02*
X025107Y020343D01*
X025258Y020256D01*
X025363Y020196D02*
X025232Y019970D01*
X025345Y019905D01*
X025404Y019921D01*
X025448Y019996D01*
X025432Y020056D01*
X025319Y020121D01*
X025394Y020077D02*
X025513Y020109D01*
X025128Y020031D02*
X024977Y020118D01*
X025042Y020230D02*
X025117Y020187D01*
X024684Y020960D02*
X024910Y021090D01*
X024791Y021122D01*
X024823Y021240D01*
X024598Y021110D01*
X024537Y021215D02*
X024494Y021290D01*
X024515Y021253D02*
X024741Y021383D01*
X024762Y021345D02*
X024719Y021420D01*
X024627Y021494D02*
X024589Y021472D01*
X024530Y021488D01*
X024486Y021563D01*
X024427Y021579D01*
X024390Y021557D01*
X024374Y021498D01*
X024417Y021423D01*
X024476Y021407D01*
X024627Y021494D02*
X024642Y021553D01*
X024599Y021628D01*
X024540Y021644D01*
X024479Y021749D02*
X024329Y021662D01*
X024270Y021678D01*
X024226Y021753D01*
X024242Y021812D01*
X024393Y021899D01*
X024452Y021883D01*
X024495Y021808D01*
X024479Y021749D01*
X024332Y022004D02*
X024348Y022063D01*
X024304Y022138D01*
X024245Y022154D01*
X024208Y022133D01*
X024144Y021896D01*
X024057Y022046D01*
X023812Y022020D02*
X023701Y022072D01*
X023752Y022183D01*
X023508Y022094D01*
X023467Y022208D02*
X023437Y022290D01*
X023452Y022249D02*
X023696Y022338D01*
X023711Y022297D02*
X023681Y022379D01*
X023603Y022467D02*
X023562Y022452D01*
X023507Y022478D01*
X023477Y022559D01*
X023421Y022585D01*
X023381Y022570D01*
X023355Y022515D01*
X023384Y022433D01*
X023440Y022407D01*
X023603Y022467D02*
X023629Y022522D01*
X023599Y022604D01*
X023544Y022630D01*
X023502Y022744D02*
X023339Y022684D01*
X023284Y022710D01*
X023254Y022792D01*
X023280Y022847D01*
X023443Y022907D01*
X023499Y022881D01*
X023528Y022799D01*
X023502Y022744D01*
X023361Y023006D02*
X023413Y023117D01*
X023168Y023028D01*
X023138Y023109D02*
X023198Y022946D01*
X023567Y021931D02*
X023812Y022020D01*
X017172Y009899D02*
X017042Y009899D01*
X017172Y009899D02*
X017216Y009855D01*
X017216Y009725D01*
X017042Y009725D01*
X017086Y009604D02*
X017042Y009561D01*
X017042Y009474D01*
X017086Y009430D01*
X017259Y009604D01*
X017086Y009604D01*
X017259Y009604D02*
X017303Y009561D01*
X017303Y009474D01*
X017259Y009430D01*
X017086Y009430D01*
X017042Y009309D02*
X017042Y009136D01*
X017042Y009223D02*
X017303Y009223D01*
X017216Y009136D01*
X017442Y009179D02*
X017442Y009266D01*
X017486Y009309D01*
X017486Y009430D02*
X017442Y009430D01*
X017486Y009430D02*
X017659Y009604D01*
X017703Y009604D01*
X017703Y009430D01*
X017659Y009309D02*
X017703Y009266D01*
X017703Y009179D01*
X017659Y009136D01*
X017486Y009136D01*
X017442Y009179D01*
X020582Y009251D02*
X020582Y009078D01*
X020843Y009078D01*
X020843Y009251D01*
X020799Y009372D02*
X020626Y009372D01*
X020582Y009416D01*
X020582Y009503D01*
X020626Y009546D01*
X020799Y009546D02*
X020843Y009503D01*
X020843Y009416D01*
X020799Y009372D01*
X020712Y009165D02*
X020712Y009078D01*
X020712Y008957D02*
X020669Y008913D01*
X020669Y008783D01*
X020582Y008783D02*
X020843Y008783D01*
X020843Y008913D01*
X020799Y008957D01*
X020712Y008957D01*
X020669Y008870D02*
X020582Y008957D01*
X020626Y008662D02*
X020582Y008619D01*
X020582Y008532D01*
X020626Y008488D01*
X020799Y008662D01*
X020626Y008662D01*
X020799Y008662D02*
X020843Y008619D01*
X020843Y008532D01*
X020799Y008488D01*
X020626Y008488D01*
X020712Y008367D02*
X020712Y008194D01*
X020843Y008324D01*
X020582Y008324D01*
X020843Y008073D02*
X020843Y007899D01*
X020582Y007899D01*
X020626Y007778D02*
X020799Y007778D01*
X020843Y007735D01*
X020843Y007605D01*
X020582Y007605D01*
X020582Y007735D01*
X020626Y007778D01*
X020712Y007899D02*
X020712Y007986D01*
X021082Y008073D02*
X021343Y008073D01*
X021343Y008194D02*
X021343Y008324D01*
X021299Y008367D01*
X021212Y008367D01*
X021169Y008324D01*
X021169Y008194D01*
X021169Y008281D02*
X021082Y008367D01*
X021126Y008488D02*
X021082Y008532D01*
X021082Y008619D01*
X021126Y008662D01*
X021343Y008662D01*
X021343Y008488D02*
X021126Y008488D01*
X021082Y008194D02*
X021343Y008194D01*
X021212Y008073D02*
X021212Y007899D01*
X021082Y007899D02*
X021343Y007899D01*
X021343Y007778D02*
X021343Y007605D01*
X021343Y007691D02*
X021082Y007691D01*
X021082Y007483D02*
X021256Y007483D01*
X021343Y007397D01*
X021256Y007310D01*
X021082Y007310D01*
X021212Y007310D02*
X021212Y007483D01*
X021039Y008783D02*
X021039Y008957D01*
X021082Y009078D02*
X021082Y009251D01*
X021126Y009372D02*
X021299Y009546D01*
X021126Y009546D01*
X021082Y009503D01*
X021082Y009416D01*
X021126Y009372D01*
X021299Y009372D01*
X021343Y009416D01*
X021343Y009503D01*
X021299Y009546D01*
X021343Y009667D02*
X021343Y009797D01*
X021299Y009841D01*
X021256Y009841D01*
X021212Y009797D01*
X021212Y009667D01*
X021082Y009667D02*
X021082Y009797D01*
X021126Y009841D01*
X021169Y009841D01*
X021212Y009797D01*
X021082Y009667D02*
X021343Y009667D01*
X021343Y009251D02*
X021343Y009078D01*
X021082Y009078D01*
X021212Y009078D02*
X021212Y009165D01*
X013864Y003149D02*
X013778Y003236D01*
X013691Y003149D01*
X013691Y002976D01*
X013570Y002976D02*
X013483Y002976D01*
X013526Y002976D02*
X013526Y003236D01*
X013483Y003236D02*
X013570Y003236D01*
X013691Y003106D02*
X013864Y003106D01*
X013864Y003149D02*
X013864Y002976D01*
X013914Y002836D02*
X013783Y002836D01*
X013740Y002793D01*
X013740Y002619D01*
X013783Y002576D01*
X013914Y002576D01*
X013914Y002836D01*
X013619Y002836D02*
X013445Y002836D01*
X013532Y002706D02*
X013619Y002706D01*
X013619Y002576D02*
X013619Y002836D01*
X013373Y002976D02*
X013373Y003236D01*
X013200Y002976D01*
X013200Y003236D01*
X013079Y002932D02*
X012905Y002932D01*
X012900Y002836D02*
X012856Y002793D01*
X013030Y002619D01*
X012986Y002576D01*
X012900Y002576D01*
X012856Y002619D01*
X012856Y002793D01*
X012900Y002836D02*
X012986Y002836D01*
X013030Y002793D01*
X013030Y002619D01*
X013151Y002706D02*
X013324Y002706D01*
X013194Y002836D01*
X013194Y002576D01*
X012735Y002576D02*
X012735Y002836D01*
X012605Y002836D01*
X012561Y002793D01*
X012561Y002706D01*
X012605Y002663D01*
X012735Y002663D01*
X012648Y002663D02*
X012561Y002576D01*
X012440Y002576D02*
X012440Y002836D01*
X012267Y002836D01*
X012146Y002793D02*
X012146Y002619D01*
X012102Y002576D01*
X012016Y002576D01*
X011972Y002619D01*
X011972Y002793D02*
X012016Y002836D01*
X012102Y002836D01*
X012146Y002793D01*
X012195Y002976D02*
X012065Y002976D01*
X012021Y003019D01*
X012021Y003063D01*
X012065Y003106D01*
X012195Y003106D01*
X012195Y003236D02*
X012065Y003236D01*
X012021Y003193D01*
X012021Y003149D01*
X012065Y003106D01*
X012195Y002976D02*
X012195Y003236D01*
X012316Y003193D02*
X012489Y003019D01*
X012446Y002976D01*
X012359Y002976D01*
X012316Y003019D01*
X012316Y003193D01*
X012359Y003236D01*
X012446Y003236D01*
X012489Y003193D01*
X012489Y003019D01*
X012611Y003019D02*
X012654Y002976D01*
X012741Y002976D01*
X012784Y003019D01*
X012741Y003106D02*
X012654Y003106D01*
X012611Y003063D01*
X012611Y003019D01*
X012741Y003106D02*
X012784Y003149D01*
X012784Y003193D01*
X012741Y003236D01*
X012654Y003236D01*
X012611Y003193D01*
X012440Y002706D02*
X012354Y002706D01*
X012440Y002576D02*
X012267Y002576D01*
X010738Y015579D02*
X010860Y015624D01*
X010771Y015868D01*
X010649Y015824D01*
X010623Y015768D01*
X010638Y015728D01*
X010693Y015702D01*
X010816Y015746D01*
X010693Y015702D02*
X010668Y015646D01*
X010682Y015605D01*
X010738Y015579D01*
X012384Y026473D02*
X012222Y026535D01*
X012303Y026504D02*
X012396Y026747D01*
X012446Y026635D01*
X012155Y026700D02*
X012202Y026821D01*
X012040Y026884D01*
X012049Y026787D02*
X011993Y026762D01*
X011962Y026681D01*
X011987Y026625D01*
X012068Y026594D01*
X012124Y026619D01*
X012155Y026700D02*
X012090Y026772D01*
X012049Y026787D01*
X011422Y026980D02*
X011391Y027099D01*
X011259Y026874D01*
X011334Y026830D02*
X011184Y026918D01*
X011146Y027092D02*
X010996Y027179D01*
X010968Y027045D02*
X011099Y027270D01*
X011146Y027092D01*
X010477Y027481D02*
X010466Y027604D01*
X010300Y027403D01*
X010367Y027348D02*
X010233Y027459D01*
X010168Y027569D02*
X010107Y027564D01*
X010040Y027619D01*
X010034Y027680D01*
X010062Y027714D01*
X010123Y027719D01*
X010156Y027692D01*
X010123Y027719D02*
X010117Y027780D01*
X010145Y027814D01*
X010206Y027819D01*
X010273Y027764D01*
X010278Y027703D01*
X009618Y028137D02*
X009627Y028259D01*
X009430Y028089D01*
X009373Y028154D02*
X009487Y028023D01*
X009294Y028246D02*
X009311Y028490D01*
X009344Y028519D01*
X009405Y028514D01*
X009462Y028449D01*
X009458Y028388D01*
X009294Y028246D02*
X009180Y028377D01*
X008884Y028914D02*
X008913Y029034D01*
X008691Y028897D01*
X008736Y028823D02*
X008646Y028971D01*
X008582Y029074D02*
X008491Y029222D01*
X008537Y029148D02*
X008758Y029285D01*
X008730Y029165D01*
X008280Y029810D02*
X008328Y029924D01*
X008087Y029825D01*
X008120Y029745D02*
X008054Y029906D01*
X008048Y030034D02*
X008144Y030260D01*
X007983Y030195D01*
X007959Y030138D01*
X007992Y030058D01*
X008048Y030034D01*
X008209Y030100D01*
X008233Y030156D01*
X008200Y030237D01*
X008144Y030260D01*
X007840Y030947D02*
X007798Y030937D01*
X007746Y030970D01*
X007717Y031096D01*
X007633Y031077D02*
X007802Y031116D01*
X007854Y031083D01*
X007873Y030998D01*
X007840Y030947D01*
X007671Y030908D02*
X007619Y030941D01*
X007600Y031025D01*
X007633Y031077D01*
X007541Y031972D02*
X007584Y031975D01*
X007625Y032021D01*
X007619Y032107D01*
X007574Y032148D01*
X007530Y032145D01*
X007490Y032099D01*
X007495Y032013D01*
X007541Y031972D01*
X007495Y032013D02*
X007454Y031967D01*
X007411Y031964D01*
X007365Y032005D01*
X007360Y032091D01*
X007400Y032137D01*
X007444Y032140D01*
X007490Y032099D01*
X007626Y034087D02*
X007672Y034254D01*
X007630Y034265D01*
X007417Y034144D01*
X007375Y034155D01*
X007762Y035162D02*
X007816Y035280D01*
X007794Y035338D01*
X007755Y035356D01*
X007697Y035334D01*
X007661Y035255D01*
X007683Y035198D01*
X007762Y035162D01*
X007877Y035205D01*
X007952Y035266D01*
X008301Y036085D02*
X008193Y036158D01*
X008278Y036205D01*
X008302Y036241D01*
X008290Y036302D01*
X008218Y036350D01*
X008158Y036338D01*
X008109Y036266D01*
X008121Y036206D01*
X008301Y036085D02*
X008398Y036229D01*
X008774Y037060D02*
X008893Y037187D01*
X008769Y037244D02*
X008958Y037066D01*
X008774Y037060D01*
X009555Y037796D02*
X009616Y037788D01*
X009685Y037841D01*
X009693Y037901D01*
X009667Y037936D01*
X009606Y037944D01*
X009614Y038005D01*
X009588Y038039D01*
X009527Y038047D01*
X009458Y037995D01*
X009450Y037934D01*
X009571Y037918D02*
X009606Y037944D01*
X010393Y038463D02*
X010451Y038445D01*
X010528Y038486D01*
X010546Y038545D01*
X010525Y038583D01*
X010291Y038655D01*
X010444Y038736D01*
X011304Y039021D02*
X011414Y038967D01*
X011330Y039213D01*
X011248Y039186D02*
X011412Y039241D01*
X012325Y039344D02*
X012375Y039308D01*
X012460Y039322D01*
X012496Y039372D01*
X012297Y039515D01*
X012333Y039565D01*
X012418Y039579D01*
X012468Y039543D01*
X012496Y039372D01*
X012325Y039344D02*
X012297Y039515D01*
D12*
X012499Y040131D02*
X012501Y040142D01*
X012506Y040151D01*
X012514Y040159D01*
X012524Y040163D01*
X012535Y040164D01*
X012545Y040161D01*
X012554Y040155D01*
X012561Y040147D01*
X012565Y040136D01*
X012565Y040126D01*
X012561Y040115D01*
X012554Y040107D01*
X012545Y040101D01*
X012535Y040098D01*
X012524Y040099D01*
X012514Y040103D01*
X012506Y040111D01*
X012501Y040120D01*
X012499Y040131D01*
X011360Y039790D02*
X011362Y039801D01*
X011367Y039810D01*
X011375Y039818D01*
X011385Y039822D01*
X011396Y039823D01*
X011406Y039820D01*
X011415Y039814D01*
X011422Y039806D01*
X011426Y039795D01*
X011426Y039785D01*
X011422Y039774D01*
X011415Y039766D01*
X011406Y039760D01*
X011396Y039757D01*
X011385Y039758D01*
X011375Y039762D01*
X011367Y039770D01*
X011362Y039779D01*
X011360Y039790D01*
X010303Y039275D02*
X010305Y039286D01*
X010310Y039295D01*
X010318Y039303D01*
X010328Y039307D01*
X010339Y039308D01*
X010349Y039305D01*
X010358Y039299D01*
X010365Y039291D01*
X010369Y039280D01*
X010369Y039270D01*
X010365Y039259D01*
X010358Y039251D01*
X010349Y039245D01*
X010339Y039242D01*
X010328Y039243D01*
X010318Y039247D01*
X010310Y039255D01*
X010305Y039264D01*
X010303Y039275D01*
X009334Y038588D02*
X009336Y038599D01*
X009341Y038608D01*
X009349Y038616D01*
X009359Y038620D01*
X009370Y038621D01*
X009380Y038618D01*
X009389Y038612D01*
X009396Y038604D01*
X009400Y038593D01*
X009400Y038583D01*
X009396Y038572D01*
X009389Y038564D01*
X009380Y038558D01*
X009370Y038555D01*
X009359Y038556D01*
X009349Y038560D01*
X009341Y038568D01*
X009336Y038577D01*
X009334Y038588D01*
X008490Y037751D02*
X008492Y037762D01*
X008497Y037771D01*
X008505Y037779D01*
X008515Y037783D01*
X008526Y037784D01*
X008536Y037781D01*
X008545Y037775D01*
X008552Y037767D01*
X008556Y037756D01*
X008556Y037746D01*
X008552Y037735D01*
X008545Y037727D01*
X008536Y037721D01*
X008526Y037718D01*
X008515Y037719D01*
X008505Y037723D01*
X008497Y037731D01*
X008492Y037740D01*
X008490Y037751D01*
X007800Y036799D02*
X007802Y036810D01*
X007807Y036819D01*
X007815Y036827D01*
X007825Y036831D01*
X007836Y036832D01*
X007846Y036829D01*
X007855Y036823D01*
X007862Y036815D01*
X007866Y036804D01*
X007866Y036794D01*
X007862Y036783D01*
X007855Y036775D01*
X007846Y036769D01*
X007836Y036766D01*
X007825Y036767D01*
X007815Y036771D01*
X007807Y036779D01*
X007802Y036788D01*
X007800Y036799D01*
X007269Y035736D02*
X007271Y035747D01*
X007276Y035756D01*
X007284Y035764D01*
X007294Y035768D01*
X007305Y035769D01*
X007315Y035766D01*
X007324Y035760D01*
X007331Y035752D01*
X007335Y035741D01*
X007335Y035731D01*
X007331Y035720D01*
X007324Y035712D01*
X007315Y035706D01*
X007305Y035703D01*
X007294Y035704D01*
X007284Y035708D01*
X007276Y035716D01*
X007271Y035725D01*
X007269Y035736D01*
X006921Y034613D02*
X006923Y034624D01*
X006928Y034633D01*
X006936Y034641D01*
X006946Y034645D01*
X006957Y034646D01*
X006967Y034643D01*
X006976Y034637D01*
X006983Y034629D01*
X006987Y034618D01*
X006987Y034608D01*
X006983Y034597D01*
X006976Y034589D01*
X006967Y034583D01*
X006957Y034580D01*
X006946Y034581D01*
X006936Y034585D01*
X006928Y034593D01*
X006923Y034602D01*
X006921Y034613D01*
X006789Y032260D02*
X006791Y032271D01*
X006796Y032280D01*
X006804Y032288D01*
X006814Y032292D01*
X006825Y032293D01*
X006835Y032290D01*
X006844Y032284D01*
X006851Y032276D01*
X006855Y032265D01*
X006855Y032255D01*
X006851Y032244D01*
X006844Y032236D01*
X006835Y032230D01*
X006825Y032227D01*
X006814Y032228D01*
X006804Y032232D01*
X006796Y032240D01*
X006791Y032249D01*
X006789Y032260D01*
X007009Y031105D02*
X007011Y031116D01*
X007016Y031125D01*
X007024Y031133D01*
X007034Y031137D01*
X007045Y031138D01*
X007055Y031135D01*
X007064Y031129D01*
X007071Y031121D01*
X007075Y031110D01*
X007075Y031100D01*
X007071Y031089D01*
X007064Y031081D01*
X007055Y031075D01*
X007045Y031072D01*
X007034Y031073D01*
X007024Y031077D01*
X007016Y031085D01*
X007011Y031094D01*
X007009Y031105D01*
X007419Y029989D02*
X007421Y030000D01*
X007426Y030009D01*
X007434Y030017D01*
X007444Y030021D01*
X007455Y030022D01*
X007465Y030019D01*
X007474Y030013D01*
X007481Y030005D01*
X007485Y029994D01*
X007485Y029984D01*
X007481Y029973D01*
X007474Y029965D01*
X007465Y029959D01*
X007455Y029956D01*
X007444Y029957D01*
X007434Y029961D01*
X007426Y029969D01*
X007421Y029978D01*
X007419Y029989D01*
X008004Y028955D02*
X008006Y028966D01*
X008011Y028975D01*
X008019Y028983D01*
X008029Y028987D01*
X008040Y028988D01*
X008050Y028985D01*
X008059Y028979D01*
X008066Y028971D01*
X008070Y028960D01*
X008070Y028950D01*
X008066Y028939D01*
X008059Y028931D01*
X008050Y028925D01*
X008040Y028922D01*
X008029Y028923D01*
X008019Y028927D01*
X008011Y028935D01*
X008006Y028944D01*
X008004Y028955D01*
X008743Y028040D02*
X008745Y028051D01*
X008750Y028060D01*
X008758Y028068D01*
X008768Y028072D01*
X008779Y028073D01*
X008789Y028070D01*
X008798Y028064D01*
X008805Y028056D01*
X008809Y028045D01*
X008809Y028035D01*
X008805Y028024D01*
X008798Y028016D01*
X008789Y028010D01*
X008779Y028007D01*
X008768Y028008D01*
X008758Y028012D01*
X008750Y028020D01*
X008745Y028029D01*
X008743Y028040D01*
X009629Y027249D02*
X009631Y027260D01*
X009636Y027269D01*
X009644Y027277D01*
X009654Y027281D01*
X009665Y027282D01*
X009675Y027279D01*
X009684Y027273D01*
X009691Y027265D01*
X009695Y027254D01*
X009695Y027244D01*
X009691Y027233D01*
X009684Y027225D01*
X009675Y027219D01*
X009665Y027216D01*
X009654Y027217D01*
X009644Y027221D01*
X009636Y027229D01*
X009631Y027238D01*
X009629Y027249D01*
X010622Y026619D02*
X010624Y026630D01*
X010629Y026639D01*
X010637Y026647D01*
X010647Y026651D01*
X010658Y026652D01*
X010668Y026649D01*
X010677Y026643D01*
X010684Y026635D01*
X010688Y026624D01*
X010688Y026614D01*
X010684Y026603D01*
X010677Y026595D01*
X010668Y026589D01*
X010658Y026586D01*
X010647Y026587D01*
X010637Y026591D01*
X010629Y026599D01*
X010624Y026608D01*
X010622Y026619D01*
X011715Y026153D02*
X011717Y026164D01*
X011722Y026173D01*
X011730Y026181D01*
X011740Y026185D01*
X011751Y026186D01*
X011761Y026183D01*
X011770Y026177D01*
X011777Y026169D01*
X011781Y026158D01*
X011781Y026148D01*
X011777Y026137D01*
X011770Y026129D01*
X011761Y026123D01*
X011751Y026120D01*
X011740Y026121D01*
X011730Y026125D01*
X011722Y026133D01*
X011717Y026142D01*
X011715Y026153D01*
X016283Y026153D02*
X016285Y026164D01*
X016290Y026173D01*
X016298Y026181D01*
X016308Y026185D01*
X016319Y026186D01*
X016329Y026183D01*
X016338Y026177D01*
X016345Y026169D01*
X016349Y026158D01*
X016349Y026148D01*
X016345Y026137D01*
X016338Y026129D01*
X016329Y026123D01*
X016319Y026120D01*
X016308Y026121D01*
X016298Y026125D01*
X016290Y026133D01*
X016285Y026142D01*
X016283Y026153D01*
X017377Y026619D02*
X017379Y026630D01*
X017384Y026639D01*
X017392Y026647D01*
X017402Y026651D01*
X017413Y026652D01*
X017423Y026649D01*
X017432Y026643D01*
X017439Y026635D01*
X017443Y026624D01*
X017443Y026614D01*
X017439Y026603D01*
X017432Y026595D01*
X017423Y026589D01*
X017413Y026586D01*
X017402Y026587D01*
X017392Y026591D01*
X017384Y026599D01*
X017379Y026608D01*
X017377Y026619D01*
X018369Y027249D02*
X018371Y027260D01*
X018376Y027269D01*
X018384Y027277D01*
X018394Y027281D01*
X018405Y027282D01*
X018415Y027279D01*
X018424Y027273D01*
X018431Y027265D01*
X018435Y027254D01*
X018435Y027244D01*
X018431Y027233D01*
X018424Y027225D01*
X018415Y027219D01*
X018405Y027216D01*
X018394Y027217D01*
X018384Y027221D01*
X018376Y027229D01*
X018371Y027238D01*
X018369Y027249D01*
X019256Y028040D02*
X019258Y028051D01*
X019263Y028060D01*
X019271Y028068D01*
X019281Y028072D01*
X019292Y028073D01*
X019302Y028070D01*
X019311Y028064D01*
X019318Y028056D01*
X019322Y028045D01*
X019322Y028035D01*
X019318Y028024D01*
X019311Y028016D01*
X019302Y028010D01*
X019292Y028007D01*
X019281Y028008D01*
X019271Y028012D01*
X019263Y028020D01*
X019258Y028029D01*
X019256Y028040D01*
X019994Y028955D02*
X019996Y028966D01*
X020001Y028975D01*
X020009Y028983D01*
X020019Y028987D01*
X020030Y028988D01*
X020040Y028985D01*
X020049Y028979D01*
X020056Y028971D01*
X020060Y028960D01*
X020060Y028950D01*
X020056Y028939D01*
X020049Y028931D01*
X020040Y028925D01*
X020030Y028922D01*
X020019Y028923D01*
X020009Y028927D01*
X020001Y028935D01*
X019996Y028944D01*
X019994Y028955D01*
X020580Y029989D02*
X020582Y030000D01*
X020587Y030009D01*
X020595Y030017D01*
X020605Y030021D01*
X020616Y030022D01*
X020626Y030019D01*
X020635Y030013D01*
X020642Y030005D01*
X020646Y029994D01*
X020646Y029984D01*
X020642Y029973D01*
X020635Y029965D01*
X020626Y029959D01*
X020616Y029956D01*
X020605Y029957D01*
X020595Y029961D01*
X020587Y029969D01*
X020582Y029978D01*
X020580Y029989D01*
X020989Y031105D02*
X020991Y031116D01*
X020996Y031125D01*
X021004Y031133D01*
X021014Y031137D01*
X021025Y031138D01*
X021035Y031135D01*
X021044Y031129D01*
X021051Y031121D01*
X021055Y031110D01*
X021055Y031100D01*
X021051Y031089D01*
X021044Y031081D01*
X021035Y031075D01*
X021025Y031072D01*
X021014Y031073D01*
X021004Y031077D01*
X020996Y031085D01*
X020991Y031094D01*
X020989Y031105D01*
X021209Y032260D02*
X021211Y032271D01*
X021216Y032280D01*
X021224Y032288D01*
X021234Y032292D01*
X021245Y032293D01*
X021255Y032290D01*
X021264Y032284D01*
X021271Y032276D01*
X021275Y032265D01*
X021275Y032255D01*
X021271Y032244D01*
X021264Y032236D01*
X021255Y032230D01*
X021245Y032227D01*
X021234Y032228D01*
X021224Y032232D01*
X021216Y032240D01*
X021211Y032249D01*
X021209Y032260D01*
X021078Y034613D02*
X021080Y034624D01*
X021085Y034633D01*
X021093Y034641D01*
X021103Y034645D01*
X021114Y034646D01*
X021124Y034643D01*
X021133Y034637D01*
X021140Y034629D01*
X021144Y034618D01*
X021144Y034608D01*
X021140Y034597D01*
X021133Y034589D01*
X021124Y034583D01*
X021114Y034580D01*
X021103Y034581D01*
X021093Y034585D01*
X021085Y034593D01*
X021080Y034602D01*
X021078Y034613D01*
X020730Y035736D02*
X020732Y035747D01*
X020737Y035756D01*
X020745Y035764D01*
X020755Y035768D01*
X020766Y035769D01*
X020776Y035766D01*
X020785Y035760D01*
X020792Y035752D01*
X020796Y035741D01*
X020796Y035731D01*
X020792Y035720D01*
X020785Y035712D01*
X020776Y035706D01*
X020766Y035703D01*
X020755Y035704D01*
X020745Y035708D01*
X020737Y035716D01*
X020732Y035725D01*
X020730Y035736D01*
X020198Y036799D02*
X020200Y036810D01*
X020205Y036819D01*
X020213Y036827D01*
X020223Y036831D01*
X020234Y036832D01*
X020244Y036829D01*
X020253Y036823D01*
X020260Y036815D01*
X020264Y036804D01*
X020264Y036794D01*
X020260Y036783D01*
X020253Y036775D01*
X020244Y036769D01*
X020234Y036766D01*
X020223Y036767D01*
X020213Y036771D01*
X020205Y036779D01*
X020200Y036788D01*
X020198Y036799D01*
X019509Y037751D02*
X019511Y037762D01*
X019516Y037771D01*
X019524Y037779D01*
X019534Y037783D01*
X019545Y037784D01*
X019555Y037781D01*
X019564Y037775D01*
X019571Y037767D01*
X019575Y037756D01*
X019575Y037746D01*
X019571Y037735D01*
X019564Y037727D01*
X019555Y037721D01*
X019545Y037718D01*
X019534Y037719D01*
X019524Y037723D01*
X019516Y037731D01*
X019511Y037740D01*
X019509Y037751D01*
X018665Y038588D02*
X018667Y038599D01*
X018672Y038608D01*
X018680Y038616D01*
X018690Y038620D01*
X018701Y038621D01*
X018711Y038618D01*
X018720Y038612D01*
X018727Y038604D01*
X018731Y038593D01*
X018731Y038583D01*
X018727Y038572D01*
X018720Y038564D01*
X018711Y038558D01*
X018701Y038555D01*
X018690Y038556D01*
X018680Y038560D01*
X018672Y038568D01*
X018667Y038577D01*
X018665Y038588D01*
X017695Y039275D02*
X017697Y039286D01*
X017702Y039295D01*
X017710Y039303D01*
X017720Y039307D01*
X017731Y039308D01*
X017741Y039305D01*
X017750Y039299D01*
X017757Y039291D01*
X017761Y039280D01*
X017761Y039270D01*
X017757Y039259D01*
X017750Y039251D01*
X017741Y039245D01*
X017731Y039242D01*
X017720Y039243D01*
X017710Y039247D01*
X017702Y039255D01*
X017697Y039264D01*
X017695Y039275D01*
X016639Y039790D02*
X016641Y039801D01*
X016646Y039810D01*
X016654Y039818D01*
X016664Y039822D01*
X016675Y039823D01*
X016685Y039820D01*
X016694Y039814D01*
X016701Y039806D01*
X016705Y039795D01*
X016705Y039785D01*
X016701Y039774D01*
X016694Y039766D01*
X016685Y039760D01*
X016675Y039757D01*
X016664Y039758D01*
X016654Y039762D01*
X016646Y039770D01*
X016641Y039779D01*
X016639Y039790D01*
X015500Y040131D02*
X015502Y040142D01*
X015507Y040151D01*
X015515Y040159D01*
X015525Y040163D01*
X015536Y040164D01*
X015546Y040161D01*
X015555Y040155D01*
X015562Y040147D01*
X015566Y040136D01*
X015566Y040126D01*
X015562Y040115D01*
X015555Y040107D01*
X015546Y040101D01*
X015536Y040098D01*
X015525Y040099D01*
X015515Y040103D01*
X015507Y040111D01*
X015502Y040120D01*
X015500Y040131D01*
X024591Y019692D02*
X024591Y019479D01*
X024697Y019585D02*
X024484Y019585D01*
X024852Y019532D02*
X025066Y019532D01*
X025066Y019639D02*
X024852Y019639D01*
X024852Y019245D02*
X025066Y019245D01*
X025066Y019138D02*
X024852Y019138D01*
X024697Y019192D02*
X024484Y019192D01*
D13*
X026049Y009724D02*
X025994Y009669D01*
X025994Y009559D01*
X026049Y009504D01*
X026214Y009504D01*
X026214Y009393D02*
X026214Y009724D01*
X026049Y009724D01*
X026362Y009669D02*
X026417Y009724D01*
X026527Y009724D01*
X026582Y009669D01*
X026582Y009448D01*
X026527Y009393D01*
X026417Y009393D01*
X026362Y009448D01*
X026731Y009393D02*
X026841Y009504D01*
X026786Y009504D02*
X026951Y009504D01*
X026951Y009393D02*
X026951Y009724D01*
X026786Y009724D01*
X026731Y009669D01*
X026731Y009559D01*
X026786Y009504D01*
X026786Y006724D02*
X026731Y006669D01*
X026731Y006559D01*
X026786Y006504D01*
X026951Y006504D01*
X026841Y006504D02*
X026731Y006393D01*
X026582Y006448D02*
X026527Y006393D01*
X026417Y006393D01*
X026362Y006448D01*
X026214Y006393D02*
X026214Y006724D01*
X026049Y006724D01*
X025994Y006669D01*
X025994Y006559D01*
X026049Y006504D01*
X026214Y006504D01*
X026362Y006669D02*
X026417Y006724D01*
X026527Y006724D01*
X026582Y006669D01*
X026582Y006448D01*
X026786Y006724D02*
X026951Y006724D01*
X026951Y006393D01*
X026951Y003724D02*
X026786Y003724D01*
X026731Y003669D01*
X026731Y003559D01*
X026786Y003504D01*
X026951Y003504D01*
X026841Y003504D02*
X026731Y003393D01*
X026582Y003448D02*
X026527Y003393D01*
X026417Y003393D01*
X026362Y003448D01*
X026214Y003393D02*
X026214Y003724D01*
X026049Y003724D01*
X025994Y003669D01*
X025994Y003559D01*
X026049Y003504D01*
X026214Y003504D01*
X026362Y003669D02*
X026417Y003724D01*
X026527Y003724D01*
X026582Y003669D01*
X026582Y003448D01*
X026951Y003393D02*
X026951Y003724D01*
X017667Y002827D02*
X017536Y002779D01*
X017476Y002807D01*
X017412Y002982D01*
X017440Y003042D01*
X017572Y003090D01*
X017667Y002827D01*
X017365Y002717D02*
X017269Y002980D01*
X017093Y002916D01*
X017067Y003027D02*
X016972Y003290D01*
X016916Y003170D01*
X016796Y003226D01*
X016892Y002963D01*
X016765Y002917D02*
X016589Y002853D01*
X016619Y002743D02*
X016531Y002711D01*
X016503Y002652D01*
X016743Y002540D01*
X016715Y002480D01*
X016627Y002448D01*
X016567Y002476D01*
X016503Y002652D01*
X016360Y002649D02*
X016456Y002386D01*
X016424Y002474D02*
X016292Y002426D01*
X016233Y002454D01*
X016201Y002541D01*
X016229Y002601D01*
X016360Y002649D01*
X016330Y002758D02*
X016270Y002786D01*
X016330Y002758D02*
X016418Y002790D01*
X016446Y002850D01*
X016382Y003026D01*
X016322Y003054D01*
X016234Y003022D01*
X016206Y002962D01*
X016063Y002959D02*
X016159Y002696D01*
X016111Y002828D02*
X015935Y002764D01*
X015888Y002896D02*
X015983Y002632D01*
X016057Y002539D02*
X015882Y002475D01*
X015872Y002542D02*
X015697Y002478D01*
X015711Y002413D02*
X015771Y002385D01*
X015834Y002209D01*
X015807Y002149D01*
X015719Y002117D01*
X015659Y002145D01*
X015595Y002321D02*
X015623Y002381D01*
X015711Y002413D01*
X015537Y002520D02*
X015509Y002460D01*
X015422Y002428D01*
X015362Y002456D01*
X015346Y002499D01*
X015374Y002559D01*
X015461Y002591D01*
X015489Y002651D01*
X015473Y002695D01*
X015414Y002723D01*
X015326Y002691D01*
X015298Y002631D01*
X015187Y002541D02*
X015067Y002597D01*
X015163Y002333D01*
X015250Y002365D02*
X015075Y002301D01*
X014948Y002255D02*
X014852Y002519D01*
X014720Y002471D01*
X014692Y002411D01*
X014708Y002367D01*
X014768Y002339D01*
X014900Y002387D01*
X014948Y002255D02*
X014816Y002207D01*
X014756Y002235D01*
X014740Y002279D01*
X014768Y002339D01*
X014581Y002320D02*
X014461Y002376D01*
X014557Y002113D01*
X014645Y002145D02*
X014469Y002081D01*
X015978Y002212D02*
X016153Y002276D01*
X016057Y002539D01*
X016105Y002407D02*
X016018Y002375D01*
X016281Y002322D02*
X016336Y002442D01*
X016619Y002743D02*
X016679Y002716D01*
X016743Y002540D01*
X016838Y002674D02*
X017014Y002738D01*
X016834Y002822D01*
X016930Y002558D01*
X016765Y002917D02*
X016669Y003180D01*
X016493Y003116D01*
X016629Y003016D02*
X016717Y003048D01*
X017229Y002816D02*
X017317Y002848D01*
X010058Y003760D02*
X009964Y003854D01*
X010058Y003947D01*
X009777Y003947D01*
X009777Y004083D02*
X009777Y004269D01*
X009824Y004405D02*
X009777Y004452D01*
X009777Y004545D01*
X009824Y004592D01*
X009777Y004727D02*
X010058Y004727D01*
X009917Y004727D02*
X009917Y004914D01*
X009777Y004914D02*
X010058Y004914D01*
X010011Y004592D02*
X010058Y004545D01*
X010058Y004452D01*
X010011Y004405D01*
X009824Y004405D01*
X009917Y004176D02*
X009917Y004083D01*
X009777Y004083D02*
X010058Y004083D01*
X010058Y004269D01*
X009731Y005049D02*
X009731Y005236D01*
X009777Y005372D02*
X009871Y005465D01*
X009777Y005559D01*
X010058Y005559D01*
X009964Y005694D02*
X010058Y005787D01*
X009777Y005787D01*
X009777Y005694D02*
X009777Y005881D01*
X009777Y006016D02*
X009777Y006156D01*
X009824Y006203D01*
X009871Y006203D01*
X009917Y006156D01*
X009917Y006016D01*
X009777Y006016D02*
X010058Y006016D01*
X010058Y006156D01*
X010011Y006203D01*
X009964Y006203D01*
X009917Y006156D01*
X009964Y006339D02*
X010058Y006432D01*
X009777Y006432D01*
X009777Y006339D02*
X009777Y006525D01*
X009777Y005372D02*
X010058Y005372D01*
X010058Y003760D02*
X009777Y003760D01*
X008118Y004865D02*
X008118Y005005D01*
X008071Y005052D01*
X007884Y005052D01*
X007837Y005005D01*
X007837Y004865D01*
X008118Y004865D01*
X008118Y005187D02*
X007837Y005187D01*
X007977Y005187D02*
X007977Y005281D01*
X008118Y005374D02*
X008118Y005187D01*
X007977Y005509D02*
X007977Y005696D01*
X007837Y005650D02*
X008118Y005650D01*
X007977Y005509D01*
X007884Y005832D02*
X008071Y006019D01*
X007884Y006019D01*
X007837Y005972D01*
X007837Y005878D01*
X007884Y005832D01*
X008071Y005832D01*
X008118Y005878D01*
X008118Y005972D01*
X008071Y006019D01*
X008118Y006154D02*
X007837Y006154D01*
X007931Y006154D02*
X007931Y006294D01*
X007977Y006341D01*
X008071Y006341D01*
X008118Y006294D01*
X008118Y006154D01*
X007931Y006247D02*
X007837Y006341D01*
X007837Y006476D02*
X007837Y006663D01*
X007884Y006799D02*
X007837Y006845D01*
X007837Y006939D01*
X007884Y006985D01*
X007884Y006799D02*
X008071Y006799D01*
X008118Y006845D01*
X008118Y006939D01*
X008071Y006985D01*
X008118Y006663D02*
X008118Y006476D01*
X007837Y006476D01*
X007977Y006476D02*
X007977Y006570D01*
X026049Y030504D02*
X026214Y030504D01*
X026214Y030393D02*
X026214Y030724D01*
X026049Y030724D01*
X025994Y030669D01*
X025994Y030559D01*
X026049Y030504D01*
X026362Y030448D02*
X026417Y030393D01*
X026527Y030393D01*
X026582Y030448D01*
X026582Y030669D01*
X026527Y030724D01*
X026417Y030724D01*
X026362Y030669D01*
X026731Y030669D02*
X026731Y030559D01*
X026786Y030504D01*
X026951Y030504D01*
X026841Y030504D02*
X026731Y030393D01*
X026951Y030393D02*
X026951Y030724D01*
X026786Y030724D01*
X026731Y030669D01*
X026731Y033393D02*
X026841Y033504D01*
X026786Y033504D02*
X026951Y033504D01*
X026951Y033393D02*
X026951Y033724D01*
X026786Y033724D01*
X026731Y033669D01*
X026731Y033559D01*
X026786Y033504D01*
X026582Y033448D02*
X026527Y033393D01*
X026417Y033393D01*
X026362Y033448D01*
X026214Y033393D02*
X026214Y033724D01*
X026049Y033724D01*
X025994Y033669D01*
X025994Y033559D01*
X026049Y033504D01*
X026214Y033504D01*
X026362Y033669D02*
X026417Y033724D01*
X026527Y033724D01*
X026582Y033669D01*
X026582Y033448D01*
X026527Y036393D02*
X026417Y036393D01*
X026362Y036448D01*
X026214Y036393D02*
X026214Y036724D01*
X026049Y036724D01*
X025994Y036669D01*
X025994Y036559D01*
X026049Y036504D01*
X026214Y036504D01*
X026362Y036669D02*
X026417Y036724D01*
X026527Y036724D01*
X026582Y036669D01*
X026582Y036448D01*
X026527Y036393D01*
X026731Y036393D02*
X026841Y036504D01*
X026786Y036504D02*
X026951Y036504D01*
X026951Y036393D02*
X026951Y036724D01*
X026786Y036724D01*
X026731Y036669D01*
X026731Y036559D01*
X026786Y036504D01*
M02*
