%
M48
M72
T01C0.0100
T02C0.0130
T03C0.0197
T04C0.0200
T05C0.0236
T06C0.0320
T07C0.0500
T08C0.0591
T09C0.0890
%
T01
X23000Y2460
X24100Y2460
X26130Y15321
X23200Y15910
X22804Y27853
X23300Y39860
X24400Y39860
T02
X24000Y21560
X24150Y21310
X24150Y21010
X24000Y20760
X23850Y21010
X23850Y21310
X23550Y21310
X23400Y21560
X23250Y21310
X23250Y21010
X23400Y20760
X23550Y21010
T03
X24093Y19585
X24093Y19191
X18321Y26908
X17817Y27158
X18275Y27479
X18823Y27293
X18726Y27855
X19126Y28247
X19502Y28682
X19833Y29133
X20059Y28606
X19688Y28143
X19264Y27690
X20411Y29132
X20140Y29633
X20392Y30133
X20613Y30677
X20781Y31210
X21165Y30785
X20963Y30227
X20702Y29650
X21326Y31384
X21435Y31967
X20987Y32325
X20908Y31771
X21513Y32544
X21513Y32937
X21513Y33331
X21471Y33809
X20951Y34042
X20848Y34592
X21248Y35001
X20697Y35147
X20507Y35673
X20830Y36153
X20263Y36207
X19989Y36695
X20562Y36683
X20237Y37211
X19887Y37690
X19668Y37173
X19320Y37610
X18917Y38037
X18502Y38412
X19048Y38584
X19472Y38168
X18561Y38988
X18034Y38768
X17563Y39070
X17539Y39641
X18075Y39329
X17055Y39339
X16542Y39561
X17005Y39899
X16413Y40125
X15985Y39749
X15442Y39883
X15844Y40293
X14623Y40516
X14032Y40516
X13442Y40516
X12622Y39883
X12221Y40293
X12079Y39749
X11651Y40125
X11523Y39561
X11009Y39339
X11060Y39899
X10525Y39641
X10501Y39070
X10030Y38768
X9990Y39329
X9504Y38988
X9563Y38412
X9148Y38037
X9016Y38584
X8593Y38168
X8177Y37690
X7828Y37211
X8396Y37173
X8745Y37610
X8075Y36695
X7802Y36207
X7502Y36683
X7234Y36153
X7558Y35673
X7368Y35147
X6994Y35567
X6817Y35001
X7217Y34592
X7114Y34042
X6678Y34397
X6594Y33809
X6552Y33331
X6552Y32937
X6552Y32544
X7077Y32325
X7157Y31771
X6629Y31967
X6738Y31384
X7284Y31210
X7451Y30677
X7101Y30227
X6899Y30785
X7672Y30133
X7925Y29633
X7363Y29650
X7653Y29132
X8005Y28606
X8232Y29133
X8563Y28682
X8376Y28143
X8939Y28247
X9338Y27855
X8801Y27690
X9242Y27293
X9744Y26908
X9790Y27479
X10247Y27158
X10244Y26588
X10743Y26867
X11247Y26623
X11336Y26060
X11795Y26412
X12332Y26255
X11935Y25856
X12511Y25714
X13461Y25556
X14032Y25556
X14623Y25556
X15553Y25714
X15733Y26255
X16270Y26412
X16729Y26060
X16818Y26623
X17321Y26867
X17821Y26588
X17274Y26295
X16130Y25856
X10791Y26295
X21070Y35567
X21387Y34397
T04
X22012Y33246
X22012Y32946
X22012Y32646
X22812Y32646
X22812Y32946
X22812Y33246
X24587Y33946
X24587Y34246
X24587Y34546
X25387Y34546
X25387Y34246
X25387Y33946
X25387Y31846
X25387Y31546
X25387Y31246
X24587Y31246
X24587Y31546
X24587Y31846
X24587Y37146
X24587Y37446
X24587Y37746
X25387Y37746
X25387Y37446
X25387Y37146
X25387Y10646
X25387Y10346
X25387Y10046
X24587Y10046
X24587Y10346
X24587Y10646
X22812Y9446
X22812Y9146
X22812Y8846
X22012Y8846
X22012Y9146
X22012Y9446
X24587Y7546
X24587Y7246
X24587Y6946
X25387Y6946
X25387Y7246
X25387Y7546
X25387Y4546
X25387Y4246
X25387Y3946
X24587Y3946
X24587Y4246
X24587Y4546
T05
X23200Y14160
X22400Y16360
X19537Y16422
X25691Y25743
X24300Y27760
X25296Y28629
X27758Y25940
T06
X7112Y7166
X7412Y6406
X9172Y3886
X19052Y14726
X20812Y12206
X21112Y11446
T07
X17612Y13046
X17852Y5806
X10612Y5566
X10372Y12806
X13222Y27978
X8975Y33846
X14843Y38094
X19090Y32226
T08
X14623Y35004
X13442Y31067
T09
X14032Y33036
M30
