G75*
%MOIN*%
%OFA0B0*%
%FSLAX25Y25*%
%IPPOS*%
%LPD*%
%AMOC8*
5,1,8,0,0,1.08239X$1,22.5*
%
%ADD10C,0.03553*%
%ADD11R,0.01387X0.07057*%
%ADD12C,0.02581*%
D10*
X0024622Y0046276D03*
X0023835Y0070291D03*
X0029346Y0073047D03*
X0079740Y0073047D03*
X0085252Y0070291D03*
X0084465Y0046276D03*
D11*
X0081315Y0053283D03*
X0079740Y0053283D03*
X0078165Y0053283D03*
X0076591Y0053283D03*
X0075016Y0053283D03*
X0073441Y0053283D03*
X0071866Y0053283D03*
X0070291Y0053283D03*
X0068717Y0053283D03*
X0067142Y0053283D03*
X0065567Y0053283D03*
X0063992Y0053283D03*
X0062417Y0053283D03*
X0060843Y0053283D03*
X0059268Y0053283D03*
X0057693Y0053283D03*
X0056118Y0053283D03*
X0054543Y0053283D03*
X0052969Y0053283D03*
X0051394Y0053283D03*
X0049819Y0053283D03*
X0048244Y0053283D03*
X0046669Y0053283D03*
X0045094Y0053283D03*
X0043520Y0053283D03*
X0041945Y0053283D03*
X0040370Y0053283D03*
X0038795Y0053283D03*
X0037220Y0053283D03*
X0035646Y0053283D03*
X0034071Y0053283D03*
X0032496Y0053283D03*
X0030921Y0053283D03*
X0029346Y0053283D03*
X0027772Y0053283D03*
X0027772Y0064465D03*
X0029346Y0064465D03*
X0030921Y0064465D03*
X0032496Y0064465D03*
X0034071Y0064465D03*
X0035646Y0064465D03*
X0037220Y0064465D03*
X0038795Y0064465D03*
X0040370Y0064465D03*
X0041945Y0064465D03*
X0043520Y0064465D03*
X0045094Y0064465D03*
X0046669Y0064465D03*
X0048244Y0064465D03*
X0049819Y0064465D03*
X0051394Y0064465D03*
X0052969Y0064465D03*
X0054543Y0064465D03*
X0056118Y0064465D03*
X0057693Y0064465D03*
X0059268Y0064465D03*
X0060843Y0064465D03*
X0062417Y0064465D03*
X0063992Y0064465D03*
X0065567Y0064465D03*
X0067142Y0064465D03*
X0068717Y0064465D03*
X0070291Y0064465D03*
X0071866Y0064465D03*
X0073441Y0064465D03*
X0075016Y0064465D03*
X0076591Y0064465D03*
X0078165Y0064465D03*
X0079740Y0064465D03*
X0081315Y0064465D03*
D12*
X0034268Y0043126D03*
X0042142Y0043126D03*
X0050016Y0043126D03*
X0057890Y0043126D03*
X0065764Y0043126D03*
X0073638Y0043126D03*
X0073638Y0074622D03*
X0065764Y0074622D03*
X0057890Y0074622D03*
X0050016Y0074622D03*
X0042142Y0074622D03*
X0033087Y0074622D03*
M02*
