G75*
%MOIN*%
%OFA0B0*%
%FSLAX25Y25*%
%IPPOS*%
%LPD*%
%AMOC8*
5,1,8,0,0,1.08239X$1,22.5*
%
%ADD10C,0.02953*%
%ADD11C,0.00450*%
%ADD12C,0.01587*%
%ADD13C,0.00394*%
%ADD14C,0.01981*%
D10*
X0024622Y0046276D03*
X0023835Y0070291D03*
X0029346Y0073047D03*
X0079740Y0073047D03*
X0085252Y0070291D03*
X0084465Y0046276D03*
D11*
X0076308Y0053090D02*
X0075258Y0053090D01*
X0076308Y0053090D02*
X0076308Y0049540D01*
X0075258Y0049540D01*
X0075258Y0053090D01*
X0075258Y0049989D02*
X0076308Y0049989D01*
X0076308Y0050438D02*
X0075258Y0050438D01*
X0075258Y0050887D02*
X0076308Y0050887D01*
X0076308Y0051336D02*
X0075258Y0051336D01*
X0075258Y0051785D02*
X0076308Y0051785D01*
X0076308Y0052234D02*
X0075258Y0052234D01*
X0075258Y0052683D02*
X0076308Y0052683D01*
X0073808Y0053090D02*
X0072758Y0053090D01*
X0073808Y0053090D02*
X0073808Y0049540D01*
X0072758Y0049540D01*
X0072758Y0053090D01*
X0072758Y0049989D02*
X0073808Y0049989D01*
X0073808Y0050438D02*
X0072758Y0050438D01*
X0072758Y0050887D02*
X0073808Y0050887D01*
X0073808Y0051336D02*
X0072758Y0051336D01*
X0072758Y0051785D02*
X0073808Y0051785D01*
X0073808Y0052234D02*
X0072758Y0052234D01*
X0072758Y0052683D02*
X0073808Y0052683D01*
X0071308Y0053090D02*
X0070258Y0053090D01*
X0071308Y0053090D02*
X0071308Y0049540D01*
X0070258Y0049540D01*
X0070258Y0053090D01*
X0070258Y0049989D02*
X0071308Y0049989D01*
X0071308Y0050438D02*
X0070258Y0050438D01*
X0070258Y0050887D02*
X0071308Y0050887D01*
X0071308Y0051336D02*
X0070258Y0051336D01*
X0070258Y0051785D02*
X0071308Y0051785D01*
X0071308Y0052234D02*
X0070258Y0052234D01*
X0070258Y0052683D02*
X0071308Y0052683D01*
X0068808Y0053090D02*
X0067758Y0053090D01*
X0068808Y0053090D02*
X0068808Y0049540D01*
X0067758Y0049540D01*
X0067758Y0053090D01*
X0067758Y0049989D02*
X0068808Y0049989D01*
X0068808Y0050438D02*
X0067758Y0050438D01*
X0067758Y0050887D02*
X0068808Y0050887D01*
X0068808Y0051336D02*
X0067758Y0051336D01*
X0067758Y0051785D02*
X0068808Y0051785D01*
X0068808Y0052234D02*
X0067758Y0052234D01*
X0067758Y0052683D02*
X0068808Y0052683D01*
X0066308Y0053090D02*
X0065258Y0053090D01*
X0066308Y0053090D02*
X0066308Y0049540D01*
X0065258Y0049540D01*
X0065258Y0053090D01*
X0065258Y0049989D02*
X0066308Y0049989D01*
X0066308Y0050438D02*
X0065258Y0050438D01*
X0065258Y0050887D02*
X0066308Y0050887D01*
X0066308Y0051336D02*
X0065258Y0051336D01*
X0065258Y0051785D02*
X0066308Y0051785D01*
X0066308Y0052234D02*
X0065258Y0052234D01*
X0065258Y0052683D02*
X0066308Y0052683D01*
X0063808Y0053090D02*
X0062758Y0053090D01*
X0063808Y0053090D02*
X0063808Y0049540D01*
X0062758Y0049540D01*
X0062758Y0053090D01*
X0062758Y0049989D02*
X0063808Y0049989D01*
X0063808Y0050438D02*
X0062758Y0050438D01*
X0062758Y0050887D02*
X0063808Y0050887D01*
X0063808Y0051336D02*
X0062758Y0051336D01*
X0062758Y0051785D02*
X0063808Y0051785D01*
X0063808Y0052234D02*
X0062758Y0052234D01*
X0062758Y0052683D02*
X0063808Y0052683D01*
X0061308Y0053090D02*
X0060258Y0053090D01*
X0061308Y0053090D02*
X0061308Y0049540D01*
X0060258Y0049540D01*
X0060258Y0053090D01*
X0060258Y0049989D02*
X0061308Y0049989D01*
X0061308Y0050438D02*
X0060258Y0050438D01*
X0060258Y0050887D02*
X0061308Y0050887D01*
X0061308Y0051336D02*
X0060258Y0051336D01*
X0060258Y0051785D02*
X0061308Y0051785D01*
X0061308Y0052234D02*
X0060258Y0052234D01*
X0060258Y0052683D02*
X0061308Y0052683D01*
X0058808Y0053090D02*
X0057758Y0053090D01*
X0058808Y0053090D02*
X0058808Y0049540D01*
X0057758Y0049540D01*
X0057758Y0053090D01*
X0057758Y0049989D02*
X0058808Y0049989D01*
X0058808Y0050438D02*
X0057758Y0050438D01*
X0057758Y0050887D02*
X0058808Y0050887D01*
X0058808Y0051336D02*
X0057758Y0051336D01*
X0057758Y0051785D02*
X0058808Y0051785D01*
X0058808Y0052234D02*
X0057758Y0052234D01*
X0057758Y0052683D02*
X0058808Y0052683D01*
X0056308Y0053090D02*
X0055258Y0053090D01*
X0056308Y0053090D02*
X0056308Y0049540D01*
X0055258Y0049540D01*
X0055258Y0053090D01*
X0055258Y0049989D02*
X0056308Y0049989D01*
X0056308Y0050438D02*
X0055258Y0050438D01*
X0055258Y0050887D02*
X0056308Y0050887D01*
X0056308Y0051336D02*
X0055258Y0051336D01*
X0055258Y0051785D02*
X0056308Y0051785D01*
X0056308Y0052234D02*
X0055258Y0052234D01*
X0055258Y0052683D02*
X0056308Y0052683D01*
X0053808Y0053090D02*
X0052758Y0053090D01*
X0053808Y0053090D02*
X0053808Y0049540D01*
X0052758Y0049540D01*
X0052758Y0053090D01*
X0052758Y0049989D02*
X0053808Y0049989D01*
X0053808Y0050438D02*
X0052758Y0050438D01*
X0052758Y0050887D02*
X0053808Y0050887D01*
X0053808Y0051336D02*
X0052758Y0051336D01*
X0052758Y0051785D02*
X0053808Y0051785D01*
X0053808Y0052234D02*
X0052758Y0052234D01*
X0052758Y0052683D02*
X0053808Y0052683D01*
X0051308Y0053090D02*
X0050258Y0053090D01*
X0051308Y0053090D02*
X0051308Y0049540D01*
X0050258Y0049540D01*
X0050258Y0053090D01*
X0050258Y0049989D02*
X0051308Y0049989D01*
X0051308Y0050438D02*
X0050258Y0050438D01*
X0050258Y0050887D02*
X0051308Y0050887D01*
X0051308Y0051336D02*
X0050258Y0051336D01*
X0050258Y0051785D02*
X0051308Y0051785D01*
X0051308Y0052234D02*
X0050258Y0052234D01*
X0050258Y0052683D02*
X0051308Y0052683D01*
X0048808Y0053090D02*
X0047758Y0053090D01*
X0048808Y0053090D02*
X0048808Y0049540D01*
X0047758Y0049540D01*
X0047758Y0053090D01*
X0047758Y0049989D02*
X0048808Y0049989D01*
X0048808Y0050438D02*
X0047758Y0050438D01*
X0047758Y0050887D02*
X0048808Y0050887D01*
X0048808Y0051336D02*
X0047758Y0051336D01*
X0047758Y0051785D02*
X0048808Y0051785D01*
X0048808Y0052234D02*
X0047758Y0052234D01*
X0047758Y0052683D02*
X0048808Y0052683D01*
X0046308Y0053090D02*
X0045258Y0053090D01*
X0046308Y0053090D02*
X0046308Y0049540D01*
X0045258Y0049540D01*
X0045258Y0053090D01*
X0045258Y0049989D02*
X0046308Y0049989D01*
X0046308Y0050438D02*
X0045258Y0050438D01*
X0045258Y0050887D02*
X0046308Y0050887D01*
X0046308Y0051336D02*
X0045258Y0051336D01*
X0045258Y0051785D02*
X0046308Y0051785D01*
X0046308Y0052234D02*
X0045258Y0052234D01*
X0045258Y0052683D02*
X0046308Y0052683D01*
X0043808Y0053090D02*
X0042758Y0053090D01*
X0043808Y0053090D02*
X0043808Y0049540D01*
X0042758Y0049540D01*
X0042758Y0053090D01*
X0042758Y0049989D02*
X0043808Y0049989D01*
X0043808Y0050438D02*
X0042758Y0050438D01*
X0042758Y0050887D02*
X0043808Y0050887D01*
X0043808Y0051336D02*
X0042758Y0051336D01*
X0042758Y0051785D02*
X0043808Y0051785D01*
X0043808Y0052234D02*
X0042758Y0052234D01*
X0042758Y0052683D02*
X0043808Y0052683D01*
X0041308Y0053090D02*
X0040258Y0053090D01*
X0041308Y0053090D02*
X0041308Y0049540D01*
X0040258Y0049540D01*
X0040258Y0053090D01*
X0040258Y0049989D02*
X0041308Y0049989D01*
X0041308Y0050438D02*
X0040258Y0050438D01*
X0040258Y0050887D02*
X0041308Y0050887D01*
X0041308Y0051336D02*
X0040258Y0051336D01*
X0040258Y0051785D02*
X0041308Y0051785D01*
X0041308Y0052234D02*
X0040258Y0052234D01*
X0040258Y0052683D02*
X0041308Y0052683D01*
X0038808Y0053090D02*
X0037758Y0053090D01*
X0038808Y0053090D02*
X0038808Y0049540D01*
X0037758Y0049540D01*
X0037758Y0053090D01*
X0037758Y0049989D02*
X0038808Y0049989D01*
X0038808Y0050438D02*
X0037758Y0050438D01*
X0037758Y0050887D02*
X0038808Y0050887D01*
X0038808Y0051336D02*
X0037758Y0051336D01*
X0037758Y0051785D02*
X0038808Y0051785D01*
X0038808Y0052234D02*
X0037758Y0052234D01*
X0037758Y0052683D02*
X0038808Y0052683D01*
X0036308Y0053090D02*
X0035258Y0053090D01*
X0036308Y0053090D02*
X0036308Y0049540D01*
X0035258Y0049540D01*
X0035258Y0053090D01*
X0035258Y0049989D02*
X0036308Y0049989D01*
X0036308Y0050438D02*
X0035258Y0050438D01*
X0035258Y0050887D02*
X0036308Y0050887D01*
X0036308Y0051336D02*
X0035258Y0051336D01*
X0035258Y0051785D02*
X0036308Y0051785D01*
X0036308Y0052234D02*
X0035258Y0052234D01*
X0035258Y0052683D02*
X0036308Y0052683D01*
X0033808Y0053090D02*
X0032758Y0053090D01*
X0033808Y0053090D02*
X0033808Y0049540D01*
X0032758Y0049540D01*
X0032758Y0053090D01*
X0032758Y0049989D02*
X0033808Y0049989D01*
X0033808Y0050438D02*
X0032758Y0050438D01*
X0032758Y0050887D02*
X0033808Y0050887D01*
X0033808Y0051336D02*
X0032758Y0051336D01*
X0032758Y0051785D02*
X0033808Y0051785D01*
X0033808Y0052234D02*
X0032758Y0052234D01*
X0032758Y0052683D02*
X0033808Y0052683D01*
X0033808Y0054540D02*
X0032758Y0054540D01*
X0032758Y0058090D01*
X0033808Y0058090D01*
X0033808Y0054540D01*
X0033808Y0054989D02*
X0032758Y0054989D01*
X0032758Y0055438D02*
X0033808Y0055438D01*
X0033808Y0055887D02*
X0032758Y0055887D01*
X0032758Y0056336D02*
X0033808Y0056336D01*
X0033808Y0056785D02*
X0032758Y0056785D01*
X0032758Y0057234D02*
X0033808Y0057234D01*
X0033808Y0057683D02*
X0032758Y0057683D01*
X0035258Y0054540D02*
X0036308Y0054540D01*
X0035258Y0054540D02*
X0035258Y0058090D01*
X0036308Y0058090D01*
X0036308Y0054540D01*
X0036308Y0054989D02*
X0035258Y0054989D01*
X0035258Y0055438D02*
X0036308Y0055438D01*
X0036308Y0055887D02*
X0035258Y0055887D01*
X0035258Y0056336D02*
X0036308Y0056336D01*
X0036308Y0056785D02*
X0035258Y0056785D01*
X0035258Y0057234D02*
X0036308Y0057234D01*
X0036308Y0057683D02*
X0035258Y0057683D01*
X0037758Y0054540D02*
X0038808Y0054540D01*
X0037758Y0054540D02*
X0037758Y0058090D01*
X0038808Y0058090D01*
X0038808Y0054540D01*
X0038808Y0054989D02*
X0037758Y0054989D01*
X0037758Y0055438D02*
X0038808Y0055438D01*
X0038808Y0055887D02*
X0037758Y0055887D01*
X0037758Y0056336D02*
X0038808Y0056336D01*
X0038808Y0056785D02*
X0037758Y0056785D01*
X0037758Y0057234D02*
X0038808Y0057234D01*
X0038808Y0057683D02*
X0037758Y0057683D01*
X0040258Y0054540D02*
X0041308Y0054540D01*
X0040258Y0054540D02*
X0040258Y0058090D01*
X0041308Y0058090D01*
X0041308Y0054540D01*
X0041308Y0054989D02*
X0040258Y0054989D01*
X0040258Y0055438D02*
X0041308Y0055438D01*
X0041308Y0055887D02*
X0040258Y0055887D01*
X0040258Y0056336D02*
X0041308Y0056336D01*
X0041308Y0056785D02*
X0040258Y0056785D01*
X0040258Y0057234D02*
X0041308Y0057234D01*
X0041308Y0057683D02*
X0040258Y0057683D01*
X0042758Y0054540D02*
X0043808Y0054540D01*
X0042758Y0054540D02*
X0042758Y0058090D01*
X0043808Y0058090D01*
X0043808Y0054540D01*
X0043808Y0054989D02*
X0042758Y0054989D01*
X0042758Y0055438D02*
X0043808Y0055438D01*
X0043808Y0055887D02*
X0042758Y0055887D01*
X0042758Y0056336D02*
X0043808Y0056336D01*
X0043808Y0056785D02*
X0042758Y0056785D01*
X0042758Y0057234D02*
X0043808Y0057234D01*
X0043808Y0057683D02*
X0042758Y0057683D01*
X0045258Y0054540D02*
X0046308Y0054540D01*
X0045258Y0054540D02*
X0045258Y0058090D01*
X0046308Y0058090D01*
X0046308Y0054540D01*
X0046308Y0054989D02*
X0045258Y0054989D01*
X0045258Y0055438D02*
X0046308Y0055438D01*
X0046308Y0055887D02*
X0045258Y0055887D01*
X0045258Y0056336D02*
X0046308Y0056336D01*
X0046308Y0056785D02*
X0045258Y0056785D01*
X0045258Y0057234D02*
X0046308Y0057234D01*
X0046308Y0057683D02*
X0045258Y0057683D01*
X0047758Y0054540D02*
X0048808Y0054540D01*
X0047758Y0054540D02*
X0047758Y0058090D01*
X0048808Y0058090D01*
X0048808Y0054540D01*
X0048808Y0054989D02*
X0047758Y0054989D01*
X0047758Y0055438D02*
X0048808Y0055438D01*
X0048808Y0055887D02*
X0047758Y0055887D01*
X0047758Y0056336D02*
X0048808Y0056336D01*
X0048808Y0056785D02*
X0047758Y0056785D01*
X0047758Y0057234D02*
X0048808Y0057234D01*
X0048808Y0057683D02*
X0047758Y0057683D01*
X0050258Y0054540D02*
X0051308Y0054540D01*
X0050258Y0054540D02*
X0050258Y0058090D01*
X0051308Y0058090D01*
X0051308Y0054540D01*
X0051308Y0054989D02*
X0050258Y0054989D01*
X0050258Y0055438D02*
X0051308Y0055438D01*
X0051308Y0055887D02*
X0050258Y0055887D01*
X0050258Y0056336D02*
X0051308Y0056336D01*
X0051308Y0056785D02*
X0050258Y0056785D01*
X0050258Y0057234D02*
X0051308Y0057234D01*
X0051308Y0057683D02*
X0050258Y0057683D01*
X0052758Y0054540D02*
X0053808Y0054540D01*
X0052758Y0054540D02*
X0052758Y0058090D01*
X0053808Y0058090D01*
X0053808Y0054540D01*
X0053808Y0054989D02*
X0052758Y0054989D01*
X0052758Y0055438D02*
X0053808Y0055438D01*
X0053808Y0055887D02*
X0052758Y0055887D01*
X0052758Y0056336D02*
X0053808Y0056336D01*
X0053808Y0056785D02*
X0052758Y0056785D01*
X0052758Y0057234D02*
X0053808Y0057234D01*
X0053808Y0057683D02*
X0052758Y0057683D01*
X0055258Y0054540D02*
X0056308Y0054540D01*
X0055258Y0054540D02*
X0055258Y0058090D01*
X0056308Y0058090D01*
X0056308Y0054540D01*
X0056308Y0054989D02*
X0055258Y0054989D01*
X0055258Y0055438D02*
X0056308Y0055438D01*
X0056308Y0055887D02*
X0055258Y0055887D01*
X0055258Y0056336D02*
X0056308Y0056336D01*
X0056308Y0056785D02*
X0055258Y0056785D01*
X0055258Y0057234D02*
X0056308Y0057234D01*
X0056308Y0057683D02*
X0055258Y0057683D01*
X0057758Y0054540D02*
X0058808Y0054540D01*
X0057758Y0054540D02*
X0057758Y0058090D01*
X0058808Y0058090D01*
X0058808Y0054540D01*
X0058808Y0054989D02*
X0057758Y0054989D01*
X0057758Y0055438D02*
X0058808Y0055438D01*
X0058808Y0055887D02*
X0057758Y0055887D01*
X0057758Y0056336D02*
X0058808Y0056336D01*
X0058808Y0056785D02*
X0057758Y0056785D01*
X0057758Y0057234D02*
X0058808Y0057234D01*
X0058808Y0057683D02*
X0057758Y0057683D01*
X0060258Y0054540D02*
X0061308Y0054540D01*
X0060258Y0054540D02*
X0060258Y0058090D01*
X0061308Y0058090D01*
X0061308Y0054540D01*
X0061308Y0054989D02*
X0060258Y0054989D01*
X0060258Y0055438D02*
X0061308Y0055438D01*
X0061308Y0055887D02*
X0060258Y0055887D01*
X0060258Y0056336D02*
X0061308Y0056336D01*
X0061308Y0056785D02*
X0060258Y0056785D01*
X0060258Y0057234D02*
X0061308Y0057234D01*
X0061308Y0057683D02*
X0060258Y0057683D01*
X0062758Y0054540D02*
X0063808Y0054540D01*
X0062758Y0054540D02*
X0062758Y0058090D01*
X0063808Y0058090D01*
X0063808Y0054540D01*
X0063808Y0054989D02*
X0062758Y0054989D01*
X0062758Y0055438D02*
X0063808Y0055438D01*
X0063808Y0055887D02*
X0062758Y0055887D01*
X0062758Y0056336D02*
X0063808Y0056336D01*
X0063808Y0056785D02*
X0062758Y0056785D01*
X0062758Y0057234D02*
X0063808Y0057234D01*
X0063808Y0057683D02*
X0062758Y0057683D01*
X0065258Y0054540D02*
X0066308Y0054540D01*
X0065258Y0054540D02*
X0065258Y0058090D01*
X0066308Y0058090D01*
X0066308Y0054540D01*
X0066308Y0054989D02*
X0065258Y0054989D01*
X0065258Y0055438D02*
X0066308Y0055438D01*
X0066308Y0055887D02*
X0065258Y0055887D01*
X0065258Y0056336D02*
X0066308Y0056336D01*
X0066308Y0056785D02*
X0065258Y0056785D01*
X0065258Y0057234D02*
X0066308Y0057234D01*
X0066308Y0057683D02*
X0065258Y0057683D01*
X0067758Y0054540D02*
X0068808Y0054540D01*
X0067758Y0054540D02*
X0067758Y0058090D01*
X0068808Y0058090D01*
X0068808Y0054540D01*
X0068808Y0054989D02*
X0067758Y0054989D01*
X0067758Y0055438D02*
X0068808Y0055438D01*
X0068808Y0055887D02*
X0067758Y0055887D01*
X0067758Y0056336D02*
X0068808Y0056336D01*
X0068808Y0056785D02*
X0067758Y0056785D01*
X0067758Y0057234D02*
X0068808Y0057234D01*
X0068808Y0057683D02*
X0067758Y0057683D01*
X0070258Y0054540D02*
X0071308Y0054540D01*
X0070258Y0054540D02*
X0070258Y0058090D01*
X0071308Y0058090D01*
X0071308Y0054540D01*
X0071308Y0054989D02*
X0070258Y0054989D01*
X0070258Y0055438D02*
X0071308Y0055438D01*
X0071308Y0055887D02*
X0070258Y0055887D01*
X0070258Y0056336D02*
X0071308Y0056336D01*
X0071308Y0056785D02*
X0070258Y0056785D01*
X0070258Y0057234D02*
X0071308Y0057234D01*
X0071308Y0057683D02*
X0070258Y0057683D01*
X0072758Y0054540D02*
X0073808Y0054540D01*
X0072758Y0054540D02*
X0072758Y0058090D01*
X0073808Y0058090D01*
X0073808Y0054540D01*
X0073808Y0054989D02*
X0072758Y0054989D01*
X0072758Y0055438D02*
X0073808Y0055438D01*
X0073808Y0055887D02*
X0072758Y0055887D01*
X0072758Y0056336D02*
X0073808Y0056336D01*
X0073808Y0056785D02*
X0072758Y0056785D01*
X0072758Y0057234D02*
X0073808Y0057234D01*
X0073808Y0057683D02*
X0072758Y0057683D01*
X0075258Y0054540D02*
X0076308Y0054540D01*
X0075258Y0054540D02*
X0075258Y0058090D01*
X0076308Y0058090D01*
X0076308Y0054540D01*
X0076308Y0054989D02*
X0075258Y0054989D01*
X0075258Y0055438D02*
X0076308Y0055438D01*
X0076308Y0055887D02*
X0075258Y0055887D01*
X0075258Y0056336D02*
X0076308Y0056336D01*
X0076308Y0056785D02*
X0075258Y0056785D01*
X0075258Y0057234D02*
X0076308Y0057234D01*
X0076308Y0057683D02*
X0075258Y0057683D01*
X0075258Y0063326D02*
X0076308Y0063326D01*
X0076308Y0059776D01*
X0075258Y0059776D01*
X0075258Y0063326D01*
X0075258Y0060225D02*
X0076308Y0060225D01*
X0076308Y0060674D02*
X0075258Y0060674D01*
X0075258Y0061123D02*
X0076308Y0061123D01*
X0076308Y0061572D02*
X0075258Y0061572D01*
X0075258Y0062021D02*
X0076308Y0062021D01*
X0076308Y0062470D02*
X0075258Y0062470D01*
X0075258Y0062919D02*
X0076308Y0062919D01*
X0073808Y0063326D02*
X0072758Y0063326D01*
X0073808Y0063326D02*
X0073808Y0059776D01*
X0072758Y0059776D01*
X0072758Y0063326D01*
X0072758Y0060225D02*
X0073808Y0060225D01*
X0073808Y0060674D02*
X0072758Y0060674D01*
X0072758Y0061123D02*
X0073808Y0061123D01*
X0073808Y0061572D02*
X0072758Y0061572D01*
X0072758Y0062021D02*
X0073808Y0062021D01*
X0073808Y0062470D02*
X0072758Y0062470D01*
X0072758Y0062919D02*
X0073808Y0062919D01*
X0071308Y0063326D02*
X0070258Y0063326D01*
X0071308Y0063326D02*
X0071308Y0059776D01*
X0070258Y0059776D01*
X0070258Y0063326D01*
X0070258Y0060225D02*
X0071308Y0060225D01*
X0071308Y0060674D02*
X0070258Y0060674D01*
X0070258Y0061123D02*
X0071308Y0061123D01*
X0071308Y0061572D02*
X0070258Y0061572D01*
X0070258Y0062021D02*
X0071308Y0062021D01*
X0071308Y0062470D02*
X0070258Y0062470D01*
X0070258Y0062919D02*
X0071308Y0062919D01*
X0068808Y0063326D02*
X0067758Y0063326D01*
X0068808Y0063326D02*
X0068808Y0059776D01*
X0067758Y0059776D01*
X0067758Y0063326D01*
X0067758Y0060225D02*
X0068808Y0060225D01*
X0068808Y0060674D02*
X0067758Y0060674D01*
X0067758Y0061123D02*
X0068808Y0061123D01*
X0068808Y0061572D02*
X0067758Y0061572D01*
X0067758Y0062021D02*
X0068808Y0062021D01*
X0068808Y0062470D02*
X0067758Y0062470D01*
X0067758Y0062919D02*
X0068808Y0062919D01*
X0066308Y0063326D02*
X0065258Y0063326D01*
X0066308Y0063326D02*
X0066308Y0059776D01*
X0065258Y0059776D01*
X0065258Y0063326D01*
X0065258Y0060225D02*
X0066308Y0060225D01*
X0066308Y0060674D02*
X0065258Y0060674D01*
X0065258Y0061123D02*
X0066308Y0061123D01*
X0066308Y0061572D02*
X0065258Y0061572D01*
X0065258Y0062021D02*
X0066308Y0062021D01*
X0066308Y0062470D02*
X0065258Y0062470D01*
X0065258Y0062919D02*
X0066308Y0062919D01*
X0063808Y0063326D02*
X0062758Y0063326D01*
X0063808Y0063326D02*
X0063808Y0059776D01*
X0062758Y0059776D01*
X0062758Y0063326D01*
X0062758Y0060225D02*
X0063808Y0060225D01*
X0063808Y0060674D02*
X0062758Y0060674D01*
X0062758Y0061123D02*
X0063808Y0061123D01*
X0063808Y0061572D02*
X0062758Y0061572D01*
X0062758Y0062021D02*
X0063808Y0062021D01*
X0063808Y0062470D02*
X0062758Y0062470D01*
X0062758Y0062919D02*
X0063808Y0062919D01*
X0061308Y0063326D02*
X0060258Y0063326D01*
X0061308Y0063326D02*
X0061308Y0059776D01*
X0060258Y0059776D01*
X0060258Y0063326D01*
X0060258Y0060225D02*
X0061308Y0060225D01*
X0061308Y0060674D02*
X0060258Y0060674D01*
X0060258Y0061123D02*
X0061308Y0061123D01*
X0061308Y0061572D02*
X0060258Y0061572D01*
X0060258Y0062021D02*
X0061308Y0062021D01*
X0061308Y0062470D02*
X0060258Y0062470D01*
X0060258Y0062919D02*
X0061308Y0062919D01*
X0058808Y0063326D02*
X0057758Y0063326D01*
X0058808Y0063326D02*
X0058808Y0059776D01*
X0057758Y0059776D01*
X0057758Y0063326D01*
X0057758Y0060225D02*
X0058808Y0060225D01*
X0058808Y0060674D02*
X0057758Y0060674D01*
X0057758Y0061123D02*
X0058808Y0061123D01*
X0058808Y0061572D02*
X0057758Y0061572D01*
X0057758Y0062021D02*
X0058808Y0062021D01*
X0058808Y0062470D02*
X0057758Y0062470D01*
X0057758Y0062919D02*
X0058808Y0062919D01*
X0056308Y0063326D02*
X0055258Y0063326D01*
X0056308Y0063326D02*
X0056308Y0059776D01*
X0055258Y0059776D01*
X0055258Y0063326D01*
X0055258Y0060225D02*
X0056308Y0060225D01*
X0056308Y0060674D02*
X0055258Y0060674D01*
X0055258Y0061123D02*
X0056308Y0061123D01*
X0056308Y0061572D02*
X0055258Y0061572D01*
X0055258Y0062021D02*
X0056308Y0062021D01*
X0056308Y0062470D02*
X0055258Y0062470D01*
X0055258Y0062919D02*
X0056308Y0062919D01*
X0053808Y0063326D02*
X0052758Y0063326D01*
X0053808Y0063326D02*
X0053808Y0059776D01*
X0052758Y0059776D01*
X0052758Y0063326D01*
X0052758Y0060225D02*
X0053808Y0060225D01*
X0053808Y0060674D02*
X0052758Y0060674D01*
X0052758Y0061123D02*
X0053808Y0061123D01*
X0053808Y0061572D02*
X0052758Y0061572D01*
X0052758Y0062021D02*
X0053808Y0062021D01*
X0053808Y0062470D02*
X0052758Y0062470D01*
X0052758Y0062919D02*
X0053808Y0062919D01*
X0051308Y0063326D02*
X0050258Y0063326D01*
X0051308Y0063326D02*
X0051308Y0059776D01*
X0050258Y0059776D01*
X0050258Y0063326D01*
X0050258Y0060225D02*
X0051308Y0060225D01*
X0051308Y0060674D02*
X0050258Y0060674D01*
X0050258Y0061123D02*
X0051308Y0061123D01*
X0051308Y0061572D02*
X0050258Y0061572D01*
X0050258Y0062021D02*
X0051308Y0062021D01*
X0051308Y0062470D02*
X0050258Y0062470D01*
X0050258Y0062919D02*
X0051308Y0062919D01*
X0048808Y0063326D02*
X0047758Y0063326D01*
X0048808Y0063326D02*
X0048808Y0059776D01*
X0047758Y0059776D01*
X0047758Y0063326D01*
X0047758Y0060225D02*
X0048808Y0060225D01*
X0048808Y0060674D02*
X0047758Y0060674D01*
X0047758Y0061123D02*
X0048808Y0061123D01*
X0048808Y0061572D02*
X0047758Y0061572D01*
X0047758Y0062021D02*
X0048808Y0062021D01*
X0048808Y0062470D02*
X0047758Y0062470D01*
X0047758Y0062919D02*
X0048808Y0062919D01*
X0046308Y0063326D02*
X0045258Y0063326D01*
X0046308Y0063326D02*
X0046308Y0059776D01*
X0045258Y0059776D01*
X0045258Y0063326D01*
X0045258Y0060225D02*
X0046308Y0060225D01*
X0046308Y0060674D02*
X0045258Y0060674D01*
X0045258Y0061123D02*
X0046308Y0061123D01*
X0046308Y0061572D02*
X0045258Y0061572D01*
X0045258Y0062021D02*
X0046308Y0062021D01*
X0046308Y0062470D02*
X0045258Y0062470D01*
X0045258Y0062919D02*
X0046308Y0062919D01*
X0043808Y0063326D02*
X0042758Y0063326D01*
X0043808Y0063326D02*
X0043808Y0059776D01*
X0042758Y0059776D01*
X0042758Y0063326D01*
X0042758Y0060225D02*
X0043808Y0060225D01*
X0043808Y0060674D02*
X0042758Y0060674D01*
X0042758Y0061123D02*
X0043808Y0061123D01*
X0043808Y0061572D02*
X0042758Y0061572D01*
X0042758Y0062021D02*
X0043808Y0062021D01*
X0043808Y0062470D02*
X0042758Y0062470D01*
X0042758Y0062919D02*
X0043808Y0062919D01*
X0041308Y0063326D02*
X0040258Y0063326D01*
X0041308Y0063326D02*
X0041308Y0059776D01*
X0040258Y0059776D01*
X0040258Y0063326D01*
X0040258Y0060225D02*
X0041308Y0060225D01*
X0041308Y0060674D02*
X0040258Y0060674D01*
X0040258Y0061123D02*
X0041308Y0061123D01*
X0041308Y0061572D02*
X0040258Y0061572D01*
X0040258Y0062021D02*
X0041308Y0062021D01*
X0041308Y0062470D02*
X0040258Y0062470D01*
X0040258Y0062919D02*
X0041308Y0062919D01*
X0038808Y0063326D02*
X0037758Y0063326D01*
X0038808Y0063326D02*
X0038808Y0059776D01*
X0037758Y0059776D01*
X0037758Y0063326D01*
X0037758Y0060225D02*
X0038808Y0060225D01*
X0038808Y0060674D02*
X0037758Y0060674D01*
X0037758Y0061123D02*
X0038808Y0061123D01*
X0038808Y0061572D02*
X0037758Y0061572D01*
X0037758Y0062021D02*
X0038808Y0062021D01*
X0038808Y0062470D02*
X0037758Y0062470D01*
X0037758Y0062919D02*
X0038808Y0062919D01*
X0036308Y0063326D02*
X0035258Y0063326D01*
X0036308Y0063326D02*
X0036308Y0059776D01*
X0035258Y0059776D01*
X0035258Y0063326D01*
X0035258Y0060225D02*
X0036308Y0060225D01*
X0036308Y0060674D02*
X0035258Y0060674D01*
X0035258Y0061123D02*
X0036308Y0061123D01*
X0036308Y0061572D02*
X0035258Y0061572D01*
X0035258Y0062021D02*
X0036308Y0062021D01*
X0036308Y0062470D02*
X0035258Y0062470D01*
X0035258Y0062919D02*
X0036308Y0062919D01*
X0033808Y0063326D02*
X0032758Y0063326D01*
X0033808Y0063326D02*
X0033808Y0059776D01*
X0032758Y0059776D01*
X0032758Y0063326D01*
X0032758Y0060225D02*
X0033808Y0060225D01*
X0033808Y0060674D02*
X0032758Y0060674D01*
X0032758Y0061123D02*
X0033808Y0061123D01*
X0033808Y0061572D02*
X0032758Y0061572D01*
X0032758Y0062021D02*
X0033808Y0062021D01*
X0033808Y0062470D02*
X0032758Y0062470D01*
X0032758Y0062919D02*
X0033808Y0062919D01*
X0033808Y0064776D02*
X0032758Y0064776D01*
X0032758Y0068326D01*
X0033808Y0068326D01*
X0033808Y0064776D01*
X0033808Y0065225D02*
X0032758Y0065225D01*
X0032758Y0065674D02*
X0033808Y0065674D01*
X0033808Y0066123D02*
X0032758Y0066123D01*
X0032758Y0066572D02*
X0033808Y0066572D01*
X0033808Y0067021D02*
X0032758Y0067021D01*
X0032758Y0067470D02*
X0033808Y0067470D01*
X0033808Y0067919D02*
X0032758Y0067919D01*
X0035258Y0064776D02*
X0036308Y0064776D01*
X0035258Y0064776D02*
X0035258Y0068326D01*
X0036308Y0068326D01*
X0036308Y0064776D01*
X0036308Y0065225D02*
X0035258Y0065225D01*
X0035258Y0065674D02*
X0036308Y0065674D01*
X0036308Y0066123D02*
X0035258Y0066123D01*
X0035258Y0066572D02*
X0036308Y0066572D01*
X0036308Y0067021D02*
X0035258Y0067021D01*
X0035258Y0067470D02*
X0036308Y0067470D01*
X0036308Y0067919D02*
X0035258Y0067919D01*
X0037758Y0064776D02*
X0038808Y0064776D01*
X0037758Y0064776D02*
X0037758Y0068326D01*
X0038808Y0068326D01*
X0038808Y0064776D01*
X0038808Y0065225D02*
X0037758Y0065225D01*
X0037758Y0065674D02*
X0038808Y0065674D01*
X0038808Y0066123D02*
X0037758Y0066123D01*
X0037758Y0066572D02*
X0038808Y0066572D01*
X0038808Y0067021D02*
X0037758Y0067021D01*
X0037758Y0067470D02*
X0038808Y0067470D01*
X0038808Y0067919D02*
X0037758Y0067919D01*
X0040258Y0064776D02*
X0041308Y0064776D01*
X0040258Y0064776D02*
X0040258Y0068326D01*
X0041308Y0068326D01*
X0041308Y0064776D01*
X0041308Y0065225D02*
X0040258Y0065225D01*
X0040258Y0065674D02*
X0041308Y0065674D01*
X0041308Y0066123D02*
X0040258Y0066123D01*
X0040258Y0066572D02*
X0041308Y0066572D01*
X0041308Y0067021D02*
X0040258Y0067021D01*
X0040258Y0067470D02*
X0041308Y0067470D01*
X0041308Y0067919D02*
X0040258Y0067919D01*
X0042758Y0064776D02*
X0043808Y0064776D01*
X0042758Y0064776D02*
X0042758Y0068326D01*
X0043808Y0068326D01*
X0043808Y0064776D01*
X0043808Y0065225D02*
X0042758Y0065225D01*
X0042758Y0065674D02*
X0043808Y0065674D01*
X0043808Y0066123D02*
X0042758Y0066123D01*
X0042758Y0066572D02*
X0043808Y0066572D01*
X0043808Y0067021D02*
X0042758Y0067021D01*
X0042758Y0067470D02*
X0043808Y0067470D01*
X0043808Y0067919D02*
X0042758Y0067919D01*
X0045258Y0064776D02*
X0046308Y0064776D01*
X0045258Y0064776D02*
X0045258Y0068326D01*
X0046308Y0068326D01*
X0046308Y0064776D01*
X0046308Y0065225D02*
X0045258Y0065225D01*
X0045258Y0065674D02*
X0046308Y0065674D01*
X0046308Y0066123D02*
X0045258Y0066123D01*
X0045258Y0066572D02*
X0046308Y0066572D01*
X0046308Y0067021D02*
X0045258Y0067021D01*
X0045258Y0067470D02*
X0046308Y0067470D01*
X0046308Y0067919D02*
X0045258Y0067919D01*
X0047758Y0064776D02*
X0048808Y0064776D01*
X0047758Y0064776D02*
X0047758Y0068326D01*
X0048808Y0068326D01*
X0048808Y0064776D01*
X0048808Y0065225D02*
X0047758Y0065225D01*
X0047758Y0065674D02*
X0048808Y0065674D01*
X0048808Y0066123D02*
X0047758Y0066123D01*
X0047758Y0066572D02*
X0048808Y0066572D01*
X0048808Y0067021D02*
X0047758Y0067021D01*
X0047758Y0067470D02*
X0048808Y0067470D01*
X0048808Y0067919D02*
X0047758Y0067919D01*
X0050258Y0064776D02*
X0051308Y0064776D01*
X0050258Y0064776D02*
X0050258Y0068326D01*
X0051308Y0068326D01*
X0051308Y0064776D01*
X0051308Y0065225D02*
X0050258Y0065225D01*
X0050258Y0065674D02*
X0051308Y0065674D01*
X0051308Y0066123D02*
X0050258Y0066123D01*
X0050258Y0066572D02*
X0051308Y0066572D01*
X0051308Y0067021D02*
X0050258Y0067021D01*
X0050258Y0067470D02*
X0051308Y0067470D01*
X0051308Y0067919D02*
X0050258Y0067919D01*
X0052758Y0064776D02*
X0053808Y0064776D01*
X0052758Y0064776D02*
X0052758Y0068326D01*
X0053808Y0068326D01*
X0053808Y0064776D01*
X0053808Y0065225D02*
X0052758Y0065225D01*
X0052758Y0065674D02*
X0053808Y0065674D01*
X0053808Y0066123D02*
X0052758Y0066123D01*
X0052758Y0066572D02*
X0053808Y0066572D01*
X0053808Y0067021D02*
X0052758Y0067021D01*
X0052758Y0067470D02*
X0053808Y0067470D01*
X0053808Y0067919D02*
X0052758Y0067919D01*
X0055258Y0064776D02*
X0056308Y0064776D01*
X0055258Y0064776D02*
X0055258Y0068326D01*
X0056308Y0068326D01*
X0056308Y0064776D01*
X0056308Y0065225D02*
X0055258Y0065225D01*
X0055258Y0065674D02*
X0056308Y0065674D01*
X0056308Y0066123D02*
X0055258Y0066123D01*
X0055258Y0066572D02*
X0056308Y0066572D01*
X0056308Y0067021D02*
X0055258Y0067021D01*
X0055258Y0067470D02*
X0056308Y0067470D01*
X0056308Y0067919D02*
X0055258Y0067919D01*
X0057758Y0064776D02*
X0058808Y0064776D01*
X0057758Y0064776D02*
X0057758Y0068326D01*
X0058808Y0068326D01*
X0058808Y0064776D01*
X0058808Y0065225D02*
X0057758Y0065225D01*
X0057758Y0065674D02*
X0058808Y0065674D01*
X0058808Y0066123D02*
X0057758Y0066123D01*
X0057758Y0066572D02*
X0058808Y0066572D01*
X0058808Y0067021D02*
X0057758Y0067021D01*
X0057758Y0067470D02*
X0058808Y0067470D01*
X0058808Y0067919D02*
X0057758Y0067919D01*
X0060258Y0064776D02*
X0061308Y0064776D01*
X0060258Y0064776D02*
X0060258Y0068326D01*
X0061308Y0068326D01*
X0061308Y0064776D01*
X0061308Y0065225D02*
X0060258Y0065225D01*
X0060258Y0065674D02*
X0061308Y0065674D01*
X0061308Y0066123D02*
X0060258Y0066123D01*
X0060258Y0066572D02*
X0061308Y0066572D01*
X0061308Y0067021D02*
X0060258Y0067021D01*
X0060258Y0067470D02*
X0061308Y0067470D01*
X0061308Y0067919D02*
X0060258Y0067919D01*
X0062758Y0064776D02*
X0063808Y0064776D01*
X0062758Y0064776D02*
X0062758Y0068326D01*
X0063808Y0068326D01*
X0063808Y0064776D01*
X0063808Y0065225D02*
X0062758Y0065225D01*
X0062758Y0065674D02*
X0063808Y0065674D01*
X0063808Y0066123D02*
X0062758Y0066123D01*
X0062758Y0066572D02*
X0063808Y0066572D01*
X0063808Y0067021D02*
X0062758Y0067021D01*
X0062758Y0067470D02*
X0063808Y0067470D01*
X0063808Y0067919D02*
X0062758Y0067919D01*
X0065258Y0064776D02*
X0066308Y0064776D01*
X0065258Y0064776D02*
X0065258Y0068326D01*
X0066308Y0068326D01*
X0066308Y0064776D01*
X0066308Y0065225D02*
X0065258Y0065225D01*
X0065258Y0065674D02*
X0066308Y0065674D01*
X0066308Y0066123D02*
X0065258Y0066123D01*
X0065258Y0066572D02*
X0066308Y0066572D01*
X0066308Y0067021D02*
X0065258Y0067021D01*
X0065258Y0067470D02*
X0066308Y0067470D01*
X0066308Y0067919D02*
X0065258Y0067919D01*
X0067758Y0064776D02*
X0068808Y0064776D01*
X0067758Y0064776D02*
X0067758Y0068326D01*
X0068808Y0068326D01*
X0068808Y0064776D01*
X0068808Y0065225D02*
X0067758Y0065225D01*
X0067758Y0065674D02*
X0068808Y0065674D01*
X0068808Y0066123D02*
X0067758Y0066123D01*
X0067758Y0066572D02*
X0068808Y0066572D01*
X0068808Y0067021D02*
X0067758Y0067021D01*
X0067758Y0067470D02*
X0068808Y0067470D01*
X0068808Y0067919D02*
X0067758Y0067919D01*
X0070258Y0064776D02*
X0071308Y0064776D01*
X0070258Y0064776D02*
X0070258Y0068326D01*
X0071308Y0068326D01*
X0071308Y0064776D01*
X0071308Y0065225D02*
X0070258Y0065225D01*
X0070258Y0065674D02*
X0071308Y0065674D01*
X0071308Y0066123D02*
X0070258Y0066123D01*
X0070258Y0066572D02*
X0071308Y0066572D01*
X0071308Y0067021D02*
X0070258Y0067021D01*
X0070258Y0067470D02*
X0071308Y0067470D01*
X0071308Y0067919D02*
X0070258Y0067919D01*
X0072758Y0064776D02*
X0073808Y0064776D01*
X0072758Y0064776D02*
X0072758Y0068326D01*
X0073808Y0068326D01*
X0073808Y0064776D01*
X0073808Y0065225D02*
X0072758Y0065225D01*
X0072758Y0065674D02*
X0073808Y0065674D01*
X0073808Y0066123D02*
X0072758Y0066123D01*
X0072758Y0066572D02*
X0073808Y0066572D01*
X0073808Y0067021D02*
X0072758Y0067021D01*
X0072758Y0067470D02*
X0073808Y0067470D01*
X0073808Y0067919D02*
X0072758Y0067919D01*
X0075258Y0064776D02*
X0076308Y0064776D01*
X0075258Y0064776D02*
X0075258Y0068326D01*
X0076308Y0068326D01*
X0076308Y0064776D01*
X0076308Y0065225D02*
X0075258Y0065225D01*
X0075258Y0065674D02*
X0076308Y0065674D01*
X0076308Y0066123D02*
X0075258Y0066123D01*
X0075258Y0066572D02*
X0076308Y0066572D01*
X0076308Y0067021D02*
X0075258Y0067021D01*
X0075258Y0067470D02*
X0076308Y0067470D01*
X0076308Y0067919D02*
X0075258Y0067919D01*
D12*
X0077693Y0071079D03*
X0073293Y0071394D03*
X0070793Y0071039D03*
X0068293Y0071039D03*
X0065793Y0071039D03*
X0063293Y0071039D03*
X0060793Y0071039D03*
X0058480Y0071079D03*
X0055793Y0071039D03*
X0053313Y0071039D03*
X0050813Y0071039D03*
X0048313Y0071039D03*
X0045685Y0071079D03*
X0043126Y0071079D03*
X0040764Y0071039D03*
X0038283Y0072220D03*
X0035793Y0071827D03*
X0029346Y0069504D03*
X0025793Y0064711D03*
X0025793Y0062348D03*
X0030528Y0059268D03*
X0035793Y0059927D03*
X0035793Y0057821D03*
X0038293Y0057821D03*
X0038293Y0059927D03*
X0040793Y0059927D03*
X0040793Y0057821D03*
X0043293Y0057821D03*
X0043293Y0059927D03*
X0045793Y0059927D03*
X0045793Y0057821D03*
X0048293Y0057821D03*
X0048293Y0059927D03*
X0050793Y0059927D03*
X0050793Y0057821D03*
X0053293Y0057821D03*
X0053293Y0059927D03*
X0055793Y0059927D03*
X0055793Y0057821D03*
X0058293Y0057821D03*
X0058293Y0059927D03*
X0060793Y0059927D03*
X0060793Y0057821D03*
X0063293Y0057821D03*
X0063293Y0059927D03*
X0065793Y0059927D03*
X0065793Y0057821D03*
X0068293Y0057821D03*
X0068608Y0059888D03*
X0071148Y0059927D03*
X0070793Y0057821D03*
X0073372Y0057467D03*
X0073717Y0059602D03*
X0079415Y0057860D03*
X0081148Y0059415D03*
X0083274Y0057624D03*
X0084071Y0060843D03*
X0084465Y0052181D03*
X0078411Y0045921D03*
X0072762Y0045528D03*
X0069868Y0045528D03*
X0065006Y0045528D03*
X0064081Y0047496D03*
X0060793Y0046709D03*
X0058293Y0046709D03*
X0055793Y0046709D03*
X0053293Y0046709D03*
X0050793Y0046709D03*
X0048293Y0046709D03*
X0045793Y0046709D03*
X0043293Y0046709D03*
X0040793Y0046709D03*
X0038293Y0046709D03*
X0035793Y0046709D03*
X0033293Y0046709D03*
X0024612Y0052900D03*
X0024612Y0056443D03*
D13*
X0017732Y0049276D02*
X0025260Y0041748D01*
X0083826Y0041748D01*
X0091354Y0049276D01*
X0091354Y0068472D01*
X0083826Y0076000D01*
X0025260Y0076000D01*
X0017732Y0068472D01*
X0017732Y0049276D01*
X0017732Y0049461D02*
X0031337Y0049461D01*
X0031337Y0049353D02*
X0031434Y0048991D01*
X0031621Y0048667D01*
X0031885Y0048402D01*
X0032210Y0048215D01*
X0032571Y0048118D01*
X0033105Y0048118D01*
X0033105Y0051137D01*
X0031337Y0051137D01*
X0031337Y0049353D01*
X0031413Y0049069D02*
X0017940Y0049069D01*
X0018332Y0048677D02*
X0031615Y0048677D01*
X0032090Y0048284D02*
X0025687Y0048284D01*
X0025522Y0048449D02*
X0023722Y0048449D01*
X0022449Y0047176D01*
X0022449Y0045375D01*
X0023722Y0044102D01*
X0025522Y0044102D01*
X0026795Y0045375D01*
X0026795Y0047176D01*
X0025522Y0048449D01*
X0026079Y0047892D02*
X0034869Y0047892D01*
X0035040Y0048063D02*
X0034303Y0047326D01*
X0034303Y0046091D01*
X0035176Y0045218D01*
X0036411Y0045218D01*
X0037043Y0045851D01*
X0037676Y0045218D01*
X0038911Y0045218D01*
X0039543Y0045851D01*
X0040176Y0045218D01*
X0041411Y0045218D01*
X0042043Y0045851D01*
X0042676Y0045218D01*
X0043911Y0045218D01*
X0044543Y0045851D01*
X0045176Y0045218D01*
X0046411Y0045218D01*
X0047043Y0045851D01*
X0047676Y0045218D01*
X0048911Y0045218D01*
X0049543Y0045851D01*
X0050176Y0045218D01*
X0051411Y0045218D01*
X0052043Y0045851D01*
X0052676Y0045218D01*
X0053911Y0045218D01*
X0054543Y0045851D01*
X0055176Y0045218D01*
X0056411Y0045218D01*
X0057043Y0045851D01*
X0057676Y0045218D01*
X0058911Y0045218D01*
X0059543Y0045851D01*
X0060176Y0045218D01*
X0061411Y0045218D01*
X0062284Y0046091D01*
X0062284Y0047326D01*
X0061527Y0048083D01*
X0061527Y0048618D01*
X0061690Y0048618D01*
X0062033Y0048961D01*
X0062377Y0048618D01*
X0062540Y0048618D01*
X0062540Y0047985D01*
X0062590Y0047935D01*
X0062590Y0046879D01*
X0063463Y0046006D01*
X0063515Y0046006D01*
X0063515Y0044910D01*
X0064388Y0044037D01*
X0065623Y0044037D01*
X0066496Y0044910D01*
X0066496Y0045966D01*
X0066527Y0045997D01*
X0066527Y0048618D01*
X0066690Y0048618D01*
X0067033Y0048961D01*
X0067377Y0048618D01*
X0067540Y0048618D01*
X0067540Y0046804D01*
X0068378Y0045966D01*
X0068378Y0044910D01*
X0069251Y0044037D01*
X0070486Y0044037D01*
X0071315Y0044866D01*
X0072144Y0044037D01*
X0073379Y0044037D01*
X0074252Y0044910D01*
X0074252Y0045633D01*
X0074708Y0045178D01*
X0077047Y0045178D01*
X0077794Y0044431D01*
X0079029Y0044431D01*
X0079902Y0045304D01*
X0079902Y0046539D01*
X0079029Y0047412D01*
X0077794Y0047412D01*
X0077047Y0046665D01*
X0075324Y0046665D01*
X0074027Y0047962D01*
X0074027Y0048618D01*
X0074190Y0048618D01*
X0074533Y0048961D01*
X0074877Y0048618D01*
X0076690Y0048618D01*
X0077230Y0049158D01*
X0077230Y0050982D01*
X0081891Y0055643D01*
X0081891Y0058051D01*
X0082638Y0058798D01*
X0082638Y0060033D01*
X0081765Y0060906D01*
X0080709Y0060906D01*
X0080484Y0061131D01*
X0080484Y0070874D01*
X0080640Y0070874D01*
X0081913Y0072147D01*
X0081913Y0073947D01*
X0080640Y0075220D01*
X0078840Y0075220D01*
X0077567Y0073947D01*
X0077567Y0073791D01*
X0074141Y0073791D01*
X0074029Y0073678D01*
X0041751Y0073678D01*
X0040974Y0074455D01*
X0035262Y0074455D01*
X0032975Y0072169D01*
X0032540Y0071733D01*
X0032540Y0069248D01*
X0032377Y0069248D01*
X0031837Y0068708D01*
X0031837Y0067295D01*
X0031204Y0067295D01*
X0027857Y0063948D01*
X0027422Y0063513D01*
X0027422Y0057779D01*
X0029390Y0055810D01*
X0029826Y0055374D01*
X0031837Y0055374D01*
X0031837Y0054179D01*
X0031621Y0053963D01*
X0031434Y0053639D01*
X0031337Y0053277D01*
X0031337Y0051493D01*
X0033105Y0051493D01*
X0033105Y0051137D01*
X0033462Y0051137D01*
X0033462Y0048118D01*
X0033996Y0048118D01*
X0034357Y0048215D01*
X0034681Y0048402D01*
X0034897Y0048618D01*
X0035040Y0048618D01*
X0035040Y0048063D01*
X0035040Y0048284D02*
X0034477Y0048284D01*
X0034477Y0047500D02*
X0026471Y0047500D01*
X0026795Y0047108D02*
X0034303Y0047108D01*
X0034303Y0046715D02*
X0026795Y0046715D01*
X0026795Y0046323D02*
X0034303Y0046323D01*
X0034463Y0045931D02*
X0026795Y0045931D01*
X0026795Y0045539D02*
X0034855Y0045539D01*
X0035793Y0046709D02*
X0035783Y0046719D01*
X0035783Y0051315D01*
X0033462Y0051030D02*
X0033105Y0051030D01*
X0033105Y0051422D02*
X0017732Y0051422D01*
X0017732Y0051814D02*
X0031337Y0051814D01*
X0031337Y0052206D02*
X0017732Y0052206D01*
X0017732Y0052599D02*
X0031337Y0052599D01*
X0031337Y0052991D02*
X0017732Y0052991D01*
X0017732Y0053383D02*
X0031365Y0053383D01*
X0031512Y0053775D02*
X0017732Y0053775D01*
X0017732Y0054167D02*
X0031825Y0054167D01*
X0031837Y0054560D02*
X0017732Y0054560D01*
X0017732Y0054952D02*
X0031837Y0054952D01*
X0031837Y0055344D02*
X0017732Y0055344D01*
X0017732Y0055736D02*
X0029464Y0055736D01*
X0029072Y0056129D02*
X0017732Y0056129D01*
X0017732Y0056521D02*
X0028679Y0056521D01*
X0028287Y0056913D02*
X0017732Y0056913D01*
X0017732Y0057305D02*
X0027895Y0057305D01*
X0027503Y0057697D02*
X0017732Y0057697D01*
X0017732Y0058090D02*
X0027422Y0058090D01*
X0027422Y0058482D02*
X0017732Y0058482D01*
X0017732Y0058874D02*
X0027422Y0058874D01*
X0027422Y0059266D02*
X0017732Y0059266D01*
X0017732Y0059658D02*
X0027422Y0059658D01*
X0027422Y0060051D02*
X0017732Y0060051D01*
X0017732Y0060443D02*
X0027422Y0060443D01*
X0027422Y0060835D02*
X0017732Y0060835D01*
X0017732Y0061227D02*
X0027422Y0061227D01*
X0027422Y0061620D02*
X0017732Y0061620D01*
X0017732Y0062012D02*
X0027422Y0062012D01*
X0027422Y0062404D02*
X0017732Y0062404D01*
X0017732Y0062796D02*
X0027422Y0062796D01*
X0027422Y0063188D02*
X0017732Y0063188D01*
X0017732Y0063581D02*
X0027489Y0063581D01*
X0027882Y0063973D02*
X0017732Y0063973D01*
X0017732Y0064365D02*
X0028274Y0064365D01*
X0028666Y0064757D02*
X0017732Y0064757D01*
X0017732Y0065149D02*
X0029058Y0065149D01*
X0029451Y0065542D02*
X0017732Y0065542D01*
X0017732Y0065934D02*
X0029843Y0065934D01*
X0030235Y0066326D02*
X0017732Y0066326D01*
X0017732Y0066718D02*
X0030627Y0066718D01*
X0031019Y0067110D02*
X0017732Y0067110D01*
X0017732Y0067503D02*
X0031837Y0067503D01*
X0031837Y0067895D02*
X0017732Y0067895D01*
X0017732Y0068287D02*
X0022765Y0068287D01*
X0022934Y0068118D02*
X0021661Y0069391D01*
X0021661Y0071192D01*
X0022934Y0072465D01*
X0024735Y0072465D01*
X0026008Y0071192D01*
X0026008Y0069391D01*
X0024735Y0068118D01*
X0022934Y0068118D01*
X0022373Y0068679D02*
X0017940Y0068679D01*
X0018332Y0069072D02*
X0021981Y0069072D01*
X0021661Y0069464D02*
X0018724Y0069464D01*
X0019116Y0069856D02*
X0021661Y0069856D01*
X0021661Y0070248D02*
X0019509Y0070248D01*
X0019901Y0070640D02*
X0021661Y0070640D01*
X0021661Y0071033D02*
X0020293Y0071033D01*
X0020685Y0071425D02*
X0021895Y0071425D01*
X0022287Y0071817D02*
X0021077Y0071817D01*
X0021470Y0072209D02*
X0022679Y0072209D01*
X0022254Y0072994D02*
X0027173Y0072994D01*
X0027173Y0073386D02*
X0022646Y0073386D01*
X0023038Y0073778D02*
X0027173Y0073778D01*
X0027173Y0073947D02*
X0027173Y0072147D01*
X0028446Y0070874D01*
X0030247Y0070874D01*
X0031520Y0072147D01*
X0031520Y0073947D01*
X0030247Y0075220D01*
X0028446Y0075220D01*
X0027173Y0073947D01*
X0027396Y0074170D02*
X0023431Y0074170D01*
X0023823Y0074563D02*
X0027788Y0074563D01*
X0028181Y0074955D02*
X0024215Y0074955D01*
X0024607Y0075347D02*
X0084479Y0075347D01*
X0084087Y0075739D02*
X0024999Y0075739D01*
X0027173Y0072601D02*
X0021862Y0072601D01*
X0024990Y0072209D02*
X0027173Y0072209D01*
X0027503Y0071817D02*
X0025382Y0071817D01*
X0025775Y0071425D02*
X0027895Y0071425D01*
X0028288Y0071033D02*
X0026008Y0071033D01*
X0026008Y0070640D02*
X0032540Y0070640D01*
X0032540Y0070248D02*
X0026008Y0070248D01*
X0026008Y0069856D02*
X0032540Y0069856D01*
X0032540Y0069464D02*
X0026008Y0069464D01*
X0025688Y0069072D02*
X0032200Y0069072D01*
X0031837Y0068679D02*
X0025296Y0068679D01*
X0024904Y0068287D02*
X0031837Y0068287D01*
X0031512Y0066551D02*
X0028165Y0063205D01*
X0028165Y0058087D01*
X0030134Y0056118D01*
X0033087Y0056118D01*
X0033283Y0056315D01*
X0031837Y0056862D02*
X0030442Y0056862D01*
X0028909Y0058395D01*
X0028909Y0062897D01*
X0031820Y0065807D01*
X0031837Y0065807D01*
X0031837Y0064415D01*
X0031621Y0064199D01*
X0031434Y0063875D01*
X0031337Y0063513D01*
X0031337Y0061729D01*
X0033105Y0061729D01*
X0033105Y0061373D01*
X0031337Y0061373D01*
X0031337Y0059589D01*
X0031434Y0059227D01*
X0031621Y0058903D01*
X0031885Y0058638D01*
X0031960Y0058595D01*
X0031837Y0058472D01*
X0031837Y0056862D01*
X0031837Y0056913D02*
X0030391Y0056913D01*
X0029999Y0057305D02*
X0031837Y0057305D01*
X0031837Y0057697D02*
X0029606Y0057697D01*
X0029214Y0058090D02*
X0031837Y0058090D01*
X0031847Y0058482D02*
X0028909Y0058482D01*
X0028909Y0058874D02*
X0031650Y0058874D01*
X0031423Y0059266D02*
X0028909Y0059266D01*
X0028909Y0059658D02*
X0031337Y0059658D01*
X0031337Y0060051D02*
X0028909Y0060051D01*
X0028909Y0060443D02*
X0031337Y0060443D01*
X0031337Y0060835D02*
X0028909Y0060835D01*
X0028909Y0061227D02*
X0031337Y0061227D01*
X0031337Y0062012D02*
X0028909Y0062012D01*
X0028909Y0062404D02*
X0031337Y0062404D01*
X0031337Y0062796D02*
X0028909Y0062796D01*
X0029201Y0063188D02*
X0031337Y0063188D01*
X0031355Y0063581D02*
X0029593Y0063581D01*
X0029985Y0063973D02*
X0031490Y0063973D01*
X0031786Y0064365D02*
X0030377Y0064365D01*
X0030770Y0064757D02*
X0031837Y0064757D01*
X0031837Y0065149D02*
X0031162Y0065149D01*
X0031554Y0065542D02*
X0031837Y0065542D01*
X0031512Y0066551D02*
X0033283Y0066551D01*
X0033283Y0071425D01*
X0035570Y0073711D01*
X0040666Y0073711D01*
X0041443Y0072935D01*
X0074337Y0072935D01*
X0074449Y0073047D01*
X0079740Y0073047D01*
X0079740Y0061433D01*
X0079622Y0061551D01*
X0075783Y0061551D01*
X0075862Y0061630D01*
X0077230Y0062295D02*
X0077230Y0063687D01*
X0077446Y0063903D01*
X0077633Y0064227D01*
X0077730Y0064589D01*
X0077730Y0066373D01*
X0075962Y0066373D01*
X0075962Y0066729D01*
X0077730Y0066729D01*
X0077730Y0068513D01*
X0077633Y0068875D01*
X0077446Y0069199D01*
X0077181Y0069464D01*
X0076857Y0069651D01*
X0076496Y0069748D01*
X0075962Y0069748D01*
X0075962Y0066729D01*
X0075605Y0066729D01*
X0075605Y0069748D01*
X0075071Y0069748D01*
X0074710Y0069651D01*
X0074385Y0069464D01*
X0074027Y0069464D01*
X0074027Y0069248D02*
X0074027Y0070020D01*
X0074784Y0070776D01*
X0074784Y0072011D01*
X0074604Y0072191D01*
X0074645Y0072191D01*
X0074757Y0072304D01*
X0077567Y0072304D01*
X0077567Y0072147D01*
X0078840Y0070874D01*
X0078996Y0070874D01*
X0078996Y0062295D01*
X0077230Y0062295D01*
X0077230Y0062404D02*
X0078996Y0062404D01*
X0078996Y0062796D02*
X0077230Y0062796D01*
X0077230Y0063188D02*
X0078996Y0063188D01*
X0078996Y0063581D02*
X0077230Y0063581D01*
X0077486Y0063973D02*
X0078996Y0063973D01*
X0078996Y0064365D02*
X0077670Y0064365D01*
X0077730Y0064757D02*
X0078996Y0064757D01*
X0078996Y0065149D02*
X0077730Y0065149D01*
X0077730Y0065542D02*
X0078996Y0065542D01*
X0078996Y0065934D02*
X0077730Y0065934D01*
X0077730Y0066326D02*
X0078996Y0066326D01*
X0078996Y0066718D02*
X0075962Y0066718D01*
X0075962Y0067110D02*
X0075605Y0067110D01*
X0075605Y0067503D02*
X0075962Y0067503D01*
X0075962Y0067895D02*
X0075605Y0067895D01*
X0075605Y0068287D02*
X0075962Y0068287D01*
X0075962Y0068679D02*
X0075605Y0068679D01*
X0075605Y0069072D02*
X0075962Y0069072D01*
X0075962Y0069464D02*
X0075605Y0069464D01*
X0074385Y0069464D02*
X0074170Y0069248D01*
X0074027Y0069248D01*
X0074027Y0069856D02*
X0078996Y0069856D01*
X0078996Y0070248D02*
X0074256Y0070248D01*
X0074648Y0070640D02*
X0078996Y0070640D01*
X0078681Y0071033D02*
X0074784Y0071033D01*
X0074784Y0071425D02*
X0078289Y0071425D01*
X0077897Y0071817D02*
X0074784Y0071817D01*
X0074663Y0072209D02*
X0077567Y0072209D01*
X0077790Y0074170D02*
X0041259Y0074170D01*
X0041651Y0073778D02*
X0074128Y0073778D01*
X0073293Y0071394D02*
X0073283Y0071384D01*
X0073283Y0066551D01*
X0070783Y0066551D02*
X0070783Y0071030D01*
X0070793Y0071039D01*
X0068293Y0071039D02*
X0068283Y0071030D01*
X0068283Y0066551D01*
X0065783Y0066551D02*
X0065783Y0071030D01*
X0065793Y0071039D01*
X0063293Y0071039D02*
X0063283Y0071030D01*
X0063283Y0066551D01*
X0060783Y0066551D02*
X0060783Y0071030D01*
X0060793Y0071039D01*
X0058480Y0071079D02*
X0058480Y0066748D01*
X0058283Y0066551D01*
X0055783Y0066551D02*
X0055783Y0071030D01*
X0055793Y0071039D01*
X0053313Y0071039D02*
X0053283Y0071010D01*
X0053283Y0066551D01*
X0050783Y0066551D02*
X0050783Y0071010D01*
X0050813Y0071039D01*
X0048313Y0071039D02*
X0048283Y0071010D01*
X0048283Y0066551D01*
X0045783Y0066551D02*
X0045783Y0070980D01*
X0045685Y0071079D01*
X0043283Y0070921D02*
X0043283Y0066551D01*
X0040783Y0066551D02*
X0040783Y0071020D01*
X0040764Y0071039D01*
X0043126Y0071079D02*
X0043283Y0070921D01*
X0038283Y0072220D02*
X0038283Y0066551D01*
X0035793Y0066561D02*
X0035783Y0066551D01*
X0035793Y0066561D02*
X0035793Y0071827D01*
X0034193Y0073386D02*
X0031520Y0073386D01*
X0031520Y0073778D02*
X0034585Y0073778D01*
X0034977Y0074170D02*
X0031297Y0074170D01*
X0030905Y0074563D02*
X0078182Y0074563D01*
X0078574Y0074955D02*
X0030512Y0074955D01*
X0031520Y0072994D02*
X0033800Y0072994D01*
X0033408Y0072601D02*
X0031520Y0072601D01*
X0031520Y0072209D02*
X0033016Y0072209D01*
X0032624Y0071817D02*
X0031190Y0071817D01*
X0030797Y0071425D02*
X0032540Y0071425D01*
X0032540Y0071033D02*
X0030405Y0071033D01*
X0028909Y0061620D02*
X0033105Y0061620D01*
X0035783Y0061551D02*
X0035783Y0059937D01*
X0035793Y0059927D01*
X0035793Y0057821D02*
X0035783Y0057811D01*
X0035783Y0056315D01*
X0038283Y0056315D02*
X0038283Y0057811D01*
X0038293Y0057821D01*
X0038293Y0059927D02*
X0038283Y0059937D01*
X0038283Y0061551D01*
X0040783Y0061551D02*
X0040783Y0059937D01*
X0040793Y0059927D01*
X0040793Y0057821D02*
X0040783Y0057811D01*
X0040783Y0056315D01*
X0043283Y0056315D02*
X0043283Y0057811D01*
X0043293Y0057821D01*
X0043293Y0059927D02*
X0043283Y0059937D01*
X0043283Y0061551D01*
X0045783Y0061551D02*
X0045783Y0059937D01*
X0045793Y0059927D01*
X0045793Y0057821D02*
X0045783Y0057811D01*
X0045783Y0056315D01*
X0048283Y0056315D02*
X0048283Y0057811D01*
X0048293Y0057821D01*
X0048293Y0059927D02*
X0048283Y0059937D01*
X0048283Y0061551D01*
X0050783Y0061551D02*
X0050783Y0059937D01*
X0050793Y0059927D01*
X0050793Y0057821D02*
X0050783Y0057811D01*
X0050783Y0056315D01*
X0053283Y0056315D02*
X0053283Y0057811D01*
X0053293Y0057821D01*
X0053293Y0059927D02*
X0053283Y0059937D01*
X0053283Y0061551D01*
X0055783Y0061551D02*
X0055783Y0059937D01*
X0055793Y0059927D01*
X0055793Y0057821D02*
X0055783Y0057811D01*
X0055783Y0056315D01*
X0058283Y0056315D02*
X0058283Y0057811D01*
X0058293Y0057821D01*
X0058293Y0059927D02*
X0058283Y0059937D01*
X0058283Y0061551D01*
X0060783Y0061551D02*
X0060783Y0059937D01*
X0060793Y0059927D01*
X0060793Y0057821D02*
X0060783Y0057811D01*
X0060783Y0056315D01*
X0063283Y0056315D02*
X0063283Y0057811D01*
X0063293Y0057821D01*
X0063293Y0059927D02*
X0063283Y0059937D01*
X0063283Y0061551D01*
X0065783Y0061551D02*
X0065793Y0061541D01*
X0065793Y0059927D01*
X0065793Y0057821D02*
X0065783Y0057811D01*
X0065783Y0056315D01*
X0068283Y0056315D02*
X0068283Y0057811D01*
X0068293Y0057821D01*
X0068283Y0059809D02*
X0068362Y0059888D01*
X0068608Y0059888D01*
X0068283Y0059809D02*
X0068283Y0061551D01*
X0070783Y0061551D02*
X0070783Y0059937D01*
X0070793Y0059927D01*
X0071148Y0059927D01*
X0070793Y0057821D02*
X0070783Y0057811D01*
X0070783Y0056315D01*
X0073283Y0056315D02*
X0073372Y0056404D01*
X0073372Y0057467D01*
X0073717Y0059602D02*
X0073717Y0061118D01*
X0073283Y0061551D01*
X0077107Y0059271D02*
X0077230Y0059394D01*
X0077230Y0060807D01*
X0078996Y0060807D01*
X0078996Y0060515D01*
X0079657Y0059854D01*
X0079657Y0058798D01*
X0080404Y0058051D01*
X0080404Y0056259D01*
X0077230Y0053085D01*
X0077230Y0053451D01*
X0077446Y0053667D01*
X0077633Y0053991D01*
X0077730Y0054353D01*
X0077730Y0056137D01*
X0075962Y0056137D01*
X0075962Y0056493D01*
X0077730Y0056493D01*
X0077730Y0058277D01*
X0077633Y0058639D01*
X0077446Y0058963D01*
X0077181Y0059228D01*
X0077107Y0059271D01*
X0077115Y0059266D02*
X0079657Y0059266D01*
X0079657Y0058874D02*
X0077498Y0058874D01*
X0077675Y0058482D02*
X0079973Y0058482D01*
X0080365Y0058090D02*
X0077730Y0058090D01*
X0077730Y0057697D02*
X0080404Y0057697D01*
X0080404Y0057305D02*
X0077730Y0057305D01*
X0077730Y0056913D02*
X0080404Y0056913D01*
X0080404Y0056521D02*
X0077730Y0056521D01*
X0077730Y0056129D02*
X0080274Y0056129D01*
X0079881Y0055736D02*
X0077730Y0055736D01*
X0077730Y0055344D02*
X0079489Y0055344D01*
X0079097Y0054952D02*
X0077730Y0054952D01*
X0077730Y0054560D02*
X0078705Y0054560D01*
X0078313Y0054167D02*
X0077681Y0054167D01*
X0077509Y0053775D02*
X0077920Y0053775D01*
X0077528Y0053383D02*
X0077230Y0053383D01*
X0078455Y0052206D02*
X0091354Y0052206D01*
X0091354Y0051814D02*
X0078063Y0051814D01*
X0077671Y0051422D02*
X0091354Y0051422D01*
X0091354Y0051030D02*
X0077278Y0051030D01*
X0077230Y0050638D02*
X0091354Y0050638D01*
X0091354Y0050245D02*
X0077230Y0050245D01*
X0077230Y0049853D02*
X0091354Y0049853D01*
X0091354Y0049461D02*
X0077230Y0049461D01*
X0077141Y0049069D02*
X0091147Y0049069D01*
X0090755Y0048677D02*
X0076749Y0048677D01*
X0077490Y0047108D02*
X0074881Y0047108D01*
X0074489Y0047500D02*
X0082615Y0047500D01*
X0082291Y0047176D02*
X0083564Y0048449D01*
X0085365Y0048449D01*
X0086638Y0047176D01*
X0086638Y0045375D01*
X0085365Y0044102D01*
X0083564Y0044102D01*
X0082291Y0045375D01*
X0082291Y0047176D01*
X0082291Y0047108D02*
X0079333Y0047108D01*
X0079725Y0046715D02*
X0082291Y0046715D01*
X0082291Y0046323D02*
X0079902Y0046323D01*
X0079902Y0045931D02*
X0082291Y0045931D01*
X0082291Y0045539D02*
X0079902Y0045539D01*
X0079745Y0045147D02*
X0082520Y0045147D01*
X0082912Y0044754D02*
X0079352Y0044754D01*
X0078411Y0045921D02*
X0075016Y0045921D01*
X0073283Y0047654D01*
X0073283Y0051315D01*
X0070783Y0051315D02*
X0070783Y0049327D01*
X0070783Y0047506D02*
X0072762Y0045528D01*
X0073704Y0044362D02*
X0083305Y0044362D01*
X0084872Y0042793D02*
X0024215Y0042793D01*
X0024607Y0042401D02*
X0084479Y0042401D01*
X0084087Y0042009D02*
X0024999Y0042009D01*
X0023823Y0043186D02*
X0085264Y0043186D01*
X0085656Y0043578D02*
X0023431Y0043578D01*
X0023038Y0043970D02*
X0086048Y0043970D01*
X0086440Y0044362D02*
X0085625Y0044362D01*
X0086017Y0044754D02*
X0086833Y0044754D01*
X0087225Y0045147D02*
X0086409Y0045147D01*
X0086638Y0045539D02*
X0087617Y0045539D01*
X0088009Y0045931D02*
X0086638Y0045931D01*
X0086638Y0046323D02*
X0088401Y0046323D01*
X0088794Y0046715D02*
X0086638Y0046715D01*
X0086638Y0047108D02*
X0089186Y0047108D01*
X0089578Y0047500D02*
X0086314Y0047500D01*
X0085921Y0047892D02*
X0089970Y0047892D01*
X0090363Y0048284D02*
X0085529Y0048284D01*
X0083400Y0048284D02*
X0074027Y0048284D01*
X0074097Y0047892D02*
X0083008Y0047892D01*
X0078847Y0052599D02*
X0091354Y0052599D01*
X0091354Y0052991D02*
X0079239Y0052991D01*
X0079632Y0053383D02*
X0091354Y0053383D01*
X0091354Y0053775D02*
X0080024Y0053775D01*
X0080416Y0054167D02*
X0091354Y0054167D01*
X0091354Y0054560D02*
X0080808Y0054560D01*
X0081200Y0054952D02*
X0091354Y0054952D01*
X0091354Y0055344D02*
X0081593Y0055344D01*
X0081891Y0055736D02*
X0091354Y0055736D01*
X0091354Y0056129D02*
X0081891Y0056129D01*
X0081891Y0056521D02*
X0091354Y0056521D01*
X0091354Y0056913D02*
X0081891Y0056913D01*
X0081891Y0057305D02*
X0091354Y0057305D01*
X0091354Y0057697D02*
X0081891Y0057697D01*
X0081930Y0058090D02*
X0091354Y0058090D01*
X0091354Y0058482D02*
X0082322Y0058482D01*
X0082638Y0058874D02*
X0091354Y0058874D01*
X0091354Y0059266D02*
X0082638Y0059266D01*
X0082638Y0059658D02*
X0091354Y0059658D01*
X0091354Y0060051D02*
X0082620Y0060051D01*
X0082228Y0060443D02*
X0091354Y0060443D01*
X0091354Y0060835D02*
X0081836Y0060835D01*
X0080484Y0061227D02*
X0091354Y0061227D01*
X0091354Y0061620D02*
X0080484Y0061620D01*
X0080484Y0062012D02*
X0091354Y0062012D01*
X0091354Y0062404D02*
X0080484Y0062404D01*
X0080484Y0062796D02*
X0091354Y0062796D01*
X0091354Y0063188D02*
X0080484Y0063188D01*
X0080484Y0063581D02*
X0091354Y0063581D01*
X0091354Y0063973D02*
X0080484Y0063973D01*
X0080484Y0064365D02*
X0091354Y0064365D01*
X0091354Y0064757D02*
X0080484Y0064757D01*
X0080484Y0065149D02*
X0091354Y0065149D01*
X0091354Y0065542D02*
X0080484Y0065542D01*
X0080484Y0065934D02*
X0091354Y0065934D01*
X0091354Y0066326D02*
X0080484Y0066326D01*
X0080484Y0066718D02*
X0091354Y0066718D01*
X0091354Y0067110D02*
X0080484Y0067110D01*
X0080484Y0067503D02*
X0091354Y0067503D01*
X0091354Y0067895D02*
X0086452Y0067895D01*
X0086518Y0067922D02*
X0086956Y0068215D01*
X0087328Y0068587D01*
X0087621Y0069025D01*
X0087822Y0069512D01*
X0087925Y0070028D01*
X0087925Y0070094D01*
X0085449Y0070094D01*
X0085449Y0067618D01*
X0085515Y0067618D01*
X0086032Y0067721D01*
X0086518Y0067922D01*
X0087028Y0068287D02*
X0091354Y0068287D01*
X0091147Y0068679D02*
X0087390Y0068679D01*
X0087640Y0069072D02*
X0090755Y0069072D01*
X0090362Y0069464D02*
X0087803Y0069464D01*
X0087891Y0069856D02*
X0089970Y0069856D01*
X0089578Y0070248D02*
X0085449Y0070248D01*
X0085449Y0070094D02*
X0085449Y0070488D01*
X0087925Y0070488D01*
X0087925Y0070555D01*
X0087822Y0071071D01*
X0087621Y0071558D01*
X0087328Y0071995D01*
X0086956Y0072368D01*
X0086518Y0072660D01*
X0086032Y0072862D01*
X0085515Y0072965D01*
X0085449Y0072965D01*
X0085449Y0070488D01*
X0085055Y0070488D01*
X0085055Y0070094D01*
X0085449Y0070094D01*
X0085449Y0069856D02*
X0085055Y0069856D01*
X0085055Y0070094D02*
X0085055Y0067618D01*
X0084989Y0067618D01*
X0084472Y0067721D01*
X0083986Y0067922D01*
X0083548Y0068215D01*
X0083176Y0068587D01*
X0082883Y0069025D01*
X0082681Y0069512D01*
X0082579Y0070028D01*
X0082579Y0070094D01*
X0085055Y0070094D01*
X0085055Y0070248D02*
X0080484Y0070248D01*
X0080484Y0069856D02*
X0082613Y0069856D01*
X0082701Y0069464D02*
X0080484Y0069464D01*
X0080484Y0069072D02*
X0082864Y0069072D01*
X0083114Y0068679D02*
X0080484Y0068679D01*
X0080484Y0068287D02*
X0083476Y0068287D01*
X0084052Y0067895D02*
X0080484Y0067895D01*
X0078996Y0067895D02*
X0077730Y0067895D01*
X0077730Y0068287D02*
X0078996Y0068287D01*
X0078996Y0068679D02*
X0077686Y0068679D01*
X0077520Y0069072D02*
X0078996Y0069072D01*
X0078996Y0069464D02*
X0077182Y0069464D01*
X0077730Y0067503D02*
X0078996Y0067503D01*
X0078996Y0067110D02*
X0077730Y0067110D01*
X0080484Y0070640D02*
X0082596Y0070640D01*
X0082579Y0070555D02*
X0082579Y0070488D01*
X0085055Y0070488D01*
X0085055Y0072965D01*
X0084989Y0072965D01*
X0084472Y0072862D01*
X0083986Y0072660D01*
X0083548Y0072368D01*
X0083176Y0071995D01*
X0082883Y0071558D01*
X0082681Y0071071D01*
X0082579Y0070555D01*
X0082674Y0071033D02*
X0080799Y0071033D01*
X0081191Y0071425D02*
X0082828Y0071425D01*
X0083056Y0071817D02*
X0081583Y0071817D01*
X0081913Y0072209D02*
X0083389Y0072209D01*
X0083898Y0072601D02*
X0081913Y0072601D01*
X0081913Y0072994D02*
X0086833Y0072994D01*
X0086606Y0072601D02*
X0087225Y0072601D01*
X0087115Y0072209D02*
X0087617Y0072209D01*
X0087448Y0071817D02*
X0088009Y0071817D01*
X0087676Y0071425D02*
X0088401Y0071425D01*
X0088794Y0071033D02*
X0087830Y0071033D01*
X0087908Y0070640D02*
X0089186Y0070640D01*
X0086440Y0073386D02*
X0081913Y0073386D01*
X0081913Y0073778D02*
X0086048Y0073778D01*
X0085656Y0074170D02*
X0081691Y0074170D01*
X0081298Y0074563D02*
X0085264Y0074563D01*
X0084872Y0074955D02*
X0080906Y0074955D01*
X0085055Y0072601D02*
X0085449Y0072601D01*
X0085449Y0072209D02*
X0085055Y0072209D01*
X0085055Y0071817D02*
X0085449Y0071817D01*
X0085449Y0071425D02*
X0085055Y0071425D01*
X0085055Y0071033D02*
X0085449Y0071033D01*
X0085449Y0070640D02*
X0085055Y0070640D01*
X0085055Y0069464D02*
X0085449Y0069464D01*
X0085449Y0069072D02*
X0085055Y0069072D01*
X0085055Y0068679D02*
X0085449Y0068679D01*
X0085449Y0068287D02*
X0085055Y0068287D01*
X0085055Y0067895D02*
X0085449Y0067895D01*
X0079740Y0061433D02*
X0079740Y0061236D01*
X0079740Y0060823D01*
X0081148Y0059415D01*
X0081148Y0055951D01*
X0076512Y0051315D01*
X0075783Y0051315D01*
X0075793Y0051305D01*
X0074818Y0048677D02*
X0074249Y0048677D01*
X0075273Y0046715D02*
X0077098Y0046715D01*
X0077078Y0045147D02*
X0074252Y0045147D01*
X0074252Y0045539D02*
X0074346Y0045539D01*
X0074097Y0044754D02*
X0077470Y0044754D01*
X0071819Y0044362D02*
X0070811Y0044362D01*
X0071203Y0044754D02*
X0071427Y0044754D01*
X0069868Y0045528D02*
X0068283Y0047112D01*
X0068283Y0051315D01*
X0065783Y0051315D02*
X0065783Y0046305D01*
X0065006Y0045528D01*
X0063515Y0045539D02*
X0061731Y0045539D01*
X0062124Y0045931D02*
X0063515Y0045931D01*
X0063146Y0046323D02*
X0062284Y0046323D01*
X0062284Y0046715D02*
X0062753Y0046715D01*
X0062590Y0047108D02*
X0062284Y0047108D01*
X0062110Y0047500D02*
X0062590Y0047500D01*
X0062590Y0047892D02*
X0061718Y0047892D01*
X0061527Y0048284D02*
X0062540Y0048284D01*
X0062318Y0048677D02*
X0061749Y0048677D01*
X0060783Y0046719D02*
X0060793Y0046709D01*
X0060783Y0046719D02*
X0060783Y0051315D01*
X0058283Y0051315D02*
X0058283Y0046719D01*
X0058293Y0046709D01*
X0057355Y0045539D02*
X0056731Y0045539D01*
X0055793Y0046709D02*
X0055793Y0047855D01*
X0055783Y0047865D01*
X0055783Y0051315D01*
X0053283Y0051315D02*
X0053283Y0046719D01*
X0053293Y0046709D01*
X0052355Y0045539D02*
X0051731Y0045539D01*
X0050793Y0046709D02*
X0050783Y0046719D01*
X0050783Y0051315D01*
X0048283Y0051315D02*
X0048283Y0047845D01*
X0048283Y0046719D01*
X0048293Y0046709D01*
X0048244Y0047806D02*
X0048283Y0047845D01*
X0047355Y0045539D02*
X0046731Y0045539D01*
X0045793Y0046709D02*
X0045685Y0046817D01*
X0045783Y0046915D01*
X0045783Y0051315D01*
X0043283Y0051315D02*
X0043283Y0046719D01*
X0043293Y0046709D01*
X0042355Y0045539D02*
X0041731Y0045539D01*
X0040793Y0046709D02*
X0040783Y0046719D01*
X0040783Y0051315D01*
X0038283Y0051315D02*
X0038283Y0046719D01*
X0038293Y0046709D01*
X0037355Y0045539D02*
X0036731Y0045539D01*
X0039231Y0045539D02*
X0039855Y0045539D01*
X0044231Y0045539D02*
X0044855Y0045539D01*
X0049231Y0045539D02*
X0049855Y0045539D01*
X0054231Y0045539D02*
X0054855Y0045539D01*
X0059231Y0045539D02*
X0059855Y0045539D01*
X0063515Y0045147D02*
X0026566Y0045147D01*
X0026174Y0044754D02*
X0063671Y0044754D01*
X0064063Y0044362D02*
X0025782Y0044362D01*
X0023462Y0044362D02*
X0022646Y0044362D01*
X0022254Y0044754D02*
X0023070Y0044754D01*
X0022678Y0045147D02*
X0021862Y0045147D01*
X0021470Y0045539D02*
X0022449Y0045539D01*
X0022449Y0045931D02*
X0021077Y0045931D01*
X0020685Y0046323D02*
X0022449Y0046323D01*
X0022449Y0046715D02*
X0020293Y0046715D01*
X0019901Y0047108D02*
X0022449Y0047108D01*
X0022773Y0047500D02*
X0019509Y0047500D01*
X0019116Y0047892D02*
X0023165Y0047892D01*
X0023557Y0048284D02*
X0018724Y0048284D01*
X0017732Y0049853D02*
X0031337Y0049853D01*
X0031337Y0050245D02*
X0017732Y0050245D01*
X0017732Y0050638D02*
X0031337Y0050638D01*
X0031337Y0051030D02*
X0017732Y0051030D01*
X0033105Y0050638D02*
X0033462Y0050638D01*
X0033462Y0050245D02*
X0033105Y0050245D01*
X0033105Y0049853D02*
X0033462Y0049853D01*
X0033462Y0049461D02*
X0033105Y0049461D01*
X0033105Y0049069D02*
X0033462Y0049069D01*
X0033462Y0048677D02*
X0033105Y0048677D01*
X0033105Y0048284D02*
X0033462Y0048284D01*
X0063283Y0048293D02*
X0064081Y0047496D01*
X0063283Y0048293D02*
X0063283Y0051315D01*
X0066749Y0048677D02*
X0067318Y0048677D01*
X0067540Y0048284D02*
X0066527Y0048284D01*
X0066527Y0047892D02*
X0067540Y0047892D01*
X0067540Y0047500D02*
X0066527Y0047500D01*
X0066527Y0047108D02*
X0067540Y0047108D01*
X0067628Y0046715D02*
X0066527Y0046715D01*
X0066527Y0046323D02*
X0068021Y0046323D01*
X0068378Y0045931D02*
X0066496Y0045931D01*
X0066496Y0045539D02*
X0068378Y0045539D01*
X0068378Y0045147D02*
X0066496Y0045147D01*
X0066341Y0044754D02*
X0068533Y0044754D01*
X0068926Y0044362D02*
X0065948Y0044362D01*
X0070783Y0047506D02*
X0070783Y0051315D01*
X0077230Y0059658D02*
X0079657Y0059658D01*
X0079461Y0060051D02*
X0077230Y0060051D01*
X0077230Y0060443D02*
X0079068Y0060443D01*
D14*
X0073638Y0074622D03*
X0065764Y0074622D03*
X0057890Y0074622D03*
X0050016Y0074622D03*
X0042142Y0074622D03*
X0033087Y0074622D03*
X0034268Y0043126D03*
X0042142Y0043126D03*
X0050016Y0043126D03*
X0057890Y0043126D03*
X0065764Y0043126D03*
X0073638Y0043126D03*
M02*
