G75*
%MOIN*%
%OFA0B0*%
%FSLAX24Y24*%
%IPPOS*%
%LPD*%
%AMOC8*
5,1,8,0,0,1.08239X$1,22.5*
%
%ADD10C,0.0240*%
%ADD11C,0.0050*%
%ADD12C,0.0768*%
D10*
X000705Y000605D03*
X000705Y001605D03*
X001705Y000605D03*
X002780Y000605D03*
X003305Y000505D03*
X003755Y001080D03*
X004455Y001380D03*
X005455Y001380D03*
X006355Y000930D03*
X006855Y000505D03*
X008705Y001105D03*
X006955Y003055D03*
X006855Y002630D03*
X007505Y003605D03*
X006930Y003705D03*
X007230Y005305D03*
X007305Y005705D03*
X007705Y006105D03*
X008705Y004605D03*
X008705Y003605D03*
X005705Y005205D03*
X005755Y005905D03*
X004943Y005180D03*
X004568Y005180D03*
X004180Y005180D03*
X004468Y004430D03*
X004143Y004205D03*
X003843Y003980D03*
X003543Y003780D03*
X003405Y002730D03*
X003268Y002280D03*
X001805Y003980D03*
X001205Y004705D03*
X000705Y005205D03*
X000705Y004205D03*
X000705Y003280D03*
X001705Y005205D03*
X001805Y005855D03*
X003405Y005205D03*
X000505Y008655D03*
X001022Y009140D03*
X001268Y009411D03*
X001514Y009140D03*
X001760Y009411D03*
X002006Y009140D03*
X002252Y009411D03*
X002498Y009140D03*
X002744Y009411D03*
X002990Y009140D03*
X003236Y009411D03*
X003483Y009140D03*
X003729Y009411D03*
X003975Y009140D03*
X004221Y009411D03*
X004467Y009140D03*
X004713Y009411D03*
X004959Y009140D03*
X005205Y009411D03*
X005451Y009140D03*
X005697Y009411D03*
X005943Y009140D03*
X006189Y009411D03*
X006435Y009140D03*
X006681Y009411D03*
X006927Y009140D03*
X007174Y009411D03*
X007420Y009140D03*
X007666Y009411D03*
X007912Y009140D03*
X008158Y009411D03*
X008158Y009780D03*
X008712Y010177D03*
X008705Y008229D03*
X001032Y009864D03*
X001020Y010217D03*
X000505Y010205D03*
D11*
X000460Y000423D02*
X003112Y000423D01*
X003110Y000424D02*
X003179Y000355D01*
X000527Y000355D01*
X000380Y000502D01*
X000380Y005805D01*
X001610Y005805D01*
X001610Y005774D01*
X001724Y005660D01*
X001886Y005660D01*
X002000Y005774D01*
X002000Y005805D01*
X003405Y005805D01*
X003405Y007605D01*
X005705Y007605D01*
X005705Y006100D01*
X005674Y006100D01*
X005560Y005986D01*
X005560Y005824D01*
X005674Y005710D01*
X005836Y005710D01*
X005931Y005805D01*
X007129Y005805D01*
X007110Y005786D01*
X007110Y005624D01*
X007224Y005510D01*
X007386Y005510D01*
X007500Y005624D01*
X007500Y005786D01*
X007481Y005805D01*
X008105Y005805D01*
X008105Y006755D01*
X008980Y006755D01*
X008980Y000502D01*
X008833Y000355D01*
X006981Y000355D01*
X007050Y000424D01*
X007050Y000586D01*
X006936Y000700D01*
X006774Y000700D01*
X006660Y000586D01*
X006660Y000424D01*
X006729Y000355D01*
X003431Y000355D01*
X003500Y000424D01*
X003500Y000586D01*
X003386Y000700D01*
X003224Y000700D01*
X003110Y000586D01*
X003110Y000424D01*
X003110Y000471D02*
X000411Y000471D01*
X000380Y000520D02*
X003110Y000520D01*
X003110Y000568D02*
X000380Y000568D01*
X000380Y000617D02*
X003141Y000617D01*
X003189Y000665D02*
X000380Y000665D01*
X000380Y000714D02*
X008980Y000714D01*
X008980Y000762D02*
X000380Y000762D01*
X000380Y000811D02*
X008980Y000811D01*
X008980Y000859D02*
X000380Y000859D01*
X000380Y000908D02*
X003652Y000908D01*
X003674Y000885D02*
X003836Y000885D01*
X003950Y000999D01*
X003950Y001161D01*
X003836Y001275D01*
X003674Y001275D01*
X003560Y001161D01*
X003560Y000999D01*
X003674Y000885D01*
X003603Y000956D02*
X000380Y000956D01*
X000380Y001005D02*
X003560Y001005D01*
X003560Y001053D02*
X000380Y001053D01*
X000380Y001102D02*
X003560Y001102D01*
X003560Y001150D02*
X000380Y001150D01*
X000380Y001199D02*
X003598Y001199D01*
X003646Y001247D02*
X000380Y001247D01*
X000380Y001296D02*
X008620Y001296D01*
X008624Y001300D02*
X008510Y001186D01*
X008510Y001024D01*
X008624Y000910D01*
X008786Y000910D01*
X008900Y001024D01*
X008900Y001186D01*
X008786Y001300D01*
X008624Y001300D01*
X008571Y001247D02*
X003864Y001247D01*
X003912Y001199D02*
X008523Y001199D01*
X008510Y001150D02*
X003950Y001150D01*
X003950Y001102D02*
X008510Y001102D01*
X008510Y001053D02*
X003950Y001053D01*
X003950Y001005D02*
X008530Y001005D01*
X008578Y000956D02*
X003907Y000956D01*
X003858Y000908D02*
X008980Y000908D01*
X008980Y000956D02*
X008832Y000956D01*
X008880Y001005D02*
X008980Y001005D01*
X008980Y001053D02*
X008900Y001053D01*
X008900Y001102D02*
X008980Y001102D01*
X008980Y001150D02*
X008900Y001150D01*
X008887Y001199D02*
X008980Y001199D01*
X008980Y001247D02*
X008839Y001247D01*
X008790Y001296D02*
X008980Y001296D01*
X008980Y001344D02*
X000380Y001344D01*
X000380Y001393D02*
X008980Y001393D01*
X008980Y001441D02*
X000380Y001441D01*
X000380Y001490D02*
X008980Y001490D01*
X008980Y001538D02*
X000380Y001538D01*
X000380Y001587D02*
X008980Y001587D01*
X008980Y001635D02*
X000380Y001635D01*
X000380Y001684D02*
X008980Y001684D01*
X008980Y001732D02*
X000380Y001732D01*
X000380Y001781D02*
X008980Y001781D01*
X008980Y001829D02*
X000380Y001829D01*
X000380Y001878D02*
X008980Y001878D01*
X008980Y001926D02*
X000380Y001926D01*
X000380Y001975D02*
X008980Y001975D01*
X008980Y002023D02*
X000380Y002023D01*
X000380Y002072D02*
X008980Y002072D01*
X008980Y002120D02*
X003383Y002120D01*
X003348Y002085D02*
X003462Y002199D01*
X003462Y002361D01*
X003348Y002475D01*
X003187Y002475D01*
X003073Y002361D01*
X003073Y002199D01*
X003187Y002085D01*
X003348Y002085D01*
X003432Y002169D02*
X008980Y002169D01*
X008980Y002217D02*
X003462Y002217D01*
X003462Y002266D02*
X008980Y002266D01*
X008980Y002314D02*
X003462Y002314D01*
X003461Y002363D02*
X008980Y002363D01*
X008980Y002411D02*
X003412Y002411D01*
X003364Y002460D02*
X008980Y002460D01*
X008980Y002508D02*
X000380Y002508D01*
X000380Y002460D02*
X003171Y002460D01*
X003123Y002411D02*
X000380Y002411D01*
X000380Y002363D02*
X003074Y002363D01*
X003073Y002314D02*
X000380Y002314D01*
X000380Y002266D02*
X003073Y002266D01*
X003073Y002217D02*
X000380Y002217D01*
X000380Y002169D02*
X003103Y002169D01*
X003152Y002120D02*
X000380Y002120D01*
X000380Y002557D02*
X003303Y002557D01*
X003324Y002535D02*
X003486Y002535D01*
X003600Y002649D01*
X003600Y002811D01*
X003486Y002925D01*
X003324Y002925D01*
X003210Y002811D01*
X003210Y002649D01*
X003324Y002535D01*
X003254Y002605D02*
X000380Y002605D01*
X000380Y002654D02*
X003210Y002654D01*
X003210Y002702D02*
X000380Y002702D01*
X000380Y002751D02*
X003210Y002751D01*
X003210Y002799D02*
X000380Y002799D01*
X000380Y002848D02*
X003247Y002848D01*
X003295Y002896D02*
X000380Y002896D01*
X000380Y002945D02*
X006790Y002945D01*
X006760Y002974D02*
X006874Y002860D01*
X007036Y002860D01*
X007150Y002974D01*
X007150Y003136D01*
X007036Y003250D01*
X006874Y003250D01*
X006760Y003136D01*
X006760Y002974D01*
X006760Y002993D02*
X000380Y002993D01*
X000380Y003042D02*
X006760Y003042D01*
X006760Y003090D02*
X000380Y003090D01*
X000380Y003139D02*
X006763Y003139D01*
X006811Y003187D02*
X000380Y003187D01*
X000380Y003236D02*
X006860Y003236D01*
X007050Y003236D02*
X007827Y003236D01*
X007807Y003284D02*
X000380Y003284D01*
X000380Y003333D02*
X007803Y003333D01*
X007803Y003294D02*
X007856Y003165D01*
X007956Y003066D01*
X008085Y003012D01*
X008225Y003012D01*
X008354Y003066D01*
X008454Y003165D01*
X008507Y003294D01*
X008507Y003434D01*
X008454Y003564D01*
X008354Y003663D01*
X008225Y003717D01*
X008085Y003717D01*
X007956Y003663D01*
X007856Y003564D01*
X007803Y003434D01*
X007803Y003294D01*
X007803Y003381D02*
X000380Y003381D01*
X000380Y003430D02*
X007803Y003430D01*
X007821Y003478D02*
X000380Y003478D01*
X000380Y003527D02*
X006833Y003527D01*
X006849Y003510D02*
X006735Y003624D01*
X006735Y003786D01*
X006849Y003900D01*
X007011Y003900D01*
X007125Y003786D01*
X007125Y003624D01*
X007011Y003510D01*
X006849Y003510D01*
X006784Y003575D02*
X000380Y003575D01*
X000380Y003624D02*
X003423Y003624D01*
X003462Y003585D02*
X003623Y003585D01*
X003737Y003699D01*
X003737Y003809D01*
X003762Y003785D01*
X003923Y003785D01*
X004037Y003899D01*
X004037Y004034D01*
X004062Y004010D01*
X004223Y004010D01*
X004337Y004124D01*
X004337Y004284D01*
X004387Y004235D01*
X004548Y004235D01*
X004662Y004349D01*
X004662Y004511D01*
X004548Y004625D01*
X004387Y004625D01*
X004273Y004511D01*
X004273Y004351D01*
X004272Y004351D01*
X004273Y004351D02*
X004223Y004400D01*
X004062Y004400D01*
X003948Y004286D01*
X003948Y004151D01*
X003923Y004175D01*
X003762Y004175D01*
X003648Y004061D01*
X003648Y003951D01*
X003623Y003975D01*
X003462Y003975D01*
X003348Y003861D01*
X003348Y003699D01*
X003462Y003585D01*
X003375Y003672D02*
X000380Y003672D01*
X000380Y003721D02*
X003348Y003721D01*
X003348Y003769D02*
X000380Y003769D01*
X000380Y003818D02*
X001692Y003818D01*
X001724Y003785D02*
X001610Y003899D01*
X001610Y004061D01*
X001724Y004175D01*
X001886Y004175D01*
X002000Y004061D01*
X002000Y003899D01*
X001886Y003785D01*
X001724Y003785D01*
X001643Y003866D02*
X000380Y003866D01*
X000380Y003915D02*
X001610Y003915D01*
X001610Y003963D02*
X000380Y003963D01*
X000380Y004012D02*
X001610Y004012D01*
X001610Y004060D02*
X000380Y004060D01*
X000380Y004109D02*
X001658Y004109D01*
X001706Y004157D02*
X000380Y004157D01*
X000380Y004206D02*
X003948Y004206D01*
X003948Y004254D02*
X000380Y004254D01*
X000380Y004303D02*
X003964Y004303D01*
X004013Y004351D02*
X000380Y004351D01*
X000380Y004400D02*
X004061Y004400D01*
X004224Y004400D02*
X004273Y004400D01*
X004273Y004448D02*
X000380Y004448D01*
X000380Y004497D02*
X004273Y004497D01*
X004307Y004545D02*
X000380Y004545D01*
X000380Y004594D02*
X004355Y004594D01*
X004580Y004594D02*
X007803Y004594D01*
X007803Y004616D02*
X007803Y004476D01*
X007856Y004346D01*
X007956Y004247D01*
X008085Y004193D01*
X008225Y004193D01*
X008354Y004247D01*
X008454Y004346D01*
X008507Y004476D01*
X008507Y004616D01*
X008454Y004745D01*
X008354Y004844D01*
X008225Y004898D01*
X008085Y004898D01*
X007956Y004844D01*
X007856Y004745D01*
X007803Y004616D01*
X007814Y004642D02*
X000380Y004642D01*
X000380Y004691D02*
X007834Y004691D01*
X007854Y004739D02*
X000380Y004739D01*
X000380Y004788D02*
X007899Y004788D01*
X007947Y004836D02*
X000380Y004836D01*
X000380Y004885D02*
X008053Y004885D01*
X008257Y004885D02*
X008980Y004885D01*
X008980Y004933D02*
X000380Y004933D01*
X000380Y004982D02*
X008980Y004982D01*
X008980Y005030D02*
X005806Y005030D01*
X005786Y005010D02*
X005900Y005124D01*
X005900Y005286D01*
X005786Y005400D01*
X005624Y005400D01*
X005510Y005286D01*
X005510Y005124D01*
X005624Y005010D01*
X005786Y005010D01*
X005854Y005079D02*
X008980Y005079D01*
X008980Y005127D02*
X005900Y005127D01*
X005900Y005176D02*
X008980Y005176D01*
X008980Y005224D02*
X005900Y005224D01*
X005900Y005273D02*
X008980Y005273D01*
X008980Y005321D02*
X005865Y005321D01*
X005816Y005370D02*
X008980Y005370D01*
X008980Y005418D02*
X000380Y005418D01*
X000380Y005370D02*
X003294Y005370D01*
X003324Y005400D02*
X003210Y005286D01*
X003210Y005124D01*
X003324Y005010D01*
X003486Y005010D01*
X003600Y005124D01*
X003600Y005286D01*
X003486Y005400D01*
X003324Y005400D01*
X003245Y005321D02*
X000380Y005321D01*
X000380Y005273D02*
X003210Y005273D01*
X003210Y005224D02*
X000380Y005224D01*
X000380Y005176D02*
X003210Y005176D01*
X003210Y005127D02*
X000380Y005127D01*
X000380Y005079D02*
X003256Y005079D01*
X003304Y005030D02*
X000380Y005030D01*
X000380Y005467D02*
X008980Y005467D01*
X008980Y005515D02*
X007391Y005515D01*
X007439Y005564D02*
X008980Y005564D01*
X008980Y005612D02*
X007488Y005612D01*
X007500Y005661D02*
X008980Y005661D01*
X008980Y005709D02*
X007500Y005709D01*
X007500Y005758D02*
X008980Y005758D01*
X008980Y005806D02*
X008105Y005806D01*
X008105Y005855D02*
X008980Y005855D01*
X008980Y005903D02*
X008105Y005903D01*
X008105Y005952D02*
X008980Y005952D01*
X008980Y006000D02*
X008105Y006000D01*
X008105Y006049D02*
X008980Y006049D01*
X008980Y006097D02*
X008105Y006097D01*
X008105Y006146D02*
X008980Y006146D01*
X008980Y006194D02*
X008105Y006194D01*
X008105Y006243D02*
X008980Y006243D01*
X008980Y006291D02*
X008105Y006291D01*
X008105Y006340D02*
X008980Y006340D01*
X008980Y006388D02*
X008105Y006388D01*
X008105Y006437D02*
X008980Y006437D01*
X008980Y006485D02*
X008105Y006485D01*
X008105Y006534D02*
X008980Y006534D01*
X008980Y006582D02*
X008105Y006582D01*
X008105Y006631D02*
X008980Y006631D01*
X008980Y006679D02*
X008105Y006679D01*
X008105Y006728D02*
X008980Y006728D01*
X008980Y004836D02*
X008363Y004836D01*
X008411Y004788D02*
X008980Y004788D01*
X008980Y004739D02*
X008456Y004739D01*
X008476Y004691D02*
X008980Y004691D01*
X008980Y004642D02*
X008496Y004642D01*
X008507Y004594D02*
X008980Y004594D01*
X008980Y004545D02*
X008507Y004545D01*
X008507Y004497D02*
X008980Y004497D01*
X008980Y004448D02*
X008496Y004448D01*
X008476Y004400D02*
X008980Y004400D01*
X008980Y004351D02*
X008456Y004351D01*
X008410Y004303D02*
X008980Y004303D01*
X008980Y004254D02*
X008362Y004254D01*
X008254Y004206D02*
X008980Y004206D01*
X008980Y004157D02*
X004337Y004157D01*
X004337Y004206D02*
X008056Y004206D01*
X007948Y004254D02*
X004567Y004254D01*
X004616Y004303D02*
X007900Y004303D01*
X007854Y004351D02*
X004662Y004351D01*
X004662Y004400D02*
X007834Y004400D01*
X007814Y004448D02*
X004662Y004448D01*
X004662Y004497D02*
X007803Y004497D01*
X007803Y004545D02*
X004628Y004545D01*
X004368Y004254D02*
X004337Y004254D01*
X004322Y004109D02*
X008980Y004109D01*
X008980Y004060D02*
X004273Y004060D01*
X004225Y004012D02*
X008980Y004012D01*
X008980Y003963D02*
X004037Y003963D01*
X004037Y003915D02*
X008980Y003915D01*
X008980Y003866D02*
X007045Y003866D01*
X007093Y003818D02*
X008980Y003818D01*
X008980Y003769D02*
X007125Y003769D01*
X007125Y003721D02*
X008980Y003721D01*
X008980Y003672D02*
X008333Y003672D01*
X008394Y003624D02*
X008980Y003624D01*
X008980Y003575D02*
X008442Y003575D01*
X008469Y003527D02*
X008980Y003527D01*
X008980Y003478D02*
X008489Y003478D01*
X008507Y003430D02*
X008980Y003430D01*
X008980Y003381D02*
X008507Y003381D01*
X008507Y003333D02*
X008980Y003333D01*
X008980Y003284D02*
X008503Y003284D01*
X008483Y003236D02*
X008980Y003236D01*
X008980Y003187D02*
X008463Y003187D01*
X008427Y003139D02*
X008980Y003139D01*
X008980Y003090D02*
X008379Y003090D01*
X008296Y003042D02*
X008980Y003042D01*
X008980Y002993D02*
X007150Y002993D01*
X007150Y003042D02*
X008014Y003042D01*
X007931Y003090D02*
X007150Y003090D01*
X007147Y003139D02*
X007883Y003139D01*
X007847Y003187D02*
X007099Y003187D01*
X007120Y002945D02*
X008980Y002945D01*
X008980Y002896D02*
X007072Y002896D01*
X006838Y002896D02*
X003515Y002896D01*
X003563Y002848D02*
X008980Y002848D01*
X008980Y002799D02*
X003600Y002799D01*
X003600Y002751D02*
X008980Y002751D01*
X008980Y002702D02*
X003600Y002702D01*
X003600Y002654D02*
X008980Y002654D01*
X008980Y002605D02*
X003556Y002605D01*
X003507Y002557D02*
X008980Y002557D01*
X007977Y003672D02*
X007125Y003672D01*
X007124Y003624D02*
X007916Y003624D01*
X007868Y003575D02*
X007076Y003575D01*
X007027Y003527D02*
X007841Y003527D01*
X006815Y003866D02*
X004004Y003866D01*
X003956Y003818D02*
X006767Y003818D01*
X006735Y003769D02*
X003737Y003769D01*
X003737Y003721D02*
X006735Y003721D01*
X006735Y003672D02*
X003710Y003672D01*
X003662Y003624D02*
X006736Y003624D01*
X005604Y005030D02*
X005068Y005030D01*
X005023Y004985D02*
X005137Y005099D01*
X005137Y005261D01*
X005023Y005375D01*
X004862Y005375D01*
X004755Y005268D01*
X004648Y005375D01*
X004487Y005375D01*
X004374Y005262D01*
X004261Y005375D01*
X004099Y005375D01*
X003985Y005261D01*
X003985Y005099D01*
X004099Y004985D01*
X004261Y004985D01*
X004374Y005098D01*
X004487Y004985D01*
X004648Y004985D01*
X004755Y005092D01*
X004862Y004985D01*
X005023Y004985D01*
X005117Y005079D02*
X005556Y005079D01*
X005510Y005127D02*
X005137Y005127D01*
X005137Y005176D02*
X005510Y005176D01*
X005510Y005224D02*
X005137Y005224D01*
X005126Y005273D02*
X005510Y005273D01*
X005545Y005321D02*
X005077Y005321D01*
X005029Y005370D02*
X005594Y005370D01*
X005627Y005758D02*
X001983Y005758D01*
X001935Y005709D02*
X007110Y005709D01*
X007110Y005661D02*
X001886Y005661D01*
X001724Y005661D02*
X000380Y005661D01*
X000380Y005709D02*
X001675Y005709D01*
X001627Y005758D02*
X000380Y005758D01*
X000380Y005612D02*
X007122Y005612D01*
X007171Y005564D02*
X000380Y005564D01*
X000380Y005515D02*
X007219Y005515D01*
X007110Y005758D02*
X005883Y005758D01*
X005623Y006049D02*
X003405Y006049D01*
X003405Y006097D02*
X005671Y006097D01*
X005705Y006146D02*
X003405Y006146D01*
X003405Y006194D02*
X005705Y006194D01*
X005705Y006243D02*
X003405Y006243D01*
X003405Y006291D02*
X005705Y006291D01*
X005705Y006340D02*
X003405Y006340D01*
X003405Y006388D02*
X005705Y006388D01*
X005705Y006437D02*
X003405Y006437D01*
X003405Y006485D02*
X005705Y006485D01*
X005705Y006534D02*
X003405Y006534D01*
X003405Y006582D02*
X005705Y006582D01*
X005705Y006631D02*
X003405Y006631D01*
X003405Y006679D02*
X005705Y006679D01*
X005705Y006728D02*
X003405Y006728D01*
X003405Y006776D02*
X005705Y006776D01*
X005705Y006825D02*
X003405Y006825D01*
X003405Y006873D02*
X005705Y006873D01*
X005705Y006922D02*
X003405Y006922D01*
X003405Y006970D02*
X005705Y006970D01*
X005705Y007019D02*
X003405Y007019D01*
X003405Y007067D02*
X005705Y007067D01*
X005705Y007116D02*
X003405Y007116D01*
X003405Y007164D02*
X005705Y007164D01*
X005705Y007213D02*
X003405Y007213D01*
X003405Y007261D02*
X005705Y007261D01*
X005705Y007310D02*
X003405Y007310D01*
X003405Y007358D02*
X005705Y007358D01*
X005705Y007407D02*
X003405Y007407D01*
X003405Y007455D02*
X005705Y007455D01*
X005705Y007504D02*
X003405Y007504D01*
X003405Y007552D02*
X005705Y007552D01*
X005705Y007601D02*
X003405Y007601D01*
X003405Y006000D02*
X005574Y006000D01*
X005560Y005952D02*
X003405Y005952D01*
X003405Y005903D02*
X005560Y005903D01*
X005560Y005855D02*
X003405Y005855D01*
X003405Y005806D02*
X005578Y005806D01*
X004856Y005370D02*
X004654Y005370D01*
X004702Y005321D02*
X004808Y005321D01*
X004759Y005273D02*
X004751Y005273D01*
X004742Y005079D02*
X004768Y005079D01*
X004817Y005030D02*
X004693Y005030D01*
X004442Y005030D02*
X004306Y005030D01*
X004354Y005079D02*
X004393Y005079D01*
X004384Y005273D02*
X004363Y005273D01*
X004315Y005321D02*
X004433Y005321D01*
X004481Y005370D02*
X004266Y005370D01*
X004094Y005370D02*
X003516Y005370D01*
X003565Y005321D02*
X004045Y005321D01*
X003997Y005273D02*
X003600Y005273D01*
X003600Y005224D02*
X003985Y005224D01*
X003985Y005176D02*
X003600Y005176D01*
X003600Y005127D02*
X003985Y005127D01*
X004006Y005079D02*
X003554Y005079D01*
X003506Y005030D02*
X004054Y005030D01*
X003948Y004157D02*
X003941Y004157D01*
X004037Y004012D02*
X004060Y004012D01*
X003744Y004157D02*
X001904Y004157D01*
X001952Y004109D02*
X003695Y004109D01*
X003648Y004060D02*
X002000Y004060D01*
X002000Y004012D02*
X003648Y004012D01*
X003648Y003963D02*
X003635Y003963D01*
X003450Y003963D02*
X002000Y003963D01*
X002000Y003915D02*
X003401Y003915D01*
X003353Y003866D02*
X001967Y003866D01*
X001918Y003818D02*
X003348Y003818D01*
X003421Y000665D02*
X006739Y000665D01*
X006691Y000617D02*
X003469Y000617D01*
X003500Y000568D02*
X006660Y000568D01*
X006660Y000520D02*
X003500Y000520D01*
X003500Y000471D02*
X006660Y000471D01*
X006662Y000423D02*
X003498Y000423D01*
X003450Y000374D02*
X006710Y000374D01*
X007000Y000374D02*
X008852Y000374D01*
X008900Y000423D02*
X007048Y000423D01*
X007050Y000471D02*
X008949Y000471D01*
X008980Y000520D02*
X007050Y000520D01*
X007050Y000568D02*
X008980Y000568D01*
X008980Y000617D02*
X007019Y000617D01*
X006971Y000665D02*
X008980Y000665D01*
X003160Y000374D02*
X000508Y000374D01*
D12*
X000805Y006305D03*
X008555Y006305D03*
M02*
