G75*
%MOIN*%
%OFA0B0*%
%FSLAX25Y25*%
%IPPOS*%
%LPD*%
%AMOC8*
5,1,8,0,0,1.08239X$1,22.5*
%
%ADD10C,0.01000*%
%ADD11C,0.00600*%
%ADD12C,0.00787*%
%ADD13R,1.10236X0.41732*%
%ADD14C,0.00500*%
%ADD15C,0.00700*%
%ADD16R,0.06299X0.01250*%
%ADD17R,0.04800X0.01400*%
%ADD18C,0.00300*%
D10*
X0532799Y0111577D02*
X0535284Y0111577D01*
X0536527Y0112819D01*
X0535284Y0114062D01*
X0532799Y0114062D01*
X0534663Y0114062D02*
X0534663Y0111577D01*
X0536527Y0115927D02*
X0532799Y0118412D01*
X0536527Y0118412D01*
X0535284Y0120277D02*
X0536527Y0121519D01*
X0535284Y0122762D01*
X0532799Y0122762D01*
X0534663Y0122762D02*
X0534663Y0120277D01*
X0535284Y0120277D02*
X0532799Y0120277D01*
X0532799Y0124627D02*
X0532799Y0127112D01*
X0533420Y0128977D02*
X0532799Y0129598D01*
X0532799Y0130841D01*
X0533420Y0131462D01*
X0535906Y0131462D01*
X0536527Y0130841D01*
X0536527Y0129598D01*
X0535906Y0128977D01*
X0533420Y0128977D01*
X0533420Y0133327D02*
X0532799Y0133949D01*
X0532799Y0135191D01*
X0533420Y0135812D01*
X0534663Y0135812D01*
X0534663Y0134570D01*
X0535906Y0135812D02*
X0536527Y0135191D01*
X0536527Y0133949D01*
X0535906Y0133327D01*
X0533420Y0133327D01*
X0532799Y0124627D02*
X0536527Y0124627D01*
X0536527Y0115927D02*
X0532799Y0115927D01*
X0532799Y0142028D02*
X0532799Y0143270D01*
X0532799Y0142649D02*
X0536527Y0142649D01*
X0536527Y0142028D02*
X0536527Y0143270D01*
X0532799Y0144928D02*
X0536527Y0147413D01*
X0535906Y0149278D02*
X0533420Y0149278D01*
X0532799Y0149899D01*
X0532799Y0151142D01*
X0533420Y0151763D01*
X0535906Y0151763D01*
X0536527Y0151142D01*
X0536527Y0149899D01*
X0535906Y0149278D01*
X0579075Y0156545D02*
X0579075Y0159030D01*
X0579696Y0159652D01*
X0581560Y0159652D01*
X0581560Y0155924D01*
X0579696Y0155924D01*
X0579075Y0156545D01*
X0583425Y0155924D02*
X0583425Y0159652D01*
X0585910Y0159652D02*
X0583425Y0155924D01*
X0585910Y0155924D02*
X0585910Y0159652D01*
X0587775Y0159030D02*
X0588397Y0159652D01*
X0589639Y0159652D01*
X0590260Y0159030D01*
X0590260Y0156545D01*
X0589639Y0155924D01*
X0588397Y0155924D01*
X0587775Y0156545D01*
X0587775Y0157788D01*
X0589018Y0157788D01*
X0592126Y0157788D02*
X0594611Y0157788D01*
X0594611Y0158409D02*
X0593368Y0159652D01*
X0592126Y0158409D01*
X0592126Y0155924D01*
X0594611Y0155924D02*
X0594611Y0158409D01*
X0597970Y0160220D02*
X0599727Y0161977D01*
X0599727Y0160220D02*
X0597970Y0161977D01*
X0596651Y0163296D02*
X0596212Y0164614D01*
X0595772Y0165053D01*
X0594894Y0165053D01*
X0594015Y0164174D01*
X0594015Y0163296D01*
X0594894Y0162417D01*
X0595772Y0162417D01*
X0596651Y0163296D02*
X0597969Y0164614D01*
X0596212Y0166371D01*
X0594893Y0167690D02*
X0593136Y0165933D01*
X0591378Y0165933D01*
X0591378Y0167690D01*
X0593136Y0169447D01*
X0596927Y0169439D02*
X0596927Y0171196D01*
X0598684Y0172953D01*
X0600441Y0171196D02*
X0598684Y0169439D01*
X0596927Y0169439D01*
X0599564Y0167681D02*
X0599564Y0166802D01*
X0600442Y0165924D01*
X0601321Y0165924D01*
X0601321Y0167681D02*
X0600882Y0168120D01*
X0600003Y0168120D01*
X0599564Y0167681D01*
X0600882Y0168120D02*
X0600882Y0168999D01*
X0601321Y0169438D01*
X0602200Y0169438D01*
X0603078Y0168560D01*
X0603078Y0167681D01*
X0604627Y0169739D02*
X0604627Y0171497D01*
X0606384Y0173254D01*
X0608141Y0171497D02*
X0606384Y0169739D01*
X0604627Y0169739D01*
X0607264Y0167981D02*
X0607264Y0167103D01*
X0608142Y0166224D01*
X0609021Y0166224D01*
X0609021Y0167981D02*
X0608582Y0168421D01*
X0607703Y0168421D01*
X0607264Y0167981D01*
X0608582Y0168421D02*
X0608582Y0169299D01*
X0609021Y0169738D01*
X0609900Y0169738D01*
X0610778Y0168860D01*
X0610778Y0167981D01*
X0613415Y0166223D02*
X0610779Y0163587D01*
X0611658Y0162709D02*
X0609901Y0164466D01*
X0608352Y0162407D02*
X0606594Y0160650D01*
X0606594Y0162407D02*
X0608352Y0160650D01*
X0605715Y0164166D02*
X0605715Y0165923D01*
X0603079Y0163287D01*
X0602201Y0164166D02*
X0603958Y0162408D01*
X0613415Y0164466D02*
X0613415Y0166223D01*
X0614294Y0162708D02*
X0616052Y0160951D01*
X0720024Y0180187D02*
X0720024Y0181430D01*
X0720645Y0182051D01*
X0720024Y0180187D02*
X0720645Y0179566D01*
X0721266Y0179566D01*
X0723751Y0182051D01*
X0723751Y0179566D01*
X0723751Y0183605D02*
X0723751Y0184226D01*
X0723130Y0184226D01*
X0723130Y0183605D01*
X0723751Y0183605D01*
X0723751Y0186091D02*
X0723751Y0188576D01*
X0723751Y0187334D02*
X0720024Y0187334D01*
X0721266Y0188576D01*
X0727110Y0189664D02*
X0730838Y0189664D01*
X0730838Y0187179D01*
X0734197Y0188576D02*
X0737924Y0188576D01*
X0737924Y0186091D01*
X0737303Y0184226D02*
X0734818Y0184226D01*
X0734197Y0183605D01*
X0734197Y0182362D01*
X0734818Y0181741D01*
X0736061Y0181741D01*
X0736682Y0182362D01*
X0735439Y0182362D01*
X0735439Y0183605D01*
X0736682Y0183605D01*
X0736682Y0182362D01*
X0737303Y0181741D02*
X0737924Y0182362D01*
X0737924Y0183605D01*
X0737303Y0184226D01*
X0737924Y0179876D02*
X0734197Y0179876D01*
X0735439Y0178633D01*
X0734197Y0177391D01*
X0737924Y0177391D01*
X0737924Y0175526D02*
X0737924Y0174283D01*
X0737924Y0174904D02*
X0734197Y0174904D01*
X0734197Y0174283D02*
X0734197Y0175526D01*
X0734197Y0172626D02*
X0734197Y0170141D01*
X0734197Y0171383D02*
X0737924Y0171383D01*
X0730838Y0171642D02*
X0730838Y0172263D01*
X0730217Y0172263D01*
X0730217Y0171642D01*
X0730838Y0171642D01*
X0730838Y0170088D02*
X0728353Y0167603D01*
X0727731Y0167603D01*
X0727110Y0168224D01*
X0727110Y0169467D01*
X0727731Y0170088D01*
X0730838Y0170088D02*
X0730838Y0167603D01*
X0730838Y0174128D02*
X0730838Y0176613D01*
X0730838Y0175371D02*
X0727110Y0175371D01*
X0728353Y0176613D01*
X0728353Y0178478D02*
X0730838Y0179721D01*
X0728353Y0180963D01*
X0741283Y0186712D02*
X0741905Y0186091D01*
X0742526Y0186091D01*
X0743147Y0186712D01*
X0743147Y0187955D01*
X0742526Y0188576D01*
X0741905Y0188576D01*
X0741283Y0187955D01*
X0741283Y0186712D01*
X0743147Y0186712D02*
X0743768Y0186091D01*
X0744390Y0186091D01*
X0745011Y0186712D01*
X0745011Y0187955D01*
X0744390Y0188576D01*
X0743768Y0188576D01*
X0743147Y0187955D01*
X0745011Y0190441D02*
X0745011Y0192926D01*
X0745011Y0191684D02*
X0741283Y0191684D01*
X0742526Y0192926D01*
X0741905Y0194791D02*
X0744390Y0197277D01*
X0745011Y0196655D01*
X0745011Y0195413D01*
X0744390Y0194791D01*
X0741905Y0194791D01*
X0741283Y0195413D01*
X0741283Y0196655D01*
X0741905Y0197277D01*
X0744390Y0197277D01*
X0745011Y0199142D02*
X0745011Y0201627D01*
X0742526Y0199142D01*
X0741905Y0199142D01*
X0741283Y0199763D01*
X0741283Y0201005D01*
X0741905Y0201627D01*
X0739167Y0204527D02*
X0737924Y0203284D01*
X0737924Y0203906D01*
X0737303Y0203906D01*
X0737303Y0203284D01*
X0737924Y0203284D01*
X0737924Y0206392D02*
X0734197Y0206392D01*
X0734197Y0208877D02*
X0737924Y0206392D01*
X0737924Y0208877D02*
X0734197Y0208877D01*
X0734818Y0210742D02*
X0736061Y0210742D01*
X0736682Y0211363D01*
X0736682Y0213227D01*
X0737924Y0213227D02*
X0734197Y0213227D01*
X0734197Y0211363D01*
X0734818Y0210742D01*
X0730838Y0211415D02*
X0727110Y0211415D01*
X0727110Y0209551D01*
X0727731Y0208930D01*
X0728974Y0208930D01*
X0729595Y0209551D01*
X0729595Y0211415D01*
X0729595Y0210172D02*
X0730838Y0208930D01*
X0730838Y0207064D02*
X0727110Y0207064D01*
X0730838Y0204579D01*
X0727110Y0204579D01*
X0723751Y0205667D02*
X0722509Y0206909D01*
X0722509Y0206288D02*
X0722509Y0208152D01*
X0723751Y0208152D02*
X0720024Y0208152D01*
X0720024Y0206288D01*
X0720645Y0205667D01*
X0721887Y0205667D01*
X0722509Y0206288D01*
X0722509Y0203802D02*
X0722509Y0201317D01*
X0721887Y0201317D01*
X0721266Y0201938D01*
X0721266Y0203181D01*
X0721887Y0203802D01*
X0723130Y0203802D01*
X0723751Y0203181D01*
X0723751Y0201938D01*
X0721266Y0199452D02*
X0723751Y0198209D01*
X0721266Y0196967D01*
X0723130Y0195101D02*
X0723130Y0194480D01*
X0723751Y0194480D01*
X0723751Y0195101D01*
X0723130Y0195101D01*
X0727110Y0194014D02*
X0730838Y0194014D01*
X0728974Y0194014D02*
X0728974Y0191529D01*
X0727110Y0191529D02*
X0730838Y0191529D01*
X0734197Y0190441D02*
X0737924Y0190441D01*
X0736682Y0191684D01*
X0737924Y0192926D01*
X0734197Y0192926D01*
X0734197Y0194791D02*
X0737924Y0194791D01*
X0737924Y0197277D02*
X0734197Y0197277D01*
X0735439Y0196034D01*
X0734197Y0194791D01*
X0730838Y0196500D02*
X0730217Y0195879D01*
X0727731Y0195879D01*
X0727110Y0196500D01*
X0727110Y0197743D01*
X0727731Y0198364D01*
X0730217Y0198364D01*
X0730838Y0197743D01*
X0730838Y0196500D01*
X0758750Y0195568D02*
X0758750Y0194325D01*
X0759372Y0193704D01*
X0759993Y0193704D01*
X0759993Y0196189D01*
X0760614Y0196189D02*
X0759372Y0196189D01*
X0758750Y0195568D01*
X0760614Y0196189D02*
X0761235Y0195568D01*
X0761235Y0194325D01*
X0761235Y0191839D02*
X0758750Y0191839D01*
X0758750Y0190596D02*
X0758750Y0189975D01*
X0758750Y0190596D02*
X0759993Y0191839D01*
X0761235Y0188214D02*
X0757508Y0185729D01*
X0757508Y0183864D02*
X0757508Y0182621D01*
X0757508Y0183242D02*
X0761235Y0183242D01*
X0761235Y0182621D02*
X0761235Y0183864D01*
X0760614Y0180964D02*
X0761235Y0180342D01*
X0761235Y0179100D01*
X0760614Y0178478D01*
X0758129Y0178478D01*
X0757508Y0179100D01*
X0757508Y0180342D01*
X0758129Y0180964D01*
X0760614Y0180964D01*
X0761235Y0172263D02*
X0761235Y0170399D01*
X0760614Y0169778D01*
X0759993Y0169778D01*
X0759372Y0170399D01*
X0759372Y0172263D01*
X0761235Y0172263D02*
X0757508Y0172263D01*
X0757508Y0170399D01*
X0758129Y0169778D01*
X0758750Y0169778D01*
X0759372Y0170399D01*
X0759372Y0167913D02*
X0760614Y0167913D01*
X0761235Y0167292D01*
X0761235Y0166049D01*
X0760614Y0165428D01*
X0759372Y0165428D01*
X0758750Y0166049D01*
X0758750Y0167292D01*
X0759372Y0167913D01*
X0760614Y0163563D02*
X0759993Y0162942D01*
X0759993Y0161078D01*
X0759372Y0161078D02*
X0761235Y0161078D01*
X0761235Y0162942D01*
X0760614Y0163563D01*
X0758750Y0162942D02*
X0758750Y0161699D01*
X0759372Y0161078D01*
X0759993Y0159213D02*
X0758750Y0157970D01*
X0758750Y0157349D01*
X0758750Y0159213D02*
X0761235Y0159213D01*
X0760614Y0155588D02*
X0759372Y0155588D01*
X0758750Y0154966D01*
X0758750Y0153102D01*
X0757508Y0153102D02*
X0761235Y0153102D01*
X0761235Y0154966D01*
X0760614Y0155588D01*
X0752156Y0142795D02*
X0752156Y0140310D01*
X0753398Y0141553D02*
X0750913Y0141553D01*
X0749048Y0142795D02*
X0748427Y0143417D01*
X0747184Y0143417D01*
X0746563Y0142795D01*
X0746563Y0142174D01*
X0747184Y0141553D01*
X0746563Y0140931D01*
X0746563Y0140310D01*
X0747184Y0139689D01*
X0748427Y0139689D01*
X0749048Y0140310D01*
X0747805Y0141553D02*
X0747184Y0141553D01*
X0744698Y0140310D02*
X0744077Y0140310D01*
X0744077Y0139689D01*
X0744698Y0139689D01*
X0744698Y0140310D01*
X0742523Y0140310D02*
X0741901Y0139689D01*
X0740659Y0139689D01*
X0740038Y0140310D01*
X0740038Y0140931D01*
X0740659Y0141553D01*
X0741280Y0141553D01*
X0740659Y0141553D02*
X0740038Y0142174D01*
X0740038Y0142795D01*
X0740659Y0143417D01*
X0741901Y0143417D01*
X0742523Y0142795D01*
X0738173Y0143417D02*
X0738173Y0140931D01*
X0736930Y0139689D01*
X0735687Y0140931D01*
X0735687Y0143417D01*
X0739965Y0125306D02*
X0741829Y0125306D01*
X0741829Y0121579D01*
X0739965Y0121579D01*
X0739344Y0122200D01*
X0739344Y0124685D01*
X0739965Y0125306D01*
X0743694Y0125306D02*
X0743694Y0121579D01*
X0746179Y0125306D01*
X0746179Y0121579D01*
X0748044Y0122200D02*
X0748044Y0123443D01*
X0749287Y0123443D01*
X0750529Y0124685D02*
X0750529Y0122200D01*
X0749908Y0121579D01*
X0748665Y0121579D01*
X0748044Y0122200D01*
X0748044Y0124685D02*
X0748665Y0125306D01*
X0749908Y0125306D01*
X0750529Y0124685D01*
X0543049Y0189295D02*
X0541185Y0189295D01*
X0540564Y0189917D01*
X0540564Y0192402D01*
X0541185Y0193023D01*
X0543049Y0193023D01*
X0543049Y0189295D01*
X0538699Y0189917D02*
X0538077Y0189295D01*
X0536835Y0189295D01*
X0536214Y0189917D01*
X0536214Y0192402D01*
X0536835Y0193023D01*
X0538077Y0193023D01*
X0538699Y0192402D01*
X0538699Y0189917D01*
X0534349Y0189917D02*
X0531863Y0192402D01*
X0531863Y0189917D01*
X0532485Y0189295D01*
X0533727Y0189295D01*
X0534349Y0189917D01*
X0534349Y0192402D01*
X0533727Y0193023D01*
X0532485Y0193023D01*
X0531863Y0192402D01*
X0532195Y0205437D02*
X0534680Y0205437D01*
X0533437Y0205437D02*
X0533437Y0209165D01*
X0534680Y0207922D01*
X0536337Y0209165D02*
X0537580Y0209165D01*
X0536959Y0209165D02*
X0536959Y0205437D01*
X0537580Y0205437D02*
X0536337Y0205437D01*
X0539445Y0206058D02*
X0539445Y0208543D01*
X0540066Y0209165D01*
X0541930Y0209165D01*
X0541930Y0205437D01*
X0540066Y0205437D01*
X0539445Y0206058D01*
X0632402Y0204977D02*
X0633024Y0205599D01*
X0633645Y0205599D01*
X0634266Y0204977D01*
X0634266Y0203735D01*
X0634887Y0203114D01*
X0635509Y0203114D01*
X0636130Y0203735D01*
X0636130Y0204977D01*
X0635509Y0205599D01*
X0635509Y0207464D02*
X0636130Y0208085D01*
X0636130Y0209328D01*
X0635509Y0209949D01*
X0634266Y0209328D02*
X0634266Y0208085D01*
X0634887Y0207464D01*
X0635509Y0207464D01*
X0634266Y0209328D02*
X0633645Y0209949D01*
X0633024Y0209949D01*
X0632402Y0209328D01*
X0632402Y0208085D01*
X0633024Y0207464D01*
X0632402Y0204977D02*
X0632402Y0203735D01*
X0633024Y0203114D01*
X0637914Y0203114D02*
X0640399Y0205599D01*
X0639778Y0204977D02*
X0641642Y0203114D01*
X0641642Y0205599D02*
X0637914Y0205599D01*
X0638535Y0207464D02*
X0637914Y0208085D01*
X0637914Y0209328D01*
X0638535Y0209949D01*
X0641020Y0209949D01*
X0641642Y0209328D01*
X0641642Y0208085D01*
X0641020Y0207464D01*
X0641020Y0211814D02*
X0638535Y0211814D01*
X0637914Y0212435D01*
X0637914Y0213678D01*
X0638535Y0214299D01*
X0641020Y0214299D01*
X0641642Y0213678D01*
X0641642Y0212435D01*
X0641020Y0211814D01*
X0641642Y0216164D02*
X0641642Y0218649D01*
X0637914Y0218649D01*
X0636130Y0218649D02*
X0632402Y0218649D01*
X0632402Y0216785D01*
X0633024Y0216164D01*
X0634266Y0216164D01*
X0634887Y0216785D01*
X0634887Y0218649D01*
X0634266Y0214299D02*
X0634266Y0211814D01*
X0633645Y0211814D02*
X0636130Y0211814D01*
X0636130Y0214299D02*
X0633645Y0214299D01*
X0632402Y0213056D01*
X0633645Y0211814D01*
X0542324Y0221579D02*
X0540460Y0221579D01*
X0539839Y0222200D01*
X0539839Y0224685D01*
X0540460Y0225306D01*
X0542324Y0225306D01*
X0542324Y0221579D01*
X0537974Y0221579D02*
X0536731Y0221579D01*
X0537352Y0221579D02*
X0537352Y0225306D01*
X0536731Y0225306D02*
X0537974Y0225306D01*
X0535074Y0224685D02*
X0534452Y0225306D01*
X0533210Y0225306D01*
X0532589Y0224685D01*
X0535074Y0222200D01*
X0534452Y0221579D01*
X0533210Y0221579D01*
X0532589Y0222200D01*
X0532589Y0224685D01*
X0535074Y0224685D02*
X0535074Y0222200D01*
X0701529Y0241054D02*
X0704014Y0241054D01*
X0702772Y0241054D02*
X0702772Y0237327D01*
X0705879Y0237948D02*
X0705879Y0240433D01*
X0706500Y0241054D01*
X0707743Y0241054D01*
X0708364Y0240433D01*
X0708364Y0237948D01*
X0707743Y0237327D01*
X0706500Y0237327D01*
X0705879Y0237948D01*
X0710229Y0237327D02*
X0711472Y0238569D01*
X0710851Y0238569D02*
X0712714Y0238569D01*
X0712714Y0237327D02*
X0712714Y0241054D01*
X0710851Y0241054D01*
X0710229Y0240433D01*
X0710229Y0239191D01*
X0710851Y0238569D01*
X0714580Y0239191D02*
X0715201Y0238569D01*
X0717065Y0238569D01*
X0717065Y0237327D02*
X0717065Y0241054D01*
X0715201Y0241054D01*
X0714580Y0240433D01*
X0714580Y0239191D01*
X0718930Y0238569D02*
X0718930Y0241054D01*
X0718930Y0238569D02*
X0720172Y0237327D01*
X0721415Y0238569D01*
X0721415Y0241054D01*
X0734413Y0234361D02*
X0734413Y0231876D01*
X0735655Y0230634D01*
X0736898Y0231876D01*
X0736898Y0234361D01*
X0738763Y0233740D02*
X0739384Y0234361D01*
X0740627Y0234361D01*
X0741248Y0233740D01*
X0738763Y0233740D02*
X0738763Y0233119D01*
X0741248Y0230634D01*
X0738763Y0230634D01*
X0743113Y0230634D02*
X0745598Y0230634D01*
X0744356Y0230634D02*
X0744356Y0234361D01*
X0745598Y0233119D01*
X0747463Y0232498D02*
X0749948Y0232498D01*
X0748706Y0233740D02*
X0748706Y0231255D01*
X0757508Y0232752D02*
X0757508Y0234616D01*
X0761235Y0234616D01*
X0761235Y0232752D01*
X0760614Y0232131D01*
X0758129Y0232131D01*
X0757508Y0232752D01*
X0759372Y0230265D02*
X0758750Y0229644D01*
X0758750Y0228402D01*
X0759372Y0227780D01*
X0759993Y0227780D01*
X0759993Y0230265D01*
X0760614Y0230265D02*
X0759372Y0230265D01*
X0760614Y0230265D02*
X0761235Y0229644D01*
X0761235Y0228402D01*
X0761235Y0225915D02*
X0761235Y0224051D01*
X0760614Y0223430D01*
X0759993Y0224051D01*
X0759993Y0225294D01*
X0759372Y0225915D01*
X0758750Y0225294D01*
X0758750Y0223430D01*
X0759372Y0221565D02*
X0758750Y0220944D01*
X0758750Y0219701D01*
X0759372Y0219080D01*
X0759993Y0219080D01*
X0759993Y0221565D01*
X0760614Y0221565D02*
X0759372Y0221565D01*
X0760614Y0221565D02*
X0761235Y0220944D01*
X0761235Y0219701D01*
X0761235Y0217215D02*
X0758750Y0217215D01*
X0758750Y0215972D02*
X0758750Y0215351D01*
X0758750Y0215972D02*
X0759993Y0217215D01*
X0761235Y0213590D02*
X0761235Y0212347D01*
X0761235Y0212969D02*
X0758750Y0212969D01*
X0758750Y0213590D01*
X0757508Y0212969D02*
X0756887Y0212969D01*
X0758750Y0210068D02*
X0758750Y0208826D01*
X0759372Y0208205D01*
X0761235Y0208205D01*
X0761235Y0210068D01*
X0760614Y0210690D01*
X0759993Y0210068D01*
X0759993Y0208205D01*
X0761235Y0206339D02*
X0761235Y0205097D01*
X0761235Y0205718D02*
X0757508Y0205718D01*
X0757508Y0206339D01*
X0758750Y0203439D02*
X0758750Y0202818D01*
X0761235Y0202818D01*
X0761235Y0203439D02*
X0761235Y0202197D01*
X0761235Y0200539D02*
X0761235Y0198054D01*
X0758750Y0198054D02*
X0761235Y0200539D01*
X0758750Y0200539D02*
X0758750Y0198054D01*
X0757508Y0202818D02*
X0756887Y0202818D01*
X0734197Y0215092D02*
X0734197Y0216335D01*
X0734197Y0215714D02*
X0737303Y0215714D01*
X0737924Y0216335D01*
X0737924Y0216956D01*
X0737303Y0217577D01*
X0730838Y0218251D02*
X0730217Y0217630D01*
X0730838Y0218251D02*
X0730838Y0219494D01*
X0730217Y0220115D01*
X0727731Y0220115D01*
X0727110Y0219494D01*
X0727110Y0218251D01*
X0727731Y0217630D01*
X0727110Y0215765D02*
X0730838Y0215765D01*
X0730838Y0213280D01*
X0728974Y0214522D02*
X0728974Y0215765D01*
X0727110Y0215765D02*
X0727110Y0213280D01*
X0547330Y0263102D02*
X0544845Y0263102D01*
X0542979Y0263102D02*
X0541737Y0263102D01*
X0542358Y0263102D02*
X0542358Y0266830D01*
X0542979Y0266830D02*
X0541737Y0266830D01*
X0540079Y0266830D02*
X0537594Y0263102D01*
X0537594Y0266830D01*
X0535729Y0266830D02*
X0535729Y0263102D01*
X0535729Y0264345D02*
X0533244Y0266830D01*
X0535108Y0264966D02*
X0533244Y0263102D01*
X0540079Y0263102D02*
X0540079Y0266830D01*
X0547330Y0266830D02*
X0547330Y0263102D01*
X0665609Y0292506D02*
X0666851Y0291264D01*
X0668094Y0292506D01*
X0668094Y0294991D01*
X0669959Y0294991D02*
X0672444Y0294991D01*
X0672444Y0293128D01*
X0671201Y0293749D01*
X0670580Y0293749D01*
X0669959Y0293128D01*
X0669959Y0291885D01*
X0670580Y0291264D01*
X0671823Y0291264D01*
X0672444Y0291885D01*
X0673998Y0291885D02*
X0673998Y0291264D01*
X0674619Y0291264D01*
X0674619Y0291885D01*
X0673998Y0291885D01*
X0676484Y0291885D02*
X0677105Y0291264D01*
X0678348Y0291264D01*
X0678969Y0291885D01*
X0678969Y0293128D02*
X0677727Y0293749D01*
X0677105Y0293749D01*
X0676484Y0293128D01*
X0676484Y0291885D01*
X0678969Y0293128D02*
X0678969Y0294991D01*
X0676484Y0294991D01*
X0680834Y0293128D02*
X0683319Y0293128D01*
X0682077Y0294370D02*
X0682077Y0291885D01*
X0665609Y0292506D02*
X0665609Y0294991D01*
X0708164Y0294367D02*
X0708785Y0294988D01*
X0710028Y0294988D01*
X0710649Y0294367D01*
X0710649Y0293124D01*
X0709406Y0293124D01*
X0708164Y0291882D02*
X0708164Y0294367D01*
X0708164Y0291882D02*
X0708785Y0291261D01*
X0710028Y0291261D01*
X0710649Y0291882D01*
X0712514Y0291261D02*
X0714999Y0294988D01*
X0714999Y0291261D01*
X0716864Y0291261D02*
X0718728Y0291261D01*
X0719349Y0291882D01*
X0719349Y0294367D01*
X0718728Y0294988D01*
X0716864Y0294988D01*
X0716864Y0291261D01*
X0712514Y0291261D02*
X0712514Y0294988D01*
D11*
X0656315Y0278559D02*
X0637417Y0278559D01*
X0631906Y0284071D01*
X0616157Y0284071D01*
X0724425Y0243913D02*
X0724425Y0233677D01*
X0725075Y0236458D02*
X0727575Y0240601D01*
X0730075Y0236458D01*
X0725075Y0236458D01*
X0730724Y0233677D02*
X0730724Y0243913D01*
D12*
X0753165Y0240370D02*
X0766551Y0240370D01*
X0766551Y0147457D01*
X0753165Y0147457D01*
X0753165Y0240370D01*
X0750016Y0225803D02*
X0715370Y0225803D01*
X0715370Y0163205D01*
X0750016Y0163205D01*
X0750016Y0225803D01*
D13*
X0740173Y0095488D03*
D14*
X0678276Y0093063D02*
X0678276Y0101063D01*
X0664276Y0101063D01*
X0664276Y0093063D01*
X0678276Y0093063D01*
X0675476Y0101556D02*
X0675476Y0105956D01*
X0667076Y0105956D01*
X0667076Y0101556D01*
X0675476Y0101556D01*
X0677882Y0106449D02*
X0677882Y0114449D01*
X0663882Y0114449D01*
X0663882Y0106449D01*
X0677882Y0106449D01*
X0660909Y0116123D02*
X0652509Y0116123D01*
X0652509Y0120523D01*
X0660909Y0120523D01*
X0660909Y0116123D01*
X0647961Y0120622D02*
X0647961Y0128622D01*
X0633961Y0128622D01*
X0633961Y0120622D01*
X0647961Y0120622D01*
X0618039Y0118654D02*
X0618039Y0126654D01*
X0604039Y0126654D01*
X0604039Y0118654D01*
X0618039Y0118654D01*
X0615239Y0116980D02*
X0606839Y0116980D01*
X0606839Y0112580D01*
X0615239Y0112580D01*
X0615239Y0116980D01*
X0627512Y0129433D02*
X0635512Y0129433D01*
X0635512Y0143433D01*
X0627512Y0143433D01*
X0627512Y0129433D01*
X0635611Y0132233D02*
X0640011Y0132233D01*
X0640011Y0140633D01*
X0635611Y0140633D01*
X0635611Y0132233D01*
X0642228Y0132827D02*
X0642228Y0140827D01*
X0656228Y0140827D01*
X0656228Y0132827D01*
X0642228Y0132827D01*
X0619539Y0135776D02*
X0619539Y0144176D01*
X0615139Y0144176D01*
X0615139Y0135776D01*
X0619539Y0135776D01*
X0612452Y0135776D02*
X0612452Y0144176D01*
X0608052Y0144176D01*
X0608052Y0135776D01*
X0612452Y0135776D01*
X0605365Y0135776D02*
X0605365Y0144176D01*
X0600965Y0144176D01*
X0600965Y0135776D01*
X0605365Y0135776D01*
X0605365Y0144831D02*
X0600965Y0144831D01*
X0600965Y0153231D01*
X0605365Y0153231D01*
X0605365Y0144831D01*
X0608052Y0144831D02*
X0612452Y0144831D01*
X0612452Y0153231D01*
X0608052Y0153231D01*
X0608052Y0144831D01*
X0615139Y0145225D02*
X0619539Y0145225D01*
X0619539Y0153625D01*
X0615139Y0153625D01*
X0615139Y0145225D01*
X0627671Y0150453D02*
X0633328Y0144797D01*
X0643227Y0154696D01*
X0637570Y0160353D01*
X0627671Y0150453D01*
X0626940Y0156608D02*
X0632597Y0162265D01*
X0622698Y0172164D01*
X0617041Y0166507D01*
X0626940Y0156608D01*
X0645490Y0162972D02*
X0648602Y0159860D01*
X0654541Y0165800D01*
X0651430Y0168911D01*
X0645490Y0162972D01*
X0638751Y0168419D02*
X0644408Y0174076D01*
X0634509Y0183975D01*
X0628852Y0178318D01*
X0638751Y0168419D01*
X0638503Y0168170D02*
X0632846Y0162513D01*
X0622946Y0172413D01*
X0628603Y0178070D01*
X0638503Y0168170D01*
X0648537Y0152028D02*
X0658436Y0161928D01*
X0664093Y0156271D01*
X0654194Y0146371D01*
X0648537Y0152028D01*
X0647420Y0150407D02*
X0644309Y0147296D01*
X0650249Y0141356D01*
X0653360Y0144468D01*
X0647420Y0150407D01*
X0750036Y0133944D02*
X0750036Y0133194D01*
X0750786Y0132443D01*
X0750036Y0131692D01*
X0750036Y0130942D01*
X0750786Y0130191D01*
X0752288Y0130191D01*
X0753038Y0130942D01*
X0751537Y0132443D02*
X0750786Y0132443D01*
X0750036Y0133944D02*
X0750786Y0134695D01*
X0752288Y0134695D01*
X0753038Y0133944D01*
X0754640Y0133944D02*
X0754640Y0132443D01*
X0755390Y0131692D01*
X0757642Y0131692D01*
X0757642Y0130191D02*
X0757642Y0134695D01*
X0755390Y0134695D01*
X0754640Y0133944D01*
X0759244Y0134695D02*
X0762246Y0134695D01*
X0760745Y0134695D02*
X0760745Y0130191D01*
X0614846Y0099263D02*
X0606446Y0099263D01*
X0606446Y0094863D01*
X0614846Y0094863D01*
X0614846Y0099263D01*
X0617646Y0094370D02*
X0603646Y0094370D01*
X0603646Y0086370D01*
X0617646Y0086370D01*
X0617646Y0094370D01*
X0628693Y0083591D02*
X0628693Y0069591D01*
X0636693Y0069591D01*
X0636693Y0083591D01*
X0628693Y0083591D01*
X0637186Y0080397D02*
X0637186Y0071997D01*
X0641586Y0071997D01*
X0641586Y0080397D01*
X0637186Y0080397D01*
X0642079Y0083591D02*
X0642079Y0069591D01*
X0650079Y0069591D01*
X0650079Y0083591D01*
X0642079Y0083591D01*
X0709595Y0050838D02*
X0709595Y0046438D01*
X0717995Y0046438D01*
X0717995Y0050838D01*
X0709595Y0050838D01*
X0718650Y0050838D02*
X0718650Y0046438D01*
X0727050Y0046438D01*
X0727050Y0050838D01*
X0718650Y0050838D01*
X0606184Y0175965D02*
X0606184Y0180365D01*
X0597784Y0180365D01*
X0597784Y0175965D01*
X0606184Y0175965D01*
X0657827Y0188488D02*
X0665827Y0188488D01*
X0665827Y0202488D01*
X0657827Y0202488D01*
X0657827Y0188488D01*
X0676131Y0192894D02*
X0684531Y0192894D01*
X0684531Y0197294D01*
X0676131Y0197294D01*
X0676131Y0192894D01*
X0788367Y0196145D02*
X0788367Y0187745D01*
X0792767Y0187745D01*
X0792767Y0196145D01*
X0788367Y0196145D01*
X0794272Y0196145D02*
X0794272Y0187745D01*
X0798672Y0187745D01*
X0798672Y0196145D01*
X0794272Y0196145D01*
X0641586Y0222391D02*
X0641586Y0230791D01*
X0637186Y0230791D01*
X0637186Y0222391D01*
X0641586Y0222391D01*
X0636468Y0222391D02*
X0636468Y0230791D01*
X0632068Y0230791D01*
X0632068Y0222391D01*
X0636468Y0222391D01*
X0636468Y0231839D02*
X0632068Y0231839D01*
X0632068Y0240239D01*
X0636468Y0240239D01*
X0636468Y0231839D01*
X0637186Y0231839D02*
X0641586Y0231839D01*
X0641586Y0240239D01*
X0637186Y0240239D01*
X0637186Y0231839D01*
X0631465Y0237826D02*
X0631465Y0247826D01*
X0611465Y0247826D01*
X0611465Y0237826D01*
X0631465Y0237826D01*
X0644856Y0239610D02*
X0649256Y0239610D01*
X0649256Y0248010D01*
X0644856Y0248010D01*
X0644856Y0239610D01*
X0649285Y0239610D02*
X0653685Y0239610D01*
X0653685Y0248010D01*
X0649285Y0248010D01*
X0649285Y0239610D01*
X0654206Y0239610D02*
X0658606Y0239610D01*
X0658606Y0248010D01*
X0654206Y0248010D01*
X0654206Y0239610D01*
X0659128Y0239610D02*
X0663528Y0239610D01*
X0663528Y0248010D01*
X0659128Y0248010D01*
X0659128Y0239610D01*
X0664509Y0248992D02*
X0664509Y0253392D01*
X0672909Y0253392D01*
X0672909Y0248992D01*
X0664509Y0248992D01*
X0664509Y0253913D02*
X0664509Y0258313D01*
X0672909Y0258313D01*
X0672909Y0253913D01*
X0664509Y0253913D01*
X0643375Y0252639D02*
X0643375Y0257039D01*
X0634975Y0257039D01*
X0634975Y0252639D01*
X0643375Y0252639D01*
X0643375Y0252117D02*
X0643375Y0247717D01*
X0634975Y0247717D01*
X0634975Y0252117D01*
X0643375Y0252117D01*
X0643382Y0259326D02*
X0643382Y0263726D01*
X0634982Y0263726D01*
X0634982Y0259326D01*
X0643382Y0259326D01*
X0643382Y0264248D02*
X0643382Y0268648D01*
X0634982Y0268648D01*
X0634982Y0264248D01*
X0643382Y0264248D01*
X0642395Y0269137D02*
X0646795Y0269137D01*
X0646795Y0277537D01*
X0642395Y0277537D01*
X0642395Y0269137D01*
X0641874Y0269137D02*
X0637474Y0269137D01*
X0637474Y0277537D01*
X0641874Y0277537D01*
X0641874Y0269137D01*
X0647317Y0269137D02*
X0651717Y0269137D01*
X0651717Y0277537D01*
X0647317Y0277537D01*
X0647317Y0269137D01*
X0652238Y0269137D02*
X0656638Y0269137D01*
X0656638Y0277537D01*
X0652238Y0277537D01*
X0652238Y0269137D01*
X0659817Y0269137D02*
X0664217Y0269137D01*
X0664217Y0277537D01*
X0659817Y0277537D01*
X0659817Y0269137D01*
X0664509Y0268185D02*
X0664509Y0272585D01*
X0672909Y0272585D01*
X0672909Y0268185D01*
X0664509Y0268185D01*
X0664509Y0267270D02*
X0664509Y0262870D01*
X0672909Y0262870D01*
X0672909Y0267270D01*
X0664509Y0267270D01*
X0666943Y0274368D02*
X0686943Y0274368D01*
X0686943Y0284368D01*
X0666943Y0284368D01*
X0666943Y0274368D01*
X0656884Y0280864D02*
X0646884Y0280864D01*
X0646884Y0300864D01*
X0656884Y0300864D01*
X0656884Y0280864D01*
X0643915Y0283125D02*
X0643915Y0295625D01*
X0637415Y0295625D01*
X0637415Y0283125D01*
X0643915Y0283125D01*
X0631465Y0277353D02*
X0611465Y0277353D01*
X0611465Y0267353D01*
X0631465Y0267353D01*
X0631465Y0277353D01*
X0630176Y0266745D02*
X0630176Y0260245D01*
X0617676Y0260245D01*
X0617676Y0266745D01*
X0630176Y0266745D01*
X0630176Y0254934D02*
X0617676Y0254934D01*
X0617676Y0248434D01*
X0630176Y0248434D01*
X0630176Y0254934D01*
X0717894Y0257956D02*
X0717894Y0249556D01*
X0722294Y0249556D01*
X0722294Y0257956D01*
X0717894Y0257956D01*
X0723375Y0258318D02*
X0723375Y0253918D01*
X0731775Y0253918D01*
X0731775Y0258318D01*
X0723375Y0258318D01*
X0723375Y0253200D02*
X0723375Y0248800D01*
X0731775Y0248800D01*
X0731775Y0253200D01*
X0723375Y0253200D01*
X0769438Y0261792D02*
X0777838Y0261792D01*
X0777838Y0266192D01*
X0769438Y0266192D01*
X0769438Y0261792D01*
X0789385Y0263230D02*
X0789385Y0267630D01*
X0797785Y0267630D01*
X0797785Y0263230D01*
X0789385Y0263230D01*
X0789385Y0258969D02*
X0789385Y0254569D01*
X0797785Y0254569D01*
X0797785Y0258969D01*
X0789385Y0258969D01*
X0789385Y0253850D02*
X0789385Y0249450D01*
X0797785Y0249450D01*
X0797785Y0253850D01*
X0789385Y0253850D01*
X0809657Y0246618D02*
X0822657Y0246618D01*
X0822657Y0265618D01*
X0809657Y0265618D01*
X0809657Y0246618D01*
X0809657Y0267091D02*
X0822657Y0267091D01*
X0822657Y0286091D01*
X0809657Y0286091D01*
X0809657Y0267091D01*
X0797129Y0271635D02*
X0788729Y0271635D01*
X0788729Y0276035D01*
X0797129Y0276035D01*
X0797129Y0271635D01*
X0695523Y0277902D02*
X0695523Y0286302D01*
X0691123Y0286302D01*
X0691123Y0277902D01*
X0695523Y0277902D01*
X0695523Y0287351D02*
X0691123Y0287351D01*
X0691123Y0295751D01*
X0695523Y0295751D01*
X0695523Y0287351D01*
X0713936Y0300627D02*
X0714686Y0299876D01*
X0716188Y0299876D01*
X0716938Y0300627D01*
X0713936Y0303629D01*
X0713936Y0300627D01*
X0713936Y0303629D02*
X0714686Y0304380D01*
X0716188Y0304380D01*
X0716938Y0303629D01*
X0716938Y0300627D01*
X0718540Y0299876D02*
X0721542Y0299876D01*
X0720041Y0299876D02*
X0720041Y0304380D01*
X0721542Y0302879D01*
X0723144Y0303629D02*
X0723144Y0302128D01*
X0723894Y0301377D01*
X0726146Y0301377D01*
X0726146Y0299876D02*
X0726146Y0304380D01*
X0723894Y0304380D01*
X0723144Y0303629D01*
X0727747Y0304380D02*
X0730750Y0304380D01*
X0729249Y0304380D02*
X0729249Y0299876D01*
D15*
X0704823Y0294747D02*
X0703597Y0294747D01*
X0703188Y0294338D01*
X0703188Y0293521D01*
X0703597Y0293112D01*
X0704823Y0293112D01*
X0704823Y0292295D02*
X0704823Y0294747D01*
X0704006Y0293112D02*
X0703188Y0292295D01*
X0701923Y0292703D02*
X0701514Y0292295D01*
X0700697Y0292295D01*
X0700288Y0292703D01*
X0700288Y0293521D01*
X0700697Y0293929D01*
X0701105Y0293929D01*
X0701923Y0293521D01*
X0701923Y0294747D01*
X0700288Y0294747D01*
X0699023Y0294338D02*
X0699023Y0293929D01*
X0698614Y0293521D01*
X0697797Y0293521D01*
X0697388Y0293112D01*
X0697388Y0292703D01*
X0697797Y0292295D01*
X0698614Y0292295D01*
X0699023Y0292703D01*
X0699023Y0293112D01*
X0698614Y0293521D01*
X0697797Y0293521D02*
X0697388Y0293929D01*
X0697388Y0294338D01*
X0697797Y0294747D01*
X0698614Y0294747D01*
X0699023Y0294338D01*
X0674671Y0288032D02*
X0674671Y0286397D01*
X0674262Y0285989D01*
X0673445Y0285989D01*
X0673036Y0286397D01*
X0671771Y0286397D02*
X0671362Y0285989D01*
X0670545Y0285989D01*
X0670136Y0286397D01*
X0670136Y0286806D01*
X0670545Y0287214D01*
X0671771Y0287214D01*
X0671771Y0286397D01*
X0671771Y0287214D02*
X0670954Y0288032D01*
X0670136Y0288440D01*
X0668871Y0288440D02*
X0667236Y0288440D01*
X0667236Y0288032D01*
X0668871Y0286397D01*
X0668871Y0285989D01*
X0673036Y0288032D02*
X0673445Y0288440D01*
X0674262Y0288440D01*
X0674671Y0288032D01*
X0662850Y0287717D02*
X0662441Y0286899D01*
X0661624Y0286082D01*
X0661624Y0287308D01*
X0661215Y0287717D01*
X0660807Y0287717D01*
X0660398Y0287308D01*
X0660398Y0286491D01*
X0660807Y0286082D01*
X0661624Y0286082D01*
X0661215Y0284816D02*
X0661624Y0284408D01*
X0661624Y0283182D01*
X0660807Y0283182D01*
X0660398Y0283591D01*
X0660398Y0284408D01*
X0660807Y0284816D01*
X0661215Y0284816D01*
X0662441Y0283999D02*
X0661624Y0283182D01*
X0662441Y0283999D02*
X0662850Y0284816D01*
X0662441Y0281916D02*
X0662850Y0281508D01*
X0662850Y0280690D01*
X0662441Y0280282D01*
X0660807Y0280282D01*
X0660398Y0280690D01*
X0660398Y0281508D01*
X0660807Y0281916D01*
X0633519Y0286202D02*
X0633110Y0285794D01*
X0631476Y0285794D01*
X0631067Y0286202D01*
X0631067Y0287020D01*
X0631476Y0287428D01*
X0631476Y0288694D02*
X0631067Y0289102D01*
X0631067Y0289920D01*
X0631476Y0290328D01*
X0631885Y0290328D01*
X0632293Y0289920D01*
X0632293Y0289511D01*
X0632293Y0289920D02*
X0632702Y0290328D01*
X0633110Y0290328D01*
X0633519Y0289920D01*
X0633519Y0289102D01*
X0633110Y0288694D01*
X0633110Y0287428D02*
X0633519Y0287020D01*
X0633519Y0286202D01*
X0628598Y0286202D02*
X0628189Y0285794D01*
X0626555Y0285794D01*
X0626146Y0286202D01*
X0626146Y0287020D01*
X0626555Y0287428D01*
X0626555Y0288694D02*
X0626146Y0289102D01*
X0626146Y0289920D01*
X0626555Y0290328D01*
X0626963Y0290328D01*
X0627372Y0289920D01*
X0627372Y0289511D01*
X0627372Y0289920D02*
X0627780Y0290328D01*
X0628189Y0290328D01*
X0628598Y0289920D01*
X0628598Y0289102D01*
X0628189Y0288694D01*
X0628189Y0287428D02*
X0628598Y0287020D01*
X0628598Y0286202D01*
X0623676Y0286202D02*
X0623268Y0285794D01*
X0621633Y0285794D01*
X0621225Y0286202D01*
X0621225Y0287020D01*
X0621633Y0287428D01*
X0621633Y0288694D02*
X0621225Y0289102D01*
X0621225Y0289920D01*
X0621633Y0290328D01*
X0622451Y0290328D01*
X0622859Y0289920D01*
X0622859Y0289511D01*
X0622451Y0288694D01*
X0623676Y0288694D01*
X0623676Y0290328D01*
X0623676Y0291594D02*
X0622451Y0291594D01*
X0622859Y0292411D01*
X0622859Y0292820D01*
X0622451Y0293228D01*
X0621633Y0293228D01*
X0621225Y0292820D01*
X0621225Y0292002D01*
X0621633Y0291594D01*
X0623676Y0291594D02*
X0623676Y0293228D01*
X0626146Y0292820D02*
X0626555Y0293228D01*
X0626963Y0293228D01*
X0627372Y0292820D01*
X0627372Y0291594D01*
X0626555Y0291594D01*
X0626146Y0292002D01*
X0626146Y0292820D01*
X0627372Y0291594D02*
X0628189Y0292411D01*
X0628598Y0293228D01*
X0631067Y0291594D02*
X0631476Y0291594D01*
X0633110Y0293228D01*
X0633519Y0293228D01*
X0633519Y0291594D01*
X0623676Y0287020D02*
X0623676Y0286202D01*
X0623676Y0287020D02*
X0623268Y0287428D01*
X0618755Y0287020D02*
X0618347Y0287428D01*
X0618755Y0287020D02*
X0618755Y0286202D01*
X0618347Y0285794D01*
X0616712Y0285794D01*
X0616304Y0286202D01*
X0616304Y0287020D01*
X0616712Y0287428D01*
X0616712Y0288694D02*
X0616304Y0289102D01*
X0616304Y0289920D01*
X0616712Y0290328D01*
X0617529Y0290328D01*
X0617938Y0289920D01*
X0617938Y0289511D01*
X0617529Y0288694D01*
X0618755Y0288694D01*
X0618755Y0290328D01*
X0617529Y0291594D02*
X0617529Y0292820D01*
X0617121Y0293228D01*
X0616712Y0293228D01*
X0616304Y0292820D01*
X0616304Y0292002D01*
X0616712Y0291594D01*
X0617529Y0291594D01*
X0618347Y0292411D01*
X0618755Y0293228D01*
X0638438Y0296626D02*
X0640073Y0296626D01*
X0639255Y0296626D02*
X0639255Y0299077D01*
X0640073Y0298260D01*
X0641338Y0296626D02*
X0642973Y0296626D01*
X0642973Y0299077D01*
X0648137Y0302546D02*
X0648545Y0302137D01*
X0649362Y0302137D01*
X0649771Y0302546D01*
X0649771Y0302955D01*
X0649362Y0303363D01*
X0648545Y0303363D01*
X0648137Y0302955D01*
X0648137Y0302546D01*
X0648545Y0303363D02*
X0648137Y0303772D01*
X0648137Y0304180D01*
X0648545Y0304589D01*
X0649362Y0304589D01*
X0649771Y0304180D01*
X0649771Y0303772D01*
X0649362Y0303363D01*
X0651037Y0302955D02*
X0651037Y0302546D01*
X0651445Y0302137D01*
X0652263Y0302137D01*
X0652671Y0302546D01*
X0651854Y0303363D02*
X0651445Y0303363D01*
X0651037Y0302955D01*
X0651445Y0303363D02*
X0651037Y0303772D01*
X0651037Y0304180D01*
X0651445Y0304589D01*
X0652263Y0304589D01*
X0652671Y0304180D01*
X0653937Y0304180D02*
X0654345Y0304589D01*
X0655163Y0304589D01*
X0655571Y0304180D01*
X0655571Y0302546D01*
X0655163Y0302137D01*
X0654345Y0302137D01*
X0653937Y0302546D01*
X0697388Y0284495D02*
X0697797Y0284904D01*
X0698614Y0284904D01*
X0699023Y0284495D01*
X0699023Y0284087D01*
X0698614Y0283678D01*
X0697388Y0283678D01*
X0697388Y0282861D02*
X0697388Y0284495D01*
X0697388Y0282861D02*
X0697797Y0282452D01*
X0698614Y0282452D01*
X0699023Y0282861D01*
X0700288Y0282861D02*
X0700288Y0284495D01*
X0700697Y0284904D01*
X0701923Y0284904D01*
X0701923Y0282452D01*
X0700697Y0282452D01*
X0700288Y0282861D01*
X0682473Y0271597D02*
X0682473Y0269962D01*
X0682065Y0269553D01*
X0681247Y0269553D01*
X0680839Y0269962D01*
X0679573Y0269962D02*
X0679164Y0269553D01*
X0678347Y0269553D01*
X0677939Y0269962D01*
X0677939Y0270371D01*
X0678347Y0270779D01*
X0679573Y0270779D01*
X0679573Y0269962D01*
X0679573Y0270779D02*
X0678756Y0271597D01*
X0677939Y0272005D01*
X0676673Y0272005D02*
X0676673Y0270779D01*
X0675856Y0271188D01*
X0675447Y0271188D01*
X0675038Y0270779D01*
X0675038Y0269962D01*
X0675447Y0269553D01*
X0676264Y0269553D01*
X0676673Y0269962D01*
X0676673Y0272005D02*
X0675038Y0272005D01*
X0680839Y0271597D02*
X0681247Y0272005D01*
X0682065Y0272005D01*
X0682473Y0271597D01*
X0682065Y0266198D02*
X0682473Y0265789D01*
X0682473Y0264155D01*
X0682065Y0263746D01*
X0681247Y0263746D01*
X0680839Y0264155D01*
X0679573Y0264155D02*
X0679164Y0263746D01*
X0678347Y0263746D01*
X0677939Y0264155D01*
X0677939Y0264564D01*
X0678347Y0264972D01*
X0679573Y0264972D01*
X0679573Y0264155D01*
X0679573Y0264972D02*
X0678756Y0265789D01*
X0677939Y0266198D01*
X0676673Y0264972D02*
X0675038Y0264972D01*
X0675447Y0263746D02*
X0675447Y0266198D01*
X0676673Y0264972D01*
X0680839Y0265789D02*
X0681247Y0266198D01*
X0682065Y0266198D01*
X0724160Y0261676D02*
X0725794Y0261676D01*
X0725794Y0260450D01*
X0724977Y0260858D01*
X0724568Y0260858D01*
X0724160Y0260450D01*
X0724160Y0259633D01*
X0724568Y0259224D01*
X0725386Y0259224D01*
X0725794Y0259633D01*
X0727060Y0259224D02*
X0728694Y0259224D01*
X0727060Y0260858D01*
X0727060Y0261267D01*
X0727468Y0261676D01*
X0728286Y0261676D01*
X0728694Y0261267D01*
X0729960Y0261267D02*
X0729960Y0260450D01*
X0730369Y0260041D01*
X0731594Y0260041D01*
X0730777Y0260041D02*
X0729960Y0259224D01*
X0731594Y0259224D02*
X0731594Y0261676D01*
X0730369Y0261676D01*
X0729960Y0261267D01*
X0716597Y0257505D02*
X0716188Y0256688D01*
X0715371Y0255871D01*
X0715371Y0257097D01*
X0714962Y0257505D01*
X0714554Y0257505D01*
X0714145Y0257097D01*
X0714145Y0256279D01*
X0714554Y0255871D01*
X0715371Y0255871D01*
X0714145Y0254605D02*
X0714145Y0252971D01*
X0714145Y0253788D02*
X0716597Y0253788D01*
X0715780Y0252971D01*
X0716188Y0251705D02*
X0716597Y0251296D01*
X0716597Y0250479D01*
X0716188Y0250070D01*
X0714554Y0250070D01*
X0714145Y0250479D01*
X0714145Y0251296D01*
X0714554Y0251705D01*
X0733510Y0250214D02*
X0735145Y0250214D01*
X0733919Y0251439D01*
X0733919Y0248988D01*
X0736410Y0248988D02*
X0738045Y0248988D01*
X0736410Y0250622D01*
X0736410Y0251031D01*
X0736819Y0251439D01*
X0737636Y0251439D01*
X0738045Y0251031D01*
X0739310Y0251031D02*
X0739310Y0250214D01*
X0739719Y0249805D01*
X0740945Y0249805D01*
X0740945Y0248988D02*
X0740945Y0251439D01*
X0739719Y0251439D01*
X0739310Y0251031D01*
X0740128Y0249805D02*
X0739310Y0248988D01*
X0734825Y0240868D02*
X0734417Y0240051D01*
X0733599Y0239233D01*
X0733599Y0240459D01*
X0733191Y0240868D01*
X0732782Y0240868D01*
X0732374Y0240459D01*
X0732374Y0239642D01*
X0732782Y0239233D01*
X0733599Y0239233D01*
X0732782Y0237968D02*
X0734417Y0237968D01*
X0734825Y0237559D01*
X0734825Y0236333D01*
X0732374Y0236333D01*
X0732374Y0237559D01*
X0732782Y0237968D01*
X0682867Y0250277D02*
X0682458Y0249868D01*
X0681641Y0249868D01*
X0681232Y0250277D01*
X0679967Y0250277D02*
X0679558Y0249868D01*
X0678741Y0249868D01*
X0678332Y0250277D01*
X0678332Y0250686D01*
X0678741Y0251094D01*
X0679150Y0251094D01*
X0678741Y0251094D02*
X0678332Y0251503D01*
X0678332Y0251912D01*
X0678741Y0252320D01*
X0679558Y0252320D01*
X0679967Y0251912D01*
X0681232Y0251912D02*
X0681641Y0252320D01*
X0682458Y0252320D01*
X0682867Y0251912D01*
X0682867Y0250277D01*
X0682458Y0255774D02*
X0681641Y0255774D01*
X0681232Y0256183D01*
X0679967Y0256183D02*
X0679558Y0255774D01*
X0678741Y0255774D01*
X0678332Y0256183D01*
X0678332Y0256591D01*
X0678741Y0257000D01*
X0679150Y0257000D01*
X0678741Y0257000D02*
X0678332Y0257408D01*
X0678332Y0257817D01*
X0678741Y0258226D01*
X0679558Y0258226D01*
X0679967Y0257817D01*
X0681232Y0257817D02*
X0681641Y0258226D01*
X0682458Y0258226D01*
X0682867Y0257817D01*
X0682867Y0256183D01*
X0682458Y0255774D01*
X0677067Y0256183D02*
X0676658Y0255774D01*
X0675841Y0255774D01*
X0675432Y0256183D01*
X0675432Y0257000D01*
X0675841Y0257408D01*
X0676249Y0257408D01*
X0677067Y0257000D01*
X0677067Y0258226D01*
X0675432Y0258226D01*
X0675841Y0252320D02*
X0677067Y0251094D01*
X0675432Y0251094D01*
X0675841Y0249868D02*
X0675841Y0252320D01*
X0652074Y0251233D02*
X0652074Y0249598D01*
X0651665Y0249190D01*
X0650848Y0249190D01*
X0650440Y0249598D01*
X0649174Y0250416D02*
X0647539Y0250416D01*
X0647948Y0251642D02*
X0649174Y0250416D01*
X0650440Y0251233D02*
X0650848Y0251642D01*
X0651665Y0251642D01*
X0652074Y0251233D01*
X0651665Y0253521D02*
X0650848Y0253521D01*
X0650440Y0253929D01*
X0651665Y0253521D02*
X0652074Y0253929D01*
X0652074Y0255564D01*
X0651665Y0255972D01*
X0650848Y0255972D01*
X0650440Y0255564D01*
X0649174Y0254746D02*
X0647539Y0254746D01*
X0647948Y0253521D02*
X0647948Y0255972D01*
X0649174Y0254746D01*
X0646274Y0253929D02*
X0644639Y0255564D01*
X0644639Y0253929D01*
X0645048Y0253521D01*
X0645865Y0253521D01*
X0646274Y0253929D01*
X0646274Y0255564D01*
X0645865Y0255972D01*
X0645048Y0255972D01*
X0644639Y0255564D01*
X0645457Y0251642D02*
X0645457Y0249190D01*
X0646274Y0249190D02*
X0644639Y0249190D01*
X0646274Y0250824D02*
X0645457Y0251642D01*
X0647948Y0251642D02*
X0647948Y0249190D01*
X0641661Y0244109D02*
X0640436Y0244109D01*
X0640027Y0243700D01*
X0640027Y0242883D01*
X0640436Y0242474D01*
X0641661Y0242474D01*
X0640844Y0242474D02*
X0640027Y0241657D01*
X0641661Y0241657D02*
X0641661Y0244109D01*
X0638761Y0242883D02*
X0637127Y0242883D01*
X0637535Y0244109D02*
X0638761Y0242883D01*
X0637535Y0241657D02*
X0637535Y0244109D01*
X0635861Y0243700D02*
X0635453Y0244109D01*
X0634635Y0244109D01*
X0634227Y0243700D01*
X0634227Y0243292D01*
X0634635Y0242883D01*
X0634227Y0242474D01*
X0634227Y0242066D01*
X0634635Y0241657D01*
X0635453Y0241657D01*
X0635861Y0242066D01*
X0635044Y0242883D02*
X0634635Y0242883D01*
X0612159Y0249953D02*
X0610525Y0249953D01*
X0609259Y0249953D02*
X0607625Y0251588D01*
X0607625Y0251996D01*
X0608033Y0252405D01*
X0608850Y0252405D01*
X0609259Y0251996D01*
X0609259Y0249953D02*
X0607625Y0249953D01*
X0608354Y0246612D02*
X0609989Y0246612D01*
X0610397Y0246204D01*
X0610397Y0245386D01*
X0609989Y0244978D01*
X0609580Y0244978D01*
X0609172Y0245386D01*
X0609172Y0246612D01*
X0608354Y0246612D02*
X0607946Y0246204D01*
X0607946Y0245386D01*
X0608354Y0244978D01*
X0608354Y0243712D02*
X0607946Y0243303D01*
X0607946Y0242486D01*
X0608354Y0242078D01*
X0609172Y0242895D02*
X0609172Y0243303D01*
X0608763Y0243712D01*
X0608354Y0243712D01*
X0609172Y0243303D02*
X0609580Y0243712D01*
X0609989Y0243712D01*
X0610397Y0243303D01*
X0610397Y0242486D01*
X0609989Y0242078D01*
X0609989Y0240812D02*
X0610397Y0240403D01*
X0610397Y0239586D01*
X0609989Y0239178D01*
X0608354Y0239178D01*
X0607946Y0239586D01*
X0607946Y0240403D01*
X0608354Y0240812D01*
X0623109Y0234754D02*
X0623109Y0234346D01*
X0624743Y0232711D01*
X0624743Y0232303D01*
X0626009Y0232711D02*
X0626418Y0232303D01*
X0627235Y0232303D01*
X0627644Y0232711D01*
X0627644Y0233529D02*
X0626826Y0233937D01*
X0626418Y0233937D01*
X0626009Y0233529D01*
X0626009Y0232711D01*
X0627644Y0233529D02*
X0627644Y0234754D01*
X0626009Y0234754D01*
X0624743Y0234754D02*
X0623109Y0234754D01*
X0628909Y0234346D02*
X0628909Y0233529D01*
X0629318Y0233120D01*
X0630544Y0233120D01*
X0630544Y0232303D02*
X0630544Y0234754D01*
X0629318Y0234754D01*
X0628909Y0234346D01*
X0629726Y0233120D02*
X0628909Y0232303D01*
X0628624Y0228837D02*
X0628215Y0228837D01*
X0627807Y0228429D01*
X0627807Y0227611D01*
X0628215Y0227203D01*
X0628624Y0227203D01*
X0629033Y0227611D01*
X0629033Y0228429D01*
X0628624Y0228837D01*
X0629033Y0228429D02*
X0629441Y0228837D01*
X0629850Y0228837D01*
X0630258Y0228429D01*
X0630258Y0227611D01*
X0629850Y0227203D01*
X0629441Y0227203D01*
X0629033Y0227611D01*
X0629850Y0225937D02*
X0630258Y0225529D01*
X0630258Y0224303D01*
X0627807Y0224303D01*
X0627807Y0225529D01*
X0628215Y0225937D01*
X0629850Y0225937D01*
X0642767Y0225922D02*
X0643176Y0226331D01*
X0644810Y0226331D01*
X0645219Y0225922D01*
X0645219Y0224696D01*
X0642767Y0224696D01*
X0642767Y0225922D01*
X0643993Y0227597D02*
X0643993Y0229231D01*
X0642767Y0228822D02*
X0645219Y0228822D01*
X0643993Y0227597D01*
X0645748Y0230144D02*
X0645339Y0230553D01*
X0645339Y0231370D01*
X0645748Y0231779D01*
X0645748Y0233045D02*
X0645339Y0233453D01*
X0645339Y0234270D01*
X0645748Y0234679D01*
X0646565Y0234679D01*
X0646973Y0234270D01*
X0646973Y0233862D01*
X0646565Y0233045D01*
X0647791Y0233045D01*
X0647791Y0234679D01*
X0647382Y0235945D02*
X0647791Y0236353D01*
X0647791Y0237171D01*
X0647382Y0237579D01*
X0645748Y0235945D01*
X0645339Y0236353D01*
X0645339Y0237171D01*
X0645748Y0237579D01*
X0647382Y0237579D01*
X0647382Y0235945D02*
X0645748Y0235945D01*
X0647382Y0231779D02*
X0647791Y0231370D01*
X0647791Y0230553D01*
X0647382Y0230144D01*
X0645748Y0230144D01*
X0650260Y0230159D02*
X0650260Y0230977D01*
X0650669Y0231385D01*
X0650669Y0232651D02*
X0650260Y0233060D01*
X0650260Y0233877D01*
X0650669Y0234285D01*
X0651486Y0234285D01*
X0651895Y0233877D01*
X0651895Y0233468D01*
X0651486Y0232651D01*
X0652712Y0232651D01*
X0652712Y0234285D01*
X0651895Y0235551D02*
X0652712Y0236368D01*
X0650260Y0236368D01*
X0650260Y0235551D02*
X0650260Y0237185D01*
X0655181Y0236777D02*
X0655181Y0235960D01*
X0655590Y0235551D01*
X0655999Y0235551D01*
X0656407Y0235960D01*
X0656407Y0236777D01*
X0655999Y0237185D01*
X0655590Y0237185D01*
X0655181Y0236777D01*
X0656407Y0236777D02*
X0656816Y0237185D01*
X0657225Y0237185D01*
X0657633Y0236777D01*
X0657633Y0235960D01*
X0657225Y0235551D01*
X0656816Y0235551D01*
X0656407Y0235960D01*
X0655999Y0234285D02*
X0656407Y0233877D01*
X0656407Y0232651D01*
X0655590Y0232651D01*
X0655181Y0233060D01*
X0655181Y0233877D01*
X0655590Y0234285D01*
X0655999Y0234285D01*
X0657225Y0233468D02*
X0656407Y0232651D01*
X0657225Y0233468D02*
X0657633Y0234285D01*
X0660103Y0233877D02*
X0660511Y0234285D01*
X0660920Y0234285D01*
X0661329Y0233877D01*
X0661329Y0232651D01*
X0660511Y0232651D01*
X0660103Y0233060D01*
X0660103Y0233877D01*
X0660511Y0235551D02*
X0660103Y0235960D01*
X0660103Y0236777D01*
X0660511Y0237185D01*
X0662146Y0237185D01*
X0662554Y0236777D01*
X0662554Y0235960D01*
X0662146Y0235551D01*
X0661737Y0235551D01*
X0661329Y0235960D01*
X0661329Y0237185D01*
X0662554Y0234285D02*
X0662146Y0233468D01*
X0661329Y0232651D01*
X0662146Y0231385D02*
X0662554Y0230977D01*
X0662554Y0230159D01*
X0662146Y0229751D01*
X0660511Y0229751D01*
X0660103Y0230159D01*
X0660103Y0230977D01*
X0660511Y0231385D01*
X0657633Y0230977D02*
X0657633Y0230159D01*
X0657225Y0229751D01*
X0655590Y0229751D01*
X0655181Y0230159D01*
X0655181Y0230977D01*
X0655590Y0231385D01*
X0657225Y0231385D02*
X0657633Y0230977D01*
X0652712Y0230977D02*
X0652712Y0230159D01*
X0652303Y0229751D01*
X0650669Y0229751D01*
X0650260Y0230159D01*
X0652303Y0231385D02*
X0652712Y0230977D01*
X0612159Y0249953D02*
X0612159Y0252405D01*
X0644639Y0260213D02*
X0646274Y0260213D01*
X0644639Y0261848D01*
X0644639Y0262257D01*
X0645048Y0262665D01*
X0645865Y0262665D01*
X0646274Y0262257D01*
X0647539Y0262665D02*
X0649174Y0262665D01*
X0649174Y0261439D01*
X0648357Y0261848D01*
X0647948Y0261848D01*
X0647539Y0261439D01*
X0647539Y0260622D01*
X0647948Y0260213D01*
X0648765Y0260213D01*
X0649174Y0260622D01*
X0650440Y0260622D02*
X0650848Y0260213D01*
X0651665Y0260213D01*
X0652074Y0260622D01*
X0652074Y0262257D01*
X0651665Y0262665D01*
X0650848Y0262665D01*
X0650440Y0262257D01*
X0650848Y0264544D02*
X0650440Y0264953D01*
X0650848Y0264544D02*
X0651665Y0264544D01*
X0652074Y0264953D01*
X0652074Y0266587D01*
X0651665Y0266996D01*
X0650848Y0266996D01*
X0650440Y0266587D01*
X0649174Y0266996D02*
X0649174Y0265770D01*
X0648357Y0266179D01*
X0647948Y0266179D01*
X0647539Y0265770D01*
X0647539Y0264953D01*
X0647948Y0264544D01*
X0648765Y0264544D01*
X0649174Y0264953D01*
X0649174Y0266996D02*
X0647539Y0266996D01*
X0646274Y0266587D02*
X0645865Y0266996D01*
X0645048Y0266996D01*
X0644639Y0266587D01*
X0644639Y0266179D01*
X0645048Y0265770D01*
X0644639Y0265361D01*
X0644639Y0264953D01*
X0645048Y0264544D01*
X0645865Y0264544D01*
X0646274Y0264953D01*
X0645457Y0265770D02*
X0645048Y0265770D01*
X0616600Y0263342D02*
X0616600Y0260890D01*
X0614966Y0260890D01*
X0613700Y0261299D02*
X0613291Y0260890D01*
X0612474Y0260890D01*
X0612065Y0261299D01*
X0612065Y0261707D01*
X0612474Y0262116D01*
X0612883Y0262116D01*
X0612474Y0262116D02*
X0612065Y0262525D01*
X0612065Y0262933D01*
X0612474Y0263342D01*
X0613291Y0263342D01*
X0613700Y0262933D01*
X0616759Y0279000D02*
X0616759Y0281452D01*
X0617985Y0280226D01*
X0616350Y0280226D01*
X0619251Y0280226D02*
X0619251Y0279409D01*
X0619659Y0279000D01*
X0620476Y0279000D01*
X0620885Y0279409D01*
X0620885Y0280226D02*
X0620068Y0280635D01*
X0619659Y0280635D01*
X0619251Y0280226D01*
X0619251Y0281452D02*
X0620885Y0281452D01*
X0620885Y0280226D01*
X0622151Y0279409D02*
X0622559Y0279000D01*
X0623376Y0279000D01*
X0623785Y0279409D01*
X0623785Y0281043D01*
X0623376Y0281452D01*
X0622559Y0281452D01*
X0622151Y0281043D01*
X0770353Y0269794D02*
X0771170Y0269385D01*
X0771988Y0268568D01*
X0770762Y0268568D01*
X0770353Y0268159D01*
X0770353Y0267751D01*
X0770762Y0267342D01*
X0771579Y0267342D01*
X0771988Y0267751D01*
X0771988Y0268568D01*
X0773253Y0268977D02*
X0773253Y0269385D01*
X0773662Y0269794D01*
X0774479Y0269794D01*
X0774888Y0269385D01*
X0774070Y0268568D02*
X0773662Y0268568D01*
X0773253Y0268159D01*
X0773253Y0267751D01*
X0773662Y0267342D01*
X0774479Y0267342D01*
X0774888Y0267751D01*
X0776153Y0267342D02*
X0776971Y0268159D01*
X0776562Y0268159D02*
X0777788Y0268159D01*
X0777788Y0267342D02*
X0777788Y0269794D01*
X0776562Y0269794D01*
X0776153Y0269385D01*
X0776153Y0268568D01*
X0776562Y0268159D01*
X0773662Y0268568D02*
X0773253Y0268977D01*
X0780572Y0266240D02*
X0782206Y0264606D01*
X0781798Y0264197D01*
X0780981Y0264197D01*
X0780572Y0264606D01*
X0780572Y0266240D01*
X0780981Y0266649D01*
X0781798Y0266649D01*
X0782206Y0266240D01*
X0782206Y0264606D01*
X0783472Y0264197D02*
X0785107Y0264197D01*
X0784289Y0264197D02*
X0784289Y0266649D01*
X0785107Y0265832D01*
X0786372Y0266240D02*
X0786781Y0266649D01*
X0787598Y0266649D01*
X0788007Y0266240D01*
X0788007Y0264606D01*
X0787598Y0264197D01*
X0786781Y0264197D01*
X0786372Y0264606D01*
X0785599Y0258114D02*
X0783964Y0258114D01*
X0783964Y0257705D01*
X0785599Y0256070D01*
X0785599Y0255662D01*
X0786864Y0256070D02*
X0787273Y0255662D01*
X0788090Y0255662D01*
X0788499Y0256070D01*
X0788499Y0257705D01*
X0788090Y0258114D01*
X0787273Y0258114D01*
X0786864Y0257705D01*
X0787273Y0253106D02*
X0788090Y0253106D01*
X0788499Y0252697D01*
X0788499Y0251063D01*
X0788090Y0250654D01*
X0787273Y0250654D01*
X0786864Y0251063D01*
X0785599Y0251063D02*
X0785190Y0250654D01*
X0784373Y0250654D01*
X0783964Y0251063D01*
X0783964Y0251471D01*
X0784373Y0251880D01*
X0785599Y0251880D01*
X0785599Y0251063D01*
X0785599Y0251880D02*
X0784781Y0252697D01*
X0783964Y0253106D01*
X0786864Y0252697D02*
X0787273Y0253106D01*
X0806315Y0255065D02*
X0806315Y0255882D01*
X0806723Y0256291D01*
X0806723Y0257556D02*
X0807132Y0257556D01*
X0807540Y0257965D01*
X0807540Y0258782D01*
X0807132Y0259191D01*
X0806723Y0259191D01*
X0806315Y0258782D01*
X0806315Y0257965D01*
X0806723Y0257556D01*
X0807540Y0257965D02*
X0807949Y0257556D01*
X0808358Y0257556D01*
X0808766Y0257965D01*
X0808766Y0258782D01*
X0808358Y0259191D01*
X0807949Y0259191D01*
X0807540Y0258782D01*
X0808358Y0256291D02*
X0808766Y0255882D01*
X0808766Y0255065D01*
X0808358Y0254656D01*
X0806723Y0254656D01*
X0806315Y0255065D01*
X0806329Y0273554D02*
X0805921Y0273962D01*
X0805921Y0274780D01*
X0806329Y0275188D01*
X0806329Y0276454D02*
X0805921Y0276862D01*
X0805921Y0277680D01*
X0806329Y0278088D01*
X0807147Y0278088D01*
X0807555Y0277680D01*
X0807555Y0277271D01*
X0807147Y0276454D01*
X0808373Y0276454D01*
X0808373Y0278088D01*
X0807964Y0275188D02*
X0808373Y0274780D01*
X0808373Y0273962D01*
X0807964Y0273554D01*
X0806329Y0273554D01*
X0787744Y0272900D02*
X0787744Y0274535D01*
X0787336Y0274943D01*
X0786519Y0274943D01*
X0786110Y0274535D01*
X0784844Y0274535D02*
X0784844Y0274126D01*
X0784436Y0273718D01*
X0783210Y0273718D01*
X0783210Y0274535D02*
X0783210Y0272900D01*
X0783619Y0272492D01*
X0784436Y0272492D01*
X0784844Y0272900D01*
X0786110Y0272900D02*
X0786519Y0272492D01*
X0787336Y0272492D01*
X0787744Y0272900D01*
X0784844Y0274535D02*
X0784436Y0274943D01*
X0783619Y0274943D01*
X0783210Y0274535D01*
X0669550Y0200419D02*
X0669550Y0198784D01*
X0668324Y0198784D01*
X0668732Y0199601D01*
X0668732Y0200010D01*
X0668324Y0200419D01*
X0667507Y0200419D01*
X0667098Y0200010D01*
X0667098Y0199193D01*
X0667507Y0198784D01*
X0667098Y0197518D02*
X0667098Y0195884D01*
X0667098Y0196701D02*
X0669550Y0196701D01*
X0668732Y0195884D01*
X0669141Y0194618D02*
X0669550Y0194210D01*
X0669550Y0193392D01*
X0669141Y0192984D01*
X0667507Y0192984D01*
X0667098Y0193392D01*
X0667098Y0194210D01*
X0667507Y0194618D01*
X0677521Y0191203D02*
X0678747Y0189977D01*
X0677113Y0189977D01*
X0677521Y0188752D02*
X0677521Y0191203D01*
X0680830Y0191203D02*
X0680830Y0188752D01*
X0681647Y0188752D02*
X0680013Y0188752D01*
X0681647Y0190386D02*
X0680830Y0191203D01*
X0682913Y0190795D02*
X0683321Y0191203D01*
X0684139Y0191203D01*
X0684547Y0190795D01*
X0684547Y0189160D01*
X0684139Y0188752D01*
X0683321Y0188752D01*
X0682913Y0189160D01*
X0644456Y0180493D02*
X0644456Y0179915D01*
X0644456Y0180493D02*
X0643878Y0181071D01*
X0643300Y0181071D01*
X0643011Y0180782D01*
X0643011Y0178470D01*
X0641855Y0179626D01*
X0640960Y0180521D02*
X0641249Y0180810D01*
X0641249Y0183122D01*
X0641538Y0183410D01*
X0642694Y0182255D01*
X0645351Y0179020D02*
X0645929Y0179020D01*
X0646506Y0178442D01*
X0646506Y0177864D01*
X0645351Y0176709D01*
X0644773Y0176709D01*
X0644195Y0177287D01*
X0644195Y0177864D01*
X0648559Y0171134D02*
X0649137Y0171134D01*
X0650293Y0169978D01*
X0650293Y0169400D01*
X0649715Y0168822D01*
X0649137Y0168822D01*
X0648242Y0167927D02*
X0647953Y0168216D01*
X0647375Y0168216D01*
X0646797Y0167638D01*
X0646797Y0167061D01*
X0647086Y0166772D01*
X0647664Y0166772D01*
X0648242Y0167349D01*
X0648242Y0167927D01*
X0647375Y0168216D02*
X0647375Y0168794D01*
X0647086Y0169083D01*
X0646508Y0169083D01*
X0645930Y0168505D01*
X0645930Y0167927D01*
X0646219Y0167638D01*
X0646797Y0167638D01*
X0645324Y0166743D02*
X0644169Y0166743D01*
X0645902Y0165010D01*
X0646480Y0165588D02*
X0645324Y0164432D01*
X0647981Y0169978D02*
X0647981Y0170556D01*
X0648559Y0171134D01*
X0624065Y0176290D02*
X0622910Y0175134D01*
X0622332Y0175134D01*
X0621754Y0175712D01*
X0621754Y0176290D01*
X0620859Y0177185D02*
X0621148Y0177473D01*
X0621148Y0178051D01*
X0620570Y0178629D01*
X0619992Y0178629D01*
X0619703Y0178340D01*
X0619703Y0177762D01*
X0620281Y0177185D01*
X0620859Y0177185D01*
X0621148Y0178051D02*
X0621726Y0178051D01*
X0622015Y0178340D01*
X0622015Y0178918D01*
X0621437Y0179496D01*
X0620859Y0179496D01*
X0620570Y0179207D01*
X0620570Y0178629D01*
X0619964Y0180391D02*
X0619964Y0180969D01*
X0619386Y0181547D01*
X0618808Y0181547D01*
X0618519Y0181258D01*
X0618519Y0178946D01*
X0617364Y0180102D01*
X0615056Y0176822D02*
X0615056Y0175089D01*
X0613900Y0176244D01*
X0613322Y0175089D02*
X0615056Y0176822D01*
X0616528Y0174772D02*
X0616239Y0174483D01*
X0616239Y0173905D01*
X0616817Y0173327D01*
X0617395Y0173327D01*
X0617684Y0173616D01*
X0617684Y0174194D01*
X0617106Y0174772D01*
X0616528Y0174772D01*
X0616239Y0173905D02*
X0615662Y0173905D01*
X0615373Y0173616D01*
X0615373Y0173038D01*
X0615951Y0172460D01*
X0616528Y0172460D01*
X0616817Y0172749D01*
X0616817Y0173327D01*
X0617423Y0171565D02*
X0617423Y0170987D01*
X0618001Y0170409D01*
X0618579Y0170409D01*
X0619735Y0171565D01*
X0619735Y0172143D01*
X0619157Y0172721D01*
X0618579Y0172721D01*
X0622910Y0177445D02*
X0623488Y0177445D01*
X0624066Y0176867D01*
X0624065Y0176290D01*
X0605376Y0182061D02*
X0604968Y0181653D01*
X0604151Y0181653D01*
X0603742Y0182061D01*
X0602476Y0181653D02*
X0600842Y0181653D01*
X0601659Y0181653D02*
X0601659Y0184104D01*
X0602476Y0183287D01*
X0603742Y0183696D02*
X0604151Y0184104D01*
X0604968Y0184104D01*
X0605376Y0183696D01*
X0605376Y0182061D01*
X0599576Y0182061D02*
X0599168Y0181653D01*
X0598350Y0181653D01*
X0597942Y0182061D01*
X0597942Y0182470D01*
X0598350Y0182879D01*
X0598759Y0182879D01*
X0598350Y0182879D02*
X0597942Y0183287D01*
X0597942Y0183696D01*
X0598350Y0184104D01*
X0599168Y0184104D01*
X0599576Y0183696D01*
X0660960Y0163068D02*
X0660960Y0162490D01*
X0661538Y0161912D01*
X0662115Y0161912D01*
X0662693Y0162490D02*
X0662404Y0163357D01*
X0662115Y0163646D01*
X0661538Y0163646D01*
X0660960Y0163068D01*
X0662693Y0162490D02*
X0663560Y0163357D01*
X0662404Y0164513D01*
X0664166Y0162173D02*
X0664744Y0162173D01*
X0665322Y0161595D01*
X0665322Y0161017D01*
X0666217Y0160123D02*
X0666795Y0160123D01*
X0667373Y0159545D01*
X0667373Y0158967D01*
X0666217Y0157811D01*
X0665639Y0157811D01*
X0665061Y0158389D01*
X0665061Y0158967D01*
X0663877Y0159573D02*
X0663877Y0161884D01*
X0664166Y0162173D01*
X0662721Y0160729D02*
X0663877Y0159573D01*
X0648717Y0155390D02*
X0648717Y0154812D01*
X0648139Y0154234D01*
X0647561Y0154234D01*
X0646666Y0153339D02*
X0646377Y0153628D01*
X0645799Y0153628D01*
X0645221Y0153050D01*
X0645221Y0152473D01*
X0645510Y0152184D01*
X0646088Y0152184D01*
X0646666Y0152761D01*
X0646666Y0153339D01*
X0645799Y0153628D02*
X0645799Y0154206D01*
X0645510Y0154495D01*
X0644932Y0154495D01*
X0644354Y0153917D01*
X0644354Y0153339D01*
X0644643Y0153050D01*
X0645221Y0153050D01*
X0644615Y0151289D02*
X0642304Y0151289D01*
X0643459Y0150133D01*
X0644037Y0150133D01*
X0644615Y0150711D01*
X0644615Y0151289D01*
X0643459Y0152444D01*
X0642882Y0152444D01*
X0642304Y0151866D01*
X0642304Y0151289D01*
X0640054Y0149167D02*
X0640463Y0148758D01*
X0640463Y0147941D01*
X0640054Y0147532D01*
X0640054Y0146266D02*
X0638420Y0144632D01*
X0638011Y0144632D01*
X0638420Y0143366D02*
X0638011Y0142958D01*
X0638011Y0142141D01*
X0638420Y0141732D01*
X0640054Y0141732D01*
X0640463Y0142141D01*
X0640463Y0142958D01*
X0640054Y0143366D01*
X0640463Y0144632D02*
X0640463Y0146266D01*
X0640054Y0146266D01*
X0638011Y0147532D02*
X0639646Y0149167D01*
X0640054Y0149167D01*
X0638011Y0149167D02*
X0638011Y0147532D01*
X0623046Y0146801D02*
X0622637Y0147209D01*
X0621820Y0147209D01*
X0621411Y0146801D01*
X0621411Y0145575D01*
X0620594Y0145575D02*
X0623046Y0145575D01*
X0623046Y0146801D01*
X0621411Y0146392D02*
X0620594Y0147209D01*
X0621003Y0148475D02*
X0620594Y0148884D01*
X0620594Y0149701D01*
X0621003Y0150109D01*
X0621411Y0150109D01*
X0621820Y0149701D01*
X0621820Y0148475D01*
X0621003Y0148475D01*
X0621820Y0148475D02*
X0622637Y0149292D01*
X0623046Y0150109D01*
X0621820Y0151375D02*
X0621820Y0152601D01*
X0621411Y0153010D01*
X0621003Y0153010D01*
X0620594Y0152601D01*
X0620594Y0151784D01*
X0621003Y0151375D01*
X0621820Y0151375D01*
X0622637Y0152192D01*
X0623046Y0153010D01*
X0646405Y0155390D02*
X0646405Y0155968D01*
X0646983Y0156546D01*
X0647561Y0156546D01*
X0648717Y0155390D01*
X0654748Y0144932D02*
X0655565Y0144523D01*
X0656382Y0143706D01*
X0655157Y0143706D01*
X0654748Y0143297D01*
X0654748Y0142889D01*
X0655157Y0142480D01*
X0655974Y0142480D01*
X0656382Y0142889D01*
X0656382Y0143706D01*
X0657648Y0144115D02*
X0657648Y0144523D01*
X0658057Y0144932D01*
X0658874Y0144932D01*
X0659283Y0144523D01*
X0660548Y0144523D02*
X0660957Y0144932D01*
X0661774Y0144932D01*
X0662183Y0144523D01*
X0662183Y0142889D01*
X0661774Y0142480D01*
X0660957Y0142480D01*
X0660548Y0142889D01*
X0659283Y0142480D02*
X0657648Y0144115D01*
X0657648Y0142480D02*
X0659283Y0142480D01*
X0658134Y0138172D02*
X0658134Y0135720D01*
X0657317Y0135720D02*
X0658952Y0135720D01*
X0658952Y0137355D02*
X0658134Y0138172D01*
X0660217Y0136946D02*
X0661852Y0136946D01*
X0660626Y0138172D01*
X0660626Y0135720D01*
X0663117Y0135720D02*
X0663935Y0136537D01*
X0663526Y0136537D02*
X0664752Y0136537D01*
X0664752Y0135720D02*
X0664752Y0138172D01*
X0663526Y0138172D01*
X0663117Y0137763D01*
X0663117Y0136946D01*
X0663526Y0136537D01*
X0632075Y0127921D02*
X0632075Y0126286D01*
X0631666Y0125878D01*
X0630849Y0125878D01*
X0630440Y0126286D01*
X0629175Y0126286D02*
X0628766Y0125878D01*
X0627949Y0125878D01*
X0627540Y0126286D01*
X0627540Y0126695D01*
X0627949Y0127103D01*
X0629175Y0127103D01*
X0629175Y0126286D01*
X0629175Y0127103D02*
X0628357Y0127921D01*
X0627540Y0128329D01*
X0626275Y0127921D02*
X0625866Y0128329D01*
X0625049Y0128329D01*
X0624640Y0127921D01*
X0624640Y0127512D01*
X0625049Y0127103D01*
X0624640Y0126695D01*
X0624640Y0126286D01*
X0625049Y0125878D01*
X0625866Y0125878D01*
X0626275Y0126286D01*
X0625457Y0127103D02*
X0625049Y0127103D01*
X0623563Y0130759D02*
X0622338Y0130759D01*
X0621929Y0131168D01*
X0621929Y0132803D01*
X0622338Y0133211D01*
X0623563Y0133211D01*
X0623563Y0130759D01*
X0620663Y0130759D02*
X0619029Y0130759D01*
X0619846Y0130759D02*
X0619846Y0133211D01*
X0620663Y0132394D01*
X0617763Y0132803D02*
X0617355Y0133211D01*
X0616537Y0133211D01*
X0616129Y0132803D01*
X0616129Y0132394D01*
X0616537Y0131985D01*
X0616129Y0131577D01*
X0616129Y0131168D01*
X0616537Y0130759D01*
X0617355Y0130759D01*
X0617763Y0131168D01*
X0616946Y0131985D02*
X0616537Y0131985D01*
X0613327Y0130759D02*
X0612101Y0130759D01*
X0611693Y0131168D01*
X0611693Y0132803D01*
X0612101Y0133211D01*
X0613327Y0133211D01*
X0613327Y0130759D01*
X0610427Y0130759D02*
X0608793Y0130759D01*
X0609610Y0130759D02*
X0609610Y0133211D01*
X0610427Y0132394D01*
X0607527Y0132394D02*
X0606710Y0133211D01*
X0606710Y0130759D01*
X0607527Y0130759D02*
X0605892Y0130759D01*
X0602697Y0130759D02*
X0601471Y0130759D01*
X0601063Y0131168D01*
X0601063Y0132803D01*
X0601471Y0133211D01*
X0602697Y0133211D01*
X0602697Y0130759D01*
X0599797Y0130759D02*
X0598163Y0130759D01*
X0598980Y0130759D02*
X0598980Y0133211D01*
X0599797Y0132394D01*
X0596897Y0132803D02*
X0596488Y0133211D01*
X0595671Y0133211D01*
X0595263Y0132803D01*
X0596897Y0131168D01*
X0596488Y0130759D01*
X0595671Y0130759D01*
X0595263Y0131168D01*
X0595263Y0132803D01*
X0596897Y0132803D02*
X0596897Y0131168D01*
X0600248Y0126194D02*
X0600248Y0124560D01*
X0601882Y0126194D01*
X0602291Y0126194D01*
X0602699Y0125786D01*
X0602699Y0124968D01*
X0602291Y0124560D01*
X0602699Y0123294D02*
X0602291Y0122477D01*
X0601473Y0121660D01*
X0601473Y0122885D01*
X0601065Y0123294D01*
X0600656Y0123294D01*
X0600248Y0122885D01*
X0600248Y0122068D01*
X0600656Y0121660D01*
X0601473Y0121660D01*
X0600656Y0120394D02*
X0600248Y0119985D01*
X0600248Y0119168D01*
X0600656Y0118759D01*
X0602291Y0118759D01*
X0602699Y0119168D01*
X0602699Y0119985D01*
X0602291Y0120394D01*
X0608272Y0111432D02*
X0608272Y0108980D01*
X0609089Y0108980D02*
X0607455Y0108980D01*
X0609089Y0110614D02*
X0608272Y0111432D01*
X0610355Y0111432D02*
X0610355Y0111023D01*
X0611990Y0109389D01*
X0611990Y0108980D01*
X0613255Y0109389D02*
X0613664Y0108980D01*
X0614481Y0108980D01*
X0614890Y0109389D01*
X0614890Y0111023D01*
X0614481Y0111432D01*
X0613664Y0111432D01*
X0613255Y0111023D01*
X0611990Y0111432D02*
X0610355Y0111432D01*
X0637026Y0116995D02*
X0637435Y0116586D01*
X0638252Y0116586D01*
X0638661Y0116995D01*
X0638252Y0117812D02*
X0637026Y0117812D01*
X0637026Y0116995D02*
X0637026Y0118629D01*
X0637435Y0119038D01*
X0638252Y0119038D01*
X0638661Y0118629D01*
X0638661Y0118221D01*
X0638252Y0117812D01*
X0639926Y0117812D02*
X0639926Y0116995D01*
X0640335Y0116586D01*
X0641152Y0116586D01*
X0641561Y0116995D01*
X0641561Y0117812D02*
X0640744Y0118221D01*
X0640335Y0118221D01*
X0639926Y0117812D01*
X0639926Y0119038D02*
X0641561Y0119038D01*
X0641561Y0117812D01*
X0642827Y0116995D02*
X0643235Y0116586D01*
X0644052Y0116586D01*
X0644461Y0116995D01*
X0644461Y0118629D01*
X0644052Y0119038D01*
X0643235Y0119038D01*
X0642827Y0118629D01*
X0653533Y0114581D02*
X0654759Y0113355D01*
X0653124Y0113355D01*
X0653533Y0112130D02*
X0653533Y0114581D01*
X0656842Y0114581D02*
X0656842Y0112130D01*
X0657659Y0112130D02*
X0656024Y0112130D01*
X0657659Y0113764D02*
X0656842Y0114581D01*
X0658925Y0112130D02*
X0660559Y0112130D01*
X0660559Y0114581D01*
X0679940Y0111149D02*
X0679940Y0110740D01*
X0680348Y0110332D01*
X0681166Y0110332D01*
X0681574Y0110740D01*
X0681574Y0111149D01*
X0681166Y0111558D01*
X0680348Y0111558D01*
X0679940Y0111149D01*
X0680348Y0110332D02*
X0679940Y0109923D01*
X0679940Y0109515D01*
X0680348Y0109106D01*
X0681166Y0109106D01*
X0681574Y0109515D01*
X0681574Y0109923D01*
X0681166Y0110332D01*
X0682840Y0110332D02*
X0684474Y0110332D01*
X0683248Y0111558D01*
X0683248Y0109106D01*
X0685740Y0109515D02*
X0686149Y0109106D01*
X0686966Y0109106D01*
X0687374Y0109515D01*
X0687374Y0111149D01*
X0686966Y0111558D01*
X0686149Y0111558D01*
X0685740Y0111149D01*
X0684072Y0104833D02*
X0684481Y0104425D01*
X0684481Y0102790D01*
X0684072Y0102381D01*
X0683255Y0102381D01*
X0682846Y0102790D01*
X0681581Y0103607D02*
X0679946Y0103607D01*
X0678680Y0103607D02*
X0677046Y0103607D01*
X0677455Y0102381D02*
X0677455Y0104833D01*
X0678680Y0103607D01*
X0680355Y0102381D02*
X0680355Y0104833D01*
X0681581Y0103607D01*
X0682846Y0104425D02*
X0683255Y0104833D01*
X0684072Y0104833D01*
X0674761Y0091479D02*
X0675170Y0091070D01*
X0675170Y0089436D01*
X0674761Y0089027D01*
X0673944Y0089027D01*
X0673535Y0089436D01*
X0672270Y0090253D02*
X0670635Y0090253D01*
X0671044Y0089027D02*
X0671044Y0091479D01*
X0672270Y0090253D01*
X0673535Y0091070D02*
X0673944Y0091479D01*
X0674761Y0091479D01*
X0669369Y0091070D02*
X0668961Y0091479D01*
X0668144Y0091479D01*
X0667735Y0091070D01*
X0667735Y0090662D01*
X0668144Y0090253D01*
X0667735Y0089844D01*
X0667735Y0089436D01*
X0668144Y0089027D01*
X0668961Y0089027D01*
X0669369Y0089436D01*
X0668552Y0090253D02*
X0668144Y0090253D01*
X0640857Y0088915D02*
X0640448Y0089324D01*
X0638814Y0087690D01*
X0638405Y0088098D01*
X0638405Y0088915D01*
X0638814Y0089324D01*
X0640448Y0089324D01*
X0640857Y0088915D02*
X0640857Y0088098D01*
X0640448Y0087690D01*
X0638814Y0087690D01*
X0640448Y0086424D02*
X0638814Y0084789D01*
X0638405Y0084789D01*
X0638814Y0083524D02*
X0638405Y0083115D01*
X0638405Y0082298D01*
X0638814Y0081889D01*
X0640448Y0081889D01*
X0640857Y0082298D01*
X0640857Y0083115D01*
X0640448Y0083524D01*
X0640857Y0084789D02*
X0640857Y0086424D01*
X0640448Y0086424D01*
X0611996Y0084614D02*
X0611996Y0082979D01*
X0611587Y0082570D01*
X0610770Y0082570D01*
X0610362Y0082979D01*
X0609096Y0083796D02*
X0607461Y0083796D01*
X0606196Y0083796D02*
X0605379Y0084205D01*
X0604970Y0084205D01*
X0604561Y0083796D01*
X0604561Y0082979D01*
X0604970Y0082570D01*
X0605787Y0082570D01*
X0606196Y0082979D01*
X0606196Y0083796D02*
X0606196Y0085022D01*
X0604561Y0085022D01*
X0607870Y0085022D02*
X0609096Y0083796D01*
X0610362Y0084614D02*
X0610770Y0085022D01*
X0611587Y0085022D01*
X0611996Y0084614D01*
X0607870Y0085022D02*
X0607870Y0082570D01*
X0624657Y0077754D02*
X0624657Y0076937D01*
X0625066Y0076528D01*
X0626700Y0078163D01*
X0625066Y0078163D01*
X0624657Y0077754D01*
X0625066Y0076528D02*
X0626700Y0076528D01*
X0627109Y0076937D01*
X0627109Y0077754D01*
X0626700Y0078163D01*
X0627109Y0075263D02*
X0626700Y0074445D01*
X0625883Y0073628D01*
X0625883Y0074854D01*
X0625474Y0075263D01*
X0625066Y0075263D01*
X0624657Y0074854D01*
X0624657Y0074037D01*
X0625066Y0073628D01*
X0625883Y0073628D01*
X0626700Y0072362D02*
X0627109Y0071954D01*
X0627109Y0071137D01*
X0626700Y0070728D01*
X0625066Y0070728D01*
X0624657Y0071137D01*
X0624657Y0071954D01*
X0625066Y0072362D01*
X0651429Y0071166D02*
X0651837Y0071575D01*
X0651429Y0071166D02*
X0651429Y0070349D01*
X0651837Y0069941D01*
X0653472Y0069941D01*
X0653880Y0070349D01*
X0653880Y0071166D01*
X0653472Y0071575D01*
X0652655Y0072841D02*
X0652655Y0074475D01*
X0653880Y0074067D02*
X0652655Y0072841D01*
X0651429Y0074067D02*
X0653880Y0074067D01*
X0653880Y0075741D02*
X0653880Y0077375D01*
X0653472Y0077375D01*
X0651837Y0075741D01*
X0651429Y0075741D01*
X0701062Y0049306D02*
X0701470Y0049715D01*
X0702288Y0049715D01*
X0702696Y0049306D01*
X0702696Y0048898D01*
X0702288Y0048489D01*
X0701470Y0048489D01*
X0701062Y0048081D01*
X0701062Y0047672D01*
X0701470Y0047263D01*
X0702288Y0047263D01*
X0702696Y0047672D01*
X0702696Y0048081D01*
X0702288Y0048489D01*
X0701470Y0048489D02*
X0701062Y0048898D01*
X0701062Y0049306D01*
X0703962Y0049306D02*
X0704370Y0049715D01*
X0705188Y0049715D01*
X0705596Y0049306D01*
X0706862Y0049306D02*
X0706862Y0048489D01*
X0707271Y0048081D01*
X0708496Y0048081D01*
X0707679Y0048081D02*
X0706862Y0047263D01*
X0705596Y0047263D02*
X0703962Y0048898D01*
X0703962Y0049306D01*
X0703962Y0047263D02*
X0705596Y0047263D01*
X0706862Y0049306D02*
X0707271Y0049715D01*
X0708496Y0049715D01*
X0708496Y0047263D01*
X0728715Y0047578D02*
X0728715Y0047986D01*
X0729123Y0048395D01*
X0730349Y0048395D01*
X0730349Y0047578D01*
X0729941Y0047169D01*
X0729123Y0047169D01*
X0728715Y0047578D01*
X0729532Y0049212D02*
X0730349Y0048395D01*
X0729532Y0049212D02*
X0728715Y0049621D01*
X0731615Y0049212D02*
X0732024Y0049621D01*
X0732841Y0049621D01*
X0733249Y0049212D01*
X0734515Y0049212D02*
X0734515Y0048395D01*
X0734924Y0047986D01*
X0736150Y0047986D01*
X0736150Y0047169D02*
X0736150Y0049621D01*
X0734924Y0049621D01*
X0734515Y0049212D01*
X0735332Y0047986D02*
X0734515Y0047169D01*
X0733249Y0047169D02*
X0731615Y0048803D01*
X0731615Y0049212D01*
X0731615Y0047169D02*
X0733249Y0047169D01*
X0614102Y0100727D02*
X0613694Y0100319D01*
X0612876Y0100319D01*
X0612468Y0100727D01*
X0611202Y0101544D02*
X0609568Y0101544D01*
X0608302Y0101544D02*
X0607076Y0101544D01*
X0606668Y0101136D01*
X0606668Y0100727D01*
X0607076Y0100319D01*
X0607893Y0100319D01*
X0608302Y0100727D01*
X0608302Y0101544D01*
X0607485Y0102362D01*
X0606668Y0102770D01*
X0609976Y0102770D02*
X0611202Y0101544D01*
X0612468Y0102362D02*
X0612876Y0102770D01*
X0613694Y0102770D01*
X0614102Y0102362D01*
X0614102Y0100727D01*
X0609976Y0100319D02*
X0609976Y0102770D01*
X0630440Y0127921D02*
X0630849Y0128329D01*
X0631666Y0128329D01*
X0632075Y0127921D01*
X0784862Y0188189D02*
X0787314Y0188189D01*
X0787314Y0189414D01*
X0786905Y0189823D01*
X0786088Y0189823D01*
X0785679Y0189414D01*
X0785679Y0188189D01*
X0785679Y0189006D02*
X0784862Y0189823D01*
X0785270Y0191089D02*
X0784862Y0191497D01*
X0784862Y0192315D01*
X0785270Y0192723D01*
X0785679Y0192723D01*
X0786088Y0192315D01*
X0786088Y0191906D01*
X0786088Y0192315D02*
X0786496Y0192723D01*
X0786905Y0192723D01*
X0787314Y0192315D01*
X0787314Y0191497D01*
X0786905Y0191089D01*
X0786496Y0193989D02*
X0787314Y0194806D01*
X0784862Y0194806D01*
X0784862Y0193989D02*
X0784862Y0195623D01*
X0800216Y0195215D02*
X0800216Y0194397D01*
X0800625Y0193989D01*
X0801442Y0193989D02*
X0801851Y0194806D01*
X0801851Y0195215D01*
X0801442Y0195623D01*
X0800625Y0195623D01*
X0800216Y0195215D01*
X0801442Y0193989D02*
X0802668Y0193989D01*
X0802668Y0195623D01*
X0802259Y0192723D02*
X0801851Y0192723D01*
X0801442Y0192315D01*
X0801033Y0192723D01*
X0800625Y0192723D01*
X0800216Y0192315D01*
X0800216Y0191497D01*
X0800625Y0191089D01*
X0801442Y0191906D02*
X0801442Y0192315D01*
X0802259Y0192723D02*
X0802668Y0192315D01*
X0802668Y0191497D01*
X0802259Y0191089D01*
X0802259Y0189823D02*
X0801442Y0189823D01*
X0801033Y0189414D01*
X0801033Y0188189D01*
X0801033Y0189006D02*
X0800216Y0189823D01*
X0800216Y0188189D02*
X0802668Y0188189D01*
X0802668Y0189414D01*
X0802259Y0189823D01*
D16*
X0727575Y0240739D03*
D17*
X0639386Y0221591D03*
X0634268Y0221591D03*
X0693323Y0277102D03*
X0617339Y0134976D03*
X0610252Y0134976D03*
X0603165Y0134976D03*
D18*
X0586282Y0145481D02*
X0586282Y0147383D01*
X0586282Y0146432D02*
X0583430Y0146432D01*
X0583430Y0148381D02*
X0586282Y0148381D01*
X0586282Y0149807D01*
X0585806Y0150283D01*
X0584856Y0150283D01*
X0584380Y0149807D01*
X0584380Y0148381D01*
X0583905Y0151281D02*
X0583430Y0151757D01*
X0583430Y0152707D01*
X0583905Y0153183D01*
X0584380Y0153183D01*
X0584856Y0152707D01*
X0584856Y0151281D01*
X0583905Y0151281D01*
X0584856Y0151281D02*
X0585806Y0152232D01*
X0586282Y0153183D01*
M02*
