G75*
%MOIN*%
%OFA0B0*%
%FSLAX25Y25*%
%IPPOS*%
%LPD*%
%AMOC8*
5,1,8,0,0,1.08239X$1,22.5*
%
%ADD10C,0.04409*%
%ADD11C,0.14630*%
%ADD12C,0.14600*%
%ADD13C,0.01387*%
%ADD14C,0.01781*%
%ADD15C,0.02205*%
%ADD16C,0.03858*%
%ADD17C,0.01575*%
%ADD18C,0.00787*%
%ADD19C,0.00354*%
%ADD20C,0.02756*%
%ADD21C,0.03937*%
%ADD22C,0.01978*%
%ADD23C,0.00591*%
%ADD24C,0.00350*%
%ADD25C,0.00748*%
D10*
X0129117Y0362148D03*
X0134117Y0367148D03*
X0139117Y0362148D03*
X0139117Y0372148D03*
X0139117Y0379865D03*
X0134117Y0384865D03*
X0139117Y0389865D03*
X0139117Y0397581D03*
X0134117Y0402581D03*
X0139117Y0407581D03*
X0139117Y0417266D03*
X0134117Y0422266D03*
X0139117Y0427266D03*
X0139117Y0436951D03*
X0134117Y0441951D03*
X0129117Y0436951D03*
X0129117Y0427266D03*
X0129117Y0417266D03*
X0129117Y0407581D03*
X0129117Y0397581D03*
X0129117Y0389865D03*
X0129117Y0379865D03*
X0129117Y0372148D03*
X0129117Y0446951D03*
X0139117Y0446951D03*
D11*
X0169156Y0459865D03*
X0169156Y0237227D03*
D12*
X0383991Y0227400D03*
X0383991Y0475400D03*
D13*
X0236085Y0217542D03*
X0234904Y0223447D03*
X0228605Y0229353D03*
X0220731Y0229353D03*
X0212857Y0229353D03*
X0204983Y0229353D03*
X0197109Y0229353D03*
X0189235Y0229353D03*
X0181361Y0229353D03*
X0181361Y0236439D03*
X0170731Y0247069D03*
X0167188Y0247069D03*
X0159314Y0247069D03*
X0151440Y0247069D03*
X0145928Y0248644D03*
X0135692Y0247069D03*
X0127818Y0247069D03*
X0127818Y0254943D03*
X0133723Y0252975D03*
X0134510Y0260455D03*
X0127818Y0262817D03*
X0127818Y0270691D03*
X0127818Y0278565D03*
X0127818Y0286439D03*
X0136085Y0289589D03*
X0127818Y0294313D03*
X0127818Y0302187D03*
X0127818Y0310061D03*
X0127818Y0317935D03*
X0127818Y0325809D03*
X0134510Y0328172D03*
X0127818Y0333684D03*
X0127818Y0341558D03*
X0127818Y0349432D03*
X0139629Y0354943D03*
X0141203Y0339589D03*
X0152227Y0330534D03*
X0152227Y0317542D03*
X0147896Y0315573D03*
X0149077Y0309668D03*
X0145534Y0307306D03*
X0145534Y0304156D03*
X0142778Y0305731D03*
X0140022Y0307306D03*
X0140022Y0304156D03*
X0137660Y0310455D03*
X0137660Y0315573D03*
X0152621Y0302975D03*
X0161282Y0305337D03*
X0165219Y0303172D03*
X0164825Y0297857D03*
X0160888Y0297463D03*
X0163251Y0293526D03*
X0164825Y0289589D03*
X0160495Y0289589D03*
X0166794Y0285258D03*
X0168992Y0282259D03*
X0166007Y0280534D03*
X0165613Y0277778D03*
X0163644Y0278728D03*
X0165140Y0275376D03*
X0161518Y0281872D03*
X0172699Y0287621D03*
X0171912Y0290406D03*
X0178762Y0292345D03*
X0177424Y0295101D03*
X0181676Y0294904D03*
X0181655Y0297517D03*
X0181447Y0300246D03*
X0180593Y0303422D03*
X0179378Y0305337D03*
X0179392Y0308093D03*
X0179392Y0310455D03*
X0181655Y0310428D03*
X0181740Y0313686D03*
X0188841Y0312030D03*
X0191203Y0312030D03*
X0193566Y0312817D03*
X0196653Y0307726D03*
X0196236Y0303932D03*
X0190022Y0302187D03*
X0196715Y0295746D03*
X0199015Y0296703D03*
X0202952Y0303029D03*
X0204196Y0309274D03*
X0204196Y0315573D03*
X0200207Y0318415D03*
X0195731Y0319904D03*
X0195744Y0323007D03*
X0197440Y0324262D03*
X0199161Y0330086D03*
X0199015Y0332475D03*
X0197503Y0335344D03*
X0200652Y0336439D03*
X0202227Y0334865D03*
X0205377Y0336439D03*
X0203802Y0339195D03*
X0198290Y0339983D03*
X0196322Y0340770D03*
X0194747Y0342345D03*
X0193172Y0343920D03*
X0191597Y0345495D03*
X0192385Y0348644D03*
X0190810Y0350613D03*
X0187660Y0347069D03*
X0183329Y0343132D03*
X0185298Y0341558D03*
X0182542Y0338802D03*
X0180573Y0339983D03*
X0180573Y0336833D03*
X0182542Y0334471D03*
X0180180Y0330140D03*
X0180180Y0327384D03*
X0182542Y0326230D03*
X0180967Y0323582D03*
X0182542Y0321479D03*
X0186479Y0319510D03*
X0189166Y0319579D03*
X0191991Y0319510D03*
X0187266Y0331715D03*
X0188448Y0335468D03*
X0191203Y0339589D03*
X0181361Y0349825D03*
X0201046Y0351006D03*
X0210495Y0352975D03*
X0212463Y0351006D03*
X0217975Y0359668D03*
X0219550Y0357699D03*
X0228211Y0356899D03*
X0232936Y0361243D03*
X0227818Y0365967D03*
X0225455Y0367542D03*
X0241597Y0368723D03*
X0254196Y0381321D03*
X0260101Y0380534D03*
X0260101Y0391558D03*
X0257739Y0399825D03*
X0263644Y0399825D03*
X0269550Y0399825D03*
X0275455Y0399825D03*
X0281361Y0399825D03*
X0284117Y0406518D03*
X0288054Y0405337D03*
X0288054Y0410061D03*
X0286085Y0411636D03*
X0284904Y0413211D03*
X0292385Y0411046D03*
X0300770Y0407739D03*
X0303999Y0408684D03*
X0305692Y0410140D03*
X0306361Y0408684D03*
X0308723Y0408487D03*
X0308716Y0410647D03*
X0308723Y0412621D03*
X0307030Y0411676D03*
X0307542Y0405534D03*
X0307148Y0402384D03*
X0307936Y0399038D03*
X0303014Y0398250D03*
X0297699Y0398841D03*
X0293959Y0400219D03*
X0298487Y0404156D03*
X0303014Y0404353D03*
X0314589Y0410376D03*
X0315928Y0408998D03*
X0317778Y0408093D03*
X0317975Y0409865D03*
X0319051Y0412320D03*
X0320928Y0412424D03*
X0323800Y0412234D03*
X0329196Y0408290D03*
X0333677Y0400411D03*
X0334707Y0397857D03*
X0334904Y0393723D03*
X0339235Y0393723D03*
X0339038Y0388211D03*
X0334904Y0388211D03*
X0334904Y0384077D03*
X0329392Y0384865D03*
X0329392Y0388211D03*
X0325062Y0388211D03*
X0322896Y0391164D03*
X0325259Y0393723D03*
X0329392Y0393723D03*
X0329392Y0397857D03*
X0323244Y0400529D03*
X0316991Y0412424D03*
X0297109Y0389195D03*
X0294747Y0386243D03*
X0292581Y0386243D03*
X0292581Y0383093D03*
X0294550Y0383093D03*
X0290416Y0389589D03*
X0293172Y0391558D03*
X0288448Y0393920D03*
X0284904Y0384865D03*
X0279392Y0388014D03*
X0273487Y0388014D03*
X0272306Y0406518D03*
X0278211Y0406518D03*
X0266400Y0406518D03*
X0260495Y0406518D03*
X0254589Y0406518D03*
X0248684Y0406518D03*
X0243959Y0408854D03*
X0242778Y0406518D03*
X0236873Y0406518D03*
X0233329Y0409274D03*
X0230967Y0406518D03*
X0225062Y0406518D03*
X0222306Y0399825D03*
X0228211Y0399825D03*
X0234117Y0399825D03*
X0240022Y0399825D03*
X0245928Y0399825D03*
X0251833Y0399825D03*
X0246715Y0387621D03*
X0231755Y0390770D03*
X0223881Y0385652D03*
X0212070Y0390376D03*
X0212070Y0399825D03*
X0216400Y0399825D03*
X0219156Y0406518D03*
X0213251Y0406518D03*
X0212463Y0410849D03*
X0207345Y0406518D03*
X0201440Y0406518D03*
X0195534Y0406518D03*
X0189629Y0406518D03*
X0184117Y0406518D03*
X0178999Y0407699D03*
X0175455Y0410061D03*
X0172699Y0403369D03*
X0169550Y0406912D03*
X0165219Y0409668D03*
X0160495Y0410061D03*
X0155377Y0410849D03*
X0156951Y0400219D03*
X0156558Y0392739D03*
X0156951Y0385258D03*
X0156558Y0378172D03*
X0156951Y0370298D03*
X0170337Y0390770D03*
X0177030Y0401006D03*
X0182148Y0399825D03*
X0186873Y0399825D03*
X0192778Y0399825D03*
X0197503Y0399825D03*
X0203014Y0399825D03*
X0193172Y0387227D03*
X0202621Y0382109D03*
X0199077Y0380140D03*
X0208133Y0380928D03*
X0199865Y0367148D03*
X0210826Y0333880D03*
X0212070Y0331715D03*
X0226636Y0313998D03*
X0250331Y0332181D03*
X0247306Y0338014D03*
X0243959Y0341164D03*
X0240416Y0337621D03*
X0236282Y0341951D03*
X0239825Y0345495D03*
X0243959Y0349825D03*
X0246912Y0352778D03*
X0251440Y0348644D03*
X0248290Y0345495D03*
X0251636Y0342345D03*
X0259314Y0350219D03*
X0258133Y0351794D03*
X0256760Y0353166D03*
X0255425Y0354501D03*
X0260888Y0353762D03*
X0265613Y0349432D03*
X0263251Y0347069D03*
X0269156Y0348644D03*
X0273093Y0343920D03*
X0270337Y0340376D03*
X0270266Y0338014D03*
X0268369Y0335652D03*
X0265180Y0332910D03*
X0269944Y0326597D03*
X0265219Y0323841D03*
X0267581Y0314786D03*
X0272306Y0316754D03*
X0274274Y0315573D03*
X0280573Y0305731D03*
X0280573Y0303369D03*
X0280573Y0300613D03*
X0288054Y0297463D03*
X0286479Y0289983D03*
X0284904Y0284471D03*
X0293959Y0284077D03*
X0299077Y0283684D03*
X0299077Y0278565D03*
X0299077Y0273841D03*
X0293959Y0273841D03*
X0293959Y0278565D03*
X0304196Y0273841D03*
X0308920Y0273841D03*
X0314038Y0273841D03*
X0314038Y0268723D03*
X0308920Y0268723D03*
X0303802Y0268723D03*
X0303802Y0263998D03*
X0310888Y0259077D03*
X0314300Y0257410D03*
X0320337Y0263473D03*
X0322306Y0263473D03*
X0324274Y0268723D03*
X0328999Y0268723D03*
X0333723Y0268723D03*
X0333723Y0273841D03*
X0328999Y0273841D03*
X0324274Y0273841D03*
X0319156Y0273841D03*
X0319156Y0268723D03*
X0323881Y0278959D03*
X0328999Y0278959D03*
X0333723Y0278959D03*
X0333329Y0284077D03*
X0328999Y0284077D03*
X0328999Y0288408D03*
X0323881Y0288408D03*
X0323881Y0284077D03*
X0338841Y0278565D03*
X0338841Y0273841D03*
X0338841Y0268723D03*
X0338841Y0263605D03*
X0330573Y0258880D03*
X0328343Y0257410D03*
X0324668Y0245101D03*
X0317581Y0245413D03*
X0315652Y0245615D03*
X0312857Y0245495D03*
X0310888Y0245495D03*
X0308798Y0245307D03*
X0306558Y0245495D03*
X0304196Y0245495D03*
X0301833Y0245495D03*
X0284904Y0232109D03*
X0275455Y0224235D03*
X0275455Y0217542D03*
X0283329Y0217542D03*
X0291203Y0217542D03*
X0294747Y0218485D03*
X0297109Y0219510D03*
X0297109Y0222660D03*
X0295534Y0224628D03*
X0280180Y0246282D03*
X0280180Y0248847D03*
X0280180Y0258487D03*
X0276636Y0260455D03*
X0272699Y0259274D03*
X0268762Y0266754D03*
X0270731Y0269904D03*
X0269156Y0271872D03*
X0270337Y0274235D03*
X0269016Y0280140D03*
X0266400Y0284471D03*
X0271125Y0298250D03*
X0260101Y0314392D03*
X0256558Y0313605D03*
X0253014Y0315180D03*
X0289235Y0341558D03*
X0294747Y0338408D03*
X0297503Y0338408D03*
X0297503Y0335652D03*
X0294747Y0335652D03*
X0292778Y0329353D03*
X0302227Y0332109D03*
X0304589Y0332109D03*
X0306558Y0332109D03*
X0306164Y0334077D03*
X0303802Y0334077D03*
X0303802Y0330140D03*
X0306164Y0330140D03*
X0312463Y0332502D03*
X0316794Y0335652D03*
X0319550Y0335652D03*
X0319550Y0338802D03*
X0316794Y0338802D03*
X0312070Y0342345D03*
X0324222Y0332109D03*
X0325849Y0333684D03*
X0326636Y0331715D03*
X0328211Y0332896D03*
X0328211Y0334865D03*
X0327818Y0337621D03*
X0333723Y0341951D03*
X0338448Y0337621D03*
X0341203Y0337621D03*
X0341203Y0334865D03*
X0338448Y0334865D03*
X0334117Y0331321D03*
X0345928Y0331321D03*
X0347503Y0332502D03*
X0348290Y0330534D03*
X0350652Y0330534D03*
X0350259Y0332502D03*
X0350259Y0334471D03*
X0350259Y0337227D03*
X0358526Y0338014D03*
X0358526Y0334077D03*
X0361282Y0329353D03*
X0366794Y0328959D03*
X0371912Y0330928D03*
X0372699Y0326991D03*
X0377030Y0326597D03*
X0382148Y0326597D03*
X0382148Y0330928D03*
X0382148Y0336439D03*
X0377030Y0336046D03*
X0377030Y0339983D03*
X0372306Y0339983D03*
X0371518Y0336046D03*
X0367975Y0335652D03*
X0364038Y0336046D03*
X0367188Y0343920D03*
X0367188Y0349825D03*
X0372306Y0354156D03*
X0377424Y0350219D03*
X0381755Y0350613D03*
X0386873Y0351400D03*
X0391597Y0356518D03*
X0397109Y0356912D03*
X0397109Y0352187D03*
X0402621Y0351006D03*
X0400259Y0346676D03*
X0396912Y0346282D03*
X0392778Y0341951D03*
X0392385Y0337621D03*
X0388054Y0335652D03*
X0391991Y0330928D03*
X0391991Y0326203D03*
X0392385Y0321085D03*
X0387266Y0321085D03*
X0387660Y0317148D03*
X0391991Y0315573D03*
X0386873Y0310849D03*
X0382148Y0310849D03*
X0377030Y0310849D03*
X0372306Y0310061D03*
X0372306Y0312817D03*
X0376258Y0315589D03*
X0377030Y0319117D03*
X0382148Y0321085D03*
X0386873Y0326597D03*
X0396715Y0331715D03*
X0401440Y0322660D03*
X0406951Y0323841D03*
X0411676Y0326597D03*
X0412070Y0331321D03*
X0406951Y0331321D03*
X0406558Y0337621D03*
X0406951Y0343920D03*
X0412070Y0340770D03*
X0412070Y0351006D03*
X0412070Y0354943D03*
X0402227Y0356124D03*
X0402227Y0361243D03*
X0397896Y0365573D03*
X0397896Y0370691D03*
X0402227Y0371479D03*
X0401833Y0376203D03*
X0402621Y0380928D03*
X0406951Y0381321D03*
X0406951Y0384471D03*
X0412070Y0380928D03*
X0412070Y0376597D03*
X0406951Y0376203D03*
X0406951Y0371085D03*
X0412463Y0371085D03*
X0412070Y0366361D03*
X0406951Y0365180D03*
X0396715Y0376203D03*
X0397503Y0380140D03*
X0397503Y0382502D03*
X0397109Y0386439D03*
X0393172Y0385652D03*
X0392778Y0390376D03*
X0387660Y0390376D03*
X0387660Y0395495D03*
X0391597Y0396282D03*
X0392385Y0401006D03*
X0392385Y0405731D03*
X0387660Y0405337D03*
X0386873Y0400613D03*
X0381755Y0399432D03*
X0382148Y0395101D03*
X0382148Y0385258D03*
X0376636Y0381321D03*
X0371912Y0381321D03*
X0367581Y0382109D03*
X0372306Y0388802D03*
X0372148Y0394904D03*
X0371125Y0396676D03*
X0372306Y0399825D03*
X0367581Y0399825D03*
X0366007Y0397463D03*
X0367581Y0395495D03*
X0359132Y0392557D03*
X0356164Y0391951D03*
X0355770Y0389983D03*
X0356157Y0387419D03*
X0353605Y0387621D03*
X0351826Y0387812D03*
X0348290Y0383684D03*
X0348290Y0381715D03*
X0349471Y0379747D03*
X0347896Y0377384D03*
X0349865Y0375416D03*
X0346322Y0371872D03*
X0344747Y0373841D03*
X0348684Y0369586D03*
X0348093Y0366361D03*
X0356951Y0360849D03*
X0359314Y0359274D03*
X0366794Y0363998D03*
X0372306Y0363998D03*
X0377030Y0364786D03*
X0377030Y0369510D03*
X0371912Y0369510D03*
X0377424Y0375416D03*
X0382542Y0375416D03*
X0386873Y0376597D03*
X0392385Y0376203D03*
X0391597Y0370691D03*
X0386873Y0370691D03*
X0382936Y0370298D03*
X0381755Y0365180D03*
X0382542Y0360455D03*
X0382148Y0356912D03*
X0377030Y0359274D03*
X0377424Y0345101D03*
X0382542Y0345495D03*
X0386873Y0345495D03*
X0391991Y0365180D03*
X0397109Y0396282D03*
X0401833Y0396676D03*
X0406558Y0396282D03*
X0406558Y0401400D03*
X0406164Y0406124D03*
X0401935Y0403910D03*
X0399865Y0406456D03*
X0396715Y0410455D03*
X0391991Y0411243D03*
X0388054Y0410849D03*
X0386873Y0415180D03*
X0387266Y0419117D03*
X0392778Y0420691D03*
X0392778Y0415573D03*
X0402227Y0421085D03*
X0407345Y0421479D03*
X0412070Y0416361D03*
X0411676Y0410849D03*
X0412070Y0406124D03*
X0411676Y0401400D03*
X0412463Y0396676D03*
X0419156Y0396282D03*
X0419944Y0399038D03*
X0425062Y0398644D03*
X0425062Y0406518D03*
X0419550Y0410849D03*
X0425062Y0414392D03*
X0425062Y0422266D03*
X0425062Y0430140D03*
X0425062Y0438014D03*
X0425062Y0445888D03*
X0425062Y0453762D03*
X0425062Y0461636D03*
X0425062Y0469510D03*
X0425062Y0477384D03*
X0417188Y0476991D03*
X0417188Y0485258D03*
X0425062Y0485258D03*
X0409314Y0485258D03*
X0401440Y0485258D03*
X0398684Y0479353D03*
X0393566Y0485258D03*
X0385692Y0485258D03*
X0377818Y0485258D03*
X0369944Y0485258D03*
X0362070Y0485258D03*
X0362764Y0477476D03*
X0360795Y0475507D03*
X0358827Y0473539D03*
X0358827Y0477476D03*
X0362764Y0473539D03*
X0371518Y0472266D03*
X0372030Y0478369D03*
X0369156Y0465967D03*
X0365613Y0462817D03*
X0362070Y0462817D03*
X0354196Y0460455D03*
X0350259Y0460061D03*
X0348000Y0459956D03*
X0345441Y0460153D03*
X0343079Y0459365D03*
X0341701Y0460842D03*
X0344161Y0463302D03*
X0346327Y0462909D03*
X0349077Y0463211D03*
X0347901Y0466058D03*
X0345638Y0465763D03*
X0346228Y0469208D03*
X0341203Y0470691D03*
X0338091Y0479390D03*
X0338448Y0485258D03*
X0330573Y0485258D03*
X0325062Y0484077D03*
X0322699Y0485258D03*
X0314825Y0485258D03*
X0306951Y0485258D03*
X0299077Y0485258D03*
X0291203Y0485258D03*
X0283329Y0485258D03*
X0275455Y0485258D03*
X0267581Y0485258D03*
X0259707Y0485258D03*
X0258133Y0478172D03*
X0256558Y0476597D03*
X0258133Y0475022D03*
X0254983Y0478172D03*
X0248093Y0483880D03*
X0251833Y0485258D03*
X0243959Y0485258D03*
X0236085Y0485258D03*
X0228211Y0485258D03*
X0220337Y0485258D03*
X0214432Y0476991D03*
X0214038Y0471872D03*
X0224274Y0466361D03*
X0223881Y0460061D03*
X0227818Y0455534D03*
X0230967Y0460455D03*
X0240810Y0460652D03*
X0241007Y0458880D03*
X0241007Y0463408D03*
X0243066Y0463501D03*
X0246634Y0463130D03*
X0248684Y0468920D03*
X0252424Y0457699D03*
X0246912Y0456518D03*
X0245928Y0450219D03*
X0248684Y0443920D03*
X0246125Y0441361D03*
X0248684Y0438408D03*
X0253014Y0438408D03*
X0253014Y0434077D03*
X0258526Y0434077D03*
X0258526Y0431321D03*
X0258526Y0438408D03*
X0262857Y0438408D03*
X0262857Y0443920D03*
X0258526Y0443920D03*
X0258526Y0448250D03*
X0255770Y0450613D03*
X0253014Y0448250D03*
X0253014Y0443920D03*
X0264432Y0450613D03*
X0260313Y0457488D03*
X0270329Y0467354D03*
X0266203Y0469707D03*
X0264235Y0469707D03*
X0262266Y0469707D03*
X0269550Y0473054D03*
X0280573Y0474628D03*
X0281755Y0469904D03*
X0292778Y0462030D03*
X0291597Y0458093D03*
X0288448Y0456518D03*
X0287660Y0454756D03*
X0285888Y0453575D03*
X0288644Y0451794D03*
X0285692Y0447857D03*
X0283329Y0449825D03*
X0283329Y0445888D03*
X0287266Y0443920D03*
X0285692Y0441951D03*
X0283329Y0440376D03*
X0282936Y0437621D03*
X0279976Y0437812D03*
X0277424Y0437817D03*
X0275455Y0437621D03*
X0276039Y0434466D03*
X0274070Y0434466D03*
X0278204Y0434466D03*
X0280173Y0434466D03*
X0283526Y0430928D03*
X0285692Y0432896D03*
X0285692Y0436046D03*
X0289629Y0439589D03*
X0292778Y0444313D03*
X0299077Y0439589D03*
X0285692Y0428959D03*
X0283329Y0427384D03*
X0285692Y0425022D03*
X0283133Y0423447D03*
X0273881Y0418329D03*
X0271912Y0421479D03*
X0269550Y0419510D03*
X0248290Y0423054D03*
X0247102Y0418726D03*
X0243959Y0425022D03*
X0239000Y0424863D03*
X0236873Y0425613D03*
X0235298Y0419510D03*
X0232542Y0416550D03*
X0229392Y0417935D03*
X0238841Y0413605D03*
X0245928Y0433290D03*
X0225455Y0432896D03*
X0219156Y0433290D03*
X0219156Y0436046D03*
X0216400Y0436046D03*
X0216400Y0433290D03*
X0212463Y0435652D03*
X0209314Y0434077D03*
X0205377Y0434077D03*
X0201440Y0434077D03*
X0197503Y0434077D03*
X0193566Y0434077D03*
X0189629Y0434077D03*
X0189629Y0441164D03*
X0193566Y0441164D03*
X0197503Y0441164D03*
X0201440Y0441164D03*
X0205377Y0441164D03*
X0209707Y0442345D03*
X0208920Y0447463D03*
X0213644Y0445888D03*
X0216203Y0451597D03*
X0220140Y0449038D03*
X0221715Y0454156D03*
X0225849Y0449432D03*
X0230770Y0450416D03*
X0219156Y0439589D03*
X0216400Y0439589D03*
X0208526Y0452581D03*
X0214038Y0460061D03*
X0192778Y0456518D03*
X0192778Y0445101D03*
X0185692Y0441164D03*
X0177818Y0441164D03*
X0173881Y0441164D03*
X0169944Y0441164D03*
X0166007Y0441164D03*
X0166007Y0434077D03*
X0169944Y0434077D03*
X0173881Y0434077D03*
X0177818Y0434077D03*
X0181755Y0434077D03*
X0184904Y0426991D03*
X0171309Y0426991D03*
X0169550Y0430140D03*
X0162070Y0434077D03*
X0158920Y0450219D03*
X0166794Y0450219D03*
X0174668Y0450219D03*
X0177030Y0467542D03*
X0173881Y0470298D03*
X0177030Y0473841D03*
X0181361Y0475022D03*
X0185692Y0474628D03*
X0193959Y0474628D03*
X0195928Y0473054D03*
X0193959Y0469510D03*
X0151046Y0450219D03*
X0143172Y0450219D03*
X0144353Y0430534D03*
X0170337Y0415573D03*
X0164038Y0346676D03*
X0165219Y0332896D03*
X0165613Y0327778D03*
X0165219Y0324235D03*
X0165219Y0319904D03*
X0160888Y0312424D03*
X0165219Y0308880D03*
X0175455Y0300219D03*
X0173487Y0297906D03*
X0181164Y0286833D03*
X0181029Y0281294D03*
X0180724Y0277384D03*
X0181558Y0270298D03*
X0181361Y0266951D03*
X0186479Y0264786D03*
X0188448Y0265180D03*
X0190963Y0265026D03*
X0194353Y0263998D03*
X0195928Y0265967D03*
X0197503Y0269510D03*
X0197209Y0275980D03*
X0197982Y0280705D03*
X0196647Y0282040D03*
X0199471Y0286046D03*
X0204196Y0289195D03*
X0191191Y0292025D03*
X0188910Y0292020D03*
X0186941Y0291232D03*
X0190810Y0284865D03*
X0187857Y0281686D03*
X0189385Y0275416D03*
X0185692Y0261439D03*
X0194747Y0252384D03*
X0203999Y0255534D03*
X0203999Y0261243D03*
X0204196Y0266754D03*
X0210101Y0259865D03*
X0210101Y0257896D03*
X0210495Y0256009D03*
X0204196Y0248841D03*
X0225849Y0254943D03*
X0229294Y0255239D03*
X0231755Y0254550D03*
X0252792Y0248473D03*
X0255205Y0251572D03*
X0252792Y0243748D03*
X0254418Y0242517D03*
X0266007Y0245101D03*
X0267581Y0246676D03*
X0269156Y0248250D03*
X0269156Y0245101D03*
X0268762Y0242345D03*
X0253802Y0231715D03*
X0253408Y0228959D03*
X0253408Y0226597D03*
X0259707Y0217542D03*
X0266794Y0218723D03*
X0266794Y0221479D03*
X0263251Y0223841D03*
X0244747Y0225022D03*
X0243959Y0223054D03*
X0243959Y0217542D03*
X0241203Y0231321D03*
X0243827Y0233994D03*
X0243827Y0236129D03*
X0258181Y0263556D03*
X0265219Y0263605D03*
X0259707Y0271085D03*
X0280573Y0274628D03*
X0280573Y0264786D03*
X0299865Y0292345D03*
X0343959Y0278172D03*
X0343959Y0273841D03*
X0349471Y0273841D03*
X0350259Y0276991D03*
X0354589Y0269117D03*
X0367581Y0267148D03*
X0371912Y0265967D03*
X0371912Y0261243D03*
X0368369Y0261636D03*
X0367188Y0256124D03*
X0371735Y0255987D03*
X0374668Y0251400D03*
X0384510Y0250219D03*
X0394353Y0251400D03*
X0402227Y0251400D03*
X0401440Y0256518D03*
X0396715Y0261243D03*
X0390416Y0266754D03*
X0388841Y0261243D03*
X0387660Y0271872D03*
X0384904Y0271479D03*
X0387660Y0276203D03*
X0382542Y0276991D03*
X0382148Y0281715D03*
X0377818Y0281715D03*
X0377424Y0286833D03*
X0377030Y0291164D03*
X0372306Y0292345D03*
X0371912Y0286439D03*
X0371912Y0280928D03*
X0372306Y0276203D03*
X0367581Y0276203D03*
X0371912Y0271085D03*
X0377247Y0271459D03*
X0377424Y0267148D03*
X0377424Y0262817D03*
X0377030Y0276597D03*
X0381755Y0286046D03*
X0382148Y0291558D03*
X0386479Y0291558D03*
X0387660Y0287227D03*
X0387660Y0282109D03*
X0392778Y0282109D03*
X0392385Y0291558D03*
X0387660Y0297069D03*
X0382936Y0297069D03*
X0381755Y0301006D03*
X0376636Y0301006D03*
X0373093Y0300613D03*
X0371912Y0304943D03*
X0367188Y0304943D03*
X0367975Y0300613D03*
X0377818Y0297463D03*
X0387266Y0302581D03*
X0391991Y0301006D03*
X0397109Y0304550D03*
X0392385Y0308093D03*
X0406558Y0311243D03*
X0406951Y0315180D03*
X0406951Y0318329D03*
X0411676Y0320298D03*
X0425062Y0323841D03*
X0425062Y0333684D03*
X0425062Y0343526D03*
X0425062Y0351400D03*
X0425062Y0359274D03*
X0425062Y0367148D03*
X0425062Y0375022D03*
X0425062Y0382896D03*
X0425062Y0390770D03*
X0405770Y0411243D03*
X0392385Y0430140D03*
X0391991Y0436046D03*
X0388054Y0436046D03*
X0387266Y0439983D03*
X0382148Y0436439D03*
X0377818Y0436046D03*
X0377030Y0439983D03*
X0371912Y0439589D03*
X0367975Y0441164D03*
X0367188Y0434471D03*
X0372699Y0431321D03*
X0374274Y0434077D03*
X0377030Y0431321D03*
X0377030Y0426597D03*
X0377030Y0421479D03*
X0373093Y0420691D03*
X0368369Y0421085D03*
X0364825Y0418723D03*
X0363684Y0419983D03*
X0362266Y0421400D03*
X0360888Y0422699D03*
X0359629Y0423959D03*
X0358251Y0425140D03*
X0356833Y0426676D03*
X0355298Y0427975D03*
X0353999Y0429156D03*
X0368369Y0425809D03*
X0367581Y0415967D03*
X0366400Y0410849D03*
X0372109Y0408526D03*
X0372306Y0404550D03*
X0367188Y0404550D03*
X0376715Y0408723D03*
X0382148Y0408880D03*
X0381755Y0414195D03*
X0376833Y0414195D03*
X0387266Y0425809D03*
X0386479Y0430928D03*
X0397109Y0441558D03*
X0397109Y0451006D03*
X0404196Y0452187D03*
X0411282Y0441164D03*
X0407345Y0464786D03*
X0382542Y0451006D03*
X0362463Y0451006D03*
X0358526Y0447857D03*
X0358526Y0445101D03*
X0349077Y0454550D03*
X0350067Y0457003D03*
X0347016Y0456806D03*
X0344161Y0457397D03*
X0341504Y0456019D03*
X0343571Y0454346D03*
X0345835Y0453657D03*
X0336779Y0460842D03*
X0331858Y0450999D03*
X0329392Y0450928D03*
X0326636Y0448644D03*
X0327030Y0445888D03*
X0325062Y0445888D03*
X0325062Y0443920D03*
X0327424Y0443920D03*
X0328999Y0445101D03*
X0330180Y0443920D03*
X0324274Y0450613D03*
X0322306Y0451794D03*
X0322016Y0456708D03*
X0322016Y0460448D03*
X0322699Y0465180D03*
X0317188Y0469510D03*
X0317094Y0460842D03*
X0314634Y0460448D03*
X0314732Y0458283D03*
X0313551Y0456314D03*
X0311878Y0457791D03*
X0311681Y0460350D03*
X0309122Y0459759D03*
X0309314Y0456912D03*
X0316701Y0456708D03*
X0316794Y0449432D03*
X0297109Y0460849D03*
X0299077Y0470691D03*
X0275652Y0454943D03*
X0275652Y0443329D03*
X0326445Y0471669D03*
X0346322Y0485258D03*
X0354196Y0485258D03*
X0353802Y0482502D03*
X0352621Y0476597D03*
X0353566Y0469077D03*
X0347109Y0404353D03*
X0341669Y0399623D03*
X0351833Y0393322D03*
X0326314Y0374503D03*
X0320468Y0374497D03*
X0321839Y0370694D03*
X0321125Y0368329D03*
X0319098Y0365602D03*
X0314432Y0370691D03*
X0311676Y0370487D03*
X0311282Y0358880D03*
X0313644Y0358880D03*
X0332936Y0359274D03*
X0336085Y0359274D03*
X0340022Y0359274D03*
X0322692Y0382930D03*
X0293172Y0358487D03*
X0290416Y0356912D03*
X0289235Y0349432D03*
X0288637Y0367635D03*
X0365600Y0312817D03*
X0372306Y0322266D03*
X0402227Y0292345D03*
X0406164Y0297069D03*
X0406164Y0302581D03*
X0412070Y0301400D03*
X0412070Y0291951D03*
X0412070Y0286439D03*
X0412070Y0281321D03*
X0412070Y0276597D03*
X0407345Y0271872D03*
X0412463Y0266754D03*
X0412070Y0261636D03*
X0411676Y0256518D03*
X0411676Y0251400D03*
X0416400Y0242345D03*
X0425062Y0241164D03*
X0425062Y0233290D03*
X0420337Y0229353D03*
X0425062Y0225809D03*
X0425062Y0217542D03*
X0417188Y0217542D03*
X0406951Y0217542D03*
X0401440Y0217542D03*
X0393566Y0217542D03*
X0385692Y0217542D03*
X0377818Y0217542D03*
X0369944Y0217542D03*
X0373093Y0224235D03*
X0362070Y0217542D03*
X0354196Y0217542D03*
X0346322Y0217542D03*
X0338448Y0217542D03*
X0335692Y0221085D03*
X0331807Y0221085D03*
X0327424Y0221085D03*
X0323881Y0221072D03*
X0336479Y0227778D03*
X0345534Y0232109D03*
X0353014Y0228959D03*
X0361282Y0230140D03*
X0392385Y0238014D03*
X0400652Y0238408D03*
X0397109Y0230534D03*
X0425062Y0249038D03*
X0425062Y0256912D03*
X0425022Y0264550D03*
X0425062Y0272660D03*
X0425062Y0282502D03*
X0425062Y0292345D03*
X0425062Y0304156D03*
X0425062Y0312030D03*
X0396715Y0271872D03*
X0225455Y0279747D03*
X0158920Y0260455D03*
X0156951Y0258499D03*
X0143959Y0267542D03*
D14*
X0191203Y0365180D03*
X0197503Y0364392D03*
X0236496Y0447677D03*
X0312660Y0397463D03*
X0326937Y0450999D03*
X0326937Y0465763D03*
X0337272Y0465763D03*
X0369904Y0475999D03*
X0328999Y0230128D03*
X0323881Y0227200D03*
X0298143Y0231568D03*
X0291203Y0228959D03*
D15*
X0290022Y0245101D03*
X0280180Y0243526D03*
X0267188Y0236833D03*
X0256951Y0235652D03*
X0257345Y0223447D03*
X0247109Y0249432D03*
X0246322Y0253369D03*
X0242778Y0253762D03*
X0242778Y0264066D03*
X0250259Y0267148D03*
X0256164Y0264786D03*
X0254196Y0279747D03*
X0246912Y0287621D03*
X0243566Y0282109D03*
X0254589Y0291558D03*
X0267581Y0293132D03*
X0270731Y0285258D03*
X0281755Y0287621D03*
X0283723Y0293132D03*
X0282148Y0298250D03*
X0292778Y0266754D03*
X0292778Y0263605D03*
X0293172Y0259274D03*
X0289629Y0259668D03*
X0285298Y0259668D03*
X0243566Y0299235D03*
X0246322Y0312817D03*
X0242778Y0313605D03*
X0250259Y0312424D03*
X0241991Y0325022D03*
X0236873Y0328172D03*
X0254983Y0332109D03*
X0258526Y0326597D03*
X0266794Y0342739D03*
X0259707Y0345495D03*
X0254196Y0356518D03*
X0244353Y0362030D03*
X0236085Y0362817D03*
X0230180Y0358880D03*
X0226243Y0354943D03*
X0222699Y0351400D03*
X0227424Y0345495D03*
X0203408Y0363022D03*
X0208920Y0369510D03*
X0212694Y0385882D03*
X0216007Y0392739D03*
X0228999Y0392739D03*
X0242036Y0379747D03*
X0268369Y0382502D03*
X0276243Y0376203D03*
X0282542Y0375809D03*
X0284904Y0380140D03*
X0285692Y0388408D03*
X0297699Y0375613D03*
X0270568Y0370528D03*
X0268369Y0392739D03*
X0226007Y0417739D03*
X0220652Y0420928D03*
X0222306Y0425809D03*
X0237070Y0457896D03*
X0288841Y0461243D03*
X0292778Y0473054D03*
X0356361Y0466949D03*
X0359314Y0463605D03*
X0374668Y0453762D03*
X0379392Y0453762D03*
X0386873Y0451006D03*
X0391991Y0451794D03*
X0396715Y0454550D03*
X0396715Y0457699D03*
X0397503Y0446676D03*
X0401833Y0441558D03*
X0407306Y0440967D03*
X0407739Y0446282D03*
X0411676Y0436439D03*
X0406558Y0432109D03*
X0401833Y0431321D03*
X0397109Y0431321D03*
X0396715Y0421479D03*
X0406558Y0426203D03*
X0411676Y0421872D03*
X0391597Y0441164D03*
X0382542Y0446282D03*
X0417581Y0466361D03*
X0313448Y0406715D03*
X0210624Y0301400D03*
X0226636Y0296676D03*
X0221125Y0279353D03*
X0225062Y0275809D03*
X0224471Y0267345D03*
X0210495Y0277778D03*
X0186085Y0365180D03*
X0188054Y0370691D03*
X0188054Y0378565D03*
X0174274Y0391558D03*
X0349865Y0265967D03*
X0349865Y0261636D03*
X0349865Y0256912D03*
X0354589Y0256912D03*
X0358920Y0256912D03*
D16*
X0354196Y0334077D03*
X0352424Y0366980D03*
X0335319Y0369883D03*
X0310692Y0384274D03*
X0298290Y0410849D03*
X0337391Y0408854D03*
X0277227Y0462621D03*
X0279392Y0480534D03*
X0236479Y0478172D03*
X0234314Y0433880D03*
X0259242Y0420817D03*
X0173881Y0338802D03*
X0248684Y0324914D03*
X0261676Y0324628D03*
X0250652Y0301006D03*
D17*
X0200841Y0360455D02*
X0196322Y0360455D01*
X0194353Y0362424D01*
X0194353Y0372266D01*
X0188054Y0378565D01*
X0185692Y0386439D02*
X0202621Y0369510D01*
X0208920Y0369510D01*
X0203408Y0363022D02*
X0200841Y0360455D01*
D18*
X0199865Y0367148D02*
X0222306Y0367148D01*
X0225849Y0370691D01*
X0251440Y0370691D01*
X0290416Y0331715D01*
X0293959Y0331715D01*
X0297122Y0328553D01*
X0306822Y0328553D01*
X0306834Y0328565D01*
X0356558Y0328565D01*
X0360888Y0332896D01*
X0394747Y0332896D01*
X0400259Y0338408D01*
X0400259Y0346676D01*
X0397109Y0352187D02*
X0392640Y0347719D01*
X0364963Y0347719D01*
X0363644Y0349038D01*
X0292778Y0349038D01*
X0290416Y0351400D01*
X0286873Y0351400D01*
X0262660Y0375613D01*
X0262660Y0388998D01*
X0260101Y0391558D01*
X0242975Y0387817D02*
X0286860Y0343932D01*
X0312727Y0343932D01*
X0312740Y0343920D01*
X0363644Y0343920D01*
X0365613Y0341951D01*
X0392778Y0341951D01*
X0372699Y0326991D02*
X0369550Y0323841D01*
X0290022Y0323841D01*
X0275849Y0338014D01*
X0270266Y0338014D01*
X0270337Y0340376D02*
X0277621Y0340376D01*
X0291794Y0326203D01*
X0362857Y0326203D01*
X0365613Y0328959D01*
X0366794Y0328959D01*
X0372306Y0322266D02*
X0371518Y0321479D01*
X0288054Y0321479D01*
X0273881Y0335652D01*
X0268369Y0335652D01*
X0265180Y0332910D02*
X0272292Y0332910D01*
X0286085Y0319117D01*
X0377030Y0319117D01*
X0376258Y0315589D02*
X0375077Y0315589D01*
X0374668Y0315180D01*
X0282148Y0315180D01*
X0273487Y0323841D01*
X0265219Y0323841D01*
X0267581Y0314786D02*
X0267581Y0314509D01*
X0271636Y0310455D01*
X0368762Y0310455D01*
X0371125Y0312817D01*
X0372306Y0312817D01*
X0372306Y0310061D02*
X0370337Y0308093D01*
X0262070Y0308093D01*
X0256558Y0313605D01*
X0253014Y0315180D02*
X0256558Y0318723D01*
X0274274Y0318723D01*
X0280180Y0312817D01*
X0365600Y0312817D01*
X0366400Y0305731D02*
X0280573Y0305731D01*
X0280573Y0303369D02*
X0366518Y0303369D01*
X0366530Y0303356D01*
X0370350Y0303356D01*
X0373093Y0300613D01*
X0367975Y0300613D02*
X0280573Y0300613D01*
X0310888Y0259077D02*
X0311165Y0258998D01*
X0330456Y0258998D01*
X0330573Y0258880D01*
X0324865Y0234077D02*
X0320140Y0229353D01*
X0295534Y0229353D01*
X0292778Y0226597D01*
X0292778Y0223841D01*
X0297109Y0219510D01*
X0294747Y0218485D02*
X0288329Y0224903D01*
X0288329Y0230809D01*
X0290810Y0233290D01*
X0296912Y0233290D01*
X0300259Y0236636D01*
X0365416Y0236636D01*
X0379392Y0250613D01*
X0379392Y0278959D01*
X0382148Y0281715D01*
X0382542Y0276991D02*
X0382148Y0276597D01*
X0382148Y0249432D01*
X0366794Y0234077D01*
X0324865Y0234077D01*
X0326766Y0222672D02*
X0363657Y0222672D01*
X0390416Y0249432D01*
X0390416Y0260572D01*
X0390429Y0260585D01*
X0390429Y0261900D01*
X0390416Y0261913D01*
X0390416Y0266754D01*
X0386873Y0271085D02*
X0387660Y0271872D01*
X0386873Y0271085D02*
X0386873Y0250219D01*
X0362070Y0225416D01*
X0296322Y0225416D01*
X0295534Y0224628D01*
X0297109Y0222660D02*
X0326754Y0222660D01*
X0326766Y0222672D01*
X0298093Y0238998D02*
X0294747Y0235652D01*
X0279786Y0235652D01*
X0275455Y0231321D01*
X0275455Y0224235D01*
X0266794Y0226597D02*
X0278417Y0238219D01*
X0293377Y0238219D01*
X0296912Y0241754D01*
X0362266Y0241754D01*
X0373881Y0253369D01*
X0373881Y0268093D01*
X0377247Y0271459D01*
X0377424Y0267148D02*
X0375836Y0265561D01*
X0375836Y0262160D01*
X0376243Y0261754D01*
X0376243Y0252070D01*
X0376255Y0252058D01*
X0376255Y0250743D01*
X0374944Y0249432D01*
X0373487Y0249432D01*
X0363054Y0238998D01*
X0298093Y0238998D01*
X0291499Y0241065D02*
X0297636Y0247203D01*
X0364171Y0247203D01*
X0371735Y0254766D01*
X0371735Y0255987D01*
X0369550Y0256242D02*
X0363094Y0249785D01*
X0288801Y0249785D01*
X0285298Y0246282D01*
X0280180Y0246282D01*
X0280180Y0248847D02*
X0283926Y0248847D01*
X0287266Y0252187D01*
X0360495Y0252187D01*
X0366781Y0258474D01*
X0366781Y0266348D01*
X0367581Y0267148D01*
X0371912Y0261243D02*
X0369550Y0258880D01*
X0369550Y0256242D01*
X0367188Y0304943D02*
X0366400Y0305731D01*
X0291499Y0241065D02*
X0276538Y0241065D01*
X0267188Y0231715D01*
X0253802Y0231715D01*
X0253408Y0226597D02*
X0266794Y0226597D01*
X0242975Y0387817D02*
X0214629Y0387817D01*
X0212070Y0390376D01*
X0184904Y0426991D02*
X0171309Y0426991D01*
X0325062Y0484077D02*
X0326636Y0482502D01*
X0353802Y0482502D01*
X0352621Y0476597D02*
X0340884Y0476597D01*
X0338091Y0479390D01*
D19*
X0322699Y0465180D02*
X0340022Y0447857D01*
X0358526Y0447857D01*
X0366007Y0447857D01*
X0377818Y0436046D01*
X0377030Y0439983D02*
X0362070Y0454943D01*
X0362070Y0462817D01*
X0365613Y0462817D02*
X0365613Y0455337D01*
X0365822Y0455141D01*
X0390822Y0430140D01*
X0392385Y0430140D01*
X0391991Y0436046D02*
X0389235Y0438802D01*
X0389235Y0457306D01*
X0373054Y0473487D01*
X0373054Y0477345D01*
X0372030Y0478369D01*
X0371518Y0472266D02*
X0371518Y0471956D01*
X0384749Y0458725D01*
X0384749Y0442500D01*
X0387266Y0439983D01*
X0387660Y0436046D02*
X0369156Y0454550D01*
X0369156Y0465967D01*
X0364038Y0445101D02*
X0358526Y0445101D01*
X0340022Y0445101D01*
X0332148Y0452975D01*
X0323487Y0452975D01*
X0322306Y0451794D01*
X0321125Y0442345D02*
X0296118Y0467352D01*
X0270527Y0467352D01*
X0270329Y0467354D01*
X0285888Y0453575D02*
X0286095Y0453369D01*
X0301440Y0453369D01*
X0317188Y0437621D01*
X0360101Y0437621D01*
X0367975Y0429747D01*
X0377030Y0429747D01*
X0385298Y0421479D01*
X0385667Y0421383D01*
X0392087Y0421383D01*
X0392778Y0420691D01*
X0391400Y0416951D02*
X0381558Y0416951D01*
X0379870Y0418639D01*
X0368876Y0418639D01*
X0355800Y0431715D01*
X0311676Y0431715D01*
X0301440Y0441951D01*
X0285692Y0441951D01*
X0283329Y0440376D02*
X0285495Y0438211D01*
X0302818Y0438211D01*
X0310495Y0430534D01*
X0355377Y0430534D01*
X0371715Y0414195D01*
X0376833Y0414195D01*
X0382148Y0419117D02*
X0387266Y0419117D01*
X0391400Y0416951D02*
X0392778Y0415573D01*
X0388054Y0410849D02*
X0386873Y0412030D01*
X0369156Y0412030D01*
X0351833Y0429353D01*
X0309314Y0429353D01*
X0302621Y0436046D01*
X0285692Y0436046D01*
X0285692Y0432896D02*
X0303408Y0432896D01*
X0308133Y0428172D01*
X0351046Y0428172D01*
X0368966Y0410251D01*
X0385502Y0410251D01*
X0389235Y0406518D01*
X0391597Y0406518D01*
X0392385Y0405731D01*
X0390613Y0402778D02*
X0392385Y0401006D01*
X0390613Y0402778D02*
X0366597Y0402778D01*
X0347109Y0422266D01*
X0302227Y0422266D01*
X0301046Y0423447D01*
X0283133Y0423447D01*
X0285692Y0425022D02*
X0301440Y0425022D01*
X0303014Y0423447D01*
X0347896Y0423447D01*
X0366794Y0404550D01*
X0367188Y0404550D01*
X0367392Y0405921D02*
X0370935Y0405921D01*
X0372306Y0404550D01*
X0370534Y0401597D02*
X0365810Y0401597D01*
X0346322Y0421085D01*
X0301440Y0421085D01*
X0301046Y0421479D01*
X0271912Y0421479D01*
X0269944Y0419904D02*
X0345534Y0419904D01*
X0367581Y0397857D01*
X0367581Y0395495D01*
X0366007Y0397463D02*
X0344747Y0418723D01*
X0283329Y0418723D01*
X0278211Y0413605D01*
X0248290Y0413605D01*
X0243959Y0417935D01*
X0243959Y0425022D01*
X0239000Y0424863D02*
X0239000Y0418958D01*
X0245928Y0412030D01*
X0279786Y0412030D01*
X0285298Y0417542D01*
X0343172Y0417542D01*
X0368369Y0392345D01*
X0390810Y0392345D01*
X0392778Y0390376D01*
X0391597Y0387227D02*
X0366400Y0387227D01*
X0342181Y0411447D01*
X0342181Y0411810D01*
X0339993Y0413998D01*
X0291991Y0413998D01*
X0288054Y0410061D01*
X0286085Y0411636D02*
X0289629Y0415180D01*
X0340810Y0415180D01*
X0367188Y0388802D01*
X0372306Y0388802D01*
X0367188Y0391164D02*
X0386873Y0391164D01*
X0387660Y0390376D01*
X0391597Y0387227D02*
X0393172Y0385652D01*
X0397109Y0382109D02*
X0379983Y0382109D01*
X0378211Y0383880D01*
X0365810Y0383880D01*
X0357739Y0391951D01*
X0356164Y0391951D01*
X0355770Y0389983D02*
X0357345Y0389983D01*
X0368369Y0378959D01*
X0377030Y0378959D01*
X0378999Y0380928D01*
X0396715Y0380928D01*
X0397503Y0380140D01*
X0397109Y0382109D02*
X0397503Y0382502D01*
X0396118Y0372470D02*
X0366984Y0372470D01*
X0359707Y0379747D01*
X0349471Y0379747D01*
X0348290Y0381715D02*
X0360101Y0381715D01*
X0366400Y0375416D01*
X0377424Y0375416D01*
X0380370Y0377588D02*
X0382542Y0375416D01*
X0380370Y0377588D02*
X0366984Y0377588D01*
X0360888Y0383684D01*
X0348290Y0383684D01*
X0347896Y0377384D02*
X0359707Y0377384D01*
X0366007Y0371085D01*
X0382148Y0371085D01*
X0382936Y0370298D01*
X0377030Y0364786D02*
X0375849Y0365967D01*
X0366007Y0365967D01*
X0358133Y0373841D01*
X0344747Y0373841D01*
X0346322Y0371872D02*
X0357739Y0371872D01*
X0365613Y0363998D01*
X0366794Y0363998D01*
X0365219Y0362030D02*
X0401440Y0362030D01*
X0402227Y0361243D01*
X0397896Y0365573D02*
X0396322Y0367148D01*
X0367188Y0367148D01*
X0358920Y0375416D01*
X0349865Y0375416D01*
X0348684Y0369586D02*
X0357663Y0369586D01*
X0365219Y0362030D01*
X0364242Y0360645D02*
X0382352Y0360645D01*
X0382542Y0360455D01*
X0382148Y0356912D02*
X0354983Y0356912D01*
X0354589Y0356518D01*
X0293172Y0356518D01*
X0290416Y0359274D01*
X0290416Y0389589D01*
X0279392Y0388014D02*
X0279392Y0363605D01*
X0288054Y0354943D01*
X0371518Y0354943D01*
X0372306Y0354156D01*
X0367188Y0349825D02*
X0363644Y0353369D01*
X0287660Y0353369D01*
X0273487Y0367542D01*
X0273487Y0388014D01*
X0260101Y0380534D02*
X0260101Y0374628D01*
X0288054Y0346676D01*
X0363644Y0346676D01*
X0366400Y0343920D01*
X0367188Y0343920D01*
X0363455Y0340172D02*
X0286683Y0340172D01*
X0243566Y0383290D01*
X0219550Y0383290D01*
X0217188Y0380928D01*
X0208133Y0380928D01*
X0223081Y0356899D02*
X0209707Y0343526D01*
X0201833Y0343526D01*
X0198290Y0339983D01*
X0223081Y0356899D02*
X0228211Y0356899D01*
X0250331Y0332181D02*
X0252766Y0329747D01*
X0271518Y0329747D01*
X0284117Y0317148D01*
X0387660Y0317148D01*
X0387660Y0297069D02*
X0385298Y0294707D01*
X0292385Y0294707D01*
X0288054Y0290376D01*
X0288054Y0281715D01*
X0284117Y0277778D01*
X0273881Y0277778D01*
X0270337Y0274235D01*
X0322699Y0357699D02*
X0311676Y0368723D01*
X0311676Y0370487D01*
X0314432Y0370691D02*
X0314432Y0368329D01*
X0321912Y0360849D01*
X0356951Y0360849D01*
X0354589Y0359274D02*
X0359314Y0359274D01*
X0360291Y0362234D02*
X0324595Y0362234D01*
X0319353Y0367476D01*
X0319353Y0373382D01*
X0320468Y0374497D01*
X0321839Y0370694D02*
X0328535Y0363998D01*
X0360888Y0363998D01*
X0364242Y0360645D01*
X0363251Y0359274D02*
X0377030Y0359274D01*
X0363251Y0359274D02*
X0360291Y0362234D01*
X0354589Y0359274D02*
X0353014Y0357699D01*
X0322699Y0357699D01*
X0359132Y0392557D02*
X0366036Y0385652D01*
X0381755Y0385652D01*
X0382148Y0385258D01*
X0387660Y0395495D02*
X0386479Y0396676D01*
X0371125Y0396676D01*
X0372306Y0399825D02*
X0370534Y0401597D01*
X0367392Y0405921D02*
X0348684Y0424628D01*
X0303802Y0424628D01*
X0301046Y0427384D01*
X0283329Y0427384D01*
X0285692Y0428959D02*
X0302227Y0428959D01*
X0305377Y0425809D01*
X0349471Y0425809D01*
X0368354Y0406927D01*
X0386070Y0406927D01*
X0387660Y0405337D01*
X0382148Y0419117D02*
X0373881Y0427384D01*
X0368369Y0427384D01*
X0359314Y0436439D01*
X0316400Y0436439D01*
X0301046Y0451794D01*
X0288644Y0451794D01*
X0287660Y0454756D02*
X0302021Y0454756D01*
X0317975Y0438802D01*
X0360888Y0438802D01*
X0367975Y0431715D01*
X0372306Y0431715D01*
X0372699Y0431321D01*
X0374274Y0434077D02*
X0372699Y0435652D01*
X0368369Y0435652D01*
X0362857Y0441164D01*
X0319944Y0441164D01*
X0303014Y0458093D01*
X0291597Y0458093D01*
X0288448Y0456518D02*
X0302227Y0456518D01*
X0318762Y0439983D01*
X0361676Y0439983D01*
X0367188Y0434471D01*
X0368762Y0437227D02*
X0373881Y0437227D01*
X0385298Y0425809D01*
X0387266Y0425809D01*
X0387660Y0436046D02*
X0388054Y0436046D01*
X0368762Y0437227D02*
X0363644Y0442345D01*
X0321125Y0442345D01*
X0315219Y0435258D02*
X0300652Y0449825D01*
X0283329Y0449825D01*
X0285692Y0447857D02*
X0300259Y0447857D01*
X0314038Y0434077D01*
X0357739Y0434077D01*
X0370337Y0421479D01*
X0372306Y0421479D01*
X0373093Y0420691D01*
X0368369Y0421085D02*
X0356558Y0432896D01*
X0312857Y0432896D01*
X0299865Y0445888D01*
X0283329Y0445888D01*
X0283526Y0430928D02*
X0303014Y0430928D01*
X0306951Y0426991D01*
X0350259Y0426991D01*
X0366400Y0410849D01*
X0368369Y0425809D02*
X0358920Y0435258D01*
X0315219Y0435258D01*
X0341991Y0416361D02*
X0288054Y0416361D01*
X0284904Y0413211D01*
X0269944Y0419904D02*
X0269550Y0419510D01*
X0243959Y0411636D02*
X0236873Y0418723D01*
X0236873Y0425613D01*
X0235298Y0419510D02*
X0235298Y0417148D01*
X0238841Y0413605D01*
X0243959Y0411636D02*
X0243959Y0408854D01*
X0233329Y0409274D02*
X0232542Y0410061D01*
X0232542Y0416550D01*
X0246912Y0456518D02*
X0248881Y0458487D01*
X0248881Y0468723D01*
X0248684Y0468920D01*
X0341991Y0416361D02*
X0367188Y0391164D01*
X0396118Y0372470D02*
X0397896Y0370691D01*
X0363455Y0340172D02*
X0367975Y0335652D01*
X0367975Y0441164D02*
X0364038Y0445101D01*
X0158920Y0260455D02*
X0145928Y0260455D01*
X0139629Y0266754D01*
X0139629Y0293920D01*
X0149077Y0303369D01*
X0149077Y0309668D01*
X0137660Y0293526D02*
X0137660Y0266361D01*
X0145534Y0258487D01*
X0156939Y0258487D01*
X0156951Y0258499D01*
D20*
X0310692Y0384274D02*
X0313841Y0384274D01*
X0316400Y0386833D01*
X0316400Y0403762D01*
X0313448Y0406715D01*
X0337391Y0408854D02*
X0344550Y0401695D01*
X0344550Y0379114D01*
X0335319Y0369883D01*
X0267188Y0428762D02*
X0267188Y0452581D01*
X0277227Y0462621D01*
X0278999Y0480534D02*
X0278789Y0480743D01*
X0239051Y0480743D01*
X0236479Y0478172D01*
X0237070Y0457896D02*
X0239235Y0455731D01*
X0239235Y0448853D01*
X0239264Y0448823D01*
X0239264Y0438831D01*
X0234314Y0433880D01*
X0259242Y0420817D02*
X0267188Y0428762D01*
X0278999Y0480534D02*
X0279392Y0480534D01*
D21*
X0298290Y0410849D02*
X0283751Y0396309D01*
X0266890Y0396309D01*
X0266862Y0396282D01*
X0230505Y0396282D01*
X0230478Y0396309D01*
X0227520Y0396309D01*
X0227492Y0396282D01*
X0217513Y0396282D01*
X0217486Y0396309D01*
X0195562Y0396309D01*
X0185692Y0386439D01*
X0173881Y0374628D01*
X0173881Y0338802D01*
D22*
X0221125Y0299038D03*
X0250390Y0251269D03*
D23*
X0231755Y0254156D02*
X0228605Y0251006D01*
X0223093Y0251006D01*
X0218091Y0256009D01*
X0210495Y0256009D01*
X0210101Y0257896D02*
X0219353Y0257896D01*
X0224274Y0252975D01*
X0228044Y0252975D01*
X0229294Y0254225D01*
X0229294Y0255239D01*
X0231755Y0254550D02*
X0231755Y0254156D01*
X0225849Y0254943D02*
X0220928Y0259865D01*
X0210101Y0259865D01*
X0197503Y0269510D02*
X0197503Y0272587D01*
X0228445Y0303529D01*
X0228445Y0323287D01*
X0250652Y0345495D01*
X0254589Y0345495D01*
X0259314Y0350219D01*
X0258133Y0351794D02*
X0257074Y0350735D01*
X0249594Y0350735D01*
X0223881Y0325022D01*
X0223881Y0304943D01*
X0199642Y0280705D01*
X0197982Y0280705D01*
X0193959Y0288802D02*
X0185298Y0288802D01*
X0181029Y0284533D01*
X0181029Y0281294D01*
X0181558Y0270888D02*
X0207739Y0297069D01*
X0207739Y0301199D01*
X0219353Y0312813D01*
X0219353Y0324825D01*
X0219353Y0328959D01*
X0245239Y0354845D01*
X0249803Y0354845D01*
X0251636Y0353012D01*
X0256606Y0353012D01*
X0256760Y0353166D01*
X0255425Y0354501D02*
X0252818Y0354501D01*
X0250407Y0356912D01*
X0244156Y0356912D01*
X0216203Y0328959D01*
X0216203Y0325416D01*
X0216203Y0327187D01*
X0216203Y0325416D02*
X0216203Y0316164D01*
X0205180Y0305140D01*
X0205180Y0300022D01*
X0193959Y0288802D01*
X0199015Y0296703D02*
X0201046Y0298734D01*
X0201046Y0314529D01*
X0205377Y0318860D01*
X0205377Y0336439D01*
X0203802Y0339195D02*
X0203802Y0319510D01*
X0196653Y0312361D01*
X0196653Y0307726D01*
X0194747Y0315573D02*
X0189235Y0315573D01*
X0184510Y0310849D01*
X0184510Y0300219D01*
X0182596Y0298304D01*
X0181655Y0297517D01*
X0181655Y0310428D02*
X0183293Y0312066D01*
X0183293Y0319080D01*
X0185730Y0321518D01*
X0197148Y0321518D01*
X0200652Y0325022D01*
X0200652Y0336439D01*
X0199077Y0336046D02*
X0199077Y0332537D01*
X0199015Y0332475D01*
X0199077Y0336046D02*
X0196322Y0338802D01*
X0196322Y0340770D01*
X0196014Y0340462D01*
X0194747Y0342345D02*
X0194747Y0326956D01*
X0197440Y0324262D01*
X0202227Y0323054D02*
X0194747Y0315573D01*
X0202227Y0323054D02*
X0202227Y0334865D01*
X0193172Y0343920D02*
X0184314Y0335061D01*
X0184314Y0331912D01*
X0182542Y0330140D01*
X0182542Y0326230D01*
X0182542Y0334471D02*
X0182542Y0336439D01*
X0191597Y0345495D01*
X0219353Y0326794D02*
X0219353Y0324825D01*
X0181558Y0270888D02*
X0181558Y0270298D01*
D24*
X0137660Y0293526D02*
X0137660Y0310455D01*
D25*
X0166794Y0285258D02*
X0166794Y0282109D01*
X0167581Y0281321D01*
X0167581Y0278723D01*
X0167424Y0278565D01*
X0167424Y0258258D01*
X0190975Y0234707D01*
X0232707Y0234707D01*
X0243172Y0224243D01*
X0243172Y0223841D01*
X0243959Y0223054D01*
X0243951Y0225022D02*
X0233164Y0235809D01*
X0191432Y0235809D01*
X0168526Y0258715D01*
X0168526Y0277778D01*
X0168992Y0278243D01*
X0168992Y0282259D01*
X0168677Y0282259D01*
X0172070Y0286439D02*
X0172699Y0287069D01*
X0172699Y0287621D01*
X0172070Y0286439D02*
X0172070Y0260290D01*
X0193007Y0239353D01*
X0233951Y0239353D01*
X0237495Y0235809D01*
X0242778Y0235809D01*
X0243827Y0236129D01*
X0242778Y0234707D02*
X0237038Y0234707D01*
X0233495Y0238250D01*
X0192550Y0238250D01*
X0170967Y0259833D01*
X0170967Y0289432D01*
X0171942Y0290406D01*
X0171912Y0290406D01*
X0177195Y0291302D02*
X0177195Y0292994D01*
X0177660Y0293460D01*
X0177660Y0294865D01*
X0177424Y0295101D01*
X0178762Y0292345D02*
X0178762Y0264227D01*
X0196550Y0246439D01*
X0251211Y0246439D01*
X0252792Y0248020D01*
X0252792Y0248473D01*
X0253236Y0246905D02*
X0251668Y0245337D01*
X0196093Y0245337D01*
X0177660Y0263770D01*
X0177660Y0290836D01*
X0177195Y0291302D01*
X0174510Y0297227D02*
X0173881Y0297857D01*
X0173487Y0297906D01*
X0174510Y0297227D02*
X0174510Y0261408D01*
X0194125Y0241794D01*
X0253400Y0241794D01*
X0254192Y0242743D01*
X0254418Y0242517D01*
X0252792Y0243748D02*
X0251783Y0242896D01*
X0194581Y0242896D01*
X0175613Y0261865D01*
X0175613Y0300219D01*
X0175455Y0300219D01*
X0161518Y0281872D02*
X0162306Y0281085D01*
X0162306Y0279606D01*
X0162077Y0279377D01*
X0162077Y0278078D01*
X0162306Y0277849D01*
X0162306Y0258903D01*
X0162306Y0258903D01*
X0163408Y0259375D02*
X0163408Y0278491D01*
X0163644Y0278728D01*
X0163408Y0259375D02*
X0163410Y0259298D01*
X0163416Y0259221D01*
X0163425Y0259144D01*
X0163438Y0259068D01*
X0163455Y0258992D01*
X0163476Y0258918D01*
X0163500Y0258844D01*
X0163528Y0258772D01*
X0163559Y0258702D01*
X0163594Y0258633D01*
X0163632Y0258565D01*
X0163673Y0258500D01*
X0163718Y0258437D01*
X0163766Y0258376D01*
X0163816Y0258317D01*
X0163869Y0258261D01*
X0163869Y0258262D02*
X0189404Y0232727D01*
X0188931Y0231625D02*
X0188987Y0231572D01*
X0189046Y0231522D01*
X0189107Y0231474D01*
X0189170Y0231429D01*
X0189235Y0231388D01*
X0189303Y0231350D01*
X0189372Y0231315D01*
X0189442Y0231284D01*
X0189514Y0231256D01*
X0189588Y0231232D01*
X0189662Y0231211D01*
X0189738Y0231194D01*
X0189814Y0231181D01*
X0189891Y0231172D01*
X0189968Y0231166D01*
X0190045Y0231164D01*
X0231920Y0231164D01*
X0243337Y0219747D01*
X0265219Y0219747D01*
X0266243Y0218723D01*
X0266794Y0218723D01*
X0265377Y0220849D02*
X0266007Y0221479D01*
X0266794Y0221479D01*
X0265377Y0220849D02*
X0243794Y0220849D01*
X0232377Y0232266D01*
X0190517Y0232266D01*
X0190440Y0232268D01*
X0190363Y0232274D01*
X0190286Y0232283D01*
X0190210Y0232296D01*
X0190134Y0232313D01*
X0190060Y0232334D01*
X0189986Y0232358D01*
X0189914Y0232386D01*
X0189844Y0232417D01*
X0189775Y0232452D01*
X0189707Y0232490D01*
X0189642Y0232531D01*
X0189579Y0232576D01*
X0189518Y0232624D01*
X0189459Y0232674D01*
X0189403Y0232727D01*
X0188931Y0231625D02*
X0162767Y0257789D01*
X0162714Y0257845D01*
X0162664Y0257904D01*
X0162616Y0257965D01*
X0162571Y0258028D01*
X0162530Y0258093D01*
X0162492Y0258161D01*
X0162457Y0258230D01*
X0162426Y0258300D01*
X0162398Y0258372D01*
X0162374Y0258446D01*
X0162353Y0258520D01*
X0162336Y0258596D01*
X0162323Y0258672D01*
X0162314Y0258749D01*
X0162308Y0258826D01*
X0162306Y0258903D01*
X0242778Y0234707D02*
X0243827Y0233994D01*
X0243951Y0225022D02*
X0244747Y0225022D01*
X0253236Y0246905D02*
X0253442Y0246905D01*
X0254360Y0247823D01*
X0254360Y0250727D01*
X0255205Y0251572D01*
M02*
