G75*
%MOIN*%
%OFA0B0*%
%FSLAX25Y25*%
%IPPOS*%
%LPD*%
%AMOC8*
5,1,8,0,0,1.08239X$1,22.5*
%
%ADD10C,0.04409*%
%ADD11R,0.02700X0.03000*%
%ADD12R,0.03000X0.02700*%
%ADD13R,0.03800X0.06000*%
%ADD14R,0.04800X0.07400*%
%ADD15R,0.07400X0.04800*%
%ADD16R,0.03500X0.04200*%
%ADD17R,0.04200X0.03500*%
%ADD18C,0.15748*%
%ADD19R,0.06299X0.02992*%
%ADD20R,0.11000X0.06500*%
%ADD21R,0.06000X0.03800*%
%ADD22C,0.05000*%
%ADD23C,0.10000*%
%ADD24R,0.10000X0.05000*%
%ADD25R,0.03937X0.02165*%
%ADD26C,0.14600*%
%ADD27R,0.04724X0.01378*%
%ADD28R,0.12205X0.12205*%
%ADD29R,0.00984X0.02362*%
%ADD30R,0.02362X0.00984*%
%ADD31R,0.02992X0.05000*%
%ADD32R,0.03150X0.01181*%
%ADD33R,0.03543X0.02362*%
%ADD34R,0.01700X0.01700*%
%ADD35R,0.00984X0.02756*%
%ADD36R,0.09370X0.06496*%
%ADD37C,0.01083*%
%ADD38C,0.00709*%
%ADD39C,0.01387*%
%ADD40C,0.01781*%
%ADD41C,0.00787*%
%ADD42C,0.02205*%
%ADD43C,0.01575*%
%ADD44C,0.01181*%
%ADD45C,0.00354*%
%ADD46C,0.03858*%
%ADD47C,0.02756*%
%ADD48C,0.00433*%
%ADD49C,0.00350*%
%ADD50C,0.05906*%
%ADD51C,0.01600*%
%ADD52C,0.03937*%
%ADD53C,0.01978*%
%ADD54C,0.00591*%
%ADD55C,0.00800*%
%ADD56C,0.00748*%
D10*
X0053480Y0191276D03*
X0058480Y0196276D03*
X0063480Y0191276D03*
X0063480Y0201276D03*
X0063480Y0208992D03*
X0058480Y0213992D03*
X0053480Y0208992D03*
X0053480Y0201276D03*
X0053480Y0218992D03*
X0053480Y0226709D03*
X0058480Y0231709D03*
X0053480Y0236709D03*
X0063480Y0236709D03*
X0063480Y0246394D03*
X0058480Y0251394D03*
X0053480Y0246394D03*
X0053480Y0256394D03*
X0063480Y0256394D03*
X0063480Y0266079D03*
X0058480Y0271079D03*
X0053480Y0276079D03*
X0053480Y0266079D03*
X0063480Y0276079D03*
X0063480Y0226709D03*
X0063480Y0218992D03*
D11*
X0076459Y0242732D03*
X0080659Y0242732D03*
X0080659Y0247850D03*
X0076459Y0247850D03*
X0076459Y0252969D03*
X0080659Y0252969D03*
X0085908Y0257693D03*
X0090108Y0257693D03*
X0080659Y0262811D03*
X0076459Y0262811D03*
X0076459Y0267929D03*
X0080659Y0267929D03*
X0085908Y0267929D03*
X0090108Y0267929D03*
X0080659Y0273047D03*
X0076459Y0273047D03*
X0085908Y0247850D03*
X0090108Y0247850D03*
X0090108Y0242732D03*
X0085908Y0242732D03*
X0143546Y0246984D03*
X0147746Y0246984D03*
X0163256Y0260941D03*
X0167456Y0260941D03*
X0167456Y0265862D03*
X0163256Y0265862D03*
X0163263Y0272550D03*
X0167463Y0272550D03*
X0167463Y0277471D03*
X0163263Y0277471D03*
X0192791Y0276093D03*
X0196991Y0276093D03*
X0196991Y0281408D03*
X0192791Y0281408D03*
X0192791Y0267137D03*
X0196991Y0267137D03*
X0196991Y0262215D03*
X0192791Y0262215D03*
X0193388Y0241945D03*
X0197588Y0241945D03*
X0239451Y0227772D03*
X0243651Y0227772D03*
X0243651Y0223047D03*
X0239451Y0223047D03*
X0239451Y0215173D03*
X0243651Y0215173D03*
X0243651Y0210449D03*
X0239451Y0210449D03*
X0234202Y0193126D03*
X0230002Y0193126D03*
X0205856Y0209268D03*
X0201656Y0209268D03*
G36*
X0178816Y0177788D02*
X0180725Y0179697D01*
X0182846Y0177576D01*
X0180937Y0175667D01*
X0178816Y0177788D01*
G37*
G36*
X0175847Y0174818D02*
X0177756Y0176727D01*
X0179877Y0174606D01*
X0177968Y0172697D01*
X0175847Y0174818D01*
G37*
G36*
X0176786Y0161193D02*
X0178695Y0159284D01*
X0176574Y0157163D01*
X0174665Y0159072D01*
X0176786Y0161193D01*
G37*
G36*
X0179756Y0158223D02*
X0181665Y0156314D01*
X0179544Y0154193D01*
X0177635Y0156102D01*
X0179756Y0158223D01*
G37*
X0179084Y0150606D03*
X0174884Y0150606D03*
X0183939Y0130134D03*
X0188139Y0130134D03*
X0198506Y0115567D03*
X0202706Y0115567D03*
X0190895Y0111236D03*
X0186695Y0111236D03*
X0186695Y0106118D03*
X0190895Y0106118D03*
X0190895Y0101000D03*
X0186695Y0101000D03*
X0186695Y0095882D03*
X0190895Y0095882D03*
X0173179Y0101000D03*
X0168979Y0101000D03*
X0142076Y0108874D03*
X0137876Y0108874D03*
X0138270Y0126591D03*
X0142470Y0126591D03*
X0071998Y0125016D03*
X0067798Y0125016D03*
X0065829Y0119898D03*
X0070029Y0119898D03*
X0069242Y0144701D03*
X0065042Y0144701D03*
X0184727Y0065567D03*
X0188927Y0065567D03*
X0188927Y0060843D03*
X0184727Y0060843D03*
X0206774Y0068323D03*
X0210974Y0068323D03*
X0210974Y0072654D03*
X0206774Y0072654D03*
X0217798Y0058087D03*
X0221998Y0058087D03*
X0238664Y0090370D03*
X0242864Y0090370D03*
X0247719Y0090370D03*
X0251919Y0090370D03*
X0270947Y0191945D03*
X0275147Y0191945D03*
X0275147Y0196276D03*
X0270947Y0196276D03*
X0269372Y0212417D03*
X0273572Y0212417D03*
X0273572Y0217142D03*
X0269372Y0217142D03*
X0269372Y0226591D03*
X0273572Y0226591D03*
X0273572Y0231709D03*
X0269372Y0231709D03*
X0324884Y0273047D03*
X0329084Y0273047D03*
X0329084Y0278165D03*
X0324884Y0278165D03*
D12*
X0333934Y0263468D03*
X0333934Y0259268D03*
X0338932Y0255724D03*
X0338932Y0251524D03*
X0332102Y0247194D03*
X0332102Y0242994D03*
X0326591Y0242994D03*
X0326591Y0247194D03*
X0321079Y0247194D03*
X0321079Y0242994D03*
X0321472Y0223179D03*
X0321472Y0218979D03*
X0343520Y0218979D03*
X0343520Y0223179D03*
X0303756Y0275672D03*
X0299031Y0275672D03*
X0299031Y0279872D03*
X0303756Y0279872D03*
X0291551Y0300869D03*
X0291551Y0305069D03*
X0264780Y0236958D03*
X0264780Y0232758D03*
X0256512Y0233152D03*
X0256512Y0237352D03*
X0251787Y0237352D03*
X0251787Y0233152D03*
X0247063Y0233152D03*
X0247063Y0237352D03*
X0242339Y0237352D03*
X0242339Y0233152D03*
X0249031Y0206643D03*
X0249031Y0202443D03*
X0253323Y0202443D03*
X0253323Y0206643D03*
X0259268Y0206643D03*
X0259268Y0202443D03*
X0263992Y0202443D03*
X0263992Y0206643D03*
X0206512Y0215042D03*
X0206512Y0219242D03*
X0201000Y0219242D03*
X0201000Y0215042D03*
X0192732Y0214648D03*
X0192732Y0218848D03*
X0188402Y0242207D03*
X0188402Y0246407D03*
X0183283Y0246407D03*
X0183283Y0242207D03*
X0182587Y0252733D03*
X0182587Y0256933D03*
X0177666Y0256933D03*
X0177666Y0252733D03*
X0173237Y0252733D03*
X0173237Y0256933D03*
X0187509Y0256933D03*
X0187509Y0252733D03*
X0188198Y0282261D03*
X0188198Y0286461D03*
X0180619Y0286461D03*
X0180619Y0282261D03*
X0175698Y0282261D03*
X0175698Y0286461D03*
X0170776Y0286461D03*
X0170776Y0282261D03*
X0165855Y0282261D03*
X0165855Y0286461D03*
X0139976Y0218061D03*
X0139976Y0213861D03*
X0118717Y0196013D03*
X0118717Y0191813D03*
X0132496Y0162943D03*
X0139583Y0162943D03*
X0139583Y0158743D03*
X0139583Y0153887D03*
X0139583Y0149687D03*
X0132496Y0149687D03*
X0132496Y0153887D03*
X0132496Y0158743D03*
X0126197Y0158612D03*
X0126197Y0154412D03*
X0147850Y0153494D03*
X0147850Y0149294D03*
X0147850Y0159924D03*
X0147850Y0164124D03*
X0167142Y0150344D03*
X0167142Y0146144D03*
X0118717Y0131446D03*
X0118717Y0127246D03*
X0109268Y0127246D03*
X0109268Y0131446D03*
X0101394Y0155199D03*
X0101394Y0159399D03*
X0076984Y0129084D03*
X0076984Y0124884D03*
X0060449Y0125935D03*
X0060449Y0121735D03*
X0108874Y0103887D03*
X0117142Y0103887D03*
X0117142Y0099687D03*
X0108874Y0099687D03*
X0168717Y0090108D03*
X0168717Y0085908D03*
X0178559Y0101262D03*
X0178559Y0105462D03*
X0204150Y0100738D03*
X0204150Y0096538D03*
X0172260Y0064124D03*
X0172260Y0059924D03*
X0172260Y0054281D03*
X0172260Y0050081D03*
X0195094Y0048506D03*
X0195094Y0052706D03*
X0250606Y0055199D03*
X0250606Y0059399D03*
D13*
X0204706Y0108874D03*
X0196506Y0108874D03*
X0196113Y0122260D03*
X0204313Y0122260D03*
X0174391Y0136433D03*
X0166191Y0136433D03*
X0144470Y0134465D03*
X0136270Y0134465D03*
G36*
X0165344Y0160710D02*
X0162657Y0158023D01*
X0158416Y0162264D01*
X0161103Y0164951D01*
X0165344Y0160710D01*
G37*
G36*
X0171143Y0166508D02*
X0168456Y0163821D01*
X0164215Y0168062D01*
X0166902Y0170749D01*
X0171143Y0166508D01*
G37*
G36*
X0179283Y0163838D02*
X0181970Y0166525D01*
X0186211Y0162284D01*
X0183524Y0159597D01*
X0179283Y0163838D01*
G37*
G36*
X0185081Y0169637D02*
X0187768Y0172324D01*
X0192009Y0168083D01*
X0189322Y0165396D01*
X0185081Y0169637D01*
G37*
G36*
X0169637Y0188573D02*
X0172324Y0185886D01*
X0168083Y0181645D01*
X0165396Y0184332D01*
X0169637Y0188573D01*
G37*
G36*
X0163839Y0194371D02*
X0166526Y0191684D01*
X0162285Y0187443D01*
X0159598Y0190130D01*
X0163839Y0194371D01*
G37*
G36*
X0157933Y0188465D02*
X0160620Y0185778D01*
X0156379Y0181537D01*
X0153692Y0184224D01*
X0157933Y0188465D01*
G37*
G36*
X0163731Y0182667D02*
X0166418Y0179980D01*
X0162177Y0175739D01*
X0159490Y0178426D01*
X0163731Y0182667D01*
G37*
G36*
X0157826Y0176762D02*
X0160513Y0174075D01*
X0156272Y0169834D01*
X0153585Y0172521D01*
X0157826Y0176762D01*
G37*
G36*
X0152027Y0182560D02*
X0154714Y0179873D01*
X0150473Y0175632D01*
X0147786Y0178319D01*
X0152027Y0182560D01*
G37*
X0200050Y0199819D03*
X0208250Y0199819D03*
X0144076Y0102181D03*
X0135876Y0102181D03*
D14*
X0217728Y0204543D03*
X0230728Y0204543D03*
X0230728Y0233677D03*
X0217728Y0233677D03*
X0152572Y0255030D03*
X0139572Y0255030D03*
X0141146Y0283377D03*
X0154146Y0283377D03*
X0196624Y0290392D03*
X0209624Y0290392D03*
D15*
X0178065Y0295388D03*
X0178065Y0308388D03*
X0254543Y0257106D03*
X0254543Y0244106D03*
X0276197Y0239776D03*
X0276197Y0252776D03*
X0171079Y0120492D03*
X0171079Y0107492D03*
D16*
X0222797Y0213205D03*
X0229597Y0213205D03*
X0229991Y0225016D03*
X0223191Y0225016D03*
X0153507Y0263101D03*
X0146707Y0263101D03*
X0146707Y0274518D03*
X0153507Y0274518D03*
D17*
X0166846Y0296999D03*
X0166846Y0303799D03*
X0245094Y0248888D03*
X0245094Y0242088D03*
D18*
X0093520Y0066354D03*
X0093520Y0288992D03*
D19*
X0153362Y0241551D03*
X0173362Y0241551D03*
X0240843Y0193126D03*
X0260843Y0193126D03*
D20*
X0323047Y0254949D03*
X0323047Y0265949D03*
X0313992Y0274634D03*
X0313992Y0285634D03*
X0341551Y0290358D03*
X0341551Y0279358D03*
D21*
X0285252Y0296113D03*
X0285252Y0304313D03*
X0160843Y0152344D03*
X0160843Y0144144D03*
X0162024Y0092502D03*
X0162024Y0084302D03*
X0175409Y0084302D03*
X0175409Y0092502D03*
D22*
X0139583Y0168717D03*
X0132496Y0168717D03*
X0125016Y0170685D03*
X0148244Y0169504D03*
X0108087Y0204543D03*
X0133283Y0220291D03*
X0184465Y0220685D03*
X0239189Y0275409D03*
X0242339Y0302181D03*
X0288402Y0272260D03*
X0326197Y0291157D03*
X0323047Y0304937D03*
D23*
X0334858Y0306118D03*
X0144701Y0309268D03*
X0063992Y0177772D03*
X0151000Y0119504D03*
X0204543Y0154543D03*
X0070291Y0071472D03*
D24*
X0323835Y0097457D03*
X0323835Y0107457D03*
X0323835Y0117457D03*
X0323835Y0127457D03*
X0323835Y0137457D03*
X0323835Y0147457D03*
X0323835Y0157457D03*
X0323835Y0167457D03*
X0345094Y0167457D03*
X0345094Y0157457D03*
X0345094Y0147457D03*
X0345094Y0137457D03*
X0345094Y0127457D03*
X0345094Y0117457D03*
X0345094Y0107457D03*
X0345094Y0097457D03*
D25*
X0163402Y0101197D03*
X0163402Y0108677D03*
X0152772Y0108677D03*
X0152772Y0104937D03*
X0152772Y0101197D03*
D26*
X0308354Y0056528D03*
X0308354Y0304528D03*
D27*
X0320587Y0237909D03*
X0320587Y0235350D03*
X0320587Y0232791D03*
X0320587Y0230232D03*
X0343618Y0230232D03*
X0343618Y0232791D03*
X0343618Y0235350D03*
X0343618Y0237909D03*
D28*
X0235646Y0060055D03*
D29*
X0236630Y0050606D03*
X0238598Y0050606D03*
X0240567Y0050606D03*
X0242535Y0050606D03*
X0234661Y0050606D03*
X0232693Y0050606D03*
X0230724Y0050606D03*
X0228756Y0050606D03*
X0228756Y0069504D03*
X0230724Y0069504D03*
X0232693Y0069504D03*
X0234661Y0069504D03*
X0236630Y0069504D03*
X0238598Y0069504D03*
X0240567Y0069504D03*
X0242535Y0069504D03*
D30*
X0245094Y0066945D03*
X0245094Y0064976D03*
X0245094Y0063008D03*
X0245094Y0061039D03*
X0245094Y0059071D03*
X0245094Y0057102D03*
X0245094Y0055134D03*
X0245094Y0053165D03*
X0226197Y0053165D03*
X0226197Y0055134D03*
X0226197Y0057102D03*
X0226197Y0059071D03*
X0226197Y0061039D03*
X0226197Y0063008D03*
X0226197Y0064976D03*
X0226197Y0066945D03*
D31*
X0329996Y0187575D03*
X0334996Y0187575D03*
X0334996Y0217575D03*
X0329996Y0217575D03*
D32*
X0071472Y0248441D03*
X0071472Y0250409D03*
X0071472Y0252378D03*
X0071472Y0254346D03*
X0071472Y0268126D03*
X0071472Y0270094D03*
X0071472Y0272063D03*
X0071472Y0274031D03*
D33*
X0070488Y0276591D03*
X0070488Y0265567D03*
X0070488Y0256906D03*
X0070488Y0245882D03*
D34*
X0088008Y0113830D03*
X0088008Y0111630D03*
X0088008Y0109430D03*
X0084858Y0109106D03*
X0084858Y0106906D03*
X0084858Y0104706D03*
D35*
X0070094Y0129346D03*
X0068126Y0129346D03*
X0066157Y0129346D03*
X0064189Y0129346D03*
X0064189Y0140370D03*
X0066157Y0140370D03*
X0068126Y0140370D03*
X0070094Y0140370D03*
D36*
X0067142Y0134858D03*
D37*
X0328165Y0060055D02*
X0329346Y0056118D01*
X0336433Y0065961D01*
X0341551Y0061236D01*
X0328165Y0060055D01*
X0336433Y0065961D01*
X0331709Y0068717D02*
X0328165Y0060055D01*
X0329346Y0056118D02*
X0331709Y0068717D01*
X0341551Y0061236D02*
X0329346Y0056118D01*
D38*
X0328402Y0053520D02*
X0327220Y0053520D01*
X0327169Y0053518D01*
X0327119Y0053513D01*
X0327069Y0053504D01*
X0327020Y0053491D01*
X0326972Y0053475D01*
X0326925Y0053456D01*
X0326880Y0053433D01*
X0326837Y0053407D01*
X0326795Y0053379D01*
X0326756Y0053347D01*
X0326719Y0053312D01*
X0326684Y0053275D01*
X0326652Y0053236D01*
X0326624Y0053194D01*
X0326598Y0053151D01*
X0326575Y0053106D01*
X0326556Y0053059D01*
X0326540Y0053011D01*
X0326527Y0052962D01*
X0326518Y0052912D01*
X0326513Y0052862D01*
X0326511Y0052811D01*
X0326512Y0052811D02*
X0326512Y0050764D01*
X0326511Y0050764D02*
X0326513Y0050713D01*
X0326518Y0050663D01*
X0326527Y0050613D01*
X0326540Y0050564D01*
X0326556Y0050516D01*
X0326575Y0050469D01*
X0326598Y0050424D01*
X0326624Y0050381D01*
X0326652Y0050339D01*
X0326684Y0050300D01*
X0326719Y0050263D01*
X0326756Y0050228D01*
X0326795Y0050196D01*
X0326837Y0050168D01*
X0326880Y0050142D01*
X0326925Y0050119D01*
X0326972Y0050100D01*
X0327020Y0050084D01*
X0327069Y0050071D01*
X0327119Y0050062D01*
X0327169Y0050057D01*
X0327220Y0050055D01*
X0328402Y0050055D01*
X0328402Y0053520D01*
X0329661Y0052732D02*
X0329661Y0051787D01*
X0331315Y0051787D01*
X0331551Y0050764D02*
X0331551Y0052811D01*
X0331552Y0052811D02*
X0331550Y0052862D01*
X0331545Y0052912D01*
X0331536Y0052962D01*
X0331523Y0053011D01*
X0331507Y0053059D01*
X0331488Y0053106D01*
X0331465Y0053151D01*
X0331439Y0053194D01*
X0331411Y0053236D01*
X0331379Y0053275D01*
X0331344Y0053312D01*
X0331307Y0053347D01*
X0331268Y0053379D01*
X0331226Y0053407D01*
X0331183Y0053433D01*
X0331138Y0053456D01*
X0331091Y0053475D01*
X0331043Y0053491D01*
X0330994Y0053504D01*
X0330944Y0053513D01*
X0330894Y0053518D01*
X0330843Y0053520D01*
X0330370Y0053520D01*
X0330319Y0053518D01*
X0330269Y0053513D01*
X0330219Y0053504D01*
X0330170Y0053491D01*
X0330122Y0053475D01*
X0330075Y0053456D01*
X0330030Y0053433D01*
X0329987Y0053407D01*
X0329945Y0053379D01*
X0329906Y0053347D01*
X0329869Y0053312D01*
X0329834Y0053275D01*
X0329802Y0053236D01*
X0329774Y0053194D01*
X0329748Y0053151D01*
X0329725Y0053106D01*
X0329706Y0053059D01*
X0329690Y0053011D01*
X0329677Y0052962D01*
X0329668Y0052912D01*
X0329663Y0052862D01*
X0329661Y0052811D01*
X0331552Y0050764D02*
X0331550Y0050713D01*
X0331545Y0050663D01*
X0331536Y0050613D01*
X0331523Y0050564D01*
X0331507Y0050516D01*
X0331488Y0050469D01*
X0331465Y0050424D01*
X0331439Y0050381D01*
X0331411Y0050339D01*
X0331379Y0050300D01*
X0331344Y0050263D01*
X0331307Y0050228D01*
X0331268Y0050196D01*
X0331226Y0050168D01*
X0331183Y0050142D01*
X0331138Y0050119D01*
X0331091Y0050100D01*
X0331043Y0050084D01*
X0330994Y0050071D01*
X0330944Y0050062D01*
X0330894Y0050057D01*
X0330843Y0050055D01*
X0330134Y0050055D01*
X0330103Y0050057D01*
X0330073Y0050062D01*
X0330043Y0050070D01*
X0330014Y0050082D01*
X0329987Y0050097D01*
X0329962Y0050115D01*
X0329939Y0050136D01*
X0329918Y0050159D01*
X0329900Y0050184D01*
X0329885Y0050211D01*
X0329873Y0050240D01*
X0329865Y0050270D01*
X0329860Y0050300D01*
X0329858Y0050331D01*
X0328402Y0050016D02*
X0328402Y0047969D01*
X0325094Y0050094D02*
X0325094Y0055685D01*
X0324819Y0053520D02*
X0323913Y0053520D01*
X0323862Y0053518D01*
X0323812Y0053513D01*
X0323762Y0053504D01*
X0323713Y0053491D01*
X0323665Y0053475D01*
X0323618Y0053456D01*
X0323573Y0053433D01*
X0323530Y0053407D01*
X0323488Y0053379D01*
X0323449Y0053347D01*
X0323412Y0053312D01*
X0323377Y0053275D01*
X0323345Y0053236D01*
X0323317Y0053194D01*
X0323291Y0053151D01*
X0323268Y0053106D01*
X0323249Y0053059D01*
X0323233Y0053011D01*
X0323220Y0052962D01*
X0323211Y0052912D01*
X0323206Y0052862D01*
X0323204Y0052811D01*
X0323205Y0052811D02*
X0323165Y0050055D01*
X0321000Y0050094D02*
X0322299Y0053874D01*
X0319780Y0053874D02*
X0321433Y0048559D01*
X0321472Y0048480D02*
X0321748Y0048087D01*
X0322102Y0048008D01*
X0322299Y0048008D01*
X0318874Y0050252D02*
X0318874Y0050331D01*
X0318874Y0050252D02*
X0318795Y0050134D01*
X0318598Y0050016D01*
X0318441Y0049937D01*
X0318402Y0049937D02*
X0317929Y0049937D01*
X0317878Y0049939D01*
X0317828Y0049944D01*
X0317778Y0049953D01*
X0317729Y0049966D01*
X0317681Y0049982D01*
X0317634Y0050001D01*
X0317589Y0050024D01*
X0317546Y0050050D01*
X0317504Y0050078D01*
X0317465Y0050110D01*
X0317428Y0050145D01*
X0317393Y0050182D01*
X0317361Y0050221D01*
X0317333Y0050263D01*
X0317307Y0050306D01*
X0317284Y0050351D01*
X0317265Y0050398D01*
X0317249Y0050446D01*
X0317236Y0050495D01*
X0317227Y0050545D01*
X0317222Y0050595D01*
X0317220Y0050646D01*
X0317220Y0050685D02*
X0317220Y0050882D01*
X0317260Y0051079D01*
X0317614Y0051433D01*
X0318244Y0051906D01*
X0318126Y0051827D02*
X0318756Y0052299D01*
X0318913Y0052535D01*
X0318953Y0052732D01*
X0318953Y0052929D01*
X0318953Y0052969D02*
X0318951Y0053020D01*
X0318946Y0053070D01*
X0318937Y0053120D01*
X0318924Y0053169D01*
X0318908Y0053217D01*
X0318889Y0053264D01*
X0318866Y0053309D01*
X0318840Y0053352D01*
X0318812Y0053394D01*
X0318780Y0053433D01*
X0318745Y0053470D01*
X0318708Y0053505D01*
X0318669Y0053537D01*
X0318627Y0053565D01*
X0318584Y0053591D01*
X0318539Y0053614D01*
X0318492Y0053633D01*
X0318444Y0053649D01*
X0318395Y0053662D01*
X0318345Y0053671D01*
X0318295Y0053676D01*
X0318244Y0053678D01*
X0318244Y0053677D02*
X0317772Y0053677D01*
X0317732Y0053677D02*
X0317575Y0053598D01*
X0317378Y0053480D01*
X0317299Y0053362D01*
X0317299Y0053283D01*
X0334386Y0052811D02*
X0334386Y0050055D01*
X0336276Y0050055D02*
X0336276Y0053520D01*
X0335094Y0053520D01*
X0335043Y0053518D01*
X0334993Y0053513D01*
X0334943Y0053504D01*
X0334894Y0053491D01*
X0334846Y0053475D01*
X0334799Y0053456D01*
X0334754Y0053433D01*
X0334711Y0053407D01*
X0334669Y0053379D01*
X0334630Y0053347D01*
X0334593Y0053312D01*
X0334558Y0053275D01*
X0334526Y0053236D01*
X0334498Y0053194D01*
X0334472Y0053151D01*
X0334449Y0053106D01*
X0334430Y0053059D01*
X0334414Y0053011D01*
X0334401Y0052962D01*
X0334392Y0052912D01*
X0334387Y0052862D01*
X0334385Y0052811D01*
X0337614Y0052732D02*
X0337614Y0051787D01*
X0339268Y0051787D01*
X0339504Y0050764D02*
X0339504Y0052811D01*
X0339502Y0052862D01*
X0339497Y0052912D01*
X0339488Y0052962D01*
X0339475Y0053011D01*
X0339459Y0053059D01*
X0339440Y0053106D01*
X0339417Y0053151D01*
X0339391Y0053194D01*
X0339363Y0053236D01*
X0339331Y0053275D01*
X0339296Y0053312D01*
X0339259Y0053347D01*
X0339220Y0053379D01*
X0339178Y0053407D01*
X0339135Y0053433D01*
X0339090Y0053456D01*
X0339043Y0053475D01*
X0338995Y0053491D01*
X0338946Y0053504D01*
X0338896Y0053513D01*
X0338846Y0053518D01*
X0338795Y0053520D01*
X0338323Y0053520D01*
X0338272Y0053518D01*
X0338222Y0053513D01*
X0338172Y0053504D01*
X0338123Y0053491D01*
X0338075Y0053475D01*
X0338028Y0053456D01*
X0337983Y0053433D01*
X0337940Y0053407D01*
X0337898Y0053379D01*
X0337859Y0053347D01*
X0337822Y0053312D01*
X0337787Y0053275D01*
X0337755Y0053236D01*
X0337727Y0053194D01*
X0337701Y0053151D01*
X0337678Y0053106D01*
X0337659Y0053059D01*
X0337643Y0053011D01*
X0337630Y0052962D01*
X0337621Y0052912D01*
X0337616Y0052862D01*
X0337614Y0052811D01*
X0339504Y0050764D02*
X0339502Y0050713D01*
X0339497Y0050663D01*
X0339488Y0050613D01*
X0339475Y0050564D01*
X0339459Y0050516D01*
X0339440Y0050469D01*
X0339417Y0050424D01*
X0339391Y0050381D01*
X0339363Y0050339D01*
X0339331Y0050300D01*
X0339296Y0050263D01*
X0339259Y0050228D01*
X0339220Y0050196D01*
X0339178Y0050168D01*
X0339135Y0050142D01*
X0339090Y0050119D01*
X0339043Y0050100D01*
X0338995Y0050084D01*
X0338946Y0050071D01*
X0338896Y0050062D01*
X0338846Y0050057D01*
X0338795Y0050055D01*
X0338087Y0050055D01*
X0338056Y0050057D01*
X0338026Y0050062D01*
X0337996Y0050070D01*
X0337967Y0050082D01*
X0337940Y0050097D01*
X0337915Y0050115D01*
X0337892Y0050136D01*
X0337871Y0050159D01*
X0337853Y0050184D01*
X0337838Y0050211D01*
X0337826Y0050240D01*
X0337818Y0050270D01*
X0337813Y0050300D01*
X0337811Y0050331D01*
X0340803Y0050764D02*
X0340803Y0052811D01*
X0340805Y0052862D01*
X0340810Y0052912D01*
X0340819Y0052962D01*
X0340832Y0053011D01*
X0340848Y0053059D01*
X0340867Y0053106D01*
X0340890Y0053151D01*
X0340916Y0053194D01*
X0340944Y0053236D01*
X0340976Y0053275D01*
X0341011Y0053312D01*
X0341048Y0053347D01*
X0341087Y0053379D01*
X0341129Y0053407D01*
X0341172Y0053433D01*
X0341217Y0053456D01*
X0341264Y0053475D01*
X0341312Y0053491D01*
X0341361Y0053504D01*
X0341411Y0053513D01*
X0341461Y0053518D01*
X0341512Y0053520D01*
X0342693Y0053520D01*
X0342693Y0050055D01*
X0341512Y0050055D01*
X0341461Y0050057D01*
X0341411Y0050062D01*
X0341361Y0050071D01*
X0341312Y0050084D01*
X0341264Y0050100D01*
X0341217Y0050119D01*
X0341172Y0050142D01*
X0341129Y0050168D01*
X0341087Y0050196D01*
X0341048Y0050228D01*
X0341011Y0050263D01*
X0340976Y0050300D01*
X0340944Y0050339D01*
X0340916Y0050381D01*
X0340890Y0050424D01*
X0340867Y0050469D01*
X0340848Y0050516D01*
X0340832Y0050564D01*
X0340819Y0050613D01*
X0340810Y0050663D01*
X0340805Y0050713D01*
X0340803Y0050764D01*
X0342693Y0050016D02*
X0342693Y0047969D01*
X0344701Y0050055D02*
X0345173Y0050055D01*
X0345224Y0050057D01*
X0345274Y0050062D01*
X0345324Y0050071D01*
X0345373Y0050084D01*
X0345421Y0050100D01*
X0345468Y0050119D01*
X0345513Y0050142D01*
X0345556Y0050168D01*
X0345598Y0050196D01*
X0345637Y0050228D01*
X0345674Y0050263D01*
X0345709Y0050300D01*
X0345741Y0050339D01*
X0345769Y0050381D01*
X0345795Y0050424D01*
X0345818Y0050469D01*
X0345837Y0050516D01*
X0345853Y0050564D01*
X0345866Y0050613D01*
X0345875Y0050663D01*
X0345880Y0050713D01*
X0345882Y0050764D01*
X0345882Y0052811D01*
X0345880Y0052862D01*
X0345875Y0052912D01*
X0345866Y0052962D01*
X0345853Y0053011D01*
X0345837Y0053059D01*
X0345818Y0053106D01*
X0345795Y0053151D01*
X0345769Y0053194D01*
X0345741Y0053236D01*
X0345709Y0053275D01*
X0345674Y0053312D01*
X0345637Y0053347D01*
X0345598Y0053379D01*
X0345556Y0053407D01*
X0345513Y0053433D01*
X0345468Y0053456D01*
X0345421Y0053475D01*
X0345373Y0053491D01*
X0345324Y0053504D01*
X0345274Y0053513D01*
X0345224Y0053518D01*
X0345173Y0053520D01*
X0344701Y0053520D01*
X0344650Y0053518D01*
X0344600Y0053513D01*
X0344550Y0053504D01*
X0344501Y0053491D01*
X0344453Y0053475D01*
X0344406Y0053456D01*
X0344361Y0053433D01*
X0344318Y0053407D01*
X0344276Y0053379D01*
X0344237Y0053347D01*
X0344200Y0053312D01*
X0344165Y0053275D01*
X0344133Y0053236D01*
X0344105Y0053194D01*
X0344079Y0053151D01*
X0344056Y0053106D01*
X0344037Y0053059D01*
X0344021Y0053011D01*
X0344008Y0052962D01*
X0343999Y0052912D01*
X0343994Y0052862D01*
X0343992Y0052811D01*
X0343992Y0050764D01*
X0343994Y0050713D01*
X0343999Y0050663D01*
X0344008Y0050613D01*
X0344021Y0050564D01*
X0344037Y0050516D01*
X0344056Y0050469D01*
X0344079Y0050424D01*
X0344105Y0050381D01*
X0344133Y0050339D01*
X0344165Y0050300D01*
X0344200Y0050263D01*
X0344237Y0050228D01*
X0344276Y0050196D01*
X0344318Y0050168D01*
X0344361Y0050142D01*
X0344406Y0050119D01*
X0344453Y0050100D01*
X0344501Y0050084D01*
X0344550Y0050071D01*
X0344600Y0050062D01*
X0344650Y0050057D01*
X0344701Y0050055D01*
D39*
X0341551Y0046669D03*
X0349425Y0046669D03*
X0349425Y0054937D03*
X0344701Y0058480D03*
X0349425Y0062417D03*
X0349425Y0070291D03*
X0340764Y0071472D03*
X0349425Y0078165D03*
X0349425Y0086039D03*
X0336039Y0085646D03*
X0336039Y0080528D03*
X0326591Y0080528D03*
X0325803Y0085646D03*
X0318717Y0080528D03*
X0308874Y0079346D03*
X0299031Y0080528D03*
X0296098Y0085114D03*
X0291551Y0085252D03*
X0292732Y0090764D03*
X0296276Y0090370D03*
X0296276Y0095094D03*
X0291945Y0096276D03*
X0296276Y0100213D03*
X0296669Y0105331D03*
X0291945Y0105331D03*
X0296276Y0110055D03*
X0302181Y0110843D03*
X0306512Y0110843D03*
X0306118Y0115173D03*
X0301787Y0115961D03*
X0301394Y0120291D03*
X0296669Y0121472D03*
X0302181Y0126591D03*
X0301000Y0130134D03*
X0297457Y0129740D03*
X0296276Y0134071D03*
X0291551Y0134071D03*
X0292339Y0129740D03*
X0296669Y0139189D03*
X0296669Y0141945D03*
X0300622Y0144716D03*
X0301394Y0148244D03*
X0306512Y0150213D03*
X0311630Y0150213D03*
X0312024Y0146276D03*
X0316354Y0144701D03*
X0311236Y0139976D03*
X0306512Y0139976D03*
X0301394Y0139976D03*
X0289964Y0141945D03*
X0296669Y0151394D03*
X0297063Y0156118D03*
X0296276Y0160055D03*
X0295882Y0165173D03*
X0292339Y0164780D03*
X0288402Y0165173D03*
X0296669Y0169110D03*
X0301394Y0169110D03*
X0301394Y0165173D03*
X0306512Y0165567D03*
X0306512Y0160055D03*
X0306512Y0155724D03*
X0311236Y0155724D03*
X0316354Y0155331D03*
X0316748Y0150213D03*
X0325803Y0151787D03*
X0331315Y0152969D03*
X0336039Y0155724D03*
X0336433Y0160449D03*
X0331315Y0160449D03*
X0330921Y0166748D03*
X0336433Y0169898D03*
X0331315Y0173047D03*
X0324622Y0175803D03*
X0317142Y0171079D03*
X0316748Y0166748D03*
X0312417Y0164780D03*
X0316354Y0160055D03*
X0321079Y0160843D03*
X0331315Y0147457D03*
X0331315Y0144307D03*
X0330921Y0140370D03*
X0330528Y0131709D03*
X0321472Y0133677D03*
X0316748Y0137220D03*
X0316354Y0130134D03*
X0311630Y0131709D03*
X0306118Y0130134D03*
X0307299Y0126197D03*
X0312024Y0126197D03*
X0310843Y0120685D03*
X0306512Y0120685D03*
X0312024Y0116354D03*
X0312024Y0111236D03*
X0317142Y0111236D03*
X0312024Y0105331D03*
X0312024Y0101000D03*
X0309268Y0100606D03*
X0306906Y0106118D03*
X0301394Y0105724D03*
X0301610Y0100587D03*
X0301787Y0096276D03*
X0301787Y0091945D03*
X0313205Y0090370D03*
X0314780Y0095882D03*
X0321079Y0090370D03*
X0321079Y0101000D03*
X0331709Y0101000D03*
X0336433Y0105724D03*
X0336433Y0110449D03*
X0336433Y0115567D03*
X0336433Y0121079D03*
X0330528Y0126197D03*
X0326591Y0121472D03*
X0316748Y0120685D03*
X0336433Y0130528D03*
X0349425Y0133283D03*
X0349425Y0141157D03*
X0336039Y0149425D03*
X0349425Y0152969D03*
X0349425Y0162811D03*
X0349425Y0172654D03*
X0349425Y0180528D03*
X0349425Y0188402D03*
X0349425Y0196276D03*
X0336433Y0195488D03*
X0336827Y0200213D03*
X0331315Y0200213D03*
X0326591Y0200606D03*
X0322260Y0199819D03*
X0322260Y0194701D03*
X0326591Y0190370D03*
X0331315Y0194307D03*
X0326591Y0185252D03*
X0326984Y0180134D03*
X0321472Y0181315D03*
X0321472Y0186039D03*
X0315961Y0185646D03*
X0311236Y0180528D03*
X0306118Y0179740D03*
X0301787Y0179346D03*
X0301787Y0174228D03*
X0306906Y0174622D03*
X0311236Y0174622D03*
X0306512Y0186039D03*
X0306906Y0189583D03*
X0301394Y0188402D03*
X0296669Y0193126D03*
X0301394Y0193913D03*
X0301394Y0198638D03*
X0296276Y0198638D03*
X0291157Y0193126D03*
X0283677Y0188402D03*
X0281315Y0189976D03*
X0280528Y0196276D03*
X0277457Y0196276D03*
X0273047Y0198714D03*
X0270685Y0201000D03*
X0269110Y0202969D03*
X0272260Y0206512D03*
X0274228Y0204543D03*
X0273835Y0208874D03*
X0277772Y0210843D03*
X0280134Y0212811D03*
X0281898Y0215955D03*
X0280528Y0217142D03*
X0278749Y0217137D03*
X0280134Y0219110D03*
X0280528Y0221079D03*
X0283495Y0221684D03*
X0290370Y0226591D03*
X0291945Y0224622D03*
X0295488Y0225803D03*
X0296512Y0224031D03*
X0296669Y0217929D03*
X0291945Y0211236D03*
X0296276Y0210449D03*
X0301000Y0210449D03*
X0301787Y0204543D03*
X0306906Y0204543D03*
X0311236Y0205724D03*
X0316748Y0205331D03*
X0321079Y0205331D03*
X0321866Y0209268D03*
X0321866Y0211630D03*
X0321472Y0215567D03*
X0317535Y0214780D03*
X0317142Y0219504D03*
X0312024Y0219504D03*
X0312024Y0224622D03*
X0315961Y0225409D03*
X0316748Y0230134D03*
X0312024Y0234465D03*
X0316748Y0234858D03*
X0316354Y0240370D03*
X0312417Y0239976D03*
X0311236Y0244307D03*
X0311630Y0248244D03*
X0317142Y0249819D03*
X0317142Y0244701D03*
X0321079Y0239583D03*
X0324228Y0235584D03*
X0326298Y0233037D03*
X0330528Y0235252D03*
X0330134Y0240370D03*
X0336039Y0239976D03*
X0336433Y0235252D03*
X0343913Y0239976D03*
X0349425Y0243520D03*
X0349425Y0251394D03*
X0336433Y0245488D03*
X0331709Y0250606D03*
X0326591Y0250213D03*
X0316748Y0259268D03*
X0316354Y0265173D03*
X0312417Y0265173D03*
X0311630Y0269110D03*
X0306512Y0265567D03*
X0302181Y0265173D03*
X0301394Y0269110D03*
X0296276Y0268717D03*
X0292339Y0270291D03*
X0291551Y0263598D03*
X0297063Y0260449D03*
X0298638Y0263205D03*
X0301394Y0260449D03*
X0301394Y0255724D03*
X0301394Y0250606D03*
X0297457Y0249819D03*
X0292732Y0250213D03*
X0289189Y0247850D03*
X0287220Y0249819D03*
X0285646Y0251394D03*
X0284071Y0252969D03*
X0281315Y0255331D03*
X0279740Y0256906D03*
X0278559Y0258087D03*
X0292732Y0254937D03*
X0292732Y0244307D03*
X0296669Y0243913D03*
X0301394Y0244307D03*
X0301079Y0237850D03*
X0296472Y0237654D03*
X0296669Y0233677D03*
X0296669Y0228953D03*
X0291945Y0228953D03*
X0291551Y0233677D03*
X0291551Y0239189D03*
X0306512Y0238008D03*
X0306118Y0228559D03*
X0311236Y0229740D03*
X0306512Y0224228D03*
X0306512Y0214386D03*
X0321472Y0225409D03*
X0326197Y0225803D03*
X0330921Y0225409D03*
X0330921Y0230528D03*
X0336039Y0230528D03*
X0336827Y0225803D03*
X0343520Y0225409D03*
X0344307Y0228165D03*
X0349425Y0227772D03*
X0349425Y0219898D03*
X0349425Y0212024D03*
X0349425Y0204150D03*
X0336433Y0205724D03*
X0336433Y0210055D03*
X0331315Y0210449D03*
X0331315Y0213598D03*
X0326984Y0210055D03*
X0326197Y0205331D03*
X0331315Y0205331D03*
X0315961Y0199819D03*
X0311236Y0199819D03*
X0307299Y0199425D03*
X0306118Y0194307D03*
X0316354Y0194307D03*
X0296669Y0183283D03*
X0291551Y0178953D03*
X0291551Y0173047D03*
X0282890Y0167142D03*
X0282890Y0163205D03*
X0274622Y0163598D03*
X0274622Y0161630D03*
X0275016Y0159661D03*
X0272654Y0159661D03*
X0271866Y0161630D03*
X0270291Y0160449D03*
X0265567Y0163992D03*
X0262811Y0163992D03*
X0262811Y0166748D03*
X0265567Y0166748D03*
X0258087Y0171079D03*
X0252181Y0166748D03*
X0252575Y0163992D03*
X0252575Y0162024D03*
X0251000Y0160843D03*
X0250213Y0162811D03*
X0248586Y0161236D03*
X0243913Y0164780D03*
X0241157Y0164780D03*
X0241157Y0167929D03*
X0243913Y0167929D03*
X0236433Y0171472D03*
X0230528Y0163205D03*
X0230921Y0161236D03*
X0228953Y0161236D03*
X0228165Y0159268D03*
X0230528Y0159268D03*
X0226591Y0161236D03*
X0228165Y0163205D03*
X0221866Y0164780D03*
X0221866Y0167535D03*
X0219110Y0167535D03*
X0219110Y0164780D03*
X0217142Y0158480D03*
X0213598Y0170685D03*
X0213598Y0178559D03*
X0214780Y0186039D03*
X0217535Y0187614D03*
X0228559Y0196669D03*
X0236039Y0199615D03*
X0238795Y0199819D03*
X0244832Y0203625D03*
X0246203Y0199822D03*
X0251190Y0200011D03*
X0252765Y0198829D03*
X0251583Y0197255D03*
X0253946Y0197058D03*
X0250606Y0195094D03*
X0259661Y0200213D03*
X0261630Y0199031D03*
X0263198Y0197747D03*
X0267929Y0196669D03*
X0267142Y0194701D03*
X0264386Y0188402D03*
X0260449Y0188402D03*
X0257299Y0188402D03*
X0238008Y0188008D03*
X0235646Y0188008D03*
X0256189Y0204103D03*
X0256505Y0214184D03*
X0253756Y0217142D03*
X0256505Y0220089D03*
X0253756Y0223047D03*
X0256505Y0225995D03*
X0260055Y0223047D03*
X0262410Y0225995D03*
X0262410Y0220089D03*
X0259661Y0217142D03*
X0262410Y0214184D03*
X0250599Y0214184D03*
X0250599Y0220089D03*
X0250599Y0225995D03*
X0261328Y0237018D03*
X0261157Y0239228D03*
X0263205Y0239189D03*
X0265173Y0240370D03*
X0263205Y0241551D03*
X0261280Y0241483D03*
X0248557Y0241755D03*
X0244701Y0239189D03*
X0241642Y0240463D03*
X0238795Y0241157D03*
X0236827Y0241157D03*
X0236827Y0239189D03*
X0238591Y0239184D03*
X0238795Y0237220D03*
X0236918Y0237314D03*
X0229740Y0240764D03*
X0223441Y0228165D03*
X0220291Y0228165D03*
X0218323Y0228165D03*
X0212811Y0223047D03*
X0214780Y0218717D03*
X0217535Y0220685D03*
X0221472Y0218323D03*
X0219110Y0215173D03*
X0216748Y0214780D03*
X0216748Y0212417D03*
X0219110Y0212417D03*
X0209268Y0213992D03*
X0203756Y0217142D03*
X0197850Y0217142D03*
X0184465Y0220685D03*
X0182102Y0228953D03*
X0176197Y0228953D03*
X0170291Y0228953D03*
X0164386Y0228953D03*
X0158480Y0228953D03*
X0152575Y0228953D03*
X0146669Y0228953D03*
X0140764Y0228953D03*
X0136433Y0228953D03*
X0137614Y0235646D03*
X0143520Y0235646D03*
X0149425Y0235646D03*
X0155331Y0235646D03*
X0160055Y0239189D03*
X0161630Y0237587D03*
X0161236Y0235646D03*
X0167142Y0235646D03*
X0173047Y0235646D03*
X0178953Y0235646D03*
X0184858Y0235646D03*
X0190764Y0235646D03*
X0196669Y0235646D03*
X0202575Y0235646D03*
X0208480Y0235646D03*
X0212417Y0234465D03*
X0205724Y0228953D03*
X0199819Y0228953D03*
X0193913Y0228953D03*
X0188008Y0228953D03*
X0179346Y0244701D03*
X0176984Y0244701D03*
X0176780Y0249223D03*
X0173631Y0249420D03*
X0171472Y0250606D03*
X0168323Y0254150D03*
X0163364Y0253991D03*
X0161630Y0255331D03*
X0160055Y0248638D03*
X0153756Y0247063D03*
X0140764Y0241551D03*
X0131709Y0235646D03*
X0125803Y0235646D03*
X0119898Y0235646D03*
X0113992Y0235646D03*
X0108480Y0235646D03*
X0103362Y0236827D03*
X0099819Y0239189D03*
X0094701Y0244701D03*
X0089583Y0238795D03*
X0084858Y0239189D03*
X0079740Y0239976D03*
X0081315Y0229346D03*
X0080921Y0221866D03*
X0081315Y0214386D03*
X0080921Y0207299D03*
X0081315Y0199425D03*
X0063992Y0184071D03*
X0052181Y0178559D03*
X0052181Y0170685D03*
X0052181Y0162811D03*
X0058874Y0157299D03*
X0052181Y0154937D03*
X0052181Y0147063D03*
X0052181Y0139189D03*
X0052181Y0131315D03*
X0064386Y0133283D03*
X0064386Y0136433D03*
X0067142Y0134858D03*
X0069898Y0133283D03*
X0069898Y0136433D03*
X0073441Y0138795D03*
X0072260Y0144701D03*
X0076591Y0146669D03*
X0085252Y0141551D03*
X0089583Y0138008D03*
X0085646Y0134465D03*
X0089583Y0132299D03*
X0089189Y0126984D03*
X0085252Y0126591D03*
X0087614Y0122654D03*
X0089189Y0118717D03*
X0084858Y0118717D03*
X0091157Y0114386D03*
X0093355Y0111387D03*
X0090370Y0109661D03*
X0089976Y0106906D03*
X0088008Y0107855D03*
X0089504Y0104504D03*
X0085882Y0111000D03*
X0097063Y0116748D03*
X0096276Y0119533D03*
X0103126Y0121472D03*
X0101787Y0124228D03*
X0097850Y0127033D03*
X0099819Y0129346D03*
X0105810Y0129374D03*
X0106018Y0126644D03*
X0113273Y0121147D03*
X0111305Y0120360D03*
X0115554Y0121153D03*
X0121079Y0124874D03*
X0123379Y0125830D03*
X0127316Y0132157D03*
X0120599Y0133060D03*
X0121017Y0136854D03*
X0115567Y0141157D03*
X0113205Y0141157D03*
X0117929Y0141945D03*
X0116354Y0148638D03*
X0113530Y0148706D03*
X0110843Y0148638D03*
X0106906Y0150606D03*
X0105331Y0152710D03*
X0106906Y0155357D03*
X0104543Y0156512D03*
X0104543Y0159268D03*
X0106906Y0163598D03*
X0104937Y0165961D03*
X0106906Y0167929D03*
X0104937Y0169110D03*
X0107693Y0172260D03*
X0109661Y0170685D03*
X0115567Y0168717D03*
X0119110Y0171472D03*
X0120685Y0169898D03*
X0122654Y0169110D03*
X0125016Y0165567D03*
X0126591Y0163992D03*
X0129740Y0165567D03*
X0128165Y0168323D03*
X0135190Y0163008D03*
X0136433Y0160843D03*
X0123524Y0159214D03*
X0123379Y0161603D03*
X0121866Y0164472D03*
X0112811Y0164595D03*
X0111630Y0160843D03*
X0120107Y0152134D03*
X0121804Y0153389D03*
X0124571Y0147543D03*
X0128559Y0144701D03*
X0128559Y0138402D03*
X0114386Y0131315D03*
X0104956Y0132550D03*
X0103742Y0134465D03*
X0103756Y0137220D03*
X0103756Y0139583D03*
X0106018Y0139556D03*
X0106104Y0142813D03*
X0089583Y0149031D03*
X0089583Y0155724D03*
X0092732Y0156906D03*
X0089583Y0162024D03*
X0076591Y0159661D03*
X0065567Y0168717D03*
X0088402Y0175803D03*
X0105724Y0178953D03*
X0112024Y0176197D03*
X0115961Y0174622D03*
X0117535Y0173047D03*
X0116748Y0177772D03*
X0115173Y0179740D03*
X0125409Y0180134D03*
X0134858Y0182102D03*
X0136827Y0180134D03*
X0143913Y0186827D03*
X0142339Y0188795D03*
X0152575Y0186027D03*
X0157299Y0190370D03*
X0152181Y0195094D03*
X0149819Y0196669D03*
X0165961Y0197850D03*
X0178559Y0210449D03*
X0184465Y0209661D03*
X0171079Y0216748D03*
X0156118Y0219898D03*
X0148244Y0214780D03*
X0136433Y0219504D03*
X0126984Y0211236D03*
X0123441Y0209268D03*
X0132496Y0210055D03*
X0124228Y0196276D03*
X0117535Y0216354D03*
X0117142Y0228953D03*
X0121866Y0228953D03*
X0127378Y0228953D03*
X0111236Y0228953D03*
X0106512Y0228953D03*
X0101394Y0230134D03*
X0097063Y0232496D03*
X0093913Y0236039D03*
X0094701Y0219898D03*
X0095672Y0256118D03*
X0093913Y0259268D03*
X0094307Y0263205D03*
X0090370Y0263205D03*
X0086433Y0263205D03*
X0090370Y0270291D03*
X0094307Y0270291D03*
X0098244Y0270291D03*
X0102181Y0270291D03*
X0102181Y0263205D03*
X0098244Y0263205D03*
X0106118Y0263205D03*
X0109268Y0256118D03*
X0113992Y0263205D03*
X0117929Y0263205D03*
X0121866Y0263205D03*
X0125803Y0263205D03*
X0129740Y0263205D03*
X0133677Y0263205D03*
X0136827Y0264780D03*
X0138795Y0262417D03*
X0141157Y0262417D03*
X0140370Y0264780D03*
X0142732Y0265173D03*
X0143520Y0268717D03*
X0140764Y0268717D03*
X0134071Y0271472D03*
X0129740Y0270291D03*
X0125803Y0270291D03*
X0121866Y0270291D03*
X0117929Y0270291D03*
X0113992Y0270291D03*
X0110055Y0270291D03*
X0117142Y0274228D03*
X0117142Y0285646D03*
X0101394Y0296669D03*
X0098244Y0299425D03*
X0101394Y0302969D03*
X0107693Y0303362D03*
X0113992Y0303362D03*
X0119504Y0302969D03*
X0118323Y0298638D03*
X0138402Y0301000D03*
X0138795Y0306118D03*
X0144701Y0314386D03*
X0152575Y0314386D03*
X0160449Y0314386D03*
X0168323Y0314386D03*
X0176197Y0314386D03*
X0184071Y0314386D03*
X0191945Y0314386D03*
X0199819Y0314386D03*
X0207693Y0314386D03*
X0215567Y0314386D03*
X0223441Y0314386D03*
X0231315Y0314386D03*
X0239189Y0314386D03*
X0247063Y0314386D03*
X0249425Y0313205D03*
X0254937Y0314386D03*
X0262811Y0314386D03*
X0262454Y0308517D03*
X0270685Y0314386D03*
X0278559Y0314386D03*
X0278165Y0311630D03*
X0276984Y0305724D03*
X0283190Y0306603D03*
X0285159Y0304635D03*
X0287127Y0306603D03*
X0287127Y0302666D03*
X0283190Y0302666D03*
X0277929Y0298205D03*
X0272265Y0295186D03*
X0270001Y0294891D03*
X0268525Y0292430D03*
X0270690Y0292036D03*
X0273441Y0292339D03*
X0274622Y0289189D03*
X0272363Y0289083D03*
X0269804Y0289280D03*
X0267442Y0288493D03*
X0266064Y0289969D03*
X0268525Y0286524D03*
X0271379Y0285934D03*
X0273441Y0283677D03*
X0274430Y0286131D03*
X0278559Y0289583D03*
X0286433Y0291945D03*
X0289976Y0291945D03*
X0293520Y0295094D03*
X0295882Y0301394D03*
X0296394Y0307496D03*
X0294307Y0314386D03*
X0302181Y0314386D03*
X0310055Y0314386D03*
X0317929Y0314386D03*
X0325803Y0314386D03*
X0323047Y0308480D03*
X0333677Y0314386D03*
X0341551Y0314386D03*
X0349425Y0314386D03*
X0349425Y0306512D03*
X0341551Y0306118D03*
X0349425Y0298638D03*
X0349425Y0290764D03*
X0349425Y0282890D03*
X0349425Y0275016D03*
X0349425Y0267142D03*
X0349425Y0259268D03*
X0335646Y0270291D03*
X0328559Y0281315D03*
X0321472Y0280134D03*
X0321472Y0270685D03*
X0310843Y0260055D03*
X0311630Y0254937D03*
X0282890Y0274228D03*
X0282890Y0276984D03*
X0286827Y0280134D03*
X0270198Y0282784D03*
X0267934Y0283473D03*
X0265867Y0285146D03*
X0261143Y0289969D03*
X0256222Y0280127D03*
X0253756Y0280055D03*
X0251000Y0277772D03*
X0251394Y0275016D03*
X0249425Y0275016D03*
X0249425Y0273047D03*
X0251787Y0273047D03*
X0253362Y0274228D03*
X0254543Y0273047D03*
X0248638Y0279740D03*
X0246669Y0280921D03*
X0246379Y0285835D03*
X0246379Y0289576D03*
X0241458Y0289969D03*
X0238997Y0289576D03*
X0239096Y0287410D03*
X0237915Y0285442D03*
X0236241Y0286918D03*
X0236045Y0289477D03*
X0233485Y0288887D03*
X0233677Y0286039D03*
X0241064Y0285835D03*
X0241157Y0278559D03*
X0223441Y0268717D03*
X0217142Y0273441D03*
X0211630Y0273047D03*
X0210055Y0271079D03*
X0207693Y0269504D03*
X0207299Y0266748D03*
X0204339Y0267137D03*
X0202575Y0267142D03*
X0201977Y0263593D03*
X0199615Y0263593D03*
X0204339Y0263593D03*
X0206512Y0260055D03*
X0206512Y0256512D03*
X0210055Y0258087D03*
X0210055Y0262024D03*
X0210055Y0265173D03*
X0213992Y0268717D03*
X0207693Y0275016D03*
X0210055Y0276984D03*
X0207693Y0278953D03*
X0210055Y0280921D03*
X0207693Y0282702D03*
X0210449Y0283883D03*
X0212811Y0285646D03*
X0215961Y0287220D03*
X0216748Y0293520D03*
X0212811Y0297850D03*
X0214386Y0304937D03*
X0223441Y0299819D03*
X0241551Y0298638D03*
X0247063Y0294307D03*
X0250808Y0300796D03*
X0265567Y0299819D03*
X0270592Y0298335D03*
X0286433Y0314386D03*
X0306906Y0280134D03*
X0331709Y0293913D03*
X0349425Y0235646D03*
X0336433Y0184071D03*
X0336433Y0180134D03*
X0301394Y0155724D03*
X0291157Y0158087D03*
X0285646Y0158480D03*
X0274622Y0166354D03*
X0258480Y0160449D03*
X0236827Y0161630D03*
X0204937Y0134858D03*
X0204937Y0132496D03*
X0204937Y0129740D03*
X0212417Y0126591D03*
X0210843Y0119110D03*
X0209268Y0113598D03*
X0218323Y0113205D03*
X0223441Y0112811D03*
X0223441Y0107693D03*
X0218323Y0107693D03*
X0218323Y0102969D03*
X0223441Y0102969D03*
X0228559Y0102969D03*
X0233283Y0102969D03*
X0238402Y0102969D03*
X0243520Y0102969D03*
X0248638Y0102969D03*
X0253362Y0102969D03*
X0258087Y0102969D03*
X0263205Y0102969D03*
X0268323Y0102969D03*
X0273835Y0102969D03*
X0274622Y0106118D03*
X0268323Y0107299D03*
X0263205Y0107693D03*
X0258087Y0108087D03*
X0253362Y0108087D03*
X0253362Y0113205D03*
X0257693Y0113205D03*
X0253362Y0117535D03*
X0248244Y0117535D03*
X0248244Y0113205D03*
X0248244Y0108087D03*
X0248638Y0097850D03*
X0253362Y0097850D03*
X0258087Y0097850D03*
X0263205Y0097850D03*
X0263205Y0092732D03*
X0254937Y0088008D03*
X0252706Y0086538D03*
X0246669Y0092601D03*
X0244701Y0092601D03*
X0238664Y0086538D03*
X0235252Y0088205D03*
X0228165Y0093126D03*
X0228165Y0097850D03*
X0233283Y0097850D03*
X0238402Y0097850D03*
X0243520Y0097850D03*
X0241945Y0073753D03*
X0240016Y0073955D03*
X0237220Y0073835D03*
X0235252Y0073835D03*
X0233161Y0073647D03*
X0230921Y0073835D03*
X0228559Y0073835D03*
X0226197Y0073835D03*
X0209268Y0061236D03*
X0199819Y0053362D03*
X0199819Y0046669D03*
X0207693Y0046669D03*
X0215567Y0046669D03*
X0219110Y0047613D03*
X0221472Y0048638D03*
X0221472Y0051787D03*
X0219898Y0053756D03*
X0204543Y0075409D03*
X0204543Y0077974D03*
X0204543Y0087614D03*
X0201000Y0089583D03*
X0197063Y0088402D03*
X0189583Y0092732D03*
X0193126Y0095882D03*
X0195094Y0099031D03*
X0193520Y0101000D03*
X0194701Y0103362D03*
X0193380Y0109268D03*
X0190764Y0113598D03*
X0184071Y0100213D03*
X0182545Y0092684D03*
X0179569Y0077156D03*
X0177156Y0077600D03*
X0177156Y0072876D03*
X0178781Y0071644D03*
X0168190Y0065257D03*
X0168190Y0063121D03*
X0165567Y0060449D03*
X0169110Y0054150D03*
X0168323Y0052181D03*
X0168323Y0046669D03*
X0160449Y0046669D03*
X0159268Y0052575D03*
X0152969Y0058480D03*
X0145094Y0058480D03*
X0137220Y0058480D03*
X0129346Y0058480D03*
X0121472Y0058480D03*
X0113598Y0058480D03*
X0105724Y0058480D03*
X0105724Y0065567D03*
X0095094Y0076197D03*
X0091551Y0076197D03*
X0083677Y0076197D03*
X0075803Y0076197D03*
X0070291Y0077772D03*
X0060055Y0076197D03*
X0058087Y0082102D03*
X0052181Y0084071D03*
X0058874Y0089583D03*
X0052181Y0091945D03*
X0052181Y0099819D03*
X0052181Y0107693D03*
X0052181Y0115567D03*
X0060449Y0118717D03*
X0052181Y0123441D03*
X0062024Y0139583D03*
X0062024Y0144701D03*
X0076984Y0132102D03*
X0105393Y0110422D03*
X0105087Y0106512D03*
X0105191Y0102602D03*
X0104740Y0100606D03*
X0105724Y0097654D03*
X0110843Y0093913D03*
X0112811Y0094307D03*
X0115327Y0094154D03*
X0118717Y0093126D03*
X0120291Y0095094D03*
X0121866Y0098638D03*
X0121572Y0105107D03*
X0122346Y0109832D03*
X0121010Y0111168D03*
X0123835Y0115173D03*
X0128559Y0118323D03*
X0115173Y0113992D03*
X0112221Y0110813D03*
X0113749Y0104543D03*
X0128559Y0095882D03*
X0128362Y0090370D03*
X0134465Y0088992D03*
X0134465Y0087024D03*
X0134858Y0085136D03*
X0128362Y0084661D03*
X0128559Y0077969D03*
X0119110Y0081512D03*
X0110055Y0090567D03*
X0083283Y0089583D03*
X0081315Y0087627D03*
X0068323Y0096669D03*
X0052181Y0076197D03*
X0150213Y0084071D03*
X0153657Y0084366D03*
X0156118Y0083677D03*
X0149819Y0108874D03*
X0193520Y0077378D03*
X0191945Y0075803D03*
X0193520Y0074228D03*
X0193126Y0071472D03*
X0190370Y0074228D03*
X0178165Y0060843D03*
X0177772Y0058087D03*
X0177772Y0055724D03*
X0187614Y0052969D03*
X0191157Y0050606D03*
X0191157Y0047850D03*
X0184071Y0046669D03*
X0204937Y0093913D03*
X0204937Y0103756D03*
X0224228Y0121472D03*
X0195488Y0127378D03*
X0191945Y0143913D03*
X0196669Y0145882D03*
X0198638Y0144701D03*
X0189583Y0152969D03*
X0194307Y0155724D03*
X0189544Y0162038D03*
X0192732Y0164780D03*
X0194629Y0167142D03*
X0194701Y0169504D03*
X0197457Y0173047D03*
X0193520Y0177772D03*
X0189976Y0178559D03*
X0187614Y0176197D03*
X0183677Y0179346D03*
X0182496Y0180921D03*
X0181124Y0182294D03*
X0179789Y0183628D03*
X0185252Y0182890D03*
X0175016Y0177772D03*
X0172260Y0175409D03*
X0170685Y0173441D03*
X0168717Y0171472D03*
X0171472Y0168717D03*
X0174228Y0170685D03*
X0167142Y0175803D03*
X0169110Y0178165D03*
X0171472Y0179740D03*
X0164780Y0173441D03*
X0162417Y0171079D03*
X0174694Y0161309D03*
X0177378Y0144307D03*
X0180921Y0142732D03*
X0184465Y0143520D03*
X0151000Y0143126D03*
X0249031Y0073441D03*
X0260843Y0056906D03*
X0260055Y0050213D03*
X0256170Y0050213D03*
X0251787Y0050213D03*
X0248244Y0050200D03*
X0262811Y0046669D03*
X0270685Y0046669D03*
X0278559Y0046669D03*
X0286433Y0046669D03*
X0294307Y0046669D03*
X0302181Y0046669D03*
X0310055Y0046669D03*
X0317929Y0046669D03*
X0325803Y0046669D03*
X0331315Y0046669D03*
X0321472Y0059661D03*
X0325016Y0067535D03*
X0316748Y0067142D03*
X0297457Y0053362D03*
X0285646Y0059268D03*
X0277378Y0058087D03*
X0269898Y0061236D03*
X0278953Y0098244D03*
X0296276Y0115567D03*
X0336827Y0095882D03*
X0336433Y0090764D03*
X0349386Y0093677D03*
X0349425Y0101787D03*
X0349425Y0111630D03*
X0349425Y0121472D03*
X0275803Y0223047D03*
X0212417Y0239189D03*
X0210449Y0240764D03*
X0209268Y0242339D03*
X0206512Y0252575D03*
X0210055Y0254150D03*
X0198244Y0247457D03*
X0197457Y0245094D03*
X0193126Y0245882D03*
X0193913Y0248638D03*
X0196276Y0250606D03*
X0187220Y0248638D03*
X0185646Y0250213D03*
X0180127Y0250609D03*
X0180127Y0264184D03*
X0177378Y0267142D03*
X0180127Y0270089D03*
X0177378Y0273047D03*
X0180127Y0275995D03*
X0183677Y0273047D03*
X0186032Y0275995D03*
X0186032Y0270089D03*
X0183283Y0267142D03*
X0186032Y0264184D03*
X0174221Y0264184D03*
X0174221Y0270089D03*
X0174221Y0275995D03*
X0166052Y0289676D03*
X0166052Y0292038D03*
X0168323Y0292339D03*
X0173360Y0292258D03*
X0160843Y0286827D03*
X0155331Y0289583D03*
X0148244Y0289189D03*
X0148638Y0295488D03*
X0138402Y0289189D03*
X0132890Y0281709D03*
X0133283Y0276591D03*
X0138008Y0275016D03*
X0141945Y0278165D03*
X0147063Y0278165D03*
X0149819Y0262024D03*
X0188402Y0289976D03*
X0187220Y0291945D03*
X0185572Y0290341D03*
X0189976Y0291945D03*
X0190764Y0289583D03*
X0192732Y0291157D03*
X0193520Y0295094D03*
X0189968Y0299434D03*
X0195882Y0302575D03*
X0203756Y0303362D03*
X0202181Y0291945D03*
X0202181Y0289583D03*
X0202181Y0272654D03*
X0198638Y0272654D03*
X0183283Y0304150D03*
X0099031Y0279346D03*
X0091157Y0279346D03*
X0083283Y0279346D03*
X0075409Y0279346D03*
X0067535Y0279346D03*
X0068717Y0259661D03*
D40*
X0115567Y0194307D03*
X0121866Y0193520D03*
X0183276Y0249715D03*
X0160835Y0263495D03*
X0159457Y0279440D03*
X0169300Y0289774D03*
X0178158Y0288889D03*
X0184950Y0288200D03*
X0196465Y0273042D03*
X0199910Y0267137D03*
X0251300Y0280127D03*
X0251300Y0294891D03*
X0261635Y0294891D03*
X0294268Y0305127D03*
X0254536Y0238889D03*
X0236623Y0227078D03*
X0236426Y0214676D03*
X0272843Y0223042D03*
X0276288Y0217137D03*
X0253362Y0059255D03*
X0248244Y0056328D03*
X0222507Y0060696D03*
X0215567Y0058087D03*
D41*
X0219898Y0053756D02*
X0222260Y0053756D01*
X0224272Y0051744D01*
X0224306Y0051744D01*
X0225443Y0050606D01*
X0228756Y0050606D01*
X0230724Y0050606D02*
X0230724Y0049228D01*
X0230134Y0048638D01*
X0224622Y0048638D01*
X0221472Y0051787D01*
X0221472Y0048638D02*
X0222654Y0047457D01*
X0231315Y0047457D01*
X0232693Y0048835D01*
X0232693Y0050606D01*
X0234661Y0050606D02*
X0234661Y0048835D01*
X0232146Y0046319D01*
X0220404Y0046319D01*
X0219110Y0047613D01*
X0226197Y0057102D02*
X0226197Y0058087D01*
X0226197Y0059071D01*
X0235646Y0060055D02*
X0240567Y0055134D01*
X0245094Y0055134D01*
X0245094Y0057102D02*
X0245094Y0059071D01*
X0250278Y0059071D02*
X0250606Y0059399D01*
X0250606Y0055199D02*
X0249372Y0055199D01*
X0250541Y0055134D02*
X0250606Y0055199D01*
X0248902Y0051787D02*
X0247587Y0051787D01*
X0247193Y0051394D01*
X0242535Y0051394D01*
X0242535Y0050606D01*
X0240567Y0050606D02*
X0240567Y0049850D01*
X0241735Y0048681D01*
X0243336Y0048681D01*
X0244193Y0049539D01*
X0247583Y0049539D01*
X0248244Y0050200D01*
X0248902Y0051787D02*
X0250476Y0050213D01*
X0251787Y0050213D01*
X0253502Y0047544D02*
X0256170Y0050213D01*
X0253502Y0047544D02*
X0240283Y0047544D01*
X0238598Y0049228D01*
X0238598Y0050606D01*
X0236630Y0050606D02*
X0236630Y0048638D01*
X0255974Y0046132D02*
X0260055Y0050213D01*
X0252706Y0086538D02*
X0252706Y0089583D01*
X0251919Y0090370D01*
X0247719Y0090370D02*
X0247719Y0091551D01*
X0246669Y0092601D01*
X0244701Y0092601D02*
X0242864Y0090764D01*
X0242864Y0090370D01*
X0238664Y0090370D02*
X0238664Y0086538D01*
X0204937Y0093913D02*
X0204150Y0094701D01*
X0204150Y0096538D01*
X0151000Y0143126D02*
X0151000Y0145357D01*
X0147850Y0149294D01*
X0147850Y0153494D02*
X0147850Y0159924D01*
X0147850Y0164124D02*
X0147850Y0169110D01*
X0148244Y0169504D01*
X0149080Y0169448D01*
X0149812Y0168717D01*
X0160055Y0168717D01*
X0162417Y0171079D01*
X0161057Y0169683D02*
X0175589Y0169683D01*
X0174803Y0168897D02*
X0161843Y0168897D01*
X0162629Y0168111D02*
X0174017Y0168111D01*
X0173231Y0167326D02*
X0163415Y0167326D01*
X0164201Y0166540D02*
X0172445Y0166540D01*
X0171659Y0165754D02*
X0164986Y0165754D01*
X0165772Y0164968D02*
X0170873Y0164968D01*
X0170087Y0164182D02*
X0166558Y0164182D01*
X0167344Y0163396D02*
X0169301Y0163396D01*
X0168516Y0162610D02*
X0168130Y0162610D01*
X0168323Y0162417D02*
X0159268Y0171472D01*
X0171472Y0183677D01*
X0180528Y0174622D01*
X0168323Y0162417D01*
X0160271Y0170469D02*
X0176375Y0170469D01*
X0177161Y0171255D02*
X0159485Y0171255D01*
X0159836Y0172041D02*
X0177947Y0172041D01*
X0178732Y0172827D02*
X0160622Y0172827D01*
X0161408Y0173613D02*
X0179518Y0173613D01*
X0180304Y0174399D02*
X0162194Y0174399D01*
X0162980Y0175185D02*
X0179965Y0175185D01*
X0179179Y0175971D02*
X0163766Y0175971D01*
X0164552Y0176756D02*
X0178393Y0176756D01*
X0177607Y0177542D02*
X0165338Y0177542D01*
X0166124Y0178328D02*
X0176821Y0178328D01*
X0176035Y0179114D02*
X0166909Y0179114D01*
X0167695Y0179900D02*
X0175249Y0179900D01*
X0174464Y0180686D02*
X0168481Y0180686D01*
X0169267Y0181472D02*
X0173678Y0181472D01*
X0172892Y0182258D02*
X0170053Y0182258D01*
X0170839Y0183044D02*
X0172106Y0183044D01*
X0157156Y0185001D02*
X0156118Y0186039D01*
X0156118Y0186827D01*
X0151250Y0179096D02*
X0150510Y0178355D01*
X0150213Y0178355D01*
X0151250Y0179096D02*
X0149175Y0179096D01*
X0139583Y0169254D02*
X0139583Y0168717D01*
X0139583Y0162943D01*
X0135255Y0162943D01*
X0135190Y0163008D01*
X0134596Y0160843D02*
X0132496Y0162943D01*
X0132496Y0168717D01*
X0132496Y0169110D01*
X0134596Y0160843D02*
X0136433Y0160843D01*
X0139583Y0158743D02*
X0139583Y0153887D01*
X0139583Y0149687D02*
X0132496Y0149687D01*
X0132496Y0146276D01*
X0130921Y0144701D01*
X0128559Y0144701D01*
X0125275Y0148247D02*
X0124571Y0147543D01*
X0125275Y0148247D02*
X0125275Y0152935D01*
X0125358Y0153573D01*
X0126197Y0154412D01*
X0126197Y0158612D02*
X0124126Y0158612D01*
X0123524Y0159214D01*
X0132496Y0158743D02*
X0132496Y0153887D01*
X0111630Y0160843D02*
X0110055Y0159268D01*
X0104543Y0159268D01*
X0101525Y0159268D01*
X0101394Y0159399D01*
X0104543Y0156512D02*
X0103231Y0155199D01*
X0101394Y0155199D01*
X0120599Y0133060D02*
X0118986Y0131446D01*
X0118717Y0131446D01*
X0118717Y0127246D02*
X0120302Y0125661D01*
X0121079Y0124874D01*
X0121572Y0105107D02*
X0121572Y0104543D01*
X0117798Y0104543D01*
X0117142Y0103887D01*
X0108874Y0103887D02*
X0108218Y0104543D01*
X0105087Y0106512D01*
X0108874Y0099687D02*
X0106840Y0097654D01*
X0105724Y0097654D01*
X0117142Y0098244D02*
X0120291Y0095094D01*
X0117142Y0098244D02*
X0117142Y0099687D01*
X0076984Y0129084D02*
X0076984Y0132102D01*
X0071998Y0125016D02*
X0071998Y0121866D01*
X0070029Y0119898D01*
X0062549Y0125935D02*
X0060449Y0125935D01*
X0062549Y0125935D02*
X0064189Y0127575D01*
X0064189Y0129346D01*
X0060449Y0121735D02*
X0060449Y0118717D01*
X0066157Y0140370D02*
X0066157Y0143585D01*
X0065042Y0144701D01*
X0062024Y0144701D01*
X0068126Y0143585D02*
X0068126Y0140370D01*
X0068126Y0143585D02*
X0069242Y0144701D01*
X0072260Y0144701D01*
X0194307Y0155724D02*
X0203362Y0155724D01*
X0204543Y0154543D01*
X0217142Y0158480D02*
X0219898Y0161236D01*
X0226591Y0161236D01*
X0236827Y0161630D02*
X0248192Y0161630D01*
X0248586Y0161236D01*
X0258480Y0160449D02*
X0270291Y0160449D01*
X0264369Y0195848D02*
X0257981Y0195778D01*
X0257981Y0203357D01*
X0267523Y0203362D01*
X0267523Y0202311D01*
X0267535Y0202298D01*
X0267535Y0199049D01*
X0264369Y0195848D01*
X0264920Y0196404D02*
X0257981Y0196404D01*
X0257981Y0197190D02*
X0265697Y0197190D01*
X0266474Y0197976D02*
X0257981Y0197976D01*
X0257981Y0198762D02*
X0267252Y0198762D01*
X0267535Y0199548D02*
X0257981Y0199548D01*
X0257981Y0200334D02*
X0267535Y0200334D01*
X0267535Y0201120D02*
X0257981Y0201120D01*
X0257981Y0201906D02*
X0267535Y0201906D01*
X0267523Y0202692D02*
X0257981Y0202692D01*
X0255028Y0202692D02*
X0246662Y0202692D01*
X0246662Y0203478D02*
X0249478Y0203478D01*
X0246662Y0203539D02*
X0246662Y0201409D01*
X0246860Y0201409D01*
X0247790Y0200480D01*
X0247790Y0199164D01*
X0246860Y0198235D01*
X0246662Y0198235D01*
X0246662Y0196369D01*
X0249636Y0196369D01*
X0249949Y0196682D01*
X0251264Y0196682D01*
X0251577Y0196369D01*
X0255028Y0196369D01*
X0255028Y0203019D01*
X0254683Y0203365D01*
X0246662Y0203539D01*
X0246662Y0201906D02*
X0255028Y0201906D01*
X0255028Y0201120D02*
X0247150Y0201120D01*
X0247790Y0200334D02*
X0255028Y0200334D01*
X0255028Y0199548D02*
X0247790Y0199548D01*
X0247388Y0198762D02*
X0255028Y0198762D01*
X0255028Y0197976D02*
X0246662Y0197976D01*
X0246662Y0197190D02*
X0255028Y0197190D01*
X0255028Y0196404D02*
X0251541Y0196404D01*
X0249671Y0196404D02*
X0246662Y0196404D01*
X0242725Y0206310D02*
X0242725Y0233869D01*
X0270284Y0233869D01*
X0270284Y0206310D01*
X0242725Y0206310D01*
X0242725Y0206621D02*
X0270284Y0206621D01*
X0270284Y0207407D02*
X0242725Y0207407D01*
X0242725Y0208193D02*
X0270284Y0208193D01*
X0270284Y0208979D02*
X0242725Y0208979D01*
X0242725Y0209765D02*
X0270284Y0209765D01*
X0270284Y0210551D02*
X0242725Y0210551D01*
X0242725Y0211337D02*
X0270284Y0211337D01*
X0270284Y0212123D02*
X0242725Y0212123D01*
X0242725Y0212908D02*
X0270284Y0212908D01*
X0270284Y0213694D02*
X0242725Y0213694D01*
X0242725Y0214480D02*
X0270284Y0214480D01*
X0270284Y0215266D02*
X0242725Y0215266D01*
X0242725Y0216052D02*
X0270284Y0216052D01*
X0270284Y0216838D02*
X0242725Y0216838D01*
X0242725Y0217624D02*
X0270284Y0217624D01*
X0270284Y0218410D02*
X0242725Y0218410D01*
X0242725Y0219196D02*
X0270284Y0219196D01*
X0270284Y0219982D02*
X0242725Y0219982D01*
X0242725Y0220768D02*
X0270284Y0220768D01*
X0270284Y0221554D02*
X0242725Y0221554D01*
X0242725Y0222339D02*
X0270284Y0222339D01*
X0270284Y0223125D02*
X0242725Y0223125D01*
X0242725Y0223911D02*
X0270284Y0223911D01*
X0270284Y0224697D02*
X0242725Y0224697D01*
X0242725Y0225483D02*
X0270284Y0225483D01*
X0270284Y0226269D02*
X0242725Y0226269D01*
X0242725Y0227055D02*
X0270284Y0227055D01*
X0270284Y0227841D02*
X0242725Y0227841D01*
X0242725Y0228627D02*
X0270284Y0228627D01*
X0270284Y0229413D02*
X0242725Y0229413D01*
X0242725Y0230199D02*
X0270284Y0230199D01*
X0270284Y0230984D02*
X0242725Y0230984D01*
X0242725Y0231770D02*
X0270284Y0231770D01*
X0270284Y0232556D02*
X0242725Y0232556D01*
X0242725Y0233342D02*
X0270284Y0233342D01*
X0272260Y0233342D02*
X0276984Y0233342D01*
X0276984Y0232556D02*
X0272260Y0232556D01*
X0272260Y0231770D02*
X0276984Y0231770D01*
X0276984Y0230984D02*
X0272260Y0230984D01*
X0272260Y0230199D02*
X0276984Y0230199D01*
X0276984Y0229413D02*
X0272260Y0229413D01*
X0272260Y0228627D02*
X0276984Y0228627D01*
X0276984Y0227841D02*
X0272260Y0227841D01*
X0272260Y0227055D02*
X0276984Y0227055D01*
X0276984Y0226269D02*
X0272260Y0226269D01*
X0272260Y0225483D02*
X0276984Y0225483D01*
X0276984Y0224697D02*
X0272260Y0224697D01*
X0272260Y0223911D02*
X0276984Y0223911D01*
X0276984Y0223125D02*
X0272260Y0223125D01*
X0272260Y0222339D02*
X0276984Y0222339D01*
X0276984Y0221554D02*
X0272260Y0221554D01*
X0272260Y0221472D02*
X0272260Y0235646D01*
X0260449Y0235646D01*
X0260449Y0245488D01*
X0280528Y0245488D01*
X0280528Y0236039D01*
X0276984Y0236039D01*
X0276984Y0221472D01*
X0272260Y0221472D01*
X0272654Y0218717D02*
X0278546Y0218717D01*
X0278546Y0218453D01*
X0279476Y0217523D01*
X0280791Y0217523D01*
X0281721Y0218453D01*
X0281721Y0218717D01*
X0284071Y0218717D01*
X0284071Y0213992D01*
X0281198Y0213992D01*
X0280791Y0214398D01*
X0279476Y0214398D01*
X0279070Y0213992D01*
X0278953Y0213992D01*
X0277391Y0212430D01*
X0277114Y0212430D01*
X0276184Y0211500D01*
X0276184Y0211224D01*
X0275803Y0210843D01*
X0272654Y0210843D01*
X0272654Y0218717D01*
X0272654Y0218410D02*
X0278589Y0218410D01*
X0279375Y0217624D02*
X0272654Y0217624D01*
X0272654Y0216838D02*
X0284071Y0216838D01*
X0284071Y0216052D02*
X0272654Y0216052D01*
X0272654Y0215266D02*
X0284071Y0215266D01*
X0284071Y0214480D02*
X0272654Y0214480D01*
X0272654Y0213694D02*
X0278655Y0213694D01*
X0277869Y0212908D02*
X0272654Y0212908D01*
X0272654Y0212123D02*
X0276807Y0212123D01*
X0276184Y0211337D02*
X0272654Y0211337D01*
X0280892Y0217624D02*
X0284071Y0217624D01*
X0284071Y0218410D02*
X0281678Y0218410D01*
X0276984Y0234128D02*
X0272260Y0234128D01*
X0272260Y0234914D02*
X0276984Y0234914D01*
X0276984Y0235700D02*
X0260449Y0235700D01*
X0260449Y0236486D02*
X0280528Y0236486D01*
X0280528Y0237272D02*
X0260449Y0237272D01*
X0260449Y0238058D02*
X0280528Y0238058D01*
X0280528Y0238844D02*
X0260449Y0238844D01*
X0260449Y0239630D02*
X0280528Y0239630D01*
X0280528Y0240415D02*
X0260449Y0240415D01*
X0260449Y0241201D02*
X0280528Y0241201D01*
X0280528Y0241987D02*
X0260449Y0241987D01*
X0260449Y0242773D02*
X0280528Y0242773D01*
X0280528Y0243559D02*
X0260449Y0243559D01*
X0260449Y0244345D02*
X0280528Y0244345D01*
X0280528Y0245131D02*
X0260449Y0245131D01*
X0258473Y0245131D02*
X0250599Y0245131D01*
X0250599Y0245917D02*
X0258473Y0245917D01*
X0258473Y0246703D02*
X0250599Y0246703D01*
X0250599Y0247489D02*
X0258473Y0247489D01*
X0258473Y0248275D02*
X0250599Y0248275D01*
X0250599Y0248434D02*
X0247448Y0248436D01*
X0242627Y0248436D01*
X0242627Y0252373D01*
X0258473Y0252373D01*
X0258473Y0235837D01*
X0250599Y0235837D01*
X0250599Y0248434D01*
X0250599Y0244345D02*
X0258473Y0244345D01*
X0258473Y0243559D02*
X0250599Y0243559D01*
X0250599Y0242773D02*
X0258473Y0242773D01*
X0258473Y0241987D02*
X0250599Y0241987D01*
X0250599Y0241201D02*
X0258473Y0241201D01*
X0258473Y0240415D02*
X0250599Y0240415D01*
X0250599Y0239630D02*
X0258473Y0239630D01*
X0258473Y0238844D02*
X0250599Y0238844D01*
X0250599Y0238058D02*
X0258473Y0238058D01*
X0258473Y0237272D02*
X0250599Y0237272D01*
X0250599Y0236486D02*
X0258473Y0236486D01*
X0248638Y0236486D02*
X0235252Y0236486D01*
X0235252Y0236039D02*
X0248638Y0236039D01*
X0248638Y0241551D01*
X0235252Y0241551D01*
X0235252Y0236039D01*
X0235252Y0237272D02*
X0248638Y0237272D01*
X0248638Y0238058D02*
X0235252Y0238058D01*
X0235252Y0238844D02*
X0248638Y0238844D01*
X0248638Y0239630D02*
X0235252Y0239630D01*
X0235252Y0240415D02*
X0248638Y0240415D01*
X0248638Y0241201D02*
X0235252Y0241201D01*
X0233677Y0237614D02*
X0227772Y0237614D01*
X0227772Y0223835D01*
X0231315Y0220291D01*
X0240764Y0220291D01*
X0240764Y0228953D01*
X0234071Y0235252D01*
X0233677Y0235646D01*
X0233677Y0237614D01*
X0233677Y0237272D02*
X0227772Y0237272D01*
X0227772Y0236486D02*
X0233677Y0236486D01*
X0233677Y0235700D02*
X0227772Y0235700D01*
X0227772Y0234914D02*
X0234430Y0234914D01*
X0235265Y0234128D02*
X0227772Y0234128D01*
X0227772Y0233342D02*
X0236100Y0233342D01*
X0236935Y0232556D02*
X0227772Y0232556D01*
X0227772Y0231770D02*
X0237770Y0231770D01*
X0238605Y0230984D02*
X0227772Y0230984D01*
X0227772Y0230199D02*
X0239440Y0230199D01*
X0240275Y0229413D02*
X0227772Y0229413D01*
X0227772Y0228627D02*
X0240764Y0228627D01*
X0240764Y0227841D02*
X0227772Y0227841D01*
X0227772Y0227055D02*
X0240764Y0227055D01*
X0240764Y0226269D02*
X0227772Y0226269D01*
X0227772Y0225483D02*
X0240764Y0225483D01*
X0240764Y0224697D02*
X0227772Y0224697D01*
X0227772Y0223911D02*
X0240764Y0223911D01*
X0240764Y0223125D02*
X0228481Y0223125D01*
X0229267Y0222339D02*
X0240764Y0222339D01*
X0240764Y0221554D02*
X0230053Y0221554D01*
X0230839Y0220768D02*
X0240764Y0220768D01*
X0240764Y0217535D02*
X0240764Y0208874D01*
X0234071Y0202181D01*
X0233677Y0202181D01*
X0233677Y0199952D01*
X0227772Y0199952D01*
X0227772Y0213992D01*
X0231315Y0217535D01*
X0240764Y0217535D01*
X0240764Y0216838D02*
X0230618Y0216838D01*
X0229832Y0216052D02*
X0240764Y0216052D01*
X0240764Y0215266D02*
X0229046Y0215266D01*
X0228260Y0214480D02*
X0240764Y0214480D01*
X0240764Y0213694D02*
X0227772Y0213694D01*
X0227772Y0212908D02*
X0240764Y0212908D01*
X0240764Y0212123D02*
X0227772Y0212123D01*
X0227772Y0211337D02*
X0240764Y0211337D01*
X0240764Y0210551D02*
X0227772Y0210551D01*
X0227772Y0209765D02*
X0240764Y0209765D01*
X0240764Y0208979D02*
X0227772Y0208979D01*
X0227772Y0208193D02*
X0240083Y0208193D01*
X0239297Y0207407D02*
X0227772Y0207407D01*
X0227772Y0206621D02*
X0238511Y0206621D01*
X0237725Y0205835D02*
X0227772Y0205835D01*
X0227772Y0205049D02*
X0236939Y0205049D01*
X0236153Y0204263D02*
X0227772Y0204263D01*
X0227772Y0203478D02*
X0235367Y0203478D01*
X0234581Y0202692D02*
X0227772Y0202692D01*
X0227772Y0201906D02*
X0233677Y0201906D01*
X0233677Y0201120D02*
X0227772Y0201120D01*
X0227772Y0200334D02*
X0233677Y0200334D01*
X0224622Y0210055D02*
X0215961Y0210055D01*
X0215961Y0216748D01*
X0220802Y0216748D01*
X0220815Y0216735D01*
X0222130Y0216735D01*
X0222143Y0216748D01*
X0224622Y0216748D01*
X0224622Y0210055D01*
X0224622Y0210551D02*
X0215961Y0210551D01*
X0215961Y0211337D02*
X0224622Y0211337D01*
X0224622Y0212123D02*
X0215961Y0212123D01*
X0215961Y0212908D02*
X0224622Y0212908D01*
X0224622Y0213694D02*
X0215961Y0213694D01*
X0215961Y0214480D02*
X0224622Y0214480D01*
X0224622Y0215266D02*
X0215961Y0215266D01*
X0215961Y0216052D02*
X0224622Y0216052D01*
X0225016Y0222654D02*
X0221079Y0222654D01*
X0221079Y0226197D01*
X0215961Y0226197D01*
X0215961Y0228953D01*
X0225016Y0228953D01*
X0225016Y0222654D01*
X0225016Y0223125D02*
X0221079Y0223125D01*
X0221079Y0223911D02*
X0225016Y0223911D01*
X0225016Y0224697D02*
X0221079Y0224697D01*
X0221079Y0225483D02*
X0225016Y0225483D01*
X0225016Y0226269D02*
X0215961Y0226269D01*
X0215961Y0227055D02*
X0225016Y0227055D01*
X0225016Y0227841D02*
X0215961Y0227841D01*
X0215961Y0228627D02*
X0225016Y0228627D01*
X0242627Y0249060D02*
X0258473Y0249060D01*
X0258473Y0249846D02*
X0242627Y0249846D01*
X0242627Y0250632D02*
X0258473Y0250632D01*
X0258473Y0251418D02*
X0242627Y0251418D01*
X0242627Y0252204D02*
X0258473Y0252204D01*
X0260822Y0253776D02*
X0285626Y0253776D01*
X0286412Y0252990D02*
X0261608Y0252990D01*
X0262394Y0252204D02*
X0287197Y0252204D01*
X0287983Y0251418D02*
X0263180Y0251418D01*
X0263966Y0250632D02*
X0288769Y0250632D01*
X0289555Y0249846D02*
X0284831Y0249846D01*
X0284071Y0250606D02*
X0291945Y0242732D01*
X0293913Y0244701D01*
X0293913Y0245488D01*
X0280134Y0259268D01*
X0251000Y0259268D01*
X0251000Y0254937D01*
X0259661Y0254937D01*
X0263992Y0250606D01*
X0284071Y0250606D01*
X0285617Y0249060D02*
X0290341Y0249060D01*
X0291127Y0248275D02*
X0286403Y0248275D01*
X0287189Y0247489D02*
X0291913Y0247489D01*
X0292699Y0246703D02*
X0287974Y0246703D01*
X0288760Y0245917D02*
X0293485Y0245917D01*
X0293913Y0245131D02*
X0289546Y0245131D01*
X0290332Y0244345D02*
X0293558Y0244345D01*
X0292772Y0243559D02*
X0291118Y0243559D01*
X0291904Y0242773D02*
X0291986Y0242773D01*
X0284840Y0254562D02*
X0260037Y0254562D01*
X0251000Y0255348D02*
X0284054Y0255348D01*
X0283268Y0256134D02*
X0251000Y0256134D01*
X0251000Y0256920D02*
X0282482Y0256920D01*
X0281696Y0257706D02*
X0251000Y0257706D01*
X0251000Y0258491D02*
X0280910Y0258491D01*
X0256222Y0280127D02*
X0256222Y0295383D01*
X0250808Y0300796D01*
X0265567Y0299819D02*
X0265567Y0294393D01*
X0261143Y0289969D01*
X0281315Y0299425D02*
X0293520Y0299425D01*
X0293520Y0302181D01*
X0288795Y0302181D01*
X0288795Y0307299D01*
X0281315Y0307299D01*
X0281315Y0299425D01*
X0281315Y0300145D02*
X0293520Y0300145D01*
X0293520Y0300931D02*
X0281315Y0300931D01*
X0281315Y0301717D02*
X0293520Y0301717D01*
X0288795Y0302503D02*
X0281315Y0302503D01*
X0281315Y0303288D02*
X0288795Y0303288D01*
X0288795Y0304074D02*
X0281315Y0304074D01*
X0281315Y0304860D02*
X0288795Y0304860D01*
X0288795Y0305646D02*
X0281315Y0305646D01*
X0281315Y0306432D02*
X0288795Y0306432D01*
X0288795Y0307218D02*
X0281315Y0307218D01*
X0337220Y0282102D02*
X0337220Y0270961D01*
X0337233Y0270949D01*
X0337233Y0269634D01*
X0337220Y0269621D01*
X0337220Y0267209D01*
X0338035Y0266394D01*
X0338035Y0264740D01*
X0337220Y0263925D01*
X0337220Y0262024D01*
X0336178Y0262024D01*
X0336178Y0261810D01*
X0335742Y0261374D01*
X0332126Y0261374D01*
X0331690Y0261810D01*
X0331690Y0262024D01*
X0330134Y0262024D01*
X0330134Y0254150D01*
X0341945Y0254150D01*
X0341945Y0282102D01*
X0337220Y0282102D01*
X0337220Y0282069D02*
X0341945Y0282069D01*
X0341945Y0281283D02*
X0337220Y0281283D01*
X0337220Y0280497D02*
X0341945Y0280497D01*
X0341945Y0279711D02*
X0337220Y0279711D01*
X0337220Y0278925D02*
X0341945Y0278925D01*
X0341945Y0278139D02*
X0337220Y0278139D01*
X0337220Y0277353D02*
X0341945Y0277353D01*
X0341945Y0276567D02*
X0337220Y0276567D01*
X0337220Y0275782D02*
X0341945Y0275782D01*
X0341945Y0274996D02*
X0337220Y0274996D01*
X0337220Y0274210D02*
X0341945Y0274210D01*
X0341945Y0273424D02*
X0337220Y0273424D01*
X0337220Y0272638D02*
X0341945Y0272638D01*
X0341945Y0271852D02*
X0337220Y0271852D01*
X0337220Y0271066D02*
X0341945Y0271066D01*
X0341945Y0270280D02*
X0337233Y0270280D01*
X0337220Y0269494D02*
X0341945Y0269494D01*
X0341945Y0268708D02*
X0337220Y0268708D01*
X0337220Y0267922D02*
X0341945Y0267922D01*
X0341945Y0267136D02*
X0337293Y0267136D01*
X0338035Y0266351D02*
X0341945Y0266351D01*
X0341945Y0265565D02*
X0338035Y0265565D01*
X0338035Y0264779D02*
X0341945Y0264779D01*
X0341945Y0263993D02*
X0337288Y0263993D01*
X0337220Y0263207D02*
X0341945Y0263207D01*
X0341945Y0262421D02*
X0337220Y0262421D01*
X0336003Y0261635D02*
X0341945Y0261635D01*
X0341945Y0260849D02*
X0330134Y0260849D01*
X0330134Y0260063D02*
X0341945Y0260063D01*
X0341945Y0259277D02*
X0330134Y0259277D01*
X0330134Y0258491D02*
X0341945Y0258491D01*
X0341945Y0257706D02*
X0330134Y0257706D01*
X0330134Y0256920D02*
X0341945Y0256920D01*
X0341945Y0256134D02*
X0330134Y0256134D01*
X0330134Y0255348D02*
X0341945Y0255348D01*
X0341945Y0254562D02*
X0330134Y0254562D01*
X0330134Y0261635D02*
X0331865Y0261635D01*
X0321079Y0250606D02*
X0321079Y0247194D01*
X0321079Y0242994D02*
X0321079Y0239583D01*
X0321079Y0238402D01*
X0320587Y0237909D01*
X0320587Y0235350D02*
X0323995Y0235350D01*
X0324228Y0235584D01*
X0343618Y0235350D02*
X0343618Y0232791D01*
X0343618Y0230232D01*
X0343618Y0228854D01*
X0344307Y0228165D01*
X0343618Y0235350D02*
X0343618Y0237909D01*
X0343618Y0239681D01*
X0343913Y0239976D01*
X0334996Y0187575D02*
X0334996Y0185508D01*
X0336433Y0184071D01*
X0329996Y0185252D02*
X0326591Y0185252D01*
X0329996Y0185252D02*
X0329996Y0187575D01*
X0323835Y0167457D02*
X0323835Y0157457D01*
X0323835Y0147457D01*
X0323835Y0137457D01*
X0323835Y0127457D01*
X0323835Y0117457D01*
X0323835Y0107457D01*
X0323835Y0097457D01*
X0323835Y0093126D01*
X0321079Y0090370D01*
X0189477Y0247353D02*
X0181603Y0247353D01*
X0181603Y0249841D01*
X0181714Y0249952D01*
X0181714Y0251267D01*
X0181603Y0251378D01*
X0181603Y0253357D01*
X0188576Y0253357D01*
X0189477Y0250487D01*
X0189477Y0247353D01*
X0189477Y0247489D02*
X0181603Y0247489D01*
X0181603Y0248275D02*
X0189477Y0248275D01*
X0189477Y0249060D02*
X0181603Y0249060D01*
X0181609Y0249846D02*
X0189477Y0249846D01*
X0189432Y0250632D02*
X0181714Y0250632D01*
X0181603Y0251418D02*
X0189185Y0251418D01*
X0188938Y0252204D02*
X0181603Y0252204D01*
X0181603Y0252990D02*
X0188691Y0252990D01*
X0193906Y0256310D02*
X0193906Y0283869D01*
X0166347Y0283869D01*
X0166347Y0256310D01*
X0193906Y0256310D01*
X0193906Y0256920D02*
X0166347Y0256920D01*
X0166347Y0257706D02*
X0193906Y0257706D01*
X0193906Y0258491D02*
X0166347Y0258491D01*
X0166347Y0259277D02*
X0193906Y0259277D01*
X0193906Y0260063D02*
X0166347Y0260063D01*
X0166347Y0260849D02*
X0193906Y0260849D01*
X0193906Y0261635D02*
X0166347Y0261635D01*
X0166347Y0262421D02*
X0193906Y0262421D01*
X0193906Y0263207D02*
X0166347Y0263207D01*
X0166347Y0263993D02*
X0193906Y0263993D01*
X0193906Y0264779D02*
X0166347Y0264779D01*
X0166347Y0265565D02*
X0193906Y0265565D01*
X0193906Y0266351D02*
X0166347Y0266351D01*
X0166347Y0267136D02*
X0193906Y0267136D01*
X0193906Y0267922D02*
X0166347Y0267922D01*
X0166347Y0268708D02*
X0193906Y0268708D01*
X0193906Y0269494D02*
X0166347Y0269494D01*
X0166347Y0270280D02*
X0193906Y0270280D01*
X0193906Y0271066D02*
X0166347Y0271066D01*
X0166347Y0271852D02*
X0193906Y0271852D01*
X0193906Y0272638D02*
X0166347Y0272638D01*
X0166347Y0273424D02*
X0193906Y0273424D01*
X0193906Y0274210D02*
X0166347Y0274210D01*
X0166347Y0274996D02*
X0193906Y0274996D01*
X0193906Y0275782D02*
X0166347Y0275782D01*
X0166347Y0276567D02*
X0193906Y0276567D01*
X0193906Y0277353D02*
X0166347Y0277353D01*
X0166347Y0278139D02*
X0193906Y0278139D01*
X0193906Y0278925D02*
X0166347Y0278925D01*
X0166347Y0279711D02*
X0193906Y0279711D01*
X0193906Y0280497D02*
X0166347Y0280497D01*
X0166347Y0281283D02*
X0193906Y0281283D01*
X0193906Y0282069D02*
X0166347Y0282069D01*
X0166347Y0282855D02*
X0193906Y0282855D01*
X0193906Y0283641D02*
X0166347Y0283641D01*
X0165280Y0285837D02*
X0163887Y0288707D01*
X0163887Y0299125D01*
X0170165Y0299125D01*
X0172253Y0297037D01*
X0172253Y0285837D01*
X0165280Y0285837D01*
X0165202Y0285998D02*
X0172253Y0285998D01*
X0172253Y0286784D02*
X0164820Y0286784D01*
X0164438Y0287570D02*
X0172253Y0287570D01*
X0172253Y0288356D02*
X0164057Y0288356D01*
X0163887Y0289142D02*
X0172253Y0289142D01*
X0172253Y0289928D02*
X0163887Y0289928D01*
X0163887Y0290714D02*
X0172253Y0290714D01*
X0172253Y0291500D02*
X0163887Y0291500D01*
X0163887Y0292286D02*
X0172253Y0292286D01*
X0172253Y0293072D02*
X0163887Y0293072D01*
X0163887Y0293858D02*
X0172253Y0293858D01*
X0172253Y0294643D02*
X0163887Y0294643D01*
X0163887Y0295429D02*
X0172253Y0295429D01*
X0172253Y0296215D02*
X0163887Y0296215D01*
X0163887Y0297001D02*
X0172253Y0297001D01*
X0171503Y0297787D02*
X0163887Y0297787D01*
X0163887Y0298573D02*
X0170717Y0298573D01*
X0172511Y0300145D02*
X0182095Y0300145D01*
X0182095Y0300931D02*
X0171725Y0300931D01*
X0171070Y0301585D02*
X0163887Y0301585D01*
X0163887Y0305129D01*
X0182018Y0305129D01*
X0181696Y0304807D01*
X0181696Y0303492D01*
X0182095Y0303093D01*
X0182095Y0285837D01*
X0174221Y0285837D01*
X0174221Y0290874D01*
X0174947Y0291600D01*
X0174947Y0292915D01*
X0174221Y0293642D01*
X0174221Y0298434D01*
X0171070Y0301585D01*
X0173297Y0299359D02*
X0182095Y0299359D01*
X0182095Y0298573D02*
X0174083Y0298573D01*
X0174221Y0297787D02*
X0182095Y0297787D01*
X0182095Y0297001D02*
X0174221Y0297001D01*
X0174221Y0296215D02*
X0182095Y0296215D01*
X0182095Y0295429D02*
X0174221Y0295429D01*
X0174221Y0294643D02*
X0182095Y0294643D01*
X0182095Y0293858D02*
X0174221Y0293858D01*
X0174791Y0293072D02*
X0182095Y0293072D01*
X0182095Y0292286D02*
X0174947Y0292286D01*
X0174847Y0291500D02*
X0182095Y0291500D01*
X0182095Y0290714D02*
X0174221Y0290714D01*
X0174221Y0289928D02*
X0182095Y0289928D01*
X0182095Y0289142D02*
X0174221Y0289142D01*
X0174221Y0288356D02*
X0182095Y0288356D01*
X0182095Y0287570D02*
X0174221Y0287570D01*
X0174221Y0286784D02*
X0182095Y0286784D01*
X0182095Y0285998D02*
X0174221Y0285998D01*
X0184071Y0285998D02*
X0205724Y0285998D01*
X0205724Y0285212D02*
X0195882Y0285212D01*
X0195882Y0285646D02*
X0184071Y0285646D01*
X0184071Y0295488D01*
X0205724Y0295488D01*
X0205724Y0271472D01*
X0195882Y0271472D01*
X0195882Y0285646D01*
X0195882Y0284427D02*
X0205724Y0284427D01*
X0205724Y0283641D02*
X0195882Y0283641D01*
X0195882Y0282855D02*
X0205724Y0282855D01*
X0205724Y0282069D02*
X0195882Y0282069D01*
X0195882Y0281283D02*
X0205724Y0281283D01*
X0205724Y0280497D02*
X0195882Y0280497D01*
X0195882Y0279711D02*
X0205724Y0279711D01*
X0205724Y0278925D02*
X0195882Y0278925D01*
X0195882Y0278139D02*
X0205724Y0278139D01*
X0205724Y0277353D02*
X0195882Y0277353D01*
X0195882Y0276567D02*
X0205724Y0276567D01*
X0205724Y0275782D02*
X0195882Y0275782D01*
X0195882Y0274996D02*
X0205724Y0274996D01*
X0205724Y0274210D02*
X0195882Y0274210D01*
X0195882Y0273424D02*
X0205724Y0273424D01*
X0205724Y0272638D02*
X0195882Y0272638D01*
X0195882Y0271852D02*
X0205724Y0271852D01*
X0204543Y0268717D02*
X0204543Y0260843D01*
X0196276Y0260843D01*
X0196276Y0268717D01*
X0204543Y0268717D01*
X0204543Y0268708D02*
X0196276Y0268708D01*
X0196276Y0267922D02*
X0204543Y0267922D01*
X0204543Y0267136D02*
X0196276Y0267136D01*
X0196276Y0266351D02*
X0204543Y0266351D01*
X0204543Y0265565D02*
X0196276Y0265565D01*
X0196276Y0264779D02*
X0204543Y0264779D01*
X0204543Y0263993D02*
X0196276Y0263993D01*
X0196276Y0263207D02*
X0204543Y0263207D01*
X0204543Y0262421D02*
X0196276Y0262421D01*
X0196276Y0261635D02*
X0204543Y0261635D01*
X0204543Y0260849D02*
X0196276Y0260849D01*
X0178650Y0253357D02*
X0178650Y0251378D01*
X0178539Y0251267D01*
X0178539Y0249952D01*
X0178650Y0249841D01*
X0178650Y0247384D01*
X0175609Y0247384D01*
X0175382Y0247156D01*
X0168316Y0247156D01*
X0168316Y0251964D01*
X0171677Y0253357D01*
X0178650Y0253357D01*
X0178650Y0252990D02*
X0170792Y0252990D01*
X0168895Y0252204D02*
X0178650Y0252204D01*
X0178650Y0251418D02*
X0168316Y0251418D01*
X0168316Y0250632D02*
X0178539Y0250632D01*
X0178645Y0249846D02*
X0168316Y0249846D01*
X0168316Y0249060D02*
X0178650Y0249060D01*
X0178650Y0248275D02*
X0168316Y0248275D01*
X0168316Y0247489D02*
X0178650Y0247489D01*
X0164386Y0258874D02*
X0162359Y0256847D01*
X0162287Y0256918D01*
X0160972Y0256918D01*
X0160043Y0255988D01*
X0160043Y0254673D01*
X0160114Y0254602D01*
X0157693Y0252181D01*
X0157299Y0252181D01*
X0157299Y0249819D01*
X0151394Y0249819D01*
X0151394Y0261354D01*
X0151406Y0261366D01*
X0151406Y0262681D01*
X0151394Y0262694D01*
X0151394Y0263992D01*
X0154937Y0267535D01*
X0164386Y0267535D01*
X0164386Y0258874D01*
X0164386Y0259277D02*
X0151394Y0259277D01*
X0151394Y0258491D02*
X0164003Y0258491D01*
X0163217Y0257706D02*
X0151394Y0257706D01*
X0151394Y0256920D02*
X0162431Y0256920D01*
X0160188Y0256134D02*
X0151394Y0256134D01*
X0151394Y0255348D02*
X0160043Y0255348D01*
X0160074Y0254562D02*
X0151394Y0254562D01*
X0151394Y0253776D02*
X0159288Y0253776D01*
X0158502Y0252990D02*
X0151394Y0252990D01*
X0151394Y0252204D02*
X0157716Y0252204D01*
X0157299Y0251418D02*
X0151394Y0251418D01*
X0151394Y0250632D02*
X0157299Y0250632D01*
X0157299Y0249846D02*
X0151394Y0249846D01*
X0151394Y0260063D02*
X0164386Y0260063D01*
X0164386Y0260849D02*
X0151394Y0260849D01*
X0151406Y0261635D02*
X0164386Y0261635D01*
X0164386Y0262421D02*
X0151406Y0262421D01*
X0151394Y0263207D02*
X0164386Y0263207D01*
X0164386Y0263993D02*
X0151394Y0263993D01*
X0152180Y0264779D02*
X0164386Y0264779D01*
X0164386Y0265565D02*
X0152966Y0265565D01*
X0153752Y0266351D02*
X0164386Y0266351D01*
X0164386Y0267136D02*
X0154538Y0267136D01*
X0154937Y0270291D02*
X0164386Y0270291D01*
X0164386Y0278953D01*
X0157693Y0285252D01*
X0157299Y0285646D01*
X0157299Y0287614D01*
X0151394Y0287614D01*
X0151394Y0273835D01*
X0154937Y0270291D01*
X0154162Y0271066D02*
X0164386Y0271066D01*
X0164386Y0271852D02*
X0153376Y0271852D01*
X0152590Y0272638D02*
X0164386Y0272638D01*
X0164386Y0273424D02*
X0151805Y0273424D01*
X0151394Y0274210D02*
X0164386Y0274210D01*
X0164386Y0274996D02*
X0151394Y0274996D01*
X0151394Y0275782D02*
X0164386Y0275782D01*
X0164386Y0276567D02*
X0151394Y0276567D01*
X0151394Y0277353D02*
X0164386Y0277353D01*
X0164386Y0278139D02*
X0151394Y0278139D01*
X0151394Y0278925D02*
X0164386Y0278925D01*
X0163580Y0279711D02*
X0151394Y0279711D01*
X0151394Y0280497D02*
X0162745Y0280497D01*
X0161910Y0281283D02*
X0151394Y0281283D01*
X0151394Y0282069D02*
X0161075Y0282069D01*
X0160240Y0282855D02*
X0151394Y0282855D01*
X0151394Y0283641D02*
X0159405Y0283641D01*
X0158570Y0284427D02*
X0151394Y0284427D01*
X0151394Y0285212D02*
X0157735Y0285212D01*
X0157299Y0285998D02*
X0151394Y0285998D01*
X0151394Y0286784D02*
X0157299Y0286784D01*
X0157299Y0287570D02*
X0151394Y0287570D01*
X0148638Y0278953D02*
X0143874Y0278953D01*
X0143854Y0278933D01*
X0139583Y0278933D01*
X0139583Y0276197D01*
X0144701Y0276197D01*
X0144701Y0272654D01*
X0148638Y0272654D01*
X0148638Y0278953D01*
X0148638Y0278925D02*
X0139583Y0278925D01*
X0139583Y0278139D02*
X0148638Y0278139D01*
X0148638Y0277353D02*
X0139583Y0277353D01*
X0139583Y0276567D02*
X0148638Y0276567D01*
X0148638Y0275782D02*
X0144701Y0275782D01*
X0144701Y0274996D02*
X0148638Y0274996D01*
X0148638Y0274210D02*
X0144701Y0274210D01*
X0144701Y0273424D02*
X0148638Y0273424D01*
X0148244Y0266748D02*
X0139583Y0266748D01*
X0139583Y0260055D01*
X0148244Y0260055D01*
X0148244Y0261354D01*
X0148231Y0261366D01*
X0148231Y0262681D01*
X0148244Y0262694D01*
X0148244Y0266748D01*
X0148244Y0266351D02*
X0139583Y0266351D01*
X0139583Y0265565D02*
X0148244Y0265565D01*
X0148244Y0264779D02*
X0139583Y0264779D01*
X0139583Y0263993D02*
X0148244Y0263993D01*
X0148244Y0263207D02*
X0139583Y0263207D01*
X0139583Y0262421D02*
X0148231Y0262421D01*
X0148231Y0261635D02*
X0139583Y0261635D01*
X0139583Y0260849D02*
X0148244Y0260849D01*
X0148244Y0260063D02*
X0139583Y0260063D01*
X0184071Y0286784D02*
X0205724Y0286784D01*
X0205724Y0287570D02*
X0184071Y0287570D01*
X0184071Y0288356D02*
X0205724Y0288356D01*
X0205724Y0289142D02*
X0184071Y0289142D01*
X0184071Y0289928D02*
X0205724Y0289928D01*
X0205724Y0290714D02*
X0184071Y0290714D01*
X0184071Y0291500D02*
X0205724Y0291500D01*
X0205724Y0292286D02*
X0184071Y0292286D01*
X0184071Y0293072D02*
X0205724Y0293072D01*
X0205724Y0293858D02*
X0184071Y0293858D01*
X0184071Y0294643D02*
X0205724Y0294643D01*
X0205724Y0295429D02*
X0184071Y0295429D01*
X0182095Y0301717D02*
X0163887Y0301717D01*
X0163887Y0302503D02*
X0182095Y0302503D01*
X0181900Y0303288D02*
X0163887Y0303288D01*
X0163887Y0304074D02*
X0181696Y0304074D01*
X0181749Y0304860D02*
X0163887Y0304860D01*
X0071472Y0275606D02*
X0071472Y0274031D01*
X0071276Y0273835D01*
X0069504Y0273835D01*
X0069110Y0273441D01*
X0069110Y0270685D01*
X0069701Y0270094D01*
X0071472Y0270094D01*
X0071472Y0275606D02*
X0070783Y0276295D01*
X0070587Y0276295D01*
X0067535Y0279346D01*
X0070488Y0276591D02*
X0070783Y0276295D01*
X0068717Y0259661D02*
X0068717Y0258677D01*
X0070488Y0256906D01*
X0071472Y0255921D01*
X0071472Y0254346D01*
X0069701Y0254346D01*
X0069110Y0253756D01*
X0069110Y0251000D01*
X0069701Y0250409D01*
X0071472Y0250409D01*
D42*
X0098638Y0220685D03*
X0112417Y0207693D03*
X0112417Y0199819D03*
X0110449Y0194307D03*
X0127772Y0192150D03*
X0133283Y0198638D03*
X0150606Y0184071D03*
X0147063Y0180528D03*
X0151787Y0174622D03*
X0154543Y0188008D03*
X0160449Y0191945D03*
X0168717Y0191157D03*
X0178559Y0185646D03*
X0184071Y0174622D03*
X0191157Y0171866D03*
X0179346Y0161236D03*
X0182890Y0155724D03*
X0166354Y0154150D03*
X0161236Y0157299D03*
X0167142Y0142732D03*
X0170685Y0141945D03*
X0174622Y0141551D03*
X0167929Y0128362D03*
X0178953Y0120685D03*
X0171276Y0116748D03*
X0167929Y0111236D03*
X0178559Y0108874D03*
X0174622Y0096276D03*
X0167142Y0093194D03*
X0167142Y0082890D03*
X0170685Y0082496D03*
X0171472Y0078559D03*
X0181315Y0064780D03*
X0191551Y0065961D03*
X0204543Y0072654D03*
X0214386Y0074228D03*
X0217535Y0088402D03*
X0213992Y0088795D03*
X0209661Y0088795D03*
X0217142Y0092732D03*
X0217142Y0095882D03*
X0206118Y0116748D03*
X0208087Y0122260D03*
X0206512Y0127378D03*
X0191945Y0122260D03*
X0195094Y0114386D03*
X0180528Y0093913D03*
X0148835Y0096472D03*
X0149425Y0104937D03*
X0145488Y0108480D03*
X0134858Y0106906D03*
X0151000Y0125803D03*
X0134987Y0130528D03*
X0194931Y0199656D03*
X0200606Y0205331D03*
X0206906Y0204937D03*
X0209268Y0209268D03*
X0210055Y0217535D03*
X0222260Y0204543D03*
X0192732Y0211630D03*
X0192732Y0221866D03*
X0166400Y0208874D03*
X0153362Y0221866D03*
X0140370Y0221866D03*
X0137057Y0215010D03*
X0150370Y0246866D03*
X0145016Y0250055D03*
X0146669Y0254937D03*
X0145094Y0283283D03*
X0178165Y0312811D03*
X0213205Y0290370D03*
X0280724Y0296076D03*
X0283677Y0292732D03*
X0299031Y0282890D03*
X0303756Y0282890D03*
X0311236Y0280134D03*
X0316354Y0280921D03*
X0321079Y0283677D03*
X0321079Y0286827D03*
X0321866Y0275803D03*
X0326197Y0270685D03*
X0331669Y0270094D03*
X0332102Y0275409D03*
X0336039Y0265567D03*
X0330921Y0261236D03*
X0326197Y0260449D03*
X0321472Y0260449D03*
X0330921Y0255331D03*
X0336039Y0251000D03*
X0321079Y0250606D03*
X0315961Y0270291D03*
X0306906Y0275409D03*
X0341945Y0295488D03*
X0222654Y0233677D03*
X0274228Y0095094D03*
X0274228Y0090764D03*
X0274228Y0086039D03*
X0278953Y0086039D03*
X0283283Y0086039D03*
X0181709Y0052575D03*
D43*
X0188927Y0065567D02*
X0189320Y0065567D01*
X0189714Y0065961D01*
X0172884Y0084302D02*
X0170685Y0082496D01*
X0168717Y0084071D02*
X0168486Y0084302D01*
X0167929Y0084302D01*
X0167535Y0083908D01*
X0167142Y0082890D01*
X0167929Y0084302D02*
X0162024Y0084302D01*
X0168717Y0084071D02*
X0168717Y0085908D01*
X0172884Y0084302D02*
X0175409Y0084302D01*
X0174459Y0084302D01*
X0174459Y0083908D01*
X0168717Y0090108D02*
X0168717Y0091619D01*
X0167142Y0093194D01*
X0162716Y0093194D01*
X0162024Y0092502D01*
X0174622Y0093289D02*
X0175409Y0092502D01*
X0174622Y0093289D02*
X0174622Y0096276D01*
X0173179Y0101000D02*
X0173441Y0101262D01*
X0178559Y0101262D01*
X0180528Y0099294D01*
X0180528Y0093913D01*
X0178559Y0105462D02*
X0178559Y0108874D01*
X0171079Y0107492D02*
X0167929Y0110642D01*
X0167929Y0111236D01*
X0169894Y0108677D02*
X0163402Y0108677D01*
X0158480Y0106118D02*
X0158480Y0129346D01*
X0143913Y0143913D01*
X0143913Y0181709D01*
X0154937Y0192732D01*
X0159661Y0192732D01*
X0160449Y0191945D01*
X0162024Y0191945D01*
X0163061Y0190907D01*
X0157156Y0185789D02*
X0156118Y0186827D01*
X0154543Y0188008D01*
X0150606Y0184071D02*
X0150606Y0178749D01*
X0150213Y0178355D01*
X0127772Y0192150D02*
X0127772Y0196669D01*
X0139976Y0208874D01*
X0166400Y0208874D01*
X0192732Y0211630D02*
X0192732Y0214648D01*
X0192732Y0218848D02*
X0192732Y0221866D01*
X0201656Y0209268D02*
X0200606Y0208218D01*
X0200606Y0205331D01*
X0206906Y0204937D02*
X0208250Y0203593D01*
X0208250Y0199819D01*
X0200050Y0199819D02*
X0199886Y0199656D01*
X0194931Y0199656D01*
X0205856Y0209268D02*
X0209268Y0209268D01*
X0217728Y0204543D02*
X0222260Y0204543D01*
X0222654Y0233677D02*
X0217728Y0233677D01*
X0178559Y0185646D02*
X0172260Y0179346D01*
X0171472Y0179740D01*
X0188545Y0169253D02*
X0188545Y0168860D01*
X0188545Y0169253D02*
X0191157Y0171866D01*
X0182747Y0163061D02*
X0181172Y0163061D01*
X0179346Y0161236D01*
X0178739Y0161236D01*
X0176680Y0159178D01*
X0179650Y0156208D02*
X0182406Y0156208D01*
X0182890Y0155724D01*
X0181709Y0158266D02*
X0181709Y0158874D01*
X0181709Y0158266D02*
X0179650Y0156208D01*
X0166354Y0154150D02*
X0166354Y0152181D01*
X0161006Y0152181D01*
X0160843Y0152344D01*
X0161236Y0157299D02*
X0161880Y0161487D01*
X0166354Y0152181D02*
X0166354Y0151131D01*
X0167142Y0150344D01*
X0167142Y0146144D02*
X0167142Y0144307D01*
X0166979Y0144144D01*
X0160843Y0144144D01*
X0167142Y0144307D02*
X0167142Y0142732D01*
X0170685Y0141945D02*
X0166191Y0137451D01*
X0166191Y0136433D01*
X0174391Y0136433D02*
X0174391Y0141320D01*
X0174622Y0141551D01*
X0191945Y0122260D02*
X0196113Y0122260D01*
X0196276Y0115567D02*
X0196276Y0109105D01*
X0196506Y0108874D01*
X0195094Y0114386D02*
X0196276Y0115567D01*
X0198506Y0115567D01*
X0202706Y0115567D02*
X0204937Y0115567D01*
X0204937Y0109105D01*
X0204706Y0108874D01*
X0204937Y0115567D02*
X0206118Y0116748D01*
X0204313Y0122260D02*
X0208087Y0122260D01*
X0171079Y0120492D02*
X0171079Y0116945D01*
X0171276Y0116748D01*
X0169894Y0108677D02*
X0171079Y0107492D01*
X0168782Y0101197D02*
X0163402Y0101197D01*
X0158480Y0106118D01*
X0152772Y0104937D02*
X0149425Y0104937D01*
X0145094Y0103199D02*
X0145094Y0108874D01*
X0145488Y0108480D01*
X0145094Y0108874D02*
X0142076Y0108874D01*
X0137876Y0108874D02*
X0136827Y0108874D01*
X0134858Y0106906D01*
X0134858Y0103199D01*
X0135876Y0102181D01*
X0144076Y0102181D02*
X0145094Y0103199D01*
X0168782Y0101197D02*
X0168979Y0101000D01*
X0143913Y0126591D02*
X0145488Y0128165D01*
X0145488Y0132659D01*
X0144470Y0134465D01*
X0143913Y0126591D02*
X0142470Y0126591D01*
X0138270Y0126591D02*
X0138137Y0126591D01*
X0134987Y0130528D01*
X0134987Y0133182D01*
X0136270Y0134465D01*
X0222507Y0060696D02*
X0222507Y0058596D01*
X0222000Y0058089D01*
X0139976Y0213861D02*
X0138206Y0213861D01*
X0137057Y0215010D01*
X0139976Y0218061D02*
X0140370Y0218454D01*
X0140370Y0221866D01*
X0143546Y0246984D02*
X0145016Y0248454D01*
X0145016Y0250055D01*
X0147378Y0246866D02*
X0150370Y0246866D01*
X0147746Y0246984D02*
X0147378Y0246866D01*
X0146669Y0254937D02*
X0139665Y0254937D01*
X0139572Y0255030D01*
X0141240Y0283283D02*
X0145094Y0283283D01*
X0141240Y0283283D02*
X0141146Y0283377D01*
X0175803Y0308480D02*
X0175896Y0308388D01*
X0178065Y0308388D01*
X0178065Y0312711D01*
X0178165Y0312811D01*
X0209624Y0290392D02*
X0213183Y0290392D01*
X0213205Y0290370D01*
X0283677Y0292732D02*
X0283677Y0294538D01*
X0284920Y0295781D01*
X0285252Y0296113D01*
X0299031Y0282890D02*
X0299031Y0279872D01*
X0303756Y0279872D01*
X0303756Y0282890D01*
X0311236Y0280134D02*
X0311236Y0275016D01*
X0306906Y0275409D01*
X0303756Y0275672D02*
X0299031Y0275672D01*
X0311236Y0275016D02*
X0311236Y0274438D01*
X0313992Y0274634D02*
X0315961Y0274622D01*
X0315961Y0275409D01*
X0315961Y0274622D02*
X0315961Y0270291D01*
X0323047Y0267535D02*
X0326197Y0270685D01*
X0324884Y0272391D01*
X0324884Y0273047D01*
X0324884Y0278165D01*
X0321866Y0275803D01*
X0329084Y0275409D02*
X0329084Y0278165D01*
X0329084Y0275409D02*
X0332102Y0275409D01*
X0329084Y0275409D02*
X0329084Y0273047D01*
X0326197Y0266748D02*
X0326197Y0260449D01*
X0321472Y0260449D02*
X0321472Y0264374D01*
X0323047Y0265949D01*
X0323047Y0267535D01*
X0333934Y0263468D02*
X0336033Y0265567D01*
X0336039Y0265567D01*
X0333934Y0259268D02*
X0338932Y0255724D01*
X0338932Y0251524D02*
X0338408Y0251000D01*
X0336039Y0251000D01*
X0323047Y0254949D02*
X0321079Y0252980D01*
X0321079Y0250606D01*
X0316354Y0280921D02*
X0316354Y0285252D01*
X0317929Y0283677D01*
X0321079Y0283677D01*
X0321079Y0286827D02*
X0315185Y0286827D01*
X0313992Y0285634D01*
X0314374Y0285252D01*
X0316354Y0285252D01*
X0341551Y0290358D02*
X0341945Y0290752D01*
X0341945Y0295488D01*
D44*
X0294268Y0305127D02*
X0294209Y0305069D01*
X0291551Y0305069D01*
X0291654Y0305171D01*
X0284624Y0296076D02*
X0280724Y0296076D01*
X0284624Y0296076D02*
X0284920Y0295781D01*
X0168860Y0191014D02*
X0168717Y0191157D01*
X0168860Y0191014D02*
X0168860Y0188008D01*
X0180831Y0177682D02*
X0183891Y0174622D01*
X0184071Y0174622D01*
X0154937Y0173298D02*
X0153112Y0173298D01*
X0151787Y0174622D01*
X0121866Y0193520D02*
X0120423Y0193520D01*
X0118717Y0191813D01*
X0117010Y0194307D02*
X0118717Y0196013D01*
X0117010Y0194307D02*
X0115567Y0194307D01*
X0204543Y0072654D02*
X0206380Y0072654D01*
X0206774Y0072654D02*
X0206774Y0068323D01*
X0210974Y0068323D02*
X0210974Y0072654D01*
X0212811Y0072654D01*
X0214386Y0074228D01*
X0222507Y0060696D02*
X0222785Y0060418D01*
X0221998Y0058087D01*
X0226197Y0058087D01*
X0217798Y0058087D02*
X0215567Y0058087D01*
X0191551Y0065961D02*
X0189714Y0065961D01*
X0188927Y0065567D02*
X0188927Y0060843D01*
X0184727Y0060843D02*
X0184727Y0065567D01*
X0183939Y0064780D01*
X0181315Y0064780D01*
X0245094Y0059071D02*
X0250278Y0059071D01*
X0250606Y0059399D02*
X0253218Y0059399D01*
X0253362Y0059255D01*
X0249372Y0055199D02*
X0248244Y0056328D01*
X0250541Y0055134D02*
X0245094Y0055134D01*
D45*
X0245094Y0061039D02*
X0245094Y0063008D01*
X0247063Y0063008D01*
X0257496Y0073441D01*
X0308874Y0073441D01*
X0316551Y0081118D01*
X0316551Y0110646D01*
X0317142Y0111236D01*
X0312024Y0111236D02*
X0310449Y0109661D01*
X0310449Y0101364D01*
X0310639Y0101174D01*
X0310639Y0100038D01*
X0310449Y0099849D01*
X0310449Y0078953D01*
X0306118Y0074622D01*
X0254937Y0074622D01*
X0247260Y0066945D01*
X0245094Y0066945D01*
X0245094Y0064976D01*
X0242535Y0069504D02*
X0242535Y0072850D01*
X0242535Y0072837D02*
X0242535Y0069504D01*
X0240567Y0069504D02*
X0240567Y0072999D01*
X0240336Y0073556D02*
X0240016Y0073955D01*
X0240336Y0073555D02*
X0240372Y0073518D01*
X0240404Y0073478D01*
X0240434Y0073436D01*
X0240462Y0073392D01*
X0240486Y0073347D01*
X0240507Y0073300D01*
X0240525Y0073252D01*
X0240540Y0073203D01*
X0240552Y0073153D01*
X0240560Y0073102D01*
X0240565Y0073050D01*
X0240567Y0072999D01*
X0242304Y0073393D02*
X0242340Y0073356D01*
X0242372Y0073316D01*
X0242402Y0073274D01*
X0242430Y0073230D01*
X0242454Y0073185D01*
X0242475Y0073138D01*
X0242493Y0073090D01*
X0242508Y0073041D01*
X0242520Y0072991D01*
X0242528Y0072940D01*
X0242533Y0072888D01*
X0242535Y0072837D01*
X0242305Y0073393D02*
X0241945Y0073753D01*
X0238598Y0072131D02*
X0238598Y0069504D01*
X0236630Y0069504D02*
X0236630Y0072131D01*
X0236399Y0072687D02*
X0235252Y0073835D01*
X0233240Y0072586D02*
X0233242Y0072535D01*
X0233247Y0072483D01*
X0233255Y0072432D01*
X0233267Y0072382D01*
X0233282Y0072333D01*
X0233300Y0072285D01*
X0233321Y0072238D01*
X0233345Y0072193D01*
X0233373Y0072149D01*
X0233403Y0072107D01*
X0233435Y0072067D01*
X0233471Y0072030D01*
X0233470Y0072029D02*
X0234661Y0070838D01*
X0234661Y0069504D01*
X0232693Y0069504D02*
X0232540Y0069701D01*
X0232540Y0071927D01*
X0232301Y0072492D02*
X0230959Y0073835D01*
X0230921Y0073835D01*
X0228559Y0072783D02*
X0228561Y0072732D01*
X0228566Y0072680D01*
X0228574Y0072629D01*
X0228586Y0072579D01*
X0228601Y0072530D01*
X0228619Y0072482D01*
X0228640Y0072435D01*
X0228664Y0072390D01*
X0228692Y0072346D01*
X0228722Y0072304D01*
X0228754Y0072264D01*
X0228790Y0072227D01*
X0228790Y0072226D02*
X0230724Y0070291D01*
X0230724Y0069504D01*
X0228756Y0069504D02*
X0228756Y0070882D01*
X0226197Y0073441D01*
X0226197Y0073835D01*
X0226227Y0075803D02*
X0303362Y0075803D01*
X0307897Y0080338D01*
X0307897Y0104951D01*
X0308276Y0105331D01*
X0308276Y0106686D01*
X0308087Y0106876D01*
X0308087Y0112417D01*
X0312024Y0116354D01*
X0304543Y0108480D02*
X0304543Y0079346D01*
X0302181Y0076984D01*
X0225803Y0076984D01*
X0222260Y0073441D01*
X0222260Y0065173D01*
X0224425Y0063008D01*
X0226197Y0063008D01*
X0226197Y0061039D01*
X0226197Y0064976D02*
X0226197Y0066945D01*
X0224819Y0066945D01*
X0223638Y0068126D01*
X0223638Y0073214D01*
X0226227Y0075803D01*
X0225016Y0078165D02*
X0294701Y0078165D01*
X0299425Y0082890D01*
X0299425Y0113598D01*
X0301787Y0115961D01*
X0302181Y0110843D02*
X0304543Y0108480D01*
X0296669Y0121472D02*
X0287024Y0111827D01*
X0287024Y0085055D01*
X0281315Y0079346D01*
X0193126Y0079345D01*
X0180529Y0066748D01*
X0121079Y0066748D01*
X0098638Y0089189D01*
X0098638Y0113598D01*
X0104028Y0118989D01*
X0111873Y0118989D01*
X0113273Y0120390D01*
X0113273Y0121147D01*
X0115554Y0121153D02*
X0115554Y0120279D01*
X0111236Y0115961D01*
X0103362Y0115961D01*
X0099819Y0112417D01*
X0099819Y0089583D01*
X0121472Y0067929D01*
X0180134Y0067929D01*
X0192732Y0080528D01*
X0277772Y0080528D01*
X0280921Y0083677D01*
X0280921Y0098671D01*
X0281896Y0099646D01*
X0281896Y0111030D01*
X0295488Y0124622D01*
X0305724Y0124622D01*
X0307299Y0126197D01*
X0302181Y0126591D02*
X0293126Y0126591D01*
X0276984Y0110449D01*
X0276984Y0085252D01*
X0273441Y0081709D01*
X0192339Y0081709D01*
X0179740Y0069110D01*
X0121866Y0069110D01*
X0101000Y0089976D01*
X0101000Y0110843D01*
X0104150Y0113992D01*
X0115173Y0113992D01*
X0112221Y0110813D02*
X0110223Y0112811D01*
X0104937Y0112811D01*
X0102575Y0110449D01*
X0102575Y0089976D01*
X0122260Y0070291D01*
X0178195Y0070291D01*
X0178213Y0070273D01*
X0179349Y0070273D01*
X0180152Y0071076D01*
X0180152Y0071097D01*
X0191945Y0082890D01*
X0262811Y0082890D01*
X0271472Y0091551D01*
X0271472Y0111236D01*
X0291945Y0131709D01*
X0311630Y0131709D01*
X0314983Y0135442D02*
X0316748Y0133677D01*
X0321472Y0133677D01*
X0316748Y0137220D02*
X0286039Y0137220D01*
X0260055Y0111236D01*
X0260055Y0089976D01*
X0255143Y0085064D01*
X0185252Y0085064D01*
X0179348Y0079160D01*
X0176777Y0079160D01*
X0173223Y0075606D01*
X0173047Y0075606D01*
X0120488Y0075213D01*
X0116354Y0079346D01*
X0116354Y0093126D01*
X0115327Y0094154D01*
X0113992Y0093126D02*
X0113992Y0080134D01*
X0119898Y0074228D01*
X0176570Y0074228D01*
X0176588Y0074247D01*
X0179365Y0074247D01*
X0189189Y0084071D01*
X0259661Y0084071D01*
X0265961Y0090370D01*
X0265961Y0112024D01*
X0289379Y0135442D01*
X0314983Y0135442D01*
X0330528Y0131709D02*
X0332874Y0129362D01*
X0332874Y0116764D01*
X0342181Y0107457D01*
X0345094Y0107457D01*
X0345094Y0117457D02*
X0343205Y0117457D01*
X0334858Y0125803D01*
X0334858Y0140764D01*
X0331315Y0144307D01*
X0331315Y0147457D02*
X0336433Y0142339D01*
X0336433Y0134858D01*
X0343835Y0127457D01*
X0345094Y0127457D01*
X0345094Y0137457D02*
X0344465Y0137457D01*
X0331315Y0150606D01*
X0326984Y0150606D01*
X0325803Y0151787D01*
X0331315Y0152969D02*
X0339583Y0152969D01*
X0345094Y0147457D01*
X0345094Y0157457D02*
X0335803Y0166748D01*
X0330921Y0166748D01*
X0331315Y0173047D02*
X0339504Y0173047D01*
X0345094Y0167457D01*
X0316748Y0166748D02*
X0315173Y0168323D01*
X0315173Y0179740D01*
X0310259Y0184654D01*
X0204036Y0184654D01*
X0182102Y0206587D01*
X0146351Y0206587D01*
X0129740Y0189976D01*
X0120475Y0189976D01*
X0120435Y0189936D01*
X0116998Y0189936D01*
X0116958Y0189976D01*
X0108087Y0189976D01*
X0083283Y0165173D01*
X0083283Y0147850D01*
X0089976Y0141157D01*
X0113205Y0141157D01*
X0115567Y0141157D02*
X0115567Y0141551D01*
X0112417Y0144701D01*
X0088008Y0144701D01*
X0084465Y0148244D01*
X0084465Y0164780D01*
X0108480Y0188795D01*
X0130134Y0188795D01*
X0146866Y0205528D01*
X0181118Y0205528D01*
X0204937Y0181709D01*
X0306906Y0181709D01*
X0313205Y0175409D01*
X0313205Y0165567D01*
X0312417Y0164780D01*
X0306906Y0174622D02*
X0304543Y0176984D01*
X0205724Y0176984D01*
X0179543Y0203165D01*
X0147654Y0203165D01*
X0130921Y0186433D01*
X0109268Y0186433D01*
X0086827Y0163992D01*
X0086827Y0149031D01*
X0088727Y0147132D01*
X0111955Y0147132D01*
X0113530Y0148706D01*
X0116354Y0148638D02*
X0113598Y0145882D01*
X0088402Y0145882D01*
X0085646Y0148638D01*
X0085646Y0164386D01*
X0108874Y0187614D01*
X0130528Y0187614D01*
X0147260Y0204346D01*
X0180331Y0204346D01*
X0204150Y0180528D01*
X0300606Y0180528D01*
X0301787Y0179346D01*
X0300213Y0175803D02*
X0204937Y0175803D01*
X0178756Y0201984D01*
X0148047Y0201984D01*
X0131315Y0185252D01*
X0115173Y0185252D01*
X0104937Y0175016D01*
X0104937Y0172469D01*
X0112811Y0164595D01*
X0115567Y0168717D02*
X0109858Y0174425D01*
X0109858Y0176787D01*
X0116354Y0183283D01*
X0132496Y0183283D01*
X0148835Y0199622D01*
X0177181Y0199622D01*
X0203756Y0173047D01*
X0282496Y0173047D01*
X0284465Y0171079D01*
X0294701Y0171079D01*
X0296669Y0169110D01*
X0301787Y0174228D02*
X0300213Y0175803D01*
X0275147Y0191945D02*
X0275147Y0196171D01*
X0275252Y0196276D01*
X0277457Y0196276D01*
X0275252Y0196276D02*
X0275147Y0196276D01*
X0270947Y0196276D02*
X0268323Y0196276D01*
X0267929Y0196669D01*
X0267142Y0194701D02*
X0269898Y0191945D01*
X0270947Y0191945D01*
X0263198Y0197747D02*
X0260843Y0195392D01*
X0260843Y0193126D01*
X0256189Y0195953D02*
X0253362Y0193126D01*
X0240843Y0193126D01*
X0234202Y0193126D01*
X0230002Y0193126D02*
X0230002Y0195226D01*
X0228559Y0196669D01*
X0227801Y0197850D02*
X0213992Y0197850D01*
X0212024Y0199819D01*
X0212024Y0218323D01*
X0205921Y0224425D01*
X0128756Y0224425D01*
X0110449Y0242732D01*
X0096276Y0242732D01*
X0094248Y0240705D01*
X0088540Y0240705D01*
X0086512Y0242732D01*
X0085908Y0242732D01*
X0080659Y0242732D01*
X0076459Y0242732D02*
X0073989Y0245202D01*
X0071652Y0245202D01*
X0070972Y0245882D01*
X0070488Y0245882D01*
X0071472Y0248441D02*
X0075869Y0248441D01*
X0075915Y0248439D01*
X0075961Y0248434D01*
X0076007Y0248425D01*
X0076052Y0248412D01*
X0076095Y0248396D01*
X0076137Y0248377D01*
X0076178Y0248354D01*
X0076216Y0248328D01*
X0076253Y0248299D01*
X0076287Y0248268D01*
X0076318Y0248234D01*
X0076347Y0248197D01*
X0076373Y0248159D01*
X0076396Y0248118D01*
X0076415Y0248076D01*
X0076431Y0248033D01*
X0076444Y0247988D01*
X0076453Y0247942D01*
X0076458Y0247896D01*
X0076460Y0247850D01*
X0080659Y0247850D02*
X0085908Y0247850D01*
X0085908Y0248113D01*
X0088402Y0250606D01*
X0093126Y0250606D01*
X0095882Y0247850D01*
X0110843Y0247850D01*
X0133087Y0225606D01*
X0206315Y0225606D01*
X0213205Y0218717D01*
X0213205Y0201000D01*
X0215173Y0199031D01*
X0235456Y0199031D01*
X0236039Y0199615D01*
X0236827Y0197850D02*
X0229317Y0197850D01*
X0229127Y0198040D01*
X0227991Y0198040D01*
X0227801Y0197850D01*
X0236827Y0197850D02*
X0238795Y0199819D01*
X0256189Y0195953D02*
X0256189Y0204103D01*
X0214780Y0218717D02*
X0206512Y0226984D01*
X0136463Y0226984D01*
X0134494Y0228953D01*
X0134465Y0228953D01*
X0110843Y0252575D01*
X0081053Y0252575D01*
X0080659Y0252969D01*
X0076460Y0252969D02*
X0076458Y0252923D01*
X0076453Y0252877D01*
X0076444Y0252831D01*
X0076431Y0252786D01*
X0076415Y0252743D01*
X0076396Y0252701D01*
X0076373Y0252660D01*
X0076347Y0252622D01*
X0076318Y0252585D01*
X0076287Y0252551D01*
X0076253Y0252520D01*
X0076216Y0252491D01*
X0076178Y0252465D01*
X0076137Y0252442D01*
X0076095Y0252423D01*
X0076052Y0252407D01*
X0076007Y0252394D01*
X0075961Y0252385D01*
X0075915Y0252380D01*
X0075869Y0252378D01*
X0071472Y0252378D01*
X0080659Y0262811D02*
X0082759Y0260711D01*
X0085776Y0260711D01*
X0085908Y0260580D01*
X0086039Y0260711D01*
X0107037Y0260711D01*
X0130161Y0237587D01*
X0161630Y0237587D01*
X0162201Y0237017D01*
X0210245Y0237017D01*
X0212417Y0239189D01*
X0210449Y0240764D02*
X0207693Y0238008D01*
X0163148Y0238008D01*
X0161967Y0239189D01*
X0160055Y0239189D01*
X0132857Y0239189D01*
X0104117Y0267929D01*
X0095488Y0267929D01*
X0093067Y0265508D01*
X0088329Y0265508D01*
X0085908Y0267929D01*
X0080659Y0267929D01*
X0076459Y0267929D02*
X0076262Y0268126D01*
X0071472Y0268126D01*
X0070972Y0265567D02*
X0070488Y0265567D01*
X0070972Y0265567D02*
X0071652Y0264887D01*
X0074383Y0264887D01*
X0076459Y0262811D01*
X0080659Y0262811D02*
X0080790Y0262811D01*
X0085908Y0260580D02*
X0085908Y0257693D01*
X0090108Y0257693D02*
X0091683Y0259268D01*
X0093913Y0259268D01*
X0090108Y0262943D02*
X0090370Y0263205D01*
X0090108Y0267929D02*
X0090108Y0270029D01*
X0090370Y0270291D01*
X0080659Y0273047D02*
X0101787Y0273047D01*
X0130528Y0244307D01*
X0163795Y0244307D01*
X0169110Y0238992D01*
X0205921Y0238992D01*
X0209268Y0242339D01*
X0197588Y0241945D02*
X0197457Y0242076D01*
X0197457Y0245094D01*
X0193388Y0241945D02*
X0191289Y0239845D01*
X0177037Y0239845D01*
X0174937Y0241945D01*
X0174937Y0245409D01*
X0175991Y0246463D01*
X0179140Y0246463D01*
X0180127Y0247450D01*
X0180127Y0250609D01*
X0179346Y0244701D02*
X0179740Y0244307D01*
X0186039Y0244307D01*
X0188139Y0242207D01*
X0188402Y0242207D01*
X0183283Y0242207D02*
X0179478Y0242207D01*
X0176984Y0244701D01*
X0174937Y0241945D02*
X0173362Y0241551D01*
X0198900Y0217142D02*
X0201000Y0219242D01*
X0198900Y0217142D02*
X0197850Y0217142D01*
X0201000Y0215042D02*
X0206512Y0215042D01*
X0208218Y0215042D01*
X0209268Y0213992D01*
X0205856Y0219242D02*
X0203756Y0217142D01*
X0205856Y0219242D02*
X0206512Y0219242D01*
X0244701Y0239189D02*
X0247267Y0241755D01*
X0248557Y0241755D01*
X0239189Y0275409D02*
X0239189Y0276591D01*
X0241157Y0278559D01*
X0241551Y0298638D02*
X0241551Y0301394D01*
X0242339Y0302181D01*
X0288402Y0272260D02*
X0288443Y0272260D01*
X0290621Y0274438D01*
X0303756Y0275672D02*
X0306643Y0275672D01*
X0306906Y0275409D01*
X0323047Y0291157D02*
X0323047Y0293913D01*
X0323047Y0291157D02*
X0326197Y0291157D01*
X0334858Y0306118D02*
X0341551Y0306118D01*
X0332102Y0247194D02*
X0326591Y0247194D01*
X0322391Y0242994D01*
X0321079Y0242994D01*
X0326591Y0242994D02*
X0326591Y0235154D01*
X0325262Y0233825D01*
X0325511Y0233825D01*
X0326298Y0233037D01*
X0325262Y0233825D02*
X0324228Y0232791D01*
X0320587Y0232791D01*
X0320882Y0230528D02*
X0320783Y0230429D01*
X0321079Y0230134D01*
X0325409Y0230134D01*
X0330528Y0235252D01*
X0332102Y0236827D01*
X0332102Y0242994D01*
X0320783Y0230429D02*
X0320587Y0230232D01*
X0321472Y0225409D02*
X0321472Y0223179D01*
X0321472Y0218979D02*
X0322876Y0217575D01*
X0326984Y0217575D01*
X0329996Y0217575D01*
X0326984Y0217575D02*
X0326984Y0210055D01*
X0331315Y0213598D02*
X0334996Y0217280D01*
X0334996Y0217575D01*
X0336400Y0218979D01*
X0343520Y0218979D01*
X0343520Y0223179D02*
X0343520Y0225409D01*
X0330528Y0126197D02*
X0330528Y0109268D01*
X0342339Y0097457D01*
X0345094Y0097457D01*
X0238368Y0072687D02*
X0237220Y0073835D01*
X0238367Y0072687D02*
X0238403Y0072650D01*
X0238435Y0072610D01*
X0238465Y0072568D01*
X0238493Y0072524D01*
X0238517Y0072479D01*
X0238538Y0072432D01*
X0238556Y0072384D01*
X0238571Y0072335D01*
X0238583Y0072285D01*
X0238591Y0072234D01*
X0238596Y0072182D01*
X0238598Y0072131D01*
X0236630Y0072131D02*
X0236628Y0072182D01*
X0236623Y0072234D01*
X0236615Y0072285D01*
X0236603Y0072335D01*
X0236588Y0072384D01*
X0236570Y0072432D01*
X0236549Y0072479D01*
X0236525Y0072524D01*
X0236497Y0072568D01*
X0236467Y0072610D01*
X0236435Y0072650D01*
X0236399Y0072687D01*
X0233240Y0072586D02*
X0233240Y0073569D01*
X0233161Y0073647D01*
X0232301Y0072491D02*
X0232337Y0072453D01*
X0232371Y0072413D01*
X0232402Y0072371D01*
X0232430Y0072327D01*
X0232455Y0072281D01*
X0232477Y0072233D01*
X0232496Y0072184D01*
X0232511Y0072134D01*
X0232523Y0072083D01*
X0232532Y0072032D01*
X0232537Y0071979D01*
X0232539Y0071927D01*
X0228559Y0072783D02*
X0228559Y0073835D01*
X0225016Y0078165D02*
X0219898Y0073047D01*
X0219898Y0056591D01*
X0220429Y0056059D01*
X0220744Y0056059D01*
X0221669Y0055134D01*
X0226197Y0055134D01*
X0206774Y0072654D02*
X0206380Y0072654D01*
X0197063Y0088402D02*
X0190370Y0088402D01*
X0186433Y0092339D01*
X0186433Y0095620D01*
X0186695Y0095882D01*
X0190895Y0095882D02*
X0193126Y0095882D01*
X0193520Y0101000D02*
X0190895Y0101000D01*
X0193651Y0103362D02*
X0190895Y0106118D01*
X0186695Y0101918D01*
X0186695Y0101000D01*
X0184858Y0101000D01*
X0184071Y0100213D01*
X0186695Y0106118D02*
X0186695Y0107036D01*
X0190895Y0111236D01*
X0190895Y0113467D01*
X0190764Y0113598D01*
X0186695Y0111236D02*
X0182545Y0107086D01*
X0182545Y0092684D01*
X0193651Y0103362D02*
X0194701Y0103362D01*
X0152772Y0108677D02*
X0152575Y0108874D01*
X0149819Y0108874D01*
X0151000Y0119504D02*
X0151000Y0125803D01*
X0113992Y0093126D02*
X0112811Y0094307D01*
X0070291Y0077772D02*
X0070291Y0071472D01*
X0062024Y0139583D02*
X0062811Y0140370D01*
X0064189Y0140370D01*
X0063992Y0177772D02*
X0063992Y0184071D01*
X0108087Y0204543D02*
X0109268Y0204543D01*
X0112417Y0207693D01*
X0133283Y0220291D02*
X0135646Y0220291D01*
X0136433Y0219504D01*
X0094701Y0244701D02*
X0090108Y0244701D01*
X0090108Y0243913D01*
X0090108Y0242732D01*
X0089976Y0243126D02*
X0090108Y0243257D01*
X0090108Y0243913D01*
X0090108Y0244701D02*
X0090108Y0247850D01*
X0075475Y0272063D02*
X0076459Y0273047D01*
X0075475Y0272063D02*
X0071472Y0272063D01*
X0144701Y0309268D02*
X0144701Y0314386D01*
X0125016Y0170685D02*
X0123441Y0169110D01*
X0122654Y0169110D01*
D46*
X0098244Y0167929D03*
X0173047Y0154042D03*
X0186039Y0153756D03*
X0175016Y0130134D03*
X0278559Y0163205D03*
X0222654Y0239976D03*
X0160843Y0307299D03*
X0230921Y0308480D03*
D47*
X0278559Y0163205D02*
X0278559Y0149819D01*
X0268520Y0139780D01*
X0202772Y0139780D01*
X0193126Y0130134D01*
X0188139Y0130134D01*
X0183939Y0130134D02*
X0175016Y0130134D01*
X0174884Y0150606D02*
X0174884Y0152205D01*
X0173047Y0154042D01*
X0179084Y0150606D02*
X0182890Y0150606D01*
X0186039Y0153756D01*
D48*
X0323047Y0304937D02*
X0323047Y0308480D01*
D49*
X0153362Y0241551D02*
X0140764Y0241551D01*
X0071866Y0140370D02*
X0070094Y0140370D01*
X0071866Y0140370D02*
X0073441Y0138795D01*
D50*
X0202365Y0250857D02*
X0204794Y0248428D01*
X0210198Y0248428D01*
X0224974Y0263205D01*
X0238402Y0263205D01*
X0238402Y0240365D01*
X0238591Y0239184D01*
X0238402Y0263205D02*
X0279388Y0263205D01*
X0290621Y0274438D01*
X0311236Y0274438D01*
X0313796Y0274438D01*
X0313992Y0274634D01*
X0301720Y0293918D02*
X0294468Y0286666D01*
X0285049Y0286666D01*
X0274364Y0275980D01*
X0255114Y0275980D01*
X0253362Y0274228D01*
X0202575Y0267142D02*
X0202575Y0261982D01*
X0202365Y0261773D01*
X0202365Y0250857D01*
X0316276Y0293913D02*
X0323047Y0293913D01*
X0337602Y0279358D01*
X0341551Y0279358D01*
D51*
X0251300Y0280127D02*
X0251300Y0294891D01*
D52*
X0301720Y0293918D02*
X0301725Y0293913D01*
X0316276Y0293913D01*
X0168860Y0188008D02*
X0168860Y0185109D01*
X0162954Y0179203D01*
X0157049Y0173298D01*
X0154937Y0173298D01*
D53*
X0145488Y0128165D03*
X0174754Y0080396D03*
D54*
X0109268Y0127246D02*
X0107141Y0129374D01*
X0105810Y0129374D01*
D55*
X0106060Y0131446D02*
X0104956Y0132550D01*
X0106060Y0131446D02*
X0109268Y0131446D01*
D56*
X0088008Y0113830D02*
X0086433Y0113830D01*
X0083997Y0111394D01*
X0073276Y0111394D01*
X0067925Y0116744D01*
X0067929Y0116748D01*
X0067929Y0124884D01*
X0067798Y0125016D01*
X0068126Y0125344D01*
X0068126Y0129346D01*
X0070094Y0129346D02*
X0070094Y0126919D01*
X0071998Y0125016D01*
X0076984Y0124884D01*
X0070094Y0128165D02*
X0070094Y0129346D01*
X0066157Y0129346D02*
X0066157Y0127575D01*
X0065567Y0126984D01*
X0065567Y0120160D01*
X0065829Y0119898D01*
X0065829Y0117281D01*
X0072819Y0110291D01*
X0082102Y0110291D01*
X0082706Y0109688D01*
X0082706Y0106328D01*
X0084328Y0104706D01*
X0084858Y0104706D01*
X0084858Y0106906D02*
X0086234Y0106906D01*
X0086858Y0106281D01*
X0089158Y0106281D01*
X0089782Y0106906D01*
X0089976Y0106906D01*
X0089714Y0106906D01*
X0088008Y0107855D02*
X0088008Y0109430D01*
X0088008Y0111630D02*
X0088795Y0111630D01*
X0090370Y0110055D01*
X0090370Y0109661D01*
X0085882Y0110392D02*
X0085882Y0111000D01*
X0085882Y0110392D02*
X0084858Y0109106D01*
X0065829Y0118856D02*
X0065829Y0119898D01*
X0168190Y0065257D02*
X0169455Y0064780D01*
X0172654Y0064780D01*
X0172260Y0064386D01*
X0172260Y0064124D01*
X0168190Y0063121D02*
X0171782Y0059924D01*
X0172260Y0059924D01*
X0172260Y0054281D02*
X0169635Y0054281D01*
X0169110Y0054150D01*
X0168323Y0052181D02*
X0170423Y0050081D01*
X0172260Y0050081D01*
X0191157Y0050606D02*
X0193257Y0052706D01*
X0195094Y0052706D01*
X0195094Y0048506D02*
X0194439Y0047850D01*
X0191157Y0047850D01*
X0236630Y0048638D02*
X0239136Y0046132D01*
X0255974Y0046132D01*
X0204150Y0100738D02*
X0204937Y0101525D01*
X0204937Y0103756D01*
M02*
