G75*
%MOIN*%
%OFA0B0*%
%FSLAX25Y25*%
%IPPOS*%
%LPD*%
%AMOC8*
5,1,8,0,0,1.08239X$1,22.5*
%
%ADD10C,0.04724*%
%ADD11R,0.06220X0.12913*%
%ADD12R,0.04515X0.03815*%
%ADD13R,0.03315X0.03015*%
%ADD14R,0.02295X0.01717*%
%ADD15R,0.04252X0.02480*%
%ADD16R,0.05115X0.03915*%
%ADD17R,0.03015X0.03315*%
%ADD18R,0.01685X0.06024*%
%ADD19R,0.05115X0.07715*%
%ADD20R,0.10315X0.04315*%
%ADD21R,0.09567X0.20394*%
%ADD22R,0.04115X0.06315*%
%ADD23R,0.01299X0.02677*%
%ADD24R,0.20394X0.20394*%
%ADD25R,0.02677X0.01299*%
%ADD26R,0.05827X0.04252*%
%ADD27R,0.04252X0.05827*%
%ADD28R,0.07715X0.05115*%
%ADD29C,0.02815*%
%ADD30R,0.06815X0.11315*%
%ADD31R,0.01693X0.02677*%
%ADD32C,0.16063*%
%ADD33R,0.43307X0.17717*%
%ADD34R,0.43307X0.16732*%
%ADD35C,0.07402*%
%ADD36C,0.09370*%
%ADD37R,0.23937X0.11339*%
%ADD38R,0.12126X0.01634*%
%ADD39R,0.06855X0.02015*%
%ADD40R,0.02015X0.06855*%
%ADD41R,0.01693X0.03661*%
%ADD42C,0.02795*%
%ADD43R,0.02283X0.01299*%
%ADD44R,0.02283X0.01988*%
%ADD45R,0.07205X0.06220*%
%ADD46R,0.05059X0.01417*%
%ADD47R,0.01496X0.03680*%
%ADD48R,0.18425X0.18425*%
%ADD49C,0.14915*%
%ADD50C,0.05515*%
%ADD51R,0.01515X0.03115*%
%ADD52R,0.03115X0.01515*%
%ADD53R,0.06815X0.06815*%
%ADD54R,0.03228X0.11339*%
%ADD55C,0.05000*%
%ADD56R,0.06614X0.01496*%
%ADD57R,0.06614X0.01890*%
%ADD58R,0.06496X0.07756*%
%ADD59C,0.01083*%
%ADD60C,0.00709*%
%ADD61R,0.10157X0.10157*%
%ADD62R,0.03015X0.01614*%
%ADD63R,0.01614X0.03015*%
D10*
X0053480Y0191276D03*
X0058480Y0196276D03*
X0063480Y0191276D03*
X0063480Y0201276D03*
X0063480Y0208992D03*
X0058480Y0213992D03*
X0053480Y0208992D03*
X0053480Y0201276D03*
X0053480Y0218992D03*
X0053480Y0226709D03*
X0058480Y0231709D03*
X0053480Y0236709D03*
X0063480Y0236709D03*
X0063480Y0246394D03*
X0058480Y0251394D03*
X0053480Y0246394D03*
X0053480Y0256394D03*
X0063480Y0256394D03*
X0063480Y0266079D03*
X0058480Y0271079D03*
X0053480Y0276079D03*
X0053480Y0266079D03*
X0063480Y0276079D03*
X0063480Y0226709D03*
X0063480Y0218992D03*
D11*
X0073047Y0214386D03*
X0089583Y0214386D03*
X0089583Y0229346D03*
X0073047Y0229346D03*
X0073047Y0199425D03*
X0089583Y0199425D03*
D12*
X0106118Y0213348D03*
X0106118Y0220148D03*
X0113598Y0220148D03*
X0121079Y0220148D03*
X0121079Y0213348D03*
X0113598Y0213348D03*
X0160055Y0213348D03*
X0160055Y0220148D03*
X0167535Y0220148D03*
X0167535Y0213348D03*
X0175016Y0213348D03*
X0175016Y0220148D03*
D13*
X0181709Y0218848D03*
X0181709Y0214648D03*
X0181709Y0207037D03*
X0181709Y0202837D03*
X0186827Y0202837D03*
X0186827Y0207037D03*
X0191945Y0207037D03*
X0191945Y0202837D03*
X0197063Y0202837D03*
X0197063Y0207037D03*
X0153362Y0214648D03*
X0153362Y0218848D03*
X0142732Y0207824D03*
X0137614Y0207824D03*
X0132496Y0207824D03*
X0132496Y0203624D03*
X0137614Y0203624D03*
X0142732Y0203624D03*
X0139189Y0197194D03*
X0134071Y0197194D03*
X0134071Y0192994D03*
X0139189Y0192994D03*
X0127378Y0203624D03*
X0127378Y0207824D03*
X0127772Y0214648D03*
X0127772Y0218848D03*
X0098638Y0217273D03*
X0098638Y0213073D03*
X0086039Y0243782D03*
X0086039Y0247982D03*
X0085646Y0267798D03*
X0085646Y0271998D03*
X0106906Y0296538D03*
X0106906Y0300738D03*
X0134176Y0291097D03*
X0134176Y0286897D03*
X0142924Y0286899D03*
X0142924Y0291099D03*
X0168280Y0295198D03*
X0168280Y0299398D03*
X0173599Y0299398D03*
X0173599Y0295198D03*
X0179024Y0295198D03*
X0179024Y0299398D03*
X0179024Y0304198D03*
X0179024Y0308398D03*
X0173599Y0308398D03*
X0173599Y0304198D03*
X0168280Y0304198D03*
X0168280Y0308398D03*
X0148244Y0269242D03*
X0148244Y0265042D03*
X0136433Y0257824D03*
X0136433Y0253624D03*
X0163205Y0251525D03*
X0163205Y0247325D03*
X0168323Y0247325D03*
X0168323Y0251525D03*
X0244307Y0253231D03*
X0244307Y0257431D03*
X0249425Y0257431D03*
X0249425Y0253231D03*
X0249425Y0248769D03*
X0244307Y0248769D03*
X0244307Y0244569D03*
X0249425Y0244569D03*
X0254543Y0244569D03*
X0254543Y0248769D03*
X0254543Y0253231D03*
X0254543Y0257431D03*
X0254942Y0306078D03*
X0254942Y0310278D03*
X0249529Y0310278D03*
X0249529Y0306078D03*
X0260356Y0306078D03*
X0260356Y0310278D03*
X0265769Y0310278D03*
X0265769Y0306078D03*
X0248244Y0201525D03*
X0248244Y0197325D03*
X0242732Y0197325D03*
X0242732Y0201525D03*
X0241551Y0135383D03*
X0241551Y0131183D03*
X0273047Y0130790D03*
X0278165Y0130790D03*
X0278165Y0134990D03*
X0273047Y0134990D03*
D14*
X0175215Y0204118D03*
X0175215Y0208118D03*
X0170093Y0206118D03*
X0121278Y0204118D03*
X0121278Y0208118D03*
X0116155Y0206118D03*
D15*
X0133480Y0213008D03*
X0133480Y0216748D03*
X0133480Y0220488D03*
X0144110Y0220488D03*
X0144110Y0213008D03*
X0187417Y0213008D03*
X0187417Y0216748D03*
X0187417Y0220488D03*
X0198047Y0220488D03*
X0198047Y0213008D03*
D16*
X0127772Y0199031D03*
X0127772Y0184858D03*
D17*
X0134727Y0187614D03*
X0138927Y0187614D03*
G36*
X0152146Y0179330D02*
X0150015Y0177199D01*
X0147672Y0179542D01*
X0149803Y0181673D01*
X0152146Y0179330D01*
G37*
G36*
X0155116Y0182300D02*
X0152985Y0180169D01*
X0150642Y0182512D01*
X0152773Y0184643D01*
X0155116Y0182300D01*
G37*
G36*
X0153971Y0185842D02*
X0156102Y0187973D01*
X0158445Y0185630D01*
X0156314Y0183499D01*
X0153971Y0185842D01*
G37*
G36*
X0156941Y0188811D02*
X0159072Y0190942D01*
X0161415Y0188599D01*
X0159284Y0186468D01*
X0156941Y0188811D01*
G37*
G36*
X0175374Y0192322D02*
X0173243Y0190191D01*
X0170900Y0192534D01*
X0173031Y0194665D01*
X0175374Y0192322D01*
G37*
G36*
X0178344Y0195292D02*
X0176213Y0193161D01*
X0173870Y0195504D01*
X0176001Y0197635D01*
X0178344Y0195292D01*
G37*
G36*
X0181887Y0191749D02*
X0179756Y0189618D01*
X0177413Y0191961D01*
X0179544Y0194092D01*
X0181887Y0191749D01*
G37*
G36*
X0178917Y0188779D02*
X0176786Y0186648D01*
X0174443Y0188991D01*
X0176574Y0191122D01*
X0178917Y0188779D01*
G37*
X0216223Y0177772D03*
X0220423Y0177772D03*
X0225278Y0177772D03*
X0229478Y0177772D03*
X0238270Y0177772D03*
X0242470Y0177772D03*
X0247325Y0177772D03*
X0251525Y0177772D03*
X0259924Y0176591D03*
X0264124Y0176591D03*
X0268979Y0176591D03*
X0273179Y0176591D03*
X0241289Y0155724D03*
X0237089Y0155724D03*
X0219242Y0155724D03*
X0215042Y0155724D03*
X0258743Y0154543D03*
X0262943Y0154543D03*
X0261892Y0121079D03*
X0266092Y0121079D03*
X0235383Y0121079D03*
X0231183Y0121079D03*
X0233546Y0218323D03*
X0237746Y0218323D03*
X0237746Y0223441D03*
X0233546Y0223441D03*
X0228691Y0218323D03*
X0224491Y0218323D03*
X0261498Y0244307D03*
X0265698Y0244307D03*
X0264456Y0271662D03*
X0268656Y0271662D03*
X0275278Y0274228D03*
X0279478Y0274228D03*
X0279478Y0280134D03*
X0275278Y0280134D03*
X0190403Y0295291D03*
X0186203Y0295291D03*
X0158895Y0274033D03*
X0154695Y0274033D03*
X0153514Y0269112D03*
X0157714Y0269112D03*
X0092470Y0256118D03*
X0088270Y0256118D03*
D18*
X0202287Y0223244D03*
X0204846Y0223244D03*
X0207406Y0223244D03*
X0209965Y0223244D03*
X0209965Y0200016D03*
X0207406Y0200016D03*
X0204846Y0200016D03*
X0202287Y0200016D03*
D19*
X0155925Y0254937D03*
X0142925Y0254937D03*
X0127185Y0299425D03*
X0114185Y0299425D03*
D20*
X0075016Y0275972D03*
X0075016Y0266972D03*
X0075409Y0254713D03*
X0075409Y0245713D03*
D21*
X0101492Y0251000D03*
X0117831Y0251000D03*
X0125311Y0282102D03*
X0108972Y0282102D03*
D22*
X0134407Y0299135D03*
X0142607Y0299135D03*
X0144470Y0244307D03*
X0136270Y0244307D03*
X0220522Y0184858D03*
X0228722Y0184858D03*
X0242569Y0184858D03*
X0250769Y0184858D03*
X0264223Y0183677D03*
X0272423Y0183677D03*
X0250376Y0148638D03*
X0242176Y0148638D03*
X0228328Y0148638D03*
X0220128Y0148638D03*
X0263829Y0147457D03*
X0272029Y0147457D03*
X0270656Y0265166D03*
X0262456Y0265166D03*
D23*
X0263402Y0233283D03*
X0265370Y0233283D03*
X0267339Y0233283D03*
X0261433Y0233283D03*
X0259465Y0233283D03*
X0257496Y0233283D03*
X0255528Y0233283D03*
X0253559Y0233283D03*
X0251591Y0233283D03*
X0249622Y0233283D03*
X0247654Y0233283D03*
X0245685Y0233283D03*
X0245685Y0206512D03*
X0247654Y0206512D03*
X0249622Y0206512D03*
X0251591Y0206512D03*
X0253559Y0206512D03*
X0255528Y0206512D03*
X0257496Y0206512D03*
X0259465Y0206512D03*
X0261433Y0206512D03*
X0263402Y0206512D03*
X0265370Y0206512D03*
X0267339Y0206512D03*
X0190954Y0256703D03*
X0188985Y0256703D03*
X0187017Y0256703D03*
X0185048Y0256703D03*
X0183080Y0256703D03*
X0181111Y0256703D03*
X0179142Y0256703D03*
X0177174Y0256703D03*
X0175205Y0256703D03*
X0173237Y0256703D03*
X0171268Y0256703D03*
X0169300Y0256703D03*
X0169300Y0283475D03*
X0171268Y0283475D03*
X0173237Y0283475D03*
X0175205Y0283475D03*
X0177174Y0283475D03*
X0179142Y0283475D03*
X0181111Y0283475D03*
X0183080Y0283475D03*
X0185048Y0283475D03*
X0187017Y0283475D03*
X0188985Y0283475D03*
X0190954Y0283475D03*
D24*
X0180127Y0270089D03*
X0256512Y0219898D03*
D25*
X0269898Y0220882D03*
X0269898Y0222850D03*
X0269898Y0224819D03*
X0269898Y0226787D03*
X0269898Y0228756D03*
X0269898Y0230724D03*
X0269898Y0218913D03*
X0269898Y0216945D03*
X0269898Y0214976D03*
X0269898Y0213008D03*
X0269898Y0211039D03*
X0269898Y0209071D03*
X0243126Y0209071D03*
X0243126Y0211039D03*
X0243126Y0213008D03*
X0243126Y0214976D03*
X0243126Y0216945D03*
X0243126Y0218913D03*
X0243126Y0220882D03*
X0243126Y0222850D03*
X0243126Y0224819D03*
X0243126Y0226787D03*
X0243126Y0228756D03*
X0243126Y0230724D03*
X0193513Y0259263D03*
X0193513Y0261231D03*
X0193513Y0263200D03*
X0193513Y0265168D03*
X0193513Y0267137D03*
X0193513Y0269105D03*
X0193513Y0271074D03*
X0193513Y0273042D03*
X0193513Y0275011D03*
X0193513Y0276979D03*
X0193513Y0278948D03*
X0193513Y0280916D03*
X0166741Y0280916D03*
X0166741Y0278948D03*
X0166741Y0276979D03*
X0166741Y0275011D03*
X0166741Y0273042D03*
X0166741Y0271074D03*
X0166741Y0269105D03*
X0166741Y0267137D03*
X0166741Y0265168D03*
X0166741Y0263200D03*
X0166741Y0261231D03*
X0166741Y0259263D03*
D26*
X0162024Y0207496D03*
X0153362Y0203756D03*
X0162024Y0200016D03*
X0107693Y0200016D03*
X0099031Y0203756D03*
X0107693Y0207496D03*
D27*
X0107102Y0193028D03*
X0099622Y0193028D03*
X0103362Y0184366D03*
D28*
X0128165Y0243713D03*
X0128165Y0256713D03*
X0154833Y0293917D03*
X0154833Y0306917D03*
X0210449Y0106713D03*
X0210449Y0093713D03*
X0281709Y0092138D03*
X0281709Y0105138D03*
D29*
X0293854Y0103028D03*
X0298854Y0103028D03*
X0303854Y0103028D03*
X0308854Y0103028D03*
X0313854Y0103028D03*
X0318854Y0103028D03*
X0323854Y0103028D03*
X0328854Y0103028D03*
X0333854Y0103028D03*
X0338854Y0103028D03*
X0338854Y0098028D03*
X0333854Y0098028D03*
X0328854Y0098028D03*
X0323854Y0098028D03*
X0318854Y0098028D03*
X0313854Y0098028D03*
X0308854Y0098028D03*
X0303854Y0098028D03*
X0298854Y0098028D03*
X0293854Y0098028D03*
X0293854Y0093028D03*
X0298854Y0093028D03*
X0303854Y0093028D03*
X0308854Y0093028D03*
X0313854Y0093028D03*
X0318854Y0093028D03*
X0323854Y0093028D03*
X0328854Y0093028D03*
X0333854Y0093028D03*
X0338854Y0093028D03*
X0338854Y0088028D03*
X0333854Y0088028D03*
X0328854Y0088028D03*
X0323854Y0088028D03*
X0318854Y0088028D03*
X0313854Y0088028D03*
X0308854Y0088028D03*
X0303854Y0088028D03*
X0298854Y0088028D03*
X0293854Y0088028D03*
X0293854Y0083028D03*
X0298854Y0083028D03*
X0303854Y0083028D03*
X0308854Y0083028D03*
X0313854Y0083028D03*
X0318854Y0083028D03*
X0323854Y0083028D03*
X0328854Y0083028D03*
X0333854Y0083028D03*
X0338854Y0083028D03*
X0338854Y0108028D03*
X0338854Y0113028D03*
X0333854Y0113028D03*
X0328854Y0113028D03*
X0323854Y0113028D03*
X0318854Y0113028D03*
X0313854Y0113028D03*
X0308854Y0113028D03*
X0303854Y0113028D03*
X0298854Y0113028D03*
X0293854Y0113028D03*
X0293854Y0108028D03*
X0298854Y0108028D03*
X0303854Y0108028D03*
X0308854Y0108028D03*
X0313854Y0108028D03*
X0318854Y0108028D03*
X0323854Y0108028D03*
X0328854Y0108028D03*
X0333854Y0108028D03*
X0333854Y0118028D03*
X0333854Y0123028D03*
X0328854Y0123028D03*
X0323854Y0123028D03*
X0318854Y0123028D03*
X0313854Y0123028D03*
X0308854Y0123028D03*
X0303854Y0123028D03*
X0298854Y0123028D03*
X0293854Y0123028D03*
X0293854Y0118028D03*
X0298854Y0118028D03*
X0303854Y0118028D03*
X0308854Y0118028D03*
X0313854Y0118028D03*
X0318854Y0118028D03*
X0323854Y0118028D03*
X0328854Y0118028D03*
X0338854Y0118028D03*
X0338854Y0123028D03*
X0338854Y0128028D03*
X0338854Y0133028D03*
X0338854Y0138028D03*
X0333854Y0138028D03*
X0328854Y0138028D03*
X0323854Y0138028D03*
X0318854Y0138028D03*
X0313854Y0138028D03*
X0308854Y0138028D03*
X0303854Y0138028D03*
X0298854Y0138028D03*
X0293854Y0138028D03*
X0293854Y0133028D03*
X0298854Y0133028D03*
X0303854Y0133028D03*
X0308854Y0133028D03*
X0313854Y0133028D03*
X0318854Y0133028D03*
X0323854Y0133028D03*
X0328854Y0133028D03*
X0333854Y0133028D03*
X0333854Y0128028D03*
X0328854Y0128028D03*
X0323854Y0128028D03*
X0318854Y0128028D03*
X0313854Y0128028D03*
X0308854Y0128028D03*
X0303854Y0128028D03*
X0298854Y0128028D03*
X0293854Y0128028D03*
X0293854Y0143028D03*
X0293854Y0148028D03*
X0298854Y0148028D03*
X0303854Y0148028D03*
X0308854Y0148028D03*
X0313854Y0148028D03*
X0318854Y0148028D03*
X0323854Y0148028D03*
X0328854Y0148028D03*
X0333854Y0148028D03*
X0338854Y0148028D03*
X0338854Y0143028D03*
X0333854Y0143028D03*
X0328854Y0143028D03*
X0323854Y0143028D03*
X0318854Y0143028D03*
X0313854Y0143028D03*
X0308854Y0143028D03*
X0303854Y0143028D03*
X0298854Y0143028D03*
X0298854Y0153028D03*
X0298854Y0158028D03*
X0293854Y0158028D03*
X0293854Y0153028D03*
X0303854Y0153028D03*
X0303854Y0158028D03*
X0308854Y0158028D03*
X0313854Y0158028D03*
X0318854Y0158028D03*
X0323854Y0158028D03*
X0328854Y0158028D03*
X0333854Y0158028D03*
X0338854Y0158028D03*
X0338854Y0153028D03*
X0333854Y0153028D03*
X0328854Y0153028D03*
X0323854Y0153028D03*
X0318854Y0153028D03*
X0313854Y0153028D03*
X0308854Y0153028D03*
X0308854Y0163028D03*
X0308854Y0168028D03*
X0303854Y0168028D03*
X0298854Y0168028D03*
X0293854Y0168028D03*
X0293854Y0163028D03*
X0298854Y0163028D03*
X0303854Y0163028D03*
X0313854Y0163028D03*
X0313854Y0168028D03*
X0318854Y0168028D03*
X0323854Y0168028D03*
X0328854Y0168028D03*
X0333854Y0168028D03*
X0338854Y0168028D03*
X0338854Y0163028D03*
X0333854Y0163028D03*
X0328854Y0163028D03*
X0323854Y0163028D03*
X0318854Y0163028D03*
X0318854Y0173028D03*
X0318854Y0178028D03*
X0313854Y0178028D03*
X0308854Y0178028D03*
X0303854Y0178028D03*
X0298854Y0178028D03*
X0293854Y0178028D03*
X0293854Y0173028D03*
X0298854Y0173028D03*
X0303854Y0173028D03*
X0308854Y0173028D03*
X0313854Y0173028D03*
X0323854Y0173028D03*
X0323854Y0178028D03*
X0328854Y0178028D03*
X0333854Y0178028D03*
X0338854Y0178028D03*
X0338854Y0173028D03*
X0333854Y0173028D03*
X0328854Y0173028D03*
X0328854Y0183028D03*
X0328854Y0188028D03*
X0328854Y0193028D03*
X0323854Y0193028D03*
X0318854Y0193028D03*
X0313854Y0193028D03*
X0308854Y0193028D03*
X0303854Y0193028D03*
X0298854Y0193028D03*
X0293854Y0193028D03*
X0293854Y0188028D03*
X0298854Y0188028D03*
X0303854Y0188028D03*
X0308854Y0188028D03*
X0313854Y0188028D03*
X0318854Y0188028D03*
X0323854Y0188028D03*
X0323854Y0183028D03*
X0318854Y0183028D03*
X0313854Y0183028D03*
X0308854Y0183028D03*
X0303854Y0183028D03*
X0298854Y0183028D03*
X0293854Y0183028D03*
X0293854Y0198028D03*
X0293854Y0203028D03*
X0298854Y0203028D03*
X0303854Y0203028D03*
X0308854Y0203028D03*
X0313854Y0203028D03*
X0318854Y0203028D03*
X0323854Y0203028D03*
X0328854Y0203028D03*
X0333854Y0203028D03*
X0338854Y0203028D03*
X0338854Y0198028D03*
X0333854Y0198028D03*
X0328854Y0198028D03*
X0323854Y0198028D03*
X0318854Y0198028D03*
X0313854Y0198028D03*
X0308854Y0198028D03*
X0303854Y0198028D03*
X0298854Y0198028D03*
X0298854Y0208028D03*
X0298854Y0213028D03*
X0293854Y0213028D03*
X0293854Y0208028D03*
X0303854Y0208028D03*
X0303854Y0213028D03*
X0308854Y0213028D03*
X0313854Y0213028D03*
X0318854Y0213028D03*
X0323854Y0213028D03*
X0328854Y0213028D03*
X0333854Y0213028D03*
X0338854Y0213028D03*
X0338854Y0208028D03*
X0333854Y0208028D03*
X0328854Y0208028D03*
X0323854Y0208028D03*
X0318854Y0208028D03*
X0313854Y0208028D03*
X0308854Y0208028D03*
X0308854Y0218028D03*
X0308854Y0223028D03*
X0303854Y0223028D03*
X0298854Y0223028D03*
X0293854Y0223028D03*
X0293854Y0218028D03*
X0298854Y0218028D03*
X0303854Y0218028D03*
X0313854Y0218028D03*
X0313854Y0223028D03*
X0318854Y0223028D03*
X0323854Y0223028D03*
X0328854Y0223028D03*
X0333854Y0223028D03*
X0338854Y0223028D03*
X0338854Y0218028D03*
X0333854Y0218028D03*
X0328854Y0218028D03*
X0323854Y0218028D03*
X0318854Y0218028D03*
X0318854Y0228028D03*
X0318854Y0233028D03*
X0318854Y0238028D03*
X0313854Y0238028D03*
X0308854Y0238028D03*
X0303854Y0238028D03*
X0298854Y0238028D03*
X0293854Y0238028D03*
X0293854Y0233028D03*
X0298854Y0233028D03*
X0303854Y0233028D03*
X0308854Y0233028D03*
X0313854Y0233028D03*
X0313854Y0228028D03*
X0308854Y0228028D03*
X0303854Y0228028D03*
X0298854Y0228028D03*
X0293854Y0228028D03*
X0293854Y0243028D03*
X0293854Y0248028D03*
X0298854Y0248028D03*
X0303854Y0248028D03*
X0308854Y0248028D03*
X0313854Y0248028D03*
X0318854Y0248028D03*
X0323854Y0248028D03*
X0328854Y0248028D03*
X0333854Y0248028D03*
X0338854Y0248028D03*
X0338854Y0243028D03*
X0333854Y0243028D03*
X0328854Y0243028D03*
X0323854Y0243028D03*
X0318854Y0243028D03*
X0313854Y0243028D03*
X0308854Y0243028D03*
X0303854Y0243028D03*
X0298854Y0243028D03*
X0298854Y0253028D03*
X0298854Y0258028D03*
X0293854Y0258028D03*
X0293854Y0253028D03*
X0303854Y0253028D03*
X0303854Y0258028D03*
X0308854Y0258028D03*
X0313854Y0258028D03*
X0318854Y0258028D03*
X0323854Y0258028D03*
X0328854Y0258028D03*
X0333854Y0258028D03*
X0338854Y0258028D03*
X0338854Y0253028D03*
X0333854Y0253028D03*
X0328854Y0253028D03*
X0323854Y0253028D03*
X0318854Y0253028D03*
X0313854Y0253028D03*
X0308854Y0253028D03*
X0308854Y0263028D03*
X0308854Y0268028D03*
X0303854Y0268028D03*
X0298854Y0268028D03*
X0293854Y0268028D03*
X0293854Y0263028D03*
X0298854Y0263028D03*
X0303854Y0263028D03*
X0313854Y0263028D03*
X0313854Y0268028D03*
X0318854Y0268028D03*
X0323854Y0268028D03*
X0328854Y0268028D03*
X0333854Y0268028D03*
X0338854Y0268028D03*
X0338854Y0263028D03*
X0333854Y0263028D03*
X0328854Y0263028D03*
X0323854Y0263028D03*
X0318854Y0263028D03*
X0318854Y0273028D03*
X0318854Y0278028D03*
X0313854Y0278028D03*
X0308854Y0278028D03*
X0303854Y0278028D03*
X0298854Y0278028D03*
X0293854Y0278028D03*
X0293854Y0273028D03*
X0298854Y0273028D03*
X0303854Y0273028D03*
X0308854Y0273028D03*
X0313854Y0273028D03*
X0323854Y0273028D03*
X0323854Y0278028D03*
X0328854Y0278028D03*
X0333854Y0278028D03*
X0338854Y0278028D03*
X0338854Y0273028D03*
X0333854Y0273028D03*
X0328854Y0273028D03*
X0328854Y0238028D03*
X0323854Y0238028D03*
X0323854Y0233028D03*
X0328854Y0233028D03*
X0333854Y0233028D03*
X0333854Y0238028D03*
X0338854Y0238028D03*
X0338854Y0233028D03*
X0338854Y0228028D03*
X0333854Y0228028D03*
X0328854Y0228028D03*
X0323854Y0228028D03*
X0333854Y0193028D03*
X0338854Y0193028D03*
X0338854Y0188028D03*
X0333854Y0188028D03*
X0333854Y0183028D03*
X0338854Y0183028D03*
X0263761Y0277509D03*
X0263761Y0282509D03*
X0258761Y0282509D03*
X0253761Y0282509D03*
X0248761Y0282509D03*
X0243761Y0282509D03*
X0243761Y0277509D03*
X0248761Y0277509D03*
X0253761Y0277509D03*
X0258761Y0277509D03*
X0258761Y0287509D03*
X0258761Y0292509D03*
X0253761Y0292509D03*
X0248761Y0292509D03*
X0243761Y0292509D03*
X0243761Y0287509D03*
X0248761Y0287509D03*
X0253761Y0287509D03*
X0263761Y0287509D03*
X0263761Y0292509D03*
X0263761Y0297509D03*
X0258761Y0297509D03*
X0253761Y0297509D03*
X0248761Y0297509D03*
X0243761Y0297509D03*
D30*
X0235634Y0298244D03*
X0224634Y0298244D03*
X0224442Y0277076D03*
X0235442Y0277076D03*
X0234453Y0130921D03*
X0223453Y0130921D03*
X0254949Y0130528D03*
X0265949Y0130528D03*
D31*
X0075508Y0240764D03*
X0072949Y0240764D03*
X0072161Y0261630D03*
X0074720Y0261630D03*
D32*
X0093520Y0288992D03*
X0093520Y0066354D03*
D33*
X0071866Y0065370D03*
D34*
X0071866Y0289484D03*
D35*
X0068717Y0160843D03*
X0068717Y0105724D03*
D36*
X0078559Y0095488D03*
X0078559Y0171079D03*
D37*
X0078559Y0185646D03*
X0078559Y0080921D03*
D38*
X0097063Y0102033D03*
X0097063Y0104533D03*
X0097063Y0107033D03*
X0097063Y0109533D03*
X0097063Y0112033D03*
X0097063Y0114533D03*
X0097063Y0117033D03*
X0097063Y0119533D03*
X0097063Y0122033D03*
X0097063Y0124533D03*
X0097063Y0127033D03*
X0097063Y0129533D03*
X0097063Y0132033D03*
X0097063Y0134533D03*
X0097063Y0137033D03*
X0097063Y0139533D03*
X0097063Y0142033D03*
X0097063Y0144533D03*
X0097063Y0147033D03*
X0097063Y0149533D03*
X0097063Y0152033D03*
X0097063Y0154533D03*
X0097063Y0157033D03*
X0097063Y0159533D03*
X0097063Y0162033D03*
X0097063Y0164533D03*
D39*
X0140272Y0142634D03*
X0140272Y0140075D03*
X0140272Y0137516D03*
X0140272Y0134957D03*
X0140272Y0132398D03*
X0140272Y0129839D03*
X0140272Y0127280D03*
X0140272Y0124720D03*
X0140272Y0122161D03*
X0140272Y0119602D03*
X0140272Y0117043D03*
X0140272Y0114484D03*
X0140272Y0111925D03*
X0140272Y0109366D03*
X0140272Y0106807D03*
X0140272Y0104248D03*
X0140272Y0101689D03*
X0140272Y0099130D03*
X0140272Y0096571D03*
X0140272Y0094012D03*
X0200311Y0094012D03*
X0200311Y0096571D03*
X0200311Y0099130D03*
X0200311Y0101689D03*
X0200311Y0104248D03*
X0200311Y0106807D03*
X0200311Y0109366D03*
X0200311Y0111925D03*
X0200311Y0114484D03*
X0200311Y0117043D03*
X0200311Y0119602D03*
X0200311Y0122161D03*
X0200311Y0124720D03*
X0200311Y0127280D03*
X0200311Y0129839D03*
X0200311Y0132398D03*
X0200311Y0134957D03*
X0200311Y0137516D03*
X0200311Y0140075D03*
X0200311Y0142634D03*
D40*
X0194602Y0148343D03*
X0192043Y0148343D03*
X0189484Y0148343D03*
X0186925Y0148343D03*
X0184366Y0148343D03*
X0181807Y0148343D03*
X0179248Y0148343D03*
X0176689Y0148343D03*
X0174130Y0148343D03*
X0171571Y0148343D03*
X0169012Y0148343D03*
X0166453Y0148343D03*
X0163894Y0148343D03*
X0161335Y0148343D03*
X0158776Y0148343D03*
X0156217Y0148343D03*
X0153657Y0148343D03*
X0151098Y0148343D03*
X0148539Y0148343D03*
X0145980Y0148343D03*
X0145980Y0088303D03*
X0148539Y0088303D03*
X0151098Y0088303D03*
X0153657Y0088303D03*
X0156217Y0088303D03*
X0158776Y0088303D03*
X0161335Y0088303D03*
X0163894Y0088303D03*
X0166453Y0088303D03*
X0169012Y0088303D03*
X0171571Y0088303D03*
X0174130Y0088303D03*
X0176689Y0088303D03*
X0179248Y0088303D03*
X0181807Y0088303D03*
X0184366Y0088303D03*
X0186925Y0088303D03*
X0189484Y0088303D03*
X0192043Y0088303D03*
X0194602Y0088303D03*
D41*
X0216846Y0160547D03*
X0219406Y0160547D03*
X0221965Y0160547D03*
X0224524Y0160547D03*
X0224524Y0172161D03*
X0221965Y0172161D03*
X0219406Y0172161D03*
X0216846Y0172161D03*
X0238894Y0172161D03*
X0241453Y0172161D03*
X0244012Y0172161D03*
X0246571Y0172161D03*
X0246571Y0160547D03*
X0244012Y0160547D03*
X0241453Y0160547D03*
X0238894Y0160547D03*
X0260547Y0159366D03*
X0263106Y0159366D03*
X0265665Y0159366D03*
X0268224Y0159366D03*
X0268224Y0170980D03*
X0265665Y0170980D03*
X0263106Y0170980D03*
X0260547Y0170980D03*
X0120882Y0190370D03*
X0118323Y0190370D03*
X0115764Y0190370D03*
X0115764Y0197457D03*
X0118323Y0197457D03*
X0120882Y0197457D03*
D42*
X0220882Y0115606D03*
X0220882Y0110606D03*
X0225882Y0110606D03*
X0230882Y0110606D03*
X0235882Y0110606D03*
X0235882Y0115606D03*
X0230882Y0115606D03*
X0225882Y0115606D03*
X0225882Y0105606D03*
X0225882Y0100606D03*
X0230882Y0100606D03*
X0235882Y0100606D03*
X0235882Y0105606D03*
X0230882Y0105606D03*
X0220882Y0105606D03*
X0220882Y0100606D03*
X0220882Y0095606D03*
X0220882Y0090606D03*
X0225882Y0090606D03*
X0230882Y0090606D03*
X0235882Y0090606D03*
X0235882Y0095606D03*
X0230882Y0095606D03*
X0225882Y0095606D03*
X0225882Y0085606D03*
X0230882Y0085606D03*
X0235882Y0085606D03*
X0240882Y0085606D03*
X0245882Y0085606D03*
X0250882Y0085606D03*
X0255882Y0085606D03*
X0260882Y0085606D03*
X0265882Y0085606D03*
X0270882Y0085606D03*
X0270882Y0090606D03*
X0265882Y0090606D03*
X0260882Y0090606D03*
X0255882Y0090606D03*
X0250882Y0090606D03*
X0245882Y0090606D03*
X0240882Y0090606D03*
X0240882Y0095606D03*
X0245882Y0095606D03*
X0250882Y0095606D03*
X0255882Y0095606D03*
X0260882Y0095606D03*
X0265882Y0095606D03*
X0270882Y0095606D03*
X0270882Y0100606D03*
X0265882Y0100606D03*
X0260882Y0100606D03*
X0255882Y0100606D03*
X0250882Y0100606D03*
X0245882Y0100606D03*
X0240882Y0100606D03*
X0240882Y0105606D03*
X0245882Y0105606D03*
X0250882Y0105606D03*
X0255882Y0105606D03*
X0260882Y0105606D03*
X0265882Y0105606D03*
X0270882Y0105606D03*
X0270882Y0110606D03*
X0265882Y0110606D03*
X0260882Y0110606D03*
X0255882Y0110606D03*
X0250882Y0110606D03*
X0245882Y0110606D03*
X0240882Y0110606D03*
X0240882Y0115606D03*
X0245882Y0115606D03*
X0250882Y0115606D03*
X0255882Y0115606D03*
X0260882Y0115606D03*
X0265882Y0115606D03*
X0270882Y0115606D03*
X0220882Y0085606D03*
D43*
X0131512Y0085055D03*
X0131512Y0083087D03*
X0131512Y0081118D03*
X0125606Y0081118D03*
X0125606Y0083087D03*
X0125606Y0085055D03*
X0125606Y0087024D03*
X0125606Y0088992D03*
X0125606Y0090961D03*
X0131512Y0090961D03*
X0131512Y0088992D03*
X0131512Y0087024D03*
X0131512Y0101197D03*
X0131512Y0103165D03*
X0131512Y0105134D03*
X0131512Y0107102D03*
X0131512Y0109071D03*
X0131512Y0111039D03*
X0125606Y0111039D03*
X0125606Y0109071D03*
X0125606Y0107102D03*
X0125606Y0105134D03*
X0125606Y0103165D03*
X0125606Y0101197D03*
X0125606Y0126000D03*
X0125606Y0127969D03*
X0125606Y0129937D03*
X0125606Y0131906D03*
X0125606Y0133874D03*
X0125606Y0135843D03*
X0131512Y0135843D03*
X0131512Y0133874D03*
X0131512Y0131906D03*
X0131512Y0129937D03*
X0131512Y0127969D03*
X0131512Y0126000D03*
X0131512Y0145685D03*
X0131512Y0147654D03*
X0131512Y0149622D03*
X0131512Y0151591D03*
X0131512Y0153559D03*
X0131512Y0155528D03*
X0125606Y0155528D03*
X0125606Y0153559D03*
X0125606Y0151591D03*
X0125606Y0149622D03*
X0125606Y0147654D03*
X0125606Y0145685D03*
D44*
X0125606Y0143372D03*
X0125606Y0138156D03*
X0131512Y0138156D03*
X0131512Y0143372D03*
X0131512Y0157841D03*
X0125606Y0157841D03*
X0125606Y0123687D03*
X0131512Y0123687D03*
X0131512Y0113352D03*
X0125606Y0113352D03*
X0125606Y0098884D03*
X0125606Y0093274D03*
X0131512Y0093274D03*
X0131512Y0098884D03*
X0131512Y0078805D03*
X0125606Y0078805D03*
D45*
X0220685Y0166354D03*
X0242732Y0166354D03*
X0264386Y0165173D03*
D46*
X0258677Y0163894D03*
X0258677Y0166453D03*
X0248441Y0167634D03*
X0248441Y0165075D03*
X0237024Y0165075D03*
X0237024Y0167634D03*
X0226394Y0167634D03*
X0226394Y0165075D03*
X0214976Y0165075D03*
X0214976Y0167634D03*
X0270094Y0166453D03*
X0270094Y0163894D03*
D47*
G36*
X0184565Y0171964D02*
X0183508Y0170907D01*
X0180907Y0173508D01*
X0181964Y0174565D01*
X0184565Y0171964D01*
G37*
G36*
X0183173Y0170572D02*
X0182116Y0169515D01*
X0179515Y0172116D01*
X0180572Y0173173D01*
X0183173Y0170572D01*
G37*
G36*
X0181781Y0169180D02*
X0180724Y0168123D01*
X0178123Y0170724D01*
X0179180Y0171781D01*
X0181781Y0169180D01*
G37*
G36*
X0180389Y0167788D02*
X0179332Y0166731D01*
X0176731Y0169332D01*
X0177788Y0170389D01*
X0180389Y0167788D01*
G37*
G36*
X0178997Y0166396D02*
X0177940Y0165339D01*
X0175339Y0167940D01*
X0176396Y0168997D01*
X0178997Y0166396D01*
G37*
G36*
X0177605Y0165005D02*
X0176548Y0163948D01*
X0173947Y0166549D01*
X0175004Y0167606D01*
X0177605Y0165005D01*
G37*
G36*
X0176213Y0163613D02*
X0175156Y0162556D01*
X0172555Y0165157D01*
X0173612Y0166214D01*
X0176213Y0163613D01*
G37*
G36*
X0174822Y0162221D02*
X0173765Y0161164D01*
X0171164Y0163765D01*
X0172221Y0164822D01*
X0174822Y0162221D01*
G37*
G36*
X0173430Y0160829D02*
X0172373Y0159772D01*
X0169772Y0162373D01*
X0170829Y0163430D01*
X0173430Y0160829D01*
G37*
G36*
X0172038Y0159437D02*
X0170981Y0158380D01*
X0168380Y0160981D01*
X0169437Y0162038D01*
X0172038Y0159437D01*
G37*
G36*
X0165665Y0158380D02*
X0164608Y0159437D01*
X0167209Y0162038D01*
X0168266Y0160981D01*
X0165665Y0158380D01*
G37*
G36*
X0164273Y0159772D02*
X0163216Y0160829D01*
X0165817Y0163430D01*
X0166874Y0162373D01*
X0164273Y0159772D01*
G37*
G36*
X0162881Y0161164D02*
X0161824Y0162221D01*
X0164425Y0164822D01*
X0165482Y0163765D01*
X0162881Y0161164D01*
G37*
G36*
X0161489Y0162556D02*
X0160432Y0163613D01*
X0163033Y0166214D01*
X0164090Y0165157D01*
X0161489Y0162556D01*
G37*
G36*
X0160097Y0163948D02*
X0159040Y0165005D01*
X0161641Y0167606D01*
X0162698Y0166549D01*
X0160097Y0163948D01*
G37*
G36*
X0158705Y0165339D02*
X0157648Y0166396D01*
X0160249Y0168997D01*
X0161306Y0167940D01*
X0158705Y0165339D01*
G37*
G36*
X0157313Y0166731D02*
X0156256Y0167788D01*
X0158857Y0170389D01*
X0159914Y0169332D01*
X0157313Y0166731D01*
G37*
G36*
X0155921Y0168123D02*
X0154864Y0169180D01*
X0157465Y0171781D01*
X0158522Y0170724D01*
X0155921Y0168123D01*
G37*
G36*
X0154529Y0169515D02*
X0153472Y0170572D01*
X0156073Y0173173D01*
X0157130Y0172116D01*
X0154529Y0169515D01*
G37*
G36*
X0153138Y0170907D02*
X0152081Y0171964D01*
X0154682Y0174565D01*
X0155739Y0173508D01*
X0153138Y0170907D01*
G37*
G36*
X0155739Y0175736D02*
X0154682Y0174679D01*
X0152081Y0177280D01*
X0153138Y0178337D01*
X0155739Y0175736D01*
G37*
G36*
X0157130Y0177128D02*
X0156073Y0176071D01*
X0153472Y0178672D01*
X0154529Y0179729D01*
X0157130Y0177128D01*
G37*
G36*
X0158522Y0178520D02*
X0157465Y0177463D01*
X0154864Y0180064D01*
X0155921Y0181121D01*
X0158522Y0178520D01*
G37*
G36*
X0159914Y0179912D02*
X0158857Y0178855D01*
X0156256Y0181456D01*
X0157313Y0182513D01*
X0159914Y0179912D01*
G37*
G36*
X0161306Y0181304D02*
X0160249Y0180247D01*
X0157648Y0182848D01*
X0158705Y0183905D01*
X0161306Y0181304D01*
G37*
G36*
X0162698Y0182696D02*
X0161641Y0181639D01*
X0159040Y0184240D01*
X0160097Y0185297D01*
X0162698Y0182696D01*
G37*
G36*
X0164090Y0184087D02*
X0163033Y0183030D01*
X0160432Y0185631D01*
X0161489Y0186688D01*
X0164090Y0184087D01*
G37*
G36*
X0165482Y0185479D02*
X0164425Y0184422D01*
X0161824Y0187023D01*
X0162881Y0188080D01*
X0165482Y0185479D01*
G37*
G36*
X0166874Y0186871D02*
X0165817Y0185814D01*
X0163216Y0188415D01*
X0164273Y0189472D01*
X0166874Y0186871D01*
G37*
G36*
X0168266Y0188263D02*
X0167209Y0187206D01*
X0164608Y0189807D01*
X0165665Y0190864D01*
X0168266Y0188263D01*
G37*
G36*
X0169437Y0187206D02*
X0168380Y0188263D01*
X0170981Y0190864D01*
X0172038Y0189807D01*
X0169437Y0187206D01*
G37*
G36*
X0170829Y0185814D02*
X0169772Y0186871D01*
X0172373Y0189472D01*
X0173430Y0188415D01*
X0170829Y0185814D01*
G37*
G36*
X0172221Y0184422D02*
X0171164Y0185479D01*
X0173765Y0188080D01*
X0174822Y0187023D01*
X0172221Y0184422D01*
G37*
G36*
X0173612Y0183030D02*
X0172555Y0184087D01*
X0175156Y0186688D01*
X0176213Y0185631D01*
X0173612Y0183030D01*
G37*
G36*
X0175004Y0181639D02*
X0173947Y0182696D01*
X0176548Y0185297D01*
X0177605Y0184240D01*
X0175004Y0181639D01*
G37*
G36*
X0176396Y0180247D02*
X0175339Y0181304D01*
X0177940Y0183905D01*
X0178997Y0182848D01*
X0176396Y0180247D01*
G37*
G36*
X0177788Y0178855D02*
X0176731Y0179912D01*
X0179332Y0182513D01*
X0180389Y0181456D01*
X0177788Y0178855D01*
G37*
G36*
X0179180Y0177463D02*
X0178123Y0178520D01*
X0180724Y0181121D01*
X0181781Y0180064D01*
X0179180Y0177463D01*
G37*
G36*
X0180572Y0176071D02*
X0179515Y0177128D01*
X0182116Y0179729D01*
X0183173Y0178672D01*
X0180572Y0176071D01*
G37*
G36*
X0181964Y0174679D02*
X0180907Y0175736D01*
X0183508Y0178337D01*
X0184565Y0177280D01*
X0181964Y0174679D01*
G37*
D48*
G36*
X0168323Y0187649D02*
X0181350Y0174622D01*
X0168323Y0161595D01*
X0155296Y0174622D01*
X0168323Y0187649D01*
G37*
D49*
X0308354Y0304528D03*
X0308354Y0056528D03*
D50*
X0316354Y0073578D03*
X0304346Y0287578D03*
D51*
X0288205Y0299043D03*
X0286236Y0299043D03*
X0284268Y0299043D03*
X0282299Y0299043D03*
X0282299Y0310043D03*
X0284268Y0310043D03*
X0286236Y0310043D03*
X0288205Y0310043D03*
D52*
X0290752Y0307496D03*
X0290752Y0305528D03*
X0290752Y0303559D03*
X0290752Y0301591D03*
X0279752Y0301591D03*
X0279752Y0303559D03*
X0279752Y0305528D03*
X0279752Y0307496D03*
D53*
X0285252Y0304543D03*
D54*
X0245252Y0066886D03*
X0240252Y0066886D03*
X0235252Y0066886D03*
X0230252Y0066886D03*
X0225252Y0066886D03*
X0225252Y0050862D03*
X0230252Y0050862D03*
X0235252Y0050862D03*
X0240252Y0050862D03*
X0245252Y0050862D03*
D55*
X0265843Y0058874D03*
X0204661Y0058874D03*
D56*
X0195488Y0058185D03*
X0195488Y0055626D03*
X0195488Y0053067D03*
X0195488Y0050508D03*
X0195488Y0047949D03*
X0195488Y0060744D03*
X0195488Y0063303D03*
X0195488Y0065862D03*
X0173441Y0065862D03*
X0173441Y0063303D03*
X0173441Y0060744D03*
X0173441Y0058185D03*
X0173441Y0055626D03*
X0173441Y0053067D03*
X0173441Y0050508D03*
X0173441Y0047949D03*
D57*
X0183677Y0072752D03*
X0183677Y0075311D03*
X0183677Y0077870D03*
X0183677Y0080429D03*
X0200213Y0080429D03*
X0200213Y0077870D03*
X0200213Y0075311D03*
X0200213Y0072752D03*
D58*
X0191945Y0076591D03*
D59*
X0324228Y0061236D02*
X0329346Y0065961D01*
X0336433Y0056118D01*
X0334071Y0068717D01*
X0337614Y0060055D01*
X0329346Y0065961D01*
X0324228Y0061236D02*
X0337614Y0060055D01*
X0336433Y0056118D01*
X0324228Y0061236D01*
D60*
X0324268Y0053520D02*
X0323087Y0053520D01*
X0323087Y0050055D01*
X0324268Y0050055D01*
X0324319Y0050057D01*
X0324369Y0050062D01*
X0324419Y0050071D01*
X0324468Y0050084D01*
X0324516Y0050100D01*
X0324563Y0050119D01*
X0324608Y0050142D01*
X0324651Y0050168D01*
X0324693Y0050196D01*
X0324732Y0050228D01*
X0324769Y0050263D01*
X0324804Y0050300D01*
X0324836Y0050339D01*
X0324864Y0050381D01*
X0324890Y0050424D01*
X0324913Y0050469D01*
X0324932Y0050516D01*
X0324948Y0050564D01*
X0324961Y0050613D01*
X0324970Y0050663D01*
X0324975Y0050713D01*
X0324977Y0050764D01*
X0324976Y0050764D02*
X0324976Y0052811D01*
X0324977Y0052811D02*
X0324975Y0052862D01*
X0324970Y0052912D01*
X0324961Y0052962D01*
X0324948Y0053011D01*
X0324932Y0053059D01*
X0324913Y0053106D01*
X0324890Y0053151D01*
X0324864Y0053194D01*
X0324836Y0053236D01*
X0324804Y0053275D01*
X0324769Y0053312D01*
X0324732Y0053347D01*
X0324693Y0053379D01*
X0324651Y0053407D01*
X0324608Y0053433D01*
X0324563Y0053456D01*
X0324516Y0053475D01*
X0324468Y0053491D01*
X0324419Y0053504D01*
X0324369Y0053513D01*
X0324319Y0053518D01*
X0324268Y0053520D01*
X0326276Y0052811D02*
X0326276Y0050764D01*
X0326275Y0050764D02*
X0326277Y0050713D01*
X0326282Y0050663D01*
X0326291Y0050613D01*
X0326304Y0050564D01*
X0326320Y0050516D01*
X0326339Y0050469D01*
X0326362Y0050424D01*
X0326388Y0050381D01*
X0326416Y0050339D01*
X0326448Y0050300D01*
X0326483Y0050263D01*
X0326520Y0050228D01*
X0326559Y0050196D01*
X0326601Y0050168D01*
X0326644Y0050142D01*
X0326689Y0050119D01*
X0326736Y0050100D01*
X0326784Y0050084D01*
X0326833Y0050071D01*
X0326883Y0050062D01*
X0326933Y0050057D01*
X0326984Y0050055D01*
X0327693Y0050055D01*
X0327724Y0050057D01*
X0327754Y0050062D01*
X0327784Y0050070D01*
X0327813Y0050082D01*
X0327840Y0050097D01*
X0327865Y0050115D01*
X0327888Y0050136D01*
X0327909Y0050159D01*
X0327927Y0050184D01*
X0327942Y0050211D01*
X0327954Y0050240D01*
X0327962Y0050270D01*
X0327967Y0050300D01*
X0327969Y0050331D01*
X0328165Y0051787D02*
X0328165Y0052732D01*
X0328166Y0052811D02*
X0328164Y0052862D01*
X0328159Y0052912D01*
X0328150Y0052962D01*
X0328137Y0053011D01*
X0328121Y0053059D01*
X0328102Y0053106D01*
X0328079Y0053151D01*
X0328053Y0053194D01*
X0328025Y0053236D01*
X0327993Y0053275D01*
X0327958Y0053312D01*
X0327921Y0053347D01*
X0327882Y0053379D01*
X0327840Y0053407D01*
X0327797Y0053433D01*
X0327752Y0053456D01*
X0327705Y0053475D01*
X0327657Y0053491D01*
X0327608Y0053504D01*
X0327558Y0053513D01*
X0327508Y0053518D01*
X0327457Y0053520D01*
X0326984Y0053520D01*
X0326933Y0053518D01*
X0326883Y0053513D01*
X0326833Y0053504D01*
X0326784Y0053491D01*
X0326736Y0053475D01*
X0326689Y0053456D01*
X0326644Y0053433D01*
X0326601Y0053407D01*
X0326559Y0053379D01*
X0326520Y0053347D01*
X0326483Y0053312D01*
X0326448Y0053275D01*
X0326416Y0053236D01*
X0326388Y0053194D01*
X0326362Y0053151D01*
X0326339Y0053106D01*
X0326320Y0053059D01*
X0326304Y0053011D01*
X0326291Y0052962D01*
X0326282Y0052912D01*
X0326277Y0052862D01*
X0326275Y0052811D01*
X0326512Y0051787D02*
X0328165Y0051787D01*
X0329504Y0050055D02*
X0329504Y0053520D01*
X0330685Y0053520D01*
X0330736Y0053518D01*
X0330786Y0053513D01*
X0330836Y0053504D01*
X0330885Y0053491D01*
X0330933Y0053475D01*
X0330980Y0053456D01*
X0331025Y0053433D01*
X0331068Y0053407D01*
X0331110Y0053379D01*
X0331149Y0053347D01*
X0331186Y0053312D01*
X0331221Y0053275D01*
X0331253Y0053236D01*
X0331281Y0053194D01*
X0331307Y0053151D01*
X0331330Y0053106D01*
X0331349Y0053059D01*
X0331365Y0053011D01*
X0331378Y0052962D01*
X0331387Y0052912D01*
X0331392Y0052862D01*
X0331394Y0052811D01*
X0331394Y0050055D01*
X0334228Y0050764D02*
X0334228Y0052811D01*
X0334230Y0052862D01*
X0334235Y0052912D01*
X0334244Y0052962D01*
X0334257Y0053011D01*
X0334273Y0053059D01*
X0334292Y0053106D01*
X0334315Y0053151D01*
X0334341Y0053194D01*
X0334369Y0053236D01*
X0334401Y0053275D01*
X0334436Y0053312D01*
X0334473Y0053347D01*
X0334512Y0053379D01*
X0334554Y0053407D01*
X0334597Y0053433D01*
X0334642Y0053456D01*
X0334689Y0053475D01*
X0334737Y0053491D01*
X0334786Y0053504D01*
X0334836Y0053513D01*
X0334886Y0053518D01*
X0334937Y0053520D01*
X0335409Y0053520D01*
X0335460Y0053518D01*
X0335510Y0053513D01*
X0335560Y0053504D01*
X0335609Y0053491D01*
X0335657Y0053475D01*
X0335704Y0053456D01*
X0335749Y0053433D01*
X0335792Y0053407D01*
X0335834Y0053379D01*
X0335873Y0053347D01*
X0335910Y0053312D01*
X0335945Y0053275D01*
X0335977Y0053236D01*
X0336005Y0053194D01*
X0336031Y0053151D01*
X0336054Y0053106D01*
X0336073Y0053059D01*
X0336089Y0053011D01*
X0336102Y0052962D01*
X0336111Y0052912D01*
X0336116Y0052862D01*
X0336118Y0052811D01*
X0336118Y0052732D02*
X0336118Y0051787D01*
X0334465Y0051787D01*
X0334228Y0050764D02*
X0334230Y0050713D01*
X0334235Y0050663D01*
X0334244Y0050613D01*
X0334257Y0050564D01*
X0334273Y0050516D01*
X0334292Y0050469D01*
X0334315Y0050424D01*
X0334341Y0050381D01*
X0334369Y0050339D01*
X0334401Y0050300D01*
X0334436Y0050263D01*
X0334473Y0050228D01*
X0334512Y0050196D01*
X0334554Y0050168D01*
X0334597Y0050142D01*
X0334642Y0050119D01*
X0334689Y0050100D01*
X0334737Y0050084D01*
X0334786Y0050071D01*
X0334836Y0050062D01*
X0334886Y0050057D01*
X0334937Y0050055D01*
X0335646Y0050055D01*
X0335677Y0050057D01*
X0335707Y0050062D01*
X0335737Y0050070D01*
X0335766Y0050082D01*
X0335793Y0050097D01*
X0335818Y0050115D01*
X0335841Y0050136D01*
X0335862Y0050159D01*
X0335880Y0050184D01*
X0335895Y0050211D01*
X0335907Y0050240D01*
X0335915Y0050270D01*
X0335920Y0050300D01*
X0335922Y0050331D01*
X0337378Y0050055D02*
X0338559Y0050055D01*
X0338610Y0050057D01*
X0338660Y0050062D01*
X0338710Y0050071D01*
X0338759Y0050084D01*
X0338807Y0050100D01*
X0338854Y0050119D01*
X0338899Y0050142D01*
X0338942Y0050168D01*
X0338984Y0050196D01*
X0339023Y0050228D01*
X0339060Y0050263D01*
X0339095Y0050300D01*
X0339127Y0050339D01*
X0339155Y0050381D01*
X0339181Y0050424D01*
X0339204Y0050469D01*
X0339223Y0050516D01*
X0339239Y0050564D01*
X0339252Y0050613D01*
X0339261Y0050663D01*
X0339266Y0050713D01*
X0339268Y0050764D01*
X0339268Y0052811D01*
X0339266Y0052862D01*
X0339261Y0052912D01*
X0339252Y0052962D01*
X0339239Y0053011D01*
X0339223Y0053059D01*
X0339204Y0053106D01*
X0339181Y0053151D01*
X0339155Y0053194D01*
X0339127Y0053236D01*
X0339095Y0053275D01*
X0339060Y0053312D01*
X0339023Y0053347D01*
X0338984Y0053379D01*
X0338942Y0053407D01*
X0338899Y0053433D01*
X0338854Y0053456D01*
X0338807Y0053475D01*
X0338759Y0053491D01*
X0338710Y0053504D01*
X0338660Y0053513D01*
X0338610Y0053518D01*
X0338559Y0053520D01*
X0337378Y0053520D01*
X0337378Y0050055D01*
X0337378Y0050016D02*
X0337378Y0047969D01*
X0340685Y0050094D02*
X0340685Y0055685D01*
X0340961Y0053520D02*
X0341866Y0053520D01*
X0341917Y0053518D01*
X0341967Y0053513D01*
X0342017Y0053504D01*
X0342066Y0053491D01*
X0342114Y0053475D01*
X0342161Y0053456D01*
X0342206Y0053433D01*
X0342249Y0053407D01*
X0342291Y0053379D01*
X0342330Y0053347D01*
X0342367Y0053312D01*
X0342402Y0053275D01*
X0342434Y0053236D01*
X0342462Y0053194D01*
X0342488Y0053151D01*
X0342511Y0053106D01*
X0342530Y0053059D01*
X0342546Y0053011D01*
X0342559Y0052962D01*
X0342568Y0052912D01*
X0342573Y0052862D01*
X0342575Y0052811D01*
X0342614Y0050055D01*
X0344780Y0050094D02*
X0343480Y0053874D01*
X0346000Y0053874D02*
X0344346Y0048559D01*
X0344307Y0048480D02*
X0344031Y0048087D01*
X0343677Y0048008D01*
X0343480Y0048008D01*
X0346906Y0050252D02*
X0346906Y0050331D01*
X0346906Y0050252D02*
X0346984Y0050134D01*
X0347181Y0050016D01*
X0347339Y0049937D01*
X0347378Y0049937D02*
X0347850Y0049937D01*
X0347901Y0049939D01*
X0347951Y0049944D01*
X0348001Y0049953D01*
X0348050Y0049966D01*
X0348098Y0049982D01*
X0348145Y0050001D01*
X0348190Y0050024D01*
X0348233Y0050050D01*
X0348275Y0050078D01*
X0348314Y0050110D01*
X0348351Y0050145D01*
X0348386Y0050182D01*
X0348418Y0050221D01*
X0348446Y0050263D01*
X0348472Y0050306D01*
X0348495Y0050351D01*
X0348514Y0050398D01*
X0348530Y0050446D01*
X0348543Y0050495D01*
X0348552Y0050545D01*
X0348557Y0050595D01*
X0348559Y0050646D01*
X0348559Y0050685D02*
X0348559Y0050882D01*
X0348520Y0051079D01*
X0348165Y0051433D01*
X0347535Y0051906D01*
X0347654Y0051827D02*
X0347024Y0052299D01*
X0346866Y0052535D01*
X0346827Y0052732D01*
X0346827Y0052929D01*
X0346826Y0052969D02*
X0346828Y0053020D01*
X0346833Y0053070D01*
X0346842Y0053120D01*
X0346855Y0053169D01*
X0346871Y0053217D01*
X0346890Y0053264D01*
X0346913Y0053309D01*
X0346939Y0053352D01*
X0346967Y0053394D01*
X0346999Y0053433D01*
X0347034Y0053470D01*
X0347071Y0053505D01*
X0347110Y0053537D01*
X0347152Y0053565D01*
X0347195Y0053591D01*
X0347240Y0053614D01*
X0347287Y0053633D01*
X0347335Y0053649D01*
X0347384Y0053662D01*
X0347434Y0053671D01*
X0347484Y0053676D01*
X0347535Y0053678D01*
X0347535Y0053677D02*
X0348008Y0053677D01*
X0348047Y0053677D02*
X0348205Y0053598D01*
X0348402Y0053480D01*
X0348480Y0053362D01*
X0348480Y0053283D01*
X0323087Y0050016D02*
X0323087Y0047969D01*
X0321079Y0050055D02*
X0320606Y0050055D01*
X0320555Y0050057D01*
X0320505Y0050062D01*
X0320455Y0050071D01*
X0320406Y0050084D01*
X0320358Y0050100D01*
X0320311Y0050119D01*
X0320266Y0050142D01*
X0320223Y0050168D01*
X0320181Y0050196D01*
X0320142Y0050228D01*
X0320105Y0050263D01*
X0320070Y0050300D01*
X0320038Y0050339D01*
X0320010Y0050381D01*
X0319984Y0050424D01*
X0319961Y0050469D01*
X0319942Y0050516D01*
X0319926Y0050564D01*
X0319913Y0050613D01*
X0319904Y0050663D01*
X0319899Y0050713D01*
X0319897Y0050764D01*
X0319898Y0050764D02*
X0319898Y0052811D01*
X0319897Y0052811D02*
X0319899Y0052862D01*
X0319904Y0052912D01*
X0319913Y0052962D01*
X0319926Y0053011D01*
X0319942Y0053059D01*
X0319961Y0053106D01*
X0319984Y0053151D01*
X0320010Y0053194D01*
X0320038Y0053236D01*
X0320070Y0053275D01*
X0320105Y0053312D01*
X0320142Y0053347D01*
X0320181Y0053379D01*
X0320223Y0053407D01*
X0320266Y0053433D01*
X0320311Y0053456D01*
X0320358Y0053475D01*
X0320406Y0053491D01*
X0320455Y0053504D01*
X0320505Y0053513D01*
X0320555Y0053518D01*
X0320606Y0053520D01*
X0321079Y0053520D01*
X0321130Y0053518D01*
X0321180Y0053513D01*
X0321230Y0053504D01*
X0321279Y0053491D01*
X0321327Y0053475D01*
X0321374Y0053456D01*
X0321419Y0053433D01*
X0321462Y0053407D01*
X0321504Y0053379D01*
X0321543Y0053347D01*
X0321580Y0053312D01*
X0321615Y0053275D01*
X0321647Y0053236D01*
X0321675Y0053194D01*
X0321701Y0053151D01*
X0321724Y0053106D01*
X0321743Y0053059D01*
X0321759Y0053011D01*
X0321772Y0052962D01*
X0321781Y0052912D01*
X0321786Y0052862D01*
X0321788Y0052811D01*
X0321787Y0052811D02*
X0321787Y0050764D01*
X0321788Y0050764D02*
X0321786Y0050713D01*
X0321781Y0050663D01*
X0321772Y0050613D01*
X0321759Y0050564D01*
X0321743Y0050516D01*
X0321724Y0050469D01*
X0321701Y0050424D01*
X0321675Y0050381D01*
X0321647Y0050339D01*
X0321615Y0050300D01*
X0321580Y0050263D01*
X0321543Y0050228D01*
X0321504Y0050196D01*
X0321462Y0050168D01*
X0321419Y0050142D01*
X0321374Y0050119D01*
X0321327Y0050100D01*
X0321279Y0050084D01*
X0321230Y0050071D01*
X0321180Y0050062D01*
X0321130Y0050057D01*
X0321079Y0050055D01*
D61*
X0113992Y0104543D03*
X0114386Y0131315D03*
X0114386Y0158480D03*
D62*
X0121966Y0157201D03*
X0121966Y0159760D03*
X0121966Y0162319D03*
X0121966Y0154642D03*
X0106806Y0154642D03*
X0106806Y0157201D03*
X0106806Y0159760D03*
X0106806Y0162319D03*
X0106806Y0135154D03*
X0106806Y0132594D03*
X0106806Y0130035D03*
X0106806Y0127476D03*
X0121966Y0127476D03*
X0121966Y0130035D03*
X0121966Y0132594D03*
X0121966Y0135154D03*
X0121572Y0108382D03*
X0121572Y0105823D03*
X0121572Y0103264D03*
X0121572Y0100705D03*
X0106412Y0100705D03*
X0106412Y0103264D03*
X0106412Y0105823D03*
X0106412Y0108382D03*
D63*
X0110154Y0112124D03*
X0112713Y0112124D03*
X0115272Y0112124D03*
X0117831Y0112124D03*
X0118224Y0123735D03*
X0115665Y0123735D03*
X0113106Y0123735D03*
X0110547Y0123735D03*
X0110547Y0138895D03*
X0113106Y0138895D03*
X0115665Y0138895D03*
X0118224Y0138895D03*
X0118224Y0150900D03*
X0115665Y0150900D03*
X0113106Y0150900D03*
X0110547Y0150900D03*
X0110547Y0166061D03*
X0113106Y0166061D03*
X0115665Y0166061D03*
X0118224Y0166061D03*
X0117831Y0096963D03*
X0115272Y0096963D03*
X0112713Y0096963D03*
X0110154Y0096963D03*
M02*
