G75*
%MOIN*%
%OFA0B0*%
%FSLAX25Y25*%
%IPPOS*%
%LPD*%
%AMOC8*
5,1,8,0,0,1.08239X$1,22.5*
%
%ADD10C,0.00700*%
%ADD11C,0.01000*%
%ADD12C,0.00787*%
%ADD13C,0.00433*%
%ADD14C,0.00600*%
%ADD15C,0.00500*%
%ADD16C,0.02756*%
%ADD17R,0.07000X0.04000*%
%ADD18C,0.03937*%
%ADD19C,0.01969*%
%ADD20C,0.02227*%
D10*
X0177165Y0050034D02*
X0177574Y0049626D01*
X0178391Y0049626D01*
X0178799Y0050034D01*
X0180065Y0050034D02*
X0180065Y0050443D01*
X0180474Y0050851D01*
X0181291Y0050851D01*
X0181700Y0050443D01*
X0181700Y0050034D01*
X0181291Y0049626D01*
X0180474Y0049626D01*
X0180065Y0050034D01*
X0180474Y0050851D02*
X0180065Y0051260D01*
X0180065Y0051669D01*
X0180474Y0052077D01*
X0181291Y0052077D01*
X0181700Y0051669D01*
X0181700Y0051260D01*
X0181291Y0050851D01*
X0182965Y0050851D02*
X0184191Y0050851D01*
X0184600Y0050443D01*
X0184600Y0050034D01*
X0184191Y0049626D01*
X0183374Y0049626D01*
X0182965Y0050034D01*
X0182965Y0050851D01*
X0183782Y0051669D01*
X0184600Y0052077D01*
X0178799Y0051669D02*
X0178391Y0052077D01*
X0177574Y0052077D01*
X0177165Y0051669D01*
X0177165Y0050034D01*
X0190063Y0055043D02*
X0190063Y0057495D01*
X0191289Y0057495D01*
X0191698Y0057086D01*
X0191698Y0056269D01*
X0191289Y0055860D01*
X0190063Y0055860D01*
X0190880Y0055860D02*
X0191698Y0055043D01*
X0192963Y0056269D02*
X0194598Y0056269D01*
X0194189Y0057495D02*
X0192963Y0056269D01*
X0194189Y0055043D02*
X0194189Y0057495D01*
X0195863Y0057086D02*
X0195863Y0056677D01*
X0196272Y0056269D01*
X0197498Y0056269D01*
X0197498Y0057086D02*
X0197089Y0057495D01*
X0196272Y0057495D01*
X0195863Y0057086D01*
X0195863Y0055452D02*
X0196272Y0055043D01*
X0197089Y0055043D01*
X0197498Y0055452D01*
X0197498Y0057086D01*
X0188537Y0065389D02*
X0188128Y0064980D01*
X0187311Y0064980D01*
X0186902Y0065389D01*
X0186902Y0065797D01*
X0187311Y0066206D01*
X0188128Y0066206D01*
X0188537Y0065797D01*
X0188537Y0065389D01*
X0188128Y0066206D02*
X0188537Y0066614D01*
X0188537Y0067023D01*
X0188128Y0067432D01*
X0187311Y0067432D01*
X0186902Y0067023D01*
X0186902Y0066614D01*
X0187311Y0066206D01*
X0185637Y0066206D02*
X0184002Y0066206D01*
X0185228Y0067432D01*
X0185228Y0064980D01*
X0182736Y0064980D02*
X0181919Y0065797D01*
X0182328Y0065797D02*
X0181102Y0065797D01*
X0181102Y0064980D02*
X0181102Y0067432D01*
X0182328Y0067432D01*
X0182736Y0067023D01*
X0182736Y0066206D01*
X0182328Y0065797D01*
X0181934Y0069311D02*
X0182343Y0069719D01*
X0181934Y0069311D02*
X0181117Y0069311D01*
X0180708Y0069719D01*
X0180708Y0071354D01*
X0181117Y0071762D01*
X0181934Y0071762D01*
X0182343Y0071354D01*
X0183608Y0070536D02*
X0185243Y0070536D01*
X0184834Y0069311D02*
X0184834Y0071762D01*
X0183608Y0070536D01*
X0186508Y0071354D02*
X0186917Y0071762D01*
X0187734Y0071762D01*
X0188143Y0071354D01*
X0188143Y0070945D01*
X0186508Y0069311D01*
X0188143Y0069311D01*
X0202935Y0070274D02*
X0203343Y0069866D01*
X0204978Y0069866D01*
X0205386Y0070274D01*
X0205386Y0071092D01*
X0204978Y0071500D01*
X0205386Y0072766D02*
X0205386Y0074400D01*
X0205386Y0073583D02*
X0202935Y0073583D01*
X0203752Y0072766D01*
X0203343Y0071500D02*
X0202935Y0071092D01*
X0202935Y0070274D01*
X0203343Y0075666D02*
X0203752Y0075666D01*
X0204160Y0076075D01*
X0204160Y0076892D01*
X0204569Y0077300D01*
X0204978Y0077300D01*
X0205386Y0076892D01*
X0205386Y0076075D01*
X0204978Y0075666D01*
X0204569Y0075666D01*
X0204160Y0076075D01*
X0204160Y0076892D02*
X0203752Y0077300D01*
X0203343Y0077300D01*
X0202935Y0076892D01*
X0202935Y0076075D01*
X0203343Y0075666D01*
X0202695Y0080334D02*
X0203104Y0080743D01*
X0203104Y0081151D01*
X0202695Y0081560D01*
X0201469Y0081560D01*
X0201469Y0080743D01*
X0201878Y0080334D01*
X0202695Y0080334D01*
X0201469Y0081560D02*
X0202286Y0082377D01*
X0203104Y0082786D01*
X0200203Y0081560D02*
X0198569Y0081560D01*
X0199795Y0082786D01*
X0199795Y0080334D01*
X0197303Y0080334D02*
X0196486Y0081151D01*
X0196895Y0081151D02*
X0195669Y0081151D01*
X0195669Y0080334D02*
X0195669Y0082786D01*
X0196895Y0082786D01*
X0197303Y0082377D01*
X0197303Y0081560D01*
X0196895Y0081151D01*
X0200710Y0086220D02*
X0200710Y0087446D01*
X0201119Y0087855D01*
X0201936Y0087855D01*
X0202345Y0087446D01*
X0202345Y0086220D01*
X0203162Y0086220D02*
X0200710Y0086220D01*
X0202345Y0087037D02*
X0203162Y0087855D01*
X0201936Y0089120D02*
X0201936Y0090755D01*
X0203162Y0090346D02*
X0200710Y0090346D01*
X0201936Y0089120D01*
X0202753Y0092020D02*
X0203162Y0092020D01*
X0202753Y0092020D02*
X0201119Y0093655D01*
X0200710Y0093655D01*
X0200710Y0092020D01*
X0207690Y0091501D02*
X0207690Y0090684D01*
X0208099Y0090275D01*
X0209734Y0090275D01*
X0210142Y0090684D01*
X0210142Y0091501D01*
X0209734Y0091910D01*
X0210142Y0093175D02*
X0210142Y0094810D01*
X0210142Y0093993D02*
X0207690Y0093993D01*
X0208508Y0093175D01*
X0208099Y0091910D02*
X0207690Y0091501D01*
X0208099Y0096075D02*
X0207690Y0096484D01*
X0207690Y0097301D01*
X0208099Y0097710D01*
X0208508Y0097710D01*
X0210142Y0096075D01*
X0210142Y0097710D01*
X0236614Y0094991D02*
X0236614Y0092539D01*
X0238248Y0092539D01*
X0239514Y0092948D02*
X0239514Y0093356D01*
X0239923Y0093765D01*
X0240740Y0093765D01*
X0241148Y0093356D01*
X0241148Y0092948D01*
X0240740Y0092539D01*
X0239923Y0092539D01*
X0239514Y0092948D01*
X0239923Y0093765D02*
X0239514Y0094173D01*
X0239514Y0094582D01*
X0239923Y0094991D01*
X0240740Y0094991D01*
X0241148Y0094582D01*
X0241148Y0094173D01*
X0240740Y0093765D01*
X0237341Y0085542D02*
X0236523Y0085542D01*
X0236115Y0085133D01*
X0234849Y0085133D02*
X0234441Y0085542D01*
X0233623Y0085542D01*
X0233215Y0085133D01*
X0231949Y0085133D02*
X0231949Y0084316D01*
X0231540Y0083907D01*
X0230315Y0083907D01*
X0231132Y0083907D02*
X0231949Y0083090D01*
X0233215Y0083090D02*
X0234849Y0084725D01*
X0234849Y0085133D01*
X0234849Y0083090D02*
X0233215Y0083090D01*
X0231949Y0085133D02*
X0231540Y0085542D01*
X0230315Y0085542D01*
X0230315Y0083090D01*
X0236115Y0083090D02*
X0237749Y0084725D01*
X0237749Y0085133D01*
X0237341Y0085542D01*
X0237749Y0083090D02*
X0236115Y0083090D01*
X0212971Y0082861D02*
X0212563Y0082452D01*
X0211745Y0082452D01*
X0211337Y0082861D01*
X0211337Y0083678D02*
X0212154Y0084087D01*
X0212563Y0084087D01*
X0212971Y0083678D01*
X0212971Y0082861D01*
X0211337Y0083678D02*
X0211337Y0084904D01*
X0212971Y0084904D01*
X0210071Y0084904D02*
X0210071Y0082861D01*
X0209662Y0082452D01*
X0208845Y0082452D01*
X0208437Y0082861D01*
X0208437Y0084904D01*
X0163340Y0068204D02*
X0162931Y0068613D01*
X0162114Y0068613D01*
X0161705Y0068204D01*
X0161705Y0067795D01*
X0162114Y0067387D01*
X0163340Y0067387D01*
X0163340Y0066570D02*
X0163340Y0068204D01*
X0163340Y0066570D02*
X0162931Y0066161D01*
X0162114Y0066161D01*
X0161705Y0066570D01*
X0160440Y0067387D02*
X0158805Y0067387D01*
X0160031Y0068613D01*
X0160031Y0066161D01*
X0157540Y0066570D02*
X0157131Y0066161D01*
X0156314Y0066161D01*
X0155905Y0066570D01*
X0155905Y0068204D01*
X0156314Y0068613D01*
X0157131Y0068613D01*
X0157540Y0068204D01*
X0160111Y0061352D02*
X0161745Y0059717D01*
X0162154Y0060126D01*
X0162154Y0060943D01*
X0161745Y0061352D01*
X0160111Y0061352D01*
X0159702Y0060943D01*
X0159702Y0060126D01*
X0160111Y0059717D01*
X0161745Y0059717D01*
X0162154Y0058452D02*
X0162154Y0056817D01*
X0162154Y0057634D02*
X0159702Y0057634D01*
X0160519Y0056817D01*
X0159702Y0055551D02*
X0161745Y0055551D01*
X0162154Y0055143D01*
X0162154Y0054326D01*
X0161745Y0053917D01*
X0159702Y0053917D01*
X0110099Y0071035D02*
X0107647Y0071035D01*
X0107647Y0072261D01*
X0108056Y0072670D01*
X0108873Y0072670D01*
X0109282Y0072261D01*
X0109282Y0071035D01*
X0109282Y0071852D02*
X0110099Y0072670D01*
X0109690Y0073935D02*
X0110099Y0074344D01*
X0110099Y0075161D01*
X0109690Y0075570D01*
X0108873Y0075570D01*
X0108464Y0075161D01*
X0108464Y0074752D01*
X0108873Y0073935D01*
X0107647Y0073935D01*
X0107647Y0075570D01*
X0108056Y0076835D02*
X0107647Y0077244D01*
X0107647Y0078061D01*
X0108056Y0078470D01*
X0109690Y0076835D01*
X0110099Y0077244D01*
X0110099Y0078061D01*
X0109690Y0078470D01*
X0108056Y0078470D01*
X0108056Y0076835D02*
X0109690Y0076835D01*
X0109282Y0090326D02*
X0109282Y0091552D01*
X0108873Y0091961D01*
X0108056Y0091961D01*
X0107647Y0091552D01*
X0107647Y0090326D01*
X0110099Y0090326D01*
X0109282Y0091144D02*
X0110099Y0091961D01*
X0109690Y0093226D02*
X0110099Y0093635D01*
X0110099Y0094452D01*
X0109690Y0094861D01*
X0108873Y0094861D01*
X0108464Y0094452D01*
X0108464Y0094044D01*
X0108873Y0093226D01*
X0107647Y0093226D01*
X0107647Y0094861D01*
X0108464Y0096127D02*
X0107647Y0096944D01*
X0110099Y0096944D01*
X0110099Y0096127D02*
X0110099Y0097761D01*
X0110099Y0114736D02*
X0107647Y0114736D01*
X0107647Y0115962D01*
X0108056Y0116370D01*
X0108873Y0116370D01*
X0109282Y0115962D01*
X0109282Y0114736D01*
X0109282Y0115553D02*
X0110099Y0116370D01*
X0109690Y0117636D02*
X0110099Y0118045D01*
X0110099Y0118862D01*
X0109690Y0119270D01*
X0108873Y0119270D01*
X0108464Y0118862D01*
X0108464Y0118453D01*
X0108873Y0117636D01*
X0107647Y0117636D01*
X0107647Y0119270D01*
X0108056Y0120536D02*
X0107647Y0120945D01*
X0107647Y0121762D01*
X0108056Y0122171D01*
X0108464Y0122171D01*
X0108873Y0121762D01*
X0109282Y0122171D01*
X0109690Y0122171D01*
X0110099Y0121762D01*
X0110099Y0120945D01*
X0109690Y0120536D01*
X0108873Y0121353D02*
X0108873Y0121762D01*
X0108888Y0135996D02*
X0108888Y0137222D01*
X0108479Y0137630D01*
X0107662Y0137630D01*
X0107253Y0137222D01*
X0107253Y0135996D01*
X0109705Y0135996D01*
X0108888Y0136813D02*
X0109705Y0137630D01*
X0109297Y0138896D02*
X0109705Y0139304D01*
X0109705Y0140122D01*
X0109297Y0140530D01*
X0108479Y0140530D01*
X0108071Y0140122D01*
X0108071Y0139713D01*
X0108479Y0138896D01*
X0107253Y0138896D01*
X0107253Y0140530D01*
X0107662Y0141796D02*
X0107253Y0142205D01*
X0107253Y0143022D01*
X0107662Y0143430D01*
X0108071Y0143430D01*
X0109705Y0141796D01*
X0109705Y0143430D01*
X0125366Y0139628D02*
X0125366Y0137585D01*
X0125774Y0137177D01*
X0126592Y0137177D01*
X0127000Y0137585D01*
X0127000Y0139628D01*
X0128266Y0138811D02*
X0129083Y0139628D01*
X0129083Y0137177D01*
X0128266Y0137177D02*
X0129900Y0137177D01*
X0131166Y0137177D02*
X0132800Y0137177D01*
X0131983Y0137177D02*
X0131983Y0139628D01*
X0131166Y0138811D01*
X0153479Y0143415D02*
X0153479Y0143993D01*
X0153768Y0144282D01*
X0154346Y0144282D01*
X0154924Y0143704D01*
X0154924Y0143126D01*
X0154635Y0142837D01*
X0154057Y0142837D01*
X0153479Y0143415D01*
X0154346Y0144282D02*
X0154346Y0144860D01*
X0154635Y0145149D01*
X0155213Y0145149D01*
X0155791Y0144571D01*
X0155791Y0143993D01*
X0155502Y0143704D01*
X0154924Y0143704D01*
X0152584Y0144888D02*
X0154029Y0146333D01*
X0152873Y0147488D02*
X0151428Y0146044D01*
X0151428Y0145466D01*
X0152006Y0144888D01*
X0152584Y0144888D01*
X0184931Y0151845D02*
X0185339Y0151437D01*
X0186974Y0151437D01*
X0187382Y0151845D01*
X0187382Y0152662D01*
X0186974Y0153071D01*
X0186974Y0154337D02*
X0187382Y0154337D01*
X0186974Y0154337D02*
X0185339Y0155971D01*
X0184931Y0155971D01*
X0184931Y0154337D01*
X0185339Y0153071D02*
X0184931Y0152662D01*
X0184931Y0151845D01*
X0188488Y0149621D02*
X0188488Y0147169D01*
X0188488Y0147986D02*
X0189714Y0147986D01*
X0190123Y0148395D01*
X0190123Y0149212D01*
X0189714Y0149621D01*
X0188488Y0149621D01*
X0189305Y0147986D02*
X0190123Y0147169D01*
X0191388Y0147578D02*
X0191797Y0147169D01*
X0192614Y0147169D01*
X0193023Y0147578D01*
X0193023Y0148395D01*
X0192614Y0148803D01*
X0192206Y0148803D01*
X0191388Y0148395D01*
X0191388Y0149621D01*
X0193023Y0149621D01*
X0194288Y0149621D02*
X0194288Y0148395D01*
X0195106Y0148803D01*
X0195514Y0148803D01*
X0195923Y0148395D01*
X0195923Y0147578D01*
X0195514Y0147169D01*
X0194697Y0147169D01*
X0194288Y0147578D01*
X0194288Y0149621D02*
X0195923Y0149621D01*
X0220789Y0156314D02*
X0221197Y0155905D01*
X0222832Y0155905D01*
X0223241Y0156314D01*
X0223241Y0157131D01*
X0222832Y0157540D01*
X0222832Y0158805D02*
X0223241Y0158805D01*
X0222832Y0158805D02*
X0221197Y0160440D01*
X0220789Y0160440D01*
X0220789Y0158805D01*
X0221197Y0157540D02*
X0220789Y0157131D01*
X0220789Y0156314D01*
X0187382Y0157645D02*
X0186974Y0157237D01*
X0187382Y0157645D02*
X0187382Y0158463D01*
X0186974Y0158871D01*
X0186156Y0158871D01*
X0185748Y0158463D01*
X0185748Y0158054D01*
X0186156Y0157237D01*
X0184931Y0157237D01*
X0184931Y0158871D01*
X0183559Y0164098D02*
X0182742Y0164098D01*
X0182333Y0164507D01*
X0182333Y0165324D02*
X0183150Y0165732D01*
X0183559Y0165732D01*
X0183968Y0165324D01*
X0183968Y0164507D01*
X0183559Y0164098D01*
X0182333Y0165324D02*
X0182333Y0166550D01*
X0183968Y0166550D01*
X0185233Y0165324D02*
X0186868Y0165324D01*
X0186459Y0164098D02*
X0186459Y0166550D01*
X0185233Y0165324D01*
X0188488Y0167641D02*
X0188488Y0170093D01*
X0189714Y0170093D01*
X0190123Y0169684D01*
X0190123Y0168867D01*
X0189714Y0168459D01*
X0188488Y0168459D01*
X0189305Y0168459D02*
X0190123Y0167641D01*
X0191388Y0168867D02*
X0193023Y0168867D01*
X0194288Y0168867D02*
X0195106Y0169276D01*
X0195514Y0169276D01*
X0195923Y0168867D01*
X0195923Y0168050D01*
X0195514Y0167641D01*
X0194697Y0167641D01*
X0194288Y0168050D01*
X0194288Y0168867D02*
X0194288Y0170093D01*
X0195923Y0170093D01*
X0192614Y0170093D02*
X0191388Y0168867D01*
X0192614Y0167641D02*
X0192614Y0170093D01*
X0187382Y0172318D02*
X0187382Y0173135D01*
X0186974Y0173544D01*
X0186974Y0174809D02*
X0187382Y0175218D01*
X0187382Y0176035D01*
X0186974Y0176444D01*
X0186565Y0176444D01*
X0186156Y0176035D01*
X0186156Y0175626D01*
X0186156Y0176035D02*
X0185748Y0176444D01*
X0185339Y0176444D01*
X0184931Y0176035D01*
X0184931Y0175218D01*
X0185339Y0174809D01*
X0185339Y0173544D02*
X0184931Y0173135D01*
X0184931Y0172318D01*
X0185339Y0171909D01*
X0186974Y0171909D01*
X0187382Y0172318D01*
X0186974Y0177709D02*
X0187382Y0178118D01*
X0187382Y0178935D01*
X0186974Y0179344D01*
X0186565Y0179344D01*
X0186156Y0178935D01*
X0186156Y0178527D01*
X0186156Y0178935D02*
X0185748Y0179344D01*
X0185339Y0179344D01*
X0184931Y0178935D01*
X0184931Y0178118D01*
X0185339Y0177709D01*
X0174287Y0177240D02*
X0174287Y0176662D01*
X0173709Y0176084D01*
X0173131Y0176084D01*
X0173131Y0178396D01*
X0174287Y0177240D01*
X0173131Y0176084D02*
X0171975Y0177240D01*
X0171975Y0177818D01*
X0172553Y0178396D01*
X0173131Y0178396D01*
X0172525Y0174901D02*
X0171369Y0173745D01*
X0171947Y0174323D02*
X0170214Y0176056D01*
X0170214Y0174901D01*
X0170474Y0172850D02*
X0169319Y0171694D01*
X0167585Y0173428D01*
X0162232Y0178781D02*
X0163388Y0179936D01*
X0163994Y0181120D02*
X0164572Y0181120D01*
X0165150Y0181698D01*
X0165150Y0182276D01*
X0163994Y0183432D01*
X0163416Y0183432D01*
X0162838Y0182854D01*
X0162838Y0182276D01*
X0163127Y0181987D01*
X0163705Y0181987D01*
X0164572Y0182854D01*
X0164637Y0186783D02*
X0164637Y0189235D01*
X0165863Y0189235D01*
X0166272Y0188826D01*
X0166272Y0188009D01*
X0165863Y0187600D01*
X0164637Y0187600D01*
X0165455Y0187600D02*
X0166272Y0186783D01*
X0167538Y0186783D02*
X0169172Y0188418D01*
X0169172Y0188826D01*
X0168763Y0189235D01*
X0167946Y0189235D01*
X0167538Y0188826D01*
X0167538Y0186783D02*
X0169172Y0186783D01*
X0170438Y0186783D02*
X0170438Y0187192D01*
X0172072Y0188826D01*
X0172072Y0189235D01*
X0170438Y0189235D01*
X0157358Y0184327D02*
X0157358Y0183749D01*
X0156780Y0183171D01*
X0156202Y0183171D01*
X0156202Y0184327D02*
X0156491Y0184616D01*
X0157069Y0184616D01*
X0157358Y0184327D01*
X0156491Y0184616D02*
X0156491Y0185194D01*
X0156202Y0185483D01*
X0155624Y0185483D01*
X0155046Y0184905D01*
X0155046Y0184327D01*
X0154151Y0183432D02*
X0154440Y0183143D01*
X0154440Y0182565D01*
X0153862Y0181987D01*
X0153285Y0181987D01*
X0152996Y0182276D01*
X0152996Y0182854D01*
X0153573Y0183432D01*
X0154151Y0183432D01*
X0154440Y0182565D02*
X0155018Y0182565D01*
X0155307Y0182276D01*
X0155307Y0181698D01*
X0154729Y0181120D01*
X0154151Y0181120D01*
X0153862Y0181409D01*
X0153862Y0181987D01*
X0152101Y0181381D02*
X0151523Y0181381D01*
X0150945Y0180803D01*
X0150945Y0180225D01*
X0152101Y0179070D01*
X0152679Y0179070D01*
X0153256Y0179648D01*
X0153256Y0180225D01*
X0151306Y0185614D02*
X0149672Y0185614D01*
X0151306Y0187249D01*
X0151306Y0187657D01*
X0150898Y0188066D01*
X0150080Y0188066D01*
X0149672Y0187657D01*
X0147589Y0188066D02*
X0147589Y0185614D01*
X0146772Y0185614D02*
X0148406Y0185614D01*
X0146772Y0187249D02*
X0147589Y0188066D01*
X0145506Y0187657D02*
X0145506Y0186840D01*
X0145097Y0186431D01*
X0143872Y0186431D01*
X0143872Y0185614D02*
X0143872Y0188066D01*
X0145097Y0188066D01*
X0145506Y0187657D01*
X0144689Y0186431D02*
X0145506Y0185614D01*
X0139349Y0187123D02*
X0137715Y0187123D01*
X0138941Y0188349D01*
X0138941Y0185897D01*
X0136449Y0186306D02*
X0136040Y0185897D01*
X0135223Y0185897D01*
X0134815Y0186306D01*
X0134815Y0187940D01*
X0135223Y0188349D01*
X0136040Y0188349D01*
X0136449Y0187940D01*
X0131525Y0186778D02*
X0130708Y0186369D01*
X0129890Y0185552D01*
X0131116Y0185552D01*
X0131525Y0185144D01*
X0131525Y0184735D01*
X0131116Y0184326D01*
X0130299Y0184326D01*
X0129890Y0184735D01*
X0129890Y0185552D01*
X0128625Y0184326D02*
X0126990Y0184326D01*
X0127807Y0184326D02*
X0127807Y0186778D01*
X0126990Y0185961D01*
X0125725Y0186369D02*
X0125725Y0185552D01*
X0125316Y0185144D01*
X0124090Y0185144D01*
X0124907Y0185144D02*
X0125725Y0184326D01*
X0124090Y0184326D02*
X0124090Y0186778D01*
X0125316Y0186778D01*
X0125725Y0186369D01*
X0116618Y0188154D02*
X0114984Y0188154D01*
X0116618Y0189788D01*
X0116618Y0190197D01*
X0116209Y0190606D01*
X0115392Y0190606D01*
X0114984Y0190197D01*
X0113718Y0190197D02*
X0113718Y0188563D01*
X0113309Y0188154D01*
X0112492Y0188154D01*
X0112084Y0188563D01*
X0112084Y0190197D01*
X0112492Y0190606D01*
X0113309Y0190606D01*
X0113718Y0190197D01*
X0112901Y0188971D02*
X0113718Y0188154D01*
X0096047Y0187760D02*
X0094413Y0187760D01*
X0096047Y0189395D01*
X0096047Y0189803D01*
X0095639Y0190212D01*
X0094821Y0190212D01*
X0094413Y0189803D01*
X0093147Y0189803D02*
X0092738Y0190212D01*
X0091513Y0190212D01*
X0091513Y0187760D01*
X0092738Y0187760D01*
X0093147Y0188169D01*
X0093147Y0189803D01*
X0080965Y0197269D02*
X0078513Y0197269D01*
X0078513Y0198903D01*
X0078922Y0200169D02*
X0078513Y0200578D01*
X0078513Y0201395D01*
X0078922Y0201803D01*
X0079330Y0201803D01*
X0079739Y0201395D01*
X0080148Y0201803D01*
X0080556Y0201803D01*
X0080965Y0201395D01*
X0080965Y0200578D01*
X0080556Y0200169D01*
X0079739Y0200986D02*
X0079739Y0201395D01*
X0079739Y0198086D02*
X0079739Y0197269D01*
X0092483Y0198983D02*
X0092483Y0200208D01*
X0092891Y0200617D01*
X0093708Y0200617D01*
X0094117Y0200208D01*
X0094117Y0198983D01*
X0094117Y0199800D02*
X0094934Y0200617D01*
X0094934Y0201883D02*
X0094934Y0203517D01*
X0094934Y0202700D02*
X0092483Y0202700D01*
X0093300Y0201883D01*
X0093300Y0204783D02*
X0092483Y0205600D01*
X0094934Y0205600D01*
X0094934Y0204783D02*
X0094934Y0206417D01*
X0097979Y0206869D02*
X0097979Y0209321D01*
X0099205Y0209321D01*
X0099613Y0208912D01*
X0099613Y0208095D01*
X0099205Y0207686D01*
X0097979Y0207686D01*
X0098796Y0207686D02*
X0099613Y0206869D01*
X0100879Y0206869D02*
X0102513Y0206869D01*
X0101696Y0206869D02*
X0101696Y0209321D01*
X0100879Y0208503D01*
X0103779Y0208095D02*
X0105414Y0208095D01*
X0105005Y0209321D02*
X0103779Y0208095D01*
X0105005Y0206869D02*
X0105005Y0209321D01*
X0106640Y0209321D02*
X0107866Y0209321D01*
X0108275Y0208912D01*
X0108275Y0208095D01*
X0107866Y0207686D01*
X0106640Y0207686D01*
X0106640Y0206869D02*
X0106640Y0209321D01*
X0107458Y0207686D02*
X0108275Y0206869D01*
X0109540Y0206869D02*
X0111175Y0206869D01*
X0110358Y0206869D02*
X0110358Y0209321D01*
X0109540Y0208503D01*
X0112441Y0208095D02*
X0113258Y0208503D01*
X0113666Y0208503D01*
X0114075Y0208095D01*
X0114075Y0207278D01*
X0113666Y0206869D01*
X0112849Y0206869D01*
X0112441Y0207278D01*
X0112441Y0208095D02*
X0112441Y0209321D01*
X0114075Y0209321D01*
X0115302Y0209321D02*
X0116528Y0209321D01*
X0116936Y0208912D01*
X0116936Y0208095D01*
X0116528Y0207686D01*
X0115302Y0207686D01*
X0116119Y0207686D02*
X0116936Y0206869D01*
X0118202Y0206869D02*
X0119836Y0206869D01*
X0119019Y0206869D02*
X0119019Y0209321D01*
X0118202Y0208503D01*
X0121102Y0208912D02*
X0121511Y0209321D01*
X0122328Y0209321D01*
X0122736Y0208912D01*
X0122736Y0208503D01*
X0122328Y0208095D01*
X0122736Y0207686D01*
X0122736Y0207277D01*
X0122328Y0206869D01*
X0121511Y0206869D01*
X0121102Y0207277D01*
X0121919Y0208095D02*
X0122328Y0208095D01*
X0124664Y0213235D02*
X0124239Y0215650D01*
X0125446Y0215863D01*
X0125919Y0215531D01*
X0126061Y0214726D01*
X0125730Y0214253D01*
X0124522Y0214040D01*
X0125327Y0214182D02*
X0126274Y0213519D01*
X0127520Y0213739D02*
X0129130Y0214023D01*
X0128325Y0213881D02*
X0127900Y0216295D01*
X0127237Y0215348D01*
X0130022Y0216254D02*
X0130306Y0214645D01*
X0131631Y0216538D01*
X0131915Y0214929D01*
X0131584Y0214455D01*
X0130779Y0214313D01*
X0130306Y0214645D01*
X0130022Y0216254D02*
X0130353Y0216728D01*
X0131158Y0216870D01*
X0131631Y0216538D01*
X0132515Y0216722D02*
X0133741Y0216722D01*
X0134150Y0217131D01*
X0134150Y0217948D01*
X0133741Y0218357D01*
X0132515Y0218357D01*
X0132515Y0215905D01*
X0133333Y0216722D02*
X0134150Y0215905D01*
X0135415Y0215905D02*
X0135415Y0216314D01*
X0137050Y0217948D01*
X0137050Y0218357D01*
X0135415Y0218357D01*
X0138658Y0218435D02*
X0138658Y0216801D01*
X0139066Y0216392D01*
X0139884Y0216392D01*
X0140292Y0216801D01*
X0141558Y0216392D02*
X0143192Y0218027D01*
X0143192Y0218435D01*
X0142784Y0218844D01*
X0141967Y0218844D01*
X0141558Y0218435D01*
X0140292Y0218435D02*
X0139884Y0218844D01*
X0139066Y0218844D01*
X0138658Y0218435D01*
X0141558Y0216392D02*
X0143192Y0216392D01*
X0148599Y0216767D02*
X0148599Y0215132D01*
X0149008Y0214724D01*
X0149825Y0214724D01*
X0150233Y0215132D01*
X0151499Y0215132D02*
X0151908Y0214724D01*
X0152725Y0214724D01*
X0153134Y0215132D01*
X0153134Y0215541D01*
X0152725Y0215949D01*
X0152316Y0215949D01*
X0152725Y0215949D02*
X0153134Y0216358D01*
X0153134Y0216767D01*
X0152725Y0217175D01*
X0151908Y0217175D01*
X0151499Y0216767D01*
X0150233Y0216767D02*
X0149825Y0217175D01*
X0149008Y0217175D01*
X0148599Y0216767D01*
X0161392Y0218592D02*
X0161392Y0219409D01*
X0161392Y0219000D02*
X0163844Y0219000D01*
X0163844Y0218592D02*
X0163844Y0219409D01*
X0163844Y0220525D02*
X0161392Y0220525D01*
X0163844Y0222160D01*
X0161392Y0222160D01*
X0161392Y0223425D02*
X0161392Y0224651D01*
X0161801Y0225060D01*
X0162618Y0225060D01*
X0163027Y0224651D01*
X0163027Y0223425D01*
X0163844Y0223425D02*
X0161392Y0223425D01*
X0161392Y0226325D02*
X0163436Y0226325D01*
X0163844Y0226734D01*
X0163844Y0227551D01*
X0163436Y0227960D01*
X0161392Y0227960D01*
X0161392Y0229225D02*
X0161392Y0230860D01*
X0161392Y0230043D02*
X0163844Y0230043D01*
X0166117Y0230451D02*
X0166117Y0229634D01*
X0166525Y0229225D01*
X0168160Y0229225D01*
X0168569Y0229634D01*
X0168569Y0230451D01*
X0168160Y0230860D01*
X0166525Y0230860D02*
X0166117Y0230451D01*
X0166117Y0228109D02*
X0166117Y0227292D01*
X0166117Y0227701D02*
X0168569Y0227701D01*
X0168569Y0228109D02*
X0168569Y0227292D01*
X0168160Y0226026D02*
X0167343Y0226026D01*
X0167343Y0225209D01*
X0168160Y0224392D02*
X0166525Y0224392D01*
X0166117Y0224801D01*
X0166117Y0225618D01*
X0166525Y0226026D01*
X0168160Y0226026D02*
X0168569Y0225618D01*
X0168569Y0224801D01*
X0168160Y0224392D01*
X0168160Y0223126D02*
X0166525Y0223126D01*
X0166117Y0222718D01*
X0166117Y0221900D01*
X0166525Y0221492D01*
X0168160Y0221492D01*
X0168569Y0221900D01*
X0168569Y0222718D01*
X0168160Y0223126D01*
X0170841Y0223684D02*
X0171250Y0224093D01*
X0172067Y0224093D01*
X0172476Y0223684D01*
X0172476Y0222459D01*
X0172476Y0223276D02*
X0173293Y0224093D01*
X0173293Y0225359D02*
X0173293Y0226993D01*
X0172884Y0228259D02*
X0173293Y0228667D01*
X0173293Y0229485D01*
X0172884Y0229893D01*
X0172476Y0229893D01*
X0172067Y0229485D01*
X0172067Y0228667D01*
X0171659Y0228259D01*
X0171250Y0228259D01*
X0170841Y0228667D01*
X0170841Y0229485D01*
X0171250Y0229893D01*
X0170841Y0231159D02*
X0173293Y0231159D01*
X0172067Y0231159D02*
X0172067Y0232793D01*
X0170841Y0232793D02*
X0173293Y0232793D01*
X0174409Y0237618D02*
X0174409Y0240069D01*
X0175635Y0240069D01*
X0176044Y0239661D01*
X0176044Y0238844D01*
X0175635Y0238435D01*
X0174409Y0238435D01*
X0175226Y0238435D02*
X0176044Y0237618D01*
X0177309Y0238026D02*
X0177718Y0237618D01*
X0178535Y0237618D01*
X0178944Y0238026D01*
X0178944Y0238435D01*
X0178535Y0238844D01*
X0177309Y0238844D01*
X0177309Y0238026D01*
X0177309Y0238844D02*
X0178126Y0239661D01*
X0178944Y0240069D01*
X0180209Y0239661D02*
X0180618Y0240069D01*
X0181435Y0240069D01*
X0181844Y0239661D01*
X0181844Y0239252D01*
X0180209Y0237618D01*
X0181844Y0237618D01*
X0184259Y0239673D02*
X0185125Y0240540D01*
X0185703Y0240540D01*
X0186281Y0239962D01*
X0186281Y0239384D01*
X0185414Y0238518D01*
X0185992Y0239096D02*
X0187148Y0239096D01*
X0187795Y0238888D02*
X0189021Y0238888D01*
X0189429Y0238480D01*
X0189429Y0237662D01*
X0189021Y0237254D01*
X0187795Y0237254D01*
X0188612Y0237254D02*
X0189429Y0236437D01*
X0190695Y0236845D02*
X0191104Y0236437D01*
X0191921Y0236437D01*
X0192329Y0236845D01*
X0192329Y0237254D01*
X0191921Y0237662D01*
X0190695Y0237662D01*
X0190695Y0236845D01*
X0190695Y0237662D02*
X0191512Y0238480D01*
X0192329Y0238888D01*
X0193595Y0238888D02*
X0193595Y0237662D01*
X0194412Y0238071D01*
X0194821Y0238071D01*
X0195230Y0237662D01*
X0195230Y0236845D01*
X0194821Y0236437D01*
X0194004Y0236437D01*
X0193595Y0236845D01*
X0193595Y0238888D02*
X0195230Y0238888D01*
X0190960Y0242908D02*
X0190382Y0242330D01*
X0189805Y0242330D01*
X0189805Y0243486D02*
X0190093Y0243775D01*
X0190671Y0243775D01*
X0190960Y0243486D01*
X0190960Y0242908D01*
X0190093Y0243775D02*
X0190093Y0244353D01*
X0189805Y0244642D01*
X0189227Y0244642D01*
X0188649Y0244064D01*
X0188649Y0243486D01*
X0187465Y0242880D02*
X0187176Y0242013D01*
X0187176Y0240857D01*
X0188043Y0241724D01*
X0188621Y0241724D01*
X0188910Y0241435D01*
X0188910Y0240857D01*
X0188332Y0240279D01*
X0187754Y0240279D01*
X0187176Y0240857D01*
X0187795Y0238888D02*
X0187795Y0236437D01*
X0185992Y0237940D02*
X0184259Y0239673D01*
X0169195Y0240130D02*
X0167561Y0240130D01*
X0169195Y0241765D01*
X0169195Y0242173D01*
X0168787Y0242582D01*
X0167970Y0242582D01*
X0167561Y0242173D01*
X0165478Y0242582D02*
X0165478Y0240130D01*
X0164661Y0240130D02*
X0166295Y0240130D01*
X0164661Y0241765D02*
X0165478Y0242582D01*
X0163395Y0242582D02*
X0163395Y0240539D01*
X0162987Y0240130D01*
X0162169Y0240130D01*
X0161761Y0240539D01*
X0161761Y0242582D01*
X0153807Y0242068D02*
X0153399Y0242477D01*
X0153807Y0242068D02*
X0153807Y0241251D01*
X0153399Y0240842D01*
X0151764Y0240842D01*
X0151356Y0241251D01*
X0151356Y0242068D01*
X0151764Y0242477D01*
X0152173Y0243742D02*
X0151356Y0244559D01*
X0153807Y0244559D01*
X0153807Y0243742D02*
X0153807Y0245377D01*
X0146017Y0248444D02*
X0144383Y0248444D01*
X0146017Y0250079D01*
X0146017Y0250488D01*
X0145608Y0250896D01*
X0144791Y0250896D01*
X0144383Y0250488D01*
X0143117Y0249670D02*
X0141482Y0249670D01*
X0142708Y0250896D01*
X0142708Y0248444D01*
X0140217Y0248444D02*
X0139400Y0249262D01*
X0139808Y0249262D02*
X0138582Y0249262D01*
X0138582Y0248444D02*
X0138582Y0250896D01*
X0139808Y0250896D01*
X0140217Y0250488D01*
X0140217Y0249670D01*
X0139808Y0249262D01*
X0146580Y0252639D02*
X0146988Y0252231D01*
X0147805Y0252231D01*
X0148214Y0252639D01*
X0149480Y0252639D02*
X0149888Y0252231D01*
X0150706Y0252231D01*
X0151114Y0252639D01*
X0151114Y0253457D01*
X0150706Y0253865D01*
X0150297Y0253865D01*
X0149480Y0253457D01*
X0149480Y0254682D01*
X0151114Y0254682D01*
X0152380Y0254274D02*
X0152380Y0253865D01*
X0152788Y0253457D01*
X0153606Y0253457D01*
X0154014Y0253048D01*
X0154014Y0252639D01*
X0153606Y0252231D01*
X0152788Y0252231D01*
X0152380Y0252639D01*
X0152380Y0253048D01*
X0152788Y0253457D01*
X0153606Y0253457D02*
X0154014Y0253865D01*
X0154014Y0254274D01*
X0153606Y0254682D01*
X0152788Y0254682D01*
X0152380Y0254274D01*
X0148214Y0254274D02*
X0147805Y0254682D01*
X0146988Y0254682D01*
X0146580Y0254274D01*
X0146580Y0252639D01*
X0121286Y0247510D02*
X0120469Y0247101D01*
X0119652Y0246284D01*
X0120878Y0246284D01*
X0121286Y0245875D01*
X0121286Y0245467D01*
X0120878Y0245058D01*
X0120061Y0245058D01*
X0119652Y0245467D01*
X0119652Y0246284D01*
X0118386Y0246284D02*
X0117978Y0245875D01*
X0116752Y0245875D01*
X0117569Y0245875D02*
X0118386Y0245058D01*
X0118386Y0246284D02*
X0118386Y0247101D01*
X0117978Y0247510D01*
X0116752Y0247510D01*
X0116752Y0245058D01*
X0112625Y0245467D02*
X0112216Y0245058D01*
X0111399Y0245058D01*
X0110991Y0245467D01*
X0110991Y0246284D02*
X0111808Y0246692D01*
X0112216Y0246692D01*
X0112625Y0246284D01*
X0112625Y0245467D01*
X0110991Y0246284D02*
X0110991Y0247510D01*
X0112625Y0247510D01*
X0109725Y0247101D02*
X0109725Y0246284D01*
X0109316Y0245875D01*
X0108090Y0245875D01*
X0108090Y0245058D02*
X0108090Y0247510D01*
X0109316Y0247510D01*
X0109725Y0247101D01*
X0108908Y0245875D02*
X0109725Y0245058D01*
X0104259Y0246284D02*
X0102624Y0246284D01*
X0103850Y0247510D01*
X0103850Y0245058D01*
X0101359Y0245058D02*
X0100541Y0245875D01*
X0100950Y0245875D02*
X0099724Y0245875D01*
X0099724Y0245058D02*
X0099724Y0247510D01*
X0100950Y0247510D01*
X0101359Y0247101D01*
X0101359Y0246284D01*
X0100950Y0245875D01*
X0099954Y0250019D02*
X0098320Y0250019D01*
X0099137Y0250019D02*
X0099137Y0252471D01*
X0098320Y0251654D01*
X0097054Y0251654D02*
X0097054Y0252062D01*
X0096645Y0252471D01*
X0095828Y0252471D01*
X0095419Y0252062D01*
X0094154Y0252062D02*
X0093745Y0252471D01*
X0092928Y0252471D01*
X0092519Y0252062D01*
X0092519Y0250428D01*
X0092928Y0250019D01*
X0093745Y0250019D01*
X0094154Y0250428D01*
X0095419Y0250019D02*
X0097054Y0251654D01*
X0097054Y0250019D02*
X0095419Y0250019D01*
X0089743Y0251759D02*
X0089743Y0252167D01*
X0089334Y0252576D01*
X0088108Y0252576D01*
X0088108Y0251759D01*
X0088517Y0251350D01*
X0089334Y0251350D01*
X0089743Y0251759D01*
X0088926Y0253393D02*
X0088108Y0252576D01*
X0088926Y0253393D02*
X0089743Y0253802D01*
X0086843Y0253802D02*
X0086843Y0251759D01*
X0086434Y0251350D01*
X0085617Y0251350D01*
X0085208Y0251759D01*
X0085208Y0253802D01*
X0082237Y0255546D02*
X0081829Y0255137D01*
X0081012Y0255137D01*
X0080603Y0255546D01*
X0082237Y0257180D01*
X0082237Y0255546D01*
X0080603Y0255546D02*
X0080603Y0257180D01*
X0081012Y0257589D01*
X0081829Y0257589D01*
X0082237Y0257180D01*
X0079337Y0257180D02*
X0079337Y0256772D01*
X0078929Y0256363D01*
X0079337Y0255955D01*
X0079337Y0255546D01*
X0078929Y0255137D01*
X0078111Y0255137D01*
X0077703Y0255546D01*
X0078520Y0256363D02*
X0078929Y0256363D01*
X0079337Y0257180D02*
X0078929Y0257589D01*
X0078111Y0257589D01*
X0077703Y0257180D01*
X0076437Y0257180D02*
X0076437Y0256363D01*
X0076029Y0255955D01*
X0074803Y0255955D01*
X0075620Y0255955D02*
X0076437Y0255137D01*
X0074803Y0255137D02*
X0074803Y0257589D01*
X0076029Y0257589D01*
X0076437Y0257180D01*
X0065760Y0256737D02*
X0065760Y0255511D01*
X0063309Y0255511D01*
X0063309Y0256737D01*
X0063717Y0257146D01*
X0065352Y0257146D01*
X0065760Y0256737D01*
X0065760Y0258412D02*
X0065352Y0258412D01*
X0063717Y0260046D01*
X0063309Y0260046D01*
X0063309Y0258412D01*
X0053800Y0247223D02*
X0053800Y0245589D01*
X0052165Y0247223D01*
X0051757Y0247223D01*
X0051348Y0246815D01*
X0051348Y0245997D01*
X0051757Y0245589D01*
X0051757Y0244323D02*
X0051348Y0243914D01*
X0051348Y0243097D01*
X0051757Y0242689D01*
X0052165Y0242689D01*
X0052574Y0243097D01*
X0052574Y0243914D01*
X0052982Y0244323D01*
X0053391Y0244323D01*
X0053800Y0243914D01*
X0053800Y0243097D01*
X0053391Y0242689D01*
X0074015Y0235936D02*
X0075241Y0235936D01*
X0075650Y0235527D01*
X0075650Y0234710D01*
X0075241Y0234301D01*
X0074015Y0234301D01*
X0074015Y0233484D02*
X0074015Y0235936D01*
X0074833Y0234301D02*
X0075650Y0233484D01*
X0076915Y0233484D02*
X0078550Y0235118D01*
X0078550Y0235527D01*
X0078141Y0235936D01*
X0077324Y0235936D01*
X0076915Y0235527D01*
X0076915Y0233484D02*
X0078550Y0233484D01*
X0079816Y0233892D02*
X0080224Y0233484D01*
X0081041Y0233484D01*
X0081450Y0233892D01*
X0081450Y0235527D01*
X0081041Y0235936D01*
X0080224Y0235936D01*
X0079816Y0235527D01*
X0079816Y0235118D01*
X0080224Y0234710D01*
X0081450Y0234710D01*
X0080965Y0231725D02*
X0080965Y0230090D01*
X0080965Y0230907D02*
X0078513Y0230907D01*
X0079330Y0230090D01*
X0078513Y0228825D02*
X0078513Y0227190D01*
X0080965Y0227190D01*
X0079739Y0227190D02*
X0079739Y0228007D01*
X0079330Y0216764D02*
X0078922Y0216764D01*
X0078513Y0216355D01*
X0078513Y0215538D01*
X0078922Y0215130D01*
X0078513Y0213864D02*
X0078513Y0212229D01*
X0080965Y0212229D01*
X0079739Y0212229D02*
X0079739Y0213047D01*
X0080965Y0215130D02*
X0079330Y0216764D01*
X0080965Y0216764D02*
X0080965Y0215130D01*
X0091906Y0217288D02*
X0093132Y0217288D01*
X0093541Y0217696D01*
X0093541Y0219331D01*
X0093132Y0219739D01*
X0091906Y0219739D01*
X0091906Y0217288D01*
X0094806Y0217288D02*
X0096441Y0217288D01*
X0095624Y0217288D02*
X0095624Y0219739D01*
X0094806Y0218922D01*
X0111887Y0218484D02*
X0111887Y0220118D01*
X0112295Y0220527D01*
X0113113Y0220527D01*
X0113521Y0220118D01*
X0113521Y0218484D01*
X0113113Y0218075D01*
X0112295Y0218075D01*
X0111887Y0218484D01*
X0112704Y0218892D02*
X0113521Y0218075D01*
X0114787Y0218075D02*
X0116421Y0218075D01*
X0115604Y0218075D02*
X0115604Y0220527D01*
X0114787Y0219710D01*
X0115302Y0209321D02*
X0115302Y0206869D01*
X0136781Y0207512D02*
X0138824Y0207512D01*
X0139233Y0207103D01*
X0139233Y0206286D01*
X0138824Y0205878D01*
X0136781Y0205878D01*
X0137190Y0208778D02*
X0136781Y0209186D01*
X0136781Y0210004D01*
X0137190Y0210412D01*
X0137598Y0210412D01*
X0139233Y0208778D01*
X0139233Y0210412D01*
X0154913Y0204574D02*
X0155322Y0204165D01*
X0155730Y0204165D01*
X0156139Y0204574D01*
X0156139Y0206617D01*
X0156547Y0206617D02*
X0155730Y0206617D01*
X0157813Y0206208D02*
X0158222Y0206617D01*
X0159039Y0206617D01*
X0159448Y0206208D01*
X0159448Y0205799D01*
X0157813Y0204165D01*
X0159448Y0204165D01*
X0161584Y0208141D02*
X0161584Y0209367D01*
X0161993Y0209776D01*
X0163627Y0209776D01*
X0164036Y0209367D01*
X0164036Y0208141D01*
X0161584Y0208141D01*
X0161584Y0211041D02*
X0162810Y0211041D01*
X0162401Y0211859D01*
X0162401Y0212267D01*
X0162810Y0212676D01*
X0163627Y0212676D01*
X0164036Y0212267D01*
X0164036Y0211450D01*
X0163627Y0211041D01*
X0161584Y0211041D02*
X0161584Y0212676D01*
X0166117Y0218592D02*
X0168569Y0218592D01*
X0168569Y0220226D01*
X0170841Y0219558D02*
X0173293Y0219558D01*
X0172067Y0219558D02*
X0172067Y0221193D01*
X0170841Y0221193D02*
X0173293Y0221193D01*
X0173293Y0222459D02*
X0170841Y0222459D01*
X0170841Y0223684D01*
X0170841Y0225359D02*
X0173293Y0225359D01*
X0172067Y0225359D02*
X0172067Y0226176D01*
X0170841Y0226993D02*
X0170841Y0225359D01*
X0158857Y0231921D02*
X0157223Y0231921D01*
X0158040Y0231921D02*
X0158040Y0234373D01*
X0157223Y0233555D01*
X0155957Y0234373D02*
X0155140Y0234373D01*
X0155548Y0234373D02*
X0155548Y0232329D01*
X0155140Y0231921D01*
X0154731Y0231921D01*
X0154322Y0232329D01*
X0148155Y0232934D02*
X0147338Y0232117D01*
X0147338Y0232525D02*
X0147338Y0231300D01*
X0148155Y0231300D02*
X0145703Y0231300D01*
X0145703Y0232525D01*
X0146112Y0232934D01*
X0146929Y0232934D01*
X0147338Y0232525D01*
X0147747Y0234200D02*
X0148155Y0234608D01*
X0148155Y0235426D01*
X0147747Y0235834D01*
X0147338Y0235834D01*
X0146929Y0235426D01*
X0146929Y0235017D01*
X0146929Y0235426D02*
X0146521Y0235834D01*
X0146112Y0235834D01*
X0145703Y0235426D01*
X0145703Y0234608D01*
X0146112Y0234200D01*
X0138846Y0235622D02*
X0138846Y0236439D01*
X0138437Y0236848D01*
X0136394Y0236848D01*
X0137212Y0238114D02*
X0136394Y0238931D01*
X0138846Y0238931D01*
X0138846Y0238114D02*
X0138846Y0239748D01*
X0138846Y0235622D02*
X0138437Y0235213D01*
X0136394Y0235213D01*
X0129595Y0230715D02*
X0129187Y0231124D01*
X0128369Y0231124D01*
X0127961Y0230715D01*
X0127961Y0230307D01*
X0128369Y0229898D01*
X0129595Y0229898D01*
X0129595Y0229081D02*
X0129595Y0230715D01*
X0129595Y0229081D02*
X0129187Y0228672D01*
X0128369Y0228672D01*
X0127961Y0229081D01*
X0126695Y0228672D02*
X0125878Y0229490D01*
X0126287Y0229490D02*
X0125061Y0229490D01*
X0125061Y0228672D02*
X0125061Y0231124D01*
X0126287Y0231124D01*
X0126695Y0230715D01*
X0126695Y0229898D01*
X0126287Y0229490D01*
X0125919Y0241918D02*
X0125102Y0242735D01*
X0125510Y0242735D02*
X0124284Y0242735D01*
X0124284Y0241918D02*
X0124284Y0244369D01*
X0125510Y0244369D01*
X0125919Y0243961D01*
X0125919Y0243144D01*
X0125510Y0242735D01*
X0127184Y0243552D02*
X0128002Y0244369D01*
X0128002Y0241918D01*
X0128819Y0241918D02*
X0127184Y0241918D01*
X0095033Y0241843D02*
X0093398Y0243478D01*
X0092990Y0243478D01*
X0092581Y0243069D01*
X0092581Y0242252D01*
X0092990Y0241843D01*
X0092990Y0240578D02*
X0093807Y0240578D01*
X0094215Y0240169D01*
X0094215Y0238943D01*
X0094215Y0239760D02*
X0095033Y0240578D01*
X0095033Y0241843D02*
X0095033Y0243478D01*
X0092990Y0240578D02*
X0092581Y0240169D01*
X0092581Y0238943D01*
X0095033Y0238943D01*
X0170841Y0218293D02*
X0170841Y0216658D01*
X0170841Y0217476D02*
X0173293Y0217476D01*
X0199897Y0217161D02*
X0199897Y0216752D01*
X0200306Y0216344D01*
X0201123Y0216344D01*
X0201532Y0215935D01*
X0201532Y0215526D01*
X0201123Y0215118D01*
X0200306Y0215118D01*
X0199897Y0215526D01*
X0199897Y0217161D02*
X0200306Y0217569D01*
X0201123Y0217569D01*
X0201532Y0217161D01*
X0202797Y0216752D02*
X0203615Y0217569D01*
X0203615Y0215118D01*
X0204432Y0215118D02*
X0202797Y0215118D01*
X0215761Y0210472D02*
X0215761Y0209655D01*
X0216169Y0209246D01*
X0216169Y0207980D02*
X0216578Y0207980D01*
X0216986Y0207572D01*
X0217395Y0207980D01*
X0217804Y0207980D01*
X0218212Y0207572D01*
X0218212Y0206754D01*
X0217804Y0206346D01*
X0216986Y0207163D02*
X0216986Y0207572D01*
X0216169Y0207980D02*
X0215761Y0207572D01*
X0215761Y0206754D01*
X0216169Y0206346D01*
X0216169Y0205080D02*
X0216986Y0205080D01*
X0217395Y0204672D01*
X0217395Y0203446D01*
X0217395Y0204263D02*
X0218212Y0205080D01*
X0218212Y0203446D02*
X0215761Y0203446D01*
X0215761Y0204672D01*
X0216169Y0205080D01*
X0218212Y0209246D02*
X0216578Y0210880D01*
X0216169Y0210880D01*
X0215761Y0210472D01*
X0218212Y0210880D02*
X0218212Y0209246D01*
X0221300Y0207724D02*
X0221709Y0208132D01*
X0222117Y0208132D01*
X0222526Y0207724D01*
X0222934Y0208132D01*
X0223343Y0208132D01*
X0223752Y0207724D01*
X0223752Y0206907D01*
X0223343Y0206498D01*
X0222526Y0207315D02*
X0222526Y0207724D01*
X0221300Y0207724D02*
X0221300Y0206907D01*
X0221709Y0206498D01*
X0221709Y0205232D02*
X0222117Y0205232D01*
X0222526Y0204824D01*
X0222934Y0205232D01*
X0223343Y0205232D01*
X0223752Y0204824D01*
X0223752Y0204006D01*
X0223343Y0203598D01*
X0222526Y0204415D02*
X0222526Y0204824D01*
X0221709Y0205232D02*
X0221300Y0204824D01*
X0221300Y0204006D01*
X0221709Y0203598D01*
X0221709Y0202332D02*
X0222526Y0202332D01*
X0222934Y0201924D01*
X0222934Y0200698D01*
X0222934Y0201515D02*
X0223752Y0202332D01*
X0223752Y0200698D02*
X0221300Y0200698D01*
X0221300Y0201924D01*
X0221709Y0202332D01*
X0201849Y0204151D02*
X0200215Y0204151D01*
X0201441Y0205377D01*
X0201441Y0202925D01*
X0198949Y0203333D02*
X0198949Y0205377D01*
X0197315Y0205377D02*
X0197315Y0203333D01*
X0197723Y0202925D01*
X0198540Y0202925D01*
X0198949Y0203333D01*
X0200095Y0189384D02*
X0198869Y0188159D01*
X0200503Y0188159D01*
X0201769Y0188159D02*
X0203403Y0188159D01*
X0202995Y0189384D02*
X0201769Y0188159D01*
X0202995Y0186933D02*
X0202995Y0189384D01*
X0200095Y0189384D02*
X0200095Y0186933D01*
X0197603Y0186933D02*
X0196786Y0187750D01*
X0197194Y0187750D02*
X0195969Y0187750D01*
X0195969Y0186933D02*
X0195969Y0189384D01*
X0197194Y0189384D01*
X0197603Y0188976D01*
X0197603Y0188159D01*
X0197194Y0187750D01*
X0207811Y0186711D02*
X0207811Y0184668D01*
X0208219Y0184259D01*
X0209036Y0184259D01*
X0209445Y0184668D01*
X0209445Y0186711D01*
X0210711Y0185894D02*
X0211528Y0186711D01*
X0211528Y0184259D01*
X0210711Y0184259D02*
X0212345Y0184259D01*
X0213611Y0184668D02*
X0214019Y0184259D01*
X0214837Y0184259D01*
X0215245Y0184668D01*
X0215245Y0185077D01*
X0214837Y0185485D01*
X0214428Y0185485D01*
X0214837Y0185485D02*
X0215245Y0185894D01*
X0215245Y0186303D01*
X0214837Y0186711D01*
X0214019Y0186711D01*
X0213611Y0186303D01*
X0220395Y0183404D02*
X0220395Y0182586D01*
X0220804Y0182178D01*
X0220804Y0180912D02*
X0221212Y0180912D01*
X0221621Y0180504D01*
X0222030Y0180912D01*
X0222438Y0180912D01*
X0222847Y0180504D01*
X0222847Y0179686D01*
X0222438Y0179278D01*
X0221621Y0180095D02*
X0221621Y0180504D01*
X0220804Y0180912D02*
X0220395Y0180504D01*
X0220395Y0179686D01*
X0220804Y0179278D01*
X0220804Y0178012D02*
X0220395Y0177603D01*
X0220395Y0176786D01*
X0220804Y0176378D01*
X0222438Y0176378D01*
X0222847Y0176786D01*
X0222847Y0177603D01*
X0222438Y0178012D01*
X0222847Y0182178D02*
X0221212Y0183812D01*
X0220804Y0183812D01*
X0220395Y0183404D01*
X0222847Y0183812D02*
X0222847Y0182178D01*
X0225467Y0186271D02*
X0226285Y0186271D01*
X0226693Y0186680D01*
X0225467Y0186271D02*
X0225059Y0186680D01*
X0225059Y0188314D01*
X0225467Y0188723D01*
X0226285Y0188723D01*
X0226693Y0188314D01*
X0227959Y0188314D02*
X0228367Y0188723D01*
X0229185Y0188723D01*
X0229593Y0188314D01*
X0229593Y0187906D01*
X0227959Y0186271D01*
X0229593Y0186271D01*
X0230859Y0186680D02*
X0230859Y0187088D01*
X0231267Y0187497D01*
X0232085Y0187497D01*
X0232493Y0187088D01*
X0232493Y0186680D01*
X0232085Y0186271D01*
X0231267Y0186271D01*
X0230859Y0186680D01*
X0231267Y0187497D02*
X0230859Y0187906D01*
X0230859Y0188314D01*
X0231267Y0188723D01*
X0232085Y0188723D01*
X0232493Y0188314D01*
X0232493Y0187906D01*
X0232085Y0187497D01*
X0232478Y0168251D02*
X0232887Y0167842D01*
X0232887Y0167433D01*
X0232478Y0167025D01*
X0232887Y0166616D01*
X0232887Y0166207D01*
X0232478Y0165799D01*
X0231661Y0165799D01*
X0231253Y0166207D01*
X0232070Y0167025D02*
X0232478Y0167025D01*
X0232478Y0168251D02*
X0231661Y0168251D01*
X0231253Y0167842D01*
X0229987Y0167842D02*
X0228352Y0166207D01*
X0228352Y0165799D01*
X0227087Y0166207D02*
X0226678Y0165799D01*
X0225861Y0165799D01*
X0225452Y0166207D01*
X0225452Y0167842D01*
X0225861Y0168251D01*
X0226678Y0168251D01*
X0227087Y0167842D01*
X0228352Y0168251D02*
X0229987Y0168251D01*
X0229987Y0167842D01*
X0223241Y0162931D02*
X0220789Y0162931D01*
X0222015Y0161705D01*
X0222015Y0163340D01*
X0215245Y0164225D02*
X0213611Y0164225D01*
X0214837Y0165451D01*
X0214837Y0163000D01*
X0212345Y0163000D02*
X0210711Y0163000D01*
X0211528Y0163000D02*
X0211528Y0165451D01*
X0210711Y0164634D01*
X0209445Y0165451D02*
X0209445Y0163408D01*
X0209036Y0163000D01*
X0208219Y0163000D01*
X0207811Y0163408D01*
X0207811Y0165451D01*
X0181068Y0165324D02*
X0180659Y0164915D01*
X0179433Y0164915D01*
X0179433Y0164098D02*
X0179433Y0166550D01*
X0180659Y0166550D01*
X0181068Y0166141D01*
X0181068Y0165324D01*
X0180250Y0164915D02*
X0181068Y0164098D01*
X0137661Y0164289D02*
X0137661Y0163712D01*
X0137084Y0163134D01*
X0136506Y0163134D01*
X0135928Y0163712D02*
X0136217Y0164578D01*
X0136506Y0164867D01*
X0137084Y0164867D01*
X0137661Y0164289D01*
X0135928Y0163712D02*
X0135061Y0164578D01*
X0136217Y0165734D01*
X0134455Y0163394D02*
X0134744Y0163106D01*
X0134744Y0162528D01*
X0134166Y0161950D01*
X0133588Y0161950D01*
X0133299Y0162239D01*
X0133299Y0162817D01*
X0133877Y0163394D01*
X0134455Y0163394D01*
X0134744Y0162528D02*
X0135322Y0162528D01*
X0135611Y0162239D01*
X0135611Y0161661D01*
X0135033Y0161083D01*
X0134455Y0161083D01*
X0134166Y0161372D01*
X0134166Y0161950D01*
X0132404Y0161344D02*
X0131826Y0161344D01*
X0131249Y0160766D01*
X0131249Y0160188D01*
X0132404Y0159032D01*
X0132982Y0159032D01*
X0133560Y0159610D01*
X0133560Y0160188D01*
X0129769Y0174972D02*
X0130178Y0175381D01*
X0130178Y0176198D01*
X0129769Y0176607D01*
X0127726Y0176607D01*
X0128134Y0177872D02*
X0127726Y0178281D01*
X0127726Y0179098D01*
X0128134Y0179507D01*
X0128543Y0179507D01*
X0128952Y0179098D01*
X0129360Y0179507D01*
X0129769Y0179507D01*
X0130178Y0179098D01*
X0130178Y0178281D01*
X0129769Y0177872D01*
X0128952Y0178689D02*
X0128952Y0179098D01*
X0129769Y0174972D02*
X0127726Y0174972D01*
X0096326Y0177536D02*
X0096326Y0178762D01*
X0095918Y0179171D01*
X0094283Y0179171D01*
X0093875Y0178762D01*
X0093875Y0177536D01*
X0096326Y0177536D01*
X0095918Y0180436D02*
X0096326Y0180845D01*
X0096326Y0181662D01*
X0095918Y0182071D01*
X0095509Y0182071D01*
X0095101Y0181662D01*
X0095101Y0181254D01*
X0095101Y0181662D02*
X0094692Y0182071D01*
X0094283Y0182071D01*
X0093875Y0181662D01*
X0093875Y0180845D01*
X0094283Y0180436D01*
X0160499Y0180514D02*
X0162232Y0178781D01*
X0131688Y0199775D02*
X0131279Y0199367D01*
X0130462Y0199367D01*
X0130053Y0199775D01*
X0130053Y0200184D01*
X0130462Y0200592D01*
X0131279Y0200592D01*
X0131688Y0200184D01*
X0131688Y0199775D01*
X0131279Y0200592D02*
X0131688Y0201001D01*
X0131688Y0201410D01*
X0131279Y0201818D01*
X0130462Y0201818D01*
X0130053Y0201410D01*
X0130053Y0201001D01*
X0130462Y0200592D01*
X0128787Y0199367D02*
X0127153Y0199367D01*
X0127970Y0199367D02*
X0127970Y0201818D01*
X0127153Y0201001D01*
X0125887Y0200592D02*
X0125479Y0200184D01*
X0124253Y0200184D01*
X0125070Y0200184D02*
X0125887Y0199367D01*
X0125887Y0200592D02*
X0125887Y0201410D01*
X0125479Y0201818D01*
X0124253Y0201818D01*
X0124253Y0199367D01*
X0094934Y0198983D02*
X0092483Y0198983D01*
X0208658Y0231204D02*
X0209209Y0230653D01*
X0211411Y0230653D01*
X0211961Y0231204D01*
X0211961Y0232305D01*
X0211411Y0232855D01*
X0209209Y0232855D01*
X0208658Y0232305D01*
X0208658Y0231204D01*
X0207343Y0233595D02*
X0204891Y0233595D01*
X0204891Y0234820D01*
X0205300Y0235229D01*
X0206117Y0235229D01*
X0206526Y0234820D01*
X0206526Y0233595D01*
X0206526Y0234412D02*
X0207343Y0235229D01*
X0207343Y0236495D02*
X0205708Y0238129D01*
X0205300Y0238129D01*
X0204891Y0237720D01*
X0204891Y0236903D01*
X0205300Y0236495D01*
X0207343Y0236495D02*
X0207343Y0238129D01*
X0206934Y0239395D02*
X0207343Y0239803D01*
X0207343Y0240621D01*
X0206934Y0241029D01*
X0206526Y0241029D01*
X0206117Y0240621D01*
X0206117Y0240212D01*
X0206117Y0240621D02*
X0205708Y0241029D01*
X0205300Y0241029D01*
X0204891Y0240621D01*
X0204891Y0239803D01*
X0205300Y0239395D01*
X0204891Y0243437D02*
X0204891Y0244663D01*
X0205300Y0245072D01*
X0206117Y0245072D01*
X0206526Y0244663D01*
X0206526Y0243437D01*
X0207343Y0243437D02*
X0204891Y0243437D01*
X0206526Y0244254D02*
X0207343Y0245072D01*
X0207343Y0246337D02*
X0207343Y0247972D01*
X0207343Y0247154D02*
X0204891Y0247154D01*
X0205708Y0246337D01*
X0205708Y0249237D02*
X0206117Y0249646D01*
X0206117Y0250872D01*
X0205300Y0250872D02*
X0204891Y0250463D01*
X0204891Y0249646D01*
X0205300Y0249237D01*
X0205708Y0249237D01*
X0206934Y0249237D02*
X0207343Y0249646D01*
X0207343Y0250463D01*
X0206934Y0250872D01*
X0205300Y0250872D01*
X0204891Y0256180D02*
X0204891Y0257406D01*
X0205300Y0257814D01*
X0206117Y0257814D01*
X0206526Y0257406D01*
X0206526Y0256180D01*
X0207343Y0256180D02*
X0204891Y0256180D01*
X0206526Y0256997D02*
X0207343Y0257814D01*
X0206934Y0259080D02*
X0206526Y0259080D01*
X0206117Y0259488D01*
X0206117Y0260306D01*
X0206526Y0260714D01*
X0206934Y0260714D01*
X0207343Y0260306D01*
X0207343Y0259488D01*
X0206934Y0259080D01*
X0206117Y0259488D02*
X0205708Y0259080D01*
X0205300Y0259080D01*
X0204891Y0259488D01*
X0204891Y0260306D01*
X0205300Y0260714D01*
X0205708Y0260714D01*
X0206117Y0260306D01*
X0206526Y0263516D02*
X0206526Y0264742D01*
X0206117Y0265150D01*
X0205300Y0265150D01*
X0204891Y0264742D01*
X0204891Y0263516D01*
X0207343Y0263516D01*
X0206526Y0264333D02*
X0207343Y0265150D01*
X0207343Y0266416D02*
X0207343Y0268050D01*
X0207343Y0267233D02*
X0204891Y0267233D01*
X0205708Y0266416D01*
X0204891Y0269316D02*
X0204891Y0270950D01*
X0205300Y0270950D01*
X0206934Y0269316D01*
X0207343Y0269316D01*
X0199722Y0276443D02*
X0198088Y0276443D01*
X0198905Y0276443D02*
X0198905Y0278895D01*
X0198088Y0278078D01*
X0196822Y0278895D02*
X0196005Y0278486D01*
X0195188Y0277669D01*
X0196414Y0277669D01*
X0196822Y0277260D01*
X0196822Y0276852D01*
X0196414Y0276443D01*
X0195596Y0276443D01*
X0195188Y0276852D01*
X0195188Y0277669D01*
X0193922Y0276852D02*
X0193514Y0276443D01*
X0192696Y0276443D01*
X0192288Y0276852D01*
X0192288Y0278486D01*
X0192696Y0278895D01*
X0193514Y0278895D01*
X0193922Y0278486D01*
X0186447Y0279015D02*
X0186447Y0279424D01*
X0186039Y0279833D01*
X0184813Y0279833D01*
X0184813Y0279015D01*
X0185221Y0278607D01*
X0186039Y0278607D01*
X0186447Y0279015D01*
X0185630Y0280650D02*
X0184813Y0279833D01*
X0185630Y0280650D02*
X0186447Y0281058D01*
X0183547Y0281058D02*
X0181913Y0281058D01*
X0181913Y0279833D01*
X0182730Y0280241D01*
X0183139Y0280241D01*
X0183547Y0279833D01*
X0183547Y0279015D01*
X0183139Y0278607D01*
X0182321Y0278607D01*
X0181913Y0279015D01*
X0180647Y0278607D02*
X0179830Y0279424D01*
X0180238Y0279424D02*
X0179013Y0279424D01*
X0179013Y0278607D02*
X0179013Y0281058D01*
X0180238Y0281058D01*
X0180647Y0280650D01*
X0180647Y0279833D01*
X0180238Y0279424D01*
X0177580Y0280967D02*
X0177171Y0280559D01*
X0177580Y0280967D02*
X0177580Y0281785D01*
X0177171Y0282193D01*
X0176763Y0282193D01*
X0176354Y0281785D01*
X0176354Y0281376D01*
X0176354Y0281785D02*
X0175945Y0282193D01*
X0175537Y0282193D01*
X0175128Y0281785D01*
X0175128Y0280967D01*
X0175537Y0280559D01*
X0175537Y0279293D02*
X0177171Y0277659D01*
X0177580Y0277659D01*
X0177580Y0276393D02*
X0176763Y0275576D01*
X0176763Y0275985D02*
X0176763Y0274759D01*
X0177580Y0274759D02*
X0175128Y0274759D01*
X0175128Y0275985D01*
X0175537Y0276393D01*
X0176354Y0276393D01*
X0176763Y0275985D01*
X0175128Y0277659D02*
X0175128Y0279293D01*
X0175537Y0279293D01*
X0171558Y0279434D02*
X0171558Y0279843D01*
X0171149Y0280251D01*
X0170332Y0280251D01*
X0169923Y0279843D01*
X0168657Y0279843D02*
X0167023Y0278208D01*
X0167023Y0277800D01*
X0165757Y0277800D02*
X0164940Y0278617D01*
X0165349Y0278617D02*
X0164123Y0278617D01*
X0164123Y0277800D02*
X0164123Y0280251D01*
X0165349Y0280251D01*
X0165757Y0279843D01*
X0165757Y0279025D01*
X0165349Y0278617D01*
X0167023Y0280251D02*
X0168657Y0280251D01*
X0168657Y0279843D01*
X0169923Y0277800D02*
X0171558Y0279434D01*
X0171558Y0277800D02*
X0169923Y0277800D01*
X0158501Y0278052D02*
X0158093Y0278052D01*
X0156458Y0279687D01*
X0156049Y0279687D01*
X0156049Y0278052D01*
X0156458Y0276787D02*
X0157275Y0276787D01*
X0157684Y0276378D01*
X0157684Y0275152D01*
X0158501Y0275152D02*
X0156049Y0275152D01*
X0156049Y0276378D01*
X0156458Y0276787D01*
X0157684Y0275970D02*
X0158501Y0276787D01*
X0157275Y0280953D02*
X0157275Y0282587D01*
X0156049Y0282178D02*
X0157275Y0280953D01*
X0158501Y0282178D02*
X0156049Y0282178D01*
X0140102Y0277087D02*
X0139693Y0277087D01*
X0138058Y0278721D01*
X0137650Y0278721D01*
X0137650Y0277087D01*
X0137650Y0275821D02*
X0138058Y0275821D01*
X0139693Y0274187D01*
X0140102Y0274187D01*
X0139693Y0272921D02*
X0140102Y0272513D01*
X0140102Y0271695D01*
X0139693Y0271287D01*
X0138058Y0271287D01*
X0137650Y0271695D01*
X0137650Y0272513D01*
X0138058Y0272921D01*
X0137650Y0274187D02*
X0137650Y0275821D01*
X0131359Y0277205D02*
X0131359Y0278022D01*
X0130950Y0278431D01*
X0130541Y0278431D01*
X0130133Y0278022D01*
X0130133Y0276796D01*
X0130950Y0276796D01*
X0131359Y0277205D01*
X0130133Y0276796D02*
X0129316Y0277614D01*
X0128907Y0278431D01*
X0128907Y0275531D02*
X0129316Y0275531D01*
X0130950Y0273896D01*
X0131359Y0273896D01*
X0130950Y0272631D02*
X0131359Y0272222D01*
X0131359Y0271405D01*
X0130950Y0270996D01*
X0129316Y0270996D01*
X0128907Y0271405D01*
X0128907Y0272222D01*
X0129316Y0272631D01*
X0128907Y0273896D02*
X0128907Y0275531D01*
X0098681Y0272897D02*
X0098273Y0273306D01*
X0097864Y0273306D01*
X0097456Y0272897D01*
X0097456Y0271671D01*
X0098273Y0271671D01*
X0098681Y0272080D01*
X0098681Y0272897D01*
X0097456Y0271671D02*
X0096638Y0272489D01*
X0096230Y0273306D01*
X0098681Y0270406D02*
X0098681Y0268771D01*
X0096230Y0268771D01*
X0088336Y0272020D02*
X0087928Y0271612D01*
X0087110Y0271612D01*
X0086702Y0272020D01*
X0088336Y0273655D01*
X0088336Y0272020D01*
X0086702Y0272020D02*
X0086702Y0273655D01*
X0087110Y0274064D01*
X0087928Y0274064D01*
X0088336Y0273655D01*
X0085436Y0273655D02*
X0083802Y0272020D01*
X0083802Y0271612D01*
X0082536Y0271612D02*
X0081719Y0272429D01*
X0082127Y0272429D02*
X0080902Y0272429D01*
X0080902Y0271612D02*
X0080902Y0274064D01*
X0082127Y0274064D01*
X0082536Y0273655D01*
X0082536Y0272838D01*
X0082127Y0272429D01*
X0083802Y0274064D02*
X0085436Y0274064D01*
X0085436Y0273655D01*
X0062236Y0274229D02*
X0061827Y0273820D01*
X0061010Y0273820D01*
X0060601Y0274229D01*
X0060601Y0275046D02*
X0061418Y0275454D01*
X0061827Y0275454D01*
X0062236Y0275046D01*
X0062236Y0274229D01*
X0060601Y0275046D02*
X0060601Y0276272D01*
X0062236Y0276272D01*
X0059335Y0273820D02*
X0057701Y0273820D01*
X0057701Y0276272D01*
X0097041Y0290238D02*
X0097041Y0291464D01*
X0097450Y0291872D01*
X0098267Y0291872D01*
X0098676Y0291464D01*
X0098676Y0290238D01*
X0099493Y0290238D02*
X0097041Y0290238D01*
X0098676Y0291055D02*
X0099493Y0291872D01*
X0099493Y0293138D02*
X0099084Y0293138D01*
X0097450Y0294772D01*
X0097041Y0294772D01*
X0097041Y0293138D01*
X0097859Y0296038D02*
X0097041Y0296855D01*
X0099493Y0296855D01*
X0099493Y0296038D02*
X0099493Y0297673D01*
X0099513Y0299165D02*
X0099921Y0299574D01*
X0099513Y0299165D02*
X0098696Y0299165D01*
X0098287Y0299574D01*
X0098287Y0301208D01*
X0098696Y0301617D01*
X0099513Y0301617D01*
X0099921Y0301208D01*
X0101187Y0301617D02*
X0102822Y0301617D01*
X0102822Y0301208D01*
X0101187Y0299574D01*
X0101187Y0299165D01*
X0104087Y0299574D02*
X0104087Y0299982D01*
X0104496Y0300391D01*
X0105313Y0300391D01*
X0105722Y0299982D01*
X0105722Y0299574D01*
X0105313Y0299165D01*
X0104496Y0299165D01*
X0104087Y0299574D01*
X0104496Y0300391D02*
X0104087Y0300799D01*
X0104087Y0301208D01*
X0104496Y0301617D01*
X0105313Y0301617D01*
X0105722Y0301208D01*
X0105722Y0300799D01*
X0105313Y0300391D01*
X0136875Y0300536D02*
X0138509Y0300536D01*
X0136875Y0300536D02*
X0136875Y0302988D01*
X0139775Y0301762D02*
X0141409Y0301762D01*
X0141001Y0302988D02*
X0139775Y0301762D01*
X0141001Y0300536D02*
X0141001Y0302988D01*
X0146607Y0302384D02*
X0146607Y0300750D01*
X0147015Y0300341D01*
X0147833Y0300341D01*
X0148241Y0300750D01*
X0149507Y0300750D02*
X0149507Y0300341D01*
X0149507Y0300750D02*
X0151141Y0302384D01*
X0151141Y0302793D01*
X0149507Y0302793D01*
X0148241Y0302384D02*
X0147833Y0302793D01*
X0147015Y0302793D01*
X0146607Y0302384D01*
X0152407Y0302384D02*
X0152407Y0301975D01*
X0152816Y0301567D01*
X0154041Y0301567D01*
X0154041Y0302384D02*
X0153633Y0302793D01*
X0152816Y0302793D01*
X0152407Y0302384D01*
X0154041Y0302384D02*
X0154041Y0300750D01*
X0153633Y0300341D01*
X0152816Y0300341D01*
X0152407Y0300750D01*
X0160313Y0300475D02*
X0160313Y0301701D01*
X0160722Y0302109D01*
X0161539Y0302109D01*
X0161948Y0301701D01*
X0161948Y0300475D01*
X0162765Y0300475D02*
X0160313Y0300475D01*
X0161948Y0301292D02*
X0162765Y0302109D01*
X0162765Y0303375D02*
X0162356Y0303375D01*
X0160722Y0305009D01*
X0160313Y0305009D01*
X0160313Y0303375D01*
X0160313Y0306275D02*
X0160313Y0307909D01*
X0160722Y0307909D01*
X0162356Y0306275D01*
X0162765Y0306275D01*
X0165632Y0306275D02*
X0166858Y0306275D01*
X0166449Y0307092D01*
X0166449Y0307501D01*
X0166858Y0307909D01*
X0167675Y0307909D01*
X0168084Y0307501D01*
X0168084Y0306684D01*
X0167675Y0306275D01*
X0165632Y0306275D02*
X0165632Y0307909D01*
X0165632Y0305009D02*
X0166041Y0305009D01*
X0167675Y0303375D01*
X0168084Y0303375D01*
X0168084Y0302109D02*
X0167267Y0301292D01*
X0167267Y0301701D02*
X0167267Y0300475D01*
X0168084Y0300475D02*
X0165632Y0300475D01*
X0165632Y0301701D01*
X0166041Y0302109D01*
X0166858Y0302109D01*
X0167267Y0301701D01*
X0165632Y0303375D02*
X0165632Y0305009D01*
X0171057Y0305009D02*
X0171466Y0305009D01*
X0173100Y0303375D01*
X0173509Y0303375D01*
X0173509Y0302109D02*
X0172692Y0301292D01*
X0172692Y0301701D02*
X0172692Y0300475D01*
X0173509Y0300475D02*
X0171057Y0300475D01*
X0171057Y0301701D01*
X0171466Y0302109D01*
X0172283Y0302109D01*
X0172692Y0301701D01*
X0171057Y0303375D02*
X0171057Y0305009D01*
X0172283Y0306275D02*
X0172283Y0307501D01*
X0172692Y0307909D01*
X0173100Y0307909D01*
X0173509Y0307501D01*
X0173509Y0306684D01*
X0173100Y0306275D01*
X0172283Y0306275D01*
X0171466Y0307092D01*
X0171057Y0307909D01*
X0180496Y0304031D02*
X0180904Y0304439D01*
X0181722Y0304439D01*
X0182130Y0304031D01*
X0182130Y0302396D01*
X0181722Y0301988D01*
X0180904Y0301988D01*
X0180496Y0302396D01*
X0180496Y0304031D01*
X0181313Y0302805D02*
X0182130Y0301988D01*
X0183396Y0302396D02*
X0183804Y0301988D01*
X0184622Y0301988D01*
X0185030Y0302396D01*
X0185030Y0303214D01*
X0184622Y0303622D01*
X0184213Y0303622D01*
X0183396Y0303214D01*
X0183396Y0304439D01*
X0185030Y0304439D01*
X0201362Y0298672D02*
X0202588Y0298672D01*
X0202996Y0298263D01*
X0202996Y0297446D01*
X0202588Y0297037D01*
X0201362Y0297037D01*
X0201362Y0296220D02*
X0201362Y0298672D01*
X0202179Y0297037D02*
X0202996Y0296220D01*
X0204262Y0296629D02*
X0204671Y0296220D01*
X0205488Y0296220D01*
X0205896Y0296629D01*
X0205896Y0297037D01*
X0205488Y0297446D01*
X0204262Y0297446D01*
X0204262Y0296629D01*
X0204262Y0297446D02*
X0205079Y0298263D01*
X0205896Y0298672D01*
X0207162Y0298672D02*
X0208796Y0298672D01*
X0208796Y0298263D01*
X0207162Y0296629D01*
X0207162Y0296220D01*
X0208376Y0292778D02*
X0207150Y0291552D01*
X0208785Y0291552D01*
X0208376Y0290326D02*
X0208376Y0292778D01*
X0205885Y0292778D02*
X0205067Y0292369D01*
X0204250Y0291552D01*
X0205476Y0291552D01*
X0205885Y0291144D01*
X0205885Y0290735D01*
X0205476Y0290326D01*
X0204659Y0290326D01*
X0204250Y0290735D01*
X0204250Y0291552D01*
X0202984Y0291552D02*
X0202576Y0291144D01*
X0201350Y0291144D01*
X0202167Y0291144D02*
X0202984Y0290326D01*
X0202984Y0291552D02*
X0202984Y0292369D01*
X0202576Y0292778D01*
X0201350Y0292778D01*
X0201350Y0290326D01*
X0225858Y0296641D02*
X0226266Y0296232D01*
X0227084Y0296232D01*
X0227492Y0296641D01*
X0228758Y0296232D02*
X0230392Y0296232D01*
X0229575Y0296232D02*
X0229575Y0298684D01*
X0228758Y0297866D01*
X0227492Y0298275D02*
X0227084Y0298684D01*
X0226266Y0298684D01*
X0225858Y0298275D01*
X0225858Y0296641D01*
X0231658Y0296641D02*
X0232067Y0296232D01*
X0232884Y0296232D01*
X0233293Y0296641D01*
X0233293Y0298275D01*
X0232884Y0298684D01*
X0232067Y0298684D01*
X0231658Y0298275D01*
X0231658Y0297866D01*
X0232067Y0297458D01*
X0233293Y0297458D01*
X0246045Y0293117D02*
X0249348Y0293117D01*
X0249348Y0292016D02*
X0249348Y0294218D01*
X0249335Y0297086D02*
X0249335Y0298312D01*
X0248927Y0298720D01*
X0248110Y0298720D01*
X0247701Y0298312D01*
X0247701Y0297086D01*
X0250153Y0297086D01*
X0249335Y0297903D02*
X0250153Y0298720D01*
X0249744Y0299986D02*
X0250153Y0300395D01*
X0250153Y0301212D01*
X0249744Y0301620D01*
X0249335Y0301620D01*
X0248927Y0301212D01*
X0248927Y0300803D01*
X0248927Y0301212D02*
X0248518Y0301620D01*
X0248110Y0301620D01*
X0247701Y0301212D01*
X0247701Y0300395D01*
X0248110Y0299986D01*
X0247701Y0302886D02*
X0247701Y0304521D01*
X0248110Y0304521D01*
X0249744Y0302886D01*
X0250153Y0302886D01*
X0252098Y0303727D02*
X0252507Y0303319D01*
X0253324Y0303319D01*
X0253733Y0303727D01*
X0254999Y0303319D02*
X0256633Y0304953D01*
X0256633Y0305362D01*
X0256224Y0305770D01*
X0255407Y0305770D01*
X0254999Y0305362D01*
X0253733Y0305362D02*
X0253324Y0305770D01*
X0252507Y0305770D01*
X0252098Y0305362D01*
X0252098Y0303727D01*
X0254999Y0303319D02*
X0256633Y0303319D01*
X0257899Y0303727D02*
X0258307Y0303319D01*
X0259125Y0303319D01*
X0259533Y0303727D01*
X0259533Y0305362D01*
X0259125Y0305770D01*
X0258307Y0305770D01*
X0257899Y0305362D01*
X0257899Y0304953D01*
X0258307Y0304544D01*
X0259533Y0304544D01*
X0263161Y0304136D02*
X0264387Y0304136D01*
X0264795Y0304544D01*
X0264795Y0305362D01*
X0264387Y0305770D01*
X0263161Y0305770D01*
X0263161Y0303319D01*
X0263978Y0304136D02*
X0264795Y0303319D01*
X0266061Y0303727D02*
X0266470Y0303319D01*
X0267287Y0303319D01*
X0267696Y0303727D01*
X0267696Y0304136D01*
X0267287Y0304544D01*
X0266878Y0304544D01*
X0267287Y0304544D02*
X0267696Y0304953D01*
X0267696Y0305362D01*
X0267287Y0305770D01*
X0266470Y0305770D01*
X0266061Y0305362D01*
X0268961Y0305362D02*
X0268961Y0304953D01*
X0269370Y0304544D01*
X0270596Y0304544D01*
X0270596Y0303727D02*
X0270596Y0305362D01*
X0270187Y0305770D01*
X0269370Y0305770D01*
X0268961Y0305362D01*
X0268961Y0303727D02*
X0269370Y0303319D01*
X0270187Y0303319D01*
X0270596Y0303727D01*
X0273203Y0303418D02*
X0273203Y0304235D01*
X0273612Y0304644D01*
X0274021Y0304644D01*
X0274429Y0304235D01*
X0274429Y0303418D01*
X0274021Y0303009D01*
X0273612Y0303009D01*
X0273203Y0303418D01*
X0274429Y0303418D02*
X0274838Y0303009D01*
X0275247Y0303009D01*
X0275655Y0303418D01*
X0275655Y0304235D01*
X0275247Y0304644D01*
X0274838Y0304644D01*
X0274429Y0304235D01*
X0274021Y0301744D02*
X0274429Y0301335D01*
X0274838Y0301744D01*
X0275247Y0301744D01*
X0275655Y0301335D01*
X0275655Y0300518D01*
X0275247Y0300109D01*
X0274429Y0300926D02*
X0274429Y0301335D01*
X0274021Y0301744D02*
X0273612Y0301744D01*
X0273203Y0301335D01*
X0273203Y0300518D01*
X0273612Y0300109D01*
X0273612Y0298843D02*
X0274429Y0298843D01*
X0274838Y0298435D01*
X0274838Y0297209D01*
X0275655Y0297209D02*
X0273203Y0297209D01*
X0273203Y0298435D01*
X0273612Y0298843D01*
X0274838Y0298026D02*
X0275655Y0298843D01*
X0269348Y0293668D02*
X0269348Y0292567D01*
X0268798Y0292016D01*
X0267697Y0292016D02*
X0267146Y0293117D01*
X0267146Y0293668D01*
X0267697Y0294218D01*
X0268798Y0294218D01*
X0269348Y0293668D01*
X0267697Y0292016D02*
X0266045Y0292016D01*
X0266045Y0294218D01*
X0247146Y0292016D02*
X0246045Y0293117D01*
X0243149Y0289319D02*
X0244250Y0288218D01*
X0244250Y0286016D01*
X0244250Y0287668D02*
X0242048Y0287668D01*
X0242048Y0288218D02*
X0243149Y0289319D01*
X0242048Y0288218D02*
X0242048Y0286016D01*
X0233384Y0277207D02*
X0231749Y0275572D01*
X0232158Y0275164D01*
X0232975Y0275164D01*
X0233384Y0275572D01*
X0233384Y0277207D01*
X0232975Y0277615D01*
X0232158Y0277615D01*
X0231749Y0277207D01*
X0231749Y0275572D01*
X0230484Y0275164D02*
X0228849Y0275164D01*
X0230484Y0276798D01*
X0230484Y0277207D01*
X0230075Y0277615D01*
X0229258Y0277615D01*
X0228849Y0277207D01*
X0227584Y0277207D02*
X0227175Y0277615D01*
X0226358Y0277615D01*
X0225949Y0277207D01*
X0225949Y0275572D01*
X0226358Y0275164D01*
X0227175Y0275164D01*
X0227584Y0275572D01*
X0242048Y0269319D02*
X0242048Y0266016D01*
X0244250Y0266016D01*
X0243149Y0267668D02*
X0242048Y0267668D01*
X0242048Y0269319D02*
X0244250Y0269319D01*
X0256178Y0264216D02*
X0256178Y0262173D01*
X0256587Y0261764D01*
X0257404Y0261764D01*
X0257812Y0262173D01*
X0257812Y0264216D01*
X0259078Y0264216D02*
X0260713Y0264216D01*
X0260713Y0263807D01*
X0259078Y0262173D01*
X0259078Y0261764D01*
X0276246Y0261608D02*
X0276655Y0261200D01*
X0277472Y0261200D01*
X0277881Y0261608D01*
X0279147Y0261608D02*
X0279555Y0261200D01*
X0280372Y0261200D01*
X0280781Y0261608D01*
X0280781Y0262017D01*
X0280372Y0262425D01*
X0279964Y0262425D01*
X0280372Y0262425D02*
X0280781Y0262834D01*
X0280781Y0263243D01*
X0280372Y0263651D01*
X0279555Y0263651D01*
X0279147Y0263243D01*
X0277881Y0263243D02*
X0277472Y0263651D01*
X0276655Y0263651D01*
X0276246Y0263243D01*
X0276246Y0261608D01*
X0278722Y0257352D02*
X0278313Y0256943D01*
X0278313Y0255309D01*
X0278722Y0254900D01*
X0279539Y0254900D01*
X0279948Y0255309D01*
X0281213Y0255309D02*
X0281622Y0254900D01*
X0282439Y0254900D01*
X0282848Y0255309D01*
X0282848Y0255718D01*
X0282439Y0256126D01*
X0282031Y0256126D01*
X0282439Y0256126D02*
X0282848Y0256535D01*
X0282848Y0256943D01*
X0282439Y0257352D01*
X0281622Y0257352D01*
X0281213Y0256943D01*
X0279948Y0256943D02*
X0279539Y0257352D01*
X0278722Y0257352D01*
X0282455Y0261200D02*
X0282047Y0261608D01*
X0283681Y0263243D01*
X0283681Y0261608D01*
X0283272Y0261200D01*
X0282455Y0261200D01*
X0282047Y0261608D02*
X0282047Y0263243D01*
X0282455Y0263651D01*
X0283272Y0263651D01*
X0283681Y0263243D01*
X0284931Y0257352D02*
X0284931Y0254900D01*
X0284114Y0254900D02*
X0285748Y0254900D01*
X0284114Y0256535D02*
X0284931Y0257352D01*
X0345765Y0242686D02*
X0345765Y0240484D01*
X0345765Y0241585D02*
X0342462Y0241585D01*
X0343563Y0240484D01*
X0343013Y0239003D02*
X0345214Y0236801D01*
X0345765Y0237351D01*
X0345765Y0238452D01*
X0345214Y0239003D01*
X0343013Y0239003D01*
X0342462Y0238452D01*
X0342462Y0237351D01*
X0343013Y0236801D01*
X0345214Y0236801D01*
X0344114Y0235320D02*
X0344114Y0233118D01*
X0344114Y0231636D02*
X0344114Y0229435D01*
X0342462Y0231086D01*
X0345765Y0231086D01*
X0345214Y0227953D02*
X0345765Y0227403D01*
X0345765Y0226302D01*
X0345214Y0225751D01*
X0343013Y0227953D01*
X0345214Y0227953D01*
X0343013Y0227953D02*
X0342462Y0227403D01*
X0342462Y0226302D01*
X0343013Y0225751D01*
X0345214Y0225751D01*
X0345214Y0224270D02*
X0344664Y0224270D01*
X0344114Y0223720D01*
X0344114Y0222068D01*
X0345214Y0222068D01*
X0345765Y0222619D01*
X0345765Y0223720D01*
X0345214Y0224270D01*
X0343013Y0223169D02*
X0344114Y0222068D01*
X0344114Y0220587D02*
X0344114Y0218385D01*
X0342462Y0220037D01*
X0345765Y0220037D01*
X0345214Y0216904D02*
X0345765Y0216353D01*
X0345765Y0215252D01*
X0345214Y0214702D01*
X0344114Y0215803D02*
X0344114Y0216353D01*
X0344664Y0216904D01*
X0345214Y0216904D01*
X0344114Y0216353D02*
X0343563Y0216904D01*
X0343013Y0216904D01*
X0342462Y0216353D01*
X0342462Y0215252D01*
X0343013Y0214702D01*
X0342462Y0212120D02*
X0345765Y0212120D01*
X0345765Y0211019D02*
X0345765Y0213221D01*
X0343563Y0211019D02*
X0342462Y0212120D01*
X0344114Y0209538D02*
X0344114Y0207336D01*
X0344114Y0205854D02*
X0344664Y0205304D01*
X0344664Y0203653D01*
X0345765Y0203653D02*
X0342462Y0203653D01*
X0342462Y0205304D01*
X0343013Y0205854D01*
X0344114Y0205854D01*
X0344664Y0202171D02*
X0345214Y0202171D01*
X0345765Y0201621D01*
X0345765Y0200520D01*
X0345214Y0199969D01*
X0344114Y0200520D02*
X0344114Y0201621D01*
X0344664Y0202171D01*
X0343013Y0202171D02*
X0342462Y0201621D01*
X0342462Y0200520D01*
X0343013Y0199969D01*
X0343563Y0199969D01*
X0344114Y0200520D01*
X0344114Y0198488D02*
X0344114Y0196286D01*
X0343563Y0196286D02*
X0342462Y0197387D01*
X0343563Y0198488D01*
X0345765Y0198488D01*
X0345765Y0196286D02*
X0343563Y0196286D01*
X0343013Y0223169D02*
X0342462Y0224270D01*
X0211961Y0234336D02*
X0208658Y0234336D01*
X0211961Y0236538D01*
X0208658Y0236538D01*
X0153477Y0268654D02*
X0151842Y0267020D01*
X0151842Y0266611D01*
X0150577Y0267020D02*
X0150168Y0266611D01*
X0149351Y0266611D01*
X0148942Y0267020D01*
X0148942Y0267837D02*
X0149759Y0268246D01*
X0150168Y0268246D01*
X0150577Y0267837D01*
X0150577Y0267020D01*
X0148942Y0267837D02*
X0148942Y0269063D01*
X0150577Y0269063D01*
X0151842Y0269063D02*
X0153477Y0269063D01*
X0153477Y0268654D01*
X0147677Y0268654D02*
X0147268Y0269063D01*
X0146451Y0269063D01*
X0146042Y0268654D01*
X0146042Y0267020D01*
X0146451Y0266611D01*
X0147268Y0266611D01*
X0147677Y0267020D01*
X0291466Y0281071D02*
X0293117Y0279420D01*
X0293117Y0281622D01*
X0291466Y0281071D02*
X0294769Y0281071D01*
X0294218Y0283103D02*
X0292017Y0285305D01*
X0294218Y0285305D01*
X0294769Y0284754D01*
X0294769Y0283653D01*
X0294218Y0283103D01*
X0292017Y0283103D01*
X0291466Y0283653D01*
X0291466Y0284754D01*
X0292017Y0285305D01*
X0318466Y0281729D02*
X0318466Y0280078D01*
X0321769Y0280078D01*
X0321769Y0281729D01*
X0321218Y0282280D01*
X0319017Y0282280D01*
X0318466Y0281729D01*
X0323466Y0281729D02*
X0323466Y0280629D01*
X0324017Y0280078D01*
X0326218Y0280078D01*
X0326769Y0280629D01*
X0326769Y0281729D01*
X0326218Y0282280D01*
X0324017Y0282280D02*
X0323466Y0281729D01*
X0331466Y0282336D02*
X0331466Y0283437D01*
X0332017Y0283988D01*
X0334218Y0281786D01*
X0334769Y0282336D01*
X0334769Y0283437D01*
X0334218Y0283988D01*
X0332017Y0283988D01*
X0331466Y0282336D02*
X0332017Y0281786D01*
X0334218Y0281786D01*
X0334218Y0280305D02*
X0333668Y0280305D01*
X0333117Y0279754D01*
X0333117Y0278103D01*
X0334218Y0278103D01*
X0334769Y0278653D01*
X0334769Y0279754D01*
X0334218Y0280305D01*
X0332017Y0279204D02*
X0333117Y0278103D01*
X0332017Y0279204D02*
X0331466Y0280305D01*
X0331466Y0275521D02*
X0334769Y0275521D01*
X0334769Y0274420D02*
X0334769Y0276622D01*
X0332567Y0274420D02*
X0331466Y0275521D01*
X0342462Y0155564D02*
X0345765Y0155564D01*
X0345765Y0153362D02*
X0342462Y0153362D01*
X0343563Y0154463D01*
X0342462Y0155564D01*
X0342462Y0151881D02*
X0345765Y0151881D01*
X0345765Y0149679D02*
X0342462Y0149679D01*
X0343563Y0150780D01*
X0342462Y0151881D01*
X0343013Y0148198D02*
X0345214Y0145996D01*
X0345765Y0146546D01*
X0345765Y0147647D01*
X0345214Y0148198D01*
X0343013Y0148198D01*
X0342462Y0147647D01*
X0342462Y0146546D01*
X0343013Y0145996D01*
X0345214Y0145996D01*
X0345765Y0144515D02*
X0345765Y0142313D01*
X0345765Y0143414D02*
X0342462Y0143414D01*
X0343563Y0142313D01*
X0342462Y0137148D02*
X0342462Y0134946D01*
X0345765Y0134946D01*
X0345765Y0137148D01*
X0344114Y0136047D02*
X0344114Y0134946D01*
X0345765Y0133465D02*
X0345765Y0131263D01*
X0342462Y0131263D01*
X0343563Y0129782D02*
X0345765Y0129782D01*
X0344114Y0129782D02*
X0344114Y0127580D01*
X0343563Y0127580D02*
X0342462Y0128681D01*
X0343563Y0129782D01*
X0343563Y0127580D02*
X0345765Y0127580D01*
X0345765Y0126099D02*
X0342462Y0126099D01*
X0343563Y0124998D01*
X0342462Y0123897D01*
X0345765Y0123897D01*
X0345214Y0118733D02*
X0345765Y0118182D01*
X0345765Y0117081D01*
X0345214Y0116531D01*
X0343013Y0116531D01*
X0342462Y0117081D01*
X0342462Y0118182D01*
X0343013Y0118733D01*
X0343013Y0115049D02*
X0344114Y0115049D01*
X0344664Y0114499D01*
X0344664Y0112848D01*
X0345765Y0112848D02*
X0342462Y0112848D01*
X0342462Y0114499D01*
X0343013Y0115049D01*
X0345765Y0111366D02*
X0345765Y0109164D01*
X0342462Y0109164D01*
X0343013Y0104000D02*
X0342462Y0103449D01*
X0342462Y0102349D01*
X0343013Y0101798D01*
X0345214Y0101798D01*
X0345765Y0102349D01*
X0345765Y0103449D01*
X0345214Y0104000D01*
X0345765Y0100317D02*
X0342462Y0100317D01*
X0343563Y0099216D01*
X0342462Y0098115D01*
X0345765Y0098115D01*
X0344114Y0095533D02*
X0344114Y0094432D01*
X0345765Y0094432D02*
X0342462Y0094432D01*
X0342462Y0096634D01*
X0334769Y0076488D02*
X0334769Y0074286D01*
X0334769Y0075387D02*
X0331466Y0075387D01*
X0332567Y0074286D01*
X0332567Y0072805D02*
X0332017Y0072805D01*
X0331466Y0072254D01*
X0331466Y0071153D01*
X0332017Y0070603D01*
X0332567Y0072805D02*
X0334769Y0070603D01*
X0334769Y0072805D01*
X0334769Y0069122D02*
X0334769Y0066920D01*
X0334769Y0068021D02*
X0331466Y0068021D01*
X0332567Y0066920D01*
X0326769Y0070629D02*
X0326769Y0071729D01*
X0326218Y0072280D01*
X0326769Y0070629D02*
X0326218Y0070078D01*
X0324017Y0070078D01*
X0323466Y0070629D01*
X0323466Y0071729D01*
X0324017Y0072280D01*
X0321769Y0071729D02*
X0321218Y0072280D01*
X0319017Y0072280D01*
X0318466Y0071729D01*
X0318466Y0070078D01*
X0321769Y0070078D01*
X0321769Y0071729D01*
X0306769Y0071729D02*
X0306218Y0072280D01*
X0305117Y0072280D01*
X0305117Y0071179D01*
X0304017Y0070078D02*
X0306218Y0070078D01*
X0306769Y0070629D01*
X0306769Y0071729D01*
X0304017Y0072280D02*
X0303466Y0071729D01*
X0303466Y0070629D01*
X0304017Y0070078D01*
X0301769Y0070078D02*
X0298466Y0070078D01*
X0300117Y0070078D02*
X0300117Y0072280D01*
X0298466Y0072280D02*
X0301769Y0072280D01*
X0294769Y0071920D02*
X0294769Y0074122D01*
X0294769Y0073021D02*
X0291466Y0073021D01*
X0292567Y0071920D01*
X0279008Y0064249D02*
X0278600Y0064249D01*
X0276965Y0065883D01*
X0276557Y0065883D01*
X0276557Y0064249D01*
X0276557Y0062166D02*
X0279008Y0062166D01*
X0279008Y0061349D02*
X0279008Y0062983D01*
X0277374Y0061349D02*
X0276557Y0062166D01*
X0276965Y0060083D02*
X0276557Y0059674D01*
X0276557Y0058857D01*
X0276965Y0058448D01*
X0278600Y0058448D01*
X0279008Y0058857D01*
X0279008Y0059674D01*
X0278600Y0060083D01*
X0268852Y0083090D02*
X0267217Y0083090D01*
X0268034Y0083090D02*
X0268034Y0085542D01*
X0267217Y0084725D01*
X0265952Y0084725D02*
X0265952Y0085133D01*
X0265543Y0085542D01*
X0264726Y0085542D01*
X0264317Y0085133D01*
X0263051Y0085133D02*
X0263051Y0084316D01*
X0262643Y0083907D01*
X0261417Y0083907D01*
X0261417Y0083090D02*
X0261417Y0085542D01*
X0262643Y0085542D01*
X0263051Y0085133D01*
X0262234Y0083907D02*
X0263051Y0083090D01*
X0264317Y0083090D02*
X0265952Y0084725D01*
X0265952Y0083090D02*
X0264317Y0083090D01*
X0268915Y0092425D02*
X0271367Y0092425D01*
X0271367Y0094060D01*
X0271367Y0095325D02*
X0271367Y0096960D01*
X0271367Y0096143D02*
X0268915Y0096143D01*
X0269732Y0095325D01*
X0269323Y0098225D02*
X0268915Y0098634D01*
X0268915Y0099451D01*
X0269323Y0099860D01*
X0269732Y0099860D01*
X0271367Y0098225D01*
X0271367Y0099860D01*
X0250466Y0102094D02*
X0248831Y0102094D01*
X0249649Y0102094D02*
X0249649Y0104546D01*
X0248831Y0103729D01*
X0247566Y0102094D02*
X0245931Y0102094D01*
X0246748Y0102094D02*
X0246748Y0104546D01*
X0245931Y0103729D01*
X0244666Y0104137D02*
X0244257Y0104546D01*
X0243440Y0104546D01*
X0243031Y0104137D01*
X0243031Y0102503D01*
X0243440Y0102094D01*
X0244257Y0102094D01*
X0244666Y0102503D01*
X0251181Y0108287D02*
X0252815Y0108287D01*
X0254081Y0108287D02*
X0255715Y0108287D01*
X0254898Y0108287D02*
X0254898Y0110739D01*
X0254081Y0109921D01*
X0256981Y0109921D02*
X0257798Y0110739D01*
X0257798Y0108287D01*
X0256981Y0108287D02*
X0258615Y0108287D01*
X0251181Y0108287D02*
X0251181Y0110739D01*
X0239776Y0113400D02*
X0239776Y0114218D01*
X0239367Y0114626D01*
X0239776Y0113400D02*
X0239367Y0112992D01*
X0237733Y0112992D01*
X0237324Y0113400D01*
X0237324Y0114218D01*
X0237733Y0114626D01*
X0237733Y0115892D02*
X0237324Y0116300D01*
X0237324Y0117118D01*
X0237733Y0117526D01*
X0238142Y0117526D01*
X0239776Y0115892D01*
X0239776Y0117526D01*
X0239367Y0118792D02*
X0239776Y0119201D01*
X0239776Y0120018D01*
X0239367Y0120426D01*
X0238959Y0120426D01*
X0238550Y0120018D01*
X0238550Y0119609D01*
X0238550Y0120018D02*
X0238142Y0120426D01*
X0237733Y0120426D01*
X0237324Y0120018D01*
X0237324Y0119201D01*
X0237733Y0118792D01*
X0241988Y0123294D02*
X0242396Y0122885D01*
X0243214Y0122885D01*
X0243622Y0123294D01*
X0244888Y0122885D02*
X0246522Y0124520D01*
X0246522Y0124929D01*
X0246114Y0125337D01*
X0245297Y0125337D01*
X0244888Y0124929D01*
X0243622Y0124929D02*
X0243214Y0125337D01*
X0242396Y0125337D01*
X0241988Y0124929D01*
X0241988Y0123294D01*
X0244888Y0122885D02*
X0246522Y0122885D01*
X0247788Y0122885D02*
X0249422Y0124520D01*
X0249422Y0124929D01*
X0249014Y0125337D01*
X0248197Y0125337D01*
X0247788Y0124929D01*
X0247788Y0122885D02*
X0249422Y0122885D01*
X0230062Y0123281D02*
X0228836Y0123281D01*
X0228427Y0123689D01*
X0228427Y0124098D01*
X0228836Y0124506D01*
X0229653Y0124506D01*
X0230062Y0124098D01*
X0230062Y0122463D01*
X0229653Y0122055D01*
X0228836Y0122055D01*
X0228427Y0122463D01*
X0227162Y0122463D02*
X0227162Y0124506D01*
X0225527Y0124506D02*
X0225527Y0122463D01*
X0225936Y0122055D01*
X0226753Y0122055D01*
X0227162Y0122463D01*
X0221608Y0124473D02*
X0219973Y0124473D01*
X0221199Y0125699D01*
X0221199Y0123248D01*
X0218707Y0123656D02*
X0218299Y0123248D01*
X0217482Y0123248D01*
X0217073Y0123656D01*
X0217890Y0124473D02*
X0218299Y0124473D01*
X0218707Y0124065D01*
X0218707Y0123656D01*
X0218299Y0124473D02*
X0218707Y0124882D01*
X0218707Y0125291D01*
X0218299Y0125699D01*
X0217482Y0125699D01*
X0217073Y0125291D01*
X0215807Y0125291D02*
X0215807Y0124473D01*
X0215399Y0124065D01*
X0214173Y0124065D01*
X0214990Y0124065D02*
X0215807Y0123248D01*
X0214173Y0123248D02*
X0214173Y0125699D01*
X0215399Y0125699D01*
X0215807Y0125291D01*
X0204311Y0115156D02*
X0201860Y0115156D01*
X0203086Y0113930D01*
X0203086Y0115564D01*
X0202677Y0112664D02*
X0202268Y0112664D01*
X0201860Y0112255D01*
X0201860Y0111438D01*
X0202268Y0111030D01*
X0202268Y0109764D02*
X0201860Y0109355D01*
X0201860Y0108538D01*
X0202268Y0108130D01*
X0203903Y0108130D01*
X0204311Y0108538D01*
X0204311Y0109355D01*
X0203903Y0109764D01*
X0204311Y0111030D02*
X0202677Y0112664D01*
X0204311Y0112664D02*
X0204311Y0111030D01*
X0205417Y0105920D02*
X0206643Y0105920D01*
X0207052Y0105511D01*
X0207052Y0104694D01*
X0206643Y0104285D01*
X0205417Y0104285D01*
X0205417Y0103468D02*
X0205417Y0105920D01*
X0206235Y0104285D02*
X0207052Y0103468D01*
X0208317Y0104694D02*
X0209952Y0104694D01*
X0209543Y0105920D02*
X0208317Y0104694D01*
X0209543Y0103468D02*
X0209543Y0105920D01*
X0211218Y0105511D02*
X0211626Y0105920D01*
X0212443Y0105920D01*
X0212852Y0105511D01*
X0211218Y0103877D01*
X0211626Y0103468D01*
X0212443Y0103468D01*
X0212852Y0103877D01*
X0212852Y0105511D01*
X0211218Y0105511D02*
X0211218Y0103877D01*
D11*
X0239594Y0137857D02*
X0239594Y0139721D01*
X0240216Y0140342D01*
X0242701Y0140342D01*
X0243322Y0139721D01*
X0243322Y0137857D01*
X0239594Y0137857D01*
X0241458Y0142207D02*
X0240837Y0142828D01*
X0240837Y0144071D01*
X0241458Y0144692D01*
X0242080Y0144692D01*
X0242080Y0142207D01*
X0242701Y0142207D02*
X0241458Y0142207D01*
X0242701Y0142207D02*
X0243322Y0142828D01*
X0243322Y0144071D01*
X0243322Y0146557D02*
X0243322Y0148421D01*
X0242701Y0149042D01*
X0242080Y0148421D01*
X0242080Y0147178D01*
X0241458Y0146557D01*
X0240837Y0147178D01*
X0240837Y0149042D01*
X0241458Y0150907D02*
X0240837Y0151529D01*
X0240837Y0152771D01*
X0241458Y0153392D01*
X0242080Y0153392D01*
X0242080Y0150907D01*
X0242701Y0150907D02*
X0241458Y0150907D01*
X0242701Y0150907D02*
X0243322Y0151529D01*
X0243322Y0152771D01*
X0243322Y0155258D02*
X0240837Y0155258D01*
X0240837Y0156500D02*
X0240837Y0157121D01*
X0240837Y0156500D02*
X0242080Y0155258D01*
X0243322Y0158883D02*
X0243322Y0160125D01*
X0243322Y0159504D02*
X0240837Y0159504D01*
X0240837Y0158883D01*
X0239594Y0159504D02*
X0238973Y0159504D01*
X0240837Y0162404D02*
X0240837Y0163647D01*
X0241458Y0164268D01*
X0243322Y0164268D01*
X0243322Y0162404D01*
X0242701Y0161783D01*
X0242080Y0162404D01*
X0242080Y0164268D01*
X0243322Y0166133D02*
X0243322Y0167375D01*
X0243322Y0166754D02*
X0239594Y0166754D01*
X0239594Y0166133D01*
X0240837Y0169033D02*
X0240837Y0169654D01*
X0243322Y0169654D01*
X0243322Y0169033D02*
X0243322Y0170276D01*
X0243322Y0171933D02*
X0240837Y0174418D01*
X0240837Y0171933D01*
X0243322Y0171933D02*
X0243322Y0174418D01*
X0242701Y0176283D02*
X0241458Y0176283D01*
X0240837Y0176905D01*
X0240837Y0178147D01*
X0241458Y0178768D01*
X0242080Y0178768D01*
X0242080Y0176283D01*
X0242701Y0176283D02*
X0243322Y0176905D01*
X0243322Y0178147D01*
X0243322Y0180634D02*
X0240837Y0180634D01*
X0240837Y0181876D02*
X0240837Y0182497D01*
X0240837Y0181876D02*
X0242080Y0180634D01*
X0243322Y0184259D02*
X0239594Y0186744D01*
X0239594Y0188609D02*
X0239594Y0189851D01*
X0239594Y0189230D02*
X0243322Y0189230D01*
X0243322Y0188609D02*
X0243322Y0189851D01*
X0242701Y0191509D02*
X0243322Y0192130D01*
X0243322Y0193373D01*
X0242701Y0193994D01*
X0240216Y0193994D01*
X0239594Y0193373D01*
X0239594Y0192130D01*
X0240216Y0191509D01*
X0242701Y0191509D01*
X0253685Y0191892D02*
X0253685Y0190649D01*
X0254306Y0190028D01*
X0253685Y0191892D02*
X0254306Y0192513D01*
X0254928Y0192513D01*
X0257413Y0190028D01*
X0257413Y0192513D01*
X0257413Y0188474D02*
X0257413Y0187853D01*
X0256791Y0187853D01*
X0256791Y0188474D01*
X0257413Y0188474D01*
X0257413Y0185988D02*
X0257413Y0183503D01*
X0257413Y0184745D02*
X0253685Y0184745D01*
X0254928Y0183503D01*
X0260772Y0182415D02*
X0264499Y0182415D01*
X0264499Y0184900D01*
X0267858Y0183503D02*
X0271586Y0183503D01*
X0271586Y0185988D01*
X0270965Y0187853D02*
X0268479Y0187853D01*
X0267858Y0188474D01*
X0267858Y0189717D01*
X0268479Y0190338D01*
X0269722Y0190338D01*
X0270343Y0189717D01*
X0269101Y0189717D01*
X0269101Y0188474D01*
X0270343Y0188474D01*
X0270343Y0189717D01*
X0270965Y0190338D02*
X0271586Y0189717D01*
X0271586Y0188474D01*
X0270965Y0187853D01*
X0271586Y0192203D02*
X0267858Y0192203D01*
X0269101Y0193445D01*
X0267858Y0194688D01*
X0271586Y0194688D01*
X0271586Y0196553D02*
X0271586Y0197796D01*
X0271586Y0197174D02*
X0267858Y0197174D01*
X0267858Y0196553D02*
X0267858Y0197796D01*
X0267858Y0199453D02*
X0267858Y0201938D01*
X0267858Y0200696D02*
X0271586Y0200696D01*
X0264499Y0200437D02*
X0264499Y0199816D01*
X0263878Y0199816D01*
X0263878Y0200437D01*
X0264499Y0200437D01*
X0264499Y0201991D02*
X0262014Y0204476D01*
X0261393Y0204476D01*
X0260772Y0203855D01*
X0260772Y0202612D01*
X0261393Y0201991D01*
X0264499Y0201991D02*
X0264499Y0204476D01*
X0264499Y0197951D02*
X0264499Y0195466D01*
X0264499Y0196708D02*
X0260772Y0196708D01*
X0262014Y0195466D01*
X0262014Y0193600D02*
X0264499Y0192358D01*
X0262014Y0191115D01*
X0274945Y0185366D02*
X0274945Y0184124D01*
X0275566Y0183503D01*
X0276187Y0183503D01*
X0276809Y0184124D01*
X0276809Y0185988D01*
X0278051Y0185988D02*
X0275566Y0185988D01*
X0274945Y0185366D01*
X0278051Y0185988D02*
X0278672Y0185366D01*
X0278672Y0184124D01*
X0278051Y0183503D01*
X0278672Y0181637D02*
X0278672Y0179152D01*
X0278672Y0180395D02*
X0274945Y0180395D01*
X0276187Y0179152D01*
X0275566Y0177287D02*
X0278051Y0174802D01*
X0278672Y0175423D01*
X0278672Y0176666D01*
X0278051Y0177287D01*
X0275566Y0177287D01*
X0274945Y0176666D01*
X0274945Y0175423D01*
X0275566Y0174802D01*
X0278051Y0174802D01*
X0278672Y0172937D02*
X0278672Y0170452D01*
X0276187Y0172937D01*
X0275566Y0172937D01*
X0274945Y0172316D01*
X0274945Y0171073D01*
X0275566Y0170452D01*
X0272828Y0167552D02*
X0271586Y0168794D01*
X0271586Y0168173D01*
X0270965Y0168173D01*
X0270965Y0168794D01*
X0271586Y0168794D01*
X0271586Y0165687D02*
X0267858Y0165687D01*
X0267858Y0163202D02*
X0271586Y0165687D01*
X0271586Y0163202D02*
X0267858Y0163202D01*
X0268479Y0161337D02*
X0269722Y0161337D01*
X0270343Y0160715D01*
X0270343Y0158852D01*
X0271586Y0158852D02*
X0267858Y0158852D01*
X0267858Y0160715D01*
X0268479Y0161337D01*
X0264499Y0160664D02*
X0260772Y0160664D01*
X0260772Y0162528D01*
X0261393Y0163149D01*
X0262635Y0163149D01*
X0263257Y0162528D01*
X0263257Y0160664D01*
X0263257Y0161907D02*
X0264499Y0163149D01*
X0264499Y0165014D02*
X0260772Y0165014D01*
X0264499Y0167499D01*
X0260772Y0167499D01*
X0257413Y0166412D02*
X0256170Y0165169D01*
X0256170Y0165791D02*
X0256170Y0163927D01*
X0257413Y0163927D02*
X0253685Y0163927D01*
X0253685Y0165791D01*
X0254306Y0166412D01*
X0255549Y0166412D01*
X0256170Y0165791D01*
X0256170Y0168277D02*
X0256170Y0170762D01*
X0255549Y0170762D01*
X0254928Y0170141D01*
X0254928Y0168898D01*
X0255549Y0168277D01*
X0256791Y0168277D01*
X0257413Y0168898D01*
X0257413Y0170141D01*
X0254928Y0172627D02*
X0257413Y0173870D01*
X0254928Y0175112D01*
X0256791Y0176977D02*
X0256791Y0177599D01*
X0257413Y0177599D01*
X0257413Y0176977D01*
X0256791Y0176977D01*
X0260772Y0178065D02*
X0264499Y0178065D01*
X0262635Y0178065D02*
X0262635Y0180550D01*
X0260772Y0180550D02*
X0264499Y0180550D01*
X0267858Y0181637D02*
X0271586Y0181637D01*
X0270343Y0180395D01*
X0271586Y0179152D01*
X0267858Y0179152D01*
X0267858Y0177287D02*
X0271586Y0177287D01*
X0271586Y0174802D02*
X0267858Y0174802D01*
X0269101Y0176045D01*
X0267858Y0177287D01*
X0264499Y0175578D02*
X0263878Y0176200D01*
X0261393Y0176200D01*
X0260772Y0175578D01*
X0260772Y0174336D01*
X0261393Y0173715D01*
X0263878Y0173715D01*
X0264499Y0174336D01*
X0264499Y0175578D01*
X0239594Y0169654D02*
X0238973Y0169654D01*
X0260772Y0158799D02*
X0260772Y0156314D01*
X0264499Y0156314D01*
X0264499Y0158799D01*
X0262635Y0157557D02*
X0262635Y0156314D01*
X0261393Y0154449D02*
X0260772Y0153828D01*
X0260772Y0152585D01*
X0261393Y0151964D01*
X0263878Y0151964D01*
X0264499Y0152585D01*
X0264499Y0153828D01*
X0263878Y0154449D01*
X0267858Y0155744D02*
X0267858Y0156986D01*
X0267858Y0156365D02*
X0270965Y0156365D01*
X0271586Y0155744D01*
X0271586Y0155123D01*
X0270965Y0154501D01*
X0243322Y0200209D02*
X0239594Y0200209D01*
X0239594Y0202073D01*
X0240216Y0202694D01*
X0240837Y0202694D01*
X0241458Y0202073D01*
X0241458Y0200209D01*
X0241458Y0202073D02*
X0242080Y0202694D01*
X0242701Y0202694D01*
X0243322Y0202073D01*
X0243322Y0200209D01*
X0242701Y0204559D02*
X0241458Y0204559D01*
X0240837Y0205181D01*
X0240837Y0206423D01*
X0241458Y0207045D01*
X0242701Y0207045D01*
X0243322Y0206423D01*
X0243322Y0205181D01*
X0242701Y0204559D01*
X0242701Y0208910D02*
X0242080Y0209531D01*
X0242080Y0211395D01*
X0241458Y0211395D02*
X0243322Y0211395D01*
X0243322Y0209531D01*
X0242701Y0208910D01*
X0240837Y0209531D02*
X0240837Y0210773D01*
X0241458Y0211395D01*
X0240837Y0213260D02*
X0243322Y0213260D01*
X0242080Y0213260D02*
X0240837Y0214502D01*
X0240837Y0215124D01*
X0241458Y0216885D02*
X0240837Y0217506D01*
X0240837Y0219370D01*
X0239594Y0219370D02*
X0243322Y0219370D01*
X0243322Y0217506D01*
X0242701Y0216885D01*
X0241458Y0216885D01*
X0287619Y0286570D02*
X0287619Y0066570D01*
X0309619Y0066570D01*
X0309619Y0061570D01*
X0315619Y0061570D01*
X0315619Y0066570D01*
X0309619Y0066570D01*
X0315619Y0066570D02*
X0337619Y0066570D01*
X0337619Y0286570D01*
X0287619Y0286570D01*
D12*
X0248638Y0225016D02*
X0235252Y0225016D01*
X0235252Y0132102D01*
X0248638Y0132102D01*
X0248638Y0225016D01*
X0250606Y0207299D02*
X0281709Y0207299D01*
X0281709Y0148638D01*
X0250606Y0148638D01*
X0250606Y0207299D01*
D13*
X0073441Y0236433D02*
X0069898Y0239189D01*
D14*
X0096825Y0228647D02*
X0096825Y0217447D01*
X0100225Y0217447D01*
X0100225Y0228647D02*
X0096825Y0228647D01*
X0134153Y0232218D02*
X0140302Y0232218D01*
X0140302Y0243419D02*
X0134153Y0243419D01*
X0136228Y0243316D02*
X0136230Y0243254D01*
X0136236Y0243193D01*
X0136245Y0243132D01*
X0136258Y0243072D01*
X0136275Y0243013D01*
X0136296Y0242955D01*
X0136320Y0242898D01*
X0136347Y0242843D01*
X0136378Y0242790D01*
X0136412Y0242738D01*
X0136449Y0242689D01*
X0136489Y0242642D01*
X0136532Y0242598D01*
X0136577Y0242557D01*
X0136625Y0242518D01*
X0136676Y0242482D01*
X0136728Y0242450D01*
X0136782Y0242421D01*
X0136838Y0242395D01*
X0136896Y0242373D01*
X0136954Y0242354D01*
X0137014Y0242339D01*
X0137075Y0242328D01*
X0137136Y0242320D01*
X0137197Y0242316D01*
X0137259Y0242316D01*
X0137320Y0242320D01*
X0137381Y0242328D01*
X0137442Y0242339D01*
X0137502Y0242354D01*
X0137560Y0242373D01*
X0137618Y0242395D01*
X0137674Y0242421D01*
X0137728Y0242450D01*
X0137780Y0242482D01*
X0137831Y0242518D01*
X0137879Y0242557D01*
X0137924Y0242598D01*
X0137967Y0242642D01*
X0138007Y0242689D01*
X0138044Y0242738D01*
X0138078Y0242790D01*
X0138109Y0242843D01*
X0138136Y0242898D01*
X0138160Y0242955D01*
X0138181Y0243013D01*
X0138198Y0243072D01*
X0138211Y0243132D01*
X0138220Y0243193D01*
X0138226Y0243254D01*
X0138228Y0243316D01*
X0191157Y0229150D02*
X0213205Y0229150D01*
X0207386Y0226228D02*
X0196504Y0226228D01*
X0196504Y0222228D01*
X0207386Y0222228D01*
X0207386Y0226228D01*
X0213205Y0219307D02*
X0191157Y0219307D01*
X0173529Y0207143D02*
X0162329Y0207143D01*
X0162329Y0203743D01*
X0155331Y0208087D02*
X0160843Y0216748D01*
X0140689Y0214083D02*
X0134539Y0214083D01*
X0136614Y0213980D02*
X0136616Y0213918D01*
X0136622Y0213857D01*
X0136631Y0213796D01*
X0136644Y0213736D01*
X0136661Y0213677D01*
X0136682Y0213619D01*
X0136706Y0213562D01*
X0136733Y0213507D01*
X0136764Y0213454D01*
X0136798Y0213402D01*
X0136835Y0213353D01*
X0136875Y0213306D01*
X0136918Y0213262D01*
X0136963Y0213221D01*
X0137011Y0213182D01*
X0137062Y0213146D01*
X0137114Y0213114D01*
X0137168Y0213085D01*
X0137224Y0213059D01*
X0137282Y0213037D01*
X0137340Y0213018D01*
X0137400Y0213003D01*
X0137461Y0212992D01*
X0137522Y0212984D01*
X0137583Y0212980D01*
X0137645Y0212980D01*
X0137706Y0212984D01*
X0137767Y0212992D01*
X0137828Y0213003D01*
X0137888Y0213018D01*
X0137946Y0213037D01*
X0138004Y0213059D01*
X0138060Y0213085D01*
X0138114Y0213114D01*
X0138166Y0213146D01*
X0138217Y0213182D01*
X0138265Y0213221D01*
X0138310Y0213262D01*
X0138353Y0213306D01*
X0138393Y0213353D01*
X0138430Y0213402D01*
X0138464Y0213454D01*
X0138495Y0213507D01*
X0138522Y0213562D01*
X0138546Y0213619D01*
X0138567Y0213677D01*
X0138584Y0213736D01*
X0138597Y0213796D01*
X0138606Y0213857D01*
X0138612Y0213918D01*
X0138614Y0213980D01*
X0140689Y0202882D02*
X0134539Y0202882D01*
X0100619Y0199513D02*
X0097219Y0199513D01*
X0097219Y0188313D01*
X0100619Y0188313D01*
X0098550Y0179654D02*
X0098550Y0176254D01*
X0109750Y0176254D01*
X0109750Y0179654D01*
X0156748Y0178867D02*
X0158087Y0180206D01*
X0159426Y0178867D01*
X0174142Y0164150D02*
X0175481Y0162811D01*
X0174142Y0161472D01*
X0205331Y0160055D02*
X0205331Y0159661D01*
X0205331Y0160055D02*
X0208677Y0160055D01*
X0213795Y0160055D02*
X0217142Y0160055D01*
X0217142Y0159661D01*
X0217142Y0168717D02*
X0217142Y0169110D01*
X0217142Y0168717D02*
X0213795Y0168717D01*
X0208677Y0168717D02*
X0205331Y0168717D01*
X0205331Y0169110D01*
X0205331Y0180134D02*
X0205331Y0180528D01*
X0208677Y0180528D01*
X0213795Y0180528D02*
X0217142Y0180528D01*
X0217142Y0180134D01*
X0207102Y0191157D02*
X0191748Y0191157D01*
X0191748Y0201394D01*
X0207102Y0201394D01*
X0207102Y0191157D01*
X0173529Y0203743D02*
X0173529Y0207143D01*
X0142031Y0164150D02*
X0140692Y0162811D01*
X0142031Y0161472D01*
X0156695Y0146943D02*
X0156973Y0146664D01*
X0158643Y0146664D01*
X0158087Y0146108D01*
X0157808Y0146386D01*
X0156973Y0146664D02*
X0158087Y0145551D01*
X0159479Y0146943D01*
X0156695Y0146943D01*
X0133555Y0134612D02*
X0131955Y0134612D01*
X0131955Y0133012D01*
X0186555Y0134612D02*
X0188155Y0134612D01*
X0188155Y0133012D01*
X0222260Y0116748D02*
X0222260Y0116354D01*
X0222260Y0116748D02*
X0225606Y0116748D01*
X0230724Y0116748D02*
X0234071Y0116748D01*
X0234071Y0116354D01*
X0234071Y0105331D02*
X0234071Y0104937D01*
X0230724Y0104937D01*
X0225606Y0104937D02*
X0222260Y0104937D01*
X0222260Y0105331D01*
X0188155Y0080012D02*
X0188155Y0078412D01*
X0186555Y0078412D01*
X0133555Y0078412D02*
X0131955Y0078412D01*
X0131955Y0080012D01*
X0205331Y0148244D02*
X0205331Y0148638D01*
X0205331Y0148244D02*
X0208677Y0148244D01*
X0213795Y0148244D02*
X0217142Y0148244D01*
X0217142Y0148638D01*
X0249698Y0265366D02*
X0250698Y0265366D01*
X0254698Y0265366D02*
X0255698Y0265366D01*
X0259698Y0265366D02*
X0260698Y0265366D01*
X0264698Y0265366D02*
X0265698Y0265366D01*
X0269998Y0269666D02*
X0269998Y0270666D01*
X0269998Y0274666D02*
X0269998Y0275666D01*
X0269998Y0279666D02*
X0269998Y0280666D01*
X0269998Y0284666D02*
X0269998Y0285666D01*
X0265698Y0289966D02*
X0264698Y0289966D01*
X0260698Y0289966D02*
X0254698Y0289966D01*
X0250698Y0289966D02*
X0249698Y0289966D01*
X0245398Y0285666D02*
X0245398Y0279666D01*
X0245398Y0275666D02*
X0245398Y0274666D01*
X0245398Y0270666D02*
X0245398Y0269666D01*
D15*
X0238655Y0273733D02*
X0238655Y0260733D01*
X0219655Y0260733D01*
X0219655Y0273733D01*
X0238655Y0273733D01*
X0238846Y0281902D02*
X0219846Y0281902D01*
X0219846Y0294902D01*
X0238846Y0294902D01*
X0238846Y0281902D01*
X0202488Y0280366D02*
X0202488Y0288366D01*
X0188488Y0288366D01*
X0188488Y0280366D01*
X0202488Y0280366D01*
X0185417Y0282855D02*
X0185417Y0287255D01*
X0177017Y0287255D01*
X0177017Y0282855D01*
X0185417Y0282855D01*
X0184858Y0290173D02*
X0188402Y0290173D01*
X0188402Y0296079D01*
X0190894Y0295257D02*
X0190894Y0299657D01*
X0199294Y0299657D01*
X0199294Y0295257D01*
X0190894Y0295257D01*
X0190894Y0293751D02*
X0190894Y0289351D01*
X0199294Y0289351D01*
X0199294Y0293751D01*
X0190894Y0293751D01*
X0183874Y0298244D02*
X0181118Y0298244D01*
X0176591Y0296079D02*
X0176591Y0290173D01*
X0180134Y0290173D01*
X0174138Y0290474D02*
X0174138Y0282074D01*
X0169738Y0282074D01*
X0169738Y0290474D01*
X0174138Y0290474D01*
X0174138Y0291074D02*
X0169738Y0291074D01*
X0169738Y0299474D01*
X0174138Y0299474D01*
X0174138Y0291074D01*
X0168713Y0291074D02*
X0164313Y0291074D01*
X0164313Y0299474D01*
X0168713Y0299474D01*
X0168713Y0291074D01*
X0168713Y0290474D02*
X0168713Y0282074D01*
X0164313Y0282074D01*
X0164313Y0290474D01*
X0168713Y0290474D01*
X0163394Y0290474D02*
X0163394Y0282074D01*
X0158994Y0282074D01*
X0158994Y0290474D01*
X0163394Y0290474D01*
X0163394Y0291074D02*
X0158994Y0291074D01*
X0158994Y0299474D01*
X0163394Y0299474D01*
X0163394Y0291074D01*
X0141570Y0291198D02*
X0141570Y0299198D01*
X0127570Y0299198D01*
X0127570Y0291198D01*
X0141570Y0291198D01*
X0141187Y0289262D02*
X0136787Y0289262D01*
X0136787Y0280862D01*
X0141187Y0280862D01*
X0141187Y0289262D01*
X0132439Y0289260D02*
X0128039Y0289260D01*
X0128039Y0280860D01*
X0132439Y0280860D01*
X0132439Y0289260D01*
X0126748Y0289307D02*
X0106748Y0289307D01*
X0106748Y0299307D01*
X0126748Y0299307D01*
X0126748Y0289307D01*
X0125016Y0288402D02*
X0101394Y0288402D01*
X0100769Y0289320D02*
X0100769Y0297720D01*
X0105169Y0297720D01*
X0105169Y0289320D01*
X0100769Y0289320D01*
X0145109Y0279393D02*
X0155109Y0279393D01*
X0155109Y0299393D01*
X0145109Y0299393D01*
X0145109Y0279393D01*
X0158473Y0273633D02*
X0160729Y0273633D01*
X0158473Y0273633D02*
X0158473Y0271377D01*
X0153908Y0265210D02*
X0145508Y0265210D01*
X0145508Y0260810D01*
X0153908Y0260810D01*
X0153908Y0265210D01*
X0185351Y0273633D02*
X0187607Y0273633D01*
X0187607Y0271377D01*
X0153908Y0260289D02*
X0145508Y0260289D01*
X0145508Y0255889D01*
X0153908Y0255889D01*
X0153908Y0260289D01*
X0144539Y0260318D02*
X0144539Y0251918D01*
X0140139Y0251918D01*
X0140139Y0260318D01*
X0144539Y0260318D01*
X0125016Y0264780D02*
X0101394Y0264780D01*
X0083909Y0261761D02*
X0079509Y0261761D01*
X0079509Y0270161D01*
X0083909Y0270161D01*
X0083909Y0261761D01*
X0078579Y0260429D02*
X0078579Y0275429D01*
X0063579Y0275429D01*
X0063579Y0260429D01*
X0078579Y0260429D01*
X0072917Y0259893D02*
X0072917Y0256280D01*
X0072523Y0256280D01*
X0072523Y0259893D01*
X0072917Y0259893D01*
X0072523Y0259893D02*
X0067272Y0259893D01*
X0067272Y0256280D01*
X0072523Y0256280D01*
X0072917Y0253987D02*
X0072917Y0249587D01*
X0064517Y0249587D01*
X0064517Y0253987D01*
X0072917Y0253987D01*
X0076000Y0249819D02*
X0081118Y0249819D01*
X0086595Y0249688D02*
X0090995Y0249688D01*
X0090995Y0241288D01*
X0086595Y0241288D01*
X0086595Y0249688D01*
X0097787Y0244220D02*
X0105787Y0244220D01*
X0105787Y0230220D01*
X0097787Y0230220D01*
X0097787Y0244220D01*
X0106449Y0244220D02*
X0114449Y0244220D01*
X0114449Y0230220D01*
X0106449Y0230220D01*
X0106449Y0244220D01*
X0115110Y0244220D02*
X0123110Y0244220D01*
X0123110Y0230220D01*
X0115110Y0230220D01*
X0115110Y0244220D01*
X0124391Y0241027D02*
X0128791Y0241027D01*
X0128791Y0232627D01*
X0124391Y0232627D01*
X0124391Y0241027D01*
X0145257Y0236957D02*
X0145257Y0245357D01*
X0149657Y0245357D01*
X0149657Y0236957D01*
X0145257Y0236957D01*
X0143520Y0230528D02*
X0143520Y0222654D01*
X0141624Y0223973D02*
X0141624Y0219573D01*
X0133224Y0219573D01*
X0133224Y0223973D01*
X0141624Y0223973D01*
X0141624Y0225380D02*
X0141624Y0229780D01*
X0133224Y0229780D01*
X0133224Y0225380D01*
X0141624Y0225380D01*
X0143520Y0230528D02*
X0149031Y0230528D01*
X0153756Y0230528D02*
X0159268Y0230528D01*
X0159268Y0222654D01*
X0153756Y0222654D02*
X0149031Y0222654D01*
X0131578Y0223603D02*
X0131578Y0228003D01*
X0123178Y0228003D01*
X0123178Y0223603D01*
X0131578Y0223603D01*
X0131578Y0221310D02*
X0131578Y0216910D01*
X0123178Y0216910D01*
X0123178Y0221310D01*
X0131578Y0221310D01*
X0119110Y0221669D02*
X0119110Y0224425D01*
X0116945Y0228953D02*
X0111039Y0228953D01*
X0111039Y0225409D01*
X0111039Y0220685D02*
X0111039Y0217142D01*
X0116945Y0217142D01*
X0115504Y0215087D02*
X0123504Y0215087D01*
X0123504Y0201087D01*
X0115504Y0201087D01*
X0115504Y0215087D01*
X0114843Y0215087D02*
X0114843Y0201087D01*
X0106843Y0201087D01*
X0106843Y0215087D01*
X0114843Y0215087D01*
X0106181Y0215087D02*
X0106181Y0201087D01*
X0098181Y0201087D01*
X0098181Y0215087D01*
X0106181Y0215087D01*
X0095720Y0215830D02*
X0091320Y0215830D01*
X0091320Y0207430D01*
X0095720Y0207430D01*
X0095720Y0215830D01*
X0089953Y0222236D02*
X0089953Y0207323D01*
X0064803Y0207323D01*
X0064803Y0222236D01*
X0089953Y0222236D01*
X0089953Y0222283D02*
X0064803Y0222283D01*
X0064803Y0237197D01*
X0089953Y0237197D01*
X0089953Y0222283D01*
X0091320Y0228493D02*
X0091320Y0236893D01*
X0095720Y0236893D01*
X0095720Y0228493D01*
X0091320Y0228493D01*
X0103125Y0224147D02*
X0103125Y0221947D01*
X0124784Y0211499D02*
X0129184Y0211499D01*
X0129184Y0203099D01*
X0124784Y0203099D01*
X0124784Y0211499D01*
X0146406Y0213436D02*
X0146406Y0209036D01*
X0154806Y0209036D01*
X0154806Y0213436D01*
X0146406Y0213436D01*
X0144307Y0202969D02*
X0144307Y0195094D01*
X0142208Y0195650D02*
X0142208Y0200050D01*
X0133808Y0200050D01*
X0133808Y0195650D01*
X0142208Y0195650D01*
X0142208Y0194145D02*
X0142208Y0189745D01*
X0133808Y0189745D01*
X0133808Y0194145D01*
X0142208Y0194145D01*
X0149819Y0195094D02*
X0154543Y0195094D01*
X0160055Y0195094D02*
X0160055Y0202969D01*
X0154543Y0202969D01*
X0149819Y0202969D02*
X0144307Y0202969D01*
X0131972Y0198476D02*
X0123572Y0198476D01*
X0123572Y0194076D01*
X0131972Y0194076D01*
X0131972Y0198476D01*
X0119504Y0194898D02*
X0119504Y0192142D01*
X0123572Y0192176D02*
X0131972Y0192176D01*
X0131972Y0187776D01*
X0123572Y0187776D01*
X0123572Y0192176D01*
X0117339Y0187614D02*
X0111433Y0187614D01*
X0111433Y0191157D01*
X0111433Y0195882D02*
X0111433Y0199425D01*
X0117339Y0199425D01*
X0103519Y0195013D02*
X0103519Y0192813D01*
X0089953Y0192362D02*
X0064803Y0192362D01*
X0064803Y0207276D01*
X0089953Y0207276D01*
X0089953Y0192362D01*
X0062024Y0193520D02*
X0062024Y0188795D01*
X0057299Y0184071D02*
X0052575Y0184071D01*
X0047063Y0184071D02*
X0036236Y0184071D01*
X0036236Y0198244D01*
X0047063Y0198244D01*
X0047063Y0200213D02*
X0036236Y0200213D01*
X0036236Y0214386D01*
X0047063Y0214386D01*
X0047063Y0216354D02*
X0036236Y0216354D01*
X0036236Y0230528D01*
X0047063Y0230528D01*
X0047850Y0225803D02*
X0047850Y0221079D01*
X0052575Y0216354D02*
X0057299Y0216354D01*
X0057299Y0214386D02*
X0052575Y0214386D01*
X0047850Y0209661D02*
X0047850Y0204937D01*
X0052575Y0200213D02*
X0057299Y0200213D01*
X0057299Y0198244D02*
X0052575Y0198244D01*
X0047850Y0193520D02*
X0047850Y0188795D01*
X0046276Y0180528D02*
X0046276Y0082102D01*
X0164517Y0071704D02*
X0164517Y0067304D01*
X0172917Y0067304D01*
X0172917Y0071704D01*
X0164517Y0071704D01*
X0163992Y0060449D02*
X0163992Y0054937D01*
X0175803Y0054937D02*
X0175803Y0056493D01*
X0175803Y0058893D01*
X0175803Y0060449D01*
X0176753Y0061893D02*
X0181153Y0061893D01*
X0181153Y0053493D01*
X0176753Y0053493D01*
X0176753Y0061893D01*
X0175803Y0058893D02*
X0175734Y0058891D01*
X0175666Y0058885D01*
X0175598Y0058875D01*
X0175531Y0058862D01*
X0175465Y0058844D01*
X0175400Y0058823D01*
X0175336Y0058798D01*
X0175274Y0058770D01*
X0175213Y0058738D01*
X0175154Y0058703D01*
X0175098Y0058664D01*
X0175043Y0058622D01*
X0174992Y0058577D01*
X0174942Y0058529D01*
X0174896Y0058479D01*
X0174853Y0058426D01*
X0174812Y0058370D01*
X0174775Y0058313D01*
X0174742Y0058253D01*
X0174711Y0058191D01*
X0174685Y0058128D01*
X0174662Y0058064D01*
X0174642Y0057998D01*
X0174627Y0057931D01*
X0174615Y0057864D01*
X0174607Y0057796D01*
X0174603Y0057727D01*
X0174603Y0057659D01*
X0174607Y0057590D01*
X0174615Y0057522D01*
X0174627Y0057455D01*
X0174642Y0057388D01*
X0174662Y0057322D01*
X0174685Y0057258D01*
X0174711Y0057195D01*
X0174742Y0057133D01*
X0174775Y0057073D01*
X0174812Y0057016D01*
X0174853Y0056960D01*
X0174896Y0056907D01*
X0174942Y0056857D01*
X0174992Y0056809D01*
X0175043Y0056764D01*
X0175098Y0056722D01*
X0175154Y0056683D01*
X0175213Y0056648D01*
X0175274Y0056616D01*
X0175336Y0056588D01*
X0175400Y0056563D01*
X0175465Y0056542D01*
X0175531Y0056524D01*
X0175598Y0056511D01*
X0175666Y0056501D01*
X0175734Y0056495D01*
X0175803Y0056493D01*
X0189713Y0059036D02*
X0189713Y0063436D01*
X0198113Y0063436D01*
X0198113Y0059036D01*
X0189713Y0059036D01*
X0189713Y0064154D02*
X0189713Y0068554D01*
X0198113Y0068554D01*
X0198113Y0064154D01*
X0189713Y0064154D01*
X0189713Y0069272D02*
X0189713Y0073672D01*
X0198113Y0073672D01*
X0198113Y0069272D01*
X0189713Y0069272D01*
X0189713Y0074391D02*
X0189713Y0078791D01*
X0198113Y0078791D01*
X0198113Y0074391D01*
X0189713Y0074391D01*
X0200900Y0068274D02*
X0207400Y0068274D01*
X0207400Y0055774D01*
X0200900Y0055774D01*
X0200900Y0068274D01*
X0208087Y0081709D02*
X0267142Y0081709D01*
X0267142Y0077772D01*
X0263205Y0081709D01*
X0267142Y0081709D01*
X0267142Y0046276D01*
X0208087Y0046276D01*
X0208087Y0081709D01*
X0211185Y0087807D02*
X0211185Y0100807D01*
X0230185Y0100807D01*
X0230185Y0087807D01*
X0211185Y0087807D01*
X0220816Y0086665D02*
X0229216Y0086665D01*
X0229216Y0082265D01*
X0220816Y0082265D01*
X0220816Y0086665D01*
X0231083Y0092469D02*
X0231083Y0100869D01*
X0235483Y0100869D01*
X0235483Y0092469D01*
X0231083Y0092469D01*
X0242681Y0087413D02*
X0242681Y0100413D01*
X0261681Y0100413D01*
X0261681Y0087413D01*
X0242681Y0087413D01*
X0251524Y0086665D02*
X0259924Y0086665D01*
X0259924Y0082265D01*
X0251524Y0082265D01*
X0251524Y0086665D01*
X0263425Y0081488D02*
X0267142Y0081488D01*
X0267142Y0080990D02*
X0263923Y0080990D01*
X0264422Y0080491D02*
X0267142Y0080491D01*
X0267142Y0079993D02*
X0264920Y0079993D01*
X0265419Y0079494D02*
X0267142Y0079494D01*
X0267142Y0078996D02*
X0265917Y0078996D01*
X0266416Y0078497D02*
X0267142Y0078497D01*
X0267142Y0077999D02*
X0266915Y0077999D01*
X0268616Y0068274D02*
X0275116Y0068274D01*
X0275116Y0055774D01*
X0268616Y0055774D01*
X0268616Y0068274D01*
X0199657Y0085776D02*
X0195257Y0085776D01*
X0195257Y0094176D01*
X0199657Y0094176D01*
X0199657Y0085776D01*
X0236595Y0103099D02*
X0236595Y0111499D01*
X0240995Y0111499D01*
X0240995Y0103099D01*
X0236595Y0103099D01*
X0241882Y0107386D02*
X0241882Y0121386D01*
X0249882Y0121386D01*
X0249882Y0107386D01*
X0241882Y0107386D01*
X0250737Y0107137D02*
X0250737Y0102737D01*
X0259137Y0102737D01*
X0259137Y0107137D01*
X0250737Y0107137D01*
X0263367Y0100476D02*
X0267767Y0100476D01*
X0267767Y0092076D01*
X0263367Y0092076D01*
X0263367Y0100476D01*
X0218948Y0104280D02*
X0218948Y0112680D01*
X0214548Y0112680D01*
X0214548Y0104280D01*
X0218948Y0104280D01*
X0213661Y0107780D02*
X0205661Y0107780D01*
X0205661Y0121780D01*
X0213661Y0121780D01*
X0213661Y0107780D01*
X0214548Y0113335D02*
X0218948Y0113335D01*
X0218948Y0121735D01*
X0214548Y0121735D01*
X0214548Y0113335D01*
X0219666Y0146406D02*
X0219666Y0154806D01*
X0224066Y0154806D01*
X0224066Y0146406D01*
X0219666Y0146406D01*
X0224953Y0150693D02*
X0224953Y0164693D01*
X0232953Y0164693D01*
X0232953Y0150693D01*
X0224953Y0150693D01*
X0202019Y0147587D02*
X0197619Y0147587D01*
X0197619Y0155987D01*
X0202019Y0155987D01*
X0202019Y0147587D01*
X0196732Y0151087D02*
X0188732Y0151087D01*
X0188732Y0165087D01*
X0196732Y0165087D01*
X0196732Y0151087D01*
X0197619Y0156643D02*
X0202019Y0156643D01*
X0202019Y0165043D01*
X0197619Y0165043D01*
X0197619Y0156643D01*
X0197619Y0168060D02*
X0202019Y0168060D01*
X0202019Y0176460D01*
X0197619Y0176460D01*
X0197619Y0168060D01*
X0196732Y0171559D02*
X0188732Y0171559D01*
X0188732Y0185559D01*
X0196732Y0185559D01*
X0196732Y0171559D01*
X0197619Y0177115D02*
X0202019Y0177115D01*
X0202019Y0185515D01*
X0197619Y0185515D01*
X0197619Y0177115D01*
X0179148Y0173674D02*
X0173208Y0167734D01*
X0170097Y0170846D01*
X0176036Y0176785D01*
X0179148Y0173674D01*
X0172061Y0180761D02*
X0166121Y0174821D01*
X0163010Y0177932D01*
X0168950Y0183872D01*
X0172061Y0180761D01*
X0151982Y0176824D02*
X0148871Y0179935D01*
X0142931Y0173995D01*
X0146042Y0170884D01*
X0151982Y0176824D01*
X0145683Y0170524D02*
X0142572Y0173636D01*
X0136632Y0167696D01*
X0139743Y0164585D01*
X0145683Y0170524D01*
X0123835Y0173441D02*
X0117142Y0173441D01*
X0117142Y0174228D01*
X0117142Y0182102D02*
X0117142Y0182890D01*
X0125016Y0182890D01*
X0125016Y0182102D01*
X0105250Y0182554D02*
X0103050Y0182554D01*
X0163729Y0190532D02*
X0163729Y0194932D01*
X0172129Y0194932D01*
X0172129Y0190532D01*
X0163729Y0190532D01*
X0166829Y0200843D02*
X0169029Y0200843D01*
X0196866Y0201394D02*
X0196868Y0201294D01*
X0196874Y0201193D01*
X0196884Y0201093D01*
X0196898Y0200994D01*
X0196915Y0200895D01*
X0196937Y0200797D01*
X0196962Y0200699D01*
X0196991Y0200603D01*
X0197024Y0200508D01*
X0197061Y0200415D01*
X0197101Y0200323D01*
X0197145Y0200232D01*
X0197192Y0200144D01*
X0197243Y0200057D01*
X0197297Y0199972D01*
X0197355Y0199890D01*
X0197415Y0199810D01*
X0197479Y0199732D01*
X0197546Y0199657D01*
X0197616Y0199585D01*
X0197688Y0199515D01*
X0197763Y0199448D01*
X0197841Y0199384D01*
X0197921Y0199324D01*
X0198003Y0199266D01*
X0198088Y0199212D01*
X0198175Y0199161D01*
X0198263Y0199114D01*
X0198354Y0199070D01*
X0198446Y0199030D01*
X0198539Y0198993D01*
X0198634Y0198960D01*
X0198730Y0198931D01*
X0198828Y0198906D01*
X0198926Y0198884D01*
X0199025Y0198867D01*
X0199124Y0198853D01*
X0199224Y0198843D01*
X0199325Y0198837D01*
X0199425Y0198835D01*
X0199525Y0198837D01*
X0199626Y0198843D01*
X0199726Y0198853D01*
X0199825Y0198867D01*
X0199924Y0198884D01*
X0200022Y0198906D01*
X0200120Y0198931D01*
X0200216Y0198960D01*
X0200311Y0198993D01*
X0200404Y0199030D01*
X0200496Y0199070D01*
X0200587Y0199114D01*
X0200675Y0199161D01*
X0200762Y0199212D01*
X0200847Y0199266D01*
X0200929Y0199324D01*
X0201009Y0199384D01*
X0201087Y0199448D01*
X0201162Y0199515D01*
X0201234Y0199585D01*
X0201304Y0199657D01*
X0201371Y0199732D01*
X0201435Y0199810D01*
X0201495Y0199890D01*
X0201553Y0199972D01*
X0201607Y0200057D01*
X0201658Y0200144D01*
X0201705Y0200232D01*
X0201749Y0200323D01*
X0201789Y0200415D01*
X0201826Y0200508D01*
X0201859Y0200603D01*
X0201888Y0200699D01*
X0201913Y0200797D01*
X0201935Y0200895D01*
X0201952Y0200994D01*
X0201966Y0201093D01*
X0201976Y0201193D01*
X0201982Y0201294D01*
X0201984Y0201394D01*
X0214942Y0201657D02*
X0214942Y0193257D01*
X0219342Y0193257D01*
X0219342Y0201657D01*
X0214942Y0201657D01*
X0220454Y0199294D02*
X0224854Y0199294D01*
X0224854Y0190894D01*
X0220454Y0190894D01*
X0220454Y0199294D01*
X0224953Y0185165D02*
X0232953Y0185165D01*
X0232953Y0171165D01*
X0224953Y0171165D01*
X0224953Y0185165D01*
X0224066Y0175279D02*
X0219666Y0175279D01*
X0219666Y0166879D01*
X0224066Y0166879D01*
X0224066Y0175279D01*
X0062024Y0204937D02*
X0062024Y0209661D01*
X0062024Y0221079D02*
X0062024Y0225803D01*
X0061630Y0232102D02*
X0061630Y0234858D01*
X0061630Y0232102D02*
X0058087Y0232102D01*
X0057299Y0230528D02*
X0052575Y0230528D01*
X0046276Y0237220D02*
X0038008Y0237220D01*
X0038008Y0251787D01*
X0046669Y0251787D01*
X0047063Y0258087D02*
X0036236Y0258087D01*
X0036236Y0272260D01*
X0047063Y0272260D01*
X0047850Y0267535D02*
X0047850Y0262811D01*
X0052575Y0258087D02*
X0057299Y0258087D01*
X0058087Y0256512D02*
X0061630Y0256512D01*
X0061630Y0253756D01*
X0065335Y0247720D02*
X0069735Y0247720D01*
X0069735Y0239320D01*
X0065335Y0239320D01*
X0065335Y0247720D01*
X0076000Y0238008D02*
X0081118Y0238008D01*
X0062024Y0262811D02*
X0062024Y0267535D01*
X0057299Y0272260D02*
X0052575Y0272260D01*
X0185351Y0244499D02*
X0187607Y0244499D01*
X0187607Y0246755D01*
X0186665Y0236302D02*
X0182265Y0236302D01*
X0182265Y0227902D01*
X0186665Y0227902D01*
X0186665Y0236302D01*
X0187351Y0235483D02*
X0187351Y0231083D01*
X0195751Y0231083D01*
X0195751Y0235483D01*
X0187351Y0235483D01*
X0181546Y0236302D02*
X0181546Y0227902D01*
X0177146Y0227902D01*
X0177146Y0236302D01*
X0181546Y0236302D01*
X0263493Y0251717D02*
X0263493Y0259717D01*
X0277493Y0259717D01*
X0277493Y0251717D01*
X0263493Y0251717D01*
X0266293Y0260407D02*
X0266293Y0264807D01*
X0274693Y0264807D01*
X0274693Y0260407D01*
X0266293Y0260407D01*
X0266493Y0294135D02*
X0262093Y0294135D01*
X0262093Y0302535D01*
X0266493Y0302535D01*
X0266493Y0294135D01*
X0267506Y0294135D02*
X0271906Y0294135D01*
X0271906Y0302535D01*
X0267506Y0302535D01*
X0267506Y0294135D01*
X0261079Y0294135D02*
X0256679Y0294135D01*
X0256679Y0302535D01*
X0261079Y0302535D01*
X0261079Y0294135D01*
X0255666Y0294135D02*
X0251266Y0294135D01*
X0251266Y0302535D01*
X0255666Y0302535D01*
X0255666Y0294135D01*
D16*
X0159457Y0245483D03*
D17*
X0203886Y0224228D03*
D18*
X0136039Y0130528D03*
D19*
X0125409Y0173441D03*
D20*
X0205331Y0181315D03*
X0205331Y0160843D03*
X0222260Y0117535D03*
M02*
