G75*
%MOIN*%
%OFA0B0*%
%FSLAX25Y25*%
%IPPOS*%
%LPD*%
%AMOC8*
5,1,8,0,0,1.08239X$1,22.5*
%
%ADD10C,0.00500*%
%ADD11C,0.00000*%
D10*
X0050213Y0056512D02*
X0152969Y0056512D01*
X0153093Y0056510D01*
X0153216Y0056504D01*
X0153340Y0056495D01*
X0153462Y0056481D01*
X0153585Y0056464D01*
X0153707Y0056442D01*
X0153828Y0056417D01*
X0153948Y0056388D01*
X0154067Y0056356D01*
X0154186Y0056319D01*
X0154303Y0056279D01*
X0154418Y0056236D01*
X0154533Y0056188D01*
X0154645Y0056137D01*
X0154756Y0056083D01*
X0154866Y0056025D01*
X0154973Y0055964D01*
X0155079Y0055899D01*
X0155182Y0055831D01*
X0155283Y0055760D01*
X0155382Y0055686D01*
X0155479Y0055609D01*
X0155573Y0055528D01*
X0155664Y0055445D01*
X0155753Y0055359D01*
X0155839Y0055270D01*
X0155922Y0055179D01*
X0156003Y0055085D01*
X0156080Y0054988D01*
X0156154Y0054889D01*
X0156225Y0054788D01*
X0156293Y0054685D01*
X0156358Y0054579D01*
X0156419Y0054472D01*
X0156477Y0054362D01*
X0156531Y0054251D01*
X0156582Y0054139D01*
X0156630Y0054024D01*
X0156673Y0053909D01*
X0156713Y0053792D01*
X0156750Y0053673D01*
X0156782Y0053554D01*
X0156811Y0053434D01*
X0156836Y0053313D01*
X0156858Y0053191D01*
X0156875Y0053068D01*
X0156889Y0052946D01*
X0156898Y0052822D01*
X0156904Y0052699D01*
X0156906Y0052575D01*
X0156906Y0044701D01*
X0351394Y0044701D01*
X0351394Y0316354D01*
X0138008Y0316354D01*
X0138008Y0310055D01*
X0138006Y0309931D01*
X0138000Y0309808D01*
X0137991Y0309684D01*
X0137977Y0309562D01*
X0137960Y0309439D01*
X0137938Y0309317D01*
X0137913Y0309196D01*
X0137884Y0309076D01*
X0137852Y0308957D01*
X0137815Y0308838D01*
X0137775Y0308721D01*
X0137732Y0308606D01*
X0137684Y0308491D01*
X0137633Y0308379D01*
X0137579Y0308268D01*
X0137521Y0308158D01*
X0137460Y0308051D01*
X0137395Y0307945D01*
X0137327Y0307842D01*
X0137256Y0307741D01*
X0137182Y0307642D01*
X0137105Y0307545D01*
X0137024Y0307451D01*
X0136941Y0307360D01*
X0136855Y0307271D01*
X0136766Y0307185D01*
X0136675Y0307102D01*
X0136581Y0307021D01*
X0136484Y0306944D01*
X0136385Y0306870D01*
X0136284Y0306799D01*
X0136181Y0306731D01*
X0136075Y0306666D01*
X0135968Y0306605D01*
X0135858Y0306547D01*
X0135747Y0306493D01*
X0135635Y0306442D01*
X0135520Y0306394D01*
X0135405Y0306351D01*
X0135288Y0306311D01*
X0135169Y0306274D01*
X0135050Y0306242D01*
X0134930Y0306213D01*
X0134809Y0306188D01*
X0134687Y0306166D01*
X0134564Y0306149D01*
X0134442Y0306135D01*
X0134318Y0306126D01*
X0134195Y0306120D01*
X0134071Y0306118D01*
X0095488Y0306118D01*
X0095488Y0301787D01*
X0095486Y0301663D01*
X0095480Y0301540D01*
X0095471Y0301416D01*
X0095457Y0301294D01*
X0095440Y0301171D01*
X0095418Y0301049D01*
X0095393Y0300928D01*
X0095364Y0300808D01*
X0095332Y0300689D01*
X0095295Y0300570D01*
X0095255Y0300453D01*
X0095212Y0300338D01*
X0095164Y0300223D01*
X0095113Y0300111D01*
X0095059Y0300000D01*
X0095001Y0299890D01*
X0094940Y0299783D01*
X0094875Y0299677D01*
X0094807Y0299574D01*
X0094736Y0299473D01*
X0094662Y0299374D01*
X0094585Y0299277D01*
X0094504Y0299183D01*
X0094421Y0299092D01*
X0094335Y0299003D01*
X0094246Y0298917D01*
X0094155Y0298834D01*
X0094061Y0298753D01*
X0093964Y0298676D01*
X0093865Y0298602D01*
X0093764Y0298531D01*
X0093661Y0298463D01*
X0093555Y0298398D01*
X0093448Y0298337D01*
X0093338Y0298279D01*
X0093227Y0298225D01*
X0093115Y0298174D01*
X0093000Y0298126D01*
X0092885Y0298083D01*
X0092768Y0298043D01*
X0092649Y0298006D01*
X0092530Y0297974D01*
X0092410Y0297945D01*
X0092289Y0297920D01*
X0092167Y0297898D01*
X0092044Y0297881D01*
X0091922Y0297867D01*
X0091798Y0297858D01*
X0091675Y0297852D01*
X0091551Y0297850D01*
X0050213Y0297850D01*
X0050213Y0056512D01*
D11*
X0074031Y0095488D02*
X0074033Y0095622D01*
X0074039Y0095756D01*
X0074049Y0095890D01*
X0074063Y0096024D01*
X0074081Y0096157D01*
X0074102Y0096289D01*
X0074128Y0096421D01*
X0074158Y0096552D01*
X0074191Y0096682D01*
X0074228Y0096810D01*
X0074270Y0096938D01*
X0074314Y0097065D01*
X0074363Y0097190D01*
X0074415Y0097313D01*
X0074471Y0097435D01*
X0074531Y0097556D01*
X0074594Y0097674D01*
X0074660Y0097791D01*
X0074730Y0097905D01*
X0074803Y0098018D01*
X0074880Y0098128D01*
X0074960Y0098236D01*
X0075043Y0098341D01*
X0075129Y0098444D01*
X0075218Y0098544D01*
X0075310Y0098642D01*
X0075405Y0098737D01*
X0075503Y0098829D01*
X0075603Y0098918D01*
X0075706Y0099004D01*
X0075811Y0099087D01*
X0075919Y0099167D01*
X0076029Y0099244D01*
X0076142Y0099317D01*
X0076256Y0099387D01*
X0076373Y0099453D01*
X0076491Y0099516D01*
X0076612Y0099576D01*
X0076734Y0099632D01*
X0076857Y0099684D01*
X0076982Y0099733D01*
X0077109Y0099777D01*
X0077237Y0099819D01*
X0077365Y0099856D01*
X0077495Y0099889D01*
X0077626Y0099919D01*
X0077758Y0099945D01*
X0077890Y0099966D01*
X0078023Y0099984D01*
X0078157Y0099998D01*
X0078291Y0100008D01*
X0078425Y0100014D01*
X0078559Y0100016D01*
X0078693Y0100014D01*
X0078827Y0100008D01*
X0078961Y0099998D01*
X0079095Y0099984D01*
X0079228Y0099966D01*
X0079360Y0099945D01*
X0079492Y0099919D01*
X0079623Y0099889D01*
X0079753Y0099856D01*
X0079881Y0099819D01*
X0080009Y0099777D01*
X0080136Y0099733D01*
X0080261Y0099684D01*
X0080384Y0099632D01*
X0080506Y0099576D01*
X0080627Y0099516D01*
X0080745Y0099453D01*
X0080862Y0099387D01*
X0080976Y0099317D01*
X0081089Y0099244D01*
X0081199Y0099167D01*
X0081307Y0099087D01*
X0081412Y0099004D01*
X0081515Y0098918D01*
X0081615Y0098829D01*
X0081713Y0098737D01*
X0081808Y0098642D01*
X0081900Y0098544D01*
X0081989Y0098444D01*
X0082075Y0098341D01*
X0082158Y0098236D01*
X0082238Y0098128D01*
X0082315Y0098018D01*
X0082388Y0097905D01*
X0082458Y0097791D01*
X0082524Y0097674D01*
X0082587Y0097556D01*
X0082647Y0097435D01*
X0082703Y0097313D01*
X0082755Y0097190D01*
X0082804Y0097065D01*
X0082848Y0096938D01*
X0082890Y0096810D01*
X0082927Y0096682D01*
X0082960Y0096552D01*
X0082990Y0096421D01*
X0083016Y0096289D01*
X0083037Y0096157D01*
X0083055Y0096024D01*
X0083069Y0095890D01*
X0083079Y0095756D01*
X0083085Y0095622D01*
X0083087Y0095488D01*
X0083085Y0095354D01*
X0083079Y0095220D01*
X0083069Y0095086D01*
X0083055Y0094952D01*
X0083037Y0094819D01*
X0083016Y0094687D01*
X0082990Y0094555D01*
X0082960Y0094424D01*
X0082927Y0094294D01*
X0082890Y0094166D01*
X0082848Y0094038D01*
X0082804Y0093911D01*
X0082755Y0093786D01*
X0082703Y0093663D01*
X0082647Y0093541D01*
X0082587Y0093420D01*
X0082524Y0093302D01*
X0082458Y0093185D01*
X0082388Y0093071D01*
X0082315Y0092958D01*
X0082238Y0092848D01*
X0082158Y0092740D01*
X0082075Y0092635D01*
X0081989Y0092532D01*
X0081900Y0092432D01*
X0081808Y0092334D01*
X0081713Y0092239D01*
X0081615Y0092147D01*
X0081515Y0092058D01*
X0081412Y0091972D01*
X0081307Y0091889D01*
X0081199Y0091809D01*
X0081089Y0091732D01*
X0080976Y0091659D01*
X0080862Y0091589D01*
X0080745Y0091523D01*
X0080627Y0091460D01*
X0080506Y0091400D01*
X0080384Y0091344D01*
X0080261Y0091292D01*
X0080136Y0091243D01*
X0080009Y0091199D01*
X0079881Y0091157D01*
X0079753Y0091120D01*
X0079623Y0091087D01*
X0079492Y0091057D01*
X0079360Y0091031D01*
X0079228Y0091010D01*
X0079095Y0090992D01*
X0078961Y0090978D01*
X0078827Y0090968D01*
X0078693Y0090962D01*
X0078559Y0090960D01*
X0078425Y0090962D01*
X0078291Y0090968D01*
X0078157Y0090978D01*
X0078023Y0090992D01*
X0077890Y0091010D01*
X0077758Y0091031D01*
X0077626Y0091057D01*
X0077495Y0091087D01*
X0077365Y0091120D01*
X0077237Y0091157D01*
X0077109Y0091199D01*
X0076982Y0091243D01*
X0076857Y0091292D01*
X0076734Y0091344D01*
X0076612Y0091400D01*
X0076491Y0091460D01*
X0076373Y0091523D01*
X0076256Y0091589D01*
X0076142Y0091659D01*
X0076029Y0091732D01*
X0075919Y0091809D01*
X0075811Y0091889D01*
X0075706Y0091972D01*
X0075603Y0092058D01*
X0075503Y0092147D01*
X0075405Y0092239D01*
X0075310Y0092334D01*
X0075218Y0092432D01*
X0075129Y0092532D01*
X0075043Y0092635D01*
X0074960Y0092740D01*
X0074880Y0092848D01*
X0074803Y0092958D01*
X0074730Y0093071D01*
X0074660Y0093185D01*
X0074594Y0093302D01*
X0074531Y0093420D01*
X0074471Y0093541D01*
X0074415Y0093663D01*
X0074363Y0093786D01*
X0074314Y0093911D01*
X0074270Y0094038D01*
X0074228Y0094166D01*
X0074191Y0094294D01*
X0074158Y0094424D01*
X0074128Y0094555D01*
X0074102Y0094687D01*
X0074081Y0094819D01*
X0074063Y0094952D01*
X0074049Y0095086D01*
X0074039Y0095220D01*
X0074033Y0095354D01*
X0074031Y0095488D01*
X0065174Y0105724D02*
X0065176Y0105842D01*
X0065182Y0105961D01*
X0065192Y0106079D01*
X0065206Y0106196D01*
X0065223Y0106313D01*
X0065245Y0106430D01*
X0065271Y0106545D01*
X0065300Y0106660D01*
X0065333Y0106774D01*
X0065370Y0106886D01*
X0065411Y0106997D01*
X0065455Y0107107D01*
X0065503Y0107215D01*
X0065555Y0107322D01*
X0065610Y0107427D01*
X0065669Y0107530D01*
X0065731Y0107630D01*
X0065796Y0107729D01*
X0065865Y0107826D01*
X0065936Y0107920D01*
X0066011Y0108011D01*
X0066089Y0108101D01*
X0066170Y0108187D01*
X0066254Y0108271D01*
X0066340Y0108352D01*
X0066430Y0108430D01*
X0066521Y0108505D01*
X0066615Y0108576D01*
X0066712Y0108645D01*
X0066811Y0108710D01*
X0066911Y0108772D01*
X0067014Y0108831D01*
X0067119Y0108886D01*
X0067226Y0108938D01*
X0067334Y0108986D01*
X0067444Y0109030D01*
X0067555Y0109071D01*
X0067667Y0109108D01*
X0067781Y0109141D01*
X0067896Y0109170D01*
X0068011Y0109196D01*
X0068128Y0109218D01*
X0068245Y0109235D01*
X0068362Y0109249D01*
X0068480Y0109259D01*
X0068599Y0109265D01*
X0068717Y0109267D01*
X0068835Y0109265D01*
X0068954Y0109259D01*
X0069072Y0109249D01*
X0069189Y0109235D01*
X0069306Y0109218D01*
X0069423Y0109196D01*
X0069538Y0109170D01*
X0069653Y0109141D01*
X0069767Y0109108D01*
X0069879Y0109071D01*
X0069990Y0109030D01*
X0070100Y0108986D01*
X0070208Y0108938D01*
X0070315Y0108886D01*
X0070420Y0108831D01*
X0070523Y0108772D01*
X0070623Y0108710D01*
X0070722Y0108645D01*
X0070819Y0108576D01*
X0070913Y0108505D01*
X0071004Y0108430D01*
X0071094Y0108352D01*
X0071180Y0108271D01*
X0071264Y0108187D01*
X0071345Y0108101D01*
X0071423Y0108011D01*
X0071498Y0107920D01*
X0071569Y0107826D01*
X0071638Y0107729D01*
X0071703Y0107630D01*
X0071765Y0107530D01*
X0071824Y0107427D01*
X0071879Y0107322D01*
X0071931Y0107215D01*
X0071979Y0107107D01*
X0072023Y0106997D01*
X0072064Y0106886D01*
X0072101Y0106774D01*
X0072134Y0106660D01*
X0072163Y0106545D01*
X0072189Y0106430D01*
X0072211Y0106313D01*
X0072228Y0106196D01*
X0072242Y0106079D01*
X0072252Y0105961D01*
X0072258Y0105842D01*
X0072260Y0105724D01*
X0072258Y0105606D01*
X0072252Y0105487D01*
X0072242Y0105369D01*
X0072228Y0105252D01*
X0072211Y0105135D01*
X0072189Y0105018D01*
X0072163Y0104903D01*
X0072134Y0104788D01*
X0072101Y0104674D01*
X0072064Y0104562D01*
X0072023Y0104451D01*
X0071979Y0104341D01*
X0071931Y0104233D01*
X0071879Y0104126D01*
X0071824Y0104021D01*
X0071765Y0103918D01*
X0071703Y0103818D01*
X0071638Y0103719D01*
X0071569Y0103622D01*
X0071498Y0103528D01*
X0071423Y0103437D01*
X0071345Y0103347D01*
X0071264Y0103261D01*
X0071180Y0103177D01*
X0071094Y0103096D01*
X0071004Y0103018D01*
X0070913Y0102943D01*
X0070819Y0102872D01*
X0070722Y0102803D01*
X0070623Y0102738D01*
X0070523Y0102676D01*
X0070420Y0102617D01*
X0070315Y0102562D01*
X0070208Y0102510D01*
X0070100Y0102462D01*
X0069990Y0102418D01*
X0069879Y0102377D01*
X0069767Y0102340D01*
X0069653Y0102307D01*
X0069538Y0102278D01*
X0069423Y0102252D01*
X0069306Y0102230D01*
X0069189Y0102213D01*
X0069072Y0102199D01*
X0068954Y0102189D01*
X0068835Y0102183D01*
X0068717Y0102181D01*
X0068599Y0102183D01*
X0068480Y0102189D01*
X0068362Y0102199D01*
X0068245Y0102213D01*
X0068128Y0102230D01*
X0068011Y0102252D01*
X0067896Y0102278D01*
X0067781Y0102307D01*
X0067667Y0102340D01*
X0067555Y0102377D01*
X0067444Y0102418D01*
X0067334Y0102462D01*
X0067226Y0102510D01*
X0067119Y0102562D01*
X0067014Y0102617D01*
X0066911Y0102676D01*
X0066811Y0102738D01*
X0066712Y0102803D01*
X0066615Y0102872D01*
X0066521Y0102943D01*
X0066430Y0103018D01*
X0066340Y0103096D01*
X0066254Y0103177D01*
X0066170Y0103261D01*
X0066089Y0103347D01*
X0066011Y0103437D01*
X0065936Y0103528D01*
X0065865Y0103622D01*
X0065796Y0103719D01*
X0065731Y0103818D01*
X0065669Y0103918D01*
X0065610Y0104021D01*
X0065555Y0104126D01*
X0065503Y0104233D01*
X0065455Y0104341D01*
X0065411Y0104451D01*
X0065370Y0104562D01*
X0065333Y0104674D01*
X0065300Y0104788D01*
X0065271Y0104903D01*
X0065245Y0105018D01*
X0065223Y0105135D01*
X0065206Y0105252D01*
X0065192Y0105369D01*
X0065182Y0105487D01*
X0065176Y0105606D01*
X0065174Y0105724D01*
X0065174Y0160843D02*
X0065176Y0160961D01*
X0065182Y0161080D01*
X0065192Y0161198D01*
X0065206Y0161315D01*
X0065223Y0161432D01*
X0065245Y0161549D01*
X0065271Y0161664D01*
X0065300Y0161779D01*
X0065333Y0161893D01*
X0065370Y0162005D01*
X0065411Y0162116D01*
X0065455Y0162226D01*
X0065503Y0162334D01*
X0065555Y0162441D01*
X0065610Y0162546D01*
X0065669Y0162649D01*
X0065731Y0162749D01*
X0065796Y0162848D01*
X0065865Y0162945D01*
X0065936Y0163039D01*
X0066011Y0163130D01*
X0066089Y0163220D01*
X0066170Y0163306D01*
X0066254Y0163390D01*
X0066340Y0163471D01*
X0066430Y0163549D01*
X0066521Y0163624D01*
X0066615Y0163695D01*
X0066712Y0163764D01*
X0066811Y0163829D01*
X0066911Y0163891D01*
X0067014Y0163950D01*
X0067119Y0164005D01*
X0067226Y0164057D01*
X0067334Y0164105D01*
X0067444Y0164149D01*
X0067555Y0164190D01*
X0067667Y0164227D01*
X0067781Y0164260D01*
X0067896Y0164289D01*
X0068011Y0164315D01*
X0068128Y0164337D01*
X0068245Y0164354D01*
X0068362Y0164368D01*
X0068480Y0164378D01*
X0068599Y0164384D01*
X0068717Y0164386D01*
X0068835Y0164384D01*
X0068954Y0164378D01*
X0069072Y0164368D01*
X0069189Y0164354D01*
X0069306Y0164337D01*
X0069423Y0164315D01*
X0069538Y0164289D01*
X0069653Y0164260D01*
X0069767Y0164227D01*
X0069879Y0164190D01*
X0069990Y0164149D01*
X0070100Y0164105D01*
X0070208Y0164057D01*
X0070315Y0164005D01*
X0070420Y0163950D01*
X0070523Y0163891D01*
X0070623Y0163829D01*
X0070722Y0163764D01*
X0070819Y0163695D01*
X0070913Y0163624D01*
X0071004Y0163549D01*
X0071094Y0163471D01*
X0071180Y0163390D01*
X0071264Y0163306D01*
X0071345Y0163220D01*
X0071423Y0163130D01*
X0071498Y0163039D01*
X0071569Y0162945D01*
X0071638Y0162848D01*
X0071703Y0162749D01*
X0071765Y0162649D01*
X0071824Y0162546D01*
X0071879Y0162441D01*
X0071931Y0162334D01*
X0071979Y0162226D01*
X0072023Y0162116D01*
X0072064Y0162005D01*
X0072101Y0161893D01*
X0072134Y0161779D01*
X0072163Y0161664D01*
X0072189Y0161549D01*
X0072211Y0161432D01*
X0072228Y0161315D01*
X0072242Y0161198D01*
X0072252Y0161080D01*
X0072258Y0160961D01*
X0072260Y0160843D01*
X0072258Y0160725D01*
X0072252Y0160606D01*
X0072242Y0160488D01*
X0072228Y0160371D01*
X0072211Y0160254D01*
X0072189Y0160137D01*
X0072163Y0160022D01*
X0072134Y0159907D01*
X0072101Y0159793D01*
X0072064Y0159681D01*
X0072023Y0159570D01*
X0071979Y0159460D01*
X0071931Y0159352D01*
X0071879Y0159245D01*
X0071824Y0159140D01*
X0071765Y0159037D01*
X0071703Y0158937D01*
X0071638Y0158838D01*
X0071569Y0158741D01*
X0071498Y0158647D01*
X0071423Y0158556D01*
X0071345Y0158466D01*
X0071264Y0158380D01*
X0071180Y0158296D01*
X0071094Y0158215D01*
X0071004Y0158137D01*
X0070913Y0158062D01*
X0070819Y0157991D01*
X0070722Y0157922D01*
X0070623Y0157857D01*
X0070523Y0157795D01*
X0070420Y0157736D01*
X0070315Y0157681D01*
X0070208Y0157629D01*
X0070100Y0157581D01*
X0069990Y0157537D01*
X0069879Y0157496D01*
X0069767Y0157459D01*
X0069653Y0157426D01*
X0069538Y0157397D01*
X0069423Y0157371D01*
X0069306Y0157349D01*
X0069189Y0157332D01*
X0069072Y0157318D01*
X0068954Y0157308D01*
X0068835Y0157302D01*
X0068717Y0157300D01*
X0068599Y0157302D01*
X0068480Y0157308D01*
X0068362Y0157318D01*
X0068245Y0157332D01*
X0068128Y0157349D01*
X0068011Y0157371D01*
X0067896Y0157397D01*
X0067781Y0157426D01*
X0067667Y0157459D01*
X0067555Y0157496D01*
X0067444Y0157537D01*
X0067334Y0157581D01*
X0067226Y0157629D01*
X0067119Y0157681D01*
X0067014Y0157736D01*
X0066911Y0157795D01*
X0066811Y0157857D01*
X0066712Y0157922D01*
X0066615Y0157991D01*
X0066521Y0158062D01*
X0066430Y0158137D01*
X0066340Y0158215D01*
X0066254Y0158296D01*
X0066170Y0158380D01*
X0066089Y0158466D01*
X0066011Y0158556D01*
X0065936Y0158647D01*
X0065865Y0158741D01*
X0065796Y0158838D01*
X0065731Y0158937D01*
X0065669Y0159037D01*
X0065610Y0159140D01*
X0065555Y0159245D01*
X0065503Y0159352D01*
X0065455Y0159460D01*
X0065411Y0159570D01*
X0065370Y0159681D01*
X0065333Y0159793D01*
X0065300Y0159907D01*
X0065271Y0160022D01*
X0065245Y0160137D01*
X0065223Y0160254D01*
X0065206Y0160371D01*
X0065192Y0160488D01*
X0065182Y0160606D01*
X0065176Y0160725D01*
X0065174Y0160843D01*
X0074031Y0171079D02*
X0074033Y0171213D01*
X0074039Y0171347D01*
X0074049Y0171481D01*
X0074063Y0171615D01*
X0074081Y0171748D01*
X0074102Y0171880D01*
X0074128Y0172012D01*
X0074158Y0172143D01*
X0074191Y0172273D01*
X0074228Y0172401D01*
X0074270Y0172529D01*
X0074314Y0172656D01*
X0074363Y0172781D01*
X0074415Y0172904D01*
X0074471Y0173026D01*
X0074531Y0173147D01*
X0074594Y0173265D01*
X0074660Y0173382D01*
X0074730Y0173496D01*
X0074803Y0173609D01*
X0074880Y0173719D01*
X0074960Y0173827D01*
X0075043Y0173932D01*
X0075129Y0174035D01*
X0075218Y0174135D01*
X0075310Y0174233D01*
X0075405Y0174328D01*
X0075503Y0174420D01*
X0075603Y0174509D01*
X0075706Y0174595D01*
X0075811Y0174678D01*
X0075919Y0174758D01*
X0076029Y0174835D01*
X0076142Y0174908D01*
X0076256Y0174978D01*
X0076373Y0175044D01*
X0076491Y0175107D01*
X0076612Y0175167D01*
X0076734Y0175223D01*
X0076857Y0175275D01*
X0076982Y0175324D01*
X0077109Y0175368D01*
X0077237Y0175410D01*
X0077365Y0175447D01*
X0077495Y0175480D01*
X0077626Y0175510D01*
X0077758Y0175536D01*
X0077890Y0175557D01*
X0078023Y0175575D01*
X0078157Y0175589D01*
X0078291Y0175599D01*
X0078425Y0175605D01*
X0078559Y0175607D01*
X0078693Y0175605D01*
X0078827Y0175599D01*
X0078961Y0175589D01*
X0079095Y0175575D01*
X0079228Y0175557D01*
X0079360Y0175536D01*
X0079492Y0175510D01*
X0079623Y0175480D01*
X0079753Y0175447D01*
X0079881Y0175410D01*
X0080009Y0175368D01*
X0080136Y0175324D01*
X0080261Y0175275D01*
X0080384Y0175223D01*
X0080506Y0175167D01*
X0080627Y0175107D01*
X0080745Y0175044D01*
X0080862Y0174978D01*
X0080976Y0174908D01*
X0081089Y0174835D01*
X0081199Y0174758D01*
X0081307Y0174678D01*
X0081412Y0174595D01*
X0081515Y0174509D01*
X0081615Y0174420D01*
X0081713Y0174328D01*
X0081808Y0174233D01*
X0081900Y0174135D01*
X0081989Y0174035D01*
X0082075Y0173932D01*
X0082158Y0173827D01*
X0082238Y0173719D01*
X0082315Y0173609D01*
X0082388Y0173496D01*
X0082458Y0173382D01*
X0082524Y0173265D01*
X0082587Y0173147D01*
X0082647Y0173026D01*
X0082703Y0172904D01*
X0082755Y0172781D01*
X0082804Y0172656D01*
X0082848Y0172529D01*
X0082890Y0172401D01*
X0082927Y0172273D01*
X0082960Y0172143D01*
X0082990Y0172012D01*
X0083016Y0171880D01*
X0083037Y0171748D01*
X0083055Y0171615D01*
X0083069Y0171481D01*
X0083079Y0171347D01*
X0083085Y0171213D01*
X0083087Y0171079D01*
X0083085Y0170945D01*
X0083079Y0170811D01*
X0083069Y0170677D01*
X0083055Y0170543D01*
X0083037Y0170410D01*
X0083016Y0170278D01*
X0082990Y0170146D01*
X0082960Y0170015D01*
X0082927Y0169885D01*
X0082890Y0169757D01*
X0082848Y0169629D01*
X0082804Y0169502D01*
X0082755Y0169377D01*
X0082703Y0169254D01*
X0082647Y0169132D01*
X0082587Y0169011D01*
X0082524Y0168893D01*
X0082458Y0168776D01*
X0082388Y0168662D01*
X0082315Y0168549D01*
X0082238Y0168439D01*
X0082158Y0168331D01*
X0082075Y0168226D01*
X0081989Y0168123D01*
X0081900Y0168023D01*
X0081808Y0167925D01*
X0081713Y0167830D01*
X0081615Y0167738D01*
X0081515Y0167649D01*
X0081412Y0167563D01*
X0081307Y0167480D01*
X0081199Y0167400D01*
X0081089Y0167323D01*
X0080976Y0167250D01*
X0080862Y0167180D01*
X0080745Y0167114D01*
X0080627Y0167051D01*
X0080506Y0166991D01*
X0080384Y0166935D01*
X0080261Y0166883D01*
X0080136Y0166834D01*
X0080009Y0166790D01*
X0079881Y0166748D01*
X0079753Y0166711D01*
X0079623Y0166678D01*
X0079492Y0166648D01*
X0079360Y0166622D01*
X0079228Y0166601D01*
X0079095Y0166583D01*
X0078961Y0166569D01*
X0078827Y0166559D01*
X0078693Y0166553D01*
X0078559Y0166551D01*
X0078425Y0166553D01*
X0078291Y0166559D01*
X0078157Y0166569D01*
X0078023Y0166583D01*
X0077890Y0166601D01*
X0077758Y0166622D01*
X0077626Y0166648D01*
X0077495Y0166678D01*
X0077365Y0166711D01*
X0077237Y0166748D01*
X0077109Y0166790D01*
X0076982Y0166834D01*
X0076857Y0166883D01*
X0076734Y0166935D01*
X0076612Y0166991D01*
X0076491Y0167051D01*
X0076373Y0167114D01*
X0076256Y0167180D01*
X0076142Y0167250D01*
X0076029Y0167323D01*
X0075919Y0167400D01*
X0075811Y0167480D01*
X0075706Y0167563D01*
X0075603Y0167649D01*
X0075503Y0167738D01*
X0075405Y0167830D01*
X0075310Y0167925D01*
X0075218Y0168023D01*
X0075129Y0168123D01*
X0075043Y0168226D01*
X0074960Y0168331D01*
X0074880Y0168439D01*
X0074803Y0168549D01*
X0074730Y0168662D01*
X0074660Y0168776D01*
X0074594Y0168893D01*
X0074531Y0169011D01*
X0074471Y0169132D01*
X0074415Y0169254D01*
X0074363Y0169377D01*
X0074314Y0169502D01*
X0074270Y0169629D01*
X0074228Y0169757D01*
X0074191Y0169885D01*
X0074158Y0170015D01*
X0074128Y0170146D01*
X0074102Y0170278D01*
X0074081Y0170410D01*
X0074063Y0170543D01*
X0074049Y0170677D01*
X0074039Y0170811D01*
X0074033Y0170945D01*
X0074031Y0171079D01*
X0202318Y0058874D02*
X0202320Y0058970D01*
X0202326Y0059066D01*
X0202336Y0059162D01*
X0202350Y0059257D01*
X0202367Y0059352D01*
X0202389Y0059445D01*
X0202414Y0059538D01*
X0202443Y0059630D01*
X0202476Y0059720D01*
X0202513Y0059809D01*
X0202553Y0059897D01*
X0202597Y0059982D01*
X0202644Y0060066D01*
X0202695Y0060148D01*
X0202749Y0060228D01*
X0202806Y0060305D01*
X0202866Y0060380D01*
X0202930Y0060452D01*
X0202996Y0060522D01*
X0203065Y0060589D01*
X0203137Y0060653D01*
X0203211Y0060714D01*
X0203288Y0060772D01*
X0203367Y0060827D01*
X0203448Y0060879D01*
X0203531Y0060927D01*
X0203617Y0060971D01*
X0203704Y0061012D01*
X0203792Y0061050D01*
X0203882Y0061084D01*
X0203974Y0061114D01*
X0204066Y0061140D01*
X0204160Y0061163D01*
X0204254Y0061181D01*
X0204349Y0061196D01*
X0204445Y0061207D01*
X0204541Y0061214D01*
X0204637Y0061217D01*
X0204733Y0061216D01*
X0204829Y0061211D01*
X0204925Y0061202D01*
X0205020Y0061189D01*
X0205115Y0061173D01*
X0205209Y0061152D01*
X0205302Y0061128D01*
X0205394Y0061099D01*
X0205485Y0061067D01*
X0205574Y0061032D01*
X0205662Y0060992D01*
X0205748Y0060949D01*
X0205832Y0060903D01*
X0205915Y0060853D01*
X0205995Y0060800D01*
X0206073Y0060744D01*
X0206149Y0060684D01*
X0206222Y0060622D01*
X0206292Y0060556D01*
X0206360Y0060488D01*
X0206425Y0060417D01*
X0206486Y0060343D01*
X0206545Y0060267D01*
X0206601Y0060188D01*
X0206653Y0060107D01*
X0206702Y0060025D01*
X0206748Y0059940D01*
X0206790Y0059853D01*
X0206828Y0059765D01*
X0206863Y0059675D01*
X0206894Y0059584D01*
X0206921Y0059492D01*
X0206944Y0059399D01*
X0206964Y0059305D01*
X0206980Y0059210D01*
X0206992Y0059114D01*
X0207000Y0059018D01*
X0207004Y0058922D01*
X0207004Y0058826D01*
X0207000Y0058730D01*
X0206992Y0058634D01*
X0206980Y0058538D01*
X0206964Y0058443D01*
X0206944Y0058349D01*
X0206921Y0058256D01*
X0206894Y0058164D01*
X0206863Y0058073D01*
X0206828Y0057983D01*
X0206790Y0057895D01*
X0206748Y0057808D01*
X0206702Y0057723D01*
X0206653Y0057641D01*
X0206601Y0057560D01*
X0206545Y0057481D01*
X0206486Y0057405D01*
X0206425Y0057331D01*
X0206360Y0057260D01*
X0206292Y0057192D01*
X0206222Y0057126D01*
X0206149Y0057064D01*
X0206073Y0057004D01*
X0205995Y0056948D01*
X0205915Y0056895D01*
X0205833Y0056845D01*
X0205748Y0056799D01*
X0205662Y0056756D01*
X0205574Y0056716D01*
X0205485Y0056681D01*
X0205394Y0056649D01*
X0205302Y0056620D01*
X0205209Y0056596D01*
X0205115Y0056575D01*
X0205020Y0056559D01*
X0204925Y0056546D01*
X0204829Y0056537D01*
X0204733Y0056532D01*
X0204637Y0056531D01*
X0204541Y0056534D01*
X0204445Y0056541D01*
X0204349Y0056552D01*
X0204254Y0056567D01*
X0204160Y0056585D01*
X0204066Y0056608D01*
X0203974Y0056634D01*
X0203882Y0056664D01*
X0203792Y0056698D01*
X0203704Y0056736D01*
X0203617Y0056777D01*
X0203531Y0056821D01*
X0203448Y0056869D01*
X0203367Y0056921D01*
X0203288Y0056976D01*
X0203211Y0057034D01*
X0203137Y0057095D01*
X0203065Y0057159D01*
X0202996Y0057226D01*
X0202930Y0057296D01*
X0202866Y0057368D01*
X0202806Y0057443D01*
X0202749Y0057520D01*
X0202695Y0057600D01*
X0202644Y0057682D01*
X0202597Y0057766D01*
X0202553Y0057851D01*
X0202513Y0057939D01*
X0202476Y0058028D01*
X0202443Y0058118D01*
X0202414Y0058210D01*
X0202389Y0058303D01*
X0202367Y0058396D01*
X0202350Y0058491D01*
X0202336Y0058586D01*
X0202326Y0058682D01*
X0202320Y0058778D01*
X0202318Y0058874D01*
X0263500Y0058874D02*
X0263502Y0058970D01*
X0263508Y0059066D01*
X0263518Y0059162D01*
X0263532Y0059257D01*
X0263549Y0059352D01*
X0263571Y0059445D01*
X0263596Y0059538D01*
X0263625Y0059630D01*
X0263658Y0059720D01*
X0263695Y0059809D01*
X0263735Y0059897D01*
X0263779Y0059982D01*
X0263826Y0060066D01*
X0263877Y0060148D01*
X0263931Y0060228D01*
X0263988Y0060305D01*
X0264048Y0060380D01*
X0264112Y0060452D01*
X0264178Y0060522D01*
X0264247Y0060589D01*
X0264319Y0060653D01*
X0264393Y0060714D01*
X0264470Y0060772D01*
X0264549Y0060827D01*
X0264630Y0060879D01*
X0264713Y0060927D01*
X0264799Y0060971D01*
X0264886Y0061012D01*
X0264974Y0061050D01*
X0265064Y0061084D01*
X0265156Y0061114D01*
X0265248Y0061140D01*
X0265342Y0061163D01*
X0265436Y0061181D01*
X0265531Y0061196D01*
X0265627Y0061207D01*
X0265723Y0061214D01*
X0265819Y0061217D01*
X0265915Y0061216D01*
X0266011Y0061211D01*
X0266107Y0061202D01*
X0266202Y0061189D01*
X0266297Y0061173D01*
X0266391Y0061152D01*
X0266484Y0061128D01*
X0266576Y0061099D01*
X0266667Y0061067D01*
X0266756Y0061032D01*
X0266844Y0060992D01*
X0266930Y0060949D01*
X0267014Y0060903D01*
X0267097Y0060853D01*
X0267177Y0060800D01*
X0267255Y0060744D01*
X0267331Y0060684D01*
X0267404Y0060622D01*
X0267474Y0060556D01*
X0267542Y0060488D01*
X0267607Y0060417D01*
X0267668Y0060343D01*
X0267727Y0060267D01*
X0267783Y0060188D01*
X0267835Y0060107D01*
X0267884Y0060025D01*
X0267930Y0059940D01*
X0267972Y0059853D01*
X0268010Y0059765D01*
X0268045Y0059675D01*
X0268076Y0059584D01*
X0268103Y0059492D01*
X0268126Y0059399D01*
X0268146Y0059305D01*
X0268162Y0059210D01*
X0268174Y0059114D01*
X0268182Y0059018D01*
X0268186Y0058922D01*
X0268186Y0058826D01*
X0268182Y0058730D01*
X0268174Y0058634D01*
X0268162Y0058538D01*
X0268146Y0058443D01*
X0268126Y0058349D01*
X0268103Y0058256D01*
X0268076Y0058164D01*
X0268045Y0058073D01*
X0268010Y0057983D01*
X0267972Y0057895D01*
X0267930Y0057808D01*
X0267884Y0057723D01*
X0267835Y0057641D01*
X0267783Y0057560D01*
X0267727Y0057481D01*
X0267668Y0057405D01*
X0267607Y0057331D01*
X0267542Y0057260D01*
X0267474Y0057192D01*
X0267404Y0057126D01*
X0267331Y0057064D01*
X0267255Y0057004D01*
X0267177Y0056948D01*
X0267097Y0056895D01*
X0267015Y0056845D01*
X0266930Y0056799D01*
X0266844Y0056756D01*
X0266756Y0056716D01*
X0266667Y0056681D01*
X0266576Y0056649D01*
X0266484Y0056620D01*
X0266391Y0056596D01*
X0266297Y0056575D01*
X0266202Y0056559D01*
X0266107Y0056546D01*
X0266011Y0056537D01*
X0265915Y0056532D01*
X0265819Y0056531D01*
X0265723Y0056534D01*
X0265627Y0056541D01*
X0265531Y0056552D01*
X0265436Y0056567D01*
X0265342Y0056585D01*
X0265248Y0056608D01*
X0265156Y0056634D01*
X0265064Y0056664D01*
X0264974Y0056698D01*
X0264886Y0056736D01*
X0264799Y0056777D01*
X0264713Y0056821D01*
X0264630Y0056869D01*
X0264549Y0056921D01*
X0264470Y0056976D01*
X0264393Y0057034D01*
X0264319Y0057095D01*
X0264247Y0057159D01*
X0264178Y0057226D01*
X0264112Y0057296D01*
X0264048Y0057368D01*
X0263988Y0057443D01*
X0263931Y0057520D01*
X0263877Y0057600D01*
X0263826Y0057682D01*
X0263779Y0057766D01*
X0263735Y0057851D01*
X0263695Y0057939D01*
X0263658Y0058028D01*
X0263625Y0058118D01*
X0263596Y0058210D01*
X0263571Y0058303D01*
X0263549Y0058396D01*
X0263532Y0058491D01*
X0263518Y0058586D01*
X0263508Y0058682D01*
X0263502Y0058778D01*
X0263500Y0058874D01*
X0313754Y0073578D02*
X0313756Y0073679D01*
X0313762Y0073781D01*
X0313772Y0073882D01*
X0313786Y0073982D01*
X0313803Y0074082D01*
X0313825Y0074181D01*
X0313850Y0074279D01*
X0313880Y0074377D01*
X0313913Y0074473D01*
X0313949Y0074567D01*
X0313990Y0074660D01*
X0314034Y0074752D01*
X0314081Y0074841D01*
X0314133Y0074929D01*
X0314187Y0075015D01*
X0314245Y0075098D01*
X0314306Y0075179D01*
X0314370Y0075258D01*
X0314437Y0075334D01*
X0314507Y0075407D01*
X0314579Y0075478D01*
X0314655Y0075546D01*
X0314733Y0075611D01*
X0314813Y0075672D01*
X0314896Y0075731D01*
X0314981Y0075786D01*
X0315069Y0075838D01*
X0315158Y0075887D01*
X0315249Y0075931D01*
X0315341Y0075973D01*
X0315436Y0076010D01*
X0315531Y0076044D01*
X0315628Y0076075D01*
X0315726Y0076101D01*
X0315825Y0076124D01*
X0315925Y0076142D01*
X0316025Y0076157D01*
X0316126Y0076168D01*
X0316227Y0076175D01*
X0316329Y0076178D01*
X0316430Y0076177D01*
X0316531Y0076172D01*
X0316633Y0076163D01*
X0316733Y0076150D01*
X0316833Y0076133D01*
X0316933Y0076113D01*
X0317031Y0076088D01*
X0317128Y0076060D01*
X0317225Y0076028D01*
X0317320Y0075992D01*
X0317413Y0075953D01*
X0317505Y0075909D01*
X0317595Y0075863D01*
X0317683Y0075813D01*
X0317769Y0075759D01*
X0317853Y0075702D01*
X0317935Y0075642D01*
X0318014Y0075579D01*
X0318091Y0075512D01*
X0318165Y0075443D01*
X0318237Y0075371D01*
X0318305Y0075296D01*
X0318371Y0075219D01*
X0318433Y0075139D01*
X0318493Y0075057D01*
X0318549Y0074972D01*
X0318601Y0074885D01*
X0318651Y0074797D01*
X0318697Y0074706D01*
X0318739Y0074614D01*
X0318777Y0074520D01*
X0318812Y0074425D01*
X0318843Y0074328D01*
X0318871Y0074230D01*
X0318894Y0074132D01*
X0318914Y0074032D01*
X0318930Y0073932D01*
X0318942Y0073831D01*
X0318950Y0073730D01*
X0318954Y0073629D01*
X0318954Y0073527D01*
X0318950Y0073426D01*
X0318942Y0073325D01*
X0318930Y0073224D01*
X0318914Y0073124D01*
X0318894Y0073024D01*
X0318871Y0072926D01*
X0318843Y0072828D01*
X0318812Y0072731D01*
X0318777Y0072636D01*
X0318739Y0072542D01*
X0318697Y0072450D01*
X0318651Y0072359D01*
X0318601Y0072271D01*
X0318549Y0072184D01*
X0318493Y0072099D01*
X0318433Y0072017D01*
X0318371Y0071937D01*
X0318305Y0071860D01*
X0318237Y0071785D01*
X0318165Y0071713D01*
X0318091Y0071644D01*
X0318014Y0071577D01*
X0317935Y0071514D01*
X0317853Y0071454D01*
X0317769Y0071397D01*
X0317683Y0071343D01*
X0317595Y0071293D01*
X0317505Y0071247D01*
X0317413Y0071203D01*
X0317320Y0071164D01*
X0317225Y0071128D01*
X0317128Y0071096D01*
X0317031Y0071068D01*
X0316933Y0071043D01*
X0316833Y0071023D01*
X0316733Y0071006D01*
X0316633Y0070993D01*
X0316531Y0070984D01*
X0316430Y0070979D01*
X0316329Y0070978D01*
X0316227Y0070981D01*
X0316126Y0070988D01*
X0316025Y0070999D01*
X0315925Y0071014D01*
X0315825Y0071032D01*
X0315726Y0071055D01*
X0315628Y0071081D01*
X0315531Y0071112D01*
X0315436Y0071146D01*
X0315341Y0071183D01*
X0315249Y0071225D01*
X0315158Y0071269D01*
X0315069Y0071318D01*
X0314981Y0071370D01*
X0314896Y0071425D01*
X0314813Y0071484D01*
X0314733Y0071545D01*
X0314655Y0071610D01*
X0314579Y0071678D01*
X0314507Y0071749D01*
X0314437Y0071822D01*
X0314370Y0071898D01*
X0314306Y0071977D01*
X0314245Y0072058D01*
X0314187Y0072141D01*
X0314133Y0072227D01*
X0314081Y0072315D01*
X0314034Y0072404D01*
X0313990Y0072496D01*
X0313949Y0072589D01*
X0313913Y0072683D01*
X0313880Y0072779D01*
X0313850Y0072877D01*
X0313825Y0072975D01*
X0313803Y0073074D01*
X0313786Y0073174D01*
X0313772Y0073274D01*
X0313762Y0073375D01*
X0313756Y0073477D01*
X0313754Y0073578D01*
X0301746Y0287578D02*
X0301748Y0287679D01*
X0301754Y0287781D01*
X0301764Y0287882D01*
X0301778Y0287982D01*
X0301795Y0288082D01*
X0301817Y0288181D01*
X0301842Y0288279D01*
X0301872Y0288377D01*
X0301905Y0288473D01*
X0301941Y0288567D01*
X0301982Y0288660D01*
X0302026Y0288752D01*
X0302073Y0288841D01*
X0302125Y0288929D01*
X0302179Y0289015D01*
X0302237Y0289098D01*
X0302298Y0289179D01*
X0302362Y0289258D01*
X0302429Y0289334D01*
X0302499Y0289407D01*
X0302571Y0289478D01*
X0302647Y0289546D01*
X0302725Y0289611D01*
X0302805Y0289672D01*
X0302888Y0289731D01*
X0302973Y0289786D01*
X0303061Y0289838D01*
X0303150Y0289887D01*
X0303241Y0289931D01*
X0303333Y0289973D01*
X0303428Y0290010D01*
X0303523Y0290044D01*
X0303620Y0290075D01*
X0303718Y0290101D01*
X0303817Y0290124D01*
X0303917Y0290142D01*
X0304017Y0290157D01*
X0304118Y0290168D01*
X0304219Y0290175D01*
X0304321Y0290178D01*
X0304422Y0290177D01*
X0304523Y0290172D01*
X0304625Y0290163D01*
X0304725Y0290150D01*
X0304825Y0290133D01*
X0304925Y0290113D01*
X0305023Y0290088D01*
X0305120Y0290060D01*
X0305217Y0290028D01*
X0305312Y0289992D01*
X0305405Y0289953D01*
X0305497Y0289909D01*
X0305587Y0289863D01*
X0305675Y0289813D01*
X0305761Y0289759D01*
X0305845Y0289702D01*
X0305927Y0289642D01*
X0306006Y0289579D01*
X0306083Y0289512D01*
X0306157Y0289443D01*
X0306229Y0289371D01*
X0306297Y0289296D01*
X0306363Y0289219D01*
X0306425Y0289139D01*
X0306485Y0289057D01*
X0306541Y0288972D01*
X0306593Y0288885D01*
X0306643Y0288797D01*
X0306689Y0288706D01*
X0306731Y0288614D01*
X0306769Y0288520D01*
X0306804Y0288425D01*
X0306835Y0288328D01*
X0306863Y0288230D01*
X0306886Y0288132D01*
X0306906Y0288032D01*
X0306922Y0287932D01*
X0306934Y0287831D01*
X0306942Y0287730D01*
X0306946Y0287629D01*
X0306946Y0287527D01*
X0306942Y0287426D01*
X0306934Y0287325D01*
X0306922Y0287224D01*
X0306906Y0287124D01*
X0306886Y0287024D01*
X0306863Y0286926D01*
X0306835Y0286828D01*
X0306804Y0286731D01*
X0306769Y0286636D01*
X0306731Y0286542D01*
X0306689Y0286450D01*
X0306643Y0286359D01*
X0306593Y0286271D01*
X0306541Y0286184D01*
X0306485Y0286099D01*
X0306425Y0286017D01*
X0306363Y0285937D01*
X0306297Y0285860D01*
X0306229Y0285785D01*
X0306157Y0285713D01*
X0306083Y0285644D01*
X0306006Y0285577D01*
X0305927Y0285514D01*
X0305845Y0285454D01*
X0305761Y0285397D01*
X0305675Y0285343D01*
X0305587Y0285293D01*
X0305497Y0285247D01*
X0305405Y0285203D01*
X0305312Y0285164D01*
X0305217Y0285128D01*
X0305120Y0285096D01*
X0305023Y0285068D01*
X0304925Y0285043D01*
X0304825Y0285023D01*
X0304725Y0285006D01*
X0304625Y0284993D01*
X0304523Y0284984D01*
X0304422Y0284979D01*
X0304321Y0284978D01*
X0304219Y0284981D01*
X0304118Y0284988D01*
X0304017Y0284999D01*
X0303917Y0285014D01*
X0303817Y0285032D01*
X0303718Y0285055D01*
X0303620Y0285081D01*
X0303523Y0285112D01*
X0303428Y0285146D01*
X0303333Y0285183D01*
X0303241Y0285225D01*
X0303150Y0285269D01*
X0303061Y0285318D01*
X0302973Y0285370D01*
X0302888Y0285425D01*
X0302805Y0285484D01*
X0302725Y0285545D01*
X0302647Y0285610D01*
X0302571Y0285678D01*
X0302499Y0285749D01*
X0302429Y0285822D01*
X0302362Y0285898D01*
X0302298Y0285977D01*
X0302237Y0286058D01*
X0302179Y0286141D01*
X0302125Y0286227D01*
X0302073Y0286315D01*
X0302026Y0286404D01*
X0301982Y0286496D01*
X0301941Y0286589D01*
X0301905Y0286683D01*
X0301872Y0286779D01*
X0301842Y0286877D01*
X0301817Y0286975D01*
X0301795Y0287074D01*
X0301778Y0287174D01*
X0301764Y0287274D01*
X0301754Y0287375D01*
X0301748Y0287477D01*
X0301746Y0287578D01*
M02*
