G75*
%MOIN*%
%OFA0B0*%
%FSLAX25Y25*%
%IPPOS*%
%LPD*%
%AMOC8*
5,1,8,0,0,1.08239X$1,22.5*
%
%ADD10C,0.00700*%
%ADD11C,0.01000*%
%ADD12C,0.00787*%
%ADD13C,0.00433*%
%ADD14C,0.00500*%
%ADD15C,0.00600*%
%ADD16C,0.02756*%
%ADD17R,0.07000X0.04000*%
%ADD18C,0.03937*%
%ADD19C,0.01969*%
%ADD20C,0.02227*%
D10*
X0588553Y0071035D02*
X0588553Y0072261D01*
X0588961Y0072670D01*
X0589778Y0072670D01*
X0590187Y0072261D01*
X0590187Y0071035D01*
X0590187Y0071852D02*
X0591004Y0072670D01*
X0590596Y0073935D02*
X0591004Y0074344D01*
X0591004Y0075161D01*
X0590596Y0075570D01*
X0589778Y0075570D01*
X0589370Y0075161D01*
X0589370Y0074752D01*
X0589778Y0073935D01*
X0588553Y0073935D01*
X0588553Y0075570D01*
X0588961Y0076835D02*
X0588553Y0077244D01*
X0588553Y0078061D01*
X0588961Y0078470D01*
X0590596Y0076835D01*
X0591004Y0077244D01*
X0591004Y0078061D01*
X0590596Y0078470D01*
X0588961Y0078470D01*
X0588961Y0076835D02*
X0590596Y0076835D01*
X0591004Y0071035D02*
X0588553Y0071035D01*
X0636811Y0068204D02*
X0636811Y0066570D01*
X0637219Y0066161D01*
X0638036Y0066161D01*
X0638445Y0066570D01*
X0639711Y0067387D02*
X0641345Y0067387D01*
X0640937Y0068613D02*
X0639711Y0067387D01*
X0638445Y0068204D02*
X0638036Y0068613D01*
X0637219Y0068613D01*
X0636811Y0068204D01*
X0640937Y0068613D02*
X0640937Y0066161D01*
X0642611Y0066570D02*
X0643019Y0066161D01*
X0643837Y0066161D01*
X0644245Y0066570D01*
X0644245Y0068204D01*
X0643837Y0068613D01*
X0643019Y0068613D01*
X0642611Y0068204D01*
X0642611Y0067795D01*
X0643019Y0067387D01*
X0644245Y0067387D01*
X0661614Y0069719D02*
X0662022Y0069311D01*
X0662840Y0069311D01*
X0663248Y0069719D01*
X0664514Y0070536D02*
X0666148Y0070536D01*
X0665740Y0069311D02*
X0665740Y0071762D01*
X0664514Y0070536D01*
X0663248Y0071354D02*
X0662840Y0071762D01*
X0662022Y0071762D01*
X0661614Y0071354D01*
X0661614Y0069719D01*
X0662007Y0067432D02*
X0663233Y0067432D01*
X0663642Y0067023D01*
X0663642Y0066206D01*
X0663233Y0065797D01*
X0662007Y0065797D01*
X0662007Y0064980D02*
X0662007Y0067432D01*
X0662825Y0065797D02*
X0663642Y0064980D01*
X0664908Y0066206D02*
X0666542Y0066206D01*
X0666133Y0067432D02*
X0664908Y0066206D01*
X0666133Y0064980D02*
X0666133Y0067432D01*
X0667808Y0067023D02*
X0668216Y0067432D01*
X0669034Y0067432D01*
X0669442Y0067023D01*
X0669442Y0066614D01*
X0669034Y0066206D01*
X0668216Y0066206D01*
X0667808Y0066614D01*
X0667808Y0067023D01*
X0668216Y0066206D02*
X0667808Y0065797D01*
X0667808Y0065389D01*
X0668216Y0064980D01*
X0669034Y0064980D01*
X0669442Y0065389D01*
X0669442Y0065797D01*
X0669034Y0066206D01*
X0669048Y0069311D02*
X0667414Y0069311D01*
X0669048Y0070945D01*
X0669048Y0071354D01*
X0668640Y0071762D01*
X0667823Y0071762D01*
X0667414Y0071354D01*
X0683840Y0071092D02*
X0683840Y0070274D01*
X0684249Y0069866D01*
X0685883Y0069866D01*
X0686292Y0070274D01*
X0686292Y0071092D01*
X0685883Y0071500D01*
X0686292Y0072766D02*
X0686292Y0074400D01*
X0686292Y0073583D02*
X0683840Y0073583D01*
X0684657Y0072766D01*
X0684249Y0071500D02*
X0683840Y0071092D01*
X0684249Y0075666D02*
X0684657Y0075666D01*
X0685066Y0076075D01*
X0685066Y0076892D01*
X0685475Y0077300D01*
X0685883Y0077300D01*
X0686292Y0076892D01*
X0686292Y0076075D01*
X0685883Y0075666D01*
X0685475Y0075666D01*
X0685066Y0076075D01*
X0685066Y0076892D02*
X0684657Y0077300D01*
X0684249Y0077300D01*
X0683840Y0076892D01*
X0683840Y0076075D01*
X0684249Y0075666D01*
X0683600Y0080334D02*
X0684009Y0080743D01*
X0684009Y0081151D01*
X0683600Y0081560D01*
X0682375Y0081560D01*
X0682375Y0080743D01*
X0682783Y0080334D01*
X0683600Y0080334D01*
X0682375Y0081560D02*
X0683192Y0082377D01*
X0684009Y0082786D01*
X0681109Y0081560D02*
X0679475Y0081560D01*
X0680700Y0082786D01*
X0680700Y0080334D01*
X0678209Y0080334D02*
X0677392Y0081151D01*
X0677800Y0081151D02*
X0676574Y0081151D01*
X0676574Y0080334D02*
X0676574Y0082786D01*
X0677800Y0082786D01*
X0678209Y0082377D01*
X0678209Y0081560D01*
X0677800Y0081151D01*
X0681616Y0086220D02*
X0681616Y0087446D01*
X0682024Y0087855D01*
X0682841Y0087855D01*
X0683250Y0087446D01*
X0683250Y0086220D01*
X0683250Y0087037D02*
X0684067Y0087855D01*
X0684067Y0086220D02*
X0681616Y0086220D01*
X0682841Y0089120D02*
X0682841Y0090755D01*
X0681616Y0090346D02*
X0682841Y0089120D01*
X0684067Y0090346D02*
X0681616Y0090346D01*
X0681616Y0092020D02*
X0681616Y0093655D01*
X0682024Y0093655D01*
X0683659Y0092020D01*
X0684067Y0092020D01*
X0688596Y0091501D02*
X0688596Y0090684D01*
X0689005Y0090275D01*
X0690639Y0090275D01*
X0691048Y0090684D01*
X0691048Y0091501D01*
X0690639Y0091910D01*
X0691048Y0093175D02*
X0691048Y0094810D01*
X0691048Y0093993D02*
X0688596Y0093993D01*
X0689413Y0093175D01*
X0689005Y0091910D02*
X0688596Y0091501D01*
X0689005Y0096075D02*
X0688596Y0096484D01*
X0688596Y0097301D01*
X0689005Y0097710D01*
X0689413Y0097710D01*
X0691048Y0096075D01*
X0691048Y0097710D01*
X0717519Y0094991D02*
X0717519Y0092539D01*
X0719154Y0092539D01*
X0720419Y0092948D02*
X0720419Y0093356D01*
X0720828Y0093765D01*
X0721645Y0093765D01*
X0722054Y0093356D01*
X0722054Y0092948D01*
X0721645Y0092539D01*
X0720828Y0092539D01*
X0720419Y0092948D01*
X0720828Y0093765D02*
X0720419Y0094173D01*
X0720419Y0094582D01*
X0720828Y0094991D01*
X0721645Y0094991D01*
X0722054Y0094582D01*
X0722054Y0094173D01*
X0721645Y0093765D01*
X0718246Y0085542D02*
X0717429Y0085542D01*
X0717020Y0085133D01*
X0715755Y0085133D02*
X0715346Y0085542D01*
X0714529Y0085542D01*
X0714120Y0085133D01*
X0712855Y0085133D02*
X0712855Y0084316D01*
X0712446Y0083907D01*
X0711220Y0083907D01*
X0711220Y0083090D02*
X0711220Y0085542D01*
X0712446Y0085542D01*
X0712855Y0085133D01*
X0712037Y0083907D02*
X0712855Y0083090D01*
X0714120Y0083090D02*
X0715755Y0084725D01*
X0715755Y0085133D01*
X0715755Y0083090D02*
X0714120Y0083090D01*
X0717020Y0083090D02*
X0718655Y0084725D01*
X0718655Y0085133D01*
X0718246Y0085542D01*
X0718655Y0083090D02*
X0717020Y0083090D01*
X0693877Y0082861D02*
X0693468Y0082452D01*
X0692651Y0082452D01*
X0692242Y0082861D01*
X0692242Y0083678D02*
X0693059Y0084087D01*
X0693468Y0084087D01*
X0693877Y0083678D01*
X0693877Y0082861D01*
X0692242Y0083678D02*
X0692242Y0084904D01*
X0693877Y0084904D01*
X0690977Y0084904D02*
X0690977Y0082861D01*
X0690568Y0082452D01*
X0689751Y0082452D01*
X0689342Y0082861D01*
X0689342Y0084904D01*
X0742322Y0085542D02*
X0742322Y0083090D01*
X0742322Y0083907D02*
X0743548Y0083907D01*
X0743957Y0084316D01*
X0743957Y0085133D01*
X0743548Y0085542D01*
X0742322Y0085542D01*
X0743140Y0083907D02*
X0743957Y0083090D01*
X0745223Y0083090D02*
X0746857Y0084725D01*
X0746857Y0085133D01*
X0746448Y0085542D01*
X0745631Y0085542D01*
X0745223Y0085133D01*
X0745223Y0083090D02*
X0746857Y0083090D01*
X0748123Y0083090D02*
X0749757Y0083090D01*
X0748940Y0083090D02*
X0748940Y0085542D01*
X0748123Y0084725D01*
X0749820Y0092425D02*
X0752272Y0092425D01*
X0752272Y0094060D01*
X0752272Y0095325D02*
X0752272Y0096960D01*
X0752272Y0096143D02*
X0749820Y0096143D01*
X0750638Y0095325D01*
X0750229Y0098225D02*
X0749820Y0098634D01*
X0749820Y0099451D01*
X0750229Y0099860D01*
X0750638Y0099860D01*
X0752272Y0098225D01*
X0752272Y0099860D01*
X0731371Y0102094D02*
X0729737Y0102094D01*
X0730554Y0102094D02*
X0730554Y0104546D01*
X0729737Y0103729D01*
X0728471Y0102094D02*
X0726837Y0102094D01*
X0727654Y0102094D02*
X0727654Y0104546D01*
X0726837Y0103729D01*
X0725571Y0104137D02*
X0725162Y0104546D01*
X0724345Y0104546D01*
X0723937Y0104137D01*
X0723937Y0102503D01*
X0724345Y0102094D01*
X0725162Y0102094D01*
X0725571Y0102503D01*
X0693758Y0103877D02*
X0693349Y0103468D01*
X0692532Y0103468D01*
X0692123Y0103877D01*
X0693758Y0105511D01*
X0693758Y0103877D01*
X0693758Y0105511D02*
X0693349Y0105920D01*
X0692532Y0105920D01*
X0692123Y0105511D01*
X0692123Y0103877D01*
X0690857Y0104694D02*
X0689223Y0104694D01*
X0690449Y0105920D01*
X0690449Y0103468D01*
X0687957Y0103468D02*
X0687140Y0104285D01*
X0687549Y0104285D02*
X0686323Y0104285D01*
X0686323Y0103468D02*
X0686323Y0105920D01*
X0687549Y0105920D01*
X0687957Y0105511D01*
X0687957Y0104694D01*
X0687549Y0104285D01*
X0684808Y0108130D02*
X0685217Y0108538D01*
X0685217Y0109355D01*
X0684808Y0109764D01*
X0685217Y0111030D02*
X0683582Y0112664D01*
X0683174Y0112664D01*
X0682765Y0112255D01*
X0682765Y0111438D01*
X0683174Y0111030D01*
X0683174Y0109764D02*
X0682765Y0109355D01*
X0682765Y0108538D01*
X0683174Y0108130D01*
X0684808Y0108130D01*
X0685217Y0111030D02*
X0685217Y0112664D01*
X0683991Y0113930D02*
X0683991Y0115564D01*
X0682765Y0115156D02*
X0683991Y0113930D01*
X0685217Y0115156D02*
X0682765Y0115156D01*
X0718230Y0114218D02*
X0718230Y0113400D01*
X0718638Y0112992D01*
X0720273Y0112992D01*
X0720681Y0113400D01*
X0720681Y0114218D01*
X0720273Y0114626D01*
X0720681Y0115892D02*
X0719047Y0117526D01*
X0718638Y0117526D01*
X0718230Y0117118D01*
X0718230Y0116300D01*
X0718638Y0115892D01*
X0718638Y0114626D02*
X0718230Y0114218D01*
X0720681Y0115892D02*
X0720681Y0117526D01*
X0720273Y0118792D02*
X0720681Y0119201D01*
X0720681Y0120018D01*
X0720273Y0120426D01*
X0719864Y0120426D01*
X0719456Y0120018D01*
X0719456Y0119609D01*
X0719456Y0120018D02*
X0719047Y0120426D01*
X0718638Y0120426D01*
X0718230Y0120018D01*
X0718230Y0119201D01*
X0718638Y0118792D01*
X0722893Y0123294D02*
X0723302Y0122885D01*
X0724119Y0122885D01*
X0724528Y0123294D01*
X0725793Y0122885D02*
X0727428Y0124520D01*
X0727428Y0124929D01*
X0727019Y0125337D01*
X0726202Y0125337D01*
X0725793Y0124929D01*
X0724528Y0124929D02*
X0724119Y0125337D01*
X0723302Y0125337D01*
X0722893Y0124929D01*
X0722893Y0123294D01*
X0725793Y0122885D02*
X0727428Y0122885D01*
X0728694Y0122885D02*
X0730328Y0124520D01*
X0730328Y0124929D01*
X0729919Y0125337D01*
X0729102Y0125337D01*
X0728694Y0124929D01*
X0728694Y0122885D02*
X0730328Y0122885D01*
X0710967Y0123281D02*
X0709741Y0123281D01*
X0709333Y0123689D01*
X0709333Y0124098D01*
X0709741Y0124506D01*
X0710559Y0124506D01*
X0710967Y0124098D01*
X0710967Y0122463D01*
X0710559Y0122055D01*
X0709741Y0122055D01*
X0709333Y0122463D01*
X0708067Y0122463D02*
X0708067Y0124506D01*
X0706433Y0124506D02*
X0706433Y0122463D01*
X0706841Y0122055D01*
X0707659Y0122055D01*
X0708067Y0122463D01*
X0702513Y0124473D02*
X0700879Y0124473D01*
X0702104Y0125699D01*
X0702104Y0123248D01*
X0699613Y0123656D02*
X0699204Y0123248D01*
X0698387Y0123248D01*
X0697978Y0123656D01*
X0698796Y0124473D02*
X0699204Y0124473D01*
X0699613Y0124065D01*
X0699613Y0123656D01*
X0699204Y0124473D02*
X0699613Y0124882D01*
X0699613Y0125291D01*
X0699204Y0125699D01*
X0698387Y0125699D01*
X0697978Y0125291D01*
X0696713Y0125291D02*
X0696713Y0124473D01*
X0696304Y0124065D01*
X0695078Y0124065D01*
X0695078Y0123248D02*
X0695078Y0125699D01*
X0696304Y0125699D01*
X0696713Y0125291D01*
X0695896Y0124065D02*
X0696713Y0123248D01*
X0732086Y0110739D02*
X0732086Y0108287D01*
X0733721Y0108287D01*
X0734986Y0108287D02*
X0736621Y0108287D01*
X0735804Y0108287D02*
X0735804Y0110739D01*
X0734986Y0109921D01*
X0737886Y0109921D02*
X0738704Y0110739D01*
X0738704Y0108287D01*
X0739521Y0108287D02*
X0737886Y0108287D01*
X0823368Y0109164D02*
X0826670Y0109164D01*
X0826670Y0111366D01*
X0826670Y0112848D02*
X0823368Y0112848D01*
X0823368Y0114499D01*
X0823918Y0115049D01*
X0825019Y0115049D01*
X0825570Y0114499D01*
X0825570Y0112848D01*
X0826120Y0116531D02*
X0826670Y0117081D01*
X0826670Y0118182D01*
X0826120Y0118733D01*
X0823918Y0118733D02*
X0823368Y0118182D01*
X0823368Y0117081D01*
X0823918Y0116531D01*
X0826120Y0116531D01*
X0826670Y0123897D02*
X0823368Y0123897D01*
X0824469Y0124998D01*
X0823368Y0126099D01*
X0826670Y0126099D01*
X0826670Y0127580D02*
X0824469Y0127580D01*
X0823368Y0128681D01*
X0824469Y0129782D01*
X0826670Y0129782D01*
X0826670Y0131263D02*
X0826670Y0133465D01*
X0826670Y0134946D02*
X0826670Y0137148D01*
X0825019Y0136047D02*
X0825019Y0134946D01*
X0823368Y0134946D02*
X0826670Y0134946D01*
X0823368Y0134946D02*
X0823368Y0137148D01*
X0824469Y0142313D02*
X0823368Y0143414D01*
X0826670Y0143414D01*
X0826670Y0142313D02*
X0826670Y0144515D01*
X0826120Y0145996D02*
X0823918Y0148198D01*
X0826120Y0148198D01*
X0826670Y0147647D01*
X0826670Y0146546D01*
X0826120Y0145996D01*
X0823918Y0145996D01*
X0823368Y0146546D01*
X0823368Y0147647D01*
X0823918Y0148198D01*
X0823368Y0149679D02*
X0824469Y0150780D01*
X0823368Y0151881D01*
X0826670Y0151881D01*
X0826670Y0153362D02*
X0823368Y0153362D01*
X0824469Y0154463D01*
X0823368Y0155564D01*
X0826670Y0155564D01*
X0826670Y0149679D02*
X0823368Y0149679D01*
X0823368Y0131263D02*
X0826670Y0131263D01*
X0825019Y0129782D02*
X0825019Y0127580D01*
X0823918Y0104000D02*
X0823368Y0103449D01*
X0823368Y0102349D01*
X0823918Y0101798D01*
X0826120Y0101798D01*
X0826670Y0102349D01*
X0826670Y0103449D01*
X0826120Y0104000D01*
X0826670Y0100317D02*
X0823368Y0100317D01*
X0824469Y0099216D01*
X0823368Y0098115D01*
X0826670Y0098115D01*
X0825019Y0095533D02*
X0825019Y0094432D01*
X0823368Y0094432D02*
X0823368Y0096634D01*
X0823368Y0094432D02*
X0826670Y0094432D01*
X0815674Y0076488D02*
X0815674Y0074286D01*
X0815674Y0075387D02*
X0812372Y0075387D01*
X0813473Y0074286D01*
X0813473Y0072805D02*
X0812922Y0072805D01*
X0812372Y0072254D01*
X0812372Y0071153D01*
X0812922Y0070603D01*
X0813473Y0072805D02*
X0815674Y0070603D01*
X0815674Y0072805D01*
X0815674Y0069122D02*
X0815674Y0066920D01*
X0815674Y0068021D02*
X0812372Y0068021D01*
X0813473Y0066920D01*
X0807674Y0070629D02*
X0807674Y0071729D01*
X0807124Y0072280D01*
X0807674Y0070629D02*
X0807124Y0070078D01*
X0804922Y0070078D01*
X0804372Y0070629D01*
X0804372Y0071729D01*
X0804922Y0072280D01*
X0802674Y0071729D02*
X0802124Y0072280D01*
X0799922Y0072280D01*
X0799372Y0071729D01*
X0799372Y0070078D01*
X0802674Y0070078D01*
X0802674Y0071729D01*
X0787674Y0071729D02*
X0787124Y0072280D01*
X0786023Y0072280D01*
X0786023Y0071179D01*
X0787124Y0070078D02*
X0787674Y0070629D01*
X0787674Y0071729D01*
X0787124Y0070078D02*
X0784922Y0070078D01*
X0784372Y0070629D01*
X0784372Y0071729D01*
X0784922Y0072280D01*
X0782674Y0072280D02*
X0779372Y0072280D01*
X0781023Y0072280D02*
X0781023Y0070078D01*
X0782674Y0070078D02*
X0779372Y0070078D01*
X0775674Y0071920D02*
X0775674Y0074122D01*
X0775674Y0073021D02*
X0772372Y0073021D01*
X0773473Y0071920D01*
X0759914Y0064249D02*
X0759505Y0064249D01*
X0757871Y0065883D01*
X0757462Y0065883D01*
X0757462Y0064249D01*
X0757462Y0062166D02*
X0759914Y0062166D01*
X0759914Y0061349D02*
X0759914Y0062983D01*
X0758279Y0061349D02*
X0757462Y0062166D01*
X0757871Y0060083D02*
X0757462Y0059674D01*
X0757462Y0058857D01*
X0757871Y0058448D01*
X0759505Y0058448D01*
X0759914Y0058857D01*
X0759914Y0059674D01*
X0759505Y0060083D01*
X0678403Y0057086D02*
X0677995Y0057495D01*
X0677177Y0057495D01*
X0676769Y0057086D01*
X0676769Y0056677D01*
X0677177Y0056269D01*
X0678403Y0056269D01*
X0678403Y0055452D02*
X0678403Y0057086D01*
X0678403Y0055452D02*
X0677995Y0055043D01*
X0677177Y0055043D01*
X0676769Y0055452D01*
X0675503Y0056269D02*
X0673869Y0056269D01*
X0675095Y0057495D01*
X0675095Y0055043D01*
X0672603Y0055043D02*
X0671786Y0055860D01*
X0672194Y0055860D02*
X0670969Y0055860D01*
X0670969Y0055043D02*
X0670969Y0057495D01*
X0672194Y0057495D01*
X0672603Y0057086D01*
X0672603Y0056269D01*
X0672194Y0055860D01*
X0665505Y0052077D02*
X0664688Y0051669D01*
X0663871Y0050851D01*
X0665097Y0050851D01*
X0665505Y0050443D01*
X0665505Y0050034D01*
X0665097Y0049626D01*
X0664279Y0049626D01*
X0663871Y0050034D01*
X0663871Y0050851D01*
X0662605Y0050443D02*
X0662605Y0050034D01*
X0662196Y0049626D01*
X0661379Y0049626D01*
X0660971Y0050034D01*
X0660971Y0050443D01*
X0661379Y0050851D01*
X0662196Y0050851D01*
X0662605Y0050443D01*
X0662196Y0050851D02*
X0662605Y0051260D01*
X0662605Y0051669D01*
X0662196Y0052077D01*
X0661379Y0052077D01*
X0660971Y0051669D01*
X0660971Y0051260D01*
X0661379Y0050851D01*
X0659705Y0050034D02*
X0659296Y0049626D01*
X0658479Y0049626D01*
X0658070Y0050034D01*
X0658070Y0051669D01*
X0658479Y0052077D01*
X0659296Y0052077D01*
X0659705Y0051669D01*
X0643059Y0054326D02*
X0643059Y0055143D01*
X0642651Y0055551D01*
X0640608Y0055551D01*
X0641425Y0056817D02*
X0640608Y0057634D01*
X0643059Y0057634D01*
X0643059Y0056817D02*
X0643059Y0058452D01*
X0642651Y0059717D02*
X0641016Y0061352D01*
X0642651Y0061352D01*
X0643059Y0060943D01*
X0643059Y0060126D01*
X0642651Y0059717D01*
X0641016Y0059717D01*
X0640608Y0060126D01*
X0640608Y0060943D01*
X0641016Y0061352D01*
X0643059Y0054326D02*
X0642651Y0053917D01*
X0640608Y0053917D01*
X0591004Y0090326D02*
X0588553Y0090326D01*
X0588553Y0091552D01*
X0588961Y0091961D01*
X0589778Y0091961D01*
X0590187Y0091552D01*
X0590187Y0090326D01*
X0590187Y0091144D02*
X0591004Y0091961D01*
X0590596Y0093226D02*
X0591004Y0093635D01*
X0591004Y0094452D01*
X0590596Y0094861D01*
X0589778Y0094861D01*
X0589370Y0094452D01*
X0589370Y0094044D01*
X0589778Y0093226D01*
X0588553Y0093226D01*
X0588553Y0094861D01*
X0589370Y0096127D02*
X0588553Y0096944D01*
X0591004Y0096944D01*
X0591004Y0096127D02*
X0591004Y0097761D01*
X0591004Y0114736D02*
X0588553Y0114736D01*
X0588553Y0115962D01*
X0588961Y0116370D01*
X0589778Y0116370D01*
X0590187Y0115962D01*
X0590187Y0114736D01*
X0590187Y0115553D02*
X0591004Y0116370D01*
X0590596Y0117636D02*
X0591004Y0118045D01*
X0591004Y0118862D01*
X0590596Y0119270D01*
X0589778Y0119270D01*
X0589370Y0118862D01*
X0589370Y0118453D01*
X0589778Y0117636D01*
X0588553Y0117636D01*
X0588553Y0119270D01*
X0588961Y0120536D02*
X0588553Y0120945D01*
X0588553Y0121762D01*
X0588961Y0122171D01*
X0589370Y0122171D01*
X0589778Y0121762D01*
X0590187Y0122171D01*
X0590596Y0122171D01*
X0591004Y0121762D01*
X0591004Y0120945D01*
X0590596Y0120536D01*
X0589778Y0121353D02*
X0589778Y0121762D01*
X0589793Y0135996D02*
X0589793Y0137222D01*
X0589385Y0137630D01*
X0588568Y0137630D01*
X0588159Y0137222D01*
X0588159Y0135996D01*
X0590611Y0135996D01*
X0589793Y0136813D02*
X0590611Y0137630D01*
X0590202Y0138896D02*
X0590611Y0139304D01*
X0590611Y0140122D01*
X0590202Y0140530D01*
X0589385Y0140530D01*
X0588976Y0140122D01*
X0588976Y0139713D01*
X0589385Y0138896D01*
X0588159Y0138896D01*
X0588159Y0140530D01*
X0588568Y0141796D02*
X0588159Y0142205D01*
X0588159Y0143022D01*
X0588568Y0143430D01*
X0588976Y0143430D01*
X0590611Y0141796D01*
X0590611Y0143430D01*
X0614933Y0142703D02*
X0614933Y0144747D01*
X0616567Y0144747D02*
X0616567Y0142703D01*
X0616159Y0142295D01*
X0615341Y0142295D01*
X0614933Y0142703D01*
X0617833Y0142295D02*
X0619467Y0142295D01*
X0618650Y0142295D02*
X0618650Y0144747D01*
X0617833Y0143929D01*
X0620733Y0143929D02*
X0621550Y0144747D01*
X0621550Y0142295D01*
X0620733Y0142295D02*
X0622367Y0142295D01*
X0632334Y0145466D02*
X0632912Y0144888D01*
X0633490Y0144888D01*
X0634934Y0146333D01*
X0635540Y0145149D02*
X0635251Y0144860D01*
X0635251Y0144282D01*
X0635829Y0143704D01*
X0635829Y0143126D01*
X0635540Y0142837D01*
X0634963Y0142837D01*
X0634385Y0143415D01*
X0634385Y0143993D01*
X0634674Y0144282D01*
X0635251Y0144282D01*
X0635829Y0143704D02*
X0636407Y0143704D01*
X0636696Y0143993D01*
X0636696Y0144571D01*
X0636118Y0145149D01*
X0635540Y0145149D01*
X0633779Y0147488D02*
X0632334Y0146044D01*
X0632334Y0145466D01*
X0665836Y0151845D02*
X0665836Y0152662D01*
X0666245Y0153071D01*
X0665836Y0151845D02*
X0666245Y0151437D01*
X0667879Y0151437D01*
X0668288Y0151845D01*
X0668288Y0152662D01*
X0667879Y0153071D01*
X0667879Y0154337D02*
X0668288Y0154337D01*
X0667879Y0154337D02*
X0666245Y0155971D01*
X0665836Y0155971D01*
X0665836Y0154337D01*
X0665836Y0157237D02*
X0667062Y0157237D01*
X0666653Y0158054D01*
X0666653Y0158463D01*
X0667062Y0158871D01*
X0667879Y0158871D01*
X0668288Y0158463D01*
X0668288Y0157645D01*
X0667879Y0157237D01*
X0665836Y0157237D02*
X0665836Y0158871D01*
X0664465Y0164098D02*
X0663647Y0164098D01*
X0663239Y0164507D01*
X0663239Y0165324D02*
X0664056Y0165732D01*
X0664465Y0165732D01*
X0664873Y0165324D01*
X0664873Y0164507D01*
X0664465Y0164098D01*
X0663239Y0165324D02*
X0663239Y0166550D01*
X0664873Y0166550D01*
X0666139Y0165324D02*
X0667365Y0166550D01*
X0667365Y0164098D01*
X0667773Y0165324D02*
X0666139Y0165324D01*
X0669394Y0167641D02*
X0669394Y0170093D01*
X0670620Y0170093D01*
X0671028Y0169684D01*
X0671028Y0168867D01*
X0670620Y0168459D01*
X0669394Y0168459D01*
X0670211Y0168459D02*
X0671028Y0167641D01*
X0672294Y0168867D02*
X0673928Y0168867D01*
X0675194Y0168867D02*
X0676011Y0169276D01*
X0676420Y0169276D01*
X0676828Y0168867D01*
X0676828Y0168050D01*
X0676420Y0167641D01*
X0675603Y0167641D01*
X0675194Y0168050D01*
X0675194Y0168867D02*
X0675194Y0170093D01*
X0676828Y0170093D01*
X0673520Y0170093D02*
X0672294Y0168867D01*
X0673520Y0167641D02*
X0673520Y0170093D01*
X0668288Y0172318D02*
X0668288Y0173135D01*
X0667879Y0173544D01*
X0667879Y0174809D02*
X0668288Y0175218D01*
X0668288Y0176035D01*
X0667879Y0176444D01*
X0667471Y0176444D01*
X0667062Y0176035D01*
X0667062Y0175626D01*
X0667062Y0176035D02*
X0666653Y0176444D01*
X0666245Y0176444D01*
X0665836Y0176035D01*
X0665836Y0175218D01*
X0666245Y0174809D01*
X0666245Y0173544D02*
X0665836Y0173135D01*
X0665836Y0172318D01*
X0666245Y0171909D01*
X0667879Y0171909D01*
X0668288Y0172318D01*
X0667879Y0177709D02*
X0668288Y0178118D01*
X0668288Y0178935D01*
X0667879Y0179344D01*
X0667471Y0179344D01*
X0667062Y0178935D01*
X0667062Y0178527D01*
X0667062Y0178935D02*
X0666653Y0179344D01*
X0666245Y0179344D01*
X0665836Y0178935D01*
X0665836Y0178118D01*
X0666245Y0177709D01*
X0655192Y0177240D02*
X0655192Y0176662D01*
X0654615Y0176084D01*
X0654037Y0176084D01*
X0654037Y0178396D01*
X0655192Y0177240D01*
X0654037Y0176084D02*
X0652881Y0177240D01*
X0652881Y0177818D01*
X0653459Y0178396D01*
X0654037Y0178396D01*
X0653431Y0174901D02*
X0652275Y0173745D01*
X0652853Y0174323D02*
X0651119Y0176056D01*
X0651119Y0174901D01*
X0651380Y0172850D02*
X0650224Y0171694D01*
X0648491Y0173428D01*
X0643138Y0178781D02*
X0644293Y0179936D01*
X0644899Y0181120D02*
X0645477Y0181120D01*
X0646055Y0181698D01*
X0646055Y0182276D01*
X0644899Y0183432D01*
X0644322Y0183432D01*
X0643744Y0182854D01*
X0643744Y0182276D01*
X0644033Y0181987D01*
X0644610Y0181987D01*
X0645477Y0182854D01*
X0645543Y0186783D02*
X0645543Y0189235D01*
X0646769Y0189235D01*
X0647177Y0188826D01*
X0647177Y0188009D01*
X0646769Y0187600D01*
X0645543Y0187600D01*
X0646360Y0187600D02*
X0647177Y0186783D01*
X0648443Y0186783D02*
X0650077Y0188418D01*
X0650077Y0188826D01*
X0649669Y0189235D01*
X0648852Y0189235D01*
X0648443Y0188826D01*
X0648443Y0186783D02*
X0650077Y0186783D01*
X0651343Y0186783D02*
X0651343Y0187192D01*
X0652978Y0188826D01*
X0652978Y0189235D01*
X0651343Y0189235D01*
X0638263Y0184327D02*
X0638263Y0183749D01*
X0637685Y0183171D01*
X0637108Y0183171D01*
X0637108Y0184327D02*
X0637396Y0184616D01*
X0637974Y0184616D01*
X0638263Y0184327D01*
X0637396Y0184616D02*
X0637396Y0185194D01*
X0637108Y0185483D01*
X0636530Y0185483D01*
X0635952Y0184905D01*
X0635952Y0184327D01*
X0635057Y0183432D02*
X0635346Y0183143D01*
X0635346Y0182565D01*
X0634768Y0181987D01*
X0634190Y0181987D01*
X0633901Y0182276D01*
X0633901Y0182854D01*
X0634479Y0183432D01*
X0635057Y0183432D01*
X0635346Y0182565D02*
X0635924Y0182565D01*
X0636213Y0182276D01*
X0636213Y0181698D01*
X0635635Y0181120D01*
X0635057Y0181120D01*
X0634768Y0181409D01*
X0634768Y0181987D01*
X0634162Y0180225D02*
X0634162Y0179648D01*
X0633584Y0179070D01*
X0633006Y0179070D01*
X0631850Y0180225D01*
X0631850Y0180803D01*
X0632428Y0181381D01*
X0633006Y0181381D01*
X0632212Y0185614D02*
X0630577Y0185614D01*
X0632212Y0187249D01*
X0632212Y0187657D01*
X0631803Y0188066D01*
X0630986Y0188066D01*
X0630577Y0187657D01*
X0628494Y0188066D02*
X0628494Y0185614D01*
X0627677Y0185614D02*
X0629312Y0185614D01*
X0627677Y0187249D02*
X0628494Y0188066D01*
X0626412Y0187657D02*
X0626412Y0186840D01*
X0626003Y0186431D01*
X0624777Y0186431D01*
X0624777Y0185614D02*
X0624777Y0188066D01*
X0626003Y0188066D01*
X0626412Y0187657D01*
X0625594Y0186431D02*
X0626412Y0185614D01*
X0620255Y0187123D02*
X0618620Y0187123D01*
X0619846Y0188349D01*
X0619846Y0185897D01*
X0617355Y0186306D02*
X0616946Y0185897D01*
X0616129Y0185897D01*
X0615720Y0186306D01*
X0615720Y0187940D01*
X0616129Y0188349D01*
X0616946Y0188349D01*
X0617355Y0187940D01*
X0612430Y0186778D02*
X0611613Y0186369D01*
X0610796Y0185552D01*
X0612022Y0185552D01*
X0612430Y0185144D01*
X0612430Y0184735D01*
X0612022Y0184326D01*
X0611205Y0184326D01*
X0610796Y0184735D01*
X0610796Y0185552D01*
X0609530Y0184326D02*
X0607896Y0184326D01*
X0608713Y0184326D02*
X0608713Y0186778D01*
X0607896Y0185961D01*
X0606630Y0186369D02*
X0606630Y0185552D01*
X0606222Y0185144D01*
X0604996Y0185144D01*
X0605813Y0185144D02*
X0606630Y0184326D01*
X0604996Y0184326D02*
X0604996Y0186778D01*
X0606222Y0186778D01*
X0606630Y0186369D01*
X0597524Y0188154D02*
X0595889Y0188154D01*
X0597524Y0189788D01*
X0597524Y0190197D01*
X0597115Y0190606D01*
X0596298Y0190606D01*
X0595889Y0190197D01*
X0594623Y0190197D02*
X0594623Y0188563D01*
X0594215Y0188154D01*
X0593398Y0188154D01*
X0592989Y0188563D01*
X0592989Y0190197D01*
X0593398Y0190606D01*
X0594215Y0190606D01*
X0594623Y0190197D01*
X0593806Y0188971D02*
X0594623Y0188154D01*
X0576953Y0187760D02*
X0575318Y0187760D01*
X0576953Y0189395D01*
X0576953Y0189803D01*
X0576544Y0190212D01*
X0575727Y0190212D01*
X0575318Y0189803D01*
X0574053Y0189803D02*
X0573644Y0190212D01*
X0572418Y0190212D01*
X0572418Y0187760D01*
X0573644Y0187760D01*
X0574053Y0188169D01*
X0574053Y0189803D01*
X0561870Y0197269D02*
X0559419Y0197269D01*
X0559419Y0198903D01*
X0559827Y0200169D02*
X0559419Y0200578D01*
X0559419Y0201395D01*
X0559827Y0201803D01*
X0560236Y0201803D01*
X0560645Y0201395D01*
X0561053Y0201803D01*
X0561462Y0201803D01*
X0561870Y0201395D01*
X0561870Y0200578D01*
X0561462Y0200169D01*
X0560645Y0200986D02*
X0560645Y0201395D01*
X0560645Y0198086D02*
X0560645Y0197269D01*
X0573388Y0198983D02*
X0573388Y0200208D01*
X0573797Y0200617D01*
X0574614Y0200617D01*
X0575023Y0200208D01*
X0575023Y0198983D01*
X0575840Y0198983D02*
X0573388Y0198983D01*
X0575023Y0199800D02*
X0575840Y0200617D01*
X0575840Y0201883D02*
X0575840Y0203517D01*
X0575840Y0202700D02*
X0573388Y0202700D01*
X0574205Y0201883D01*
X0574205Y0204783D02*
X0573388Y0205600D01*
X0575840Y0205600D01*
X0575840Y0204783D02*
X0575840Y0206417D01*
X0578884Y0206869D02*
X0578884Y0209321D01*
X0580110Y0209321D01*
X0580519Y0208912D01*
X0580519Y0208095D01*
X0580110Y0207686D01*
X0578884Y0207686D01*
X0579702Y0207686D02*
X0580519Y0206869D01*
X0581785Y0206869D02*
X0583419Y0206869D01*
X0582602Y0206869D02*
X0582602Y0209321D01*
X0581785Y0208503D01*
X0584685Y0208095D02*
X0586319Y0208095D01*
X0585910Y0209321D02*
X0584685Y0208095D01*
X0585910Y0206869D02*
X0585910Y0209321D01*
X0587546Y0209321D02*
X0588772Y0209321D01*
X0589180Y0208912D01*
X0589180Y0208095D01*
X0588772Y0207686D01*
X0587546Y0207686D01*
X0588363Y0207686D02*
X0589180Y0206869D01*
X0590446Y0206869D02*
X0592080Y0206869D01*
X0591263Y0206869D02*
X0591263Y0209321D01*
X0590446Y0208503D01*
X0593346Y0208095D02*
X0594163Y0208503D01*
X0594572Y0208503D01*
X0594981Y0208095D01*
X0594981Y0207278D01*
X0594572Y0206869D01*
X0593755Y0206869D01*
X0593346Y0207278D01*
X0593346Y0208095D02*
X0593346Y0209321D01*
X0594981Y0209321D01*
X0596207Y0209321D02*
X0597433Y0209321D01*
X0597842Y0208912D01*
X0597842Y0208095D01*
X0597433Y0207686D01*
X0596207Y0207686D01*
X0596207Y0206869D02*
X0596207Y0209321D01*
X0597024Y0207686D02*
X0597842Y0206869D01*
X0599107Y0206869D02*
X0600742Y0206869D01*
X0599925Y0206869D02*
X0599925Y0209321D01*
X0599107Y0208503D01*
X0602007Y0208912D02*
X0602416Y0209321D01*
X0603233Y0209321D01*
X0603642Y0208912D01*
X0603642Y0208503D01*
X0603233Y0208095D01*
X0603642Y0207686D01*
X0603642Y0207277D01*
X0603233Y0206869D01*
X0602416Y0206869D01*
X0602007Y0207277D01*
X0602825Y0208095D02*
X0603233Y0208095D01*
X0614213Y0202999D02*
X0615439Y0202999D01*
X0615848Y0202591D01*
X0615848Y0201773D01*
X0615439Y0201365D01*
X0614213Y0201365D01*
X0614213Y0200548D02*
X0614213Y0202999D01*
X0615031Y0201365D02*
X0615848Y0200548D01*
X0617114Y0200548D02*
X0618748Y0200548D01*
X0617931Y0200548D02*
X0617931Y0202999D01*
X0617114Y0202182D01*
X0620014Y0202182D02*
X0620014Y0202591D01*
X0620422Y0202999D01*
X0621240Y0202999D01*
X0621648Y0202591D01*
X0621648Y0202182D01*
X0621240Y0201773D01*
X0620422Y0201773D01*
X0620014Y0202182D01*
X0620422Y0201773D02*
X0620014Y0201365D01*
X0620014Y0200956D01*
X0620422Y0200548D01*
X0621240Y0200548D01*
X0621648Y0200956D01*
X0621648Y0201365D01*
X0621240Y0201773D01*
X0619730Y0205878D02*
X0620138Y0206286D01*
X0620138Y0207103D01*
X0619730Y0207512D01*
X0617686Y0207512D01*
X0618095Y0208778D02*
X0617686Y0209186D01*
X0617686Y0210004D01*
X0618095Y0210412D01*
X0618504Y0210412D01*
X0620138Y0208778D01*
X0620138Y0210412D01*
X0619730Y0205878D02*
X0617686Y0205878D01*
X0612404Y0200632D02*
X0610769Y0198998D01*
X0611178Y0198589D01*
X0611995Y0198589D01*
X0612404Y0198998D01*
X0612404Y0200632D01*
X0611995Y0201041D01*
X0611178Y0201041D01*
X0610769Y0200632D01*
X0610769Y0198998D01*
X0609503Y0198589D02*
X0607869Y0198589D01*
X0608686Y0198589D02*
X0608686Y0201041D01*
X0607869Y0200223D01*
X0606603Y0199815D02*
X0606195Y0199406D01*
X0604969Y0199406D01*
X0604969Y0198589D02*
X0604969Y0201041D01*
X0606195Y0201041D01*
X0606603Y0200632D01*
X0606603Y0199815D01*
X0605786Y0199406D02*
X0606603Y0198589D01*
X0587546Y0206869D02*
X0587546Y0209321D01*
X0629505Y0215132D02*
X0629913Y0214724D01*
X0630730Y0214724D01*
X0631139Y0215132D01*
X0632405Y0215132D02*
X0632813Y0214724D01*
X0633630Y0214724D01*
X0634039Y0215132D01*
X0634039Y0215541D01*
X0633630Y0215949D01*
X0633222Y0215949D01*
X0633630Y0215949D02*
X0634039Y0216358D01*
X0634039Y0216767D01*
X0633630Y0217175D01*
X0632813Y0217175D01*
X0632405Y0216767D01*
X0631139Y0216767D02*
X0630730Y0217175D01*
X0629913Y0217175D01*
X0629505Y0216767D01*
X0629505Y0215132D01*
X0624098Y0216392D02*
X0622463Y0216392D01*
X0624098Y0218027D01*
X0624098Y0218435D01*
X0623689Y0218844D01*
X0622872Y0218844D01*
X0622463Y0218435D01*
X0621198Y0218435D02*
X0620789Y0218844D01*
X0619972Y0218844D01*
X0619563Y0218435D01*
X0619563Y0216801D01*
X0619972Y0216392D01*
X0620789Y0216392D01*
X0621198Y0216801D01*
X0617955Y0217948D02*
X0616321Y0216314D01*
X0616321Y0215905D01*
X0615055Y0215905D02*
X0614238Y0216722D01*
X0614647Y0216722D02*
X0613421Y0216722D01*
X0613421Y0215905D02*
X0613421Y0218357D01*
X0614647Y0218357D01*
X0615055Y0217948D01*
X0615055Y0217131D01*
X0614647Y0216722D01*
X0616321Y0218357D02*
X0617955Y0218357D01*
X0617955Y0217948D01*
X0597327Y0218075D02*
X0595692Y0218075D01*
X0596510Y0218075D02*
X0596510Y0220527D01*
X0595692Y0219710D01*
X0594427Y0220118D02*
X0594427Y0218484D01*
X0594018Y0218075D01*
X0593201Y0218075D01*
X0592792Y0218484D01*
X0592792Y0220118D01*
X0593201Y0220527D01*
X0594018Y0220527D01*
X0594427Y0220118D01*
X0593609Y0218892D02*
X0594427Y0218075D01*
X0577346Y0217288D02*
X0575712Y0217288D01*
X0576529Y0217288D02*
X0576529Y0219739D01*
X0575712Y0218922D01*
X0574446Y0219331D02*
X0574038Y0219739D01*
X0572812Y0219739D01*
X0572812Y0217288D01*
X0574038Y0217288D01*
X0574446Y0217696D01*
X0574446Y0219331D01*
X0561870Y0216764D02*
X0561870Y0215130D01*
X0560236Y0216764D01*
X0559827Y0216764D01*
X0559419Y0216355D01*
X0559419Y0215538D01*
X0559827Y0215130D01*
X0559419Y0213864D02*
X0559419Y0212229D01*
X0561870Y0212229D01*
X0560645Y0212229D02*
X0560645Y0213047D01*
X0560645Y0227190D02*
X0560645Y0228007D01*
X0561870Y0227190D02*
X0559419Y0227190D01*
X0559419Y0228825D01*
X0560236Y0230090D02*
X0559419Y0230907D01*
X0561870Y0230907D01*
X0561870Y0230090D02*
X0561870Y0231725D01*
X0557390Y0231152D02*
X0555756Y0232787D01*
X0555347Y0232787D01*
X0554938Y0232378D01*
X0554938Y0231561D01*
X0555347Y0231152D01*
X0555347Y0229886D02*
X0556164Y0229886D01*
X0556573Y0229478D01*
X0556573Y0228252D01*
X0557390Y0228252D02*
X0554938Y0228252D01*
X0554938Y0229478D01*
X0555347Y0229886D01*
X0556573Y0229069D02*
X0557390Y0229886D01*
X0557390Y0231152D02*
X0557390Y0232787D01*
X0556982Y0234052D02*
X0557390Y0234461D01*
X0557390Y0235278D01*
X0556982Y0235687D01*
X0555347Y0235687D01*
X0554938Y0235278D01*
X0554938Y0234461D01*
X0555347Y0234052D01*
X0555756Y0234052D01*
X0556164Y0234461D01*
X0556164Y0235687D01*
X0573486Y0238943D02*
X0573486Y0240169D01*
X0573895Y0240578D01*
X0574712Y0240578D01*
X0575121Y0240169D01*
X0575121Y0238943D01*
X0575938Y0238943D02*
X0573486Y0238943D01*
X0575121Y0239760D02*
X0575938Y0240578D01*
X0575938Y0241843D02*
X0574304Y0243478D01*
X0573895Y0243478D01*
X0573486Y0243069D01*
X0573486Y0242252D01*
X0573895Y0241843D01*
X0575938Y0241843D02*
X0575938Y0243478D01*
X0580630Y0245058D02*
X0580630Y0247510D01*
X0581856Y0247510D01*
X0582264Y0247101D01*
X0582264Y0246284D01*
X0581856Y0245875D01*
X0580630Y0245875D01*
X0581447Y0245875D02*
X0582264Y0245058D01*
X0583530Y0246284D02*
X0585164Y0246284D01*
X0584756Y0247510D02*
X0583530Y0246284D01*
X0584756Y0245058D02*
X0584756Y0247510D01*
X0588996Y0247510D02*
X0588996Y0245058D01*
X0588996Y0245875D02*
X0590222Y0245875D01*
X0590630Y0246284D01*
X0590630Y0247101D01*
X0590222Y0247510D01*
X0588996Y0247510D01*
X0589813Y0245875D02*
X0590630Y0245058D01*
X0591896Y0245467D02*
X0592305Y0245058D01*
X0593122Y0245058D01*
X0593530Y0245467D01*
X0593530Y0246284D01*
X0593122Y0246692D01*
X0592713Y0246692D01*
X0591896Y0246284D01*
X0591896Y0247510D01*
X0593530Y0247510D01*
X0597657Y0247510D02*
X0598883Y0247510D01*
X0599292Y0247101D01*
X0599292Y0246284D01*
X0598883Y0245875D01*
X0597657Y0245875D01*
X0597657Y0245058D02*
X0597657Y0247510D01*
X0598475Y0245875D02*
X0599292Y0245058D01*
X0600557Y0245467D02*
X0600966Y0245058D01*
X0601783Y0245058D01*
X0602192Y0245467D01*
X0602192Y0245875D01*
X0601783Y0246284D01*
X0600557Y0246284D01*
X0600557Y0245467D01*
X0600557Y0246284D02*
X0601375Y0247101D01*
X0602192Y0247510D01*
X0611489Y0246732D02*
X0612715Y0246732D01*
X0613123Y0246323D01*
X0613123Y0245506D01*
X0612715Y0245097D01*
X0611489Y0245097D01*
X0611489Y0244280D02*
X0611489Y0246732D01*
X0612306Y0245097D02*
X0613123Y0244280D01*
X0614389Y0244280D02*
X0616024Y0244280D01*
X0615206Y0244280D02*
X0615206Y0246732D01*
X0614389Y0245914D01*
X0617913Y0248051D02*
X0617913Y0250502D01*
X0619139Y0250502D01*
X0619547Y0250094D01*
X0619547Y0249277D01*
X0619139Y0248868D01*
X0617913Y0248868D01*
X0618730Y0248868D02*
X0619547Y0248051D01*
X0620813Y0249277D02*
X0622448Y0249277D01*
X0622039Y0250502D02*
X0620813Y0249277D01*
X0622039Y0248051D02*
X0622039Y0250502D01*
X0623713Y0250094D02*
X0624122Y0250502D01*
X0624939Y0250502D01*
X0625348Y0250094D01*
X0625348Y0249685D01*
X0623713Y0248051D01*
X0625348Y0248051D01*
X0627894Y0252231D02*
X0628711Y0252231D01*
X0629120Y0252639D01*
X0630385Y0252639D02*
X0630794Y0252231D01*
X0631611Y0252231D01*
X0632020Y0252639D01*
X0632020Y0253457D01*
X0631611Y0253865D01*
X0631202Y0253865D01*
X0630385Y0253457D01*
X0630385Y0254682D01*
X0632020Y0254682D01*
X0633285Y0254274D02*
X0633285Y0253865D01*
X0633694Y0253457D01*
X0634511Y0253457D01*
X0634920Y0253048D01*
X0634920Y0252639D01*
X0634511Y0252231D01*
X0633694Y0252231D01*
X0633285Y0252639D01*
X0633285Y0253048D01*
X0633694Y0253457D01*
X0634511Y0253457D02*
X0634920Y0253865D01*
X0634920Y0254274D01*
X0634511Y0254682D01*
X0633694Y0254682D01*
X0633285Y0254274D01*
X0629120Y0254274D02*
X0628711Y0254682D01*
X0627894Y0254682D01*
X0627485Y0254274D01*
X0627485Y0252639D01*
X0627894Y0252231D01*
X0632261Y0244559D02*
X0634713Y0244559D01*
X0634713Y0243742D02*
X0634713Y0245377D01*
X0633079Y0243742D02*
X0632261Y0244559D01*
X0632670Y0242477D02*
X0632261Y0242068D01*
X0632261Y0241251D01*
X0632670Y0240842D01*
X0634304Y0240842D01*
X0634713Y0241251D01*
X0634713Y0242068D01*
X0634304Y0242477D01*
X0642666Y0242582D02*
X0642666Y0240539D01*
X0643075Y0240130D01*
X0643892Y0240130D01*
X0644301Y0240539D01*
X0644301Y0242582D01*
X0645566Y0241765D02*
X0646384Y0242582D01*
X0646384Y0240130D01*
X0647201Y0240130D02*
X0645566Y0240130D01*
X0648466Y0240130D02*
X0650101Y0241765D01*
X0650101Y0242173D01*
X0649692Y0242582D01*
X0648875Y0242582D01*
X0648466Y0242173D01*
X0648466Y0240130D02*
X0650101Y0240130D01*
X0655315Y0240069D02*
X0656540Y0240069D01*
X0656949Y0239661D01*
X0656949Y0238844D01*
X0656540Y0238435D01*
X0655315Y0238435D01*
X0656132Y0238435D02*
X0656949Y0237618D01*
X0658215Y0238026D02*
X0658623Y0237618D01*
X0659441Y0237618D01*
X0659849Y0238026D01*
X0659849Y0238435D01*
X0659441Y0238844D01*
X0658215Y0238844D01*
X0658215Y0238026D01*
X0658215Y0238844D02*
X0659032Y0239661D01*
X0659849Y0240069D01*
X0661115Y0239661D02*
X0661523Y0240069D01*
X0662341Y0240069D01*
X0662749Y0239661D01*
X0662749Y0239252D01*
X0661115Y0237618D01*
X0662749Y0237618D01*
X0665164Y0239673D02*
X0666031Y0240540D01*
X0666609Y0240540D01*
X0667187Y0239962D01*
X0667187Y0239384D01*
X0666320Y0238518D01*
X0666898Y0239096D02*
X0668053Y0239096D01*
X0668700Y0238888D02*
X0669926Y0238888D01*
X0670335Y0238480D01*
X0670335Y0237662D01*
X0669926Y0237254D01*
X0668700Y0237254D01*
X0668700Y0236437D02*
X0668700Y0238888D01*
X0668659Y0240279D02*
X0669237Y0240279D01*
X0669815Y0240857D01*
X0669815Y0241435D01*
X0669526Y0241724D01*
X0668948Y0241724D01*
X0668081Y0240857D01*
X0668659Y0240279D01*
X0668081Y0240857D02*
X0668081Y0242013D01*
X0668370Y0242880D01*
X0669554Y0243486D02*
X0669554Y0244064D01*
X0670132Y0244642D01*
X0670710Y0244642D01*
X0670999Y0244353D01*
X0670999Y0243775D01*
X0671577Y0243775D01*
X0671866Y0243486D01*
X0671866Y0242908D01*
X0671288Y0242330D01*
X0670710Y0242330D01*
X0670710Y0243486D02*
X0670999Y0243775D01*
X0673235Y0238888D02*
X0672418Y0238480D01*
X0671601Y0237662D01*
X0672826Y0237662D01*
X0673235Y0237254D01*
X0673235Y0236845D01*
X0672826Y0236437D01*
X0672009Y0236437D01*
X0671601Y0236845D01*
X0671601Y0237662D01*
X0670335Y0236437D02*
X0669518Y0237254D01*
X0666898Y0237940D02*
X0665164Y0239673D01*
X0674501Y0238888D02*
X0674501Y0237662D01*
X0675318Y0238071D01*
X0675726Y0238071D01*
X0676135Y0237662D01*
X0676135Y0236845D01*
X0675726Y0236437D01*
X0674909Y0236437D01*
X0674501Y0236845D01*
X0674501Y0238888D02*
X0676135Y0238888D01*
X0685797Y0238757D02*
X0685797Y0237532D01*
X0688248Y0237532D01*
X0687431Y0237532D02*
X0687431Y0238757D01*
X0687023Y0239166D01*
X0686205Y0239166D01*
X0685797Y0238757D01*
X0687431Y0238349D02*
X0688248Y0239166D01*
X0688248Y0240432D02*
X0686614Y0242066D01*
X0686205Y0242066D01*
X0685797Y0241658D01*
X0685797Y0240840D01*
X0686205Y0240432D01*
X0688248Y0240432D02*
X0688248Y0242066D01*
X0687840Y0243332D02*
X0688248Y0243740D01*
X0688248Y0244558D01*
X0687840Y0244966D01*
X0687431Y0244966D01*
X0687023Y0244558D01*
X0687023Y0244149D01*
X0687023Y0244558D02*
X0686614Y0244966D01*
X0686205Y0244966D01*
X0685797Y0244558D01*
X0685797Y0243740D01*
X0686205Y0243332D01*
X0685797Y0247374D02*
X0685797Y0248600D01*
X0686205Y0249009D01*
X0687023Y0249009D01*
X0687431Y0248600D01*
X0687431Y0247374D01*
X0687431Y0248191D02*
X0688248Y0249009D01*
X0688248Y0250274D02*
X0688248Y0251909D01*
X0688248Y0251091D02*
X0685797Y0251091D01*
X0686614Y0250274D01*
X0686614Y0253174D02*
X0687023Y0253583D01*
X0687023Y0254809D01*
X0687840Y0254809D02*
X0686205Y0254809D01*
X0685797Y0254400D01*
X0685797Y0253583D01*
X0686205Y0253174D01*
X0686614Y0253174D01*
X0687840Y0253174D02*
X0688248Y0253583D01*
X0688248Y0254400D01*
X0687840Y0254809D01*
X0688248Y0260117D02*
X0685797Y0260117D01*
X0685797Y0261343D01*
X0686205Y0261751D01*
X0687023Y0261751D01*
X0687431Y0261343D01*
X0687431Y0260117D01*
X0687431Y0260934D02*
X0688248Y0261751D01*
X0687840Y0263017D02*
X0687431Y0263017D01*
X0687023Y0263425D01*
X0687023Y0264243D01*
X0687431Y0264651D01*
X0687840Y0264651D01*
X0688248Y0264243D01*
X0688248Y0263425D01*
X0687840Y0263017D01*
X0687023Y0263425D02*
X0686614Y0263017D01*
X0686205Y0263017D01*
X0685797Y0263425D01*
X0685797Y0264243D01*
X0686205Y0264651D01*
X0686614Y0264651D01*
X0687023Y0264243D01*
X0687431Y0267453D02*
X0687431Y0268679D01*
X0687023Y0269087D01*
X0686205Y0269087D01*
X0685797Y0268679D01*
X0685797Y0267453D01*
X0688248Y0267453D01*
X0687431Y0268270D02*
X0688248Y0269087D01*
X0688248Y0270353D02*
X0688248Y0271987D01*
X0688248Y0271170D02*
X0685797Y0271170D01*
X0686614Y0270353D01*
X0685797Y0273253D02*
X0685797Y0274887D01*
X0686205Y0274887D01*
X0687840Y0273253D01*
X0688248Y0273253D01*
X0680628Y0276443D02*
X0678994Y0276443D01*
X0679811Y0276443D02*
X0679811Y0278895D01*
X0678994Y0278078D01*
X0677728Y0278895D02*
X0676911Y0278486D01*
X0676093Y0277669D01*
X0677319Y0277669D01*
X0677728Y0277260D01*
X0677728Y0276852D01*
X0677319Y0276443D01*
X0676502Y0276443D01*
X0676093Y0276852D01*
X0676093Y0277669D01*
X0674828Y0276852D02*
X0674419Y0276443D01*
X0673602Y0276443D01*
X0673193Y0276852D01*
X0673193Y0278486D01*
X0673602Y0278895D01*
X0674419Y0278895D01*
X0674828Y0278486D01*
X0667353Y0279015D02*
X0667353Y0279424D01*
X0666944Y0279833D01*
X0665718Y0279833D01*
X0665718Y0279015D01*
X0666127Y0278607D01*
X0666944Y0278607D01*
X0667353Y0279015D01*
X0666536Y0280650D02*
X0665718Y0279833D01*
X0666536Y0280650D02*
X0667353Y0281058D01*
X0664453Y0281058D02*
X0662818Y0281058D01*
X0662818Y0279833D01*
X0663635Y0280241D01*
X0664044Y0280241D01*
X0664453Y0279833D01*
X0664453Y0279015D01*
X0664044Y0278607D01*
X0663227Y0278607D01*
X0662818Y0279015D01*
X0661553Y0278607D02*
X0660735Y0279424D01*
X0661144Y0279424D02*
X0659918Y0279424D01*
X0659918Y0278607D02*
X0659918Y0281058D01*
X0661144Y0281058D01*
X0661553Y0280650D01*
X0661553Y0279833D01*
X0661144Y0279424D01*
X0658485Y0280967D02*
X0658077Y0280559D01*
X0658485Y0280967D02*
X0658485Y0281785D01*
X0658077Y0282193D01*
X0657668Y0282193D01*
X0657260Y0281785D01*
X0657260Y0281376D01*
X0657260Y0281785D02*
X0656851Y0282193D01*
X0656442Y0282193D01*
X0656034Y0281785D01*
X0656034Y0280967D01*
X0656442Y0280559D01*
X0656442Y0279293D02*
X0658077Y0277659D01*
X0658485Y0277659D01*
X0658485Y0276393D02*
X0657668Y0275576D01*
X0657668Y0275985D02*
X0657668Y0274759D01*
X0658485Y0274759D02*
X0656034Y0274759D01*
X0656034Y0275985D01*
X0656442Y0276393D01*
X0657260Y0276393D01*
X0657668Y0275985D01*
X0656034Y0277659D02*
X0656034Y0279293D01*
X0656442Y0279293D01*
X0652463Y0279434D02*
X0650829Y0277800D01*
X0652463Y0277800D01*
X0652463Y0279434D02*
X0652463Y0279843D01*
X0652054Y0280251D01*
X0651237Y0280251D01*
X0650829Y0279843D01*
X0649563Y0279843D02*
X0647929Y0278208D01*
X0647929Y0277800D01*
X0646663Y0277800D02*
X0645846Y0278617D01*
X0646254Y0278617D02*
X0645028Y0278617D01*
X0645028Y0277800D02*
X0645028Y0280251D01*
X0646254Y0280251D01*
X0646663Y0279843D01*
X0646663Y0279025D01*
X0646254Y0278617D01*
X0647929Y0280251D02*
X0649563Y0280251D01*
X0649563Y0279843D01*
X0639407Y0278052D02*
X0638998Y0278052D01*
X0637364Y0279687D01*
X0636955Y0279687D01*
X0636955Y0278052D01*
X0637364Y0276787D02*
X0638181Y0276787D01*
X0638589Y0276378D01*
X0638589Y0275152D01*
X0638589Y0275970D02*
X0639407Y0276787D01*
X0639407Y0275152D02*
X0636955Y0275152D01*
X0636955Y0276378D01*
X0637364Y0276787D01*
X0638181Y0280953D02*
X0638181Y0282587D01*
X0639407Y0282178D02*
X0636955Y0282178D01*
X0638181Y0280953D01*
X0621007Y0277087D02*
X0620598Y0277087D01*
X0618964Y0278721D01*
X0618555Y0278721D01*
X0618555Y0277087D01*
X0618555Y0275821D02*
X0618964Y0275821D01*
X0620598Y0274187D01*
X0621007Y0274187D01*
X0620598Y0272921D02*
X0621007Y0272513D01*
X0621007Y0271695D01*
X0620598Y0271287D01*
X0618964Y0271287D01*
X0618555Y0271695D01*
X0618555Y0272513D01*
X0618964Y0272921D01*
X0618555Y0274187D02*
X0618555Y0275821D01*
X0612264Y0277205D02*
X0612264Y0278022D01*
X0611856Y0278431D01*
X0611447Y0278431D01*
X0611038Y0278022D01*
X0611038Y0276796D01*
X0611856Y0276796D01*
X0612264Y0277205D01*
X0611038Y0276796D02*
X0610221Y0277614D01*
X0609812Y0278431D01*
X0609812Y0275531D02*
X0610221Y0275531D01*
X0611856Y0273896D01*
X0612264Y0273896D01*
X0611856Y0272631D02*
X0612264Y0272222D01*
X0612264Y0271405D01*
X0611856Y0270996D01*
X0610221Y0270996D01*
X0609812Y0271405D01*
X0609812Y0272222D01*
X0610221Y0272631D01*
X0609812Y0273896D02*
X0609812Y0275531D01*
X0626948Y0268654D02*
X0626948Y0267020D01*
X0627356Y0266611D01*
X0628174Y0266611D01*
X0628582Y0267020D01*
X0629848Y0267020D02*
X0630256Y0266611D01*
X0631074Y0266611D01*
X0631482Y0267020D01*
X0631482Y0267837D01*
X0631074Y0268246D01*
X0630665Y0268246D01*
X0629848Y0267837D01*
X0629848Y0269063D01*
X0631482Y0269063D01*
X0632748Y0269063D02*
X0634382Y0269063D01*
X0634382Y0268654D01*
X0632748Y0267020D01*
X0632748Y0266611D01*
X0628582Y0268654D02*
X0628174Y0269063D01*
X0627356Y0269063D01*
X0626948Y0268654D01*
X0579587Y0268771D02*
X0579587Y0270406D01*
X0579178Y0271671D02*
X0579587Y0272080D01*
X0579587Y0272897D01*
X0579178Y0273306D01*
X0578770Y0273306D01*
X0578361Y0272897D01*
X0578361Y0271671D01*
X0579178Y0271671D01*
X0578361Y0271671D02*
X0577544Y0272489D01*
X0577135Y0273306D01*
X0577135Y0268771D02*
X0579587Y0268771D01*
X0569242Y0272020D02*
X0568833Y0271612D01*
X0568016Y0271612D01*
X0567607Y0272020D01*
X0569242Y0273655D01*
X0569242Y0272020D01*
X0567607Y0272020D02*
X0567607Y0273655D01*
X0568016Y0274064D01*
X0568833Y0274064D01*
X0569242Y0273655D01*
X0566342Y0273655D02*
X0564707Y0272020D01*
X0564707Y0271612D01*
X0563442Y0271612D02*
X0562624Y0272429D01*
X0563033Y0272429D02*
X0561807Y0272429D01*
X0561807Y0271612D02*
X0561807Y0274064D01*
X0563033Y0274064D01*
X0563442Y0273655D01*
X0563442Y0272838D01*
X0563033Y0272429D01*
X0564707Y0274064D02*
X0566342Y0274064D01*
X0566342Y0273655D01*
X0543141Y0274229D02*
X0542732Y0273820D01*
X0541915Y0273820D01*
X0541507Y0274229D01*
X0541507Y0275046D02*
X0542324Y0275454D01*
X0542732Y0275454D01*
X0543141Y0275046D01*
X0543141Y0274229D01*
X0541507Y0275046D02*
X0541507Y0276272D01*
X0543141Y0276272D01*
X0540241Y0273820D02*
X0538606Y0273820D01*
X0538606Y0276272D01*
X0577947Y0290238D02*
X0577947Y0291464D01*
X0578355Y0291872D01*
X0579173Y0291872D01*
X0579581Y0291464D01*
X0579581Y0290238D01*
X0579581Y0291055D02*
X0580398Y0291872D01*
X0580398Y0293138D02*
X0579990Y0293138D01*
X0578355Y0294772D01*
X0577947Y0294772D01*
X0577947Y0293138D01*
X0577947Y0290238D02*
X0580398Y0290238D01*
X0580398Y0296038D02*
X0580398Y0297673D01*
X0580398Y0296855D02*
X0577947Y0296855D01*
X0578764Y0296038D01*
X0579601Y0299165D02*
X0580418Y0299165D01*
X0580827Y0299574D01*
X0582093Y0299574D02*
X0582093Y0299165D01*
X0582093Y0299574D02*
X0583727Y0301208D01*
X0583727Y0301617D01*
X0582093Y0301617D01*
X0580827Y0301208D02*
X0580418Y0301617D01*
X0579601Y0301617D01*
X0579193Y0301208D01*
X0579193Y0299574D01*
X0579601Y0299165D01*
X0584993Y0299574D02*
X0584993Y0299982D01*
X0585401Y0300391D01*
X0586219Y0300391D01*
X0586627Y0299982D01*
X0586627Y0299574D01*
X0586219Y0299165D01*
X0585401Y0299165D01*
X0584993Y0299574D01*
X0585401Y0300391D02*
X0584993Y0300799D01*
X0584993Y0301208D01*
X0585401Y0301617D01*
X0586219Y0301617D01*
X0586627Y0301208D01*
X0586627Y0300799D01*
X0586219Y0300391D01*
X0617780Y0300536D02*
X0617780Y0302988D01*
X0617780Y0300536D02*
X0619415Y0300536D01*
X0620680Y0301762D02*
X0622315Y0301762D01*
X0621906Y0302988D02*
X0620680Y0301762D01*
X0621906Y0300536D02*
X0621906Y0302988D01*
X0627512Y0302384D02*
X0627512Y0300750D01*
X0627921Y0300341D01*
X0628738Y0300341D01*
X0629147Y0300750D01*
X0630412Y0300750D02*
X0630412Y0300341D01*
X0630412Y0300750D02*
X0632047Y0302384D01*
X0632047Y0302793D01*
X0630412Y0302793D01*
X0629147Y0302384D02*
X0628738Y0302793D01*
X0627921Y0302793D01*
X0627512Y0302384D01*
X0633312Y0302384D02*
X0633312Y0301975D01*
X0633721Y0301567D01*
X0634947Y0301567D01*
X0634947Y0302384D02*
X0634538Y0302793D01*
X0633721Y0302793D01*
X0633312Y0302384D01*
X0633312Y0300750D02*
X0633721Y0300341D01*
X0634538Y0300341D01*
X0634947Y0300750D01*
X0634947Y0302384D01*
X0641219Y0301701D02*
X0641627Y0302109D01*
X0642445Y0302109D01*
X0642853Y0301701D01*
X0642853Y0300475D01*
X0642853Y0301292D02*
X0643670Y0302109D01*
X0643670Y0303375D02*
X0643262Y0303375D01*
X0641627Y0305009D01*
X0641219Y0305009D01*
X0641219Y0303375D01*
X0641219Y0301701D02*
X0641219Y0300475D01*
X0643670Y0300475D01*
X0646538Y0300475D02*
X0646538Y0301701D01*
X0646946Y0302109D01*
X0647763Y0302109D01*
X0648172Y0301701D01*
X0648172Y0300475D01*
X0648172Y0301292D02*
X0648989Y0302109D01*
X0648989Y0303375D02*
X0648581Y0303375D01*
X0646946Y0305009D01*
X0646538Y0305009D01*
X0646538Y0303375D01*
X0646538Y0306275D02*
X0647763Y0306275D01*
X0647355Y0307092D01*
X0647355Y0307501D01*
X0647763Y0307909D01*
X0648581Y0307909D01*
X0648989Y0307501D01*
X0648989Y0306684D01*
X0648581Y0306275D01*
X0646538Y0306275D02*
X0646538Y0307909D01*
X0643670Y0306275D02*
X0643262Y0306275D01*
X0641627Y0307909D01*
X0641219Y0307909D01*
X0641219Y0306275D01*
X0651963Y0305009D02*
X0652371Y0305009D01*
X0654006Y0303375D01*
X0654415Y0303375D01*
X0654415Y0302109D02*
X0653597Y0301292D01*
X0653597Y0301701D02*
X0653597Y0300475D01*
X0654415Y0300475D02*
X0651963Y0300475D01*
X0651963Y0301701D01*
X0652371Y0302109D01*
X0653189Y0302109D01*
X0653597Y0301701D01*
X0651963Y0303375D02*
X0651963Y0305009D01*
X0653189Y0306275D02*
X0653189Y0307501D01*
X0653597Y0307909D01*
X0654006Y0307909D01*
X0654415Y0307501D01*
X0654415Y0306684D01*
X0654006Y0306275D01*
X0653189Y0306275D01*
X0652371Y0307092D01*
X0651963Y0307909D01*
X0661401Y0304031D02*
X0661810Y0304439D01*
X0662627Y0304439D01*
X0663036Y0304031D01*
X0663036Y0302396D01*
X0662627Y0301988D01*
X0661810Y0301988D01*
X0661401Y0302396D01*
X0661401Y0304031D01*
X0662218Y0302805D02*
X0663036Y0301988D01*
X0664301Y0302396D02*
X0664710Y0301988D01*
X0665527Y0301988D01*
X0665936Y0302396D01*
X0665936Y0303214D01*
X0665527Y0303622D01*
X0665119Y0303622D01*
X0664301Y0303214D01*
X0664301Y0304439D01*
X0665936Y0304439D01*
X0682267Y0298672D02*
X0683493Y0298672D01*
X0683902Y0298263D01*
X0683902Y0297446D01*
X0683493Y0297037D01*
X0682267Y0297037D01*
X0682267Y0296220D02*
X0682267Y0298672D01*
X0683085Y0297037D02*
X0683902Y0296220D01*
X0685167Y0296629D02*
X0685576Y0296220D01*
X0686393Y0296220D01*
X0686802Y0296629D01*
X0686802Y0297037D01*
X0686393Y0297446D01*
X0685167Y0297446D01*
X0685167Y0296629D01*
X0685167Y0297446D02*
X0685985Y0298263D01*
X0686802Y0298672D01*
X0688068Y0298672D02*
X0689702Y0298672D01*
X0689702Y0298263D01*
X0688068Y0296629D01*
X0688068Y0296220D01*
X0689282Y0292778D02*
X0688056Y0291552D01*
X0689690Y0291552D01*
X0689282Y0290326D02*
X0689282Y0292778D01*
X0686790Y0292778D02*
X0685973Y0292369D01*
X0685156Y0291552D01*
X0686381Y0291552D01*
X0686790Y0291144D01*
X0686790Y0290735D01*
X0686381Y0290326D01*
X0685564Y0290326D01*
X0685156Y0290735D01*
X0685156Y0291552D01*
X0683890Y0291552D02*
X0683481Y0291144D01*
X0682256Y0291144D01*
X0683073Y0291144D02*
X0683890Y0290326D01*
X0683890Y0291552D02*
X0683890Y0292369D01*
X0683481Y0292778D01*
X0682256Y0292778D01*
X0682256Y0290326D01*
X0706763Y0296641D02*
X0707172Y0296232D01*
X0707989Y0296232D01*
X0708398Y0296641D01*
X0709663Y0296232D02*
X0711298Y0296232D01*
X0710481Y0296232D02*
X0710481Y0298684D01*
X0709663Y0297866D01*
X0708398Y0298275D02*
X0707989Y0298684D01*
X0707172Y0298684D01*
X0706763Y0298275D01*
X0706763Y0296641D01*
X0712564Y0296641D02*
X0712972Y0296232D01*
X0713789Y0296232D01*
X0714198Y0296641D01*
X0714198Y0298275D01*
X0713789Y0298684D01*
X0712972Y0298684D01*
X0712564Y0298275D01*
X0712564Y0297866D01*
X0712972Y0297458D01*
X0714198Y0297458D01*
X0726951Y0293117D02*
X0730254Y0293117D01*
X0730254Y0292016D02*
X0730254Y0294218D01*
X0730241Y0297086D02*
X0730241Y0298312D01*
X0729832Y0298720D01*
X0729015Y0298720D01*
X0728607Y0298312D01*
X0728607Y0297086D01*
X0731058Y0297086D01*
X0730241Y0297903D02*
X0731058Y0298720D01*
X0730650Y0299986D02*
X0731058Y0300395D01*
X0731058Y0301212D01*
X0730650Y0301620D01*
X0730241Y0301620D01*
X0729832Y0301212D01*
X0729832Y0300803D01*
X0729832Y0301212D02*
X0729424Y0301620D01*
X0729015Y0301620D01*
X0728607Y0301212D01*
X0728607Y0300395D01*
X0729015Y0299986D01*
X0728607Y0302886D02*
X0728607Y0304521D01*
X0729015Y0304521D01*
X0730650Y0302886D01*
X0731058Y0302886D01*
X0738558Y0304409D02*
X0738966Y0304000D01*
X0740601Y0304000D01*
X0741009Y0304409D01*
X0741009Y0305226D01*
X0740601Y0305635D01*
X0741009Y0306900D02*
X0739375Y0308535D01*
X0738966Y0308535D01*
X0738558Y0308126D01*
X0738558Y0307309D01*
X0738966Y0306900D01*
X0738966Y0305635D02*
X0738558Y0305226D01*
X0738558Y0304409D01*
X0741009Y0306900D02*
X0741009Y0308535D01*
X0740601Y0309801D02*
X0741009Y0310209D01*
X0741009Y0311026D01*
X0740601Y0311435D01*
X0738966Y0311435D01*
X0738558Y0311026D01*
X0738558Y0310209D01*
X0738966Y0309801D01*
X0739375Y0309801D01*
X0739784Y0310209D01*
X0739784Y0311435D01*
X0743971Y0311026D02*
X0743971Y0310209D01*
X0744380Y0309801D01*
X0744788Y0309801D01*
X0745197Y0310209D01*
X0745197Y0311435D01*
X0744380Y0311435D02*
X0743971Y0311026D01*
X0744380Y0311435D02*
X0746014Y0311435D01*
X0746423Y0311026D01*
X0746423Y0310209D01*
X0746014Y0309801D01*
X0746014Y0308535D02*
X0746423Y0308126D01*
X0746423Y0307309D01*
X0746014Y0306900D01*
X0745197Y0307718D02*
X0745197Y0308126D01*
X0745606Y0308535D01*
X0746014Y0308535D01*
X0745197Y0308126D02*
X0744788Y0308535D01*
X0744380Y0308535D01*
X0743971Y0308126D01*
X0743971Y0307309D01*
X0744380Y0306900D01*
X0744380Y0305635D02*
X0745197Y0305635D01*
X0745606Y0305226D01*
X0745606Y0304000D01*
X0746423Y0304000D02*
X0743971Y0304000D01*
X0743971Y0305226D01*
X0744380Y0305635D01*
X0745606Y0304818D02*
X0746423Y0305635D01*
X0754109Y0304235D02*
X0754518Y0304644D01*
X0754926Y0304644D01*
X0755335Y0304235D01*
X0755335Y0303418D01*
X0754926Y0303009D01*
X0754518Y0303009D01*
X0754109Y0303418D01*
X0754109Y0304235D01*
X0755335Y0304235D02*
X0755743Y0304644D01*
X0756152Y0304644D01*
X0756561Y0304235D01*
X0756561Y0303418D01*
X0756152Y0303009D01*
X0755743Y0303009D01*
X0755335Y0303418D01*
X0755743Y0301744D02*
X0756152Y0301744D01*
X0756561Y0301335D01*
X0756561Y0300518D01*
X0756152Y0300109D01*
X0755335Y0300926D02*
X0755335Y0301335D01*
X0755743Y0301744D01*
X0755335Y0301335D02*
X0754926Y0301744D01*
X0754518Y0301744D01*
X0754109Y0301335D01*
X0754109Y0300518D01*
X0754518Y0300109D01*
X0754518Y0298843D02*
X0755335Y0298843D01*
X0755743Y0298435D01*
X0755743Y0297209D01*
X0755743Y0298026D02*
X0756561Y0298843D01*
X0756561Y0297209D02*
X0754109Y0297209D01*
X0754109Y0298435D01*
X0754518Y0298843D01*
X0749703Y0294218D02*
X0748602Y0294218D01*
X0748052Y0293668D01*
X0748052Y0293117D01*
X0748602Y0292016D01*
X0746951Y0292016D01*
X0746951Y0294218D01*
X0749703Y0294218D02*
X0750254Y0293668D01*
X0750254Y0292567D01*
X0749703Y0292016D01*
X0728052Y0292016D02*
X0726951Y0293117D01*
X0724055Y0289319D02*
X0725155Y0288218D01*
X0725155Y0286016D01*
X0725155Y0287668D02*
X0722954Y0287668D01*
X0722954Y0288218D02*
X0724055Y0289319D01*
X0722954Y0288218D02*
X0722954Y0286016D01*
X0714289Y0277207D02*
X0712655Y0275572D01*
X0713064Y0275164D01*
X0713881Y0275164D01*
X0714289Y0275572D01*
X0714289Y0277207D01*
X0713881Y0277615D01*
X0713064Y0277615D01*
X0712655Y0277207D01*
X0712655Y0275572D01*
X0711389Y0275164D02*
X0709755Y0275164D01*
X0711389Y0276798D01*
X0711389Y0277207D01*
X0710981Y0277615D01*
X0710163Y0277615D01*
X0709755Y0277207D01*
X0708489Y0277207D02*
X0708081Y0277615D01*
X0707263Y0277615D01*
X0706855Y0277207D01*
X0706855Y0275572D01*
X0707263Y0275164D01*
X0708081Y0275164D01*
X0708489Y0275572D01*
X0722954Y0269319D02*
X0722954Y0266016D01*
X0725155Y0266016D01*
X0724055Y0267668D02*
X0722954Y0267668D01*
X0722954Y0269319D02*
X0725155Y0269319D01*
X0737084Y0264216D02*
X0737084Y0262173D01*
X0737492Y0261764D01*
X0738309Y0261764D01*
X0738718Y0262173D01*
X0738718Y0264216D01*
X0739984Y0264216D02*
X0741618Y0264216D01*
X0741618Y0263807D01*
X0739984Y0262173D01*
X0739984Y0261764D01*
X0757152Y0261608D02*
X0757561Y0261200D01*
X0758378Y0261200D01*
X0758786Y0261608D01*
X0760052Y0261608D02*
X0760461Y0261200D01*
X0761278Y0261200D01*
X0761686Y0261608D01*
X0761686Y0262017D01*
X0761278Y0262425D01*
X0760869Y0262425D01*
X0761278Y0262425D02*
X0761686Y0262834D01*
X0761686Y0263243D01*
X0761278Y0263651D01*
X0760461Y0263651D01*
X0760052Y0263243D01*
X0758786Y0263243D02*
X0758378Y0263651D01*
X0757561Y0263651D01*
X0757152Y0263243D01*
X0757152Y0261608D01*
X0759627Y0257352D02*
X0759219Y0256943D01*
X0759219Y0255309D01*
X0759627Y0254900D01*
X0760445Y0254900D01*
X0760853Y0255309D01*
X0762119Y0255309D02*
X0762528Y0254900D01*
X0763345Y0254900D01*
X0763753Y0255309D01*
X0763753Y0255718D01*
X0763345Y0256126D01*
X0762936Y0256126D01*
X0763345Y0256126D02*
X0763753Y0256535D01*
X0763753Y0256943D01*
X0763345Y0257352D01*
X0762528Y0257352D01*
X0762119Y0256943D01*
X0760853Y0256943D02*
X0760445Y0257352D01*
X0759627Y0257352D01*
X0763361Y0261200D02*
X0762952Y0261608D01*
X0764587Y0263243D01*
X0764587Y0261608D01*
X0764178Y0261200D01*
X0763361Y0261200D01*
X0762952Y0261608D02*
X0762952Y0263243D01*
X0763361Y0263651D01*
X0764178Y0263651D01*
X0764587Y0263243D01*
X0765836Y0257352D02*
X0765836Y0254900D01*
X0765019Y0254900D02*
X0766654Y0254900D01*
X0765019Y0256535D02*
X0765836Y0257352D01*
X0826670Y0242686D02*
X0826670Y0240484D01*
X0826670Y0241585D02*
X0823368Y0241585D01*
X0824469Y0240484D01*
X0823918Y0239003D02*
X0826120Y0236801D01*
X0826670Y0237351D01*
X0826670Y0238452D01*
X0826120Y0239003D01*
X0823918Y0239003D01*
X0823368Y0238452D01*
X0823368Y0237351D01*
X0823918Y0236801D01*
X0826120Y0236801D01*
X0825019Y0235320D02*
X0825019Y0233118D01*
X0825019Y0231636D02*
X0825019Y0229435D01*
X0823368Y0231086D01*
X0826670Y0231086D01*
X0826120Y0227953D02*
X0826670Y0227403D01*
X0826670Y0226302D01*
X0826120Y0225751D01*
X0823918Y0227953D01*
X0826120Y0227953D01*
X0826120Y0225751D02*
X0823918Y0225751D01*
X0823368Y0226302D01*
X0823368Y0227403D01*
X0823918Y0227953D01*
X0823368Y0224270D02*
X0823918Y0223169D01*
X0825019Y0222068D01*
X0825019Y0223720D01*
X0825570Y0224270D01*
X0826120Y0224270D01*
X0826670Y0223720D01*
X0826670Y0222619D01*
X0826120Y0222068D01*
X0825019Y0222068D01*
X0825019Y0220587D02*
X0825019Y0218385D01*
X0823368Y0220037D01*
X0826670Y0220037D01*
X0826120Y0216904D02*
X0826670Y0216353D01*
X0826670Y0215252D01*
X0826120Y0214702D01*
X0825019Y0215803D02*
X0825019Y0216353D01*
X0825570Y0216904D01*
X0826120Y0216904D01*
X0825019Y0216353D02*
X0824469Y0216904D01*
X0823918Y0216904D01*
X0823368Y0216353D01*
X0823368Y0215252D01*
X0823918Y0214702D01*
X0823368Y0212120D02*
X0826670Y0212120D01*
X0826670Y0211019D02*
X0826670Y0213221D01*
X0824469Y0211019D02*
X0823368Y0212120D01*
X0825019Y0209538D02*
X0825019Y0207336D01*
X0825019Y0205854D02*
X0825570Y0205304D01*
X0825570Y0203653D01*
X0826670Y0203653D02*
X0823368Y0203653D01*
X0823368Y0205304D01*
X0823918Y0205854D01*
X0825019Y0205854D01*
X0825570Y0202171D02*
X0826120Y0202171D01*
X0826670Y0201621D01*
X0826670Y0200520D01*
X0826120Y0199969D01*
X0825019Y0200520D02*
X0825019Y0201621D01*
X0825570Y0202171D01*
X0823918Y0202171D02*
X0823368Y0201621D01*
X0823368Y0200520D01*
X0823918Y0199969D01*
X0824469Y0199969D01*
X0825019Y0200520D01*
X0825019Y0198488D02*
X0825019Y0196286D01*
X0824469Y0196286D02*
X0823368Y0197387D01*
X0824469Y0198488D01*
X0826670Y0198488D01*
X0826670Y0196286D02*
X0824469Y0196286D01*
X0717658Y0183841D02*
X0717658Y0183024D01*
X0717249Y0182615D01*
X0716841Y0182615D01*
X0716432Y0183024D01*
X0716432Y0183841D01*
X0716841Y0184250D01*
X0717249Y0184250D01*
X0717658Y0183841D01*
X0716432Y0183841D02*
X0716023Y0184250D01*
X0715615Y0184250D01*
X0715206Y0183841D01*
X0715206Y0183024D01*
X0715615Y0182615D01*
X0716023Y0182615D01*
X0716432Y0183024D01*
X0716023Y0181350D02*
X0715615Y0181350D01*
X0715206Y0180941D01*
X0715206Y0180124D01*
X0715615Y0179715D01*
X0715615Y0178449D02*
X0715206Y0178041D01*
X0715206Y0177224D01*
X0715615Y0176815D01*
X0717249Y0176815D01*
X0717658Y0177224D01*
X0717658Y0178041D01*
X0717249Y0178449D01*
X0717658Y0179715D02*
X0716023Y0181350D01*
X0717658Y0181350D02*
X0717658Y0179715D01*
X0703752Y0179686D02*
X0703344Y0179278D01*
X0703752Y0179686D02*
X0703752Y0180504D01*
X0703344Y0180912D01*
X0702935Y0180912D01*
X0702527Y0180504D01*
X0702527Y0180095D01*
X0702527Y0180504D02*
X0702118Y0180912D01*
X0701709Y0180912D01*
X0701301Y0180504D01*
X0701301Y0179686D01*
X0701709Y0179278D01*
X0701709Y0178012D02*
X0701301Y0177603D01*
X0701301Y0176786D01*
X0701709Y0176378D01*
X0703344Y0176378D01*
X0703752Y0176786D01*
X0703752Y0177603D01*
X0703344Y0178012D01*
X0703752Y0182178D02*
X0702118Y0183812D01*
X0701709Y0183812D01*
X0701301Y0183404D01*
X0701301Y0182586D01*
X0701709Y0182178D01*
X0703752Y0182178D02*
X0703752Y0183812D01*
X0696151Y0184668D02*
X0695742Y0184259D01*
X0694925Y0184259D01*
X0694516Y0184668D01*
X0695334Y0185485D02*
X0695742Y0185485D01*
X0696151Y0185077D01*
X0696151Y0184668D01*
X0695742Y0185485D02*
X0696151Y0185894D01*
X0696151Y0186303D01*
X0695742Y0186711D01*
X0694925Y0186711D01*
X0694516Y0186303D01*
X0692433Y0186711D02*
X0692433Y0184259D01*
X0691616Y0184259D02*
X0693251Y0184259D01*
X0691616Y0185894D02*
X0692433Y0186711D01*
X0690351Y0186711D02*
X0690351Y0184668D01*
X0689942Y0184259D01*
X0689125Y0184259D01*
X0688716Y0184668D01*
X0688716Y0186711D01*
X0684309Y0188159D02*
X0682674Y0188159D01*
X0683900Y0189384D01*
X0683900Y0186933D01*
X0681409Y0188159D02*
X0679774Y0188159D01*
X0681000Y0189384D01*
X0681000Y0186933D01*
X0678509Y0186933D02*
X0677691Y0187750D01*
X0678100Y0187750D02*
X0676874Y0187750D01*
X0676874Y0186933D02*
X0676874Y0189384D01*
X0678100Y0189384D01*
X0678509Y0188976D01*
X0678509Y0188159D01*
X0678100Y0187750D01*
X0643138Y0178781D02*
X0641404Y0180514D01*
X0611083Y0179098D02*
X0611083Y0178281D01*
X0610674Y0177872D01*
X0609857Y0178689D02*
X0609857Y0179098D01*
X0610266Y0179507D01*
X0610674Y0179507D01*
X0611083Y0179098D01*
X0609857Y0179098D02*
X0609449Y0179507D01*
X0609040Y0179507D01*
X0608631Y0179098D01*
X0608631Y0178281D01*
X0609040Y0177872D01*
X0608631Y0176607D02*
X0610674Y0176607D01*
X0611083Y0176198D01*
X0611083Y0175381D01*
X0610674Y0174972D01*
X0608631Y0174972D01*
X0577232Y0177536D02*
X0577232Y0178762D01*
X0576823Y0179171D01*
X0575189Y0179171D01*
X0574780Y0178762D01*
X0574780Y0177536D01*
X0577232Y0177536D01*
X0576823Y0180436D02*
X0577232Y0180845D01*
X0577232Y0181662D01*
X0576823Y0182071D01*
X0576415Y0182071D01*
X0576006Y0181662D01*
X0576006Y0181254D01*
X0576006Y0181662D02*
X0575597Y0182071D01*
X0575189Y0182071D01*
X0574780Y0181662D01*
X0574780Y0180845D01*
X0575189Y0180436D01*
X0614205Y0162817D02*
X0614783Y0163394D01*
X0615361Y0163394D01*
X0615649Y0163106D01*
X0615649Y0162528D01*
X0615072Y0161950D01*
X0614494Y0161950D01*
X0614205Y0162239D01*
X0614205Y0162817D01*
X0615072Y0161950D02*
X0615072Y0161372D01*
X0615361Y0161083D01*
X0615938Y0161083D01*
X0616516Y0161661D01*
X0616516Y0162239D01*
X0616227Y0162528D01*
X0615649Y0162528D01*
X0616833Y0163712D02*
X0617122Y0164578D01*
X0617411Y0164867D01*
X0617989Y0164867D01*
X0618567Y0164289D01*
X0618567Y0163712D01*
X0617989Y0163134D01*
X0617411Y0163134D01*
X0616833Y0163712D02*
X0615967Y0164578D01*
X0617122Y0165734D01*
X0613310Y0161344D02*
X0612732Y0161344D01*
X0612154Y0160766D01*
X0612154Y0160188D01*
X0613310Y0159032D01*
X0613888Y0159032D01*
X0614466Y0159610D01*
X0614466Y0160188D01*
X0660339Y0164098D02*
X0660339Y0166550D01*
X0661564Y0166550D01*
X0661973Y0166141D01*
X0661973Y0165324D01*
X0661564Y0164915D01*
X0660339Y0164915D01*
X0661156Y0164915D02*
X0661973Y0164098D01*
X0688716Y0163408D02*
X0689125Y0163000D01*
X0689942Y0163000D01*
X0690351Y0163408D01*
X0690351Y0165451D01*
X0691616Y0164634D02*
X0692433Y0165451D01*
X0692433Y0163000D01*
X0691616Y0163000D02*
X0693251Y0163000D01*
X0694516Y0164225D02*
X0696151Y0164225D01*
X0695742Y0163000D02*
X0695742Y0165451D01*
X0694516Y0164225D01*
X0688716Y0163408D02*
X0688716Y0165451D01*
X0701694Y0162931D02*
X0702920Y0161705D01*
X0702920Y0163340D01*
X0704146Y0162931D02*
X0701694Y0162931D01*
X0701694Y0160440D02*
X0702103Y0160440D01*
X0703737Y0158805D01*
X0704146Y0158805D01*
X0703737Y0157540D02*
X0704146Y0157131D01*
X0704146Y0156314D01*
X0703737Y0155905D01*
X0702103Y0155905D01*
X0701694Y0156314D01*
X0701694Y0157131D01*
X0702103Y0157540D01*
X0701694Y0158805D02*
X0701694Y0160440D01*
X0715206Y0160877D02*
X0715615Y0160877D01*
X0717249Y0159243D01*
X0717658Y0159243D01*
X0717249Y0157977D02*
X0717658Y0157568D01*
X0717658Y0156751D01*
X0717249Y0156343D01*
X0715615Y0156343D01*
X0715206Y0156751D01*
X0715206Y0157568D01*
X0715615Y0157977D01*
X0715206Y0159243D02*
X0715206Y0160877D01*
X0715615Y0162143D02*
X0715206Y0162551D01*
X0715206Y0163369D01*
X0715615Y0163777D01*
X0716023Y0163777D01*
X0716432Y0163369D01*
X0716841Y0163777D01*
X0717249Y0163777D01*
X0717658Y0163369D01*
X0717658Y0162551D01*
X0717249Y0162143D01*
X0716432Y0162960D02*
X0716432Y0163369D01*
X0676828Y0149621D02*
X0675194Y0149621D01*
X0675194Y0148395D01*
X0676011Y0148803D01*
X0676420Y0148803D01*
X0676828Y0148395D01*
X0676828Y0147578D01*
X0676420Y0147169D01*
X0675603Y0147169D01*
X0675194Y0147578D01*
X0673928Y0147578D02*
X0673520Y0147169D01*
X0672702Y0147169D01*
X0672294Y0147578D01*
X0672294Y0148395D02*
X0673111Y0148803D01*
X0673520Y0148803D01*
X0673928Y0148395D01*
X0673928Y0147578D01*
X0672294Y0148395D02*
X0672294Y0149621D01*
X0673928Y0149621D01*
X0671028Y0149212D02*
X0671028Y0148395D01*
X0670620Y0147986D01*
X0669394Y0147986D01*
X0670211Y0147986D02*
X0671028Y0147169D01*
X0669394Y0147169D02*
X0669394Y0149621D01*
X0670620Y0149621D01*
X0671028Y0149212D01*
X0702205Y0200698D02*
X0702205Y0201924D01*
X0702614Y0202332D01*
X0703431Y0202332D01*
X0703840Y0201924D01*
X0703840Y0200698D01*
X0703840Y0201515D02*
X0704657Y0202332D01*
X0704248Y0203598D02*
X0704657Y0204006D01*
X0704657Y0204824D01*
X0704248Y0205232D01*
X0703840Y0205232D01*
X0703431Y0204824D01*
X0703431Y0204415D01*
X0703431Y0204824D02*
X0703023Y0205232D01*
X0702614Y0205232D01*
X0702205Y0204824D01*
X0702205Y0204006D01*
X0702614Y0203598D01*
X0702614Y0206498D02*
X0702205Y0206907D01*
X0702205Y0207724D01*
X0702614Y0208132D01*
X0703023Y0208132D01*
X0703431Y0207724D01*
X0703840Y0208132D01*
X0704248Y0208132D01*
X0704657Y0207724D01*
X0704657Y0206907D01*
X0704248Y0206498D01*
X0703431Y0207315D02*
X0703431Y0207724D01*
X0699118Y0207572D02*
X0699118Y0206754D01*
X0698709Y0206346D01*
X0697892Y0207163D02*
X0697892Y0207572D01*
X0698301Y0207980D01*
X0698709Y0207980D01*
X0699118Y0207572D01*
X0697892Y0207572D02*
X0697483Y0207980D01*
X0697075Y0207980D01*
X0696666Y0207572D01*
X0696666Y0206754D01*
X0697075Y0206346D01*
X0697075Y0205080D02*
X0697892Y0205080D01*
X0698301Y0204672D01*
X0698301Y0203446D01*
X0699118Y0203446D02*
X0696666Y0203446D01*
X0696666Y0204672D01*
X0697075Y0205080D01*
X0698301Y0204263D02*
X0699118Y0205080D01*
X0699118Y0209246D02*
X0697483Y0210880D01*
X0697075Y0210880D01*
X0696666Y0210472D01*
X0696666Y0209655D01*
X0697075Y0209246D01*
X0699118Y0209246D02*
X0699118Y0210880D01*
X0685337Y0215118D02*
X0683703Y0215118D01*
X0684520Y0215118D02*
X0684520Y0217569D01*
X0683703Y0216752D01*
X0682437Y0217161D02*
X0682029Y0217569D01*
X0681211Y0217569D01*
X0680803Y0217161D01*
X0680803Y0216752D01*
X0681211Y0216344D01*
X0682029Y0216344D01*
X0682437Y0215935D01*
X0682437Y0215526D01*
X0682029Y0215118D01*
X0681211Y0215118D01*
X0680803Y0215526D01*
X0654198Y0217476D02*
X0651747Y0217476D01*
X0651747Y0218293D02*
X0651747Y0216658D01*
X0651747Y0219558D02*
X0654198Y0219558D01*
X0652973Y0219558D02*
X0652973Y0221193D01*
X0654198Y0221193D02*
X0651747Y0221193D01*
X0651747Y0222459D02*
X0651747Y0223684D01*
X0652155Y0224093D01*
X0652973Y0224093D01*
X0653381Y0223684D01*
X0653381Y0222459D01*
X0653381Y0223276D02*
X0654198Y0224093D01*
X0654198Y0225359D02*
X0654198Y0226993D01*
X0653790Y0228259D02*
X0654198Y0228667D01*
X0654198Y0229485D01*
X0653790Y0229893D01*
X0653381Y0229893D01*
X0652973Y0229485D01*
X0652973Y0228667D01*
X0652564Y0228259D01*
X0652155Y0228259D01*
X0651747Y0228667D01*
X0651747Y0229485D01*
X0652155Y0229893D01*
X0651747Y0231159D02*
X0654198Y0231159D01*
X0652973Y0231159D02*
X0652973Y0232793D01*
X0654198Y0232793D02*
X0651747Y0232793D01*
X0649474Y0230451D02*
X0649065Y0230860D01*
X0649474Y0230451D02*
X0649474Y0229634D01*
X0649065Y0229225D01*
X0647431Y0229225D01*
X0647022Y0229634D01*
X0647022Y0230451D01*
X0647431Y0230860D01*
X0647022Y0228109D02*
X0647022Y0227292D01*
X0647022Y0227701D02*
X0649474Y0227701D01*
X0649474Y0228109D02*
X0649474Y0227292D01*
X0649065Y0226026D02*
X0648248Y0226026D01*
X0648248Y0225209D01*
X0647431Y0224392D02*
X0647022Y0224801D01*
X0647022Y0225618D01*
X0647431Y0226026D01*
X0647431Y0224392D02*
X0649065Y0224392D01*
X0649474Y0224801D01*
X0649474Y0225618D01*
X0649065Y0226026D01*
X0651747Y0225359D02*
X0654198Y0225359D01*
X0652973Y0225359D02*
X0652973Y0226176D01*
X0651747Y0226993D02*
X0651747Y0225359D01*
X0651747Y0222459D02*
X0654198Y0222459D01*
X0649474Y0222718D02*
X0649065Y0223126D01*
X0647431Y0223126D01*
X0647022Y0222718D01*
X0647022Y0221900D01*
X0647431Y0221492D01*
X0649065Y0221492D01*
X0649474Y0221900D01*
X0649474Y0222718D01*
X0649474Y0220226D02*
X0649474Y0218592D01*
X0647022Y0218592D01*
X0644750Y0218592D02*
X0644750Y0219409D01*
X0644750Y0219000D02*
X0642298Y0219000D01*
X0642298Y0218592D02*
X0642298Y0219409D01*
X0642298Y0220525D02*
X0644750Y0222160D01*
X0642298Y0222160D01*
X0642298Y0223425D02*
X0642298Y0224651D01*
X0642707Y0225060D01*
X0643524Y0225060D01*
X0643932Y0224651D01*
X0643932Y0223425D01*
X0644750Y0223425D02*
X0642298Y0223425D01*
X0642298Y0220525D02*
X0644750Y0220525D01*
X0644341Y0226325D02*
X0644750Y0226734D01*
X0644750Y0227551D01*
X0644341Y0227960D01*
X0642298Y0227960D01*
X0642298Y0229225D02*
X0642298Y0230860D01*
X0642298Y0230043D02*
X0644750Y0230043D01*
X0644341Y0226325D02*
X0642298Y0226325D01*
X0639763Y0231921D02*
X0638128Y0231921D01*
X0638945Y0231921D02*
X0638945Y0234373D01*
X0638128Y0233555D01*
X0636862Y0234373D02*
X0636045Y0234373D01*
X0636454Y0234373D02*
X0636454Y0232329D01*
X0636045Y0231921D01*
X0635637Y0231921D01*
X0635228Y0232329D01*
X0629061Y0232934D02*
X0628243Y0232117D01*
X0628243Y0232525D02*
X0628243Y0231300D01*
X0629061Y0231300D02*
X0626609Y0231300D01*
X0626609Y0232525D01*
X0627018Y0232934D01*
X0627835Y0232934D01*
X0628243Y0232525D01*
X0628652Y0234200D02*
X0629061Y0234608D01*
X0629061Y0235426D01*
X0628652Y0235834D01*
X0628243Y0235834D01*
X0627835Y0235426D01*
X0627835Y0235017D01*
X0627835Y0235426D02*
X0627426Y0235834D01*
X0627018Y0235834D01*
X0626609Y0235426D01*
X0626609Y0234608D01*
X0627018Y0234200D01*
X0619752Y0235622D02*
X0619752Y0236439D01*
X0619343Y0236848D01*
X0617300Y0236848D01*
X0618117Y0238114D02*
X0617300Y0238931D01*
X0619752Y0238931D01*
X0619752Y0238114D02*
X0619752Y0239748D01*
X0619752Y0235622D02*
X0619343Y0235213D01*
X0617300Y0235213D01*
X0613635Y0231124D02*
X0612818Y0231124D01*
X0612410Y0230715D01*
X0612410Y0230307D01*
X0612818Y0229898D01*
X0614044Y0229898D01*
X0614044Y0229081D02*
X0614044Y0230715D01*
X0613635Y0231124D01*
X0614044Y0229081D02*
X0613635Y0228672D01*
X0612818Y0228672D01*
X0612410Y0229081D01*
X0611144Y0228672D02*
X0610327Y0229490D01*
X0610735Y0229490D02*
X0609510Y0229490D01*
X0609510Y0228672D02*
X0609510Y0231124D01*
X0610735Y0231124D01*
X0611144Y0230715D01*
X0611144Y0229898D01*
X0610735Y0229490D01*
X0655315Y0237618D02*
X0655315Y0240069D01*
X0685797Y0247374D02*
X0688248Y0247374D01*
X0689564Y0236538D02*
X0692867Y0236538D01*
X0689564Y0234336D01*
X0692867Y0234336D01*
X0692316Y0232855D02*
X0690114Y0232855D01*
X0689564Y0232305D01*
X0689564Y0231204D01*
X0690114Y0230653D01*
X0692316Y0230653D01*
X0692867Y0231204D01*
X0692867Y0232305D01*
X0692316Y0232855D01*
X0644941Y0212267D02*
X0644941Y0211450D01*
X0644533Y0211041D01*
X0643715Y0211041D02*
X0643307Y0211859D01*
X0643307Y0212267D01*
X0643715Y0212676D01*
X0644533Y0212676D01*
X0644941Y0212267D01*
X0643715Y0211041D02*
X0642490Y0211041D01*
X0642490Y0212676D01*
X0642898Y0209776D02*
X0642490Y0209367D01*
X0642490Y0208141D01*
X0644941Y0208141D01*
X0644941Y0209367D01*
X0644533Y0209776D01*
X0642898Y0209776D01*
X0639944Y0206617D02*
X0639127Y0206617D01*
X0638719Y0206208D01*
X0639944Y0206617D02*
X0640353Y0206208D01*
X0640353Y0205799D01*
X0638719Y0204165D01*
X0640353Y0204165D01*
X0637044Y0204574D02*
X0637044Y0206617D01*
X0636636Y0206617D02*
X0637453Y0206617D01*
X0637044Y0204574D02*
X0636636Y0204165D01*
X0636227Y0204165D01*
X0635819Y0204574D01*
X0678220Y0205377D02*
X0678220Y0203333D01*
X0678629Y0202925D01*
X0679446Y0202925D01*
X0679855Y0203333D01*
X0679855Y0205377D01*
X0681120Y0204151D02*
X0682755Y0204151D01*
X0682346Y0205377D02*
X0681120Y0204151D01*
X0682346Y0202925D02*
X0682346Y0205377D01*
X0702205Y0200698D02*
X0704657Y0200698D01*
X0534705Y0243097D02*
X0534297Y0242689D01*
X0534705Y0243097D02*
X0534705Y0243914D01*
X0534297Y0244323D01*
X0533888Y0244323D01*
X0533479Y0243914D01*
X0533479Y0243097D01*
X0533071Y0242689D01*
X0532662Y0242689D01*
X0532253Y0243097D01*
X0532253Y0243914D01*
X0532662Y0244323D01*
X0532662Y0245589D02*
X0532253Y0245997D01*
X0532253Y0246815D01*
X0532662Y0247223D01*
X0533071Y0247223D01*
X0534705Y0245589D01*
X0534705Y0247223D01*
X0544214Y0255511D02*
X0544214Y0256737D01*
X0544623Y0257146D01*
X0546257Y0257146D01*
X0546666Y0256737D01*
X0546666Y0255511D01*
X0544214Y0255511D01*
X0544214Y0258412D02*
X0544214Y0260046D01*
X0544623Y0260046D01*
X0546257Y0258412D01*
X0546666Y0258412D01*
X0555708Y0257589D02*
X0556934Y0257589D01*
X0557343Y0257180D01*
X0557343Y0256363D01*
X0556934Y0255955D01*
X0555708Y0255955D01*
X0556525Y0255955D02*
X0557343Y0255137D01*
X0558608Y0255546D02*
X0559017Y0255137D01*
X0559834Y0255137D01*
X0560243Y0255546D01*
X0560243Y0255955D01*
X0559834Y0256363D01*
X0559426Y0256363D01*
X0559834Y0256363D02*
X0560243Y0256772D01*
X0560243Y0257180D01*
X0559834Y0257589D01*
X0559017Y0257589D01*
X0558608Y0257180D01*
X0561508Y0257180D02*
X0561917Y0257589D01*
X0562734Y0257589D01*
X0563143Y0257180D01*
X0561508Y0255546D01*
X0561917Y0255137D01*
X0562734Y0255137D01*
X0563143Y0255546D01*
X0563143Y0257180D01*
X0561508Y0257180D02*
X0561508Y0255546D01*
X0566114Y0253802D02*
X0566114Y0251759D01*
X0566522Y0251350D01*
X0567340Y0251350D01*
X0567748Y0251759D01*
X0567748Y0253802D01*
X0569014Y0252576D02*
X0570240Y0252576D01*
X0570648Y0252167D01*
X0570648Y0251759D01*
X0570240Y0251350D01*
X0569423Y0251350D01*
X0569014Y0251759D01*
X0569014Y0252576D01*
X0569831Y0253393D01*
X0570648Y0253802D01*
X0573425Y0252062D02*
X0573425Y0250428D01*
X0573833Y0250019D01*
X0574651Y0250019D01*
X0575059Y0250428D01*
X0576325Y0250019D02*
X0577959Y0251654D01*
X0577959Y0252062D01*
X0577551Y0252471D01*
X0576734Y0252471D01*
X0576325Y0252062D01*
X0575059Y0252062D02*
X0574651Y0252471D01*
X0573833Y0252471D01*
X0573425Y0252062D01*
X0576325Y0250019D02*
X0577959Y0250019D01*
X0579225Y0250019D02*
X0580859Y0250019D01*
X0580042Y0250019D02*
X0580042Y0252471D01*
X0579225Y0251654D01*
X0555708Y0255137D02*
X0555708Y0257589D01*
X0646538Y0300475D02*
X0648989Y0300475D01*
X0772372Y0284754D02*
X0772922Y0285305D01*
X0775124Y0283103D01*
X0775674Y0283653D01*
X0775674Y0284754D01*
X0775124Y0285305D01*
X0772922Y0285305D01*
X0772372Y0284754D02*
X0772372Y0283653D01*
X0772922Y0283103D01*
X0775124Y0283103D01*
X0774023Y0281622D02*
X0774023Y0279420D01*
X0772372Y0281071D01*
X0775674Y0281071D01*
X0799372Y0281729D02*
X0799372Y0280078D01*
X0802674Y0280078D01*
X0802674Y0281729D01*
X0802124Y0282280D01*
X0799922Y0282280D01*
X0799372Y0281729D01*
X0804372Y0281729D02*
X0804372Y0280629D01*
X0804922Y0280078D01*
X0807124Y0280078D01*
X0807674Y0280629D01*
X0807674Y0281729D01*
X0807124Y0282280D01*
X0804922Y0282280D02*
X0804372Y0281729D01*
X0812372Y0282336D02*
X0812372Y0283437D01*
X0812922Y0283988D01*
X0815124Y0281786D01*
X0815674Y0282336D01*
X0815674Y0283437D01*
X0815124Y0283988D01*
X0812922Y0283988D01*
X0812372Y0282336D02*
X0812922Y0281786D01*
X0815124Y0281786D01*
X0815124Y0280305D02*
X0814573Y0280305D01*
X0814023Y0279754D01*
X0814023Y0278103D01*
X0815124Y0278103D01*
X0815674Y0278653D01*
X0815674Y0279754D01*
X0815124Y0280305D01*
X0812922Y0279204D02*
X0814023Y0278103D01*
X0812922Y0279204D02*
X0812372Y0280305D01*
X0812372Y0275521D02*
X0815674Y0275521D01*
X0815674Y0274420D02*
X0815674Y0276622D01*
X0813473Y0274420D02*
X0812372Y0275521D01*
D11*
X0818524Y0286570D02*
X0768524Y0286570D01*
X0768524Y0066570D01*
X0790524Y0066570D01*
X0790524Y0061570D01*
X0796524Y0061570D01*
X0796524Y0066570D01*
X0790524Y0066570D01*
X0796524Y0066570D02*
X0818524Y0066570D01*
X0818524Y0286570D01*
X0762209Y0234616D02*
X0762209Y0232752D01*
X0761587Y0232131D01*
X0759102Y0232131D01*
X0758481Y0232752D01*
X0758481Y0234616D01*
X0762209Y0234616D01*
X0760345Y0230265D02*
X0760966Y0229644D01*
X0760966Y0228402D01*
X0760345Y0227780D01*
X0759724Y0227780D01*
X0759724Y0230265D01*
X0760345Y0230265D02*
X0759102Y0230265D01*
X0758481Y0229644D01*
X0758481Y0228402D01*
X0758481Y0225915D02*
X0758481Y0224051D01*
X0759102Y0223430D01*
X0759724Y0224051D01*
X0759724Y0225294D01*
X0760345Y0225915D01*
X0760966Y0225294D01*
X0760966Y0223430D01*
X0760345Y0221565D02*
X0760966Y0220944D01*
X0760966Y0219701D01*
X0760345Y0219080D01*
X0759724Y0219080D01*
X0759724Y0221565D01*
X0760345Y0221565D02*
X0759102Y0221565D01*
X0758481Y0220944D01*
X0758481Y0219701D01*
X0758481Y0217215D02*
X0760966Y0217215D01*
X0759724Y0217215D02*
X0760966Y0215972D01*
X0760966Y0215351D01*
X0760966Y0213590D02*
X0760966Y0212969D01*
X0758481Y0212969D01*
X0758481Y0213590D02*
X0758481Y0212347D01*
X0759102Y0210690D02*
X0759724Y0210068D01*
X0759724Y0208205D01*
X0760345Y0208205D02*
X0758481Y0208205D01*
X0758481Y0210068D01*
X0759102Y0210690D01*
X0760966Y0210068D02*
X0760966Y0208826D01*
X0760345Y0208205D01*
X0762209Y0206339D02*
X0762209Y0205718D01*
X0758481Y0205718D01*
X0758481Y0206339D02*
X0758481Y0205097D01*
X0758481Y0203439D02*
X0758481Y0202197D01*
X0758481Y0202818D02*
X0760966Y0202818D01*
X0760966Y0203439D01*
X0762209Y0202818D02*
X0762830Y0202818D01*
X0760966Y0200539D02*
X0760966Y0198054D01*
X0758481Y0200539D01*
X0758481Y0198054D01*
X0759102Y0196189D02*
X0760345Y0196189D01*
X0760966Y0195568D01*
X0760966Y0194325D01*
X0760345Y0193704D01*
X0759724Y0193704D01*
X0759724Y0196189D01*
X0759102Y0196189D02*
X0758481Y0195568D01*
X0758481Y0194325D01*
X0758481Y0191839D02*
X0760966Y0191839D01*
X0759724Y0191839D02*
X0760966Y0190596D01*
X0760966Y0189975D01*
X0758481Y0188214D02*
X0762209Y0185729D01*
X0762209Y0183864D02*
X0762209Y0182621D01*
X0762209Y0183242D02*
X0758481Y0183242D01*
X0758481Y0182621D02*
X0758481Y0183864D01*
X0759102Y0180964D02*
X0758481Y0180342D01*
X0758481Y0179100D01*
X0759102Y0178478D01*
X0761587Y0178478D01*
X0762209Y0179100D01*
X0762209Y0180342D01*
X0761587Y0180964D01*
X0759102Y0180964D01*
X0744969Y0181430D02*
X0744347Y0182051D01*
X0744969Y0181430D02*
X0744969Y0180187D01*
X0744347Y0179566D01*
X0743726Y0179566D01*
X0741241Y0182051D01*
X0741241Y0179566D01*
X0741241Y0183605D02*
X0741241Y0184226D01*
X0741862Y0184226D01*
X0741862Y0183605D01*
X0741241Y0183605D01*
X0741241Y0186091D02*
X0741241Y0188576D01*
X0741241Y0187334D02*
X0744969Y0187334D01*
X0743726Y0188576D01*
X0737882Y0189664D02*
X0734154Y0189664D01*
X0734154Y0187179D01*
X0730795Y0188576D02*
X0727068Y0188576D01*
X0727068Y0186091D01*
X0727689Y0184226D02*
X0730174Y0184226D01*
X0730795Y0183605D01*
X0730795Y0182362D01*
X0730174Y0181741D01*
X0728932Y0181741D01*
X0728310Y0182362D01*
X0729553Y0182362D01*
X0729553Y0183605D01*
X0728310Y0183605D01*
X0728310Y0182362D01*
X0727689Y0181741D02*
X0727068Y0182362D01*
X0727068Y0183605D01*
X0727689Y0184226D01*
X0727068Y0179876D02*
X0730795Y0179876D01*
X0729553Y0178633D01*
X0730795Y0177391D01*
X0727068Y0177391D01*
X0727068Y0175526D02*
X0727068Y0174283D01*
X0727068Y0174904D02*
X0730795Y0174904D01*
X0730795Y0174283D02*
X0730795Y0175526D01*
X0730795Y0172626D02*
X0730795Y0170141D01*
X0730795Y0171383D02*
X0727068Y0171383D01*
X0734154Y0171642D02*
X0734154Y0172263D01*
X0734776Y0172263D01*
X0734776Y0171642D01*
X0734154Y0171642D01*
X0734154Y0170088D02*
X0736639Y0167603D01*
X0737261Y0167603D01*
X0737882Y0168224D01*
X0737882Y0169467D01*
X0737261Y0170088D01*
X0734154Y0170088D02*
X0734154Y0167603D01*
X0734154Y0174128D02*
X0734154Y0176613D01*
X0734154Y0175371D02*
X0737882Y0175371D01*
X0736639Y0176613D01*
X0736639Y0178478D02*
X0734154Y0179721D01*
X0736639Y0180963D01*
X0723709Y0186712D02*
X0723087Y0186091D01*
X0722466Y0186091D01*
X0721845Y0186712D01*
X0721845Y0187955D01*
X0722466Y0188576D01*
X0723087Y0188576D01*
X0723709Y0187955D01*
X0723709Y0186712D01*
X0721845Y0186712D02*
X0721224Y0186091D01*
X0720602Y0186091D01*
X0719981Y0186712D01*
X0719981Y0187955D01*
X0720602Y0188576D01*
X0721224Y0188576D01*
X0721845Y0187955D01*
X0719981Y0190441D02*
X0719981Y0192926D01*
X0719981Y0191684D02*
X0723709Y0191684D01*
X0722466Y0192926D01*
X0723087Y0194791D02*
X0720602Y0197277D01*
X0719981Y0196655D01*
X0719981Y0195413D01*
X0720602Y0194791D01*
X0723087Y0194791D01*
X0723709Y0195413D01*
X0723709Y0196655D01*
X0723087Y0197277D01*
X0720602Y0197277D01*
X0719981Y0199142D02*
X0719981Y0201627D01*
X0722466Y0199142D01*
X0723087Y0199142D01*
X0723709Y0199763D01*
X0723709Y0201005D01*
X0723087Y0201627D01*
X0725825Y0204527D02*
X0727068Y0203284D01*
X0727068Y0203906D01*
X0727689Y0203906D01*
X0727689Y0203284D01*
X0727068Y0203284D01*
X0727068Y0206392D02*
X0730795Y0206392D01*
X0730795Y0208877D02*
X0727068Y0206392D01*
X0727068Y0208877D02*
X0730795Y0208877D01*
X0730174Y0210742D02*
X0728932Y0210742D01*
X0728310Y0211363D01*
X0728310Y0213227D01*
X0727068Y0213227D02*
X0730795Y0213227D01*
X0730795Y0211363D01*
X0730174Y0210742D01*
X0734154Y0211415D02*
X0737882Y0211415D01*
X0737882Y0209551D01*
X0737261Y0208930D01*
X0736018Y0208930D01*
X0735397Y0209551D01*
X0735397Y0211415D01*
X0735397Y0210172D02*
X0734154Y0208930D01*
X0734154Y0207064D02*
X0737882Y0207064D01*
X0734154Y0204579D01*
X0737882Y0204579D01*
X0741241Y0205667D02*
X0742483Y0206909D01*
X0742483Y0206288D02*
X0742483Y0208152D01*
X0741241Y0208152D02*
X0744969Y0208152D01*
X0744969Y0206288D01*
X0744347Y0205667D01*
X0743105Y0205667D01*
X0742483Y0206288D01*
X0742483Y0203802D02*
X0742483Y0201317D01*
X0743105Y0201317D01*
X0743726Y0201938D01*
X0743726Y0203181D01*
X0743105Y0203802D01*
X0741862Y0203802D01*
X0741241Y0203181D01*
X0741241Y0201938D01*
X0743726Y0199452D02*
X0741241Y0198209D01*
X0743726Y0196967D01*
X0741862Y0195101D02*
X0741862Y0194480D01*
X0741241Y0194480D01*
X0741241Y0195101D01*
X0741862Y0195101D01*
X0737882Y0194014D02*
X0734154Y0194014D01*
X0736018Y0194014D02*
X0736018Y0191529D01*
X0737882Y0191529D02*
X0734154Y0191529D01*
X0730795Y0190441D02*
X0727068Y0190441D01*
X0728310Y0191684D01*
X0727068Y0192926D01*
X0730795Y0192926D01*
X0730795Y0194791D02*
X0727068Y0194791D01*
X0727068Y0197277D02*
X0730795Y0197277D01*
X0729553Y0196034D01*
X0730795Y0194791D01*
X0734154Y0196500D02*
X0734776Y0195879D01*
X0737261Y0195879D01*
X0737882Y0196500D01*
X0737882Y0197743D01*
X0737261Y0198364D01*
X0734776Y0198364D01*
X0734154Y0197743D01*
X0734154Y0196500D01*
X0734154Y0213280D02*
X0734154Y0215765D01*
X0737882Y0215765D01*
X0737882Y0213280D01*
X0736018Y0214522D02*
X0736018Y0215765D01*
X0734776Y0217630D02*
X0734154Y0218251D01*
X0734154Y0219494D01*
X0734776Y0220115D01*
X0737261Y0220115D01*
X0737882Y0219494D01*
X0737882Y0218251D01*
X0737261Y0217630D01*
X0730795Y0216335D02*
X0730795Y0215092D01*
X0730795Y0215714D02*
X0727689Y0215714D01*
X0727068Y0216335D01*
X0727068Y0216956D01*
X0727689Y0217577D01*
X0762209Y0212969D02*
X0762830Y0212969D01*
X0762209Y0172263D02*
X0762209Y0170399D01*
X0761587Y0169778D01*
X0760966Y0169778D01*
X0760345Y0170399D01*
X0760345Y0172263D01*
X0760345Y0170399D02*
X0759724Y0169778D01*
X0759102Y0169778D01*
X0758481Y0170399D01*
X0758481Y0172263D01*
X0762209Y0172263D01*
X0760345Y0167913D02*
X0759102Y0167913D01*
X0758481Y0167292D01*
X0758481Y0166049D01*
X0759102Y0165428D01*
X0760345Y0165428D01*
X0760966Y0166049D01*
X0760966Y0167292D01*
X0760345Y0167913D01*
X0759102Y0163563D02*
X0759724Y0162942D01*
X0759724Y0161078D01*
X0760345Y0161078D02*
X0758481Y0161078D01*
X0758481Y0162942D01*
X0759102Y0163563D01*
X0760966Y0162942D02*
X0760966Y0161699D01*
X0760345Y0161078D01*
X0760966Y0159213D02*
X0758481Y0159213D01*
X0759724Y0159213D02*
X0760966Y0157970D01*
X0760966Y0157349D01*
X0760345Y0155588D02*
X0760966Y0154966D01*
X0760966Y0153102D01*
X0762209Y0153102D02*
X0758481Y0153102D01*
X0758481Y0154966D01*
X0759102Y0155588D01*
X0760345Y0155588D01*
D12*
X0766551Y0147457D02*
X0753165Y0147457D01*
X0753165Y0240370D01*
X0766551Y0240370D01*
X0766551Y0147457D01*
X0749622Y0163205D02*
X0714976Y0163205D01*
X0714976Y0225803D01*
X0749622Y0225803D01*
X0749622Y0163205D01*
D13*
X0554346Y0236827D02*
X0550803Y0239189D01*
D14*
X0527181Y0180528D02*
X0527181Y0082102D01*
X0645422Y0071704D02*
X0645422Y0067304D01*
X0653822Y0067304D01*
X0653822Y0071704D01*
X0645422Y0071704D01*
X0670619Y0073672D02*
X0670619Y0069272D01*
X0679019Y0069272D01*
X0679019Y0073672D01*
X0670619Y0073672D01*
X0670619Y0074391D02*
X0670619Y0078791D01*
X0679019Y0078791D01*
X0679019Y0074391D01*
X0670619Y0074391D01*
X0670619Y0068554D02*
X0679019Y0068554D01*
X0679019Y0064154D01*
X0670619Y0064154D01*
X0670619Y0068554D01*
X0670619Y0063436D02*
X0679019Y0063436D01*
X0679019Y0059036D01*
X0670619Y0059036D01*
X0670619Y0063436D01*
X0662058Y0061893D02*
X0657658Y0061893D01*
X0657658Y0053493D01*
X0662058Y0053493D01*
X0662058Y0061893D01*
X0656709Y0060449D02*
X0656709Y0058893D01*
X0656709Y0056493D01*
X0656709Y0054937D01*
X0656709Y0056493D02*
X0656640Y0056495D01*
X0656572Y0056501D01*
X0656504Y0056511D01*
X0656437Y0056524D01*
X0656371Y0056542D01*
X0656306Y0056563D01*
X0656242Y0056588D01*
X0656180Y0056616D01*
X0656119Y0056648D01*
X0656060Y0056683D01*
X0656004Y0056722D01*
X0655949Y0056764D01*
X0655898Y0056809D01*
X0655848Y0056857D01*
X0655802Y0056907D01*
X0655759Y0056960D01*
X0655718Y0057016D01*
X0655681Y0057073D01*
X0655648Y0057133D01*
X0655617Y0057195D01*
X0655591Y0057258D01*
X0655568Y0057322D01*
X0655548Y0057388D01*
X0655533Y0057455D01*
X0655521Y0057522D01*
X0655513Y0057590D01*
X0655509Y0057659D01*
X0655509Y0057727D01*
X0655513Y0057796D01*
X0655521Y0057864D01*
X0655533Y0057931D01*
X0655548Y0057998D01*
X0655568Y0058064D01*
X0655591Y0058128D01*
X0655617Y0058191D01*
X0655648Y0058253D01*
X0655681Y0058313D01*
X0655718Y0058370D01*
X0655759Y0058426D01*
X0655802Y0058479D01*
X0655848Y0058529D01*
X0655898Y0058577D01*
X0655949Y0058622D01*
X0656004Y0058664D01*
X0656060Y0058703D01*
X0656119Y0058738D01*
X0656180Y0058770D01*
X0656242Y0058798D01*
X0656306Y0058823D01*
X0656371Y0058844D01*
X0656437Y0058862D01*
X0656504Y0058875D01*
X0656572Y0058885D01*
X0656640Y0058891D01*
X0656709Y0058893D01*
X0644898Y0060449D02*
X0644898Y0054937D01*
X0681805Y0055774D02*
X0688305Y0055774D01*
X0688305Y0068274D01*
X0681805Y0068274D01*
X0681805Y0055774D01*
X0688992Y0046276D02*
X0688992Y0081709D01*
X0748047Y0081709D01*
X0748047Y0077772D01*
X0744110Y0081709D01*
X0748047Y0081709D01*
X0748047Y0046276D01*
X0688992Y0046276D01*
X0749522Y0055774D02*
X0756022Y0055774D01*
X0756022Y0068274D01*
X0749522Y0068274D01*
X0749522Y0055774D01*
X0748047Y0077999D02*
X0747820Y0077999D01*
X0748047Y0078497D02*
X0747322Y0078497D01*
X0746823Y0078996D02*
X0748047Y0078996D01*
X0748047Y0079494D02*
X0746324Y0079494D01*
X0745826Y0079993D02*
X0748047Y0079993D01*
X0748047Y0080491D02*
X0745327Y0080491D01*
X0744829Y0080990D02*
X0748047Y0080990D01*
X0748047Y0081488D02*
X0744330Y0081488D01*
X0740830Y0082265D02*
X0740830Y0086665D01*
X0732430Y0086665D01*
X0732430Y0082265D01*
X0740830Y0082265D01*
X0742587Y0087413D02*
X0723587Y0087413D01*
X0723587Y0100413D01*
X0742587Y0100413D01*
X0742587Y0087413D01*
X0744272Y0092076D02*
X0744272Y0100476D01*
X0748672Y0100476D01*
X0748672Y0092076D01*
X0744272Y0092076D01*
X0716389Y0092469D02*
X0711989Y0092469D01*
X0711989Y0100869D01*
X0716389Y0100869D01*
X0716389Y0092469D01*
X0711091Y0087807D02*
X0692091Y0087807D01*
X0692091Y0100807D01*
X0711091Y0100807D01*
X0711091Y0087807D01*
X0710121Y0086665D02*
X0710121Y0082265D01*
X0701721Y0082265D01*
X0701721Y0086665D01*
X0710121Y0086665D01*
X0680562Y0085776D02*
X0680562Y0094176D01*
X0676162Y0094176D01*
X0676162Y0085776D01*
X0680562Y0085776D01*
X0717501Y0103099D02*
X0717501Y0111499D01*
X0721901Y0111499D01*
X0721901Y0103099D01*
X0717501Y0103099D01*
X0722787Y0107386D02*
X0722787Y0121386D01*
X0730787Y0121386D01*
X0730787Y0107386D01*
X0722787Y0107386D01*
X0731643Y0107137D02*
X0731643Y0102737D01*
X0740043Y0102737D01*
X0740043Y0107137D01*
X0731643Y0107137D01*
X0699854Y0104280D02*
X0699854Y0112680D01*
X0695454Y0112680D01*
X0695454Y0104280D01*
X0699854Y0104280D01*
X0694567Y0107780D02*
X0686567Y0107780D01*
X0686567Y0121780D01*
X0694567Y0121780D01*
X0694567Y0107780D01*
X0695454Y0113335D02*
X0699854Y0113335D01*
X0699854Y0121735D01*
X0695454Y0121735D01*
X0695454Y0113335D01*
X0700572Y0146406D02*
X0700572Y0154806D01*
X0704972Y0154806D01*
X0704972Y0146406D01*
X0700572Y0146406D01*
X0705858Y0150693D02*
X0705858Y0164693D01*
X0713858Y0164693D01*
X0713858Y0150693D01*
X0705858Y0150693D01*
X0682924Y0147587D02*
X0678524Y0147587D01*
X0678524Y0155987D01*
X0682924Y0155987D01*
X0682924Y0147587D01*
X0677638Y0151087D02*
X0669638Y0151087D01*
X0669638Y0165087D01*
X0677638Y0165087D01*
X0677638Y0151087D01*
X0678524Y0156643D02*
X0682924Y0156643D01*
X0682924Y0165043D01*
X0678524Y0165043D01*
X0678524Y0156643D01*
X0626588Y0170524D02*
X0620649Y0164585D01*
X0617538Y0167696D01*
X0623477Y0173636D01*
X0626588Y0170524D01*
X0626948Y0170884D02*
X0623837Y0173995D01*
X0629776Y0179935D01*
X0632888Y0176824D01*
X0626948Y0170884D01*
X0643915Y0177932D02*
X0647027Y0174821D01*
X0652966Y0180761D01*
X0649855Y0183872D01*
X0643915Y0177932D01*
X0651002Y0170846D02*
X0654113Y0167734D01*
X0660053Y0173674D01*
X0656942Y0176785D01*
X0651002Y0170846D01*
X0669638Y0171559D02*
X0677638Y0171559D01*
X0677638Y0185559D01*
X0669638Y0185559D01*
X0669638Y0171559D01*
X0678524Y0168060D02*
X0682924Y0168060D01*
X0682924Y0176460D01*
X0678524Y0176460D01*
X0678524Y0168060D01*
X0700572Y0166879D02*
X0700572Y0175279D01*
X0704972Y0175279D01*
X0704972Y0166879D01*
X0700572Y0166879D01*
X0705858Y0171165D02*
X0705858Y0185165D01*
X0713858Y0185165D01*
X0713858Y0171165D01*
X0705858Y0171165D01*
X0682924Y0177115D02*
X0678524Y0177115D01*
X0678524Y0185515D01*
X0682924Y0185515D01*
X0682924Y0177115D01*
X0701359Y0190894D02*
X0701359Y0199294D01*
X0705759Y0199294D01*
X0705759Y0190894D01*
X0701359Y0190894D01*
X0700247Y0193257D02*
X0695847Y0193257D01*
X0695847Y0201657D01*
X0700247Y0201657D01*
X0700247Y0193257D01*
X0682890Y0201394D02*
X0682888Y0201294D01*
X0682882Y0201193D01*
X0682872Y0201093D01*
X0682858Y0200994D01*
X0682841Y0200895D01*
X0682819Y0200797D01*
X0682794Y0200699D01*
X0682765Y0200603D01*
X0682732Y0200508D01*
X0682695Y0200415D01*
X0682655Y0200323D01*
X0682611Y0200232D01*
X0682564Y0200144D01*
X0682513Y0200057D01*
X0682459Y0199972D01*
X0682401Y0199890D01*
X0682341Y0199810D01*
X0682277Y0199732D01*
X0682210Y0199657D01*
X0682140Y0199585D01*
X0682068Y0199515D01*
X0681993Y0199448D01*
X0681915Y0199384D01*
X0681835Y0199324D01*
X0681753Y0199266D01*
X0681668Y0199212D01*
X0681581Y0199161D01*
X0681493Y0199114D01*
X0681402Y0199070D01*
X0681310Y0199030D01*
X0681217Y0198993D01*
X0681122Y0198960D01*
X0681026Y0198931D01*
X0680928Y0198906D01*
X0680830Y0198884D01*
X0680731Y0198867D01*
X0680632Y0198853D01*
X0680532Y0198843D01*
X0680431Y0198837D01*
X0680331Y0198835D01*
X0680231Y0198837D01*
X0680130Y0198843D01*
X0680030Y0198853D01*
X0679931Y0198867D01*
X0679832Y0198884D01*
X0679734Y0198906D01*
X0679636Y0198931D01*
X0679540Y0198960D01*
X0679445Y0198993D01*
X0679352Y0199030D01*
X0679260Y0199070D01*
X0679169Y0199114D01*
X0679081Y0199161D01*
X0678994Y0199212D01*
X0678909Y0199266D01*
X0678827Y0199324D01*
X0678747Y0199384D01*
X0678669Y0199448D01*
X0678594Y0199515D01*
X0678522Y0199585D01*
X0678452Y0199657D01*
X0678385Y0199732D01*
X0678321Y0199810D01*
X0678261Y0199890D01*
X0678203Y0199972D01*
X0678149Y0200057D01*
X0678098Y0200144D01*
X0678051Y0200232D01*
X0678007Y0200323D01*
X0677967Y0200415D01*
X0677930Y0200508D01*
X0677897Y0200603D01*
X0677868Y0200699D01*
X0677843Y0200797D01*
X0677821Y0200895D01*
X0677804Y0200994D01*
X0677790Y0201093D01*
X0677780Y0201193D01*
X0677774Y0201294D01*
X0677772Y0201394D01*
X0653035Y0194932D02*
X0653035Y0190532D01*
X0644635Y0190532D01*
X0644635Y0194932D01*
X0653035Y0194932D01*
X0649935Y0200843D02*
X0647735Y0200843D01*
X0640961Y0202969D02*
X0640961Y0195094D01*
X0635449Y0195094D02*
X0630724Y0195094D01*
X0625213Y0195094D02*
X0625213Y0202969D01*
X0630724Y0202969D01*
X0635449Y0202969D02*
X0640961Y0202969D01*
X0635712Y0209036D02*
X0627312Y0209036D01*
X0627312Y0213436D01*
X0635712Y0213436D01*
X0635712Y0209036D01*
X0610090Y0209531D02*
X0605690Y0209531D01*
X0605690Y0201131D01*
X0610090Y0201131D01*
X0610090Y0209531D01*
X0604409Y0215087D02*
X0604409Y0201087D01*
X0596409Y0201087D01*
X0596409Y0215087D01*
X0604409Y0215087D01*
X0604083Y0216910D02*
X0604083Y0221310D01*
X0612483Y0221310D01*
X0612483Y0216910D01*
X0604083Y0216910D01*
X0597850Y0217142D02*
X0591945Y0217142D01*
X0591945Y0220685D01*
X0591945Y0225409D02*
X0591945Y0228953D01*
X0597850Y0228953D01*
X0596016Y0230220D02*
X0604016Y0230220D01*
X0604016Y0244220D01*
X0596016Y0244220D01*
X0596016Y0230220D01*
X0595354Y0230220D02*
X0587354Y0230220D01*
X0587354Y0244220D01*
X0595354Y0244220D01*
X0595354Y0230220D01*
X0600016Y0224425D02*
X0600016Y0221669D01*
X0604083Y0223603D02*
X0604083Y0228003D01*
X0612483Y0228003D01*
X0612483Y0223603D01*
X0604083Y0223603D01*
X0614130Y0223973D02*
X0614130Y0219573D01*
X0622530Y0219573D01*
X0622530Y0223973D01*
X0614130Y0223973D01*
X0614130Y0225380D02*
X0614130Y0229780D01*
X0622530Y0229780D01*
X0622530Y0225380D01*
X0614130Y0225380D01*
X0609696Y0230658D02*
X0605296Y0230658D01*
X0605296Y0239058D01*
X0609696Y0239058D01*
X0609696Y0230658D01*
X0624425Y0230528D02*
X0624425Y0222654D01*
X0629937Y0222654D02*
X0634661Y0222654D01*
X0640173Y0222654D02*
X0640173Y0230528D01*
X0634661Y0230528D01*
X0629937Y0230528D02*
X0624425Y0230528D01*
X0626162Y0236957D02*
X0626162Y0245357D01*
X0630562Y0245357D01*
X0630562Y0236957D01*
X0626162Y0236957D01*
X0586693Y0230220D02*
X0578693Y0230220D01*
X0578693Y0244220D01*
X0586693Y0244220D01*
X0586693Y0230220D01*
X0576625Y0228493D02*
X0572225Y0228493D01*
X0572225Y0236893D01*
X0576625Y0236893D01*
X0576625Y0228493D01*
X0570858Y0222283D02*
X0545709Y0222283D01*
X0545709Y0237197D01*
X0570858Y0237197D01*
X0570858Y0222283D01*
X0570858Y0222236D02*
X0570858Y0207323D01*
X0545709Y0207323D01*
X0545709Y0222236D01*
X0570858Y0222236D01*
X0572225Y0215830D02*
X0576625Y0215830D01*
X0576625Y0207430D01*
X0572225Y0207430D01*
X0572225Y0215830D01*
X0579087Y0215087D02*
X0587087Y0215087D01*
X0587087Y0201087D01*
X0579087Y0201087D01*
X0579087Y0215087D01*
X0587748Y0215087D02*
X0595748Y0215087D01*
X0595748Y0201087D01*
X0587748Y0201087D01*
X0587748Y0215087D01*
X0570858Y0207276D02*
X0570858Y0192362D01*
X0545709Y0192362D01*
X0545709Y0207276D01*
X0570858Y0207276D01*
X0542929Y0204937D02*
X0542929Y0209661D01*
X0538205Y0214386D02*
X0533480Y0214386D01*
X0533480Y0216354D02*
X0538205Y0216354D01*
X0542929Y0221079D02*
X0542929Y0225803D01*
X0542535Y0232102D02*
X0542535Y0234858D01*
X0542535Y0232102D02*
X0538992Y0232102D01*
X0538205Y0230528D02*
X0533480Y0230528D01*
X0527969Y0230528D02*
X0517142Y0230528D01*
X0517142Y0216354D01*
X0527969Y0216354D01*
X0527969Y0214386D02*
X0517142Y0214386D01*
X0517142Y0200213D01*
X0527969Y0200213D01*
X0527969Y0198244D02*
X0517142Y0198244D01*
X0517142Y0184071D01*
X0527969Y0184071D01*
X0528756Y0188795D02*
X0528756Y0193520D01*
X0533480Y0198244D02*
X0538205Y0198244D01*
X0538205Y0200213D02*
X0533480Y0200213D01*
X0528756Y0204937D02*
X0528756Y0209661D01*
X0528756Y0221079D02*
X0528756Y0225803D01*
X0527181Y0237220D02*
X0518913Y0237220D01*
X0518913Y0251787D01*
X0527575Y0251787D01*
X0527969Y0258087D02*
X0517142Y0258087D01*
X0517142Y0272260D01*
X0527969Y0272260D01*
X0528756Y0267535D02*
X0528756Y0262811D01*
X0533480Y0258087D02*
X0538205Y0258087D01*
X0538992Y0256512D02*
X0542535Y0256512D01*
X0542535Y0253756D01*
X0545422Y0253987D02*
X0553822Y0253987D01*
X0553822Y0249587D01*
X0545422Y0249587D01*
X0545422Y0253987D01*
X0548178Y0256280D02*
X0548178Y0259893D01*
X0553428Y0259893D01*
X0553428Y0256280D01*
X0548178Y0256280D01*
X0553428Y0256280D02*
X0553822Y0256280D01*
X0553822Y0259893D01*
X0553428Y0259893D01*
X0559484Y0260429D02*
X0559484Y0275429D01*
X0544484Y0275429D01*
X0544484Y0260429D01*
X0559484Y0260429D01*
X0560414Y0261761D02*
X0560414Y0270161D01*
X0564814Y0270161D01*
X0564814Y0261761D01*
X0560414Y0261761D01*
X0542929Y0262811D02*
X0542929Y0267535D01*
X0538205Y0272260D02*
X0533480Y0272260D01*
X0582299Y0264780D02*
X0605921Y0264780D01*
X0621044Y0260318D02*
X0625444Y0260318D01*
X0625444Y0251918D01*
X0621044Y0251918D01*
X0621044Y0260318D01*
X0626414Y0260289D02*
X0634814Y0260289D01*
X0634814Y0255889D01*
X0626414Y0255889D01*
X0626414Y0260289D01*
X0626414Y0260810D02*
X0626414Y0265210D01*
X0634814Y0265210D01*
X0634814Y0260810D01*
X0626414Y0260810D01*
X0639379Y0271377D02*
X0639379Y0273633D01*
X0641635Y0273633D01*
X0666257Y0273633D02*
X0668513Y0273633D01*
X0668513Y0271377D01*
X0700560Y0273733D02*
X0700560Y0260733D01*
X0719560Y0260733D01*
X0719560Y0273733D01*
X0700560Y0273733D01*
X0700752Y0281902D02*
X0700752Y0294902D01*
X0719752Y0294902D01*
X0719752Y0281902D01*
X0700752Y0281902D01*
X0683394Y0280366D02*
X0683394Y0288366D01*
X0669394Y0288366D01*
X0669394Y0280366D01*
X0683394Y0280366D01*
X0666322Y0282855D02*
X0666322Y0287255D01*
X0657922Y0287255D01*
X0657922Y0282855D01*
X0666322Y0282855D01*
X0665764Y0290173D02*
X0669307Y0290173D01*
X0669307Y0296079D01*
X0671800Y0295257D02*
X0671800Y0299657D01*
X0680200Y0299657D01*
X0680200Y0295257D01*
X0671800Y0295257D01*
X0671800Y0293751D02*
X0671800Y0289351D01*
X0680200Y0289351D01*
X0680200Y0293751D01*
X0671800Y0293751D01*
X0664780Y0298244D02*
X0662024Y0298244D01*
X0657496Y0296079D02*
X0657496Y0290173D01*
X0661039Y0290173D01*
X0655043Y0290474D02*
X0655043Y0282074D01*
X0650643Y0282074D01*
X0650643Y0290474D01*
X0655043Y0290474D01*
X0655043Y0291074D02*
X0650643Y0291074D01*
X0650643Y0299474D01*
X0655043Y0299474D01*
X0655043Y0291074D01*
X0649618Y0291074D02*
X0645218Y0291074D01*
X0645218Y0299474D01*
X0649618Y0299474D01*
X0649618Y0291074D01*
X0649618Y0290474D02*
X0649618Y0282074D01*
X0645218Y0282074D01*
X0645218Y0290474D01*
X0649618Y0290474D01*
X0644299Y0290474D02*
X0644299Y0282074D01*
X0639899Y0282074D01*
X0639899Y0290474D01*
X0644299Y0290474D01*
X0644299Y0291074D02*
X0639899Y0291074D01*
X0639899Y0299474D01*
X0644299Y0299474D01*
X0644299Y0291074D01*
X0622476Y0291198D02*
X0622476Y0299198D01*
X0608476Y0299198D01*
X0608476Y0291198D01*
X0622476Y0291198D01*
X0622092Y0289262D02*
X0617692Y0289262D01*
X0617692Y0280862D01*
X0622092Y0280862D01*
X0622092Y0289262D01*
X0613345Y0289260D02*
X0608945Y0289260D01*
X0608945Y0280860D01*
X0613345Y0280860D01*
X0613345Y0289260D01*
X0607654Y0289307D02*
X0587654Y0289307D01*
X0587654Y0299307D01*
X0607654Y0299307D01*
X0607654Y0289307D01*
X0605921Y0288402D02*
X0582299Y0288402D01*
X0581674Y0289320D02*
X0581674Y0297720D01*
X0586074Y0297720D01*
X0586074Y0289320D01*
X0581674Y0289320D01*
X0626015Y0279393D02*
X0636015Y0279393D01*
X0636015Y0299393D01*
X0626015Y0299393D01*
X0626015Y0279393D01*
X0732171Y0294135D02*
X0732171Y0302535D01*
X0736571Y0302535D01*
X0736571Y0294135D01*
X0732171Y0294135D01*
X0737585Y0294135D02*
X0737585Y0302535D01*
X0741985Y0302535D01*
X0741985Y0294135D01*
X0737585Y0294135D01*
X0742998Y0294135D02*
X0747398Y0294135D01*
X0747398Y0302535D01*
X0742998Y0302535D01*
X0742998Y0294135D01*
X0748411Y0294135D02*
X0752811Y0294135D01*
X0752811Y0302535D01*
X0748411Y0302535D01*
X0748411Y0294135D01*
X0747199Y0264807D02*
X0755599Y0264807D01*
X0755599Y0260407D01*
X0747199Y0260407D01*
X0747199Y0264807D01*
X0744399Y0259717D02*
X0758399Y0259717D01*
X0758399Y0251717D01*
X0744399Y0251717D01*
X0744399Y0259717D01*
X0668513Y0246755D02*
X0668513Y0244499D01*
X0666257Y0244499D01*
X0667570Y0236302D02*
X0667570Y0227902D01*
X0663170Y0227902D01*
X0663170Y0236302D01*
X0667570Y0236302D01*
X0668257Y0235483D02*
X0668257Y0231083D01*
X0676657Y0231083D01*
X0676657Y0235483D01*
X0668257Y0235483D01*
X0662452Y0236302D02*
X0662452Y0227902D01*
X0658052Y0227902D01*
X0658052Y0236302D01*
X0662452Y0236302D01*
X0584031Y0224147D02*
X0584031Y0221947D01*
X0571901Y0241288D02*
X0567501Y0241288D01*
X0567501Y0249688D01*
X0571901Y0249688D01*
X0571901Y0241288D01*
X0562024Y0238008D02*
X0556906Y0238008D01*
X0550641Y0239320D02*
X0546241Y0239320D01*
X0546241Y0247720D01*
X0550641Y0247720D01*
X0550641Y0239320D01*
X0556906Y0249819D02*
X0562024Y0249819D01*
X0592339Y0199425D02*
X0598244Y0199425D01*
X0600409Y0194898D02*
X0600409Y0192142D01*
X0604477Y0192176D02*
X0612877Y0192176D01*
X0612877Y0187776D01*
X0604477Y0187776D01*
X0604477Y0192176D01*
X0604477Y0194076D02*
X0604477Y0198476D01*
X0612877Y0198476D01*
X0612877Y0194076D01*
X0604477Y0194076D01*
X0614713Y0194145D02*
X0614713Y0189745D01*
X0623113Y0189745D01*
X0623113Y0194145D01*
X0614713Y0194145D01*
X0614713Y0195650D02*
X0614713Y0200050D01*
X0623113Y0200050D01*
X0623113Y0195650D01*
X0614713Y0195650D01*
X0592339Y0195882D02*
X0592339Y0199425D01*
X0584424Y0195013D02*
X0584424Y0192813D01*
X0592339Y0191157D02*
X0592339Y0187614D01*
X0598244Y0187614D01*
X0598047Y0182890D02*
X0605921Y0182890D01*
X0605921Y0182102D01*
X0598047Y0182102D02*
X0598047Y0182890D01*
X0586155Y0182554D02*
X0583955Y0182554D01*
X0598047Y0174228D02*
X0598047Y0173441D01*
X0604740Y0173441D01*
X0538205Y0184071D02*
X0533480Y0184071D01*
X0542929Y0188795D02*
X0542929Y0193520D01*
D15*
X0578124Y0188313D02*
X0578124Y0199513D01*
X0581524Y0199513D01*
X0615445Y0202882D02*
X0621594Y0202882D01*
X0643235Y0203743D02*
X0643235Y0207143D01*
X0654435Y0207143D01*
X0654435Y0203743D01*
X0672654Y0201394D02*
X0688008Y0201394D01*
X0688008Y0191157D01*
X0672654Y0191157D01*
X0672654Y0201394D01*
X0621594Y0214083D02*
X0615445Y0214083D01*
X0617520Y0213980D02*
X0617522Y0213918D01*
X0617528Y0213857D01*
X0617537Y0213796D01*
X0617550Y0213736D01*
X0617567Y0213677D01*
X0617588Y0213619D01*
X0617612Y0213562D01*
X0617639Y0213507D01*
X0617670Y0213454D01*
X0617704Y0213402D01*
X0617741Y0213353D01*
X0617781Y0213306D01*
X0617824Y0213262D01*
X0617869Y0213221D01*
X0617917Y0213182D01*
X0617968Y0213146D01*
X0618020Y0213114D01*
X0618074Y0213085D01*
X0618130Y0213059D01*
X0618188Y0213037D01*
X0618246Y0213018D01*
X0618306Y0213003D01*
X0618367Y0212992D01*
X0618428Y0212984D01*
X0618489Y0212980D01*
X0618551Y0212980D01*
X0618612Y0212984D01*
X0618673Y0212992D01*
X0618734Y0213003D01*
X0618794Y0213018D01*
X0618852Y0213037D01*
X0618910Y0213059D01*
X0618966Y0213085D01*
X0619020Y0213114D01*
X0619072Y0213146D01*
X0619123Y0213182D01*
X0619171Y0213221D01*
X0619216Y0213262D01*
X0619259Y0213306D01*
X0619299Y0213353D01*
X0619336Y0213402D01*
X0619370Y0213454D01*
X0619401Y0213507D01*
X0619428Y0213562D01*
X0619452Y0213619D01*
X0619473Y0213677D01*
X0619490Y0213736D01*
X0619503Y0213796D01*
X0619512Y0213857D01*
X0619518Y0213918D01*
X0619520Y0213980D01*
X0581131Y0217447D02*
X0577731Y0217447D01*
X0577731Y0228647D01*
X0581131Y0228647D01*
X0615058Y0232218D02*
X0621208Y0232218D01*
X0672063Y0229150D02*
X0694110Y0229150D01*
X0688291Y0226228D02*
X0677409Y0226228D01*
X0677409Y0222228D01*
X0688291Y0222228D01*
X0688291Y0226228D01*
X0694110Y0219307D02*
X0672063Y0219307D01*
X0621208Y0243419D02*
X0615058Y0243419D01*
X0617133Y0243316D02*
X0617135Y0243254D01*
X0617141Y0243193D01*
X0617150Y0243132D01*
X0617163Y0243072D01*
X0617180Y0243013D01*
X0617201Y0242955D01*
X0617225Y0242898D01*
X0617252Y0242843D01*
X0617283Y0242790D01*
X0617317Y0242738D01*
X0617354Y0242689D01*
X0617394Y0242642D01*
X0617437Y0242598D01*
X0617482Y0242557D01*
X0617530Y0242518D01*
X0617581Y0242482D01*
X0617633Y0242450D01*
X0617687Y0242421D01*
X0617743Y0242395D01*
X0617801Y0242373D01*
X0617859Y0242354D01*
X0617919Y0242339D01*
X0617980Y0242328D01*
X0618041Y0242320D01*
X0618102Y0242316D01*
X0618164Y0242316D01*
X0618225Y0242320D01*
X0618286Y0242328D01*
X0618347Y0242339D01*
X0618407Y0242354D01*
X0618465Y0242373D01*
X0618523Y0242395D01*
X0618579Y0242421D01*
X0618633Y0242450D01*
X0618685Y0242482D01*
X0618736Y0242518D01*
X0618784Y0242557D01*
X0618829Y0242598D01*
X0618872Y0242642D01*
X0618912Y0242689D01*
X0618949Y0242738D01*
X0618983Y0242790D01*
X0619014Y0242843D01*
X0619041Y0242898D01*
X0619065Y0242955D01*
X0619086Y0243013D01*
X0619103Y0243072D01*
X0619116Y0243132D01*
X0619125Y0243193D01*
X0619131Y0243254D01*
X0619133Y0243316D01*
X0730604Y0265366D02*
X0731604Y0265366D01*
X0735604Y0265366D02*
X0736604Y0265366D01*
X0740604Y0265366D02*
X0741604Y0265366D01*
X0745604Y0265366D02*
X0746604Y0265366D01*
X0750904Y0269666D02*
X0750904Y0270666D01*
X0750904Y0274666D02*
X0750904Y0275666D01*
X0750904Y0279666D02*
X0750904Y0280666D01*
X0750904Y0284666D02*
X0750904Y0285666D01*
X0746604Y0289966D02*
X0745604Y0289966D01*
X0741604Y0289966D02*
X0735604Y0289966D01*
X0731604Y0289966D02*
X0730604Y0289966D01*
X0726304Y0285666D02*
X0726304Y0279666D01*
X0726304Y0275666D02*
X0726304Y0274666D01*
X0726304Y0270666D02*
X0726304Y0269666D01*
X0581524Y0188313D02*
X0578124Y0188313D01*
X0579455Y0179654D02*
X0579455Y0176254D01*
X0590655Y0176254D01*
X0590655Y0179654D01*
X0637653Y0178867D02*
X0638992Y0180206D01*
X0640331Y0178867D01*
X0686236Y0180134D02*
X0686236Y0180528D01*
X0689583Y0180528D01*
X0694701Y0180528D02*
X0698047Y0180528D01*
X0698047Y0180134D01*
X0698047Y0169110D02*
X0698047Y0168717D01*
X0694701Y0168717D01*
X0689583Y0168717D02*
X0686236Y0168717D01*
X0686236Y0169110D01*
X0656387Y0162811D02*
X0655048Y0161472D01*
X0656387Y0162811D02*
X0655048Y0164150D01*
X0622936Y0164150D02*
X0621597Y0162811D01*
X0622936Y0161472D01*
X0637600Y0146943D02*
X0637879Y0146664D01*
X0639549Y0146664D01*
X0638992Y0146108D01*
X0638714Y0146386D01*
X0638992Y0145551D02*
X0640384Y0146943D01*
X0637600Y0146943D01*
X0637879Y0146664D02*
X0638992Y0145551D01*
X0686236Y0148244D02*
X0686236Y0148638D01*
X0686236Y0148244D02*
X0689583Y0148244D01*
X0694701Y0148244D02*
X0698047Y0148244D01*
X0698047Y0148638D01*
X0698047Y0159661D02*
X0698047Y0160055D01*
X0694701Y0160055D01*
X0689583Y0160055D02*
X0686236Y0160055D01*
X0686236Y0159661D01*
X0669061Y0134612D02*
X0669061Y0133012D01*
X0669061Y0134612D02*
X0667461Y0134612D01*
X0614461Y0134612D02*
X0612861Y0134612D01*
X0612861Y0133012D01*
X0703165Y0116748D02*
X0703165Y0116354D01*
X0703165Y0116748D02*
X0706512Y0116748D01*
X0711630Y0116748D02*
X0714976Y0116748D01*
X0714976Y0116354D01*
X0714976Y0105331D02*
X0714976Y0104937D01*
X0711630Y0104937D01*
X0706512Y0104937D02*
X0703165Y0104937D01*
X0703165Y0105331D01*
X0669061Y0080012D02*
X0669061Y0078412D01*
X0667461Y0078412D01*
X0614461Y0078412D02*
X0612861Y0078412D01*
X0612861Y0080012D01*
D16*
X0640363Y0245483D03*
D17*
X0684791Y0224228D03*
D18*
X0616945Y0130528D03*
D19*
X0606315Y0173441D03*
D20*
X0686236Y0181315D03*
X0686236Y0160843D03*
X0703165Y0117535D03*
M02*
