G75*
%MOIN*%
%OFA0B0*%
%FSLAX25Y25*%
%IPPOS*%
%LPD*%
%AMOC8*
5,1,8,0,0,1.08239X$1,22.5*
%
%ADD10C,0.00700*%
%ADD11C,0.00500*%
D10*
X0072888Y0091507D02*
X0074686Y0091507D01*
X0073157Y0093306D01*
X0073697Y0094745D02*
X0073759Y0094743D01*
X0073821Y0094738D01*
X0073883Y0094728D01*
X0073944Y0094715D01*
X0074004Y0094699D01*
X0074063Y0094679D01*
X0074120Y0094655D01*
X0074176Y0094628D01*
X0074231Y0094598D01*
X0074283Y0094564D01*
X0074334Y0094527D01*
X0074382Y0094488D01*
X0074427Y0094445D01*
X0074470Y0094400D01*
X0074511Y0094353D01*
X0074548Y0094303D01*
X0074582Y0094251D01*
X0074613Y0094197D01*
X0074641Y0094141D01*
X0074665Y0094084D01*
X0074686Y0094025D01*
X0073158Y0093306D02*
X0073117Y0093348D01*
X0073078Y0093392D01*
X0073043Y0093439D01*
X0073012Y0093488D01*
X0072983Y0093540D01*
X0072958Y0093593D01*
X0072937Y0093647D01*
X0072919Y0093703D01*
X0072906Y0093760D01*
X0072896Y0093818D01*
X0072890Y0093876D01*
X0072888Y0093935D01*
X0072890Y0093990D01*
X0072896Y0094045D01*
X0072905Y0094100D01*
X0072918Y0094153D01*
X0072935Y0094206D01*
X0072955Y0094257D01*
X0072979Y0094307D01*
X0073006Y0094355D01*
X0073036Y0094402D01*
X0073069Y0094446D01*
X0073106Y0094487D01*
X0073145Y0094526D01*
X0073186Y0094563D01*
X0073230Y0094596D01*
X0073277Y0094626D01*
X0073325Y0094653D01*
X0073375Y0094677D01*
X0073426Y0094697D01*
X0073479Y0094714D01*
X0073532Y0094727D01*
X0073587Y0094736D01*
X0073642Y0094742D01*
X0073697Y0094744D01*
X0074531Y0097525D02*
X0074529Y0097466D01*
X0074523Y0097408D01*
X0074514Y0097350D01*
X0074500Y0097292D01*
X0074483Y0097236D01*
X0074463Y0097181D01*
X0074438Y0097127D01*
X0074411Y0097076D01*
X0074379Y0097026D01*
X0074345Y0096978D01*
X0074308Y0096932D01*
X0074268Y0096889D01*
X0074225Y0096849D01*
X0074179Y0096812D01*
X0074131Y0096778D01*
X0074082Y0096746D01*
X0074030Y0096719D01*
X0073976Y0096694D01*
X0073921Y0096674D01*
X0073865Y0096657D01*
X0073807Y0096643D01*
X0073749Y0096634D01*
X0073691Y0096628D01*
X0073632Y0096626D01*
X0073573Y0096628D01*
X0073515Y0096634D01*
X0073457Y0096643D01*
X0073399Y0096657D01*
X0073343Y0096674D01*
X0073288Y0096694D01*
X0073234Y0096719D01*
X0073183Y0096746D01*
X0073133Y0096778D01*
X0073085Y0096812D01*
X0073039Y0096849D01*
X0072996Y0096889D01*
X0072956Y0096932D01*
X0072919Y0096978D01*
X0072885Y0097026D01*
X0072853Y0097076D01*
X0072826Y0097127D01*
X0072801Y0097181D01*
X0072781Y0097236D01*
X0072764Y0097292D01*
X0072750Y0097350D01*
X0072741Y0097408D01*
X0072735Y0097466D01*
X0072733Y0097525D01*
X0072733Y0098963D01*
X0072735Y0099022D01*
X0072741Y0099080D01*
X0072750Y0099138D01*
X0072764Y0099196D01*
X0072781Y0099252D01*
X0072801Y0099307D01*
X0072826Y0099361D01*
X0072853Y0099413D01*
X0072885Y0099462D01*
X0072919Y0099510D01*
X0072956Y0099556D01*
X0072996Y0099599D01*
X0073039Y0099639D01*
X0073085Y0099676D01*
X0073133Y0099710D01*
X0073183Y0099742D01*
X0073234Y0099769D01*
X0073288Y0099794D01*
X0073343Y0099814D01*
X0073399Y0099831D01*
X0073457Y0099845D01*
X0073515Y0099854D01*
X0073573Y0099860D01*
X0073632Y0099862D01*
X0073691Y0099860D01*
X0073749Y0099854D01*
X0073807Y0099845D01*
X0073865Y0099831D01*
X0073921Y0099814D01*
X0073976Y0099794D01*
X0074030Y0099769D01*
X0074082Y0099742D01*
X0074131Y0099710D01*
X0074179Y0099676D01*
X0074225Y0099639D01*
X0074268Y0099599D01*
X0074308Y0099556D01*
X0074345Y0099510D01*
X0074379Y0099462D01*
X0074411Y0099413D01*
X0074438Y0099361D01*
X0074463Y0099307D01*
X0074483Y0099252D01*
X0074500Y0099196D01*
X0074514Y0099138D01*
X0074523Y0099080D01*
X0074529Y0099022D01*
X0074531Y0098963D01*
X0074532Y0098963D02*
X0074532Y0097525D01*
X0070870Y0098424D02*
X0069072Y0098424D01*
X0069072Y0099863D02*
X0069072Y0096626D01*
X0070870Y0096626D02*
X0070870Y0099863D01*
X0072106Y0101744D02*
X0073904Y0101744D01*
X0073005Y0101744D02*
X0073005Y0104981D01*
X0073904Y0104261D01*
X0075249Y0104981D02*
X0075249Y0105700D01*
X0078602Y0104981D02*
X0078602Y0101744D01*
X0080400Y0104981D01*
X0080400Y0101744D01*
X0080083Y0099863D02*
X0078284Y0096626D01*
X0078284Y0099863D01*
X0080083Y0099863D02*
X0080083Y0096626D01*
X0081909Y0096626D02*
X0082628Y0098064D01*
X0082808Y0098064D02*
X0083707Y0098064D01*
X0082808Y0098064D02*
X0082749Y0098066D01*
X0082691Y0098072D01*
X0082633Y0098081D01*
X0082575Y0098095D01*
X0082519Y0098112D01*
X0082464Y0098132D01*
X0082410Y0098157D01*
X0082359Y0098184D01*
X0082309Y0098216D01*
X0082261Y0098250D01*
X0082215Y0098287D01*
X0082172Y0098327D01*
X0082132Y0098370D01*
X0082095Y0098416D01*
X0082061Y0098464D01*
X0082029Y0098514D01*
X0082002Y0098565D01*
X0081977Y0098619D01*
X0081957Y0098674D01*
X0081940Y0098730D01*
X0081926Y0098788D01*
X0081917Y0098846D01*
X0081911Y0098904D01*
X0081909Y0098963D01*
X0081911Y0099022D01*
X0081917Y0099080D01*
X0081926Y0099138D01*
X0081940Y0099196D01*
X0081957Y0099252D01*
X0081977Y0099307D01*
X0082002Y0099361D01*
X0082029Y0099413D01*
X0082061Y0099462D01*
X0082095Y0099510D01*
X0082132Y0099556D01*
X0082172Y0099599D01*
X0082215Y0099639D01*
X0082261Y0099676D01*
X0082309Y0099710D01*
X0082359Y0099742D01*
X0082410Y0099769D01*
X0082464Y0099794D01*
X0082519Y0099814D01*
X0082575Y0099831D01*
X0082633Y0099845D01*
X0082691Y0099854D01*
X0082749Y0099860D01*
X0082808Y0099862D01*
X0082808Y0099863D02*
X0083707Y0099863D01*
X0083707Y0096626D01*
X0085365Y0096626D02*
X0086804Y0096626D01*
X0086804Y0099863D01*
X0085365Y0099863D01*
X0085725Y0098424D02*
X0086804Y0098424D01*
X0088464Y0099863D02*
X0089183Y0099863D01*
X0089183Y0099862D02*
X0089234Y0099860D01*
X0089285Y0099855D01*
X0089336Y0099846D01*
X0089386Y0099833D01*
X0089434Y0099817D01*
X0089482Y0099797D01*
X0089528Y0099774D01*
X0089572Y0099748D01*
X0089614Y0099719D01*
X0089654Y0099686D01*
X0089691Y0099651D01*
X0089726Y0099614D01*
X0089759Y0099574D01*
X0089788Y0099532D01*
X0089814Y0099488D01*
X0089837Y0099442D01*
X0089857Y0099394D01*
X0089873Y0099346D01*
X0089886Y0099296D01*
X0089895Y0099245D01*
X0089900Y0099194D01*
X0089902Y0099143D01*
X0089903Y0099143D02*
X0089903Y0097345D01*
X0089902Y0097345D02*
X0089900Y0097294D01*
X0089895Y0097243D01*
X0089886Y0097192D01*
X0089873Y0097142D01*
X0089857Y0097094D01*
X0089837Y0097046D01*
X0089814Y0097000D01*
X0089788Y0096956D01*
X0089759Y0096914D01*
X0089726Y0096874D01*
X0089691Y0096837D01*
X0089654Y0096802D01*
X0089614Y0096769D01*
X0089572Y0096740D01*
X0089528Y0096714D01*
X0089482Y0096691D01*
X0089434Y0096671D01*
X0089386Y0096655D01*
X0089336Y0096642D01*
X0089285Y0096633D01*
X0089234Y0096628D01*
X0089183Y0096626D01*
X0088464Y0096626D01*
X0086981Y0101744D02*
X0086621Y0101744D01*
X0086570Y0101746D01*
X0086519Y0101751D01*
X0086468Y0101760D01*
X0086418Y0101773D01*
X0086370Y0101789D01*
X0086322Y0101809D01*
X0086276Y0101832D01*
X0086232Y0101858D01*
X0086190Y0101887D01*
X0086150Y0101920D01*
X0086113Y0101955D01*
X0086078Y0101992D01*
X0086045Y0102032D01*
X0086016Y0102074D01*
X0085990Y0102118D01*
X0085967Y0102164D01*
X0085947Y0102212D01*
X0085931Y0102260D01*
X0085918Y0102310D01*
X0085909Y0102361D01*
X0085904Y0102412D01*
X0085902Y0102463D01*
X0085902Y0104981D01*
X0083859Y0104981D02*
X0082960Y0104981D01*
X0083859Y0104981D02*
X0083859Y0101744D01*
X0083859Y0103182D02*
X0082960Y0103182D01*
X0082960Y0103183D02*
X0082901Y0103185D01*
X0082843Y0103191D01*
X0082785Y0103200D01*
X0082727Y0103214D01*
X0082671Y0103231D01*
X0082616Y0103251D01*
X0082562Y0103276D01*
X0082511Y0103303D01*
X0082461Y0103335D01*
X0082413Y0103369D01*
X0082367Y0103406D01*
X0082324Y0103446D01*
X0082284Y0103489D01*
X0082247Y0103535D01*
X0082213Y0103583D01*
X0082181Y0103633D01*
X0082154Y0103684D01*
X0082129Y0103738D01*
X0082109Y0103793D01*
X0082092Y0103849D01*
X0082078Y0103907D01*
X0082069Y0103965D01*
X0082063Y0104023D01*
X0082061Y0104082D01*
X0082063Y0104141D01*
X0082069Y0104199D01*
X0082078Y0104257D01*
X0082092Y0104315D01*
X0082109Y0104371D01*
X0082129Y0104426D01*
X0082154Y0104480D01*
X0082181Y0104532D01*
X0082213Y0104581D01*
X0082247Y0104629D01*
X0082284Y0104675D01*
X0082324Y0104718D01*
X0082367Y0104758D01*
X0082413Y0104795D01*
X0082461Y0104829D01*
X0082511Y0104861D01*
X0082562Y0104888D01*
X0082616Y0104913D01*
X0082671Y0104933D01*
X0082727Y0104950D01*
X0082785Y0104964D01*
X0082843Y0104973D01*
X0082901Y0104979D01*
X0082960Y0104981D01*
X0078747Y0094744D02*
X0078747Y0091507D01*
X0077848Y0091507D02*
X0079647Y0091507D01*
X0081936Y0091507D02*
X0081217Y0093665D01*
X0082656Y0093665D02*
X0081936Y0091507D01*
X0079647Y0094025D02*
X0078747Y0094744D01*
X0076357Y0091687D02*
X0076177Y0091687D01*
X0076177Y0091507D01*
X0076357Y0091507D01*
X0076357Y0091687D01*
X0067079Y0096626D02*
X0067079Y0099863D01*
X0068563Y0103182D02*
X0068563Y0104082D01*
X0068565Y0104141D01*
X0068571Y0104199D01*
X0068580Y0104257D01*
X0068594Y0104315D01*
X0068611Y0104371D01*
X0068631Y0104426D01*
X0068656Y0104480D01*
X0068683Y0104532D01*
X0068715Y0104581D01*
X0068749Y0104629D01*
X0068786Y0104675D01*
X0068826Y0104718D01*
X0068869Y0104758D01*
X0068915Y0104795D01*
X0068963Y0104829D01*
X0069013Y0104861D01*
X0069064Y0104888D01*
X0069118Y0104913D01*
X0069173Y0104933D01*
X0069229Y0104950D01*
X0069287Y0104964D01*
X0069345Y0104973D01*
X0069403Y0104979D01*
X0069462Y0104981D01*
X0069521Y0104979D01*
X0069579Y0104973D01*
X0069637Y0104964D01*
X0069695Y0104950D01*
X0069751Y0104933D01*
X0069806Y0104913D01*
X0069860Y0104888D01*
X0069912Y0104861D01*
X0069961Y0104829D01*
X0070009Y0104795D01*
X0070055Y0104758D01*
X0070098Y0104718D01*
X0070138Y0104675D01*
X0070175Y0104629D01*
X0070209Y0104581D01*
X0070241Y0104532D01*
X0070268Y0104480D01*
X0070293Y0104426D01*
X0070313Y0104371D01*
X0070330Y0104315D01*
X0070344Y0104257D01*
X0070353Y0104199D01*
X0070359Y0104141D01*
X0070361Y0104082D01*
X0070361Y0103902D01*
X0070359Y0103851D01*
X0070354Y0103800D01*
X0070345Y0103749D01*
X0070332Y0103699D01*
X0070316Y0103651D01*
X0070296Y0103603D01*
X0070273Y0103557D01*
X0070247Y0103513D01*
X0070218Y0103471D01*
X0070185Y0103431D01*
X0070150Y0103394D01*
X0070113Y0103359D01*
X0070073Y0103326D01*
X0070031Y0103297D01*
X0069987Y0103271D01*
X0069941Y0103248D01*
X0069893Y0103228D01*
X0069845Y0103212D01*
X0069795Y0103199D01*
X0069744Y0103190D01*
X0069693Y0103185D01*
X0069642Y0103183D01*
X0069642Y0103182D02*
X0068563Y0103182D01*
X0068562Y0103182D02*
X0068564Y0103107D01*
X0068570Y0103032D01*
X0068580Y0102957D01*
X0068593Y0102883D01*
X0068611Y0102810D01*
X0068632Y0102737D01*
X0068658Y0102666D01*
X0068686Y0102597D01*
X0068719Y0102529D01*
X0068755Y0102463D01*
X0068794Y0102398D01*
X0068837Y0102336D01*
X0068883Y0102276D01*
X0068932Y0102219D01*
X0068983Y0102164D01*
X0069038Y0102113D01*
X0069095Y0102064D01*
X0069155Y0102018D01*
X0069217Y0101975D01*
X0069282Y0101936D01*
X0069348Y0101900D01*
X0069416Y0101867D01*
X0069485Y0101839D01*
X0069556Y0101813D01*
X0069629Y0101792D01*
X0069702Y0101774D01*
X0069776Y0101761D01*
X0069851Y0101751D01*
X0069926Y0101745D01*
X0070001Y0101743D01*
X0067079Y0096626D02*
X0065641Y0096626D01*
X0064818Y0120208D02*
X0063019Y0120208D01*
X0063919Y0120208D02*
X0063919Y0123445D01*
X0064818Y0122726D01*
X0066658Y0123445D02*
X0066658Y0120928D01*
X0066660Y0120877D01*
X0066665Y0120826D01*
X0066674Y0120775D01*
X0066687Y0120725D01*
X0066703Y0120677D01*
X0066723Y0120629D01*
X0066746Y0120583D01*
X0066772Y0120539D01*
X0066801Y0120497D01*
X0066834Y0120457D01*
X0066869Y0120420D01*
X0066906Y0120385D01*
X0066946Y0120352D01*
X0066988Y0120323D01*
X0067032Y0120297D01*
X0067078Y0120274D01*
X0067126Y0120254D01*
X0067174Y0120238D01*
X0067224Y0120225D01*
X0067275Y0120216D01*
X0067326Y0120211D01*
X0067377Y0120209D01*
X0067377Y0120208D02*
X0067737Y0120208D01*
X0104510Y0108818D02*
X0106038Y0107019D01*
X0104240Y0107019D01*
X0106038Y0109537D02*
X0106017Y0109596D01*
X0105993Y0109653D01*
X0105965Y0109709D01*
X0105934Y0109763D01*
X0105900Y0109815D01*
X0105863Y0109865D01*
X0105822Y0109912D01*
X0105779Y0109957D01*
X0105734Y0110000D01*
X0105686Y0110039D01*
X0105635Y0110076D01*
X0105583Y0110110D01*
X0105528Y0110140D01*
X0105472Y0110167D01*
X0105415Y0110191D01*
X0105356Y0110211D01*
X0105296Y0110227D01*
X0105235Y0110240D01*
X0105173Y0110250D01*
X0105111Y0110255D01*
X0105049Y0110257D01*
X0105049Y0110256D02*
X0104994Y0110254D01*
X0104939Y0110248D01*
X0104884Y0110239D01*
X0104831Y0110226D01*
X0104778Y0110209D01*
X0104727Y0110189D01*
X0104677Y0110165D01*
X0104629Y0110138D01*
X0104582Y0110108D01*
X0104538Y0110075D01*
X0104497Y0110038D01*
X0104458Y0109999D01*
X0104421Y0109958D01*
X0104388Y0109914D01*
X0104358Y0109867D01*
X0104331Y0109819D01*
X0104307Y0109769D01*
X0104287Y0109718D01*
X0104270Y0109665D01*
X0104257Y0109612D01*
X0104248Y0109557D01*
X0104242Y0109502D01*
X0104240Y0109447D01*
X0104242Y0109388D01*
X0104248Y0109330D01*
X0104258Y0109272D01*
X0104271Y0109215D01*
X0104289Y0109159D01*
X0104310Y0109105D01*
X0104335Y0109052D01*
X0104364Y0109000D01*
X0104395Y0108951D01*
X0104430Y0108904D01*
X0104469Y0108860D01*
X0104510Y0108818D01*
X0107878Y0107739D02*
X0107878Y0110256D01*
X0107878Y0107739D02*
X0107880Y0107688D01*
X0107885Y0107637D01*
X0107894Y0107586D01*
X0107907Y0107536D01*
X0107923Y0107488D01*
X0107943Y0107440D01*
X0107966Y0107394D01*
X0107992Y0107350D01*
X0108021Y0107308D01*
X0108054Y0107268D01*
X0108089Y0107231D01*
X0108126Y0107196D01*
X0108166Y0107163D01*
X0108208Y0107134D01*
X0108252Y0107108D01*
X0108298Y0107085D01*
X0108346Y0107065D01*
X0108394Y0107049D01*
X0108444Y0107036D01*
X0108495Y0107027D01*
X0108546Y0107022D01*
X0108597Y0107020D01*
X0108597Y0107019D02*
X0108957Y0107019D01*
D11*
X0062417Y0108087D02*
X0062417Y0088795D01*
X0092732Y0088795D01*
X0092732Y0108087D01*
X0062417Y0108087D01*
X0060961Y0127024D02*
X0056630Y0127024D01*
X0056630Y0138362D01*
X0060961Y0138362D01*
X0060961Y0137024D02*
X0057811Y0137024D01*
X0057811Y0128362D01*
X0060961Y0128362D01*
X0070409Y0128362D02*
X0073559Y0128362D01*
X0073559Y0137024D01*
X0070409Y0137024D01*
X0070409Y0138362D02*
X0074740Y0138362D01*
X0074740Y0127024D01*
X0070409Y0127024D01*
X0070395Y0134875D02*
X0070397Y0134935D01*
X0070403Y0134994D01*
X0070413Y0135053D01*
X0070427Y0135111D01*
X0070444Y0135168D01*
X0070466Y0135224D01*
X0070491Y0135278D01*
X0070520Y0135331D01*
X0070552Y0135381D01*
X0070587Y0135429D01*
X0070626Y0135475D01*
X0070667Y0135518D01*
X0070712Y0135558D01*
X0070759Y0135595D01*
X0070808Y0135629D01*
X0070859Y0135659D01*
X0070913Y0135686D01*
X0070968Y0135709D01*
X0071024Y0135729D01*
X0071082Y0135745D01*
X0071140Y0135757D01*
X0071200Y0135765D01*
X0071259Y0135769D01*
X0071319Y0135769D01*
X0071378Y0135765D01*
X0071438Y0135757D01*
X0071496Y0135745D01*
X0071554Y0135729D01*
X0071610Y0135709D01*
X0071665Y0135686D01*
X0071719Y0135659D01*
X0071770Y0135629D01*
X0071819Y0135595D01*
X0071866Y0135558D01*
X0071911Y0135518D01*
X0071952Y0135475D01*
X0071991Y0135429D01*
X0072026Y0135381D01*
X0072058Y0135331D01*
X0072087Y0135278D01*
X0072112Y0135224D01*
X0072134Y0135168D01*
X0072151Y0135111D01*
X0072165Y0135053D01*
X0072175Y0134994D01*
X0072181Y0134935D01*
X0072183Y0134875D01*
X0072181Y0134815D01*
X0072175Y0134756D01*
X0072165Y0134697D01*
X0072151Y0134639D01*
X0072134Y0134582D01*
X0072112Y0134526D01*
X0072087Y0134472D01*
X0072058Y0134419D01*
X0072026Y0134369D01*
X0071991Y0134321D01*
X0071952Y0134275D01*
X0071911Y0134232D01*
X0071866Y0134192D01*
X0071819Y0134155D01*
X0071770Y0134121D01*
X0071719Y0134091D01*
X0071665Y0134064D01*
X0071610Y0134041D01*
X0071554Y0134021D01*
X0071496Y0134005D01*
X0071438Y0133993D01*
X0071378Y0133985D01*
X0071319Y0133981D01*
X0071259Y0133981D01*
X0071200Y0133985D01*
X0071140Y0133993D01*
X0071082Y0134005D01*
X0071024Y0134021D01*
X0070968Y0134041D01*
X0070913Y0134064D01*
X0070859Y0134091D01*
X0070808Y0134121D01*
X0070759Y0134155D01*
X0070712Y0134192D01*
X0070667Y0134232D01*
X0070626Y0134275D01*
X0070587Y0134321D01*
X0070552Y0134369D01*
X0070520Y0134419D01*
X0070491Y0134472D01*
X0070466Y0134526D01*
X0070444Y0134582D01*
X0070427Y0134639D01*
X0070413Y0134697D01*
X0070403Y0134756D01*
X0070397Y0134815D01*
X0070395Y0134875D01*
X0094701Y0125173D02*
X0094701Y0113835D01*
X0099031Y0113835D01*
X0099031Y0115173D02*
X0095882Y0115173D01*
X0095882Y0123835D01*
X0099031Y0123835D01*
X0099031Y0125173D02*
X0094701Y0125173D01*
X0116354Y0125173D02*
X0120685Y0125173D01*
X0120685Y0113835D01*
X0116354Y0113835D01*
X0116354Y0115173D02*
X0119504Y0115173D01*
X0119504Y0123835D01*
X0116354Y0123835D01*
X0116340Y0121686D02*
X0116342Y0121746D01*
X0116348Y0121805D01*
X0116358Y0121864D01*
X0116372Y0121922D01*
X0116389Y0121979D01*
X0116411Y0122035D01*
X0116436Y0122089D01*
X0116465Y0122142D01*
X0116497Y0122192D01*
X0116532Y0122240D01*
X0116571Y0122286D01*
X0116612Y0122329D01*
X0116657Y0122369D01*
X0116704Y0122406D01*
X0116753Y0122440D01*
X0116804Y0122470D01*
X0116858Y0122497D01*
X0116913Y0122520D01*
X0116969Y0122540D01*
X0117027Y0122556D01*
X0117085Y0122568D01*
X0117145Y0122576D01*
X0117204Y0122580D01*
X0117264Y0122580D01*
X0117323Y0122576D01*
X0117383Y0122568D01*
X0117441Y0122556D01*
X0117499Y0122540D01*
X0117555Y0122520D01*
X0117610Y0122497D01*
X0117664Y0122470D01*
X0117715Y0122440D01*
X0117764Y0122406D01*
X0117811Y0122369D01*
X0117856Y0122329D01*
X0117897Y0122286D01*
X0117936Y0122240D01*
X0117971Y0122192D01*
X0118003Y0122142D01*
X0118032Y0122089D01*
X0118057Y0122035D01*
X0118079Y0121979D01*
X0118096Y0121922D01*
X0118110Y0121864D01*
X0118120Y0121805D01*
X0118126Y0121746D01*
X0118128Y0121686D01*
X0118126Y0121626D01*
X0118120Y0121567D01*
X0118110Y0121508D01*
X0118096Y0121450D01*
X0118079Y0121393D01*
X0118057Y0121337D01*
X0118032Y0121283D01*
X0118003Y0121230D01*
X0117971Y0121180D01*
X0117936Y0121132D01*
X0117897Y0121086D01*
X0117856Y0121043D01*
X0117811Y0121003D01*
X0117764Y0120966D01*
X0117715Y0120932D01*
X0117664Y0120902D01*
X0117610Y0120875D01*
X0117555Y0120852D01*
X0117499Y0120832D01*
X0117441Y0120816D01*
X0117383Y0120804D01*
X0117323Y0120796D01*
X0117264Y0120792D01*
X0117204Y0120792D01*
X0117145Y0120796D01*
X0117085Y0120804D01*
X0117027Y0120816D01*
X0116969Y0120832D01*
X0116913Y0120852D01*
X0116858Y0120875D01*
X0116804Y0120902D01*
X0116753Y0120932D01*
X0116704Y0120966D01*
X0116657Y0121003D01*
X0116612Y0121043D01*
X0116571Y0121086D01*
X0116532Y0121132D01*
X0116497Y0121180D01*
X0116465Y0121230D01*
X0116436Y0121283D01*
X0116411Y0121337D01*
X0116389Y0121393D01*
X0116372Y0121450D01*
X0116358Y0121508D01*
X0116348Y0121567D01*
X0116342Y0121626D01*
X0116340Y0121686D01*
M02*
