G75*
%MOIN*%
%OFA0B0*%
%FSLAX25Y25*%
%IPPOS*%
%LPD*%
%AMOC8*
5,1,8,0,0,1.08239X$1,22.5*
%
%ADD10C,0.00400*%
%ADD11C,0.00500*%
D10*
X0006633Y0008858D02*
X0007299Y0010858D01*
X0007966Y0008858D01*
X0007799Y0009358D02*
X0006799Y0009358D01*
X0010004Y0009303D02*
X0010004Y0010414D01*
X0010005Y0010414D02*
X0010007Y0010455D01*
X0010013Y0010496D01*
X0010022Y0010536D01*
X0010035Y0010574D01*
X0010052Y0010612D01*
X0010072Y0010648D01*
X0010095Y0010682D01*
X0010121Y0010713D01*
X0010150Y0010742D01*
X0010181Y0010768D01*
X0010215Y0010791D01*
X0010251Y0010811D01*
X0010289Y0010828D01*
X0010327Y0010841D01*
X0010367Y0010850D01*
X0010408Y0010856D01*
X0010449Y0010858D01*
X0010893Y0010858D01*
X0010005Y0009303D02*
X0010007Y0009262D01*
X0010013Y0009221D01*
X0010022Y0009181D01*
X0010035Y0009143D01*
X0010052Y0009105D01*
X0010072Y0009069D01*
X0010095Y0009035D01*
X0010121Y0009004D01*
X0010150Y0008975D01*
X0010181Y0008949D01*
X0010215Y0008926D01*
X0010251Y0008906D01*
X0010289Y0008889D01*
X0010327Y0008876D01*
X0010367Y0008867D01*
X0010408Y0008861D01*
X0010449Y0008859D01*
X0010449Y0008858D02*
X0010893Y0008858D01*
X0022381Y0008858D02*
X0023047Y0010858D01*
X0023714Y0008858D01*
X0023547Y0009358D02*
X0022547Y0009358D01*
X0025752Y0009303D02*
X0025752Y0010414D01*
X0025753Y0010414D02*
X0025755Y0010455D01*
X0025761Y0010496D01*
X0025770Y0010536D01*
X0025783Y0010574D01*
X0025800Y0010612D01*
X0025820Y0010648D01*
X0025843Y0010682D01*
X0025869Y0010713D01*
X0025898Y0010742D01*
X0025929Y0010768D01*
X0025963Y0010791D01*
X0025999Y0010811D01*
X0026037Y0010828D01*
X0026075Y0010841D01*
X0026115Y0010850D01*
X0026156Y0010856D01*
X0026197Y0010858D01*
X0026641Y0010858D01*
X0025753Y0009303D02*
X0025755Y0009262D01*
X0025761Y0009221D01*
X0025770Y0009181D01*
X0025783Y0009143D01*
X0025800Y0009105D01*
X0025820Y0009069D01*
X0025843Y0009035D01*
X0025869Y0009004D01*
X0025898Y0008975D01*
X0025929Y0008949D01*
X0025963Y0008926D01*
X0025999Y0008906D01*
X0026037Y0008889D01*
X0026075Y0008876D01*
X0026115Y0008867D01*
X0026156Y0008861D01*
X0026197Y0008859D01*
X0026197Y0008858D02*
X0026641Y0008858D01*
X0038129Y0008858D02*
X0038795Y0010858D01*
X0039462Y0008858D01*
X0039295Y0009358D02*
X0038295Y0009358D01*
X0041500Y0009303D02*
X0041500Y0010414D01*
X0041501Y0010414D02*
X0041503Y0010455D01*
X0041509Y0010496D01*
X0041518Y0010536D01*
X0041531Y0010574D01*
X0041548Y0010612D01*
X0041568Y0010648D01*
X0041591Y0010682D01*
X0041617Y0010713D01*
X0041646Y0010742D01*
X0041677Y0010768D01*
X0041711Y0010791D01*
X0041747Y0010811D01*
X0041785Y0010828D01*
X0041823Y0010841D01*
X0041863Y0010850D01*
X0041904Y0010856D01*
X0041945Y0010858D01*
X0042389Y0010858D01*
X0041501Y0009303D02*
X0041503Y0009262D01*
X0041509Y0009221D01*
X0041518Y0009181D01*
X0041531Y0009143D01*
X0041548Y0009105D01*
X0041568Y0009069D01*
X0041591Y0009035D01*
X0041617Y0009004D01*
X0041646Y0008975D01*
X0041677Y0008949D01*
X0041711Y0008926D01*
X0041747Y0008906D01*
X0041785Y0008889D01*
X0041823Y0008876D01*
X0041863Y0008867D01*
X0041904Y0008861D01*
X0041945Y0008859D01*
X0041945Y0008858D02*
X0042389Y0008858D01*
X0053877Y0008858D02*
X0054543Y0010858D01*
X0055210Y0008858D01*
X0055043Y0009358D02*
X0054043Y0009358D01*
X0057248Y0009303D02*
X0057248Y0010414D01*
X0057249Y0010414D02*
X0057251Y0010455D01*
X0057257Y0010496D01*
X0057266Y0010536D01*
X0057279Y0010574D01*
X0057296Y0010612D01*
X0057316Y0010648D01*
X0057339Y0010682D01*
X0057365Y0010713D01*
X0057394Y0010742D01*
X0057425Y0010768D01*
X0057459Y0010791D01*
X0057495Y0010811D01*
X0057533Y0010828D01*
X0057571Y0010841D01*
X0057611Y0010850D01*
X0057652Y0010856D01*
X0057693Y0010858D01*
X0058137Y0010858D01*
X0057249Y0009303D02*
X0057251Y0009262D01*
X0057257Y0009221D01*
X0057266Y0009181D01*
X0057279Y0009143D01*
X0057296Y0009105D01*
X0057316Y0009069D01*
X0057339Y0009035D01*
X0057365Y0009004D01*
X0057394Y0008975D01*
X0057425Y0008949D01*
X0057459Y0008926D01*
X0057495Y0008906D01*
X0057533Y0008889D01*
X0057571Y0008876D01*
X0057611Y0008867D01*
X0057652Y0008861D01*
X0057693Y0008859D01*
X0057693Y0008858D02*
X0058137Y0008858D01*
X0069625Y0008858D02*
X0070291Y0010858D01*
X0070958Y0008858D01*
X0070791Y0009358D02*
X0069791Y0009358D01*
X0072997Y0009303D02*
X0072997Y0010414D01*
X0072999Y0010455D01*
X0073005Y0010496D01*
X0073014Y0010536D01*
X0073027Y0010574D01*
X0073044Y0010612D01*
X0073064Y0010648D01*
X0073087Y0010682D01*
X0073113Y0010713D01*
X0073142Y0010742D01*
X0073173Y0010768D01*
X0073207Y0010791D01*
X0073243Y0010811D01*
X0073281Y0010828D01*
X0073319Y0010841D01*
X0073359Y0010850D01*
X0073400Y0010856D01*
X0073441Y0010858D01*
X0073885Y0010858D01*
X0072997Y0009303D02*
X0072999Y0009262D01*
X0073005Y0009221D01*
X0073014Y0009181D01*
X0073027Y0009143D01*
X0073044Y0009105D01*
X0073064Y0009069D01*
X0073087Y0009035D01*
X0073113Y0009004D01*
X0073142Y0008975D01*
X0073173Y0008949D01*
X0073207Y0008926D01*
X0073243Y0008906D01*
X0073281Y0008889D01*
X0073319Y0008876D01*
X0073359Y0008867D01*
X0073400Y0008861D01*
X0073441Y0008859D01*
X0073441Y0008858D02*
X0073885Y0008858D01*
X0068945Y0027728D02*
X0067833Y0027728D01*
X0068778Y0028839D01*
X0068445Y0029727D02*
X0068398Y0029725D01*
X0068350Y0029720D01*
X0068304Y0029711D01*
X0068258Y0029699D01*
X0068213Y0029684D01*
X0068169Y0029665D01*
X0068127Y0029643D01*
X0068087Y0029618D01*
X0068048Y0029590D01*
X0068012Y0029559D01*
X0067978Y0029526D01*
X0067947Y0029490D01*
X0067918Y0029452D01*
X0067893Y0029412D01*
X0067870Y0029371D01*
X0067851Y0029327D01*
X0067834Y0029283D01*
X0068778Y0028839D02*
X0068809Y0028870D01*
X0068836Y0028904D01*
X0068861Y0028940D01*
X0068883Y0028977D01*
X0068902Y0029016D01*
X0068917Y0029057D01*
X0068929Y0029099D01*
X0068938Y0029141D01*
X0068943Y0029185D01*
X0068945Y0029228D01*
X0068943Y0029272D01*
X0068937Y0029315D01*
X0068928Y0029357D01*
X0068915Y0029399D01*
X0068898Y0029439D01*
X0068878Y0029478D01*
X0068855Y0029515D01*
X0068828Y0029549D01*
X0068799Y0029582D01*
X0068766Y0029611D01*
X0068732Y0029638D01*
X0068695Y0029661D01*
X0068656Y0029681D01*
X0068616Y0029698D01*
X0068574Y0029711D01*
X0068532Y0029720D01*
X0068489Y0029726D01*
X0068445Y0029728D01*
X0069461Y0031328D02*
X0069461Y0033328D01*
X0069461Y0032439D02*
X0070573Y0032439D01*
X0070573Y0033328D02*
X0070573Y0031328D01*
X0071772Y0031328D02*
X0072661Y0031328D01*
X0071772Y0031328D02*
X0071772Y0033328D01*
X0068341Y0032772D02*
X0068341Y0031883D01*
X0068339Y0031837D01*
X0068333Y0031791D01*
X0068324Y0031747D01*
X0068311Y0031702D01*
X0068294Y0031660D01*
X0068274Y0031618D01*
X0068250Y0031579D01*
X0068224Y0031541D01*
X0068194Y0031506D01*
X0068162Y0031474D01*
X0068127Y0031444D01*
X0068089Y0031418D01*
X0068050Y0031394D01*
X0068008Y0031374D01*
X0067966Y0031357D01*
X0067921Y0031344D01*
X0067877Y0031335D01*
X0067831Y0031329D01*
X0067785Y0031327D01*
X0067739Y0031329D01*
X0067693Y0031335D01*
X0067649Y0031344D01*
X0067604Y0031357D01*
X0067562Y0031374D01*
X0067520Y0031394D01*
X0067481Y0031418D01*
X0067443Y0031444D01*
X0067408Y0031474D01*
X0067376Y0031506D01*
X0067346Y0031541D01*
X0067320Y0031579D01*
X0067296Y0031618D01*
X0067276Y0031660D01*
X0067259Y0031702D01*
X0067246Y0031747D01*
X0067237Y0031791D01*
X0067231Y0031837D01*
X0067229Y0031883D01*
X0067229Y0032772D01*
X0067231Y0032818D01*
X0067237Y0032864D01*
X0067246Y0032908D01*
X0067259Y0032953D01*
X0067276Y0032995D01*
X0067296Y0033037D01*
X0067320Y0033076D01*
X0067346Y0033114D01*
X0067376Y0033149D01*
X0067408Y0033181D01*
X0067443Y0033211D01*
X0067481Y0033237D01*
X0067520Y0033261D01*
X0067562Y0033281D01*
X0067604Y0033298D01*
X0067649Y0033311D01*
X0067693Y0033320D01*
X0067739Y0033326D01*
X0067785Y0033328D01*
X0067831Y0033326D01*
X0067877Y0033320D01*
X0067921Y0033311D01*
X0067966Y0033298D01*
X0068008Y0033281D01*
X0068050Y0033261D01*
X0068089Y0033237D01*
X0068127Y0033211D01*
X0068162Y0033181D01*
X0068194Y0033149D01*
X0068224Y0033114D01*
X0068250Y0033076D01*
X0068274Y0033037D01*
X0068294Y0032995D01*
X0068311Y0032953D01*
X0068324Y0032908D01*
X0068333Y0032864D01*
X0068339Y0032818D01*
X0068341Y0032772D01*
X0064957Y0033328D02*
X0064957Y0031328D01*
X0063845Y0033328D01*
X0063845Y0031328D01*
X0062746Y0031328D02*
X0062302Y0032216D01*
X0062190Y0032216D02*
X0061635Y0032216D01*
X0062190Y0032216D02*
X0062236Y0032218D01*
X0062282Y0032224D01*
X0062326Y0032233D01*
X0062371Y0032246D01*
X0062413Y0032263D01*
X0062455Y0032283D01*
X0062494Y0032307D01*
X0062532Y0032333D01*
X0062567Y0032363D01*
X0062599Y0032395D01*
X0062629Y0032430D01*
X0062655Y0032468D01*
X0062679Y0032507D01*
X0062699Y0032549D01*
X0062716Y0032591D01*
X0062729Y0032636D01*
X0062738Y0032680D01*
X0062744Y0032726D01*
X0062746Y0032772D01*
X0062744Y0032818D01*
X0062738Y0032864D01*
X0062729Y0032908D01*
X0062716Y0032953D01*
X0062699Y0032995D01*
X0062679Y0033037D01*
X0062655Y0033076D01*
X0062629Y0033114D01*
X0062599Y0033149D01*
X0062567Y0033181D01*
X0062532Y0033211D01*
X0062494Y0033237D01*
X0062455Y0033261D01*
X0062413Y0033281D01*
X0062371Y0033298D01*
X0062326Y0033311D01*
X0062282Y0033320D01*
X0062236Y0033326D01*
X0062190Y0033328D01*
X0061635Y0033328D01*
X0061635Y0031328D01*
X0060637Y0031328D02*
X0059748Y0031328D01*
X0059748Y0033328D01*
X0060637Y0033328D01*
X0060415Y0032439D02*
X0059748Y0032439D01*
X0058749Y0033328D02*
X0058304Y0033328D01*
X0058304Y0033327D02*
X0058263Y0033325D01*
X0058222Y0033319D01*
X0058182Y0033310D01*
X0058144Y0033297D01*
X0058106Y0033280D01*
X0058070Y0033260D01*
X0058036Y0033237D01*
X0058005Y0033211D01*
X0057976Y0033182D01*
X0057950Y0033151D01*
X0057927Y0033117D01*
X0057907Y0033081D01*
X0057890Y0033043D01*
X0057877Y0033005D01*
X0057868Y0032965D01*
X0057862Y0032924D01*
X0057860Y0032883D01*
X0057860Y0031772D01*
X0057862Y0031731D01*
X0057868Y0031690D01*
X0057877Y0031650D01*
X0057890Y0031612D01*
X0057907Y0031574D01*
X0057927Y0031538D01*
X0057950Y0031504D01*
X0057976Y0031473D01*
X0058005Y0031444D01*
X0058036Y0031418D01*
X0058070Y0031395D01*
X0058106Y0031375D01*
X0058144Y0031358D01*
X0058182Y0031345D01*
X0058222Y0031336D01*
X0058263Y0031330D01*
X0058304Y0031328D01*
X0058749Y0031328D01*
X0062977Y0029061D02*
X0063421Y0027728D01*
X0063866Y0029061D01*
X0064810Y0029283D02*
X0065365Y0029728D01*
X0065365Y0027728D01*
X0064810Y0027728D02*
X0065921Y0027728D01*
X0066822Y0027728D02*
X0066933Y0027728D01*
X0066933Y0027839D01*
X0066822Y0027839D01*
X0066822Y0027728D01*
X0053717Y0033328D02*
X0052606Y0033328D01*
X0053162Y0033328D02*
X0053162Y0031328D01*
X0051800Y0031328D02*
X0051355Y0031328D01*
X0051578Y0031328D02*
X0051578Y0033328D01*
X0051800Y0033328D02*
X0051355Y0033328D01*
X0050300Y0033328D02*
X0050300Y0031328D01*
X0049634Y0032216D02*
X0050300Y0033328D01*
X0049634Y0032216D02*
X0048967Y0033328D01*
X0048967Y0031328D01*
X0046490Y0031939D02*
X0046490Y0032772D01*
X0045935Y0032994D02*
X0045935Y0031939D01*
X0045937Y0031907D01*
X0045942Y0031875D01*
X0045952Y0031844D01*
X0045965Y0031814D01*
X0045981Y0031786D01*
X0046000Y0031760D01*
X0046022Y0031737D01*
X0046047Y0031716D01*
X0046074Y0031698D01*
X0046103Y0031684D01*
X0046133Y0031673D01*
X0046165Y0031665D01*
X0046197Y0031661D01*
X0046229Y0031661D01*
X0046261Y0031665D01*
X0046293Y0031673D01*
X0046323Y0031684D01*
X0046352Y0031698D01*
X0046379Y0031716D01*
X0046404Y0031737D01*
X0046426Y0031760D01*
X0046445Y0031786D01*
X0046461Y0031814D01*
X0046474Y0031844D01*
X0046484Y0031875D01*
X0046489Y0031907D01*
X0046491Y0031939D01*
X0045935Y0031994D02*
X0045933Y0031959D01*
X0045928Y0031925D01*
X0045919Y0031891D01*
X0045906Y0031859D01*
X0045890Y0031828D01*
X0045871Y0031798D01*
X0045849Y0031771D01*
X0045825Y0031747D01*
X0045798Y0031725D01*
X0045769Y0031706D01*
X0045737Y0031690D01*
X0045705Y0031677D01*
X0045671Y0031668D01*
X0045637Y0031663D01*
X0045602Y0031661D01*
X0045567Y0031663D01*
X0045533Y0031668D01*
X0045499Y0031677D01*
X0045467Y0031690D01*
X0045436Y0031706D01*
X0045406Y0031725D01*
X0045379Y0031747D01*
X0045355Y0031771D01*
X0045333Y0031798D01*
X0045314Y0031828D01*
X0045298Y0031859D01*
X0045285Y0031891D01*
X0045276Y0031925D01*
X0045271Y0031959D01*
X0045269Y0031994D01*
X0045268Y0031994D02*
X0045268Y0032661D01*
X0045269Y0032661D02*
X0045271Y0032696D01*
X0045276Y0032730D01*
X0045285Y0032764D01*
X0045298Y0032796D01*
X0045314Y0032828D01*
X0045333Y0032857D01*
X0045355Y0032884D01*
X0045379Y0032908D01*
X0045406Y0032930D01*
X0045436Y0032949D01*
X0045467Y0032965D01*
X0045499Y0032978D01*
X0045533Y0032987D01*
X0045567Y0032992D01*
X0045602Y0032994D01*
X0045935Y0032994D01*
X0046491Y0032772D02*
X0046489Y0032830D01*
X0046483Y0032888D01*
X0046474Y0032945D01*
X0046461Y0033002D01*
X0046444Y0033058D01*
X0046423Y0033112D01*
X0046399Y0033165D01*
X0046372Y0033217D01*
X0046341Y0033266D01*
X0046307Y0033313D01*
X0046270Y0033358D01*
X0046231Y0033401D01*
X0046188Y0033440D01*
X0046143Y0033477D01*
X0046096Y0033511D01*
X0046047Y0033542D01*
X0045995Y0033569D01*
X0045942Y0033593D01*
X0045888Y0033614D01*
X0045832Y0033631D01*
X0045775Y0033644D01*
X0045718Y0033653D01*
X0045660Y0033659D01*
X0045602Y0033661D01*
X0045544Y0033659D01*
X0045486Y0033653D01*
X0045429Y0033644D01*
X0045372Y0033631D01*
X0045316Y0033614D01*
X0045262Y0033593D01*
X0045209Y0033569D01*
X0045158Y0033542D01*
X0045108Y0033511D01*
X0045061Y0033477D01*
X0045016Y0033440D01*
X0044973Y0033401D01*
X0044934Y0033358D01*
X0044897Y0033313D01*
X0044863Y0033266D01*
X0044832Y0033217D01*
X0044805Y0033165D01*
X0044781Y0033112D01*
X0044760Y0033058D01*
X0044743Y0033002D01*
X0044730Y0032945D01*
X0044721Y0032888D01*
X0044715Y0032830D01*
X0044713Y0032772D01*
X0044713Y0031828D01*
X0044715Y0031771D01*
X0044721Y0031714D01*
X0044730Y0031658D01*
X0044744Y0031603D01*
X0044761Y0031548D01*
X0044782Y0031495D01*
X0044807Y0031444D01*
X0044834Y0031394D01*
X0044866Y0031347D01*
X0044900Y0031301D01*
X0044938Y0031258D01*
X0044978Y0031218D01*
X0045021Y0031180D01*
X0045066Y0031146D01*
X0045114Y0031115D01*
X0045163Y0031087D01*
X0045215Y0031062D01*
X0045268Y0031041D01*
X0045322Y0031024D01*
X0045378Y0031011D01*
X0045434Y0031001D01*
X0045490Y0030995D01*
X0045023Y0029728D02*
X0046134Y0029728D01*
X0045579Y0027728D01*
X0043974Y0027728D02*
X0042863Y0027728D01*
X0043419Y0027728D02*
X0043419Y0029728D01*
X0042863Y0029283D01*
X0040703Y0028728D02*
X0040705Y0028653D01*
X0040710Y0028579D01*
X0040718Y0028504D01*
X0040730Y0028431D01*
X0040745Y0028357D01*
X0040764Y0028285D01*
X0040785Y0028214D01*
X0040810Y0028143D01*
X0040838Y0028074D01*
X0040870Y0028006D01*
X0040814Y0028172D02*
X0041703Y0029283D01*
X0041648Y0029449D02*
X0041633Y0029486D01*
X0041615Y0029521D01*
X0041594Y0029554D01*
X0041570Y0029585D01*
X0041543Y0029613D01*
X0041514Y0029639D01*
X0041482Y0029661D01*
X0041448Y0029681D01*
X0041412Y0029697D01*
X0041375Y0029710D01*
X0041337Y0029720D01*
X0041298Y0029725D01*
X0041259Y0029727D01*
X0041220Y0029725D01*
X0041181Y0029720D01*
X0041143Y0029710D01*
X0041106Y0029697D01*
X0041070Y0029681D01*
X0041036Y0029661D01*
X0041004Y0029639D01*
X0040975Y0029613D01*
X0040948Y0029585D01*
X0040924Y0029554D01*
X0040903Y0029521D01*
X0040885Y0029486D01*
X0040870Y0029449D01*
X0041647Y0029450D02*
X0041679Y0029382D01*
X0041707Y0029313D01*
X0041732Y0029243D01*
X0041753Y0029171D01*
X0041772Y0029099D01*
X0041787Y0029025D01*
X0041799Y0028952D01*
X0041807Y0028877D01*
X0041812Y0028803D01*
X0041814Y0028728D01*
X0040703Y0028728D02*
X0040705Y0028803D01*
X0040710Y0028877D01*
X0040718Y0028952D01*
X0040730Y0029025D01*
X0040745Y0029099D01*
X0040764Y0029171D01*
X0040785Y0029243D01*
X0040810Y0029313D01*
X0040838Y0029382D01*
X0040870Y0029450D01*
X0041814Y0028728D02*
X0041812Y0028653D01*
X0041807Y0028579D01*
X0041799Y0028504D01*
X0041787Y0028431D01*
X0041772Y0028357D01*
X0041753Y0028285D01*
X0041732Y0028213D01*
X0041707Y0028143D01*
X0041679Y0028074D01*
X0041647Y0028006D01*
X0041648Y0028006D02*
X0041633Y0027969D01*
X0041615Y0027934D01*
X0041594Y0027901D01*
X0041570Y0027870D01*
X0041543Y0027842D01*
X0041514Y0027816D01*
X0041482Y0027794D01*
X0041448Y0027774D01*
X0041412Y0027758D01*
X0041375Y0027745D01*
X0041337Y0027735D01*
X0041298Y0027730D01*
X0041259Y0027728D01*
X0041220Y0027730D01*
X0041181Y0027735D01*
X0041143Y0027745D01*
X0041106Y0027758D01*
X0041070Y0027774D01*
X0041036Y0027794D01*
X0041004Y0027816D01*
X0040975Y0027842D01*
X0040948Y0027870D01*
X0040924Y0027901D01*
X0040903Y0027934D01*
X0040885Y0027969D01*
X0040870Y0028006D01*
X0039654Y0027728D02*
X0038543Y0027728D01*
X0039487Y0028839D01*
X0039154Y0029727D02*
X0039107Y0029725D01*
X0039059Y0029720D01*
X0039013Y0029711D01*
X0038967Y0029699D01*
X0038922Y0029684D01*
X0038878Y0029665D01*
X0038836Y0029643D01*
X0038796Y0029618D01*
X0038757Y0029590D01*
X0038721Y0029559D01*
X0038687Y0029526D01*
X0038656Y0029490D01*
X0038627Y0029452D01*
X0038602Y0029412D01*
X0038579Y0029371D01*
X0038560Y0029327D01*
X0038543Y0029283D01*
X0039487Y0028839D02*
X0039518Y0028870D01*
X0039545Y0028904D01*
X0039570Y0028940D01*
X0039592Y0028977D01*
X0039611Y0029016D01*
X0039626Y0029057D01*
X0039638Y0029099D01*
X0039647Y0029141D01*
X0039652Y0029185D01*
X0039654Y0029228D01*
X0039652Y0029272D01*
X0039646Y0029315D01*
X0039637Y0029357D01*
X0039624Y0029399D01*
X0039607Y0029439D01*
X0039587Y0029478D01*
X0039564Y0029515D01*
X0039537Y0029549D01*
X0039508Y0029582D01*
X0039475Y0029611D01*
X0039441Y0029638D01*
X0039404Y0029661D01*
X0039365Y0029681D01*
X0039325Y0029698D01*
X0039283Y0029711D01*
X0039241Y0029720D01*
X0039198Y0029726D01*
X0039154Y0029728D01*
X0039730Y0031328D02*
X0040397Y0031328D01*
X0040397Y0032439D01*
X0040064Y0032439D01*
X0039286Y0032883D02*
X0039288Y0032924D01*
X0039294Y0032965D01*
X0039303Y0033005D01*
X0039316Y0033043D01*
X0039333Y0033081D01*
X0039353Y0033117D01*
X0039376Y0033151D01*
X0039402Y0033182D01*
X0039431Y0033211D01*
X0039462Y0033237D01*
X0039496Y0033260D01*
X0039532Y0033280D01*
X0039570Y0033297D01*
X0039608Y0033310D01*
X0039648Y0033319D01*
X0039689Y0033325D01*
X0039730Y0033327D01*
X0039730Y0033328D02*
X0040397Y0033328D01*
X0041597Y0033328D02*
X0041597Y0031328D01*
X0042485Y0031328D01*
X0039730Y0031328D02*
X0039689Y0031330D01*
X0039648Y0031336D01*
X0039608Y0031345D01*
X0039570Y0031358D01*
X0039532Y0031375D01*
X0039496Y0031395D01*
X0039462Y0031418D01*
X0039431Y0031444D01*
X0039402Y0031473D01*
X0039376Y0031504D01*
X0039353Y0031538D01*
X0039333Y0031574D01*
X0039316Y0031612D01*
X0039303Y0031650D01*
X0039294Y0031690D01*
X0039288Y0031731D01*
X0039286Y0031772D01*
X0039286Y0032883D01*
X0037149Y0031439D02*
X0037149Y0031328D01*
X0036982Y0030883D01*
X0037037Y0031328D02*
X0037037Y0031439D01*
X0037149Y0031439D01*
X0037149Y0031328D02*
X0037037Y0031328D01*
X0036077Y0031328D02*
X0036077Y0033328D01*
X0034966Y0033328D02*
X0036077Y0031328D01*
X0034966Y0031328D02*
X0034966Y0033328D01*
X0033411Y0033328D02*
X0032855Y0033328D01*
X0032855Y0031328D01*
X0032855Y0032216D02*
X0033411Y0032216D01*
X0033457Y0032218D01*
X0033503Y0032224D01*
X0033547Y0032233D01*
X0033592Y0032246D01*
X0033634Y0032263D01*
X0033676Y0032283D01*
X0033715Y0032307D01*
X0033753Y0032333D01*
X0033788Y0032363D01*
X0033820Y0032395D01*
X0033850Y0032430D01*
X0033876Y0032468D01*
X0033900Y0032507D01*
X0033920Y0032549D01*
X0033937Y0032591D01*
X0033950Y0032636D01*
X0033959Y0032680D01*
X0033965Y0032726D01*
X0033967Y0032772D01*
X0033965Y0032818D01*
X0033959Y0032864D01*
X0033950Y0032908D01*
X0033937Y0032953D01*
X0033920Y0032995D01*
X0033900Y0033037D01*
X0033876Y0033076D01*
X0033850Y0033114D01*
X0033820Y0033149D01*
X0033788Y0033181D01*
X0033753Y0033211D01*
X0033715Y0033237D01*
X0033676Y0033261D01*
X0033634Y0033281D01*
X0033592Y0033298D01*
X0033547Y0033311D01*
X0033503Y0033320D01*
X0033457Y0033326D01*
X0033411Y0033328D01*
X0031627Y0033328D02*
X0031627Y0031772D01*
X0031626Y0031772D02*
X0031624Y0031731D01*
X0031618Y0031690D01*
X0031609Y0031650D01*
X0031596Y0031612D01*
X0031579Y0031574D01*
X0031559Y0031538D01*
X0031536Y0031504D01*
X0031510Y0031473D01*
X0031481Y0031444D01*
X0031450Y0031418D01*
X0031416Y0031395D01*
X0031380Y0031375D01*
X0031342Y0031358D01*
X0031304Y0031345D01*
X0031264Y0031336D01*
X0031223Y0031330D01*
X0031182Y0031328D01*
X0030960Y0031328D01*
X0028652Y0029283D02*
X0027763Y0028172D01*
X0028207Y0027728D02*
X0028246Y0027730D01*
X0028285Y0027735D01*
X0028323Y0027745D01*
X0028360Y0027758D01*
X0028396Y0027774D01*
X0028430Y0027794D01*
X0028462Y0027816D01*
X0028491Y0027842D01*
X0028518Y0027870D01*
X0028542Y0027901D01*
X0028563Y0027934D01*
X0028581Y0027969D01*
X0028596Y0028006D01*
X0028207Y0027728D02*
X0028168Y0027730D01*
X0028129Y0027735D01*
X0028091Y0027745D01*
X0028054Y0027758D01*
X0028018Y0027774D01*
X0027984Y0027794D01*
X0027952Y0027816D01*
X0027923Y0027842D01*
X0027896Y0027870D01*
X0027872Y0027901D01*
X0027851Y0027934D01*
X0027833Y0027969D01*
X0027818Y0028006D01*
X0026751Y0027839D02*
X0026751Y0027728D01*
X0026640Y0027728D01*
X0026640Y0027839D01*
X0026751Y0027839D01*
X0028596Y0028006D02*
X0028628Y0028074D01*
X0028656Y0028143D01*
X0028681Y0028213D01*
X0028702Y0028285D01*
X0028721Y0028357D01*
X0028736Y0028431D01*
X0028748Y0028504D01*
X0028756Y0028579D01*
X0028761Y0028653D01*
X0028763Y0028728D01*
X0027652Y0028728D02*
X0027654Y0028803D01*
X0027659Y0028877D01*
X0027667Y0028952D01*
X0027679Y0029025D01*
X0027694Y0029099D01*
X0027713Y0029171D01*
X0027734Y0029243D01*
X0027759Y0029313D01*
X0027787Y0029382D01*
X0027819Y0029450D01*
X0028207Y0029727D02*
X0028246Y0029725D01*
X0028285Y0029720D01*
X0028323Y0029710D01*
X0028360Y0029697D01*
X0028396Y0029681D01*
X0028430Y0029661D01*
X0028462Y0029639D01*
X0028491Y0029613D01*
X0028518Y0029585D01*
X0028542Y0029554D01*
X0028563Y0029521D01*
X0028581Y0029486D01*
X0028596Y0029449D01*
X0028207Y0029727D02*
X0028168Y0029725D01*
X0028129Y0029720D01*
X0028091Y0029710D01*
X0028054Y0029697D01*
X0028018Y0029681D01*
X0027984Y0029661D01*
X0027952Y0029639D01*
X0027923Y0029613D01*
X0027896Y0029585D01*
X0027872Y0029554D01*
X0027851Y0029521D01*
X0027833Y0029486D01*
X0027818Y0029449D01*
X0028596Y0029450D02*
X0028628Y0029382D01*
X0028656Y0029313D01*
X0028681Y0029243D01*
X0028702Y0029171D01*
X0028721Y0029099D01*
X0028736Y0029025D01*
X0028748Y0028952D01*
X0028756Y0028877D01*
X0028761Y0028803D01*
X0028763Y0028728D01*
X0027652Y0028728D02*
X0027654Y0028653D01*
X0027659Y0028579D01*
X0027667Y0028504D01*
X0027679Y0028431D01*
X0027694Y0028357D01*
X0027713Y0028285D01*
X0027734Y0028214D01*
X0027759Y0028143D01*
X0027787Y0028074D01*
X0027819Y0028006D01*
X0025739Y0027728D02*
X0024628Y0027728D01*
X0025183Y0027728D02*
X0025183Y0029728D01*
X0024628Y0029283D01*
X0022575Y0027839D02*
X0022575Y0027728D01*
X0022464Y0027728D01*
X0022464Y0027839D01*
X0022575Y0027839D01*
X0021223Y0027728D02*
X0021668Y0029061D01*
X0020779Y0029061D02*
X0021223Y0027728D01*
X0019868Y0027728D02*
X0019312Y0027728D01*
X0019277Y0027730D01*
X0019243Y0027735D01*
X0019209Y0027744D01*
X0019177Y0027757D01*
X0019146Y0027773D01*
X0019116Y0027792D01*
X0019089Y0027814D01*
X0019065Y0027838D01*
X0019043Y0027865D01*
X0019024Y0027895D01*
X0019008Y0027926D01*
X0018995Y0027958D01*
X0018986Y0027992D01*
X0018981Y0028026D01*
X0018979Y0028061D01*
X0018979Y0028616D01*
X0018979Y0028394D02*
X0019868Y0028394D01*
X0019868Y0028616D01*
X0019867Y0028616D02*
X0019865Y0028657D01*
X0019859Y0028698D01*
X0019850Y0028738D01*
X0019837Y0028776D01*
X0019820Y0028814D01*
X0019800Y0028850D01*
X0019777Y0028884D01*
X0019751Y0028915D01*
X0019722Y0028944D01*
X0019691Y0028970D01*
X0019657Y0028993D01*
X0019621Y0029013D01*
X0019583Y0029030D01*
X0019545Y0029043D01*
X0019505Y0029052D01*
X0019464Y0029058D01*
X0019423Y0029060D01*
X0019382Y0029058D01*
X0019341Y0029052D01*
X0019301Y0029043D01*
X0019263Y0029030D01*
X0019225Y0029013D01*
X0019189Y0028993D01*
X0019155Y0028970D01*
X0019124Y0028944D01*
X0019095Y0028915D01*
X0019069Y0028884D01*
X0019046Y0028850D01*
X0019026Y0028814D01*
X0019009Y0028776D01*
X0018996Y0028738D01*
X0018987Y0028698D01*
X0018981Y0028657D01*
X0018979Y0028616D01*
X0017984Y0027728D02*
X0017540Y0028616D01*
X0017429Y0028616D02*
X0016873Y0028616D01*
X0017429Y0028616D02*
X0017475Y0028618D01*
X0017521Y0028624D01*
X0017565Y0028633D01*
X0017610Y0028646D01*
X0017652Y0028663D01*
X0017694Y0028683D01*
X0017733Y0028707D01*
X0017771Y0028733D01*
X0017806Y0028763D01*
X0017838Y0028795D01*
X0017868Y0028830D01*
X0017894Y0028868D01*
X0017918Y0028907D01*
X0017938Y0028949D01*
X0017955Y0028991D01*
X0017968Y0029036D01*
X0017977Y0029080D01*
X0017983Y0029126D01*
X0017985Y0029172D01*
X0017983Y0029218D01*
X0017977Y0029264D01*
X0017968Y0029308D01*
X0017955Y0029353D01*
X0017938Y0029395D01*
X0017918Y0029437D01*
X0017894Y0029476D01*
X0017868Y0029514D01*
X0017838Y0029549D01*
X0017806Y0029581D01*
X0017771Y0029611D01*
X0017733Y0029637D01*
X0017694Y0029661D01*
X0017652Y0029681D01*
X0017610Y0029698D01*
X0017565Y0029711D01*
X0017521Y0029720D01*
X0017475Y0029726D01*
X0017429Y0029728D01*
X0016873Y0029728D01*
X0016873Y0027728D01*
X0014507Y0028283D02*
X0014507Y0029172D01*
X0014505Y0029218D01*
X0014499Y0029264D01*
X0014490Y0029308D01*
X0014477Y0029353D01*
X0014460Y0029395D01*
X0014440Y0029437D01*
X0014416Y0029476D01*
X0014390Y0029514D01*
X0014360Y0029549D01*
X0014328Y0029581D01*
X0014293Y0029611D01*
X0014255Y0029637D01*
X0014216Y0029661D01*
X0014174Y0029681D01*
X0014132Y0029698D01*
X0014087Y0029711D01*
X0014043Y0029720D01*
X0013997Y0029726D01*
X0013951Y0029728D01*
X0013396Y0029728D01*
X0013396Y0027728D01*
X0013951Y0027728D01*
X0013951Y0027727D02*
X0013997Y0027729D01*
X0014043Y0027735D01*
X0014087Y0027744D01*
X0014132Y0027757D01*
X0014174Y0027774D01*
X0014216Y0027794D01*
X0014255Y0027818D01*
X0014292Y0027844D01*
X0014328Y0027874D01*
X0014360Y0027906D01*
X0014390Y0027941D01*
X0014416Y0027979D01*
X0014440Y0028018D01*
X0014460Y0028060D01*
X0014477Y0028102D01*
X0014490Y0028147D01*
X0014499Y0028191D01*
X0014505Y0028237D01*
X0014507Y0028283D01*
X0012296Y0027728D02*
X0011852Y0028616D01*
X0011741Y0028616D02*
X0011185Y0028616D01*
X0011741Y0028616D02*
X0011787Y0028618D01*
X0011833Y0028624D01*
X0011877Y0028633D01*
X0011922Y0028646D01*
X0011964Y0028663D01*
X0012006Y0028683D01*
X0012045Y0028707D01*
X0012083Y0028733D01*
X0012118Y0028763D01*
X0012150Y0028795D01*
X0012180Y0028830D01*
X0012206Y0028868D01*
X0012230Y0028907D01*
X0012250Y0028949D01*
X0012267Y0028991D01*
X0012280Y0029036D01*
X0012289Y0029080D01*
X0012295Y0029126D01*
X0012297Y0029172D01*
X0012295Y0029218D01*
X0012289Y0029264D01*
X0012280Y0029308D01*
X0012267Y0029353D01*
X0012250Y0029395D01*
X0012230Y0029437D01*
X0012206Y0029476D01*
X0012180Y0029514D01*
X0012150Y0029549D01*
X0012118Y0029581D01*
X0012083Y0029611D01*
X0012045Y0029637D01*
X0012006Y0029661D01*
X0011964Y0029681D01*
X0011922Y0029698D01*
X0011877Y0029711D01*
X0011833Y0029720D01*
X0011787Y0029726D01*
X0011741Y0029728D01*
X0011185Y0029728D01*
X0011185Y0027728D01*
X0010154Y0027728D02*
X0009487Y0029728D01*
X0008821Y0027728D01*
X0008987Y0028228D02*
X0009987Y0028228D01*
X0007883Y0028283D02*
X0007883Y0029172D01*
X0007881Y0029218D01*
X0007875Y0029264D01*
X0007866Y0029308D01*
X0007853Y0029353D01*
X0007836Y0029395D01*
X0007816Y0029437D01*
X0007792Y0029476D01*
X0007766Y0029514D01*
X0007736Y0029549D01*
X0007704Y0029581D01*
X0007669Y0029611D01*
X0007631Y0029637D01*
X0007592Y0029661D01*
X0007550Y0029681D01*
X0007508Y0029698D01*
X0007463Y0029711D01*
X0007419Y0029720D01*
X0007373Y0029726D01*
X0007327Y0029728D01*
X0007281Y0029726D01*
X0007235Y0029720D01*
X0007191Y0029711D01*
X0007146Y0029698D01*
X0007104Y0029681D01*
X0007062Y0029661D01*
X0007023Y0029637D01*
X0006985Y0029611D01*
X0006950Y0029581D01*
X0006918Y0029549D01*
X0006888Y0029514D01*
X0006862Y0029476D01*
X0006838Y0029437D01*
X0006818Y0029395D01*
X0006801Y0029353D01*
X0006788Y0029308D01*
X0006779Y0029264D01*
X0006773Y0029218D01*
X0006771Y0029172D01*
X0006772Y0029172D02*
X0006772Y0028283D01*
X0006771Y0028283D02*
X0006773Y0028237D01*
X0006779Y0028191D01*
X0006788Y0028147D01*
X0006801Y0028102D01*
X0006818Y0028060D01*
X0006838Y0028018D01*
X0006862Y0027979D01*
X0006888Y0027941D01*
X0006918Y0027906D01*
X0006950Y0027874D01*
X0006985Y0027844D01*
X0007023Y0027818D01*
X0007062Y0027794D01*
X0007104Y0027774D01*
X0007146Y0027757D01*
X0007191Y0027744D01*
X0007235Y0027735D01*
X0007281Y0027729D01*
X0007327Y0027727D01*
X0007373Y0027729D01*
X0007419Y0027735D01*
X0007463Y0027744D01*
X0007508Y0027757D01*
X0007550Y0027774D01*
X0007592Y0027794D01*
X0007631Y0027818D01*
X0007669Y0027844D01*
X0007704Y0027874D01*
X0007736Y0027906D01*
X0007766Y0027941D01*
X0007792Y0027979D01*
X0007816Y0028018D01*
X0007836Y0028060D01*
X0007853Y0028102D01*
X0007866Y0028147D01*
X0007875Y0028191D01*
X0007881Y0028237D01*
X0007883Y0028283D01*
X0005289Y0027727D02*
X0005335Y0027729D01*
X0005381Y0027735D01*
X0005425Y0027744D01*
X0005470Y0027757D01*
X0005512Y0027774D01*
X0005554Y0027794D01*
X0005593Y0027818D01*
X0005631Y0027844D01*
X0005666Y0027874D01*
X0005698Y0027906D01*
X0005728Y0027941D01*
X0005754Y0027979D01*
X0005778Y0028018D01*
X0005798Y0028060D01*
X0005815Y0028102D01*
X0005828Y0028147D01*
X0005837Y0028191D01*
X0005843Y0028237D01*
X0005845Y0028283D01*
X0005843Y0028329D01*
X0005837Y0028375D01*
X0005828Y0028419D01*
X0005815Y0028464D01*
X0005798Y0028506D01*
X0005778Y0028548D01*
X0005754Y0028587D01*
X0005728Y0028625D01*
X0005698Y0028660D01*
X0005666Y0028692D01*
X0005631Y0028722D01*
X0005593Y0028748D01*
X0005554Y0028772D01*
X0005512Y0028792D01*
X0005470Y0028809D01*
X0005425Y0028822D01*
X0005381Y0028831D01*
X0005335Y0028837D01*
X0005289Y0028839D01*
X0004733Y0028839D01*
X0005289Y0028839D02*
X0005330Y0028841D01*
X0005371Y0028847D01*
X0005411Y0028856D01*
X0005449Y0028869D01*
X0005487Y0028886D01*
X0005523Y0028906D01*
X0005557Y0028929D01*
X0005588Y0028955D01*
X0005617Y0028984D01*
X0005643Y0029015D01*
X0005666Y0029049D01*
X0005686Y0029085D01*
X0005703Y0029123D01*
X0005716Y0029161D01*
X0005725Y0029201D01*
X0005731Y0029242D01*
X0005733Y0029283D01*
X0005731Y0029324D01*
X0005725Y0029365D01*
X0005716Y0029405D01*
X0005703Y0029443D01*
X0005686Y0029481D01*
X0005666Y0029517D01*
X0005643Y0029551D01*
X0005617Y0029582D01*
X0005588Y0029611D01*
X0005557Y0029637D01*
X0005523Y0029660D01*
X0005487Y0029680D01*
X0005449Y0029697D01*
X0005411Y0029710D01*
X0005371Y0029719D01*
X0005330Y0029725D01*
X0005289Y0029727D01*
X0005289Y0029728D02*
X0004733Y0029728D01*
X0004733Y0027728D01*
X0005289Y0027728D01*
X0009051Y0031328D02*
X0009940Y0031328D01*
X0009051Y0031328D02*
X0009051Y0033328D01*
X0010923Y0033328D02*
X0011812Y0033328D01*
X0010923Y0033328D02*
X0010923Y0031328D01*
X0011812Y0031328D01*
X0012789Y0031328D02*
X0013344Y0031328D01*
X0013344Y0031327D02*
X0013390Y0031329D01*
X0013436Y0031335D01*
X0013480Y0031344D01*
X0013525Y0031357D01*
X0013567Y0031374D01*
X0013609Y0031394D01*
X0013648Y0031418D01*
X0013685Y0031444D01*
X0013721Y0031474D01*
X0013753Y0031506D01*
X0013783Y0031541D01*
X0013809Y0031579D01*
X0013833Y0031618D01*
X0013853Y0031660D01*
X0013870Y0031702D01*
X0013883Y0031747D01*
X0013892Y0031791D01*
X0013898Y0031837D01*
X0013900Y0031883D01*
X0013900Y0032772D01*
X0013898Y0032818D01*
X0013892Y0032864D01*
X0013883Y0032908D01*
X0013870Y0032953D01*
X0013853Y0032995D01*
X0013833Y0033037D01*
X0013809Y0033076D01*
X0013783Y0033114D01*
X0013753Y0033149D01*
X0013721Y0033181D01*
X0013686Y0033211D01*
X0013648Y0033237D01*
X0013609Y0033261D01*
X0013567Y0033281D01*
X0013525Y0033298D01*
X0013480Y0033311D01*
X0013436Y0033320D01*
X0013390Y0033326D01*
X0013344Y0033328D01*
X0012789Y0033328D01*
X0012789Y0031328D01*
X0011590Y0032439D02*
X0010923Y0032439D01*
X0016251Y0032439D02*
X0017140Y0032439D01*
X0017140Y0033328D02*
X0016251Y0033328D01*
X0016251Y0031328D01*
X0018123Y0031328D02*
X0019012Y0031328D01*
X0018123Y0031328D02*
X0018123Y0033328D01*
X0019995Y0033328D02*
X0020884Y0033328D01*
X0021678Y0033328D02*
X0023011Y0031328D01*
X0021678Y0031328D02*
X0023011Y0033328D01*
X0020662Y0032439D02*
X0019995Y0032439D01*
X0019995Y0033328D02*
X0019995Y0031328D01*
X0020884Y0031328D01*
X0045023Y0029728D02*
X0045023Y0029505D01*
X0042612Y0050197D02*
X0041945Y0052197D01*
X0041278Y0050197D01*
X0041445Y0050697D02*
X0042445Y0050697D01*
X0039240Y0050197D02*
X0038795Y0050197D01*
X0038754Y0050199D01*
X0038713Y0050205D01*
X0038673Y0050214D01*
X0038635Y0050227D01*
X0038597Y0050244D01*
X0038561Y0050264D01*
X0038527Y0050287D01*
X0038496Y0050313D01*
X0038467Y0050342D01*
X0038441Y0050373D01*
X0038418Y0050407D01*
X0038398Y0050443D01*
X0038381Y0050481D01*
X0038368Y0050519D01*
X0038359Y0050559D01*
X0038353Y0050600D01*
X0038351Y0050641D01*
X0038351Y0051752D01*
X0038353Y0051793D01*
X0038359Y0051834D01*
X0038368Y0051874D01*
X0038381Y0051912D01*
X0038398Y0051950D01*
X0038418Y0051986D01*
X0038441Y0052020D01*
X0038467Y0052051D01*
X0038496Y0052080D01*
X0038527Y0052106D01*
X0038561Y0052129D01*
X0038597Y0052149D01*
X0038635Y0052166D01*
X0038673Y0052179D01*
X0038713Y0052188D01*
X0038754Y0052194D01*
X0038795Y0052196D01*
X0038795Y0052197D02*
X0039240Y0052197D01*
X0026864Y0050197D02*
X0026197Y0052197D01*
X0025530Y0050197D01*
X0025697Y0050697D02*
X0026697Y0050697D01*
X0023492Y0050197D02*
X0023047Y0050197D01*
X0023006Y0050199D01*
X0022965Y0050205D01*
X0022925Y0050214D01*
X0022887Y0050227D01*
X0022849Y0050244D01*
X0022813Y0050264D01*
X0022779Y0050287D01*
X0022748Y0050313D01*
X0022719Y0050342D01*
X0022693Y0050373D01*
X0022670Y0050407D01*
X0022650Y0050443D01*
X0022633Y0050481D01*
X0022620Y0050519D01*
X0022611Y0050559D01*
X0022605Y0050600D01*
X0022603Y0050641D01*
X0022603Y0051752D01*
X0022605Y0051793D01*
X0022611Y0051834D01*
X0022620Y0051874D01*
X0022633Y0051912D01*
X0022650Y0051950D01*
X0022670Y0051986D01*
X0022693Y0052020D01*
X0022719Y0052051D01*
X0022748Y0052080D01*
X0022779Y0052106D01*
X0022813Y0052129D01*
X0022849Y0052149D01*
X0022887Y0052166D01*
X0022925Y0052179D01*
X0022965Y0052188D01*
X0023006Y0052194D01*
X0023047Y0052196D01*
X0023047Y0052197D02*
X0023492Y0052197D01*
X0011115Y0050197D02*
X0010449Y0052197D01*
X0009782Y0050197D01*
X0009949Y0050697D02*
X0010949Y0050697D01*
X0007744Y0050197D02*
X0007299Y0050197D01*
X0007258Y0050199D01*
X0007217Y0050205D01*
X0007177Y0050214D01*
X0007139Y0050227D01*
X0007101Y0050244D01*
X0007065Y0050264D01*
X0007031Y0050287D01*
X0007000Y0050313D01*
X0006971Y0050342D01*
X0006945Y0050373D01*
X0006922Y0050407D01*
X0006902Y0050443D01*
X0006885Y0050481D01*
X0006872Y0050519D01*
X0006863Y0050559D01*
X0006857Y0050600D01*
X0006855Y0050641D01*
X0006855Y0051752D01*
X0006857Y0051793D01*
X0006863Y0051834D01*
X0006872Y0051874D01*
X0006885Y0051912D01*
X0006902Y0051950D01*
X0006922Y0051986D01*
X0006945Y0052020D01*
X0006971Y0052051D01*
X0007000Y0052080D01*
X0007031Y0052106D01*
X0007065Y0052129D01*
X0007101Y0052149D01*
X0007139Y0052166D01*
X0007177Y0052179D01*
X0007217Y0052188D01*
X0007258Y0052194D01*
X0007299Y0052196D01*
X0007299Y0052197D02*
X0007744Y0052197D01*
X0054099Y0051752D02*
X0054099Y0050641D01*
X0054101Y0050600D01*
X0054107Y0050559D01*
X0054116Y0050519D01*
X0054129Y0050481D01*
X0054146Y0050443D01*
X0054166Y0050407D01*
X0054189Y0050373D01*
X0054215Y0050342D01*
X0054244Y0050313D01*
X0054275Y0050287D01*
X0054309Y0050264D01*
X0054345Y0050244D01*
X0054383Y0050227D01*
X0054421Y0050214D01*
X0054461Y0050205D01*
X0054502Y0050199D01*
X0054543Y0050197D01*
X0054988Y0050197D01*
X0054099Y0051752D02*
X0054101Y0051793D01*
X0054107Y0051834D01*
X0054116Y0051874D01*
X0054129Y0051912D01*
X0054146Y0051950D01*
X0054166Y0051986D01*
X0054189Y0052020D01*
X0054215Y0052051D01*
X0054244Y0052080D01*
X0054275Y0052106D01*
X0054309Y0052129D01*
X0054345Y0052149D01*
X0054383Y0052166D01*
X0054421Y0052179D01*
X0054461Y0052188D01*
X0054502Y0052194D01*
X0054543Y0052196D01*
X0054543Y0052197D02*
X0054988Y0052197D01*
X0057193Y0050697D02*
X0058193Y0050697D01*
X0058360Y0050197D02*
X0057693Y0052197D01*
X0057026Y0050197D01*
X0069847Y0050641D02*
X0069847Y0051752D01*
X0069849Y0051793D01*
X0069855Y0051834D01*
X0069864Y0051874D01*
X0069877Y0051912D01*
X0069894Y0051950D01*
X0069914Y0051986D01*
X0069937Y0052020D01*
X0069963Y0052051D01*
X0069992Y0052080D01*
X0070023Y0052106D01*
X0070057Y0052129D01*
X0070093Y0052149D01*
X0070131Y0052166D01*
X0070169Y0052179D01*
X0070209Y0052188D01*
X0070250Y0052194D01*
X0070291Y0052196D01*
X0070291Y0052197D02*
X0070736Y0052197D01*
X0069847Y0050641D02*
X0069849Y0050600D01*
X0069855Y0050559D01*
X0069864Y0050519D01*
X0069877Y0050481D01*
X0069894Y0050443D01*
X0069914Y0050407D01*
X0069937Y0050373D01*
X0069963Y0050342D01*
X0069992Y0050313D01*
X0070023Y0050287D01*
X0070057Y0050264D01*
X0070093Y0050244D01*
X0070131Y0050227D01*
X0070169Y0050214D01*
X0070209Y0050205D01*
X0070250Y0050199D01*
X0070291Y0050197D01*
X0070736Y0050197D01*
X0072774Y0050197D02*
X0073441Y0052197D01*
X0074108Y0050197D01*
X0073941Y0050697D02*
X0072941Y0050697D01*
D11*
X0068126Y0043520D02*
X0068126Y0036433D01*
X0052378Y0036433D02*
X0052378Y0043520D01*
X0036630Y0043520D02*
X0036630Y0036433D01*
X0020882Y0036433D02*
X0020882Y0043520D01*
X0005134Y0043520D02*
X0005134Y0036433D01*
M02*
