G75*
%MOIN*%
%OFA0B0*%
%FSLAX24Y24*%
%IPPOS*%
%LPD*%
%AMOC8*
5,1,8,0,0,1.08239X$1,22.5*
%
%ADD10C,0.0240*%
%ADD11C,0.0768*%
%ADD12C,0.0100*%
%ADD13C,0.0050*%
%ADD14C,0.0060*%
D10*
X000705Y000605D03*
X000705Y001605D03*
X001705Y000605D03*
X002780Y000605D03*
X003305Y000505D03*
X003755Y001080D03*
X004455Y001380D03*
X005455Y001380D03*
X006355Y000930D03*
X006855Y000505D03*
X008705Y001105D03*
X006955Y003055D03*
X006855Y002630D03*
X007505Y003605D03*
X006930Y003705D03*
X007230Y005305D03*
X007305Y005705D03*
X007705Y006105D03*
X008705Y004605D03*
X008705Y003605D03*
X005705Y005205D03*
X005755Y005905D03*
X004943Y005180D03*
X004568Y005180D03*
X004180Y005180D03*
X004468Y004430D03*
X004143Y004205D03*
X003843Y003980D03*
X003543Y003780D03*
X003405Y002730D03*
X003268Y002280D03*
X001805Y003980D03*
X001205Y004705D03*
X000705Y005205D03*
X000705Y004205D03*
X000705Y003280D03*
X001705Y005205D03*
X001805Y005855D03*
X003405Y005205D03*
X000505Y008655D03*
X001022Y009140D03*
X001268Y009411D03*
X001514Y009140D03*
X001760Y009411D03*
X002006Y009140D03*
X002252Y009411D03*
X002498Y009140D03*
X002744Y009411D03*
X002990Y009140D03*
X003236Y009411D03*
X003483Y009140D03*
X003729Y009411D03*
X003975Y009140D03*
X004221Y009411D03*
X004467Y009140D03*
X004713Y009411D03*
X004959Y009140D03*
X005205Y009411D03*
X005451Y009140D03*
X005697Y009411D03*
X005943Y009140D03*
X006189Y009411D03*
X006435Y009140D03*
X006681Y009411D03*
X006927Y009140D03*
X007174Y009411D03*
X007420Y009140D03*
X007666Y009411D03*
X007912Y009140D03*
X008158Y009411D03*
X008158Y009780D03*
X008712Y010177D03*
X008705Y008229D03*
X001032Y009864D03*
X001020Y010217D03*
X000505Y010205D03*
D11*
X000805Y006305D03*
X008555Y006305D03*
D12*
X007305Y005705D02*
X007305Y007755D01*
X006805Y008255D01*
X002305Y008255D01*
X001805Y007755D01*
X001805Y005855D01*
X000505Y008655D02*
X000505Y010205D01*
X008705Y010170D02*
X008705Y008229D01*
X008705Y010170D02*
X008712Y010177D01*
D13*
X000612Y000423D02*
X000460Y000423D01*
X000411Y000471D02*
X000563Y000471D01*
X000515Y000520D02*
X000380Y000520D01*
X000380Y000502D02*
X000380Y005805D01*
X001610Y005805D01*
X001610Y005774D01*
X001724Y005660D01*
X001886Y005660D01*
X002000Y005774D01*
X002000Y005805D01*
X003405Y005805D01*
X003405Y007605D01*
X005705Y007605D01*
X005705Y006100D01*
X005674Y006100D01*
X005560Y005986D01*
X005560Y005824D01*
X005674Y005710D01*
X005836Y005710D01*
X005931Y005805D01*
X007129Y005805D01*
X007110Y005786D01*
X007110Y005624D01*
X007224Y005510D01*
X007386Y005510D01*
X007500Y005624D01*
X007500Y005786D01*
X007481Y005805D01*
X008980Y005805D01*
X008980Y000502D01*
X008833Y000355D01*
X006981Y000355D01*
X007050Y000424D01*
X007050Y000586D01*
X006936Y000700D01*
X006774Y000700D01*
X006660Y000586D01*
X006660Y000424D01*
X006729Y000355D01*
X003431Y000355D01*
X003500Y000424D01*
X003500Y000586D01*
X003386Y000700D01*
X003224Y000700D01*
X003110Y000586D01*
X003110Y000424D01*
X003179Y000355D01*
X000527Y000355D01*
X000380Y000502D01*
X000380Y000568D02*
X000510Y000568D01*
X000510Y000524D02*
X000624Y000410D01*
X000786Y000410D01*
X000900Y000524D01*
X000900Y000686D01*
X000786Y000800D01*
X000624Y000800D01*
X000510Y000686D01*
X000510Y000524D01*
X000510Y000617D02*
X000380Y000617D01*
X000380Y000665D02*
X000510Y000665D01*
X000538Y000714D02*
X000380Y000714D01*
X000380Y000762D02*
X000586Y000762D01*
X000824Y000762D02*
X001586Y000762D01*
X001624Y000800D02*
X001510Y000686D01*
X001510Y000524D01*
X001624Y000410D01*
X001786Y000410D01*
X001900Y000524D01*
X001900Y000686D01*
X001786Y000800D01*
X001624Y000800D01*
X001538Y000714D02*
X000872Y000714D01*
X000900Y000665D02*
X001510Y000665D01*
X001510Y000617D02*
X000900Y000617D01*
X000900Y000568D02*
X001510Y000568D01*
X001515Y000520D02*
X000895Y000520D01*
X000847Y000471D02*
X001563Y000471D01*
X001612Y000423D02*
X000798Y000423D01*
X000508Y000374D02*
X003160Y000374D01*
X003112Y000423D02*
X002873Y000423D01*
X002861Y000410D02*
X002975Y000524D01*
X002975Y000686D01*
X002861Y000800D01*
X002699Y000800D01*
X002585Y000686D01*
X002585Y000524D01*
X002699Y000410D01*
X002861Y000410D01*
X002922Y000471D02*
X003110Y000471D01*
X003110Y000520D02*
X002970Y000520D01*
X002975Y000568D02*
X003110Y000568D01*
X003141Y000617D02*
X002975Y000617D01*
X002975Y000665D02*
X003189Y000665D01*
X002947Y000714D02*
X008980Y000714D01*
X008980Y000762D02*
X006463Y000762D01*
X006436Y000735D02*
X006550Y000849D01*
X006550Y001011D01*
X006436Y001125D01*
X006274Y001125D01*
X006160Y001011D01*
X006160Y000849D01*
X006274Y000735D01*
X006436Y000735D01*
X006511Y000811D02*
X008980Y000811D01*
X008980Y000859D02*
X006550Y000859D01*
X006550Y000908D02*
X008980Y000908D01*
X008980Y000956D02*
X006550Y000956D01*
X006550Y001005D02*
X008980Y001005D01*
X008980Y001053D02*
X006508Y001053D01*
X006459Y001102D02*
X008980Y001102D01*
X008980Y001150D02*
X000380Y001150D01*
X000380Y001102D02*
X006251Y001102D01*
X006202Y001053D02*
X000380Y001053D01*
X000380Y001005D02*
X006160Y001005D01*
X006160Y000956D02*
X000380Y000956D01*
X000380Y000908D02*
X006160Y000908D01*
X006160Y000859D02*
X000380Y000859D01*
X000380Y000811D02*
X006199Y000811D01*
X006247Y000762D02*
X002899Y000762D01*
X002661Y000762D02*
X001824Y000762D01*
X001872Y000714D02*
X002613Y000714D01*
X002585Y000665D02*
X001900Y000665D01*
X001900Y000617D02*
X002585Y000617D01*
X002585Y000568D02*
X001900Y000568D01*
X001895Y000520D02*
X002590Y000520D01*
X002638Y000471D02*
X001847Y000471D01*
X001798Y000423D02*
X002687Y000423D01*
X003450Y000374D02*
X006710Y000374D01*
X006662Y000423D02*
X003498Y000423D01*
X003500Y000471D02*
X006660Y000471D01*
X006660Y000520D02*
X003500Y000520D01*
X003500Y000568D02*
X006660Y000568D01*
X006691Y000617D02*
X003469Y000617D01*
X003421Y000665D02*
X006739Y000665D01*
X006971Y000665D02*
X008980Y000665D01*
X008980Y000617D02*
X007019Y000617D01*
X007050Y000568D02*
X008980Y000568D01*
X008980Y000520D02*
X007050Y000520D01*
X007050Y000471D02*
X008949Y000471D01*
X008900Y000423D02*
X007048Y000423D01*
X007000Y000374D02*
X008852Y000374D01*
X008980Y001199D02*
X005549Y001199D01*
X005536Y001185D02*
X005650Y001299D01*
X005650Y001461D01*
X005536Y001575D01*
X005374Y001575D01*
X005260Y001461D01*
X005260Y001299D01*
X005374Y001185D01*
X005536Y001185D01*
X005598Y001247D02*
X008980Y001247D01*
X008980Y001296D02*
X005646Y001296D01*
X005650Y001344D02*
X008980Y001344D01*
X008980Y001393D02*
X005650Y001393D01*
X005650Y001441D02*
X008980Y001441D01*
X008980Y001490D02*
X005621Y001490D01*
X005573Y001538D02*
X008980Y001538D01*
X008980Y001587D02*
X000900Y001587D01*
X000900Y001635D02*
X008980Y001635D01*
X008980Y001684D02*
X000900Y001684D01*
X000900Y001686D02*
X000786Y001800D01*
X000624Y001800D01*
X000510Y001686D01*
X000510Y001524D01*
X000624Y001410D01*
X000786Y001410D01*
X000900Y001524D01*
X000900Y001686D01*
X000854Y001732D02*
X008980Y001732D01*
X008980Y001781D02*
X000805Y001781D01*
X000605Y001781D02*
X000380Y001781D01*
X000380Y001829D02*
X008980Y001829D01*
X008980Y001878D02*
X000380Y001878D01*
X000380Y001926D02*
X008980Y001926D01*
X008980Y001975D02*
X000380Y001975D01*
X000380Y002023D02*
X008980Y002023D01*
X008980Y002072D02*
X000380Y002072D01*
X000380Y002120D02*
X003152Y002120D01*
X003187Y002085D02*
X003348Y002085D01*
X003462Y002199D01*
X003462Y002361D01*
X003348Y002475D01*
X003187Y002475D01*
X003073Y002361D01*
X003073Y002199D01*
X003187Y002085D01*
X003103Y002169D02*
X000380Y002169D01*
X000380Y002217D02*
X003073Y002217D01*
X003073Y002266D02*
X000380Y002266D01*
X000380Y002314D02*
X003073Y002314D01*
X003074Y002363D02*
X000380Y002363D01*
X000380Y002411D02*
X003123Y002411D01*
X003171Y002460D02*
X000380Y002460D01*
X000380Y002508D02*
X006701Y002508D01*
X006660Y002549D02*
X006774Y002435D01*
X006936Y002435D01*
X007050Y002549D01*
X007050Y002711D01*
X006936Y002825D01*
X006774Y002825D01*
X006660Y002711D01*
X006660Y002549D01*
X006660Y002557D02*
X003507Y002557D01*
X003486Y002535D02*
X003600Y002649D01*
X003600Y002811D01*
X003486Y002925D01*
X003324Y002925D01*
X003210Y002811D01*
X003210Y002649D01*
X003324Y002535D01*
X003486Y002535D01*
X003556Y002605D02*
X006660Y002605D01*
X006660Y002654D02*
X003600Y002654D01*
X003600Y002702D02*
X006660Y002702D01*
X006700Y002751D02*
X003600Y002751D01*
X003600Y002799D02*
X006748Y002799D01*
X006962Y002799D02*
X008980Y002799D01*
X008980Y002751D02*
X007010Y002751D01*
X007050Y002702D02*
X008980Y002702D01*
X008980Y002654D02*
X007050Y002654D01*
X007050Y002605D02*
X008980Y002605D01*
X008980Y002557D02*
X007050Y002557D01*
X007009Y002508D02*
X008980Y002508D01*
X008980Y002460D02*
X006960Y002460D01*
X006750Y002460D02*
X003364Y002460D01*
X003412Y002411D02*
X008980Y002411D01*
X008980Y002363D02*
X003461Y002363D01*
X003462Y002314D02*
X008980Y002314D01*
X008980Y002266D02*
X003462Y002266D01*
X003462Y002217D02*
X008980Y002217D01*
X008980Y002169D02*
X003432Y002169D01*
X003383Y002120D02*
X008980Y002120D01*
X008980Y002848D02*
X003563Y002848D01*
X003515Y002896D02*
X008980Y002896D01*
X008980Y002945D02*
X000380Y002945D01*
X000380Y002993D02*
X008980Y002993D01*
X008980Y003042D02*
X008296Y003042D01*
X008354Y003066D02*
X008454Y003165D01*
X008507Y003294D01*
X008507Y003434D01*
X008454Y003564D01*
X008354Y003663D01*
X008225Y003717D01*
X008085Y003717D01*
X007956Y003663D01*
X007856Y003564D01*
X007803Y003434D01*
X007803Y003294D01*
X007856Y003165D01*
X007956Y003066D01*
X008085Y003012D01*
X008225Y003012D01*
X008354Y003066D01*
X008379Y003090D02*
X008980Y003090D01*
X008980Y003139D02*
X008427Y003139D01*
X008463Y003187D02*
X008980Y003187D01*
X008980Y003236D02*
X008483Y003236D01*
X008503Y003284D02*
X008980Y003284D01*
X008980Y003333D02*
X008507Y003333D01*
X008507Y003381D02*
X008980Y003381D01*
X008980Y003430D02*
X008805Y003430D01*
X008786Y003410D02*
X008900Y003524D01*
X008900Y003686D01*
X008786Y003800D01*
X008624Y003800D01*
X008510Y003686D01*
X008510Y003524D01*
X008624Y003410D01*
X008786Y003410D01*
X008854Y003478D02*
X008980Y003478D01*
X008980Y003527D02*
X008900Y003527D01*
X008900Y003575D02*
X008980Y003575D01*
X008980Y003624D02*
X008900Y003624D01*
X008900Y003672D02*
X008980Y003672D01*
X008980Y003721D02*
X008865Y003721D01*
X008817Y003769D02*
X008980Y003769D01*
X008980Y003818D02*
X003956Y003818D01*
X003923Y003785D02*
X004037Y003899D01*
X004037Y004034D01*
X004062Y004010D01*
X004223Y004010D01*
X004337Y004124D01*
X004337Y004284D01*
X004387Y004235D01*
X004548Y004235D01*
X004662Y004349D01*
X004662Y004511D01*
X004548Y004625D01*
X004387Y004625D01*
X004273Y004511D01*
X004273Y004351D01*
X004272Y004351D01*
X004273Y004351D02*
X004223Y004400D01*
X004062Y004400D01*
X003948Y004286D01*
X003948Y004151D01*
X003923Y004175D01*
X003762Y004175D01*
X003648Y004061D01*
X003648Y003951D01*
X003623Y003975D01*
X003462Y003975D01*
X003348Y003861D01*
X003348Y003699D01*
X003462Y003585D01*
X003623Y003585D01*
X003737Y003699D01*
X003737Y003809D01*
X003762Y003785D01*
X003923Y003785D01*
X004004Y003866D02*
X008980Y003866D01*
X008980Y003915D02*
X004037Y003915D01*
X004037Y003963D02*
X008980Y003963D01*
X008980Y004012D02*
X004225Y004012D01*
X004273Y004060D02*
X008980Y004060D01*
X008980Y004109D02*
X004322Y004109D01*
X004337Y004157D02*
X008980Y004157D01*
X008980Y004206D02*
X008254Y004206D01*
X008225Y004193D02*
X008085Y004193D01*
X007956Y004247D01*
X007856Y004346D01*
X007803Y004476D01*
X007803Y004616D01*
X007856Y004745D01*
X007956Y004844D01*
X008085Y004898D01*
X008225Y004898D01*
X008354Y004844D01*
X008454Y004745D01*
X008507Y004616D01*
X008507Y004476D01*
X008454Y004346D01*
X008354Y004247D01*
X008225Y004193D01*
X008362Y004254D02*
X008980Y004254D01*
X008980Y004303D02*
X008410Y004303D01*
X008456Y004351D02*
X008980Y004351D01*
X008980Y004400D02*
X008476Y004400D01*
X008496Y004448D02*
X008586Y004448D01*
X008624Y004410D02*
X008786Y004410D01*
X008900Y004524D01*
X008900Y004686D01*
X008786Y004800D01*
X008624Y004800D01*
X008510Y004686D01*
X008510Y004524D01*
X008624Y004410D01*
X008538Y004497D02*
X008507Y004497D01*
X008507Y004545D02*
X008510Y004545D01*
X008507Y004594D02*
X008510Y004594D01*
X008510Y004642D02*
X008496Y004642D01*
X008476Y004691D02*
X008515Y004691D01*
X008563Y004739D02*
X008456Y004739D01*
X008411Y004788D02*
X008612Y004788D01*
X008798Y004788D02*
X008980Y004788D01*
X008980Y004836D02*
X008363Y004836D01*
X008257Y004885D02*
X008980Y004885D01*
X008980Y004933D02*
X005019Y004933D01*
X005047Y004962D02*
X004986Y004900D01*
X004898Y004813D01*
X004224Y004813D01*
X004163Y004874D01*
X004075Y004962D01*
X004075Y005009D01*
X003985Y005099D01*
X003985Y005261D01*
X004099Y005375D01*
X004261Y005375D01*
X004374Y005262D01*
X004487Y005375D01*
X004648Y005375D01*
X004755Y005268D01*
X004862Y005375D01*
X005023Y005375D01*
X005137Y005261D01*
X005137Y005099D01*
X005047Y005009D01*
X005047Y004962D01*
X005047Y004982D02*
X008980Y004982D01*
X008980Y005030D02*
X005068Y005030D01*
X005117Y005079D02*
X008980Y005079D01*
X008980Y005127D02*
X007328Y005127D01*
X007311Y005110D02*
X007425Y005224D01*
X008980Y005224D01*
X008980Y005176D02*
X007376Y005176D01*
X007425Y005224D02*
X007425Y005386D01*
X007311Y005500D01*
X007149Y005500D01*
X007035Y005386D01*
X007035Y005224D01*
X005137Y005224D01*
X005137Y005176D02*
X007084Y005176D01*
X007132Y005127D02*
X005137Y005127D01*
X005126Y005273D02*
X007035Y005273D01*
X007035Y005321D02*
X005077Y005321D01*
X005029Y005370D02*
X007035Y005370D01*
X007067Y005418D02*
X000380Y005418D01*
X000380Y005370D02*
X000594Y005370D01*
X000624Y005400D02*
X000510Y005286D01*
X000510Y005124D01*
X000624Y005010D01*
X000786Y005010D01*
X000900Y005124D01*
X000900Y005286D01*
X000786Y005400D01*
X000624Y005400D01*
X000545Y005321D02*
X000380Y005321D01*
X000380Y005273D02*
X000510Y005273D01*
X000510Y005224D02*
X000380Y005224D01*
X000380Y005176D02*
X000510Y005176D01*
X000510Y005127D02*
X000380Y005127D01*
X000380Y005079D02*
X000556Y005079D01*
X000604Y005030D02*
X000380Y005030D01*
X000380Y004982D02*
X004075Y004982D01*
X004054Y005030D02*
X001806Y005030D01*
X001786Y005010D02*
X001900Y005124D01*
X001900Y005286D01*
X001786Y005400D01*
X001624Y005400D01*
X001510Y005286D01*
X001510Y005124D01*
X001624Y005010D01*
X001786Y005010D01*
X001854Y005079D02*
X004006Y005079D01*
X003985Y005127D02*
X001900Y005127D01*
X001900Y005176D02*
X003985Y005176D01*
X003985Y005224D02*
X001900Y005224D01*
X001900Y005273D02*
X003997Y005273D01*
X004045Y005321D02*
X001865Y005321D01*
X001816Y005370D02*
X004094Y005370D01*
X004266Y005370D02*
X004481Y005370D01*
X004433Y005321D02*
X004315Y005321D01*
X004363Y005273D02*
X004384Y005273D01*
X004654Y005370D02*
X004856Y005370D01*
X004808Y005321D02*
X004702Y005321D01*
X004751Y005273D02*
X004759Y005273D01*
X004971Y004885D02*
X008053Y004885D01*
X007947Y004836D02*
X004922Y004836D01*
X004628Y004545D02*
X007803Y004545D01*
X007803Y004497D02*
X004662Y004497D01*
X004662Y004448D02*
X007814Y004448D01*
X007834Y004400D02*
X004662Y004400D01*
X004662Y004351D02*
X007854Y004351D01*
X007900Y004303D02*
X004616Y004303D01*
X004567Y004254D02*
X007948Y004254D01*
X008056Y004206D02*
X004337Y004206D01*
X004337Y004254D02*
X004368Y004254D01*
X004273Y004400D02*
X004224Y004400D01*
X004273Y004448D02*
X000380Y004448D01*
X000380Y004400D02*
X000624Y004400D01*
X000510Y004286D01*
X000510Y004124D01*
X000624Y004010D01*
X000786Y004010D01*
X000900Y004124D01*
X000900Y004286D01*
X000786Y004400D01*
X000624Y004400D01*
X000575Y004351D02*
X000380Y004351D01*
X000380Y004303D02*
X000527Y004303D01*
X000510Y004254D02*
X000380Y004254D01*
X000380Y004206D02*
X000510Y004206D01*
X000510Y004157D02*
X000380Y004157D01*
X000380Y004109D02*
X000526Y004109D01*
X000574Y004060D02*
X000380Y004060D01*
X000380Y004012D02*
X000623Y004012D01*
X000787Y004012D02*
X003648Y004012D01*
X003648Y004060D02*
X000836Y004060D01*
X000884Y004109D02*
X003695Y004109D01*
X003744Y004157D02*
X000900Y004157D01*
X000900Y004206D02*
X003948Y004206D01*
X003948Y004254D02*
X000900Y004254D01*
X000883Y004303D02*
X003964Y004303D01*
X004013Y004351D02*
X000835Y004351D01*
X000786Y004400D02*
X004061Y004400D01*
X004273Y004497D02*
X000380Y004497D01*
X000380Y004545D02*
X001089Y004545D01*
X001124Y004510D02*
X001286Y004510D01*
X001400Y004624D01*
X001400Y004786D01*
X001286Y004900D01*
X001124Y004900D01*
X001010Y004786D01*
X001010Y004624D01*
X001124Y004510D01*
X001041Y004594D02*
X000380Y004594D01*
X000380Y004642D02*
X001010Y004642D01*
X001010Y004691D02*
X000380Y004691D01*
X000380Y004739D02*
X001010Y004739D01*
X001012Y004788D02*
X000380Y004788D01*
X000380Y004836D02*
X001060Y004836D01*
X001109Y004885D02*
X000380Y004885D01*
X000380Y004933D02*
X004103Y004933D01*
X004152Y004885D02*
X001301Y004885D01*
X001350Y004836D02*
X004200Y004836D01*
X004355Y004594D02*
X001369Y004594D01*
X001400Y004642D02*
X007814Y004642D01*
X007803Y004594D02*
X004580Y004594D01*
X004307Y004545D02*
X001321Y004545D01*
X001400Y004691D02*
X007834Y004691D01*
X007854Y004739D02*
X001400Y004739D01*
X001398Y004788D02*
X007899Y004788D01*
X007425Y005273D02*
X008980Y005273D01*
X008980Y005321D02*
X007425Y005321D01*
X007425Y005370D02*
X008980Y005370D01*
X008980Y005418D02*
X007393Y005418D01*
X007344Y005467D02*
X008980Y005467D01*
X008980Y005515D02*
X007391Y005515D01*
X007439Y005564D02*
X008980Y005564D01*
X008980Y005612D02*
X007488Y005612D01*
X007500Y005661D02*
X008980Y005661D01*
X008980Y005709D02*
X007500Y005709D01*
X007500Y005758D02*
X008980Y005758D01*
X008980Y004739D02*
X008847Y004739D01*
X008895Y004691D02*
X008980Y004691D01*
X008980Y004642D02*
X008900Y004642D01*
X008900Y004594D02*
X008980Y004594D01*
X008980Y004545D02*
X008900Y004545D01*
X008872Y004497D02*
X008980Y004497D01*
X008980Y004448D02*
X008824Y004448D01*
X008593Y003769D02*
X007617Y003769D01*
X007586Y003800D02*
X007700Y003686D01*
X007700Y003524D01*
X007586Y003410D01*
X007424Y003410D01*
X007310Y003524D01*
X007310Y003686D01*
X007424Y003800D01*
X007586Y003800D01*
X007665Y003721D02*
X008545Y003721D01*
X008510Y003672D02*
X008333Y003672D01*
X008394Y003624D02*
X008510Y003624D01*
X008510Y003575D02*
X008442Y003575D01*
X008469Y003527D02*
X008510Y003527D01*
X008489Y003478D02*
X008556Y003478D01*
X008507Y003430D02*
X008605Y003430D01*
X008014Y003042D02*
X000380Y003042D01*
X000380Y003090D02*
X000619Y003090D01*
X000624Y003085D02*
X000786Y003085D01*
X000900Y003199D01*
X000900Y003361D01*
X000786Y003475D01*
X000624Y003475D01*
X000510Y003361D01*
X000510Y003199D01*
X000624Y003085D01*
X000571Y003139D02*
X000380Y003139D01*
X000380Y003187D02*
X000522Y003187D01*
X000510Y003236D02*
X000380Y003236D01*
X000380Y003284D02*
X000510Y003284D01*
X000510Y003333D02*
X000380Y003333D01*
X000380Y003381D02*
X000530Y003381D01*
X000579Y003430D02*
X000380Y003430D01*
X000380Y003478D02*
X007356Y003478D01*
X007310Y003527D02*
X000380Y003527D01*
X000380Y003575D02*
X007310Y003575D01*
X007310Y003624D02*
X003662Y003624D01*
X003710Y003672D02*
X007310Y003672D01*
X007345Y003721D02*
X003737Y003721D01*
X003737Y003769D02*
X007393Y003769D01*
X007405Y003430D02*
X000831Y003430D01*
X000880Y003381D02*
X007803Y003381D01*
X007803Y003333D02*
X000900Y003333D01*
X000900Y003284D02*
X007807Y003284D01*
X007827Y003236D02*
X000900Y003236D01*
X000888Y003187D02*
X007847Y003187D01*
X007883Y003139D02*
X000839Y003139D01*
X000791Y003090D02*
X007931Y003090D01*
X007803Y003430D02*
X007605Y003430D01*
X007654Y003478D02*
X007821Y003478D01*
X007841Y003527D02*
X007700Y003527D01*
X007700Y003575D02*
X007868Y003575D01*
X007916Y003624D02*
X007700Y003624D01*
X007700Y003672D02*
X007977Y003672D01*
X007311Y005110D02*
X007149Y005110D01*
X007035Y005224D01*
X007116Y005467D02*
X000380Y005467D01*
X000380Y005515D02*
X007219Y005515D01*
X007171Y005564D02*
X000380Y005564D01*
X000380Y005612D02*
X007122Y005612D01*
X007110Y005661D02*
X001886Y005661D01*
X001935Y005709D02*
X007110Y005709D01*
X007110Y005758D02*
X005883Y005758D01*
X005627Y005758D02*
X001983Y005758D01*
X001724Y005661D02*
X000380Y005661D01*
X000380Y005709D02*
X001675Y005709D01*
X001627Y005758D02*
X000380Y005758D01*
X000816Y005370D02*
X001594Y005370D01*
X001545Y005321D02*
X000865Y005321D01*
X000900Y005273D02*
X001510Y005273D01*
X001510Y005224D02*
X000900Y005224D01*
X000900Y005176D02*
X001510Y005176D01*
X001510Y005127D02*
X000900Y005127D01*
X000854Y005079D02*
X001556Y005079D01*
X001604Y005030D02*
X000806Y005030D01*
X000380Y003963D02*
X003450Y003963D01*
X003401Y003915D02*
X000380Y003915D01*
X000380Y003866D02*
X003353Y003866D01*
X003348Y003818D02*
X000380Y003818D01*
X000380Y003769D02*
X003348Y003769D01*
X003348Y003721D02*
X000380Y003721D01*
X000380Y003672D02*
X003375Y003672D01*
X003423Y003624D02*
X000380Y003624D01*
X000380Y002896D02*
X003295Y002896D01*
X003247Y002848D02*
X000380Y002848D01*
X000380Y002799D02*
X003210Y002799D01*
X003210Y002751D02*
X000380Y002751D01*
X000380Y002702D02*
X003210Y002702D01*
X003210Y002654D02*
X000380Y002654D01*
X000380Y002605D02*
X003254Y002605D01*
X003303Y002557D02*
X000380Y002557D01*
X000380Y001732D02*
X000556Y001732D01*
X000510Y001684D02*
X000380Y001684D01*
X000380Y001635D02*
X000510Y001635D01*
X000510Y001587D02*
X000380Y001587D01*
X000380Y001538D02*
X000510Y001538D01*
X000545Y001490D02*
X000380Y001490D01*
X000380Y001441D02*
X000593Y001441D01*
X000817Y001441D02*
X004260Y001441D01*
X004260Y001461D02*
X004260Y001299D01*
X004374Y001185D01*
X004536Y001185D01*
X004650Y001299D01*
X004650Y001461D01*
X004536Y001575D01*
X004374Y001575D01*
X004260Y001461D01*
X004289Y001490D02*
X000865Y001490D01*
X000900Y001538D02*
X004337Y001538D01*
X004260Y001393D02*
X000380Y001393D01*
X000380Y001344D02*
X004260Y001344D01*
X004264Y001296D02*
X000380Y001296D01*
X000380Y001247D02*
X004312Y001247D01*
X004361Y001199D02*
X000380Y001199D01*
X003635Y003963D02*
X003648Y003963D01*
X003941Y004157D02*
X003948Y004157D01*
X004037Y004012D02*
X004060Y004012D01*
X003405Y005806D02*
X005578Y005806D01*
X005560Y005855D02*
X003405Y005855D01*
X003405Y005903D02*
X005560Y005903D01*
X005560Y005952D02*
X003405Y005952D01*
X003405Y006000D02*
X005574Y006000D01*
X005623Y006049D02*
X003405Y006049D01*
X003405Y006097D02*
X005671Y006097D01*
X005705Y006146D02*
X003405Y006146D01*
X003405Y006194D02*
X005705Y006194D01*
X005705Y006243D02*
X003405Y006243D01*
X003405Y006291D02*
X005705Y006291D01*
X005705Y006340D02*
X003405Y006340D01*
X003405Y006388D02*
X005705Y006388D01*
X005705Y006437D02*
X003405Y006437D01*
X003405Y006485D02*
X005705Y006485D01*
X005705Y006534D02*
X003405Y006534D01*
X003405Y006582D02*
X005705Y006582D01*
X005705Y006631D02*
X003405Y006631D01*
X003405Y006679D02*
X005705Y006679D01*
X005705Y006728D02*
X003405Y006728D01*
X003405Y006776D02*
X005705Y006776D01*
X005705Y006825D02*
X003405Y006825D01*
X003405Y006873D02*
X005705Y006873D01*
X005705Y006922D02*
X003405Y006922D01*
X003405Y006970D02*
X005705Y006970D01*
X005705Y007019D02*
X003405Y007019D01*
X003405Y007067D02*
X005705Y007067D01*
X005705Y007116D02*
X003405Y007116D01*
X003405Y007164D02*
X005705Y007164D01*
X005705Y007213D02*
X003405Y007213D01*
X003405Y007261D02*
X005705Y007261D01*
X005705Y007310D02*
X003405Y007310D01*
X003405Y007358D02*
X005705Y007358D01*
X005705Y007407D02*
X003405Y007407D01*
X003405Y007455D02*
X005705Y007455D01*
X005705Y007504D02*
X003405Y007504D01*
X003405Y007552D02*
X005705Y007552D01*
X005705Y007601D02*
X003405Y007601D01*
X004573Y001538D02*
X005337Y001538D01*
X005289Y001490D02*
X004621Y001490D01*
X004650Y001441D02*
X005260Y001441D01*
X005260Y001393D02*
X004650Y001393D01*
X004650Y001344D02*
X005260Y001344D01*
X005264Y001296D02*
X004646Y001296D01*
X004598Y001247D02*
X005312Y001247D01*
X005361Y001199D02*
X004549Y001199D01*
D14*
X004268Y004918D02*
X004855Y004918D01*
X004943Y005005D01*
X004943Y005180D01*
X004268Y004918D02*
X004180Y005005D01*
X004180Y005180D01*
M02*
