G75*
%MOIN*%
%OFA0B0*%
%FSLAX25Y25*%
%IPPOS*%
%LPD*%
%AMOC8*
5,1,8,0,0,1.08239X$1,22.5*
%
%ADD10C,0.05518*%
%ADD11C,0.02762*%
%ADD12C,0.01969*%
%ADD13C,0.03353*%
%ADD14R,0.01187X0.06857*%
D10*
X0100025Y0135458D03*
X0100025Y0182702D03*
X0153175Y0148254D03*
X0164986Y0148254D03*
X0218135Y0135458D03*
X0218135Y0182702D03*
X0296876Y0182702D03*
X0296876Y0135458D03*
X0350025Y0148254D03*
X0361836Y0148254D03*
X0414986Y0135458D03*
X0414986Y0182702D03*
X0493726Y0182702D03*
X0493726Y0135458D03*
X0546876Y0148254D03*
X0558687Y0148254D03*
X0611836Y0135458D03*
X0611836Y0182702D03*
X0611836Y0332309D03*
X0611836Y0379553D03*
X0558687Y0345104D03*
X0546876Y0345104D03*
X0493726Y0332309D03*
X0493726Y0379553D03*
X0414986Y0379553D03*
X0414986Y0332309D03*
X0361836Y0345104D03*
X0350025Y0345104D03*
X0296876Y0332309D03*
X0296876Y0379553D03*
X0218135Y0379553D03*
X0218135Y0332309D03*
X0164986Y0345104D03*
X0153175Y0345104D03*
X0100025Y0332309D03*
X0100025Y0379553D03*
X0100025Y0529159D03*
X0100025Y0576403D03*
X0153175Y0541954D03*
X0164986Y0541954D03*
X0218135Y0529159D03*
X0218135Y0576403D03*
X0296876Y0576403D03*
X0296876Y0529159D03*
X0350025Y0541954D03*
X0361836Y0541954D03*
X0414986Y0529159D03*
X0414986Y0576403D03*
X0493726Y0576403D03*
X0493726Y0529159D03*
X0546876Y0541954D03*
X0558687Y0541954D03*
X0611836Y0529159D03*
X0611836Y0576403D03*
D11*
X0612865Y0607691D03*
X0610221Y0610221D03*
X0607691Y0612865D03*
X0612356Y0617924D03*
X0615140Y0615140D03*
X0617924Y0612356D03*
X0495342Y0495342D03*
X0492697Y0497871D03*
X0487638Y0493206D03*
X0490422Y0490422D03*
X0493206Y0487638D03*
X0497871Y0492697D03*
X0421074Y0415506D03*
X0418290Y0418290D03*
X0415506Y0421074D03*
X0410841Y0416015D03*
X0413370Y0413370D03*
X0416015Y0410841D03*
X0492697Y0301021D03*
X0495342Y0298491D03*
X0497871Y0295847D03*
X0493206Y0290788D03*
X0490422Y0293572D03*
X0487638Y0296356D03*
X0415506Y0224223D03*
X0418290Y0221439D03*
X0421074Y0218655D03*
X0416015Y0213990D03*
X0413370Y0216520D03*
X0410841Y0219164D03*
X0301021Y0295847D03*
X0298491Y0298491D03*
X0295847Y0301021D03*
X0290788Y0296356D03*
X0293572Y0293572D03*
X0296356Y0290788D03*
X0224223Y0218655D03*
X0221439Y0221439D03*
X0218655Y0224223D03*
X0213990Y0219164D03*
X0216520Y0216520D03*
X0219164Y0213990D03*
X0295847Y0104170D03*
X0298491Y0101641D03*
X0301021Y0098996D03*
X0296356Y0093937D03*
X0293572Y0096721D03*
X0290788Y0099505D03*
X0104170Y0098996D03*
X0101641Y0101641D03*
X0098996Y0104170D03*
X0093937Y0099505D03*
X0096721Y0096721D03*
X0099505Y0093937D03*
X0099505Y0290788D03*
X0096721Y0293572D03*
X0093937Y0296356D03*
X0098996Y0301021D03*
X0101641Y0298491D03*
X0104170Y0295847D03*
X0219164Y0410841D03*
X0216520Y0413370D03*
X0213990Y0416015D03*
X0218655Y0421074D03*
X0221439Y0418290D03*
X0224223Y0415506D03*
X0296356Y0487638D03*
X0293572Y0490422D03*
X0290788Y0493206D03*
X0295847Y0497871D03*
X0298491Y0495342D03*
X0301021Y0492697D03*
X0219164Y0607691D03*
X0216520Y0610221D03*
X0213990Y0612865D03*
X0218655Y0617924D03*
X0221439Y0615140D03*
X0224223Y0612356D03*
X0101641Y0495342D03*
X0098996Y0497871D03*
X0093937Y0493206D03*
X0096721Y0490422D03*
X0099505Y0487638D03*
X0104170Y0492697D03*
X0410841Y0612865D03*
X0413370Y0610221D03*
X0416015Y0607691D03*
X0421074Y0612356D03*
X0418290Y0615140D03*
X0415506Y0617924D03*
X0612356Y0421074D03*
X0615140Y0418290D03*
X0617924Y0415506D03*
X0612865Y0410841D03*
X0610221Y0413370D03*
X0607691Y0416015D03*
X0612356Y0224223D03*
X0615140Y0221439D03*
X0617924Y0218655D03*
X0612865Y0213990D03*
X0610221Y0216520D03*
X0607691Y0219164D03*
X0495342Y0101641D03*
X0497871Y0098996D03*
X0493206Y0093937D03*
X0490422Y0096721D03*
X0487638Y0099505D03*
X0492697Y0104170D03*
D12*
X0020301Y0040970D02*
X0020303Y0041032D01*
X0020309Y0041095D01*
X0020319Y0041156D01*
X0020333Y0041217D01*
X0020350Y0041277D01*
X0020371Y0041336D01*
X0020397Y0041393D01*
X0020425Y0041448D01*
X0020457Y0041502D01*
X0020493Y0041553D01*
X0020531Y0041603D01*
X0020573Y0041649D01*
X0020617Y0041693D01*
X0020665Y0041734D01*
X0020714Y0041772D01*
X0020766Y0041806D01*
X0020820Y0041837D01*
X0020876Y0041865D01*
X0020934Y0041889D01*
X0020993Y0041910D01*
X0021053Y0041926D01*
X0021114Y0041939D01*
X0021176Y0041948D01*
X0021238Y0041953D01*
X0021301Y0041954D01*
X0021363Y0041951D01*
X0021425Y0041944D01*
X0021487Y0041933D01*
X0021547Y0041918D01*
X0021607Y0041900D01*
X0021665Y0041878D01*
X0021722Y0041852D01*
X0021777Y0041822D01*
X0021830Y0041789D01*
X0021881Y0041753D01*
X0021929Y0041714D01*
X0021975Y0041671D01*
X0022018Y0041626D01*
X0022058Y0041578D01*
X0022095Y0041528D01*
X0022129Y0041475D01*
X0022160Y0041421D01*
X0022186Y0041365D01*
X0022210Y0041307D01*
X0022229Y0041247D01*
X0022245Y0041187D01*
X0022257Y0041125D01*
X0022265Y0041064D01*
X0022269Y0041001D01*
X0022269Y0040939D01*
X0022265Y0040876D01*
X0022257Y0040815D01*
X0022245Y0040753D01*
X0022229Y0040693D01*
X0022210Y0040633D01*
X0022186Y0040575D01*
X0022160Y0040519D01*
X0022129Y0040465D01*
X0022095Y0040412D01*
X0022058Y0040362D01*
X0022018Y0040314D01*
X0021975Y0040269D01*
X0021929Y0040226D01*
X0021881Y0040187D01*
X0021830Y0040151D01*
X0021777Y0040118D01*
X0021722Y0040088D01*
X0021665Y0040062D01*
X0021607Y0040040D01*
X0021547Y0040022D01*
X0021487Y0040007D01*
X0021425Y0039996D01*
X0021363Y0039989D01*
X0021301Y0039986D01*
X0021238Y0039987D01*
X0021176Y0039992D01*
X0021114Y0040001D01*
X0021053Y0040014D01*
X0020993Y0040030D01*
X0020934Y0040051D01*
X0020876Y0040075D01*
X0020820Y0040103D01*
X0020766Y0040134D01*
X0020714Y0040168D01*
X0020665Y0040206D01*
X0020617Y0040247D01*
X0020573Y0040291D01*
X0020531Y0040337D01*
X0020493Y0040387D01*
X0020457Y0040438D01*
X0020425Y0040492D01*
X0020397Y0040547D01*
X0020371Y0040604D01*
X0020350Y0040663D01*
X0020333Y0040723D01*
X0020319Y0040784D01*
X0020309Y0040845D01*
X0020303Y0040908D01*
X0020301Y0040970D01*
X0654159Y0663017D02*
X0654161Y0663079D01*
X0654167Y0663142D01*
X0654177Y0663203D01*
X0654191Y0663264D01*
X0654208Y0663324D01*
X0654229Y0663383D01*
X0654255Y0663440D01*
X0654283Y0663495D01*
X0654315Y0663549D01*
X0654351Y0663600D01*
X0654389Y0663650D01*
X0654431Y0663696D01*
X0654475Y0663740D01*
X0654523Y0663781D01*
X0654572Y0663819D01*
X0654624Y0663853D01*
X0654678Y0663884D01*
X0654734Y0663912D01*
X0654792Y0663936D01*
X0654851Y0663957D01*
X0654911Y0663973D01*
X0654972Y0663986D01*
X0655034Y0663995D01*
X0655096Y0664000D01*
X0655159Y0664001D01*
X0655221Y0663998D01*
X0655283Y0663991D01*
X0655345Y0663980D01*
X0655405Y0663965D01*
X0655465Y0663947D01*
X0655523Y0663925D01*
X0655580Y0663899D01*
X0655635Y0663869D01*
X0655688Y0663836D01*
X0655739Y0663800D01*
X0655787Y0663761D01*
X0655833Y0663718D01*
X0655876Y0663673D01*
X0655916Y0663625D01*
X0655953Y0663575D01*
X0655987Y0663522D01*
X0656018Y0663468D01*
X0656044Y0663412D01*
X0656068Y0663354D01*
X0656087Y0663294D01*
X0656103Y0663234D01*
X0656115Y0663172D01*
X0656123Y0663111D01*
X0656127Y0663048D01*
X0656127Y0662986D01*
X0656123Y0662923D01*
X0656115Y0662862D01*
X0656103Y0662800D01*
X0656087Y0662740D01*
X0656068Y0662680D01*
X0656044Y0662622D01*
X0656018Y0662566D01*
X0655987Y0662512D01*
X0655953Y0662459D01*
X0655916Y0662409D01*
X0655876Y0662361D01*
X0655833Y0662316D01*
X0655787Y0662273D01*
X0655739Y0662234D01*
X0655688Y0662198D01*
X0655635Y0662165D01*
X0655580Y0662135D01*
X0655523Y0662109D01*
X0655465Y0662087D01*
X0655405Y0662069D01*
X0655345Y0662054D01*
X0655283Y0662043D01*
X0655221Y0662036D01*
X0655159Y0662033D01*
X0655096Y0662034D01*
X0655034Y0662039D01*
X0654972Y0662048D01*
X0654911Y0662061D01*
X0654851Y0662077D01*
X0654792Y0662098D01*
X0654734Y0662122D01*
X0654678Y0662150D01*
X0654624Y0662181D01*
X0654572Y0662215D01*
X0654523Y0662253D01*
X0654475Y0662294D01*
X0654431Y0662338D01*
X0654389Y0662384D01*
X0654351Y0662434D01*
X0654315Y0662485D01*
X0654283Y0662539D01*
X0654255Y0662594D01*
X0654229Y0662651D01*
X0654208Y0662710D01*
X0654191Y0662770D01*
X0654177Y0662831D01*
X0654167Y0662892D01*
X0654161Y0662955D01*
X0654159Y0663017D01*
X0665970Y0064592D02*
X0665972Y0064654D01*
X0665978Y0064717D01*
X0665988Y0064778D01*
X0666002Y0064839D01*
X0666019Y0064899D01*
X0666040Y0064958D01*
X0666066Y0065015D01*
X0666094Y0065070D01*
X0666126Y0065124D01*
X0666162Y0065175D01*
X0666200Y0065225D01*
X0666242Y0065271D01*
X0666286Y0065315D01*
X0666334Y0065356D01*
X0666383Y0065394D01*
X0666435Y0065428D01*
X0666489Y0065459D01*
X0666545Y0065487D01*
X0666603Y0065511D01*
X0666662Y0065532D01*
X0666722Y0065548D01*
X0666783Y0065561D01*
X0666845Y0065570D01*
X0666907Y0065575D01*
X0666970Y0065576D01*
X0667032Y0065573D01*
X0667094Y0065566D01*
X0667156Y0065555D01*
X0667216Y0065540D01*
X0667276Y0065522D01*
X0667334Y0065500D01*
X0667391Y0065474D01*
X0667446Y0065444D01*
X0667499Y0065411D01*
X0667550Y0065375D01*
X0667598Y0065336D01*
X0667644Y0065293D01*
X0667687Y0065248D01*
X0667727Y0065200D01*
X0667764Y0065150D01*
X0667798Y0065097D01*
X0667829Y0065043D01*
X0667855Y0064987D01*
X0667879Y0064929D01*
X0667898Y0064869D01*
X0667914Y0064809D01*
X0667926Y0064747D01*
X0667934Y0064686D01*
X0667938Y0064623D01*
X0667938Y0064561D01*
X0667934Y0064498D01*
X0667926Y0064437D01*
X0667914Y0064375D01*
X0667898Y0064315D01*
X0667879Y0064255D01*
X0667855Y0064197D01*
X0667829Y0064141D01*
X0667798Y0064087D01*
X0667764Y0064034D01*
X0667727Y0063984D01*
X0667687Y0063936D01*
X0667644Y0063891D01*
X0667598Y0063848D01*
X0667550Y0063809D01*
X0667499Y0063773D01*
X0667446Y0063740D01*
X0667391Y0063710D01*
X0667334Y0063684D01*
X0667276Y0063662D01*
X0667216Y0063644D01*
X0667156Y0063629D01*
X0667094Y0063618D01*
X0667032Y0063611D01*
X0666970Y0063608D01*
X0666907Y0063609D01*
X0666845Y0063614D01*
X0666783Y0063623D01*
X0666722Y0063636D01*
X0666662Y0063652D01*
X0666603Y0063673D01*
X0666545Y0063697D01*
X0666489Y0063725D01*
X0666435Y0063756D01*
X0666383Y0063790D01*
X0666334Y0063828D01*
X0666286Y0063869D01*
X0666242Y0063913D01*
X0666200Y0063959D01*
X0666162Y0064009D01*
X0666126Y0064060D01*
X0666094Y0064114D01*
X0666066Y0064169D01*
X0666040Y0064226D01*
X0666019Y0064285D01*
X0666002Y0064345D01*
X0665988Y0064406D01*
X0665978Y0064467D01*
X0665972Y0064530D01*
X0665970Y0064592D01*
D13*
X0612686Y0114292D03*
X0610343Y0119404D03*
X0606988Y0114928D03*
X0616040Y0119189D03*
X0603560Y0104175D03*
X0598112Y0105857D03*
X0593713Y0102403D03*
X0599052Y0100314D03*
X0587619Y0092904D03*
X0582792Y0095939D03*
X0577649Y0093740D03*
X0582266Y0090340D03*
X0569304Y0086142D03*
X0565427Y0090323D03*
X0559891Y0089530D03*
X0563470Y0085051D03*
X0545672Y0089530D03*
X0540135Y0090323D03*
X0542092Y0085051D03*
X0536258Y0086142D03*
X0527913Y0093740D03*
X0522770Y0095939D03*
X0523296Y0090340D03*
X0517943Y0092904D03*
X0511849Y0102403D03*
X0507450Y0105857D03*
X0506510Y0100314D03*
X0502003Y0104175D03*
X0498575Y0114928D03*
X0495220Y0119404D03*
X0492877Y0114292D03*
X0489522Y0119189D03*
X0489789Y0147269D03*
X0489789Y0159080D03*
X0489789Y0170891D03*
X0490953Y0201155D03*
X0496639Y0200742D03*
X0500148Y0205097D03*
X0494476Y0205932D03*
X0503950Y0215724D03*
X0509335Y0213853D03*
X0513852Y0217152D03*
X0508589Y0219426D03*
X0520274Y0226432D03*
X0524992Y0223231D03*
X0530208Y0225248D03*
X0525713Y0228807D03*
X0538814Y0232551D03*
X0542542Y0228238D03*
X0548103Y0228836D03*
X0544682Y0233437D03*
X0557459Y0228836D03*
X0563020Y0228238D03*
X0560880Y0233437D03*
X0566748Y0232551D03*
X0575354Y0225248D03*
X0580570Y0223231D03*
X0579849Y0228807D03*
X0585288Y0226432D03*
X0591710Y0217152D03*
X0596227Y0213853D03*
X0596973Y0219426D03*
X0601613Y0215724D03*
X0605414Y0205097D03*
X0608923Y0200742D03*
X0611086Y0205932D03*
X0614609Y0201155D03*
X0615773Y0170891D03*
X0615773Y0159080D03*
X0615773Y0147269D03*
X0552781Y0135458D03*
X0552781Y0186639D03*
X0542092Y0281902D03*
X0540135Y0287173D03*
X0545672Y0286381D03*
X0536258Y0282992D03*
X0527913Y0290591D03*
X0522770Y0292789D03*
X0523296Y0287191D03*
X0517943Y0289754D03*
X0506510Y0297164D03*
X0507450Y0302708D03*
X0511849Y0299253D03*
X0502003Y0301026D03*
X0498575Y0311779D03*
X0495220Y0316254D03*
X0492877Y0311143D03*
X0489522Y0316039D03*
X0489789Y0344120D03*
X0489789Y0355931D03*
X0489789Y0367742D03*
X0490953Y0398006D03*
X0496639Y0397592D03*
X0500148Y0401948D03*
X0494476Y0402782D03*
X0503950Y0412574D03*
X0509335Y0410703D03*
X0513852Y0414002D03*
X0508589Y0416276D03*
X0520274Y0423283D03*
X0524992Y0420081D03*
X0530208Y0422099D03*
X0525713Y0425658D03*
X0538814Y0429401D03*
X0542542Y0425088D03*
X0548103Y0425686D03*
X0544682Y0430287D03*
X0557459Y0425686D03*
X0563020Y0425088D03*
X0560880Y0430287D03*
X0566748Y0429401D03*
X0575354Y0422099D03*
X0580570Y0420081D03*
X0579849Y0425658D03*
X0585288Y0423283D03*
X0591710Y0414002D03*
X0596227Y0410703D03*
X0596973Y0416276D03*
X0601613Y0412574D03*
X0605414Y0401948D03*
X0608923Y0397592D03*
X0611086Y0402782D03*
X0614609Y0398006D03*
X0615773Y0367742D03*
X0615773Y0355931D03*
X0615773Y0344120D03*
X0616040Y0316039D03*
X0610343Y0316254D03*
X0606988Y0311779D03*
X0612686Y0311143D03*
X0603560Y0301026D03*
X0598112Y0302708D03*
X0593713Y0299253D03*
X0599052Y0297164D03*
X0587619Y0289754D03*
X0582792Y0292789D03*
X0577649Y0290591D03*
X0582266Y0287191D03*
X0569304Y0282992D03*
X0565427Y0287173D03*
X0559891Y0286381D03*
X0563470Y0281902D03*
X0552781Y0332309D03*
X0552781Y0383490D03*
X0542092Y0478752D03*
X0540135Y0484023D03*
X0545672Y0483231D03*
X0536258Y0479843D03*
X0527913Y0487441D03*
X0522770Y0489639D03*
X0523296Y0484041D03*
X0517943Y0486605D03*
X0511849Y0496104D03*
X0507450Y0499558D03*
X0506510Y0494015D03*
X0502003Y0497876D03*
X0498575Y0508629D03*
X0495220Y0513104D03*
X0492877Y0507993D03*
X0489522Y0512889D03*
X0489789Y0540970D03*
X0489789Y0552781D03*
X0489789Y0564592D03*
X0490953Y0594856D03*
X0496639Y0594443D03*
X0500148Y0598798D03*
X0494476Y0599633D03*
X0503950Y0609425D03*
X0509335Y0607554D03*
X0513852Y0610852D03*
X0508589Y0613127D03*
X0520274Y0620133D03*
X0524992Y0616932D03*
X0530208Y0618949D03*
X0525713Y0622508D03*
X0538814Y0626252D03*
X0542542Y0621938D03*
X0548103Y0622537D03*
X0544682Y0627138D03*
X0557459Y0622537D03*
X0563020Y0621938D03*
X0560880Y0627138D03*
X0566748Y0626252D03*
X0575354Y0618949D03*
X0580570Y0616932D03*
X0579849Y0622508D03*
X0585288Y0620133D03*
X0596973Y0613127D03*
X0596227Y0607554D03*
X0591710Y0610852D03*
X0601613Y0609425D03*
X0605414Y0598798D03*
X0608923Y0594443D03*
X0611086Y0599633D03*
X0614609Y0594856D03*
X0615773Y0564592D03*
X0615773Y0552781D03*
X0615773Y0540970D03*
X0616040Y0512889D03*
X0610343Y0513104D03*
X0606988Y0508629D03*
X0612686Y0507993D03*
X0603560Y0497876D03*
X0598112Y0499558D03*
X0593713Y0496104D03*
X0599052Y0494015D03*
X0587619Y0486605D03*
X0582792Y0489639D03*
X0577649Y0487441D03*
X0582266Y0484041D03*
X0569304Y0479843D03*
X0565427Y0484023D03*
X0559891Y0483231D03*
X0563470Y0478752D03*
X0552781Y0529159D03*
X0552781Y0580340D03*
X0418923Y0564592D03*
X0418923Y0552781D03*
X0418923Y0540970D03*
X0419189Y0512889D03*
X0413492Y0513104D03*
X0410137Y0508629D03*
X0415835Y0507993D03*
X0406709Y0497876D03*
X0401262Y0499558D03*
X0396863Y0496104D03*
X0402202Y0494015D03*
X0390769Y0486605D03*
X0385942Y0489639D03*
X0380799Y0487441D03*
X0385415Y0484041D03*
X0372454Y0479843D03*
X0368577Y0484023D03*
X0363040Y0483231D03*
X0366620Y0478752D03*
X0348821Y0483231D03*
X0343284Y0484023D03*
X0345242Y0478752D03*
X0339408Y0479843D03*
X0331063Y0487441D03*
X0325919Y0489639D03*
X0326446Y0484041D03*
X0321093Y0486605D03*
X0314999Y0496104D03*
X0310600Y0499558D03*
X0309659Y0494015D03*
X0305152Y0497876D03*
X0301724Y0508629D03*
X0298369Y0513104D03*
X0296026Y0507993D03*
X0292672Y0512889D03*
X0292939Y0540970D03*
X0292939Y0552781D03*
X0292939Y0564592D03*
X0294103Y0594856D03*
X0299789Y0594443D03*
X0303298Y0598798D03*
X0297626Y0599633D03*
X0307099Y0609425D03*
X0312485Y0607554D03*
X0317002Y0610852D03*
X0311739Y0613127D03*
X0323424Y0620133D03*
X0328141Y0616932D03*
X0333358Y0618949D03*
X0328863Y0622508D03*
X0341963Y0626252D03*
X0345692Y0621938D03*
X0351253Y0622537D03*
X0347832Y0627138D03*
X0360609Y0622537D03*
X0366170Y0621938D03*
X0364030Y0627138D03*
X0369898Y0626252D03*
X0378503Y0618949D03*
X0383720Y0616932D03*
X0382999Y0622508D03*
X0388438Y0620133D03*
X0394860Y0610852D03*
X0399377Y0607554D03*
X0400123Y0613127D03*
X0404762Y0609425D03*
X0408563Y0598798D03*
X0412072Y0594443D03*
X0414236Y0599633D03*
X0417759Y0594856D03*
X0355931Y0580340D03*
X0355931Y0529159D03*
X0364030Y0430287D03*
X0366170Y0425088D03*
X0360609Y0425686D03*
X0351253Y0425686D03*
X0345692Y0425088D03*
X0347832Y0430287D03*
X0341963Y0429401D03*
X0333358Y0422099D03*
X0328141Y0420081D03*
X0328863Y0425658D03*
X0323424Y0423283D03*
X0317002Y0414002D03*
X0312485Y0410703D03*
X0311739Y0416276D03*
X0307099Y0412574D03*
X0303298Y0401948D03*
X0299789Y0397592D03*
X0297626Y0402782D03*
X0294103Y0398006D03*
X0292939Y0367742D03*
X0292939Y0355931D03*
X0292939Y0344120D03*
X0292672Y0316039D03*
X0298369Y0316254D03*
X0301724Y0311779D03*
X0296026Y0311143D03*
X0305152Y0301026D03*
X0310600Y0302708D03*
X0314999Y0299253D03*
X0309659Y0297164D03*
X0321093Y0289754D03*
X0325919Y0292789D03*
X0331063Y0290591D03*
X0326446Y0287191D03*
X0339408Y0282992D03*
X0343284Y0287173D03*
X0348821Y0286381D03*
X0345242Y0281902D03*
X0363040Y0286381D03*
X0368577Y0287173D03*
X0366620Y0281902D03*
X0372454Y0282992D03*
X0380799Y0290591D03*
X0385942Y0292789D03*
X0385415Y0287191D03*
X0390769Y0289754D03*
X0396863Y0299253D03*
X0401262Y0302708D03*
X0402202Y0297164D03*
X0406709Y0301026D03*
X0410137Y0311779D03*
X0413492Y0316254D03*
X0415835Y0311143D03*
X0419189Y0316039D03*
X0418923Y0344120D03*
X0418923Y0355931D03*
X0418923Y0367742D03*
X0417759Y0398006D03*
X0412072Y0397592D03*
X0408563Y0401948D03*
X0414236Y0402782D03*
X0404762Y0412574D03*
X0399377Y0410703D03*
X0394860Y0414002D03*
X0400123Y0416276D03*
X0388438Y0423283D03*
X0383720Y0420081D03*
X0378503Y0422099D03*
X0382999Y0425658D03*
X0369898Y0429401D03*
X0355931Y0383490D03*
X0355931Y0332309D03*
X0364030Y0233437D03*
X0366170Y0228238D03*
X0360609Y0228836D03*
X0351253Y0228836D03*
X0345692Y0228238D03*
X0347832Y0233437D03*
X0341963Y0232551D03*
X0333358Y0225248D03*
X0328141Y0223231D03*
X0328863Y0228807D03*
X0323424Y0226432D03*
X0317002Y0217152D03*
X0312485Y0213853D03*
X0311739Y0219426D03*
X0307099Y0215724D03*
X0303298Y0205097D03*
X0299789Y0200742D03*
X0297626Y0205932D03*
X0294103Y0201155D03*
X0292939Y0170891D03*
X0292939Y0159080D03*
X0292939Y0147269D03*
X0292672Y0119189D03*
X0298369Y0119404D03*
X0301724Y0114928D03*
X0296026Y0114292D03*
X0305152Y0104175D03*
X0310600Y0105857D03*
X0314999Y0102403D03*
X0309659Y0100314D03*
X0321093Y0092904D03*
X0325919Y0095939D03*
X0331063Y0093740D03*
X0326446Y0090340D03*
X0339408Y0086142D03*
X0343284Y0090323D03*
X0348821Y0089530D03*
X0345242Y0085051D03*
X0363040Y0089530D03*
X0368577Y0090323D03*
X0366620Y0085051D03*
X0372454Y0086142D03*
X0380799Y0093740D03*
X0385942Y0095939D03*
X0385415Y0090340D03*
X0390769Y0092904D03*
X0396863Y0102403D03*
X0401262Y0105857D03*
X0402202Y0100314D03*
X0406709Y0104175D03*
X0410137Y0114928D03*
X0413492Y0119404D03*
X0415835Y0114292D03*
X0419189Y0119189D03*
X0418923Y0147269D03*
X0418923Y0159080D03*
X0418923Y0170891D03*
X0417759Y0201155D03*
X0412072Y0200742D03*
X0408563Y0205097D03*
X0414236Y0205932D03*
X0404762Y0215724D03*
X0399377Y0213853D03*
X0394860Y0217152D03*
X0400123Y0219426D03*
X0388438Y0226432D03*
X0383720Y0223231D03*
X0378503Y0225248D03*
X0382999Y0228807D03*
X0369898Y0232551D03*
X0355931Y0186639D03*
X0355931Y0135458D03*
X0222072Y0147269D03*
X0222072Y0159080D03*
X0222072Y0170891D03*
X0220908Y0201155D03*
X0215222Y0200742D03*
X0211713Y0205097D03*
X0217385Y0205932D03*
X0207912Y0215724D03*
X0202526Y0213853D03*
X0198009Y0217152D03*
X0203272Y0219426D03*
X0191587Y0226432D03*
X0186870Y0223231D03*
X0181653Y0225248D03*
X0186148Y0228807D03*
X0173048Y0232551D03*
X0169319Y0228238D03*
X0163758Y0228836D03*
X0167179Y0233437D03*
X0154402Y0228836D03*
X0148841Y0228238D03*
X0150982Y0233437D03*
X0145113Y0232551D03*
X0136508Y0225248D03*
X0131291Y0223231D03*
X0132013Y0228807D03*
X0126573Y0226432D03*
X0120151Y0217152D03*
X0115634Y0213853D03*
X0114888Y0219426D03*
X0110249Y0215724D03*
X0106448Y0205097D03*
X0102939Y0200742D03*
X0100775Y0205932D03*
X0097252Y0201155D03*
X0096088Y0170891D03*
X0096088Y0159080D03*
X0096088Y0147269D03*
X0095822Y0119189D03*
X0101519Y0119404D03*
X0104874Y0114928D03*
X0099176Y0114292D03*
X0108302Y0104175D03*
X0113749Y0105857D03*
X0118148Y0102403D03*
X0112809Y0100314D03*
X0124243Y0092904D03*
X0129069Y0095939D03*
X0134212Y0093740D03*
X0129596Y0090340D03*
X0142557Y0086142D03*
X0146434Y0090323D03*
X0151971Y0089530D03*
X0148391Y0085051D03*
X0166190Y0089530D03*
X0171727Y0090323D03*
X0169769Y0085051D03*
X0175603Y0086142D03*
X0183949Y0093740D03*
X0189092Y0095939D03*
X0188565Y0090340D03*
X0193918Y0092904D03*
X0200012Y0102403D03*
X0204411Y0105857D03*
X0205352Y0100314D03*
X0209859Y0104175D03*
X0213287Y0114928D03*
X0216642Y0119404D03*
X0218985Y0114292D03*
X0222339Y0119189D03*
X0159080Y0135458D03*
X0159080Y0186639D03*
X0148391Y0281902D03*
X0146434Y0287173D03*
X0151971Y0286381D03*
X0142557Y0282992D03*
X0134212Y0290591D03*
X0129069Y0292789D03*
X0129596Y0287191D03*
X0124243Y0289754D03*
X0118148Y0299253D03*
X0113749Y0302708D03*
X0112809Y0297164D03*
X0108302Y0301026D03*
X0104874Y0311779D03*
X0101519Y0316254D03*
X0099176Y0311143D03*
X0095822Y0316039D03*
X0096088Y0344120D03*
X0096088Y0355931D03*
X0096088Y0367742D03*
X0097252Y0398006D03*
X0102939Y0397592D03*
X0106448Y0401948D03*
X0100775Y0402782D03*
X0110249Y0412574D03*
X0115634Y0410703D03*
X0120151Y0414002D03*
X0114888Y0416276D03*
X0126573Y0423283D03*
X0131291Y0420081D03*
X0136508Y0422099D03*
X0132013Y0425658D03*
X0145113Y0429401D03*
X0148841Y0425088D03*
X0154402Y0425686D03*
X0150982Y0430287D03*
X0163758Y0425686D03*
X0169319Y0425088D03*
X0167179Y0430287D03*
X0173048Y0429401D03*
X0181653Y0422099D03*
X0186870Y0420081D03*
X0186148Y0425658D03*
X0191587Y0423283D03*
X0198009Y0414002D03*
X0202526Y0410703D03*
X0203272Y0416276D03*
X0207912Y0412574D03*
X0211713Y0401948D03*
X0215222Y0397592D03*
X0217385Y0402782D03*
X0220908Y0398006D03*
X0222072Y0367742D03*
X0222072Y0355931D03*
X0222072Y0344120D03*
X0222339Y0316039D03*
X0216642Y0316254D03*
X0213287Y0311779D03*
X0218985Y0311143D03*
X0209859Y0301026D03*
X0204411Y0302708D03*
X0200012Y0299253D03*
X0205352Y0297164D03*
X0193918Y0289754D03*
X0189092Y0292789D03*
X0183949Y0290591D03*
X0188565Y0287191D03*
X0175603Y0282992D03*
X0171727Y0287173D03*
X0166190Y0286381D03*
X0169769Y0281902D03*
X0159080Y0332309D03*
X0159080Y0383490D03*
X0148391Y0478752D03*
X0146434Y0484023D03*
X0151971Y0483231D03*
X0142557Y0479843D03*
X0134212Y0487441D03*
X0129069Y0489639D03*
X0129596Y0484041D03*
X0124243Y0486605D03*
X0118148Y0496104D03*
X0113749Y0499558D03*
X0112809Y0494015D03*
X0108302Y0497876D03*
X0104874Y0508629D03*
X0101519Y0513104D03*
X0099176Y0507993D03*
X0095822Y0512889D03*
X0096088Y0540970D03*
X0096088Y0552781D03*
X0096088Y0564592D03*
X0097252Y0594856D03*
X0102939Y0594443D03*
X0106448Y0598798D03*
X0100775Y0599633D03*
X0110249Y0609425D03*
X0115634Y0607554D03*
X0120151Y0610852D03*
X0114888Y0613127D03*
X0126573Y0620133D03*
X0131291Y0616932D03*
X0136508Y0618949D03*
X0132013Y0622508D03*
X0145113Y0626252D03*
X0148841Y0621938D03*
X0154402Y0622537D03*
X0150982Y0627138D03*
X0163758Y0622537D03*
X0169319Y0621938D03*
X0167179Y0627138D03*
X0173048Y0626252D03*
X0181653Y0618949D03*
X0186870Y0616932D03*
X0186148Y0622508D03*
X0191587Y0620133D03*
X0198009Y0610852D03*
X0202526Y0607554D03*
X0203272Y0613127D03*
X0207912Y0609425D03*
X0211713Y0598798D03*
X0215222Y0594443D03*
X0217385Y0599633D03*
X0220908Y0594856D03*
X0222072Y0564592D03*
X0222072Y0552781D03*
X0222072Y0540970D03*
X0222339Y0512889D03*
X0216642Y0513104D03*
X0213287Y0508629D03*
X0218985Y0507993D03*
X0209859Y0497876D03*
X0204411Y0499558D03*
X0200012Y0496104D03*
X0205352Y0494015D03*
X0193918Y0486605D03*
X0189092Y0489639D03*
X0183949Y0487441D03*
X0188565Y0484041D03*
X0175603Y0479843D03*
X0171727Y0484023D03*
X0166190Y0483231D03*
X0169769Y0478752D03*
X0159080Y0529159D03*
X0159080Y0580340D03*
D14*
X0159080Y0562309D03*
X0157506Y0562309D03*
X0155931Y0562309D03*
X0154356Y0562309D03*
X0152781Y0562309D03*
X0151206Y0562309D03*
X0149631Y0562309D03*
X0148057Y0562309D03*
X0146482Y0562309D03*
X0144907Y0562309D03*
X0143332Y0562309D03*
X0141757Y0562309D03*
X0140183Y0562309D03*
X0138608Y0562309D03*
X0137033Y0562309D03*
X0135458Y0562309D03*
X0133883Y0562309D03*
X0132309Y0562309D03*
X0132309Y0551128D03*
X0133883Y0551128D03*
X0135458Y0551128D03*
X0137033Y0551128D03*
X0138608Y0551128D03*
X0140183Y0551128D03*
X0141757Y0551128D03*
X0143332Y0551128D03*
X0144907Y0551128D03*
X0146482Y0551128D03*
X0148057Y0551128D03*
X0149631Y0551128D03*
X0151206Y0551128D03*
X0152781Y0551128D03*
X0154356Y0551128D03*
X0155931Y0551128D03*
X0157506Y0551128D03*
X0159080Y0551128D03*
X0160655Y0551128D03*
X0162230Y0551128D03*
X0163805Y0551128D03*
X0165380Y0551128D03*
X0166954Y0551128D03*
X0168529Y0551128D03*
X0170104Y0551128D03*
X0171679Y0551128D03*
X0173254Y0551128D03*
X0174828Y0551128D03*
X0176403Y0551128D03*
X0177978Y0551128D03*
X0179553Y0551128D03*
X0181128Y0551128D03*
X0182702Y0551128D03*
X0184277Y0551128D03*
X0185852Y0551128D03*
X0185852Y0562309D03*
X0184277Y0562309D03*
X0182702Y0562309D03*
X0181128Y0562309D03*
X0179553Y0562309D03*
X0177978Y0562309D03*
X0176403Y0562309D03*
X0174828Y0562309D03*
X0173254Y0562309D03*
X0171679Y0562309D03*
X0170104Y0562309D03*
X0168529Y0562309D03*
X0166954Y0562309D03*
X0165380Y0562309D03*
X0163805Y0562309D03*
X0162230Y0562309D03*
X0160655Y0562309D03*
X0329159Y0562309D03*
X0330734Y0562309D03*
X0332309Y0562309D03*
X0333883Y0562309D03*
X0335458Y0562309D03*
X0337033Y0562309D03*
X0338608Y0562309D03*
X0340183Y0562309D03*
X0341757Y0562309D03*
X0343332Y0562309D03*
X0344907Y0562309D03*
X0346482Y0562309D03*
X0348057Y0562309D03*
X0349631Y0562309D03*
X0351206Y0562309D03*
X0352781Y0562309D03*
X0354356Y0562309D03*
X0355931Y0562309D03*
X0357506Y0562309D03*
X0359080Y0562309D03*
X0360655Y0562309D03*
X0362230Y0562309D03*
X0363805Y0562309D03*
X0365380Y0562309D03*
X0366954Y0562309D03*
X0368529Y0562309D03*
X0370104Y0562309D03*
X0371679Y0562309D03*
X0373254Y0562309D03*
X0374828Y0562309D03*
X0376403Y0562309D03*
X0377978Y0562309D03*
X0379553Y0562309D03*
X0381128Y0562309D03*
X0382702Y0562309D03*
X0382702Y0551128D03*
X0381128Y0551128D03*
X0379553Y0551128D03*
X0377978Y0551128D03*
X0376403Y0551128D03*
X0374828Y0551128D03*
X0373254Y0551128D03*
X0371679Y0551128D03*
X0370104Y0551128D03*
X0368529Y0551128D03*
X0366954Y0551128D03*
X0365380Y0551128D03*
X0363805Y0551128D03*
X0362230Y0551128D03*
X0360655Y0551128D03*
X0359080Y0551128D03*
X0357506Y0551128D03*
X0355931Y0551128D03*
X0354356Y0551128D03*
X0352781Y0551128D03*
X0351206Y0551128D03*
X0349631Y0551128D03*
X0348057Y0551128D03*
X0346482Y0551128D03*
X0344907Y0551128D03*
X0343332Y0551128D03*
X0341757Y0551128D03*
X0340183Y0551128D03*
X0338608Y0551128D03*
X0337033Y0551128D03*
X0335458Y0551128D03*
X0333883Y0551128D03*
X0332309Y0551128D03*
X0330734Y0551128D03*
X0329159Y0551128D03*
X0329159Y0365458D03*
X0330734Y0365458D03*
X0332309Y0365458D03*
X0333883Y0365458D03*
X0335458Y0365458D03*
X0337033Y0365458D03*
X0338608Y0365458D03*
X0340183Y0365458D03*
X0341757Y0365458D03*
X0343332Y0365458D03*
X0344907Y0365458D03*
X0346482Y0365458D03*
X0348057Y0365458D03*
X0349631Y0365458D03*
X0351206Y0365458D03*
X0352781Y0365458D03*
X0354356Y0365458D03*
X0355931Y0365458D03*
X0357506Y0365458D03*
X0359080Y0365458D03*
X0360655Y0365458D03*
X0362230Y0365458D03*
X0363805Y0365458D03*
X0365380Y0365458D03*
X0366954Y0365458D03*
X0368529Y0365458D03*
X0370104Y0365458D03*
X0371679Y0365458D03*
X0373254Y0365458D03*
X0374828Y0365458D03*
X0376403Y0365458D03*
X0377978Y0365458D03*
X0379553Y0365458D03*
X0381128Y0365458D03*
X0382702Y0365458D03*
X0382702Y0354277D03*
X0381128Y0354277D03*
X0379553Y0354277D03*
X0377978Y0354277D03*
X0376403Y0354277D03*
X0374828Y0354277D03*
X0373254Y0354277D03*
X0371679Y0354277D03*
X0370104Y0354277D03*
X0368529Y0354277D03*
X0366954Y0354277D03*
X0365380Y0354277D03*
X0363805Y0354277D03*
X0362230Y0354277D03*
X0360655Y0354277D03*
X0359080Y0354277D03*
X0357506Y0354277D03*
X0355931Y0354277D03*
X0354356Y0354277D03*
X0352781Y0354277D03*
X0351206Y0354277D03*
X0349631Y0354277D03*
X0348057Y0354277D03*
X0346482Y0354277D03*
X0344907Y0354277D03*
X0343332Y0354277D03*
X0341757Y0354277D03*
X0340183Y0354277D03*
X0338608Y0354277D03*
X0337033Y0354277D03*
X0335458Y0354277D03*
X0333883Y0354277D03*
X0332309Y0354277D03*
X0330734Y0354277D03*
X0329159Y0354277D03*
X0185852Y0354277D03*
X0184277Y0354277D03*
X0182702Y0354277D03*
X0181128Y0354277D03*
X0179553Y0354277D03*
X0177978Y0354277D03*
X0176403Y0354277D03*
X0174828Y0354277D03*
X0173254Y0354277D03*
X0171679Y0354277D03*
X0170104Y0354277D03*
X0168529Y0354277D03*
X0166954Y0354277D03*
X0165380Y0354277D03*
X0163805Y0354277D03*
X0162230Y0354277D03*
X0160655Y0354277D03*
X0159080Y0354277D03*
X0157506Y0354277D03*
X0155931Y0354277D03*
X0154356Y0354277D03*
X0152781Y0354277D03*
X0151206Y0354277D03*
X0149631Y0354277D03*
X0148057Y0354277D03*
X0146482Y0354277D03*
X0144907Y0354277D03*
X0143332Y0354277D03*
X0141757Y0354277D03*
X0140183Y0354277D03*
X0138608Y0354277D03*
X0137033Y0354277D03*
X0135458Y0354277D03*
X0133883Y0354277D03*
X0132309Y0354277D03*
X0132309Y0365458D03*
X0133883Y0365458D03*
X0135458Y0365458D03*
X0137033Y0365458D03*
X0138608Y0365458D03*
X0140183Y0365458D03*
X0141757Y0365458D03*
X0143332Y0365458D03*
X0144907Y0365458D03*
X0146482Y0365458D03*
X0148057Y0365458D03*
X0149631Y0365458D03*
X0151206Y0365458D03*
X0152781Y0365458D03*
X0154356Y0365458D03*
X0155931Y0365458D03*
X0157506Y0365458D03*
X0159080Y0365458D03*
X0160655Y0365458D03*
X0162230Y0365458D03*
X0163805Y0365458D03*
X0165380Y0365458D03*
X0166954Y0365458D03*
X0168529Y0365458D03*
X0170104Y0365458D03*
X0171679Y0365458D03*
X0173254Y0365458D03*
X0174828Y0365458D03*
X0176403Y0365458D03*
X0177978Y0365458D03*
X0179553Y0365458D03*
X0181128Y0365458D03*
X0182702Y0365458D03*
X0184277Y0365458D03*
X0185852Y0365458D03*
X0185852Y0168608D03*
X0184277Y0168608D03*
X0182702Y0168608D03*
X0181128Y0168608D03*
X0179553Y0168608D03*
X0177978Y0168608D03*
X0176403Y0168608D03*
X0174828Y0168608D03*
X0173254Y0168608D03*
X0171679Y0168608D03*
X0170104Y0168608D03*
X0168529Y0168608D03*
X0166954Y0168608D03*
X0165380Y0168608D03*
X0163805Y0168608D03*
X0162230Y0168608D03*
X0160655Y0168608D03*
X0159080Y0168608D03*
X0157506Y0168608D03*
X0155931Y0168608D03*
X0154356Y0168608D03*
X0152781Y0168608D03*
X0151206Y0168608D03*
X0149631Y0168608D03*
X0148057Y0168608D03*
X0146482Y0168608D03*
X0144907Y0168608D03*
X0143332Y0168608D03*
X0141757Y0168608D03*
X0140183Y0168608D03*
X0138608Y0168608D03*
X0137033Y0168608D03*
X0135458Y0168608D03*
X0133883Y0168608D03*
X0132309Y0168608D03*
X0132309Y0157427D03*
X0133883Y0157427D03*
X0135458Y0157427D03*
X0137033Y0157427D03*
X0138608Y0157427D03*
X0140183Y0157427D03*
X0141757Y0157427D03*
X0143332Y0157427D03*
X0144907Y0157427D03*
X0146482Y0157427D03*
X0148057Y0157427D03*
X0149631Y0157427D03*
X0151206Y0157427D03*
X0152781Y0157427D03*
X0154356Y0157427D03*
X0155931Y0157427D03*
X0157506Y0157427D03*
X0159080Y0157427D03*
X0160655Y0157427D03*
X0162230Y0157427D03*
X0163805Y0157427D03*
X0165380Y0157427D03*
X0166954Y0157427D03*
X0168529Y0157427D03*
X0170104Y0157427D03*
X0171679Y0157427D03*
X0173254Y0157427D03*
X0174828Y0157427D03*
X0176403Y0157427D03*
X0177978Y0157427D03*
X0179553Y0157427D03*
X0181128Y0157427D03*
X0182702Y0157427D03*
X0184277Y0157427D03*
X0185852Y0157427D03*
X0329159Y0157427D03*
X0330734Y0157427D03*
X0332309Y0157427D03*
X0333883Y0157427D03*
X0335458Y0157427D03*
X0337033Y0157427D03*
X0338608Y0157427D03*
X0340183Y0157427D03*
X0341757Y0157427D03*
X0343332Y0157427D03*
X0344907Y0157427D03*
X0346482Y0157427D03*
X0348057Y0157427D03*
X0349631Y0157427D03*
X0351206Y0157427D03*
X0352781Y0157427D03*
X0354356Y0157427D03*
X0355931Y0157427D03*
X0357506Y0157427D03*
X0359080Y0157427D03*
X0360655Y0157427D03*
X0362230Y0157427D03*
X0363805Y0157427D03*
X0365380Y0157427D03*
X0366954Y0157427D03*
X0368529Y0157427D03*
X0370104Y0157427D03*
X0371679Y0157427D03*
X0373254Y0157427D03*
X0374828Y0157427D03*
X0376403Y0157427D03*
X0377978Y0157427D03*
X0379553Y0157427D03*
X0381128Y0157427D03*
X0382702Y0157427D03*
X0382702Y0168608D03*
X0381128Y0168608D03*
X0379553Y0168608D03*
X0377978Y0168608D03*
X0376403Y0168608D03*
X0374828Y0168608D03*
X0373254Y0168608D03*
X0371679Y0168608D03*
X0370104Y0168608D03*
X0368529Y0168608D03*
X0366954Y0168608D03*
X0365380Y0168608D03*
X0363805Y0168608D03*
X0362230Y0168608D03*
X0360655Y0168608D03*
X0359080Y0168608D03*
X0357506Y0168608D03*
X0355931Y0168608D03*
X0354356Y0168608D03*
X0352781Y0168608D03*
X0351206Y0168608D03*
X0349631Y0168608D03*
X0348057Y0168608D03*
X0346482Y0168608D03*
X0344907Y0168608D03*
X0343332Y0168608D03*
X0341757Y0168608D03*
X0340183Y0168608D03*
X0338608Y0168608D03*
X0337033Y0168608D03*
X0335458Y0168608D03*
X0333883Y0168608D03*
X0332309Y0168608D03*
X0330734Y0168608D03*
X0329159Y0168608D03*
X0526009Y0168608D03*
X0527584Y0168608D03*
X0529159Y0168608D03*
X0530734Y0168608D03*
X0532309Y0168608D03*
X0533883Y0168608D03*
X0535458Y0168608D03*
X0537033Y0168608D03*
X0538608Y0168608D03*
X0540183Y0168608D03*
X0541757Y0168608D03*
X0543332Y0168608D03*
X0544907Y0168608D03*
X0546482Y0168608D03*
X0548057Y0168608D03*
X0549631Y0168608D03*
X0551206Y0168608D03*
X0552781Y0168608D03*
X0554356Y0168608D03*
X0555931Y0168608D03*
X0557506Y0168608D03*
X0559080Y0168608D03*
X0560655Y0168608D03*
X0562230Y0168608D03*
X0563805Y0168608D03*
X0565380Y0168608D03*
X0566954Y0168608D03*
X0568529Y0168608D03*
X0570104Y0168608D03*
X0571679Y0168608D03*
X0573254Y0168608D03*
X0574828Y0168608D03*
X0576403Y0168608D03*
X0577978Y0168608D03*
X0579553Y0168608D03*
X0579553Y0157427D03*
X0577978Y0157427D03*
X0576403Y0157427D03*
X0574828Y0157427D03*
X0573254Y0157427D03*
X0571679Y0157427D03*
X0570104Y0157427D03*
X0568529Y0157427D03*
X0566954Y0157427D03*
X0565380Y0157427D03*
X0563805Y0157427D03*
X0562230Y0157427D03*
X0560655Y0157427D03*
X0559080Y0157427D03*
X0557506Y0157427D03*
X0555931Y0157427D03*
X0554356Y0157427D03*
X0552781Y0157427D03*
X0551206Y0157427D03*
X0549631Y0157427D03*
X0548057Y0157427D03*
X0546482Y0157427D03*
X0544907Y0157427D03*
X0543332Y0157427D03*
X0541757Y0157427D03*
X0540183Y0157427D03*
X0538608Y0157427D03*
X0537033Y0157427D03*
X0535458Y0157427D03*
X0533883Y0157427D03*
X0532309Y0157427D03*
X0530734Y0157427D03*
X0529159Y0157427D03*
X0527584Y0157427D03*
X0526009Y0157427D03*
X0526009Y0354277D03*
X0527584Y0354277D03*
X0529159Y0354277D03*
X0530734Y0354277D03*
X0532309Y0354277D03*
X0533883Y0354277D03*
X0535458Y0354277D03*
X0537033Y0354277D03*
X0538608Y0354277D03*
X0540183Y0354277D03*
X0541757Y0354277D03*
X0543332Y0354277D03*
X0544907Y0354277D03*
X0546482Y0354277D03*
X0548057Y0354277D03*
X0549631Y0354277D03*
X0551206Y0354277D03*
X0552781Y0354277D03*
X0554356Y0354277D03*
X0555931Y0354277D03*
X0557506Y0354277D03*
X0559080Y0354277D03*
X0560655Y0354277D03*
X0562230Y0354277D03*
X0563805Y0354277D03*
X0565380Y0354277D03*
X0566954Y0354277D03*
X0568529Y0354277D03*
X0570104Y0354277D03*
X0571679Y0354277D03*
X0573254Y0354277D03*
X0574828Y0354277D03*
X0576403Y0354277D03*
X0577978Y0354277D03*
X0579553Y0354277D03*
X0579553Y0365458D03*
X0577978Y0365458D03*
X0576403Y0365458D03*
X0574828Y0365458D03*
X0573254Y0365458D03*
X0571679Y0365458D03*
X0570104Y0365458D03*
X0568529Y0365458D03*
X0566954Y0365458D03*
X0565380Y0365458D03*
X0563805Y0365458D03*
X0562230Y0365458D03*
X0560655Y0365458D03*
X0559080Y0365458D03*
X0557506Y0365458D03*
X0555931Y0365458D03*
X0554356Y0365458D03*
X0552781Y0365458D03*
X0551206Y0365458D03*
X0549631Y0365458D03*
X0548057Y0365458D03*
X0546482Y0365458D03*
X0544907Y0365458D03*
X0543332Y0365458D03*
X0541757Y0365458D03*
X0540183Y0365458D03*
X0538608Y0365458D03*
X0537033Y0365458D03*
X0535458Y0365458D03*
X0533883Y0365458D03*
X0532309Y0365458D03*
X0530734Y0365458D03*
X0529159Y0365458D03*
X0527584Y0365458D03*
X0526009Y0365458D03*
X0526009Y0551128D03*
X0527584Y0551128D03*
X0529159Y0551128D03*
X0530734Y0551128D03*
X0532309Y0551128D03*
X0533883Y0551128D03*
X0535458Y0551128D03*
X0537033Y0551128D03*
X0538608Y0551128D03*
X0540183Y0551128D03*
X0541757Y0551128D03*
X0543332Y0551128D03*
X0544907Y0551128D03*
X0546482Y0551128D03*
X0548057Y0551128D03*
X0549631Y0551128D03*
X0551206Y0551128D03*
X0552781Y0551128D03*
X0554356Y0551128D03*
X0555931Y0551128D03*
X0557506Y0551128D03*
X0559080Y0551128D03*
X0560655Y0551128D03*
X0562230Y0551128D03*
X0563805Y0551128D03*
X0565380Y0551128D03*
X0566954Y0551128D03*
X0568529Y0551128D03*
X0570104Y0551128D03*
X0571679Y0551128D03*
X0573254Y0551128D03*
X0574828Y0551128D03*
X0576403Y0551128D03*
X0577978Y0551128D03*
X0579553Y0551128D03*
X0579553Y0562309D03*
X0577978Y0562309D03*
X0576403Y0562309D03*
X0574828Y0562309D03*
X0573254Y0562309D03*
X0571679Y0562309D03*
X0570104Y0562309D03*
X0568529Y0562309D03*
X0566954Y0562309D03*
X0565380Y0562309D03*
X0563805Y0562309D03*
X0562230Y0562309D03*
X0560655Y0562309D03*
X0559080Y0562309D03*
X0557506Y0562309D03*
X0555931Y0562309D03*
X0554356Y0562309D03*
X0552781Y0562309D03*
X0551206Y0562309D03*
X0549631Y0562309D03*
X0548057Y0562309D03*
X0546482Y0562309D03*
X0544907Y0562309D03*
X0543332Y0562309D03*
X0541757Y0562309D03*
X0540183Y0562309D03*
X0538608Y0562309D03*
X0537033Y0562309D03*
X0535458Y0562309D03*
X0533883Y0562309D03*
X0532309Y0562309D03*
X0530734Y0562309D03*
X0529159Y0562309D03*
X0527584Y0562309D03*
X0526009Y0562309D03*
M02*
