M48
;Layer_Color=9474304
;FILE_FORMAT=2:5
INCH,LZ
;TYPE=PLATED
T1F00S00C0.00591
T2F00S00C0.00787
T3F00S00C0.03937
T4F00S00C0.05000
%
T01
X0064Y-00221
X00669Y-00226
X006945Y-002195
X0065644Y-0016456
X00643Y-001055
X007395Y-000975
X007455Y-00067
X007435Y-000385
X00725Y00048
X007245Y00064
X00706
X007065Y00048
X006885Y000475
X00689Y000635
X00664Y000705
X006835Y001575
X006885Y001835
X00731Y-0014
X006045Y-001115
X006195Y-000775
X0062Y-00061
Y-000445
X005315Y-00005
X00538Y-000955
X0055468Y-0015368
X005535Y-0017
X004935Y-001725
Y-002105
X0050016Y-0027766
X00527Y-00327
X00551Y-0034666
X005645Y-003635
X005875Y-003775
X0063Y-00357
X00612Y-001975
X004495Y-001275
Y-001105
X004335
X0043072Y-0007478
X00461Y-000905
X004485Y00019
X00449Y000415
X004495Y00058
X004625Y000715
X004585Y000935
X00459Y00113
X004735Y00102
Y001495
X004575Y00149
X00458Y00168
X00474Y001675
X005025Y00209
X005215Y00196
X00535Y00221
X005315Y0025
X0048034Y0024603
X004745Y002665
X004185Y00249
X00391Y002435
X003405Y00222
X003365Y0027347
X00346Y001525
X00363
X003555Y001375
X004025Y001355
X00419
Y001515
X00402
X002685Y001465
X001635Y00147
X0013Y001945
X001045Y00209
X000785Y002115
X0009631Y002365
X0007732Y002555
X000765Y002755
X0009719Y00275
X00116
Y002945
X000965Y00314
X00097Y003535
X000765Y00354
X000375Y003535
X00038Y00373
Y0039324
X000375Y004325
X00017
X-000015
X000175Y004515
Y004715
X-000015Y00472
X-00021Y004525
X-000405Y004715
X-000605
X-0008
X-001Y00472
Y004525
X-001195
X-0012Y004325
X-001195Y00413
X-0012Y003935
X-001Y00393
X-0008Y003925
Y0041282
X-000995Y00413
X-00061Y00433
X-00041
X-00042Y0041409
X-00041Y003935
Y00354
X-000215
X-000405Y00334
X-000605
X-0008Y003345
X-000795Y003145
X-00099Y00315
X-001195Y003145
X-00119Y00295
X-001195Y00335
Y003735
X-001565Y003235
X-001905Y00327
X-002145Y00354
X-00234Y0037
X-00253Y003915
X-002685Y004205
X-00299Y003965
X-00306Y005405
X-00323Y00553
X-00337Y00539
X-00353
X-00369Y005395
X-00385Y005385
X-00401Y00538
X-00417Y005385
X-00433Y00539
X-00449
X-003555Y005165
X-00327Y00522
X-001725Y005165
X-00142Y005115
X-001193Y0050941
X-0014934Y0048216
X-001685Y00469
X-0007Y005315
X-000525Y00551
X-00041Y00564
X-000285Y00578
X-000095Y006
X00043Y00597
X00058Y005725
X000785Y00549
X00098Y005285
X00108Y005025
X001165Y004725
X000965Y00472
X00077
X000575
X0005756Y0045243
X000965Y00452
X000765Y0041232
X00077Y00394
X-00002Y00393
X-00041Y003145
X-0006011Y002945
X-00061Y00275
X-000605Y002555
X-00081Y00256
X-0008Y002355
X-001Y00236
X-001195Y002355
X-001265Y002105
X-0012571Y0013229
X-001075Y00132
X-001725Y00149
X-001875Y00084
X-00229Y00063
X-0024888Y0006389
X-0025022Y0009671
X-0030109Y0007052
X-0029734Y0003173
X-00332Y00023
X-0034Y00062
X-0033844Y0008794
X-003445Y00124
X-0033Y00134
X-003145Y001295
X-00365Y001145
X-00383Y001155
X-00534Y000785
X-00549Y00085
X-005625Y000965
X-005755Y00108
X-006115Y001085
X-006285Y000917
X-00633Y00031
X-006315Y-00016
X-006325Y-000485
X-005785Y-00066
X-005195Y-000755
X-0052Y-000945
X-0051961Y-0005561
X-0052Y-00036
X-0051956Y0000344
X-0052013Y0002313
X-0051673Y-0013923
X-00497Y-00143
X-004775Y-001
X-00456Y-00098
X-004385
X-004185Y-00099
X-00399
X-002945Y-001155
X-00252Y-001365
X-002305Y-00127
X-002545Y-00168
X-00248Y-001895
X-00239Y-00237
Y-00253
X-00258
X-002585Y-00237
X-0033698Y-0022496
X-0040635Y-0022526
X-00449Y-00234
X-004635Y-003115
X-005035Y-003205
X-00528Y-002915
X-004085Y-002955
X-0037376Y-0028442
X-003395Y-00305
X-00171Y-00272
X-001465Y-00269
X-0012695Y-0032615
X-0012682Y-00199
X-00117Y-001845
X-00039Y-00174
X-000385Y-001575
X-00031Y-00213
X-00047Y-002615
X00016Y-002755
X000325
X00032Y-002925
X00049
X000505Y-00275
X000725Y-00274
X000945Y-002745
X000995Y-00297
X000955Y-00318
X00073Y-00321
X000495Y-003125
X000995Y-00379
X001155
X001Y-003955
X001005Y-004115
X00116Y-00416
X00155Y-00421
X00176
X001575Y-004495
X001595Y-00471
X00143Y-004705
X00127
X00177
X001705Y-00522
X0017Y-005385
X00153
Y-00522
X00136
Y-00538
X00119
X001185Y-00522
X00097Y-00546
X0007919Y-005605
X00063Y-005535
Y-00472
X000485Y-004635
X00048Y-004465
X000475Y-004305
Y-0048
X000315Y-004805
X0002018Y-0050501
X-00017Y-004875
X-00044Y-004335
X-00062
X-00081Y-004205
X-001015Y-00434
X-001175Y-005095
X-001465
X-00173Y-004725
X-002005Y-00432
X-002275Y-00413
X-00252Y-005035
Y-005205
X-002695
X-00286
X-00303
X-003195
Y-005035
X-00303
X-00286
X-002695
X-00221Y-00594
X-002525Y-00632
X-002315Y-00674
X-002145Y-006815
X-00214Y-006655
X-00144Y-00666
X-001445Y-00682
X-00159Y-006375
X-001505Y-00624
X-001455Y-006075
X-00063Y-0062
X-000055Y-006045
X-000135Y-0057
X-000305Y-005705
X00059Y-00648
X000755
X000925
X00109
Y-00631
X000925
X001265
Y-00648
X00078Y-00665
X002855Y-00471
X003015Y-004585
Y-004425
X00299Y-004025
Y-00386
X00293Y-003705
X002755
X00302Y-003565
X003025Y-003405
X002905Y-00326
X00303Y-001545
Y-001385
Y-001225
X0032Y-00129
X003195Y-00155
X00188Y-001045
X001665
X001295Y-00057
X0011129Y-0005671
X00042Y-001565
X000425Y-00174
X-000935Y000315
X-001165Y0003
X-0021Y000165
X-002285Y000145
X-002495Y000185
X-001945Y-000655
X-000555Y00184
X-00034
X-000445Y00199
X0Y002095
X00002Y00181
X000305Y002085
X00038Y0023602
Y002555
X00018
X-00001Y00275
X000375Y002755
X00038Y003145
X000575Y0023584
X000515Y00193
X-000215Y00236
X00117Y002555
X001405Y00233
X00149Y002165
X00167Y0027
X001905Y002705
X0017Y003205
X001505Y003305
X00149Y00354
X00147Y004095
X001755Y004125
X0016384Y0044515
X0024416Y0042026
X0025Y00318
X005135Y004185
X0051Y005
X00545Y005005
X006075Y00281
X005975Y00233
X005955Y001085
X006275Y001255
X0041232Y-0040568
X00447Y-00525
X004965Y-005315
X00497Y-00515
X00515
X005145Y-005315
X-00308Y-006175
X-004235Y-00576
X-00452Y-005705
X-0040099Y-0049097
X-0041786Y-0045518
X-0051Y-004955
X-005845Y-004175
X-0056289Y0015214
X-0056Y00175
X-005335Y00248
X-004955Y00263
X-00506Y002975
X-005085Y00331
X-00524Y004075
X-005825Y00261
X000375Y00472
T02
X-0049499Y00017
T03
X-001109Y-0071038
X-000374Y-0071738
X-002724Y-0067038
X002396Y-0066038
X003206Y-0063138
X003976Y-0059338
X005726Y-0043438
X006346Y0034562
X0014093Y0069945
X000111Y0071862
X-005209Y0049012
X-005804Y0042512
X-006274Y0035812
X-006644Y0027012
X-0070431Y0018733
X-0072441Y0008849
X-0073428Y-0000542
X-0072231Y-0011751
X-0067528Y-0021458
T04
X-0035Y-00374
X00374Y-0035
X0035Y00374
X-00374Y0035
M30
