G75*
%MOIN*%
%OFA0B0*%
%FSLAX25Y25*%
%IPPOS*%
%LPD*%
%AMOC8*
5,1,8,0,0,1.08239X$1,22.5*
%
%ADD10C,0.13650*%
%ADD11R,0.01706X0.03753*%
%ADD12R,0.02178X0.03753*%
%ADD13C,0.13461*%
%ADD14C,0.06706*%
%ADD15R,0.06800X0.06800*%
%ADD16C,0.06800*%
%ADD17C,0.06200*%
%ADD18R,0.04600X0.06800*%
%ADD19R,0.06800X0.04600*%
%ADD20OC8,0.05524*%
%ADD21OC8,0.06800*%
%ADD22OC8,0.13200*%
%ADD23C,0.25800*%
D10*
X0206500Y0431500D03*
X0456500Y0431500D03*
D11*
X0370272Y0476660D03*
X0368697Y0476660D03*
X0367122Y0476660D03*
X0365547Y0476660D03*
X0363972Y0476660D03*
X0362398Y0476660D03*
X0360823Y0476660D03*
X0359248Y0476660D03*
X0357673Y0476660D03*
X0356098Y0476660D03*
X0354524Y0476660D03*
X0352949Y0476660D03*
X0351374Y0476660D03*
X0349799Y0476660D03*
X0348224Y0476660D03*
X0346650Y0476660D03*
X0345075Y0476660D03*
X0343500Y0476660D03*
X0341925Y0476660D03*
X0340350Y0476660D03*
X0338776Y0476660D03*
X0337201Y0476660D03*
X0335626Y0476660D03*
X0334051Y0476660D03*
X0332476Y0476660D03*
X0330902Y0476660D03*
X0329327Y0476660D03*
X0327752Y0476660D03*
X0326177Y0476660D03*
X0324602Y0476660D03*
X0323027Y0476660D03*
X0321453Y0476660D03*
X0319878Y0476660D03*
X0318303Y0476660D03*
X0316728Y0476660D03*
X0316728Y0489140D03*
X0318303Y0489140D03*
X0319878Y0489140D03*
X0321453Y0489140D03*
X0323027Y0489140D03*
X0324602Y0489140D03*
X0326177Y0489140D03*
X0327752Y0489140D03*
X0329327Y0489140D03*
X0330902Y0489140D03*
X0332476Y0489140D03*
X0334051Y0489140D03*
X0335626Y0489140D03*
X0337201Y0489140D03*
X0338776Y0489140D03*
X0340350Y0489140D03*
X0341925Y0489140D03*
X0343500Y0489140D03*
X0345075Y0489140D03*
X0346650Y0489140D03*
X0348224Y0489140D03*
X0349799Y0489140D03*
X0351374Y0489140D03*
X0352949Y0489140D03*
X0354524Y0489140D03*
X0356098Y0489140D03*
X0357673Y0489140D03*
X0359248Y0489140D03*
X0360823Y0489140D03*
X0362398Y0489140D03*
X0363972Y0489140D03*
X0365547Y0489140D03*
X0367122Y0489140D03*
X0368697Y0489140D03*
X0370272Y0489140D03*
X0346272Y0386340D03*
X0344697Y0386340D03*
X0343122Y0386340D03*
X0341547Y0386340D03*
X0339972Y0386340D03*
X0338398Y0386340D03*
X0336823Y0386340D03*
X0335248Y0386340D03*
X0333673Y0386340D03*
X0332098Y0386340D03*
X0330524Y0386340D03*
X0328949Y0386340D03*
X0327374Y0386340D03*
X0325799Y0386340D03*
X0324224Y0386340D03*
X0322650Y0386340D03*
X0321075Y0386340D03*
X0319500Y0386340D03*
X0317925Y0386340D03*
X0316350Y0386340D03*
X0314776Y0386340D03*
X0313201Y0386340D03*
X0311626Y0386340D03*
X0310051Y0386340D03*
X0308476Y0386340D03*
X0306902Y0386340D03*
X0305327Y0386340D03*
X0303752Y0386340D03*
X0302177Y0386340D03*
X0300602Y0386340D03*
X0299027Y0386340D03*
X0297453Y0386340D03*
X0295878Y0386340D03*
X0294303Y0386340D03*
X0292728Y0386340D03*
X0292728Y0373860D03*
X0294303Y0373860D03*
X0295878Y0373860D03*
X0297453Y0373860D03*
X0299027Y0373860D03*
X0300602Y0373860D03*
X0302177Y0373860D03*
X0303752Y0373860D03*
X0305327Y0373860D03*
X0306902Y0373860D03*
X0308476Y0373860D03*
X0310051Y0373860D03*
X0311626Y0373860D03*
X0313201Y0373860D03*
X0314776Y0373860D03*
X0316350Y0373860D03*
X0317925Y0373860D03*
X0319500Y0373860D03*
X0321075Y0373860D03*
X0322650Y0373860D03*
X0324224Y0373860D03*
X0325799Y0373860D03*
X0327374Y0373860D03*
X0328949Y0373860D03*
X0330524Y0373860D03*
X0332098Y0373860D03*
X0333673Y0373860D03*
X0335248Y0373860D03*
X0336823Y0373860D03*
X0338398Y0373860D03*
X0339972Y0373860D03*
X0341547Y0373860D03*
X0343122Y0373860D03*
X0344697Y0373860D03*
X0346272Y0373860D03*
D12*
X0348142Y0373860D03*
X0348142Y0386340D03*
X0290858Y0386340D03*
X0290858Y0373860D03*
X0314858Y0476660D03*
X0314858Y0489140D03*
X0372142Y0489140D03*
X0372142Y0476660D03*
D13*
X0131500Y0091500D03*
X0091500Y0091500D03*
D14*
X0111500Y0111500D03*
X0121500Y0111500D03*
D15*
X0136500Y0211500D03*
X0236500Y0211500D03*
X0336500Y0211500D03*
X0436500Y0211500D03*
X0551500Y0236500D03*
X0551500Y0336500D03*
X0551500Y0436500D03*
X0551500Y0536500D03*
X0526500Y0651500D03*
X0426500Y0651500D03*
X0326500Y0651500D03*
X0226500Y0651500D03*
X0111500Y0626500D03*
X0111500Y0526500D03*
X0111500Y0426500D03*
X0111500Y0326500D03*
D16*
X0111500Y0316500D03*
X0111500Y0306500D03*
X0111500Y0296500D03*
X0111500Y0286500D03*
X0111500Y0276500D03*
X0111500Y0266500D03*
X0111500Y0256500D03*
X0111500Y0246500D03*
X0146500Y0211500D03*
X0156500Y0211500D03*
X0166500Y0211500D03*
X0176500Y0211500D03*
X0186500Y0211500D03*
X0196500Y0211500D03*
X0206500Y0211500D03*
X0216500Y0211500D03*
X0246500Y0211500D03*
X0256500Y0211500D03*
X0266500Y0211500D03*
X0276500Y0211500D03*
X0286500Y0211500D03*
X0296500Y0211500D03*
X0306500Y0211500D03*
X0316500Y0211500D03*
X0346500Y0211500D03*
X0356500Y0211500D03*
X0366500Y0211500D03*
X0376500Y0211500D03*
X0386500Y0211500D03*
X0396500Y0211500D03*
X0406500Y0211500D03*
X0416500Y0211500D03*
X0446500Y0211500D03*
X0456500Y0211500D03*
X0466500Y0211500D03*
X0476500Y0211500D03*
X0486500Y0211500D03*
X0496500Y0211500D03*
X0506500Y0211500D03*
X0516500Y0211500D03*
X0551500Y0246500D03*
X0551500Y0256500D03*
X0551500Y0266500D03*
X0551500Y0276500D03*
X0551500Y0286500D03*
X0551500Y0296500D03*
X0551500Y0306500D03*
X0551500Y0316500D03*
X0551500Y0346500D03*
X0551500Y0356500D03*
X0551500Y0366500D03*
X0551500Y0376500D03*
X0551500Y0386500D03*
X0551500Y0396500D03*
X0551500Y0406500D03*
X0551500Y0416500D03*
X0551500Y0446500D03*
X0551500Y0456500D03*
X0551500Y0466500D03*
X0551500Y0476500D03*
X0551500Y0486500D03*
X0551500Y0496500D03*
X0551500Y0506500D03*
X0551500Y0516500D03*
X0551500Y0546500D03*
X0551500Y0556500D03*
X0551500Y0566500D03*
X0551500Y0576500D03*
X0551500Y0586500D03*
X0551500Y0596500D03*
X0551500Y0606500D03*
X0551500Y0616500D03*
X0516500Y0651500D03*
X0506500Y0651500D03*
X0496500Y0651500D03*
X0486500Y0651500D03*
X0476500Y0651500D03*
X0466500Y0651500D03*
X0456500Y0651500D03*
X0446500Y0651500D03*
X0416500Y0651500D03*
X0406500Y0651500D03*
X0396500Y0651500D03*
X0386500Y0651500D03*
X0376500Y0651500D03*
X0366500Y0651500D03*
X0356500Y0651500D03*
X0346500Y0651500D03*
X0316500Y0651500D03*
X0306500Y0651500D03*
X0296500Y0651500D03*
X0286500Y0651500D03*
X0276500Y0651500D03*
X0266500Y0651500D03*
X0256500Y0651500D03*
X0246500Y0651500D03*
X0216500Y0651500D03*
X0206500Y0651500D03*
X0196500Y0651500D03*
X0186500Y0651500D03*
X0176500Y0651500D03*
X0166500Y0651500D03*
X0156500Y0651500D03*
X0146500Y0651500D03*
X0111500Y0616500D03*
X0111500Y0606500D03*
X0111500Y0596500D03*
X0111500Y0586500D03*
X0111500Y0576500D03*
X0111500Y0566500D03*
X0111500Y0556500D03*
X0111500Y0546500D03*
X0111500Y0516500D03*
X0111500Y0506500D03*
X0111500Y0496500D03*
X0111500Y0486500D03*
X0111500Y0476500D03*
X0111500Y0466500D03*
X0111500Y0456500D03*
X0111500Y0446500D03*
X0111500Y0416500D03*
X0111500Y0406500D03*
X0111500Y0396500D03*
X0111500Y0386500D03*
X0111500Y0376500D03*
X0111500Y0366500D03*
X0111500Y0356500D03*
X0111500Y0346500D03*
D17*
X0228500Y0326700D02*
X0228500Y0321300D01*
X0238500Y0321300D02*
X0238500Y0326700D01*
X0248500Y0340300D02*
X0248500Y0345700D01*
X0258500Y0345700D02*
X0258500Y0340300D01*
X0408577Y0329686D02*
X0411902Y0333941D01*
X0419782Y0327784D02*
X0416458Y0323529D01*
X0424338Y0317372D02*
X0427662Y0321628D01*
X0438000Y0305700D02*
X0438000Y0300300D01*
X0448000Y0300300D02*
X0448000Y0305700D01*
X0459250Y0288950D02*
X0459250Y0283550D01*
X0469250Y0283550D02*
X0469250Y0288950D01*
X0466500Y0114200D02*
X0466500Y0108800D01*
X0456500Y0108800D02*
X0456500Y0114200D01*
X0446500Y0114200D02*
X0446500Y0108800D01*
X0456500Y0089200D02*
X0456500Y0083800D01*
X0466500Y0083800D02*
X0466500Y0089200D01*
X0491500Y0108800D02*
X0491500Y0114200D01*
X0501500Y0114200D02*
X0501500Y0108800D01*
X0511500Y0108800D02*
X0511500Y0114200D01*
X0511500Y0089200D02*
X0511500Y0083800D01*
X0501500Y0083800D02*
X0501500Y0089200D01*
X0271500Y0108800D02*
X0271500Y0114200D01*
X0261500Y0114200D02*
X0261500Y0108800D01*
X0251500Y0108800D02*
X0251500Y0114200D01*
X0404500Y0517300D02*
X0404500Y0522700D01*
X0414500Y0522700D02*
X0414500Y0517300D01*
X0424500Y0536300D02*
X0424500Y0541700D01*
X0434500Y0541700D02*
X0434500Y0536300D01*
X0254422Y0533314D02*
X0251098Y0529059D01*
X0243218Y0535216D02*
X0246542Y0539471D01*
X0238662Y0545628D02*
X0235338Y0541372D01*
X0225000Y0557300D02*
X0225000Y0562700D01*
X0215000Y0562700D02*
X0215000Y0557300D01*
X0203750Y0574050D02*
X0203750Y0579450D01*
X0193750Y0579450D02*
X0193750Y0574050D01*
D18*
X0197400Y0111500D03*
X0185600Y0111500D03*
X0177400Y0111500D03*
X0205600Y0111500D03*
D19*
X0201500Y0095600D03*
X0201500Y0087400D03*
X0181500Y0087400D03*
X0181500Y0095600D03*
D20*
X0186500Y0161500D03*
X0196500Y0161500D03*
X0206500Y0161500D03*
X0216500Y0161500D03*
X0216500Y0191500D03*
X0206500Y0191500D03*
X0196500Y0191500D03*
X0186500Y0191500D03*
X0176500Y0191500D03*
X0166500Y0191500D03*
X0156500Y0191500D03*
X0146500Y0191500D03*
X0146500Y0161500D03*
X0156500Y0161500D03*
X0166500Y0161500D03*
X0176500Y0161500D03*
X0246500Y0161500D03*
X0256500Y0161500D03*
X0266500Y0161500D03*
X0276500Y0161500D03*
X0286500Y0161500D03*
X0296500Y0161500D03*
X0306500Y0161500D03*
X0316500Y0161500D03*
X0316500Y0191500D03*
X0306500Y0191500D03*
X0296500Y0191500D03*
X0286500Y0191500D03*
X0276500Y0191500D03*
X0266500Y0191500D03*
X0256500Y0191500D03*
X0246500Y0191500D03*
X0321500Y0126500D03*
X0331500Y0126500D03*
X0341500Y0126500D03*
X0351500Y0126500D03*
X0361500Y0126500D03*
X0371500Y0126500D03*
X0381500Y0126500D03*
X0391500Y0126500D03*
X0391500Y0096500D03*
X0396500Y0161500D03*
X0406500Y0161500D03*
X0416500Y0161500D03*
X0416500Y0191500D03*
X0406500Y0191500D03*
X0396500Y0191500D03*
X0386500Y0191500D03*
X0376500Y0191500D03*
X0366500Y0191500D03*
X0356500Y0191500D03*
X0346500Y0191500D03*
X0346500Y0161500D03*
X0356500Y0161500D03*
X0366500Y0161500D03*
X0376500Y0161500D03*
X0386500Y0161500D03*
X0446500Y0161500D03*
X0456500Y0161500D03*
X0466500Y0161500D03*
X0476500Y0161500D03*
X0486500Y0161500D03*
X0496500Y0161500D03*
X0506500Y0161500D03*
X0516500Y0161500D03*
X0516500Y0191500D03*
X0506500Y0191500D03*
X0496500Y0191500D03*
X0486500Y0191500D03*
X0476500Y0191500D03*
X0466500Y0191500D03*
X0456500Y0191500D03*
X0446500Y0191500D03*
X0571500Y0246500D03*
X0571500Y0256500D03*
X0571500Y0266500D03*
X0571500Y0276500D03*
X0571500Y0286500D03*
X0571500Y0296500D03*
X0571500Y0306500D03*
X0571500Y0316500D03*
X0571500Y0346500D03*
X0571500Y0356500D03*
X0571500Y0366500D03*
X0571500Y0376500D03*
X0571500Y0386500D03*
X0571500Y0396500D03*
X0571500Y0406500D03*
X0571500Y0416500D03*
X0571500Y0446500D03*
X0571500Y0456500D03*
X0571500Y0466500D03*
X0571500Y0476500D03*
X0571500Y0486500D03*
X0571500Y0496500D03*
X0571500Y0506500D03*
X0571500Y0516500D03*
X0571500Y0546500D03*
X0571500Y0556500D03*
X0571500Y0566500D03*
X0571500Y0576500D03*
X0571500Y0586500D03*
X0571500Y0596500D03*
X0571500Y0606500D03*
X0571500Y0616500D03*
X0601500Y0616500D03*
X0601500Y0606500D03*
X0601500Y0596500D03*
X0601500Y0586500D03*
X0601500Y0576500D03*
X0601500Y0566500D03*
X0601500Y0556500D03*
X0601500Y0546500D03*
X0601500Y0516500D03*
X0601500Y0506500D03*
X0601500Y0496500D03*
X0601500Y0486500D03*
X0601500Y0476500D03*
X0601500Y0466500D03*
X0601500Y0456500D03*
X0601500Y0446500D03*
X0601500Y0416500D03*
X0601500Y0406500D03*
X0601500Y0396500D03*
X0601500Y0386500D03*
X0601500Y0376500D03*
X0601500Y0366500D03*
X0601500Y0356500D03*
X0601500Y0346500D03*
X0601500Y0316500D03*
X0601500Y0306500D03*
X0601500Y0296500D03*
X0601500Y0286500D03*
X0601500Y0276500D03*
X0601500Y0266500D03*
X0601500Y0256500D03*
X0601500Y0246500D03*
X0321500Y0096500D03*
X0091500Y0246500D03*
X0091500Y0256500D03*
X0091500Y0266500D03*
X0091500Y0276500D03*
X0091500Y0286500D03*
X0091500Y0296500D03*
X0091500Y0306500D03*
X0091500Y0316500D03*
X0091500Y0346500D03*
X0091500Y0356500D03*
X0091500Y0366500D03*
X0091500Y0376500D03*
X0091500Y0386500D03*
X0091500Y0396500D03*
X0091500Y0406500D03*
X0091500Y0416500D03*
X0091500Y0446500D03*
X0091500Y0456500D03*
X0091500Y0466500D03*
X0091500Y0476500D03*
X0091500Y0486500D03*
X0091500Y0496500D03*
X0091500Y0506500D03*
X0091500Y0516500D03*
X0091500Y0546500D03*
X0091500Y0556500D03*
X0091500Y0566500D03*
X0091500Y0576500D03*
X0091500Y0586500D03*
X0091500Y0596500D03*
X0091500Y0606500D03*
X0091500Y0616500D03*
X0061500Y0616500D03*
X0061500Y0606500D03*
X0061500Y0596500D03*
X0061500Y0586500D03*
X0061500Y0576500D03*
X0061500Y0566500D03*
X0061500Y0556500D03*
X0061500Y0546500D03*
X0061500Y0516500D03*
X0061500Y0506500D03*
X0061500Y0496500D03*
X0061500Y0486500D03*
X0061500Y0476500D03*
X0061500Y0466500D03*
X0061500Y0456500D03*
X0061500Y0446500D03*
X0061500Y0416500D03*
X0061500Y0406500D03*
X0061500Y0396500D03*
X0061500Y0386500D03*
X0061500Y0376500D03*
X0061500Y0366500D03*
X0061500Y0356500D03*
X0061500Y0346500D03*
X0061500Y0316500D03*
X0061500Y0306500D03*
X0061500Y0296500D03*
X0061500Y0286500D03*
X0061500Y0276500D03*
X0061500Y0266500D03*
X0061500Y0256500D03*
X0061500Y0246500D03*
X0146500Y0671500D03*
X0156500Y0671500D03*
X0166500Y0671500D03*
X0176500Y0671500D03*
X0186500Y0671500D03*
X0196500Y0671500D03*
X0206500Y0671500D03*
X0216500Y0671500D03*
X0216500Y0701500D03*
X0206500Y0701500D03*
X0196500Y0701500D03*
X0186500Y0701500D03*
X0176500Y0701500D03*
X0166500Y0701500D03*
X0156500Y0701500D03*
X0146500Y0701500D03*
X0246500Y0701500D03*
X0256500Y0701500D03*
X0266500Y0701500D03*
X0276500Y0701500D03*
X0286500Y0701500D03*
X0296500Y0701500D03*
X0306500Y0701500D03*
X0316500Y0701500D03*
X0346500Y0701500D03*
X0356500Y0701500D03*
X0366500Y0701500D03*
X0376500Y0701500D03*
X0386500Y0701500D03*
X0396500Y0701500D03*
X0406500Y0701500D03*
X0416500Y0701500D03*
X0416500Y0671500D03*
X0406500Y0671500D03*
X0396500Y0671500D03*
X0386500Y0671500D03*
X0376500Y0671500D03*
X0366500Y0671500D03*
X0356500Y0671500D03*
X0346500Y0671500D03*
X0316500Y0671500D03*
X0306500Y0671500D03*
X0296500Y0671500D03*
X0286500Y0671500D03*
X0276500Y0671500D03*
X0266500Y0671500D03*
X0256500Y0671500D03*
X0246500Y0671500D03*
X0446500Y0671500D03*
X0456500Y0671500D03*
X0466500Y0671500D03*
X0476500Y0671500D03*
X0486500Y0671500D03*
X0496500Y0671500D03*
X0506500Y0671500D03*
X0516500Y0671500D03*
X0516500Y0701500D03*
X0506500Y0701500D03*
X0496500Y0701500D03*
X0486500Y0701500D03*
X0476500Y0701500D03*
X0466500Y0701500D03*
X0456500Y0701500D03*
X0446500Y0701500D03*
D21*
X0446500Y0636500D03*
X0456500Y0636500D03*
X0466500Y0636500D03*
X0476500Y0636500D03*
X0486500Y0636500D03*
X0496500Y0636500D03*
X0506500Y0636500D03*
X0516500Y0636500D03*
X0526500Y0636500D03*
X0536500Y0616500D03*
X0536500Y0606500D03*
X0536500Y0596500D03*
X0536500Y0586500D03*
X0536500Y0576500D03*
X0536500Y0566500D03*
X0536500Y0556500D03*
X0536500Y0546500D03*
X0536500Y0536500D03*
X0536500Y0516500D03*
X0536500Y0506500D03*
X0536500Y0496500D03*
X0536500Y0486500D03*
X0536500Y0476500D03*
X0536500Y0466500D03*
X0536500Y0456500D03*
X0536500Y0446500D03*
X0536500Y0436500D03*
X0536500Y0416500D03*
X0536500Y0406500D03*
X0536500Y0396500D03*
X0536500Y0386500D03*
X0536500Y0376500D03*
X0536500Y0366500D03*
X0536500Y0356500D03*
X0536500Y0346500D03*
X0536500Y0336500D03*
X0536500Y0316500D03*
X0536500Y0306500D03*
X0536500Y0296500D03*
X0536500Y0286500D03*
X0536500Y0276500D03*
X0536500Y0266500D03*
X0536500Y0256500D03*
X0536500Y0246500D03*
X0536500Y0236500D03*
X0516500Y0226500D03*
X0506500Y0226500D03*
X0496500Y0226500D03*
X0486500Y0226500D03*
X0476500Y0226500D03*
X0466500Y0226500D03*
X0456500Y0226500D03*
X0446500Y0226500D03*
X0436500Y0226500D03*
X0416500Y0226500D03*
X0406500Y0226500D03*
X0396500Y0226500D03*
X0386500Y0226500D03*
X0376500Y0226500D03*
X0366500Y0226500D03*
X0356500Y0226500D03*
X0346500Y0226500D03*
X0336500Y0226500D03*
X0316500Y0226500D03*
X0306500Y0226500D03*
X0296500Y0226500D03*
X0286500Y0226500D03*
X0276500Y0226500D03*
X0266500Y0226500D03*
X0256500Y0226500D03*
X0246500Y0226500D03*
X0236500Y0226500D03*
X0216500Y0226500D03*
X0206500Y0226500D03*
X0196500Y0226500D03*
X0186500Y0226500D03*
X0176500Y0226500D03*
X0166500Y0226500D03*
X0156500Y0226500D03*
X0146500Y0226500D03*
X0136500Y0226500D03*
X0126500Y0246500D03*
X0126500Y0256500D03*
X0126500Y0266500D03*
X0126500Y0276500D03*
X0126500Y0286500D03*
X0126500Y0296500D03*
X0126500Y0306500D03*
X0126500Y0316500D03*
X0126500Y0326500D03*
X0126500Y0346500D03*
X0126500Y0356500D03*
X0126500Y0366500D03*
X0126500Y0376500D03*
X0126500Y0386500D03*
X0126500Y0396500D03*
X0126500Y0406500D03*
X0126500Y0416500D03*
X0126500Y0426500D03*
X0126500Y0446500D03*
X0126500Y0456500D03*
X0126500Y0466500D03*
X0126500Y0476500D03*
X0126500Y0486500D03*
X0126500Y0496500D03*
X0126500Y0506500D03*
X0126500Y0516500D03*
X0126500Y0526500D03*
X0126500Y0546500D03*
X0126500Y0556500D03*
X0126500Y0566500D03*
X0126500Y0576500D03*
X0126500Y0586500D03*
X0126500Y0596500D03*
X0126500Y0606500D03*
X0126500Y0616500D03*
X0126500Y0626500D03*
X0146500Y0636500D03*
X0156500Y0636500D03*
X0166500Y0636500D03*
X0176500Y0636500D03*
X0186500Y0636500D03*
X0196500Y0636500D03*
X0206500Y0636500D03*
X0216500Y0636500D03*
X0226500Y0636500D03*
X0246500Y0636500D03*
X0256500Y0636500D03*
X0266500Y0636500D03*
X0276500Y0636500D03*
X0286500Y0636500D03*
X0296500Y0636500D03*
X0306500Y0636500D03*
X0316500Y0636500D03*
X0326500Y0636500D03*
X0346500Y0636500D03*
X0356500Y0636500D03*
X0366500Y0636500D03*
X0376500Y0636500D03*
X0386500Y0636500D03*
X0396500Y0636500D03*
X0406500Y0636500D03*
X0416500Y0636500D03*
X0426500Y0636500D03*
D22*
X0451500Y0557500D03*
X0556000Y0656500D03*
X0496500Y0431500D03*
X0556500Y0206500D03*
X0221500Y0096500D03*
X0161500Y0096500D03*
X0066500Y0111500D03*
X0066500Y0131500D03*
X0211500Y0305500D03*
X0166500Y0431500D03*
X0106500Y0656500D03*
D23*
X0051500Y0086500D03*
X0051500Y0711500D03*
X0611500Y0711500D03*
X0611500Y0086500D03*
M02*
