G75*
%MOIN*%
%OFA0B0*%
%FSLAX24Y24*%
%IPPOS*%
%LPD*%
%AMOC8*
5,1,8,0,0,1.08239X$1,22.5*
%
%ADD10C,0.0180*%
%ADD11C,0.0295*%
%ADD12C,0.0139*%
%ADD13C,0.0050*%
%ADD14C,0.0178*%
%ADD15C,0.0140*%
D10*
X005658Y005566D03*
X005789Y005308D03*
X006075Y005434D03*
X006124Y005145D03*
X006276Y004899D03*
X006551Y005048D03*
X006613Y005333D03*
X007095Y004993D03*
X007057Y004704D03*
X007153Y004428D03*
X007343Y004210D03*
X007590Y004403D03*
X007603Y004694D03*
X007708Y004136D03*
X007917Y003935D03*
X008146Y004148D03*
X008135Y004439D03*
X008687Y004229D03*
X008722Y003940D03*
X008883Y003696D03*
X009122Y003533D03*
X009313Y003781D03*
X009254Y004066D03*
X009494Y003552D03*
X009746Y003409D03*
X009915Y003672D03*
X010115Y003459D03*
X010378Y003338D03*
X009833Y003952D03*
X008511Y003708D03*
X008287Y003891D03*
X006795Y004532D03*
X006623Y004765D03*
X006161Y005712D03*
X005742Y006128D03*
X005634Y005858D03*
X005338Y005756D03*
X005229Y006025D03*
X005229Y006317D03*
X004926Y006241D03*
X004840Y006517D03*
X004865Y006809D03*
X005017Y007057D03*
X004494Y007041D03*
X004543Y007329D03*
X004715Y007564D03*
X004192Y007592D03*
X004231Y007305D03*
X004265Y007875D03*
X004457Y008094D03*
X003938Y008166D03*
X003952Y007876D03*
X004034Y008442D03*
X004243Y008644D03*
X003732Y008759D03*
X003852Y009026D03*
X004077Y009210D03*
X003577Y009367D03*
X003543Y009080D03*
X003718Y009623D03*
X003959Y009788D03*
X003722Y008469D03*
X004556Y006758D03*
X005360Y006577D03*
X003959Y012036D03*
X003718Y012202D03*
X003577Y012458D03*
X003543Y012745D03*
X003852Y012799D03*
X004077Y012614D03*
X003732Y013066D03*
X003722Y013355D03*
X004034Y013383D03*
X004243Y013180D03*
X003938Y013659D03*
X003952Y013948D03*
X004265Y013950D03*
X004457Y013730D03*
X004192Y014233D03*
X004231Y014520D03*
X004543Y014496D03*
X004715Y014261D03*
X004494Y014784D03*
X004556Y015067D03*
X004865Y015016D03*
X005017Y014768D03*
X005360Y015247D03*
X005229Y015508D03*
X005229Y015800D03*
X005338Y016069D03*
X005634Y015967D03*
X005658Y016259D03*
X005789Y016517D03*
X006075Y016391D03*
X006124Y016679D03*
X006276Y016926D03*
X006551Y016777D03*
X006613Y016492D03*
X007095Y016832D03*
X007057Y017121D03*
X007153Y017397D03*
X007343Y017615D03*
X007590Y017422D03*
X007603Y017131D03*
X007708Y017689D03*
X007917Y017890D03*
X008146Y017677D03*
X008135Y017386D03*
X008687Y017596D03*
X008722Y017885D03*
X008883Y018129D03*
X009122Y018292D03*
X009313Y018044D03*
X009254Y017759D03*
X009494Y018273D03*
X009746Y018416D03*
X009915Y018153D03*
X010115Y018366D03*
X010378Y018487D03*
X009833Y017873D03*
X008511Y018116D03*
X008287Y017933D03*
X006795Y017293D03*
X006623Y017060D03*
X006161Y016113D03*
X005742Y015697D03*
X004926Y015584D03*
X004840Y015307D03*
X011447Y018487D03*
X011709Y018366D03*
X011909Y018153D03*
X012079Y018416D03*
X012330Y018273D03*
X012512Y018044D03*
X012571Y017759D03*
X012941Y018129D03*
X012702Y018292D03*
X013103Y017885D03*
X013138Y017596D03*
X013538Y017933D03*
X013314Y018116D03*
X013908Y017890D03*
X014116Y017689D03*
X014235Y017422D03*
X014221Y017131D03*
X014672Y017397D03*
X014481Y017615D03*
X014768Y017121D03*
X014730Y016832D03*
X015202Y017060D03*
X015030Y017293D03*
X015274Y016777D03*
X015212Y016492D03*
X015701Y016679D03*
X015549Y016926D03*
X015749Y016391D03*
X016036Y016517D03*
X016167Y016259D03*
X016191Y015967D03*
X016487Y016069D03*
X016596Y015800D03*
X016595Y015508D03*
X016899Y015584D03*
X016985Y015307D03*
X016960Y015016D03*
X016808Y014768D03*
X017331Y014784D03*
X017282Y014496D03*
X017110Y014261D03*
X017633Y014233D03*
X017594Y014520D03*
X017560Y013950D03*
X017368Y013730D03*
X017887Y013659D03*
X017873Y013948D03*
X017791Y013383D03*
X017581Y013180D03*
X018092Y013066D03*
X017973Y012799D03*
X017748Y012614D03*
X018247Y012458D03*
X018282Y012745D03*
X018106Y012202D03*
X017866Y012036D03*
X018102Y013355D03*
X017269Y015067D03*
X016465Y015247D03*
X016082Y015697D03*
X015664Y016113D03*
X013689Y017386D03*
X013679Y017677D03*
X011992Y017873D03*
X017866Y009788D03*
X018106Y009623D03*
X018247Y009367D03*
X018282Y009080D03*
X017973Y009026D03*
X017748Y009210D03*
X018092Y008759D03*
X018102Y008469D03*
X017791Y008442D03*
X017581Y008644D03*
X017887Y008166D03*
X017873Y007876D03*
X017560Y007875D03*
X017368Y008094D03*
X017633Y007592D03*
X017594Y007305D03*
X017282Y007329D03*
X017110Y007564D03*
X017331Y007041D03*
X017269Y006758D03*
X016960Y006809D03*
X016808Y007057D03*
X016465Y006577D03*
X016595Y006317D03*
X016596Y006025D03*
X016487Y005756D03*
X016191Y005858D03*
X016167Y005566D03*
X016036Y005308D03*
X015749Y005434D03*
X015701Y005145D03*
X015549Y004899D03*
X015274Y005048D03*
X015212Y005333D03*
X015664Y005712D03*
X016082Y006128D03*
X016899Y006241D03*
X016985Y006517D03*
X015202Y004765D03*
X015030Y004532D03*
X014768Y004704D03*
X014730Y004993D03*
X014672Y004428D03*
X014481Y004210D03*
X014235Y004403D03*
X014221Y004694D03*
X014116Y004136D03*
X013908Y003935D03*
X013679Y004148D03*
X013689Y004439D03*
X013138Y004229D03*
X013103Y003940D03*
X012941Y003696D03*
X012702Y003533D03*
X012512Y003781D03*
X012571Y004066D03*
X012330Y003552D03*
X012079Y003409D03*
X011909Y003672D03*
X011709Y003459D03*
X011447Y003338D03*
X011992Y003952D03*
X013314Y003708D03*
X013538Y003891D03*
D11*
X011112Y003312D03*
X010712Y003312D03*
X003550Y010716D03*
X003550Y011424D03*
X010712Y018512D03*
X011112Y018512D03*
X018275Y011109D03*
X018275Y010401D03*
D12*
X017990Y011193D03*
X018120Y011492D03*
X018202Y011728D03*
X017766Y011615D03*
X017312Y011112D03*
X017026Y011327D03*
X017046Y011521D03*
X016817Y011548D03*
X016878Y011770D03*
X016635Y011817D03*
X016696Y012039D03*
X016467Y012066D03*
X016528Y012288D03*
X016285Y012335D03*
X016347Y012557D03*
X016118Y012584D03*
X016179Y012806D03*
X015936Y012853D03*
X015997Y013076D03*
X015768Y013102D03*
X015795Y013331D03*
X015512Y013512D03*
X015312Y013912D03*
X015012Y014412D03*
X014487Y014337D03*
X014487Y014537D03*
X014487Y014737D03*
X014508Y014951D03*
X015264Y015235D03*
X015431Y015166D03*
X015598Y015098D03*
X015765Y015030D03*
X015655Y014745D03*
X015822Y014676D03*
X015989Y014608D03*
X016156Y014539D03*
X015963Y014199D03*
X016151Y014144D03*
X016338Y014090D03*
X016526Y014035D03*
X015312Y015712D03*
X013987Y013862D03*
X013962Y013662D03*
X014087Y013512D03*
X014287Y013412D03*
X014012Y013162D03*
X014237Y013087D03*
X014462Y013012D03*
X014662Y012937D03*
X014587Y012562D03*
X014362Y012637D03*
X014812Y012487D03*
X015012Y012412D03*
X014937Y012037D03*
X014712Y012112D03*
X015162Y011962D03*
X015362Y011887D03*
X015062Y011587D03*
X015287Y011512D03*
X015512Y011437D03*
X015712Y011362D03*
X015637Y010987D03*
X015412Y011062D03*
X015862Y010912D03*
X016067Y010862D03*
X016610Y011028D03*
X016777Y010953D03*
X016781Y010762D03*
X016994Y010704D03*
X017212Y010512D03*
X016512Y010012D03*
X016212Y009612D03*
X015612Y009512D03*
X015012Y009612D03*
X014712Y010012D03*
X014412Y010312D03*
X013912Y010212D03*
X013412Y010212D03*
X012912Y010212D03*
X013112Y009712D03*
X013412Y009512D03*
X013912Y009512D03*
X014412Y009512D03*
X015312Y010212D03*
X016812Y009712D03*
X017212Y009812D03*
X014937Y007337D03*
X014737Y007337D03*
X014537Y007337D03*
X014337Y007337D03*
X013812Y007012D03*
X013387Y007562D03*
X013512Y007737D03*
X013662Y007862D03*
X013862Y007837D03*
X013162Y007812D03*
X013087Y007587D03*
X013012Y007362D03*
X012937Y007162D03*
X012562Y007237D03*
X012487Y007012D03*
X012412Y006812D03*
X012037Y006887D03*
X011962Y006662D03*
X011887Y006462D03*
X011587Y006762D03*
X011512Y006537D03*
X011437Y006312D03*
X011362Y006112D03*
X010987Y006187D03*
X010912Y005962D03*
X010837Y005762D03*
X010911Y005110D03*
X010860Y004899D03*
X010648Y004914D03*
X010412Y004612D03*
X011112Y004512D03*
X011402Y004660D03*
X011458Y004866D03*
X011689Y004833D03*
X011512Y005412D03*
X011126Y005070D03*
X012212Y005312D03*
X012012Y005812D03*
X012612Y006212D03*
X012812Y005712D03*
X013312Y006112D03*
X013212Y006612D03*
X014012Y006512D03*
X014362Y005912D03*
X014537Y005987D03*
X014712Y006037D03*
X014908Y005976D03*
X014887Y006262D03*
X015062Y006337D03*
X015237Y006387D03*
X015433Y006326D03*
X015512Y006712D03*
X014383Y005626D03*
X014187Y005687D03*
X014012Y005637D03*
X013837Y005562D03*
X013662Y005337D03*
X013487Y005287D03*
X013312Y005212D03*
X013342Y004948D03*
X013137Y004987D03*
X012962Y004937D03*
X012787Y004862D03*
X012796Y004584D03*
X012262Y004512D03*
X012312Y004262D03*
X011702Y004049D03*
X011562Y003937D03*
X011387Y003887D03*
X011212Y003812D03*
X010012Y005312D03*
X009712Y006412D03*
X009712Y006912D03*
X010112Y006712D03*
X010212Y007112D03*
X010312Y007512D03*
X010412Y008012D03*
X010512Y008312D03*
X011112Y008412D03*
X011512Y008812D03*
X011112Y009112D03*
X011512Y009512D03*
X011912Y009212D03*
X012212Y009912D03*
X011712Y010012D03*
X011712Y010612D03*
X012112Y010512D03*
X012312Y011112D03*
X012612Y011012D03*
X013112Y010812D03*
X013412Y011212D03*
X013712Y010812D03*
X012912Y011712D03*
X012312Y011812D03*
X012312Y012312D03*
X011812Y012012D03*
X011412Y011612D03*
X011812Y011212D03*
X010712Y011712D03*
X010112Y011812D03*
X009612Y011912D03*
X009712Y011312D03*
X010112Y011212D03*
X010012Y010612D03*
X009512Y010712D03*
X009212Y010812D03*
X008712Y011012D03*
X008412Y010612D03*
X008112Y011012D03*
X007912Y011612D03*
X008412Y011612D03*
X008912Y011612D03*
X008712Y012112D03*
X008412Y012312D03*
X007912Y012312D03*
X007412Y012312D03*
X007112Y011812D03*
X006812Y012212D03*
X006512Y011612D03*
X006212Y012312D03*
X005612Y012212D03*
X005312Y011812D03*
X005012Y012112D03*
X004612Y012012D03*
X004612Y011312D03*
X004831Y011121D03*
X005044Y011063D03*
X005048Y010871D03*
X005215Y010797D03*
X004799Y010498D03*
X004779Y010304D03*
X005008Y010277D03*
X004947Y010055D03*
X005190Y010008D03*
X005129Y009786D03*
X005358Y009759D03*
X005296Y009537D03*
X005539Y009490D03*
X005478Y009267D03*
X005707Y009241D03*
X005646Y009019D03*
X005889Y008971D03*
X005828Y008749D03*
X006057Y008723D03*
X006030Y008494D03*
X006312Y008312D03*
X006512Y007912D03*
X006812Y007412D03*
X007337Y007487D03*
X007337Y007287D03*
X007337Y007087D03*
X007317Y006873D03*
X006561Y006590D03*
X006394Y006658D03*
X006227Y006727D03*
X006060Y006795D03*
X006170Y007080D03*
X006003Y007149D03*
X005836Y007217D03*
X005669Y007285D03*
X005862Y007626D03*
X005674Y007681D03*
X005487Y007735D03*
X005299Y007790D03*
X006512Y006112D03*
X007837Y007962D03*
X007862Y008162D03*
X007737Y008312D03*
X007537Y008412D03*
X007812Y008662D03*
X007587Y008737D03*
X007362Y008812D03*
X007162Y008887D03*
X007237Y009262D03*
X007012Y009337D03*
X006812Y009412D03*
X006887Y009787D03*
X006662Y009862D03*
X006462Y009937D03*
X006762Y010237D03*
X006537Y010312D03*
X006312Y010387D03*
X006112Y010462D03*
X006187Y010837D03*
X005962Y010912D03*
X005767Y010962D03*
X006412Y010762D03*
X007412Y011512D03*
X008912Y010112D03*
X009512Y010012D03*
X009512Y009512D03*
X010012Y009812D03*
X010412Y010212D03*
X010512Y009512D03*
X011112Y010112D03*
X009712Y008812D03*
X009712Y008312D03*
X009812Y007912D03*
X009712Y007412D03*
X011062Y006412D03*
X012112Y007112D03*
X012637Y007462D03*
X012712Y009512D03*
X011312Y012312D03*
X010712Y012712D03*
X010312Y013012D03*
X009912Y012612D03*
X010312Y012312D03*
X010712Y013412D03*
X011312Y013512D03*
X011412Y013812D03*
X011512Y014312D03*
X011612Y014712D03*
X011712Y015112D03*
X012112Y014912D03*
X012112Y014412D03*
X012012Y013912D03*
X012112Y013512D03*
X012112Y013012D03*
X010237Y015062D03*
X010312Y015287D03*
X010387Y015512D03*
X010462Y015712D03*
X010837Y015637D03*
X010762Y015412D03*
X010912Y015862D03*
X010987Y016062D03*
X010913Y016715D03*
X010965Y016926D03*
X011177Y016911D03*
X011412Y017212D03*
X010712Y017312D03*
X010423Y017165D03*
X010367Y016959D03*
X010136Y016992D03*
X010312Y016412D03*
X010699Y016755D03*
X009612Y016512D03*
X009812Y016012D03*
X009212Y015612D03*
X009012Y016112D03*
X008512Y015712D03*
X008612Y015212D03*
X008887Y014662D03*
X008812Y014462D03*
X008737Y014237D03*
X008662Y014012D03*
X008437Y014262D03*
X008312Y014087D03*
X008162Y013962D03*
X007962Y013987D03*
X007487Y014487D03*
X007287Y014487D03*
X007087Y014487D03*
X006887Y014487D03*
X006312Y015112D03*
X006392Y015498D03*
X006587Y015437D03*
X006762Y015487D03*
X006937Y015562D03*
X007112Y015787D03*
X007287Y015837D03*
X007462Y015912D03*
X007637Y016137D03*
X007812Y016187D03*
X007987Y016262D03*
X008162Y016487D03*
X008337Y016537D03*
X008512Y016612D03*
X008483Y016876D03*
X008687Y016837D03*
X008862Y016887D03*
X009037Y016962D03*
X009029Y017240D03*
X009209Y017232D03*
X009397Y017217D03*
X009562Y017312D03*
X009512Y017562D03*
X010123Y017775D03*
X010262Y017887D03*
X010437Y017937D03*
X010612Y018012D03*
X011812Y016512D03*
X012112Y015412D03*
X009937Y015362D03*
X009862Y015162D03*
X009787Y014937D03*
X009712Y014712D03*
X009412Y015012D03*
X009337Y014812D03*
X009262Y014587D03*
X009187Y014362D03*
X008012Y014812D03*
X007812Y015312D03*
X007442Y016198D03*
X007967Y016548D03*
X006917Y015848D03*
X009112Y012312D03*
X007112Y009712D03*
X007462Y009187D03*
X004512Y010712D03*
X004059Y010210D03*
X003704Y010333D03*
X003622Y010096D03*
X003834Y010631D03*
X013858Y005276D03*
D13*
X010228Y004158D02*
X010189Y004294D01*
X010147Y004429D01*
X010102Y004563D01*
X010053Y004696D01*
X010001Y004828D01*
X009946Y004959D01*
X009888Y005088D01*
X008988Y005062D02*
X008968Y005117D01*
X008952Y005173D01*
X008938Y005230D01*
X008927Y005287D01*
X008919Y005345D01*
X008915Y005404D01*
X008913Y005462D01*
X008912Y005462D02*
X008912Y008519D01*
X008812Y008445D02*
X008812Y005412D01*
X009012Y005612D02*
X009012Y008593D01*
X009112Y008659D02*
X009112Y005787D01*
X009212Y006137D02*
X009212Y008732D01*
X009312Y008792D02*
X009312Y006362D01*
X009412Y006562D02*
X009412Y008859D01*
X009020Y009499D02*
X007649Y010870D01*
X007589Y010770D02*
X008920Y009439D01*
X008820Y009366D02*
X007566Y010620D01*
X007713Y010972D02*
X009120Y009566D01*
X008720Y009300D02*
X007775Y010245D01*
X007751Y010095D02*
X008620Y009226D01*
X008520Y009152D02*
X007952Y009720D01*
X007910Y009570D02*
X008420Y009060D01*
X008320Y008974D02*
X008099Y009195D01*
X008062Y009045D02*
X008220Y008887D01*
X009019Y009499D02*
X009061Y009455D01*
X009099Y009409D01*
X009135Y009360D01*
X009168Y009309D01*
X009197Y009257D01*
X009224Y009202D01*
X009247Y009147D01*
X009267Y009090D01*
X009283Y009031D01*
X009296Y008972D01*
X009305Y008913D01*
X009310Y008852D01*
X009312Y008792D01*
X008712Y008352D02*
X008712Y005687D01*
X008612Y005762D02*
X008612Y008267D01*
X008512Y008180D02*
X008512Y005837D01*
X010509Y005879D02*
X010512Y005812D01*
X010513Y005745D01*
X010512Y005745D02*
X010512Y005628D01*
X009113Y005137D02*
X009089Y005203D01*
X009068Y005269D01*
X009051Y005337D01*
X009037Y005405D01*
X009025Y005474D01*
X009017Y005543D01*
X009013Y005612D01*
X008412Y006262D02*
X008412Y008087D01*
X008312Y008003D02*
X008312Y006637D01*
X008212Y006737D02*
X008212Y007997D01*
X008061Y007964D02*
X007862Y008162D01*
X007862Y008162D01*
X007891Y008424D02*
X007875Y008437D01*
X007857Y008448D01*
X007838Y008456D01*
X007818Y008460D01*
X007798Y008462D01*
X007618Y008462D01*
X007601Y008460D01*
X007586Y008456D01*
X007571Y008449D01*
X007557Y008439D01*
X007546Y008426D01*
X007538Y008412D01*
X008319Y008974D02*
X008361Y008930D01*
X008399Y008884D01*
X008435Y008835D01*
X008468Y008784D01*
X008497Y008732D01*
X008524Y008677D01*
X008547Y008622D01*
X008567Y008565D01*
X008583Y008506D01*
X008596Y008447D01*
X008605Y008388D01*
X008610Y008327D01*
X008612Y008267D01*
X008138Y008176D02*
X007890Y008424D01*
X008812Y008445D02*
X008810Y008505D01*
X008805Y008566D01*
X008796Y008625D01*
X008783Y008684D01*
X008767Y008743D01*
X008747Y008800D01*
X008724Y008855D01*
X008697Y008910D01*
X008668Y008962D01*
X008635Y009013D01*
X008599Y009062D01*
X008561Y009108D01*
X008519Y009152D01*
X009119Y009566D02*
X009161Y009522D01*
X009199Y009476D01*
X009235Y009427D01*
X009268Y009376D01*
X009297Y009324D01*
X009324Y009269D01*
X009347Y009214D01*
X009367Y009157D01*
X009383Y009098D01*
X009396Y009039D01*
X009405Y008980D01*
X009410Y008919D01*
X009412Y008859D01*
X009212Y008732D02*
X009210Y008792D01*
X009205Y008853D01*
X009196Y008912D01*
X009183Y008971D01*
X009167Y009030D01*
X009147Y009087D01*
X009124Y009142D01*
X009097Y009197D01*
X009068Y009249D01*
X009035Y009300D01*
X008999Y009349D01*
X008961Y009395D01*
X008919Y009439D01*
X008819Y009366D02*
X008861Y009322D01*
X008899Y009276D01*
X008935Y009227D01*
X008968Y009176D01*
X008997Y009124D01*
X009024Y009069D01*
X009047Y009014D01*
X009067Y008957D01*
X009083Y008898D01*
X009096Y008839D01*
X009105Y008780D01*
X009110Y008719D01*
X009112Y008659D01*
X008112Y007840D02*
X008112Y006837D01*
X007536Y007327D02*
X007512Y007362D01*
X007337Y007487D01*
X008312Y008003D02*
X008310Y008063D01*
X008305Y008124D01*
X008296Y008183D01*
X008283Y008242D01*
X008267Y008301D01*
X008247Y008358D01*
X008224Y008413D01*
X008197Y008468D01*
X008168Y008520D01*
X008135Y008571D01*
X008099Y008620D01*
X008061Y008666D01*
X008019Y008710D01*
X008719Y009300D02*
X008761Y009256D01*
X008799Y009210D01*
X008835Y009161D01*
X008868Y009110D01*
X008897Y009058D01*
X008924Y009003D01*
X008947Y008948D01*
X008967Y008891D01*
X008983Y008832D01*
X008996Y008773D01*
X009005Y008714D01*
X009010Y008653D01*
X009012Y008593D01*
X008912Y008519D02*
X008910Y008579D01*
X008905Y008640D01*
X008896Y008699D01*
X008883Y008758D01*
X008867Y008817D01*
X008847Y008874D01*
X008824Y008929D01*
X008797Y008984D01*
X008768Y009036D01*
X008735Y009087D01*
X008699Y009136D01*
X008661Y009182D01*
X008619Y009226D01*
X007772Y008812D02*
X007768Y008812D01*
X007714Y008962D02*
X007343Y008962D01*
X007952Y009719D02*
X007908Y009761D01*
X007862Y009799D01*
X007813Y009835D01*
X007762Y009868D01*
X007710Y009897D01*
X007655Y009924D01*
X007600Y009947D01*
X007543Y009967D01*
X007484Y009983D01*
X007425Y009996D01*
X007366Y010005D01*
X007305Y010010D01*
X007245Y010012D01*
X006643Y010012D01*
X006537Y010312D02*
X006558Y010331D01*
X006582Y010348D01*
X006607Y010362D01*
X006633Y010373D01*
X006661Y010381D01*
X006689Y010385D01*
X006718Y010387D01*
X007044Y010387D01*
X007006Y011265D02*
X007066Y011263D01*
X007127Y011258D01*
X007186Y011249D01*
X007245Y011236D01*
X007304Y011220D01*
X007361Y011200D01*
X007416Y011177D01*
X007471Y011150D01*
X007523Y011121D01*
X007574Y011088D01*
X007623Y011052D01*
X007669Y011014D01*
X007713Y010972D01*
X007006Y011265D02*
X005766Y011265D01*
X005657Y011273D02*
X005509Y011292D01*
X005433Y011299D01*
X005376Y011074D02*
X005070Y010867D01*
X005048Y010871D01*
X004879Y011154D02*
X004831Y011121D01*
X004779Y010304D02*
X004497Y010113D01*
X004646Y009852D02*
X004947Y010055D01*
X005129Y009786D02*
X004815Y009574D01*
X004647Y009852D02*
X004615Y009829D01*
X004586Y009803D01*
X004560Y009774D01*
X004536Y009743D01*
X004515Y009710D01*
X004498Y009675D01*
X004484Y009638D01*
X004473Y009600D01*
X004466Y009562D01*
X004399Y009076D01*
X004271Y009163D02*
X004310Y009787D01*
X004148Y009651D02*
X004155Y009989D01*
X004114Y010127D02*
X004059Y010210D01*
X004114Y010127D02*
X004129Y010101D01*
X004141Y010075D01*
X004149Y010047D01*
X004154Y010018D01*
X004155Y009989D01*
X003765Y009969D02*
X003718Y009623D01*
X004061Y009479D02*
X004082Y009498D01*
X004101Y009519D01*
X004117Y009543D01*
X004130Y009568D01*
X004140Y009595D01*
X004146Y009623D01*
X004148Y009651D01*
X004061Y009479D02*
X003543Y009080D01*
X003852Y009026D02*
X003987Y008976D01*
X004137Y008990D02*
X004182Y009017D01*
X004261Y008877D02*
X004288Y008894D01*
X004312Y008913D01*
X004334Y008936D01*
X004353Y008960D01*
X004370Y008987D01*
X004383Y009016D01*
X004392Y009046D01*
X004399Y009076D01*
X004261Y008877D02*
X004117Y008798D01*
X004061Y008759D02*
X003722Y008469D01*
X004034Y008442D02*
X004215Y008426D01*
X004315Y008451D02*
X004464Y008547D01*
X004600Y008428D02*
X004616Y008441D01*
X004631Y008456D01*
X004643Y008472D01*
X004652Y008491D01*
X004659Y008510D01*
X004819Y009104D01*
X004657Y009333D02*
X004665Y009369D01*
X004677Y009404D01*
X004693Y009437D01*
X004712Y009469D01*
X004734Y009499D01*
X004758Y009527D01*
X004786Y009552D01*
X004815Y009574D01*
X004310Y009787D02*
X004314Y009826D01*
X004322Y009864D01*
X004333Y009901D01*
X004347Y009937D01*
X004365Y009972D01*
X004386Y010005D01*
X004410Y010036D01*
X004436Y010064D01*
X004465Y010090D01*
X004496Y010113D01*
X003756Y010126D02*
X003704Y010333D01*
X003756Y010126D02*
X003763Y010088D01*
X003767Y010048D01*
X003768Y010009D01*
X003764Y009970D01*
X004272Y009163D02*
X004268Y009137D01*
X004261Y009113D01*
X004251Y009090D01*
X004238Y009068D01*
X004222Y009048D01*
X004203Y009031D01*
X004182Y009017D01*
X004137Y008991D02*
X004114Y008979D01*
X004089Y008971D01*
X004063Y008967D01*
X004037Y008966D01*
X004011Y008970D01*
X003986Y008977D01*
X004216Y008427D02*
X004237Y008426D01*
X004257Y008429D01*
X004278Y008434D01*
X004297Y008441D01*
X004316Y008451D01*
X004117Y008798D02*
X004088Y008780D01*
X004061Y008760D01*
X004464Y008548D02*
X004482Y008561D01*
X004497Y008577D01*
X004509Y008596D01*
X004519Y008616D01*
X004525Y008637D01*
X004657Y009333D01*
X004971Y009317D02*
X005296Y009537D01*
X005478Y009267D02*
X005113Y009021D01*
X004819Y009104D02*
X004831Y009140D01*
X004846Y009175D01*
X004865Y009208D01*
X004887Y009239D01*
X004912Y009268D01*
X004940Y009294D01*
X004971Y009317D01*
X004939Y008778D02*
X004831Y008373D01*
X004804Y008304D02*
X004697Y008089D01*
X004674Y008055D02*
X004548Y007910D01*
X004412Y007857D02*
X004265Y007875D01*
X004411Y007857D02*
X004433Y007856D01*
X004455Y007858D01*
X004476Y007863D01*
X004496Y007871D01*
X004515Y007881D01*
X004533Y007895D01*
X004548Y007910D01*
X004648Y007792D02*
X004938Y008158D01*
X004963Y008203D02*
X005100Y008558D01*
X005260Y008758D02*
X005646Y009019D01*
X005828Y008749D02*
X005120Y008116D01*
X005027Y007966D02*
X004888Y007458D01*
X004853Y007407D02*
X004762Y007340D01*
X004961Y007278D02*
X004976Y007299D01*
X004988Y007322D01*
X004997Y007346D01*
X004996Y007346D02*
X005158Y007871D01*
X005027Y007966D02*
X005036Y007994D01*
X005048Y008022D01*
X005063Y008048D01*
X005080Y008072D01*
X005099Y008095D01*
X005120Y008116D01*
X005272Y008019D02*
X006030Y008494D01*
X005260Y008759D02*
X005230Y008737D01*
X005202Y008712D01*
X005176Y008685D01*
X005153Y008656D01*
X005132Y008625D01*
X005115Y008592D01*
X005100Y008558D01*
X004940Y008778D02*
X004951Y008814D01*
X004966Y008849D01*
X004984Y008883D01*
X005004Y008915D01*
X005028Y008945D01*
X005054Y008973D01*
X005083Y008998D01*
X005113Y009021D01*
X004600Y008428D02*
X004305Y008235D01*
X003952Y007876D01*
X004674Y008054D02*
X004687Y008071D01*
X004697Y008089D01*
X004937Y008159D02*
X004947Y008173D01*
X004956Y008188D01*
X004963Y008203D01*
X004648Y007792D02*
X004231Y007305D01*
X004543Y007329D02*
X004666Y007314D01*
X004686Y007313D01*
X004707Y007315D01*
X004726Y007320D01*
X004745Y007329D01*
X004762Y007340D01*
X004853Y007407D02*
X004865Y007418D01*
X004875Y007430D01*
X004882Y007443D01*
X004888Y007458D01*
X004961Y007278D02*
X004556Y006758D01*
X004865Y006809D02*
X005075Y006884D01*
X005176Y006975D02*
X005373Y007390D01*
X005419Y007508D02*
X005487Y007735D01*
X005272Y008018D02*
X005246Y008000D01*
X005223Y007979D01*
X005202Y007955D01*
X005185Y007928D01*
X005170Y007900D01*
X005159Y007871D01*
X005419Y007508D02*
X005406Y007468D01*
X005390Y007428D01*
X005373Y007389D01*
X005485Y007300D02*
X005244Y006847D01*
X005242Y006845D02*
X004926Y006241D01*
X005229Y006317D02*
X005340Y006346D01*
X005751Y005902D02*
X005786Y005917D01*
X005820Y005936D01*
X005852Y005957D01*
X005882Y005981D01*
X005910Y006008D01*
X005935Y006037D01*
X005957Y006068D01*
X005958Y006067D02*
X006125Y006322D01*
X006172Y006438D02*
X006227Y006727D01*
X006015Y006954D02*
X005985Y006928D01*
X005957Y006900D01*
X005931Y006869D01*
X005908Y006836D01*
X005887Y006802D01*
X005630Y006327D01*
X005338Y005756D01*
X008483Y004573D02*
X008522Y004680D01*
X008558Y004789D01*
X008590Y004898D01*
X008619Y005009D01*
X008644Y005121D01*
X008665Y005233D01*
X008683Y005346D01*
X008696Y005460D01*
X008706Y005574D01*
X008713Y005688D01*
X007937Y005362D02*
X007612Y004987D01*
X007483Y004826D01*
X007708Y004467D02*
X007735Y004480D01*
X007761Y004494D01*
X007786Y004512D01*
X007808Y004532D01*
X007828Y004554D01*
X007846Y004578D01*
X007862Y004604D01*
X007875Y004631D01*
X007483Y004826D02*
X007461Y004796D01*
X007442Y004765D01*
X007427Y004731D01*
X007414Y004697D01*
X007404Y004661D01*
X007397Y004625D01*
X007398Y004625D02*
X007343Y004210D01*
X007590Y004403D02*
X007708Y004467D01*
X006835Y004799D02*
X006845Y004851D01*
X006857Y004903D01*
X006874Y004955D01*
X006893Y005005D01*
X006916Y005053D01*
X006941Y005100D01*
X006970Y005146D01*
X007132Y005287D01*
X007787Y005837D01*
X008612Y005763D02*
X008609Y005708D01*
X008603Y005653D01*
X008593Y005598D01*
X008579Y005545D01*
X008562Y005492D01*
X008541Y005441D01*
X008517Y005391D01*
X008489Y005344D01*
X008458Y005298D01*
X008424Y005254D01*
X008387Y005213D01*
X008988Y005062D02*
X009008Y005004D01*
X009025Y004944D01*
X009039Y004883D01*
X009049Y004822D01*
X009055Y004760D01*
X009057Y004698D01*
X009056Y004636D01*
X009050Y004574D01*
X009042Y004513D01*
X009029Y004452D01*
X009013Y004392D01*
X009012Y004392D02*
X008978Y004279D01*
X009099Y004218D02*
X009142Y004362D01*
X010026Y004086D02*
X010025Y004031D01*
X010021Y003977D01*
X010013Y003924D01*
X010001Y003871D01*
X009985Y003819D01*
X009966Y003768D01*
X009942Y003719D01*
X009916Y003672D01*
X009670Y003764D02*
X009746Y003409D01*
X007637Y005963D02*
X007552Y005905D01*
X007468Y005844D01*
X007387Y005781D01*
X007308Y005714D01*
X007232Y005645D01*
X007158Y005574D01*
X007086Y005499D01*
X007017Y005423D01*
X006951Y005344D01*
X006888Y005262D01*
X006519Y005510D02*
X006493Y005485D01*
X006470Y005458D01*
X006448Y005430D01*
X006429Y005400D01*
X006413Y005368D01*
X006399Y005336D01*
X006360Y005233D01*
X006344Y005181D02*
X006276Y004899D01*
X006344Y005180D02*
X006351Y005207D01*
X006360Y005233D01*
X006519Y005510D02*
X006662Y005637D01*
X007397Y006271D01*
X007326Y006401D02*
X006555Y005769D01*
X006495Y005710D02*
X006425Y005626D01*
X006889Y005262D02*
X006860Y005226D01*
X006829Y005193D01*
X006796Y005162D01*
X006759Y005135D01*
X006721Y005111D01*
X006681Y005090D01*
X006639Y005072D01*
X006595Y005058D01*
X006551Y005048D01*
X006496Y005710D02*
X006524Y005741D01*
X006555Y005769D01*
X005996Y005858D02*
X005975Y005829D01*
X005956Y005798D01*
X005939Y005766D01*
X005925Y005732D01*
X005913Y005698D01*
X005904Y005663D01*
X005905Y005663D02*
X005789Y005308D01*
X005634Y005858D02*
X005752Y005902D01*
X005997Y005858D02*
X006306Y006211D01*
X006338Y006253D02*
X006561Y006590D01*
X007813Y005462D02*
X007867Y005517D01*
X007919Y005574D01*
X007968Y005634D01*
X008014Y005696D01*
X008057Y005760D01*
X008097Y005826D01*
X008134Y005894D01*
X008167Y005963D01*
X008197Y006034D01*
X008224Y006106D01*
X008248Y006180D01*
X008268Y006255D01*
X008284Y006330D01*
X008297Y006406D01*
X008306Y006483D01*
X008311Y006560D01*
X008313Y006637D01*
X008512Y005837D02*
X008504Y005780D01*
X008492Y005723D01*
X008477Y005667D01*
X008459Y005612D01*
X008438Y005558D01*
X008414Y005506D01*
X008386Y005455D01*
X008356Y005405D01*
X008323Y005358D01*
X008287Y005312D01*
X007812Y005462D02*
X007512Y005208D01*
X008587Y004512D02*
X008625Y004581D01*
X008659Y004651D01*
X008689Y004723D01*
X008717Y004797D01*
X008741Y004871D01*
X008762Y004947D01*
X008779Y005023D01*
X008793Y005100D01*
X008803Y005178D01*
X008810Y005256D01*
X008813Y005334D01*
X008812Y005412D01*
X009688Y004863D02*
X009706Y004807D01*
X009720Y004751D01*
X009732Y004694D01*
X009740Y004636D01*
X009745Y004578D01*
X009746Y004520D01*
X009744Y004462D01*
X009739Y004403D01*
X009730Y004346D01*
X009718Y004289D01*
X009703Y004233D01*
X009702Y004232D02*
X009668Y004062D01*
X009558Y004228D02*
X009562Y004252D01*
X008388Y005212D02*
X008336Y005160D01*
X008286Y005106D01*
X008239Y005050D01*
X008194Y004991D01*
X008153Y004930D01*
X008114Y004867D01*
X008078Y004803D01*
X008046Y004737D01*
X008016Y004669D01*
X007990Y004600D01*
X007967Y004530D01*
X007947Y004459D01*
X007931Y004388D01*
X007917Y003935D01*
X010022Y004177D02*
X010013Y004261D01*
X010001Y004345D01*
X009986Y004429D01*
X009967Y004512D01*
X009945Y004594D01*
X009920Y004675D01*
X009891Y004755D01*
X009860Y004833D01*
X009825Y004911D01*
X009787Y004987D01*
X010022Y004177D02*
X010025Y004086D01*
X009099Y004218D02*
X009085Y004168D01*
X009075Y004116D01*
X009067Y004064D01*
X009063Y004011D01*
X009061Y003959D01*
X009063Y003906D01*
X009067Y003854D01*
X009075Y003801D01*
X009122Y003533D01*
X008497Y003877D02*
X008487Y003931D01*
X008480Y003985D01*
X008476Y004040D01*
X008475Y004094D01*
X008478Y004149D01*
X008484Y004203D01*
X008493Y004257D01*
X008506Y004310D01*
X008522Y004362D01*
X008541Y004414D01*
X008563Y004464D01*
X008588Y004512D01*
X009537Y004813D02*
X009555Y004759D01*
X009569Y004704D01*
X009580Y004648D01*
X009588Y004591D01*
X009592Y004535D01*
X009593Y004478D01*
X009590Y004421D01*
X009584Y004364D01*
X009575Y004308D01*
X009562Y004253D01*
X010227Y004157D02*
X010378Y003338D01*
X009669Y003763D02*
X009661Y003813D01*
X009655Y003862D01*
X009653Y003912D01*
X009654Y003963D01*
X009659Y004012D01*
X009668Y004062D01*
X009559Y004228D02*
X009548Y004177D01*
X009534Y004127D01*
X009517Y004078D01*
X009497Y004030D01*
X009473Y003984D01*
X009447Y003939D01*
X009417Y003896D01*
X009385Y003855D01*
X009351Y003817D01*
X009313Y003780D01*
X008511Y003708D02*
X008497Y003877D01*
X008197Y004184D02*
X008146Y004148D01*
X008722Y003940D02*
X008762Y003968D01*
X008799Y003998D01*
X008834Y004032D01*
X008866Y004068D01*
X008895Y004106D01*
X008921Y004147D01*
X008943Y004190D01*
X008963Y004234D01*
X008979Y004279D01*
X008482Y004572D02*
X008416Y004443D01*
X009143Y004362D02*
X009160Y004426D01*
X009173Y004490D01*
X009183Y004555D01*
X009190Y004621D01*
X009193Y004686D01*
X009192Y004752D01*
X009188Y004818D01*
X009180Y004883D01*
X009168Y004948D01*
X009153Y005012D01*
X009135Y005075D01*
X009113Y005137D01*
X009212Y005512D02*
X009189Y005555D01*
X009168Y005599D01*
X009150Y005645D01*
X009134Y005692D01*
X009122Y005739D01*
X009112Y005787D01*
X007511Y005208D02*
X007479Y005179D01*
X007449Y005147D01*
X007422Y005113D01*
X007397Y005077D01*
X007375Y005040D01*
X007356Y005001D01*
X007340Y004960D01*
X007145Y004745D02*
X007057Y004704D01*
X006834Y004798D02*
X006795Y004532D01*
X007145Y004746D02*
X007178Y004763D01*
X007208Y004784D01*
X007237Y004808D01*
X007263Y004834D01*
X007287Y004863D01*
X007308Y004893D01*
X007325Y004926D01*
X007339Y004961D01*
X008197Y004185D02*
X008235Y004215D01*
X008272Y004248D01*
X008306Y004283D01*
X008337Y004320D01*
X008367Y004359D01*
X008393Y004400D01*
X008417Y004443D01*
X009688Y004862D02*
X009657Y004955D01*
X009623Y005047D01*
X009586Y005137D01*
X009547Y005227D01*
X009505Y005315D01*
X009460Y005402D01*
X009413Y005487D01*
X009379Y005540D01*
X009348Y005595D01*
X009320Y005651D01*
X009295Y005708D01*
X009273Y005767D01*
X009255Y005827D01*
X009240Y005888D01*
X009228Y005950D01*
X009220Y006012D01*
X009215Y006074D01*
X009213Y006137D01*
X010509Y005879D02*
X010462Y006697D01*
X010612Y006678D02*
X010637Y005926D01*
X010906Y005973D02*
X010912Y005962D01*
X010843Y006189D02*
X010837Y006727D01*
X010987Y006704D02*
X010998Y006605D01*
X011379Y006496D02*
X011362Y006893D01*
X011546Y006830D02*
X011587Y006762D01*
X010905Y007385D02*
X010863Y007341D01*
X010825Y007295D01*
X010789Y007246D01*
X010756Y007195D01*
X010727Y007143D01*
X010700Y007088D01*
X010677Y007033D01*
X010657Y006976D01*
X010641Y006917D01*
X010628Y006858D01*
X010619Y006799D01*
X010614Y006738D01*
X010612Y006678D01*
X010755Y007404D02*
X012321Y008970D01*
X012390Y008870D02*
X010905Y007385D01*
X011130Y007434D02*
X012466Y008770D01*
X012538Y008670D02*
X011280Y007411D01*
X011655Y007600D02*
X012625Y008570D01*
X012705Y008470D02*
X011805Y007570D01*
X012180Y007770D02*
X012780Y008370D01*
X012841Y008270D02*
X012234Y007663D01*
X012583Y007551D02*
X012637Y007462D01*
X012234Y007662D02*
X012201Y007624D01*
X012171Y007583D01*
X012144Y007541D01*
X012120Y007496D01*
X012100Y007449D01*
X012084Y007401D01*
X012072Y007352D01*
X012063Y007302D01*
X012059Y007252D01*
X012058Y007201D01*
X012112Y007112D01*
X011887Y007063D02*
X011903Y006824D01*
X011130Y007434D02*
X011088Y007390D01*
X011050Y007344D01*
X011014Y007295D01*
X010981Y007244D01*
X010952Y007192D01*
X010925Y007137D01*
X010902Y007082D01*
X010882Y007024D01*
X010866Y006966D01*
X010853Y006907D01*
X010844Y006848D01*
X010839Y006787D01*
X010837Y006727D01*
X010843Y006190D02*
X010845Y006152D01*
X010851Y006114D01*
X010860Y006077D01*
X010872Y006041D01*
X010887Y006006D01*
X010906Y005973D01*
X010638Y005926D02*
X010640Y005880D01*
X010645Y005834D01*
X010654Y005788D01*
X010666Y005744D01*
X010681Y005700D01*
X010700Y005658D01*
X010722Y005617D01*
X010747Y005578D01*
X010784Y005552D01*
X010839Y005495D02*
X011126Y005070D01*
X010860Y004899D02*
X010592Y005296D01*
X010541Y005403D01*
X010784Y005551D02*
X010805Y005535D01*
X010823Y005516D01*
X010839Y005495D01*
X010542Y005403D02*
X010529Y005439D01*
X010519Y005476D01*
X010512Y005514D01*
X010509Y005552D01*
X010510Y005590D01*
X010513Y005628D01*
X011437Y006312D02*
X011432Y006321D01*
X011432Y006320D02*
X011414Y006353D01*
X011400Y006387D01*
X011389Y006422D01*
X011382Y006459D01*
X011378Y006496D01*
X011062Y006412D02*
X011043Y006448D01*
X011026Y006486D01*
X011013Y006525D01*
X011003Y006565D01*
X010997Y006605D01*
X010462Y006697D02*
X010464Y006757D01*
X010469Y006818D01*
X010478Y006877D01*
X010491Y006936D01*
X010507Y006995D01*
X010527Y007052D01*
X010550Y007107D01*
X010577Y007162D01*
X010606Y007214D01*
X010639Y007265D01*
X010675Y007314D01*
X010713Y007360D01*
X010755Y007404D01*
X011533Y006877D02*
X011535Y006860D01*
X011539Y006845D01*
X011546Y006830D01*
X011946Y006690D02*
X011962Y006662D01*
X010987Y006704D02*
X010989Y006764D01*
X010994Y006825D01*
X011003Y006884D01*
X011016Y006943D01*
X011032Y007002D01*
X011052Y007059D01*
X011075Y007114D01*
X011102Y007169D01*
X011131Y007221D01*
X011164Y007272D01*
X011200Y007321D01*
X011238Y007367D01*
X011280Y007411D01*
X011904Y006823D02*
X011907Y006795D01*
X011913Y006767D01*
X011921Y006740D01*
X011933Y006714D01*
X011946Y006689D01*
X011362Y006893D02*
X011364Y006953D01*
X011369Y007014D01*
X011378Y007073D01*
X011391Y007132D01*
X011407Y007191D01*
X011427Y007248D01*
X011450Y007303D01*
X011477Y007358D01*
X011506Y007410D01*
X011539Y007461D01*
X011575Y007510D01*
X011613Y007556D01*
X011655Y007600D01*
X012412Y007272D02*
X012415Y007210D01*
X012466Y007047D02*
X012487Y007012D01*
X011805Y007570D02*
X011766Y007527D01*
X011729Y007481D01*
X011695Y007433D01*
X011664Y007383D01*
X011636Y007331D01*
X011611Y007278D01*
X011590Y007223D01*
X011572Y007167D01*
X011557Y007110D01*
X011546Y007053D01*
X011538Y006994D01*
X011534Y006936D01*
X011533Y006877D01*
X012655Y007760D02*
X012964Y008070D01*
X013016Y007970D02*
X012959Y007913D01*
X012938Y007860D02*
X012944Y007510D01*
X012964Y007440D02*
X013012Y007362D01*
X012964Y007441D02*
X012956Y007457D01*
X012949Y007474D01*
X012946Y007492D01*
X012944Y007510D01*
X012584Y007551D02*
X012583Y007583D01*
X012587Y007615D01*
X012594Y007647D01*
X012604Y007677D01*
X012618Y007707D01*
X012635Y007734D01*
X012655Y007760D01*
X012705Y007979D02*
X012896Y008170D01*
X012321Y008969D02*
X012365Y009011D01*
X012411Y009049D01*
X012460Y009085D01*
X012511Y009118D01*
X012563Y009147D01*
X012618Y009174D01*
X012673Y009197D01*
X012730Y009217D01*
X012789Y009233D01*
X012848Y009246D01*
X012907Y009255D01*
X012968Y009260D01*
X013028Y009262D01*
X015993Y009262D01*
X015987Y009162D02*
X013097Y009162D01*
X013173Y009062D02*
X015887Y009062D01*
X015787Y008962D02*
X013246Y008962D01*
X013332Y008862D02*
X015687Y008862D01*
X015587Y008762D02*
X013412Y008762D01*
X013487Y008662D02*
X015487Y008662D01*
X015387Y008562D02*
X013548Y008562D01*
X013603Y008462D02*
X015287Y008462D01*
X015187Y008362D02*
X013671Y008362D01*
X013723Y008262D02*
X015087Y008262D01*
X014987Y008162D02*
X013927Y008162D01*
X013899Y008062D02*
X014887Y008062D01*
X014787Y007962D02*
X014164Y007962D01*
X014164Y007963D02*
X014127Y007961D01*
X014090Y007957D01*
X014053Y007948D01*
X014018Y007937D01*
X013984Y007923D01*
X013951Y007906D01*
X013919Y007886D01*
X013890Y007863D01*
X013862Y007838D01*
X013899Y008062D02*
X013857Y008063D01*
X013815Y008060D01*
X013773Y008053D01*
X013732Y008044D01*
X013692Y008031D01*
X013653Y008015D01*
X013615Y007996D01*
X013579Y007974D01*
X013545Y007950D01*
X013513Y007922D01*
X013512Y007922D02*
X013512Y007737D01*
X013487Y008662D02*
X013427Y008660D01*
X013366Y008655D01*
X013307Y008646D01*
X013248Y008633D01*
X013189Y008617D01*
X013132Y008597D01*
X013077Y008574D01*
X013022Y008547D01*
X012970Y008518D01*
X012919Y008485D01*
X012870Y008449D01*
X012824Y008411D01*
X012780Y008369D01*
X012390Y008869D02*
X012434Y008911D01*
X012480Y008949D01*
X012529Y008985D01*
X012580Y009018D01*
X012632Y009047D01*
X012687Y009074D01*
X012742Y009097D01*
X012799Y009117D01*
X012858Y009133D01*
X012917Y009146D01*
X012976Y009155D01*
X013037Y009160D01*
X013097Y009162D01*
X013173Y009062D02*
X013113Y009060D01*
X013052Y009055D01*
X012993Y009046D01*
X012934Y009033D01*
X012875Y009017D01*
X012818Y008997D01*
X012763Y008974D01*
X012708Y008947D01*
X012656Y008918D01*
X012605Y008885D01*
X012556Y008849D01*
X012510Y008811D01*
X012466Y008769D01*
X012959Y007913D02*
X012950Y007901D01*
X012943Y007888D01*
X012939Y007874D01*
X012938Y007860D01*
X013162Y007812D02*
X013219Y007870D01*
X012539Y008669D02*
X012583Y008711D01*
X012629Y008749D01*
X012678Y008785D01*
X012729Y008818D01*
X012781Y008847D01*
X012836Y008874D01*
X012891Y008897D01*
X012948Y008917D01*
X013007Y008933D01*
X013066Y008946D01*
X013125Y008955D01*
X013186Y008960D01*
X013246Y008962D01*
X013332Y008862D02*
X013272Y008860D01*
X013211Y008855D01*
X013152Y008846D01*
X013093Y008833D01*
X013034Y008817D01*
X012977Y008797D01*
X012922Y008774D01*
X012867Y008747D01*
X012815Y008718D01*
X012764Y008685D01*
X012715Y008649D01*
X012669Y008611D01*
X012625Y008569D01*
X012705Y008469D02*
X012749Y008511D01*
X012795Y008549D01*
X012844Y008585D01*
X012895Y008618D01*
X012947Y008647D01*
X013002Y008674D01*
X013057Y008697D01*
X013115Y008717D01*
X013173Y008733D01*
X013232Y008746D01*
X013291Y008755D01*
X013352Y008760D01*
X013412Y008762D01*
X013548Y008562D02*
X013488Y008560D01*
X013427Y008555D01*
X013368Y008546D01*
X013309Y008533D01*
X013250Y008517D01*
X013193Y008497D01*
X013138Y008474D01*
X013083Y008447D01*
X013031Y008418D01*
X012980Y008385D01*
X012931Y008349D01*
X012885Y008311D01*
X012841Y008269D01*
X012414Y007210D02*
X012418Y007176D01*
X012424Y007142D01*
X012435Y007109D01*
X012448Y007077D01*
X012465Y007047D01*
X009412Y006563D02*
X009423Y006452D01*
X009437Y006341D01*
X009455Y006231D01*
X009477Y006121D01*
X009503Y006012D01*
X009532Y005905D01*
X009564Y005798D01*
X009600Y005692D01*
X009640Y005588D01*
X009682Y005484D01*
X009729Y005383D01*
X009778Y005283D01*
X009831Y005184D01*
X009887Y005087D01*
X011212Y003812D02*
X011447Y003338D01*
X008288Y005313D02*
X008220Y005221D01*
X008154Y005128D01*
X008092Y005032D01*
X008033Y004934D01*
X007977Y004835D01*
X007924Y004734D01*
X007875Y004631D01*
X007938Y005362D02*
X007990Y005408D01*
X008039Y005457D01*
X008086Y005509D01*
X008131Y005562D01*
X008172Y005618D01*
X008211Y005676D01*
X008246Y005736D01*
X008279Y005797D01*
X008308Y005860D01*
X008334Y005925D01*
X008357Y005990D01*
X008376Y006057D01*
X008392Y006125D01*
X008404Y006193D01*
X008413Y006262D01*
X008212Y006737D02*
X008210Y006673D01*
X008205Y006609D01*
X008196Y006545D01*
X008184Y006482D01*
X008168Y006420D01*
X008149Y006359D01*
X008126Y006298D01*
X008100Y006240D01*
X008071Y006182D01*
X008039Y006127D01*
X008004Y006073D01*
X007966Y006021D01*
X007925Y005972D01*
X007882Y005924D01*
X007836Y005880D01*
X007787Y005837D01*
X007326Y006401D02*
X007357Y006428D01*
X007385Y006458D01*
X007410Y006491D01*
X007432Y006526D01*
X007450Y006562D01*
X007466Y006601D01*
X007478Y006640D01*
X007486Y006680D01*
X007490Y006721D01*
X007491Y006762D01*
X007488Y006803D01*
X007481Y006844D01*
X007470Y006884D01*
X007456Y006922D01*
X007439Y006959D01*
X007418Y006995D01*
X007394Y007028D01*
X007367Y007059D01*
X007337Y007088D01*
X008112Y006837D02*
X008110Y006776D01*
X008105Y006715D01*
X008096Y006655D01*
X008084Y006595D01*
X008068Y006536D01*
X008048Y006478D01*
X008026Y006422D01*
X008000Y006366D01*
X007971Y006313D01*
X007938Y006261D01*
X007903Y006211D01*
X007865Y006163D01*
X007825Y006118D01*
X007781Y006075D01*
X007735Y006035D01*
X007687Y005997D01*
X007637Y005962D01*
X007397Y006271D02*
X007437Y006309D01*
X007475Y006349D01*
X007510Y006392D01*
X007542Y006438D01*
X007571Y006485D01*
X007597Y006534D01*
X007619Y006585D01*
X007637Y006637D01*
X007652Y006691D01*
X007663Y006745D01*
X007670Y006800D01*
X007674Y006856D01*
X007673Y006911D01*
X007669Y006966D01*
X007661Y007021D01*
X007649Y007075D01*
X007633Y007129D01*
X007614Y007181D01*
X007591Y007231D01*
X007565Y007280D01*
X007536Y007327D01*
X008112Y007840D02*
X008111Y007863D01*
X008106Y007885D01*
X008099Y007907D01*
X008089Y007927D01*
X008076Y007947D01*
X008061Y007964D01*
X008212Y007997D02*
X008210Y008025D01*
X008206Y008053D01*
X008198Y008081D01*
X008187Y008107D01*
X008173Y008132D01*
X008157Y008155D01*
X008138Y008176D01*
X008712Y008352D02*
X008710Y008412D01*
X008705Y008473D01*
X008696Y008532D01*
X008683Y008591D01*
X008667Y008650D01*
X008647Y008707D01*
X008624Y008762D01*
X008597Y008817D01*
X008568Y008869D01*
X008535Y008920D01*
X008499Y008969D01*
X008461Y009015D01*
X008419Y009059D01*
X007768Y008812D02*
X007739Y008810D01*
X007711Y008806D01*
X007683Y008798D01*
X007657Y008787D01*
X007632Y008773D01*
X007608Y008756D01*
X007587Y008737D01*
X007343Y008962D02*
X007314Y008960D01*
X007286Y008956D01*
X007258Y008948D01*
X007232Y008937D01*
X007207Y008923D01*
X007183Y008906D01*
X007162Y008887D01*
X007202Y009862D02*
X007262Y009860D01*
X007323Y009855D01*
X007382Y009846D01*
X007441Y009833D01*
X007500Y009817D01*
X007557Y009797D01*
X007612Y009774D01*
X007667Y009747D01*
X007719Y009718D01*
X007770Y009685D01*
X007819Y009649D01*
X007865Y009611D01*
X007909Y009569D01*
X007392Y009487D02*
X006993Y009487D01*
X007068Y010537D02*
X007128Y010535D01*
X007189Y010530D01*
X007248Y010521D01*
X007307Y010508D01*
X007366Y010492D01*
X007423Y010472D01*
X007478Y010449D01*
X007533Y010422D01*
X007585Y010393D01*
X007636Y010360D01*
X007685Y010324D01*
X007731Y010286D01*
X007775Y010244D01*
X007202Y009862D02*
X007068Y009862D01*
X007566Y010619D02*
X007522Y010661D01*
X007476Y010699D01*
X007427Y010735D01*
X007376Y010768D01*
X007324Y010797D01*
X007269Y010824D01*
X007214Y010847D01*
X007156Y010867D01*
X007098Y010883D01*
X007039Y010896D01*
X006980Y010905D01*
X006919Y010910D01*
X006859Y010912D01*
X006368Y010912D01*
X006339Y010910D01*
X006311Y010906D01*
X006283Y010898D01*
X006257Y010887D01*
X006232Y010873D01*
X006208Y010856D01*
X006187Y010837D01*
X005919Y011063D02*
X005893Y011056D01*
X005868Y011047D01*
X005844Y011035D01*
X005822Y011020D01*
X005802Y011003D01*
X005784Y010984D01*
X005768Y010963D01*
X005918Y011062D02*
X006882Y011062D01*
X006942Y011162D02*
X005877Y011162D01*
X005832Y012562D02*
X005785Y012561D01*
X005738Y012557D01*
X005692Y012551D01*
X005645Y012543D01*
X005645Y012544D02*
X004317Y012273D01*
X004207Y012263D02*
X003886Y012266D01*
X003976Y012412D02*
X004312Y012412D01*
X004317Y012274D02*
X004281Y012267D01*
X004244Y012264D01*
X004207Y012263D01*
X003885Y012265D02*
X003859Y012266D01*
X003832Y012263D01*
X003807Y012257D01*
X003782Y012247D01*
X003759Y012235D01*
X003737Y012219D01*
X003718Y012201D01*
X003780Y012508D02*
X003543Y012745D01*
X003852Y012799D02*
X004387Y012799D01*
X004437Y012987D02*
X004221Y012987D01*
X004383Y013317D02*
X004359Y013335D01*
X004334Y013350D01*
X004308Y013363D01*
X004280Y013373D01*
X004251Y013380D01*
X004222Y013383D01*
X004034Y013383D01*
X003998Y013081D02*
X004024Y013057D01*
X004053Y013036D01*
X004084Y013019D01*
X004117Y013006D01*
X004151Y012996D01*
X004186Y012990D01*
X004221Y012988D01*
X003998Y013080D02*
X003722Y013355D01*
X003952Y013948D02*
X003952Y013948D01*
X003952Y013948D01*
X004430Y013470D01*
X004568Y013412D02*
X004612Y013412D01*
X004568Y013413D02*
X004543Y013415D01*
X004518Y013420D01*
X004493Y013428D01*
X004470Y013439D01*
X004449Y013453D01*
X004430Y013470D01*
X004383Y013317D02*
X004512Y013237D01*
X004597Y013878D02*
X004576Y013896D01*
X004554Y013912D01*
X004530Y013926D01*
X004504Y013936D01*
X004478Y013944D01*
X004451Y013948D01*
X004423Y013950D01*
X004265Y013950D01*
X004597Y013878D02*
X004737Y013737D01*
X004812Y013912D02*
X004231Y014494D01*
X004231Y014520D01*
X004543Y014496D02*
X004671Y014496D01*
X004856Y014419D02*
X005012Y014262D01*
X005087Y014387D02*
X004739Y014736D01*
X004687Y014861D02*
X004687Y014884D01*
X004651Y014971D02*
X004556Y015067D01*
X004652Y014972D02*
X004664Y014957D01*
X004674Y014940D01*
X004682Y014922D01*
X004686Y014903D01*
X004688Y014884D01*
X004687Y014861D02*
X004689Y014838D01*
X004693Y014815D01*
X004700Y014793D01*
X004711Y014773D01*
X004724Y014753D01*
X004739Y014736D01*
X004984Y015016D02*
X005008Y015014D01*
X005031Y015010D01*
X005053Y015002D01*
X005074Y014992D01*
X005094Y014979D01*
X005112Y014963D01*
X005312Y014762D01*
X005412Y014887D02*
X005107Y015193D01*
X005062Y015300D02*
X005062Y015399D01*
X005028Y015481D02*
X004926Y015584D01*
X005029Y015482D02*
X005041Y015468D01*
X005050Y015452D01*
X005057Y015435D01*
X005062Y015417D01*
X005063Y015399D01*
X005062Y015300D02*
X005064Y015276D01*
X005069Y015253D01*
X005079Y015231D01*
X005091Y015211D01*
X005107Y015193D01*
X004984Y015016D02*
X004865Y015016D01*
X005349Y015508D02*
X005373Y015506D01*
X005397Y015501D01*
X005419Y015492D01*
X005441Y015480D01*
X005460Y015466D01*
X005477Y015448D01*
X005491Y015428D01*
X005490Y015428D02*
X005662Y015237D01*
X005787Y015362D02*
X005490Y015660D01*
X005437Y015787D02*
X005437Y015969D01*
X005438Y015969D02*
X005436Y015989D01*
X005430Y016007D01*
X005421Y016025D01*
X005409Y016040D01*
X005394Y016052D01*
X005376Y016061D01*
X005358Y016067D01*
X005338Y016069D01*
X005438Y015787D02*
X005440Y015764D01*
X005444Y015740D01*
X005452Y015718D01*
X005462Y015697D01*
X005475Y015677D01*
X005491Y015660D01*
X005891Y015833D02*
X005921Y015799D01*
X005948Y015763D01*
X005972Y015725D01*
X005992Y015685D01*
X006008Y015643D01*
X006021Y015600D01*
X006030Y015556D01*
X006036Y015512D01*
X006037Y015467D01*
X006037Y014837D01*
X006137Y014812D02*
X006137Y015613D01*
X004737Y013737D02*
X004812Y013677D01*
X004890Y013620D01*
X004970Y013566D01*
X005052Y013515D01*
X005135Y013468D01*
X005221Y013423D01*
X005308Y013382D01*
X005397Y013344D01*
X005487Y013310D01*
X005578Y013279D01*
X005670Y013252D01*
X005764Y013228D01*
X005858Y013208D01*
X005953Y013191D01*
X006049Y013179D01*
X006144Y013169D01*
X006241Y013164D01*
X006337Y013162D01*
X008338Y013162D01*
X008277Y013262D02*
X006437Y013262D01*
X006537Y013362D02*
X008222Y013362D01*
X008154Y013462D02*
X006637Y013462D01*
X006737Y013562D02*
X008102Y013562D01*
X007898Y013662D02*
X006837Y013662D01*
X006937Y013762D02*
X007926Y013762D01*
X007661Y013862D02*
X007037Y013862D01*
X006987Y014137D02*
X007287Y014487D01*
X006887Y014487D02*
X006787Y014387D01*
X006787Y014388D02*
X006743Y014380D01*
X006697Y014376D01*
X006652Y014376D01*
X006607Y014380D01*
X006562Y014388D01*
X006518Y014399D01*
X006475Y014414D01*
X006434Y014432D01*
X006394Y014453D01*
X006356Y014478D01*
X006320Y014506D01*
X006287Y014537D01*
X006256Y014570D01*
X006228Y014606D01*
X006203Y014644D01*
X006182Y014684D01*
X006163Y014726D01*
X006149Y014769D01*
X006138Y014813D01*
X005012Y014262D02*
X005053Y014192D01*
X005097Y014124D01*
X005143Y014059D01*
X005193Y013995D01*
X005246Y013934D01*
X005302Y013876D01*
X005360Y013820D01*
X005421Y013767D01*
X005484Y013716D01*
X005550Y013669D01*
X005617Y013625D01*
X005687Y013584D01*
X005758Y013546D01*
X005831Y013511D01*
X005906Y013480D01*
X005982Y013453D01*
X006059Y013429D01*
X006137Y013409D01*
X006216Y013392D01*
X006295Y013379D01*
X006376Y013369D01*
X006456Y013364D01*
X006537Y013362D01*
X006237Y013062D02*
X008413Y013062D01*
X008493Y012962D02*
X006137Y012962D01*
X006037Y012862D02*
X008579Y012862D01*
X008652Y012762D02*
X005937Y012762D01*
X005837Y012662D02*
X008728Y012662D01*
X008797Y012562D02*
X005832Y012562D01*
X005766Y011265D02*
X005712Y011267D01*
X005657Y011272D01*
X006293Y010537D02*
X007068Y010537D01*
X006942Y011162D02*
X007002Y011160D01*
X007063Y011155D01*
X007122Y011146D01*
X007181Y011133D01*
X007239Y011117D01*
X007297Y011097D01*
X007352Y011074D01*
X007407Y011047D01*
X007459Y011018D01*
X007510Y010985D01*
X007559Y010949D01*
X007605Y010911D01*
X007649Y010869D01*
X007589Y010769D02*
X007545Y010811D01*
X007499Y010849D01*
X007450Y010885D01*
X007399Y010918D01*
X007347Y010947D01*
X007292Y010974D01*
X007237Y010997D01*
X007179Y011017D01*
X007121Y011033D01*
X007062Y011046D01*
X007003Y011055D01*
X006942Y011060D01*
X006882Y011062D01*
X006293Y010537D02*
X006264Y010535D01*
X006236Y010531D01*
X006208Y010523D01*
X006182Y010512D01*
X006157Y010498D01*
X006133Y010481D01*
X006112Y010462D01*
X005877Y011162D02*
X005813Y011163D01*
X005749Y011160D01*
X005685Y011154D01*
X005622Y011144D01*
X005559Y011132D01*
X005497Y011115D01*
X005436Y011096D01*
X005376Y011073D01*
X005433Y011299D02*
X005375Y011302D01*
X005317Y011301D01*
X005258Y011296D01*
X005201Y011287D01*
X005144Y011274D01*
X005088Y011257D01*
X005033Y011237D01*
X004980Y011213D01*
X004929Y011185D01*
X004879Y011154D01*
X003975Y012413D02*
X003944Y012416D01*
X003913Y012424D01*
X003883Y012434D01*
X003854Y012448D01*
X003827Y012465D01*
X003802Y012485D01*
X003780Y012508D01*
X004672Y014496D02*
X004701Y014495D01*
X004730Y014491D01*
X004758Y014483D01*
X004786Y014472D01*
X004811Y014457D01*
X004835Y014440D01*
X004856Y014419D01*
X005229Y015508D02*
X005349Y015508D01*
X005634Y015967D02*
X005658Y015968D01*
X005681Y015966D01*
X005704Y015962D01*
X005726Y015954D01*
X005748Y015943D01*
X005767Y015930D01*
X005785Y015914D01*
X005785Y015915D02*
X005892Y015833D01*
X005969Y015906D02*
X006049Y015826D01*
X006394Y016073D02*
X006381Y016109D01*
X006366Y016144D01*
X006347Y016178D01*
X006326Y016210D01*
X006302Y016240D01*
X006276Y016268D01*
X006247Y016294D01*
X006217Y016317D01*
X006184Y016338D01*
X006150Y016356D01*
X006075Y016391D01*
X005862Y016346D02*
X005862Y016163D01*
X005862Y016346D02*
X005861Y016372D01*
X005856Y016398D01*
X005849Y016423D01*
X005839Y016448D01*
X005826Y016470D01*
X005811Y016492D01*
X005793Y016511D01*
X005794Y016512D02*
X005789Y016517D01*
X005862Y016163D02*
X005864Y016127D01*
X005869Y016092D01*
X005878Y016057D01*
X005890Y016024D01*
X005905Y015991D01*
X005923Y015961D01*
X005945Y015932D01*
X005969Y015906D01*
X006049Y015826D02*
X006071Y015801D01*
X006091Y015773D01*
X006107Y015744D01*
X006120Y015712D01*
X006129Y015680D01*
X006135Y015647D01*
X006137Y015613D01*
X004812Y013913D02*
X004882Y013849D01*
X004954Y013788D01*
X005028Y013730D01*
X005105Y013676D01*
X005184Y013624D01*
X005265Y013575D01*
X005348Y013530D01*
X005432Y013488D01*
X005518Y013449D01*
X005606Y013414D01*
X005695Y013383D01*
X005785Y013355D01*
X005876Y013331D01*
X005968Y013310D01*
X006061Y013293D01*
X006155Y013280D01*
X006248Y013271D01*
X006343Y013265D01*
X006437Y013263D01*
X007661Y013862D02*
X007698Y013864D01*
X007735Y013868D01*
X007772Y013877D01*
X007807Y013888D01*
X007841Y013902D01*
X007874Y013919D01*
X007906Y013939D01*
X007935Y013962D01*
X007963Y013987D01*
X007926Y013763D02*
X007968Y013762D01*
X008010Y013765D01*
X008052Y013772D01*
X008093Y013781D01*
X008133Y013794D01*
X008172Y013810D01*
X008210Y013829D01*
X008246Y013851D01*
X008280Y013875D01*
X008312Y013903D01*
X008312Y013902D02*
X008312Y014087D01*
X008338Y013162D02*
X008398Y013164D01*
X008459Y013169D01*
X008518Y013178D01*
X008577Y013191D01*
X008636Y013207D01*
X008693Y013227D01*
X008748Y013250D01*
X008803Y013277D01*
X008855Y013306D01*
X008906Y013339D01*
X008955Y013375D01*
X009001Y013413D01*
X009045Y013455D01*
X009645Y014055D01*
X009591Y014162D02*
X008984Y013555D01*
X008929Y013655D02*
X009120Y013846D01*
X009170Y014065D02*
X008861Y013755D01*
X008809Y013855D02*
X008866Y013912D01*
X008887Y013965D02*
X008881Y014315D01*
X008861Y014384D02*
X008812Y014462D01*
X008861Y014384D02*
X008869Y014368D01*
X008876Y014351D01*
X008879Y014333D01*
X008881Y014315D01*
X009241Y014273D02*
X009242Y014241D01*
X009238Y014209D01*
X009231Y014177D01*
X009221Y014147D01*
X009207Y014117D01*
X009190Y014090D01*
X009170Y014064D01*
X009242Y014273D02*
X009187Y014362D01*
X009591Y014162D02*
X009624Y014200D01*
X009654Y014241D01*
X009681Y014283D01*
X009705Y014328D01*
X009725Y014375D01*
X009741Y014423D01*
X009753Y014472D01*
X009762Y014522D01*
X009766Y014572D01*
X009767Y014623D01*
X009712Y014712D01*
X009937Y014762D02*
X009921Y015001D01*
X010694Y014391D02*
X010736Y014435D01*
X010774Y014481D01*
X010810Y014530D01*
X010843Y014581D01*
X010872Y014633D01*
X010899Y014688D01*
X010922Y014743D01*
X010942Y014801D01*
X010958Y014859D01*
X010971Y014918D01*
X010980Y014977D01*
X010985Y015038D01*
X010987Y015098D01*
X010982Y015636D01*
X010919Y015852D02*
X010912Y015862D01*
X011187Y015898D02*
X011185Y015944D01*
X011180Y015990D01*
X011171Y016036D01*
X011159Y016080D01*
X011144Y016124D01*
X011125Y016166D01*
X011103Y016207D01*
X011078Y016246D01*
X011078Y016247D02*
X011041Y016273D01*
X010986Y016329D02*
X010699Y016755D01*
X010965Y016926D02*
X011232Y016529D01*
X011284Y016422D01*
X011041Y016273D02*
X011020Y016289D01*
X011002Y016308D01*
X010986Y016329D01*
X011283Y016422D02*
X011296Y016386D01*
X011306Y016349D01*
X011313Y016311D01*
X011316Y016273D01*
X011315Y016235D01*
X011312Y016197D01*
X011312Y016079D01*
X012812Y016213D02*
X012808Y016282D01*
X012800Y016351D01*
X012788Y016420D01*
X012774Y016488D01*
X012757Y016556D01*
X012736Y016622D01*
X012712Y016688D01*
X013012Y016412D02*
X013012Y013380D01*
X012912Y013306D02*
X012912Y016362D01*
X012812Y016212D02*
X012812Y013232D01*
X012712Y013166D02*
X012712Y016037D01*
X012612Y015687D02*
X012612Y013093D01*
X012512Y013033D02*
X012512Y015462D01*
X012412Y015262D02*
X012412Y012966D01*
X012805Y012326D02*
X014176Y010955D01*
X014236Y011055D02*
X012905Y012386D01*
X013005Y012459D02*
X014259Y011205D01*
X014111Y010852D02*
X012705Y012258D01*
X013105Y012525D02*
X014050Y011580D01*
X014074Y011730D02*
X013205Y012599D01*
X013305Y012673D02*
X013873Y012105D01*
X013915Y012255D02*
X013405Y012765D01*
X013505Y012851D02*
X013726Y012630D01*
X013763Y012780D02*
X013605Y012938D01*
X012805Y012326D02*
X012763Y012370D01*
X012725Y012416D01*
X012689Y012465D01*
X012656Y012516D01*
X012627Y012568D01*
X012600Y012623D01*
X012577Y012678D01*
X012557Y012735D01*
X012541Y012794D01*
X012528Y012853D01*
X012519Y012912D01*
X012514Y012973D01*
X012512Y013033D01*
X013112Y013472D02*
X013112Y016137D01*
X013212Y016062D02*
X013212Y013558D01*
X013312Y013645D02*
X013312Y015987D01*
X011316Y015945D02*
X011313Y016012D01*
X011312Y016079D01*
X011316Y015946D02*
X011362Y015128D01*
X011212Y015147D02*
X011188Y015898D01*
X012412Y016337D02*
X012446Y016284D01*
X012477Y016229D01*
X012505Y016173D01*
X012530Y016116D01*
X012552Y016057D01*
X012570Y015997D01*
X012585Y015936D01*
X012597Y015874D01*
X012605Y015812D01*
X012610Y015750D01*
X012612Y015687D01*
X012713Y016037D02*
X012703Y016085D01*
X012691Y016132D01*
X012675Y016179D01*
X012657Y016225D01*
X012636Y016269D01*
X012613Y016312D01*
X012912Y016362D02*
X012910Y016420D01*
X012906Y016479D01*
X012898Y016537D01*
X012887Y016594D01*
X012873Y016651D01*
X012857Y016707D01*
X012837Y016762D01*
X012136Y016962D02*
X012118Y017018D01*
X012104Y017074D01*
X012092Y017131D01*
X012084Y017189D01*
X012079Y017247D01*
X012078Y017305D01*
X012080Y017363D01*
X012085Y017422D01*
X012094Y017479D01*
X012106Y017536D01*
X012121Y017592D01*
X012122Y017592D02*
X012157Y017763D01*
X012267Y017597D02*
X012262Y017572D01*
X013437Y016613D02*
X013489Y016665D01*
X013539Y016719D01*
X013586Y016775D01*
X013631Y016834D01*
X013672Y016895D01*
X013711Y016958D01*
X013747Y017022D01*
X013779Y017088D01*
X013809Y017156D01*
X013835Y017225D01*
X013858Y017295D01*
X013878Y017366D01*
X013894Y017437D01*
X013908Y017890D01*
X011803Y017647D02*
X011812Y017563D01*
X011824Y017479D01*
X011839Y017395D01*
X011858Y017312D01*
X011880Y017230D01*
X011905Y017149D01*
X011934Y017069D01*
X011965Y016991D01*
X012000Y016913D01*
X012038Y016837D01*
X011802Y017647D02*
X011799Y017739D01*
X012726Y017607D02*
X012740Y017657D01*
X012750Y017709D01*
X012758Y017761D01*
X012762Y017814D01*
X012764Y017866D01*
X012762Y017919D01*
X012758Y017971D01*
X012750Y018024D01*
X012702Y018292D01*
X014937Y016563D02*
X014874Y016481D01*
X014808Y016402D01*
X014739Y016326D01*
X014667Y016251D01*
X014593Y016180D01*
X014517Y016111D01*
X014438Y016044D01*
X014357Y015981D01*
X014273Y015920D01*
X014188Y015862D01*
X013312Y015988D02*
X013320Y016045D01*
X013332Y016102D01*
X013347Y016158D01*
X013365Y016213D01*
X013386Y016267D01*
X013410Y016319D01*
X013438Y016370D01*
X013468Y016420D01*
X013501Y016467D01*
X013537Y016513D01*
X013887Y016462D02*
X014212Y016837D01*
X014341Y016999D01*
X014117Y017358D02*
X014090Y017345D01*
X014064Y017331D01*
X014039Y017313D01*
X014017Y017293D01*
X013997Y017271D01*
X013979Y017247D01*
X013963Y017221D01*
X013950Y017194D01*
X014342Y016999D02*
X014364Y017029D01*
X014383Y017060D01*
X014398Y017094D01*
X014411Y017128D01*
X014421Y017164D01*
X014428Y017200D01*
X014427Y017200D02*
X014481Y017615D01*
X014235Y017422D02*
X014117Y017358D01*
X014990Y017026D02*
X014980Y016974D01*
X014968Y016922D01*
X014951Y016870D01*
X014932Y016820D01*
X014909Y016772D01*
X014884Y016725D01*
X014855Y016679D01*
X014692Y016537D01*
X014037Y015987D01*
X013213Y016062D02*
X013216Y016117D01*
X013222Y016172D01*
X013232Y016227D01*
X013246Y016280D01*
X013263Y016333D01*
X013284Y016384D01*
X013308Y016434D01*
X013336Y016481D01*
X013367Y016527D01*
X013401Y016571D01*
X013438Y016612D01*
X012837Y016763D02*
X012817Y016821D01*
X012800Y016881D01*
X012786Y016942D01*
X012776Y017003D01*
X012770Y017065D01*
X012768Y017127D01*
X012769Y017189D01*
X012775Y017251D01*
X012783Y017312D01*
X012796Y017373D01*
X012812Y017433D01*
X012812Y017432D02*
X012847Y017546D01*
X012726Y017607D02*
X012682Y017462D01*
X011799Y017739D02*
X011800Y017794D01*
X011804Y017848D01*
X011812Y017901D01*
X011824Y017954D01*
X011840Y018006D01*
X011859Y018057D01*
X011883Y018106D01*
X011909Y018153D01*
X012155Y018061D02*
X012079Y018416D01*
X011447Y018487D02*
X011597Y017667D01*
X012157Y017763D02*
X012166Y017813D01*
X012171Y017862D01*
X012172Y017913D01*
X012170Y017963D01*
X012164Y018012D01*
X012156Y018062D01*
X013328Y017948D02*
X013338Y017894D01*
X013345Y017840D01*
X013349Y017785D01*
X013350Y017731D01*
X013347Y017676D01*
X013341Y017622D01*
X013332Y017568D01*
X013319Y017515D01*
X013303Y017463D01*
X013284Y017411D01*
X013262Y017361D01*
X013237Y017313D01*
X012288Y017012D02*
X012270Y017066D01*
X012256Y017121D01*
X012245Y017177D01*
X012237Y017234D01*
X012233Y017290D01*
X012232Y017347D01*
X012235Y017404D01*
X012241Y017461D01*
X012250Y017517D01*
X012263Y017572D01*
X012266Y017597D02*
X012277Y017648D01*
X012291Y017698D01*
X012308Y017747D01*
X012328Y017795D01*
X012352Y017841D01*
X012378Y017886D01*
X012408Y017929D01*
X012440Y017970D01*
X012474Y018008D01*
X012512Y018045D01*
X013314Y018116D02*
X013328Y017947D01*
X013628Y017640D02*
X013679Y017677D01*
X013103Y017885D02*
X013063Y017857D01*
X013026Y017827D01*
X012991Y017793D01*
X012959Y017757D01*
X012930Y017719D01*
X012904Y017678D01*
X012882Y017635D01*
X012862Y017591D01*
X012846Y017546D01*
X013342Y017252D02*
X013408Y017382D01*
X012682Y017463D02*
X012665Y017399D01*
X012652Y017335D01*
X012642Y017270D01*
X012635Y017204D01*
X012632Y017139D01*
X012633Y017073D01*
X012637Y017007D01*
X012645Y016942D01*
X012657Y016877D01*
X012672Y016813D01*
X012690Y016750D01*
X012712Y016688D01*
X014314Y016617D02*
X014346Y016646D01*
X014376Y016678D01*
X014403Y016712D01*
X014428Y016748D01*
X014450Y016785D01*
X014469Y016824D01*
X014485Y016865D01*
X014679Y017079D02*
X014768Y017121D01*
X014990Y017026D02*
X015030Y017293D01*
X015481Y016645D02*
X015474Y016618D01*
X015465Y016592D01*
X015426Y016489D01*
X015481Y016644D02*
X015549Y016926D01*
X016036Y016517D02*
X015920Y016162D01*
X015828Y015967D02*
X015519Y015614D01*
X015487Y015572D02*
X015264Y015235D01*
X014012Y016362D02*
X013958Y016307D01*
X013906Y016250D01*
X013857Y016190D01*
X013811Y016128D01*
X013768Y016064D01*
X013728Y015998D01*
X013691Y015930D01*
X013658Y015861D01*
X013628Y015790D01*
X013601Y015718D01*
X013577Y015644D01*
X013557Y015569D01*
X013541Y015494D01*
X013528Y015418D01*
X013519Y015341D01*
X013514Y015264D01*
X013512Y015187D01*
X013512Y013822D01*
X013612Y013828D02*
X013612Y015087D01*
X013712Y014987D02*
X013712Y013985D01*
X013764Y013861D02*
X013962Y013662D01*
X013962Y013662D01*
X013934Y013400D02*
X013950Y013387D01*
X013968Y013376D01*
X013987Y013368D01*
X014007Y013364D01*
X014027Y013362D01*
X014206Y013362D01*
X014206Y013363D02*
X014223Y013365D01*
X014238Y013369D01*
X014253Y013376D01*
X014267Y013386D01*
X014278Y013399D01*
X014286Y013413D01*
X013505Y012851D02*
X013463Y012895D01*
X013425Y012941D01*
X013389Y012990D01*
X013356Y013041D01*
X013327Y013093D01*
X013300Y013148D01*
X013277Y013203D01*
X013257Y013260D01*
X013241Y013319D01*
X013228Y013378D01*
X013219Y013437D01*
X013214Y013498D01*
X013212Y013558D01*
X013412Y013738D02*
X013412Y015562D01*
X014012Y016362D02*
X014313Y016617D01*
X013238Y017312D02*
X013200Y017243D01*
X013166Y017173D01*
X013136Y017101D01*
X013108Y017027D01*
X013084Y016953D01*
X013063Y016877D01*
X013046Y016801D01*
X013032Y016724D01*
X013022Y016646D01*
X013015Y016568D01*
X013012Y016490D01*
X013013Y016412D01*
X013408Y017382D02*
X013432Y017425D01*
X013458Y017466D01*
X013488Y017505D01*
X013519Y017542D01*
X013553Y017577D01*
X013590Y017610D01*
X013628Y017640D01*
X014485Y016864D02*
X014499Y016899D01*
X014516Y016932D01*
X014537Y016962D01*
X014561Y016991D01*
X014587Y017017D01*
X014616Y017041D01*
X014646Y017062D01*
X014679Y017079D01*
X015426Y016489D02*
X015412Y016457D01*
X015396Y016425D01*
X015377Y016395D01*
X015355Y016367D01*
X015332Y016340D01*
X015306Y016315D01*
X015162Y016187D01*
X014428Y015553D01*
X014499Y015424D02*
X015270Y016056D01*
X015329Y016115D02*
X015400Y016198D01*
X014936Y016562D02*
X014965Y016598D01*
X014996Y016631D01*
X015029Y016662D01*
X015066Y016689D01*
X015104Y016713D01*
X015144Y016734D01*
X015186Y016752D01*
X015230Y016766D01*
X015274Y016776D01*
X015329Y016115D02*
X015301Y016084D01*
X015270Y016056D01*
X015829Y015967D02*
X015850Y015996D01*
X015869Y016027D01*
X015886Y016059D01*
X015900Y016093D01*
X015912Y016127D01*
X015921Y016162D01*
X016073Y015923D02*
X016191Y015967D01*
X016487Y016069D02*
X016195Y015498D01*
X015938Y015023D01*
X015811Y014870D02*
X015655Y014745D01*
X015988Y009162D02*
X016129Y009166D01*
X016269Y009174D01*
X016410Y009186D01*
X016550Y009202D01*
X016690Y009221D01*
X016829Y009244D01*
X016967Y009270D01*
X017105Y009300D01*
X017242Y009334D01*
X017378Y009371D01*
X017513Y009412D01*
X017512Y009412D02*
X017849Y009412D01*
X017939Y009559D02*
X017618Y009562D01*
X017508Y009551D02*
X016180Y009281D01*
X016168Y010553D02*
X016113Y010558D01*
X016059Y010560D01*
X014818Y010560D01*
X014883Y010662D02*
X015947Y010662D01*
X015906Y010762D02*
X014943Y010762D01*
X014966Y010912D02*
X015456Y010912D01*
X015485Y010914D01*
X015513Y010918D01*
X015541Y010926D01*
X015567Y010937D01*
X015592Y010951D01*
X015616Y010968D01*
X015637Y010987D01*
X015906Y010762D02*
X015933Y010768D01*
X015960Y010777D01*
X015985Y010789D01*
X016008Y010804D01*
X016030Y010821D01*
X016050Y010841D01*
X016067Y010862D01*
X016168Y010552D02*
X016316Y010532D01*
X016392Y010526D01*
X016448Y010751D02*
X016755Y010958D01*
X016777Y010953D01*
X016946Y010671D02*
X016994Y010704D01*
X017046Y011521D02*
X017328Y011712D01*
X017178Y011973D02*
X016878Y011770D01*
X016696Y012039D02*
X017010Y012251D01*
X017178Y011973D02*
X017210Y011996D01*
X017239Y012022D01*
X017265Y012051D01*
X017289Y012082D01*
X017310Y012115D01*
X017327Y012150D01*
X017341Y012187D01*
X017352Y012225D01*
X017359Y012263D01*
X017426Y012749D01*
X017553Y012662D02*
X017515Y012038D01*
X017677Y012173D02*
X017670Y011835D01*
X017710Y011698D02*
X017766Y011615D01*
X017711Y011697D02*
X017696Y011723D01*
X017684Y011749D01*
X017676Y011777D01*
X017671Y011806D01*
X017670Y011835D01*
X018060Y011855D02*
X018106Y012202D01*
X017764Y012346D02*
X017743Y012327D01*
X017724Y012306D01*
X017708Y012282D01*
X017695Y012257D01*
X017685Y012230D01*
X017679Y012202D01*
X017677Y012174D01*
X017764Y012346D02*
X018282Y012745D01*
X017973Y012799D02*
X017838Y012848D01*
X017687Y012834D02*
X017643Y012808D01*
X017564Y012948D02*
X017537Y012931D01*
X017513Y012912D01*
X017491Y012889D01*
X017472Y012865D01*
X017455Y012838D01*
X017442Y012809D01*
X017433Y012779D01*
X017426Y012749D01*
X017564Y012948D02*
X017708Y013027D01*
X017763Y013065D02*
X018102Y013355D01*
X017791Y013383D02*
X017610Y013398D01*
X017764Y013065D02*
X017737Y013045D01*
X017708Y013027D01*
X017609Y013398D02*
X017588Y013399D01*
X017568Y013396D01*
X017547Y013391D01*
X017528Y013384D01*
X017509Y013374D01*
X017510Y013374D02*
X017361Y013278D01*
X017225Y013397D02*
X017209Y013384D01*
X017194Y013369D01*
X017182Y013353D01*
X017173Y013334D01*
X017166Y013315D01*
X017006Y012721D01*
X017168Y012492D02*
X017160Y012456D01*
X017148Y012421D01*
X017132Y012388D01*
X017113Y012356D01*
X017091Y012326D01*
X017067Y012298D01*
X017039Y012273D01*
X017010Y012251D01*
X017514Y012038D02*
X017510Y011999D01*
X017502Y011961D01*
X017491Y011924D01*
X017477Y011888D01*
X017459Y011853D01*
X017438Y011820D01*
X017414Y011789D01*
X017388Y011761D01*
X017359Y011735D01*
X017328Y011712D01*
X018069Y011699D02*
X018120Y011492D01*
X018069Y011699D02*
X018062Y011737D01*
X018058Y011777D01*
X018057Y011816D01*
X018061Y011855D01*
X017553Y012662D02*
X017557Y012688D01*
X017564Y012712D01*
X017574Y012735D01*
X017587Y012757D01*
X017603Y012777D01*
X017622Y012794D01*
X017643Y012808D01*
X017687Y012834D02*
X017710Y012846D01*
X017735Y012854D01*
X017761Y012858D01*
X017787Y012859D01*
X017813Y012855D01*
X017838Y012848D01*
X017300Y013188D02*
X017306Y013209D01*
X017316Y013229D01*
X017328Y013248D01*
X017343Y013264D01*
X017361Y013277D01*
X016993Y013452D02*
X017005Y013487D01*
X017020Y013521D01*
X017128Y013736D01*
X017151Y013770D02*
X017276Y013915D01*
X017413Y013968D02*
X017560Y013950D01*
X017413Y013968D02*
X017391Y013969D01*
X017369Y013967D01*
X017348Y013962D01*
X017328Y013954D01*
X017309Y013944D01*
X017291Y013930D01*
X017276Y013915D01*
X017177Y014033D02*
X016887Y013666D01*
X016862Y013622D02*
X016725Y013267D01*
X016565Y013066D02*
X016179Y012806D01*
X016347Y012557D02*
X016712Y012804D01*
X017006Y012721D02*
X016994Y012685D01*
X016979Y012650D01*
X016960Y012617D01*
X016938Y012586D01*
X016913Y012557D01*
X016885Y012531D01*
X016854Y012508D01*
X016528Y012288D01*
X016448Y010751D02*
X016388Y010728D01*
X016327Y010709D01*
X016265Y010692D01*
X016202Y010680D01*
X016139Y010670D01*
X016075Y010664D01*
X016011Y010661D01*
X015947Y010662D01*
X015993Y009262D02*
X016040Y009263D01*
X016087Y009267D01*
X016133Y009273D01*
X016180Y009281D01*
X017212Y008412D02*
X017257Y008412D01*
X017395Y008355D02*
X017873Y007877D01*
X017873Y007876D01*
X017873Y007877D02*
X017873Y007877D01*
X017560Y007875D02*
X017402Y007875D01*
X017228Y007947D02*
X017087Y008087D01*
X017012Y007912D02*
X017594Y007331D01*
X017594Y007305D01*
X017282Y007329D02*
X017154Y007329D01*
X016969Y007406D02*
X016812Y007562D01*
X016737Y007437D02*
X017086Y007089D01*
X017137Y006964D02*
X017137Y006941D01*
X017174Y006854D02*
X017269Y006758D01*
X017173Y006853D02*
X017161Y006868D01*
X017151Y006885D01*
X017143Y006903D01*
X017139Y006922D01*
X017137Y006941D01*
X017138Y006964D02*
X017136Y006987D01*
X017132Y007010D01*
X017125Y007032D01*
X017114Y007052D01*
X017101Y007072D01*
X017086Y007089D01*
X016841Y006809D02*
X016817Y006811D01*
X016794Y006815D01*
X016772Y006823D01*
X016751Y006833D01*
X016731Y006846D01*
X016713Y006862D01*
X016512Y007062D01*
X016412Y006937D02*
X016718Y006632D01*
X016762Y006524D02*
X016762Y006426D01*
X016797Y006343D02*
X016899Y006241D01*
X016796Y006343D02*
X016784Y006357D01*
X016775Y006373D01*
X016768Y006390D01*
X016763Y006408D01*
X016762Y006426D01*
X016762Y006524D02*
X016760Y006548D01*
X016755Y006571D01*
X016745Y006593D01*
X016733Y006613D01*
X016717Y006631D01*
X016841Y006809D02*
X016960Y006809D01*
X016476Y006317D02*
X016452Y006319D01*
X016428Y006324D01*
X016406Y006333D01*
X016384Y006345D01*
X016365Y006359D01*
X016348Y006377D01*
X016334Y006397D01*
X016334Y006396D02*
X016162Y006587D01*
X016037Y006462D02*
X016335Y006165D01*
X016387Y006038D02*
X016387Y005856D01*
X016389Y005839D01*
X016393Y005822D01*
X016400Y005806D01*
X016410Y005792D01*
X016423Y005779D01*
X016437Y005769D01*
X016453Y005762D01*
X016470Y005758D01*
X016487Y005756D01*
X016387Y006038D02*
X016385Y006061D01*
X016381Y006085D01*
X016373Y006107D01*
X016363Y006128D01*
X016350Y006148D01*
X016334Y006165D01*
X015934Y005992D02*
X015904Y006026D01*
X015877Y006062D01*
X015853Y006100D01*
X015833Y006140D01*
X015817Y006182D01*
X015804Y006225D01*
X015795Y006269D01*
X015789Y006313D01*
X015788Y006358D01*
X015787Y006358D02*
X015787Y006987D01*
X015687Y007012D02*
X015687Y006212D01*
X017087Y008088D02*
X017012Y008148D01*
X016934Y008205D01*
X016854Y008259D01*
X016772Y008310D01*
X016689Y008357D01*
X016603Y008402D01*
X016516Y008443D01*
X016427Y008481D01*
X016337Y008515D01*
X016246Y008546D01*
X016154Y008573D01*
X016060Y008597D01*
X015966Y008617D01*
X015871Y008634D01*
X015775Y008646D01*
X015680Y008656D01*
X015583Y008661D01*
X015487Y008663D01*
X014837Y007687D02*
X014537Y007337D01*
X014937Y007337D02*
X015037Y007437D01*
X015038Y007437D02*
X015082Y007445D01*
X015128Y007449D01*
X015173Y007449D01*
X015218Y007445D01*
X015263Y007437D01*
X015307Y007426D01*
X015350Y007411D01*
X015391Y007393D01*
X015431Y007372D01*
X015469Y007347D01*
X015505Y007319D01*
X015538Y007288D01*
X015569Y007255D01*
X015597Y007219D01*
X015622Y007181D01*
X015643Y007141D01*
X015662Y007099D01*
X015676Y007056D01*
X015687Y007012D01*
X016812Y007562D02*
X016771Y007632D01*
X016727Y007700D01*
X016681Y007765D01*
X016631Y007829D01*
X016578Y007890D01*
X016522Y007948D01*
X016464Y008004D01*
X016403Y008057D01*
X016340Y008108D01*
X016274Y008155D01*
X016207Y008199D01*
X016137Y008240D01*
X016066Y008278D01*
X015993Y008313D01*
X015918Y008344D01*
X015842Y008371D01*
X015765Y008395D01*
X015687Y008415D01*
X015608Y008432D01*
X015529Y008445D01*
X015448Y008455D01*
X015368Y008460D01*
X015287Y008462D01*
X014837Y007687D02*
X014894Y007693D01*
X014951Y007696D01*
X015007Y007695D01*
X015064Y007690D01*
X015120Y007681D01*
X015176Y007668D01*
X015230Y007652D01*
X015284Y007631D01*
X015335Y007608D01*
X015385Y007580D01*
X015434Y007550D01*
X015479Y007516D01*
X015523Y007479D01*
X015564Y007440D01*
X015602Y007397D01*
X015637Y007352D01*
X015669Y007305D01*
X015697Y007256D01*
X015722Y007205D01*
X015744Y007152D01*
X015762Y007098D01*
X015776Y007043D01*
X015787Y006987D01*
X016737Y007437D02*
X016696Y007509D01*
X016652Y007578D01*
X016605Y007646D01*
X016554Y007711D01*
X016501Y007774D01*
X016445Y007834D01*
X016386Y007891D01*
X016324Y007946D01*
X016260Y007998D01*
X016193Y008046D01*
X016125Y008092D01*
X016054Y008134D01*
X015981Y008173D01*
X015907Y008208D01*
X015831Y008240D01*
X015753Y008268D01*
X015675Y008293D01*
X015595Y008314D01*
X015515Y008331D01*
X015433Y008345D01*
X015352Y008354D01*
X015269Y008360D01*
X015187Y008362D01*
X013927Y008162D02*
X013867Y008160D01*
X013806Y008155D01*
X013747Y008146D01*
X013688Y008133D01*
X013629Y008117D01*
X013572Y008097D01*
X013517Y008074D01*
X013462Y008047D01*
X013410Y008018D01*
X013359Y007985D01*
X013310Y007949D01*
X013264Y007911D01*
X013220Y007869D01*
X012896Y008169D02*
X012940Y008211D01*
X012986Y008249D01*
X013035Y008285D01*
X013086Y008318D01*
X013138Y008347D01*
X013193Y008374D01*
X013248Y008397D01*
X013306Y008417D01*
X013364Y008433D01*
X013423Y008446D01*
X013482Y008455D01*
X013543Y008460D01*
X013603Y008462D01*
X013671Y008362D02*
X013611Y008360D01*
X013550Y008355D01*
X013491Y008346D01*
X013432Y008333D01*
X013374Y008317D01*
X013316Y008297D01*
X013261Y008274D01*
X013206Y008247D01*
X013154Y008218D01*
X013103Y008185D01*
X013054Y008149D01*
X013008Y008111D01*
X012964Y008069D01*
X012705Y007979D02*
X012663Y007935D01*
X012625Y007889D01*
X012589Y007840D01*
X012556Y007789D01*
X012527Y007737D01*
X012500Y007682D01*
X012477Y007627D01*
X012457Y007570D01*
X012441Y007511D01*
X012428Y007452D01*
X012419Y007393D01*
X012414Y007332D01*
X012412Y007272D01*
X012180Y007770D02*
X012138Y007726D01*
X012100Y007680D01*
X012064Y007631D01*
X012031Y007580D01*
X012002Y007528D01*
X011975Y007473D01*
X011952Y007418D01*
X011932Y007361D01*
X011916Y007302D01*
X011903Y007243D01*
X011894Y007184D01*
X011889Y007123D01*
X011887Y007063D01*
X009312Y006363D02*
X009329Y006251D01*
X009349Y006141D01*
X009373Y006030D01*
X009399Y005921D01*
X009430Y005813D01*
X009463Y005705D01*
X009500Y005599D01*
X009540Y005493D01*
X009583Y005389D01*
X009629Y005287D01*
X009679Y005186D01*
X009732Y005086D01*
X009787Y004988D01*
X011402Y004660D02*
X012059Y004168D01*
X012262Y004512D02*
X012662Y004268D01*
X012807Y004273D02*
X013103Y003940D01*
X013379Y004146D02*
X013380Y004180D01*
X013377Y004214D01*
X013370Y004247D01*
X013360Y004279D01*
X013346Y004310D01*
X013330Y004339D01*
X013310Y004367D01*
X013287Y004392D01*
X012787Y004862D01*
X012616Y004593D02*
X012677Y004474D01*
X012706Y004419D01*
X013680Y004818D02*
X013718Y004774D01*
X013754Y004728D01*
X013787Y004679D01*
X013816Y004628D01*
X013842Y004576D01*
X013865Y004521D01*
X013884Y004466D01*
X013900Y004409D01*
X013912Y004352D01*
X013920Y004294D01*
X013925Y004235D01*
X013926Y004177D01*
X013923Y004118D01*
X013908Y003935D01*
X013679Y004148D02*
X013581Y004237D01*
X014461Y004493D02*
X014455Y004550D01*
X014446Y004607D01*
X014433Y004663D01*
X014417Y004718D01*
X014399Y004772D01*
X014376Y004825D01*
X014351Y004877D01*
X014323Y004927D01*
X014292Y004975D01*
X014258Y005021D01*
X014259Y005021D02*
X013837Y005562D01*
X013662Y005337D02*
X013887Y004792D01*
X013426Y004440D02*
X013451Y004395D01*
X013479Y004352D01*
X013511Y004312D01*
X013545Y004273D01*
X013581Y004237D01*
X013379Y004146D02*
X013314Y003708D01*
X012784Y003995D02*
X012702Y003533D01*
X012512Y003781D02*
X011689Y004833D01*
X011562Y003937D02*
X011909Y003672D01*
X012194Y003804D02*
X012199Y003841D01*
X012201Y003878D01*
X012199Y003915D01*
X012193Y003952D01*
X012184Y003988D01*
X012171Y004022D01*
X012155Y004056D01*
X012135Y004087D01*
X012112Y004117D01*
X012087Y004144D01*
X012059Y004168D01*
X012194Y003804D02*
X012079Y003409D01*
X012783Y003995D02*
X012786Y004026D01*
X012785Y004058D01*
X012780Y004089D01*
X012773Y004120D01*
X012761Y004149D01*
X012747Y004177D01*
X012730Y004203D01*
X012709Y004227D01*
X012687Y004249D01*
X012662Y004268D01*
X013425Y004440D02*
X013137Y004987D01*
X013312Y005212D02*
X013680Y004819D01*
X012807Y004273D02*
X012779Y004307D01*
X012753Y004343D01*
X012728Y004381D01*
X012706Y004419D01*
X014720Y005422D02*
X014761Y005363D01*
X014800Y005301D01*
X014835Y005238D01*
X014868Y005173D01*
X014897Y005106D01*
X014923Y005039D01*
X014946Y004970D01*
X014966Y004900D01*
X014982Y004829D01*
X014995Y004758D01*
X015030Y004532D01*
X014768Y004704D02*
X014700Y004743D01*
X014461Y004493D02*
X014481Y004210D01*
X014235Y004403D02*
X014146Y004466D01*
X014448Y005033D02*
X014187Y005687D01*
X014362Y005912D02*
X014720Y005422D01*
X014947Y005384D02*
X014712Y006037D01*
X014887Y006262D02*
X015335Y005606D01*
X014947Y005384D02*
X014964Y005342D01*
X014985Y005301D01*
X015009Y005261D01*
X015036Y005224D01*
X015067Y005190D01*
X015100Y005158D01*
X015136Y005128D01*
X015174Y005102D01*
X015214Y005079D01*
X015274Y005048D01*
X015471Y005284D02*
X015549Y004899D01*
X015587Y008762D02*
X015707Y008760D01*
X015826Y008755D01*
X015945Y008746D01*
X016064Y008733D01*
X016183Y008717D01*
X016301Y008697D01*
X016418Y008674D01*
X016535Y008647D01*
X016650Y008616D01*
X016765Y008582D01*
X016879Y008545D01*
X016991Y008504D01*
X017102Y008460D01*
X017212Y008412D01*
X017257Y008412D02*
X017282Y008410D01*
X017307Y008405D01*
X017332Y008397D01*
X017355Y008386D01*
X017376Y008372D01*
X017395Y008355D01*
X017442Y008508D02*
X017312Y008587D01*
X017387Y008837D02*
X017604Y008837D01*
X017441Y008508D02*
X017465Y008490D01*
X017490Y008475D01*
X017516Y008462D01*
X017544Y008452D01*
X017573Y008445D01*
X017602Y008442D01*
X017791Y008442D01*
X017827Y008744D02*
X017801Y008768D01*
X017772Y008789D01*
X017741Y008806D01*
X017708Y008819D01*
X017674Y008829D01*
X017639Y008835D01*
X017604Y008837D01*
X017508Y009551D02*
X017544Y009558D01*
X017581Y009561D01*
X017618Y009562D01*
X017939Y009559D02*
X017965Y009558D01*
X017992Y009561D01*
X018017Y009567D01*
X018042Y009577D01*
X018065Y009589D01*
X018087Y009605D01*
X018106Y009623D01*
X018044Y009317D02*
X018282Y009080D01*
X017973Y009026D02*
X017437Y009026D01*
X017849Y009412D02*
X017880Y009409D01*
X017911Y009401D01*
X017941Y009391D01*
X017970Y009377D01*
X017997Y009360D01*
X018022Y009340D01*
X018044Y009317D01*
X017827Y008745D02*
X018102Y008469D01*
X017402Y007874D02*
X017374Y007876D01*
X017347Y007880D01*
X017321Y007888D01*
X017295Y007898D01*
X017271Y007912D01*
X017249Y007928D01*
X017228Y007946D01*
X016969Y007405D02*
X016990Y007384D01*
X017014Y007367D01*
X017039Y007352D01*
X017067Y007341D01*
X017095Y007333D01*
X017124Y007329D01*
X017153Y007328D01*
X016595Y006317D02*
X016476Y006317D01*
X016191Y005857D02*
X016167Y005856D01*
X016144Y005858D01*
X016121Y005862D01*
X016099Y005870D01*
X016077Y005881D01*
X016058Y005894D01*
X016040Y005910D01*
X015933Y005992D01*
X015856Y005919D02*
X015776Y005999D01*
X015431Y005752D02*
X015444Y005716D01*
X015459Y005681D01*
X015478Y005647D01*
X015499Y005615D01*
X015523Y005585D01*
X015549Y005557D01*
X015578Y005531D01*
X015608Y005508D01*
X015641Y005487D01*
X015675Y005469D01*
X015674Y005469D02*
X015749Y005434D01*
X015962Y005479D02*
X015962Y005662D01*
X015963Y005479D02*
X015964Y005453D01*
X015969Y005427D01*
X015976Y005402D01*
X015986Y005377D01*
X015999Y005355D01*
X016014Y005333D01*
X016032Y005314D01*
X016031Y005313D02*
X016036Y005308D01*
X015962Y005662D02*
X015960Y005698D01*
X015955Y005733D01*
X015946Y005768D01*
X015934Y005801D01*
X015919Y005834D01*
X015901Y005864D01*
X015879Y005893D01*
X015855Y005919D01*
X015775Y005999D02*
X015753Y006024D01*
X015733Y006052D01*
X015717Y006081D01*
X015704Y006113D01*
X015695Y006145D01*
X015689Y006178D01*
X015687Y006212D01*
X017012Y007912D02*
X016942Y007976D01*
X016870Y008037D01*
X016796Y008095D01*
X016719Y008149D01*
X016640Y008201D01*
X016559Y008250D01*
X016476Y008295D01*
X016392Y008337D01*
X016306Y008376D01*
X016218Y008411D01*
X016129Y008442D01*
X016039Y008470D01*
X015948Y008494D01*
X015856Y008515D01*
X015763Y008532D01*
X015669Y008545D01*
X015576Y008554D01*
X015481Y008560D01*
X015387Y008562D01*
X015087Y008262D02*
X015162Y008260D01*
X015237Y008254D01*
X015311Y008245D01*
X015385Y008231D01*
X015458Y008214D01*
X015530Y008193D01*
X015600Y008168D01*
X015670Y008139D01*
X015737Y008107D01*
X015804Y008072D01*
X015868Y008033D01*
X015930Y007991D01*
X015989Y007946D01*
X016047Y007898D01*
X016102Y007846D01*
X016154Y007792D01*
X016203Y007736D01*
X016249Y007677D01*
X016292Y007615D01*
X016332Y007552D01*
X016368Y007486D01*
X016401Y007419D01*
X016431Y007350D01*
X016457Y007280D01*
X016479Y007208D01*
X016497Y007136D01*
X016512Y007062D01*
X015237Y006387D02*
X015431Y005752D01*
X014447Y005033D02*
X014465Y004993D01*
X014486Y004955D01*
X014509Y004918D01*
X014535Y004883D01*
X014563Y004850D01*
X014594Y004819D01*
X014628Y004791D01*
X014663Y004765D01*
X014700Y004742D01*
X014146Y004466D02*
X014105Y004498D01*
X014065Y004533D01*
X014028Y004570D01*
X013994Y004610D01*
X013963Y004653D01*
X013934Y004697D01*
X013909Y004743D01*
X013888Y004791D01*
X015470Y005284D02*
X015457Y005341D01*
X015439Y005397D01*
X015418Y005452D01*
X015394Y005505D01*
X015366Y005556D01*
X015334Y005606D01*
X016412Y006937D02*
X016399Y007009D01*
X016382Y007080D01*
X016362Y007151D01*
X016339Y007220D01*
X016312Y007288D01*
X016281Y007354D01*
X016248Y007419D01*
X016211Y007482D01*
X016170Y007543D01*
X016127Y007602D01*
X016081Y007659D01*
X016032Y007713D01*
X015981Y007765D01*
X015926Y007814D01*
X015870Y007860D01*
X015811Y007903D01*
X015750Y007943D01*
X015687Y007981D01*
X015622Y008014D01*
X015556Y008045D01*
X015488Y008072D01*
X015419Y008096D01*
X015349Y008116D01*
X015277Y008132D01*
X015205Y008145D01*
X015133Y008155D01*
X015060Y008160D01*
X014987Y008162D01*
X014887Y008063D02*
X014957Y008062D01*
X015026Y008058D01*
X015095Y008049D01*
X015163Y008037D01*
X015231Y008022D01*
X015298Y008002D01*
X015363Y007979D01*
X015427Y007953D01*
X015490Y007923D01*
X015551Y007889D01*
X015610Y007853D01*
X015667Y007813D01*
X015721Y007770D01*
X015774Y007724D01*
X015823Y007675D01*
X015870Y007624D01*
X015914Y007570D01*
X015955Y007514D01*
X015993Y007456D01*
X016027Y007395D01*
X016059Y007333D01*
X016086Y007270D01*
X016111Y007205D01*
X016131Y007138D01*
X016148Y007071D01*
X016162Y007003D01*
X016171Y006934D01*
X016177Y006865D01*
X016179Y006795D01*
X016177Y006726D01*
X016172Y006657D01*
X016162Y006588D01*
X016037Y006463D02*
X016048Y006532D01*
X016055Y006601D01*
X016058Y006670D01*
X016057Y006740D01*
X016053Y006809D01*
X016044Y006878D01*
X016032Y006947D01*
X016016Y007015D01*
X015997Y007082D01*
X015974Y007147D01*
X015947Y007211D01*
X015917Y007274D01*
X015883Y007335D01*
X015846Y007394D01*
X015806Y007451D01*
X015763Y007506D01*
X015717Y007558D01*
X015669Y007608D01*
X015617Y007654D01*
X015563Y007698D01*
X015507Y007739D01*
X015449Y007777D01*
X015388Y007812D01*
X015326Y007843D01*
X015262Y007871D01*
X015197Y007895D01*
X015131Y007916D01*
X015063Y007933D01*
X014995Y007946D01*
X014926Y007955D01*
X014857Y007961D01*
X014787Y007963D01*
X013723Y008262D02*
X013663Y008260D01*
X013602Y008255D01*
X013543Y008246D01*
X013484Y008233D01*
X013425Y008217D01*
X013368Y008197D01*
X013313Y008174D01*
X013258Y008147D01*
X013206Y008118D01*
X013155Y008085D01*
X013106Y008049D01*
X013060Y008011D01*
X013016Y007969D01*
X014757Y011287D02*
X015531Y011287D01*
X015560Y011289D01*
X015588Y011293D01*
X015616Y011301D01*
X015642Y011312D01*
X015667Y011326D01*
X015691Y011343D01*
X015712Y011362D01*
X015106Y011437D02*
X014781Y011437D01*
X014818Y010560D02*
X014758Y010562D01*
X014697Y010567D01*
X014638Y010576D01*
X014579Y010589D01*
X014520Y010605D01*
X014463Y010625D01*
X014408Y010648D01*
X014353Y010675D01*
X014301Y010704D01*
X014250Y010737D01*
X014201Y010773D01*
X014155Y010811D01*
X014111Y010853D01*
X014176Y010955D02*
X014220Y010913D01*
X014266Y010875D01*
X014315Y010839D01*
X014366Y010806D01*
X014418Y010777D01*
X014473Y010750D01*
X014528Y010727D01*
X014586Y010707D01*
X014644Y010691D01*
X014703Y010678D01*
X014762Y010669D01*
X014823Y010664D01*
X014883Y010662D01*
X015106Y011437D02*
X015135Y011439D01*
X015163Y011443D01*
X015191Y011451D01*
X015217Y011462D01*
X015242Y011476D01*
X015266Y011493D01*
X015287Y011512D01*
X015181Y011812D02*
X014580Y011812D01*
X014622Y011962D02*
X014756Y011962D01*
X014259Y011205D02*
X014303Y011163D01*
X014349Y011125D01*
X014398Y011089D01*
X014449Y011056D01*
X014501Y011027D01*
X014556Y011000D01*
X014611Y010977D01*
X014669Y010957D01*
X014727Y010941D01*
X014786Y010928D01*
X014845Y010919D01*
X014906Y010914D01*
X014966Y010912D01*
X014943Y010762D02*
X014883Y010764D01*
X014822Y010769D01*
X014763Y010778D01*
X014704Y010791D01*
X014646Y010807D01*
X014588Y010827D01*
X014533Y010850D01*
X014478Y010877D01*
X014426Y010906D01*
X014375Y010939D01*
X014326Y010975D01*
X014280Y011013D01*
X014236Y011055D01*
X014756Y011962D02*
X014785Y011964D01*
X014813Y011968D01*
X014841Y011976D01*
X014867Y011987D01*
X014892Y012001D01*
X014916Y012018D01*
X014937Y012037D01*
X015181Y011812D02*
X015210Y011814D01*
X015238Y011818D01*
X015266Y011826D01*
X015292Y011837D01*
X015317Y011851D01*
X015341Y011868D01*
X015362Y011887D01*
X014831Y012337D02*
X014433Y012337D01*
X014542Y012517D02*
X014587Y012562D01*
X014543Y012517D02*
X014531Y012507D01*
X014517Y012498D01*
X014502Y012492D01*
X014486Y012488D01*
X014470Y012487D01*
X014074Y011730D02*
X014118Y011688D01*
X014164Y011650D01*
X014213Y011614D01*
X014264Y011581D01*
X014316Y011552D01*
X014371Y011525D01*
X014426Y011502D01*
X014483Y011482D01*
X014542Y011466D01*
X014601Y011453D01*
X014660Y011444D01*
X014721Y011439D01*
X014781Y011437D01*
X014757Y011287D02*
X014697Y011289D01*
X014636Y011294D01*
X014577Y011303D01*
X014518Y011316D01*
X014459Y011332D01*
X014402Y011352D01*
X014347Y011375D01*
X014292Y011402D01*
X014240Y011431D01*
X014189Y011464D01*
X014140Y011500D01*
X014094Y011538D01*
X014050Y011580D01*
X014831Y012337D02*
X014860Y012339D01*
X014888Y012343D01*
X014916Y012351D01*
X014942Y012362D01*
X014967Y012376D01*
X014991Y012393D01*
X015012Y012412D01*
X014580Y011812D02*
X014520Y011814D01*
X014459Y011819D01*
X014400Y011828D01*
X014341Y011841D01*
X014282Y011857D01*
X014225Y011877D01*
X014170Y011900D01*
X014115Y011927D01*
X014063Y011956D01*
X014012Y011989D01*
X013963Y012025D01*
X013917Y012063D01*
X013873Y012105D01*
X014111Y012862D02*
X014481Y012862D01*
X013915Y012255D02*
X013959Y012213D01*
X014005Y012175D01*
X014054Y012139D01*
X014105Y012106D01*
X014157Y012077D01*
X014212Y012050D01*
X014267Y012027D01*
X014324Y012007D01*
X014383Y011991D01*
X014442Y011978D01*
X014501Y011969D01*
X014562Y011964D01*
X014622Y011962D01*
X014056Y013012D02*
X014052Y013012D01*
X014056Y013012D02*
X014085Y013014D01*
X014113Y013018D01*
X014141Y013026D01*
X014167Y013037D01*
X014192Y013051D01*
X014216Y013068D01*
X014237Y013087D01*
X014481Y012862D02*
X014510Y012864D01*
X014538Y012868D01*
X014566Y012876D01*
X014592Y012887D01*
X014617Y012901D01*
X014641Y012918D01*
X014662Y012937D01*
X014433Y012337D02*
X014373Y012339D01*
X014312Y012344D01*
X014253Y012353D01*
X014194Y012366D01*
X014135Y012382D01*
X014078Y012402D01*
X014023Y012425D01*
X013968Y012452D01*
X013916Y012481D01*
X013865Y012514D01*
X013816Y012550D01*
X013770Y012588D01*
X013726Y012630D01*
X012705Y012259D02*
X012663Y012303D01*
X012625Y012349D01*
X012589Y012398D01*
X012556Y012449D01*
X012527Y012501D01*
X012500Y012556D01*
X012477Y012611D01*
X012457Y012668D01*
X012441Y012727D01*
X012428Y012786D01*
X012419Y012845D01*
X012414Y012906D01*
X012412Y012966D01*
X012612Y013093D02*
X012614Y013033D01*
X012619Y012972D01*
X012628Y012913D01*
X012641Y012854D01*
X012657Y012795D01*
X012677Y012738D01*
X012700Y012683D01*
X012727Y012628D01*
X012756Y012576D01*
X012789Y012525D01*
X012825Y012476D01*
X012863Y012430D01*
X012905Y012386D01*
X013005Y012459D02*
X012963Y012503D01*
X012925Y012549D01*
X012889Y012598D01*
X012856Y012649D01*
X012827Y012701D01*
X012800Y012756D01*
X012777Y012811D01*
X012757Y012868D01*
X012741Y012927D01*
X012728Y012986D01*
X012719Y013045D01*
X012714Y013106D01*
X012712Y013166D01*
X013687Y013649D02*
X013935Y013401D01*
X013012Y013380D02*
X013014Y013320D01*
X013019Y013259D01*
X013028Y013200D01*
X013041Y013141D01*
X013057Y013082D01*
X013077Y013025D01*
X013100Y012970D01*
X013127Y012915D01*
X013156Y012863D01*
X013189Y012812D01*
X013225Y012763D01*
X013263Y012717D01*
X013305Y012673D01*
X013105Y012525D02*
X013063Y012569D01*
X013025Y012615D01*
X012989Y012664D01*
X012956Y012715D01*
X012927Y012767D01*
X012900Y012822D01*
X012877Y012877D01*
X012857Y012934D01*
X012841Y012993D01*
X012828Y013052D01*
X012819Y013111D01*
X012814Y013172D01*
X012812Y013232D01*
X012912Y013306D02*
X012914Y013246D01*
X012919Y013185D01*
X012928Y013126D01*
X012941Y013067D01*
X012957Y013008D01*
X012977Y012951D01*
X013000Y012896D01*
X013027Y012841D01*
X013056Y012789D01*
X013089Y012738D01*
X013125Y012689D01*
X013163Y012643D01*
X013205Y012599D01*
X013805Y013115D02*
X013830Y013091D01*
X013858Y013071D01*
X013887Y013053D01*
X013918Y013039D01*
X013950Y013027D01*
X013984Y013019D01*
X014018Y013014D01*
X014052Y013012D01*
X014111Y012862D02*
X014066Y012864D01*
X014021Y012869D01*
X013977Y012878D01*
X013934Y012890D01*
X013891Y012906D01*
X013850Y012925D01*
X013811Y012947D01*
X013774Y012972D01*
X013738Y013000D01*
X013705Y013030D01*
X013405Y012765D02*
X013363Y012809D01*
X013325Y012855D01*
X013289Y012904D01*
X013256Y012955D01*
X013227Y013007D01*
X013200Y013062D01*
X013177Y013117D01*
X013157Y013174D01*
X013141Y013233D01*
X013128Y013292D01*
X013119Y013351D01*
X013114Y013412D01*
X013112Y013472D01*
X013686Y013649D02*
X013667Y013670D01*
X013651Y013693D01*
X013637Y013718D01*
X013626Y013744D01*
X013618Y013772D01*
X013614Y013800D01*
X013612Y013828D01*
X013763Y013861D02*
X013748Y013878D01*
X013735Y013898D01*
X013725Y013918D01*
X013718Y013940D01*
X013713Y013962D01*
X013712Y013985D01*
X013312Y013645D02*
X013314Y013585D01*
X013319Y013524D01*
X013328Y013465D01*
X013341Y013406D01*
X013357Y013348D01*
X013377Y013290D01*
X013400Y013235D01*
X013427Y013180D01*
X013456Y013128D01*
X013489Y013077D01*
X013525Y013028D01*
X013563Y012982D01*
X013605Y012938D01*
X013763Y012780D02*
X013807Y012738D01*
X013853Y012700D01*
X013902Y012664D01*
X013953Y012631D01*
X014005Y012602D01*
X014060Y012575D01*
X014115Y012552D01*
X014172Y012532D01*
X014231Y012516D01*
X014290Y012503D01*
X014349Y012494D01*
X014410Y012489D01*
X014470Y012487D01*
X013705Y013031D02*
X013663Y013075D01*
X013625Y013121D01*
X013589Y013170D01*
X013556Y013221D01*
X013527Y013273D01*
X013500Y013328D01*
X013477Y013383D01*
X013457Y013440D01*
X013441Y013499D01*
X013428Y013558D01*
X013419Y013617D01*
X013414Y013678D01*
X013412Y013738D01*
X014312Y014462D02*
X014487Y014337D01*
X014312Y014462D02*
X014289Y014497D01*
X013713Y014987D02*
X013715Y015048D01*
X013720Y015109D01*
X013729Y015169D01*
X013741Y015229D01*
X013757Y015288D01*
X013777Y015346D01*
X013799Y015402D01*
X013825Y015458D01*
X013854Y015511D01*
X013887Y015563D01*
X013922Y015613D01*
X013960Y015661D01*
X014000Y015706D01*
X014044Y015749D01*
X014090Y015789D01*
X014138Y015827D01*
X014188Y015862D01*
X013887Y016463D02*
X013835Y016417D01*
X013786Y016368D01*
X013739Y016316D01*
X013694Y016263D01*
X013653Y016207D01*
X013614Y016149D01*
X013579Y016089D01*
X013546Y016028D01*
X013517Y015965D01*
X013491Y015900D01*
X013468Y015835D01*
X013449Y015768D01*
X013433Y015700D01*
X013421Y015632D01*
X013412Y015563D01*
X013613Y015087D02*
X013615Y015151D01*
X013620Y015215D01*
X013629Y015279D01*
X013641Y015342D01*
X013657Y015404D01*
X013676Y015465D01*
X013699Y015526D01*
X013725Y015584D01*
X013754Y015642D01*
X013786Y015697D01*
X013821Y015751D01*
X013859Y015803D01*
X013900Y015852D01*
X013943Y015900D01*
X013989Y015944D01*
X014038Y015987D01*
X014499Y015424D02*
X014468Y015397D01*
X014440Y015367D01*
X014415Y015334D01*
X014393Y015299D01*
X014375Y015263D01*
X014359Y015224D01*
X014347Y015185D01*
X014339Y015145D01*
X014335Y015104D01*
X014334Y015063D01*
X014337Y015022D01*
X014344Y014981D01*
X014355Y014941D01*
X014369Y014903D01*
X014386Y014866D01*
X014407Y014830D01*
X014431Y014797D01*
X014458Y014766D01*
X014488Y014737D01*
X014288Y014497D02*
X014259Y014544D01*
X014233Y014593D01*
X014210Y014643D01*
X014191Y014695D01*
X014175Y014749D01*
X014163Y014803D01*
X014155Y014858D01*
X014151Y014913D01*
X014150Y014968D01*
X014154Y015024D01*
X014161Y015079D01*
X014172Y015133D01*
X014187Y015187D01*
X014205Y015239D01*
X014227Y015290D01*
X014253Y015339D01*
X014282Y015386D01*
X014314Y015432D01*
X014349Y015475D01*
X014387Y015515D01*
X014427Y015553D01*
X015810Y014870D02*
X015840Y014896D01*
X015868Y014924D01*
X015894Y014955D01*
X015917Y014988D01*
X015938Y015022D01*
X016339Y014525D02*
X016319Y014491D01*
X016296Y014459D01*
X016270Y014429D01*
X016241Y014401D01*
X016210Y014377D01*
X015963Y014199D01*
X016338Y014090D02*
X016406Y014317D01*
X016451Y014435D02*
X016648Y014850D01*
X016749Y014941D02*
X016960Y015016D01*
X016749Y014942D02*
X016728Y014932D01*
X016708Y014921D01*
X016690Y014906D01*
X016673Y014889D01*
X016660Y014871D01*
X016648Y014850D01*
X016581Y014978D02*
X016340Y014525D01*
X015989Y014608D02*
X016207Y015224D01*
X016582Y014980D02*
X016581Y014977D01*
X016582Y014980D02*
X016899Y015584D01*
X016595Y015508D02*
X016485Y015479D01*
X016073Y015923D02*
X016038Y015908D01*
X016004Y015889D01*
X015972Y015868D01*
X015942Y015844D01*
X015914Y015817D01*
X015889Y015788D01*
X015867Y015757D01*
X015700Y015503D01*
X015653Y015387D02*
X015598Y015098D01*
X015488Y015571D02*
X015503Y015593D01*
X015520Y015613D01*
X015400Y016198D02*
X015430Y016232D01*
X015463Y016263D01*
X015499Y016291D01*
X015537Y016316D01*
X015577Y016338D01*
X015618Y016356D01*
X015661Y016371D01*
X015705Y016383D01*
X015749Y016391D01*
X013342Y017252D02*
X013303Y017145D01*
X013267Y017036D01*
X013235Y016927D01*
X013206Y016816D01*
X013181Y016704D01*
X013160Y016592D01*
X013142Y016479D01*
X013129Y016365D01*
X013119Y016251D01*
X013112Y016137D01*
X012412Y016338D02*
X012365Y016423D01*
X012320Y016510D01*
X012278Y016598D01*
X012239Y016688D01*
X012202Y016778D01*
X012168Y016870D01*
X012137Y016963D01*
X010612Y018012D02*
X010378Y018487D01*
X013537Y016512D02*
X013605Y016604D01*
X013671Y016697D01*
X013733Y016793D01*
X013792Y016891D01*
X013848Y016990D01*
X013901Y017091D01*
X013950Y017194D01*
X015700Y015503D02*
X015684Y015476D01*
X015670Y015448D01*
X015660Y015418D01*
X015653Y015388D01*
X016207Y015224D02*
X016218Y015252D01*
X016232Y015280D01*
X016247Y015306D01*
X016264Y015331D01*
X016289Y015360D01*
X016316Y015388D01*
X016346Y015412D01*
X016378Y015434D01*
X016412Y015452D01*
X016447Y015467D01*
X016484Y015479D01*
X017269Y015067D02*
X016864Y014546D01*
X016828Y014479D02*
X016666Y013954D01*
X016798Y013859D02*
X016937Y014367D01*
X016972Y014418D02*
X017063Y014485D01*
X016864Y014547D02*
X016849Y014526D01*
X016837Y014503D01*
X016828Y014479D01*
X016972Y014418D02*
X016960Y014407D01*
X016950Y014395D01*
X016943Y014382D01*
X016937Y014367D01*
X017063Y014485D02*
X017080Y014496D01*
X017099Y014505D01*
X017118Y014510D01*
X017139Y014512D01*
X017159Y014511D01*
X017159Y014510D02*
X017282Y014496D01*
X017594Y014520D02*
X017177Y014033D01*
X016406Y014316D02*
X016419Y014356D01*
X016435Y014396D01*
X016452Y014435D01*
X016666Y013954D02*
X016655Y013925D01*
X016640Y013897D01*
X016623Y013870D01*
X016602Y013846D01*
X016579Y013825D01*
X016553Y013807D01*
X016553Y013806D02*
X015795Y013331D01*
X015997Y013076D02*
X016704Y013708D01*
X016704Y013709D02*
X016725Y013730D01*
X016744Y013753D01*
X016761Y013777D01*
X016776Y013803D01*
X016788Y013831D01*
X016797Y013859D01*
X016887Y013666D02*
X016877Y013652D01*
X016868Y013637D01*
X016861Y013622D01*
X016994Y013452D02*
X016885Y013047D01*
X016874Y013011D01*
X016859Y012976D01*
X016841Y012942D01*
X016821Y012910D01*
X016797Y012880D01*
X016771Y012852D01*
X016742Y012827D01*
X016712Y012804D01*
X017168Y012492D02*
X017300Y013188D01*
X017225Y013397D02*
X017520Y013590D01*
X017873Y013948D01*
X017151Y013770D02*
X017138Y013753D01*
X017128Y013735D01*
X016724Y013267D02*
X016709Y013233D01*
X016692Y013200D01*
X016671Y013169D01*
X016648Y013140D01*
X016622Y013113D01*
X016594Y013088D01*
X016564Y013066D01*
X016946Y010671D02*
X016896Y010640D01*
X016845Y010612D01*
X016792Y010588D01*
X016737Y010568D01*
X016681Y010551D01*
X016624Y010538D01*
X016567Y010529D01*
X016508Y010524D01*
X016450Y010523D01*
X016392Y010526D01*
X013805Y013115D02*
X013763Y013159D01*
X013725Y013205D01*
X013689Y013254D01*
X013656Y013305D01*
X013627Y013357D01*
X013600Y013412D01*
X013577Y013467D01*
X013557Y013524D01*
X013541Y013583D01*
X013528Y013642D01*
X013519Y013701D01*
X013514Y013762D01*
X013512Y013822D01*
X011069Y014421D02*
X009504Y012855D01*
X009435Y012955D02*
X010919Y014440D01*
X010695Y014391D02*
X009359Y013055D01*
X009286Y013155D02*
X010545Y014413D01*
X010170Y014225D02*
X009200Y013255D01*
X009120Y013355D02*
X010020Y014255D01*
X009412Y014553D02*
X009410Y014615D01*
X009359Y014777D02*
X009337Y014812D01*
X010020Y014255D02*
X010059Y014298D01*
X010096Y014344D01*
X010130Y014392D01*
X010161Y014442D01*
X010189Y014494D01*
X010214Y014547D01*
X010235Y014602D01*
X010253Y014658D01*
X010268Y014715D01*
X010279Y014772D01*
X010287Y014831D01*
X010291Y014889D01*
X010292Y014948D01*
X010278Y014995D02*
X010237Y015062D01*
X010919Y014440D02*
X010961Y014484D01*
X010999Y014530D01*
X011035Y014579D01*
X011068Y014630D01*
X011097Y014682D01*
X011124Y014737D01*
X011147Y014792D01*
X011167Y014849D01*
X011183Y014908D01*
X011196Y014967D01*
X011205Y015026D01*
X011210Y015087D01*
X011212Y015147D01*
X010837Y015121D02*
X010827Y015220D01*
X010446Y015329D02*
X010462Y014932D01*
X011069Y014421D02*
X011111Y014465D01*
X011149Y014511D01*
X011185Y014560D01*
X011218Y014611D01*
X011247Y014663D01*
X011274Y014718D01*
X011297Y014773D01*
X011317Y014830D01*
X011333Y014889D01*
X011346Y014948D01*
X011355Y015007D01*
X011360Y015068D01*
X011362Y015128D01*
X010982Y015635D02*
X010980Y015673D01*
X010974Y015711D01*
X010965Y015748D01*
X010953Y015784D01*
X010938Y015819D01*
X010919Y015852D01*
X010387Y015512D02*
X010392Y015504D01*
X010392Y015505D02*
X010410Y015472D01*
X010424Y015438D01*
X010435Y015403D01*
X010442Y015366D01*
X010446Y015329D01*
X010763Y015413D02*
X010782Y015377D01*
X010799Y015339D01*
X010812Y015300D01*
X010822Y015260D01*
X010828Y015220D01*
X010279Y014995D02*
X010286Y014980D01*
X010290Y014965D01*
X010292Y014948D01*
X009879Y015135D02*
X009862Y015162D01*
X010837Y015121D02*
X010835Y015061D01*
X010830Y015000D01*
X010821Y014941D01*
X010808Y014882D01*
X010792Y014823D01*
X010772Y014766D01*
X010749Y014711D01*
X010722Y014656D01*
X010693Y014604D01*
X010660Y014553D01*
X010624Y014504D01*
X010586Y014458D01*
X010544Y014414D01*
X009921Y015002D02*
X009918Y015030D01*
X009912Y015058D01*
X009904Y015085D01*
X009892Y015111D01*
X009879Y015136D01*
X010462Y014932D02*
X010460Y014872D01*
X010455Y014811D01*
X010446Y014752D01*
X010433Y014693D01*
X010417Y014634D01*
X010397Y014577D01*
X010374Y014522D01*
X010347Y014467D01*
X010318Y014415D01*
X010285Y014364D01*
X010249Y014315D01*
X010211Y014269D01*
X010169Y014225D01*
X009410Y014615D02*
X009406Y014649D01*
X009400Y014683D01*
X009389Y014716D01*
X009376Y014748D01*
X009359Y014778D01*
X012412Y015262D02*
X012401Y015373D01*
X012387Y015484D01*
X012369Y015594D01*
X012347Y015704D01*
X012321Y015813D01*
X012292Y015920D01*
X012260Y016027D01*
X012224Y016133D01*
X012184Y016237D01*
X012142Y016341D01*
X012095Y016442D01*
X012046Y016542D01*
X011993Y016641D01*
X011937Y016738D01*
X010423Y017165D02*
X009765Y017657D01*
X009562Y017312D02*
X009163Y017557D01*
X009018Y017552D02*
X008722Y017885D01*
X008446Y017679D02*
X008445Y017645D01*
X008448Y017611D01*
X008455Y017578D01*
X008465Y017546D01*
X008479Y017515D01*
X008495Y017486D01*
X008515Y017458D01*
X008538Y017433D01*
X009037Y016962D01*
X009209Y017232D02*
X009119Y017405D01*
X008145Y017007D02*
X008107Y017051D01*
X008071Y017097D01*
X008038Y017146D01*
X008009Y017197D01*
X007983Y017249D01*
X007960Y017304D01*
X007941Y017359D01*
X007925Y017416D01*
X007913Y017473D01*
X007905Y017531D01*
X007900Y017590D01*
X007899Y017648D01*
X007902Y017707D01*
X007917Y017890D01*
X008146Y017677D02*
X008244Y017587D01*
X007364Y017332D02*
X007370Y017275D01*
X007379Y017218D01*
X007392Y017162D01*
X007408Y017107D01*
X007426Y017053D01*
X007449Y017000D01*
X007474Y016948D01*
X007502Y016898D01*
X007533Y016850D01*
X007567Y016804D01*
X007566Y016803D02*
X007987Y016262D01*
X008162Y016487D02*
X007938Y017033D01*
X008399Y017385D02*
X008374Y017430D01*
X008346Y017473D01*
X008314Y017513D01*
X008280Y017552D01*
X008244Y017588D01*
X008446Y017679D02*
X008511Y018116D01*
X009041Y017830D02*
X009122Y018292D01*
X009313Y018044D02*
X010136Y016992D01*
X010262Y017887D02*
X009915Y018153D01*
X009630Y018021D02*
X009625Y017984D01*
X009623Y017947D01*
X009625Y017910D01*
X009631Y017873D01*
X009640Y017837D01*
X009653Y017803D01*
X009669Y017769D01*
X009689Y017738D01*
X009712Y017708D01*
X009737Y017681D01*
X009765Y017657D01*
X009631Y018021D02*
X009746Y018416D01*
X009042Y017830D02*
X009039Y017799D01*
X009040Y017767D01*
X009045Y017736D01*
X009052Y017705D01*
X009064Y017676D01*
X009078Y017648D01*
X009095Y017622D01*
X009116Y017598D01*
X009138Y017576D01*
X009163Y017557D01*
X008399Y017385D02*
X008687Y016837D01*
X008512Y016612D02*
X008145Y017006D01*
X009018Y017552D02*
X009046Y017518D01*
X009072Y017482D01*
X009097Y017444D01*
X009119Y017406D01*
X007105Y016402D02*
X007064Y016461D01*
X007025Y016523D01*
X006990Y016586D01*
X006957Y016651D01*
X006928Y016718D01*
X006902Y016785D01*
X006879Y016854D01*
X006859Y016924D01*
X006843Y016995D01*
X006830Y017066D01*
X006830Y017067D02*
X006795Y017293D01*
X007057Y017121D02*
X007125Y017082D01*
X007364Y017332D02*
X007343Y017615D01*
X007590Y017422D02*
X007679Y017359D01*
X007377Y016792D02*
X007637Y016137D01*
X007462Y015912D02*
X007105Y016402D01*
X006878Y016440D02*
X007112Y015787D01*
X006937Y015562D02*
X006490Y016218D01*
X006877Y016441D02*
X006860Y016483D01*
X006839Y016524D01*
X006815Y016564D01*
X006788Y016601D01*
X006757Y016635D01*
X006724Y016667D01*
X006688Y016697D01*
X006650Y016723D01*
X006610Y016746D01*
X006611Y016745D02*
X006551Y016777D01*
X006354Y016540D02*
X006276Y016926D01*
X006237Y013063D02*
X006117Y013065D01*
X005998Y013070D01*
X005879Y013079D01*
X005760Y013092D01*
X005641Y013108D01*
X005523Y013128D01*
X005406Y013151D01*
X005289Y013178D01*
X005174Y013209D01*
X005059Y013243D01*
X004945Y013280D01*
X004833Y013321D01*
X004722Y013365D01*
X004612Y013413D01*
X005312Y014762D02*
X005327Y014688D01*
X005345Y014616D01*
X005367Y014544D01*
X005393Y014474D01*
X005423Y014405D01*
X005456Y014338D01*
X005492Y014272D01*
X005532Y014209D01*
X005575Y014147D01*
X005621Y014088D01*
X005670Y014032D01*
X005722Y013978D01*
X005777Y013926D01*
X005835Y013878D01*
X005894Y013833D01*
X005956Y013791D01*
X006020Y013752D01*
X006087Y013717D01*
X006154Y013685D01*
X006224Y013656D01*
X006294Y013631D01*
X006366Y013610D01*
X006439Y013593D01*
X006513Y013579D01*
X006587Y013570D01*
X006662Y013564D01*
X006737Y013562D01*
X006987Y014137D02*
X006930Y014131D01*
X006873Y014128D01*
X006817Y014129D01*
X006760Y014134D01*
X006704Y014143D01*
X006648Y014156D01*
X006594Y014172D01*
X006540Y014193D01*
X006489Y014216D01*
X006439Y014244D01*
X006390Y014274D01*
X006345Y014308D01*
X006301Y014345D01*
X006260Y014384D01*
X006222Y014427D01*
X006187Y014472D01*
X006155Y014519D01*
X006127Y014568D01*
X006102Y014619D01*
X006080Y014672D01*
X006062Y014726D01*
X006048Y014781D01*
X006037Y014837D01*
X005087Y014388D02*
X005128Y014316D01*
X005172Y014247D01*
X005219Y014179D01*
X005270Y014114D01*
X005323Y014051D01*
X005379Y013991D01*
X005438Y013934D01*
X005500Y013879D01*
X005564Y013827D01*
X005631Y013779D01*
X005699Y013733D01*
X005770Y013691D01*
X005843Y013652D01*
X005917Y013617D01*
X005993Y013585D01*
X006071Y013557D01*
X006149Y013532D01*
X006229Y013511D01*
X006309Y013494D01*
X006391Y013480D01*
X006472Y013471D01*
X006555Y013465D01*
X006637Y013463D01*
X007898Y013662D02*
X007958Y013664D01*
X008019Y013669D01*
X008078Y013678D01*
X008137Y013691D01*
X008196Y013707D01*
X008253Y013727D01*
X008308Y013750D01*
X008363Y013777D01*
X008415Y013806D01*
X008466Y013839D01*
X008515Y013875D01*
X008561Y013913D01*
X008605Y013955D01*
X008662Y014012D01*
X008866Y013912D02*
X008875Y013924D01*
X008882Y013937D01*
X008886Y013951D01*
X008887Y013965D01*
X009359Y013055D02*
X009315Y013013D01*
X009269Y012975D01*
X009220Y012939D01*
X009169Y012906D01*
X009117Y012877D01*
X009062Y012850D01*
X009007Y012827D01*
X008950Y012807D01*
X008891Y012791D01*
X008832Y012778D01*
X008773Y012769D01*
X008712Y012764D01*
X008652Y012762D01*
X008797Y012562D02*
X008857Y012564D01*
X008918Y012569D01*
X008977Y012578D01*
X009036Y012591D01*
X009095Y012607D01*
X009152Y012627D01*
X009207Y012650D01*
X009262Y012677D01*
X009314Y012706D01*
X009365Y012739D01*
X009414Y012775D01*
X009460Y012813D01*
X009504Y012855D01*
X009435Y012955D02*
X009391Y012913D01*
X009345Y012875D01*
X009296Y012839D01*
X009245Y012806D01*
X009193Y012777D01*
X009138Y012750D01*
X009083Y012727D01*
X009026Y012707D01*
X008967Y012691D01*
X008908Y012678D01*
X008849Y012669D01*
X008788Y012664D01*
X008728Y012662D01*
X008579Y012862D02*
X008639Y012864D01*
X008700Y012869D01*
X008759Y012878D01*
X008818Y012891D01*
X008877Y012907D01*
X008934Y012927D01*
X008989Y012950D01*
X009044Y012977D01*
X009096Y013006D01*
X009147Y013039D01*
X009196Y013075D01*
X009242Y013113D01*
X009286Y013155D01*
X009200Y013255D02*
X009156Y013213D01*
X009110Y013175D01*
X009061Y013139D01*
X009010Y013106D01*
X008958Y013077D01*
X008903Y013050D01*
X008848Y013027D01*
X008791Y013007D01*
X008732Y012991D01*
X008673Y012978D01*
X008614Y012969D01*
X008553Y012964D01*
X008493Y012962D01*
X008413Y013062D02*
X008473Y013064D01*
X008534Y013069D01*
X008593Y013078D01*
X008652Y013091D01*
X008710Y013107D01*
X008768Y013127D01*
X008823Y013150D01*
X008878Y013177D01*
X008930Y013206D01*
X008981Y013239D01*
X009030Y013275D01*
X009076Y013313D01*
X009120Y013355D01*
X008984Y013555D02*
X008940Y013513D01*
X008894Y013475D01*
X008845Y013439D01*
X008794Y013406D01*
X008742Y013377D01*
X008687Y013350D01*
X008632Y013327D01*
X008575Y013307D01*
X008516Y013291D01*
X008457Y013278D01*
X008398Y013269D01*
X008337Y013264D01*
X008277Y013262D01*
X008222Y013362D02*
X008282Y013364D01*
X008343Y013369D01*
X008402Y013378D01*
X008461Y013391D01*
X008519Y013407D01*
X008577Y013427D01*
X008632Y013450D01*
X008687Y013477D01*
X008739Y013506D01*
X008790Y013539D01*
X008839Y013575D01*
X008885Y013613D01*
X008929Y013655D01*
X009119Y013846D02*
X009161Y013890D01*
X009199Y013936D01*
X009235Y013985D01*
X009268Y014036D01*
X009297Y014088D01*
X009324Y014143D01*
X009347Y014198D01*
X009367Y014255D01*
X009383Y014314D01*
X009396Y014373D01*
X009405Y014432D01*
X009410Y014493D01*
X009412Y014553D01*
X009644Y014055D02*
X009686Y014099D01*
X009724Y014145D01*
X009760Y014194D01*
X009793Y014245D01*
X009822Y014297D01*
X009849Y014352D01*
X009872Y014407D01*
X009892Y014464D01*
X009908Y014523D01*
X009921Y014582D01*
X009930Y014641D01*
X009935Y014702D01*
X009937Y014762D01*
X012512Y015462D02*
X012495Y015574D01*
X012475Y015684D01*
X012451Y015795D01*
X012425Y015904D01*
X012394Y016012D01*
X012361Y016120D01*
X012324Y016226D01*
X012284Y016332D01*
X012241Y016436D01*
X012195Y016538D01*
X012145Y016639D01*
X012092Y016739D01*
X012037Y016837D01*
X008809Y013855D02*
X008765Y013813D01*
X008719Y013775D01*
X008670Y013739D01*
X008619Y013706D01*
X008567Y013677D01*
X008512Y013650D01*
X008457Y013627D01*
X008400Y013607D01*
X008341Y013591D01*
X008282Y013578D01*
X008223Y013569D01*
X008162Y013564D01*
X008102Y013562D01*
X008154Y013462D02*
X008214Y013464D01*
X008275Y013469D01*
X008334Y013478D01*
X008393Y013491D01*
X008451Y013507D01*
X008509Y013527D01*
X008564Y013550D01*
X008619Y013577D01*
X008671Y013606D01*
X008722Y013639D01*
X008771Y013675D01*
X008817Y013713D01*
X008861Y013755D01*
X007037Y013862D02*
X006967Y013864D01*
X006898Y013870D01*
X006829Y013879D01*
X006761Y013892D01*
X006693Y013909D01*
X006627Y013930D01*
X006562Y013954D01*
X006498Y013982D01*
X006436Y014013D01*
X006375Y014048D01*
X006317Y014086D01*
X006261Y014127D01*
X006207Y014171D01*
X006155Y014217D01*
X006107Y014267D01*
X006061Y014319D01*
X006018Y014374D01*
X005978Y014431D01*
X005941Y014490D01*
X005907Y014551D01*
X005877Y014614D01*
X005850Y014678D01*
X005827Y014743D01*
X005808Y014810D01*
X005792Y014878D01*
X005780Y014947D01*
X005771Y015016D01*
X005767Y015085D01*
X005766Y015155D01*
X005769Y015224D01*
X005776Y015293D01*
X005787Y015362D01*
X006587Y015437D02*
X006394Y016073D01*
X007378Y016792D02*
X007360Y016832D01*
X007339Y016870D01*
X007316Y016907D01*
X007290Y016942D01*
X007262Y016975D01*
X007231Y017006D01*
X007197Y017034D01*
X007162Y017060D01*
X007125Y017083D01*
X007679Y017358D02*
X007720Y017326D01*
X007760Y017291D01*
X007797Y017254D01*
X007831Y017214D01*
X007862Y017171D01*
X007891Y017127D01*
X007916Y017081D01*
X007937Y017033D01*
X006354Y016540D02*
X006367Y016483D01*
X006385Y016427D01*
X006406Y016372D01*
X006430Y016319D01*
X006458Y016268D01*
X006490Y016218D01*
X005412Y014888D02*
X005425Y014816D01*
X005442Y014745D01*
X005462Y014674D01*
X005485Y014605D01*
X005512Y014537D01*
X005543Y014471D01*
X005576Y014406D01*
X005613Y014343D01*
X005654Y014282D01*
X005697Y014223D01*
X005743Y014166D01*
X005792Y014112D01*
X005843Y014060D01*
X005898Y014011D01*
X005954Y013965D01*
X006013Y013922D01*
X006074Y013882D01*
X006137Y013844D01*
X006202Y013811D01*
X006268Y013780D01*
X006336Y013753D01*
X006405Y013729D01*
X006475Y013709D01*
X006547Y013693D01*
X006619Y013680D01*
X006691Y013670D01*
X006764Y013665D01*
X006837Y013663D01*
X006937Y013762D02*
X006867Y013763D01*
X006798Y013767D01*
X006729Y013776D01*
X006661Y013788D01*
X006593Y013803D01*
X006526Y013823D01*
X006461Y013846D01*
X006397Y013872D01*
X006334Y013902D01*
X006273Y013936D01*
X006214Y013972D01*
X006157Y014012D01*
X006103Y014055D01*
X006050Y014101D01*
X006001Y014150D01*
X005954Y014201D01*
X005910Y014255D01*
X005869Y014311D01*
X005831Y014369D01*
X005797Y014430D01*
X005765Y014492D01*
X005738Y014555D01*
X005713Y014620D01*
X005693Y014687D01*
X005676Y014754D01*
X005662Y014822D01*
X005653Y014891D01*
X005647Y014960D01*
X005645Y015030D01*
X005647Y015099D01*
X005652Y015168D01*
X005662Y015237D01*
X004513Y013238D02*
X004656Y013194D01*
X004801Y013155D01*
X004947Y013118D01*
X005094Y013086D01*
X005241Y013057D01*
X005390Y013032D01*
X005538Y013011D01*
X005688Y012993D01*
X005837Y012979D01*
X005987Y012969D01*
X006137Y012963D01*
X006643Y010012D02*
X006614Y010010D01*
X006586Y010006D01*
X006558Y009998D01*
X006532Y009987D01*
X006507Y009973D01*
X006483Y009956D01*
X006462Y009937D01*
X006887Y009787D02*
X006908Y009806D01*
X006932Y009823D01*
X006957Y009837D01*
X006983Y009848D01*
X007011Y009856D01*
X007039Y009860D01*
X007068Y009862D01*
X007044Y010387D02*
X007104Y010385D01*
X007165Y010380D01*
X007224Y010371D01*
X007283Y010358D01*
X007342Y010342D01*
X007399Y010322D01*
X007454Y010299D01*
X007509Y010272D01*
X007561Y010243D01*
X007612Y010210D01*
X007661Y010174D01*
X007707Y010136D01*
X007751Y010094D01*
X007282Y009307D02*
X007237Y009262D01*
X007282Y009308D02*
X007294Y009318D01*
X007308Y009327D01*
X007323Y009333D01*
X007339Y009337D01*
X007355Y009338D01*
X006993Y009487D02*
X006964Y009485D01*
X006936Y009481D01*
X006908Y009473D01*
X006882Y009462D01*
X006857Y009448D01*
X006833Y009431D01*
X006812Y009412D01*
X007392Y009487D02*
X007452Y009485D01*
X007513Y009480D01*
X007572Y009471D01*
X007631Y009458D01*
X007690Y009442D01*
X007747Y009422D01*
X007802Y009399D01*
X007857Y009372D01*
X007909Y009343D01*
X007960Y009310D01*
X008009Y009274D01*
X008055Y009236D01*
X008099Y009194D01*
X008019Y008710D02*
X007994Y008734D01*
X007966Y008754D01*
X007937Y008772D01*
X007906Y008786D01*
X007874Y008798D01*
X007840Y008806D01*
X007806Y008811D01*
X007772Y008813D01*
X007714Y008963D02*
X007759Y008961D01*
X007804Y008956D01*
X007848Y008947D01*
X007891Y008935D01*
X007934Y008919D01*
X007975Y008900D01*
X008014Y008878D01*
X008051Y008853D01*
X008087Y008825D01*
X008120Y008795D01*
X008219Y008887D02*
X008261Y008843D01*
X008299Y008797D01*
X008335Y008748D01*
X008368Y008697D01*
X008397Y008645D01*
X008424Y008590D01*
X008447Y008535D01*
X008467Y008477D01*
X008483Y008419D01*
X008496Y008360D01*
X008505Y008301D01*
X008510Y008240D01*
X008512Y008180D01*
X008412Y008087D02*
X008410Y008147D01*
X008405Y008208D01*
X008396Y008267D01*
X008383Y008326D01*
X008367Y008385D01*
X008347Y008442D01*
X008324Y008497D01*
X008297Y008552D01*
X008268Y008604D01*
X008235Y008655D01*
X008199Y008704D01*
X008161Y008750D01*
X008119Y008794D01*
X008062Y009044D02*
X008018Y009086D01*
X007972Y009124D01*
X007923Y009160D01*
X007872Y009193D01*
X007820Y009222D01*
X007765Y009249D01*
X007710Y009272D01*
X007653Y009292D01*
X007594Y009308D01*
X007535Y009321D01*
X007476Y009330D01*
X007415Y009335D01*
X007355Y009337D01*
X005862Y007626D02*
X005615Y007448D01*
X005836Y007217D02*
X005617Y006601D01*
X005242Y006845D02*
X005243Y006848D01*
X005560Y006493D02*
X005535Y006464D01*
X005508Y006436D01*
X005478Y006412D01*
X005446Y006390D01*
X005412Y006372D01*
X005377Y006357D01*
X005340Y006345D01*
X005561Y006494D02*
X005578Y006519D01*
X005593Y006545D01*
X005607Y006573D01*
X005618Y006601D01*
X006172Y006437D02*
X006165Y006407D01*
X006155Y006377D01*
X006141Y006349D01*
X006125Y006322D01*
X006305Y006211D02*
X006322Y006231D01*
X006337Y006253D01*
X006425Y005626D02*
X006395Y005592D01*
X006362Y005561D01*
X006326Y005533D01*
X006288Y005508D01*
X006248Y005486D01*
X006207Y005468D01*
X006164Y005453D01*
X006120Y005441D01*
X006076Y005433D01*
X006014Y006955D02*
X006170Y007080D01*
X005837Y012663D02*
X005696Y012659D01*
X005556Y012651D01*
X005415Y012639D01*
X005275Y012623D01*
X005135Y012604D01*
X004996Y012581D01*
X004858Y012555D01*
X004720Y012525D01*
X004583Y012491D01*
X004447Y012454D01*
X004312Y012413D01*
X004832Y008372D02*
X004820Y008337D01*
X004805Y008303D01*
X005177Y006975D02*
X005165Y006954D01*
X005152Y006936D01*
X005135Y006919D01*
X005117Y006904D01*
X005097Y006893D01*
X005076Y006883D01*
X005486Y007300D02*
X005506Y007334D01*
X005529Y007366D01*
X005555Y007396D01*
X005584Y007424D01*
X005615Y007448D01*
X009213Y005512D02*
X009276Y005400D01*
X009336Y005285D01*
X009392Y005169D01*
X009444Y005052D01*
X009493Y004933D01*
X009538Y004812D01*
X015688Y008862D02*
X015838Y008856D01*
X015988Y008846D01*
X016137Y008832D01*
X016287Y008814D01*
X016435Y008793D01*
X016584Y008768D01*
X016731Y008739D01*
X016878Y008707D01*
X017024Y008670D01*
X017169Y008631D01*
X017312Y008587D01*
X017387Y008837D02*
X017160Y008870D01*
X016932Y008898D01*
X016704Y008921D01*
X016475Y008939D01*
X016246Y008952D01*
X016016Y008959D01*
X015787Y008962D01*
X015887Y009063D02*
X016662Y009054D01*
X017437Y009026D01*
X012612Y016312D02*
X012549Y016424D01*
X012489Y016539D01*
X012433Y016655D01*
X012381Y016772D01*
X012332Y016891D01*
X012287Y017012D01*
X011937Y016737D02*
X011879Y016866D01*
X011824Y016997D01*
X011772Y017129D01*
X011723Y017262D01*
X011678Y017396D01*
X011636Y017531D01*
X011597Y017667D01*
X006037Y012863D02*
X005808Y012866D01*
X005578Y012873D01*
X005349Y012886D01*
X005120Y012904D01*
X004892Y012927D01*
X004664Y012955D01*
X004437Y012988D01*
X004387Y012799D02*
X005162Y012771D01*
X005937Y012762D01*
D14*
X004326Y011378D03*
X007563Y014805D03*
X011140Y017459D03*
X014750Y014164D03*
X017498Y010447D03*
X014262Y007020D03*
X010684Y004366D03*
X007075Y007660D03*
D15*
X012427Y004607D03*
X012616Y004593D03*
M02*
