G75*
%MOIN*%
%OFA0B0*%
%FSLAX24Y24*%
%IPPOS*%
%LPD*%
%AMOC8*
5,1,8,0,0,1.08239X$1,22.5*
%
%ADD10C,0.0210*%
%ADD11C,0.0295*%
%ADD12C,0.0139*%
%ADD13C,0.0120*%
%ADD14C,0.0178*%
%ADD15C,0.0140*%
%ADD16C,0.0100*%
D10*
X004575Y004994D03*
X004467Y005262D03*
X004871Y005095D03*
X004980Y005366D03*
X004467Y005555D03*
X004598Y005815D03*
X004078Y005755D03*
X004102Y006046D03*
X004254Y006295D03*
X003731Y006279D03*
X003793Y005996D03*
X003780Y006567D03*
X003953Y006802D03*
X003503Y007112D03*
X003694Y007332D03*
X003272Y007679D03*
X003481Y007882D03*
X003089Y008263D03*
X003315Y008448D03*
X002956Y008861D03*
X003196Y009026D03*
X002815Y008605D03*
X002781Y008317D03*
X002970Y007996D03*
X002960Y007707D03*
X003175Y007403D03*
X003190Y007114D03*
X003430Y006829D03*
X003468Y006542D03*
X004163Y005478D03*
X004896Y004804D03*
X005026Y004545D03*
X005313Y004671D03*
X005398Y004950D03*
X005850Y004570D03*
X005788Y004286D03*
X005513Y004136D03*
X005361Y004383D03*
X005861Y004002D03*
X006033Y003769D03*
X006294Y003941D03*
X006332Y004230D03*
X006390Y003665D03*
X006581Y003447D03*
X006827Y003640D03*
X006946Y003373D03*
X007154Y003172D03*
X007384Y003385D03*
X007524Y003129D03*
X007749Y002946D03*
X007960Y003177D03*
X008121Y002934D03*
X008360Y002770D03*
X008551Y003019D03*
X008732Y002789D03*
X008984Y002646D03*
X009153Y002910D03*
X009070Y003189D03*
X009353Y002697D03*
X009616Y002575D03*
X010684Y002575D03*
X010947Y002697D03*
X011147Y002910D03*
X011230Y003189D03*
X011568Y002789D03*
X011316Y002646D03*
X011749Y003019D03*
X011940Y002770D03*
X012179Y002934D03*
X012340Y003177D03*
X012551Y002946D03*
X012776Y003129D03*
X012916Y003385D03*
X013146Y003172D03*
X013354Y003373D03*
X013473Y003640D03*
X013719Y003447D03*
X013910Y003665D03*
X014006Y003941D03*
X013968Y004230D03*
X014267Y003769D03*
X014439Y004002D03*
X014787Y004136D03*
X014939Y004383D03*
X014987Y004671D03*
X014902Y004950D03*
X015404Y004804D03*
X015274Y004545D03*
X015725Y004994D03*
X015833Y005262D03*
X015429Y005095D03*
X015320Y005366D03*
X015833Y005555D03*
X015702Y005815D03*
X016222Y005755D03*
X016198Y006046D03*
X016045Y006295D03*
X016569Y006279D03*
X016507Y005996D03*
X016520Y006567D03*
X016347Y006802D03*
X016797Y007112D03*
X016606Y007332D03*
X017028Y007679D03*
X016819Y007882D03*
X017211Y008263D03*
X016985Y008448D03*
X017344Y008861D03*
X017104Y009026D03*
X017485Y008605D03*
X017519Y008317D03*
X017330Y007996D03*
X017340Y007707D03*
X017125Y007403D03*
X017110Y007114D03*
X016870Y006829D03*
X016832Y006542D03*
X016137Y005478D03*
X014450Y004570D03*
X014512Y004286D03*
X013459Y003931D03*
X012927Y003676D03*
X012376Y003467D03*
X011809Y003304D03*
X008491Y003304D03*
X007924Y003467D03*
X007373Y003676D03*
X006841Y003931D03*
X003196Y011274D03*
X002956Y011439D03*
X002815Y011695D03*
X002781Y011983D03*
X002970Y012304D03*
X003089Y012037D03*
X003315Y011852D03*
X003481Y012418D03*
X003272Y012621D03*
X003175Y012897D03*
X003190Y013186D03*
X003503Y013188D03*
X003694Y012968D03*
X003430Y013471D03*
X003468Y013758D03*
X003780Y013733D03*
X003953Y013498D03*
X004254Y014005D03*
X004102Y014254D03*
X004078Y014545D03*
X004163Y014822D03*
X004467Y014745D03*
X004598Y014485D03*
X004980Y014934D03*
X004871Y015205D03*
X004575Y015306D03*
X004467Y015038D03*
X004896Y015496D03*
X005026Y015755D03*
X005313Y015629D03*
X005398Y015350D03*
X005850Y015730D03*
X005788Y016014D03*
X005513Y016164D03*
X005361Y015917D03*
X005861Y016298D03*
X006033Y016531D03*
X006294Y016359D03*
X006332Y016070D03*
X006390Y016635D03*
X006581Y016853D03*
X006827Y016660D03*
X006946Y016927D03*
X007154Y017128D03*
X007384Y016915D03*
X007524Y017171D03*
X007749Y017354D03*
X007960Y017123D03*
X008121Y017366D03*
X008360Y017530D03*
X008551Y017281D03*
X008732Y017511D03*
X008984Y017654D03*
X009153Y017390D03*
X009070Y017111D03*
X009353Y017603D03*
X009616Y017725D03*
X010684Y017725D03*
X010947Y017603D03*
X011147Y017390D03*
X011230Y017111D03*
X011568Y017511D03*
X011316Y017654D03*
X011749Y017281D03*
X011940Y017530D03*
X012179Y017366D03*
X012340Y017123D03*
X012551Y017354D03*
X012776Y017171D03*
X012916Y016915D03*
X013146Y017128D03*
X013354Y016927D03*
X013473Y016660D03*
X013719Y016853D03*
X013910Y016635D03*
X014006Y016359D03*
X013968Y016070D03*
X014267Y016531D03*
X014439Y016298D03*
X014787Y016164D03*
X014939Y015917D03*
X014987Y015629D03*
X014902Y015350D03*
X015404Y015496D03*
X015274Y015755D03*
X015725Y015306D03*
X015833Y015038D03*
X015429Y015205D03*
X015320Y014934D03*
X015833Y014745D03*
X015702Y014485D03*
X016222Y014545D03*
X016198Y014254D03*
X016045Y014005D03*
X016569Y014021D03*
X016507Y014304D03*
X016520Y013733D03*
X016347Y013498D03*
X016797Y013188D03*
X016606Y012968D03*
X017028Y012621D03*
X016819Y012418D03*
X017211Y012037D03*
X016985Y011852D03*
X017344Y011439D03*
X017104Y011274D03*
X017485Y011695D03*
X017519Y011983D03*
X017330Y012304D03*
X017340Y012593D03*
X017125Y012897D03*
X017110Y013186D03*
X016870Y013471D03*
X016832Y013758D03*
X016137Y014822D03*
X014450Y015730D03*
X014512Y016014D03*
X013459Y016369D03*
X012927Y016624D03*
X012376Y016833D03*
X011809Y016996D03*
X008491Y016996D03*
X007924Y016833D03*
X007373Y016624D03*
X006841Y016369D03*
X003793Y014304D03*
X003731Y014021D03*
X002960Y012593D03*
D11*
X002650Y010950D03*
X002650Y010450D03*
X002650Y009950D03*
X009950Y002550D03*
X010350Y002550D03*
X017650Y009350D03*
X017650Y009850D03*
X017650Y010350D03*
X010350Y017750D03*
X009950Y017750D03*
D12*
X009850Y017250D03*
X009675Y017175D03*
X009500Y017125D03*
X009361Y017013D03*
X008750Y016800D03*
X008800Y016550D03*
X008635Y016455D03*
X008447Y016470D03*
X008266Y016478D03*
X008275Y016200D03*
X008100Y016125D03*
X007925Y016075D03*
X007721Y016114D03*
X007750Y015850D03*
X007575Y015775D03*
X007400Y015725D03*
X007204Y015786D03*
X007225Y015500D03*
X007050Y015425D03*
X006875Y015375D03*
X006679Y015436D03*
X006700Y015150D03*
X006525Y015075D03*
X006350Y015025D03*
X006154Y015086D03*
X006175Y014800D03*
X006000Y014725D03*
X005825Y014675D03*
X005629Y014736D03*
X005550Y014350D03*
X006125Y013725D03*
X006325Y013725D03*
X006525Y013725D03*
X006725Y013725D03*
X007250Y014050D03*
X007050Y014550D03*
X007750Y014950D03*
X007850Y014450D03*
X008125Y013900D03*
X008050Y013700D03*
X007975Y013475D03*
X007900Y013250D03*
X007675Y013500D03*
X007550Y013325D03*
X007400Y013200D03*
X007200Y013225D03*
X008425Y013600D03*
X008500Y013825D03*
X008575Y014050D03*
X008650Y014250D03*
X009025Y014175D03*
X009100Y014400D03*
X009175Y014600D03*
X009475Y014300D03*
X009550Y014525D03*
X009625Y014750D03*
X009700Y014950D03*
X010075Y014875D03*
X010150Y015100D03*
X010225Y015300D03*
X010151Y015952D03*
X010203Y016163D03*
X010414Y016149D03*
X010650Y016450D03*
X009950Y016550D03*
X009661Y016403D03*
X009604Y016196D03*
X009373Y016229D03*
X009550Y015650D03*
X009937Y015992D03*
X009050Y015250D03*
X008850Y015750D03*
X008250Y015350D03*
X008450Y014850D03*
X008950Y013950D03*
X010000Y014650D03*
X010950Y014350D03*
X010850Y013950D03*
X010750Y013550D03*
X010650Y013050D03*
X010550Y012750D03*
X009950Y012650D03*
X009550Y012250D03*
X009950Y011950D03*
X009550Y011550D03*
X009150Y011850D03*
X008850Y011150D03*
X008350Y011550D03*
X007950Y011350D03*
X007650Y011550D03*
X007150Y011550D03*
X006650Y011550D03*
X006350Y011050D03*
X006650Y010750D03*
X007150Y010850D03*
X007650Y010850D03*
X008150Y010850D03*
X007950Y010250D03*
X007650Y009850D03*
X007350Y010250D03*
X008150Y009350D03*
X008750Y009250D03*
X008750Y008750D03*
X009250Y009050D03*
X009650Y009450D03*
X009250Y009850D03*
X008750Y009950D03*
X008450Y010050D03*
X008950Y010550D03*
X009350Y010450D03*
X009350Y011050D03*
X009950Y010950D03*
X010650Y010850D03*
X011050Y011250D03*
X011550Y011050D03*
X011550Y011550D03*
X012150Y010950D03*
X012650Y010450D03*
X012950Y010050D03*
X012350Y010050D03*
X011850Y010250D03*
X011550Y010350D03*
X011050Y010450D03*
X010950Y009850D03*
X011350Y009750D03*
X011450Y009150D03*
X011950Y008750D03*
X012350Y008950D03*
X012650Y008750D03*
X013150Y008750D03*
X013650Y008750D03*
X013950Y009250D03*
X013650Y009550D03*
X013150Y009450D03*
X012650Y009450D03*
X012150Y009450D03*
X011150Y008450D03*
X010750Y008750D03*
X010950Y009250D03*
X010350Y009350D03*
X009750Y008750D03*
X010350Y008350D03*
X010750Y008050D03*
X010350Y007650D03*
X009750Y007550D03*
X009650Y007250D03*
X009550Y006750D03*
X009450Y006350D03*
X009350Y005950D03*
X008950Y006150D03*
X008950Y006650D03*
X009050Y007150D03*
X008950Y007550D03*
X008950Y008050D03*
X007050Y007900D03*
X006825Y007975D03*
X006600Y008050D03*
X006400Y008125D03*
X006475Y008500D03*
X006250Y008575D03*
X006050Y008650D03*
X006125Y009025D03*
X005900Y009100D03*
X005700Y009175D03*
X006000Y009475D03*
X005775Y009550D03*
X005550Y009625D03*
X005350Y009700D03*
X005425Y010075D03*
X005200Y010150D03*
X005005Y010200D03*
X004453Y010034D03*
X004285Y010109D03*
X004282Y010300D03*
X004068Y010358D03*
X003850Y010550D03*
X003750Y009950D03*
X004037Y009736D03*
X004017Y009541D03*
X004246Y009515D03*
X004185Y009293D03*
X004428Y009245D03*
X004366Y009023D03*
X004595Y008997D03*
X004534Y008774D03*
X004777Y008727D03*
X004716Y008505D03*
X004945Y008479D03*
X004884Y008256D03*
X005127Y008209D03*
X005065Y007987D03*
X005268Y007731D03*
X005294Y007960D03*
X005550Y007550D03*
X005750Y007150D03*
X006050Y006650D03*
X006575Y006725D03*
X006575Y006525D03*
X006575Y006325D03*
X006554Y006111D03*
X005798Y005827D03*
X005631Y005896D03*
X005465Y005964D03*
X005298Y006033D03*
X005407Y006318D03*
X005240Y006386D03*
X005074Y006455D03*
X004907Y006523D03*
X005099Y006864D03*
X004912Y006918D03*
X004724Y006973D03*
X004537Y007027D03*
X005750Y005350D03*
X007075Y007200D03*
X007100Y007400D03*
X006975Y007550D03*
X006775Y007650D03*
X006700Y008425D03*
X006350Y008950D03*
X005650Y010000D03*
X005750Y010850D03*
X006050Y011450D03*
X005450Y011550D03*
X004850Y011450D03*
X004550Y011050D03*
X004250Y011350D03*
X003850Y011250D03*
X003072Y009869D03*
X002942Y009570D03*
X002860Y009334D03*
X003296Y009447D03*
X008950Y005650D03*
X009250Y004550D03*
X009886Y004151D03*
X010097Y004137D03*
X010149Y004348D03*
X010363Y004308D03*
X010696Y004104D03*
X010639Y003897D03*
X010927Y004071D03*
X010750Y004650D03*
X011250Y005050D03*
X011450Y004550D03*
X012050Y004950D03*
X011850Y005450D03*
X011650Y006050D03*
X011725Y006250D03*
X011800Y006475D03*
X012175Y006400D03*
X012250Y006600D03*
X012325Y006825D03*
X012400Y007050D03*
X012625Y006800D03*
X012750Y006975D03*
X012900Y007100D03*
X013100Y007075D03*
X013575Y006575D03*
X013775Y006575D03*
X013975Y006575D03*
X014175Y006575D03*
X014750Y005950D03*
X014671Y005564D03*
X014475Y005625D03*
X014300Y005575D03*
X014125Y005500D03*
X013950Y005275D03*
X013775Y005225D03*
X013600Y005150D03*
X013425Y004925D03*
X013250Y004875D03*
X013075Y004800D03*
X012900Y004575D03*
X012725Y004525D03*
X012550Y004450D03*
X012579Y004186D03*
X012375Y004225D03*
X012200Y004175D03*
X012025Y004100D03*
X012034Y003822D03*
X011500Y003750D03*
X011550Y003500D03*
X010939Y003287D03*
X010800Y003175D03*
X010625Y003125D03*
X010450Y003050D03*
X010350Y003750D03*
X009650Y003850D03*
X010075Y005000D03*
X010150Y005200D03*
X010225Y005425D03*
X010300Y005650D03*
X010675Y005550D03*
X010600Y005350D03*
X010750Y005775D03*
X010825Y006000D03*
X011125Y005700D03*
X011200Y005900D03*
X011275Y006125D03*
X011350Y006350D03*
X011875Y006700D03*
X012450Y005850D03*
X012550Y005350D03*
X013250Y005750D03*
X013050Y006250D03*
X014146Y005214D03*
X013621Y004864D03*
X013096Y004514D03*
X014250Y008850D03*
X014850Y008750D03*
X015450Y008850D03*
X015750Y009250D03*
X016050Y008950D03*
X016450Y009050D03*
X016450Y009750D03*
X016232Y009942D03*
X016018Y009999D03*
X016015Y010191D03*
X015847Y010266D03*
X016263Y010564D03*
X016283Y010759D03*
X016054Y010785D03*
X016115Y011007D03*
X015872Y011055D03*
X015934Y011277D03*
X015705Y011303D03*
X015766Y011526D03*
X015523Y011573D03*
X015584Y011795D03*
X015355Y011821D03*
X015416Y012044D03*
X015173Y012091D03*
X015235Y012313D03*
X015032Y012569D03*
X015006Y012340D03*
X014750Y012750D03*
X014550Y013150D03*
X014250Y013650D03*
X013725Y013575D03*
X013725Y013775D03*
X013725Y013975D03*
X013746Y014189D03*
X014502Y014473D03*
X014669Y014404D03*
X014835Y014336D03*
X015002Y014267D03*
X014893Y013982D03*
X015060Y013914D03*
X015226Y013845D03*
X015393Y013777D03*
X015201Y013436D03*
X015388Y013382D03*
X015576Y013327D03*
X015763Y013273D03*
X014550Y014950D03*
X013225Y013100D03*
X013200Y012900D03*
X013325Y012750D03*
X013525Y012650D03*
X013250Y012400D03*
X013475Y012325D03*
X013700Y012250D03*
X013900Y012175D03*
X013825Y011800D03*
X014050Y011725D03*
X014250Y011650D03*
X014175Y011275D03*
X014400Y011200D03*
X014600Y011125D03*
X014300Y010825D03*
X014525Y010750D03*
X014750Y010675D03*
X014950Y010600D03*
X014875Y010225D03*
X015100Y010150D03*
X015305Y010100D03*
X014650Y010300D03*
X014550Y009450D03*
X013950Y011350D03*
X013600Y011875D03*
X011350Y012250D03*
X011350Y012750D03*
X011250Y013150D03*
X011350Y013650D03*
X011350Y014150D03*
X011350Y014650D03*
X011050Y015750D03*
X010550Y011550D03*
X016550Y010350D03*
X017004Y010853D03*
X017358Y010730D03*
X017228Y010431D03*
X017440Y010966D03*
D13*
X016306Y010322D02*
X015973Y010459D01*
X013988Y013402D01*
X016306Y010322D02*
X016736Y009685D01*
X013499Y006257D02*
X010598Y004300D01*
X010488Y004106D01*
X009949Y003742D01*
X009922Y003603D01*
X006312Y006898D02*
X004327Y009841D01*
X003994Y009978D01*
X003564Y010615D01*
X006801Y014043D02*
X009702Y016000D01*
X009812Y016194D01*
X010351Y016558D01*
X010378Y016697D01*
D14*
X010378Y016697D03*
X013988Y013402D03*
X016736Y009685D03*
X013499Y006257D03*
X009922Y003603D03*
X006312Y006898D03*
X003564Y010615D03*
X006801Y014043D03*
D15*
X011665Y003845D03*
X011853Y003830D03*
D16*
X011752Y003706D02*
X011787Y003670D01*
X011920Y003670D01*
X011940Y003690D01*
X011968Y003663D01*
X012100Y003663D01*
X012193Y003756D01*
X012193Y003888D01*
X012116Y003965D01*
X012166Y004016D01*
X012266Y004016D01*
X012316Y004066D01*
X012441Y004066D01*
X012458Y004082D01*
X012513Y004027D01*
X012645Y004027D01*
X012739Y004120D01*
X012739Y004252D01*
X012658Y004333D01*
X012691Y004366D01*
X012791Y004366D01*
X012841Y004416D01*
X012966Y004416D01*
X012967Y004417D01*
X013030Y004355D01*
X013162Y004355D01*
X013255Y004448D01*
X013255Y004580D01*
X013168Y004667D01*
X013216Y004716D01*
X013316Y004716D01*
X013366Y004766D01*
X013491Y004766D01*
X013492Y004767D01*
X013555Y004705D01*
X013687Y004705D01*
X013780Y004798D01*
X013780Y004930D01*
X013693Y005017D01*
X013741Y005066D01*
X013841Y005066D01*
X013891Y005116D01*
X014016Y005116D01*
X014017Y005117D01*
X014080Y005055D01*
X014212Y005055D01*
X014305Y005148D01*
X014305Y005280D01*
X014218Y005367D01*
X014266Y005416D01*
X014366Y005416D01*
X014416Y005466D01*
X014541Y005466D01*
X014542Y005467D01*
X014605Y005405D01*
X014737Y005405D01*
X014830Y005498D01*
X014830Y005630D01*
X014737Y005723D01*
X014605Y005723D01*
X014603Y005722D01*
X014541Y005784D01*
X014409Y005784D01*
X014359Y005734D01*
X014234Y005734D01*
X014159Y005659D01*
X014059Y005659D01*
X013966Y005566D01*
X013966Y005434D01*
X013884Y005434D01*
X013834Y005384D01*
X013709Y005384D01*
X013634Y005309D01*
X013534Y005309D01*
X013441Y005216D01*
X013441Y005084D01*
X013359Y005084D01*
X013309Y005034D01*
X013184Y005034D01*
X013109Y004959D01*
X013009Y004959D01*
X012916Y004866D01*
X012916Y004734D01*
X012834Y004734D01*
X012784Y004684D01*
X012659Y004684D01*
X012584Y004609D01*
X012484Y004609D01*
X012391Y004516D01*
X012391Y004384D01*
X012309Y004384D01*
X012259Y004334D01*
X012134Y004334D01*
X012059Y004259D01*
X011959Y004259D01*
X011866Y004166D01*
X011866Y004034D01*
X011909Y003990D01*
X011787Y003990D01*
X011766Y003970D01*
X011731Y004005D01*
X011599Y004005D01*
X011505Y003911D01*
X011505Y003909D01*
X011434Y003909D01*
X011341Y003816D01*
X011341Y003684D01*
X011425Y003600D01*
X011391Y003566D01*
X011391Y003434D01*
X011484Y003341D01*
X011614Y003341D01*
X011614Y003223D01*
X011646Y003191D01*
X011554Y003099D01*
X011554Y002984D01*
X011487Y002984D01*
X011373Y002870D01*
X011373Y002841D01*
X011342Y002841D01*
X011342Y002991D01*
X011325Y003008D01*
X011425Y003108D01*
X011425Y003270D01*
X011311Y003384D01*
X011149Y003384D01*
X011099Y003334D01*
X011099Y003353D01*
X011005Y003446D01*
X010873Y003446D01*
X010780Y003353D01*
X010780Y003334D01*
X010734Y003334D01*
X010684Y003284D01*
X010559Y003284D01*
X010484Y003209D01*
X010384Y003209D01*
X010291Y003116D01*
X010291Y002984D01*
X010384Y002891D01*
X010516Y002891D01*
X010591Y002966D01*
X010691Y002966D01*
X010741Y003016D01*
X010866Y003016D01*
X010959Y003109D01*
X010959Y003128D01*
X011005Y003128D01*
X011035Y003157D01*
X011035Y003108D01*
X011052Y003091D01*
X010952Y002991D01*
X010952Y002892D01*
X010866Y002892D01*
X010752Y002777D01*
X010752Y002770D01*
X010603Y002770D01*
X010535Y002701D01*
X010448Y002788D01*
X010252Y002788D01*
X010112Y002648D01*
X010112Y002463D01*
X009791Y002475D01*
X009811Y002494D01*
X009811Y002656D01*
X009697Y002770D01*
X009548Y002770D01*
X009548Y002777D01*
X009434Y002892D01*
X009348Y002892D01*
X009348Y002991D01*
X009248Y003091D01*
X009265Y003108D01*
X009265Y003270D01*
X009151Y003384D01*
X008989Y003384D01*
X008875Y003270D01*
X008875Y003108D01*
X008975Y003008D01*
X008958Y002991D01*
X008958Y002841D01*
X008927Y002841D01*
X008927Y002870D01*
X008813Y002984D01*
X008746Y002984D01*
X008746Y003099D01*
X008654Y003191D01*
X008686Y003223D01*
X008686Y003385D01*
X008572Y003499D01*
X008411Y003499D01*
X008296Y003385D01*
X008296Y003223D01*
X008388Y003132D01*
X008356Y003099D01*
X008356Y002965D01*
X008316Y002965D01*
X008316Y003015D01*
X008202Y003129D01*
X008155Y003129D01*
X008155Y003258D01*
X008073Y003340D01*
X008119Y003386D01*
X008119Y003547D01*
X008005Y003662D01*
X007844Y003662D01*
X007729Y003547D01*
X007729Y003386D01*
X007811Y003305D01*
X007765Y003258D01*
X007765Y003141D01*
X007719Y003141D01*
X007719Y003210D01*
X007605Y003324D01*
X007579Y003324D01*
X007579Y003466D01*
X007509Y003536D01*
X007568Y003596D01*
X007568Y003757D01*
X007454Y003871D01*
X007292Y003871D01*
X007178Y003757D01*
X007178Y003596D01*
X007248Y003525D01*
X007189Y003466D01*
X007189Y003367D01*
X007141Y003367D01*
X007141Y003454D01*
X007027Y003568D01*
X007022Y003568D01*
X007022Y003721D01*
X006964Y003779D01*
X007036Y003851D01*
X007036Y004012D01*
X006922Y004126D01*
X006760Y004126D01*
X006646Y004012D01*
X006646Y003851D01*
X006704Y003793D01*
X006632Y003721D01*
X006632Y003642D01*
X006585Y003642D01*
X006585Y003746D01*
X006480Y003851D01*
X006489Y003860D01*
X006489Y004022D01*
X006445Y004067D01*
X006527Y004149D01*
X006527Y004311D01*
X006413Y004425D01*
X006251Y004425D01*
X006137Y004311D01*
X006137Y004149D01*
X006182Y004105D01*
X006099Y004022D01*
X006099Y003964D01*
X006056Y003964D01*
X006056Y004083D01*
X005959Y004180D01*
X005983Y004205D01*
X005983Y004366D01*
X005953Y004397D01*
X006045Y004490D01*
X006045Y004651D01*
X005931Y004765D01*
X005770Y004765D01*
X005655Y004651D01*
X005655Y004490D01*
X005686Y004459D01*
X005593Y004366D01*
X005593Y004331D01*
X005556Y004331D01*
X005556Y004464D01*
X005469Y004551D01*
X005508Y004590D01*
X005508Y004752D01*
X005492Y004768D01*
X005593Y004869D01*
X005593Y005030D01*
X005479Y005145D01*
X005318Y005145D01*
X005203Y005030D01*
X005203Y004869D01*
X005219Y004853D01*
X005118Y004752D01*
X005118Y004730D01*
X005107Y004740D01*
X005091Y004740D01*
X005091Y004885D01*
X005014Y004962D01*
X005066Y005014D01*
X005066Y005176D01*
X005175Y005285D01*
X005175Y005446D01*
X005061Y005561D01*
X004899Y005561D01*
X004785Y005446D01*
X004785Y005285D01*
X004785Y005285D01*
X004676Y005176D01*
X004676Y005168D01*
X004662Y005183D01*
X004662Y005343D01*
X004596Y005408D01*
X004662Y005474D01*
X004662Y005620D01*
X004679Y005620D01*
X004793Y005734D01*
X004793Y005896D01*
X004679Y006010D01*
X004517Y006010D01*
X004403Y005896D01*
X004403Y005750D01*
X004386Y005750D01*
X004277Y005640D01*
X004258Y005660D01*
X004273Y005674D01*
X004273Y005836D01*
X004220Y005888D01*
X004297Y005965D01*
X004297Y006100D01*
X004335Y006100D01*
X004449Y006214D01*
X004449Y006376D01*
X004335Y006490D01*
X004174Y006490D01*
X004059Y006376D01*
X004059Y006241D01*
X004022Y006241D01*
X003923Y006142D01*
X003897Y006168D01*
X003926Y006198D01*
X003926Y006359D01*
X003887Y006398D01*
X003975Y006486D01*
X003975Y006607D01*
X004033Y006607D01*
X004148Y006721D01*
X004148Y006882D01*
X004033Y006997D01*
X003872Y006997D01*
X003758Y006882D01*
X003758Y006762D01*
X003699Y006762D01*
X003612Y006674D01*
X003581Y006705D01*
X003625Y006748D01*
X003625Y006910D01*
X003600Y006934D01*
X003698Y007032D01*
X003698Y007137D01*
X003775Y007137D01*
X003889Y007251D01*
X003889Y007413D01*
X003775Y007527D01*
X003613Y007527D01*
X003499Y007413D01*
X003499Y007307D01*
X003422Y007307D01*
X003347Y007232D01*
X003314Y007266D01*
X003370Y007322D01*
X003370Y007484D01*
X003361Y007493D01*
X003467Y007598D01*
X003467Y007687D01*
X003562Y007687D01*
X003676Y007801D01*
X003676Y007963D01*
X003562Y008077D01*
X003400Y008077D01*
X003286Y007963D01*
X003286Y007874D01*
X003191Y007874D01*
X003130Y007813D01*
X003096Y007847D01*
X003165Y007916D01*
X003165Y008068D01*
X003170Y008068D01*
X003284Y008183D01*
X003284Y008253D01*
X003395Y008253D01*
X003510Y008367D01*
X003510Y008529D01*
X003395Y008643D01*
X003234Y008643D01*
X003120Y008529D01*
X003120Y008458D01*
X003008Y008458D01*
X002962Y008412D01*
X002930Y008444D01*
X003010Y008524D01*
X003010Y008666D01*
X003037Y008666D01*
X003151Y008780D01*
X003151Y008831D01*
X003277Y008831D01*
X003391Y008945D01*
X003391Y009107D01*
X003277Y009221D01*
X003115Y009221D01*
X003001Y009107D01*
X003001Y009056D01*
X002875Y009056D01*
X002761Y008942D01*
X002761Y008800D01*
X002734Y008800D01*
X002620Y008686D01*
X002620Y008536D01*
X002616Y008549D01*
X002467Y009613D01*
X002467Y010297D01*
X002552Y010212D01*
X002748Y010212D01*
X002888Y010352D01*
X002888Y010548D01*
X002748Y010688D01*
X002552Y010688D01*
X002467Y010603D01*
X002467Y010687D01*
X002616Y011751D01*
X002620Y011764D01*
X002620Y011614D01*
X002734Y011500D01*
X002761Y011500D01*
X002761Y011358D01*
X002875Y011244D01*
X003001Y011244D01*
X003001Y011193D01*
X003115Y011079D01*
X003277Y011079D01*
X003391Y011193D01*
X003391Y011355D01*
X003277Y011469D01*
X003151Y011469D01*
X003151Y011520D01*
X003037Y011634D01*
X003010Y011634D01*
X003010Y011776D01*
X002930Y011856D01*
X002962Y011888D01*
X003008Y011842D01*
X003120Y011842D01*
X003120Y011771D01*
X003234Y011657D01*
X003395Y011657D01*
X003510Y011771D01*
X003510Y011933D01*
X003395Y012047D01*
X003284Y012047D01*
X003284Y012117D01*
X003170Y012232D01*
X003165Y012232D01*
X003165Y012384D01*
X003096Y012453D01*
X003130Y012487D01*
X003191Y012426D01*
X003286Y012426D01*
X003286Y012337D01*
X003400Y012223D01*
X003562Y012223D01*
X003676Y012337D01*
X003676Y012499D01*
X003562Y012613D01*
X003467Y012613D01*
X003467Y012702D01*
X003361Y012807D01*
X003370Y012816D01*
X003370Y012978D01*
X003314Y013034D01*
X003347Y013068D01*
X003422Y012993D01*
X003499Y012993D01*
X003499Y012887D01*
X003613Y012773D01*
X003775Y012773D01*
X003889Y012887D01*
X003889Y013049D01*
X003775Y013163D01*
X003698Y013163D01*
X003698Y013268D01*
X003600Y013366D01*
X003625Y013390D01*
X003625Y013552D01*
X003581Y013595D01*
X003612Y013626D01*
X003699Y013538D01*
X003758Y013538D01*
X003758Y013418D01*
X003872Y013303D01*
X004033Y013303D01*
X004148Y013418D01*
X004148Y013579D01*
X004033Y013693D01*
X003975Y013693D01*
X003975Y013814D01*
X003887Y013902D01*
X003926Y013941D01*
X003926Y014102D01*
X003897Y014132D01*
X003923Y014158D01*
X004022Y014059D01*
X004059Y014059D01*
X004059Y013924D01*
X004174Y013810D01*
X004335Y013810D01*
X004449Y013924D01*
X004449Y014086D01*
X004335Y014200D01*
X004297Y014200D01*
X004297Y014335D01*
X004220Y014412D01*
X004273Y014464D01*
X004273Y014626D01*
X004258Y014640D01*
X004277Y014660D01*
X004386Y014550D01*
X004403Y014550D01*
X004403Y014404D01*
X004517Y014290D01*
X004679Y014290D01*
X004793Y014404D01*
X004793Y014566D01*
X004679Y014680D01*
X004662Y014680D01*
X004662Y014826D01*
X004596Y014892D01*
X004662Y014957D01*
X004662Y015117D01*
X004676Y015132D01*
X004676Y015124D01*
X004785Y015015D01*
X004785Y014854D01*
X004899Y014739D01*
X005061Y014739D01*
X005175Y014854D01*
X005175Y015015D01*
X005066Y015124D01*
X005066Y015124D01*
X005066Y015286D01*
X005014Y015338D01*
X005091Y015415D01*
X005091Y015560D01*
X005107Y015560D01*
X005118Y015570D01*
X005118Y015548D01*
X005219Y015447D01*
X005203Y015431D01*
X005203Y015270D01*
X005318Y015155D01*
X005479Y015155D01*
X005593Y015270D01*
X005593Y015431D01*
X005492Y015532D01*
X005508Y015548D01*
X005508Y015710D01*
X005469Y015749D01*
X005556Y015836D01*
X005556Y015969D01*
X005593Y015969D01*
X005593Y015934D01*
X005686Y015841D01*
X005655Y015810D01*
X005655Y015649D01*
X005770Y015535D01*
X005931Y015535D01*
X006045Y015649D01*
X006045Y015810D01*
X005953Y015903D01*
X005983Y015934D01*
X005983Y016095D01*
X005959Y016120D01*
X006056Y016217D01*
X006056Y016336D01*
X006099Y016336D01*
X006099Y016278D01*
X006182Y016195D01*
X006137Y016151D01*
X006137Y015989D01*
X006251Y015875D01*
X006413Y015875D01*
X006527Y015989D01*
X006527Y016151D01*
X006445Y016233D01*
X006489Y016278D01*
X006489Y016440D01*
X006480Y016449D01*
X006585Y016554D01*
X006585Y016658D01*
X006632Y016658D01*
X006632Y016579D01*
X006704Y016507D01*
X006646Y016449D01*
X006646Y016288D01*
X006760Y016174D01*
X006922Y016174D01*
X007036Y016288D01*
X007036Y016449D01*
X006964Y016521D01*
X007022Y016579D01*
X007022Y016732D01*
X007027Y016732D01*
X007141Y016846D01*
X007141Y016933D01*
X007189Y016933D01*
X007189Y016834D01*
X007248Y016775D01*
X007178Y016704D01*
X007178Y016543D01*
X007292Y016429D01*
X007454Y016429D01*
X007568Y016543D01*
X007568Y016704D01*
X007509Y016764D01*
X007579Y016834D01*
X007579Y016976D01*
X007605Y016976D01*
X007719Y017090D01*
X007719Y017159D01*
X007765Y017159D01*
X007765Y017042D01*
X007811Y016995D01*
X007729Y016914D01*
X007729Y016753D01*
X007844Y016638D01*
X008005Y016638D01*
X008119Y016753D01*
X008119Y016914D01*
X008073Y016960D01*
X008155Y017042D01*
X008155Y017171D01*
X008202Y017171D01*
X008316Y017285D01*
X008316Y017335D01*
X008356Y017335D01*
X008356Y017201D01*
X008388Y017168D01*
X008296Y017077D01*
X008296Y016915D01*
X008411Y016801D01*
X008572Y016801D01*
X008591Y016819D01*
X008591Y016734D01*
X008675Y016650D01*
X008641Y016616D01*
X008641Y016614D01*
X008569Y016614D01*
X008548Y016594D01*
X008513Y016629D01*
X008381Y016629D01*
X008361Y016609D01*
X008332Y016637D01*
X008200Y016637D01*
X008107Y016544D01*
X008107Y016412D01*
X008184Y016335D01*
X008134Y016284D01*
X008034Y016284D01*
X007984Y016234D01*
X007859Y016234D01*
X007842Y016218D01*
X007787Y016273D01*
X007655Y016273D01*
X007561Y016180D01*
X007561Y016048D01*
X007642Y015967D01*
X007609Y015934D01*
X007509Y015934D01*
X007459Y015884D01*
X007334Y015884D01*
X007333Y015883D01*
X007270Y015945D01*
X007138Y015945D01*
X007045Y015852D01*
X007045Y015720D01*
X007132Y015633D01*
X007084Y015584D01*
X006984Y015584D01*
X006934Y015534D01*
X006809Y015534D01*
X006808Y015533D01*
X006745Y015595D01*
X006613Y015595D01*
X006520Y015502D01*
X006520Y015370D01*
X006607Y015283D01*
X006559Y015234D01*
X006459Y015234D01*
X006409Y015184D01*
X006284Y015184D01*
X006283Y015183D01*
X006220Y015245D01*
X006088Y015245D01*
X005995Y015152D01*
X005995Y015020D01*
X006082Y014933D01*
X006034Y014884D01*
X005934Y014884D01*
X005884Y014834D01*
X005759Y014834D01*
X005758Y014833D01*
X005695Y014895D01*
X005563Y014895D01*
X005470Y014802D01*
X005470Y014670D01*
X005563Y014577D01*
X005695Y014577D01*
X005697Y014578D01*
X005759Y014516D01*
X005891Y014516D01*
X005941Y014566D01*
X006066Y014566D01*
X006141Y014641D01*
X006241Y014641D01*
X006334Y014734D01*
X006334Y014866D01*
X006416Y014866D01*
X006466Y014916D01*
X006591Y014916D01*
X006666Y014991D01*
X006766Y014991D01*
X006859Y015084D01*
X006859Y015216D01*
X006941Y015216D01*
X006991Y015266D01*
X007116Y015266D01*
X007191Y015341D01*
X007291Y015341D01*
X007384Y015434D01*
X007384Y015566D01*
X007466Y015566D01*
X007516Y015616D01*
X007641Y015616D01*
X007716Y015691D01*
X007816Y015691D01*
X007909Y015784D01*
X007909Y015916D01*
X007991Y015916D01*
X008041Y015966D01*
X008166Y015966D01*
X008241Y016041D01*
X008341Y016041D01*
X008434Y016134D01*
X008434Y016266D01*
X008390Y016310D01*
X008513Y016310D01*
X008534Y016331D01*
X008569Y016296D01*
X008701Y016296D01*
X008794Y016389D01*
X008794Y016391D01*
X008866Y016391D01*
X008959Y016484D01*
X008959Y016616D01*
X008875Y016700D01*
X008909Y016734D01*
X008909Y016866D01*
X008816Y016959D01*
X008686Y016959D01*
X008686Y017077D01*
X008654Y017109D01*
X008746Y017201D01*
X008746Y017316D01*
X008813Y017316D01*
X008927Y017430D01*
X008927Y017459D01*
X008958Y017459D01*
X008958Y017309D01*
X008975Y017292D01*
X008875Y017192D01*
X008875Y017030D01*
X008989Y016916D01*
X009151Y016916D01*
X009201Y016966D01*
X009201Y016947D01*
X009295Y016854D01*
X009427Y016854D01*
X009520Y016947D01*
X009520Y016966D01*
X009566Y016966D01*
X009616Y017016D01*
X009741Y017016D01*
X009816Y017091D01*
X009916Y017091D01*
X010009Y017184D01*
X010009Y017316D01*
X009916Y017409D01*
X009784Y017409D01*
X009709Y017334D01*
X009609Y017334D01*
X009559Y017284D01*
X009434Y017284D01*
X009341Y017191D01*
X009341Y017172D01*
X009295Y017172D01*
X009265Y017143D01*
X009265Y017192D01*
X009248Y017209D01*
X009348Y017309D01*
X009348Y017408D01*
X009434Y017408D01*
X009548Y017523D01*
X009548Y017530D01*
X009697Y017530D01*
X009765Y017599D01*
X009852Y017512D01*
X010048Y017512D01*
X010188Y017652D01*
X010188Y017839D01*
X010419Y017847D01*
X010520Y017837D01*
X010489Y017806D01*
X010489Y017644D01*
X010603Y017530D01*
X010752Y017530D01*
X010752Y017523D01*
X010866Y017408D01*
X010952Y017408D01*
X010952Y017309D01*
X011052Y017209D01*
X011035Y017192D01*
X011035Y017030D01*
X011149Y016916D01*
X011311Y016916D01*
X011425Y017030D01*
X011425Y017192D01*
X011325Y017292D01*
X011342Y017309D01*
X011342Y017459D01*
X011373Y017459D01*
X011373Y017430D01*
X011487Y017316D01*
X011554Y017316D01*
X011554Y017201D01*
X011646Y017109D01*
X011614Y017077D01*
X011614Y016915D01*
X011728Y016801D01*
X011889Y016801D01*
X012004Y016915D01*
X012004Y017077D01*
X011912Y017168D01*
X011944Y017201D01*
X011944Y017335D01*
X011984Y017335D01*
X011984Y017285D01*
X012098Y017171D01*
X012145Y017171D01*
X012145Y017042D01*
X012227Y016960D01*
X012181Y016914D01*
X012181Y016753D01*
X012295Y016638D01*
X012456Y016638D01*
X012571Y016753D01*
X012571Y016914D01*
X012489Y016995D01*
X012535Y017042D01*
X012535Y017159D01*
X012581Y017159D01*
X012581Y017090D01*
X012695Y016976D01*
X012721Y016976D01*
X012721Y016834D01*
X012791Y016764D01*
X012732Y016704D01*
X012732Y016543D01*
X012846Y016429D01*
X013008Y016429D01*
X013122Y016543D01*
X013122Y016704D01*
X013052Y016775D01*
X013111Y016834D01*
X013111Y016933D01*
X013159Y016933D01*
X013159Y016846D01*
X013273Y016732D01*
X013278Y016732D01*
X013278Y016579D01*
X013336Y016521D01*
X013264Y016449D01*
X013264Y016288D01*
X013378Y016174D01*
X013540Y016174D01*
X013654Y016288D01*
X013654Y016449D01*
X013596Y016507D01*
X013668Y016579D01*
X013668Y016658D01*
X013715Y016658D01*
X013715Y016554D01*
X013820Y016449D01*
X013811Y016440D01*
X013811Y016278D01*
X013855Y016233D01*
X013773Y016151D01*
X013773Y015989D01*
X013887Y015875D01*
X014048Y015875D01*
X014163Y015989D01*
X014163Y016151D01*
X014118Y016195D01*
X014201Y016278D01*
X014201Y016336D01*
X014244Y016336D01*
X014244Y016217D01*
X014341Y016120D01*
X014317Y016095D01*
X014317Y015934D01*
X014347Y015903D01*
X014255Y015810D01*
X014255Y015649D01*
X014369Y015535D01*
X014530Y015535D01*
X014645Y015649D01*
X014645Y015810D01*
X014614Y015841D01*
X014707Y015934D01*
X014707Y015969D01*
X014744Y015969D01*
X014744Y015836D01*
X014831Y015749D01*
X014792Y015710D01*
X014792Y015548D01*
X014808Y015532D01*
X014707Y015431D01*
X014707Y015270D01*
X014821Y015155D01*
X014982Y015155D01*
X015097Y015270D01*
X015097Y015431D01*
X015081Y015447D01*
X015182Y015548D01*
X015182Y015570D01*
X015193Y015560D01*
X015209Y015560D01*
X015209Y015415D01*
X015286Y015338D01*
X015234Y015286D01*
X015234Y015124D01*
X015125Y015015D01*
X015125Y014854D01*
X015239Y014739D01*
X015401Y014739D01*
X015515Y014854D01*
X015515Y015015D01*
X015515Y015015D01*
X015624Y015124D01*
X015624Y015132D01*
X015638Y015117D01*
X015638Y014957D01*
X015704Y014892D01*
X015638Y014826D01*
X015638Y014680D01*
X015621Y014680D01*
X015507Y014566D01*
X015507Y014404D01*
X015621Y014290D01*
X015783Y014290D01*
X015897Y014404D01*
X015897Y014550D01*
X015914Y014550D01*
X016023Y014660D01*
X016042Y014640D01*
X016027Y014626D01*
X016027Y014464D01*
X016080Y014412D01*
X016003Y014335D01*
X016003Y014200D01*
X015965Y014200D01*
X015850Y014086D01*
X015850Y013924D01*
X015965Y013810D01*
X016126Y013810D01*
X016240Y013924D01*
X016240Y014059D01*
X016278Y014059D01*
X016377Y014158D01*
X016403Y014132D01*
X016374Y014102D01*
X016374Y013941D01*
X016413Y013902D01*
X016325Y013814D01*
X016325Y013693D01*
X016267Y013693D01*
X016152Y013579D01*
X016152Y013418D01*
X016267Y013303D01*
X016428Y013303D01*
X016542Y013418D01*
X016542Y013538D01*
X016601Y013538D01*
X016688Y013626D01*
X016719Y013595D01*
X016675Y013552D01*
X016675Y013390D01*
X016700Y013366D01*
X016602Y013268D01*
X016602Y013163D01*
X016525Y013163D01*
X016411Y013049D01*
X016411Y012887D01*
X016525Y012773D01*
X016687Y012773D01*
X016801Y012887D01*
X016801Y012993D01*
X016878Y012993D01*
X016953Y013068D01*
X016986Y013034D01*
X016930Y012978D01*
X016930Y012816D01*
X016939Y012807D01*
X016833Y012702D01*
X016833Y012613D01*
X016738Y012613D01*
X016624Y012499D01*
X016624Y012337D01*
X016738Y012223D01*
X016900Y012223D01*
X017014Y012337D01*
X017014Y012426D01*
X017109Y012426D01*
X017170Y012487D01*
X017204Y012453D01*
X017135Y012384D01*
X017135Y012232D01*
X017130Y012232D01*
X017016Y012117D01*
X017016Y012047D01*
X016905Y012047D01*
X016790Y011933D01*
X016790Y011771D01*
X016905Y011657D01*
X017066Y011657D01*
X017180Y011771D01*
X017180Y011842D01*
X017292Y011842D01*
X017338Y011888D01*
X017370Y011856D01*
X017290Y011776D01*
X017290Y011634D01*
X017263Y011634D01*
X017149Y011520D01*
X017149Y011469D01*
X017023Y011469D01*
X016909Y011355D01*
X016909Y011193D01*
X017023Y011079D01*
X017185Y011079D01*
X017299Y011193D01*
X017299Y011244D01*
X017425Y011244D01*
X017539Y011358D01*
X017539Y011500D01*
X017566Y011500D01*
X017680Y011614D01*
X017680Y011679D01*
X017777Y011222D01*
X017852Y010150D01*
X016603Y010150D01*
X016537Y010248D02*
X017845Y010248D01*
X017852Y010150D02*
X017841Y009995D01*
X017748Y010088D01*
X017552Y010088D01*
X017412Y009948D01*
X017412Y009752D01*
X017552Y009612D01*
X017748Y009612D01*
X017819Y009683D01*
X017777Y009078D01*
X017680Y008621D01*
X017680Y008686D01*
X017566Y008800D01*
X017539Y008800D01*
X017539Y008942D01*
X017425Y009056D01*
X017299Y009056D01*
X017299Y009107D01*
X017185Y009221D01*
X017023Y009221D01*
X016909Y009107D01*
X016909Y008945D01*
X017023Y008831D01*
X017149Y008831D01*
X017149Y008780D01*
X017263Y008666D01*
X017290Y008666D01*
X017290Y008524D01*
X017370Y008444D01*
X017338Y008412D01*
X017292Y008458D01*
X017180Y008458D01*
X017180Y008529D01*
X017066Y008643D01*
X016905Y008643D01*
X016790Y008529D01*
X016790Y008367D01*
X016905Y008253D01*
X017016Y008253D01*
X017016Y008183D01*
X017130Y008068D01*
X017135Y008068D01*
X017135Y007916D01*
X017204Y007847D01*
X017170Y007813D01*
X017109Y007874D01*
X017014Y007874D01*
X017014Y007963D01*
X016900Y008077D01*
X016738Y008077D01*
X016624Y007963D01*
X016624Y007801D01*
X016738Y007687D01*
X016833Y007687D01*
X016833Y007598D01*
X016939Y007493D01*
X016930Y007484D01*
X016930Y007322D01*
X016986Y007266D01*
X016953Y007232D01*
X016878Y007307D01*
X016801Y007307D01*
X016801Y007413D01*
X016687Y007527D01*
X016525Y007527D01*
X016411Y007413D01*
X016411Y007251D01*
X016525Y007137D01*
X016602Y007137D01*
X016602Y007032D01*
X016700Y006934D01*
X016675Y006910D01*
X016675Y006748D01*
X016719Y006705D01*
X016688Y006674D01*
X016601Y006762D01*
X016542Y006762D01*
X016542Y006882D01*
X016428Y006997D01*
X016267Y006997D01*
X016152Y006882D01*
X016152Y006721D01*
X016267Y006607D01*
X016325Y006607D01*
X016325Y006486D01*
X016413Y006398D01*
X016374Y006359D01*
X016374Y006198D01*
X016403Y006168D01*
X016377Y006142D01*
X016278Y006241D01*
X016240Y006241D01*
X016240Y006376D01*
X016126Y006490D01*
X015965Y006490D01*
X015850Y006376D01*
X015850Y006214D01*
X015965Y006100D01*
X016003Y006100D01*
X016003Y005965D01*
X016080Y005888D01*
X016027Y005836D01*
X016027Y005674D01*
X016042Y005660D01*
X016023Y005640D01*
X015914Y005750D01*
X015897Y005750D01*
X015897Y005896D01*
X015783Y006010D01*
X015621Y006010D01*
X015507Y005896D01*
X015507Y005734D01*
X015621Y005620D01*
X015638Y005620D01*
X015638Y005474D01*
X015704Y005408D01*
X015638Y005343D01*
X015638Y005183D01*
X015624Y005168D01*
X015624Y005176D01*
X015515Y005285D01*
X015515Y005446D01*
X015401Y005561D01*
X015239Y005561D01*
X015125Y005446D01*
X015125Y005285D01*
X015234Y005176D01*
X015234Y005176D01*
X015234Y005014D01*
X015286Y004962D01*
X015209Y004885D01*
X015209Y004740D01*
X015193Y004740D01*
X015182Y004730D01*
X015182Y004752D01*
X015081Y004853D01*
X015097Y004869D01*
X015097Y005030D01*
X014982Y005145D01*
X014821Y005145D01*
X014707Y005030D01*
X014707Y004869D01*
X014808Y004768D01*
X014792Y004752D01*
X014792Y004590D01*
X014831Y004551D01*
X014744Y004464D01*
X014744Y004331D01*
X014707Y004331D01*
X014707Y004366D01*
X014614Y004459D01*
X014645Y004490D01*
X014645Y004651D01*
X014530Y004765D01*
X014369Y004765D01*
X014255Y004651D01*
X014255Y004490D01*
X014347Y004397D01*
X014317Y004366D01*
X014317Y004205D01*
X014341Y004180D01*
X014244Y004083D01*
X014244Y003964D01*
X014201Y003964D01*
X014201Y004022D01*
X014118Y004105D01*
X014163Y004149D01*
X014163Y004311D01*
X014048Y004425D01*
X013887Y004425D01*
X013773Y004311D01*
X013773Y004149D01*
X013855Y004067D01*
X013811Y004022D01*
X013811Y003860D01*
X013820Y003851D01*
X013715Y003746D01*
X013715Y003642D01*
X013668Y003642D01*
X013668Y003721D01*
X013596Y003793D01*
X013654Y003851D01*
X013654Y004012D01*
X013540Y004126D01*
X013378Y004126D01*
X013264Y004012D01*
X013264Y003851D01*
X013336Y003779D01*
X013278Y003721D01*
X013278Y003568D01*
X013273Y003568D01*
X013159Y003454D01*
X013159Y003367D01*
X013111Y003367D01*
X013111Y003466D01*
X013052Y003525D01*
X013122Y003596D01*
X013122Y003757D01*
X013008Y003871D01*
X012846Y003871D01*
X012732Y003757D01*
X012732Y003596D01*
X012791Y003536D01*
X012721Y003466D01*
X012721Y003324D01*
X012695Y003324D01*
X012581Y003210D01*
X012581Y003141D01*
X012535Y003141D01*
X012535Y003258D01*
X012489Y003305D01*
X012571Y003386D01*
X012571Y003547D01*
X012456Y003662D01*
X012295Y003662D01*
X012181Y003547D01*
X012181Y003386D01*
X012227Y003340D01*
X012145Y003258D01*
X012145Y003129D01*
X012098Y003129D01*
X011984Y003015D01*
X011984Y002965D01*
X011944Y002965D01*
X011944Y003099D01*
X011912Y003132D01*
X012004Y003223D01*
X012004Y003385D01*
X011889Y003499D01*
X011728Y003499D01*
X011709Y003480D01*
X011709Y003566D01*
X011625Y003650D01*
X011659Y003684D01*
X011659Y003685D01*
X011731Y003685D01*
X011752Y003706D01*
X011626Y003649D02*
X012282Y003649D01*
X012184Y003747D02*
X012732Y003747D01*
X012732Y003649D02*
X012469Y003649D01*
X012568Y003550D02*
X012777Y003550D01*
X012721Y003452D02*
X012571Y003452D01*
X012538Y003353D02*
X012721Y003353D01*
X012626Y003255D02*
X012535Y003255D01*
X012535Y003156D02*
X012581Y003156D01*
X012213Y003353D02*
X012004Y003353D01*
X012004Y003255D02*
X012145Y003255D01*
X012145Y003156D02*
X011937Y003156D01*
X011944Y003058D02*
X012027Y003058D01*
X011936Y003452D02*
X012181Y003452D01*
X012184Y003550D02*
X011709Y003550D01*
X011471Y003353D02*
X011341Y003353D01*
X011391Y003452D02*
X010024Y003452D01*
X009996Y003424D02*
X010101Y003529D01*
X010101Y003664D01*
X010480Y003919D01*
X010480Y003831D01*
X010573Y003738D01*
X010705Y003738D01*
X010799Y003831D01*
X010799Y003963D01*
X010790Y003972D01*
X010795Y003977D01*
X010861Y003911D01*
X010993Y003911D01*
X011086Y004005D01*
X011086Y004137D01*
X010993Y004230D01*
X010861Y004230D01*
X010828Y004197D01*
X010781Y004243D01*
X013502Y006078D01*
X013573Y006078D01*
X013678Y006183D01*
X013678Y006332D01*
X013594Y006416D01*
X013641Y006416D01*
X013675Y006450D01*
X013709Y006416D01*
X013841Y006416D01*
X013875Y006450D01*
X013909Y006416D01*
X014041Y006416D01*
X014075Y006450D01*
X014109Y006416D01*
X014241Y006416D01*
X014334Y006509D01*
X014334Y006641D01*
X014241Y006734D01*
X014109Y006734D01*
X014075Y006700D01*
X014041Y006734D01*
X013909Y006734D01*
X013875Y006700D01*
X013841Y006734D01*
X013709Y006734D01*
X013675Y006700D01*
X013641Y006734D01*
X013509Y006734D01*
X013416Y006641D01*
X013416Y006509D01*
X013488Y006436D01*
X013425Y006436D01*
X013320Y006332D01*
X013320Y006318D01*
X010534Y004438D01*
X010498Y004428D01*
X010487Y004409D01*
X010429Y004467D01*
X010297Y004467D01*
X010276Y004446D01*
X010215Y004507D01*
X010083Y004507D01*
X009990Y004414D01*
X009990Y004282D01*
X010003Y004268D01*
X009999Y004263D01*
X009952Y004311D01*
X009820Y004311D01*
X009726Y004217D01*
X009726Y004085D01*
X009820Y003992D01*
X009952Y003992D01*
X009984Y004024D01*
X010031Y003978D01*
X009917Y003901D01*
X009917Y003901D01*
X009814Y003832D01*
X009813Y003829D01*
X009793Y003728D01*
X009743Y003677D01*
X009743Y003529D01*
X009848Y003424D01*
X009996Y003424D01*
X010101Y003550D02*
X011391Y003550D01*
X011376Y003649D02*
X010101Y003649D01*
X010225Y003747D02*
X010564Y003747D01*
X010480Y003846D02*
X010371Y003846D01*
X010715Y003747D02*
X011341Y003747D01*
X011371Y003846D02*
X010799Y003846D01*
X010799Y003944D02*
X010828Y003944D01*
X011026Y003944D02*
X011538Y003944D01*
X011866Y004043D02*
X011086Y004043D01*
X011081Y004141D02*
X011866Y004141D01*
X011940Y004240D02*
X010785Y004240D01*
X010923Y004338D02*
X012263Y004338D01*
X012391Y004437D02*
X011069Y004437D01*
X011215Y004535D02*
X012410Y004535D01*
X012609Y004634D02*
X011361Y004634D01*
X011507Y004732D02*
X012832Y004732D01*
X012916Y004831D02*
X011653Y004831D01*
X011799Y004929D02*
X012979Y004929D01*
X013178Y005028D02*
X011945Y005028D01*
X012091Y005126D02*
X013441Y005126D01*
X013450Y005225D02*
X012237Y005225D01*
X012383Y005323D02*
X013648Y005323D01*
X013872Y005422D02*
X012529Y005422D01*
X012675Y005520D02*
X013966Y005520D01*
X014019Y005619D02*
X012821Y005619D01*
X012967Y005717D02*
X014217Y005717D01*
X014372Y005422D02*
X014587Y005422D01*
X014754Y005422D02*
X015125Y005422D01*
X015125Y005323D02*
X014262Y005323D01*
X014305Y005225D02*
X015185Y005225D01*
X015234Y005126D02*
X015001Y005126D01*
X015097Y005028D02*
X015234Y005028D01*
X015254Y004929D02*
X015097Y004929D01*
X015103Y004831D02*
X015209Y004831D01*
X015185Y004732D02*
X015182Y004732D01*
X014792Y004732D02*
X014563Y004732D01*
X014645Y004634D02*
X014792Y004634D01*
X014815Y004535D02*
X014645Y004535D01*
X014636Y004437D02*
X014744Y004437D01*
X014744Y004338D02*
X014707Y004338D01*
X014317Y004338D02*
X014135Y004338D01*
X014163Y004240D02*
X014317Y004240D01*
X014302Y004141D02*
X014155Y004141D01*
X014180Y004043D02*
X014244Y004043D01*
X014307Y004437D02*
X013244Y004437D01*
X013255Y004535D02*
X014255Y004535D01*
X014255Y004634D02*
X013201Y004634D01*
X013333Y004732D02*
X013527Y004732D01*
X013715Y004732D02*
X014336Y004732D01*
X014284Y005126D02*
X014803Y005126D01*
X014707Y005028D02*
X013703Y005028D01*
X013780Y004929D02*
X014707Y004929D01*
X014744Y004831D02*
X013780Y004831D01*
X013800Y004338D02*
X012664Y004338D01*
X012739Y004240D02*
X013773Y004240D01*
X013781Y004141D02*
X012739Y004141D01*
X012662Y004043D02*
X013295Y004043D01*
X013264Y003944D02*
X012136Y003944D01*
X012193Y003846D02*
X012821Y003846D01*
X013033Y003846D02*
X013269Y003846D01*
X013304Y003747D02*
X013122Y003747D01*
X013122Y003649D02*
X013278Y003649D01*
X013255Y003550D02*
X013077Y003550D01*
X013111Y003452D02*
X013159Y003452D01*
X013668Y003649D02*
X013715Y003649D01*
X013716Y003747D02*
X013641Y003747D01*
X013649Y003846D02*
X013815Y003846D01*
X013811Y003944D02*
X013654Y003944D01*
X013623Y004043D02*
X013832Y004043D01*
X012497Y004043D02*
X012293Y004043D01*
X011614Y003255D02*
X011425Y003255D01*
X011425Y003156D02*
X011611Y003156D01*
X011554Y003058D02*
X011374Y003058D01*
X011342Y002959D02*
X011462Y002959D01*
X011373Y002861D02*
X011342Y002861D01*
X011019Y003058D02*
X010908Y003058D01*
X010952Y002959D02*
X010585Y002959D01*
X010596Y002762D02*
X010474Y002762D01*
X010226Y002762D02*
X009704Y002762D01*
X009803Y002664D02*
X010128Y002664D01*
X010112Y002565D02*
X009811Y002565D01*
X010008Y002467D02*
X010112Y002467D01*
X010315Y002959D02*
X009348Y002959D01*
X009281Y003058D02*
X010291Y003058D01*
X010331Y003156D02*
X009265Y003156D01*
X009265Y003255D02*
X010530Y003255D01*
X010780Y003353D02*
X009182Y003353D01*
X008959Y003353D02*
X008686Y003353D01*
X008686Y003255D02*
X008875Y003255D01*
X008875Y003156D02*
X008689Y003156D01*
X008746Y003058D02*
X008926Y003058D01*
X008958Y002959D02*
X008838Y002959D01*
X008927Y002861D02*
X008958Y002861D01*
X009464Y002861D02*
X010836Y002861D01*
X011034Y003156D02*
X011035Y003156D01*
X011098Y003353D02*
X011118Y003353D01*
X010530Y004437D02*
X010459Y004437D01*
X010678Y004535D02*
X006045Y004535D01*
X006045Y004634D02*
X010824Y004634D01*
X010970Y004732D02*
X009569Y004732D01*
X009578Y004736D02*
X009696Y004854D01*
X009760Y005009D01*
X009760Y005176D01*
X009696Y005330D01*
X009578Y005448D01*
X009423Y005512D01*
X009256Y005512D01*
X009102Y005448D01*
X008984Y005330D01*
X008920Y005176D01*
X008920Y005009D01*
X008984Y004854D01*
X009102Y004736D01*
X009256Y004672D01*
X009423Y004672D01*
X009578Y004736D01*
X009672Y004831D02*
X011116Y004831D01*
X011262Y004929D02*
X010230Y004929D01*
X010234Y004934D02*
X010234Y005059D01*
X010309Y005134D01*
X010309Y005266D01*
X010300Y005275D01*
X010384Y005359D01*
X010384Y005491D01*
X010375Y005500D01*
X010459Y005584D01*
X010459Y005716D01*
X010366Y005809D01*
X010234Y005809D01*
X010141Y005716D01*
X010141Y005584D01*
X010150Y005575D01*
X010066Y005491D01*
X010066Y005359D01*
X010075Y005350D01*
X009991Y005266D01*
X009991Y005141D01*
X009916Y005066D01*
X009916Y004934D01*
X010009Y004841D01*
X010141Y004841D01*
X010234Y004934D01*
X010234Y005028D02*
X011408Y005028D01*
X011554Y005126D02*
X010302Y005126D01*
X010309Y005225D02*
X010500Y005225D01*
X010534Y005191D02*
X010666Y005191D01*
X010759Y005284D01*
X010759Y005409D01*
X010834Y005484D01*
X010834Y005616D01*
X010825Y005625D01*
X010909Y005709D01*
X010909Y005841D01*
X010900Y005850D01*
X010984Y005934D01*
X010984Y006066D01*
X010891Y006159D01*
X010759Y006159D01*
X010666Y006066D01*
X010666Y005934D01*
X010675Y005925D01*
X010591Y005841D01*
X010591Y005709D01*
X010600Y005700D01*
X010516Y005616D01*
X010516Y005491D01*
X010441Y005416D01*
X010441Y005284D01*
X010534Y005191D01*
X010441Y005323D02*
X010349Y005323D01*
X010384Y005422D02*
X010447Y005422D01*
X010396Y005520D02*
X010516Y005520D01*
X010519Y005619D02*
X010459Y005619D01*
X010458Y005717D02*
X010591Y005717D01*
X010591Y005816D02*
X005957Y005816D01*
X005957Y005761D02*
X005957Y005893D01*
X005864Y005987D01*
X005766Y005987D01*
X005697Y006055D01*
X005599Y006055D01*
X005531Y006124D01*
X005432Y006124D01*
X005398Y006158D01*
X005473Y006158D01*
X005567Y006252D01*
X005567Y006384D01*
X005473Y006477D01*
X005375Y006477D01*
X005306Y006545D01*
X005208Y006545D01*
X005140Y006614D01*
X005041Y006614D01*
X004973Y006682D01*
X004841Y006682D01*
X004747Y006589D01*
X004747Y006457D01*
X004841Y006364D01*
X004939Y006364D01*
X005008Y006295D01*
X005106Y006295D01*
X005174Y006227D01*
X005273Y006227D01*
X005307Y006192D01*
X005232Y006192D01*
X005138Y006099D01*
X005138Y005967D01*
X005232Y005873D01*
X005330Y005873D01*
X005399Y005805D01*
X005497Y005805D01*
X005565Y005737D01*
X005664Y005737D01*
X005732Y005668D01*
X005864Y005668D01*
X005957Y005761D01*
X005914Y005717D02*
X010142Y005717D01*
X010141Y005619D02*
X004662Y005619D01*
X004662Y005520D02*
X004859Y005520D01*
X004785Y005422D02*
X004610Y005422D01*
X004662Y005323D02*
X004785Y005323D01*
X004725Y005225D02*
X004662Y005225D01*
X005066Y005176D02*
X005066Y005176D01*
X005066Y005126D02*
X005299Y005126D01*
X005203Y005028D02*
X005066Y005028D01*
X005046Y004929D02*
X005203Y004929D01*
X005197Y004831D02*
X005091Y004831D01*
X005115Y004732D02*
X005118Y004732D01*
X005508Y004732D02*
X005737Y004732D01*
X005655Y004634D02*
X005508Y004634D01*
X005485Y004535D02*
X005655Y004535D01*
X005664Y004437D02*
X005556Y004437D01*
X005556Y004338D02*
X005593Y004338D01*
X005983Y004338D02*
X006165Y004338D01*
X006137Y004240D02*
X005983Y004240D01*
X005998Y004141D02*
X006145Y004141D01*
X006120Y004043D02*
X006056Y004043D01*
X005993Y004437D02*
X010013Y004437D01*
X009990Y004338D02*
X006500Y004338D01*
X006527Y004240D02*
X009749Y004240D01*
X009726Y004141D02*
X006519Y004141D01*
X006468Y004043D02*
X006677Y004043D01*
X006646Y003944D02*
X006489Y003944D01*
X006485Y003846D02*
X006651Y003846D01*
X006659Y003747D02*
X006584Y003747D01*
X006585Y003649D02*
X006632Y003649D01*
X006996Y003747D02*
X007178Y003747D01*
X007178Y003649D02*
X007022Y003649D01*
X007045Y003550D02*
X007223Y003550D01*
X007189Y003452D02*
X007141Y003452D01*
X007031Y003846D02*
X007267Y003846D01*
X007479Y003846D02*
X009835Y003846D01*
X009797Y003747D02*
X007568Y003747D01*
X007568Y003649D02*
X007831Y003649D01*
X007732Y003550D02*
X007523Y003550D01*
X007579Y003452D02*
X007729Y003452D01*
X007762Y003353D02*
X007579Y003353D01*
X007674Y003255D02*
X007765Y003255D01*
X007765Y003156D02*
X007719Y003156D01*
X008087Y003353D02*
X008296Y003353D01*
X008296Y003255D02*
X008155Y003255D01*
X008155Y003156D02*
X008363Y003156D01*
X008356Y003058D02*
X008273Y003058D01*
X008364Y003452D02*
X008119Y003452D01*
X008116Y003550D02*
X009743Y003550D01*
X009743Y003649D02*
X008018Y003649D01*
X008619Y003452D02*
X009820Y003452D01*
X009981Y003944D02*
X007036Y003944D01*
X007005Y004043D02*
X009768Y004043D01*
X009111Y004732D02*
X005964Y004732D01*
X005593Y004929D02*
X008953Y004929D01*
X008920Y005028D02*
X005593Y005028D01*
X005497Y005126D02*
X008920Y005126D01*
X008940Y005225D02*
X005115Y005225D01*
X005175Y005323D02*
X008981Y005323D01*
X009076Y005422D02*
X005175Y005422D01*
X005101Y005520D02*
X010095Y005520D01*
X010066Y005422D02*
X009604Y005422D01*
X009699Y005323D02*
X010048Y005323D01*
X009991Y005225D02*
X009739Y005225D01*
X009760Y005126D02*
X009976Y005126D01*
X009916Y005028D02*
X009760Y005028D01*
X009727Y004929D02*
X009920Y004929D01*
X010700Y005225D02*
X011700Y005225D01*
X011846Y005323D02*
X010759Y005323D01*
X010772Y005422D02*
X011992Y005422D01*
X012138Y005520D02*
X010834Y005520D01*
X010831Y005619D02*
X010981Y005619D01*
X010966Y005634D02*
X011059Y005541D01*
X011191Y005541D01*
X011284Y005634D01*
X011284Y005759D01*
X011359Y005834D01*
X011359Y005966D01*
X011350Y005975D01*
X011434Y006059D01*
X011434Y006191D01*
X011425Y006200D01*
X011509Y006284D01*
X011509Y006416D01*
X011416Y006509D01*
X011284Y006509D01*
X011191Y006416D01*
X011191Y006284D01*
X011200Y006275D01*
X011116Y006191D01*
X011116Y006059D01*
X011125Y006050D01*
X011041Y005966D01*
X011041Y005841D01*
X010966Y005766D01*
X010966Y005634D01*
X010966Y005717D02*
X010909Y005717D01*
X010909Y005816D02*
X011016Y005816D01*
X011041Y005914D02*
X010965Y005914D01*
X010984Y006013D02*
X011088Y006013D01*
X011116Y006111D02*
X010939Y006111D01*
X011135Y006210D02*
X006685Y006210D01*
X006683Y006208D02*
X006734Y006259D01*
X006734Y006391D01*
X006700Y006425D01*
X006734Y006459D01*
X006734Y006591D01*
X006700Y006625D01*
X006734Y006659D01*
X006734Y006791D01*
X006641Y006884D01*
X006509Y006884D01*
X006491Y006867D01*
X006491Y006972D01*
X006387Y007077D01*
X006373Y007077D01*
X004485Y009875D01*
X004519Y009875D01*
X004612Y009968D01*
X004612Y010100D01*
X004519Y010194D01*
X004426Y010194D01*
X004413Y010207D01*
X004441Y010234D01*
X004441Y010367D01*
X004348Y010460D01*
X004216Y010460D01*
X004204Y010448D01*
X004134Y010518D01*
X004002Y010518D01*
X003909Y010424D01*
X003909Y010372D01*
X003743Y010618D01*
X003743Y010689D01*
X003638Y010794D01*
X003490Y010794D01*
X003385Y010689D01*
X003385Y010541D01*
X003490Y010436D01*
X003504Y010436D01*
X003861Y009906D01*
X003879Y009863D01*
X003895Y009856D01*
X003904Y009843D01*
X003916Y009840D01*
X003877Y009802D01*
X003877Y009670D01*
X003898Y009648D01*
X003857Y009607D01*
X003857Y009475D01*
X003951Y009382D01*
X004049Y009382D01*
X004025Y009359D01*
X004025Y009227D01*
X004119Y009133D01*
X004251Y009133D01*
X004282Y009165D01*
X004283Y009165D01*
X004207Y009089D01*
X004207Y008957D01*
X004300Y008864D01*
X004398Y008864D01*
X004375Y008840D01*
X004375Y008708D01*
X004468Y008615D01*
X004600Y008615D01*
X004632Y008647D01*
X004632Y008647D01*
X004556Y008571D01*
X004556Y008439D01*
X004650Y008346D01*
X004748Y008346D01*
X004724Y008322D01*
X004724Y008190D01*
X004818Y008097D01*
X004950Y008097D01*
X004981Y008129D01*
X004982Y008129D01*
X004906Y008053D01*
X004906Y007921D01*
X004999Y007827D01*
X005131Y007827D01*
X005167Y007863D01*
X005170Y007859D01*
X005108Y007797D01*
X005108Y007665D01*
X005202Y007572D01*
X005334Y007572D01*
X005427Y007665D01*
X005427Y007797D01*
X005392Y007833D01*
X005454Y007894D01*
X005454Y007903D01*
X006133Y006895D01*
X006133Y006824D01*
X006238Y006719D01*
X006387Y006719D01*
X006416Y006748D01*
X006416Y006659D01*
X006450Y006625D01*
X006416Y006591D01*
X006416Y006459D01*
X006450Y006425D01*
X006416Y006391D01*
X006416Y006259D01*
X006446Y006228D01*
X006395Y006177D01*
X006395Y006045D01*
X006488Y005952D01*
X006620Y005952D01*
X006714Y006045D01*
X006714Y006177D01*
X006683Y006208D01*
X006714Y006111D02*
X010711Y006111D01*
X010666Y006013D02*
X006682Y006013D01*
X006427Y006013D02*
X005740Y006013D01*
X005936Y005914D02*
X010664Y005914D01*
X011284Y005717D02*
X012431Y005717D01*
X012577Y005816D02*
X011341Y005816D01*
X011359Y005914D02*
X011560Y005914D01*
X011584Y005891D02*
X011491Y005984D01*
X011491Y006116D01*
X011566Y006191D01*
X011566Y006316D01*
X011650Y006400D01*
X011641Y006409D01*
X011641Y006541D01*
X011725Y006625D01*
X011716Y006634D01*
X011716Y006766D01*
X011809Y006859D01*
X011941Y006859D01*
X012034Y006766D01*
X012034Y006634D01*
X011950Y006550D01*
X011959Y006541D01*
X011959Y006409D01*
X011875Y006325D01*
X011884Y006316D01*
X011884Y006184D01*
X011809Y006109D01*
X011809Y005984D01*
X011716Y005891D01*
X011584Y005891D01*
X011491Y006013D02*
X011388Y006013D01*
X011434Y006111D02*
X011491Y006111D01*
X011435Y006210D02*
X011566Y006210D01*
X011566Y006308D02*
X011509Y006308D01*
X011509Y006407D02*
X011643Y006407D01*
X011641Y006505D02*
X011420Y006505D01*
X011280Y006505D02*
X006734Y006505D01*
X006718Y006407D02*
X011191Y006407D01*
X011191Y006308D02*
X006734Y006308D01*
X006721Y006604D02*
X011704Y006604D01*
X011716Y006702D02*
X006734Y006702D01*
X006724Y006801D02*
X011751Y006801D01*
X011959Y006505D02*
X012055Y006505D01*
X012091Y006541D02*
X012016Y006466D01*
X012016Y006334D01*
X012109Y006241D01*
X012241Y006241D01*
X012334Y006334D01*
X012334Y006459D01*
X012409Y006534D01*
X012409Y006666D01*
X012400Y006675D01*
X012466Y006740D01*
X012466Y006734D01*
X012559Y006641D01*
X012691Y006641D01*
X012784Y006734D01*
X012784Y006816D01*
X012816Y006816D01*
X012909Y006909D01*
X012909Y006941D01*
X012966Y006941D01*
X012987Y006962D01*
X013034Y006916D01*
X013166Y006916D01*
X013259Y007009D01*
X013259Y007141D01*
X013166Y007234D01*
X013034Y007234D01*
X013012Y007213D01*
X012966Y007259D01*
X012834Y007259D01*
X012741Y007166D01*
X012741Y007134D01*
X012684Y007134D01*
X012591Y007041D01*
X012591Y006959D01*
X012559Y006959D01*
X012484Y006885D01*
X012484Y006891D01*
X012475Y006900D01*
X012559Y006984D01*
X012559Y007116D01*
X012466Y007209D01*
X012334Y007209D01*
X012241Y007116D01*
X012241Y006984D01*
X012250Y006975D01*
X012166Y006891D01*
X012166Y006759D01*
X012175Y006750D01*
X012091Y006666D01*
X012091Y006541D01*
X012091Y006604D02*
X012004Y006604D01*
X012034Y006702D02*
X012127Y006702D01*
X012166Y006801D02*
X011999Y006801D01*
X012174Y006899D02*
X006491Y006899D01*
X006466Y006998D02*
X012241Y006998D01*
X012241Y007096D02*
X007197Y007096D01*
X007234Y007134D02*
X007141Y007041D01*
X007009Y007041D01*
X006916Y007134D01*
X006916Y007266D01*
X006962Y007313D01*
X006941Y007334D01*
X006941Y007391D01*
X006909Y007391D01*
X006816Y007484D01*
X006816Y007491D01*
X006709Y007491D01*
X006616Y007584D01*
X006616Y007716D01*
X006709Y007809D01*
X006841Y007809D01*
X006934Y007716D01*
X006934Y007709D01*
X007041Y007709D01*
X007134Y007616D01*
X007134Y007559D01*
X007166Y007559D01*
X007259Y007466D01*
X007259Y007334D01*
X007213Y007288D01*
X007234Y007266D01*
X007234Y007134D01*
X007234Y007195D02*
X012320Y007195D01*
X012480Y007195D02*
X012770Y007195D01*
X012646Y007096D02*
X012559Y007096D01*
X012559Y006998D02*
X012591Y006998D01*
X012499Y006899D02*
X012476Y006899D01*
X012497Y006702D02*
X012428Y006702D01*
X012409Y006604D02*
X013416Y006604D01*
X013419Y006505D02*
X012381Y006505D01*
X012334Y006407D02*
X013396Y006407D01*
X013307Y006308D02*
X012309Y006308D01*
X012041Y006308D02*
X011884Y006308D01*
X011884Y006210D02*
X013161Y006210D01*
X013015Y006111D02*
X011812Y006111D01*
X011809Y006013D02*
X012869Y006013D01*
X012723Y005914D02*
X011740Y005914D01*
X011957Y006407D02*
X012016Y006407D01*
X012753Y006702D02*
X013477Y006702D01*
X013673Y006702D02*
X013677Y006702D01*
X013873Y006702D02*
X013877Y006702D01*
X014073Y006702D02*
X014077Y006702D01*
X014273Y006702D02*
X016171Y006702D01*
X016152Y006801D02*
X012784Y006801D01*
X012900Y006899D02*
X016170Y006899D01*
X016325Y006604D02*
X014334Y006604D01*
X014331Y006505D02*
X016325Y006505D01*
X016404Y006407D02*
X016209Y006407D01*
X016240Y006308D02*
X016374Y006308D01*
X016374Y006210D02*
X016310Y006210D01*
X016054Y005914D02*
X015878Y005914D01*
X015897Y005816D02*
X016027Y005816D01*
X016027Y005717D02*
X015946Y005717D01*
X016003Y006013D02*
X013405Y006013D01*
X013259Y005914D02*
X015526Y005914D01*
X015507Y005816D02*
X013113Y005816D01*
X013607Y006111D02*
X015953Y006111D01*
X015854Y006210D02*
X013678Y006210D01*
X013678Y006308D02*
X015850Y006308D01*
X015882Y006407D02*
X013603Y006407D01*
X013248Y006998D02*
X016636Y006998D01*
X016602Y007096D02*
X013259Y007096D01*
X013205Y007195D02*
X016467Y007195D01*
X016411Y007293D02*
X007219Y007293D01*
X007259Y007392D02*
X016411Y007392D01*
X016489Y007490D02*
X007235Y007490D01*
X007134Y007589D02*
X016843Y007589D01*
X016936Y007490D02*
X016723Y007490D01*
X016801Y007392D02*
X016930Y007392D01*
X016959Y007293D02*
X016892Y007293D01*
X016738Y007687D02*
X007063Y007687D01*
X007116Y007741D02*
X006984Y007741D01*
X006900Y007825D01*
X006891Y007816D01*
X006759Y007816D01*
X006675Y007900D01*
X006666Y007891D01*
X006534Y007891D01*
X006459Y007966D01*
X006334Y007966D01*
X006241Y008059D01*
X006241Y008191D01*
X006334Y008284D01*
X006466Y008284D01*
X006541Y008209D01*
X006666Y008209D01*
X006750Y008125D01*
X006759Y008134D01*
X006891Y008134D01*
X006975Y008050D01*
X006984Y008059D01*
X007116Y008059D01*
X007209Y007966D01*
X007209Y007834D01*
X007116Y007741D01*
X007161Y007786D02*
X009298Y007786D01*
X009296Y007787D02*
X009467Y007716D01*
X009652Y007716D01*
X009823Y007787D01*
X009954Y007918D01*
X010025Y008089D01*
X010025Y008274D01*
X009954Y008445D01*
X009823Y008576D01*
X009652Y008647D01*
X009467Y008647D01*
X009296Y008576D01*
X009165Y008445D01*
X009094Y008274D01*
X009094Y008089D01*
X009165Y007918D01*
X009296Y007787D01*
X009198Y007884D02*
X007209Y007884D01*
X007192Y007983D02*
X009138Y007983D01*
X009097Y008081D02*
X006944Y008081D01*
X006766Y008266D02*
X006859Y008359D01*
X006859Y008491D01*
X006766Y008584D01*
X006634Y008584D01*
X006625Y008575D01*
X006541Y008659D01*
X006409Y008659D01*
X006400Y008650D01*
X006316Y008734D01*
X006191Y008734D01*
X006116Y008809D01*
X005984Y008809D01*
X005891Y008716D01*
X005891Y008584D01*
X005984Y008491D01*
X006109Y008491D01*
X006184Y008416D01*
X006316Y008416D01*
X006325Y008425D01*
X006409Y008341D01*
X006541Y008341D01*
X006550Y008350D01*
X006634Y008266D01*
X006766Y008266D01*
X006779Y008278D02*
X009096Y008278D01*
X009094Y008180D02*
X006695Y008180D01*
X006621Y008278D02*
X006472Y008278D01*
X006373Y008377D02*
X005496Y008377D01*
X005562Y008278D02*
X006328Y008278D01*
X006241Y008180D02*
X005629Y008180D01*
X005695Y008081D02*
X006241Y008081D01*
X006317Y007983D02*
X005762Y007983D01*
X005828Y007884D02*
X006690Y007884D01*
X006686Y007786D02*
X005894Y007786D01*
X005961Y007687D02*
X006616Y007687D01*
X006616Y007589D02*
X006027Y007589D01*
X006094Y007490D02*
X006816Y007490D01*
X006908Y007392D02*
X006160Y007392D01*
X006227Y007293D02*
X006943Y007293D01*
X006916Y007195D02*
X006293Y007195D01*
X006359Y007096D02*
X006953Y007096D01*
X006416Y006702D02*
X004129Y006702D01*
X004148Y006801D02*
X004803Y006801D01*
X004791Y006814D02*
X004846Y006759D01*
X004978Y006759D01*
X004978Y006759D01*
X005033Y006704D01*
X005165Y006704D01*
X005259Y006798D01*
X005259Y006930D01*
X005165Y007023D01*
X005033Y007023D01*
X005033Y007023D01*
X004978Y007078D01*
X004846Y007078D01*
X004845Y007077D01*
X004790Y007132D01*
X004658Y007132D01*
X004658Y007132D01*
X004603Y007187D01*
X004471Y007187D01*
X004377Y007093D01*
X004377Y006961D01*
X004471Y006868D01*
X004603Y006868D01*
X004658Y006813D01*
X004790Y006813D01*
X004791Y006814D01*
X004603Y006868D02*
X004603Y006868D01*
X004439Y006899D02*
X004130Y006899D01*
X004377Y006998D02*
X003664Y006998D01*
X003698Y007096D02*
X004381Y007096D01*
X004826Y007096D02*
X005998Y007096D01*
X006064Y006998D02*
X005190Y006998D01*
X005259Y006899D02*
X006130Y006899D01*
X006156Y006801D02*
X005259Y006801D01*
X005150Y006604D02*
X006429Y006604D01*
X006416Y006505D02*
X005346Y006505D01*
X005543Y006407D02*
X006432Y006407D01*
X006416Y006308D02*
X005567Y006308D01*
X005525Y006210D02*
X006428Y006210D01*
X006395Y006111D02*
X005543Y006111D01*
X005289Y006210D02*
X004446Y006210D01*
X004449Y006308D02*
X004994Y006308D01*
X004797Y006407D02*
X004418Y006407D01*
X004347Y006111D02*
X005151Y006111D01*
X005138Y006013D02*
X004297Y006013D01*
X004246Y005914D02*
X004422Y005914D01*
X004403Y005816D02*
X004273Y005816D01*
X004273Y005717D02*
X004354Y005717D01*
X004776Y005717D02*
X005683Y005717D01*
X005388Y005816D02*
X004793Y005816D01*
X004774Y005914D02*
X005191Y005914D01*
X004747Y006505D02*
X003975Y006505D01*
X003975Y006604D02*
X004762Y006604D01*
X004091Y006407D02*
X003896Y006407D01*
X003926Y006308D02*
X004059Y006308D01*
X003990Y006210D02*
X003926Y006210D01*
X003640Y006702D02*
X003584Y006702D01*
X003625Y006801D02*
X003758Y006801D01*
X003775Y006899D02*
X003625Y006899D01*
X003833Y007195D02*
X005931Y007195D01*
X005865Y007293D02*
X003889Y007293D01*
X003889Y007392D02*
X005798Y007392D01*
X005732Y007490D02*
X003811Y007490D01*
X003577Y007490D02*
X003364Y007490D01*
X003370Y007392D02*
X003499Y007392D01*
X003408Y007293D02*
X003341Y007293D01*
X003457Y007589D02*
X005185Y007589D01*
X005108Y007687D02*
X003562Y007687D01*
X003661Y007786D02*
X005108Y007786D01*
X004942Y007884D02*
X003676Y007884D01*
X003656Y007983D02*
X004906Y007983D01*
X004935Y008081D02*
X003183Y008081D01*
X003165Y007983D02*
X003306Y007983D01*
X003286Y007884D02*
X003134Y007884D01*
X003282Y008180D02*
X004735Y008180D01*
X004724Y008278D02*
X003421Y008278D01*
X003510Y008377D02*
X004618Y008377D01*
X004556Y008475D02*
X003510Y008475D01*
X003464Y008574D02*
X004559Y008574D01*
X004411Y008672D02*
X003044Y008672D01*
X003010Y008574D02*
X003165Y008574D01*
X003120Y008475D02*
X002961Y008475D01*
X003142Y008771D02*
X004375Y008771D01*
X004295Y008869D02*
X003315Y008869D01*
X003391Y008968D02*
X004207Y008968D01*
X004207Y009066D02*
X003391Y009066D01*
X003333Y009165D02*
X004087Y009165D01*
X004025Y009263D02*
X003015Y009263D01*
X003019Y009268D02*
X002926Y009175D01*
X002794Y009175D01*
X002701Y009268D01*
X002701Y009400D01*
X002794Y009493D01*
X002783Y009504D01*
X002783Y009636D01*
X002876Y009730D01*
X002986Y009730D01*
X002913Y009803D01*
X002913Y009935D01*
X003006Y010028D01*
X003138Y010028D01*
X003231Y009935D01*
X003231Y009803D01*
X003138Y009710D01*
X003028Y009710D01*
X003101Y009636D01*
X003101Y009504D01*
X003008Y009411D01*
X003019Y009400D01*
X003019Y009268D01*
X003019Y009362D02*
X003156Y009362D01*
X003137Y009381D02*
X003230Y009288D01*
X003362Y009288D01*
X003456Y009381D01*
X003456Y009513D01*
X003362Y009607D01*
X003230Y009607D01*
X003137Y009513D01*
X003137Y009381D01*
X003137Y009460D02*
X003058Y009460D01*
X003101Y009559D02*
X003183Y009559D01*
X003080Y009657D02*
X003889Y009657D01*
X003877Y009756D02*
X003184Y009756D01*
X003231Y009854D02*
X003896Y009854D01*
X003830Y009953D02*
X003213Y009953D01*
X002931Y009953D02*
X002467Y009953D01*
X002467Y010051D02*
X003763Y010051D01*
X003697Y010150D02*
X002467Y010150D01*
X002467Y010248D02*
X002515Y010248D01*
X002785Y010248D02*
X003630Y010248D01*
X003564Y010347D02*
X002883Y010347D01*
X002888Y010445D02*
X003480Y010445D01*
X003385Y010544D02*
X002888Y010544D01*
X002794Y010642D02*
X003385Y010642D01*
X003437Y010741D02*
X002474Y010741D01*
X002467Y010642D02*
X002506Y010642D01*
X002488Y010839D02*
X004688Y010839D01*
X004672Y010877D02*
X004736Y010722D01*
X004854Y010604D01*
X005009Y010540D01*
X005176Y010540D01*
X005330Y010604D01*
X005448Y010722D01*
X005512Y010877D01*
X005512Y011044D01*
X005448Y011198D01*
X005330Y011316D01*
X005176Y011380D01*
X005009Y011380D01*
X004854Y011316D01*
X004736Y011198D01*
X004672Y011044D01*
X004672Y010877D01*
X004672Y010938D02*
X002502Y010938D01*
X002516Y011036D02*
X004672Y011036D01*
X004710Y011135D02*
X003333Y011135D01*
X003391Y011233D02*
X004772Y011233D01*
X004892Y011332D02*
X003391Y011332D01*
X003315Y011430D02*
X013805Y011430D01*
X013791Y011416D02*
X013884Y011509D01*
X014016Y011509D01*
X014100Y011425D01*
X014109Y011434D01*
X014241Y011434D01*
X014325Y011350D01*
X014334Y011359D01*
X014466Y011359D01*
X014541Y011284D01*
X014666Y011284D01*
X014759Y011191D01*
X014759Y011059D01*
X014666Y010966D01*
X014534Y010966D01*
X014459Y011041D01*
X014334Y011041D01*
X014250Y011125D01*
X014241Y011116D01*
X014109Y011116D01*
X014025Y011200D01*
X014016Y011191D01*
X013884Y011191D01*
X013791Y011284D01*
X013791Y011416D01*
X013791Y011332D02*
X005292Y011332D01*
X005413Y011233D02*
X013841Y011233D01*
X014090Y011135D02*
X005474Y011135D01*
X005512Y011036D02*
X014463Y011036D01*
X014366Y010984D02*
X014450Y010900D01*
X014459Y010909D01*
X014591Y010909D01*
X014675Y010825D01*
X014684Y010834D01*
X014816Y010834D01*
X014891Y010759D01*
X015016Y010759D01*
X015109Y010666D01*
X015109Y010534D01*
X015016Y010441D01*
X014884Y010441D01*
X014809Y010516D01*
X014684Y010516D01*
X014600Y010600D01*
X014591Y010591D01*
X014459Y010591D01*
X014375Y010675D01*
X014366Y010666D01*
X014234Y010666D01*
X014141Y010759D01*
X014141Y010891D01*
X014234Y010984D01*
X014366Y010984D01*
X014412Y010938D02*
X015469Y010938D01*
X015535Y010839D02*
X014661Y010839D01*
X014737Y011036D02*
X015402Y011036D01*
X015336Y011135D02*
X014759Y011135D01*
X014717Y011233D02*
X015269Y011233D01*
X015203Y011332D02*
X014493Y011332D01*
X014316Y011491D02*
X014409Y011584D01*
X014409Y011716D01*
X014316Y011809D01*
X014191Y011809D01*
X014116Y011884D01*
X013984Y011884D01*
X013975Y011875D01*
X013891Y011959D01*
X013759Y011959D01*
X013750Y011950D01*
X013666Y012034D01*
X013534Y012034D01*
X013441Y011941D01*
X013441Y011809D01*
X013534Y011716D01*
X013666Y011716D01*
X013675Y011725D01*
X013759Y011641D01*
X013891Y011641D01*
X013900Y011650D01*
X013984Y011566D01*
X014109Y011566D01*
X014184Y011491D01*
X014316Y011491D01*
X014354Y011529D02*
X015070Y011529D01*
X015136Y011430D02*
X014245Y011430D01*
X014105Y011430D02*
X014095Y011430D01*
X014146Y011529D02*
X003142Y011529D01*
X003044Y011628D02*
X013922Y011628D01*
X013927Y011923D02*
X014804Y011923D01*
X014738Y012022D02*
X013972Y012022D01*
X013966Y012016D02*
X014059Y012109D01*
X014059Y012241D01*
X013966Y012334D01*
X013841Y012334D01*
X013766Y012409D01*
X013634Y012409D01*
X013625Y012400D01*
X013541Y012484D01*
X013409Y012484D01*
X013400Y012475D01*
X013316Y012559D01*
X013184Y012559D01*
X013091Y012466D01*
X013091Y012334D01*
X013184Y012241D01*
X013316Y012241D01*
X013325Y012250D01*
X013409Y012166D01*
X013541Y012166D01*
X013550Y012175D01*
X013634Y012091D01*
X013759Y012091D01*
X013834Y012016D01*
X013966Y012016D01*
X013828Y012022D02*
X013679Y012022D01*
X013605Y012120D02*
X011206Y012120D01*
X011206Y012211D02*
X011206Y012026D01*
X011135Y011855D01*
X011004Y011724D01*
X010833Y011653D01*
X010648Y011653D01*
X010477Y011724D01*
X010346Y011855D01*
X010275Y012026D01*
X010275Y012211D01*
X010346Y012382D01*
X010477Y012513D01*
X010648Y012584D01*
X010833Y012584D01*
X011004Y012513D01*
X011135Y012382D01*
X011206Y012211D01*
X011203Y012219D02*
X013356Y012219D01*
X013521Y012022D02*
X011204Y012022D01*
X011163Y011923D02*
X013441Y011923D01*
X013441Y011825D02*
X011105Y011825D01*
X011006Y011726D02*
X013524Y011726D01*
X014176Y011825D02*
X014871Y011825D01*
X014937Y011726D02*
X014399Y011726D01*
X014409Y011628D02*
X015004Y011628D01*
X014671Y012120D02*
X014059Y012120D01*
X014059Y012219D02*
X014605Y012219D01*
X014538Y012317D02*
X013983Y012317D01*
X013610Y012416D02*
X014472Y012416D01*
X014406Y012514D02*
X013614Y012514D01*
X013591Y012491D02*
X013684Y012584D01*
X013684Y012716D01*
X013591Y012809D01*
X013484Y012809D01*
X013484Y012816D01*
X013391Y012909D01*
X013359Y012909D01*
X013359Y012966D01*
X013338Y012987D01*
X013384Y013034D01*
X013384Y013166D01*
X013291Y013259D01*
X013159Y013259D01*
X013066Y013166D01*
X013066Y013034D01*
X013087Y013012D01*
X013041Y012966D01*
X013041Y012834D01*
X013134Y012741D01*
X013166Y012741D01*
X013166Y012684D01*
X013259Y012591D01*
X013366Y012591D01*
X013366Y012584D01*
X013459Y012491D01*
X013591Y012491D01*
X013684Y012613D02*
X014339Y012613D01*
X014273Y012711D02*
X013684Y012711D01*
X013484Y012810D02*
X014206Y012810D01*
X014140Y012908D02*
X013392Y012908D01*
X013357Y013007D02*
X014073Y013007D01*
X014007Y013105D02*
X013384Y013105D01*
X013347Y013204D02*
X013941Y013204D01*
X013927Y013223D02*
X015815Y010425D01*
X015781Y010425D01*
X015688Y010332D01*
X015688Y010200D01*
X015781Y010106D01*
X015874Y010106D01*
X015887Y010093D01*
X015859Y010066D01*
X015859Y009933D01*
X015952Y009840D01*
X016084Y009840D01*
X016096Y009852D01*
X016166Y009782D01*
X016298Y009782D01*
X016391Y009876D01*
X016391Y009928D01*
X016557Y009682D01*
X016557Y009611D01*
X016662Y009506D01*
X016810Y009506D01*
X016915Y009611D01*
X016915Y009759D01*
X016810Y009864D01*
X016796Y009864D01*
X016439Y010394D01*
X016421Y010437D01*
X016405Y010444D01*
X016396Y010457D01*
X016384Y010460D01*
X016423Y010498D01*
X016423Y010630D01*
X016402Y010652D01*
X016443Y010693D01*
X016443Y010825D01*
X016349Y010918D01*
X016251Y010918D01*
X016275Y010941D01*
X016275Y011073D01*
X016181Y011167D01*
X016049Y011167D01*
X016018Y011135D01*
X016017Y011135D01*
X016093Y011211D01*
X016093Y011343D01*
X016000Y011436D01*
X015902Y011436D01*
X015925Y011460D01*
X015925Y011592D01*
X015832Y011685D01*
X015700Y011685D01*
X015668Y011653D01*
X015668Y011653D01*
X015744Y011729D01*
X015744Y011861D01*
X015650Y011954D01*
X015552Y011954D01*
X015576Y011978D01*
X015576Y012110D01*
X015482Y012203D01*
X015350Y012203D01*
X015319Y012171D01*
X015318Y012171D01*
X015394Y012247D01*
X015394Y012379D01*
X015301Y012472D01*
X015169Y012472D01*
X015133Y012437D01*
X015130Y012441D01*
X015192Y012503D01*
X015192Y012635D01*
X015098Y012728D01*
X014966Y012728D01*
X014873Y012635D01*
X014873Y012503D01*
X014908Y012467D01*
X014846Y012406D01*
X014846Y012397D01*
X014167Y013405D01*
X014167Y013476D01*
X014062Y013581D01*
X013913Y013581D01*
X013884Y013552D01*
X013884Y013641D01*
X013850Y013675D01*
X013884Y013709D01*
X013884Y013841D01*
X013850Y013875D01*
X013884Y013909D01*
X013884Y014041D01*
X013854Y014072D01*
X013905Y014123D01*
X013905Y014255D01*
X013812Y014348D01*
X013680Y014348D01*
X013586Y014255D01*
X013586Y014123D01*
X013617Y014092D01*
X013566Y014041D01*
X013566Y013909D01*
X013600Y013875D01*
X013566Y013841D01*
X013566Y013709D01*
X013600Y013675D01*
X013566Y013641D01*
X013566Y013509D01*
X013659Y013416D01*
X013791Y013416D01*
X013809Y013433D01*
X013809Y013328D01*
X013913Y013223D01*
X013927Y013223D01*
X013834Y013302D02*
X008059Y013302D01*
X008059Y013316D02*
X008050Y013325D01*
X008134Y013409D01*
X008134Y013541D01*
X008125Y013550D01*
X008209Y013634D01*
X008209Y013759D01*
X008284Y013834D01*
X008284Y013966D01*
X008191Y014059D01*
X008059Y014059D01*
X007966Y013966D01*
X007966Y013841D01*
X007891Y013766D01*
X007891Y013634D01*
X007900Y013625D01*
X007834Y013560D01*
X007834Y013566D01*
X007741Y013659D01*
X007609Y013659D01*
X007516Y013566D01*
X007516Y013484D01*
X007484Y013484D01*
X007391Y013391D01*
X007391Y013359D01*
X007334Y013359D01*
X007313Y013338D01*
X007266Y013384D01*
X007134Y013384D01*
X007041Y013291D01*
X007041Y013159D01*
X007134Y013066D01*
X007266Y013066D01*
X007288Y013087D01*
X007334Y013041D01*
X007466Y013041D01*
X007559Y013134D01*
X007559Y013166D01*
X007616Y013166D01*
X007709Y013259D01*
X007709Y013341D01*
X007741Y013341D01*
X007816Y013415D01*
X007816Y013409D01*
X007825Y013400D01*
X007741Y013316D01*
X007741Y013184D01*
X007834Y013091D01*
X007966Y013091D01*
X008059Y013184D01*
X008059Y013316D01*
X008126Y013401D02*
X013809Y013401D01*
X013884Y013598D02*
X016171Y013598D01*
X016152Y013499D02*
X015497Y013499D01*
X015509Y013486D02*
X015454Y013541D01*
X015322Y013541D01*
X015322Y013541D01*
X015267Y013596D01*
X015135Y013596D01*
X015041Y013502D01*
X015041Y013370D01*
X015135Y013277D01*
X015267Y013277D01*
X015267Y013277D01*
X015322Y013222D01*
X015454Y013222D01*
X015455Y013223D01*
X015510Y013168D01*
X015642Y013168D01*
X015642Y013168D01*
X015697Y013113D01*
X015829Y013113D01*
X015923Y013207D01*
X015923Y013339D01*
X015829Y013432D01*
X015697Y013432D01*
X015642Y013487D01*
X015510Y013487D01*
X015509Y013486D01*
X015459Y013618D02*
X015327Y013618D01*
X015259Y013686D01*
X015160Y013686D01*
X015092Y013755D01*
X014994Y013755D01*
X014925Y013823D01*
X014827Y013823D01*
X014733Y013916D01*
X014733Y014048D01*
X014827Y014142D01*
X014902Y014142D01*
X014868Y014176D01*
X014769Y014176D01*
X014701Y014245D01*
X014603Y014245D01*
X014534Y014313D01*
X014436Y014313D01*
X014343Y014407D01*
X014343Y014539D01*
X014436Y014632D01*
X014568Y014632D01*
X014636Y014563D01*
X014735Y014563D01*
X014803Y014495D01*
X014901Y014495D01*
X014970Y014427D01*
X015068Y014427D01*
X015162Y014333D01*
X015162Y014201D01*
X015068Y014108D01*
X014993Y014108D01*
X015027Y014073D01*
X015126Y014073D01*
X015194Y014005D01*
X015292Y014005D01*
X015361Y013936D01*
X015459Y013936D01*
X015553Y013843D01*
X015553Y013711D01*
X015459Y013618D01*
X015538Y013696D02*
X016325Y013696D01*
X016325Y013795D02*
X015553Y013795D01*
X015503Y013893D02*
X015882Y013893D01*
X015850Y013992D02*
X015306Y013992D01*
X015149Y014189D02*
X015953Y014189D01*
X016003Y014287D02*
X015162Y014287D01*
X015109Y014386D02*
X015526Y014386D01*
X015507Y014484D02*
X014912Y014484D01*
X014617Y014583D02*
X015524Y014583D01*
X015638Y014681D02*
X010159Y014681D01*
X010159Y014716D02*
X010150Y014725D01*
X010234Y014809D01*
X010234Y014941D01*
X010225Y014950D01*
X010309Y015034D01*
X010309Y015159D01*
X010384Y015234D01*
X010384Y015366D01*
X010291Y015459D01*
X010159Y015459D01*
X010066Y015366D01*
X010066Y015241D01*
X009991Y015166D01*
X009991Y015034D01*
X010000Y015025D01*
X009916Y014941D01*
X009916Y014809D01*
X009925Y014800D01*
X009841Y014716D01*
X009841Y014584D01*
X009934Y014491D01*
X010066Y014491D01*
X010159Y014584D01*
X010159Y014716D01*
X010205Y014780D02*
X015199Y014780D01*
X015125Y014878D02*
X011224Y014878D01*
X011198Y014852D02*
X011316Y014970D01*
X011380Y015124D01*
X011380Y015291D01*
X011316Y015446D01*
X011198Y015564D01*
X011044Y015628D01*
X010877Y015628D01*
X010722Y015564D01*
X010604Y015446D01*
X010540Y015291D01*
X010540Y015124D01*
X010604Y014970D01*
X010722Y014852D01*
X010877Y014788D01*
X011044Y014788D01*
X011198Y014852D01*
X011319Y014977D02*
X015125Y014977D01*
X015185Y015075D02*
X011360Y015075D01*
X011380Y015174D02*
X014803Y015174D01*
X014707Y015272D02*
X011380Y015272D01*
X011347Y015371D02*
X014707Y015371D01*
X014744Y015469D02*
X011293Y015469D01*
X011189Y015568D02*
X014336Y015568D01*
X014255Y015666D02*
X009476Y015666D01*
X009622Y015765D02*
X014255Y015765D01*
X014307Y015863D02*
X010287Y015863D01*
X010310Y015886D02*
X010310Y016018D01*
X010297Y016032D01*
X010301Y016036D01*
X010348Y015989D01*
X010480Y015989D01*
X010574Y016083D01*
X010574Y016215D01*
X010480Y016308D01*
X010348Y016308D01*
X010316Y016276D01*
X010269Y016322D01*
X010383Y016399D01*
X010383Y016399D01*
X010486Y016468D01*
X010487Y016471D01*
X010507Y016572D01*
X010557Y016623D01*
X010557Y016771D01*
X010452Y016876D01*
X010304Y016876D01*
X010199Y016771D01*
X010199Y016636D01*
X009820Y016381D01*
X009820Y016469D01*
X009727Y016562D01*
X009595Y016562D01*
X009501Y016469D01*
X009501Y016337D01*
X009510Y016328D01*
X009505Y016323D01*
X009439Y016389D01*
X009307Y016389D01*
X009214Y016295D01*
X009214Y016163D01*
X009307Y016070D01*
X009439Y016070D01*
X009472Y016103D01*
X009519Y016057D01*
X006798Y014222D01*
X006727Y014222D01*
X006622Y014117D01*
X006622Y013968D01*
X006706Y013884D01*
X006659Y013884D01*
X006625Y013850D01*
X006591Y013884D01*
X006459Y013884D01*
X006425Y013850D01*
X006391Y013884D01*
X006259Y013884D01*
X006225Y013850D01*
X006191Y013884D01*
X006059Y013884D01*
X005966Y013791D01*
X005966Y013659D01*
X006059Y013566D01*
X006191Y013566D01*
X006225Y013600D01*
X006259Y013566D01*
X006391Y013566D01*
X006425Y013600D01*
X006459Y013566D01*
X006591Y013566D01*
X006625Y013600D01*
X006659Y013566D01*
X006791Y013566D01*
X006884Y013659D01*
X006884Y013791D01*
X006812Y013864D01*
X006875Y013864D01*
X006980Y013968D01*
X006980Y013982D01*
X009766Y015862D01*
X009802Y015872D01*
X009813Y015891D01*
X009871Y015833D01*
X010003Y015833D01*
X010024Y015854D01*
X010085Y015793D01*
X010217Y015793D01*
X010310Y015886D01*
X010310Y015962D02*
X013800Y015962D01*
X013773Y016060D02*
X010551Y016060D01*
X010574Y016159D02*
X013781Y016159D01*
X013832Y016257D02*
X013623Y016257D01*
X013654Y016356D02*
X013811Y016356D01*
X013815Y016454D02*
X013649Y016454D01*
X013641Y016553D02*
X013716Y016553D01*
X013715Y016651D02*
X013668Y016651D01*
X013304Y016553D02*
X013122Y016553D01*
X013122Y016651D02*
X013278Y016651D01*
X013255Y016750D02*
X013077Y016750D01*
X013111Y016848D02*
X013159Y016848D01*
X013269Y016454D02*
X013033Y016454D01*
X012821Y016454D02*
X010465Y016454D01*
X010503Y016553D02*
X012732Y016553D01*
X012732Y016651D02*
X012469Y016651D01*
X012568Y016750D02*
X012777Y016750D01*
X012721Y016848D02*
X012571Y016848D01*
X012538Y016947D02*
X012721Y016947D01*
X012626Y017045D02*
X012535Y017045D01*
X012535Y017144D02*
X012581Y017144D01*
X012213Y016947D02*
X012004Y016947D01*
X012004Y017045D02*
X012145Y017045D01*
X012145Y017144D02*
X011937Y017144D01*
X011944Y017242D02*
X012027Y017242D01*
X011936Y016848D02*
X012181Y016848D01*
X012184Y016750D02*
X010557Y016750D01*
X010557Y016651D02*
X012282Y016651D01*
X011681Y016848D02*
X010480Y016848D01*
X010276Y016848D02*
X008909Y016848D01*
X008909Y016750D02*
X010199Y016750D01*
X010199Y016651D02*
X008924Y016651D01*
X008959Y016553D02*
X009585Y016553D01*
X009501Y016454D02*
X008929Y016454D01*
X008761Y016356D02*
X009274Y016356D01*
X009214Y016257D02*
X008434Y016257D01*
X008434Y016159D02*
X009219Y016159D01*
X009377Y015962D02*
X008037Y015962D01*
X007909Y015863D02*
X009231Y015863D01*
X009085Y015765D02*
X007890Y015765D01*
X007691Y015666D02*
X008939Y015666D01*
X008793Y015568D02*
X007468Y015568D01*
X007384Y015469D02*
X008647Y015469D01*
X008501Y015371D02*
X007321Y015371D01*
X007122Y015272D02*
X008355Y015272D01*
X008209Y015174D02*
X006859Y015174D01*
X006850Y015075D02*
X008063Y015075D01*
X007917Y014977D02*
X006652Y014977D01*
X006428Y014878D02*
X007771Y014878D01*
X007625Y014780D02*
X006334Y014780D01*
X006281Y014681D02*
X007479Y014681D01*
X007333Y014583D02*
X006083Y014583D01*
X005928Y014878D02*
X005713Y014878D01*
X005546Y014878D02*
X005175Y014878D01*
X005175Y014977D02*
X006038Y014977D01*
X005995Y015075D02*
X005115Y015075D01*
X005066Y015174D02*
X005299Y015174D01*
X005203Y015272D02*
X005066Y015272D01*
X005046Y015371D02*
X005203Y015371D01*
X005197Y015469D02*
X005091Y015469D01*
X005115Y015568D02*
X005118Y015568D01*
X005508Y015568D02*
X005737Y015568D01*
X005655Y015666D02*
X005508Y015666D01*
X005485Y015765D02*
X005655Y015765D01*
X005664Y015863D02*
X005556Y015863D01*
X005556Y015962D02*
X005593Y015962D01*
X005983Y015962D02*
X006165Y015962D01*
X006137Y016060D02*
X005983Y016060D01*
X005998Y016159D02*
X006145Y016159D01*
X006120Y016257D02*
X006056Y016257D01*
X005993Y015863D02*
X007056Y015863D01*
X007045Y015765D02*
X006045Y015765D01*
X006045Y015666D02*
X007099Y015666D01*
X006967Y015568D02*
X006773Y015568D01*
X006585Y015568D02*
X005964Y015568D01*
X006016Y015174D02*
X005497Y015174D01*
X005593Y015272D02*
X006597Y015272D01*
X006520Y015371D02*
X005593Y015371D01*
X005556Y015469D02*
X006520Y015469D01*
X006500Y015962D02*
X007636Y015962D01*
X007561Y016060D02*
X006527Y016060D01*
X006519Y016159D02*
X007561Y016159D01*
X007638Y016257D02*
X007005Y016257D01*
X007036Y016356D02*
X008164Y016356D01*
X008107Y016454D02*
X007479Y016454D01*
X007568Y016553D02*
X008116Y016553D01*
X008018Y016651D02*
X008674Y016651D01*
X008591Y016750D02*
X008116Y016750D01*
X008119Y016848D02*
X008364Y016848D01*
X008296Y016947D02*
X008087Y016947D01*
X008155Y017045D02*
X008296Y017045D01*
X008363Y017144D02*
X008155Y017144D01*
X008273Y017242D02*
X008356Y017242D01*
X008689Y017144D02*
X008875Y017144D01*
X008875Y017045D02*
X008686Y017045D01*
X008829Y016947D02*
X008959Y016947D01*
X009182Y016947D02*
X009202Y016947D01*
X009265Y017144D02*
X009266Y017144D01*
X009281Y017242D02*
X009392Y017242D01*
X009348Y017341D02*
X009715Y017341D01*
X009704Y017538D02*
X009826Y017538D01*
X010074Y017538D02*
X010596Y017538D01*
X010497Y017636D02*
X010172Y017636D01*
X010188Y017735D02*
X010489Y017735D01*
X010517Y017833D02*
X010188Y017833D01*
X009985Y017341D02*
X010952Y017341D01*
X011019Y017242D02*
X010009Y017242D01*
X009969Y017144D02*
X011035Y017144D01*
X011035Y017045D02*
X009770Y017045D01*
X009520Y016947D02*
X011118Y016947D01*
X011341Y016947D02*
X011614Y016947D01*
X011614Y017045D02*
X011425Y017045D01*
X011425Y017144D02*
X011611Y017144D01*
X011554Y017242D02*
X011374Y017242D01*
X011342Y017341D02*
X011462Y017341D01*
X011373Y017439D02*
X011342Y017439D01*
X010836Y017439D02*
X009464Y017439D01*
X008958Y017439D02*
X008927Y017439D01*
X008958Y017341D02*
X008838Y017341D01*
X008926Y017242D02*
X008746Y017242D01*
X009472Y016356D02*
X009501Y016356D01*
X009515Y016060D02*
X008360Y016060D01*
X008007Y016257D02*
X007803Y016257D01*
X007831Y016651D02*
X007568Y016651D01*
X007523Y016750D02*
X007732Y016750D01*
X007729Y016848D02*
X007579Y016848D01*
X007579Y016947D02*
X007762Y016947D01*
X007765Y017045D02*
X007674Y017045D01*
X007719Y017144D02*
X007765Y017144D01*
X007189Y016848D02*
X007141Y016848D01*
X007223Y016750D02*
X007045Y016750D01*
X007022Y016651D02*
X007178Y016651D01*
X007178Y016553D02*
X006996Y016553D01*
X007031Y016454D02*
X007267Y016454D01*
X006659Y016553D02*
X006584Y016553D01*
X006585Y016651D02*
X006632Y016651D01*
X006651Y016454D02*
X006485Y016454D01*
X006489Y016356D02*
X006646Y016356D01*
X006677Y016257D02*
X006468Y016257D01*
X005470Y014780D02*
X005101Y014780D01*
X005470Y014681D02*
X004662Y014681D01*
X004662Y014780D02*
X004859Y014780D01*
X004785Y014878D02*
X004610Y014878D01*
X004662Y014977D02*
X004785Y014977D01*
X004785Y015015D02*
X004785Y015015D01*
X004725Y015075D02*
X004662Y015075D01*
X004776Y014583D02*
X005557Y014583D01*
X004793Y014484D02*
X007187Y014484D01*
X007041Y014386D02*
X004774Y014386D01*
X004422Y014386D02*
X004246Y014386D01*
X004273Y014484D02*
X004403Y014484D01*
X004354Y014583D02*
X004273Y014583D01*
X004297Y014287D02*
X006895Y014287D01*
X006693Y014189D02*
X004347Y014189D01*
X004446Y014090D02*
X006622Y014090D01*
X006622Y013992D02*
X004449Y013992D01*
X004418Y013893D02*
X006697Y013893D01*
X006881Y013795D02*
X007919Y013795D01*
X007891Y013696D02*
X006884Y013696D01*
X006823Y013598D02*
X007547Y013598D01*
X007516Y013499D02*
X004148Y013499D01*
X004130Y013401D02*
X007400Y013401D01*
X007654Y013204D02*
X007741Y013204D01*
X007741Y013302D02*
X007709Y013302D01*
X007801Y013401D02*
X007824Y013401D01*
X007803Y013598D02*
X007872Y013598D01*
X008059Y013204D02*
X013103Y013204D01*
X013066Y013105D02*
X007980Y013105D01*
X007820Y013105D02*
X007530Y013105D01*
X007095Y013105D02*
X003833Y013105D01*
X003889Y013007D02*
X013081Y013007D01*
X013041Y012908D02*
X003889Y012908D01*
X003811Y012810D02*
X013065Y012810D01*
X013166Y012711D02*
X003457Y012711D01*
X003364Y012810D02*
X003577Y012810D01*
X003499Y012908D02*
X003370Y012908D01*
X003341Y013007D02*
X003408Y013007D01*
X003698Y013204D02*
X007041Y013204D01*
X007052Y013302D02*
X003664Y013302D01*
X003625Y013401D02*
X003775Y013401D01*
X003758Y013499D02*
X003625Y013499D01*
X003640Y013598D02*
X003584Y013598D01*
X003975Y013696D02*
X005966Y013696D01*
X005969Y013795D02*
X003975Y013795D01*
X003896Y013893D02*
X004091Y013893D01*
X004059Y013992D02*
X003926Y013992D01*
X003926Y014090D02*
X003990Y014090D01*
X004129Y013598D02*
X006027Y013598D01*
X006223Y013598D02*
X006227Y013598D01*
X006423Y013598D02*
X006427Y013598D01*
X006623Y013598D02*
X006627Y013598D01*
X006904Y013893D02*
X007966Y013893D01*
X007991Y013992D02*
X006993Y013992D01*
X007139Y014090D02*
X008416Y014090D01*
X008416Y014116D02*
X008416Y013984D01*
X008425Y013975D01*
X008341Y013891D01*
X008341Y013759D01*
X008350Y013750D01*
X008266Y013666D01*
X008266Y013534D01*
X008359Y013441D01*
X008491Y013441D01*
X008584Y013534D01*
X008584Y013666D01*
X008575Y013675D01*
X008659Y013759D01*
X008659Y013891D01*
X008650Y013900D01*
X008734Y013984D01*
X008734Y014109D01*
X008809Y014184D01*
X008809Y014316D01*
X008716Y014409D01*
X008584Y014409D01*
X008491Y014316D01*
X008491Y014191D01*
X008416Y014116D01*
X008488Y014189D02*
X007285Y014189D01*
X007431Y014287D02*
X008491Y014287D01*
X008560Y014386D02*
X007577Y014386D01*
X007723Y014484D02*
X008959Y014484D01*
X008941Y014466D02*
X008941Y014334D01*
X008950Y014325D01*
X008866Y014241D01*
X008866Y014109D01*
X008875Y014100D01*
X008791Y014016D01*
X008791Y013884D01*
X008884Y013791D01*
X009016Y013791D01*
X009109Y013884D01*
X009109Y014016D01*
X009100Y014025D01*
X009184Y014109D01*
X009184Y014241D01*
X009175Y014250D01*
X009259Y014334D01*
X009259Y014459D01*
X009334Y014534D01*
X009334Y014666D01*
X009241Y014759D01*
X009109Y014759D01*
X009016Y014666D01*
X009016Y014541D01*
X008941Y014466D01*
X008941Y014386D02*
X008740Y014386D01*
X008809Y014287D02*
X008912Y014287D01*
X008866Y014189D02*
X008809Y014189D01*
X008865Y014090D02*
X008734Y014090D01*
X008734Y013992D02*
X008791Y013992D01*
X008791Y013893D02*
X008657Y013893D01*
X008659Y013795D02*
X008880Y013795D01*
X009020Y013795D02*
X013566Y013795D01*
X013582Y013893D02*
X009109Y013893D01*
X009109Y013992D02*
X013566Y013992D01*
X013615Y014090D02*
X009165Y014090D01*
X009184Y014189D02*
X009361Y014189D01*
X009316Y014234D02*
X009409Y014141D01*
X009541Y014141D01*
X009634Y014234D01*
X009634Y014366D01*
X009625Y014375D01*
X009709Y014459D01*
X009709Y014591D01*
X009700Y014600D01*
X009784Y014684D01*
X009784Y014809D01*
X009859Y014884D01*
X009859Y015016D01*
X009766Y015109D01*
X009634Y015109D01*
X009541Y015016D01*
X009541Y014891D01*
X009466Y014816D01*
X009466Y014684D01*
X009475Y014675D01*
X009391Y014591D01*
X009391Y014459D01*
X009400Y014450D01*
X009316Y014366D01*
X009316Y014234D01*
X009316Y014287D02*
X009212Y014287D01*
X009259Y014386D02*
X009335Y014386D01*
X009284Y014484D02*
X009391Y014484D01*
X009391Y014583D02*
X009334Y014583D01*
X009319Y014681D02*
X009469Y014681D01*
X009466Y014780D02*
X008161Y014780D01*
X008015Y014681D02*
X009031Y014681D01*
X009016Y014583D02*
X007869Y014583D01*
X008308Y014878D02*
X009528Y014878D01*
X009541Y014977D02*
X008454Y014977D01*
X008600Y015075D02*
X009600Y015075D01*
X009800Y015075D02*
X009991Y015075D01*
X009998Y015174D02*
X008746Y015174D01*
X008892Y015272D02*
X010066Y015272D01*
X010070Y015371D02*
X009038Y015371D01*
X009184Y015469D02*
X010628Y015469D01*
X010573Y015371D02*
X010380Y015371D01*
X010384Y015272D02*
X010540Y015272D01*
X010540Y015174D02*
X010324Y015174D01*
X010309Y015075D02*
X010561Y015075D01*
X010601Y014977D02*
X010252Y014977D01*
X010234Y014878D02*
X010696Y014878D01*
X010158Y014583D02*
X014386Y014583D01*
X014343Y014484D02*
X009709Y014484D01*
X009709Y014583D02*
X009842Y014583D01*
X009841Y014681D02*
X009781Y014681D01*
X009784Y014780D02*
X009904Y014780D01*
X009916Y014878D02*
X009853Y014878D01*
X009859Y014977D02*
X009951Y014977D01*
X009636Y014386D02*
X014364Y014386D01*
X014560Y014287D02*
X013873Y014287D01*
X013905Y014189D02*
X014757Y014189D01*
X014775Y014090D02*
X013872Y014090D01*
X013884Y013992D02*
X014733Y013992D01*
X014757Y013893D02*
X013868Y013893D01*
X013884Y013795D02*
X014954Y013795D01*
X015150Y013696D02*
X013871Y013696D01*
X014144Y013499D02*
X015041Y013499D01*
X015041Y013401D02*
X014170Y013401D01*
X014236Y013302D02*
X015110Y013302D01*
X015474Y013204D02*
X014302Y013204D01*
X014369Y013105D02*
X016467Y013105D01*
X016411Y013007D02*
X014435Y013007D01*
X014502Y012908D02*
X016411Y012908D01*
X016489Y012810D02*
X014568Y012810D01*
X014635Y012711D02*
X014949Y012711D01*
X014873Y012613D02*
X014701Y012613D01*
X014767Y012514D02*
X014873Y012514D01*
X014856Y012416D02*
X014834Y012416D01*
X015192Y012514D02*
X016639Y012514D01*
X016624Y012416D02*
X015358Y012416D01*
X015394Y012317D02*
X016644Y012317D01*
X016738Y012613D02*
X015192Y012613D01*
X015115Y012711D02*
X016843Y012711D01*
X016936Y012810D02*
X016723Y012810D01*
X016801Y012908D02*
X016930Y012908D01*
X016959Y013007D02*
X016892Y013007D01*
X016602Y013204D02*
X015919Y013204D01*
X015923Y013302D02*
X016636Y013302D01*
X016675Y013401D02*
X016525Y013401D01*
X016542Y013499D02*
X016675Y013499D01*
X016660Y013598D02*
X016716Y013598D01*
X016404Y013893D02*
X016209Y013893D01*
X016240Y013992D02*
X016374Y013992D01*
X016374Y014090D02*
X016310Y014090D01*
X016054Y014386D02*
X015878Y014386D01*
X015897Y014484D02*
X016027Y014484D01*
X016027Y014583D02*
X015946Y014583D01*
X015638Y014780D02*
X015441Y014780D01*
X015515Y014878D02*
X015690Y014878D01*
X015638Y014977D02*
X015515Y014977D01*
X015575Y015075D02*
X015638Y015075D01*
X015234Y015124D02*
X015234Y015124D01*
X015234Y015174D02*
X015001Y015174D01*
X015097Y015272D02*
X015234Y015272D01*
X015254Y015371D02*
X015097Y015371D01*
X015103Y015469D02*
X015209Y015469D01*
X015185Y015568D02*
X015182Y015568D01*
X014792Y015568D02*
X014563Y015568D01*
X014645Y015666D02*
X014792Y015666D01*
X014815Y015765D02*
X014645Y015765D01*
X014636Y015863D02*
X014744Y015863D01*
X014744Y015962D02*
X014707Y015962D01*
X014317Y015962D02*
X014135Y015962D01*
X014163Y016060D02*
X014317Y016060D01*
X014302Y016159D02*
X014155Y016159D01*
X014180Y016257D02*
X014244Y016257D01*
X013295Y016257D02*
X010532Y016257D01*
X010319Y016356D02*
X013264Y016356D01*
X013618Y014287D02*
X009634Y014287D01*
X009589Y014189D02*
X013586Y014189D01*
X013579Y013696D02*
X008596Y013696D01*
X008584Y013598D02*
X013566Y013598D01*
X013576Y013499D02*
X008549Y013499D01*
X008341Y013795D02*
X008245Y013795D01*
X008209Y013696D02*
X008296Y013696D01*
X008266Y013598D02*
X008173Y013598D01*
X008134Y013499D02*
X008301Y013499D01*
X008284Y013893D02*
X008343Y013893D01*
X008416Y013992D02*
X008259Y013992D01*
X009330Y015568D02*
X010731Y015568D01*
X009841Y015863D02*
X009770Y015863D01*
X009820Y016454D02*
X009929Y016454D01*
X010075Y016553D02*
X009736Y016553D01*
X013237Y012613D02*
X003562Y012613D01*
X003661Y012514D02*
X010480Y012514D01*
X010380Y012416D02*
X003676Y012416D01*
X003656Y012317D02*
X010319Y012317D01*
X010278Y012219D02*
X003183Y012219D01*
X003165Y012317D02*
X003306Y012317D01*
X003286Y012416D02*
X003134Y012416D01*
X003282Y012120D02*
X010275Y012120D01*
X010277Y012022D02*
X003421Y012022D01*
X003510Y011923D02*
X010318Y011923D01*
X010377Y011825D02*
X003510Y011825D01*
X003464Y011726D02*
X010475Y011726D01*
X011162Y012317D02*
X013108Y012317D01*
X013091Y012416D02*
X011102Y012416D01*
X011002Y012514D02*
X013139Y012514D01*
X013361Y012514D02*
X013436Y012514D01*
X014188Y010938D02*
X005512Y010938D01*
X005497Y010839D02*
X014141Y010839D01*
X014159Y010741D02*
X010330Y010741D01*
X010272Y010765D02*
X010028Y010765D01*
X009802Y010671D01*
X009629Y010498D01*
X009535Y010272D01*
X009535Y010028D01*
X009629Y009802D01*
X009802Y009629D01*
X010028Y009535D01*
X010272Y009535D01*
X010498Y009629D01*
X010671Y009802D01*
X010765Y010028D01*
X010765Y010272D01*
X010671Y010498D01*
X010498Y010671D01*
X010272Y010765D01*
X010527Y010642D02*
X014407Y010642D01*
X014584Y010459D02*
X014491Y010366D01*
X014491Y010234D01*
X014584Y010141D01*
X014716Y010141D01*
X014725Y010150D01*
X014809Y010066D01*
X014941Y010066D01*
X014950Y010075D01*
X015034Y009991D01*
X015166Y009991D01*
X015177Y010002D01*
X015239Y009941D01*
X015371Y009941D01*
X015464Y010034D01*
X015464Y010166D01*
X015371Y010259D01*
X015239Y010259D01*
X015227Y010248D01*
X015166Y010309D01*
X015034Y010309D01*
X015025Y010300D01*
X014941Y010384D01*
X014809Y010384D01*
X014800Y010375D01*
X014716Y010459D01*
X014584Y010459D01*
X014570Y010445D02*
X010693Y010445D01*
X010734Y010347D02*
X014491Y010347D01*
X014491Y010248D02*
X010765Y010248D01*
X010765Y010150D02*
X014575Y010150D01*
X014730Y010445D02*
X014879Y010445D01*
X014978Y010347D02*
X015703Y010347D01*
X015688Y010248D02*
X015382Y010248D01*
X015464Y010150D02*
X015737Y010150D01*
X015859Y010051D02*
X015464Y010051D01*
X015383Y009953D02*
X015859Y009953D01*
X015938Y009854D02*
X010693Y009854D01*
X010734Y009953D02*
X015227Y009953D01*
X015291Y009760D02*
X015124Y009760D01*
X014970Y009696D01*
X014852Y009578D01*
X014788Y009423D01*
X014788Y009256D01*
X014852Y009102D01*
X014970Y008984D01*
X015124Y008920D01*
X015291Y008920D01*
X015446Y008984D01*
X015564Y009102D01*
X015628Y009256D01*
X015628Y009423D01*
X015564Y009578D01*
X015446Y009696D01*
X015291Y009760D01*
X015300Y009756D02*
X016507Y009756D01*
X016557Y009657D02*
X015484Y009657D01*
X015572Y009559D02*
X016609Y009559D01*
X016441Y009854D02*
X016370Y009854D01*
X016670Y010051D02*
X017515Y010051D01*
X017417Y009953D02*
X016736Y009953D01*
X016820Y009854D02*
X017412Y009854D01*
X017412Y009756D02*
X016915Y009756D01*
X016915Y009657D02*
X017506Y009657D01*
X017794Y009657D02*
X017818Y009657D01*
X017811Y009559D02*
X016863Y009559D01*
X016967Y009165D02*
X015590Y009165D01*
X015628Y009263D02*
X017790Y009263D01*
X017783Y009165D02*
X017241Y009165D01*
X017299Y009066D02*
X017775Y009066D01*
X017777Y009078D02*
X017777Y009078D01*
X017754Y008968D02*
X017513Y008968D01*
X017539Y008869D02*
X017733Y008869D01*
X017712Y008771D02*
X017595Y008771D01*
X017680Y008672D02*
X017691Y008672D01*
X017339Y008475D02*
X017180Y008475D01*
X017135Y008574D02*
X017290Y008574D01*
X017256Y008672D02*
X006378Y008672D01*
X006416Y008791D02*
X006284Y008791D01*
X006200Y008875D01*
X006191Y008866D01*
X006059Y008866D01*
X005975Y008950D01*
X005966Y008941D01*
X005834Y008941D01*
X005759Y009016D01*
X005634Y009016D01*
X005541Y009109D01*
X005541Y009241D01*
X005634Y009334D01*
X005766Y009334D01*
X005841Y009259D01*
X005966Y009259D01*
X006050Y009175D01*
X006059Y009184D01*
X006191Y009184D01*
X006275Y009100D01*
X006284Y009109D01*
X006416Y009109D01*
X006509Y009016D01*
X006509Y008884D01*
X006416Y008791D01*
X006495Y008869D02*
X016985Y008869D01*
X016909Y008968D02*
X015408Y008968D01*
X015528Y009066D02*
X016909Y009066D01*
X017158Y008771D02*
X006154Y008771D01*
X006195Y008869D02*
X006205Y008869D01*
X006055Y008869D02*
X005164Y008869D01*
X005230Y008771D02*
X005946Y008771D01*
X005891Y008672D02*
X005296Y008672D01*
X005363Y008574D02*
X005901Y008574D01*
X006124Y008475D02*
X005429Y008475D01*
X005444Y007884D02*
X005466Y007884D01*
X005427Y007786D02*
X005533Y007786D01*
X005599Y007687D02*
X005427Y007687D01*
X005351Y007589D02*
X005665Y007589D01*
X006864Y007786D02*
X006939Y007786D01*
X006859Y008377D02*
X009137Y008377D01*
X009195Y008475D02*
X006859Y008475D01*
X006776Y008574D02*
X009294Y008574D01*
X009825Y008574D02*
X016836Y008574D01*
X016790Y008475D02*
X009923Y008475D01*
X009982Y008377D02*
X016790Y008377D01*
X016879Y008278D02*
X010023Y008278D01*
X010025Y008180D02*
X017018Y008180D01*
X017117Y008081D02*
X010022Y008081D01*
X009981Y007983D02*
X016644Y007983D01*
X016624Y007884D02*
X009920Y007884D01*
X009820Y007786D02*
X016639Y007786D01*
X017014Y007884D02*
X017166Y007884D01*
X017135Y007983D02*
X016994Y007983D01*
X016675Y006899D02*
X016525Y006899D01*
X016542Y006801D02*
X016675Y006801D01*
X016660Y006702D02*
X016716Y006702D01*
X015638Y005619D02*
X014830Y005619D01*
X014830Y005520D02*
X015199Y005520D01*
X015441Y005520D02*
X015638Y005520D01*
X015690Y005422D02*
X015515Y005422D01*
X015515Y005323D02*
X015638Y005323D01*
X015638Y005225D02*
X015575Y005225D01*
X015515Y005285D02*
X015515Y005285D01*
X015524Y005717D02*
X014743Y005717D01*
X012285Y005619D02*
X011269Y005619D01*
X009007Y004831D02*
X005556Y004831D01*
X002620Y008574D02*
X002613Y008574D01*
X002599Y008672D02*
X002620Y008672D01*
X002585Y008771D02*
X002705Y008771D01*
X002761Y008869D02*
X002571Y008869D01*
X002557Y008968D02*
X002787Y008968D01*
X003001Y009066D02*
X002543Y009066D01*
X002530Y009165D02*
X003059Y009165D01*
X003436Y009362D02*
X004029Y009362D01*
X003872Y009460D02*
X003456Y009460D01*
X003410Y009559D02*
X003857Y009559D01*
X004282Y009165D02*
X004283Y009165D01*
X004765Y009460D02*
X005639Y009460D01*
X005625Y009475D02*
X005709Y009391D01*
X005841Y009391D01*
X005850Y009400D01*
X005934Y009316D01*
X006066Y009316D01*
X006159Y009409D01*
X006159Y009541D01*
X006066Y009634D01*
X005934Y009634D01*
X005925Y009625D01*
X005841Y009709D01*
X005709Y009709D01*
X005700Y009700D01*
X005616Y009784D01*
X005491Y009784D01*
X005416Y009859D01*
X005284Y009859D01*
X005191Y009766D01*
X005191Y009634D01*
X005284Y009541D01*
X005409Y009541D01*
X005484Y009466D01*
X005616Y009466D01*
X005625Y009475D01*
X005563Y009263D02*
X004898Y009263D01*
X004964Y009165D02*
X005541Y009165D01*
X005583Y009066D02*
X005031Y009066D01*
X005097Y008968D02*
X005807Y008968D01*
X005837Y009263D02*
X014788Y009263D01*
X014788Y009362D02*
X006112Y009362D01*
X006159Y009460D02*
X014803Y009460D01*
X014844Y009559D02*
X010330Y009559D01*
X010527Y009657D02*
X014932Y009657D01*
X015115Y009756D02*
X010626Y009756D01*
X010765Y010051D02*
X014973Y010051D01*
X015227Y010248D02*
X015228Y010248D01*
X015109Y010544D02*
X015734Y010544D01*
X015668Y010642D02*
X015109Y010642D01*
X015034Y010741D02*
X015602Y010741D01*
X015801Y010445D02*
X015021Y010445D01*
X014656Y010544D02*
X010626Y010544D01*
X009970Y010741D02*
X005456Y010741D01*
X005368Y010642D02*
X009773Y010642D01*
X009674Y010544D02*
X005185Y010544D01*
X005000Y010544D02*
X003793Y010544D01*
X003743Y010642D02*
X004816Y010642D01*
X004728Y010741D02*
X003691Y010741D01*
X003859Y010445D02*
X003930Y010445D01*
X004362Y010445D02*
X009607Y010445D01*
X009566Y010347D02*
X005083Y010347D01*
X005071Y010359D02*
X005128Y010303D01*
X005134Y010309D01*
X005266Y010309D01*
X005350Y010225D01*
X005359Y010234D01*
X005491Y010234D01*
X005575Y010150D01*
X005584Y010159D01*
X005716Y010159D01*
X005809Y010066D01*
X005809Y009934D01*
X005716Y009841D01*
X005584Y009841D01*
X005500Y009925D01*
X005491Y009916D01*
X005359Y009916D01*
X005275Y010000D01*
X005266Y009991D01*
X005134Y009991D01*
X005078Y010047D01*
X005071Y010041D01*
X004939Y010041D01*
X004846Y010134D01*
X004846Y010266D01*
X004939Y010359D01*
X005071Y010359D01*
X004927Y010347D02*
X004441Y010347D01*
X004441Y010248D02*
X004846Y010248D01*
X004846Y010150D02*
X004563Y010150D01*
X004612Y010051D02*
X004928Y010051D01*
X005191Y009756D02*
X004566Y009756D01*
X004632Y009657D02*
X005191Y009657D01*
X005266Y009559D02*
X004698Y009559D01*
X004831Y009362D02*
X005888Y009362D01*
X005893Y009657D02*
X009773Y009657D01*
X009674Y009756D02*
X005644Y009756D01*
X005570Y009854D02*
X005421Y009854D01*
X005322Y009953D02*
X004597Y009953D01*
X004499Y009854D02*
X005279Y009854D01*
X005327Y010248D02*
X009535Y010248D01*
X009535Y010150D02*
X005725Y010150D01*
X005809Y010051D02*
X009535Y010051D01*
X009566Y009953D02*
X005809Y009953D01*
X005730Y009854D02*
X009607Y009854D01*
X009970Y009559D02*
X006141Y009559D01*
X006210Y009165D02*
X014826Y009165D01*
X014887Y009066D02*
X006459Y009066D01*
X006509Y008968D02*
X015008Y008968D01*
X015628Y009362D02*
X017797Y009362D01*
X017804Y009460D02*
X015612Y009460D01*
X016470Y010347D02*
X017087Y010347D01*
X017069Y010365D02*
X017162Y010272D01*
X017294Y010272D01*
X017387Y010365D01*
X017387Y010497D01*
X017314Y010570D01*
X017424Y010570D01*
X017517Y010664D01*
X017517Y010796D01*
X017506Y010807D01*
X017599Y010900D01*
X017599Y011032D01*
X017506Y011125D01*
X017374Y011125D01*
X017281Y011032D01*
X017281Y010900D01*
X017292Y010889D01*
X017199Y010796D01*
X017199Y010664D01*
X017272Y010590D01*
X017162Y010590D01*
X017069Y010497D01*
X017069Y010365D01*
X017069Y010445D02*
X016404Y010445D01*
X016423Y010544D02*
X017116Y010544D01*
X017220Y010642D02*
X016411Y010642D01*
X016443Y010741D02*
X016890Y010741D01*
X016844Y010787D02*
X016938Y010693D01*
X017070Y010693D01*
X017163Y010787D01*
X017163Y010919D01*
X017070Y011012D01*
X016938Y011012D01*
X016844Y010919D01*
X016844Y010787D01*
X016844Y010839D02*
X016428Y010839D01*
X016271Y010938D02*
X016864Y010938D01*
X016967Y011135D02*
X016213Y011135D01*
X016275Y011036D02*
X017285Y011036D01*
X017281Y010938D02*
X017144Y010938D01*
X017163Y010839D02*
X017242Y010839D01*
X017199Y010741D02*
X017117Y010741D01*
X017340Y010544D02*
X017824Y010544D01*
X017818Y010642D02*
X017496Y010642D01*
X017517Y010741D02*
X017811Y010741D01*
X017804Y010839D02*
X017539Y010839D01*
X017599Y010938D02*
X017797Y010938D01*
X017790Y011036D02*
X017595Y011036D01*
X017783Y011135D02*
X017241Y011135D01*
X017299Y011233D02*
X017775Y011233D01*
X017754Y011332D02*
X017513Y011332D01*
X017539Y011430D02*
X017733Y011430D01*
X017712Y011529D02*
X017595Y011529D01*
X017680Y011628D02*
X017691Y011628D01*
X017339Y011825D02*
X017180Y011825D01*
X017135Y011726D02*
X017290Y011726D01*
X017256Y011628D02*
X015889Y011628D01*
X015925Y011529D02*
X017158Y011529D01*
X016985Y011430D02*
X016005Y011430D01*
X016093Y011332D02*
X016909Y011332D01*
X016909Y011233D02*
X016093Y011233D01*
X016018Y011135D02*
X016017Y011135D01*
X015741Y011726D02*
X016836Y011726D01*
X016790Y011825D02*
X015744Y011825D01*
X015682Y011923D02*
X016790Y011923D01*
X016879Y012022D02*
X015576Y012022D01*
X015565Y012120D02*
X017018Y012120D01*
X017117Y012219D02*
X015365Y012219D01*
X015697Y013432D02*
X015697Y013432D01*
X015861Y013401D02*
X016170Y013401D01*
X015854Y014090D02*
X015011Y014090D01*
X017014Y012416D02*
X017166Y012416D01*
X017135Y012317D02*
X016994Y012317D01*
X017387Y010445D02*
X017831Y010445D01*
X017838Y010347D02*
X017369Y010347D01*
X017785Y010051D02*
X017845Y010051D01*
X003165Y011726D02*
X003010Y011726D01*
X002961Y011825D02*
X003120Y011825D01*
X002705Y011529D02*
X002585Y011529D01*
X002571Y011430D02*
X002761Y011430D01*
X002787Y011332D02*
X002557Y011332D01*
X002543Y011233D02*
X003001Y011233D01*
X003059Y011135D02*
X002530Y011135D01*
X002599Y011628D02*
X002620Y011628D01*
X002613Y011726D02*
X002620Y011726D01*
X002467Y009854D02*
X002913Y009854D01*
X002960Y009756D02*
X002467Y009756D01*
X002467Y009657D02*
X002804Y009657D01*
X002783Y009559D02*
X002474Y009559D01*
X002488Y009460D02*
X002761Y009460D01*
X002701Y009362D02*
X002502Y009362D01*
X002516Y009263D02*
X002705Y009263D01*
M02*
