G75*
%MOIN*%
%OFA0B0*%
%FSLAX25Y25*%
%IPPOS*%
%LPD*%
%AMOC8*
5,1,8,0,0,1.08239X$1,22.5*
%
%ADD10C,0.03353*%
%ADD11R,0.01187X0.04888*%
%ADD12C,0.02500*%
D10*
X0082155Y0058533D03*
X0060817Y0097116D03*
X0058730Y0099872D03*
X0056526Y0096289D03*
X0082155Y0108533D03*
X0104596Y0100659D03*
X0103809Y0097116D03*
X0107352Y0097116D03*
X0114793Y0096289D03*
X0116998Y0099872D03*
X0119085Y0097116D03*
X0140423Y0108533D03*
X0162864Y0100659D03*
X0162077Y0097116D03*
X0165620Y0097116D03*
X0173061Y0096289D03*
X0175266Y0099872D03*
X0177352Y0097116D03*
X0198691Y0108533D03*
X0221132Y0100659D03*
X0220344Y0097116D03*
X0223888Y0097116D03*
X0231329Y0096289D03*
X0233533Y0099872D03*
X0235620Y0097116D03*
X0256959Y0108533D03*
X0279400Y0100659D03*
X0278612Y0097116D03*
X0282155Y0097116D03*
X0256959Y0134124D03*
X0235620Y0172707D03*
X0233533Y0175463D03*
X0231329Y0171880D03*
X0223888Y0172707D03*
X0220344Y0172707D03*
X0221132Y0176250D03*
X0198691Y0184124D03*
X0177352Y0172707D03*
X0175266Y0175463D03*
X0173061Y0171880D03*
X0165620Y0172707D03*
X0162077Y0172707D03*
X0162864Y0176250D03*
X0140423Y0184124D03*
X0119085Y0172707D03*
X0116998Y0175463D03*
X0114793Y0171880D03*
X0107352Y0172707D03*
X0103809Y0172707D03*
X0104596Y0176250D03*
X0082155Y0184124D03*
X0060817Y0172707D03*
X0058730Y0175463D03*
X0056526Y0171880D03*
X0082155Y0134124D03*
X0140423Y0134124D03*
X0198691Y0134124D03*
X0256959Y0184124D03*
X0279400Y0176250D03*
X0278612Y0172707D03*
X0282155Y0172707D03*
X0256959Y0209715D03*
X0235620Y0248297D03*
X0233533Y0251053D03*
X0231329Y0247470D03*
X0223888Y0248297D03*
X0220344Y0248297D03*
X0221132Y0251841D03*
X0198691Y0259715D03*
X0177352Y0248297D03*
X0175266Y0251053D03*
X0173061Y0247470D03*
X0165620Y0248297D03*
X0162077Y0248297D03*
X0162864Y0251841D03*
X0140423Y0259715D03*
X0119085Y0248297D03*
X0116998Y0251053D03*
X0114793Y0247470D03*
X0107352Y0248297D03*
X0103809Y0248297D03*
X0104596Y0251841D03*
X0082155Y0259715D03*
X0060817Y0248297D03*
X0058730Y0251053D03*
X0056526Y0247470D03*
X0082155Y0209715D03*
X0140423Y0209715D03*
X0198691Y0209715D03*
X0256959Y0259715D03*
X0279400Y0251841D03*
X0278612Y0248297D03*
X0282155Y0248297D03*
X0256959Y0058533D03*
X0198691Y0058533D03*
X0140423Y0058533D03*
D11*
X0140423Y0081880D03*
X0138848Y0081880D03*
X0137274Y0081880D03*
X0135699Y0081880D03*
X0134124Y0081880D03*
X0132549Y0081880D03*
X0130974Y0081880D03*
X0129400Y0081880D03*
X0127825Y0081880D03*
X0126250Y0081880D03*
X0124675Y0081880D03*
X0123100Y0081880D03*
X0121526Y0081880D03*
X0119951Y0081880D03*
X0118376Y0081880D03*
X0116801Y0081880D03*
X0115226Y0081880D03*
X0113652Y0081880D03*
X0108927Y0081880D03*
X0107352Y0081880D03*
X0105778Y0081880D03*
X0104203Y0081880D03*
X0102628Y0081880D03*
X0101053Y0081880D03*
X0099478Y0081880D03*
X0097904Y0081880D03*
X0096329Y0081880D03*
X0094754Y0081880D03*
X0093179Y0081880D03*
X0091604Y0081880D03*
X0090030Y0081880D03*
X0088455Y0081880D03*
X0086880Y0081880D03*
X0085305Y0081880D03*
X0083730Y0081880D03*
X0082155Y0081880D03*
X0080581Y0081880D03*
X0079006Y0081880D03*
X0077431Y0081880D03*
X0075856Y0081880D03*
X0074281Y0081880D03*
X0072707Y0081880D03*
X0071132Y0081880D03*
X0069557Y0081880D03*
X0067982Y0081880D03*
X0066407Y0081880D03*
X0064833Y0081880D03*
X0063258Y0081880D03*
X0061683Y0081880D03*
X0060108Y0081880D03*
X0058533Y0081880D03*
X0056959Y0081880D03*
X0055384Y0081880D03*
X0055384Y0091093D03*
X0056959Y0091093D03*
X0058533Y0091093D03*
X0060108Y0091093D03*
X0061683Y0091093D03*
X0063258Y0091093D03*
X0064833Y0091093D03*
X0066407Y0091093D03*
X0067982Y0091093D03*
X0069557Y0091093D03*
X0071132Y0091093D03*
X0072707Y0091093D03*
X0074281Y0091093D03*
X0075856Y0091093D03*
X0077431Y0091093D03*
X0079006Y0091093D03*
X0080581Y0091093D03*
X0082155Y0091093D03*
X0083730Y0091093D03*
X0085305Y0091093D03*
X0086880Y0091093D03*
X0088455Y0091093D03*
X0090030Y0091093D03*
X0091604Y0091093D03*
X0093179Y0091093D03*
X0094754Y0091093D03*
X0096329Y0091093D03*
X0097904Y0091093D03*
X0099478Y0091093D03*
X0101053Y0091093D03*
X0102628Y0091093D03*
X0104203Y0091093D03*
X0105778Y0091093D03*
X0107352Y0091093D03*
X0108927Y0091093D03*
X0113652Y0091093D03*
X0115226Y0091093D03*
X0116801Y0091093D03*
X0118376Y0091093D03*
X0119951Y0091093D03*
X0121526Y0091093D03*
X0123100Y0091093D03*
X0124675Y0091093D03*
X0126250Y0091093D03*
X0127825Y0091093D03*
X0129400Y0091093D03*
X0130974Y0091093D03*
X0132549Y0091093D03*
X0134124Y0091093D03*
X0135699Y0091093D03*
X0137274Y0091093D03*
X0138848Y0091093D03*
X0140423Y0091093D03*
X0141998Y0091093D03*
X0143573Y0091093D03*
X0145148Y0091093D03*
X0146722Y0091093D03*
X0148297Y0091093D03*
X0149872Y0091093D03*
X0151447Y0091093D03*
X0153022Y0091093D03*
X0154596Y0091093D03*
X0156171Y0091093D03*
X0157746Y0091093D03*
X0159321Y0091093D03*
X0160896Y0091093D03*
X0162470Y0091093D03*
X0164045Y0091093D03*
X0165620Y0091093D03*
X0167195Y0091093D03*
X0171919Y0091093D03*
X0173494Y0091093D03*
X0175069Y0091093D03*
X0176644Y0091093D03*
X0178218Y0091093D03*
X0179793Y0091093D03*
X0181368Y0091093D03*
X0182943Y0091093D03*
X0184518Y0091093D03*
X0186093Y0091093D03*
X0187667Y0091093D03*
X0189242Y0091093D03*
X0190817Y0091093D03*
X0192392Y0091093D03*
X0193967Y0091093D03*
X0195541Y0091093D03*
X0197116Y0091093D03*
X0198691Y0091093D03*
X0200266Y0091093D03*
X0201841Y0091093D03*
X0203415Y0091093D03*
X0204990Y0091093D03*
X0206565Y0091093D03*
X0208140Y0091093D03*
X0209715Y0091093D03*
X0211289Y0091093D03*
X0212864Y0091093D03*
X0214439Y0091093D03*
X0216014Y0091093D03*
X0217589Y0091093D03*
X0219163Y0091093D03*
X0220738Y0091093D03*
X0222313Y0091093D03*
X0223888Y0091093D03*
X0225463Y0091093D03*
X0230187Y0091093D03*
X0231762Y0091093D03*
X0233337Y0091093D03*
X0234911Y0091093D03*
X0236486Y0091093D03*
X0238061Y0091093D03*
X0239636Y0091093D03*
X0241211Y0091093D03*
X0242785Y0091093D03*
X0244360Y0091093D03*
X0245935Y0091093D03*
X0247510Y0091093D03*
X0249085Y0091093D03*
X0250659Y0091093D03*
X0252234Y0091093D03*
X0253809Y0091093D03*
X0255384Y0091093D03*
X0256959Y0091093D03*
X0258533Y0091093D03*
X0260108Y0091093D03*
X0261683Y0091093D03*
X0263258Y0091093D03*
X0264833Y0091093D03*
X0266407Y0091093D03*
X0267982Y0091093D03*
X0269557Y0091093D03*
X0271132Y0091093D03*
X0272707Y0091093D03*
X0274281Y0091093D03*
X0275856Y0091093D03*
X0277431Y0091093D03*
X0279006Y0091093D03*
X0280581Y0091093D03*
X0282155Y0091093D03*
X0283730Y0091093D03*
X0283730Y0081880D03*
X0282155Y0081880D03*
X0280581Y0081880D03*
X0279006Y0081880D03*
X0277431Y0081880D03*
X0275856Y0081880D03*
X0274281Y0081880D03*
X0272707Y0081880D03*
X0271132Y0081880D03*
X0269557Y0081880D03*
X0267982Y0081880D03*
X0266407Y0081880D03*
X0264833Y0081880D03*
X0263258Y0081880D03*
X0261683Y0081880D03*
X0260108Y0081880D03*
X0258533Y0081880D03*
X0256959Y0081880D03*
X0255384Y0081880D03*
X0253809Y0081880D03*
X0252234Y0081880D03*
X0250659Y0081880D03*
X0249085Y0081880D03*
X0247510Y0081880D03*
X0245935Y0081880D03*
X0244360Y0081880D03*
X0242785Y0081880D03*
X0241211Y0081880D03*
X0239636Y0081880D03*
X0238061Y0081880D03*
X0236486Y0081880D03*
X0234911Y0081880D03*
X0233337Y0081880D03*
X0231762Y0081880D03*
X0230187Y0081880D03*
X0225463Y0081880D03*
X0223888Y0081880D03*
X0222313Y0081880D03*
X0220738Y0081880D03*
X0219163Y0081880D03*
X0217589Y0081880D03*
X0216014Y0081880D03*
X0214439Y0081880D03*
X0212864Y0081880D03*
X0211289Y0081880D03*
X0209715Y0081880D03*
X0208140Y0081880D03*
X0206565Y0081880D03*
X0204990Y0081880D03*
X0203415Y0081880D03*
X0201841Y0081880D03*
X0200266Y0081880D03*
X0198691Y0081880D03*
X0197116Y0081880D03*
X0195541Y0081880D03*
X0193967Y0081880D03*
X0192392Y0081880D03*
X0190817Y0081880D03*
X0189242Y0081880D03*
X0187667Y0081880D03*
X0186093Y0081880D03*
X0184518Y0081880D03*
X0182943Y0081880D03*
X0181368Y0081880D03*
X0179793Y0081880D03*
X0178218Y0081880D03*
X0176644Y0081880D03*
X0175069Y0081880D03*
X0173494Y0081880D03*
X0171919Y0081880D03*
X0167195Y0081880D03*
X0165620Y0081880D03*
X0164045Y0081880D03*
X0162470Y0081880D03*
X0160896Y0081880D03*
X0159321Y0081880D03*
X0157746Y0081880D03*
X0156171Y0081880D03*
X0154596Y0081880D03*
X0153022Y0081880D03*
X0151447Y0081880D03*
X0149872Y0081880D03*
X0148297Y0081880D03*
X0146722Y0081880D03*
X0145148Y0081880D03*
X0143573Y0081880D03*
X0141998Y0081880D03*
X0141998Y0157470D03*
X0140423Y0157470D03*
X0138848Y0157470D03*
X0137274Y0157470D03*
X0135699Y0157470D03*
X0134124Y0157470D03*
X0132549Y0157470D03*
X0130974Y0157470D03*
X0129400Y0157470D03*
X0127825Y0157470D03*
X0126250Y0157470D03*
X0124675Y0157470D03*
X0123100Y0157470D03*
X0121526Y0157470D03*
X0119951Y0157470D03*
X0118376Y0157470D03*
X0116801Y0157470D03*
X0115226Y0157470D03*
X0113652Y0157470D03*
X0108927Y0157470D03*
X0107352Y0157470D03*
X0105778Y0157470D03*
X0104203Y0157470D03*
X0102628Y0157470D03*
X0101053Y0157470D03*
X0099478Y0157470D03*
X0097904Y0157470D03*
X0096329Y0157470D03*
X0094754Y0157470D03*
X0093179Y0157470D03*
X0091604Y0157470D03*
X0090030Y0157470D03*
X0088455Y0157470D03*
X0086880Y0157470D03*
X0085305Y0157470D03*
X0083730Y0157470D03*
X0082155Y0157470D03*
X0080581Y0157470D03*
X0079006Y0157470D03*
X0077431Y0157470D03*
X0075856Y0157470D03*
X0074281Y0157470D03*
X0072707Y0157470D03*
X0071132Y0157470D03*
X0069557Y0157470D03*
X0067982Y0157470D03*
X0066407Y0157470D03*
X0064833Y0157470D03*
X0063258Y0157470D03*
X0061683Y0157470D03*
X0060108Y0157470D03*
X0058533Y0157470D03*
X0056959Y0157470D03*
X0055384Y0157470D03*
X0055384Y0166683D03*
X0056959Y0166683D03*
X0058533Y0166683D03*
X0060108Y0166683D03*
X0061683Y0166683D03*
X0063258Y0166683D03*
X0064833Y0166683D03*
X0066407Y0166683D03*
X0067982Y0166683D03*
X0069557Y0166683D03*
X0071132Y0166683D03*
X0072707Y0166683D03*
X0074281Y0166683D03*
X0075856Y0166683D03*
X0077431Y0166683D03*
X0079006Y0166683D03*
X0080581Y0166683D03*
X0082155Y0166683D03*
X0083730Y0166683D03*
X0085305Y0166683D03*
X0086880Y0166683D03*
X0088455Y0166683D03*
X0090030Y0166683D03*
X0091604Y0166683D03*
X0093179Y0166683D03*
X0094754Y0166683D03*
X0096329Y0166683D03*
X0097904Y0166683D03*
X0099478Y0166683D03*
X0101053Y0166683D03*
X0102628Y0166683D03*
X0104203Y0166683D03*
X0105778Y0166683D03*
X0107352Y0166683D03*
X0108927Y0166683D03*
X0113652Y0166683D03*
X0115226Y0166683D03*
X0116801Y0166683D03*
X0118376Y0166683D03*
X0119951Y0166683D03*
X0121526Y0166683D03*
X0123100Y0166683D03*
X0124675Y0166683D03*
X0126250Y0166683D03*
X0127825Y0166683D03*
X0129400Y0166683D03*
X0130974Y0166683D03*
X0132549Y0166683D03*
X0134124Y0166683D03*
X0135699Y0166683D03*
X0137274Y0166683D03*
X0138848Y0166683D03*
X0140423Y0166683D03*
X0141998Y0166683D03*
X0143573Y0166683D03*
X0145148Y0166683D03*
X0146722Y0166683D03*
X0148297Y0166683D03*
X0149872Y0166683D03*
X0151447Y0166683D03*
X0153022Y0166683D03*
X0154596Y0166683D03*
X0156171Y0166683D03*
X0157746Y0166683D03*
X0159321Y0166683D03*
X0160896Y0166683D03*
X0162470Y0166683D03*
X0164045Y0166683D03*
X0165620Y0166683D03*
X0167195Y0166683D03*
X0171919Y0166683D03*
X0173494Y0166683D03*
X0175069Y0166683D03*
X0176644Y0166683D03*
X0178218Y0166683D03*
X0179793Y0166683D03*
X0181368Y0166683D03*
X0182943Y0166683D03*
X0184518Y0166683D03*
X0186093Y0166683D03*
X0187667Y0166683D03*
X0189242Y0166683D03*
X0190817Y0166683D03*
X0192392Y0166683D03*
X0193967Y0166683D03*
X0195541Y0166683D03*
X0197116Y0166683D03*
X0198691Y0166683D03*
X0200266Y0166683D03*
X0201841Y0166683D03*
X0203415Y0166683D03*
X0204990Y0166683D03*
X0206565Y0166683D03*
X0208140Y0166683D03*
X0209715Y0166683D03*
X0211289Y0166683D03*
X0212864Y0166683D03*
X0214439Y0166683D03*
X0216014Y0166683D03*
X0217589Y0166683D03*
X0219163Y0166683D03*
X0220738Y0166683D03*
X0222313Y0166683D03*
X0223888Y0166683D03*
X0225463Y0166683D03*
X0230187Y0166683D03*
X0231762Y0166683D03*
X0233337Y0166683D03*
X0234911Y0166683D03*
X0236486Y0166683D03*
X0238061Y0166683D03*
X0239636Y0166683D03*
X0241211Y0166683D03*
X0242785Y0166683D03*
X0244360Y0166683D03*
X0245935Y0166683D03*
X0247510Y0166683D03*
X0249085Y0166683D03*
X0250659Y0166683D03*
X0252234Y0166683D03*
X0253809Y0166683D03*
X0255384Y0166683D03*
X0256959Y0166683D03*
X0258533Y0166683D03*
X0260108Y0166683D03*
X0261683Y0166683D03*
X0263258Y0166683D03*
X0264833Y0166683D03*
X0266407Y0166683D03*
X0267982Y0166683D03*
X0269557Y0166683D03*
X0271132Y0166683D03*
X0272707Y0166683D03*
X0274281Y0166683D03*
X0275856Y0166683D03*
X0277431Y0166683D03*
X0279006Y0166683D03*
X0280581Y0166683D03*
X0282155Y0166683D03*
X0283730Y0166683D03*
X0283730Y0157470D03*
X0282155Y0157470D03*
X0280581Y0157470D03*
X0279006Y0157470D03*
X0277431Y0157470D03*
X0275856Y0157470D03*
X0274281Y0157470D03*
X0272707Y0157470D03*
X0271132Y0157470D03*
X0269557Y0157470D03*
X0267982Y0157470D03*
X0266407Y0157470D03*
X0264833Y0157470D03*
X0263258Y0157470D03*
X0261683Y0157470D03*
X0260108Y0157470D03*
X0258533Y0157470D03*
X0256959Y0157470D03*
X0255384Y0157470D03*
X0253809Y0157470D03*
X0252234Y0157470D03*
X0250659Y0157470D03*
X0249085Y0157470D03*
X0247510Y0157470D03*
X0245935Y0157470D03*
X0244360Y0157470D03*
X0242785Y0157470D03*
X0241211Y0157470D03*
X0239636Y0157470D03*
X0238061Y0157470D03*
X0236486Y0157470D03*
X0234911Y0157470D03*
X0233337Y0157470D03*
X0231762Y0157470D03*
X0230187Y0157470D03*
X0225463Y0157470D03*
X0223888Y0157470D03*
X0222313Y0157470D03*
X0220738Y0157470D03*
X0219163Y0157470D03*
X0217589Y0157470D03*
X0216014Y0157470D03*
X0214439Y0157470D03*
X0212864Y0157470D03*
X0211289Y0157470D03*
X0209715Y0157470D03*
X0208140Y0157470D03*
X0206565Y0157470D03*
X0204990Y0157470D03*
X0203415Y0157470D03*
X0201841Y0157470D03*
X0200266Y0157470D03*
X0198691Y0157470D03*
X0197116Y0157470D03*
X0195541Y0157470D03*
X0193967Y0157470D03*
X0192392Y0157470D03*
X0190817Y0157470D03*
X0189242Y0157470D03*
X0187667Y0157470D03*
X0186093Y0157470D03*
X0184518Y0157470D03*
X0182943Y0157470D03*
X0181368Y0157470D03*
X0179793Y0157470D03*
X0178218Y0157470D03*
X0176644Y0157470D03*
X0175069Y0157470D03*
X0173494Y0157470D03*
X0171919Y0157470D03*
X0167195Y0157470D03*
X0165620Y0157470D03*
X0164045Y0157470D03*
X0162470Y0157470D03*
X0160896Y0157470D03*
X0159321Y0157470D03*
X0157746Y0157470D03*
X0156171Y0157470D03*
X0154596Y0157470D03*
X0153022Y0157470D03*
X0151447Y0157470D03*
X0149872Y0157470D03*
X0148297Y0157470D03*
X0146722Y0157470D03*
X0145148Y0157470D03*
X0143573Y0157470D03*
X0143573Y0233061D03*
X0145148Y0233061D03*
X0146722Y0233061D03*
X0148297Y0233061D03*
X0149872Y0233061D03*
X0151447Y0233061D03*
X0153022Y0233061D03*
X0154596Y0233061D03*
X0156171Y0233061D03*
X0157746Y0233061D03*
X0159321Y0233061D03*
X0160896Y0233061D03*
X0162470Y0233061D03*
X0164045Y0233061D03*
X0165620Y0233061D03*
X0167195Y0233061D03*
X0171919Y0233061D03*
X0173494Y0233061D03*
X0175069Y0233061D03*
X0176644Y0233061D03*
X0178218Y0233061D03*
X0179793Y0233061D03*
X0181368Y0233061D03*
X0182943Y0233061D03*
X0184518Y0233061D03*
X0186093Y0233061D03*
X0187667Y0233061D03*
X0189242Y0233061D03*
X0190817Y0233061D03*
X0192392Y0233061D03*
X0193967Y0233061D03*
X0195541Y0233061D03*
X0197116Y0233061D03*
X0198691Y0233061D03*
X0200266Y0233061D03*
X0201841Y0233061D03*
X0203415Y0233061D03*
X0204990Y0233061D03*
X0206565Y0233061D03*
X0208140Y0233061D03*
X0209715Y0233061D03*
X0211289Y0233061D03*
X0212864Y0233061D03*
X0214439Y0233061D03*
X0216014Y0233061D03*
X0217589Y0233061D03*
X0219163Y0233061D03*
X0220738Y0233061D03*
X0222313Y0233061D03*
X0223888Y0233061D03*
X0225463Y0233061D03*
X0230187Y0233061D03*
X0231762Y0233061D03*
X0233337Y0233061D03*
X0234911Y0233061D03*
X0236486Y0233061D03*
X0238061Y0233061D03*
X0239636Y0233061D03*
X0241211Y0233061D03*
X0242785Y0233061D03*
X0244360Y0233061D03*
X0245935Y0233061D03*
X0247510Y0233061D03*
X0249085Y0233061D03*
X0250659Y0233061D03*
X0252234Y0233061D03*
X0253809Y0233061D03*
X0255384Y0233061D03*
X0256959Y0233061D03*
X0258533Y0233061D03*
X0260108Y0233061D03*
X0261683Y0233061D03*
X0263258Y0233061D03*
X0264833Y0233061D03*
X0266407Y0233061D03*
X0267982Y0233061D03*
X0269557Y0233061D03*
X0271132Y0233061D03*
X0272707Y0233061D03*
X0274281Y0233061D03*
X0275856Y0233061D03*
X0277431Y0233061D03*
X0279006Y0233061D03*
X0280581Y0233061D03*
X0282155Y0233061D03*
X0283730Y0233061D03*
X0283730Y0242274D03*
X0282155Y0242274D03*
X0280581Y0242274D03*
X0279006Y0242274D03*
X0277431Y0242274D03*
X0275856Y0242274D03*
X0274281Y0242274D03*
X0272707Y0242274D03*
X0271132Y0242274D03*
X0269557Y0242274D03*
X0267982Y0242274D03*
X0266407Y0242274D03*
X0264833Y0242274D03*
X0263258Y0242274D03*
X0261683Y0242274D03*
X0260108Y0242274D03*
X0258533Y0242274D03*
X0256959Y0242274D03*
X0255384Y0242274D03*
X0253809Y0242274D03*
X0252234Y0242274D03*
X0250659Y0242274D03*
X0249085Y0242274D03*
X0247510Y0242274D03*
X0245935Y0242274D03*
X0244360Y0242274D03*
X0242785Y0242274D03*
X0241211Y0242274D03*
X0239636Y0242274D03*
X0238061Y0242274D03*
X0236486Y0242274D03*
X0234911Y0242274D03*
X0233337Y0242274D03*
X0231762Y0242274D03*
X0230187Y0242274D03*
X0225463Y0242274D03*
X0223888Y0242274D03*
X0222313Y0242274D03*
X0220738Y0242274D03*
X0219163Y0242274D03*
X0217589Y0242274D03*
X0216014Y0242274D03*
X0214439Y0242274D03*
X0212864Y0242274D03*
X0211289Y0242274D03*
X0209715Y0242274D03*
X0208140Y0242274D03*
X0206565Y0242274D03*
X0204990Y0242274D03*
X0203415Y0242274D03*
X0201841Y0242274D03*
X0200266Y0242274D03*
X0198691Y0242274D03*
X0197116Y0242274D03*
X0195541Y0242274D03*
X0193967Y0242274D03*
X0192392Y0242274D03*
X0190817Y0242274D03*
X0189242Y0242274D03*
X0187667Y0242274D03*
X0186093Y0242274D03*
X0184518Y0242274D03*
X0182943Y0242274D03*
X0181368Y0242274D03*
X0179793Y0242274D03*
X0178218Y0242274D03*
X0176644Y0242274D03*
X0175069Y0242274D03*
X0173494Y0242274D03*
X0171919Y0242274D03*
X0167195Y0242274D03*
X0165620Y0242274D03*
X0164045Y0242274D03*
X0162470Y0242274D03*
X0160896Y0242274D03*
X0159321Y0242274D03*
X0157746Y0242274D03*
X0156171Y0242274D03*
X0154596Y0242274D03*
X0153022Y0242274D03*
X0151447Y0242274D03*
X0149872Y0242274D03*
X0148297Y0242274D03*
X0146722Y0242274D03*
X0145148Y0242274D03*
X0143573Y0242274D03*
X0141998Y0242274D03*
X0140423Y0242274D03*
X0138848Y0242274D03*
X0137274Y0242274D03*
X0135699Y0242274D03*
X0134124Y0242274D03*
X0132549Y0242274D03*
X0130974Y0242274D03*
X0129400Y0242274D03*
X0127825Y0242274D03*
X0126250Y0242274D03*
X0124675Y0242274D03*
X0123100Y0242274D03*
X0121526Y0242274D03*
X0119951Y0242274D03*
X0118376Y0242274D03*
X0116801Y0242274D03*
X0115226Y0242274D03*
X0113652Y0242274D03*
X0108927Y0242274D03*
X0107352Y0242274D03*
X0105778Y0242274D03*
X0104203Y0242274D03*
X0102628Y0242274D03*
X0101053Y0242274D03*
X0099478Y0242274D03*
X0097904Y0242274D03*
X0096329Y0242274D03*
X0094754Y0242274D03*
X0093179Y0242274D03*
X0091604Y0242274D03*
X0090030Y0242274D03*
X0088455Y0242274D03*
X0086880Y0242274D03*
X0085305Y0242274D03*
X0083730Y0242274D03*
X0082155Y0242274D03*
X0080581Y0242274D03*
X0079006Y0242274D03*
X0077431Y0242274D03*
X0075856Y0242274D03*
X0074281Y0242274D03*
X0072707Y0242274D03*
X0071132Y0242274D03*
X0069557Y0242274D03*
X0067982Y0242274D03*
X0066407Y0242274D03*
X0064833Y0242274D03*
X0063258Y0242274D03*
X0061683Y0242274D03*
X0060108Y0242274D03*
X0058533Y0242274D03*
X0056959Y0242274D03*
X0055384Y0242274D03*
X0055384Y0233061D03*
X0056959Y0233061D03*
X0058533Y0233061D03*
X0060108Y0233061D03*
X0061683Y0233061D03*
X0063258Y0233061D03*
X0064833Y0233061D03*
X0066407Y0233061D03*
X0067982Y0233061D03*
X0069557Y0233061D03*
X0071132Y0233061D03*
X0072707Y0233061D03*
X0074281Y0233061D03*
X0075856Y0233061D03*
X0077431Y0233061D03*
X0079006Y0233061D03*
X0080581Y0233061D03*
X0082155Y0233061D03*
X0083730Y0233061D03*
X0085305Y0233061D03*
X0086880Y0233061D03*
X0088455Y0233061D03*
X0090030Y0233061D03*
X0091604Y0233061D03*
X0093179Y0233061D03*
X0094754Y0233061D03*
X0096329Y0233061D03*
X0097904Y0233061D03*
X0099478Y0233061D03*
X0101053Y0233061D03*
X0102628Y0233061D03*
X0104203Y0233061D03*
X0105778Y0233061D03*
X0107352Y0233061D03*
X0108927Y0233061D03*
X0113652Y0233061D03*
X0115226Y0233061D03*
X0116801Y0233061D03*
X0118376Y0233061D03*
X0119951Y0233061D03*
X0121526Y0233061D03*
X0123100Y0233061D03*
X0124675Y0233061D03*
X0126250Y0233061D03*
X0127825Y0233061D03*
X0129400Y0233061D03*
X0130974Y0233061D03*
X0132549Y0233061D03*
X0134124Y0233061D03*
X0135699Y0233061D03*
X0137274Y0233061D03*
X0138848Y0233061D03*
X0140423Y0233061D03*
X0141998Y0233061D03*
D12*
X0061127Y0063535D03*
X0059943Y0066178D03*
X0059839Y0069099D03*
X0061051Y0071748D03*
X0056922Y0069626D03*
X0056463Y0072484D03*
X0057118Y0075333D03*
X0058974Y0077579D03*
X0064565Y0066654D03*
X0064081Y0063781D03*
X0064938Y0060986D03*
X0066764Y0058740D03*
X0069554Y0059743D03*
X0069279Y0062643D03*
X0071105Y0057265D03*
X0073451Y0055568D03*
X0075886Y0057258D03*
X0074870Y0059989D03*
X0078026Y0055266D03*
X0080731Y0054234D03*
X0083580Y0054234D03*
X0086285Y0055266D03*
X0088425Y0057258D03*
X0089441Y0059989D03*
X0090860Y0055568D03*
X0093206Y0057265D03*
X0094757Y0059743D03*
X0095032Y0062643D03*
X0097547Y0058740D03*
X0099373Y0060986D03*
X0100230Y0063781D03*
X0099746Y0066654D03*
X0103184Y0063535D03*
X0104368Y0066178D03*
X0104472Y0069099D03*
X0103260Y0071748D03*
X0107389Y0069626D03*
X0107848Y0072484D03*
X0107193Y0075333D03*
X0105337Y0077579D03*
X0115386Y0075333D03*
X0117242Y0077579D03*
X0114731Y0072484D03*
X0115190Y0069626D03*
X0118107Y0069099D03*
X0119318Y0071748D03*
X0118211Y0066178D03*
X0119394Y0063535D03*
X0122348Y0063781D03*
X0122833Y0066654D03*
X0127546Y0062643D03*
X0127822Y0059743D03*
X0129373Y0057265D03*
X0131719Y0055568D03*
X0134154Y0057258D03*
X0133137Y0059989D03*
X0136293Y0055266D03*
X0138999Y0054234D03*
X0141848Y0054234D03*
X0144553Y0055266D03*
X0146692Y0057258D03*
X0147709Y0059989D03*
X0149128Y0055568D03*
X0151474Y0057265D03*
X0153025Y0059743D03*
X0153300Y0062643D03*
X0155814Y0058740D03*
X0157641Y0060986D03*
X0158498Y0063781D03*
X0158013Y0066654D03*
X0161452Y0063535D03*
X0162635Y0066178D03*
X0162740Y0069099D03*
X0161528Y0071748D03*
X0165657Y0069626D03*
X0166116Y0072484D03*
X0165460Y0075333D03*
X0163604Y0077579D03*
X0173654Y0075333D03*
X0175510Y0077579D03*
X0172998Y0072484D03*
X0173457Y0069626D03*
X0176375Y0069099D03*
X0177586Y0071748D03*
X0176479Y0066178D03*
X0177662Y0063535D03*
X0180616Y0063781D03*
X0181101Y0066654D03*
X0185814Y0062643D03*
X0186090Y0059743D03*
X0187641Y0057265D03*
X0189986Y0055568D03*
X0192422Y0057258D03*
X0191405Y0059989D03*
X0194561Y0055266D03*
X0197266Y0054234D03*
X0200116Y0054234D03*
X0202821Y0055266D03*
X0204960Y0057258D03*
X0205977Y0059989D03*
X0207395Y0055568D03*
X0209741Y0057265D03*
X0211292Y0059743D03*
X0211568Y0062643D03*
X0214082Y0058740D03*
X0215909Y0060986D03*
X0216766Y0063781D03*
X0216281Y0066654D03*
X0219720Y0063535D03*
X0220903Y0066178D03*
X0221007Y0069099D03*
X0219796Y0071748D03*
X0223925Y0069626D03*
X0224383Y0072484D03*
X0223728Y0075333D03*
X0221872Y0077579D03*
X0231921Y0075333D03*
X0233778Y0077579D03*
X0231266Y0072484D03*
X0231725Y0069626D03*
X0234642Y0069099D03*
X0235854Y0071748D03*
X0234747Y0066178D03*
X0235930Y0063535D03*
X0238884Y0063781D03*
X0239369Y0066654D03*
X0244082Y0062643D03*
X0244357Y0059743D03*
X0245908Y0057265D03*
X0248254Y0055568D03*
X0250689Y0057258D03*
X0249673Y0059989D03*
X0252829Y0055266D03*
X0255534Y0054234D03*
X0258383Y0054234D03*
X0261088Y0055266D03*
X0263228Y0057258D03*
X0264245Y0059989D03*
X0265663Y0055568D03*
X0268009Y0057265D03*
X0269560Y0059743D03*
X0269835Y0062643D03*
X0272350Y0058740D03*
X0274177Y0060986D03*
X0275033Y0063781D03*
X0274549Y0066654D03*
X0277988Y0063535D03*
X0279171Y0066178D03*
X0279275Y0069099D03*
X0278063Y0071748D03*
X0282192Y0069626D03*
X0282651Y0072484D03*
X0281996Y0075333D03*
X0280140Y0077579D03*
X0275357Y0097502D03*
X0275991Y0100345D03*
X0275281Y0103181D03*
X0273575Y0105520D03*
X0270736Y0104665D03*
X0270860Y0101754D03*
X0265415Y0104698D03*
X0264543Y0107477D03*
X0262511Y0109578D03*
X0259863Y0110751D03*
X0254054Y0110751D03*
X0251407Y0109578D03*
X0249374Y0107477D03*
X0248502Y0104698D03*
X0246854Y0109038D03*
X0244600Y0107221D03*
X0243181Y0104665D03*
X0243058Y0101754D03*
X0240343Y0105520D03*
X0238636Y0103181D03*
X0237926Y0100345D03*
X0238561Y0097502D03*
X0217723Y0100345D03*
X0217089Y0097502D03*
X0212592Y0101754D03*
X0212469Y0104665D03*
X0211049Y0107221D03*
X0208796Y0109038D03*
X0206275Y0107477D03*
X0207148Y0104698D03*
X0204243Y0109578D03*
X0201595Y0110751D03*
X0195786Y0110751D03*
X0193139Y0109578D03*
X0191107Y0107477D03*
X0190234Y0104698D03*
X0188586Y0109038D03*
X0186332Y0107221D03*
X0184913Y0104665D03*
X0184790Y0101754D03*
X0182075Y0105520D03*
X0180368Y0103181D03*
X0179659Y0100345D03*
X0180293Y0097502D03*
X0159455Y0100345D03*
X0158821Y0097502D03*
X0154324Y0101754D03*
X0154201Y0104665D03*
X0152782Y0107221D03*
X0150528Y0109038D03*
X0148007Y0107477D03*
X0148880Y0104698D03*
X0145975Y0109578D03*
X0143328Y0110751D03*
X0137519Y0110751D03*
X0134871Y0109578D03*
X0132839Y0107477D03*
X0131967Y0104698D03*
X0130319Y0109038D03*
X0128065Y0107221D03*
X0126645Y0104665D03*
X0126522Y0101754D03*
X0123807Y0105520D03*
X0122100Y0103181D03*
X0121391Y0100345D03*
X0122025Y0097502D03*
X0101188Y0100345D03*
X0100553Y0097502D03*
X0096056Y0101754D03*
X0095933Y0104665D03*
X0094514Y0107221D03*
X0092260Y0109038D03*
X0089740Y0107477D03*
X0090612Y0104698D03*
X0087707Y0109578D03*
X0085060Y0110751D03*
X0079251Y0110751D03*
X0076604Y0109578D03*
X0074571Y0107477D03*
X0073699Y0104698D03*
X0072051Y0109038D03*
X0069797Y0107221D03*
X0068378Y0104665D03*
X0068255Y0101754D03*
X0065539Y0105520D03*
X0063833Y0103181D03*
X0063123Y0100345D03*
X0063758Y0097502D03*
X0073451Y0131159D03*
X0071105Y0132855D03*
X0069554Y0135333D03*
X0069279Y0138234D03*
X0066764Y0134331D03*
X0064938Y0136577D03*
X0064081Y0139372D03*
X0064565Y0142245D03*
X0061127Y0139126D03*
X0059943Y0141768D03*
X0059839Y0144689D03*
X0061051Y0147339D03*
X0056922Y0145216D03*
X0056463Y0148075D03*
X0057118Y0150924D03*
X0058974Y0153169D03*
X0063758Y0173093D03*
X0063123Y0175936D03*
X0063833Y0178772D03*
X0065539Y0181111D03*
X0068378Y0180256D03*
X0068255Y0177345D03*
X0069797Y0182811D03*
X0072051Y0184628D03*
X0074571Y0183068D03*
X0073699Y0180288D03*
X0076604Y0185169D03*
X0079251Y0186341D03*
X0085060Y0186341D03*
X0087707Y0185169D03*
X0089740Y0183068D03*
X0090612Y0180288D03*
X0092260Y0184628D03*
X0094514Y0182811D03*
X0095933Y0180256D03*
X0096056Y0177345D03*
X0098772Y0181111D03*
X0100478Y0178772D03*
X0101188Y0175936D03*
X0100553Y0173093D03*
X0105337Y0153169D03*
X0107193Y0150924D03*
X0107848Y0148075D03*
X0107389Y0145216D03*
X0104472Y0144689D03*
X0103260Y0147339D03*
X0104368Y0141768D03*
X0103184Y0139126D03*
X0100230Y0139372D03*
X0099746Y0142245D03*
X0099373Y0136577D03*
X0097547Y0134331D03*
X0094757Y0135333D03*
X0095032Y0138234D03*
X0093206Y0132855D03*
X0090860Y0131159D03*
X0088425Y0132849D03*
X0089441Y0135579D03*
X0086285Y0130857D03*
X0083580Y0129825D03*
X0080731Y0129825D03*
X0078026Y0130857D03*
X0075886Y0132849D03*
X0074870Y0135579D03*
X0098772Y0105520D03*
X0100478Y0103181D03*
X0125032Y0134331D03*
X0123205Y0136577D03*
X0122348Y0139372D03*
X0122833Y0142245D03*
X0119394Y0139126D03*
X0118211Y0141768D03*
X0118107Y0144689D03*
X0119318Y0147339D03*
X0115190Y0145216D03*
X0114731Y0148075D03*
X0115386Y0150924D03*
X0117242Y0153169D03*
X0127546Y0138234D03*
X0127822Y0135333D03*
X0129373Y0132855D03*
X0131719Y0131159D03*
X0134154Y0132849D03*
X0133137Y0135579D03*
X0136293Y0130857D03*
X0138999Y0129825D03*
X0141848Y0129825D03*
X0144553Y0130857D03*
X0146692Y0132849D03*
X0147709Y0135579D03*
X0149128Y0131159D03*
X0151474Y0132855D03*
X0153025Y0135333D03*
X0153300Y0138234D03*
X0155814Y0134331D03*
X0157641Y0136577D03*
X0158498Y0139372D03*
X0158013Y0142245D03*
X0161452Y0139126D03*
X0162635Y0141768D03*
X0162740Y0144689D03*
X0161528Y0147339D03*
X0165657Y0145216D03*
X0166116Y0148075D03*
X0165460Y0150924D03*
X0163604Y0153169D03*
X0173654Y0150924D03*
X0175510Y0153169D03*
X0172998Y0148075D03*
X0173457Y0145216D03*
X0176375Y0144689D03*
X0177586Y0147339D03*
X0176479Y0141768D03*
X0177662Y0139126D03*
X0180616Y0139372D03*
X0181101Y0142245D03*
X0181473Y0136577D03*
X0183300Y0134331D03*
X0186090Y0135333D03*
X0185814Y0138234D03*
X0187641Y0132855D03*
X0189986Y0131159D03*
X0192422Y0132849D03*
X0191405Y0135579D03*
X0194561Y0130857D03*
X0197266Y0129825D03*
X0200116Y0129825D03*
X0202821Y0130857D03*
X0204960Y0132849D03*
X0205977Y0135579D03*
X0207395Y0131159D03*
X0209741Y0132855D03*
X0211292Y0135333D03*
X0211568Y0138234D03*
X0214082Y0134331D03*
X0215909Y0136577D03*
X0216766Y0139372D03*
X0216281Y0142245D03*
X0219720Y0139126D03*
X0220903Y0141768D03*
X0221007Y0144689D03*
X0219796Y0147339D03*
X0223925Y0145216D03*
X0224383Y0148075D03*
X0223728Y0150924D03*
X0221872Y0153169D03*
X0231921Y0150924D03*
X0233778Y0153169D03*
X0231266Y0148075D03*
X0231725Y0145216D03*
X0234642Y0144689D03*
X0235854Y0147339D03*
X0234747Y0141768D03*
X0235930Y0139126D03*
X0238884Y0139372D03*
X0239369Y0142245D03*
X0239741Y0136577D03*
X0241568Y0134331D03*
X0244357Y0135333D03*
X0244082Y0138234D03*
X0245908Y0132855D03*
X0248254Y0131159D03*
X0250689Y0132849D03*
X0249673Y0135579D03*
X0252829Y0130857D03*
X0255534Y0129825D03*
X0258383Y0129825D03*
X0261088Y0130857D03*
X0263228Y0132849D03*
X0264245Y0135579D03*
X0265663Y0131159D03*
X0268009Y0132855D03*
X0269560Y0135333D03*
X0269835Y0138234D03*
X0272350Y0134331D03*
X0274177Y0136577D03*
X0275033Y0139372D03*
X0274549Y0142245D03*
X0277988Y0139126D03*
X0279171Y0141768D03*
X0279275Y0144689D03*
X0278063Y0147339D03*
X0282192Y0145216D03*
X0282651Y0148075D03*
X0281996Y0150924D03*
X0280140Y0153169D03*
X0275357Y0173093D03*
X0275991Y0175936D03*
X0275281Y0178772D03*
X0273575Y0181111D03*
X0270736Y0180256D03*
X0270860Y0177345D03*
X0269317Y0182811D03*
X0267063Y0184628D03*
X0264543Y0183068D03*
X0265415Y0180288D03*
X0262511Y0185169D03*
X0259863Y0186341D03*
X0254054Y0186341D03*
X0251407Y0185169D03*
X0249374Y0183068D03*
X0248502Y0180288D03*
X0246854Y0184628D03*
X0244600Y0182811D03*
X0243181Y0180256D03*
X0243058Y0177345D03*
X0240343Y0181111D03*
X0238636Y0178772D03*
X0237926Y0175936D03*
X0238561Y0173093D03*
X0217723Y0175936D03*
X0217089Y0173093D03*
X0217014Y0178772D03*
X0215307Y0181111D03*
X0212469Y0180256D03*
X0212592Y0177345D03*
X0211049Y0182811D03*
X0208796Y0184628D03*
X0206275Y0183068D03*
X0207148Y0180288D03*
X0204243Y0185169D03*
X0201595Y0186341D03*
X0195786Y0186341D03*
X0193139Y0185169D03*
X0191107Y0183068D03*
X0190234Y0180288D03*
X0188586Y0184628D03*
X0186332Y0182811D03*
X0184913Y0180256D03*
X0184790Y0177345D03*
X0182075Y0181111D03*
X0180368Y0178772D03*
X0179659Y0175936D03*
X0180293Y0173093D03*
X0159455Y0175936D03*
X0158821Y0173093D03*
X0158746Y0178772D03*
X0157039Y0181111D03*
X0154201Y0180256D03*
X0154324Y0177345D03*
X0152782Y0182811D03*
X0150528Y0184628D03*
X0148007Y0183068D03*
X0148880Y0180288D03*
X0145975Y0185169D03*
X0143328Y0186341D03*
X0137519Y0186341D03*
X0134871Y0185169D03*
X0132839Y0183068D03*
X0131967Y0180288D03*
X0130319Y0184628D03*
X0128065Y0182811D03*
X0126645Y0180256D03*
X0126522Y0177345D03*
X0123807Y0181111D03*
X0122100Y0178772D03*
X0121391Y0175936D03*
X0122025Y0173093D03*
X0138999Y0205416D03*
X0141848Y0205416D03*
X0144553Y0206448D03*
X0146692Y0208439D03*
X0147709Y0211170D03*
X0149128Y0206749D03*
X0151474Y0208446D03*
X0153025Y0210924D03*
X0153300Y0213824D03*
X0155814Y0209921D03*
X0157641Y0212168D03*
X0158498Y0214962D03*
X0158013Y0217835D03*
X0161452Y0214716D03*
X0162635Y0217359D03*
X0162740Y0220280D03*
X0161528Y0222929D03*
X0165657Y0220807D03*
X0166116Y0223665D03*
X0165460Y0226514D03*
X0163604Y0228760D03*
X0173654Y0226514D03*
X0175510Y0228760D03*
X0172998Y0223665D03*
X0173457Y0220807D03*
X0176375Y0220280D03*
X0177586Y0222929D03*
X0176479Y0217359D03*
X0177662Y0214716D03*
X0180616Y0214962D03*
X0181101Y0217835D03*
X0181473Y0212168D03*
X0183300Y0209921D03*
X0186090Y0210924D03*
X0185814Y0213824D03*
X0187641Y0208446D03*
X0189986Y0206749D03*
X0192422Y0208439D03*
X0191405Y0211170D03*
X0194561Y0206448D03*
X0197266Y0205416D03*
X0200116Y0205416D03*
X0202821Y0206448D03*
X0204960Y0208439D03*
X0205977Y0211170D03*
X0207395Y0206749D03*
X0209741Y0208446D03*
X0211292Y0210924D03*
X0211568Y0213824D03*
X0214082Y0209921D03*
X0215909Y0212168D03*
X0216766Y0214962D03*
X0216281Y0217835D03*
X0219720Y0214716D03*
X0220903Y0217359D03*
X0221007Y0220280D03*
X0219796Y0222929D03*
X0223925Y0220807D03*
X0224383Y0223665D03*
X0223728Y0226514D03*
X0221872Y0228760D03*
X0231921Y0226514D03*
X0233778Y0228760D03*
X0231266Y0223665D03*
X0231725Y0220807D03*
X0234642Y0220280D03*
X0235854Y0222929D03*
X0234747Y0217359D03*
X0235930Y0214716D03*
X0238884Y0214962D03*
X0239369Y0217835D03*
X0239741Y0212168D03*
X0241568Y0209921D03*
X0244357Y0210924D03*
X0244082Y0213824D03*
X0245908Y0208446D03*
X0248254Y0206749D03*
X0250689Y0208439D03*
X0249673Y0211170D03*
X0252829Y0206448D03*
X0255534Y0205416D03*
X0258383Y0205416D03*
X0261088Y0206448D03*
X0263228Y0208439D03*
X0264245Y0211170D03*
X0265663Y0206749D03*
X0268009Y0208446D03*
X0269560Y0210924D03*
X0269835Y0213824D03*
X0272350Y0209921D03*
X0274177Y0212168D03*
X0275033Y0214962D03*
X0274549Y0217835D03*
X0277988Y0214716D03*
X0279171Y0217359D03*
X0279275Y0220280D03*
X0278063Y0222929D03*
X0282192Y0220807D03*
X0282651Y0223665D03*
X0281996Y0226514D03*
X0280140Y0228760D03*
X0275357Y0248683D03*
X0275991Y0251527D03*
X0275281Y0254362D03*
X0273575Y0256701D03*
X0270736Y0255846D03*
X0270860Y0252935D03*
X0269317Y0258402D03*
X0267063Y0260219D03*
X0264543Y0258658D03*
X0265415Y0255879D03*
X0262511Y0260760D03*
X0259863Y0261932D03*
X0254054Y0261932D03*
X0251407Y0260760D03*
X0249374Y0258658D03*
X0248502Y0255879D03*
X0246854Y0260219D03*
X0244600Y0258402D03*
X0243181Y0255846D03*
X0243058Y0252935D03*
X0240343Y0256701D03*
X0238636Y0254362D03*
X0237926Y0251527D03*
X0238561Y0248683D03*
X0217723Y0251527D03*
X0217089Y0248683D03*
X0217014Y0254362D03*
X0215307Y0256701D03*
X0212469Y0255846D03*
X0212592Y0252935D03*
X0211049Y0258402D03*
X0208796Y0260219D03*
X0206275Y0258658D03*
X0207148Y0255879D03*
X0204243Y0260760D03*
X0201595Y0261932D03*
X0195786Y0261932D03*
X0193139Y0260760D03*
X0191107Y0258658D03*
X0190234Y0255879D03*
X0188586Y0260219D03*
X0186332Y0258402D03*
X0184913Y0255846D03*
X0184790Y0252935D03*
X0182075Y0256701D03*
X0180368Y0254362D03*
X0179659Y0251527D03*
X0180293Y0248683D03*
X0159455Y0251527D03*
X0158821Y0248683D03*
X0158746Y0254362D03*
X0157039Y0256701D03*
X0154201Y0255846D03*
X0154324Y0252935D03*
X0152782Y0258402D03*
X0150528Y0260219D03*
X0148007Y0258658D03*
X0148880Y0255879D03*
X0145975Y0260760D03*
X0143328Y0261932D03*
X0137519Y0261932D03*
X0134871Y0260760D03*
X0132839Y0258658D03*
X0131967Y0255879D03*
X0130319Y0260219D03*
X0128065Y0258402D03*
X0126645Y0255846D03*
X0126522Y0252935D03*
X0123807Y0256701D03*
X0122100Y0254362D03*
X0121391Y0251527D03*
X0122025Y0248683D03*
X0117242Y0228760D03*
X0115386Y0226514D03*
X0114731Y0223665D03*
X0115190Y0220807D03*
X0118107Y0220280D03*
X0119318Y0222929D03*
X0118211Y0217359D03*
X0119394Y0214716D03*
X0122348Y0214962D03*
X0122833Y0217835D03*
X0123205Y0212168D03*
X0125032Y0209921D03*
X0127822Y0210924D03*
X0127546Y0213824D03*
X0129373Y0208446D03*
X0131719Y0206749D03*
X0134154Y0208439D03*
X0133137Y0211170D03*
X0136293Y0206448D03*
X0107389Y0220807D03*
X0107848Y0223665D03*
X0107193Y0226514D03*
X0105337Y0228760D03*
X0103260Y0222929D03*
X0104472Y0220280D03*
X0104368Y0217359D03*
X0103184Y0214716D03*
X0100230Y0214962D03*
X0099746Y0217835D03*
X0099373Y0212168D03*
X0097547Y0209921D03*
X0094757Y0210924D03*
X0095032Y0213824D03*
X0093206Y0208446D03*
X0090860Y0206749D03*
X0088425Y0208439D03*
X0089441Y0211170D03*
X0086285Y0206448D03*
X0083580Y0205416D03*
X0080731Y0205416D03*
X0078026Y0206448D03*
X0075886Y0208439D03*
X0074870Y0211170D03*
X0073451Y0206749D03*
X0071105Y0208446D03*
X0069554Y0210924D03*
X0069279Y0213824D03*
X0066764Y0209921D03*
X0064938Y0212168D03*
X0064081Y0214962D03*
X0064565Y0217835D03*
X0061127Y0214716D03*
X0059943Y0217359D03*
X0059839Y0220280D03*
X0061051Y0222929D03*
X0056922Y0220807D03*
X0056463Y0223665D03*
X0057118Y0226514D03*
X0058974Y0228760D03*
X0063758Y0248683D03*
X0063123Y0251527D03*
X0063833Y0254362D03*
X0065539Y0256701D03*
X0068378Y0255846D03*
X0068255Y0252935D03*
X0069797Y0258402D03*
X0072051Y0260219D03*
X0074571Y0258658D03*
X0073699Y0255879D03*
X0076604Y0260760D03*
X0079251Y0261932D03*
X0085060Y0261932D03*
X0087707Y0260760D03*
X0089740Y0258658D03*
X0090612Y0255879D03*
X0092260Y0260219D03*
X0094514Y0258402D03*
X0095933Y0255846D03*
X0096056Y0252935D03*
X0098772Y0256701D03*
X0100478Y0254362D03*
X0101188Y0251527D03*
X0100553Y0248683D03*
X0157039Y0105520D03*
X0158746Y0103181D03*
X0181473Y0060986D03*
X0183300Y0058740D03*
X0217014Y0103181D03*
X0215307Y0105520D03*
X0239741Y0060986D03*
X0241568Y0058740D03*
X0269317Y0107221D03*
X0267063Y0109038D03*
X0125032Y0058740D03*
X0123205Y0060986D03*
M02*
